<svg xmlns="http://www.w3.org/2000/svg" viewBox="0 0 90 62"><path fill="#ff6c2c" d="M22.524 15.267h17.027l-2.637 10.385c-.403 1.447-1.156 2.61-2.26 3.488s-2.386 1.318-3.842 1.318h-7.911c-1.809 0-3.404.542-4.785 1.628s-2.348 2.557-2.901 4.417c-.352 1.395-.389 2.713-.113 3.953s.765 2.339 1.469 3.294 1.607 1.718 2.713 2.287 2.31.852 3.616.852h4.821c.904 0 1.645.376 2.223 1.124s.741 1.589.49 2.519L27.421 62h-5.274c-3.616 0-6.944-.814-9.983-2.441s-5.564-3.784-7.572-6.472-3.379-5.747-4.106-9.183-.641-6.962.263-10.579l.302-1.163a22.94 22.94 0 0 1 3.051-6.858C5.485 23.212 7.117 21.429 9 19.956s3.98-2.622 6.291-3.449a21.3 21.3 0 0 1 7.233-1.24zM31.113 62L45.955 4.805c.401-1.446 1.155-2.608 2.26-3.487S50.6 0 52.057 0h15.746c3.616 0 6.943.814 9.983 2.441s5.562 3.786 7.572 6.471 3.39 5.748 4.144 9.184.652 6.963-.302 10.579l-.301 1.162c-.653 2.48-1.657 4.766-3.014 6.859s-2.976 3.888-4.859 5.386-3.982 2.662-6.291 3.487-4.722 1.24-7.232 1.24H53.866l2.712-10.463c.401-1.395 1.155-2.531 2.26-3.41s2.385-1.317 3.842-1.317h4.37c1.808 0 3.428-.568 4.859-1.705a7.94 7.94 0 0 0 2.825-4.417c.351-1.291.389-2.557.113-3.797a8.66 8.66 0 0 0-1.469-3.294c-.703-.957-1.608-1.73-2.712-2.325s-2.311-.891-3.616-.891h-8.438l-11 42.083a6.57 6.57 0 0 1-2.26 3.41C44.247 61.56 42.991 62 41.585 62H31.113z"/></svg>