<svg xmlns="http://www.w3.org/2000/svg" width="135.52" height="135.52"><path d="M38.537 135.483c.927-2.42 1.77-5.196 2.407-7.54.64-2.361 1.577-5.056 2.082-5.989l.918-1.695-2.791-1.402c-7.582-3.808-13.448-9.873-17.399-17.99-3.473-7.136-4.663-13.195-4.385-22.328.104-3.418.38-6.562.703-8.027 5.025-22.748 25.823-38.344 48.445-36.328 4.355.388 9.557 1.437 12.842 2.59 1.947.682 2.983.639 4.295-.18.657-.41.723-.698.723-3.156 0-3.609-.7-8.834-2.302-17.187C82.476 7.92 82.358 5.16 83.51 3.096c1.106-1.98 2.255-2.738 4.151-2.738 3.804 0 5.725 3.7 4.168 8.027-.966 2.685-1.181 6.796-.494 9.423.294 1.12 1.413 4.083 2.487 6.582 2.695 6.271 3.388 8.175 4.46 12.246.972 3.697 1.568 4.825 2.969 5.62.776.44.895.427 1.456-.16.851-.892 2.203-4.467 3.01-7.967.556-2.404.684-4.014.695-8.727.015-6.247-.266-8.603-1.8-15.11-1.265-5.366-1.136-6.733.819-8.676 1.711-1.7 3.17-2.022 5.167-1.139 2.845 1.259 3.624 5.068 1.783 8.717l-.967 1.914 1.462 7.789c2.13 11.355 2.69 15.396 3.111 22.476.458 7.686.236 9.61-1.679 14.53-2.549 6.552-4.84 13.578-5.621 17.235-2.665 12.478-1.384 23.419 4.11 35.084 1.82 3.865 1.96 4.322 1.976 6.489.03 3.743 1.634 3.416-17.877 3.647-16.361.194-16.836.217-19.028.936-3.152 1.034-5.954 2.5-11.88 6.217-8.386 5.26-13.386 7.485-19.944 8.878-2.993.636-7.507 1.294-7.507 1.094z"/><path d="M59.787 114.01c3.183-.66 7.39-2.068 13.908-4.651 10.378-4.114 13.316-4.913 17.658-4.806l4.444.11c1.36.032 1.667-.089 2.454-.97 1.243-1.39 1.473-3.416.82-7.212-.62-3.605-1.104-5.31-4.181-14.731-1.298-3.974-2.41-7.512-2.47-7.864-.067-.383-.667-.903-1.498-1.297-1.204-.57-1.464-.883-1.967-2.37-.319-.94-.776-1.838-1.017-1.993-1.615-1.042-5.174-1.09-8.07-.11-4.246 1.854-7.443 3.564-11.696 5.734-1.663-.49-3.378-1.01-5.049-1.35-1.423 1.846-2.751 3.254-4.037 5.331 0 .369 5.043 14.403 5.413 15.063.212.38.436.314 1.243-.365l.985-.829a16.061 16.061 0 001.383 2.891c.266.002 2.855-3.718 2.855-4.103-1.044-2.872-2.494-5.096-3.303-8.098.501-.435 9.282-4.134 10.987-4.629.96-.278 2.36-.506 3.113-.506 2.275 0 2.846.768 4.296 5.779 1.451 5.016 1.79 7.188 1.313 8.432-.403 1.054-1.041 1.334-4.11 1.803-9.37 2.21-16.203 5.499-24.81 8.69-.479-2.393-.83-4.703-1.15-6.672-.67-4.142-1.119-5.89-2.128-8.306-.703-1.682-1.36-3.848-1.46-4.812l-.18-1.754-1.73-.765c-1.983-.877-2.466-1.694-2.838-4.803-.127-1.06-.424-2.398-.66-2.975l-.428-1.048 2.134-1.76c1.174-.969 3.371-2.397 4.882-3.175 2.53-1.3 13.889-5.537 15.751-5.873 8.64.649 15.421 2.272 24.495 3.112.932 0 .873.186 1.7-5.4.306-2.072.416-3.742.255-3.883-1.56-.598-2.968-.794-4.665-1.187-.354-.1-.717-.919-1.093-2.465-.309-1.274-.691-2.401-.849-2.505-3.53-.453-7.487-.474-10.716-.647-7.27-.393-8.523-.252-15.983 1.792-14.154 3.88-27.186 11.011-30.183 16.517-.862 1.585-.897 1.816-.794 5.29l.108 3.633 1.384 1.732c3.155 3.947 3.456 4.606 7.236 15.858 5.616 16.72 8.073 21.596 11.286 22.4 1.349.338 4.707.216 6.962-.252z" fill="#fff"/></svg>