<svg xmlns="http://www.w3.org/2000/svg" width="56.678" height="56.678"><path d="M44.898 38.7a19.12 19.12 0 01-3.92 5.89c.29.718.47 1.477.53 2.25.38 3.73 8.62 3.21 9 2.46.38-.75-.58-8.07-5.63-10.6M28.458 50a17.38 17.38 0 01-3.16-.3 6.93 6.93 0 005.72 6.91 6.8 6.8 0 004.08-.69h-.41c-3-.5-4-3.1-3.69-6.14a17.57 17.57 0 01-2.58.19m-22.12-.84c.4.75 8.47 1.44 8.85-2.29a7.67 7.67 0 01.53-2.25 19.15 19.15 0 01-3.95-5.89c-5.03 2.5-5.84 9.72-5.43 10.43m5.61-26.24a19 19 0 014.26-6c-3.87-3.18-10.39-3.44-11-3.04-.61.4-.65 8.48 3.27 8.39a8.15 8.15 0 013.47.64M33.738 9c0-.91.91-2.42.91-3.15s-2.42-2-3.47-3c-1.05-1-2.02-2.85-2.8-2.85h-.08c-.79 0-1.8 1.86-2.85 2.89s-3.47 2.27-3.47 3 .92 2.24.92 3.15a11.55 11.55 0 01-.61 2.5c-.09.42.2.55.52 1.34h.17a17.4 17.4 0 0110.67 0h.18c.32-.79.62-.92.53-1.35a11.7 11.7 0 01-.62-2.53m8.56 15.11a16.27 16.27 0 00-3.71-5.32 14.82 14.82 0 00-9.08-4.13c-.44 0-.83-.06-1.19-.06s-.75 0-1.19.06a14.82 14.82 0 00-9.08 4.13 16.33 16.33 0 00-3.75 5.32 17.31 17.31 0 00-.11 13.53 16.55 16.55 0 003.17 4.93 15.07 15.07 0 008.18 4.57c.91.172 1.834.26 2.76.26h1.11a15 15 0 009.82-4.79 16.47 16.47 0 003.17-4.93 17.28 17.28 0 00-.1-13.57m9.16-10.26c-.61-.4-7.16-.14-11 3.05a19.07 19.07 0 014.26 6 8.16 8.16 0 013.47-.64c3.92.09 4-7.91 3.27-8.39" fill="#1d1d1b"/></svg>