<svg xmlns="http://www.w3.org/2000/svg" data-name="Ebene 1" width="308" height="308"><path d="M199.715 301.03V264.2a118.92 118.92 0 0073-109.85c0-61.76-46.86-112.52-106.79-118.34V74.9a80.4 80.4 0 0133.79 145.55v-73.82h-33.8v160.91c-3.93.3-7.91.46-11.91.46-84.64 0-153.27-69-153.27-154S69.365 0 154.005 0c84.64 0 153.26 69 153.26 154a154 154 0 01-107.55 147.03zm-56.8-54.81v-99.59h-33.8v73.82a80.39 80.39 0 0133.79-145.55V36.01c-59.93 5.82-106.78 56.58-106.78 118.34 0 61.76 46.85 112.52 106.79 118.33z" fill-rule="evenodd"/></svg>