<svg xmlns="http://www.w3.org/2000/svg" width="263.739" height="263.739" viewBox="0 0 197.804 197.804"><path fill="#547bbd" d="M60.095 36.372h4.51c11.36 2.11 22.76 4.03 34.17 5.89-22.29 31.06-41.11 64.44-58.74 98.31-2.46 5.08-5.39 9.95-7.45 15.22-6.34 3.38-13.4 5.82-20.67 5.63-4.27-.26-9.14-1.59-11.52-5.46-.81-2.71-.19-5.65.22-8.4 2.1-10.09 5.57-19.84 9.12-29.5 7.07-18.76 15-37.2 23.84-55.2 2.85-5.65 5.64-11.36 9.21-16.6 4.06-5.52 10.51-9.15 17.31-9.89z"/><path fill="#d55511" d="M132.285 36.372h5.32c7.53.75 14.6 5.12 18.55 11.58 4.71 7.68 8.54 15.85 12.44 23.96 7.04 15.14 13.6 30.52 19.48 46.16 3.5 9.65 7.03 19.36 9.1 29.45.4 2.76 1.06 5.71.23 8.44-2.4 3.85-7.25 5.23-11.54 5.44-7.22.21-14.28-2.17-20.56-5.59-8.56-17.99-18.17-35.48-27.91-52.86-11.87-20.79-24.31-41.31-38.44-60.66 11.11-1.97 22.31-3.47 33.33-5.92z"/><path fill="#b8b8c3" d="M98.775 42.262c.04.01.14.03.18.03 14.13 19.35 26.57 39.87 38.44 60.66 9.74 17.38 19.35 34.87 27.91 52.86-11.09-4.56-20.74-12.49-27.59-22.33-5.11-6.74-12.73-10.99-20.18-14.68-7.08-3.2-14.84-6.51-22.77-5.03-7.02 1.36-13.59 4.36-19.83 7.76-5.71 3.3-11.44 7.04-15.28 12.53-6.76 9.57-16.25 17.22-27.07 21.73 2.06-5.27 4.99-10.14 7.45-15.22 17.63-33.87 36.45-67.25 58.74-98.31z"/></svg>