<svg xmlns="http://www.w3.org/2000/svg" height="49.982" width="49.982" aria-hidden="true" fill="#1aa"><path d="M39.15 11.566a3.118 3.118 0 00-4.346.743c-1.22 1.72-2.572 3-4.11 3.88-.14.08-.285.16-.43.23-.134.07-.27.13-.407.2-1.436.66-3.035 1.01-4.884 1.07-1.85-.06-3.448-.41-4.885-1.07-1.89-.88-3.51-2.29-4.947-4.33a3.11 3.11 0 10-5.08 3.59c2.06 2.91 4.55 5.06 7.42 6.39.57.26 1.14.49 1.73.69-2.43 1.76-5.06 4.22-6.33 7.6-1.31 3.504-1.29 7.3.05 10.685 1.29 3.25 3.66 5.89 6.69 7.44 3.38 1.727 7.68 1.73 11.5.01 4.01-1.806 6.63-5.11 7-8.846.39-3.93-1.49-7.43-4.8-8.916-3.42-1.54-7.29-.444-9.84 2.794a3.117 3.117 0 00.514 4.38c1.35 1.07 3.31.84 4.38-.51.76-.96 1.64-1.318 2.4-.97.66.29 1.3 1.13 1.16 2.61-.145 1.462-1.43 2.91-3.355 3.78-2.086.935-4.425.982-6.108.122-1.68-.86-3-2.345-3.73-4.18-.54-1.38-.99-3.58 0-6.22.74-1.98 2.6-3.85 5.86-5.875 1.38-.86 2.87-1.663 4.3-2.44 1.655-.895 3.22-1.744 4.6-2.653 2.45-1.34 4.608-3.317 6.42-5.88a3.117 3.117 0 00-.743-4.344zM23.305 5.698c.4-.4.93-.62 1.494-.62s1.09.22 1.49.62c.4.4.62.93.62 1.495 0 .564-.22 1.095-.62 1.494-.4.4-.93.62-1.5.62s-1.1-.22-1.5-.62c-.4-.4-.62-.93-.62-1.494 0-.565.22-1.095.62-1.495zm1.494 8.688c1.92 0 3.72-.75 5.08-2.107a7.147 7.147 0 002.1-5.09c0-1.92-.74-3.73-2.1-5.09A7.106 7.106 0 0024.8 0c-1.92 0-3.727.748-5.086 2.107a7.135 7.135 0 00-2.107 5.085c0 1.922.748 3.728 2.107 5.087a7.174 7.174 0 005.086 2.1z"/></svg>