<svg xmlns="http://www.w3.org/2000/svg" width="161.835" height="161.835"><defs><clipPath clipPathUnits="userSpaceOnUse" id="a"><path d="M229.416 340.575l-.33-.286-.83-.082-.084-.28-.864-.042s-10.755-4.261-23.57-6.617c.332.366.621.772.621.772s-4.756-1.135-5.914-2.235c-.332.451-.662.774-.662.774l-.29-.366.29-.446-.166-.409-.496-.2h-.331l-.124.322-1.32.047-.128-.692-.371-.243-.993-.654-.37-.28-1.077.079-.205.612s-3.557-2.967-6.658-3.9c3.515 3.656 10.876 8.931 10.876 8.931l-.044.445-.577.041s-13.481-8.768-15.423-10.474a31.2 31.2 0 002.561 2.317s-5.745-2.884-6.779-5.6c-.206.361-.29.528-.29.528s1.198.81 1.778 2.755c1.205 2.151 3.061 4.266 3.061 4.266l-3.061-3.209-.992-.202-1.323-2.072.21-.162-1.738-1.863.37-.609-.162-.693-.415.403-.455.693-5.584-5.842-.291.526-4.088-3.612 2.148.569-5.995-5.808s8.312-3.653 22.078 2.682c13.498 6.203 28.53 1.818 28.53 1.818s-31.133-4.256-38.08-28.483c-6.498-22.659 18.978-33.121 31.506-33.245l16.29.122s-2.104.245-4.213.978c5.494.364 7.77 1.094 7.77 1.094s-.25-.04-1.901.486c9.675.856 12.239 2.395 12.239 2.395l-.992.244v.205s7.234.687 19.972 6.858c-6.947-2.841-14.809-3.41-14.809-3.41l1.12 1.26s.744-.203 1.199-.043c2.274 1.178 2.315 2.882 2.315 2.882s.041-1.337 1.035-.285c1.155 1.02.249 1.868.249 1.868l-.662.284s1.283 1.339 2.606 2.353c-.746.328-.661 1.466-.661 1.466l.782.078.207.489-.617.244-.457.404.706.203s4.464 6.492 11.329 12.298c-2.852-1.423-3.685-1.866-3.685-1.866s1.276 2.141 11.123 7.911c6.629 3.887 8.065 7.27 8.065 7.27s-4.864-7.174-12.775-6.985c-8.442.201-14.709-.925-14.763-.934.043.009 3.899.741 6.081 2.88 0 0-7.551-2.592-12.035.369-10.213 6.738-26.876 3.774-26.876 3.774s-15.699-1.964-18.935-13.884c-2.319-8.524 7.608-10.869 7.608-10.869s6.342-1.48 8.683 4.456c1.404 3.576-1.656 5.688-1.656 5.688s-5.15 4.98-1.323 9.169c4.3 4.709 17.367 1.63 17.367 1.63s17.697-4.308 6.12-24.762c-7.526-12.988-23.9-11.693-23.9-11.693s-16.623-.725-18.689 16.398c-.581 5.117.165 7.879.165 7.879l.784.657-.34.244v.335s.033.338.685.338c.646 0 .338.73.338.73l-.711.058s-.033.759.68 1.337c-.342.094-.307.276-.307.276s.338.787 1.051.489c.061-1.13.776-.339.776-.339s-.743-.121-.28 1.525c.776 1.642 3.256 3.071 3.256 3.071s-.373.034-.712.397c2.266.73 3.161 2.589 3.161 2.589l-.373.09s-.277-.395-.864-.304c.121.457.309.671.309.671l-.309.056v.674l-.808.058s-.591.368.028 1.007c1.617.306 1.491 1.918 1.491 1.918l.589-.183.403.608.25.672.308.334.963-.396.557-.275 1.396-1.189-1.147 1.986.248.514.155.488-.773.09-.031.366.804.306.063.241.248.092.124.729 1.208.089.56 1.22s6.399 8.839 21.53 7.973c11.41-.649 14.317-7.433 27.955-6.491 8.265.566 10.497-.324 10.497-.324s-4.213 2.922-8.679 3.162c4.548.248 8.102.734 8.102.734l-.578.304-.56.302-.434.186-.557-.368-.745-.061-1.175.49-.562.181-.556-.059-.559-.671-.806.12-2.294.429 2.479.122.742.487.562.302h.742l.064-.424 1.239-.124.556-.363.808.363.807-.241.62.241.619.306.435.117.684-.177 1.115.974.559.058.367-.609.316-.246-.316-.48h.624l.187.786-.125.307.867.242h.933l.123-.609.311.367.061.425.808.545 3.097 1.646 1.053.305.498.363 2.295.248s3.166.974 5.771 4.259c0 0-10.237-6.513-25.493-2.982-10.632 2.464-12.34 5.053-12.34 5.053l.806.306-1.239.362-.622.304-1.118-.12-.867.669h-1.675l-.248.428-1.675.121-.188.306 3.351.063.744-.676.807.126.993-.49.435-.062.557-.365h1.118l.372-.483-.311-.365.558-.61.746-.181v.791l-.435.485.435.666h-.623l-.306.246-.128 1.099-.743.181s-11.415 6.819-20.838 2.92c0 0 .555.672 1.59 1.037.29.038.084.325.084.325l.246.119 1.323-.079-.125.285 1.905.039-.125.405 1.079.02-1.122.309-.468-.599-.377.419-.561.18.089-.643-.666.15-.827-.241-.576-.12-.666.12-.04.366-.742-.486-.416.081-.579.081-.081 1.055 1.032.61s-8.393.324-16.042-2.599c-7.649-2.923-8.435-4.263-16.953-6.009 6.574 2.074 10.419 4.629 12.405 5.847 5.498 3.085 17.035 9.253 20.962 11.526.083.449.206.449.206.449l.456-.285.621.69.664.161v.245l1.031.038.04.368.499-.044.122.367.867.242-1.029.124-.045.283 1.074.082.127.323.535-.28.907.972.749.12.413.69zm1.821-13.545l-1.202-.5-.496-.04-.244.073-.133-.102-.169-.392.878.016.12.203 4.139.325 5.662.324-5.085.286-.414-.368-.702.042-.085.119-.429.148-.808-.43h-.499l-.122.731zm-2.48-.968l.209-.056.027.063z"/></clipPath></defs><g clip-path="url(#a)" transform="matrix(1.33333 0 0 -1.33333 -212.441 475.053)"><path d="M117.004 278.177l126.485-82.565 79.544 117.413-126.484 82.567z" fill="#e41e26"/></g></svg>