<svg xmlns="http://www.w3.org/2000/svg" viewBox="0 0 512 512"><path d="M245.91 33.644c-12.6 3.4-21.4 10.7-28.7 23.9-.6 1.1-4.3 7.6-8.4 14.5-4 6.9-8.1 14.1-9.2 16-1 1.9-2.3 4.2-2.8 5-.9 1.4-23 39.5-27.3 47-3.5 6.3-62.8 109.2-70 121.5-3.8 6.6-8.1 14-9.5 16.5s-4.5 7.8-6.9 11.8c-2.4 4.1-4.3 7.5-4.3 7.8s-4.2 7.3-7.8 12.9c-.6 1.1-1.5 2.6-1.9 3.4-.3.8-3.5 6.4-7.1 12.5s-7.6 13.1-9 15.6-5 8.8-8.1 14c-3 5.2-5.9 10.5-6.5 11.7-.6 1.3-1.4 2.3-1.8 2.3-.5 0-.8.4-.8.9s-6.5 12.2-14.4 25.9c-9.1 15.9-14.8 27-15.6 30.3-5.7 23.7 9.4 47.3 32.9 51.2 10.2 1.8 430.8 1.5 437.1-.2 19.8-5.5 32.7-23.1 31.5-43-.7-10.5-1.9-13.1-22.3-48.1-1.1-1.9-3.3-5.8-4.7-8.5-1.5-2.8-3.2-5.7-3.9-6.5-.6-.8-1.6-2.4-2.2-3.5-2.4-4.4-6.5-11.6-13.4-23.5-4-6.9-8.1-14-9.1-15.8-1.1-1.8-8.7-15.1-17.1-29.5-8.3-14.4-15.8-27.6-16.8-29.2-.9-1.7-19.5-33.8-41.2-71.5-21.8-37.7-40.5-70.1-41.6-72-1-1.9-4.3-7.6-7.2-12.5-2.9-5-6.4-11.1-7.9-13.6-27.6-48.1-31.3-54-36.2-58.2-10.2-8.8-25.4-12.4-37.8-9.1z"/></svg>