<svg xmlns="http://www.w3.org/2000/svg" width="92.935" height="92.935" viewBox="0 0 24.589 24.589"><path d="M9.704 9.495V13.5h2.228l.215-1.137h.694c-.415 1.728-2.321 2.877-4.56 2.704-2.124-.164-4.407-1.365-4.397-3.614.011-2.481 2.229-3.915 4.31-4.005 1.387-.06 2.948.48 4.072 1.407.068.056.08.063.09.07l.07.057.061.052h2.481V4.587h-2.58v1.239c-1.035-.617-2.702-1.204-4.618-1.198a8.31 8.31 0 00-5.859 2.46C.66 8.363-.019 9.922.001 11.48c.02 1.532.71 2.993 1.941 4.115 1.572 1.43 3.865 2.173 6.134 1.987 1.762-.143 3.335-.534 4.482-1.11l-.003.436h2.728v-4.542h.655v5.054h-1.31v2.583h6.06v-2.583h-1.31v-5.056h2.765l.206 1.137h2.24V9.495z" fill="#002c50"/><path d="M10.144 13.06h1.423l.214-1.138h1.583l-.038.253c-.316 2.098-2.5 3.53-5.078 3.331-2.322-.179-4.816-1.525-4.804-4.055.01-2.417 2.045-4.327 4.73-4.443 1.494-.065 3.168.513 4.373 1.507.044.037.051.043.059.048l.04.03 1.881.001V5.028h-1.699v1.555l-.364-.186c-.928-.643-2.638-1.328-4.66-1.328H7.77a7.864 7.864 0 00-5.546 2.329C1.055 8.586.422 10.034.441 11.473c.018 1.409.657 2.756 1.798 3.795 1.482 1.349 3.651 2.05 5.8 1.874 1.876-.152 3.52-.59 4.632-1.232l.333-.193-.005.75h1.843v-4.543h1.536v5.936h-1.31v1.701h5.18V17.86h-1.31v-5.938h3.572l.207 1.138h1.431V9.935H10.144z" fill="#edac09"/></svg>