<svg xmlns="http://www.w3.org/2000/svg" viewBox="0 0 90 90"><path d="M35.261 44.29l-.782-.785c-.59-.59-1.607-.177-1.607.664v11.205c0 .514.424.938.945.938h11.208a.94.94 0 0 0 .662-1.602.94.94 0 0 1 0-1.326l11.922-11.953a.94.94 0 0 0 0-1.327l-1.086-1.082a.94.94 0 0 1 .664-1.602h11.201a.94.94 0 0 1 .942.938v11.205c0 .835-1.017 1.254-1.607.664l-.756-.755c-.371-.377-.961-.377-1.325 0L45.545 69.562c-.365.364-.959.364-1.329 0L19.631 44.974c-.177-.176-.277-.416-.277-.665s.1-.489.277-.665l34.04-34.036c.364-.366.364-.964 0-1.329L45.667.275c-.368-.365-.961-.365-1.329 0L.275 44.34c-.365.366-.365.964 0 1.329l44.063 44.06c.365.364.965.364 1.329 0l44.061-44.06a.94.94 0 0 0 0-1.326L63.805 18.422a.94.94 0 0 0-1.326 0l-25.884 25.87c-.176.177-.415.277-.665.277s-.489-.1-.665-.277h0-.002z" fill="#df5756"/></svg>
