<svg xmlns="http://www.w3.org/2000/svg" width="40.194" height="40.194"><path d="M34.121 40.194a5.212 5.212 0 01-1.324-.171 4.916 4.916 0 01-3.008-2.225 4.492 4.492 0 01-.47-3.593 5.028 5.028 0 016.13-3.3 4.711 4.711 0 013.477 5.817 4.962 4.962 0 01-4.805 3.472zm0-7.6a3.012 3.012 0 00-2.918 2.109 2.862 2.862 0 002.112 3.534 3.05 3.05 0 003.721-2.006 2.862 2.862 0 00-2.112-3.533 3.175 3.175 0 00-.803-.107zM28.6 28.247l-4.39-7.22H15.42v-1.858h8.78l4.391-7.22 1.7.929-4.39 7.22 4.39 7.219zM6.08 24.829a5.214 5.214 0 01-1.324-.171 4.647 4.647 0 01-1.135-8.677 5.185 5.185 0 013.785-.446 4.92 4.92 0 013.008 2.225 4.489 4.489 0 01.47 3.592 4.96 4.96 0 01-4.806 3.474zm0-7.6a3.011 3.011 0 00-2.917 2.109 2.861 2.861 0 002.112 3.533 3.138 3.138 0 002.3-.271 2.881 2.881 0 001.423-1.734 2.727 2.727 0 00-.285-2.181 2.985 2.985 0 00-1.827-1.351 3.149 3.149 0 00-.805-.111zm28.045-7.764a5.263 5.263 0 01-1.333-.172 4.92 4.92 0 01-3.008-2.225 4.49 4.49 0 01-.47-3.593A4.747 4.747 0 0131.658.619a5.186 5.186 0 013.785-.446 4.647 4.647 0 011.134 8.674 5.16 5.16 0 01-2.45.612zm-.007-7.6A3.012 3.012 0 0031.2 3.974a2.725 2.725 0 00.285 2.18 2.986 2.986 0 001.827 1.352 3.153 3.153 0 002.3-.271A2.881 2.881 0 0037.036 5.5a2.727 2.727 0 00-.285-2.181 2.988 2.988 0 00-1.827-1.351 3.158 3.158 0 00-.803-.114z" fill="#585c6a"/></svg>