<svg xmlns="http://www.w3.org/2000/svg" viewBox="0 0 512 512"><path fill="#ff2d2d" d="M376.7 512H135.3A135.3 135.3 0 0 1 0 376.7V135.3C0 60.6 60.6 0 135.3 0h241.4C451.4 0 512 60.6 512 135.3v241.4c0 74.7-60.6 135.3-135.3 135.3z"/><path d="M245.2 199.5a8 8 0 0 0 0-9.5l-35.7-49.3a21.7 21.7 0 0 0-17.6-9H108c-5.3 0-8.4 6.1-5.3 10.4l77 106.3a13 13 0 0 1 0 15.2l-77 106.3a6.5 6.5 0 0 0 5.3 10.3h83.8c7 0 13.5-3.3 17.6-9l35.7-49.2a8 8 0 0 0 0-9.5L222.3 281a42.6 42.6 0 0 1 0-49.9l22.9-31.5z" fill="#fff"/><path d="M308.1 371.3a21.7 21.7 0 0 0 17.6 9h78.2c5.3 0 8.4-6 5.3-10.4l-77-106.3a13 13 0 0 1 0-15.2l77-106.3c2.7-3.8.7-8.8-3.4-10l-1.9-.3h-78.2a21.7 21.7 0 0 0-17.6 9l-72.4 100a26 26 0 0 0 0 30.5l72.4 100z" fill="#fff"/><path fill="#ffabab" d="M359.3 98.3c0-4 3.3-7.3 7.3-7.3h49a27.6 27.6 0 0 1 27.7 27.6v48.5a7.2 7.2 0 0 1-14.5 0v-48.5c0-7.2-5.9-13.1-13.1-13.1h-49.2c-4 0-7.2-3.3-7.2-7.3zm0 315.4c0 4 3.3 7.3 7.3 7.3h49a27.6 27.6 0 0 0 27.7-27.6v-48.5a7.2 7.2 0 0 0-14.5 0v48.5c0 7.2-5.9 13.1-13.1 13.1h-49.2c-4 0-7.2 3.3-7.2 7.3zM152.7 98.4c0-4-3.3-7.3-7.3-7.3h-49a27.6 27.6 0 0 0-27.7 27.6v48.5a7.2 7.2 0 0 0 14.5 0v-48.5c0-7.2 5.9-13.1 13.1-13.1h49.2c4 0 7.2-3.3 7.2-7.3zm0 315.4c0 4-3.3 7.3-7.3 7.3h-49a27.6 27.6 0 0 1-27.7-27.6V345a7.2 7.2 0 0 1 14.5 0v48.5c0 7.2 5.9 13.1 13.1 13.1h49.2c4 0 7.2 3.3 7.2 7.3z" clip-rule="evenodd"/></svg>
