<svg xmlns="http://www.w3.org/2000/svg" xml:space="preserve" id="Layer_1" x="0" y="0" style="enable-background:new 0 0 512 512" version="1.1" viewBox="0 0 512 512"><style>.st1{fill:#fff}.st2{fill-rule:evenodd;clip-rule:evenodd;fill:#ffabab}</style><path d="M376.69 512H135.31C60.6 512 0 451.4 0 376.69V135.31C0 60.6 60.6 0 135.31 0h241.38C451.41 0 512 60.6 512 135.31v241.38C512 451.4 451.41 512 376.69 512z" style="fill:#ff2d2d"/><path d="M245.16 199.47a8.076 8.076 0 0 0 0-9.47l-35.7-49.26a21.699 21.699 0 0 0-17.57-8.97h-83.8c-5.32 0-8.39 6.03-5.27 10.33l77.01 106.25a13.03 13.03 0 0 1 0 15.28l-77.01 106.25c-3.12 4.3-.04 10.33 5.27 10.33h83.8c6.96 0 13.49-3.33 17.57-8.97l35.7-49.26a8.06 8.06 0 0 0 0-9.47l-22.84-31.56c-10.79-14.9-10.79-35.04 0-49.95l22.84-31.53z" class="st1"/><path d="M308.1 371.25a21.7 21.7 0 0 0 17.58 8.98h78.24c5.31 0 8.39-6.02 5.27-10.33l-76.92-106.26c-3.3-4.56-3.3-10.71 0-15.27l76.92-106.26c2.73-3.77.71-8.85-3.39-10.06l-1.88-.27h-78.24a21.7 21.7 0 0 0-17.58 8.98l-72.37 99.98a26.06 26.06 0 0 0 0 30.54l72.37 99.97z" class="st1"/><path d="M359.33 98.25c0-3.99 3.24-7.23 7.23-7.23h49.11c15.25 0 27.61 12.36 27.61 27.61v48.46c0 3.99-3.24 7.23-7.23 7.23s-7.23-3.24-7.23-7.23v-48.46c0-7.27-5.89-13.16-13.16-13.16h-49.11c-3.98.01-7.22-3.22-7.22-7.22zM359.33 413.75c0 3.99 3.24 7.23 7.23 7.23h49.11c15.25 0 27.61-12.36 27.61-27.61v-48.46c0-3.99-3.24-7.23-7.23-7.23s-7.23 3.24-7.23 7.23v48.46c0 7.27-5.89 13.16-13.16 13.16h-49.11c-3.98-.01-7.22 3.23-7.22 7.22zM152.67 98.25c0-3.99-3.24-7.23-7.23-7.23H96.33c-15.25 0-27.61 12.36-27.61 27.61v48.46c0 3.99 3.24 7.23 7.23 7.23s7.23-3.24 7.23-7.23v-48.46c0-7.27 5.89-13.16 13.16-13.16h49.11c3.98.01 7.22-3.22 7.22-7.22zM152.67 413.75c0 3.99-3.24 7.23-7.23 7.23H96.33c-15.25 0-27.61-12.36-27.61-27.61v-48.46c0-3.99 3.24-7.23 7.23-7.23s7.23 3.24 7.23 7.23v48.46c0 7.27 5.89 13.16 13.16 13.16h49.11c3.98-.01 7.22 3.22 7.22 7.22z" class="st2"/></svg>