<svg xmlns="http://www.w3.org/2000/svg" width="1365.333" height="1365.333"><path d="M1092 0H273.333c-38.222 0-73.777 7.107-106.666 21.333C133.777 35.556 104.889 55.111 80 80c-24.89 24.89-44.444 53.777-58.667 86.667C7.111 199.556 0 235.11 0 273.333V1092c0 38.223 7.11 73.777 21.333 106.667 14.223 32.889 33.778 61.777 58.667 86.666 24.89 24.89 53.777 44.445 86.667 58.667 32.889 14.222 68.444 21.333 106.666 21.333H1092c38.223 0 73.777-7.11 106.667-21.333 32.889-14.222 61.777-33.778 86.666-58.667 24.89-24.889 44.444-53.777 58.667-86.666 14.227-32.89 21.333-68.444 21.333-106.667V273.333c0-38.222-7.106-73.777-21.333-106.666-14.223-32.89-33.777-61.778-58.667-86.667-24.889-24.89-53.777-44.444-86.666-58.667C1165.777 7.107 1130.223 0 1092 0z" fill="#154995"/><path d="M1206.667 850.667c0 115.556-31.556 184.666-94.667 207.333-63.11 22.667-164 34-302.667 34H512c-55.11 0-104.444-4-148-12s-80.444-22.89-110.667-44.667C223.111 1013.556 200 984 184 946.667c-16.89-37.334-25.333-85.334-25.333-144v-240c0-58.667 8.444-106.667 25.333-144 16-37.334 39.11-66.89 69.333-88.667S320.444 293.333 364 285.333s92.89-12 148-12h370.667c139.556 0 227.333 23.334 263.333 70 36 46.667 54 108.667 54 186V556H958.667c0-40-10.89-65.11-32.667-75.333-21.777-10.223-52.223-15.334-91.333-15.334H568c-62.223 0-103.777 10.667-124.667 32C422.444 518.667 412 564 412 633.333V732c0 69.333 10.444 114.667 31.333 136 20.89 21.333 62.444 32 124.667 32h264c32 0 61.333-4.89 88-14.667 26.667-9.777 40-34.222 40-73.333v-22.667H654.667V622.667h552v228" fill="#fff"/></svg>