<svg xmlns="http://www.w3.org/2000/svg" width="453.695" height="453.695" viewBox="0 0 34.981 34.981"><path d="M12.889 9.733c2.807-1.916 5.794-2.662 8.272-2.298V2.977H0v21.36h7.236a5.982 5.982 0 01-.24-.456c-2.004-4.227.633-10.561 5.893-14.148z" fill="#2f6bae" clip-rule="evenodd" fill-rule="evenodd"/><path d="M21.045 9.874c-5.582 0-10.106 4.525-10.106 10.107 0 .635.059 1.255.171 1.857.252 1.092.833 1.432 1.371 1.662.265.113.495.157.625.174 1.069.08 2.187-.183 3.241-.84 1.431-.89 2.492-2.338 3.062-3.988a70.128 70.128 0 00-5.142.787l.032-3.17 11.351-.756-.079 10.705-3.429.232c0-.006.003-.01.003-.016l.052-.336a56.592 56.592 0 00.476-4.361 11.875 11.875 0 01-1.477 1.6 12.383 12.383 0 01-2.773 1.883 12.15 12.15 0 01-2.355.879c-.647.166-1.785.244-2.681.278a10.08 10.08 0 007.66 3.513c5.581 0 10.105-4.523 10.105-10.103-.002-5.582-4.526-10.107-10.107-10.107z" fill="#d76f32" clip-rule="evenodd" fill-rule="evenodd"/><path d="M34.981 20.53c0 6.335-5.938 11.474-13.256 11.474-7.318 0-13.255-5.14-13.255-11.474 0-6.334 5.938-11.475 13.255-11.475 7.317 0 13.256 5.14 13.256 11.475z" fill="#fff" clip-rule="evenodd" fill-rule="evenodd"/><path d="M21.106 9.874C15.524 9.874 11 14.399 11 19.98c0 .635.06 1.255.171 1.857.252 1.092.833 1.432 1.372 1.662.265.113.495.157.625.174 1.069.08 2.187-.183 3.24-.84 1.432-.89 2.492-2.338 3.062-3.988a70.128 70.128 0 00-5.142.787l.032-3.17 11.351-.756-.079 10.705-3.43.232c0-.006.003-.01.003-.016l.052-.336a56.592 56.592 0 00.475-4.361 11.875 11.875 0 01-1.477 1.6 12.32 12.32 0 01-5.129 2.762c-.647.166-1.784.244-2.68.278a10.078 10.078 0 007.66 3.513c5.581 0 10.105-4.523 10.105-10.103 0-5.582-4.524-10.107-10.105-10.107z" fill="#d7712c" clip-rule="evenodd" fill-rule="evenodd"/></svg>