<svg xmlns="http://www.w3.org/2000/svg" version="1.1" id="Layer_1" x="0" y="0" xml:space="preserve" width="319.44" height="319.44"><style type="text/css" id="style1038">.st0{fill:#50c6db}</style><g id="g1620" transform="translate(-76.23 -78.96)"><path class="st0" d="M236.2 115.3c-68.2 0-123.4 55.2-123.4 123.4S168 362.1 236.2 362.1s123.4-55.2 123.4-123.4-55.2-123.4-123.4-123.4zm-33 17.5c10.4-3.3 21.6-5 33.1-5 12 0 23.6 1.9 34.4 5.5-7.1 4.9-12.2 11.6-14.9 19.7-4.7 14.1.3 27 4.6 38.4l.5 1.3c2.6 6.7 3.8 15.3-2.8 21.4-2.7-2.4-5.7-4.3-9-5.7 1-13.9-7.1-26.2-22.7-33.2l-1.3-.6c-10.2-4.6-19.1-8.6-23.5-17.1-4.8-9.2-2.1-18.1 1.1-23.9zm50.5 105.7c0 9.6-7.8 17.4-17.4 17.4-9.6 0-17.4-7.8-17.4-17.4 0-9.6 7.8-17.4 17.4-17.4 9.6 0 17.4 7.8 17.4 17.4zM184 140.8c-1.3 8.2 0 16.3 3.9 23.7 6.9 13.2 19.6 18.9 30.8 24l1.2.6c6.6 3 13.6 8.2 13.7 16.7-3.7.3-7.2 1.2-10.4 2.6-9.3-10.7-23.8-13.8-39.9-8.1l-1.3.5c-10.5 3.8-19.6 7.1-28.9 4.1-9.3-3-13.9-10.3-16.1-16 10.5-20.5 26.9-37.3 47-48.1zm-53.9 130.6c-3.2-10.3-4.9-21.3-4.9-32.7 0-11.1 1.7-21.8 4.7-32 4.9 5.9 11.2 10.3 18.6 12.7 14.3 4.6 27.4-.1 38.9-4.2l1.3-.5c7-2.5 15.9-3.6 22.2 2.8-2.1 2.5-3.8 5.4-5.1 8.5-14.4-1.4-27.2 6.5-34.5 21.9l-.6 1.2c-4.6 9.9-8.6 18.5-17.2 22.7-8.8 4.3-17.4 2.2-23-.3zm52.9 64.8c-19.4-10.6-35.3-26.9-45.4-46.5 1.8.2 3.5.3 5.3.3 6.1 0 12.1-1.4 17.6-4.1 13.5-6.7 19.3-19.1 24.4-30.1l.6-1.2c3.1-6.7 8.7-13.7 18.2-13.2.3 3.3 1.1 6.5 2.3 9.5-11.2 9-14.5 23.6-8.4 39.7l.5 1.3c3.9 10.3 7.3 19.1 4.4 28-3.2 9.8-11.7 14.2-18.2 16.1zm86.7 8.4c-10.6 3.4-21.8 5.2-33.5 5.2-11.9 0-23.3-1.9-34.1-5.4 7.1-4.9 12.2-11.6 14.9-19.7 4.7-14.1-.3-27-4.6-38.4l-.5-1.2c-2.6-6.8-3.8-15.6 3-21.6 2.6 2.2 5.6 4.1 8.8 5.4-1.3 14.1 6.9 26.7 22.6 33.8l1.2.6c10.2 4.6 19.1 8.6 23.5 17.1 4.8 9.2 2.1 18.1-1.1 23.9.1-.1 0 .2-.2.3zm19.1-8.1c1.2-8.1-.1-16.1-3.9-23.4-6.9-13.2-19.6-18.9-30.8-24l-1.2-.6c-6.7-3.1-14-8.4-13.7-17.4 3.5-.3 6.8-1.1 9.9-2.4 9.2 11.1 24 14.5 40.3 8.6l1.3-.5c10.5-3.8 19.6-7.1 28.9-4.1 9.1 2.9 13.7 9.9 15.9 15.6-10.3 20.6-26.7 37.4-46.7 48.2zm58.4-97.8c0 11-1.6 21.7-4.7 31.8-4.8-5.8-11.1-10-18.3-12.4-14.3-4.6-27.4.1-38.9 4.2l-1.3.5c-7.1 2.5-16.3 3.7-22.6-3.3 2-2.4 3.7-5.2 5-8.1 1.3.1 2.5.2 3.8.2 13.1 0 24.5-7.9 31.1-22.1l.6-1.2c4.6-9.9 8.6-18.5 17.2-22.7 8.8-4.4 17.4-2.2 23.1.4 3.3 10.3 5 21.3 5 32.7zm-34.9-47c-13.5 6.7-19.3 19.1-24.4 30.1l-.6 1.2c-3.1 6.7-8.8 13.8-18.3 13.2-.2-3.3-1-6.5-2.1-9.5 11.2-9 14.5-23.6 8.4-39.6l-.5-1.3c-3.9-10.3-7.3-19.1-4.4-28 3.2-9.8 11.7-14.2 18.2-16.1l.9-.2c19.4 10.6 35.2 26.9 45.4 46.6-7.9-1.1-15.6.1-22.6 3.6z" id="path1040"/><path class="st0" d="M236.2 81.6C149.4 81.6 79 152 79 238.8 79 325.6 149.4 396 236.2 396c86.8 0 157.2-70.4 157.2-157.2 0-86.8-70.4-157.2-157.2-157.2zm0 294.6c-75.8 0-137.4-61.7-137.4-137.4s61.7-137.4 137.4-137.4c75.8 0 137.4 61.7 137.4 137.4S312 376.2 236.2 376.2z" id="path1042"/><path class="st0" d="M366.9 109.1c-14.7-14.9-33.7-25.8-50.7-29.2-1.1-.2-2.1.4-2.4 1.4-.3 1 .2 2.1 1.1 2.6 16.1 7.4 31.7 18.4 45.1 32 13.5 13.7 24.5 29.5 31.7 45.7.3.8 1.1 1.3 1.9 1.3.2 0 .4 0 .6-.1 1-.3 1.7-1.4 1.4-2.4-3.5-18-13.8-36.2-28.7-51.3z" id="path1044"/><path class="st0" d="M157.1 393.5c-16.1-7.4-31.7-18.4-45.1-32-13.5-13.7-24.5-29.5-31.7-45.7-.4-1-1.6-1.5-2.6-1.2-1 .3-1.7 1.4-1.4 2.4 3.6 18 13.8 36.2 28.8 51.3 14.7 14.9 33.7 25.8 50.7 29.2h.4c.9 0 1.7-.6 2-1.5.4-.9-.1-2-1.1-2.5z" id="path1046"/></g></svg>