<svg xmlns="http://www.w3.org/2000/svg" viewBox="0 0 32 32"><path fill="#448aff" d="M 6.0957 0 A 6.095 6.095 0 0 0 0 6.0957 L 0 25.904 A 6.095 6.095 0 0 0 0.31641 27.732 L 12.35 15.699 C 12.746 15.303 12.746 14.66 12.35 14.264 L 8.9102 10.824 C 8.2652 10.18 8.7316 9.0768 9.6426 9.0898 L 21.74 9.2578 A 1.016 1.016 0 0 1 22.742 10.26 L 22.91 22.359 C 22.923 23.271 21.821 23.737 21.176 23.092 L 17.736 19.652 A 1.016 1.016 0 0 0 16.301 19.652 L 4.2676 31.682 A 6.095 6.095 0 0 0 6.0957 32 L 25.904 32 A 6.095 6.095 0 0 0 32 25.904 L 32 6.0957 A 6.095 6.095 0 0 0 25.904 0 L 6.0957 0 z"/></svg>