<svg width="32" height="32" fill="none" xmlns="http://www.w3.org/2000/svg"><g clip-path="url(#clip0)"><path fill-rule="evenodd" clip-rule="evenodd" d="M25.905-.117A6.095 6.095 0 0132 5.978v19.81a6.095 6.095 0 01-6.095 6.095H6.095A6.095 6.095 0 010 25.788V5.978A6.095 6.095 0 016.095-.117h19.81z" fill="#448AFF"/><mask id="a" maskUnits="userSpaceOnUse" x="0" y="-1" width="32" height="33"><path fill-rule="evenodd" clip-rule="evenodd" d="M25.905-.117A6.095 6.095 0 0132 5.978v19.81a6.095 6.095 0 01-6.095 6.095H6.095A6.095 6.095 0 010 25.788V5.978A6.095 6.095 0 016.095-.117h19.81z" fill="#fff"/></mask><g mask="url(#a)"><path fill-rule="evenodd" clip-rule="evenodd" d="M9.642 8.973c-.911-.013-1.377 1.09-.732 1.734l3.44 3.44c.396.396.396 1.04 0 1.436L-.438 28.369l3.951 3.95L16.3 19.535a1.016 1.016 0 011.437 0l3.439 3.439c.645.645 1.747.18 1.734-.732l-.167-12.1a1.016 1.016 0 00-1.002-1.001L9.642 8.973z" fill="#fff"/></g></g><defs><clipPath id="clip0"><path fill="#fff" d="M0 0h32v32H0z"/></clipPath></defs></svg>