<svg xmlns="http://www.w3.org/2000/svg" width="641.101" height="641.101" viewBox="0 0 169.625 169.625"><g fill="#c1a01e"><path d="M51.714 67.241c-5.342-6.547-13.474-10.727-22.582-10.727h-.003C13.041 56.516 0 69.558 0 85.646c0 16.089 13.042 29.132 29.132 29.132 15.568.052 25.483-11.293 25.527-29.132l-22.271-.055-.004 6.287 14.312.002c.265 6.236-7.35 16.156-17.564 16.156-12.366 0-22.39-10.025-22.39-22.39 0-12.366 10.024-22.39 22.39-22.39 7.247 0 13.69 3.444 17.783 8.784" paint-order="markers fill stroke"/><path fill-rule="evenodd" d="M61.14 57.815h7.206v55.881H61.14z"/><path d="M99.343 54.847l-26.759 58.875h7.774l6.206-13.939h25.558l6.206 13.939h7.846zm0 16.234l9.822 22.061H89.52z"/><path d="M155.07 56.514c-16.088.002-29.129 13.044-29.129 29.132 0 16.089 13.042 29.132 29.132 29.132 5.673.019 10.584-1.492 14.552-4.262v-8.443c-3.97 3.366-9.331 5.963-14.552 5.963-12.366 0-22.39-10.024-22.39-22.39 0-12.366 10.025-22.39 22.39-22.39 5.56 0 10.637 2.04 14.552 5.395v-8.203c-4.287-2.48-9.243-3.934-14.551-3.934z" paint-order="markers fill stroke"/></g></svg>