<svg xmlns="http://www.w3.org/2000/svg" viewBox="0 0 44.2 56.2"><path fill="#020d26" d="M12.2 16.4q.1-2.3 1.9-2.5c1 0 2 1 2 2.5 0 1.3-1 2.4-2 2.4s-2-1-2-2.4m11.6 3.2q-.1-1.6-1.6-1.6-1.6.1-1.6 1.6v.5q0 2.1 1 4.3.2.4.6.5.5-.1.6-.5a9 9 0 0 0 1-4.8m8.9-3.6q-.5-1.3-1.9-1.6-1.9-.1-3.2 2-.4.6 0 .9l.5.2q.4 0 .7-.3 1.3-1 2.4-.2.7.4 1.2.1t.3-1.1"/><path fill="#020d26" d="M41.6 17.3 38.5 15c.3-3.2 0-9.3-5.6-14.2a3 3 0 0 0-4 0 10.3 10.3 0 0 1-13.5 0c-1.2-1-3-1-4.1 0A16 16 0 0 0 5.7 15l-3.1 2.3a6 6 0 0 0-2.6 5v3.1C0 35 3.8 44.3 9.8 49.8q7.2 6.5 12.3 6.4 5.1.1 12.3-6.4c6-5.5 9.8-14.8 9.8-24.4v-3c0-2-1-4-2.6-5M36.8 43a24 24 0 0 0 1.4-8m-1.4 8a32 32 0 0 0 4.9-17.6v-3q0-2-1.6-3L38 17.6a16 16 0 0 1-3 6A21 21 0 0 1 38.1 35m-9.8 16.2a12 12 0 0 1-6.3 2.4q-1.4 0-3-.6a21 21 0 0 0 4-23.7q5.7-.3 10-4 2.6 4.5 2.6 9.7c0 5.8-3 12.7-7.3 16.2M2.5 25.4v-3q0-2 1.6-3l2.2-1.7A16 16 0 0 0 9 23.2l-5.8 9.7q-.8-3.7-.8-7.5M22.1 16q1.1-.1 2.2-1.7l1-1.2c2.5-2.7 5.7-3.3 8-2.4q3.1 1.3 2.6 4.9A14 14 0 0 1 22.1 27 14 14 0 0 1 8.3 15.6q-.4-3.6 2.6-4.9c2.3-1 5.5-.3 8 2.4l1 1.2Q21 16 22.1 16"/></svg>