<svg xmlns="http://www.w3.org/2000/svg" height="38.882" viewBox="0 0 38.882 369.383" class="nav-logo" width="38.882"><path d="M19.441 354.822L87.454 145.5h-136.02l68.01 209.322z" fill="#e24329" class="logo-svg-shape logo-dark-orange-shape" fill-rule="evenodd"/><path d="M19.441 354.822L-48.572 145.5h-95.32L19.443 354.82z" fill="#fc6d26" class="logo-svg-shape logo-orange-shape" fill-rule="evenodd"/><path d="M-143.89 145.5l-20.67 63.61a14.08 14.08 0 005.116 15.744L19.441 354.822-143.89 145.499z" fill="#fca326" class="logo-svg-shape logo-light-orange-shape" fill-rule="evenodd"/><path d="M-143.89 145.5h95.32L-89.538 19.427c-2.107-6.487-11.284-6.487-13.39 0L-143.892 145.5z" fill="#e24329" class="logo-svg-shape logo-dark-orange-shape" fill-rule="evenodd"/><path d="M19.441 354.822L87.454 145.5h95.32L19.444 354.82z" fill="#fc6d26" class="logo-svg-shape logo-orange-shape" fill-rule="evenodd"/><path d="M182.773 145.5l20.67 63.61a14.08 14.08 0 01-5.117 15.744L19.441 354.822l163.332-209.323z" fill="#fca326" class="logo-svg-shape logo-light-orange-shape" fill-rule="evenodd"/><path d="M182.773 145.5h-95.32L128.42 19.427c2.108-6.487 11.285-6.487 13.392 0L182.774 145.5z" fill="#e24329" class="logo-svg-shape logo-dark-orange-shape" fill-rule="evenodd"/></svg>