<svg xmlns="http://www.w3.org/2000/svg" viewBox="0 0 100 25.44"><path fill="#2e4b64" d="m22.68 5.12-.66 1.76-.52.12a9.1 9.1 0 0 0-2.83-2.33 9.03 9.03 0 0 0-3.58-.71c-1.08 0-2.07.16-2.98.45a8.56 8.56 0 0 0-3.87 2.61 11.34 11.34 0 0 0-2.08 3.87c-.56 1.64-.84 3.3-.83 4.98-.02 2.2.54 3.96 1.66 5.22C8.12 22.37 9.81 23 12.04 23c.73 0 1.3-.05 1.75-.14l.95-.32.36-1.18c.56-2.08.9-3.79 1.02-5.12l.08-1.58 2.61.08 2.9-.08-.56 1.76c-.17.53-.37 1.4-.6 2.6a70.92 70.92 0 0 0-.74 3.72l-.19 1.4-.87.3a21.13 21.13 0 0 1-11 .46 10.57 10.57 0 0 1-5.72-3.24C.78 20.16.1 18 0 15.2c-.03-3.12.82-5.84 2.52-8.16a12.6 12.6 0 0 1 6.76-4.78 19.5 19.5 0 0 1 5.5-.75 15.95 15.95 0 0 1 7.08 1.41l1.51.75zm1.16 18.57.67-2.7 1.55-6.33c.23-1 .66-3.04 1.24-6.1.46-2.4.78-4.18.96-5.35l.3-2.16.13-1.05 2.55.08L34.02 0l-.32 1.11-.55 2.16-1.18 5.31-1.32 6.12c-.97 4.74-1.52 7.75-1.65 9.03l-.1 1.31-2.56-.07-3 .07zM38.3 19.7c0 .62.1 1.15.33 1.61.28.65.83 1.2 1.62 1.66a4.32 4.32 0 0 0 4.4.06l.86-.53.6.48-1.15 1.85-1.5.38c-.69.15-1.4.23-2.15.23a8.77 8.77 0 0 1-4.4-1.15 6.67 6.67 0 0 1-3.43-6c0-1.35.23-2.69.71-4a10 10 0 0 1 1.8-3.15c.77-.9 1.7-1.56 2.76-1.98a8.69 8.69 0 0 1 3.19-.58c2.27 0 3.96.67 5.1 2 .57.7.98 1.48 1.2 2.35a9.59 9.59 0 0 1 .13 4.1l-.23 1.07-1.07-.17-1.79-.05-1.79-.05h-5.02c-.12.78-.17 1.4-.17 1.87zm.5-3.8h4.84l.28-1.58c.08-.58.12-1.13.13-1.64.03-1.49-.58-2.23-1.84-2.23-1.54.02-2.6 1.35-3.16 3.99zm11.62 4.69.7-2.03.78.1c.06.53.16 1 .28 1.38.27.95.82 1.7 1.66 2.23.79.5 1.68.75 2.7.73a3.7 3.7 0 0 0 2.45-.78 2.95 2.95 0 0 0 1.09-2.32c-.03-1.22-.62-2.29-1.78-3.21l-2.72-2.23c-.72-.57-1.35-1.2-1.88-1.88a6.25 6.25 0 0 1-1.37-3.97c0-2.07.68-3.77 2.03-5.09a7.13 7.13 0 0 1 5.15-2c2.23.02 4.21.77 5.95 2.25l.7.62-.96 1.67-.8 1.6-.57-.2c-.5-2.34-1.82-3.51-3.98-3.52-.86 0-1.58.27-2.17.84a2.8 2.8 0 0 0-.97 2.1c.02 1 .73 2.1 2.12 3.29l2.6 2.23c.74.65 1.36 1.3 1.86 1.97.36.49.64 1.06.85 1.7a7.1 7.1 0 0 1-.24 4.8c-1.27 3.04-3.67 4.56-7.2 4.57-.91 0-1.76-.1-2.56-.33a13.2 13.2 0 0 1-3.68-1.7l-.98-.66c.44-.95.76-1.67.94-2.16zm19.81 2.59a60.1 60.1 0 0 0 1.32-5.98l.26-1.73-.74-2.36-1.13-3.25-1.33-3.77-.97-2.43-.74-1.74 3.14.08 3.06-.08.32 1.57.58 2.5.94 3.51.9 3.25a99.02 99.02 0 0 0 2.22-3.25l2.16-3.47 1.63-2.54.9-1.58 2.16.08 2.19-.08-1.62 1.76c-.61.68-1.26 1.47-1.93 2.36L80.89 9.6l-2.4 3.3-1.45 2.15-.45 2-.59 2.8a58.8 58.8 0 0 0-.54 3.5l-.2 1.7-2.63-.08-2.93.08zm14.03-2.6.7-2.02.79.1c.06.53.15 1 .28 1.38.26.95.81 1.7 1.66 2.23.78.5 1.68.75 2.69.73 1 0 1.82-.26 2.44-.78a2.95 2.95 0 0 0 1.1-2.32c-.03-1.22-.62-2.29-1.78-3.21l-2.73-2.23c-.72-.57-1.35-1.2-1.87-1.88a6.25 6.25 0 0 1-1.37-3.97c0-2.07.67-3.77 2.02-5.09a7.13 7.13 0 0 1 5.15-2c2.24.02 4.22.77 5.96 2.25l.69.62-.96 1.67-.8 1.6-.56-.2c-.5-2.34-1.83-3.51-3.99-3.52-.85 0-1.57.27-2.16.84a2.8 2.8 0 0 0-.98 2.1c.03 1 .73 2.1 2.13 3.29l2.6 2.23c.74.65 1.36 1.3 1.85 1.97.36.49.64 1.06.85 1.7.2.66.31 1.33.33 2.03a7.1 7.1 0 0 1-.56 2.78c-1.28 3.03-3.68 4.55-7.2 4.56-.92 0-1.77-.1-2.57-.33-1.07-.27-2.3-.84-3.68-1.7l-.97-.66c.44-.95.75-1.67.94-2.16z"/></svg>
