<svg xmlns="http://www.w3.org/2000/svg" viewBox="0 0 88 58.6"><path fill="#ffa40d" d="M60.8 8.4c-15.2 0-25 14-39.8 14-6.6 0-11.2-2.6-12.6-5a.4.4 0 0 1 0-.5.4.4 0 0 1 .6-.1 18.6 18.6 0 0 0 7.8 1.9C33.2 18.7 42.3 0 62.8 0c12.9 0 19.4 5.2 20.4 13.8.4 3.5 1 6.9 1.7 10.6a89.4 89.4 0 0 0 3 10.4 1.2 1.2 0 0 1-.7 1.6l-2.6.9a1.1 1.1 0 0 0-.7 1.4c1.7 11 .3 20-8.5 20-9 0-9.9-12.6-24.7-12.6a.4.4 0 0 1-.3-.7c6.4-7.7 10.4-20.3 21.4-20.3a17.3 17.3 0 0 1 7.7 1.5.4.4 0 0 0 .5-.2.5.5 0 0 0 0-.4c-1-1.7-5-4.2-10-4.2-19.7 0-19.4 28.5-47 28.5-8.9 0-18.2-4.4-21.3-10.3a.4.4 0 0 1 .1-.5.4.4 0 0 1 .5 0A30.5 30.5 0 0 0 19 45c9.1 0 15.7-4.4 18.7-8.7a.4.4 0 0 0-.5-.6 29 29 0 0 1-12 2c-12.4 0-22-5-25-12a.4.4 0 0 1 .5-.5 33 33 0 0 0 16.2 4.1c21.7 0 28.4-17.8 46-17.8a35.4 35.4 0 0 1 7.9 1 .4.4 0 0 0 .5-.1.4.4 0 0 0-.1-.6 14.5 14.5 0 0 0-10.3-3.4" data-name="Path 2280"/></svg>