<svg xmlns="http://www.w3.org/2000/svg" viewBox="0 0 18 18"><circle cx="9" cy="9" r="9" fill="#ffcc1b"/><path fill="#00a082" d="M9 2.6a4.02 4.02 0 0 0-3.27 6.36l.12.16 2.1 2.96s.26.41.8.41h.51c.56 0 .82-.41.82-.41l2.09-2.96.12-.16A4.04 4.04 0 0 0 9 2.6m1.66 5.23-.12.14L9 10.16 7.46 7.97l-.11-.16a2.02 2.02 0 0 1-.39-1.2A2.04 2.04 0 0 1 9 4.57a2.04 2.04 0 0 1 2.04 2.03 2.09 2.09 0 0 1-.38 1.22m-2.8 6.5c0-.61.49-1.11 1.13-1.11.66 0 1.12.48 1.12 1.1 0 .6-.48 1.1-1.13 1.1a1.1 1.1 0 0 1-1.1-1.1"/></svg>