<svg xmlns="http://www.w3.org/2000/svg" width="90" height="30" fill="none"><path d="M84.785 29.87c2.734 0 4.95-2.21 4.95-4.935s-2.216-4.934-4.95-4.934-4.95 2.21-4.95 4.934 2.216 4.934 4.95 4.934z" fill="#ffd100"/><path d="M14.238 13.974v6.456h5.388c-.787 1.231-2.562 1.887-3.765 1.887-4.057 0-6.085-2.304-6.085-6.954 0-5.135 2.677-7.762 7.991-7.762 2.11 0 4.868.525 7.829 1.455V1.334c-.853-.363-2.15-.646-3.813-.93C20.079.121 18.578 0 17.279 0 12.006 0 7.83 1.415 4.706 4.245S0 10.875 0 15.687c0 4.407 1.217 7.884 3.65 10.432C6.085 28.706 9.37 30 13.508 30c4.154 0 7.972-2.149 9.202-4.878l-.027 4.392h6.01v-15.54H14.237zm17.453 15.54V.484h9.33v21.47H51.2v7.56h-19.51zm22.915-.727v-7.924c1.38.444 3.002.808 4.827 1.132s3.408.485 4.747.485c2.271 0 3.448-.566 3.448-1.577 0-.646-.365-.97-2.028-1.334l-3.246-.728c-5.557-1.253-8.152-4.042-8.152-8.773 0-3.114 1.095-5.58 3.245-7.399C59.594.889 62.597 0 66.369 0c2.595 0 6.572.525 9.005 1.132v7.56c-1.258-.322-2.758-.646-4.583-.93s-3.245-.404-4.3-.404c-1.987 0-3.123.566-3.123 1.577 0 .606.527 1.011 1.622 1.294l3.773.89c5.516 1.293 8.071 4.123 8.071 8.934 0 3.074-1.136 5.499-3.366 7.278s-5.314 2.668-9.249 2.668c-3.732 0-7.504-.525-9.613-1.212z" fill="#061ab1"/></svg>