<svg xmlns="http://www.w3.org/2000/svg" width="167.382" height="167.382" viewBox="121.046 214.372 167.382 167.382"><path fill="#141b4d" d="M259.899 320.367l1.702-9.303h-7.794l5.432-27.913h-9.446l-7.181 37.216zM281.673 291.367c1.562 0 3.78.378 5.148.85l1.607-8.548c-1.984-.331-4.11-.565-6.472-.565-10.298 0-15.112 6.139-15.112 13.035 0 8.976 9.162 8.879 9.162 12.707 0 1.936-1.37 2.974-4.298 2.974-1.984 0-4.816-.47-6.471-1.086l-1.748 9.21c1.89.379 4.582.614 7.32.614 9.163 0 15.634-6.092 15.634-13.508 0-8.738-9.211-8.88-9.211-12.752 0-1.702 1.137-2.931 4.44-2.931zM235.15 283.15c-14.17 0-23.238 10.58-23.238 23.569 0 8.124 4.298 13.744 15.068 13.744 4.299 0 8.784-.755 12.423-2.314l3.447-17.994h-9.494l-2.032 10.957c-.85.236-1.842.283-2.596.283-4.772 0-6.472-2.646-6.472-6.092 0-6.473 3.967-13.178 12.042-13.178 2.268 0 4.772.425 6.992 1.134.236.046.473.139.707.188.804.283 1.466.613 1.985.85l1.89-9.73c-3.212-.85-7.132-1.416-10.721-1.416z"/><path fill="#fcbf00" d="M164.114 283.244l-2.551 12.375h17.569c-14.592 21.537-43.452 17.9-51.104 8.975-6.566-7.7-.897-20.877 18.609-29.048-19.318 5.856-30.133 21.302-23.758 31.692 7.226 11.763 29.71 16.673 49.689 10.958 13.367-4.724 19.035-11.29 21.16-14.831l-3.308 17.099h13.13l7.132-37.22z"/></svg>