<svg xmlns="http://www.w3.org/2000/svg" viewBox="0 0 90 30"><path fill="#ffd100" d="M84.8 29.9a5 5 0 1 0 0-10 5 5 0 0 0 0 10z"/><path fill="#061ab1" d="M14.2 14v6.4h5.4c-.8 1.3-2.5 2-3.7 2-4.1 0-6.1-2.4-6.1-7 0-5.2 2.7-7.8 8-7.8 2 0 4.8.5 7.8 1.5V1.3L21.8.4C20 .1 18.6 0 17.3 0 12 0 7.8 1.4 4.7 4.2S0 11 0 15.7C0 20 1.2 23.6 3.6 26c2.5 2.6 5.8 3.9 10 3.9 4 0 7.9-2.1 9.1-4.9v4.4h6V14H14.2zm17.5 15.5V.5H41V22h10.2v7.5H31.7zm23-.7v-8a37.4 37.4 0 0 0 9.5 1.7c2.3 0 3.4-.6 3.4-1.6 0-.6-.3-1-2-1.3l-3.2-.8c-5.6-1.2-8.2-4-8.2-8.7 0-3.1 1.1-5.6 3.2-7.4C59.6.9 62.6 0 66.4 0c2.6 0 6.5.5 9 1.1v7.6a48.3 48.3 0 0 0-9-1.3c-1.9 0-3 .5-3 1.5 0 .6.5 1 1.6 1.3l3.8 1c5.5 1.2 8 4 8 8.9 0 3-1.1 5.5-3.3 7.2S68.2 30 64.2 30a35 35 0 0 1-9.6-1.2z"/></svg>