<svg xmlns="http://www.w3.org/2000/svg" version="1" width="100" height="100" viewBox="0 0 100 99.999"><path d="M0 34.35h100v31.3H0z" fill="none"/><path d="M6.048 40.29h4.543v6.049c-.896.547-2.218.912-3.98.912C2.947 47.25 0 44.987 0 40.945c0-3.648 2.583-6.352 6.625-6.352 1.596 0 3.191.35 3.966.82l-.151 2.037c-1.002-.593-2.355-.851-3.768-.851-2.66 0-4.346 1.564-4.346 4.285 0 2.78 1.64 4.376 4.376 4.376.548 0 1.11-.046 1.687-.137V42.22h-2.34v-1.93zm6.534 6.703h7.083v-1.99h-4.819V34.835h-2.264v12.157zm14.376-3.267c0 .88-.608 1.564-2.127 1.564a8.703 8.703 0 01-3.86-.88l-.107 2.096c1.125.517 2.523.745 3.906.745 2.917 0 4.452-1.763 4.452-3.86 0-4.103-6.245-2.812-6.245-5.288 0-.987.85-1.565 2.05-1.565 1.156 0 2.538.304 3.45.85l.426-1.93c-.85-.501-2.325-.865-3.8-.865-2.46 0-4.375 1.352-4.375 3.737 0 4.226 6.23 2.995 6.23 5.396zm12.31-2.052h-2.462v3.389h2.462c1.367 0 1.96-.79 1.96-1.702 0-.927-.608-1.687-1.96-1.687zm-.456-4.908h-2.006v3.252h2.006c1.352 0 1.96-.654 1.96-1.535 0-.927-.638-1.717-1.96-1.717zm2.705 3.92c1.428.486 2.05 1.49 2.05 2.857 0 1.99-1.337 3.45-4.36 3.45H34.54V34.836h4.194c3.025 0 4.377 1.307 4.377 3.283 0 1.17-.502 2.066-1.595 2.567zm7.265 2.655c-1.566 0-2.006.474-2.006 1.143 0 .653.486 1.095 1.2 1.095 1.08 0 2.097-.825 2.431-2.238zm1.656 3.652v-1.49c-.684 1.094-1.778 1.717-3.009 1.717-1.808 0-2.796-.99-2.796-2.463 0-1.854 1.444-2.753 3.845-2.753h1.96v-.482c0-1.094-.471-1.353-1.778-1.353-.988 0-2.28.26-3.328.578l.197-1.93a12.02 12.02 0 013.465-.531c2.537 0 3.602.637 3.602 2.948v5.759zm3.958 0h2.189v-5.668c.79-.64 1.626-1.094 2.462-1.094.866 0 1.338.318 1.338 1.306v5.456h2.187v-5.851c0-2.066-.866-2.856-2.72-2.856-1.322 0-2.37.683-3.267 1.626v-1.566l-2.189.197zm9.885 0h2.189v-2.37l1.352-1.323 2.188 3.693h2.431l-3.175-5.137 3.343-3.313h-2.66l-3.48 3.662V34.35h-2.188z"/><path d="M28.416 57.89c-.049-.031-.058-.123-.023-.246.086-.286.203-.558.348-.805l.034-.06c.701-1.278 2.915-3.85 9.871-5.046 8.532-1.47 19.833-.508 24.295-.122.746.063 1.472.119 2.163.165l.437.02 1.281.077c.558.027 1.083.043 1.565.054h.142c.425.005 1.55.043 2.215.007.42-.022.955-.07 1.519-.12l.561-.05c.084-.007.122.045.13.09l.002.019a.099.099 0 01-.08.1c-1.94.48-3.885.872-6.25 1.132-3.103.33-6.173.388-10.097.299l-.19-.025c-.491-.03-.54-.051-1.34-.215-.026-.004.026.008-.08-.015-.104-.025-.115-.163.02-.167h.188c3.144.012 3.976-.031 6.652-.153l1.19-.06.99-.087c.098-.008.14-.148.14-.191-.001-.048-.074-.17-.234-.175-.037.002-.607-.03-.96-.045-.368-.016-1.495.047-1.495.047-.61 0-4.557.178-8.592.178-.174 0-.974-.065-1.136-.101a3.033 3.033 0 00-.426-.048c-.086-.018-.078-.134.015-.138 0 0 1.541-.142 2.95-.163a66.81 66.81 0 001.61-.058c.233-.015.463-.06.463-.222 0-.203-1.363-.203-2.16-.203-1.8 0-5.542.344-5.993.344-.605 0-.974-.135-3.946-.135-2.856 0-5.806.323-8.461 1.27-2.678.953-4.305 2.398-4.88 2.975l-.056.057-.096.094c-.11.094-.26.189-.431.297-.265.168-.565.36-.862.628l-.433.397-.368.339c-.072.064-.148.088-.192.06m49.436-6.74c-.019-.044-.09-.05-.182-.013l-.627.226c-3.32 1.188-6.099 1.87-9.29 2.282-3.157.394-6.108.419-9.552.332l-.043-.001c-.159-.005-.177.136.016.197l.054.018c.754.224 1.827.42 2.49.458 3.967.11 6.622-.072 9.474-.657 1.913-.405 4.093-.977 7.068-2.43l.48-.238c.092-.047.133-.127.112-.174m-6.633 3.35c-2.825.663-5.408.887-9.217.8l-.154-.005c-.059 0-.108.03-.116.073-.011.065.072.17.34.27l.087.038.062.027c.773.298 1.837.609 2.47.63 3.647-.012 6.14-.41 8.888-1.42 1.466-.553 2.766-1.197 4.214-2.084 1.352-.84 2.59-1.722 4.02-2.866l.266-.214c.073-.058.102-.12.1-.168a.103.103 0 00-.017-.06c-.034-.047-.112-.065-.195-.01 0 0-.422.28-.424.28l-1.08.668c-1.754 1.094-3.31 1.92-4.895 2.6a26.643 26.643 0 01-4.35 1.44m-4.933 3.29c.942.502 1.922.823 2.442.8 3.292-.343 5.496-1.082 8.132-2.723 1.284-.815 2.506-1.773 4.084-3.204 1.529-1.386 3.186-3.042 5.364-5.267l.096-.098c.147-.148.392-.397.462-.476.088-.1.09-.18.056-.213-.036-.036-.128-.03-.237.07-.098.089-.5.43-.613.519a75.398 75.398 0 00-2.028 1.682c-2.072 1.836-3.701 3.136-5.28 4.215-1.486 1.005-2.779 1.724-4.19 2.33-2.745 1.139-5.202 1.61-8.766 1.677-.247.014-.279.07-.283.086-.01.044.041.193.761.602m4.147 2.708c.97.667 1.935 1.038 2.4.92 2.769-.941 4.643-2.17 7.162-4.694 1.24-1.26 2.416-2.622 4.154-4.696l.59-.706 2.408-2.867a122.699 122.699 0 014.51-5.03l.371-.405c.097-.105.106-.201.067-.242-.038-.041-.131-.037-.253.06l-.355.297-.054.048a54.59 54.59 0 00-3.387 3.148l-1.005 1.056c-2.294 2.407-3.809 4-5.197 5.36-1.66 1.62-2.841 2.638-4.08 3.52-2.615 1.824-4.77 2.675-7.956 3.134-.139.026-.217.076-.233.148-.023.103.059.36.858.949m4.473 3.495c1.011.84 1.955 1.222 2.347.949 1.081-.945 1.972-1.9 2.98-3.192.931-1.2 1.815-2.506 2.936-4.228l.625-.966a118.382 118.382 0 013.789-5.588 81.681 81.681 0 013.944-5.056 68.508 68.508 0 012.98-3.294 66.662 66.662 0 014.242-4.073c.137-.124.88-.785 1.007-.883.249-.197.277-.35.22-.425-.06-.081-.229-.096-.395.022l-.222.158-.383.273c-2.137 1.544-4.452 3.607-5.7 4.87a100.194 100.194 0 00-4.95 5.508c-1.204 1.43-2.106 2.563-2.98 3.656l-.407.51c-1.696 2.122-2.815 3.524-3.963 4.815-1.239 1.382-2.233 2.33-3.32 3.174a15.707 15.707 0 01-3.594 2.1c-.1.055-.159.133-.17.236-.037.304.324.814 1.014 1.434" fill="#01569a"/></svg>