<svg xmlns="http://www.w3.org/2000/svg" fill="#0170ce" viewBox="0 0 132.9 132.8"><path d="M114.4 0H18.5A18.5 18.5 0 0 0 0 18.5v95.9c0 10.2 8.3 18.5 18.5 18.5h95.9c10.2 0 18.5-8.3 18.5-18.5V18.5A18.6 18.6 0 0 0 114.4 0zm10 114.3a10 10 0 0 1-10 10H18.5a10 10 0 0 1-10-10V18.5a10 10 0 0 1 10-10h95.9a10 10 0 0 1 10 10v95.8zM53.3 34.4H35c-5.7 0-10.4 4.6-10.4 10.4v25.3c0 5.7 4.7 10.3 10.4 10.4h8.6v1.9c-.1 4.7-2.8 7.4-9.3 7.5h-4.1v8.5h4.1c12 0 18.8-5.7 19-16.1V34.4zM43.6 72H38c-2 0-3.7-1.6-3.7-3.7V46.5c0-2 1.6-3.7 3.7-3.7h5.6V72zm54.3-37.6H60.6v46h9.7V42.8h9.3v37.6h9.7V42.8h5.6c2 0 3.7 1.6 3.7 3.7v34h9.7V44.8a10.5 10.5 0 0 0-10.4-10.4zM60.6 89.9h47.6v8.5H60.6z"/></svg>