<svg xmlns="http://www.w3.org/2000/svg" viewBox="0 0 192.2 39.3"><path fill="#005BAB" d="M93.5 36.2a.8.8 0 0 1-.4-.2L82.4 18.4l-5.9 20.2-.3.2H64.9a.2.2 0 0 1-.2-.2L76.6.8l.3-.2h4.3l.4.2 14.5 22.6L110.7.7l.4-.2h4.2l.3.2 11.9 37.8c0 .1 0 .2-.2.2H116l-.3-.2-5.9-20.2L99.1 36l-.4.2ZM65 17.2H32.7a3.1 3.1 0 0 0-3.1 3.1c0 1.7 1.4 3.1 3.1 3.1h19.2c-2.3 6-10 10.5-19.2 10.5-11 0-19.9-6.3-19.9-14.2 0-7.9 9-14.2 19.9-14.2 6 0 11.4 1.9 15 4.9H61l.2-.2-.1-.2C55.5 4 44.8 0 32.6 0 14.7 0 0 8.8 0 19.7c0 10.9 14.6 19.6 32.7 19.6s32.7-8.8 32.7-19.6l-.1-2c-.1-.4-.2-.5-.3-.5Zm127.2 2.5c0 10.9-14.6 19.6-32.7 19.6s-32.7-8.8-32.7-19.6S141.4.1 159.5.1c18.1-.1 32.7 8.7 32.7 19.6m-12.8 0c0-7.8-8.9-14.2-19.9-14.2-11 0-19.9 6.3-19.9 14.2 0 7.9 8.9 14.2 19.9 14.2 11-.1 19.9-6.4 19.9-14.2"/></svg>
