<svg xmlns="http://www.w3.org/2000/svg" viewBox="0 0 230.07 177.51"><path fill="#005238" d="M117.82 86.7v90.81h11.97v-60.58l29.42 31.26h5.4l29.43-31.26v60.58h11.97V86.68L162 133.72zm79.4-25.38L162 98.96l-35.31-37.64H69.72v11.59h51.51l40.78 43.43 40.65-43.43h15.44v104.6h11.97V61.32zM72.27 132.95c-33.25 0-60.3-27.22-60.3-60.68s27.05-60.68 60.3-60.68c14.63 0 28.59 5.34 40.37 15.43l1.95 1.68 7.11-9.19-1.73-1.5C106.4 6.23 89.9 0 72.27 0 32.42 0 0 32.42 0 72.27s32.42 72.27 72.27 72.27a72 72 0 0 0 21.48-3.28v36.25h11.97v-54.65l-3.81 2.16a60 60 0 0 1-29.64 7.92zm-2.55-37.31h24.45v7.48c-6.33 4.78-13.51 7.1-21.9 7.1-20.32 0-36.23-16.67-36.23-37.95s15.91-37.95 36.23-37.95c9.78 0 17.82 3.09 26.87 10.33l1.92 1.53 7.07-9.14-1.73-1.48c-9.8-8.4-21.6-12.84-34.13-12.84-26.58 0-48.2 22.22-48.2 49.54s21.62 49.54 48.2 49.54c11.42 0 23.3-4.54 32.6-12.45l.9-.76V84.04H69.73v11.59z"/><path fill="#ffc62f" d="m202.66 72.91-40.65 43.43-40.78-43.43H69.72v11.14h36.04v24.55l-.9.76c-9.3 7.91-21.18 12.45-32.6 12.45-26.58 0-48.2-22.22-48.2-49.54s21.62-49.54 48.2-49.54c12.53 0 24.33 4.44 34.13 12.84l1.73 1.48 6.46-8.35-1.95-1.68c-11.78-10.1-25.74-15.43-40.37-15.43-33.25 0-60.3 27.22-60.3 60.68s27.05 60.68 60.3 60.68a60 60 0 0 0 29.64-7.92l3.81-2.16v54.65h12.1V86.71l44.18 47.02 44-47.04v90.83h12.1V72.92h-15.45Z"/><path fill="#005238" d="M62.49 166.84h4.57v10.66h1.53v-10.66h4.57v-1.52H62.49zm18.28 7.76-3.87-9.28h-2.22v12.18h1.55v-10.14l4.22 10.14h.63l4.24-10.14v10.14h1.55v-12.18h-2.22z"/></svg>