<?xml version="1.0" encoding="UTF-8"?>
<svg id="logos" xmlns="http://www.w3.org/2000/svg" viewBox="0 0 230.07 177.51"><defs><style>.cls-1{fill:#005238;}.cls-1,.cls-2{stroke-width:0px;}.cls-2{fill:#ffc62f;}</style></defs><polygon class="cls-1" points="117.82 86.7 117.82 177.51 129.79 177.51 129.79 116.93 159.21 148.19 164.61 148.19 194.04 116.93 194.04 177.51 206.01 177.51 206.01 86.68 162 133.72 117.82 86.7"/><polygon class="cls-1" points="197.22 61.32 162 98.96 126.69 61.32 69.72 61.32 69.72 72.91 121.23 72.91 162.01 116.34 202.66 72.91 218.1 72.91 218.1 177.51 230.07 177.51 230.07 61.32 197.22 61.32"/><path class="cls-1" d="M72.27,132.95c-33.25,0-60.3-27.22-60.3-60.68S39.02,11.59,72.27,11.59c14.63,0,28.59,5.34,40.37,15.43l1.95,1.68,7.11-9.19-1.73-1.5C106.4,6.23,89.9,0,72.27,0,32.42,0,0,32.42,0,72.27s32.42,72.27,72.27,72.27c7.32,0,14.53-1.1,21.48-3.28v36.25h11.97v-54.65l-3.81,2.16c-9.11,5.18-19.37,7.92-29.64,7.92Z"/><path class="cls-1" d="M69.72,95.64h24.45v7.48c-6.33,4.78-13.51,7.1-21.9,7.1-20.32,0-36.23-16.67-36.23-37.95s15.91-37.95,36.23-37.95c9.78,0,17.82,3.09,26.87,10.33l1.92,1.53,7.07-9.14-1.73-1.48c-9.8-8.4-21.6-12.84-34.13-12.84-26.58,0-48.2,22.22-48.2,49.54s21.62,49.54,48.2,49.54c11.42,0,23.3-4.54,32.6-12.45l.9-.76v-24.55h-36.04v11.59Z"/><path class="cls-2" d="M202.66,72.91l-40.65,43.43-40.78-43.43h-51.51v11.14h36.04v24.55l-.9.76c-9.3,7.91-21.18,12.45-32.6,12.45-26.58,0-48.2-22.22-48.2-49.54s21.62-49.54,48.2-49.54c12.53,0,24.33,4.44,34.13,12.84l1.73,1.48,6.46-8.35-1.95-1.68c-11.78-10.1-25.74-15.43-40.37-15.43-33.25,0-60.3,27.22-60.3,60.68s27.05,60.68,60.3,60.68c10.28,0,20.53-2.74,29.64-7.92l3.81-2.16v54.65h12.1v-90.81l44.18,47.02,44-47.04v90.83h12.1v-104.6h-15.45Z"/><polygon class="cls-1" points="62.49 166.84 67.06 166.84 67.06 177.5 68.59 177.5 68.59 166.84 73.16 166.84 73.16 165.32 62.49 165.32 62.49 166.84"/><polygon class="cls-1" points="80.77 174.6 76.9 165.32 74.68 165.32 74.68 177.5 76.23 177.5 76.23 167.36 80.45 177.5 81.08 177.5 85.32 167.36 85.32 177.5 86.87 177.5 86.87 165.32 84.65 165.32 80.77 174.6"/></svg>