<svg xmlns="http://www.w3.org/2000/svg" width="1004.009" height="1004.009" viewBox="-1.2 -1.2 122.638 122.68"><path d="M107.949 58.98l10.66-17.75h-10.88l-5.67 9-6.1-9h-11.92l12.57 17.73-12.57 20h11.92l6.8-11.37 8.06 11.37h10.64zm-39.42-17.75l-8.09 20.19-7.67-20.19h-9.67l-6.42 37.78h9.77l3.16-21.77h.1l8.66 21.77h3.91l9.07-21.77h.12l2.75 21.77h9.82l-5.72-37.78zm-49.8 16.71v7.68h8c-.42 4.31-3.68 6.52-7.9 6.52-6.42 0-9.89-5.91-9.89-11.75s3.33-11.85 9.74-11.85c3.94 0 6.76 2.38 8.11 5.95l9.26-3.88c-3.23-7-9.21-10.47-16.93-10.47-12.09 0-20.34 8-20.34 20.19 0 11.81 8.2 19.81 20 19.81 6.27 0 11.8-2.24 15.46-7.36 3.29-4.64 3.74-9.36 3.84-14.84z" class="cls-1" fill="#1c449b"/></svg>