<svg xmlns="http://www.w3.org/2000/svg" fill="none" viewBox="0 0 140.7 34.8"><path fill="#363636" d="M45.6 34.8c-3 0-5.6-1-7.3-2.8H38l-.2-.4 2-2.5.3.4a7.5 7.5 0 0 0 5.5 2.2c2.5 0 4.2-1.3 4.7-3.4v-.1l1.5-5.5c-1.3 1-3 1.7-4.7 1.7-4 0-6.8-3.2-6.8-7.5 0-2.4.9-4.7 2.4-6.6a8.2 8.2 0 0 1 6.4-3.2h.2A7.4 7.4 0 0 1 55 9.5l.6-1.5.1-.2.2-.2h3.4l-.3.6c-.5 1.2-1 2.4-1.2 3.6v.2l-4 16.7c-.7 3.7-4 6-8.2 6zm4-24.5c-3.4 0-5.4 3.3-5.4 6.5 0 2.6 1.4 4.4 3.7 4.4a6 6 0 0 0 2.4-.6c1-.4 1.7-1 2.4-1.7l.1-.1 1.4-6.4a6.2 6.2 0 0 0-4.6-2.1zm34.2 14.2c-2.5 0-4-1.4-4-3.7l.1-1.2 1.9-9h-3l.6-3h3l1-4.7H87l-1 4.7h4.6l-.6 3h-4.6l-1.9 8.8-.1.9c0 .6.4 1 1.4 1 .8 0 1.6-.2 2.3-.4l.7-.3-.1 3-.2.2c-.8.4-2.5.7-3.7.7zm-74-.1A7.4 7.4 0 0 1 4 22l-.5 1.5v.2l-.2.2H0l.2-.6c.4-1 .8-2 1-3.1l.2-.8L5.4 0H9L7.1 8.9a7.8 7.8 0 0 1 5-1.8c3.8 0 6.6 3.2 6.6 7.5 0 4.7-3.4 9.7-9 9.8zm1.5-14.1a6 6 0 0 0-2.5.6c-.9.4-1.7 1-2.4 1.7v.1L5 19.1c.5.7 1.2 1.2 2 1.5.8.4 1.7.6 2.5.6 3.4 0 5.4-3.4 5.4-6.5 0-2.6-1.4-4.4-3.6-4.4zm120.5 14c-4.5 0-7.6-3-7.6-7.3a9.3 9.3 0 0 1 9.1-9.2c4.5 0 7.4 2.7 7.4 6.8l-.1 1.1V16.3h-14v.6c0 3 2.2 5.2 5.5 5.2 1.8 0 3.7-.6 5.2-1.7l.2-.1.3-.3 1.4 1.9-.4.2c-2 1.5-4.5 2.2-7 2.2zm1.6-14.3a6.7 6.7 0 0 0-6.2 4v.2h11c0-1-.4-2-1.1-2.8a5 5 0 0 0-3.7-1.4zM108 24h-2.4l2.5-12.3c.2-1 .3-1.9.2-2.8v-.7h2.3v.4l.1 1.4.6-.5.3-.1a9 9 0 0 1 4.8-1.6c3.4 0 5.7 2.1 5.7 5.1 0 .5 0 1-.2 1.6l-.1.5-1.9 9h-2.5l2-9.2V14h.1v-.4l.1-.8c0-2-1.8-2.8-3.6-2.8-1.2 0-3.1.4-5.4 2.3l-.2.2L108 24zm-7 0h-2.5L102 8.1h2.5l-3.3 15.7zm-38.4 0H59l5.1-24h3.6l-2 9a8.4 8.4 0 0 1 5-1.9c3.2 0 5.5 2.3 5.5 5.4l-.1 1.6-.1.4v.4l-2 9h-3.6l2-9.5.3-1.8c0-1.7-1.5-2.3-2.8-2.3-.9 0-1.7.2-2.5.6l-1.9 1.3-.2.2-.1.1-.2.2L62.7 24zm-27 0H32l3.4-16.4h3.6l-3.5 16.3zm58.1 0h-2.4l5-24H99zm-70.6 0h-3.6l2.6-12.1c.2-1.2.4-2.4.4-3.6v-.7h3.3V9.3c1-1 2.2-2.2 4-2.2 1.2 0 2.2.3 2.7.9l.2.2-.9 3.3-.5-.4c-.5-.4-1.1-.5-1.8-.5-.9 0-2 .5-3.2 1.6l-.2.2-.2.2-.2.2-.2.2-.1.2-2.3 10.7zM38 5.6A2.1 2.1 0 0 1 36 3.2a2.1 2.1 0 0 1 2.9-1.5 2.1 2.1 0 0 1-.8 4zm65.7-.6a1.5 1.5 0 0 1-1.4-1.8 1.5 1.5 0 1 1 1.4 1.8z"/></svg>