<svg xmlns="http://www.w3.org/2000/svg" version="1.1" x="0" y="0" xml:space="preserve" id="svg1005" width="228.9" height="228.9"><style type="text/css" id="style979">.st3{fill:#1c2a4b}</style><g id="g2167" transform="translate(0 -448.3)"><path class="st3" d="M61.4 622.75c-36.4 0-61.4-25.3-61.4-59.7v-.2c0-33 25.9-60.1 61.2-60.1 21 0 33.6 5.6 45.8 16l-16.2 19.5c-9.1-7.4-17-11.8-30.6-11.8-18.7 0-33.6 16.5-33.6 36.2v.2c.2 21.1 14.9 36.7 35.5 36.7 9.3 0 17.7-2.3 24.3-7v-16.5H60.5v-22h50.7v50.4c-12 9.9-28.6 18.3-49.8 18.3" id="path982"/><path class="st3" d="M183.7 622.75c-32.7 0-57-26.5-57-59.9 0-33.2 24.1-60.1 57.5-60.1 20.7 0 32.9 7.4 44.3 18.3l-8.9 9.5c-9.5-9.3-20.2-16-35.7-16-25.2 0-44.1 20.7-44.1 47.8 0 26.9 19.1 48 44.1 48 15.7 0 25.9-6 36.6-16.7l8.4 8.4c-11.5 12.6-24.5 20.7-45.2 20.7" id="path986"/></g></svg>