<svg xmlns="http://www.w3.org/2000/svg" fill="none" viewBox="0 0 251 247"><path fill="#1C1B18" d="M107.5 225.3c60 19.5 121.2-18.5 139.4-74.3 4.9-15.2 4-21.4 4-21.4h-.3c-.4 3.3-1.3 9.3-4.5 19C230.6 196.2 173 242 108.7 221c-33.2-10.8-50-37-53.6-48.9l.1-.2A96 96 0 0 0 171 216.7c60-19.5 87.2-86.2 69-142a56.4 56.4 0 0 0-9.2-19.7l-.3.2c1.7 2.8 4.4 8.2 7.5 18 15.5 47.6-4.2 118.5-68.5 139.4-33.3 10.8-62.3-.7-72.2-8v-.3a96 96 0 0 0 120-31.8c37-51 19.8-121-27.7-155.5a55.3 55.3 0 0 0-19-10.4l-.2.3c3 1.3 8.4 4 16.6 10.1 40.6 29.4 66.3 98.4 26.5 153-20.6 28.4-50.7 36.1-63 36l-.2-.2a96 96 0 0 0 78.3-96.2C228.5 46.4 173.5 0 114.7 0a56.4 56.4 0 0 0-21.4 2.7v.4a92 92 0 0 1 19.5-1.7c50 0 111.4 40.7 111.4 108.3 0 35-19.9 59-30 66.1h-.2a96 96 0 0 0 6.9-123.9C163.7.9 91.8-4.4 44.3 30.1A57.6 57.6 0 0 0 28.5 45l.3.2c2.2-2.4 6.5-6.7 14.7-12.7C84 3.1 157.5 0 197.3 54.7 218 82.9 216 114 212 125.7l-.2.1a96 96 0 0 0-67.2-104.2C84.4 2 23.2 40 5 95.9c-5 15.1-4 21.3-4 21.3h.3c.3-3.2 1.3-9.2 4.4-18.9C21.3 50.7 79 5 143.3 25.8c33.2 10.8 50 37.2 53.6 49l-.1.1A96 96 0 0 0 81 30.1C21 49.6-6.2 116.4 12 172.2a56.1 56.1 0 0 0 9.2 19.6l.3-.1a93.4 93.4 0 0 1-7.6-18C-1.4 126.1 18.3 55.2 82.6 34.3c33.3-10.8 62.3.6 72.2 8v.3a96 96 0 0 0-120 31.7c-37 51.1-19.8 121 27.7 155.6a53 53 0 0 0 19 10.4l.2-.3c-3-1.3-8.4-4-16.7-10-40.5-29.5-66.2-98.5-26.5-153.2 20.6-28.3 50.8-36 63.1-35.9l.2.2a96 96 0 0 0-78.4 96.2c0 63.2 55 109.6 113.8 109.6 15.9 0 21.5-2.7 21.5-2.7v-.4c-3.3.7-9.2 1.7-19.4 1.7-50.1 0-111.5-40.7-111.5-108.3 0-35 20-59 30-66.1h.2A96 96 0 0 0 51.1 195c37.2 51 109 56.3 156.5 21.7a55.7 55.7 0 0 0 15.8-14.8l-.2-.2a93.3 93.3 0 0 1-14.8 12.7C168 243.8 94.4 247 54.6 192.2 34 164 36 132.8 40 121.2l.2-.1a96 96 0 0 0 67.3 104.2Zm20-148.8a59 59 0 0 1 15.6 1.7l16.7 34-.1.2-21.5-12.8c-12.4-7.4-21.5-11.3-28.8-11C101.6 88.7 97 95 97 104c.2 23.2 22.3 51.8 44.2 51.8 9 0 13.6-2.9 16.3-6.4L125 114v-.2h44.5a56 56 0 0 1 1 9.7c0 26-20 47-44.5 47-24.7 0-44.7-21-44.7-47a46 46 0 0 1 46-46.9Z"/></svg>