<svg xmlns="http://www.w3.org/2000/svg" width="35.735" height="35.735" class="logo-mark" version="1.1" id="svg22781"><defs id="defs22771"><style id="style22769"></style></defs><path class="path-mobile" d="M30.824 3.754c-3.713-2.316-8.603-1.77-12.963.972-4.347-2.74-9.24-3.288-12.948-.972-5.868 3.667-6.58 13.11-1.593 21.093 3.677 5.887 9.428 9.335 14.548 9.27 5.119.065 10.87-3.383 14.547-9.27 4.985-7.983 4.277-17.426-1.591-21.094zM6.02 23.164a19.112 19.112 0 01-2.303-5.273 15.067 15.067 0 01-.5-4.97c.223-2.947 1.423-5.245 3.38-6.47 1.958-1.224 4.545-1.295 7.3-.203.419.169.829.358 1.228.568a22.496 22.496 0 00-3.956 4.754c-3.03 4.847-3.954 10.242-2.897 14.54a19.723 19.723 0 01-2.253-2.946zm26.003-5.273a19.158 19.158 0 01-2.302 5.272 19.733 19.733 0 01-2.254 2.954c.946-3.855.303-8.576-2.014-13.005a.583.583 0 00-.837-.228l-7.225 4.515a.59.59 0 00-.188.813l1.06 1.695a.59.59 0 00.814.188l4.683-2.925c.15.454.303.9.416 1.363.442 1.617.61 3.297.5 4.97-.223 2.95-1.424 5.247-3.38 6.47a6.607 6.607 0 01-3.35.97h-.15a6.599 6.599 0 01-3.35-.97c-1.958-1.223-3.16-3.52-3.381-6.471a15.09 15.09 0 01.5-4.97 19.671 19.671 0 016.03-9.65 15.108 15.108 0 014.24-2.628c2.749-1.092 5.34-1.02 7.299.203 1.958 1.224 3.157 3.522 3.38 6.47a15.105 15.105 0 01-.49 4.964z" id="path22773"/></svg>