<svg xmlns="http://www.w3.org/2000/svg" width="1039.572" height="1039.572"><g fill="#02a95c"><path d="M211.674 663.224c8.54-7.44 16.29-14.2 25.06-19.62 25.18-15.57 52.67-20.37 81.84-17.84a122.61 122.61 0 0139.47 9.85c18 8 31.38 21 42.31 37 1.82 2.65 2.75 3.17 4.79.12 18.67-27.91 45.38-43.2 78.19-47.22 32.5-4 62.74 2.37 87.81 25 12.64 11.43 19.71 26.15 22.7 42.89a194 194 0 012.77 33.75c.13 57.32 0 114.65.18 172 0 4.89-1.36 6-6.11 6q-45.24-.33-90.49 0c-4.38 0-5.58-1.06-5.56-5.51q.26-67.74.06-135.48a140.53 140.53 0 00-3.4-32.17c-8.72-37-50.71-37.23-69.43-19.72-11.51 10.77-15.33 24.51-17 39.35-1.44 12.62-.88 25.28-.9 37.93q-.09 55.25.05 110.48c0 3.81-.84 5.14-4.93 5.11q-46-.25-92 0c-4.29 0-5.19-1.33-5.18-5.37.14-45.66.08-91.32.09-137 0-9.33-.32-18.63-2.12-27.82-3.34-17.11-13.57-27.79-30.37-32-19.81-4.93-39.38 2.53-49.78 18.81-6.25 9.77-7.6 21-7.68 32.12q-.53 72.5-.21 145c0 5.18-1.4 6.29-6.36 6.25q-45.24-.36-90.49 0c-4.22 0-5.23-1.19-5.22-5.3q.16-132.74 0-265.47c0-4.34 1.39-5.16 5.38-5.14q45.75.24 91.49 0c4.31 0 5.29 1.35 5.17 5.38-.3 9.12-.13 18.29-.13 28.62zM865.234 785.374h-100.48c-5.79 0-6.27.59-5.51 6.36.75 5.59 1.11 11.23 2.59 16.73 4.69 17.38 15.11 29.41 32.53 34.78 15.1 4.66 30.34 5.59 45.69 1 11.12-3.3 19.87-10 26.71-19.15 2-2.64 3.95-3.92 7.39-3.91q44 .21 88 0c4.83 0 5.09 1.44 3.73 5.47-15.47 45.76-48.2 72-94.07 83.48-14.91 3.71-30.09 5.06-45.47 5.32-26.64.46-52.88-1.9-77.91-11.4-49.1-18.64-80.2-53.27-89.55-105.42-7.13-39.76-1.94-78 20.07-112.72 16.84-26.58 40.53-45 70.4-54.6 40.42-13 81.58-14 122.37-2.4 50.48 14.3 80.37 49.19 94.09 98.9 4.88 17.65 5.57 35.75 5.33 53.95 0 4-2.36 3.6-4.91 3.6zm-46.34-55.22h53c2.08 0 4.8.59 3.8-3.12-3.71-13.82-9.85-26.11-21.94-34.66-12.09-8.55-25.78-9.88-40-9.32-26 1-45.63 17.58-51.19 43-.8 3.67.18 4.16 3.42 4.14 17.6-.09 35.26-.04 52.91-.04zM1026.774 203.524c-19.53-23.49-65.56-29.28-94.05-15.89-6 2.82-12.26 5.1-17.65 9l-170.92 124c-12.17 10.62-23.19 22.69-24.92 38.37-1.58 14.3 0 26.13 12.51 38.9 28.3 28.82 78.26 29 102.08 14.48 21.88-13.29 166.42-120.11 190-137.52l6.12-6.13c6.99-9.63 19.1-38.42-3.17-65.21zM307.774 393.514c12.53-12.77 14.09-24.6 12.51-38.9-1.73-15.68-12.75-27.75-24.92-38.37l-170.92-124c-5.39-3.91-11.64-6.19-17.65-9-28.49-13.39-74.52-7.6-94 15.89-22.27 26.79-10.16 55.57-3.12 65.18l6.12 6.13c23.48 17.44 168.02 124.26 189.92 137.55 23.8 14.49 73.76 14.34 102.06-14.48zM520.994 361.104c36.49 0 67.07-16.61 75.76-47.45a50.2 50.2 0 001.69-13l.82-111.18c0-.94.07-1.88.07-2.81 0-42.74-34.45-62.6-77.71-62.6-43 0-77.95 23.07-78.3 65.41l-.08 112.08a56.94 56.94 0 001.29 13c7.43 32.07 38.82 46.55 76.46 46.55zM746.574 444.714c-58-28.86-134.66-47-234.76-47-167.72 0-280.19 52.93-337.33 129.86h.86l-.24.31 675-.06c-24.61-31.88-58.43-60.72-103.53-83.11z"/></g></svg>