<svg xmlns="http://www.w3.org/2000/svg" preserveAspectRatio="xMidYMax meet" width="34" height="34"><path class="cls-1" d="M31 32.5H3a3 3 0 01-3-3v-25a3 3 0 013-3h28a3 3 0 013 3v25a3 3 0 01-3 3zM4 26a1.5 1.5 0 001.5 1.5H11v-2H6.5A.5.5 0 016 25v-3a.5.5 0 01.5-.5H11v-2H5.5A1.5 1.5 0 004 21zm8-18a1.5 1.5 0 00-1.5-1.5h-5A1.5 1.5 0 004 8v5a1.5 1.5 0 001.5 1.5H9v-2H6.5A.5.5 0 016 12V9a.5.5 0 01.5-.5h3a.5.5 0 01.5.5v6a.5.5 0 01-.5.5H4v2h6.5A1.5 1.5 0 0012 16zm0 13v5a1.5 1.5 0 001.5 1.5h5A1.5 1.5 0 0020 26v-5a1.5 1.5 0 00-1.5-1.5h-5A1.5 1.5 0 0012 21zm9-13a1.5 1.5 0 00-1.5-1.5h-5A1.5 1.5 0 0013 8v5a1.5 1.5 0 001.5 1.5h5A1.5 1.5 0 0021 13zm9 0a1.5 1.5 0 00-1.5-1.5h-5A1.5 1.5 0 0022 8v5a1.5 1.5 0 001.5 1.5H27v-2h-2.5a.5.5 0 01-.5-.5V9a.5.5 0 01.5-.5h3a.5.5 0 01.5.5v6a.5.5 0 01-.5.5H22v2h6.5A1.5 1.5 0 0030 16zm0 11.5h-7.5A1.5 1.5 0 0021 21v6.5h2V22a.5.5 0 01.5-.5h1v6h2v-6H28v6h2zm-11.5-7h-3a.5.5 0 01-.5-.5V9a.5.5 0 01.5-.5h3a.5.5 0 01.5.5v3a.5.5 0 01-.5.5zm-4 9h3a.5.5 0 01.5.5v3a.5.5 0 01-.5.5h-3a.5.5 0 01-.5-.5v-3a.5.5 0 01.5-.5z"/></svg>