<svg xmlns="http://www.w3.org/2000/svg" width="48.801" height="48.801"><path d="M11.642 15.333v-2.628C11.642 5.686 17.354 0 24.398 0c6.92 0 12.555 5.483 12.756 12.322L31.32 9.763a7.513 7.513 0 00-6.92-4.546 7.521 7.521 0 00-6.645 3.97c-.688 1.295-.876 2.44-.876 3.88l3.725-1.61c2.465-1.063 5.13-1.063 7.594 0l11.21 4.844c2.727 1.18 4.4 3.926 4.167 6.839-.464 5.747-1.143 12.206-4.862 16.917-1.75 2.215-3.995 3.904-6.305 5.516-6.147 4.304-9.867 4.304-16.014 0-2.31-1.612-4.556-3.3-6.305-5.516-3.718-4.709-4.396-11.169-4.86-16.916-.234-2.913 1.44-5.66 4.167-6.839l2.246-.97zm-1.81 7.453c.994 12.349 2.946 14.698 9.242 19.102 1.464 1.025 3.45 2.504 5.325 2.38 1.88.124 3.865-1.355 5.33-2.38 4.037-2.825 6.29-4.807 7.647-9.123a1.592 1.592 0 00-.906-1.946l-11.628-5.023a1.066 1.066 0 00-.882 0l-2.667 1.152a1.06 1.06 0 00-.63 1.188c.257 1.27.608 2.489 1.072 3.074 1.285 1.627 3.256 2.512 5.168 3.319a.781.781 0 01.491.64.783.783 0 01-.315.736c-.57.427-1.19.873-1.776 1.252a1.632 1.632 0 01-1.804.003c-1.615-1.037-3.752-2.704-4.61-3.79-1.155-1.463-1.764-4.122-2.116-6.643-.212-1.537.124-1.737 1.4-2.286l4.193-1.813c1.703-.736 2.324-.754 3.843-.097l10.885 4.702c.676.29 1.44-.137 1.525-.858a91.65 91.65 0 00.351-3.589c.082-1.015-.473-1.928-1.424-2.34l-11.21-4.844a4.865 4.865 0 00-1.937-.415c-.645 0-1.294.14-1.933.415l-11.21 4.844c-.95.412-1.506 1.325-1.424 2.34z" fill="#de9b42"/></svg>