<svg width="21.1mm" height="21.1mm" viewBox="0 0 21.1 21.1" xmlns="http://www.w3.org/2000/svg"><defs><linearGradient id="a" x1="3.42" x2="16.2" y1="5.69" y2="15.6" gradientTransform="scale(3.78)" gradientUnits="userSpaceOnUse"><stop stop-color="#fff" offset="0"/><stop stop-color="#fcfcfc" offset=".172"/><stop stop-color="#f3f3f3" offset=".385"/><stop stop-color="#e4e4e4" offset=".62"/><stop stop-color="#cecece" offset=".868"/><stop stop-color="#bfbfbf" offset="1"/></linearGradient><linearGradient id="b" x1="26.7" x2="53.4" y1="26.3" y2="53.1" gradientUnits="userSpaceOnUse"><stop stop-color="#6dcee8" offset="0"/><stop stop-color="#acce48" offset="1"/></linearGradient></defs><ellipse cx="10.5" cy="10.6" rx="10.5" ry="7.45" paint-order="markers fill stroke"/><path transform="scale(.265)" d="M34.8 16.5c-1.06 0-2.02.883-2.02 2.02 0 1.06.879 2.03 2.02 2.03 1.15 0 2.03-.972 2.03-2.03s-.881-2.02-2.03-2.02zm5.29 0c-1.06 0-2.02.883-2.02 2.02 0 1.06.881 2.03 2.02 2.03 1.15 0 2.11-.972 2.11-2.03s-.969-2.02-2.11-2.02zm5.38 0c-1.06 0-2.03.883-2.03 2.02 0 1.06.882 2.03 2.03 2.03 1.14 0 2.11-.972 2.03-2.03 0-1.06-.882-2.02-2.03-2.02zm-15.9.795a1.2 1.2 0 00-1.23 1.23c0 .706.531 1.24 1.23 1.24.706 0 1.23-.62 1.23-1.24a1.2 1.2 0 00-1.23-1.23zm21.3 0a1.2 1.2 0 00-1.23 1.23c0 .706.529 1.24 1.23 1.24.705 0 1.23-.62 1.23-1.24a1.2 1.2 0 00-1.23-1.23zm-26.8 4.59c-1.06 0-2.02.881-2.02 2.03 0 1.06.881 2.02 2.02 2.02 1.15 0 2.11-.967 2.03-2.02 0-1.06-.971-2.03-2.03-2.03zm5.47 0c-1.06 0-2.03.881-2.03 2.03 0 1.06.884 2.02 2.03 2.02 1.15 0 2.03-.967 2.03-2.02 0-1.06-.881-2.03-2.03-2.03zm21.3 0c-1.06 0-2.02.881-2.02 2.03 0 1.06.879 2.02 2.02 2.02 1.15 0 2.11-.967 2.11-2.02 0-1.06-.969-2.03-2.11-2.03zm5.38 0c-1.06 0-2.03.881-2.03 2.03 0 1.06.881 2.02 2.03 2.02 1.14 0 2.02-.967 2.02-2.02 0-1.06-.881-2.03-2.02-2.03zm-37.6.703a1.2 1.2 0 00-1.23 1.23c0 .706.526 1.23 1.23 1.23.705 0 1.23-.53 1.23-1.23a1.2 1.2 0 00-1.23-1.23zm43 0a1.2 1.2 0 00-1.23 1.23 1.2 1.2 0 001.23 1.23c.618 0 1.23-.53 1.23-1.23a1.2 1.2 0 00-1.23-1.23zm-43 4.76c-1.15 0-2.11.881-2.11 2.03 0 1.06.967 2.02 2.11 2.02 1.14 0 2.11-.881 2.03-2.02 0-1.06-.882-2.03-2.03-2.03zm43 0c-1.06 0-2.02.881-2.02 2.03 0 1.06.881 2.02 2.02 2.02 1.15 0 2.03-.881 2.03-2.02 0-1.06-.881-2.03-2.03-2.03zm-37.6.264a1.67 1.67 0 00-1.67 1.67c0 .971.793 1.67 1.67 1.67.882 0 1.67-.704 1.67-1.67 0-.97-.792-1.67-1.67-1.67zm32.2 0c-.971 0-1.67.795-1.67 1.67 0 .971.794 1.67 1.67 1.67.881 0 1.67-.704 1.67-1.67 0-.97-.794-1.67-1.67-1.67zm-21.4.088a1.67 1.67 0 000 3.35 1.67 1.67 0 000-3.35zm5.38 0a1.67 1.67 0 000 3.35 1.67 1.67 0 000-3.35zm-26.8.619a.881.881 0 00.002 1.76.881.881 0 00-.002-1.76zm53.6 0a.881.881 0 00.002 1.76.881.881 0 00-.002-1.76zm-32.1 3.97c-1.22 0-2.2.986-2.2 2.2 0 1.21.988 2.2 2.2 2.2 1.21 0 2.2-.988 2.2-2.2 0-1.22-.986-2.2-2.2-2.2zm5.38 0c-1.22 0-2.2.986-2.2 2.2a2.199 2.199 0 104.4 0c0-1.22-.986-2.2-2.2-2.2zm-26.8.176c-1.06 0-2.03.88-2.03 2.03 0 1.06.881 2.03 2.03 2.03 1.06 0 2.03-.97 2.03-2.03 0-1.06-.882-2.03-2.03-2.03zm5.29 0c-1.15 0-2.11.88-2.11 2.03 0 1.06.967 2.03 2.11 2.03 1.14 0 2.11-.97 2.03-2.03 0-1.06-.882-2.03-2.03-2.03zm43 0c-1.06 0-2.02.88-2.02 2.03 0 1.06.881 2.03 2.02 2.03 1.15 0 2.03-.97 2.03-2.03 0-1.06-.881-2.03-2.03-2.03zm5.29 0c-1.14 0-2.11.88-2.11 2.03 0 1.06.968 2.03 2.11 2.03 1.15 0 2.11-.97 2.03-2.03 0-1.06-.881-2.03-2.03-2.03zm-37.4.354a1.67 1.67 0 100 3.35 1.67 1.67 0 000-3.35zm15.8.79a.883.883 0 00-.883.886.88.88 0 00.883.88.88.88 0 00.883-.882.883.883 0 00-.883-.881v-.002zm-32 4.41c-1.06 0-2.03.97-2.03 2.02s.881 2.03 2.03 2.03c1.06 0 2.03-.97 2.03-2.03 0-1.06-.882-2.02-2.03-2.02zm5.29 0c-1.15 0-2.11.97-2.11 2.02s.967 2.03 2.11 2.03c1.14 0 2.03-.97 2.03-2.03 0-1.06-.882-2.02-2.03-2.02zm43 0c-1.06 0-2.02.97-2.02 2.02s.881 2.03 2.02 2.03c1.15 0 2.03-.97 2.03-2.03 0-1.06-.881-2.02-2.03-2.02zm5.29 0c-1.14 0-2.11.97-2.11 2.02s.968 2.03 2.11 2.03c1.15 0 2.03-.97 2.03-2.03 0-1.06-.881-2.02-2.03-2.02zm-32.1.355a1.67 1.67 0 100 3.35 1.67 1.67 0 000-3.35zm5.38 0a1.67 1.67 0 100 3.35 1.67 1.67 0 000-3.35zm-32.2.088c-.705 0-1.23.53-1.23 1.23 0 .704.529 1.23 1.23 1.23.706 0 1.23-.616 1.23-1.23a1.2 1.2 0 00-1.23-1.23zm21.3.088c-.793 0-1.5.706-1.5 1.5 0 .793.707 1.5 1.5 1.5.797 0 1.5-.707 1.5-1.5 0-.794-.705-1.5-1.5-1.5zm42.6.176c-.705 0-1.23.53-1.23 1.23a1.2 1.2 0 001.23 1.23c.617 0 1.23-.53 1.23-1.23a1.2 1.2 0 00-1.23-1.23zm-26.6.44a.881.881 0 00-.002 1.76.881.881 0 00.002-1.76zm-31.9 4.06c-1.06 0-2.03.884-2.03 2.03 0 1.06.881 2.02 2.03 2.02 1.06 0 2.03-.966 2.03-2.02 0-1.06-.882-2.03-2.03-2.03zm5.29 0c-1.15 0-2.11.884-2.11 2.03 0 1.06.967 2.02 2.11 2.02 1.14 0 2.11-.966 2.03-2.02 0-1.06-.882-2.03-2.03-2.03zm43 0c-1.06 0-2.02.884-2.02 2.03 0 1.06.881 2.02 2.02 2.02 1.15 0 2.03-.966 2.03-2.02 0-1.06-.881-2.03-2.03-2.03zm5.29 0c-1.14 0-2.11.884-2.11 2.03 0 1.06.968 2.02 2.11 2.02 1.15 0 2.11-.966 2.03-2.02 0-1.06-.881-2.03-2.03-2.03zm-32 1.06a.882.882 0 10-.002 1.77.882.882 0 00.002-1.76v-.001zm5.38.267a.617.617 0 100 1.23.617.617 0 000-1.23zm-21.5 4.15c-1.15 0-2.11.883-2.11 2.03 0 1.06.967 2.02 2.11 2.02 1.14 0 2.11-.97 2.03-2.02 0-1.06-.882-2.03-2.03-2.03zm43 0c-1.06 0-2.02.883-2.02 2.03 0 1.06.879 2.02 2.02 2.02 1.15 0 2.03-.97 2.03-2.02 0-1.06-.881-2.03-2.03-2.03zm-37.6.266a1.67 1.67 0 100 3.34 1.67 1.67 0 000-3.34zm32.2 0a1.67 1.67 0 100 3.34 1.67 1.67 0 000-3.34zm-43 .793a.882.882 0 000 1.77.882.882 0 100-1.77zm53.6 0a.882.882 0 000 1.77.882.882 0 100-1.77zm-42.9 4.15c-1.06 0-2.02.969-2.02 2.11 0 1.06.881 2.02 2.02 2.02 1.15 0 2.11-.882 2.03-2.02 0-1.15-.971-2.11-2.03-2.11zm5.47 0c-1.06 0-2.03.969-2.03 2.11 0 1.06.884 2.02 2.03 2.02 1.15 0 2.03-.882 2.03-2.02 0-1.15-.881-2.11-2.03-2.11zm21.3 0c-1.06 0-2.02.969-2.02 2.11 0 1.06.881 2.02 2.02 2.02 1.15 0 2.11-.882 2.11-2.02 0-1.15-.969-2.11-2.11-2.11zm5.38 0c-1.06 0-2.03.969-2.03 2.11 0 1.06.881 2.02 2.03 2.02a1.99 1.99 0 002.02-2.02c0-1.15-.881-2.11-2.02-2.11zm-37.6.88a1.2 1.2 0 00-1.23 1.23 1.2 1.2 0 001.23 1.23 1.2 1.2 0 001.23-1.23 1.2 1.2 0 00-1.23-1.23zm43 .53a.881.881 0 10.004 1.76.881.881 0 10-.004-1.76zm-26.8 3.97c-1.06 0-2.03.97-2.03 2.11 0 1.15.97 2.02 2.11 2.02 1.15 0 2.03-.88 1.94-2.02 0-1.14-.883-2.11-2.02-2.11zm5.38 0c-1.06 0-2.02.97-2.02 2.11 0 1.06.881 2.02 2.02 2.02 1.15 0 2.11-.88 2.11-2.02 0-1.14-.969-2.11-2.11-2.11zm5.38 0c-1.06 0-2.03.97-2.03 2.11 0 1.06.882 2.02 2.03 2.02 1.14 0 2.11-.88 2.03-2.02 0-1.14-.882-2.11-2.03-2.11zm-15.9.88c-.704 0-1.23.53-1.23 1.23a1.2 1.2 0 001.23 1.23c.706 0 1.23-.615 1.23-1.23a1.2 1.2 0 00-1.23-1.23zm21.3 0a1.2 1.2 0 00-1.23 1.23 1.2 1.2 0 001.23 1.23c.705 0 1.23-.615 1.23-1.23a1.2 1.2 0 00-1.23-1.23z" fill="url(#a)"/><path transform="scale(.265)" d="M39.9 21.9c-1.06 0-2.03.97-2.03 2.03 0 1.06.881 2.02 2.03 2.02 1.14 0 2.02-.969 2.02-2.02 0-1.06-.883-2.03-2.02-2.03zm-5.29.178c-.97 0-1.76.792-1.76 1.76 0 .969.792 1.76 1.76 1.76.97 0 1.76-.704 1.76-1.76 0-.971-.794-1.76-1.76-1.76zm10.7.086c-.97 0-1.67.794-1.67 1.68 0 .969.792 1.67 1.67 1.67.971 0 1.67-.707 1.67-1.67 0-.972-.792-1.68-1.67-1.68zm-15.9 4.94c-1.06 0-2.03.97-2.03 2.11 0 1.06.881 2.03 2.03 2.03 1.14 0 2.02-.972 2.02-2.03 0-1.14-.881-2.11-2.02-2.11zm21.3 0c-1.15 0-2.11.88-2.11 2.03 0 1.06.969 2.02 2.11 2.02 1.14 0 2.11-.882 2.02-2.02 0-1.06-.883-2.03-2.02-2.03zm-5.29.703c-.617 0-1.23.618-1.23 1.32 0 .705.529 1.32 1.23 1.32.703 0 1.32-.53 1.23-1.32 0-.706-.527-1.32-1.23-1.32zm-21.2 5.12a1.67 1.67 0 10.002 3.35 1.67 1.67 0 00-.002-3.35zm32 .09c-.793 0-1.5.705-1.5 1.5 0 .797.707 1.5 1.5 1.5.794 0 1.5-.62 1.5-1.5 0-.793-.708-1.5-1.5-1.5zm-5.38.354c-.634 0-1.15.513-1.15 1.14 0 .634.514 1.14 1.15 1.14a1.14 1.14 0 100-2.28zm-26.5 4.5c-1.06 0-2.02.968-2.02 2.11 0 1.06.881 2.03 2.02 2.03 1.15 0 2.03-.972 2.03-2.03 0-1.14-.881-2.11-2.03-2.11zm31.9.088c-1.06 0-2.02.88-2.02 2.02 0 1.06.883 2.03 2.02 2.03 1.15 0 2.03-.972 2.03-2.03 0-1.06-.883-2.02-2.03-2.02zm-5.38.705c-.618 0-1.15.529-1.15 1.14 0 .618.528 1.14 1.15 1.14a1.16 1.16 0 001.14-1.14 1.16 1.16 0 00-1.14-1.14zm5.38 4.94c-.97 0-1.67.792-1.67 1.67 0 .97.791 1.67 1.67 1.67.882 0 1.67-.794 1.67-1.67 0-.97-.792-1.67-1.67-1.67zm-31.9.084c-.881 0-1.58.708-1.58 1.59 0 .88.707 1.58 1.58 1.58a1.59 1.59 0 100-3.18zm5.21.443a1.16 1.16 0 00-1.14 1.14c0 .618.527 1.14 1.14 1.14.617 0 1.14-.53 1.14-1.14 0-.616-.531-1.14-1.14-1.14zm21.3 0c-.618 0-1.15.53-1.15 1.14 0 .618.53 1.14 1.15 1.14.616 0 1.14-.53 1.14-1.14a1.16 1.16 0 00-1.14-1.14zm0 4.41c-1.06 0-2.03.882-2.03 2.02 0 1.15.881 2.11 2.03 2.11 1.14 0 2.02-.968 2.11-2.11 0-1.06-.97-2.02-2.11-2.02zm-16 .44c-.881 0-1.58.705-1.58 1.58 0 .882.705 1.59 1.58 1.59.882 0 1.59-.705 1.59-1.59 0-.88-.705-1.58-1.59-1.58zm-5.12.086c-.88 0-1.58.705-1.58 1.59 0 .881.708 1.58 1.58 1.58.882 0 1.58-.708 1.58-1.58a1.58 1.58 0 00-1.58-1.59zm15.9.264a1.2 1.2 0 00-.012.002 1.2 1.2 0 00-1.23 1.23 1.2 1.2 0 001.23 1.23c.617 0 1.23-.529 1.23-1.23a1.2 1.2 0 00-1.22-1.23zm-5.48.002a1.2 1.2 0 00-1.14 1.23 1.2 1.2 0 001.23 1.23c.618 0 1.15-.529 1.23-1.23 0-.705-.53-1.23-1.23-1.23a1.2 1.2 0 00-.092 0zm.271 4.68c-1.06 0-2.03.97-2.03 2.02 0 1.06.881 2.03 2.03 2.03 1.14 0 2.02-.972 2.02-2.03 0-1.06-.883-2.02-2.02-2.02zm-5.29.266c-.97 0-1.76.793-1.76 1.76 0 .972.794 1.76 1.76 1.76.97 0 1.76-.796 1.76-1.76 0-.969-.792-1.76-1.76-1.76zm10.6 0c-.971 0-1.76.793-1.76 1.76 0 .972.792 1.76 1.76 1.76.97 0 1.76-.796 1.76-1.76 0-.969-.796-1.76-1.76-1.76z" fill="url(#b)"/></svg>