<svg xmlns="http://www.w3.org/2000/svg" width="152.024" height="152.024"><path d="M76.435 4.259c-28.287 0-42.748 22.746-42.748 49.316 0 27.001 14.461 48.084 41.024 48.084 28.085 0 43.41-21.727 43.41-48.084.201-25.1-14.238-49.316-41.686-49.316zm41.887 71.024h-.42c-4.453 19.343-24.253 30.62-42.95 30.62-30.403 0-45.51-24.262-45.51-52.328C29.442 24.231 45.636 0 76.435 0c20.858 0 37.224 13.825 41.467 31.683h.42V2.549h4.26v105.677c0 29.765-17.02 43.798-45.524 43.798-22.102 0-41.04-9.985-41.677-34.457h4.273c.855 21.697 17.438 30.2 37.193 30.2 26.383 0 41.475-12.536 41.475-39.541V75.283" fill="#534018"/></svg>