<svg xmlns="http://www.w3.org/2000/svg" width="279.93" height="279.93" fill-rule="evenodd"><path d="M101.82 129.08c6.93 0 10.22-1.2 10.22-3.62v-12.02c0-2.43-3.29-3.62-10.22-3.62h-14.9c-6.93 0-10.21 1.2-10.21 3.61v12.03c0 2.43 3.28 3.62 10.22 3.62zm0 5.7h-14.9c-12.4 0-18.59-3.21-18.59-9.77V113.9c0-6.56 6.2-9.77 18.6-9.77h14.89c12.4 0 18.6 3.21 18.6 9.77V125c0 6.56-6.2 9.76-18.6 9.76zm159.51-5.7h-14.9c-6.92 0-10.21-1.2-10.21-3.62v-12.02c0-2.42 3.29-3.61 10.22-3.61h14.89c6.93 0 10.22 1.19 10.22 3.6v12.03c0 2.43-3.29 3.62-10.22 3.62zm0 5.7c12.4 0 18.6-3.21 18.6-9.77V113.9c0-6.56-6.2-9.76-18.6-9.76h-14.9c-12.4 0-18.59 3.2-18.59 9.76V125c0 6.56 6.2 9.76 18.6 9.76zm-201.58-9.9v-7.7c0-1.67-1.03-2.43-3.1-2.43H38.5c-1.64 0-2.97 1.4-2.97 3.12s1.34 3.12 2.98 3.12H50.9v4.13c0 1.24-1.6 2.44-4.31 3.17-2.15.58-3.94.64-5.85.64H20.78c-7.96 0-11.95-1.32-11.95-3.96v-19.54c0-2.64 4.76-3.86 14.27-3.86h5.61c2.15 0 3.23-.97 3.23-2.9 0-1.92-1.08-2.88-3.23-2.88h-7.97c-4.8 0-9.23.53-13.18 1.89-4.5 1.54-7.56 4.26-7.56 7.76v19.57c0 3.64 2.48 6.29 7.41 7.94 3.59 1.21 8 1.82 13.26 1.82h20.07c4.9 0 9.04-.67 12.45-2.02 4.37-1.72 6.56-4.34 6.56-7.88M180.82 111c0 3.14-3.92 4.05-11.6 4.05h-31.23v-13.47h31.23c7.68 0 11.6.91 11.6 4.05zm1.15-13.55a44.76 44.76 0 00-12.76-1.64h-37.53a2.52 2.52 0 00-2.52 2.52v33.9c0 1.7 1.06 2.55 3.1 2.55h2.63c2.04 0 3.1-.85 3.1-2.55v-11.4h31.23c5.3 0 9.4-.59 13.16-1.83 4.82-1.77 7.28-4.6 7.28-8.46v-6.09c0-3.08-2.54-5.44-7.7-7zm36.91 6.69c-7.7 0-10.96-.14-15.52 1.73-4.29 1.76-6.12 4.85-6.12 7.7v18.78c0 1.62 1.01 2.43 2.96 2.43h2.5c1.94 0 2.95-.8 2.95-2.43v-18.78c0-2.62 3.25-3.73 9.7-3.73h3.6c2.1 0 3.1-.96 3.1-2.85 0-1.89-1.06-2.85-3.17-2.85"/><path fill="#009fdf" d="M0 144.37v39.76h60.74v-39.76zm73.06 0v39.76h60.74v-39.76z"/><path fill="#005dac" d="M146.13 144.37v39.76h60.73v-39.76z"/><path fill="#fff" d="M219.19 184.13h60.74v-39.76h-60.74z"/></svg>