<svg xmlns="http://www.w3.org/2000/svg" viewBox="0 0 90 90"><path d="M56.25 33.75h22.14a10.8 10.8 0 017.83 3.33c-4.59-2.07-14.4.72-24.3 7.2-9.45 6.3-15.93 14.22-16.38 19.44a12.15 12.15 0 01-.54-3.6V45.45c0-6.48 5.04-11.7 11.26-11.7h-.01zm32.85 7.47c.54 1.35.9 2.79.9 4.32v14.22c0 6.3-5.04 11.43-11.25 11.43H56.52c-3.06 0-5.85-1.26-7.83-3.24 4.68 1.8 14.4-.99 23.94-7.2 9.99-6.48 16.56-14.58 16.38-19.53h.09zM45 78.03h45V90H45C20.16 90 0 69.84 0 45S20.16 0 45 0a44.9 44.9 0 0139.78 24.03H70.47A33 33 0 0045 12.06a33 33 0 00-33.03 33.03A33.05 33.05 0 0045 78.12v-.09z"/></svg>