<svg xmlns="http://www.w3.org/2000/svg" fill="none" viewBox="0 0 64 64"><path fill="#fff" d="M2.1 22H62a17 17 0 0 0-9-12.8L40.5 2.5a18 18 0 0 0-17 0L11 9.2A17 17 0 0 0 2.1 22Z"/><path fill="#EE3B57" d="M2.3 43c1 5 4.1 9.4 8.7 11.8l12.5 6.7a18 18 0 0 0 17 0L53 54.8A17 17 0 0 0 61.7 43H2.3Z"/><path fill="#1965B1" d="m2 24.2.1-2.2H62a17 17 0 0 0 .1 2.2v15.6a17 17 0 0 1-.3 3.2H2.3a17 17 0 0 1-.3-3.2V24.2Z"/><path fill="#fff" d="m60.5 17.3-53 35A17 17 0 0 1 2 39.8V24.2a17 17 0 0 1 9-15l12.5-6.7a18 18 0 0 1 17 0L53 9.2a17 17 0 0 1 7.5 8Z" opacity=".1"/><path fill="#86909C" fill-rule="evenodd" d="M61.3 39.8V24.2c0-6-3.4-11.5-8.7-14.3L40.1 3.2a17 17 0 0 0-16.1 0L11.4 9.9a16.3 16.3 0 0 0-8.7 14.3v15.6c0 6 3.4 11.5 8.7 14.3l12.5 6.7c5 2.7 11.1 2.7 16.2 0l12.5-6.7c5.3-2.8 8.6-8.3 8.6-14.3ZM11 9.2a17 17 0 0 0-9 15v15.6a17 17 0 0 0 9 15l12.5 6.7a18 18 0 0 0 17 0L53 54.8c5.5-3 9-8.7 9-15V24.2a17 17 0 0 0-9-15L40.5 2.5a18 18 0 0 0-17 0L11 9.2Z" clip-rule="evenodd"/></svg>