<svg xmlns="http://www.w3.org/2000/svg" viewBox="0 0 220 34.7"><path fill="#ee3f58" d="M143.6.8h-18c-.2 0-.3.1-.3.3-.5 8.1-2 16.9-4.2 24v.3l.3.1h6.2l.3-.2a94.8 94.8 0 0 0 3.6-18.8h5.9v18.7c0 .2.1.3.3.3h5.9c.2 0 .3-.1.3-.3v-24c0-.2-.1-.4-.3-.4m76.1 0h-5.9c-.2 0-.3.1-.3.3v18.6c-1.3.4-2.6.5-4 .5-3.9 0-4.8-1.2-4.8-6.4V1.2c0-.2-.1-.3-.3-.3h-5.9c-.2 0-.3.1-.3.3v13.4c0 8.4 2.8 11.7 10.1 11.7 4.1 0 8.8-1.1 11.5-2.1l.2-.3V1.2c0-.2-.1-.4-.3-.4M95.2.9h-6a132 132 0 0 1-5.7 16.6L77.5 1l-.3-.2h-6l-.3.1v.3l9 24.6-2.6 5-1.8 3.4v.3l.3.2h6.5l.3-.2a247.5 247.5 0 0 0 13-33.2l-.1-.3-.3-.1m21.4 18.9-.2-.2h-.3c-1.4.5-4.1 1-6 1-4.1 0-6-1.1-6-7.4 0-5 .6-7.4 6-7.4 1.5 0 3 .2 4.8.8.2 0 .3 0 .4-.2l2.4-4.8v-.3l-.2-.2a26 26 0 0 0-7.8-1.2c-8.6 0-12.4 4-12.4 13.1 0 9.2 3.8 13.3 12.4 13.3a30 30 0 0 0 8.4-1.3c.2-.1.2-.2.2-.4l-1.7-4.8zM172.5.9h-6l-.3.2a132 132 0 0 1-5.4 16.4l-6-16.5-.3-.2h-6l-.3.1v.3l9 24.6-2.6 5-1.8 3.4v.3l.3.2h6.5l.3-.2a223.6 223.6 0 0 0 12.9-33.2l-.1-.3-.2-.1m22-.1h-17.4c-.2 0-.3.1-.3.3v24.1c0 .2.1.3.3.3h5.9c.2 0 .3-.1.3-.3V6.6h9.1l.3-.2 2.1-5.1V1l-.3-.2"/><path fill="#0065b1" d="M31.3 20.8c-3.9 0-5.1-1.1-5.1-7.6 0-7 1.3-7.6 5.1-7.6s5.2.6 5.2 7.6c0 6.6-1.3 7.6-5.2 7.6m0-20.7c-8.5 0-11.8 3.6-11.8 13 0 9.5 3.3 13.2 11.8 13.2s11.9-3.7 11.9-13.2c0-9.3-3.4-13-11.9-13m35.3 19.7-.2-.2h-.3c-1.4.5-4.1 1-6 1-4.1 0-6-1.1-6-7.4 0-5 .6-7.4 6-7.4 1.5 0 3 .2 4.8.8.1 0 .3 0 .4-.2l2.4-4.8v-.3l-.2-.2A28 28 0 0 0 59.8 0c-8.6 0-12.4 4-12.4 13.1 0 9.2 3.8 13.3 12.4 13.3a30 30 0 0 0 8.4-1.3c.2-.1.2-.2.2-.4l-1.8-4.9zM17.7.8H.3C.1.8 0 1 0 1.2v24.1c0 .2.1.3.3.3h5.9c.2 0 .3-.1.3-.3V6.6h9.1l.3-.2L18 1.3V1l-.3-.2"/></svg>
