<svg xmlns="http://www.w3.org/2000/svg" fill="#512fc9" viewBox="0 0 38 39.3"><path d="M37.7 25.2 33.8 22v-.4a14 14 0 0 0 0-4.1l3.9-3.3.2-.4v-.4A18.6 18.6 0 0 0 34 6.8a.8.8 0 0 0-.9-.2l-4.8 1.6L28 8a15 15 0 0 0-3.6-2l-1-4.9a.9.9 0 0 0-.2-.4.8.8 0 0 0-.4-.2 19.4 19.4 0 0 0-7.6 0 .8.8 0 0 0-.4.2.8.8 0 0 0-.3.4l-1 5h-.4a14.6 14.6 0 0 0-3.5 2.2L4.7 6.6h-.5c-.1 0-.3 0-.3.2A18.7 18.7 0 0 0 0 13.3a.7.7 0 0 0 0 .4.7.7 0 0 0 .2.4L4 17.4v.4l-.2 1.9a12.6 12.6 0 0 0 .2 2.3L.3 25.1c-.2.2-.3.3-.3.5v.4a18.7 18.7 0 0 0 3.8 6.5c.3.2.6.3 1 .2L9.5 31l.3.3c1.1.9 2.3 1.5 3.6 2l1 5a.8.8 0 0 0 .3.4.9.9 0 0 0 .4.2 20.8 20.8 0 0 0 7.6 0 .9.9 0 0 0 .4-.2.8.8 0 0 0 .2-.5l1-4.9.5-.2a14.6 14.6 0 0 0 3.5-2l4.8 1.6h.1c.3.1.6 0 .8-.2a18.7 18.7 0 0 0 3.8-6.5.7.7 0 0 0-.3-.9zm-18.7 6A11.5 11.5 0 0 1 7.4 19.7 11.5 11.5 0 0 1 19 8.2a11.5 11.5 0 0 1 11.5 11.5A11.5 11.5 0 0 1 19 31.2m0-19.4a7.9 7.9 0 0 0-7.9 7.9 7.9 7.9 0 1 0 7.9-7.9m0 12.5a4.6 4.6 0 1 1 4.6-4.6 4.6 4.6 0 0 1-4.6 4.6z"/></svg>