<svg xmlns="http://www.w3.org/2000/svg" viewBox="0 0 275 287.5"><g fill="none" fill-rule="evenodd"><path fill="#ffe900" d="m275 259.6-6.4-59.6L0 227.8l6.4 59.7Z"/><path fill="#000" d="M249.9 154.4v62.3h-37.6v-41.9s-17.9 41.9-83.6 41.9c-44 0-68.5-22.4-79.4-36.6a112.1 112.1 0 0 1-19.8-93.5 110.5 110.5 0 0 1 69-80 104 104 0 0 1 54.8-5A103.9 103.9 0 0 1 206.5 28l5.1 4.6L185 60.3l-3-2.7a69 69 0 0 0-81.7-8.7 73 73 0 0 0-29.2 32.7 75.3 75.3 0 0 0 7 73.7 67.8 67.8 0 0 0 24 20.5c11.4 6.6 30.2 7 43.3 5 43.4-7 51.7-49.7 51.7-49.7h-60.6V92.2H250z"/></g></svg>