<svg xmlns="http://www.w3.org/2000/svg" xmlns:xlink="http://www.w3.org/1999/xlink" viewBox="0 0 66 49" fill="#fff" fill-rule="evenodd" stroke="#000" stroke-linecap="round" stroke-linejoin="round"><use xlink:href="#A" x=".5" y=".5"/><symbol id="A" overflow="visible"><path d="M58.342 12.7a3.46 3.46 0 0 1 3.351 3.461c0 1.868-1.538 3.406-3.406 3.35a3.46 3.46 0 0 1-3.351-3.461c0-1.868 1.538-3.35 3.406-3.35zm-7.8-4.505c1.868 0 3.406 1.483 3.406 3.35s-1.483 3.406-3.406 3.406-3.406-1.483-3.406-3.35c.055-1.868 1.538-3.406 3.406-3.406zm-8.57 2.747c1.868 0 3.406 1.538 3.406 3.406s-1.538 3.406-3.406 3.406-3.406-1.538-3.406-3.406c0-1.923 1.538-3.46 3.406-3.406zM25.876 7.746V4.56l2.142.66 1.648.494c.22.055.55.055.66-.055a1.05 1.05 0 0 0 .11-.714L29.008.385c-.055-.1-.055-.22-.1-.385h6.153l-1.538 4.834c-.055.22-.1.66.055.77.1.165.55.165.77.055l3.68-1.154v6.318l-4.45-2.307c-.055.44-.165.824-.055 1.1l2.197 6.757c.77 2.362-.494 4.615-2.857 5.22-2.912.77-5.658-1.923-4.834-4.834l2.307-7.142c.1-.275 0-.66-.055-1.1l-4.45 2.362.055-3.13zM22.03 10.93c1.868 0 3.406 1.538 3.406 3.406s-1.593 3.406-3.406 3.406c-1.868 0-3.406-1.538-3.406-3.406 0-1.923 1.538-3.406 3.406-3.406zm-8.625-2.747c1.868 0 3.406 1.483 3.406 3.406 0 1.868-1.483 3.406-3.406 3.406-1.868 0-3.406-1.538-3.406-3.406s1.538-3.35 3.406-3.406zm-2.088 29.17c-1.2-.604-2.142-1.428-3.57-1.428 1.1 2.197 2.252 4.175 4.56 5.164 2.527 1.044 5.054-.88 4.724-3.46-.165-1-.77-1.868-1.593-2.033-.714-.165-1.428.22-2.033 1.2-.055.1-.165.22-.275.44-.55-1.264-.934-2.417-.22-3.57.824-1.318 2.142-1.2 3.736-.824-3.186-3.24-3.626-6.537-.824-10.053 1.483 1.2 2.747 2.472 3.186 4.34s-.22 3.57-.824 5.44c1.264-.88 2.472-1.538 3.8-.44.88.714 1.1 2.197.494 3.736-.22-.275-.44-.55-.66-.77-.934-.824-2.033-.55-2.582.55-.604 1.264-.22 2.747 1 3.736 1.428 1.2 3.186 1.538 5 1.483.44 0 .824-.055 1.264-.165 2.747-.55 4.12-2.197 4.34-5.054.055-.494.055-1 .1-1.593-2.417.165-3.8 1.813-5.274 3.516l-.66-7.636c.934.604 1.758 1.264 2.747 1.703.934.385 2.033.55 3.076.66-.77-2.197-2.197-3.8-3.626-5.603h9.724c-.714.934-1.428 1.758-2.033 2.692-.604.88-1.154 1.813-1.813 2.857 2.472.055 4.34-.824 6.043-2.527l-.66 7.856c-1.483-1.703-2.857-3.35-5.22-3.516-.165 4.9 2.088 6.922 6.592 6.812 1.264-.055 2.472-.385 3.57-1.1 1.154-.77 1.868-1.813 1.703-3.24-.1-.824-.385-1.538-1.2-1.813-.824-.33-1.428.165-1.923.77-.055.1-.165.165-.275.275-.66-1.1-.44-2.857.44-3.626.934-.88 2.197-.714 3.955.604-1.758-4-1.373-7.36 2.252-9.888 2.197 2.747 3.02 5.988-.77 10.053 1.428-.385 2.747-.494 3.626.824.77 1.154.385 2.362-.165 3.626-.275-.33-.44-.66-.66-.88-.934-1.1-2.197-1-2.912.275-.604 1.044-.494 2.527.22 3.516.824 1.1 2.307 1.593 3.68 1.2 1.264-.385 2.252-1.154 3.02-2.197.714-.934 1.318-1.978 1.923-3.02-1.373-.1-2.362.66-3.516 1.373l2.142-7.197c.66 1.318 1.264 2.637 1.868 3.9l.275-.1c.66-1.538.22-3.13 0-4.78l4.56 1.593c-.165.22-.22.385-.33.55-2.857 4.065-4.505 8.68-5.823 13.404-.165.55-.33 1.1-.44 1.648-.055.604-.385.66-.934.604-8.185-1.154-16.37-1.593-24.666-1.428-6.482.1-12.965.494-19.447 1.428-.604.1-.88 0-1.044-.66-1.044-4.34-2.417-8.57-4.67-12.47-.55-1-1.2-1.978-1.868-3.076l4.56-1.648c-.22 1.648-.604 3.24.055 4.9 1.044-1.154 1.538-2.527 2.088-3.9.714 2.142 1.428 4.505 2.197 6.977zM5.713 12.7c1.868 0 3.35 1.538 3.35 3.406S7.526 19.5 5.658 19.5s-3.406-1.538-3.406-3.406c.055-1.868 1.593-3.406 3.46-3.406zM0 24.665c0-1.868 1.538-3.406 3.406-3.406s3.406 1.483 3.406 3.406c0 1.868-1.483 3.35-3.406 3.35C1.538 28.07 0 26.533 0 24.665zm60.594 3.406c-1.923 0-3.406-1.428-3.406-3.35s1.483-3.406 3.35-3.406A3.42 3.42 0 0 1 64 24.665c0 1.868-1.538 3.406-3.406 3.406z" stroke="none" fill="#000" fill-rule="nonzero"/></symbol></svg>