<svg xmlns="http://www.w3.org/2000/svg" xml:space="preserve" style="fill-rule:evenodd;clip-rule:evenodd;stroke-miterlimit:10" viewBox="0 0 175 175"><path d="M171.08 87.31c0 46.09-37.37 83.46-83.47 83.46S4.14 133.4 4.14 87.31c0-46.1 37.37-83.47 83.47-83.47 46.11.01 83.47 37.38 83.47 83.47Z" style="fill:#68c0b4;fill-rule:nonzero" transform="translate(0 -.01)"/><path d="M148.87 87.3c-.57 33.77-28.05 61.23-61.26 61.23-33.77 0-61.23-27.47-61.23-61.23s27.46-61.22 61.23-61.22c25.54 0 48.64 16.1 57.46 40.06a2.475 2.475 0 0 0 3.17 1.46 2.448 2.448 0 0 0 1.46-3.16c-9.54-25.89-34.49-43.29-62.09-43.29-36.49 0-66.16 29.68-66.16 66.16s29.67 66.16 66.16 66.16c35.91 0 65.61-29.66 66.19-66.12v-.04h-4.93v-.01Z" style="fill:#fff;fill-rule:nonzero" transform="translate(0 -.01)"/><path d="M86.79 153.48c36.47-.09 66.02-29.68 66.02-66.19H86.79v66.19Z" style="fill:url(#a);fill-rule:nonzero" transform="translate(0 -.01)"/><path d="M87.63 133.51c-25.48 0-46.22-20.73-46.22-46.21 0-25.49 20.73-46.22 46.22-46.22s46.22 20.73 46.22 46.22c0 25.48-20.73 46.21-46.22 46.21Zm0-90.66c-24.5 0-44.44 19.94-44.44 44.44 0 24.5 19.94 44.44 44.44 44.44 24.51 0 44.44-19.93 44.44-44.43 0-24.51-19.93-44.45-44.44-44.45Z" style="fill:#fff;fill-rule:nonzero" transform="translate(0 -.01)"/><path d="M87.63 115.88c-15.76 0-28.59-12.82-28.59-28.59 0-15.76 12.83-28.59 28.59-28.59 15.77 0 28.59 12.83 28.59 28.59.01 15.76-12.82 28.59-28.59 28.59Zm0-55.4c-14.78 0-26.81 12.03-26.81 26.81s12.03 26.81 26.81 26.81 26.81-12.03 26.81-26.81c.01-14.78-12.02-26.81-26.81-26.81Z" style="fill:#fff;fill-rule:nonzero" transform="translate(0 -.01)"/><circle cx="87.62" cy="87.31" r="82.98" style="fill:none;stroke:#024f6e;stroke-width:4.4px" transform="translate(0 -.01)"/><defs><linearGradient id="a" x1="0" x2="1" y1="0" y2="0" gradientTransform="rotate(-45 188.693 -77.519) scale(69.1573)" gradientUnits="userSpaceOnUse"><stop offset="0" style="stop-color:white;stop-opacity:0"/><stop offset=".01" style="stop-color:white;stop-opacity:0"/><stop offset=".6" style="stop-color:white;stop-opacity:1"/><stop offset="1" style="stop-color:white;stop-opacity:1"/></linearGradient></defs></svg>