<svg xmlns="http://www.w3.org/2000/svg" width="933.333" height="933.333" version="1.0" viewBox="0 0 700 700"><path d="M528 198.5c-86.6 34.7-184.3 73.8-217 86.9-32.7 13.1-59.8 24.1-60.3 24.5-.4.4 3.4 2 8.5 3.5s14.3 4.2 20.3 6.1c10.5 3.3 109 33.2 143.5 43.7 9.1 2.7 16.9 5.4 17.5 5.9.5.5 1.5 2.6 2.1 4.7.7 2 6.2 18.3 12.4 36.2 6.1 17.9 16.1 46.9 22.2 64.5 6 17.6 13 37.8 15.4 45 9.5 27.3 16.6 48.2 18 52.7.8 2.7 1.8 4.8 2.2 4.8.6 0 6-13.5 38.3-96 4.8-12.4 11.4-29.3 14.7-37.5 3.2-8.3 10.7-27.4 16.7-42.5 5.9-15.1 13.2-33.8 16.2-41.5 14.3-36.3 45.1-115 61.9-157.9 4.1-10.5 7.8-20 8.3-21.1 2.8-6 17.1-43.9 16.9-44.4-.2-.3-71.2 27.8-157.8 62.4z"/><path d="M433.5 141.6c-6.6 2.5-13.3 5.2-15 5.9-1.6.7-7.3 2.9-12.5 4.8-11.9 4.4-74.3 28.2-79 30.2-5.9 2.3-21.7 8.4-38.5 14.7-8.8 3.3-17.3 6.6-19 7.3-2.9 1.3-21.4 8.4-34 13.1-3.3 1.2-13.2 5-22 8.4-8.8 3.4-21.2 8.1-27.5 10.5-6.3 2.4-16.9 6.4-23.5 9-6.6 2.5-18.5 7.1-26.5 10.1s-15.4 5.8-16.5 6.3c-1.1.5-6.7 2.7-12.5 4.9-22 8.3-53.9 20.5-64.5 24.7-6 2.3-15 5.7-19.9 7.6-7.8 2.9-8.6 3.4-6.5 4.2 3 1.1 20.6 6.5 39.9 12.2 8 2.4 43.1 12.9 78 23.5 34.9 10.5 66.3 20 69.8 21 3.5.9 6.4 1.9 6.6 2.1.2.2 3.6 10.5 7.5 22.9 4 12.4 7.6 23.4 8.1 24.5.5 1.1 6.5 19.1 13.3 40C267.2 535 279.5 572 280 572c.3 0 3.4-7.8 6.9-17.3 12.4-33.6 43.2-116.3 44.6-119.7.8-1.9 5.9-15.9 11.5-31s10.5-28.2 10.9-29c1.8-3.4 2.3-8 .9-8.4-.7-.3-10.1-3.2-20.8-6.6-10.7-3.4-22-7-25-8-3-1.1-19-6.2-35.5-11.5-16.5-5.4-36.7-11.9-45-14.5-8.2-2.7-21.6-7-29.7-9.6-8.2-2.7-14.5-5.1-14-5.5.4-.4 6.3-2.9 13.2-5.6 26.1-10.5 38.6-15.5 42.7-17.4 2.4-1 4.7-1.9 5.3-1.9.6 0 1.8-.5 2.8-1 .9-.6 9.1-4 18.2-7.6 9.1-3.6 17.8-7.2 19.4-8 1.6-.8 3.3-1.4 3.8-1.4s2.8-.9 5.1-1.9c2.3-1 15.5-6.4 29.2-11.9 13.8-5.5 34.7-13.9 46.5-18.7 23.8-9.7 25.2-10.2 26.2-10.4.4-.1 3.4-1.3 6.5-2.7 3.2-1.3 6.9-2.9 8.3-3.5 7.4-3.2 6.8-2.1 15.7-27.4 17.7-50 19.2-54.5 18.5-54.5-.4.1-6.1 2.1-12.7 4.6z"/></svg>