<svg xmlns="http://www.w3.org/2000/svg" viewBox="0 0 334 363"><linearGradient id="a" x1="175.5" x2="175.5" y1="109.5" y2="361.4" gradientTransform="translate(-8.5 -1)" gradientUnits="userSpaceOnUse"><stop offset="0" stop-color="#f05a28"/><stop offset="1" stop-color="#fbca0a"/></linearGradient><path fill="url(#a)" d="M333.5 160.2a127.9 127.9 0 0 0-13-45.9 139.2 139.2 0 0 0-27-37 52.9 52.9 0 0 0-6.2-37.9 56.3 56.3 0 0 0-36.5 9.4l-2.3-1a137.9 137.9 0 0 0-32.3-8.9l-2-.3A68 68 0 0 0 181.3 0c-27.3 17.3-32.4 41.5-32.4 41.5l-.3 1.4-4.5 1.3a160.6 160.6 0 0 0-24.6 10.7c-3.9 2.2-7.7 4.6-11.4 7.1l-1-.4c-37.8-14.4-71.3 2.9-71.3 2.9a103 103 0 0 0 18.7 70.1l-2.5 7.5a173.4 173.4 0 0 0-6.7 32.3C10.3 191.7 0 227 0 227c29.1 33.5 63.1 35.6 63.1 35.6l.1-.1a153.7 153.7 0 0 0 22.3 30.2c-10.6 30.4 1.5 55.6 1.5 55.6a91.1 91.1 0 0 0 58.2-17.7 143.1 143.1 0 0 0 47.8 7.5h3.6l1.6-.1v.1c15.3 21.8 42.1 24.9 42.1 24.9a67.1 67.1 0 0 0 20.2-44.4v-1.8a122.7 122.7 0 0 0 31.3-32.4l1.5-2.4c21.6 1.2 36.9-13.4 36.9-13.4a56.4 56.4 0 0 0-19.1-35.6l-.3-.2-.2-.2-.5-.3.3-4.1c.2-2.4.2-4.9.2-7.3v-3.8l-.1-1.5-.1-2-.2-1.9-.2-1.9-.2-1.9-.3-1.9a96.2 96.2 0 0 0-12.4-34.6 91.8 91.8 0 0 0-41.4-36.7 91 91 0 0 0-38.4-7.9h-3.2l-1.6.1-1.7.1a71.2 71.2 0 0 0-64.8 66.1l-.1 5.2v1.3l.1 1.4.2 2.5a54.7 54.7 0 0 0 23.4 39.9 54 54 0 0 0 29.5 9.1h2.6l.9-.1 1.5-.1.4-.1.5-.1.9-.1 1.7-.3 1.6-.4c1.1-.2 2.1-.6 3.1-.9 2-.7 4-1.5 5.7-2.4 1.8-.9 3.4-2 5-3l1.3-1a3.8 3.8 0 0 0 .6-5.3 3.7 3.7 0 0 0-4.7-.9l-1.2.6a32.5 32.5 0 0 1-9 3l-2.5.3-1.3.1h-2.4l-1.5-.1h-.6l-.7-.1-1.4-.2a38.9 38.9 0 0 1-21-9.8 38.3 38.3 0 0 1-12.6-29l.1-1.8v-.8l.1-.9.5-3.6a48.1 48.1 0 0 1 34.1-37.6c2.5-.7 5.1-1.1 7.8-1.4l4-.2h3.1l1.1.1a60 60 0 0 1 48.9 32.5c2.7 5.3 4.6 11 5.5 16.9l.5 4.5.1 1.1.1 1.1v4.3l-.1 2.6a81.3 81.3 0 0 1-5.4 23.7 77.3 77.3 0 0 1-58.4 47.5c-3.2.6-6.5.9-9.8 1h-5a104.6 104.6 0 0 1-45.4-11.8 102.5 102.5 0 0 1-54-83.1l-.1-1.3v-8.9a119.8 119.8 0 0 1 5-30.7c1.9-6.7 4.3-13.2 7.1-19.3a108.6 108.6 0 0 1 28.9-38 102 102 0 0 1 19.5-12l2.1-.9 2.1-.9c2.8-1.2 5.7-2.2 8.7-3.1l2.2-.7 2.2-.6 4.5-1.1 2.3-.5 2.3-.5 2.3-.4 1.1-.2 1.2-.2 2.3-.3 2.6-.3 2.6-.3 1.6-.2 1.1-.1.5-.1h.6l2.6-.2 1.3-.1h1l2.2-.1a129.1 129.1 0 0 1 25.8 1.9 120.2 120.2 0 0 1 56.3 26.8l1.4 1.2 1.3 1.2 2.6 2.4 2.5 2.4 2.4 2.5a130.6 130.6 0 0 1 21.3 29.9l.6 1.2.6 1.2 1.1 2.4 1.1 2.3 1 2.3c1.2 3 2.4 5.9 3.3 8.6 1.5 4.4 2.6 8.3 3.5 11.7a2.7 2.7 0 0 0 3 2.1 2.8 2.8 0 0 0 2.6-2.8c.1-3.6 0-7.9-.5-12.8z"/></svg>
