<svg xmlns="http://www.w3.org/2000/svg" viewBox="0 0 34.07 33.74"><path fill="#027e6f" d="M0 16.87C0 7.55 7.63 0 17.04 0s17.03 7.55 17.03 16.87c0 8.15-5.84 14.95-13.6 16.53-1.11.23-2.26.34-3.43.34H0V16.87Z"/><path fill="#fff" d="M28.82 15.27h-7.68l-1.81 3.1h6.33c-.99 5.39-7.05 9.07-13.1 5.96-1.3-.67-2.36-1.7-3.05-2.99-3.48-6.57 1.27-13.17 7.55-13.17 2.59 0 4.92 1.12 6.52 2.9l1.62-2.78c-2.31-2.17-5.5-3.43-8.98-3.19-5.92.4-10.72 5.27-11.01 11.13-.33 6.74 5.11 12.32 11.84 12.32s11.86-5.27 11.86-11.75c0-.53-.04-1.04-.11-1.55Z"/></svg>