<svg xmlns="http://www.w3.org/2000/svg" width="32.785" height="32.785"><g fill-rule="evenodd"><path d="M32.785 16.392c0 9.053-7.339 16.393-16.392 16.393C7.34 32.785 0 25.445 0 16.392S7.34 0 16.393 0s16.392 7.339 16.392 16.392" fill="#15c39a"/><path d="M19.627 18.614c-.681 0-1.22.614-1.092 1.318.097.536.602.904 1.147.904H21.4l.995-.14c-1.593 2.337-4.359 3.413-7.383 2.938-2.462-.386-4.576-2.052-5.468-4.378-2.026-5.28 1.83-10.322 6.856-10.322 2.62 0 4.915 1.533 6.233 3.385v.04c.35.503 1.043.648 1.548.298.478-.332.61-.963.322-1.459h.008a9.618 9.618 0 00-8.776-4.417c-4.793.322-8.672 4.244-8.948 9.04-.32 5.58 4.107 10.137 9.613 10.137a9.53 9.53 0 007.245-3.297l-.209 1.169v1.056c0 .544.367 1.05.904 1.147a1.112 1.112 0 001.318-1.093v-6.326h-6.031" fill="#fff"/></g></svg>