<svg xmlns="http://www.w3.org/2000/svg" xmlns:xlink="http://www.w3.org/1999/xlink" viewBox="0 0 75.11 55.87"><path id="a" fill="#99d9d5" d="M25.3 31.76a5.9 5.9 0 0 1-1.25-2.57H0c0 .12.09.23.13.34 0 .1.1.2.15.3.06.1.11.19.18.27v.05l.23.29 20.8 24.2c.08.11.18.2.28.3l.18.16.12.1h.08c.92.66 2.1.84 3.17.5l.2-.08.16-.05c.48-.23.91-.56 1.26-.97l9-10.49zm-24.81-6-.17.27c-.07.1-.1.2-.16.31-.06.11-.1.22-.13.34h24.05a5.8 5.8 0 0 1 1.26-2.57l10.64-12.4-9-10.49A3.57 3.57 0 0 0 24.65 0h-.43a3.6 3.6 0 0 0-2.75 1.28L.73 25.46l-.23.29"/><path fill="#00a0b9" d="M47.97 25.81 37.54 13.64 27.1 25.81a3.33 3.33 0 0 0 0 4.31l10.44 12.14 10.43-12.15a3.33 3.33 0 0 0 0-4.31"/><use xlink:href="#a" transform="matrix(-1 0 0 1 75.11 0)"/></svg>
