<svg xmlns="http://www.w3.org/2000/svg" width="75.11" height="75.11" fill-rule="evenodd"><path d="M25.3 41.35a5.9 5.9 0 0 1-1.25-2.57H0c0 .12.09.23.13.34 0 .1.1.2.15.3.06.1.11.19.18.27v.05l.23.29 20.8 24.2c.08.11.18.2.28.3l.18.16.12.1h.08a3.58 3.58 0 0 0 3.17.5l.2-.08.16-.05a3.92 3.92 0 0 0 1.26-.97l9-10.49zm49.29-1.6a2.25 2.25 0 0 0 .16-.26c.12-.2.21-.42.29-.64H51.07a5.81 5.81 0 0 1-1.26 2.55L39.18 53.8l9 10.5.28.3.19.15.12.11h.07c.92.65 2.09.84 3.17.5l.2-.09.15-.06a3.74 3.74 0 0 0 1.27-.95l20.73-24.19c.09-.09.16-.19.23-.3m-23.52-3.44H75.1a3.22 3.22 0 0 0-.13-.34c0-.1-.1-.2-.15-.3a2.25 2.25 0 0 0-.17-.27v-.05a2.61 2.61 0 0 0-.22-.28L53.7 10.89a3.61 3.61 0 0 0-2.32-1.24h-.43c-1.06 0-2.07.47-2.75 1.28l-8.99 10.48 10.63 12.4a5.79 5.79 0 0 1 1.26 2.57M.49 35.35l-.17.27c-.07.1-.1.2-.16.31s-.1.22-.13.34h24.05a5.79 5.79 0 0 1 1.26-2.57l10.64-12.4-9-10.49a3.57 3.57 0 0 0-2.33-1.22h-.43a3.58 3.58 0 0 0-2.75 1.28L.73 35.05l-.23.29" fill="#99d9d5"/><path d="M47.97 35.4 37.54 23.23 27.1 35.4a3.33 3.33 0 0 0 0 4.31l10.44 12.14L47.97 39.7a3.33 3.33 0 0 0 0-4.31" fill="#00a0b9"/></svg>