<svg xmlns="http://www.w3.org/2000/svg" xml:space="preserve" width="247.414" height="247.415"><path style="fill:#2d535a;fill-opacity:1;fill-rule:nonzero;stroke:none;stroke-width:6.23444033" d="m236.215 72.287-160.662 79.92v28.497L1.675 143.952c6.977 42.37 35.455 77.488 73.878 93.741 14.8 6.26 31.073 9.72 48.155 9.72 68.323 0 123.704-55.381 123.704-123.704 0-18.354-4.028-35.761-11.197-51.422"/><path style="fill:#b5e6e1;fill-opacity:1;fill-rule:nonzero;stroke:none;stroke-width:6.23444033" d="m75.555 95.212 129.677-64.507C183.46 11.609 154.945 0 123.71 0c-17.082 0-33.354 3.466-48.155 9.726Z"/><path style="fill:#54c6cc;fill-opacity:1;fill-rule:nonzero;stroke:none;stroke-width:6.23444033" d="M205.232 30.707 75.555 95.215v28.491L5.075 88.65A123.47 123.47 0 0 0 0 123.706c0 6.902.592 13.654 1.677 20.244l73.878 36.752v-28.498l160.662-79.92a124.081 124.081 0 0 0-30.985-41.577"/><path style="fill:#2d535a;fill-opacity:1;fill-rule:nonzero;stroke:none;stroke-width:6.23444033" d="M75.555 209.198v28.498c14.8 6.259 31.073 9.719 48.155 9.719 68.317 0 123.704-55.387 123.704-123.704z"/><path style="fill:#1e8290;fill-opacity:1;fill-rule:nonzero;stroke:none;stroke-width:6.23444033" d="m236.215 72.287-160.662 79.92v28.497L1.675 143.952c6.977 42.37 35.455 77.488 73.878 93.741v-28.498l171.859-85.486c0-18.354-4.028-35.761-11.197-51.422"/><path style="fill:#dbf3f1;fill-opacity:1;fill-rule:nonzero;stroke:none;stroke-width:6.23444033" d="M75.555 9.724C41.708 24.038 15.592 52.997 5.075 88.646l70.48 35.062Z"/></svg>