<svg xmlns="http://www.w3.org/2000/svg" width="1883.243" height="1883.243" viewBox="0 0 64.475 64.449"><path d="M16.983 30.437l-.257.089.152.05z" fill="none"/><path d="M33.15 33.915c3.007 1.453 5.82 2.813 10.316 1.33l.03-.01.07-.035c.073-.006.21.013.32.195.372.68 1.198 1.742 2.824 1.672a288.19 288.19 0 004.705-.245c1.385-.086 2.648-.181 3.337-.27 1.448-.19 1.993.459 2.39.93l.268.3c.435.46 1.09 1.157 2.835.96.04-.003.88-.233.96-.872.586.143 2.459.34 3.129-.23.162-.136.144-.213.138-.238-.066-.302-.93-.82-2.712-1.3-1.566-.423-5.098-1.308-6.17-1.485l-1.43-.193c-2.575-.331-4.93-.655-5.455-.992-.762-.485-1.306-2.542-1.366-2.775-.036-.253.055-.612.933-.775l1.746-.317c.03.01 3.237.99 5.722 1.155l.765.053c2.098.15 3.365.242 4.52-.68.1-.081.15-.166.15-.23-.057-.288-.706-.813-3.466-1.623l-.371-.114-.077-.03c-.404-.146-1.081-.406-2.146-1.59a18.71 18.71 0 00-3.378-.956c.044.005-.602.039-1.111.309-.02-.004-2.154-.464-2.848-.46-.718.007-4.593.452-5.26.567-.02-.008-2.03-.707-7.168.245-.051.005-2.993.29-5.334.197-2.028-.081-4.987.304-7.343.925-.4.105-.785.216-1.144.335a9.8 9.8 0 01-2.157.292c-.573.005-1.688.343-2.903.728l-.354.112-2.442.739-.01.002-.808.228c-1.168.335-2.565.734-4.076.926-1.35.17-2.79.178-4.241-.18-.055-.02-.807-.27-.99.21.147.438 3.306 1.328 5.71 1.156a26.027 26.027 0 001.807-.206c2.278-.326 4.915-.888 5.115-.958l.546-.191.257-.09-.105.14-.394.537c-.01.014-.978 1.312-1.413 2.327a1.561 1.561 0 01-.048.167c-.136.4-.465.928-1.005.817l-.252-.06c-.666-.17-1.906-.484-2.708.504l-.118.145-.175-.066c-.721-.271-1.98-.7-2.282-.697-.308.002-1.353.435-1.976.692l-.524.214c-.592.228-4.287 1.407-4.844 1.567-.655.188-1.195.379-1.134.795.064.442 1.178.65 1.949.605.693-.04 1.44-.362 1.448-.367l.206.478c-.127.057-.168.149-.122.275.107.292.82.7 1.863.476.979-.213 2.02-.727 3.28-1.62.984-.698 1.924-.784 2.874-.263.553.304 2.24 1.225 4.06 1.062 1.737-.155 2.64-.807 2.648-.812.016-.001.97.143 2.312-.374.723-.28 1.557-.746 2.423-1.538l.892-.766c.414-.358.787-.681 1.136-.966 1.066-.867 1.897-1.368 2.929-1.377h.017c1.565-.01 2.245.138 5.23 1.584z"/><path d="M63.957 37.286c0 .262-.445.439-1.03.445-1.474.01-2.51-.68-3.593-1.72 4.259.753 4.619.925 4.623 1.275M5.133 38.635c-.537.003-.628-.083-.628-.258-.001-.174.22-.351 4.238-1.693-2.58 1.898-3.072 1.946-3.61 1.95m15.776-3.098l1.03-.578 1.108-.661c-1.813 2.504-2.976 2.644-4.143 2.653.579-.702.579-.702 2.005-1.414m26.026-4.582c.459.708.65 1.432.6 2.269a7.936 7.936 0 00-1.223-1.956l.623-.313" fill="gray"/><path d="M20.279 28.77c2.728-.503 3.486-.77 4.782-1.043 1.296-.272 2.55-.282 4.877-.39 9.712-.384 7.426-.933 9.708-.951.669-.006 1.254.12 2.332.549 1.489 1.429 1.58 1.56 1.627 1.647l.53-.704-1.307-1.082c2.057-.41 2.235-.411 4.83-.432-1.2.884-.751.88-2.043 1.765 1.656-.013 1.294-.404 2.548-.414.404-.002 1.39.164 1.659.163.804-.008 1.383-.493 2.314-1.55 1.435.12 1.792.205 2.96.807l-.62.749c.366.132.726.115 1.075-.054 1.22 1.519 4.663.749 4.673 2.06.003.393-.442.658-1.204.664-1.163.01-2.285-.374-2.601-.371l-1.387.055c-1.656.013-3.415-1.501-3.776-1.892l.048.81c.003.058 0 .059-.035.014a16.132 16.132 0 00-.594-.731c-.01-.01-.45.08-.448.092.008.05.229.61.229.61-2.103.016-2.685.108-5.045 1.569 2.089 3.652 2.089 3.608 2.357 3.693.405.127.404.084 4.524.356.405.04 4.617.443 5.425.743.493.17 2.702 2.03 2.705 2.337.003.26-.4.483-.804.487-2.238.018-1.495-2.348-4.853-2.32-2.195.018-6.042.44-7.161.45-3.446.027-4.508-3.981-7.597-3.956-.225.002-.403.09-.401.309.006.742 2.247.986 2.25 1.554.004.35-1.472.712-2.366.719-3.985.033-7.462-3.871-12.925-3.828-1.747.016-1.865 1.938-7.664 4.607-1.466 1.365-2.268 1.852-3.834 1.865-2.911.023-3.778-2.022-6.6-2-2.953.023-4.595 1.915-6.744 1.933-.716.006-.851-.08-.853-.211-.004-.35 7.589-2.64 7.679-2.64 1.388-.012 2.56.896 4.082.884 3.134-.024 1.55-2.11 6.978-6.347l-.582.004c-1.432.012-5.222 2.053-10.773 2.099a12.84 12.84 0 01-2.78-.285c10.75-.26 10.282-2.47 13.6-2.512.67-.01.672.047 1.205.12" fill="gray"/><path d="M51.19 26.162c-.393 1.053-.93 1.145-2.9 1.159a3.468 3.468 0 00-1.207.185c1.333-1.234 1.333-1.234 4.108-1.344" fill="gray"/><path d="M27.898 29.397s-.062-.432-.772-.145c-.71.288-1.12 1.123-.911 1.587.174.393 1.74-1.555 1.683-1.442z"/></svg>