<svg xmlns="http://www.w3.org/2000/svg" height="512pt" viewBox="-34 0 512 512" width="512pt"><path d="M346.846 0H97.15C43.764 0 .486 43.516.486 97.191v251.063c0 53.672 43.274 97.187 96.664 97.187h83.106L221.568 512l41.325-66.559h83.953c53.383 0 96.668-43.515 96.668-97.187V97.187C443.514 43.517 400.229 0 346.846 0zm0 0" fill="#00a0e9"/><path d="M168.584 246.98h36.492v-36.027h33.836v36.027H275.4v-36.027h35.825V174.27H275.4v-34.02h35.825v-36.688H275.4V67.54h-36.488v36.023H205.08V67.54h-36.492v36.023h-35.832v36.688h35.832v34.02h-35.832v36.683h35.828zm36.496-106.73h33.832v34.02H205.08zm0 0M384.553 259.059c-3.278-2.168-6.383-3.243-9.258-3.579-13.484-1.484-21.754 7.547-28.316 17.844-7.247 11.363-49.067 61.137-124.836 63.043-75.77-1.906-117.586-51.68-124.836-63.043-6.563-10.297-14.543-19.312-28.317-17.844-2.875.336-5.976 1.41-9.258 3.579-5.898 3.902-8.144 10.527-7.949 15.148 0 6.402 3.117 12.344 3.117 12.344s48.172 91.219 162.543 91.219c1.582 0 3.145-.02 4.7-.047 1.554.027 3.117.047 4.703.047 114.37 0 162.543-91.22 162.543-91.22s2.691-3.898 3.152-12.35c.21-5.743-2.09-11.24-7.988-15.141zm0 0" fill="#fff"/><path d="M205.08 140.25h33.832v34.02H205.08zm0 0" fill="#00a0e9"/></svg>