<svg xmlns="http://www.w3.org/2000/svg" viewBox="0 0 40.36 46.05"><defs><linearGradient id="a" x1="35.95" x2="-4.81" y1="34.25" y2="-2.12" gradientUnits="userSpaceOnUse"><stop stop-color="#3c16d3"/><stop offset=".44" stop-color="#1271ff"/><stop offset="1" stop-color="#2cf2ff"/></linearGradient></defs><path fill="url(#a)" d="M31.05 0H9.32a9.31 9.31 0 0 0-9.3 9.31v21.74a9.31 9.31 0 0 0 9.3 9.3h4.7c1.35 0 1.96.12 2.6.48.71.41 1.1 1.48 1.5 2.55.48 1.34.98 2.66 2.07 2.66 1.1 0 1.55-1.23 2.07-2.52.43-1.13.9-2.28 1.75-2.69a4.75 4.75 0 0 1 2.4-.48h4.65a9.31 9.31 0 0 0 9.3-9.3V9.3a9.31 9.31 0 0 0-9.3-9.3"/><path id="b" fill="#fff" d="M32.67 23.48a1.7 1.7 0 0 0-1.53.75 13.27 13.27 0 0 1-11 5.83v3.44a16.67 16.67 0 0 0 13.83-7.36 1.7 1.7 0 0 0-1.3-2.66ZM21.68 6.5v3.1h-1.55v3.1h1.55v3.1h-1.55v3.1h1.55V22h3.1v-3.1h3.1v-3.1h-3.1v-3.1h3.1V9.6h-3.1V6.5"/><use href="#b" transform="matrix(-1 0 0 1 40.3 0)"/></svg>
