<svg xmlns="http://www.w3.org/2000/svg" viewBox="0 0 40.36 46.05"><defs><linearGradient id="a" x1="35.96" x2="-4.73" y1="12.12" y2="48.41" gradientTransform="matrix(1 0 0 -1 0 46.37)" gradientUnits="userSpaceOnUse"><stop offset="0" stop-color="#3c16d3"/><stop offset=".44" stop-color="#1271ff"/><stop offset=".99" stop-color="#2cf2ff"/></linearGradient></defs><path d="M31.05 0H9.31A9.31 9.31 0 0 0 0 9.31v21.73a9.31 9.31 0 0 0 9.31 9.31H14c1.35 0 1.97.11 2.61.48.71.41 1.1 1.48 1.49 2.54.49 1.34.98 2.67 2.08 2.67s1.55-1.24 2.06-2.53c.44-1.12.9-2.27 1.75-2.68a4.75 4.75 0 0 1 2.41-.48h4.64a9.31 9.31 0 0 0 9.31-9.31V9.31A9.31 9.31 0 0 0 31.04 0ZM20.13 33.49A16.68 16.68 0 0 1 6.3 26.14a1.7 1.7 0 1 1 2.83-1.91 13.27 13.27 0 0 0 22.01 0 1.7 1.7 0 1 1 2.83 1.91 16.67 16.67 0 0 1-13.84 7.36Zm7.77-23.9v3.1h-3.1v3.1h3.1v3.1h-3.1v3.1h-3.1v-3.1h-3.1v3.1h-3.1v-3.1h-3.1v-3.1h3.1v-3.1h-3.1v-3.1h3.1v-3.1h3.1v3.1h3.1v-3.1h3.1v3.1zm-9.32 6.21h3.1v-3.1h-3.1z" style="fill:url(#a);fill-rule:evenodd;stroke-width:0"/></svg>