<svg xmlns="http://www.w3.org/2000/svg" width="20.46" height="20.46"><path class="groupon-logo" d="M3.064 17.33c-1.82-1.965-2.745-4.4-2.745-7.306a9.95 9.95 0 012.937-7.118C5.156.998 7.552 0 10.296 0c4.135 0 7.75 2.575 9.3 6.786h-5.387c-1.194-1.276-2.447-1.913-3.968-1.913-2.826 0-5.055 2.352-5.055 5.178 0 3.13 2.39 5.536 5.055 5.536 1.796 0 3.4-.94 4.35-2.657H9.077V9h11.012c.025.44.053.886.053 1.298 0 2.216-.544 4.098-1.66 5.761a9.965 9.965 0 01-8.237 4.401c-2.855 0-5.274-1.082-7.18-3.13z" fill-rule="evenodd" fill="#53a318"/></svg>