<svg xmlns="http://www.w3.org/2000/svg" id="图层_1" data-name="图层 1" version="1.1" width="26.71" height="26.71"><defs id="defs64828"><style id="style64826"></style></defs><path d="M25.96 13.37a14.16 14.16 0 01-.46 3.6 12.73 12.73 0 01-12.14 9.74c-7 0-12.61-6-12.61-13.34S6.4 0 13.36 0a12.35 12.35 0 019.7 4.81 7.23 7.23 0 01-4.16 2.21 7.82 7.82 0 00-5.52-2.31c-4.49 0-8.12 3.91-8.12 8.7a8.42 8.42 0 008.12 8.69 8.1 8.1 0 007.41-5.1h-7.33a8.33 8.33 0 011.33-4.45h11.14c.01.26.03.55.03.82z" id="path64832" fill="#191140"/></svg>