<svg xmlns="http://www.w3.org/2000/svg" viewBox="-247.2 1051.5 600 125.9"><path d="M170.5 1053.3h-21c-1.2 0-1.8 1.2-1.8 1.8v45.7h-21v-45.7c0-1.2-1.2-1.8-1.8-1.8h-21c-1.2 0-1.8 1.2-1.8 1.8v117.3c0 1.2 1.2 1.8 1.8 1.8h21c1.2 0 1.8-1.2 1.8-1.8v-46.9h21v46.9c0 1.2 1.2 1.8 1.8 1.8h21c1.2 0 1.8-1.2 1.8-1.8v-117.3c0-.6-.6-1.8-1.8-1.8m-177 0h-21c-1.2 0-1.8.6-1.8 1.8v83.1c0 4.2-1.2 7.2-3 9.6-1.8 2.4-4.2 3-7.2 3-2.9 0-5.4-1.2-7.2-3-1.8-2.4-3-5.4-3-9.6v-83.1c0-1.2-1.2-1.8-1.8-1.8h-21c-1.2 0-1.8.6-1.8 1.8v83.7c0 10.8 2.4 21 9 27.7 6.6 6.6 15.6 10.2 25.9 10.2 10.8 0 19.9-3.6 25.9-10.2 6.6-6.6 9-16.2 9-27.7v-83.7c-.1-.6-.7-1.8-2-1.8m-205.8-1.8c-10.8 0-19.9 3.6-25.9 10.2-6.6 6.6-9 16.2-9 27.7v50c0 10.8 2.4 21 9 27.7 6.6 6.6 15.6 10.2 25.9 10.2 10.8 0 19.9-3.6 25.9-10.2 6.6-6.6 9-16.2 9-27.7v-27.6c0-1.2-1.2-2.4-2.4-2.4h-30.7c-1.2 0-2.4 1.2-2.4 2.4v20.5c0 1.2 1.2 2.4 2.4 2.4h7.9v4.8c0 4.2-1.2 7.9-3 10.2-1.8 2.4-4.2 3-7.2 3-2.9 0-5.4-1.2-7.2-3-1.8-2.4-3-6-3-10.2v-49.4c0-4.2 1.2-7.9 3-10.2 1.8-2.4 4.2-3 7.2-3 2.9 0 5.4 1.2 7.2 3 1.8 2.4 3 6 3 10.2v4.8c0 1.2 1.2 1.8 1.8 1.8h21c1.2 0 1.8-.6 1.8-1.8v-4.8c0-10.8-2.4-21-9-27.7-5.4-7.3-15.1-10.9-25.3-10.9m270.8 95.7c-1.8 2.4-4.2 3-7.9 3h-12v-25.4h12c3 0 5.4 1.2 7.2 3 1.8 2.4 3 5.4 3 9 .2 5-.4 7.9-2.3 10.4zM38.6 1078h10.8c3 0 5.4.6 7.2 3 1.8 1.8 2.4 4.8 2.4 8.5s-.6 6.6-2.4 9c-1.8 1.8-4.2 3-6.6 3H39.2V1078h-.6zm34.9 34.3c3.6-3.6 10.2-12 10.2-22.9 0-12.7-4.8-20.5-8.5-24.7-6.6-7.2-15.6-10.8-25.9-10.8H16.4c-1.2 0-1.8 1.2-1.8 1.8v117.4c0 1.2 1.2 1.8 1.8 1.8h34.9c10.8 0 21-4.2 27.7-12.7 3.6-4.8 7.9-12.7 7.9-24.7-.7-14.4-9.7-22.9-13.4-25.2zm-191.3-11.5c-1.8 2.4-4.8 3.6-8.5 3.6h-10.2V1078h10.2c3.6 0 6.6 1.2 8.5 3.6 2.4 2.4 3 5.4 3 9.6 0 4.2-.5 7.2-3 9.6zm13.3 21.7c2.4-1.8 4.2-3 6-5.4 4.2-4.8 9.6-13.3 9.6-26.5 0-12.7-4.8-21-9.6-25.9-6-7.2-15-10.8-25.3-11.4h-34.9c-1.2 0-1.8 1.2-1.8 1.8v117.3c0 1.2 1.2 1.8 1.8 1.8h21c1.2 0 1.8-1.2 1.8-1.8V1129h7.2l13.3 44.5c0 .6 1.2 1.2 1.8 1.2h22.2c.6 0 1.2-.6 1.8-.6.6 0 .6-1.2.6-1.8l-15.5-49.8zm428.4 24.7c-1.8 2.4-4.2 3-7.9 3h-12v-25.4h12c3 0 5.4 1.2 7.2 3 1.8 2.4 3 5.4 3 9 .7 5-.4 7.9-2.3 10.4zm-19.3-69.2h10.8c3 0 5.4.6 7.2 3 1.8 1.8 2.4 4.8 2.4 8.5s-.6 6.6-2.4 9c-1.8 1.8-4.2 3-6.6 3h-10.8V1078h-.6zm34.9 34.3c3.6-3.6 10.2-12 10.2-22.9 0-12.7-4.8-20.5-8.5-24.7-6.6-7.2-15.6-10.8-25.9-10.8h-33.2c-1.2 0-1.8 1.2-1.8 1.8v117.4c0 1.2 1.2 1.8 1.8 1.8h35.1c10.8 0 21-4.2 27.7-12.7 3.6-4.8 7.9-12.7 7.9-24.7-1.2-14.4-10.2-22.9-13.3-25.2zm-80.6-59h-21c-1.2 0-1.8.6-1.8 1.8v83.1c0 4.2-1.2 7.2-3 9.6-1.8 2.4-4.2 3-7.2 3-2.9 0-5.4-1.2-7.2-3-1.8-2.4-3-5.4-3-9.6v-83.1c0-1.2-1.2-1.8-1.8-1.8h-21.1c-1.2 0-1.8.6-1.8 1.8v83.7c0 10.8 2.4 21 9 27.7 6.6 6.6 15.6 10.2 25.9 10.2 10.8 0 19.9-3.6 25.9-10.2 6.6-6.6 9-16.2 9-27.7v-83.7c.6-.6-.6-1.8-1.9-1.8" fill="#f63440"/></svg>