<svg xmlns="http://www.w3.org/2000/svg" version="1.0" width="413" height="413"><path d="M284.208 40.148h8.3c10.17.15 20.35.21 30.48 1.25 6.01.8 12.67 1.1 17.61 5.08 6.63 5.68 9.29 14.34 12.92 21.98 3.65 7.27 6.8 14.78 9.63 22.4.63 2.18 1.55 5.25-.66 6.84-2.84 1.76-6.33 1.72-9.54 1.96-66.39 1.02-132.63 8.89-197.52 22.89-20.71 4.44-41.04 10.41-61.49 15.83-6.38 1.33-13.59 3.78-19.71.38-5.21-3.54-6.99-10.01-9.21-15.57-3.67-10.49-7-21.09-10.36-31.69-1.25-4.19-2.21-9.17.47-13.04 3.57-5.02 9.77-6.93 15.36-8.78 21.77-7.18 44.27-11.88 66.82-15.89 26.37-4.53 52.91-7.94 79.52-10.71 10.34-.9 20.66-2.4 31.07-2.33 12.1-.2 24.2-.48 36.31-.6z" fill="#222f7d"/><path d="M315.549 118.018c16.42-.99 32.89-1.44 49.34-.88 6.42.5 13.7.67 18.78 5.22 5.08 5.12 6.4 12.55 8.97 19.04 3.6 11.31 9.07 21.9 13.11 33.05 1.25 3.65 2.2 8.56-1.3 11.29-5.42 3.88-12.31 4.53-18.64 5.9-22.31 3.82-44.68 7.19-66.9 11.47-43.63 8.45-86.9 18.65-130.05 29.25-43.99 11.16-87.8 23.37-130.34 39.29-8.41 3.07-16.75 6.72-25.71 7.82-4.45.55-9.47-.13-12.65-3.58-4-4.32-5.54-10.22-7.12-15.74-3.61-14.15-7.73-28.19-10.83-42.47-1.24-6.53-2.69-13.37-.97-19.96 1.36-5.31 5.65-9.24 10.3-11.81 9.52-5.25 19.99-8.41 30.21-12 20.74-7.35 42.12-12.72 62.9-19.96 44.26-11.54 89.11-20.81 134.34-27.65 25.39-3.76 50.92-6.73 76.56-8.28z" fill="#ffc902"/><path d="M365.399 208.768c6.15-.9 12.81-2.35 18.78.17 5.7 2.72 8.28 8.95 10.69 14.4 5.24 13.38 9.36 27.17 14 40.77 1.82 6.14 4.28 12.43 3.55 18.94-1.18 6.65-8.15 9.48-13.6 11.98-16.04 6.38-32.34 12.08-48.39 18.44-43.06 16.63-86.13 33.25-129.19 49.88-9.33 3.56-18.61 7.58-28.52 9.13-5.48.8-11.57.53-16.11-2.97-5.01-3.86-7.37-9.97-9.51-15.69-3.74-10.76-6.43-21.86-10.36-32.56-5.57-12.26-10.1-24.97-14.55-37.68-1.94-5.49-2.38-12.08 1.01-17.1 3.24-4.76 8.8-7.13 14.13-8.75 28.69-7.14 57.21-14.99 85.96-21.96 24.76-6 49.45-12.37 74.49-17.2 15.87-3.23 31.68-6.83 47.62-9.8z" fill="#ea241d"/></svg>