<svg xmlns="http://www.w3.org/2000/svg" width="60.29" height="60.273"><defs><linearGradient id="c"><stop offset="0" stop-color="#6c6c6c"/><stop offset="1" stop-color="#4b4b4b"/></linearGradient><linearGradient id="a"><stop offset="0" stop-color="#fff"/><stop offset="1" stop-color="#a7a5a9"/></linearGradient><linearGradient id="b"><stop offset="0" stop-color="#fff"/><stop offset="1" stop-color="#a7a5a9"/></linearGradient></defs><path style="marker:none" d="M30.143 0c-2.286.016-4.649.258-6.671.706-4.016.89-8.19 2.864-11.783 5.572-1.507 1.135-4.366 4.03-5.569 5.64-8.53 11.407-8.106 26.773 1.04 37.695 4.83 5.77 12.273 9.725 19.765 10.504 4.568.475 9.484-.144 13.747-1.73 9.442-3.514 16.74-11.836 18.883-21.533 1.01-4.568.977-9.45-.092-13.843C56.525 10.94 46.343 1.8 34.083.22a29.662 29.662 0 00-3.94-.22zm-1.741 6.951l.696.157c.565.141 1.06.337 1.548.522 0 0 .697-.111.905-.157 0-.028 0-.113.104-.122.053-.01.124.073.383.052.401-.122 1.732-.422 1.705-.4v.07l-.14.087-1.06.418.121.069-.209.069.017.087-.104-.051-.313.121.035.07-.14-.035-.174-.069-.139.051 1.322.33 1.201-.59.365.104-.33.591.33-.087.192.07-.522.295v.191l-.192-.017-.104.192h-.191l-.244-.192-1.374-.069-.574-.174-.418-.016-.104-.017.034.052-.017.157h-.087l.069.069.156.226h.209c-.02.051-.05.098-.14.14l-.225-.054-.07-.05-.104.016c-.069-.043-.153-.086-.157-.139l-.017.105c-.045.039-.164.01-.26 0-.162-.01-.257-.01-.383-.017-.077-.118-.043-.207.017-.279l.33-.017-.209-.122-.05.07-.227.016a1.365 1.365 0 01-.452-.104c0-.12.027-.153.05-.226l.4.017-.208-.21-.348-.208c-.253-.055-.533-.115-.678-.191-.28-.047-.417-.156-.592-.245l-.226-.19c-.082-.083-.067-.153.052-.192.095-.015.117-.039.278-.054l.261-.121zm-7.376 3.08h5.48v8.246c.166 0 .663.034.956.034 0-.629-.034-3.34-.034-4.123.315 0 .661-.017.661-.017v-.592l3.358-.034.157 4.106 1.34-.069-.052-5.741s5.66-1.339 6.438-.835v8.003c.555 0 .268-.054.504 0 .013.4.087 5.164.087 5.724.386 0 .73.034.73.034l.018-8.82h1.183c0-.496.226-1.01.226-1.01s1.096-.4 1.27-.4h3.41c.15 0 .122 7.63.122 8.49.138 0 .555 1.688.974 1.688 0-.642.035-3.351.035-4.21.261-.044.24-.07.8-.07 0-.345.036-.144.036-.453.04 0 .727.016 1.165.017.112 0 0-1.557 0-2.522h.888c.073 0 .056 2.522.121 2.522h.8c.172 0-.017.554.14.557.158 0 1.914.051 1.914.051l.069 7.203 1.009.105-.052-2.158c.238 0 .72-.032 1.165-.07.248 1.448.453 2.918.453 4.437 0 1.81-.19 3.581-.54 5.289a26.145 26.145 0 01-3.95 9.378 26.313 26.313 0 01-7.08 7.08 26.177 26.177 0 01-9.378 3.95c-1.707.35-3.478.54-5.289.54-1.81 0-3.581-.19-5.289-.54a26.182 26.182 0 01-9.378-3.95 26.356 26.356 0 01-9.499-11.535 26.015 26.015 0 01-1.53-4.923 26.367 26.367 0 01-.54-5.29c0-.464.116-.898.14-1.356h.19v-1.445H5.56v1.636h.644v.905H6.5s-.033-4.746-.033-8.943c.014-.618 2.532-.015 3.584-.087 1.002 0 1.981 1.218 2.313 1.218.048.909.078 1.824.123 2.488h.765s.17-4.565.122-8.56c.302 0 .583-.017 1.027-.017 0-.419.452-.672.452-.974h.974v-.244h.348v-2.923h.818c.085 0 .028 2.213.052 2.888.116 0 .172.017.33.017 0 .164.017.146.017.262h1.653v.904h.366c.017 4.003.087 9.107.087 9.69.257 0 .674.036.974-.033.017-.483.035-.697.053-.94.196-.092.644-.191.644-.191l-.14-14.389zm22.226.42c1.023-.03 3.116.3 3.966.558-2.023-.114-1.599-.143-1.748-.022.363.04.751.21.99.297.612.3-.115.525-.54.584-.048.01.188.169.139.174-.267.028-1.165-.074-1.42-.088-.071-.01.08-.22.018-.226-.266-.024-.467-.103-.508-.183l-.336-.33-.578-.171c-.032.2-.533.231-.565-.043-.043-.36.317-.347.54-.217l1.666.2c.183-.177-.589-.316-1.624-.53zM9.205 17.237c.786 0 1.573.03 1.59.102.034.143-1.057.078-1.2.226l1.374-.069c.14-.13.333-.106.339.069.01.234-.297.247-.383.113l-.844.096-.4.383c.04.01-.063 0-.243.017-.036.01.066.154.017.156a9.904 9.904 0 01-.922-.035c-.033-.01.135-.1.104-.104a.958.958 0 01-.226-.07c.01-.112-.328-.012.034-.347l.47-.209c-.275-.058-1.303-.096-1.287-.226.01-.065.79-.1 1.576-.102zm19.597 4.347c-.515.01-1.074.015-1.67.051-.557.862-1.709.936-2.826.663-.01-.01-.016.014-.024.021.982.706 2.223 1.613 2.223 1.613-.422 2.13.192 4.27 1.844 6.42-.22 1.065-.738 2.026-1.565 2.853l-4.037.766-3.723 7.377c0-1.444-.209-2.138-.244-3.376h.575v-2.105h-.662l-2.731-6.733c-.312-.294-.628.058-.922-.07l-.887-2.348-1.288.61.748 2.017c-.22.018-.32.047-.504.14.027 1.667.94 4.158.94 4.158s-.565 1.332-.697 2.018l.4 1.6-1.774 3.654 1.287.557c.729-1.338 1.418-1.738 2.192-2.94.03.083-.485 1.058-.626 1.426.128.429.112.34.104.714-.01.626.097.911-.017 1.548.154.379.652.297.818.644.082.163.208-.616.279-.435.066.174.079 1.293.139 1.479.39 1.208.68 2.603 1.444 3.392.933.139 1.319.72 2.088.33.654-.33 1.71-1.59 2.174-2.104l2.836-2.384-.435-1.6 1.027 1.339a37.863 37.863 0 001.6 1.566c.478 1.488 1.686 2.345 1.392 3.723l.034 1.549c.146.024 1.522 2.282 2.418 3.531 1.386-.034 2.757-.148 4.072-.417a22.996 22.996 0 008.23-3.462c.105-.072.19-.17.295-.244.181-.365.345-.759.47-1.253l-.87-4.158c.266-1.805-.17-3.955-.435-5.776-1.038-.51-2.313-1.016-2.367-1.427.914.02 5.083.463 5.864.557.78.094 1.359.707 1.705 1.01.239.208.324.577.487 1.026.109.3.764 2.115 1.305 3.619.717-1.11 1.376-2.267 1.896-3.497.01-.021.01-.047.017-.07-.265-1.229-.535-2.42-.818-3.375-.289-.976-.705-1.006-.94-1.583-1.134-.577-.184-.432-4.105-1.757l-2.227-.887-7.15-1.01a18.03 18.03 0 00-.68-.887c-.385-.533-.558-1.052-.521-1.583h-.992c-.188-.413.03.156-.122-.017.626-3.655-.047-6.214-1.461-6.159-.56-.166-1.28-.253-2.158-.296a26.148 26.148 0 00-1.426-.017z" color="#000" overflow="visible" fill="#fff"/></svg>