<svg xmlns="http://www.w3.org/2000/svg" viewBox="0 0 84 84"><path fill="#A49DFF" d="M42.11 3C27.92 3 13.93 2.3.03 1c-.79 16.5 14.39 32.1 33.55 35.9l3.18.4c.89-6.1 5.26-29 6.85-34.4-.5.1-1 .1-1.5.1z"/><path fill="#28289A" d="M43.6 3s22.63 16.5 31.27 38.6C78.84 28.4 81.82 14.6 84 1 70.4 2.3 57 3 43.6 3z"/><path fill="#5ADCEE" d="m36.75 37.4-.5 3.2s-4.07 33 24.62 42.4c5.36-13.5 10.02-27.3 14-41.4-17.17-1.3-38.12-4.2-38.12-4.2z"/><path fill="#7878FF" d="M43.6 3c-1.59 5.4-5.96 28.2-6.85 34.4 0 0 20.94 2.9 38.11 4.2C66.13 19.5 43.6 3 43.6 3z"/></svg>