<?xml version="1.0" encoding="UTF-8"?>
<svg width="512px" height="512px" viewBox="0 0 512 512" version="1.1" xmlns="http://www.w3.org/2000/svg" xmlns:xlink="http://www.w3.org/1999/xlink">
    <title>round-logo</title>
    <g id="round-logo" stroke="none" stroke-width="1" fill="none" fill-rule="evenodd">
        <g id="footer-logo" transform="translate(19.000000, 16.000000)" fill-rule="nonzero">
            <path d="M183.495852,321 L101,436.009196 C137.642797,460.951517 179.534085,476.864557 227,479 L227,336.418835 C210.484441,334.607026 196.847994,329.377094 183.495852,321 Z" id="Shape" fill="#104A70"></path>
            <path d="M227,142.035823 L226.045644,0 C179.158623,2.25262891 137.49284,17.3099552 101,42.3153853 L183.328582,157 C196.391424,148.863938 210.760449,143.65905 227,142.035823 Z" id="Shape" fill="#ED7324"></path>
            <path d="M368,39.5906938 C331.321477,14.5430029 288.269929,1.40285171 240.899143,0 L240,141.404682 C256.275249,142.581267 271.707616,146.865723 284.858649,155 L368,39.5906938 Z" id="Shape" fill="#FBBC05"></path>
            <path d="M146.399364,276 L13,320.353428 C28.5868283,364.147938 55.1834273,401.021122 90.8634416,429 L174,314.157382 C162.031743,303.917045 152.467776,290.871246 146.399364,276 Z" id="Shape" fill="#0F1E2A"></path>
            <path d="M173,164.244507 L90.6368513,50 C66.6051653,68.8886842 47.0024012,91.8778109 31.4879891,118.532287 C23.9293157,131.518437 18.0990813,144.804447 13,159.191026 L146.007075,203 C152.037003,188.065089 161.041582,174.550736 173,164.244507 Z" id="Shape" fill="#DF5216"></path>
            <path d="M140.689865,239.584492 C140.498182,231.330855 141.394269,222.566269 143.18955,215.087837 L9.63860874,172 C3.4510985,193.371797 0,215.136971 0,238.5 C0,261.998794 2.68434767,283.526378 8.9283133,305 L144,262.540959 C142.148263,254.949389 140.881548,247.83813 140.689865,239.584492 Z" id="Shape" fill="#D53C0D"></path>
            <path d="M297,316.315341 L380.375299,431 C416.091509,402.954871 444.461422,365.645689 460,321.813793 L325.968709,278 C319.682404,292.790202 309.338793,306.220367 297,316.315341 Z" id="Shape" fill="#378A9B"></path>
            <path d="M240,336.909297 L240,480 C287.212475,478.532518 331.477778,464.495141 368,439.43507 L284.492522,324 C271.238897,332.04962 256.225252,335.905567 240,336.909297 Z" id="Shape" fill="#1D77B2"></path>
            <path d="M463.933746,171 L304,220.441337 C305.788198,228.255795 306.503499,232.105998 306.480194,238.995856 C306.456888,245.885715 305.617254,249.536501 304,257.376392 L464.500106,307 C470.781061,285.512277 474,262.476249 474,239 C474.012327,215.398696 470.488895,192.959643 463.933746,171 Z" id="Shape" fill="#539E82"></path>
        </g>
    </g>
</svg>