<svg xmlns="http://www.w3.org/2000/svg" viewBox="0 0 474 480"><path fill="#104a70" d="m183 321-82 115c37 25 79 41 126 43V336c-17-1-30-7-44-15Z"/><path fill="#ed7324" d="M227 142 226 0c-47 2-89 17-125 42l82 115c13-8 28-13 44-15Z"/><path fill="#fbbc05" d="M368 40C331 15 288 1 241 0l-1 141c16 2 32 6 45 14z"/><path fill="#0f1e2a" d="M146 276 13 320c16 44 42 81 78 109l83-115a97 97 0 0 1-28-38Z"/><path fill="#df5216" d="M173 164 91 50a239 239 0 0 0-78 109l133 44c6-15 15-28 27-39z"/><path fill="#d53c0d" d="M141 240c-1-9 0-17 2-25L10 172a236 236 0 0 0-1 133l135-42c-2-8-3-15-3-23z"/><path fill="#378a9b" d="m297 316 83 115c36-28 64-65 80-109l-134-44c-6 15-17 28-29 38z"/><path fill="#1d77b2" d="M240 337v143c47-1 91-16 128-41l-84-115c-13 8-28 12-44 13z"/><path fill="#539e82" d="m464 171-160 49c2 8 3 12 2 19 0 7 0 11-2 18l161 50a243 243 0 0 0-1-136z"/></svg>