<svg xmlns="http://www.w3.org/2000/svg" width="512" height="512"><g fill="none" fill-rule="nonzero"><path fill="#104A70" d="M202.496 337 120 452.01c36.643 24.942 78.534 40.855 126 42.99V352.419c-16.516-1.812-30.152-7.042-43.504-15.419Z"/><path fill="#ED7324" d="M246 158.036 245.046 16C198.159 18.253 156.493 33.31 120 58.315L202.329 173c13.062-8.136 27.431-13.34 43.671-14.964Z"/><path fill="#FBBC05" d="M387 55.59C350.321 30.544 307.27 17.404 259.9 16l-.9 141.405c16.275 1.176 31.708 5.46 44.859 13.595L387 55.59Z"/><path fill="#0F1E2A" d="M165.4 292 32 336.353C47.587 380.148 74.183 417.021 109.863 445L193 330.157c-11.968-10.24-21.532-23.286-27.6-38.157Z"/><path fill="#DF5216" d="M192 180.245 109.637 66c-24.032 18.889-43.635 41.878-59.149 68.532-7.559 12.986-13.389 26.272-18.488 40.659L165.007 219c6.03-14.935 15.035-28.45 26.993-38.755Z"/><path fill="#D53C0D" d="M159.69 255.584c-.192-8.253.704-17.018 2.5-24.496L28.639 188C22.45 209.372 19 231.137 19 254.5c0 23.499 2.684 45.026 8.928 66.5L163 278.541c-1.852-7.592-3.118-14.703-3.31-22.957Z"/><path fill="#378A9B" d="M316 332.315 399.375 447c35.717-28.045 64.086-65.354 79.625-109.186L344.969 294c-6.287 14.79-16.63 28.22-28.969 38.315Z"/><path fill="#1D77B2" d="M259 352.91V496c47.212-1.467 91.478-15.505 128-40.565L303.493 340c-13.254 8.05-28.268 11.906-44.493 12.91Z"/><path fill="#539E82" d="M482.934 187 323 236.441c1.788 7.815 2.503 11.665 2.48 18.555-.023 6.89-.863 10.54-2.48 18.38L483.5 323c6.281-21.488 9.5-44.524 9.5-68 .012-23.601-3.511-46.04-10.066-68Z"/></g></svg>