<svg xmlns="http://www.w3.org/2000/svg" width="24.299" height="24.299" viewBox="27.74 5.25 24.299 24.299"><path fill="#72ef36" d="M46.821 11.914a.707.707 0 01-.337-.606c-.336-3.366-3.163-6.058-6.596-6.058-3.433 0-6.327 2.625-6.596 6.058a.806.806 0 01-.336.606c-1.683 1.211-2.827 3.164-2.827 5.384 0 3.029 2.087 5.654 4.914 6.395.471.135 1.01.202 1.144.067.337-.202.808-1.885.606-2.221-.135-.203-.539-.404-1.077-.539-1.683-.471-2.895-1.952-2.895-3.769 0-1.01.404-1.885 1.01-2.625a2.964 2.964 0 011.01-.808c.74-.404 1.144-1.144 1.144-1.952 0-.404.067-.808.202-1.211.54-1.548 1.952-2.692 3.702-2.692s3.164 1.144 3.702 2.692c.134.404.202.808.202 1.211 0 .808.403 1.548 1.144 1.952.404.202.673.471 1.01.808a3.967 3.967 0 011.01 2.625 3.907 3.907 0 01-3.903 3.904c-2.49 0-4.443 2.02-4.443 4.51v2.558c0 .471.067 1.009.202 1.144.27.27 2.02.27 2.288 0 .135-.135.203-.673.203-1.144v-2.625c0-.942.807-1.75 1.75-1.75 3.634 0 6.596-2.962 6.596-6.596-.002-2.155-1.147-4.107-2.829-5.318z"/></svg>