<svg xmlns="http://www.w3.org/2000/svg" width="22.42" height="22.42" fill="none"><path d="M18.98 13.842V.309h-3.67v.906A7.652 7.652 0 0011.166 0c-4.262 0-7.73 3.484-7.73 7.767s3.468 7.767 7.73 7.767a7.656 7.656 0 004.104-1.185c0 .119-.006.226-.006.298 0 2.251-1.826 4.086-4.067 4.086a4.044 4.044 0 01-2.152-.626L7.229 21.3a7.656 7.656 0 003.973 1.12c4.263 0 7.779-3.485 7.779-7.768 0-.166.01-.655 0-.81zm-7.814-1.99c-2.24 0-4.067-1.834-4.067-4.085 0-2.252 1.826-4.086 4.067-4.086 2.24 0 4.067 1.834 4.067 4.086 0 2.251-1.826 4.086-4.067 4.086z" fill="#f45d48"/></svg>