<svg xmlns="http://www.w3.org/2000/svg" viewBox="-84.5 289.4 1000.1 1000.1" width="1000.1" height="1000.1"><g fill="#0a493e"><path d="M292.6 1065.95c-.3-1.2-.4-2.4-.7-3.4-28.1-84.2-56.2-168.5-84.2-252.7-22.6-67.2-45-134.6-67.4-201.9-.3-1-.7-2.2-1-3.6H201c30.6 91.7 61.2 183.5 91.8 275.4h.6c40.8-122.3 81.5-244.6 122.3-366.9h.7c13.6 40.6 27 81.2 40.6 121.9 13.6 40.9 27.2 81.7 40.9 122.6 13.6 40.8 27.2 81.5 40.8 122.2h.6c.2 0 .3-.1.3-.1.1-.1.3-.4.3-.6 30.5-91.4 60.9-182.6 91.4-274.2H693c-51.2 153.4-102.3 306.7-153.5 460.1-.3 0-.4 0-.7.1-6.9-20.2-13.6-40.5-20.3-60.8-6.9-20.5-13.6-40.9-20.5-61.5-6.7-20.3-13.6-40.8-20.5-61.1-6.7-20.3-13.6-40.8-20.3-61.1-6.9-20.5-13.7-40.9-20.5-61.4-6.7-20.3-13.6-40.6-20.9-60.9-.4 1.3-.9 2.7-1.3 3.9-25.2 75.9-50.6 151.7-75.9 227.6-14.9 45-30 89.9-45 134.9-.1.6-.1 1.2-.3 1.6-.3-.1-.6-.1-.7-.1zM915.5 825.85c-.3 2.1-.6 4.2-1 6.3-3.9 19-13.1 34.9-27.3 47.9-.9.9-1.9 1.8-3 2.7 10 30.2 20 60.2 30.2 90.5h-61.7c-7.8-23.4-15.7-47-23.6-70.6h-74.7v70.6h-58.5v-246.1c1.3 0 2.5-.1 3.6-.1 42.9 0 85.7-.1 128.6 0 41.1.1 75.9 27.3 85.7 67.2.7 3.1 1.2 6.3 1.8 9.4-.1 7.4-.1 14.8-.1 22.2zm-161.3 18.3h72.3c1.6 0 3.3-.1 4.9-.3 18.8-1.9 30.8-20.9 24.5-38.7-4-11.5-14.9-19.4-27.3-19.6-23.9-.1-47.8 0-71.7 0h-2.7v58.6zM-84.5 840.85c.7-3.6 1.3-7.2 2.1-10.8 7.2-41.4 29-72.7 65.1-93.8 22-12.7 45.8-17.9 71.1-16.7 24 1.2 46.1 8.7 66.2 22 1.3.9 2.5 1.8 3.9 2.8-6.7 20.2-13.4 40.2-20.3 60.8-1-1.2-1.9-1.9-2.7-2.8-11.2-12.4-24.9-20.2-41.4-23.1-36.6-6.6-72.4 16-82.3 51.8-11.5 41.4 15.4 83.6 57.9 90.7 21.2 3.4 40.2-1.9 57.2-14.9 1.6-1.2 2.4-2.7 2.4-4.8-.1-5.1 0-10.3 0-15.4 0-.9-.1-1.9-.1-3.1H47.1v-57.9c.1 0 .1-.1.3-.3.1-.1.1-.1.3-.1.4-.1.9-.1 1.3-.1h102.4c.3 0 .6.1 1.2.3.1.9.3 1.8.3 2.7v97.5c0 1.5 0 2.7-1 4-11.4 13.7-24 25.8-39.7 34.6-23.3 13.1-48.2 18.8-75 17-55.9-3.9-104.4-44.2-117.7-100.4-1.2-4.9-1.8-10.2-2.7-15.1-.3-1.6-.9-3.4-1.3-5.1v-19.8z"/></g></svg>