<svg xmlns="http://www.w3.org/2000/svg" viewBox="0 0 63.5 63.5"><defs><clipPath id="a" clipPathUnits="userSpaceOnUse"><path d="M10.58 2.23H63.5v52.92c0 5.86-4.72 10.58-10.58 10.58H10.58A10.56 10.56 0 0 1 0 55.15V12.8C0 6.95 4.76 1.58 10.58 2.23"/></clipPath></defs><g clip-path="url(#a)" transform="translate(0 -2.23)"><path fill="#84b8fe" d="M0 33.98V2.23h63.5"/><path fill="#5992ff" d="m0 2.23 31.75 63.5H0V2.23"/><path fill="#1d5cfe" d="m0 65.73 63.5-31.75v31.75H0"/><path fill="#1751f5" d="M46.57 42.45 58.2 65.73h5.29L51.33 40.06"/><path fill="#5288f6" d="M0 60.97v4.76l25.4-12.7-1.85-3.7"/><path fill="#002ab5" d="M63.5 65.73 45.77 30H63.5v35.7"/></g></svg>
