<svg xmlns="http://www.w3.org/2000/svg" viewBox="0 0 86 90"><defs><linearGradient id="A" x1="97.956%" x2="2.383%" y1="0%" y2="100%"><stop offset="0%" stop-color="#e43f81"/><stop offset="100%" stop-color="#4a63d4"/></linearGradient></defs><path fill="url(#A)" d="M47.483 86.179a1.91 1.91 0 1 1 0 3.821 1.91 1.91 0 1 1 0-3.821zm-9.738-.489a1.91 1.91 0 1 1 0 3.821 1.91 1.91 0 1 1 0-3.821zm19.201-1.173a1.91 1.91 0 1 1 0 3.821 1.91 1.91 0 1 1 0-3.821zm-28.273-1.359a1.91 1.91 0 1 1 0 3.821 1.91 1.91 0 1 1 0-3.821zm36.902-2.248a1.91 1.91 0 1 1 0 3.821 1.91 1.91 0 1 1 0-3.821zm-45.042-2.097a1.91 1.91 0 1 1 0 3.821 1.91 1.91 0 1 1 0-3.821zm26.791-3.261c1.334 0 2.415 1.082 2.415 2.417s-1.081 2.417-2.415 2.417-2.415-1.082-2.415-2.417 1.081-2.417 2.415-2.417zm-10.209-.817c1.334 0 2.415 1.082 2.415 2.417s-1.081 2.417-2.415 2.417-2.415-1.082-2.415-2.417 1.081-2.417 2.415-2.417zm36.023.871a1.91 1.91 0 1 1 0 3.821 1.91 1.91 0 1 1 0-3.821zm-16.05-2.31c1.334 0 2.415 1.082 2.415 2.417s-1.081 2.417-2.415 2.417-2.415-1.082-2.415-2.417 1.081-2.417 2.415-2.417zm-43.542-.418a1.91 1.91 0 1 1 0 3.821 1.91 1.91 0 1 1 0-3.821zm14.493-1.804c1.331-.002 2.413 1.075 2.418 2.408a2.42 2.42 0 0 1-.707 1.718c-.455.455-1.073.71-1.716.708-1.331-.005-2.407-1.087-2.406-2.42s1.08-2.412 2.412-2.414zm37.411-2.701c1.334 0 2.415 1.082 2.415 2.417s-1.081 2.417-2.415 2.417-2.415-1.082-2.415-2.417 1.081-2.417 2.415-2.417zm13.937.471a1.91 1.91 0 1 1 0 3.821 1.91 1.91 0 1 1 0-3.821zm-58.854-3.847c1.334 0 2.415 1.082 2.415 2.417s-1.081 2.417-2.415 2.417-2.415-1.082-2.415-2.417 1.081-2.417 2.415-2.417zm-12.579.613a1.91 1.91 0 1 1 0 3.821 1.91 1.91 0 1 1 0-3.821zm35.037-1.684c.947.434 1.539 1.397 1.501 2.439-.053 1.42-1.244 2.529-2.663 2.479-1.041-.037-1.957-.698-2.321-1.675a2.58 2.58 0 0 1 .659-2.787c.763-.71 1.878-.89 2.825-.456zm8.795-.752c.947.437 1.537 1.402 1.494 2.445-.058 1.416-1.248 2.52-2.663 2.47-1.042-.037-1.959-.699-2.322-1.677a2.58 2.58 0 0 1 .663-2.788c.765-.709 1.881-.887 2.828-.45zm20.251-1.891c1.334 0 2.415 1.082 2.415 2.417s-1.081 2.417-2.415 2.417-2.415-1.082-2.415-2.417 1.081-2.417 2.415-2.417zm-37.319-.235c.947.434 1.539 1.397 1.501 2.439-.053 1.42-1.244 2.529-2.663 2.479-1.041-.037-1.957-.698-2.321-1.675a2.58 2.58 0 0 1 .659-2.787c.763-.71 1.878-.89 2.825-.456zm49.374-.191a1.91 1.91 0 1 1 0 3.821 1.91 1.91 0 1 1 0-3.821zM59.351 58.63c.947.434 1.539 1.397 1.501 2.439-.053 1.42-1.244 2.529-2.663 2.479-1.041-.037-1.957-.698-2.321-1.675a2.58 2.58 0 0 1 .659-2.787c.763-.71 1.878-.89 2.825-.456zm-44.269-1.595c1.334 0 2.415 1.082 2.415 2.417s-1.081 2.417-2.415 2.417-2.415-1.082-2.415-2.417 1.081-2.417 2.415-2.417zm-11.087.187a1.91 1.91 0 1 1 0 3.821 1.91 1.91 0 1 1 0-3.821zm24.447-1.968c.947.434 1.539 1.397 1.501 2.439-.053 1.42-1.244 2.529-2.663 2.479-1.041-.037-1.957-.698-2.321-1.675a2.58 2.58 0 0 1 .659-2.787c.763-.71 1.878-.89 2.825-.456zm-16.289-7.682c1.334 0 2.415 1.082 2.415 2.417s-1.081 2.417-2.415 2.417-2.415-1.082-2.415-2.417 1.081-2.417 2.415-2.417zm12.747-.209c.947.434 1.539 1.397 1.501 2.439-.053 1.42-1.244 2.529-2.663 2.479-1.041-.037-1.957-.698-2.321-1.675a2.58 2.58 0 0 1 .659-2.787c.763-.71 1.878-.89 2.825-.456zm-22.991.608a1.91 1.91 0 1 1 0 3.821 1.91 1.91 0 1 1 0-3.821zm22.964-9.609c.947.434 1.539 1.397 1.501 2.439-.053 1.42-1.244 2.529-2.663 2.479-1.041-.037-1.957-.698-2.321-1.675a2.58 2.58 0 0 1 .659-2.787c.763-.71 1.878-.89 2.825-.456zm-12.685-1.018c1.334 0 2.415 1.082 2.415 2.417a2.42 2.42 0 0 1-.707 1.709c-.453.453-1.067.708-1.707.708-1.334 0-2.415-1.082-2.415-2.417s1.081-2.417 2.415-2.417zm-10.28.862a1.91 1.91 0 1 1 0 3.821 1.91 1.91 0 1 1 0-3.821zm26.471-7.806c.947.434 1.539 1.397 1.501 2.439-.053 1.42-1.244 2.529-2.663 2.479-1.041-.037-1.957-.698-2.321-1.675a2.58 2.58 0 0 1 .659-2.787c.763-.71 1.878-.89 2.825-.456zM3.995 28.957a1.91 1.91 0 1 1 0 3.821 1.91 1.91 0 1 1 0-3.821zm11.194-1.031c1.334 0 2.415 1.082 2.415 2.417s-1.081 2.417-2.415 2.417-2.415-1.082-2.415-2.417 1.081-2.417 2.415-2.417zm44.163-1.488c.947.434 1.539 1.397 1.501 2.439-.053 1.42-1.244 2.529-2.663 2.479-1.041-.037-1.957-.698-2.321-1.675a2.58 2.58 0 0 1 .659-2.787c.763-.71 1.878-.89 2.825-.456zm-24.714-1.857c.947.434 1.539 1.397 1.501 2.439-.053 1.42-1.244 2.529-2.663 2.479-1.041-.037-1.957-.698-2.321-1.675a2.58 2.58 0 0 1 .659-2.787c.763-.71 1.878-.89 2.825-.456zm49.454.742a1.91 1.91 0 1 1 0 3.821 1.91 1.91 0 1 1 0-3.821zm-11.913-1.226c1.334 0 2.415 1.082 2.415 2.417s-1.081 2.417-2.415 2.417-2.415-1.082-2.415-2.417 1.081-2.417 2.415-2.417zm-20.4-1.737c.947.434 1.539 1.397 1.501 2.439-.053 1.42-1.244 2.529-2.663 2.479-1.041-.037-1.957-.698-2.321-1.675a2.58 2.58 0 0 1 .659-2.787c.763-.71 1.878-.89 2.825-.456zm-8.948-.684c.947.434 1.539 1.397 1.501 2.439-.053 1.42-1.244 2.529-2.663 2.479-1.041-.037-1.957-.698-2.321-1.675a2.58 2.58 0 0 1 .659-2.787c.763-.71 1.878-.89 2.825-.456zm-22.139-1.693c1.334 0 2.415 1.082 2.415 2.417s-1.081 2.417-2.415 2.417-2.415-1.082-2.415-2.417 1.081-2.417 2.415-2.417zm-12.738.586a1.91 1.91 0 1 1 0 3.821 1.91 1.91 0 1 1 0-3.821zm57.7-3.616c1.334 0 2.415 1.082 2.415 2.417s-1.081 2.417-2.415 2.417-2.415-1.082-2.415-2.417 1.081-2.417 2.415-2.417zm13.733.382a1.91 1.91 0 1 1 0 3.821 1.91 1.91 0 1 1 0-3.821zm-49.102-2.298a2.43 2.43 0 0 1-.316 3.062c-.455.453-1.072.705-1.713.702-1.157-.004-2.149-.825-2.37-1.961s.39-2.271 1.461-2.709a2.42 2.42 0 0 1 2.939.907zm-16.739-1.745a1.91 1.91 0 1 1 0 3.821 1.91 1.91 0 1 1 0-3.821zm43.737-1.324c1.334 0 2.415 1.082 2.415 2.417s-1.081 2.417-2.415 2.417-2.415-1.082-2.415-2.417 1.081-2.417 2.415-2.417zm-19.911-1.599c1.334 0 2.415 1.082 2.415 2.417s-1.081 2.417-2.415 2.417-2.415-1.082-2.415-2.417 1.081-2.417 2.415-2.417zm10.206-.729c1.331.003 2.409 1.084 2.409 2.417a2.42 2.42 0 0 1-.713 1.715c-.457.454-1.075.706-1.719.702-1.331-.01-2.403-1.096-2.397-2.429s1.089-2.408 2.42-2.405zm25.56.924a1.91 1.91 0 1 1 0 3.821 1.91 1.91 0 1 1 0-3.821zM20.532 7.366a1.91 1.91 0 1 1 0 3.821 1.91 1.91 0 1 1 0-3.821zM65.574 5.26a1.91 1.91 0 0 1 0 3.821 1.91 1.91 0 0 1 0-3.821zM28.673 3.021a1.91 1.91 0 0 1 0 3.821 1.91 1.91 0 0 1 0-3.821zm28.273-1.368a1.91 1.91 0 1 1 0 3.821 1.91 1.91 0 1 1 0-3.821zM37.745.48a1.91 1.91 0 1 1 0 3.821 1.91 1.91 0 1 1 0-3.821zM47.483 0a1.91 1.91 0 1 1 0 3.821 1.91 1.91 0 1 1 0-3.821z"/></svg>