<svg xmlns="http://www.w3.org/2000/svg" viewBox="0 0 86 90"><defs><linearGradient id="a" x1="97.956%" x2="2.383%" y1="0%" y2="100%"><stop offset="0%" stop-color="#e43f81"/><stop offset="100%" stop-color="#4a63d4"/></linearGradient></defs><path fill="url(#a)" d="M47.483 86.179a1.91 1.91 0 1 1 0 3.821 1.91 1.91 0 1 1 0-3.821zm-9.738-.489a1.91 1.91 0 1 1 0 3.821 1.91 1.91 0 1 1 0-3.821zm19.201-1.173a1.91 1.91 0 1 1 0 3.821 1.91 1.91 0 1 1 0-3.821zm-28.273-1.359a1.91 1.91 0 1 1 0 3.821 1.91 1.91 0 1 1 0-3.821zm36.902-2.248a1.91 1.91 0 1 1 0 3.821 1.91 1.91 0 1 1 0-3.821zm-45.042-2.097a1.91 1.91 0 1 1 0 3.821 1.91 1.91 0 1 1 0-3.821zm26.791-3.261c1.334 0 2.415 1.082 2.415 2.417a2.416 2.416 0 1 1-2.415-2.417zm-10.209-.817c1.334 0 2.415 1.082 2.415 2.417a2.416 2.416 0 1 1-2.415-2.417zm36.023.871a1.91 1.91 0 1 1 0 3.821 1.91 1.91 0 1 1 0-3.821zm-16.05-2.31c1.334 0 2.415 1.082 2.415 2.417a2.416 2.416 0 1 1-2.415-2.417zm-43.542-.418a1.91 1.91 0 1 1 0 3.821 1.91 1.91 0 1 1 0-3.821zm14.493-1.804a2.416 2.416 0 0 1 2.418 2.408 2.42 2.42 0 0 1-.707 1.718 2.416 2.416 0 1 1-1.71-4.126zm37.411-2.701c1.334 0 2.415 1.082 2.415 2.417a2.416 2.416 0 1 1-2.415-2.417zm13.937.471a1.91 1.91 0 1 1 0 3.821 1.91 1.91 0 1 1 0-3.821zm-58.854-3.847c1.334 0 2.415 1.082 2.415 2.417a2.416 2.416 0 1 1-2.415-2.417zm-12.579.613a1.91 1.91 0 1 1 0 3.821 1.91 1.91 0 1 1 0-3.821zm35.037-1.684a2.579 2.579 0 0 1 1.501 2.439 2.575 2.575 0 0 1-4.984.804 2.58 2.58 0 0 1 .659-2.787 2.573 2.573 0 0 1 2.825-.456zm8.795-.752a2.576 2.576 0 0 1-1.169 4.915 2.574 2.574 0 0 1-2.322-1.677 2.58 2.58 0 0 1 .663-2.788 2.573 2.573 0 0 1 2.828-.45zm20.251-1.891c1.334 0 2.415 1.082 2.415 2.417a2.416 2.416 0 1 1-2.415-2.417zm-37.319-.235a2.579 2.579 0 0 1 1.501 2.439 2.575 2.575 0 0 1-4.984.804 2.58 2.58 0 0 1 .659-2.787 2.573 2.573 0 0 1 2.825-.456zm49.374-.191a1.91 1.91 0 1 1 0 3.821 1.91 1.91 0 1 1 0-3.821zM59.351 58.63a2.579 2.579 0 0 1 1.501 2.439 2.575 2.575 0 0 1-4.984.804 2.58 2.58 0 0 1 .659-2.787 2.573 2.573 0 0 1 2.825-.456zm-44.269-1.595c1.334 0 2.415 1.082 2.415 2.417a2.416 2.416 0 1 1-2.415-2.417zm-11.087.187a1.91 1.91 0 1 1 0 3.821 1.91 1.91 0 1 1 0-3.821zm24.447-1.968a2.579 2.579 0 0 1 1.501 2.439 2.575 2.575 0 0 1-4.984.804 2.58 2.58 0 0 1 .659-2.787 2.573 2.573 0 0 1 2.825-.456zm-16.289-7.682c1.334 0 2.415 1.082 2.415 2.417a2.416 2.416 0 1 1-2.415-2.417zm12.747-.209a2.579 2.579 0 0 1 1.501 2.439 2.575 2.575 0 0 1-4.984.804 2.58 2.58 0 0 1 .659-2.787 2.573 2.573 0 0 1 2.825-.456zm-22.991.608a1.91 1.91 0 1 1 0 3.821 1.91 1.91 0 1 1 0-3.821zm22.964-9.609a2.579 2.579 0 0 1 1.501 2.439 2.575 2.575 0 0 1-4.984.804 2.58 2.58 0 0 1 .659-2.787 2.573 2.573 0 0 1 2.825-.456zm-12.685-1.018a2.416 2.416 0 0 1 2.415 2.417 2.42 2.42 0 0 1-.707 1.709 2.415 2.415 0 0 1-4.122-1.709 2.416 2.416 0 0 1 2.415-2.417zm-10.28.862a1.91 1.91 0 1 1 0 3.821 1.91 1.91 0 1 1 0-3.821zM28.379 30.4a2.579 2.579 0 0 1 1.501 2.439 2.575 2.575 0 0 1-4.984.804 2.58 2.58 0 0 1 .659-2.787 2.573 2.573 0 0 1 2.825-.456zM3.995 28.957a1.91 1.91 0 1 1 0 3.821 1.91 1.91 0 1 1 0-3.821zm11.194-1.031c1.334 0 2.415 1.082 2.415 2.417a2.416 2.416 0 1 1-2.415-2.417zm44.163-1.488a2.579 2.579 0 0 1 1.501 2.439 2.575 2.575 0 0 1-4.984.804 2.58 2.58 0 0 1 .659-2.787 2.573 2.573 0 0 1 2.825-.456zm-24.714-1.857a2.579 2.579 0 0 1 1.501 2.439 2.575 2.575 0 0 1-4.984.804 2.58 2.58 0 0 1 .659-2.787 2.573 2.573 0 0 1 2.825-.456zm49.454.742a1.91 1.91 0 1 1 0 3.821 1.91 1.91 0 1 1 0-3.821zm-11.913-1.226c1.334 0 2.415 1.082 2.415 2.417a2.416 2.416 0 1 1-2.415-2.417zm-20.4-1.737a2.579 2.579 0 0 1 1.501 2.439 2.575 2.575 0 0 1-4.984.804 2.58 2.58 0 0 1 .659-2.787 2.573 2.573 0 0 1 2.825-.456zm-8.948-.684a2.579 2.579 0 0 1 1.501 2.439 2.575 2.575 0 0 1-4.984.804 2.58 2.58 0 0 1 .659-2.787 2.573 2.573 0 0 1 2.825-.456zm-22.139-1.693c1.334 0 2.415 1.082 2.415 2.417a2.416 2.416 0 1 1-2.415-2.417zm-12.738.586a1.91 1.91 0 1 1 0 3.821 1.91 1.91 0 1 1 0-3.821zm57.7-3.616c1.334 0 2.415 1.082 2.415 2.417a2.416 2.416 0 1 1-2.415-2.417zm13.733.382a1.91 1.91 0 1 1 0 3.821 1.91 1.91 0 1 1 0-3.821zm-49.102-2.298a2.43 2.43 0 0 1-.316 3.062 2.423 2.423 0 0 1-4.083-1.259 2.426 2.426 0 0 1 1.461-2.709 2.42 2.42 0 0 1 2.939.907zm-16.739-1.745a1.91 1.91 0 1 1 0 3.821 1.91 1.91 0 1 1 0-3.821zm43.737-1.324c1.334 0 2.415 1.082 2.415 2.417a2.416 2.416 0 1 1-2.415-2.417zm-19.911-1.599c1.334 0 2.415 1.082 2.415 2.417a2.416 2.416 0 1 1-2.415-2.417zm10.206-.729a2.416 2.416 0 0 1 2.409 2.417 2.42 2.42 0 0 1-.713 1.715 2.416 2.416 0 1 1-1.696-4.132zm25.56.924a1.91 1.91 0 1 1 0 3.821 1.91 1.91 0 1 1 0-3.821zM20.532 7.366a1.91 1.91 0 1 1 0 3.821 1.91 1.91 0 1 1 0-3.821zM65.574 5.26a1.91 1.91 0 0 1 0 3.821 1.91 1.91 0 0 1 0-3.821zM28.673 3.021a1.91 1.91 0 0 1 0 3.821 1.91 1.91 0 0 1 0-3.821zm28.273-1.368a1.91 1.91 0 1 1 0 3.821 1.91 1.91 0 1 1 0-3.821zM37.745.48a1.91 1.91 0 1 1 0 3.821 1.91 1.91 0 1 1 0-3.821zM47.483 0a1.91 1.91 0 1 1 0 3.821 1.91 1.91 0 1 1 0-3.821z"/></svg>
