<?xml version="1.0" encoding="UTF-8"?>
<svg version="1.1" viewBox="0 0 90 90" xmlns="http://www.w3.org/2000/svg">
<title>falcon</title>
<g fill-rule="evenodd">
<rect width="90" height="90" fill="#fff"/>
<g transform="translate(0 18)" fill-rule="nonzero">
<path d="m87.949 54.199c-8.6867-1.9082-16.419-7.4051-22.443-15.38-1.2959 0.5981-5.7959 3.3608-18.641 2.5206-14.995-0.9826-23.682-13.03-23.682-13.03 17.103 1.9794 34.761 0.37025 37.381 0.11392-0.35601-1.481-0.81171-3.0047-0.99684-4.557-4.7848 0.085443-25.932 0.29905-38.634-3.3323-14.226-4.0585-20.877-20.464-20.877-20.464 24.978 1.3244 62.017 7.6187 73.866 10.025 2.1076 0.42722 3.731 2.1646 3.7168 4.3149-0.11392 19.509 6.0807 30.816 11.805 37.851 0.95411 1.1962 0.56962 2.4778-1.4953 1.9367z"/>
</g>
</g>
</svg>
