<?xml version="1.0" encoding="UTF-8"?>
<svg version="1.1" viewBox="0 0 30 30" xmlns="http://www.w3.org/2000/svg">
<title>huobi</title>
<g fill="none" fill-rule="evenodd">
<rect id="a" width="30" height="30" fill="#787878" opacity=".01"/>
<rect width="30" height="30" fill="#fff" opacity="0"/>
<g transform="translate(5.5)" fill-rule="nonzero">
<path d="m12.859 9.2998c0-4.2575-2.0749-7.9188-3.6532-9.111-0.006503-0.00375-0.12081-0.068-0.11105 0.10225l-0.002251 0.00525c-0.13106 8.2202-4.3325 10.448-6.6423 13.45-5.3304 6.926-0.37317 14.52 4.6749 15.923 2.8245 0.78525-0.6523-1.3895-1.1-5.983-0.5415-5.552 6.8339-9.79 6.8339-14.386" fill="#D7E2F2"/>
<path d="m15.281 12.098c-0.032265-0.022-0.078286-0.037-0.11005 0.0155-0.08679 1.0348-1.1443 3.2482-2.4846 5.2808-4.5461 6.8942-1.9554 10.218-0.49873 12.003 0.84589 1.0362 0 0 2.1142-1.059 0.16558-0.083 4.1251-2.3025 4.5538-7.3595 0.41519-4.897-2.5274-7.9838-3.5746-8.8805" fill="#357CE1"/>
</g>
</g>
</svg>
