<svg xmlns="http://www.w3.org/2000/svg" viewBox="0 0 30 30" width="32" height="32" xmlns:xlink="http://www.w3.org/1999/xlink" id="svg_resize"><path fill="#787878" opacity=".01" d="M0 0h30v30H0z"></path><path fill="#fff" opacity="0" d="M0 0h30v30H0z"></path><g><path d="M18.359 9.3c0-4.257-2.075-7.919-3.653-9.111-.007-.004-.121-.068-.111.102l-.002.005c-.131 8.22-4.332 10.448-6.642 13.449-5.33 6.926-.373 14.52 4.675 15.923 2.825.785-.652-1.389-1.1-5.983-.541-5.552 6.834-9.79 6.834-14.386" fill="#d7e2f2"></path><path d="M20.781 12.099c-.032-.022-.078-.037-.11.016-.087 1.035-1.144 3.248-2.485 5.281-4.546 6.894-1.955 10.218-.499 12.003.846 1.036 0 0 2.114-1.059.166-.083 4.125-2.302 4.554-7.36.415-4.897-2.527-7.984-3.575-8.88" fill="#357ce1"></path></g></svg>