<svg xmlns="http://www.w3.org/2000/svg" viewBox="0 0 90 63"><path fill="#10cf78" d="M48.885 0l11.38 15.792.484.673.731 1.015.49.68.246.34.491.682.246.342.737 1.023 1.469 2.038c7.71 10.698 0 19.019 0 19.019L49.743 63H33.469l22.27-32.094L33.469 0zm19.702 42.064c4.472-7.753 8.943-2.35 9.34-1.84l.022.027.007.01L90 56.508H78.625l-10.038-13.54zM34.438 9.657v8.825h-21.56v6.569H32.88v8.43h-20v8.148h22.184v9.36H0V9.657h34.438zM90 5.957L77.956 22.204l-.007.01-.022.028c-.397.51-4.868 5.915-9.34-1.84v-.904l10.038-13.54H90z"/></svg>