<svg viewBox="0 0 90 90" xmlns="http://www.w3.org/2000/svg"><g><path d="M57.553 45.994L80.48 78.157a.714.714 0 01-.582 1.129h-13.46a10 10 0 01-8.143-4.195l-9.043-12.684a7.143 7.143 0 01.877-9.307l7.424-7.105zM24.705 7.143a10 10 0 018.143 4.195l4.637 6.504a7.143 7.143 0 010 8.293L31.022 35.2a.714.714 0 01-1.163 0L10.662 8.272a.714.714 0 01.582-1.129h13.46z" fill="#fff"/><path d="M70.751 0h17.678L5.83 88.953A3.276 3.276 0 013.43 90a.74.74 0 01-.605-1.167L62.584 4.23A10 10 0 0170.752 0z" fill="#00B2E6"/></g></svg>