<svg xmlns="http://www.w3.org/2000/svg" viewBox="0 0 90 86"><path fill="#b3d234" d="M24.926 11.3l4.767-5.015C4.476 5.467 11.816 23.837 3.6 42.505c-9.463 21.5 1.113 29.693 16.873 32.246-2.184-2.598-3.968-5.57-5.325-8.778C4.929 53.01 9.042 29.394 24.926 11.301"/><path fill="#0095d9" d="M85.605 34.203c-2.347 6.66-6.653 14.132-12.741 21.487-4.745 5.731-10.02 10.244-15.466 13.513-6.294 4.109-14.103 6.534-22.833 6.534-4.887 0-9.692-.274-14.093-.987 2.6 3.09 5.76 5.656 9.437 7.445 22.799 11.11 24.239-9.528 48.36-20 13.545-5.882 13.595-17.379 7.336-27.992"/><path fill="#eee809" d="M57.39 12.725c3.363.618 6.554 1.732 9.41 3.359 7.658 4.365 14.632 11.045 18.804 18.118 4.108-11.657 2.195-20.822-6.792-22.481-9.876-1.82-17.598-2.405-25.018-7.626-9.14-6.431-17.15-4.31-24.102 2.191l1.507.068c9.645.572 18.849 2.465 26.192 6.371"/><path fill="#51b849" d="M24.926 11.3C9.042 29.395 4.929 53.01 15.146 65.974c-4.588-10.852-4.269-24.387 2.198-35.193C25.952 16.39 43.218 10.118 57.39 12.727c-7.343-3.909-16.546-5.799-26.188-6.374a67.28 67.28 0 00-1.51-.068c-1.492 1.396-3.054 3.063-4.767 5.016"/><path fill="#00845d" d="M66.8 16.085c-2.857-1.63-6.047-2.741-9.41-3.359 9.67 5.143 16.103 13.786 16.031 27.552-.065 11.944-6.187 22.499-16.024 28.925 5.445-3.268 10.724-7.782 15.466-13.512 6.09-7.355 10.394-14.828 12.74-21.488C81.433 27.13 74.458 20.447 66.8 16.085"/><path fill="#005121" d="M55.8 62.658c-10.918 7.069-25.474 3.916-32.516-7.043s-3.56-25.072 7.014-32.648c11.824-8.47 26.989-5.128 32.516 7.044 5.39 11.868 3.9 25.579-7.014 32.647m1.591-49.933C43.218 10.12 25.951 16.39 17.344 30.78c-6.467 10.806-6.788 24.344-2.197 35.193 1.357 3.208 3.138 6.182 5.325 8.78 4.401.713 9.206.984 14.09.984 8.734 0 16.542-2.424 22.834-6.534 9.84-6.423 15.962-16.981 16.024-28.925.075-13.766-6.362-22.408-16.029-27.552"/></svg>