<svg xmlns="http://www.w3.org/2000/svg" viewBox="0 0 90 90"><path fill="#3E2284" d="M45 90c24.853 0 45-20.147 45-45S69.853 0 45 0 0 20.147 0 45s20.147 45 45 45zm16.24-21.45a28.443 28.443 0 01-16.276 5.086c-15.796 0-28.6-12.82-28.6-28.636 0-15.815 12.804-28.636 28.6-28.636 15.795 0 28.6 12.82 28.6 28.636 0 3.53-.638 6.912-1.805 10.035-4.527-1.643-9.572-2.135-14.191-1.025a15.59 15.59 0 002.921-9.112c0-8.642-6.997-15.648-15.628-15.648-8.63 0-15.627 7.006-15.627 15.648S36.23 60.545 44.86 60.545c1.99 0 3.893-.372 5.643-1.05 4.379 2.54 8.154 6.188 10.736 9.055zm14.891-3.884a37.01 37.01 0 01-7.477 8.55c-3.188-4.206-9.632-10.558-16.745-14.614 6.573-4.927 16.754-1.776 24.222 6.064z"/><g fill="#FFF" opacity=".15"><path d="M86.308 27.079C79.388 11.162 63.533.025 45.073 0 26.398.026 10.389 11.422 3.6 27.635a59.815 59.815 0 0013.778 9.79c3.318-12.14 14.416-21.061 27.595-21.061 13.078 0 24.106 8.785 27.517 20.78A59.842 59.842 0 0086.308 27.08z"/><path d="M60.229 41.967c-1.37-7.241-7.726-12.717-15.358-12.717-7.669 0-14.048 5.529-15.377 12.822a59.754 59.754 0 0015.171 1.946c5.384 0 10.602-.714 15.564-2.05z"/></g></svg>