<svg xmlns="http://www.w3.org/2000/svg" width="243.63" height="243.63"><path d="M121.82 16.314l-.06.1-14.59 119.55-6.05 49.61c3.48-.37 7-.64 10.51-.83l1.38-48.19 8.81-120.24zm.04.051l8.81 120.24 1.37 48.19c3.53.19 7 .46 10.52.83l-6-49.61-14.67-119.597-.03-.053zm.03.053l26.63 117.428 11.93 54.468c4.18.854 8.313 1.83 12.4 2.93l-18.31-62.85-32.456-111.488 39.406 106.408 26.95 72.9a198.463 198.463 0 0115 6.17l-34.56-79L122.47 17.427l-.03-.051-.378-.67-.141-.24-.03-.047zm.579 1.008l.05.088-.1-.2.05.112zm.05.088l50.75 101.431 45.801 91.52a196.6 196.6 0 0124.56 16.85l-60.89-105.51-60.22-104.291zm-.769-1.078l-.09.15-32.55 111.809-18.31 62.86a206.16 206.16 0 0112.44-2.94l11.91-54.46 26.6-117.42zm-.13.218l-.38.66-.11.25-60.22 104.24L0 227.315a196.6 196.6 0 0124.54-16.789l45.8-91.52 50.69-101.21-46.22 105.61-34.57 78.98c4.88-2.26 9.88-4.317 15-6.17l27-72.87 39.38-106.69z" fill="#e2be79" fill-opacity="1"/></svg>
