<svg xmlns="http://www.w3.org/2000/svg" width="73.775" height="73.775"><path d="M73.77 48.158v-8.1a4 4 0 00-3.2-4.12c3.25.14 3.2-3.84 3.2-3.84v-7.13a4.48 4.48 0 00-3.77-4.62H39.63v33.08h29.84c4.2 0 4.3-5.27 4.3-5.27zm-14.67-14.9h-5.9v-6.91h5.85c3.34 3.84.05 6.9.05 6.9zm0 13.49h-5.9v-6.9h5.85c3.34 3.84.05 6.9.05 6.9zm-25.36.38v-26.78H20.25v24.34a1.73 1.73 0 01-1.65 1.48c-.835.08-1.675.08-2.51 0a1.93 1.93 0 01-2.09-1.44v-7.12H0v10.32a5.56 5.56 0 004.44 5.42H30.3c3.84-.79 3.43-6.25 3.43-6.25z"/></svg>