<svg xmlns="http://www.w3.org/2000/svg" version="1.1" id="svg12757" width="67.288" height="67.288"><defs id="defs12739"><linearGradient id="linear-gradient" x1="29.86" y1="58.99" x2="29.86" y2=".05" gradientUnits="userSpaceOnUse"><stop offset="0" stop-color="#0056b3" id="stop12728"/><stop offset=".25" stop-color="#0056b3" id="stop12730"/><stop offset=".7" stop-color="#0088fb" id="stop12732"/><stop offset="1" stop-color="#00acff" id="stop12734"/></linearGradient><style id="style12737">.cls-3{fill:#0064c8;fill-rule:evenodd}</style></defs><g id="g13326" transform="translate(3.789 .001)"><path id="path12745" d="M14.93 42.25l14.91-8.61V16.42l-14.91 8.61zm14.91-8.61V16.42l14.91 8.61v17.22z" class="cls-3" fill="#0064c8" fill-rule="evenodd"/><path id="path12747" d="M58.91 16.85c-1.12-1.86-3-2.57-4.8-3.63L35.36 2.39C30-.73 30-.87 24.3 2.4l-9.38 5.41L44.75 25v17.25l-14.91 8.61-14.92-8.61V25L0 33.64v10.82C0 51 .12 50.92 5.53 54L24.3 64.88c5.41 3.12 5.41 3.27 11.06 0L54.14 54c5.41-3.12 5.52-3.06 5.52-9.58V22.79c0-2.12.34-4.07-.75-5.94z" fill="url(#linear-gradient)" fill-rule="evenodd"/><path id="path12749" d="M0 33.64v10.82C0 51 .12 50.92 5.53 54L24.3 64.88c5.41 3.12 5.41 3.27 11.06 0l-5.53-14-14.91-8.63V25z" fill="#0056b3" fill-rule="evenodd"/><path id="path12751" d="M58.9 16.86c-1.12-1.86-3-2.57-4.8-3.63L35.35 2.4c-5.4-3.12-5.41-3.26-11.06 0l-9.38 5.42L44.74 25v17.26l-14.92 8.61-14.91-8.61V25L0 33.65v10.83c0 6.52.11 6.46 5.52 9.58l18.77 10.83c5.41 3.12 5.41 3.27 11.06 0l18.77-10.83c5.41-3.12 5.52-3.06 5.52-9.58V22.8c.01-2.12.36-4.06-.74-5.94z" opacity=".3" fill="#0088fb" fill-rule="evenodd"/><path id="path12753" d="M14.92 42.25l14.91-8.61V16.42l-14.91 8.61zm14.91-8.61V16.42l14.92 8.61v17.22z" class="cls-3" fill="#0064c8" fill-rule="evenodd"/></g></svg>