<svg xmlns="http://www.w3.org/2000/svg" xmlns:xlink="http://www.w3.org/1999/xlink" viewBox="0 0 61.6 61.6"><defs><linearGradient id="a" x1="19.4" x2="19.4" y1="47.2" y2="27.8" gradientUnits="userSpaceOnUse"><stop offset="0" stop-color="#f8e800"/><stop offset="0.5" stop-color="#f8e800"/><stop offset="0.6" stop-color="#faeb1d"/><stop offset="0.7" stop-color="#fcee43"/><stop offset="0.8" stop-color="#fef15e"/><stop offset="0.9" stop-color="#fff26e"/><stop offset="1" stop-color="#fff374"/></linearGradient><linearGradient xlink:href="#a" id="c" x1="38" x2="38" y1="46.8" y2="27.8" gradientTransform="translate(-7.32 -6.68)"/><linearGradient xlink:href="#a" id="d" x1="56.6" x2="56.6" y1="46.8" y2="27.8" gradientTransform="translate(-7.32 -6.68)"/><linearGradient xlink:href="#a" id="b" x1="19.4" x2="19.4" y1="47.2" y2="27.8" gradientTransform="translate(-7.32 -6.68)" gradientUnits="userSpaceOnUse"/></defs><g style="isolation:isolate"><circle cx="30.8" cy="30.8" r="30.8" fill="#007e32"/><path d="M10.98 40.85c-4.81 0-7-2.69-7-6.84v-1.59h5.3v1.09c0 1.46 0 2.82 1.56 2.82h2.09c1.51 0 1.41-1.84 1.41-2.69V21.41h5.85v12.15c0 5.24-2.37 7.29-7.13 7.29zm11.7-19.44h15.71v4.91h-9.86v2.36h9v4.52h-9v2.37h10.15v4.87h-16Zm18.2 0h9.8c5.16 0 7 3.78 7 6.49 0 4.6-3.09 6.75-7.45 6.75h-3.5v5.75h-5.85Zm5.85 8.72h2.26c1.52 0 3.12-.1 3.12-2 0-1.73-1.34-1.83-2.77-1.83h-2.61z" class="d" style="mix-blend-mode:multiply"/><path fill="url(#b)" d="M10.98 40.54c-4.81 0-7-2.69-7-6.83v-1.6h5.3v1.09c0 1.46 0 2.82 1.56 2.82h2.09c1.51 0 1.41-1.84 1.41-2.69V21.1h5.85v12.15c0 5.24-2.37 7.29-7.13 7.29z"/><path fill="url(#c)" d="M22.68 21.1h15.71v4.87h-9.86v2.35h9v4.52h-9v2.38h10.15v4.87h-16z"/><path fill="url(#d)" d="M40.88 21.1h9.8c5.16 0 7 3.78 7 6.49 0 4.6-3.09 6.75-7.45 6.75h-3.5v5.75h-5.85zm5.85 8.72h2.26c1.52 0 3.12-.1 3.12-2 0-1.73-1.34-1.83-2.77-1.83h-2.61z"/></g></svg>