<svg xmlns="http://www.w3.org/2000/svg" width="464.67" height="464.67" viewBox="0 0 122.944 122.944"><g fill="#233d94"><path d="M3.996 40.713h4.738v4.74H3.996zm0 9.525h4.738v25.393c0 3.95-2.88 6.6-6.876 6.6H0v-4.463h1.347c1.626 0 2.65-.744 2.65-2.509zM31.213 63.806v-3.903c0-6.088-4.506-9.943-9.71-9.943-4.554 0-9.711 2.973-9.711 12.127 0 9.664 5.622 11.987 10.456 11.987 3.159 0 6.178-1.116 8.5-3.81l-3.438-2.926c-1.393 1.44-3.346 2.274-5.158 2.274-3.25 0-5.62-1.95-5.62-5.806zm-14.68-3.903c.092-3.577 2.183-5.482 4.97-5.482 2.788 0 4.832 1.905 4.972 5.482zM34.97 43.083h4.74v7.156h3.436v3.622H39.71V67.57c0 1.302.51 1.765 1.671 1.765h1.765v4.463h-2.461c-3.298 0-5.716-2.093-5.716-5.81V53.86H32.6V50.24h2.37zM58.433 45.175c3.625 0 5.344 2.184 5.344 4.738 0 2.604-1.72 4.738-5.344 4.738h-7.249v-9.476zM46.168 73.793h13.939c4.97 0 9.2-3.67 9.2-9.382 0-3.346-1.768-6.784-5.39-7.621v-.093c3.854-1.72 4.877-4.368 4.877-7.108 0-5.205-3.346-8.875-9.803-8.875H46.168zm12.73-14.678c3.715 0 5.389 2.367 5.389 4.971 0 2.602-1.674 4.97-5.389 4.97h-7.714v-9.941zM72.03 40.714h4.74v26.994c0 1.07.603 1.626 1.765 1.626h1.626v4.462H78.07c-3.436 0-6.04-1.488-6.04-5.716zM82.159 50.239h4.74V64.27c0 3.205 1.998 5.062 4.692 5.062 2.647 0 4.645-1.857 4.645-5.062V50.239h4.74v23.556h-4.74v-2.507h-.09c-1.49 1.856-3.625 2.785-6.088 2.785-3.717 0-7.9-2.832-7.9-8.176zM122.944 63.806v-3.903c0-6.088-4.507-9.943-9.71-9.943-4.554 0-9.711 2.973-9.711 12.127 0 9.664 5.622 11.987 10.453 11.987 3.162 0 6.18-1.116 8.503-3.81l-3.438-2.926c-1.393 1.44-3.346 2.274-5.156 2.274-3.254 0-5.622-1.95-5.622-5.806zm-14.681-3.903c.093-3.577 2.182-5.482 4.971-5.482 2.788 0 4.831 1.905 4.972 5.482z"/></g></svg>