<svg xmlns="http://www.w3.org/2000/svg" viewBox="0 0 149.6 137.17"><defs><linearGradient id="a" x1="16.95" x2="75.72" y1="45.82" y2="117.47" gradientUnits="userSpaceOnUse"><stop offset="0" stop-color="#fed586"/><stop offset="1" stop-color="#deb04e"/></linearGradient></defs><g fill="#4b0b00"><path d="M43.97 10.67s5.5-5.4 14.8 1.9 24.7 18.8 46.6 53.8c10.3 16.5 16.8 32.8 11.9 45.7-1.6 4.3-17.5 25.1-64.5 25.1-38 0-50.9-15.9-52.2-30.6 0 0-6.5-44.5 24.4-79.3a81.2 81.2 0 0 1 19-16.6z"/><path d="M43.97 10.67s-1.2-5 3.3-6.6 36.8-15.9 71.8 20.8a68 68 0 0 1 13.8 20.6 58.3 58.3 0 0 1 4.9 17.7c2.8 28-5 41.7-11.6 47.8 0 0-6 6.3-12.2-1s-70.7-94.5-70-99.3z"/><path d="M112.97 19.37s12-13.6 25-13.6c5.7 0 12.1 5.9 11.6 16.9 0 0 .8 4.2-6.7.5-4.2-2-16.4-.8-19.4 7.7z"/></g><path fill="#bd7031" d="M46.27 9.87a2.9 2.9 0 0 1 1.6-3.7 40.8 40.8 0 0 1 9.5-2.9c5.6-.9 7-1.2 17.6-.6 0 0 20.6-.5 46.1 28.3a23 23 0 0 1 2.6 3.5c4.7 7.1 13.6 23.5 11.8 43.3a60.9 60.9 0 0 1-4.3 19.8c-1.5 3.9-4.2 9-6.3 11.1s-3.8 3-5.8 1.3c0 0 2.8-7.4-1.3-18.6s-22.5-42.3-38.9-58.1-22.1-23.6-32.6-23.4z"/><path fill="url(#a)" d="M39.67 15.47s6.5-5.9 12.2-2a135.9 135.9 0 0 1 18.8 16.1 278.4 278.4 0 0 1 19.7 22.6c17.3 21.8 22.8 37.9 24.6 44.8s0 13.1-4.9 16.4-13.8 17.6-51.7 19.9-53.3-15.5-55.2-23c0 0-7.7-30.6 13-67.9.1 0 9.9-17.7 23.5-26.9z"/><path fill="#b06923" d="M75.37 107.87c22.7-15.1 27.1-27.4 29.1-32.3l.7-1.6c6.5 11.3 8.6 18.6 9.8 23.1 1.8 6.9.2 12.6-4.3 16.4s-14.5 17.6-52.3 19.9c-22 1.3-36.4-4.1-45-10.4 0 0 10.7 3.1 27.8-.4 11.3-2.3 26.5-9.6 34.2-14.7z"/><path fill="#bd7031" d="m115.57 20.27 6.3 6.7a17.7 17.7 0 0 1 17.7-7.1 29.2 29.2 0 0 1 5.2 1.5c1.3.6 2.3.8 2.2-.7s-1.8-9.7-6.9-12.1-18.1 4-24.5 11.7z"/><g fill="#652e09"><path d="M119.77 24.87a11.9 11.9 0 0 1 2.5-2.5c2.5-2.2 8.5-5.5 13.9-6h3a48.7 48.7 0 0 1 7 .5h.1a18.7 18.7 0 0 1 .9 3.9 1.4 1.4 0 0 1-.2 1l-.6.2a4.1 4.1 0 0 1-1.5-.5 29.3 29.3 0 0 0-5.2-1.5l-3.3-.3a17.6 17.6 0 0 0-14.3 7.4h-.1z"/><path d="M122.37 22.37a12 12 0 0 0-2.5 2.5l2 2.1a17.7 17.7 0 0 1 17.7-7.1 29.2 29.2 0 0 1 5.2 1.5c1.3.6 2.3.8 2.2-.7a18.7 18.7 0 0 0-.9-3.9 44.9 44.9 0 0 0-9.9-.4c-5.6.5-11.5 4-13.8 6zm-3.4 6.3zm0 0zm2 82.2a3.2 3.2 0 0 1-2.1-.8c0-.1 2.7-7.5-1.3-18.6-1.5-4.2-4.9-10.9-9.4-18.5l3.8-3.2c6.4-7.6 7.1-12.5 8.2-21.4a46.4 46.4 0 0 0-1.2-18.4c-.2-.9-.3-1.1-.2-1.2h.3l2.1 2.3a23 23 0 0 1 2.6 3.5c4.2 6.3 13.6 23 11.8 43.3a61.6 61.6 0 0 1-4.3 19.9c-1.6 4-4.2 9.1-6.3 11.2s-2.7 2.1-3.9 2.1z"/><path d="M123.57 34.37a23 23 0 0 0-2.6-3.5l-2-2.3c-1-1 3 6.8 1.3 19.5-1.2 9-1.8 13.9-8.2 21.5l-3.7 3.2c4.5 7.7 7.9 14.4 9.4 18.5 4.1 11.2 1.3 18.6 1.3 18.6 2 1.7 4.1.4 5.8-1.3s4.8-7.3 6.3-11.1a60.9 60.9 0 0 0 4.3-19.8c1.7-19.7-7.1-36.1-11.9-43.3z"/></g></svg>