<svg xmlns="http://www.w3.org/2000/svg" version="1.0" width="554.807" height="554.807" viewBox="0 0 416.105 416.105"><g fill="#ff4e50"><path d="M214.808.444c-30 3.4-59.9 19.4-78.9 42.4-7.8 9.4-17.3 26.2-20.5 36.1-2.6 8.3-2.7 8.5-5.3 7.7-4.9-1.3-26.3-.6-33.4 1.1-33.5 8.3-57.4 31.2-66 63.5-2.8 10.9-2.8 28.7.1 39.7 6.2 23.4 22.3 43.6 43.3 54.5 17.5 9.2 23.1 10 66.8 10h34.5l30.3-30.3 30.3-30.3 30.1 30.3 30.2 30.3h40.1c42.5 0 45.3-.3 54.5-5 19.3-9.9 32.8-31.1 36-56.4 3.5-28.1-9.2-57.9-30.8-72.2-6.4-4.3-19.1-8.4-25.8-8.4-4.4 0-4.4 0-4.4-3.6 0-9.7-6.3-32.2-12.6-44.6-19.2-38.2-57.7-63-100.9-65.1-5.5-.3-13.4-.1-17.6.3z"/><path d="M214.208 223.844c-.4.7-18.7 19.5-40.6 41.7l-39.9 40.3 4.4 1.2c10.7 2.8 54 14.1 71.3 18.5 10.5 2.7 19.7 5.2 20.7 5.6 1.7.9 1.9.6-36.2 57.3-9.1 13.4-17.1 25.4-17.8 26.7-1 1.8.5 1.2 6.7-2.9 4.4-2.9 38.1-25.1 75-49.3 36.9-24.2 67-44.3 67.1-44.6 0-.3-7.8-3-17.2-5.8-9.5-2.9-24-7.5-32.3-10.1-8.2-2.6-21.9-6.9-30.2-9.6-8.4-2.6-15.3-5-15.3-5.4 0-.6 23.7-20.2 29.4-24.3 1.7-1.3 1.5-1.7-3.5-6.4-3-2.7-9-8.1-13.4-12-4.4-3.9-11.8-10.5-16.5-14.7-8.7-7.8-10.3-8.6-11.7-6.2z"/></g></svg>