<svg width="86.8mm" height="86.8mm" viewBox="0 0 86.8 86.8" xmlns="http://www.w3.org/2000/svg"><defs><linearGradient id="a" x1="-365" x2="-365" y1="170" y2="148" gradientTransform="matrix(.265 0 0 .265 196 179)" gradientUnits="userSpaceOnUse"><stop stop-color="#165b96" offset="0"/><stop stop-color="#4179a9" offset="1"/></linearGradient></defs><path d="M133 189c-.691.156-.974.79-1.06 1.65l-6.2 41.8c-.409 2.68-1.3 4.81-3.93 4.91-1.63-.349-2.76 1.23 0 1.07h13.2c1.07.057 1.08-1.05 0-.986-3.86-.215-4.76-1.35-4.71-2.86l3.62-27.8 15.3 31.2c.48.98 1.22 1.01 1.81 0l15.6-32 3.93 29.5c.126.946-1.12 1.6-1.18 1.94-.158.935 1.75 1.09 2.7 1.1 4.3.026 12.9-.06 12.9 0 1.64-.043 1.01-1.21 0-1.13-5.32-.117-6.05-2.57-6.49-3.32-.44-.755-6.34-42.5-6.57-43.3-.866-2.86-2.02-.834-2.41 0l-17.3 36.4-17.6-36.4c-.44-.625-.503-1.66-1.49-1.65zm-30.6 1.64c-.658.007-.923.899.135 1 5.27-.2 5.69 2.36 5.74 5.13v38.3c-.594 7.47.03 13.4-8.94 18.8-.538.327-.262.991.433 1 1.9-.063 5.34-2.67 8.51-4.83 4.85-4.46 7.98-9.42 7.83-15.3v-34.8c-.016-6.05.676-8.29 5.14-8.15.814-.21.612-1.1.007-1.12h-18.7a.77.77 0 00-.136-.01z" fill="url(#a)" transform="translate(-99.5 -174)"/></svg>