<svg xmlns="http://www.w3.org/2000/svg" viewBox="138.128 191.847 525.469 525.469" width="525.469" height="525.469"><path d="M439.965 369.782c-13.776 11.786-19.814 21.938-29.781 39.43 3.06 5.567 5.773 11.913 5.861 19.04l5.427-8.408c9.988-15.253 24.466-34.484 44.628-43.61 0 0 .398.304.422.267l-.141.702c-19.58 13.628-43.613 61.01-48.298 68.636 14.507-5.515 26.6-17.718 33.764-8.526l1.657-2.666c.975 0 6.002-.025 7.11-.025l-11.355 20.169c-.819 2.5.17 6.4 5.315.373l2.775-3.356c6.874-8.966 8.948-12.605 12.641-15.134 2.085-2.107 9.338-3.95 10.749.228l.849 2.16c4.731-2.26 9.251-6.675 14.37-3.341 1.579 1.66 3.776 3.057.867 9.063-3.034 4.769-2.488 4.067-5.544 9.037-2.48 3.854-1.554 10.557 9.211-1.37 6.707-8.855 13.037-21.693 27.082-17.707 2.16 1.387 3.016 2.362 2.463 4.459-.535 1.263-2.679 1.968-4.042 1.317-1.968-.875-1.107-5.197-6.146-1.963-4.102 4.268-8.059 10.923-9.572 14.695-1.099 2.8-.678 5.168 2.264 6.135 3.71.259 6.559-1.99 9.18-4.784 9.195-7.31 16.242-22.98 30.432-19.904 7.065 2.285 2.635 10.682 11.126 5.68 7.379-4.085 10.158-7.515 19.526-5.461 1.79.985 3.364 2.499 3.227 4.728-.347 1.396-.834 1.753-2.104 2.259-4.119 1.263-1.328-5.935-7.064-3.177-3.485 2.263-5.869 6.655-8.51 11.479-4.151 6.44-2.24 13.555 8.206 6.106 5.548-4.005 7.427-6.382 9.723-8.837 20.229-21.65 21.432-35.123 43.267-54.768 8.278-8.903 20.984-9.657 13.554 1.41-1.037 1.263-1.243 1.602-4.159 4.688-6.217 6.2-10.151 8.423-17.962 13.207-5.552 7.915-8.94 14.898-14.289 23.58l-1.657 3.419c4.504-2.806 8.9-4.851 10.588-5.353 11.088-2.702 10.49 6.378 8.829 9.037-5.264 7.708-14.633 8.373-22.575 9.945 9.523 6.238 14.097 13.622 22.029 25.943 10.896 1.779 18.449 4.533 22.514 6.467 5.17 2.636 8.258 4.438 11.616 7.213 14.865 15.023-2.754 24.267-21.446 11.68-8.408-6.387-10.948-10.417-18.647-21.557-32.232-4.262-71.103-3.39-97.897-.061l-.564-.553c20.358-5.53 63.841-8.586 94.516-4.813-3.657-6.127-11.69-22.022-16.438-23.387-2.268 3.299-3.758 6.297-5.403 9.095.021-.056-9.779.044-9.779.044 2.897-5.6 7.423-12.945 9.768-18.125-5.419 6.025-9.794 10.72-15.153 14.588-9.125 5.832-13.466 3.902-16.552.845-2.813-4.603-.195-10.774 1.325-15.927-2.894.51-2.418 2.223-5.861 1.413-2.897 6.169-4.277 9.734-9.01 13.587-7.937 6.047-14.366 4.253-17.039.223-1.056-2.865-1.352-4.054-.126-9.572-6.312 6.102-13.952 16.333-24.149 12.052-2.801-1.393-3.439-3.9-3.69-6.238.012-.096.222-1.156.568-2.126-7.567 8.888-15.577 11.997-20.141 7.275-3.226-3.828 3.714-13.071 5.306-16.153l.756-1.327c2.982-4.48-2.949-3.204-3.905-2.495-3.633 1.263-6.759 6.453-9.523 11.562l-5.682 10.635-9.283.04c3.949-7.278 7.973-13.676 11.72-20.86.21-.896.336-3.834-3.016-1.45-1.393 1.89-3.271 4.269-6.733 8.897-2.68 3.574-10.125 15.267-17.253 13.622-3.215-1.108-3.47-1.928-3.917-3.751-.181-.546.24-1.65-.154-1.262-3.319 2.828-7.088 5.06-11.846 4.514-2.576-.092-4.954-2.41-5.426-4.76-.798-4.575 1.461-9.43 4.227-13.243l-.978.276c-2.775 1.484-6.977 2.55-10.033 3.536-2.908 4.484-5.315 9.572-8.18 14.284 0 0-10.436 0-10.469.042l6.784-13.156c-4.322.03-10.486-1.491-13.27-3.005-5.279 9.517-12.928 15.688-22.828 17.549-8.516 1.602-16.898-2.688-23.069-6.324-9.742 7.726-28.446 8.368-17.335-6.626 1.941-3.085-.358.495 2.281-3.721 1.484-2.36.971-1.251 2.079-3.344 3.746-5.05-3.316-8.863-11.086 4.023-3.462 5.463-4.78 7.139-9.146 14.563l-8.214-.025c4.13-7.212 8.291-13.591 12.318-20.793 1.384-2.248.251-5.8-4.268-.823l-.768.978c-2.636 3.356-8.401 11.208-12.152 16.046-7.357 8.689-17.629 4.759-12.514-4.488 2.226-4.193 2.354-4.064 3.189-5.737 1.123-2.034 1.594-2.945 1.934-3.713 5.068-7.907-5.471-6.604-13.506 8.925l-5.537 9.525s-8.656.044-8.689.105c6.826-12.665 10.702-18.131 15.556-27.082l-1.82 1.27c-3.101 2.82-6.533 5.049-10.682 4.894-1.824 8.554-6.127 13.459-9.177 16.13-7.656 6.6-13.521 4.6-15.769 3.275-2.134-1.872-2.961-4.197-3.09-6.867.278-6.371 3.91-10.435 7.657-15.492-2.788.845-6.412.872-9.756 2.133-4.076 7.568-21.225 46.88-33.43 64.665-24.565 34.455-53.867 39.476-63.047 30.424-6.667-8.336.793-26.238 16.2-46.29 15.272-18.626 40.329-36.744 69.253-47.84 11.643-20.434 25.592-39.275 43.108-56.104-8.915 4.504-25.525 4.017-32.403-2.026 2.148 13.186-8.674 27.202-20.656 31.439 11.125-8.295 20.849-19.638 17.998-32.968-1.694-2.22-2.801-1.935-3.786-4.865-.439-3.766 3.056-3.23 4.613 1.232 3.371 4.88 10.572 7.653 18.943 8.018 10.613-.251 16.748-3.273 23.917-8.688l.421.975c-17.795 16.69-35.528 50.002-39.534 59.223 12.562-3.816 22.595-6.098 25.534-2.2 1.797 1.322 1.473 2.39 3.374 3.48 4.053 1.377 12.823-7.182 18.228-14.324 9.726-12.178 14.123-27.704 34.116-38.962 3.476-1.62 8.371.247 4.695 6.404-3.463 5.604-14.869 15.149-21.137 19.358-5.097 3.433-10.128 15.69-16.64 25.344 5.286-2.333 19.168-7.412 14.263 5.109-.827 1.96-3.603 7.139-6.09 11.052-2.503 2.946-1.085 7.27 3.832.893 1.18-1.392 5.322-7.191 7.09-9.383 5.478-6.8 8.952-12.396 16.215-9.921 1.89 1.044 2.152 3.779 2.045 5.795 2.511-2.038 5.09-3.861 8.438-5.28 2.662-.915 5.005-1.77 7.811-.457 3.779 2.639.661 8.033-.096 9.22l-6.933 11.06c-1.387 3.079-.398 5.589 3.921 4.312 3.351-1.263 4.458-2.112 6.478-3.448-1.82-2.02-3.574-3.755-2.02-4.35.479.223 3.901 3.005 3.901 3.005 7.512-5.603 16.836-13.886 26.142-25.094-1.421-3.912-1.976-4.74-2.123-7.39-1.58-7.256 1.979-25.144 20.546-25.085 0 0 2.817-8.571 2.901-9.091.812-3.91 1.78-6.847.207-12.813-.369-1.797-.472-3.241.975-3.81 3.574.31 2.282 4.675 3.304 6.899.903 2.458 1.653 4.205 3.997 5.083 15.529 6.489 28.995-12.276 38.201-14.551zm-124.032 22.883c-6.526 7.567-8.468 10.509-11.376 15.824 4.873-2.391 14.536-11.793 17.385-15.573 3.467-3.788.377-7.616-6.009-.251zm320.742-1.533c-5.921 5.205-8.763 10.025-12.653 16.183l5.998-4.142c3.872-2.901 5.859-4.718 8.413-7.293 8.276-8.698 1.712-8.527-1.758-4.748zm-260.225 14.81c-4.305 6.017-5.811 13.708-2.842 21.373 5.973-7.142 12.765-18.552 15.518-27.15-4.682.04-9.694 1.84-12.676 5.777zm15.477-5.515c-3.766 10.368-10.443 21.756-16.221 28.696l-.689 1.116c1.831 3.348 4.779 6.962 8.002 8.903 6.378-10.217 11.769-21.837 19.814-34.015-1.965-2.788-8.643-4.652-10.906-4.7zm16.936 11.789l-15.356 30.793-.831 1.528c3.92 1.66 9.926 3.042 12.853 3.028 7.91-11.902 8.572-24.99 3.334-35.35zm-32.835 24.44l-3.085-4.033c-5.984 6.729-12.514 14.72-24.481 23.428 4.268 2.41 9.825 3.41 14.958 2.573 8.372-1.702 14.049-10.108 18.073-16.83zm64.524 2.932c-5.009 6.02-4.718 6.305-7.782 11.624-2.354 4.193-1.808 6.93-.096 7.818 1.576.546 3.348-.016 6.686-3.241 4.02-5.32 4.296-5.88 8.313-12.602 4.421-8.535-3.521-8.365-7.121-3.6zm110.592 1.894c1.155-6.566-4.906-5.146-12.487 5.855-5.339 7.629-3.334 20.183 9.334 5.75 1.45-2.252 2.277-3.226 3.459-5.603 2.901-5.6-.304-3.98-.232-5.308zm59.042-2.772c-4.037 2.108-6.623 3.592-11.458 12.052 6.566-1.055 12.199-2.561 15.688-6.902 4.291-5.885-.464-7.122-4.23-5.15zm-386.04 6.566c-33.027 14.252-53.614 33.474-72.483 59.238-7.345 11.636-14.684 25.353-7.405 31.036 10.638 5.966 30.432-1.874 54.82-45.195 9.284-16.648 18.844-32.764 25.068-45.08zm403.629 39.217c4.706 6.489 5.54 6.903 8.773 10.158 2.237 1.875 6.309 5.987 9.037 7.855 16.241 11.103 22.672-2.473 6.807-10.786-5.754-3.107-11.911-5.455-24.617-7.227zM396.74 382.53c-.263 3.774-2.196 10.757-3.717 15.238 2.942-.155 8.401 2.34 11.191 4.703 5.556-7.774 10.849-13.872 14.939-18.083-3.138 2.809-16.939 6.075-22.413-1.858zm-134.507 58.257c.687-5.035-4.541-5.426-11.687 5.78-7.143 10.214-3.47 19.483 7.091 7.988 1.676-2.23 2.366-3.093 5.126-8.121 2.33-5.397-.51-3.622-.447-4.95zm15.311-62.55c.483-.49 1.255.203.632.765-.352-.13-.787-.614-.632-.765z"/></svg>