<svg xmlns="http://www.w3.org/2000/svg" width="1024" height="1024"><g style="display:inline"><path d="M167.04 270.787a132.894 132.894 0 0 0-15.65.867c-33.787 3.892-64.217 21.864-82.872 53.274-18.28 30.777-22.778 64.666-13.461 96.068 9.316 31.402 31.885 59.932 65.297 82.534.201.136.406.267.615.392 28.654 17.278 57.181 28.932 87.742 34.955-.746 12.614-.725 25.572.082 38.844 2.44 40.11 16.607 77.037 38.096 109.672L169.88 718.83c-8.306 3.26-12.342 12.683-8.97 20.944 3.372 8.26 12.85 12.168 21.064 8.683l84.697-34.576c15.707 18.727 33.753 35.683 53.121 50.57.74.57 1.49 1.123 2.234 1.686l-49.611 65.691c-5.454 7.048-4.1 17.193 3.011 22.564 7.112 5.37 17.24 3.896 22.526-3.278l50.387-66.72c27.686 17.535 57.075 31.205 86.072 40.253 14.882 27.28 43.97 44.646 77.588 44.646 33.938 0 63.043-18.687 77.8-45.437 28.708-9.213 57.754-22.932 85.15-40.403l51.097 67.66c5.286 7.175 15.414 8.65 22.526 3.279 7.112-5.37 8.465-15.516 3.011-22.564l-50.361-66.685c.334-.254.672-.5 1.006-.756 19.137-14.65 37.025-31.286 52.703-49.635l82.562 33.705c8.214 3.485 17.691-.423 21.064-8.683 3.372-8.261-.664-17.684-8.97-20.944l-74.54-30.427c22.173-32.83 37.04-70.034 40.143-110.461 1.026-13.353 1.23-26.426.64-39.176 30.355-6.054 58.716-17.668 87.2-34.844.209-.125.414-.256.616-.392 33.412-22.602 55.98-51.132 65.296-82.534 9.317-31.402 4.82-65.29-13.46-96.068-18.656-31.41-49.086-49.382-82.872-53.273a132.89 132.89 0 0 0-12.812-.846c-30.208-.545-62.44 8.824-93.432 26.715-22.797 13.16-43.352 33.314-59.437 55.304-44.997-25.75-103.545-40.25-175.479-41.44a598.87 598.87 0 0 0-19.68.003c-80.188 1.31-144.382 16.509-192.87 43.992a14 14 0 0 0-.372-.564c-16.29-22.764-37.41-43.737-60.896-57.295-30.023-17.332-61.21-26.665-90.594-26.737z" style="color:#000;font-style:normal;font-variant:normal;font-weight:400;font-stretch:normal;font-size:medium;line-height:normal;font-family:sans-serif;font-variant-ligatures:normal;font-variant-position:normal;font-variant-caps:normal;font-variant-numeric:normal;font-variant-alternates:normal;font-feature-settings:normal;text-indent:0;text-align:start;text-decoration:none;text-decoration-line:none;text-decoration-style:solid;text-decoration-color:#000;letter-spacing:normal;word-spacing:normal;text-transform:none;writing-mode:lr-tb;direction:ltr;text-orientation:mixed;dominant-baseline:auto;baseline-shift:baseline;text-anchor:start;white-space:normal;shape-padding:0;clip-rule:nonzero;display:inline;overflow:visible;visibility:visible;opacity:1;isolation:auto;mix-blend-mode:normal;color-interpolation:sRGB;color-interpolation-filters:linearRGB;solid-color:#000;solid-opacity:1;vector-effect:none;fill:none;fill-opacity:1;fill-rule:nonzero;stroke:#fff;stroke-width:28;stroke-linecap:round;stroke-linejoin:round;stroke-miterlimit:4;stroke-dasharray:none;stroke-dashoffset:0;stroke-opacity:1;color-rendering:auto;image-rendering:auto;shape-rendering:auto;text-rendering:auto;enable-background:accumulate" transform="translate(0 -26.067)"/><path d="M716.856 362.965c15.29-21.368 35.362-41.11 56.51-53.318 66.664-38.484 137.026-33.221 170.08 22.43 33.095 55.722 14.986 117.49-47.644 159.856-31.956 19.268-62.933 30.923-97.229 35.544M307.144 362.965c-15.29-21.368-35.362-41.11-56.51-53.318-66.663-38.484-137.026-33.221-170.08 22.43-33.095 55.722-14.986 117.49 47.644 159.856 31.956 19.268 62.933 30.923 97.229 35.544" style="display:inline;opacity:1;fill:#fff;fill-opacity:1;stroke:#000;stroke-width:28;stroke-linecap:round;stroke-linejoin:round;stroke-miterlimit:4;stroke-dasharray:none;stroke-opacity:1" transform="translate(0 -26.067)"/><path d="M801.232 576.87C812.735 427.07 720.584 321.983 512 325.389c-208.584 3.405-298.286 102.642-289.232 251.48 8.643 142.081 176.802 246.405 288.12 246.405 111.318 0 279.451-104.545 290.344-246.404z" style="display:inline;opacity:1;fill:#fff;fill-opacity:1;stroke:#000;stroke-width:28;stroke-linecap:round;stroke-linejoin:round;stroke-miterlimit:4;stroke-dasharray:none;stroke-opacity:1" transform="translate(0 -26.067)"/><path d="M610.5 644.29c0 23.111 18.705 41.847 41.78 41.847 23.075 0 41.78-18.736 41.78-41.848s-18.705-41.848-41.78-41.848c-23.075 0-41.78 18.736-41.78 41.848zm-280.56 0c0 23.324 18.877 42.233 42.165 42.233 23.287 0 42.166-18.909 42.166-42.234 0-23.325-18.879-42.233-42.166-42.233-23.288 0-42.166 18.908-42.166 42.233z" style="display:inline;opacity:1;fill:#000;fill-opacity:1;stroke:#000;stroke-width:0;stroke-linecap:round;stroke-linejoin:round;stroke-miterlimit:4;stroke-dasharray:none;stroke-opacity:1" transform="translate(0 -26.067)"/><path d="m339.73 769.247-54.545 72.225m399.086-72.225 54.544 72.225M263.683 697.82l-87.755 35.824m579.857-35.824 87.756 35.824" style="display:inline;opacity:1;fill:none;stroke:#000;stroke-width:32;stroke-linecap:round;stroke-linejoin:miter;stroke-miterlimit:4;stroke-dasharray:none;stroke-opacity:1" transform="translate(0 -26.067)"/><path d="M512 713.09c-45.863 0-75.13 31.845-74.14 71.1 1.07 42.513 32.468 71.104 74.14 71.104 41.674 0 74.052-32.996 74.142-71.103.094-39.269-28.277-71.101-74.141-71.101z" style="display:inline;opacity:1;fill:#fff;fill-opacity:1;stroke:#000;stroke-width:28;stroke-linecap:round;stroke-linejoin:round;stroke-miterlimit:4;stroke-dasharray:none;stroke-opacity:1" transform="translate(0 -26.067)"/></g></svg>