<svg xmlns="http://www.w3.org/2000/svg" fill="#fff" stroke="#000" stroke-linecap="round" stroke-linejoin="round" stroke-width="28" viewBox="0 0 1024 1024"><path d="M716.9 336.9a190.3 190.3 0 0 1 56.5-53.3c66.6-38.5 137-33.2 170 22.4 33.1 55.7 15 117.5-47.6 159.9a248 248 0 0 1-97.2 35.5M307 337a190.3 190.3 0 0 0-56.5-53.3c-66.6-38.5-137-33.2-170 22.4-33.1 55.7-15 117.5 47.6 159.9 32 19.2 63 30.9 97.2 35.5Z"/><path d="M801.2 550.8C812.7 401 720.6 295.9 512 299.3 303.4 302.7 213.7 402 222.8 550.8c8.6 142 176.8 246.4 288 246.4 111.4 0 279.5-104.5 290.4-246.4z"/><path fill="#000" d="M610.5 618.2a41.8 41.8 0 1 0 83.6 0 41.8 41.8 0 0 0-83.6 0zm-280.6 0a42.2 42.2 0 1 0 84.4 0 42.2 42.2 0 0 0-84.4 0z"/><path stroke-width="32" d="m339.7 743.2-54.5 72.2m399-72.2 54.6 72.2M263.7 671.8l-87.8 35.8m579.9-35.8 87.7 35.8"/><path d="M512 687c-45.9 0-75.1 31.9-74.1 71.1 1 42.5 32.4 71.1 74.1 71.1a73 73 0 0 0 74.1-71c.1-39.3-28.2-71.2-74.1-71.2z"/></svg>