<svg xmlns="http://www.w3.org/2000/svg" width="97.963" height="97.963"><path d="M11.936 17.765a6.697 6.953 0 00-6.698 6.953 6.697 6.953 0 006.698 6.95 6.697 6.953 0 001.974-.308l17.694 23.381-19.971 13.803a6.697 6.953 0 00-4.936-2.252A6.697 6.953 0 000 73.245a6.697 6.953 0 006.697 6.953 6.697 6.953 0 006.479-5.19c2.883-1.032 6.279-2.818 12.488-2.788 9.132.043 13.346 2.568 19.295 4.375 4.84-5.506 8.476-12.67 17.172-13.178 5.65-.33 9.821 5.666 14.484 12.502-1.223-9.611-1.861-20.942-5.539-28.457l13.557.799a6.697 6.953 0 00-.065.947 6.697 6.953 0 006.698 6.953 6.697 6.953 0 006.697-6.953 6.697 6.953 0 00-6.697-6.953 6.697 6.953 0 00-4.354 1.67C75.727 36.753 63.805 28.66 51.9 28.805c-8.007.098-7.784 6.453-5.648 14.08L18.297 26.893a6.697 6.953 0 00.336-2.174 6.697 6.953 0 00-6.697-6.953z" fill="#ffc106" paint-order="markers fill stroke"/></svg>