<svg xmlns="http://www.w3.org/2000/svg" viewBox="0 0 59.94 65.94"><path fill="#0a1551" d="M16.43 62.67c1.24 1.2.36 3.27-1.4 3.27H3.95A3.9 3.9 0 0 1 0 62.1V51.38c0-1.72 2.13-2.57 3.38-1.36z"/><path fill="#ffb629" d="M33.72 63.5a8.3 8.3 0 0 1-.04-11.74l.04-.04 11.82-11.74a8.41 8.41 0 0 1 11.86 0 8.3 8.3 0 0 1 .04 11.74l-.04.04L45.58 63.5a8.41 8.41 0 0 1-11.86 0"/><path fill="#09f" d="M2.5 33.99a8.3 8.3 0 0 1-.04-11.74l.04-.04L22.39 2.44a8.41 8.41 0 0 1 11.86 0 8.3 8.3 0 0 1 .04 11.74l-.04.04-19.9 19.77a8.42 8.42 0 0 1-11.85 0"/><path fill="#ff6100" d="M18.76 48.09a8.3 8.3 0 0 1-.04-11.74l.04-.04 26.87-26.7a8.41 8.41 0 0 1 11.86 0 8.3 8.3 0 0 1 .04 11.74l-.04.04-26.87 26.7a8.41 8.41 0 0 1-11.86 0"/></svg>