<svg xmlns="http://www.w3.org/2000/svg" viewBox="0 0 59.3 59.3"><path fill="#ff0211" d="m29.89 58.79 22.94-11.47c1.62-.8 2.65-1.56 2.65-3.38V13.48L29.89.51a4.81 4.81 0 0 0-4.31 0L2.64 12A4.77 4.77 0 0 0 0 16.26v26.79c0 1.8 1.02 3.46 2.64 4.27l22.94 11.47a4.8 4.8 0 0 0 4.31 0z"/><circle cx="46.87" cy="16.58" r="12.43" fill="#4dc9ff"/><path fill="#fff" d="M7.63 39.3 5.2 38.08v-7.19c0-2.11 1.19-4.21 3.64-3.94a6.22 6.22 0 0 1 4.6 3.61 3.1 3.1 0 0 1 2.77-.76c1.25.18 6 2 6 8.35v8.48l-2.66-1.34v-7.94c0-2.33-1.42-4.28-3.34-4.5-.8-.09-1.48.54-1.5 1.91s0 8.08 0 8.08l-2.45-1.23v-7.52c0-3.32-2.14-4.37-3.08-4.47-.52-.06-1.51.26-1.51 2Z"/></svg>
