<svg id="レイヤー_1" data-name="レイヤー 1" xmlns="http://www.w3.org/2000/svg" viewBox="0 0 59.3 59.3"><defs><style>.cls-1{fill:#ff0211;}.cls-2{fill:#4dc9ff;}.cls-3{fill:#fff;}</style></defs><path class="cls-1" d="M29.89,58.79,52.83,47.32a4.78,4.78,0,0,0,2.65-4.27V16.26A4.76,4.76,0,0,0,52.83,12L29.89.51a4.81,4.81,0,0,0-4.31,0L2.64,12A4.77,4.77,0,0,0,0,16.26V43.05a4.79,4.79,0,0,0,2.64,4.27L25.58,58.79A4.81,4.81,0,0,0,29.89,58.79Z"/><circle class="cls-2" cx="46.87" cy="16.58" r="12.43"/><path class="cls-3" d="M7.63,39.3,5.2,38.08V30.89c0-2.11,1.19-4.21,3.64-3.94a6.22,6.22,0,0,1,4.6,3.61,3.1,3.1,0,0,1,2.77-.76c1.25.18,6,2,6,8.35v8.48l-2.66-1.34V37.35c0-2.33-1.42-4.28-3.34-4.5-.8-.09-1.48.54-1.5,1.91s0,8.08,0,8.08l-2.45-1.23V34.09c0-3.32-2.14-4.37-3.08-4.47-.52-.06-1.51.26-1.51,2Z"/></svg>