<svg xmlns="http://www.w3.org/2000/svg" xml:space="preserve" viewBox="0 0 56.48 57.52"><g clip-path="url(#a)" transform="translate(29.26 29.55)"><linearGradient id="b" x1="0" x2="1" y1="199.8" y2="199.8" gradientTransform="matrix(56 0 0 -56 .3 11321.2)" gradientUnits="userSpaceOnUse"><stop offset="0%" stop-color="#fbd446"/><stop offset="10%" stop-color="#fbd446"/><stop offset="100%" stop-color="#e2b512"/></linearGradient><clipPath id="a"><path stroke-linecap="round" d="M-29.25 15.75v9.5s.3 4.4 4.6 2c4.3-2.4 8.7-4.4 8.7-4.4s1.3-.8 0-1.4l-12.2-6.4a1.4 1.4 0 0 0-.5 0c-.3 0-.6 0-.6.7m14.7-6.7v10.9s-.3 2.3 1.9 1.3c2.2-1 9.2-4.8 10.7-5.6 2.2-1.1 0-2.1 0-2.1l-10.7-5.7a2.2 2.2 0 0 0-1-.2c-.4 0-1 .2-.8 1.4m14.7-7.5v10.9s-.3 2.3 1.8 1.3l10.8-5.6c2.1-1.1 0-2.1 0-2.1L2.05.35a2.2 2.2 0 0 0-.9-.2c-.5 0-1 .3-1 1.4m-29.4-.3v11s-.3 2.3 1.8 1.2l10.8-5.6c2.1-1 0-2.1 0-2.1l-10.8-5.7a2.2 2.2 0 0 0-.9-.2c-.4 0-1 .3-.9 1.4m14.8-7.5v11s-.3 2.3 1.8 1.2l10.8-5.6c2.1-1 0-2.1 0-2.1l-10.8-5.6a2.2 2.2 0 0 0-.9-.3c-.5 0-1 .3-1 1.4m29.5-.3v11.7s-.1 1.7 1.4 1l9-4.7c4.2-2.2 0-4.3 0-4.3l-9-4.6a1.5 1.5 0 0 0-.6-.2c-.8 0-.7 1.2-.7 1.2m-44.3-7.4v11s-.3 2.3 1.8 1.3l10.8-5.6c2.1-1.1 0-2.1 0-2.1l-10.7-5.7a2.2 2.2 0 0 0-1-.3c-.4 0-1 .3-.9 1.4m29.5-.3v11s-.3 2.3 1.8 1.3l10.7-5.6c2.1-1.1 0-2.1 0-2.1l-10.8-5.7a2.2 2.2 0 0 0-.9-.3c-.5 0-1 .3-1 1.4m-14.6-7.5v11s-.3 2.3 1.8 1.2l10.8-5.6c2.1-1 0-2.1 0-2.1l-10.7-5.7a2.2 2.2 0 0 0-1-.3c-.4 0-1 .3-.8 1.4m-14.8-5v9.5c0 1.1 1 .6 1 .6l12.3-6.4c1.2-.6 0-1.3 0-1.3l-8.7-4.5a4.8 4.8 0 0 0-2.1-.7c-2.2 0-2.4 2.8-2.4 2.8"/></clipPath><path fill="url(#b)" d="M0 5.6h59.1v59.1H0Z" transform="translate(-29.55 -35.15)" vector-effect="non-scaling-stroke"/></g></svg>