<svg viewBox="0 0 74 87" xmlns="http://www.w3.org/2000/svg" xmlns:xlink="http://www.w3.org/1999/xlink"><defs><linearGradient x1="50%" y1="0%" x2="50%" y2="100%" id="b"><stop stop-color="#646464" offset="0%"/><stop stop-color="#252525" offset="100%"/></linearGradient><rect id="a" x="0" y="0" width="50" height="84" rx="9"/></defs><g fill="none" fill-rule="evenodd"><rect fill="#000" x="24" width="50" height="84" rx="9"/><g transform="translate(24)"><mask id="c" fill="#fff"><use xlink:href="#a"/></mask><path fill="url(#b)" mask="url(#c)" d="M0 0h50v42H0z"/></g><path d="M40.838 32.566V12.959l-7.338 5.88V68.5h7.338V43.706c-.003-1.157.16-2.306.487-3.414 1.231-3.964 4.442-6.836 8.14-6.836 5.186 0 7.697 4.226 7.697 11.435V68.5H64.5V44.044c0-11.9-5.547-17.599-12.754-17.599a12.41 12.41 0 0 0-6.87 2.117l-.358.238a13.59 13.59 0 0 0-3.59 3.63l-.09.136Z" fill="#FFF" fill-rule="nonzero"/><path d="M12.743 9.297c-2.585 0-4.278 2.228-4.278 4.812s1.604 4.723 4.1 4.723c2.494 0 4.366-2.139 4.366-4.723s-1.693-4.812-4.188-4.812ZM0 86.554c3.653 0 8.554-.98 11.584-4.544 3.03-3.564 4.456-9.178 4.456-17.376V26.139H9.267v35.554c0 10.07-.713 13.545-2.584 15.861C4.812 79.871 3.12 80.14 0 80.406v6.148Z" fill="#0057D1" fill-rule="nonzero"/></g></svg>