<svg xmlns="http://www.w3.org/2000/svg" viewBox="0 0 74 87"><defs><linearGradient id="a" x1="50" x2="50" y1="0" y2="84" gradientUnits="userSpaceOnUse"><stop offset="0%" stop-color="#646464"/><stop offset=".5" stop-color="#252525"/><stop offset=".5"/><stop offset="1"/></linearGradient></defs><rect width="50" height="84" x="24" fill="url(#a)" rx="9"/><path fill="#fff" d="M40.8 32.6V13l-7.3 5.8v49.7h7.3V43.7c0-1.2.2-2.3.5-3.4 1.3-4 4.5-6.8 8.2-6.8 5.2 0 7.7 4.2 7.7 11.4v23.6h7.3V44c0-11.9-5.5-17.6-12.8-17.6a12.4 12.4 0 0 0-6.8 2.2l-.4.2a13.6 13.6 0 0 0-3.6 3.6v.2z"/><path fill="#0057d1" d="M12.7 9.3c-2.5 0-4.2 2.2-4.2 4.8 0 2.6 1.6 4.7 4 4.7 2.6 0 4.4-2.1 4.4-4.7s-1.7-4.8-4.2-4.8zM0 86.6c3.7 0 8.6-1 11.6-4.6 3-3.6 4.4-9.2 4.4-17.4V26.1H9.3v35.6c0 10-.7 13.5-2.6 15.9C4.8 79.9 3 80 0 80.4Z"/></svg>