<svg xmlns="http://www.w3.org/2000/svg" width="756" height="756"><path d="M164.591 586.667l426.667-.053V756H164.591z" fill="#52b0ff"/><path d="M334.591 595.263c-48.79-6.568-86.487-23.557-114.18-51.458-28.61-28.824-47.39-71.245-54.925-124.064l-.703-4.925 6.904-1.38C191.944 409.383 304.47 388 305.532 388c.685 0 1.958 5.345 2.827 11.879 7.423 55.747 38.053 86.59 79.931 80.486 25.978-3.786 43.428-17.047 51.176-38.89l3.125-8.808.357-216.334L443.305 0h148.104l-.527 209.667c-.569 226.061-.449 222.08-7.668 254.554-18.127 81.546-67.914 121.88-162.623 131.746-17.936 1.87-70.06 1.442-86-.704z" fill="#050000"/></svg>