<svg xmlns="http://www.w3.org/2000/svg" viewBox="0 0 74.4 46.655"><defs><linearGradient id="a" x1="200.2" x2="239.24" y1="607.07" y2="607.07" gradientTransform="translate(-164.8 -593.98)" gradientUnits="userSpaceOnUse"><stop stop-color="#71802E" offset="0"/><stop stop-color="#74832E" offset=".009"/><stop stop-color="#99A82C" offset=".14"/><stop stop-color="#B3C42B" offset=".261"/><stop stop-color="#C3D42A" offset=".368"/><stop stop-color="#C9DA2A" offset=".45"/><stop stop-color="#E1E319" offset="1"/></linearGradient><linearGradient id="b" x1="176.03" x2="200.33" y1="602.66" y2="602.66" gradientTransform="translate(-164.8 -593.98)" gradientUnits="userSpaceOnUse"><stop stop-color="#71802E" offset="0"/><stop stop-color="#74832E" offset=".009"/><stop stop-color="#99A82C" offset=".14"/><stop stop-color="#B3C42B" offset=".261"/><stop stop-color="#C3D42A" offset=".368"/><stop stop-color="#C9DA2A" offset=".45"/><stop stop-color="#E1E319" offset="1"/></linearGradient><linearGradient id="c" x1="164.8" x2="209.4" y1="627.46" y2="627.46" gradientTransform="translate(-164.8 -593.98)" gradientUnits="userSpaceOnUse"><stop stop-color="#71802E" offset="0"/><stop stop-color="#74832E" offset=".009"/><stop stop-color="#99A82C" offset=".14"/><stop stop-color="#B3C42B" offset=".261"/><stop stop-color="#C3D42A" offset=".368"/><stop stop-color="#C9DA2A" offset=".45"/><stop stop-color="#E1E319" offset="1"/></linearGradient></defs><path d="M35.4 12.455s2.3 5 12.4.6c10.1-4.5 26.6-11.9 26.6-11.9l-5.6 14.7s-13 5.8-16.5 7.3c-10.1 4.5-12.4-.6-12.4-.6z" fill="url(#a)"/><path d="M35.5 12.655s-2.3-5-12.4-.6l-11.9 5.3 5.6-14.7 1.7-.8c10.1-4.5 12.4.6 12.4.6z" fill="url(#b)"/><path d="M44.6 32.955s-2.3-5-12.4-.6L0 46.655l5.6-14.7 22-9.8c10.1-4.5 12.4.6 12.4.6z" fill="url(#c)"/></svg>