<svg xmlns="http://www.w3.org/2000/svg" viewBox="0 0 74.4 46.655"><defs><linearGradient id="c" x1="200.2" x2="239.24" y1="607.07" y2="607.07" gradientTransform="translate(0,-585.84)" gradientUnits="userSpaceOnUse"> <stop stop-color="#71802E" offset="0"/><stop stop-color="#74832E" offset=".0086212"/><stop stop-color="#99A82C" offset=".1398"/><stop stop-color="#B3C42B" offset=".2613"/><stop stop-color="#C3D42A" offset=".3685"/><stop stop-color="#C9DA2A" offset=".45"/><stop stop-color="#E1E319" offset="1"/></linearGradient><linearGradient id="b" x1="176.03" x2="200.33" y1="602.66" y2="602.66" gradientTransform="translate(33,-555.84)" gradientUnits="userSpaceOnUse"><stop stop-color="#71802E" offset="0"/><stop stop-color="#74832E" offset=".0086212"/><stop stop-color="#99A82C" offset=".1398"/><stop stop-color="#B3C42B" offset=".2613"/><stop stop-color="#C3D42A" offset=".3685"/><stop stop-color="#C9DA2A" offset=".45"/><stop stop-color="#E1E319" offset="1"/></linearGradient><linearGradient id="a" x1="164.8" x2="209.4" y1="627.46" y2="627.46" gradientTransform="translate(33,-555.84)" gradientUnits="userSpaceOnUse"><stop stop-color="#71802E" offset="0"/><stop stop-color="#74832E" offset=".0086212"/><stop stop-color="#99A82C" offset=".1398"/><stop stop-color="#B3C42B" offset=".2613"/><stop stop-color="#C3D42A" offset=".3685"/><stop stop-color="#C9DA2A" offset=".45"/><stop stop-color="#E1E319" offset="1"/></linearGradient></defs><g transform="translate(-197.8 -38.145)"><path d="m200.2 20.6s2.3 5 12.4 0.6c10.1-4.5 26.6-11.9 26.6-11.9l-5.6 14.7s-13 5.8-16.5 7.3c-10.1 4.5-12.4-0.6-12.4-0.6z" fill="url(#c)" transform="translate(33,30)"/><path d="m233.3 50.8s-2.3-5-12.4-0.6l-11.9 5.3 5.6-14.7 1.7-0.8c10.1-4.5 12.4 0.6 12.4 0.6z" fill="url(#b)"/><path d="m242.4 71.1s-2.3-5-12.4-0.6l-32.2 14.3 5.6-14.7 22-9.8c10.1-4.5 12.4 0.6 12.4 0.6z" fill="url(#a)"/></g></svg>