<svg xmlns="http://www.w3.org/2000/svg" viewBox="0 0 90 90"><path fill="#4f00be" d="M47.209 29.661h22.414v6.574h-7.523V60.27h-7.385V36.235h-7.506v-6.574h0zM45 84.461C23.225 84.461 5.539 66.775 5.539 45S23.225 5.539 45 5.539 84.461 23.225 84.461 45 66.775 84.461 45 84.461M45 90c24.847 0 45-20.153 45-45S69.847 0 45 0C20.171 0 0 20.153 0 45s20.171 45 45 45m-7.609-39.099c0-1.933-1.208-3.244-3.278-3.244H29.16v6.384h4.952c2.071 0 3.278-1.294 3.278-3.14m-.897-12.285c0-1.622-1.035-2.743-2.795-2.743H29.16v5.573h4.538c1.76 0 2.795-1.122 2.795-2.83m8.368 12.648c0 5.798-4.089 9.007-9.939 9.007H21.879v-30.61h12.182c5.901 0 9.904 3.02 9.904 8.541 0 2.519-1.122 4.762-2.933 6.125 2.071 1.225 3.831 3.554 3.831 6.936"/></svg>