<svg viewBox="0 0 206 40" xmlns="http://www.w3.org/2000/svg"><title>qantas</title><defs><linearGradient x1="63.358%" y1="99.626%" x2="14.731%" y2="-.283%" id="a"><stop stop-color="#BE0000" offset="0%"/><stop stop-color="#DE0000" offset="38.98%"/><stop stop-color="#F60000" offset="76.8%"/><stop stop-color="#F00" offset="100%"/></linearGradient><linearGradient x1="54.909%" y1="50%" x2="54.909%" y2="8.016%" id="b"><stop stop-color="#FFF" stop-opacity="0" offset="0%"/><stop stop-color="#E0E0E0" stop-opacity=".262" offset="51.203%"/><stop stop-color="#C5C5C5" stop-opacity=".549" offset="66.549%"/><stop stop-color="#B5B5B5" stop-opacity=".805" offset="82.415%"/><stop stop-color="#AFAFAF" offset="100%"/></linearGradient><linearGradient x1=".039%" y1="50.172%" x2="90.048%" y2="50.172%" id="c"><stop stop-color="#FFF" stop-opacity="0" offset="0%"/><stop stop-color="#F1F1F1" stop-opacity=".093" offset="8.391%"/><stop stop-color="#D4D4D4" stop-opacity=".325" offset="24.826%"/><stop stop-color="#C0C0C0" stop-opacity=".555" offset="44.531%"/><stop stop-color="#B3B3B3" stop-opacity=".781" offset="70.32%"/><stop stop-color="#AFAFAF" offset="100%"/></linearGradient><linearGradient x1="24.956%" y1="49.876%" x2="99.854%" y2="49.876%" id="d"><stop stop-color="#FFF" stop-opacity="0" offset="0%"/><stop stop-color="#EDEDED" stop-opacity=".282" offset="28.583%"/><stop stop-color="#BDBDBD" stop-opacity=".848" offset="88.6%"/><stop stop-color="#AFAFAF" offset="100%"/></linearGradient></defs><g fill="none" fill-rule="evenodd"><path d="M55.882 39.995L23.222 6.973C18.876 2.598 12.97 0 6.824 0H0l.51 1.333 2.274 5.982 12.358 32.68h40.74z" fill="url(#a)"/><path d="M20.258 27.606c.068.477.443.886.92.954 6.767 1.057 13.332 3.85 19.046 8.452.034.034.068.034.137.034.035 0 .103-.034.137-.068.068-.068.068-.205 0-.273-3.946-4.157-8.81-7.497-14.218-9.678l-1.668-.682c-.85-.34-1.428-1.193-1.428-2.147.102-3.544 8.47-2.83 9.32-4.532l.135-.307c-1.735-1.467-3.776-2.59-6.02-3.205-.035.103-.07.51.373 1.26.51.82-.544 2.114-2.075.717l-.136-.102C13.49 7.6 4.987 13 .497 1.312l2.278 5.96c4.456 7.634 16.19 8.44 17.483 20.334z" fill="#FFF"/><path d="M26.492 16.24c.167.268.166.617.03.885-.142.276-.428.467-.807.467v2.788c1.224-.34 2.62-.58 3.775-.818v-1.568s-1.876.12-2.998-1.755z" fill="url(#b)" transform="translate(.496 1.16)"/><path d="M22.04 27.64c6.26 1.19 12.348 3.918 17.654 8.178-11.87-10.122-17.245-8.316-17.653-8.18z" fill="url(#c)" transform="translate(.496 1.16)"/><path d="M0 .17l2.28 5.964c4.455 7.634 16.19 8.452 17.482 20.346-1.326-15.2-7.96-12.95-15.102-19.834C2.823 5.316 1.26 3.408 0 .17z" fill="url(#d)" transform="translate(.496 1.16)"/><g fill="#323232"><path d="M47.174 22.843c0-5.48 5.54-9.703 13.76-9.703 8.185 0 13.76 4.223 13.76 9.493 0 2.34-1.046 4.293-3.032 5.9h4.877l-1.15 1.988c-.732 1.258-1.638 2.025-3.59 1.98l-11.11.045c-8.256 0-13.516-4.293-13.516-9.702zM60.9 28.148c4.492 0 8.324-2.234 8.324-5.305 0-3.072-3.797-5.306-8.325-5.306-4.495 0-8.327 2.234-8.327 5.306 0 3.07 3.832 5.305 8.326 5.305zM84 29l-2.062 3.5h-5.4l9.023-15.59c.697-1.223 1.742-2.2 3.763-2.41h2.02c2.055.21 3.065 1.153 3.762 2.41l9.022 15.59h-5.504L96.5 29H84zm10.582-3.5l-4.005-7.265c-.105-.174-.175-.21-.314-.21-.14 0-.21.036-.313.21L85.98 25.5h8.602zM130 32.5h-4.973L111 20.713V32.5h-5v-18h3.108c1.533.21 2.334.63 3.205 1.362L125 26.507V14.5h5v18zM147 32.5h-5v-14h-10v-4h25v4h-10M160 29l-1.986 3.5h-5.4l9.023-15.59c.696-1.223 1.74-2.2 3.762-2.41h2.02c2.054.21 3.064 1.153 3.76 2.41l9.023 15.59H174.7l-2.2-3.5H160zm10.693-3.5l-4.005-7.265c-.105-.174-.175-.21-.314-.21-.14 0-.21.036-.313.21l-3.97 7.265h8.603zM181.457 31.114l1.22-3.874c3.482 1.117 7.175 1.57 10.52 1.57 5.468 0 6.826-.627 6.826-1.325 0-.28-.174-.49-.627-.63-.557-.173-2.055-.487-6.55-1.22-4.945-.803-7.21-1.222-8.846-1.99-1.637-.768-2.648-1.99-2.648-3.77 0-1.36.662-2.442 1.742-3.315 1.916-1.466 5.155-2.06 8.674-2.06 4.563 0 8.394.385 12.644 1.432l.383.105-1.01 3.77c-4.737-1.013-7.385-1.292-11.007-1.362-2.543-.035-4.285.174-5.225.454-.523.173-.732.417-.732.697 0 .28.175.488.698.663.557.174 1.498.42 6.374 1.186 5.26.873 7.002 1.222 8.465 1.78 1.985.768 3.17 2.164 3.17 3.91 0 2.198-1.707 3.84-4.668 4.746-1.812.56-4.285.873-7.037.873-4.354.035-8.952-.524-11.913-1.5l-.453-.14z"/></g></g></svg>