<svg xmlns="http://www.w3.org/2000/svg" width="64" height="64" x="2000"><path fill="#ff8c00" d="M50.324 40.332c1.074.414 1.487 2.022 1.569 2.724.165 1.28-.205 1.776-.619 1.776-.413 0-.991-.495-1.61-1.486-.62-.992-.867-2.105-.536-2.684.205-.372.66-.536 1.197-.33zm-6.274 4.666c.66 0 1.403.288 2.064.866 1.28 1.073 1.651 2.312.99 3.22-.371.454-.99.743-1.692.743s-1.444-.248-1.94-.702c-1.156-.99-1.485-2.643-.744-3.55.29-.372.744-.577 1.322-.577zm-14.447 11.93C13.915 56.927 1.2 44.211 1.2 28.525c0-15.687 12.715-28.4 28.4-28.4 15.687 0 28.402 12.715 28.402 28.4 0 5.324-1.486 10.32-4.003 14.573-.084.123-.29.082-.331-.084-.99-6.976-5.243-10.816-11.435-11.97-.537-.084-.62-.414.082-.496 1.9-.165 4.582-.124 5.986.123.082-.702.124-1.444.124-2.187 0-10.362-8.422-18.784-18.784-18.784-10.36 0-18.782 8.422-18.782 18.784 0 10.362 8.422 18.784 18.784 18.784h.866a25.41 25.41 0 0 1-.372-5.079c.042-1.156.29-1.321.785-.413 2.6 4.5 6.316 8.545 13.58 10.155 5.945 1.322 11.89 2.849 18.288 10.98.577.703-.289 1.445-.95.868-6.521-5.78-12.465-7.679-17.873-7.679-6.07.042-10.197.826-14.367.826z"/></svg>