<svg xmlns="http://www.w3.org/2000/svg" x="2000" viewBox="0 0 64 64"><path fill="#ff8c00" d="M50.32 40.33c1.08.42 1.5 2.02 1.57 2.73.17 1.28-.2 1.77-.62 1.77-.4 0-.99-.5-1.6-1.48-.63-1-.87-2.1-.54-2.69.2-.37.66-.53 1.2-.33zM44.05 45c.66 0 1.4.29 2.06.86 1.28 1.08 1.65 2.32 1 3.22-.38.46-1 .75-1.7.75s-1.44-.25-1.94-.7c-1.15-1-1.48-2.65-.74-3.55a1.6 1.6 0 0 1 1.32-.58zM29.6 56.93A28.4 28.4 0 1 1 54 43.1c-.09.12-.3.08-.33-.09-1-6.97-5.25-10.81-11.44-11.97-.53-.08-.62-.41.08-.5 1.9-.16 4.59-.12 6 .13A18.8 18.8 0 0 0 29.64 9.7a18.8 18.8 0 0 0-18.8 18.78 18.8 18.8 0 0 0 18.8 18.79h.86a25.41 25.41 0 0 1-.37-5.08c.04-1.16.29-1.32.78-.41 2.6 4.5 6.32 8.54 13.58 10.15 5.95 1.32 11.9 2.85 18.29 10.98.58.7-.29 1.45-.95.87C55.32 58 49.37 56.1 43.97 56.1c-6.07.04-10.2.83-14.37.83z"/></svg>
