<svg xmlns="http://www.w3.org/2000/svg" viewBox="0 0 150 150"><path d="M0 0h150v150H0V0z" fill="none"/><path d="M73.17 98.41c-13.6-.04-24.59-11.09-24.55-24.69.04-13.6 11.09-24.59 24.69-24.55 13.55.04 24.52 11.02 24.55 24.57.03 13.6-10.98 24.64-24.57 24.66h-.11" fill="#54565b"/><path d="M73.22 112.15c-21.21-.03-38.38-17.24-38.35-38.45.03-21.21 17.24-38.38 38.45-38.35 21.2.03 38.37 17.24 38.35 38.44-.02 21.21-17.23 38.38-38.44 38.36h-.01m70.74 14.01c-2.29-1.95-14.75-12.72-18.73-16.11-.57-.49-.57-.85-.15-1.45 8.42-12.69 12.02-26.62 10.26-41.76-1.95-17-9.68-30.92-22.96-41.71-11.36-9.21-24.48-13.66-39.36-13.87-.68.03-1.69.09-2.69.13-5.84.22-11.61 1.3-17.14 3.21-11.93 4.11-21.88 10.98-29.47 21.04C11.49 51.83 7.79 69.92 12.73 89.57c3.5 13.94 11.27 25.23 22.68 33.91 22.05 16.78 52.52 17.01 74.82.57.44-.32.76-.6 1.33-.11 3.6 3.07 16.81 14.15 19.79 16.65.4.33.72.67 1.25.03 3.79-4.52 7.6-9.02 11.42-13.51a.54.54 0 00.15-.74.51.51 0 00-.22-.19" fill="#009848"/></svg>