<svg xmlns="http://www.w3.org/2000/svg" xmlns:xlink="http://www.w3.org/1999/xlink" width="248.16" height="248.16"><defs><clipPath id="c"><path d="M0 1198.8h1918V0H0z"/></clipPath><clipPath id="e"><path d="M0 1198.8h1918V0H0z"/></clipPath><clipPath id="a"><path d="M46.167-110.397a83.205 83.205 0 0 0-6.722 32.747h166.902a83.295 83.295 0 0 0-6.043-31.106c-8.306-20.674-24.169-36.88-44.668-45.63-10.44-4.459-21.442-6.717-32.695-6.717a83.361 83.361 0 0 0-76.77 50.705" stroke-width="1.333"/></clipPath><linearGradient id="d" x2="97.051" gradientUnits="userSpaceOnUse" x1="170.872" y1="171.461" y2="223.617"><stop offset="0"/><stop stop-color="#4a4a4a" offset=".218"/><stop stop-color="#fff" offset=".549"/></linearGradient></defs><path d="m242.79 215.986-21.358-21.36 4.588-6.707c36.15-56.932 19.24-132.667-37.7-168.836C168.666 6.601 146.02.003 122.83.003 80.68.004 42.037 21.228 19.464 56.775-16.668 113.717.24 189.46 57.153 225.624c19.654 12.475 42.294 19.067 65.48 19.067 25.632 0 50.74-8.076 71.372-22.855l26.313 26.322 4.854-4.856 22.47-22.462z"/><path d="M122.979 31.244c-31.406 0-60.193 15.807-77.008 42.283-26.906 42.405-14.31 98.82 28.078 125.75 14.63 9.29 31.482 14.203 48.727 14.203 31.41 0 60.203-15.812 77.026-42.294 13.039-20.529 17.305-44.92 11.997-68.669-5.3-23.749-19.533-44.016-40.07-57.06-14.64-9.298-31.501-14.213-48.75-14.213m-.203 203.849c-21.373 0-42.225-6.079-60.334-17.572C9.99 184.195-5.59 114.397 27.702 61.925 48.506 29.165 84.12 9.608 122.98 9.608c21.355 0 42.205 6.08 60.325 17.583 25.415 16.142 43.022 41.215 49.585 70.601 6.564 29.397 1.288 59.566-14.851 84.975-20.81 32.763-56.424 52.32-95.262 52.32" fill="#fff"/><g clip-path="url(#a)" transform="translate(0 200)"><g id="b" fill="none" stroke-width="2.965" stroke-miterlimit="10"><path d="m122.938-75.731 72.517-74.109" stroke="#000"/><path d="m122.938-75.731 71.801-74.378" stroke="#020202"/><path d="m122.938-75.731 71.085-74.646" stroke="#040404"/><path d="m122.938-75.745 70.368-74.914" stroke="#050505"/><path d="m122.938-75.745 69.65-75.181" stroke="#070707"/><path d="m122.938-75.745 68.934-75.449" stroke="#090909"/><path d="m122.938-75.745 68.218-75.717" stroke="#0b0b0b"/><path d="m122.938-75.745 67.501-75.985" stroke="#0c0c0c"/><path d="m122.938-75.745 66.784-76.251" stroke="#0e0e0e"/><path d="m122.938-75.758 66.068-76.522" stroke="#101010"/><path d="m122.938-75.758 65.352-76.79" stroke="#121212"/><path d="m122.938-75.758 64.634-77.058" stroke="#141414"/><path d="m122.938-75.758 63.918-77.325" stroke="#151515"/><path d="m122.938-75.758 63.201-77.591" stroke="#171717"/><path d="m122.938-75.758 62.485-77.861" stroke="#191919"/><path d="m122.938-75.771 61.768-78.131" stroke="#1b1b1b"/><path d="m122.938-75.771 61.052-78.399" stroke="#1d1d1d"/><path d="m122.938-75.771 60.336-78.666" stroke="#1f1f1f"/><path d="m122.938-75.771 59.619-78.933" stroke="#202020"/><path d="m122.938-75.771 58.903-79.201" stroke="#222"/><path d="m122.938-75.771 58.187-79.47" stroke="#242424"/><path d="m122.938-75.785 57.469-79.737" stroke="#262626"/><path d="m122.938-75.785 56.752-80.006" stroke="#282828"/><path d="m122.938-75.785 56.036-80.274" stroke="#292929"/><path d="m122.938-75.785 55.32-80.542" stroke="#2b2b2b"/><path d="m122.938-75.785 54.603-80.81" stroke="#2d2d2d"/><path d="m122.938-75.785 53.887-81.078" stroke="#2f2f2f"/><path d="m122.938-75.798 53.169-81.346" stroke="#303030"/><path d="m122.938-75.798 52.453-81.614" stroke="#323232"/><path d="m122.938-75.798 51.736-81.882" stroke="#343434"/><path d="m122.938-75.798 51.02-82.15" stroke="#363636"/><path d="m122.938-75.798 50.304-82.418" stroke="#383838"/><path d="m122.938-75.798 49.587-82.686" stroke="#393939"/><path d="m122.938-75.811 48.871-82.954" stroke="#3b3b3b"/><path d="m122.938-75.811 48.153-83.223" stroke="#3d3d3d"/><path d="m122.938-75.811 47.437-83.489" stroke="#3f3f3f"/><path d="m122.938-75.811 46.72-83.758" stroke="#414141"/><path d="m122.938-75.811 46.004-84.026" stroke="#424242"/><path d="m122.938-75.811 45.288-84.295" stroke="#444"/><path d="m122.938-75.825 44.571-84.563" stroke="#464646"/><path d="m122.938-75.825 43.855-84.831" stroke="#484848"/><path d="m122.938-75.825 43.138-85.098" stroke="#494949"/><path d="m122.938-75.825 42.42-85.366" stroke="#4b4b4b"/><path d="m122.938-75.825 41.704-85.635" stroke="#4d4d4d"/><path d="m122.938-75.825 40.988-85.903" stroke="#4f4f4f"/><path d="m122.938-75.838 40.271-86.171" stroke="#515151"/><path d="m122.938-75.838 39.555-86.439" stroke="#525252"/><path d="m122.938-75.838 38.839-86.706" stroke="#545454"/><path d="m122.938-75.838 38.122-86.974" stroke="#565656"/><path d="m122.938-75.838 37.406-87.243" stroke="#585858"/><path d="m122.938-75.838 36.69-87.511" stroke="#5a5a5a"/><path d="m122.938-75.851 35.971-87.778" stroke="#5c5c5c"/><path d="m122.938-75.851 35.255-88.047" stroke="#5d5d5d"/><path d="m122.938-75.851 34.539-88.315" stroke="#5f5f5f"/><path d="m122.938-75.851 33.822-88.583" stroke="#616161"/><path d="m122.938-75.851 33.106-88.851" stroke="#636363"/><path d="m122.938-75.851 32.389-89.12" stroke="#646464"/><path d="m122.938-75.865 31.673-89.386" stroke="#666"/><path d="m122.938-75.865 30.957-89.655" stroke="#686868"/><path d="m122.938-75.865 30.239-89.922" stroke="#6a6a6a"/><path d="m122.938-75.865 29.523-90.192" stroke="#6c6c6c"/><path d="m122.938-75.865 28.806-90.459" stroke="#6d6d6d"/><path d="m122.938-75.878 28.09-90.727" stroke="#6f6f6f"/><path d="m122.938-75.878 27.373-90.995" stroke="#717171"/><path d="m122.938-75.878 26.657-91.264" stroke="#737373"/><path d="m122.938-75.878 25.941-91.531" stroke="#757575"/><path d="m122.938-75.878 25.223-91.802" stroke="#767676"/><path d="m122.938-75.878 24.507-92.068" stroke="#787878"/><path d="m122.938-75.878 23.791-92.336" stroke="#7a7a7a"/><path d="m122.938-75.891 23.074-92.603" stroke="#7c7c7c"/><path d="m122.938-75.891 22.358-92.871" stroke="#7d7d7d"/><path d="m122.938-75.891 21.641-93.138" stroke="#7f7f7f"/><path d="m122.938-75.891 20.923-93.408" stroke="#818181"/><path d="m122.938-75.891 20.207-93.676" stroke="#838383"/><path d="m122.938-75.891 19.492-93.944" stroke="#858585"/><path d="m122.938-75.905 18.774-94.212" stroke="#868686"/><path d="m122.938-75.905 18.058-94.479" stroke="#888"/><path d="m122.938-75.905 17.341-94.748" stroke="#8a8a8a"/><path d="m122.938-75.905 16.625-95.018" stroke="#8c8c8c"/><path d="m122.938-75.905 15.909-95.284" stroke="#8e8e8e"/><path d="m122.938-75.905 15.192-95.554" stroke="#8f8f8f"/><path d="m122.938-75.918 14.474-95.82" stroke="#919191"/><path d="m122.938-75.918 13.758-96.088" stroke="#939393"/><path d="m122.938-75.918 13.042-96.358" stroke="#959595"/><path d="m122.938-75.918 12.325-96.624" stroke="#969696"/><path d="m122.938-75.918 11.609-96.891" stroke="#989898"/><path d="m122.938-75.931 10.892-97.16" stroke="#9a9a9a"/><path d="m122.938-75.931 10.176-97.428" stroke="#9c9c9c"/><path d="m122.938-75.931 9.458-97.698" stroke="#9e9e9e"/><path d="m122.938-75.931 8.744-97.966" stroke="#a0a0a0"/><path d="m122.938-75.931 8.026-98.232" stroke="#a1a1a1"/><path d="m122.938-75.931 7.309-98.5" stroke="#a3a3a3"/><path d="m122.938-75.945 6.593-98.768" stroke="#a5a5a5"/><path d="m122.938-75.945 5.877-99.038" stroke="#a7a7a7"/><path d="m122.938-75.945 5.16-99.306" stroke="#a9a9a9"/><path d="m122.938-75.945 4.444-99.572" stroke="#aaa"/><path d="m122.938-75.945 3.727-99.842" stroke="#acacac"/><path d="m122.938-75.945 3.011-100.109" stroke="#aeaeae"/><path d="m122.938-75.958 2.293-100.376" stroke="#b0b0b0"/><path d="m122.938-75.958 1.577-100.643" stroke="#b1b1b1"/><path d="m122.938-75.958.861-100.912" stroke="#b3b3b3"/><path d="m122.938-75.958.144-101.181" stroke="#b5b5b5"/></g><use xlink:href="#b" transform="matrix(-1 0 0 1 245.877 0)"/></g><g clip-path="url(#c)" transform="matrix(1.3333 0 0 -1.3333 -780.039 603.83)"><path d="M689.15 389.07c15.44-6.588 22.612-24.438 16.024-39.88s-24.444-22.615-39.886-16.017c-15.436 6.571-22.621 24.439-16.018 39.878 6.586 15.434 24.438 22.608 39.88 16.019" fill="#fff"/><path d="M679.66 366.85a6.243 6.243 0 0 0 3.29-8.191 6.241 6.241 0 0 0-8.191-3.274c-3.167 1.345-4.636 5.006-3.282 8.18a6.23 6.23 0 0 0 8.183 3.285m-2.44 20.64a26.35 26.35 0 0 1-24.268-16.026c-5.704-13.374.534-28.893 13.907-34.597a26.203 26.203 0 0 1 10.345-2.13c10.578 0 20.1 6.294 24.26 16.03a26.19 26.19 0 0 1 .214 20.177 26.21 26.21 0 0 1-14.119 14.422 26.217 26.217 0 0 1-10.339 2.124m-.016-58.533c-4.343 0-8.588.871-12.616 2.591-16.303 6.955-23.91 25.88-16.954 42.185a32.13 32.13 0 0 0 29.586 19.54c4.341 0 8.582-.872 12.607-2.591 7.9-3.369 14.014-9.614 17.215-17.582a31.92 31.92 0 0 0-.261-24.603 32.123 32.123 0 0 0-29.577-19.54"/></g><path d="M48.66 207.2a113.111 113.111 0 0 0 13.804 10.318c18.108 11.494 38.96 17.572 60.332 17.572 27.155 0 52.721-9.568 72.765-26.514l-15.352-15.354c-15.984 12.962-36.092 20.251-57.413 20.251-17.242 0-34.094-4.912-48.724-14.202a91.255 91.255 0 0 1-10.057-7.424z" fill="url(#d)"/><g clip-path="url(#e)" transform="matrix(1.3333 0 0 -1.3333 -780.039 603.83)"><path d="M714.57 333.34a7.279 7.279 0 0 1-5.165 2.138 7.304 7.304 0 0 1-5.162-12.47l46.059-46.06 10.331 10.327z" fill="#fff"/></g></svg>