<svg xmlns="http://www.w3.org/2000/svg" viewBox="0 0 48 35.22"><path fill="#41cd52" d="M6.6 0H48v28.55l-6.7 6.67H0V6.58Z"/><path fill="#fff" d="M18.08 6.1c-1.85 0-3.79.26-5.37 1.3h-.02c-1.32.87-2.12 2.35-2.6 3.83a19.65 19.65 0 0 0-.73 6.11c.03 1.9.2 3.83.8 5.63a6.58 6.58 0 0 0 1.78 2.88 7.5 7.5 0 0 0 4.1 1.61c1.22.13 2.46.15 3.68-.05l2.7 4.44 3.15-1.46-2.52-4.06a6.96 6.96 0 0 0 2.5-3.4 19 19 0 0 0 .79-6.2 18 18 0 0 0-.99-6.15 6.55 6.55 0 0 0-2.2-3.09c-1.47-1.05-3.31-1.35-5.07-1.38zm12.48 1.23v4.39h-2.3v2.83h2.3v7.07a10.32 10.32 0 0 0 .6 3.87 2.6 2.6 0 0 0 1.69 1.41c1.71.54 3.52.2 5.25-.1l-.16-2.61-2.6.07c-.46-.01-1.04-.13-1.24-.6-.28-.6-.27-1.29-.3-1.94v-7.17H38l.09-2.85h-4.23V7.33h-3.3zm-12.8 1.69a6.41 6.41 0 0 1 2.12.38 3.49 3.49 0 0 1 1.88 1.76c.57 1.22.78 2.57.9 3.9.11 1.77.1 3.55-.15 5.3a5.9 5.9 0 0 1-1.12 2.98 4.2 4.2 0 0 1-2.9 1.27c-1.11.08-2.3 0-3.31-.53-.6-.32-1.1-.81-1.4-1.42a8.54 8.54 0 0 1-.67-2.3c-.42-2.5-.52-5.1.05-7.6.23-.94.57-1.9 1.26-2.62.6-.6 1.43-.92 2.26-1.04a6.41 6.41 0 0 1 1.08-.08z"/></svg>