<svg xmlns="http://www.w3.org/2000/svg" xmlns:xlink="http://www.w3.org/1999/xlink" version="1.1" width="1000" height="1000" viewBox="0 0 1000 1000" xml:space="preserve">
<desc>Created with Fabric.js 3.5.0</desc>
<defs>
</defs>
<rect x="0" y="0" width="100%" height="100%" fill="rgba(255,255,255,0)"/>
<g transform="matrix(4.8904 0 0 4.8904 -243.4684 659.8877)" id="844895">
<g style="" vector-effect="non-scaling-stroke">
		<g transform="matrix(1 0 0 1 186.665 4.7235)" id="fullLogo-7">
<polygon style="stroke: none; stroke-width: 1; stroke-dasharray: none; stroke-linecap: butt; stroke-dashoffset: 0; stroke-linejoin: miter; stroke-miterlimit: 4; is-custom-font: none; font-file-url: none; fill: rgb(198,0,126); fill-rule: nonzero; opacity: 1;" points="-58.997,23.409 58.997,-1.093 58.997,-23.409 -58.997,1.092 -58.997,23.409 "/>
</g>
		<g transform="matrix(1 0 0 1 186.665 -45.024)" id="fullLogo-8">
<polygon style="stroke: none; stroke-width: 1; stroke-dasharray: none; stroke-linecap: butt; stroke-dashoffset: 0; stroke-linejoin: miter; stroke-miterlimit: 4; is-custom-font: none; font-file-url: none; fill: rgb(198,0,126); fill-rule: nonzero; opacity: 1;" points="-58.997,23.4085 58.997,-1.0935 58.997,-23.4085 -58.997,1.0915 -58.997,23.4085 "/>
</g>
		<g transform="matrix(1 0 0 1 186.665 -93.024)" id="fullLogo-9">
<polygon style="stroke: none; stroke-width: 1; stroke-dasharray: none; stroke-linecap: butt; stroke-dashoffset: 0; stroke-linejoin: miter; stroke-miterlimit: 4; is-custom-font: none; font-file-url: none; fill: rgb(198,0,126); fill-rule: nonzero; opacity: 1;" points="-58.997,1.0915 -58.997,23.4085 58.997,-1.0935 58.997,-23.4085 -58.997,1.0915 "/>
</g>
</g>
</g>
<g transform="matrix(4.73 0 0 4.73 172.1256 562.5516)" id="717283">
<path style="stroke: none; stroke-width: 0; stroke-dasharray: none; stroke-linecap: butt; stroke-dashoffset: 0; stroke-linejoin: miter; stroke-miterlimit: 4; is-custom-font: none; font-file-url: none; fill: rgb(198,0,126); fill-rule: nonzero; opacity: 1;" vector-effect="non-scaling-stroke" transform=" translate(-44.1372, -183.5737)" d="M 68.2746 208.011 l -0.0733 -72.059 c -0.0131 -13.6189 -9.2938 -22.8019 -24.1267 -19.7577 A 30.1349 30.1349 0 0 0 20 145.847 l 0.075 72.0575 c 0.013 13.4624 8.9842 22.3928 23.3526 19.919 c 5.57 8.3616 10.8322 15.0415 18.4 13.4885 c 2.627 -0.5394 4.0171 -1.1424 5.0975 -2.3125 l -0.0114 -11.2444 a 11.99 11.99 0 0 1 -3.3994 1.1733 c -1.8529 0.38 -3.7107 -2.5666 -5.2572 -4.6249 a 6.1659 6.1659 0 0 1 -1.5482 -2.3744 A 30.5684 30.5684 0 0 0 68.2746 208.011 Z M 44.1854 223.8869 c -6.644 1.364 -9.1194 -3.8313 -9.1259 -9.0575 L 34.9862 142.77 c -0.0049 -5.2246 2.4607 -11.4334 9.103 -12.7975 c 6.6441 -1.364 9.1211 3.8313 9.126 9.0559 l 0.075 72.0591 C 53.2951 216.314 50.8278 222.5229 44.1854 223.8869 Z" stroke-linecap="round"/>
</g>
</svg>