<svg xmlns="http://www.w3.org/2000/svg" version="1.1" id="Layer_1" x="0" y="0" xml:space="preserve" width="43.257" height="43.257"><style type="text/css" id="style12490">.st0{fill:#3ca442}</style><g id="g12495" transform="translate(-56.372 4.63)"><path id="XMLID_147_" class="st0" d="M71.16 18.75c3.19-5.87 7.38-10.31 11.2-12.37L78.53.35c-.3-.47-.78-.47-1.07 0L56.5 33.39c-.3.47-.05.61.5.61h10c-.16-4.27 1.12-9.68 4.16-15.25z"/><path id="XMLID_146_" class="st0" d="M83.66 10.14c-2.06-1.13-6.49 3.04-9.9 9.3-3.41 6.26-4.51 12.25-2.45 13.38 1.49.81 4-1.32 6.68-4.82v-8c0-.83.52-1.29.91-.56l2.23 4.22c.03-.05.05-.09.08-.14 3.42-6.26 4.51-12.25 2.45-13.38z"/><path id="XMLID_145_" class="st0" d="M99.5 33.39l-8.46-13.34c-.73 2.51-1.82 5.17-3.25 7.8a42.95 42.95 0 01-2.39 3.87L87 34h12c.55 0 .8-.14.5-.61z"/></g></svg>