<svg xmlns="http://www.w3.org/2000/svg" viewBox="0 0 280 280"><rect width="280" height="280" fill="#c60c30" rx="54"/><path fill="#fff" d="M190.6 213.2h8.6c4.3 0 7 1.6 7 5a22.3 22.3 0 0 1-.3 3.8l-4 21.3c-.9 4.6-4.8 8.2-10.6 8.2h-12.4c-27.4 0-36.9-17-37.6-33.5a93.3 93.3 0 0 1-19.2 2.4C75 220.4 53 190 53 148.2 53 96.2 88.2 29 158.3 29c46.3 0 69 30 69 72.2 0 45-25 85.5-48.6 100.9a11.5 11.5 0 0 0 11.8 11.1ZM169.5 95.6c0-14.4-5-24.5-19.7-24.5-34 0-39 72.6-39 82.4 0 13.4 3.9 24.8 19.7 24.8 33.5 0 39-70.5 39-82.7Z"/></svg>