<svg xmlns="http://www.w3.org/2000/svg" version="1.1" id="svg3203" width="73.7" height="73.7"><defs id="defs3178"><style id="style3176">.cls-1{fill:#4c7fff}</style></defs><g id="g3782" transform="translate(1.515)"><path class="cls-1" d="M56.1 47.46l-26.09-5.07 6.6 9.15a15.88 15.88 0 01-4.1.54c-9.8 0-16.67-8-14.94-18.85a18.82 18.82 0 015.64-10.27L12.89 21.7l2.5-12.37c-7.64 5.76-13.35 14-14.9 23.81C-2.75 53.59 9.63 68 29.91 68a37.52 37.52 0 0016.25-3.23l6.44 8.93z" id="path3198"/><path class="cls-1" d="M40.6.64a41.41 41.41 0 00-17.5 4.08L19.83 0l-3.88 19.2 18.77 2.29-2.7-3.89a19.36 19.36 0 016.18-1c9.88 0 16.41 8.54 14.91 18a19.09 19.09 0 01-3.27 7.84l10.57 2.05-1.59 12c6.16-6.47 10.08-13.67 11.39-21.94C73.42 13.96 60.28.64 40.6.64z" id="path3200"/></g></svg>