<svg xmlns="http://www.w3.org/2000/svg" viewBox="0 0 280 280"><defs><style>.cls-1{fill:#c60c30;}.cls-2{fill:#fff;}</style></defs><g id="Layer_2" data-name="Layer 2"><g id="Layer_1-2" data-name="Layer 1"><g id="logo_1" data-name="logo 1"><rect id="Rectangle_28" data-name="Rectangle 28" class="cls-1" width="280" height="280" rx="54"/><path id="Path_5" data-name="Path 5" class="cls-2" d="M190.56,213.24h8.65c4.3,0,7.08,1.57,7.08,5a22.32,22.32,0,0,1-.43,3.74c-.08.5-4,21.35-4,21.35-.86,4.53-4.74,8.2-10.56,8.2H178.87c-27.32,0-36.85-17.05-37.6-33.5a93.32,93.32,0,0,1-19.2,2.39C75.17,220.47,53,190,53,148.24,53,96.25,88.21,29,158.34,29c46.23,0,69,30,69,72.23,0,45-25.1,85.51-48.62,100.85a11.47,11.47,0,0,0,11.77,11.16ZM169.46,95.57c0-14.4-4.94-24.46-19.69-24.46-33.9,0-39,72.63-39,82.37.06,13.45,3.93,24.87,19.75,24.87C164,178.35,169.46,107.85,169.46,95.57Z"/></g></g></g></svg>