<svg xmlns="http://www.w3.org/2000/svg" width="24.138" height="24.138" viewBox="0 0 27.538 26.724" aria-label="Intuit QuickBooks"><g transform="translate(-.194 -.393)"><ellipse cx="13.963" cy="13.755" fill="#2ca01c" rx="13.769" ry="13.602"/><path fill="#fff" d="M4.017 13.755c0 2.921 2.397 5.29 5.355 5.29h.765v-1.966h-.765c-1.856 0-3.366-1.491-3.366-3.324 0-1.834 1.51-3.325 3.366-3.325h1.838v10.277c0 1.085.89 1.964 1.989 1.964V8.465H9.372c-2.958 0-5.355 2.368-5.355 5.29zm14.537-5.29h-.765v1.966h.765c1.856 0 3.366 1.491 3.366 3.324 0 1.834-1.51 3.325-3.366 3.325h-1.838V6.803c0-1.085-.89-1.964-1.99-1.964v14.206h3.828c2.957 0 5.355-2.368 5.355-5.29 0-2.92-2.398-5.29-5.355-5.29z"/></g></svg>