<svg xmlns="http://www.w3.org/2000/svg" fill="#1d7bce" viewBox="0 0 39.4 39.4"><path d="M31.3 7.3c-.7-1.7-1.5-3.1-2.7-4.2-1.1-1.1-2.4-1.9-4-2.4-1.5-.5-3.2-.7-4.9-.7s-3.4.3-4.9.7c-1.5.5-2.8 1.3-4 2.4-1.1 1.1-2 2.5-2.7 4.2-.6 1.7-1 3.8-1 6.3v5.1c0 2.5.3 4.6 1 6.3.6 1.7 1.5 3.1 2.7 4.2 1.1 1.1 2.4 1.9 4 2.4.8.3 1.7.5 2.6.6.1.2.3.4.5.7.8 1 1.9 2.1 3.3 3.2.4.3.8.6 1.3.9s1 .6 1.4.9c.5.3 1 .5 1.4.8.5.2.8.4 1.1.5s.5.1.8.2c.2 0 .4-.1.6-.3l2.4-3.2c.2-.2.2-.4.2-.7s-.2-.5-.4-.6l-.1-.1c-.3-.2-.7-.5-1.2-.8s-.9-.6-1.4-.9-1-.6-1.4-.9c-.2-.1-.4-.3-.5-.4 1.2-.5 2.3-1.2 3.2-2.1 1.1-1.1 2-2.5 2.7-4.2.6-1.7 1-3.8 1-6.3v-5.1c0-2.6-.3-4.7-1-6.5zm-15.4 17c-.8-1.1-1.3-3-1.3-5.6v-5.1c0-2.6.4-4.5 1.3-5.6.8-1.1 2.2-1.7 3.9-1.7 1.8 0 3.1.6 4 1.7s1.3 3 1.3 5.6v5.1c0 2.6-.4 4.5-1.3 5.6s-2.2 1.7-4 1.7c-1.7 0-3-.6-3.9-1.7z"/></svg>