<svg xmlns="http://www.w3.org/2000/svg" width="19.132" height="19.132" fill="currentColor"><path d="M10.187.02a9.39 9.39 0 0 0-4.255.714 9.431 9.431 0 0 0-3.494 2.543A9.51 9.51 0 0 0 .34 11.45a9.505 9.505 0 0 0 1.834 3.923 9.44 9.44 0 0 0 3.38 2.694 9.396 9.396 0 0 0 8.397-.181.261.261 0 0 1 .264.014 7.277 7.277 0 0 0 4.143 1.232.264.264 0 0 0 .264-.265V15.65a.266.266 0 0 0-.22-.265 3.735 3.735 0 0 1-.881-.254.263.263 0 0 1-.153-.28.27.27 0 0 1 .04-.107 9.52 9.52 0 0 0 .616-9.463A9.465 9.465 0 0 0 14.8 1.59 9.398 9.398 0 0 0 10.176.014zM3.86 9.485a5.765 5.765 0 0 1 .96-3.193 5.723 5.723 0 0 1 2.563-2.118 5.686 5.686 0 0 1 3.303-.328 5.71 5.71 0 0 1 2.927 1.57 5.77 5.77 0 0 1 1.24 6.261 5.735 5.735 0 0 1-2.107 2.578 5.697 5.697 0 0 1-7.214-.714 5.758 5.758 0 0 1-1.676-4.056z" fill="#3b4c9b"/></svg>