<svg xmlns="http://www.w3.org/2000/svg" fill="currentColor" width="54.486" height="54.486"><path d="M26.99 1.396c15.382 0 26.99 11.36 26.99 25.883 0 6.687-2.54 12.583-6.676 17.04l7.182 7.98H42.37l-2.49-2.847c-3.6 2.482-8.102 3.638-12.89 3.638C11.68 53.09 0 41.802 0 27.28 0 12.323 12.116 1.396 26.99 1.396zm0 41.7c2.03 0 3.844-.43 5.586-1.15L22.2 30.299h12.117l5.587 6.4c2.03-2.518 2.974-5.537 2.974-9.42 0-8.698-6.6-15.817-15.89-15.817-9.287 0-15.814 7.046-15.814 15.817 0 8.915 6.527 15.818 15.815 15.818z" fill-rule="evenodd" fill="#4257b2"/></svg>