<svg xmlns="http://www.w3.org/2000/svg" viewBox="0 0 19.13 19.13"><path fill="#3b4c9b" d="M10.19.02a9.39 9.39 0 0 0-4.26.71 9.43 9.43 0 0 0-3.5 2.55 9.51 9.51 0 0 0-2.09 8.17 9.5 9.5 0 0 0 1.83 3.92 9.44 9.44 0 0 0 3.38 2.7 9.4 9.4 0 0 0 8.4-.18.26.26 0 0 1 .27.01 7.28 7.28 0 0 0 4.14 1.23.26.26 0 0 0 .26-.26v-3.22a.27.27 0 0 0-.22-.27 3.73 3.73 0 0 1-.88-.25.26.26 0 0 1-.15-.28.27.27 0 0 1 .04-.1 9.52 9.52 0 0 0 .61-9.47A9.46 9.46 0 0 0 14.8 1.6 9.4 9.4 0 0 0 10.18.01zM3.86 9.48a5.76 5.76 0 0 1 .96-3.19 5.72 5.72 0 0 1 2.56-2.12 5.69 5.69 0 0 1 3.3-.32 5.71 5.71 0 0 1 2.93 1.57 5.77 5.77 0 0 1 1.24 6.26 5.74 5.74 0 0 1-2.1 2.57 5.7 5.7 0 0 1-7.22-.7 5.76 5.76 0 0 1-1.67-4.07z"/></svg>