<svg xmlns="http://www.w3.org/2000/svg" width="200" height="200"><g fill="#b92b27" fill-rule="evenodd"><path d="M28.476 115.486c-1.918-3.775-4.168-7.588-8.557-7.588-.839 0-1.677.139-2.446.49l-1.491-2.984c1.817-1.559 4.753-2.795 8.527-2.795 5.871 0 8.884 2.828 11.276 6.438 1.42-3.082 2.095-7.244 2.095-12.403 0-12.883-4.029-19.498-13.44-19.498-9.274 0-13.281 6.615-13.281 19.498 0 12.815 4.007 19.362 13.281 19.362 1.474 0 2.809-.162 4.036-.52zm2.299 4.496a24.653 24.653 0 01-6.335.846C12.091 120.828 0 110.974 0 96.644c0-14.466 12.091-24.322 24.44-24.322 12.556 0 24.531 9.785 24.531 24.322 0 8.086-3.773 14.657-9.257 18.904 1.772 2.655 3.596 4.418 6.136 4.418 2.772 0 3.89-2.142 4.077-3.822h3.61c.211 2.237-.908 11.534-10.997 11.534-6.111 0-9.342-3.542-11.765-7.696zM56.91 107.689V91.123c0-1.887-.697-2.725-2.864-2.725h-2.307v-4.402h15.073v23.484c0 3.959 2.143 5.705 5.406 5.705 2.678 0 5.357-1.185 6.802-3.89V91.123c0-1.887-.699-2.725-2.865-2.725h-2.446v-4.402h15.214v24.599c0 2.45.908 3.567 3.703 3.567h.49v4.543l-13.606 2.166v-4.682h-.28c-2.632 3.213-6.336 5.381-11.625 5.381-5.941 0-10.695-3.004-10.695-11.881M112.905 115.168c5.359 0 7.395-4.662 7.502-14.049.104-9.182-2.143-13.627-7.502-13.627-4.682 0-7.618 4.447-7.618 13.627 0 9.389 2.888 14.049 7.618 14.049zm0 4.402c-9.691 0-18.43-7.41-18.43-18.451 0-10.834 8.528-18.033 18.43-18.033 10.321 0 18.592 7.337 18.592 18.033 0 11.041-8.271 18.451-18.592 18.451zM131.809 118.871v-4.403h1.468c3.635 0 3.984-1.048 3.984-4.193V91.123c0-1.887-.978-2.725-3.214-2.725h-1.957v-4.402h13.814l.699 7.199h.281c1.538-5.174 5.661-7.9 9.527-7.9 3.192 0 5.684 1.818 5.684 5.5 0 2.562-1.232 5.289-4.681 5.289-3.1 0-3.704-2.098-6.268-2.098-2.282 0-4.054 2.168-4.054 5.358v12.931c0 3.145.77 4.193 4.335 4.193h2.026v4.403h-21.644M177.797 113.746c4.404 0 6.22-4.17 6.22-8.361v-5.594c-3.214 3.33-10.694 3.447-10.694 9.388 0 2.912 1.726 4.567 4.474 4.567zm6.431-.024c-1.818 3.494-5.547 5.848-10.764 5.848-6.057 0-9.971-3.217-9.971-8.877 0-11.39 15.865-8.363 20.524-15.91v-.817c0-5.8-2.283-6.708-4.799-6.708-7.059 0-3.845 7.591-10.345 7.591-3.121 0-4.333-1.884-4.333-4.004 0-4.287 5.126-7.759 14.749-7.759 9.107 0 14.7 2.517 14.7 11.58v14.467c0 2.236.816 3.449 2.773 3.449.838 0 1.537-.233 2.072-.606l1.166 2.84c-.956 1.469-3.496 4.055-8.319 4.055-4.192 0-6.825-1.957-7.175-5.149z"/></g></svg>