<svg xmlns="http://www.w3.org/2000/svg" viewBox="0 0 1125 2436"><defs><style>.a{fill:#f2f2f3;}.b{fill:#fff;}.c{fill:#dbdbdb;}.d{fill:#b4b4b4;}.e{fill:#707070;}.f{fill:#464646;}.g,.i,.k{isolation:isolate;}.h,.k{fill:#b7b7b7;}.i{fill:#959595;}.j{fill:#a1a1a1;}</style></defs><title>apple-icon</title><rect class="a" width="1125" height="2436"/><circle class="b" cx="562.5" cy="1218" r="358.1"/><rect class="c" x="430.7" y="935.9" width="281.2" height="563.75" rx="42.2"/><path class="d" d="M571.7,1443a20.9,20.9,0,1,1-20.8,20.9h0a20.9,20.9,0,0,1,20.8-20.9m0-1.4a22.3,22.3,0,1,0,22.3,22.3h0a22.3,22.3,0,0,0-22.3-22.3Z"/><path class="d" d="M576.4,1455.3a3.9,3.9,0,0,1,4,3.9v9.5a4,4,0,0,1-4,4H567a4,4,0,0,1-4-4v-9.5a3.9,3.9,0,0,1,4-3.9h9.4m0-1.5H567a5.4,5.4,0,0,0-5.4,5.4v9.5a5.4,5.4,0,0,0,5.4,5.3h9.4a5.4,5.4,0,0,0,5.4-5.3v-9.5A5.4,5.4,0,0,0,576.4,1453.8Z"/><path class="e" d="M591.2,985.1H551.4a5.4,5.4,0,0,0,0,10.8h39.8a5.4,5.4,0,0,0,0-10.8Z"/><path class="f" d="M571.4,962.5a5.1,5.1,0,0,0,0,10.2,5.1,5.1,0,0,0,0-10.2Z"/><g class="g"><path class="h" d="M547.5,1200.9c0,9.6,6.1,17.1,12.3,21.1l-4.3,37.2H562l10.6-84.2C558.8,1174.9,547.5,1186.6,547.5,1200.9Z"/></g><path class="i" d="M596.6,1200.8c0-15.1-13-25.9-24-25.9-3.2,0-19.2,9.2-19.2,24.6,0,12.5,7.3,17.8,12.3,21.8l-3.7,37.8h27.3l-4.6-37.7C590.8,1217.1,596.6,1211.7,596.6,1200.8Z"/><g class="g"><path class="h" d="M443.2,1141.9c-20.8,0-37.7,26.5-37.7,59.2s16.9,59.2,37.7,59.2,37.7-26.5,37.7-59.2S464,1141.9,443.2,1141.9Zm-4.7,95.2c-12.1,0-21.9-16.3-21.9-36.5s9.8-36.6,21.9-36.6,21.9,16.4,21.9,36.6S450.6,1237.1,438.5,1237.1Z"/><path class="i" d="M405.6,1201.1c0-32.6,16.9-59.1,37.7-59.1a26.9,26.9,0,0,0-4-.3c-23.1,0-41.8,26.7-41.8,59.7s18.7,59.7,41.8,59.7a28.2,28.2,0,0,0,8.7-1.3,24.2,24.2,0,0,1-4.7.5C422.5,1260.3,405.6,1233.8,405.6,1201.1Z"/><path class="i" d="M438.5,1164c12.1,0,21.9,16.2,21.9,36.3s-9.8,36.6-21.9,36.6h-1.6a19.5,19.5,0,0,0,4.2.1c14.6,0,26.2-16.8,26.2-37.6s-10.3-37.8-24.8-37.6a19.1,19.1,0,0,0-7.3,1.8,11,11,0,0,0-2.7,1.7,15.1,15.1,0,0,1,6-1.4"/></g><path class="j" d="M565.8,1185.8v28.6h26.5a21.2,21.2,0,0,0,4.3-13.6,26,26,0,0,0-4.8-15Z"/><path class="k" d="M578.6,1214.4H480l-.3-28.6h86.1a13,13,0,0,1,9.7,4.4c3.6,4.4,3.1,8.4,3.1,8.4Z"/><polygon class="j" points="578.6 1214.4 480 1214.4 480.9 1201.1 578.6 1201.9 578.6 1214.4"/></svg>