<svg xmlns="http://www.w3.org/2000/svg" viewBox="0 0 400 400"><defs><style>.a{fill:#fff;}.b{fill:#dbdbdb;}.c{fill:#b4b4b4;}.d{fill:#707070;}.e{fill:#464646;}.f,.h,.j{isolation:isolate;}.g,.j{fill:#b7b7b7;}.h{fill:#959595;}.i{fill:#a1a1a1;}</style></defs><title>icon</title><circle class="a" cx="200" cy="200" r="200"/><path class="b" d="M150,42.5h110A23.5,23.5,0,0,1,283.5,66V333.7a23.5,23.5,0,0,1-23.5,23.5H150a23.6,23.6,0,0,1-23.6-23.6V66A23.5,23.5,0,0,1,150,42.5Z"/><path class="c" d="M207,325.7a11.7,11.7,0,1,1-11.6,11.7h0A11.6,11.6,0,0,1,207,325.7m0-.8a12.5,12.5,0,1,0,12.4,12.4h0A12.4,12.4,0,0,0,207,324.9Z" transform="translate(0)"/><path class="c" d="M209.6,332.5a2.2,2.2,0,0,1,2.2,2.2V340a2.2,2.2,0,0,1-2.2,2.2h-5.2a2.2,2.2,0,0,1-2.3-2.2v-5.3a2.2,2.2,0,0,1,2.3-2.2h5.2m0-.8h-5.2a2.9,2.9,0,0,0-3,3V340a3,3,0,0,0,3,3h5.2a3,3,0,0,0,3-3v-5.3A2.9,2.9,0,0,0,209.6,331.7Z" transform="translate(0)"/><path class="d" d="M216.8,69.9H194.5a3.1,3.1,0,0,0-3,3,3,3,0,0,0,3,3h22.3a3,3,0,0,0,3-3,3.1,3.1,0,0,0-3-3Z" transform="translate(0)"/><path class="e" d="M205.6,57.3a2.9,2.9,0,1,0,2.9,2.9,2.9,2.9,0,0,0-2.9-2.9Z" transform="translate(0)"/><g class="f"><path class="g" d="M191.6,190.5c0,5.3,3.4,9.5,6.9,11.7L196.1,223h3.6l5.9-47.1C198,175.9,191.6,182.4,191.6,190.5Z" transform="translate(0)"/></g><path class="h" d="M219.1,190.4c0-8.4-7.3-14.5-13.5-14.5-1.8,0-10.7,5.2-10.7,13.8,0,6.9,4.1,9.9,6.9,12.1L199.7,223H215l-2.6-21C215.8,199.5,219.1,196.5,219.1,190.4Z" transform="translate(0)"/><g class="f"><path class="g" d="M133.4,157.5c-11.7,0-21.1,14.8-21.1,33.1s9.4,33,21.1,33,21.1-14.8,21.1-33S145,157.5,133.4,157.5Zm-2.7,53.2c-6.7,0-12.2-9.2-12.2-20.4s5.5-20.5,12.2-20.5S143,179,143,190.3,137.5,210.7,130.7,210.7Z" transform="translate(0)"/><path class="h" d="M112.4,190.6c0-18.3,9.4-33,21-33.1h-2.2c-12.9,0-23.4,14.9-23.4,33.3s10.5,33.4,23.4,33.4a20,20,0,0,0,4.9-.7l-2.6.2C121.8,223.6,112.4,208.8,112.4,190.6Z" transform="translate(0)"/><path class="h" d="M130.7,169.8c6.8,0,12.3,9.1,12.3,20.3s-5.5,20.5-12.3,20.5h-.9a9.7,9.7,0,0,0,2.4.1c8.1,0,14.6-9.4,14.6-21s-5.7-21.1-13.8-21a10.3,10.3,0,0,0-4.1,1,7,7,0,0,0-1.5.9,8.4,8.4,0,0,1,3.3-.8" transform="translate(0)"/></g><path class="i" d="M201.8,182v16h14.9a12.3,12.3,0,0,0,2.4-7.6,14.1,14.1,0,0,0-2.8-8.4Z" transform="translate(0)"/><path class="j" d="M209,198H153.9l-.2-16h48.1a7.2,7.2,0,0,1,5.4,2.5,6.4,6.4,0,0,1,1.8,4.7Z" transform="translate(0)"/><polygon class="i" points="209 198 153.9 198 154.5 190.6 209 191 209 198"/></svg>