<svg xmlns="http://www.w3.org/2000/svg" viewBox="0 0 90 90" fill-rule="evenodd"><rect width="90" height="90" fill="#0053ac" rx="45"/><path fill="#fff" d="M39.462 30.409c5.251-6.147 20.923-3.636 25.538-1.774V13.284c-7.14-1.258-17.429-1.913-24.997-.44-10.074 1.969-19.154 8.147-22.995 19.063-1.07 3.064-2.09 7.902-2.002 13.174-.094 5.272.907 10.029 2.002 13.086 4.049 11.45 11.101 17.125 22.982 19.063 7.594 1.309 17.844.805 24.997-.44V61.439c-4.848 2.095-19.141 3.171-24.821-1.856-4.017-3.548-5.144-11.199-5.018-14.47-.126-3.334-.151-9.418 4.3-14.628"/></svg>