<svg xmlns="http://www.w3.org/2000/svg" viewBox="0 0 90 90"><path fill="#278EF5" d="M71.195 20.91C68.504 8.942 57.815 0 45.033 0 31.241 0 19.88 10.428 18.393 23.829c5.98-1.096 16.7 1.302 21.16 4.482l8.887 5.078 9.223 5.284c.684.39 1.096.858 1.227 1.606 6.033-4.09 12.588-12.836 12.305-19.369"/><path fill="#5EBCFF" d="M58.912 68.015h7.27C79.278 68.015 90 57.293 90 44.197c0-10.754-7.216-19.901-17.048-22.83-.043 10.101-9.223 18.283-17.33 23.004l-7.128 4.156-9.18 5.349a2.59 2.59 0 01-1.726.325c2.27 9.505 11.796 12.956 21.324 13.814"/><path fill="#0463C2" d="M18.252 25.641C7.965 27.128 0 36.037 0 46.725c0 11.708 9.581 21.29 21.29 21.29h10.666C42.936 68.015 39.69 90 39.69 90l16.55-20.53c-10.362-1.454-20.79-6.847-20.844-18.674l-.033-9.788-.043-10.623a2.496 2.496 0 01.716-1.812c-5.196-2.205-12.532-3.832-17.784-2.932"/></svg>