<svg xmlns="http://www.w3.org/2000/svg" width="140" height="140"><circle cx="70" cy="70" r="70" opacity=".98" fill="#0082c9"/><path style="line-height:normal;text-indent:0;text-align:start;text-decoration-line:none;text-decoration-style:solid;text-decoration-color:#000;text-transform:none;block-progression:tb;isolation:auto;mix-blend-mode:normal" d="M70.076 37.475c-10.365 0-19.15 7.027-21.873 16.548-2.367-5.05-7.495-8.588-13.402-8.588C26.678 45.435 20 52.113 20 60.236c0 8.123 6.678 14.804 14.8 14.804 5.908 0 11.036-3.54 13.403-8.59C50.925 75.97 59.71 83 70.076 83c10.289 0 19.03-6.923 21.822-16.337 2.41 4.936 7.475 8.377 13.298 8.377 8.123 0 14.804-6.68 14.804-14.804 0-8.123-6.68-14.8-14.804-14.8-5.823 0-10.888 3.438-13.298 8.374-2.792-9.414-11.533-16.335-21.822-16.335zm0 8.689a14.008 14.008 0 0 1 14.076 14.072 14.01 14.01 0 0 1-14.076 14.075 14.008 14.008 0 0 1-14.072-14.075 14.005 14.005 0 0 1 14.072-14.072zm-35.275 7.96c3.428 0 6.115 2.684 6.115 6.112s-2.687 6.116-6.115 6.116c-3.428 0-6.113-2.688-6.113-6.116 0-3.428 2.685-6.112 6.113-6.112zm70.395 0c3.428 0 6.116 2.684 6.116 6.112s-2.688 6.116-6.116 6.116c-3.428 0-6.112-2.688-6.112-6.116 0-3.428 2.684-6.112 6.112-6.112z" color="#000" font-weight="400" font-family="sans-serif" white-space="normal" overflow="visible" fill="#fff"/><g fill="#fff"><path d="M45.558 93.46c2.437 0 3.8 1.734 3.8 4.336a.458.458 0 0 1-.455.454h-6.567c.042 2.313 1.653 3.635 3.511 3.635a3.849 3.849 0 0 0 2.396-.826c.247-.165.454-.124.578.124l.124.206c.124.207.082.413-.124.578a5.119 5.119 0 0 1-3.015.992c-2.685 0-4.75-1.941-4.75-4.75.041-2.974 2.024-4.75 4.502-4.75zm2.52 3.882c-.083-1.9-1.24-2.85-2.561-2.85-1.528 0-2.85.991-3.14 2.85h5.7zM61.76 94.781v-3.18c0-.29.166-.454.455-.454h.33c.29 0 .413.165.413.454v2.148h1.859c.289 0 .454.165.454.454v.124c0 .289-.165.413-.454.413h-1.859v4.543c0 2.106 1.28 2.354 1.983 2.395.371.042.495.124.495.455v.247c0 .29-.124.413-.495.413-1.983 0-3.18-1.197-3.18-3.345v-4.667zM71.218 93.46c1.57 0 2.561.66 3.015 1.032.207.165.248.372.042.62l-.124.206c-.165.248-.372.248-.62.083-.413-.29-1.197-.826-2.271-.826-1.983 0-3.552 1.486-3.552 3.675 0 2.148 1.57 3.635 3.552 3.635a3.82 3.82 0 0 0 2.56-.95c.248-.165.413-.124.579.124l.123.165c.124.248.083.413-.123.62A5.082 5.082 0 0 1 71.177 103c-2.684 0-4.75-1.941-4.75-4.75.042-2.808 2.107-4.79 4.791-4.79zM76.711 90.527c0-.289-.165-.454.124-.454h.33c.29 0 .744.165.744.454v9.871c0 1.156.537 1.28.95 1.322.207 0 .372.124.372.413v.289c0 .289-.124.454-.455.454-.743 0-2.065-.248-2.065-2.23V90.527zM85.178 93.46c2.643 0 4.791 2.023 4.791 4.708 0 2.726-2.148 4.79-4.79 4.79-2.644 0-4.792-2.064-4.792-4.79 0-2.685 2.148-4.709 4.791-4.709zm0 8.425c1.941 0 3.51-1.57 3.51-3.717 0-2.065-1.569-3.593-3.51-3.593a3.56 3.56 0 0 0-3.552 3.593c.042 2.106 1.611 3.717 3.552 3.717zM105.787 93.46c2.19 0 2.974 1.817 2.974 1.817h.041s-.041-.29-.041-.702v-4.09c0-.288-.124-.454.165-.454h.33c.29 0 .744.166.744.455v11.77c0 .29-.124.455-.413.455h-.29c-.288 0-.453-.124-.453-.413v-.702c0-.33.082-.578.082-.578h-.041s-.785 1.9-3.139 1.9c-2.437 0-3.965-1.942-3.965-4.75-.082-2.809 1.61-4.709 4.006-4.709zm.042 8.425c1.528 0 2.932-1.074 2.932-3.676 0-1.858-.95-3.634-2.891-3.634-1.61 0-2.932 1.321-2.932 3.634.04 2.23 1.197 3.676 2.89 3.676zM30.413 102.752h.33c.29 0 .455-.165.455-.454V93.43c0-1.405 1.528-2.407 3.263-2.407 1.734 0 3.262 1.002 3.262 2.407v8.868c0 .289.165.454.455.454h.33c.29 0 .413-.165.413-.454v-8.921c0-2.354-2.354-3.51-4.502-3.51-2.065 0-4.419 1.156-4.419 3.51v8.92c0 .29.124.455.413.455zM99.344 93.666h-.33c-.29 0-.454.165-.454.454v4.998c0 1.404-.909 2.684-2.685 2.684-1.735 0-2.684-1.28-2.684-2.684V94.12c0-.289-.166-.454-.455-.454h-.33c-.29 0-.413.165-.413.454v5.328c0 2.354 1.734 3.51 3.882 3.51s3.882-1.156 3.882-3.51V94.12c.042-.289-.124-.454-.413-.454zM58.46 93.598c-.101.016-.199.084-.291.195l-1.672 1.992-1.251 1.49-1.894-2.257-1.028-1.225a.459.459 0 0 0-.307-.181.458.458 0 0 0-.333.125l-.253.212c-.222.186-.21.392-.025.613l1.673 1.993 1.386 1.652-2.03 2.419-.004.005-1.025 1.221c-.186.221-.165.455.057.64l.253.212c.222.186.422.139.608-.082l1.672-1.993 1.25-1.49 1.895 2.257.004.004 1.024 1.222c.186.221.419.241.64.055l.253-.212c.222-.186.21-.392.025-.613l-1.673-1.992-1.386-1.653 2.03-2.419.004-.005 1.025-1.22c.185-.222.165-.455-.057-.641l-.253-.212c-.11-.093-.216-.128-.317-.112z"/></g></svg>