<svg version="1.1" viewBox="0 0 90 90" xmlns="http://www.w3.org/2000/svg"><path d="m57.855 25.713 0.23074 0.0040598c3.446 0.12145 6.1998 2.9526 6.1998 6.4264v51.428l-0.0040571 0.23061c-0.12137 3.4441-2.9507 6.1979-6.4265 6.1979h-51.427l-0.23061-0.004057c-3.4442-0.12137-6.198-2.9506-6.198-6.4244v-51.428l0.0040571-0.23061c0.12137-3.4442 2.9507-6.1998 6.4245-6.1998h51.427zm19.288-25.713c7.1001 0 12.857 5.755 12.857 12.857l-0.00158 44.999c-7.1001 0-12.857-5.755-12.857-12.855l0.00158-25.716c0-3.551-2.8795-6.4285-6.4286-6.4285h-25.714c-7.1001 0-12.857-5.757-12.857-12.857h45z" fill="#FF8802"/></svg>
