<svg xmlns="http://www.w3.org/2000/svg" xmlns:xlink="http://www.w3.org/1999/xlink" width="78.785" height="78.785"><defs><linearGradient id="a" gradientUnits="userSpaceOnUse"><stop offset="0" stop-color="#ffe500"/><stop offset=".03" stop-color="#fedd00"/><stop offset=".11" stop-color="#fcca00"/><stop offset=".19" stop-color="#fbbf00"/><stop offset=".28" stop-color="#fbbb00"/><stop offset=".67" stop-color="#ef8034"/><stop offset=".89" stop-color="#ea6033"/><stop offset="1" stop-color="#e63430"/></linearGradient><linearGradient id="c" x1="65.328" y1="15.484" x2="26.756" y2="53.505" xlink:href="#a"/><linearGradient xlink:href="#a" id="b" x1="71.067" y1="55.585" x2="32.495" y2="17.575"/></defs><path d="M23.536 58.154H2.89a3.442 3.442 0 01-2.775-2.466c-.54-2.007.93-3.636 1.846-4.44l1.48-1.33 1.88-1.663 9.175-7.834 1.365-1.147a34.94 34.94 0 002.673-2.294 7.477 7.477 0 002.225-5.448 4.82 4.82 0 00-1.686-3.567 7.511 7.511 0 00-5.605-1.697 11.18 11.18 0 00-7.39 4.025 2.77 2.77 0 11-4.267-3.532 16.826 16.826 0 0111.148-6.013 12.9 12.9 0 019.669 2.962 10.322 10.322 0 013.67 7.57 13.007 13.007 0 01-3.773 9.6 39.625 39.625 0 01-3.1 2.707l-1.284 1.032-9.173 7.822-.218.207h14.784a2.77 2.77 0 110 5.539z"/><circle cx="75.986" cy="23.459" r="2.787"/><path d="M53.38 58.142a2.772 2.772 0 11-.746-5.493 13.763 13.763 0 000-26.552 2.764 2.764 0 111.48-5.276 19.3 19.3 0 010 37.218 2.762 2.762 0 01-.734.103z" fill="url(#b)"/><path d="M44.525 58.142a2.762 2.762 0 01-.745-.1 19.3 19.3 0 010-37.218 2.769 2.769 0 111.49 5.33 13.763 13.763 0 000 26.552 2.764 2.764 0 01-.734 5.436z" fill="url(#c)"/><path d="M76.01 58.142a2.764 2.764 0 01-2.764-2.764v-20.37c0-3.693 5.54-3.693 5.54 0v20.36a2.764 2.764 0 01-2.753 2.775z"/></svg>