<svg xmlns="http://www.w3.org/2000/svg" viewBox="0 0 20.57 39.8"><path fill="#92c746" d="M.34 29.21a3.16 3.16 0 0 0 1.47 4.28 3.3 3.3 0 0 0 4.38-1.43l1.32-2.58-2.72-8.95ZM18.77.34a3.3 3.3 0 0 0-4.38 1.42L9.06 12.18l2.72 8.95 8.45-16.51c.8-1.58.15-3.5-1.46-4.28"/><path fill="#d50f67" d="M9.95 37.52A3.28 3.28 0 0 0 14 39.67a3.18 3.18 0 0 0 2.2-3.97l-4.42-14.57-4.27 8.35 2.44 8.04ZM7.27 6.28a3.28 3.28 0 0 0-4.06-2.15 3.18 3.18 0 0 0-2.2 3.97l3.78 12.43 4.27-8.35z"/><path fill="#3ba510" d="m4.79 20.53 2.72 8.95 4.27-8.35-2.72-8.95z"/></svg>
