<svg xmlns="http://www.w3.org/2000/svg" height="69.611" width="69.611"><mask id="a" fill="#fff"><path d="M0 .071v23.263h12.808V.07z" fill-rule="evenodd"/></mask><g fill-rule="evenodd"><path d="M.572 15.297a5.578 5.578 0 1010.014 4.915l2.222-4.527L8.046.071z" mask="url(#a)" transform="translate(17.425 35.966)" fill="#7ac043"/><path d="M49.098.572a5.576 5.576 0 00-7.466 2.548l-8.966 18.264 4.762 15.613L51.645 8.035A5.576 5.576 0 0049.098.572" fill="#7ac043"/><path d="M34.507 65.662a5.575 5.575 0 006.96 3.706 5.577 5.577 0 003.71-6.962l-7.75-25.408-7.194 14.653 4.274 14.01zm-4.974-54.553a5.579 5.579 0 00-10.672 3.252l6.61 21.677 7.195-14.654-3.133-10.276z" fill="#d50f67"/><path d="M25.47 36.037l4.763 15.614 7.195-14.654-4.762-15.613z" fill="#49a847"/></g></svg>