<svg xmlns="http://www.w3.org/2000/svg" xmlns:xlink="http://www.w3.org/1999/xlink" viewBox="0 0 85.88 100" xml:space="preserve"><rect x="7.94" y="8" fill="#FFFFFF" width="70" height="84"/><path fill="#4D5C6A" d="M14.62,8.3c-3.49,0.01-6.32,2.84-6.31,6.33c0,0.01,0,0.01,0,0.02v70.74c0.01,3.48,2.83,6.3,6.31,6.31h56.65 c3.48-0.01,6.3-2.83,6.3-6.31V14.65c0-3.48-2.82-6.3-6.3-6.31L14.62,8.3z M71.28,100H14.62C6.56,99.99,0.02,93.46,0,85.4V14.65 C-0.01,6.57,6.53,0.01,14.61,0c0,0,0.01,0,0.01,0h56.65c8.08,0.01,14.62,6.57,14.61,14.65c0,0,0,0,0,0v70.74 C85.88,93.45,79.34,99.99,71.28,100"/><path fill="#6A98D0" d="M67.76,28.38c0-2.18-2.1-4-4.75-4.09l0,0H23.2c-2.79,0-5.06,1.84-5.06,4.11s2.27,4.11,5.06,4.11h39.82 c2.64-0.13,4.74-1.91,4.74-4.1"/><path fill="#45A77B" d="M67.76,71.15c0-2.18-2.1-4-4.75-4.09l0,0H23.2c-2.79,0-5.06,1.84-5.06,4.11s2.27,4.11,5.06,4.11h39.82 c2.64-0.14,4.74-1.92,4.74-4.1"/><path fill="#E82037" d="M67.76,50c0-2.18-2.1-4-4.75-4.09l0,0H23.2c-2.79,0-5.06,1.84-5.06,4.11s2.27,4.11,5.06,4.11h39.82 c2.64-0.14,4.74-1.92,4.74-4.1"/></svg>