<svg xmlns="http://www.w3.org/2000/svg" version="1.1" id="Layer_1" x="0" y="0" width="40.1" height="40.1" xml:space="preserve"><style type="text/css" id="style2365">.st2{fill:#fff}</style><g id="g2438" transform="translate(0 2.2)"><path d="M40.1 10.7C40 4.8 35.3 0 29.4 0H0v25c0 5.9 4.8 10.6 10.7 10.7h29.4z" id="path2391" fill="#00ae64"/><path class="st2" d="M29.4 1.9H1.9V25c0 4.8 3.9 8.7 8.7 8.7h27.5V10.6c0-4.8-3.9-8.7-8.7-8.7" id="path2393" fill="#fff"/><path d="M29.3 3.2H3.2V25c0 4.2 3.4 7.5 7.5 7.5h26.2V10.7c0-4.1-3.4-7.5-7.6-7.5" id="path2395" fill="#1b459c"/><path class="st2" d="M18 29l6-22.8h-1.4l-6 22.9zm12.2-7.8c1-.2 1.9-.6 2.6-1.4.6-.8.9-1.8.6-2.8-.2-.9-.8-1.7-1.6-2.3-.7-.5-1.5-.8-2.3-.8h-6.4c1.6.5 2.8 1.7 3.3 3.3 0 0 1 3.1-3.2 4 0 0-.1 0 0 0 .8.3 1.5.8 2.2 1.5.5.5.8 1.2 1 1.8.7 3.3-3.3 4.1-3.3 4.1h6.2c2.2 0 3.1-1.2 3.3-1.4.7-.7 1-1.7.8-2.7-.2-.8-.6-1.6-1.3-2.1-.5-.5-1.2-.9-1.9-1.2M17 19.8c.6-.6.8-1.9.5-3-.3-1-.9-1.9-1.7-2.5-.7-.5-1.5-.9-2.4-1H6.6c1.7.5 3 1.8 3.6 3.5.7 3.5-3.3 4.2-3.3 4.2h7.5c.9 0 1.9-.4 2.6-1.2m-.7-13l-.1 5.1H6.5V6.8z" id="path2397" fill="#fff"/></g></svg>