<svg version="1" xmlns="http://www.w3.org/2000/svg" width="346.667" height="346.667" viewBox="0 0 260.000000 260.000000"><path d="M0 130v80h36.5c20.1 0 36.5-.2 36.5-.3 0-.2-2.8-2.6-6.1-5.3-3.4-2.7-9-8.5-12.5-12.9C30.3 161.4 26.2 118.8 44.1 84c5-9.7 15-22.2 22.8-28.4 3.3-2.7 6.1-5.1 6.1-5.3 0-.1-16.4-.3-36.5-.3H0v80z"/><path d="M117.5 50.9c-6.3 1-22.4 6.6-27.3 9.4-18.6 10.7-31 27.1-37.4 49.3-3.2 11.2-3.2 29.6 0 40.8 5.4 18.9 14.2 32.3 28.2 43 8.1 6.2 12 8.2 23.8 12.3 10.4 3.5 11.1 3.6 25.2 3.6s14.8-.1 25.2-3.6c5.9-2 12.4-4.7 14.5-5.9 19.6-11.4 32.5-29 38.4-52.8 1.7-7.1 1.7-26.9 0-34-5.9-23.8-18.8-41.4-38.4-52.8-2.1-1.2-8.6-3.8-14.4-5.7-9-3-12.3-3.7-21.7-4-6.1-.2-13.3 0-16.1.4z"/><path d="M191 53.7c11.8 9.8 21.2 21.9 27.4 35.5 3.4 7.3 7.6 22.1 7.6 26.5 0 1.3.5 2.3 1 2.3.6 0 1 4.7 1 12s-.4 12-1 12c-.5 0-1 1-1 2.3 0 4.4-4.2 19.2-7.6 26.5-6.2 13.6-15.6 25.7-27.4 35.5l-4.5 3.7H260V50h-73.5l4.5 3.7z"/></svg>