<?xml version="1.0" standalone="no"?>
<!DOCTYPE svg PUBLIC "-//W3C//DTD SVG 20010904//EN"
 "http://www.w3.org/TR/2001/REC-SVG-20010904/DTD/svg10.dtd">
<svg version="1.0" xmlns="http://www.w3.org/2000/svg"
 width="1200.000000pt" height="1200.000000pt" viewBox="0 0 1200.000000 1200.000000"
 preserveAspectRatio="xMidYMid meet">
<metadata>
Created by potrace 1.11, written by Peter Selinger 2001-2013
</metadata>
<g transform="translate(0.000000,1200.000000) scale(0.100000,-0.100000)"
fill="#000000" stroke="none">
<path d="M5695 11949 c-451 -30 -925 -137 -1354 -305 -288 -113 -702 -339
-964 -525 -355 -254 -709 -597 -976 -948 -1030 -1352 -1217 -3168 -486 -4706
168 -354 403 -713 668 -1021 119 -138 400 -413 535 -524 434 -356 951 -641
1475 -814 1002 -330 2086 -296 3080 96 182 72 544 255 714 363 293 183 515
358 767 605 183 179 308 319 445 499 1236 1623 1236 3879 0 5502 -137 180
-262 320 -445 499 -252 247 -474 422 -767 605 -171 108 -532 291 -715 363
-632 250 -1309 356 -1977 311z m172 -1680 c13 -41 60 -220 105 -398 l82 -323
70 5 c433 35 608 32 781 -13 254 -66 435 -234 549 -507 62 -149 71 -194 71
-358 -1 -138 -3 -157 -28 -230 -36 -103 -94 -200 -174 -292 -36 -41 -63 -76
-61 -77 1 -1 55 -8 118 -14 424 -43 662 -235 789 -635 47 -149 64 -276 58
-436 -11 -290 -110 -516 -310 -708 -164 -157 -377 -272 -770 -413 l-148 -54 7
-50 c9 -72 64 -304 129 -547 30 -114 55 -209 55 -212 0 -20 -475 -136 -491
-120 -5 5 -51 175 -103 378 -52 204 -98 378 -102 389 -9 24 -47 19 -247 -31
l-147 -38 6 -35 c4 -19 46 -194 95 -388 49 -194 89 -361 89 -372 0 -22 -6 -24
-231 -74 -85 -19 -176 -41 -202 -50 -36 -11 -49 -11 -52 -3 -15 42 -92 336
-135 517 -28 118 -55 231 -60 251 l-10 37 -108 -23 c-218 -48 -502 -116 -685
-166 -104 -28 -191 -49 -193 -46 -11 11 -54 473 -54 582 0 34 34 48 170 69
151 24 223 50 275 100 35 33 45 50 50 89 10 64 -7 166 -56 335 -22 75 -141
541 -264 1034 -124 494 -231 914 -239 933 -43 101 -113 145 -235 145 -77 0
-126 -10 -310 -66 -62 -19 -119 -34 -126 -34 -13 0 -53 133 -94 310 -11 47
-29 115 -40 152 l-19 66 496 123 c274 67 498 123 500 124 1 2 -43 184 -98 405
-55 221 -99 404 -98 405 10 9 484 122 490 117 7 -7 145 -554 173 -687 10 -44
20 -83 24 -88 6 -6 365 84 376 94 9 9 -29 184 -102 471 -42 169 -74 310 -70
314 9 10 459 124 472 120 5 -1 20 -36 32 -77z"/>
<path d="M5878 8895 c-48 -8 -127 -23 -175 -35 -88 -20 -375 -100 -381 -105
-4 -4 110 -480 163 -680 66 -245 85 -305 96 -305 33 0 252 57 363 94 591 197
810 504 597 834 -58 88 -143 151 -260 189 -66 21 -294 26 -403 8z"/>
<path d="M6460 7449 c-126 -14 -350 -62 -573 -122 -108 -30 -199 -56 -201 -58
-3 -2 15 -73 39 -157 24 -84 71 -268 105 -410 89 -372 120 -496 129 -505 10
-10 459 102 613 154 228 76 413 181 508 287 138 154 179 371 102 536 -59 125
-188 224 -343 261 -81 19 -269 27 -379 14z"/>
<path d="M1460 2092 l0 -2092 4540 0 4540 0 0 2092 c0 1153 -4 2088 -9 2083
-4 -6 -47 -62 -94 -125 -201 -271 -511 -608 -762 -829 -819 -724 -1809 -1183
-2877 -1335 -313 -45 -406 -51 -798 -51 -392 0 -485 6 -798 51 -1068 152
-2058 611 -2877 1335 -251 221 -561 558 -762 829 -47 63 -90 119 -94 125 -5 5
-9 -930 -9 -2083z"/>
</g>
</svg>
