<svg xmlns="http://www.w3.org/2000/svg" viewBox="0 0 512 512"><path fill="#FFB319" d="M410 0H102C46 0 0 46 0 102v308c0 56 46 102 102 102h308c56 0 102-46 102-102V102C512 46 466 0 410 0Z"/><path fill="#191919" d="M298 376h-87c-23 0-27-26-23-36 2-5 7-12 12-18a116 116 0 0 0 56 15 117 117 0 0 0 117-117 116 116 0 0 0-39-87l3-2a30 30 0 0 1 24-9l14 2V66h-24a67 67 0 0 0-62 42 116 116 0 0 0-33-5 117 117 0 0 0-83 35 117 117 0 0 0-34 82 116 116 0 0 0 23 69l-7 6a45 45 0 0 0-3 3 87 87 0 0 0-29 83c4 17 19 36 34 45a68 68 0 0 0 36 11l97-4a32 32 0 0 1 27 15l12 22 61-20-11-22a90 90 0 0 0-81-52Zm-42-212a56 56 0 0 1 56 56 56 56 0 0 1-56 56 56 56 0 0 1-56-56 56 56 0 0 1 56-56Z"/></svg>