<svg width="280" height="280" xmlns="http://www.w3.org/2000/svg"><path style="fill:#f5cb44" d="M0 140V0h280v280H0Z"/><path style="fill:#0a0b07" d="M45.613 162.953 34.965 149.95l9.178-11.974C49.19 131.389 53.598 126 53.937 126c.497 0 4.134 2.224 5.948 3.637.211.164-3.051 4.57-7.25 9.792-4.2 5.22-7.635 9.767-7.635 10.104 0 .337 3.825 5.098 8.5 10.581s8.5 10.33 8.5 10.773c0 .814-2.573 3.287-4.62 4.44-.645.363-5.626-4.875-11.767-12.374zm32.422 11.785c-4.786-1.71-8.036-6.824-8.031-12.636.008-9.994 6.785-15.042 20.246-15.08L98 147v-4.545c0-3.547-.564-5.11-2.567-7.113-2.368-2.368-3.044-2.52-8.75-1.968-3.4.329-7.475.717-9.054.862-2.213.203-3.07-.265-3.738-2.042-.763-2.028-.417-2.509 2.87-3.993 5.701-2.573 19.2-2.355 22.916.37 5.66 4.153 6.32 7.038 6.321 27.679L106 175h-3c-2.242 0-3-.463-3-1.833 0-2.924-.732-2.992-5.76-.536-6.014 2.938-11.782 3.688-16.205 2.107zm15.003-7.988 4.462-2.25.302-6.4.301-6.399-7.258.609c-9.256.776-12.224 2.767-12.65 8.485-.584 7.853 5.912 10.459 14.843 5.955zm49.522-3.506c-5.795-7.01-10.54-12.969-10.542-13.244-.01-1 18.094-24 18.892-24 .451 0 1.999.927 3.439 2.06l2.618 2.06-7.483 9.304c-4.116 5.118-7.484 9.626-7.484 10.02 0 .392 3.712 5.194 8.25 10.67 4.537 5.476 8.37 10.3 8.517 10.72.146.421-1.07 1.753-2.702 2.96l-2.967 2.194zm32.773 11.68c-1.742-.516-4.33-2.32-5.75-4.008-2.137-2.54-2.583-4.085-2.583-8.958 0-5.152.386-6.328 3.082-9.399 3.697-4.21 7.945-5.546 17.668-5.553L195 147v-3.55c0-4.132-2.222-8.938-4.545-9.829-2.703-1.037-10.733-.612-14.613.773-3.515 1.256-3.703 1.207-4.824-1.253-.982-2.155-.885-2.765.612-3.86 4.86-3.553 17.661-4.392 23.336-1.53 6.667 3.364 7.493 6.304 7.86 27.999l.327 19.25h-3.057c-2.397 0-3.189-.52-3.662-2.408l-.605-2.408-4.664 2.342c-5.558 2.79-11.484 3.688-15.832 2.399zm14.705-8.174 4.462-2.25.302-6.398.301-6.398-7.426.561c-8.58.649-11.277 1.993-12.71 6.333-2.872 8.705 5.255 13.102 15.071 8.152zm37.617 7.791c-4.775-1.702-8.218-4.852-10.975-10.041-3.077-5.79-3.074-21.22.006-27 4.28-8.032 10.253-11.5 19.806-11.5 7.204 0 13.175 3.31 16.94 9.39 2.473 3.992 3.002 6.041 3.37 13.055.32 6.082-.015 9.68-1.242 13.375-3.726 11.219-16.187 16.9-27.905 12.721zm14.378-7.058c4.722-2.442 6.396-6.757 6.396-16.483 0-12.565-3.741-18.133-12.336-18.359-8.794-.23-13.093 5.631-13.093 17.851 0 8.632 1.549 13.221 5.514 16.34 3.282 2.582 9.231 2.868 13.519.651zM24 141.06c0-18.668.338-34.14.75-34.382.412-.243 2.212-.755 4-1.139l3.25-.697V175h-8zm97 0c0-18.668.338-34.14.75-34.382.412-.243 2.212-.755 4-1.139l3.25-.697V175h-8z"/></svg>