<svg xmlns="http://www.w3.org/2000/svg" width="63.92" height="63.92"><g fill-rule="evenodd"><path d="M3.638 51.508c.125-.05.895.41.895.41l16.817-8.732s.12-.71.342-.85c-.226-.274.227-.475 0-.746-2.718-3.224-5.75-6.584-8.792-9.497-.092-.09-.73.05-.823-.04-.18.173-.925.04-.925.04L4.116 38.36s-.294.847-.478.992v12.156" fill="#fa8176"/><path d="M57.726 63.92c2.043 0 2.798-1.447 2.043-2.746a114.366 114.366 0 00-24.16-29.08c-.356-.04-1.105-.04-1.105-.04L21.692 41.59s-.043.42 0 .745c.11.135-.043.725-.043.725l13.52 20.693s.316-.038.42.167h22.136z" fill="#f37036"/><path d="M3.638 61.265c0 1.57.917 2.655 2.475 2.655H35.59c-3.956-7.8-8.385-14.915-13.898-21.585a112.353 112.353 0 01-18.054 9.173z" fill="#f15713"/><path d="M60.06 2.514C60.7 1.4 59.88 0 58.6 0H35.936c-.105.208-.76.486-.76.486L21.758 20.55s.03 1.105-.11 1.273c.235.147.11.867.11.867s8.89 6.12 12.747 9.364c.352.297.756-.26 1.104.04a114.404 114.404 0 0024.45-29.58" fill="#85b8c1"/><path d="M3.638 24.757c1.405 3.305 5.083 6.587 8.44 7.297.188-.18.634.22.822.04 2.93-2.823 5.644-5.672 8.27-8.786.22-.26.26-1.22.48-1.485-3.782-5.75-13.793-9.5-18.012-9.144v12.077" fill="#f39d90"/><path d="M3.638 3.097v9.582a112.263 112.263 0 0118.01 9.143A117.651 117.651 0 0035.936 0H6.71C5.013 0 3.638 1.386 3.638 3.096" fill="#69aab5"/><path d="M21.692 42.335A113.394 113.394 0 0035.61 32.093a113.717 113.717 0 00-13.96-10.27 117.838 117.838 0 01-9.573 10.23c3.4 3.236 6.62 6.66 9.615 10.282z" fill="#ffb1a2"/><path d="M3.638 39.352a118.11 118.11 0 008.44-7.298c-2.697-2.564-5.512-5-8.44-7.297v14.595" fill="#f76f6d"/></g></svg>