<svg xmlns="http://www.w3.org/2000/svg" width="31.642" height="31.642"><path d="M28.27 19.946l-4.987-4.125 4.986-4.125 1.552 1.885-2.709 2.24 2.708 2.24zm-1.896 4.613l-6.054-4.843h-5.034v9.904h-2.438V17.272h8.323l6.722 5.377zm-3.593 3.262l-2.726-2.248v3.423l-2.438.624v-7.567l1.993-.01 5.194 4.28zm-12.313-2.05L8.03 27.897V3.958l2.438 2.127zm-4.775-2.928l-2.438-2.08v-9.294l2.438-2.244v13.617zm7.157-20.82h2.438v9.903h5.032l6.054-4.843 1.52 1.91-6.721 5.377H12.85V2.022zm4.767.332l2.438.624v3.423l2.726-2.248 2.023 1.498-5.194 4.28-1.993-.01zM15.82 0C7.105 0 .04 7.083.04 15.82c0 8.739 7.066 15.822 15.782 15.822 8.717 0 15.783-7.083 15.783-15.821S24.538 0 15.82 0z" fill="#ffc700" fill-rule="evenodd"/></svg>