<svg xmlns="http://www.w3.org/2000/svg" width="40.615" height="40.615" fill="none"><path d="M17.198.034c-.13-.019-.196-.028-.262-.032a1.556 1.556 0 00-.175 0c-.065.004-.13.013-.26.032L2.118 2.069c-.75.107-1.126.16-1.409.34a1.532 1.532 0 00-.57.65c-.139.303-.139.679-.139 1.431v21.046c-.03 1.924.47 3.82 1.446 5.485a10.68 10.68 0 004.094 3.968l10.171 5.235c.416.214.624.321.843.364.194.037.394.037.587 0 .22-.043.428-.15.844-.364l10.171-5.235a10.68 10.68 0 004.094-3.968 10.527 10.527 0 001.446-5.485V4.49c0-.752 0-1.128-.14-1.43a1.533 1.533 0 00-.57-.651c-.282-.18-.657-.233-1.408-.34z" fill="url(#paint0_linear)" transform="translate(3.484)"/><g transform="translate(3.484)" filter="url(#filter0_ii)"><path d="M8.81 10.245c0-1.085.887-1.965 1.982-1.965h12.114c1.095 0 1.982.88 1.982 1.965v7.423a1.974 1.974 0 01-1.982 1.965h-7.489v.327c0 .107 0 .16-.023.207-.023.046-.066.078-.153.142l-.528.393c-.087.065-.13.097-.153.143-.024.046-.024.1-.024.207v1.522c0 .105 0 .158-.022.203a.22.22 0 01-.008.014c-.025.044-.07.073-.158.132-.207.137-.31.205-.323.304a.228.228 0 00-.002.031c.002.1.097.179.288.337l.067.055c.078.064.117.096.138.14.02.044.02.094.02.195v.597c0 .09 0 .134-.016.174-.017.04-.049.072-.113.135l-.22.218c-.147.146-.22.218-.22.309 0 .09.073.163.22.309l.22.218a.463.463 0 01.113.135c.016.04.016.085.016.174v1.057c0 .09 0 .134-.016.174a.465.465 0 01-.113.135l-.22.218c-.147.146-.22.218-.22.309 0 .09.073.163.22.309l.22.218a.462.462 0 01.113.135c.016.04.016.084.016.174v.93c0 .098 0 .147-.02.19-.019.043-.056.075-.13.14l-1.33 1.153c-.135.116-.202.175-.283.176-.08.001-.15-.055-.287-.168l-1.42-1.16c-.08-.065-.12-.097-.142-.142-.021-.045-.02-.097-.02-.2l.106-8.865c.001-.1.002-.15-.018-.194-.02-.045-.059-.077-.136-.142l-.46-.392c-.076-.064-.114-.096-.134-.14-.02-.043-.02-.093-.02-.191v-.345-.077a1.968 1.968 0 01-1.432-1.888zm3.897 2.62c0-.362.296-.655.661-.655h6.966c.365 0 .66.293.66.655v2.183a.658.658 0 01-.66.655h-6.966a.658.658 0 01-.66-.655z" clip-rule="evenodd" fill="url(#paint1_radial)" fill-rule="evenodd"/></g><path d="M15.417 19.96v-.327h-3.33V31.07l.399.334c.138.112.207.168.287.167.081-.001.148-.06.283-.176l1.33-1.154c.074-.064.111-.096.13-.14.02-.042.02-.09.02-.188v-.931c0-.09 0-.134-.016-.174a.463.463 0 00-.113-.135l-.22-.218c-.147-.146-.22-.219-.22-.309s.073-.163.22-.309l.22-.218a.465.465 0 00.113-.135c.016-.04.016-.085.016-.174v-1.057c0-.09 0-.134-.016-.174a.463.463 0 00-.113-.135l-.22-.218c-.147-.146-.22-.219-.22-.309s.073-.163.22-.309l.22-.218c.064-.063.096-.095.113-.135.016-.04.016-.084.016-.174v-.597c0-.1 0-.15-.02-.195-.021-.044-.06-.076-.138-.14l-.067-.055c-.19-.158-.286-.237-.288-.337 0-.01 0-.02.002-.03.012-.1.115-.168.322-.305.09-.058.134-.088.16-.131a.22.22 0 00.007-.015c.022-.045.022-.098.022-.203v-1.522c0-.107 0-.16.024-.207.023-.046.066-.078.153-.142l.528-.393c.087-.065.13-.097.153-.143.023-.046.023-.1.023-.207z" fill="url(#paint2_linear)" transform="translate(3.484)"/><g transform="translate(3.484)" filter="url(#filter1_ii)"><path d="M12.088 10.23c-.73 0-1.322.587-1.322 1.31v4.808c0 .723.592 1.31 1.322 1.31h9.526c.73 0 1.322-.587 1.322-1.31V11.54c0-.723-.592-1.31-1.322-1.31zm1.28 1.98a.658.658 0 00-.66.655v2.183c0 .362.295.655.66.655h6.971c.365 0 .66-.293.66-.655v-2.183a.658.658 0 00-.66-.655z" clip-rule="evenodd" fill="url(#paint3_radial)" fill-rule="evenodd"/></g><path d="M14.316 30.303l-.66.573V20.396c0-.18.147-.327.33-.327.182 0 .33.147.33.328v2.547l-.195.129a.217.217 0 00-.019.349l.214.177v1.382l-.285.283a.217.217 0 000 .308l.285.283v1.855l-.285.283a.217.217 0 000 .308l.285.283z" clip-rule="evenodd" fill="url(#paint4_linear)" fill-rule="evenodd" transform="translate(3.484)"/><path d="M13.435 20.506v-.11a.329.329 0 00-.33-.327.33.33 0 00-.33.328v11.179c.053 0 .104-.02.144-.055l.516-.456v-10.34z" clip-rule="evenodd" fill="url(#paint5_linear)" fill-rule="evenodd" transform="translate(3.484)"/><defs id="defs36118"><linearGradient id="paint0_linear" x1="16.849" y1="-.016" x2="16.849" y2="40.809" gradientUnits="userSpaceOnUse"><stop stop-color="#00A3FF" id="stop36072"/><stop offset="1" stop-color="#06F" id="stop36074"/></linearGradient><linearGradient id="paint2_linear" x1="13.727" y1="19.597" x2="13.57" y2="36.908" gradientUnits="userSpaceOnUse"><stop stop-color="#CFE5FF" id="stop36090"/><stop offset=".193" stop-color="#F4F9FF" id="stop36092"/><stop offset=".506" stop-color="#fff" id="stop36094"/><stop offset="1" stop-color="#AAD3FF" id="stop36096"/></linearGradient><linearGradient id="paint4_linear" x1="13.986" y1="20.069" x2="13.986" y2="31.422" gradientUnits="userSpaceOnUse"><stop stop-color="#BCDDF5" id="stop36108"/><stop offset="1" stop-color="#BBDCF6" stop-opacity="0" id="stop36110"/></linearGradient><linearGradient id="paint5_linear" x1="13.105" y1="20.069" x2="13.105" y2="31.576" gradientUnits="userSpaceOnUse"><stop stop-color="#BCDDF5" id="stop36113"/><stop offset="1" stop-color="#BBDCF6" stop-opacity="0" id="stop36115"/></linearGradient><radialGradient id="paint1_radial" cx="0" cy="0" r="1" gradientUnits="userSpaceOnUse" gradientTransform="matrix(-.0723 16.30724 -18.83811 -.08351 16.872 13.9)"><stop stop-color="#E7F2FF" id="stop36077"/><stop offset=".188" stop-color="#fff" id="stop36079"/><stop offset=".314" stop-color="#E7F2FF" id="stop36081"/><stop offset=".466" stop-color="#AAD3FF" id="stop36083"/><stop offset=".754" stop-color="#D7E9FD" id="stop36085"/><stop offset="1" stop-color="#A2D1FF" id="stop36087"/></radialGradient><radialGradient id="paint3_radial" cx="0" cy="0" r="1" gradientUnits="userSpaceOnUse" gradientTransform="matrix(-6.91454 -11.77849 13.41529 -7.87542 20.846 20.51)"><stop stop-color="#E7F2FF" id="stop36099"/><stop offset=".243" stop-color="#fff" id="stop36101"/><stop offset=".567" stop-color="#E7F2FF" id="stop36103"/><stop offset=".953" stop-color="#80B5EF" id="stop36105"/></radialGradient><filter id="filter0_ii" x="8.81" y="8.28" width="66.078" height="73.291" filterUnits="userSpaceOnUse" color-interpolation-filters="sRGB"><feFlood flood-opacity="0" result="BackgroundImageFix" id="feFlood36014"/><feBlend mode="normal" in="SourceGraphic" in2="BackgroundImageFix" result="shape" id="feBlend36016"/><feColorMatrix in="SourceAlpha" type="matrix" values="0 0 0 0 0 0 0 0 0 0 0 0 0 0 0 0 0 0 127 0" result="hardAlpha" id="feColorMatrix36018"/><feOffset dx="50" dy="50" id="feOffset36020"/><feGaussianBlur stdDeviation="50" id="feGaussianBlur36022"/><feComposite in2="hardAlpha" operator="arithmetic" k2="-1" k3="1" id="feComposite36024" k1="0" k4="0"/><feColorMatrix type="matrix" values="0 0 0 0 1 0 0 0 0 1 0 0 0 0 1 0 0 0 0.7 0" id="feColorMatrix36026"/><feBlend mode="normal" in2="shape" result="effect1_innerShadow" id="feBlend36028"/><feColorMatrix in="SourceAlpha" type="matrix" values="0 0 0 0 0 0 0 0 0 0 0 0 0 0 0 0 0 0 127 0" result="hardAlpha" id="feColorMatrix36030"/><feOffset dx="7.813" dy="14.297" id="feOffset36032"/><feGaussianBlur stdDeviation="10" id="feGaussianBlur36034"/><feComposite in2="hardAlpha" operator="arithmetic" k2="-1" k3="1" id="feComposite36036" k1="0" k4="0"/><feColorMatrix type="matrix" values="0 0 0 0 1 0 0 0 0 1 0 0 0 0 1 0 0 0 1 0" id="feColorMatrix36038"/><feBlend mode="normal" in2="effect1_innerShadow" result="effect2_innerShadow" id="feBlend36040"/></filter><filter id="filter1_ii" x="10.766" y="10.23" width="28.17" height="32.428" filterUnits="userSpaceOnUse" color-interpolation-filters="sRGB"><feFlood flood-opacity="0" result="BackgroundImageFix" id="feFlood36043"/><feBlend mode="normal" in="SourceGraphic" in2="BackgroundImageFix" result="shape" id="feBlend36045"/><feColorMatrix in="SourceAlpha" type="matrix" values="0 0 0 0 0 0 0 0 0 0 0 0 0 0 0 0 0 0 127 0" result="hardAlpha" id="feColorMatrix36047"/><feOffset dy="2" id="feOffset36049"/><feGaussianBlur stdDeviation="5" id="feGaussianBlur36051"/><feComposite in2="hardAlpha" operator="arithmetic" k2="-1" k3="1" id="feComposite36053" k1="0" k4="0"/><feColorMatrix type="matrix" values="0 0 0 0 1 0 0 0 0 1 0 0 0 0 1 0 0 0 0.5 0" id="feColorMatrix36055"/><feBlend mode="normal" in2="shape" result="effect1_innerShadow" id="feBlend36057"/><feColorMatrix in="SourceAlpha" type="matrix" values="0 0 0 0 0 0 0 0 0 0 0 0 0 0 0 0 0 0 127 0" result="hardAlpha" id="feColorMatrix36059"/><feOffset dx="16" dy="25" id="feOffset36061"/><feGaussianBlur stdDeviation="25" id="feGaussianBlur36063"/><feComposite in2="hardAlpha" operator="arithmetic" k2="-1" k3="1" id="feComposite36065" k1="0" k4="0"/><feColorMatrix type="matrix" values="0 0 0 0 1 0 0 0 0 1 0 0 0 0 1 0 0 0 0.7 0" id="feColorMatrix36067"/><feBlend mode="normal" in2="effect1_innerShadow" result="effect2_innerShadow" id="feBlend36069"/></filter></defs></svg>