<svg xmlns="http://www.w3.org/2000/svg" viewBox="-54 193 107.9 107.9" width="107.9" height="107.9"><path d="M43 193h-86.1c-6 0-10.9 4.9-10.9 10.9V290c0 6 4.9 10.9 10.9 10.9H43c6 0 10.9-4.9 10.9-10.9v-86.1c0-6-4.9-10.9-10.9-10.9z" fill="#1a2c6b"/><path d="M41.2 248.9L1.7 278.5c-1.3 1-3.4 1-4.7 0l-39.5-29.6c-1.3-1-1.3-2.5 0-3.5l9.8-7.3c1.3-1 3.4-1 4.7 0l25 18.8c1.3 1 3.4 1 4.7 0l25.1-18.8c1.3-1 3.4-1 4.7 0l9.8 7.3c1.2.9 1.2 2.5-.1 3.5z" fill="#fff"/><path d="M-21.1 229.3L-3 215.7c1.3-1 3.4-1 4.7 0l18.1 13.6c1.3 1 1.3 2.5 0 3.5L1.7 246.4c-1.3 1-3.4 1-4.7 0l-18.1-13.5c-1.3-1-1.3-2.6 0-3.6z" fill="#fff"/></svg>