<svg xmlns="http://www.w3.org/2000/svg" viewBox="0 0 22.59 22.59"><rect width="22.59" height="22.59" fill="#121457" rx="4.08"/><path fill="#ef4136" d="M14.95 14.1a1.79 1.79 0 1 0 1.8 1.79 1.79 1.79 0 0 0-1.8-1.8zM7.86 4.03a1.79 1.79 0 1 0 1.79 1.79 1.79 1.79 0 0 0-1.79-1.8z"/><path fill="#fff" d="m9 17.04.02-.03.02-.02.03-.04 7.37-10.11a1.57 1.57 0 0 0-.34-2.2 1.57 1.57 0 0 0-2.2.34l-4.53 6.2V9.75A1.57 1.57 0 0 0 7.8 8.17a1.57 1.57 0 0 0-1.58 1.58v6.38a1.56 1.56 0 0 0 .19.62v.01l.03.04.01.03.02.02.02.04a1.56 1.56 0 0 0 .19.23l.03.03.04.03v.01l.06.05.06.05.07.04.06.04h.01l.06.04h.01l.06.04h.02l.05.03h.02l.05.02.03.01.04.01.03.01.05.01.03.01.04.01h.04l.03.01h.05l.03.01h.26a1.56 1.56 0 0 0 .56-.14l.05-.03h.03l.02-.02.05-.03a1.57 1.57 0 0 0 .34-.28z"/></svg>