<svg xmlns="http://www.w3.org/2000/svg" width="126.5" height="126.5"><path d="M120.1 56.1H57.7c-.9-1.8-2.4-3.6-3.9-4.9-2.7-2.2-5.8-3-8.8-2.4l-.5.1.1-.6c.4-3.2-.7-6.2-3-8.9-2.9-3.3-7.4-5.3-11.8-5.3-4.3 0-8.9 2-11.8 5.3-2.2 2.5-3.3 6-2.9 8.9l.1.6-.6-.1c-2.8-.6-6.3.3-9 2.4-3.7 2.9-5.6 7.4-5.6 12 0 4.5 2 9.1 5.6 12 2.7 2.2 6.2 3.1 9 2.4l.6-.1-.1.6c-.3 2.9.7 6.4 2.9 8.9 2.9 3.3 7.5 5.3 11.8 5.3 4.4 0 8.9-2.1 11.8-5.3 2.3-2.6 3.4-5.7 3-8.9l-.1-.6.6.1c3 .6 6.1-.2 8.8-2.4 2-1.6 3.3-4.1 4.3-6.5h31.9c1.9 0 3.5 1.3 3.5 3.3 0 1.9-1.5 3.4-3.5 3.4h-2.9v17h12.7V78.7c0-1.9 1.5-3.4 3.4-3.4s3.7 1.5 3.7 3.4v13.7h12.6v-17h-2.8c-1.9 0-3.5-1.4-3.5-3.4 0-1.9 1.5-3.3 3.5-3.3h3.4c3.5 0 6.3-2.8 6.3-6.3-.1-3.4-3-6.3-6.4-6.3m-80 13.3c-1.3 0-2.6-.4-3.7-1.1l-2 1.9c.7 1 1.2 2.1 1.2 3.3 0 3.3-2.7 6-6 6-1.6 0-3.1-.6-4.2-1.8-1.1-1.1-1.7-2.6-1.7-4.2 0-1 .3-2.3 1.1-3.3l-2-1.9c-1.2.7-2.4 1.1-3.5 1.1-1.6 0-3.1-.5-4.2-1.7-1.1-1.1-1.8-2.7-1.8-4.3 0-1.6.6-3.1 1.8-4.2 1.1-1.1 2.6-1.7 4.2-1.7 1.4 0 2.6.6 3.5 1.3l2-1.9c-.6-.8-1.1-2.2-1.1-3.6 0-1.6.6-3.1 1.7-4.2s2.6-1.7 4.2-1.7 3.1.6 4.3 1.7c1.1 1.1 1.7 2.6 1.7 4.2 0 1.2-.4 2.3-1.2 3.6l2 1.9c1.2-1 2.4-1.3 3.7-1.3 1.6 0 3.1.6 4.2 1.7s1.7 2.6 1.7 4.2c0 3.3-2.6 6-5.9 6" fill="#b30000"/></svg>