<svg xmlns="http://www.w3.org/2000/svg" height="213.333" width="213.333"><defs><clipPath id="a" clipPathUnits="userSpaceOnUse"><path d="M0 600h600V0H0z"/></clipPath></defs><g clip-path="url(#a)" transform="matrix(1.33333 0 0 -1.33333 -293.333 506.666)"><path d="M300 362.429c-44.183 0-80-35.817-80-80 0-15.254 4.271-29.51 11.679-41.64l20.9 22.192 105.783-.661-.766-35.407C371.467 241.3 380 260.867 380 282.429c0 44.183-35.817 80-80 80" fill="#33a0ff"/><path d="M263.836 339.627c-3.899.24-6.887 3.608-6.66 7.511l.53 8.547a7.123 7.123 0 007.518 6.656l8.542-.529a7.05 7.05 0 004.885-2.386 7.053 7.053 0 001.767-5.156l-.524-8.514a5.154 5.154 0 00-.19-1.095l-.305-1.487-5.62-4.162z" fill="#3dcc8e"/><path d="M264.803 366.647c-6.01 0-11.01-4.698-11.381-10.696l-.53-8.532v-.016l-.001-.015c-.364-6.26 4.43-11.662 10.686-12.045l8.375-.518 3.123-.193 2.515 1.862 3.042 2.25 2.642 1.958.607 2.967c.12.455.25 1.068.297 1.818l.524 8.522a11.318 11.318 0 01-2.839 8.266 11.316 11.316 0 01-7.843 3.823l-8.518.528h-.025a11.7 11.7 0 01-.675.02m6.378-18.62l.314 5.075-5.076.314-.315-5.076 5.077-.313m-6.378 10.036c.056 0 .113-.002.17-.005l8.528-.53a2.789 2.789 0 001.933-.942c.5-.565.75-1.29.701-2.041l-.525-8.524c-.007-.132-.06-.248-.085-.374l-3.042-2.252-8.38.518a2.823 2.823 0 00-2.64 2.977l.529 8.53a2.816 2.816 0 002.812 2.643" fill="#282828"/><path d="M300 320.962c-33.402 0-60.48-27.078-60.48-60.48 0-12.42 3.746-23.965 10.167-33.569h103.055c5.424 9.907 7.738 21.637 7.738 33.57 0 30.913-27.078 60.48-60.48 60.48" fill="#fff"/><path d="M300 325.255c-35.716 0-64.773-29.057-64.773-64.773a64.383 64.383 0 019.396-33.569h10.347c-7.005 9.372-11.157 20.995-11.157 33.569 0 30.982 25.205 56.188 56.187 56.188 14.716 0 28.81-6.161 39.688-17.348 10.486-10.783 16.5-24.94 16.5-38.84 0-9.517-1.572-22.45-8.405-33.569h9.799c4.729 9.519 7.19 20.9 7.19 33.569 0 16.116-6.898 32.454-18.928 44.826-12.508 12.863-28.79 19.947-45.844 19.947" fill="#282827"/><path d="M287.79 242.925a5.805 5.805 0 10-11.613 0 5.805 5.805 0 1011.612 0M323.823 242.925a5.805 5.805 0 10-11.612 0 5.805 5.805 0 1011.612 0" fill="#282827"/><path d="M234.012 245.229l32.228 34.18-7.757-24.32c25.16 18.31 51.575 15.416 70.174 9.954 19.74-5.796 33.562 11.639 20.032 30.238-6.43 8.839-15.248 16.178-25.265 20.629-26.273 11.67-52.688 4.866-70.507-13.134-18.876-19.068-18.905-40.217-18.905-57.547" fill="#ff6f21"/><path d="M296.972 317.389c-3.741 0-7.456-.373-11.107-1.124-11.135-2.29-21.473-8-29.897-16.51-13.993-14.134-16.901-29.305-17.505-43.548l37.603 39.88-9.955-31.207c18.708 9.78 40.099 11.228 63.755 4.282 7.528-2.21 14.35-.535 17.808 4.37 3.55 5.042 2.633 12.228-2.456 19.224-6.081 8.36-14.44 15.189-23.537 19.23-8.068 3.585-16.45 5.403-24.71 5.403m-67.251-82.97v10.81c0 17.917 0 40.215 20.146 60.567 9.62 9.717 21.47 16.245 34.269 18.878 13.474 2.772 27.662 1.098 41.032-4.841 10.453-4.644 20.04-12.467 26.994-22.026 7.243-9.958 8.213-21.154 2.53-29.218-5.554-7.885-16.246-10.892-27.244-7.664-25.364 7.448-47.718 4.317-66.438-9.306l-10.6-7.713 6.005 18.825z" fill="#282827"/><path d="M315.44 324.183c-3.821-9.956-14.901-15.515-25.167-12.625-11.566 3.257-17.673 12.552-16.207 24.342 1.459 11.725 9.382 22.005 18.515 34.677-7.502-15.969-1.13-17.465.887-17.385 1.992.08 4.9-.26 9.039-1.634 11.277-3.743 17.238-16.157 12.933-27.375" fill="#ff6f21"/><path d="M285.83 353.465c-3.963-6.212-6.745-11.986-7.505-18.094-1.203-9.673 3.698-17.03 13.111-19.68 8.172-2.301 16.954 2.105 19.996 10.03 1.65 4.298 1.477 8.947-.484 13.091-1.963 4.148-5.44 7.228-9.794 8.672-3.82 1.268-6.198 1.469-7.516 1.419-2.959-.116-5.69 1.262-7.3 3.69a8.59 8.59 0 00-.509.872m9.977-46.963c-2.226 0-4.475.299-6.697.925-6.666 1.877-11.993 5.587-15.404 10.729-3.4 5.126-4.749 11.445-3.9 18.275 1.5 12.057 8.931 22.329 17.535 34.223l1.758 2.433 7.367-4.335c-3.636-7.741-3.219-10.607-3.028-11.261 2.925.089 6.431-.534 10.421-1.858 6.601-2.191 11.875-6.86 14.85-13.149 2.974-6.284 3.236-13.33.74-19.839-3.789-9.869-13.447-16.143-23.642-16.143" fill="#282827"/><path d="M304.592 286.161a4.966 4.966 0 00-3.861 1.832l-2.888 3.537a4.973 4.973 0 00.5 6.811 4.89 4.89 0 00-1.637 1.303l-.66.807a4.975 4.975 0 00.706 6.993l.415.34-4.23 5.191a5.408 5.408 0 00.77 7.597 5.422 5.422 0 003.417 1.22 5.385 5.385 0 004.182-1.983l18.043-22.207c1.878-2.3 1.533-5.71-.773-7.594a5.423 5.423 0 00-3.417-1.217 5.384 5.384 0 00-3.736 1.498l-3.681-3.005a4.996 4.996 0 00-3.15-1.123" fill="#3dcc8e"/><path d="M304.023 322.034a8.884 8.884 0 01-6.9 3.27 8.946 8.946 0 01-5.63-2.004c-3.814-3.117-4.382-8.742-1.275-12.548l2.35-2.885c-1.726-2.968-1.54-6.824.758-9.637l.442-.542a8.482 8.482 0 011.354-8.379l2.888-3.538a8.461 8.461 0 016.58-3.122c1.953 0 3.86.68 5.373 1.914l1.73 1.412a8.932 8.932 0 019.105 1.313c3.805 3.11 4.373 8.734 1.267 12.54l-18.025 22.185zm-6.9-3.755c.548 0 1.09-.238 1.465-.696l18.035-22.196a1.89 1.89 0 00-2.93-2.39l-1.795 2.213-6.377-5.205a1.47 1.47 0 00-2.07.209l-2.888 3.537a1.454 1.454 0 00.207 2.046l6.408 5.231-2.618 3.228-3.17-2.59a1.395 1.395 0 00-1.963.198l-.66.81a1.457 1.457 0 00.206 2.05l3.133 2.558-6.447 7.913a1.89 1.89 0 001.465 3.085" fill="#282828"/></g></svg>