<svg xmlns="http://www.w3.org/2000/svg" viewBox="0 0 229.5 120.3"><path fill="#373373" d="m14.7 4.7-13 1.9C.6 6.8 0 7.3 0 8.2v84.4c0 1 .7 1.7 1.6 1.7h13.1c1 0 1.7-.8 1.7-1.7V67c0-.5.6-.7.9-.3L36 93.6c.3.4.8.7 1.3.7h16c1.4 0 2.2-1.6 1.3-2.7L32.2 60v-.4L53.8 34c1-1 .2-2.7-1.2-2.7H36.3c-.5 0-1 .2-1.2.6l-17.9 22c-.3.3-.8.1-.8-.3V6.3c0-.9-.8-1.6-1.7-1.6zm155 26.7c-.9 0-1.7.7-1.7 1.6v60.2c-.1 3.2-.1 6.4-1.4 9.1a7.2 7.2 0 0 1-6.6 3.7l-2.9-.2c-1.5-.3-2 .5-2 1l-1.6 10.8c-.1 1 .6 2 1.6 2 2.1.4 4.4.6 6.3.6 11.4.2 20.2-6.4 22-17 .7-3.6 1-7.1 1-10.7v-58c0-1-.7-1.6-1.6-1.7zm-55.4 0-13.1 1.9c-.8 0-1.4.8-1.4 1.6v58.3c-.1 3.2-.1 6.4-1.4 9.2-2 3.5-6.4 3.9-9.5 3.4-1.6-.4-2 .5-2.1 1l-1.5 10.7c-.2 1 .6 2 1.6 2.1 2 .4 4.4.6 6.3.6 11 .4 20.1-7.4 22-17 .6-3.6 1-7.2 1-10.7V33c0-1-1-1.8-2-1.7zM80 43l-13 1.9c-.8 0-1.4.8-1.4 1.6v46.2c0 1 .7 1.7 1.6 1.7h13c1 0 1.7-.8 1.7-1.7v-48c0-1-.9-1.8-1.9-1.7Zm68.2 0-13 1.9c-.8 0-1.4.8-1.4 1.6v46.2c0 1 .7 1.7 1.6 1.7h13c1 0 1.7-.8 1.7-1.7v-48c0-1-.9-1.8-1.9-1.7zm68.2 0-13 1.9c-.9 0-1.5.8-1.5 1.6v46.2c0 1 .7 1.7 1.6 1.7h13.1c1 0 1.6-.8 1.6-1.7v-48c0-1-.8-1.8-1.8-1.7zm5.6.1v.7h1.2v3h.7v-3h1.2V43Zm3.5 0v3.6h.7v-2.3l1 2.4h.5l1-2.4v2.4h.7l-.1-3.7h-.8l-1.1 2.6-1-2.6z"/><circle id="a" cx="73.8" cy="21.7" r="10.2"/><use href="#a" fill="#f8aa17"/><use href="#a" x="34.1" y="-11.6" fill="#f1454f"/><use href="#a" x="136.4" fill="#9b44ad"/><use href="#a" x="102.3" y="-11.5" fill="#37a864"/><use href="#a" x="68.2" fill="#2681db"/></svg>