<svg xmlns="http://www.w3.org/2000/svg" width="84.998" height="84.998"><g fill="#5dcd11" fill-rule="evenodd"><path d="M80.103 41.473a4.892 4.892 0 014.895 4.888c0 2.7-2.191 4.889-4.895 4.889a4.891 4.891 0 01-4.895-4.889c0-2.7 2.191-4.888 4.895-4.888M36.257 63.827h-.007a4.438 4.438 0 01-4.431-4.446l.006-22.169a4.438 4.438 0 014.453-4.443 4.438 4.438 0 014.41 4.444v22.17a4.438 4.438 0 01-4.431 4.444M17.843 45.978l5.599-5.527a4.488 4.488 0 00-.087-6.467 4.455 4.455 0 00-6.17.076l-8.298 8.152-.034-16.502c-.005-2.402-1.867-4.447-4.26-4.536A4.432 4.432 0 000 25.611v33.788a4.412 4.412 0 004.405 4.419 4.412 4.412 0 004.406-4.419v-5.517l2.233-2.078 7.548 10.191a4.432 4.432 0 006.173.95 4.464 4.464 0 00.965-6.252zM64.191 45.978l5.599-5.527a4.488 4.488 0 00-.087-6.467 4.455 4.455 0 00-6.169.076l-8.299 8.152-.034-16.502c-.005-2.402-1.866-4.447-4.26-4.536a4.432 4.432 0 00-4.592 4.437v33.788a4.412 4.412 0 004.405 4.419 4.412 4.412 0 004.405-4.419v-5.517l2.233-2.078 7.548 10.191a4.432 4.432 0 006.174.95 4.464 4.464 0 00.964-6.252z"/></g></svg>