<svg xmlns="http://www.w3.org/2000/svg" viewBox="0 0 67.5 33"><path fill="#5ccc12" fill-rule="evenodd" d="M3.48 0A3.48 3.48 0 0 0 0 3.48v26.04a3.48 3.48 0 0 0 6.96 0v-4.21l1.83-1.63 5.88 7.88a3.59 3.59 0 0 0 4.94.77 3.42 3.42 0 0 0 .76-4.84l-6.21-8.32 4.52-4.3c1.4-1.33 1.43-3.51.07-4.87s-3.59-1.4-4.98-.07l-6.48 6.16-.24.25v-.03l-.01.05-.07.09V3.48A3.48 3.48 0 0 0 3.49 0ZM40.8 0a3.48 3.48 0 0 0-3.48 3.48v26.04a3.48 3.48 0 0 0 6.96 0v-4.21l1.83-1.63 5.88 7.88a3.59 3.59 0 0 0 4.94.77 3.42 3.42 0 0 0 .76-4.84l-6.21-8.32 4.52-4.3c1.39-1.33 1.43-3.51.07-4.87s-3.59-1.4-4.98-.07l-6.48 6.16-.24.25v-.03l-.01.05a.6.6 0 0 0-.07.09V3.48A3.5 3.5 0 0 0 40.8 0M28.97 9.2a3.48 3.48 0 0 0-3.48 3.48v16.84a3.48 3.48 0 0 0 6.96 0V12.68a3.48 3.48 0 0 0-3.48-3.48"/><ellipse cx="63.58" cy="19.71" fill="#5cbcf9" rx="3.92" ry="3.86"/></svg>