<svg xmlns="http://www.w3.org/2000/svg" viewBox="0 0 120 87" fill="#ef3f24"><path d="m34.52 71.594 22.762-13.435c.35-.205.785-.212 1.14-.017.356.195.576.56.575.957v26.806c0 .395-.22.758-.573.952-.352.195-.785.19-1.134-.011L34.528 73.45c-.328-.2-.529-.55-.53-.927a1.09 1.09 0 0 1 .522-.93zM25.43 67.871.694 52.781A1.447 1.447 0 0 1 0 51.542V21.045c.009-.374.211-.717.534-.903a1.06 1.06 0 0 1 1.044-.01l24.72 15.09c.433.26.7.73.702 1.239v30.505c-.013.37-.216.707-.535.892-.32.184-.711.189-1.035.013zM28.77 32.787 3.516 17.424a1.087 1.087 0 0 1 0-1.849L28.73.212a1.449 1.449 0 0 1 1.511 0l25.246 15.363a1.087 1.087 0 0 1 0 1.849L30.281 32.787a1.449 1.449 0 0 1-1.511 0zM55.49 54.417 32.698 67.846a1.15 1.15 0 0 1-1.128.011 1.09 1.09 0 0 1-.57-.948V40.09c.002-.392.22-.754.57-.948a1.15 1.15 0 0 1 1.128.011l22.792 13.43c.319.201.51.546.51.917s-.191.715-.51.917zM57.29 48.841 34.543 35.464c-.335-.2-.539-.554-.539-.936s.204-.737.539-.937L57.29 20.16a1.157 1.157 0 0 1 1.14-.017c.355.195.574.561.574.958v26.794c.003.398-.215.766-.57.963a1.157 1.157 0 0 1-1.144-.015zM86.48 71.594 63.718 58.159a1.158 1.158 0 0 0-1.14-.017c-.356.195-.576.56-.575.957v26.806c0 .395.22.758.573.952.352.195.785.19 1.134-.011L86.472 73.45c.328-.2.529-.55.53-.927a1.09 1.09 0 0 0-.522-.93zM94.57 67.871l24.736-15.09c.431-.262.695-.732.694-1.239V21.045a1.073 1.073 0 0 0-.534-.903 1.06 1.06 0 0 0-1.044-.01l-24.72 15.09c-.433.26-.7.73-.702 1.239v30.505c.013.37.216.707.535.892s.711.189 1.035.013zM92.23 32.787l25.258-15.363a1.087 1.087 0 0 0 0-1.849L92.278.212a1.449 1.449 0 0 0-1.511 0l-25.25 15.363a1.087 1.087 0 0 0 0 1.849l25.202 15.363a1.449 1.449 0 0 0 1.511 0zM65.51 54.417l22.792 13.429c.347.2.777.205 1.128.011a1.09 1.09 0 0 0 .57-.948V40.09a1.089 1.089 0 0 0-.57-.948 1.15 1.15 0 0 0-1.128.011L65.51 52.583c-.319.201-.51.546-.51.917s.191.715.51.917zM63.72 48.841l22.747-13.377c.335-.2.539-.554.539-.936s-.204-.737-.539-.937L63.72 20.16a1.157 1.157 0 0 0-1.14-.017c-.355.195-.574.561-.574.958v26.794c-.003.398.215.766.57.963.357.197.794.191 1.144-.015z"/></svg>