<svg xmlns="http://www.w3.org/2000/svg" id="Layer_1" data-name="Layer 1" viewBox="0 0 1205 319"><defs><style>.cls-2{fill:#69b32d}.cls-3{fill:#676767}</style></defs><path fill="none" stroke="#016939" stroke-miterlimit="10" d="M313 202a153 153 0 0 1-41 69 159 159 0 0 1-222 0 153 153 0 0 1 0-218 159 159 0 0 1 222 0 155 155 0 0 1 31 41l4-1a159 159 0 0 0-32-43 163 163 0 0 0-227 0 157 157 0 0 0 0 224 163 163 0 0 0 227 0 157 157 0 0 0 43-73Z" transform="translate(0 -2)"/><path d="M163 149a18 18 0 0 0-3 1c-4 0-6 2-6 5-1 1 0 2 1 1 2 0 3 1 3 2s0 2-2 3c-5 0-9 2-13 3-7 1-13 6-18 10a43 43 0 0 0-12 19c0 2 1 2 3 2h93c2 0 3 0 2-2a43 43 0 0 0-12-19c-4-4-11-9-17-10l-13-3c-2-1-2-2-2-3l2-2c2 1 2 0 2-1 0-3-3-5-6-5a18 18 0 0 0-3-1Zm32-24a49 49 0 0 0-32-13h-1a46 46 0 0 0-32 13l-3-3a51 51 0 0 1 15-10 52 52 0 0 1 20-4 53 53 0 0 1 20 4 54 54 0 0 1 16 10Z" class="cls-2" transform="translate(0 -2)"/><path d="M183 132a31 31 0 0 0-21-8 30 30 0 0 0-20 8l-3-3a34 34 0 0 1 23-9 36 36 0 0 1 24 9Z" class="cls-2" transform="translate(0 -2)"/><path d="M151 136a18 18 0 0 1 11-4 19 19 0 0 1 12 4l-3 3a14 14 0 0 0-9-3 14 14 0 0 0-8 3Z" class="cls-2" transform="translate(0 -2)"/><path d="M239 51H85c-6 0-10 6-10 12v49l22 3V73h131v175H97v-51l-22 2v61c0 6 4 10 10 10h154c6 0 11-4 11-10V63c0-6-5-12-11-12Zm-77 17a5 5 0 1 1 5-5 5 5 0 0 1-5 5Z" class="cls-2" transform="translate(0 -2)"/><rect width="98.2" height="10.6" x="113" y="197" class="cls-2" rx="2" ry="2"/><path d="m140 150-4-4-28-15c-6-4-12-8-18-9-6-2-12-2-18-1l-24 1H28l-20 1-4 16 1 16h3c5-1 17-4 23-3l8 4 9 7a5 5 0 0 1 3 3v6a3 3 0 0 0 2 3l2-2 3-4 1 1a17 17 0 0 0-1 3 13 13 0 0 0-1 5c0 2 1 6 3 7s6-7 8-10l3 1a25 25 0 0 0-3 8 1 1 0 0 0 1 2 10 10 0 0 0 6 0 11 11 0 0 0 3-2 2 2 0 0 1 1-1l2 2 3 2a36 36 0 0 0 9 4c2 1 4 1 6-1s1-4 0-6a28 28 0 0 0-9-11c2-3 5-5 6-9 3-7-3-15-3-22 14 2 24 11 37 13a11 11 0 0 0 7 0c2-1 3-3 3-5Zm-60 16c-5-4-6-10-4-15a16 16 0 0 1 1-3l2 3 2 6 2 6-3 3Z" class="cls-3" transform="translate(0 -2)"/><path d="M417 92c0 7-4 11-11 11s-11-4-11-11 5-11 11-11c7 0 11 4 11 11Z" class="cls-2" transform="translate(0 -2)"/><path d="m398 124 8-1 8 1v84l-8 1-8-1v-84Zm54 58a11 11 0 0 0-4 7c0 7 9 9 23 9 23 0 40 4 40 26 0 21-17 30-44 30-23 0-41-7-41-27 0-12 6-18 13-21v-1c-4-3-6-7-6-13s3-11 8-15c-6-5-10-12-10-25 0-21 14-33 34-33a42 42 0 0 1 18 4h24c2 3 3 8 3 12h-14v1c2 3 4 8 4 16 0 20-12 32-34 32a43 43 0 0 1-14-2Zm0 28c-7 3-11 8-11 15 0 12 13 16 28 16 16 0 27-5 27-16 0-10-7-14-28-14a92 92 0 0 1-16-1Zm13-39c13 0 20-8 20-20s-7-19-20-19c-13 1-19 8-19 19 0 13 7 20 19 20Z" class="cls-3" transform="translate(0 -2)"/><path d="M544 92c0 7-5 11-11 11-7 0-11-4-11-11s5-11 11-11 11 4 11 11Z" class="cls-2" transform="translate(0 -2)"/><path d="m525 124 8-1 8 1v84l-8 1-8-1v-84Zm41-38a172 172 0 0 1 33-3c33 0 53 12 53 40 0 18-10 30-24 35l32 50-9 1-10-1-29-46h-8a194 194 0 0 1-22-1v47l-8 1-8-1V86Zm16 13v48a124 124 0 0 0 20 1c21 0 33-7 33-24 0-19-14-26-36-26a86 86 0 0 0-17 1Zm101 72c0 19 12 28 32 28 11 0 20-3 27-7 0 5-2 11-4 14-6 4-15 7-27 7-29 0-44-18-44-46s16-48 42-48c24 0 34 16 34 37a46 46 0 0 1-2 15h-58Zm45-13c1-12-2-25-20-25-15 0-24 10-25 25h45Zm75 40a45 45 0 0 0 24-7c0 5-2 13-4 16-6 3-14 6-25 6-26 0-41-18-41-46 0-33 19-47 43-47 10 0 17 2 22 5 3 3 4 10 3 15a39 39 0 0 0-22-6c-18 0-30 10-30 32s12 32 30 32Zm51-27c1 19 13 28 32 28 11 0 20-3 27-7 0 5-2 11-4 14-6 4-15 7-27 7-28 0-44-18-44-46s16-48 42-48c24 0 35 16 35 37a46 46 0 0 1-3 15h-58Zm45-13c2-12-2-25-20-25-15 0-24 10-25 25h45Zm49-23c3-8 12-16 27-16 18 0 36 11 36 44 0 28-13 50-44 50-6 0-14-1-18-4v41l-8 1-8-1V124l13-2 1 13h1Zm1 61a40 40 0 0 0 15 3c22 0 31-15 31-35s-9-30-24-30c-12 0-18 6-22 12v50Zm85-73v-20c4-3 10-4 16-4v24h26l1 7-1 7h-26v46c0 10 2 15 13 15a27 27 0 0 0 17-6c1 5-1 12-4 16-5 3-10 5-18 5-17 0-24-9-24-28v-48h-13a41 41 0 0 1 2-14h11Z" class="cls-3" transform="translate(0 -2)"/><path d="M1114 94c0 7-4 11-11 11s-11-4-11-11 5-11 11-11c7 0 11 4 11 11Z" class="cls-2" transform="translate(0 -2)"/><path d="m1094 124 8-1 8 1v84l-8 1-8-1v-84Zm50 47c1 19 13 28 32 28 11 0 20-3 27-7 1 5-1 11-4 14-5 4-15 7-26 7-29 0-45-18-45-46s16-48 42-48c24 0 35 16 35 37a46 46 0 0 1-2 15h-59Zm45-13c2-12-2-25-19-25-15 0-25 10-26 25h46Z" class="cls-3" transform="translate(0 -2)"/><path d="M1191 98a5 5 0 0 1-4-4 88 88 0 0 0-11-40 79 79 0 0 0-46-39 84 84 0 0 0-27-4 5 5 0 0 1-1-9c1 0 14-1 31 5a89 89 0 0 1 51 42 97 97 0 0 1 12 44 5 5 0 0 1-5 5Z" class="cls-2" transform="translate(0 -2)"/><path d="M1165 98a5 5 0 0 1-4-4 57 57 0 0 0-17-41 59 59 0 0 0-42-17 5 5 0 0 1 0-9 68 68 0 0 1 48 20 65 65 0 0 1 20 47 5 5 0 0 1-5 4Z" class="cls-2" transform="translate(0 -2)"/><path d="M1142 98a5 5 0 0 1-4-4c0-19-16-34-36-34a5 5 0 0 1 0-9c25 0 45 19 45 43a5 5 0 0 1-5 4ZM313 201a153 153 0 0 1-41 70 158 158 0 0 1-221 0 152 152 0 0 1 0-218 158 158 0 0 1 221 0 154 154 0 0 1 30 41h4a158 158 0 0 0-31-44 162 162 0 0 0-227 0 156 156 0 0 0 0 224 162 162 0 0 0 227 0 156 156 0 0 0 42-73Z" class="cls-2" transform="translate(0 -2)"/><path d="M278 86a184 184 0 0 1 31-2c40 0 68 20 68 63s-28 63-63 63l-36-1V86Zm16 109h19c29 0 47-15 47-47 0-34-20-50-51-50a80 80 0 0 0-15 1v96Z" class="cls-3" transform="translate(0 -2)"/><path d="M591 261v41h-3v-3a13 13 0 0 1-8 3 13 13 0 0 1-10-4 15 15 0 0 1 0-20 13 13 0 0 1 10-4 18 18 0 0 1 8 2v-15h3Zm-3 36v-17a14 14 0 0 0-8-3 10 10 0 0 0-8 3 11 11 0 0 0-3 8 11 11 0 0 0 3 8 11 11 0 0 0 8 3 12 12 0 0 0 8-2Zm13-36v5h-3v-5h3Zm0 14v27h-3v-27h3Zm28 0v2h-6q4 3 4 7a9 9 0 0 1-2 5 9 9 0 0 1-3 3 35 35 0 0 1-6 2 12 12 0 0 0-4 2 2 2 0 0 0-1 1 2 2 0 0 0 1 2l7 1q5 0 8 3a7 7 0 0 1-1 10q-3 2-9 2t-9-2a6 6 0 0 1-3-5q0-5 8-6v-1q-4-1-4-3t5-5a10 10 0 0 1-5-3 9 9 0 0 1 1-13q3-2 8-2h11Zm-12 38a13 13 0 0 0 7-2 4 4 0 0 0 2-3q0-5-8-5-10 0-10 5t9 5Zm0-22a7 7 0 0 0 7-7 7 7 0 0 0-2-5 7 7 0 0 0-5-2 7 7 0 0 0-5 2 7 7 0 0 0-2 5 7 7 0 0 0 2 5 7 7 0 0 0 5 2Zm19-30v5h-3v-5h3Zm0 14v27h-3v-27h3Zm14-9v9h7v2h-7v21l4 1a12 12 0 0 0 4-1v3a13 13 0 0 1-5 1 7 7 0 0 1-4-1 5 5 0 0 1-2-5v-19h-7v-2h7v-7l2-2h1Zm34 31v2q-3 3-5 3a1 1 0 0 1-1-1 7 7 0 0 1-1-2 14 14 0 0 1-8 3 7 7 0 0 1-5-2 6 6 0 0 1-3-5 8 8 0 0 1 5-7l11-3v-3q0-5-6-5-4 0-8 3v-3a16 16 0 0 1 9-3 10 10 0 0 1 6 2 6 6 0 0 1 2 5v17l1 1 3-2Zm-7-1v-8a17 17 0 0 0-9 2q-4 2-4 5a4 4 0 0 0 2 3 6 6 0 0 0 4 2q3 0 7-4Zm14-35v41h-2v-41h2Zm31 26h-21a11 11 0 0 0-1 2 10 10 0 0 0 4 7 11 11 0 0 0 7 3 16 16 0 0 0 10-4v3a16 16 0 0 1-10 4 13 13 0 0 1-10-4 14 14 0 0 1-3-10 14 14 0 0 1 3-10 12 12 0 0 1 17 0q4 3 4 9Zm-21-2h17q-1-8-8-8a8 8 0 0 0-6 2 10 10 0 0 0-3 6Zm43 15v-39h3v18a13 13 0 0 1 10-5 11 11 0 0 1 8 4 13 13 0 0 1 4 9q0 7-4 11t-11 4a26 26 0 0 1-10-2Zm3-18v16a19 19 0 0 0 7 1 12 12 0 0 0 8-3 11 11 0 0 0 4-9 12 12 0 0 0-3-7 8 8 0 0 0-6-3q-5 0-10 5Zm50 5h-21a11 11 0 0 0 0 2 10 10 0 0 0 3 7 11 11 0 0 0 8 3 16 16 0 0 0 10-4v3a16 16 0 0 1-10 4 13 13 0 0 1-10-4 14 14 0 0 1-4-10 14 14 0 0 1 4-10 12 12 0 0 1 17 0q3 3 3 9Zm-20-2h17q-2-8-9-8a8 8 0 0 0-5 2 10 10 0 0 0-3 6Zm45-10v1l-17 23h17v3h-22v-1l18-24h-17v-2h21Zm15-1a13 13 0 0 1 10 4 15 15 0 0 1 0 20 14 14 0 0 1-19 0 15 15 0 0 1 0-20 13 13 0 0 1 9-4Zm0 25a10 10 0 0 0 8-3 12 12 0 0 0 0-16 10 10 0 0 0-8-3 10 10 0 0 0-7 3 12 12 0 0 0 0 16 10 10 0 0 0 7 3Zm43-12h-22a11 11 0 0 0 0 2 10 10 0 0 0 3 7 11 11 0 0 0 8 3 16 16 0 0 0 10-4v3a16 16 0 0 1-10 4 13 13 0 0 1-10-4 14 14 0 0 1-4-10 14 14 0 0 1 4-10 12 12 0 0 1 17 0q4 3 4 9Zm-21-2h17q-1-8-8-8a8 8 0 0 0-6 2 10 10 0 0 0-3 6Zm29-24v41h-3v-41h3Zm19 14-15 12 17 15h-4l-17-15 15-12h4Z" class="cls-2" transform="translate(0 -2)"/><path d="M932 287h-21a11 11 0 0 0 0 2 10 10 0 0 0 3 7 11 11 0 0 0 8 3 16 16 0 0 0 10-4v3a16 16 0 0 1-10 4 13 13 0 0 1-10-4 14 14 0 0 1-4-10 14 14 0 0 1 4-10 12 12 0 0 1 17 0q3 3 3 9Zm-20-2h17q-2-8-9-8a8 8 0 0 0-5 2 10 10 0 0 0-3 6Zm45-8-2 3q-3-3-5-3-4 0-9 8v17h-3v-27h3v7q5-8 9-8 3 0 7 3Zm17-1v4q-4-3-7-3a6 6 0 0 0-4 1 4 4 0 0 0-2 3 4 4 0 0 0 1 3l6 3 6 3a7 7 0 0 1 1 5 7 7 0 0 1-3 5 9 9 0 0 1-6 2 15 15 0 0 1-8-2v-3a19 19 0 0 0 9 2 6 6 0 0 0 4-1 4 4 0 0 0 1-3 4 4 0 0 0-1-3l-5-3-6-4a6 6 0 0 1-2-3 7 7 0 0 1 3-6 9 9 0 0 1 6-2 14 14 0 0 1 7 2Zm25 1-2 3q-3-3-5-3-4 0-9 8v17h-3v-27h3v7q5-8 10-8l6 3Zm24 10h-21a11 11 0 0 0 0 2 10 10 0 0 0 3 7 11 11 0 0 0 8 3 16 16 0 0 0 10-4v3a16 16 0 0 1-10 4 13 13 0 0 1-10-4 14 14 0 0 1-4-10 14 14 0 0 1 4-10 12 12 0 0 1 17 0q3 3 3 9Zm-20-2h17q-1-8-8-8a8 8 0 0 0-6 2 10 10 0 0 0-3 6Zm47-10v2h-6q4 3 4 7a9 9 0 0 1-2 5 9 9 0 0 1-3 3 35 35 0 0 1-6 2 12 12 0 0 0-4 2 2 2 0 0 0-1 1 2 2 0 0 0 1 2l7 1q6 0 8 2a7 7 0 0 1-1 11q-4 2-9 2t-9-2a6 6 0 0 1-3-5q0-5 8-6v-1q-4-1-4-3t5-5a10 10 0 0 1-5-3 9 9 0 0 1 1-13q3-2 8-2h11Zm-12 38a13 13 0 0 0 7-2 4 4 0 0 0 2-3q0-5-8-5-10 0-10 5t9 5Zm0-22a7 7 0 0 0 7-7 7 7 0 0 0-2-5 7 7 0 0 0-5-2 7 7 0 0 0-5 2 7 7 0 0 0-2 5 7 7 0 0 0 2 5 7 7 0 0 0 5 2Zm19-30v5h-3v-5h3Zm0 14v27h-3v-27h3Zm22 1v4q-4-3-8-3a6 6 0 0 0-4 1 4 4 0 0 0-1 3 4 4 0 0 0 1 3l5 3 6 3a7 7 0 0 1 2 5 7 7 0 0 1-3 5 9 9 0 0 1-6 2 15 15 0 0 1-8-2v-3a19 19 0 0 0 8 2 6 6 0 0 0 4-1 4 4 0 0 0 2-3 4 4 0 0 0-1-3l-6-3q-5-2-6-4a6 6 0 0 1-1-3 7 7 0 0 1 3-6 9 9 0 0 1 6-2 14 14 0 0 1 7 2Zm13-10v9h7v2h-7v21l4 1a12 12 0 0 0 5-1v3a13 13 0 0 1-6 1 7 7 0 0 1-4-1 5 5 0 0 1-2-5v-19h-7v-2h7v-7l2-2h1Zm31 11-2 3q-3-3-5-3-4 0-9 8v17h-3v-27h3v7q5-8 10-8l6 3Zm24 20v2l-6 3a1 1 0 0 1-1-1 7 7 0 0 1 0-2 14 14 0 0 1-9 3 7 7 0 0 1-5-2 6 6 0 0 1-2-5 8 8 0 0 1 4-7l12-3v-3q0-5-6-5-4 0-9 3v-3a16 16 0 0 1 9-3 10 10 0 0 1 6 2 6 6 0 0 1 2 5v17l1 1 4-2Zm-7-1v-8a17 17 0 0 0-10 2q-3 2-3 5a4 4 0 0 0 1 3 6 6 0 0 0 4 2q4 0 8-4Zm16-30v9h7v2h-7v21l4 1a12 12 0 0 0 5-1v3a13 13 0 0 1-6 1 7 7 0 0 1-4-1 5 5 0 0 1-2-5v-19h-7v-2h7v-7l2-2h1Zm16-5v5h-3v-5h3Zm0 14v27h-3v-27h3Zm30 12h-21a11 11 0 0 0 0 2 10 10 0 0 0 3 7 11 11 0 0 0 7 3 16 16 0 0 0 10-4v3a16 16 0 0 1-10 4 13 13 0 0 1-10-4 14 14 0 0 1-3-10 14 14 0 0 1 3-10 12 12 0 0 1 17 0q4 3 4 9Zm-21-2h17q-1-8-8-8a8 8 0 0 0-6 2 10 10 0 0 0-3 6Z" class="cls-2" transform="translate(0 -2)"/></svg>