<svg xmlns="http://www.w3.org/2000/svg" viewBox="0 0 47.433 31.999"><defs><linearGradient id="a" x1="25.134" x2="25.134" y1="408.22" y2="362.97" gradientTransform="translate(5.944 -256.66) scale(.7071)" gradientUnits="userSpaceOnUse"><stop stop-color="#efc119" offset="0"/><stop stop-color="#92c84e" offset=".331"/><stop stop-color="#71bf5b" offset=".486"/><stop stop-color="#15b158" offset=".751"/><stop stop-color="#23ac69" offset=".903"/><stop stop-color="#23ac69" offset="1"/></linearGradient></defs><path d="M.96 14.49 22.226.402a2.969 2.969 0 0 1 2.986 0L46.478 14.49a1.696 1.696 0 0 1 0 3.052l-2.852 1.879a23.58 23.58 0 0 0-39.848 0l-2.85-1.879A1.706 1.706 0 0 1 .96 14.49zm22.742-.168a17.805 17.805 0 0 0-15.027 8.319l4.897 3.253a11.789 11.789 0 0 1 20.192 0l4.898-3.253a17.56 17.56 0 0 0-14.96-8.319zm0 11.773a6.022 6.022 0 0 0-5.199 3.053l3.287 2.146a2.98 2.98 0 0 0 1.912.705 2.912 2.912 0 0 0 1.912-.705l3.287-2.146a5.967 5.967 0 0 0-5.199-3.053z" fill="url(#a)"/></svg>