<svg xmlns="http://www.w3.org/2000/svg" fill="none" viewBox="0 0 114.98 130.98"><path fill="#1d4b00" d="M84.99 130.98c-17.56 0-26.15-12.25-27.9-14.78-5.18 5.1-13 14.78-27.1 14.78C13.72 130.98 0 118.68 0 98.74v-66.5C0 12.25 13.74 0 30 0c16.25 0 29.99 13.02 29.99 31.94a29.79 29.79 0 0 1 10-1.71c16.74 0 30 13.72 30 30.22 0 4.63-.88 8.74-2.8 12.68a30.23 30.23 0 0 1 17.8 27.63c0 16.66-13.47 30.22-30 30.22zm-20.64-22.1c4.3 7.56 11.57 12.03 20.64 12.03 11.02 0 20-9.05 20-20.15 0-8.8-5.61-16.44-13.68-19.13l-26.96 27.26zM30 10.09c-9.95 0-20 6.85-20 22.16v66.5c0 15.31 10.04 22.17 20 22.17 7.9 0 12.27-4.02 19.31-11.12l3.12-3.14a50.49 50.49 0 0 1-2.44-15.97V32.24c0-15.32-10.04-22.17-20-22.17zM60 43v47.7c0 2.7.22 5.26.65 7.68l21.73-21.9c6.31-6.36 7.6-11 7.6-16.01 0-10.7-8.53-20.15-20-20.15-3.56 0-6.97.92-9.99 2.69z"/></svg>