<svg xmlns="http://www.w3.org/2000/svg" viewBox="0 0 25.671 26.922" fill="#982a86"><path d="m18.577 13.003 1.161-.509c1.202-.52 2.464-1.037 3.754-1.459l1.518-.508c.176-.063.523-.09.627-.227h.034c-.156-.58-.253-1.26-.433-1.843-.414-1.347-1.086-2.542-2.15-3.247-.657-.435-1.793-.675-2.687-.294-.793.34-1.606 1.076-2.275 1.583-.712.542-1.411 1.104-2.127 1.627l-.716.554h-.046a1.371 1.371 0 0 1 .034-.465c.076-.453.061-.898.137-1.323l.091-.86c.172-.99.277-1.985.5-2.94l.319-1.51c.045-.171.144-.428.125-.6-.71-.35-1.454-.627-2.22-.826-.499-.124-1.156-.21-1.718-.116-1.219.21-2.118.391-2.742 1.187-.267.34-.465.727-.584 1.142-.159.554-.068 1.322.034 1.867l.159 1.255.319 2.352.17 1.154c-.192-.022-.362-.233-.5-.328-.35-.25-.701-.505-1.051-.757-1.104-.805-2.103-1.703-3.163-2.545L3.759 4.134l-.068-.011-1.114.792c-.596.465-1.086 1.103-1.48 1.764a5.539 5.539 0 0 0-.511 1.256 2.977 2.977 0 0 0-.117 1.244c.064.376.081.645.204.939.609 1.447 2.545 1.95 4.004 2.567l1.763.712.887.348v.034c-.106.129-.361.179-.523.248-.434.186-.869.38-1.32.566-.818.337-1.671.682-2.515.996l-1.285.43-1.684.58.284 1.244c.412 1.712 1.08 3.089 2.401 3.891.608.368 1.644.634 2.491.294.614-.246 1.093-.676 1.593-1.045l2.582-1.991.956-.77c.064.059.023.342 0 .488l-.149 1.47c-.212 1.145-.293 2.292-.535 3.393l-.467 2.352c.152.116.368.171.557.249.515.234 1.047.428 1.593.58.53.133 1.298.233 1.923.117.544-.106.992-.156 1.433-.34 1.037-.43 2.058-1.566 1.775-3.211l-.103-.882-.234-1.821-.375-2.579v-.022c.199.04.373.244.524.349.41.289.806.589 1.206.881a46.649 46.649 0 0 1 4.402 3.631c.22-.033.957-.71 1.16-.87 1.041-.822 2.598-2.89 1.979-4.88a3.09 3.09 0 0 0-.477-.916c-.434-.575-1.142-.84-1.855-1.142l-3.242-1.356-1.251-.51v-.01a1.5 1.5 0 0 1 .406-.19z"/></svg>