<svg xmlns="http://www.w3.org/2000/svg" viewBox="0 0 25.671 26.922" fill="#982a86"><path d="m18.577 13.003 1.161-0.5087c1.202-0.5204 2.464-1.0373 3.754-1.4589l1.518-0.5088c0.176-0.0627 0.523-0.0895 0.627-0.2265h0.034c-0.156-0.5808-0.253-1.2592-0.433-1.8434-0.414-1.3463-1.086-2.5415-2.15-3.2466-0.657-0.43559-1.793-0.67487-2.687-0.29388-0.793 0.33918-1.606 1.0756-2.275 1.5832-0.712 0.54129-1.411 1.1035-2.127 1.6262l-0.716 0.55407h-0.046c-0.015-0.15567-4e-3 -0.31282 0.034-0.46463 0.076-0.45301 0.061-0.89789 0.137-1.323l0.091-0.85956c0.172-0.98965 0.277-1.9851 0.5-2.9411l0.319-1.51c0.045-0.17075 0.144-0.42745 0.125-0.59936-0.71-0.34998-1.454-0.62672-2.22-0.82587-0.499-0.12429-1.156-0.21024-1.718-0.11616-1.219 0.21024-2.118 0.39145-2.742 1.1871-0.267 0.33962-0.465 0.72734-0.584 1.1418-0.159 0.55407-0.068 1.3219 0.034 1.8666l0.159 1.2556 0.319 2.3522 0.17 1.1534c-0.192-0.02207-0.362-0.23231-0.5-0.32756-0.35-0.24973-0.701-0.50528-1.051-0.75734-1.104-0.80496-2.103-1.7028-3.163-2.545l-1.388-1.2324-0.068-0.01162-1.114 0.79219c-0.596 0.46462-1.086 1.1035-1.48 1.7644-0.221 0.39625-0.393 0.81793-0.511 1.2556-0.127 0.40195-0.166 0.8258-0.117 1.244 0.064 0.37634 0.081 0.64466 0.204 0.93852 0.609 1.4473 2.545 1.9514 4.004 2.5671l1.763 0.712 0.887 0.3485v0.0337c-0.106 0.1289-0.361 0.1788-0.523 0.2485-0.434 0.1859-0.869 0.3799-1.32 0.5657-0.818 0.3369-1.671 0.6819-2.515 0.9955l-1.285 0.4298-1.684 0.5807 0.284 1.2441c0.412 1.7121 1.08 3.0886 2.401 3.8912 0.608 0.3682 1.644 0.6342 2.491 0.2939 0.614-0.2463 1.093-0.676 1.593-1.0454l2.582-1.9909 0.956-0.769c0.064 0.0581 0.023 0.3415 0 0.4867l-0.149 1.4705c-0.212 1.1453-0.293 2.2918-0.535 3.393l-0.467 2.3521c0.152 0.1162 0.368 0.1708 0.557 0.2486 0.515 0.2341 1.047 0.4282 1.593 0.5808 0.53 0.1324 1.298 0.2323 1.923 0.1161 0.544-0.1057 0.992-0.1556 1.433-0.3391 1.037-0.4298 2.058-1.567 1.775-3.2118l-0.103-0.8816-0.234-1.8213-0.375-2.5787v-0.0221c0.199 0.0395 0.373 0.244 0.524 0.3485 0.41 0.2892 0.806 0.5889 1.206 0.8816 1.54 1.1197 3.011 2.3324 4.402 3.6311 0.22-0.0337 0.957-0.7109 1.16-0.8712 1.041-0.8212 2.598-2.8888 1.979-4.8785-0.106-0.33-0.268-0.6398-0.477-0.9165-0.434-0.575-1.142-0.841-1.855-1.1418l-3.242-1.3567-1.251-0.5088v-0.0116c0.125-0.0831 0.262-0.1469 0.406-0.1894z"/></svg>