<svg xmlns="http://www.w3.org/2000/svg" viewBox="0 0 1008 1008"><defs><radialGradient id="a" cx="953.1" cy="221" r="898.7" gradientTransform="translate(-144 -144)" gradientUnits="userSpaceOnUse"><stop offset=".3" stop-color="#ec2426"/><stop offset=".5" stop-color="#e92325"/><stop offset=".7" stop-color="#e02022"/><stop offset=".8" stop-color="#d01b1d"/><stop offset=".9" stop-color="#ba1316"/><stop offset="1" stop-color="#9e0a0d"/><stop offset="1" stop-color="#920609"/></radialGradient><linearGradient id="b" x1="544.9" x2="616.2" y1="344.6" y2="24.9" gradientUnits="userSpaceOnUse"><stop offset="0" stop-color="#ec2426"/><stop offset=".1" stop-color="#ed3234"/><stop offset=".3" stop-color="#f05759"/><stop offset=".6" stop-color="#f69394"/><stop offset=".9" stop-color="#fde5e5"/><stop offset="1" stop-color="#fff"/></linearGradient></defs><circle cx="504" cy="504" r="504" fill="#cdcccb"/><circle cx="504" cy="504" r="427.5" fill="#fff"/><circle cx="504" cy="504" r="396" fill="url(#a)"/><path fill="url(#b)" d="M867 384a383 383 0 0 0-363-263 381 381 0 0 0-264 107 383 383 0 0 0 363 262 381 381 0 0 0 264-106z"/><path fill="#fff" d="M689 288a31 31 0 0 0-31 31v154H436l133-132a31 31 0 1 0-44-44L350 473V319a31 31 0 1 0-62 0v370a31 31 0 1 0 62 0V535l175 175a31 31 0 1 0 44-43L437 535h221v154a31 31 0 1 0 62 0V319a31 31 0 0 0-31-31z"/></svg>