<svg xmlns="http://www.w3.org/2000/svg" viewBox="0 0 48.88 40.4"><path fill="#10999e" d="M34.6 6.42S38.57-.59 41.59.06s-1.25 12.05-1.25 12.05l-5.73-5.69zm-20.34-.01S10.29-.6 7.27.04C4.25.69 8.53 12.1 8.53 12.1l5.73-5.68"/><path fill="#50d2c2" d="M48.88 25.08c0 11.84-10.94 15.32-24.43 15.31C10.95 40.39 0 36.9 0 25.06S7.67 3.72 24.43 3.73c15.11 0 24.44 9.52 24.45 21.36"/><path fill="#fff" d="M42.87 19.86a5.22 5.22 0 0 0-5.21-5.22 5.21 5.21 0 0 0-5.21 5.21v5.46a5.22 5.22 0 0 0 5.21 5.22 5.21 5.21 0 0 0 5.21-5.21zm-26.45-.01a5.22 5.22 0 0 0-5.21-5.22A5.21 5.21 0 0 0 6 19.84v5.46a5.22 5.22 0 0 0 5.21 5.22 5.21 5.21 0 0 0 5.21-5.21"/><path fill="#0b2d28" d="M11.73 16.76a3.47 3.47 0 0 0-.87.12 2.32 2.32 0 0 1-.99 3.8 2.3 2.3 0 0 1-1.6-.09v4.72a3.47 3.47 0 0 0 3.46 3.47 3.47 3.47 0 0 0 3.46-3.47v-5.08a3.46 3.46 0 0 0-3.46-3.47zm25.54.01a2.32 2.32 0 0 1-.88 3.92 2.32 2.32 0 0 1-2.63-.96 3.47 3.47 0 0 0-.07.51v5.08a3.47 3.47 0 0 0 3.46 3.47 3.47 3.47 0 0 0 3.46-3.47v-5.08a3.46 3.46 0 0 0-3.34-3.46zM18.25 30.37c-1.43.02-2.3.45-2.3 1.96 0 3.23 3.96 5.85 8.84 5.86 4.88 0 8.84-2.61 8.84-5.84v-.01c0-3.23-3.96-1.51-8.84-1.51-2.6 0-4.92-.49-6.54-.46"/><g fill="#1da897"><path d="M41.83 13.68a.62.62 0 0 1-.48-.04 8.01 8.01 0 0 0-6.54-.38c-.33.12-.69-.04-.81-.37s.04-.69.37-.81a9.3 9.3 0 0 1 3.3-.6c1.48 0 2.96.36 4.27 1.04a.63.63 0 0 1 .27.85.62.62 0 0 1-.37.31zm-27.36-.41a.64.64 0 0 1-.41-.01 8 8 0 0 0-6.54.37.63.63 0 1 1-.58-1.12 9.3 9.3 0 0 1 4.27-1.03c1.14 0 2.25.2 3.3.61a.63.63 0 0 1-.03 1.19"/><path id="a" d="M26.91 28.45c.51-.16.8-.71.64-1.22s-.71-.8-1.22-.64-.8.71-.64 1.22.71.8 1.22.64"/><use x="-4.36" href="#a"/></g><path fill="#c45159" d="M24.79 31.98c-3.3 0-6.14 1.5-7.32 3.62 1.6 1.55 4.28 2.57 7.32 2.58 3.04 0 5.73-1.02 7.32-2.56-1.18-2.13-4.01-3.63-7.32-3.64"/><path fill="#fff" d="M18.23 30.36H18c.08 1.24.35 2.92 1.27 3.18.55.16 1.06-.24 1.48-.8 1.14.35 2.53.48 4.03.48 1.47 0 2.84-.12 3.96-.45.42.6.93 1.05 1.51.9.97-.25 1.26-2.05 1.35-3.3-1.62-.1-4.08.45-6.83.45-2.6 0-4.92-.49-6.54-.46"/></svg>
