<svg xmlns="http://www.w3.org/2000/svg" xml:space="preserve" width="26.66" height="26.66"><radialGradient id="a" cx="66.842" cy="47.512" r="11.569" gradientTransform="translate(.045 .045)" gradientUnits="userSpaceOnUse"><stop offset=".148" stop-color="#fff"/><stop offset=".335" stop-color="#fafafa"/><stop offset=".552" stop-color="#ececed"/><stop offset=".783" stop-color="#d5d6d7"/><stop offset=".981" stop-color="#bbbcbe"/></radialGradient><radialGradient id="b" cx="66.345" cy="41.385" r="9.855" gradientTransform="translate(.045 .045)" gradientUnits="userSpaceOnUse"><stop offset="0" stop-color="#fff"/><stop offset="1"/></radialGradient><path d="M80.38 42.89c0-7.36-5.97-13.33-13.33-13.33s-13.33 5.97-13.33 13.33 5.97 13.33 13.33 13.33 13.33-5.97 13.33-13.33z" fill="url(#a)" transform="translate(-53.72 -29.56)"/><path d="M3.34 9.16c0 4.33 4.51 7.84 10.07 7.84 5.56 0 10.08-3.51 10.08-7.84 0-4.32-4.51-7.83-10.08-7.83-5.56 0-10.07 3.51-10.07 7.83z" opacity=".64" fill="#fff"/><path d="M20.99 6.7a9.994 9.994 0 0 0-6.89-3.33c-2.67-.15-5.24.74-7.23 2.52a9.9 9.9 0 0 0-3.24 6.02l-1.81-.06 2.62 4.62 3.28-4.41-2.03-.07a7.856 7.856 0 0 1 2.54-4.56 7.89 7.89 0 0 1 5.75-2c2.12.13 4.07 1.06 5.48 2.65a7.858 7.858 0 0 1 2 5.76 7.912 7.912 0 0 1-2.65 5.48l1.36 1.52c2-1.77 3.18-4.22 3.34-6.89.16-2.67-.74-5.24-2.52-7.25z" fill="#fff"/><path d="M74.71 36.04a9.953 9.953 0 0 0-6.89-3.33c-2.67-.15-5.24.74-7.23 2.52a9.903 9.903 0 0 0-3.24 6.01l-1.81-.06 2.62 4.63 3.28-4.42-2.03-.07a7.912 7.912 0 0 1 2.54-4.57 7.933 7.933 0 0 1 5.75-2c2.12.12 4.07 1.07 5.48 2.66a7.849 7.849 0 0 1 2 5.75 7.912 7.912 0 0 1-2.65 5.48l1.36 1.53c2-1.78 3.18-4.22 3.34-6.89a9.93 9.93 0 0 0-2.52-7.24z" fill="url(#b)" transform="translate(-53.72 -29.56)"/></svg>