<svg xmlns="http://www.w3.org/2000/svg" fill="#50d2c2" viewBox="0 0 24 47"><path d="M8.555 4.4c-.009 2.397-1.931 4.358-4.272 4.36C1.92 8.762-.008 6.772 0 4.341.01 1.935 1.914 0 4.276 0c2.388 0 4.285 1.95 4.276 4.4Zm-4.3 42.598C1.872 46.987-.019 45.02 0 42.575c.02-2.39 1.969-4.355 4.302-4.335 2.37.02 4.267 2.001 4.25 4.442C8.536 45.085 6.62 47.011 4.255 47Zm15.485 0c-2.36.013-4.278-1.92-4.296-4.322-.017-2.432 1.892-4.423 4.26-4.438 2.336-.015 4.28 1.95 4.294 4.341.015 2.454-1.866 4.408-4.257 4.419zM8.555 17.094c.004 2.44-1.912 4.406-4.29 4.395C1.91 21.48.007 19.533 0 17.129c-.006-2.431 1.929-4.415 4.293-4.405 2.35.013 4.257 1.967 4.262 4.37zm15.443.019c0 2.435-1.937 4.402-4.308 4.376-2.36-.026-4.249-1.974-4.246-4.38 0-2.426 1.955-4.413 4.311-4.385 2.356.028 4.245 1.982 4.245 4.389ZM8.555 29.904c-.005 2.402-1.91 4.354-4.262 4.37-2.36.015-4.3-1.974-4.293-4.404.006-2.405 1.91-4.35 4.266-4.361 2.377-.01 4.295 1.954 4.289 4.395z"/><path d="M11.978 26.074c1.381.01 2.501-1.106 2.514-2.508.012-1.399-1.09-2.556-2.461-2.58-1.348-.023-2.504 1.134-2.52 2.526-.017 1.396 1.094 2.55 2.465 2.562zm0 12.642c1.381.01 2.501-1.105 2.514-2.506.012-1.398-1.09-2.555-2.461-2.579-1.348-.023-2.504 1.134-2.52 2.525-.017 1.397 1.094 2.551 2.465 2.562z" opacity=".5"/></svg>
