<svg xmlns="http://www.w3.org/2000/svg" width="32.56" height="32.56"><circle r="16.28" cy="16.28" cx="16.28" fill="#29abe0"/><path d="M22.258 8.8h1.608c3.1 0 5.614 2.514 5.614 5.614v.33a5.615 5.615 0 0 1-5.614 5.615h-1.608v1.69a2.591 2.591 0 0 1-2.591 2.591H7.43a2.591 2.591 0 0 1-2.591-2.591V10.096c0-.716.58-1.296 1.296-1.296zm0 2.997v5.565h1.466a2.783 2.783 0 1 0 0-5.565z" fill="#fff"/><path d="M13.2 14.077c.4-1.171 1.349-1.757 2.846-1.757 2.245 0 3.078 2.794 1.9 4.62-.784 1.218-2.366 2.758-4.746 4.62-2.38-1.862-3.962-3.402-4.747-4.62-1.177-1.826-.344-4.62 1.901-4.62 1.497 0 2.446.586 2.846 1.757z" fill="#ff5e5b"/></svg>