<svg xmlns="http://www.w3.org/2000/svg" id="Layer_1" data-name="Layer 1" width="146.41" height="146.41" version="1.1"><defs id="defs85"><style id="style83">.cls-1{fill:#bf2026}</style></defs><g id="g136" transform="translate(-269.42 -129.145)"><path class="cls-1" id="polygon89" transform="translate(-.43 167.775)" d="M302.96 19.23l-14.65 17.11 15.97 22.47h-11.06l-13.96-19.96h-.17v19.96h-9.24V1.43h9.24v32.92l12.8-15.12z"/><path class="cls-1" d="M303.02 206.775c0-13 6.08-20.72 17.48-20.72s17.45 7.77 17.45 20.72-6.07 20.7-17.45 20.7c-11.38 0-17.48-7.7-17.48-20.7m17.48 14.2c6.63 0 7.63-6.8 7.63-14.2 0-7.4-1-14.21-7.63-14.21s-7.67 6.8-7.67 14.21c0 7.41 1 14.2 7.67 14.2" id="path91"/><path class="cls-1" d="M352.22 191.775h.16a11.54 11.54 0 0110.19-5.7c9.49 0 13.64 8.07 13.64 20.72 0 11-3.83 20.7-16.72 20.7-10.4 0-16.54-5.91-16.54-17.72v-40.57h9.23v22.57zm7.35 29.22c5.92 0 6.91-7.72 6.91-14.2 0-7.16-.74-14.81-6.91-14.81-5.57 0-7.31 8.16-7.31 14.81 0 9.89 1.49 14.2 7.31 14.2" id="path93"/><path class="cls-1" d="M380.91 206.775c0-13 6.07-20.72 17.46-20.72s17.46 7.77 17.46 20.72-6.07 20.7-17.46 20.7-17.46-7.7-17.46-20.7m17.46 14.2c6.65 0 7.65-6.8 7.65-14.2 0-7.4-1-14.21-7.65-14.21s-7.65 6.8-7.65 14.21c0 7.41 1 14.2 7.65 14.2" id="path95"/></g></svg>