<svg xmlns="http://www.w3.org/2000/svg" overflow="visible" preserveAspectRatio="none" viewBox="0 0 118.866 130.203" height="143.224" width="143.224"><path d="M0 56.72h8.193v5.482h.063l6.271-5.483h9.202l-7.563 6.712 8.729 9.234H14.527l-6.27-6.524h-.064v6.524H0V56.718zm36.775-.442c9.328 0 11.849 1.922 11.849 8.445 0 6.523-2.521 8.446-11.849 8.446-9.328.031-11.88-1.89-11.88-8.446 0-6.523 2.552-8.445 11.88-8.445zm0 13.613c3.656 0 3.404-4.002 3.404-5.325 0-1.324.031-4.98-3.404-4.98s-3.403 3.656-3.403 4.98c-.032 1.323-.252 5.325 3.403 5.325zm29.528-3.213h-6.05v6.082h-8.415V56.814h8.414v5.483h6.05v-5.483h8.414v15.944h-8.413zm12.415-9.864h8.635v12.132s6.87.032 7.784.032c.913 0 1.45-.82 1.45-.82v4.57h-17.87V56.814zm37.973 5.294c-1.796-1.418-3.309-1.86-4.947-1.89-1.607-.032-3.089.535-3.089 1.48 0 .756 1.103 1.072 4.948 1.86 3.151.661 5.263 2.237 5.263 5.167 0 3.31-5.641 5.2-10.652 5.2-3.53 0-6.24-.63-8.666-1.702V67.75c1.513 1.544 4.853 2.363 7.437 2.363 1.418 0 2.143-.22 2.143-1.323 0-.694-.882-1.324-3.592-1.797-5.105-.914-6.839-2.363-6.839-4.82 0-3.53 4.475-5.61 9.958-5.61 2.963 0 5.673.094 8.068 1.197v4.35zm-24.895 1.23l.599-1.01c-1.765-.85-2.3-3.056-1.387-4.317.977-1.355 3.656-1.922 5.137.158 1.229 1.764.063 3.277-.473 3.718-.598.41-3.876 1.45-3.876 1.45z" vector-effect="non-scaling-stroke" fill="#444" fill-rule="evenodd"/></svg>