<svg
   width="32.474957mm"
   height="32.474957mm"
   viewBox="0 0 32.474957 32.474957"
   version="1.1"
   id="svg1"
   inkscape:export-filename="koho.svg"
   inkscape:export-xdpi="96"
   inkscape:export-ydpi="96"
   xmlns:inkscape="http://www.inkscape.org/namespaces/inkscape"
   xmlns:sodipodi="http://sodipodi.sourceforge.net/DTD/sodipodi-0.dtd"
   xmlns="http://www.w3.org/2000/svg"
   xmlns:svg="http://www.w3.org/2000/svg">
  <sodipodi:namedview
     id="namedview1"
     pagecolor="#ffffff"
     bordercolor="#000000"
     borderopacity="0.25"
     inkscape:showpageshadow="2"
     inkscape:pageopacity="0.0"
     inkscape:pagecheckerboard="0"
     inkscape:deskcolor="#d1d1d1"
     inkscape:document-units="mm" />
  <defs
     id="defs1" />
  <g
     inkscape:label="Layer 1"
     inkscape:groupmode="layer"
     id="layer1"
     transform="translate(-134.14375,-93.133331)">
    <rect
       class="cls-2"
       x="134.14375"
       y="93.133331"
       width="32.474957"
       height="32.474957"
       id="rect1"
       style="fill:#291a55;stroke-width:0.264583" />
    <path
       class="cls-1"
       d="m 154.70717,108.51092 4.77837,6.19389 v 0.005 c 0.8255,1.05834 1.07686,1.56898 1.07686,2.29659 0,1.07156 -1.10331,1.96585 -2.3495,1.96585 -0.72496,0 -1.76477,-0.37042 -2.33892,-1.11125 l -4.66989,-6.06425 -7.36071,7.1755 v -12.47246 l -1.26736,1.18534 c -0.43921,0.41275 -0.93662,0.67733 -1.71185,0.6932 -0.82815,0.0185 -1.68275,-0.75141 -1.70392,-1.53987 -0.0185,-0.76729 0.21961,-1.36525 1.08215,-2.17488 l 4.41854,-4.11427 v 0 c 0.43392,-0.38364 1.01865,-0.603246 1.71185,-0.603246 1.50019,0 2.50296,1.047746 2.50296,2.592916 l 0.0132,5.14615 7.51681,-7.07496 c 0.53446,-0.49742 1.13507,-0.817564 2.07698,-0.841377 1.00542,-0.02381 2.04259,0.910167 2.06375,1.865317 0.0238,0.92868 -0.26458,1.65364 -1.30968,2.63525 l -4.53496,4.24127 z"
       id="path2"
       style="fill:#dbfe01;fill-rule:evenodd;stroke-width:0.264583" />
  </g>
</svg>
