<svg xmlns="http://www.w3.org/2000/svg" xmlns:xlink="http://www.w3.org/1999/xlink" width="113.008" height="113.008"><defs><path id="a" d="M.001 27.757V.292h22.611v27.465z"/><mask id="b" fill="#fff"><use xlink:href="#a" width="100%" height="100%"/></mask></defs><g fill-rule="evenodd"><path d="M30.73 61.219a3.228 3.228 0 110-6.456 3.228 3.228 0 110 6.456m0-14.133c-6.023 0-10.905 4.88-10.905 10.905 0 6.022 4.882 10.904 10.905 10.904 6.024 0 10.904-4.882 10.904-10.904 0-6.024-4.88-10.905-10.904-10.905M54.525 62.795a4.804 4.804 0 01-4.804-4.805 4.804 4.804 0 119.606 0 4.804 4.804 0 01-4.802 4.805m0-15.709c-6.024 0-10.909 4.88-10.909 10.904 0 6.021 4.885 10.905 10.909 10.905 6.018 0 10.9-4.884 10.9-10.905 0-6.024-4.882-10.904-10.9-10.904M102.103 65.251a7.26 7.26 0 01-7.26-7.26 7.26 7.26 0 1114.523 0 7.262 7.262 0 01-7.263 7.26m0-18.165c-6.024 0-10.904 4.882-10.904 10.906 0 6.021 4.88 10.903 10.904 10.903s10.905-4.882 10.905-10.903c0-6.024-4.88-10.906-10.905-10.906M78.312 63.818c-3.254 0-5.888-2.67-5.888-5.961 0-3.294 2.634-5.966 5.888-5.966s5.892 2.672 5.892 5.966c0 3.292-2.638 5.961-5.892 5.961zm5.703-25.653v10.283a10.742 10.742 0 00-5.703-1.63c-6.02 0-10.904 4.94-10.904 11.039 0 6.096 4.883 11.038 10.904 11.038 6.013 0 10.89-4.93 10.904-11.016V38.165z" fill="#231f20"/><path d="M13.171.292s-4.958 5.563-6.637 7.43c.006-2.216 0-7.43 0-7.43H.001v27.465h6.533s-.002-11.323 0-14.003l7.75 8.36h8.328S12.804 11.539 12.048 10.73L21.378.292z" fill="#231f20" mask="url(#b)" transform="translate(-.001 47.086)"/></g></svg>