<svg xmlns="http://www.w3.org/2000/svg" width="43.649" height="43.649" viewBox="0 0 11.549 11.549"><path d="m9.948 10.046-1.178-.62-1.179.62.225-1.312-.953-.929 1.318-.191.589-1.194.589 1.194 1.317.191-.953.93zm-6.887-4.71-.831 4.26c-.106.325-.25.557-.556.558s-.557-.25-.558-.558V4.004c0-.308.25-.558.558-.558h2.05V1.954c0-.308.25-.558.558-.558h2.985c.307 0 .558.25.558.558v1.492h2.05c.308 0 .558.25.558.558v.58H4.031s-.832.007-.97.753zm6.814-3.007h-.934v-.376c0-.923-.751-1.674-1.674-1.674H4.282c-.923 0-1.674.75-1.674 1.674v.376h-.934C.751 2.329 0 3.08 0 4.003v5.593c0 .923.75 1.674 1.674 1.674h8.201c.923 0 1.674-.751 1.674-1.674V4.004c0-.923-.751-1.674-1.674-1.674z" fill="#71b627"/></svg>