<svg xmlns="http://www.w3.org/2000/svg" viewBox="0 0 10 10"><path fill="#71b627" d="M8.61 8.7 7.6 8.16l-1.02.54.2-1.14-.83-.8 1.14-.17.51-1.03.51 1.04 1.15.15-.83.8ZM2.65 4.62l-.72 3.7c-.09.27-.22.47-.48.47a.47.47 0 0 1-.48-.48V3.46c0-.26.22-.47.48-.47h1.77v-1.3c0-.26.22-.48.49-.48h2.58a.5.5 0 0 1 .49.48v1.3h1.77c.26 0 .48.21.48.47v.5H3.49s-.72.01-.84.66zm5.9-2.6h-.81v-.33c0-.8-.65-1.45-1.45-1.45H3.71C2.9.24 2.26.9 2.26 1.7v.33h-.81C.65 2.02 0 2.67 0 3.46v4.85c0 .8.65 1.45 1.45 1.45h7.1c.8 0 1.45-.65 1.45-1.45V3.46c0-.8-.65-1.44-1.45-1.44Z"/></svg>