<svg xmlns="http://www.w3.org/2000/svg" width="340.405" height="340.405"><path d="M159.5 36.796c29.5-1.9 59.5 4 86 17.2 39.1 19.2 70.2 53.9 84.9 94.8 6.5 18.1 10 37.2 10 56.4v71.3c0 2.9.1 5.9-.6 8.7-1.6 7.2-6.7 13.5-13.5 16.6-4.7 2.2-10.1 2.5-15.1 1.7-10.9-2-19.3-12.2-19.4-23.2-.1-22.1 0-44.2 0-66.4.2-6.3.2-13-3.2-18.5-5.5-10.2-18.9-15.1-29.6-10.7-9.1 3.2-15.7 12.4-15.8 22.1-.1 22.5 0 44.9 0 67.3 0 4.2.2 8.5-1 12.5-2.3 7.9-8.9 14.3-16.8 16.5-10.4 2.9-22.3-1.7-27.6-11.3-3.6-5.8-3.3-12.8-3.2-19.2-.1-22.3.1-44.6-.1-66.9-.2-11.3-9.5-21.5-20.8-23-7.3-1.1-15 1.3-20.3 6.5-4.8 4.5-7.5 11-7.5 17.6v65c-.1 5.5.6 11.1-1.5 16.2-3.2 9.3-12.6 16.1-22.5 15.8-10.1.6-20-6.4-23.2-15.9-1.8-4.7-1.4-9.7-1.4-14.7 0-22.4.1-44.8 0-67.3-.1-11.1-8.7-21.2-19.6-23.2-9.8-2.1-20.7 2.9-25.7 11.8-2.1 3.7-3.2 8-3.2 12.2v72.8c.1 7.1-3.2 14.1-8.6 18.6-8.2 7.2-21.5 7.6-30.2 1-6.3-4.3-10-11.6-10-19.2v-73.7c.1-27.9 7.1-55.7 20.4-80.2 10.9-20 25.8-37.9 43.7-52.1 27-21.9 60.8-35 95.4-37.1z" fill="#5741d9"/></svg>