<svg xmlns="http://www.w3.org/2000/svg" viewBox="0 0 340.4 267.5"><path fill="#5741d9" d="M159.5.3c29.5-1.9 59.5 4 86 17.2a171.5 171.5 0 0 1 84.9 94.8c6.5 18.1 10 37.3 10 56.4v71.4c0 2.9.1 5.9-.6 8.7a24.3 24.3 0 0 1-13.5 16.5 24.3 24.3 0 0 1-34.5-21.5v-66.3c.2-6.3.2-13-3.2-18.5a24.2 24.2 0 0 0-29.6-10.7 24.2 24.2 0 0 0-15.8 22v67.4c0 4.2.2 8.5-1 12.5a24.6 24.6 0 0 1-16.8 16.5 24.5 24.5 0 0 1-27.6-11.3c-3.6-5.8-3.3-12.8-3.2-19.2-.1-22.3.1-44.6-.1-67a24.4 24.4 0 0 0-41.1-16.4c-4.8 4.5-7.5 11-7.5 17.6v65c-.1 5.5.6 11-1.5 16.2a23.7 23.7 0 0 1-22.5 15.8c-10.1.6-20-6.4-23.2-16-1.8-4.6-1.4-9.6-1.4-14.6v-67.3a24.4 24.4 0 0 0-19.6-23.2 24.5 24.5 0 0 0-28.9 24V243c.1 7-3.2 14-8.6 18.6a24.6 24.6 0 0 1-30.2 1 23.3 23.3 0 0 1-10-19.2v-73.7A170 170 0 0 1 64.1 37.4c27-21.9 60.8-35 95.4-37z"/></svg>
