<svg xmlns="http://www.w3.org/2000/svg" xml:space="preserve" viewBox="0 0 70 70"><path fill="#2258A5" d="M0 0h70v70H0z"/><g fill="#FFF"><path d="M36.33 63.646c.609-.692 1.264-1.428 1.718-1.882.901-.901 1.833-.893 1.833-.893s-1.064-.522-2.186.599c-.301.302-.977 1.062-1.668 1.838-.25-.281-.497-.559-.726-.812.253-.279.491-.533.69-.731.901-.901 1.833-.893 1.833-.893s-1.064-.522-2.184.599c-.142.143-.37.389-.641.689a20.745 20.745 0 0 0-.641-.689c-1.121-1.121-2.185-.599-2.185-.599s.931-.009 1.833.893c.199.198.436.452.69.731-.229.254-.476.531-.726.812-.692-.775-1.368-1.536-1.669-1.838-1.121-1.121-2.184-.599-2.184-.599s.93-.009 1.833.893c.455.456 1.108 1.189 1.718 1.882-.576.644-1.125 1.253-1.438 1.565-.75.751-1.624.808-1.624.808s.94.55 2.222-.76c.237-.242.663-.725 1.142-1.271.261.296.507.575.713.806-.154.166-.291.311-.397.416-.75.751-1.625.809-1.625.809s.94.549 2.224-.761l.114-.118.114.118c1.281 1.31 2.222.761 2.222.761s-.875-.058-1.624-.809c-.107-.106-.244-.25-.398-.416.207-.23.452-.51.713-.806.48.546.904 1.028 1.143 1.271 1.281 1.31 2.222.76 2.222.76s-.874-.057-1.624-.808a47.739 47.739 0 0 1-1.437-1.565zm-1.33.806a83.346 83.346 0 0 1-.726-.806c.24-.273.487-.552.726-.818.239.267.486.545.726.818-.254.284-.501.559-.726.806zM11.457 24.919c.138.442.542.717 1.055.717.149 0 .3-.024.45-.07.018.03.039.061.069.102.078.106.169.195.271.264a.19.19 0 0 0 .264-.05.189.189 0 0 0-.049-.264.768.768 0 0 1-.18-.176l-.027-.037c.2-.122.364-.282.464-.472a.979.979 0 0 0 .071-.762.448.448 0 0 0-.384-.329c-.013-.001-.025.005-.038.007a2.005 2.005 0 0 0-.047-.185c-.184-.585-.714-1.056-1.116-1.021-.046-.039-.125-.088-.222-.056-.098.029-.135.108-.154.173a.687.687 0 0 0-.257.285c-.171.326-.202.793-.078 1.19.019.061.042.121.067.179-.011.005-.023.007-.033.015a.45.45 0 0 0-.126.49zm2.046-.544a.604.604 0 0 1-.066.38c-.105.201-.318.364-.582.446a1.16 1.16 0 0 1-.344.055c-.31 0-.549-.135-.659-.365.122.031.248.037.325.037.184 0 .379-.03.565-.088.315-.099.599-.275.761-.465zm-1.54-1.153c.046-.088.094-.129.126-.139a.196.196 0 0 0 .085-.053c.03.006.064.005.101-.006.152-.046.586.273.738.754.05.159.07.321.064.476a1.554 1.554 0 0 1-.899.296l-.045-.002a1.401 1.401 0 0 1-.221-.424c-.108-.348-.049-.711.051-.902zM15.84 28.062a.453.453 0 0 0 .425-.276c.004-.012.002-.024.004-.036.048.004.097.006.147.006h.042c.416-.009.849-.187 1.103-.453a.672.672 0 0 0 .188-.335c.049-.033.117-.093.115-.194 0-.103-.066-.162-.123-.198-.097-.395-.702-.744-1.325-.731a1.49 1.49 0 0 0-.19.015c-.002-.013 0-.026-.005-.039-.04-.096-.171-.257-.434-.257a.992.992 0 0 0-.777.4 1.291 1.291 0 0 0-.224.501l-.042-.013a.796.796 0 0 1-.227-.115.19.19 0 0 0-.225.307 1.171 1.171 0 0 0 .454.204c.019.707.466 1.219 1.069 1.219 0-.005.023-.005.025-.005zm.584-1.84c.5-.018.946.3.95.453 0 .04.01.073.025.101a.19.19 0 0 0-.021.101c0 .031-.023.09-.092.163-.149.156-.475.328-.836.336a1.405 1.405 0 0 1-.472-.069 1.532 1.532 0 0 1-.026-.988c.143-.057.303-.093.472-.097zm-1.299.605a1 1 0 0 1 .186-.635.623.623 0 0 1 .39-.242c-.125.214-.203.544-.196.869.007.316.095.646.238.859-.353-.042-.609-.387-.618-.851zM13.788 37.251a.682.682 0 0 0-.003-.384c.027-.053.056-.141.003-.229-.051-.086-.137-.105-.205-.109-.279-.294-.986-.293-1.514.023a1.75 1.75 0 0 0-.158.107c-.008-.01-.014-.023-.024-.031a.423.423 0 0 0-.252-.081.486.486 0 0 0-.251.073.992.992 0 0 0-.476.733c-.024.177-.001.362.055.546l-.043.01a.835.835 0 0 1-.253.013.19.19 0 1 0-.044.377 1.134 1.134 0 0 0 .376-.018l.119-.029c.25.412.641.658 1.047.658.18 0 .351-.049.509-.145a.448.448 0 0 0 .23-.449c-.002-.013-.01-.022-.014-.033.056-.027.113-.057.167-.09.355-.214.642-.585.731-.942zm-1.523-.372c.433-.26.971-.21 1.048-.082.02.036.046.061.074.078.001.031.01.064.031.098.016.027.025.09 0 .188-.051.209-.249.52-.56.707a1.359 1.359 0 0 1-.443.174 1.496 1.496 0 0 1-.328-.383 1.515 1.515 0 0 1-.186-.467c.098-.12.221-.227.364-.313zm-.828 1.17a1.006 1.006 0 0 1-.154-.645.622.622 0 0 1 .219-.404c-.003.249.093.574.261.854.171.282.413.515.633.626-.324.139-.728-.046-.959-.431zM7.156 37.648c.046.044.095.086.145.123-.006.01-.016.018-.021.029a.451.451 0 0 0 .13.489.974.974 0 0 0 .68.271c.336 0 .682-.163.949-.446.031.018.064.034.109.054.116.053.238.086.364.098l.019.001a.19.19 0 0 0 .189-.171.191.191 0 0 0-.171-.208.78.78 0 0 1-.245-.065l-.037-.018c.114-.205.175-.426.168-.641a.976.976 0 0 0-.313-.697.458.458 0 0 0-.322-.137.394.394 0 0 0-.171.036c-.012.006-.02.017-.031.026a1.921 1.921 0 0 0-.132-.139c-.446-.417-1.13-.568-1.472-.341-.06-.011-.153-.016-.223.061-.07.073-.063.161-.048.225a.687.687 0 0 0-.083.376c.01.369.214.791.516 1.074zm1.901-.472c.007.227-.098.473-.288.673-.197.21-.444.331-.678.331a.598.598 0 0 1-.348-.108c.24-.063.526-.243.75-.481.225-.24.385-.533.434-.777a.605.605 0 0 1 .13.362zm-1.998-.795a.202.202 0 0 0 .05-.088.171.171 0 0 0 .084-.056c.108-.113.645-.05 1.012.294.122.115.22.246.29.383a1.509 1.509 0 0 1-.685.721 1.398 1.398 0 0 1-.393-.262c-.265-.248-.392-.592-.398-.809-.003-.099.018-.159.04-.183zM15.413 47.896a.685.685 0 0 0-.188-.335c-.003-.06-.019-.149-.105-.197-.088-.055-.174-.029-.234.001-.387-.123-1.005.22-1.314.753a1.792 1.792 0 0 0-.086.169c-.012-.005-.023-.014-.037-.016a.458.458 0 0 0-.445.238c-.249.43-.133.949.25 1.322l-.034.029a.778.778 0 0 1-.215.133.19.19 0 0 0 .072.366.182.182 0 0 0 .072-.015 1.353 1.353 0 0 0 .41-.281c.227.129.473.199.71.199.389 0 .717-.184.899-.502a.453.453 0 0 0-.015-.506c-.008-.01-.02-.015-.029-.021.036-.052.071-.104.103-.16.209-.358.281-.819.186-1.177zm-1.514.412c.253-.437.748-.652.879-.577a.218.218 0 0 0 .102.031c.017.026.04.051.074.07.026.016.065.066.09.163.057.21.035.577-.147.89a1.413 1.413 0 0 1-.297.361 1.418 1.418 0 0 1-.479-.172 1.554 1.554 0 0 1-.388-.316c.028-.151.083-.305.166-.45zm-.158 1.424c-.348-.201-.598-.581-.451-.948.117.22.355.454.641.62.279.16.609.256.856.244-.213.274-.657.309-1.046.084zM12.25 50.555c-.043-.096-.156-.139-.251-.096a.736.736 0 0 1-.289.066c0-.191-.032-.376-.107-.539a1 1 0 0 0-.669-.561.47.47 0 0 0-.48.156c-.008.011-.009.023-.014.035a2.276 2.276 0 0 0-.183-.056c-.593-.147-1.264.056-1.451.419-.058.021-.143.062-.165.164-.025.098.022.17.067.22a.684.684 0 0 0 .109.369c.189.315.572.585.975.686.062.017.125.026.187.036-.001.013-.006.025-.005.037a.454.454 0 0 0 .353.363.993.993 0 0 0 .246.031c.505 0 .942-.393 1.091-.979l.004.001c.034 0 .071-.003.119-.007a1.16 1.16 0 0 0 .367-.094.19.19 0 0 0 .096-.251zm-3.106-.019c-.051-.085-.062-.147-.054-.177a.21.21 0 0 0 0-.103.196.196 0 0 0 .046-.091c.039-.152.54-.357 1.027-.236.164.041.312.112.44.199a1.52 1.52 0 0 1-.042.494 1.512 1.512 0 0 1-.2.464 1.37 1.37 0 0 1-.477-.038c-.35-.087-.629-.326-.74-.512zm2.155.271c-.104.418-.395.697-.724.697-.021 0-.043 0-.065-.004.188-.18.347-.49.421-.785.078-.314.076-.654 0-.892a.626.626 0 0 1 .328.322c.086.189.1.423.04.662zM21.471 58.938h.016c.702 0 1.235-.453 1.241-1.051a.451.451 0 0 0-.261-.435c-.012-.004-.023-.002-.035-.005.007-.062.012-.125.013-.189.005-.416-.157-.855-.414-1.119a.682.682 0 0 0-.328-.199c-.031-.051-.09-.122-.193-.122-.103-.003-.161.061-.199.115-.397.083-.77.684-.779 1.298-.001.064.002.129.008.191-.013.002-.027 0-.04.004-.1.037-.27.17-.271.426a.99.99 0 0 0 .372.79c.138.114.307.192.492.241a.75.75 0 0 1-.137.262.19.19 0 0 0 .148.311.188.188 0 0 0 .148-.072c.078-.096.14-.207.184-.33l.035-.116zm-.075-2.635a.179.179 0 0 0 .103-.022.187.187 0 0 0 .101.026c.031 0 .088.025.158.098.151.154.311.486.306.848a1.394 1.394 0 0 1-.091.471 1.58 1.58 0 0 1-.493.076 1.55 1.55 0 0 1-.49-.087 1.399 1.399 0 0 1-.08-.476c.008-.504.334-.934.486-.934zm-.784 1.647c.21.135.537.222.885.229.321 0 .637-.079.844-.205-.059.384-.46.584-.854.584h-.018a.995.995 0 0 1-.628-.21.609.609 0 0 1-.229-.398zM20.363 60.186a.763.763 0 0 1-.184.174l-.036.024c-.21-.377-.562-.614-.952-.614-.088 0-.177.013-.264.036a.448.448 0 0 0-.344.37c-.001.014.004.025.005.039-.062.01-.125.023-.187.04-.591.162-1.078.669-1.062 1.077-.04.044-.092.121-.063.223.026.096.103.137.166.156a.693.693 0 0 0 .277.27c.205.117.471.18.741.18a1.704 1.704 0 0 0 .626-.118c.005.01.006.021.014.032a.443.443 0 0 0 .348.163.549.549 0 0 0 .137-.018.968.968 0 0 0 .602-.467c.162-.281.198-.651.101-1.014.031-.018.062-.037.104-.065.106-.071.199-.159.274-.26a.192.192 0 0 0-.037-.267.191.191 0 0 0-.266.039zm-1.556 1.548c-.349.096-.71.023-.897-.084-.087-.051-.127-.1-.134-.128a.195.195 0 0 0-.049-.091.199.199 0 0 0-.004-.102c-.041-.152.295-.576.781-.709.161-.044.324-.059.478-.047.076.109.155.264.208.456.052.192.062.364.052.497a1.368 1.368 0 0 1-.435.208zm1.051-.17a.596.596 0 0 1-.286.258c.071-.238.067-.577-.017-.891-.081-.293-.246-.6-.437-.777.355-.043.684.238.803.677.073.269.051.536-.063.733z"/><path d="M31.83 64.039c.128 0 .247-.008.275-.1a.115.115 0 0 0 .005-.041l.004-.021c.007-.088.012-.186-1.246-.416.012-.461-.014-1.386-.573-1.746a.648.648 0 0 0-.348-.111c-.319 0-.487.268-.599.444a2.262 2.262 0 0 1-.063.097c-.055-.043-.081-.151-.128-.486l-.031-.215c-.052-.352-.16-1.085-.908-1.297a1.012 1.012 0 0 0-.267-.04c-.538 0-.689.507-.78.809-.033.108-.087.29-.143.322-.095-.078-.093-.569-.092-.779v-.152c-.004-.997-.469-1.569-1.275-1.569-.083 0-.17.006-.246.017-.239.021-.425.11-.554.269-.246.305-.192.744-.144 1.133.016.133.041.325.029.414a.252.252 0 0 1-.082.014c-.132 0-.275-.146-.439-.447-.299-.537-.772-.845-1.299-.845-.516 0-1.009.296-1.352.812-.344.518-.395 1.115-.135 1.6.256.477.778.762 1.396.762.05 0 .1-.002.149-.004a2.04 2.04 0 0 1 .154-.006c.381 0 .521.104.599.271a2.13 2.13 0 0 1-.355.193c-.352.169-.75.359-.85.741-.057.216-.002.446.17.692.456.593.973.717 1.327.717.42 0 .849-.18 1.207-.508l.146-.136c.201-.19.477-.45.635-.45.019 0 .044.004.077.021.009.049-.054.203-.092.296-.1.242-.224.544-.088.841.091.201.276.347.565.445.17.058.338.087.5.087.615 0 .993-.413 1.175-.61l.029-.031c.062-.065.118-.129.169-.188.179-.201.276-.306.379-.306h.003c.007.035.015.081.02.117.034.226.106.775.774.707.539-.057.961-.534 1.258-1.411.489.061.839.094 1.044.094zm-2.363.746c-.056.006-.095-.004-.096-.004-.026-.026-.045-.154-.056-.223-.028-.191-.077-.512-.399-.58a.865.865 0 0 0-.187-.021c-.364 0-.579.242-.805.498a7.053 7.053 0 0 1-.159.176l-.033.037c-.156.168-.391.426-.755.426-.1 0-.207-.02-.317-.057-.123-.043-.208-.096-.229-.141-.033-.074.039-.249.096-.39.104-.254.278-.679-.09-.958a.686.686 0 0 0-.421-.146c-.385 0-.711.308-1.026.604-.046.045-.093.088-.139.131-.252.23-.544.358-.822.358-.323 0-.626-.171-.867-.485-.036-.051-.095-.148-.079-.209.034-.127.342-.275.545-.372.352-.169.833-.399.662-.86-.258-.689-.931-.689-1.152-.689-.061 0-.124.002-.191.006-.465.033-.834-.137-1.005-.457-.159-.295-.118-.674.107-1.014.236-.354.556-.559.877-.559.319 0 .603.197.8.551.173.318.46.742.939.742a.894.894 0 0 0 .344-.073c.377-.155.323-.601.274-.995-.031-.248-.073-.587.021-.702.01-.013.041-.05.174-.062.064-.01.125-.014.183-.014.191 0 .7 0 .705 1.002v.147c-.002.432-.004.921.257 1.183a.594.594 0 0 0 .468.166c.418-.033.538-.434.625-.725.129-.43.179-.432.346-.385.364.104.444.453.5.832l.031.211c.061.431.123.877.638.992.03.006.06.009.09.009.266 0 .407-.224.51-.388l.112-.178s.015.003.045.021c.122.078.313.336.31 1.166a43.115 43.115 0 0 0-.443-.072c-2.104-.369-4.767-1.422-5.643-1.768-.273-.107-.273-.107-.3-.107a.097.097 0 0 0-.071.031.132.132 0 0 0-.016.025.09.09 0 0 0-.008.028.118.118 0 0 0 .004.042c.061.178 3.505 1.818 5.938 2.248l.453.069c-.261.727-.545.912-.745.933zM14.755 24.833l.036.055.005.032h.089c.041 0 .085 0 .357-.296.353.19.83.407 1.278.407.193 0 .365-.042.513-.125a.597.597 0 0 0 .297-.363c.063-.244-.066-.46-.16-.619a6.006 6.006 0 0 1-.054-.093c.08-.024.248.037.443.103l.236.079c.166.056.416.14.691.14.34 0 .624-.126.837-.367.163-.169.243-.351.239-.54-.007-.314-.245-.54-.435-.721-.072-.068-.189-.18-.215-.236.007-.009.017-.012.047-.012.169 0 .462.149.697.269l.104.053c.991.472 1.771.203 2.045-.649.083-.228.081-.437-.007-.622-.165-.346-.565-.484-.917-.606-.121-.042-.295-.102-.366-.148.016-.117.09-.269.593-.271.583-.019 1.058-.277 1.301-.709.258-.459.226-1.042-.09-1.598-.292-.515-.783-.823-1.312-.823-.596 0-1.114.378-1.382 1.003-.212.462-.366.556-.545.557-.019-.091-.017-.271-.016-.398.003-.373.006-.794-.251-1.054a.69.69 0 0 0-.508-.196 1.14 1.14 0 0 0-.205.02c-.544.112-.955.379-1.188.772-.229.384-.27.851-.12 1.345l.065.223c.118.387.204.712.062.775-.047-.013-.156-.139-.221-.215-.175-.202-.393-.455-.732-.455-.207 0-.407.095-.62.296-.664.67-.386 1.401-.268 1.713l.015.041c.026.07.052.136.077.198.118.301.145.398.102.483a1.612 1.612 0 0 1-.105-.034c-.114-.038-.244-.082-.386-.082-.155 0-.436.058-.586.441-.201.506.043 1.105.719 1.782-.208.337-.178.404-.159.445zm-.03-2.018c.025-.065.057-.076.056-.081.05 0 .132.028.206.052.106.036.216.072.334.072a.45.45 0 0 0 .36-.167c.305-.381.16-.749.02-1.104a20.616 20.616 0 0 1-.072-.187l-.017-.044c-.135-.355-.234-.733.133-1.104.128-.121.198-.134.222-.134.079 0 .202.143.301.257.158.183.354.411.647.411a.56.56 0 0 0 .229-.049c.624-.261.405-.983.26-1.461-.021-.071-.043-.142-.063-.216-.104-.343-.082-.652.062-.895.15-.251.432-.427.806-.504a.603.603 0 0 1 .098-.01c.076 0 .097.021.104.028.09.091.087.426.086.648-.003.39-.007.923.47.967.655.065.964-.416 1.182-.89.179-.417.5-.665.861-.665.321 0 .626.2.816.534.214.378.247.757.088 1.038-.146.258-.437.407-.814.419-.907.003-1.129.464-1.156.853-.022.407.408.555.753.674.222.077.526.182.588.312.008.015.03.062-.017.192-.145.45-.409.501-.595.501s-.415-.062-.66-.179l-.097-.049c-.304-.155-.65-.33-.956-.33a.6.6 0 0 0-.571.354c-.173.381.139.679.346.875.102.097.256.244.258.321 0 .03-.029.079-.087.141a.524.524 0 0 1-.419.184c-.181 0-.371-.063-.509-.11l-.235-.078c-.217-.074-.404-.137-.589-.137a.654.654 0 0 0-.533.259c-.206.251-.04.532.06.699.031.052.081.135.094.18l-.024.017a.47.47 0 0 1-.23.049c-.293 0-.649-.155-.892-.278.203-.239.464-.554.805-.971 1.266-1.548 3.278-3.297 4.168-4.008l.023-.016c.346-.244.346-.244.351-.298l.003-.038-.053-.066h-.046c-.037 0-.057 0-.391.267-.769.542-3.096 2.188-4.443 3.831-.354.435-.613.769-.803 1.028-.583-.605-.578-.942-.518-1.094zM17.736 59.369c.557 0 1.084-.416 1.358-.662.204.141.349.214.431.214.07 0 .102-.042.112-.06.002-.003.004-.006.005-.011a.084.084 0 0 0 .026-.038c.017-.054.026-.088-.299-.411.202-.327.749-1.238.388-1.854-.15-.27-.357-.326-.504-.326-.178 0-.335.084-.461.15l-.082.043c-.017-.064.013-.173.117-.449l.08-.213c.113-.299.377-.998-.167-1.529-.165-.182-.348-.274-.543-.274-.304 0-.534.224-.72.403-.077.075-.205.199-.252.201-.06-.1.204-.571.291-.727l.057-.104c.274-.523.341-.982.198-1.365-.119-.319-.375-.558-.755-.707a.915.915 0 0 0-.347-.074c-.547 0-.762.549-.919.947-.047.12-.115.293-.166.363-.114-.024-.258-.109-.267-.578.022-.467-.108-.863-.379-1.147-.43-.451-1.185-.525-1.869-.173-.538.277-.861.768-.863 1.311-.002.568.344 1.089.94 1.399.486.218.555.378.542.548-.06.01-.229.009-.396 0a6.459 6.459 0 0 0-.311-.01c-.264 0-.593.029-.801.267-.14.159-.193.378-.157.65.132.907.726 1.472 1.55 1.472.166 0 .338-.023.506-.067.073-.017.149-.036.225-.057.213-.056.434-.113.599-.113.147 0 .163.041.18.08-.014.046-.143.148-.22.21-.2.158-.449.357-.483.678-.023.217.058.435.258.676a1.34 1.34 0 0 0 1.02.464c.284 0 .523-.081.683-.134l.054-.018c.073-.023.142-.049.207-.072.161-.057.3-.105.39-.105.025 0 .05.002.084.024-.011.035-.029.081-.042.116-.079.201-.288.738.329.996.117.043.243.066.373.066zm-.743-1.774c-.188 0-.37.064-.581.139-.061.022-.126.046-.193.067l-.058.02c-.132.043-.312.104-.502.104a.777.777 0 0 1-.59-.268c-.082-.1-.126-.189-.121-.242.009-.084.154-.199.271-.291.222-.177.558-.443.396-.861-.062-.166-.239-.445-.71-.445-.238 0-.495.066-.743.131-.072.02-.143.038-.218.057-.128.033-.251.05-.369.05-.544 0-.894-.349-.986-.979-.013-.095-.005-.166.021-.195.024-.027.104-.074.373-.074.093 0 .188.006.282.01.098.006.192.01.28.01.429 0 .665-.148.7-.433.112-.683-.404-1.007-.85-1.206-.388-.203-.62-.535-.618-.885.001-.333.203-.627.554-.807.461-.238.937-.212 1.195.059.16.169.238.42.222.746.012.699.286 1.09.826 1.161l.043.002c.376 0 .529-.388.663-.731.103-.26.229-.585.389-.585a.38.38 0 0 1 .134.033c.231.091.374.214.435.378.083.22.024.532-.167.896l-.052.095c-.21.376-.448.802-.34 1.163a.592.592 0 0 0 .548.42c.266 0 .469-.197.648-.371.1-.096.251-.242.323-.242.02 0 .062.023.133.1.268.262.173.59.044.932l-.08.215c-.146.383-.295.78.066 1.131a.435.435 0 0 0 .296.114c.149 0 .283-.071.401-.134a7.84 7.84 0 0 0 .171-.092s.011.01.032.047c.056.096.132.398-.315 1.166a113.5 113.5 0 0 0-.907-.839c-1.08-.958-2.398-2.47-3.92-4.489-.17-.227-.17-.227-.22-.227a.097.097 0 0 0-.034.006.1.1 0 0 0-.061.073c-.034.186 2.062 3.384 3.888 5.011.364.334.676.606.937.82-.352.297-.653.448-.896.448a.51.51 0 0 1-.161-.027c-.051-.022-.072-.04-.074-.04-.008-.037.038-.156.063-.221.07-.18.188-.48-.047-.697a.709.709 0 0 0-.521-.223zM9.416 46.91c.086.018.167.031.244.045.301.053.398.08.445.155a2.735 2.735 0 0 1-.084.073c-.163.137-.593.499-.198 1.018.22.289.577.436 1.061.436.308 0 .6-.061.779-.104.204.434.273.438.324.438a.11.11 0 0 0 .085-.041l.041-.021c.025-.035.058-.088-.064-.525.373-.212 1.199-.722 1.215-1.402a.588.588 0 0 0-.154-.441c-.175-.182-.427-.185-.611-.188-.031 0-.072 0-.106-.002.013-.066.091-.144.333-.344l.164-.138c.269-.224.829-.69.625-1.429-.103-.367-.351-.57-.701-.57-.166 0-.334.045-.483.085-.111.029-.226.06-.301.06-.023 0-.032-.004-.035-.01.02-.119.428-.365.602-.471l.125-.077c.502-.312.788-.673.85-1.071.053-.344-.064-.686-.335-1.003-.204-.274-.441-.333-.604-.333-.347 0-.654.248-.926.467a2.393 2.393 0 0 1-.322.236c-.093-.071-.168-.19.093-.646.292-.494.323-1.025.085-1.461-.256-.468-.79-.762-1.429-.783l-.068-.002c-.598 0-1.103.279-1.349.749-.259.491-.192 1.106.179 1.647.292.415.252.615.168.752a2.374 2.374 0 0 1-.343-.195c-.262-.168-.56-.357-.866-.357-.211 0-.502.09-.692.533-.181.5-.168.979.038 1.381.206.401.594.701 1.092.844l.19.053c.413.111.728.21.721.363-.036.031-.196.057-.292.072-.254.041-.571.093-.752.359-.122.18-.15.41-.085.703.207.924.971 1.074 1.297 1.138l.044.007zm-.784-1.269c-.04-.182-.009-.245 0-.26.043-.064.233-.095.372-.117.267-.043.712-.115.76-.572.058-.654-.63-.84-1.132-.977a4.83 4.83 0 0 1-.182-.051c-.346-.098-.61-.295-.743-.555-.132-.259-.136-.58-.015-.912.074-.174.136-.174.163-.174.139 0 .372.148.559.27.238.151.463.295.689.295a.478.478 0 0 0 .386-.193c.458-.633.017-1.261-.125-1.464-.252-.367-.304-.752-.144-1.058.148-.282.457-.443.846-.443h.048c.435.016.789.199.948.488.141.258.114.576-.077.9-.138.24-.559.971.104 1.422a.46.46 0 0 0 .273.088c.243 0 .456-.171.702-.369.179-.145.423-.342.569-.342.021 0 .07 0 .158.117.171.201.245.391.218.561-.035.225-.238.458-.587.676l-.12.072c-.373.226-.794.48-.867.85a.568.568 0 0 0 .11.456.569.569 0 0 0 .485.233c.149 0 .3-.041.447-.079.121-.032.245-.065.337-.065.063 0 .108 0 .151.152.098.354-.153.6-.44.839l-.164.136c-.326.271-.663.551-.499 1.043.107.306.434.311.628.312.061 0 .158.002.203.014a.292.292 0 0 1 .001.032c-.003.141-.121.432-.819.854a42.089 42.089 0 0 0-.397-1.135c-.652-1.87-1.021-4.453-1.18-5.555-.085-.595-.085-.595-.177-.595l-.079.04c-.09.128.106 3.834.953 6.27.178.49.321.863.438 1.154a2.818 2.818 0 0 1-.55.064c-.297 0-.501-.07-.607-.21-.04-.052-.044-.077-.045-.077.01-.036.105-.115.156-.159.146-.123.391-.329.283-.636-.153-.457-.54-.525-.914-.59a7.584 7.584 0 0 1-.227-.041l-.047-.01c-.366-.07-.734-.184-.85-.699zM8.912 33.505l.032.028c.062.053.123.101.179.146.247.198.319.271.323.361a1.508 1.508 0 0 1-.113.023c-.208.04-.761.146-.676.787.065.525.556.923 1.449 1.188-.014.347.036.41.06.438.02.025.069.049.104.045a.08.08 0 0 0 .029.006c.064 0 .104-.006.205-.426.408-.002 1.385-.035 1.753-.632.095-.159.125-.314.086-.462-.063-.243-.281-.369-.44-.461-.026-.015-.059-.034-.087-.052.042-.048.147-.079.44-.135l.225-.044c.318-.059 1.062-.199 1.236-.947.179-.75-.483-.92-.802-1.001-.095-.025-.251-.064-.301-.101l.003-.006c.095-.104.542-.121.783-.129l.116-.005c.577-.035.997-.211 1.248-.526.215-.269.29-.617.222-1.034-.041-.257-.206-.689-.848-.689-.187 0-.384.035-.557.065-.139.024-.271.048-.364.048l-.03-.001c-.039-.113-.041-.292.369-.524.503-.286.795-.733.803-1.228.008-.531-.313-1.046-.859-1.379-.646-.393-1.418-.312-1.872.181-.297.323-.438.78-.396 1.288.041.508-.026.668-.195.757a2.457 2.457 0 0 1-.206-.339c-.2-.367-.449-.823-.908-.823-.175 0-.352.071-.526.212-.422.343-.656.764-.677 1.216-.021.452.178.907.556 1.277.052.053.108.107.165.163.288.279.518.519.41.645a1.12 1.12 0 0 1-.285-.08c-.158-.058-.337-.123-.522-.123-.242 0-.563.111-.722.646-.264.911.334 1.413.59 1.627zm-.045-1.467c.07-.236.141-.236.175-.236.085 0 .208.045.327.088.155.056.315.114.48.114.192 0 .353-.08.459-.223.426-.531-.115-1.055-.473-1.401-.053-.052-.106-.103-.159-.157-.264-.259-.403-.56-.39-.847.014-.286.175-.562.467-.799.095-.078.148-.085.167-.085.121 0 .301.33.408.526.175.322.356.654.688.654a.446.446 0 0 0 .181-.038c.688-.271.63-.976.6-1.354-.028-.348.059-.651.247-.856.274-.297.742-.333 1.157-.08.372.227.59.557.585.884-.005.292-.188.556-.515.741-.806.456-.716 1.01-.584 1.312.063.127.205.279.526.279.143 0 .298-.028.463-.057.158-.028.321-.057.457-.057.228 0 .263.066.286.209.042.251.006.449-.104.587-.144.18-.434.289-.833.312l-.108.004c-.433.016-.925.035-1.181.313a.599.599 0 0 0-.153.449c.036.418.453.525.729.595.438.112.427.156.388.319-.083.358-.419.449-.786.518l-.228.044c-.406.078-.827.159-.922.658-.06.322.222.485.392.583.051.029.132.076.166.107a.208.208 0 0 1-.013.026c-.077.125-.329.328-1.143.356.063-.312.142-.721.244-1.261.333-1.923 1.284-4.336 1.689-5.367.23-.584.23-.584.168-.646a.1.1 0 0 0-.06-.021c-.23 0-1.886 3.578-2.297 5.934-.104.557-.17.974-.211 1.292-.765-.245-.918-.527-.938-.683-.009-.066 0-.091 0-.091.025-.026.15-.05.217-.063.187-.036.5-.096.56-.416.093-.481-.219-.731-.521-.974a5.156 5.156 0 0 1-.167-.137l-.035-.029c-.282-.237-.552-.517-.405-1.026zM56.689 25.406a.757.757 0 0 1-.207.212.19.19 0 0 0 .215.314c.101-.069.192-.158.272-.265.029-.041.051-.07.067-.101.149.046.302.07.45.07.514 0 .918-.275 1.055-.717a.451.451 0 0 0-.127-.491c-.01-.008-.021-.009-.032-.015a1.82 1.82 0 0 0 .066-.179c.124-.397.095-.864-.076-1.19a.68.68 0 0 0-.257-.285c-.016-.058-.051-.142-.148-.171-.097-.033-.174.01-.227.053-.404-.031-.933.435-1.117 1.021-.02.062-.035.123-.048.185-.013-.001-.024-.008-.037-.007a.448.448 0 0 0-.385.329.99.99 0 0 0 .131.864c.102.149.241.273.405.373zm.297-1.629c.152-.481.59-.8.736-.755a.202.202 0 0 0 .102.007.22.22 0 0 0 .088.054c.029.009.077.05.125.138.1.191.158.554.05.901a1.363 1.363 0 0 1-.221.423l-.045.002c-.146 0-.303-.024-.451-.071a1.503 1.503 0 0 1-.448-.226 1.454 1.454 0 0 1 .064-.473zm-.49.598c.164.188.451.368.762.466.186.058.381.088.564.088.077 0 .203-.006.325-.038-.109.231-.35.365-.66.365-.112 0-.228-.019-.345-.055a.998.998 0 0 1-.541-.379.621.621 0 0 1-.105-.447zM55.254 26.843a1.197 1.197 0 0 0 .454-.204c.085-.062.103-.181.04-.266s-.18-.103-.265-.041a.802.802 0 0 1-.228.115l-.043.014c-.117-.521-.506-.89-1.015-.902a.446.446 0 0 0-.419.258c-.005.012-.004.025-.005.039a1.699 1.699 0 0 0-.19-.014c-.617-.012-1.223.333-1.324.73-.051.031-.124.091-.124.195-.003.1.06.16.114.198a.677.677 0 0 0 .189.336c.254.266.687.444 1.102.453h.043c.05 0 .099-.002.146-.006.003.012 0 .024.005.036a.449.449 0 0 0 .425.276h.025c.603.002 1.052-.511 1.07-1.217zm-1.703.532c-.363-.008-.688-.18-.837-.336-.069-.073-.093-.132-.093-.16a.195.195 0 0 0-.021-.102.187.187 0 0 0 .025-.098c.005-.157.45-.467.95-.458.169.004.329.041.472.097.041.126.073.294.069.491a1.47 1.47 0 0 1-.095.497 1.386 1.386 0 0 1-.47.069zm.709.302c.141-.213.229-.543.236-.859.006-.324-.071-.654-.197-.869.35.061.588.414.576.878-.01.463-.264.807-.615.85zM57.328 38.766a.96.96 0 0 0 .508.144c.407 0 .798-.247 1.048-.658a1.309 1.309 0 0 0 .495.047.19.19 0 0 0 .166-.211.19.19 0 0 0-.211-.166.718.718 0 0 1-.252-.014c-.018-.004-.031-.006-.044-.01a1.28 1.28 0 0 0 .056-.545.992.992 0 0 0-.477-.732.478.478 0 0 0-.251-.074.417.417 0 0 0-.253.081c-.01.008-.016.021-.024.031a1.765 1.765 0 0 0-.159-.107c-.523-.315-1.225-.317-1.511-.023-.06.002-.152.017-.205.107-.052.086-.028.169.001.229a.694.694 0 0 0-.004.385c.089.357.376.728.733.941.054.033.11.062.167.09-.004.011-.012.021-.014.033a.456.456 0 0 0 .231.452zm1.389-1.362c.027.205-.027.434-.154.645-.231.385-.635.571-.959.432.221-.111.463-.344.633-.627.168-.279.264-.604.262-.854a.62.62 0 0 1 .218.404zm-2.137-.244c-.023-.098-.014-.16 0-.186a.19.19 0 0 0 .031-.098.182.182 0 0 0 .071-.074c.081-.133.62-.184 1.052.076.144.086.267.193.363.312a1.541 1.541 0 0 1-.514.851 1.393 1.393 0 0 1-.443-.173c-.31-.187-.507-.499-.56-.708zM61.402 36.393c-.011-.009-.019-.02-.031-.025a.397.397 0 0 0-.17-.036.457.457 0 0 0-.324.136.97.97 0 0 0-.313.697c-.006.215.054.436.169.641a.775.775 0 0 1-.282.084.19.19 0 0 0 .018.379l.019-.002a1.16 1.16 0 0 0 .473-.151c.268.283.613.445.949.445a.975.975 0 0 0 .679-.27.453.453 0 0 0 .131-.49c-.005-.011-.014-.018-.021-.027.05-.039.098-.08.145-.123.304-.285.508-.707.518-1.074a.673.673 0 0 0-.083-.375c.015-.057.025-.148-.044-.222-.068-.076-.158-.077-.225-.065-.335-.229-1.025-.08-1.475.341a1.434 1.434 0 0 0-.133.137zm-.172 1.457c-.189-.201-.295-.447-.287-.674a.606.606 0 0 1 .13-.363c.048.244.21.537.435.778.223.237.51.417.75.48-.289.202-.722.103-1.028-.221zm1.571-1.62a.204.204 0 0 0 .09.061.208.208 0 0 0 .051.092c.021.022.043.081.039.181-.006.216-.133.561-.398.81-.12.113-.256.202-.396.263a1.49 1.49 0 0 1-.401-.306 1.517 1.517 0 0 1-.281-.417c.07-.136.168-.268.291-.382.366-.345.903-.409 1.005-.302zM56.997 48.51a.458.458 0 0 0-.446-.237c-.014.003-.024.011-.036.016a1.61 1.61 0 0 0-.088-.17c-.306-.53-.918-.869-1.311-.752-.054-.028-.143-.06-.229-.006-.088.049-.108.134-.112.201a.674.674 0 0 0-.189.335c-.096.356-.022.818.186 1.178.031.057.066.108.104.16-.01.008-.021.012-.027.021a.45.45 0 0 0-.017.506c.183.318.511.502.899.502.238 0 .484-.068.711-.199a1.353 1.353 0 0 0 .409.281.184.184 0 0 0 .248-.102.191.191 0 0 0-.104-.249.755.755 0 0 1-.215-.133l-.034-.029c.384-.374.499-.894.251-1.323zm-2.044-.514c.025-.098.064-.148.09-.163a.207.207 0 0 0 .074-.069.228.228 0 0 0 .098-.029c.135-.078.631.137.885.573.084.146.139.3.166.45a1.48 1.48 0 0 1-.867.488 1.357 1.357 0 0 1-.297-.361c-.182-.314-.205-.681-.149-.889zm1.305 1.736c-.172.1-.354.151-.527.151a.641.641 0 0 1-.52-.235c.25.012.578-.084.857-.245.285-.165.523-.399.641-.619.146.367-.104.747-.451.948zM61.196 49.982c-.183-.363-.857-.568-1.454-.421a1.679 1.679 0 0 0-.183.056c-.005-.012-.007-.025-.014-.035a.469.469 0 0 0-.481-.156.993.993 0 0 0-.668.562 1.25 1.25 0 0 0-.108.538c-.013 0-.025-.002-.044-.004A.708.708 0 0 1 58 50.46a.19.19 0 0 0-.155.348c.114.052.237.083.366.094.049.005.086.008.12.008h.003c.148.584.586.977 1.09.977.082 0 .165-.01.246-.031a.454.454 0 0 0 .354-.362c.002-.013-.004-.025-.004-.038.062-.009.124-.02.186-.035.404-.102.787-.37.976-.686a.683.683 0 0 0 .11-.369c.041-.042.094-.117.068-.213-.022-.104-.1-.148-.164-.171zm-2.495.825a.996.996 0 0 1 .04-.661.62.62 0 0 1 .327-.322c-.075.237-.078.577 0 .892.074.295.233.605.421.785-.358.039-.678-.249-.788-.694zm2.154-.27c-.111.185-.391.424-.742.512-.16.041-.322.053-.475.037a1.491 1.491 0 0 1-.201-.463 1.475 1.475 0 0 1-.043-.495c.129-.087.275-.157.439-.198.488-.121.989.084 1.027.23a.19.19 0 0 0 .047.094.203.203 0 0 0 0 .104c.009.031-.001.093-.052.179zM48.924 58.925a.79.79 0 0 0-.016-.042c.517-.138.871-.534.865-1.031a.447.447 0 0 0-.271-.425c-.014-.005-.027-.003-.04-.005.005-.062.009-.127.007-.191-.01-.611-.378-1.209-.777-1.297-.032-.047-.092-.117-.193-.117a.24.24 0 0 0-.199.122.687.687 0 0 0-.329.2c-.257.264-.42.703-.415 1.119.002.064.006.127.014.189-.012.002-.023 0-.035.005a.451.451 0 0 0-.262.433c.007.601.541 1.053 1.242 1.053h.016c.009.033.02.068.037.115.045.123.105.234.184.33a.187.187 0 0 0 .148.071.192.192 0 0 0 .119-.042.191.191 0 0 0 .028-.268.68.68 0 0 1-.123-.219zm-.684-2.521c.07-.071.129-.098.157-.098a.21.21 0 0 0 .101-.025.188.188 0 0 0 .091.021h.009c.158 0 .484.431.491.934.002.168-.028.329-.079.475a1.57 1.57 0 0 1-.508.088c-.191 0-.354-.034-.477-.076a1.39 1.39 0 0 1-.091-.471c-.004-.361.156-.693.306-.848zm-.581 1.569c.208.127.526.205.866.205.33-.005.652-.094.861-.228-.047.352-.392.601-.855.607h-.018c-.394.001-.794-.2-.854-.584zM51.596 60.254a1.982 1.982 0 0 0-.186-.039c.001-.014.006-.026.004-.039a.446.446 0 0 0-.343-.37 1.001 1.001 0 0 0-.265-.036c-.389 0-.74.237-.951.613l-.036-.023a.786.786 0 0 1-.185-.174.19.19 0 1 0-.303.229 1.171 1.171 0 0 0 .378.325c-.097.363-.061.733.101 1.015a.987.987 0 0 0 .602.467.558.558 0 0 0 .139.018.443.443 0 0 0 .348-.164c.007-.01.008-.021.014-.033a1.704 1.704 0 0 0 .625.118c.271 0 .536-.061.741-.179a.688.688 0 0 0 .276-.269c.057-.017.139-.056.166-.156.027-.098-.018-.172-.062-.223.019-.406-.47-.917-1.063-1.08zm-1.169 1.568a.606.606 0 0 1-.286-.258c-.113-.197-.135-.465-.062-.734.111-.406.404-.681.73-.681a.58.58 0 0 1 .072.005c-.191.179-.356.486-.438.777-.084.314-.088.653-.016.891zm1.846-.392a.214.214 0 0 0-.049.091c-.008.03-.047.079-.135.13-.188.106-.548.179-.898.083a1.359 1.359 0 0 1-.432-.206 1.547 1.547 0 0 1 .258-.952c.154-.013.318.003.479.046.486.133.822.557.782.704a.219.219 0 0 0-.005.104zM47.073 59.289c-.527 0-1 .308-1.3.846-.163.301-.307.445-.438.445a.29.29 0 0 1-.082-.013c-.011-.089.013-.282.029-.415.048-.388.103-.828-.144-1.131a.75.75 0 0 0-.539-.268c-.961-.131-1.531.45-1.535 1.551v.152c.001.211.003.701-.105.78-.043-.033-.098-.215-.13-.323-.091-.303-.241-.809-.78-.809-.083 0-.173.014-.268.04-.748.213-.855.945-.908 1.298l-.031.215c-.046.336-.072.443-.127.486-.021-.03-.045-.068-.064-.098-.11-.177-.279-.443-.598-.443a.657.657 0 0 0-.35.111c-.559.359-.584 1.283-.572 1.744-1.258.232-1.253.33-1.246.417a.143.143 0 0 0 .004.022c0 .014.002.027.006.041.029.091.146.098.275.098.205 0 .555-.032 1.045-.098.297.877.719 1.355 1.258 1.411a.751.751 0 0 0 .104.006c.562 0 .638-.5.669-.714l.021-.116h.003c.104 0 .201.105.379.307.053.06.108.122.168.187l.031.033c.182.197.561.609 1.176.609.162 0 .33-.029.5-.087.289-.098.474-.243.564-.444.135-.297.012-.6-.088-.842-.038-.092-.102-.246-.096-.285.036-.027.061-.031.08-.031.159 0 .435.26.635.449l.145.136c.358.328.787.509 1.208.509.354 0 .871-.125 1.333-.729.166-.236.221-.465.164-.682-.101-.381-.498-.572-.851-.74-.116-.057-.284-.137-.354-.193.077-.17.218-.271.599-.271.05 0 .101.002.151.004.696.049 1.271-.24 1.547-.756.26-.484.209-1.082-.135-1.6-.344-.513-.836-.809-1.353-.809zm.986 2.141c-.158.293-.482.463-.894.463-.036 0-.073-.002-.114-.005a2.478 2.478 0 0 0-.189-.007c-.221 0-.895 0-1.152.691-.171.459.311.69.662.858.203.098.512.245.545.372.016.062-.043.158-.071.199-.248.324-.55.495-.874.495-.277 0-.568-.128-.822-.359a15.256 15.256 0 0 1-.139-.129c-.314-.298-.641-.605-1.026-.605a.698.698 0 0 0-.424.146c-.366.279-.192.704-.087.958.057.141.129.315.096.389-.021.046-.107.099-.229.141-.11.037-.218.057-.316.057-.364 0-.601-.257-.756-.426l-.034-.038c-.057-.06-.108-.118-.158-.173-.227-.258-.441-.5-.805-.5a.888.888 0 0 0-.184.021c-.326.068-.375.39-.403.58-.011.069-.029.197-.054.222a.253.253 0 0 1-.098.005c-.2-.021-.484-.205-.745-.928.144-.021.294-.045.454-.07 2.434-.43 5.877-2.069 5.938-2.248.004-.014.006-.027.004-.041 0-.011-.004-.02-.007-.029a.11.11 0 0 0-.017-.025c-.018-.02-.043-.031-.07-.031s-.027 0-.301.108c-.875.345-3.538 1.398-5.641 1.767-.161.025-.307.05-.445.072-.004-.829.188-1.086.309-1.164l.033-.02a.91.91 0 0 1 .126.176c.115.182.272.448.604.377.512-.115.574-.561.634-.992l.03-.21c.057-.38.137-.729.499-.833.169-.047.218-.046.347.385.088.292.207.691.623.725a.57.57 0 0 0 .471-.166c.262-.262.259-.75.257-1.182v-.148c.005-1.002.513-1.002.704-1.002.059 0 .119.005.197.016.119.01.15.047.16.06.094.116.052.455.021.702-.049.395-.104.841.272.995a.906.906 0 0 0 .345.073c.479 0 .766-.424.938-.74.198-.355.482-.552.801-.552.322 0 .643.203.877.558.226.338.266.717.108 1.012zM57.016 54.234c-.102 0-.207.006-.311.012-.168.008-.337.01-.396 0-.014-.165.053-.328.56-.556.579-.304.926-.824.924-1.392-.002-.544-.323-1.035-.862-1.312-.685-.353-1.44-.278-1.87.173-.271.284-.401.682-.38 1.129-.008.504-.164.578-.266.599-.051-.068-.118-.243-.166-.364-.157-.399-.372-.947-.92-.947a.9.9 0 0 0-.34.072c-.387.15-.643.389-.762.709-.143.382-.076.842.201 1.371l.054.097c.085.151.335.601.276.729-.059-.029-.169-.137-.238-.203-.186-.18-.416-.404-.721-.404-.195 0-.378.094-.53.262-.557.545-.292 1.244-.179 1.543l.08.213c.105.279.134.387.117.449l-.082-.043c-.127-.066-.283-.15-.462-.15-.147 0-.354.057-.501.32-.363.621.184 1.533.385 1.86-.324.321-.315.356-.299.41a.104.104 0 0 0 .033.048.13.13 0 0 0 .025.033.189.189 0 0 0 .086.027c.081 0 .227-.072.43-.214.275.247.803.663 1.359.663.13 0 .256-.023.379-.071.611-.254.402-.792.323-.993a1.095 1.095 0 0 1-.042-.117.141.141 0 0 1 .084-.023c.09 0 .229.049.39.105.065.023.134.049.209.073l.052.017c.16.054.4.134.684.134.395 0 .737-.156 1.029-.476.189-.229.271-.447.248-.664-.035-.32-.283-.518-.483-.678-.077-.062-.207-.164-.217-.213.013-.035.029-.077.177-.077.164 0 .385.058.6.113.076.021.151.04.217.056.176.046.348.068.513.068.825 0 1.419-.563 1.552-1.475.036-.27-.018-.486-.158-.646-.209-.235-.539-.267-.802-.267zm.394.836c-.112.771-.605 1.129-1.361.932-.068-.016-.139-.035-.211-.054-.248-.065-.505-.132-.742-.132-.473 0-.648.279-.71.444-.163.419.173.687.396.862.115.094.261.209.271.292.005.054-.038.142-.11.23a.783.783 0 0 1-.6.279c-.191 0-.371-.06-.503-.104l-.056-.018-.195-.067c-.21-.075-.393-.14-.58-.14a.732.732 0 0 0-.521.216c-.239.222-.122.522-.052.701.024.064.071.185.065.216a.193.193 0 0 1-.069.043c-.261.1-.622-.045-1.063-.418.261-.213.572-.486.937-.819 1.828-1.628 3.923-4.826 3.89-5.012a.097.097 0 0 0-.095-.079c-.051 0-.051 0-.221.225-1.521 2.021-2.84 3.531-3.921 4.492-.386.354-.679.625-.905.838-.447-.768-.373-1.07-.312-1.174.009-.015.016-.025.018-.031.043.01.129.055.183.084.118.062.252.133.401.133a.432.432 0 0 0 .301-.119c.357-.345.207-.741.062-1.125l-.08-.213c-.129-.344-.224-.672.057-.947.058-.064.101-.087.119-.087.074 0 .225.147.324.243.179.174.382.371.648.371a.589.589 0 0 0 .549-.42c.107-.362-.131-.788-.341-1.163l-.05-.088c-.193-.37-.252-.682-.17-.902.062-.164.203-.287.441-.38a.337.337 0 0 1 .127-.031c.159 0 .287.325.389.586.135.343.287.731.663.731l.055-.004c.528-.069.804-.461.815-1.18-.016-.307.062-.558.223-.727.258-.271.734-.297 1.194-.059.352.18.553.475.554.807.002.35-.23.682-.602.877-.463.206-.979.531-.867 1.203.036.294.273.443.701.443.088 0 .182-.005.28-.01.093-.005.188-.01.282-.01.269 0 .348.047.373.074.023.029.031.1.019.191zM62.144 41.455c-.306 0-.604.189-.866.357a2.417 2.417 0 0 1-.343.195c-.085-.143-.12-.343.17-.755.369-.538.436-1.153.178-1.645-.247-.47-.751-.749-1.351-.749l-.068.002c-.638.022-1.172.315-1.428.783-.238.436-.207.967.084 1.458.257.446.191.571.097.647a2.188 2.188 0 0 1-.323-.234c-.272-.219-.58-.467-.928-.467a.72.72 0 0 0-.59.317c-.284.333-.401.675-.349 1.019.062.398.348.76.851 1.072l.125.076c.174.105.582.352.6.477 0 0-.01.004-.033.004-.074 0-.189-.03-.301-.06a1.885 1.885 0 0 0-.482-.085c-.35 0-.599.203-.701.571-.204.738.357 1.204.627 1.429l.162.137c.244.202.322.279.334.343-.035.003-.075.003-.107.003-.184.003-.437.006-.611.188a.591.591 0 0 0-.154.443c.017.68.842 1.188 1.215 1.4-.121.438-.088.49-.063.525l.089.046.01-.003.026.018c.052 0 .12-.002.324-.436.18.043.472.103.779.103.483 0 .841-.146 1.062-.435.395-.519-.036-.882-.199-1.018a2.784 2.784 0 0 1-.084-.074c.047-.074.142-.102.445-.154.077-.014.158-.027.243-.045l.044-.01c.326-.063 1.09-.213 1.297-1.138.064-.292.036-.522-.086-.702-.182-.268-.498-.318-.752-.359-.096-.016-.256-.041-.283-.06-.015-.166.3-.265.713-.376l.189-.053c.499-.143.887-.442 1.094-.844.205-.403.219-.881.031-1.398-.185-.423-.476-.513-.687-.513zm-4.083 7.381.015-.018c.003.004.009.007.011.014l-.026.004zm4.23-5.727c-.133.26-.396.457-.744.557l-.181.05c-.501.136-1.188.321-1.131.98.047.453.493.524.76.568.139.022.328.054.372.116.01.016.04.078 0 .259-.115.518-.484.631-.852.703l-.047.009c-.08.017-.155.029-.227.043-.374.064-.761.132-.912.586-.109.311.135.516.281.639.052.044.148.124.156.156 0 0-.003.025-.045.08-.105.14-.311.211-.607.211a2.74 2.74 0 0 1-.55-.065c.118-.29.261-.663.438-1.153.846-2.436 1.043-6.143.952-6.27l-.078-.039c-.093 0-.093 0-.178.592-.157 1.104-.526 3.686-1.179 5.555-.174.478-.302.846-.398 1.137-.698-.423-.814-.713-.818-.854l.001-.033c.046-.012.142-.014.202-.014.195-.003.521-.007.631-.317.162-.487-.175-.768-.501-1.038l-.162-.136c-.288-.239-.539-.484-.44-.839.042-.152.088-.152.15-.152.092 0 .217.033.337.064.147.039.298.08.446.08a.567.567 0 0 0 .482-.23.566.566 0 0 0 .111-.461c-.071-.368-.494-.623-.865-.849l-.119-.071c-.35-.219-.553-.451-.588-.676-.026-.172.047-.36.23-.576.076-.102.125-.102.146-.102.145 0 .39.197.568.341.246.198.459.37.702.37a.45.45 0 0 0 .265-.084c.67-.455.25-1.188.11-1.43-.189-.321-.216-.641-.075-.897.158-.29.513-.473.947-.487l.049-.002c.389 0 .697.162.846.445.16.305.108.689-.142 1.054-.146.206-.586.833-.12 1.477a.476.476 0 0 0 .379.185c.227 0 .451-.145.689-.297.188-.119.42-.268.559-.268.026 0 .088 0 .157.156.128.348.126.67-.007.927zM58.373 27.039c-.455-.493-1.227-.574-1.873-.181-.546.333-.866.849-.858 1.379.009.495.301.943.805 1.229.42.238.405.419.369.523l-.03.001c-.094 0-.226-.023-.365-.048-.174-.03-.369-.065-.557-.065-.643 0-.807.432-.848.688-.068.417.006.766.222 1.035.251.314.671.491 1.253.526l.111.004c.24.009.688.026.782.129.001.001.003.003.003.006-.051.036-.205.076-.301.101-.318.081-.98.251-.803 1 .175.75.919.889 1.236.948l.225.044c.294.056.398.087.441.135-.027.018-.062.037-.088.052-.158.092-.377.218-.439.461a.602.602 0 0 0 .087.466c.366.594 1.345.628 1.752.63.101.423.142.425.206.425.012 0 .021-.002.031-.004.026-.002.08-.022.1-.047.025-.028.074-.092.06-.438.894-.263 1.384-.662 1.448-1.186.086-.643-.467-.748-.676-.788a1.632 1.632 0 0 1-.113-.024c.004-.089.076-.162.324-.361l.179-.146.032-.027c.256-.215.854-.717.591-1.629-.158-.532-.479-.644-.722-.644-.186 0-.364.065-.521.123-.104.038-.221.079-.301.07-.094-.116.137-.356.425-.635.057-.055.112-.109.161-.159.383-.374.58-.829.561-1.281-.021-.452-.256-.873-.678-1.216-.174-.141-.352-.212-.525-.212-.459 0-.709.457-.908.824-.061.111-.146.269-.207.339-.166-.083-.236-.241-.194-.757.041-.51-.1-.967-.397-1.29zm.416 2.591a.466.466 0 0 0 .193.042c.332 0 .513-.333.688-.654.107-.197.287-.527.408-.527.018 0 .072.008.166.085.293.238.455.515.467.8.014.288-.125.588-.393.851-.049.05-.103.101-.156.152-.357.347-.898.871-.479 1.394.112.151.273.23.467.23.164 0 .324-.058.479-.114.118-.043.241-.088.327-.088.034 0 .105 0 .174.234.148.512-.121.791-.41 1.034l-.033.029-.168.137c-.303.243-.613.493-.521.972.061.322.373.381.561.417.066.013.191.037.217.062 0 0 .01.024.001.095-.02.154-.173.436-.938.68-.04-.317-.106-.734-.21-1.29-.412-2.357-2.068-5.935-2.299-5.935-.025 0-.05.01-.067.028-.054.053-.054.053.178.639.405 1.03 1.354 3.442 1.688 5.367.102.54.18.947.244 1.259-.814-.028-1.066-.23-1.143-.353-.006-.012-.012-.021-.014-.029.033-.032.113-.078.164-.107.17-.098.452-.261.392-.583-.095-.498-.515-.579-.921-.657l-.229-.044c-.367-.068-.703-.16-.787-.519-.038-.162-.049-.206.389-.318.277-.071.694-.178.73-.606a.593.593 0 0 0-.153-.438c-.255-.279-.747-.297-1.181-.313l-.104-.004c-.403-.024-.693-.132-.837-.313-.11-.138-.146-.335-.104-.588.023-.142.059-.208.285-.208.138 0 .301.029.458.057.165.029.32.057.464.057.32 0 .463-.151.531-.291.126-.29.217-.843-.59-1.299-.326-.186-.51-.449-.514-.741-.006-.327.213-.657.584-.884.416-.253.883-.217 1.157.08.188.204.276.508.247.856-.027.376-.084 1.08.592 1.346zM47.678 17.995c-.314.557-.347 1.139-.089 1.598.243.432.718.691 1.31.709.499.002.568.155.584.271a2.127 2.127 0 0 1-.365.148c-.354.122-.753.26-.918.606a.772.772 0 0 0-.01.612c.279.868 1.047 1.137 2.053.657l.1-.051c.234-.119.527-.268.697-.268.031 0 .041.002.047.012-.025.056-.143.167-.214.236-.19.182-.428.407-.436.721-.004.188.076.37.231.532.221.249.506.375.846.375.273 0 .523-.084.689-.14l.237-.079c.194-.066.36-.128.442-.103l-.053.093c-.095.158-.224.375-.16.619.037.148.138.27.3.365.146.082.317.124.509.124.449 0 .926-.217 1.279-.407.269.292.314.296.354.296.026.004.055-.008.077-.029l.027-.004.026-.054c.02-.041.05-.109-.158-.445.676-.676.919-1.276.72-1.78-.15-.385-.433-.443-.587-.443-.143 0-.272.043-.387.082a2.539 2.539 0 0 1-.104.034c-.043-.086-.016-.184.102-.483.025-.062.051-.127.076-.197l.016-.041c.118-.312.396-1.044-.274-1.72-.207-.194-.407-.289-.613-.289-.341 0-.558.252-.732.455-.065.076-.174.202-.224.209-.139-.058-.053-.382.064-.769.023-.077.047-.151.064-.218.15-.5.11-.967-.117-1.351-.234-.393-.646-.66-1.198-.775-.357-.062-.594.068-.704.179-.258.259-.254.682-.251 1.054.001.126.003.307-.017.398-.179-.001-.332-.095-.542-.55-.271-.632-.789-1.01-1.386-1.01-.528-.003-1.018.305-1.311.821zm.496.281c.189-.334.496-.535.816-.535.361 0 .683.249.865.671.201.44.486.89 1.065.89.036 0 .074-.002.11-.005.48-.044.477-.577.473-.967-.002-.222-.004-.557.086-.648.008-.007.027-.028.104-.028a.51.51 0 0 1 .09.008c.383.079.665.254.814.506.145.243.166.552.062.9l-.062.21c-.146.478-.365 1.2.253 1.458a.574.574 0 0 0 .234.051c.292 0 .489-.229.647-.412.099-.114.221-.257.301-.257.023 0 .094.013.215.127.375.378.275.756.14 1.111l-.017.044-.071.187c-.14.355-.284.723.021 1.107a.45.45 0 0 0 .358.165c.117 0 .228-.037.334-.072.072-.024.155-.052.215-.052 0 0 .021.016.047.082.06.15.064.487-.518 1.094a25.657 25.657 0 0 0-.803-1.028c-1.348-1.644-3.675-3.288-4.443-3.831-.334-.266-.354-.266-.391-.266h-.039l-.059.06.003.044c.005.054.005.054.351.297l.023.017c.889.71 2.902 2.459 4.168 4.007.34.418.602.733.805.971-.242.124-.6.278-.893.278a.474.474 0 0 1-.225-.047c-.014-.007-.021-.014-.028-.019.013-.044.062-.127.094-.179.099-.167.267-.447.062-.696a.657.657 0 0 0-.536-.263c-.184 0-.371.063-.588.137l-.236.079c-.138.046-.328.11-.508.11a.527.527 0 0 1-.426-.192c-.052-.053-.082-.103-.081-.132.001-.077.155-.224.259-.321.205-.197.518-.494.342-.882a.598.598 0 0 0-.568-.348c-.306 0-.65.175-.955.33l-.092.046c-.25.119-.48.182-.666.182s-.45-.052-.599-.512c-.043-.119-.021-.166-.013-.181.062-.131.365-.236.588-.312.346-.119.775-.267.753-.678-.026-.386-.248-.846-1.147-.85-.386-.012-.678-.161-.823-.419-.157-.281-.125-.659.089-1.037zM21.235 45.6l1.28-3.361h-.724l-.672 1.745c-.097.259-.194.562-.278.866h-.007a8.914 8.914 0 0 0-.278-.879l-.653-1.732h-.77L20.42 45.6h.815zM25.385 45.043h-1.281v-.904h1.222v-.532h-1.222v-.82h1.281v-.549h-1.979V45.6h1.979zM27.886 45.6v-2.768h.932v-.594h-2.561v.594h.931V45.6zM31.797 42.787v-.549h-1.978V45.6h1.978v-.557h-1.279v-.904h1.222v-.532h-1.222v-.82zM35.178 44.028l-1.132-1.79h-.931V45.6h.679l-.006-1.759c0-.31-.006-.517-.02-.704h.006c.09.199.213.439.343.64l1.157 1.823h.93v-3.361h-.678l.006 1.48c0 .434.007.756.019.969h-.005a6.05 6.05 0 0 0-.368-.66zM38.281 45.082c-.284 0-.549-.053-.743-.129l-.026.627c.188.045.459.084.691.084.861 0 1.455-.446 1.455-1.132 0-1.054-1.5-.802-1.5-1.376 0-.253.188-.421.613-.421.195 0 .46.038.642.097l.025-.594a4.127 4.127 0 0 0-.64-.059c-.887 0-1.378.42-1.378 1.053 0 1.093 1.48.783 1.48 1.378.001.329-.302.472-.619.472zM40.88 42.238V45.6h.698v-1.579l1.247 1.579h.925l-1.447-1.746 1.376-1.616h-.86l-1.241 1.498v-1.498zM45.246 44.945h1.402l.239.654h.776l-1.268-3.362h-.82L44.303 45.6H45l.246-.655zm.529-1.454a5.45 5.45 0 0 0 .17-.523h.005c.046.155.11.354.175.53l.35.943h-1.061l.361-.95zM49.771 42.218c-.396 0-.814.013-1.1.02V45.6h.699v-1.107c.084.008.213.014.297.014.854 0 1.441-.465 1.441-1.202.001-.68-.483-1.087-1.337-1.087zm-.103 1.732c-.091 0-.221-.005-.297-.026v-1.137c.09-.006.213-.006.342-.006.434 0 .653.238.653.568 0 .395-.264.601-.698.601zM21.245 51.266c.963 0 1.764-.66 1.764-1.771 0-1.138-.679-1.706-1.655-1.706-.931 0-1.746.665-1.746 1.771.001 1.006.544 1.706 1.637 1.706zm.065-2.87c.576 0 .95.395.95 1.144 0 .75-.44 1.112-.976 1.112-.66 0-.931-.505-.931-1.144 0-.725.445-1.112.957-1.112zM25.472 51.252c.33 0 .627-.052.906-.148l-.059-.621a1.64 1.64 0 0 1-.704.156c-.667 0-1.054-.382-1.054-1.105 0-.666.355-1.145 1.015-1.145.233 0 .472.039.711.117l.064-.614a2.84 2.84 0 0 0-.724-.091c-1.261 0-1.81.847-1.81 1.797.001 1.021.557 1.654 1.655 1.654zM30.457 51.207v-3.361h-.698v1.338h-1.584v-1.338h-.698v3.361h.698v-1.422h1.584v1.422zM34.144 49.629l1.248 1.578h.924l-1.448-1.745 1.376-1.616h-.859l-1.241 1.5v-1.5h-.698v3.361h.698zM38.418 51.266c.963 0 1.764-.66 1.764-1.771 0-1.138-.679-1.706-1.654-1.706-.932 0-1.746.665-1.746 1.771-.001 1.006.542 1.706 1.636 1.706zm.064-2.87c.574 0 .949.395.949 1.144 0 .75-.439 1.112-.977 1.112-.659 0-.93-.505-.93-1.144.001-.725.447-1.112.958-1.112zM42.215 49.385l1.157 1.822h.931v-3.361h-.679l.007 1.48c0 .433.006.756.019.969h-.006a6.476 6.476 0 0 0-.368-.658l-1.132-1.791h-.932v3.361h.68l-.006-1.758c0-.311-.007-.518-.021-.705h.008c.09.199.213.44.342.641zM46.346 50.689c-.283 0-.549-.051-.742-.129l-.025.627c.187.046.459.086.691.086.859 0 1.454-.447 1.454-1.133 0-1.053-1.499-.802-1.499-1.377 0-.252.187-.42.613-.42.194 0 .459.039.641.098l.025-.596a4.243 4.243 0 0 0-.641-.058c-.885 0-1.377.42-1.377 1.054 0 1.092 1.48.781 1.48 1.377.001.33-.302.471-.62.471zM50.029 51.207v-2.766h.931v-.595H48.4v.595h.931v2.766zM23.973 38.321l-.083-.011c-1.765-.219-1.775-.568-1.817-2.035v-2.548l2.949 3.208c1.124 1.232 1.744 1.911 3.38 1.911.305 0 .641-.022 1.03-.07l.083-.009.006-.395-.093-.004c-.983-.043-1.52-.601-2.588-1.709a60.056 60.056 0 0 0-.47-.486l-2.874-3.198 1.157-1.183.247-.259c.972-1.021 2.074-2.179 3.543-2.334l.085-.009v-.394h-3.892v.394l.085.009c.385.041.592.13.651.283.109.284-.232.867-1.044 1.779l-2.257 2.409v-2.423c.043-1.472.053-1.823 1.434-2.039l.081-.013v-.39h-4.734v.393l.082.011c1.637.218 1.646.568 1.689 2.035v5.027c-.043 1.472-.053 1.82-1.689 2.039l-.082.012v.393h5.12l.001-.394zM36.893 38.32l-.084-.01c-1.847-.22-1.917-.639-1.917-2.378v-6.508h.763c1.688 0 2.377.523 2.837 2.155l.025.085.367-.08-.182-2.794H29.63l-.177 2.794.367.08.025-.085c.46-1.631 1.149-2.155 2.838-2.155h.763v6.508c0 1.739-.07 2.157-1.917 2.378l-.083.01v.395h5.448v-.395h-.001zM51.458 29.209l.082-.011v-.393h-5.12v.392l.08.012c1.82.264 1.82.5 1.82 2.035v1.977h-5.166v-1.977c0-1.535 0-1.771 1.818-2.035l.082-.012v-.392h-5.119v.393l.082.011c1.637.218 1.646.567 1.689 2.035v5.028c-.044 1.472-.053 1.819-1.689 2.038l-.082.012v.393h5.119v-.392l-.082-.013c-1.818-.264-1.818-.5-1.818-2.035v-2.263h5.166v2.263c0 1.535 0 1.771-1.82 2.035l-.08.013v.392h5.12v-.393l-.082-.012c-1.637-.219-1.646-.567-1.688-2.035v-5.028c.042-1.47.051-1.82 1.688-2.038zM23.15 15.833c-.035.071-.267.561.075 1.085.373.571 1.007.473 1.028.47.438.553 1.168 1.213 1.765 1.042 0 0 3.762-1.744 8.979-1.751h.004c5.22.007 8.982 1.751 8.982 1.751.597.17 1.326-.489 1.764-1.042.021.003.655.101 1.028-.47a1.098 1.098 0 0 0 .075-1.085c.312-.505.792-.954.792-.954.222-.205.36-.496.36-.82a1.122 1.122 0 0 0-1.265-1.11l-.027-.094a.936.936 0 0 0-.426-1.769.928.928 0 0 0-.473.132l-.081-.094a.763.763 0 0 0 .236-.553.774.774 0 0 0-.774-.773.765.765 0 0 0-.631.332l-.135-.087a.7.7 0 0 0-.566-1.12.7.7 0 0 0-.658.467 14.903 14.903 0 0 0-.223-.094.626.626 0 0 0 .091-.323.638.638 0 0 0-1.267-.098l-.143-.045a.886.886 0 0 0-.854-.649.84.84 0 0 0-.258.042 2.418 2.418 0 0 0-.099-.078c.001-.014.003-.027.003-.042a.753.753 0 0 0-.752-.751.732.732 0 0 0-.436.143l-.088-.034.002-.018a.677.677 0 0 0-1.27-.328 6.485 6.485 0 0 0-.159-.029l.003-.024a.619.619 0 0 0-1.223-.13l-.182-.013a1.463 1.463 0 0 0-.668-1.867s-.171-.089-.42-.138V3.796h.628c.021-.025.063-.11.063-.263 0-.149-.042-.235-.063-.26h-.628v-.627c-.026-.021-.112-.063-.263-.063-.151 0-.236.041-.263.063v.626h-.625c-.022.025-.064.111-.064.26 0 .152.042.238.064.263h.625v1.118c-.242.048-.413.137-.413.137a1.465 1.465 0 0 0-.667 1.867l-.182.013a.618.618 0 0 0-1.223.13l.003.024-.16.029a.674.674 0 0 0-.588-.351.68.68 0 0 0-.681.679l.002.018-.088.034a.739.739 0 0 0-.436-.143.752.752 0 0 0-.752.751l.002.042a2.39 2.39 0 0 0-.098.078.857.857 0 0 0-.259-.042.891.891 0 0 0-.854.649l-.143.045a.636.636 0 1 0-1.175.421c-.075.031-.15.062-.223.094a.7.7 0 0 0-1.364.237c0 .156.052.299.139.416l-.134.087a.77.77 0 0 0-1.406.441.77.77 0 0 0 .236.554l-.081.093a.93.93 0 0 0-.474-.132.935.935 0 0 0-.425 1.769c-.009.031-.02.063-.028.094a1.122 1.122 0 0 0-1.266 1.11c0 .324.138.615.36.82.004.001.483.45.795.956zM24.119 17a.689.689 0 0 1-.569-1.076.683.683 0 0 1 1.138-.001.689.689 0 0 1-.569 1.077zm10.879-2.254a.683.683 0 1 1 .001-1.367.683.683 0 0 1-.001 1.367zM35 9.416a.68.68 0 0 1 .682.679.68.68 0 0 1-1.361 0A.677.677 0 0 1 35 9.416zm-.531-.754a.53.53 0 1 1 1.06 0 .53.53 0 0 1-1.06 0zm.528 2.377a.842.842 0 0 1 .634 1.396 1.048 1.048 0 0 0-1.265.002.841.841 0 0 1 .631-1.398zM45.88 17a.688.688 0 0 1-.495-1.166.682.682 0 0 1 1.139.236.69.69 0 0 1-.644.93zm1.003-3.682a.74.74 0 0 1 .74.74c0 .268-.26.593-.489.735a1.054 1.054 0 0 0-.892-.371.728.728 0 0 1-.1-.364.742.742 0 0 1 .741-.74zm-.598-1.853a.558.558 0 1 1-.002 1.116.558.558 0 0 1 .002-1.116zm-1.092-1.288a.394.394 0 1 1 .002.784.394.394 0 0 1-.002-.784zm-1.332-.875a.324.324 0 1 1 0 .647.324.324 0 0 1 0-.647zm-1.428-.589a.258.258 0 1 1 0 .516.258.258 0 0 1 0-.516zm-.841.775c2.157.688 3.277 1.731 3.789 2.773.415.955.344 1.178.379 1.785.012.212.064.354.106.479-.493.269-.552.649-.56.674a1.692 1.692 0 0 1-.061-.042 1.04 1.04 0 0 0-.664-.236c-.785.007-1.272.775-.954 1.517.077.178.515.824 1.372.513.051.069.108.132.173.187a1.071 1.071 0 0 1-1.342.51 1.704 1.704 0 0 1-1.019-1.117 1.694 1.694 0 0 1-1.457.398 1.072 1.072 0 0 1-.846-1.257c.01-.054.062-.265.086-.343.076.404.389.743.816.826a1.044 1.044 0 0 0 1.223-.82 1.044 1.044 0 0 0-.822-1.222c-.061-.013-.127 0-.191 0l.038-.104c.024-.124.024-.246.005-.364.513-.138.891-.606.891-1.161 0-.447-.246-.837-.608-1.045.302-.174.507-.496.507-.868 0-.523-.402-.949-.914-.996a.88.88 0 0 0 .053-.087zm-.757 3.301c-.086-.018-.171-.022-.256-.018a.831.831 0 0 1-.054-.287.825.825 0 0 1 1.65 0c0 .392-.275.72-.643.803a1.029 1.029 0 0 0-.697-.498zm1.238-2.219a.627.627 0 1 1-1.253.001.627.627 0 0 1 1.253-.001zm-1.264-2.011a.511.511 0 0 1 0 1.02.51.51 0 0 1 0-1.02zm-.334 5.351a.684.684 0 1 1 0 1.368.684.684 0 0 1 0-1.368zm-.772-6.18a.37.37 0 1 1 0 .742.37.37 0 0 1 0-.742zM38.5 7.142c.166 0 .301.134.301.299s-.135.299-.301.299c-.164 0-.297-.134-.297-.299s.133-.299.297-.299zm-1.365-.322a.239.239 0 1 1 0 .478.238.238 0 0 1-.236-.24.237.237 0 0 1 .236-.238zm2.707 5.905.152.265a1.041 1.041 0 0 0-.381.62l-.004.108c-.058-.023-.112-.057-.174-.069a1.042 1.042 0 0 0-1.221.821c-.109.562.258 1.11.822 1.221.428.084.844-.111 1.068-.457a6.12 6.12 0 0 1-.05.35c-.114.58-.678.959-1.259.845-.541-.105-.937-.453-1.164-.914-.311.408-.768.678-1.32.678-.59 0-1.073-.481-1.073-1.072 0-.056.01-.272.017-.353.155.382.529.654.964.654.574 0 1.042-.467 1.042-1.04 0-.574-.468-1.041-1.042-1.041-.062 0-.125.025-.188.037l.017-.11a1.07 1.07 0 0 0-.043-.296l.372-.24s-.066-3.52-.695-5.092c.021-.011.042-.024.062-.036 5.145.291 4.703 3.865 4.098 5.121zm-3.766-6.473c0 .022.003.044.003.067 0 .212-.063.409-.171.574a15.207 15.207 0 0 0-.349-.006.574.574 0 0 0-.28-.635h.797zm-.816-.966c.306.073.569.293.707.566h-.707v-.566zm-.261 1.227a.239.239 0 0 1 0 .476.238.238 0 1 1 0-.476zm0 .703a.357.357 0 1 1 .001.713.357.357 0 0 1-.001-.713zm-.261-1.93v.566h-.704c.138-.273.401-.493.704-.566zm-.812.966h.794a.572.572 0 0 0-.278.635c-.131.001-.254.003-.348.006a1.055 1.055 0 0 1-.171-.574c-.001-.023.001-.045.003-.067zm-1.06.568a.24.24 0 0 1 0 .478.24.24 0 0 1-.24-.24.24.24 0 0 1 .24-.238zm-1.366.322c.164 0 .297.134.297.299s-.132.299-.297.299a.3.3 0 0 1-.301-.299.3.3 0 0 1 .301-.299zm-1.201.588a.37.37 0 1 1-.001.741.37.37 0 0 1 .001-.741zm3.957-.126.061.036c-.628 1.572-.694 5.092-.694 5.092l.372.24a1.07 1.07 0 0 0-.042.296s.008.059.017.11c-.062-.011-.126-.037-.188-.037-.574 0-1.041.467-1.041 1.041a1.038 1.038 0 0 0 2.003.386c.007.081.017.297.017.353 0 .591-.481 1.072-1.071 1.072-.551 0-1.008-.271-1.319-.678-.228.461-.624.809-1.165.914a1.074 1.074 0 0 1-1.259-.845 8.903 8.903 0 0 1-.05-.35 1.037 1.037 0 0 0 1.89-.764 1.04 1.04 0 0 0-1.221-.821c-.062.012-.116.046-.174.069 0-.051-.003-.108-.003-.108a1.04 1.04 0 0 0-.381-.62l.153-.265c-.608-1.256-1.05-4.83 4.095-5.121zm-4.046 6.989a.683.683 0 1 1-1.367-.001.683.683 0 0 1 1.367.001zm-1.741-1.306a.825.825 0 0 1-.643-.803.825.825 0 0 1 1.65 0 .831.831 0 0 1-.054.287 1.03 1.03 0 0 0-.953.516zm.723-4.728a.51.51 0 1 1-.002 1.018.51.51 0 0 1 .002-1.018zm-.638 1.385a.627.627 0 1 1-.002 1.254.627.627 0 0 1 .002-1.254zm-.985-1.231a.258.258 0 1 1-.002.516.258.258 0 0 1 .002-.516zm-1.428.589a.323.323 0 1 1-.001.647.323.323 0 0 1 .001-.647zm2.268.186c.016.029.033.059.051.086-.51.047-.913.473-.913.996 0 .373.205.694.506.868a1.204 1.204 0 0 0-.608 1.045c0 .555.378 1.022.891 1.161-.019.118-.019.241.005.364l.038.104c-.063 0-.131-.012-.192 0a1.041 1.041 0 0 0 .4 2.042c.428-.083.741-.422.818-.826.024.078.075.289.085.343a1.072 1.072 0 0 1-.845 1.257 1.699 1.699 0 0 1-1.458-.398 1.701 1.701 0 0 1-1.019 1.117 1.072 1.072 0 0 1-1.342-.51c.065-.055.122-.118.173-.187a1.054 1.054 0 0 0 1.372-.513c.318-.742-.168-1.51-.954-1.517a1.04 1.04 0 0 0-.665.236c-.02.014-.04.029-.061.042-.006-.025-.065-.405-.559-.674.042-.125.096-.267.107-.479.034-.607-.037-.83.379-1.785.515-1.041 1.633-2.084 3.791-2.772zm-3.601.689a.394.394 0 1 1-.002.788.394.394 0 0 1 .002-.788zm-1.649 1.846a.558.558 0 1 1 1.116 0 .558.558 0 0 1-1.116 0zm-.041 1.295c.408 0 .741.332.741.74a.738.738 0 0 1-.1.364c-.028-.002-.056-.005-.085-.005-.324 0-.612.147-.807.376-.229-.142-.488-.467-.488-.735a.74.74 0 0 1 .739-.74zM42.613 21.325c.099 0 .191-.06.229-.158a.244.244 0 0 0-.144-.312 21.84 21.84 0 0 0-7.615-1.355h-.169c-2.625 0-5.186.456-7.612 1.355a.243.243 0 0 0 .168.456 21.357 21.357 0 0 1 7.444-1.326h.169c2.569 0 5.073.446 7.446 1.326a.279.279 0 0 0 .084.014z"/><path d="m44.079 19.912-.354-.943-.054-.144-.454.075a22.833 22.833 0 0 0-7.789-1.509l-.431-.246-.428.246a22.809 22.809 0 0 0-7.788 1.509l-.455-.075-.054.144-.354.943 1.015.564.328-.389a21.872 21.872 0 0 1 7.217-1.388l.518.296.521-.296a21.91 21.91 0 0 1 7.219 1.388l.326.389 1.017-.564zm-17.23.09-.467-.259.187-.5.808.134-.528.625zm4.28-1.216-.814.167a.414.414 0 1 1-.167-.81l.816-.168a.414.414 0 1 1 .165.811zm3.869-.228-.853-.487.854-.489.856.489-.857.487zm5.177.073a.413.413 0 0 1-.489.321l-.814-.167a.415.415 0 0 1 .166-.812l.815.168a.415.415 0 0 1 .322.49zm2.448.744.809-.134c.055.148.128.348.187.5l-.468.259c-.11-.128-.329-.388-.528-.625z"/></g></svg>