<svg xmlns="http://www.w3.org/2000/svg" width="34" height="34" viewBox="0 0 8.996 8.996"><defs><linearGradient id="a" x1="236.757" y1="167.288" x2="261.458" y2="203.015" gradientUnits="userSpaceOnUse" gradientTransform="matrix(.26458 0 0 .26458 -42.1 -13.406)"><stop stop-color="#47D3FF"/><stop offset="1" stop-color="#2195EA"/></linearGradient></defs><path d="M6.628 8.996c.843 0 1.338-.963.855-1.664l-1.82-2.645a.535.535 0 01.001-.608l1.676-2.41C7.827.966 7.333 0 6.487 0h-4.12C1.79 0 1.323.474 1.323 1.058v6.88c0 .584.467 1.058 1.044 1.058h3.912z" fill="#312a7d"/><path d="M24.905 30.514h.338c.845 0 1.34.967.853 1.668l-5.089 7.328H20.6a.525.525 0 01-.522-.529v-7.408c0-.585.468-1.059 1.044-1.059h1.022z" fill="url(#a)" transform="translate(-18.755 -30.514)"/></svg>