<svg xmlns="http://www.w3.org/2000/svg" viewBox="0 0 177.5 146.3"><defs><linearGradient id="a"><stop stop-color="#fd743e" offset="0"/><stop stop-color="#fd3254" offset="1"/></linearGradient><linearGradient id="b" x1="23.812" x2="154.91" y1="61.047" y2="61.047" gradientTransform="matrix(1 0 0 -1 -.6 145.1)" gradientUnits="userSpaceOnUse" xlink:href="#a"/><linearGradient id="c" x1="42.818" x2="141.84" y1="93.943" y2="111.77" gradientTransform="matrix(1 0 0 -1 -.6 145.1)" gradientUnits="userSpaceOnUse" xlink:href="#a"/><linearGradient id="d" x1="49.098" x2="148.12" y1="59.055" y2="76.88" gradientTransform="matrix(1 0 0 -1 -.6 145.1)" gradientUnits="userSpaceOnUse" xlink:href="#a"/><linearGradient id="e" x1="46.739" x2="145.76" y1="72.163" y2="89.988" gradientTransform="matrix(1 0 0 -1 -.6 145.1)" gradientUnits="userSpaceOnUse" xlink:href="#a"/><linearGradient id="f" x1="53.599" x2="152.63" y1="34.045" y2="51.87" gradientTransform="matrix(1 0 0 -1 -.6 145.1)" gradientUnits="userSpaceOnUse" xlink:href="#a"/><linearGradient id="g" x1="38.184" x2="137.21" y1="119.69" y2="137.51" gradientTransform="matrix(1 0 0 -1 -.6 145.1)" gradientUnits="userSpaceOnUse" xlink:href="#a"/><linearGradient id="h" x1="39.747" x2="138.77" y1="111" y2="128.83" gradientTransform="matrix(1 0 0 -1 -.6 145.1)" gradientUnits="userSpaceOnUse" xlink:href="#a"/><linearGradient id="i" x1="55.676" x2="154.7" y1="22.512" y2="40.336" gradientTransform="matrix(1 0 0 -1 -.6 145.1)" gradientUnits="userSpaceOnUse" xlink:href="#a"/><linearGradient id="j" x1="58.81" x2="157.84" y1="5.1033" y2="22.928" gradientTransform="matrix(1 0 0 -1 -.6 145.1)" gradientUnits="userSpaceOnUse" xlink:href="#a"/></defs><path d="m138.5 99.1c3.1 0 6.2 0.6 9 1.6 4.5-5.2 6.9-10.8 6.9-16.6 0-9.6-6.5-18.8-18.2-26-12.6-7.6-29.5-11.9-47.3-11.9-18 0-34.9 4.3-47.3 11.9-11.8 7.2-18.2 16.4-18.2 26 0 5.8 2.4 11.5 6.9 16.6 2.8-1 5.8-1.6 9-1.6 7.1 0 13.7 2.7 18.7 7.8 3.5 3.5 5.8 7.8 7 12.5 7.5 1.8 15.6 2.7 24.1 2.7s16.4-0.9 24.1-2.7c1.1-4.6 3.5-9 7-12.5 4.5-5 11.2-7.8 18.3-7.8zm-49.7-22.1c-8.1 0-14.7-6.6-14.7-14.7h29.5c-0.1 8.1-6.7 14.7-14.8 14.7z" fill="url(#b)"/><path d="m37.7 51.2c1.5-0.9 2.9-1.7 4.4-2.5h-0.1c-3.7-2.8-8.1-4.2-12.5-4.2-6.3 0-12.5 2.8-16.5 8.2l-1.7 2.4 11.7 8.8c3.7-4.8 8.6-9 14.7-12.7z" fill="url(#c)"/><path d="m23.2 104.3c-3.9-5.1-6.4-10.6-7.1-16.3-0.2-1.3-0.3-2.7-0.3-4 0-6.7 2.2-13.2 6.4-19h-1.5c-11.5 0-20.7 9.3-20.7 20.7v2.9h15.4c-4 3.4-6.6 8-7.3 13.2-0.8 5.5 0.7 10.9 4 15.3l1.2 1.7c1.1-4.5 3.5-8.5 6.9-11.9 1-1 2-1.8 3-2.6z" fill="url(#d)"/><path d="m154.4 63.9 11.7-8.8-1.7-2.4c-4-5.4-10.2-8.2-16.5-8.2-4.4 0-8.7 1.3-12.5 4.2h-0.1c1.5 0.8 3 1.6 4.4 2.5 6.2 3.7 11.1 7.9 14.7 12.7z" fill="url(#e)"/><path d="m177.5 85.7c0-11.5-9.3-20.7-20.7-20.7h-1.6c4.3 5.8 6.4 12.4 6.4 19 0 1.3-0.1 2.7-0.3 4-0.8 5.7-3.3 11.2-7.1 16.3 1 0.8 2 1.6 2.9 2.5 3.4 3.4 5.7 7.4 6.9 11.9l1.2-1.7c3.4-4.4 4.8-9.9 4-15.3-0.7-5.2-3.3-9.9-7.3-13.2h15.5v-2.9h0.1z" fill="url(#f)"/><path d="m63.8 41.4c11.5 0 20.7-9.3 20.7-20.7 0-11.5-9.3-20.7-20.7-20.7-11.5 0-20.7 9.3-20.7 20.7s9.3 20.7 20.7 20.7zm0-32.1s0.1 0 0 0c-1.3 1.5-2.2 3.5-2.2 5.7 0 4.4 3.6 8 8 8 2.2 0 4.3-0.9 5.7-2.4v0.1c0 6.3-5.1 11.4-11.4 11.4s-11.4-5.1-11.4-11.4c-0.1-6.3 5-11.4 11.3-11.4z" fill="url(#g)"/><path d="m113.6 41.4c11.5 0 20.7-9.3 20.7-20.7 0-11.5-9.3-20.7-20.7-20.7-11.5 0-20.7 9.3-20.7 20.7s9.4 20.7 20.7 20.7zm0-32.1c0.1 0 0.1 0 0 0-1.3 1.5-2.2 3.5-2.2 5.7 0 4.4 3.6 8 8 8 2.2 0 4.3-0.9 5.7-2.4v0.1c0 6.3-5.1 11.4-11.4 11.4-6.3 0.1-11.3-5-11.3-11.3-0.1-6.4 5-11.5 11.2-11.5z" fill="url(#h)"/><path d="m39.1 104.8c-11.5 0-20.7 9.2-20.7 20.7s9.2 20.7 20.7 20.7c2.4 0 4.7-0.4 6.9-1.2-0.2-0.2-0.4-0.3-0.6-0.6-6-6-8.1-13.7-4.5-17.2 3.5-3.5 11.2-1.5 17.2 4.5 0.2 0.2 0.3 0.4 0.6 0.6 0.8-2.1 1.2-4.4 1.2-6.9-0.1-11.3-9.5-20.6-20.8-20.6z" fill="url(#i)"/><path d="m138.5 104.8c-11.5 0-20.7 9.2-20.7 20.7 0 2.4 0.4 4.7 1.2 6.9 0.2-0.2 0.3-0.4 0.6-0.6 6-6 13.7-8.1 17.2-4.5 3.5 3.5 1.5 11.2-4.5 17.2l-0.6 0.6c2.1 0.8 4.4 1.2 6.9 1.2 11.5 0 20.7-9.2 20.7-20.7-0.2-11.5-9.4-20.8-20.8-20.8z" fill="url(#j)"/></svg>