<svg xmlns="http://www.w3.org/2000/svg" width="450.513" height="450.513" viewBox="0 0 119.198 119.198"><g fill="#717175"><path d="M53.194 67.824l-5.421-15.426c-.071-.213-.174-.494-.174-.741 0-.67.553-1.304 1.345-1.304.692 0 1.142.458 1.35 1.127l4.49 13.292 4.524-13.328c.206-.633.623-1.09 1.31-1.09h.14c.727 0 1.175.457 1.381 1.09l4.489 13.328L71.19 51.41c.174-.566.55-1.058 1.277-1.058.76 0 1.313.597 1.313 1.27 0 .246-.104.526-.172.74l-5.457 15.46c-.28.808-.83 1.232-1.452 1.232h-.103c-.692 0-1.211-.424-1.454-1.231l-4.452-13.108L56.2 67.824c-.242.807-.76 1.231-1.45 1.231h-.072c-.655 0-1.206-.424-1.483-1.231M92.714 51.698c0-.744.587-1.38 1.313-1.38.763 0 1.35.6 1.35 1.38v3.13c1.314-3.04 4.228-4.475 6.159-4.475.798 0 1.318.6 1.318 1.377 0 .744-.484 1.272-1.18 1.379-3.46.424-6.296 3.076-6.296 8.346v6.197c0 .743-.554 1.378-1.315 1.378-.762 0-1.349-.603-1.349-1.378zM111.4 69.202c-4.814 0-8.747-3.816-8.747-9.413v-.073c0-5.21 3.56-9.41 8.408-9.41 5.185 0 8.137 4.37 8.137 9.167a1.24 1.24 0 01-1.222 1.262H105.3c.37 3.916 3.046 6.12 6.168 6.12 2.17 0 3.76-.874 5.05-2.099.202-.173.44-.313.747-.313.642 0 1.152.525 1.152 1.157 0 .313-.134.629-.408.87-1.66 1.645-3.627 2.732-6.61 2.732m5.187-10.463c-.27-3.29-2.104-6.158-5.595-6.158-3.051 0-5.358 2.622-5.69 6.158zM73.83 63.537v-.071c0-3.842 3.104-5.888 7.62-5.888 2.279 0 3.9.318 5.49.778v-.637c0-3.276-1.972-4.97-5.314-4.97-1.795 0-2.84.234-4.152.831a1.31 1.31 0 01-.48.107c-.621 0-1.175-.53-1.175-1.164 0-.562.24-.91.726-1.13 1.756-.778 3.08-1.037 5.356-1.037 2.517 0 4.449.667 5.757 2.008 1.209 1.233 1.831 2.996 1.831 5.322v10.057c0 .773-.552 1.338-1.28 1.338-.755 0-1.269-.565-1.269-1.269v-1.74c-1.243 1.66-3.316 3.139-6.449 3.139-3.314 0-6.662-1.938-6.662-5.674m13.144-1.41v-1.762a18.264 18.264 0 00-5.246-.778c-3.342 0-5.208 1.483-5.208 3.772v.07c0 2.29 2.07 3.63 4.486 3.63 3.274 0 5.968-2.045 5.968-4.932M4.87 51.497c-.584-1.31-2.028-1.902-3.376-1.289-1.35.613-1.846 2.142-1.236 3.452l5.66 12.57c.89 1.971 1.829 3.004 3.589 3.004 1.881 0 2.701-1.125 3.59-3.004 0 0 4.938-10.984 4.987-11.098.051-.117.21-.472.711-.47.425.005.783.35.783.814V66.22c0 1.655.898 3.014 2.627 3.014 1.728 0 2.663-1.359 2.663-3.014v-8.79c0-1.695 1.188-2.794 2.808-2.794 1.62 0 2.7 1.137 2.7 2.795v8.789c0 1.655.901 3.014 2.627 3.014 1.728 0 2.666-1.359 2.666-3.014v-8.79c0-1.695 1.184-2.794 2.806-2.794 1.618 0 2.7 1.137 2.7 2.795v8.789c0 1.655.901 3.014 2.629 3.014 1.726 0 2.663-1.359 2.663-3.014V56.216c0-3.677-2.892-6.252-6.374-6.252-3.478 0-5.656 2.458-5.656 2.458-1.157-1.533-2.753-2.455-5.454-2.455-2.85 0-5.344 2.455-5.344 2.455-1.158-1.533-3.13-2.455-4.763-2.455-2.525 0-4.53 1.135-5.755 3.993l-3.614 8.706z"/></g></svg>