<?xml version="1.0" encoding="utf-8"?>
<!-- Generator: Adobe Illustrator 26.5.0, SVG Export Plug-In . SVG Version: 6.00 Build 0)  -->
<svg version="1.0" id="Layer_1" xmlns="http://www.w3.org/2000/svg" xmlns:xlink="http://www.w3.org/1999/xlink" x="0px" y="0px"
	 viewBox="0 0 725.17 500.5" style="enable-background:new 0 0 725.17 500.5;" xml:space="preserve">
<style type="text/css">
	.st0{fill:#C046FF;}
</style>
<path d="M241.82,63.59h64.25c25.78,25.77,51.55,51.54,77.31,77.29V63.59h77.59c0,25.86,0,51.72,0,77.58c-25.75,0.09-51.51,0-77.26,0
	c25.82,25.85,51.65,51.69,77.5,77.52c0,21.38,0,42.76,0,64.15h-64.2c-25.89-25.81-51.75-51.65-77.58-77.51c0,25.84,0,51.68,0,77.51
	h-77.61C241.81,209.78,241.81,136.7,241.82,63.59z"/>
<path d="M123.21,360.39H140c14.2,17.2,28.4,34.4,42.6,51.59c0.4,0.53,0.76,1.08,1.09,1.66c0-17.75,0-35.5,0-53.25h16.26v76.52
	h-16.44c-13.31-16.32-26.8-32.51-40.17-48.78c-1.41-1.57-2.7-3.24-3.86-5v53.77h-16.27V360.39z"/>
<path d="M262.2,436.91c11.96-25.52,23.96-51.03,36-76.52h17.92c12.18,25.5,24.35,51.01,36.51,76.52h-18
	c-2.51-5.54-5-11.06-7.62-16.56c-13.09,0-26.19,0-39.28,0c-2.44,5.51-4.88,11-7.29,16.54L262.2,436.91z M307.08,376.84L294,406.25
	h26.58C316.1,396.44,311.6,386.64,307.08,376.84z"/>
<path d="M363.52,360.39h37.25c7.62-0.05,15.33,0.24,22.72,2.2c4.16,1.15,8.43,2.9,11.21,6.34s3.73,8,3.59,12.39
	c0,3.81-0.87,7.86-3.5,10.77s-6.73,4.54-10.63,5.44c4.16,0.82,8.45,2.13,11.66,5c2.69,2.41,3.87,6.05,4.16,9.56
	c0.33,4.26,0,8.71-1.88,12.59c-1.4,2.87-3.61,5.27-6.36,6.9c-3.01,1.72-6.26,2.97-9.64,3.72c-2.81,0.75-5.73,0.93-8.55,1.58h-50
	L363.52,360.39z M380.07,374.11c0,5.65,0,11.29,0,16.93c6.19,0,12.38,0,18.56,0c4.77,0,9.57,0.18,14.3-0.61
	c2.07-0.23,4.07-0.86,5.9-1.86c1.64-1.18,2.63-3.06,2.67-5.08c0.17-2.47-0.2-5.35-2.29-7c-1.89-1.4-4.33-1.64-6.59-2
	c-4.78-0.43-9.58-0.58-14.37-0.45L380.07,374.11z M380.07,404.55c0,6.05,0,12.1,0,18.15h19.62c5.17,0.16,10.35-0.16,15.47-0.95
	c2.09-0.41,4.32-1,5.79-2.67c1.67-1.87,1.91-4.55,1.67-6.94c-0.1-2.31-1.41-4.39-3.44-5.49c-3.69-1.8-7.93-1.77-12-2
	C398.18,404.45,389.12,404.58,380.07,404.55L380.07,404.55z"/>
<path d="M453.98,436.91c0-25.51,0-51.02,0-76.52h17.2c0,20.16,0,40.32,0,60.47h47.3c0,5.35,0,10.7,0,16.05H453.98z"/>
<path d="M532.16,436.91c0-25.51,0-51.02,0-76.52h68v14.56h-51.58c0,5.43,0,10.87,0,16.31h43.7c0,4.9,0,9.8,0,14.7h-43.7
	c0,5.36,0,10.73,0,16.09H602v14.84L532.16,436.91z"/>
<path d="M215.06,390.02h43.61v17.48h-43.62C215.06,401.67,215.05,395.85,215.06,390.02z"/>
<path class="st0" d="M383.71,141.25c25.75,0,51.51,0,77.26,0c25.92-0.07,51.85,0,77.78,0c0,25.87,0,51.74,0,77.6
	c-25.84,0-51.68,0-77.53,0C435.39,192.92,409.56,167.06,383.71,141.25z"/>
</svg>
