<svg xmlns="http://www.w3.org/2000/svg" width="237" height="237"><path d="M206.56 153.977c-10.73 0-18.158-9.87-19.444-22.948 3.26-11.166 10.485-16.727 19.03-16.727 10.984 0 17.182 8.112 17.182 19.644 0 12.376-7.06 20.03-16.767 20.03zM73.515 187.57v11.724H.237V187.57zM207.488 72.097c15.49 0 25.048 7.31 28.212 22.352l-13.45 2.7c-1.958-8.71-5.624-14.026-14.86-14.026-14.525 0-20.64 15.28-20.64 32.822 3.913-7.426 11.663-12.44 22.498-12.44 19.414 0 27.516 15.013 27.516 30.212 0 19.454-12.948 31.26-30.237 31.26-20.924 0-33.066-14.696-33.066-44.43 0-33.495 14.563-48.44 34.027-48.44zm-189.684.96l36.792 63.195c2.368 4.182 3.956 7.395 5.3 11.063h.256c-.256-3.203-.384-6.533-.384-12.04h.006V73.056h12.93v90.948h-16.64l-36.795-63.2c-2.368-4.18-3.956-7.393-5.3-11.06h-.256c.256 3.203.384 6.533.384 12.04h-.006v62.218H.987V73.056zm107.496-.96c16.53 0 28.755 8.586 28.755 27.346 0 18.148-14.093 30.88-19.043 35.83-4.356 4.356-14.17 12.22-21.02 16.947h41.085v11.784h-60.46v-10.76c7.006-5.003 21.556-15.87 30.663-24.98 8.716-8.717 14.423-16.683 14.423-28.373 0-11.502-6.318-16.285-14.856-16.285-8.754 0-15.747 5.058-15.747 15.624 0 2.307.255 4.867.896 7.814l-13.734-1.33c-.64-2.563-.897-4.867-.897-7.173 0-14.11 9.892-26.444 29.934-26.444zM73.515 37.705V49.49H.237V37.705z" fill-rule="evenodd"/></svg>