<svg xmlns="http://www.w3.org/2000/svg" viewBox="0 0 53 28"><path fill="#EA4B71" fill-rule="evenodd" d="M46.9 11.03a5.52 5.52 0 0 1-5.35-4.13h-6.32c-1.35 0-2.5.97-2.72 2.3l-.23 1.36a5.5 5.5 0 0 1-1.8 3.23 5.5 5.5 0 0 1 1.8 3.23l.23 1.36a2.76 2.76 0 0 0 2.72 2.31h.8a5.52 5.52 0 1 1 0 2.76h-.8c-2.7 0-5-1.95-5.44-4.61l-.23-1.36a2.76 2.76 0 0 0-2.72-2.3h-2.19a5.52 5.52 0 0 1-10.68 0h-3.1a5.52 5.52 0 1 1 0-2.77h3.1a5.52 5.52 0 0 1 10.68 0h2.19c1.35 0 2.5-.97 2.72-2.3l.23-1.36a5.52 5.52 0 0 1 5.44-4.61h6.32a5.52 5.52 0 1 1 5.35 6.9Zm0-2.75a2.76 2.76 0 1 0 0-5.52 2.76 2.76 0 0 0 0 5.52ZM5.52 16.55a2.76 2.76 0 1 0 0-5.52 2.76 2.76 0 0 0 0 5.52Zm16.55-2.76a2.76 2.76 0 1 1-5.52 0 2.76 2.76 0 0 1 5.52 0Zm22.07 8.28a2.76 2.76 0 1 1-5.52 0 2.76 2.76 0 0 1 5.52 0Z"/></svg>
