<svg xmlns="http://www.w3.org/2000/svg" width="56" height="56"><g transform="translate(-3.15 -6.012)"><path d="M37.8 6.8L28.5 18l-13-6.2c-.3 0-.6-.3-.9 0-.3 0-.3.3 0 .9l3 14.3-13 6.2a.65.65 0 00-.6.6.65.65 0 00.6.6l13 6.5-3.1 14.3v.9h.9l13-6.2 9 11.5c.3.3.6.6.9.3.3 0 .3-.3.6-.6l3.4-14H57c.3 0 .6 0 .9-.3 0-.3 0-.6-.3-.9l-9-11.5L58 22.9c.3-.3.3-.6.3-.9s-.3-.3-.9-.3h-3.7c-.3 0-.6 0-.6.3L39.3 36.6H39v-.3c.3-.3 7.8-9.6 11.8-14.3v-.3c0-.3 0-.3-.3-.3h-4.7c-.3 0-.9.3-.9.6-2.2 2.5-13.4 14.3-13.7 14.3H31V36l11.5-14c.3-.3.3-.6.3-.9L39.7 6.8a.65.65 0 00-.6-.6c-1 .3-1.3.3-1.3.6z" fill="#a91f23"/><path d="M13.3 35.3c-3.4 0-6.5-.6-9.3-1.9 0 0 .3 0 .3-.3l13-6.2-3.1-14.3v-.9h.9l13 6.2 9.3-11.2c.3-.3.6-.3.6-.3 0 1.2.3 2.2.3 3.4.4 14.1-11.1 25.5-25 25.5zm35.4-12.4c.3-.3.6-.9.9-1.2h-4.3c-.3 0-.6.3-.9.3 0 .6 0 1.6.6 1.9.6.9 2.4.3 3.7-1zm4.3-1.5c-.3 0-.6 0-.6.3l-.3.3c0 .6.3.9.6 1.2.9.9 2.8.3 3.7-.9.3-.3.3-.6.6-.9h-4c0 .3 0 0 0 0z" fill="#ec2024"/><radialGradient id="a" cx="647.779" cy="24471.994" r="371.469" gradientTransform="translate(-41.034 -2927.062) scale(.1218)" gradientUnits="userSpaceOnUse"><stop offset=".491" stop-color="#de1f26"/><stop offset=".736" stop-color="#e84b4f"/><stop offset="1" stop-color="#f27778"/></radialGradient><path d="M55.5 22.6H53c-.6 0-.9.3-1.2.6-4.7 5-12.4 13-12.7 13-.9.9-1.6.3-.6-.6.3-.3 6.5-7.8 10.2-12.4 0-.3.3-.6 0-.6H45c-.3 0-.6 0-.9.3-4.7 5-12.7 13.4-13 13.4-.9.9-1.6.3-.6-.6.3-.3 7.1-8.7 10.6-13.4.3-.3.3-.6.3-1.2l-3-12.5c0-.3-.3-.6-.6 0l-8.4 10.2c-.3.3-.9.6-1.2.3l-11.8-5.9c-.3 0-.6 0-.6.3l2.8 13c0 .3 0 .9-.6 1.2L6.1 33.5c-.3 0-.3.6 0 .6L17.9 40c.3 0 .6.6.6 1.2L15.4 54c0 .3 0 .6.6.3l12.1-5.6c.3 0 .9 0 1.2.3l8.1 10.2c.3.3.6.3.6 0l3.1-12.7c0-.3.6-.6.9-.6h13c.3 0 .6-.3.3-.6l-8.1-10.6c-.3-.3-.3-.9 0-1.2l8.4-10.2c.5-.4.2-.7-.1-.7z" fill="url(#a)"/></g></svg>