<svg xmlns="http://www.w3.org/2000/svg" viewBox="0 0 29.46 30"><defs><linearGradient id="a" x1="-859.93" x2="-859.93" y1="479.82" y2="480.79" gradientTransform="matrix(13.55 0 0 -6.97 11672.75 3358.24)" gradientUnits="userSpaceOnUse"><stop offset="0" stop-color="#a50000" stop-opacity="0"/><stop offset="1" stop-color="#a50000"/></linearGradient></defs><path fill="#ed0000" d="m29.3 21.14-4.97-6.22L29.3 8.7c.3-.37.15-.67-.3-.67h-1.88a.5.5 0 0 0-.3.15l-6.47 6.74h-.38l4.97-6.22c.3-.37.15-.67-.3-.67h-1.88a.5.5 0 0 0-.3.15l-6.47 6.74h-.38l5.42-6.74c.08-.07.08-.22.08-.3L19.23.39c-.08-.45-.45-.52-.75-.15l-4.97 6.22-7.15-3.45c-.45-.22-.68 0-.6.45l1.73 7.72-7.15 3.45c-.45.23-.45.52 0 .75l7.15 3.45-1.73 7.72c-.08.45.15.67.6.45l7.15-3.45 4.97 6.22c.3.37.6.3.75-.15l1.73-7.72h7.98c.53-.08.68-.38.38-.75Z"/><path fill="url(#a)" d="M24.34 14.93h-3.99l6.45-6.72s.14-.15.31-.17h1.93c.42.02.57.32.25.69zm.29-6.9h-1.88a.5.5 0 0 0-.3.15l-6.47 6.74h3.99l4.97-6.22c.3-.3.15-.67-.3-.67Z"/></svg>