<svg viewBox="0 0 90 90" xmlns="http://www.w3.org/2000/svg"><path d="M45 0c24.853 0 45 20.147 45 45S69.853 90 45 90 0 69.853 0 45 20.147 0 45 0zm0 3.333C21.988 3.333 3.333 21.988 3.333 45S21.988 86.667 45 86.667 86.667 68.012 86.667 45 68.012 3.333 45 3.333zM56.667 67.5a1.667 1.667 0 01.194 3.323l-.194.01H36.205l1.909 3.34a1.667 1.667 0 01-.457 2.168l-.163.106a1.667 1.667 0 01-2.168-.456l-.106-.164-3.334-5.833c-.603-1.055.091-2.356 1.26-2.483l.187-.01h23.333zM34.569 28.046l.119.149L55 56.487v-27.32c0-.855.643-1.56 1.472-1.656l.194-.011c.855 0 1.56.643 1.656 1.472l.01.195v32.5c0 1.554-1.912 2.232-2.901 1.12l-.119-.148L35 34.347v27.32c0 .854-.643 1.559-1.472 1.655l-.194.011c-.855 0-1.56-.643-1.656-1.472l-.011-.194v-32.5c0-1.555 1.913-2.233 2.902-1.12zm20.106-13.203l.106.163 3.333 5.834c.604 1.055-.09 2.356-1.258 2.483l-.189.01H33.334a1.667 1.667 0 01-.194-3.322l.194-.011h20.46l-1.907-3.34a1.667 1.667 0 01.457-2.168l.163-.106a1.667 1.667 0 012.168.457z" fill="gray"/></svg>