<svg xmlns="http://www.w3.org/2000/svg" width="512.01" height="512.01"><g transform="translate(2366.317 511.44)"><path d="M-2249.816-.438c-31.095-3.16-57.116-15.354-78.591-36.83-22.209-22.208-33.995-48.116-36.892-81.09-1.357-15.448-1.357-258.553 0-274 2.898-32.997 14.651-58.81 36.913-81.07 21.854-21.856 47.422-33.71 79.494-36.858 14.6-1.433 262.281-1.476 276.72-.048 13.241 1.31 19.228 2.526 30.356 6.167 31.593 10.339 58.372 33.514 73.489 63.598 7.175 14.28 11.345 29.344 13.028 47.067 1.348 14.201 1.311 262.611-.041 276.288-1.31 13.241-2.526 19.227-6.168 30.356-10.338 31.592-33.513 58.371-63.598 73.488-14.274 7.173-28.799 11.18-47.066 12.987-12.399 1.227-265.532 1.177-277.644-.055z" fill="#6dd877"/><path d="M-2026.066-128.602l3.75-1.073.036-99.592c.037-102.104.097-103.898 3.809-113.29 1.684-4.261 7.811-10.42 12.612-12.676 2.42-1.137 7.244-2.418 10.72-2.846l6.323-.78.29-8.25.291-8.25h-93.08v16.711l6.75.587c13.627 1.185 21.688 6.185 26.563 16.477l3.186 6.726.233 53 .233 53-2.07-2.5c-1.14-1.375-5.295-5.881-9.234-10.014-7.25-7.605-9.826-10.362-33.162-35.481-15.047-16.198-26.354-28.298-28.5-30.5-.825-.846-4.399-4.681-7.942-8.522a2215.822 2215.822 0 00-13.513-14.483c-3.889-4.125-12.499-13.35-19.132-20.5-6.634-7.15-14.467-15.588-17.408-18.75l-5.347-5.75h-71.739l.291 8.25.29 8.25 10 .701c12.047.845 17.92 2.296 22.25 5.498l3.25 2.402-.012 87.7c-.013 94.867.07 93.305-5.423 102.679-4.293 7.325-13.085 12.52-21.19 12.52h-3.375v17h92v-16.727l-6.389-.512c-16.238-1.304-27.076-11.883-29.697-28.988-.553-3.605-.845-28.926-.688-59.53l.274-53.256 14.44 15.256c7.942 8.391 22.792 24.03 33 34.754 10.208 10.724 22.61 23.76 27.56 28.97 4.95 5.209 9.675 10.174 10.5 11.033.825.859 5.556 5.823 10.514 11.03 36.717 38.574 47.813 50.254 52.97 55.758 6.415 6.844 6.04 6.75 15.766 3.968z" fill="#fff"/><circle cx="-1959.578" cy="-153.36" r="27.066" fill="#4d4d4d" paint-order="markers fill stroke"/></g></svg>