<svg xmlns="http://www.w3.org/2000/svg" viewBox="0 0 30.4 32.917"><circle cx="9" cy="4.1" r="4.1" fill="#112140"/><path d="M16.8 30c0-.1-.9-2.8-.9-2.8l-1.2-3.6s-1.1-3.3-1.2-4.6c-.1-1.2-.1-2-.1-2s.6.7 1.5.4c.7-.3.7-1 .7-1s3-1 3.5-3.5c.4-2.1-.8-4-1-4.2s-1.4-1.9-3-2c-1.4-.1-2.4 1-2.6 1.2s-.9.8-3 1.2c-2.6.1-4-1.3-4.7-1.2C4 7.8.2 9.6 0 13.1c0 3.6 4.1 4.2 4.4 4 .1 0 .3.5 1.1.5.5 0 1-.8 1-.8s.6.9.7 1.6c.2.7-.1 1.4-.1 1.7-.2.8-2.7 6.9-3 8.1S3.8 30 3.8 30s-.4-.2-1.5-.2C.8 29.9.8 31.1.8 31.1s-.1 1.7 2.7 1.8c2.3 0 3.4-1.1 3.4-1.6.1-4 1.3-7 1.3-7s.8-3.1 2-3.1 1.8 2.3 2 2.8c.5 1.5 1.1 6.4 1.6 7.3 1.1 1.9 3.4 1.6 3.4 1.6s2.4 0 2.5-1.4c-.3-2.1-2.8-1.6-2.9-1.5zm-1.4-19.9c.3-.2.4 1 .7 1.7.3.8.9.9 1.1 1-1.4 2.4-2.2 2.2-3.4 3 .8-2.7 1.7-3.1 1.6-5.7zm-13 3.3c1.8-.3 1.4-1.8 2.1-2 .4-.2-.4 1.7 1.4 4.1-1.1.1-3.7-.4-3.5-2.1z" fill="#112140"/><path d="M29.1 18.7c-.7-1.4-.7-2.5 0-3.9.3-.7.7-1.5.9-2.2.5-2 0-3.8-1.4-5-.8-.7-1.7-1-2.6-1.5-1.3-.7-2.5-1.5-2.5-3.2 0-.2-.2-.5-.4-.5-1.7-.2-3.4.1-4.5 1.8-.4.5-.7.5-1.3.4-.5-.1-1.1-.3-1.6-.4-1.4-.3-2.8.7-2.9 2.2.1 0 .6-.2.7-.2.9-.4 1.9-.2 2.8.3 1.1.6 1.8 1.7 2.5 2.6 1 1.2 1.9 2.1 3.7 2.1.8 0 1.5.3 2.1.9 1 1 1.1 2.4 1.2 3.7.1 1.7.8 3.1 2.2 4.2.6.5 1.5.9 2.4.9-.4-.7-.9-1.5-1.3-2.2zM11 10c-1.2.8-2.8.6-3.5.6-.1 2.5 1.7 2.9 1.8 2.9 1.5-.3 2.2-3 1.7-3.5zM9.3 21.5c-.2-.2-.6-1.9-2.4-2 .2-.9 0-1.6 0-1.6 2.8.8 6.5-.8 6.5-.8s.1 1.4.1 1.6c-2.3.8-2.5 2.5-2.5 2.6-.1.1-.8-.6-1.7.2z" fill="#ff8a00"/><path d="M13 22.4c-.2-.2-.6-1.9-2.4-2 .2-.9 0-1.6 0-1.6 2.8.8 6.5-.8 6.5-.8s.1 1.4.1 1.6c-2.3.8-2.5 2.5-2.5 2.6-.1.1-.8-.6-1.7.2z" transform="translate(-3.7 -.9)" style="opacity:7.000000e-02"/></svg>
