<svg xmlns="http://www.w3.org/2000/svg" xmlns:xlink="http://www.w3.org/1999/xlink" width="84.049" height="84.049"><defs><linearGradient id="a" x1="59.99" y1="44.16" x2="80.01" y2="1.23" gradientUnits="userSpaceOnUse"><stop offset="0" stop-color="#d4202c"/><stop offset=".1" stop-color="#dc3d29" stop-opacity=".79"/><stop offset=".2" stop-color="#e45926" stop-opacity=".58"/><stop offset=".32" stop-color="#ea7123" stop-opacity=".4"/><stop offset=".43" stop-color="#f08521" stop-opacity=".25"/><stop offset=".55" stop-color="#f4941f" stop-opacity=".14"/><stop offset=".68" stop-color="#f79f1e" stop-opacity=".06"/><stop offset=".82" stop-color="#f8a51d" stop-opacity=".02"/><stop offset="1" stop-color="#f9a71d" stop-opacity="0"/></linearGradient><linearGradient id="c" x1="1777.48" y1="1048.76" x2="1797.5" y2="1005.83" gradientTransform="rotate(180 901.75 526.3)" xlink:href="#a"/><linearGradient xlink:href="#a" id="b" gradientUnits="userSpaceOnUse" x1="59.99" y1="44.16" x2="80.01" y2="1.23"/></defs><path d="M76.194 18.727a7.87 7.87 0 00-6.88 4.05l-.16.33-6.13 12.16-7.8 15.37 5.11 10.07.28.55a8 8 0 003.41 3.23 8.05 8.05 0 003.41-3.23l.28-.55 15.31-30.21.37-.73a7.86 7.86 0 00-7.19-11zM28.874 33.357l-5.1-10-.28-.55a7.89 7.89 0 00-3.4-3.22 7.92 7.92 0 00-3.4 3.21l-.29.56-15.33 30.18-.37.72a7.86 7.86 0 0014.06 7l.17-.32 6.17-12.16 7.79-15.36z" fill="#ff5100"/><path d="M77.15.71a7.86 7.86 0 00-6.87 4.05l-.17.33-6.17 12.16-7.81 15.37 5.12 10.07.28.55a7.94 7.94 0 003.41 3.23 7.94 7.94 0 003.41-3.23l.29-.55L84 12.48l.36-.73a7.86 7.86 0 00-7.19-11z" transform="translate(-.976 18.017)" fill="url(#b)"/><path d="M8.86 47.29a7.86 7.86 0 006.87-4l.17-.33 6.18-12.16 7.8-15.37-5.11-10.12-.28-.55a8 8 0 00-3.42-3.23 8 8 0 00-3.41 3.23l-.28.55L2 35.52l-.37.73a7.86 7.86 0 007.19 11z" transform="translate(-.976 18.017)" fill="url(#c)"/><path d="M28.874 33.357l-5.1-10-.28-.55a7.94 7.94 0 00-3.41-3.23 8.31 8.31 0 011.49-.56 8.16 8.16 0 012-.25h10.68a7.92 7.92 0 016.86 4l.28.55 13.81 27.36 5.09 10 .28.55a8 8 0 003.45 3.26 8.05 8.05 0 01-3.47.81h-10.74a7.91 7.91 0 01-6.85-4l-.29-.55z" fill="#ff8c44"/></svg>