<svg xmlns="http://www.w3.org/2000/svg" width="27" height="28.5" fill="none"><path d="M27.143 7.214a2.857 2.857 0 1 0 0-5.714 2.857 2.857 0 0 0 0 5.714z" fill="url(#a)" fill-rule="evenodd" transform="translate(-3 -1.5)"/><path d="M13 3.5c7.18 0 13 5.82 13 13v12h-8v-12a5 5 0 0 0-5-5z" fill="#007fff"/><path d="M13 3.5c-7.18 0-13 5.82-13 13v12h8v-12a5 5 0 0 1 5-5z" fill="#ffb700"/><defs><linearGradient id="a" x1="21.605" y1="4.348" x2="27.134" y2="9.877" gradientUnits="userSpaceOnUse"><stop stop-color="#ff5980"/><stop offset="1" stop-color="#ffa882"/></linearGradient></defs></svg>