<svg xmlns="http://www.w3.org/2000/svg" width="160" height="160" fill="none"><path d="M0 31C0 13.88 13.88 0 31 0h98c17.121 0 31 13.88 31 31v98c0 17.121-13.879 31-31 31H31c-17.12 0-31-13.879-31-31z" fill="#031b4e"/><path d="M110 48.322L79.065 28 48 48.322v10.743h.04c.828 2.667 14.373 4.789 30.96 4.789 16.587 0 30.132-2.122 30.96-4.79h.04v-.258zM110 106.568c0 3.335-13.88 6.04-31 6.04-17.12 0-31-2.705-31-6.04v17.244c0 3.336 13.88 6.04 31 6.04 17.12 0 31-2.704 31-6.04v-.001z" fill="#fff"/><path d="M48 84.564v17.244c0 3.335 13.88 6.039 31 6.039 17.12 0 31-2.704 31-6.039V84.564c0 3.335-13.88 6.04-31 6.04-17.12 0-31-2.705-31-6.04z" fill="#fff"/><path d="M48 79.803V62.56c0 3.335 13.88 6.04 31 6.04 17.12 0 31-2.705 31-6.04v17.243c0 3.336-13.88 6.04-31 6.04-17.12 0-31-2.704-31-6.04z" fill="#fff"/></svg>