<svg xmlns="http://www.w3.org/2000/svg" viewBox="0 0 37.1 56.7"><path d="M29.5 28.2c.1-1.3.2-4.5.4-7 .3.4.7.7 1.4.6.3-.1 1-.3 1.1-1.3 0-.6-.4-1.4-1.6-2.6-.1-.1-.2-.2-.3-.2.7-.6 1.8-1.7 2.3-2.7l.1-.2-.2-.2c-1.1-.9-2.6-1.8-3.4-2.2-.3-.2-.6-.3-.9-.5l.1-.1c.7-.7 3.4-3.8 1.7-8s-6-4.1-8.3-3.6c-.8.2-1.6.6-2 .9-1.5 1-2.7 2.5-3 4.3-.4 1.9.2 4.1 1.7 5.5.3.3.4.3.5.3 0 0 .1-.4.7-.9.2-.2 1.3-1.1 2.8-.6.9.3 1.3.7 1.5 1.4.1.3.2.7.2 1h-.1c-1.1.7-2.4 2.3-2.1 6.1.3 4.4.7 8 .9 10.1-.7 0-1.3.1-1.9.2.9-4 .7-8.6-3.7-11.4-4.2-2.6-10.1-1.8-13.8 1.4S-1 27.1 1 31.5c.2.4.4.8.6 1.1.6 1.1 1.5 2.1 2.5 2.8 1 .8 2.2 1.3 3.4 1.7.8.2 1.5.4 2.3.6.1 0 .2-.1.1-.2s-.1-.2-.1-.2c-.2-.4-.4-.8-.5-1.3-.3-1.6.2-3.5 1.6-4.5 1.3-.9 3-1 4.3 0 .2.2.4.3.6.6-.7 1.6-.7 3.4-.5 4.5.1.8.3 1.1.4 1.4.7 2.1 2.5 4.3 3.2 5.1 1 1.2 3.7 4.1 4.7 5.1v4.3c-.4.2-2.7 1.7-3.7 3.9-.1.2.1.5.4.4 1.8-.3 4-.4 6.2-.4s4.2.2 6 .4c.3 0 .5-.2.4-.4-1-2.2-3.4-3.7-3.7-3.9v-4.2c.9-1 3.5-3.9 4.4-5.2.6-.8 3.1-4 3.5-6.5.3-2.6-.1-8.1-7.6-8.4zM31.7 15c-.4.7-1.2 1.3-1.7 1.8 0-1.4-.3-2.4-.6-3.2 1.3.5 2.3 1.4 2.3 1.4z"/><path d="M31.3 20.2c.1.3 0 .6-.2.7s-.5 0-.6-.2v-.2c0-.1-.1-.3-.2-.5-.1-.3-.2-1-.3-1.3v-.2l.1.1c.3.3.8.8.9 1 .2.3.2.4.3.6zm-13.2-1.1c-1.2-1.2-2.9-1.9-4.5-2.2-4.5-.7-9.3 1.2-11.3 5.4-1.7 3.5-1 8.4 1.8 11.2 1.3 1.3 2.6 2 4.2 2.4 0 0-.2-1.1.1-2.3.3-1.3 1-2.9 2.9-3.7 2.9-1.1 4.6.3 5.5 1 .6-.7 1.1-1 1.8-1.3.5-.3.9-.4 1.3-.5.6-1.3.8-3.7.6-5.1-.5-1.8-.8-3.4-2.4-4.9zm11 13.8c-2-.2-2.8 1.6-2.8 1.6 0-.1-.8-1.8-2.8-1.6s-3.4 2.6-.6 6.5c2.6 3.7 3.4 3.9 3.5 3.9 0 0 .8-.2 3.5-3.9 2.6-3.8 1.2-6.3-.8-6.5zm-3.7-21.5v.2c.6-.1 1.3-.1 1.8 0 1.1-.9 1.9-2.3 2.2-3.9.3-1.8-.1-3.5-1.1-4.6-1.1-1.2-2.5-1.9-4.3-1.9h-.2c-1.7 0-2.7.4-3.9 1.4a5 5 0 0 0-1.8 3.3c-.1 1 0 1.7.1 2.1 0 .1 0 .1.1.2.1.4.2.7.6 1.2.5-.5 1.1-.8 1.7-1 .4-.1.9-.1 1.4-.1.2 0 1.4.2 2.3.8 1.1.9 1.1 1.8 1.1 2.3z" fill="#ce0a24"/><g fill="#fff"><path d="M26 18.8c.2-.3.5-.5.8-.3.3.1.4.4.3.7v.2c-.1.1-.2.3-.3.5-.2.3-.8.9-1.1 1.2l-.1.1V21c.1-.4.2-1.3.3-1.6-.1-.2 0-.4.1-.6-.1 0-.1 0 0 0zm2.1-3.6c0 .9-.8 1.7-1.7 1.7s-1.7-.8-1.7-1.7.8-1.7 1.7-1.7 1.7.7 1.7 1.7zm-1 0c0-.4-.3-.8-.8-.8-.4 0-.8.3-.8.8s.3.8.8.8c.5-.1.8-.4.8-.8zm2.3-1.6c.4.8.6 1.8.6 3.2.5-.4 1.2-1.1 1.7-1.8 0 0-1-.9-2.3-1.4z"/><circle cx="14.6" cy="19.6" r=".8"/><circle cx="17" cy="21.7" r=".8"/><circle cx="17.8" cy="24.7" r=".8"/><circle cx="5.9" cy="32.4" r=".8"/><circle cx="4.1" cy="30" r=".8"/><circle cx="3.4" cy="27" r=".8"/><circle cx="3.8" cy="24" r=".8"/><circle cx="5.4" cy="21.3" r=".8"/><circle cx="8.2" cy="19.6" r=".8"/><circle cx="11.4" cy="18.9" r=".8"/><circle cx="17.2" cy="27.6" r=".8"/></g></svg>