<svg xmlns="http://www.w3.org/2000/svg" version="1.1" id="Layer_1" x="0" y="0" xml:space="preserve" width="51.8" height="51.8"><style type="text/css" id="style229">.st0{fill:#00529b}.st1{fill:none}</style><g id="g304" transform="translate(.4)"><path id="path269" d="M26.5 7.6l3.2 3 6.2 5.4c-.1-.3-.2-.7-.1-1.1l3.9 3.3-.3-.6-3.7-4.2c-.8-2.3-1.4-5-2.2-6.2 1.4 1.3 2.7 2.3 4 3.6-1.2-2.3-2.8-4.3-4.7-6-.9-.9-1.6-2-3.1-2.2-.1 0-.1-.1-.2-.1l-1.6-.7 1 1.2-1.2 1.5-3.7-4C22.6.1 21.1 0 19.6 0l7.1 6.6z" class="st0" fill="#00529b"/><g id="g295"><path class="st0" d="M29.7 26.9L51 46.2v-.1L29.7 23.5l-5.6-6.1c0 .3-.1.5-.2.8L14.9 8l-1.1-1.4 1.1 1.1 9.6 8.1-.1.5c.5.5 2.8 2.7 5.3 5.2 3.7 3.4 7.9 7.3 8.3 7.2l-1-4.4-7.2-7.3-4.6-4.8-.2.8-9.6-10.8L25.5 11l-.3.8 4.5 4.1 7.1 6.2-.8-4-6.2-6.4-3.4-3.6c-.1.2-.2.4-.3.5L18.7 0c-1.2 0-2.5.2-3.7.5-1.2.3-2.4.7-3.5 1.2C4.9 4.9.1 11.6 0 18.8c0 8.9 4.5 14.7 11.3 18.3.8.5 1.7.9 2.6 1.2-.4.1-.7.2-1 .4l2 2.1 7.7 7.3 1.2.1v3.5h4.8L16 37.8l-1.1.2-.6.1c-1-1.1-2-2.2-2.9-3.3-3.1-3.6-6.1-7.2-9-11.1l9 8.1 3.5 3.1 2.2 1.8c.5.4-.4.5-.3.7l13 12.1 2.5 2.3h1.6l-4.1-4.5L18.7 35h-.1l-.1.1c-.1.4-.3.7-.6 1l-3-3.5-3.5-4.2-7-8.4 7 6.5 3.5 3.2 4.3 3.8c.1.1.2.2.2.3l-.3.3 10.6 9.7 6.2 5.6v-.7l.8.1-7-7.6-8.8-9.7c-.5.2-.5 1.1-1.1 1.3-1.6-2-3.3-3.9-5-5.9-1.2-1.4-2.4-2.8-3.5-4.2-1.6-2-3.1-4-4.7-6.1l4.7 4.3 3.5 3.2 6.8 6c-.2.2-.3.5-.3.8l8.4 7.6 11.2 9.9.9.1-12-12.8-7.3-7.9c-.1.4-.2.7-.4 1.1L15 20.4 11.3 16 9 13.1l2.3 2.1 3.5 3.2 7.9 7c0 .4-.1.7-.2 1.1l7.1 6.4L46 47.4l.6-.1-16.9-18-6.4-7-.2 1-8.3-9.5-1.5-1.8-2-2.4 3.5 3.1 8.7 7.5v.8z" id="path271" fill="#00529b"/></g><path id="path273" d="M12.3 39c-.4.3-.7.5-1 .7-.5.4-.9.9-1.3 1.5l1.3 1.3 3.5 3.3 1.3 1.1 3.5.7-4.9-5.5z" class="st0" fill="#00529b"/><path id="line275" class="st1" fill="none" d="M11.4 9.7"/><path id="line277" class="st1" fill="none" d="M11.4 9.7v-.1"/><path id="path279" d="M9.8 41.5c-.6.9-1.8 2.6-1.2 3.7.8.5 1.8.8 2.8.9.8.1 1.7.3 2.8.5l-2.8-3.1z" class="st0" fill="#00529b"/></g></svg>