<svg xmlns="http://www.w3.org/2000/svg" width="1000" height="1000"><g fill="none"><path d="M500 1000c178.455 0 343.345-95.295 432.574-250 89.23-154.705 89.23-345.295 0-500C843.346 95.295 678.456 0 500 0 321.543 0 156.653 95.295 67.425 250c-89.228 154.705-89.228 345.295 0 500C156.653 904.705 321.543 1000 500 1000v-47.97c-161.333 0-310.41-86.163-391.085-226.015-80.676-139.853-80.676-312.177 0-452.03C189.591 134.133 338.667 47.97 500 47.97c161.333 0 310.41 86.163 391.085 226.015 80.675 139.853 80.675 312.177 0 452.03C810.41 865.867 661.333 952.03 500 952.03z" fill-opacity=".002" fill="#455a64"/><path d="M500 1000c152.005 0 295.755-69.28 390.532-188.247l-37.472-29.908C767.37 889.391 637.427 952.03 500 952.03z" fill="#ce001b"/><path d="M890.532 811.753c94.776-118.967 130.275-274.668 96.453-423.008l-46.724 10.665c30.578 134.114-1.512 274.889-87.2 382.435z" fill="#780011"/><path d="M986.985 388.745C953.163 240.405 853.668 115.535 716.72 49.52l-20.79 43.21c123.824 59.687 213.752 172.565 244.33 306.68z" fill="#6d7096"/><path d="M716.72 49.52c-136.948-66.014-296.493-66.014-433.44 0l20.79 43.21c123.825-59.686 268.035-59.686 391.86 0z" fill="#60bbd5"/><path d="M283.28 49.52C146.33 115.535 46.836 240.406 13.014 388.745L59.74 399.41C90.317 265.295 180.245 152.417 304.07 92.73l-20.79-43.21z" fill="#0f99be"/><path d="M13.015 388.745c-33.823 148.34 1.677 304.041 96.453 423.008l37.471-29.908C61.25 674.299 29.161 533.524 59.74 399.41l-46.725-10.665z" fill="#8c9d26"/><path d="M109.468 811.753C204.244 930.72 347.993 1000 500 1000v-47.97c-137.427 0-267.37-62.639-353.06-170.185z" fill="#fcd813"/><path d="M278.655 624.375v-43.956h86.792l28.266-162.837h-86.058v-44.955h93.75l23-140.859h53.173l-24 140.859h134.827l23-140.859h53.132l-23 140.859h80.118v44.955h-87.792l-28.266 162.837h87.058v43.956h-93.764l-24 143.856h-52.138l24-143.856H411.891l-24 143.856h-52.098l23-143.856zm302.126-206.793h-135.87L418.53 580.419H554.4z" fill="#000"/></g></svg>