<svg xmlns="http://www.w3.org/2000/svg" version="1.1" id="Layer_1" x="0" y="0" width="166" height="166" xml:space="preserve"><style type="text/css" id="style6097">.st5{fill:#ed1b2f}.st6{fill:#d71925}</style><g id="g6136" transform="translate(-176.95 5.7)"><path id="polyline6101" opacity=".1" fill="#fff" d="M248.1 147.2l11.8-20 11.9 20h47.4l23.7-40-23.7-39.9h-23.7l11.8-20-23.7-39.9h-47.3l-23.7 39.9 11.9 20h-23.8L177 107.2l23.7 40h47.4"/><linearGradient y2="97.655" x2="301.659" y1="76.868" x1="265.655" gradientUnits="userSpaceOnUse" id="SVGID_1_"><stop id="stop6103" offset="0" stop-color="#ed1b2f" stop-opacity=".1"/><stop id="stop6105" offset="1" stop-color="#ed1b2f" stop-opacity=".6"/></linearGradient><path id="polygon6108" fill="url(#SVGID_1_)" d="M248.1 107.2h47.4l23.7-39.9h-23.7l-11.9 19.9H260z"/><linearGradient gradientTransform="rotate(-120 316.361 91.955)" y2="30.901" x2="366.656" y1="66.732" x1="379.697" gradientUnits="userSpaceOnUse" id="SVGID_2_"><stop id="stop6110" offset="0" stop-color="#ed1b2f" stop-opacity=".1"/><stop id="stop6112" offset="1" stop-color="#ed1b2f" stop-opacity=".6"/></linearGradient><path id="polygon6115" fill="url(#SVGID_2_)" d="M283.6 87.2L260 47.3h-47.4l11.9 20h23.6L260 87.2z"/><linearGradient gradientTransform="rotate(120 312.357 84.803)" y2="103.948" x2="368.376" y1="154.522" x1="359.459" gradientUnits="userSpaceOnUse" id="SVGID_3_"><stop id="stop6117" offset="0" stop-color="#ed1b2f" stop-opacity=".1"/><stop id="stop6119" offset="1" stop-color="#ed1b2f" stop-opacity=".6"/></linearGradient><path id="polygon6122" fill="url(#SVGID_3_)" d="M248.1 67.3l-23.7 39.9 23.7 40 11.8-20-11.8-20 11.9-20z"/><path id="polygon6124" class="st5" fill="#ed1b2f" d="M295.5 107.2h-47.4l23.7 40h47.4l23.7-40-23.7-39.9z"/><path id="polygon6126" class="st5" fill="#ed1b2f" d="M224.4 107.2l23.7-39.9h-47.4L177 107.2l23.7 40h47.4z"/><path id="polygon6128" class="st5" fill="#ed1b2f" d="M236.3 7.4l-23.7 39.9H260l23.7 39.9 23.6-39.9-23.7-39.9z"/><path id="polygon6130" class="st6" fill="#d71925" d="M319.2 147.2l-23.7-40 23.7-39.9 23.7 39.9z"/><path id="polygon6132" class="st6" fill="#d71925" d="M248.1 147.2h-47.4l-23.7-40h47.4z"/><path id="polygon6134" class="st6" fill="#d71925" d="M307.3 47.3L283.6 7.4 260 47.3l23.7 39.9z"/></g></svg>