<svg xmlns="http://www.w3.org/2000/svg" version="1.1" id="Layer_1" x="0" y="0" xml:space="preserve" width="22.1" height="22.1"><style type="text/css" id="style3479"></style><path id="path3533" d="M22.05 11c0-5.7-4.4-10.4-10-10.9-.3-.1-.6-.1-1-.1-.3 0-.6 0-.9.1-3.1.3-5.9 1.8-7.8 4.3l-.2.3-.2.3C.75 6.8.05 8.9.05 11.1c0 5.7 4.4 10.4 10 10.9.3.1.6.1 1 .1.3 0 .6 0 1-.1 5.6-.6 10-5.3 10-11zm-6 8.1h-1.5c.4-.8.8-1.9 1.1-3.1h2.5c-.5 1.2-1.3 2.3-2.1 3.1zM3.95 16h2.5c.3 1.2.6 2.2 1.1 3.1h-1.5c-.9-.8-1.6-1.9-2.1-3.1zm-3.1-4.6h1.4c.1 1.4.3 2.7.7 4h-1.1c-.7-1.3-1-2.6-1-4zm3.2-5.7c.5-1.1 1.2-2.1 2-2.8h1.5c-.3.6-.6 1.4-.9 2.3l-.1.3-.1.3v.1h-2.5s.1-.1.1-.2zm14.1.3h-2.5c-.3-1.2-.6-2.2-1.1-3.1h1.5c.8.9 1.6 1.9 2.1 3.1zm3.1 4.7h-1.4c-.1-1.4-.3-2.7-.7-4h1.2c.5 1.2.9 2.6.9 4zm-2 0h-3c0-1.4-.2-2.7-.4-4h2.7c.3 1.2.6 2.6.7 4zm-12-5c.3-1.1.6-2.1 1.1-2.8h2.4V6h-3.5v-.3zm.7-3.5h-1.1c.6-.5 1.3-.8 2-1.1-.4.3-.6.7-.9 1.1zm2.7-1.4v1.5h-1.9c.6-.9 1.3-1.4 1.9-1.5zm.7 1.4V.8c.7.1 1.3.6 1.9 1.5zm2.4.7c.5.8.8 1.9 1.2 3.1h-3.5V2.9zm-3.1 3.8v4h-4.1c0-1.4.2-2.7.4-4zm0 4.7v4h-3.6c-.3-1.2-.4-2.6-.4-4h4zm0 4.6v3.1h-2.3c-.5-.8-.8-1.9-1.2-3.1zm0 3.8v1.5c-.7-.1-1.3-.6-1.9-1.5zm.7 0h1.9c-.6.8-1.2 1.3-1.9 1.5zm0-.7V16h3.5c-.3 1.2-.7 2.2-1.2 3.1zm0-3.8v-4h4.1c0 1.4-.2 2.7-.4 4zm0-4.6v-4h3.6c.3 1.2.4 2.6.4 4zm2.8-8.5c-.3-.4-.5-.8-.8-1.1.7.3 1.4.6 2 1.1h-1.2zm-7.8 4.5c-.3 1.3-.4 2.6-.4 4h-3c.1-1.4.3-2.7.7-4zm-4.1 4H.85c.1-1.4.4-2.7 1-4h1.2c-.6 1.2-.8 2.6-.8 4zm.7.7h3c0 1.4.2 2.7.4 4h-2.7c-.5-1.3-.7-2.6-.7-4zm5 8.4c.3.4.5.8.8 1.1-.7-.3-1.4-.6-2-1.1zm6.2 0h1.1c-.6.5-1.3.8-2 1.1.3-.3.6-.7.9-1.1zm1.6-4.5c.3-1.2.4-2.6.4-4h3c-.1 1.4-.3 2.7-.7 4zm4.1-3.9h1.4c-.1 1.4-.4 2.7-1 4h-1.2c.5-1.3.8-2.6.8-4zm.1-5.4h-1.1c-.5-1.2-1.1-2.2-1.9-3.1h.3c1.2.9 2.1 1.9 2.7 3.1zm-3.6-3.8zm-11.6.7h.3c-.6.6-1.1 1.4-1.5 2.2l-.2.3-.2.3c-.1.1-.1.2-.1.2h-1.1c.2-.3.4-.6.6-1 .7-.7 1.4-1.3 2.2-2zM2.15 16h1.1c.5 1.2 1.1 2.2 1.9 3.1h-.3c-1.2-.8-2.1-1.9-2.7-3.1zm3.6 3.8zm10.6 0zm1-.7h-.3c.8-.8 1.4-1.9 1.9-3.1h1.1c-.7 1.2-1.6 2.3-2.7 3.1z" fill="#1a3e6f"/></svg>