<svg xmlns="http://www.w3.org/2000/svg" width="70" height="26.979"><path fill="#2a2a2a" fill-rule="nonzero" d="M0 26.98V0h3.379l12.643 20.314c.613 1.03 1.004 1.731 1.149 2.104V0h3.044v26.98h-3.38L4.193 6.654C3.58 5.625 3.19 4.922 3.044 4.549v22.418H0Zm26.47 0V0h9.712c2.52 0 4.549.612 6.076 1.823 1.529 1.221 2.297 2.783 2.297 4.683 0 2.83-1.55 4.822-4.638 5.942 3.702 1.28 5.565 3.543 5.565 6.767 0 2.308-.904 4.177-2.71 5.603-1.807 1.425-3.98 2.15-6.523 2.15h-9.78Zm3.189-24.275v8.611h6.3c1.684 0 3.021-.35 4.037-1.052 1.014-.701 1.515-1.776 1.515-3.237 0-1.459-.513-2.533-1.54-3.259-1.025-.712-2.363-1.075-4.023-1.075h-6.29Zm0 11.327v10.231h6.122c2.007 0 3.611-.407 4.838-1.221 1.227-.816 1.841-2.117 1.841-3.894 0-1.776-.614-3.077-1.84-3.893-1.228-.815-2.833-1.223-4.839-1.223zm27.05-3.915h6.645v6.745h3.323v3.372H70v6.745h-3.323v-6.745h-3.325v-3.372h-6.644v-6.745h-3.323V6.745h-3.323V0h3.323v6.745h3.323v3.372zM53.386 26.98h-3.323v-6.745h3.323zm3.323-6.745h-3.323v-3.372h3.323zm9.968-10.117h-3.325V6.745h3.323v3.372ZM70 6.745h-3.323V0H70Z"/></svg>
