<svg xmlns="http://www.w3.org/2000/svg" width="224.126" height="224.126" viewBox="0 0 59.3 59.3"><path d="M56.007 16.893c.158-.148.176.173.308.212a.685.685 0 000 .39c-.104.053-.233.066-.263.016a.135.135 0 00-.133-.13c-.167.11-.049.341.014.487.088.15.242.228.425.244.214.497.271 1.048.722 1.478.086.598.366 1.113.44 1.739-.123.21-.232-.058-.324-.083-.258-.316-.287-.791-.631-.974-.086.021-.155.048-.19.13l-.017.146c-.217-.228-.364-.585-.6-.81l-.193.048-.674-.845c-.06-.029-.133-.029-.162 0-.226.28.253.427.235.714.113.32.56.33.573.682.075.215.323.366.235.619-.2.157-.465.1-.662.046-.162-.093-.06-.402-.278-.39.021-.08-.008-.234-.088-.26-.13-.051-.347.135-.323-.096-.065-.093-.17-.126-.221-.065-.115.054-.077.212-.029.293.047.414.844.402.44.877a.723.723 0 01-.235.145c-.2-.206-.284-.592-.573-.633-.294-.097-.683-.072-.778-.438-.092-.048-.169.004-.207.081-.043.154.067.251.148.373.183.228.473.212.733.325-.025.134.092.434-.102.44-.224.222-.628.206-.866.389a.367.367 0 00-.368.032c-.018-.106-.113-.199-.147-.292-.212-.077-.29.17-.44.244-.11-.248-.364-.52-.147-.797-.084-.145-.036-.296-.162-.39-.15-.048-.263.017-.353.098a.299.299 0 00-.088.39c.178.15.251.37.354.602-.004.136-.24.186-.119.357.041.088.15.088.25.064l.03-.032c-.056.206-.32.46-.06.666.173.1.327-.22.485-.033.239-.028.343-.398.646-.324.251-.119.56-.341.824-.113.186-.092.366-.225.498.097.008.1.112.19.221.211.228-.062.232-.403.442-.52.385.12.635-.343 1.042-.18l.382-.129c.032.081.018.158.014.26-.102.004-.227-.143-.308-.016-.133.17.007.329.088.503.045.057.095.147.206.115.145.437-.62.538-.206.99.08.248-.29.21-.205.488.036.104.085.217.22.244l.089-.016c-.056.136-.174.282-.119.486.05.165.209.219.368.26.194.03.38-.098.442-.308-.034-.212-.244-.24-.323-.408.093-.26-.237-.394 0-.617.053-.238.13-.475.071-.714.045-.127.022-.353.221-.34.043-.18.224-.09.368-.18.314-.1.307-.576.544-.811-.006.167.148.142.19.308-.038.158.025.329.045.487l.323.488c-.074.373.204.637.308.974-.086-.022-.145-.11-.206-.049-.108.097-.15.288-.072.39-.099.029-.2.036-.22.145-.04.122.012.205.073.327.06.02.082.084.161.145-.053.117-.057.296-.161.34-.185-.035-.278-.292-.47-.193-.174.13-.15.377-.178.585-.161.1-.242.375-.425.373-.138.12-.056.4-.28.39-.056.396-.242.787-.558.976-.13.143-.174.4-.323.454-.251-.148-.637-.105-.838.096-.235.085-.28-.288-.499-.21-.07-.18-.283-.364-.104-.552a.24.24 0 00-.13-.212 1.518 1.518 0 00-.912.537c-.041.066-.092.184-.014.244a.487.487 0 01-.207.048c.049-.104.088-.294.045-.422-.088-.156-.213-.315-.337-.358-.02-.185.06-.383-.016-.535.143-.1.202.242.396.08.126-.164.147-.396.147-.6-.055-.076-.04-.185-.116-.212-.099-.018-.169.027-.19.113.068.165-.115.161-.148.278-.269-.165-.563-.075-.764.111-.077.052-.063.187-.03.244.048.2.238.19.412.212.142.194-.235.467.015.716.052.122.179.122.278.178-.106.351-.363-.1-.573-.017-.129-.07-.27-.057-.294-.227a.732.732 0 00-.572-.049c.048-.063.048-.18.059-.276-.066-.163-.26-.115-.34-.097-.087.023-.159.143-.218.08-.08-.175-.276-.146-.353-.096-.19.091-.306-.169-.456-.196-.253-.05-.216-.543-.53-.438-.086.054-.211.047-.218.178-.011.077.014.158.102.196.052-.01.217-.083.22.064.07.345.467.352.72.537.077.071.192-.006.294-.033.074.088.203.207.352.164-.022.12.104.172.176.242.23.064.493-.163.647.13l-.028.033c.077.153-.034.465.219.502.098.02.231-.005.323.131-.004.16-.047.33.059.488.088.063.122.148.161.275.074.145.323.145.221.375-.084-.093-.231-.181-.352-.115-.055.076-.136.04-.177.083.027-.092-.074-.173-.117-.212-.187-.014-.158.172-.206.292-.103.157-.411.27-.278.52.224.306.27-.319.513-.13.118-.04.195-.205.353-.194-.048.33.169.61.074.876-.174.23-.427.249-.648.308-.054.03-.088.076-.06.147-.12.144-.21.27-.248.438-.153-.066-.307-.082-.44-.113-.312-.226-.709-.355-.81-.78-.071-.153-.211-.218-.308-.291-.113-.016-.186.054-.19.161.077.185.287.266.337.505a2.14 2.14 0 001.367.859c.345.014.286-.452.573-.55.118.005.334-.069.41.08.07.057.193.075.31.048.062-.084.188-.107.234-.228.445.011.295-.57.603-.778-.034.13.147.217.264.325-.099.179-.275.326-.19.552.055.128.19.086.294.032.091-.206.316-.213.47-.308.106.163.355.224.294.502-.136.104-.35.072-.382.277l.074.179c-.2.183-.596.041-.544.454.014.104.208.075.131.228-.239.314-.76.314-.763.813-.129.154-.346.114-.486.211.049-.15.119-.373.088-.536-.06-.104-.176-.126-.219-.083-.111.095-.224.205-.161.36.014.031.01.056-.016.096-.04-.045-.198-.065-.19-.162-.096-.096-.21-.053-.28-.034-.1.209-.313-.034-.366.196-.203-.178-.305.265-.487.13-.337-.157-.51.232-.821.082-.187.292-.551.003-.72.324-.27.033-.267-.556-.5-.195-.013.106.037.217.073.308-.06.14-.075.318-.235.357-.187.038-.495-.12-.558.164-.075.125.041.219.014.373-.346-.02-.471.804-.762.292-.007-.129.048-.23.014-.324l-.059-.065c.104-.07.156-.174.205-.292.016-.309-.286-.515-.307-.78-.15-.166-.201-.525-.442-.455-.253.248.196.43.221.698-.029.22.398.452.088.617-.075.047-.169.058-.19.164-.036.084.01.202.116.258h.06c-.022.14-.025.382.147.488l.19.163c-.183.113-.197.345-.441.309-.354-.102-.546.344-.808.504-.597.345-1.114.912-1.365 1.575-.32.146-.156.478-.251.747-.164.1-.31.215-.383.405-.062.174-.005.382.162.472.106-.029.194-.07.309-.016-.13.142-.277.39-.162.617-.14.036-.31.076-.337.26.075.278-.248.23-.338.39-.035-.083.024-.232-.059-.293.208-.495.01-1.012 0-1.46-.057-.067-.104-.111-.161-.083-.047 0-.131.036-.119.113-.03.443.243 1.04-.116 1.446-.068.146-.15.309-.103.488-.184-.114-.222.165-.339.244-.29-.059-.595-.034-.836-.145-.222.057-.38.266-.588.307-.343-.022-.695-.16-.912.18-.33-.08-.628.164-.94.227-.084.111-.154.076-.22.162l-7.816-8.627-4.568.05c-.89.02-1.83-.003-2.704.081-.088-.084-.038-.287-.176-.325-.02-.15.158-.242.22-.373.044-.167-.04-.3-.118-.407-.147-.007-.154-.181-.22-.26-.158-.146-.47-.259-.382-.535-.025-.072-.085-.158-.147-.147-.173.002-.236.181-.411.097l.044-.486c-.35-.153-1.058.138-1.028-.438-.073-.187-.213-.203-.367-.18v-.13c-.291-.063-.39.579-.706.26-.102-.018-.168.087-.249.016l-.09-.081-6.683-.325c-.181.192-.34-.19-.53.016-.173-.059-.31.08-.455.13-.21-.08-.41.213-.587.016-.24.002-.45-.112-.631.082-.024.07-.112.119-.074.226-.045-.057-.129-.041-.177-.016-.085.237-.288-.005-.426.147-.147.151-.298.318-.484.325-.074-.084-.217-.068-.294-.016-.151.075-.228.18-.397.097-.169.027-.283.237-.353.373-.243-.06-.415.161-.632.066-.095-.028-.13.09-.204.113.003-.068-.008-.158-.074-.195-.266-.099-.42.278-.662.18-.077.114-.242.017-.294.163a74.45 74.45 0 00-1.85-.196c-.022-.072-.08-.158-.147-.147-.092-.01-.158.084-.207.147-.366-.174-.724.045-1.087-.065-.097.086-.267.067-.352.097v.033c-.179-.02-.362-.052-.529-.033v.033c-.328.091-.735-.056-1.073 0 .002-.092-.181-.218-.294-.113-.108.147-.188-.02-.307-.017-.19-.003-.39-.093-.56.017-.07-.085-.213-.069-.292-.017-.117.07-.201-.17-.34-.066.069-.25-.033-.574.148-.763-.068-.263.443-.274.176-.568-.01-.226.138-.291.045-.503.134-.08.082-.276.249-.31.036.04.156.124.235.05-.016-.287.18-.02.28-.163.142.23.416.027.601.048.057-.118.117-.233.178-.34.052-.17-.099-.279-.147-.406.082-.088.053-.25.235-.212.068.04.143.056.204-.016.047-.072.036-.185 0-.244.036-.009.061.023.104.016.024-.018.01-.05.015-.064.05.014.09-.03.073-.081v-.05c.104.007.03-.189.117-.178.06-.05-.006-.185.059-.196.086-.123.23-.14.309-.292.122.097.048-.122.175-.065v-.032c.04-.018.11.023.119-.032v-.032c.09.066.122-.067.19-.065v-.049c.152.087.264-.001.382.178a.537.537 0 00.515-.276c-.007-.262.1-.465.206-.666.39-.23.636.323.998.244.461.104.714-.436 1.044-.683.375-.257.772-.264 1.218-.243.119-.188.049-.412.25-.536.086.007.24.047.28-.016.308.03.448-.379.75-.424.33-.263.267-.748.558-1.022.215.016.446.116.646-.033.127-.188-.026-.48.132-.665.022-.18.131-.221.221-.277.043.17.215.165.337.228.187-.041.377-.181.573-.26.29.049.228.734.631.438.375-.531.903-.933 1.455-1.25.069 0 .131-.07.176-.114.338.158.7-.066 1.044.162.142.028.293.012.397-.113.065-.058-.09-.228.074-.212.02-.032.075-.068.059-.145.154.064.147-.192.292-.113.016-.1.113-.08.104-.196.002.014.03.014.043 0 .05-.212-.016-.448.19-.569.058-.405.65-.253.575-.7.1.026.027-.154.116-.129l.06-.454c.008-.009.016.004.028.015-.009-.187.194-.169.237-.309.07.038.111-.036.16-.048-.02-.1.079-.024.075-.113l.102-1.04c.065-.07.122-.08.103-.227h.104l.028-.845 35.554-.016c.205-.024.415-.113.632.016.211.05.233-.293.47-.212.086-.168.278-.088.47-.129.036.09.138.034.204-.016.022-.032.008-.13.088-.099-.007.067.036.15.119.163" fill="#1f2569" fill-rule="evenodd"/></svg>