<svg xmlns="http://www.w3.org/2000/svg" width="72" height="72"><path d="M72 47.375H0v-22.75h72v22.75" fill="#e51635"/><path d="M8.047 41.166V30.84h2.916l2.745 7.151h.028v-7.15h2.018v10.324h-2.847l-2.817-7.549h-.027v7.549H8.047M17.475 36.005c0-2.732 0-5.335 3.56-5.335 2.202 0 3.089 1.217 3.002 3.433H21.92c0-1.373-.24-1.887-.885-1.887-1.216 0-1.374 1.142-1.374 3.79 0 2.642.158 3.79 1.374 3.79 1.001 0 .957-1.287.987-2.105h2.13c0 2.76-1.1 3.648-3.117 3.648-3.56 0-3.56-2.633-3.56-5.334M31.503 41.339c-2.676 0-3.173-1.573-3.061-3.361h2.16c0 .987.041 1.817 1.229 1.817.73 0 1.086-.472 1.086-1.174 0-1.859-4.346-1.974-4.346-5.048 0-1.615.773-2.903 3.404-2.903 2.102 0 3.144.943 3 3.102h-2.101c0-.77-.127-1.556-1-1.556-.7 0-1.116.387-1.116 1.1 0 1.958 4.346 1.788 4.346 5.033 0 2.673-1.957 2.99-3.601 2.99M42.801 30.841v1.718h-2.404v8.607h-2.156v-8.607h-2.404V30.84H42.8M46.315 32.83h-.031l-.982 4.462h2.057zm-4.16 8.336l2.86-10.325h2.842l2.802 10.325h-2.274l-.567-2.286H44.87l-.586 2.286h-2.13M56.956 30.841v1.718h-2.404v8.607h-2.156v-8.607h-2.401V30.84h6.96M57.96 41.166V30.84h5.631v1.586H60.12v2.55h3.201v1.584H60.12v3.018h3.59v1.587H57.96" fill="#fff"/></svg>