<svg xmlns="http://www.w3.org/2000/svg" height="189.898" viewBox="0 0 189.898 189.9" width="189.898"><path d="M34.507 9.924v23.733h14.889v12.127H-.001v23.738h10.768v50.856H0v23.738h49.397v12.127h-14.89v23.733H87.94v-23.733H73.133v-12.127h38.393l18.454 35.86h21.297v-35.86h20.618l18.004-18.004V63.727l-18.004-17.943h-20.618V33.657h14.848V9.925H112.65v23.732h14.894v12.127H89.156L70.708 9.924H34.505zm0 59.598h14.889v50.856h-14.89zm38.626 0l26.18 50.856h-26.18zm28.237 0h26.174v50.856zm49.907 0h10.85l3.998 4.034v42.728l-4.059 4.095h-10.789V69.523z" fill="#0c2340"/></svg>