<svg xmlns="http://www.w3.org/2000/svg" version="1.1" id="Layer_1" x="0" y="0" width="46.509" height="46.509" xml:space="preserve"><style type="text/css" id="style12192"></style><path d="M43.5 13.11c-2.3-4.6-6.4-4.5-8.9-3.7-3.3 1-5.3 4-4.6 8 .3 1.7.7 4 .7 6.1 0 3.6-.6 6.4-1.8 8.3-1.2 1.9-3.1 2.9-5.6 2.9-2.5 0-4.4-1-5.6-2.9-1.2-1.9-1.8-4.7-1.8-8.3 0-3.7.6-6.2 1.8-8.1 1.1-1.8 2.7-2.8 4.8-3 4.3-.3 5.9-3.3 5.8-6.8 0-2.3-1.8-5.5-5.9-5.6-3.6-.1-6 .6-8.7 1.7-2.7 1.1-5 2.7-6.9 4.8-1.9 2.1-3.3 4.5-4.2 7.4-.9 2.9-1.4 6.1-1.4 9.6 0 3.4.5 6.6 1.4 9.4.9 2.8 2.3 5.3 4.2 7.3 1.9 2 4.2 3.6 6.9 4.7s5.9 1.6 9.5 1.6c3.7 0 6.9-.5 9.6-1.6 2.7-1.1 5-2.6 6.9-4.7 1.9-2 3.3-4.5 4.2-7.3.9-2.8 1.4-6 1.4-9.4.1-3.5-.6-8.1-1.8-10.4z" id="path12200" fill="#b3dc20"/></svg>