<svg xmlns="http://www.w3.org/2000/svg" width="84" height="68" fill="none"><g fill="#FECF48" clip-path="url(#clip0_1270_6759)"><path d="M4.27 9.377c1.693 2.14 3.534 4.356 5.448 6.645l-7.73 16.76 14.797-8.417c2.724 3.175 5.89 6.94 9.497 11.37l-3.828-14.471 9.203-4.8-11.412-4.208L17.08 0l-4.197 9.303L0 4.356l4.27 5.02ZM62.724 21.19a639.345 639.345 0 0 0-1.988 11.74l-24.441 7.014 22.085 7.9c-.81 5.685-1.914 12.404-3.239 20.156l11.706-17.055 13.251 5.168-5.89-15.727 9.866-14.25L70.6 30.125 64.05 12.182l-1.325 9.008Z"/></g><defs><clipPath id="clip0_1270_6759"><path fill="#fff" d="M0 0h84v68H0z"/></clipPath></defs></svg>