<svg viewBox="0 0 90 90" xmlns="http://www.w3.org/2000/svg"><g fill="none" fill-rule="evenodd"><path d="M29.815.18a2.763 2.763 0 0 0-.97-.177H1.975C.885.003 0 .887 0 1.978v28.025L29.815.18Z" fill="#00AE4D" fill-rule="nonzero"/><path d="M30 60.003h-.008.01H30"/><path d="M.577 89.423c.371.37.874.578 1.398.577h26.05c1.09 0 1.975-.884 1.975-1.975V60.003L.577 89.423Z" fill="#00AE4D" fill-rule="nonzero"/><path fill="#00682C" fill-rule="nonzero" d="M59.997 30.003v59.754l.18.074 29.82-29.828z"/><path d="M30 60.003h-.008H30"/><path d="M30 60.003V.246a2.067 2.067 0 0 0-.18-.077L0 30.003v58.016c0 .523.207 1.025.577 1.395L30 60.003Zm59.997 0V1.978c0-1.09-.884-1.975-1.975-1.975h-26.05c-1.09 0-1.973.882-1.975 1.972v28.028l30 30Zm0 0-29.82 29.82c.31.117.638.177.97.177h26.878c1.09 0 1.975-.884 1.975-1.975V60.003h-.003Z" fill="#8CCB32" fill-rule="nonzero"/><path fill="#D0D1D3" fill-rule="nonzero" d="M30.003 60.003H30h.003"/><path d="M30.81.812a2.746 2.746 0 0 0-.813-.552v59.743l29.19 29.188c.236.23.511.418.813.552v-59.74L30.81.813Z" fill="#00AE4D" fill-rule="nonzero"/></g></svg>