<svg xmlns="http://www.w3.org/2000/svg" xmlns:xlink="http://www.w3.org/1999/xlink" width="108.149" height="108.149"><defs><linearGradient gradientUnits="userSpaceOnUse" gradientTransform="translate(0 4)" y2="50.788" y1="92.084" x2="31.427" x1="-9.87" id="c"><stop stop-color="#ff7911" offset="0"/><stop stop-color="#fe7711" offset=".565"/><stop stop-color="#fb700f" offset=".769"/><stop stop-color="#f5650c" offset=".913"/><stop stop-color="#f05909" offset="1"/></linearGradient><linearGradient gradientUnits="userSpaceOnUse" gradientTransform="translate(0 4)" y2="52.273" y1="89.133" x2="30.214" x1="-13.714" id="d"><stop stop-opacity="0" stop-color="#ff8d15" offset=".5"/><stop stop-opacity=".34" stop-color="#fe8a14" offset=".67"/><stop stop-opacity=".543" stop-color="#fa8212" offset=".772"/><stop stop-opacity=".711" stop-color="#f3740f" offset=".855"/><stop stop-opacity=".858" stop-color="#ea600a" offset=".929"/><stop stop-opacity=".992" stop-color="#de4603" offset=".996"/><stop stop-color="#dd4403" offset="1"/></linearGradient><linearGradient gradientUnits="userSpaceOnUse" gradientTransform="translate(0 4)" y2="61.036" y1="87.97" x2="115.549" x1="78.969" id="e"><stop stop-color="#ff8f15" offset=".436"/><stop stop-opacity=".46" stop-color="#ff9916" offset=".741"/><stop stop-opacity="0" stop-color="#ffa618" offset="1"/></linearGradient><clipPath id="b"><use xlink:href="#a" overflow="visible" width="100%" height="100%"/></clipPath><path d="M3.088 41.122v62.335c0 4.884 5.603 7.645 9.476 4.669l37.246-28.62a5.886 5.886 0 017.168-.005l37.249 28.536c3.874 2.968 9.469.206 9.469-4.674v-62.24c0-1.832-.853-3.56-2.307-4.674L56.972 2.421a5.888 5.888 0 00-7.162 0L5.395 36.448a5.886 5.886 0 00-2.307 4.674z" id="a"/></defs><path d="M3.643 38.641a5.88 5.88 0 00-.555 2.48v66.281c0 3.272 3.753 5.121 6.348 3.128l43.956-33.777z" clip-path="url(#b)" fill="url(#c)" transform="translate(.683 -1.207)"/><path d="M3.643 38.641a5.88 5.88 0 00-.555 2.48v66.281c0 3.272 3.753 5.121 6.348 3.128l43.956-33.777z" clip-path="url(#b)" fill="url(#d)" transform="translate(.683 -1.207)"/><path d="M3.643 38.641l49.749 38.112 49.749-38.112a5.891 5.891 0 00-1.752-2.193L55.991 1.67a4.275 4.275 0 00-5.199 0l-31.91 24.446L5.394 36.448a5.87 5.87 0 00-1.751 2.193z" clip-path="url(#b)" fill="#ff8f15" transform="translate(.683 -1.207)"/><path d="M53.391 76.753l3.579 2.742.002.001 34.275 26.258 6.105 4.677c2.595 1.988 6.343.138 6.343-3.131V41.122c0-.87-.198-1.713-.555-2.481z" clip-path="url(#b)" fill="#ffa618" transform="translate(.683 -1.207)"/><path d="M53.391 76.753l3.579 2.742.002.001 34.275 26.258 6.105 4.677c2.595 1.988 6.343.138 6.343-3.131V41.122c0-.87-.198-1.713-.555-2.481z" clip-path="url(#b)" fill="url(#e)" transform="translate(.683 -1.207)"/></svg>