<svg xmlns="http://www.w3.org/2000/svg" width="330" height="330"><path d="M252.035 175.665c-31.05 35.65-87.92 61.77-140.24 61.77-45.48 0-75.1-19.74-79.5-48.3h70.7c12.12 0 24.76-5.74 28.24-12.83s-3.54-12.83-15.67-12.83h-81.03a80.94 80.94 0 014.95-12.04h105.64c12.12 0 24.76-5.75 28.24-12.83s-3.54-12.84-15.66-12.84h-99.88c31.62-33.9 86.56-58.18 137.2-58.18 43.6 0 72.6 18.15 78.82 44.83h55.6c-7.52-37.2-47.16-62.63-107.3-62.63-85.66 0-180.36 51.58-211.54 115.23-31.18 63.62 12.98 115.22 98.64 115.22 44.42 0 91.25-13.9 130.4-36.13z" fill="#51ae32"/></svg>