<svg xmlns="http://www.w3.org/2000/svg" viewBox="0 0 116 113.1"><path fill="#fc5e02" d="m74.4 2.5-7.9 19.8 7.7 15.9 8.4-20.5h18.3v70.1a10.2 10.2 0 0 1-10.2 10.1c-2.1 0-5.8-1.2-7.3-4.1L72.2 69.2l-.1.1L53.7 29l.1-.1L46 12.1A22.6 22.6 0 0 0 25.4 0 25.4 25.4 0 0 0 0 25.3l.3 85.2h38.4l9.9-21.4-7.7-15.9-10.4 22.1H15.2v-70a10.2 10.2 0 0 1 10.2-10.1c1.3 0 5.9.3 7.6 4.7l8.6 18.8 2.8 6.3 18.4 40.3 8.3 17.8c3.2 6.6 11.5 10 19.6 10a27 27 0 0 0 9.7-1.9c3.1-1.3 5.9-3.1 8.2-5.5a25 25 0 0 0 7.4-17.9V2.5Z"/></svg>