<svg xmlns="http://www.w3.org/2000/svg" viewBox="0 0 90 90"><path fill="#FF5003" d="M66.68 22c-8.2 0-15.8 4.36-20 11.47l-.3.53-.2.36c-1.5 2.75-4.2 8.58-5.3 10.48a85.59 85.59 0 0 1-5 8.03 18.5 18.5 0 0 1-5.9 4.98 13.92 13.92 0 0 1-18.94-5.76 14.18 14.18 0 0 1-1.66-6.61 14.22 14.22 0 0 1 14-14.12c2.31 0 4.57.6 6.57 1.76a19.82 19.82 0 0 1 5.6 5.2l1.86 2.8 5.21-8.83-.9-1.15a20.76 20.76 0 0 0-7.24-6.16 22.81 22.81 0 0 0-11.16-2.93A23.66 23.66 0 0 0 0 45.5 23.5 23.5 0 0 0 23.39 69a23.34 23.34 0 0 0 15.8-6.18 41.83 41.83 0 0 0 6.19-7.92c.44 1 .95 1.97 1.53 2.9a22.3 22.3 0 0 0 3.56 4.63v-.14a23.14 23.14 0 0 0 32.92-.43 23.62 23.62 0 0 0-.42-33.2A23.18 23.18 0 0 0 66.7 22h-.03zm.02 37.5a14.04 14.04 0 0 1-13.98-14.1c0-7.78 6.26-14.09 13.98-14.09 7.72 0 13.99 6.31 13.99 14.1S74.43 59.5 66.7 59.5z"/></svg>