<svg xmlns="http://www.w3.org/2000/svg" xmlns:xlink="http://www.w3.org/1999/xlink" width="1199.027" height="1199.027"><defs><linearGradient id="a"><stop offset="0" stop-color="#82161b"/><stop offset="1" stop-color="#bb1d24"/></linearGradient><linearGradient xlink:href="#a" id="b" x1="742.854" y1="670.79" x2="804.85" y2="653.757" gradientUnits="userSpaceOnUse" gradientTransform="matrix(.75 0 0 -.75 247.66 1349.27)"/><linearGradient xlink:href="#a" id="c" x1="418.47" y1="404.511" x2="328.866" y2="430.5" gradientUnits="userSpaceOnUse" gradientTransform="matrix(.75 0 0 -.75 247.66 1349.27)"/></defs><path d="M767.978 1349.27V881.24a944774.359 944774.359 0 01144.678-408.924c18.101 5.816-12.027-4.998 8.492-12.797 13.182-6.188 29.496-17.154 23.455 5.148v884.603H767.978zm168.346-873.552l1.21-4.122zm-14.272-2.615c-.322-.372-.323.28 0 0zm18.864-3.94c1.78-11.58 1.99-13.02 0 0zm-15.161-5.067c15.491-2.015 15.545-2.062 0 0zm14.152-1.475c2.426-9.32 2.994-10.855 0 0z" fill="url(#b)" transform="matrix(1.33333 0 0 -1.33333 -330.213 1799.027)"/><path d="M449.953 1349.26c-.058-299.748-.008-599.495-.025-899.243 58.64 7.4 117.554 12.64 176.622 14.947v453.08c-49.403 139.974-99.01 279.875-148.468 419.828-10.108 5.056-30.798 12.516-24.322 6.006-7.308 16.34 5.83-20.464-2.821 5.004-7.136-10.975 8.106-2.695-.986.378z" fill="url(#c)" transform="matrix(1.33333 0 0 -1.33333 -330.213 1799.027)"/><path d="M505.23 0H269.73l417.017 1179.08c117.19 2.96 242.554 19.947 242.554 19.947L505.23 0" fill="#ea2229"/></svg>