<svg xmlns="http://www.w3.org/2000/svg" width="44.944" height="44.944"><g fill-rule="evenodd"><path d="M10.53 28.792H6.324c-1.554 0-2.813-1.23-2.813-2.745V2.745C3.511 1.23 4.771 0 6.324 0h4.206c1.554 0 2.813 1.229 2.813 2.745v23.302c0 1.516-1.26 2.745-2.813 2.745" fill="#334776"/><path d="M24.575 44.944h-4.207c-1.553 0-2.812-1.241-2.812-2.772v-26.76c0-1.53 1.26-2.772 2.812-2.772h4.207c1.553 0 2.813 1.241 2.813 2.773v26.759c0 1.53-1.26 2.772-2.813 2.772" fill="#c62232"/><path d="M38.62 28.792h-4.207c-1.553 0-2.812-1.241-2.812-2.772V15.413c0-1.532 1.26-2.773 2.812-2.773h4.207c1.553 0 2.813 1.241 2.813 2.773V26.02c0 1.53-1.26 2.772-2.813 2.772" fill="#46ae9b"/></g></svg>