<svg xmlns="http://www.w3.org/2000/svg" viewBox="0 0 38 38"><circle cx="19" cy="19" r="19" fill="#11b6fc"/><path d="m24.517 20.714 3.173-6.236a.645.645 0 0 0-.551-.98H14.403l-.164-1.507h-3.235v.061a1 1 0 0 0 1 1h1.277l1.06 9.722a2.238 2.238 0 1 0 3.188.648h3.937a2.235 2.235 0 1 0 2.09-1.051v-.015h-8.19l-.132-1.217h8.579a.784.784 0 0 0 .704-.425zm-8.885 5.059a1.17 1.17 0 1 1 1.17-1.17 1.171 1.171 0 0 1-1.17 1.169zm8.9-1.17a1.17 1.17 0 1 1-1.17-1.17 1.171 1.171 0 0 1 1.171 1.17zm-9.413-4.525-.6-5.514h11.932l-2.806 5.514z" fill="#fff"/></svg>