<svg xmlns="http://www.w3.org/2000/svg" xmlns:xlink="http://www.w3.org/1999/xlink" width="45.334" height="45.334"><defs><path id="a" d="M0 .292h45.334V45.57H0z"/></defs><g fill-rule="evenodd"><g transform="translate(0 -.264)" fill="none"><mask id="b" fill="#fff"><use xlink:href="#a" width="100%" height="100%"/></mask><path fill="#c5181f" d="M45.334 22.932c0 12.502-10.149 22.638-22.667 22.638C10.147 45.57 0 35.434 0 22.932 0 10.428 10.148.292 22.667.292c12.518 0 22.667 10.136 22.667 22.64" mask="url(#b)"/></g><path fill="#fff" d="M37.793 15.85a.217.217 0 00-.161-.11 6.674 6.674 0 00-6.929 3.804l-5.265 11.278a1.743 1.743 0 11-3.16-1.471l5.265-11.278c1.56-3.341.108-7.326-3.237-8.884-3.345-1.558-7.335-.107-8.894 3.233L7.537 29.289a.216.216 0 00.167.304 6.673 6.673 0 006.929-3.803l5.265-11.278a1.743 1.743 0 113.16 1.472l-5.266 11.277c-1.56 3.34-.107 7.326 3.238 8.884 3.345 1.558 7.335.107 8.894-3.234L37.8 16.044a.215.215 0 00-.006-.194"/></g></svg>