<svg xmlns="http://www.w3.org/2000/svg" xmlns:xlink="http://www.w3.org/1999/xlink" width="316.007" height="316.007" viewBox="-2.591 -2.591 90.942 90.988"><defs><radialGradient id="b" gradientTransform="translate(40.442 -6.018) scale(76.93138)" cx="0" cy="0" r="1" fx="0" fy="0" spreadMethod="pad" xlink:href="#a"><stop offset="0" stop-color="#bbd643"/><stop offset="1" stop-color="#376e35"/></radialGradient><radialGradient id="c" gradientTransform="translate(76.246 32.068) scale(23.89515)" cx="0" cy="0" r="1" fx="0" fy="0" spreadMethod="pad" xlink:href="#a"><stop offset="0" stop-color="#fff"/><stop offset="1" stop-color="#aecf74"/></radialGradient><radialGradient id="d" gradientTransform="translate(39.566 42.612) scale(27.2391)" cx="0" cy="0" r="1" fx="0" fy="0" spreadMethod="pad" xlink:href="#a"><stop offset="0" stop-color="#fff"/><stop offset="1" stop-color="#aecf74"/></radialGradient><radialGradient id="e" gradientTransform="translate(32.612 32.274) scale(10.33829)" cx="0" cy="0" r="1" fx="0" fy="0" spreadMethod="pad" xlink:href="#a"><stop offset="0" stop-color="#bbd643"/><stop offset="1" stop-color="#376e35"/></radialGradient><radialGradient id="f" gradientTransform="matrix(49.8326 0 0 49.83257 30.434 15.037)" cx="0" cy="0" r="1" fx="0" fy="0" spreadMethod="pad" xlink:href="#a"><stop offset="0" stop-color="#fff"/><stop offset="1" stop-color="#aecf74"/></radialGradient><radialGradient id="g" gradientTransform="translate(56.595 55.018) scale(9.81258)" cx="0" cy="0" r="1" fx="0" fy="0" spreadMethod="pad" xlink:href="#a"><stop offset="0" stop-color="#bbd643"/><stop offset="1" stop-color="#376e35"/></radialGradient><radialGradient id="h" gradientTransform="translate(59.076 25.108) scale(9.16288)" cx="0" cy="0" r="1" fx="0" fy="0" spreadMethod="pad" xlink:href="#a"><stop offset="0" stop-color="#bbd643"/><stop offset="1" stop-color="#376e35"/></radialGradient><radialGradient id="i" gradientTransform="translate(45.076 21.819) scale(48.63886)" cx="0" cy="0" r="1" fx="0" fy="0" spreadMethod="pad" xlink:href="#a"><stop offset="0" stop-color="#fff"/><stop offset="1" stop-color="#aecf74"/></radialGradient><linearGradient id="a" gradientUnits="userSpaceOnUse"/></defs><path d="M12.89-.287c-8.527 0-15.504 6.976-15.504 15.501v70.878h75.482c8.527 0 15.505-6.976 15.505-15.504V-.287z" fill="url(#b)"/><path d="M47.2 33.778v.113c0 .82.06 1.66.17 2.362.016.123 2.533 0 4.88-.121l3.982-.16c-1.039-1.386-2.075-4.241.694-5.715 1.129-.598 1.641-.63 3.032-.591 3.273.093 6.802 1.4 10.724 3.886.42-.605 2.815-4.735 3.588-6.101-.673-.49-2.69-1.62-3.21-1.955-.175-.115-5.124-3.088-10.283-3.088-8.136 0-13.577 4.148-13.577 11.37m9.035 2.196s-.002 0-.003-.002.001.002.003.002" fill="url(#c)"/><path d="M18.053 25.307l2.752 7.425c4.996-4.995 10.706-1.724 11.678.416 1.723 3.793 3.605 21.186 15.183 27.39 5.617 3.009 11.852 3.504 17.315 1.753 6.206-1.993 1.977-8.7 1.977-8.7-2.357 4.285-7.743 4.918-13.3 2.245-11.713-5.634-11.185-22.767-15.943-28.197-3.047-3.475-6.73-5.128-10.62-5.128-2.958 0-6.035.957-9.042 2.796" fill="url(#d)"/><path d="M26.077 24.398c-7.877.848-6.966 4.523-6.966 4.523l1.694 4.15c.847-1.61 3.218-2.96 6.323-2.96 0 0 2.07-6.753 10.2-2.957 0 0-2.7-2.885-8.91-2.885-.732 0-1.51.04-2.34.129" fill="url(#e)"/><path d="M38.43 35.18l-.002-.007zm.774-.25l-.003-.008z" fill="#fdfbe1"/><path d="M25.953 22.57c-3.978.15-7.9 2.708-7.9 2.708-4.065 2.536-5.947 7.156-5.947 11.829V62.87h8.231l.001-25.617.004-.147c0-3.151.895-7.976 4.248-10.265 6.955-4.744 12.737.312 12.737.312-2.832-3.682-6.364-4.606-10.294-4.606-.357 0-.717.008-1.08.021" fill="url(#f)"/><path d="M66.958 53.59s-1.767 3.62-6.237 3.778c0 0-.003 3.636-6.961 5.475 0 0 14.016-.83 15.117-3.371s1.694-8.724 1.694-8.724z" fill="url(#g)"/><path d="M49.82 30.25c-.435 3.378 5.675 6.098 5.675 6.098l.395-1.072s-1.954-2.793.53-4.655c0 0-4.178-3.842 2.787-8.15 0 0-8.514.976-9.387 7.78" fill="url(#h)"/><path d="M47.425 36.557c1.236 4.639 6.022 7.59 12.625 9.571 6.58 1.975 6.822 4.626 6.822 6.841 0 0-.269 9.118-13.296 9.794 12.057 2.216 18.967-3.062 20.815-8.687 2.355-8.635-2.689-12.143-10.144-14.998-3.767-1.442-5.432-1.925-7.242-3.114-10.723-7.033-.308-13.027 2.32-13.493 0 0-14.424.542-11.9 14.086m6.133 26.207l.018-.001-.575-.11z" fill="url(#i)"/></svg>