<svg xmlns="http://www.w3.org/2000/svg" xmlns:xlink="http://www.w3.org/1999/xlink" viewBox="0 0 100 94.9"><defs><radialGradient id="c" cx="0" cy="0" r="1" fx="0" fy="0" gradientTransform="matrix(84.55206 0 0 -84.55206 44.7 101)" spreadMethod="pad" xlink:href="#a"><stop offset="0" stop-color="#bbd643"/><stop offset="1" stop-color="#376e35"/></radialGradient><radialGradient id="d" cx="0" cy="0" r="1" fr="0" fx="0" fy="0" gradientTransform="matrix(26.26216 0 0 -26.26216 84 59)" gradientUnits="userSpaceOnUse" spreadMethod="pad"><stop offset="0" stop-color="#fff"/><stop offset="1" stop-color="#aecf74"/></radialGradient><radialGradient id="e" cx="0" cy="0" r="1" fr="0" fx="0" fy="0" gradientTransform="matrix(29.93735 0 0 -29.93735 43.7 47.5)" gradientUnits="userSpaceOnUse" spreadMethod="pad"><stop offset="0" stop-color="#fff"/><stop offset="1" stop-color="#aecf74"/></radialGradient><radialGradient id="f" cx="0" cy="0" r="1" fx="0" fy="0" gradientTransform="matrix(11.36238 0 0 -11.36238 36.1 58.9)" spreadMethod="pad" xlink:href="#b"><stop offset="0" stop-color="#bbd643"/><stop offset="1" stop-color="#376e35"/></radialGradient><radialGradient id="g" cx="0" cy="0" r="1" fx="0" fy="0" gradientTransform="matrix(54.76892 0 0 -54.76889 33.7 77.8)" spreadMethod="pad" xlink:href="#b"><stop offset="0" stop-color="#fff"/><stop offset="1" stop-color="#aecf74"/></radialGradient><radialGradient id="h" cx="0" cy="0" r="1" fx="0" fy="0" gradientTransform="matrix(10.7846 0 0 -10.7846 62.5 33.9)" spreadMethod="pad" xlink:href="#b"><stop offset="0" stop-color="#bbd643"/><stop offset="1" stop-color="#376e35"/></radialGradient><radialGradient id="a" cx="0" cy="0" r="1" fr="0" fx="0" fy="0" gradientTransform="translate(59 25.1) scale(9.16288)" gradientUnits="userSpaceOnUse" spreadMethod="pad"><stop offset="0" stop-color="#bbd643"/><stop offset="1" stop-color="#376e35"/></radialGradient><radialGradient id="j" cx="0" cy="0" r="1" fx="0" fy="0" gradientTransform="matrix(53.45693 0 0 -53.45693 49.8 70.4)" spreadMethod="pad" xlink:href="#b"><stop offset="0" stop-color="#fff"/><stop offset="1" stop-color="#aecf74"/></radialGradient><radialGradient id="i" cx="0" cy="0" r="1" fr="0" fx="0" fy="0" gradientTransform="matrix(10.07054 0 0 -10.07054 65.2 66.7)" gradientUnits="userSpaceOnUse" spreadMethod="pad" xlink:href="#a"/><linearGradient id="b" gradientUnits="userSpaceOnUse"/></defs><path fill="url(#c)" d="M14.4 94.6a17 17 0 01-17-17V-.3h83a17 17 0 0117 17v78z" transform="matrix(1 0 0 -1 2.6 94.6)"/><path fill="url(#d)" d="M52.1 57.2v-.1l.2-2.6 5.4.1 4.4.2c-1.2 1.5-2.3 4.7.7 6.3 1.3.6 1.8.7 3.4.6 3.6 0 7.4-1.5 11.7-4.2.5.6 3.1 5.2 4 6.7l-3.5 2.1c-.2.1-5.7 3.4-11.3 3.4-9 0-15-4.6-15-12.5m10-2.4" transform="matrix(1 0 0 -1 2.6 94.6)"/><path fill="url(#e)" d="M20.1 66.5l3-8.1c5.5 5.4 11.8 1.9 12.9-.5 1.9-4.2 4-23.3 16.6-30.1 6.2-3.3 13-3.9 19-2 6.9 2.3 2.2 9.6 2.2 9.6-2.5-4.7-8.5-5.4-14.6-2.4C46.4 39.2 47 58 41.7 64A15.3 15.3 0 0130 69.6c-3.2 0-6.6-1-9.9-3" transform="matrix(1 0 0 -1 2.6 94.6)"/><path fill="url(#f)" d="M29 67.5c-8.7-1-7.7-5-7.7-5L23 58c1 1.8 3.6 3.2 7 3.2 0 0 2.2 7.5 11.2 3.3 0 0-3 3.2-9.8 3.2-.8 0-1.7 0-2.6-.2" transform="matrix(1 0 0 -1 2.6 94.6)"/><path fill="#fdfbe1" d="M45.1 39zm.9-.3z"/><path fill="url(#g)" d="M28.8 69.5c-4.4-.1-8.7-3-8.7-3a15 15 0 01-6.5-13V25.3h9v28.4c0 3.4 1 8.7 4.7 11.2 7.6 5.2 14-.3 14-.3-3.1 4-7 5-11.3 5h-1.2" transform="matrix(1 0 0 -1 2.6 94.6)"/><path fill="url(#h)" d="M73.8 35.4s-1.9-4-6.8-4.1c0 0 0-4-7.7-6 0 0 15.4.9 16.7 3.7 1.2 2.8 1.8 9.6 1.8 9.6z" transform="matrix(1 0 0 -1 2.6 94.6)"/><path fill="url(#i)" d="M55 61c-.5-3.6 6.3-6.6 6.3-6.6l.4 1.2s-2.2 3 .6 5c0 0-4.6 4.3 3 9 0 0-9.3-1-10.3-8.5" transform="matrix(1 0 0 -1 2.6 94.6)"/><path fill="url(#j)" d="M52.4 54.2c1.3-5.1 6.6-8.4 13.9-10.6 7.2-2.1 7.5-5 7.5-7.5 0 0-.3-10-14.7-10.7 13.3-2.5 20.9 3.3 23 9.5 2.5 9.5-3 13.3-11.2 16.5-4.2 1.6-6 2.1-8 3.4-11.8 7.7-.3 14.3 2.6 14.8 0 0-15.9-.6-13.1-15.4M59 25.4h-.6z" transform="matrix(1 0 0 -1 2.6 94.6)"/></svg>
