<svg xmlns="http://www.w3.org/2000/svg" width="240.1" height="240.1"><path d="M234.9 31.4A19.2 19.2 0 00208 30c-6.9 6-14.6 11.2-21.1 17.6-1.8 2.2-2.3 5.2-5.4 6.3l-23.1 16.3c-4-3.8-10-2.4-14.8-3.8-16-2.2-32-5.1-48-6.9-10.6.7-19.2 8-28.4 12.4a201.3 201.3 0 00-27.6 19.8c-2 12.6-2.3 25.4-2.6 38C27 139.3 16.4 148.5 7.7 159a41.8 41.8 0 00-1 11.3c-9.8 12-9.1 33.2 3.9 42.8 6.7 3.2 14.4 1 21.6 1.6h160c20.4-11.9 29.7-36.2 31-58.8 1.2-5-2.5-12.1 3.5-14.5 2.3-1.4 6.2-3.5 4-6.7-3.8-10.5-12.1-22-24.5-22.7-7.5-1.4-15.1-2-22.8-2.2-.2-2.6.7-7.6-3.2-7.6-6 1-6.2-4-7.2-8.4-1.7-10.4 9.1-11.2 15.4-16.1 4.2-1.8 7.7-5.7 12.5-4.9 7.2-1.3 13.5-5.5 20.4-8 6.8-2.6 14.6-5.6 17.4-13a18.9 18.9 0 00-3.8-20.3"/><path d="M53.3 195.2q.1-1.2.4-2.3a18.6 18.6 0 013.3-6.6 10.9 10.9 0 014.5-3.7 16.2 16.2 0 001.8-.4h.7a6.3 6.3 0 014.8 2.2 9 9 0 011.3 2 15.7 15.7 0 011.8 8.8l-.1 1a20 20 0 01-1.7 6.3A15.7 15.7 0 0169 205l-.6.8-.3.4a2.5 2.5 0 01-.4.5q-3 3.7-6.6 3.7a6.7 6.7 0 01-5.8-3.5l-.1-.2-.3-.5a15.1 15.1 0 01-1.8-6.8v-1.1l.1-2 .2-1m-13.8-7.3l1.4-.3h.7a5.2 5.2 0 013.9 1.7 8.3 8.3 0 011.1 1.6 13.1 13.1 0 011.6 7.3 8 8 0 010 .8 15.6 15.6 0 01-1.3 5.1 11.2 11.2 0 01-1 2 6.3 6.3 0 01-.4.6l-.3.4-.3.4a7 7 0 01-5.3 3 5.7 5.7 0 01-4.9-2.9.4.4 0 000-.1l-.2-.4a12.5 12.5 0 01-1.6-5.7v-.9-1.5l.1-.8a15 15 0 012.9-7.3 8.6 8.6 0 013.7-3M233.9 36.3a14.6 14.6 0 012.3 8.6 14 14 0 01-4.7 10.4 14.7 14.7 0 01-5.3 3.2h-.1a15.1 15.1 0 01-5.5.7 14.8 14.8 0 01-7.6-2.4 1 1 0 00-.2 0l-.4-.4a1.6 1.6 0 00-.4-.2 18.8 18.8 0 01-2-2A18 18 0 01208 52a14.8 14.8 0 01-1.8-4.1 18 18 0 01-.4-3.2v-1.9a10.8 10.8 0 00-1.4 5.8L187.8 60a14.2 14.2 0 01-.2-2.2v-2.2a9.6 9.6 0 01.3-1.7v-.1h.1v-.1a14.9 14.9 0 01.6-1.6 13.5 13.5 0 011.8-2.8 2 2 0 00.3-.2l4.2-3.5q6.7-5.8 14-11.6l3.4-2.6a15.8 15.8 0 019.2-2.3 15.1 15.1 0 0110.6 5c.7.6 1.3 1.4 1.8 2.2" fill="#fff"/><path d="M234.4 43.2c.1-1.4-.5-5-2.4-2.9-5.8 3.2-11.7 7.2-17.4 9.8-1.2-1.5-3-3.9-.3-5 4.2-3.6 8.1-8 12.6-11.2 1.1-.2 4.2 1.7 2.1 0-6.7-5.6-18-1-19.1 7.7-1.8 8.6 7.4 16.7 15.7 14 3.3-1 6.4-3.4 7.6-6.7-5 1.2-9.9 3.4-14.8 4-4-1.1 1.5-2.2 3-3.2l13-6.2zM41.2 190.6c-5 0-6.8 6.3-6.5 10.4 5.2 0-.3 2 1 2.4 2.5-.8 2.3 2.8 4.5 3.2-.7.4-3-.1-2.6 0 4.1 2.2 7.3-3 7.8-6.4.6-3.4 0-8.8-4.2-9.6zm14.2 4.6c-3 3.5 6.7 4.8.6 5.4-1.4 1.5 3.5.2 3.5 3 .2 1.1 3.6 2.1 1.3 2.2-.9.3-3.5-.8-1.5.2 5 1.6 8.4-4.3 9.1-8.4 1-4.3 0-11.1-5.3-11.7-4.6.4-7 5.4-7.7 9.3"/><path d="M100.8 142.8c.1-5.5-1.2-12.2 6.1-9.6l26.5 1.7v9.7c-3.2 0-6.7-1-9.8-.4-.5 1.4-1.4 5 1.3 4.4 2.9 1 9.6-1.5 8.2 3.3-1.2 3 1 10.5-2.5 11.2-2.8.2-6-.9-8.6-.2-.4 1.4-2 5 1 4.4 2.7 1 10-1.6 7.3 3.5-1.5 3.2-1.1 9.8-4.6 10.7-3 .3-6.3-.9-9 0-.5 1-2.9 4.3-.3 4.2 2.7.3 6.6 0 8.7.7-2.2 4.1-4.3 9.3-7.5 12.3-3.5.2-7.3-.6-10.7.2-.4 1-4 3.2-1.9 4.2 2.5.3 7.5-.4 8.5.5-4 3.5-8.7 8-14.6 7.1H70.4c18.2-13.2 27-35.9 29.6-57.6.4-3.4.7-6.9.8-10.3m-53.3 32.5c2.5 1.8-3.6 2.4-4.7 3.7-4 1.6-1-4.7 2-4.7 1.7-1.8 1.5.1 2.7 1M5 185.4c3.2-3.1 2-.4 1.5 2.3-1.8 5.2 1.6 5.8 4.2 7.3 1.8 3-7.8 1.4-1 3.2 3.1-1 2.8 3.3 5 4.6 1.1 1 3.7 1.8.8 1.8-.9.5-4.3-.9-3.1-.1 4.7 3 10.2-1.1 12.1-5.6 3.7-7.2 3.8-17.7-2.7-23.4-3.2-.6 1.5-4 2.6-2 8 8.7 6.9 23.8-1.2 32.2-4.9 5.8-14.2 3-16.6-3.7A26 26 0 015 185.4m50-33.5c1.1-5.3 5-3.6 3.3 1.9 3.1.2 7.4-1 7 3.5 1 3-9.9-1.5-5 3.3 3 .4 6.8-1 7.5 2.9a15 15 0 007 6.6c-3.4 1.5-12-1.4-4.4 1.4 9.5 2 15.5-7.4 18-15.2 2.6-9 2.2-19.4-3.3-27.3 2.9-3.2 5.2-2.9 6.3 1.4a40.1 40.1 0 01-6.3 41c-6 8.2-19.6 7.6-24.6-1.5a33 33 0 01-5.4-18m-5.6 2.2a28 28 0 001.2 8.5c-6.4 2.2-14.3 13.9-19.6 9.6-.9-1.7-5.3-2.8-1.7-4L49.4 154m87.5-32.6c4.8 6.6-3 3.8-6.9 3.8l-30.1-2.6c-1.7-6.1-5.3-12.6-11.5-15-14.9 4.1-28.5 11.7-42 19 13.5-9.8 28-18.5 44-23 12 1.4 25-.1 36 5.3 4.8 3 8.2 7.5 10.5 12.5m55.3 26.8c-1.1-5.7 0-8.6 5.7-6.8l21 1.9c1.8 5.8-.5 8-6 6.5-1.8-.7-3.9-.2-3.1 2.1-1.3 3.6 3.6 1.9 5.3 2.5 6.1-1.5 3.5 5 3.3 8.7.7 5-2 5.8-6.3 4.8-1.5.4-4.9-1.5-5.1 1-.8 1.2-1.2 3.8 1 3.2 2.6 1 9.7-1.5 8 2.5-1.8 3-1.4 10.1-5.5 10-2.9.2-6.1-.7-8.8 0-.5 1.3-3 4-.4 4.1 2.4.7 8.6-.8 8.5 1.4-2 3.3-4.1 7.8-7 10-3.5.2-7.2-.6-10.5 0 .2 1.2-4 3-2 4.2l8.8.1c-3.4 2.8-6.7 7.3-11.6 6.3h-22.4c18.3-15.2 26.2-39.5 27-62.5m-11.3-34.7c10.6.7 21.6.6 31.7 4.1 6.8 3.3 10.9 10.1 14 16.7l-31-3a23 23 0 00-15-17.8h.3m-25.6-40.7c-3.3 1.7-6 6-10.2 4.4-9.5-1.2-19-3-28.7-3.7-2.1.4-4.5 2.2-2.7 4.6a57.2 57.2 0 011.9 16.7L101.7 93a84.3 84.3 0 00-6.3-27c1.4-4 7-.7 10.2-1l48.6 7.1 1 .7m13.5 45c9.4 2.4 18.1 10 17.5 20.4 1.5 6-5.3 2.4-8.7 2.8l-41.4-3.8c-1-4.7 4.7-6.3 6.7-9.8a30 30 0 00-5-12.6l30.9 3z" fill="#fff"/><path d="M182.5 137.4c0-1.4-1.9-2.5-3-1.5-1.2.8-1 2.6.2 3.2 1.2.8 2.8-.3 2.8-1.7zm-25.4-3.9c-1-1-3.1-.3-3.2 1.2-.2 1.6 1.8 2.8 3 1.7a1.9 1.9 0 00.2-2.9zm13.6 2.7a2 2 0 00-.9-1.6c-1.1-.8-3 .1-2.9 1.6-.1 1.6 2.2 2.6 3.3 1.3.4-.2.6-.8.5-1.3zm-29.8-2.7c-.1 1.6 2 2.5 3.1 1.5 1.2-.8.8-2.8-.5-3.3-1.2-.4-2.6.6-2.6 1.9z"/><path d="M134.7 110.4l-.4-.4a22.5 22.5 0 00-2.4-2l-2-1.5a34.2 34.2 0 00-3.8-2.2.8.8 0 00-.2 0 46.1 46.1 0 00-10.6-2.8l-3.2-.4-5.5-.6a.1.1 0 01-.1 0l-2.8-.2-3.1-.2v-3.3l78.4 9.5.1 3.1h-4.7a3.4 3.4 0 00-2.9 1.4L169 114l-34.3-3.5m9.5-30l-4.8 3.4q-1 1.3-4.6 13.3l-13.5-1.6.4-.7a17.3 17.3 0 001.8-9.1 15.4 15.4 0 00-3.3-8.3 1.4 1.4 0 01.4-.1l23.6 3.2m23.6 7.8l.2.6a41.8 41.8 0 011.8 5.4l.4 2 .3 1.1.4 3 .1 1.3-8.3-1 .2-.8.3-.9a12 12 0 00.3-1.6.5.5 0 000-.2 20.4 20.4 0 00.2-2.8 23.6 23.6 0 00-.4-3.7l4.5-2.4m-8 4.2a17.1 17.1 0 01.2 2.1 13.1 13.1 0 01-.2 2.5l-.3 1.5-.2.8a.3.3 0 000 .1l-.1.3a1.9 1.9 0 01-.2.3.1.1 0 010 .1l-9.9-1.3v-.3a3.6 3.6 0 00.2-.5l10.6-5.6m25.6-36.6a18 18 0 000 2c0 1 .1 2 .4 3a14 14 0 001.3 3.2L141.6 92l-.1-.3a6.9 6.9 0 01-.4-1.7v-1l.1-.5a5.3 5.3 0 011.2-2.5 6.3 6.3 0 011.2-1l41.9-29" fill="#fff"/><path d="M107.3 88.6c-1 .5-1.1 2.1-.4 3 .6.6 1.7.7 2.3.1 1-.8.7-2.8-.5-3.3a1.6 1.6 0 00-1.4.2zM108 78c-.5-.6-1.7-.7-2.3 0a2 2 0 000 2.8 1.7 1.7 0 001.7.4 2 2 0 001.1-1.2 2 2 0 00-.5-2zm-2.7-9.7a1.5 1.5 0 00-2-.4 2 2 0 00-.8 2.5c.3.5.8 1 1.5 1.1a1.7 1.7 0 001.7-1V69a1.7 1.7 0 00-.4-.7zM85 40.6a6.6 6.6 0 00.8 0l1.2-.2c.4 0 .8-.2 1.2-.4l.3-.3.5-.8a1.6 1.6 0 00.2-.3.4.4 0 000-.1.5.5 0 00.2 0 3.2 3.2 0 011.2.1v.2l.2.5a3 3 0 01.1.4l.1.4.1.3v.1l1 .2a1.2 1.2 0 00.1.1.9.9 0 01.2.1l.2.3-.1.9c0 .3-.2.5-.3.8l-.6 1.6a.7.7 0 01-.3.4 3.3 3.3 0 01-.8.5 5.5 5.5 0 01-1.3.2h-1.7l-1-.2-1-.5a3.1 3.1 0 01-.8-.7 8.7 8.7 0 01-.4-1.1l-.3-1a.6.6 0 010-.3v-.2a2.5 2.5 0 010-.3l.1-.4.8-.3zm9.4-6.7a3.3 3.3 0 01.3.6 8.6 8.6 0 01-.4 3.9 1.4 1.4 0 01-.4.6 4.4 4.4 0 01-1.7 0v-.2l-.3-1-.3-.5a.8.8 0 00-.7-.6l-2-.2a1 1 0 00-.9.5l-.5.7a.3.3 0 010 .1l-.4.4a2 2 0 01-1.3.4 13.4 13.4 0 01-4.4-.4c-.3 0-.5-.8-.6-2.2a18.2 18.2 0 010-2.9l.6-.3a.9.9 0 00.2 0 33.8 33.8 0 0112.8 1.1m2.5 18.3a36.4 36.4 0 00.2 4.8l.7 3.5v.2l.2.2a.3.3 0 010 .2 10.9 10.9 0 01-3 1.6l-8.7 4a23.9 23.9 0 01-6.6 2.2 6.3 6.3 0 01-3.2-.1 5 5 0 01-.5-.2 168.4 168.4 0 00-4.1-6.9l3.2 2a31.5 31.5 0 000-5.3l-.6-3.6a23.6 23.6 0 00-1.3-5l4-.5.3.4a13.7 13.7 0 001.4 1.5l1.3 1c1 .7 2 1.3 3.1 1.7a12.2 12.2 0 005 1 7.1 7.1 0 004.6-1.7l1-2a13 13 0 013 1"/><path d="M96.6 38.2c-1.6-1.4.5-3.9-.8-5.2-2-.7-2-3.2-3.8-4.3-4.5-4.2-12.7-3.2-15.9 2.2-.9 1.9-.8 3.7-3 4.6a15.7 15.7 0 000 7c.5 1 3.5 1.7 2 2.7-2.8 1-5.8 1.3-8.5 2.7-1.4 3.7-3 7.4-3.6 11.3-.3 3.3-1.6 6.7-.5 10 .9 2.5 2.4 5.1 4.9 6.3 4.4.8 8.9-.2 12.8-2.3 6.5-2.7 12.3-7 18.8-9.7 1.7-.9 3.8-1.6 5.2-2.3A42.9 42.9 0 0099.7 51c-2.3-1.5-4.6-3.2-7.1-4.1.3-.7.2-1.8 1.1-2 1-.4 2.4-.4 2.2-2 .4-1.5.6-3.2.7-4.8"/><path d="M97.1 57c-.4-1.5.2-3.6-.4-5-.8 0-2.3-1.3-2.9-.6l-.9 1.8c-2 1.8-5 1.9-7.6 1.3a14.2 14.2 0 01-8-5.1c-.3-.3-.9 0-1.3 0l-2.8.4c1.2 3 1.5 6.3 1.9 9.5 0 1.3.3 3.6-.2 4.3l-3-1.9 4.1 6.8c2.2 1 4.7.2 6.9-.4 2.8-1 5.4-2.5 8.1-3.7l5.8-2.5c.3-.3 1.8-.8 1-1.2.1-.4-.2-.8-.2-1.2l-.5-2.5zm-2.4-22.5c-.1-.7-.8-.7-1.4-1a33.8 33.8 0 00-11.7-.8c-.8.1-.8.8-.8 1.4 0 1.3 0 2.6.3 3.8.2.5.9.4 1.3.5 1.3.3 2.6.3 4 .2.4-.1.7-.4 1-.7.3-.4.6-.9 1-1.2.5-.4 1.2-.1 1.8-.1.4 0 1 0 1.3.5l.4 1 .3.8c.5.1 1.3.3 1.8 0 .4-.6.5-1.3.6-2a8.6 8.6 0 00.1-2.4zm-9 6c-.3.1-.6 0-1 .2-.3 0-.7.2-.7.6v.9l.6 1.7c0 .4.5.7.9 1 .4.2.9.5 1.4.6.4.1 1 .3 1.4.2a6 6 0 002.4-.4c.3-.2.7-.4.9-.7l.6-1.8a5.7 5.7 0 00.4-1.6c-.1-.4-.6-.5-.9-.5-.3-.1-.7-.1-.7-.6-.2-.3-.1-.8-.3-1.1 0-.5-.6-.5-1-.5-.4-.1-.6.2-.8.5l-.7 1c-.8.4-1.6.4-2.4.6z" fill="#fff"/></svg>