<svg xmlns="http://www.w3.org/2000/svg" viewBox="0 0 90 90"><defs><linearGradient id="A" x1="50%" x2="50%" y1="0%" y2="153.355%"><stop offset="0%" stop-color="#ff9d00"/><stop offset="100%" stop-color="#ff0b33"/></linearGradient></defs><g fill-rule="evenodd"><path fill="#fff" opacity="0" d="M0 0h90v90H0z"/><path fill="url(#A)" d="M31.809 8a9.09 9.09 0 0 1 9.088 9.088v62.125A3.79 3.79 0 0 1 37.111 83H28.78a3.79 3.79 0 0 1-3.787-3.787V27.537a3.79 3.79 0 0 0-3.787-3.787h-1.515a3.79 3.79 0 0 0-3.787 3.787v51.676A3.79 3.79 0 0 1 12.118 83H3.787A3.79 3.79 0 0 1 0 79.213V11.787A3.79 3.79 0 0 1 3.787 8h28.022zm49.102 0A9.09 9.09 0 0 1 90 17.088v15.632a3.03 3.03 0 0 1-3.029 3.029H76.367a3.03 3.03 0 0 1-3.029-3.029v-6.698c0-1.255-1.017-2.272-2.272-2.272h-3.787c-1.255 0-2.272 1.017-2.272 2.272v38.963c0 .837.678 1.515 1.515 1.515h6.059c.837 0 1.515-.678 1.515-1.515V57.5h-1.515a3.03 3.03 0 0 1-3.029-3.029v-9.691a3.03 3.03 0 0 1 3.029-3.029h14.39A3.03 3.03 0 0 1 90 44.779v29.132A9.09 9.09 0 0 1 80.912 83H58.191a9.09 9.09 0 0 1-9.088-9.088V17.088A9.09 9.09 0 0 1 58.191 8h22.721z"/></g></svg>