<svg xmlns="http://www.w3.org/2000/svg" viewBox="0 0 90 67"><g fill="none"><path fill="#00AEEF" d="M0 13.655A13.648 13.648 0 017.58 1.449a13.775 13.775 0 0114.36 1.277C26.236 5.74 43.27 19.218 43.27 19.218v26.628L19.542 26.793V65.57H0V13.655zm90 39.711a13.66 13.66 0 01-7.586 12.194 13.786 13.786 0 01-14.353-1.265c-4.298-3.013-21.332-16.492-21.332-16.492V21.12l23.729 19.053V1.396H90v51.97z"/><path fill="#44C8F5" d="M63.73 34.709l2.132-1.605V6.475l-19.133 14.59z"/><path fill="#0092C8" d="M46.729 21.065L63.73 34.709 46.729 47.693z"/><path fill="#44C8F5" d="M24.138 60.359L43.271 45.89 26.192 32.18l-2.054 1.55z"/><path fill="#0092C8" d="M26.192 32.18l17.079-12.918V45.89z"/></g></svg>