<svg xmlns="http://www.w3.org/2000/svg" width="173.054" height="173.054"><path d="M107.912 20.485c-23.76 0-44.002 10.912-55.36 27.601-.945 1.391-2.55 4.361-4.71 4.378-10.395.08-11.04-12.733-11.368-24.155-.05-1.68-1.496-3.062-3.176-3.062L3.196 25.08c-1.778 0-3.237 1.468-3.195 3.245C.664 56.242 5.8 75.2 39.623 82.74c1.854.412 3.146 2.091 3.146 3.99v62.677a3.164 3.164 0 003.18 3.162h29.237a3.182 3.182 0 003.182-3.183V84.65c0-14.383 10.203-30.709 29.544-30.709 18.42 0 29.542 16.326 29.542 30.71v64.735a3.182 3.182 0 003.182 3.183h29.236a3.181 3.181 0 003.182-3.183v-69.54c0-33.25-28.38-59.36-65.142-59.36" fill="#84cd27"/></svg>