<svg xmlns="http://www.w3.org/2000/svg" viewBox="0 0 512 512"><linearGradient id="a" gradientTransform="rotate(64)">&gt;<stop offset="0" stop-color="#00a9ff"/><stop offset="1" stop-color="#05f"/></linearGradient><path fill="url(#a)" d="M469.1 140v-.4l-.4-15.6a53.2 53.2 0 0 0-50.1-52.1c-57.7-3.2-102.3-22-140.4-59.2l-.4-.3a32.1 32.1 0 0 0-43.6 0l-.3.3C195.7 50 151 68.7 93.4 72a53.2 53.2 0 0 0-50 52.1l-.5 15.6v.9c-1.2 58.8-2.6 132 22 198.5a252.7 252.7 0 0 0 60.6 94.4c30.4 29.8 70.3 53.4 118.6 70.2a36.7 36.7 0 0 0 23.8 0c48.2-16.9 88.1-40.5 118.5-70.2a253 253 0 0 0 60.7-94.5c24.5-66.6 23.2-140 22-199z"/></svg>