<svg xmlns="http://www.w3.org/2000/svg" viewBox="0 0 74 74"><path fill="#228ae6" d="M37 18c-5.5 0-9-3.5-9-9s3.5-9 9-9a8.5 8.5 0 0 1 9 8.2V9a8.5 8.5 0 0 1-8.2 9l-.8.1zm20 8.4c-2.5 0-4.9-1-6.5-2.9-3.9-3.8-3.9-8.9 0-12.8a8.9 8.9 0 0 1 6.3-2.9c2.4.1 4.7 1.2 6.4 3a9.1 9.1 0 0 1 3 6.3c0 2.4-1 4.6-2.8 6.3a9.4 9.4 0 0 1-6.5 3zM65 46a8.5 8.5 0 0 1-9-8.2V37c0-5.5 3.5-9 9-9s9 3.5 9 9a8.5 8.5 0 0 1-8.3 9zm-8.3 20a9.1 9.1 0 0 1-6.3-15.5 8.6 8.6 0 0 1 6.4-2.9c2.4.1 4.8 1.1 6.4 3a8.9 8.9 0 0 1 3 6.2 9.1 9.1 0 0 1-3 6.4 10.1 10.1 0 0 1-6.5 2.8zM37 74a8.5 8.5 0 0 1-9-8.2v-.7a8.5 8.5 0 0 1 8.2-9h.8c5.5 0 9 3.5 9 9 0 5.4-3.5 9-9 9zm-19.8-7.9a9.8 9.8 0 0 1-6.4-2.9 8.7 8.7 0 0 1-.6-12.2l.5-.5a9.1 9.1 0 0 1 6.4-2.9c2.4 0 4.8 1 6.4 3 4 3.7 4 8.8 0 12.7a9.2 9.2 0 0 1-6.3 2.8zM9 46.1C3.5 46 0 42.4 0 37a8.5 8.5 0 0 1 8.2-9H9a8.5 8.5 0 0 1 9 8.1v.8c.1 5.5-3.5 9-9 9zm8.2-19.7a9.1 9.1 0 0 1-6.4-2.9c-3.7-3.8-3.7-8.8.1-12.7A9.1 9.1 0 0 1 17.2 8c2.4 0 4.6 1 6.3 2.7 1.8 1.7 2.8 4 3 6.5 0 2.4-1.2 4.7-3 6.3a8.3 8.3 0 0 1-6.4 3zm20 20.2c-5.6 0-9-3.6-9-9s3.4-9 9-9a8.7 8.7 0 0 1 9 8.4v.6a8.7 8.7 0 0 1-8.5 9z"/></svg>