<svg xmlns="http://www.w3.org/2000/svg" viewBox="0 0 90 90"><defs><linearGradient id="a" x1="100%" x2="0%" y1="0%" y2="100%"><stop offset="0%" stop-color="#0097FF"/><stop offset="100%" stop-color="#0638FF"/></linearGradient></defs><g fill="none" fill-rule="evenodd"><path fill="url(#a)" d="M0 0h90v90H0z"/><path fill="#FFF" fill-rule="nonzero" d="M41.56 31.18a17.08 17.08 0 00-13.26.33c-1.66.76-3.19 1.8-4.5 3.05L12.65 45.23a8.45 8.45 0 00-2.65 6.1c0 4.75 4.08 8.65 9.03 8.65h.33a6.52 6.52 0 01-4.44-6.1c0-1.77.76-3.47 2.1-4.69l9.32-8.91.99-.95.34-.33.38-.36a21.69 21.69 0 0117.13-5.47 16.39 16.39 0 00-3.62-1.99zm37.79 4.21c-1.87-4.39-7.18-6.53-11.77-4.76l-.12.05a9.04 9.04 0 00-2.87 1.85l-6.82 6.53-.99.94-.09.08a3.12 3.12 0 01-4.16-.08l-5.24-5c-3.91-.9-8-.64-11.77.76 2.64.03 5.17 1.06 7.07 2.88l9.05 8.65a4.43 4.43 0 006.03 0l11.17-10.68.35-.29a6.96 6.96 0 014.4-1.56A6.78 6.78 0 0180 39.1a8.44 8.44 0 00-.65-3.7zm-5.75.82c-.3 0-.6.02-.9.07a2.82 2.82 0 011.29 2.36c0 .77-.32 1.5-.89 2.04L62 51.3l-.07.07-.6.53a21.7 21.7 0 01-16.43 5.02 16.99 16.99 0 0015.88 1.94 16.2 16.2 0 005.4-3.42l10.83-10.36.35-.33.35-.35c.74-.89 1.15-2 1.16-3.15a5.18 5.18 0 00-5.27-5.04zM54.55 54.24a10.5 10.5 0 01-7.17-2.88l-9-8.61a4.44 4.44 0 00-6.08-.04l-2.65 2.54-1.12 1.07-2.6 2.49-1.08 1.03-1.78 1.7-1.59 1.53-.31.3a3.08 3.08 0 01-4.64-.44c-.07.31-.1.63-.1.95a5.19 5.19 0 005.27 5.04 5.37 5.37 0 003.65-1.41l.07-.06.1-.1 2.93-2.8L33.2 50a3.12 3.12 0 014.24.02l5.33 5.1c3.92.87 8.03.56 11.77-.87z"/></g></svg>