<svg xmlns="http://www.w3.org/2000/svg" fill="#14295e" viewBox="0 0 70 70"><circle cx="35" cy="35" r="35"/><path fill="#fff" d="m15.7 23-5.3 22.8h5.9l1.9-8.4h3.3l4.3 8.4h6.6l-5.2-9.7c1.9-.6 3.4-1.6 4.5-2.8a6.7 6.7 0 0 0 1.7-4.6c0-1.9-.8-3.4-2.3-4.3a13 13 0 0 0-6.5-1.4zm4.9 4h2.9c1.1 0 2 .2 2.6.6.6.4.9 1 .9 1.9a3 3 0 0 1-1.3 2.6c-.8.7-2 1-3.6 1h-2.9Zm35.2 10.3c-.7 3.2-2 5.4-3.8 6.9a12.4 12.4 0 0 1-7.7 2.1c-3 0-5.3-.5-6.8-1.6a5.7 5.7 0 0 1-2.3-4.9l.1-1.4.2-1.3L38.8 23h5.9l-3.3 14.1-.2.9-.1.8c0 1 .3 1.7.9 2.2.6.5 1.5.7 2.9.7 1.3 0 2.3-.4 3.1-1.1.8-.7 1.4-1.8 1.7-3.3l3.4-14.4H59z"/></svg>
