<svg xmlns="http://www.w3.org/2000/svg" width="98.999" height="100" viewBox="0 0 26.193 26.458" fill="#f4be49"><path d="M19.012 14.595v.717c0 .275-.222.5-.497.502s-.498-.226-.498-.502v-.688h-.782v.688c0 .276-.221.5-.497.502s-.498-.226-.497-.502v-.688h-.477a.592.592 0 0 1-.584-.6V7.673c0-.331.262-.6.584-.6h.477v-.567c0-.276.224-.502.497-.502s.497.226.497.502v.568h.782v-.568c0-.276.224-.502.498-.502s.497.226.497.502v.613c1.082.187 1.755.966 1.755 2.09 0 .716-.36 1.25-.779 1.534.562.34.888.95.888 1.684 0 1.215-.704 2.015-1.864 2.168m.506 4.096c-.085.134-2.089 3.278-6.421 3.278-4.346 0-6.35-3.16-6.432-3.295a1.04 1.04 0 0 1 .338-1.421 1.017 1.017 0 0 1 1.403.336c.068.108 1.533 2.314 4.69 2.314 3.225 0 4.683-2.302 4.698-2.326.304-.48.937-.621 1.413-.314s.615.947.31 1.428M5.315 12.428c0-.733.326-1.343.887-1.684-.419-.283-.778-.818-.778-1.534 0-1.124.673-1.903 1.754-2.09v-.613c0-.276.224-.502.498-.502s.497.226.497.502v.568h.782v-.568c0-.276.224-.502.498-.502s.497.226.497.502v.568h.476c.323 0 .584.268.584.599v6.352c0 .33-.261.599-.584.599H9.95v.688c0 .276-.221.5-.497.502s-.498-.226-.498-.502v-.688h-.782v.688c0 .275-.222.5-.497.502s-.499-.226-.498-.502v-.717c-1.16-.153-1.863-.953-1.863-2.168M13.096 0C5.874 0-.001 5.934-.001 13.229s5.875 13.23 13.097 13.23 13.096-5.935 13.096-13.23S20.317-.001 13.096-.001m6.307 9.251c0-.565-.367-.889-1.007-.889h-1.852v1.778h1.852c.64 0 1.007-.325 1.007-.89m-.907 2.177h-1.952v1.91h1.952c.626 0 1.016-.368 1.016-.96 0-.585-.39-.95-1.016-.95M7.793 10.138h1.852V8.361H7.793c-.64 0-1.006.324-1.006.889s.367.889 1.006.889m1.852 3.198v-1.91H7.694c-.627 0-1.016.364-1.016.95 0 .592.39.96 1.016.96z"/></svg>