<svg xmlns="http://www.w3.org/2000/svg" width="65.304" height="65.304"><defs><linearGradient x1="9.959" y1="43.313" x2="17.075" y2="16.268" id="a" gradientTransform="scale(.90662 1.103)" gradientUnits="userSpaceOnUse"><stop offset="0%"/><stop stop-color="#737373" offset="29%"/><stop stop-color="#656565" offset="78%"/><stop stop-color="#393939" offset="100%"/></linearGradient></defs><g fill-rule="evenodd"><path d="M1.302 20.5v33a5.5 5.5 0 005.5 5.5h6.5l3.6 5.7a1.3 1.3 0 001.1.6 1.3 1.3 0 001.2-.6l3.6-5.7h19l3.6 5.7a1.3 1.3 0 001.2.6c.5 0 .9-.2 1.1-.6l3.6-5.7h7.2a5.5 5.5 0 005.5-5.5v-33a5.5 5.5 0 00-5.5-5.4h-20.9L49.702 3l-3-3-14 14-14.2-14-3 3 12 12h-20.6a5.5 5.5 0 00-5.6 5.6z" fill="#231815"/><path d="M2.2 21.3c0-2.5 2.4-4 6-4h12.3c4.3 0 6.9 2.2 6.9 3.9 0 2.5-4.1 3.6-7.2 6-1.8 1-9.8 9.2-11 20-.2 2.3-7-.8-7-7v-19z" fill="url(#a)" transform="translate(1.302)"/></g></svg>