<svg xmlns="http://www.w3.org/2000/svg" xmlns:xlink="http://www.w3.org/1999/xlink" viewBox="0 0 132 131.88"><defs><linearGradient id="b" x1="83.744" x2="83.744" y1="19.816" y2="80.267" gradientTransform="scale(.75748 1.3202)" gradientUnits="userSpaceOnUse"><stop stop-color="#0EE3D1" offset="0"/><stop stop-color="#019B8E" offset="1"/></linearGradient><linearGradient id="d" x1="78.314" x2="78.314" y1="36.395" y2="135.92" gradientTransform="scale(1.0306 .97028)" gradientUnits="userSpaceOnUse"><stop stop-color="#01BFAF" offset="0"/><stop stop-color="#019B8E" offset="1"/></linearGradient><path id="a" d="M127.29 41.395c11.875 29.749.68 63.73-26.554 80.593-27.233 16.864-62.643 11.742-83.981-12.147l-2.022 2.022a10.363 10.363 0 0 1-13.73.779c.308-.243.601-.503.88-.779l28.54-28.5.628-.627a9.898 9.898 0 0 1 13.436 0l.546.556L57.97 96.227c.074.068.153.13.227.198a10.434 10.434 0 0 0 14.346-.303zM31.607 9.683c24.766-15.13 56.509-12.314 78.223 6.942l.9-.9a10.363 10.363 0 0 1 13.82-.708c-.356.277-.694.578-1.01.9L71.976 67.479a9.898 9.898 0 0 1-13.548 0L45.417 54.467c-.121-.131-.212-.283-.333-.404-4.07-4.014-10.61-4.014-14.68 0-.132.121-.213.273-.334.404L2.085 82.453c-7.224-28.11 4.757-57.639 29.522-72.77z"/></defs><g fill="none" fill-rule="evenodd"><mask id="c" fill="#fff"><use width="100%" height="100%" xlink:href="#a"/></mask><use width="100%" height="100%" fill="#01baab" fill-rule="nonzero" opacity=".197" xlink:href="#a"/><ellipse cx="-18.917" cy="65.58" rx="94.586" ry="94.166" fill="url(#b)" mask="url(#c)"/><circle cx="108.04" cy="113.92" r="78.611" fill="url(#d)" mask="url(#c)" opacity=".3"/><path d="M99.657 162.27c35.058 0 63.478-28.42 63.478-63.478s-28.42-63.478-63.478-63.478-91.25 56.465-91.25 91.522c0 35.058 56.192 35.434 91.25 35.434z" fill="#01bbac" mask="url(#c)" opacity=".5"/></g></svg>