<svg xmlns="http://www.w3.org/2000/svg" viewBox="0 0 260.2 202"><path fill="#d62f3a" d="M2 3.2a655.6 655.6 0 0 1 17.6 29.7c.8.9 2.4 3.3 3.5 5.5 3 5.3 20.8 35.3 23.7 39.8 1.3 2.1 2.4 4.3 2.4 5 0 .7-2 11.6-4.5 24.3A1594.5 1594.5 0 0 0 38 142l-1.4 7-2 10.3-2 10.5-2.5 12.7-2.5 12.5-.9 4.8-.5 2.2 96.2-.2 96.3-.3 1.6-8 3.4-16 6.6-32 6-29 1.5-7 1.4-6.5 11.4-55 5-24.4L260.2.9c0-.5-55.5-.9-130.1-.9H0Zm141.1 60.1c20 33 19.2 32.1 20.5 22.2.2-1.7 1.2-6.4 2-10.5.9-4.1 2.3-10.9 3-15 2.7-14.7 5-25.5 5.8-26.6 1-1.4 42.4-1.3 42.2.1l-12.9 66-9.5 48.7c-2.9 14.9-3.5 16.7-5.4 17-1.1.2-9.3.3-18.1.3l-16-.1-8.3-13.4a914 914 0 0 1-9.5-15.8c-3.8-6.9-19.2-32-19.5-31.7-.3.3-3.8 16.5-4.8 22-.8 5.2-5.4 28.8-6.5 33.7-.6 2.5-1.6 4.8-2.2 5-1.7.6-40.5.3-41.1-.3-.2-.2.7-6 2-12.9l2.9-15 7.9-40 9.6-49c3.4-17.6.9-15.7 21.6-15.6l17.7.1"/></svg>
