<svg xmlns="http://www.w3.org/2000/svg" version="1.0" viewBox="0 0 879 732"><path fill="#1062fe" d="M706 0c-57 6-106 40-151 73-35 20-75 31-115 39a338 338 0 0 0-256 8c-16-19-20-65-31-70-13 10-18 70-26 48-8-24-14-64-26-21-9 17-13 51-22 14-5-28-12-41-22-8-21 47-21 102-6 152-12 20-24 45-33 65a321 321 0 0 0 256 427c17 2 35 5 46 3 15 3 37-2 56-5 92-16 175-74 221-155 45 1 93-5 129-33 27-19 49-46 59-76-47 18-101 25-150 10 10-26-12-84 34-71 19-1 72 19 34-10-17-26-65-18-70-47-19-35-5-70 31-88 53-31 118-12 170 13 27 26 32-15 37-37 3-19 10-39 6-52 4-17-3-37-6-58C857 57 799 1 731 0h-25Z"/></svg>