<svg xmlns="http://www.w3.org/2000/svg" version="1.0" width="1172.455" height="975.515" viewBox="0 0 879.341 731.637"><path style="fill:#1062fe;fill-opacity:1;stroke:none;stroke-width:.1" d="M706.075.237c-57.275 5.672-105.653 39.292-150.7 72.6-35.423 20.042-75.535 31.156-115.512 39.025-44.349-13.98-90.81-24.889-137.988-21.225-40.653 1.133-81.298 13.58-117.9 28.8-15.513-18.323-19.931-64.479-30.55-69.175-13.256 9.437-18.478 69.39-26.25 47.575-8.074-23.984-14.088-63.649-26.2-21.2-9.27 17.817-12.583 51.45-22.2 14.5-4.316-27.732-11.372-41.03-21.3-8.3-21.764 47.295-21.048 102.608-6.763 151.775-12.194 20.725-23.6 45.043-32.337 64.925-26.535 76.004-25.245 162.18 6.4 236.3 42.612 100.876 140.617 177.637 249.588 191.125 16.816 2.17 34.167 4.599 45.312 3.375 15.061 2.312 37.083-2.824 56.8-5.2 91.61-15.883 174.167-74.194 220.9-154.9 44.369.519 92.783-4.846 128.95-33.588 26.336-18.327 48.73-45.24 58.875-75.85-47.455 18.651-101.044 25.262-150.6 9.813 9.905-26.068-12.026-83.349 34.217-70.115 19.593-1.781 72.26 18.806 33.858-10.86-16.598-25.721-64.891-17.375-69.9-46.4-18.784-35.1-5.171-70.258 31.1-88.6 53.14-30.197 118.124-11.161 169.637 13.287 27.156 26.322 32.184-15.298 37.463-36.787 2.66-19.483 10.07-38.73 6.425-52.513 3.647-16.708-3.093-36.887-6.625-57.687C856.664 56.684 799.401 1.324 731.369.452c-8.425-.213-16.87-.755-25.294-.215Z"/></svg>