<svg xmlns="http://www.w3.org/2000/svg" viewBox="0 0 117.82 117.82"><defs><clipPath id="a"><path fill="none" d="M42 42.59h97.59v97.38H42z"/></clipPath></defs><path fill="#8fbe00" d="M58.82 3.25a55.66 55.66 0 1 0 55.78 55.66A55.72 55.72 0 0 0 58.82 3.25"/><path fill="#fff" d="M22.08 85.28h14.74V31.49H22.08zm3-73.85c-2.18 1.24-4.39 2.09-4.39 5.17 0 10.33 17.45 10.33 17.45 0 0-7.24-7.93-8.09-13.06-5.17m49.54 19.08c-6.79 0-14.79 2.61-19.39 8.59l-1-7.39H40.45v83.14h14.79V78.98c4.24 5.87 13.57 7.61 19.87 7.61 19.15 0 30.18-12.39 30.18-28s-12.23-28-30.66-28m-1.09 43.25c-10.06 0-17-6.84-17-15.21s6.3-15.21 17-15.21 17 6.84 17 15.21-6.91 15.21-17 15.21"/><g clip-path="url(#a)" opacity=".1" transform="translate(-30.92 -30.83)"><path fill="#040404" d="M122.16 42.59 42 122.56l17.45 17.41 80.15-79.98z"/></g><g fill="#eaeaea"><path d="M105.95 26.44 88.51 9.03 8.35 89.01l17.45 17.4z"/><path d="M58.82 0a58.91 58.91 0 1 0 59 58.91A59 59 0 0 0 58.82 0m0 113.1a54.2 54.2 0 1 1 54.32-54.19 54.32 54.32 0 0 1-54.32 54.19"/></g></svg>