<svg xmlns="http://www.w3.org/2000/svg" viewBox="0 0 117.8 117.8"><circle cx="58.9" cy="58.9" r="58.5" fill="#8fbe00"/><path fill="#fff" d="M22 85.3h14.8V31.5H22.1zm3-73.9c-2.1 1.3-4.3 2.1-4.3 5.2 0 10.3 17.4 10.3 17.4 0 0-7.2-7.9-8-13-5.2m49.5 19.1c-6.8 0-14.8 2.6-19.4 8.6l-1-7.4H40.4V115h14.8V79c4.3 6 13.6 7.7 20 7.7 19 0 30-12.4 30-28s-12.1-28-30.6-28m-1 43.2c-10.1 0-17-6.8-17-15.2s6.2-15.2 17-15.2 17 6.9 17 15.2-7 15.2-17 15.2"/><path fill="#0404041A" d="m91.2 11.8-80.1 80L28.5 109l80.2-80Z"/><path fill="#eaeaea" d="M106 26.4 88.5 9 8.3 89l17.5 17.4Z"/><circle cx="58.9" cy="58.9" r="56.7" fill="none" stroke="#eaeaea" stroke-width="4.7"/></svg>
