<svg xmlns="http://www.w3.org/2000/svg" viewBox="0 0 68.69 26.59"><path d="M15.57 26.59h-1.4v-12a6.4 6.4 0 1 0-12.79 0v12H0v-12a7.8 7.8 0 1 1 15.6 0zm10.98 0c-4.94 0-8.67-4.25-8.67-9.89 0-5.64 3.73-9.89 8.67-9.89 4.94 0 8.66 4.25 8.66 9.89 0 5.64-3.72 9.89-8.65 9.89zm0-18.38c-4.2 0-7.27 3.57-7.27 8.49s3.06 8.49 7.27 8.49c4.21 0 7.26-3.57 7.26-8.49s-3.06-8.49-7.26-8.49z" style="fill:#939598"/><path d="M68.3 16.91h.4v-.21c0-5.82-3.41-9.89-8.3-9.89-4.9 0-8.66 4.25-8.66 9.89 0 5.64 3.74 9.89 8.67 9.89 4 0 7-2.69 7.95-6.83H66.9c-.91 3.3-3.32 5.43-6.5 5.43-4.13 0-7.15-3.47-7.24-8.28zm-7.9-8.7c3.74 0 6.43 3 6.84 7.3h-14c.43-4.29 3.31-7.3 7.16-7.3zm-21.46 8.4V0h-1.4v26.59h1.4v-8.14l3.6-3.07 8.47 11.21h1.75l-9.14-12.11 9.12-7.74h-2.18zM67.11 3.33H56.73l-1.57 1.33h11.95z" style="fill:#0071ce"/></svg>