<svg xmlns="http://www.w3.org/2000/svg" id="Layer_1" data-name="Layer 1" version="1.1" width="68.695" height="68.695"><defs id="defs1647"><style id="style1645">.cls-1{fill:#0071ce}.cls-2{fill:#939598}</style></defs><g id="g2246" transform="translate(-.015 19.052)"><path id="path1683" transform="translate(-9.98 -5.41)" d="M25.57 32h-1.4V20a6.4 6.4 0 1 0-12.79 0v12H10V20a7.8 7.8 0 1 1 15.59 0z" class="cls-2" style="fill:#939598"/><path id="path1685" transform="translate(-9.98 -5.41)" d="M36.55 32c-4.94 0-8.67-4.25-8.67-9.89 0-5.64 3.73-9.89 8.67-9.89 4.94 0 8.66 4.25 8.66 9.89 0 5.64-3.73 9.89-8.66 9.89zm0-18.38c-4.21 0-7.27 3.57-7.27 8.49s3.06 8.49 7.27 8.49c4.21 0 7.26-3.57 7.26-8.49s-3.06-8.49-7.26-8.49z" class="cls-2" style="fill:#939598"/><path id="path1687" transform="translate(-9.98 -5.41)" d="M78.29 22.32h.4v-.21c0-5.82-3.41-9.89-8.3-9.89-4.89 0-8.66 4.25-8.66 9.89 0 5.64 3.74 9.89 8.67 9.89 4 0 7-2.69 7.95-6.83h-1.46c-.91 3.3-3.32 5.43-6.49 5.43-4.14 0-7.16-3.47-7.25-8.28zm-7.89-8.7c3.73 0 6.42 3 6.83 7.3h-14c.44-4.29 3.32-7.3 7.17-7.3z" class="cls-1" style="fill:#0071ce"/><path id="polygon1689" class="cls-1" style="fill:#0071ce" d="M38.95 16.61V0h-1.4v26.59h1.4v-8.14l3.61-3.07 8.46 11.21h1.75l-9.14-12.11 9.12-7.74h-2.17z"/><path id="polygon1691" class="cls-1" style="fill:#0071ce" d="M67.13 3.33H56.75l-1.57 1.33h11.95z"/></g></svg>