<svg xmlns="http://www.w3.org/2000/svg" width="64.261" height="64.261" viewBox="0 0 17.002 17.002"><path d="M10.998 5.385a.593.593 0 00-.506.266c-.065.15-.141.3-.12.469v2.767c-.042.13-.163.225-.302.194-.194-.01-.291-.209-.429-.32C8.568 7.688 7.5 6.612 6.424 5.543a.643.643 0 00-.491-.159.633.633 0 00-.491.357c-.113.275-.049.583-.066.873.002 1.471-.005 2.944.003 4.415.022.127.04.257.139.35a.64.64 0 00.296.223c.127.04.253.04.38 0 .151-.05.271-.177.359-.309.108-.202.071-.447.078-.67V8.187c.055-.106.092-.252.237-.259.248-.002.4.239.568.39l3.224 3.226c.158.062.332.124.5.068a.642.642 0 00.457-.456c.021-.368.003-.744.01-1.115V5.868c-.075-.155-.132-.347-.316-.405-.105-.045-.193-.101-.313-.078z" fill="#006272"/><path d="M8.73 5.942c.224-.024.465-.04.627-.218.284-.186.454-.485.695-.718.2-.237.468-.404.773-.469.247-.082.522-.045.774 0 .398.073.7.404.816.782.171.492.08 1.022.104 1.533-.004 1.483.006 2.968-.005 4.45-.095.433-.332.865-.748 1.061a1.142 1.142 0 01-.573.159c-.314.03-.63-.06-.907-.205-.192-.088-.35-.236-.53-.345a13.523 13.523 0 00-.924-.739c-.266-.13-.579-.234-.868-.108-.23.088-.446.215-.585.424-.26.29-.493.617-.842.81-.328.168-.727.21-1.085.135-.354-.097-.679-.326-.814-.675-.193-.465-.112-.985-.13-1.476.002-1.54-.006-3.08.004-4.619.034-.38.254-.714.55-.948.334-.289.811-.336 1.228-.231.35.069.661.269.944.479.372.269.674.635 1.105.818.117.076.26.069.391.1zm2.51-1.692c-.297.005-.59.082-.861.196-.344.199-.6.506-.852.806-.196.208-.416.451-.723.46-.208.036-.397-.084-.575-.172-.51-.395-.98-.862-1.572-1.133-.329-.095-.67-.21-1.014-.119-.279.017-.524.173-.746.328-.195.147-.361.35-.46.572a1.51 1.51 0 00-.15.56c-.047.46-.008.928-.02 1.392.004 1.363-.01 2.727.007 4.09.011.352.117.706.343.98.235.331.65.512 1.048.542.369 0 .752-.037 1.064-.251.494-.266.712-.85 1.202-1.12a.69.69 0 01.649-.003c.413.16.683.53 1.05.764.269.256.612.418.958.542.38.078.788.119 1.15-.05.495-.187.85-.648.965-1.156.07-.365.016-.742.033-1.111-.005-1.523.009-3.047-.007-4.57-.017-.49-.211-1.007-.634-1.286-.234-.21-.561-.213-.855-.26z" fill="#467686"/><path d="M8.658 4.396c.624-.022 1.069-.503 1.551-.833.77-.417 1.765-.442 2.53-.002.6.35.892 1.037.978 1.7.07.498.014 1.007.032 1.51-.003 1.61.007 3.22-.005 4.828-.093.8-.578 1.583-1.34 1.898a3.102 3.102 0 01-1.55.245c-.606-.058-1.152-.358-1.621-.73-.343-.258-.772-.492-1.212-.36-.623.187-1.023.789-1.655.969-.664.22-1.432.194-2.052-.145-.638-.364-.993-1.084-1.047-1.798-.079-.8-.02-1.606-.038-2.408.008-1.225-.016-2.452.012-3.677.034-.526.165-1.064.527-1.465.364-.456.924-.737 1.495-.829a2.776 2.776 0 011.856.267c.454.23.806.643 1.304.786.079.013.157.028.235.044zm2.775-1.377c-.613.013-1.225.208-1.698.603-.366.27-.772.64-1.265.514-.668-.259-1.15-.882-1.875-1.018a3.297 3.297 0 00-1.73.038c-.502.146-.96.46-1.297.855-.427.552-.605 1.264-.557 1.954.004 1.878-.006 3.757.006 5.634.08.715.335 1.464.939 1.904.584.425 1.343.564 2.05.436.547-.072 1.03-.364 1.45-.71.32-.25.754-.514 1.166-.319.58.272 1.028.788 1.664.945.922.264 1.98.125 2.742-.477.346-.259.577-.644.762-1.024.194-.574.22-1.181.2-1.781-.006-1.65.013-3.3-.009-4.949-.019-.407-.062-.817-.253-1.184-.169-.52-.589-.936-1.079-1.166a2.703 2.703 0 00-1.216-.255z" fill="#6f8e9c"/><path d="M8.586 2.801c.947.032 1.638-.768 2.537-.938.595-.154 1.234-.104 1.819.067.822.282 1.557.86 1.92 1.663.328.611.38 1.328.36 2.01-.008 2.2.012 4.4-.01 6.599-.079.656-.284 1.31-.7 1.833-.505.648-1.274 1.063-2.086 1.174-.922.144-1.857-.122-2.658-.574-.483-.259-1.025-.494-1.583-.424-.581.086-1.068.45-1.6.68-1.069.555-2.453.45-3.426-.265-.547-.402-.994-.965-1.175-1.628-.324-.972-.164-2.012-.203-3.016.007-1.727-.013-3.456.01-5.182.106-.844.465-1.707 1.126-2.266 1.111-.89 2.741-.997 3.988-.332.534.257 1.062.625 1.68.6zm3.33-1.255c-.947-.044-1.794.45-2.601.879-.557.287-1.218.161-1.742-.14-.554-.258-1.087-.58-1.702-.676-.672-.124-1.381-.094-2.024.152A3.332 3.332 0 001.67 4.234c-.224.95-.096 1.938-.13 2.905.01 1.603-.021 3.208.015 4.81.049.93.41 1.844 1.059 2.519.322.32.7.595 1.134.746.757.335 1.645.331 2.426.088.768-.237 1.406-.825 2.23-.882.66.013 1.193.427 1.775.68 1.067.484 2.36.518 3.411-.026a3.289 3.289 0 001.695-2.103c.289-1.009.14-2.072.178-3.107-.01-1.604.02-3.208-.016-4.81-.057-1.093-.549-2.18-1.439-2.842-.598-.452-1.348-.659-2.092-.666z" fill="#98abb6"/><path d="M8.513 1.159c.857-.01 1.647-.347 2.435-.64a4.65 4.65 0 012.844-.122c1.079.276 2.06 1.007 2.517 2.037.65 1.31.408 2.81.457 4.219-.015 2.097.03 4.196-.025 6.292-.088 1.315-.77 2.622-1.948 3.273-1.128.655-2.527.72-3.754.317-.89-.323-1.793-.75-2.766-.667-1.129.05-2.095.753-3.21.869-1.269.202-2.634-.178-3.574-1.066-.432-.386-.739-.919-.938-1.457-.455-1.257-.28-2.605-.314-3.912C.25 8.22.207 6.138.26 4.058c.143-1.046.498-2.131 1.343-2.821C2.803.217 4.567-.035 6.032.51c.808.297 1.602.642 2.481.648zM12.543 0c-1.133-.038-2.14.549-3.206.829-.954.267-1.936-.02-2.818-.394C5.655.091 4.714-.1 3.786.052c-1.197.12-2.34.778-3 1.79-.51.714-.694 1.618-.753 2.48-.029 2.712-.01 5.426-.01 8.14.02 1.258.41 2.577 1.378 3.436.89.798 2.11 1.182 3.299 1.104 1.398-.008 2.592-1.029 4.005-.917 1.228.07 2.291.865 3.524.917 1.17.076 2.388-.246 3.283-1.026.846-.678 1.306-1.754 1.424-2.81.098-1.56.023-3.126.047-4.688-.024-1.545.051-3.093-.046-4.635-.124-1.26-.797-2.484-1.89-3.158C14.3.203 13.428.015 12.544 0z" fill="#c5ced4"/></svg>