<svg xmlns="http://www.w3.org/2000/svg" viewBox="0 0 319.5 311.4"><path fill="#0000a0" fill-rule="evenodd" d="M12 175.6a12 12 0 0 1-12-12v-16a12 12 0 0 1 12-12 12 12 0 0 1 12 12v16a12 12 0 0 1-12 12zm48 2.1a20 20 0 0 1-20-20v-60a20 20 0 0 1 40 0v60c-.1 11-9 20-20 20zm64.8 45.9a25 25 0 0 1-25-25V25a25 25 0 0 1 25-24.9 25 25 0 0 1 25 25v173.7a25 25 0 0 1-25 24.9zm69.9 87.8a25 25 0 0 1-25-25V112.7a25 25 0 0 1 25-25 25 25 0 0 1 25 25v173.7a25 25 0 0 1-25 25zm64.9-77.9a20 20 0 0 1-20-20v-59.9a20 20 0 0 1 40 0v59.9a20 20 0 0 1-20 20zm47.9-57.9a12 12 0 0 1-12-12v-16a12 12 0 0 1 12-12 12 12 0 0 1 12 12v16a12 12 0 0 1-12 12z"/></svg>