<svg xmlns="http://www.w3.org/2000/svg" width="18.059" height="18.116"><path d="M13.08.954c3.096 1.474 5.47 5.253 4.892 9.376-.694 4.947-5.262 8.395-10.198 7.696S-.596 12.754.087 7.806C.666 3.607 4.07.434 8.407 0 3.27 1.904 1.325 6.608 1.352 6.875c.014.135.074.55.194.885s.432.824.432.824 1.5-6.273 7.66-8.576c.153.017.285.024.36.034C4.474 2.383 2.795 9.4 2.795 9.507c0 .054.28.43.507.663.27.278.78.616.78.616S5.32 2.577 10.947.19c.113.024.184.034.32.07-5.527 2.744-5.92 11.133-5.93 11.322-.001.05.418.313.71.47.355.19.96.377.96.377S6.522 3.455 12.13.545c.115.04.32.118.32.118-5.394 3.54-3.923 12-3.876 12.2.008.037.5.135.8.185.398.065 1.026.08 1.026.08S7.88 4.936 13.08.954z" fill="#f08701"/></svg>