<svg xmlns="http://www.w3.org/2000/svg" viewBox="0 0 31 31"><path fill="#fbde2a" d="M31 15.5C31 24.047 24.047 31 15.5 31S0 24.047 0 15.5 6.953 0 15.5 0c2.363 0 4.603.53 6.608 1.48l-2.574 3.316a11.388 11.388 0 0 0-4.034-.733c-6.026 0-10.979 4.684-11.407 10.604l-.02.36c-.007.158-.01.315-.01.473 0 6.307 5.13 11.437 11.437 11.437s11.437-5.13 11.437-11.437c0-.843-.092-1.665-.265-2.456l2.987-3.848A15.41 15.41 0 0 1 31 15.5"/><path fill="#1e1f1d" d="M27.84 6.131 16.064 21.3l-7.477-6.684 2.707-3.029 4.231 3.783 9.428-12.145a15.61 15.61 0 0 1 2.887 2.907"/></svg>