<svg xmlns="http://www.w3.org/2000/svg" width="32.984" height="32.984"><g fill-rule="evenodd"><path fill="#f3b53b" d="M22.218 25.604a9.744 9.744 0 01-6.923 2.86 9.746 9.746 0 01-6.92-2.857A9.697 9.697 0 015.507 18.7a9.697 9.697 0 012.867-6.904 9.744 9.744 0 016.92-2.86 9.753 9.753 0 016.924 2.86 9.7 9.7 0 012.865 6.904 9.694 9.694 0 01-2.865 6.904zM15.295 4.418C7.402 4.419.978 10.826.978 18.7c0 7.875 6.424 14.283 14.317 14.284 7.893-.001 14.316-6.409 14.316-14.284 0-7.874-6.423-14.281-14.316-14.282zM30.89 3.332h1.117V2.22H30.89zm0-2.217h1.117V0H30.89zm-3.14 3.296h1.044V3.324H27.75z"/><path d="M25.683 6.499h1.05V5.46h-1.05zm3.11-1.039h1.169V4.412h-1.168zm-4.155 0h1.046v-.997h-1.046zm3.112 1.039h1.044V5.46H27.75zm2.037-4.28h1.104V1.115h-1.104zM27.75 3.324h2.037V2.219H27.75zM26.735 5.46h1.014V3.324h-1.014zm0 2.088h-1.052V6.499h-1.745v.756h-.934v.932h1.044v1.037h-1.044V8.187h-1.11v1.627h-1.05v1.04h-.696v1.043h-.765c-.86 1.276-3.015 5.251-3.668 6.872-2.347-3.26-4.17-4.553-5.605-5.021-.777-.232-1.71.609-.422 1.934 2.954 3.24 3.885 5.925 4.783 8.067.476 1.128 2.605 1.304 3.034.155.908-2.431 2.227-5.162 3.788-7.403v-1.163h.834v-1.046h.877v-1.215h1.048v-1.17h-1.06v-1.065h1.06v1.064h1.035l-.004-1.054h.833v-1.27h.933v-.876h.9V6.499h-1.015v1.049"/></g></svg>