<svg xmlns="http://www.w3.org/2000/svg" width="46.05" height="46.05"><path d="M11.295 21.134c3.428 0 6.423 5.51 6.929 14.083l.101.01c.474-1.726.682-3.551.633-5.368 0-6.25-2.95-11.776-6.915-11.776-3.726 0-4.05 3.089-3.162 4.447.356-.477 1.013-1.396 2.414-1.396zm3.799 15.578c.182-.797.3-1.412.3-2.493 0-3.897-2.348-10.31-6.848-10.31-3.423 0-3.903 3.271-2.804 4.315a2.437 2.437 0 012.38-1.707c3.622 0 6.326 5.72 6.885 10.195zm22.51-14.183c.357-.498.5-1.143.5-1.578 0-1.492-1.398-2.93-3.454-2.93-5.974 0-8.19 10.454-6.478 17.124h.079c.59-9.16 3.519-14.08 6.867-14.08 1.741 0 2.34 1.035 2.486 1.464zm.224 1.407c-5.645 0-7.715 9.488-6.577 12.784h.073c.661-4.807 3.263-10.18 6.78-10.18 1.888 0 2.406 1.176 2.477 1.697 1.207-1.28.486-4.3-2.753-4.3zM24.25 39.9c-3.378 0-6.891.81-9.77 2.617l.037.09c1.397-.215 4.805-.601 8.987-.601 4.615 0 6.276.6 7.047.6.52 0 .758-.292.758-.774 0-1.328-3.362-1.932-7.059-1.932zm0-3.541c-2.883 0-6.831.754-9.77 2.61l.037.095c1.17-.164 4.906-.658 9.13-.658 4.004 0 6.298.658 6.904.658.52 0 .758-.297.758-.772 0-1.338-3.362-1.933-7.059-1.933zm13.367-22.715c-.43.074-1.032.725-1.032 1.697 0 1.11.818 3.344 3.985 3.344 3.27 0 5.48-2.43 5.48-5.756 0-3.26-2.384-6.279-7.61-6.279-6.226 0-14.227 5.558-14.227 19.068.006 2.579.315 5.395.94 8.438h.111c0-16.602 6.224-24.43 12.95-24.43 2.884 0 4.456 1.828 4.456 3.734 0 1.75-1.04 3.003-2.696 3.003-2.039 0-2.667-1.76-2.357-2.82zM8.428 15.67c-.235.413-.943 1.05-2.216 1.05-1.569 0-2.858-1.29-2.858-3.133 0-1.647 1.45-3.335 4.017-3.335 6.366 0 13.832 9.152 13.924 20.81 0 .737-.047 2.034-.175 3.09l.105.02c.684-2 1.219-5.123 1.219-7.314 0-10.158-6.942-19.915-15.127-19.915-4.856 0-7.317 3.22-7.317 6.04 0 3.214 1.894 5.653 4.839 5.653 2.31 0 3.59-1.675 3.59-2.966zM7.562 3.443c-.632 0-.98.33-.98.8 0 .581.376.872 1.124 1.18 2.266.923 6.593 1.482 11.487 1.49 8.663 0 17.513-1.234 21.435-2.815l-.027-.1c-3.19.21-8.685.573-17.465.573-11.955 0-14.458-1.128-15.574-1.128zm6.892 4.535l-.011.094c1.02.375 5.776 2.466 7.87 10.297.12.464.352.645.67.645.502 0 .716-.37.716-1.053 0-3.662-1.986-6.902-3.748-8.31-1.756-1.425-4.098-1.77-5.497-1.673zm11.732 1.16c1.492-1.588 3.703-2.176 6.016-1.959l.006.091c-.757.211-2.592.881-4.41 2.807-1.51 1.608-2.559 3.549-3.082 5.264-.584-3.23.478-5.14 1.47-6.204z" fill="#0e497b" fill-rule="evenodd"/></svg>