<svg xmlns="http://www.w3.org/2000/svg" width="125.637" height="125.637" version="1.1" id="svg281"><defs id="defs221"><style id="style219">.b{fill:#f5b100}</style></defs><circle id="path16185" cx="62.818" cy="62.818" r="62.818" fill="#000" fill-rule="evenodd" stroke-width="4.112" stroke-linecap="round" stroke-linejoin="round"/><g id="g16191" transform="translate(1.718 1.718)"><path class="b" d="M61.1 122.2a61.1 61.1 0 1161.1-61.1 61.17 61.17 0 01-61.1 61.1zM61.1 8a53.08 53.08 0 1053.07 53.1A53.13 53.13 0 0061.1 8z" id="path269"/><path class="b" id="polygon271" d="M85.99 28.17H36.17v11.67l14.66-.03 17.94 11.87V40.02l17.22-.01z"/><path class="b" d="M49.37 43.26l-25.54.05v43.74L49.47 87V70.65l24.7 16.41h24.2V43.49H72.25v14.7L49.93 43.26z" id="path273"/><path class="b" id="polygon275" d="M52.92 96.45l16.21.08V88L52.95 77.14z"/></g></svg>