<svg xmlns="http://www.w3.org/2000/svg" width="68.664" height="68.664" viewBox="-199 394 68.664 68.664"><path fill="#003d50" d="M-152.163 428.078c-17.5 9-34.7 14.5-43 12.8-7.3-1.5-3.7-11.5 6.7-19.7h2.2c-8.2 6.9-8.8 15.5-3.6 16.2 5.9.7 21.1-2.5 36.6-9.7z"/><path fill="#003d50" d="M-133.963 415.678c.5 0 1 .1 1.4.2.3.1.4.1.7.3.1 0 .2.1.3.2.2.1.1.2.2.3.1.4-.1.7-.3 1-.6 1-1.6 1.7-2.5 2.4-1 .8-2 1.4-3 2.1-.2.1-.4.3-.6.4.2.1.3.1.5.2 0 0 .1.1.2.1.3-.1.5-.3.8-.4.3-.2.5-.2.8-.1.2.1.5.4.6.6.1.4.1.7-.1 1.1 1.3.6 2.5 1.2 3.7 1.8.3.2.6.3.9.5.1.2-.1.4-.3.5-.5.2-.9.6-1.4.6-.5-.1-1-.2-1.6-.4-.8-.2-1.6-.4-2.4-.5-.6-.1-1.3-.2-1.9-.4-.5-.1-.9-.2-1.4-.2-.6-.1-1.2-.1-1.9-.1-.8 0-1.5 0-2.3-.1-1.2.5-2.3 1.1-3.7 1.6-.9.3-1.7.6-2.6.9.3.4.7.5.9 1 0 .1-.1.1-.1.1-.2.1-.3.1-.5.2-.9-.2-1.7-.4-2.6-.7h-.2c-.4.1-1 .5-1.4 0 0-.1-.1-.2-.1-.4 0-.1-.1-.1-.2-.2-.2-.1-.3-.1-.4-.2-.3-.1-.5-.2-.8-.3-.6-.2-1.1-.3-1.6-.6-.1-.1-.2-.2 0-.4.3-.2.8-.4 1.2-.2.4 0 .9.1 1.2.1-.5-.5-.9-1-1.4-1.5-.1-.1-.2-.2-.2-.4 0-.1.1-.2.2-.3.1-.1.2-.1.3-.1.4-.2.5-.3.8-.2.9.4 1.6.7 2.6 1.1.2.1.4.2.6.2.3-.1.4-.2.6-.3.1 0 .4-.2.5-.3.3-.2.6-.4.8-.5.6-.4.9-.6 1.4-.9-.7-.3-1.5-.7-2.2-1-.8-.2-1-.3-1.7-.5-.5-.1-1.1-.3-1.1-.3-1-.2-1.2-.3-2.1-.5-.4-.2-.9-.2-1.4-.4v-.2c.1-.2.4-.4.6-.6.3-.2.5-.4.9-.5.7 0 1.2.1 2 .2.9.1 1.8.2 2.6.3 1.1.1 2.4.2 3.5.4.1 0 .2.1.3 0 .1.1.2 0 .3.1h.3c.5-.4 1.1-.9 1.8-1.1.4 0 .8.2 1 .5 1.3-.9 2.5-1.8 3.9-2.5 1.3-.7 2.5-1.2 3.5-1.5.7-.2 1.5-.3 2.2-.4-.4.2-.3.2-.1.2"/><path fill="#fff" d="M-133.263 416.478c-.6.1-1 .2-1.7.5-.6.2-1.5.6-2.3 1-1.1.5-2 1.1-3.2 1.8-.4.3-1.3 1-1.4 1.1-.7-.1-1.3-.1-2-.2l.1-.1c.9-.7 1.6-1.2 2.6-1.7.8-.5 2.1-1.2 3.1-1.6.9-.4 1.9-.7 2.9-.8.8-.2 1.4-.2 1.9 0M-146.163 420.878c.2-.1.3-.2.5-.3.2-.1.3-.2.4-.2-.1.3-.1.4 0 .7 0 .2.2.3.2.4-.4.3-.8.5-1.2.8-.1-.1-.2-.2-.2-.4-.1-.3 0-.5.1-.8zM-146.863 424.178c-.5.3-1 .6-1.5.8-1 .5-2.1 1.1-3.6 1.8-.4.2-.8.3-1.2.2-.3 0-.3 0-.6-.1l-1.6-1.6c-.1-.1-.2-.2-.2-.3l.3-.2h.1c.8.3 1.3.6 2.1 1 .3.1.6.3.9.4.3 0 .6-.1.9-.2l.2-.1c.4-.3.6-.4.8-.5.8-.5 1.5-.9 2.3-1.4l.2-.1c.3.1.5.2.9.3"/></svg>