<svg xmlns="http://www.w3.org/2000/svg" width="122.705" height="122.705"><path d="M85.033 0C66.817 8.99 44.372 16.945 36.018 35.305a53.886 53.886 0 00-1.39 3.373c-1.614-1.683-3.49-3.521-6.415-4.403-12.688-3.84-24.125 6.775-18.14 16.059 1.986 3.081 1.685 9.275-3.143 11.674l-.006.705c4.833 2.407 5.135 8.595 3.148 11.678-5.984 9.268 5.453 19.893 18.14 16.062 1.524-.463 2.761-1.19 3.83-2.014.985 4.494 2.292 8.692 3.911 12.391 4.596 3.75 17.547 18.633 23.11 21.875 14.882-1.435 48.036-21.452 54.693-32.902 2.26-14.945 2.208-23.036 1.82-32.116C114.295 27.335 90.676.205 85.033 0zM26.71 44.09c1.671-.033 3.665.374 5.83 1.289-2.757 10.774-3.288 23.222-1.894 34.66-5.818 1.738-9.877-.506-8.89-4.504 1.027-4.156.932-7.108-.66-9.426-1.314-1.916-2.28-3.192-5.41-3.744 3.13-.573 4.096-1.836 5.41-3.754 1.592-2.312 1.687-5.266.66-9.422-.743-3.01 1.376-5.028 4.954-5.1z" fill="#231f20"/><path d="M85.83 8.565c6.253 3.13 22.808 26.317 23.506 49.688.263 8.63.224 16.85-1.487 29.53-5.51 6.735-25.735 20.584-42.183 25.162-2.09-5.927-2.88-15.172-3.492-27.45-2.052-40.78 17.12-72.422 23.657-76.93" fill="#fff"/><path d="M85.542 44.365l5.544-2.707-.151 14.05 9.646-9.588 1.934 6.237-9.976 8.653 6.648 7.732-4.406 6.651-6.01-8.847-5.513 14.462-4.602-2.253 6.266-14.026-10.128 1.14 1.625-7.984 9.844.092-.721-13.612" fill="#231f20"/><path d="M71.362 11.814c-3.586 5.519-14.805 10.636-22.216 18.56-7.38 7.907-8.886 15.738-11.904 20.77 1-6.011 2.984-12.008 5.122-15.772C49.97 22 64.133 16.664 71.362 11.814" fill="#fff"/></svg>