<svg height="300" viewBox="0 0 300 300" width="300" xmlns="http://www.w3.org/2000/svg"><path d="m138.423402 137.98155h-22.77389c-2.6905 0-3.586198-.136172-4.968911-.551497-3.722425-1.102993-6.620673-4.827298-6.620673-9.242675 0-4.415378 2.898248-8.139683 6.620673-9.242676 1.382713-.415324 2.278411-.551496 4.968911-.551496h14.770504v-14.764451c0-2.689397.136228-3.584728.551723-4.96347 1.103445-3.7957949 4.829277-6.6213642 9.246465-6.6213642 4.417187 0 8.143019 2.8936553 9.246464 6.6213642.415495 1.378742.551723 2.274073.551723 4.96347v22.764556c0 1.378742 0 2.757484-.275861 4.000053-.75947 3.448557-3.865465 6.553278-7.315435 7.312437-1.239674.275749-2.622386.275749-4.001693.275749zm73.14754 83.602808h-122.141884v-107.53504c0-1.38555.4836088-2.553225 1.4508265-3.520046l31.6729735-31.6599936c.967218-.9668213 2.138777-1.450232 3.518084-1.450232h85.5zm-140.6348137-125.6118746c-3.2456284 3.2442982-5.3844055 7.3158416-5.7999005 11.8673906-.0681139.755755-.1362278 1.858748-.1362278 2.965146v121.608417c0 1.586404.0681139 2.413649.1362278 3.036636.5551285 5.171132 5.244772 9.862258 10.4248357 10.413755.6198367.07149 1.4474209.136172 3.0344752.136172h143.8089223c1.59046 0 2.414639-.064682 3.037881-.136172 5.173253-.551497 9.866302-5.242623 10.418024-10.413755.068114-.622987.139634-1.450232.139634-3.036636v-165.82347c0-1.5864039-.07152-2.4170532-.139634-3.0332316-.551722-5.1779408-5.244771-9.8656624-10.418024-10.4171591-.623242-.068086-1.447421-.1395763-3.037881-.1395763h-99.575742c-1.103445 0-2.210296.0714903-2.966361.1395763-4.556821.4119204-8.626628 2.549821-11.872256 5.7907149z" fill="#41c9b4" fill-rule="evenodd"/></svg>