<svg version="1.0" xmlns="http://www.w3.org/2000/svg" width="77.3" height="81.3" viewBox="0 0 58 61"><path d="m20 3-5 3h-1l-3 2c-1 1-1 1 0 0v1l-1 1-1-1-5 6c-3 4-4 6-3 7 0 1 2 0 5-3C15 9 22 6 33 6c7 0 12 2 16 6 2 3 3 4 3 13-1 10-1 13-7 20l-1 3-2 2c-1 1-1 1 0 0l1-2-8 4c-14 7-24 2-24-10 0-4 3-10 6-13 2-1 10-3 11-2 3 2 4 11 2 13v2l-3 1-4 1-1-3c0-4-3-5-5-2-1 2 0 5 3 8s8 3 12-1c2-3 3-4 3-8 0-6-3-13-7-15-3-1-9-1-13 1S6 34 6 38c0 10 4 17 12 21s19 1 28-7c8-7 10-12 11-21 1-14-3-21-14-27-7-3-16-4-23-1zm18 50-2 1v-1h2z"/></svg>
