<svg xmlns="http://www.w3.org/2000/svg" width="102.256" height="102.256" viewBox="0 0 27.055 27.055"><defs><clipPath clipPathUnits="userSpaceOnUse" id="a"><path d="M30 27.328h76.692V59.8H30z"/></clipPath></defs><g clip-path="url(#a)" transform="matrix(.35278 0 0 -.35278 -10.583 28.896)"><path d="M36.108 51.198c.315-3.152.45-5.584.45-11.034V28.229h-6.575v31.57h8.242l6.44-12.43c1.576-3.017 3.288-6.53 4.458-9.682h.18c-.36 4.414-.36 8.782-.36 12.115V59.8h6.53V28.229h-8.061l-6.936 13.33c-1.576 3.063-2.882 6.17-4.188 9.639zM74.724 36.2c0 5-14.547 4.325-14.547 14.278 0 5.224 4.593 9.322 11.124 9.322 5.27 0 8.557-2.432 9.593-3.783l-4.279-5.09c-.765.947-2.567 2.929-5.899 2.929-2.252 0-3.513-1.262-3.513-2.838 0-5.09 14.501-4.323 14.501-14.367 0-4.73-3.918-9.323-11.934-9.323-6.08 0-9.863 2.703-10.944 3.919l3.918 5.675c1.351-1.352 4.098-3.784 7.927-3.784 2.747 0 4.053 1.396 4.053 3.063M86.826 50.091l-2.664 5.338 6.023 4.17h6.657V28.17h-6.61v16.26l.225 8.08" fill="#221f1f"/><path d="M102.932 35.482c2.153 0 3.777-1.624 3.777-3.815 0-2.002-1.624-3.626-3.777-3.626-2.04 0-3.664 1.624-3.664 3.626 0 2.191 1.624 3.815 3.664 3.815" fill="#f4006f"/></g></svg>