<svg xmlns="http://www.w3.org/2000/svg" viewBox="0 0 49 64"><path d="M48.637 60.1c.267.85.363 1.26.363 1.547 0 .364-.143.567-.605.774-2.229 1-6.045 1.579-10.027 1.579-4.02 0-7.799-.58-10.027-1.579-.462-.207-.605-.41-.605-.774 0-.287.096-.697.363-1.547.095-.303.242-.743.414-1.243.46-1.335.644-1.726 1.438-1.456 1.773.604 3.856 1.026 5.279 1.124V39.812c-2.032-.143-4.697-.612-6.227-1.196-.417-.16-.625-.393-.625-.958 0-.376.105-.897.307-1.642.049-.178.103-.365.171-.604.498-1.741.792-2.18 1.549-1.974 2.797.76 5.221 1.16 7.963 1.16s5.165-.4 7.963-1.16c.757-.206 1.05.233 1.549 1.974.069.24.122.426.17.604.203.745.307 1.266.307 1.642 0 .565-.207.798-.624.958-1.53.584-4.195 1.053-6.227 1.196v18.713c1.423-.098 3.506-.52 5.28-1.124.793-.27.976.12 1.437 1.456.172.5.319.94.414 1.243m-24.146-.63c-.86-.838-1.711-1.671-2.549-2.495 1.616-2.996 2.398-6.755 2.398-10.357 0-.738-.352-.885-1.908-.885H21.25c-1.728 0-1.9.217-1.924.918-.078 2.412-.451 4.67-1.18 6.553-2.469-2.48-4.672-4.756-6.375-6.615-2.42-2.64-3.05-3.675-3.05-5.047 0-1.655 1.164-2.898 3.76-2.898 1.588 0 3.345.447 5.446 1.245.258.098.462.15.63.15.507 0 .7-.462 1.103-1.558.17-.457.384-1.034.531-1.46.188-.545.29-.912.29-1.183 0-.403-.213-.58-.685-.809-1.996-.967-4.834-1.638-7.597-1.638-5.303 0-9.338 2.605-9.338 7.903 0 1.84.622 3.488 1.802 5.203C1.61 48.487 0 51.355 0 54.717 0 60.17 4.617 64 10.263 64c3.277 0 5.974-1.054 8.088-2.827.801.806 1.554 1.553 2.225 2.206.294.287.519.447.767.454.397.011.855-.368 1.755-1.244.25-.243.41-.399.62-.6.851-.811 1.244-1.284 1.244-1.708 0-.276-.164-.513-.47-.812m-13.148-1.034c-3.06 0-4.872-1.97-4.872-4.594 0-1.557.613-2.815 1.659-3.754a470.204 470.204 0 0 0 6.661 7.304c-.969.673-2.115 1.044-3.448 1.044m17.049-33.052.538-1.057c.596-1.168.864-1.617 1.303-1.617.214 0 .452.11.788.295 2.324 1.276 5.043 2.185 7.333 2.185 3.358 0 4.551-1.539 4.551-3.195 0-1.862-1.255-2.717-4.365-4.053-1.053-.451-1.7-.733-2.71-1.152-4.781-1.985-7.428-4.365-7.428-8.623C28.403 2.43 32.954 0 38.632 0c3.105 0 6.416.759 8.655 2.017.322.18.481.376.481.684 0 .352-.194.846-.562 1.625-.227.484-.336.716-.51 1.08-.533 1.118-.772 1.51-1.185 1.51-.207 0-.455-.1-.803-.259-2.005-.905-4.02-1.388-5.92-1.388-2.45 0-4.334.766-4.334 2.677 0 1.574 1.136 2.443 4.052 3.674.904.381 1.36.588 2.368 1.011C46.241 14.886 49 17.18 49 21.851c0 5.453-4.304 8.758-10.581 8.758-3.911 0-7.807-1.303-10.074-2.758-.387-.248-.61-.45-.61-.761 0-.347.198-.806.658-1.707M24.038.758v28.165c0 .586-.204.758-2.562.758h-.729c-2.447 0-2.702-.12-3.08-1.068-.225-.561-.324-.814-.495-1.248-2.9-7.376-6.944-14.344-10.66-18.88v20.438c0 .586-.204.758-2.562.758h-.464c-2.357 0-2.561-.172-2.561-.758V.758C.925.172 1.129 0 3.485 0h1.1c1.67 0 2.424.184 3.227 1.015l.554.577c3.119 3.28 8.246 10.936 10.085 15.426V.758c0-.586.203-.758 2.561-.758h.464c2.358 0 2.562.172 2.562.758" fill="#00585C"/></svg>