<svg xmlns="http://www.w3.org/2000/svg" viewBox="0 0 49 64"><path fill="#00585C" d="m48.6 60.1.4 1.5c0 .4-.1.6-.6.8-2.2 1-6 1.6-10 1.6s-7.8-.6-10-1.6c-.5-.2-.7-.4-.7-.8l.4-1.5.4-1.2c.5-1.4.7-1.8 1.5-1.5 1.7.6 3.8 1 5.2 1.1V39.8c-2-.1-4.7-.6-6.2-1.2-.4-.1-.6-.4-.6-1 0-.3 0-.8.3-1.6l.2-.6c.5-1.7.7-2.2 1.5-2a29.1 29.1 0 0 0 16 0c.7-.2 1 .3 1.5 2a38.2 38.2 0 0 1 .5 2.3c0 .5-.2.8-.7 1-1.5.5-4.2 1-6.2 1.1v18.7a23 23 0 0 0 5.3-1.1c.8-.3 1 .1 1.4 1.5l.4 1.2m-24.1-.6L21.9 57c1.7-3 2.4-6.8 2.4-10.4 0-.7-.3-.9-1.9-.9h-1.1c-1.8 0-2 .3-2 1 0 2.4-.4 4.6-1.2 6.5l-6.3-6.6c-2.4-2.7-3-3.7-3-5 0-1.7 1-3 3.7-3 1.6 0 3.3.5 5.4 1.3l.7.1c.5 0 .7-.4 1-1.5a73 73 0 0 0 .9-2.7c0-.4-.2-.5-.7-.8-2-1-4.8-1.6-7.6-1.6-5.3 0-9.3 2.6-9.3 7.9a9 9 0 0 0 1.8 5.2c-3 2-4.7 4.9-4.7 8.2C0 60.2 4.6 64 10.3 64c3.2 0 6-1 8-2.8a190.7 190.7 0 0 0 3 2.6c.4 0 .9-.3 1.8-1.2l.6-.6c.9-.8 1.3-1.3 1.3-1.7 0-.3-.2-.5-.5-.8m-13.2-1c-3 0-4.8-2-4.8-4.7 0-1.5.6-2.8 1.6-3.7a470.2 470.2 0 0 0 6.7 7.3 6 6 0 0 1-3.5 1m17-33 .6-1c.6-1.2.9-1.7 1.3-1.7l.8.3c2.3 1.3 5 2.2 7.4 2.2 3.3 0 4.5-1.5 4.5-3.2 0-1.9-1.2-2.7-4.4-4l-2.7-1.2c-4.7-2-7.4-4.4-7.4-8.6C28.4 2.4 33 0 38.6 0c3.1 0 6.4.8 8.7 2 .3.2.5.4.5.7 0 .4-.2.8-.6 1.6l-.5 1.1c-.5 1.1-.8 1.5-1.2 1.5l-.8-.2c-2-1-4-1.4-6-1.4-2.4 0-4.2.7-4.2 2.6 0 1.6 1 2.5 4 3.7l2.4 1C46.2 15 49 17.2 49 22c0 5.4-4.3 8.7-10.6 8.7a20 20 0 0 1-10-2.7c-.4-.3-.7-.5-.7-.8 0-.4.2-.8.7-1.7M24 .8v28.1c0 .6-.2.8-2.5.8h-.8c-2.4 0-2.7-.1-3-1l-.5-1.3c-3-7.4-7-14.4-10.7-19V29c0 .6-.2.8-2.5.8h-.5c-2.4 0-2.6-.2-2.6-.8V.8c0-.6.2-.8 2.6-.8h1C6.4 0 7 .2 7.9 1l.6.6c3 3.3 8.2 11 10 15.4V.8c0-.6.3-.8 2.6-.8h.5c2.3 0 2.5.2 2.5.8"/></svg>