<svg xmlns="http://www.w3.org/2000/svg" width="48" height="48" fill="none"><path class="Path-s2b3fx-0 ezQKfB" d="M46.372 11.695h-4.43c-.89 0-1.62.725-1.628 1.616h.002l-.004.108.002.084-.02.272h.02c.003 2.639.001 15.811 0 21.087h-3.772c-2.078 0-3.768-1.682-3.768-3.749v-17.8c0-.892-.73-1.618-1.629-1.618h-4.433c-.898 0-1.628.726-1.628 1.619-.001 7.776.003 12.79.005 15.928l.002 3.198c0 5.923 6.684 9.56 11.475 9.56 3.187 0 5.166-1.544 5.166-4.028v-1.7h1.442c2.3 0 4.826-2.521 4.826-4.818v-18.14c0-.893-.73-1.62-1.628-1.62zm-4.64 1.617a.21.21 0 01.21-.207h4.43a.21.21 0 01.21.209v18.14c0 1.528-1.88 3.408-3.408 3.408h-1.441c.001-11.163.002-21.445 0-21.55zM36.566 40.59c-4.199 0-10.057-3.1-10.057-8.149l-.002-2.974c-.002-3.121-.006-8.188-.005-16.152a.21.21 0 01.21-.209h4.433a.21.21 0 01.21.209v17.8c0 2.844 2.327 5.158 5.187 5.158h3.772v1.71c0 2.353-2.621 2.607-3.748 2.607zM22.91 15.56C22.91 9.638 16.225 6 11.433 6 8.247 6 6.268 7.544 6.268 10.03v1.699H4.825c-2.3 0-4.826 2.521-4.826 4.818v18.14c0 .893.73 1.619 1.628 1.619h4.43c.89 0 1.62-.724 1.628-1.618h-.002l.004-.106-.002-.104c-.003-1.888-.001-15.865 0-21.339h3.772c2.078 0 3.769 1.682 3.769 3.749v17.799c0 .893.73 1.619 1.628 1.619h4.433c.898 0 1.628-.726 1.628-1.62.001-7.964-.003-13.03-.005-16.152zm-11.452-3.832H7.686v-1.71c0-2.353 2.621-2.607 3.748-2.607 4.2 0 10.057 3.1 10.057 8.15l.002 2.973c.003 3.121.007 8.188.005 16.152a.21.21 0 01-.21.209h-4.433a.21.21 0 01-.21-.21V16.888c0-2.845-2.327-5.16-5.187-5.16zm-5.19 22.96a.21.21 0 01-.21.207h-4.43a.21.21 0 01-.21-.21v-18.14c0-1.527 1.88-3.407 3.408-3.407h1.441c0 11.163-.002 21.445 0 21.55z" clip-rule="evenodd" fill="#8a0596" fill-opacity=".981" fill-rule="evenodd"/></svg>