<svg xmlns="http://www.w3.org/2000/svg" viewBox="0 0 58 32"><path fill="#820ad1" d="M10.47 3.05A9.62 9.62 0 0 1 17.6 0c5.56 0 9.25 4.07 9.96 10.16.23 1.97.23 4.76.23 8v13.1h-7.66V22.3s-.02-7.66-.06-9.1c-.2-6.23-3.9-10.14-9.6-10.15C8.75 4.88 7.83 7.1 7.7 10.5c-.02.47 0 2.15 0 4.37v16.4H.03V16.05c-.03-.96-.05-1.93 0-2.89.1-1.6.37-3.17 1.11-4.63a10.12 10.12 0 0 1 9.33-5.49zm47.5 15.78c.05-.96.03-1.93.01-2.9V.74H50.3v16.4c.01 2.21.02 3.9 0 4.36-.14 3.4-1.06 5.62-2.78 7.44-5.7 0-9.39-3.92-9.6-10.16-.04-1.43-.06-4.98-.06-9.1V.74h-7.65v13.1a79 79 0 0 0 .22 8c.7 6.1 4.4 10.16 9.96 10.16 2.86 0 5.3-1.13 7.13-3.05h.4c3.72 0 7.22-2.15 8.93-5.5a11.34 11.34 0 0 0 1.1-4.62z"/></svg>