<svg xmlns="http://www.w3.org/2000/svg" width="43.5" height="43.5" viewBox="0 0 57.34 58"><path style="fill:#820ad1;fill-opacity:1" class="sc-pQEbo yAvEL" d="M10.47 3.05A9.62 9.62 0 0 1 17.6 0c5.56 0 9.25 4.07 9.96 10.16.23 1.97.23 4.76.23 8v13.1h-7.66V22.3s-.02-7.66-.06-9.1c-.21-6.23-3.9-10.14-9.6-10.15C8.75 4.88 7.83 7.1 7.69 10.5c-.02.47-.01 2.15 0 4.37v16.39H.03V17.49l-.01-1.43c-.02-.96-.04-1.93.01-2.89.1-1.6.37-3.17 1.11-4.63a10.12 10.12 0 0 1 9.33-5.49zM57.97 18.83c.05-.96.03-1.93.01-2.9l-.01-1.42V.74H50.3v16.39c.01 2.22.02 3.9 0 4.37-.14 3.4-1.06 5.62-2.78 7.44-5.7 0-9.39-3.92-9.6-10.16-.04-1.43-.06-4.98-.06-9.1V.74h-7.65v13.1a79 79 0 0 0 .22 8c.7 6.1 4.4 10.16 9.96 10.16 2.86 0 5.3-1.13 7.13-3.05h.39c3.73 0 7.23-2.15 8.94-5.5a11.34 11.34 0 0 0 1.1-4.62z" transform="translate(-.33 13)"/></svg>