<svg xmlns="http://www.w3.org/2000/svg" width="24.25" height="24.25"  fill="#004880" xmlns:v="https://vecta.io/nano"><path d="M11.188 4.415h6.682c3.533.012 6.389 2.885 6.38 6.418v6.672a6.4 6.4 0 0 1-6.41 6.42h-6.68c-1.701.002-3.332-.673-4.535-1.875a6.4 6.4 0 0 1-1.875-4.535v-6.682a6.4 6.4 0 0 1 6.438-6.418zM9.07 7.562a2.49 2.49 0 0 0-1.867 2.195 2.49 2.49 0 0 0 1.439 2.496 2.49 2.49 0 0 0 2.834-.517c.83-.846.95-2.168.287-3.15A2.49 2.49 0 0 0 9.07 7.562zm7.976 6.068a3.95 3.95 0 0 0-2.125 1.117c-1.245 1.245-1.441 2.972-.867 4.358a3.97 3.97 0 0 0 3.695 2.47 4.01 4.01 0 0 0 4-4c0-1.76-1.082-3.12-2.468-3.695a4.04 4.04 0 0 0-2.235-.25zM4 2.325a2 2 0 1 1-4 0 2 2 0 0 1 4 0z" letter-spacing="normal" word-spacing="normal" writing-mode="lr-tb" direction="ltr" dominant-baseline="auto" baseline-shift="baseline"/></svg>