<svg xmlns="http://www.w3.org/2000/svg" width="72" height="72"><g fill="none" fill-rule="evenodd"><rect width="72" height="72" fill="#75768B" rx="14.4"/><path fill="#FFF" d="M35.209 47.135h-5.293V35.212c0-3.58-2.899-6.493-6.461-6.493-3.563 0-6.462 2.913-6.462 6.493v11.923H11.7V35.212C11.7 28.7 16.973 23.4 23.455 23.4c6.481 0 11.754 5.3 11.754 11.812v11.923zm13.955.798c-6.482 0-11.754-5.3-11.754-11.812V24.198h5.292V36.12c0 3.58 2.9 6.493 6.462 6.493s6.462-2.913 6.462-6.493V24.198h5.292V36.12c0 6.513-5.273 11.812-11.754 11.812z"/></g></svg>