<svg xmlns="http://www.w3.org/2000/svg" viewBox="0 0 300 300"><rect width="300" height="300" rx="67.38" fill="#2c232e"/><path d="M129.65 189.41c0-11.58-10.09-20.17-21.67-20.17H67.65v68H77v-27.67h22.17l19.27 27.64h11.21l-19.93-27.71c10.83-.8 19.93-9.1 19.93-20.09zM108 201H77v-23.17h31c6.35 0 12.33 4.48 12.33 11.58S114.33 201 108 201zM170.35 177.83h26.15v50.79h-26.15v8.59h62v-8.59h-26.14v-50.79h26.14v-8.59h-62v8.59zM120.31 122.17h-2.62L85.2 62.79H67.65v67.97h9.34V71.38h2.61l32.49 59.38h17.56V62.79h-9.34v59.38zM223 62.79v39.59c0 13.07-8.59 22.78-21.67 22.78s-21.66-9.71-21.66-22.78V62.79h-9.34v39.59c0 17.92 13.08 31.37 31 31.37s31-13.45 31-31.37V62.79z" fill="#d3d2d2"/></svg>