<svg xmlns="http://www.w3.org/2000/svg" viewBox="0 0 59.7 59.7"><path fill="#57068c" d="M59.7 59.7H0V0h59.7z"/><path fill="#fff" d="M26.3 31.1c-6.1-3.6-5.5-8.8-3-12.7v-.3c0-1-1-3.3-1.4-3.9-.1-.1-.2-.1-.2 0 0 1-1.3 3.7-3 6.7-2 3.2-2 10.1 7.6 10.4V31zm1.6-.2c-3.6-7.8 3.7-12.9 4.9-14 .2-.1.1-.3.1-.5 0-2.4-1.4-6.4-1.8-7h-.2c-.6 2.5-4 6.1-4.6 6.9-5.7 6.7-4.4 10.8 1.5 14.7 0 0 .2 0 .1-.1zm1.2-.4c1.8-8.2 8.5-8.4 9.1-10 1-2.5-.8-6.8-1.2-7.3 0-.1-.1 0-.1 0-1 2-2.4 4-3.5 4.8-1.5 1.2-7.4 5.6-4.4 12.6h.1zm1.2.8c11 .4 11.7-9.6 11.8-13.3 0-.2-.1-.3-.2-.1-.3.8-1.7 3.5-5.7 5.2-3.5 1.5-5.6 5-6 8l.1.2zm2.5 1.2h-8.6V35h8.6v-2.5zm-5 20.2c0 .4 1 .6 1.2 0l2-16.5h-5z"/></svg>