<svg xmlns="http://www.w3.org/2000/svg" viewBox="0 0 72 67.5"><defs><linearGradient id="d" x1="21.4" x2="24.9" y1="5.2" y2="47.5" href="#a"><stop offset=".2" stop-color="#0d91e1"/><stop offset=".5" stop-color="#52b471"/><stop offset=".7" stop-color="#98bd42"/><stop offset=".9" stop-color="#ffc800"/></linearGradient><linearGradient id="f" x1="21.7" x2="23.7" y1="-.1" y2="46.1" href="#a"><stop offset="0" stop-color="#3dcbff"/><stop offset=".3" stop-color="#0588f7" stop-opacity="0"/></linearGradient><linearGradient id="i" x1="49.6" x2="49.5" y1="14" y2="26.6" href="#a"><stop offset=".1" stop-color="#f8adfa"/><stop offset=".7" stop-color="#a86edd" stop-opacity="0"/></linearGradient><linearGradient id="a" gradientUnits="userSpaceOnUse"/><radialGradient id="b" cx="-924.4" cy="643.6" r="1" fx="-924.4" fy="643.6" gradientTransform="matrix(-17.87359 -21.08327 -19.95436 16.91654 -3622.65 -30352.58)" href="#a"><stop offset=".1" stop-color="#00aeff"/><stop offset=".8" stop-color="#2253ce"/><stop offset="1" stop-color="#0736c4"/></radialGradient><radialGradient id="c" cx="-846.8" cy="667.4" r="1" fx="-846.8" fy="667.4" gradientTransform="rotate(50.26 -28099.15 14425.23)scale(25.01 -24.55)" href="#a"><stop offset="0" stop-color="#ffb657"/><stop offset=".6" stop-color="#ff5f3d"/><stop offset=".9" stop-color="#c02b3c"/></radialGradient><radialGradient id="g" cx="-883.4" cy="668.7" r="1" fx="-883.4" fy="668.7" gradientTransform="matrix(-20.7347 57.84613 70.64853 25.32366 -65498.22 34177.34)" href="#a"><stop offset=".1" stop-color="#8c48ff"/><stop offset=".5" stop-color="#f2598a"/><stop offset=".9" stop-color="#ffb152"/></radialGradient><path id="e" d="M45 0H18.8c-7.5 0-12 9.7-15 19.3C.2 30.8-4.5 46.1 9 46.1h11.4a7.5 7.5 0 0 0 7.2-5.4l8.2-27.3C37 8.8 38.3 4.9 40 2.5A6 6 0 0 1 45 0"/><path id="h" d="M27 63h26.3c7.5 0 12-9.7 15-19.3 3.5-11.5 8.2-26.8-5.3-26.8H51.6a7.5 7.5 0 0 0-7.2 5.4l-8.2 27.3c-1.3 4.6-2.5 8.5-4.3 10.9A6 6 0 0 1 27 63"/></defs><path fill="url(#b)" d="M52.7 5.2A7.5 7.5 0 0 0 45.5 0H43a7.5 7.5 0 0 0-7.3 6.1L32 25.8l1.1-3.6a7.5 7.5 0 0 1 7.2-5.3h11.5l6.5 2.3 3.5-2.3a7.5 7.5 0 0 1-7.1-5.3l-2-6.4z"/><path fill="url(#c)" d="M20.1 57.7a7.5 7.5 0 0 0 7.2 5.3h4.9a7.5 7.5 0 0 0 7.4-7.4l.3-18.1-1 3.3a7.5 7.5 0 0 1-7.2 5.3H20.3l-6-2.7-3.3 2.7a7.5 7.5 0 0 1 7.2 5.3l2 6.3z"/><use fill="url(#d)" href="#e"/><use fill="url(#f)" href="#e"/><use fill="url(#g)" href="#h"/><use fill="url(#i)" href="#h"/><rect width="48.4" height="21.4" x="23.6" y="46.1" rx="3.6"/><path fill="#fff" d="M26.6 50.2v13H29v-9.4l2.6 5.3h1.6l2.6-5.2v9.3h2.5v-13h-2.8l-3 6-3-6zm18 13.2a5 5 0 0 1-3.4-1c-.8-.7-1.2-1.7-1.2-3.1h2.4c0 .6.2 1.1.6 1.5.4.4.9.6 1.6.6.6 0 1-.2 1.4-.5.3-.3.5-.8.5-1.5s-.2-1-.6-1.4c-.4-.3-1-.4-1.6-.4h-.8v-2h.9c.6 0 1-.1 1.4-.4s.5-.8.5-1.3-.2-.9-.5-1.1c-.3-.3-.7-.4-1.2-.4-.6 0-1 .2-1.4.5s-.4.8-.4 1.3h-2.4c0-.9.2-1.6.5-2.1q.6-.9 1.5-1.3a4.2 4.2 0 0 1 2.2-.4c.7 0 1.4.1 2 .3s1.1.6 1.5 1.1q.5.8.5 2c0 1-.1 1.3-.5 1.8s-.9.8-1.5 1a3 3 0 0 1 1.7 1q.7.7.7 2c0 1.2-.4 2.2-1.2 2.8s-1.9 1-3.2 1m7.8-.6c.7.4 1.5.6 2.4.6s1.7-.2 2.3-.5a3.6 3.6 0 0 0 1.5-1.5c.3-.7.5-1.4.5-2.2s-.2-1.6-.5-2.2a3.2 3.2 0 0 0-1.3-1.3 3.8 3.8 0 0 0-1.9-.5c-.6 0-1 .1-1.5.3a4.1 4.1 0 0 0-1.2.8c0-1.2.1-2.1.5-2.8.4-.7 1-1 1.6-1 .5 0 .8 0 1 .3.4.2.5.6.6 1h2.4a4.1 4.1 0 0 0-1.3-2.5 4 4 0 0 0-2.7-1 4.4 4.4 0 0 0-2.4.8q-1.1.7-1.7 2.2c-.4 1-.6 2.2-.6 3.7s.2 2.7.6 3.7q.6 1.4 1.7 2zm.2-4.6a3.7 3.7 0 0 1 .6-.4 3.1 3.1 0 0 1 1.8-.5c.5 0 .9.1 1.1.5.3.3.5.8.5 1.4s-.2 1.2-.5 1.6c-.3.4-.7.6-1.3.6-.4 0-.7-.1-1-.4a2.5 2.5 0 0 1-.9-1.2 5.5 5.5 0 0 1-.3-1.5m9.8 4.7a5.9 5.9 0 0 0 4.5 0 3.8 3.8 0 0 0 1.6-1.5c.4-.7.6-1.5.6-2.5s-.2-1.8-.6-2.4a3.3 3.3 0 0 0-1.4-1.3 4.4 4.4 0 0 0-1.9-.5c-.5 0-1 .1-1.3.3-.4.2-.7.3-.9.6l.2-3h4.9v-2.1h-6.9l-.5 7h2.2l.7-.6c.3-.2.6-.2 1-.2.6 0 1 .2 1.4.5.4.4.5 1 .5 1.7q0 1.2-.5 1.8c-.5.6-.7.6-1.3.6a2 2 0 0 1-1.4-.5 1.8 1.8 0 0 1-.6-1.4h-2.5c0 1 .2 1.6.6 2.2q.6.9 1.6 1.3z"/></svg>