<svg xmlns="http://www.w3.org/2000/svg" viewBox="0 0 72.01 67.5"><defs><linearGradient id="d" x1="21.36" x2="24.93" y1="5.23" y2="47.53" href="#a"><stop offset=".16" stop-color="#0d91e1"/><stop offset=".49" stop-color="#52b471"/><stop offset=".65" stop-color="#98bd42"/><stop offset=".94" stop-color="#ffc800"/></linearGradient><linearGradient id="g" x1="21.72" x2="23.66" y1="-.06" y2="46.07" href="#a"><stop offset="0" stop-color="#3dcbff"/><stop offset=".25" stop-color="#0588f7" stop-opacity="0"/></linearGradient><linearGradient id="j" x1="49.56" x2="49.54" y1="14.02" y2="26.59" href="#a"><stop offset=".06" stop-color="#f8adfa"/><stop offset=".71" stop-color="#a86edd" stop-opacity="0"/></linearGradient><linearGradient id="a" gradientUnits="userSpaceOnUse"/><radialGradient id="b" cx="-924.44" cy="643.56" r="1" fx="-924.44" fy="643.56" gradientTransform="matrix(-17.87359 -21.08327 -19.95436 16.91654 -3622.65 -30352.58)" href="#a"><stop offset=".1" stop-color="#00aeff"/><stop offset=".77" stop-color="#2253ce"/><stop offset="1" stop-color="#0736c4"/></radialGradient><radialGradient id="c" cx="-846.78" cy="667.41" r="1" fx="-846.78" fy="667.41" gradientTransform="rotate(50.26 -28099.15 14425.23)scale(25.01 -24.55)" href="#a"><stop offset="0" stop-color="#ffb657"/><stop offset=".63" stop-color="#ff5f3d"/><stop offset=".92" stop-color="#c02b3c"/></radialGradient><radialGradient id="h" cx="-883.37" cy="668.69" r="1" fx="-883.37" fy="668.69" gradientTransform="matrix(-20.7347 57.84613 70.64853 25.32366 -65498.22 34177.34)" href="#a"><stop offset=".07" stop-color="#8c48ff"/><stop offset=".5" stop-color="#f2598a"/><stop offset=".9" stop-color="#ffb152"/></radialGradient><path id="e" d="M45.01 0H18.76c-7.5 0-12 9.67-15 19.34C.2 30.8-4.45 46.13 9.01 46.13h11.43a7.5 7.5 0 0 0 7.2-5.39l8.13-27.37c1.38-4.54 2.53-8.44 4.29-10.87A5.96 5.96 0 0 1 45.01 0"/><path id="i" d="M27 63h26.25c7.5 0 12-9.67 15-19.34C71.8 32.2 76.46 16.88 63 16.88H51.57a7.5 7.5 0 0 0-7.2 5.39l-8.13 27.36c-1.38 4.54-2.53 8.44-4.29 10.87A5.96 5.96 0 0 1 27 63"/></defs><path fill="url(#b)" d="M52.66 5.24A7.5 7.5 0 0 0 45.51 0h-2.47a7.5 7.5 0 0 0-7.37 6.13L32 25.84l1.1-3.64a7.51 7.51 0 0 1 7.18-5.33h11.48l6.58 2.3 3.5-2.29a7.51 7.51 0 0 1-7.15-5.25l-2.03-6.4z"/><path fill="url(#c)" d="M20.12 57.73A7.51 7.51 0 0 0 27.28 63h4.87a7.5 7.5 0 0 0 7.5-7.39l.26-18.11-.99 3.29a7.49 7.49 0 0 1-7.18 5.34H20.26l-5.94-2.71-3.33 2.71a7.51 7.51 0 0 1 7.16 5.27l1.97 6.34z"/><use fill="url(#d)" href="#e"/><use fill="url(#g)" href="#e"/><use fill="url(#h)" href="#i"/><use fill="url(#j)" href="#i"/><rect width="48.38" height="21.37" x="23.63" y="46.13" rx="3.64"/><path fill="#fff" d="M26.57 50.21v13.03h2.41v-9.39l2.64 5.21h1.61l2.58-5.21v9.39h2.49V50.21h-2.78l-3.02 6.05-3-6.05zm18.02 13.2a4.97 4.97 0 0 1-3.35-1.03c-.79-.68-1.19-1.71-1.19-3.09h2.38c0 .65.19 1.16.56 1.53.38.37.91.55 1.59.55.61 0 1.07-.15 1.39-.46.33-.31.49-.8.49-1.47s-.2-1.11-.6-1.4c-.39-.3-.91-.45-1.54-.45h-.78v-1.96h.85c.57 0 1.02-.15 1.36-.46s.5-.72.5-1.23-.15-.9-.45-1.14c-.3-.25-.71-.37-1.23-.37-.57 0-1.02.16-1.34.48s-.47.75-.47 1.31h-2.37c0-.87.18-1.59.54-2.15q.56-.84 1.5-1.26a4.2 4.2 0 0 1 2.13-.43c.73 0 1.4.12 2.02.36s1.12.6 1.49 1.09q.57.73.57 1.89c0 1.16-.19 1.4-.56 1.86s-.86.78-1.49.97a3 3 0 0 1 1.71.97q.69.75.69 2.1c0 1.23-.4 2.17-1.19 2.82s-1.86.97-3.21.97m7.79-.64c.72.43 1.53.65 2.44.65s1.69-.18 2.32-.54a3.6 3.6 0 0 0 1.45-1.49c.33-.64.49-1.37.49-2.2s-.16-1.58-.48-2.16a3.2 3.2 0 0 0-1.32-1.33 3.8 3.8 0 0 0-1.86-.46c-.58 0-1.09.09-1.53.28a4.1 4.1 0 0 0-1.15.75l-.13.12c.04-1.25.23-2.2.56-2.84.39-.75.94-1.12 1.65-1.12.44 0 .79.12 1.06.37.28.24.46.6.56 1.09h2.38a4.14 4.14 0 0 0-1.28-2.59 3.93 3.93 0 0 0-2.73-.91 4.4 4.4 0 0 0-2.46.71q-1.08.69-1.68 2.16c-.41.97-.61 2.21-.61 3.73s.21 2.76.62 3.71q.62 1.41 1.68 2.07zm.25-4.52a3.7 3.7 0 0 1 .57-.46 3.1 3.1 0 0 1 1.77-.53c.5 0 .88.17 1.16.52.28.34.42.82.42 1.43s-.15 1.15-.44 1.56c-.28.41-.72.62-1.3.62-.37 0-.73-.12-1.07-.36a2.54 2.54 0 0 1-.82-1.19 5.5 5.5 0 0 1-.29-1.59m9.78 4.74a5.9 5.9 0 0 0 4.5-.06 3.8 3.8 0 0 0 1.58-1.47c.39-.66.58-1.48.58-2.47s-.18-1.78-.55-2.39a3.3 3.3 0 0 0-1.42-1.33 4.36 4.36 0 0 0-1.89-.43c-.52 0-.96.08-1.35.25-.37.16-.66.35-.85.57l.23-2.98h4.85v-2.12h-6.85l-.55 7.02h2.22c.18-.23.41-.41.69-.56s.62-.22 1.02-.22c.57 0 1.03.17 1.38.52.36.34.54.9.54 1.67q0 1.25-.51 1.83c-.51.59-.78.58-1.34.58-.59 0-1.07-.16-1.44-.49a1.76 1.76 0 0 1-.56-1.37h-2.47c0 .87.2 1.6.59 2.18q.6.86 1.62 1.29z"/></svg>