<svg xmlns="http://www.w3.org/2000/svg" xmlns:xlink="http://www.w3.org/1999/xlink" width="994.691" height="994.691"><defs><radialGradient gradientUnits="userSpaceOnUse" gradientTransform="matrix(20.7067 0 0 -20.7067 -1157.965 16965.281)" r="13.713" cy="808.612" cx="74.716" id="a"><stop offset="0" stop-color="#00aced"/><stop offset="1" stop-color="#004975"/></radialGradient><radialGradient xlink:href="#a" id="b" cx="440.483" cy="140.63" fx="440.483" fy="140.63" r="388.116" gradientTransform="matrix(0 .7316 -.7316 -.00003 492.049 -100.668)" gradientUnits="userSpaceOnUse"/></defs><path d="M30.026 123.979c-15.529 0-24.249 4.819-27.917 13.747v29.626c1.311 4.23 5.48 7.561 9.825 7.561h8.212c10.768 0 12.758 4.096 14.443 13.625l2.156 12.302 2.63 14.819.67 5.355c3.962 22.341 16.163 30.59 38.919 30.59h27.067c4.278 0 7.23-3.093 7.176-7.202a10.45 10.45 0 00-.128-1.297L108.5 214.82l-2.47-13.98-5.781-32.649c-4.894-27.709-18.982-44.211-50.414-44.211H30.026zm124.005 0c-21.539 0-29.939 9.261-30.026 25.819-.028 3.833.4 8.037 1.211 12.596l.837 4.81c1.217 4.295 5.467 7.708 9.877 7.708h49.938c26.444 0 36.599 12.838 40.232 33.493l3.563 20.282c.91 5.07 1.553 9.824 1.565 14.054.08 12.743-5.348 21.126-25.542 21.126h-53.758c-4.25 0-7.236 3.145-7.128 7.215 0 .415.039.856.128 1.297l1.365 7.938c4.898 27.697 20.085 36.374 46.51 36.374h145.155c11.553 0 16.078-4.62 16.091-10.606.026-3.854-1.795-8.27-4.801-12.423-1.107-1.483-21.543-28.444-21.543-28.444-.69-.883-1.687-1.406-2.678-1.406H292.532c-4.838 0-8.72-1.683-10.928-4.563-1.246-1.674-1.888-3.655-1.914-5.796-.022-1.7.326-3.495 1.064-5.368.428-.991 9.049-22.648 10.982-27.337l.108-1.35v-.052l-.578-1.367a16119.253 16119.253 0 01-21.712-28.713c-2-2.651-2.745-4.659-2.745-6.506.021-1.111.309-2.171.757-3.27 1.151-2.941 4.524-4.576 9.365-4.576h36.142c1.032 0 1.687-.761 1.659-1.7 0-.199-.052-.441-.119-.67-11.353-28.427-37.905-48.563-77.494-48.563h-83.088zm205.9 0c-11.571 0-16.139 4.728-16.165 10.749-.026 3.854 1.808 8.245 4.853 12.276 2.946 3.841 20.027 26.507 20.027 26.507.627.826 1.674 1.401 2.63 1.401h49.402c4.84 0 8.785 1.583 10.995 4.576 1.272 1.661 1.917 3.642 1.934 5.788 0 1.67-.358 3.465-1.094 5.312-.377.792-10.931 27.216-11 27.32a3.253 3.253 0 00-.135 1.073c.014.614.251 1.259.671 1.765 0 0 19.971 26.507 20.603 27.337 2.375 3.162 3.581 6.198 3.552 8.742-.014.844-.152 1.635-.441 2.353-1.203 2.95-4.524 4.633-9.417 4.633h-44.73c-.995 0-1.834.523-2.163 1.354 0 0-9.715 24.656-11.238 28.497-.896 2.249-1.372 4.62-1.372 6.946-.013 8.314 6.043 16.083 20.862 16.083h48.632c46.474 0 72.293-21.913 72.202-66.717-.014-7.82-.826-16.333-2.444-25.534l-1.531-8.668c-12.765-72.384-59.19-91.792-102.653-91.792h-51.98zm313.338-1.059c-28.864 0-50.418 7.847-53.144 39.172-.246 4.014-1.973 5.875-4.014 5.875-2.375 0-5.139-2.5-6.497-7.081-7.259-24.335-23.401-36.906-50.622-36.906h-12.631c-21.476 0-29.863 9.261-29.993 25.819-.025 3.833.39 8.037 1.198 12.596 0 0 .315 1.54.831 4.81.839 4.71 5.376 8.244 11.93 8.244 11.679 0 14.884 3.616 16.723 14.335l21.026 118.594c1.15 4.416 5.411 7.95 9.936 7.95h31.693c18.439 0 28.367-3.668 28.293-18.833-.013-2.479-.303-5.26-.852-8.396l-13.028-74.174c-.623-3.478-.913-6.774-.926-9.854-.053-18.859 10.684-30.158 25.736-30.158h9.08c23.072 0 34.808 10.364 39.163 35.071l3.374 19.396c.757 4.273 1.224 8.206 1.25 11.783.095 14.045-6.51 22.385-28.172 22.385h-10.936c-4.277 0-7.241 3.141-7.154 7.215 0 .441.039.856.121 1.298l.52 2.984c5.563 31.335 19.819 44.588 51.992 44.588h7.311c36.832 0 62.941-20.175 62.863-61.83-.013-6.375-.648-13.253-1.946-20.641l-5.364-30.552c-11.666-65.964-49.821-83.69-90.672-83.69z" fill="url(#b)" transform="translate(-2.109 306.687)"/><path d="M984.836 548.572c-24.02-132.283-302.062-239.466-620.997-239.466-41.96 0-82.546 1.847-121.327 5.381 48.072-.59 99.276 2.208 152.523 8.433C713.344 360.105 926.113 486.324 932.9 610.965c1.558 28.61-9.417 54.536-30.694 77.038 60.804-39.277 92.077-87.424 82.63-139.43" fill="#00aeef"/><path d="M992.808 534.476c-23.825-130.528-274.867-257.82-732.11-221.503 33.231-2.543 67.688-3.882 103.149-3.882 318.936 0 596.981 107.198 620.984 239.481 9.455 52.02-21.827 100.154-82.627 139.43 61.217-32.9 101.898-91.64 90.604-153.526" fill="#0057a3"/></svg>