<svg xmlns="http://www.w3.org/2000/svg" viewBox="0 0 133.31 124.69"><path d="M66.66 0C29.27 0 0 27.32 0 62.35s29.27 62.34 66.66 62.34 66.65-27.32 66.65-62.34S104 0 66.66 0zM26.28 105.36a.52.52 0 0 1 .06.77c-.18.16-.53.14-.86-.14a56 56 0 0 1 0-87.29c.33-.28.68-.3.86-.14a.52.52 0 0 1-.06.77C18.14 27.86 10.2 42 10.2 62.35s7.94 34.48 16.08 43.01zM46.9 89.11c-.14.21-.49.27-.88 0-9.31-5.6-16.66-14.64-16.66-26.79S36.71 41.16 46 35.55c.39-.24.74-.18.88 0a.48.48 0 0 1-.15.66A34.13 34.13 0 0 0 35 62.35a34.11 34.11 0 0 0 11.75 26.1.48.48 0 0 1 .15.66zm19.76 2.29c-14.46 0-27.11-12.54-27.11-29.05S52.2 33.29 66.66 33.29s27.1 12.54 27.1 29.06S81.11 91.4 66.66 91.4zm20.63-2.26c-.39.24-.74.18-.88 0a.48.48 0 0 1 .16-.66 34.14 34.14 0 0 0 11.75-26.1 34.17 34.17 0 0 0-11.75-26.14.48.48 0 0 1-.16-.66c.14-.21.49-.27.88 0C96.6 41.16 104 50.19 104 62.35s-7.4 21.19-16.71 26.79zM107.84 106c-.34.28-.68.3-.86.14a.52.52 0 0 1 0-.77c8.14-8.53 16.09-22.71 16.09-43s-8-34.49-16.09-43a.52.52 0 0 1 0-.77c.18-.16.52-.14.86.14a56 56 0 0 1 0 87.29z"/></svg>