<svg xmlns="http://www.w3.org/2000/svg" viewBox="0 0 133.3 124.7"><path d="M66.7 0C29.3 0 0 27.3 0 62.4s29.3 62.3 66.7 62.3 66.6-27.3 66.6-62.4S104 0 66.7 0zM26.3 105.4a.5.5 0 0 1 0 .7c-.1.2-.5.2-.8-.1a56 56 0 0 1 0-87.3c.3-.3.7-.3.8-.1a.5.5 0 0 1 0 .7C18 28 10.2 42 10.2 62.3s8 34.5 16 43zM46.9 89c-.1.2-.5.3-.9 0-9.3-5.6-16.6-14.6-16.6-26.8S36.7 41.2 46 35.5c.4-.2.7-.1.9 0a.5.5 0 0 1-.2.7A34.1 34.1 0 0 0 35 62.3a34.1 34.1 0 0 0 11.8 26.2.5.5 0 0 1 .1.6zm19.8 2.3c-14.5 0-27.2-12.5-27.2-29s12.7-29.1 27.2-29.1 27 12.5 27 29-12.6 29.1-27 29.1zm20.6-2.3c-.4.3-.8.2-.9 0a.5.5 0 0 1 .2-.6 34.1 34.1 0 0 0 11.7-26.1 34.2 34.2 0 0 0-11.7-26.2.5.5 0 0 1-.2-.6c.1-.2.5-.3.9 0 9.3 5.6 16.7 14.6 16.7 26.8S96.6 83.5 87.3 89zm20.5 16.9c-.3.3-.6.3-.8.1a.5.5 0 0 1 0-.7c8.1-8.6 16-22.7 16-43s-8-34.5-16-43a.5.5 0 0 1 0-.8c.2-.2.5-.1.8.1a56 56 0 0 1 0 87.3z"/></svg>