<svg xmlns="http://www.w3.org/2000/svg" width="105" height="105" viewBox="0 0 235.96 232.783" preserveAspectRatio="xMaxYMin"><path fill="#fff" d="M.03 176.78v.1l235.9.1-117.9-118z"/><path fill="#b81237" d="M148.23 176.98h12.5l37.6-37.7-6.3-6.2zM163.03 176.98h12.5l30.2-30.2-6.3-6.3zM177.83 176.98h12.5l22.8-22.8-6.2-6.3zM192.63 176.98h12.5l15.4-15.4-6.2-6.3zM207.43 176.98h12.6l7.9-8-6.2-6.3zM107.13 162.68c-2.2 3.3-5.3 10.6-6.4 14.2h.7l37-37c-4.2.7-8.3 2.2-11.9 4.5-6.7 4.3-14.3 10.7-19.4 18.3M222.23 176.98h13.7l-3.4-3.5-3.4-3.4zM131.63 72.68l-6.3-6.3-110.5 110.6h1.2l81.7-81.7c3.8.1 7.3.3 10.7.7zM124.23 65.28l-5.7-5.7-.5-.6-118 118h1.1l81.5-81.5c4.2-.2 8.1-.3 11.6-.2zM139.03 80.08l-6.3-6.3-103.1 103.2h1.1l80.5-80.5c3.2.5 6.3 1.2 9.4 2zM131.83 102.08l14.6-14.6-6.3-6.3-95.6 95.8h1.1l67.4-67.5c3.1 1.6 5.3 3 7.2 4.2l4.7-4.7c-3.7-.2-7.7-.4-11.4 0l9.8-9.8c2.8.8 5.6 1.8 8.5 2.9M147.63 88.58l-88.3 88.4h1.1l61.9-61.9c1.2.7 2.3 1.4 3.6 2.1 2.8-2.3 2.8-3.4 6.3-5.1 1.4-.7 3.5-1.1 5.9-1.3l15.8-15.8zm-19.4 20.6l6.1-6.1 3.6 1.5c.3 4.3-4 4.8-9.7 4.6M155.03 95.98l-80.9 81h1.1l66.4-66.4c3.6 0 7.5.2 10.7.7l8.9-8.9zM168.13 154.78l22.8-22.8-6.3-6.3-11.5 11.5-10.1 10.1-29.7 29.7h12.5l21.5-21.5c-.8-2.9-2.1-5.5-3.8-7.6l9.3-9.3c-.2 1.2-.5 2.4-.8 3.7-1.5 5.6-2.1 8.5-3.9 12.5M183.53 124.48l-5.7-5.7-.6-.6-31.2 31.3-27.5 27.5h12.5l30.9-30.9c-2-1.9-4.4-3.3-7-4.4l17.1-17.1c1.2 2.9 1.7 6.2 1.4 10zM170.43 111.38l-.6-.6-28.8 28.9-37.3 37.3h12.5l36.2-36.2c-3.2-1-6.7-1.3-10.2-1.2l23.2-23.2c2.3 1.7 4.2 3.6 5.5 5.9l5.2-5.2z"/><path d="M162.43 103.38l-73.5 73.6h1.1l65.3-65.3c1.3.3 2.4.6 3.1.9 1.8.8 3.4 1.6 4.9 2.5l5.3-5.3z" fill="#b81237"/></svg>