<svg xmlns="http://www.w3.org/2000/svg" height="132.265" width="132.265"><g fill="#df4e49"><path d="M67.203 31.958H65.07c-.588 0-1.065.48-1.065 1.068v8.26c0 .583.476 1.063 1.065 1.063h2.133c.588 0 1.065-.48 1.065-1.064v-8.259c0-.59-.476-1.068-1.065-1.068z"/><path d="M118.757 0H13.508C6.122 0 .132 5.912.132 13.209v105.845c0 7.296 5.99 13.211 13.376 13.211h105.249c7.388 0 13.375-5.915 13.375-13.21V13.208C132.133 5.913 126.145 0 118.757 0zM76.639 42.348H95.07c8.232 0 14.91 6.675 14.91 14.908v31.365c0 8.233-6.677 14.904-14.91 14.904h-7.822c-2.636 0-3.86-2.135-3.86-4.771 0-2.637 1.223-4.772 3.86-4.772h7.824c3.007 0 5.448-2.355 5.448-5.365V57.258a5.446 5.446 0 00-5.449-5.447H76.636c-.586 0-1.06.475-1.066 1.06v53.777a3.116 3.116 0 01-3.117 3.115h-3.118a1.068 1.068 0 01-1.068-1.063V52.874c0-.587-.477-1.064-1.066-1.064h-2.133c-.588 0-1.063.475-1.065 1.06v55.829c0 .586-.48 1.063-1.069 1.063h-3.117a3.12 3.12 0 01-3.12-3.115V52.874c0-.587-.48-1.064-1.065-1.064H37.193a5.444 5.444 0 00-5.448 5.446v31.362c0 3.01 2.44 5.365 5.448 5.365h7.853c2.636 0 3.857 2.135 3.857 4.772 0 2.636-1.22 4.771-3.857 4.771h-7.853c-8.232 0-14.91-6.67-14.91-14.903V57.256c0-8.232 6.677-14.908 14.91-14.908h18.44c.587 0 1.064-.48 1.064-1.064v-8.259c0-.588-.477-1.068-1.065-1.068H26.08c-2.636 0-3.857-2.116-3.857-4.729 0-2.612 1.22-4.73 3.857-4.73h80.106c2.635 0 3.856 2.118 3.856 4.73 0 2.613-1.22 4.73-3.856 4.73H76.636a1.07 1.07 0 00-1.065 1.065v8.261a1.07 1.07 0 001.067 1.064z"/></g></svg>