<svg xmlns="http://www.w3.org/2000/svg" fill-rule="evenodd" clip-rule="evenodd" stroke-linejoin="round" stroke-miterlimit="1.414" width="32" height="32"><path fill="none" d="M0 0h95v32H0z"/><path d="M20.813 16A4.818 4.818 0 0116 20.813 4.818 4.818 0 0111.187 16 4.818 4.818 0 0116 11.187 4.818 4.818 0 0120.813 16M16 0C7.178 0 0 7.178 0 16s7.178 16 16 16c3.232 0 6.349-.962 9.013-2.783l.046-.032-2.156-2.506-.036.024A12.672 12.672 0 0116 28.72C8.986 28.72 3.28 23.014 3.28 16S8.986 3.28 16 3.28 28.72 8.986 28.72 16c0 .909-.101 1.829-.3 2.734-.402 1.651-1.558 2.157-2.426 2.09-.873-.071-1.894-.693-1.901-2.215V16c0-4.463-3.63-8.093-8.093-8.093S7.907 11.537 7.907 16s3.63 8.093 8.093 8.093a8.03 8.03 0 005.734-2.389 5.198 5.198 0 003.997 2.389 5.399 5.399 0 003.678-1.078c.959-.728 1.675-1.781 2.071-3.046.063-.204.179-.672.18-.675l.003-.017C31.896 18.262 32 17.25 32 16c0-8.822-7.178-16-16-16" fill="#ff9e00" fill-rule="nonzero"/></svg>