<svg xmlns="http://www.w3.org/2000/svg" xmlns:xlink="http://www.w3.org/1999/xlink" width="168" height="168" overflow="hidden"><defs><clipPath id="a"><path d="M329 53h168v168H329z"/></clipPath><clipPath id="b"><path d="M329 54h167v167H329z"/></clipPath><clipPath id="c"><path d="M329 54h167v168H329z"/></clipPath><clipPath id="d"><path d="M350 74h125v123H350z"/></clipPath><clipPath id="g"><path d="M329 114h167v105H329z"/></clipPath><clipPath id="i"><path d="M329 96h167v36H329z"/></clipPath><image id="e" width="125" height="123" preserveAspectRatio="none"/><image id="h" width="167" height="105" preserveAspectRatio="none"/><image id="j" width="167" height="36" preserveAspectRatio="none"/><linearGradient id="f" x1="83.2014" x2="83.2014" y1="-25.4535" y2="124.593" gradientUnits="userSpaceOnUse" spreadMethod="pad"><stop offset="0" stop-color="#F3F3F3"/><stop offset="1" stop-color="#EAEAEA"/></linearGradient></defs><g clip-path="url(#a)" transform="translate(-329 -53)"><g clip-path="url(#b)"><g clip-path="url(#c)"><path fill="#008200" d="M329.156 212.485c0 4.376 3.514 7.926 7.846 7.926H487.95c4.333 0 7.846-3.543 7.846-7.919v-98.98a7.949 7.949 0 0 0-3.457-6.57l-75.481-51.418a7.773 7.773 0 0 0-8.769 0l-75.474 51.424a7.948 7.948 0 0 0-3.458 6.572v98.958Z"/><g clip-path="url(#d)"><use xlink:href="#e" width="100%" height="100%" transform="translate(350 74)"/></g><path fill="url(#f)" d="M141.4 20.663H25.003a3.944 3.944 0 0 0-3.923 3.958v129.166h124.243V24.621a3.944 3.944 0 0 0-3.923-3.958Z" transform="matrix(1 0 0 1.00045 329.156 54.17)"/><path fill="#02AA4E" d="m419.461 121.272-13.956-20.346a1.957 1.957 0 0 0-1.611-.848h-10.04a.986.986 0 0 0-.986.987V138.7c0 .556.444.994.986.994h10.658a.986.986 0 0 0 .979-.994v-20.214l13.956 20.353a1.95 1.95 0 0 0 1.611.855h10.04a.986.986 0 0 0 .986-.987V101.065a.987.987 0 0 0-.986-.987H420.44a.986.986 0 0 0-.979.987v20.214Z"/><path fill="#03C75A" d="m334.08 122.404 78.396 45.985 78.39-45.985c3.055-1.764 4.929-4.487 4.929-7.981v98.542c0 4.376-3.513 7.925-7.846 7.925H337.002a7.889 7.889 0 0 1-7.846-7.925v-98.55c0 3.495 1.875 6.218 4.923 7.982Z"/><g clip-path="url(#g)"><use xlink:href="#h" width="100%" height="100%" transform="translate(329 114)"/></g><g clip-path="url(#i)"><use xlink:href="#j" width="100%" height="100%" transform="translate(329 96)"/></g></g></g></g></svg>