<svg xmlns="http://www.w3.org/2000/svg" width="182.408" height="182.408" viewBox="0 0 48.262 48.262"><path fill="#162187" d="M48.262 48.262V11.215C48.262 5.046 43.55 0 37.328 0H0v29.904c0 5.974 2.956 6.54 7.73 7.85z"/><path d="M42.606 16.669c0-9.523-13.214-12.692-18.31-6.101-2.36-4.119-8.544-3.404-12.389-3.404H6.031v24.13h6.787V16.799c0-3.259 2.442-3.583 4.384-3.583 2.747 0 3.911.976 3.911 3.844v14.236H27.9V16.669c0-3.39 2.16-3.454 4.1-3.454 2.797 0 3.818.976 3.818 4.453v13.627h6.787V16.669z" fill="#fff"/></svg>