<svg xmlns="http://www.w3.org/2000/svg" viewBox="0 0 40.41 27.96"><path fill="#fd354e" d="m39.34 15.6-6.7-11.54-.2-.35C31.78 2.49 30.84.8 29.08.25a5.39 5.39 0 0 0-6.22 2.17L21.8 4.15l-1.63 3a188.06 188.06 0 0 0-2.63-4.7 5.39 5.39 0 0 0-6.2-2.2C9.59.82 8.64 2.49 7.97 3.7l-6.9 11.9a8.07 8.07 0 0 0 3 11l.5.29a8.07 8.07 0 0 0 11-3l4.63-8.48 4.65 8.54a8.09 8.09 0 0 0 11.05 2.93l.5-.3a8.07 8.07 0 0 0 2.95-10.98zm-27.3 6.36a4.05 4.05 0 0 1-5.53 1.48l-.5-.28a4.07 4.07 0 0 1-1.48-5.55L11.2 6.06l.22-.4a5.72 5.72 0 0 1 1.14-1.61 1.51 1.51 0 0 1 1.57.47c.36.6 1.9 3.38 3.76 6.76zm22.3 1.19-.5.29a4.13 4.13 0 0 1-5.5-1.42c-.22-.4-3.11-5.73-5.86-10.75l2.77-5.07 1-1.68a1.44 1.44 0 0 1 1.55-.48 5.56 5.56 0 0 1 1.16 1.63l6.89 11.94a4.06 4.06 0 0 1-1.51 5.54z"/></svg>