<svg xmlns="http://www.w3.org/2000/svg" width="189.413" height="189.413" viewBox="0 0 50.116 50.116"><path fill="#e51939" d="M45.139 17.198h-3.612c-.468.099-.877.197-1.154.25-1.23.332-12.449 9.035-13.19 11.172-.164.735.023 7.886.183 8.958.734.167 6.071.024 7.05.187l-.114 2.205c-.959-.074-7.744-.048-11.614-.048-1.964 0-8.288.218-10.225.163l.36-2.108c1.068-.083 5.481.197 6.444-.836.478-.51.328-7.309.165-8.45-.41-1.231-10.24-13.55-12.81-15.569H0v-3.1h22.335v.21c.018 0 .054.007.074.007l-.074.521v2.354h-6.732c3 4.391 7.302 9.688 9.14 12.237l8.993-8.151H28.39l-.752-3.1h19.588l-.15.225h.068l-1.394 2.032a.13.13 0 00-.048.006zm-1.516 17.154l3.003.245 3.49-13.556c-.578-.024-5.889-.524-6.575-.66zm-.517 2.176l.012 3.31 1.522.129 1.64.122.482-3.242-1.727-.083z"/></svg>