<svg xmlns="http://www.w3.org/2000/svg" width="116.929" height="116.929"><g transform="translate(0 -935.433)"><circle cx="4170" cy="5236" r="2579" fill="#007cc3" fill-rule="evenodd" class="fil0 str0" transform="translate(-36.067 875.2) scale(.02267)"/><path d="M59.55 970.334s-1.228-2.38-1.31-2.708c-.081-.328-.737-3.693-.737-3.693l.82-1.477 1.801-2.708 2.62-2.052.656-.246 6.306-2.38.573-.574-.655-.985-.901-.492-1.653-.424-4.142-.425-3.213.028-2.212.493-1.965-.739-2.457-.328-3.603-.082-1.802-.082-3.03 1.149-4.586 5.334-.573 2.051-.328 1.806-1.556 3.364-.982 3.2-.492 3.447v.739l-2.375 3.61-1.31 2.708v3.857l.41 7.96.737 2.872 1.474 2.626 1.883 1.724.82 3.364 3.111 6.893 3.685 4.431.246.247 1.31 6.647-4.504 8.206-1.228 1.887-1.147.739-1.801-.247-1.065.41-1.228-.08-.82.656-1.555-.41-1.556-.246-1.31.82-.328 1.395.9-.82 1.393-.246v1.313l2.21-.493 1.23.081 2.129.493s1.883.08 2.21.08c.328 0 2.294.411 2.294.411h1.474l.737.41 1.064-.164 1.065.657h1.638l.327-1.067v-.574l1.065.492.819.82.491.904.082-1.068-.573-1.312s-.41-.739-.737-.739c-.328 0-1.556-.41-1.556-.41l-.9.246-.902-.493-.982.411-.82-.41-.327-.821-.573-.246.491-1.477 1.474-3.365 1.966-3.282 1.72-2.052.655-.82s.819-1.231.819-1.56c0-.328.163-3.774.163-3.774l-1.064-2.216-.492-1.805 9.5 2.297h.573l8.108 5.827 1.146 1.477.41 5.662-.164 1.313-.573 1.067-.655.656-.246 1.149-.328.575-1.556.246-1.474-.493-.9-.246h-1.72l-.82.657-.409.902.082.985.492-.903.573-.574.491-.081-.082.82.574.493 1.392-.41h.655l.082.902 1.965.246 1.392-.246 1.065.328 1.556.41.573-.08.492-.329.491 1.56.246-1.642-.41-1.97-.9-.738.327-1.23-.737-1.396.082-5.17 4.094 4.842 5.405 4.267s3.686 1.313 4.013 1.313c.328 0 2.866-.328 2.866-.328l1.638-2.708-1.228-3.693.491-1.23-2.62-3.447-5.552-5.653-1.327-4.44.082-3.037-1.229-3.2-1.392-2.544.819-2.544-.655-3.693-2.793-6.286 1.032-.174-1.732-2.998 1.125-.357-1.977-3.223.831-.449-1.482-2.433.484-.27-1.794-1.453.655-.34-4.668-3.271z"/></g></svg>