<svg xmlns="http://www.w3.org/2000/svg" width="1000" height="1000"><path d="M550.595 386.757c-89.814 0-157.76 69.768-157.76 156.197 0 91.115 70.81 156.197 157.76 156.197 86.95 0 157.498-65.082 157.498-156.197 0-86.429-67.685-156.197-157.498-156.197zm0 82.524c38.789-.26 70.549 32.802 70.549 73.673 0 40.611-31.76 73.673-70.55 73.673-38.788 0-70.548-33.062-70.548-73.673 0-40.871 31.76-73.673 70.549-73.673zM1000 644.472c0 30.198-24.47 54.669-54.669 54.669-30.198 0-54.669-24.471-54.669-54.67 0-30.197 24.47-54.668 54.669-54.668 30.198 0 54.669 24.47 54.669 54.669zM840.861 688.738h-85.908v-387.89h85.908z"/><path d="M0 688.738l156.197-387.89H236.9l153.594 387.89H281.155l-18.223-54.669H127.56l-18.223 54.67zm236.899-135.37h-80.702l40.351-130.165z" fill-rule="evenodd"/></svg>