<svg xmlns="http://www.w3.org/2000/svg" fill="none" width="54.022" height="54.022"><path fill-rule="evenodd" clip-rule="evenodd" d="M39.6 25.508h1.2c.2-.4.2-1.2 0-2.1-.2-1.3-.6-2-1.3-2-.8.2-.8 1.1-.5 2.4.1.7.4 1.3.7 1.7zm-6.3 1c.5.3.8.4 1 .3l-.1-.5c-.3-.4-.8-.8-1.4-1a3.8 3.8 0 00-3.7.4c-.3.2-.7.6-.6.8l.2.1c.3 0 1.3-.4 2.5-.5.8 0 1.5.2 2 .4zm-1.1.7c-.7 0-1 .3-1.3.5l-.4.5v.2h.2l.5-.1c1-.4 1.6-.3 2.2-.3h.6v-.2c-.1-.3-.9-.8-1.8-.6zm5.3 2.2c.5.2 1 .2 1.2-.2.1-.3-.1-.8-.6-1-.4-.3-1-.2-1.1.2-.2.3 0 .8.5 1zm3-2.7c-.3 0-.6.5-.7 1 0 .5.3 1 .7 1 .4 0 .7-.5.7-1s-.3-1-.6-1zm-26.1 9.5c-.2 0-.3.1-.4 0a.8.8 0 01-.7-.2v-1.2l.2-.2c.3-.7.8-1.8.2-3a2.6 2.6 0 00-2-1.4c-.8-.1-1.7.2-2.2.8-.9 1-1 2.2-.8 2.7l.2.2c.1 0 .4-.1.5-.5 0-.3.2-.6.4-1 .2-.3.5-.5 1-.6.4 0 .8 0 1.1.2.6.4.8 1.2.6 1.9-.1.3-.4 1-.3 1.6 0 1.1.8 1.6 1.4 1.6.6 0 1-.3 1.2-.5v-.3c-.1-.1-.3 0-.4 0zm36 1.8c-.5 2.3-1.5 4.3-3.2 6-1 1.2-2.3 2.2-3.7 2.9l-2.4 1c-6.4 2.1-13-.2-15.1-5.2a10.3 10.3 0 011.8-10.7l.3-.6-.2-.5c-.9-1.3-3.8-3.3-3.2-7.4.4-2.8 3-4.9 5.3-4.8h.6l2.7.3c1.4 0 2.7-.1 4.2-1.4.5-.4.9-.8 1.6-.9h.6c.3 0 .7 0 1 .3 1.2.8 1.4 2.7 1.4 4.1l.2 3.3c0 1.3.4 1.5 1 1.7l1.3.4a7 7 0 013.2 1.5c.3.4.5.7.5 1.1.2 1.4-1 3-4.3 4.6a22 22 0 01-11 1.8l-1-.2c-2.5-.3-3.8 2.9-2.4 5 1 1.4 3.5 2.3 6 2.3 5.9 0 10.3-2.5 12-4.7l.1-.2c.1-.1 0-.2 0 0-1.4.8-7.5 4.6-14 3.4 0 0-.7 0-1.4-.4-.6-.2-1.8-.7-2-2 5.3 1.6 8.6.1 8.6.1v-.1l-.1-.2s-4.3.7-8.3-.8c.4-1.5 1.6-1 3.3-.8 3.2.2 6.1-.3 8.2-.9 1.8-.5 4.2-1.6 6.1-3 .6 1.3.9 2.9.9 2.9s.5-.1.9.1c.3.3.6.8.4 2zm-29.8-22.8c2-2.4 4.5-4.4 6.7-5.5h.1l-.6 1.6c0 .1 0 .2.1.1 1.4-1 3.8-2 5.9-2 0 0 .1 0 0 .1a5 5 0 00-.9 1h.1c1.5 0 3.6.6 5 1.4 0 0 0 .2-.2.2a19.9 19.9 0 00-16 3.2c-.2 0-.3 0-.2-.1zm-10.4 11a7 7 0 00-4.4 2.9 12 12 0 01-1.9-1.8c-1.5-3 1.7-8.8 4-12.1 5.7-8 14.5-14.2 18.7-13.1.6.2 2.8 2.7 2.8 2.7s-4 2.3-7.8 5.5a36 36 0 00-11.3 16zm3 13.7h-.8c-2.7 0-5.7-2.5-6-5.4-.3-3.2 1.3-5.7 4.3-6.3a5 5 0 011.2-.1c1.6 0 4 1.3 4.6 5 .5 3-.3 6.3-3.3 6.8zm37-5.7l-.3-1.3-.5-1.2a3.8 3.8 0 00-.4-5.2 9 9 0 00-3.9-2l-1-.2v-3.4c0-.7-.1-1.8-.5-3a8 8 0 00-2-3.6c2.5-2.6 4-5.5 4-8 0-4.6-5.8-6-12.9-3l-1.5.5-2.6-2.7c-8.1-7-33.4 21.2-25.3 28l1.7 1.6a8.8 8.8 0 00-.4 4 8 8 0 002.7 5.1 8.3 8.3 0 005.3 2.2 20.5 20.5 0 0018.8 12c9 .3 16.7-4 19.8-11.7.2-.5 1.1-3 1.1-5 0-2.2-1.2-3.1-2-3.1z" fill="#241c15"/></svg>