<svg xmlns="http://www.w3.org/2000/svg" width="346.246" height="346.246" viewBox="0 0 91.611 91.611"><path fill="#2b81bd" d="M84.483 14.79c-.035.063-.06.129-.1.189L59.54 58.005a4.655 4.655 0 01-6.363 1.703 4.663 4.663 0 01-1.706-6.364l22.282-38.591H18.401L29.004 31.72l-5.275 9.137-16.3-26.087A7.786 7.786 0 000 22.516v46.579a7.786 7.786 0 007.125 7.729c.034-.063.06-.13.098-.19L32.065 33.61a4.66 4.66 0 018.07 4.658l-22.28 38.591h55.352L62.632 59.934l5.276-9.137 16.277 26.047a7.78 7.78 0 007.426-7.746V22.519a7.79 7.79 0 00-7.128-7.729zM39.977 60.553a4.663 4.663 0 01-4.033-6.991l11.645-20.167a4.66 4.66 0 018.07 4.657L44.014 58.22a4.643 4.643 0 01-4.037 2.334z"/></svg>