<svg xmlns="http://www.w3.org/2000/svg" width="25.212" height="25.212"><path fill="#c02428" d="M12.647 7.888c-2.602 0-4.798 2.115-4.798 4.799a4.755 4.755 0 004.798 4.798c2.602 0 4.797-2.115 4.797-4.798 0-2.684-2.195-4.799-4.797-4.799zm-7.48 4.717c0-4.066 3.333-7.4 7.4-7.4 4.064 0 7.398 3.334 7.398 7.4 0 .244 0 .57-.08.814-.083.731.487 1.3 1.22 1.3 1.22 0 1.381-1.544 1.381-2.114 0-5.449-4.473-9.922-9.92-9.922-5.449 0-9.92 4.473-9.92 9.922 0 5.45 4.471 9.922 9.92 9.922 2.927 0 5.53-1.22 7.318-3.253l2.032 1.708c-2.195 2.603-5.61 4.23-9.27 4.23A12.564 12.564 0 01.043 12.604C.043 5.692 5.653 0 12.647 0 19.558 0 25.17 5.693 25.17 12.606c0 2.765-1.3 5.043-3.984 5.043-1.139 0-1.87-.57-2.277-1.139-1.3 2.115-3.66 3.497-6.343 3.497a7.375 7.375 0 01-7.4-7.4zm7.48-2.196c1.22 0 2.195.976 2.195 2.196 0 1.22-.976 2.196-2.195 2.196a2.187 2.187 0 01-2.196-2.196c0-1.22.976-2.196 2.196-2.196z"/></svg>