<svg xmlns="http://www.w3.org/2000/svg" viewBox="0 0 62.8 50.2"><path fill="#09c269" d="M55.8 0H6.9A6.9 6.9 0 0 0 0 6.8v43.5L9.5 41h46.4c3.8 0 6.9-3.1 6.9-6.8V6.8a7 7 0 0 0-7-6.8z"/><path fill="#fff" d="M46.8 15.8c5.2 0 7.6 4.1 7.6 8 0 1-.8 1.8-1.8 1.8H43c.5 2.3 2.1 3.6 4.7 3.6 1.9 0 2.9-.4 3.9-.9l.7-.2c.9 0 1.7.7 1.7 1.6 0 .6-.4 1.1-1 1.5-1.3.7-2.7 1.4-5.5 1.4-5.2 0-8.3-3.1-8.3-8.4-.1-6.1 4.1-8.4 7.6-8.4zm-15.3-2.6c.6 0 1 .5 1 1v1.9h2.9c.9 0 1.7.7 1.7 1.6 0 .9-.7 1.6-1.7 1.6h-2.9V28c0 1.2.6 1.3 1.5 1.3l1.1-.1.7-.1c.7 0 1.6.6 1.6 1.5 0 .6-.4 1.1-1 1.4-.9.4-1.7.6-2.7.6-3.2 0-4.9-1.5-4.9-4.4v-8.8h-1.7a1 1 0 0 1-1-1c0-.3.1-.6.4-.9l4-4c.2 0 .5-.3 1-.3zM12.8 9.4c1 0 1.8.8 1.8 1.8v19.4c0 1-.8 1.8-1.8 1.8s-1.8-.8-1.8-1.8V11.2c0-1 .8-1.8 1.8-1.8zm8.6 6.6c1 0 1.8.8 1.8 1.8v12.8c0 1-.8 1.8-1.8 1.8s-1.8-.8-1.8-1.8V17.8c0-1 .8-1.8 1.8-1.8zm25.5 3.1c-1.7 0-3.6 1-3.9 3.5h7.9c-.5-2.5-2.3-3.5-4-3.5zM21.5 9.9a2 2 0 0 1 2 2v.1a2 2 0 0 1-2 2h-.2a2 2 0 0 1-2-2v-.1c0-1.1.9-2 2-2h.2z"/></svg>