<svg xmlns="http://www.w3.org/2000/svg" width="466.582" height="466.582" viewBox="0 0 123.45 123.45"><path d="M82.285 96.222c-.76 1.83-3.352 3.808-4.873 3.808H3.998c.456 0-4.877 0-2.895-3.808l20.563-46.76c.761-1.522 2.741-3.502 4.57-3.502l81.18-11.88c1.98-.306 2.285 1.217 1.524 3.502l-26.655 58.64" fill="#78bedd"/><path d="M3.998 99.269h73.414c1.065 0 3.349-1.98 4.112-3.503l26.654-58.64c.458-1.064.458-1.83.458-2.285-.458 0-.458-.305-1.221 0l-81.18 11.88c-1.525 0-3.353 1.524-4.114 3.047L1.712 96.222c-.305 1.067-.305 1.524 0 1.83.456.761 1.523 1.217 2.286 1.217m0 1.524s-2.591 0-3.656-1.98c-.456-.761-.456-1.828 0-3.047l20.56-46.76c.764-1.826 3.047-3.807 5.333-3.807l80.876-11.88c1.067-.304 2.286 0 2.59.761.455.761.455 2.284 0 3.808L83.046 96.222c-1.065 2.285-3.808 4.571-5.634 4.571H3.998" fill="#0a8ac1"/><path d="M46.49 90.436l-.305-.46-21.778-41.275c-.457-.456-.457-.761 0-1.217h1.067l23.302 24.217 72.653-47.978c.306 0 .306-.306.306-.306.455 0 .76.306.76.306.456.455 0 .76-.305 1.217L47.254 89.976c0 .46-.304.46-.304.46h-.46" fill="#fff"/><path d="M122.19 22.657c-.455 0-.761.306-1.22.306L48.776 70.939l-23.302-24.52c-.305-.46 0 .301-.305.301-.46 0-.762 0-1.22.46-.76.305-1.066.305-.76.76l22.235 42.497c.305.303.76.76 1.067.76h.459c.304 0 .761-.457.761-.457l75.24-65.036c.306-.764.762-1.98.306-2.286-.306-.456-.761-.761-1.067-.761m-.455 1.828L46.95 89.672 24.71 48.244 48.47 72.77l73.265-48.284" fill="#0a8ac1"/><path d="M102.237 35.602L26.235 46.721h-.306l22.847 24.217z" fill="#3b97c7"/><path d="M103.761 34.536L25.474 46.72h.761L102.237 35.6l1.524-1.065M25.168 46.72H23.95v.46c.457-.46.76-.46 1.218-.46" fill="#0a8ac1"/><path d="M107.415 34.08L48.472 72.768 25.168 48.245l23.304 30.309" fill="#7babd3"/><path d="M107.415 34.08l-3.654.456-1.524 1.066-53.461 35.336L25.929 46.72h-.761c-.457 0-.761 0-1.219.457l1.22 1.067 23.303 24.523 58.943-38.688" fill="#0a8ac1"/></svg>