<svg xmlns="http://www.w3.org/2000/svg" fill="#142D6F" viewBox="0 0 48 48"><path fill-rule="evenodd" d="M16 0h16c8.837 0 16 7.163 16 16v16c0 8.837-7.163 16-16 16H16C7.162 48 0 40.837 0 32V16C0 7.162 7.163 0 16 0Zm2.802 28.313a2.906 2.906 0 0 0-2.062-.852h-.002a2.895 2.895 0 0 0-2.059.846 2.886 2.886 0 0 0-.843 2.06c0 .788.3 1.517.843 2.061a2.886 2.886 0 0 0 2.061.844c.788 0 1.517-.3 2.06-.844l.044-.043a2.859 2.859 0 0 0 .802-2.017c0-.782-.3-1.512-.844-2.055Zm-2.066-2.914h.006v.002h.005a4.962 4.962 0 0 1 3.514 1.455 4.979 4.979 0 0 1 1.45 3.511c0 1.3-.49 2.524-1.378 3.449l-.015.015-.016.015-.04.04a4.932 4.932 0 0 1-3.52 1.45 4.936 4.936 0 0 1-3.52-1.45 4.932 4.932 0 0 1-1.449-3.519 4.94 4.94 0 0 1 1.45-3.519 4.93 4.93 0 0 1 3.513-1.45Zm14.519 2.062a2.911 2.911 0 0 1 2.06.852 2.88 2.88 0 0 1 .848 2.053 2.9 2.9 0 0 1-.844 2.06 2.888 2.888 0 0 1-2.06.846c-.788 0-1.518-.3-2.061-.844a2.887 2.887 0 0 1-.844-2.06c0-.788.3-1.517.844-2.061a2.895 2.895 0 0 1 2.057-.846Zm.005-2.062h-.006a4.93 4.93 0 0 0-3.513 1.45 4.936 4.936 0 0 0-1.45 3.518c0 1.337.514 2.584 1.45 3.52a4.936 4.936 0 0 0 3.519 1.45 4.916 4.916 0 0 0 3.499-1.43h.002l.018-.02a4.943 4.943 0 0 0 1.45-3.52 4.92 4.92 0 0 0-1.451-3.511 4.966 4.966 0 0 0-3.51-1.455h-.006l-.002-.002Zm-.394-4.414.707-6.257L24 17.985l-7.573-3.257.707 6.257c2.522.7 4.88 2.004 6.866 3.791a17.17 17.17 0 0 1 6.866-3.791ZM14.38 14.961l-.399-3.531h.004l3.262 1.404 6.758 2.907 6.757-2.907 3.263-1.404-.4 3.53-.707 6.258-.155 1.383-1.343.372a15.126 15.126 0 0 0-6.037 3.335l-1.38 1.241-1.38-1.24a15.138 15.138 0 0 0-6.038-3.337l-1.342-.37-.156-1.384-.707-6.257Z" clip-rule="evenodd"/></svg>
