<svg viewBox="0 0 90 64" xmlns="http://www.w3.org/2000/svg" xmlns:xlink="http://www.w3.org/1999/xlink"><defs><linearGradient x1="98.442%" y1="26.186%" x2="1.488%" y2="68.342%" id="a"><stop stop-color="#6D00CC" offset="0%"/><stop stop-color="#9C2AE0" offset="49.865%"/><stop stop-color="#F0F" offset="100%"/></linearGradient><path d="M87.835 76.201H72.166a2.169 2.169 0 0 1-2.164-2.173V15.972c0-1.2.969-2.173 2.164-2.173h15.67c.573 0 1.124.228 1.53.636.406.407.634.96.634 1.537v58.056c0 .577-.228 1.13-.634 1.537a2.161 2.161 0 0 1-1.53.636Zm-69.74-.752L44.07 23.58a2.176 2.176 0 0 0-.962-2.916L29.113 13.6a2.161 2.161 0 0 0-2.906.966L.23 66.437a2.176 2.176 0 0 0 .962 2.917l14 7.061a2.161 2.161 0 0 0 2.902-.966Zm38.446-.201 11.115-56.543a2.172 2.172 0 0 0-1.694-2.55l-15.36-3.112a2.158 2.158 0 0 0-1.63.323c-.478.32-.81.82-.921 1.386L36.936 71.295a2.172 2.172 0 0 0 1.695 2.55l15.359 3.112a2.158 2.158 0 0 0 1.63-.323c.478-.32.81-.82.921-1.386Z" id="b"/></defs><use fill="url(#a)" xlink:href="#b" transform="translate(0 -13)" fill-rule="evenodd"/></svg>