<svg xmlns="http://www.w3.org/2000/svg" viewBox="0 0 90 64"><defs><linearGradient id="a" x1="89" x2="1" y1="17" y2="44" gradientUnits="userSpaceOnUse"><stop offset="0" stop-color="#6D00CC"/><stop offset=".5" stop-color="#9C2AE0"/><stop offset="1" stop-color="#F0F"/></linearGradient></defs><path fill="url(#a)" d="M87.83 63.2H72.17c-1.2 0-2.17-.97-2.17-2.17V2.97c0-1.2.97-2.17 2.17-2.17h15.67c1.2 0 2.17.97 2.16 2.17v58.06c0 1.41-.92 2.17-2.17 2.17zm-69.73-.75 25.97-51.87c.54-1.07.1-2.38-.96-2.92L29.1.6a2.16 2.16 0 0 0-2.9.97L.23 53.44a2.18 2.18 0 0 0 .96 2.91l14 7.07c1.27.22 2.42-.08 2.91-.97zm38.44-.2L67.66 5.7a2.17 2.17 0 0 0-1.7-2.55L50.6.05c-1.42-.29-2.32.54-2.55 1.7L36.94 58.3a2.17 2.17 0 0 0 1.7 2.55l15.35 3.1c1.42.29 2.32-.53 2.55-1.7z"/></svg>
