<svg xmlns="http://www.w3.org/2000/svg" viewBox="0 0 36.25 30.92"><path fill="#ff6740" d="M32.54 19.67H6.22a.58.58 0 0 1 0-1.17h26.32a.58.58 0 0 1 0 1.17zm0 2.22H6.22a.58.58 0 1 1 0-1.17h26.32a.58.58 0 0 1 0 1.17z"/><path fill="#ff6740" d="M28.23 21.23v3.91l1.68-.97 1.67.97v-3.91h-3.35z"/><path fill="#272b30" d="M33.72 8.87h-4.4v2.44h4.4V8.87Z"/><path fill="#f1f1f1" d="m36.08 11.93-.07-.06a6 6 0 0 1-1.26-1.53l-.01-.02a5.91 5.91 0 0 1-.72-2.15L34 8.03v-.01a1.51 1.51 0 0 0-.32-.73l-.05-.05a10.43 10.43 0 0 0-5.3-3.2 6.57 6.57 0 0 1 .8-3.48.38.38 0 0 0-.32-.56h-.03a13.7 13.7 0 0 0-6.96 3.33 13.8 13.8 0 0 0-2.85 3.56 12.62 12.62 0 0 0-1.73-.76 12.86 12.86 0 0 0-5.53-.7 12.77 12.77 0 0 0-4.17 1.1A12.9 12.9 0 0 0 0 18.28v3.23c0 .56.08 1.1.24 1.6a5.55 5.55 0 0 0 2.6 3.23 5.5 5.5 0 0 0 2.55.7h8.21a1.62 1.62 0 0 1 .25 0l.04.01h.06a1.94 1.94 0 0 1 1.7 1.7 1.3 1.3 0 0 1 .02.24V29a1.95 1.95 0 0 0 .92 1.62 1.94 1.94 0 0 0 2.95-1.52.94.94 0 0 0 0-.07v-.11a6 6 0 0 0-.3-1.9 5.82 5.82 0 0 0-1.43-2.25 5.82 5.82 0 0 0-4.08-1.67H6.78a2.92 2.92 0 0 1-2.87-2.92 2.92 2.92 0 0 1 2.92-2.92h26.1a1.52 1.52 0 0 0 1.45-1.05l.02-.07c.09-.3.27-.55.5-.74a.64.64 0 0 1 .07-.04.93.93 0 0 1 .08-.06 2.98 2.98 0 0 0 1.03-3.38zm-3.49-1.17a.38.38 0 0 1-.17-.04 2.04 2.04 0 0 0-1.43-.23 2 2 0 0 0-.59.21l-.04.02a.37.37 0 0 1-.37-.63l.04-.02a2.8 2.8 0 0 1 2.73 0l.04.02a.37.37 0 0 1-.2.67z"/><path fill="#e6e6e6" d="m36.08 11.93-.07-.06a6 6 0 0 1-1.26-1.53l-.01-.02a5.91 5.91 0 0 1-.72-2.15L34 8.03v-.01a1.51 1.51 0 0 0-.32-.73l-.05-.05a10.43 10.43 0 0 0-5.3-3.2 6.57 6.57 0 0 1 .8-3.48.38.38 0 0 0-.32-.56h-.03a13.7 13.7 0 0 0-6.96 3.33 13.8 13.8 0 0 0-2.85 3.56 12.62 12.62 0 0 0-1.73-.76 12.86 12.86 0 0 0-5.53-.7 12.77 12.77 0 0 0-4.17 1.1A12.9 12.9 0 0 0 0 18.28v3.23c0 .56.08 1.1.24 1.6a5.55 5.55 0 0 0 2.6 3.23 5.5 5.5 0 0 0 2.55.7h8.21a1.62 1.62 0 0 1 .25 0l.04.01h.06a1.94 1.94 0 0 1 1.7 1.7 1.3 1.3 0 0 1 .02.24V29a1.95 1.95 0 0 0 .92 1.62 1.94 1.94 0 0 0 2.95-1.52.94.94 0 0 0 0-.07v-.11a6 6 0 0 0-.3-1.9 5.82 5.82 0 0 0-1.43-2.25 5.82 5.82 0 0 0-4.08-1.67H6.78a2.92 2.92 0 0 1-2.87-2.92 2.92 2.92 0 0 1 2.92-2.92h26.1a1.52 1.52 0 0 0 1.45-1.05l.02-.07c.09-.3.27-.55.5-.74a.64.64 0 0 1 .07-.04.93.93 0 0 1 .08-.06 2.98 2.98 0 0 0 1.03-3.38zm-3.49-1.17a.38.38 0 0 1-.17-.04 2.04 2.04 0 0 0-1.43-.23 2 2 0 0 0-.59.21l-.04.02a.37.37 0 0 1-.37-.63l.04-.02a2.8 2.8 0 0 1 2.73 0l.04.02a.37.37 0 0 1-.2.67z"/><path fill="#ff6740" d="M19 6.82a7.35 7.35 0 0 0 7.15 5.92 7.2 7.2 0 0 0 5.26-2.3h-.02c-.13 0-.27.02-.4.05a1.94 1.94 0 0 0-.59.21.11.11 0 0 0-.04.03.37.37 0 0 1-.53-.33c0-.13.06-.24.16-.31l.04-.02a2.79 2.79 0 0 1 1.95-.3 7.52 7.52 0 0 0 1.3-2.9 10.41 10.41 0 0 0-4.95-2.83 6.57 6.57 0 0 1 .8-3.48.38.38 0 0 0-.32-.56h-.03a13.7 13.7 0 0 0-6.97 3.33 13.8 13.8 0 0 0-2.8 3.5z"/><path fill="#272b30" d="M34.15 13.8a13.64 13.64 0 0 0-.96-.25 16.82 16.82 0 0 0-2.9-.46c-.66-.06-1.31-.03-1.96.02l-.5.06-.47.09c-.33.04-.64.16-.96.22a7.18 7.18 0 0 1 1.9-.57 8.97 8.97 0 0 1 2-.08 11.15 11.15 0 0 1 1.97.31 9.68 9.68 0 0 1 1.88.67zm-.3.6a13.1 13.1 0 0 0-.97-.1 16.8 16.8 0 0 0-2.95-.03c-.65.04-1.3.17-1.93.31l-.47.13-.47.16c-.32.09-.6.25-.91.37a7.17 7.17 0 0 1 1.8-.85A8.96 8.96 0 0 1 29.9 14c.66-.05 1.33-.05 2 .02a9.73 9.73 0 0 1 1.95.38zm-.04.7-.98.1a16.84 16.84 0 0 0-2.88.62c-.63.18-1.23.44-1.82.72l-.43.23c-.15.08-.28.17-.42.26-.3.15-.54.37-.82.55a7.17 7.17 0 0 1 1.58-1.21 8.94 8.94 0 0 1 1.83-.8 11.13 11.13 0 0 1 1.96-.41 9.68 9.68 0 0 1 1.98-.05z"/><path fill="#f27baa" d="M36.02 11.87a6.04 6.04 0 0 1-.33-.3.97.97 0 0 0 .5 1.8h.02l.02-.12a2.95 2.95 0 0 0-.15-1.32z"/><path fill="#fff" d="M28 4.54v.14a10.4 10.4 0 0 0-3.17 2.02A5.56 5.56 0 0 1 29.17.47 7.58 7.58 0 0 0 28 4.54z"/><path fill="#ff6740" d="M17.81 24.79a5.84 5.84 0 0 0-.4-.36 4.51 4.51 0 0 0-3.25 2.66 1.94 1.94 0 0 1 1.51 1.89v.04a1.96 1.96 0 0 0 .92 1.61 1.94 1.94 0 0 0 2.96-1.6v-.1c0-.66-.11-1.3-.32-1.9a5.83 5.83 0 0 0-1.42-2.25z"/></svg>
