<svg xmlns="http://www.w3.org/2000/svg" width="29.683" height="29.683" fill="none"><g fill="#000"><path d="M14.841.16C6.644.16 0 6.733 0 14.84c0 8.11 6.644 14.682 14.841 14.682s14.842-6.573 14.842-14.682C29.683 6.733 23.038.16 14.84.16zm7.046 18.282c-5.076 5.02-14.14 3.418-14.14 3.418S6.11 12.91 11.201 7.872c2.821-2.79 7.496-2.675 10.45.231 2.956 2.907 3.056 7.548.235 10.339z"/><path d="M16.544 8.764l-1.452 2.956-2.988 1.437 2.988 1.437 1.452 2.956 1.453-2.956 2.988-1.437-2.988-1.437z"/></g></svg>