<svg xmlns="http://www.w3.org/2000/svg" viewBox="0 0 179.2 124.8"><defs><linearGradient id="a" x1="82" x2="82" y1="126" y2="4.4" gradientUnits="userSpaceOnUse"><stop offset="0" stop-color="#151b4d"/><stop offset=".1" stop-color="#495d86"/><stop offset=".5" stop-color="#7d8ba9"/></linearGradient><linearGradient id="b" x1="3.5" x2="83.4" y1="106.5" y2=".5" gradientUnits="userSpaceOnUse"><stop offset="0" stop-color="#23c2f2"/><stop offset=".1" stop-color="#29b9ec"/><stop offset=".5" stop-color="#385daa"/></linearGradient><linearGradient id="c" x1="39.2" x2="151.5" y1="30.6" y2="2.6" gradientUnits="userSpaceOnUse"><stop offset="0" stop-color="#23c2f2"/><stop offset=".5" stop-color="#385daa"/></linearGradient></defs><path fill="url(#a)" d="M164 124.8H0L85.2 3.2l4.2.2ZM28 110.2h111L86.8 26.4Z"/><path fill="url(#b)" d="m95.4 13.6-8.8 13L28 110H10.2l75-106.4 4.2.2Z"/><path d="M164.2 124.8h-16L86.8 26.2 78.4 13l6.8-9.8L87.4 0l2 3.4z"/><path fill="url(#c)" d="m120 13.4 4.2-.4 55 89.8H163l-41.2-66.6-46.2 66.4H57.4Z"/><path d="m163 102.8-41.4-66.2-8.4-13.6 6.8-9.6 2.4-3.4 1.8 3 55 89.8z"/></svg>