<svg xmlns="http://www.w3.org/2000/svg" version="1.0" viewBox="0 0 512 512"><g fill="#03b6fc"><path d="M35.1 1.6A49.4 49.4 0 0 0 6.2 24.1C-.4 35.8 0 19.3 0 256c0 236.7-.4 220.2 6.2 231.9a51.1 51.1 0 0 0 17.9 17.9c11.7 6.6-4.8 6.2 231.9 6.2 236.7 0 220.2.4 231.9-6.2a51.1 51.1 0 0 0 17.9-17.9c6.6-11.7 6.2 4.8 6.2-231.9 0-236.7.4-220.2-6.2-231.9a51.1 51.1 0 0 0-17.9-17.9C476.2-.4 492.8 0 255.5.1 70.5.1 39.7.3 35.1 1.6z"/><path fill="#fff" d="M173.3 131.2c1.2 1.5 19 47.8 39.6 102.8a3493 3493 0 0 0 38.1 99.3c.4-.5 7.3-18.4 15.3-39.8 61-163.3 59.7-159.9 62.7-162.8l3-2.7h17c18 0 21 .5 23.5 4.3 1.4 2.2 4.4 25.7 11.5 91.2l9.5 85 7.5 68.7c0 1.6-1.3 1.8-14.4 1.8-16.3 0-18.7-.9-20.6-7.8-.8-3.2-5.1-38.3-10.5-87.2l-6.5-57.7-5-45.5c-.1-1.4-5.5 13-32 85.2-41 111.8-39.3 107.3-43.1 111.1-1.7 1.7-3.4 1.9-17.8 1.9h-15.8l-2.8-2.8c-3.5-3.4-5.7-8.6-15.5-35.2l-18.5-50.5-15.5-42c-13-35.6-22.9-62.3-24-65-1.4-3.3-.8-7.9-12.4 94.5l-7.6 66.5-3 26.7a19 19 0 0 1-3.1 4.3l-3.1 3.5h-30l.6-3.8 7.1-62.2 9-81 6.5-59a608 608 0 0 1 5.2-39.3c2-5.2 4.5-5.7 24.6-5.4l18.4.2z"/></g></svg>