<svg xmlns="http://www.w3.org/2000/svg" viewBox="0 0 512 512"><path d="m120.83 354.2-12.6 35.74h-3.38L91.44 354.2l-3.38 27.55c-.1.51-.1 1.33-.1 1.64 0 3.28 1.43 3.99 6.35 4.2v2.36H78.75v-2.36c3.79-.2 5.02-.92 5.53-3.89l4.2-33.18c.51-3.58-1.33-4.71-5.63-4.92v-2.25H97.8c.1 1.43.51 2.56.92 4.1l10.85 28.88 10.04-29.08c.61-1.43.92-2.56 1.02-3.99h14.75v2.25c-4.3.2-5.94 1.33-5.53 4.92l4.1 33.18c.31 3.17 1.74 3.79 5.53 3.89v2.36h-21.5v-2.36c4.61-.2 6.25-.92 6.25-4.2 0-.31 0-1.02-.1-1.64l-3.3-27.46zm52.94 31.23c-.82.31-1.74.72-2.66.72-1.64 0-2.25-1.54-2.25-3.79v-17.61c0-7.88-4.61-10.85-13-10.85-7.48 0-13.21 2.76-13.21 8.4 0 2.97 1.84 4.81 4.71 4.81 3.07 0 5.02-1.84 5.02-4.71 0-2.15-1.13-3.79-3.28-4.2.92-1.43 2.76-2.25 5.94-2.25 3.38 0 4.71 2.66 4.71 6.55v5.63l-10.04 3.58c-4.92 1.74-9.01 4.2-9.01 9.83 0 5.22 3.48 8.5 8.91 8.5 4.81 0 8.29-2.97 10.44-5.73.72 3.58 3.07 5.84 6.66 5.84 3.07 0 5.63-1.33 7.48-3.48l-.42-1.24zm-14.03-2.45c-1.84 1.43-3.17 2.15-5.12 2.15-3.48 0-5.12-2.36-5.12-5.84 0-3.79 1.74-5.12 4.61-6.35l5.73-2.25v12.29h-.1zm15.36 4.19-.51-9.11h2.46c1.54 5.73 4.81 10.04 9.93 10.04 3.58 0 6.35-1.64 6.35-5.43 0-3.58-2.46-5.02-7.58-6.86-7.07-2.46-10.75-5.22-10.75-11.37 0-6.66 5.02-10.55 12.29-10.55 4.3 0 7.99 1.02 10.85 2.76v8.09h-2.25c-1.13-4.71-3.89-8.7-8.5-8.7-3.38 0-5.43 1.95-5.43 4.92 0 2.97 2.15 4.4 7.27 6.35 7.17 2.46 11.37 5.12 11.37 11.67 0 7.07-5.22 11.26-13.41 11.26-5.12.21-9.32-1.02-12.09-3.07zm39.74-32.66h8.7v3.07h-8.7v22.12c0 3.99 1.54 5.73 4.71 5.73 1.74 0 3.28-.61 4.92-1.74l.92 1.13c-2.15 3.28-5.53 5.73-10.34 5.73-5.43 0-9.32-2.76-9.32-10.34v-22.63h-4.1v-1.23c4.61-2.15 8.4-5.73 11.37-10.14h2.15l-.31 8.3zm39.62 24.27c-2.46 3.38-5.43 5.43-9.93 5.43-6.55 0-11.26-5.63-10.96-14.85h21.71v-1.54c0-7.99-4.71-13.82-13.72-13.82-9.01 0-16.38 7.88-16.38 19.25 0 10.14 6.55 17.31 16.18 17.31 7.58 0 12.49-4.61 14.13-11.16l-1.03-.62zm-13.62-22.33c4.3 0 5.94 4.2 5.94 10.55h-13.21c.62-6.14 2.77-10.55 7.27-10.55zm81.21-9.93.1 10.65h-2.56c-1.54-7.58-5.43-11.78-11.98-11.78-9.11 0-13.31 9.11-13.31 20.48 0 12.39 4.92 21.81 13.93 21.81 6.35 0 10.55-3.99 12.8-13.62h2.66l-1.02 12.49c-3.89 2.46-9.01 3.99-15.36 3.99-14.54 0-23.45-9.01-23.45-22.84 0-15.46 10.34-25.29 23.45-25.29 6.14.12 11.05 1.45 14.74 4.11zm16.89 38.2c0 2.36.92 2.66 4.1 2.97v2.25h-17.61v-2.25c3.07-.2 4.1-.61 4.1-2.97v-35.43l-3.89-2.15v-1.43l11.78-3.17h1.54v42.18zm38.4.71c-.82.31-1.74.72-2.66.72-1.74 0-2.25-1.54-2.25-3.79l.1-17.61c0-7.88-4.71-10.85-13.11-10.85-7.48 0-13.21 2.76-13.21 8.4 0 2.97 1.84 4.81 4.71 4.81 3.07 0 5.02-1.84 5.02-4.71 0-2.15-1.13-3.79-3.28-4.2.92-1.43 2.76-2.25 5.94-2.25 3.38 0 4.71 2.66 4.71 6.55v5.63l-10.04 3.58c-4.92 1.74-9.01 4.2-9.01 9.83 0 5.22 3.48 8.5 8.91 8.5 4.81 0 8.29-2.97 10.44-5.73.72 3.58 3.07 5.84 6.66 5.84 3.07 0 5.63-1.33 7.48-3.48l-.41-1.24zm-14.02-2.45c-1.84 1.43-3.17 2.15-5.12 2.15-3.48 0-5.12-2.36-5.12-5.84 0-3.79 1.84-5.22 4.61-6.35l5.73-2.25v12.29h-.1zm15.56 4.19-.31-9.11h2.46c1.43 5.73 4.81 10.04 9.93 10.04 3.58 0 6.35-1.64 6.35-5.43 0-3.58-2.46-5.02-7.68-6.86-7.07-2.46-10.75-5.22-10.75-11.37 0-6.66 5.02-10.55 12.39-10.55 4.2 0 7.99 1.02 10.75 2.76v8.09h-2.25c-1.02-4.71-3.89-8.7-8.5-8.7-3.48 0-5.53 1.95-5.53 4.92 0 2.97 2.15 4.4 7.27 6.35 7.27 2.46 11.47 5.12 11.47 11.67 0 7.07-5.43 11.26-13.62 11.26-5.22.21-9.32-1.02-11.98-3.07zm28.77 0-.31-9.11h2.46c1.43 5.73 4.81 10.04 9.93 10.04 3.58 0 6.35-1.64 6.35-5.43 0-3.58-2.56-5.02-7.58-6.86-7.17-2.46-10.75-5.22-10.75-11.37 0-6.66 5.02-10.55 12.39-10.55 4.2 0 7.99 1.02 10.75 2.76v8.09h-2.25c-1.02-4.71-3.89-8.7-8.5-8.7-3.48 0-5.43 1.95-5.43 4.92 0 2.97 1.95 4.4 7.17 6.35 7.27 2.46 11.37 5.12 11.37 11.67 0 7.07-5.22 11.26-13.41 11.26-5.22.21-9.32-1.02-12.19-3.07zM278.32 354.1c-3.58 0-5.94 2.56-8.5 9.83l.2-9.83h-1.54l-11.98 3.58v1.33l3.99 2.46v23.45c0 2.36-1.02 2.66-4.1 2.97v2.25h18.94v-2.25c-4.1-.31-5.63-.72-5.63-3.38v-17.1c.92-2.36 2.05-4.3 3.58-6.04.82 1.54 2.25 2.56 4.2 2.56 3.17 0 5.22-2.15 5.22-5.02.03-3.17-1.71-4.81-4.38-4.81zM152.47 121.34h73.42s20.99 72.7 26.93 92.67c3.28 10.85 9.01 16.49 21.91 15.05L256 292.04h-37.48s-28.88-104.76-39.32-141c-2.56-8.91-4.61-15.77-15.36-15.77h-11.47v-13.93h.1zm136.09 0h56.01s27.14 97.48 41.78 143.67c2.15 6.86 5.63 10.96 13.52 11.26 3.07.1 12.08 0 12.08 0v15.87H337.3l-48.74-170.8zM101.58 276.58h64.82v15.46h-64.82z" style="fill:#ef4562"/></svg>