<svg class="c-matalan-plain-logo--small" xmlns="http://www.w3.org/2000/svg" width="56" height="56" viewBox="0 0 56 56">
    <g fill="none" fill-rule="evenodd">
        <path fill="#AD1E1F" d="M0 56h56V0H0z"/>
        <path fill="#FFF" fill-rule="nonzero" d="M50.5 6.75h-5a.75.75 0 1 0 0 1.5h5a.75.75 0 1 0 0-1.5zm-10 0h-5a.75.75 0 1 0 0 1.5h5a.75.75 0 1 0 0-1.5zm-10 0h-5a.75.75 0 1 0 0 1.5h5a.75.75 0 1 0 0-1.5zm-10 0h-5a.75.75 0 1 0 0 1.5h5a.75.75 0 1 0 0-1.5zm-10 0h-5a.75.75 0 0 0 0 1.5h5a.75.75 0 1 0 0-1.5z"/>
        <path fill="#FEFEFE" d="M39.02 20.143h-2.792l-8.701 19.1-8.702-19.1h-2.792L13 42.626h2.4l2.529-18.823 8.537 18.826 1.06-.002 1.062.002 8.537-18.826 2.529 18.823h2.4z"/>
    </g>
</svg>
