<svg xmlns="http://www.w3.org/2000/svg" width="47" height="47"><path d="M39.969 19.6c-.862-2.382-1.616-4.833-2.465-7.231-.918-2.6-1.871-5.096-3.148-7.311-.53-.92-1.842-3.062-3.246-3.058-.426.003-.731.182-1.018.368-.907.583-2.032 2.467-2.592 3.471-.848 1.521-2.54 4.029-3.785 5.494-.417.49-.817 1.067-1.305 1.481-.762.644-1.73 1.511-2.72 1.91-.309.127-.692.172-1.018.29-.782.273-1.37.602-1.956 1.098-1.015.856-1.953 1.97-2.783 3.009-.18.223-.427.552-.67.862l4.374 3.408c3.422-4.06 7.204-7.954 9.931-15.28 0 0-.949 8.16-7.993 16.613-4.325 5.188-8.062 7.906-8.575 8.453 0 0 1.306-.226 2.286.176 2.273.935 3.471 4.24 4.464 6.599.699 1.664 1.49 3.356 2.18 5.048 2.263-.502 3.795-1.613 5.297-2.882 1.618-1.37 3.067-3.194 4.436-4.827 2.641-3.145 6.02-7.437 10.016-5.476.655.327 1.362.791 1.902 1.225.81.655 1.464 1.325 2.25 1.99 1.38 1.167 2.1 2.08 3.169 2.708-2.714-5.868-4.758-11.84-7.031-18.138M8.867 32C6.54 30.478 3.42 28.41 0 26.222c4.04-1.52 7.845-2.668 11.957-4.222L17 25.43c-3.93 3.824-6.177 5.248-8.133 6.57" fill="#004b87" fill-rule="evenodd"/></svg>