<svg xmlns="http://www.w3.org/2000/svg" width="81.902" height="81.902"><defs><filter id="a" x="-.069" width="1.139" y="-.098" height="1.195" color-interpolation-filters="sRGB"><feGaussianBlur stdDeviation="1.88"/></filter></defs><path transform="translate(-7.746 -8.243) scale(.96527)" d="M65.969 51.433c-4.123 0-7.747-2.117-9.857-5.32h-.007l-8.96-12.667h-.013c-2.079-3.366-5.791-5.617-10.038-5.617s-7.959 2.251-10.038 5.617h-.012L12.773 55.689a11.787 11.787 0 019.779-5.193c4.284 0 8.024 2.289 10.092 5.704h.015l9.326 13.092h.014c2.15 2.91 5.595 4.808 9.491 4.808s7.341-1.897 9.49-4.808h.016l.095-.148c.243-.341.471-.692.678-1.058l13.972-21.837a11.792 11.792 0 01-9.772 5.184M77.771 39.63c0-6.518-5.284-11.802-11.802-11.802S54.167 33.112 54.167 39.63s5.284 11.802 11.802 11.802 11.802-5.284 11.802-11.802" opacity=".5" filter="url(#a)"/><path fill="#95c748" d="M80.146 44.9l.011-.008-.212-.323-.097-.147L65.272 22.22 46.417 36.268l13.782 21.213.176.271.073.112.008-.005c2.136 3.03 5.656 5.014 9.644 5.014 6.518 0 11.802-5.283 11.802-11.802 0-2.266-.649-4.375-1.756-6.172"/><path fill="#35bfc0" d="M23.604 51.071c0-6.518-5.284-11.802-11.802-11.802S0 44.553 0 51.071s5.284 11.803 11.802 11.803 11.802-5.285 11.802-11.803"/><path fill="#f38334" d="M67.021 28.404c0-6.518-5.284-11.802-11.802-11.802s-11.802 5.284-11.802 11.802 5.284 11.802 11.802 11.802 11.802-5.284 11.802-11.802"/><path fill="#3152a0" d="M55.219 40.207c-4.123 0-7.747-2.117-9.857-5.32h-.007l-8.96-12.667h-.013c-2.079-3.366-5.791-5.617-10.038-5.617s-7.959 2.251-10.038 5.617h-.012L2.023 44.463a11.787 11.787 0 019.779-5.193c4.284 0 8.024 2.29 10.092 5.704h.015l9.326 13.092h.014c2.15 2.91 5.595 4.808 9.491 4.808s7.341-1.897 9.49-4.808h.016l.095-.148c.243-.34.471-.692.678-1.058l13.972-21.837a11.792 11.792 0 01-9.772 5.184"/></svg>