<svg xmlns="http://www.w3.org/2000/svg" xml:space="preserve" viewBox="0 0 219 219"><path fill="#213059" fill-rule="evenodd" d="m147 89.5-.8-32.5-.6-18.7-.4-16.2s0-7.8-.2-9.6a3 3 0 0 0-.4-1.1v-.1a2.5 2.5 0 0 0-3.3-1.1l-.2.1a3 3 0 0 0-.8.6c-1.3 1.3-6 7.5-6 7.5L124.1 31l-11.8 14.5-20.4 25.3s-9.4 11.7-7.3 26a29.9 29.9 0 0 0 21 24.2 30 30 0 0 0 31.4-6.4c10.4-10.2 10-25.1 10-25.1m27-68.6 1.1 23.2a78.6 78.6 0 0 1 17 78c-14 41.4-60.2 63.2-103.2 48.6-43-14.5-66.4-59.8-52.4-101.2a78.6 78.6 0 0 1 61-51.8l15-17.7A109.5 109.5 0 1 0 174 21"/></svg>