<svg xmlns="http://www.w3.org/2000/svg" width="266.667" height="157.333" viewBox="0 0 200 118" preserveAspectRatio="xMidYMid meet" xmlns:v="https://vecta.io/nano"><path d="M90.6 17.5c-9.5 3.4-16.5 12.6-17.3 22.8-1 11.7 3.7 20.6 13.8 26.2 4.6 2.6 6.5 3 12.9 3s8.3-.4 12.9-3c2.9-1.6 6.6-4.5 8.2-6.4 8.6-10.5 7.5-27.7-2.5-37l-2.6-2.4v2.7c0 1.5.9 4 2 5.5 6 8.5 3.6 21-5.1 26.8-5.9 3.9-14.7 4.4-20.9 1.1-8.1-4.4-12.3-13.2-10.6-22.3.9-4.7 6.5-10.9 12-13.1 2.4-1 4.9-2.6 5.5-3.6 1-1.6.8-1.8-1.6-1.8-1.6.1-4.5.7-6.7 1.5zm10.7 8.8c-5.8 7-7.3 9.5-7.3 12.1 0 6.7 8.3 10.1 12.9 5.3 2-2.2 2.1-3.2 1.9-14.3l-.3-11.9-7.2 8.8zM21.5 90.9c-.7 10.1-.4 12.1 1.9 12.1 1.3 0 2.5-5.8 2.7-12.4 0-2.9.2-2.7 2.2 2.1 2.8 6.8 4.9 6.9 8.1.5l2.4-4.7.6 4.5.8 7c.2 1.7.9 2.5 2.2 2.5 1.7 0 1.9-.8 1.7-9.9-.1-5.5-.4-10.4-.7-10.8s-1.5-.8-2.8-.8c-1.7 0-2.8 1.3-5 5.7l-2.8 5.8-2.9-5.8c-2.3-4.5-3.4-5.7-5.3-5.7-2.3 0-2.4.3-3.1 9.9zm42.2-6.3c-1.5 2.1-2.3 4-1.7 4.2.5.2 1 2.7 1 5.6 0 6.1 1.2 7.6 5.7 7.6 3.8 0 4.7-2.7 1.1-3.2-2-.3-2.3-1-2.6-5.1-.3-4.2-.1-4.7 1.7-4.7 1.2 0 2.1-.7 2.1-1.5s-.9-1.5-1.9-1.5c-1.4 0-2.1-.8-2.3-2.6-.3-2.7-.3-2.7-3.1 1.2zm11.9.1c-1.9 2.3-2.5 3.8-1.8 4.1.7.2 1.2 2.4 1.2 5.6 0 5.9 1.2 7.6 5.2 7.6 3.3 0 3.9-2.5.8-3.3-1.6-.4-2-1.4-2-5.1 0-3.9.3-4.6 2-4.6 1.1 0 2-.7 2-1.5s-.9-1.5-1.9-1.5c-1.3 0-2.1-.8-2.3-2.5-.3-2.5-.3-2.5-3.2 1.2zm95.2.3c-1.5 1.9-2.3 3.6-1.8 3.8.6.2 1 2.4 1 4.8 0 6.4 1.3 8.4 5.5 8.4 2.4 0 3.5-.5 3.5-1.5 0-.8-.8-1.5-1.9-1.5-2 0-3.1-2.5-3.1-7.3 0-2 .5-2.7 2-2.7 1.1 0 2-.7 2-1.5s-.9-1.5-1.9-1.5c-1.3 0-2.1-.8-2.3-2.2-.3-2.1-.5-2-3 1.2zM48 87.8c0 1.3.8 1.7 3.2 1.7 1.7 0 3.3.6 3.5 1.2.3.8-.5 1.3-2.1 1.3-2.7 0-6.6 3.1-6.6 5.2.1 3.6 5 6 10.4 5.1l3.6-.6v-5.6c0-7.7-1.8-10.1-7.6-10.1-3.5 0-4.4.3-4.4 1.8zm7 9.2c0 1.3-.7 2-2 2s-2-.7-2-2 .7-2 2-2 2 .7 2 2zm32-9.2c-2.7 2.2-3.3 9-1 11.7 3.3 3.9 12 4.3 12 .5 0-1.3-.5-1.7-2-1.3-2.9.8-7-.5-7-2.2 0-1.1 1.3-1.5 5-1.5 4.8 0 5-.1 5-2.8 0-5.6-7.2-8.3-12-4.4zm7.8 2.9c.2.9-.7 1.3-2.7 1.3-3 0-3.9-.9-2.4-2.4 1.1-1 4.6-.3 5.1 1.1zM101 94c0 7.8.1 8 2.5 8 2.2 0 2.4-.4 2.7-5.8.3-5 .6-5.7 2.6-6 1.4-.2 2.2-1 2.2-2.3 0-2.2-2.9-2.6-4.8-.7-.9.9-1.2.9-1.2 0 0-.7-.9-1.2-2-1.2-1.8 0-2 .7-2 8zm12 0c0 7.3.2 8 2 8 1.6 0 2-.7 2-3.8 0-5.5 1-8.2 3-8.2 2.2 0 3 1.9 3 7.6 0 3.7.3 4.4 2 4.4 1.6 0 1.9-.8 2.2-5.8s.6-5.7 2.6-6c2.1-.3 2.2 0 2.2 5.7 0 5.8.1 6.1 2.5 6.1s2.5-.3 2.5-5.4c0-8.1-1.2-10.6-5.3-10.6-1.8 0-3.8.5-4.4 1.1-.8.8-1.3.8-1.7 0-.9-1.5-5.9-1.4-7.4.1-.9.9-1.2.9-1.2 0 0-.7-.9-1.2-2-1.2-1.8 0-2 .7-2 8zm27-6c-2.6 2.6-2.7 8.9-.1 12.1 2.4 3 8.3 3.2 11.2.2 2.7-2.6 2.8-9.6.3-12.4-2.4-2.6-8.7-2.6-11.4.1zm7.8 2.2c2.5 2.5 1.1 8.8-1.9 8.8-2.7 0-4.3-3.8-3-7.3 1.1-2.9 2.9-3.5 4.9-1.5zm9.4-3c-.7.7-1.2 2.4-1.2 3.9 0 2.3.7 3 3.5 4 4.1 1.5 4.1 3.4-.1 3.4-2.8 0-5.2 2-3.9 3.3 1.1 1.1 8.4.5 10-.8.8-.7 1.5-2.6 1.5-4.2 0-2.4-.6-3.2-3.5-4.4-4.3-1.8-4.6-3.8-.5-3.2 2.6.4 4-.6 4-2.8 0-1-8.7-.3-9.8.8z"/></svg>