<svg xmlns="http://www.w3.org/2000/svg" viewBox="0 0 210.5 132"><path fill="#fff" d="M210.4 40.3h-32.6l-15 23.3-15-23.3h-9.5a88.7 88.7 0 0 0-33.9-38.5L101.5 0l-2.8 1.8a89 89 0 0 0-33.9 38.4h-6.4L43.8 65 26.4 40.3H0V132h28.5V95.4l15.3 18 14.7-18.1V132h31.6v-28.4h22.7V132h34.6l15.3-23.7L178 132h31.4v-1.4a3 3 0 0 0-.5-1.9l-27.2-42L209.9 43a2.4 2.4 0 0 0 .3-.7 4.8 4.8 0 0 0 .2-2ZM90 77.4c.2-17.7 1.6-28.2 11.5-38.7 9.2 10.2 11.3 21.6 11.5 38.7Zm51.1 15.1V81.4l3.9 5.3Z"/><path fill="#e41f18" d="M100.6 35.9c-12.1 12.2-13 24.6-13.1 42.7v1.3h28v-1.3c-.2-18.7-2.3-31.4-13.1-42.7l-.9-.9Zm.9 2.8c9.2 10.2 11.3 21.6 11.5 38.7H90c.2-17.7 1.6-28.2 11.5-38.7Zm100.6 6.8h-21.4l-17.9 27.7-17.9-27.7h-10.2c-5.9-18.9-23-32.7-33.2-39.3-10.3 6.6-27.3 20.4-33.2 39.3h-6.5l-18 29.3-20.7-29.3H5.3v81.2h17.9V78.8l20.6 24.9 20-24.9v47.9h21.1V98.3h33.3v28.4h26.5l18.2-28.2 18.2 28.2h20.4l-25.9-39.9ZM84.7 82.6c0-24.4.7-37 16.8-51.6 16.1 14.5 16.8 31.2 16.8 51.6Zm52.2 24.7V66.2l13.8 20.6Zm2.3-32.1v23.7l8.1-12.2Zm1.9 6.2 3.9 5.3-3.9 5.8Zm67.9 47.3-27.2-42L210 43a2.4 2.4 0 0 0 .3-.7 8.2 8.2 0 0 0 .2-2.1h-32.6l-15 23.3-15-23.3h-9.5a89.7 89.7 0 0 0-34-38.4L101.5 0l-2.8 1.8a89 89 0 0 0-33.9 38.4h-6.4L43.8 65 26.4 40.3H0V132h28.5V95.4l15.3 18 14.7-18.1V132h31.6v-28.4h22.7V132h34.6l15.3-23.7L178 132h31.4v-1.4a2.4 2.4 0 0 0-.4-1.9Zm-46.2-25-16.6 25.8h-30.8v-28.4H87.7v28.4H61.1V87.4l-17.2 21.2L26 87.4v42.1H2.5V42.7h22.6l18.8 26.9 15.9-26.9h6.7l.3-.8c7.5-19.9 25.8-33.2 33.3-38l1.5-1 1.5 1c7.5 4.8 25.8 18.1 33.3 38l.3.8h9.8l16.4 25.4 16.4-25.4h28l-28.4 44 27.7 42.7h-27.1c-.8-1-16.7-25.7-16.7-25.7Z"/></svg>