<svg xmlns="http://www.w3.org/2000/svg" viewBox="0 0 210.5 210.5"><path d="M210.4 63.55h-32.6s-13.2 20.5-15 23.3c-1.8-2.8-15-23.3-15-23.3h-9.5c-8-20.2-26.3-33.6-33.9-38.5l-2.9-1.8-2.8 1.8c-7.6 4.9-25.9 18.3-33.9 38.4h-6.4l-14.6 24.8-17.4-24.7H0v91.7h28.5v-36.6l15.3 18 14.7-18.1v36.7h31.6v-28.4h22.7v28.4h34.6s13.5-20.9 15.3-23.7c1.8 2.8 15.3 23.7 15.3 23.7h31.4v-1.4c0-.7 0-1-.5-1.9-6.6-10.2-26.5-40.9-27.2-42 .7-1.1 21.9-33.9 28.2-43.7.1-.2.2-.3.3-.7.3-.6.2-1.6.2-2zM90 100.65c.2-17.7 1.6-28.2 11.5-38.7 9.2 10.2 11.3 21.6 11.5 38.7zm51.1 15.1v-11.1l3.9 5.3z" fill="#fff"/><g fill="#e41f18"><path d="M100.6 59.15c-12.1 12.2-13 24.6-13.1 42.7v1.3h28v-1.3c-.2-18.7-2.3-31.4-13.1-42.7l-.9-.9zm.9 2.8c9.2 10.2 11.3 21.6 11.5 38.7H90c.2-17.7 1.6-28.2 11.5-38.7z"/><path d="M202.1 68.75h-21.4l-17.9 27.7-17.9-27.7h-10.2c-5.9-18.9-23-32.7-33.2-39.3-10.3 6.6-27.3 20.4-33.2 39.3h-6.5l-18 29.3-20.7-29.3H5.3v81.2h17.9v-47.9l20.6 24.9 20-24.9v47.9h21.1v-28.4h33.3v28.4h26.5l18.2-28.2 18.2 28.2h20.4l-25.9-39.9zm-117.4 37.1c0-24.4.7-37 16.8-51.6 16.1 14.5 16.8 31.2 16.8 51.6zm52.2 24.7v-41.1l13.8 20.6z"/><path d="M139.2 98.45v23.7l8.1-12.2zm1.9 6.2 3.9 5.3-3.9 5.8z"/><path d="M209 151.95c-6.6-10.2-26.5-40.9-27.2-42 .7-1.1 21.9-33.9 28.2-43.7.1-.2.2-.3.3-.7.2-.7.2-1.6.2-2.1h-32.6s-13.2 20.5-15 23.3c-1.8-2.8-15-23.3-15-23.3h-9.5c-8.1-20.1-26.4-33.5-34-38.4l-2.9-1.8-2.8 1.8c-7.6 4.9-25.9 18.3-33.9 38.4h-6.4l-14.6 24.8-17.4-24.7H0v91.7h28.5v-36.6l15.3 18 14.7-18.1v36.7h31.6v-28.4h22.7v28.4h34.6s13.5-20.9 15.3-23.7c1.8 2.8 15.3 23.7 15.3 23.7h31.4v-1.4c.1-.7.1-1-.4-1.9zm-46.2-25s-15.9 24.7-16.6 25.8h-30.8v-28.4H87.7v28.4H61.1v-42.1l-17.2 21.2-17.9-21.2v42.1H2.5v-86.8h22.6l18.8 26.9s15.2-25.8 15.9-26.9h6.7l.3-.8c7.5-19.9 25.8-33.2 33.3-38l1.5-1 1.5 1c7.5 4.8 25.8 18.1 33.3 38l.3.8h9.8c.7 1.1 16.4 25.4 16.4 25.4s15.7-24.3 16.4-25.4h28c-2.3 3.5-28.4 44-28.4 44s25.4 39.2 27.7 42.7h-27.1c-.8-1-16.7-25.7-16.7-25.7z"/></g></svg>
