<svg version="1.1" id="svg1719" width="210.5" height="210.5" xmlns="http://www.w3.org/2000/svg"><style type="text/css" id="style1705">.st1{fill:#e41f18}</style><g id="g1874" transform="translate(0 23.25)"><path d="M210.4 40.3h-32.6s-13.2 20.5-15 23.3c-1.8-2.8-15-23.3-15-23.3h-9.5c-8-20.2-26.3-33.6-33.9-38.5L101.5 0l-2.8 1.8c-7.6 4.9-25.9 18.3-33.9 38.4h-6.4L43.8 65 26.4 40.3H0V132h28.5V95.4l15.3 18 14.7-18.1V132h31.6v-28.4h22.7V132h34.6s13.5-20.9 15.3-23.7c1.8 2.8 15.3 23.7 15.3 23.7h31.4v-1.4c0-.7 0-1-.5-1.9-6.6-10.2-26.5-40.9-27.2-42 .7-1.1 21.9-33.9 28.2-43.7.1-.2.2-.3.3-.7.3-.6.2-1.6.2-2zM90 77.4c.2-17.7 1.6-28.2 11.5-38.7 9.2 10.2 11.3 21.6 11.5 38.7H90zm51.1 15.1V81.4l3.9 5.3z" id="path1707" fill="#fff"/><path class="st1" d="M100.6 35.9c-12.1 12.2-13 24.6-13.1 42.7v1.3h28v-1.3c-.2-18.7-2.3-31.4-13.1-42.7l-.9-.9zm.9 2.8c9.2 10.2 11.3 21.6 11.5 38.7H90c.2-17.7 1.6-28.2 11.5-38.7z" id="path1709"/><path class="st1" d="M101.5 6.3zm100.6 39.2h-21.4l-17.9 27.7-17.9-27.7h-10.2c-5.9-18.9-23-32.7-33.2-39.3-10.3 6.6-27.3 20.4-33.2 39.3h-6.5l-18 29.3-20.7-29.3H5.3v81.2h17.9V78.8l20.6 24.9 20-24.9v47.9h21.1V98.3h33.3v28.4h26.5l18.2-28.2 18.2 28.2h20.4l-25.9-39.9zM84.7 82.6c0-24.4.7-37 16.8-51.6 16.1 14.5 16.8 31.2 16.8 51.6zm52.2 24.7V66.2l13.8 20.6z" id="path1711"/><path class="st1" d="M139.2 75.2v23.7l8.1-12.2zm1.9 6.2l3.9 5.3-3.9 5.8V81.4z" id="path1713"/><path class="st1" d="M209 128.7c-6.6-10.2-26.5-40.9-27.2-42 .7-1.1 21.9-33.9 28.2-43.7.1-.2.2-.3.3-.7.2-.7.2-1.6.2-2.1h-32.6s-13.2 20.5-15 23.3c-1.8-2.8-15-23.3-15-23.3h-9.5c-8.1-20.1-26.4-33.5-34-38.4L101.5 0l-2.8 1.8c-7.6 4.9-25.9 18.3-33.9 38.4h-6.4L43.8 65 26.4 40.3H0V132h28.5V95.4l15.3 18 14.7-18.1V132h31.6v-28.4h22.7V132h34.6s13.5-20.9 15.3-23.7c1.8 2.8 15.3 23.7 15.3 23.7h31.4v-1.4c.1-.7.1-1-.4-1.9zm-46.2-25s-15.9 24.7-16.6 25.8h-30.8v-28.4H87.7v28.4H61.1V87.4l-17.2 21.2L26 87.4v42.1H2.5V42.7h22.6l18.8 26.9s15.2-25.8 15.9-26.9h6.7l.3-.8c7.5-19.9 25.8-33.2 33.3-38l1.5-1 1.5 1c7.5 4.8 25.8 18.1 33.3 38l.3.8h9.8c.7 1.1 16.4 25.4 16.4 25.4s15.7-24.3 16.4-25.4h28c-2.3 3.5-28.4 44-28.4 44s25.4 39.2 27.7 42.7h-27.1c-.8-1-16.7-25.7-16.7-25.7z" id="path1717"/></g></svg>