<svg xmlns="http://www.w3.org/2000/svg" viewBox="0 0 100 27.37"><path fill="#002be7" d="M15.77 0c-2.73 0-5.5 1.21-9.06 3.94V.7H0v25.99h7.15V10.52c3.11-2.46 4.54-3.25 5.71-3.25 1.39 0 2.3.87 2.3 3.04v16.37h7.14v-16.2c3.12-2.42 4.5-3.2 5.72-3.2 1.39 0 2.3.86 2.3 3.03v16.37h7.14V7.8c0-5.85-3.33-7.8-6.54-7.8-2.73 0-5.5 1.13-9.14 3.9C20.61 1 18.06 0 15.76 0zm36.2 0c-7.1 0-13 6.1-13 13.69s5.9 13.68 13 13.68c3.5 0 6.54-1.3 8.88-4.12v3.43h6.8V.69h-6.8v3.42A11.05 11.05 0 0 0 51.97 0zM68.9.7a85.92 85.92 0 0 0 10.19 12.8c-3.9 4.29-7.23 8.75-10.18 13.17h8.62a56.8 56.8 0 0 1 6.98-9.1c2.6 2.82 4.76 5.8 6.8 9.1h8.7A104.72 104.72 0 0 0 89.87 13.5 99.66 99.66 0 0 0 100 .7h-8.53a60.89 60.89 0 0 1-6.97 8.8C81.9 6.77 79.6 4 77.52.7H68.9zM53.05 6.01a7.65 7.65 0 0 1 7.67 7.67 7.65 7.65 0 0 1-7.67 7.66c-4.24 0-7.66-3.42-7.66-7.67s3.42-7.66 7.66-7.66zm0 1.73a5.9 5.9 0 0 0-5.89 5.93 5.9 5.9 0 0 0 5.9 5.94 5.9 5.9 0 0 0 5.88-5.94 5.9 5.9 0 0 0-5.89-5.93z"/></svg>