<svg xmlns="http://www.w3.org/2000/svg" width="251.61" height="251.61"><path d="M18.14 63.713c-.359-.581-.383-2.132-.053-3.445.923-3.679 11.753-17.488 19.12-24.378C50.71 23.258 56.3 21.326 79.176 21.384c12.667.032 17.933.485 25.283 2.176 10.347 2.38 24.86 7.843 33.217 12.502 12.202 6.803 32 21.532 32 23.807 0 .51-3.038-.601-6.75-2.468-8.198-4.122-19.978-7.92-31.876-10.278-12.09-2.396-39.962-2.393-53.868.005-17.386 2.999-36.909 8.759-50.88 15.013-6.582 2.945-7.235 3.071-8.162 1.572z" fill="#3873ac"/><path d="M188.676 105.178c-16.003-12.822-39.64-19.59-68.5-19.612-16.014-.012-29.77 2.001-42.25 6.184l-8.25 2.765V80.978l7.92-7.451c8.143-7.66 18.23-13.689 29.08-17.38 8.455-2.875 27.053-2.641 37 .466 20.201 6.311 37.112 19.531 45.018 35.194 2.722 5.393 6.52 16.768 5.824 17.444-.188.183-2.817-1.65-5.842-4.073z" fill="#578dc3"/><path d="M200.214 103.02c-13.095-37.304-50.843-72.657-98.038-91.815-8.65-3.51-10.231-5.841-5.5-8.103 7.544-3.608 38.833-4.246 47.76-.974 5.749 2.106 12.092 6.595 20.416 14.447 22.065 20.815 35.504 50.946 38.443 86.189.368 4.403.437 8.006.154 8.006-.283 0-1.738-3.488-3.235-7.75z" fill="#7eadda"/><path d="M3.862 156.495C1.432 153.567.196 143.89.186 127.718c0 0-.33-11.009.924-16.382.631-2.704 2.757-7.638 2.757-7.638 4.439-8.983 15.443-21.243 26.635-29.676 19.225-14.487 45.517-23.846 72.174-25.692 9.376-.649 9.26-.5-3.5 4.446-35.162 13.63-67.884 49.074-87.093 94.338-4.258 10.032-6.016 12.038-8.221 9.38z" fill="#1c5e9c"/><path d="M194.045 163.02c8.297-16.5 12.054-34.484 12.065-57.75.012-25.779-4.629-49.003-14.855-74.347-2.518-6.24-4.327-11.753-4.02-12.25 1.851-2.995 11.81 2.898 23.65 13.994 15.127 14.177 18.552 21.5 19.453 41.603 1.17 26.094-5.87 50.42-21.414 74.008-6.495 9.856-15.888 21.492-17.348 21.492-.509 0 .602-3.038 2.469-6.75z" fill="#b2d1ee"/><path d="M90.676 188.568c-4.32-2.17-9.215-5.961-14.594-11.304-6.634-6.589-8.932-9.746-12.749-17.516-6.652-13.542-8.116-19.924-8.138-35.478-.015-10.117.396-14.22 1.853-18.5 2.286-6.716 7.59-17 8.767-17 .473 0 .86 2.38.86 5.29 0 11.266 5.507 25.74 15.591 40.985 7.91 11.957 28.026 32.643 38.636 39.731 3.7 2.472 6.737 4.793 6.75 5.158.04 1.139-9.206 6.406-15.142 8.626-10.028 3.75-14.383 3.752-21.834.008z" fill="#578dc3"/><path d="M111.294 196.132c-2.685-.825-4.485-1.843-4-2.263.485-.42 3.537-1.75 6.783-2.956 9.1-3.378 18.421-10.172 28.812-20.997 15.46-16.109 27.194-35.844 33.825-56.896 1.776-5.638 3.579-10.25 4.006-10.25 1.53 0 10.514 7.729 13.456 11.576 2.942 3.85 2.998 4.144 2.94 15.424-.042 7.957-.61 13.349-1.84 17.5-8.704 29.348-38.077 50.659-69.51 50.43-5.48-.04-11.683-.712-14.472-1.568z" fill="#578dc3"/><path d="M142.176 202.837c1.1-.535 5.6-2.366 10-4.07 35.757-13.842 69.596-50.926 88.058-96.497 3.716-9.174 6.394-10.944 8.297-5.486 3.51 10.07 3.987 39.012.787 47.747-2.107 5.748-6.596 12.092-14.448 20.416-20.997 22.257-51.807 35.87-86.694 38.303-5.53.386-7.383.258-6-.413z" fill="#1c5e9c"/><path d="M157.176 229.797c-19.588-2.805-37.552-9.79-55-21.39-7.936-5.275-20.5-15.52-20.5-16.714 0-.521 3.037.58 6.75 2.446 16.44 8.267 34.373 12.01 57.75 12.052 25.493.046 49.967-4.797 73-14.446 5.5-2.304 11.012-4.418 12.25-4.698 6.176-1.4-.513 11.203-12.829 24.169-14.607 15.377-21.498 18.475-42.421 19.07-7.15.204-15.7-.016-19-.489z" fill="#3873ac"/><path d="M53.54 229.558c-10.218-6.763-24.362-21.49-27.9-29.05-7.014-14.989-6.35-42.844 1.586-66.483 3.107-9.255 10.079-23.33 15.652-31.599 5.564-8.255 15.696-20.656 16.876-20.656.523 0-.35 2.587-1.94 5.75-18.244 36.308-16.943 87.247 3.466 135.64 1.868 4.427 3.396 8.625 3.396 9.33 0 2.5-4.862 1.22-11.137-2.932z" fill="#b2d1ee"/><path d="M111.908 250.71c-6.842-1.35-15.556-6.62-24.163-14.617-18.93-17.586-31.751-41.363-36.95-68.523-2.075-10.849-3.76-26.8-2.829-26.8.302 0 1.328 2.362 2.281 5.25 12.497 37.876 48.985 73.07 96.772 93.34 14.993 6.36 14.353 8.918-2.843 11.371-8.278 1.182-26.227 1.17-32.268-.022z" fill="#7eadda"/></svg>