<svg xmlns="http://www.w3.org/2000/svg" viewBox="0 0 21.34 21.34"><path fill="#e30613" d="M20.2 10.67a9.54 9.54 0 1 1-9.53-9.53 9.54 9.54 0 0 1 9.54 9.53"/><path fill="#d20a11" d="M10.67 20.92a10.25 10.25 0 1 1 0-20.5 10.25 10.25 0 0 1 0 20.5m0-20.92a10.67 10.67 0 1 0 0 21.34 10.67 10.67 0 0 0 0-21.34m9.6 10.67a9.6 9.6 0 1 1-19.2 0 9.6 9.6 0 0 1 19.2 0"/><path fill="#fff" d="M7.5 11.82 5.94 6.94h-2.4v7.46h1.9v-1.9l-.12-2.62 1.54 4.52h1.29l1.56-4.57-.12 2.66v1.91h1.9V6.94h-2.4zm8.33-2.06c-.17.13-.43.2-.79.2h-.73V8.45h.7c.37 0 .65.06.82.19.17.12.24.31.24.59 0 .24-.07.41-.24.53m-1.52 1.53h1.15c.31 0 .54.07.67.21s.2.36.2.64c0 .26-.07.45-.22.57-.16.12-.41.19-.75.19h-1.05zm3.6-.2a1.5 1.5 0 0 0-.74-.55c.23-.13.42-.3.55-.52a1.86 1.86 0 0 0 .26-.98c0-.7-.27-1.23-.8-1.58A3.9 3.9 0 0 0 15 6.94h-2.6v7.47h2.96c.9 0 1.61-.2 2.1-.57a2 2 0 0 0 .76-1.69c0-.4-.11-.76-.33-1.06"/></svg>