<svg xmlns="http://www.w3.org/2000/svg" width="80.667" height="80.665" viewBox="0 0 21.343 21.343"><path d="M20.208 10.672a9.537 9.537 0 1 1-9.536-9.536 9.537 9.537 0 0 1 9.537 9.536" fill="#e30613"/><path d="M10.672 20.917C5.014 20.917.427 16.33.427 10.672S5.014.428 10.672.428s10.245 4.586 10.245 10.244-4.587 10.245-10.245 10.245m0-20.916C4.778.001 0 4.779 0 10.672s4.778 10.672 10.672 10.672 10.672-4.778 10.672-10.672S16.566.001 10.672.001m9.604 10.671a9.604 9.604 0 1 1-19.208 0 9.604 9.604 0 0 1 19.208 0" fill="#d20a11"/><path d="M7.502 11.82 5.941 6.94H3.545v7.464h1.902V12.5l-.128-2.624 1.543 4.528H8.15l1.565-4.576-.129 2.667v1.91h1.902V6.94H9.082zm8.332-2.058c-.17.127-.437.195-.792.2h-.73V8.448h.695c.373 0 .65.065.823.191.165.121.245.314.245.589 0 .239-.079.413-.24.534m-1.523 1.53h1.148c.313 0 .54.07.672.209s.202.355.202.64c0 .26-.074.445-.228.566-.16.126-.408.19-.741.19h-1.053zm3.59-.205a1.493 1.493 0 0 0-.733-.544c.234-.136.418-.312.548-.528a1.86 1.86 0 0 0 .26-.976c0-.696-.271-1.228-.805-1.58-.52-.345-1.249-.52-2.165-.52H12.41v7.466h2.955c.906 0 1.615-.19 2.107-.565.5-.382.754-.95.754-1.689 0-.399-.109-.757-.323-1.064" fill="#fff"/></svg>