<svg xmlns="http://www.w3.org/2000/svg" height="243.362" width="243.362"><path d="M47.181 37.706v26.33h.705c8.755-20.25 25.286-29.71 47.546-29.71 22.585 0 36.768 9.46 46.867 29.71 8.768-20.25 28.68-29.71 49.92-29.71 15.175 0 31.72 5.402 41.845 17.524 11.469 13.517 9.094 33.089 9.094 50.286v106.9h-49.58v-90.734c0-6.733.652-23.59-1.031-29.997-2.688-10.803-10.804-13.83-21.216-13.83-8.768 0-17.927 5.023-21.607 13.152-3.692 8.115-3.353 21.594-3.353 30.675v90.734H96.789v-90.734c0-17.875 3.379-44.14-22.273-44.14-25.978 0-24.986 25.6-24.986 44.14v90.734H0V37.706z" fill="#006bb6"/></svg>