<svg xmlns="http://www.w3.org/2000/svg" width="38.211" height="38.211"><path fill="#ed1b2f" d="M4.688 17.568c-1.374-4.898-.57-9.429-.57-14.91C9.02.222 13.873 0 19.134 0c4.548 0 10.998.586 14.882 2.649.4 5.168.628 9.715-.699 15.588-1.328 5.871-5.348 13.981-14.15 19.974C9.558 31.912 6.577 24.3 4.687 17.568z"/><path fill="#fff" d="M9.28 10.388l-4.734 5.041c1.063 4.934 3.848 15.221 14.584 22.2 10.641-7.322 13.651-17.198 14.295-22.206l-4.599-5.045-5.095 5.163-4.693-5.119-4.677 5.055zM9.248 6.979c.766-.002 2.225.113 2.571.362.12-.191 1.005-1.847 1.09-2.321-.317-.121-.61.298-.74.33-.224-.349-.447-.349-.555-.333-.189.055-.089.119-.013.146 1.191 1.004-.569 2.002-.877.992-1.515.124-1.12-1.093-.732-1.246.258-.076.048-.116-.032-.146-.095-.02-.284-.032-.308.047.024-.597-.048-1.061-.408-1.261-.359.2-.424.667-.398 1.266-.025-.08-.212-.068-.308-.049-.079.028-.289.067-.033.146.392.153.782 1.371-.732 1.246-.306 1.009-2.065.011-.879-.994.08-.023.181-.088-.007-.143-.113-.017-.329-.017-.557.332-.13-.031-.423-.449-.742-.328.09.472.971 2.128 1.09 2.321.347-.249 1.805-.365 2.57-.367zm0 1.288c.558-.001 1.432.055 1.958.221.13-.274.36-.732.483-.918-.45-.27-1.833-.349-2.439-.348-.607.002-1.99.083-2.44.354.122.184.353.642.48.915.528-.163 1.4-.222 1.958-.224zm1.378-1.859l.36.516-.809-.079zm-.479 1.077a.282.282 0 100 .564.28.28 0 00.276-.282.286.286 0 00-.276-.282zm.86.178a.272.272 0 00-.272.274c0 .15.125.272.271.272a.27.27 0 00.267-.272.269.269 0 00-.267-.274zM9.25 8.996c-1.072.001-1.87-.105-1.87-.236 0-.132.792-.267 1.87-.269 1.078-.002 1.868.132 1.868.265 0 .132-.797.237-1.868.24zm-.003-1.558c.15 0 .28.124.28.278a.286.286 0 01-.28.284.287.287 0 01-.279-.284.28.28 0 01.28-.278zm-.872.047a.28.28 0 01.281.282.277.277 0 01-.28.282.282.282 0 01-.277-.282.289.289 0 01.276-.282zm-.859.178a.27.27 0 01.27.274c0 .15-.122.272-.27.272a.27.27 0 01-.268-.272.268.268 0 01.268-.274zM9.24 5.839l.584.992H8.685zm-1.345.569l-.36.515.808-.077zM28.82 6.979c.765-.002 2.223.114 2.57.363.121-.192 1.004-1.849 1.09-2.322-.319-.122-.613.298-.74.33-.228-.351-.448-.351-.557-.333-.188.055-.089.119-.012.145 1.19 1.003-.57 2.001-.876.993-1.516.123-1.122-1.094-.73-1.246.257-.077.046-.117-.033-.145-.096-.021-.286-.032-.31.047.023-.598-.048-1.062-.406-1.262-.357.2-.422.667-.397 1.267-.024-.082-.212-.069-.308-.048-.08.028-.289.067-.034.146.393.153.784 1.371-.73 1.246-.307 1.009-2.066.013-.878-.994.08-.023.182-.088-.007-.143-.114-.017-.329-.017-.556.332-.132-.032-.424-.449-.745-.329.09.472.973 2.129 1.091 2.321.344-.25 1.8-.366 2.567-.368zm0 1.288c.556-.001 1.43.055 1.957.221.128-.274.356-.732.482-.918-.45-.269-1.835-.348-2.44-.347-.605.002-1.99.083-2.44.353.124.185.355.643.481.917.527-.165 1.4-.224 1.96-.226zm1.378-1.859l.36.516-.809-.078zm-.48 1.077a.284.284 0 00-.286.282.28.28 0 10.56 0 .284.284 0 00-.275-.282zm.858.178a.273.273 0 000 .546.27.27 0 00.267-.272.269.269 0 00-.267-.274zM28.82 8.996c-1.07.001-1.87-.103-1.87-.236 0-.132.792-.267 1.87-.269 1.078-.002 1.87.133 1.87.266s-.8.236-1.87.239zm-.003-1.558c.151 0 .28.124.28.278a.286.286 0 01-.28.284.288.288 0 01-.28-.284c0-.156.132-.278.28-.278zm-.872.047c.157 0 .282.126.282.282a.277.277 0 01-.282.282.284.284 0 01-.278-.282.29.29 0 01.278-.282zm-.859.178a.27.27 0 01.27.274c0 .15-.122.272-.27.272a.272.272 0 01-.269-.272.27.27 0 01.27-.274zm1.725-1.824l.584.991h-1.14zm-1.345.569l-.363.516.811-.078z"/><path fill="#ed1b2f" d="M8.656 19.909c.073-.158.243-.638.313-.798-.07-.168-.24-.325-.384-.325.071-.157.345-.36.293-.502-.052-.141-.177-.129-.459-.273a.662.662 0 01.456-.334c.148-.028.151-.249.414-.389.262-.14.5-.177.881-.157.38.021 1.637.366 1.311 1.813.723 1.448 3.231-.481 4.125-.481-.168.325-.41.65-.567.964.241.168.567 0 .808 0-.24.797-.724 1.121-1.133 1.447.41 1.288 1.9.791 3.235.642-.164.44-.724.481-.966.809.456.478.966 1.123 1.292 1.771-.599-.397-1.857-.808-2.267-.966-.809-.325-2.427-.325-3.235 0 .17.313.483.481.736.642-.409.808-1.218.326-1.7.166-.41.315-1.167.338-1.376.158 0 0 0-.203.242-.379.165-.229-.483-.271-.652-.587.003-.296.312-.002.494-.325-.413-.808-2.102-.968-1.86-2.896zm1.146-2.298a.16.16 0 010 .322.16.16 0 01-.16-.16.162.162 0 01.16-.162zM20.077 20.144c.071-.158.242-.641.312-.798-.07-.169-.24-.325-.386-.325.074-.155.347-.361.295-.502-.054-.142-.177-.129-.459-.273a.654.654 0 01.454-.334c.148-.027.151-.248.414-.389.262-.14.5-.178.881-.156.38.02 1.637.366 1.311 1.813.725 1.446 3.234-.484 4.126-.484-.17.326-.412.653-.568.965.242.168.568 0 .808 0-.24.797-.724 1.121-1.133 1.448.41 1.292 1.898.793 3.231.639-.164.441-.723.48-.964.811.456.477.964 1.121 1.291 1.771-.6-.396-1.857-.81-2.268-.963-.808-.328-2.425-.328-3.233 0 .17.313.483.479.736.642-.41.807-1.219.325-1.7.168-.413.312-1.169.336-1.378.155 0 0 0-.201.243-.377.165-.231-.483-.274-.652-.588.003-.298.312-.005.495-.328-.408-.81-2.098-.969-1.856-2.895zm1.124-2.299a.164.164 0 110 .326.164.164 0 010-.326zM14.606 28.229c.072-.158.241-.641.314-.797-.074-.168-.242-.326-.387-.326.073-.157.347-.362.293-.506-.052-.139-.177-.127-.458-.271.1-.2.304-.305.453-.333.151-.031.154-.251.414-.39.262-.143.5-.181.881-.157.381.021 1.636.364 1.312 1.812.723 1.445 3.234-.483 4.126-.483-.168.328-.41.65-.566.966.24.169.566 0 .808 0-.24.797-.725 1.123-1.133 1.448.41 1.289 1.896.791 3.232.638-.165.442-.724.481-.964.81.454.479.964 1.121 1.29 1.772-.598-.397-1.856-.81-2.267-.964-.808-.327-2.424-.327-3.233 0 .168.312.481.48.735.64-.41.808-1.219.325-1.703.167-.41.312-1.165.338-1.373.157 0 0 0-.201.24-.379.166-.229-.482-.272-.65-.585.003-.297.313-.004.494-.327-.409-.809-2.097-.963-1.858-2.892zm1.137-2.297a.149.149 0 110 .298.149.149 0 110-.298z"/><path fill="#fff" d="M19.125 8.441c-.229.204-.318.28-.267.486h.577c.028-.224-.057-.314-.31-.486zm3.317-6.343s-.705.298-1.35.017c-.705-.307-1.34-.409-1.846-.185v6.185c.438-.21.92-.129 1.603.036.684.165 1.086.157 1.595.072zm.21.006l.532.507v6.132l-.534-.502zm.41 6.807l-.563-.493c-.419.167-1.326-.021-1.755-.102-.72-.137-1.014-.225-1.489-.012.258.148.42.357.407.611zm-7.853.004l.562-.495c.42.169 1.323-.019 1.755-.1.72-.138 1.012-.225 1.487-.012-.258.149-.419.359-.406.611zm.373-6.762l-.535.505v6.133l.535-.503zm.21-.055s.711.298 1.36.017c.704-.307 1.338-.409 1.844-.185v6.185c-.438-.21-.92-.129-1.604.036-.683.165-1.085.157-1.593.072z"/><path fill="#ed1b2f" d="M19.552 3.241c.008-.253.148-.399.377-.399.202 0 .33.113.337.294h-.164c0-.061-.045-.15-.166-.15-.125 0-.222.115-.222.29 0 .125.071.262.201.262.088 0 .176-.032.185-.158h.164c.022.141-.135.311-.337.311-.212-.001-.385-.152-.375-.45zm.79.136c-.016-.225.124-.462.396-.45.21 0 .402.146.382.434-.01.185-.105.399-.39.406-.29-.007-.379-.241-.388-.39zm.166-.06c0 .149.051.298.23.298.14.001.214-.112.214-.26 0-.089-.016-.27-.217-.27-.087-.001-.207.031-.227.232zm.784.52v-.81h.165l.334.547v-.547h.165v.809h-.165l-.325-.547v.547zm-1.047 1.532v-.81h.572v.146h-.4v.185h.356v.141h-.357v.338zm.765.087v-.808h.173v.807zm-.61 1.602h-.396v-.81h.382c.432.053.343.769.013.81zm-.23-.139h.163c.223 0 .237-.525-.006-.525h-.158zm.668-.113c-.016-.224.125-.46.395-.45.21 0 .401.145.381.437-.007.184-.104.396-.39.405-.29-.009-.38-.241-.386-.392zm.165-.057c0 .148.051.295.228.295.141 0 .218-.112.218-.261 0-.088-.017-.269-.218-.269-.087 0-.209.031-.228.235zM16.71 3.748v-.81h.172v.809zm.356-.097v-.808h.164l.335.547v-.547h.164v.808h-.164l-.326-.547v.547zm-.6 1.805h-.395v-.808h.383c.431.053.343.768.012.808zm-.227-.137h.164c.221 0 .237-.525-.009-.525h-.155zm.615-.389c-.016-.224.125-.463.394-.45.21 0 .402.145.382.435-.008.183-.104.397-.39.405-.29-.008-.38-.242-.386-.39zm.164-.06c0 .147.052.296.228.296.143 0 .217-.113.217-.261 0-.088-.018-.27-.217-.27-.087.002-.207.033-.228.235zm.77.398v-.809h.244l.148.612.15-.612h.24v.808h-.165v-.642l-.14.643h-.17l-.142-.643v.643zm-1.349 1.946v-.808h.173v.808zm.362-.101v-.807h.165l.333.547v-.547h.165v.808h-.165l-.326-.547v.547H16.8zm.836-.45c-.017-.225.124-.462.395-.45.21 0 .401.145.381.434-.008.186-.104.399-.39.406-.289-.009-.378-.241-.386-.39zm.164-.06c0 .148.052.296.231.296.141 0 .216-.114.216-.262 0-.087-.016-.269-.216-.269-.09.003-.209.034-.23.235z"/></svg>