<svg xmlns="http://www.w3.org/2000/svg" viewBox="0 0 1386.3 1385.9"><path d="M695.2 1386.4h-3.5c-.8-.1-1.6-.4-2.4-.4-16.6-.8-33.3-1.2-49.9-2.5a614 614 0 0 1-100.3-15.1A695.2 695.2 0 0 1 3.5 756.9c-1.5-17-2.1-34.2-3.1-51.3l-.6-11.7v-2.1c.1-.8.4-1.6.4-2.3l.8-21.1a686.2 686.2 0 0 1 77.9-295 692.4 692.4 0 0 1 184.9-223.6A684.7 684.7 0 0 1 562.5 12.5a688.4 688.4 0 0 1 234-4.7A688 688 0 0 1 1006.7 75a692.1 692.1 0 0 1 230.6 189.1 688 688 0 0 1 145.4 358.2c1.4 12.7 1.8 25.6 2.7 38.4l.7 9.6v45.1c-.2 1.4-.5 2.7-.5 4.1-.2 5 0 10-.4 14.9a1935 1935 0 0 1-3.9 42.1 687.4 687.4 0 0 1-69.6 229 691.3 691.3 0 0 1-135.2 183.6 692.5 692.5 0 0 1-424.7 194.2c-15.2 1.3-30.5 1.7-45.7 2.5-3.5.3-7.2.4-10.9.6M1228.7 693a535.6 535.6 0 0 0-535-535.2 535.4 535.4 0 0 0-535.2 535 535.4 535.4 0 0 0 535 535.2c296.3 0 535.3-241 535.2-535M376.1 821.1H270.5c-.7-2.6-.9-358.7-.2-363h105.8v36l.7.2 2.5-2.7a118.9 118.9 0 0 1 59.5-38.2c17.4-4.8 35-5.9 52.9-4.8 10.5.6 20.9 2.1 31.1 4.7a106.9 106.9 0 0 1 49.7 29.6l7.4 7.7 14.5-11.5a140.8 140.8 0 0 1 54.1-26.4c17.2-4.1 34.7-5.3 52.4-4 15.2 1.2 29.9 4.3 43.9 10.6a99 99 0 0 1 34.7 25.4 73.2 73.2 0 0 1 17 36.6c.7 3.9 1.2 7.9 2.4 12.1l1.8-3.1c9-15.9 20.2-30.2 33.8-42.4a162 162 0 0 1 70.1-36.3c21-5.2 42.4-7 64-6.2 25.3 1 49.8 6 72.8 16.7a156.7 156.7 0 0 1 74.7 72.2 217.5 217.5 0 0 1 20 60.7c3.5 19 5.1 38.3 5.7 57.6v7.9l-2.1.4H882.2l-.2 3.8a101 101 0 0 0 11 45.1 73.5 73.5 0 0 0 57.5 40.4c17.5 2.5 34.6 1 51.2-5.2a82.3 82.3 0 0 0 39.1-31c5.1-7.3 9.3-15.2 13.9-22.8l2.1-4.1c27 13.6 53.8 27.3 80.7 41l-.5 1.4a320 320 0 0 1-35.4 45.8 190.2 190.2 0 0 1-83.8 50.4 209.4 209.4 0 0 1-56.7 8.6c-31.6.6-62.2-4.3-91.1-17.6a157.6 157.6 0 0 1-69.3-60.6l-.9-.7v65.4H693.5V629.5a836 836 0 0 0-.7-35.4c-.4-7.5-1.2-15-2.7-22.4a44.6 44.6 0 0 0-38.9-35.8 60 60 0 0 0-29.7 3.1 47 47 0 0 0-31.4 37.9 138 138 0 0 0-2.1 24.9l-.1 77.8v140.9c-2.8.8-100.3 1-106.2.3V613.7q0-12.2-.6-24.3a95.7 95.7 0 0 0-3.4-21.2 40.6 40.6 0 0 0-23.9-27.6 56.2 56.2 0 0 0-40.3-2.9 47.6 47.6 0 0 0-33.1 33.6 112 112 0 0 0-4.4 33.6l-.1 99.3V816c.2 1.7.2 3.2.2 5.1M1031 593.8a111.3 111.3 0 0 0-8-33.2 57.8 57.8 0 0 0-22.3-26.3 75.2 75.2 0 0 0-54.2-10.9 72.4 72.4 0 0 0-56.1 44.7 117 117 0 0 0-7 23.9l-.2 1.9zm-336.1 521.3a309.1 309.1 0 0 1-221.8-91.8 52.5 52.5 0 0 1-13.1-54.8 52.1 52.1 0 0 1 41.4-37.4 53.2 53.2 0 0 1 50.3 15.2 200.8 200.8 0 0 0 283.6.3c9.1-9 19.9-14.8 32.6-16.3a54.7 54.7 0 0 1 60.7 42.3 53.1 53.1 0 0 1-15.1 51.5 305.8 305.8 0 0 1-197.6 89.9c-7.5.6-14.9.9-21 1.1"/></svg>