<svg xmlns="http://www.w3.org/2000/svg" class="li lj" width="1044.2" height="1044.2"><path d="M1044.2 522.095c0 138.12-23.19 250.08-51.79 250.08-28.6 0-51.79-112-51.79-250.08s23.19-250.08 51.8-250.08c28.61 0 51.78 111.97 51.78 250.08M912.06 522.095c0 154.16-65.93 279.12-147.25 279.12s-147.25-125-147.25-279.12 65.93-279.12 147.25-279.12 147.25 125 147.25 279.12M588.99 522.095c0 163.76-131.85 296.52-294.5 296.52S0 685.895 0 522.095c0-163.8 131.85-296.51 294.49-296.51 162.64 0 294.5 132.75 294.5 296.51"/></svg>