<svg xmlns="http://www.w3.org/2000/svg" height="2500" viewBox="1 1 598 598" width="2500"><path d="M527.5 278.1s34.3 41.2 60.5 103.3c6.5-22.8 10.1-46.7 11-71.1-42.3-55.2-87.8-87.4-87.8-87.4-102.6-69-224.3-43.2-258.3 41.9-3.4 4.1-6.5 9-8.7 14 9.4-92 121.2-149.3 238.7-108.8 0 0 53.2 19.5 108.6 62.6-6.4-28.1-16.5-54.3-30.4-78.7-64.2-26.7-119.6-31.5-119.6-31.5-126.7-9-221.2 79.4-201.5 172.9l-.2 5.3c0 2.8.2 5.5.7 8.3-42.6-85.4 25.8-194.4 150.2-218.5 0 0 54.1-9.4 122.4-.4-18.4-18.7-39.4-35-62.1-48.3-68.1 9.4-118 32.4-118 32.4-114.1 55.7-151.8 179.4-87.6 250.5 2.1 4.3 4.6 8.3 7.6 11.9-80.1-52.4-75.7-181.2 20.2-264.5 0 0 41.4-34.7 104.2-60.9C352.7 4.4 326.7 1 300.2 1l-8.3.2c-51.3 40.9-81 83-81 83-71.5 106.1-41.4 233 51.3 261.3l.2.5 1.4.5c2.8 2.1 5.5 3.7 8.7 5.1-95.4-5.5-155.9-119.4-114.7-239.2 0 0 17.3-46.9 54.9-98.4-23.5 7.4-46 17.3-66.7 29.7-23.2 60.2-27.8 110.6-27.8 110.6-8.7 125.6 78 219.4 170.9 201.7l5.5.2c3.4 0 6.4-.2 9.6-.7C219.3 397.3 110.7 329 86.6 205c0 0-8.5-49-1.8-112.5-19.3 20-35.9 42.8-49 67.6 10.3 61.2 30.3 104.6 30.3 104.6 56.1 115 181.2 152.3 252.1 86.3h.5l1.4-1.1c3.2-1.6 6.2-3.7 8.9-5.7-52 80.7-181.4 76.6-265.2-19.6 0 0-31.5-41.9-54.5-94.8C4 252.4 1 275.8 1 300l.2 10.3c37 39.3 76.4 69.7 76.4 69.7 103 69.5 225.6 43.3 258.7-43 3.2-3.7 6-8.1 8-12.6-9.7 92-121.2 149.2-238.7 108.8 0 0-43.7-16.1-93.1-51.3 7.4 26.2 18.4 51.3 32.4 74.1 56.6 20.7 102.3 24.8 102.3 24.8 125.8 8.7 219.7-78 201.7-170.9.5-3 .7-6.2.7-9.2v-3.5c39.6 84.6-28.8 191.6-151.5 215.3 0 0-45.8 8-105.8 2.6 16.3 15.9 34.5 29.9 54.3 41.6 62.8-9.9 107.6-30.8 107.6-30.8 111.8-54.5 150.2-174.3 91.6-246.1-2.1-5-4.9-9.9-8.3-14.1 76.8 53.6 71.3 180.1-23.3 262.5 0 0-39.3 32.7-99.1 58.6 25.5 7.6 52.2 11.8 80 12.2 51.3-40.9 81-83.1 81-83.1 71.5-105.8 41.6-232.5-50.6-261.3-3.5-2.5-7.4-4.6-11.5-6 95.7 4.8 156.6 118.9 115.2 239.2 0 0-18.1 49.5-58.2 102.6 25.7-6.2 50.4-15.6 72.9-28.3 24.4-61.4 29-113.4 29-113.4 8.7-123.9-75.4-216.9-166.7-202.4-3.7-.9-7.6-1.1-11.5-1.1h-2.6c84.4-36.8 189.1 31.3 212.7 152.7 0 0 12.7 51.8 5.1 115.3 19.5-19.3 36.3-41.1 50.1-65.3-11.9-57.8-34.7-109.7-34.7-109.7-55-112.7-176.2-150.9-247.7-90.4-4.1 1.4-7.8 3.2-11.5 5.5 54.4-75 179.7-69 261.4 24.8" fill="#df0000"/></svg>