<svg xmlns="http://www.w3.org/2000/svg" viewBox="0 0 400 400"  xmlns:v="https://vecta.io/nano"><path d="M212.7 167.5c-24.1 0-38.2 7.3-44.8 11.1-3.7-3-13.3-11.1-41.7-11.1-10.5 0-28.1.8-45.1 11.1h-.6v-9.5h-36V239h38.8v-34c0-10.3 2-13.5 5.1-16.6 4-4 14.4-6.7 24.7-6.7 20.4 0 20.1 7.1 20.1 19V239H172v-33.6c0-8.6 1.4-12.1 4.8-16.1 3.7-4.6 14.2-7.7 24.4-7.7 20.7 0 20.7 9.2 20.7 17.4v40h38.8v-44.8c.2-7.7.2-26.7-48-26.7zm140.6 56.6c-5.2 1-10 1.6-15.5 1.6-11.5 0-11.5-3.2-11.5-13.1v-28h28.2V170h-28.2v-24.7l-41.8 10.8v13.8h-19.1v14.6h19.1v30.3c0 10.6.6 14.7 5.8 19 6 5.2 22.4 7.1 35.1 7.1 4.2 0 19.1-.3 32.7-2.8l-3.6-14.2-1.2.2zM26 121.2C12.9 140 0 166.8 0 199.7c0 27.9 10.2 55.5 25.7 78.8h15.8c0-.2-.3-.8-.5-1-5.9-12.7-18.8-40.8-18.8-77.1 0-31.7 7.9-53.5 19.5-79.2H26zm348.3.3h-15.8c0 .2.3.8.5 1 5.9 12.8 18.8 40.8 18.8 77.2 0 31.7-7.9 53.5-19.5 79.2H374c13.1-18.8 26-45.6 26-78.5 0-27.9-10.2-55.6-25.7-78.9z"/></svg>