<svg xmlns="http://www.w3.org/2000/svg" width="1552.788" height="1552.788"><path fill="#f64060" d="M1397.976 1409.406c-119.596 11.84-230.494-8.47-311.427-106.782-64.873-78.774-82.222-170.154-42.535-265.15 72.568-167.49 145.745-314.36 214.185-468.026 4.365-9.862 6.13-21.368 6.628-32.254.934-20.015 5.007-41.936-18.136-53.98-23.645-12.262-51.543-10.051-68.875 11.88-21.728 27.438-40.95 57.492-57.123 88.557-97.94 188.114-185.368 367.713-274.866 543.074-37.48 73.422-107.924 101.396-184.27 72.845-25.715-9.655-41.845-28.624-46.178-57.48-6.13-40.937 7.294-77.598 21.817-114.245 50.967-131.175 100.585-247.98 145.45-369.784 11.166-30.34 14.52-62.515 1.496-92.316-10.08-22.977-29.918-39.582-57.748-37.116-30.392 2.695-54.302 18.572-65.76 46.79-90.193 223.605-176.284 450.705-262.145 657.312-18.292 43.839-45.883 83.756-92.305 102.519-23.5 9.528-50.106 15.42-75.411 15.775-78.952 1.034-147.138-25.342-193.707-92.351-37.03-53.29-46.087-112.598-28.19-175.34l264.713-783.197c36.825-62.308 96.479-95.994 164.893-116.891 71.528-21.816 132.46 5.648 193.528 36.035 23.158 11.493 46.01 23.784 69.779 33.797 33.16 13.923 63.396 5.109 90.18-16.707 21.922-17.845 44.043-35.676 64.249-55.41 50.48-49.28 159.529-58.412 212.819-1.061 12.274 13.207 26.758 24.348 40.312 36.316 27.896 24.64 39.43 27.154 71.707 8.94 76.755-43.34 156.27-37.338 234.431-9.556 45.345 16.134 72.488 54.657 89.82 100.283 25.494 67.175 14.806 132.039-10.74 195.179-46.995 116.158-98.18 230.597-144.035 347.19-27.18 69.167-50.134 140.288-69.666 211.974-7.955 29.214-8.007 63.854-.586 93.206 11.228 44.429 51.904 69.27 93.08 64.2 183.507-22.595 278.763 119.673 24.616 181.774z"/></svg>