<svg xmlns="http://www.w3.org/2000/svg" fill="none" viewBox="0 0 176 138"><path fill="url(#a)" d="M102 81.9a12 12 0 0 1-.2-19.6L157 22.6c8-5.7 19 0 19 9.8V110a12 12 0 0 1-18.8 9.9z"/><path fill="url(#b)" d="M0 44A44 44 0 0 1 44 0h64c11 0 20 9 20 20v98c0 11-9 20-20 20H20c-11 0-20-9-20-20z"/><mask id="d" width="129" height="138" x="8" y="27" maskUnits="userSpaceOnUse"><path fill="#fff" d="M8 71a44 44 0 0 1 44-44h64c11 0 20 9 20 20v98c0 11-9 20-20 20H28c-11 0-20-9-20-20z"/></mask><g filter="url(#c)" mask="url(#d)" transform="translate(-8 -27)"><path fill="url(#e)" d="M74 99.2 184 36v124z"/></g><circle cx="30" cy="108" r="14" fill="#fff"/><defs><linearGradient id="a" x1="120.8" x2="219.2" y1="77.4" y2="77.4" gradientUnits="userSpaceOnUse"><stop stop-color="#f6a100"/><stop offset="1" stop-color="#ffbe00"/></linearGradient><linearGradient id="e" x1="136.2" x2="78.5" y1="91.3" y2="91.2" gradientUnits="userSpaceOnUse"><stop offset=".1" stop-color="#ffb5e8"/><stop offset="1" stop-color="#ffdbf5" stop-opacity="0"/></linearGradient><radialGradient id="b" cx="0" cy="0" r="1" gradientTransform="matrix(-159.725 0 0 -135.852 152.3 69)" gradientUnits="userSpaceOnUse"><stop offset=".1" stop-color="#ffe921"/><stop offset="1" stop-color="#fec700"/></radialGradient><filter id="c" width="166" height="180" x="45.9" y="8" color-interpolation-filters="sRGB" filterUnits="userSpaceOnUse"><feFlood flood-opacity="0"/><feBlend in="SourceGraphic"/><feGaussianBlur stdDeviation="14"/></filter></defs></svg>