<svg xmlns="http://www.w3.org/2000/svg" width="29.396" height="29.396" viewBox="0 0 7.778 7.778"><defs><clipPath clipPathUnits="userSpaceOnUse" id="a"><path d="M145.214 78.89h135.6v-51.6h-135.6z"/></clipPath></defs><g fill-rule="evenodd"><path d="M1.168 4.09h3.267c1.171 0 1.487-.049 1.487-.686v-.036c0-.41-.099-.642-1.01-.642H2.533c-1.1 0-1.529-.361-1.529-1.26v-.269C1.005.414 1.466 0 3.368 0h3.247v.707H3.162c-1.111 0-1.307.11-1.307.588v.171c0 .346.098.553.894.553h2.037c1.155 0 1.986.116 1.986 1.394v.018c0 1.327-1.236 1.367-2.166 1.367H1.168z"/><path d="M6.773 7.778H1.168v-.97h5.605z" fill="#fdc300"/></g></svg>