<svg xmlns="http://www.w3.org/2000/svg" viewBox="0 0 199.7 191.9"><path fill="#2bd9d9" d="M99.9 59.3 90.4 78A16.5 16.5 0 0 1 62 79.7a16.4 16.4 0 0 1-1-16.4l24-48.1a16.4 16.4 0 0 1 29.4 0l24.1 48A16.4 16.4 0 0 1 109.2 78z" style="mix-blend-mode:multiply"/><path fill="#3dcc3d" d="M121.5 86.8A16.5 16.5 0 0 1 111 60.4c3.7-4.6 9.5-6.9 15.3-6l53 8a16.4 16.4 0 0 1 9.2 28L150.3 128a16.4 16.4 0 1 1-23-23.4L142.2 90z" style="mix-blend-mode:multiply"/><path fill="#ffd426" d="M122.6 119a16.5 16.5 0 0 1 22-18.1c5.5 2 9.5 6.9 10.4 12.7l8.9 52.9a16.4 16.4 0 0 1-24 17.3l-47.5-24.7a16.4 16.4 0 0 1 15-29.1l18.6 9.6z" style="mix-blend-mode:multiply"/><path fill="#f7578c" d="m73.5 139.8 18.6-9.6a16.5 16.5 0 0 1 15.1 29.2L59.6 184a16.4 16.4 0 0 1-23.9-17.3l8.8-53a16.5 16.5 0 0 1 26.7-10c4.5 3.8 6.7 9.7 5.7 15.4z" style="mix-blend-mode:multiply"/><path fill="#0af" d="m57.5 90 15 14.6a16.5 16.5 0 0 1-7.2 27.5c-5.7 1.6-11.7 0-15.9-4L11.1 90.3a16.4 16.4 0 0 1 9-28l53.2-8a16.5 16.5 0 0 1 17.8 22.2c-2.2 5.4-7 9.3-12.9 10.2z" style="mix-blend-mode:multiply"/></svg>