<svg xmlns="http://www.w3.org/2000/svg" xmlns:xlink="http://www.w3.org/1999/xlink" id="svg71" version="1.1" viewBox="0 0 199.67 191.95"><defs id="defs38"><path id="path-1" d="M0 0h2176v520H0z"/></defs><g id="Content-2.0/Meister-Wave---Export-Ultra-Wide" fill="none" fill-rule="evenodd" stroke="none" stroke-width="1"><mask id="mask-2" fill="#fff"><use xlink:href="#path-1" id="use40"/></mask><g id="g68" mask="url(#mask-2)" transform="translate(-987.82 -123.13)"><g id="Logo/_glyph-Copy" transform="translate(988 120)"><g id="g65" fill-rule="nonzero" transform="translate(-5.8 3.13)"><path id="path55" fill="#2bd9d9" d="m105.46 59.25-9.38 18.73a16.44 16.44 0 1 1-29.4-14.72l24.07-48.1c6.06-12.12 23.35-12.12 29.4 0l24.09 48.1a16.44 16.44 0 0 1-29.4 14.72z" style="mix-blend-mode:multiply"/><path id="path57" fill="#3dcc3d" d="M150.5 117.43a16.44 16.44 0 0 1-29.4-14.71l24.07-48.11c6.07-12.11 23.35-12.11 29.41 0l24.08 48.1a16.44 16.44 0 1 1-29.4 14.72l-9.38-18.73z" style="mix-blend-mode:multiply" transform="rotate(72 159.88 86.02)"/><path id="path59" fill="#ffd426" d="M129.71 181.34a16.44 16.44 0 0 1-29.4-14.72l24.08-48.1c6.06-12.12 23.34-12.12 29.4 0l24.08 48.1a16.44 16.44 0 0 1-29.4 14.72l-9.38-18.73z" style="mix-blend-mode:multiply" transform="rotate(144 139.09 149.93)"/><path id="path61" fill="#f7578c" d="m71.67 162.6-9.38 18.74a16.44 16.44 0 0 1-29.4-14.72l24.08-48.1c6.06-12.12 23.34-12.12 29.4 0l24.08 48.1a16.44 16.44 0 1 1-29.4 14.72z" style="mix-blend-mode:multiply" transform="rotate(-144 71.67 149.93)"/><path id="path63" fill="#0af" d="m51.04 98.7-9.38 18.73a16.44 16.44 0 0 1-29.4-14.71L36.34 54.6c6.06-12.11 23.34-12.11 29.4 0l24.08 48.1a16.44 16.44 0 0 1-29.4 14.72z" style="mix-blend-mode:multiply" transform="rotate(-72 51.04 86.02)"/></g></g></g></g></svg>