<svg xmlns="http://www.w3.org/2000/svg" width="249.1" height="249.1"><path d="M48.1 103.75l-19 38.8-19.2-38.8H7.4L0 155.15h7.1l4.4-32.6 16.2 32.6h2.7l16-32.3 4.5 32.3h7.2l-7.4-51.4zm170.7-15.3c1 0 2.6.5 4.6 1.6 2.9 1.3 5 1.9 6.2 1.9 3.7 0 6.7-2.2 8.9-6.5l-4.3-3.6c-1.5 2.5-3 3.7-4.2 3.7-.7 0-2.2-.6-4.6-1.8-2.3-1.2-4.4-1.8-6.2-1.8-.8 0-1.5.1-2.1.3-.7.2-1.3.4-1.9.8-.6.4-1.2.9-1.8 1.5-.6.6-1.2 1.4-1.8 2.3l-1 1.4 4.5 3.8c1.2-2.4 2.4-3.6 3.7-3.6zm-139.9 66.8h30.2v-7.1h-23v-17h23v-7.1h-23v-13h23.2v-7.1H78.9zm146.4-51.4h-2.7l-24.3 51.4h8l7.6-16.1h19.6l7.7 16.1h7.9zm-7.9 28.2l6.6-13.8 6.5 13.8zm-81.1-28.2h-7.2v51.4h26.1v-7.1h-18.9zm37.3 51.4h7.2v-51.4h-7.2z" fill="#8b8683"/></svg>