<svg xmlns="http://www.w3.org/2000/svg" viewBox="0 0 1865.4 774.7"><path fill="#2bb8d3" d="M1237.6 770c0-1.6 25.3-20 56.3-40.8 78.7-53 155-118.2 236-201.9 85.5-88.4 116-125.7 116-142 0-26.3-160.7-195.5-264-277.7a1639.7 1639.7 0 0 0-103.3-76L1235 3.5l139.9-1.7L1514.7 0l48.3 39.4c109 88.8 201.1 188.4 269.8 291.5 40.5 61 41.3 54-14.1 131.1a1385.6 1385.6 0 0 1-269.6 281.1l-38.2 29.8h-136.7c-75.1 0-136.6-1.2-136.6-2.9zm-219-245.3c82-57.7 101.5-154.3 47-233.3-36.2-52.7-111.5-81.7-170.5-65.8-122.5 33-167 177.7-82.8 269.3 59.4 55.8 149.3 69.4 206.2 29.8zm-148 242c-87.3-15.7-146.3-47.3-212-113.3C521 514.8 509.2 306.4 630 148 680.4 81.7 749.8 36.8 839.7 12c92-25.2 205-8.3 290.4 43.3 79 47.8 136.6 119.3 168.8 209.8 14 39.3 16.4 56.6 16.5 118.3.1 62.8-2.2 78.8-17.3 122.5-30.2 87.5-95.1 169.1-168.8 212.3-69.5 40.7-183.4 62-258.8 48.4zm-569.3-35.6C203 653.6 92.5 533 21.8 425.7-1.8 389.9-2 389 7.7 368.7c33.3-70 196.3-252.2 297.8-333L350.3 0l139.1 1.7 139.1 1.7L579.7 36a1484 1484 0 0 0-221.8 184c-81.2 81-138 149.2-138 165.5 0 17.4 56 83.3 145.5 171.2C447.3 637.2 509 688.4 583 737.6c24.9 16.6 45.2 31.3 45.2 32.8 0 1.4-61.6 2.6-136.8 2.6H354.6z"/></svg>