<svg xmlns="http://www.w3.org/2000/svg" xml:space="preserve" width="1865.351" height="774.672"><defs><clipPath id="a" clipPathUnits="userSpaceOnUse"><path d="M3590.085-7118.368h9109.881v3813.059H3590.085z" style="fill:#000;stroke-width:4.88373" transform="scale(1 -1)"/></clipPath></defs><path d="M9634.27 3328.02c0 8.01 123.66 97.79 274.92 199.47 384.21 258.36 757.01 577.29 1152.51 985.9 417.8 431.72 566.8 613.95 566.8 693.21 0 128.57-785.2 954.98-1289.1 1356.66-160.5 127.95-387.69 294.81-504.83 370.77l-213 138.01 683.03 8.3 683 8.26 235.9-192.33c532.3-433.92 982.3-920.25 1317.4-1423.85 198.1-297.65 201.7-263.74-68.7-640.16-370.3-515.46-823.7-988.1-1316.7-1372.73l-186.6-145.54-667.3-.25c-367.01-.15-667.33 6.31-667.33 14.28zM8564.4 4526.19c400.66 281.72 496.06 753.71 230.25 1139.42-177.24 257.23-544.96 399.02-833.16 321.28-597.97-161.33-815.26-867.63-404.51-1315.02 290.23-272.6 729.31-339.06 1007.42-145.6zm-722.86-1182.16c-425.86 76.87-714.13 231.06-1034.64 553.48-672.85 676.83-730.6 1694.3-140.19 2468.89 246.4 323.19 585.33 542.58 1024.28 663.03 448.98 123.19 1000.98 40.86 1418.31-211.51 385.94-233.32 666.99-582.62 824.12-1024.24 68.28-192.12 80.08-276.62 80.68-577.89.6-306.82-10.4-384.84-84.2-598.32-147.69-427.33-464.67-825.92-824.57-1036.78-339.52-199.05-895.55-303.11-1263.79-236.66zm-2779.86 174.11c-480.75 378.49-1019.89 967.58-1365.18 1491.73-115.12 174.74-116.21 179.17-68.9 278.42 162.86 341.41 958.72 1231.22 1454.39 1625.96l218.98 174.35 679.32-8.26 679.26-8.25-238.5-159.75c-369.75-247.6-730.09-546.59-1083.03-898.82-396.47-395.66-674.26-728.57-674.26-807.93 0-85.27 273.56-407.08 711.03-836.47 399.84-392.4 700.53-642.29 1062.67-882.97 121.35-80.69 220.59-152.52 220.59-159.72 0-7.07-300.67-12.95-668.13-12.95h-668.2zM15279.8 904.908V1779.4h168.7c159.6 0 168.8-4.18 168.8-76.71 0-77.7 41.8-102.46 76.9-45.61 47 75.86 264.7 152.97 431.9 152.97h173.9l-19.2-95.87c-10.6-52.67-19.2-128.67-19.2-168.77 0-66.07-13-72.83-140.1-72.83-161.9 0-235.3-32.08-373.8-163.16l-99.7-94.32V30.539h-368.2zm-8015.19-54.472c-181.09 451.814-337.96 845.694-348.44 875.244-16.87 47.26 2.54 53.72 162.86 53.72h182.06l226.15-569.56c124.44-313.293 233.97-574.393 243.47-580.312 9.51-5.878 120.73 250.862 247.06 570.552l229.79 581.31 133.36-8.65 133.49-8.77 228.82-566.82c125.94-311.739 233.32-571.308 238.78-576.672 5.41-5.472 113.57 249.714 240.41 566.832L9413 1764.08l187.28 9.1c103.08 5.03 187.34 4.18 187.34-1.79s-157-396.7-348.9-868.273L9089.76 45.841h-265.35l-220.29 550.452c-121.18 302.747-232.27 568.977-247.11 591.657-18.3 28.1-101.26-146.54-261.51-550.463L7860.75 45.841l-133.49-8.462-133.36-8.468Zm-2378.8 507.034 8.03 1327.07h337.46l8.03-1327.07 8.02-1326.931h-369.47ZM0 1334.49v1303.97h269.936l467.686-744c257.269-409.24 536.808-784.11 536.808-784.11s103.96 117.7 494.23 736.35l489.79 776.45 144.11 9.35 144.09 9.36V27.545l-191.79 9.116-191.81 9.18-15.33 842.846-15.31 842.853-365.99-574.38-365.94-574.399h-258.99L762.516 1173.42l-378.994 590.55-8.135-866.726-8.16-866.705H0Zm14574.1-155.79c0 62.47-145.6 226.83-247.6 279.65-195.7 101.14-471.8 23.48-603.8-169.86-38-55.67-69-112.88-69-127.3 0-14.33 207-26.06 460.1-26.06 377.7 0 460.3 7.76 460.3 43.57zM13898.8 28.522c-245 74.428-432.9 243.34-548.5 492.737-153.6 331.614-84.6 782.391 159.1 1039.481 223.9 235.87 666.1 324.51 958 191.89 261.5-118.78 462.5-424.6 496.7-755.552l17.4-168.878h-1366.3l19.5-97.095c45.6-227.624 302.3-423.103 555.8-423.103 135 0 344.5 82.957 410.3 162.466 60.9 73.518 102.3 63.684 212.8-50.336l98.2-101.32-102.3-99.043c-145.2-140.782-375.3-220.616-626.9-217.36-113.8 1.434-241.4 13.155-283.6 26.113ZM12502.5 41.87c-126.6 56.063-280.9 238.848-319.8 378.912-17.7 63.815-32.3 326.542-32.3 583.857l-.2 467.94h-245.4v306.82h245.4v490.87h368.2V1779.4h552.3v-306.82h-552.3V980.214c0-481.68 1.6-493.856 75.3-567.57 61.7-61.795 105.8-75.34 244.9-75.34 184.1 0 194.6-11.591 210.2-230.121l6.5-92.076-230.1-7.097c-140.4-4.233-266.3 8.857-322.7 33.86zm-1524.7 353.583c212.4 108.353 224.4 137.592 214.6 525.074l-8.7 346.012-114.8 92.84c-87.6 70.72-154.4 95.99-282.3 106.64-92.2 7.65-202.5 5.12-245.3-5.58-108.8-27.25-294.7-198.17-344-316.22-87.4-209.074-25-520.161 131.8-657.343 178.3-156.214 447.6-194.178 648.7-91.423zM10386 35.944c-352.1 131.34-594.86 491.437-597.6 886.479-2.15 314.267 214 667.547 493.8 806.937 227.6 113.51 566.6 115.2 775.9 3.98 173.5-92.32 171.7-92.13 171.7-15.32 0 53.92 20.4 61.38 168.6 61.38h168.8V30.539h-168.8c-148.3 0-168.7 7.425-168.7 61.342 0 76.25-.4 76.25-160.1-7.555-151.1-79.183-529.3-105.944-683.6-48.382ZM6151.84 50.79c-126.19 66.485-226.48 161.619-285.98 271.145-39.1 72.086-52.43 206.877-61.43 621.378l-11.55 529.166h-239.36v306.92h245.41v490.87h368.23V1779.4h552.29v-306.82h-552.29V980.214c0-481.68 1.61-493.856 75.31-567.57 61.43-61.469 105.92-75.34 241.75-75.34h166.54l35.16-139.675c19.34-76.771 27.09-152.762 17.19-168.718-30.09-48.705-448.93-32.1-551.27 21.88zM4172.7 1158.1c-.34 60.2-132.58 229.41-222.07 283.93-111.4 67.91-326.13 81.19-431.84 26.67-100.41-51.62-205.54-154.5-254.82-249.31l-43.92-84.36h476.39c261.99 0 476.3 10.33 476.26 23.07zM3451.81 35.359c-257.13 95.721-496.52 350.717-566.7 603.318-81.37 292.987-4.13 673.933 182.42 900.163 277.65 336.57 884.99 367.81 1207.83 62.33 136.94-129.58 241.16-363.68 258.58-580.61l15.42-192.36H3186.82l20.85-68.986c51.63-171.173 124.75-280.019 238.96-355.621 102.97-68.176 157.61-81.657 330.25-81.657 184.45 0 222.3 11.006 350.27 101.126l143.48 101.127 104.49-79.572c57.47-43.89 104.49-97.349 104.49-118.838 0-55.608-115.19-154.001-276.14-235.984-159.49-81.134-595.09-112.782-751.74-54.436h.08" clip-path="url(#a)" style="fill:#2bb8d3;fill-opacity:1;fill-rule:nonzero;stroke:none" transform="matrix(.20476 0 0 -.20476 -735.11 1451.471)"/></svg>