<svg xmlns="http://www.w3.org/2000/svg" width="44" height="44"><path d="M22.006 16.81l.018.001.017-.002a4.316 4.316 0 012.758 7.637c-.415.393-.934.68-1.569.827-.376.11-.777.17-1.189.17h-.035c-.412 0-.812-.06-1.19-.17a3.33 3.33 0 01-1.568-.827 4.317 4.317 0 012.758-7.636M3.723 34.175c2.318.292 4.378-1.397 4.597-3.77a4.492 4.492 0 00-.39-2.267c-3.25-7.13 12.78-7.293 10.072-.563l-.018.029c-1.281 2.047-.587 4.709 1.543 5.94.783.453 1.65.643 2.497.608a4.594 4.594 0 002.497-.608c2.129-1.231 2.823-3.893 1.542-5.94-.006-.012-.013-.02-.019-.029-2.707-6.73 13.324-6.567 10.073.563a4.488 4.488 0 00-.39 2.266c.22 2.374 2.278 4.063 4.598 3.771a4.3 4.3 0 002.613-1.352s1.08-.894 1.062-3.178c-.015-1.86-1.062-2.892-1.062-2.892a4.047 4.047 0 00-3.326-1.183c-2.976-.068-3.417-2.396-2.577-6.79a6.101 6.101 0 00.414-2.449 6.276 6.276 0 00-3.126-5.666 6.355 6.355 0 00-.78-.374c-.07-.032-.144-.058-.216-.086-.082-.03-.162-.06-.245-.085a6.261 6.261 0 00-7.34 2.665c-1.5 1.643-2.177 2.642-3.718 2.642-1.465 0-2.22-.999-3.718-2.642a6.26 6.26 0 00-7.34-2.665c-.083.024-.165.056-.245.085-.073.028-.145.054-.218.086a6.285 6.285 0 00-.777.374 6.274 6.274 0 00-3.129 5.666c-.028.835.108 1.67.416 2.449.839 4.394.398 6.722-2.576 6.79-1.458-.157-2.545.444-3.645 1.544s-1.01 4.044 0 5.33c.733.934 1.727 1.58 2.93 1.731" fill="#323232" fill-rule="evenodd"/></svg>