<svg width="32" height="33" xmlns="http://www.w3.org/2000/svg"><path d="M21.137 26.927a5.167 5.167 0 0 0-1.63-4.65 5.158 5.158 0 0 0-3.492-1.357 4.701 4.701 0 0 1-2.158-.52h-.002a4.764 4.764 0 0 1-2.048-2.052v-.001a6.045 6.045 0 0 0 .395-2.161 3.819 3.819 0 0 0 3.855 3.818 3.819 3.819 0 0 0 3.743-3.817c0-.762.138-1.49.395-2.161v-.002c.3-.798.765-1.518 1.353-2.115a6.067 6.067 0 0 1 4.658-1.824 11.993 11.993 0 0 0-4.099-4.114 6.084 6.084 0 0 1-1.215 3.955 7.617 7.617 0 0 0-.753-.524A5.167 5.167 0 0 0 21.2 6.26a5.152 5.152 0 0 0-.386-1.967 5.195 5.195 0 0 0-4.662-3.224c-.046-.002-.092-.002-.138-.002-.045 0-.091 0-.137.002-1.31.01-2.58.19-3.79.518A15.163 15.163 0 0 0 1.432 12.253 6.082 6.082 0 0 0 0 16.021C.087 7.296 7.135.24 15.849.153c.055-.002.11-.002.164-.002a5.924 5.924 0 0 1 .223.003c8.674.133 15.676 7.172 15.762 15.868.002.055.002.11.002.165 0 .054 0 .11-.002.164a6.082 6.082 0 0 1-1.432 3.768 6.095 6.095 0 0 1-4.36 2.168 6.067 6.067 0 0 1-3.968-1.215 7.8 7.8 0 0 1-1.354 1.36l.01.013a6.084 6.084 0 0 1 1.215 3.957 11.993 11.993 0 0 0 4.098-4.115 6.16 6.16 0 0 0 1.135-.163 12.9 12.9 0 0 1-6.555 5.956 12.71 12.71 0 0 1-4.8.934 2.89 2.89 0 0 1-2.3-1.139 2.896 2.896 0 0 1 .424-3.972 7.88 7.88 0 0 0 1.876.224 1.984 1.984 0 0 0-1.983 1.986c0 1.096.888 1.985 1.983 1.985a12.116 12.116 0 0 0 .028 0 1.984 1.984 0 0 0 1.983-1.986 1.984 1.984 0 0 0-1.983-1.985 7.908 7.908 0 0 1-6.252-3.056c.246-.185.477-.388.69-.608a7.067 7.067 0 0 0 2.07 1.814 6.982 6.982 0 0 0 3.492.933c.715 0 1.371.262 1.876.692a2.896 2.896 0 0 1 .428 3.967 11.786 11.786 0 0 0 2.818-.942zm6.522-13.045a11.85 11.85 0 0 0-.932-2.822 5.153 5.153 0 0 0-4.657 1.63 5.171 5.171 0 0 0-1.355 3.497 4.72 4.72 0 0 1-.52 2.16v.002a4.764 4.764 0 0 1-2.037 2.045l.015.005h.002c.792.299 1.506.76 2.1 1.343a7.067 7.067 0 0 0 1.796-2.058 7.004 7.004 0 0 0 .932-3.497c0-.717.26-1.373.69-1.879a2.89 2.89 0 0 1 3.966-.426zm.223 2.219a1.984 1.984 0 0 0-3.965.156 1.984 1.984 0 1 0 3.965-.156zm-4.189 1.965a7.86 7.86 0 0 1-.931 2.251 5.146 5.146 0 0 0 3.137 1.062 5.136 5.136 0 0 0 1.964-.386 5.201 5.201 0 0 0 3.22-4.669c.002-.046.002-.092.002-.137 0-.046 0-.092-.002-.138a15.038 15.038 0 0 0-.517-3.795A15.163 15.163 0 0 0 19.956 1.6a6.104 6.104 0 0 1 1.992 3.235 12.9 12.9 0 0 1 5.916 6.547c.602 1.484.933 3.107.933 4.806 0 .937-.447 1.772-1.138 2.302a2.89 2.89 0 0 1-3.966-.423zm-7.93 14.152C7.09 32.085.089 25.046.003 16.35 0 16.296 0 16.24 0 16.186c0-.055 0-.11.002-.165a6.082 6.082 0 0 1 1.432-3.768 6.095 6.095 0 0 1 4.36-2.168A6.067 6.067 0 0 1 9.762 11.3a7.8 7.8 0 0 1 1.354-1.36 6.084 6.084 0 0 1-1.225-3.97 11.993 11.993 0 0 0-4.098 4.115 6.16 6.16 0 0 0-1.135.163 12.9 12.9 0 0 1 6.555-5.955 12.71 12.71 0 0 1 4.8-.935c.937 0 1.771.448 2.3 1.14a2.896 2.896 0 0 1-.424 3.972 7.908 7.908 0 0 0-1.876-.225 1.984 1.984 0 0 0 1.983-1.985 1.984 1.984 0 0 0-1.983-1.986 12.116 12.116 0 0 0-.028.001 1.984 1.984 0 0 0-1.983 1.985c0 1.097.888 1.986 1.983 1.986a7.908 7.908 0 0 1 6.252 3.055 5.948 5.948 0 0 0-.69.608 7.067 7.067 0 0 0-2.07-1.814 6.982 6.982 0 0 0-3.492-.933 2.883 2.883 0 0 1-1.876-.692 2.896 2.896 0 0 1-.428-3.966 11.786 11.786 0 0 0-2.818.94 5.167 5.167 0 0 0 1.63 4.65 5.158 5.158 0 0 0 3.492 1.358c.778 0 1.512.188 2.158.521h.002a4.764 4.764 0 0 1 2.048 2.051v.002a6.045 6.045 0 0 0-.395 2.16 3.819 3.819 0 0 0-3.855-3.817 3.819 3.819 0 0 0-3.743 3.817 6.02 6.02 0 0 1-.395 2.16v.002a6.066 6.066 0 0 1-1.353 2.115 6.067 6.067 0 0 1-4.658 1.824 11.993 11.993 0 0 0 4.099 4.115 6.084 6.084 0 0 1 1.215-3.955c.239.189.49.363.753.523a5.167 5.167 0 0 0-1.06 3.143 5.152 5.152 0 0 0 .386 1.967 5.195 5.195 0 0 0 4.8 3.225c.045 0 .091 0 .137-.002 1.31-.01 2.58-.19 3.79-.517a15.163 15.163 0 0 0 10.654-10.667A6.082 6.082 0 0 0 32 16.35c-.087 8.725-7.135 15.782-15.849 15.869l-.164.001-.165-.001-.058-.002zm-3.718-1.445a6.104 6.104 0 0 1-1.993-3.235 12.9 12.9 0 0 1-5.916-6.546 12.753 12.753 0 0 1-.933-4.806c0-.938.447-1.773 1.138-2.303a2.89 2.89 0 0 1 3.966.423 7.86 7.86 0 0 1 .931-2.251 5.146 5.146 0 0 0-3.137-1.061 5.136 5.136 0 0 0-1.964.386 5.201 5.201 0 0 0-3.22 4.668c-.002.046-.002.092-.002.138a15.038 15.038 0 0 0 .519 3.932 15.163 15.163 0 0 0 10.61 10.655zm-6.772-9.46c.27.042.545.065.826.065a5.153 5.153 0 0 0 3.83-1.695 5.171 5.171 0 0 0 1.356-3.497c0-.78.188-1.514.52-2.161v-.002a4.764 4.764 0 0 1 2.036-2.044 5.94 5.94 0 0 1-.014-.006h-.002a6.056 6.056 0 0 1-2.1-1.343 7.067 7.067 0 0 0-1.796 2.059 7.004 7.004 0 0 0-.932 3.497 2.89 2.89 0 0 1-.69 1.878 2.89 2.89 0 0 1-3.966.426c.194.99.51 1.937.932 2.822zm-1.155-5.041a1.984 1.984 0 0 0 3.964-.157 1.984 1.984 0 1 0-3.964.157z" fill="#1F1F30" fill-rule="evenodd"/></svg>