<svg xmlns="http://www.w3.org/2000/svg" viewBox="0 0 48 52"><path fill="#EF4723" d="M19.44 1.96a9.11 9.11 0 0 1 9.12 0l13.98 8.08a9.11 9.11 0 0 1 4.55 7.89v16.14a9.11 9.11 0 0 1-4.55 7.9l-13.98 8.07a9.11 9.11 0 0 1-9.12 0L5.46 41.96a9.11 9.11 0 0 1-4.55-7.89V17.93a9.11 9.11 0 0 1 4.55-7.9l13.98-8.07Z"/><path fill="#fff" d="M6.58 34.8V17.44h3.68l5.84 13.51h.07l5.76-13.51h3.64V34.8h-2.85l.22-13.24h-.1L17.2 34.81H15L9.33 21.8h-.1l.2 13H6.58Zm21.79 0V17.44h7.68c.95 0 1.77.1 2.48.3.7.2 1.3.5 1.77.9s.81.87 1.03 1.42a4.88 4.88 0 0 1 .18 3.11 3.22 3.22 0 0 1-1.36 1.87c-.34.24-.74.42-1.2.56v.1c.53.1 1 .27 1.42.5a3.64 3.64 0 0 1 1.77 2.05c.17.44.25.9.25 1.41a5.4 5.4 0 0 1-.38 2.07 4.58 4.58 0 0 1-1.13 1.65c-.49.45-1.1.8-1.85 1.06a7.5 7.5 0 0 1-2.47.38h-8.19Zm7.96-7.82h-5.1v5.48h5.1c.54 0 1-.07 1.39-.2a2.4 2.4 0 0 0 1.6-1.49 3.24 3.24 0 0 0 0-2.23 2.4 2.4 0 0 0-1.6-1.36c-.4-.14-.87-.2-1.39-.2Zm-.48-7.2h-4.62v4.9h4.6c.48 0 .91-.06 1.28-.18.4-.13.71-.32.96-.56a2.64 2.64 0 0 0 .58-2.8c-.1-.29-.27-.53-.53-.73-.23-.2-.54-.36-.93-.46a4.45 4.45 0 0 0-1.34-.17Z"/></svg>