<svg xmlns="http://www.w3.org/2000/svg" width="614.225" height="614.225" viewBox="0 0 162.514 162.514"><path d="M162.514 78.165c0-29.279-36.378-53.145-81.254-53.145C36.387 25.02.01 48.886.01 78.165c0 .756-.01 2.847-.01 3.111 0 31.06 31.797 56.218 81.25 56.218 49.76 0 81.263-25.15 81.263-56.212v-3.117" fill="#2a3c8e"/><path d="M159.403 78.14c0 27.602-34.978 49.978-78.128 49.978-43.148 0-78.125-22.376-78.125-49.979 0-27.605 34.977-49.982 78.125-49.982 43.15 0 78.128 22.377 78.128 49.982" fill="#00adef"/><path d="M55.335 62.37c-.041.079-.82.885-.316 1.534 1.233 1.574 5.04 2.478 8.892 1.614 2.293-.515 5.232-2.853 8.079-5.112 3.085-2.452 6.146-4.905 9.223-5.882 3.258-1.037 5.346-.592 6.725-.175 1.513.452 3.292 1.448 6.13 3.577 5.346 4.02 26.841 22.781 30.555 26.025 2.992-1.35 16.286-7.075 34.351-11.056-1.57-9.63-7.428-18.442-16.313-25.657-12.383 5.202-27.516 7.915-42.315.687-.075-.03-8.085-3.821-15.984-3.635-11.743.272-16.828 5.355-22.212 10.734l-6.815 7.346" fill="#fff"/><path d="M123.75 85.992c-.251-.225-25.274-22.12-30.943-26.38-3.28-2.46-5.106-3.088-7.02-3.333-.999-.13-2.377.056-3.34.32-2.637.718-6.084 3.023-9.146 5.45-3.17 2.525-6.16 4.903-8.931 5.523-3.544.795-7.87-.143-9.845-1.477-.8-.537-1.363-1.16-1.633-1.792-.73-1.69.616-3.042.837-3.27l6.905-7.468c.803-.801 1.611-1.603 2.438-2.392-2.228.29-4.288.86-6.293 1.417-2.501.704-4.908 1.373-7.342 1.371-1.016 0-6.463-.892-7.496-1.174-6.248-1.71-11.733-3.374-19.926-7.2-9.817 7.308-16.38 16.446-18.277 26.51 1.41.373 3.682 1.05 4.638 1.262 22.214 4.938 29.133 10.028 30.39 11.09a7.381 7.381 0 015.506-2.47c2.458.004 4.673 1.238 6.02 3.147 1.271-1.004 3.026-1.862 5.294-1.861 1.03 0 2.1.19 3.178.557 2.506.86 3.8 2.528 4.47 4.038a7.41 7.41 0 013.093-.655c1.195 0 2.44.272 3.694.814 4.096 1.758 4.734 5.781 4.361 8.814.292-.034.586-.048.884-.048 4.856.003 8.807 3.95 8.804 8.81a8.727 8.727 0 01-1.053 4.158c1.322.743 4.69 2.424 7.647 2.048 2.363-.297 3.26-1.104 3.582-1.559.22-.312.453-.677.236-.938l-6.268-6.965s-1.032-.976-.692-1.352c.355-.386.992.169 1.442.546 3.191 2.664 7.087 6.684 7.087 6.684.065.043.323.554 1.764.812 1.24.222 3.433.092 4.953-1.156a7.48 7.48 0 001.088-1.114c-.024.02-.046.047-.07.056 1.603-2.05-.178-4.127-.178-4.127L96.29 94.47s-1.046-.967-.691-1.357c.32-.338.992.173 1.451.553 2.317 1.937 5.59 5.223 8.729 8.296.612.449 3.37 2.155 7.021-.244 2.215-1.453 2.66-3.238 2.598-4.586-.155-1.783-1.545-3.053-1.545-3.053l-9.998-10.05s-1.054-.902-.682-1.358c.306-.383.991.169 1.44.545 3.186 2.665 11.805 10.568 11.805 10.568.123.087 3.102 2.208 6.782-.136 1.316-.841 2.157-2.11 2.23-3.582.125-2.558-1.68-4.075-1.68-4.075" fill="#fff"/><path d="M75.265 98.732c-1.55-.017-3.245.902-3.467.769-.122-.082.095-.705.24-1.064.148-.356 2.19-6.498-2.785-8.631-3.808-1.637-6.136.204-6.935 1.035-.21.218-.304.2-.329-.077-.076-1.106-.571-4.098-3.857-5.1-4.697-1.438-7.717 1.84-8.483 3.023-.343-2.677-2.606-4.755-5.378-4.757a5.453 5.453 0 00-5.458 5.447 5.451 5.451 0 005.451 5.452 5.417 5.417 0 003.77-1.52c.03.026.044.08.027.184-.228 1.347-.652 6.248 4.48 8.242 2.057.799 3.807.205 5.257-.813.432-.304.504-.176.442.23-.185 1.26.049 3.959 3.832 5.492 2.878 1.17 4.581-.026 5.697-1.058.485-.443.618-.372.643.313.137 3.647 3.167 6.542 6.844 6.545a6.851 6.851 0 006.864-6.848c.003-3.792-3.065-6.822-6.856-6.864" fill="#fff"/><path d="M75.265 111.956c-3.434-.003-6.227-2.672-6.354-6.074-.01-.29-.038-1.066-.694-1.066-.27 0-.504.162-.773.405-.755.7-1.718 1.412-3.122 1.412-.637 0-1.329-.149-2.058-.446-3.627-1.47-3.678-3.961-3.53-4.963.04-.267.054-.546-.13-.761l-.224-.2h-.226c-.184 0-.373.075-.63.256-1.05.738-2.056 1.095-3.08 1.095a4.77 4.77 0 01-1.719-.336c-4.775-1.859-4.397-6.365-4.164-7.722.034-.275-.034-.488-.209-.63l-.337-.278-.316.302a4.913 4.913 0 01-3.427 1.388 4.965 4.965 0 01-4.96-4.96 4.963 4.963 0 014.967-4.954c2.471 0 4.576 1.859 4.89 4.327l.172 1.332.731-1.127c.082-.131 2.086-3.162 5.77-3.158a7.27 7.27 0 012.152.338c2.938.896 3.435 3.56 3.512 4.668.052.648.512.678.602.678.254 0 .44-.162.573-.3a5.009 5.009 0 013.65-1.54c.865.003 1.785.208 2.735.616 4.668 2.002 2.55 7.933 2.526 7.995-.402.984-.418 1.418-.041 1.668l.185.088h.135c.21 0 .472-.091.904-.237.636-.22 1.595-.55 2.49-.548h.003c3.514.038 6.372 2.898 6.37 6.372-.002 3.51-2.862 6.36-6.374 6.36zm49.453-28.586c-7.707-6.727-25.521-22.214-30.347-25.835-2.755-2.073-4.635-3.169-6.287-3.66a10.41 10.41 0 00-3.088-.48c-1.226 0-2.544.221-3.92.659-3.119.987-6.224 3.456-9.23 5.844l-.155.122c-2.798 2.225-5.69 4.526-7.88 5.016a13.3 13.3 0 01-2.918.326c-2.452-.003-4.655-.712-5.48-1.764-.136-.174-.049-.456.27-.863l.043-.052 6.78-7.309c5.31-5.31 10.328-10.325 21.875-10.59.19-.004.385-.007.575-.007 7.188.003 14.374 3.222 15.18 3.594 6.74 3.288 13.694 4.958 20.688 4.963 7.289.003 14.807-1.801 22.712-5.441a62.78 62.78 0 00-2.746-2.175c-6.945 3.012-13.562 4.532-19.946 4.53-6.52-.006-13.036-1.571-19.36-4.658-.335-.159-8.268-3.9-16.524-3.903-.215 0-.435.003-.65.006-9.7.227-15.163 3.672-18.838 6.69-3.573.086-6.656.948-9.399 1.714-2.447.68-4.561 1.27-6.622 1.27-.85 0-2.379-.08-2.516-.084-2.37-.071-14.314-3-23.816-6.599a63.175 63.175 0 00-2.811 2.119c9.925 4.07 22.004 7.217 25.816 7.463 1.06.07 2.191.19 3.322.192 2.521 0 5.038-.707 7.474-1.388 1.438-.405 3.025-.844 4.696-1.164-.446.438-.891.88-1.337 1.328l-6.89 7.452c-.542.548-1.72 2.009-.943 3.808.309.727.935 1.42 1.812 2.01 1.64 1.107 4.581 1.854 7.312 1.856a13.286 13.286 0 002.917-.306c2.887-.647 5.917-3.06 9.126-5.612 2.558-2.031 6.19-4.61 8.97-5.368a10.204 10.204 0 012.5-.343c.23.002.446.006.647.037 1.838.233 3.615.858 6.787 3.24 5.654 4.247 30.68 26.14 30.924 26.356.017.014 1.613 1.39 1.503 3.68-.06 1.274-.769 2.408-1.999 3.194-1.069.677-2.171 1.023-3.286 1.023-1.672-.003-2.824-.787-2.899-.84-.093-.076-8.666-7.938-11.82-10.579-.503-.415-.991-.79-1.485-.79a.814.814 0 00-.654.308c-.498.612.058 1.458.714 2.017l10.016 10.066c.013.01 1.247 1.168 1.382 2.713.08 1.668-.719 3.065-2.377 4.152-1.182.778-2.379 1.174-3.55 1.174a5.161 5.161 0 01-2.858-.867l-1.436-1.417c-2.625-2.583-5.337-5.254-7.321-6.91-.484-.403-1.002-.774-1.493-.774a.85.85 0 00-.63.267c-.227.252-.386.704.179 1.455.233.308.505.563.505.563l7.31 8.21c.06.072 1.506 1.79.164 3.502l-.257.328a7.542 7.542 0 01-.68.655c-1.247 1.023-2.913 1.133-3.572 1.133-.352 0-.693-.033-.988-.085-.72-.13-1.205-.33-1.44-.607l-.088-.092c-.4-.414-4.084-4.174-7.132-6.72-.402-.336-.903-.76-1.421-.76a.87.87 0 00-.66.295c-.603.66.301 1.648.685 2.011l6.235 6.874c-.007.06-.086.203-.237.42-.222.308-.98 1.065-3.24 1.348-.272.037-.551.05-.827.05-2.333 0-4.82-1.13-6.101-1.81a9.263 9.263 0 00.885-3.951c.002-5.131-4.164-9.305-9.294-9.309a9.4 9.4 0 00-.336.007c.168-2.342-.164-6.778-4.716-8.73-1.31-.567-2.618-.856-3.888-.856-.994 0-1.95.17-2.85.515-.943-1.833-2.509-3.169-4.552-3.864-1.129-.391-2.253-.589-3.338-.589-1.895 0-3.64.557-5.197 1.665a7.873 7.873 0 00-6.117-2.954 7.908 7.908 0 00-5.554 2.297C36.786 82.3 29.09 77.41 8.49 72.732c-.997-.224-3.287-.881-4.69-1.292a33.114 33.114 0 00-.527 3.38s3.8.91 4.547 1.079c21.046 4.673 27.999 9.533 29.174 10.452a7.936 7.936 0 00-.608 3.027c-.002 4.347 3.534 7.888 7.886 7.892.487 0 .97-.043 1.446-.13.655 3.199 2.75 5.625 5.948 6.87.935.359 1.882.543 2.81.543.6.001 1.205-.073 1.796-.224.59 1.5 1.92 3.372 4.891 4.579 1.043.419 2.086.639 3.099.639a6.93 6.93 0 002.407-.43 9.303 9.303 0 008.594 5.769 9.283 9.283 0 006.664-2.822c1.502.834 4.67 2.344 7.872 2.349.415 0 .804-.03 1.192-.076 3.18-.402 4.66-1.646 5.34-2.613.123-.168.234-.347.328-.534.75.217 1.575.393 2.521.395 1.737 0 3.404-.592 5.09-1.82 1.655-1.193 2.83-2.907 3-4.365.002-.02.006-.04.01-.063.557.116 1.13.174 1.701.174 1.788 0 3.547-.557 5.228-1.658 3.24-2.126 3.805-4.901 3.751-6.719.567.12 1.146.18 1.723.18 1.679 0 3.326-.505 4.898-1.507 2.01-1.283 3.218-3.25 3.401-5.539a7.46 7.46 0 00-1.08-4.473c5.432-2.34 17.846-6.869 32.463-10.164a33.183 33.183 0 00-.454-3.367c-17.687 3.925-30.886 9.637-34.191 11.108" fill="#2a3c8e"/></svg>