<svg xmlns="http://www.w3.org/2000/svg" viewBox="0 0 90 90"><defs><linearGradient id="a" x1="55.21%" x2="36.95%" y1="6.2%" y2="161.03%"><stop offset="0%" stop-color="#3AD1BF"/><stop offset="100%" stop-color="#119BD2"/></linearGradient><linearGradient id="b" x1="55.64%" x2="27.76%" y1="-9.63%" y2="198.85%"><stop offset="0%" stop-color="#3AD1BF"/><stop offset="100%" stop-color="#119BD2"/></linearGradient></defs><path fill="url(#a)" d="M45 90a44.87 44.87 0 01-31.82-13.18A44.87 44.87 0 010 45a44.88 44.88 0 0113.18-31.83A44.87 44.87 0 0145 0a44.87 44.87 0 0131.82 13.18A44.87 44.87 0 0190 45.01a44.89 44.89 0 01-13.18 31.82A44.87 44.87 0 0145 90z"/><path fill="#FFF" d="M45 85.1a40.09 40.09 0 100-80.18 40.09 40.09 0 000 80.18z"/><path fill="url(#b)" d="M68.55 28.28c-.68-.03-1.5.21-2.4.85-.45.29-.89.66-1.29 1.1-.34.34-.7.74-1.06 1.18L45.53 51.35l7-10.39a6.92 6.92 0 00.65-6.53l-5.43-12.86a3.93 3.93 0 00-3.2-2.38h-.02l-.14-.02h-.49c-.04 0-.1 0-.14.02h-.01a3.9 3.9 0 00-3.2 2.38L35.1 34.45a6.88 6.88 0 00.64 6.53l7.01 10.37-18.42-20.14a16 16 0 00-.74-.85l-.03-.04a4.86 4.86 0 00-2.02-1.67c-.75-.43-1.4-.6-1.97-.57a5.31 5.31 0 00-3.26 1.28 5 5 0 00-1.33 1.81v.02l-.06.14v.01a4.65 4.65 0 00-.34 1.8v.03c0 .17.02.31.04.42.02.1.03.2.06.29l6.94 33.72a3.95 3.95 0 002.38 3.26 3.92 3.92 0 005.12-2.1l2.86-6.8c.9-2.13.67-4.58-.64-6.52l-6.77-10.03s16 17.83 16.32 18.08a4.95 4.95 0 006.62-.2c.37-.3 16.4-17.88 16.4-17.88l-6.88 10.2a6.92 6.92 0 00-.64 6.53l2.66 6.31a3.91 3.91 0 007.46-.85l.01-.09 6.88-33.1.02-.08.01-.04c.06-.24.09-.48.09-.72l.01-.23a5.1 5.1 0 00-4.99-5.06z"/></svg>