<svg xmlns="http://www.w3.org/2000/svg" width="50.672" height="50.672" fill="none"><path fill="#f58220" d="M2.849 14.902V35.77a4.47 4.47 0 002.23 3.87l18.027 10.434a4.457 4.457 0 004.46 0L45.593 39.64a4.475 4.475 0 002.23-3.87V14.902a4.47 4.47 0 00-2.23-3.87L27.567.598a4.457 4.457 0 00-4.46 0L5.079 11.032a4.47 4.47 0 00-2.23 3.87z"/><path fill="#273338" d="M25.337 40.236c8.209 0 14.864-6.67 14.864-14.9s-6.655-14.9-14.865-14.9-14.865 6.67-14.865 14.9 6.655 14.9 14.865 14.9z"/><path fill="#fff" d="M27.302 26.804h-4.181v3.922h4.099c1.312 0 2.181-.73 2.181-2 .004-1.174-.91-1.922-2.1-1.922zm-.19-6.862h-3.991v3.844h3.835c1.226 0 2.155-.793 2.155-2 0-1.091-.899-1.844-1.999-1.844zm6.258 1.337c0 1.379-.568 2.463-1.438 3.11-.516.384-1.01.6-1.49.656v.108c1.371.116 2.638 1.114 3.073 2.228.238.615.36 1.24.36 1.881 0 3.29-2.437 5.018-5.886 5.018h-9.26V16.4h9.238c3.107-.004 5.403 1.84 5.403 4.88z"/></svg>