<svg xmlns="http://www.w3.org/2000/svg" id="Layer_1" data-name="Layer 1" version="1.1" width="86.657" height="86.657"><defs id="defs7879"><style id="style7877">.cls-1{fill:#012169}</style></defs><path class="cls-1" d="M25.417 31.504a6.18 6.18 0 00-6.81 0l.55 1.1a18 18 0 015.66 0z" id="path7889"/><path class="cls-1" d="M79.197 60.65c-2.27-3.22-3-6.33-6.26-9.81 4.59-.72 7.68-2.75 9.23-6.1a10.31 10.31 0 00-.13-9.23c-3.27-6.33-12.34-9.23-19.38-10.55-7.8-1.46-11-3.35-12.22-7.21a4.6 4.6 0 01.66-3.59c2-2.65 7.74-2.34 8.19-2.36 1.78.09 3 1.19 4.7 2.94 2 2 4.49 4.51 8.8 4.51 2.63 0 5.73-1 9-4.36a33.13 33.13 0 004.87-7.26h-28c-5.23 0-8.9 1.36-10.92 4.06a8.77 8.77 0 00-1.31 7.23c2 6.36 7.6 8.64 15.44 10.12 8.65 1.62 14.49 4.59 16.44 8.36a6.07 6.07 0 010 5.57c-1.41 3.06-5.24 4.33-11.72 3.89a30.73 30.73 0 01-19.7-9.25 71 71 0 01-8.89-13c-.11-.21-.83-1.49-1.7-3.12l4.36-.08a10.47 10.47 0 00-2.16-4.58 10.62 10.62 0 002.41-6.67C40.647.37 30.697.51 27.317.62c2.32 3.64 3.31 7 2.21 7.73-1.1.73-3.64-1.1-7.85-1.1-4.21 0-6.75 1.81-7.85 1.1-1.1-.71-.11-4.09 2.21-7.73-3.38-.11-13.33-.24-13.59 9.54a10.78 10.78 0 002.61 6.82 6.39 6.39 0 00-2.24 4.44l3.68.41c-1.91 5.62-4.42 13.56-5.82 18.79a17.67 17.67 0 003.25 15.95 10.52 10.52 0 00-.86 7.29c3.13 13.8 1.55 15.31.32 22.2h12.33c.19-1.42 1.47-11 1.7-16.78 2.7 2.43 5.45 4.86 7.73 6.74a12.19 12.19 0 008.75 3.17 66.13 66.13 0 008.43-.71s.34-4.59.63-8.61l2.34-.19.26 3 3.89-.34c-1.75 6.69-5.35 11.17-6.86 13.71h13.46a78.11 78.11 0 005-9.79 8.07 8.07 0 008.31-1.29c-.64 4.72-3.39 9.7-4 11.08h15.21c-.11-2.33-.84-5.43 4.49-20.92a14.93 14.93 0 01-5.86-4.48zm-.24-48.82c-1.52 1.62-3.68 3.28-6.17 3.28-2.49 0-4-1.45-5.84-3.28h12zm-66.89 70.11h-3.57c2.17-9.76-2.43-19.33-1.38-22 1 .89 5.47 5 6.2 5.65.18 3.02-.57 10.77-1.25 16.32zm41.59 0h-3.57a38.77 38.77 0 003.75-9.92l2.32-.2a10.22 10.22 0 001.42 2 70.45 70.45 0 01-3.93 8.09zm9.74-9.25a5.5 5.5 0 01-3.9-3.56c1.17.34 6.36 1.28 7.83 2a3.88 3.88 0 01-3.93 1.53zm13 9.25h-4.61c1-2.79 2.25-6.92 1.64-9.82-.94-4.45-5.72-5.45-9.93-6.33-2.42-.51-5.08-1.06-6.8-2.09-2.91-1.74-3.06-6-2-8.46h-4.37c-1.49 6.44 1.71 10.78 4.63 12.23v.26l-5.6.49-.25-3-10.35.81a20.33 20.33 0 00.69-5h-4.17c0 3.9-1.84 8.11-3.35 9.75l6.84-.55c-.13 1.86-.25 3.43-.33 4.54a29.5 29.5 0 01-6.64.12 7.83 7.83 0 01-5.7-4.62c-1.15-2.87-.49-6.43 1.9-10.36l-3.17-2.81c-2.58 4-3.44 7.4-3.46 10.12-2.57-2.29-10.6-9.64-11.62-10.56-4.83-4.3-6.51-9.37-5-15.07 1.56-5.81 4.59-15.27 6.47-20.65.93-2.74 1-3 1.37-3.94a7.54 7.54 0 01-6-6.87c0-2.61 1.94-5.06 3.93-5.29a6.93 6.93 0 00-.24 5.17 4.34 4.34 0 003.85 2.54c1.42 0 3.95-1.15 7.52-1.15 3.58 0 6.1 1.15 7.52 1.15a4.34 4.34 0 003.85-2.54 6.93 6.93 0 00-.24-5.17c2 .29 3.93 2.73 3.93 5.29 0 2.34-1.63 5.84-5.22 6h-1.8c-6 .11-6.3 4.88-5.19 9.52a4.24 4.24 0 01-.15 2.44h-7.75l1.33 2.68a21.93 21.93 0 018.26 0l1.56-2.69-.63-2.2 3.9-5.61c1.16 2.31 3.22 6.06 3.34 6.27 2.73 5 3.92 9.66 3.55 13.75a13.62 13.62 0 01-1 4.18l3.24 2.88a18.14 18.14 0 002-8.91c.59.73 1.18 1.42 1.77 2.06a35 35 0 0020.32 10.33c5.62.9 7.67 5.37 9.16 8.19 2.22 4.19 3.3 5.6 6.63 8.09-.42 1.28-3.09 9.49-3.61 14.8zm-47-63.74a3.32 3.32 0 01-3.42 3.77 3.32 3.32 0 013.52-3.8z" id="path7891"/><path class="cls-1" d="M18.407 21.634a3.85 3.85 0 01-4-4.36 3.85 3.85 0 014 4.36z" id="path7893"/></svg>