<svg xmlns="http://www.w3.org/2000/svg" viewBox="0 0 90 90"><path fill="#2481D7" d="M80.75 20.5c-3.6 0-6.84 1.81-8.8 4.56l-13.3 18.78a2.67 2.67 0 01-4.87-1.54c0-.55.17-1.1.44-1.49l11.21-16.9c1.15-1.71 1.81-3.8 1.81-6.06 0-6-4.81-10.85-10.78-10.85H0v10.85h48.36c0 2.97-2.4 5.45-5.41 5.45H0c0 3.86.82 7.55 2.24 10.85h35.3c0 2.97-2.42 5.45-5.42 5.45H5.36a26.83 26.83 0 0021.61 10.85h13.3a2.7 2.7 0 010 5.4h-13.3L8.92 83h32.66c14.94 0 27.63-9.8 32.06-23.35l6.07-18.56c1.97-6 5.58-11.29 10.29-15.31a10.77 10.77 0 00-9.25-5.29zm0 7.48c-1.09 0-2.02-.93-2.02-2.04 0-1.1.93-2.03 2.02-2.03 1.1 0 2.03.93 2.03 2.03 0 1.1-.88 2.04-2.03 2.04z"/></svg>