<svg xmlns="http://www.w3.org/2000/svg" viewBox="0 0 40 33.75"><path fill="#0089ff" d="M35.89 6A4.82 4.82 0 0 0 32 8l-5.91 8.34a1.23 1.23 0 0 1-1 .52 1.2 1.2 0 0 1-1.19-1.2 1.17 1.17 0 0 1 .2-.66l5-7.51a4.88 4.88 0 0 0 .81-2.69A4.8 4.8 0 0 0 25.1 0H0v4.82h21.5a2.42 2.42 0 0 1-2.41 2.42H0a12.08 12.08 0 0 0 1 4.82h15.68a2.42 2.42 0 0 1-2.41 2.42H2.38A12 12 0 0 0 12 19.3h5.9a1.2 1.2 0 0 1 0 2.39H12L4 33.75h14.48a15 15 0 0 0 14.25-10.37l2.7-8.24A15.14 15.14 0 0 1 40 8.34 4.79 4.79 0 0 0 35.89 6Zm0 3.33a.91.91 0 1 1 .9-.91.9.9 0 0 1-.89.91Z"/></svg>