<svg xmlns="http://www.w3.org/2000/svg" stroke-linejoin="round" viewBox="0 0 76.1 70"><path fill="#e17726" stroke="#e17726" d="M71.9.5 42.5 22.1 48 9.3z"/><g fill="#e27625" stroke="#e27625"><path d="m4.2.5 29 21.8-5.1-13zm57.1 50-7.8 11.8L70.2 67 75 50.8zm-60.2.3L6 66.9l16.7-4.6-7.8-11.8z"/><path d="m21.7 30.5-4.7 7 16.6.7-.6-17.7zm32.8 0L42.9 20.3l-.3 17.9 16.5-.8-4.7-7zm-32 31.8 10-4.8L24 51zm21-4.8 10 4.8L52.2 51z"/></g><path fill="#d5bfb2" stroke="#d5bfb2" d="m53.5 62.3-10-4.8.9 6.5-.1 2.7zm-31 0 9.4 4.4-.1-2.7.8-6.5z"/><path fill="#233447" stroke="#233447" d="m32 46.6-8.3-2.4 5.9-2.7zm12 0 2.5-5 6 2.6z"/><path fill="#cc6228" stroke="#cc6228" d="M22.6 62.3 24 50.5l-9.2.3zM52 50.5l1.4 11.8 7.8-11.5zm7-13-16.5.7 1.5 8.4 2.4-5 6 2.6 6.6-6.8zm-35.4 6.7 5.9-2.7 2.4 5.1 1.6-8.4-16.6-.8z"/><path fill="#e27525" stroke="#e27525" d="M17 37.4 24 51l-.3-6.7-6.7-6.8zm35.4 6.8-.2 6.7L59 37.4l-6.7 6.8zm-18.8-6L32 46.6l2 10 .4-13.1zm9 0-.9 5.2.4 13.2 2-10z"/><path fill="#f5841f" stroke="#f5841f" d="m44 46.6-1.8 10 1.3 1 8.7-6.7.2-6.7-8.3 2.4zm-20.3-2.4.2 6.7 8.7 6.6 1.4-1-2-9.9z"/><path fill="#c0ac9d" stroke="#c0ac9d" d="M44.3 66.7V64l-.7-.7h-11l-.8.7v2.7l-9.3-4.4 3.3 2.7 6.6 4.5h11.3l6.6-4.5 3.2-2.7z"/><path fill="#161616" stroke="#161616" d="m43.5 57.5-1.4-1H34l-1.4 1-.8 6.5.7-.7h11.1l.8.7-.8-6.5Z"/><path fill="#763e1a" stroke="#763e1a" d="m73.1 23.5 2.5-12L72 .6 43.5 21.3l11 9.2 15.4 4.4 3.4-3.9-1.5-1 2.3-2.2-1.8-1.4 2.4-1.7zM.5 11.5l2.5 12-1.6 1.1 2.4 1.8L2 27.8 4.3 30 3 31l3.4 4 15.4-4.5 10.9-9.2L4.2.5z"/><path fill="#f5841f" stroke="#f5841f" d="m69.9 35-15.5-4.5 4.7 7-7 13.4 9.2-.1H75L70 35zm-48.2-4.5L6.3 35 1 50.8h23l-7-13.4 4.7-7zm20.8 7.7 1-16.9 4.5-12H28.1l4.5 12 1 16.9.3 5.3v13h8.3v-13l.4-5.3z"/></svg>