<svg xmlns="http://www.w3.org/2000/svg" viewBox="0 0 36 33"><path fill="#e17726" stroke="#e17726" stroke-linecap="round" stroke-linejoin="round" stroke-width=".3" d="m33 1-13.2 9.7L22.3 5 33 1Z"/><path fill="#e27625" stroke="#e27625" stroke-linecap="round" stroke-linejoin="round" stroke-width=".3" d="m2.7 1 13 9.8L13.4 5 2.7 1Zm25.5 22.5-3.5 5.4 7.5 2 2.2-7.2-6.2-.2Zm-26.9.2 2.1 7.2 7.5-2-3.5-5.4-6.1.2Z"/><path fill="#e27625" stroke="#e27625" stroke-linecap="round" stroke-linejoin="round" stroke-width=".3" d="m10.5 14.5-2.1 3.2 7.4.3-.2-8-5.1 4.5Zm14.7 0L20 9.9l-.2 8.1 7.4-.3-2-3.2ZM10.9 28.9l4.5-2.2-3.9-3-.6 5.2Zm9.4-2.2 4.4 2.2-.6-5.2-3.8 3Z"/><path fill="#d5bfb2" stroke="#d5bfb2" stroke-linecap="round" stroke-linejoin="round" stroke-width=".3" d="m24.7 28.9-4.4-2.2.3 2.9v1.2l4.1-1.9Zm-13.8 0 4.1 1.9v-1.2l.4-2.9-4.5 2.2Z"/><path fill="#233447" stroke="#233447" stroke-linecap="round" stroke-linejoin="round" stroke-width=".3" d="m15.1 21.8-3.7-1.1 2.6-1.2 1.1 2.3Zm5.4 0 1.1-2.3 2.6 1.2-3.7 1.1Z"/><path fill="#cc6228" stroke="#cc6228" stroke-linecap="round" stroke-linejoin="round" stroke-width=".3" d="m10.9 28.9.6-5.4-4.1.2 3.5 5.2Zm13.2-5.4.6 5.4 3.5-5.2-4.1-.2Zm3.1-5.8-7.4.3.7 3.8 1.1-2.3 2.6 1.2 3-3Zm-15.8 3 2.6-1.2 1.1 2.3.7-3.8-7.4-.3 3 3Z"/><path fill="#e27525" stroke="#e27525" stroke-linecap="round" stroke-linejoin="round" stroke-width=".3" d="m8.4 17.7 3.1 6-.1-3-3-3Zm15.8 3-.1 3 3.1-6-3 3ZM15.8 18l-.7 3.8.9 4.5.2-5.9-.4-2.4Zm4 0-.3 2.3.1 6 .9-4.5-.7-3.8Z"/><path fill="#f5841f" stroke="#f5841f" stroke-linecap="round" stroke-linejoin="round" stroke-width=".3" d="m20.5 21.8-.9 4.5.7.4 3.8-3 .1-3-3.7 1.1Zm-9.1-1.1.1 3 3.9 3 .6-.4-.9-4.5-3.7-1.1Z"/><path fill="#c0ac9d" stroke="#c0ac9d" stroke-linecap="round" stroke-linejoin="round" stroke-width=".3" d="M20.6 30.8v-1.2l-.3-.3h-5l-.3.3v1.2l-4.1-1.9 1.4 1.2 3 2h5l3-2 1.4-1.2-4.1 1.9Z"/><path fill="#161616" stroke="#161616" stroke-linecap="round" stroke-linejoin="round" stroke-width=".3" d="m20.3 26.7-.7-.4H16l-.6.4-.4 2.9.3-.3h5l.3.3-.3-2.9Z"/><path fill="#763e1a" stroke="#763e1a" stroke-linecap="round" stroke-linejoin="round" stroke-width=".3" d="M33.5 11.4 34.6 6 33 1l-12.7 9.4 4.9 4.1 6.8 2 1.6-1.8-.7-.4 1.1-1-.8-.6 1-.8-.7-.5ZM1 6l1.1 5.4-.7.5 1.1.8-.8.6 1 1-.6.4 1.5 1.8 6.9-2 4.9-4.1L2.7 1 1 6Z"/><path fill="#f5841f" stroke="#f5841f" stroke-linecap="round" stroke-linejoin="round" stroke-width=".3" d="m32 16.5-6.8-2 2 3.2-3.1 6h10.3L32 16.5Zm-21.5-2-6.9 2-2.3 7.2h10.2l-3.1-6 2.1-3.2Zm9.3 3.5.5-7.6 2-5.4h-8.9l2 5.4.4 7.6.2 2.4v5.9h3.6l.1-5.9.1-2.4Z"/></svg>