<svg xmlns="http://www.w3.org/2000/svg" width="66.664" height="66.664" viewBox="0 0 17.638 17.638"><defs><clipPath clipPathUnits="userSpaceOnUse" id="a"><path d="M85.672 718.17c-5.578 0-10.101-4.521-10.101-10.1v-29.797c0-5.578 4.523-10.1 10.101-10.1h29.796c5.578 0 10.101 4.522 10.101 10.1v29.797c0 5.579-4.523 10.1-10.101 10.1z"/></clipPath></defs><g clip-path="url(#a)" transform="matrix(.35278 0 0 -.35278 -26.66 253.355)" fill="#8da3f8"><path d="M85.672 718.17c-5.578 0-10.101-4.521-10.101-10.1v-29.797c0-5.578 4.523-10.1 10.101-10.1h29.796c5.578 0 10.101 4.522 10.101 10.1v29.797c0 5.579-4.523 10.1-10.101 10.1z"/></g><path d="M3.332 10.944h3.362v4.253H3.332a.89.89 0 01-.891-.89v-2.473a.89.89 0 01.89-.89" fill-rule="evenodd" fill="#bfcbfb"/><path d="M6.694 10.944h4.254v4.253H6.694z" fill="#cbd5fb" fill-rule="evenodd"/><path d="M10.944 10.944h4.253v3.362a.89.89 0 01-.89.891h-3.363z" fill-rule="evenodd" fill="#e5eafd"/><path d="M7.585 6.694h3.363v4.254H6.694V7.585a.89.89 0 01.891-.89" fill-rule="evenodd" fill="#dae1fc"/><path d="M10.944 6.694h4.253v4.254h-4.253z" fill="#f2f5fe" fill-rule="evenodd"/><path d="M11.835 2.44h2.472a.89.89 0 01.89.892v3.362h-4.253V3.332a.89.89 0 01.89-.891" fill-rule="evenodd" fill="#fff"/></svg>