<svg xmlns="http://www.w3.org/2000/svg" viewBox="0 0 140 90"><path fill="#003087" d="m137.6 62.6-30.2-52.4c-6.6-11-22.8-11-29.2.5L46.5 65a15 15 0 0 0 13.3 22.6h63.6a16.6 16.6 0 0 0 14.2-25.1Z"/><path fill="#1877F2" d="m94 66.7-1.9-3.2-5.6-9.6L61 9.5a16.7 16.7 0 0 0-29 1.8L2.4 62.8a16.7 16.7 0 0 0 14.5 25H123c-16.3 0-21.5-8.5-29-21Z"/><path fill="url(#a)" d="m94 66.5-1.9-3.2-5.6-9.6-16.5-29L46.3 65a15 15 0 0 0 13.3 22.6H123c-16.4-.1-21.5-8.5-29-21.2Z"/><defs><linearGradient id="a" x1="37.9" x2="111.3" y1="46.8" y2="73.9" gradientUnits="userSpaceOnUse"><stop stop-color="#003087" stop-opacity="0"/><stop offset="1" stop-color="#003087"/></linearGradient></defs></svg>