<svg xmlns="http://www.w3.org/2000/svg" viewBox="0 0 139.8 85.8"><defs><linearGradient id="a" x1="37.8" x2="111.3" y1="44.7" y2="71.9" gradientUnits="userSpaceOnUse"><stop offset="0" stop-color="#003087" stop-opacity="0"/><stop offset="1" stop-color="#003087"/></linearGradient></defs><path fill="#003087" d="M137.5 60.6 107.3 8.2c-6.6-11-22.8-11-29.2.5L46.5 63a15 15 0 0 0 13.2 22.6h63.7a16.6 16.6 0 0 0 14.1-25.1"/><path fill="#1877f2" d="m94 64.7-2-3.2-5.5-9.6L60.9 7.5A16.7 16.7 0 0 0 32 9.3L2.2 60.8a16.7 16.7 0 0 0 14.6 25H123c-16.4 0-21.6-8.5-29-21"/><path fill="url(#a)" d="m94 64.5-2-3.2-5.5-9.6-16.5-29L46.3 63a15 15 0 0 0 13.2 22.6H123c-16.5-.1-21.6-8.5-29-21.2z"/></svg>