<svg xmlns="http://www.w3.org/2000/svg" width="216.385" height="216.385"><path d="M216.385 188.392H0l28.135-47.218h1.831v-66.96h-2.431L0 27.991h76.821L107.9 80.168l30.819-52.176h77.136L188.106 74.31h-2.625v66.868h2.119z" fill="#fff"/><path d="M7.986 32.904L30.6 70.331h4.388v75.661h-4.1L8.141 183.46h97.873l-22.745-37.468h-3.93v-24.419c9.936 16.837 28.819 48.793 28.819 48.793l8.985-15.094s9.957-16.852 19.886-33.68v24.4h-3.919l-22.736 37.49h97.874l-22.734-37.49h-4.124V70.338h4.4l22.61-37.427h-66.737l-33.472 56.527-33.469-56.534z" fill="#231f20" fill-rule="evenodd"/><path fill="#e11d37" fill-rule="evenodd" d="M171.057 156.342V60.053h8.874l10.165-16.816h-42.518l-39.385 66.515-39.383-66.53H26.289l10.158 16.825h8.911v96.265h-8.646l-10.225 16.842h61.166l-10.234-16.842h-8.434V83.754l39.175 66.315.033-.033.011.044 39.194-66.316v72.578h-8.435l-10.235 16.824h61.158l-10.203-16.824z"/></svg>