<svg xmlns="http://www.w3.org/2000/svg" width="832" height="340" version="1.0" viewBox="0 0 624 255"><path d="M399 6.2c-16.9 7.6-19.8 7.8-29.8 2.5-3.9-2-7.9-3.7-8.9-3.7s-7.2 2.3-13.7 5.1c-13.3 5.6-14.2 5.6-21.3.7-7.3-5-10.8-4.9-22.6.6-14.7 6.9-14.9 7-18.4 11.6-3.2 4.1-4.3 6.7-2.3 5.5.6-.4 2.5-.3 4.3.1 2.8.7 2.3.9-3.9 1.5-8.7.8-13.2 3-14 6.7-1.4 6.2-1.5 6.4-3.1 5.1-.8-.7-1.3-2.3-1-3.6.6-3-.7-2.9-3.2.3-3.6 4.6-2.7 10.5 1.9 12.9 2 1.1 2.7 2 2.3 3.4-.4 1.7.5 4.4 6.3 17.9.8 1.8 1.4 5.3 1.4 7.7 0 3.4.4 4.5 1.6 4.5 1.1 0 1.3.6.9 1.9-.4 1.4 0 2.1 1.5 2.6 1.1.4 1.8 1.1 1.5 1.6-.4.5.5.9 1.9.9 2.9 0 6.6-3.1 6.7-5.8 0-1 .3-1.2.6-.4.2.6.9 1 1.4.6.5-.3.9.6.9 2s.4 2.6.9 2.6c.6 0-.3 2.8-1.9 6.2-1.5 3.5-3.3 8.1-4 10.4l-1.2 4.1-12.3-.5c-8.5-.3-12.4-.1-12.9.7-.5.8 13 1.1 51.8 1.1 38.7 0 52.6-.3 52.6-1.1 0-.9-7.3-1-27.5-.7l-27.5.5v-2.2c0-2.9 3.4-5.9 6-5.2 1.3.3 2 0 2-.9 0-.8.6-1.4 1.3-1.4.7 0 3.4-2.5 6-5.5 5.1-5.8 7.6-6.9 17.7-8 3.2-.3 7.2-1.6 9.5-3 11.1-6.8 13.7-6.8 24.3-.6 3.7 2.3 7.3 4.1 7.8 4.1s7.7-2.9 15.9-6.4l14.9-6.4-3.5-2.1c-1.9-1.2-4.3-2.1-5.5-2.1-1.1 0-7.2 2.2-13.6 5-6.4 2.7-12.4 5-13.5 5-1 0-4.3-1.6-7.2-3.6-6.4-4.3-12-5.3-17.3-3.1-3.6 1.5-3.7 1.5-4-.6-.2-1.6-1.2-2.3-3.8-2.8l-3.5-.6 4.5-2.1c6.6-3.2 10.2-2.8 18.6 1.8 4 2.2 8.1 4 9.1 4 1.1 0 7-2.3 13.2-5 6.2-2.7 12.3-5 13.5-5 1.1 0 5.5 2.1 9.6 4.6 8.6 5.1 8.6 5.1 19.9-.4 5.9-2.9 7.7-4.3 8.4-6.5 1.6-4.9-.3-5-10.2-.7-11.9 5.2-14.9 5.2-25.1-.1l-7.9-4.2-12.2 5.2c-6.7 2.8-13.4 5.1-14.8 5.1-1.5 0-5.1-1.6-8.1-3.5-6.7-4.3-10.6-5.1-15.2-3.2-3.4 1.4-3.6 1.4-4.1-.5-.5-1.8-1.1-2-4.6-1.4-2.3.3-4.1.4-4.1.1 0-1.1 10.1-5.5 12.6-5.5 1.5 0 6.5 2.1 11.2 4.6l8.4 4.6 12.2-5.2c6.6-2.9 13.2-5.3 14.6-5.3 1.4 0 5.7 1.8 9.5 4.1s7.7 4.2 8.8 4.2c2.4 0 27.3-10.8 28.6-12.4 1.5-1.9 2.1-5 1.3-6.4-.6-.9-4.3.3-14.8 4.9-17.2 7.6-20.1 7.9-29.8 2.6-3.6-2-7.6-3.7-8.7-3.7-1 0-7.3 2.2-13.9 5-6.6 2.7-12.5 5-13.2 5-.6 0-4.2-1.8-8-4.1-5.8-3.5-7.4-4.1-11.3-3.7-2.5.2-4.5 0-4.5-.4 0-.5-.9-.8-2.1-.8-1.1 0-2.9-.5-4-1.1-2.6-1.3-1.1-3.4 4-5.5 4.6-1.9 8.2-1.2 15.2 3 9 5.4 8.5 5.4 24.5-1.5 7.9-3.5 14.4-6.6 14.4-6.9 0-.8-6.7-4-8.3-4-.7 0-6.7 2.3-13.2 5.1-13.5 5.7-15.1 5.7-21.9.8-5.8-4.1-11-4.7-17-2.1l-4.6 2.1v-2.4c0-1.8-.7-2.5-3-3-1.6-.4-3.5-.3-4.2.1-.9.4-1 .4-.3-.3.6-.5 3.4-2 6.4-3.2 7-2.9 11.2-2.4 18.8 2.3 3.2 2 6.9 3.6 8.2 3.6 1.2 0 7.5-2.3 13.9-5 6.4-2.8 12.3-5 13.2-5 .9 0 4.5 1.7 8.1 3.9 3.5 2.1 7.4 4.1 8.6 4.5 2.6.8 18-5.5 20.1-8.1 1.1-1.6 1.7-7.3.8-7.3-.3 0-4.7 1.8-9.7 4-11.9 5.2-15.1 5.2-25.5 0l-8-4.1-11.9 5.1c-6.6 2.7-13.3 5-15 5-2 0-5-1.3-7.9-3.4-6.4-4.5-9.9-5.1-17-2.6-5.6 1.9-5.7 1.9-7.4 0-.9-1.1-2.6-2-3.7-2.1-2.8-.1 9.3-5.7 12.6-5.8 1.4-.1 5 1.3 8 2.9 12.2 6.9 10.7 6.8 24.2.9 6.5-2.8 13.1-5.2 14.7-5.1 1.5 0 5.5 1.9 9 4.1 3.5 2.3 7.3 4.1 8.6 4.1 3.1 0 27.6-10.7 29.2-12.8 1.3-1.7 1.7-7.3.5-7.1-.5 0-6.9 2.8-14.3 6.1zm-91 37.9c0 3.1-1.2 4.9-4.1 6.4-3.6 1.9-7.5 1.9-8.3 0-.9-2.5.4-4.3 4.5-5.9 3.6-1.5 3.9-1.9 3.3-4.3l-.7-2.8 2.7 2.4c1.4 1.4 2.6 3.2 2.6 4.2zm-13.4 16.8c-.4.6-1.4 1.1-2.2 1.1-1.2 0-1.3-.4-.3-2.1.7-1.4 1.4-1.8 2.1-1.1.6.6.7 1.5.4 2.1zm-13 12.1c1.7 0 2.2.4 1.8 1.5-.5 1.3-6.4 2.3-6.4 1.1 0-.2-.3-1.2-.7-2.2-.5-1.4-.3-1.6 1.1-1.1 1 .4 2.8.7 4.2.7zm22 22.5c.4.9-.5 3.2-1.9 5.3-1.4 2-3.1 5.4-3.8 7.4-1.4 4-2.6 4.8-3.5 2.4-.6-1.6 2-7.2 3.6-7.8.6-.2 1.2-1.9 1.2-3.8s.3-3.8.5-4.3c.7-1.3 3.3-.8 3.9.8z"/><path d="M331.4 94c-1.1.4-2.7 2.2-3.4 4-1.5 3.7-.4 7.1 3.4 9.5 7 4.6 14.2-6 8.1-12-2.5-2.6-4.5-3-8.1-1.5zm7 2.6c3.5 3.4 1 10.4-3.6 10.4-3 0-5.8-2.8-5.8-5.8 0-5.2 5.9-8.1 9.4-4.6z"/><path d="M332.1 101.2c.1 2.4.3 3.5.6 2.5.2-.9 1.1-1.7 1.8-1.7.8 0 1.8.8 2.4 1.7.8 1.4.9.9.8-2.2-.3-3.5-.6-4-3-4.3-2.6-.3-2.7-.1-2.6 4zm4.2-1.7c.1.5-.6 1.1-1.5 1.3-1.1.2-1.8-.3-1.8-1.3 0-1.7 3-1.8 3.3 0zM205.6 108.7c-1.7 1.9-3.9 4-5.1 4.5-1.6.7-2 1.7-1.8 3.6.5 3.4-23.9 67.8-26.9 70.9-1.1 1.2-3.3 2.5-4.9 2.8-2 .5-2.9 1.3-2.9 2.6 0 1.8.9 1.9 17.1 1.9 15.7 0 17-.1 16.7-1.8-.2-.9-1.4-1.8-2.8-2-4.7-.6-7.8-2.4-9-5.2-1.3-3.1-1-5.7 2.2-16.8l2.1-7.2h24.5l3.1 9.6c4.5 13.9 4.2 16.2-2.2 18.9-2 .8-3.7 2.2-3.7 3 0 1.3 3.9 1.5 28.5 1.5 23.5 0 28.5-.2 28.5-1.4 0-.7-1.3-1.6-2.9-1.9-4.6-.9-6.1-3.2-6.1-9 0-13.9 1.4-34 2.2-32.7.5.8 4.6 11.4 9.1 23.5 5.4 14.4 8.7 22 9.6 22 1 0 4.5-8.3 10.5-24.2 4.9-13.4 9.1-24.1 9.3-24 .1.2.7 9 1.3 19.6 1.2 21.7.9 23.3-5.2 24.9-1.7.4-3.3 1.3-3.6 2-.3.9 8.3 1.2 37.1 1.2 34.9 0 37.6-.1 38.1-1.8 1.2-4 2.7-16.4 2.2-17.9-.9-2.1-1.9-.9-4 4.8-.9 2.5-3 5.9-4.7 7.4-2.6 2.5-3.9 3-9.8 3.3-6 .4-7.2.1-9-1.7-1.9-1.9-2.1-3.3-2.1-12.6V166h6.5c5.7 0 6.9.3 9 2.5 1.4 1.3 2.5 3.4 2.5 4.5 0 1.2.4 2 1 1.8 1.2-.4 2.2-22.8 1-22.8-.5 0-1.6 1.5-2.5 3.4-1.9 4-5.5 5.6-12.6 5.6H341v-23.2l7.9.3c9.1.5 11.4 1.9 13.3 8.1 2 6.6 3 4.7 4.1-7.5l.5-4.7h-69l.7 2.9c.4 2.1-1 7.2-6 20.2-8 20.8-8 20.7-8.9 18.3-11.2-28.6-13.7-35.9-13.1-38.5l.7-2.9h-10.6c-8.5 0-10.6.3-10.6 1.4 0 .8 1.3 1.7 2.9 2.1 6.1 1.3 6.2 2.1 3.1 28-2.6 21.3-3.3 24.3-6.5 25.1-3.6.9-9-2.9-11.4-7.9-1.1-2.3-7.6-20.6-14.4-40.7-7.8-22.8-13-36.6-13.8-36.7-.8-.1-2.7 1.4-4.3 3.4zm1.4 30.5c2.3 6.8 4.4 12.9 4.7 13.5.3 1-1.8 1.3-9.1 1.3-5.3 0-9.6-.3-9.6-.7 0-1.8 8.5-26.3 9.1-26.3.4 0 2.6 5.5 4.9 12.2zm121.2.8c1.6 2 1.8 4.6 1.8 24.7v22.4l-2.5 2.4c-3.1 3.2-7.5 3.2-11.1.2-2.6-2.3-2.7-2.9-3.5-15.8-1-17.1-1.1-32.1-.1-33.5 2.7-4 12.3-4.3 15.4-.4zM533.4 133.9c-2.2 2.1-3.8 4.3-3.7 4.8.4 1.1-15.5 44.1-18.2 49.3-.9 1.7-2 3-2.5 3-1.1 0-.7-2.1 1.6-10 3-9.8 1.2-10.6-3.5-1.5-1.8 3.6-4.6 7.6-6.2 9-7 5.8-15.5 5.1-22.5-1.9-12.8-12.9-10.7-40.7 3.7-48.2 4-2 11.8-1.8 15.6.6 3.6 2.2 6 5.4 7.8 10.7 2.3 6.6 3.5 5.2 3.5-4.2v-8.6l-3.7-1.7c-2.9-1.3-6.6-1.7-14.8-1.7-10 0-11.5.3-16 2.7-6 3.2-11.4 8.7-14.6 14.8-2.1 3.9-2.4 5.9-2.4 14.5 0 9.2.2 10.4 2.9 15.3 6.6 11.8 21.6 18.1 36.2 15.2 3.3-.6 11.9-1.1 19.3-1 10.6.1 13.2-.1 12.9-1.2-.3-.7-1.5-1.5-2.9-1.6-6-.9-7.2-5.3-4.1-15.2l1.8-5.5 8.6-.3 8.7-.3 2.6 8.2c1.4 4.5 2.3 9 2 9.9-.3 1-1.9 2.3-3.5 2.9-7.1 2.4-2.8 3.1 19.6 3.1 16.9 0 22.5-.3 22.2-1.2-.2-.6-1.9-1.7-3.8-2.3-6.5-2.2-7.1-4.1-7.7-24.1-.5-17.8-.5-17.9 1.4-15.9 2.2 2.2 31.3 37 35.4 42.4 2.1 2.6 3.1 3.2 4.8 2.6 2.1-.6 2.1-.9 2.1-27.8 0-23.1.2-27.6 1.6-29.5.8-1.2 2.4-2.2 3.5-2.2 1 0 1.9-.7 1.9-1.5 0-1.3-2-1.5-12-1.5s-12 .2-12 1.5c0 .8.9 1.5 2 1.5 1.2 0 3.4.7 5 1.5 4.2 2.2 5.1 6.8 4.8 24.4l-.3 14.9-13.6-16.6c-7.4-9.2-15.3-19.1-17.4-22l-3.9-5.2h-9.3c-9.9 0-11.6 1-5.9 3.4 6.5 2.7 7.1 4.7 7.4 26.1.4 21-.6 26.8-4.4 27.3-1.4.2-2.9-.6-4.1-2.1-1-1.3-6.1-15.1-11.3-30.6-5.2-15.4-9.7-28.1-10-28.1-.3 0-2.3 1.8-4.6 3.9zm2 20.8c1.6 4.9 3.1 9.4 3.3 10 .4 1-1.2 1.3-6.1 1.3-4.6 0-6.6-.4-6.6-1.3 0-2 5.3-18.7 6-18.7.3 0 1.9 3.9 3.4 8.7zM5 135.4c0 .8 1.2 1.7 2.7 2.1 6.3 1.5 6.3 1.3 2.8 29.6-2.3 19.1-2.7 20.5-5.1 22.6-1.4 1.3-3.2 2.3-4 2.3-.8 0-1.4.7-1.4 1.5 0 1.3 2 1.5 12.1 1.5 8.8 0 12-.3 11.7-1.2-.2-.6-2-1.7-3.9-2.3-5.2-1.8-5.8-4-4.8-19.5.4-7.4.8-15.7.8-18.5.1-2.7.5-4.5.9-4 .5.6 4.6 11.2 9.2 23.7 4.7 12.6 9 22.8 9.6 22.8.7 0 1.5-.8 1.9-1.8.4-.9 4.3-11.4 8.7-23.2 4.4-11.8 8.3-22.1 8.7-22.8.9-1.6 2.1 16.4 2.1 30.9 0 10.4-.4 11.4-5.6 12.8-1.5.4-2.9 1.2-3.2 1.9-.3.9 3.5 1.2 14.7 1.2 8.5 0 15.1-.4 15.1-.9s-1.7-1.8-3.7-2.8c-2.1-1-4.3-2.9-5-4.3-1.2-2.7-3.4-40.2-2.5-44.6.3-1.9 1.6-3.1 4.3-4.3 7-2.9 5-4.1-7.2-4.1H52.8l.6 2.6c.5 1.9-1.3 7.7-6.5 21.5-4 10.4-7.6 18.6-8 18.2-.3-.5-3.7-8.8-7.4-18.5-5.1-13.5-6.6-18.5-6.2-20.8l.7-3H15.5c-8.3 0-10.5.3-10.5 1.4zM81 135.3c0 .7 1.6 1.8 3.7 2.3 6.1 1.5 6.4 2.9 6.1 28.2-.3 22.2-.3 22.4-2.7 24.3-1.3 1-3.4 1.9-4.7 1.9-1.5 0-2.4.6-2.4 1.6 0 1.3 3.7 1.5 33.8 1.2 32.7-.3 33.8-.4 38.7-2.6 11.6-5.3 17.5-15.1 17.5-29.1 0-9.7-3.2-16.9-9.8-21.8-8.2-6.2-11.2-6.6-47.4-7.1-27.6-.3-32.8-.1-32.8 1.1zm36.6 4.2 2.5 2.5-.3 23.1c-.3 22.9-.3 23.1-2.7 25-3.7 3-11.9 2.2-14.3-1.5-.4-.6-.8-11.4-.8-23.9v-22.8l2.5-2.4c3.4-3.5 9.6-3.5 13.1 0zm23.6-.3c4.9 1.4 12 7.6 14.2 12.2 2.8 5.9 3.8 13.9 2.7 20.3-2.4 12.7-8.3 19.3-17.4 19.3-10 0-10.7-1.9-10.7-31.3V138h3.6c2 0 5.4.5 7.6 1.2z"/><path d="M373.2 135.2c.3.7 1.9 1.6 3.7 1.9 6.6 1.4 6.6 1.5 6.6 27.4 0 26 0 26-6.6 27.4-1.8.3-3.4 1.2-3.7 1.9-.3.9 3.7 1.2 16.7 1.2 9.4 0 17.1-.4 17.1-.9 0-1.1-2.5-2.1-5-2.1-1.1 0-3.1-1.1-4.6-2.4-2.6-2.2-2.8-2.9-3.2-12-.3-5.4-.1-10.1.4-10.5.5-.5 2.3-.4 3.9 0 2.5.7 3.8 2.4 7.9 10.4 5.5 10.6 10.3 15.8 16.3 17.4 5.6 1.6 36.3.3 36.3-1.6 0-.7-1.1-1.3-2.4-1.3-1.3 0-3.4-.9-4.7-1.9-2.4-1.9-2.4-2.1-2.7-24.3-.3-25.3 0-26.7 6.1-28.2 2-.5 3.7-1.5 3.7-2.3 0-1-3.3-1.3-15.5-1.3-13.1 0-15.5.2-15.5 1.5 0 .9.9 1.5 2.4 1.5 1.3 0 3.5.9 5 2.1l2.6 2v23.3c0 24.1-.2 25.5-4.3 27-2.8.9-14.3-11.2-19-20.1l-3.8-7.2 4.5-4.3c9.2-8.9 6.7-21.5-4.9-24.7-5.8-1.6-37.8-1.5-37.3.1zm30.1 4c5.4 2.1 7.5 11 4 16.9-1.8 2.9-8.4 6.9-11.6 6.9-1.5 0-1.7-1.4-1.7-12.3 0-6.8.3-12.7.6-13 .8-.7 4.5-.1 8.7 1.5zM553.3 222c-4.7 1.9-5.7 8.7-1.8 12.5 3 3 5.4 3.1 8.9.4 2-1.6 2.6-2.9 2.6-5.9 0-3-.6-4.3-2.6-5.9-2.9-2.3-3.8-2.4-7.1-1.1zm7.7 4.2c1.3 2.5 1.3 3.1 0 5.5-1.1 2-2.5 2.9-4.6 3.1-3.7.4-5.7-1.7-5.7-6 0-6 7.3-7.8 10.3-2.6z"/><path d="M553.1 229.2c.1 2.4.3 3.5.6 2.5.2-.9 1.3-1.7 2.3-1.7 1 0 2.1.8 2.3 1.7.3 1 .5 0 .4-2.2-.2-3.6-.5-4-2.9-4.3-2.7-.3-2.8-.2-2.7 4zm4.9-1.7c0 .8-.9 1.5-2 1.5s-2-.7-2-1.5.9-1.5 2-1.5 2 .7 2 1.5zM80.6 224.6c-.3.8-.6 7.5-.6 14.9 0 10.1.3 13.5 1.4 14.4.9.8 5.2 1.1 12.7.9l11.4-.3v-5c0-3.9-.4-5-1.7-5.3-1.5-.3-1.8.4-1.8 3.2v3.6H84v-24h18v3.5c0 3.6.5 4.1 2.8 2.6.9-.5 1.2-2.4 1-5.2l-.3-4.4-12.1-.3c-10.4-.2-12.3 0-12.8 1.4zM125 239c0 15.3.1 16 2 16 1.8 0 2-.7 2-6.5V242l3.3.1c2.7 0 4.1 1 8.6 6.5 3.8 4.5 6.2 6.4 7.8 6.4 1.3 0 2.3-.2 2.3-.4 0-.3-2.3-3.1-5.1-6.3l-5.1-5.8 3.8-.6c2-.4 4.4-1.5 5.1-2.5 1.9-2.5 1.3-14.1-.8-15.5-.7-.5-6.5-.9-12.6-.9H125v16zm21.5-6.5v5l-8.7.3-8.8.3v-11.2l8.8.3 8.7.3v5zM170 239v16h12c11.3 0 12-.1 12-2s-.7-2-10.6-2h-10.5l.3-5.3.3-5.2 5.8-.3c4.9-.3 5.7-.6 5.7-2.2 0-1.8-.7-2-6-2h-6v-9h10c9.3 0 10-.1 10-2s-.7-2-11.5-2H170v16zM212 239v16h9c10.4 0 14-1.3 17-6.3 2.5-4.1 2.7-14.4.4-19.3-2.5-5.2-5.8-6.4-16.9-6.4H212v16zm21.4-9.4c2.2 2.3 2.6 3.5 2.6 8.5 0 10.4-2.6 12.9-13.5 12.9H216v-24h7.4c6.6 0 7.6.3 10 2.6zM258 239c0 15.3.1 16 2 16s2-.7 2-16-.1-16-2-16-2 .7-2 16zM280 225c0 1.8.7 2 5.5 2h5.5v14c0 13.3.1 14 2 14s2-.7 2-14v-14h5.5c4.8 0 5.5-.2 5.5-2 0-1.9-.7-2-13-2s-13 .1-13 2zM354 237.9c0 11.5.3 15.1 1.4 16 .9.8 5.2 1.1 12.7.9l11.4-.3.3-15.8c.2-15.2.2-15.7-1.8-15.7-1.9 0-2 .6-2 14v14h-18v-14c0-13.3-.1-14-2-14s-2 .7-2 14.9zM399 239c0 15.2.1 16 2 16 1.8 0 2-.8 2.2-12.1l.3-12.2 10 12.1c5.8 7 10.7 12.2 11.8 12.2 1.5 0 1.7-1.4 1.7-16 0-13.4-.2-16-1.5-16-1.2 0-1.5 2.3-1.7 12.7l-.3 12.7-10.5-12.7c-6.1-7.3-11.2-12.7-12.2-12.7-1.6 0-1.8 1.4-1.8 16zM446 239c0 15.3.1 16 2 16s2-.7 2-16-.1-16-2-16-2 .7-2 16zM469.5 224.3c-.3.7-.4 7.8-.3 15.7l.3 14.5 12.6.3c9.9.2 12.9 0 13.8-1.2.8-.9 1.1-5.8.9-15.7l-.3-14.4-13.3-.3c-10.3-.2-13.4 0-13.7 1.1zM493 239v12h-20v-24h20v12zM516 239c0 15.2.1 16 2 16 1.8 0 2-.8 2.2-12.1l.3-12 10 12c5.9 7.3 10.6 12.1 11.7 12.1 1.7 0 1.8-1.3 1.8-16 0-15.2-.1-16-2-16-1.8 0-2 .8-2.2 12.2l-.3 12.2-10-12.1c-5.6-6.9-10.8-12.2-11.7-12.2-1.6-.1-1.8 1.3-1.8 15.9z"/></svg>