<svg xmlns="http://www.w3.org/2000/svg" fill-rule="evenodd" stroke-linejoin="round" stroke-miterlimit="2" clip-rule="evenodd" width="522.481" height="522.481"><path d="M308.364 481.137h-94.221l-.004-143.57c2.194-38.775-21.005-69.284-59.955-70.826-23.582-.934-61.581 18.21-59.948 68.21 2.846 17.02 13.85 34.915 29.37 43.92 7.525 3.79 16.456 6.414 26.737 7.897 1.263.083 2.551.132 3.856.145v.35l.535.06-.384 93.814-.151-.006v.003C52.415 478.674-1.356 397.367.026 320.774l.001-4.55a126.553 126.553 0 010-3.43c.005-17.353.003-32.788-.012-54.52-.001-.949.015-1.917.048-2.906L.048 191.86C1.984 108.462 70.303 41.343 154.174 41.343c81.455 0 148.241 63.307 153.796 143.366l.396.196c18.432-7.795 38.689-12.107 59.946-12.107l.997.003c84.629.536 153.172 69.41 153.172 154.166l-.018 41.026c-.03 71.501-.078 89.622.018 113.144H428.26l-.005-154.938c-.871-31.563-24.782-56.61-55.954-59.18h-8.334l-.387.038a68.85 68.85 0 00-8.012 1.29 62.446 62.446 0 00-14.229 5.052 59.914 59.914 0 00-15.783 11.433c-6.966 7.045-12.106 15.85-14.843 25.37a60.258 60.258 0 00-2.06 10.806 65.144 65.144 0 00-.289 5.96z" fill="#0043ce"/><path d="M94.051 222.45c12.299 0 22.284 9.986 22.284 22.285 0 12.3-9.985 22.284-22.284 22.284-12.3 0-22.285-9.985-22.285-22.284s9.985-22.285 22.285-22.285z" fill="#fff"/></svg>