<svg xmlns="http://www.w3.org/2000/svg" width="300" height="300"><rect width="280.018" height="280.018" x="9.991" y="9.991" ry="13.231" rx="13.231" fill="#fff" fill-rule="evenodd" stroke="#011849" stroke-width="19.982" paint-order="markers fill stroke"/><path d="M54.457 212.73c-3.799-1.758-6.289-4.652-7.12-8.273-.98-4.263-.998-106.726-.02-111.284.862-4.017 3.593-7.09 7.696-8.657 2.578-.984 10.433-1.071 78.39-.866 83.328.252 80.766.124 93.121 4.634 10.267 3.747 17.243 9.821 21.354 18.593 4.324 9.227 4.45 10.848 4.45 56.917 0 44.52.1 43.22-3.532 46.611-3.164 2.955-6.078 3.623-15.754 3.606-7.326-.012-9.612-.257-11.84-1.27-3.022-1.372-6.283-4.805-6.785-7.14-.175-.817-.462-16.864-.638-35.66-.405-43.365-.918-47.177-7.021-52.207-4.016-3.31-7.766-4.318-17.46-4.69-4.781-.185-9.786-.13-11.121.12-2.507.47-6.61 3.584-8.065 6.12-.614 1.071-.916 12.435-1.17 43.872l-.342 42.428-1.818 2.747c-3.098 4.68-5.369 5.353-18.054 5.353-10.904 0-11.009-.014-13.894-1.924-5.7-3.774-5.503-2.018-5.52-48.86-.015-44.286.077-43.075-3.538-46.363-3.681-3.349-5.248-3.668-17.995-3.668-15.274 0-18.087.964-20.94 7.176-1.173 2.557-1.256 5.421-1.27 43.95-.016 44.297.082 43.022-3.548 46.41-3.165 2.955-6.078 3.623-15.754 3.606-7.374-.012-9.591-.253-11.812-1.28z" fill="#011849"/></svg>