<svg xmlns="http://www.w3.org/2000/svg" width="19.1" height="19.1"><path d="m8.146 16.941-.112 1.606zm-1.381 1.052 1.393-1.163L9.55 19.1z" fill="#656565"/><path fill="#787778" d="M6.765 14.56v3.433l1.393-1.163z"/><path fill="#5c5c5c" d="M10.942 16.83 9.55 19.1l2.785-1.107z"/><path fill="#787778" d="m12.335 17.993-1.393-1.163 1.393-2.27z"/><path fill="#4a4a4a" d="M6.765 14.56h5.57L9.55 19.1z"/><path fill="#fed12f" d="m7.322 4.097 5.904 2.436L8.993 9.91zM11.778 0l3.341 3.433-1.893 3.1zM6.765 14.56l6.127-1.771-.557 1.771z"/><path fill="#fed12f" d="M6.209 12.789 8.993 9.91l-2.228 4.65zM3.98 3.433 7.323 0v4.097z"/><path fill="#fff3cb" d="m8.993 9.91 3.899 2.879.334-6.256zm0 0-5.346-.941 2.562 3.82z"/><path fill="#ffdd63" d="M7.322 4.097 11.778 0l1.448 6.533z"/><path fill="#ffedac" d="m3.647 8.969 3.675-4.872L8.993 9.91z"/><path fill="#ffdd63" d="m6.765 14.56 2.228-4.65 3.899 2.879zm6.127-1.771.334-6.256 2.228 2.436zm-9.245-3.82.334-5.536 3.341.664z"/><path fill="#fee382" d="m13.226 6.533 1.893-3.1.335 5.536z"/><path fill="#fef1c0" d="M11.778 0 7.322 4.097V0z"/></svg>