<svg xmlns="http://www.w3.org/2000/svg" viewBox="0 0 296 49.19"><path d="m295.77 36.44-.91-3.13-.85-2.87s-2.7-8.78-3-9.95c-.43-1.42-.88-2.87-1.28-4.26l-.06-.23 6-7.19L292.86 0h-30.12l-.94 1.48-.37-1.45H231l-.74 1.68-.28-1.68H199.4l-.54 2-.2-2H167.8l-.28 3.27-.09-3.27-31.06.06-.11 3-.31-3h-30.78l-.2 1.93-.54-1.93h-14.8l-1.19 8.27-.68-1.71h-.31L84.86.11H70.2l-.28 1.59-.77-1.59h-14.5l-.37 1.48-.85-1.48H39.05l-1.68 6.45h-3.89l-.74 2.81L25.95.11h-14l-12 37.14 12.7 11.76h13.87l2.19-8.27 1.08 1.19h3.69l6.17 7.08h14.24l.28-1.34 1 1.34h14.35l.26-1.45.91 1.45h14.49l1.11-7.76 3.72 7.76h14.66l.17-1.79.63 1.79H136l.11-2.81.34 2.81h30.78l.28-3.1.11 3.1h15.09l.48-2.16.14 2.16h14.97l.63-1.88.17 1.88h14.75l.77-1.65.23 1.65h14.61l.88-1.51.26 1.51h14.49l8.38-11.94-.4-1.9h4.63l6.59-9.12 5.63 22.93h14.21L296 37.35l-.23-.91ZM152 27.37l.14-5.06h14.52l.11-1.68.23 6.76Z"/><path fill="#a6a9aa" d="m26.6 8.7-1.93 6.74h8.58l1.79-6.65H39l1.68-6.48h11.31L44 36.6H31.77l3.67-14.55H31l-1.9 7.08h-7.9l2-7.08h-4.43L14.44 36.6h-12l11-34.24h11.08L22.73 8.6Zm41-6.34-6.74 34.3H48.62l7.62-34.27ZM84 25.52l1-7.08-4.43-.09-2.85 18.25H65.5l6.39-34.3H83.2l-1 6.34 3.89.11-.94 6.62 4.38.06L91.38 2.3h11.34l-4 34.3H86.53l1.54-11Zm48.82 4-.31 7.08h-29.1l3.61-34.3h27l-.26 6.08h-15.85l-.51 7h16.08L133.2 22h-16.4l-.54 7.42Zm158.4-27.39 1.93 6.08h-7.87l.06.2c.31 1.34.68 2.7 1.05 4.06s.8 2.78 1.19 4.23.85 2.9 1.31 4.35.91 2.93 1.34 4.4c.28.91.54 1.79.82 2.7l.85 2.76.85 2.81c.28.94.54 1.88.82 2.81h-12.3L273.54 8.2h-7.9l-1.56-6.08h27.14Zm-28.33 13 1.68 6.82h-16.43l3 14.58h-12.28l-6.28-34.39h27.11l1.51 6.08h-16l1.45 6.91Zm-47.2 10.34 1.51 11.08h-12.25l-3.78-34.36h27.08l5.94 34.39h-12.28l-1.59-11.08h-4.6Zm8-13.5L223 7.6h-5.37l.48 4h-4.21l-.54-4h-5.2l.54 4.35h4.77l.23 1.59h-2.39l.88 6.74h2.87l-.23-2.27h4.26l.37 2.3h2.93l-1-6.68H219l-.2-1.62h4.89m-29.24 6.79h4l1.79 17.79H188l-1.11-14.49-4.55-.11.94 14.61H171l-1.28-34.33h27.05L198.05 15h-4Zm-8-3.41-.54-7.08h-4.4l.45 7.08h4.49m-36.55-7h15.69l-.17-6.08h-27l-1.17 34.33h29.16l-.2-7.08h-16.68Z"/><path fill="#333" d="M4.06 36.6c-.88 0-1.08.51-.45 1.11l8.67 8.33a4.65 4.65 0 0 0 2.76 1.11h7.64c.88 0 1.11-.54.51-1.17l-7.67-8.18a4.18 4.18 0 0 0-2.7-1.17H4.07Zm29.33 0c-.88 0-1.14.54-.57 1.22l6.76 8.07a3.84 3.84 0 0 0 2.61 1.22h8c.88 0 1.17-.57.65-1.28l-5.94-8a3.61 3.61 0 0 0-2.56-1.28Z"/><path fill="#333" d="M22.82 29.1c-.88 0-1.14.54-.54 1.19l7.53 8.5a3.56 3.56 0 0 0 2.36 1.14c.71 0 .88-.65.4-1.36l-.51-.74a3.7 3.7 0 0 1-.48-2.84l.14-.54a3.57 3.57 0 0 0-.57-2.78l-1-1.28a3.75 3.75 0 0 0-2.59-1.25h-4.72Zm27.39 7.56c-.88 0-1.17.57-.65 1.28l5.8 7.87a3.55 3.55 0 0 0 2.56 1.28h7.9c.88 0 1.22-.6.74-1.36L61.67 38a3.22 3.22 0 0 0-2.44-1.36Zm16.88-.09c-.88 0-1.22.63-.77 1.36L71 45.6a3.22 3.22 0 0 0 2.44 1.36h7.76a.92.92 0 0 0 .88-1.45l-3.69-7.56a2.82 2.82 0 0 0-2.3-1.45h-9Zm21 0a1 1 0 0 0-.94 1.45l3.52 7.64a2.74 2.74 0 0 0 2.27 1.45h8A1 1 0 0 0 102 45.6l-2.76-7.56a2.5 2.5 0 0 0-2.16-1.51Zm16.91 0a1 1 0 0 0-1.05 1.51l2.61 7.3a2.42 2.42 0 0 0 2.13 1.51h23.7a1.34 1.34 0 0 0 1.36-1.59l-1-7.16a1.89 1.89 0 0 0-1.82-1.59h-25.92Zm33.79 0a1.39 1.39 0 0 0-1.42 1.59l.8 7.39a1.81 1.81 0 0 0 1.76 1.59h23.59a1.86 1.86 0 0 0 1.79-1.59l.88-7.39a1.39 1.39 0 0 0-1.42-1.59h-26Zm33.87 0a1.86 1.86 0 0 0-1.79 1.59l-.91 7.27a1.37 1.37 0 0 0 1.39 1.59h7.9a2.12 2.12 0 0 0 2-1.56l1.76-7.36a1.21 1.21 0 0 0-1.22-1.56h-9.09Zm16.94 0a2.12 2.12 0 0 0-2 1.56L186 45.3a1.21 1.21 0 0 0 1.22 1.56h7.9a2.42 2.42 0 0 0 2.13-1.51l2.56-7.33a1.07 1.07 0 0 0-1.08-1.51h-9.07Zm16.94 0a2.42 2.42 0 0 0-2.13 1.51l-2.64 7.45a1.06 1.06 0 0 0 1.05 1.51h7.87a2.74 2.74 0 0 0 2.27-1.45l3.52-7.59a.94.94 0 0 0-.91-1.45h-9Zm17 0a2.82 2.82 0 0 0-2.3 1.45l-3.7 7.58a.93.93 0 0 0 .91 1.45h8.13A3 3 0 0 0 229 45.6l4.43-7.7c.45-.77.09-1.39-.8-1.39h-9.07Zm17 0a3.22 3.22 0 0 0-2.44 1.36l-4.76 7.67c-.45.74-.11 1.36.77 1.36h8a3.52 3.52 0 0 0 2.53-1.31l5.6-7.87c.51-.71.2-1.31-.68-1.31Zm42.4 0a4.14 4.14 0 0 0-2.67 1.19l-7 8c-.6.65-.34 1.19.54 1.19h7.64a4.73 4.73 0 0 0 2.76-1.11l8.35-8.16c.63-.63.43-1.11-.45-1.11h-9.21Z"/><path fill="#e6e6e6" d="M4 36.41c-1 0-1.68.11-1.48.26a6.58 6.58 0 0 0 2.22.26h7.5a6.34 6.34 0 0 0 2.22-.28c.2-.14-.48-.28-1.48-.28l-9 .06Zm18.22-7.5c-.68 0-1.11.11-1 .26a3.07 3.07 0 0 0 1.48.26h5a3 3 0 0 0 1.48-.28c.14-.17-.31-.28-1-.28Zm9.38-7.08c-.37 0-.63.11-.54.26a1.13 1.13 0 0 0 .82.26h2.78a1.12 1.12 0 0 0 .82-.28c.09-.17-.17-.28-.54-.28Zm-12.33 0c-.37 0-.63.11-.54.26a1.13 1.13 0 0 0 .82.26h2.78a1.12 1.12 0 0 0 .82-.28c.09-.17-.17-.28-.54-.28Zm62-3.86c-.37 0-.63.11-.54.26a1.13 1.13 0 0 0 .82.26h2.78a1.12 1.12 0 0 0 .82-.28c.09-.17-.17-.28-.54-.28ZM182 8.05c-.37 0-.63.11-.54.26a1.13 1.13 0 0 0 .82.26h2.78a1.12 1.12 0 0 0 .82-.28c.09-.17-.17-.28-.54-.28Zm.77 13.78c-.37 0-.63.11-.54.26a1.13 1.13 0 0 0 .82.26h2.78a1.12 1.12 0 0 0 .82-.28c.09-.17-.17-.28-.54-.28Zm33.62 3.41c-.37 0-.63.11-.54.26a1.13 1.13 0 0 0 .82.26h2.78a1.12 1.12 0 0 0 .82-.28c.09-.17-.17-.28-.54-.28Zm2-17.9c-.45 0-.74.11-.65.26a1.4 1.4 0 0 0 1 .26H222a1.44 1.44 0 0 0 1-.28c.09-.17-.2-.28-.65-.28l-3.89.06Zm-9.52 0c-.45 0-.74.11-.65.26a1.4 1.4 0 0 0 1 .26h3.27a1.44 1.44 0 0 0 1-.28c.09-.17-.2-.28-.65-.28l-3.89.06Zm5.54 4c-.37 0-.6.11-.51.26s.43.26.8.26h2.67c.37 0 .71-.14.77-.28s-.17-.28-.54-.28Zm-2.81 1.85c-.2 0-.34.11-.28.26a.43.43 0 0 0 .43.26h1.48a.45.45 0 0 0 .43-.28c0-.17-.09-.28-.28-.28Zm7.47 0c-.2 0-.34.11-.28.26a.43.43 0 0 0 .43.26h1.48a.45.45 0 0 0 .43-.28c0-.17-.09-.28-.28-.28Zm-24.35 1.68c-.34 0-.54.11-.48.26s.4.26.71.26h2.44a.83.83 0 0 0 .71-.28c.06-.17-.14-.28-.48-.28l-2.9.06ZM84.52 25.58c-.31 0-.51.11-.45.26s.37.26.68.26h2.27a.85.85 0 0 0 .68-.28c.06-.17-.14-.28-.45-.28l-2.73.06ZM33.2 36.46c-1 0-1.68.11-1.48.26a6.58 6.58 0 0 0 2.22.26h7.5a6.34 6.34 0 0 0 2.22-.28c.2-.17-.48-.28-1.48-.28l-9 .06Zm16.88 0c-1 0-1.68.11-1.48.26a6.58 6.58 0 0 0 2.22.26h7.53a6.34 6.34 0 0 0 2.22-.28c.2-.14-.48-.28-1.48-.28l-9 .06Zm16.88 0c-1 0-1.68.11-1.48.26a6.58 6.58 0 0 0 2.22.26h7.53a6.34 6.34 0 0 0 2.22-.28c.2-.17-.48-.28-1.48-.28l-9 .06Zm21.31 0c-1 0-1.68.11-1.48.26a6.58 6.58 0 0 0 2.22.26h7.53a6.34 6.34 0 0 0 2.22-.28c.2-.14-.48-.28-1.48-.28l-9 .06Zm30.41-14.86c-1.39 0-2.33.11-2 .26a12.33 12.33 0 0 0 3 .26h10.4a11.68 11.68 0 0 0 3-.28c.28-.17-.65-.28-2-.28Zm1.56-13.5c-1.31 0-2.19.11-1.9.26a10.71 10.71 0 0 0 2.84.26h9.72a10.29 10.29 0 0 0 2.84-.28c.26-.17-.63-.28-1.93-.28Zm31.69 0c-1.31 0-2.19.11-1.9.26a10.71 10.71 0 0 0 2.84.26h9.72a10.29 10.29 0 0 0 2.84-.28c.26-.17-.63-.28-1.93-.28Zm114.67 0c-.65 0-1.11.11-1 .26a2.93 2.93 0 0 0 1.45.26H272a2.71 2.71 0 0 0 1.42-.28c.14-.17-.31-.28-1-.28l-5.83.06Zm19.55 0c-.65 0-1.11.11-1 .26a2.93 2.93 0 0 0 1.45.26h4.89a2.71 2.71 0 0 0 1.42-.28c.14-.17-.31-.28-1-.28l-5.83.06Zm-38.73 0c-1.31 0-2.19.11-1.9.26a10.71 10.71 0 0 0 2.84.26h9.72a10.29 10.29 0 0 0 2.84-.28c.26-.17-.63-.28-1.93-.28Zm3.13 13.78c-1.31 0-2.19.11-1.9.26a10.71 10.71 0 0 0 2.84.26h9.72a10.29 10.29 0 0 0 2.84-.28c.26-.17-.63-.28-1.93-.28Zm-77.69 14.58c-1 0-1.68.11-1.48.26a6.58 6.58 0 0 0 2.22.26h7.53a6.34 6.34 0 0 0 2.22-.28c.2-.17-.48-.28-1.48-.28l-9 .06Zm16.74 0c-1 0-1.68.11-1.48.26a6.58 6.58 0 0 0 2.22.26h7.53a6.34 6.34 0 0 0 2.22-.28c.2-.17-.48-.28-1.48-.28l-9 .06Zm16.74 0c-1 0-1.68.11-1.48.26a6.58 6.58 0 0 0 2.22.26h7.53a6.34 6.34 0 0 0 2.22-.28c.2-.17-.48-.28-1.48-.28l-9 .06Zm17.28 0c-1 0-1.68.11-1.48.26a6.58 6.58 0 0 0 2.22.26h7.53a6.34 6.34 0 0 0 2.22-.28c.2-.17-.48-.28-1.48-.28l-9 .06Zm17 0c-1 0-1.68.11-1.48.26a6.58 6.58 0 0 0 2.22.26h7.53a6.34 6.34 0 0 0 2.22-.28c.2-.17-.48-.28-1.48-.28l-9 .06Zm42.46 0c-1 0-1.68.11-1.48.26a6.58 6.58 0 0 0 2.22.26h7.53a6.34 6.34 0 0 0 2.22-.28c.2-.17-.48-.28-1.48-.28l-9 .06Zm-175.93 0c-2.47 0-4.09.11-3.61.26a37.69 37.69 0 0 0 5.37.26h18.33a36.12 36.12 0 0 0 5.37-.28c.48-.14-1.17-.28-3.64-.28l-21.82.06Zm33.76 0c-2.47 0-4.09.11-3.61.26a37.69 37.69 0 0 0 5.37.26H161a36.12 36.12 0 0 0 5.37-.28c.48-.14-1.17-.28-3.64-.28l-21.82.06Z"/></svg>