<svg xmlns="http://www.w3.org/2000/svg" width="353.049" height="353.049" viewBox="0 0 93.411 93.411"><defs><linearGradient x1="0" y1="0" x2="1" y2="0" gradientUnits="userSpaceOnUse" gradientTransform="rotate(108.889 2.559 84.174) scale(78.69452)" spreadMethod="pad" id="c"><stop offset="0" stop-color="#728bb9"/><stop offset="1" stop-color="#192645"/></linearGradient><linearGradient x1="0" y1="0" x2="1" y2="0" gradientUnits="userSpaceOnUse" gradientTransform="scale(-90.57378) rotate(48.794 1.548 -2.65)" spreadMethod="pad" id="b"><stop offset="0" stop-color="#728bb9"/><stop offset="1" stop-color="#192645"/></linearGradient><linearGradient x1="0" y1="0" x2="1" y2="0" gradientUnits="userSpaceOnUse" gradientTransform="rotate(11.737 -824.885 284.525) scale(91.76965)" spreadMethod="pad" id="a"><stop offset="0" stop-color="#728bb9"/><stop offset="1" stop-color="#192645"/></linearGradient></defs><path d="M85.89 203.188h-.016c-15.495-.003-29.991-4.247-42.408-11.624a83.376 83.376 0 01-3.658-2.304 84.128 84.128 0 01-.161-5.125c0-4.88.426-9.66 1.232-14.31 11.922 10.768 27.658 17.312 44.993 17.315h.002c10.477 0 20.375-2.391 29.198-6.66a68.1 68.1 0 01.096 3.661c0 4.903-.53 9.677-1.528 14.28a83.364 83.364 0 0013.522-6.193c-12.168 6.97-26.262 10.96-41.272 10.96" fill="url(#a)" transform="translate(-38.717 -109.777)"/><path d="M113.625 198.368a67.333 67.333 0 001.529-14.279v-.044c0-23.21-11.813-43.663-29.733-55.708a66.982 66.982 0 0116.11-7.922c18.137 15.256 29.66 38.114 29.668 63.677 0 1.928-.072 3.843-.2 5.74a82.324 82.324 0 01-3.226 1.982l-.183.106a83.288 83.288 0 01-13.965 6.448m-44.312-77.96a.007.007 0 00-.004-.001l.219-.183a83.297 83.297 0 0115.882-10.447l.002.002a83.256 83.256 0 00-16.099 10.63" fill="url(#b)" transform="translate(-38.717 -109.777)"/><path d="M55.818 180.05a67.248 67.248 0 01-11.106-7.013 67.994 67.994 0 01-3.833-3.212c4.563-26.302 21.466-48.366 44.537-60.005a83.304 83.304 0 0116.12 10.637 67.125 67.125 0 00-26.176 16.197c-11.268 11.276-18.528 26.465-19.542 43.396" fill="url(#c)" transform="translate(-38.717 -109.777)"/></svg>