<svg xmlns="http://www.w3.org/2000/svg" version="1.1" id="Layer_1" x="0" y="0" width="75.065" height="75.065" xml:space="preserve"><style type="text/css" id="style1583">.st0{fill:#fc3859}.st1{fill:#fff}</style><g id="g2186" transform="translate(-12.5 7.983)"><path style="fill:#fc3859" id="path1586" d="m87.5 48.4-7.6-45c-.3-2-2-3.4-4-3.4h-7.4c-1.7 0-3.2 1.1-3.8 2.6l-.4 1.2h2.6c1.5 0 2.8 1.1 3 2.5l7.6 45c.1.6 0 1.1-.2 1.6.3.1.6.1.8.1h5.4c.2 0 .5 0 .7-.1 2.2-.2 3.7-2.3 3.3-4.5z" class="st0"/><path style="fill:#fc3859" id="path1588" d="M32.5 3.8c1.3 0 2.4.8 2.9 2l5.8 15.5c.5 1.3 1.4 2.3 2.6 2.8 1.2.6 2.6.6 3.9.1 1.4-.5 2.5-1.6 3-3l.9-2.5c-.1-.2-.3-.4-.3-.7L45.4 2.6C44.8 1 43.3 0 41.6 0h-7.4c-2 0-3.7 1.4-4 3.4l-.1.5h2.4z" class="st0"/><path d="m22.4 54.3 7.3-45c.3-1.9 1.9-3.3 3.8-3.4h7.1c1.6 0 3.1 1.1 3.6 2.6L49.8 24c.7 2 2.8 3.1 4.8 2.4 1.2-.4 2.1-1.3 2.4-2.4l5.5-15.5c.5-1.6 2-2.6 3.6-2.6h7.1c1.9 0 3.6 1.5 3.8 3.4l7.3 45c.4 2.2-1 4.3-3.2 4.7-.2 0-.4.1-.6.1h-5.2c-2 0-3.6-1.5-3.8-3.5L69.9 43c-.2-2.1-2.1-3.6-4.2-3.4-1.5.1-2.7 1.1-3.2 2.5l-5.7 14.4c-.6 1.5-2 2.5-3.6 2.5s-3.1-1.1-3.6-2.6l-5.1-13.8c-.7-2-2.9-3.1-4.9-2.4-1.4.5-2.4 1.8-2.6 3.2l-1.7 12c-.3 2.1-1.9 3.6-3.9 3.6h-5.2c-2.2-.1-4-1.9-3.9-4.1 0-.2.1-.4.1-.6z" id="Path_60973"/><path style="fill:#fff" id="path1591" d="M22.5 49.1c0-.2 0-.5.1-.7l7.6-44.6h-5c-1.5 0-2.8 1.1-3 2.5l-7.6 45v.5c0 1.7 1.4 3.1 3.1 3.1h5.4c1.3 0 2.4-.8 2.8-1.9-2-.4-3.4-2-3.4-3.9z" class="st1"/><path style="fill:#fff" id="path1593" d="M40.4 34.5c-1.4.5-2.4 1.7-2.6 3.1l-.3 1.9L42.8 53c.5 1.2 1.6 1.9 2.9 1.9 1.2 0 2.4-.7 2.8-1.9l1.8-4.4-4.6-11.9c-.9-2-3.2-3.1-5.3-2.2z" class="st1"/><path style="fill:#fff" id="path1595" d="M56.5 20.6c1.1-.4 2-1.3 2.4-2.4l5.4-14.3h-4.9c-1.3 0-2.4.8-2.9 2L51.6 19c1 1.5 3.1 2.2 4.9 1.6z" class="st1"/><path style="fill:#fff" id="path1597" d="m74.1 49.7-1.9-12.6c-.3-2.2-2.4-3.7-4.6-3.4-1.4.2-2.6 1.2-3.2 2.5l-.9 2.1c.2.5.4 1 .5 1.5l2 12.6c.2 1.5 1.5 2.6 3 2.6h5.9c1.1-.2 1.9-.9 2.3-1.9-1.6-.4-2.8-1.7-3.1-3.4z" class="st1"/><path style="fill:#fc3859" id="path1599" d="m77.4 51.4-7.6-45c-.2-1.5-1.5-2.5-3-2.5h-2.6l-5.4 14.3c-.4 1.1-1.3 2-2.4 2.4-1.9.7-3.9-.1-4.9-1.7l-.9 2.5c-.5 1.4-1.6 2.5-3 3-1.3.5-2.6.4-3.9-.1-1.2-.6-2.2-1.6-2.6-2.8L35.4 5.8c-.4-1.2-1.6-2-2.9-2h-2.4l-7.6 44.6c0 .2-.1.5-.1.7 0 1.9 1.4 3.6 3.2 4 .1-.2.2-.4.2-.7l1.8-12c.3-1.8 1.5-3.3 3.2-4 .6-.2 1.2-.3 1.8-.3 2 0 3.9 1.2 4.7 3.2l.1.3.3-1.9c.2-1.4 1.2-2.7 2.5-3.2 2.1-.8 4.4.2 5.3 2.3l4.6 11.9 4.1-10.1c.7-1.6 2.2-2.8 3.9-3.1 2.2-.3 4.3.8 5.2 2.7l.9-2.1c.5-1.3 1.7-2.3 3.2-2.5 2.2-.3 4.3 1.2 4.6 3.4l1.9 12.6c.3 1.7 1.5 3 3.2 3.4.4-.5.4-1 .3-1.6z" class="st0"/><path id="path1601" d="M79.4 51.1 71.8 6c-.4-2.4-2.5-4.2-5-4.2h-7.4c-2.1 0-4 1.3-4.7 3.3l-5.8 15.5c-.3.8-1 1.5-1.8 1.8-.8.3-1.6.3-2.3-.1-.7-.3-1.3-.9-1.6-1.7L37.3 5.1c-.7-2-2.6-3.3-4.7-3.3h-7.4c-2.5 0-4.6 1.8-5 4.2l-7.6 45c0 .3-.1.6-.1.8 0 2.8 2.3 5.1 5.1 5.1H23c2.5 0 4.6-1.8 5-4.3l1.8-12c.2-1.1.9-2 1.9-2.4 1.6-.6 3.3.2 4 1.7l5.4 13.8c.8 2 2.6 3.2 4.7 3.2s3.9-1.2 4.7-3.1l5.9-14.4c.4-1 1.3-1.7 2.4-1.9 1.7-.2 3.2.9 3.5 2.6L64 52.7c.4 2.5 2.5 4.3 5 4.3h5.4c.3 0 .6 0 .8-.1 2.8-.5 4.7-3.1 4.2-5.8zm-5 3.9H69c-1.5 0-2.8-1.1-3-2.6l-1.9-12.6c-.4-2.8-3-4.7-5.8-4.3-1.8.3-3.3 1.4-3.9 3.1L48.5 53c-.5 1.2-1.6 2-2.9 2-1.3 0-2.4-.8-2.9-1.9l-5.4-13.8c-.8-2-2.7-3.2-4.7-3.2-.6 0-1.2.1-1.8.3-1.7.7-2.9 2.2-3.2 4l-1.8 12c-.2 1.5-1.5 2.6-3 2.6h-5.4c-1.7 0-3.1-1.4-3.1-3.1v-.5l7.6-45c.3-1.5 1.5-2.5 3-2.5h7.4c1.3 0 2.4.8 2.9 2L41 21.4c.5 1.3 1.4 2.3 2.6 2.8 1.2.6 2.6.6 3.9.1 1.4-.5 2.5-1.6 3-3l5.8-15.5c.4-1.2 1.6-2 2.9-2h7.4c1.5 0 2.8 1.1 3 2.5l7.6 45c.3 1.7-.8 3.2-2.5 3.5.1.1-.1.2-.3.2z"/></g></svg>