<svg xmlns="http://www.w3.org/2000/svg" viewBox="0 0 90 90"><path fill="#00C1F6" d="M54.12 11c.83 3.2.79 5.92.59 8.42l-.09.99-.13 1.45c-.2 2.22-.32 4.33.24 6.56.68 2.7 2.44 4.55 3.91 5.88l1.2 1.07.33.3c.25.25.45.47.57.67.38.6.46 1.6.46 2.79v.6l-.03 1.6c-.05 4.39-.85 10.05-2.38 13.11l-.5 1-.22.46-.26.48-.14.26-.29.52a23.24 23.24 0 01-6.33 7.16l-.42.28c-.22.15-.46.3-.72.45l-.53.31-.58.33-.3.16-.65.34-.69.36-.73.36-.78.38-.82.4-.87.4-.91.4c1.53.12 2.82.16 3.86.13l.65-.02.51-.03 1.19-.07 1.42-.11 1.22-.1-6.99 3.78a23.86 23.86 0 004.82.22l.53-.05 1.21-.18.7-.13.36-.07.77-.15.82-.18-.3.13-.56.25-.26.11-.47.22-.42.21c-.32.17-.58.32-.79.45l-.23.16c-.34.25-.42.4-.25.44l1.06.01h1.47l.9-.02.85-.03 1.5-.08c.71-.06 1.51-.16 2.42-.32l.8-.14.86-.17.9-.2.95-.22c.64 2.92 1.38 5.03 2.23 6.33.35.53.87 1.14 1.59 1.85l.45.44.76.7.56.49.61.52.66.53.7.57.73.58A20.32 20.32 0 0168.72 80c-.4-1.23-.7-2.97-.94-5.21l3.41.85c-1.03 4.96 1.66 9.93 3.52 11.5-3.93 2.72-18.84 4.21-21.68 1.2l-.1-1.37-.1-1.25-.07-.77-.08-.74-.08-.68-.08-.64-.09-.59-.04-.28-.1-.52-.09-.48-.05-.22-.1-.4-.15-.53a13.6 13.6 0 00-2.64-4.23 11.74 11.74 0 00-3.3-2.52A21.5 21.5 0 0041 71.87l-2.2-.34-1.2-.19-1.33-.23-1.08-.2-.66-.13-.44-.1-.14-.04-.34-.1-.64-.22-.3-.1-.56-.2-.74-.3-.43-.2-.2-.08-.37-.19-.32-.17-.29-.17-.25-.16a6.5 6.5 0 01-.11-.08l-.2-.15-.18-.14-.15-.13-.12-.12-.15-.17-.18-.22c-.42-.53-.4-1.23-.27-2.06l.08-.47.2-1.02c.11-.62.2-1.3.2-2.03 0-1.47-.97-3-1.88-4.18l-.32-.4-.8-.98-.2-.24-.13-.19-.08-.15-.1-.22c-.22-.46-.45-1.2-.25-1.7.19-.47.58-.86.94-1.17l.26-.22.32-.26c.12-.1.19-.17.19-.22 0-.11-.11-.2-.27-.29l-.31-.19c-.34-.2-.7-.51-.7-1.12 0-.53.18-.86.4-1.18l.33-.43c.2-.25.39-.54.55-.93.25-.61.36-1.32.4-1.92l.03-.34v-1.05c0-.1-.13-.21-.35-.35l-.24-.14-.61-.34-.35-.2c-1.13-.69-2.46-1.77-2.46-3.64 0-1.5 1.22-2.97 2.67-4.35l.52-.49.53-.47 1.3-1.14.48-.43.45-.43c.5-.48.9-.94 1.15-1.36l.15-.27.18-.33.2-.4c.41-.85.87-2.05 1.05-3.46.14-1.03.12-2.13.08-3.26l-.05-1.36a22.91 22.91 0 01.52-6.6l.14-.6.07-.27.14-.5.13-.45.12-.38a26.2 26.2 0 014.37-8.13C39.38 2.73 42.1.56 43.75.02c3.3-.3 8.5 3.72 10.37 10.98zm24.23 66.5L81 78.81v4.55l-1.3.82a7.04 7.04 0 01-1.62-2.72c-.2-.78-.1-2.1.27-3.96z"/></svg>