<svg xmlns="http://www.w3.org/2000/svg" viewBox="0 0 17 17"><path d="M16.74 12.002h-.76a.782.782 0 01-.58-.257L13.26 9.37l-.697.773 2.062 2.288c.345.382.838.601 1.355.601h.76c.144 0 .26-.115.26-.257v-.516a.259.259 0 00-.26-.258m-13-2.631L1.6 11.745a.783.783 0 01-.58.257H.26a.259.259 0 00-.26.258v.516c0 .142.116.257.26.257h.76c.517 0 1.01-.219 1.355-.601l2.062-2.288-.696-.773zm4.76 2.7c-.443 0-.866-.188-1.161-.516L1.6 5.188a.783.783 0 00-.581-.257H.26A.259.259 0 010 4.673v-.515C0 4.015.116 3.9.26 3.9h.76c.517 0 1.01.22 1.355.601l5.727 6.354a.54.54 0 00.374.183.516.516 0 00.411-.17L14.625 4.5a1.826 1.826 0 011.355-.6h.76c.144 0 .26.115.26.258v.515a.259.259 0 01-.26.258h-.76a.782.782 0 00-.58.257l-5.74 6.366a1.565 1.565 0 01-1.161.516z" fill-rule="evenodd"/></svg>