<svg xmlns="http://www.w3.org/2000/svg" viewBox="0 0 90 90"><path fill="#005CC0" d="M20 64a2 2 0 012 2v16a2 2 0 01-2 2H4a2 2 0 01-2-2V66c0-1.1.9-2 2-2h16zm33 0a2 2 0 012 2v16a2 2 0 01-2 2H37a2 2 0 01-2-2V66c0-1.1.9-2 2-2h16zm33 0a2 2 0 012 2v16a2 2 0 01-2 2H70a2 2 0 01-2-2V66c0-1.1.9-2 2-2h16zM53 35a2 2 0 012 2v16a2 2 0 01-2 2H37a2 2 0 01-2-2V37c0-1.1.9-2 2-2h16zm33 0a2 2 0 012 2v16a2 2 0 01-2 2H70a2 2 0 01-2-2V37c0-1.1.9-2 2-2h16zm0-29a2 2 0 012 2v16a2 2 0 01-2 2H70a2 2 0 01-2-2V8c0-1.1.9-2 2-2h16z"/></svg>