<svg xmlns="http://www.w3.org/2000/svg" version="1.0" width="260pt" height="260pt" viewBox="0 0 260 260"><path d="M.1 84.7c0 46.7.3 84.1.6 83.3.4-.8 13.1-39 28.4-84.8L56.8 0H0z" fill="#74ba16"/><path d="M62.1 2.3c-.5 1.2-14.7 43.9-31.5 94.8L0 189.7V260h260V0H63z" fill="#0067b6"/><path d="M128.7 103.5c3.4 18.7 6.2 34.3 6.3 34.7.1 1.8 4.1.6 5.3-1.5.8-1.2 7.2-16.9 14.3-34.9L167.5 69h49.1l-5.9 58.7c-3.2 32.4-6 59.4-6.2 60-.6 1.9-33.5 1.9-33.5 0-.1-.6 1.4-13.2 3.2-28 2.5-20.7 2.9-27 2-27.9-.9-.9-1.5-.9-2.5.2-.8.8-6.7 13.4-13.2 28-6.4 14.6-12.2 27.1-12.8 27.8-.7.9-6.3 1.2-23.6 1l-22.6-.3-.8-28c-.4-15.5-1.2-28.4-1.7-28.9-2-2-4 2.4-11.5 26.4-4.2 13.5-8.1 26-8.6 27.7l-1.1 3.3H60.4c-9.6 0-17.4-.3-17.4-.7 0-.4 8.8-27.4 19.5-60L82.1 69l20.2.2 20.2.3z" fill="#fff"/></svg>