<svg xmlns="http://www.w3.org/2000/svg" xmlns:xlink="http://www.w3.org/1999/xlink" width="283.47" height="224.93"><defs><linearGradient id="a"><stop offset="0" stop-color="#ed1a3a" stop-opacity="0"/><stop offset="1" stop-color="#ed1a3a"/></linearGradient><linearGradient xlink:href="#a" id="b" x1="28.91" x2="157.34" y1=".56" y2=".56" gradientTransform="translate(-28.68 1.55)" gradientUnits="userSpaceOnUse"/></defs><path fill="#183181" d="M165.25 0a2240.46 2240.46 0 0 1-25.39 61.53l-11.93 27.34-12.07-27.34A1946.95 1946.95 0 0 1 89.86 0H23.1v5.35c7.4 0 13.48 6.18 13.48 13.8a1715.41 1715.41 0 0 1-3.7 42.38l-4.43 43.05a1825.5 1825.5 0 0 1-7.33 61.52h21.33a1715.8 1715.8 0 0 1 5.05-61.52l6.58-64.9a2072.04 2072.04 0 0 1 27.34 59.47l2.43 5.43a2005.1 2005.1 0 0 1 26.03 61.52h6.46c8.06-20.39 16.6-40.92 25.45-61.52l3.85-8.85c8.6-19.9 17.56-39.74 26.8-59.45l6.96 68.3c2.07 20.6 3.8 41.13 5.04 61.52h49.08a1650.3 1650.3 0 0 1-7.33-61.52l-4.38-43.05A1530.3 1530.3 0 0 1 216.79 0Z"/><path fill="url(#b)" d="M-28.68 1.55a854.8 854.8 0 0 0 187.14 20.64 887.72 887.72 0 0 0 260.81-38.92c.31-.1.49-.38.43-.73-.07-.32-.42-.57-.74-.5A1788.97 1788.97 0 0 1 158.9 5.55 1800.77 1800.77 0 0 1-28.28-.9a1.26 1.26 0 0 0-1.33.94c-.16.67.26 1.36.93 1.51" transform="matrix(.66456 0 0 -.66456 1.6 212.68)"/></svg>