<svg xmlns="http://www.w3.org/2000/svg" xmlns:xlink="http://www.w3.org/1999/xlink" version="1.1" id="Layer_1" x="0" y="0" xml:space="preserve" width="760.895" height="760.895"><style type="text/css" id="style18529">.st2,.st7{fill-rule:evenodd;clip-rule:evenodd;fill:#407db8}.st7{fill:#88bce8}</style><g id="g18578" transform="translate(178.447 -.105)"><g id="g18549"><path class="st2" d="M286.2 742.5l-.1-21.6h37l.1 21.6c0 10.2-8.3 18.5-18.5 18.5s-18.5-8.3-18.5-18.5z" id="path18543" clip-rule="evenodd" fill="#407db8" fill-rule="evenodd"/><path class="st2" d="M183.5 742.5l-.1-21.6h37l.1 21.6c0 10.2-8.3 18.5-18.5 18.5s-18.5-8.3-18.5-18.5z" id="path18545" clip-rule="evenodd" fill="#407db8" fill-rule="evenodd"/><path class="st2" d="M80.8 742.5l-.1-21.6h37l.1 21.6c0 10.2-8.3 18.5-18.5 18.5s-18.5-8.3-18.5-18.5z" id="path18547" clip-rule="evenodd" fill="#407db8" fill-rule="evenodd"/></g><path class="st2" d="M358.7 697.7L341.8 726h-281l-15.6-28.3z" id="path18551" clip-rule="evenodd" fill="#407db8" fill-rule="evenodd"/><linearGradient id="SVGID_1_" gradientUnits="userSpaceOnUse" x1="14.801" y1="262.634" x2="389.169" y2="262.634"><stop offset="0" id="stop18553" stop-color="#f9ac1a"/><stop offset="1" id="stop18555" stop-color="#f9c51a"/></linearGradient><path d="M14.8 525.3V198.5h.1c.6-89.8 72.9-163.6 166-173.4 4.9-1.2 8.4-4.4 9.8-6.9 2.7-5.2 5.7-11 7.6-15.7 1.2-2.8 6.3-3.6 7.7.1 1.8 4.8 4.9 10.4 7.6 15.6 1.3 2.5 4.3 5.7 9.7 6.9 93 9.9 165.3 83.6 165.9 173.4h.1v326.8z" id="path18558" clip-rule="evenodd" fill="url(#SVGID_1_)" fill-rule="evenodd"/><g id="g18570"><defs id="defs18561"><path id="SVGID_5_" d="M14.8 525.3V198.5h.1c.6-89.8 72.9-163.6 166-173.4 4.9-1.2 8.4-4.4 9.8-6.9 2.7-5.2 5.7-11 7.6-15.7 1.2-2.8 6.3-3.6 7.7.1 1.8 4.8 4.9 10.4 7.6 15.6 1.3 2.5 4.3 5.7 9.7 6.9 93 9.9 165.3 83.6 165.9 173.4h.1v326.8z"/></defs><clipPath id="SVGID_2_"><use xlink:href="#SVGID_5_" id="use18563" x="0" y="0" width="100%" height="100%" overflow="visible"/></clipPath><g clip-path="url(#SVGID_2_)" id="g18568"><path d="M316.2 406.6c-22.6 0-29.5 8.9-29.5 25.3 0 28 34.6 61.2 34.6 112.6 0 37.4-22.2 68.7-70.5 68.7h-22.5v-45.8h10.1c17.7 0 23.8-10.3 23.8-27.1 0-37.8-20.9-72.4-20.9-100.9 0-29 9.5-42.5 44.2-49.9-34.6-7.5-44.2-30-44.2-58.9 0-28 20.9-51.4 20.9-89.7 0-16.8-8.7-30.2-29.4-30.2h-19.9v-35.1c52.1-26.7 95.4 20.8 95.4 55.9 0 50.9-21.5 90.2-21.5 118.3 0 15.9 7 23 29.5 23h15.4v34h-15.5zm-125-196h-18.1c-20.7 0-29.4 13.4-29.4 30.2 0 38.3 20.9 61.7 20.9 89.7 0 29-11.4 51.5-46 58.9 34.6 7.5 46 21 46 49.9 0 28.5-20.9 63.1-20.9 100.9 0 16.8 6 27.1 23.8 27.1h10.1v45.8H155c-48.3 0-70.5-31.3-70.5-68.7 0-51.4 34.6-84.6 34.6-112.6 0-16.4-5.8-25.3-28.3-25.3H72.3v-34h18.5c22.6 0 28.3-7.1 28.3-23 0-28-21.5-67.3-21.5-118.3 0-34.8 42.1-81.6 93.5-56.6v36z" id="path18566" clip-rule="evenodd" fill="#162331" fill-rule="evenodd"/></g></g><path d="M384.2 546.8c-2 5.8-2.8 12.6-3.1 18.3v117.7c0 10.2-8.3 18.5-18.5 18.5H41.4c-10.2 0-18.5-8.3-18.5-18.5V565.4v-.4c-.3-5.6-1.1-12.3-3.1-18.1C15.2 533.7 0 528.4 0 528.4l1-7.2h402l1 7.2s-15.3 5.2-19.8 18.4z" id="path18572" clip-rule="evenodd" fill="#5592c8" fill-rule="evenodd"/><path class="st7" d="M381 612.6H256c-7.8 0-14.2-6.4-14.2-14.2 0-7.9 6.4-14.2 14.2-14.2h125z" id="path18574" clip-rule="evenodd" fill="#88bce8" fill-rule="evenodd"/><path class="st7" d="M22.9 584.2h125c7.8 0 14.2 6.4 14.2 14.2 0 7.9-6.4 14.2-14.2 14.2h-125z" id="path18576" clip-rule="evenodd" fill="#88bce8" fill-rule="evenodd"/></g></svg>