<svg xmlns="http://www.w3.org/2000/svg" width="345" height="345"><path fill="#141414" d="M0 153.273v18.774l50.646-5.571v-20.32L0 153.273m16.162 19.916v64.333h18.542v-66.228l-18.542 1.895m41.324-27.994v92.327h19.538v-95.074l-19.538 2.747m23.178-3.26v21.24l28.213-3.104v-22.1l-28.213 3.965m0 37.047v21.626l18.52-1.01v-22.21l-18.52 1.594m0 37.214v21.325h28.213v-22.176l-28.213.85m101.175-88.511v109.837h25.613V124.085l-25.613 3.6m30.396-4.273v25.265l37.326-4.104v-26.408l-37.326 5.247m0 44.266v25.733l24.465-1.336v-26.492l-24.465 2.095m0 44.542v25.302h37.326v-26.43l-37.326 1.128m-95.893-75.3v100.602h22.256v-103.73l-22.256 3.129m26.41 77.403v23.197h32.306v-24.172l-32.306.975m190.492-97.401c-8.095-7.648-19.964-10.785-32.946-8.92v28.022c5.257-.292 9.517 1.659 11.415 5.587 2.997 6.193-.095 15.485-7.389 24.094-11.258 13.285-41.195 40.477-41.195 40.477l42.976-1.413c26.259-25.654 35.689-41.226 37.381-60.661.889-10.282-2.843-20.19-10.242-27.186M345 237.522V208.2l-87.168 2.626m0-.001l.009 26.695H345m-49.713-128.89c-25.323 5.394-37.758 24.024-36.323 54.423l27-2.396c-1.23-17.174 4.023-21.248 9.336-23.488l-.013-28.538"/></svg>