<svg xmlns="http://www.w3.org/2000/svg" width="285.271" height="285.271"><path d="M275.842 22.634H9.469a9.425 9.425 0 00-9.426 9.423L0 253.21a9.425 9.425 0 009.425 9.427h266.42a9.425 9.425 0 009.426-9.425V32.059a9.425 9.425 0 00-9.425-9.425z" fill="#ef323d"/><g fill="#fff" transform="translate(-.014 22.634) scale(.47129)"><path d="M163.52 419.07h-44.1a2.025 2.025 0 00-2.025 2.025v10.111a2.025 2.025 0 002.025 2.026h12.102a2.025 2.025 0 012.025 2.025v35.986a2.025 2.025 0 002.026 2.025h11.795a2.025 2.025 0 002.026-2.025v-35.986a2.025 2.025 0 012.025-2.025h12.102a2.025 2.025 0 002.025-2.026v-10.11a2.025 2.025 0 00-2.025-2.026zM309.38 419.07h-16.883a2.025 2.025 0 00-2.025 2.025v50.148a2.025 2.025 0 002.025 2.026h16.806c19.137 0 31.079-10.411 31.079-27.252 0-16.535-11.482-26.946-31.003-26.946zm-.786 40.343h-.743a2.042 2.042 0 01-2.058-2.025v-22.436a2.042 2.042 0 012.058-2.025h.899c10.269 0 15.482 3.98 15.482 13.09 0 9.416-5.213 13.397-15.637 13.397z"/><rect x="379.85" y="419.07" width="16.209" height="54.198" rx="2.025" ry="2.025"/><path d="M248.95 419.07h-11.566a2.025 2.025 0 00-2.025 2.025v26.911c0 9.034-2.45 12.172-8.497 12.172-6.048 0-8.497-3.138-8.497-12.172v-26.91a2.025 2.025 0 00-2.025-2.026h-11.566a2.025 2.025 0 00-2.026 2.025v28.442c0 16.612 7.426 25.186 24.114 25.186 16.23 0 24.114-9.033 24.114-25.262v-28.365a2.025 2.025 0 00-2.025-2.025zM67.6 440.5c-1.674-.718-6.278-2.628-6.91-2.833-4.476-1.454-4.687-3.583-3.943-5.632.744-2.048 3.758-2.959 6.638-1.788 1.546.629 5.383 4.107 5.8 4.515a2.132 2.132 0 001.059.67 1.812 1.812 0 001.457-.32l8.433-6.296a1.822 1.822 0 00.315-2.617c-4.59-5.547-11.244-8.588-19.126-8.588-11.636 0-20.286 7.043-20.286 16.153 0 7.956 3.557 12.661 12.88 16.712 2.41.851 5.515 2.118 6.757 2.484 5.432 1.598 5.64 4.31 4.745 6.775-.895 2.465-4.507 3.523-7.987 2.151-2.429-.957-6.232-4.632-6.497-5a1.818 1.818 0 00-.99-.601l-.027-.006a1.812 1.812 0 00-1.41.287l-8.487 5.922a1.821 1.821 0 00-.398 2.604c4.907 6.347 12.099 9.703 20.475 9.703 12.478 0 21.358-7.73 21.358-18.219 0-6.889-3.752-11.788-13.856-16.076zM463.22 417.61a28.553 28.553 0 1028.553 28.553 28.553 28.553 0 00-28.553-28.553zm0 41.296a12.742 12.742 0 1112.742-12.742 12.757 12.757 0 01-12.742 12.742zM553.62 440.5c-1.674-.718-6.278-2.628-6.91-2.833-4.476-1.454-4.688-3.583-3.944-5.632.744-2.048 3.759-2.959 6.639-1.788 1.546.629 5.382 4.107 5.8 4.515a2.132 2.132 0 001.059.67 1.812 1.812 0 001.457-.32l8.433-6.296a1.822 1.822 0 00.315-2.617c-4.591-5.547-11.244-8.588-19.126-8.588-11.636 0-20.286 7.043-20.286 16.153 0 7.956 3.557 12.661 12.88 16.712 2.41.851 5.515 2.118 6.757 2.484 5.432 1.598 5.64 4.31 4.745 6.775-.895 2.465-4.507 3.523-7.987 2.151-2.429-.957-6.232-4.632-6.497-5a1.818 1.818 0 00-.99-.601l-.027-.006a1.812 1.812 0 00-1.41.287l-8.487 5.922a1.821 1.821 0 00-.399 2.604c4.908 6.347 12.1 9.703 20.475 9.703 12.478 0 21.358-7.73 21.358-18.219 0-6.889-3.75-11.788-13.856-16.076zM314.04 37.97a81.997 81.997 0 1081.997 81.997A81.997 81.997 0 00314.04 37.97zm0 122a39.999 39.999 0 1139.999-39.999 40.044 40.044 0 01-39.999 39.999zM561.32 39.97h-112a4 4 0 00-4 4v31.999a4 4 0 004 4h75.997v69.997a10 10 0 01-10 10h-29.999a40.054 40.054 0 01-39.839-36.413 3.964 3.964 0 00-3.962-3.585h-32.079a3.978 3.978 0 00-4.009 4.183 80 80 0 0079.89 75.814h36a4 4 0 003.999-4v-16a19.999 19.999 0 0120-20l15.999.001a4 4 0 004-4v-112a4 4 0 00-4-4zM200.82 79.97a19.999 19.999 0 01-19.999-20.039l.032-15.96a4 4 0 00-4-4h-132a4 4 0 00-4 4v151.99a4 4 0 004 4h31.999a4 4 0 004-4v-106a10 10 0 0110-10h9.999a10 10 0 0110 10v65.901a4 4 0 004 4h31.999a4 4 0 004-4V89.961a10 10 0 019.999-10h9.955a10 10 0 0110 9.996l.044 106.01a4 4 0 004 4h31.999a4 4 0 004-4v-112a4 4 0 00-4-4zM229.42 219.99h112a4 4 0 014 4v15.978a19.999 19.999 0 0019.973 19.999l16.026.021a4 4 0 014 4v112a4 4 0 01-4 4h-32a4 4 0 01-3.999-4v-106a10 10 0 00-9.993-9.999h-60.01a10 10 0 00-9.994 10v106a4 4 0 01-4 3.999h-31.999a4 4 0 01-4-4v-151.99a4 4 0 014-4zM196.85 259.99l-16.078-.063a19.999 19.999 0 01-19.921-19.999v-15.937a4 4 0 00-4-4h-35.999a79.997 79.997 0 00-79.997 79.997v75.997a4 4 0 004 4h31.999a4 4 0 004-4v-75.997a39.999 39.999 0 0139.999-39.998h30.005a10 10 0 019.993 10v19.998a10 10 0 01-10 10h-43.997a4 4 0 00-4 4v32a4 4 0 004 3.999h44.004a10 10 0 019.993 9.999v26a4 4 0 004 4h32a4 4 0 004-4v-112a4 4 0 00-4-4zM484.22 259.99h77.125a4 4 0 004-4v-32a4 4 0 00-4-4h-77.054c-34.27 0-65.041 22.002-75.087 54.766-16.389 53.455 21.645 102.54 71.969 105.13a3.977 3.977 0 004.172-4.01v-25.884a10 10 0 019.994-10h20.012a10 10 0 019.994 10v26.001a4 4 0 004 4h32a4 4 0 004-4v-72.001a4 4 0 00-4-4h-72a4 4 0 00-4 4v21.128a11.368 11.368 0 01-13.334 11.215 25.856 25.856 0 01-11.425-4.963c-12.942-10.246-19.447-28.285-12.268-46.97a38.382 38.382 0 0135.902-24.41"/></g></svg>