<svg xmlns="http://www.w3.org/2000/svg" width="80" height="86"><path d="M54.907 18.156h-.622V5.08c.544 1.323.622 2.646.622 3.736zm-24.754-5.215c.778.233 1.634.39 2.568.467v-.623a13.208 13.208 0 01-2.413-.467c-1.012-.233-1.946-.467-2.88-.467-.467 0-.934.078-1.323.234v.7c.311-.155.778-.233 1.323-.233.856-.078 1.79.155 2.725.389zm-7.551-.467c.545 0 1.012.078 1.323.233v-.7a3.638 3.638 0 00-1.323-.234c-.934 0-1.869.234-2.88.467-.78.234-1.557.39-2.414.467v.623a14.869 14.869 0 002.57-.467c1.011-.156 1.867-.39 2.724-.39zm0-1.557c.545 0 1.012.155 1.323.233v-.7c-.39-.156-.856-.156-1.323-.234-.934 0-1.869.234-2.88.467a12.04 12.04 0 01-2.414.467v.623a13.632 13.632 0 002.57-.467c1.011-.233 1.867-.467 2.724-.39zm0 3.192c.545 0 1.012.077 1.323.233v-.7c-.39-.156-.856-.156-1.323-.234-.934 0-1.869.233-2.88.467-.78.234-1.557.39-2.414.467v.623c.934-.078 1.713-.312 2.57-.467 1.011-.234 1.867-.467 2.724-.39zm0-4.827c.545 0 1.012.156 1.323.234v-.7a3.638 3.638 0 00-1.323-.234c-.934 0-1.869.233-2.88.467-.78.233-1.557.389-2.414.467v.622a14.869 14.869 0 002.57-.467c1.011-.155 1.867-.389 2.724-.389zm-4.204 47.641c-7.707-12.689-7.55-25.066-7.55-26.623V.33H69.23V30.3c0 1.557.155 13.934-7.551 26.623-6.85 11.521-17.204 16.581-21.641 18.138-4.36-1.557-14.713-6.617-21.641-18.138zm15.569-2.335l-1.557-1.246.856-1.868-2.024.39-.856-1.791-.934 1.79-1.946-.389.856 1.868-1.557 1.246 1.946.467v2.024l1.635-1.246 1.557 1.246v-2.024zm8.33 12.689l1.946-.935-1.947-.856.701-2.024-2.024.779-.856-1.947-.857 1.869-2.024-.779.779 2.024-1.946.857 1.946.934-.779 2.024 2.024-.779.857 1.946.856-1.946 2.024.779zm-4.282-23.198l-1.557 1.323 1.946.467v2.024l1.557-1.245 1.635 1.245.078-2.024 1.946-.467-1.557-1.323.856-1.869-2.024.39-.856-1.79-.856 1.79-2.024-.39zm6.85 12.766l1.168-1.245-1.713-.312-.778-1.556-.779 1.556-1.712.312 1.245 1.245-.311 1.713 1.557-.779 1.557.779zm5.76-6.15l.935-1.556h-1.79l-.857-1.557-.856 1.557h-1.79l.934 1.557-.935 1.556h1.79l.857 1.557.857-1.557h1.79zm13.701-37.52a2.46 2.46 0 00-1.09 1.09c-.233.388-.31.778-.31 1.167v.311l.7-.467c.155-.155.311-.389.467-.545.156-.311.233-.778.233-1.167v-.39zm-6.071 8.952c.467.233 1.012.31 1.556.233.545-.078.935-.311 1.324-.7-.467-.234-.934-.312-1.48-.234-.544.078-1.011.39-1.4.7zm0-.857c.233-.389.389-.856.389-1.323v-.156a3.447 3.447 0 00-1.168.934c-.233.39-.39.857-.39 1.324v.155c.546-.155.935-.467 1.169-.934zm.622-.155s0 .078 0 0c.156 0 .234 0 .312-.078.311-.234.467-.545.622-.934.078-.234.156-.545.156-.779 0-.233-.078-.467-.156-.7-.31.233-.544.467-.7.778 0 .7-.078 1.246-.234 1.713zm1.48-1.246c0 .078 0 .078 0 0 .155 0 .233-.078.31-.155.234-.312.312-.623.39-1.012v-.234c0-.39-.156-.856-.39-1.246-.233.312-.466.623-.544.935.233.7.311 1.167.233 1.712zm1.09-1.557c0 .078 0 .078 0 0 .155 0 .233-.078.31-.233.079-.234.156-.467.156-.779v-.311a2.454 2.454 0 00-.7-1.324c-.156.312-.234.701-.234 1.012.234.623.39 1.09.467 1.635zm.778-1.79c0 .078 0 .078 0 0 .155-.078.155-.156.233-.312v-.155c0-.312-.078-.623-.155-.934-.156-.467-.545-.779-1.012-1.09-.078.155-.078.39-.078.545 0 .155 0 .311.078.467.467.545.778 1.012.934 1.479zm.311-1.868c.078-.078.156-.234.156-.312-.078-.39-.156-.7-.39-1.012-.31-.39-.7-.7-1.245-.856 0 .39.078.778.233 1.09.545.233.935.622 1.246 1.09zm-.078-2.258c-.155-.39-.311-.7-.623-.934-.389-.312-.778-.467-1.323-.545.078.39.234.7.467.934.545.156 1.012.467 1.401.779h.078v-.234zm-.623-1.479c0-.156-.078-.234-.078-.39-.233-.31-.467-.544-.778-.7-.467-.233-.934-.311-1.479-.233.234.311.39.622.7.856.623 0 1.168.155 1.635.467zm-.311 9.964c.467-.156.856-.545 1.168-1.012-.545-.078-1.09-.078-1.557.078-.39.156-.779.545-1.09.934.233 0 .545.078.778.156.234 0 .467 0 .701-.156zm1.323-1.79c.39-.312.701-.779.935-1.324-.545 0-1.09.156-1.48.467-.389.312-.7.701-.856 1.168.234-.078.545-.078.779-.078s.467-.078.622-.233zm1.402-3.581c-.467.155-.935.389-1.324.778-.311.39-.467.857-.545 1.401.234-.077.467-.155.779-.233.233-.156.389-.311.545-.467.389-.39.545-.934.545-1.48zm-.467-4.67c-.39.388-.701.778-.857 1.322-.078.156-.078.39-.078.623 0 .312.078.623.156.857.156-.234.39-.39.545-.545.155-.234.233-.467.311-.701.078-.156.078-.39.078-.545.078-.311 0-.623-.155-1.012zm-1.557-.624c0 .467.155.934.467 1.402.078-.234.233-.468.389-.701.078-.234.156-.467.156-.7 0-.546-.156-1.013-.468-1.48-.31.467-.544.934-.544 1.48zM60.979 7.96c0 .155 0 .39.078.545.078.467.39.856.778 1.245.078-.233.156-.545.234-.778v-.156c0-.155 0-.311-.078-.545-.156-.467-.39-.934-.856-1.323-.078.311-.156.623-.156 1.012zm-.233.934c-.312-.234-.623-.39-.935-.545-.467-.156-1.012-.078-1.479.078.234.311.545.545.857.7.545-.077 1.167-.077 1.634.078h.078c-.078-.077-.078-.155-.155-.31zm-1.48-2.958c0 .39.078.778.234 1.168.234.467.623.778 1.09 1.012 0-.312 0-.545.078-.857-.078-.233-.078-.467-.234-.623a2.46 2.46 0 00-1.09-1.09c-.077.156-.077.234-.077.39zm-2.023.155c.155.545.467 1.012.856 1.246.39.234.856.39 1.323.467-.155-.156-.233-.311-.389-.545-.078-.155-.156-.39-.234-.545l-.155-.155c-.312-.312-.779-.467-1.401-.467zM51.17 18.312c0 .39.311.856 1.012.856h1.323a6.227 6.227 0 00-.311 1.869c0 .934.155 1.712.467 2.257-1.012-.155-1.713-.389-2.414-.778h-.077l-.156.389h.078c.623.311 1.168.467 1.868.7 0 0 .545.078.934.156a.594.594 0 00-.155.39c0 .31.233.544.545.544s.545-.233.545-.545a.595.595 0 00-.156-.389c.39-.078.856-.155.856-.155.7-.156 1.324-.312 1.946-.701h.078l-.155-.467h-.078c-.7.39-1.402.623-2.413.778a5.751 5.751 0 00.467-2.257c0-.7-.078-1.401-.312-1.868h1.324c.7 0 1.012-.39 1.012-.857a.614.614 0 00-.623-.622.614.614 0 00-.623.622c0 .078 0 .156.078.234.078.078.078.233-.156.233h-.778V8.815c0-1.323-.078-2.958-.856-4.515l-.234-.467-.233.467c-.779 1.557-.857 3.192-.857 4.515v9.886h-.778c-.234 0-.156-.155-.156-.233s.078-.156.078-.234c0-.311-.233-.622-.545-.622-.233.077-.545.389-.545.7zm-1.635 1.168c-.156-.312-.39-.545-.7-.779-.079.234-.156.467-.156.701 0 .233.078.545.155.778.078.39.312.623.545.935.078 0 .234.077.312.077v-.077a3.67 3.67 0 01-.156-1.635zm-.467-9.886a2.486 2.486 0 00-1.48.233c-.31.156-.622.39-.778.7 0 .156 0 .234-.078.39h.078c.467-.312 1.012-.467 1.635-.467.234-.234.467-.545.623-.856zm-.545 8.64c-.078-.311-.311-.622-.545-.934-.234.39-.39.779-.39 1.246v.233c0 .39.156.7.39 1.012.078.078.234.156.311.234v-.078c-.078-.623 0-1.09.234-1.713zm-1.79-.856c0 .234.077.467.155.778l.234.234s0-.078.078-.078c.077-.545.233-1.09.544-1.557 0-.389-.155-.7-.31-1.012-.39.39-.624.856-.702 1.324v.31zm.622-2.18c.078-.155.078-.311.078-.467 0-.155-.078-.389-.078-.545-.467.312-.778.623-1.012 1.09-.155.312-.155.623-.155.934v.156c.078.078.155.233.155.311 0 0 .078 0 .078-.078a2.8 2.8 0 01.934-1.4zm-1.167-2.802v.311h.077c.39-.389.857-.622 1.402-.778a2.63 2.63 0 00.467-.934c-.545.078-1.012.233-1.401.545-.234.155-.468.545-.545.856zm-.234 1.946c.078.078.078.234.078.39h.078c.311-.468.7-.857 1.245-1.09.156-.312.234-.701.234-1.09-.545.155-.934.467-1.246.856a1.29 1.29 0 00-.389.934zm-.311 1.946c-.312-.39-.779-.623-1.324-.778.078.545.234 1.012.545 1.4.156.157.39.312.545.468l.7.234c0-.468-.155-.935-.466-1.324zm-.779 1.48c.156.544.467 1.011.857 1.323.155.155.389.233.622.311.312 0 .545 0 .779.078-.234-.467-.467-.934-.857-1.168-.311-.389-.856-.545-1.4-.545zm1.09 2.179c.311.467.623.778 1.168 1.012.233.078.467.155.7.155.234-.077.545-.077.779-.155-.312-.39-.7-.779-1.09-.934-.467-.234-1.012-.234-1.557-.078zm1.557 1.79c.39.39.856.623 1.401.7.467.079 1.012-.077 1.48-.233a2.415 2.415 0 00-1.402-.7c-.467-.156-1.012 0-1.48.233zm4.048.467v-.155c0-.467-.156-.934-.39-1.324-.31-.389-.7-.7-1.167-.934v.156c0 .467.156.934.39 1.323.233.467.622.779 1.167.934zM49.536 7.258a2.37 2.37 0 01-.39.545c.468 0 .935-.156 1.324-.467.39-.311.7-.778.934-1.246-.545 0-1.09.156-1.479.468l-.155.155c-.078.156-.156.39-.234.545zm-1.557 0c.078.312.078.545.078.856.467-.233.856-.622 1.012-1.012.233-.389.311-.778.311-1.167 0-.156 0-.234-.078-.39a2.46 2.46 0 00-1.09 1.09c-.077.234-.155.39-.233.623zm-.234 2.024s.078 0 0 0a4.305 4.305 0 011.713-.078c.311-.155.623-.389.856-.7-.467-.156-1.012-.234-1.479-.078-.389.078-.7.233-.934.545-.078.078-.078.155-.155.311zM46.5 8.815v.156c.156.233.233.545.233.778.39-.39.623-.778.779-1.245.078-.156.078-.39.078-.545 0-.312-.078-.7-.234-1.012-.389.389-.7.778-.856 1.323.078.156 0 .311 0 .545zm-1.09 1.401c0 .234.078.467.156.7.155.234.311.468.389.701.233-.389.467-.856.467-1.4 0-.468-.234-1.013-.467-1.48-.311.467-.545.934-.545 1.48zm-.778 1.635c0 .234 0 .39.078.545.078.233.155.467.311.7.234.156.39.312.545.545.078-.31.155-.622.155-.856 0-.233 0-.39-.077-.623-.156-.467-.467-.934-.857-1.323-.078.311-.155.7-.155 1.012zm-.39 1.635c0 .389.078.856.312 1.167.078.234.233.39.467.545.233.078.467.234.7.39v-.312c0-.389-.077-.778-.31-1.167a2.289 2.289 0 00-1.169-1.09zm-18.916 6.15c.545-.39 1.246-.545 2.102-.545.934 0 1.868.155 2.88.467 1.012.233 2.18.545 3.27.467V6.558v-.312c-1.168.078-2.336-.233-3.425-.467-.935-.233-1.869-.467-2.647-.39-1.168 0-1.79.39-2.18.701v.468zm-8.796.31c1.09.079 2.18-.155 3.27-.466 1.011-.234 1.945-.467 2.88-.467.856 0 1.556.233 2.101.545V6.09c-.389-.389-1.012-.7-2.18-.7-.856 0-1.712.155-2.646.39-1.09.31-2.18.544-3.425.466v.312zm-2.102 2.18h9.42c.233.39.622.701 1.167.701s1.012-.311 1.167-.7h9.42V6.557h-1.168l.078.312v14.168h-8.719c-.155.233-.311.311-.778.311-.39 0-.545-.078-.7-.311h-8.797V6.869l.078-.311h-1.168zm3.425 31.216L40.04 33.414 62.302 53.42c1.48-2.802 2.491-5.527 3.348-8.096L40.039 22.282 14.506 45.246a45.855 45.855 0 003.347 8.096zm4.749-37.677c.545 0 1.012.078 1.323.234v-.7c-.39-.156-.856-.156-1.323-.234-.935 0-1.869.233-2.88.467-.78.233-1.558.39-2.414.467v.623c.856-.078 1.713-.312 2.569-.467 1.012-.156 1.868-.39 2.725-.39zm0 1.635c.545 0 1.012.078 1.323.234v-.7a3.638 3.638 0 00-1.323-.234c-.935 0-1.869.233-2.88.467-.78.233-1.558.389-2.414.467v.622c.856-.077 1.713-.31 2.569-.467 1.012-.233 1.868-.467 2.725-.389zm0-9.575c.545 0 1.012.156 1.323.234v-.7c-.39-.156-.856-.156-1.323-.234-.935 0-1.869.233-2.88.467-.78.233-1.558.389-2.414.467v.623a14.869 14.869 0 002.569-.468c1.012-.233 1.868-.389 2.725-.389zm7.55 3.659c.779.233 1.635.39 2.57.467v-.623a13.208 13.208 0 01-2.414-.467c-1.012-.233-1.946-.467-2.88-.467-.467 0-.934.078-1.323.234v.7c.311-.155.778-.233 1.323-.233.856-.156 1.79.078 2.725.389zm0-3.192c.779.234 1.635.39 2.57.467v-.622a13.208 13.208 0 01-2.414-.467c-1.012-.234-1.946-.468-2.88-.468-.467 0-.934.078-1.323.234v.7c.311-.155.778-.233 1.323-.233.856-.078 1.79.078 2.725.39zm0 6.306c.779.155 1.713.389 2.57.467v-.623a12.046 12.046 0 01-2.414-.467c-1.012-.234-1.946-.467-2.802-.467-.467 0-.934.078-1.324.156v.7c.312-.155.779-.233 1.324-.233.778 0 1.712.233 2.647.467zm0-4.749c.779.234 1.635.39 2.57.467v-.622a13.208 13.208 0 01-2.414-.468c-1.012-.233-1.946-.467-2.88-.467-.467 0-.934.078-1.323.234v.7c.311-.155.778-.233 1.323-.233.856-.078 1.79.156 2.725.39zm0 6.383c.779.234 1.635.39 2.57.468v-.623c-.779-.078-1.635-.312-2.414-.467-1.012-.234-1.946-.467-2.88-.467-.467 0-.934.078-1.323.233v.7c.311-.155.778-.233 1.323-.233.856-.078 1.79.156 2.725.39zm0 1.557c.779.234 1.635.39 2.57.467v-.622a13.21 13.21 0 01-2.414-.467c-1.012-.234-1.946-.467-2.88-.467-.467 0-.934.077-1.323.233v.7c.311-.155.778-.233 1.323-.233.856-.078 1.79.156 2.725.39zm49.666 33.084l-.156.39c-1.48 4.904-3.97 9.808-5.76 13l-.39.622-2.569-2.335c-.078.156-.233.39-.311.545-6.539 10.431-15.725 17.982-26.7 22.03l-3.893 1.401-3.892-1.4c-10.899-3.97-20.162-11.6-26.623-22.03-.078-.157-.156-.39-.312-.546l-2.646 2.335-.39-.7c-1.79-3.27-4.203-8.174-5.76-13l-.078-.312 6.305-5.682.779-.7.311.933c.312 1.168.7 2.258 1.09 3.348l1.79-1.635.701-.623.311.934a51.522 51.522 0 005.216 11.054c5.527 8.797 13.234 15.18 22.342 18.527 0 0 .622.234.934.312.311-.078.934-.312.934-.312 9.108-3.347 16.892-9.73 22.341-18.527a51.522 51.522 0 005.216-11.054l.311-.934 2.491 2.258c.39-1.09.779-2.18 1.09-3.348l.312-.934zM5.554 60.115L4.386 52.72l3.425-3.114c-.39-.934-.7-1.946-1.012-2.958-1.012.934-4.515 4.048-4.982 4.515a61.692 61.692 0 003.737 8.952zM8.59 61.36c-.779-1.323-1.557-2.724-2.18-4.125l.856 5.37c.234-.31.779-.778 1.324-1.245zm65.156-4.125c-.623 1.4-1.402 2.802-2.18 4.125.545.467 1.012.934 1.323 1.246zm.467-4.282c-.545-.467-3.893-3.503-4.827-4.36-1.323 3.737-2.958 7.318-4.982 10.51C58.8 68.133 50.86 74.672 41.44 78.175l-1.401.467-1.324-.467c-9.419-3.425-17.281-10.042-22.964-19.072-2.024-3.192-3.658-6.773-4.982-10.51-1.012.857-4.281 3.893-4.826 4.36 1.245 3.27 2.88 6.461 4.67 9.341 6.384 10.198 15.414 17.593 26.079 21.486 0 0 3.113 1.09 3.425 1.245.389-.155 3.503-1.245 3.503-1.245 10.664-3.893 19.694-11.366 26.078-21.486 1.634-2.802 3.27-5.994 4.515-9.34zm4.125-1.868c-.467-.467-3.97-3.581-4.982-4.515-.31 1.012-.622 2.024-1.012 2.958l3.426 3.114-1.168 7.473c1.323-2.725 2.725-5.839 3.736-9.03zm-67.102 9.497l.078.311-.233.156c-.156-.234-.234-.467-.39-.779-.155-.233-.311-.467-.467-.778l.234-.078.233.234c.234-.234.623-.545.779-.857l-.545-1.012-1.09.234.078.311-.156.078c-.077-.233-.233-.39-.311-.623-.078-.155-.156-.311-.311-.545l.233-.077.234.233c.778 0 2.413-.311 3.425-.467.156.234.39.39.545.545l.078.311-1.012 1.246c-.545.545-1.168 1.323-1.401 1.557zm.623-2.102l.934-1.012-1.401.311zm5.683 5.76l.155-.155c-.155-.156-.233-.311-.389-.545-.156-.156-.233-.39-.39-.545l-.233.156.156.311c-.545.39-1.79 1.401-1.79 1.401.31-.934.7-2.024 1.09-2.958-.156-.155-.234-.311-.39-.467-.078-.155-.233-.311-.311-.467l-.156.156.156.311c-.234.234-.467.39-.779.623l-.856.623c-.311.233-.545.389-.856.545l-.234-.234-.155.156c.155.155.233.311.389.545.155.155.233.389.389.544l.156-.155-.234-.39c.545-.389 1.246-.934 1.868-1.4-.389.934-.7 1.945-1.09 3.035.078.078.156.234.234.312.078.078.156.233.234.311.311-.233.622-.545 1.09-.856l.856-.623c.311-.234.622-.39.856-.545zm.311 2.88c-.856.78-.778 1.947-.078 2.648.467.467.934.778 1.79.856l.078-.467c-.467-.078-.856-.234-1.09-.545-.544-.545-.544-1.323.079-1.946.622-.623 1.323-.39 1.712.078.234.233.39.545.39.856l-.156.311.155.234c.234-.156.545-.39.779-.467-.156-.467-.39-.779-.7-1.168-.857-1.012-2.103-1.168-2.959-.39zm7.551 7.163c-.7.856-1.79.934-2.88.077-1.012-.856-1.168-1.868-.39-2.88.701-.856 1.869-.934 2.88-.078 1.013.857 1.168 1.946.39 2.88zm-.778-2.414c-.545-.467-1.246-.233-1.79.312-.546.623-.546 1.323 0 1.79s1.245.234 1.79-.311c.467-.623.544-1.401 0-1.79zm6.227 4.982c-.233.468-.778.545-1.323.312.078.389.233 1.712.311 1.946l.078.156-.156.233c-.31-.233-.7-.39-1.012-.545 0-.623-.077-1.557-.155-2.102l-.234-.155-.155.311a3.17 3.17 0 00-.467.856l.233.234-.155.233-.701-.467c-.234-.155-.467-.311-.778-.467l.155-.233.312.155c.233-.233.389-.544.622-.856l.545-.934c.234-.311.39-.623.545-.856l-.233-.234.155-.233c.156.155.39.233.545.389.234.155.467.233.7.39.234.155.468.233.701.388.779.467.779 1.012.467 1.48zm-1.168-1.323c-.233-.156-.31-.156-.467-.233-.077.155-.233.389-.389.622l-.155.234.233.233c.467.312.856.312 1.09-.078.156-.31.078-.544-.311-.778zm5.917 4.204c-.078.7-.156 1.712-.156 2.102l.234.155-.078.234c-.234-.156-.545-.234-.779-.39-.233-.155-.545-.233-.778-.31l.078-.234.311.077c.078-.31.156-.778.156-1.09l-1.09-.466-.7.856.233.155-.078.234c-.234-.078-.467-.234-.623-.311-.155-.078-.39-.156-.545-.234l.078-.233.312.077c.622-.467 1.712-1.634 2.49-2.49.312.077.545.077.779.155l.311.234zm-.779-1.402l-.934 1.09.779.39zm11.443 2.725c-.155-.311-.311-.545-.467-.934l-.389-.934c-.155-.39-.311-.623-.39-.934l.312-.156-.078-.233c-.233.155-.545.233-.778.389-.234.078-.545.233-.779.311l.078.234.312-.078c.155.311.311.545.467.934l.39.934c.155.39.233.623.388.934l-.311.156.078.233c.233-.155.545-.233.778-.389.234-.078.545-.233.779-.311l-.078-.234zm6.695-3.58c-.156-.234-.39-.546-.545-.857l-.545-.934a3.17 3.17 0 01-.467-.857l.234-.233-.156-.234c-.233.156-.467.312-.623.39-.233.155-.467.233-.7.389.155.467.467 2.335.545 2.724-.39-.311-1.79-1.4-2.102-1.79-.234.156-.467.311-.623.39-.233.155-.467.233-.7.388l.155.234.311-.078.234.467c.234.467 1.09 1.868 1.246 2.258l-.234.233.156.234c.155-.078.389-.234.545-.312.155-.078.389-.233.544-.311l-.155-.234-.312.156c-.155-.234-.389-.545-.544-.856l-.312-.545c-.233-.467-.467-.779-.545-.934 1.324 1.167 2.102 1.712 2.413 2.024l.467-.312-.622-3.114c.078.156.311.468.545.935l.311.545c.234.31.311.622.467.934l-.233.233.077.234.701-.467c.234-.156.545-.312.779-.467l-.078-.234zm3.58-2.725c-.233-.234-.466-.467-.7-.779l-.467-.623a3.456 3.456 0 01-.622-.856c.077-.078.155-.233.31-.311.39-.312.701-.234.935 0 .234.311.311.7-.078.934-.078.078-.155.155-.233.155l.155.468c.156-.078.312-.234.467-.312.779-.623.779-1.401.39-1.946-.39-.467-1.012-.545-1.635 0a3.386 3.386 0 01-.545.467c-.234.234-.467.39-.623.545-.156.156-.39.311-.623.467l.156.156.311-.156c.234.234.467.467.7.779l.624.856c.233.311.467.545.622.778l-.233.234.156.155c.233-.155.467-.389.7-.544.234-.156.467-.312.779-.623l-.156-.156zm6.15-5.605l.156.155c-.233.156-.389.39-.622.623-.234.234-.39.467-.623.623l-.156-.156.156-.233c-.234-.156-.7-.39-1.012-.545l-.857.856.545.934.234-.155.156.155-.468.467c-.155.156-.31.312-.389.467l-.155-.155.155-.234c-.233-.7-1.012-2.18-1.479-3.191.156-.234.312-.467.39-.7l.31-.157 1.402.623c.623.312 1.557.7 1.868.779zm-2.413.233l-1.323-.622.7 1.245zm6.384-5.293l.155.155c-.233.312-.467.623-.622.935-.701 0-1.635-.078-2.18-.078l-.156.233.234.234c.311.233.545.389.856.545l.234-.234.233.156c-.155.233-.389.467-.545.7a4.273 4.273 0 01-.545.701l-.233-.156.155-.311c-.233-.234-.467-.39-.778-.623l-.856-.623c-.312-.233-.545-.389-.857-.622l-.233.233-.234-.155c.156-.156.312-.312.39-.545.155-.234.311-.39.467-.623.155-.234.311-.39.467-.623.623-.856 1.167-.778 1.557-.467.389.312.467.856.233 1.324.39 0 1.713-.078 1.946-.078zm-2.88-.311c-.234-.234-.545-.156-.779.233-.156.156-.233.311-.311.39.155.077.311.31.622.466l.234.156.234-.234c.31-.389.31-.7 0-1.012zm5.526-3.27c-.7 1.168-1.712 1.48-2.724.856-.934-.545-1.246-1.634-.545-2.802.7-1.168 1.635-1.48 2.725-.856.934.467 1.245 1.634.544 2.802zm-1.09-1.946c-.7-.39-1.4-.311-1.79.233-.389.623-.078 1.246.623 1.713.7.39 1.401.311 1.79-.234.39-.622.078-1.323-.622-1.712zm-28.18 22.03c-.388 0-.778.39-.778.856s.39.857.779.857c.467 0 .856-.39.856-.857s-.39-.856-.856-.856zM9.68 54.666c.467 0 .857-.39.857-.779a.864.864 0 00-.857-.856c-.467 0-.778.39-.778.856 0 .39.39.779.778.779zm60.875 0c.467 0 .856-.39.856-.779a.864.864 0 00-.856-.856c-.39 0-.778.39-.778.856-.078.39.31.779.778.779z"/></svg>
