<?xml version="1.0" encoding="UTF-8" standalone="no" ?>
<!DOCTYPE svg PUBLIC "-//W3C//DTD SVG 1.1//EN" "http://www.w3.org/Graphics/SVG/1.1/DTD/svg11.dtd">
<svg xmlns="http://www.w3.org/2000/svg" xmlns:xlink="http://www.w3.org/1999/xlink" version="1.1" width="80" height="86" viewBox="0 0 80 86" xml:space="preserve">
<desc>Created with Fabric.js 3.6.6</desc>
<defs>
</defs>
<g transform="matrix(2.1 0 0 2.1 40.07 43.37)"  >
<path style="stroke: none; stroke-width: 0.37069; stroke-dasharray: none; stroke-linecap: butt; stroke-dashoffset: 0; stroke-linejoin: miter; stroke-miterlimit: 4; fill: rgb(0,0,0); fill-rule: nonzero; opacity: 1;"  transform=" translate(-18.92, -20.76)" d="m 25.98537 8.7535432 h -0.29656 v -6.22758 c 0.25949 0.63017 0.29656 1.26034 0.29656 1.77931 z m -11.78794 -2.48362 c 0.37069 0.11121 0.77845 0.18535 1.22328 0.22241 v -0.29655 c -0.37069 -0.0371 -0.77845 -0.1112 -1.14914 -0.22241 c -0.48189 -0.11121 -0.92672 -0.22241 -1.37155 -0.22241 c -0.22241 0 -0.44483 0.0371 -0.63017 0.1112 v 0.33362 c 0.14827 -0.0741 0.37069 -0.1112 0.63017 -0.1112 c 0.40776 -0.0371 0.85259 0.0741 1.29741 0.18534 z m -3.59569 -0.22241 c 0.25949 0 0.4819 0.0371 0.63018 0.1112 v -0.33362 c -0.18535 -0.0741 -0.40776 -0.1112 -0.63018 -0.1112 c -0.44482 0 -0.88965 0.1112 -1.37155 0.22241 c -0.37069 0.11121 -0.74138 0.18534 -1.14913 0.22241 v 0.29656 c 0.40775 -0.0371 0.81551 -0.11121 1.22327 -0.22242 c 0.4819 -0.0741 0.88966 -0.18534 1.29741 -0.18534 z m 0 -0.74138 c 0.25949 0 0.4819 0.0741 0.63018 0.1112 v -0.33362 c -0.18535 -0.0741 -0.40776 -0.0741 -0.63018 -0.1112 c -0.44482 0 -0.88965 0.1112 -1.37155 0.22241 c -0.37069 0.11121 -0.74138 0.18535 -1.14913 0.22241 v 0.29656 c 0.44482 -0.0371 0.81551 -0.11121 1.22327 -0.22242 c 0.4819 -0.1112 0.88966 -0.22241 1.29741 -0.18534 z m 0 1.51983 c 0.25949 0 0.4819 0.0371 0.63018 0.1112 v -0.33362 c -0.18535 -0.0741 -0.40776 -0.0741 -0.63018 -0.11121 c -0.44482 0 -0.88965 0.11121 -1.37155 0.22242 c -0.37069 0.11121 -0.74138 0.18534 -1.14913 0.22241 v 0.29655 c 0.44482 -0.0371 0.81551 -0.14827 1.22327 -0.22241 c 0.4819 -0.11121 0.88966 -0.22241 1.29741 -0.18534 z m 0 -2.29828 c 0.25949 0 0.4819 0.0741 0.63018 0.11121 v -0.33362 c -0.18535 -0.0741 -0.40776 -0.11121 -0.63018 -0.11121 c -0.44482 0 -0.88965 0.11121 -1.37155 0.22241 c -0.37069 0.11121 -0.74138 0.18535 -1.14913 0.22242 v 0.29655 c 0.40775 -0.0371 0.81551 -0.11121 1.22327 -0.22242 c 0.4819 -0.0741 0.88966 -0.18534 1.29741 -0.18534 z m -2.00172 22.6862098 c -3.66983 -6.04225 -3.59569 -11.93621 -3.59569 -12.67759 v -14.27154979 h 27.80173 v 14.27154979 c 0 0.74138 0.0741 6.63534 -3.59569 12.67759 c -3.26207 5.4862 -8.19225 7.89569 -10.30518 8.63707 c -2.07586 -0.74138 -7.00603 -3.15087 -10.30517 -8.63707 z m 7.41379 -1.11207 l -0.74138 -0.59311 l 0.40776 -0.88965 l -0.96379 0.18534 l -0.40776 -0.85258 l -0.44483 0.85258 l -0.92672 -0.18534 l 0.40776 0.88965 l -0.74138 0.59311 l 0.92672 0.22241 v 0.96379 l 0.77845 -0.5931 l 0.74138 0.5931 v -0.96379 z m 3.96638 6.04224 l 0.92673 -0.44483 l -0.92673 -0.40776 l 0.33362 -0.96379 l -0.96379 0.37069 l -0.40776 -0.92672 l -0.40776 0.88965 l -0.96379 -0.37069 l 0.37069 0.96379 l -0.92672 0.40776 l 0.92672 0.44483 l -0.37069 0.96379 l 0.96379 -0.37069 l 0.40776 0.92673 l 0.40776 -0.92673 l 0.96379 0.37069 z m -2.03879 -11.04655 l -0.74138 0.63017 l 0.92672 0.22241 v 0.9638 l 0.74138 -0.59311 l 0.77845 0.59311 l 0.0371 -0.9638 l 0.92673 -0.22241 l -0.74138 -0.63017 l 0.40776 -0.88966 l -0.9638 0.18535 l -0.40776 -0.85259 l -0.40775 0.85259 l -0.9638 -0.18535 z m 3.26207 6.07931 l 0.55603 -0.59311 l -0.81551 -0.14827 l -0.37069 -0.74138 l -0.37069 0.74138 l -0.81552 0.14827 l 0.5931 0.59311 l -0.14827 0.81551 l 0.74138 -0.37068 l 0.74138 0.37068 z m 2.7431 -2.92845 l 0.44483 -0.74138 h -0.85259 l -0.40775 -0.74138 l -0.40776 0.74138 h -0.85259 l 0.44483 0.74138 l -0.44483 0.74138 h 0.85259 l 0.40776 0.74138 l 0.40775 -0.74138 h 0.85259 z m 6.52414 -17.8672398 c -0.22241 0.1112 -0.40776 0.29655 -0.51896 0.51896 c -0.11121 0.18535 -0.14828 0.37069 -0.14828 0.55604 v 0.14827 c 0.11121 -0.0741 0.22241 -0.14827 0.33362 -0.22241 c 0.0741 -0.0741 0.14828 -0.18535 0.22241 -0.25948 c 0.0741 -0.14828 0.11121 -0.37069 0.11121 -0.55604 c 0 -0.0741 0 -0.14827 0 -0.18534 z m -2.89138 4.2629298 c 0.22241 0.11121 0.4819 0.14827 0.74138 0.11121 c 0.25948 -0.0371 0.44483 -0.14828 0.63017 -0.33363 c -0.22241 -0.1112 -0.44482 -0.14827 -0.70431 -0.1112 c -0.25948 0.0371 -0.48189 0.18534 -0.66724 0.33362 z m 0 -0.40776 c 0.11121 -0.18534 0.18535 -0.4077598 0.18535 -0.6301698 c 0 -0.0371 0 -0.0371 0 -0.0741 c -0.22242 0.11121 -0.40776 0.25948 -0.55604 0.44483 c -0.11121 0.1853398 -0.18534 0.4077598 -0.18534 0.6301698 v 0.0741 c 0.25948 -0.0741 0.44482 -0.22241 0.55603 -0.44483 z m 0.29655 -0.0741 s 0 0.0371 0 0 c 0.0741 0 0.11121 0 0.14828 -0.0371 c 0.14827 -0.11121 0.22241 -0.2594798 0.29655 -0.4448298 c 0.0371 -0.1112 0.0741 -0.25948 0.0741 -0.37069 c 0 -0.1112 -0.0371 -0.22241 -0.0741 -0.33362 c -0.14828 0.11121 -0.25948 0.22242 -0.33362 0.37069 c 0 0.33362 -0.0371 0.59311 -0.11121 0.8155198 z m 0.70431 -0.5930998 c 0 0.0371 0 0.0371 0 0 c 0.0741 0 0.11121 -0.0371 0.14828 -0.0741 c 0.11121 -0.14828 0.14828 -0.29655 0.18534 -0.4819 c 0 -0.0371 0 -0.0741 0 -0.1112 c 0 -0.18535 -0.0741 -0.40776 -0.18534 -0.59311 c -0.11121 0.14828 -0.22241 0.29655 -0.25948 0.44483 c 0.1112 0.33362 0.14827 0.55603 0.1112 0.81552 z m 0.51897 -0.74138 c 0 0.0371 0 0.0371 0 0 c 0.0741 0 0.11121 -0.0371 0.14827 -0.11121 c 0.0371 -0.11121 0.0741 -0.22241 0.0741 -0.37069 c 0 -0.0371 0 -0.11121 0 -0.14828 c -0.0371 -0.22241 -0.14827 -0.44482 -0.33362 -0.63017 c -0.0741 0.14828 -0.1112 0.33362 -0.1112 0.4819 c 0.1112 0.29655 0.18534 0.51896 0.22241 0.77845 z m 0.37069 -0.85259 c 0 0.0371 0 0.0371 0 0 c 0.0741 -0.0371 0.0741 -0.0741 0.11121 -0.14827 c 0 -0.0371 0 -0.0371 0 -0.0741 c 0 -0.14828 -0.0371 -0.29655 -0.0741 -0.44483 c -0.0741 -0.22241 -0.25949 -0.37069 -0.4819 -0.51897 c -0.0371 0.0741 -0.0371 0.18535 -0.0371 0.25949 c 0 0.0741 0 0.14827 0.0371 0.22241 c 0.22241 0.25948 0.37069 0.4819 0.44483 0.70431 z m 0.14827 -0.88965 c 0.0371 -0.0371 0.0741 -0.11121 0.0741 -0.14828 c -0.0371 -0.18534 -0.0741 -0.33362 -0.18534 -0.4819 c -0.14828 -0.18534 -0.33362 -0.33362 -0.5931 -0.40776 c 0 0.18535 0.0371 0.37069 0.1112 0.51897 c 0.25949 0.11121 0.44483 0.29655 0.59311 0.51897 z m -0.0371 -1.075 c -0.0741 -0.18535 -0.14827 -0.33362 -0.29655 -0.44483 c -0.18534 -0.14828 -0.37069 -0.22242 -0.63017 -0.25948 c 0.0371 0.18534 0.11121 0.33362 0.22241 0.44482 c 0.25949 0.0741 0.4819 0.22242 0.66725 0.37069 h 0.0371 s 0 -0.0371 0 -0.1112 z m -0.29655 -0.70431 c 0 -0.0741 -0.0371 -0.11121 -0.0371 -0.18535 c -0.1112 -0.14827 -0.22241 -0.25948 -0.37069 -0.33362 c -0.22241 -0.1112 -0.44482 -0.14827 -0.70431 -0.1112 c 0.11121 0.14827 0.18535 0.29655 0.33362 0.40775 c 0.29656 0 0.55604 0.0741 0.77845 0.22242 z m -0.14827 4.7448298 c 0.22241 -0.0741 0.40776 -0.2594898 0.55603 -0.4818998 c -0.25948 -0.0371 -0.51896 -0.0371 -0.74138 0.0371 c -0.18534 0.0741 -0.37069 0.25948 -0.51896 0.4448298 c 0.1112 0 0.25948 0.0371 0.37069 0.0741 c 0.1112 0 0.22241 0 0.33362 -0.0741 z m 0.63017 -0.8525898 c 0.18535 -0.14828 0.33362 -0.37069 0.44483 -0.63017 c -0.25948 0 -0.51897 0.0741 -0.70431 0.22241 c -0.18535 0.14828 -0.33362 0.33362 -0.40776 0.55603 c 0.11121 -0.0371 0.25948 -0.0371 0.37069 -0.0371 s 0.22241 -0.0371 0.29655 -0.11121 z m 0.66724 -1.70517 c -0.22241 0.0741 -0.44483 0.18534 -0.63017 0.37069 c -0.14828 0.18534 -0.22241 0.40775 -0.25948 0.66724 c 0.1112 -0.0371 0.22241 -0.0741 0.37069 -0.11121 c 0.1112 -0.0741 0.18534 -0.14828 0.25948 -0.22241 c 0.18534 -0.18535 0.25948 -0.44483 0.25948 -0.70431 z m -0.22241 -2.22414 c -0.18535 0.18534 -0.33362 0.37069 -0.40776 0.63017 c -0.0371 0.0741 -0.0371 0.18535 -0.0371 0.29655 c 0 0.14828 0.0371 0.29655 0.0741 0.40776 c 0.0741 -0.11121 0.18534 -0.18534 0.25948 -0.25948 c 0.0741 -0.11121 0.11121 -0.22242 0.14828 -0.33362 c 0.0371 -0.0741 0.0371 -0.18535 0.0371 -0.25948 c 0.0371 -0.14828 0 -0.29656 -0.0741 -0.4819 z m -0.74138 -0.29655 c 0 0.22241 0.0741 0.44482 0.22241 0.66724 c 0.0371 -0.11121 0.11121 -0.22242 0.18535 -0.33362 c 0.0371 -0.11121 0.0741 -0.22242 0.0741 -0.33362 c 0 -0.25949 -0.0741 -0.4819 -0.22242 -0.70431 c -0.14827 0.22241 -0.25948 0.44482 -0.25948 0.70431 z m -0.5931 -1.075 c 0 0.0741 0 0.18534 0.0371 0.25948 c 0.0371 0.22241 0.18534 0.40776 0.37069 0.5931 c 0.0371 -0.1112 0.0741 -0.25948 0.1112 -0.37069 c 0 -0.0371 0 -0.0371 0 -0.0741 c 0 -0.0741 0 -0.14828 -0.0371 -0.25949 c -0.0741 -0.22241 -0.18534 -0.44482 -0.40776 -0.63017 c -0.0371 0.14828 -0.0741 0.29655 -0.0741 0.4819 z m -0.11121 0.44482 c -0.14828 -0.1112 -0.29655 -0.18534 -0.44483 -0.25948 c -0.22241 -0.0741 -0.4819 -0.0371 -0.70431 0.0371 c 0.11121 0.14828 0.25948 0.25948 0.40776 0.33362 c 0.25948 -0.0371 0.55603 -0.0371 0.77845 0.0371 h 0.0371 c -0.0371 -0.0371 -0.0371 -0.0741 -0.0741 -0.14828 z m -0.70431 -1.40862 c 0 0.18535 0.0371 0.37069 0.1112 0.55604 c 0.11121 0.22241 0.29656 0.37069 0.51897 0.48189 c 0 -0.14827 0 -0.25948 0.0371 -0.40775 c -0.0371 -0.11121 -0.0371 -0.22242 -0.11121 -0.29656 c -0.1112 -0.22241 -0.29655 -0.40775 -0.51896 -0.51896 c -0.0371 0.0741 -0.0371 0.11121 -0.0371 0.18534 z m -0.9638 0.0741 c 0.0741 0.25948 0.22242 0.4819 0.40776 0.59311 c 0.18535 0.1112 0.40776 0.18534 0.63018 0.22241 c -0.0741 -0.0741 -0.11121 -0.14828 -0.18535 -0.25948 c -0.0371 -0.0741 -0.0741 -0.18535 -0.11121 -0.25949 c -0.0371 -0.0371 -0.0371 -0.0371 -0.0741 -0.0741 c -0.14827 -0.14828 -0.37069 -0.22242 -0.66724 -0.22242 z m -2.89137 5.81983 c 0 0.18534 0.14827 0.40776 0.48189 0.40776 h 0.63017 c -0.0741 0.22241 -0.14827 0.55603 -0.14827 0.8896498 c 0 0.44483 0.0741 0.81552 0.22241 1.075 c -0.48189 -0.0741 -0.81552 -0.18534 -1.14914 -0.37069 h -0.0371 l -0.0741 0.18535 h 0.0371 c 0.29656 0.14827 0.55604 0.22241 0.88966 0.33362 c 0 0 0.25948 0.0371 0.44483 0.0741 c -0.0371 0.0371 -0.0741 0.11121 -0.0741 0.18534 c 0 0.14828 0.1112 0.25949 0.25948 0.25949 s 0.25948 -0.11121 0.25948 -0.25949 c 0 -0.0741 -0.0371 -0.14827 -0.0741 -0.18534 c 0.18535 -0.0371 0.40776 -0.0741 0.40776 -0.0741 c 0.33362 -0.0741 0.63017 -0.14828 0.92673 -0.33362 h 0.0371 l -0.0741 -0.22242 h -0.0371 c -0.33363 0.18535 -0.66725 0.29656 -1.14914 0.37069 c 0.1112 -0.25948 0.22241 -0.63017 0.22241 -1.075 c 0 -0.3336198 -0.0371 -0.6672398 -0.14827 -0.8896498 h 0.63017 c 0.33362 0 0.48189 -0.18535 0.48189 -0.40776 c 0 -0.14828 -0.1112 -0.29655 -0.29655 -0.29655 c -0.14827 0 -0.29655 0.11121 -0.29655 0.29655 c 0 0.0371 0 0.0741 0.0371 0.11121 c 0.0371 0.0371 0.0371 0.1112 -0.0741 0.1112 h -0.37069 v -4.70775 c 0 -0.63018 -0.0371 -1.40863 -0.40776 -2.15 l -0.1112 -0.22242 l -0.11121 0.22242 c -0.37069 0.74137 -0.40776 1.51982 -0.40776 2.15 v 4.70775 h -0.37069 c -0.11121 0 -0.0741 -0.0741 -0.0741 -0.1112 s 0.0371 -0.0741 0.0371 -0.11121 c 0 -0.14828 -0.11121 -0.29655 -0.25948 -0.29655 c -0.11121 0.0371 -0.25948 0.18534 -0.25948 0.33362 z m -0.77845 0.55603 c -0.0741 -0.14827 -0.18535 -0.25948 -0.33362 -0.37069 c -0.0371 0.11121 -0.0741 0.22242 -0.0741 0.33362 c 0 0.11121 0.0371 0.25949 0.0741 0.37069 c 0.0371 0.18535 0.14827 0.2965598 0.25948 0.4448298 c 0.0371 0 0.11121 0.0371 0.14827 0.0371 v -0.0371 c -0.0741 -0.2224098 -0.1112 -0.4818898 -0.0741 -0.7784498 z m -0.22242 -4.70775 c -0.22241 -0.0371 -0.48189 0 -0.70431 0.1112 c -0.14827 0.0741 -0.29655 0.18535 -0.37069 0.33362 c 0 0.0741 0 0.11121 -0.0371 0.18535 h 0.0371 c 0.22242 -0.14828 0.4819 -0.22242 0.77845 -0.22242 c 0.11121 -0.1112 0.22242 -0.25948 0.29655 -0.40775 z m -0.25948 4.11465 c -0.0371 -0.14828 -0.14828 -0.29655 -0.25948 -0.44483 c -0.11121 0.18535 -0.18535 0.37069 -0.18535 0.59311 v 0.1112 c 0 0.18535 0.0741 0.33362 0.18535 0.4819 c 0.0371 0.0371 0.1112 0.0741 0.14827 0.11121 v -0.0371 c -0.0371 -0.29655 0 -0.51897 0.11121 -0.81552 z m -0.85259 -0.40776 c 0 0.11121 0.0371 0.22242 0.0741 0.37069 c 0.0371 0.0371 0.0741 0.0741 0.11121 0.11121 c 0 0 0 -0.0371 0.0371 -0.0371 c 0.0371 -0.25948 0.11121 -0.51897 0.25948 -0.74138 c 0 -0.18534 -0.0741 -0.33362 -0.14827 -0.4819 c -0.18535 0.18535 -0.29655 0.40776 -0.33362 0.63018 v 0.14827 z m 0.29656 -1.03793 c 0.0371 -0.0741 0.0371 -0.14828 0.0371 -0.22241 c 0 -0.0741 -0.0371 -0.18535 -0.0371 -0.25949 c -0.22242 0.14828 -0.37069 0.29656 -0.4819 0.51897 c -0.0741 0.14828 -0.0741 0.29655 -0.0741 0.44483 v 0.0741 c 0.0371 0.0371 0.0741 0.1112 0.0741 0.14827 c 0 0 0.0371 0 0.0371 -0.0371 c 0.0741 -0.25948 0.22241 -0.48189 0.44483 -0.66724 z m -0.55604 -1.33448 v 0.14827 h 0.0371 c 0.18535 -0.18534 0.40776 -0.29655 0.66724 -0.37069 c 0.11121 -0.14827 0.18535 -0.29655 0.22242 -0.44482 c -0.25949 0.0371 -0.4819 0.1112 -0.66724 0.25948 c -0.11121 0.0741 -0.22242 0.25948 -0.25949 0.40776 z m -0.11121 0.92672 c 0.0371 0.0371 0.0371 0.11121 0.0371 0.18535 h 0.0371 c 0.14828 -0.22242 0.33363 -0.40776 0.59311 -0.51897 c 0.0741 -0.14827 0.1112 -0.33362 0.1112 -0.51896 c -0.25948 0.0741 -0.44482 0.22241 -0.5931 0.40775 c -0.11121 0.11121 -0.18534 0.25949 -0.18534 0.44483 z m -0.14827 0.92673 c -0.14828 -0.18535 -0.37069 -0.29656 -0.63017 -0.37069 c 0.0371 0.25948 0.1112 0.48189 0.25948 0.66724 c 0.0741 0.0741 0.18534 0.14827 0.25948 0.22241 c 0.11121 0.0371 0.22242 0.0741 0.33362 0.11121 c 0 -0.22242 -0.0741 -0.44483 -0.22241 -0.63017 z m -0.37069 0.70431 c 0.0741 0.25948 0.22241 0.48189 0.40776 0.63017 c 0.0741 0.0741 0.18534 0.11121 0.29655 0.14827 c 0.14828 0 0.25948 0 0.37069 0.0371 c -0.11121 -0.22241 -0.22241 -0.44482 -0.40776 -0.55603 c -0.14828 -0.18535 -0.40776 -0.25948 -0.66724 -0.25948 z m 0.51896 1.03793 c 0.14828 0.22241 0.29656 0.37069 0.55604 0.4818898 c 0.11121 0.0371 0.22241 0.0741 0.33362 0.0741 c 0.11121 -0.0371 0.25948 -0.0371 0.37069 -0.0741 c -0.14828 -0.1853398 -0.33362 -0.3706898 -0.51897 -0.4448198 c -0.22241 -0.11121 -0.48189 -0.11121 -0.74138 -0.0371 z m 0.74138 0.8525798 c 0.18535 0.18535 0.40776 0.29656 0.66725 0.33362 c 0.22241 0.0371 0.48189 -0.0371 0.70431 -0.1112 c -0.18535 -0.18535 -0.40776 -0.29655 -0.66725 -0.33362 c -0.22241 -0.0741 -0.48189 0 -0.70431 0.1112 z m 1.92759 0.22242 c 0 -0.0371 0 -0.0371 0 -0.0741 c 0 -0.22242 -0.0741 -0.44483 -0.18534 -0.6301698 c -0.14828 -0.18535 -0.33363 -0.33363 -0.55604 -0.44483 v 0.0741 c 0 0.22241 0.0741 0.4448198 0.18535 0.6301698 c 0.1112 0.22241 0.29655 0.37069 0.55603 0.44483 z m -0.96379 -7.1172398 c -0.0371 0.0741 -0.11121 0.18534 -0.18535 0.25948 c 0.22242 0 0.44483 -0.0741 0.63017 -0.22241 c 0.18535 -0.14828 0.33363 -0.37069 0.44483 -0.59311 c -0.25948 0 -0.51896 0.0741 -0.70431 0.22242 c -0.0371 0.0371 -0.0371 0.0371 -0.0741 0.0741 c -0.0371 0.0741 -0.0741 0.18535 -0.1112 0.25949 z m -0.74138 0 c 0.0371 0.14827 0.0371 0.25948 0.0371 0.40775 c 0.22241 -0.1112 0.40776 -0.29655 0.48189 -0.48189 c 0.11121 -0.18535 0.14828 -0.37069 0.14828 -0.55604 c 0 -0.0741 0 -0.1112 -0.0371 -0.18534 c -0.22241 0.11121 -0.40776 0.29655 -0.51897 0.51896 c -0.0371 0.11121 -0.0741 0.18535 -0.1112 0.29656 z m -0.11121 0.96379 s 0.0371 0 0 0 c 0.29655 -0.0741 0.55604 -0.0741 0.81552 -0.0371 c 0.14827 -0.0741 0.29655 -0.18534 0.40776 -0.33362 c -0.22242 -0.0741 -0.4819 -0.11121 -0.70431 -0.0371 c -0.18535 0.0371 -0.33362 0.11121 -0.44483 0.25948 c -0.0371 0.0371 -0.0371 0.0741 -0.0741 0.14828 z m -0.5931 -0.22241 v 0.0741 c 0.0741 0.11121 0.1112 0.25949 0.1112 0.37069 c 0.18535 -0.18534 0.29656 -0.37069 0.37069 -0.5931 c 0.0371 -0.0741 0.0371 -0.18535 0.0371 -0.25948 c 0 -0.14828 -0.0371 -0.33362 -0.1112 -0.4819 c -0.18535 0.18535 -0.33362 0.37069 -0.40776 0.63017 c 0.0371 0.0741 0 0.14828 0 0.25949 z m -0.51897 0.66724 c 0 0.1112 0.0371 0.22241 0.0741 0.33362 c 0.0741 0.1112 0.14828 0.22241 0.18535 0.33362 c 0.1112 -0.18535 0.22241 -0.40776 0.22241 -0.66724 c 0 -0.22242 -0.11121 -0.4819 -0.22241 -0.70431 c -0.14828 0.22241 -0.25949 0.44482 -0.25949 0.70431 z m -0.37069 0.77845 c 0 0.1112 0 0.18534 0.0371 0.25948 c 0.0371 0.1112 0.0741 0.22241 0.14828 0.33362 c 0.1112 0.0741 0.18534 0.14827 0.25948 0.25948 c 0.0371 -0.14827 0.0741 -0.29655 0.0741 -0.40776 c 0 -0.1112 0 -0.18534 -0.0371 -0.29655 c -0.0741 -0.22241 -0.22241 -0.44483 -0.40776 -0.63017 c -0.0371 0.14827 -0.0741 0.33362 -0.0741 0.4819 z m -0.18534 0.77844 c 0 0.18535 0.0371 0.40776 0.14827 0.55604 c 0.0371 0.1112 0.11121 0.18534 0.22242 0.25948 c 0.1112 0.0371 0.22241 0.11121 0.33362 0.18535 c 0 -0.0371 0 -0.11121 0 -0.14828 c 0 -0.18535 -0.0371 -0.37069 -0.14828 -0.55603 c -0.11121 -0.22242 -0.29655 -0.40776 -0.55603 -0.51897 z m -9.00776 2.92845 c 0.25948 -0.18534 0.5931 -0.25948 1.00086 -0.25948 c 0.44483 0 0.88966 0.0741 1.37155 0.22241 c 0.4819 0.11121 1.03793 0.25949 1.5569 0.22242 c 0 -0.25949 0 -5.44914 0 -6.41293 c 0 -0.0741 0 -0.11121 0 -0.14828 c -0.55604 0.0371 -1.11207 -0.11121 -1.63104 -0.22241 c -0.44482 -0.11121 -0.88965 -0.22242 -1.26034 -0.18535 c -0.55603 0 -0.85259 0.18535 -1.03793 0.33362 v 0.22242 z m -4.18879 0.14828 c 0.51896 0.0371 1.03793 -0.0741 1.55689 -0.22242 c 0.4819 -0.1112 0.92673 -0.22241 1.37155 -0.22241 c 0.40776 0 0.74138 0.11121 1.00087 0.25948 v -6.19051 v -0.22242 c -0.18535 -0.18534 -0.4819 -0.33362 -1.03794 -0.33362 c -0.40775 0 -0.81551 0.0741 -1.26034 0.18535 c -0.51897 0.14827 -1.03793 0.25948 -1.63103 0.22241 v 0.14828 z m -1.00087 1.0379298 h 4.48535 c 0.11121 0.18534 0.29655 0.33362 0.55603 0.33362 c 0.25949 0 0.4819 -0.14828 0.55604 -0.33362 h 4.48534 v -7.4137898 h -0.14827 h -0.40776 l 0.0371 0.14827 v 0.0371 v 6.7094798 c -0.33362 0 -3.96638 0 -4.15173 0 c -0.0741 0.11121 -0.14827 0.14828 -0.37069 0.14828 c -0.18534 0 -0.25948 -0.0371 -0.33362 -0.14828 c -0.18534 0 -3.52155 0 -4.18879 0 v -6.7094798 v -0.0371 l 0.0371 -0.14827 h -0.55603 z m 1.63104 14.86465 l 10.56465 -9.48965 l 10.60173 9.52672 c 0.70431 -1.33448 1.1862 -2.63189 1.59396 -3.85517 l -12.19569 -10.97241 l -12.15862 10.93534 c 0.37069 1.22328 0.88966 2.52069 1.59397 3.85517 z m 2.2612 -17.9413798 c 0.25949 0 0.4819 0.0371 0.63018 0.11121 v -0.33362 c -0.18535 -0.0741 -0.40776 -0.0741 -0.63018 -0.11121 c -0.44482 0 -0.88965 0.11121 -1.37155 0.22242 c -0.37069 0.1112 -0.74138 0.18534 -1.14913 0.22241 v 0.29655 c 0.40775 -0.0371 0.81551 -0.14827 1.22327 -0.22241 c 0.4819 -0.0741 0.88966 -0.18535 1.29741 -0.18535 z m 0 0.77845 c 0.25949 0 0.4819 0.0371 0.63018 0.11121 v -0.33362 c -0.18535 -0.0741 -0.40776 -0.11121 -0.63018 -0.11121 c -0.44482 0 -0.88965 0.11121 -1.37155 0.22242 c -0.37069 0.1112 -0.74138 0.18534 -1.14913 0.22241 v 0.29655 c 0.40775 -0.0371 0.81551 -0.14827 1.22327 -0.22241 c 0.4819 -0.11121 0.88966 -0.22242 1.29741 -0.18535 z m 0 -4.55948 c 0.25949 0 0.4819 0.0741 0.63018 0.11121 v -0.33362 c -0.18535 -0.0741 -0.40776 -0.0741 -0.63018 -0.11121 c -0.44482 0 -0.88965 0.11121 -1.37155 0.22241 c -0.37069 0.11121 -0.74138 0.18535 -1.14913 0.22242 v 0.29655 c 0.40775 -0.0371 0.81551 -0.11121 1.22327 -0.22242 c 0.4819 -0.1112 0.88966 -0.18534 1.29741 -0.18534 z m 3.59569 1.74224 c 0.37069 0.11121 0.77845 0.18535 1.22328 0.22242 v -0.29656 c -0.37069 -0.0371 -0.77845 -0.1112 -1.14914 -0.22241 c -0.48189 -0.11121 -0.92672 -0.22241 -1.37155 -0.22241 c -0.22241 0 -0.44483 0.0371 -0.63017 0.1112 v 0.33362 c 0.14827 -0.0741 0.37069 -0.1112 0.63017 -0.1112 c 0.40776 -0.0741 0.85259 0.0371 1.29741 0.18534 z m 0 -1.51983 c 0.37069 0.11121 0.77845 0.18535 1.22328 0.22242 v -0.29655 c -0.37069 -0.0371 -0.77845 -0.11121 -1.14914 -0.22242 c -0.48189 -0.1112 -0.92672 -0.22241 -1.37155 -0.22241 c -0.22241 0 -0.44483 0.0371 -0.63017 0.11121 v 0.33362 c 0.14827 -0.0741 0.37069 -0.11121 0.63017 -0.11121 c 0.40776 -0.0371 0.85259 0.0371 1.29741 0.18534 z m 0 3.00259 c 0.37069 0.0741 0.81552 0.18534 1.22328 0.22241 v -0.29655 c -0.40776 -0.0371 -0.77845 -0.1112 -1.14914 -0.22241 c -0.48189 -0.11121 -0.92672 -0.22242 -1.33448 -0.22242 c -0.22241 0 -0.44483 0.0371 -0.63017 0.0741 v 0.33362 c 0.14827 -0.0741 0.37069 -0.1112 0.63017 -0.1112 c 0.37069 0 0.81552 0.1112 1.26034 0.22241 z m 0 -2.26121 c 0.37069 0.11121 0.77845 0.18535 1.22328 0.22242 v -0.29655 c -0.37069 -0.0371 -0.77845 -0.11121 -1.14914 -0.22242 c -0.48189 -0.11121 -0.92672 -0.22241 -1.37155 -0.22241 c -0.22241 0 -0.44483 0.0371 -0.63017 0.1112 v 0.33363 c 0.14827 -0.0741 0.37069 -0.11121 0.63017 -0.11121 c 0.40776 -0.0371 0.85259 0.0741 1.29741 0.18534 z m 0 3.03966 c 0.37069 0.11121 0.77845 0.18534 1.22328 0.22241 v -0.29655 c -0.37069 -0.0371 -0.77845 -0.14828 -1.14914 -0.22241 c -0.48189 -0.11121 -0.92672 -0.22242 -1.37155 -0.22242 c -0.22241 0 -0.44483 0.0371 -0.63017 0.11121 v 0.33362 c 0.14827 -0.0741 0.37069 -0.11121 0.63017 -0.11121 c 0.40776 -0.0371 0.85259 0.0741 1.29741 0.18535 z m 0 0.74138 c 0.37069 0.1112 0.77845 0.18534 1.22328 0.22241 v -0.29655 c -0.37069 -0.0371 -0.77845 -0.11121 -1.14914 -0.22241 c -0.48189 -0.11121 -0.92672 -0.22242 -1.37155 -0.22242 c -0.22241 0 -0.44483 0.0371 -0.63017 0.11121 v 0.33362 c 0.14827 -0.0741 0.37069 -0.11121 0.63017 -0.11121 c 0.40776 -0.0371 0.85259 0.0741 1.29741 0.18535 z m 23.65001 15.7543098 l -0.0741 0.18534 c -0.70431 2.33535 -1.89052 4.67069 -2.74311 6.19052 l -0.18534 0.29655 l -1.22328 -1.11207 c -0.0371 0.0741 -0.1112 0.18535 -0.14827 0.25949 c -3.1138 4.96724 -7.48793 8.56293 -12.71466 10.49051 l -1.85345 0.66724 l -1.85345 -0.66724 c -5.18965 -1.89051 -9.60086 -5.52327 -12.67758 -10.49051 c -0.0371 -0.0741 -0.0741 -0.18535 -0.14828 -0.25949 l -1.26034 1.11207 l -0.18535 -0.33362 c -0.85258 -1.5569 -2.00172 -3.89224 -2.7431 -6.19052 l -0.0371 -0.14827 l 3.00259 -2.70604 l 0.37069 -0.33362 l 0.14827 0.44483 c 0.14828 0.55603 0.33362 1.075 0.51897 1.59397 l 0.85258 -0.77845 l 0.33362 -0.29655 l 0.14828 0.44482 c 0.63017 1.89052 1.48276 3.66983 2.48362 5.2638 c 2.6319 4.18879 6.30172 7.22845 10.63879 8.82241 c 0 0 0.29656 0.11121 0.44483 0.14828 c 0.14828 -0.0371 0.44483 -0.14828 0.44483 -0.14828 c 4.33707 -1.59396 8.04396 -4.63362 10.63879 -8.82241 c 1.00086 -1.59397 1.85345 -3.37328 2.48362 -5.2638 l 0.14828 -0.44482 l 1.18621 1.075 c 0.18534 -0.51897 0.37069 -1.03794 0.51896 -1.59397 l 0.14828 -0.44483 z m -35.3638 4.44827 l -0.55603 -3.52155 l 1.63103 -1.48276 c -0.18534 -0.44482 -0.33362 -0.92672 -0.4819 -1.40862 c -0.48189 0.44483 -2.15 1.92759 -2.37241 2.15 c 0.4819 1.48276 1.11207 2.96552 1.77931 4.26293 z m 1.44569 0.59311 c -0.37069 -0.63017 -0.74138 -1.29742 -1.03793 -1.96466 l 0.40776 2.55776 c 0.11121 -0.14827 0.37069 -0.37069 0.63017 -0.5931 z m 31.02673 -1.96466 c -0.29656 0.66724 -0.66725 1.33449 -1.03794 1.96466 c 0.25949 0.22241 0.4819 0.44483 0.63018 0.5931 z m 0.22241 -2.03879 c -0.25948 -0.22241 -1.85345 -1.6681 -2.29828 -2.07586 c -0.63017 1.77931 -1.40862 3.48448 -2.37241 5.00431 c -2.66897 4.3 -6.45 7.41379 -10.93535 9.08189 l -0.66724 0.22242 s -0.63017 -0.22242 -0.63017 -0.22242 c -4.48534 -1.63103 -8.22931 -4.78189 -10.93534 -9.08189 c -0.9638 -1.51983 -1.74225 -3.225 -2.37242 -5.00431 c -0.48189 0.40776 -2.03879 1.85345 -2.29827 2.07586 c 0.5931 1.5569 1.37155 3.07672 2.22413 4.44828 c 3.03966 4.85603 7.33966 8.37758 12.41811 10.23103 c 0 0 1.48276 0.51897 1.63103 0.5931 c 0.18535 -0.0741 1.66811 -0.5931 1.66811 -0.5931 c 5.07844 -1.85345 9.37844 -5.41207 12.4181 -10.23103 c 0.77845 -1.33449 1.5569 -2.85432 2.15 -4.44828 z m 1.96465 -0.88966 c -0.22241 -0.22241 -1.89051 -1.70517 -2.37241 -2.15 c -0.14827 0.4819 -0.29655 0.9638 -0.4819 1.40862 l 1.63104 1.48276 l -0.55604 3.55862 c 0.63018 -1.29741 1.29742 -2.78017 1.77931 -4.3 z m -31.95344 4.52242 l 0.0371 0.14827 l -0.11121 0.0741 c -0.0741 -0.1112 -0.11121 -0.22241 -0.18535 -0.37069 c -0.0741 -0.1112 -0.14827 -0.22241 -0.22241 -0.37069 l 0.11121 -0.0371 l 0.1112 0.11121 c 0.11121 -0.11121 0.29656 -0.25948 0.37069 -0.40776 l -0.25948 -0.48189 l -0.51896 0.1112 l 0.0371 0.14828 l -0.0741 0.0371 c -0.0371 -0.11121 -0.11121 -0.18535 -0.14828 -0.29655 c -0.0371 -0.0741 -0.0741 -0.14828 -0.14828 -0.25949 l 0.11121 -0.0371 l 0.11121 0.11121 c 0.37069 0 1.14914 -0.14827 1.63103 -0.22241 c 0.0741 0.1112 0.18535 0.18534 0.25948 0.25948 l 0.0371 0.14828 l -0.48189 0.5931 c -0.25948 0.25948 -0.55604 0.63017 -0.66724 0.74138 z m 0.29655 -1.00086 l 0.44483 -0.4819 l -0.66725 0.14828 z m 2.70603 2.7431 l 0.0741 -0.0741 c -0.0741 -0.0741 -0.1112 -0.14828 -0.18534 -0.25948 c -0.0741 -0.0741 -0.11121 -0.18535 -0.18535 -0.25949 l -0.1112 0.0741 l 0.0741 0.14828 c -0.25949 0.18534 -0.85259 0.66724 -0.85259 0.66724 c 0.14827 -0.44483 0.33362 -0.96379 0.51896 -1.40862 c -0.0741 -0.0741 -0.1112 -0.14828 -0.18534 -0.22241 c -0.0371 -0.0741 -0.11121 -0.14828 -0.14828 -0.22242 l -0.0741 0.0741 l 0.0741 0.14828 c -0.1112 0.11121 -0.22241 0.18534 -0.37069 0.29655 l -0.40775 0.29655 c -0.14828 0.11121 -0.25949 0.18535 -0.40776 0.25948 l -0.11121 -0.1112 l -0.0741 0.0741 c 0.0741 0.0741 0.11121 0.14827 0.18534 0.25948 c 0.0741 0.0741 0.11121 0.18535 0.18535 0.25948 l 0.0741 -0.0741 l -0.11121 -0.18534 c 0.25949 -0.18535 0.59311 -0.44483 0.88966 -0.66724 c -0.18535 0.44482 -0.33362 0.92672 -0.51897 1.44569 c 0.0371 0.0371 0.0741 0.1112 0.11121 0.14827 c 0.0371 0.0371 0.0741 0.11121 0.11121 0.14828 c 0.14827 -0.11121 0.29655 -0.25948 0.51896 -0.40776 l 0.40776 -0.29655 c 0.14828 -0.11121 0.29655 -0.18535 0.40776 -0.25948 z m 0.14828 1.37155 c -0.40776 0.37069 -0.37069 0.92673 -0.0371 1.26035 c 0.22241 0.22241 0.44483 0.37069 0.85258 0.40775 l 0.0371 -0.22241 c -0.22241 -0.0371 -0.40775 -0.11121 -0.51896 -0.25948 c -0.25948 -0.25948 -0.25948 -0.63017 0.0371 -0.92673 c 0.29655 -0.29655 0.63017 -0.18534 0.81552 0.0371 c 0.1112 0.11121 0.18534 0.25949 0.18534 0.40776 l -0.0741 0.14828 l 0.0741 0.11121 c 0.11121 -0.0741 0.25948 -0.18535 0.37069 -0.22242 c -0.0741 -0.22241 -0.18534 -0.37069 -0.33362 -0.55603 c -0.40776 -0.4819 -1.00086 -0.55604 -1.40862 -0.18535 z m 3.59569 3.41035 c -0.33362 0.40775 -0.85259 0.44482 -1.37155 0.0371 c -0.4819 -0.40776 -0.55604 -0.88966 -0.18535 -1.37156 c 0.33362 -0.40775 0.88966 -0.44482 1.37155 -0.0371 c 0.4819 0.40776 0.55604 0.92673 0.18535 1.37156 z m -0.37069 -1.14914 c -0.25948 -0.22242 -0.59311 -0.11121 -0.85259 0.14827 c -0.25948 0.29656 -0.25948 0.63018 0 0.85259 s 0.59311 0.11121 0.85259 -0.14828 c 0.22241 -0.29655 0.25948 -0.66724 0 -0.85258 z m 2.96552 2.37241 c -0.11121 0.22242 -0.37069 0.25948 -0.63018 0.14828 c 0.0371 0.18534 0.11121 0.81551 0.14828 0.92672 l 0.0371 0.0741 l -0.0741 0.11121 c -0.14828 -0.11121 -0.33362 -0.18535 -0.4819 -0.25948 c 0 -0.29656 -0.0371 -0.74138 -0.0741 -1.00087 l -0.1112 -0.0741 l -0.0741 0.14828 c -0.11121 0.14828 -0.18535 0.29655 -0.22242 0.40776 l 0.11121 0.11121 l -0.0741 0.1112 c -0.11121 -0.0741 -0.22242 -0.14827 -0.33362 -0.22241 c -0.11121 -0.0741 -0.22242 -0.14828 -0.37069 -0.22242 l 0.0741 -0.1112 l 0.14827 0.0741 c 0.11121 -0.11121 0.18535 -0.25949 0.29656 -0.40776 l 0.25948 -0.44483 c 0.11121 -0.14827 0.18534 -0.29655 0.25948 -0.40776 l -0.11121 -0.1112 l 0.0741 -0.11121 c 0.0741 0.0741 0.18535 0.11121 0.25949 0.18534 c 0.1112 0.0741 0.22241 0.11121 0.33362 0.18535 c 0.1112 0.0741 0.22241 0.11121 0.33362 0.18534 c 0.37069 0.22242 0.37069 0.4819 0.22241 0.70431 z m -0.55604 -0.63017 c -0.11121 -0.0741 -0.14828 -0.0741 -0.22241 -0.11121 c -0.0371 0.0741 -0.11121 0.18535 -0.18535 0.29655 l -0.0741 0.11121 l 0.11121 0.11121 c 0.22241 0.14827 0.40776 0.14827 0.51896 -0.0371 c 0.0741 -0.14828 0.0371 -0.25948 -0.14827 -0.37069 z m 2.81724 2.00172 c -0.0371 0.33362 -0.0741 0.81552 -0.0741 1.00087 l 0.11121 0.0741 l -0.0371 0.1112 c -0.11121 -0.0741 -0.25948 -0.1112 -0.37069 -0.18534 c -0.11121 -0.0741 -0.25948 -0.11121 -0.37069 -0.14828 l 0.0371 -0.11121 l 0.14828 0.0371 c 0.0371 -0.14827 0.0741 -0.37068 0.0741 -0.51896 l -0.51897 -0.22241 l -0.33362 0.40775 l 0.11121 0.0741 l -0.0371 0.11121 c -0.11121 -0.0371 -0.22242 -0.11121 -0.29656 -0.14827 c -0.0741 -0.0371 -0.18534 -0.0741 -0.25948 -0.11121 l 0.0371 -0.11121 l 0.14828 0.0371 c 0.29655 -0.22241 0.81551 -0.77845 1.1862 -1.1862 c 0.14828 0.0371 0.25949 0.0371 0.37069 0.0741 l 0.14828 0.1112 z m -0.37069 -0.66724 l -0.44483 0.51897 l 0.37069 0.18534 z m 5.44914 1.29742 c -0.0741 -0.14828 -0.14828 -0.25949 -0.22241 -0.44483 l -0.18535 -0.44483 c -0.0741 -0.18534 -0.14827 -0.29655 -0.18534 -0.44483 l 0.14827 -0.0741 l -0.0371 -0.1112 c -0.1112 0.0741 -0.25948 0.1112 -0.37069 0.18534 c -0.1112 0.0371 -0.25948 0.11121 -0.37069 0.14828 l 0.0371 0.1112 l 0.14828 -0.0371 c 0.0741 0.14828 0.14828 0.25949 0.22241 0.44483 l 0.18535 0.44483 c 0.0741 0.18534 0.1112 0.29655 0.18534 0.44483 l -0.14827 0.0741 l 0.0371 0.1112 c 0.1112 -0.0741 0.25948 -0.1112 0.37069 -0.18534 c 0.1112 -0.0371 0.25948 -0.11121 0.37069 -0.14828 l -0.0371 -0.1112 z m 3.18793 -1.70518 c -0.0741 -0.1112 -0.18534 -0.25948 -0.25948 -0.40776 l -0.25948 -0.44482 c -0.11121 -0.14828 -0.18535 -0.29655 -0.22242 -0.40776 l 0.11121 -0.11121 l -0.0741 -0.11121 c -0.11121 0.0741 -0.22241 0.14828 -0.29655 0.18535 c -0.11121 0.0741 -0.22242 0.11121 -0.33362 0.18534 c 0.0741 0.22242 0.22241 1.11207 0.25948 1.29742 c -0.18535 -0.14828 -0.85259 -0.66724 -1.00086 -0.85259 c -0.11121 0.0741 -0.22242 0.14828 -0.29655 0.18535 c -0.11121 0.0741 -0.22242 0.1112 -0.33363 0.18534 l 0.0741 0.11121 l 0.14828 -0.0371 l 0.11121 0.22241 c 0.1112 0.22242 0.51896 0.88966 0.5931 1.075 l -0.11121 0.11121 l 0.0741 0.11121 c 0.0741 -0.0371 0.18535 -0.11121 0.25949 -0.14828 c 0.0741 -0.0371 0.18534 -0.11121 0.25948 -0.14828 l -0.0741 -0.1112 l -0.14828 0.0741 c -0.0741 -0.11121 -0.18534 -0.25949 -0.25948 -0.40776 l -0.14827 -0.25948 c -0.11121 -0.22242 -0.22242 -0.37069 -0.25949 -0.44483 c 0.63017 0.55603 1.00086 0.81552 1.14914 0.96379 l 0.22241 -0.14827 l -0.29655 -1.48276 c 0.0371 0.0741 0.14828 0.22241 0.25949 0.44482 l 0.14827 0.25949 c 0.11121 0.14827 0.14828 0.29655 0.22241 0.44483 l -0.1112 0.1112 l 0.0371 0.11121 c 0.1112 -0.0741 0.22241 -0.14828 0.33362 -0.22241 c 0.11121 -0.0741 0.25948 -0.14828 0.37069 -0.22242 l -0.0371 -0.11121 z m 1.70517 -1.29741 c -0.1112 -0.11121 -0.22241 -0.22241 -0.33362 -0.37069 l -0.22241 -0.29655 c -0.11121 -0.11121 -0.22241 -0.25948 -0.29655 -0.40776 c 0.0371 -0.0371 0.0741 -0.11121 0.14827 -0.14828 c 0.18535 -0.14827 0.33362 -0.1112 0.44483 0 c 0.11121 0.14828 0.14828 0.33362 -0.0371 0.44483 c -0.0371 0.0371 -0.0741 0.0741 -0.11121 0.0741 l 0.0741 0.22242 c 0.0741 -0.0371 0.14828 -0.11121 0.22242 -0.14828 c 0.37069 -0.29655 0.37069 -0.66724 0.18534 -0.92672 c -0.18534 -0.22242 -0.48189 -0.25949 -0.77845 0 c -0.0741 0.0741 -0.14827 0.14827 -0.25948 0.22241 c -0.11121 0.11121 -0.22241 0.18534 -0.29655 0.25948 c -0.0741 0.0741 -0.18534 0.14828 -0.29655 0.22242 l 0.0741 0.0741 l 0.14827 -0.0741 c 0.11121 0.1112 0.22242 0.22241 0.33362 0.37069 l 0.29656 0.40775 c 0.1112 0.14828 0.22241 0.25949 0.29655 0.37069 l -0.11121 0.11121 l 0.0741 0.0741 c 0.11121 -0.0741 0.22242 -0.18534 0.33362 -0.25948 c 0.11121 -0.0741 0.22242 -0.14828 0.37069 -0.29655 l -0.0741 -0.0741 z m 2.92845 -2.66897 l 0.0741 0.0741 c -0.1112 0.0741 -0.18534 0.18535 -0.29655 0.29656 c -0.11121 0.1112 -0.18534 0.22241 -0.29655 0.29655 l -0.0741 -0.0741 l 0.0741 -0.11121 c -0.11121 -0.0741 -0.33362 -0.18534 -0.4819 -0.25948 l -0.40776 0.40776 l 0.25949 0.44482 l 0.1112 -0.0741 l 0.0741 0.0741 c -0.0741 0.0741 -0.14827 0.14828 -0.22241 0.22242 c -0.0741 0.0741 -0.14828 0.14827 -0.18535 0.22241 l -0.0741 -0.0741 l 0.0741 -0.11121 c -0.1112 -0.33362 -0.48189 -1.03793 -0.70431 -1.51982 c 0.0741 -0.11121 0.14828 -0.22242 0.18535 -0.33362 l 0.14827 -0.0741 l 0.66725 0.29655 c 0.29655 0.14827 0.74138 0.33362 0.88965 0.37069 z m -1.14914 0.11121 l -0.63017 -0.29655 l 0.33362 0.5931 z m 3.03966 -2.52069 l 0.0741 0.0741 c -0.11121 0.14828 -0.22241 0.29655 -0.29655 0.44483 c -0.33362 0 -0.77845 -0.0371 -1.03793 -0.0371 l -0.0741 0.11121 l 0.1112 0.1112 c 0.14828 0.11121 0.25949 0.18535 0.40776 0.25949 l 0.11121 -0.11121 l 0.11121 0.0741 c -0.0741 0.11121 -0.18535 0.22241 -0.25949 0.33362 c -0.0741 0.11121 -0.14827 0.22241 -0.25948 0.33362 l -0.11121 -0.0741 l 0.0741 -0.14828 c -0.1112 -0.1112 -0.22241 -0.18534 -0.37069 -0.29655 l -0.40775 -0.29655 c -0.14828 -0.11121 -0.25949 -0.18534 -0.40776 -0.29655 l -0.11121 0.11121 l -0.11121 -0.0741 c 0.0741 -0.0741 0.14828 -0.14828 0.18535 -0.25949 c 0.0741 -0.1112 0.14827 -0.18534 0.22241 -0.29655 c 0.0741 -0.11121 0.14828 -0.18534 0.22242 -0.29655 c 0.29655 -0.40776 0.55603 -0.37069 0.74137 -0.22241 c 0.18535 0.14827 0.22242 0.40775 0.11121 0.63017 c 0.18535 0 0.81552 -0.0371 0.92673 -0.0371 z m -1.37155 -0.14827 c -0.11121 -0.11121 -0.25948 -0.0741 -0.37069 0.1112 c -0.0741 0.0741 -0.11121 0.14828 -0.14828 0.18535 c 0.0741 0.0371 0.14828 0.14827 0.29655 0.22241 l 0.11121 0.0741 c 0.0371 -0.0371 0.0741 -0.0741 0.11121 -0.11121 c 0.14827 -0.18534 0.14827 -0.33362 0 -0.48189 z m 2.63189 -1.5569 c -0.33362 0.55603 -0.81551 0.70431 -1.29741 0.40776 c -0.44483 -0.25949 -0.5931 -0.77845 -0.25948 -1.33449 c 0.33362 -0.55603 0.77845 -0.70431 1.29741 -0.40775 c 0.44483 0.22241 0.59311 0.77844 0.25948 1.33448 z m -0.51896 -0.92673 c -0.33362 -0.18534 -0.66724 -0.14827 -0.85259 0.11121 c -0.18534 0.29655 -0.0371 0.59311 0.29655 0.81552 c 0.33363 0.18534 0.66725 0.14827 0.85259 -0.11121 c 0.18535 -0.29655 0.0371 -0.63017 -0.29655 -0.81552 z m -13.41897 10.49052 c -0.18534 0 -0.37069 0.18535 -0.37069 0.40776 s 0.18535 0.40776 0.37069 0.40776 c 0.22242 0 0.40776 -0.18535 0.40776 -0.40776 s -0.18534 -0.40776 -0.40776 -0.40776 z m -14.45689 -12.34396 c 0.22241 0 0.40776 -0.18535 0.40776 -0.37069 c 0 -0.22242 -0.18535 -0.40776 -0.40776 -0.40776 c -0.22242 0 -0.37069 0.18534 -0.37069 0.40776 c 0 0.18534 0.18534 0.37069 0.37069 0.37069 z m 28.98793 0 c 0.22241 0 0.40776 -0.18535 0.40776 -0.37069 c 0 -0.22242 -0.18535 -0.40776 -0.40776 -0.40776 c -0.18535 0 -0.37069 0.18534 -0.37069 0.40776 c -0.0371 0.18534 0.14827 0.37069 0.37069 0.37069 z" stroke-linecap="round" />
</g>
</svg>