<svg xmlns="http://www.w3.org/2000/svg" xml:space="preserve" id="Layer_1" x="0" y="0" style="enable-background:new 0 0 150 150" version="1.1" viewBox="0 0 150 150"><style>.st0{fill-rule:evenodd;clip-rule:evenodd;fill:#ff7369}</style><path d="M138.3 39.8c0 10.9-3.6 20.2-14.1 23.4l-23.4 9.4c-1.1.3-2.3 1.2-2.3 2.3 0 1.2 1.2 2 2.3 2.3l23.4 9.4c10.4 3.2 14.1 12.5 14.1 23.4v35.2C104.7 135.9 82 109.8 82 75s22.6-60.9 56.3-70.3v35.1zM11.7 39.8c0 10.9 3.6 20.2 14.1 23.4l23.4 9.4c1.1.3 2.3 1.2 2.3 2.3 0 1.2-1.2 2-2.3 2.3l-23.4 9.4C15.4 89.8 11.7 99.1 11.7 110v35.2C45.3 135.9 68 109.8 68 75S45.3 14.1 11.7 4.7v35.1z" class="st0"/></svg>