<svg xmlns="http://www.w3.org/2000/svg" viewBox="0 0 80 86"><path d="M55 18.2h-.7V5c.5 1.3.6 2.6.6 3.7zm-24.8-5.3c.7.3 1.6.4 2.5.5v-.6a13.2 13.2 0 0 1-2.4-.5c-1-.2-2-.4-2.9-.4-.4 0-1 0-1.3.2v.7c.3-.2.8-.2 1.3-.2.9-.1 1.8.1 2.8.3zm-7.6-.4c.5 0 1 0 1.3.2V12a3.6 3.6 0 0 0-1.3-.2c-1 0-1.9.2-2.9.4-.8.3-1.5.4-2.4.5v.6A14.9 14.9 0 0 0 20 13c1-.2 1.8-.4 2.7-.4zm0-1.6 1.3.2v-.7l-1.3-.2c-1 0-1.9.3-2.9.5a12 12 0 0 1-2.4.5v.6a13.6 13.6 0 0 0 2.6-.5c1-.2 1.8-.5 2.7-.4zm0 3.2c.5 0 1 0 1.3.2v-.7l-1.3-.2c-1 0-1.9.2-2.9.5-.8.2-1.5.4-2.4.4v.7l2.6-.5c1-.2 1.8-.5 2.7-.4zm0-4.8 1.3.2v-.7a3.6 3.6 0 0 0-1.3-.2c-1 0-1.9.2-2.9.4-.8.3-1.5.4-2.4.5v.6a14.9 14.9 0 0 0 2.6-.4c1-.2 1.8-.4 2.7-.4zm-4.2 47.6c-7.7-12.7-7.6-25-7.6-26.6V.3h58.4v30c0 1.6.2 14-7.5 26.6A42.8 42.8 0 0 1 40 75.1a43.4 43.4 0 0 1-21.6-18.2zM34 54.6l-1.6-1.3.9-1.8-2 .4-1-1.8-.8 1.8-2-.4.9 1.8-1.6 1.3 2 .5v2l1.6-1.3 1.5 1.3v-2zm8.3 12.7 2-1-2-.8.7-2-2 .7-.9-2-.8 2-2-.8.7 2-2 .9 2 .9-.8 2 2-.8 1 2 .8-2 2 .8zM38 44l-1.5 1.3 1.9.5v2l1.6-1.3 1.6 1.3v-2l2-.5-1.5-1.3.8-1.9-2 .4-.9-1.8-.8 1.8-2-.4zm7 12.8 1.1-1.2-1.7-.3-.8-1.6-.7 1.6-1.7.3 1.2 1.2-.3 1.8 1.5-.8 1.6.8zm5.7-6.1 1-1.6h-1.8l-.9-1.5-.8 1.5h-1.8l.9 1.6-1 1.6h1.9l.8 1.5.9-1.5h1.8zm13.7-37.5a2.5 2.5 0 0 0-1 1c-.3.5-.4.8-.4 1.2v.3l.7-.4.5-.6.2-1.1v-.4zm-6 9c.4.2 1 .2 1.5.2.6-.1 1-.4 1.3-.7-.4-.3-.9-.4-1.4-.3a3 3 0 0 0-1.4.7zm0-1c.2-.3.3-.8.3-1.3v-.1a3.4 3.4 0 0 0-1.1 1c-.3.3-.4.8-.4 1.2v.2c.5-.2 1-.5 1.2-1zm.6 0c.1 0 .2 0 .3-.2.3-.2.5-.5.6-.9l.2-.8-.2-.7-.7.8c0 .7 0 1.2-.2 1.7zm1.5-1.3.3-.2.4-1v-.2c0-.4-.2-.9-.4-1.3a2 2 0 0 0-.6 1c.3.7.3 1.1.3 1.7zm1-1.6c.2 0 .3 0 .4-.2l.1-.8V17a2.5 2.5 0 0 0-.7-1.3l-.2 1c.2.6.4 1 .4 1.6zm.8-1.8c0 .1 0 .1 0 0 .2 0 .2-.1.3-.3v-.1l-.2-1a2 2 0 0 0-1-1v.9c.5.6.8 1 1 1.5zm.3-1.8.2-.4c0-.3-.2-.7-.4-1a2 2 0 0 0-1.2-.8c0 .4 0 .8.2 1 .5.3 1 .7 1.2 1.2zm0-2.3a2 2 0 0 0-.7-1c-.4-.3-.7-.4-1.3-.5 0 .4.2.7.5 1 .5.1 1 .4 1.4.7v-.2zm-.7-1.5v-.4a2.2 2.2 0 0 0-2.3-1l.7 1c.6 0 1.2.1 1.6.4zm-.3 10a3 3 0 0 0 1.2-1c-.6-.1-1.1-.1-1.6 0a3 3 0 0 0-1 1l.7.1.7-.1zm1.3-1.8c.4-.3.7-.8 1-1.3a2.4 2.4 0 0 0-2.4 1.6h.8l.6-.3zm1.4-3.6c-.4.2-.9.4-1.3.8a3 3 0 0 0-.5 1.4l.8-.2.5-.5c.4-.4.5-1 .5-1.5zm-.4-4.7a3 3 0 0 0-.9 1.4v.6l.1.8.5-.5.4-.7v-.5c.1-.4 0-.7-.1-1zm-1.6-.6c0 .5.2 1 .5 1.4l.4-.7.1-.7c0-.5-.1-1-.4-1.5-.3.5-.6 1-.6 1.5zM61 8v.5c.1.5.4.9.8 1.3l.3-.8v-.2l-.1-.5a3 3 0 0 0-.9-1.4L61 8zm-.3.9-.9-.6c-.5-.1-1 0-1.5.1.3.3.6.6.9.7l1.6.1h.1s0-.2-.2-.3zm-1.4-3c0 .4 0 .8.2 1.2.2.5.6.8 1 1 0-.3 0-.5.2-.8-.1-.3-.1-.5-.3-.7a2.5 2.5 0 0 0-1-1l-.1.3zm-2 .2c.1.5.4 1 .8 1.2.4.3.9.4 1.3.5l-.4-.5-.2-.6-.2-.1c-.3-.4-.7-.5-1.4-.5zm-6.1 12.2c0 .4.3.9 1 .9h1.3a6.2 6.2 0 0 0-.3 1.8c0 1 .1 1.7.5 2.3-1-.2-1.8-.4-2.5-.8l-.2.4 2 .7s.5 0 .9.2a.6.6 0 0 0-.2.4c0 .3.3.5.6.5s.5-.2.5-.5a.6.6 0 0 0-.1-.4l.8-.2c.7-.1 1.4-.3 2-.7l-.1-.5c-.8.4-1.5.7-2.5.8a5.8 5.8 0 0 0 .5-2.2c0-.7-.1-1.4-.3-2h1.3c.7 0 1-.3 1-.8a.6.6 0 0 0-.6-.6.6.6 0 0 0-.6.6v.3c.1 0 .1.2-.1.2h-.8V8.8c0-1.3 0-3-.9-4.5l-.2-.5-.2.5a9.9 9.9 0 0 0-.9 4.5v9.9h-.8c-.2 0-.1-.2-.1-.2v-.3c0-.3-.2-.6-.5-.6-.2 0-.5.4-.5.7zm-1.7 1.2c-.1-.3-.4-.6-.7-.8l-.1.7.1.8c.1.4.3.6.6 1h.3a3.7 3.7 0 0 1-.2-1.7zm-.4-10a2.5 2.5 0 0 0-1.5.3l-.8.7v.4a3 3 0 0 1 1.6-.4l.7-1zm-.6 8.7a3 3 0 0 0-.5-.9 2 2 0 0 0-.4 1.2v.3c0 .4.1.7.4 1l.3.2c0-.7 0-1.1.2-1.8zm-1.8-.8.2.8.2.2h.1c0-.6.2-1.2.5-1.6 0-.4-.1-.7-.3-1a2 2 0 0 0-.7 1.3v.3zm.7-2.2v-1c-.5.3-.8.6-1 1-.2.4-.2.7-.2 1v.2l.1.3.1-.1a2.8 2.8 0 0 1 1-1.4zm-1.2-2.8v.3c.5-.4 1-.6 1.5-.8a2.6 2.6 0 0 0 .4-1c-.5.2-1 .3-1.4.6l-.5.9zm-.2 2v.3h.1c.3-.4.7-.8 1.3-1l.2-1.1a2 2 0 0 0-1.3.8 1.3 1.3 0 0 0-.3 1zm-.4 1.9c-.3-.4-.7-.6-1.3-.8.1.6.3 1 .6 1.4l.5.5.7.2c0-.5-.1-1-.5-1.3zm-.7 1.5c.1.5.4 1 .8 1.3l.6.3h.8c-.2-.4-.4-.9-.8-1-.3-.5-.9-.6-1.4-.6zm1 2.1c.4.5.7.8 1.2 1l.7.2.8-.1a3 3 0 0 0-1-1c-.6-.2-1.1-.2-1.6 0zm1.6 1.8c.4.4.9.7 1.4.7.5.1 1 0 1.5-.2a2.4 2.4 0 0 0-1.4-.7c-.5-.2-1 0-1.5.2zm4 .5V22a3 3 0 0 0-.3-1.3 4 4 0 0 0-1.2-1v.2c0 .5.2 1 .4 1.4.2.4.6.7 1.2.9zm-2-15a2.4 2.4 0 0 1-.4.6c.5 0 1-.2 1.4-.5.4-.3.7-.7.9-1.2-.5 0-1 .1-1.5.5l-.1.1-.3.6zm-1.5 0v1c.5-.3 1-.7 1-1.1.3-.4.4-.8.4-1.2l-.1-.4a2.5 2.5 0 0 0-1 1.1l-.3.7zm-.3 2s.1 0 0 0a4.3 4.3 0 0 1 1.8 0l.8-.7a2 2 0 0 0-1.5 0 1 1 0 0 0-.9.5l-.2.3zm-1.2-.4V9c.2.2.2.5.2.7.4-.3.7-.7.8-1.2V8l-.1-1a3 3 0 0 0-.9 1.3v.5zm-1 1.4v.7l.5.7c.2-.4.4-.8.4-1.4 0-.5-.2-1-.4-1.5-.4.5-.6 1-.6 1.5zm-.9 1.7.1.5.3.7.6.5.1-.8v-.6c-.2-.5-.5-1-1-1.4v1zm-.4 1.6c0 .4.1.8.4 1.2 0 .2.2.3.4.5.3 0 .5.2.7.4v-.3c0-.4 0-.8-.3-1.2a2.3 2.3 0 0 0-1.2-1zm-18.9 6.1c.6-.4 1.3-.5 2.1-.5 1 0 1.9.1 3 .5 1 .2 2 .5 3.2.4V6.2c-1.2.1-2.4-.2-3.4-.4a7 7 0 0 0-2.7-.4c-1.2 0-1.8.4-2.2.7v.5zm-8.8.3c1.1.1 2.2-.1 3.3-.4 1-.3 2-.5 2.9-.5.8 0 1.5.2 2 .6V6c-.3-.4-1-.7-2.1-.7-.9 0-1.7.1-2.6.4a10 10 0 0 1-3.5.4v.4zm-2 2.2h9.3c.3.4.7.7 1.2.7s1-.3 1.2-.7h9.4V6.6h-1.2l.1.3V21h-8.7c-.2.3-.3.3-.8.3-.4 0-.5 0-.7-.3h-8.8V7l.1-.3h-1.2zm3.4 31.2L40 33.4l22.3 20c1.5-2.8 2.5-5.5 3.4-8L40 22.2l-25.5 23a45.9 45.9 0 0 0 3.4 8zm4.7-37.6c.5 0 1 0 1.3.2v-.7c-.4-.2-.8-.2-1.3-.2-1 0-1.9.2-2.9.4-.8.3-1.5.4-2.4.5v.6c.9 0 1.7-.3 2.6-.4 1-.2 1.8-.4 2.7-.4zm0 1.6c.5 0 1 0 1.3.2v-.7a3.6 3.6 0 0 0-1.3-.2c-1 0-1.9.2-2.9.5-.8.2-1.5.4-2.4.4v.7l2.6-.5c1-.2 1.8-.5 2.7-.4zm0-9.6c.5 0 1 .2 1.3.3v-.7c-.4-.2-.8-.2-1.3-.3-1 0-1.9.3-2.9.5l-2.4.5v.6A14.9 14.9 0 0 0 20 8c1-.2 1.8-.4 2.7-.4zm7.6 3.7 2.5.5v-.7a13.2 13.2 0 0 1-2.4-.4c-1-.3-2-.5-2.9-.5-.4 0-1 0-1.3.2v.7l1.3-.2c.9-.2 1.8 0 2.8.4zm0-3.2 2.5.5V8a13.2 13.2 0 0 1-2.4-.4c-1-.3-2-.5-2.9-.5-.4 0-1 0-1.3.2V8l1.3-.2a7 7 0 0 1 2.8.4zm0 6.3 2.5.5v-.7a12 12 0 0 1-2.4-.4c-1-.3-2-.5-2.8-.5-.5 0-1 0-1.3.2v.7c.3-.2.8-.3 1.3-.3.8 0 1.7.3 2.7.5zm0-4.8c.7.3 1.6.4 2.5.5v-.6a13.2 13.2 0 0 1-2.4-.5c-1-.2-2-.4-2.9-.4-.4 0-1 0-1.3.2v.7c.3-.2.8-.2 1.3-.2a7 7 0 0 1 2.8.4zm0 6.4c.7.3 1.6.4 2.5.5V16l-2.4-.5c-1-.2-2-.5-2.9-.5-.4 0-1 .1-1.3.3v.7c.3-.2.8-.3 1.3-.3.9 0 1.8.2 2.8.4zm0 1.6 2.5.5v-.7a13.2 13.2 0 0 1-2.4-.4c-1-.3-2-.5-2.9-.5-.4 0-1 0-1.3.2v.7l1.3-.2c.9 0 1.8.2 2.8.4zm49.6 33-.1.5c-1.5 4.9-4 9.8-5.8 13l-.4.6-2.6-2.3-.3.5A53 53 0 0 1 44 85l-4 1.4-3.9-1.4A52.4 52.4 0 0 1 9.5 63l-.3-.6-2.6 2.4-.4-.7A79.7 79.7 0 0 1 .4 51v-.3L6.5 45l.8-.7.3 1a42 42 0 0 0 1.1 3.3l1.8-1.7.7-.6.3 1a51.5 51.5 0 0 0 5.2 11A44.5 44.5 0 0 0 40 77.1l1-.3a44.2 44.2 0 0 0 22.3-18.5 51.5 51.5 0 0 0 5.2-11l.3-1 2.5 2.3 1.1-3.4.3-1zM5.6 60.2l-1.2-7.4 3.4-3-1-3-5 4.5a61.7 61.7 0 0 0 3.8 9zm3 1.3C7.8 60 7 58.6 6.4 57.2l.9 5.4c.2-.3.7-.8 1.3-1.2zm65.1-4.2a42 42 0 0 1-2.1 4.2l1.3 1.2zm.5-4.2a490 490 0 0 1-4.8-4.4c-1.3 3.7-3 7.3-5 10.5a45.6 45.6 0 0 1-23 19l-1.4.5-1.3-.4a45.6 45.6 0 0 1-23-19.1c-2-3.2-3.6-6.8-5-10.5L6 53a51.6 51.6 0 0 0 34.2 32l3.5-1.2A52 52 0 0 0 74.2 53zm4.1-2-5-4.4-1 3 3.5 3-1.2 7.5c1.3-2.7 2.7-5.8 3.7-9zm-67 9.6v.3l-.2.1-.4-.7-.5-.8h.3l.2.1.8-.8-.6-1-1 .2v.3l-.1.1-.4-.6-.3-.6h.3l.2.2c.8 0 2.4-.3 3.4-.5l.6.6v.3l-1 1.2-1.4 1.6zm.6-2.1.9-1-1.4.3zm5.6 5.7.2-.1-.4-.6-.4-.5-.2.2.1.3-1.7 1.4 1-3-.3-.5-.4-.4-.1.1.1.3-.7.7-.9.6c-.3.2-.5.4-.9.5l-.2-.2-.1.2.3.5.4.5.2-.1-.2-.4 1.8-1.4-1 3c0 .1 0 .3.2.3l.2.4 1.1-.9.9-.6.8-.6zm.4 3c-.9.7-.8 1.9-.1 2.6.4.4 1 .7 1.8.8v-.4c-.4-.1-.8-.3-1-.6-.6-.5-.6-1.3 0-2 .7-.6 1.4-.3 1.7.1.3.3.4.6.4.9l-.1.3.1.2.8-.4c-.1-.5-.4-.8-.7-1.2-.8-1-2-1.2-3-.4zm7.5 7c-.7 1-1.8 1-2.9.2-1-.9-1.1-2-.4-3 .7-.8 1.9-.9 3 0 1 .9 1 2 .3 2.9zm-.8-2.3c-.5-.5-1.2-.3-1.8.3-.5.6-.5 1.3 0 1.8s1.3.2 1.8-.3c.5-.7.6-1.4 0-1.8zm6.3 5c-.3.4-.8.5-1.4.3l.3 2h.1l-.1.3-1-.5-.2-2.1-.2-.2-.2.3a3.2 3.2 0 0 0-.5.9l.3.2-.2.2-.7-.4-.8-.5.2-.2.3.1.6-.8.6-1 .5-.8-.2-.3.1-.2.6.4.7.4.7.4c.8.4.8 1 .5 1.5zm-1.2-1.4-.5-.2c0 .2-.2.4-.4.6l-.1.3.2.2c.5.3.9.3 1.1 0 .2-.4 0-.6-.3-.9zm5.9 4.2-.2 2.1.3.2-.1.2-.8-.4-.8-.3.1-.2h.3l.2-1-1.1-.5-.7.9.2.1v.3l-.7-.4-.5-.2v-.2h.4a25 25 0 0 0 2.5-2.4l.7.1.4.3zm-.8-1.4-1 1.1.9.4zm11.5 2.8-.5-1-.4-1-.4-.8.3-.2V78l-.8.4c-.3 0-.6.2-.8.3v.2h.4l.5.9.3.9.4 1H45l.1.3.8-.4.8-.3-.1-.2zm6.7-3.6-.6-.9-.5-1a3.2 3.2 0 0 1-.5-.8l.2-.2-.1-.2a7 7 0 0 1-.6.3l-.7.4.5 2.8c-.4-.3-1.8-1.4-2.1-1.8l-.6.4-.7.4.1.2h.3l.3.4 1.2 2.2-.2.3.1.2.6-.3.5-.3-.1-.3-.3.2-.6-.9-.3-.5-.5-1c1.3 1.2 2 1.8 2.4 2l.4-.2-.6-3.1.6.9.3.5.4 1-.2.2v.2l.8-.4.8-.5-.1-.2zm3.5-2.8-.7-.7-.4-.7a3.5 3.5 0 0 1-.6-.8l.3-.3c.4-.3.7-.3.9 0 .2.3.3.7 0 1h-.3l.1.5c.2 0 .4-.2.5-.3.8-.6.8-1.4.4-2-.4-.4-1-.5-1.6 0a3.4 3.4 0 0 1-.6.5l-.6.6-.6.5.1.1.3-.1.7.7.7.9.6.8-.2.2.1.2.7-.6.8-.6-.2-.2zm6.2-5.6.1.2-.6.6-.6.6-.2-.1.2-.2-1-.6-.9.9.6.9.2-.2.2.2-.5.5-.4.4-.1-.1.1-.3c-.2-.7-1-2.1-1.5-3.1l.4-.7.3-.2 1.4.6 1.9.8zm-2.4.3-1.3-.6.7 1.2zm6.4-5.3.1.1-.6 1L64 65l-.1.2.2.3.8.5.3-.2.2.1-.5.7a4.3 4.3 0 0 1-.6.7l-.2-.1.1-.3-.7-.7-.9-.6-.8-.6-.3.2-.2-.1.4-.6.4-.6.5-.6c.6-.9 1.2-.8 1.6-.5.4.3.4.9.2 1.3h2zm-3-.3c-.2-.3-.5-.2-.7.2l-.3.4.6.5.2.1.3-.2c.3-.4.3-.7 0-1zm5.6-3.3c-.7 1.2-1.7 1.5-2.7.9-1-.6-1.3-1.7-.6-2.8.7-1.2 1.7-1.5 2.8-.9.9.5 1.2 1.6.5 2.8zm-1-2c-.8-.3-1.5-.3-1.9.3-.4.6 0 1.2.7 1.7.7.4 1.4.3 1.7-.2.4-.7.1-1.4-.6-1.7zM40 80.6c-.3 0-.7.5-.7 1s.4.8.7.8c.5 0 .9-.4.9-.9s-.4-.8-.9-.8zM9.7 54.8c.4 0 .8-.4.8-.8a.9.9 0 0 0-.8-.9c-.5 0-.8.4-.8.9 0 .4.4.8.8.8zm60.9 0c.4 0 .8-.4.8-.8a.9.9 0 0 0-.8-.9c-.4 0-.8.4-.8.9-.1.4.3.8.8.8z"/></svg>