<svg xmlns="http://www.w3.org/2000/svg" xmlns:xlink="http://www.w3.org/1999/xlink" viewBox="0 0 27.65 28.44"><defs><linearGradient xlink:href="#a" id="b" x1="27.95" x2="2.46" y1="13.3" y2="4.02" gradientTransform="translate(.02 -.14)" gradientUnits="userSpaceOnUse"><stop offset=".12" stop-color="#fff"/><stop offset=".23" stop-color="#e0ede9"/><stop offset=".48" stop-color="#90bfb2"/><stop offset=".85" stop-color="#12755a"/><stop offset=".9" stop-color="#006b4e"/></linearGradient><linearGradient id="a" x1="-.37" x2="25.11" y1="14.71" y2="23.98" gradientUnits="userSpaceOnUse"><stop offset=".1" stop-color="#fff"/><stop offset=".23" stop-color="#dce2ea"/><stop offset=".51" stop-color="#8398b6"/><stop offset=".9" stop-color="#002b69"/></linearGradient><linearGradient xlink:href="#a" id="c" x1=".2" x2="27.63" y1="20.71" y2="20.71" gradientTransform="translate(.02 -.14)" gradientUnits="userSpaceOnUse"/></defs><path fill="url(#b)" d="M27.53 14.36v-5.5a9 9 0 0 0-4-7.54c-2.5-1.56-6.66-2-11.18-.69C6.13 2.46-.44 7.57.02 11.95c.87 7.51 26.6-5.69 27.51 2.41z"/><path fill="url(#c)" d="M27.63 15.28C26.78 7.18 1.03 20.51.23 13v8.63c0 5.37 7.4 8.5 15.24 6.16 7.63-2.29 12.55-8.36 12.16-12.5z"/></svg>
