<svg xmlns="http://www.w3.org/2000/svg" viewBox="0 0 467 600" width="467" height="600">
	<style>
		tspan { white-space:pre }
		.shp0 { fill: #000000 } 
	</style>
	<g id="レイヤー_2">
		<g id="レイヤー_1-2">
			<path id="Layer" class="shp0" d="M186.85,581.19c1.03,0.43 1.98,1.06 2.77,1.85c0.79,0.79 1.42,1.73 1.85,2.77c0.43,1.03 0.65,2.14 0.65,3.26c0,3.45 -2.08,6.56 -5.27,7.88c-3.19,1.32 -6.86,0.59 -9.3,-1.85c-2.44,-2.44 -3.17,-6.11 -1.85,-9.3c1.32,-3.19 4.43,-5.27 7.88,-5.27c1.12,0 2.23,0.22 3.26,0.65zM187.19,589.07c0,-5.55 -1.07,-7.69 -3.6,-7.69c-2.53,0 -3.66,2.14 -3.66,7.69c0,5.55 1.14,7.69 3.66,7.69c2.5,0 3.6,-2.14 3.6,-7.69z"/>
			<path id="Layer" class="shp0" d="M247.32,596.17l-5.9,-8.98l4.09,-5.32h2.24v-0.84h-5.71v0.84h2.21l-3.44,4.41l-2.92,-4.41h1.46v-0.84h-8.4v0.84h1.69l5.32,8.08l-4.8,6.23h-2.21v0.78h5.61v-0.78h-2.14l4.12,-5.35l3.53,5.35h-1.46v0.78h8.37v-0.78h-1.65z"/>
			<path id="Layer" class="shp0" d="M200.32,583.59v-2.56h-6.81v0.84h1.95v14.3h-1.95v0.81h8.46v-0.81h-1.78v-10.86c0.29,-0.62 1.78,-2.63 3.24,-2.63c0.29,-0.02 0.58,0.01 0.85,0.11c0.27,0.1 0.52,0.25 0.73,0.45c0.21,0.2 0.37,0.44 0.48,0.71c0.11,0.27 0.16,0.55 0.15,0.84v11.35h-1.78v0.84h8.5v-0.84h-1.95v-10.09c0.01,-0.65 -0.11,-1.29 -0.35,-1.89c-0.24,-0.6 -0.59,-1.15 -1.04,-1.62c-0.45,-0.47 -0.98,-0.85 -1.57,-1.11c-0.59,-0.26 -1.23,-0.41 -1.88,-0.43c-0.51,-0.03 -1.02,0.01 -1.52,0.12c-0.5,0.1 -0.98,0.27 -1.44,0.5c-0.46,0.23 -0.88,0.51 -1.26,0.84c-0.38,0.33 -0.72,0.72 -1.01,1.14v0z"/>
			<path id="Layer" class="shp0" d="M283.48,583.59v-2.56h-6.81v0.84h1.95v14.3h-1.95v0.81h8.72v-0.81h-2.04v-10.86c0.29,-0.62 1.78,-2.63 3.24,-2.63c0.29,-0.02 0.58,0.01 0.85,0.11c0.27,0.1 0.52,0.25 0.73,0.45c0.21,0.2 0.37,0.44 0.48,0.71c0.11,0.27 0.16,0.55 0.15,0.84v11.35h-1.78v0.84h8.5v-0.84h-1.91v-10.09c0.01,-0.65 -0.11,-1.29 -0.35,-1.89c-0.24,-0.6 -0.59,-1.15 -1.04,-1.62c-0.45,-0.47 -0.98,-0.85 -1.57,-1.11c-0.59,-0.26 -1.23,-0.41 -1.88,-0.43c-0.51,-0.03 -1.02,0.01 -1.52,0.12c-0.5,0.1 -0.98,0.27 -1.44,0.5c-0.46,0.23 -0.88,0.51 -1.26,0.84c-0.38,0.33 -0.72,0.72 -1.01,1.14v0z"/>
			<path id="Layer" class="shp0" d="M272.51,596.14v-24.62h3.31v-0.88h-13.17v0.81h3.53v24.68h-3.53v0.84h13.17v-0.84h-3.31z"/>
			<path id="Layer" class="shp0" d="M316.26,597.47c0.15,0 0.29,-0.02 0.44,-0.06c0.14,-0.03 0.28,-0.08 0.42,-0.14c0.13,-0.06 0.26,-0.14 0.38,-0.22c0.12,-0.09 0.23,-0.19 0.33,-0.29c0.1,-0.1 0.19,-0.21 0.27,-0.33c0.08,-0.12 0.14,-0.24 0.2,-0.37c0.05,-0.13 0.09,-0.27 0.12,-0.4c0.03,-0.14 0.04,-0.28 0.04,-0.42c0,-0.57 -0.23,-1.11 -0.63,-1.51c-0.4,-0.4 -0.95,-0.63 -1.51,-0.63c-0.57,0 -1.11,0.23 -1.51,0.63c-0.4,0.4 -0.63,0.95 -0.63,1.51c0,0.14 0.01,0.28 0.04,0.42c0.03,0.14 0.07,0.27 0.12,0.4c0.05,0.13 0.12,0.26 0.2,0.37c0.08,0.12 0.17,0.23 0.27,0.33c0.1,0.1 0.21,0.18 0.33,0.26c0.12,0.08 0.24,0.14 0.37,0.19c0.13,0.05 0.27,0.09 0.4,0.12c0.14,0.03 0.28,0.04 0.42,0.04"/>
			<path id="Layer" class="shp0" d="M222.86,596.69c0.73,0.02 1.46,-0.08 2.15,-0.29c0.7,-0.22 1.35,-0.55 1.94,-0.99c0.58,-0.44 1.09,-0.97 1.5,-1.57c0.41,-0.6 0.71,-1.27 0.9,-1.98h0.91c-0.22,0.85 -0.59,1.65 -1.09,2.38c-0.5,0.73 -1.11,1.36 -1.82,1.88c-0.71,0.52 -1.5,0.91 -2.34,1.16c-0.84,0.25 -1.72,0.36 -2.6,0.31c-1.14,0.01 -2.27,-0.21 -3.33,-0.63c-1.06,-0.42 -2.03,-1.04 -2.85,-1.83c-0.82,-0.79 -1.49,-1.73 -1.96,-2.77c-0.47,-1.04 -0.73,-2.16 -0.78,-3.3c0,-1.12 0.22,-2.23 0.65,-3.26c0.43,-1.03 1.06,-1.98 1.85,-2.77c0.79,-0.79 1.73,-1.42 2.77,-1.85c1.03,-0.43 2.14,-0.65 3.26,-0.65c1.08,-0.12 2.18,0 3.21,0.34c1.04,0.34 1.99,0.9 2.79,1.63c0.8,0.74 1.44,1.63 1.87,2.64c0.43,1 0.64,2.08 0.62,3.17h-12.16v0.75c0,5.77 1.95,7.69 4.48,7.69M222.02,581.35c-2.3,0 -3.44,1.52 -3.66,6.1h7.3c-0.03,-2.37 -0.19,-6.1 -3.6,-6.1"/>
			<path id="Layer" class="shp0" d="M311.33,592.38c-0.13,0.68 -0.39,1.33 -0.77,1.91c-0.37,0.58 -0.85,1.09 -1.41,1.49c-0.56,0.4 -1.19,0.7 -1.86,0.86c-0.67,0.17 -1.37,0.21 -2.05,0.12c-2.5,0 -3.6,-2.34 -3.6,-7.69c0,-5.35 1.14,-7.69 3.63,-7.69c0.33,-0.03 0.66,-0.02 0.99,0.03c0.33,0.05 0.65,0.13 0.96,0.24c0.31,0.11 0.61,0.26 0.88,0.44c0.28,0.18 0.54,0.39 0.77,0.62c0.45,0.55 -0.29,1.07 0,0.97c-0.15,0.1 -0.29,0.21 -0.42,0.34c-0.12,0.13 -0.23,0.28 -0.32,0.44c-0.09,0.16 -0.15,0.33 -0.2,0.5c-0.05,0.18 -0.07,0.36 -0.07,0.54c0.01,0.28 0.08,0.55 0.19,0.8c0.11,0.25 0.27,0.49 0.47,0.68c0.2,0.2 0.43,0.35 0.68,0.47c0.25,0.11 0.53,0.18 0.8,0.19c0.28,0.01 0.57,-0.04 0.83,-0.14c0.26,-0.1 0.5,-0.26 0.7,-0.46c0.2,-0.2 0.36,-0.44 0.46,-0.7c0.1,-0.26 0.15,-0.55 0.14,-0.83c0,-3.24 -4.05,-4.9 -6.71,-4.9c-2.24,0 -4.4,0.89 -5.99,2.48c-1.59,1.59 -2.48,3.74 -2.48,5.99c0,2.25 0.89,4.4 2.48,5.99c1.59,1.59 3.74,2.48 5.99,2.48c0.76,0.04 1.53,-0.05 2.26,-0.27c0.73,-0.22 1.42,-0.57 2.03,-1.04c0.61,-0.46 1.13,-1.03 1.55,-1.68c0.41,-0.65 0.71,-1.36 0.87,-2.11z"/>
			<path id="Layer" class="shp0" d="M255.2,593.81c-0.1,-0.1 -0.21,-0.19 -0.33,-0.27c-0.12,-0.08 -0.24,-0.14 -0.37,-0.2c-0.13,-0.05 -0.27,-0.09 -0.4,-0.12c-0.14,-0.03 -0.28,-0.04 -0.42,-0.04c-0.14,0 -0.28,0.01 -0.42,0.04c-0.14,0.03 -0.27,0.07 -0.4,0.12c-0.13,0.05 -0.26,0.12 -0.37,0.19c-0.12,0.08 -0.23,0.16 -0.33,0.26c-0.1,0.1 -0.19,0.21 -0.27,0.33c-0.08,0.12 -0.15,0.24 -0.2,0.37c-0.06,0.13 -0.1,0.27 -0.13,0.4c-0.03,0.14 -0.04,0.28 -0.05,0.42c0,0.14 0.02,0.28 0.04,0.42c0.03,0.14 0.07,0.27 0.13,0.41c0.06,0.13 0.12,0.26 0.2,0.37c0.08,0.12 0.17,0.23 0.27,0.32c0.1,0.1 0.21,0.19 0.33,0.26c0.12,0.08 0.24,0.14 0.37,0.19c0.13,0.05 0.27,0.09 0.4,0.12c0.14,0.03 0.28,0.04 0.42,0.04c0.09,0 0.17,-0.01 0.26,-0.02c0.09,-0.01 0.17,-0.03 0.26,-0.05c0.08,-0.02 0.17,-0.05 0.25,-0.08c0.08,-0.03 0.16,-0.07 0.24,-0.11c-0.15,0.21 -0.33,0.41 -0.53,0.58c-0.2,0.17 -0.42,0.32 -0.65,0.43c-0.23,0.12 -0.48,0.21 -0.74,0.27c-0.26,0.06 -0.52,0.09 -0.78,0.08l0,0.58c0.5,0 1,-0.1 1.46,-0.29c0.46,-0.19 0.89,-0.47 1.24,-0.83c0.36,-0.36 0.64,-0.78 0.83,-1.24c0.19,-0.46 0.29,-0.96 0.29,-1.46c0.01,-0.14 0,-0.28 -0.02,-0.42c-0.02,-0.14 -0.06,-0.28 -0.11,-0.41c-0.05,-0.13 -0.12,-0.26 -0.2,-0.37c-0.08,-0.12 -0.17,-0.22 -0.28,-0.32"/>
			<path id="Layer" class="shp0" d="M175.03,571.52v-0.84h-10.15l-5.22,15.63l-4.7,-15.63h-10.93v0.84h3.44v24.65h-3.44v0.84h8.08v-0.84h-3.44v-22.93l7.59,23.77h1.3l7.88,-23.77v22.93h-3.24v0.84h12.84v-0.84h-3.24v-24.65h3.24z"/>
			<path id="Layer" class="shp0" d="M150.06,471.15c5.85,0 11.64,1.15 17.04,3.39c5.4,2.24 10.31,5.52 14.45,9.65c4.13,4.13 7.41,9.04 9.65,14.45c2.24,5.4 3.39,11.19 3.39,17.04c0.03,18.02 -10.8,34.28 -27.44,41.21c-16.64,6.92 -35.81,3.14 -48.57,-9.57c-12.77,-12.72 -16.61,-31.88 -9.75,-48.54c6.86,-16.66 23.08,-27.55 41.1,-27.59M174.09,515.68c0,-30.32 -10.77,-42.16 -24.03,-42.16c-13.26,0 -24.03,11.68 -24.03,42.16c0,30.49 10.77,42.32 24.03,42.32c13.3,0 24.03,-12 24.03,-42.32z"/>
			<path id="Layer" class="shp0" d="M99.69,476.11v-2.69h-32.59l-16.77,50.3l-15.18,-50.3h-35.15v2.69h11.09v79.26h-11.09v2.66h26.01v-2.66h-11.12v-73.75l24.45,76.41h3.7l25.85,-77.68v75.02h-10.44v2.66h41.25v-2.66h-10.41v-79.26h10.41z"/>
			<path id="Layer" class="shp0" d="M366.47,536.89c0,18.49 -18.42,18.45 -18.42,18.45h-23.74v-41.74h8.56c8.56,0 10.22,0 10.22,14.66h2.4v-32.04h-2.4c0,14.63 -10.22,14.63 -10.22,14.63h-8.56v-34.77h21.63c21.63,0 18.45,0 18.45,18.32h2.66v-20.89h-73.71v2.66h10.44v79.3h-10.44v2.69h75.79v-21.15z"/>
			<path id="Layer" class="shp0" d="M377.1,558.03h28.93v-2.66h-28.93z"/>
			<path id="Layer" class="shp0" d="M458.31,555.37l-32.37,-50.85l18.52,-28.41h12.84v-2.69h-11.09v0h-4.54h-0.03h-13.3v2.69h11.55l-16.18,24.88l-15.83,-24.88h8.89v-2.69h-40.31v2.69h7.75l27.53,43.2l-23.51,36.13h4.54l21.24,-32.59l20.72,32.53h-8.85v2.66h40.18v-2.66h-7.75z"/>
			<path id="Layer" class="shp0" d="M260.29,473.51v2.66h11.09v48.88l-38.88,-51.54h-33.31v2.69h11.09v79.3h-11.09v2.66h25.94v-2.66h-11.09v-76.7l58.37,80.4h2.92v-83.09h11.06v-2.59h-25.94z"/>
			<path id="Layer" class="shp0" d="M377.04,406.22c17.45,7.17 16.64,38.37 -4.09,38.37h-94.86c-5.19,0 -10.99,-0.84 -13.39,-9.5c-1.46,-5.22 -27.37,-107.25 -28.31,-111.02c-0.94,-3.76 -2.63,-6.49 -5.48,-6.49c-5.81,0 -8.89,9.99 -12.97,19.72c-4.09,9.73 -36.32,96.1 -38.37,99.79c-0.48,1.05 -1.1,2.03 -1.85,2.91c-0.75,0.88 -1.62,1.65 -2.58,2.28c-0.96,0.64 -2.01,1.13 -3.11,1.48c-1.1,0.35 -2.24,0.53 -3.4,0.56h-92.88c-10.9,0 -9.83,-9.73 -3.41,-13.72c5.77,-3.57 18.42,-6.36 26.66,-8.98c4.77,-1.69 9.35,-3.85 13.69,-6.45c4.33,-2.6 8.4,-5.64 12.12,-9.06c3.73,-3.42 7.1,-7.2 10.07,-11.3c2.97,-4.09 5.52,-8.48 7.61,-13.08c2.09,-4.47 4.04,-9 5.85,-13.59c1.81,-4.59 3.47,-9.23 4.98,-13.93c1.51,-4.69 2.88,-9.43 4.1,-14.21c1.22,-4.78 2.28,-9.6 3.2,-14.44c2.53,-15.83 -4.48,-28.57 -15.31,-33.66c-95.7,-44.92 -91.88,-150.13 -49.23,-217.3c7.25,-11.44 15.92,-21.92 25.8,-31.19c9.88,-9.27 20.9,-17.24 32.78,-23.74c11.89,-6.5 24.55,-11.47 37.68,-14.78c13.13,-3.32 26.63,-4.96 40.18,-4.88c81.43,0 157.22,64.86 157.22,150.23c0,79.52 -43.29,108.65 -73.84,126.65c-12.03,7.07 -16.34,15.44 -13.52,27.76c7.04,31.04 31.43,75.92 39.47,86.17c8.04,10.25 30.19,13.07 35.22,15.15M282.73,223.39c41.12,11.97 85.94,-47.42 62.98,-111.02c-11.97,-33.21 -53.25,-75.37 -115.1,-75.37c-55.1,0 -99.11,37.07 -115.68,82.25c-20.33,55.33 -5.06,91.52 20.89,114.94c15.99,14.4 52.28,3.86 67.42,-34.15c0.75,-1.88 4.28,-2.46 5.64,-2.72c1.79,-0.31 3.57,-0.71 5.31,-1.22c1.75,-0.51 3.46,-1.12 5.14,-1.82c1.68,-0.7 3.31,-1.5 4.9,-2.39c1.59,-0.89 3.12,-1.87 4.59,-2.93c4.51,-3.28 4.05,-9.96 -0.91,-8.82c-4.02,0.91 -13.39,5.29 -18.13,6.65c-3.34,0.94 -3.26,-1.16 -3.02,-1.91c0.24,-0.75 0.47,-1.5 0.69,-2.25c0.22,-0.75 0.43,-1.51 0.64,-2.27c0.2,-0.76 0.4,-1.52 0.58,-2.29c0.18,-0.76 0.36,-1.53 0.52,-2.3c0.97,-4.8 -0.58,-6.49 -6.91,-3.24c-0.77,0.46 -1.57,0.88 -2.37,1.28c-0.81,0.39 -1.63,0.76 -2.47,1.09c-0.84,0.33 -1.68,0.63 -2.54,0.9c-0.86,0.27 -1.73,0.5 -2.6,0.7c-2.11,0 -6.19,-2.08 -4.99,-6.06c12,-40.12 24.49,-46.35 31.46,-48.29c14.98,-4.18 31.98,3.08 36.26,19.1c3.47,13.33 1.59,16.22 3.24,29.19c2.11,16.57 -2.43,45.18 24.45,52.99zM222.25,149.19c0,-0.78 -0.15,-1.54 -0.45,-2.26c-0.3,-0.72 -0.73,-1.37 -1.28,-1.91c-0.55,-0.55 -1.2,-0.98 -1.91,-1.28c-0.72,-0.3 -1.48,-0.45 -2.26,-0.45c-2.39,0 -4.54,1.44 -5.45,3.64c-0.91,2.21 -0.41,4.74 1.28,6.43c1.69,1.69 4.23,2.19 6.43,1.28c2.21,-0.91 3.64,-3.07 3.64,-5.45z"/>
		</g>
	</g>
</svg>