<svg xmlns="http://www.w3.org/2000/svg" width="40" height="40"><path fill="#3291f0" d="M19.623 29.706c-7.965-.612-10.553-4.979-11.275-8 0 0 1.557.421 3.592.7.006 0 .55.076.561-.069.021-.279-4.586-1.634-6.818-5.459-1.742-2.985-1.849-5.846-1.849-5.846 4.674.902 7.547 2.032 22.254 1.665 4.554 0 6.585.942 6.585 6.52 0 3.896-1.704 10.413-13.05 10.489M40 19.009c0-.73-.774-1.198-1.731-1.499l.019-.02s-.057-.004-.148-.019a8.797 8.797 0 00-.47-.124 1.588 1.588 0 01-.62-.387c-.2-.216-.32-.49-.394-.726-.607-4.046-2.902-7.748-10.568-7.748H12.772c-.45-.015-1.674-.086-4.574-.403-2.811-.307-5.327-1.193-5.35-1.201L.378 6 .073 8.62c-.037.319-.837 7.71 3.902 11.461l-.004.043c-.182 1.985.577 6.314 4.694 9.815 8.925 7.59 21.054 2.826 24.157-.513 1.942-2.09 3.335-4.558 3.816-7.52.07-.247.195-.55.412-.785.094-.102.206-.183.322-.25.312-.08.622-.173.915-.281h.001c.948-.35 1.712-.856 1.712-1.581m-11.67-3.784c-1.034 0-1.73.64-1.73 1.822 0 1.1.696 1.722 1.73 1.722 1.013 0 1.748-.661 1.748-1.742 0-1.182-.616-1.802-1.749-1.802" opacity=".6" fill-rule="evenodd"/></svg>