<svg xmlns="http://www.w3.org/2000/svg" viewBox="0 0 64.1 106.8"><style>.st0{fill:#343741}.st2{fill:#8bd3e6}.st3{fill:#0084d4}</style><path transform="translate(-2 -.6)" style="fill:none" d="m30 56.6 8.1-2.6-8.1-2.6-8.1 2.6z"/><path class="st2" d="M64.1 20.8 0 0v18.2l36.1 11.7zM0 23.5v18.1l28-9zM28 50.8l8.1 2.6 28-9.1-8.1-2.7zM28 74.2l8.1 2.7 28-9.1-8.1-2.7zM28 56l-8.1-2.6L0 59.8v5.3z"/><path class="st0" d="m0 83.3 28-9.1-28-9.1zM36.1 53.4 28 56l28 9.1 8.1-2.6z"/><path class="st3" d="m64.1 44.3-28 9.1 28 9.1zM0 65.1l28 9.1 28-9.1L28 56z"/><path class="st0" d="M36.1 76.9 0 88.6v18.2L64.1 86z"/><path class="st3" d="m64.1 67.8-28 9.1 28 9.1z"/><path class="st0" d="M36.1 29.9 28 32.6l28 9 8.1-2.6zM19.9 53.4l8.1-2.6-28-9.2V47z"/><path class="st3" d="m64.1 20.8-28 9.1 28 9.1zM0 41.6l28 9.2 28-9.2-28-9zM0 59.8l19.9-6.4L0 47z"/></svg>