<svg xmlns="http://www.w3.org/2000/svg" viewBox="0 0 322.3 444.6"><path d="M309.6 406.2c17.5 7.2 16.7 38.4-4 38.4h-95c-5 0-10.9-.8-13.3-9.5-9.5-37-19-74-28.3-111-1-3.8-2.6-6.5-5.5-6.5-5.8 0-8.9 10-13 19.7-4 9.7-36.3 96.1-38.3 99.8a12.1 12.1 0 0 1-11 7.2H8.4c-11 0-9.9-9.7-3.5-13.7 5.8-3.6 18.5-6.4 26.7-9a76 76 0 0 0 43.5-39.9 239.5 239.5 0 0 0 18.1-56.1c2.6-15.9-4.5-28.6-15.3-33.7-95.7-45-91.9-150.1-49.2-217.3A160.8 160.8 0 0 1 165.1 0c81.5 0 157.2 65 157.2 150.2 0 79.6-43.2 108.7-73.8 126.7-12 7-16.3 15.4-13.5 27.8 7 31 31.4 75.9 39.5 86.1 8 10.3 30.1 13 35.2 15.2m-94.4-182.6c41.2 12 86-47.4 63-111-12-33.2-53.2-75.4-115-75.4-55.2 0-99.2 37-115.8 82.2-20.3 55.4-5 91.6 21 115 16 14.4 52.2 3.9 67.3-34.2.8-1.8 4.3-2.4 5.7-2.7 7.2-1.2 14-4 20-8.3 4.4-3.3 4-10-1-8.9-4 1-13.4 5.3-18 6.7-3.5 1-3.4-1.2-3-2 1-3 1.6-5.8 2.3-9 1-4.8-.6-6.5-7-3.3-3 1.8-6.4 3.2-9.9 4-2 0-6.2-2-5-6 12-40.2 24.5-46.4 31.5-48.4 15-4.1 32 3.1 36.2 19.2 3.5 13.3 1.6 16.2 3.3 29.1 2 16.6-2.5 45.2 24.4 53zM155 149.2c0-2.4-1.4-4.6-3.7-5.5-5.3-2.3-10.4 3.8-7.2 8.7a5.9 5.9 0 0 0 10.8-3.2z"/></svg>