<svg xmlns="http://www.w3.org/2000/svg" class="h-25" height="26" width="26"><path d="M18.751 10.41c-1.4-6.08-4.32-7.7-5.06-8.84-.31-.51-.58-1.03-.81-1.57-.04.54-.11.88-.58 1.29-.94.82-4.91 4.01-5.25 10.92-.31 6.44 4.81 10.41 5.49 10.82.52.25 1.15 0 1.46-.23 2.47-1.67 5.84-6.11 4.75-12.39" fill="#10aa50"/><path d="M12.991 19.5c-.13 1.58-.23 2.5-.57 3.4 0 0 .23 1.51.38 3.1h.56c.13-1.12.33-2.24.6-3.34-.71-.33-.94-1.77-.97-3.16z" fill="#b8c4c2"/><path d="M14.071 22.75c-.69-.32-.89-1.81-.92-3.2.17-2.3.22-4.6.15-6.91-.04-1.2.02-11.18-.3-12.64.22.49.47.97.74 1.44.74 1.15 3.63 2.77 5.01 8.88 1.08 6.29-2.24 10.74-4.68 12.43z" fill="#12924f"/></svg>