<svg xmlns="http://www.w3.org/2000/svg" width="51.587" height="51.587"><defs><path id="a" d="M35.946.114H0v20.64h35.946z"/><path id="b" d="M25.396.114v20.64H.048V.113z"/></defs><g fill="#ee6638" fill-rule="evenodd"><path d="M4.49 18.3c3.519 3.775 9.917 1.482 9.917 1.482s-5.013 1.78-7.257 1.014l.314.352c3.2 2.742 5.608 4.123 8.479 5.161l.902.197c1.748.268 3.362-.593 4.463-1.343 0 0 4.29-2.531 6.513-3.015 1.298-.282 2.697-.645 2.697-.645l.068.003s-6.499 1.394-10.852 5.972l.613.175c5.465 1.081 9.252-.112 9.252-.112 3.204-3.493 6.302-3.88 6.302-3.88-4.497 2.751-4.183 4.627-4.183 4.627 4.447-5.83 10.748-.858 10.748-.858-1.612-.681-2.507.027-2.507.027 3.383-.61 5.776 3.3 5.776 3.3.926 1.08.391 1.658.978.802.49-.013-.153-.588-.153-.588l-3.302-3.694c-1.363-2.344-2.966-4.224-4.686-5.731l-.055.295c-.068.787.972 2.236.972 2.236-2.267-1.832-2.022-3.438-2.022-3.438a22.6 22.6 0 00-3.423-2.17l-.32-.158c-.821 1.517 2.06 4.098 2.06 4.098l-.9-.407s-2.634-2.564-1.938-4.094l-.291-.133s-1.385-.538-2.057-.763l-.765-.302c.66 3.005 3.483 4.852 3.483 4.852l-.568-.18s-2.745-1.864-3.356-4.627l-.035-.131-.474-.13c-5.124-1.358-9.3-.871-9.3-.871l-1.141.06-.63.017c1.829 3.108 6.065 4.082 6.065 4.082s-4.742-.247-7.642-4.015l-.119.001-.564.02c-1.64.052-2.502.028-2.502.028l-2.251-.153-1.243-.144c1.19 1.915 5.064 3.438 5.064 3.438s-3.203-.584-6.014-3.461l-.33-.024a31.59 31.59 0 01-2.258-.31s.758 1.69 2.208 2.657c0 0-1.787-.957-2.637-2.656l-.047-.092C1.099 14.19 0 12.693 0 12.693c1.104 1.604 1.945 3.354 3.348 4.34 1.696 1.193 3.455 1.148 3.455 1.148s-1.705.247-3.086-.724c-.358-.254.585.645.881.956M51.425 36.188c-.365-.143-.131-.468-.131-.468.04-.04 0-.068 0-.068-.348-.126-.112-.428-.112-.428-.047.047-.15.023-.15.023-.337-.029-.254-.31-.254-.31a.58.58 0 01.368-.369c.082-.013 0-.068 0-.068-.097 0-.166.086-.166.086a.559.559 0 01-.307.153c-.24.058-.132-.353-.132-.353 0-.097.212-.421.212-.421l.267-.43c.09-.09.029-.198.029-.198-.12-.057-.166.166-.166.166-.114.49-.398.678-.398.678-.109 0-.109.04-.109.04-.051.21-.177.09-.177.09 0-.09-.08-.079-.08-.079-.222.046-.31-.076-.31-.076l-.26-.26c-.137-.057-.081-.361-.081-.361 0-.185-.106-.107-.106-.107-.046-.296-.234-.125-.234-.125-.228.228-.34-.068-.34-.068-.157-.158-.108-.493-.108-.493-.025-.14-.111-.111-.111-.111-.085 0 0 .182 0 .182l.114.392c.289.76-.152 1.048-.152 1.048-.304.304-.437.149-.437.149l-.08-.08c-.136-.014-.249-.175-.249-.175l-.28-.394c-.17-.256-.398-.068-.398-.068-.228.21.143.496.143.496.24.194.24.102.473.513.233.41-.274.456-.274.456-.12.017-.023.074-.023.074.126.011.132.211.132.211.01.148-.189.245-.189.245-.091.017-.057.092-.057.092.132.205-.011.461-.011.461-.211.274-1.072.262-1.072.262-.325.023-1.169-.102-1.169-.102-.222-.006-.205.12-.205.12-.068.233.303.33.303.33.444.102 1.071-.114 1.071-.114.684-.108.707-.08.707-.08.194.012.034.148.034.148l-.325.177c-.228.126-.45.04-.45.04-.091-.04-.08.034-.08.034.211.182.496.063.496.063l.353-.131c.542-.234.565.062.565.062.017.075-.063.206-.063.206.086.028.166.193.166.193.13.234-.08.53-.08.53-.111.112-.126.229-.126.229 0 .125-.22.282-.22.282-.073.151.075.074.075.074a27.567 27.567 0 01.168-.168c.177-.063.257-.17.257-.17.097-.15.245-.26.245-.26.21-.146.174 0 .174 0-.032.145.093.094.093.094.035-.035.115-.04.115-.04.056.12.182 0 .182 0 .21-.132.37.13.37.13.092.166.251.103.251.103.206 0 .126.126.126.126-.097.165.097.188.097.188.17 0 .08-.165.08-.165-.052-.132.047-.137.047-.137h.215c.114 0 .074.074.074.074-.029.085.057.148.057.148.08.023.068.125.068.125-.068.217.069.274.069.274.085.057.057-.057.057-.057-.109-.083.04-.205.04-.205.09-.091-.023-.182-.023-.182-.137-.137.182-.285.182-.285.188 0 .143-.143.143-.143.042-.151.21-.103.21-.103.223.075.286-.182.286-.182 0-.16.09-.29.09-.29.07-.035.118-.018.149.008-.055-.095-.051-.203-.051-.203 0-.256.41-.21.41-.21.103 0 .04-.04.04-.04-.33-.172-.325-.377-.325-.377 0-.307.268-.33.268-.33s.365.051 0-.091"/></g></svg>