<svg xmlns="http://www.w3.org/2000/svg" id="Layer_1" data-name="Layer 1" version="1.1" width="78.271" height="78.271"><defs id="defs2198"><style id="style2196">.cls-1{fill:#ce1141}</style></defs><g id="g6634" transform="translate(-7.904 -40.48)"><path class="cls-1" d="M7.904 66.67h8l6.06 17.8h.07l5.74-17.8h8v25.89h-5.32V74.21h-.07l-6.35 18.35h-4.38l-6.38-18.17v18.17h-5.37z" id="path2202"/><path class="cls-1" d="M44.55 83.966c0 3.44 2.68 4.78 5.73 4.78 2 0 5-.58 5-3.22s-3.88-3.27-7.69-4.28c-3.81-1.01-7.68-2.5-7.68-7.36 0-5.29 5-7.83 9.68-7.83 5.4 0 10.37 2.36 10.37 8.34h-5.51c-.18-3.12-2.39-3.92-5.11-3.92-1.82 0-3.92.76-3.92 2.94 0 2 1.23 2.25 7.72 3.91 1.89.48 7.69 1.67 7.69 7.54 0 4.75-3.74 8.31-10.77 8.31-5.73 0-11.09-2.83-11-9.21z" id="path2220"/><path d="M86.174 82.466c0 7-4.13 10.4-11.06 10.4-6.93 0-11-3.37-11-10.4v-16.1h5.67v16.1c0 2.82.73 5.62 5.33 5.62 4.06 0 5.37-1.78 5.37-5.62v-16.1h5.69z" id="path2230" fill="#231f20"/></g></svg>