<svg xmlns="http://www.w3.org/2000/svg" height="50" width="50" style="background:#006be5;fill:#fff"><path d="M35.8 29.7c-.4 0-.6-.1-.7-.2s-.2-.3-.2-.7c0-.3.1-.7.2-1.3L36 23l.2-.7c.1-.4.1-.7.2-1.1 0-.3.1-.6.1-1 0-1.1-.3-1.9-.9-2.4-.7-.5-1.4-.8-2.3-.8s-1.7.2-2.4.5c-.8.3-1.6.9-2.4 1.8-.1-.8-.4-1.4-.9-1.7-.6-.4-1.2-.6-2-.6-1.7 0-3.3.7-4.8 2.2-.1-.5-.4-1-.8-1.3-.7-.6-1.6-.9-2.8-.9-.9 0-1.7.2-2.4.6-.4.1-.7.3-1 .5l-.8 3.6.2-.2c.2-.3.5-.5.8-.8.3-.2.6-.4.9-.5.3-.1.7-.2 1-.2.2 0 .4.1.6.3.2.2.3.5.3.9 0 .2 0 .5-.1.9v.2l-2.2 10.3h3.9l2.1-10c.5-.8 1.1-1.3 1.6-1.7.5-.4 1.1-.6 1.6-.6.3 0 .6.1.7.2.1.1.2.3.2.6 0 .4-.1.9-.2 1.5l-2.1 10H26l2.1-10c.4-.7 1-1.3 1.5-1.7.6-.4 1.1-.6 1.6-.6.4 0 .6.1.7.2.1.1.2.3.2.7 0 .3-.1.7-.2 1.3l-.4 2.2-.7 3.1c-.1.4-.1.7-.2 1.1 0 .3-.1.6-.1 1 0 1.1.3 1.9.9 2.4s1.3.7 2.2.7 1.7-.2 2.4-.5h.1l.7-3.1c-.1.1-.6.3-1 .3z"/></svg>