<svg xmlns="http://www.w3.org/2000/svg" viewBox="0 0 224.2 181.2"><path fill="#08112e" fill-rule="evenodd" d="M217.2 142.1h-14.4a7.2 7.2 0 0 1-7.2-7.2V36.4a7 7 0 0 0-7.2-7h-38.8a7 7 0 0 0-7.2 7v84c0 4-3.2 7.2-7.2 7.2h-17.3a7.2 7.2 0 0 1-7.2-7.2V7c0-3.9-3.3-7-7.2-7H63.2A7 7 0 0 0 56 7v99.3c0 4-3.2 7.2-7.2 7.2H7.2a7 7 0 0 0-7.2 7V174a7 7 0 0 0 7.2 7.1h52.3a7 7 0 0 0 7-7v-113c0-4 3.4-7 7.3-7h18.7c4 0 7.2 3.2 7.2 7v113c0 4 3.3 7 7.2 7h38.9a7 7 0 0 0 7-7V89c0-4 3.4-7.2 7.3-7.2h17.4c4 0 7.2 3.2 7.2 7.2v85c0 4 3.2 7.2 7.2 7.2h25c4 0 7.3-3.2 7.3-7.1v-25a7 7 0 0 0-7.2-7"/></svg>