<?xml version="1.0" standalone="no"?>
<!DOCTYPE svg PUBLIC "-//W3C//DTD SVG 20010904//EN"
 "http://www.w3.org/TR/2001/REC-SVG-20010904/DTD/svg10.dtd">
<svg version="1.0" xmlns="http://www.w3.org/2000/svg"
 width="649.000000pt" height="96.000000pt" viewBox="0 0 649.000000 96.000000"
 preserveAspectRatio="xMidYMid meet">
<metadata>
Created by potrace 1.16, written by Peter Selinger 2001-2019
</metadata>
<g transform="translate(0.000000,96.000000) scale(0.100000,-0.100000)"
fill="#000000" stroke="none">
<path d="M3483 946 c-61 -20 -99 -51 -122 -99 -29 -59 -27 -120 4 -173 27 -47
92 -84 243 -139 109 -40 149 -89 130 -159 -17 -66 -99 -105 -183 -86 -59 13
-91 42 -140 125 -9 15 -16 16 -53 6 -23 -7 -42 -15 -42 -19 0 -4 15 -32 33
-62 64 -107 167 -154 295 -132 132 22 192 88 192 213 0 111 -44 150 -260 231
-102 38 -140 71 -140 123 0 71 83 118 169 95 50 -13 84 -41 105 -85 17 -36 26
-38 78 -26 l27 6 -20 45 c-40 90 -110 138 -212 145 -38 3 -78 0 -104 -9z"/>
<path d="M5320 620 c0 -227 4 -347 11 -363 18 -39 61 -53 152 -48 24 1 27 5
27 36 0 31 -3 35 -26 35 -14 0 -34 5 -45 10 -18 10 -19 25 -19 340 l0 330 -50
0 -50 0 0 -340z"/>
<path d="M0 580 l0 -370 45 0 45 0 2 307 3 308 74 -245 c40 -135 82 -273 93
-308 l19 -63 37 3 37 3 92 305 92 305 0 -307 1 -308 50 0 50 0 0 370 0 371
-76 -3 -76 -3 -83 -274 c-46 -150 -85 -275 -88 -277 -2 -2 -41 121 -88 274
l-84 277 -73 3 -72 3 0 -371z"/>
<path d="M3970 845 l0 -85 -40 0 -40 0 0 -40 0 -40 40 0 40 0 0 -213 c0 -200
1 -215 20 -232 23 -21 85 -34 129 -27 28 4 31 8 31 38 0 30 -3 34 -26 34 -14
0 -34 5 -45 10 -18 10 -19 23 -19 200 l0 190 45 0 45 0 0 40 0 40 -45 0 -45 0
0 85 0 85 -45 0 -45 0 0 -85z"/>
<path d="M890 757 c-52 -17 -114 -84 -135 -148 -21 -63 -23 -178 -5 -235 36
-110 113 -167 226 -166 145 1 226 101 227 282 0 67 -4 96 -22 137 -51 117
-168 169 -291 130z m139 -82 c64 -32 98 -173 68 -276 -41 -139 -177 -158 -241
-34 -30 58 -29 182 1 245 36 73 106 100 172 65z"/>
<path d="M1520 761 c-47 -10 -73 -25 -104 -62 l-26 -31 0 46 0 46 -45 0 -45 0
0 -275 0 -275 45 0 45 0 0 146 c0 80 5 165 11 190 16 62 63 110 122 125 l47
11 0 44 c0 24 -3 43 -7 43 -5 -1 -24 -4 -43 -8z"/>
<path d="M1748 754 c-59 -18 -120 -84 -139 -151 -8 -27 -14 -85 -13 -131 1
-108 35 -181 108 -230 42 -28 57 -32 111 -32 50 0 70 5 99 25 l36 24 0 -60 c0
-55 -3 -64 -31 -90 -17 -15 -46 -31 -65 -35 -36 -7 -145 10 -176 27 -16 9 -18
4 -18 -35 0 -44 1 -45 38 -55 48 -14 193 -14 229 0 15 5 41 22 57 37 54 51 56
64 56 402 l0 310 -34 0 c-28 0 -35 -4 -40 -26 l-7 -27 -23 22 c-43 41 -109 50
-188 25z m135 -75 c12 -6 32 -21 45 -32 21 -19 22 -28 22 -155 l0 -134 -33
-33 c-66 -66 -159 -52 -201 30 -29 56 -30 202 -2 259 33 65 111 95 169 65z"/>
<path d="M2305 761 c-16 -4 -44 -15 -61 -24 -32 -17 -84 -71 -84 -88 0 -5 16
-17 36 -26 l36 -18 20 28 c63 87 207 71 211 -23 l2 -34 -60 -8 c-172 -22 -265
-92 -265 -201 0 -120 100 -188 230 -157 28 7 60 20 72 30 22 17 23 17 51 -6
18 -15 41 -24 63 -24 32 0 34 2 34 34 0 21 -6 36 -15 40 -13 4 -15 33 -15 175
0 204 -9 238 -74 276 -45 27 -132 39 -181 26z m165 -330 c0 -61 -3 -71 -27
-96 -85 -85 -203 -66 -203 32 0 77 45 104 223 132 4 0 7 -30 7 -68z"/>
<path d="M2877 756 c-22 -8 -50 -24 -63 -37 l-24 -22 0 31 c0 32 -1 32 -50 32
l-50 0 0 -275 0 -275 50 0 50 0 0 205 0 204 46 32 c25 17 63 33 84 36 32 5 43
1 64 -20 l26 -26 0 -216 0 -215 45 0 45 0 0 228 c0 207 -2 230 -20 259 -36 59
-130 86 -203 59z"/>
<path d="M4382 761 c-46 -12 -104 -53 -124 -88 l-17 -30 36 -17 36 -17 28 30
c31 35 66 51 109 51 61 0 106 -41 98 -91 -3 -21 -11 -24 -82 -35 -180 -28
-273 -125 -236 -247 24 -81 105 -126 199 -112 52 8 76 19 109 48 18 17 22 18
22 4 0 -23 39 -47 77 -47 31 0 33 2 33 34 0 18 -7 39 -15 46 -12 10 -15 44
-15 190 0 167 -1 179 -22 210 -13 18 -40 42 -60 52 -42 22 -128 31 -176 19z
m168 -334 c0 -83 -12 -102 -82 -132 -59 -24 -92 -20 -122 16 -68 80 3 161 159
182 17 2 33 5 38 6 4 0 7 -32 7 -72z"/>
<path d="M4965 759 c-16 -7 -45 -22 -62 -36 l-33 -24 0 30 c0 30 -1 31 -45 31
l-45 0 0 -275 0 -275 45 0 45 0 0 198 0 198 28 26 c62 58 136 74 172 38 19
-19 20 -33 20 -240 l0 -220 51 0 50 0 -3 229 c-3 214 -4 232 -24 257 -11 15
-31 36 -45 46 -30 23 -113 31 -154 17z"/>
<path d="M5710 758 c-88 -25 -146 -112 -157 -235 -7 -85 17 -184 55 -233 55
-69 158 -99 265 -77 42 9 101 55 122 97 13 26 13 27 -22 44 l-35 17 -37 -40
c-77 -83 -190 -59 -236 51 -8 21 -15 49 -15 63 l0 25 181 0 182 0 -5 78 c-5
87 -31 148 -75 180 -55 39 -148 52 -223 30z m155 -90 c29 -23 55 -74 55 -108
0 -19 -6 -20 -136 -20 l-136 0 7 33 c18 82 58 116 136 117 33 0 54 -6 74 -22z"/>
<path d="M6060 752 c0 -5 41 -124 90 -265 50 -141 90 -264 90 -274 0 -10 -11
-38 -23 -63 -27 -54 -76 -83 -124 -76 -32 5 -33 4 -33 -35 l0 -39 56 0 c31 0
70 7 87 15 37 17 88 89 111 155 52 152 176 550 176 569 0 20 -4 22 -42 19
l-41 -3 -53 -179 c-29 -98 -56 -186 -59 -195 -5 -10 -27 41 -61 139 -93 266
-79 240 -130 240 -24 0 -44 -4 -44 -8z"/>
</g>
</svg>
