<svg xmlns="http://www.w3.org/2000/svg" viewBox="0 0 144 166.6"><path fill="#18453b" d="m53.5 66.9-12-13.7a36 36 0 0 0-5.2 5.4l14.1 11.1 3.1-2.8zm-23.2 1 15 7.5 2.4-3-13.9-10.5a27.3 27.3 0 0 0-3.5 6zm30-5-9-16.3c-3.4 1.6-5.6 3.4-6.6 4.1l12 14.3 3.5-2.1zM18.4 87.3a61.2 61.2 0 0 1 30-45.3 80 80 0 0 1 73.4-2.7l13-27.8C77.8-19.1 20.2 17.8 7 48.9c-14.7 34 .4 61.3 2.3 72.2 4.8 27.7-7.4 33.7-9.1 36 7.9-.5 12.6-6.2 16.6-12.8a47 47 0 0 0 5-19c1.7-12.2-3.6-25.7-3.2-38zM80 37.6l-.5 20 2 .2c.3-1 1.1-7.8 7-12.8 6.5-5.6 15-5 15-5.1A64 64 0 0 0 80 37.6zm44.4 52.5a40.5 40.5 0 0 0-31.5-25A43 43 0 0 0 69 66a39 39 0 0 0-22.8 22.5c-7.8 17.8 3.3 31.4 3.3 45.9.4 5.2-2.6 15.8-2.2 15.8 14.3-2 23.9-6.6 36.2-8.8 8.4 7.4 37 24.2 43.3 25 .4.1-7.3-24.9-5.7-52.4-7.3 1.1-16.6-2-22-8 7.2-10.3 33.4-9.2 29.6 18.6 0 .4 15.5 3 15.2 2.7-9.8-12-13.9-23.3-19.6-37.3zM26 78.2l15.6 3c.4-1.1 1-2.1 1.6-3.4L28 72a31 31 0 0 0-2 6.2zm-1 4.5c-1.2 8.3-1.3 16-.6 20 0 0 1.2-7 5.2-11 3.5-3.4 8-4.1 9.5-4 0 0 .8-2.7.7-2.8l-14.7-2.2zM74.9 58l.4-19.8c-.1.2-4.6.8-8.4 1.9l4 18.8 4-.9zm-7.2 2-5.1-18.4c-2.8.9-6.7 2.5-7.6 3.1l8.4 16.6 4.3-1.4z"/></svg>
