<svg xmlns="http://www.w3.org/2000/svg" viewBox="0 0 144 166.59" style="enable-background:new 0 0 144 166.59" xml:space="preserve"><switch><g><path d="M53.52 66.89 41.48 53.2c-2.72 2.36-3.54 3.42-5.19 5.43L50.43 69.7c.08-.08 3.09-2.81 3.09-2.81zm-23.25.95 14.99 7.55c.04-.05 2.44-3.1 2.48-3.07l-13.9-10.44a27.303 27.303 0 0 0-3.57 5.96zm29.95-4.96L51.28 46.6c-3.42 1.65-5.61 3.42-6.61 4.13l12.01 14.23c.02.16 3.46-1.93 3.54-2.08zM18.55 87.31c1.32-18.46 14.07-35.64 29.9-45.32 23.73-14.06 51.96-12.64 73.5-2.73 4.4-9.23 13.04-27.79 13.04-27.79C77.67-19.12 20.12 17.76 6.82 48.89c-14.57 34.09.51 61.29 2.41 72.25 4.8 27.66-7.41 33.68-9.17 35.88 7.91-.44 12.64-6.15 16.6-12.75 3.08-5.71 4.6-12.29 5.03-18.88 1.76-12.31-3.58-25.78-3.14-38.08zm61.4-49.69-.59 20.06c.83.01 2.1.21 2.13.12.24-.96 1.02-7.83 6.87-12.85 6.52-5.58 15.08-5.03 14.99-5.08-8.53-2.6-17.32-2.78-23.4-2.25zm44.39 52.49c-5.45-13.39-16.63-22.4-31.57-25.04-7.92-1.75-16.26-1.7-23.72.98C58.06 70 50.95 77.88 46.24 88.57c-7.86 17.81 3.25 31.4 3.25 45.9.44 5.27-2.61 15.85-2.18 15.79 14.25-1.97 23.89-6.52 36.2-8.71 8.38 7.32 37.02 24.17 43.28 25.04.43.06-7.25-24.96-5.72-52.53-7.25 1.17-16.6-1.91-22.05-7.89 7.24-10.4 33.48-9.25 29.67 18.51-.06.43 15.52 3.06 15.24 2.72-9.79-11.98-13.89-23.28-19.59-37.29zM26.02 78.22l15.58 2.95c.43-1.1.95-2.07 1.59-3.32l-15.16-5.88c-.95 1.88-1.66 4.72-2.01 6.25zm-.94 4.48c-1.3 8.26-1.39 15.93-.69 20 .02.05 1.23-7 5.24-10.97 3.49-3.46 7.95-4.14 9.52-4.08 0-.02.79-2.7.68-2.71L25.08 82.7zm49.68-24.66.47-19.83c-.15.15-4.6.83-8.38 1.89l4.01 18.76c.16.08 3.85-.82 3.9-.82zm-7.2 1.87-5.07-18.28c-2.83.83-6.65 2.46-7.55 3.07l8.38 16.64c3.83-1.3 4.2-1.46 4.24-1.43z" style="fill:#18453b"/></g></switch></svg>