<svg xmlns="http://www.w3.org/2000/svg" width="461.102" height="461.102" viewBox="0 0 122 122"><path d="M84.906 50.69h2.667s-.02-9.515 8.675-9.515h2.647V80.28h-4.162c-2.657-.264-4.875-1.973-7.014-4.005l-3.126-3.02c.684-.918 1.592-2.325 2.227-3.8.723-1.66 1.25-4.777 1.573-5.54a5.05 5.05 0 01.371-.723c.4-.655 1.104-1.202 1.807-1.504a4.674 4.674 0 011.788-.39h.4V59.05H79.718v2.257h.88a4.33 4.33 0 014.308 4.347c0 3.107-2.325 5.656-2.325 5.656L70.662 59.735c5.324-1.934 9.8-4.592 9.8-9.593 0-5.266-4.015-8.968-11.264-8.968-7.356 0-12.25 4.064-12.25 10.64 0 4.328 1.983 7.14 3.908 9.076-6.047 2.345-9.642 5.422-9.642 11.06 0 7.923 7.14 11.108 15.074 11.108 5.217 0 9.593-1.563 12.983-4.064.05-.04 2.257 3.546 8.763 3.546l24.745-.02v-2.24H108V41.174h2.647c8.665 0 8.675 9.515 8.675 9.515H122V38.956H84.906zm-15.963-7.3c2.872 0 4.64 2.306 4.64 5.588 0 3.654-1.622 6.8-5.11 8.665-2.247-2.188-4.17-5.178-4.17-8.773-.01-3.224 1.768-5.48 4.64-5.48zm-.264 35.863c-5.158 0-9.017-3.82-9.017-8.93 0-3.595.83-5.783 3.234-7.346l14.4 14.126c-2.354 1.612-5.373 2.15-8.607 2.15zm-21.883-38.08h5.158v-2.227H38.053l-11.87 29.65-11.928-29.65H.001v2.237H5.16L5.15 80.27H.88v2.227h12.583V80.27H7.885V46.156L21.904 81.5h2.257l13.833-35.345-.02 34.124h-4.386v2.218h17.614V80.28h-4.406z" fill="#027856"/></svg>