<svg xmlns="http://www.w3.org/2000/svg" width="126.9" height="126.9"><path d="M53.19 33.436C48.945 29.549 43.35 26.8 37.3 26.8c-13.095.518-22.624 10.353-22.527 23.84C6.773 52.241 1 59.213 1 67.613c0 5.002 1.765 8.518 5.367 11.8 22.998 1.268 42.765.705 102.178 4.216 10.198-.342 17.168-7.872 17.168-18.154 0-8.9-5.763-15.538-14.463-17.438-.2-6.9-4.85-12.074-11.75-12.074-2.1 0-4.563.75-6.463 1.75C89.337 29.213 81.4 23.3 72.1 23.3c-7.26.007-14.658 4.51-18.91 10.135z" fill="#78ceff"/><path d="M72.1 22.3c-7.501 0-14.531 3.523-18.973 9.573-4.243-3.886-9.778-6.072-15.826-6.072-13 0-23.5 10.5-23.5 23.5v.898C5.8 51.8 0 58.901 0 67.301c0 5.001 2.14 9.643 5.742 12.924.34-.167.703-1.65.442-2.604-2.51-2.782-3.985-6.405-3.985-10.32C2.2 59.6 7.6 53.1 15.2 52l1-.2-.199-1c-.1-.4-.1-1-.1-1.5 0-11.9 9.6-21.5 21.5-21.5 7.28 0 13.84 3.579 17.83 9.546.79-.03 1.37-.338 1.805-.838a24.129 24.129 0 00-2.433-3.16C58.729 27.69 65.223 24.4 72.1 24.4c8.9 0 17 5.6 20.1 13.9l.4 1.1 1-.7c1.9-1.1 3.8-1.7 5.9-1.7 5.9 0 10.5 4.6 10.5 10.5v1.3l.8.1c8.2 1.4 14.1 8.5 14.1 16.7 0 9.171-7.24 16.61-16.324 16.966-.192.672-.214 1.34-.031 2 10.198-.342 18.355-8.684 18.355-18.966 0-8.9-6.2-16.6-14.9-18.5-.2-6.9-5.6-12.2-12.5-12.2-2.1 0-4 .5-5.9 1.5-3.7-8.5-12.2-14.1-21.5-14.1z" fill="#fff"/><path d="M108.545 84.566l.031-2C108.33 72.41 101.131 64.064 91.5 62c.021-.17.024-.341.037-.512l.057-2.09C91.484 45.691 80.332 34.6 66.6 34.6a24.9 24.9 0 00-9.565 1.908l-1.805.838c-5.338 2.73-9.573 7.303-11.83 12.853-2.01-1.462-4.442-2.414-7.06-2.568.041-.138-2.065-.115-2.111.04A12.972 12.972 0 0022.599 60.6v.6C14.417 63.12 8.063 69.51 6.185 77.62l-.442 2.604c-.084.782-.142 1.57-.142 2.375 0 12.2 9.8 22 22 22h59.5c11.406 0 20.694-8.822 21.445-20.034z" fill="#fff"/><path d="M66.6 36.6c12.7 0 23 10.3 23 23 0 .7 0 1.5-.1 2.3l-.2 1.8 1.8.4c9 1.9 15.5 9.9 15.5 19.1 0 10.8-8.7 19.5-19.5 19.5H27.6c-11 0-20-9-20-20 0-9.4 6.4-17.4 15.5-19.5l1.6-.4-.1-1.7v-.5c0-6.1 4.9-11 11-11 2.4 0 4.7.8 6.6 2.2l2.1 1.6 1-2.4c3.5-8.8 11.9-14.4 21.3-14.4z" fill="#00adff"/><path d="M83.6 69.6h-2c0 .2.1.3.1.5 0 2.5-2 4.5-4.5 4.5h-37c-2.5 0-4.5-2-4.5-4.5 0-.2 0-.3.1-.5h-2v.5c0 3.6 2.9 6.5 6.5 6.5h37c3.6 0 6.5-2.9 6.5-6.5-.2-.2-.2-.3-.2-.5zM34.229 47.672l2.11-.041c1.96-5.576 5.141-9.886 8.86-11.932L44.2 34c-4.258 2.42-7.755 7.289-9.97 13.672zM91.594 59.398c-.301.885-.184 1.49-.057 2.09 3.448-.742 6.07-5.52 6.162-11.488 0-3.1-.799-6.1-2.199-8.3l-1.7 1.1c1.1 1.9 1.8 4.5 1.8 7.3 0 4.46-1.76 8.383-4.006 9.298z" fill="#fff"/></svg>