<svg xmlns="http://www.w3.org/2000/svg" viewBox="0 0 620 620"><path d="M620 18.19A18.31 18.31 0 0 0 601.61-.2H18.39A18.31 18.31 0 0 0 0 18.19v583.62a18.31 18.31 0 0 0 18.39 18.39h434.45L620 453.05z" fill="#ff0061"/><path d="m457.75 458.77-161 161h156.09l166.75-166.72" style="opacity:.3;isolation:isolate"/><path d="M620 452.64H471.23A18.32 18.32 0 0 0 452.84 471v148.8z" fill="#ff5ba0"/><path d="M432 218.45v186.78a6.45 6.45 0 0 1-6.54 6.54h-48.64a6.45 6.45 0 0 1-6.54-6.54V312c-20 27.39-39.64 54.36-60.08 82.15-4.08-5.31-58.44-81.74-61.3-86.64 0 3.68 0 75.2-.41 97.68a6.45 6.45 0 0 1-6.54 6.54H195a6.45 6.45 0 0 1-6.54-6.54V218a6.45 6.45 0 0 1 6.54-6.5h42.91a7 7 0 0 1 5.32 2.86l66.21 91.14 67-91.14a7 7 0 0 1 5.32-2.86h43.32c4.09.41 6.95 3.27 6.95 6.95z" fill="#fff"/></svg>