<svg xmlns="http://www.w3.org/2000/svg" viewBox="0 0 265.4 207.4"><path d="M227 60.8h38.4v146.6H227z"/><path fill="#ff4b4b" d="M60.8 38.4c12.4 0 22.4 10.1 22.4 22.4h38.4A60.9 60.9 0 0 0 60.8 0 60.9 60.9 0 0 0 0 60.8h38.4c0-12.3 10-22.4 22.4-22.4z"/><path fill="#5887ff" d="M121.6 169V60.8H83.2v146.6h38.4z"/><path fill="#fa0" d="M143.8 169h-22.2v38.4l60.6-.1V169z"/><path fill="#00843f" d="M182.2 60.8c0-12.4 10.1-22.4 22.4-22.4V0a60.9 60.9 0 0 0-60.8 60.8V169h38.4z"/><path fill="#fc83ff" d="M227 60.8h38.4A60.9 60.9 0 0 0 204.6 0v38.4c12.4 0 22.4 10 22.4 22.4z"/><path d="M0 60.8h38.4v146.6H0z"/></svg>