<svg xmlns="http://www.w3.org/2000/svg" viewBox="0 0 268.11 304.33"><path fill="#00537e" d="m150.1 130.21-3.7 9.1c-.6 1.6.1 3.5 1.8 4.1l15 6a3.1 3.1 0 0 1 1.1 5.1l-44.2 48.5c1 37.3 32.2 50.5 32.2 50.5 45.5-29.5 64.8-141.6 64.8-141.6 6.9 91.6-59.9 157.3-59.9 157.3h.2c-6.7 7.1-14.9 14.9-21.1 21.2a8.18 8.18 0 0 0-.1 11.5 8.18 8.18 0 0 0 11.5.1c5.6-5.6 14.3-14.4 21.7-22.3 0 0 10.6-10.3 21.4-12.3 59.6-8.8 69.2-52.9 69.2-52.9 34.1-94-50.4-180.7-50.4-180.7-11.7 48.2-45.8 82.3-45.8 82.3-4.97 4.3-9.55 9.01-13.7 14.1"/><path fill="#009a01" d="M58.5 270.71c11.7-48.2 45.8-82.3 45.8-82.3 8.3-7.6 15.2-15.9 20.3-22.6l.7-1.7c.6-1.6-.1-3.5-1.8-4.1l-15-6a3.1 3.1 0 0 1-1.1-5.1l40.6-44.1c1-39.9-32.2-54-32.2-54C70.3 80.31 51 192.41 51 192.41c-6.9-91.6 59.9-157.3 59.9-157.3h-.2c6.7-7.1 14.9-14.9 21.1-21.2a8.18 8.18 0 0 0 .1-11.5 8.18 8.18 0 0 0-11.5-.1c-5.6 5.6-14.3 14.4-21.7 22.3 0 0-10.6 10.3-21.4 12.3-59.6 8.8-69.2 52.9-69.2 52.9-34.1 94.1 50.4 180.9 50.4 180.9"/></svg>
