<svg xmlns="http://www.w3.org/2000/svg" width="48.6" height="48.6"><path d="M14.7 20.65c1.2 0 8.9 3.4 8.9 15.8 0 5.9-2 10.8-3.1 10.8-.5 0-.7-.5-.7-1.5 0-2.2.8-4.1.8-8.8 0-9-3.7-12.6-5.3-14.7-.5-.6-.9-1-.9-1.4 0-.1.1-.2.3-.2m19.4.3c0 .4-.4.7-.9 1.4-1.6 2-5.3 5.7-5.3 14.7 0 4.7.8 6.6.8 8.8 0 1-.2 1.5-.7 1.5-1.2 0-3.1-4.9-3.1-10.8 0-12.3 7.7-15.8 8.9-15.8.2-.1.3 0 .3.2" fill="#188ccc"/><path d="M21.5 23.05c0 1.6 1.3 2.9 2.8 2.9 1.6 0 2.8-1.3 2.8-2.9 0-1.6-1.3-2.9-2.8-2.9-1.6 0-2.8 1.3-2.8 2.9" fill="#f68621"/><path d="M9.7 18.45c-1.5-.7-2.6-2-2.7-3.3 1.1-.7 2.8-.8 4.3-.1 1.5.7 1.9 1.9 1.9 2.9-.9.7-2 1.2-3.5.5m4.2-7.8c-.9-1.5-1.2-3.3-.6-4.6 1.4 0 3 .9 3.9 2.4 1 1.5.6 2.8 0 3.8-1 .1-2.3-.1-3.3-1.6m2.2 7.8c-1.2-1-1.8-2.5-1.6-3.8 1.2-.4 2.8 0 3.9 1 1.2 1 1.2 2.2 1 3.2-1 .4-2.1.6-3.3-.4m3.5-3.8c-.5-1.6-.2-3.5.7-4.5 1.3.4 2.6 1.7 3.1 3.3.5 1.7-.2 2.8-1 3.6-1.1-.1-2.2-.7-2.8-2.4m-6.1 12c-1.2.2-2.4-.1-3-.8.3-.9 1.4-1.7 2.5-1.9 1.2-.2 1.9.3 2.4.9-.2.7-.7 1.5-1.9 1.8m-3.1-3.5c-1.3-.1-2.5-.9-3-1.9.7-.9 2-1.3 3.3-1.2 1.4.2 2 1 2.2 1.8-.3.8-1.1 1.5-2.5 1.3m-.1-9.9c-1-.9-1.6-2.2-1.5-3.3 1.1-.3 2.5 0 3.5.9 1.1.9 1.1 2 .9 2.8-.8.3-1.8.5-2.9-.4m7.1-7.1c-.4-1.3-.2-2.9.5-3.7 1.1.3 2.1 1.4 2.6 2.8.4 1.4-.1 2.4-.8 3-.9-.2-1.9-.6-2.3-2.1M0 41.55c.1.1.2 0 .3 0 4.2-1.5 10.3-3.3 18.9-3.9 0-.1.1-.5.1-.8 0-.6-.1-1.3-.1-1.4-8.8.8-14.9 3.4-18.9 5.9-.2.2-.3.2-.3.2m22-35.6c0-2 .9-3.9 2.3-4.7 1.3.9 2.3 2.8 2.3 4.7 0 2.1-1.1 3.1-2.3 3.6-1.2-.5-2.3-1.5-2.3-3.6m13.4 12c0-1 .4-2.2 1.9-2.9 1.5-.7 3.2-.6 4.3.1-.2 1.3-1.3 2.7-2.7 3.3-1.6.7-2.7.2-3.5-.5m-4.1-5.7c-.6-1-.9-2.2 0-3.8.9-1.5 2.5-2.4 3.9-2.4.6 1.3.4 3.1-.6 4.6-.9 1.5-2.2 1.7-3.3 1.6m-2.1 6.6c-.3-1-.2-2.1 1-3.2 1.2-1 2.8-1.4 3.9-1 .2 1.2-.5 2.8-1.6 3.8-1.3 1-2.4.8-3.3.4m-3.1-1.8c-.8-.7-1.5-1.9-1-3.6.5-1.6 1.7-3 3.1-3.3.9 1.1 1.2 2.9.7 4.5-.5 1.7-1.7 2.3-2.8 2.4m7.1 7.8c.4-.6 1.2-1.2 2.4-.9 1.2.2 2.2 1 2.5 1.9-.7.7-1.9 1-3 .8-1.3-.3-1.7-1.1-1.9-1.8m2.3-3c.3-.8.9-1.7 2.2-1.8 1.3-.1 2.7.3 3.3 1.2-.5 1-1.7 1.7-3 1.9-1.3.2-2-.5-2.5-1.3m-.2-8.2c-.2-.8-.2-1.9.9-2.8 1-.9 2.4-1.2 3.5-.9.2 1.1-.4 2.4-1.5 3.3-1.1.9-2.1.7-2.9.4m-6.5-5.5c-.7-.6-1.2-1.5-.8-3 .4-1.4 1.5-2.5 2.6-2.8.7.9 1 2.4.6 3.8-.5 1.5-1.5 1.9-2.4 2m19.5 33.3c-4-2.5-10.1-5.1-18.9-5.9 0 .1-.1.8-.1 1.4 0 .3.1.7.1.8 8.6.6 14.7 2.4 18.9 3.9.1 0 .2.1.2.1s.1 0 .1-.1c-.1-.1-.1-.1-.3-.2" fill="#39b54a"/></svg>