<svg xmlns="http://www.w3.org/2000/svg" version="1.1" id="Layer_1" x="0" y="0" xml:space="preserve" width="315.255" height="315.255"><style type="text/css" id="style11416">.st0{fill:#fff}.st1{fill:#d7ea6a}</style><g id="g12002" transform="translate(17.226 119.173)"><path id="rect11982" fill="#026540" fill-opacity="1" fill-rule="evenodd" stroke-width=".751" d="M-17.226-10.758h315.255v98.426H-17.226z"/><g transform="translate(-.8 -.395)" id="g11991"><g id="g11422"><path class="st0" d="M0 60h18.7V38.3c0-3.5.6-6 1.9-7.5 1.3-1.5 2.9-2.3 5-2.3 1.2 0 2.3.4 3.3 1.1.9.7 1.6 1.7 1.9 2.8.2.7.3 2.1.3 4.1v23.6h18.7v-22c0-3.3.6-5.7 1.9-7.2 1.3-1.5 2.9-2.3 5-2.3 1.7 0 3.2.8 4.4 2.4.8 1 1.2 2.6 1.2 4.6V60H81V31.5c0-6.1-1.4-10.7-4.3-13.5-2.9-2.9-6.8-4.4-11.9-4.4-3.5 0-6.4.5-8.7 1.6-2.4 1.1-5 3.1-7.8 6-1.4-2.5-3.2-4.4-5.4-5.7-2.2-1.3-5.2-1.9-9-1.9-3.5 0-6.5.6-9 1.7-2.5 1.2-5 3.1-7.4 5.8V15H0z" id="path11418" fill="#fff"/><path class="st0" d="M93 63.2c-.7.6-1.3.8-3.4.8-1.8 0-2.1-.3-4.6-1.2l-.1 13.9c5.2.7 6.6 1 9.1 1 6.2 0 10.4-1.1 13.5-3.9 2.1-2 4.3-7.1 6.3-12.7l15.4-46h-18.9l-6.5 29-6.3-29H77.8l16.4 45.3s.1 1.8-1.2 2.8z" id="path11420" fill="#fff"/></g><g id="g11430"><path class="st1" d="M193.2 55.2c4.7 3.9 10.8 5.8 18.3 5.8 8.5 0 15.1-2.3 19.9-7 4.8-4.7 7.2-10.7 7.2-18 0-6.5-1.9-12-5.8-16.5-4.8-5.5-11.9-8.9-21.3-8.9-8.2 0-14.8 2.9-19.6 7.6-4.8 4.7-7.2 10.7-7.2 18 0 7.9 2.8 14.2 8.5 19zm12.5-28.6c1.6-1.9 3.6-2.9 6-2.9 2.3 0 4.2 1 5.7 2.8 1.5 1.9 2.3 4.7 2.3 8.5 0 4.1-.8 7.1-2.3 8.9-1.5 1.9-3.5 3.3-5.9 3.3-2.4 0-4.4-1.5-5.9-3.3-1.6-1.9-2.3-4.8-2.3-8.7.1-3.8.9-6.7 2.4-8.6z" id="path11424" fill="#d7ea6a"/><path class="st1" id="polygon11426" fill="#d7ea6a" d="M256.1 37.6l-5.7-25.2h-19.7l15.9 46.4H266l16.4-46.4h-20.3z"/><path class="st1" d="M168.2 39.3v4.8c-2.3 1.2-4.3 2.1-6 2.6-1.7.5-3.6.8-5.5.8-4.1 0-7.2-1.3-9.5-4-2.3-2.6-3.4-7-3.4-13.2 0-5.8 1.2-10.1 3.5-12.7 2.3-2.7 5.5-4 9.4-4 2.6 0 4.8.5 6.5 1.4 1.7.9 2.9 2.3 3.6 4l17.6-2.5c-1.1-3.8-2.6-6.9-4.7-9.3-2.1-2.5-4.7-4.3-7.9-5.4-3.2-1.2-8-1.8-14.4-1.8-6.6 0-11.9 1-15.8 2.9-5 2.5-8.9 6.1-11.5 10.9-2.6 4.8-3.9 10.4-3.9 16.8 0 6.1 1.2 11.6 3.6 16.3 2.4 4.7 5.8 8.3 10.2 10.7 4.4 2.4 10 3.6 17 3.6 5.6 0 10.5-.7 14.6-2.1 4.1-1.4 8.8-4 14.2-7.9V25.7h-28.4v13.6z" id="path11428" fill="#d7ea6a"/></g></g></g></svg>