<?xml version="1.0" encoding="utf-8"?>
<!-- Generator: Adobe Illustrator 19.2.1, SVG Export Plug-In . SVG Version: 6.00 Build 0)  -->
<svg version="1.1" id="layer" xmlns="http://www.w3.org/2000/svg" xmlns:xlink="http://www.w3.org/1999/xlink" x="0px" y="0px"
	 viewBox="0 0 652 652" style="enable-background:new 0 0 652 652;" xml:space="preserve">
<style type="text/css">
	.st0{fill:#1C6CA2;}
	.st1{fill:#2180B3;}
	.st2{fill:#299FC0;}
	.st3{fill:#1E68A1;}
</style>
<g>
	<path class="st0" d="M100.4,331.1c0,0-0.7,27.1,37.8,37.8C127,330.4,100.4,331.1,100.4,331.1"/>
	<path class="st0" d="M78.5,309.4c0,0,0.7-27-37.8-37.8C51.9,310.1,78.5,309.4,78.5,309.4"/>
	<path class="st0" d="M89.5,337.3c0,0-19.6,18.6,0,53.4C108.9,355.7,89.5,337.3,89.5,337.3"/>
	<path class="st0" d="M89.4,306.5c0,0,19.6-18.6,0-53.4C70,288.2,89.4,306.5,89.4,306.5"/>
	<path class="st0" d="M104.9,321.8c0,0,18.6,19.6,53.4,0C123.2,302.5,104.9,321.8,104.9,321.8"/>
	<path class="st0" d="M74,322c0,0-18.6-19.6-53.4,0C55.7,341.3,74,322,74,322"/>
	<path class="st0" d="M100.3,309.3c0,0,27,0.7,37.8-37.8C99.6,282.6,100.3,309.3,100.3,309.3"/>
	<path class="st0" d="M78.6,331.2c0,0-27.1-0.7-37.8,37.8C79.3,357.8,78.6,331.2,78.6,331.2"/>
	<path class="st1" d="M130.2,350.5c-12.5-19.9-29.8-19.5-29.8-19.5s-0.5,17.7,19.7,30.1C124,358.2,127.4,354.6,130.2,350.5"/>
	<path class="st1" d="M78.5,309.4c0,0,0.4-16.2-17.2-28.5c-4.3,3-8.2,6.7-11.4,10.8C62.3,309.8,78.5,309.4,78.5,309.4"/>
	<path class="st1" d="M89.5,337.3c0,0-12.3,11.7-7.7,33.8c2.5,0.4,5,0.6,7.6,0.6c2.6,0,5.1-0.2,7.6-0.6
		C101.7,348.9,89.5,337.3,89.5,337.3"/>
	<path class="st1" d="M89.4,306.5c0,0,12.3-11.7,7.7-33.8c-2.5-0.4-5-0.6-7.6-0.6c-2.6,0-5.1,0.2-7.6,0.6
		C77.2,294.9,89.4,306.5,89.4,306.5"/>
	<path class="st1" d="M104.9,321.8c0,0,11.7,12.3,33.8,7.7c0.4-2.5,0.6-5,0.6-7.6c0-2.6-0.2-5.1-0.6-7.6
		C116.4,309.7,104.9,321.8,104.9,321.8"/>
	<path class="st1" d="M74,322c0,0-11.7-12.3-33.8-7.7c-0.4,2.5-0.6,5-0.6,7.6c0,2.6,0.2,5.1,0.6,7.6C62.5,334.1,74,322,74,322"/>
	<path class="st1" d="M100.3,309.3c0,0,16.4,0.4,28.7-17.6c-3.2-4.2-7-7.9-11.4-10.8C99.9,293.2,100.3,309.3,100.3,309.3"/>
	<path class="st1" d="M78.6,331.2c0,0-17.5-0.5-29.9,19.3c2.8,4,6.3,7.6,10.1,10.7C79.1,348.6,78.6,331.2,78.6,331.2"/>
	<path class="st2" d="M118.8,337.9c-9.6-7.1-18.3-6.8-18.3-6.8s-0.2,9.1,7.1,18.9C112.2,347,116.1,342.8,118.8,337.9"/>
	<path class="st2" d="M78.5,309.4c0,0,0.2-7.7-5.5-16.5c-4.6,2.6-8.5,6.3-11.4,10.7C70.6,309.6,78.5,309.4,78.5,309.4"/>
	<path class="st2" d="M89.5,337.3c0,0-6.1,5.8-8.1,17c2.6,0.6,5.2,1,8,1c2.8,0,5.5-0.4,8.1-1C95.6,343.1,89.5,337.3,89.5,337.3"/>
	<path class="st2" d="M89.4,306.5c0,0,6.1-5.8,8.1-17c-2.6-0.6-5.3-1-8-1c-2.8,0-5.5,0.4-8.1,1C83.3,300.7,89.4,306.5,89.4,306.5"/>
	<path class="st2" d="M121.8,313.8c-11.2,1.9-16.9,8-16.9,8s5.8,6.1,17,8.1c0.6-2.6,1-5.2,1-8C122.9,319.1,122.5,316.4,121.8,313.8"
		/>
	<path class="st2" d="M74,322c0,0-5.8-6.1-17-8.1c-0.6,2.6-1,5.2-1,8c0,2.8,0.4,5.5,1,8.1C68.3,328,74,322,74,322"/>
	<path class="st2" d="M105.9,292.8c-5.7,8.8-5.5,16.4-5.5,16.4s8,0.2,17-5.8C114.4,299.1,110.5,295.4,105.9,292.8"/>
	<path class="st2" d="M78.6,331.2c0,0-8.8-0.2-18.4,6.8c2.7,4.9,6.6,9,11.2,12C78.8,340.2,78.6,331.2,78.6,331.2"/>
	<path class="st3" d="M381.6,319.4c0,4.5,1.5,8.2,4.4,11.3c3,3,6.6,4.6,10.9,4.6c3.9,0,7.4-1.5,10.4-4.6c3-3.1,4.5-6.6,4.5-10.7
		c0-4.3-1.5-8.1-4.5-11.2c-3-3.1-6.5-4.7-10.6-4.7c-4.2,0-7.8,1.5-10.7,4.4C383.1,311.5,381.6,315.1,381.6,319.4 M412.4,344.9v-7.4
		c-2.2,2.3-4.6,4-7.3,5.1c-2.7,1.2-5.5,1.7-8.6,1.7c-7.1,0-13-2.4-17.7-7.1c-4.7-4.7-7-10.7-7-17.8c0-3.3,0.6-6.5,1.8-9.5
		c1.2-3,2.8-5.6,5-7.9c2.4-2.5,5-4.3,7.8-5.5c2.8-1.2,6-1.8,9.6-1.8c3.2,0,6.2,0.6,8.9,1.7c2.7,1.2,5.2,2.9,7.4,5.2v-5.7h9.4v48.8
		H412.4"/>
	<path class="st3" d="M487,319.4c0,4.5,1.5,8.2,4.4,11.3c3,3,6.6,4.6,10.9,4.6c3.9,0,7.4-1.5,10.4-4.6c3-3.1,4.5-6.6,4.5-10.7
		c0-4.3-1.5-8.1-4.5-11.2c-3-3.1-6.5-4.7-10.6-4.7c-4.2,0-7.8,1.5-10.7,4.4C488.4,311.5,487,315.1,487,319.4 M512.1,366.1
		c-10.3,4.8-26.8-3-26.8-3l4-9.1c0,0,7.9,5.3,18.9,2.6c10.5-4.2,9.6-13.3,9.6-13.3v-5.8c-2.2,2.3-4.6,4-7.3,5.1
		c-2.7,1.2-5.5,1.7-8.6,1.7c-7.1,0-13-2.4-17.7-7.1c-4.7-4.7-7-10.7-7-17.8c0-3.3,0.6-6.5,1.8-9.5c1.2-3,2.8-5.6,5-7.9
		c2.4-2.5,5-4.3,7.8-5.5c2.8-1.2,6-1.8,9.6-1.8c3.2,0,6.2,0.6,8.9,1.7c2.7,1.1,5.2,2.9,7.4,5.2v-5.7h9.4v47.2
		C527.1,353.1,522.4,361.2,512.1,366.1"/>
	<path class="st3" d="M549.4,344.8h-9v-49.1h8.3v5.4c1.8-2.1,4-3.7,6.1-4.7c2.1-1,4.6-1.5,7.3-1.5c6.2,0,11,1.8,14.3,5.5
		c3.3,3.7,5,8.9,5,15.7v28.7h-9.2V318c0-5-0.9-8.8-2.8-11.2c-1.9-2.4-4.7-3.7-8.6-3.7c-4.2,0-6.6,1.4-8.5,4.3
		c-1.9,2.9-2.9,7.6-2.9,14.2V344.8z"/>
	<path class="st2" d="M224.2,344.8h-9v-49.1h8.3v5.4c1.8-2.1,4-3.7,6.1-4.7c2.1-1,4.6-1.5,7.3-1.5c6.2,0,11,1.8,14.3,5.5
		c3.3,3.7,5,8.9,5,15.7v28.7H247V318c0-5-0.9-8.8-2.8-11.2c-1.9-2.4-4.7-3.7-8.6-3.7c-4.2,0-6.6,1.4-8.5,4.3
		c-1.9,2.9-2.9,7.6-2.9,14.2V344.8z"/>
	<rect x="459.3" y="295.5" class="st3" width="10.3" height="49.3"/>
	<path class="st3" d="M457.3,280.1c0-4,3.2-7.2,7.2-7.2c3.9,0,7.2,3.2,7.2,7.2c0,4-3.2,7.2-7.2,7.2
		C460.5,287.3,457.3,284.1,457.3,280.1"/>
	<rect x="435.2" y="273.5" class="st3" width="10.3" height="71.3"/>
	<rect x="313" y="295.5" class="st2" width="10.3" height="49.3"/>
	<path class="st2" d="M311,280.1c0-4,3.2-7.2,7.2-7.2c4,0,7.2,3.2,7.2,7.2c0,4-3.2,7.2-7.2,7.2C314.2,287.3,311,284.1,311,280.1"/>
	<rect x="191.1" y="295.5" class="st2" width="10.3" height="49.3"/>
	<path class="st2" d="M189,280.1c0-4,3.2-7.2,7.2-7.2c3.9,0,7.2,3.2,7.2,7.2c0,4-3.2,7.2-7.2,7.2C192.2,287.3,189,284.1,189,280.1"
		/>
	<polygon class="st2" points="259.2,295.5 270.9,295.5 283.3,322.5 296.8,295.5 308.5,295.5 283.1,344.8 	"/>
	<path class="st2" d="M351,315.7c-3.7-1.2-8.5-3.1-8.5-5.9c0-3.1,2.1-4.9,6.2-5.5c3.5-0.5,7.8,1.6,8.8,2.6l5-7.8
		c-3.6-2.3-9.5-4.5-15.3-3.7c-9,1.2-14.6,6.8-14.6,14.4c0,9.6,11.4,13.2,15.1,14.4c5.9,1.9,8,3.5,8,6.1c0,5-6.6,5.4-8.6,5.4
		c-3.8,0-9.1-2.4-10.9-3.3l-4.9,7.8c0.9,0.5,8.7,4.6,15.8,4.6c8.8,0,18.4-4.5,18.4-14.4C365.6,320.4,355,317,351,315.7"/>
	<path class="st0" d="M618.7,305.7c0,4.8-3.9,8.7-8.7,8.7c-4.8,0-8.7-3.9-8.7-8.7c0-4.8,3.9-8.7,8.7-8.7
		C614.8,297,618.7,300.9,618.7,305.7 M610,295.1c-5.8,0-10.6,4.7-10.6,10.6c0,5.8,4.7,10.6,10.6,10.6c5.8,0,10.6-4.7,10.6-10.6
		C620.6,299.8,615.8,295.1,610,295.1"/>
	<path class="st0" d="M607.6,305h1.7c1.8,0,2.9-0.8,2.9-2c0-1.3-1.2-1.9-3-1.9c-0.8,0-1.4,0.1-1.6,0.1V305z M605.9,300.3
		c0.8-0.1,2.1-0.2,3.2-0.2c1.8,0,2.9,0.3,3.7,0.9c0.6,0.4,1,1.2,1,2c0,1.4-1.1,2.3-2.4,2.7v0c1,0.3,1.6,1,1.9,2.1
		c0.4,1.5,0.7,2.5,1,2.9h-1.7c-0.2-0.3-0.5-1.2-0.8-2.5c-0.4-1.4-1.1-2-2.6-2h-1.6v4.5h-1.7V300.3"/>
</g>
</svg>
