<svg xmlns="http://www.w3.org/2000/svg" viewBox="0 0 588 458"><path fill="#F2A900" d="M581 380h1v1h-1l-1 1h-2l-1 1v1h-3v-1h1v-2h3l2-1zm-14 18v-1l4 1v1l-1 4v-2l-1-1-1-1h-2zm-113 12v2h-2v2h-1l-2 1-1 1-2 1-1 3h-1v4h1-1v-1h-1l-1 1v2h1v1l2 2 1-1 1-2v-1l1-2h1l-1-1 2-1 2 2 2-1v-2l1-1 1-1h2l2-1h5l1-1v-2h1l1 1h3v1h2v-3l2 2 1 1h1l1-1 3 1 5 2 6-3v-2l-1-1h1l2-1h3l2 1h12l5-1 3 1 1-1 4-1 2-1 1 1 3-1h3l2-1v-1l1-1 2-1 3-2 2-1 1-2h2l1-1 3-4h3l2-2h4l-1 2-1 1-2 1v-2h-2l-1 2v1l1 2h2l1 1v1l1 1 1 1h3l1 1h2v-1l1-1 2 2v1l1 2 1 1h2v-1l2-2h3l1-1 1-1h1l1-1v-2h3l1-1 1 1h2l1 1-2 1-2 1-2 1-7 3-7 3-21 11-5 2-8 3-12 4-1 1h-1l-7 3-5 2-6 3-3 1-12 4h-2l-2 1h-3l-1-2-3 1-3 1-4 1-2 1-7 2v-1h-17l-2 1-4 2-4 1v-2h-1v-1l-3 1h-1v-1h-1l1-1v-1h-1l-1-1-1-1v-2l1-1 1-1v-2l-1-1h1v-2h-1l1-2v-3h1l3-6v-1l1-2v-1l1-1v-1l1-1v-3h1v-3l1-3v-1h-1v-1l-10-5-4-3-6-4-4-2-5-3-2-1-4-2-6-4-3-2-8-5-2-1-4-3v-1l-1-1-1-1v-1h-2v-1l1-1v-1h-2v1l-1-1-1 1h-1v-2h-2v1h-1l-1-1h-3v-2h-1v-2h-6v-3h-1v-1l-1-1h-1v-1h1v-1l-1-1-1-1v-1l-1-1h-1v-1h-1v-1h2-1v-1h1v1h1v-1l-1-1v-7h-1v-1h1v-5h-1v-1h-3v-2h1v-1l1 1v-1l1-1h-2v-1h-2v-1h1v-1h-2v-1h-2l-1-1h1l-1-1v1h-1l-1-1h-1v1h-4v-1h1v-1h-1v-4h-1v-2h-1v-1h-2v-2h-1v-2h-1l-1-1H75l-9 1-8-1H0v-27l4-1 5-3 4-3 3-2 3-2 3-2 1-1 2-2 2-2 1-2 2-1 1-1h2v-1l3-1 1-1 2-1 1-1 3-1h3l1-1v-3h1v-2h1l2-3 1-1v-2l1-2 2-1 1-1h2l3-2 2-1 4-3 1-2v-1h-1l-1-3 1-1v-2h-1v-1l-1-2h-2l1-1v-4l-1-1-1-1h-2l-1-1-3-2-1-1v-2l1-1v-4l-5-1v-1h1v-4h1v-1l1-1v-1l-1-1v-8l-1-1v-1l3-1 4-1 3-1 5-2 2-1 4-1 3-1h3l5-2 6-1 5-1 1 1 8-1h1l8 1h1l6-1h3l6 1h6l2 1h1l2 1 5 1h4l2 1 1 1 1 1 3 3h1l2 1 4 3 2 1h1l2-2h2l3-2h2l1-1h17l2-1h2l3 1 3 1h6l2-2h4l1-1 1-1h4l2-1 1-1 1-1 3-1h1l1-2 2-3 1-2 2-1 3-2 2-1 1-1v-1l1 1 2-1 1-2 2-1 2-2h3l2 1h4l2-1h2l1-1 1-1v-2l1-1v-8l-1-7v-4l-1-5-2-1-1-1-1-1h-1v-3l2-2h3l1-2v1l-1 2v1h2l1-1 2-1h1l1-1v-4l-1-1h1l1-1 1-2 2-1h1v-1h-1v-1l-3 3-1 1h-3l-1-1h-1l-1-1 1-1 1-1 3-1 1-1 1-1-1-1h-1v1h-2l1-2 1-1h-5v-1h-1l-2 1-1 1-1 2v1l4-1h2l-2 3v1l-1 1-1 2h-2l1-3v-1l-1-1h-2v-2l1-2-1-1-4-1v-2l-1-1 1-1v-3h1l3-7h4l3-1 2-1 2-2v-4l2-2v1h1v-1h1l4-3 3-2h3v1l1-1 1-1h1l1-1 3-3 4-4 1-4 3-4 3-3 2-3 3-2 3-3 3-3 5-6 3-2 4-4v-1h2v-1h1l1-1 1-2h1l2-2v-1l2-1 1-1h1l1-1h1l1-1h1v-1h1l2-1 1-1 1-1h1l1-1h1l2-1h1l2-1 2-2V5l1-1h6V3l1-1h2l1-1 1-1h1v1h2l2 1h1l1 1h1l1-1h19l9 1h14l21-1h17l15-1h7v2h-1v1h1v7l-1 1v1l-1 2v2h-1v2h1v1h1v1h1l1 1v3h-1v1l-1 2v1h-1v4l1 1-1 1v2l-1 1h1l-1 1v4l1 1-1 1h1v2l1 1h1v2h1v1h1v2l1 1v5l1 1v2l-1 2-1 1v1l-1 1v4l1 1-1 1 1 1v7h-2v2h-1v2h-1l-1 1v2h-1v3l-1 1v4l-1 2v1l-1 1v2h1v1h1v10l1 2v1l1 1 1 1v1l-1 1v1l1 1v1h-1v1h-1v1h1v1l1 1 1 1v1l1 1h-1l-1 2v3l-1 1-1 1v1h-1l1 1-1 1v2h-1v2l1 1-1 1v3l1 1h1v1-1h1v-2l1-1v-2h3l1-1v1h1v-1 2l1 1v2l1 1h1v1l1 1v1l1 1v1h-1v27l-1 3v20l-1 9v11h-1v2h1l-1 1v1l1 5h1l-7 24-11 43 1 3v16l-1 3v12l-1 5v7l-1 9v10l-1 2v11l2 4 3 4-2 2h-1l-3 2-5 3-1 1-6 4v1l2 3h1v1l1 1v1l1 1v3zm-8 10h-1v-1l1 1zm-1 2h1v2h-1v-1zm-20 16v1zm-7 16h-1l-1 1-1 1v-1l-2 1v1h-2l-1 1-1-1 1-1v-3l1-1h2v-3l1-1v-2h-1v-1l1-1 1-1 1 1h3l3-1h1v2l1 2v1l-1 1-1 2-2 2h-1l-1 2v-1zM253 103h-1l-1-1 1-1h2v1zm3 0h-1v-1l1-1v1zm-9 15v-1l3-3h2l-1 2-3 1zm8 1h-2l1-2 2-2h1v1l-2 2zm307 273-1-1 2-1h1l1-1v1h-1l-1 1z"/></svg>