<svg xmlns="http://www.w3.org/2000/svg" width="122" height="37" fill="none" xmlns:v="https://vecta.io/nano"><g fill-rule="evenodd"><path d="M56.254 18.084c0-1.965-.547-3.553-1.642-4.762s-2.634-1.814-4.62-1.814c-.633 0-1.253.04-1.861.119s-1.213.221-1.795.423v12c.55.184 1.11.337 1.676.458a7.896 7.896 0 0 0 1.675.186c2.008 0 3.605-.57 4.79-1.712s1.777-2.773 1.777-4.898zM46.336 35H44V10.39c1.964-.61 3.893-.916 5.788-.916 1.377 0 2.63.215 3.758.644s2.093 1.029 2.894 1.797a7.812 7.812 0 0 1 1.845 2.746c.428 1.062.643 2.215.643 3.457 0 1.515-.26 2.814-.778 3.9s-1.202 1.976-2.048 2.677a8.204 8.204 0 0 1-2.895 1.542 11.39 11.39 0 0 1-3.317.492 11.8 11.8 0 0 1-1.794-.136 16.154 16.154 0 0 1-1.76-.373V35zm17.2-8.324h2.396V3h-2.396v23.676zm19.926-10.273a5.86 5.86 0 0 0-.322-1.96 4.451 4.451 0 0 0-.915-1.555c-.395-.428-.91-.772-1.541-1.031s-1.367-.388-2.203-.388c-.858 0-1.597.129-2.218.388s-1.113.591-1.474.997-.695.918-1 1.537a6.276 6.276 0 0 0-.593 2.012h10.266zm1.898 7.67a7.877 7.877 0 0 1-2.745 1.944c-1.04.44-2.293.66-3.76.66-1.356 0-2.542-.231-3.558-.694s-1.863-1.086-2.541-1.875a7.975 7.975 0 0 1-1.525-2.704 10.079 10.079 0 0 1-.508-3.21c0-1.488.204-2.777.61-3.87s.96-2 1.66-2.72a6.631 6.631 0 0 1 2.44-1.606 8.285 8.285 0 0 1 2.947-.524c2.485 0 4.358.76 5.624 2.282s1.874 3.734 1.83 6.64H73.129c.067 1.916.62 3.437 1.66 4.563s2.45 1.69 4.235 1.69c.993 0 1.897-.164 2.71-.49s1.546-.85 2.202-1.572l1.423 1.487zm15.789-10.303c-.585-.744-1.217-1.29-1.897-1.64s-1.488-.525-2.424-.525c-1.194 0-2.032.215-2.512.642s-.72.97-.72 1.624c0 .452.11.835.334 1.15a2.96 2.96 0 0 0 .878.812 6.43 6.43 0 0 0 1.265.592l1.493.491 1.896.66a7.26 7.26 0 0 1 1.74.93 4.68 4.68 0 0 1 1.282 1.404c.327.553.492 1.246.492 2.08 0 .767-.164 1.455-.492 2.063a4.63 4.63 0 0 1-1.335 1.54c-.562.418-1.224.733-1.985.946a8.983 8.983 0 0 1-2.442.322c-1.334 0-2.517-.22-3.547-.66s-2.002-1.167-2.916-2.181l1.826-1.624c1.218 1.579 2.799 2.368 4.743 2.368 1.264 0 2.202-.237 2.81-.71s.913-1.05.913-1.726c0-.518-.111-.952-.333-1.302a2.955 2.955 0 0 0-.914-.897 5.965 5.965 0 0 0-1.335-.625 33.2 33.2 0 0 0-1.597-.49l-1.88-.61a6.9 6.9 0 0 1-1.668-.863 4.232 4.232 0 0 1-1.213-1.335c-.316-.542-.474-1.23-.474-2.064 0-1.488.538-2.638 1.615-3.45s2.472-1.218 4.182-1.218c1.217 0 2.3.203 3.25.608s1.855 1.117 2.722 2.132l-1.722 1.59-.035-.034zm8.613 4.168l8.101-8.198h3.174l-8.304 8.13 8.27 8.806h-3.275l-7.967-8.738h.001zm-2.363 8.738h2.363V3h-2.363v23.676z" fill="#2d3a47"/><path d="M57.638 35H71.83v-2.22H57.64V35z" fill="#28aade"/></g><circle cx="18" cy="19" r="18" fill="#28aade"/><path d="M5.32 24V13.74h1.51c.32 0 .53.15.63.45l.16.76c.18-.2.367-.383.56-.55a3.88 3.88 0 0 1 .63-.43 3.364 3.364 0 0 1 1.57-.39c.647 0 1.177.177 1.59.53.42.347.733.81.94 1.39.16-.34.36-.63.6-.87.24-.247.503-.447.79-.6s.59-.267.91-.34a4.48 4.48 0 0 1 .98-.11c.567 0 1.07.087 1.51.26s.81.427 1.11.76.527.74.68 1.22c.16.48.24 1.03.24 1.65V24h-2.47v-6.53c0-.653-.143-1.143-.43-1.47-.287-.333-.707-.5-1.26-.5-.253 0-.49.043-.71.13a1.71 1.71 0 0 0-.57.38 1.69 1.69 0 0 0-.38.61 2.4 2.4 0 0 0-.14.85V24h-2.48v-6.53c0-.687-.14-1.187-.42-1.5-.273-.313-.68-.47-1.22-.47-.353 0-.687.09-1 .27a3.297 3.297 0 0 0-.86.72V24H5.32zm20.124 2.82a.897.897 0 0 1-.29.39c-.113.093-.29.14-.53.14h-1.84l1.92-4.11-4.15-9.5h2.16c.2 0 .354.047.46.14a.91.91 0 0 1 .24.32l2.19 5.32a4.47 4.47 0 0 1 .19.54l.14.56.17-.56.21-.55 2.06-5.31a.727.727 0 0 1 .68-.46h1.98l-5.59 13.08z" fill="#fff"/></svg>