<svg xmlns="http://www.w3.org/2000/svg" viewBox="0 0 36 36"><circle cx="18" cy="18" r="18" fill="#28aade"/><path fill="#fff" d="M5.32 24V13.74h1.51c.32 0 .53.15.63.45l.16.76c.18-.2.37-.38.56-.55a3.88 3.88 0 0 1 .63-.43 3.36 3.36 0 0 1 1.57-.39c.65 0 1.18.18 1.59.53.42.35.73.81.94 1.39a3.2 3.2 0 0 1 2.3-1.81 4.48 4.48 0 0 1 .98-.11c.57 0 1.07.09 1.51.26s.81.43 1.11.76.53.74.68 1.22c.16.48.24 1.03.24 1.65V24h-2.47v-6.53c0-.65-.14-1.14-.43-1.47-.29-.33-.7-.5-1.26-.5-.25 0-.49.04-.71.13a1.71 1.71 0 0 0-.57.38 1.69 1.69 0 0 0-.38.61 2.4 2.4 0 0 0-.14.85V24h-2.48v-6.53c0-.69-.14-1.19-.42-1.5-.27-.31-.68-.47-1.22-.47-.35 0-.69.09-1 .27a3.3 3.3 0 0 0-.86.72V24H5.32zm20.12 2.82a.9.9 0 0 1-.29.39c-.1.1-.29.14-.53.14h-1.84l1.92-4.11-4.15-9.5h2.16c.2 0 .36.05.46.14a.91.91 0 0 1 .24.32l2.2 5.32a4.47 4.47 0 0 1 .18.54l.14.56.17-.56.21-.55 2.06-5.31a.73.73 0 0 1 .68-.46h1.98l-5.59 13.08z"/></svg>
