<svg xmlns="http://www.w3.org/2000/svg" width="37" height="37" fill="none" xmlns:v="https://vecta.io/nano"><circle cx="18" cy="19" r="18" fill="#28aade"/><path d="M5.32 24V13.74h1.51c.32 0 .53.15.63.45l.16.76c.18-.2.367-.383.56-.55a3.88 3.88 0 0 1 .63-.43 3.364 3.364 0 0 1 1.57-.39c.647 0 1.177.177 1.59.53.42.347.733.81.94 1.39.16-.34.36-.63.6-.87.24-.247.503-.447.79-.6s.59-.267.91-.34a4.48 4.48 0 0 1 .98-.11c.567 0 1.07.087 1.51.26s.81.427 1.11.76.527.74.68 1.22c.16.48.24 1.03.24 1.65V24h-2.47v-6.53c0-.653-.143-1.143-.43-1.47-.287-.333-.707-.5-1.26-.5-.253 0-.49.043-.71.13a1.71 1.71 0 0 0-.57.38 1.69 1.69 0 0 0-.38.61 2.4 2.4 0 0 0-.14.85V24h-2.48v-6.53c0-.687-.14-1.187-.42-1.5-.273-.313-.68-.47-1.22-.47-.353 0-.687.09-1 .27a3.297 3.297 0 0 0-.86.72V24H5.32zm20.124 2.82a.897.897 0 0 1-.29.39c-.113.093-.29.14-.53.14h-1.84l1.92-4.11-4.15-9.5h2.16c.2 0 .354.047.46.14a.91.91 0 0 1 .24.32l2.19 5.32a4.47 4.47 0 0 1 .19.54l.14.56.17-.56.21-.55 2.06-5.31a.727.727 0 0 1 .68-.46h1.98l-5.59 13.08z" fill="#fff"/></svg>
