<svg width="512" height="512" xmlns="http://www.w3.org/2000/svg"><path style="fill:#f3f7fd" d="M0 256V0h512v512H0Z"/><path style="fill:#e9eefc" d="M0 256V0h512v512H0Zm172.869-51.342c.612-.738.818-1.638.456-2-.362-.362.092-.658 1.008-.658.917 0 1.554-.405 1.417-.9-.138-.495.072-.974.466-1.065 2.357-.543 9.248-4.96 9.068-5.81-.119-.561.574-.814 1.538-.561.973.254 2.89-.595 4.305-1.906 1.404-1.3 3.074-2.19 3.712-1.978.639.213 1.161-.1 1.161-.697 0-.596.338-1.012.75-.924 1.595.337 4.206-1.421 3.59-2.418-.364-.59-.173-.756.436-.38.597.37 1.373.207 1.724-.361s1.057-.774 1.57-.457c.511.316.93-.11.93-.949 0-.838.9-2.005 2-2.594 1.44-.77 2-.76 2 .036 0 .706.503.628 1.388-.215 3.401-3.236 5.763-4.846 6.471-4.408 1.174.725 6.262-2.949 5.4-3.899-.418-.459-.27-.556.328-.216.598.34 2.17-.14 3.493-1.067 1.324-.927 3.05-1.78 3.838-1.895.788-.116 1.788-.847 2.224-1.625.435-.777 2.831-2.193 5.325-3.145 2.493-.952 4.533-2.17 4.533-2.708 0-.537.366-.75.812-.474.447.276 2.135-.37 3.75-1.434 1.616-1.065 3.89-1.94 5.052-1.943 1.162-.004 3.302-1.196 4.755-2.648 2.187-2.187 2.425-2.902 1.386-4.153-.939-1.13-1.333-10.16-1.565-35.87-.27-30.068-.115-34.554 1.25-35.92 1.764-1.763 2.044-3.416.58-3.416-.578 0-.788-2.256-.512-5.5l.468-5.5h-4.988c-3.316 0-4.993.42-5.003 1.25-.012.926-.237.9-.87-.098-.71-1.12-1.082-1.102-2.205.1-.743.795-2.152 1.236-3.13.98-.98-.256-1.836.037-1.905.651-.291 2.603-.415 2.99-1.208 3.784-.459.458-.684.383-.5-.167.342-1.026-.361-1.5-2.226-1.5-.582 0-.784.445-.448.989.336.543.009.757-.726.475-.736-.282-2.364.443-3.618 1.612-1.255 1.169-2.544 1.862-2.866 1.54-.32-.32-1.643.56-2.938 1.957-1.295 1.397-2.755 2.292-3.245 1.989-.49-.303-1.15.126-1.467.953-.318.827-.927 1.41-1.355 1.296-1.557-.415-5.292 1.358-4.74 2.25.311.504-.132.648-.986.32-.902-.346-1.552-.062-1.552.679 0 .7-.263 1.01-.585.689-.321-.322-1.333.057-2.25.841-.916.785-1.933 1.31-2.261 1.168-.973-.421-3.924 2.4-3.399 3.25.266.43-.189 1.04-1.01 1.356-.823.315-1.509.025-1.525-.645-.017-.67-.49-.431-1.05.531-.56.963-2.01 1.757-3.22 1.765-1.787.013-1.918.198-.7.985.825.533 1.2.976.832.985-.368.008-1.454.316-2.414.685-1.297.498-1.556.305-1.008-.75.406-.781.093-.633-.696.33-.789.963-1.92 1.75-2.515 1.75-.595 0-1.402.52-1.794 1.155-.473.763-.271.88.595.345.892-.551 1.068-.42.553.414-.415.672-1.39.979-2.166.681-1.904-.73-6.482 1.442-5.701 2.706.343.554.156.72-.414.367-.57-.352-2.102.159-3.404 1.135-1.303.977-3.493 2.351-4.868 3.054-5.733 2.928-8.735 4.818-10.99 6.919-1.313 1.223-3.202 2.224-4.199 2.224-.996 0-1.811.477-1.811 1.059s-.399.812-.887.511c-.487-.301-1.442.122-2.122.941-.68.819-1.833 1.489-2.564 1.489-.73 0-1.728.715-2.217 1.59-.49.874-1.179 1.567-1.532 1.54-.353-.027-2.562.823-4.91 1.889-2.347 1.065-3.867 1.947-3.377 1.959.49.012-1.76 1.43-5 3.153-3.24 1.722-6.166 3.56-6.503 4.085-.336.525-1.011.977-1.5 1.005-1.635.092-5.388 2.09-5.388 2.87 0 .423-1.013.914-2.25 1.09-1.457.206-2.153.91-1.973 1.994.152.92-.255 2.003-.905 2.404-.714.442-.916.301-.51-.355 1.202-1.945-.794-2-3.862-.106-1.65 1.019-3.9 2.267-5 2.773-1.1.507-4.475 3.207-7.5 6-5.372 4.96-5.453 5.117-3.5 6.697 1.972 1.596 1.969 1.61-.25.948-1.347-.402-2.25-.242-2.25.397 0 .587.69 1.067 1.531 1.067.843 0 1.78.647 2.084 1.439.304.791 1.793 1.711 3.309 2.044 1.516.333 4.966 2.055 7.666 3.827 7.577 4.972 28.022 16.69 29.12 16.69.54 0 1.795.9 2.791 2.001.996 1.1 4.103 3.155 6.905 4.564 2.802 1.41 5.994 3.114 7.094 3.786 1.1.672 4.25 2.456 7 3.962 2.75 1.507 6.35 3.595 8 4.64 3.691 2.339 3.981 2.377 5.369.705zm218.381-28.32c-.688-.278-1.813-.278-2.5 0-.688.277-.125.504 1.25.504s1.938-.227 1.25-.504zM398 143c0-.55-.477-1-1.059-1s-.78.45-.441 1c.34.55.816 1 1.059 1s.441-.45.441-1zm-65-39.455c0-.772-2.976-1.392-3.399-.709-.254.412.406.814 1.468.894 1.062.08 1.931-.003 1.931-.185z"/><path style="fill:#e2eafd" d="M0 256V0h512v512H0Zm343.543-49.866c-.494-1.553-.173-1.786 1.914-1.387 2.002.383 2.706-.047 3.5-2.134.666-1.752 1.743-2.617 3.268-2.627 4.288-.025 6.606-1.177 7.21-3.58.409-1.631 1.322-2.413 2.834-2.428 1.227-.012 3.356-.902 4.731-1.978s3.025-1.966 3.667-1.978c.641-.012 1.323-.492 1.514-1.066.192-.575 1.354-1.12 2.584-1.213 1.23-.093 2.235-.523 2.235-.956 0-.433.675-.787 1.5-.787s1.5-.45 1.5-1 .87-1 1.933-1c1.063 0 2.213-.884 2.556-1.965.395-1.246 1.885-2.202 4.067-2.612 1.894-.355 3.444-1.046 3.444-1.534 0-.49.9-.889 2-.889 1.111 0 2-.667 2-1.5 0-.987.987-1.5 2.884-1.5 2.095 0 3.871-1.094 6.497-4 2.005-2.22 4.537-4 5.688-4 2.698 0 4.931-2.287 4.931-5.051 0-1.775.27-1.97 1.411-1.023 1.08.897 1.585.89 2.153-.03.427-.69-.04-1.771-1.102-2.548-1.014-.741-1.51-1.348-1.102-1.348.723 0-1.451-2.17-6.765-6.75-1.436-1.238-3.057-2.25-3.603-2.25a1 1 0 0 1-.992-1c0-.55-.62-1-1.378-1-.757 0-1.954-.695-2.66-1.546-.705-.85-1.88-1.316-2.61-1.036s-1.22-.036-1.09-.704c.13-.668-.556-1.08-1.525-.917-.97.163-2.015-.359-2.323-1.16-.307-.801-1.651-1.73-2.986-2.066-1.336-.335-2.428-1.036-2.428-1.559 0-.522-.749-.662-1.664-.31-1.248.478-1.45.283-.808-.782.686-1.139.484-1.123-1.023.08-1.705 1.36-1.819 1.338-1.224-.25.422-1.125.175-1.75-.69-1.75-.74 0-1.915-.685-2.61-1.523-.779-.938-2.034-1.277-3.273-.884-1.588.504-1.876.287-1.37-1.03.376-.98.232-1.415-.35-1.056-.543.336-.988.23-.988-.235 0-.466-.897-.914-1.994-.997-1.097-.082-3.01-1.327-4.25-2.767-1.24-1.439-2.998-2.724-3.905-2.856-.907-.132-2.322-.798-3.145-1.48-.822-.684-1.88-1.173-2.35-1.089-2.04.366-3.427-.16-2.856-1.083.34-.55.165-1-.39-1-.554 0-2.212-1.117-3.684-2.481-1.473-1.365-3.071-2.238-3.552-1.941-.48.297-.874.063-.874-.519 0-.582-.337-.978-.75-.879-1.18.284-8.25-3.458-8.25-4.365 0-.448-.436-.815-.969-.815-.532 0-.71.675-.393 1.5.317.825.078 1.5-.531 1.5s-1.163-.45-1.232-1c-.069-.55-.181-1.478-.25-2.061-.23-1.96-10.908-7.984-12.983-7.325-1.52.482-1.805.253-1.305-1.05.354-.921.225-1.411-.287-1.095-.51.315-1.292-.08-1.739-.877-.446-.797-1.153-1.473-1.571-1.5-.419-.029-2.12-.754-3.78-1.613-1.66-.858-3.525-1.248-4.144-.865-.644.398-.85.249-.48-.35.356-.575-.474-1.78-1.845-2.678-1.37-.898-2.491-1.397-2.491-1.11 0 .289-.9-.376-2-1.476s-2.9-2-4-2-2-.363-2-.808c0-.444-1.823-1.611-4.05-2.594-2.229-.983-5.227-2.877-6.664-4.208-1.649-1.529-3.29-2.206-4.449-1.838-1.153.366-1.837.088-1.837-.744 0-.73-.96-1.927-2.134-2.66-1.76-1.099-2.276-1.102-2.946-.018-.637 1.03-.952.95-1.459-.37-.355-.926-1.617-1.981-2.803-2.344-1.187-.364-2.716-1.107-3.398-1.652-3.928-3.142-27.26-1.901-27.26 1.45 0 .524-.528.777-1.174.561-1.006-.335-22.964 12.087-29.554 16.719-1.225.86-2.473 1.533-2.774 1.494-1.014-.133-6.498 3.436-6.498 4.228 0 .431-.865.784-1.923.784s-3.308 1.165-5 2.589c-1.692 1.424-3.084 2.211-3.092 1.75-.008-.461-.442-.164-.964.661-.521.825-1.333 1.5-1.803 1.5-1.009 0-17.041 9.252-19.218 11.09-.825.697-1.95 1.365-2.5 1.484-.55.12-2.638 1.25-4.64 2.515-2.003 1.264-5.715 3.273-8.25 4.464-2.536 1.192-4.61 2.515-4.61 2.94 0 .426-.787 1.043-1.75 1.372-3.416 1.169-11.747 6.436-11.57 7.317.098.491-.883.981-2.181 1.089-1.298.107-4.03 1.328-6.07 2.712-2.04 1.384-4.32 2.517-5.069 2.517-.748 0-1.36.348-1.36.773 0 .425-1.688 1.643-3.75 2.707-4.976 2.566-17.251 10.361-18.651 11.844-2.775 2.937-6.599 7.898-6.599 8.56 0 .402 3.712 2.684 8.25 5.072 4.537 2.388 8.925 4.886 9.75 5.552.825.667 3.975 2.548 7 4.181s7.434 4.19 9.799 5.684c2.364 1.492 5.377 3.124 6.695 3.625 1.319.501 4.56 2.4 7.202 4.22 2.642 1.82 7.275 4.628 10.294 6.239 3.02 1.611 6.97 3.933 8.778 5.16 1.809 1.228 5.331 3.22 7.828 4.43l4.54 2.197 2.896-2.775c1.593-1.526 2.654-3.167 2.358-3.647-.296-.48-.168-.807.286-.728.453.078 1.162.033 1.574-.1a14.426 14.426 0 0 1 1.5-.383c2.042-.38 12.35-6.957 13.207-8.427.585-1.002.994-1.172 1.013-.42.019.81 1.382.364 3.78-1.235 2.062-1.374 5.212-3.158 7-3.963 1.787-.805 3.25-1.963 3.25-2.574 0-.61.399-.863.887-.562.487.301 1.438-.117 2.113-.93.675-.813 1.598-1.248 2.052-.968.454.28 1.289-.287 1.856-1.261.567-.974 1.045-1.412 1.062-.973.016.439 1.942-.512 4.28-2.113 2.337-1.601 5.183-3.203 6.324-3.56 1.14-.356 2.94-1.43 4-2.386 2.397-2.165 17.497-9.736 23.073-11.57 2.901-.954 4.687-1.062 5.947-.357 1.244.697 1.912.67 2.165-.09.218-.652 1.153-.31 2.303.84 1.066 1.066 2.783 1.938 3.816 1.938 1.032 0 2.465.708 3.183 1.573s3.023 2.45 5.122 3.52c2.1 1.071 3.817 2.437 3.817 3.034 0 .598.72.811 1.598.474.95-.364 2.808.405 4.577 1.893 1.638 1.378 3.435 2.506 3.994 2.506 1.558 0 5.847 3.65 5.13 4.367-.348.348.08.633.951.633.87 0 1.81-.562 2.088-1.25.301-.747.536-.545.583.5.043.963.55 1.75 1.127 1.75.576 0 2.039 1.035 3.25 2.3 1.211 1.265 2.947 2.14 3.857 1.945.91-.195 2.26.457 3 1.45.74.993 2.02 1.954 2.845 2.136.825.182 1.865.979 2.311 1.77.447.793 1.242 1.175 1.768.85.526-.325 2.7.79 4.833 2.479 4.516 3.577 4.776 3.64 5.45 1.32.372-1.28.459-1.187.323.347-.102 1.153.04 2.055.315 2.004.275-.051 1.904.906 3.62 2.128 1.715 1.222 4.365 2.695 5.888 3.274 1.523.58 2.478 1.344 2.122 1.7-.571.572 3.098 5.297 4.112 5.297.216 0 .126-.84-.2-1.866zM306.5 181c-.34-.55-.141-1 .441-1s1.059.45 1.059 1-.198 1-.441 1-.72-.45-1.059-1zm18.5-78.107c0-.609.675-.848 1.5-.531.825.316 1.5.113 1.5-.452 0-.566.498-.72 1.107-.344.771.477.696.944-.25 1.544-1.904 1.206-3.857 1.096-3.857-.217Zm-25-16.952c0-.582.45-.78 1-.441.55.34 1 .816 1 1.059s-.45.441-1 .441-1-.477-1-1.059z"/><path style="fill:#d1e2fc" d="M0 256V0h512v512H0Zm421.5 94c-.34-.55-.19-1 .333-1 .933 0 2.265-3.554 2.81-7.5.523-3.778.344-168-.187-171.975-.292-2.187-1.461-4.966-2.598-6.176-1.137-1.21-1.815-2.61-1.505-3.11.51-.826-1.284-3.557-5.353-8.149-2.14-2.415-7.754-6.428-13.079-9.348-7.373-4.044-9.39-5.211-9.921-5.742-.275-.275-2.075-1.285-4-2.245-4.283-2.135-8.888-4.788-12.66-7.294a95.103 95.103 0 0 0-5.84-3.523c-1.65-.9-7.05-4.037-12-6.971-7.998-4.741-14.175-8.29-24-13.788-1.65-.924-3.225-1.904-3.5-2.179-.852-.852-8.325-4.514-8.672-4.25-.18.137-1.207-.63-2.282-1.704-1.075-1.075-3.926-2.853-6.337-3.95-2.41-1.099-4.96-2.694-5.668-3.546-.707-.853-1.616-1.55-2.02-1.55-.404 0-4.736-2.312-9.627-5.138A1814.384 1814.384 0 0 0 283 73.756c-1.925-1.083-4.057-2.422-4.737-2.974-.68-.553-1.913-.747-2.738-.43-.826.317-1.394.255-1.263-.138.13-.393-.162-.788-.65-.879-.489-.09-1.164-.55-1.5-1.02-1.407-1.967-6.976-3.468-14.544-3.919-6.75-.402-9.06-.106-14.141 1.812-4.786 1.806-24.436 12.799-51.427 28.77-4.849 2.869-19.03 11.113-22 12.79-9.89 5.582-21.239 12.322-24.639 14.633-2.104 1.43-4.113 2.599-4.464 2.599-.35 0-5.759 3.002-12.017 6.67a9689.099 9689.099 0 0 1-19.571 11.44c-9.296 5.413-13.536 8.904-16.355 13.464-2.046 3.311-2.651 6.975-.98 5.943.534-.331 4.692 1.555 9.238 4.19 4.546 2.636 9.17 5.28 10.277 5.875 1.106.595 1.887 1.64 1.736 2.324-.15.683.201.948.783.589.582-.36 2.73.35 4.775 1.576 2.044 1.226 6.642 3.813 10.217 5.748 3.575 1.936 6.734 3.865 7.02 4.288.287.422 1.795 1.252 3.352 1.844 1.557.592 5.147 2.588 7.98 4.435 2.831 1.847 8.298 5.201 12.148 7.454 3.85 2.253 7.515 4.533 8.143 5.068.63.534 1.417.699 1.75.365.334-.333.607-.023.607.689s1.688-.515 3.75-2.727c3.225-3.46 18.018-12.507 52.625-32.187 1.719-.977 7.4-4.287 12.625-7.355 10.11-5.937 16.465-7.994 20.83-6.742 1.479.424 5.16 2.049 8.18 3.61 3.02 1.562 5.84 2.745 6.268 2.63.428-.115 1.038.47 1.357 1.3.318.83.955 1.509 1.414 1.509.688 0 6.264 3.18 15.951 9.098.825.504 2.625 1.467 4 2.139 1.375.672 2.725 1.523 3 1.89.275.368 2.525 1.75 5 3.07 2.475 1.322 5.625 3.137 7 4.035 1.375.897 3.175 1.775 4 1.95.825.175 1.725.601 2 .947.641.806 15.947 9.847 16.833 9.943 1.645.178 6.323 7.153 7.438 11.09 1.556 5.492 1.288 93.301-.281 92.332-1.405-.869-1.231 1.865.21 3.306.66.66 2.165 1.2 3.345 1.2 1.18 0 2.96.9 3.955 2 .995 1.1 2.355 2 3.02 2 .666 0 2.325.877 3.687 1.948 1.362 1.072 5.667 3.55 9.565 5.506 3.898 1.956 8.356 4.624 9.908 5.929 1.55 1.305 5.295 3.709 8.32 5.342l12 6.478c3.575 1.93 8.23 4.684 10.344 6.122 2.114 1.437 5.602 3.389 7.75 4.337 2.148.947 3.906 2.086 3.906 2.53 0 .445.927.808 2.059.808 1.132 0 1.78-.45 1.441-1z"/><path style="fill:#d2defd" d="M0 256V0h512v512H0Zm269.783 188.366c.554.342 1.26-.035 1.569-.84.646-1.684-.709-2.753-3.738-2.948-2.936-.19-3.832 1.542-1.808 3.495 1.013.978 1.95 1.24 2.332.653a1.214 1.214 0 0 1 1.645-.36zm-10.12-3.616c-.278-.688-.505-.125-.505 1.25s.227 1.938.504 1.25c.278-.688.278-1.813 0-2.5zm26.114-4.307c3.28-2.297 2.702-3.742-.777-1.943-1.65.853-3 1.99-3 2.526 0 1.394 1.225 1.205 3.777-.583zM260 431c0-2.796-.459-5-1.04-5-.964 0-1.158 7.515-.239 9.25.906 1.712 1.279.472 1.279-4.25zm22-.458c0-.298-.9-.542-2-.542-1.504 0-2 .667-2 2.689v2.688l2-2.147c1.1-1.18 2-2.39 2-2.688zm11.73.854c-.333-.332-1.196-.368-1.918-.08-.797.32-.56.557.605.605 1.054.043 1.644-.193 1.312-.525zm3.667-2.23c.283-.458-.14-.833-.941-.833-.8 0-1.456.375-1.456.834 0 .458.423.833.941.833s1.173-.375 1.456-.833zm9.862-6.582c2.2-2.197 3.116-2.595 3.722-1.614.612.99 1.059.825 1.872-.695.982-1.835.768-1.987-2.642-1.886-3.483.104-3.73-.089-4.024-3.139-.381-3.95-1.278-4.115-2.937-.543-1.627 3.504-1.576 4.777.25 6.293 1.925 1.598 1.942 3.107.026 2.371-.811-.31-2.145.105-2.964.924-1.318 1.319-1.187 1.473 1.145 1.347 1.449-.078 3.947-1.454 5.552-3.058zm9.741-6.643c0-.518-.45-.941-1-.941s-1 .702-1 1.559.45 1.28 1 .941c.55-.34 1-1.041 1-1.559zM260 410c0-7.659 1.784-7.856 2.261-.25.323 5.15.38 4.941.55-2 .154-6.306-.09-7.75-1.311-7.75-1.167 0-1.5-1.333-1.5-6 0-3.333-.444-6-1-6-.55 0-1 2.481-1 5.514 0 3.032-.563 6.466-1.25 7.63-1 1.694-1 2.208 0 2.57.808.293 1.25 2.544 1.25 6.37 0 3.277.446 5.916 1 5.916.556 0 1-2.667 1-6zm66.22 3.18c.771-.771.486-1.034-1.002-.922-1.144.087-1.86.514-1.59.95.27.435.051.792-.486.792-.536 0-1.155-.54-1.375-1.2-.259-.776-.617-.633-1.015.405-.478 1.244-.054 1.542 1.886 1.33 1.376-.152 2.988-.76 3.581-1.354zm2.78-4.052c0-1.42-.994-2.031-4.112-2.53-3.92-.627-6.888.438-6.888 2.472 0 .454 2.362.99 5.25 1.193 2.888.202 5.362.45 5.5.552.138.102.25-.657.25-1.687zm11.638-5.628c-.417-1.088.115-1.5 1.939-1.5 2.45 0 7.84-4.25 6.76-5.33-.691-.691-5.61 1.153-6.374 2.39-.318.514-1.95 1.094-3.626 1.29-7.156.832-7.142 4.087.02 4.534 1.262.079 1.673-.364 1.281-1.384zm14.12-9.394c1.844.682 2.242.48 2.242-1.138 0-1.52-.683-1.968-3-1.968-2 0-3 .5-3 1.5 0 .825-.477 1.5-1.059 1.5s-.739.518-.347 1.151c.509.824 1.026.721 1.817-.36.785-1.074 1.758-1.273 3.348-.685zm-7.929-1.458c.255-1.321-.156-1.732-1.477-1.477-1.006.193-1.988 1.175-2.181 2.181-.255 1.321.156 1.732 1.477 1.477 1.006-.193 1.988-1.175 2.181-2.181zM266 390c0-1.556.667-2 3-2 2.933 0 3-.111 3-5s-.067-5-3-5c-2.64 0-3 .346-3 2.883 0 2.043-.583 3.036-2 3.407-1.532.4-2 1.364-2 4.116 0 2.927.371 3.594 2 3.594 1.333 0 2-.667 2-2zm99.167-.485c1.787-.04 1.89-1.515.107-1.515-1.133 0-2.328.698-2.656 1.552-.409 1.067-.208 1.306.643.765.682-.432 1.539-.793 1.906-.802zm5.326-2.504c.35-.566-.051-.734-.941-.393-1.732.665-2.05 1.382-.611 1.382.518 0 1.216-.445 1.552-.989zM362 384.5c0-.76-.45-1.66-1-2-.57-.352-1 .51-1 2s.43 2.352 1 2c.55-.34 1-1.24 1-2zm6 0c0-.833-.889-1.5-2-1.5-1.992 0-2.601 1.066-1.333 2.333 1.218 1.218 3.333.69 3.333-.833Zm8.662-3.75c-.277-.688-.504-.125-.504 1.25s.227 1.938.504 1.25c.278-.688.278-1.813 0-2.5zm7.918-2.503c-.457-.457-6.58 2.578-6.58 3.262 0 .252 1.57-.29 3.487-1.204 1.919-.915 3.31-1.841 3.093-2.058zM376 375.5c0-.825-.45-1.5-1-1.5s-1 .675-1 1.5.45 1.5 1 1.5 1-.675 1-1.5zm15.034-3.083c.35-1.913 1.105-2.873 2.19-2.788.91.07 1.912-.542 2.227-1.362.404-1.054.106-1.31-1.021-.878-.877.336-3.582.611-6.012.611-4.365 0-4.418.04-4.418 3.43 0 2.765.437 3.514 2.25 3.857 3.524.667 4.212.254 4.784-2.87zm13.706-6.697c-.132-.67.547-1.088 1.51-.926 1.313.22 1.75-.392 1.75-2.45 0-2.134-.267-2.477-1.2-1.544-1.869 1.869-3.375 1.429-4.644-1.356-.64-1.406-1.559-2.313-2.04-2.015-1.714 1.059-1.87 5.84-.28 8.609 1.276 2.223 1.968 2.602 3.375 1.85.973-.522 1.661-1.497 1.529-2.168zm16.01-13.413c2.398-2.993 4.518-9.064 3.653-10.463-.286-.464-.044-.844.538-.844.737 0 1.059-25.683 1.059-84.462 0-82.99-.036-84.56-2.072-90-1.14-3.046-2.516-5.538-3.059-5.538-.543 0-.743-.395-.445-.878.692-1.119-5.373-8.995-8.95-11.622-1.497-1.1-5.099-3.35-8.004-5-4.964-2.82-29.002-16.816-32.632-19-.914-.55-5.189-3.023-9.5-5.496-10.38-5.954-9.604-5.502-23.07-13.456-6.472-3.824-19.643-11.502-29.268-17.061-9.625-5.56-19.075-11.098-21-12.307-1.925-1.209-7.727-4.331-12.893-6.939-9.389-4.739-9.397-4.741-19.5-4.697-8.633.038-10.847.402-15.181 2.5-3.688 1.785-73.83 42.38-98.426 56.963-8.244 4.888-27.48 15.974-31.18 17.97-7.86 4.237-13.584 8.715-16.777 13.122-3.29 4.542-4.075 8.234-1.543 7.263 2.24-.86 1.812 1.4-.5 2.638-1.1.589-2 1.981-2 3.094 0 1.113.454 1.743 1.009 1.4 2.053-1.268 4.991.596 4.991 3.167 0 1.685.666 2.7 2 3.05 1.107.289 2 1.363 2 2.406 0 1.035.45 1.883 1 1.883s1-.9 1-2c0-1.33.667-2 1.99-2 1.895 0 1.908-.096.278-2-.942-1.1-2.287-2-2.99-2-1.984 0-1.505-2.707.574-3.251 2.293-.6 11.75 4.557 11.373 6.201-.15.66.2.905.78.547 1.186-.733 9.995 4.095 9.995 5.478 0 .49-.9 1.176-2 1.525-2.596.824-2.596 3.5 0 3.5 1.1 0 2-.502 2-1.117s.877-.887 1.952-.606c1.074.281 2.086.143 2.25-.307.293-.804 3.18.391 9.499 3.934 2.359 1.323 2.906 2.089 2.083 2.913-1.35 1.349.425 2.133 4.216 1.862 1.877-.134 2.5.31 2.503 1.783.002 1.505.715 1.98 3.058 2.035 1.861.045 5.963 1.955 10.497 4.889 6.809 4.405 7.144 4.772 3.942 4.318-1.925-.272-4.513-.82-5.75-1.216-1.42-.455-2.25-.31-2.25.395 0 .615.9 1.117 2 1.117 1.333 0 2 .667 2 2 0 1.512.671 2.003 2.75 2.014 1.512.008 3.814.298 5.114.646 2.1.562 2.283.379 1.643-1.639-.43-1.355-.339-2.035.227-1.685.521.322 1.924-.735 3.117-2.349 1.193-1.613 6.327-5.364 11.41-8.335 5.081-2.971 21.839-12.77 37.239-21.777l28-16.375h13l32.5 18.894a30170.658 30170.658 0 0 0 36.56 21.234c5.485 3.16 8.201 6.235 10.234 11.584 1.543 4.06 1.658 8.643 1.206 47.889-.446 38.75-.687 43.764-2.25 46.803-1.787 3.475-2.375 5.63-.905 3.312.969-1.526 4.155-.553 4.155 1.27 0 1.242 5.762 4.224 7.25 3.752.413-.131.75 2.237.75 5.262v5.5h3.917c2.228 0 4.109.539 4.363 1.25.26.727.817.879 1.333.363s.364-1.074-.363-1.333c-.688-.246-1.25-1.31-1.25-2.363 0-1.21-.694-1.917-1.883-1.917-1.043 0-2.117-.893-2.407-2-.663-2.535 1.237-2.604 4.405-.16 1.312 1.011 5.085 3.062 8.385 4.556 3.3 1.494 7.125 3.743 8.5 4.998 1.375 1.254 4.969 3.312 7.987 4.573 5.565 2.325 11.847 6.473 13.324 8.798.447.702 1.291.98 1.877.619.715-.442.767-.127.16.958-.498.89-.732 3.426-.521 5.638.302 3.17.79 4.02 2.31 4.02 1.575 0 1.883-.63 1.692-3.465-.128-1.905.035-3.732.362-4.06.327-.326 2.886.67 5.687 2.215 3.768 2.079 5.097 3.396 5.108 5.06.008 1.238.577 2.286 1.264 2.329 1 .063 1 .18 0 .583-.687.278-1.25 1.367-1.25 2.421 0 1.055-.402 1.917-.893 1.917s-1.172.788-1.514 1.75c-.588 1.658 3.226-2.29 8.156-8.443zM96.714 166.017c-.437-1.668-.226-1.826 1.327-.994 2.76 1.477 3.332 2.977 1.134 2.977-1.096 0-2.169-.864-2.461-1.983zM259 359c0-.55-.45-1-1-1s-1 .45-1 1 .45 1 1 1 1-.45 1-1zm25-1c0-1.333.667-2 2-2s2-.667 2-2 .667-2 2-2c1.481 0 2-.667 2-2.571 0-1.415.635-3.207 1.411-3.983 1.718-1.718 1.062-4.708-1.554-7.075-1.672-1.513-1.856-1.532-1.321-.138.475 1.238.157 1.5-1.344 1.107-1.658-.433-1.946-.03-1.84 2.573.082 1.992.663 3.115 1.637 3.166 1.027.054 1.11.24.261.583-.688.278-1.25 1.817-1.25 3.421 0 2.574-.352 2.917-3 2.917-2.833 0-3 .222-3 4 0 2.2.45 4 1 4s1-.9 1-2zm-18-3c0-.55-1.913-.968-4.25-.93-3.292.055-3.799.264-2.25.93 2.789 1.198 6.5 1.198 6.5 0zm146-1c0-1.1-.45-2-1-2s-1 .9-1 2 .45 2 1 2 1-.9 1-2zm-141-3c-.825-.533-1.95-.97-2.5-.97s-.325.437.5.97c.825.533 1.95.97 2.5.97s.325-.437-.5-.97zm11.004-2.75c.002-.963.895-3.212 1.985-5 2.306-3.781 1.036-4.463-1.397-.75-.901 1.375-2.501 2.5-3.556 2.5-2.28 0-3.429 1.534-2.656 3.548.822 2.142 5.62 1.888 5.624-.298zM101.314 343h5.467l.409-3.5c.403-3.458.362-3.5-3.39-3.5-3.555 0-3.8-.193-3.8-3 0-2.333-.444-3-2-3-1.1 0-2-.45-2-1s-1.575-1-3.5-1c-3.417 0-3.5-.095-3.5-4 0-2.889.417-4 1.5-4 .833 0 1.5-.889 1.5-2 0-1.333.667-2 2-2s2 .667 2 2 .667 2 2 2c1.556 0 2-.667 2-3s-.444-3-2-3c-1.1 0-2-.45-2-1s-1.575-1-3.5-1c-3.417 0-3.5-.095-3.5-4 0-2.889.417-4 1.5-4 .833 0 1.5-.889 1.5-2 0-1.333.667-2 2-2s2 .667 2 2 .667 2 2 2c1.556 0 2-.667 2-3s-.444-3-2-3c-1.1 0-2-.45-2-1s-1.575-1-3.5-1c-3.417 0-3.5-.095-3.5-4 0-2.889.417-4 1.5-4 .833 0 1.5-.889 1.5-2 0-1.333.667-2 2-2s2 .667 2 2 .667 2 2 2c1.556 0 2-.667 2-3s-.444-3-2-3c-1.1 0-2-.45-2-1s-1.575-1-3.5-1c-3.417 0-3.5-.095-3.5-4 0-2.889.417-4 1.5-4 .833 0 1.5-.889 1.5-2 0-1.333.667-2 2-2s2 .667 2 2 .667 2 2 2c1.556 0 2-.667 2-3s-.444-3-2-3c-1.1 0-2-.45-2-1s-1.575-1-3.5-1c-3.417 0-3.5-.095-3.5-4 0-2.889.417-4 1.5-4 .833 0 1.5-.889 1.5-2 0-1.333.667-2 2-2s2 .667 2 2 .667 2 2 2c1.556 0 2-.667 2-3s-.444-3-2-3c-1.1 0-2-.45-2-1s-1.575-1-3.5-1c-3.417 0-3.5-.095-3.5-4 0-2.889.417-4 1.5-4 .833 0 1.5-.889 1.5-2 0-1.333.667-2 2-2s2 .667 2 2 .667 2 2 2c1.556 0 2-.667 2-3s-.444-3-2-3c-1.1 0-2-.45-2-1s-1.575-1-3.5-1c-3.417 0-3.5-.095-3.5-4 0-2.889.417-4 1.5-4 .833 0 1.5-.889 1.5-2 0-1.333.667-2 2-2s2 .667 2 2 .667 2 2 2c1.556 0 2-.667 2-3s-.444-3-2-3c-1.1 0-2-.45-2-1s-1.575-1-3.5-1c-3.417 0-3.5-.095-3.5-4 0-2.889.417-4 1.5-4 .833 0 1.5-.889 1.5-2 0-1.333.667-2 2-2s2 .667 2 2 .667 2 2 2c1.556 0 2-.667 2-3s-.444-3-2-3c-1.1 0-2-.45-2-1s-1.575-1-3.5-1c-3.417 0-3.5-.095-3.5-4 0-2.889.417-4 1.5-4 .833 0 1.5-.889 1.5-2 0-1.333.667-2 2-2s2 .667 2 2 .667 2 2 2c1.556 0 2-.667 2-3s-.444-3-2-3c-1.1 0-2-.45-2-1s-1.519-1-3.375-1c-2.98 0-3.448-.366-4-3.125-.344-1.719-.625-4.719-.625-6.667 0-1.948-.234-3.308-.52-3.022-.285.285-.532 38.397-.55 84.692-.03 83.328-.01 84.201 2.023 87.056 1.167 1.639 1.782 3.593 1.425 4.524-.346.902.743.268 2.42-1.41 2.654-2.654 3.755-3.048 8.516-3.048ZM408 347c0-.55-.477-1-1.059-1s-.78.45-.441 1c.34.55.816 1 1.059 1s.441-.45.441-1zm-12-5c0-1.1-.45-2-1-2s-1 .9-1 2 .45 2 1 2 1-.9 1-2zm-92-3c0-.55-.9-1-2-1s-2.004-.338-2.008-.75c-.004-.412-1.097-1.255-2.428-1.872-2.862-1.327-4.57-.12-3.832 2.706.408 1.558 1.414 1.916 5.385 1.916 2.685 0 4.883-.45 4.883-1zm32-9.78c0-5.631.338-7.022 2-8.22 2.424-1.747 2.776-7 .469-7-.843 0-1.815-.738-2.161-1.64-.57-1.483-.758-1.465-1.967.188-.735 1.006-2.253 1.968-3.372 2.139-2.5.381-6.969 3.221-6.969 4.428 0 .487 1.35.885 3 .885 2.773 0 3 .27 3 3.571 0 3.782-1.823 6.429-4.429 6.429-1.079 0-1.571.94-1.571 3v3h12zm-36.333 4.324c0-.8-.375-1.224-.834-.941-.458.283-.833.938-.833 1.456s.375.941.833.941c.459 0 .834-.655.834-1.456zM124.75 332.37c2.525-.677 3.061-2.37.75-2.37-.825 0-1.5-.45-1.5-1s1.548-1 3.441-1c1.893 0 3.72-.45 4.059-1 .38-.616-1.323-1-4.441-1-2.782 0-5.059.45-5.059 1s-.9 1-2 1c-1.304 0-2 .667-2 1.917 0 2.693 2.485 3.596 6.75 2.453zM379.5 331c-.34-.55-1.068-1-1.618-1s-.722.45-.382 1c.34.55 1.068 1 1.618 1s.722-.45.382-1zm-70.527-1.468c.67-.807 1.513-1.43 1.873-1.382 2.69.356 4.868-.462 5.98-2.244 1.25-2 1.163-2.063-1.882-1.394-3.764.827-9.944 4.299-9.944 5.587 0 1.424 2.632 1.049 3.973-.567zM136 325.059c0-.518-.45-1.22-1-1.559-.55-.34-1 .084-1 .941s.45 1.559 1 1.559 1-.423 1-.941zM371.5 325c-.34-.55-1.518-1-2.618-1-1.1 0-1.722.45-1.382 1 .34.55 1.518 1 2.618 1 1.1 0 1.722-.45 1.382-1zm-229.25-4.706c-1.407-.27-2.25-1.157-2.25-2.364 0-1.061-.45-1.93-1-1.93-1.447 0-1.231 3.74.25 4.338.688.277 2.15.478 3.25.447 1.675-.048 1.634-.128-.25-.49zM156 315c0-.55-.45-1-1-1s-1 .45-1 1 .45 1 1 1 1-.45 1-1zm0-4c0-.55-.45-1-1-1s-1 .45-1 1 .45 1 1 1 1-.45 1-1zm13.93-6.25c-.039-.688-.422-2.15-.852-3.25-.758-1.938-.804-1.931-1.495.241-.752 2.367-.096 4.259 1.476 4.259.518 0 .91-.563.87-1.25zm-2.181-68.5c-.162-10.863-.294-1.975-.294 19.75s.132 30.613.294 19.75c.161-10.863.161-28.637 0-39.5z"/><path style="fill:#c9dafc" d="M0 256V0h512v512H0Zm263.47 188.953c-.359-.582.402-.572 1.973.025 1.766.672 2.557.638 2.557-.11 0-.595.675-.823 1.5-.506.825.316 1.5.091 1.5-.5 0-.592.675-.817 1.5-.5.825.316 1.5.113 1.5-.452 0-.566.445-.753.989-.417.588.363.72-.088.326-1.115-.504-1.312-.27-1.574.98-1.095.902.346 1.911.192 2.242-.343.33-.535 1.097-.666 1.702-.292.704.435.875.092.475-.952-.345-.898-.196-1.898.33-2.223.526-.325.956-.114.956.468 0 1.773 1.96 1.19 4.485-1.335 1.317-1.317 2.646-2.142 2.954-1.833.309.308.561.035.561-.606 0-.642.948-1.167 2.107-1.167 1.43 0 1.928-.466 1.55-1.45-.377-.984-.075-1.264.945-.873 1.745.67 6.621-3.507 5.747-4.922-.325-.525.331-.461 1.457.141 1.731.927 2.537.607 5.21-2.065 2.495-2.496 3.342-2.87 4.019-1.775.7 1.134.978 1.073 1.518-.334.364-.947 1.288-1.722 2.054-1.722.766 0 1.393-.45 1.393-1s.62-1 1.378-1c.757 0 1.915-.648 2.573-1.44.657-.793 1.911-1.166 2.786-.83 1.048.401 1.347.214.875-.549-.455-.736-.194-.958.716-.609.823.316 2.315-.574 3.51-2.094 1.144-1.453 2.66-2.785 3.37-2.958 3.736-.91 5.792-1.846 5.792-2.637 0-.485.9-.883 2-.883s2-.45 2-1 .605-1 1.344-1c.74 0 2.624-1.1 4.188-2.443 1.564-1.344 3.212-2.215 3.663-1.937.45.279 1.074-.156 1.384-.966.311-.81 1.658-1.748 2.993-2.083 1.336-.335 2.428-1.05 2.428-1.59s.83-.981 1.845-.981c1.015 0 2.643-.882 3.62-1.96.975-1.078 2.057-1.906 2.404-1.839 1.61.311 6.18-2.312 5.617-3.224-.35-.565-.264-.942.19-.838 2.331.534 6.324-1.516 6.324-3.247 0-1.04.477-1.892 1.059-1.892s.776.458.43 1.017c-.345.56.978.25 2.941-.685 1.964-.936 3.57-2.096 3.57-2.576s.45-.596 1-.256c.55.34 1 .141 1-.441s.459-1.059 1.02-1.059c.56 0 2.923-1.202 5.25-2.67 2.326-1.47 4.343-2.594 4.48-2.5 1.127.767 2.347-.135 1.868-1.382-.334-.872-.171-1.29.373-.954 1.499.927 5.007-1.363 5.024-3.28.013-1.469.151-1.5.964-.214.828 1.31 1.176 1.273 2.735-.286 1.538-1.539 1.582-1.912.315-2.696-.81-.5-1.085-1.271-.613-1.714.472-.442 1.059-.241 1.304.446.785 2.198 2.991 1.35 5.926-2.28a889.533 889.533 0 0 1 5.104-6.25c5.316-6.427 5.305-6.22 5.017-97.931L425.5 169.5l-3.086-6.5c-5.357-11.282-8.524-13.794-40.414-32.059l-11.243-6.441c-.96-.55-11.31-6.603-23-13.451A9114.05 9114.05 0 0 0 309 88.489c-9.625-5.561-19.075-11.1-21-12.309-1.925-1.209-7.727-4.331-12.893-6.939-9.363-4.726-9.424-4.741-19.5-4.731-9.248.009-10.617.267-16.107 3.034-4.356 2.196-79.476 45.693-97.5 56.457-6.78 4.048-27.392 15.927-31 17.866-12.093 6.496-20 14.385-20 19.956 0 1.714-.909 4.734-2.02 6.711-1.98 3.527-2.018 5.191-2.026 87.28-.005 47.339.387 84.989.9 86.686 1.346 4.442 3.363 8.5 4.225 8.5 1.168 0 7.378-3.404 7.754-4.25.184-.412 1.196-.75 2.25-.75s1.917-.45 1.917-1 .9-1 2-1c1.333 0 2-.667 2-2 0-1.152.667-2 1.571-2 .865 0 2.269-.697 3.121-1.55.852-.851 2.845-1.807 4.429-2.124 1.583-.317 2.879-.97 2.879-1.451 0-.481.9-.875 2-.875s2-.45 2-1 .655-1 1.455-1 2.58-1.125 3.954-2.5c1.375-1.375 3.42-2.5 4.546-2.5 1.151 0 2.045-.656 2.045-1.5 0-.833.889-1.5 2-1.5 1.1 0 2.004-.338 2.008-.75.009-.898 4.852-3.25 6.691-3.25.716 0 1.301-.45 1.301-1s.9-1 2-1 2-.45 2-1 .9-1 2-1c1.333 0 2-.667 2-2 0-1.611.667-2 3.429-2 1.885 0 4.103-.675 4.928-1.5.825-.825 1.966-1.5 2.536-1.5 2.142 0 3.308-3.987 2.14-7.32-1.435-4.1-1.31-90.68.132-90.68.534 0 .667-.955.295-2.125-.396-1.248-.283-1.884.274-1.54.521.323 1.924-.734 3.117-2.348 1.193-1.613 6.327-5.364 11.41-8.335 5.081-2.971 21.839-12.77 37.239-21.777l28-16.375h13l32.5 18.894a31895.4 31895.4 0 0 0 36.732 21.335c5.42 3.125 8.938 7.333 10.272 12.287.688 2.553.96 19.052.777 47.205-.252 38.756-.462 43.631-2.015 46.65-.954 1.855-1.483 3.778-1.176 4.275.307.497.188.84-.266.76-2.042-.354-3.388.182-2.809 1.119.349.563.263.904-.19.756-1.247-.406-12.325 6.09-12.325 7.228 0 .545-.834.991-1.854.991s-3.068 1.125-4.551 2.5c-1.484 1.375-3.324 2.5-4.09 2.5-1.826 0-8.782 4.046-9.805 5.704-.44.713-1.65 1.296-2.69 1.296-2.456 0-3.66 1.975-1.888 3.096 1.1.697 1.037.876-.313.889-.93.008-1.99-.469-2.355-1.06-.424-.686-1.562-.233-3.14 1.25-1.361 1.279-2.656 2.232-2.876 2.118-1.102-.567-7.096 2.823-8.196 4.635-.693 1.14-2.17 2.072-3.282 2.072s-2.282.675-2.598 1.5c-.317.825-1.428 1.5-2.469 1.5s-1.78.53-1.643 1.178c.138.648-1.1 1.6-2.75 2.117-1.65.517-3.781 1.337-4.736 1.823-.955.485-2.98.914-4.5.952-2.494.064-2.568.163-.764 1.014 1.714.809 1.606.89-.75.569-2.324-.318-2.754-.01-2.778 1.986-.016 1.298-.028 21.261-.028 44.361 0 23.1.012 42.644.028 43.43.015.787 1.04 1.599 2.278 1.804 2.742.454 6.025-.98 5.22-2.281zM90.625 347.46c-.965-2.514-.68-3.163.498-1.136.584 1.004.85 2.036.593 2.293-.257.258-.749-.263-1.091-1.157zM202.5 417c-.34-.55-1.041-1-1.559-1s-.941.45-.941 1 .702 1 1.559 1 1.28-.45.941-1zm-10.5-6.607c0-.216-.675-.393-1.5-.393s-1.5.436-1.5.969c0 .532.675.71 1.5.393.825-.317 1.5-.753 1.5-.969zM127.5 377c-.34-.55-1.068-1-1.618-1s-.722.45-.382 1c.34.55 1.068 1 1.618 1s.722-.45.382-1zm-31.693-23.526c-.308-.308-.867.247-1.243 1.233-.542 1.425-.428 1.54.56.56.684-.679.99-1.486.683-1.793zm174.686-3.463c.35-.566-.051-.734-.941-.393-1.732.665-2.05 1.382-.611 1.382.518 0 1.216-.445 1.552-.989z"/><path style="fill:#b5d1fd" d="M0 256V0h512v512H0Zm265.5 190.644c2.75-.733 6.575-2.134 8.5-3.114 3.868-1.968 15.212-8.719 16-9.52.867-.884 4.412-2.977 6.758-3.99 4.44-1.92 32.242-18.284 32.242-18.978 0-.39.563-.713 1.25-.718.688-.005 3.725-1.465 6.75-3.244 3.025-1.78 6.175-3.626 7-4.105 7.929-4.6 41.312-24.035 44.616-25.975 2.342-1.375 8-4.656 12.571-7.29 9.466-5.455 12.914-8.343 18.157-15.21 7.418-9.715 7.156-6.087 7.156-99v-83l-2.877-7.355c-4.042-10.331-10.56-16.627-26.623-25.722-6.875-3.892-37.25-21.452-67.5-39.023-30.25-17.57-56.8-32.788-59-33.818-5.118-2.396-17.668-3.221-24.406-1.605-3.085.74-12.7 5.656-24.346 12.447-37.691 21.978-88.486 51.45-103.748 60.194-19.21 11.007-25.299 16.665-29 26.94l-2.5 6.942-.273 82.917c-.24 73.256-.087 83.551 1.313 88.368C89.317 348.897 93.423 356 95.18 356c.634 0 .874.279.533.62-.935.936 7.6 8.402 9.025 7.894.68-.243 1.13.063 1 .68-.13.617 1.112 1.838 2.762 2.714 1.65.876 3.15 1.93 3.333 2.342.184.412 1.196.75 2.25.75s1.917.348 1.917.773c0 .906 6.531 4.57 7.594 4.26.4-.117 1.107.468 1.572 1.3.465.83 2.193 1.807 3.84 2.168 1.647.362 2.994 1.072 2.994 1.578 0 .507.62.921 1.378.921.757 0 1.961.704 2.675 1.564.858 1.034 2.172 1.363 3.873.97 1.615-.373 2.09-.271 1.277.274-1.527 1.022-.247 2.398 3.83 4.117 1.357.572 4.267 2.168 6.467 3.547 2.2 1.379 5.046 2.963 6.325 3.521 1.28.558 2.999 1.688 3.822 2.51.823.824 2.139 1.497 2.924 1.497.786 0 1.429.399 1.429.886 0 .977 6.791 4.446 8.706 4.447.663 0 .986.357.716.793-.27.436 1.523 1.71 3.983 2.83 2.46 1.122 4.757 2.497 5.103 3.058.347.56 1.021.777 1.5.481.478-.295 1.234.082 1.68.838 1.076 1.823 5.465 4.158 7.162 3.81.743-.152 1.095.138.782.644-.766 1.239 3.953 3.31 5.867 2.575 1.146-.44 1.358-.124.853 1.277-.369 1.023-.301 1.526.15 1.116.452-.41 2.327.402 4.166 1.805 1.839 1.403 3.791 2.274 4.338 1.936.547-.338.994.136.994 1.052 0 1.095.532 1.462 1.552 1.07.854-.327 1.307-.198 1.007.287-.3.485.588 1.166 1.973 1.514 1.386.347 3.299 1.412 4.253 2.366 2.333 2.333 9.345 6.419 9.96 5.803.271-.27 1.099.048 1.84.71 3.327 2.972 4.24 3.544 4.784 3 .32-.32 1.243-.035 2.05.634 5.408 4.49 16.983 6.136 26.081 3.712zM247.732 353c-.942-1.1-2.643-2-3.781-2-1.138 0-1.81-.418-1.495-.928.499-.807-2.457-2.38-4.742-2.523-.433-.027-1.108-.544-1.5-1.15-1.098-1.692-5.537-3.855-7.214-3.514-.825.168-1.157-.043-.738-.469.917-.93-8.027-6.375-10.512-6.399-.963-.009-1.75-.436-1.75-.949 0-1.46-22-14.186-23.22-13.432-.651.403-.802.209-.375-.481.392-.635.236-1.211-.346-1.28-.582-.069-1.486-.181-2.009-.25-.522-.069-1.512-.687-2.2-1.375-.687-.687-1.787-1.25-2.443-1.25-.656 0-1.45-.667-1.762-1.483-.357-.93-1.236-1.244-2.357-.84-.983.353-1.447.267-1.03-.192.416-.458-.894-1.767-2.912-2.91-2.093-1.183-4.566-3.793-5.758-6.075-2.029-3.886-2.088-5.3-2.088-49.664v-45.664l3-4.217c2.539-3.569 8-7.13 35.5-23.15 43.008-25.056 43.144-25.124 49.445-24.601 4.427.367 9.57 3.018 40.457 20.858 19.461 11.241 37.079 22.084 39.149 24.096 5.88 5.712 6.15 8.333 5.776 55.842-.32 40.676-.371 41.583-2.553 45.663-2.219 4.15-7.522 8.395-15.606 12.493-2.292 1.162-4.393 2.425-4.668 2.807-.275.381-1.85 1.372-3.5 2.202-1.65.83-4.575 2.414-6.5 3.52a5169.794 5169.794 0 0 1-14.192 8.088c-5.88 3.342-12.398 7.235-14.482 8.652-2.085 1.416-4.11 2.575-4.5 2.575-.39 0-3.549 1.768-7.018 3.929-6.434 4.007-15.523 6.502-17.99 4.937-1.811-1.148-3.066-1.076-2.318.134 1.037 1.678.044 1.116-1.768-1z"/><path style="fill:#89acfd" d="M0 256V0h512v512H0Zm267.572 190.36c6.452-2.146 140.356-79.768 145.767-84.498 2.288-2 5.604-6.05 7.369-9 6.394-10.688 6.292-9.14 6.292-95.936 0-48.472-.386-80.72-1.005-84.04-1.517-8.124-6.361-17.133-11.87-22.07-2.647-2.374-17.146-11.474-32.219-20.222A68889.084 68889.084 0 0 1 314 91.106c-22.275-12.97-42.75-24.36-45.5-25.311-6.582-2.277-18.446-2.271-25 .012-2.75.957-35.6 19.477-73 41.155-75.84 43.959-76.685 44.55-81.5 57.049l-2.5 6.489v172l3.174 6.7c3.997 8.438 9.755 14.223 19.88 19.975 4.37 2.482 18.971 10.945 32.446 18.806 13.475 7.861 32.825 19.118 43 25.015 10.175 5.897 24.125 13.984 31 17.97 21.393 12.406 23.242 13.392 28.44 15.167 6.496 2.217 16.846 2.319 23.132.227zM248.5 352.156c-4.084-1.922-61.299-35.019-69.554-40.235-2.61-1.65-5.597-4.7-7-7.15L169.5 300.5v-90l2.31-3.684c2.757-4.398 3.165-4.66 43.04-27.805C248.71 159.357 251.368 158 256 158c4.511 0 7.711 1.574 32.737 16.1 46.883 27.213 48.581 28.282 50.729 31.938 1.952 3.322 2.046 5.29 2.322 48.676.353 55.257 1.528 50.48-14.832 60.312-4.551 2.736-8.37 4.974-8.488 4.974-.117 0-4.207 2.39-9.09 5.31-4.883 2.921-9.553 5.633-10.378 6.026-.825.393-4.425 2.501-8 4.685-3.575 2.184-8.975 5.332-12 6.996-3.025 1.664-7.3 4.149-9.5 5.521-8.528 5.322-15.006 6.438-21 3.618z"/><path style="fill:#648af6" d="M0 256V0h512v512H0Zm268.5 190.205c4.069-1.408 78.18-43.83 131.688-75.382 16.07-9.475 22.855-17.382 25.773-30.032 1.338-5.797 1.338-163.785 0-169.582-1.69-7.327-5.18-13.486-10.93-19.292-4.663-4.707-16.047-11.684-72.531-44.458-36.85-21.381-69.475-39.895-72.5-41.143-7.346-3.03-19.614-3.181-27.212-.336-2.909 1.088-35.438 19.453-72.288 40.81-59.641 34.566-67.715 39.538-73.51 45.27-5.056 5.002-7.066 7.891-9 12.94l-2.49 6.5-.284 80.841c-.185 52.599.078 82.818.75 86.5 1.445 7.904 6.254 17.186 11.33 21.864 4.608 4.247 9.49 7.187 77.704 46.776 24.475 14.205 48.775 28.333 54 31.396 5.225 3.064 11.75 6.355 14.5 7.314 6.554 2.286 18.414 2.292 25 .014zm-30.01-100.027A2582.335 2582.335 0 0 1 214 332.02c-14.96-8.778-21.203-12.412-30.49-17.75-3.843-2.209-8.343-5.69-10-7.736l-3.01-3.719-.297-44.158c-.164-24.287-.03-45.63.299-47.43.94-5.153 5.743-9.625 17.81-16.582A7666.82 7666.82 0 0 0 211 181.502c41.312-24.046 39.08-22.91 45.03-22.94 5.399-.028 6.396.472 41.5 20.8 19.784 11.454 37.53 22.351 39.436 24.215 4.116 4.023 4.655 3.39-9.966 11.7-8.32 4.729-21.209 12.212-40 23.225-3.025 1.773-11.238 6.513-18.25 10.533l-12.75 7.31V353h-2.76c-1.574 0-7.92-2.935-14.75-6.822z"/><path style="fill:#5c89fd" d="M0 256V0h512v512H0Zm274.57 187.958c3.812-1.948 16.277-9.054 27.7-15.79 11.425-6.735 21.55-12.533 22.5-12.884.952-.35 3.08-1.621 4.73-2.824 1.65-1.203 5.475-3.532 8.5-5.176 8.801-4.783 13.323-7.396 16-9.244 1.375-.95 7.213-4.384 12.974-7.633 5.76-3.249 11.385-6.452 12.5-7.117a82.619 82.619 0 0 1 4.526-2.457c1.375-.685 4.3-2.431 6.5-3.88 2.2-1.448 6.925-4.167 10.5-6.043 11.075-5.81 17.49-12.1 22.291-21.85l3.209-6.518V169.5l-3.717-7.604c-3.388-6.93-5.891-9.894-13.638-16.146-1.192-.963-2.452-1.75-2.8-1.75-.348 0-4.37-2.25-8.94-5-4.57-2.75-8.522-5-8.783-5-.261 0-4.141-2.25-8.622-5-4.48-2.75-8.293-5-8.471-5-.179 0-3.376-1.854-7.106-4.12s-8.839-5.266-11.352-6.666c-2.514-1.4-5.921-3.367-7.571-4.371-1.65-1.004-3.675-2.13-4.5-2.503-.825-.372-3.381-1.951-5.68-3.508-2.3-1.558-4.445-2.832-4.768-2.832-.324 0-3.551-1.8-7.172-4-3.622-2.2-6.988-4-7.482-4-.494 0-.898-.366-.898-.813 0-.448-1.575-1.432-3.5-2.187-1.925-.755-3.5-1.74-3.5-2.187 0-.447-.43-.813-.956-.813s-3.338-1.424-6.25-3.165c-8.874-5.306-26.135-14.993-31.78-17.835-1.093-.55-7.055-.988-13.25-.974-11.096.026-11.368.083-18.264 3.792-9.915 5.333-31.206 17.612-43.776 25.248-2.323 1.411-7.149 4.1-10.724 5.976-3.575 1.876-6.725 3.698-7 4.049-.275.351-3.2 2.13-6.5 3.954-3.3 1.824-11.625 6.636-18.5 10.694-6.875 4.057-13.175 7.774-14 8.258-.825.485-4.553 2.683-8.285 4.886-3.732 2.202-7.67 4.285-8.75 4.628-1.08.343-1.965 1.043-1.965 1.556 0 .513-.367.82-.816.683-1.699-.52-20.23 12.446-22.89 16.017-1.53 2.053-3.075 3.958-3.433 4.233-.357.275-1.822 3.997-3.255 8.271L85 174.042v81.874c0 79.422.06 82.07 2.028 88.438 2.778 8.997 10.78 19.21 17.813 22.74 1.463.734 3.784 2.085 5.159 3.003 1.375.918 4.075 2.552 6 3.632 3.89 2.182 13.672 7.855 16 9.278.825.504 7.125 4.148 14 8.097 6.875 3.95 19.925 11.448 29 16.664 9.075 5.215 17.175 9.989 18 10.607 1.46 1.094 2.318 1.601 9.887 5.833 1.987 1.111 10.813 6.163 19.613 11.226 21.897 12.598 21.898 12.599 34.57 12.308 9.9-.227 11.01-.467 17.5-3.784zm-22.917-92.784c-1.73-.198-4.05-1.695-5.913-3.817-2.346-2.673-3.6-3.358-5.342-2.92-1.251.313-2.555.119-2.896-.433-.34-.552-1.299-1.004-2.128-1.004-2.294 0-8.442-5.067-7.718-6.361.447-.8.26-.79-.629.03-.981.907-2.174.513-5.297-1.75-2.216-1.605-4.568-2.919-5.225-2.919s-1.986-.874-2.954-1.943c-.967-1.07-3.122-2.243-4.788-2.609-2.238-.492-2.668-.894-1.646-1.541 1.03-.653.81-.88-.867-.892-1.238-.008-2.25-.465-2.25-1.015 0-.55-.84-1-1.865-1-1.026 0-3.01-.9-4.408-2-1.398-1.1-3.012-2-3.585-2s-1.501-.787-2.062-1.75c-.56-.963-1.033-1.402-1.05-.977-.016.425-2.842-.797-6.28-2.715-3.437-1.919-6.137-3.954-6-4.523.138-.57-.087-.923-.5-.785-.412.138-1.72-.72-2.908-1.908-4.044-4.044-4.517-10.204-4.17-54.342.314-39.739.416-41.668 2.405-45.46 1.316-2.508 3.578-4.754 6.168-6.124 2.25-1.19 5.434-3.12 7.077-4.29 1.643-1.169 3.246-2.126 3.563-2.126.317 0 3.038-1.575 6.048-3.5 3.009-1.925 5.758-3.5 6.109-3.5s4.985-2.647 10.298-5.883c5.313-3.235 11.235-6.75 13.16-7.81 1.925-1.062 5.3-3.026 7.5-4.367 2.2-1.34 4.225-2.452 4.5-2.472.275-.019 2.525-1.334 5-2.923 7.114-4.567 11.928-5.672 17.46-4.007 4.208 1.266 12.801 5.886 19.75 10.617 1.49 1.015 3.01 1.845 3.376 1.845.568 0 12.13 6.74 20.414 11.899 4.84 3.015 12.52 7.198 14.25 7.763.963.314 1.75.969 1.75 1.455 0 .485.39.883.868.883 1.988 0 15.452 8.558 16.871 10.725 1.84 2.807 1.426 3.23-8.739 8.966-3.575 2.017-10.872 6.287-16.216 9.488-5.344 3.202-9.916 5.821-10.16 5.821-.243 0-5.148 2.813-10.9 6.25-5.75 3.438-13.66 8.05-17.578 10.25-3.918 2.2-9.824 5.673-13.125 7.718l-6.002 3.719-.26 47.281-.259 47.282Z"/><path style="fill:#4076fd" d="M0 256V0h512v512H0Zm271.417 189.52c3.254-1.338 6.36-2.157 6.904-1.822.543.336.709.16.368-.393-.342-.552.601-1.633 2.095-2.403 1.494-.77 2.941-1.65 3.216-1.956 1.148-1.28 28.693-16.946 29.796-16.946.662 0 1.204-.338 1.205-.75.001-.898 9.325-6.25 10.889-6.25.602 0 2.247-1.002 3.656-2.227 1.409-1.225 5.35-3.734 8.758-5.576 3.408-1.841 6.624-3.764 7.146-4.273.522-.508 1.554-.924 2.292-.924.738 0 2.207-.806 3.265-1.792 1.704-1.587 24.683-15.085 27.423-16.107.589-.22 2.143-1.232 3.455-2.25 1.312-1.018 3.187-1.851 4.167-1.851s1.931-.396 2.115-.88c.547-1.446 10.055-7.1 10.98-6.53.469.29.853.003.853-.638 0-.643.696-.899 1.552-.57.853.327 1.319.218 1.034-.243-.285-.46.704-1.467 2.198-2.237s3.047-1.85 3.45-2.4c.405-.551.742-.644.75-.207.04 2.077 11.032-10.824 13.602-15.966 1.603-3.206 3.24-6.073 3.637-6.372.398-.298.623-39.673.5-87.5L426.5 169.5l-4.273-8.5c-3.33-6.621-5.319-9.272-9-11.994-2.6-1.921-4.952-3.721-5.227-4-.275-.278-2.188-1.364-4.25-2.413-2.063-1.05-3.75-2.314-3.75-2.81 0-.495-.414-.645-.92-.333-.505.313-1.518-.022-2.25-.743-.731-.72-3.483-2.348-6.114-3.615-2.632-1.267-5.379-2.898-6.105-3.624-.726-.725-2.848-2.012-4.715-2.858-3.351-1.518-5.595-2.797-18.06-10.295-3.488-2.098-8.028-4.705-10.09-5.792-2.06-1.088-3.746-2.325-3.746-2.75 0-.425-.845-.773-1.878-.773-1.032 0-2.437-.675-3.122-1.5s-1.78-1.5-2.434-1.5c-.654 0-2.061-.787-3.127-1.75-1.067-.963-3.289-2.413-4.939-3.224-1.65-.811-5.858-3.174-9.352-5.25-3.494-2.077-6.756-3.776-7.25-3.776-.494 0-.898-.366-.898-.813 0-.448-1.575-1.432-3.5-2.187-1.925-.755-3.5-1.687-3.5-2.07 0-.383-.787-.97-1.75-1.304-.963-.334-3.55-1.671-5.75-2.972-5.038-2.98-24.25-13.884-27.25-15.467A303.723 303.723 0 0 0 269.014 65c-1.093-.55-6.954-1-13.025-1-10.693 0-11.265.113-18.264 3.626-3.974 1.994-8.356 4.424-9.74 5.4-2.332 1.646-14.47 8.497-24.962 14.088-2.462 1.312-4.937 2.924-5.5 3.581-.563.657-1.68 1.332-2.484 1.5-.803.168-2.244.98-3.202 1.805-.957.825-4.8 3.053-8.539 4.952-3.739 1.898-7.023 3.75-7.298 4.114-.275.365-3.2 2.156-6.5 3.98-3.3 1.823-11.476 6.609-18.17 10.634-6.693 4.026-12.41 7.32-12.705 7.32-.295 0-2.185 1.119-4.2 2.486-2.014 1.367-4.012 2.27-4.439 2.005-.427-.264-.993.085-1.258.776-.265.69-2.675 2.34-5.355 3.664-2.68 1.324-5.148 2.82-5.485 3.324-.336.504-.899.877-1.25.83-1.743-.233-2.492.053-4.36 1.665-1.116.963-5.198 3.775-9.073 6.25-3.874 2.475-7.77 5.721-8.66 7.214-.888 1.492-2.263 3.361-3.055 4.153-.791.791-2.576 4.825-3.965 8.962L85 173.853v81.892c0 87.77-.077 86.298 5.008 96.255 2.301 4.507 10.627 13.117 14.492 14.987 1.65.799 4.881 2.703 7.18 4.232 2.3 1.53 4.43 2.781 4.735 2.781.97 0 11.054 6.356 11.82 7.45.404.577.741.657.75.178.008-.48.695-.308 1.527.382 1.53 1.27 3.299 2.306 12.304 7.209 11.946 6.503 23.085 13.546 22.442 14.19-.383.383.077.4 1.022.037.946-.363 1.72-.21 1.72.339s1.021 1.255 2.27 1.568c1.248.313 3.225 1.46 4.393 2.548 1.168 1.088 2.397 1.706 2.73 1.372.334-.333.607-.081.607.56 0 .642.338 1.086.75.987 1.552-.373 8.139 3.551 7.553 4.5-.337.544-.173.718.363.386.536-.331 2.519.368 4.405 1.554 1.886 1.186 4.329 2.667 5.429 3.291 6.843 3.885 11.506 6.564 24 13.79 23.363 13.512 23.473 13.555 35 13.585 8.343.022 10.98-.377 15.917-2.406zm-23.272-194.342c-4.537-2.573-9.463-5.37-10.947-6.216-1.484-.846-4.522-2.708-6.751-4.138-2.23-1.43-7.18-4.245-11-6.255-3.821-2.01-13.247-7.437-20.947-12.06-7.7-4.622-16.588-9.784-19.75-11.471-3.162-1.687-5.75-3.301-5.75-3.588 0-1.43 3.405-5.45 4.615-5.45.762 0 1.385-.42 1.385-.933 0-.513 1.012-1.252 2.25-1.644 1.238-.39 3.79-1.884 5.672-3.317 1.882-1.433 3.567-2.497 3.745-2.365.177.133 2.778-1.33 5.78-3.25 3.001-1.92 5.723-3.491 6.049-3.491.325 0 6.192-3.375 13.036-7.5 6.845-4.125 12.66-7.5 12.921-7.5.262 0 2.399-1.31 4.748-2.913 2.35-1.602 4.565-2.732 4.922-2.51.358.22 1.206-.27 1.886-1.088.68-.819 1.8-1.489 2.491-1.489.69 0 1.814-.674 2.497-1.497.684-.823 3.406-2.139 6.05-2.924 4.046-1.202 5.5-1.219 9.198-.106 4.398 1.324 14.96 7.247 15.59 8.744.185.437.69.577 1.121.31.432-.267 1.813.405 3.068 1.494 1.255 1.088 2.72 1.979 3.255 1.979.95 0 15.52 8.459 20.93 12.151 1.49 1.017 3.178 1.849 3.75 1.849.573 0 1.041.401 1.041.892 0 .49 1.143 1.178 2.54 1.529 1.538.386 2.267 1.082 1.846 1.763-.39.63-.25.85.319.498 1.134-.7 6.275 1.399 6.287 2.568.004.413.408.75.897.75 1.685 0 14.614 7.981 16.361 10.1 1.62 1.963 2.566 5.05 1.099 3.582-.358-.358-1.146-.012-1.75.768-.605.78-3.799 2.876-7.099 4.657-6.909 3.728-26.711 15.322-33.865 19.829-2.676 1.685-5.489 3.064-6.25 3.064-.762 0-1.385.338-1.385.752 0 .413-2.138 1.87-4.75 3.236-2.612 1.367-8.27 4.628-12.573 7.248-4.303 2.62-8.059 4.764-8.346 4.764-.287 0-1.74.868-3.23 1.928l-2.708 1.928z"/><path style="fill:#3d77fc" d="M241.004 448.332c1.097-.54-5.55-4.332-7.593-4.332-.641 0-1.726-.675-2.411-1.5-1.804-2.173-.248-1.862 6.236 1.249 5.363 2.572 6.764 4.308 3.927 4.863-.678.133-.748.01-.159-.28zm27.598-.167c-.284-.46 1.04-1.577 2.94-2.484 1.902-.907 3.458-1.243 3.458-.747 0 .497.273 1.614.607 2.484.483 1.26-.117 1.582-2.941 1.582-1.951 0-3.78-.376-4.064-.835zM304 443c0-4.333.267-5 2-5 1.1 0 2 .45 2 1s1.8 1 4 1 4 .45 4 1 .9 1 2 1c1.556 0 2 .667 2 3v3h-16zm-25.73 1.068c.08-1.065 1.29-2.423 2.688-3.018 2.39-1.017 2.425-.991.6.434-1.866 1.458-1.835 1.516.81 1.516 1.67 0 2.495.413 2.1 1.053-.358.579-1.173.865-1.81.635-.637-.23-1.918-.028-2.846.45-1.315.675-1.656.439-1.542-1.07zm-54.634-4.574c-.315-.822-.164-1.494.336-1.494 1.356 0 2.198 1.777 1.15 2.425-.502.31-1.17-.109-1.486-.93zM289 437.642c2.61-1.3 4.773-1.844 5.149-1.296.357.52.817.091 1.023-.95.255-1.29.615-1.515 1.124-.706 1.357 2.158-3.294 5.315-7.735 5.251l-4.061-.059zm-71.81.63c-2.736-.337-3.257-.787-3-2.59.378-2.663 3.934-3.415 6.066-1.283.828.828 1.845 1.19 2.26.803.415-.386.228.31-.416 1.548-.644 1.237-1.267 2.178-1.385 2.09-.118-.088-1.705-.344-3.526-.568zm-18.731-6.339c-.867-1.402-.63-1.546 3.857-2.358 3.624-.656 3.76-.587 2.715 1.367-1.171 2.188-5.435 2.831-6.572.991zm98.079.128c-.29-.468.131-1.104.936-1.413.804-.308 1.699-.177 1.988.29.29.47-.131 1.105-.936 1.414-.804.308-1.699.177-1.988-.29zm5.275.256c.721-.289 1.584-.253 1.916.079.332.332-.258.568-1.312.525-1.165-.048-1.402-.285-.604-.604zM311 431c0-.55.675-1 1.5-1s1.5.45 1.5 1-.675 1-1.5 1-1.5-.45-1.5-1zm-7.134-2.093c1.18-.956 3.018-1.489 4.13-1.198 1.637.428 2.004.034 2.004-2.151 0-1.709.402-2.428 1.112-1.989.611.378 1.455.132 1.875-.548.446-.722 1.008-.839 1.352-.281 1.109 1.793-5.183 7.023-8.982 7.466-3.56.416-3.583.396-1.49-1.299zm-105.603-2.159c.265-.77-1.112-1.643-3.593-2.278-4.613-1.18-5.68-2.859-2.8-4.4 1.53-.82 2.354-.703 3.56.503.864.864 1.57 1.287 1.57.942s1.354.172 3.01 1.15c3.4 2.008 3.43 3.258.106 4.488-1.661.614-2.165.504-1.853-.405zm119.289-3.113c-2.488-2.305-3.516-4.349-1.588-3.158.53.328 1.905-.346 3.055-1.496l2.093-2.093-.668 3.556c-.439 2.342-.287 3.556.445 3.556.61 0 1.111.45 1.111 1 0 1.668-1.757 1.13-4.448-1.365zm4.958-6.651c.346-.56 1.047-.758 1.56-.441 1.386.857 1.128 1.457-.629 1.457-.857 0-1.276-.457-.93-1.016zm11.627-1.071c-1.232-1.148-2.848-1.854-3.591-1.569-2.946 1.13-2.26-.728 1.114-3.017 1.966-1.334 3.822-2.179 4.124-1.876.302.302-.088.556-.867.564-1.167.013-1.152.187.083.985 1 .646 1.083.974.25.985-.688.008-1.25.465-1.25 1.015 0 .55.9 1 2 1 1.333 0 2 .667 2 2 0 2.553-1.055 2.53-3.863-.087zm18.047-2.654c.19-1.654 1.01-2.874 2.066-3.074 1.359-.258 1.75.355 1.75 2.742 0 2.44-.426 3.073-2.066 3.073-1.663 0-2.005-.535-1.75-2.741zM174 412c0-1.962 2.93-2.212 4.738-.405 1.82 1.82 1.61 2.072-1.738 2.072-2.133 0-3-.482-3-1.667zm-7-5c0-.55.45-1 1-1s1 .45 1 1-.45 1-1 1-1-.45-1-1zm176-.059c0-.582.45-.78 1-.441.55.34 1 .816 1 1.059s-.45.441-1 .441-1-.477-1-1.059zm14.833.103c-.183-.526-2.02-1.068-4.083-1.205-3.043-.2-3.744-.634-3.718-2.293.03-1.947.098-1.959 1.404-.236.867 1.144 1.613 1.42 2.027.75.36-.583.193-1.06-.373-1.06-.565 0-.794-.608-.509-1.352.317-.826 1.473-1.17 2.97-.883 1.724.33 2.449.021 2.449-1.041 0-.83.675-1.769 1.5-2.086.825-.316 1.5-1.21 1.5-1.984 0-.775.787-2.027 1.75-2.782 1.576-1.236 1.617-1.203.414.334-1.493 1.907-.8 3.794 1.395 3.794.98 0 1.441 1.12 1.441 3.5 0 3.222-.238 3.5-3 3.5-2.333 0-3 .444-3 2 0 2.035-1.56 2.786-2.167 1.044zM368 405.927c0-2.563 3.31-2.272 3.812.334.23 1.2-.308 1.739-1.739 1.739-1.43 0-2.073-.642-2.073-2.073Zm-209.333-.594c-1.302-1.302-.638-3.107 1.333-3.623 1.39-.363 2.024-.017 2.079 1.134.049 1.024.27 1.182.58.415.385-.953.832-.911 1.921.178.781.781 1.42 1.677 1.42 1.992 0 .801-6.521.716-7.333-.096zM150 401c0-.55-.675-1-1.5-1s-1.5-.445-1.5-.989 1.012-.969 2.25-.944c1.238.024 3.6-.277 5.25-.669l3-.713-3.144 2.658C150.973 402.202 150 402.572 150 401Zm-1.559-7.468c-1.067-.808-1.491-1.468-.941-1.468.55 0 1.874.66 2.941 1.468 1.068.807 1.491 1.468.941 1.468-.55 0-1.873-.66-2.94-1.468zm-4.783-1.981c-.371-.967-.076-1.265.887-.895.794.304 1.195.956.89 1.449-.766 1.24-1.132 1.126-1.777-.554zM134 391c0-.55.9-1 2-1s2 .45 2 1-.9 1-2 1-2-.45-2-1zm234.091-.61c.843-1.015 1.473-1.197 1.708-.493.204.613.783.861 1.286.55.503-.31.915-.088.915.494S370.82 392 369.378 392c-2.298 0-2.457-.2-1.287-1.61zm5.53-2.842c.284-.743 1.274-1.62 2.198-1.95.925-.33 2.356-.88 3.181-1.224.901-.376.702.143-.5 1.3-2.657 2.56-5.573 3.679-4.88 1.874zM116 386c0-1.1.45-2 1-2s1 .9 1 2-.45 2-1 2-1-.9-1-2zm20 1c0-.55.477-1 1.059-1s.78.45.441 1c-.34.55-.816 1-1.059 1s-.441-.45-.441-1Zm-8.43-2.887c-.301-.487.062-1.393.808-2.012 1.021-.847 1.643-.78 2.515.27.901 1.086.802 1.532-.45 2.012-2.078.798-2.222.784-2.873-.27zM387 382.592c0-.672 1.575-1.973 3.5-2.89 3.328-1.588 3.5-1.58 3.5.146 0 1.205-1.18 2.178-3.5 2.89-2.676.822-3.5.787-3.5-.146zm13-2.092c0-2.833.381-3.5 2-3.5s2 .667 2 3.5-.381 3.5-2 3.5-2-.667-2-3.5zm20-.5v-4h4c2.2 0 4 .45 4 1s.9 1 2 1c1.556 0 2 .667 2 3v3h-12zm-38 2c0-.55.477-1 1.059-1s.78.45.441 1c-.34.55-.816 1-1.059 1s-.441-.45-.441-1Zm-264.75-1.496c-1.53-1.738-1.623-3.504-.184-3.504 2.033 0 4.934 2.078 4.934 3.535 0 1.86-3.104 1.839-4.75-.03zm280.486-5.102c-.902-.901.34-3.473 1.369-2.837.492.304.895.129.895-.39 0-1.047 5.354-.9 5.75.158.138.367.25 1.432.25 2.367 0 1.322-.267 1.433-1.2.5-1.453-1.453-4.8-1.593-4.8-.2 0 1.103-1.328 1.339-2.264.402zm-294.524-5.107c-1.809-1.953-3.022-3.818-2.696-4.144.326-.326.956-.005 1.4.713.444.719 1.207 1.207 1.696 1.085.488-.122 1.332.74 1.875 1.914.66 1.429 1.903 2.137 3.75 2.137 1.52 0 2.763.45 2.763 1 0 2.436-5.635.702-8.788-2.705zM406.5 370c-.34-.55-.141-1 .441-1s1.059.45 1.059 1-.198 1-.441 1-.72-.45-1.059-1zm4.25-2.662c.688-.278 1.25-1.108 1.25-1.844 0-.737 1.35-2.69 3-4.34 3.38-3.38 3.47-3.351 1.807.549-1.687 3.952-3.852 6.31-5.712 6.218-1.034-.051-1.155-.256-.345-.583zM88.667 353.333c-.367-.366-.653-1.379-.637-2.25.025-1.3.22-1.257 1.092.242 1.077 1.852.765 3.228-.455 2.008zm338.412-5.916c.048-1.165.285-1.402.604-.604.289.721.253 1.584-.079 1.916-.332.332-.568-.258-.525-1.312zm-341.536-.348c-.317-.512-.193-1.167.274-1.456.467-.289.85.13.85.931 0 1.686-.316 1.833-1.124.525zm339.188-1.15c.354-1.351.807-1.805 1.057-1.056.24.722-.038 1.787-.62 2.369-.742.742-.872.351-.437-1.312zM80.232 342c0-1.925.206-2.712.457-1.75.252.963.252 2.538 0 3.5-.251.963-.457.175-.457-1.75zm349.926-4c0-1.375.227-1.938.504-1.25.278.688.278 1.813 0 2.5-.277.688-.504.125-.504-1.25zm-2.417-1.332c-1.16-2.866-.951-5.278.344-3.983.596.596.93 2.149.74 3.45-.302 2.082-.432 2.146-1.084.533zM256 255.122c0-.492-1.556-1.632-3.458-2.535-4.239-2.012-5.077-3.238-3.506-5.13 1.358-1.637 6.964-2.004 6.964-.457 0 1.449 3.748 1.23 4.297-.25.342-.923.928-.807 2.24.442 1.69 1.61 1.636 1.726-1.13 2.404-3.406.834-4.962 2.683-2.874 3.416 1.16.407 1.05.767-.537 1.758-1.098.686-1.996.844-1.996.352Zm13-8.68c0-.205.9-.853 2-1.442 1.105-.591 2-.66 2-.152 0 .505-.9 1.154-2 1.442-1.1.287-2 .356-2 .152zm1-3.826c0-2.323 2.6-4.845 4.575-4.439 1.207.248.857 1.006-1.501 3.26-2.487 2.376-3.074 2.601-3.074 1.179ZM283 239c0-.55.441-1 .981-1s1.29-1.233 1.669-2.74c1.41-5.623 5.775-7.225 6.153-2.26.179 2.342-.18 3-1.634 3-1.025 0-2.9.9-4.169 2-2.623 2.275-3 2.4-3 1zm15-9.383c0-.211.9-.62 2.001-.907 1.101-.288 1.75-.115 1.441.383-.538.871-3.442 1.313-3.442.524Zm3.75-2.699c-2.937-1.708-2.199-4.585 1.177-4.585 2.509 0 2.9.359 2.735 2.505-.222 2.887-1.424 3.526-3.912 2.08zm9.5-6.649c-.688-.24-1.25-1.748-1.25-3.352 0-2.363.427-2.914 2.25-2.902 3.877.027 5.148 1.375 3.614 3.832-1.487 2.38-2.783 3.061-4.614 2.422zm16.376-8.82c1.124-1.716 2.002-2.221 2.68-1.543 1.223 1.223-.848 4.094-2.952 4.094-1.13 0-1.077-.493.272-2.551zm-152.299-4.862c-.939-1.07-.69-1.337 1.25-1.337 1.39 0 2.423.587 2.423 1.375 0 1.74-2.133 1.717-3.673-.038zM196 205.469c0-1.492.719-2.804 1.75-3.194 3.334-1.263 4.463-3.246 4.087-7.184-.267-2.8-.022-3.716.898-3.362.696.267 1.265-.222 1.265-1.087 0-2.087 3.569-3.914 6.085-3.115 1.752.556 1.972 1.365 1.712 6.305l-.297 5.668-3.75.31c-3.646.302-3.75.42-3.75 4.25 0 3.93-.01 3.94-4 3.94-3.613 0-4-.245-4-2.531zm11.813-14.407c.25-.75-.125-1.125-.875-.875-.722.241-1.51 1.029-1.75 1.75-.25.75.125 1.125.875.875.721-.24 1.509-1.028 1.75-1.75zM218 204c0-2.2.45-4 1-4s1 .45 1 1 .9 1 2 1c1.556 0 2 .667 2 3 0 2.667-.333 3-3 3-2.833 0-3-.222-3-4zm116 3c0-.55.675-1 1.5-1s1.5.45 1.5 1-.675 1-1.5 1-1.5-.45-1.5-1zm-152-5.45c0-.796 1.505-2.596 3.344-4 3.62-2.76 4.656-3.105 4.656-1.55 0 .55-.675 1-1.5 1s-1.447.338-1.382.75c.326 2.063-.265 3.25-1.618 3.25-.825 0-1.5.45-1.5 1s-.45 1-1 1-1-.652-1-1.45zm151 .45c-1.293-.835-1.266-.971.191-.985.93-.008 1.97.435 2.309.985.782 1.266-.542 1.266-2.5 0zm-5.75-.662c-.688-.278-1.25-1.11-1.25-1.852 0-.74-.918-1.49-2.04-1.666-1.121-.176-1.983-.72-1.914-1.208.069-.489-.476-1.27-1.21-1.735-1.033-.654-.95-.85.364-.862.935-.008 2.06.628 2.5 1.414.76 1.357 1.187 1.571 3.14 1.571.461 0 1.352 1.125 1.978 2.5 1.13 2.478.845 2.811-1.568 1.838zm-130.438-10.021c.722-.289 1.585-.253 1.917.079.332.332-.258.568-1.312.525-1.165-.048-1.402-.285-.604-.604zM234 188c0-3.333-.333-4-2-4-1.333 0-2-.667-2-2 0-1.1-.45-2-1-2s-1 .9-1 2c0 1.547-.667 2-2.941 2-1.618 0-3.22-.45-3.559-1-.34-.55-1.754-1-3.142-1-2.65 0-2.895-2.385-.272-2.635l2.664-.25c.688-.063 1.25-1.035 1.25-2.159 0-2.072 2.775-2.454 4.143-.57.353.486 1.786.598 3.183.247 2.41-.605 4.328-3.752 3.844-6.308-.123-.646.308-1.503.958-1.904.65-.402.943-.323.652.174-.292.498-.168 1.805.275 2.905.763 1.898.808 1.885.875-.25.077-2.462 2.07-3.184 2.07-.75 0 .825.45 1.5 1 1.5s1-1.542 1-3.427c0-2.808.541-3.697 3-4.923 3.157-1.575 4.037-1.145 1.513.74-1.883 1.407-3.219 7.61-1.638 7.61.619 0 1.125.9 1.125 2 0 1.667-.667 2-4 2h-4v8c0 4.667-.417 8-1 8-.55 0-1-1.8-1-4zm16-4c0-4.667.417-8 1-8 .55 0 1 1.773 1 3.94 0 3.83.104 3.948 3.75 4.25 3.546.293 3.767.514 4.06 4.06l.31 3.75H250Zm32 4.034c0-2.219.45-4.034 1-4.034s1 .45 1 1 .9 1 2 1 2-.45 2-1-.505-1-1.122-1c-.783 0-.751-.448.105-1.48.91-1.096.955-2.259.174-4.5-.904-2.594-.811-3.02.658-3.02.94 0 2.155 1.012 2.698 2.25.543 1.238 1.55 2.306 2.237 2.375 2.942.294 3.25.424 3.25 1.375 0 .55-1.125 1-2.5 1s-2.5.402-2.5.893c0 1.319 2.653 2.107 7.093 2.107 4.146 0 12.833 3.755 12.88 5.567.018.7-4.978 1.142-14.473 1.284l-14.5.216Zm145.31-1.534c.006-3.3.192-4.53.415-2.732.222 1.797.218 4.497-.01 6-.229 1.503-.41.032-.405-3.268zm2.69-.5c0-3.333.444-6 1-6s1 2.667 1 6-.444 6-1 6-1-2.667-1-6zm-164-6c0-3.778.167-4 3-4 2.333 0 3 .444 3 2 0 1.333-.667 2-2 2s-2 .667-2 2c0 1.1-.45 2-1 2s-1-1.8-1-4zm-186.333-2.667c-1.31-1.309-.68-5.333.833-5.333 1 0 1.5 1 1.5 3 0 2.867-.9 3.767-2.333 2.333zm347.11-2.715c-.347-1.821.027-2.595 1.435-2.963 1.562-.409 1.85-.03 1.597 2.096-.407 3.419-2.433 3.998-3.031.867zm-342.11-4.285c-1.061-1.06-.772-3.516.333-2.833.55.34 1-.057 1-.882s.421-1.76.936-2.078c.578-.357.59.628.03 2.577-1.048 3.656-1.386 4.13-2.3 3.216zm341.779-1.089c-.42-.96-.692-2.082-.605-2.494.088-.412-.291-.75-.841-.75s-1-.477-1-1.059.45-.78 1-.441c.55.34 1.014.029 1.03-.691.02-.804.426-.63 1.055.449.563.967.704 2.274.315 2.904-.438.708-.267.874.445.433.677-.418 1.155-.092 1.155.787 0 2.27-1.688 2.84-2.554.862zm-181.247-.794c-1.075-1.219-1.04-1.574.203-2.05 2.056-.79 3.631.35 2.947 2.132-.7 1.827-1.483 1.807-3.15-.082zM260 164.607c0-2.094.574-3.613 1.5-3.969.825-.316 1.5-.153 1.5.362s.749.65 1.664.299c1.042-.4 1.418-.241 1.007.424-.372.602.425 1.335 1.836 1.69 1.371.344 2.493 1.157 2.493 1.806 0 .897-.288.893-1.2-.02-1.34-1.339-5.8-1.646-5.8-.4 0 .44.54 1.34 1.2 2 .933.934.6 1.2-1.5 1.2-2.403 0-2.7-.372-2.7-3.392zm169-3.107c0-.825.675-1.5 1.5-1.5s1.5.675 1.5 1.5-.675 1.5-1.5 1.5-1.5-.675-1.5-1.5zm-341.006-1-.495-3.75c-.24-1.82.094-2.75.986-2.75.742 0 1.537-.338 1.768-.75.23-.412.253-.111.05.67-.204.781.207 1.787.913 2.235 1.043.662 1.043.817.002.83-.705.008-1.69 1.027-2.187 2.265-.497 1.238-.964 1.8-1.037 1.25zm334.135-.845c-.716-.862-1.035-1.999-.709-2.526.326-.527.059-1.136-.594-1.354-1.613-.537-.262-3.775 1.575-3.775 1.947 0 2.747 2.831 1.798 6.362-.675 2.513-.927 2.67-2.07 1.293zm-169.86-.348c.973-.254 2.323-.237 3 .037.677.274-.119.481-1.769.461-1.65-.02-2.204-.244-1.231-.498zm-157.705-7.6c.376-.986.935-1.541 1.243-1.233.308.307 0 1.114-.683 1.793-.988.98-1.102.865-.56-.56zm319.567-2.049c-.612-.738-.78-1.71-.372-2.16.407-.449.052-.572-.79-.272-2.266.804-7.704-4.89-6.152-6.443 1.125-1.125 1.688-.083 1.313 2.431-.058.393.565.457 1.384.142 2.673-1.026 6.486.54 6.486 2.663 0 1.09-.505 1.981-1.122 1.981-.776 0-.738.464.122 1.5.685.825 1.02 1.5.745 1.5s-1.001-.604-1.614-1.342zm-316.984-1.546c-1.07-.678-1.108-1.316-.183-3.046 1.463-2.732 3.264-2.243 3.631.987.153 1.346.044 1.885-.242 1.197-.746-1.793-2.682-1.55-1.991.25.664 1.732.602 1.764-1.215.612zm5.123-5.362c-.012-1.645.52-2.75 1.324-2.75.842 0 1.105.62.705 1.664-.43 1.119-.256 1.427.531.941.644-.398 1.17-.198 1.17.443s-.646.918-1.435.615c-.79-.303-1.625-.013-1.856.643-.23.657-.428-.044-.44-1.556zm4.499-2.526c-.368-1.405-1.352-2.224-2.675-2.224-1.152 0-2.094-.45-2.094-1s.9-1 2-1 2 .45 2 1 1.56 1 3.469 1c2.75 0 3.343.327 2.862 1.58-.357.93-1.354 1.386-2.421 1.107-.998-.261-1.982.028-2.187.643-.205.615-.634.118-.954-1.106zm293.093-.89c-.882-1.063-.478-1.334 1.984-1.334 2.165 0 2.938.4 2.58 1.333-.282.734-1.175 1.334-1.985 1.334s-1.97-.6-2.58-1.334zM406 137c0-.55.9-1 2-1s2 .45 2 1-.9 1-2 1-2-.45-2-1zm-13.5-1c-.34-.55-.141-1 .441-1s1.059.45 1.059 1-.198 1-.441 1-.72-.45-1.059-1zm-270.587-3.605c-.678-.817-1.874-1.24-2.657-.94-.858.33-1.247.05-.98-.704.553-1.558 4.76-1.144 6.548.644 1.108 1.109 1.08 1.428-.173 1.909-.828.317-2.06-.092-2.738-.909zm264.287.405c-.66-.66-1.148-2.123-1.084-3.25.096-1.687.197-1.74.573-.3.49 1.874 1.231 2.102 3.723 1.145.867-.332 1.307-1.04.978-1.574-.33-.533.348-.377 1.505.346 2.809 1.754 2.658 2.833-.395 2.833-1.375 0-2.5.45-2.5 1 0 1.356-1.34 1.26-2.8-.2zm-253.102-7.09c-1.081-1.793-1.084-1.974-.016-.96 1.513 1.435 3.309 1.692 2.483.355-.803-1.299 1.868-2.077 3.526-1.028 1.209.766 1.207.895-.012.908-.782.008-2.147.672-3.035 1.475-1.43 1.294-1.765 1.208-2.946-.75zm242.703.445c-1.6-1.625-1.596-1.726.053-1.726.966 0 1.813.801 1.887 1.785.16 2.122.208 2.124-1.94-.06zm-234.468-3.69c0-.757.375-1.145.834-.862.458.283.833-.412.833-1.544 0-1.164.652-2.059 1.5-2.059 2.229 0 1.759 2.267-.865 4.171-1.812 1.316-2.302 1.378-2.302.294zm225.803-1.347c-2.371-2.057-2.16-4.118.423-4.118.793 0 1.441.927 1.441 2.059 0 1.132.419 1.8.93 1.484.513-.317 1.257-.049 1.655.595.432.698.292.904-.345.51-.588-.363-1.23-.178-1.426.411-.208.622-1.33.228-2.678-.94zm-6.615-6.084c-.356-.577-.01-1.292.767-1.591.888-.34 1.241-1.456.947-2.993-.527-2.756.878-3.224 2.784-.927.73.879 2.05 1.273 3.122.932 1.38-.438 1.859-.085 1.859 1.37 0 1.31-.91 2.175-2.75 2.614-1.512.36-3.5.878-4.416 1.15-.916.27-1.957.02-2.313-.555zM142 112.975c0-.563 1.154-1.463 2.565-2 3.403-1.294 3.435-1.284 3.435 1.025 0 1.556-.667 2-3 2-1.65 0-3-.461-3-1.025zm210.5.025c-.34-.55-.141-1 .441-1s1.059.45 1.059 1-.198 1-.441 1-.72-.45-1.059-1zm-1.769-3.08c.354-1.352.807-1.806 1.057-1.057.24.722-.038 1.787-.62 2.369-.742.742-.872.351-.437-1.312zm-188.156-2.567c-4.988-1.74-5.143-1.927-3.21-3.86 1.469-1.47 1.784-1.432 3.807.452 1.213 1.13 2.769 2.055 3.458 2.055.688 0 1.5.403 1.805.895 1.005 1.625-1.872 1.85-5.86.458zm181.425.755c0-1.02 4.968-2.473 5.757-1.685.286.287-.696.984-2.183 1.549-3.298 1.254-3.574 1.264-3.574.136Zm-173.686-1.773c.384-.64.133-1.392-.558-1.67-.69-.28.057-.543 1.66-.586 1.605-.043 2.73.048 2.5.204-.229.156-1.29.943-2.358 1.75s-1.628.943-1.244.302zm170.038-.382c-3.318-1.256-3.842-2.953-.911-2.953 1.765 0 2.564.543 2.574 1.75.013 1.496.157 1.532.985.25.582-.901.975-1.025.985-.309.022 1.752-1.208 2.18-3.633 1.262zm-160.141-7.348c.709-.767 1.594-1.21 1.967-.986.373.226.966-.496 1.317-1.604C184.15 93.95 186 93.202 186 95c0 1.619-.453 2.516-1.154 2.282-.36-.12-1.202.443-1.873 1.25-.67.807-1.856 1.468-2.635 1.468-1.162 0-1.185-.251-.127-1.395zm148.329.048c-1.097-.803-1.431-1.602-.825-1.977.56-.346 1.823.26 2.806 1.348 2.037 2.25.782 2.649-1.981.629zm-154.322-1.808c.52-1.557 2.756-1.83 2.835-.345.029.55-.698 1.155-1.615 1.346-1.043.215-1.5-.16-1.22-1zm161.79.17c-1.177-.735-1.233-1.19-.266-2.157 1.456-1.456 2.571-.639 2.096 1.537-.24 1.106-.767 1.284-1.83.62zm-146.73-3.047c.08-1.082.7-1.968 1.376-1.968 2.108 0 2.302 1.547.346 2.768-1.598.998-1.85.881-1.723-.8zm131.412.558c-1.252-.923-1.457-1.552-.663-2.043 1.334-.824 3.367.867 2.836 2.36-.225.63-1.051.51-2.173-.317zm3.917-2.108c-1.087-2.832-.685-3.53 1.393-2.418 2.28 1.22 2.702 4 .607 4-.766 0-1.666-.712-2-1.582zM190 89c0-.55.477-1 1.059-1s.78.45.441 1c-.34.55-.816 1-1.059 1s-.441-.45-.441-1Zm120.445-2.362c-.446-1.778-1.18-2.57-2.068-2.229-1.679.644-4.377-.29-4.377-1.516 0-.491 1.35-.893 3-.893s3-.45 3-1 .9-1 2-1 2 .45 2 1-.9 1-2 1-2 .45-2 1 .402 1 .893 1c1.357 0 2.03 2.508 1.083 4.039-.614.994-1.024.619-1.53-1.4zm-110.48-1.572c1.382-2.584 1.31-3.066-.465-3.066-.825 0-1.5-.45-1.5-1 0-1.353 3.712-1.276 4.56.096.372.602 2.141.924 3.932.715 2.83-.33 3.12-.162 2.215 1.287-.799 1.279-1.7 1.477-3.874.854-2.413-.692-2.833-.526-2.833 1.118 0 1.069-.685 1.93-1.535 1.93-1.208 0-1.315-.412-.5-1.934zm12.848-4.75c.721-.288 1.584-.252 1.916.08.332.332-.258.568-1.312.525-1.165-.048-1.402-.285-.604-.604zm4.4-4.75c-1.451-3.183-1.567-5.566-.27-5.566.518 0 .769.9.557 2-.3 1.56.153 2 2.057 2 1.546 0 2.443-.573 2.443-1.559 0-.857.414-1.303.919-.991.52.32.247 1.915-.626 3.664-1.04 2.084-1.791 2.698-2.298 1.878-.59-.956-.84-.954-1.162.008-.225.675-.954.03-1.62-1.434zM294 76.933c0-.587-.787-.82-1.75-.519-1.2.376-2.114-.232-2.906-1.932-.636-1.365-.748-2.482-.25-2.482s.906.45.906 1 1.1 1 2.443 1c1.904 0 2.357-.44 2.057-2-.212-1.1.039-2 .557-2 1.234 0 1.223 3.709-.013 4.473-.526.325-.703 1.252-.393 2.059.31.807.29 1.468-.044 1.468-.334 0-.607-.48-.607-1.067Zm-65.02-5.683c.6-1.238 1.862-2.214 2.805-2.171 1.39.064 1.431.19.215.662-.825.321-2.087 1.298-2.805 2.171-1.107 1.347-1.14 1.247-.215-.662zm8.3-5.193c-.072-.948.51-1.724 1.295-1.724 1.78 0 1.88 2.278.13 2.95-.73.28-1.353-.254-1.426-1.226zM273 66.5c-1.004-1.21-.979-1.503.128-1.515 1.078-.012 1.05-.224-.128-.985-1.282-.828-1.246-.972.25-.985.963-.008 1.75.398 1.75.903s.273 1.63.607 2.5c.77 2.006-.965 2.06-2.607.082Z"/></svg>