<svg xmlns="http://www.w3.org/2000/svg" width="523.077" height="523.077"><g fill-rule="evenodd"><path d="M31.636 45.035A30.55 30.55 0 001.019 75.652v86.365H189.6c18.328-.182 26-11.72 35.999-20.584 8.674-7.69 21.357-14.778 37.386-14.777h260.092v-5.492a30.55 30.55 0 00-30.617-30.617H262.997c-22.855-1.786-39.339-5.763-43.843-21.515-3.53-12.344-12.661-23.997-29.623-23.997zM217.174 244.96c22.533-.054 37.404 10.205 46.97 25.112 9.876-15.387 25.401-25.824 49.174-25.075 36.46 1.15 53.284 26.35 53.284 54.36 0 48.84-70.582 98.246-102.457 130.195-31.876-31.95-102.457-81.355-102.457-130.195 0-28.01 16.821-53.21 53.28-54.36a76.739 76.739 0 012.206-.037zM261.99 155.7c-17.478 1.783-24.215 9.89-32.361 18.459-7.966 8.378-19.929 15.526-40.928 17.101H0v256.166a30.55 30.55 0 0030.617 30.617h460.824a30.55 30.55 0 0030.618-30.617V155.7z" fill="#d43646"/><path d="M0 429.953v17.472a30.55 30.55 0 0030.617 30.617h460.824a30.55 30.55 0 0030.618-30.617v-17.472a30.55 30.55 0 01-30.618 30.617H30.617A30.55 30.55 0 010 429.953zm311.113-198.465c-22.533-.055-37.402 10.207-46.968 25.113-9.567-14.906-24.438-25.166-46.971-25.111-.727.002-1.462.013-2.205.037-36.46 1.149-53.281 26.35-53.281 54.36 0 2.09.138 4.182.388 6.275 2.68-24.996 19.59-46.115 52.893-47.165a76.739 76.739 0 012.205-.037c22.533-.054 37.404 10.205 46.97 25.112 9.876-15.387 25.401-25.824 49.174-25.075 33.304 1.05 50.213 22.17 52.893 47.165.25-2.093.39-4.184.39-6.276 0-28.01-16.823-53.21-53.283-54.36a76.075 76.075 0 00-2.205-.038zM521.97 112.972H262.985c-16.028 0-28.713 7.088-37.386 14.778-9.999 8.864-17.67 20.402-35.998 20.584H1.019v13.683H189.6c18.327-.182 25.999-11.72 35.998-20.584 8.673-7.69 21.358-14.778 37.386-14.777h260.092v-5.492c0-2.84-.39-5.585-1.107-8.192z" fill="#af2c3a"/></g></svg>