<svg xmlns="http://www.w3.org/2000/svg" viewBox="0 0 67.9 38.4"><path fill="#f04a1c" d="M66.1 32.8c1.2-1.7 1.8-3.8 1.8-6.1v-16h-6.6v7.9c0 1.9-.6 3.4-1.7 4.5a6 6 0 0 1-4.5 1.7c-1.7 0-3-.5-4-1.5s-1.5-2.4-1.5-4.1v-8.5H43v9.4c0 1.9.4 3.6 1.2 5 .8 1.5 1.9 2.6 3.4 3.4s3.2 1.2 5.2 1.2 3.6-.4 5.2-1.3c1.5-.9 2.7-2 3.4-3.5v1.6c0 2-.8 3.6-2.3 4.7Q56.7 33 52.8 33a16 16 0 0 1-9.7-3.3l-2.5 4.6c1.2 1.2 3 2.1 5.3 2.9a22.5 22.5 0 0 0 15.2-.2 13 13 0 0 0 5-4.2M64.6 6.1c.7-.7 1-1.5 1-2.5s-.3-1.9-1-2.5c-.7-.7-1.5-1-2.5-1s-1.9.3-2.5 1c-.7.7-1 1.5-1 2.5s.3 1.9 1 2.5c.7.7 1.5 1 2.5 1s1.9-.4 2.5-1m-13.1 0c.7-.7 1-1.5 1-2.5s-.3-1.9-1-2.5C50.9.3 50 0 49 0s-1.9.3-2.5 1c-.7.7-1 1.5-1 2.5s.3 1.9 1 2.5c.7.7 1.5 1 2.5 1 1 .1 1.9-.3 2.5-.9M32.6 29h6.9V0h-9.8l-10 21.7L9.8 0H0v29h6.9V8.5H7L16.5 29H23l9.5-20.5h.1z"/></svg>