<svg xmlns="http://www.w3.org/2000/svg" viewBox="0 0 1187 209"><path fill="#55bdff" d="M166 52c12 0 22 4 29 10 7 7 10 16 10 29l-1 14-12 62h-40l12-58 1-8c0-5-1-9-4-11-2-3-6-4-10-4-13 0-21 8-24 24l-11 57H76l12-58 1-8c0-5-1-9-4-11-2-3-6-4-10-4-13 0-21 8-24 25l-12 56H0L22 54h38l-3 12c10-9 21-14 34-14 7 0 14 2 20 5s11 8 14 14a53 53 0 0 1 41-19zm191 2-71 118c-6 9-12 17-18 22a50 50 0 0 1-38 15l-18-3c-6-2-11-4-14-7l18-28c5 5 10 7 17 7 4 0 7-1 9-3 3-1 5-4 8-7L224 54h39l14 69 42-69z"/><path fill="#1355fa" d="m495 13-30 154h-38l3-11c-9 8-20 13-33 13a47 47 0 0 1-41-24c-4-8-6-17-6-28 0-12 2-23 8-33a61 61 0 0 1 53-32c16 0 27 5 34 15l11-54zm-84 124c8 0 14-3 19-9s8-13 8-22c0-7-2-12-6-16s-9-6-16-6c-8 0-14 3-19 9-5 5-7 13-7 23 0 6 1 11 5 15s9 6 16 6zm141 32c-11 0-22-3-31-7a48 48 0 0 1-27-45 63 63 0 0 1 33-56c11-6 22-9 36-9 11 0 22 3 31 7s15 10 20 18c5 7 7 16 7 26a63 63 0 0 1-33 57c-10 6-22 9-36 9zm3-32c8 0 14-3 19-9s7-13 7-22c0-7-1-12-5-16s-9-6-16-6c-8 0-14 3-19 9-5 5-7 13-7 23 0 6 1 11 5 15s9 6 16 6zm239-85c12 0 21 4 29 10 7 7 10 16 10 29l-1 14-12 62h-40l12-58 1-8c0-5-1-9-4-11-2-3-6-4-10-4-13 0-21 8-24 24l-12 57h-39l12-58 1-8c0-5-2-9-4-11-2-3-6-4-10-4-13 0-21 8-25 25l-11 56h-39l22-113h38l-3 12c10-9 21-14 34-14 7 0 14 2 20 5s11 8 14 14a53 53 0 0 1 41-19zm192 2-23 113h-37l2-11a47 47 0 0 1-73-11c-4-8-7-17-7-28 0-12 3-23 8-33 6-10 13-17 23-23 9-6 19-9 30-9 17 0 28 6 35 16l2-14zm-77 83c8 0 15-3 20-9s7-13 7-22c0-7-2-12-5-16-4-4-9-6-16-6-8 0-14 3-19 9-5 5-8 13-8 23a20 20 0 0 0 21 21zm102-83h39l-22 113h-39zm25-12c-7 0-12-2-16-6-4-3-6-8-6-14s2-11 7-16c4-4 10-6 18-6 7 0 12 2 17 5 4 4 6 8 6 14 0 7-3 12-7 16-5 5-11 7-19 7zm110 10c12 0 22 4 30 10 7 7 11 16 11 29l-2 14-12 62h-40l12-59 1-7c0-10-5-15-16-15-7 0-12 2-17 6-4 4-7 11-9 19l-11 56h-40l23-113h37l-2 12c5-5 10-8 16-10s13-4 19-4z"/></svg>
