<svg xmlns="http://www.w3.org/2000/svg" viewBox="0 0 406.8 71.1"><path d="M43.7 59.8c7.6 0 13.4-3.4 19-8.4 2-1.7 3-3.1 5.8-3.1 2.1 0 3.9 1.7 4.1 3.8 0 5.1-7.6 11-11.4 13.1-7.3 4.4-14.6 5.9-23.3 5.9C18.7 71 0 58.6 0 37.9 0 14.2 20.4.2 42.3.2 54.8.2 71.1 6 71.1 20.7c0 10.4-10 20.4-45.5 24 1.9 8.9 9 15.1 18.1 15.1zm5.5-40.6c0-5.3-2.8-9.1-8.4-9.1-11.8 0-17.1 15.5-16.4 25.3 9.2-.8 24.8-4.6 24.8-16.2zM82.5 24.2c0-4.9.6-7.5-4.2-9.8-1.4-.6-3-1.5-3-3.8C75.3 5.5 92.6.2 97 .2c4.8 0 5.8 6.5 6.3 10.1C109 3.8 117.3.1 125.9.2c8.4 0 15.9 3.8 20.1 11.4C151.5 3.5 160.5.2 170 .2c6.2 0 13.1 2.1 17.7 6.5 5.3 5.1 6.2 12.2 6.2 19.3v24c0 6.9 0 8.6 2.1 10.1 2.2 1 3.5 2 3.5 4.4 0 4.4-3.5 4.5-6.6 4.5H172c-3.1 0-6.6-.1-6.6-4.5 0-2.4 1.3-3.4 3.5-4.4 2.1-1.5 2.1-3.2 2.1-10.1V29.3c0-6.8.1-16.5-9.1-16.5-3.8-.1-7.4 1.7-9.7 4.8-2.5 3.4-2.5 8.3-2.5 12.4v20c0 6.9 0 8.6 2.1 10.1 2.2 1 3.5 2 3.5 4.4 0 4.4-3.5 4.5-6.6 4.5h-20.9c-3.1 0-6.6-.1-6.6-4.5 0-2.4 1.3-3.4 3.5-4.4 2.1-1.5 2.1-3.2 2.1-10.1V29.3c0-6.8.1-16.5-9.1-16.5-3.8-.1-7.4 1.7-9.7 4.8-2.5 3.4-2.5 8.3-2.5 12.4v20c0 6.9 0 8.6 2.1 10.1 2.2 1 3.5 2 3.5 4.4 0 4.4-3.5 4.5-6.6 4.5h-21c-3.1 0-6.6-.1-6.6-4.5 0-2.4 1.3-3.4 3.5-4.4 2.1-1.6 2.1-3.3 2.1-10.2zM211.1 24.2c0-4.9.6-7.5-4.2-9.8-1.4-.6-2.9-1.5-2.9-3.8C204 5.5 221.3.2 225.6.2c4.8 0 5.8 6.5 6.3 10.1 5.7-6.5 14-10.2 22.6-10.1 8.4 0 15.9 3.8 20.1 11.4 5.5-8.1 14.5-11.4 24-11.4 6.2 0 13.1 2.1 17.7 6.5 5.4 5.1 6.2 12.2 6.2 19.3v24c0 6.9 0 8.6 2.1 10.1 2.2 1 3.5 2 3.5 4.4 0 4.4-3.5 4.5-6.6 4.5h-20.9c-3.1 0-6.6-.1-6.6-4.5 0-2.4 1.3-3.4 3.5-4.4 2.1-1.5 2.1-3.2 2.1-10.1V29.3c0-6.8.1-16.5-9.1-16.5-3.8-.1-7.4 1.7-9.7 4.8-2.5 3.4-2.5 8.3-2.5 12.4v20c0 6.9 0 8.6 2.1 10.1 2.2 1 3.5 2 3.5 4.4 0 4.4-3.5 4.5-6.6 4.5h-20.9c-3.1 0-6.6-.1-6.6-4.5 0-2.4 1.3-3.4 3.5-4.4 2.1-1.5 2.1-3.2 2.1-10.1V29.3c0-6.8.1-16.5-9.1-16.5-3.8-.1-7.4 1.7-9.7 4.8-2.5 3.4-2.5 8.3-2.5 12.4v20c0 6.9 0 8.6 2.1 10.1 2.2 1 3.5 2 3.5 4.4 0 4.4-3.5 4.5-6.6 4.5h-21c-3.1 0-6.6-.1-6.6-4.5 0-2.4 1.3-3.4 3.5-4.4 2.1-1.5 2.1-3.2 2.1-10.1zM399.5 49.7c0 6.6.1 8.6 2.7 9.8 3.1 1.6 4.6 2.5 4.6 4.9 0 4.5-4.2 4.5-7.6 4.5h-14.6c-7 0-7-2.4-7-8.7-4.8 7.9-13.2 10.8-21.8 10.8-13.2 0-25.3-7.3-25.3-21.8 0-20 25.3-24.9 40.8-24.9h4.7c0-8.4-4-14.8-13-14.8-8.6 0-9.8 9-18.7 9-4.1 0-8.7-1.8-8.7-6.8 0-9.8 22.2-11.7 29.1-11.7 24.5 0 34.9 10.8 34.9 27.3zm-25.3-16.5c-10 0-20.1 4.9-20.1 16.2 0 5.3 3.1 10.1 8.9 10.1 4.6 0 8.3-3 10.8-6.8 3-4.8 3-4.9 3-19.5z"/></svg>
