<svg xmlns="http://www.w3.org/2000/svg" viewBox="0 0 556.67 97.933" style="background:#000" fill="#fff"><path xmlns="http://www.w3.org/2000/svg" d="M65.587 28.787c0-7.12-3.747-12.187-11.24-12.187-15.747 0-22.867 20.613-21.933 33.733 12.373-.933 33.173-6 33.173-21.547zm-7.307 54.16c10.12 0 17.8-4.493 25.293-11.24 2.627-2.253 3.934-4.12 7.68-4.12 2.627 0 5.44 2.253 5.44 5.053 0 6.747-10.12 14.627-15.187 17.427-9.733 5.814-19.48 7.867-31.093 7.867C24.92 97.934 0 81.254 0 53.707 0 22.227 27.173 3.48 56.413 3.48c16.68 0 38.427 7.68 38.427 27.36 0 13.867-13.307 27.173-60.72 32.04 2.614 11.813 11.987 20.067 24.16 20.067M110 35.52c0-6.56.747-9.933-5.627-13.12-1.866-.747-3.933-2.067-3.933-5.053 0-6.747 23.053-13.867 28.853-13.867 6.373 0 7.68 8.626 8.44 13.493 7.493-8.614 18.373-13.493 30.173-13.493 11.24 0 21.173 5.053 26.8 15.187C202.013 7.8 214.013 3.48 226.746 3.48c8.24 0 17.427 2.813 23.613 8.626 7.12 6.747 8.24 16.307 8.24 25.68v32.04c0 9.174 0 11.44 2.813 13.493 3 1.307 4.68 2.627 4.68 5.814 0 5.813-4.68 6-8.813 6h-27.92c-4.12 0-8.813-.187-8.813-6 0-3.187 1.68-4.494 4.68-5.814 2.813-2.053 2.813-4.32 2.813-13.493V42.28c0-9 .187-21.933-12.187-21.933-5.44 0-9.747 2.254-12.933 6.374-3.373 4.493-3.373 11.067-3.373 16.493v26.613c0 9.173 0 11.44 2.813 13.493 3 1.306 4.693 2.626 4.693 5.813 0 5.813-4.693 6-8.813 6h-27.933c-4.12 0-8.813-.187-8.813-6 0-3.187 1.693-4.493 4.68-5.813 2.813-2.054 2.813-4.32 2.813-13.493V42.279c0-9 .187-21.933-12.187-21.933-5.427 0-9.747 2.253-12.933 6.373-3.373 4.493-3.373 11.067-3.373 16.493v26.613c0 9.173 0 11.44 2.813 13.493 3 1.307 4.693 2.627 4.693 5.813 0 5.814-4.693 6-8.813 6h-27.88c-4.12 0-8.813-.186-8.813-6 0-3.186 1.693-4.493 4.68-5.813 2.826-2.067 2.826-4.32 2.826-13.493V35.518m171.411.002c0-6.56.747-9.933-5.613-13.12-1.88-.747-3.934-2.067-3.934-5.053 0-6.747 23.053-13.867 28.853-13.867 6.374 0 7.68 8.626 8.427 13.493C316.65 8.359 327.516 3.48 339.316 3.48c11.253 0 21.173 5.053 26.8 15.187C373.436 7.8 385.423 3.48 398.17 3.48c8.253 0 17.44 2.813 23.613 8.626 7.133 6.747 8.253 16.307 8.253 25.68v32.04c0 9.174 0 11.44 2.814 13.493 3 1.307 4.68 2.627 4.68 5.814 0 5.813-4.68 6-8.814 6h-27.92c-4.12 0-8.813-.187-8.813-6 0-3.187 1.693-4.494 4.693-5.814 2.814-2.053 2.814-4.32 2.814-13.493V42.28c0-9 .186-21.933-12.187-21.933-5.427 0-9.747 2.254-12.933 6.374-3.374 4.493-3.374 11.067-3.374 16.493v26.613c0 9.173 0 11.44 2.814 13.493 3 1.306 4.68 2.626 4.68 5.813 0 5.813-4.68 6-8.814 6h-27.92c-4.12 0-8.813-.187-8.813-6 0-3.187 1.693-4.493 4.68-5.813 2.813-2.054 2.813-4.32 2.813-13.493V42.279c0-9 .187-21.933-12.187-21.933-5.44 0-9.746 2.253-12.933 6.373-3.36 4.493-3.36 11.067-3.36 16.493v26.613c0 9.173 0 11.44 2.814 13.493 3 1.307 4.68 2.627 4.68 5.813 0 5.814-4.68 6-8.814 6h-27.933c-4.12 0-8.813-.186-8.813-6 0-3.186 1.693-4.493 4.68-5.813 2.813-2.053 2.813-4.32 2.813-13.493l.027-34.307M498.95 47.52c-13.307 0-26.8 6.56-26.8 21.56 0 7.12 4.12 13.493 11.8 13.493 6.187 0 11.053-3.933 14.427-9 3.947-6.373 3.947-6.56 3.947-26.053zm33.747 21.92c0 8.813.187 11.44 3.56 13.12 4.12 2.067 6.187 3.373 6.187 6.56 0 6-5.614 6-10.12 6H512.83c-9.374 0-9.374-3.187-9.374-11.627-6.373 10.507-17.613 14.44-29.053 14.44-17.613 0-33.733-9.747-33.733-29.053 0-26.613 33.733-33.173 54.347-33.173h6.36c0-11.24-5.426-19.68-17.427-19.68-11.427 0-13.12 12-24.92 12-5.44 0-11.627-2.427-11.627-9 0-13.12 29.613-15.56 38.787-15.56 32.613 0 46.48 14.427 46.48 36.36V69.44m16.66-64.507h-1.6V7.44h1.6c.853 0 1.4-.387 1.4-1.28 0-.827-.64-1.227-1.4-1.227zm1.387 6.814-1.36-3h-1.6v3h-1.427V3.613h3c1.547 0 2.893.894 2.893 2.547 0 1.067-.466 1.907-1.466 2.36l1.506 3.227zm-1.72-10.387c-3.76 0-6.254 2.733-6.254 6.453s2.48 6.44 6.254 6.44c3.76 0 6.24-2.747 6.24-6.453 0-3.72-2.48-6.44-6.24-6.44zm0 14.253c-4.4 0-7.667-3.44-7.667-7.8 0-4.36 3.267-7.814 7.667-7.814s7.666 3.44 7.666 7.8c0 4.347-3.28 7.814-7.666 7.814"/></svg>