<svg xmlns="http://www.w3.org/2000/svg" width="42.206" height="42.206"><path d="M21.187 22.658h-.174c-2.738 0-4.97-.614-6.606-1.552 1.637-.941 3.87-1.557 6.61-1.557h.176c2.739 0 4.97.615 6.606 1.553-1.637.94-3.87 1.556-6.612 1.556zm13.207-1.555c4.624-1.863 7.641-4.661 7.806-7.764 0 0-1.22-.863-5.16-2.19-3.462-1.166-6.1-1.434-6.1-1.434l.01 6.917c0 1.032-.452 2.088-1.307 3.022-2.615-.58-5.505-.904-8.536-.905h-.002c-3.035 0-5.929.327-8.547.906-.855-.933-1.31-1.99-1.31-3.023l.013-6.917s-2.639.268-6.1 1.434C1.219 12.476 0 13.339 0 13.339c.164 3.104 3.184 5.903 7.81 7.766-4.621 1.862-7.638 4.66-7.803 7.763 0 0 1.22.862 5.16 2.19 3.462 1.166 6.1 1.434 6.1 1.434l-.011-6.917c0-1.032.453-2.087 1.307-3.021 2.616.58 5.506.903 8.537.903h.002c3.035 0 5.929-.324 8.547-.905.855.934 1.309 1.99 1.309 3.023l-.012 6.917s2.638-.268 6.1-1.434c3.94-1.328 5.16-2.19 5.16-2.19-.164-3.104-3.185-5.902-7.811-7.765z" fill="#0070bf" fill-rule="evenodd"/></svg>