<?xml version="1.0" encoding="utf-8"?>
<!-- Generator: Adobe Illustrator 25.1.0, SVG Export Plug-In . SVG Version: 6.00 Build 0)  -->
<svg version="1.1" id="Ebene_1" xmlns="http://www.w3.org/2000/svg" xmlns:xlink="http://www.w3.org/1999/xlink" x="0px" y="0px"
	 viewBox="0 0 32 32" style="enable-background:new 0 0 32 32;" xml:space="preserve">
<style type="text/css">
	.st0{fill:url(#gradient_72x72_aus_108x108_2_);}
	.st1{fill:#FFFFFF;}
	.st2{fill:#FFE300;}
	.st3{clip-path:url(#SVGID_2_);fill:#FFE300;}
	.st4{clip-path:url(#SVGID_2_);fill:#FFE400;}
	.st5{clip-path:url(#SVGID_2_);fill:#FFE500;}
	.st6{clip-path:url(#SVGID_2_);fill:#FFE600;}
	.st7{clip-path:url(#SVGID_2_);fill:#FFE700;}
	.st8{clip-path:url(#SVGID_2_);fill:#FFE800;}
	.st9{clip-path:url(#SVGID_2_);fill:#FFE812;}
	.st10{clip-path:url(#SVGID_2_);fill:#FFE82A;}
	.st11{clip-path:url(#SVGID_2_);fill:#FFE937;}
	.st12{clip-path:url(#SVGID_2_);fill:#FFEA42;}
	.st13{clip-path:url(#SVGID_2_);fill:#FFEA4C;}
	.st14{clip-path:url(#SVGID_2_);fill:#FFEB5E;}
	.st15{clip-path:url(#SVGID_2_);fill:#FFEC67;}
	.st16{clip-path:url(#SVGID_2_);fill:#FFEC6C;}
	.st17{clip-path:url(#SVGID_2_);fill:#FFED73;}
	.st18{clip-path:url(#SVGID_2_);fill:#FFED79;}
	.st19{clip-path:url(#SVGID_2_);fill:#FFEE7F;}
	.st20{clip-path:url(#SVGID_2_);fill:#FFEE85;}
	.st21{clip-path:url(#SVGID_2_);fill:#FFEF8B;}
	.st22{clip-path:url(#SVGID_2_);fill:#FFEF91;}
	.st23{clip-path:url(#SVGID_2_);fill:#FFF097;}
	.st24{clip-path:url(#SVGID_2_);fill:#FFF19B;}
	.st25{clip-path:url(#SVGID_2_);fill:#FFF1A1;}
	.st26{clip-path:url(#SVGID_2_);fill:#FFF1A6;}
	.st27{clip-path:url(#SVGID_2_);fill:#FFF3AC;}
	.st28{clip-path:url(#SVGID_2_);fill:#FFF4B0;}
	.st29{clip-path:url(#SVGID_2_);fill:#FFF4B5;}
	.st30{clip-path:url(#SVGID_2_);fill:#FFF5BB;}
	.st31{clip-path:url(#SVGID_2_);fill:#FFF6BF;}
	.st32{clip-path:url(#SVGID_2_);}
	.st33{fill:#FFFCFC;}
	.st34{fill:#FFF8F8;}
	.st35{fill:#FFF4F3;}
	.st36{fill:#FDF1ED;}
	.st37{fill:#FDEBE8;}
	.st38{fill:#FFE7E4;}
	.st39{fill:#FDE6E2;}
	.st40{fill:#FDE3E0;}
	.st41{fill:#FCE2DE;}
	.st42{fill:#FDE0DB;}
	.st43{fill:#FCDED9;}
	.st44{fill:#FCDCD7;}
	.st45{fill:#FDDAD4;}
	.st46{fill:#FDD8D2;}
	.st47{fill:#FCD6D0;}
	.st48{fill:#1D1D1B;}
	.st49{fill-rule:evenodd;clip-rule:evenodd;fill:#F60000;}
	.st50{fill:#F60000;}
</style>
<g id="BG_2_">
	<linearGradient id="gradient_72x72_aus_108x108_2_" gradientUnits="userSpaceOnUse" x1="16" y1="39.5222" x2="16" y2="-7.051">
		<stop  offset="0" style="stop-color:#004586"/>
		<stop  offset="1" style="stop-color:#0080CD"/>
	</linearGradient>
	<rect id="gradient_72x72_aus_108x108_1_" class="st0" width="32" height="32"/>
</g>
<path class="st1" d="M24.6,19.1c-0.2-2.9-2.5-5.2-5.4-5.2c-1.1,0-2,0.3-2.9,0.9c-1.2-1.9-3.4-3.1-5.9-2.6c-2.2,0.4-3.9,2.1-4.4,4.3
	c-0.3,1-0.2,2.1,0,3c-2.1,0.8-3.6,2.8-3.6,5.1c0,2.9,2.2,5.3,5,5.5v0h0.3h16.3h0.3v0c2.8-0.2,5-2.6,5-5.5
	C29.5,21.7,27.4,19.3,24.6,19.1z"/>
<g>
	<polygon class="st2" points="14.3,1.6 10.3,5.3 7.6,7.7 6.4,8.8 6,9 6.1,13.2 10.4,17.2 13.4,19.9 14.4,20.8 14.8,20.8 19.3,16.9 
		22.3,14 23.1,13.4 23.3,11.8 23.8,9.1 21.1,7 15.5,2.1 15,1.7 14.6,1.6 	"/>
	<g>
		<defs>
			<path id="SVGID_1_" d="M14.6,1.8C14.6,1.8,14.6,1.8,14.6,1.8C14.6,1.8,14.6,1.8,14.6,1.8C14.6,1.8,14.7,1.8,14.6,1.8
				C14.7,1.8,14.6,1.8,14.6,1.8C14.7,1.8,14.6,1.8,14.6,1.8z M4.6,11.3C4.6,11.2,4.6,11.2,4.6,11.3C4.6,11.2,4.6,11.2,4.6,11.3
				C4.6,11.2,4.6,11.3,4.6,11.3z"/>
		</defs>
		<clipPath id="SVGID_2_">
			<use xlink:href="#SVGID_1_"  style="overflow:visible;"/>
		</clipPath>
		<path class="st3" d="M12.9,18.8l-0.5-0.6c0,0-0.5-0.6-0.5-0.6l-0.4-0.4c-1.9-1.9-5.7-5.7-5.8-5.8c0,0,0,0,0,0c0,0,0,0,0,0
			c0,0,0,0,0,0c0.2-0.2,3.9-3.8,6-5.5l3.1-2.5l-0.1-1.9L10,5.7c-1.8,1.5-5.1,5.2-5.1,5.2c-0.1,0.1-0.1,0.2-0.1,0.3
			c0,0.1,0,0.2,0.1,0.3c0,0,0,0,0,0c0.6,0.5,3.5,3.4,5,4.8c0.5,0.5,0.7,0.6,0.9,0.8l0.8,0.7L12.9,18.8L12.9,18.8z"/>
		<path class="st3" d="M12.4,18.2C12.4,18.2,12.4,18.2,12.4,18.2c0,0-0.1-0.1-0.5-0.6l-0.4-0.4l-5-5l-0.8-0.8l0,0c0,0,0,0,0,0
			c0,0,0,0,0,0c0.4-0.4,4-3.8,6-5.5c0,0,3.1-2.5,3.1-2.5c0,0-0.1-1.8-0.1-1.9c0,0-4.8,4.2-4.8,4.2c-1.8,1.5-5.1,5.2-5.1,5.2
			c-0.1,0.1-0.1,0.2-0.1,0.3c0,0.1,0,0.2,0.1,0.3c0,0,0,0,0,0c0,0,0,0,0,0c0.6,0.5,3.5,3.4,5,4.8c0.5,0.5,0.7,0.6,0.9,0.8l0.8,0.7
			c0,0,0.9,0.7,1.2,0.9C12.7,18.6,12.4,18.2,12.4,18.2z"/>
		<path class="st3" d="M12.4,18.2C12.4,18.2,12.4,18.2,12.4,18.2c0,0,0-0.1-0.5-0.6l-0.4-0.4l-5-5l-0.8-0.8c0,0,0,0,0,0c0,0,0,0,0,0
			c0,0,0-0.1,0-0.1c0.4-0.4,4-3.8,6-5.5c0,0,3.1-2.5,3.1-2.5c0,0-0.1-1.8-0.1-1.9c0,0-4.7,4.2-4.7,4.2c-1.8,1.5-5.1,5.2-5.1,5.2
			c-0.1,0.1-0.1,0.2-0.1,0.3c0,0.1,0,0.2,0.1,0.3c0,0,0,0,0,0c1.1,1,3.6,3.5,5,4.8c0.5,0.5,0.7,0.6,0.9,0.8c0,0,0.8,0.7,0.8,0.7
			c0,0,1,0.7,1.1,0.8C12.6,18.5,12.4,18.2,12.4,18.2z"/>
		<path class="st4" d="M12.4,18.2C12.4,18.2,12.4,18.2,12.4,18.2c0,0,0,0-0.5-0.6l-0.4-0.4l-5-5l-0.8-0.8c0,0,0,0,0,0c0,0,0,0,0,0
			c0,0,0-0.1,0-0.1c0,0,3.9-3.7,6-5.5c0,0,3.1-2.5,3.1-2.5c0,0-0.1-1.8-0.1-1.8c0,0-4.7,4.2-4.7,4.2c-1.7,1.5-5,5.1-5.1,5.2
			c-0.1,0.1-0.1,0.2-0.1,0.3c0,0.1,0,0.2,0.1,0.3c0,0,0,0,0,0c1.1,1,3.6,3.5,5,4.8c0.5,0.5,0.7,0.6,0.9,0.8c0,0,0.8,0.7,0.8,0.7
			s0.8,0.6,1,0.8C12.5,18.4,12.4,18.2,12.4,18.2z"/>
		<path class="st4" d="M12.4,18.2C12.4,18.2,12.4,18.2,12.4,18.2c0,0,0,0-0.5-0.6l0,0l-0.4-0.4l-5-5l-0.8-0.8c0,0,0-0.1,0-0.1
			c0,0,0,0,0,0c0,0,0-0.1,0-0.1c0,0,3.9-3.7,6-5.5c0,0,3.1-2.5,3.1-2.5c0,0-0.1-1.7-0.1-1.8c0,0-4.7,4.2-4.7,4.2
			c-1.7,1.5-5,5.1-5.1,5.2c-0.1,0.1-0.1,0.2-0.1,0.3c0,0.1,0,0.2,0.1,0.3c0,0,0,0,0,0c1,1,3.6,3.5,5,4.8c0.5,0.5,0.7,0.6,0.9,0.8
			l0.8,0.7c0,0,0.6,0.5,0.9,0.7C12.5,18.3,12.4,18.2,12.4,18.2z"/>
		<path class="st5" d="M12.3,18.2C12.3,18.2,12.3,18.2,12.3,18.2c0,0-0.1-0.2-0.5-0.6l0,0l-0.4-0.4l-5-5l-0.8-0.8c0,0,0-0.1,0-0.1
			c0,0,0,0,0,0c0,0,0-0.1,0-0.1c0,0,3.9-3.7,6-5.5c0,0,3.1-2.5,3.1-2.5c0,0-0.1-1.7-0.1-1.7c0,0-4.7,4.2-4.7,4.2
			c-1.7,1.5-5,5.1-5.1,5.2c-0.1,0.1-0.1,0.2-0.1,0.3c0,0.1,0,0.2,0.1,0.3c0,0,0,0,0,0c1,1,3.6,3.5,5,4.8c0.5,0.5,0.7,0.6,0.9,0.8
			c0,0,0.8,0.7,0.8,0.7c0,0,0.7,0.5,0.8,0.6C12.4,18.3,12.3,18.2,12.3,18.2z"/>
		<path class="st5" d="M12.3,18.2C12.3,18.2,12.3,18.2,12.3,18.2l-0.5-0.6l-0.4-0.4l-5-5l-0.8-0.8l0-0.1c0,0,0,0,0,0
			c0,0,0-0.1,0-0.1c0,0,3.8-3.7,6-5.5c0,0,3.1-2.5,3.1-2.5c0,0-0.1-1.6-0.1-1.7c0,0-4.6,4.1-4.6,4.1C8.4,7.2,5.3,10.6,4.9,11
			c-0.1,0.1-0.1,0.2-0.1,0.2c0,0.1,0,0.2,0.1,0.2c0,0,0,0,0,0c1,1,3.6,3.4,5,4.8c0.5,0.5,0.7,0.6,0.9,0.8c0,0,0.8,0.7,0.8,0.7
			S12.2,18.1,12.3,18.2C12.3,18.2,12.3,18.2,12.3,18.2z"/>
		<path class="st5" d="M11.8,17.6l-0.4-0.4l-5-5l-0.8-0.8c0,0,0-0.1,0-0.1c0,0,0,0,0,0c0,0,0-0.1,0-0.1c0,0,3.8-3.7,6-5.5
			c0,0,3.1-2.5,3.1-2.5c0,0-0.1-1.6-0.1-1.7c0,0-4.6,4.1-4.6,4.1C8.4,7.2,5.3,10.6,4.9,11c-0.1,0.1-0.1,0.1-0.1,0.2
			c0,0.1,0,0.2,0.1,0.2c0,0,0,0,0,0c1,1,3.6,3.4,5,4.8c0.5,0.5,0.7,0.6,0.9,0.8c0,0,0,0,0.8,0.7c0,0,0.4,0.3,0.6,0.4
			C12.1,18,11.8,17.6,11.8,17.6z"/>
		<path class="st6" d="M11.8,17.7c0,0-0.4-0.4-0.4-0.4l-5-5l-0.8-0.8c0,0,0-0.1,0-0.1c0,0,0,0,0,0c0,0,0-0.1,0-0.1
			c0,0,3.8-3.7,6-5.6c0,0,3-2.5,3.1-2.5c0,0-0.1-1.6-0.1-1.6c0,0-4.6,4.1-4.6,4.1C8.4,7.2,5.3,10.6,4.9,11c-0.1,0.1-0.1,0.1-0.1,0.2
			c0,0.1,0,0.2,0.1,0.2l0,0c1,1,3.6,3.4,5,4.8c0.5,0.5,0.7,0.6,0.9,0.8c0,0,0,0,0,0c0,0,0.1,0.1,0.8,0.6c0,0,0.1,0.1,0.1,0.1
			c0,0,0.4,0.3,0.5,0.3C12,17.9,11.8,17.7,11.8,17.7z"/>
		<path class="st6" d="M11.8,17.7C11.8,17.7,11.8,17.7,11.8,17.7l-0.3-0.4l-5-5l-0.8-0.8c0,0,0-0.1,0-0.1c0,0,0,0,0,0
			c0,0,0-0.1,0-0.1c0,0,3.8-3.7,6-5.6c0,0,3-2.5,3.1-2.5c0,0-0.1-1.5-0.1-1.6c0,0-4.6,4.1-4.6,4.1C8.4,7.2,5.3,10.7,5,11
			c-0.1,0.1-0.1,0.1-0.1,0.2c0,0.1,0,0.2,0.1,0.2c0,0,0,0,0,0c1,1,3.6,3.4,5,4.8c0.5,0.5,0.7,0.6,0.9,0.8c0,0,0,0,0,0s0,0,0,0
			c0,0,0.2,0.1,0.7,0.6C11.6,17.6,11.7,17.7,11.8,17.7c-0.1,0,0.1,0.2,0.2,0.3C12,17.9,11.8,17.7,11.8,17.7z"/>
		<path class="st7" d="M11.8,17.7C11.8,17.7,11.8,17.7,11.8,17.7l-0.3-0.4l-5-5l-0.8-0.8c0,0,0-0.1,0-0.1c0,0,0,0,0,0
			c0,0,0-0.1,0-0.1c0,0,3.7-3.6,6-5.6c0,0,3-2.4,3.1-2.5c0,0-0.1-1.5-0.1-1.5c0,0-4.5,4-4.5,4C8.4,7.2,5.3,10.7,5,11
			c-0.1,0.1-0.1,0.1-0.1,0.2c0,0.1,0,0.1,0.1,0.2c0,0,0,0,0,0c1,1,3.6,3.4,5,4.8c0.5,0.5,0.7,0.6,0.9,0.8
			C10.9,17,11.7,17.7,11.8,17.7c-0.1,0,0,0.1,0.1,0.2C11.8,17.8,11.8,17.7,11.8,17.7z"/>
		<path class="st8" d="M11.8,17.7C11.8,17.7,11.8,17.7,11.8,17.7l-0.3-0.4l-5-5l-0.8-0.8c0,0,0-0.1,0-0.1c0,0,0,0,0,0
			c0,0,0-0.1,0-0.1c0,0,3.8-3.8,6-5.6c0,0,3-2.4,3.1-2.5c0,0-0.1-1.4-0.1-1.5c0,0-4.5,4-4.5,4C8.4,7.2,5.3,10.7,5,11
			c-0.1,0.1-0.1,0.1-0.1,0.2c0,0.1,0,0.1,0.1,0.2l0,0c1,1,3.6,3.4,5,4.8c0.5,0.5,0.7,0.6,0.9,0.8C10.9,17,11.7,17.7,11.8,17.7
			C11.7,17.7,11.7,17.7,11.8,17.7C11.8,17.7,11.8,17.7,11.8,17.7z"/>
		<path class="st9" d="M11.4,17.3l-5-5l-0.8-0.8c0,0,0-0.1,0-0.1c0,0,0,0,0,0l0-0.1c0,0,3.8-3.8,6-5.6c0,0,3-2.4,3.1-2.5
			c0,0-0.1-1.4-0.1-1.5c0,0-4.5,4-4.5,4C8.4,7.3,5.3,10.7,5,11c-0.1,0-0.1,0.1-0.1,0.2c0,0.1,0,0.1,0.1,0.2c0,0,0,0,0,0
			c1,1,3.6,3.4,5,4.8c0.5,0.5,0.7,0.6,0.9,0.8c0,0,0.6,0.5,0.8,0.6C11.5,17.5,11.4,17.3,11.4,17.3z"/>
		<path class="st10" d="M11.4,17.3c0,0-5-5-5-5l-0.8-0.8c0,0-0.1-0.1-0.1-0.1l0,0c0,0,0,0,0,0c0,0,0-0.1,0-0.1c0,0,3.8-3.8,6-5.6
			c0,0,3-2.4,3.1-2.5c0,0-0.1-1.4-0.1-1.4c0,0-4.5,4-4.5,4C8.5,7.3,5.3,10.7,5,11c0,0-0.1,0.1-0.1,0.2c0,0.1,0,0.1,0.1,0.2l0,0
			c1,1,3.6,3.4,5,4.8c0.5,0.5,0.7,0.6,0.9,0.8C10.9,17,11.4,17.4,11.4,17.3C11.4,17.4,11.4,17.3,11.4,17.3z"/>
		<path class="st11" d="M6.4,12.4l-0.8-0.8c0,0-0.1-0.1-0.1-0.1c0,0,0,0,0,0l0,0l0-0.1c0,0,3.8-3.8,6-5.6c0,0,3-2.4,3.1-2.5
			c0,0-0.1-1.3-0.1-1.4c0,0-4.4,4-4.4,4C8.5,7.3,5.3,10.7,5,11c0,0-0.1,0.1-0.1,0.2c0,0.1,0,0.1,0.1,0.2c0,0,0,0,0,0
			c1,1,3.6,3.4,5,4.8c0.5,0.5,0.7,0.6,0.8,0.8c0,0,0.2,0.2,0.4,0.3C10.8,16.8,9.2,15.2,6.4,12.4z"/>
		<path class="st12" d="M5.6,11.6C5.6,11.6,5.5,11.5,5.6,11.6c-0.1-0.1-0.1-0.1-0.1-0.1c0,0,0,0,0,0c0,0,0-0.1,0-0.1
			c0,0,3.8-3.8,6-5.6c0,0,3-2.4,3.1-2.5c0,0-0.1-1.3-0.1-1.3c0,0-4.4,3.9-4.4,3.9C8.5,7.3,5.4,10.7,5,11.1c0,0-0.1,0.1-0.1,0.1
			c0,0.1,0,0.1,0.1,0.1c0,0,0,0,0,0c1,1,3.6,3.4,5,4.8c0.5,0.5,0.7,0.6,0.8,0.8c0,0,0.1,0,0.1,0.1C10.7,16.7,5.6,11.6,5.6,11.6z"/>
		<path class="st12" d="M5.6,11.6C5.6,11.6,5.6,11.6,5.6,11.6L5.6,11.6c-0.1-0.1-0.1-0.1-0.1-0.1c0,0,0,0,0,0l0-0.1
			c0,0,3.8-3.8,6-5.6c0,0,3-2.4,3.1-2.5c0,0-0.1-1.2-0.1-1.3c0,0-4.4,3.9-4.4,3.9C8.5,7.3,5.4,10.7,5,11.1c0,0-0.1,0.1-0.1,0.1
			c0,0,0,0.1,0.1,0.1c0,0,0,0,0,0c1,1,3.6,3.4,5,4.8c0.4,0.4,0.6,0.6,0.7,0.7C10.4,16.4,5.6,11.6,5.6,11.6z"/>
		<path class="st13" d="M5.6,11.6C5.6,11.6,5.6,11.6,5.6,11.6L5.6,11.6c-0.1-0.1-0.1-0.1-0.1-0.1c0,0,0,0,0,0c0,0,0-0.1,0-0.1
			c0,0,3.8-3.8,6-5.6c0,0,3-2.4,3.1-2.5c0,0-0.1-1.2-0.1-1.3c0,0-4.4,3.9-4.4,3.9C8.5,7.3,5.4,10.7,5,11.1c0,0-0.1,0.1-0.1,0.1
			c0,0,0,0.1,0.1,0.1c0,0,0,0,0,0c0.8,0.8,3.5,3.4,5,4.8c0.2,0.2,0.3,0.3,0.4,0.4C9.9,16,5.6,11.6,5.6,11.6z"/>
		<path class="st13" d="M5.6,11.6C5.6,11.6,5.6,11.6,5.6,11.6L5.6,11.6c-0.1-0.1-0.1-0.1-0.1-0.1c0,0,0,0,0,0l0-0.1
			c0,0,3.8-3.8,6-5.7c0,0,3-2.4,3.1-2.5c0,0-0.1-1.2-0.1-1.2c0,0-4.3,3.9-4.3,3.9C8.5,7.3,5.4,10.7,5,11.1c0,0-0.1,0.1-0.1,0.1
			c0,0,0,0.1,0.1,0.1c0,0,0,0,0,0c0.7,0.7,3,2.8,4.5,4.3C8.4,14.4,5.6,11.6,5.6,11.6z"/>
		<path class="st14" d="M5.6,11.6C5.6,11.6,5.6,11.6,5.6,11.6L5.6,11.6C5.5,11.5,5.5,11.5,5.6,11.6c-0.1-0.1-0.1-0.1-0.1-0.1
			c0,0,0,0,0,0c0,0,0-0.2,0-0.2c0,0,3.8-3.8,6-5.7c0,0,3-2.4,3-2.5c0,0-0.1-1.1-0.1-1.2c0,0-4.3,3.8-4.3,3.8
			c-1.6,1.4-4.8,4.9-5.1,5.2c0,0-0.1,0.1-0.1,0.1c0,0,0,0.1,0,0.1c0,0,2.3,2.2,3.6,3.5C7.6,13.7,5.6,11.6,5.6,11.6z"/>
		<path class="st15" d="M5.5,11.6C5.5,11.6,5.5,11.6,5.5,11.6L5.5,11.6c-0.1-0.1-0.1-0.1-0.1-0.1c0,0,0,0,0,0l0-0.2
			c0,0,3.8-3.8,6.1-5.7c0,0,3-2.4,3-2.5c0,0-0.1-1.1-0.1-1.1c0,0-4.3,3.8-4.3,3.8c-1.6,1.4-4.8,4.9-5.1,5.2c0,0,0,0.1,0,0.1
			c0,0,0,0.1,0,0.1c0,0,1.8,1.7,2.7,2.6C6.9,13,5.5,11.6,5.5,11.6z"/>
		<path class="st16" d="M5.5,11.7C5.5,11.7,5.5,11.6,5.5,11.7C5.5,11.6,5.5,11.6,5.5,11.7c-0.1-0.1-0.1-0.1-0.1-0.1c0,0,0,0,0,0
			c0,0,0-0.2,0-0.2c0,0,3.8-3.8,6.1-5.7c0,0,3-2.4,3-2.5c0,0-0.1-1-0.1-1.1c0,0-4.3,3.8-4.3,3.8c-1.6,1.4-4.8,4.9-5.1,5.2
			c0,0,0,0.1,0,0.1c0,0,0,0.1,0,0.1c0,0,1.2,1.1,1.9,1.8C6.3,12.4,5.5,11.7,5.5,11.7z"/>
		<path class="st17" d="M5.5,11.7C5.5,11.7,5.5,11.7,5.5,11.7C5.5,11.7,5.5,11.7,5.5,11.7c0,0,0,0-0.1-0.1c0,0,0,0,0,0l0,0
			c0,0,0,0,0,0l0-0.2c0,0,3.8-3.8,6.1-5.7c0,0,3-2.4,3-2.4c0,0-0.1-1-0.1-1.1c0,0-4.2,3.8-4.2,3.8c-1.6,1.4-4.8,4.9-5.1,5.2
			c0,0,0,0,0,0.1c0,0,0,0,0,0.1c0,0,0.7,0.7,1,0.9C5.8,11.9,5.5,11.7,5.5,11.7z"/>
		<path class="st18" d="M5.5,11.7L5.5,11.7C5.5,11.7,5.5,11.7,5.5,11.7z M5.4,11.6C5.4,11.6,5.4,11.5,5.4,11.6
			C5.4,11.5,5.4,11.5,5.4,11.6C5.4,11.5,5.4,11.5,5.4,11.6c0-0.1,0-0.3,0-0.3c0,0,3.9-3.8,6.1-5.7c0,0,3-2.4,3-2.4c0,0-0.1-1-0.1-1
			c0,0-4.2,3.8-4.2,3.8c-1.6,1.4-4.8,4.9-5.1,5.2c0,0,0,0,0,0.1c0,0,0,0,0,0.1C5.1,11.3,5.4,11.5,5.4,11.6
			C5.5,11.6,5.4,11.6,5.4,11.6z"/>
		<path class="st19" d="M5.4,11.6L5.4,11.6C5.4,11.6,5.4,11.6,5.4,11.6z M5.4,11.5C5.4,11.5,5.4,11.5,5.4,11.5
			C5.4,11.5,5.4,11.5,5.4,11.5c0-0.1,0-0.2,0-0.2c0,0,3.9-3.8,6.1-5.7c0,0,3-2.4,3-2.4c0,0-0.1-0.9-0.1-1c0,0-4.2,3.7-4.2,3.7
			c-1.6,1.4-4.8,4.9-5.1,5.2c0,0,0,0,0,0.1c0,0,0,0,0,0C5.1,11.2,5.3,11.5,5.4,11.5C5.4,11.5,5.4,11.5,5.4,11.5z"/>
		<path class="st20" d="M5.4,11.5"/>
		<path class="st21" d="M5.4,11.3c0,0,3.9-3.8,6.1-5.7c0,0,2.9-2.3,3-2.4c0,0,0-0.2,0-0.2s-0.1-0.6-0.1-0.7c0,0-4.1,3.7-4.1,3.7
			C9,7.1,6.8,9.4,5.7,10.5l-0.6,0.6c0,0,0,0,0,0c0,0,0,0,0,0c0,0,0,0,0,0c0,0,0.2,0.2,0.2,0.2C5.4,11.4,5.4,11.3,5.4,11.3z"/>
		<path class="st22" d="M5.4,11.3L5.4,11.3c0,0,3.9-3.9,6.1-5.7c0,0,2.9-2.4,3-2.4c0,0,0-0.2,0-0.2s-0.1-0.5-0.1-0.7
			c0,0-4.1,3.7-4.1,3.7C9,7.1,6.8,9.4,5.7,10.6l-0.6,0.6l0,0c0,0,0,0,0,0c0,0,0,0,0,0s0,0,0,0c0,0,0.1,0.1,0.2,0.2
			C5.4,11.4,5.4,11.3,5.4,11.3z"/>
		<path class="st23" d="M5.4,11.3L5.4,11.3c0-0.1,3.9-3.9,6.1-5.8c0,0,2.9-2.4,3-2.4c0,0,0-0.2,0-0.2s-0.1-0.5-0.1-0.6
			c0,0-4.1,3.7-4.1,3.7C9,7.1,6.8,9.4,5.7,10.6c0,0,0,0-0.6,0.6c0,0,0,0,0,0c0,0,0,0,0,0c0,0,0,0,0,0l0,0
			C5.2,11.2,5.2,11.3,5.4,11.3C5.3,11.4,5.4,11.3,5.4,11.3z"/>
		<path class="st24" d="M5.3,11.3L5.3,11.3c0-0.1,3.9-3.9,6.1-5.8c0,0,0,0,1.6-1.3c0,0,1.4-1.1,1.4-1.1c0,0-0.1-0.7-0.1-0.8
			c0,0-4.1,3.6-4.1,3.6C9,7.1,6.8,9.4,5.8,10.6c0,0,0,0,0,0c0,0,0,0-0.1,0.1l-0.5,0.5c0,0,0,0,0,0C5.2,11.2,5.2,11.3,5.3,11.3
			C5.3,11.3,5.3,11.3,5.3,11.3z"/>
		<path class="st25" d="M5.3,11.3L5.3,11.3c0-0.1,3.9-3.9,6.1-5.8c0,0,0,0,0,0c0,0,0,0,0,0c0,0,2.9-2.4,2.9-2.4c0,0-0.1-0.7-0.1-0.7
			c0,0-4,3.6-4,3.6C9,7.1,6.8,9.5,5.8,10.6c0,0-0.1,0.1-0.1,0.1c0,0-0.5,0.5-0.5,0.5C5.2,11.2,5.3,11.3,5.3,11.3
			C5.3,11.3,5.3,11.3,5.3,11.3z"/>
		<path class="st26" d="M10.3,6C9,7.1,6.8,9.5,5.8,10.6c0,0-0.1,0.1-0.1,0.1c0,0-0.4,0.5-0.5,0.5c0,0,0.1,0.1,0.1,0.1l0,0
			c0,0,3.9-3.9,6.1-5.8c0,0,0,0,0,0c0,0,2.9-2.3,2.9-2.4c0,0,0-0.2,0-0.2c0-0.2-0.1-0.4-0.1-0.5C14.3,2.5,10.3,6,10.3,6z"/>
		<path class="st27" d="M10.3,6C9,7.1,6.8,9.5,5.8,10.6c0,0-0.5,0.5-0.6,0.6c0,0,0.1,0.1,0.1,0.1c0.3-0.3,3.9-3.9,6.1-5.8
			c0,0,0,0,0,0c0,0,2.8-2.3,2.9-2.4c0,0,0-0.2,0-0.2s0-0.4-0.1-0.5C14.3,2.5,10.3,6,10.3,6z"/>
		<path class="st28" d="M10.3,6c-1.3,1.1-3.5,3.5-4.5,4.6c0,0-0.5,0.6-0.6,0.6c0,0,0,0,0.1,0.1c0.3-0.3,4-3.9,6.1-5.8c0,0,0,0,0,0
			c0,0,2.9-2.3,2.9-2.4c0,0,0-0.2,0-0.2s0-0.4-0.1-0.5C14.3,2.5,10.3,6,10.3,6z"/>
		<path class="st29" d="M10.3,6c-1.3,1.1-3.5,3.5-4.5,4.6c0,0-0.5,0.6-0.5,0.6c0,0,0,0,0,0c0.4-0.4,3.9-3.9,6.1-5.7c0,0,0,0,0,0
			c0,0,0,0,1.6-1.3c0,0,1.3-1,1.3-1c0,0,0-0.1,0-0.1c0,0,0-0.4,0-0.4C14.2,2.5,10.3,6,10.3,6z"/>
		<path class="st30" d="M10.3,6c-1.3,1.1-3.5,3.5-4.5,4.6c0,0,0,0-0.3,0.3c0,0-0.2,0.3-0.3,0.3c0,0,0,0,0,0c0.4-0.4,4-3.9,6.1-5.7
			c0,0,0,0,0,0s0,0,0,0c0,0,0.1-0.1,0.3-0.2c0,0,2.6-2.1,2.6-2.1c0,0,0-0.1,0-0.1l0,0c0,0,0-0.4,0-0.4C14.2,2.6,10.3,6,10.3,6z"/>
		<path class="st31" d="M10.3,6.1c-1.3,1.1-3.5,3.5-4.5,4.6c0,0,0,0,0,0c0,0,0,0-0.1,0.1c0,0-0.1,0.1-0.2,0.2c1-1,3.9-3.8,5.7-5.4
			c0,0,0,0,0,0l0,0c0,0,0,0,0.3-0.2c0,0,2.6-2.1,2.6-2.1c0,0,0-0.1,0-0.1c0,0,0-0.4,0-0.4C14.2,2.6,10.3,6.1,10.3,6.1z"/>
		<g class="st32">
			<path class="st2" d="M16.3,3.7l0.5,0.6c0,0,0.5,0.6,0.5,0.6l0.4,0.4c1.9,1.9,5.7,5.7,5.8,5.8c0,0,0,0,0,0c0,0,0,0,0,0
				c0,0,0,0,0,0c-0.2,0.2-3.9,3.8-6,5.5l-3.1,2.5l0.1,1.9l4.8-4.3c1.8-1.5,5.1-5.2,5.1-5.2c0.1-0.1,0.1-0.2,0.1-0.3
				c0-0.1,0-0.2-0.1-0.3c0,0,0,0,0,0c-0.6-0.5-3.5-3.4-5-4.8c-0.5-0.5-0.7-0.6-0.9-0.8l-0.8-0.7L16.3,3.7L16.3,3.7z"/>
			<path class="st33" d="M16.9,4.3C16.9,4.3,16.9,4.3,16.9,4.3c0,0,0,0.1,0.5,0.6l0.4,0.4l5,5l0.8,0.8c0,0,0,0,0,0c0,0,0,0,0,0
				c0,0,0,0.1,0,0.1c-0.4,0.4-4,3.8-6,5.5c0,0-3.1,2.5-3.1,2.5c0,0,0.1,1.8,0.1,1.9c0,0,4.7-4.2,4.7-4.2c1.8-1.5,5.1-5.2,5.1-5.2
				c0.1-0.1,0.1-0.2,0.1-0.3c0-0.1,0-0.2-0.1-0.3c0,0,0,0,0,0c-1.1-1-3.6-3.5-5-4.8c-0.5-0.5-0.7-0.6-0.9-0.8c0,0-0.8-0.7-0.8-0.7
				c0,0-1-0.7-1.1-0.8C16.6,4,16.9,4.3,16.9,4.3z"/>
			<path class="st34" d="M16.9,4.3C16.9,4.3,16.9,4.3,16.9,4.3c0,0,0,0,0.5,0.6l0,0l0.4,0.4l5,5l0.8,0.8c0,0,0,0.1,0,0.1
				c0,0,0,0,0,0c0,0,0,0.1,0,0.1c0,0-3.9,3.7-6,5.5c0,0-3.1,2.5-3.1,2.5c0,0,0.1,1.7,0.1,1.8c0,0,4.7-4.2,4.7-4.2
				c1.7-1.5,5-5.1,5.1-5.2c0.1-0.1,0.1-0.2,0.1-0.3c0-0.1,0-0.2-0.1-0.3c0,0,0,0,0,0c-1-1-3.6-3.5-5-4.8c-0.5-0.5-0.7-0.6-0.9-0.8
				c0,0-0.8-0.7-0.8-0.7S17,4.2,16.7,4C16.8,4.1,16.9,4.3,16.9,4.3z"/>
			<path class="st35" d="M16.9,4.2L16.9,4.2l0.5,0.6l0.4,0.4l5,5l0.8,0.8l0,0.1c0,0,0,0,0,0c0,0,0,0.1,0,0.1c0,0-3.8,3.7-6,5.5
				c0,0-3.1,2.5-3.1,2.5c0,0,0.1,1.6,0.1,1.7c0,0,4.6-4.1,4.6-4.1c1.7-1.5,4.8-4.9,5.1-5.2c0.1-0.1,0.1-0.2,0.1-0.2
				c0-0.1,0-0.2-0.1-0.2c0,0,0,0,0,0c-1-1-3.6-3.4-5-4.8c-0.5-0.5-0.7-0.6-0.9-0.8c0,0-0.8-0.7-0.8-0.7S17.1,4.3,16.9,4.2
				C16.9,4.2,16.9,4.2,16.9,4.2z"/>
			<path class="st36" d="M17.5,4.8c0,0,0.4,0.4,0.4,0.4l5,5l0.8,0.8c0,0,0,0.1,0,0.1c0,0,0,0,0,0c0,0,0,0.1,0,0.1c0,0-3.8,3.7-6,5.6
				c0,0-3,2.5-3.1,2.5c0,0,0.1,1.6,0.1,1.6c0,0,4.6-4.1,4.6-4.1c1.7-1.5,4.8-4.9,5.1-5.2c0.1-0.1,0.1-0.1,0.1-0.2
				c0-0.1,0-0.2-0.1-0.2c0,0,0,0,0,0c-1-1-3.6-3.4-5-4.8c-0.5-0.5-0.7-0.6-0.9-0.8c0,0,0,0,0,0c0,0-0.1-0.1-0.8-0.6
				c0,0-0.1-0.1-0.1-0.1c0,0-0.4-0.3-0.5-0.3C17.3,4.6,17.5,4.8,17.5,4.8z"/>
			<path class="st37" d="M17.5,4.8C17.5,4.8,17.5,4.8,17.5,4.8l0.3,0.4l5,5l0.8,0.8l0,0.1c0,0,0,0,0,0c0,0,0,0.1,0,0.1
				c0,0-3.7,3.6-6,5.6c0,0-3,2.4-3.1,2.5c0,0,0.1,1.5,0.1,1.5c0,0,4.5-4,4.5-4c1.7-1.5,4.8-4.9,5.1-5.2c0.1-0.1,0.1-0.1,0.1-0.2
				c0-0.1,0-0.1-0.1-0.2c0,0,0,0,0,0c-1-1-3.6-3.4-5-4.8c-0.5-0.5-0.7-0.6-0.9-0.8C18.4,5.4,17.6,4.8,17.5,4.8c0.1,0,0-0.1-0.1-0.2
				C17.4,4.7,17.5,4.8,17.5,4.8z"/>
			<path class="st38" d="M17.9,5.1l5,5l0.8,0.8c0,0,0,0.1,0,0.1c0,0,0,0,0,0l0,0.1c0,0-3.8,3.8-6,5.6c0,0-3,2.4-3.1,2.5
				c0,0,0.1,1.4,0.1,1.5c0,0,4.5-4,4.5-4c1.7-1.5,4.8-4.9,5.1-5.2c0.1,0,0.1-0.1,0.1-0.2c0-0.1,0-0.1-0.1-0.2c0,0,0,0,0,0
				c-1-1-3.6-3.4-5-4.8c-0.5-0.5-0.7-0.6-0.9-0.8c0,0-0.6-0.5-0.8-0.6C17.7,5,17.9,5.1,17.9,5.1z"/>
			<path class="st39" d="M22.8,10.1l0.8,0.8l0.1,0.1c0,0,0,0,0,0l0,0l0,0.1c0,0-3.8,3.8-6,5.6c0,0-3,2.4-3.1,2.5
				c0,0,0.1,1.3,0.1,1.4c0,0,4.4-4,4.4-4c1.7-1.5,4.8-4.9,5.1-5.2c0,0,0.1-0.1,0.1-0.2c0-0.1,0-0.1-0.1-0.2c0,0,0,0,0,0
				c-1-1-3.6-3.4-5-4.8c-0.5-0.5-0.7-0.6-0.8-0.8c0,0-0.2-0.2-0.4-0.3C18.4,5.7,20.1,7.3,22.8,10.1z"/>
			<path class="st40" d="M23.7,10.9C23.7,10.9,23.7,10.9,23.7,10.9L23.7,10.9c0.1,0.1,0.1,0.1,0.1,0.1c0,0,0,0,0,0l0,0.1
				c0,0-3.8,3.8-6,5.6c0,0-3,2.4-3.1,2.5c0,0,0.1,1.2,0.1,1.3c0.1,0,4.4-3.9,4.4-3.9c1.7-1.5,4.8-4.9,5.1-5.2c0,0,0.1-0.1,0.1-0.1
				c0,0,0-0.1-0.1-0.1c0,0,0,0,0,0c-1-1-3.6-3.4-5-4.8c-0.4-0.4-0.6-0.6-0.7-0.7C18.8,6,23.7,10.9,23.7,10.9z"/>
			<path class="st41" d="M23.7,10.9C23.7,10.9,23.7,10.9,23.7,10.9L23.7,10.9c0.1,0.1,0.1,0.1,0.1,0.1c0,0,0,0,0,0l0,0.1
				c0,0-3.8,3.8-6,5.7c0,0-3,2.4-3.1,2.5c0,0,0.1,1.2,0.1,1.2c0,0,4.3-3.9,4.3-3.9c1.6-1.5,4.8-4.9,5.1-5.2c0,0,0.1-0.1,0.1-0.1
				c0,0,0-0.1-0.1-0.1c0,0,0,0,0,0c-0.7-0.7-3-2.8-4.5-4.3C20.9,8,23.7,10.9,23.7,10.9z"/>
			<path class="st42" d="M23.7,10.8C23.7,10.8,23.7,10.8,23.7,10.8L23.7,10.8c0.1,0.1,0.1,0.1,0.1,0.1c0,0,0,0,0,0l0,0.2
				c0,0-3.8,3.8-6.1,5.7c0,0-3,2.4-3,2.5c0,0,0.1,1.1,0.1,1.1c0,0,4.3-3.8,4.3-3.8c1.6-1.4,4.8-4.9,5.1-5.2c0,0,0-0.1,0-0.1
				c0,0,0-0.1,0-0.1c0,0-1.8-1.7-2.7-2.6C22.4,9.5,23.7,10.8,23.7,10.8z"/>
			<path class="st43" d="M23.7,10.8C23.7,10.8,23.8,10.8,23.7,10.8C23.7,10.8,23.7,10.8,23.7,10.8c0,0,0,0,0.1,0.1c0,0,0,0,0,0
				c0,0,0,0,0,0c0,0,0,0,0,0l0,0.2c0,0-3.8,3.8-6.1,5.7c0,0-3,2.4-3,2.4c0,0,0.1,1,0.1,1.1c0,0,4.2-3.8,4.2-3.8
				c1.6-1.4,4.8-4.9,5.1-5.2c0,0,0,0,0-0.1c0,0,0,0,0-0.1c0,0-0.7-0.7-1-0.9C23.5,10.5,23.7,10.8,23.7,10.8z"/>
			<path class="st44" d="M23.8,10.9L23.8,10.9C23.8,10.9,23.8,10.9,23.8,10.9z M23.9,10.9C23.9,10.9,23.9,11,23.9,10.9
				C23.9,11,23.9,11,23.9,10.9c0,0.1,0,0.2,0,0.2c0,0-3.9,3.8-6.1,5.7c0,0-3,2.4-3,2.4c0,0,0.1,0.9,0.1,1c0,0,4.2-3.7,4.2-3.7
				c1.6-1.4,4.8-4.9,5.1-5.2c0,0,0,0,0-0.1c0,0,0,0,0,0C24.2,11.2,23.9,11,23.9,10.9C23.8,10.9,23.9,10.9,23.9,10.9z"/>
			<path class="st45" d="M23.9,11.2c0,0-3.9,3.8-6.1,5.7c0,0-2.9,2.3-3,2.4c0,0,0,0.2,0,0.2s0.1,0.6,0.1,0.7c0,0,4.1-3.7,4.1-3.7
				c1.3-1.1,3.5-3.5,4.5-4.6l0.6-0.6v0c0,0,0,0,0,0c0,0,0,0,0,0c0,0-0.2-0.2-0.2-0.2C23.9,11,23.9,11.2,23.9,11.2z"/>
			<path class="st46" d="M23.9,11.2L23.9,11.2c0,0.1-3.9,3.9-6.1,5.8c0,0-2.9,2.4-3,2.4c0,0,0,0.2,0,0.2s0.1,0.5,0.1,0.6
				c0,0,4.1-3.7,4.1-3.7c1.3-1.1,3.5-3.5,4.5-4.6c0,0,0,0,0.6-0.6c0,0,0,0,0,0c0,0,0,0,0,0c0,0,0,0,0,0l0,0
				C24.1,11.3,24,11.2,23.9,11.2C23.9,11.1,23.9,11.2,23.9,11.2z"/>
			<path class="st47" d="M23.9,11.2L23.9,11.2c0,0.1-3.9,3.9-6.1,5.8c0,0,0,0,0,0c0,0,0,0,0,0c0,0-2.9,2.4-2.9,2.4
				c0,0,0.1,0.7,0.1,0.7c0,0,4-3.6,4-3.6c1.3-1.1,3.5-3.5,4.5-4.6c0,0,0.1-0.1,0.1-0.1c0,0,0.5-0.5,0.5-0.5
				C24.1,11.3,24,11.2,23.9,11.2C23.9,11.2,23.9,11.2,23.9,11.2z"/>
		</g>
	</g>
	<g>
		<path class="st48" d="M22.8,13.6C22.8,13.6,22.8,13.6,22.8,13.6L22.8,13.6c-0.1,0-1.2,1.1-2.6,2.4c-1.4,1.3-5.1,4.5-5.3,4.7
			c-0.2,0.1-0.4,0.1-0.5,0c-0.1-0.1-0.3-0.2-0.8-0.6l-0.2-0.2c-0.4-0.3-1.1-0.9-1.7-1.5c-0.3-0.2-0.5-0.5-0.7-0.6
			c-0.6-0.6-2-1.8-2.7-2.5c-0.7-0.6-2.2-2.1-2.2-2.1l-0.1,0.1c0,0,1.5,1.4,2.2,2.1c0.2,0.2,1.9,1.8,2.7,2.5c0.2,0.2,0.4,0.4,0.7,0.6
			c0.6,0.5,1.2,1.1,1.7,1.5l0.2,0.2c0.5,0.4,0.7,0.6,0.8,0.6c0.1,0.1,0.2,0.1,0.3,0.1c0,0,0.1,0,0.1,0c0.1,0,0.2,0.1,0.3,0.2
			c0.1,0.1,0.2,0.1,0.5,0c0.3-0.2,0.8-0.6,1.7-1.4c0.9-0.8,2.1-1.9,2.7-2.5c0.6-0.6,1.9-1.8,2.5-2.3c0.6-0.6,1.1-1.1,1.1-1.1
			L22.8,13.6z"/>
		<path class="st48" d="M9.9,5.7c0.3-0.3,1.5-1.4,2.7-2.5c0.9-0.8,1.6-1.4,1.8-1.5c0.2-0.1,0.3-0.2,0.5-0.1c0,0,0.3,0.2,0.9,0.7
			c0.1,0.1,0.3,0.2,0.4,0.4c0.4,0.4,0.9,0.7,1.2,1.1c0.3,0.3,0.8,0.7,1.2,1.1c0.4,0.3,0.8,0.7,1,0.9C20.1,6.3,21,7.2,21,7.2l0.1-0.1
			c0,0-0.1-0.1-0.2-0.2h0.2l-0.1-0.1c0,0-1.9-1.8-2.9-2.6c-0.9-0.8-1.8-1.6-2.2-1.9c-0.4-0.3-0.5-0.4-0.6-0.4c0,0-0.1,0-0.1,0
			c-0.2-0.2-0.4-0.2-0.4-0.3c-0.3-0.2-0.6,0-0.7,0.1c-0.2,0.1-0.9,0.7-1.8,1.5c-1.1,1-2.3,2.2-2.7,2.5c-0.7,0.6-2,1.9-2.1,1.9
			l0.1,0.1C7.9,7.6,9.3,6.3,9.9,5.7z"/>
	</g>
	<g>
		<path class="st48" d="M12.4,12.3c0.8-0.6,1-1.1,0.9-1.7c0-0.5-0.2-0.8-0.5-1c-0.3-0.9-1.4-1.1-2.1-1.1c-0.7-0.1-1.8,0-2.5,0L8,8.4
			l0-0.9c0,0-0.2,0-0.4,0l0-0.5l0-0.1c0,0-1.9,0-3.8,0.1L3.7,7v7h0.7v0.3h1.8l0-2.4l1.7,0v-1.4l-0.4,0l0-0.7l-1.3,0l0-0.7L8,9v5.9
			h0.7v0.4h1.8v-2.5l1.4,2.3L12,15c0.1,0,0.1-0.1,0.2-0.1l0.3,0.4c0.5-0.4,1.4-1.3,1.4-1.3c-0.2-0.2-0.3-0.4-0.5-0.6L12.4,12.3z
			 M10.5,11.2v-1h0.3c0,0.1,0.1,0.2,0.1,0.3C10.8,10.8,10.7,11,10.5,11.2z"/>
		<path class="st48" d="M28.2,11.4l0.5-3.1l-0.4,0l0.1-0.4l-1.8-0.1l-0.2,3.4l0.6,0l-1,0.8h-0.2l0-0.5l-0.2,0c-0.5,0-1,0-1.4,0
			l2.1-4c-0.2,0-0.4,0-0.6,0L26,6.9l-0.3,0c-2.4-0.1-4.1-0.1-4.7-0.1l-0.1,0v1.5h-5.1V7.8l-0.4,0V7.1l-1.6,0l0.2,0.9l-0.7,0.2l0,5.2
			h0.7l0,0.3h1.8v-3.6c0.1,0,0.2,0,0.4,0v0.3h1v4.4H18v0.3h1.8v-4.8h1.7V9c0.5,0,1,0,1.3,0l-2.3,4.4h0.4c0,0,0.3,0,0.6,0l-0.2,0.3
			h0.1c0.1,0,4.8,0,4.8,0l0-1.4l0.7,0.9l0.3-0.3l0.3,0.3l0.9-0.8l-0.9-1.1L28.2,11.4z"/>
	</g>
	<polygon class="st49" points="15.3,7.3 15.3,13.3 13.6,13.3 13.5,8.4 14.3,8.2 14.1,7.3 	"/>
	<path class="st49" d="M8.2,8.6c0.7,0,1.8-0.1,2.5,0c0.9,0.1,2,0.3,2.1,1.5c0,0.6-0.2,1.1-1,1.7l1.6,1.8c-0.4,0.4-0.9,0.8-1.4,1.3
		l-1.9-3.1c0.4-0.3,0.9-0.8,0.9-1.3c0-0.5-0.5-0.8-0.7-0.8H9.9v5.1H8.2V8.6z"/>
	<polygon class="st49" points="17.4,14.8 17.4,10 15.7,10.1 15.7,8.5 20.9,8.5 20.9,10.1 19.2,10 19.2,14.8 	"/>
	<path class="st49" d="M21.1,8.5V7c0.6,0,2.3,0,4.7,0.1l-2.5,4.6c0.5,0,1.3,0,2.3,0l0,1.6c0,0-4.7,0-4.8,0l-0.1,0l2.5-4.8
		C22.6,8.5,22,8.5,21.1,8.5z"/>
	<polygon class="st50" points="7.5,8 7.5,8.5 5.6,8.5 5.6,9.9 7.3,9.9 7.3,11.4 5.7,11.4 5.7,13.8 3.8,13.8 3.8,7.1 7.5,7 	"/>
	<polygon class="st49" points="26.5,11.1 27.7,11.1 28.1,8.1 26.7,7.9 	"/>
	<g>
		<polygon class="st50" points="26.2,12.1 27.1,11.3 27.8,12.2 26.9,13 26.2,12.1 		"/>
		<path class="st50" d="M27,12.1"/>
	</g>
</g>
</svg>
