<svg xmlns="http://www.w3.org/2000/svg" viewBox="0 0 92 92" fill="#007da6"><path d="m70 20.79-9.46 1.58v15.44c0-.63-1.57-1-2.83-1.26a10.65 10.65 0 0 0-3.47-.32 13.33 13.33 0 0 0-6.3 1.26A13.15 13.15 0 0 0 43.17 41a15.91 15.91 0 0 0-2.84 5.67 27.61 27.61 0 0 0-.95 7.56 17.45 17.45 0 0 0 1.27 7.25 17.24 17.24 0 0 0 3.46 5.67 13.18 13.18 0 0 0 5.67 3.46 19 19 0 0 0 7.56 1.27 15.1 15.1 0 0 0 3.78-.32c1.26 0 2.52-.31 3.78-.31 1.26-.32 1.89-.32 2.84-.64l2.52-.61V20.79zM35.29 40c0-1.89-2.84-3.46-5-3.46h-6.66c-1.89 0-4.41 1.57-4.41 3.46v17.34c0 .32 3.15.63 3.15.95v12.6h9.45v-12.6c0-.32 0-.63 3.15-.95V40zM21.11 27.1a5.44 5.44 0 0 0 1.57 4.09 6.66 6.66 0 0 0 4.1 1.58 6.61 6.61 0 0 0 4.1-1.58 4.82 4.82 0 0 0 1.57-4.09 5.46 5.46 0 0 0-1.57-4.1 6.6 6.6 0 0 0-4.1-1.57 6.65 6.65 0 0 0-4.1 1.57 5.46 5.46 0 0 0-1.57 4.1M92 46A46 46 0 1 1 46 0a45.85 45.85 0 0 1 46 46m-35.92-1.58c-4.72 0-6.93 3.16-6.93 9.46A13 13 0 0 0 51 61.12 6.93 6.93 0 0 0 57 64h1.89c.63 0 1.26 0 1.26-.32V46c0-.31-1-.63-1.89-1a2.66 2.66 0 0 0-2.21-.63"/></svg>