<svg xmlns="http://www.w3.org/2000/svg" class="m-logo-icon" width="32.6" height="32.6"><linearGradient id="a" gradientUnits="userSpaceOnUse" x1="30.912" y1="16.214" x2="29.883" y2="22.051" gradientTransform="matrix(1 0 0 -1 0 22)"><stop offset="0" stop-color="#646469"/><stop offset=".458" stop-color="#A9A9AE"/><stop offset=".82" stop-color="#D9D9DE"/><stop offset="1" stop-color="#EBEBF0"/></linearGradient><linearGradient id="b" gradientUnits="userSpaceOnUse" x1="6.947" y1="13.72" x2="23.52" y2="27.627" gradientTransform="matrix(1 0 0 -1 0 22)"><stop offset="0" stop-color="#E6F0F5"/><stop offset=".062" stop-color="#CBE4EF"/><stop offset=".198" stop-color="#96CDE4"/><stop offset=".335" stop-color="#68B9DA"/><stop offset=".472" stop-color="#42A9D1"/><stop offset=".607" stop-color="#259CCB"/><stop offset=".741" stop-color="#1193C7"/><stop offset=".873" stop-color="#048EC4"/><stop offset="1" stop-color="#008CC3"/></linearGradient><linearGradient id="c" gradientUnits="userSpaceOnUse" x1="-1.56" y1="22.698" x2="5.16" y2="15.74" gradientTransform="matrix(1 0 0 -1 0 22)"><stop offset="0" stop-color="#E6F0F5"/><stop offset=".092" stop-color="#DDECF3"/><stop offset=".241" stop-color="#C5E1EE"/><stop offset=".43" stop-color="#9DD0E5"/><stop offset=".65" stop-color="#66B8D9"/><stop offset=".895" stop-color="#209ACA"/><stop offset="1" stop-color="#008CC3"/></linearGradient><linearGradient id="d" gradientUnits="userSpaceOnUse" x1="29.054" y1="8.892" x2="28.024" y2="14.729" gradientTransform="matrix(1 0 0 -1 0 22)"><stop offset="0" stop-color="#646469"/><stop offset=".458" stop-color="#A9A9AE"/><stop offset=".82" stop-color="#D9D9DE"/><stop offset="1" stop-color="#EBEBF0"/></linearGradient><linearGradient id="e" gradientUnits="userSpaceOnUse" x1="7.554" y1="11.82" x2="26.405" y2="11.82" gradientTransform="matrix(1 0 0 -1 0 22)"><stop offset="0" stop-color="#E6F0F5"/><stop offset=".105" stop-color="#C0DEEA"/><stop offset=".283" stop-color="#86C2DA"/><stop offset=".454" stop-color="#56ABCC"/><stop offset=".616" stop-color="#3199C2"/><stop offset=".765" stop-color="#168DBA"/><stop offset=".898" stop-color="#0685B6"/><stop offset="1" stop-color="#0082B4"/></linearGradient><linearGradient id="f" gradientUnits="userSpaceOnUse" x1="6.548" y1="14.768" x2="12.876" y2="8.867" gradientTransform="matrix(1 0 0 -1 0 22)"><stop offset="0" stop-color="#E6F0F5"/><stop offset=".16" stop-color="#C7E1EC"/><stop offset=".512" stop-color="#77BBD6"/><stop offset="1" stop-color="#0082B4"/></linearGradient><path d="M31.2 5.7 32.6 0h-3.1l-1.4 5.7" fill="url(#a)" transform="translate(0 6.1)"/><path d="M26.8 5.7 28.2 0H0l4.9 5.7" fill="url(#b)" transform="translate(0 6.1)"/><path d="M4.9 5.7 0 0v1.8l4.1 3.9" fill="url(#c)" transform="translate(0 6.1)"/><path d="m29.3 13.1 1.5-5.7h-3.1l-1.5 5.7" fill="url(#d)" transform="translate(0 6.1)"/><path d="m24.9 13 1.5-5.7H7.6l5 5.7" fill="url(#e)" transform="translate(0 6.1)"/><path d="m12.6 13-5-5.7V9l4.3 4.1" fill="url(#f)" transform="translate(0 6.1)"/><g transform="translate(0 6.1)"><linearGradient id="g" gradientUnits="userSpaceOnUse" x1="27.194" y1="1.581" x2="26.166" y2="7.415" gradientTransform="matrix(1 0 0 -1 0 22)"><stop offset="0" stop-color="#646469"/><stop offset=".458" stop-color="#A9A9AE"/><stop offset=".82" stop-color="#D9D9DE"/><stop offset="1" stop-color="#EBEBF0"/></linearGradient><path d="m27.5 20.4 1.5-5.7h-3.1l-1.5 5.7" fill="url(#g)"/><linearGradient id="h" gradientUnits="userSpaceOnUse" x1="15.012" y1="6.207" x2="23.802" y2="4.178" gradientTransform="matrix(1 0 0 -1 0 22)"><stop offset="0" stop-color="#E6F0F5"/><stop offset=".104" stop-color="#C6E0EB"/><stop offset=".348" stop-color="#80BDD6"/><stop offset=".567" stop-color="#49A2C5"/><stop offset=".755" stop-color="#218EB9"/><stop offset=".903" stop-color="#0981B2"/><stop offset=".994" stop-color="#007DAF"/></linearGradient><path d="m23.1 20.4 1.4-5.7h-9.3l5 5.7" fill="url(#h)"/><linearGradient id="i" gradientUnits="userSpaceOnUse" x1="14.538" y1="7.207" x2="21.057" y2="1.128" gradientTransform="matrix(1 0 0 -1 0 22)"><stop offset="0" stop-color="#E6F0F5"/><stop offset=".332" stop-color="#90C5DB"/><stop offset=".657" stop-color="#439EC3"/><stop offset=".886" stop-color="#1386B5"/><stop offset="1" stop-color="#007DAF"/></linearGradient><path d="m20.3 20.4-5-5.7v1.6l4.3 4.1" fill="url(#i)"/></g></svg>