<svg xmlns="http://www.w3.org/2000/svg" width="256.781" height="256.781"><path d="M222.057 128.31c-.51-51.73-41.936-93.667-93.667-93.667-51.73 0-93.666 41.935-93.666 93.667 0 45.226 32.05 82.962 74.415 91.5 14.17 2.856 16.127-33.221 12.247-57.145-.068-.004-4.272-.247-5.678-.304-2.91-.119-5.658 3.21-7.438 3.857-3.03 1.102-3.604-1.914-5.794-1.914-1.916 0-4.485 2.98-11.561 1.64-7.153-1.36-9.469-7.83-9.469-7.83l-2.149-1.13c-7.3-1.819-7.696-9.797-7.743-10.251-.414-3.9 6.402-6.85 4.483-8.065-8.265-5.236-5.6-9.358-5.52-9.57 1.053-2.777 5.062-8.777 3.592-9.714-4.052-2.583 2.601-17.605 8.45-21.78.887-4.757 6.012-12.534 10.97-14.178-.273-5.395 7.268-8.452 7.268-8.452 5.28-1.699 1.58-6.064 11.705-5.37 2.369.16 2.297-2.529 8.172-2.66 1.701-.038 3.568-1.364 8.769-1.364 9.122-.398 8.701 5.77 11.754 4.72 3.859-1.322 16.706 4.984 18.039 17.955 5.77-.447 20.913 16.23 20.47 28.536 9.954 11.182-3.615 21.77-4.155 23.821.388 1.16 2.392 6.24 1.592 10.178-.938 4.61-6.778 9.64-7.018 9.813-4.097 2.945-7.124 6.277-11.994 5.363-5.032-.943-4.078-5.576-5.572-6.703-3.234 2.874-8.1 5.314-14.331 4.81-.733-.122-3.443-.399-3.792-.434-2.985 17.615-2.563 56.97 9.915 56.95 37.621-5.747 78.204-41.974 77.706-92.279zm-194.93 0c0-49.87 38.972-93.424 88.122-96.292C44.789 25.515 0 75.543 0 128.31c0 52.764 45.835 103.776 115.251 96.291-49.152-2.867-88.124-46.423-88.124-96.29zm114.405-96.292c49.15 2.868 88.121 46.421 88.121 96.292 0 49.868-38.972 93.424-88.124 96.291 71.204 6.266 115.252-43.527 115.252-96.29 0-52.768-43.873-102.448-115.249-96.293z" fill="#e85f30" fill-rule="evenodd"/></svg>