<svg xmlns="http://www.w3.org/2000/svg" viewBox="0 0 32 21.4"><linearGradient id="a" x1="-7.2" x2="24.2" y1="35.7" y2="35.7" gradientTransform="matrix(1.02 0 0 -1.02 7.3 47.1)" gradientUnits="userSpaceOnUse"><stop offset=".4" stop-color="#6100a5"/><stop offset=".5" stop-color="#7001a0"/><stop offset=".6" stop-color="#980293"/><stop offset=".9" stop-color="#d9057e"/><stop offset="1" stop-color="#ed0677"/></linearGradient><path fill="url(#a)" d="M16 3a8.4 8.4 0 0 0-6.6-3A9 9 0 0 0 0 9.3v12h1.8c1.1 0 3.5-.6 3.6-4V9.2a3.8 3.8 0 0 1 4-4 3.6 3.6 0 0 1 4 4v12.2H15c1.1 0 3.5-.7 3.6-4V9.1a3.9 3.9 0 0 1 4-4 3.7 3.7 0 0 1 4 4v12.2h1.7c1.2 0 3.6-.7 3.6-4.2V9.3C32 3.8 28.6 0 22.7 0a8.7 8.7 0 0 0-6.6 3Z"/></svg>