<svg xmlns="http://www.w3.org/2000/svg" width="40.48" height="40.48" viewBox="0 0 10.71 10.71"><defs><clipPath clipPathUnits="userSpaceOnUse" id="a"><path d="M36.48 755.52v-29.58h120.66v29.58"/></clipPath></defs><g clip-path="url(#a)" transform="matrix(.35278 0 0 -.35278 -12.87 266.721)" fill="#d59f0f"><path d="M44.1 755.52h15.12l-1.02-4.14h8.64l-5.52-25.14H42l-5.52 25.14h8.58l-.96 4.14h15.12"/></g><path d="M1.693 7.641L5.355.593 9.017 7.64l-.466 2.561h-6.37l-.488-2.56" fill="#133880"/><path d="M4.466 3.26v2.582H4.7c.402 0 .698-.042.889-.127.19-.064.36-.19.466-.381.105-.212.169-.445.169-.74 0-.467-.106-.805-.318-.996-.19-.211-.529-.338-.973-.338zm0 2.878V7.79c0 .318.021.508.064.593a.415.415 0 00.19.19c.106.043.296.085.55.085v.148H2.328v-.148c.254 0 .445-.042.53-.085a.379.379 0 00.211-.19c.042-.085.042-.275.042-.593V3.98c0-.317 0-.508-.042-.592a.379.379 0 00-.212-.19c-.084-.064-.275-.086-.529-.086v-.169h2.667c.699 0 1.207.064 1.524.17.318.084.572.275.783.529.212.275.318.571.318.931 0 .423-.17.783-.466 1.058-.19.19-.465.318-.804.402l1.355 1.99c.19.254.317.423.402.487a.838.838 0 00.402.148v.148h-1.82L4.847 6.138h-.38" fill="#fefefe" fill-rule="evenodd"/></svg>