<svg xmlns="http://www.w3.org/2000/svg" xmlns:xlink="http://www.w3.org/1999/xlink" viewBox="-153 -46 190 190"><g transform="translate(-23.4,-221.89982)"><defs><path id="a" d="m-58 358-17-2h-1a95 95 0 0 0 98-9L8 333c-21 16-44 25-66 25M50 230c7 26-1 57-22 83l14 14a95 95 0 0 0 9-97h-1"/></defs><clipPath id="c"><use xlink:href="#a" overflow="visible"/></clipPath><radialGradient id="b" cx="-23.1" cy="556.2" r="5.5" gradientTransform="matrix(9.0523,8.5665,8.5665,-9.0523,-4562.8735,5535.9595)" gradientUnits="userSpaceOnUse"><stop offset="0" stop-color="#c6d52f"/><stop offset=".3" stop-color="#a2b931"/><stop offset="1" stop-color="#4b7637"/></radialGradient><path fill="url(#b)" d="m-12 162 140 132L-4 434l-140-133z" clip-path="url(#c)"/></g><g transform="translate(-23.4,-221.89982)"><defs><path id="d" d="M-12 212c-19 0-40 9-56 25a87 87 0 0 0-25 49c-1 8-2 23 9 34 8 8 19 9 26 9 15 0 31-6 45-16l-20-20H8c8-12 14-25 16-38 1-8 1-23-10-34-9-9-23-9-26-9"/></defs><clipPath id="f"><use xlink:href="#d" overflow="visible"/></clipPath><radialGradient id="e" cx="-40.7" cy="568.3" r="5.5" gradientTransform="matrix(15.3851,0,0,-15.3851,606.7586,9040.126)" gradientUnits="userSpaceOnUse"><stop offset="0" stop-color="#c6d52f"/><stop offset=".3" stop-color="#a2b931"/><stop offset="1" stop-color="#4b7637"/></radialGradient><path fill="url(#e)" d="M-95 212H25v118H-95z" clip-path="url(#f)"/></g><g transform="translate(-23.4,-221.89982)"><defs><path id="g" d="M-130 271a94 94 0 0 0 9 39h1c-7-29 5-65 32-93 22-22 50-34 76-34l16 2h1v-1c-12-5-26-8-40-8-52 0-95 42-95 95"/></defs><clipPath id="i"><use xlink:href="#g" overflow="visible"/></clipPath><radialGradient id="h" cx="-47.7" cy="567.4" r="5.5" gradientTransform="matrix(12.3049,0,0,-12.3049,525.1059,7225.3477)" gradientUnits="userSpaceOnUse"><stop offset="0" stop-color="#c6d52f"/><stop offset=".3" stop-color="#a2b931"/><stop offset="1" stop-color="#4b7637"/></radialGradient><path fill="url(#h)" d="M-130 176H5v135h-135z" clip-path="url(#i)"/></g></svg>