<svg xmlns="http://www.w3.org/2000/svg" width="629.375" height="629.375" viewBox="0 0 166.522 166.522"><path d="M58.389 36.457c7.09 1.487 14.956 3.419 25.564 6.398C94.233 34.871 126.213 13.412 159.18 0 118.83 22.362 99.98 40.645 81.457 56.438c-7.677-6.84-15.363-13.543-23.068-19.981z" fill="#cb99cc"/><path d="M35.827 105.671c5.924-11.15 10.935-21.39 19.67-35.339C44.21 53.1 39.451 42.592 34.453 31.84 44.82 41.582 57.79 54.76 70.275 67.297 57.552 80.075 46.778 92.874 35.827 105.67zM91.647 65.604c14.176-13.485 26.945-23.6 39.547-33.313-9.909 13.37-15.672 21.918-22.094 31.23 18.494 23.05 31.71 42.31 46.736 62.87-21.587-21.527-42.89-41.175-64.189-60.787zM7.342 166.522C23.277 140.885 45.944 111.601 79.5 76.84l35.21 34.602-36.622-17.673c-41.032 35.48-51.995 51.611-70.746 72.754z" fill="#003466"/></svg>