<svg xmlns="http://www.w3.org/2000/svg" width="54.201" height="54.201"><g fill="#1c8d76"><path d="M49.574 6.111l-20.69-5.9a7.81 7.81 0 00-3.61 0l-12.17 3.48a2.47 2.47 0 00-1.12-.63 1.84 1.84 0 00-2 1.23 3.32 3.32 0 00-.11.33l-5.24 1.49c-1 .28-1 .75 0 1l4.88 1.39v.81h.93v-.54l5.44 1.57a23.51 23.51 0 00-1.31 5.66c0 .21.34.47.55.38h.07a12.82 12.82 0 00-.45 3.28 7.74 7.74 0 00.76 2.73 6.79 6.79 0 01.63 1.93 1.1 1.1 0 001 .74c.07.28.15.58.25.93a33 33 0 004.19 7.24l.28.29v1.73c0 .73-.42 1-1 1.41l-11.86 3.24s9.56 13.28 17.72 14.3h.4c8.16-1 17.72-14.3 17.72-14.3l-11.66-3.18.06-.1c-.64-.32-1.07-.51-1.07-1.29v-1.5l.12-.12c1-1.09 4.25-6.26 4.36-8.66a1.08 1.08 0 00.93-.73 6.74 6.74 0 01.63-1.93 7.78 7.78 0 00.76-2.73 13 13 0 00-.49-3.42l.36.16c.17.08.43-.19.38-.41a46.71 46.71 0 00-1.33-5.53l11.64-3.32c1.05-.24 1.05-.75.05-1.03zm-38-2.15a.72.72 0 01.4.06l-.89.25a.86.86 0 01.48-.32z"/><path d="M9.264 9.531v1.57a.19.19 0 00.19.19c-.33 2.59-.2 5.09-.42 7.69-.24 2.88 0 6.16-.94 8.87-.08.24.32.24.38.05.71-2.15.56-4.25.74-6.52.2-2.49.2-5 .37-7.44-.08 4.8-.57 9.6-.54 14.37l-.16 1.3h.17v.08c0 .24.41.17.4 0v-1.41c.19-1.4.4-2.79.55-4.2 0 1.7 0 3.39-.1 5.1 0 .14.14.17.26.13a21.47 21.47 0 01-.51 2.47c0 .13.36.07.39-.06a21.83 21.83 0 00.51-2.44v.45c0 .15.39.11.39 0 0-3.21.21-6.41.25-9.62a56.63 56.63 0 00-.75-7.43c0-.45.09-.9.15-1.35a.19.19 0 00.19-.19v-1.61a.18.18 0 00-.19-.18h-1a.188.188 0 00-.33.18zm.24 14c.11-2.39.27-4.79.37-7.19 0 .85 0 1.69-.05 2.53-.05 1.59-.17 3.14-.31 4.69zm.79 4.14q.07-2.55.06-5.08a38.69 38.69 0 01-.05 5.11zm.49-4.77c-.09-2.25-.31-4.52-.46-6.78v-.39c.12 1 .25 2 .35 3a31.76 31.76 0 01.11 4.17z"/></g></svg>