<svg xmlns="http://www.w3.org/2000/svg" width="496" height="496" viewBox="0 0 131.233 131.233"><g transform="matrix(.26458 0 0 .26458 176.776 -102.977)"><rect rx="39.065" ry="39.065" y="389.203" x="-668.129" height="496" width="496" fill="#ed3023" fill-rule="evenodd"/><path d="M-480.643 498.855c28.453-1.156 53.885 25.42 52.538 53.698-.087 3.053.247 9.818 4.97 7.855 7.417-5.168 14.572-11.153 23.43-13.853 25.014-9.717 55.026-1.285 71.906 19.79 6.942 8.839 11.978 19.56 13.674 30.509-.664 5.701 5.934 6.903 10.22 6.355 3.527.813 11.33-2.078 10.25 3.824.83 38.22-.006 76.459.034 114.686-40.774.332-81.547.663-122.32.996-6.278 22.743-22.734 43.312-45.672 50.203-16.077 4.615-33.113 4.068-47.977-3.81-23.087-11.191-38.98-36.356-36.576-62.178-.681-13.466 6.632-25.478 12.037-37.268.373-41.523-.811-83.332.775-124.682.652-18.146 14.335-33.472 29.833-41.439 7.082-3.635 14.961-4.97 22.878-4.686z" fill="#fff"/><path d="M-482.305 519.434c-14.706.29-28.379 12.219-30.603 26.77 5.628.461 12.084-.958 17.306.98.607 2.885 1.594 8.768-3.175 7.841-4.73 1.003-12.982-1.94-15.024 4.254-1.073 4.34-.62 11.137 5.194 11.414 8.252 1.213 16.889-.271 25 1.012.628 3.363 1.406 8.863-3.841 7.114-8.14.801-17.094-.938-24.8 2.134-3.22 3.743-1.02 9.313-1.26 13.682 5.793.688 12.63-.522 17.916 1.658.592 2.861 1.548 8.662-3.185 7.732-4.73 1.003-12.982-1.94-15.024 4.254-1.073 4.34-.62 11.137 5.194 11.414 8.252 1.213 16.889-.271 25 1.012.628 3.363 1.406 8.863-3.841 7.114-8.126.773-17.036-.884-24.747 2.09-2.618 3.572-3.25 10.388.67 13.288 4.937 2.335 11.48-.432 15.974 2.153.556 2.875 1.478 8.603-3.226 7.675-4.596 1.11-11.817-1.796-14.664 3.202-1.972 8.417 1.403 17.847-2.704 25.654-13.91 17.224-12.486 44.345 3.332 59.875 15.402 16.584 43.875 17.55 60.606 2.488 10.461-8.771 16.897-22.329 15.428-36.101.298-10.814-4.643-20.87-11.35-29.073-.372-43.353.842-86.765-1.078-130.082-2.291-16.15-16.276-30.09-33.098-29.554zM-378.895 559.324c-22.504.141-43.784 18.481-45.705 41.125 1.984 3.845 7.989 1.56 11.658 2.411 27.455.586 54.919.253 82.378.343-1.069-24.603-23.789-45.03-48.33-43.879zM-403.33 620.422c-7.481.51-15.374-.73-22.63 1.27-3.337 4.883-1.433 11.637-2.136 17.224.342 10.8-.908 22.006.628 32.537 5.602 9.878 9.355 20.434 12.284 31.26 2.039 4.687 8.636 2.332 12.607 3.18 30.648.36 61.3-.143 91.948-.2v-84.98c-30.9-.101-61.8-.405-92.701-.291z" fill="#ed3023"/><path d="M-377.438 640.383c8.177-.46 12.136 10.301 7.108 16.17-5.733 5.237-.081 12.527.438 18.889.023 2.333 3.119 7.434-1.404 6.566-5.11.18-10.441.5-15.425-.295.994-7.273 3.224-14.212 4.9-21.344-6.475-4.338-8.173-15.431-.09-19.082 1.397-.64 2.943-.91 4.473-.904zM-481.438 700.23c10.283-1.179 14.05 14.555 5.186 18.791-5.907 3.529-14.604-.365-14.855-7.355-1.186-5.736 3.623-12.09 9.67-11.436z" fill="#fff"/></g></svg>