<svg xmlns="http://www.w3.org/2000/svg" viewBox="0 0 18 18"><path fill="#fff" d="M9 .16a8.84 8.84 0 1 1 0 17.68A8.84 8.84 0 0 1 9 .16"/><path fill="#091a2c" d="M9 18A9 9 0 1 1 9 0a9 9 0 0 1 0 18M9 .49a8.5 8.5 0 0 0-8.51 8.5A8.5 8.5 0 0 0 9 17.49a8.5 8.5 0 0 0 8.51-8.5A8.5 8.5 0 0 0 9 .48Zm3.84 10.9c-.56-.57-.94-.88-.94-.88-.32-.26-.38-.12-.32-.7 0-.12.07-.24.07-.31.25-2.08-.76-2.96-.76-2.96-.88-1.13-1.76-.38-1.76-1.13 0-.82-.13-3.96-.13-3.96s-.12 3.08-.12 3.96c0 .76-.9 0-1.77 1.13 0 0-1.06.94-.69 3.28.06.63 0 .5-.31.69 0 0-2.6 2.02-2.97 4.03 0 0 2.6-1.2 3.46-3.66.13-.57.2-.43.2-.43s.12.2.25.33l.18.17c.2.18.83.57 1.77.57a2.81 2.81 0 0 0 1.88-.67l.32-.4c.07 0 .07-.14.19.43.88 2.53 3.47 3.66 3.47 3.66-.25-1.14-1.2-2.32-2.02-3.15m-1.76-3.53c.19 0 .44.12.38.37 0 0-.13.45-.58.45-.37.07.01-.81.2-.81m-3.97.8c-.44 0-.57-.43-.57-.43-.06-.25.2-.37.38-.37.19 0 .56.88.2.8m4.4.96c0 .06 0 .12-.06.12-1.01.56-.95.7-1.01 1.01-.06.2.06.25.12.25a2.95 2.95 0 0 1-1.58.44A2.96 2.96 0 0 1 7.41 11c.13 0 .2-.06.13-.25-.06-.37 0-.5-1-1.01-.19-.12.12-.94.2-.94 0 0-.14.43.8-.18.39.18.58.06.76 0h1.4c.18.06.37.18.76 0 .94.62.8.18.8.18l.14.25a1.01 1.01 0 0 1 .12.44v.13"/></svg>