<svg xmlns="http://www.w3.org/2000/svg" width="67.32" height="67.32" viewBox="0 0 17.81 17.81"><path style="fill:#fff;fill-opacity:1;fill-rule:nonzero;stroke:none" d="M0 0a24.77 24.77 0 1 0 0-49.55A24.77 24.77 0 0 0 0 0" transform="matrix(.35278 0 0 -.35278 8.9 .17)"/><path style="fill:#091a2c;fill-opacity:1;fill-rule:nonzero;stroke:none" d="M0 0a25.24 25.24 0 1 0 0 50.48A25.24 25.24 0 0 0 0 0m0 49.1a23.83 23.83 0 0 1-23.86-23.86A23.83 23.83 0 0 1 0 1.4a23.83 23.83 0 0 1 23.86 23.85A23.83 23.83 0 0 1 0 49.1" transform="matrix(.35278 0 0 -.35278 8.9 17.81)"/><path style="fill:#091a2c;fill-opacity:1;fill-rule:nonzero;stroke:none" d="M0 0c-1.6 1.6-2.65 2.46-2.65 2.46-.88.71-1.06.36-.88 1.94 0 .35.18.71.18.89.7 5.83-2.12 8.3-2.12 8.3-2.47 3.17-4.94 1.06-4.94 3.17 0 2.3-.36 11.11-.36 11.11s-.35-8.65-.35-11.11c0-2.12-2.48 0-4.94-3.18 0 0-3-2.64-1.94-9.18.18-1.77 0-1.4-.89-1.94 0 0-7.24-5.65-8.3-11.3 0 0 7.25 3.36 9.71 10.25.36 1.6.53 1.23.53 1.23s.35-.58.7-.94c.17-.18.3-.3.53-.47.53-.52 2.3-1.59 4.95-1.59A7.87 7.87 0 0 1-5.51 1.5c.46.54.91 1.14.91 1.14.18 0 .18.36.53-1.23 2.46-7.06 9.7-10.25 9.7-10.25C4.95-5.65 2.3-2.3 0 0m-4.94 9.89c.52 0 1.23-.35 1.05-1.06 0 0-.36-1.23-1.6-1.23-1.05-.2.02 2.29.55 2.29m-11.12-2.3c-1.24 0-1.6 1.23-1.6 1.23-.18.7.53 1.05 1.06 1.05.52 0 1.59-2.46.54-2.28m12.35-2.65c0-.18 0-.36-.18-.36C-6.72 3-6.54 2.65-6.72 1.76c-.18-.53.18-.7.35-.7a8.29 8.29 0 0 0-4.42-1.24 8.3 8.3 0 0 0-4.42 1.23c.36 0 .53.18.36.7-.18 1.06 0 1.42-2.82 2.83-.53.36.36 2.65.53 2.65 0 0-.36-1.23 2.3.52 1.06-.52 1.59-.18 2.11 0h3.88c.53-.18 1.05-.52 2.12 0 2.64-1.77 2.3-.52 2.3-.52l.36-.7c.18-.35.34-.9.34-1.24l.02-.35" transform="matrix(.35278 0 0 -.35278 12.7 11.27)"/></svg>