<svg xmlns="http://www.w3.org/2000/svg" width="28.493" height="28.493"><g fill="#3e88ff" fill-rule="evenodd"><path d="M17.122 23.607c-5.08-.03-9.192-4.25-9.166-9.412.027-5.16 4.184-9.335 9.265-9.306 5.082.03 9.194 4.25 9.167 9.41-.028 5.16-4.184 9.335-9.265 9.307m.109-20.86c-6.246-.034-11.35 5.096-11.385 11.437-.034 6.34 5.018 11.53 11.262 11.564 6.244.036 11.35-5.094 11.384-11.436.035-6.342-5.017-11.53-11.263-11.564"/><path d="M.01 13.129l6.44.036-.007 1.617L0 14.745zM1.913 16.803l5.434.025-.01 1.618-5.433-.025zM3.243 9.483l4.132.018-.008 1.617-4.13-.017zM17.139 9.473c-1.213-.007-2.2.984-2.206 2.213a2.226 2.226 0 001.087 1.925l-.03 5.503 2.195.012.028-5.503a2.225 2.225 0 001.107-1.913c.006-1.23-.97-2.23-2.18-2.238"/></g></svg>