<svg xmlns="http://www.w3.org/2000/svg" width="1841.783" height="1841.984"><path fill="#01528a" fill-rule="evenodd" d="M61.762 64.97h1705.22v1718.238H61.762z"/><path d="M107.186 1838.189c-45.822-9.878-85.094-45.71-100.899-92.065L0 1727.683V922.056C0 166.262.246 115.54 3.977 102.057c13.508-48.811 50.976-85.831 99.66-98.469C115.907.403 203.232.022 920.88.022c885.65 0 813.96-1.208 845.966 14.252 21.955 10.604 49.75 39.002 60.502 61.816 15.594 33.089 14.414-36.094 14.414 844.813 0 758.867-.22 802.963-4.06 816.866-13.951 50.494-55.137 90.106-104.577 100.58-23.361 4.95-1602.956 4.794-1625.94-.16zm160.04-89.925c3.193-3.194 3.617-16.76 3.586-114.678-.018-61.08-.894-112.409-1.943-114.063-1.543-2.434-3.755-2.268-11.586.865-30.639 12.26-64.808-14.156-64.808-50.1 0-24.425 6.62-31.359 48.916-51.233 15.106-7.097 27.891-14.617 29.286-17.223 1.362-2.544 2.476-9.921 2.476-16.393 0-18.362 4.373-53.73 10.654-86.155C316.735 1129.28 418.25 978.24 564.248 882.03c149.106-98.258 334.438-130.217 509.922-87.93 252.557 60.858 443.546 265.537 487.352 522.282 6.231 36.522 4.848 38.321-22.878 29.754-24.247-7.493-112.505-24.515-165.966-32.01-115.841-16.241-214.242-22-346.642-20.283-101.93 1.32-150.88 4.387-230.782 14.458-85.547 10.783-81.338 11.183 58.045 5.523 184.432-7.49 430.196 15.821 596.718 56.6 46.073 11.283 96.318 26.877 130.833 40.607 55.025 21.889 68.516 34.023 68.387 61.513-.138 29.613-29.434 54.863-58.162 50.13-5.383-.887-11.862-1.8-14.397-2.03-4.546-.414-4.619 1.158-5.209 112.267-.462 87.092.052 113.47 2.265 116.135 4.172 5.028 98.569 2.719 117.046-2.863 26.35-7.96 45.443-26.386 54.637-52.733 3.954-11.33 4.142-46.37 4.142-770.243 0-724.195-.187-758.908-4.147-770.257-8.74-25.049-30.835-47.47-56.937-57.78-9.866-3.898-47.403-4.098-767.594-4.098-722.763 0-757.76.188-769.09 4.142-25.711 8.972-44.011 26.484-54.32 51.98l-5.268 13.03-.593 755.945c-.531 676.461-.218 757.41 2.979 769.888 9.737 38.008 34.595 58.813 75.987 63.599 7.607.88 31.65 1.74 53.429 1.914 33.214.265 40.182-.269 43.22-3.307zm481.669-1024.4c-8.978-3.627-14.726-13.604-14.726-25.562 0-14.006 2.533-20.606 11.383-29.66l7.058-7.22V495.626l-8.05-8.534c-14.068-14.916-14.306-38.97-.527-53.352 7.115-7.425 8.273-10.353 9.723-24.565 6.802-66.68 37.985-107.435 102.778-134.325 21.029-8.727 21.38-9.005 35.059-27.794l13.818-18.978-4.655-5.113c-7.308-8.027-9.84-14.417-9.84-24.825 0-8.128 1.405-11.05 8.948-18.593 7.84-7.839 10.284-8.949 19.708-8.949 15.167 0 23.865 5.21 29.33 17.566 5.528 12.495 4.28 20.355-5.108 32.167l-6.74 8.48 8.523 11.81c4.686 6.494 10.9 15.016 13.809 18.938 3.773 5.088 10.735 9.256 24.307 14.553 39.496 15.415 72.297 42.51 87.196 72.024 8.367 16.575 15.002 41.181 17.247 63.962 1.422 14.435 2.413 17.045 7.973 21.004 6.99 4.977 13.818 19.593 13.739 29.407-.084 10.41-8.146 25.238-15.904 29.25l-7.097 3.67v170.913l6.715 6.272c11.703 10.932 14.27 32.136 5.509 45.507-6.031 9.204-13.52 9.902-43.451 4.048-92.742-18.139-185.64-18.045-267.265.269-27.118 6.085-31.862 6.496-39.46 3.427zm69.782-75.362c16.814-3.304 19.942-4.652 21.736-9.37 3.415-8.981 2.683-160.273-.798-165.033-2.713-3.71-4.114-3.726-22.474-.243-10.77 2.042-20.878 4.789-22.463 6.103-2.208 1.832-2.881 21.895-2.881 85.86 0 45.907.691 84.16 1.536 85.005 2.13 2.13 3.173 2.034 25.344-2.322zm226.13-83.158l-.604-87.017-11.525-2.927c-6.339-1.61-16.712-3.167-23.05-3.458l-11.526-.53-.605 85.144c-.333 46.83.27 86.02 1.341 87.09 2.193 2.193 30.455 8.167 40.207 8.498l6.366.217-.604-87.017zm-101.451 72.614c4.076-3.25 4.186-167.777.115-171.848-1.722-1.722-10.245-2.766-22.59-2.766s-20.867 1.044-22.59 2.766c-3.664 3.665-3.995 167.964-.345 171.614 3.088 3.088 41.581 3.287 45.41.234zm-397.24 1112.53c3.272-1.256 3.647-16.39 3.647-147.362 0-169.017 2.189-154.714-23.317-152.343-45.427 4.222-143.121 23.978-149.347 30.202-3.262 3.26-3.746 18.375-4.308 134.396-.587 121.272-.347 130.931 3.322 133.614 2.994 2.189 23.678 2.891 85.156 2.891 44.66 0 82.842-.63 84.848-1.399zm306.577 0c3.274-1.257 3.646-17.03 3.646-154.619V1442.65l-7.099-7.099-7.099-7.098-56.867 1.653c-31.277.91-65.118 2.511-75.203 3.559-16.486 1.713-18.986 2.632-24.78 9.116l-6.444 7.212v149.602c0 117.525.618 149.851 2.882 150.765 4.154 1.676 166.612 1.797 170.964.127zm307.685-1.779c1.933-2.33 2.47-42.89 2.01-152.084l-.625-148.907-6.14-6.138c-7.614-7.613-20.51-9.088-100.285-11.469l-55.713-1.662-7.1 7.1-7.101 7.101v153.274c0 120.462.617 153.522 2.881 154.436 1.585.64 40.356 1.244 86.159 1.344 68.112.15 83.757-.396 85.914-2.995zm303.162 1.778c3.267-1.253 3.646-15.261 3.646-134.565 0-107.944-.58-133.648-3.063-135.709-6.81-5.652-111.623-26.245-150.162-29.502-13.883-1.174-16.804-.77-19.706 2.726-2.911 3.506-3.501 25.13-4.052 148.377-.599 134.24-.368 144.474 3.322 147.172 3.009 2.2 23.567 2.9 85.168 2.9 44.66 0 82.842-.63 84.847-1.399zM417.22 1349.555c10.143-1.953 38.573-6.09 63.18-9.194 27.268-3.44 46.81-7.001 50.044-9.12 7.182-4.706 9.386-15.133 11.078-52.415 5.505-121.246 31.425-198.464 91.909-273.807 33.643-41.91 89.402-92.131 150.758-135.787 12.93-9.2 24.86-18.367 26.508-20.369 2.654-3.221 2.204-3.442-3.917-1.921-17.452 4.337-53.878 19.262-87.79 35.973-170.557 84.042-299.457 242.198-330.612 405.65-8.175 42.89-7.34 54.719 4.307 61.046 3.352 1.821 6.095 3.352 6.095 3.403 0 .05 8.298-1.506 18.44-3.459z" fill="#fefefe"/></svg>