<svg xmlns="http://www.w3.org/2000/svg" viewBox="0 0 90 90"><circle cx="45" cy="45" r="45" fill="#FFF"/><path fill="#25252B" d="M53.97 39.35L42.2 36.62c-3.15-.69-5.02-2.15-5.02-4.8 0-3.3 3.05-5.3 7.57-5.3 5.2 0 7.95 2.53 9.23 5.84H69.4C67.73 22.01 59.37 14 44.64 14c-13.36 0-23.18 7.74-23.18 19.46 0 10.18 6.67 14.78 15.52 16.74l11.59 2.45c3.83.88 5.7 2.15 5.7 4.97 0 3.72-3.33 5.74-8.15 5.74-4.91.02-8.46-2.02-9.73-6.16H20C22.16 69.21 31.99 76 46.42 76 59.6 76 70 68.96 70 56.65c-.02-9.29-5.71-14.85-16.03-17.3z"/></svg>