<svg xmlns="http://www.w3.org/2000/svg" viewBox="0 0 90 90"><g fill="#00CCED"><path d="M47.73 18.4l-9.33 24h6.35l1.72-4.64h8.89l1.75 4.64h6.48l-9.33-24h-6.53zm.7 14.23l2.51-6.77 2.51 6.77h-5.02zM70.6 18.4h-6.42v24h6.42zM79.88 18.4h-6.42v24h15.58l.96-5.3H79.88zM32.75 28.15l-4.77-1.1c-1.29-.28-2.05-.86-2.05-1.92 0-1.32 1.24-2.11 3.07-2.11 2.11 0 3.23 1 3.75 2.33h6.26C38.34 21.2 34.94 18 28.97 18c-5.41 0-9.4 3.1-9.4 7.78 0 4.07 2.72 5.9 6.3 6.69l4.7.97c1.56.35 2.32.86 2.32 1.99 0 1.49-1.35 2.3-3.31 2.3-2 0-3.43-.81-3.95-2.47h-6.66c.87 4.8 4.86 7.52 10.73 7.52 5.35 0 9.56-2.82 9.56-7.73-.01-3.7-2.32-5.93-6.5-6.9zM36.3 56.7h-9.46v-9.1H.96L0 53.06h7.54L4.18 71.6h6.42l3.35-18.54h6.48V71.6h6.41v-9.43h9.45v9.43h6.42v-24h-6.42zM65.7 55.78c0-5.25-3.63-8.18-8.89-8.18H45.74v24h6.41v-7.94h2.23l5.1 7.94h7.1l-5.74-8.59c2.99-1.09 4.86-3.59 4.86-7.23zm-9.56 2.91h-3.99v-5.8h3.99c2.27 0 3.3 1.15 3.3 2.9 0 1.76-1.03 2.9-3.3 2.9zM83.37 47.6v13.66c0 3.4-1.66 5.16-4.29 5.16-2.66 0-4.32-1.75-4.32-5.16V47.6h-6.4v14.2c0 6.6 4.2 10.2 10.64 10.2 6.46 0 10.61-3.6 10.61-10.16V47.6h-6.24z"/></g></svg>