<svg xmlns="http://www.w3.org/2000/svg" width="16" height="16"><path d="M9.526 11.184c.154.363.103.829.026 1.114-.13.492-.464 1.01-1.443 1.01-.928 0-1.495-.544-1.495-1.347v-1.45H2.62v1.14C2.62 14.99 5.223 16 8.031 16c2.68 0 4.896-.932 5.257-3.417.18-1.295.052-2.123-.026-2.46-.618-3.133-6.26-4.065-6.7-5.8a2.023 2.023 0 01-.025-.776c.103-.466.438-1.01 1.365-1.01.877 0 1.392.544 1.392 1.346v.933h3.71V3.754C13.005.492 10.094 0 7.98 0 5.326 0 3.187.88 2.775 3.314c-.103.673-.13 1.269.025 2.02.67 3.028 5.953 3.909 6.726 5.85z"/></svg>