<svg xmlns="http://www.w3.org/2000/svg" width="361.541" height="361.541"><path d="M190.49 95.34S28.024 108.118 15.234 111.193l126.377 42.297 48.92-5.595zm7.317.35l.142 51.547 29.272-3.199 11.367 16.848 37.928-3.838 8.505-19.377 58.754-7.75zM0 114.675l3.248 85.369 135.23 63.613-1.835-103.373zm361.541 20.715l-71.334 9.322-8.951 19.566-46.233 5.225-11.814-17.375-78.516 8.644L145.74 266.2l214.192-34.98zm-56.43 58.006c1.529-.014 3.163.052 4.285 1.09 2.433 2.249 1.1 6.34-1.15 8.773-13.602 15.773-28.703 25.74-49.361 28.672-19.61 2.783-39.321-1.929-55.82-14.616a6 6 0 116.824-9.87c15.884 10.982 32.37 14.874 47.761 12.697 15.391-2.178 30.396-9.356 43.602-23.637 1.123-1.214 2.205-3.095 3.86-3.11z" fill="#1b75bb"/></svg>