<svg xmlns="http://www.w3.org/2000/svg" xmlns:xlink="http://www.w3.org/1999/xlink" width="48" height="24"><defs><path id="a" d="M.011.021h47.1V24H.01z"/></defs><g fill="none" fill-rule="evenodd"><mask id="b" fill="#fff"><use xlink:href="#a"/></mask><path fill="#004F6E" d="M5.458 9.536C3.583 6.669 1.866 4.873 1.866 2.888c0-1.449.731-2.34 1.876-2.34 1.684 0 3.082 2.554 3.463 7.081h.532V.335h-.532l-.699 1.387C5.744.682 4.726.02 3.742.02 1.803.021.246 1.927.246 5.298c0 3.56 1.557 5.962 3.4 8.735 2.002 2.992 3.178 5.218 3.178 7.014 0 1.417-.858 2.215-2.002 2.215-2.097 0-3.972-2.805-4.163-8.213H0v8.803h.659l.858-1.676C2.597 23.436 3.614 24 4.949 24c2.288 0 3.909-2.27 3.909-5.956 0-2.962-1.367-5.452-3.4-8.508M43.074 23.37c-1.844 0-3.517-2.284-4.022-6.309h4.721c.84 1.51 1.304 2.853 1.304 3.98 0 1.418-.858 2.33-2.003 2.33zm-16.926-7.063V4.306l5.24 12h-5.24zm-.888 3.342c0 2.236-.01 3.323-1.6 3.323h-1.006l-1.036-5.91h3.642v2.587zm-11.237-3.342 1.989-11.672 1.925 11.672h-3.914zM43.71 9.536c-1.874-2.867-3.59-4.663-3.59-6.648 0-1.449.73-2.34 1.874-2.34 1.685 0 3.083 2.554 3.464 7.081h.478V.335h-.478l-.699 1.387C43.997.682 42.98.02 41.994.02c-1.938 0-3.495 1.906-3.495 5.277 0 3.56 1.557 6.032 3.4 8.805.513.767.972 1.575 1.37 2.204h-4.306c-.023-.503-.04-.629-.051-1.258h-.713v1.258h-3.045V3.676c0-1.985.127-2.71 1.776-2.678V.335h-4.947v.663c1.522 0 2.157.914 2.157 2.993V14.42L28.49.335h-4.626v.63h1.395v15.342h-3.797L18.68.335h-2.797L12.01 19.727c-.382 1.953-.321 2.946-2.224 3.23v.644h5.2v-.644c-1.394-.032-1.774-.41-1.774-1.418 0-.441.034-.821.065-1.104l.575-3.374h4.258l.954 5.911H17.27v.629h11.543v-.644c-1.776-.126-2.664-1.135-2.664-3.497v-2.4h5.607l2.742 6.54h.657v-6.54H38.2v6.791h.713l.858-1.676C40.85 23.436 41.867 24 43.202 24c2.288 0 3.909-2.27 3.909-5.956 0-2.962-1.367-5.452-3.4-8.508z" mask="url(#b)"/></g></svg>