<svg xmlns="http://www.w3.org/2000/svg" width="145mm" height="145mm" viewBox="0 0 145 145"><path d="M103.77 66.709a32.092 32.092 0 00-4.15-14.381L76.936 13.045a31.31 31.31 0 01-3.57-9.459l-.966 1.64a31.571 31.571 0 000 31.466l18.146 31.465a31.571 31.571 0 010 31.465l-.965 1.64a31.31 31.31 0 00-3.571-9.458L69.41 63.04 58.793 44.703a31.31 31.31 0 01-3.572-9.46l-.964 1.642a31.629 31.629 0 00-.096 31.368l18.242 31.562a31.571 31.571 0 010 31.465l-.965 1.64a31.31 31.31 0 00-3.57-9.458l-22.683-39.67a30.77 30.77 0 01-4.15-17.083C16.713 73.079.015 86.495.015 102.131c0 21.717 32.43 39.283 72.485 39.283s72.485-17.566 72.485-39.283c-.095-15.636-16.89-29.052-41.213-35.422z" fill="#ec0000"/></svg>