<svg xmlns="http://www.w3.org/2000/svg" xmlns:xlink="http://www.w3.org/1999/xlink" class="Logo__StyledSELogo-sc-7m2nbc-2 exeWTA" width="193.532" height="193.532"><defs><path id="a" d="M0 .687h193.532v111.136H0z"/><mask id="b" fill="#fff"><use xlink:href="#a" width="100%" height="100%"/></mask></defs><path d="M153.527 51.89c.012.123.182 1.97.243 3.284.049.912 0 2.334 0 2.419.025 0 .23.183.243.195 11.514 9.435 23.733 22.31 25.837 31.769.583 2.619.45 4.982-.584 7.002-1.228 2.366-3.538 4.059-6.723 5.148-16.5 5.636-55.844-5.178-87.954-21.042-22.943-11.34-43.078-24.847-56.702-38.051-12.663-12.28-16.092-21.861-12.821-27.636 1.244-2.19 3.386-3.806 6.254-4.912 10.473-4.085 30.548-1.228 50.308 4.669-9.35 6.979-15.867 16.402-18.883 25.824 0 .013-.011.049-.011.049a.412.412 0 01-.008.049c-.925 8.632 11.57 19.915 24.19 26.213-.012-.05.682.256.682.207-.012-.05-.122-.876-.134-.912-2.955-21.447 13.289-53.545 30.359-60.586 1.095-.45 2.043-.717 2.177-.765-.11-.012-2.092-.207-2.201-.22-.596-.048-1.191-.097-1.836-.121a60.19 60.19 0 00-2.201-.073c-10.505-.146-19.733 2.65-27.417 7.186C43.367.266 19.215-1.06 9.124 2.309c-4.01 1.35-6.723 3.38-8.062 6.067-1.407 2.82-1.417 6.37-.023 10.529 4.594 13.739 24.664 32.512 50.088 49.18 3.686 19.408 21.085 39.315 45.985 41.964.048.003 1.082.114 1.143.119-.024-.02.425.01.4-.005-.072-.066-1.312-1.003-1.385-1.06-7.708-5.93-14.627-15.711-16.997-24.196.498.254.997.5 1.495.755.389.196.766.385 1.155.573 40.196 19.869 82.373 29.998 101.037 23.754 4.182-1.397 7.258-3.368 8.669-6.192 1.349-2.702 1.118-6.281-.232-10.302-3.514-10.487-18.578-26.48-37.703-40.741-.061-.05-1.094-.826-1.167-.863" fill="#eb680b" mask="url(#b)" transform="translate(0 40.511)" fill-rule="evenodd"/></svg>