<svg xmlns="http://www.w3.org/2000/svg" width="34.488" height="34.488" viewBox="0 0 9.125 9.125"><g transform="translate(-64.23 -65.741)"><circle cx="68.792" cy="70.304" fill="#fff" paint-order="markers fill stroke" r="4.562"/><path d="M65.343 71.625c-.266-.668-.243-1.322-.243-1.322a3.703 3.703 0 014.223-3.656l-.417.418a3.244 3.244 0 00-3.355 3.238s-.008.443.121.882h2.836l-1.184 2.234 2.866-2.895h-3.897l4.378-4.378a4.567 4.567 0 00-6.441 4.157c0 1.645.874 3.09 2.183 3.892l1.362-2.57z" fill="#e32726"/><path d="M71.17 66.412l-1.362 2.569h2.431s.247.572.247 1.322a3.699 3.699 0 01-4.234 3.655l.412-.416.128.002a3.245 3.245 0 003.24-3.24s0-.472-.12-.882h-2.837l1.185-2.234-2.91 2.895h3.908l-4.345 4.378c.573.26 1.21.405 1.879.405a4.568 4.568 0 004.562-4.563 4.564 4.564 0 00-2.184-3.891" fill="#e32726"/></g></svg>