<?xml version="1.0" encoding="UTF-8" standalone="no"?>
<!-- Created with Inkscape (http://www.inkscape.org/) -->

<svg
   xmlns:dc="http://purl.org/dc/elements/1.1/"
   xmlns:cc="http://creativecommons.org/ns#"
   xmlns:rdf="http://www.w3.org/1999/02/22-rdf-syntax-ns#"
   xmlns:svg="http://www.w3.org/2000/svg"
   xmlns="http://www.w3.org/2000/svg"
   version="1.1"
   width="1024"
   height="768"
   id="svg15197">
  <defs
     id="defs15199">
    <clipPath
       id="clipPath15140">
      <path
         d="m 283.464,70.867 113.387,0 0,85.039 -113.387,0 0,-85.039 z"
         id="path15142" />
    </clipPath>
  </defs>
  <metadata
     id="metadata15202">
    <rdf:RDF>
      <cc:Work
         rdf:about="">
        <dc:format>image/svg+xml</dc:format>
        <dc:type
           rdf:resource="http://purl.org/dc/dcmitype/StillImage" />
        <dc:title></dc:title>
      </cc:Work>
    </rdf:RDF>
  </metadata>
  <g
     id="layer1">
    <g
       transform="matrix(8.8742723,0,0,-8.8742723,-2506.6459,1392.2227)"
       id="g15162">
      <path
         d="m 286.37463,72.430701 107.52581,0 0,82.216689 -107.52581,0 0,-82.216689 z"
         id="path15100"
         style="fill:#002b54;fill-opacity:1;fill-rule:nonzero;stroke:none" />
      <g
         id="g15152">
        <path
           d="m 393.449,74.269 -106.583,0 0,39.118 106.583,0 0,-39.118 z"
           id="path15106"
           style="fill:#000000;fill-opacity:1;fill-rule:nonzero;stroke:none" />
        <path
           d="m 393.449,74.269 -106.583,0 0,78.236 106.583,0 0,-78.236 z m -109.985,-3.402 113.386,0 0,85.039 -113.386,0 0,-85.039 z"
           id="path15134"
           style="fill:#bcbec0;fill-opacity:1;fill-rule:nonzero;stroke:none" />
        <g
           id="g15136">
          <g
             clip-path="url(#clipPath15140)"
             id="g15138">
            <g
               transform="translate(375.2166,124.5864)"
               id="g15144">
              <path
                 d="m 0,0 c -4.507,0 -5.47,4.232 -5.47,8.342 0,3.953 1.179,7.726 5.47,7.726 4.299,0 5.469,-3.773 5.469,-7.726 C 5.469,4.232 4.512,0 0,0 m 0,19.134 c -6.164,0 -9.686,-4.786 -9.686,-10.792 0,-6.412 3.09,-11.409 9.686,-11.409 6.593,0 9.686,4.997 9.686,11.409 0,6.006 -3.519,10.792 -9.686,10.792 M -21.744,8.018 c -0.286,0.523 -0.27,0.911 0.03,1.472 0.3,0.56 4.607,8.603 4.749,8.877 0.142,0.275 0.067,0.481 -0.207,0.481 l -3.306,0 c -0.25,0 -0.38,-0.064 -0.477,-0.258 -0.097,-0.196 -2.655,-5.259 -3.933,-7.736 -0.195,-0.379 -0.375,-0.401 -0.57,0 -1.576,3.244 -3.606,7.416 -3.724,7.657 -0.119,0.24 -0.304,0.337 -0.576,0.337 l -3.666,0 c -0.267,0 -0.449,-0.141 -0.288,-0.426 0.16,-0.284 4.969,-8.665 5.125,-8.935 0.333,-0.574 0.333,-1.009 0.056,-1.533 -0.277,-0.524 -5.285,-9.999 -5.419,-10.25 -0.133,-0.251 0.009,-0.4 0.213,-0.4 l 3.559,0 c 0.244,0 0.358,0.065 0.482,0.298 0.123,0.233 3.046,6.039 4.237,8.431 0.159,0.319 0.385,0.331 0.551,0 0.684,-1.368 4.134,-8.192 4.258,-8.431 0.124,-0.239 0.231,-0.298 0.413,-0.298 l 3.869,0 c 0.254,0 0.371,0.14 0.24,0.388 -0.143,0.273 -5.33,9.802 -5.616,10.326 M -52.611,5.066 c 0,0 1.567,5.451 1.894,6.609 0.477,1.693 0.839,3.153 1.01,3.861 0.07,0.292 0.216,0.288 0.293,-0.004 0.197,-0.742 0.61,-2.281 1.062,-3.857 0.63,-2.193 1.952,-6.609 1.952,-6.609 l -6.211,0 z m 5.747,13.615 c -0.039,0.109 -0.113,0.167 -0.259,0.167 l -4.601,0 c -0.128,0 -0.223,-0.044 -0.261,-0.174 -0.039,-0.13 -6.688,-20.863 -6.734,-21.011 -0.046,-0.148 0.042,-0.359 0.257,-0.359 l 3.429,0 c 0.155,0 0.286,0.077 0.348,0.282 0.062,0.205 1.487,4.896 1.487,4.896 l 7.416,0 c 0,0 1.527,-4.814 1.573,-4.951 0.046,-0.137 0.127,-0.227 0.278,-0.227 l 3.648,0 c 0.163,0 0.34,0.112 0.267,0.342 -0.072,0.23 -6.81,20.927 -6.848,21.035 M -70.892,9.849 c -2.888,1.123 -4.138,1.893 -4.138,3.561 0,1.25 1.09,2.598 3.593,2.598 0.811,0 1.558,-0.039 3.987,-0.693 0.15,-0.04 0.294,0.031 0.349,0.197 0.055,0.166 0.675,2.436 0.723,2.63 0.048,0.195 -0.061,0.298 -0.212,0.34 -2.431,0.693 -3.634,0.766 -4.782,0.766 -4.686,0 -7.638,-2.694 -7.638,-6.223 0,-3.112 2.279,-5.005 5.839,-6.288 2.76,-0.994 3.85,-1.957 3.85,-3.593 0,-1.765 -1.411,-2.952 -3.945,-2.952 -0.77,0 -1.925,0.043 -4.866,0.938 -0.15,0.046 -0.306,-0.024 -0.356,-0.184 -0.051,-0.159 -0.779,-2.447 -0.838,-2.629 -0.059,-0.181 0.049,-0.302 0.198,-0.348 3.041,-0.941 4.527,-1.048 5.605,-1.048 5.582,0 8.262,3.047 8.262,6.512 0,3.112 -1.877,5.004 -5.631,6.416"
                 id="path15146"
                 style="fill:#ffffff;fill-opacity:1;fill-rule:nonzero;stroke:none" />
            </g>
            <g
               transform="translate(302.6317,85.941803)"
               id="g15148">
              <path
                 d="m 0,0 -2.171,0 0,7.377 2.131,0 c 2.377,0 4.4,-1.146 4.4,-3.667 C 4.36,1.31 2.398,0 0,0 m -2.171,16.375 2.198,0 c 1.879,0 3.537,-0.905 3.537,-2.817 0,-1.996 -1.938,-3.618 -4.429,-3.618 l -1.306,0 0,6.435 z M 3.35,9.02 C 3.171,9.038 3.178,9.113 3.336,9.165 c 1.606,0.522 4.176,1.92 4.176,5.197 0,2.923 -2.648,4.58 -6.283,4.58 l -7.073,0 c -0.151,0 -0.284,-0.115 -0.284,-0.272 l 0,-20.985 c 0,-0.181 0.101,-0.287 0.281,-0.287 l 6.427,0 c 5.082,0 8.191,2.646 8.191,6.372 0,3.195 -2.822,4.997 -5.421,5.25 M 82.056,-2.318 73.004,8.853 c 0,0 8.144,9.537 8.31,9.742 0.166,0.207 0.018,0.347 -0.217,0.347 l -3.481,0 c -0.266,0 -0.313,-0.039 -0.503,-0.282 C 76.968,18.476 69.792,9.935 69.638,9.735 69.484,9.534 69.242,9.509 69.242,9.941 l 0,8.719 c 0,0.172 -0.056,0.282 -0.25,0.282 l -3.313,0 c -0.184,0 -0.241,-0.086 -0.241,-0.282 l 0,-20.978 c 0,-0.193 0.075,-0.284 0.291,-0.284 l 3.291,0 c 0.17,0 0.225,0.108 0.222,0.284 l 0,10.032 c 0,0.393 0.197,0.469 0.394,0.199 0.198,-0.269 7.555,-9.989 7.727,-10.225 0.171,-0.235 0.294,-0.29 0.53,-0.29 l 3.939,0 c 0.311,0 0.313,0.146 0.224,0.284 M 19.974,5.159 c 0,0 1.567,5.451 1.893,6.609 0.477,1.693 0.84,3.154 1.011,3.862 0.07,0.291 0.216,0.287 0.293,-0.004 0.197,-0.743 0.61,-2.282 1.062,-3.858 0.629,-2.193 1.951,-6.609 1.951,-6.609 l -6.21,0 z m 5.746,13.616 c -0.039,0.108 -0.112,0.167 -0.258,0.167 l -4.601,0 c -0.128,0 -0.223,-0.045 -0.261,-0.174 -0.039,-0.13 -6.688,-20.864 -6.734,-21.012 -0.046,-0.148 0.042,-0.358 0.256,-0.358 l 3.43,0 c 0.154,0 0.286,0.076 0.348,0.281 0.062,0.205 1.487,4.896 1.487,4.896 l 7.415,0 c 0,0 1.528,-4.813 1.574,-4.95 0.046,-0.137 0.127,-0.227 0.278,-0.227 l 3.648,0 c 0.162,0 0.34,0.111 0.267,0.342 -0.073,0.23 -6.81,20.926 -6.849,21.035 m 29.859,0.166 -3.105,0 c -0.147,0 -0.273,-0.119 -0.273,-0.275 l 0,-7.179 c 0,-3.109 0.127,-7.056 0.357,-9.917 0.015,-0.182 -0.044,-0.177 -0.098,0.003 -0.26,0.852 -1.126,3.325 -3.416,8.13 -3.192,6.699 -3.988,8.363 -4.335,9.093 -0.049,0.102 -0.154,0.146 -0.251,0.146 -0.097,0 -4.707,-0.001 -4.862,-0.001 -0.157,0 -0.285,-0.131 -0.285,-0.281 l 0,-20.975 c 0,-0.156 0.126,-0.287 0.281,-0.287 l 3.054,0 c 0.155,0 0.286,0.128 0.286,0.284 l 0,7.477 c 0,3.406 -0.071,7.659 -0.218,10.465 -0.006,0.127 0.046,0.146 0.096,10e-4 0.264,-0.775 1.107,-2.99 3.717,-8.696 2.889,-6.314 4.243,-9.249 4.303,-9.371 0.061,-0.121 0.17,-0.16 0.282,-0.16 l 4.462,0 c 0.157,0 0.285,0.131 0.285,0.287 l 0,20.981 c 0,0.159 -0.125,0.275 -0.28,0.275"
                 id="path15150"
                 style="fill:#ffffff;fill-opacity:1;fill-rule:nonzero;stroke:none" />
            </g>
          </g>
        </g>
      </g>
    </g>
  </g>
</svg>
