<svg xmlns="http://www.w3.org/2000/svg" viewBox="0 0 82.777 82.776"><path d="m16.457 26.966c-1.6197 1.6196-5.0911 5.0905-8.8028 8.8021-2.6202 2.6202-5.3598 5.3605-7.6542 7.6542 13.585 9.4636 25.827 10.209 31.781 4.2564 2.3693-2.37 6.3093-6.3099 10.519-10.52 3.9021-3.9021 11.083-11.082 18.099-18.098 0 0-9.4038 2.0012-20.38 2.0012-9.8126 0-19.515 1.8578-23.562 5.9045z" fill="#f4b400"/><path d="m61.715 42.758c0-10.976 2.001-20.38 2.001-20.38-7.0155 7.0159-14.196 14.196-18.098 18.098l-10.52 10.52c-5.9536 5.953-5.2078 18.196 4.2564 31.78l16.456-16.456c4.0468-4.047 5.9043-13.75 5.9043-23.562z" fill="#f4b400"/><path d="m52.997 2.5983c-12.741 0-25.338 2.4118-30.593 7.6668-3.5876 3.5869-14.17 14.17-21.367 21.366 2.238 1.5599 4.4488 2.936 6.6171 4.1363 3.7117-3.7117 7.1825-7.1825 8.8028-8.8021 4.046-4.0467 13.748-5.9046 23.561-5.9046 10.976 0 20.381-2.0011 20.381-2.0011 9.686-9.6865 19.06-19.06 19.06-19.06s-12.21 2.5983-26.462 2.5983z" fill="#003580"/><path d="m63.716 22.378s-2.001 9.4032-2.001 20.38c0 9.8126-1.857 19.515-5.9044 23.562l-8.8021 8.802c1.2003 2.169 2.5764 4.379 4.1363 6.618 7.1964-7.198 17.779-17.78 21.367-21.367 5.254-5.2547 7.667-17.853 7.667-30.594 0-14.252 2.598-26.461 2.598-26.461s-9.373 9.3741-19.061 19.061z" fill="#003580"/></svg>