<svg xmlns="http://www.w3.org/2000/svg" width="50.841" height="50.841"><g fill="#510098"><path d="M23.582 39.25h8.38a3.8 3.8 0 003.338-3.59V23.573a2.905 2.905 0 00-5.81 0v7.68a2.182 2.182 0 01-2.186 2.183H23.51a2.909 2.909 0 00-2.901 2.945 2.95 2.95 0 002.974 2.869zM27.357 11.656h-8.38a3.796 3.796 0 00-3.337 3.587V27.33a2.905 2.905 0 005.81 0v-7.677c0-1.207.978-2.186 2.185-2.186h3.796a2.909 2.909 0 002.905-2.946 2.954 2.954 0 00-2.979-2.864z"/><path d="M28.759 5.81c6.816.007 12.34 5.53 12.346 12.346v23.746a3.796 3.796 0 01-3.268 3.13h-15.77c-6.82-.003-12.35-5.531-12.351-12.351V9.63a3.816 3.816 0 013.82-3.82h15.223m0-5.81H13.536a9.634 9.634 0 00-9.634 9.63v23.047c0 10.032 8.132 18.164 18.164 18.164h16.09a9.626 9.626 0 008.784-8.56V18.157A18.156 18.156 0 0028.759 0z"/></g></svg>