<svg xmlns="http://www.w3.org/2000/svg" viewBox="0 0 82.777 82.776"><path d="m16.457 26.966-8.803 8.802L0 43.422c13.585 9.464 25.827 10.21 31.781 4.257L42.3 37.159 60.399 19.06s-9.404 2-20.38 2c-9.813 0-19.515 1.859-23.562 5.905zM61.715 42.758c0-10.976 2.001-20.38 2.001-20.38L45.618 40.476l-10.52 10.52c-5.954 5.953-5.208 18.196 4.256 31.78L55.81 66.32c4.047-4.047 5.905-13.75 5.905-23.562z" fill="#f4b400"/><path d="M52.997 2.598c-12.741 0-25.338 2.412-30.593 7.667L1.037 31.631a75.752 75.752 0 0 0 6.617 4.136l8.803-8.802c4.046-4.046 13.748-5.904 23.56-5.904 10.977 0 20.382-2.001 20.382-2.001L79.459 0s-12.21 2.598-26.462 2.598zM63.716 22.378s-2.001 9.403-2.001 20.38c0 9.813-1.857 19.515-5.904 23.562l-8.802 8.802a75.807 75.807 0 0 0 4.136 6.618c7.196-7.198 17.779-17.78 21.367-21.367 5.254-5.255 7.667-17.853 7.667-30.594 0-14.252 2.598-26.461 2.598-26.461L63.716 22.379z" fill="#003580"/></svg>