<svg width="600" height="600" fill="none" xmlns="http://www.w3.org/2000/svg"><path fill-rule="evenodd" clip-rule="evenodd" d="M0 130.225a21.999 21.999 0 0 1 15.418-20.992l265.434-83.229a63.998 63.998 0 0 1 38.296 0l265.434 83.229A21.998 21.998 0 0 1 600 130.225v67.748c0 9.62-6.25 18.124-15.431 20.997L319.11 302.021a63.998 63.998 0 0 1-38.22 0L15.431 218.97A22.001 22.001 0 0 1 0 197.973v-67.748Z" fill="#B0D8EF"/><path fill-rule="evenodd" clip-rule="evenodd" d="M600 333.928a22.001 22.001 0 0 1-15.428 20.996l-265.454 83.092a64.003 64.003 0 0 1-38.236 0L15.428 354.924A22.001 22.001 0 0 1 0 333.928v-72.874c0-9.448 9.167-16.183 18.184-13.36l263.292 82.448a61.994 61.994 0 0 0 37.049.002l263.293-82.415c9.016-2.822 18.182 3.913 18.182 13.361v72.838Z" fill="#EF5952"/><path fill-rule="evenodd" clip-rule="evenodd" d="M600 469.928a22.001 22.001 0 0 1-15.428 20.996l-265.454 83.092a64.003 64.003 0 0 1-38.236 0L15.428 490.924A22.001 22.001 0 0 1 0 469.928v-72.874c0-9.448 9.167-16.183 18.184-13.36l263.288 82.447a61.993 61.993 0 0 0 37.056 0l263.288-82.447c9.017-2.823 18.184 3.912 18.184 13.36v72.874Z" fill="#5D6969"/></svg>