<svg xmlns="http://www.w3.org/2000/svg" viewBox="0 0 400 400"><path fill="#061a57" d="M121.8 204.6a8.4 8.4 0 0 0-8.6 8.6c0 2.2.8 4.4 2.3 6 1.9 2.1 7.2 6.7 10.4 9.5a8.5 8.5 0 0 0 5.3 1.9c4.9 0 8.6-3.7 8.6-8.6 0-2.3-1.5-5.3-3.4-6.7a98.7 98.7 0 0 1-8.8-7.9 9 9 0 0 0-5.9-2.8zm28.3 22.8a7.5 7.5 0 0 0-7.7 7.7c0 3.3 1.9 5.6 4.4 7 1.6.9 4.9 2.1 7.2 3 1.6.7 1.9.7 2.3.7 5.6 0 8-3.9 8-7.4 0-3.7-2.5-6.5-4.5-7.4-5.8-2.3-4.6-2.1-6.3-2.8-.8-.6-2.4-.8-3.4-.8zm28.4 10.5c-4.4-.7-8.4 1.9-8.4 6.5a7.4 7.4 0 0 0 5.8 7.2c1.7.4 3.3.6 5 .7 4 0 7-2.8 7-6.7 0-3.3-2.6-6.3-5.8-7l-3.7-.7zm-37-44.9a8 8 0 0 0-8 8.1c0 2.8 1.4 5.3 2.6 6.5 1.4 1.4 10.4 8.4 12.3 9.5 1.6.9 3.3 1.4 5 1.4a8 8 0 0 0 8-7.9c0-3-1.6-6-3.7-7.4-3-1.9-7.4-5.3-10.2-7.9a9.2 9.2 0 0 0-6-2.3zm58.6 47.9c-3.7 0-6.5 2.8-6.5 6.5s2.8 6.5 6.5 6.5 6.5-2.8 6.5-6.5-2.8-6.5-6.5-6.5zm-24.2-28.1c-6-1.4-9.8 1.6-9.8 6.5 0 3.9 2.3 6.7 5.3 7.7 5 1.6 7 2.1 8.4 2.1 3.9 0 7.4-3 7.4-7.4 0-3.5-2.1-6-5.8-7.2-6.4-2-5-1.7-5.5-1.7zm24.2 4.4c-3.7 0-6.5 2.8-6.5 6.5s2.8 6.5 6.5 6.5 6.5-2.8 6.5-6.5-2.8-6.5-6.5-6.5zm-38.6-38.3a7.8 7.8 0 0 0-7.7 7.9c0 2.3 1.4 4.9 3 6.3a82.9 82.9 0 0 0 21.4 11.4c.8.3 1.7.4 2.6.5 1 0 2-.2 2.9-.6s1.8-.9 2.5-1.7c.7-.7 1.3-1.6 1.7-2.5s.6-1.9.6-2.9c0-3.9-2.8-6.7-5.3-7.7-6-2.3-13-6-16.5-8.8a7.3 7.3 0 0 0-5.2-1.9zm38.6 14.6c-3.7 0-6.5 2.8-6.5 6.5s2.8 6.5 6.5 6.5 6.5-2.8 6.5-6.5-2.8-6.5-6.5-6.5zm.2-173.2c-67 0-117 51.3-117 114.5 0 25.3 8 54.1 17 64.8 2 2.6 4.4 4.4 7.9 4.4a9 9 0 0 0 9.3-9.3c0-1.6-.7-3.7-1.4-4.9-2.1-3 1.4-5.1 3-2.3 1.4 2.3 4.6 4.6 8.4 4.6a9 9 0 0 0 8.8-8.8 10 10 0 0 0-1.5-5.1c-2.3-3.7 1.4-5.1 2.8-2.8 2 3 5.2 4.9 8.5 4.9a9 9 0 0 0 6.4-2.7 9 9 0 0 0 1.5-11 56.7 56.7 0 0 1-7.4-28.8c0-33.2 23-57.1 53.6-57.1 25 0 45 16 51.5 39.7l60-19.5a114 114 0 0 0-111.4-80.6zm78 175.1c4.8 0 8.5-3.7 8.5-8.6 0-2.2-.7-4.4-2.2-6-2-2.1-7.3-6.7-10.5-9.5a8.5 8.5 0 0 0-5.2-1.9 8.4 8.4 0 0 0-8.6 8.6c0 2.3 1.3 5.3 3.2 6.7 2.9 2.1 7.8 6.7 8.9 7.9a9.3 9.3 0 0 0 5.9 2.8zm-28.4-22.8c4.4 0 7.7-3.3 7.7-7.7 0-3.3-1.9-5.6-4.4-7-1.6-.9-4.9-2.1-7.2-3-1.6-.7-1.9-.7-2.3-.7-5.6 0-8 3.9-8 7.4 0 3.7 2.5 6.5 4.5 7.4 5.8 2.3 4.6 2.1 6.3 2.8.8.6 2.5.8 3.4.8zm-28.3-10.5c4.4.7 8.4-1.9 8.4-6.5a7.4 7.4 0 0 0-5.8-7.2c-1.7-.4-3.3-.6-5-.7-4 0-7 2.8-7 6.7 0 3.3 2.6 6.3 5.8 7l3.7.7zm37 44.9a8 8 0 0 0 8-8.1c0-2.8-1.4-5.3-2.6-6.5-1.4-1.4-10.4-8.4-12.3-9.5-1.6-.9-3.3-1.4-5-1.4a8 8 0 0 0-8 7.9c0 3 1.6 6 3.7 7.4 3 1.9 7.4 5.3 10.2 7.9a8.8 8.8 0 0 0 6 2.3zM200 159.1c3.7 0 6.5-2.8 6.5-6.5s-2.8-6.5-6.5-6.5-6.5 2.8-6.5 6.5 2.8 6.5 6.5 6.5zm24.1 28.1c6 1.4 9.8-1.6 9.8-6.5 0-3.9-2.3-6.7-5.3-7.7-5-1.6-7-2.1-8.4-2.1-3.9 0-7.4 3-7.4 7.4 0 3.5 2.1 6 5.8 7.2 6.5 2 5.1 1.7 5.5 1.7zm-24-4.4c3.6 0 6.4-2.8 6.4-6.5s-2.8-6.5-6.5-6.5-6.5 2.8-6.5 6.5 2.8 6.5 6.5 6.5zm38.4 38.3c4.2 0 7.7-3.5 7.7-7.9 0-2.3-1.4-4.9-3-6.3a82.9 82.9 0 0 0-21.4-11.4c-.8-.3-1.7-.4-2.6-.5-1 0-2 .2-2.9.6s-1.8.9-2.5 1.7c-.7.7-1.3 1.6-1.7 2.5s-.6 1.9-.6 2.9c0 3.9 2.8 6.7 5.3 7.7 6 2.3 13 6 16.5 8.8 1.5 1.3 3.3 2 5.2 1.9zM200 206.5c3.7 0 6.5-2.8 6.5-6.5s-2.8-6.5-6.5-6.5-6.5 2.8-6.5 6.5 2.8 6.5 6.5 6.5zm-.3 173.2c67 0 117-51.3 117-114.5 0-25.3-8-54.1-17-64.8-2-2.6-4.4-4.4-7.9-4.4a9 9 0 0 0-9.3 9.3c0 1.6.7 3.7 1.4 4.9 2.1 3-1.4 5.1-3 2.3a10.2 10.2 0 0 0-8.4-4.6 9 9 0 0 0-8.8 8.8c0 1.8.5 3.6 1.4 5.1 2.3 3.7-1.4 5.1-2.8 2.8a10 10 0 0 0-8.4-4.9 9 9 0 0 0-6.4 2.7 9 9 0 0 0-1.5 11 56.7 56.7 0 0 1 7.4 28.8c0 33.2-23 57.1-53.6 57.1-25 0-45-16-51.6-39.7l-60 19.5a114 114 0 0 0 111.5 80.6z"/></svg>
