<svg xmlns="http://www.w3.org/2000/svg" width="70.944" height="70.944" fill="none"><path d="M54.48 13.392c-.384.672-.8 1.168-1.248 1.488-.416.288-.944.432-1.584.432-.672 0-1.408-.24-2.208-.72a42.17 42.17 0 00-2.784-1.68c-1.088-.608-2.368-1.152-3.84-1.632-1.44-.512-3.152-.768-5.136-.768-1.792 0-3.36.224-4.704.672-1.344.416-2.48 1.008-3.408 1.776a7.257 7.257 0 00-2.016 2.784c-.448 1.056-.672 2.224-.672 3.504 0 1.632.448 2.992 1.344 4.08.928 1.088 2.144 2.016 3.648 2.784 1.504.768 3.216 1.456 5.136 2.064 1.92.608 3.888 1.264 5.904 1.968a49.59 49.59 0 015.904 2.4A19.565 19.565 0 0153.952 36c1.504 1.376 2.704 3.072 3.6 5.088.928 2.016 1.392 4.464 1.392 7.344 0 3.136-.544 6.08-1.632 8.832a20.173 20.173 0 01-4.704 7.152c-2.048 2.016-4.56 3.616-7.536 4.8-2.976 1.152-6.384 1.728-10.224 1.728a31.83 31.83 0 01-6.528-.672 33.661 33.661 0 01-6.192-1.824 33.433 33.433 0 01-5.52-2.88A26.73 26.73 0 0112 61.824l3.792-6.192c.32-.448.736-.816 1.248-1.104a3.028 3.028 0 011.632-.48c.8 0 1.664.336 2.592 1.008.928.64 2.032 1.36 3.312 2.16 1.28.8 2.768 1.536 4.464 2.208 1.728.64 3.792.96 6.192.96 3.68 0 6.528-.864 8.544-2.592 2.016-1.76 3.024-4.272 3.024-7.536 0-1.824-.464-3.312-1.392-4.464-.896-1.152-2.096-2.112-3.6-2.88-1.504-.8-3.216-1.472-5.136-2.016a170.299 170.299 0 01-5.856-1.776 50.497 50.497 0 01-5.856-2.304 18.971 18.971 0 01-5.136-3.504c-1.504-1.44-2.72-3.232-3.648-5.376-.896-2.176-1.344-4.848-1.344-8.016 0-2.528.496-4.992 1.488-7.392 1.024-2.4 2.496-4.528 4.416-6.384 1.92-1.856 4.288-3.344 7.104-4.464C30.656.56 33.888 0 37.536 0c4.096 0 7.872.64 11.328 1.92 3.456 1.28 6.4 3.072 8.832 5.376z" fill="#234675"/></svg>