<svg xmlns="http://www.w3.org/2000/svg" viewBox="0 0 56 56"><path fill="#00A0DF" d="M0 0h55.9v55.9H0z"/><path fill="#FFF" d="M48.6 25.3c0-.8-.5-1.4-.9-2-.4-.4-.7-.8-.7-1.3 0-.6.4-1 .9-1 .3 0 .5.1.7.2.2.1.5.2.7.2.4 0 .7-.4.7-.7 0-.4-.4-.8-1.1-.8-1.6 0-3 1.8-3 3.2 0 .8.5 1.4.9 1.9.3.4.6.8.6 1.2 0 .6-.6 1-1.1 1-.6 0-.9-.3-1.3-.6-.2-.2-.4-.4-.6-.4-.3 0-.4.6-.4.9 0 .4.7 1 1.6 1 1.4-.2 3-1.4 3-2.8M14.5 15.5c-.1 0-.1 0 0 0l-.1.4v.1h.5c.4.1.5.1.5.3 0 .3-.4 1.3-.9 2.7l-.4 1.3c-.4 1.1-1 2.7-1.5 4-.6 1.6-1.1 2.9-1.1 3.1 0 .2.1.3.6.3s.7-.1.8-.3c.9-2.9 3.3-6.2 4.5-6.2.4 0 .5.1.5.5 0 .6-.5 1.8-1.1 3-.5 1-.9 2-.9 2.5 0 .4.2.6.6.6 1.2 0 2.2-1.1 2.9-2l.1-.1-.3-.3h-.1c-.4.4-1.1 1.1-1.3 1.1h-.1v-.2c0-.1.1-.4.3-.8.5-1.1 1.3-3 1.3-4.1 0-.9-.4-1.4-1.2-1.4-1.5 0-2.7 1.7-3.3 2.6-.1.2-.3.4-.3.4s.1-.2.2-.6c.2-.4.4-1 .7-1.8 1.1-3 1.6-4.5 1.6-4.7 0-.2-.2-.2-.3-.2h-2.2zM11.1 26.1c.1-.1.1-.1 0 0 0-.1-.3-.3-.3-.3-.5.4-1.4 1.2-2.2 1.2-.3 0-.6-.1-.8-.3-.3-.2-.4-.6-.4-1.1-.1-1.2 1-3.1 2-4.2.6-.6 1.1-.9 1.4-.9.4 0 .7.3 1 .6.2.3.4.5.7.5.1 0 .3-.1.3-.2.1-.1.2-.3.2-.4 0-.5-.5-1.2-1.6-1.3-1.2 0-2.8.7-4 1.9-1.1 1.1-1.7 2.5-1.6 3.8 0 1.1.6 2.3 2.2 2.3 1.6.2 2.9-1.2 3.1-1.6zM31.3 23.3c0 .1-.1.2-.1.2v-.1c0-.1.1-.4.2-.8.2-.8.4-1.8.4-2.1 0-.4-.2-.6-.6-.6-.8 0-2.1 1.4-2.5 2.1l.2.3.1-.1.1-.1c.3-.4.9-1.1 1.2-1.1.2 0 .3.2.3.5 0 .7-.8 2.9-1.3 4.4-.3.8-.5 1.4-.5 1.5 0 .2.1.2.2.2h.7c.1 0 .2-.1.3-.3 0 0 .3-.8.5-1.2 1.4-2.8 2.1-4.2 2.7-4.8.4-.4.7-.5.9-.5.2 0 .2.1.3.2.1.1.2.3.4.3.1 0 .3 0 .4-.1.2-.2.3-.4.3-.7 0-.5-.4-.7-.7-.7-1.4.1-2.3 1-3.5 3.5zM27 19.7c-.1 0-.2.1-.2.2-.1.1-.1.2-.3.2-.1 0-.2 0-.4-.1-.2 0-.4-.1-.7-.1-3.5 0-5.3 4.7-5.3 6.3 0 1.1.6 1.6 1.2 1.6.7 0 1.7-.2 3-2.2l.3-.5v.1l-.1.2c-.2.3-.5 1-.5 1.6 0 .3.1.5.2.6.1.1.3.2.5.2 1.2 0 2.2-1.6 2.6-2.2l-.3-.3h-.1l-.3.3c-.4.4-.8 1-1.1 1h-.1v-.2c0-.4.8-2.3 1.3-3.8.4-1.1.8-2.1.8-2.3 0 0 0-.2-.1-.2l-.5-.3c.2-.1.1-.1.1-.1zm-5.5 6.2c0-2.3 1.8-5.4 3.6-5.4.6 0 .9.3.9.9 0 .9-2.4 5.2-4 5.2-.3.1-.5 0-.5-.7zM38.2 25.7c0 1.3.8 2.2 2 2.2 1.4 0 2.9-1.4 3.3-1.8V26l-.2-.3h-.1l-.2.1c-.5.4-1.3 1-2 1-.8 0-1.3-.5-1.3-1.3 0-1 .5-1.7.8-2.3v-.1h.8c1.3 0 3.7-.6 3.7-2.1 0-.6-.6-1.3-1.6-1.3-2 .2-5.2 3.2-5.2 6zm5.1-5.3c.4 0 .7.3.7.7 0 1-1.1 1.5-3 1.5.3-.7 1.4-2.2 2.3-2.2zM37.6 25.8s0-.1 0 0c0-.1-.3-.4-.3-.4l-.1.1c-.7.7-1 1.2-1.4 1.2h-.1s-.1-.1-.1-.2c0-.4.7-2.4 2.1-6l1-2.6c.5-1.3.8-2 .8-2.1v-.1c0-.1-.1-.1-.3-.1h-2.3s-.1 0-.1.1v.5h.5c.3.1.5.2.5.4 0 .3-1.5 4-1.5 4-.8 2-2.2 5.5-2.2 6.3 0 .4.1.7.2.8.2.2.4.3.7.3.9 0 1.9-1.2 2.5-2l.1-.2zm-.8-9.8zM5.9 32.8c0 1.1.9 1.7 1.7 2.1l.4.2c.8.4 1.2.9 1.2 1.5 0 .7-.5 1.3-1.2 1.3-1.1 0-1.7-1.1-2-1.8l-.4.1c.1.7.3 1.5.3 1.8h.2l.5.2c.3.1.7.2 1.1.2 1.5 0 2.6-.9 2.6-2.3 0-1.3-1-1.9-1.7-2.2l-.3-.1c-.9-.5-1.3-.9-1.3-1.5s.4-1.2 1.1-1.2c.9 0 1.3.7 1.5 1.4l.4-.1c-.1-.6-.2-1.1-.2-1.5l-.3-.1-.2-.1c-.3-.1-.7-.2-1-.2-1.4.1-2.4 1-2.4 2.3zM11.2 34.6c0 1.9 1.3 3.7 4.2 3.7.7 0 1.7-.2 2.1-.3.2-.5.5-1.4.6-1.9l-.4-.1c-.6 1.2-1.1 1.8-2.4 1.8-1.6 0-2.7-1.4-2.7-3.5 0-1.5.7-3.2 2.7-3.2 1.2 0 1.8.5 2.1 1.7h.4l-.1-.5-.2-1.3h-.2c-.4-.1-1-.2-1.8-.2-2.5-.2-4.3 1.4-4.3 3.8zM26.5 30.8h-3.2v.4c.8.1.9.1.9 1.4v1.5h-3.4v-1.5c0-1.2.1-1.3.9-1.4v-.4h-3.3v.4c1 .1 1 .2 1 1.4v4c0 1.2-.1 1.3-1 1.4v.4h3.3V38c-.8-.1-1-.1-1-1.4v-1.9h3.4v1.9c0 1.2-.1 1.3-1 1.4v.4h3.3V38c-.9-.1-1-.1-1-1.4v-4c0-1.2.1-1.3 1-1.4l.1-.4zM37.8 30.8h-2.6v.4h.4c.2 0 .3.1.4.1 0 .1.1.1.1.2s0 .3-.1.5c0 .1-.6 2.6-1.1 4.2-.1-.2-2-5.3-2-5.3h-.5s-1.7 5.3-1.7 5.4c-.1-.2-1.3-4.4-1.3-4.4 0-.2-.1-.3-.1-.4v-.2c.1-.1.2-.1.4-.1h.4v-.3H27v.4c.6.1.8.1 1.1 1.1l1.9 6h.5s1.7-5.2 1.8-5.3c.1.2 1.9 5.3 1.9 5.3h.5c1-3.5 1.9-5.9 1.9-6 .4-1 .5-1.1 1.2-1.1v-.5zM32.3 33zm2.6 3.3zM39.8 32.6s.8 2.4.9 2.4H39c-.1 0 .8-2.4.8-2.4zm1.4.2l-.8-2.1-.5.1-2.3 5.9c-.4 1-.5 1.1-1.2 1.1v.4H39v-.4h-.3c-.2 0-.4-.1-.4-.2v-.2c0-.1 0-.2.1-.4l.1-.2c.1-.4.3-1 .4-1.2H41c.2.6.5 1.3.6 1.6 0 .1.1.2.1.3v.1c0 .1-.1.1-.3.1l-.3.1v.3h3v-.4c-.6-.1-.8-.1-1.2-1.1l-1.7-3.8zM46.5 31.8c0-.3 0-.5.1-.5h.5c.3 0 1.4.1 1.4 1.4 0 .9-.6 1.4-1.6 1.4h-.4v-2.3zm-2.1-1v.4c.8.1.9.1.9 1.4v4c0 1.2-.1 1.3-1 1.4v.4h2.8c.9 0 1.7-.2 2.2-.5.7-.4 1-1 1-1.7 0-1-.7-1.7-2-1.9.6-.1 1.6-.6 1.6-1.6 0-.6-.2-1-.6-1.3-.4-.3-.9-.4-1.8-.4h-3.1zm2.5 3.6c1.3 0 2 .6 2 1.7s-.8 1.6-1.5 1.6c-.3 0-.5 0-.6-.1-.2-.2-.2-.5-.2-1.1v-2c0-.1.3-.1.3-.1z"/></svg>