<svg xmlns="http://www.w3.org/2000/svg" viewBox="0 0 439.5 170"><path fill="#d61622" d="M0 85C0 38 98.4 0 219.8 0s219.7 38 219.7 85-98.4 85-219.8 85S0 132 0 85Z"/><path fill="#fff" d="M66.5 73H54.9v-1c.1-2.3-.3-3.8-1.3-4.4a21 21 0 0 0-8-.9c-6.2 0-9.7 2-10.4 6-.5 2.8-.2 4.4.8 4.9s4.6 1 10.9 1.2c8.4.5 13.7 1.6 16 3.4s2.9 5.6 1.8 11.3c-1 6-3.5 10.3-7.3 12.6s-10.2 3.5-19 3.5c-8.5 0-14.1-1-16.9-3.1-2.7-2.2-3.6-6.1-2.6-11.9l.2-1.2h12.4a11 11 0 0 0-.6 1.6c-1.3 4.4 1.7 6.6 9 6.6 7.5 0 11.7-2.2 12.4-6.5.8-4.2-1.2-6.3-6-6.3-10.6 0-17.5-1-20.4-3-3-2-4-6.2-2.9-12.5 1-5.7 3.2-9.6 6.7-11.6s9.5-3 18.3-3c8.3 0 13.7 1 16.2 3 2.5 1.9 3.3 5.7 2.3 11.3Zm39.8 17h11.9l-.3 1.8-2 7.5c-2.8 6.9-10.5 10.3-23.2 10.3-9.3 0-15.3-1.7-17.8-5-2.5-3.4-2.8-10.3-1-20.5 1.8-10 4.5-16.7 8.2-20.1 3.7-3.5 10-5.2 18.9-5.2 8.6 0 14.2 1.2 16.8 3.7 2.6 2.5 3.3 7.3 2 14.4H108c1-5.8-1.8-8.7-8.5-8.7-4.8 0-7.9.9-9.4 2.7a34 34 0 0 0-4.2 13.5c-1.2 7-1.3 11.3-.3 13.1 1 1.8 4.1 2.7 9.3 2.7 4.1 0 6.8-.6 8.2-1.9 1.4-1.2 2.5-4 3.2-8.2Zm48-31.2c9.6 0 15.6 1.5 18 4.6 2.5 3 2.8 9.5 1 19.4-1.9 11-4.6 18.2-8.1 21.6-3.5 3.5-10 5.2-19.3 5.2-10.2 0-16.5-1.6-19-4.8s-2.6-10.2-.7-21c1.8-10.4 4.5-17.2 8-20.3 3.5-3.1 10.2-4.7 20-4.7Zm-1.8 9.4c-5 0-8.3.9-10 2.6-1.6 1.8-3 6-4.2 12.6-1.3 7.4-1.5 12.1-.5 14 1 1.8 4 2.7 9.1 2.8 5 0 8.3-1 10-3 1.6-2 3-6.8 4.4-14.2 1-6.3 1.1-10.4 0-12.2-1-1.7-4-2.6-8.8-2.6Zm35.2-8.9h12l-2 7h.2c3.8-5.1 8.7-7.7 14.8-7.7 8.8 0 12.2 5.5 10.2 16.5l-.6 3.5h-11.2l.6-2.6c1-5.3-.6-8-4.7-8-5.9 0-9.5 4-11 11.8l-5 29.2h-12l8.7-49.7Zm44.6 0h12.1l-1.8 7.4h.3c3.8-5.3 9.6-8 17.5-8 7.2 0 11.9 1.8 14 5.4 2 3.6 2.3 10.1.6 19.6a42 42 0 0 1-7.7 20.4c-3.3 3.7-8.6 5.5-16 5.5-7.7 0-12.4-2.6-13.8-7.8h-.3l-5 28.5h-12.4l12.5-71Zm21.9 8.8c-4.5 0-7.7 1-9.4 3a30 30 0 0 0-4.4 13c-1.1 6.5-1.1 10.8 0 13 1.1 2 4 3.1 8.5 3 4.7 0 7.9-1 9.6-3s3.2-6.2 4.4-12.8C264 77.5 264 73 263 71s-4-3-9-3Zm67-8.8-1.5 9h-19.1l-4.4 25c-.8 4.6.5 7 4 7 3.8 0 6.2-2.9 7.2-8.4l.4-2h10l-.3 2.5-1.3 5.8c-2 7.6-8.3 11.4-19 11.4-10.6 0-15-4.8-13.2-14.6l4.7-26.7h-6.4l1.6-9h6.4l2-11.1h11.9l-2 11.1h19ZM356 93.1h12l-.3 1.9c-1.8 9.7-9.9 14.6-24.5 14.6-9.8 0-16-1.7-18.4-5-2.5-3.3-2.8-10.5-.9-21.4 1.8-9.6 4.5-16.1 8.3-19.5 3.7-3.3 10.2-5 19.5-5 8.9 0 14.5 1.7 17 4.9s2.8 9.6 1.2 19.1l-.7 3.6h-33.6a51.9 51.9 0 0 0-.5 2.2c-.9 5-.7 8.2.5 9.8 1.2 1.6 4 2.5 8.6 2.5s7.3-.5 8.8-1.5c1.5-1 2.5-3 3-6.2Zm2.6-14.1.3-2c.7-4 .5-6.5-.7-7.7-1.1-1.2-4-1.8-8.6-1.8-4.4 0-7.4.8-9 2.2-1.5 1.4-2.8 4.5-3.7 9.3h21.7ZM410 90h11.8l-.2 1.8-2.1 7.5c-2.7 6.9-10.4 10.3-23.1 10.3-9.4 0-15.3-1.7-17.8-5-2.5-3.4-2.9-10.3-1-20.5 1.8-10 4.5-16.7 8.2-20.1 3.7-3.5 10-5.2 18.9-5.2 8.6 0 14.2 1.2 16.8 3.7 2.6 2.5 3.3 7.3 2 14.4h-11.8c1-5.8-1.8-8.7-8.5-8.7-4.8 0-8 .9-9.4 2.7s-3 6.4-4.3 13.5c-1.2 7-1.3 11.3-.3 13.1 1 1.8 4.2 2.7 9.4 2.7 4 0 6.8-.6 8.2-1.9 1.3-1.2 2.4-4 3.2-8.2Z"/></svg>