<svg xmlns="http://www.w3.org/2000/svg" width="61.7" height="61.7"><path d="M12.3 30.7c-2-3.1-2.4-7.3-2.4-10.5C9.9 9.3 19.6 0 29.9 0h31.8L49.3 12.5H29.6c-7.9 0-17.5 8-17.3 18.2zm12.2-8.9c1.2-3 3.2-5.7 5.7-7.7-4.6 0-9.8 2.2-13.8 7.7zm6.4-6.2c-2 1.7-3.6 3.8-4.8 6.2h9.6c-1.3-2.4-2.9-4.5-4.8-6.2zm-15.1 7.8c-1.1 2.2-1.8 4.6-2 7h8.9c0-2.4.4-4.8 1.2-7zm9.7 0c-.8 2.3-1.2 4.6-1.4 7h13.5c-.2-2.4-.6-4.7-1.4-7zM45 21.8c-3.8-5.5-9-7.7-13.5-7.7 2.5 2.1 4.5 4.7 5.7 7.7zm-7.2 1.6c.8 2.2 1.2 4.6 1.2 7h9c-.1-2.5-.8-4.9-2-7zM16.5 40.1c4 5.7 9.2 7.7 13.8 7.7-2.4-1.9-5-5.2-5.7-7.7zm14.4 6.4c2-1.8 3.6-4 4.8-6.4h-9.6c1.1 2.4 2.8 4.6 4.8 6.4zm-7-7.8c-.8-2.2-1.2-4.6-1.2-7h-9c.2 2.4.9 4.8 2 7zm12.3 0c.8-2.3 1.2-4.6 1.4-7H24.1c.2 2.4.6 4.7 1.4 7zm1 1.4c-1.3 3-3.2 5.6-5.7 7.7 4.5 0 9.7-2 13.5-7.7zm8.7-1.4c1.2-2.1 1.9-4.5 2-7h-9c0 2.4-.4 4.7-1.2 7zm3.3-7.8C49.5 41.4 40 49.4 32 49.4H12.3L0 61.7h31.8c10.1 0 19.9-9.2 19.9-20 0-3.2-.4-7.4-2.4-10.5V31z" fill="#ed0722"/></svg>