<svg xmlns="http://www.w3.org/2000/svg" xmlns:xlink="http://www.w3.org/1999/xlink" width="38.97mm" height="38.97mm" viewBox="0 0 38.97 38.97"><path fill="#002664" fill-rule="evenodd" d="M0 5.05h38.97v28.871H0z"/><g transform="translate(4.513 -.435) skewX(-11)" fill="#fff"><circle cx="18.844" cy="18.34" r=".5"/><circle cx="18.844" cy="19.39" r=".5"/><g id="a" mask="none" fill="#fff"><circle cx="27.314" cy="9.87" r=".21"/><circle cx="28.374" cy="8.81" r=".174"/><circle cx="28.374" cy="9.87" r=".174"/><circle cx="30.484" cy="7.75" r=".101"/><circle cx="30.484" cy="8.81" r=".138"/><circle cx="30.484" cy="9.87" r=".138"/><ellipse cx="29.434" cy="7.75" rx=".138" ry=".126"/><circle cx="29.434" cy="8.81" r=".138"/><circle cx="29.434" cy="9.87" r=".174"/><circle cx="31.544" cy="7.75" r=".101"/><circle cx="31.544" cy="8.81" r=".101"/><circle cx="31.544" cy="9.87" r=".138"/><circle cx="32.604" cy="8.81" r=".101"/><circle cx="32.604" cy="9.87" r=".101"/><circle cx="24.134" cy="13.04" r=".319"/><circle cx="24.134" cy="14.1" r=".319"/><circle cx="23.084" cy="14.1" r=".355"/><circle cx="25.194" cy="11.99" r=".282"/><circle cx="25.194" cy="13.04" r=".282"/><circle cx="25.194" cy="14.1" r=".319"/><circle cx="27.314" cy="10.93" r=".21"/><circle cx="27.314" cy="11.99" r=".246"/><circle cx="27.314" cy="13.04" r=".246"/><circle cx="27.314" cy="14.1" r=".282"/><circle cx="26.254" cy="10.93" r=".246"/><circle cx="26.254" cy="11.99" r=".246"/><circle cx="26.254" cy="13.04" r=".282"/><circle cx="26.254" cy="14.1" r=".282"/><circle cx="28.374" cy="10.93" r=".21"/><circle cx="28.374" cy="11.99" r=".21"/><circle cx="28.374" cy="13.04" r=".246"/><circle cx="28.374" cy="14.1" r=".246"/><circle cx="30.484" cy="10.93" r=".174"/><circle cx="30.484" cy="11.99" r=".174"/><circle cx="30.484" cy="13.04" r=".21"/><circle cx="29.434" cy="10.93" r=".174"/><circle cx="29.434" cy="11.99" r=".21"/><circle cx="29.434" cy="13.04" r=".21"/><circle cx="29.434" cy="14.1" r=".246"/><circle cx="31.544" cy="10.93" r=".138"/><circle cx="31.544" cy="11.99" r=".174"/><circle cx="32.604" cy="10.93" r=".138"/><circle cx="20.964" cy="16.22" r=".428"/><circle cx="20.964" cy="17.28" r=".428"/><circle cx="20.964" cy="18.34" r=".464"/><circle cx="19.904" cy="17.28" r=".464"/><circle cx="19.904" cy="18.34" r=".5"/><circle cx="22.024" cy="15.16" r=".391"/><circle cx="22.024" cy="16.22" r=".391"/><circle cx="22.024" cy="17.28" r=".428"/><circle cx="22.024" cy="18.34" r=".428"/><circle cx="24.134" cy="15.16" r=".355"/><circle cx="24.134" cy="16.22" r=".355"/><circle cx="24.134" cy="17.28" r=".391"/><circle cx="24.134" cy="18.34" r=".391"/><circle cx="23.084" cy="15.16" r=".355"/><circle cx="23.084" cy="16.22" r=".391"/><circle cx="23.084" cy="17.28" r=".391"/><circle cx="23.084" cy="18.34" r=".428"/><circle cx="25.194" cy="15.16" r=".319"/><circle cx="25.194" cy="16.22" r=".355"/><circle cx="25.194" cy="17.28" r=".355"/><circle cx="25.194" cy="18.34" r=".391"/><circle cx="27.314" cy="15.16" r=".282"/><circle cx="27.314" cy="16.22" r=".319"/><circle cx="26.254" cy="15.16" r=".319"/><circle cx="26.254" cy="16.22" r=".319"/><circle cx="26.254" cy="17.28" r=".355"/><circle cx="28.374" cy="15.16" r=".282"/><circle cx="20.964" cy="19.39" r=".464"/><circle cx="19.904" cy="19.39" r=".5"/><circle cx="22.024" cy="19.39" r=".464"/><circle cx="24.134" cy="19.39" r=".428"/><circle cx="23.084" cy="19.39" r=".428"/></g><circle cx="18.844" cy="20.45" r=".5"/><circle cx="18.844" cy="21.51" r=".5"/><use x="0" y="0" xlink:href="#a" id="b" transform="matrix(1 0 0 -1 0 39.84)" width="100%" height="100%" fill="#fff"/><use x="0" y="0" xlink:href="#b" id="c" transform="matrix(-1 0 0 1 37.689 0)" width="100%" height="100%" fill="#fff"/><use xlink:href="#c" transform="matrix(1 0 0 -1 0 39.84)" width="100%" height="100%"/></g></svg>