<svg xmlns="http://www.w3.org/2000/svg" viewBox="0 0 10.73 13.21"><path fill="#1e7b85" d="M1.18 6.51a2.2 2.2 0 0 0 1.77.8 1.9 1.9 0 0 0 1.44-.56 1.85 1.85 0 0 0 .53-1.32 1.59 1.59 0 0 0-.5-1.25 1.62 1.62 0 0 0-1.1-.45 2.45 2.45 0 0 0-.47.06 1.99 1.99 0 0 1-.38.07q-.42 0-.42-.5 0-.86.85-1.48a4.02 4.02 0 0 1 .51-.3 4.25 4.25 0 0 1 1.76-.36 6.09 6.09 0 0 1 3.44 1L7.86 3.3 8.9 4l1.42-2.03-.46-.35A7.3 7.3 0 0 0 5.16 0C2.41 0 .5 1.7.5 4.1V4.29c0 .95.24 1.7.7 2.23zM8.3 5.88a1.9 1.9 0 0 0-1.45.56 1.85 1.85 0 0 0-.53 1.32A1.59 1.59 0 0 0 6.84 9a1.62 1.62 0 0 0 1.1.46 2.44 2.44 0 0 0 .47-.06 1.98 1.98 0 0 1 .38-.07q.42 0 .42.5a1.59 1.59 0 0 1-.04.36c-.47 1.14-1.66 1.8-3.4 1.8a6.71 6.71 0 0 1-4.02-1.32l.94-1.1-1-.77-1.69 2 .43.4a7.97 7.97 0 0 0 5.33 2.01c.22 0 .44 0 .65-.03a5.03 5.03 0 0 0 3.09-1.2q1.23-1.12 1.23-3.08 0-1.42-.67-2.22a2.2 2.2 0 0 0-1.77-.8z"/></svg>
