<svg xmlns="http://www.w3.org/2000/svg" width="96" height="96"><g transform="translate(102.77 .046)"><path d="M-97.515-.046h85.49A5.244 5.244 0 01-6.77 5.21v64.397a5.244 5.244 0 01-5.255 5.256h-68.029l-22.716 21.091V5.21a5.244 5.244 0 015.255-5.256z" fill="#2980b9" fill-rule="evenodd"/><circle cx="-54.116" cy="56.603" r="4.615" fill="#e3f2fd" paint-order="markers fill stroke"/><path d="M-67.677 26.288h9.472c.05-3.57 1.358-5.105 4.779-5.24 2.875-.115 5.378 1.296 5.147 4.914-.267 4.178-2.65 6.402-5.15 8.239-4.325 3.175-5.477 7.362-5.283 12.103h9.202c-.127-4.283 2.17-6.658 5.757-9.362 3.718-2.803 5.05-6.898 5.161-10.867.123-4.38-1.266-7.437-3.89-9.614-3.152-2.613-6.876-3.445-10.7-3.448-6.868-.006-9.086 1.933-11.036 3.788-3.893 3.7-3.331 6.339-3.459 9.487z" fill="#e3f2fd"/></g></svg>