<svg xmlns="http://www.w3.org/2000/svg" aria-hidden="true" width="460" height="460"><g transform="translate(-60 -58)" fill="none" fill-rule="evenodd"><circle fill="#000" opacity=".09" cx="290" cy="288" r="230"/><path fill="#bc979d" d="M279.508 112.547l-.028 361.84 43.137 6.808 56.715-13.23 28.54-72.547-28.044-178.926-31.887-113.004"/><path fill="#ae7f9c" d="M281.57 100.633l-2.457 383.13-67.972-21.888 13.9-355.852"/><path d="M207.05 113.316v344.032S87.364 394.5 93.388 283.043C99.41 171.586 207.05 113.316 207.05 113.316z" fill="#786076"/><path d="M237.375 107.21l-30.603 4.35s-20.682 10.42-37.922 25.5c-75.19 167.948 108.332 115.1-12.725 286.69 50.647 47.86 72.293 41.137 72.293 41.137l8.957-357.676z" fill="#947a92"/><path d="M343.058 89.985c-109.36-29.303-221.77 35.597-251.073 144.957-29.303 109.36 35.597 221.77 144.957 251.073 109.36 29.303 221.77-35.597 251.073-144.957 29.303-109.36-35.597-221.77-144.957-251.073zM256.342 451.95l.276.71a12.794 12.794 0 0016.432 7.587l48.355-17.774a12.787 12.787 0 0116.431 7.588l.19.56a12.793 12.793 0 01-5.71 15.448c-93.23 22.17-187.912-30.724-217.912-121.736s14.67-189.84 102.81-227.453a13.447 13.447 0 0111.32 8.762c2.578 6.977 10.317 10.55 17.3 7.99l15.73-5.803a12.79 12.79 0 0116.433 7.585l.19.56a12.79 12.79 0 01-.39 9.788 12.785 12.785 0 01-7.197 6.644l-109.46 40.366a12.793 12.793 0 00-7.588 16.432l.19.56a12.794 12.794 0 0016.431 7.586l80.06-29.483a12.793 12.793 0 0116.431 7.588l.19.56a12.792 12.792 0 01-7.587 16.43l-127.814 47.08a12.788 12.788 0 00-7.587 16.431l.19.56a12.794 12.794 0 0016.43 7.586L297.72 226.4a12.787 12.787 0 0116.431 7.585l.467 1.27a12.799 12.799 0 01-.388 9.79 12.808 12.808 0 01-7.2 6.643l-113 41.54a12.793 12.793 0 00-7.587 16.431l.19.56a12.791 12.791 0 0016.43 7.586l51.798-19.06a12.795 12.795 0 0116.433 7.587l.19.56a12.79 12.79 0 01-.39 9.788 12.778 12.778 0 01-7.197 6.644l-89.085 32.754a12.782 12.782 0 00-7.197 6.643 12.799 12.799 0 00-.388 9.79l.19.56a12.79 12.79 0 0016.431 7.585L304.563 336.3a12.794 12.794 0 0116.432 7.587l.19.56a12.794 12.794 0 01-7.586 16.432l-74.954 27.54a12.788 12.788 0 00-7.587 16.431l.19.56a12.795 12.795 0 006.643 7.2 12.794 12.794 0 009.788.387l94.147-34.537a12.79 12.79 0 0116.432 7.586c2.428 6.58-.893 13.887-7.447 16.384l-86.903 33.168a12.8 12.8 0 00-7.18 6.658 12.796 12.796 0 00-.367 9.784l-.018-.09z" fill="#fff"/></g></svg>