<svg xmlns="http://www.w3.org/2000/svg" viewBox="0 0 1000 1115.2"><path fill="#b30838" d="m1000 844.9-95.7-51.5v-38l16.8 8.8v-36.4L698.6 596.6v-50.5l13.3-.9v-20.4h-14.2v-26.6H680v28.4l-13.3.9v20.4H680v39.9L491 508v-11.5l16.9-3.6-1-30.1-60.2-25.7-145.4-214.6v-44.3a69.2 69.2 0 0 0-52.3-70V55l15-1.8V28.4L248.3 30V0L227 .9V31l-14.1 1.8v24l15-1v50.6a49.5 49.5 0 0 0-33.7 13.3 55.8 55.8 0 0 0-19.5 42.5v48l-110 177.1L0 400.7v33.7l11.5 4.4v552.3l205.7 124.1 738.5-97.5 31-5.3v-140l13.3 6.1z"/><path fill="#fff" d="M252.7 141.8a44.3 44.3 0 0 1 13.3 20.4v55h-13.3zm-43.5 12.5a29.3 29.3 0 0 1 14.2-16v78.9l-14.2-2.7Zm-50.5 512.4-16-10.7v-97.5a69.1 69.1 0 0 1 16 24zM62 522.2a68.3 68.3 0 0 1 16 23v84.2l-16-10.6v-97.5m399.9-19.5-244.7 38.1v575.3l142.7-18.8v-116l-44.3 6.3L312 969l82.5-12.4v135.2l239.4-31.5V947.7L751.8 930l-.1 114.7 134.8-17.8v-83.6c-1.3-6-5.7-10.7-11.5-12.5 7.1-22.1 32-23.9 38.1-5.3v97.8l42.6-5.5-1-160.5-78.8-36.4v-79.8l-184.4-109L461.9 813Zm-71.4 60.6c7.4-.3 14.4 3.8 17.3 12V672l-26.6 3.5v-83.3a16.8 16.8 0 0 0-10.6-12.4h-1c3.8-11.3 12.6-17.1 21-17.4zm-91 12.4c7.5-.2 14.5 3.8 17 12v98.5l-26.6 2.7v-83.4a16 16 0 0 0-11.5-11.5v-.9c3.8-11.3 12.7-17 21.1-17.4zm396.6 108.5c6.7.1 13 4 15.8 11.7v60.3l-26.6 4.5v-46.1c-1.3-6-5.7-10.7-11.5-12.4 4-12 13.5-18 22.3-18z"/></svg>
