<svg id="Layer_2" data-name="Layer 2" xmlns="http://www.w3.org/2000/svg" viewBox="0 0 147.42 195.55"><defs><style>.cls-1{fill:#fff;}.cls-2{fill:#b30838;}</style></defs><polygon class="cls-1" points="124.96 114.67 124.91 96.74 115.95 92.56 115.95 83.6 95.24 71.32 69.3 91.71 69.31 56.6 41.72 60.9 41.72 125.83 124.96 114.67"/><polygon class="cls-2" points="52.4 109.27 52.79 111.35 57.78 110.58 57.78 123.7 61.7 123.17 61.69 107.86 52.4 109.27"/><path class="cls-2" d="M115.9,105v.08a1.85,1.85,0,0,1,1.28,1.29v9.41l3-.39v-11C119.53,102.29,116.68,102.53,115.9,105Z"/><path class="cls-2" d="M58.91,65.4v.08a1.85,1.85,0,0,1,1.28,1.28v9.43l3-.35V64.75C62.53,62.72,59.68,63,58.91,65.4Z"/><path class="cls-2" d="M48.63,66.84v.08a1.83,1.83,0,0,1,1.28,1.29v9.43l3-.36V66.19C52.26,64.16,49.41,64.41,48.63,66.84Z"/><path class="cls-2" d="M93.2,79.11v.07a1.86,1.86,0,0,1,1.28,1.29v5.19l3-.43V78.45C96.83,76.42,94,76.67,93.2,79.11Z"/><polyline class="cls-2" points="88.67 106.94 88.69 119.56 102.02 117.79 102.02 104.9"/><path class="cls-2" d="M102,104.92c0-4.09-3-7-6.68-6.39s-6.67,4.34-6.67,8.43"/><path class="cls-2" d="M4.63,152.18v.68c0,2.15.61,3.54,3.06,3.54a2.65,2.65,0,0,0,2.77-2.83c0-2.09-1.06-2.87-4.12-3.93-4.12-1.41-6-3.12-6-6.95,0-4.47,2.74-6.75,7.11-6.75,4.12,0,7.11,1.76,7.11,6.17v.65H10.1c0-2.16-.74-3.41-2.51-3.41A2.37,2.37,0,0,0,5,142c0,1.41.42,2.28,2.39,3.12l3.57,1.54c3.47,1.51,4.37,3.28,4.37,6.08,0,4.86-3,7.05-8,7.05-5.24,0-7.3-2.45-7.3-6.69v-.94Z"/><path class="cls-2" d="M17.6,147.36v-.42c0-4,2.73-5.34,6.08-5.34,5.28,0,6.27,2.19,6.27,5.31V156a7.08,7.08,0,0,0,.55,3.35H26.25a7.76,7.76,0,0,1-.54-1.8h-.07c-1,1.8-2.28,2.25-4.4,2.25-3.09,0-4.19-2.64-4.19-5,0-3.25,1.32-4.56,4.38-5.4l2.51-.68c1.32-.35,1.77-.87,1.77-2,0-1.32-.58-2.13-2.06-2.13a2,2,0,0,0-2.06,2.25v.49Zm8.11,3.34a5.5,5.5,0,0,1-1.9.87c-1.8.39-2.51,1.26-2.51,2.8,0,1.32.48,2.41,1.67,2.41a2.62,2.62,0,0,0,2.74-2.67Z"/><path class="cls-2" d="M33.27,142.05h4.25v2h.06A4.74,4.74,0,0,1,42,141.6c2.76,0,4.41,1.51,4.41,4.92v12.84H42V147.42c0-1.74-.58-2.41-1.9-2.41-1.51,0-2.35.93-2.35,2.86v11.49H33.27Z"/><path class="cls-2" d="M50.48,137.09h4.44v5H57.5v3H54.92v9.37c0,1.35.29,1.89,1.58,1.89a10,10,0,0,0,1-.06v3.09c-1,.09-1.87.19-2.9.19-3.47,0-4.12-1.06-4.12-4.57v-9.91H48.23v-3h2.25Z"/><path class="cls-2" d="M59.17,147.36v-.42c0-4,2.73-5.34,6.08-5.34,5.28,0,6.27,2.19,6.27,5.31V156a7.08,7.08,0,0,0,.55,3.35H67.82a7.3,7.3,0,0,1-.54-1.8h-.07c-1,1.8-2.28,2.25-4.41,2.25-3.08,0-4.18-2.64-4.18-5,0-3.25,1.32-4.56,4.38-5.4l2.51-.68c1.32-.35,1.77-.87,1.77-2,0-1.32-.58-2.13-2.06-2.13a2,2,0,0,0-2.06,2.25v.49Zm8.11,3.34a5.5,5.5,0,0,1-1.9.87c-1.8.39-2.51,1.26-2.51,2.8,0,1.32.48,2.41,1.67,2.41a2.62,2.62,0,0,0,2.74-2.67Z"/><path class="cls-2" d="M92.66,144.14c0-3.35-.67-4.79-2.76-4.79-2.35,0-2.9,2.34-2.9,8.84,0,6.95,1,8.21,3,8.21,1.67,0,2.9-.87,2.9-5.82h4.63c0,4.95-1.22,9.23-7.3,9.23-7,0-7.82-5-7.82-11.94s.87-11.93,7.82-11.93c6.62,0,7.11,4.85,7.11,8.2Z"/><path class="cls-2" d="M100.32,136.38h4.44v23h-4.44Z"/><path class="cls-2" d="M108,147.36v-.42c0-4,2.74-5.34,6.08-5.34,5.28,0,6.27,2.19,6.27,5.31V156a7.08,7.08,0,0,0,.55,3.35h-4.25a7.3,7.3,0,0,1-.54-1.8h-.07c-1,1.8-2.28,2.25-4.4,2.25-3.09,0-4.19-2.64-4.19-5,0-3.25,1.32-4.56,4.38-5.4l2.51-.68c1.32-.35,1.77-.87,1.77-2,0-1.32-.58-2.13-2.06-2.13a2,2,0,0,0-2.06,2.25v.49Zm8.11,3.34a5.5,5.5,0,0,1-1.9.87c-1.8.39-2.51,1.26-2.51,2.8,0,1.32.48,2.41,1.67,2.41a2.62,2.62,0,0,0,2.74-2.67Z"/><path class="cls-2" d="M123.68,142.05h4.24v2.32H128c.9-1.68,2.16-2.77,4-2.77a7,7,0,0,1,.8.06v4.25c-.45,0-.93-.07-1.38-.07a3,3,0,0,0-3.28,3.13v10.39h-4.44Z"/><path class="cls-2" d="M134.52,147.36v-.42c0-4,2.74-5.34,6.08-5.34,5.28,0,6.28,2.19,6.28,5.31V156a7.1,7.1,0,0,0,.54,3.35h-4.25a7.76,7.76,0,0,1-.54-1.8h-.06c-1,1.8-2.29,2.25-4.41,2.25-3.09,0-4.19-2.64-4.19-5,0-3.25,1.32-4.56,4.38-5.4l2.51-.68c1.32-.35,1.77-.87,1.77-2,0-1.32-.58-2.13-2.06-2.13a2,2,0,0,0-2.06,2.25v.49Zm8.11,3.34a5.5,5.5,0,0,1-1.9.87c-1.8.39-2.51,1.26-2.51,2.8,0,1.32.48,2.41,1.68,2.41a2.62,2.62,0,0,0,2.73-2.67Z"/><path class="cls-2" d="M15.73,166.91v16c0,2.29.55,4,2.71,4s2.7-1.7,2.7-4v-16h4.63v16c0,5.86-3.57,7.4-7.33,7.4s-7.34-1.25-7.34-7.4v-16Z"/><path class="cls-2" d="M28.73,172.57H33v2H33a4.75,4.75,0,0,1,4.41-2.48c2.77,0,4.41,1.51,4.41,4.93v12.83H37.42V178c0-1.74-.58-2.42-1.9-2.42-1.51,0-2.35.94-2.35,2.87v11.48H28.73Z"/><path class="cls-2" d="M45.14,166.65h4.44v3.8H45.14Zm0,5.92h4.44v17.31H45.14Z"/><path class="cls-2" d="M61.07,172.57h4.44l-4.35,17.31H56l-4.48-17.31h4.64L58.65,185h.07Z"/><path class="cls-2" d="M71.11,181.9v1.39c0,2,.54,4,2.18,4,1.48,0,2.1-1.13,2.35-3.25h4c-.16,4-2.09,6.27-6.27,6.27-6.44,0-6.69-5-6.69-9.26,0-4.64.9-8.95,6.88-8.95,5.18,0,6.34,3.48,6.34,8.79v1Zm4.53-2.63c-.09-2.64-.42-4.12-2.25-4.12s-2.28,1.83-2.28,3.44v.68Z"/><path class="cls-2" d="M82.37,172.57h4.24v2.32h.07c.9-1.67,2.15-2.77,4-2.77a7.2,7.2,0,0,1,.8.07v4.24c-.45,0-.93-.06-1.38-.06a3,3,0,0,0-3.28,3.12v10.39H82.37Z"/><path class="cls-2" d="M96.49,184.22v.58a2.22,2.22,0,0,0,2.32,2.51,2,2,0,0,0,2.25-2.06,2,2,0,0,0-1.61-2l-3.12-1.13c-2.44-.87-3.7-2.38-3.7-4.83,0-2.86,1.8-5.21,6.37-5.21,4,0,5.92,1.8,5.92,4.93v.7h-4c0-1.73-.51-2.6-2-2.6A1.88,1.88,0,0,0,96.88,177c0,.84.45,1.55,1.93,2l2.67.9c2.8.93,3.83,2.35,3.83,5,0,3.63-2.71,5.43-6.44,5.43-5,0-6.37-2.18-6.37-5.5v-.61Z"/><path class="cls-2" d="M107.85,166.65h4.44v3.8h-4.44Zm0,5.92h4.44v17.31h-4.44Z"/><path class="cls-2" d="M116.54,167.62H121v4.95h2.57v3H121V185c0,1.35.29,1.9,1.57,1.9a7.47,7.47,0,0,0,1-.07v3.09a27.13,27.13,0,0,1-2.9.2c-3.47,0-4.11-1.06-4.11-4.57V175.6h-2.26v-3h2.26Z"/><path class="cls-2" d="M125.25,192.23a6.57,6.57,0,0,0,1.16.1c1.64,0,2.25-.9,2.38-2.45l-4.85-17.31h4.63l2.57,12h.07l2.25-12h4.44l-4.18,16.16c-1.55,6-2.55,6.82-6.66,6.82h-1.81Z"/><path class="cls-2" d="M129.92,95.27l-10.75-5.75v-4.3l1.89,1V82.07L96,67.34V61.6l1.5-.11v-2.3l-1.62.09V56.21l-2,.08V59.4l-1.49.1v2.3l1.53-.09v4.58l-21.33-9V56l1.91-.37-.1-3.39L67.56,49.3,51.23,25.13V20.07a7.8,7.8,0,0,0-5.9-7.83V6.12L47,6V3.23l-1.79.14V0L42.85.14v3.4l-1.69.15V6.42l1.72-.16v5.8a5.62,5.62,0,0,0-3.78,1.51,6.3,6.3,0,0,0-2.16,4.88v5.32L24.54,43.83l-7.35,1.49v3.73l1.27.52V111.9l23.27,13.93V60.9L69.3,56.6V91.71L95.24,71.32,116,83.6v9l9,4.18,0,17.93,3.49-.53,0-15.74,1.46.69Z"/><path class="cls-1" d="M45.67,16a5,5,0,0,1,1.55,2.25v6.25H45.67Z"/><path class="cls-1" d="M40.82,17.36a3.33,3.33,0,0,1,1.56-1.8V24.5l-1.56-.25Z"/><path class="cls-1" d="M35.11,75.17,33.31,74V63a7.82,7.82,0,0,1,1.8,2.67Z"/><path class="cls-1" d="M24.18,58.85A7.68,7.68,0,0,1,26,61.51V71l-1.8-1.18v-11"/></svg>