<svg xmlns="http://www.w3.org/2000/svg" viewBox="0 0 594 594"><path fill="#2151a8" d="m310 324 82-308A297 297 0 0 0 282 0z"/><path fill="#bf1b2c" d="M287 326 259 2q-58 8-106 35z"/><path fill="#389297" d="m414 24-83 306L504 84q-40-38-90-60"/><path fill="#552f8b" d="m350 342 223-155a298 298 0 0 0-53-87zM56 124l211 211L134 49q-46 30-78 75"/><path fill="#389297" d="m6 237 245 114L43 143q-26 42-37 94"/><path fill="#bf1b2c" d="m41 447 198-53-229-20q10 39 31 73"/><path fill="#2151a8" d="M0 297q0 27 5 54l236 20L2 260z"/><path fill="#54ace4" d="M135 546q72 46 163 48c155 0 282-118 296-270a666 666 0 0 0-459 222"/></svg>