<svg xmlns="http://www.w3.org/2000/svg" id="Layer_1" data-name="Layer 1" viewBox="0 0 194.15 106.62">
  <defs>
    <clipPath id="clip-path" transform="translate(-3 -5.44)">
      <path fill="none" d="M3 5.44h194.15v106.61H3z"/>
    </clipPath>
    <style>
      .cls-4{fill:#b42026}
    </style>
  </defs>
  <g clip-path="url(#clip-path)">
    <path fill="#1d3b6d" d="M1 64.74h8.2a13.22 13.22 0 0 1 6 1.24 8.72 8.72 0 0 1 3.8 3.58 11.48 11.48 0 0 1 1.32 5.67A11.64 11.64 0 0 1 19 80.96a8.66 8.66 0 0 1-3.8 3.6 13.19 13.19 0 0 1-6 1.26H1Zm7.87 17.38q6.77 0 6.76-6.85t-6.76-6.8h-3.2v13.65Zm14.16 3.74V64.74H37.6v3.59H27.54v4.98h9.43v3.62h-9.43v5.34H37.6v3.59H23.03zM41 64.74h9.58A8 8 0 0 1 56 66.43a6.37 6.37 0 0 1 0 9.18 8 8 0 0 1-5.43 1.7H45.6v8.55H41Zm9 9q3.61 0 3.62-2.72T50 68.3h-4.4v5.48Zm23 12.12-2-4.69h-9.94L59 85.86h-4.61l9.7-21.12h3.74l9.7 21.12Zm-10.4-8.22h6.83L66 69.72Zm33.68 8.22h-4.9l-2.7-7a2.06 2.06 0 0 0-1-1.16 3.81 3.81 0 0 0-1.68-.36h-3v8.52h-4.55V64.74h9.4a8.46 8.46 0 0 1 5.58 1.6 5.67 5.67 0 0 1 1.9 4.6 6 6 0 0 1-1.11 3.62A6.08 6.08 0 0 1 91 76.72a3.71 3.71 0 0 1 2.7 2.58Zm-9.11-12a5.09 5.09 0 0 0 2.91-.66 2.85 2.85 0 0 0 0-4.19 5.09 5.09 0 0 0-2.91-.66H83v5.51Zm14.36 12V68.5h-5.98v-3.76h16.67v3.76h-6v17.36h-4.69zm18.04-21.09 5.41 15.3 5.39-15.3h5.71v21.09h-4.36v-5.77l.44-9.95-5.7 15.72h-2.98l-5.68-15.7.43 9.93v5.77h-4.34V64.77h5.68zm20.23 21.09V64.74h14.57v3.59h-10.06v4.98h9.44v3.62h-9.44v5.34h10.06v3.59H139.8zm31.72-21.12h4.36v21.12h-3.44l-10.53-13.47v13.47h-4.34V64.74h3.42l10.53 13.43V64.74zm11.65 21.12V68.5h-5.98v-3.76h16.66v3.76h-5.99v17.36h-4.69zM3.81 59.06a10.54 10.54 0 0 1-3.65-1.78l1.48-3.31a11.64 11.64 0 0 0 6.8 2.12 6.16 6.16 0 0 0 3.08-.63 2 2 0 0 0 1.08-1.79 1.76 1.76 0 0 0-1-1.58 13.21 13.21 0 0 0-3.47-1.11 18.28 18.28 0 0 1-4.42-1.37 5.87 5.87 0 0 1-2.39-2 5.29 5.29 0 0 1-.76-2.91 5.8 5.8 0 0 1 1.05-3.4 6.86 6.86 0 0 1 2.94-2.35 10.69 10.69 0 0 1 4.38-.85 14.12 14.12 0 0 1 4.31.66 8.66 8.66 0 0 1 3.32 1.8l-1.48 3.3A9.81 9.81 0 0 0 9 41.73a5.08 5.08 0 0 0-2.84.71 2.19 2.19 0 0 0-1.09 1.92 1.74 1.74 0 0 0 .4 1.2 3.15 3.15 0 0 0 1.34.84 17.15 17.15 0 0 0 2.69.73 14.67 14.67 0 0 1 5.84 2.31 4.66 4.66 0 0 1 1.78 3.87 5.52 5.52 0 0 1-2.3 4.68 10.52 10.52 0 0 1-6.41 1.73 16.28 16.28 0 0 1-4.6-.64m20.06.35V42.15h-5.95v-3.76h16.56v3.76h-5.94v17.28h-4.67zm32.68 0V42.15H50.6v-3.76h16.56v3.76h-5.94v17.28h-4.67zm-6.65 0-2-4.67h-9.85l-2 4.67H31.4l9.67-21h3.72l9.67 21Zm-10.31-8.18h6.8L43 43.36Zm30.53 8.18V38.39h14.51v3.58H74.61v4.96h9.4v3.61h-9.4v5.32h10.02v3.57H70.12z"/>
    <path d="M.81 106.47V95.02h7.71V97H3.28v2.65H8.2v2H3.28v4.82H.81zm9.6 0V95.02h7.89v1.95h-5.45v2.7h5.11v1.96h-5.11v2.9h5.45v1.94h-7.89zm9.93-11.45h4.42a7.13 7.13 0 0 1 3.23.68 4.73 4.73 0 0 1 2.07 2 6.19 6.19 0 0 1 .71 3.07 6.35 6.35 0 0 1-.7 3.09 4.73 4.73 0 0 1-2.06 2 7.19 7.19 0 0 1-3.25.68h-4.42Zm4.26 9.43q3.67 0 3.67-3.72t-3.67-3.68h-1.75v7.4Zm7.94 2.02V95.02h7.89v1.95h-5.45v2.7h5.11v1.96h-5.11v2.9h5.45v1.94h-7.89zm19.6 0h-2.66L48 102.66a1.14 1.14 0 0 0-.54-.63 2 2 0 0 0-.91-.17H45v4.61h-2.53V95.02h5.1a4.55 4.55 0 0 1 3 .87 3.07 3.07 0 0 1 1 2.49 3.24 3.24 0 0 1-.6 2 3.35 3.35 0 0 1-1.68 1.18 2 2 0 0 1 1.46 1.4Zm-4.94-6.53a2.75 2.75 0 0 0 1.58-.36 1.3 1.3 0 0 0 .49-1.13 1.32 1.32 0 0 0-.49-1.14 2.75 2.75 0 0 0-1.58-.36h-2.28v3Zm15.51 6.53-1.09-2.54h-5.35l-1.1 2.54h-2.52l5.26-11.45h2l5.26 11.45Zm-5.61-4.45h3.7l-1.8-4.3Zm9.25 4.45V95.02h2.51v9.41h5.11v2.04h-7.62zm15.41-.59a4.89 4.89 0 0 1-2-2 7.17 7.17 0 0 1 0-6.18 5 5 0 0 1 2-2 6.12 6.12 0 0 1 3-.72 7.15 7.15 0 0 1 2.18.34 4.61 4.61 0 0 1 1.7 1l-.79 1.8a6.09 6.09 0 0 0-1.5-.85 4.65 4.65 0 0 0-1.54-.26 2.87 2.87 0 0 0-2.36 1 4.34 4.34 0 0 0-.82 2.86 4.41 4.41 0 0 0 .82 2.89 2.87 2.87 0 0 0 2.36 1 4.41 4.41 0 0 0 1.54-.26 6.37 6.37 0 0 0 1.5-.84l.79 1.8a4.6 4.6 0 0 1-1.7 1 6.87 6.87 0 0 1-2.18.35 6 6 0 0 1-3-.74m18.64.4h-2.65l-1.46-3.81a1.14 1.14 0 0 0-.54-.63 2 2 0 0 0-.91-.17h-1.62v4.61h-2.48V95.02h5.1a4.57 4.57 0 0 1 3 .87 3.07 3.07 0 0 1 1 2.49 3.24 3.24 0 0 1-.6 2 3.39 3.39 0 0 1-1.73 1.17 2 2 0 0 1 1.46 1.4Zm-4.93-6.53a2.69 2.69 0 0 0 1.53-.38 1.31 1.31 0 0 0 .5-1.13 1.33 1.33 0 0 0-.5-1.14 2.69 2.69 0 0 0-1.57-.36h-2.25v3Zm6.96 6.53V95.02h7.89v1.95h-5.45v2.7h5.11v1.96h-5.11v2.9h5.45v1.94h-7.89zm9.99-11.45h4.42a7.16 7.16 0 0 1 3.23.68 4.73 4.73 0 0 1 2.07 2 7.08 7.08 0 0 1 0 6.16 4.78 4.78 0 0 1-2.06 2 7.22 7.22 0 0 1-3.25.68h-4.42Zm4.26 9.43c2.44 0 3.67-1.24 3.67-3.72s-1.23-3.68-3.67-3.68h-1.75v7.4Zm7.66-9.43h2.51v11.45h-2.51zm6.92 11.45v-9.41h-3.3v-2.04h9.21v2.04h-3.37v9.41h-2.54zm12.5-1.09a4.89 4.89 0 0 1-1.25-3.64v-6.72H145v6.84a3.06 3.06 0 0 0 .63 2.08 2.69 2.69 0 0 0 3.64 0 3.06 3.06 0 0 0 .63-2.08v-6.84h2.47v6.72a4.88 4.88 0 0 1-1.26 3.63 6 6 0 0 1-7.32 0m18.64-10.35h2.36v11.45h-1.87l-5.7-7.3v7.3h-2.35V95.02h1.85l5.71 7.29v-7.29zm4.83 0h2.51v11.45h-2.51zM174 105.9a4.89 4.89 0 0 1-2-2 6.83 6.83 0 0 1-.68-3.12 6.72 6.72 0 0 1 .68-3.1 4.92 4.92 0 0 1 2-2 6 6 0 0 1 3-.71 5.91 5.91 0 0 1 2.95.71 4.81 4.81 0 0 1 1.93 2 6.72 6.72 0 0 1 .68 3.1 6.83 6.83 0 0 1-.68 3.12 4.78 4.78 0 0 1-1.93 2 5.81 5.81 0 0 1-2.95.71 5.88 5.88 0 0 1-3-.71m5.22-2.26a4.49 4.49 0 0 0 .82-2.91 4.42 4.42 0 0 0-.82-2.89 3 3 0 0 0-4.51 0 4.48 4.48 0 0 0-.82 2.89 4.56 4.56 0 0 0 .82 2.92 3 3 0 0 0 4.51 0m12.32-8.63h2.36v11.45h-1.86l-5.71-7.3v7.3h-2.35V95.02h1.85l5.71 7.29v-7.29zM0 31.87S43.93-6.82 100.82 20.31c20.54 9.79 56.92 35 93.33 26.27 0 0-35.35 24-81.29-2.35C83.69 27.47 55.48 11.69 0 31.87" class="cls-4"/>
    <path d="M65.35 5.79s27.85-15.81 63 4.82C157.78 27.93 173 36.36 194 36.74c0 0-25 11-64.92-12.48C113 14.79 92.26 1.93 65.35 5.79" class="cls-4"/>
  </g>
</svg>
