<svg xmlns="http://www.w3.org/2000/svg" viewBox="0 0 240.5 123.5"><path fill="#1d3b6d" d="M201.4 118q-5.6-5.5-5.7-16.3V71.4h11v30.7q0 6.2 2.9 9.4c1.9 2.1 4.6 3.2 8.2 3.2 3.6 0 6.3-1 8.2-3.2 1.9-2.2 2.8-5.3 2.8-9.4V71.4h11.1v30.2q0 10.7-5.7 16.3-5.7 5.6-16.4 5.6-10.8 0-16.5-5.5M9 122a25.3 25.3 0 0 1-9-4.4l3.6-8a28.3 28.3 0 0 0 16.6 5.1 15 15 0 0 0 7.6-1.5 4.8 4.8 0 0 0 2.6-4.4A4.3 4.3 0 0 0 28 105q-2.4-1.5-8.5-2.8A45.3 45.3 0 0 1 8.7 99a14.3 14.3 0 0 1-5.8-5A12.8 12.8 0 0 1 1 87a14.2 14.2 0 0 1 2.6-8.4 17 17 0 0 1 7.2-5.7 26 26 0 0 1 10.7-2A34.9 34.9 0 0 1 32 72.3a21.5 21.5 0 0 1 8 4.3l-3.5 8.1a24 24 0 0 0-15-5.2 12.3 12.3 0 0 0-7 1.8A5.3 5.3 0 0 0 12 86a4.3 4.3 0 0 0 1 2.9 8.1 8.1 0 0 0 3.3 2 42.4 42.4 0 0 0 6.6 1.8q9.9 2.1 14.2 5.6a11.4 11.4 0 0 1 4.4 9.5 13.6 13.6 0 0 1-5.6 11.4q-5.7 4.3-15.7 4.3A40 40 0 0 1 8.9 122m40.7-50.6h19.9a32.1 32.1 0 0 1 14.5 3 21.2 21.2 0 0 1 9.3 8.9A28 28 0 0 1 96.5 97a28.4 28.4 0 0 1-3.2 13.9 21.1 21.1 0 0 1-9.2 8.8 32 32 0 0 1-14.6 3.1H49.6Zm19.2 42.4q16.4 0 16.4-16.7T68.8 80.5h-8v33.3zm36.5 9.1V71.4H140v8.9h-23.6v11.9h22.1v9h-22.1v21.7zm51.8-2.7a22.2 22.2 0 0 1-9-9.2 32.6 32.6 0 0 1 0-27.7 22 22 0 0 1 9-9.3 27.4 27.4 0 0 1 13.6-3.2 30.8 30.8 0 0 1 9.8 1.5 20.2 20.2 0 0 1 7.6 4.4l-3.5 8.1a26.3 26.3 0 0 0-6.8-3.8 20.2 20.2 0 0 0-6.8-1.2q-7 0-10.7 4.4-3.7 4.4-3.7 12.9t3.7 13q3.7 4.5 10.7 4.4a20.2 20.2 0 0 0 6.8-1.2 26.4 26.4 0 0 0 6.8-3.8l3.5 8.1a20 20 0 0 1-7.6 4.4 30.5 30.5 0 0 1-9.8 1.6 27.2 27.2 0 0 1-13.6-3.3"/><path fill="#b42026" d="M77.6 11.7s31.4-23.5 77.3-3.9c38.5 16.5 58.3 24.4 84 21.6 0 0-28.8 17.2-81-5.1-21-9-48.2-21.4-80.3-12.6M2.2 53.5S49.6-.3 123 24c26.4 8.7 74.6 33.7 117.5 17.4 0 0-39.3 34.7-99.2 9.8-38-15.9-74.8-30.7-139.1 2.4"/></svg>
