<svg xmlns="http://www.w3.org/2000/svg" version="1.1" id="Layer_1" x="0" y="0" xml:space="preserve" width="182.56" height="182.56"><style type="text/css" id="style12129">.st0{fill:#df134c}</style><g id="g12143" transform="translate(-102.17 5.53)"><path class="st0" d="M284.73 32.03l-1.17 3.74-6.04 21.25h-16.95c-6.21.06-12.25 4.66-14.65 10.54l.73-2.65 6.37-22.05c2.35-6.05 8.17-10.42 14.37-10.82h17.34z" id="path12131"/><path d="M241.29 48.15c1.06 1.21 1.73 2.82 1.45 4.49l-2.68 9.5-9.95-.06c.55-2.25 1.29-4.38 1.73-6.74.11-.4-.11-.81-.22-1.15-1.84-1.73-4.53-2.36-6.93-1.55-3.24.63-5.76 3.86-7.21 6.74l-1.12 2.71-6.04 21.01c-.61 2.01-1.51 4.49-.05 6.39 2.46 2.99 6.88 2.93 10.18 1.95.89-.34 2.07-.51 2.57-1.32.9-3.34 2.01-6.68 2.85-10.01l-.22-.12h-7.21l2.46-8.86.16-.12c-.05-.06-.11-.06-.11-.17 5.37-.06 11.01 0 16.55 0l-.11.75-7.79 26.71c-8 2.13-18.17 3.86-26 .23-4.36-2.76-5.26-8.06-4.47-12.84l.67-2.65 6.71-22.92c1.96-6.22 5.7-12.95 12.25-15.02 5.99-1.5 12.98-1.21 18.74.52 1.39.51 2.67 1.32 3.79 2.53z" id="path12133"/><path d="M157.64 56.95c1.18 1.38 1.68 3 1.18 4.78l-2.74 9.33c-3.46.17-6.76-.06-10.12 0 .5-2.01 1.18-3.92 1.68-5.99.11-1.32-.73-2.48-1.74-3.11-2.07-1.04-4.7-.46-6.43 1.04-2.41 1.96-3.52 4.72-3.52 7.77.06 1.15.56 2.07 1.29 2.94 3.3 3.11 6.82 5.93 10.23 8.98 2.01 2.18 2.96 5.3 2.35 8.23-.73 6.79-4.47 13.76-10.9 16.64-5.98 2.7-13.87 3.68-20.07.86-3.24-1.84-4.98-5.29-4.58-8.98.62-3.11 1.73-6.04 2.46-9.04 3.07-.06 6.82 0 10.23 0-.39 3-3.3 7.08.11 9.56 2.07 1.56 5.03.58 6.99-.57 2.57-1.84 3.97-4.78 4.59-7.66.34-3.11-3.02-4.14-4.64-6.16-3.52-3.74-9.39-6.22-9.62-12.04 0-5.7 2.24-11 5.76-15.37 5.98-6.16 16.33-6.68 23.88-3.63 1.32.53 2.6 1.39 3.61 2.42z" id="path12135"/><path d="M186.32 54.08c4.03.34 8.22 1.61 10.12 5.7 1.84 3.74.84 8.35-.17 12.21l-8.22 27.98c-1.85 5.07-6.88 8.46-12.13 8.52h-23.77l.17-.69 6.65-23.03 8.95-30.75zm-10.12 8.81l-.11.11-10.51 35.98.11.17c3.08.05 6.09.17 9.39 0 1.06-.23 2.01-.86 2.85-1.78 1.51-2.53 1.9-5.41 2.8-8.18l5.76-19.58c.33-1.26.95-2.71.39-4.03-.45-1.21-1.73-2.42-3.02-2.59z" id="path12137"/><path d="M272.21 70.83c-.73 2.99-1.68 6.05-2.57 9.1-5.48.06-10.73.12-16.05.06-1.34 4.2-2.57 8.41-3.75 12.67l.22.12H265l.06.12c-.95 3.16-1.84 6.44-2.85 9.67l-15.16.06c-1.57 4.83-2.91 9.56-4.25 14.4l.05.11c5.65.12 11.24 0 16.95.12l-2.63 9.33-2.07.11h-26l.17-1.09 8.27-28.62 7.44-26.08.11-.06H272.21z" id="path12139"/><path class="st0" d="M220.99 128.53c-2.18 5.53-7.6 10.08-13.42 10.71l-3.41.23-101.99-.09 7.38-24.79c4.87-.17 103.45 0 103.45 0 6.43-.11 12.64-4.78 15.04-10.94z" id="path12141"/></g></svg>