<svg xmlns="http://www.w3.org/2000/svg" xml:space="preserve" version="1.0" viewBox="0 0 28.9 28.2"><defs><clipPath id="a"><path d="m 409.441,126.252 v -43.63 h 147.796 v 43.63" /></clipPath></defs><g clip-path="url(#a)" transform="matrix(1.25 0 0 -1.25 -511.801 157.575)"><path fill="#009e4d" d="M425.804 118.68c-.311 0-.442-.052-.57-.194-.05-.055-.07-.11-.087-.223l-1.581-5.996c-.371-2.103-2.954-4.203-6.321-4.203h-4.681l.812 3.081h3.007c.307 0 .547.114.748.338.074.087.17.223.183.363l1.248 5.24c.368 2.103 2.59 4.427 5.957 4.427h4.794l-.613-2.834zm1.08-3.655.535 1.94h4.87c.6 2.813.128 5.42-1.58 7.126-3.454 3.455-10.682 2.281-16.067-2.87-.841-.8-1.551-1.666-2.198-2.55h2.932l-.682-1.944h-3.503c-.335-.613-.65-1.22-.89-1.838h4.155l-.665-1.944h-4.082c-.698-2.97-.253-5.74 1.503-7.499 3.412-3.41 10.618-2.212 16 2.94.942.895 1.72 1.862 2.423 2.855h-3.767l.574 1.94h4.404c.323.617.62 1.227.852 1.844h-4.814"/></g></svg>