<svg xmlns="http://www.w3.org/2000/svg" width="62.577" height="62.577"><defs><path id="a" d="M.021.258h62.556V24H.02z"/></defs><g fill-rule="evenodd"><path d="M58.642 19.418c-1.212 0-11.71 1.225-27.354 1.225-15.644 0-26.142-1.225-27.353-1.225-1.968 0-3.935 1.225-3.935 3.31v17.12c0 2.085 1.967 3.311 3.935 3.311 1.21 0 11.709-1.226 27.353-1.226 15.644 0 26.142 1.226 27.354 1.226 1.966 0 3.935-1.226 3.935-3.312V22.728c0-2.086-1.969-3.31-3.935-3.31z" fill="#c90117"/><path d="M54.575 35.71c-1.134 0-2.5-.485-2.5-1.492v-.701h1.257v.375c0 .449.608.666 1.266.666.635 0 1.097-.23 1.097-.666 0-.534-.61-.68-1.438-.982-.914-.327-1.963-.74-1.963-1.902 0-1.298 1.292-1.76 2.413-1.76.903 0 2.231.35 2.231 1.273v.776h-1.28v-.364c0-.326-.39-.532-.938-.532-.512 0-.95.193-.95.594 0 .533.632.74 1.327.957.952.303 2.072.69 2.072 1.89 0 1.237-1.17 1.868-2.595 1.868zm-5.79 0c-1.133 0-2.5-.485-2.5-1.492v-.701h1.257v.375c0 .449.608.666 1.266.666.635 0 1.098-.23 1.098-.666 0-.534-.61-.68-1.44-.982-.913-.327-1.96-.74-1.96-1.902 0-1.298 1.292-1.76 2.413-1.76.9 0 2.229.35 2.229 1.273v.776h-1.28v-.364c0-.326-.39-.532-.937-.532-.513 0-.95.193-.95.594 0 .533.633.74 1.326.957.952.303 2.073.69 2.073 1.89 0 1.237-1.169 1.868-2.596 1.868zm-9.666-.134s-.256.037-.548.037c-.975 0-1.852-.34-1.852-1.963v-5.233h-.975v-1.102h2.436v6.237c0 .546.123.849.646.849.172 0 .293-.014.293-.014zm-6.534-4.993c-1.072 0-1.62 1.078-1.62 2.23v1.647h.914v1.103H29.49v-3.684c0-.692-.11-1.297-.877-1.297-1.122 0-1.658 1.175-1.658 2.303v1.575h.914v1.102h-3.302V34.46h.914v-3.71c0-.168-.098-.254-.269-.254h-.706v-1.102h1.584c.536 0 .804.242.804.69v.278c0 .146-.024.292-.024.292h.024c.317-.654 1.11-1.406 2.133-1.406.89 0 1.511.413 1.743 1.358h.024a2.453 2.453 0 012.17-1.358c1.28 0 1.999.74 1.999 2.352v2.86h.913v1.102h-2.39V31.88c0-.728-.133-1.297-.9-1.297zm-12.76 5.127c-1.06 0-2.059-.618-2.059-1.88 0-1.89 2.51-2.072 3.522-2.072h.39v-.218c0-.824-.512-1.115-1.182-1.115-.94 0-1.755.594-1.755.594L18.18 30s.95-.752 2.437-.752c1.658 0 2.535.849 2.535 2.425v2.522c0 .18.098.266.269.266h.572v1.102h-1.426c-.56 0-.78-.29-.78-.654v-.073c0-.207.037-.34.037-.34H21.8s-.523 1.212-1.974 1.212zm-11.92 0c-1.133 0-2.498-.485-2.498-1.492v-.701h1.255v.375c0 .449.61.666 1.268.666.634 0 1.097-.23 1.097-.666 0-.534-.61-.68-1.438-.982-.914-.327-1.962-.74-1.962-1.902 0-1.298 1.291-1.76 2.413-1.76.902 0 2.23.35 2.23 1.273v.776H8.99v-.364c0-.326-.39-.532-.938-.532-.512 0-.951.193-.951.594 0 .533.634.74 1.329.957.95.303 2.07.69 2.07 1.89 0 1.237-1.169 1.868-2.595 1.868zm34.797-5.321c-.816 0-1.402.557-1.56 1.406h2.827c-.036-.897-.585-1.406-1.267-1.406m-23.45 3.333c0 .473.342.885.94.885.888 0 1.498-.933 1.498-1.734v-.218h-.269c-.596 0-2.169.085-2.169 1.066M14.34 30.39c-.815 0-1.4.556-1.559 1.405h2.827c-.036-.897-.584-1.406-1.267-1.406m2.741 2.291h-4.338c.098 1.175.951 1.793 1.914 1.793 1.023 0 1.816-.665 1.816-.665l.572 1.041s-.939.86-2.485.86c-2.036 0-3.327-1.466-3.327-3.236 0-1.902 1.303-3.224 3.143-3.224 1.78 0 2.741 1.298 2.741 2.922 0 .17-.036.51-.036.51zm28.363 0h-4.34c.098 1.175.952 1.793 1.914 1.793 1.024 0 1.816-.665 1.816-.665l.572 1.041s-.938.86-2.484.86c-2.036 0-3.33-1.466-3.33-3.236 0-1.902 1.306-3.224 3.146-3.224 1.779 0 2.743 1.298 2.743 2.922 0 .17-.037.51-.037.51z" fill="#fff"/></g></svg>