<svg xmlns="http://www.w3.org/2000/svg" viewBox="0 0 47.36 47.36"><circle cx="23.68" cy="23.68" fill="#222534" r="22.68"/><path d="M16.81 35.48a12.07 12.07 0 0 1-7.89-3.34l-.32-.3 3.06-4.52.44.46a8.24 8.24 0 0 0 5.17 2.52c1.12 0 2.32-.44 2.32-1.67 0-1-1-1.45-2.11-1.85l-.88-.31c-.88-.31-1.9-.68-2.43-.91l-.25-.12a7.86 7.86 0 0 1-2.42-1.52 5.78 5.78 0 0 1-1.82-4.46 6.56 6.56 0 0 1 2.4-5.05A9.24 9.24 0 0 1 18 12.6h21.48v5.07H34v17.44h-6V17.67H17.89c-1.5 0-2.26.44-2.26 1.29s.79 1.28 1.83 1.68c.46.19 1.08.41 1.67.63s1.17.43 1.51.57c3.27 1.19 4.93 3.31 4.93 6.3 0 5.04-4.57 7.34-8.76 7.34z" fill="#fff"/></svg>
