<svg xmlns="http://www.w3.org/2000/svg" data-name="SecureSafe Logo R2018" width="209.326" height="209.326"><path d="M148.55 100.192a19.72 19.72 0 10-31.5-23.736l-26.59 35.286a17.381 17.381 0 11-27.763-20.92l66.19-87.837A100.013 100.013 0 00104.663 0C43.212 0 5.925 56.568 5.925 56.568c0 15.066.016 89.788 71.724 137.714l70.9-94.09z"/><path d="M104.664 209.325c98.738-45.391 98.738-136 98.738-152.757 0 0-27.63-41.912-74.516-53.582l-66.19 87.837a17.381 17.381 0 1027.763 20.92l26.59-35.286a19.72 19.72 0 1131.5 23.736l-70.9 94.09a195.171 195.171 0 0027.015 15.043z" fill="orange"/></svg>