<svg xmlns="http://www.w3.org/2000/svg" width="49.315" height="49.315" viewBox="0 0 74.959 74.72" data-reactid=".0.0.0.0.0.1.0" aria-hidden="true"><g data-reactid=".0.0.0.0.0.1.0.1"><g data-reactid=".0.0.0.0.0.1.0.1.0" fill="#15195a"><g data-reactid=".0.0.0.0.0.1.0.1.0.0"><g data-reactid=".0.0.0.0.0.1.0.1.0.0.0"><g data-reactid=".0.0.0.0.0.1.0.1.0.0.0.0"><path d="M74.344 35.866l-17.96-20.802a2.161 2.161 0 00-1.845-1.029 2.149 2.149 0 00-2.159 2.14c0 .622.27 1.183.698 1.574L69.348 37.3l-16.09 19.18H46.308l15.205-17.537.028-.033.003.001c.424-.461.612-1 .602-1.532.01-.531-.178-1.07-.602-1.532l-.003.001-.028-.032-18.157-20.72-.012-.014a2.16 2.16 0 00-1.856-1.048H28.736a2.149 2.149 0 00-2.159 2.14c0 .358.05.731.247.993l16.9 20.292L29.32 54.588c-.086.085-1.327 1.839-3.51 1.839h-17.2c-2.34 0-4.28-1.81-4.28-4.214V22.521c0-2.093 1.94-4.242 4.332-4.242h10.702c1.261 0 2.158-.854 2.158-2.104s-.897-2.18-2.158-2.18l-10.807.042C3.44 14.037 0 18.222 0 22.477v29.736c0 4.581 4.074 8.483 8.558 8.483h17.197a8.711 8.711 0 002.676-.418c2.371-.762 3.802-2.327 4.079-2.658l16.21-18.726c.766-.862.868-2.113.012-3.046l-.003.001-.028-.032-15.333-17.538H40.446L56.47 37.38 39.608 57.542c-.005.006.005.023.029.05a2.115 2.115 0 00-.247.994c0 1.181.966 2.14 2.158 2.14H54.3c.79 0 1.48-.422 1.856-1.049l.012-.014 18.157-20.72.028-.032.003.001c.856-.933.754-2.183-.012-3.046" data-reactid=".0.0.0.0.0.1.0.1.0.0.0.0.1"/></g></g></g></g></g></svg>