<svg xmlns="http://www.w3.org/2000/svg" width="31.274" height="31.274" class="navbar-brand__logo d-block"><g transform="translate(.67 -.811)" fill="#52bd95"><rect x="11.48" y="10.904" width="18.277" height="3.171" rx=".65" ry=".65"/><rect x=".171" y="18.829" width="18.277" height="3.171" rx=".65" ry=".65"/><path d="M2.364 13.074a.593.593 0 00.719-.413 12.475 12.475 0 0114.575-8.385.586.586 0 00.685-.425l.517-1.927a.593.593 0 00-.448-.728C10.452-.596 2.45 4.03.035 11.825a.59.59 0 00.413.735zM27.569 19.822a.595.595 0 00-.727.413 12.475 12.475 0 01-14.575 8.395.584.584 0 00-.686.426l-.506 1.916a.593.593 0 00.449.73c7.96 1.788 15.958-2.84 18.376-10.63a.586.586 0 00-.413-.734z"/><circle cx="24.001" cy="5.684" r="1.739"/><circle cx="5.932" cy="27.218" r="1.739"/></g></svg>