<svg xmlns="http://www.w3.org/2000/svg" viewBox="0 0 62.29 66.46"><path fill="#6ADDB2" d="M59.82 29.08H27.2a2.26 2.26 0 0 1-2.26-2.22v-3.84a2.26 2.26 0 0 1 2.26-2.22h32.83a2.26 2.26 0 0 1 2.26 2.22v3.84c-.21 1.22-1.25 2.22-2.47 2.22M2.29 45.69A2.3 2.3 0 0 1 0 43.41v-3.95c0-1.04 1.04-2.07 2.29-2.07h32.93a2.3 2.3 0 0 1 2.28 2.28v3.95a2.66 2.66 0 0 1-2.49 2.07zm10.07 14.54a4.16 4.16 0 1 0-.02-8.32 4.16 4.16 0 0 0 .02 8.32m37.37-45.69a4.16 4.16 0 1 0-.02-8.32 4.16 4.16 0 0 0 .02 8.32M31.04 58.15c-2.29 0-4.57-.41-6.64-1.04-1.04-.21-2.08.21-2.49 1.24l-1.46 3.95c-.41 1.04.21 2.29 1.46 2.7a27.1 27.1 0 0 0 9.13 1.45c13.5 0 25.12-8.1 30.32-19.73.41-1.04 0-2.49-1.25-2.91l-3.94-1.45a1.83 1.83 0 0 0-2.49 1.04 24.72 24.72 0 0 1-22.63 14.74Zm0-49.84c2.29 0 4.57.41 6.64 1.04 1.04.21 2.08-.21 2.49-1.25l1.45-3.95c.41-1.04-.21-2.28-1.45-2.7A27.1 27.1 0 0 0 31.03 0 33.2 33.2 0 0 0 .73 19.73c-.41 1.04 0 2.49 1.25 2.91l3.95 1.45c1.04.41 2.08 0 2.49-1.04A24.73 24.73 0 0 1 31.05 8.3Z"/></svg>