<svg xmlns="http://www.w3.org/2000/svg" width="92.7" height="92.7"><path d="M30.9 45.45c-1.4-.9-2.8-1.6-4.2-2-1.4-.4-2.5-.7-3.3-.9-2.7-.7-4.8-1.2-6.5-1.7-1.7-.4-3-.9-3.9-1.3-.9-.4-1.6-.9-1.9-1.4-.3-.5-.5-1.2-.5-2 0-.9.2-1.7.6-2.3.4-.6.9-1.1 1.5-1.5.6-.4 1.3-.7 2.1-.8.8-.2 1.5-.2 2.3-.2 1.2 0 2.2.1 3.2.3 1 .2 1.9.5 2.6 1 .8.5 1.4 1.1 1.8 2 .5.8.7 1.9.8 3.2h9.1c0-2.5-.5-4.6-1.4-6.3-.9-1.7-2.2-3.2-3.8-4.3-1.6-1.1-3.4-1.9-5.5-2.4-2-.7-4.2-.9-6.4-.9-1.9 0-3.8.3-5.8.8-1.9.5-3.6 1.3-5.2 2.4-1.5 1.1-2.7 2.4-3.6 4-1 1.6-1.5 3.6-1.5 5.8 0 2 .4 3.6 1.1 5 .7 1.4 1.7 2.5 2.9 3.4 1.2.9 2.6 1.7 4.1 2.2 1.5.6 3.1 1.1 4.7 1.5 1.6.4 3.1.8 4.6 1.2 1.5.4 2.9.8 4.1 1.3 1.2.5 2.2 1.1 2.9 1.8.7.7 1.1 1.7 1.1 2.8 0 1.1-.3 2-.8 2.7-.6.7-1.3 1.2-2.1 1.7-.8.4-1.7.7-2.7.8-1 .1-1.9.2-2.7.2-1.2 0-2.4-.1-3.6-.4-1.2-.3-2.2-.8-3-1.4-.8-.6-1.5-1.4-2.1-2.4-.6-1-.8-2.2-.8-3.7H0c0 2.6.4 4.9 1.4 6.8 1 1.9 2.3 3.5 4 4.7 1.7 1.2 3.7 2.1 5.9 2.7 2.2.6 4.5.9 6.9.9 2.9 0 5.5-.3 7.7-1s4.1-1.6 5.6-2.8c1.5-1.2 2.6-2.7 3.4-4.3.8-1.7 1.1-3.5 1.1-5.5 0-2.4-.5-4.4-1.5-5.9-1-1.6-2.2-2.8-3.6-3.8z" fill="#434c4d"/><path d="M83.4 24.95l-7 29.5h-.1L69 24.95h-8.9l-7.4 29.2h-.1l-6.8-29.2h-9.4l11.3 42.9h9.6l7.1-29.2h.1l7.3 29.2h9.3l11.6-42.9z" fill="#7ab800"/></svg>