<svg xmlns="http://www.w3.org/2000/svg" viewBox="0 0 17.76 19.97"><path fill="#121417" d="m5.3 5.34 5.5-1.84-.37 1.57a21.07 21.07 0 0 1 5.04 2.05l2.3-4.83A16.33 16.33 0 0 0 9.44 0C7.8.01 6.36.27 5.12.77a6.35 6.35 0 0 0-2.87 2.2 5.67 5.67 0 0 0-1 3.34c0 1.31.32 2.36.98 3.14a6 6 0 0 0 2.33 1.74c.9.37 2.02.73 3.37 1.07l.98.27.36-1.5 4.28 3.36-5.51 1.84.3-1.25a13.2 13.2 0 0 1-2.37-.74 12.66 12.66 0 0 1-3.63-2.14L0 16.86a16.56 16.56 0 0 0 9.58 3.1 11.2 11.2 0 0 0 4.06-.67 6.37 6.37 0 0 0 2.91-2.09 5.54 5.54 0 0 0 1.08-3.47 5 5 0 0 0-1.01-3.26 6.09 6.09 0 0 0-2.36-1.82 28.7 28.7 0 0 0-3.4-1.14l-.93-.27-.35 1.47Z"/></svg>