<svg xmlns="http://www.w3.org/2000/svg" viewBox="0 0 90 90"><path fill="#0092ff" d="M78.489 64.418a17.876 17.876 0 0 1-10.513 8.236c.634-2.175.958-4.429.962-6.695 0-11.283-7.784-20.747-18.233-23.324a17.68 17.68 0 0 1 7.766-4.426 17.61 17.61 0 0 1 13.503 1.786c8.498 4.93 11.42 15.885 6.514 24.422M45.01 83.836c-4.648 0-9.07-1.855-12.35-5.022a23.74 23.74 0 0 0 6.245-2.515c9.723-5.64 13.989-17.139 10.992-27.516a17.89 17.89 0 0 1 12.908 17.176c0 9.856-7.984 17.877-17.795 17.877M11.529 64.418c-2.324-4.044-2.925-8.809-1.839-13.241a24.09 24.09 0 0 0 5.286 4.163 23.712 23.712 0 0 0 11.926 3.216 23.965 23.965 0 0 0 17.294-7.395c1.867 7.54-1.333 15.727-8.356 19.801a17.616 17.616 0 0 1-8.868 2.391 17.795 17.795 0 0 1-15.443-8.935m0-38.837c2.307-4 6.075-6.951 10.514-8.236a24.01 24.01 0 0 0-.964 6.696c0 11.277 7.781 20.738 18.224 23.319-5.567 5.404-14.232 6.719-21.259 2.642a17.75 17.75 0 0 1-8.292-10.857 17.833 17.833 0 0 1 1.777-13.565M45.01 6.162c4.65 0 9.067 1.853 12.345 5.018a23.976 23.976 0 0 0-6.242 2.519c-5.537 3.212-9.497 8.396-11.15 14.599a23.958 23.958 0 0 0 .151 12.916c-7.437-2.143-12.9-9.024-12.9-17.173 0-9.858 7.983-17.879 17.796-17.879m33.479 19.419c2.326 4.05 2.929 8.819 1.836 13.257a23.885 23.885 0 0 0-5.282-4.179c-5.537-3.21-11.985-4.063-18.16-2.401a23.746 23.746 0 0 0-11.066 6.596 17.86 17.86 0 0 1 .073-8.961c1.229-4.612 4.173-8.468 8.291-10.857a17.61 17.61 0 0 1 13.503-1.786c4.591 1.236 8.428 4.195 10.806 8.33m5.313-3.08c-3.196-5.562-8.356-9.54-14.532-11.202a24.074 24.074 0 0 0-4.46-.754C60.38 4.002 52.945 0 45.01 0c-8.218 0-15.48 4.185-19.79 10.542A24.016 24.016 0 0 0 6.218 22.499a23.98 23.98 0 0 0-2.393 18.244A24.35 24.35 0 0 0 5.406 45c-3.426 7.127-3.158 15.596.81 22.5 4.109 7.149 11.344 11.369 18.979 11.942C29.624 85.991 37.074 90 45.009 90c8.217 0 15.479-4.186 19.789-10.544A24.016 24.016 0 0 0 83.801 67.5c4.11-7.15 4.131-15.56.805-22.488 3.43-7.13 3.164-15.603-.805-22.511"/></svg>