<svg xmlns="http://www.w3.org/2000/svg" xml:space="preserve" viewBox="0 0 139.2 94.1"><path fill="#1d97ff" d="M139.2 62.8a32 32 0 0 0-28.5-31.7A43 43 0 0 0 42.3 9.8a42.1 42.1 0 0 0-13.8 21.3A32 32 0 0 0 0 62.8a32 32 0 0 0 8.6 21.4c6.4 6.6 15.7 9.9 27.5 9.9 11.4 0 22.7-2 33.5-5.9a95.4 95.4 0 0 0 33.5 5.9c11.9 0 21.2-3.3 27.5-9.9a31.6 31.6 0 0 0 8.6-21.4c0 .1 0 0 0 0zm-8.7.1c0 .1.1 8.9-6.2 15.3-4.7 4.8-11.8 7.2-21.2 7.2a90.4 90.4 0 0 1-36.8-7.9 73.8 73.8 0 0 1-13.5-7.8l-.3-.3-.1-.4V50.9c0-.3.2-.6.5-.8l16.3-8.4c.3-.1.6-.1.8 0l16.3 8.4c.3.2.5.5.5.8v18.2l-.2.6a54 54 0 0 1-8 5.1c3.6 1.1 7.7 2 12.1 2.7l1.6-1.2.1-.1a9.8 9.8 0 0 0 3.2-7.2V50.9c0-3.6-2-6.9-5.2-8.6l-16.3-8.4a9.7 9.7 0 0 0-8.8 0l-16.4 8.4a9.6 9.6 0 0 0-5.2 8.6v18.2c0 3.3 1.7 5.9 3.2 7.2l.1.1A70 70 0 0 0 57.4 83a89.4 89.4 0 0 1-21.3 2.6c-9.4 0-16.5-2.4-21.2-7.2C8.6 72 8.7 63.1 8.7 63v-.1a23.2 23.2 0 0 1 23.2-23.2h3.6l.7-3.5a34.2 34.2 0 0 1 11.6-19.6 34.3 34.3 0 0 1 43.4 0 34 34 0 0 1 11.6 19.6l.7 3.5h3.6a23.2 23.2 0 0 1 23.2 23.2z"/></svg>