<svg xmlns="http://www.w3.org/2000/svg" width="96" height="32"><g fill="none" fill-rule="evenodd"><path fill="#061027" d="M53.378 27.099c2.914.41 4.689-.124 6.063-1.497.863-.862 1.52-1.871 2.099-2.932 2.345-4.291 7.987-14.66 7.987-14.66h-4.065l-4.226 8.494-1.319-8.494h-4.32v.198l2.213 11.76c.112.594.228 2.123-.846 3.11-.602.554-1.47 1.013-2.965.768l-.621 3.253ZM50.139 8.01l-3.929 8.919-.107-.009-.532-8.689h-4.28l-4.172 8.699-.106-.037-.179-8.883h-4.096l.815 14.247h4.433l4.294-9.296.101.018.681 9.277h4.461L53.976 8.01zM73.828 22.257h-4.3c.957-4.804 1.873-9.447 2.83-14.247h3.335v2.621c.446-1.083 1.055-2.091 2.088-2.534 1.013-.434 2.58-.411 4.177.08-.629 1.218-1.108 2.302-1.79 3.62-.614-.121-1.166-.277-1.73-.332-1.263-.126-2.181.378-2.613 1.577-.301.837-.488 1.723-.67 2.598-.457 2.19-.88 4.387-1.327 6.617m13.75-10.859c.615-.747 1.722-1.16 2.544-.903 1.003.314 1.332 1.425.62 2.201a2.45 2.45 0 0 1-.915.608c-1.035.388-2.106.376-3.232.182.19-.826.492-1.491.983-2.088zm5.505 7.318h-.144c-1.647.631-3.474.797-4.734.44-1.391-.395-2.194-1.606-1.941-2.974 4.147.35 5.908-.44 6.853-1.005 2.56-1.531 3.21-5.63-.13-6.843-2.935-1.066-7.023-.559-8.954 1.781-1.76 2.132-2.277 4.477-2.007 7.087.202 1.963 1.549 4.778 5.949 5.217 2.66.266 4.363-.418 4.486-.469l.622-3.234z"/><path fill="#94C5FF" d="M16.474 15.927h9.78l-5.276 12.888a4.75 4.75 0 0 1-4.397 2.95h-9.78l5.276-12.887a4.75 4.75 0 0 1 4.397-2.951"/><path fill="#1A32AF" d="m26.254 15.927-5.922 7.53c-.897 1.196-2.256 1.973-3.853 1.973H9.395l2.69-6.556a4.75 4.75 0 0 1 4.395-2.947h9.774Z"/><path fill="#0092FF" d="M13.232 8.005h9.78l-5.277 12.889a4.75 4.75 0 0 1-4.396 2.95H3.56l5.276-12.888a4.75 4.75 0 0 1 4.397-2.95"/><path fill="#1A32AF" d="m23.012 8.006-5.922 7.53c-.897 1.196-2.256 1.973-3.853 1.973H6.153l2.69-6.556a4.75 4.75 0 0 1 4.395-2.947h9.774Z"/><path fill="#05F" d="M9.99.076h9.78l-5.277 12.889a4.75 4.75 0 0 1-4.396 2.95H.317L5.593 3.027A4.75 4.75 0 0 1 9.99.077"/></g></svg>