<svg xmlns="http://www.w3.org/2000/svg" width="169.736" height="169.736"><path d="M169.734.001H56.58V56.58H0v113.156h113.156v-56.578h56.577V.001" fill="#fff"/><path d="M0 113.157V56.58h56.579H0v56.578" fill="#aee5f5"/><path d="M113.157 169.735H56.58v-56.578H0V56.58h56.58v56.578h56.578v56.578" fill="#fff"/><path d="M113.157 169.735H56.58v-56.578H0V56.58h56.58v56.578h56.578v56.578" fill="#aee5f5"/><path d="M0 169.735h56.58v-56.578H0z" fill="#457dc8"/><path d="M169.736 113.157l-.002-56.578h.002v56.578M113.157.001H56.58h56.578" fill="#34bde9"/><path d="M169.736 113.157h-56.579V56.58H56.58V0h56.578v56.58h56.579l-.002 56.578" fill="#fff"/><path d="M169.736 113.157h-56.579V56.58H56.58V0h56.578v56.58h56.579l-.002 56.578" fill="#34bde9"/><path d="M56.58 113.157h56.577V56.58H56.58z" fill="#fff"/><path d="M56.58 113.157h56.577V56.58H56.58z" fill="#34bde9"/><path d="M169.734 56.579h-56.577V0h56.577v56.58" fill="#457dc8"/></svg>