<svg xmlns="http://www.w3.org/2000/svg" viewBox="0 0 90 90"><path fill="#0092ff" fill-rule="nonzero" d="M78.489 64.418c-2.307 3.999-6.075 6.951-10.513 8.236.634-2.175.958-4.429.962-6.695 0-11.283-7.784-20.747-18.233-23.324 2.166-2.116 4.841-3.64 7.766-4.426 4.559-1.24 9.425-.596 13.503 1.786 8.498 4.93 11.42 15.885 6.514 24.422M45.01 83.836c-4.648 0-9.07-1.855-12.35-5.022a23.74 23.74 0 0 0 6.245-2.515c9.723-5.64 13.989-17.139 10.992-27.516a17.89 17.89 0 0 1 12.908 17.176c0 9.856-7.984 17.877-17.795 17.877M11.529 64.418c-2.324-4.044-2.925-8.809-1.839-13.241a24.09 24.09 0 0 0 5.286 4.163c3.621 2.107 7.736 3.216 11.926 3.216 6.533-.006 12.78-2.677 17.294-7.395 1.867 7.54-1.333 15.727-8.356 19.801-2.692 1.567-5.752 2.392-8.868 2.391-6.379.003-12.271-3.407-15.443-8.935m0-38.837c2.307-4 6.075-6.951 10.514-8.236a24.01 24.01 0 0 0-.964 6.696c0 11.277 7.781 20.738 18.224 23.319-5.567 5.404-14.232 6.719-21.259 2.642a17.75 17.75 0 0 1-8.292-10.857c-1.235-4.578-.595-9.459 1.777-13.565M45.01 6.162c4.65 0 9.067 1.853 12.345 5.018-2.189.542-4.29 1.39-6.242 2.519-5.537 3.212-9.497 8.396-11.15 14.599-1.133 4.238-1.081 8.705.151 12.916-7.437-2.143-12.9-9.024-12.9-17.173 0-9.858 7.983-17.879 17.796-17.879m33.479 19.419c2.326 4.05 2.929 8.819 1.836 13.257-1.554-1.635-3.332-3.042-5.282-4.179-5.537-3.21-11.985-4.063-18.16-2.401-4.227 1.138-8.057 3.42-11.066 6.596a17.86 17.86 0 0 1 .073-8.961c1.229-4.612 4.173-8.468 8.291-10.857a17.61 17.61 0 0 1 13.503-1.786c4.591 1.236 8.428 4.195 10.806 8.33m5.313-3.08c-3.196-5.562-8.356-9.54-14.532-11.202-1.46-.391-2.953-.643-4.46-.754C60.38 4.002 52.945 0 45.01 0c-8.218 0-15.48 4.185-19.79 10.542-7.86.581-15.033 5.05-19.002 11.957a23.98 23.98 0 0 0-2.393 18.244A24.35 24.35 0 0 0 5.406 45c-3.426 7.127-3.158 15.596.81 22.5 4.109 7.149 11.344 11.369 18.979 11.942C29.624 85.991 37.074 90 45.009 90c8.217 0 15.479-4.186 19.789-10.544 7.86-.581 15.033-5.048 19.003-11.956 4.11-7.15 4.131-15.56.805-22.488 3.43-7.13 3.164-15.603-.805-22.511"/></svg>