<svg xmlns="http://www.w3.org/2000/svg" viewBox="0 0 78.3 75.423" style="background:#4086ea"><path d="M39.2 30.496c-.4 0-.8-.385-.9-.866L36.6 8.946C36.1 3.56 37.2 0 39.2 0c2.1 0 3.1 3.56 2.6 8.947L40.1 29.63c-.1.577-.5.866-.9.866zM39.2 44.927c.4 0 .8.385.9.866l1.7 20.684c.5 5.387-.6 8.947-2.6 8.947-2.1 0-3.1-3.56-2.6-8.947l1.7-20.684c0-.577.4-.866.9-.866zM46.6 37.711c0-.385.4-.77.9-.866L69 35.21c5.6-.481 9.3.577 9.3 2.501 0 2.02-3.7 2.982-9.3 2.501l-21.5-1.635c-.5-.096-.9-.481-.9-.866zM31.7 37.711c0 .385-.4.77-.9.866L9.3 40.212c-5.6.481-9.3-.577-9.3-2.501 0-2.02 3.7-2.982 9.3-2.501l21.5 1.635c.5.096.9.481.9.866zM47.6 27.61c-.3-.289-.4-.77-.2-1.058l9.8-11.833c2.5-3.079 5.2-4.233 6.6-2.79 1.5 1.443.3 3.944-2.9 6.35l-12.3 9.427c-.2.289-.7.192-1-.096zM29.1 45.408c.3.289.4.77.2 1.058L19.5 58.3c-2.5 3.079-5.2 4.233-6.6 2.79-1.5-1.443-.3-3.944 2.9-6.35l12.3-9.427c.2-.289.7-.192 1 .096zM47.6 45.408c.3-.289.8-.385 1.1-.192L61 54.643c3.2 2.405 4.4 5.003 2.9 6.35-1.5 1.443-4.1.288-6.6-2.79L47.5 46.37c-.3-.192-.2-.674.1-.962zM29.1 27.61c-.3.289-.8.385-1.1.192l-12.3-9.427c-3.2-2.405-4.4-5.003-2.9-6.35 1.5-1.443 4.1-.288 6.6 2.79l9.8 11.833c.3.192.2.674-.1.962z" fill="#fff"/></svg>