<svg width="600" height="540" viewBox="0 0 600 540" fill="none" xmlns="http://www.w3.org/2000/svg"><path d="M61.2514 479.217C44.3351 479.217 29.8249 473.271 17.721 461.378C5.76287 449.339 -0.143195 434.731 0.00263551 417.553C-0.143195 400.816 5.76287 386.501 17.721 374.608C29.8249 362.716 44.3351 356.77 61.2514 356.77C77.2927 356.77 91.4382 362.716 103.688 374.608C116.083 386.501 122.354 400.816 122.5 417.553C122.354 429.005 119.365 439.429 113.531 448.825C107.844 458.075 100.407 465.489 91.2195 471.069C82.0322 476.501 72.0428 479.217 61.2514 479.217ZM61.2514 251.941C44.3351 251.941 29.8249 245.995 17.721 234.103C5.76287 222.064 -0.143195 207.455 0.00263551 190.277C-0.143195 173.54 5.76287 159.225 17.721 147.333C29.8249 135.44 44.3351 129.494 61.2514 129.494C77.2927 129.494 91.4382 135.44 103.688 147.333C116.083 159.225 122.354 173.54 122.5 190.277C122.354 201.729 119.365 212.153 113.531 221.55C107.844 230.799 100.407 238.214 91.2195 243.793C82.0322 249.225 72.0428 251.941 61.2514 251.941Z" fill="url(#paint0_linear_8_5)"/><path d="M376.945 0L232.573 540H130.2L274.572 0H376.945Z" fill="url(#paint1_linear_8_5)"/><path d="M600 0L455.628 540H353.255L497.627 0H600Z" fill="url(#paint2_linear_8_5)"/><defs><linearGradient id="paint0_linear_8_5" x1="954.5" y1="-4.42534e-06" x2="-457.5" y2="-0.676256" gradientUnits="userSpaceOnUse"><stop stop-color="#FF8040"/><stop offset="0.911458" stop-color="#522DF2"/></linearGradient><linearGradient id="paint1_linear_8_5" x1="954.5" y1="-4.42534e-06" x2="-457.5" y2="-0.676256" gradientUnits="userSpaceOnUse"><stop stop-color="#FF8040"/><stop offset="0.911458" stop-color="#522DF2"/></linearGradient><linearGradient id="paint2_linear_8_5" x1="954.5" y1="-4.42534e-06" x2="-457.5" y2="-0.676256" gradientUnits="userSpaceOnUse"><stop stop-color="#FF8040"/><stop offset="0.911458" stop-color="#522DF2"/></linearGradient></defs></svg>