<svg xmlns="http://www.w3.org/2000/svg" width="156.094" height="156.094" viewBox="0 0 41.3 41.3"  xmlns:v="https://vecta.io/nano"><path d="M17.4 23.9l-.384-.045v.44l.397.05c.24.03.357-.016.357-.18s-.116-.233-.37-.265m7.6 1.8c-.288-.08-.482.098-.482.426a.67.67 0 0 0 .484.688c.294.08.48-.098.48-.423a.68.68 0 0 0-.482-.685M13.2 24.5l-.458.056v.437l.447-.053c.265-.032.368-.085.368-.265s-.116-.2-.357-.177m14 1.702l-.386-.077v.442l.397.077c.24.048.357 0 .357-.15s-.116-.243-.368-.3M8.9 24.8l-.384.156v.442l.397-.16c.24-.095.357-.204.357-.365s-.116-.172-.37-.07m4.6-.903c0-.135-.1-.16-.296-.135l-.468.058v.34l.505-.06c.172-.02.265-.093.265-.206M10.9 24.2c-.298.086-.496.366-.48.675 0 .33.185.508.484.434a.66.66 0 0 0 .476-.672c0-.328-.188-.5-.482-.437M29.3 26.5l-.384-.02v.442l.397.02c.24 0 .357-.042.357-.206s-.116-.225-.37-.238" fill="#fff"/><path d="M39.9 16.1l1.4.08-1.24-5.22h-17.9l-2.03 3.9-1.87-3.9H1.16L-.01 16.1l1.4-.045.02 6.55-1.36.447 1.38 4.92 2.6-1.34 1.6-.61.087.17c.484.966.5 2 .45 2.87l-.032.577.558.15.614.16c.198.047.4.078.603.093.533.015 1.07-.033 1.6-.143.51-.11 1-.29 1.47-.53l.53-.265.18-.093c1.76-.53 2.65-.304 3.26-.106l1.13.4-.508-1.65a24.16 24.16 0 0 1 2.65.286c2.4.38 5.03 1.43 6 1.7a23.32 23.32 0 0 0 5.32.812c2.46.082 4.88-.562 6.98-1.85l.683-.44-2.03-2.4c1.43-.07 1.42-.156 2.3-.43a3.74 3.74 0 0 0 1.87-1.83c.314-.698.494-1.45.53-2.2.045-.64.034-1.32.034-2.05" fill="#b3b4b3"/><path d="M34.1 24.5l-.222.087a12.79 12.79 0 0 1-2.63.746c-2.07.193-4.1-.198-5.93-.712l-4.67-1.46a28.32 28.32 0 0 0-4.68-.757c-2.85-.2-4.88.177-6.18.56h-.024c-1.55.455-2.38.828-3.15 1.5l-.098.085.085.1.233.265c.056.062.107.127.153.196a5.08 5.08 0 0 1 .381.794c.284.574.406 1.2.352 1.85v.238l.206-.124c.837-.538 1.75-.954 2.7-1.24 2.08-.65 4.95-.556 7.58-.29a15.73 15.73 0 0 1 2.63.529l2.7.823c1.85.572 3.88 1.12 6.3 1.2 1.2.055 2.37-.102 3.5-.463a6.51 6.51 0 0 0 .931-.394l.434-.243.148-.08" fill="#e51937"/><path d="M39.5 11.6h-17l-2.45 4.65-2.26-4.65H1.6l-.86 3.8 1.23-.034v7.67a.92.92 0 0 1-.28.122l-.9.3.98 3.5s.974-.548 1.92-.952a21.3 21.3 0 0 1 2.21-.794c.138.207.262.423.373.646.57 1.14.574 2.34.53 3.22.942.265 1.1.336 2.5.1.825-.14 1.9-.794 2.12-.857 1.88-.558 2.6-.46 3.55-.032l-.495-1.38c1.27.01 2.53.12 3.78.328 2.43.386 5.08 1.44 6.1 1.7a22.96 22.96 0 0 0 5.16.794c2.3.07 4.58-.536 6.55-1.74l-1.6-1.88.193-.995c2 .063 3.37-.545 4.03-1.92a5.45 5.45 0 0 0 .458-1.97c.042-.624.032-1.3.032-2v-3.85l1.22.07m-5.64 12.3l-.148.08-.434.243c-.3.156-.61.288-.93.394-1.13.36-2.32.518-3.5.463-2.42-.063-4.44-.614-6.3-1.2l-2.7-.823a15.69 15.69 0 0 0-2.63-.529c-2.63-.265-5.5-.36-7.58.29-.955.282-1.86.698-2.7 1.24l-.206.124V27.8c.054-.638-.067-1.28-.352-1.85a5.08 5.08 0 0 0-.381-.794 1.87 1.87 0 0 0-.153-.196l-.233-.265-.085-.1.098-.085c.775-.675 1.6-1.06 3.15-1.5h.024c1.3-.384 3.33-.762 6.18-.56 1.58.12 3.15.375 4.7.76 1.22.296 2.84.937 4.68 1.46s3.87.905 5.93.712c2.07-.322 2.84-.833 2.84-.833l-.38 1.96z" fill="#152048"/><path d="M34.6 12.6l-.413 1.52c.717.024.95.206.95.94l-.08 5.52a1.5 1.5 0 0 1-.492 1.19c-.265.196-.72.204-1.03.204-2.48-.38-2.35-2.45-2.35-2.45l.048-4.67a3.23 3.23 0 0 1 .127-.643c.185-.175.53-.17.773-.16l-.34-1.46h-8.3l-3.46 6.35-3.2-6.35h-3.54l-.402 1.32c.61-.013.95.056.95.746v5.85a.69.69 0 0 1-.59.794c-1.53-.026-.344-2.65-2.87-3.02 1.17-.53 2.2-1.4 2.2-2.78 0-2.38-2.57-2.93-4.6-2.93h-5.5l-.392 1.74h.146c.667 0 .818.302.818.92v7.67c0 .688-.36.97-.968 1.18l.394 1.4 2.8-1.1-.024-.013a7.53 7.53 0 0 1 1.78-1.27l.164-.688a1.85 1.85 0 0 1-.466.071c-.45 0-.49-.35-.49-.714v-2.22a8.14 8.14 0 0 1 1.35-.201c.876 0 1.12.632 1.3 1.37a12.7 12.7 0 0 0 .434 1.49l.146-.037a22 22 0 0 1 7.83-.413l.228-.728h-.138c-.55 0-.794-.116-.794-.71l-.02-3.1 2.34 4.37 2.3.034 2.15-4.14c0 .56.06 3.23-.25 3.47a1.21 1.21 0 0 1-.775.132l.323 1.2 4.23.362.368-1.17c-.624-.066-.942-.196-.942-.873l.098-5.92c-.02-.218.052-.434.198-.598.154-.11.34-.165.53-.16.49.034.72.185.72.794l-.066 4.78c0 2.82 3.06 4.2 5.62 4.48a15.8 15.8 0 0 0 1.59-.611l-.135.688c3.5.045 3.3-2.28 3.3-4.9v-3.7c0-.246-.034-.794.15-.974a1.01 1.01 0 0 1 .781-.177l-.413-1.73m-32.5 5.1v-3.2h1.5c.794.032 1.7.238 1.7 1.3-.003 1.75-1.96 1.75-3.2 1.9z" fill="#fff"/><path d="M7.8 14.5H6.3v3.2c1.24-.16 3.2-.177 3.2-1.9 0-1.06-.892-1.27-1.7-1.3" fill="#152048"/><g fill="#fff"><path d="M9.6 25.9l-.24-.355c.262-.173.422-.464.426-.778 0-.376-.222-.53-.638-.36l-1.12.455v.05c.063 0 .077 0 .077.077v1.63c.007.058-.024.114-.077.14v.05l.6-.246V26.5c-.063 0-.08 0-.08-.074v-.56l.333-.135.265.394c.02.032.045.05.045.085s-.022.065-.05.085v.053l.648-.265v-.05c-.082 0-.127-.05-.188-.143m-.656-.58l-.397.16v-.442l.384-.156c.265-.1.37-.108.37.07s-.124.27-.365.365zm1.945-1.5a1.29 1.29 0 0 0-.95 1.24c0 .56.384.915.95.773a1.29 1.29 0 0 0 .952-1.25c0-.56-.378-.913-.952-.77m0 1.56c-.3.074-.484-.103-.484-.434a.66.66 0 0 1 .48-.675c.294-.074.482.108.482.437a.66.66 0 0 1-.471.672zm2.8-1.053a.53.53 0 0 0 .265-.46c0-.304-.2-.476-.585-.43l-1.16.14v.053c.066 0 .077.026.077.098v1.63c0 .07 0 .1-.077.116v.053l1.12-.138c.444-.056.667-.265.667-.646.012-.197-.12-.373-.312-.418m-.937-.415l.468-.058c.206-.026.296 0 .296.135s-.087.185-.265.206l-.495.05zm.447 1.1l-.447.053V24.6l.458-.056c.24-.032.357.013.357.177s-.1.23-.362.262zM15.9 23.4l-1.46-.05v.053c.066.02.077.04.077.108v1.63c0 .07 0 .087-.077.106v.05l1.46.053c.058 0 .074.016.1.095h.042v-.648H16c-.016.08-.032.095-.1.095l-.926-.034v-.336l.556.02c.06 0 .074.02.1.098h.048v-.6h-.03c-.016.077-.03.093-.1.1l-.556-.02v-.28l.93.034c.058 0 .074.02.1.098h.042v-.648h-.042c-.016.077-.032.095-.1.093M18.1 25.3l-.24-.487c.263-.046.444-.288.415-.553.01-.177-.054-.35-.174-.48a.67.67 0 0 0-.464-.215l-1.12-.138v.053c.066.026.077.045.077.116v1.63c0 .07 0 .087-.077.098v.053l.614.074v-.053c-.066-.026-.08-.045-.08-.116v-.564l.33.042.265.53c.024.033.04.07.048.1 0 .03-.02.048-.053.056v.056l.65.08v-.053c-.085-.032-.127-.114-.188-.24m-.66-.92l-.397-.05v-.44l.397.037c.265.032.37.087.37.265s-.127.217-.37.188z"/><path d="M20.2 24l-1.43-.265c-.058 0-.074-.032-.1-.114h-.045v.65h.045c.016-.074.032-.1.1-.08l.487.095v1.3c0 .07-.016.087-.08.093v.063l.614.12v-.05c-.066-.032-.08-.053-.08-.122v-1.32l.484.095c.058 0 .074.032.1.114h.042v-.66h-.042c-.016.074-.032.1-.1.08m2.705.8c.042.026.064.056.064.085a.17.17 0 0 1-.02.077l-.286.627-.25-.794a.33.33 0 0 1-.024-.087c-.004-.03.024-.045.066-.048v-.053l-.794-.225v.05c.054.02.087.075.08.132v1.63c0 .07-.016.085-.08.085v.053l.53.153v-.053c-.054-.02-.087-.073-.08-.13v-1.3l.53 1.6.556-1.26v1.32c0 .07-.016.085-.08.085v.05l.585.17v-.053a.12.12 0 0 1-.08-.13v-1.64c0-.07 0-.085.08-.085v-.042l-.794-.23M25 25.3c-.572-.153-.952.188-.952.75A1.32 1.32 0 0 0 25 27.31c.566.153.952-.193.952-.754a1.32 1.32 0 0 0-.952-1.26m0 1.56a.67.67 0 0 1-.484-.683c0-.328.193-.505.482-.426a.68.68 0 0 1 .482.685c.003.325-.183.503-.476.43zm2.8.744l-.238-.503c.126-.013.242-.076.32-.176s.113-.227.095-.353a.72.72 0 0 0-.638-.741l-1.12-.22v.053c.053.015.086.068.077.122v1.63c0 .07 0 .087-.077.093v.053l.6.12v-.053c-.054-.014-.088-.067-.08-.122v-.55l.333.063.265.553c.022.035.038.073.045.114 0 .028-.022.052-.05.053v.053l.648.124v-.048c-.082-.04-.124-.127-.188-.265m-.656-.97l-.397-.077v-.437l.386.077c.265.048.368.1.368.3s-.116.198-.357.15zM30 27.8l-.24-.468c.263-.067.44-.315.415-.585a.61.61 0 0 0-.638-.648l-1.12-.07v.053c.066.02.077.042.077.1v1.63c0 .07 0 .1-.077.103v.053l.614.032v-.053c-.066-.02-.08-.04-.08-.1v-.55l.33.02.265.53a.23.23 0 0 1 .048.106c-.001.03-.023.056-.053.06v.05l.65.034v-.053c-.085-.026-.127-.106-.188-.228m-.66-.9l-.397-.02v-.442l.384.02c.265 0 .37.06.37.238s-.1.217-.357.206zM30.6 26.2c.066.013.08.032.08.1v1.62c0 .07 0 .1-.08.114v.05l.614-.042v-.05c-.064-.016-.08-.032-.08-.103v-1.62c0-.07.016-.1.08-.114v-.05l-.614.042m2 .453c-.344.045-.53.087-.53-.063s.146-.24.402-.3c.302-.058.582 0 .582.106v.05l.04.016.198-.558-.04-.016c-.02.05-.04.058-.074.063a2.7 2.7 0 0 0-.725-.019c-.492.095-.794.413-.794.762s.25.482.75.407c.302-.042.497-.085.497.13 0 .138-.14.265-.4.312-.384.074-.683-.032-.683-.164-.002-.01-.002-.023 0-.034l-.04-.016-.225.638.04.016c.024-.042.04-.07.06-.07a1.82 1.82 0 0 0 .839 0c.53-.1.836-.455.836-.833s-.24-.508-.74-.444"/></g></svg>