<svg xmlns="http://www.w3.org/2000/svg" width="512" height="512"><path d="M0 256V0h512v512H0Z" style="fill:#00de61"/><path d="M137.464 426.957c-22.803-2.981-42.725-19.82-50.14-42.379-2.592-7.88-2.667-8.83-3.096-38.856-.242-16.927-.146-32.343.213-34.257 1.304-6.952-.621-6.867 56.006-2.46 27.977 2.178 51.696 4.223 52.708 4.544 2.186.694 2.65 2.544 3.091 12.322.296 6.552.632 7.627 3.025 9.685 3.464 2.98 3.09 2.938 57.229 6.444 25.3 1.638 47.748 3.223 49.884 3.522 2.136.3 5.407.042 7.268-.572 5.642-1.862 6.348-4.53 6.348-23.977v-17.127l-2.75-2.719-2.75-2.72-69.5-5.275c-136.722-10.38-143.665-10.965-147.156-12.424-1.872-.782-4.918-2.935-6.767-4.785-6.804-6.804-6.544-4.19-6.885-69.423-.212-40.591.05-61.496.838-67 3.748-26.164 21.41-46.147 47.042-53.225 5.99-1.654 14.541-1.775 125.428-1.775h119l8.078 2.74c19.14 6.49 33.858 21.235 40.108 40.182 2.63 7.971 2.67 8.522 3.087 41.659l.422 33.58-2.347 2.713-2.348 2.711-52.295-3.957c-33.93-2.568-52.806-4.382-53.75-5.166-1.054-.874-1.456-3.446-1.459-9.334-.005-10.061-1.95-13.99-7.698-15.55-2.089-.566-25.398-2.4-51.798-4.074-26.4-1.675-49.49-3.286-51.312-3.582-4.83-.782-9.961 1.24-11.705 4.612-2.193 4.24-2.138 34.586.068 37.736 3.232 4.613-10.85 3.11 128.949 13.758 47.3 3.602 87.575 6.97 89.5 7.486 4.706 1.26 10.567 6.261 13.28 11.333 2.212 4.138 2.221 4.366 2.531 64.153.216 41.46-.043 62.472-.837 68-4.067 28.31-24.57 49.099-52.666 53.4-8.412 1.287-227.03 1.34-236.844.057z" style="fill:#000301"/></svg>