<svg xmlns="http://www.w3.org/2000/svg" viewBox="0 0 24.06 24"><path d="M12.03 0C5.395 0 0 5.381 0 12c0 6.638 5.395 12 12.03 12s12.03-5.381 12.03-12S18.684 0 12.03 0z" fill="#418ac9"/><path d="M21.203 10.256c.602.694.996 1.613.996 2.625a3.942 3.942 0 0 1-3.947 3.938c-.113 0-.207.018-.32 0H6.58a4.478 4.478 0 0 1-3.214-1.37l-.038.038L11.88 24h.15c6.279 0 11.447-4.8 11.992-10.931z" fill="#3276b2"/><path d="M18.252 16.819c-.113 0-.207.019-.32 0H6.58a4.447 4.447 0 0 1-4.454-4.444c0-1.931 1.24-3.562 2.95-4.181-.15 1.031 0 1.894 0 1.931s.057.15.113.15c.094-.019.094-.15.094-.15-.056-1.031.301-1.95.64-2.606a6.252 6.252 0 0 1 5.488-3.225 6.287 6.287 0 0 1 6.09 4.725c.245-.037.49-.075.752-.075 2.18 0 3.948 1.762 3.948 3.938s-1.767 3.937-3.948 3.937z" fill="#fff"/><path d="M15.808 7.706H8.233c-.357 0-.658.3-.658.656V9.3a.55.55 0 0 0 .075.3c.226.094.432.225.64.356h7.518c.357 0 .658-.3.658-.656v-.938c0-.356-.3-.656-.658-.656zm-.32 1.481h-.094a.288.288 0 0 1-.188.075h-.394c-.075 0-.132-.037-.188-.075h-.715V7.781h1.56v1.406zm.32 1.182h-7.03a3.656 3.656 0 0 1 1.09 2.25h5.94c.357 0 .658-.3.658-.657v-.937c0-.375-.301-.656-.658-.656zm-.32 1.537h-.094a.28.28 0 0 1-.169.075h-.394c-.076 0-.132-.019-.17-.075h-.751V10.5h1.56v1.406zm.32 1.106h-5.526c.019.113.019.207.019.319a1.694 1.694 0 0 1 1.221 1.613c0 .112-.018.206-.037.318h4.323c.357 0 .658-.3.658-.656v-.937c0-.357-.3-.657-.658-.657zm-.32 1.594h-.112c-.038.038-.094.056-.17.056h-.394a.304.304 0 0 1-.17-.056h-.732V13.2h1.56v1.406z" fill="#ccc"/><path d="M15.395 9.956c.376 0 .658.3.658.656v.938c0 .356-.3.656-.658.656H9.794a3.705 3.705 0 0 0-1.504-2.25zm-.338 1.35v-.394a.257.257 0 0 0-.264-.262H14.4a.257.257 0 0 0-.263.262v.394c0 .15.112.263.263.263h.394c.15 0 .264-.113.264-.263zm.338 1.313c.376 0 .658.281.64.656v.937c0 .357-.302.657-.659.657h-3.872a1.75 1.75 0 0 0-1.635-1.575c.018-.094.018-.169.018-.263 0-.15 0-.281-.018-.412zm-.338 1.387v-.394a.257.257 0 0 0-.264-.262H14.4a.257.257 0 0 0-.263.262v.394c0 .15.112.263.263.263h.394c.15 0 .264-.113.264-.263zm.338-6.712c.376 0 .658.3.658.656v.937c0 .357-.3.657-.658.657H7.82a.665.665 0 0 1-.658-.657V7.95c0-.356.3-.656.658-.656zm-.338 1.293v-.393a.257.257 0 0 0-.264-.263H14.4a.257.257 0 0 0-.263.263v.393c0 .15.112.263.263.263h.394c.15 0 .264-.113.264-.263z" fill="#4089c8"/></svg>
