<svg version="1.0" xmlns="http://www.w3.org/2000/svg" fill="#d7153a" width="682.667" height="682.667" viewBox="0 0 512 512"><path d="M241.5 17.1C130.8 23.6 39.1 105.6 19.9 215.5c-7.3 41.5-2.6 88.2 12.7 127.3 22 56.1 63.4 101.3 116.9 127.7 17.4 8.6 30 13.4 45.8 17.4 56.8 14.6 114.3 8.8 166.2-16.9 48.6-24 85.4-60.6 109-108.5 8.7-17.7 13.3-29.9 17.4-46.1 12-47.7 10.2-93-5.6-138.9-21.8-63.3-70.7-115.6-132.4-141.8-33.8-14.4-71.3-20.8-108.4-18.6zM79.6 148.5c10.3 10.9 36.2 64.7 57.5 119.5 6.6 16.9 6.7 17.6 5 19.5-28.4 31.9-51.9 64.4-64.2 88.8l-3.1 6.1-2.5-2.9c-4.3-5.3-16.8-31.7-21.1-44.6-14.5-43.5-19.8-93.2-13.2-122.4 6.2-27.6 20.7-57.9 31.2-65.3 4.4-3 6.5-2.8 10.4 1.3zm109.2 14c4.8 3.4 9.8 15.2 14.6 34 2.8 11.3 5.6 25.6 5.6 28.9 0 1.5-3.9 5.3-14.3 13.8-7.8 6.4-19.5 16.6-26 22.8-11.1 10.6-11.7 11.1-12.6 8.8-14.1-36.5-25.5-64.2-27.5-66.7-2.3-2.9 29.3-30.5 43.7-38.2 9.5-5.1 13-5.8 16.5-3.4zm113.7 42.9c4.3 4.3 6.2 15.5 7.1 43.1 1.3 37.9-3.4 94-11.1 133.6-6.4 32.7-18.1 67.7-29.2 87.6l-3.5 6.3h-13.9c-11.9 0-35.5-2.3-36.8-3.6-.2-.2 1-6.8 2.8-14.6 3.6-16.3 6.5-34.1 8.3-50.8 1.6-15 1.6-56.5 0-70.5-3.9-34-9.4-64.3-14.2-77.9-1.7-4.7-3-8.7-3-8.9 0-1.1 13.2-11 22.2-16.6 12.1-7.6 33.6-18.9 48-25.2 13.4-5.8 19.3-6.4 23.3-2.5zm-105.3 60.7c3.4 6.8 9.6 47.7 11.8 77.4 1.3 18.2 1.3 54.9-.1 69.5-1.9 21.4-7.5 52.8-9.8 55.3-1 1-25-7.3-36.5-12.7-13.1-6.1-26.5-14.2-38.5-23.1-10.7-8-32.8-28.7-35-32.9-1.2-2.2-.9-3.3 4.2-12.9 6.9-13.1 15.8-27.4 25.1-40.4 28.3-39.6 70.2-85.8 76.1-84 .6.2 1.8 1.9 2.7 3.8zM400.4 303c2.1.4 4.6 1.6 5.5 2.4 4.5 4.5-2.8 30.9-15.1 54.9-4.9 9.6-15.7 26.6-21.1 33.2l-2.4 2.9-13.9-6.5c-7.7-3.7-19.2-8.8-25.7-11.4-9.1-3.7-11.6-5.1-11.3-6.4 2.5-8.4 6.4-37.9 7.3-54.4.4-9.5 1-13 2-13.4 4.3-1.7 68.4-2.8 74.7-1.3zm-70.3 92.9c27.2 11.2 53.1 23.5 56.4 26.8 2.8 2.7 1.8 7.2-2.2 11-14.2 12.9-41.1 26.6-67.4 34.2-11 3.2-30.4 6.9-31.4 6-.3-.3 1.3-4.6 3.6-9.5 9.2-19.8 17.5-44.5 22.3-66.7 1.1-4.7 2.2-7.7 3-7.7.7 0 7.8 2.7 15.7 5.9z"/></svg>