<svg xmlns="http://www.w3.org/2000/svg" id="Layer_1" data-name="Layer 1" version="1.1" width="119" height="119"><defs id="defs15256"><style id="style15254">.cls-4{fill:#e10019}</style></defs><g id="Gruppe_59" data-name="Gruppe 59" transform="translate(0 31.982)"><path id="Pfad_1" data-name="Pfad 1" d="M123.39 57.64l.3-.1v2.8c-23.3 6.5-40.1 4.7-63.5.1-20.1-4-35.4-6.9-55.5 0v-2.8c20.2-6.7 36-3.8 56 .2 22.8 4.5 39.6 6.4 62.7-.2z" transform="translate(-4.69 -9.54)" fill="#005ca9"/><path id="Pfad_2" data-name="Pfad 2" class="cls-4" d="M89.59 58.44l-.1-8.8a4.74 4.74 0 00-4.8-4.8 4.72 4.72 0 00-4.8 4.7v8.1c-5.1-.6-10.1-1.5-15.1-2.4a62.31 62.31 0 003.7-17H101a67.63 67.63 0 004.4 19.8 104.27 104.27 0 01-15.8.4z" transform="translate(-4.69 -9.54)" fill="#e10019"/><path id="Pfad_3" data-name="Pfad 3" class="cls-4" d="M75.09 18.84h-1.8l-.8 1.6-.8-1.6h-1.8l.9-1.5-.9-1.5h1.8l.8-1.6.8 1.6h1.8l-.8 1.5z" transform="translate(-4.69 -9.54)" fill="#e10019"/><path id="Pfad_4" data-name="Pfad 4" class="cls-4" d="M99.49 18.84h-1.7l-.9 1.6-.8-1.6h-1.8l.9-1.5-.9-1.5h1.8l.8-1.6.9 1.6h1.7l-.8 1.5z" transform="translate(-4.69 -9.54)" fill="#e10019"/><path id="Pfad_5" data-name="Pfad 5" class="cls-4" d="M80.29 19.44v-.1a4.48 4.48 0 013.4-4.3v-1.8H82v-1.8h1.6v-1.9h2v1.9h1.6v1.8h-1.6v1.9a4.41 4.41 0 013.5 4.4h1.6v2.3h-1.9V34H93V21.74h7.7v12.2h2.4v2.4h-37v-2.4h2.4v-12.2h7.7v12.2h4.2v-12.2h-1.9v-2.3z" transform="translate(-4.69 -9.54)" fill="#e10019"/></g></svg>