<svg xmlns="http://www.w3.org/2000/svg" viewBox="0 0 512 512"><circle cx="256" cy="256" r="256" fill="#d7153a"/><path fill="#fff" d="M79.6 148.5c10.3 10.9 36.2 64.7 57.5 119.5 6.6 16.9 6.7 17.6 5 19.5-28.4 31.9-51.9 64.4-64.2 88.8l-3.1 6.1-2.5-2.9a247.6 247.6 0 0 1-21.1-44.6C36.7 291.4 31.4 241.7 38 212.5c6.2-27.6 20.7-57.9 31.2-65.3 4.4-3 6.5-2.8 10.4 1.3zm109.2 14c4.8 3.4 9.8 15.2 14.6 34a225 225 0 0 1 5.6 28.9c0 1.5-3.9 5.3-14.3 13.8a563.8 563.8 0 0 0-26 22.8c-11.1 10.6-11.7 11.1-12.6 8.8a841.5 841.5 0 0 0-27.5-66.7c-2.3-2.9 29.3-30.5 43.7-38.2 9.5-5.1 13-5.8 16.5-3.4zm113.7 42.9c4.3 4.3 6.2 15.5 7.1 43.1 1.3 37.9-3.4 94-11.1 133.6-6.4 32.7-18.1 67.7-29.2 87.6l-3.5 6.3h-13.9c-11.9 0-35.5-2.3-36.8-3.6-.2-.2 1-6.8 2.8-14.6a480 480 0 0 0 8.3-50.8c1.6-15 1.6-56.5 0-70.5-3.9-34-9.4-64.3-14.2-77.9-1.7-4.7-3-8.7-3-8.9 0-1.1 13.2-11 22.2-16.6a441.5 441.5 0 0 1 48-25.2c13.4-5.8 19.3-6.4 23.3-2.5zm-105.3 60.7c3.4 6.8 9.6 47.7 11.8 77.4 1.3 18.2 1.3 54.9-.1 69.5-1.9 21.4-7.5 52.8-9.8 55.3-1 1-25-7.3-36.5-12.7a227 227 0 0 1-38.5-23.1c-10.7-8-32.8-28.7-35-32.9-1.2-2.2-.9-3.3 4.2-12.9a360.8 360.8 0 0 1 25.1-40.4c28.3-39.6 70.2-85.8 76.1-84 .6.2 1.8 1.9 2.7 3.8zM400.4 303c2.1.4 4.6 1.6 5.5 2.4 4.5 4.5-2.8 30.9-15.1 54.9a253.9 253.9 0 0 1-21.1 33.2l-2.4 2.9-13.9-6.5a507 507 0 0 0-25.7-11.4c-9.1-3.7-11.6-5.1-11.3-6.4 2.5-8.4 6.4-37.9 7.3-54.4.4-9.5 1-13 2-13.4 4.3-1.7 68.4-2.8 74.7-1.3zm-70.3 92.9c27.2 11.2 53.1 23.5 56.4 26.8 2.8 2.7 1.8 7.2-2.2 11-14.2 12.9-41.1 26.6-67.4 34.2-11 3.2-30.4 6.9-31.4 6-.3-.3 1.3-4.6 3.6-9.5a335 335 0 0 0 22.3-66.7c1.1-4.7 2.2-7.7 3-7.7.7 0 7.8 2.7 15.7 5.9z"/></svg>