<svg xmlns="http://www.w3.org/2000/svg" width="41.756" height="41.756"><path d="M21.306 2.297a67.546 67.546 0 00-3.522.659c-.773.163-1.545.315-2.308.506-.704.177-1.426.334-2.116.552a33.98 33.98 0 00-1.977.675A12.68 12.68 0 007.866 6.74c-.64.534-1.237 1.114-1.738 1.783a12.6 12.6 0 00-.933 1.497c-.267.497-.45 1.086-.456 1.656-.01 1.676 1.062 3.08 2.295 4.122.405.34.836.654 1.273.953 1.297.89 2.709 1.672 4.143 2.353 1.48.7 2.97 1.372 4.478 2.012 1.426.603 2.883 1.113 4.354 1.6l1.274.415c1.333.44 2.695.847 4.018 1.324.824.296 1.702.573 2.525.943.855.384 1.743.767 2.497 1.319a4.63 4.63 0 011.264 1.347c.317.522.515 1.12.529 1.73a2.886 2.886 0 01-.47 1.652c-.827 1.285-2.266 2.16-3.654 2.745a59.954 59.954 0 01-6.36 2.253c-1.232.359-2.464.715-3.705 1.036-1.246.322-2.516.66-3.775.974-1.255.314-2.51.597-3.77.867-.722.153-1.45.304-2.166.453-.432.086-.855.177-1.288.27-.901.195-1.802.388-2.707.58-1.03.226-2.06.445-3.09.669-.3.065-.598.144-.897.21-.267.06-1.264.29-.524.247 1.03-.056 3.78-.295 9.655-1.076 2.13-.35 4.267-.65 6.4-.996a114.42 114.42 0 007.918-1.555 67.95 67.95 0 002.24-.566c.492-.136.979-.277 1.462-.427 2.06-.634 5.365-1.754 6.147-2.092 2.989-1.3 4.85-2.278 5.82-4.608.332-.827.488-1.753.387-2.64a5.972 5.972 0 00-.804-2.338c-.41-.675-.97-1.251-1.555-1.783-1.09-.986-2.312-1.782-3.618-2.457a22.905 22.905 0 00-1.126-.545 50.831 50.831 0 00-1.426-.618 33.808 33.808 0 00-2.046-.756c-1.793-.61-3.614-1.154-5.416-1.738a38.353 38.353 0 01-3.017-1.103 23.41 23.41 0 01-1.236-.554 19.31 19.31 0 01-1.403-.752c-.565-.34-1.49-.922-1.232-1.715.18-.565.8-.785 1.306-.988.469-.188.965-.32 1.453-.447 1.49-.38 3.01-.636 4.515-.954a72.59 72.59 0 001.324-.29c1.173-.273 2.382-.477 3.5-.918.96-.375 2.192-.974 2.55-2.02.516-1.523-.07-3.17-.91-4.455a44.62 44.62 0 00-.937-1.365c-.442-.613-.93-1.19-1.407-1.774-.216-.265-.48-.245-.7-.177-.294.1-1.098 1.034-7.521 2.253" fill="#c00" fill-rule="evenodd"/></svg>