<svg xmlns="http://www.w3.org/2000/svg" xmlns:xlink="http://www.w3.org/1999/xlink" viewBox="0 0 161.6 199.6"><linearGradient id="a" x1="76.9" x2="44.4" y1="136.1" y2="97.5" gradientUnits="userSpaceOnUse"><stop offset="0" stop-color="#ce5dcb"/><stop offset=".2" stop-color="#c558cc"/><stop offset=".6" stop-color="#ac4acf"/><stop offset="1" stop-color="#8534d4"/><stop offset="1" stop-color="#8333d4"/></linearGradient><path fill="url(#a)" d="M13.5 134.2c18 18 47.4 18 65.4 0l1.7-1.7c9-9-9-56.4 0-65.4l-67 67.1z"/><linearGradient id="b" x1="78" x2="147.7" y1="92.1" y2="92.1" gradientUnits="userSpaceOnUse"><stop offset="0" stop-color="#ff5667"/><stop offset=".7" stop-color="#fc8b82"/><stop offset="1" stop-color="#fba28e"/></linearGradient><path fill="url(#b)" d="M82.4 65.4 80.6 67c-9 9 9 56.3 0 65.4l67.1-67.1a46 46 0 0 0-65.3 0"/><defs><path id="c" d="M13.5 68.8c-18 18-18 47.4 0 65.4l68.9-68.8c18-18 18-47.4 0-65.4L13.5 68.8z"/></defs><linearGradient id="d" x1="0" x2="95.9" y1="67.1" y2="67.1" gradientUnits="userSpaceOnUse"><stop offset="0" stop-color="#00b874"/><stop offset=".5" stop-color="#29d3a2"/><stop offset=".7" stop-color="#53dfb6"/><stop offset="1" stop-color="#9ff4d9"/></linearGradient><use xlink:href="#c" fill="url(#d)" overflow="visible"/><linearGradient id="e" x1="65.4" x2="161.3" y1="132.5" y2="132.5" gradientUnits="userSpaceOnUse"><stop offset="0" stop-color="#fcd77e"/><stop offset=".5" stop-color="#fea500"/><stop offset="1" stop-color="#ff5b00"/></linearGradient><path fill="url(#e)" d="M78.9 134.2c-18 18-18 47.3 0 65.4l68.8-68.9c18-18 18-47.3 0-65.3L79 134.2z"/></svg>
