<svg xmlns="http://www.w3.org/2000/svg" width="66.552" height="66.552"><path d="M33.276 0C14.914 0 0 14.914 0 33.276c0 18.362 14.914 33.276 33.276 33.276 18.362 0 33.276-14.914 33.276-33.276C66.552 14.914 51.638 0 33.276 0zm18.06 26.466c3.147 8.362-.43 14.87-.43 14.87l-7.2-3.233c-1.465.345-3.577.216-3.577.216 6.638-3.62 11.81-26.035 11.81-26.035.561 5.13-.603 14.182-.603 14.182zM36.293 14.052c8.836 1.465 12.673 7.801 12.673 7.801l-6.38 4.613c-.43 1.422-1.595 3.19-1.595 3.19.173-7.5-16.638-23.19-16.638-23.19 4.699 2.068 11.94 7.586 11.94 7.586zm-30.56 13.19c4.051-3.018 12.327-6.423 12.327-6.423 5.56-6.81 12.888-6.897 12.888-6.897l.862 7.802c1.035 1.078 1.983 2.974 1.983 2.974-6.38-3.922-28.06 2.543-28.06 2.543zm8.965 12.93c-3.146-8.362.431-14.87.431-14.87l7.199 3.232c1.422-.344 3.577-.215 3.577-.215-6.638 3.62-11.767 26.034-11.767 26.034-.604-5.129.56-14.18.56-14.18zm15.173 12.371c-8.837-1.465-12.673-7.845-12.673-7.845l6.38-4.612c.43-1.422 1.594-3.19 1.594-3.19C25 44.44 41.81 60.13 41.81 60.13c-4.698-2.069-11.94-7.586-11.94-7.586zm18.362-6.853c-5.69 6.896-13.104 7.069-13.104 7.069l-.819-7.845c-1.034-1.078-1.982-2.974-1.982-2.974 6.465 3.922 28.405-2.802 28.405-2.802-4.095 3.017-12.5 6.552-12.5 6.552z" fill="#c30631"/></svg>