<svg xmlns="http://www.w3.org/2000/svg" viewBox="0 0 1200 1200"><g id="Background"><path d="M133,0h935a133.07,133.07,0,0,1,133,133v935a133.07,133.07,0,0,1-133,133H133A133.07,133.07,0,0,1,0,1068V133A133.07,133.07,0,0,1,133,0Z" style="fill:#3e37ff;fill-rule:evenodd"/></g><g id="Text"><g style="isolation:isolate"><g style="isolation:isolate"><path d="M492.8,1040c-22.8,0-49.2-5.7-62.4-12l6.6-29.7c18.6,5.7,36.6,9.3,56.4,9.3,27.3,0,31.8-5.7,31.8-24.9,0-22.2-.6-24-36.6-31.8-48.3-10.8-54.9-20.1-54.9-62.4,0-36.3,16.5-54.3,67.2-54.3a272.64,272.64,0,0,1,58.2,6.6l-4.2,31.8a262.38,262.38,0,0,0-53.4-6c-25.5,0-30,5.4-30,22.8,0,22.8.6,23.4,35.1,31.8,53.7,12.9,56.4,21.6,56.4,61.5C563,1020.5,551.9,1040,492.8,1040Z" style="fill:#fff"/><path d="M600.5,1037V837.2H724.1v33.3H638.3v53.1h79.2v33.3H638.3V1037Z" style="fill:#fff"/><path d="M797.9,870.5H742.09V837.2H891.5v33.3H835.7V1037H797.9Z" style="fill:#fff"/><path d="M921.49,837.2h78c46.2,0,63.3,18.9,63.3,54v27.3c0,34.8-18.6,53.7-65.1,53.7h-38.4V1037h-37.8Zm75.9,33.3h-38.1v68.4h38.1c21.3,0,27.6-7.8,27.6-24.3V894.2C1025,877.7,1018.09,870.5,997.39,870.5Z" style="fill:#fff"/></g></g></g></svg>