<svg xmlns="http://www.w3.org/2000/svg" style="background:#a6192f" viewBox="0 0 300 150"><path fill="#fff" d="M145.5 77.1c-6.8 3.5-9.5 8.2-9.5 16.2 0 7.6 2.8 10.8 14 16.4 10.8 5.4 14 8.4 14 13.2 0 10-13.3 13.6-24.3 6.6l-4.5-2.8-.6 2.6a97.6 97.6 0 0 1-1.2 4.9c-.5 2 0 2.3 4.7 3.7 7.2 2.2 17.4 2 22.4-.3a18.4 18.4 0 0 0 11.5-18.1c0-6.6-3.8-10.9-14.4-16.2-10.8-5.3-13.6-8-13.6-13 0-8.4 8.2-11.2 18.6-6.4l5.2 2.4.5-2.6c.3-1.5.8-3.4 1.2-4.3 1.4-3.6-18-5.4-24-2.3m41.5 28.6c0 16.3-.3 30.3-.6 31.2-.5 1.3.3 1.6 5 1.6h5.6l-.7-14-.6-14H218v-3c0-1.5.2-3.4.5-4.2.4-1-1.5-1.3-10.5-1l-11 .4V83.2l11.5.7 11.5.6v-3c0-1.5.2-3.4.5-4.2.4-1-2.7-1.3-16.5-1.3h-17v29.7M235.8 91c.6 38 .4 35.8 3.5 39.8 5 6.5 9.5 8.2 22.2 8.2 12.3 0 16.8-1.6 21.8-7.5 3.4-4 3.6-5.4 4.2-32.5l.5-23h-8.6v23.5c.1 27 0 27.6-8.1 31.2a25.5 25.5 0 0 1-19.7-.7c-6.4-3-6.8-5.3-6.4-31.4l.3-22.6h-5l-5-.1.3 15"/></svg>
