<svg width="301" height="301" style="position:relative;width:301px;height:301px;margin:auto;user-select:none;cursor:default" xmlns="http://www.w3.org/2000/svg">
  <g fill-rule="evenodd">
    <path d="M145.502 151.575c-6.771 3.531-9.502 8.2-9.502 16.245 0 7.545 2.769 10.784 14.03 16.414 10.805 5.401 13.97 8.389 13.97 13.187 0 9.979-13.265 13.602-24.263 6.627l-4.523-2.868-.583 2.66a97.625 97.625 0 0 1-1.206 4.842c-.551 1.931-.015 2.362 4.658 3.75 7.231 2.147 17.392 1.999 22.417-.328 7.745-3.585 11.5-9.507 11.5-18.134 0-6.617-3.766-10.835-14.418-16.147C146.84 172.467 144 169.736 144 164.767c0-8.406 8.219-11.206 18.644-6.352l5.144 2.395.536-2.655c.295-1.46.818-3.383 1.162-4.272 1.369-3.537-18.044-5.405-23.984-2.308M187 180.168c0 16.318-.273 30.38-.607 31.25-.509 1.326.296 1.582 4.981 1.582h5.589l-.637-14-.637-14H218v-2.918c0-1.605.233-3.525.517-4.267.42-1.094-1.557-1.277-10.5-.971l-11.017.377v-19.526l11.5.657 11.5.657v-2.923c0-1.607.23-3.522.51-4.254.413-1.077-2.745-1.332-16.5-1.332h-17.011l.001 29.668m48.757-14.717c.651 38.004.458 35.839 3.551 39.89 4.944 6.475 9.524 8.159 22.192 8.159 12.301 0 16.847-1.558 21.834-7.486 3.375-4.009 3.553-5.412 4.137-32.514l.496-23h-8.587l.06 23.537c.069 26.935-.106 27.601-8.167 31.166-5.497 2.432-13.748 2.142-19.646-.689-6.396-3.07-6.866-5.353-6.469-31.453l.342-22.561-5-.049-5-.049.257 15.049" fill="#fff"/>
    <path d="M0 150.51v75.496l150.75-.253 150.75-.253.256-75.5.257-75.5-151.007.256L0 75.013v75.497m.475-.01c0 41.8.124 58.754.275 37.676.151-21.078.15-55.278 0-76C.599 91.454.475 108.7.475 150.5m145.027 1.075c-6.771 3.531-9.502 8.2-9.502 16.245 0 7.545 2.769 10.784 14.03 16.414 10.805 5.401 13.97 8.389 13.97 13.187 0 9.979-13.265 13.602-24.263 6.627l-4.523-2.868-.583 2.66a97.625 97.625 0 0 1-1.206 4.842c-.551 1.931-.015 2.362 4.658 3.75 7.231 2.147 17.392 1.999 22.417-.328 7.745-3.585 11.5-9.507 11.5-18.134 0-6.617-3.766-10.835-14.418-16.147C146.84 172.467 144 169.736 144 164.767c0-8.406 8.219-11.206 18.644-6.352l5.144 2.395.536-2.655c.295-1.46.818-3.383 1.162-4.272 1.369-3.537-18.044-5.405-23.984-2.308M187 180.168c0 16.318-.273 30.38-.607 31.25-.509 1.326.296 1.582 4.981 1.582h5.589l-.637-14-.637-14H218v-2.918c0-1.605.233-3.525.517-4.267.42-1.094-1.557-1.277-10.5-.971l-11.017.377v-19.526l11.5.657 11.5.657v-2.923c0-1.607.23-3.522.51-4.254.413-1.077-2.745-1.332-16.5-1.332h-17.011l.001 29.668m48.757-14.717c.651 38.004.458 35.839 3.551 39.89 4.944 6.475 9.524 8.159 22.192 8.159 12.301 0 16.847-1.558 21.834-7.486 3.375-4.009 3.553-5.412 4.137-32.514l.496-23h-8.587l.06 23.537c.069 26.935-.106 27.601-8.167 31.166-5.497 2.432-13.748 2.142-19.646-.689-6.396-3.07-6.866-5.353-6.469-31.453l.342-22.561-5-.049-5-.049.257 15.049" fill="#a6192f"/>
  </g>
</svg>
