<svg xmlns="http://www.w3.org/2000/svg" viewBox="0 0 90 90"><g fill="none" fill-rule="evenodd"><path fill="#1E1E1E" d="M0 0h90v90H0z"/><circle cx="49" cy="42" r="28.25" stroke="#FFF" stroke-width="3.5"/><path fill="#FF8C00" d="M.6 30.24c11.58-1.03 19.33 2.29 23.23 9.97 4.41-4.37 10.87-7.07 19.37-8.09 1.07-5.8-1.66-9.4-8.2-10.82 9.59-1.37 17.25 1.94 22.98 9.93 11.65.6 22.32 6 32.02 16.22-12.12 9.61-23.78 14.45-34.97 14.51-2.75 8.77-7 14.45-12.76 17.04.97-9.31-.14-15.6-3.34-18.87a40.84 40.84 0 01-15.75-7.27C17.73 60.36 10 63.37 0 61.87c7.88-1.8 10.9-6.16 9.1-13.07 1.8-.9 2.72-1.8 2.72-2.7 0-.9-.76-1.66-2.27-2.26 1.51-7.26-1.47-11.8-8.94-13.6z"/><path fill="#8A4C00" d="M55.63 37.66c.15.24.1.56-.13.73-2.37 1.78-3.55 3.42-3.55 4.92 0 1.46.4 3.02 1.21 4.67a.36.36 0 01-.24.52.74.74 0 01-.75-.27A8.48 8.48 0 0150.24 43c0-1.87 1.56-3.7 4.69-5.51a.52.52 0 01.7.17zM51.6 36.5c.2.27.16.65-.09.88-2.26 2.01-3.39 3.76-3.39 5.25 0 1.45.45 3.16 1.34 5.13a.5.5 0 01-.32.69.92.92 0 01-.97-.33 8.6 8.6 0 01-1.75-5.8c.1-2.26 1.54-4.25 4.29-5.98.3-.18.68-.11.89.16z"/><path fill="#FFA217" d="M58.4 44.7c2.63-.43 23.03-.43 25.27-.24 1.5.12 2.84.9 4.04 2.34-11.8 11.3-22.4 15.42-31.8 12.37-1.4-2.59-.15-14.02 2.49-14.46z"/><path fill="#FFF" d="M61.22 45.64c3.01 5.96 6.82 9.43 11.43 10.4-1.46 2.11-5.15 2.97-11.08 2.58a44.86 44.86 0 01-.35-12.98z"/><g transform="translate(64.55 36.18)"><ellipse cx="3.41" cy="3.38" fill="#FFF" rx="3.41" ry="3.38"/><path fill="#000" d="M4.4 6.2c1.26 0 2.28-1.01 2.28-2.26A2.26 2.26 0 004.41 1.7c-.58 0-.06 1.36-.46 1.7-.48.42-1.82-.12-1.82.55A2.26 2.26 0 004.41 6.2z"/></g></g></svg>