<svg xmlns="http://www.w3.org/2000/svg" xml:space="preserve" viewBox="0 0 922.713 334.513"><defs><clipPath id="a" clipPathUnits="userSpaceOnUse"><path d="M0 250.885h692.035V0H0Z"/></clipPath></defs><g clip-path="url(#a)" transform="matrix(1.33333 0 0 -1.33333 0 334.513)"><path fill="#0488c1" d="M215.772 176.668c-8.876 0-22.789-2.56-33.254-9.516v45.113c0 4.407-2.405 6.492-6.358 6.492h-23.532c-3.953 0-6.46-2.085-6.46-6.492V59.907c0-4.325 2.28-6.441 6.46-6.441h23.45c4.282 0 6.44 2.25 6.44 6.44v73.868c0 8.68 10.847 14.16 22.48 14.16 7.296 0 12.673-1.63 15.924-4.83 2.86-2.807 4.221-7.028 4.211-12.55V59.907c0-4.325 2.281-6.441 6.451-6.441h23.45c4.282 0 6.45 2.25 6.45 6.44v70.452c.062 32.418-19.6 46.31-45.712 46.31M81.237 152.46c-26.608 8.494-30.819 13.655-30.819 22.407 0 8.71 8.474 13.242 22.882 13.242 13.551 0 31.954-4.397 38.146-5.75 4.77-1.042 7.04 1.59 7.04 5.213v16.11c.01 3.376-1.157 6.462-6.214 8.155-11.332 3.777-25.286 6.15-43.204 5.903-27.206-.371-55.743-12.086-55.743-45.588 0-24.925 15.213-39.106 48.271-49.344 23.893-7.4 31.716-14.43 31.696-24.058-.02-10.125-8.876-15.771-28.507-15.771-20.487 0-39.643 7.947-47.373 9.846-4.82 1.198-7.235-1.052-7.235-4.861V69.51c0-5.098 3.674-7.214 7.338-8.638.888-.341 21.458-8.722 47.322-8.722h.33c43.72.073 64.93 18.207 65.053 48.447.134 33.027-21.199 43.018-48.983 51.863m532.039 86.039c-1.641.867-4.005 2.002-6.09 2.002-3.478 0-5.377-2.147-5.377-6.068V210.26c0-3.107 1.043-4.944 3.065-6.43 0 0 .61-.454 1.796-1.228 25.978-17.267 41.5-44.05 41.5-77.15 0-33.12-15.522-59.913-41.5-77.16a62.188 62.188 0 0 1-1.796-1.238c-2.022-1.486-3.065-3.334-3.065-6.42V16.453c0-3.922 1.899-6.068 5.377-6.068 2.085 0 4.449 1.125 6.09 2.002 39.994 21.075 68.469 62.37 68.583 113.066-.114 50.676-28.59 91.97-68.583 113.046M353.15 79.965c-1.97-.578-11.135-3.045-21.075-3.045-13.891 0-20.724 5.625-20.724 14.006 0 8.473 5.976 15.161 23.738 15.161 7.359 0 14.057-1.31 18.062-2.889zm-21.22 96.75c-12.57 0-26.163-2.086-35.926-5.058-3.695-1.156-6.131-3.489-6.131-8.03V149.26c-.052-3.344 2.147-6.089 8.143-4.727 7.029 1.62 19.682 4.273 31.448 4.273 15.45 0 23.687-7.204 23.687-18.289v-4.139c-7.596 1.786-15.038 2.942-24.027 2.942-32.16 0-52.163-14.51-52.163-40.727 0-22.499 17.04-38.662 51.14-38.662h.352c2.95.021 3.984.031 6.46.031 18.403 0 39.685 5.491 45.692 7.142 2.343.64 6.698 1.858 6.698 7.07v60.192c.072 19.796-3.478 30.767-12.055 39.158-8.257 8.081-22.49 13.19-43.317 13.19m237.959-3.7h-21.086c-4.293 0-6.471-2.271-6.471-6.471V96.639c0-7.803-4.552-15.688-17.515-15.688-8.587 0-16.627 3.922-16.627 11.59v74.002c0 4.335-2.272 6.471-6.451 6.471h-21.086c-4.283 0-6.45-2.271-6.45-6.471V92.541c0-8.257-8.36-11.59-17.35-11.59-12.86 0-16.72 7.575-16.72 15.688v69.904c0 4.335-2.25 6.471-6.44 6.471h-21.086c-4.283 0-6.461-2.271-6.461-6.471V93.945c0-27.423 19.817-42.492 48.54-42.492 18.175 0 30.26 6.616 36.485 11.188 6.337-4.603 17.72-11.322 35.029-11.322 28.744 0 50.15 11.9 50.15 42.626v72.598c0 4.335-2.282 6.471-6.462 6.471"/></g></svg>