<svg xmlns="http://www.w3.org/2000/svg" viewBox="0 0 896 307"><path fill="#0488c1" d="M274 85c-12 0-30 4-44 13V38c0-6-3-9-9-9h-31c-5 0-9 3-9 9v203c0 6 3 8 9 8h31c6 0 9-3 9-8v-99c0-11 14-19 30-19 9 0 17 3 21 7s6 9 6 17v94c0 6 3 8 8 8h31c6 0 9-3 9-8v-94c0-43-26-62-61-62M95 117c-36-11-41-18-41-29 0-12 11-18 30-18 18 0 43 6 51 8 6 1 9-3 9-7V49c0-4-1-9-8-11-15-5-34-8-57-8C42 31 4 46 4 91c0 33 20 52 65 66 31 10 42 19 42 32 0 14-12 21-38 21-28 0-53-11-63-13-7-2-10 1-10 6v25c0 7 5 10 10 11 1 1 28 12 63 12 59 0 87-24 87-64 0-44-28-58-65-70M804 3c-2-1-5-3-8-3-5 0-7 3-7 8v32c0 4 1 7 4 9l2 2c35 23 56 58 56 102 0 45-21 80-56 103a83 83 0 0 0-2 2c-3 2-4 4-4 8v33c0 5 2 8 7 8 3 0 6-2 8-3a169 169 0 0 0 0-301M457 214c-2 1-15 4-28 4-18 0-27-7-27-19 0-11 8-20 31-20 10 0 19 2 24 4zM429 85c-17 0-35 3-48 7-5 1-8 4-8 10v20c0 4 3 8 11 6 9-2 26-6 42-6 20 0 31 10 31 25v5c-10-2-20-4-32-4-43 0-69 20-69 55 0 30 22 51 68 51h9c25 0 53-7 61-9 3-1 9-3 9-10v-80c0-27-5-41-16-52s-30-18-58-18m317 5h-28c-6 0-8 3-8 9v93c0 10-7 21-24 21-11 0-22-5-22-16V99c0-6-3-9-9-9h-28c-5 0-8 3-8 9v98c0 11-11 16-23 16-18 0-23-10-23-21V99c0-6-3-9-8-9h-28c-6 0-9 3-9 9v96c0 37 26 57 65 57 24 0 40-9 48-15 9 6 24 15 47 15 38 0 67-16 67-57V99c0-6-3-9-9-9"/></svg>