<svg xmlns="http://www.w3.org/2000/svg" viewBox="0 0 228.7 133.2"><path fill="#165aa2" d="M50 105.6c-1.7 9 3 12 11 12 5.8 0 12.2-2.2 13.5-8 1.6-6.7-8.6-8-18.4-11.2-9.7-3.1-19.5-8.1-16.3-22.3 3.8-16.9 21.4-23.5 35-23.5 14.6 0 27.5 7.5 23.7 25h-19c1.9-7.1-3.9-9.4-9.7-9.4-4 0-9.5 1.5-10.7 6.6-1.3 6 9 7 18.9 10.2 9.8 3.1 19.2 8.3 16 22.3-4.4 19.6-21.5 25.9-37.6 25.9-16.8 0-29.8-7.8-25.4-27.6zm131.5-51.3h19L183 131.5h-19zm-64.1 61.1h15.2c6 0 10.8-2.3 12.2-8.6 1.6-6.9-2.4-9.1-8.2-9.1h-15.2Zm7-30.7H139c3.2 0 8.2-1.9 9.4-7.4 1.3-5.6-2-7.5-6-7.5h-14.8Zm-12.1-30.4h34c12.7-.3 25.7 3.2 22 19.3-1.5 7-6.7 12.6-13 15.6 7.2 2.4 10.3 9.6 8.4 18.3-4.2 18.4-18.3 24-34 24h-35z"/><path fill="#ee2239" d="M227.1 23.2c-10.5-27.9-70.7-31-134.3-7.1C47.4 33 12.5 59.5 0 83.3c17.3-18 45.2-35.8 78.8-48.5 63.7-24 123.8-20.7 134.3 7.2 3 8 1.6 17.1-3.4 26.7 15.4-16 22.4-32.3 17.4-45.5"/></svg>