<svg xmlns="http://www.w3.org/2000/svg" xmlns:xlink="http://www.w3.org/1999/xlink" viewBox="0 0 50.71 50.83"><circle cx="25.34" cy="25.49" r="25.34" fill="#fff"/><defs><path id="a" d="M15.8 1.2c-.4.1-.8.3-1.2.5C2 7.6-3.5 22.7 2.4 35.4c5.9 12.7 21 18.2 33.7 12.3 3.3-1.5 6.1-3.7 8.3-6.3.4-.5.7-.9 1-1.5 2.1-3.5 1.4-7.9-2.4-11.5-8.1-7.7-22.1-7.2-28.6-13.5-3.8-3.8-4.2-9.6 1.4-13.7.1.1.1.1 0 0 .1 0 .1 0 0 0"/></defs><linearGradient id="b" x1=".03" x2="46.58" y1="25.6" y2="25.6" gradientUnits="userSpaceOnUse"><stop offset="0" stop-color="#20c1f0"/><stop offset="1" stop-color="#147fc3"/></linearGradient><use xlink:href="#a" width="100%" height="100%" fill="url(#b)" overflow="visible" transform="translate(-.03 .77)"/><linearGradient id="c" x1="21.9" x2="50.68" y1="18.53" y2="18.53" gradientTransform="translate(0 .77)" gradientUnits="userSpaceOnUse"><stop offset="0" stop-color="#20c1f0"/><stop offset="1" stop-color="#147fc3"/></linearGradient><path fill="url(#c)" d="M25.1 13.07c9.5 6 26.5 9.9 22.3 24.7v.1h.1c3.8-6.9 4.4-15.4.9-23.1-.4-1-1-1.9-1.5-2.7-1.6-.9-4.9-1.3-7.7-1.3h-.1c-.1 0-.2-.1-.2-.2v-.5c0-4.05-2.9-7.8-6.2-9h-.1c-.8-.1-1.8-.3-2.9-.3-7.5 0-10.7 8.5-4.6 12.3"/></svg>
