<svg viewBox="0 0 59 59" xmlns="http://www.w3.org/2000/svg"><path d="M29.5 0c1.643 0 3.251.14 4.821.398l.969 6.776h-.002a22.826 22.826 0 0 1 5.907 2.444l5.471-4.103a29.708 29.708 0 0 1 6.819 6.819l-4.103 5.471a22.834 22.834 0 0 1 2.444 5.907v-.002l6.776.969c.258 1.57.398 3.178.398 4.821 0 1.642-.14 3.25-.398 4.82l-6.776.968a22.862 22.862 0 0 1-2.444 5.906l4.103 5.471a29.708 29.708 0 0 1-6.819 6.819l-5.471-4.103-.5.287a22.859 22.859 0 0 1-5.407 2.157h.002l-.969 6.776A29.69 29.69 0 0 1 29.5 59c-1.642 0-3.25-.141-4.82-.399l-.968-6.776a22.859 22.859 0 0 1-5.406-2.157l-.5-.288-5.471 4.103a29.708 29.708 0 0 1-6.819-6.818l4.104-5.471a22.829 22.829 0 0 1-2.29-5.337l-.155-.569-6.776-.968A29.712 29.712 0 0 1 0 29.5c0-1.643.141-3.251.399-4.821l6.776-.969v.002a22.834 22.834 0 0 1 2.445-5.907l-4.103-5.471a29.708 29.708 0 0 1 6.818-6.819l5.471 4.103a22.804 22.804 0 0 1 5.337-2.29l.57-.154.967-6.776A29.712 29.712 0 0 1 29.5 0Zm0 16.674c-7.082 0-12.826 5.742-12.826 12.826 0 7.082 5.744 12.826 12.826 12.826 7.084 0 12.826-5.744 12.826-12.826 0-7.084-5.742-12.826-12.826-12.826Z" fill="#6CBE45" fill-rule="evenodd"/></svg>