<svg xmlns="http://www.w3.org/2000/svg" viewBox="0 0 152 126"><ellipse cx="46" cy="28.5" fill="#fff" rx="16" ry="13.5"/><path fill="#FF6C00" d="m76 64.2 60.6-60.7a58.3 58.3 0 0 1-2.6 79.7V126H71a63 63 0 0 1-61-78.6c1.2-7-4.3-18-10-25.2 9.1 1 22.5.3 26.6-3.8a62.9 62.9 0 0 1 87.3-1.5l1 1.5-42.4 42.3a2.4 2.4 0 0 0 1.7 4.2c.7 0 1.3-.3 1.8-.7Zm-39.4-31a8.9 8.9 0 1 0 3.6-11 .5.5 0 0 1 .2 0 4.8 4.8 0 0 1 4.8 4.7 4.8 4.8 0 0 1-4.8 4.8 4.8 4.8 0 0 1-4.5-3v.1a.7.7 0 0 0 0 .1v.7c0 1.3.2 2.5.7 3.6Z"/></svg>