<svg xmlns="http://www.w3.org/2000/svg" viewBox="0 0 100 189.6"><path fill="#ff3407" d="M86.8 104.3h-3.3l6-5c4.1-3.4 6-9 4.2-14.2a12.7 12.7 0 0 0-12.1-8.7H28.3c-1 0-1.5-1.2-.7-2l35.3-34.6c.4-.5 1.1 0 .9.6L51.5 69.2h15.8L96.8 0H82.6l-70 69a12.8 12.8 0 0 0-2.7 14.5c2.1 4.6 6.9 7.4 12 7.4h51.9c1 0 1.5 1.3.7 2l-12 10a14.5 14.5 0 0 0-4.2 5.4l-4.5 10.5h25.6c1 0 1.5 1.3.7 2l-52 42.9c-.5.3-1.2-.2-1-.7l19-44.2 1.5-3.8 7.2-16.8H39.1L0 189.6h19.3l76-62.6c4.3-3.5 5.8-9.2 3.8-14.5a13 13 0 0 0-12.3-8.2Z"/></svg>
