<svg xmlns="http://www.w3.org/2000/svg" width="169.105" height="169.105"><path fill="#95bf47" d="M140.652 32.605c-.1-.9-.9-1.3-1.5-1.4-.6-.1-12.6-.2-12.6-.2s-10.1-9.8-11.1-10.8-2.9-.7-3.7-.5c0 0-1.9.6-5.1 1.6-.5-1.7-1.3-3.8-2.4-5.9-3.6-6.9-8.8-10.5-15.2-10.5-.4 0-.9 0-1.3.1-.2-.2-.4-.4-.6-.7-2.8-3-6.3-4.4-10.5-4.3-8.2.2-16.3 6.1-23 16.7-4.7 7.4-8.2 16.7-9.2 23.9-9.4 2.9-16 4.9-16.1 5-4.7 1.5-4.9 1.6-5.5 6.1-.5 3.3-12.9 99.4-12.9 99.4l104.1 18 45.1-11.2s-18.4-124.5-18.5-125.3zm-39.2-9.7c-2.4.7-5.1 1.6-8.1 2.5-.1-4.1-.6-9.9-2.5-14.9 6.3 1.2 9.3 8.2 10.6 12.4zm-13.5 4.2c-5.5 1.7-11.4 3.5-17.4 5.4 1.7-6.4 4.9-12.8 8.8-17 1.5-1.6 3.5-3.3 5.9-4.3 2.3 4.7 2.7 11.4 2.7 15.9zm-11.2-21.6c1.9 0 3.5.4 4.9 1.3-2.2 1.1-4.4 2.8-6.4 5-5.2 5.6-9.2 14.2-10.8 22.6-5 1.5-9.8 3-14.3 4.4 3-13.2 14-32.9 26.6-33.3z"/><path fill="#5e8e3e" d="M139.152 31.205c-.6-.1-12.6-.2-12.6-.2s-10.1-9.8-11.1-10.8c-.4-.4-.9-.6-1.4-.6v149.5l45.1-11.2s-18.4-124.4-18.5-125.3c-.2-.9-.9-1.3-1.5-1.4z"/><path fill="#fff" d="M89.052 54.405l-5.2 19.6s-5.8-2.7-12.8-2.2c-10.2.6-10.3 7-10.2 8.7.6 8.8 23.6 10.7 24.9 31.2 1 16.2-8.6 27.2-22.4 28.1-16.6 1-25.7-8.7-25.7-8.7l3.5-14.9s9.2 6.9 16.5 6.5c4.8-.3 6.5-4.2 6.3-7-.7-11.4-19.5-10.8-20.7-29.5-1-15.8 9.4-31.8 32.3-33.3 9-.8 13.5 1.5 13.5 1.5z"/></svg>