<svg xmlns="http://www.w3.org/2000/svg" viewBox="0 0 39.751 39.751"><path d="M39.751 9.938C39.751 4.449 35.302 0 29.814 0H9.939a9.906 9.906 0 0 0-7.027 2.91c-3.88 3.881-3.88 10.175 0 14.055l3.539 3.54A9.942 9.942 0 0 0 0 29.813c0 5.489 4.45 9.938 9.937 9.938h19.876a9.905 9.905 0 0 0 7.027-2.91c3.881-3.882 3.881-10.176 0-14.056l-3.54-3.539a9.942 9.942 0 0 0 6.45-9.308zM5.638 34.115a6.082 6.082 0 0 1 4.046-10.377l12.158 12.16H9.938a6.043 6.043 0 0 1-4.3-1.783zm28.476-8.601a6.082 6.082 0 0 1-8.6 8.6L5.637 14.24a6.083 6.083 0 0 1 8.601-8.602zm0-11.275a6.038 6.038 0 0 1-4.045 1.774L17.91 3.855h11.904a6.082 6.082 0 0 1 4.299 10.384z" fill="#58b1e4"/></svg>