<svg xmlns="http://www.w3.org/2000/svg" data-name="Layer 1" width="28.72" height="30.72"><path fill="#fff" fill-rule="evenodd" d="M0 0h28.72v30.72H0z"/><path d="M5.25 27.57l2.26-4.68c2 1.81 4.55 3.16 6.64 3.16a3.3 3.3 0 003.41-3.65c0-5.5-12-3.82-12-14.24 0-4 2.12-7.28 6.49-8.16H0v30.72h11.37a14.49 14.49 0 01-6.12-3.15z" fill="#33d6a3"/><path d="M28.72 0H16.9a13.8 13.8 0 015.91 3.12L20.6 7.83c-1.97-1.8-4.23-3.11-6.23-3.11a3 3 0 00-3.12 3.12c0 5.53 12 4.3 12 14.07 0 4.93-2.41 7.91-6.68 8.74h12.15z" fill="#3c3c3b"/></svg>