<svg xmlns="http://www.w3.org/2000/svg" xmlns:xlink="http://www.w3.org/1999/xlink" viewBox="0 0 53 53"><defs><circle id="a" cx="26.5" cy="26.5" r="26.5"/></defs><g fill="none" fill-rule="evenodd"><mask id="b" fill="#fff"><use xlink:href="#a"/></mask><path fill="#8C1B18" d="M26.5 0c7.13 0 13.61 2.82 18.37 7.4a13.5 13.5 0 01-13.83 8.02h.05a14.5 14.5 0 1012.98 14.4v-.52.18c.03-.76.05-1.27.54-1.53 1.2-.67 2.59 2.86 3.24 2.86.65 0 2.52-7.81 4.25-7.81.54 0 .78 1.13.88 2.57l.02.93A26.5 26.5 0 1119.03 1.07l.55-.16C21.78.31 24.11 0 26.5 0z" mask="url(#b)"/><path fill="#A72421" d="M29.23 15.1l.97.26a14.5 14.5 0 1013.87 14.12c.03-.76.05-1.27.54-1.53.8-.45 1.67.95 2.36 1.95a26.5 26.5 0 11-17.74-14.8z" mask="url(#b)"/><path fill="#C3312E" d="M44.6 27.95c1.22-.67 2.6 2.86 3.25 2.86.26 0 .71-1.23 1.27-2.72a26.5 26.5 0 11-34.04 2.35 14.5 14.5 0 0028.98-1.18l.01.22c.03-.76.05-1.27.54-1.53z" mask="url(#b)"/><path fill="#DA3B38" d="M74 44.5a26.5 26.5 0 11-52.85-2.85 14.5 14.5 0 0022.92-12.18c.03-.75.05-1.26.54-1.52 1.2-.67 2.59 2.86 3.24 2.86.65 0 2.52-7.81 4.25-7.81.7 0 .89 1.83.94 3.82l.01.44v.67l.01.44v1.05c0 1.86.01 3.1.44 1.86.68-2 1.35-6.1 2-12.33l-.03.27A26.51 26.51 0 0174 44.5z" mask="url(#b)"/><path fill="#F2433F" d="M55.5 5a26.5 26.5 0 11-23.31 39.11 14.5 14.5 0 0011.88-14.63c.03-.76.05-1.27.54-1.53 1.2-.67 2.59 2.86 3.24 2.86.65 0 2.52-7.81 4.25-7.81.7 0 .89 1.83.94 3.82l.01.44v.67l.01.44v1.54c0 1.58.05 2.5.44 1.37.68-2 1.35-6.1 2-12.33-2.48-6.51-4.44-10.94-5.87-13.3C51.52 5.23 53.48 5 55.5 5z" mask="url(#b)"/><path fill="#FE716F" d="M59.5-8a26.5 26.5 0 11-17.94 46 14.43 14.43 0 002.5-8.58l.01.06c.03-.76.05-1.27.54-1.53 1.2-.67 2.59 2.86 3.24 2.86.65 0 2.52-7.81 4.25-7.81.7 0 .89 1.83.94 3.82l.01.44v.67l.01.44v1.54c0 1.58.05 2.5.44 1.37.68-2 1.35-6.1 2-12.33-3.74-9.81-6.29-14.9-7.65-15.27-.4-.1-1.21.43-2.15 1.17A13.42 13.42 0 0146 2c0-1.98-.43-3.86-1.2-5.56C49.02-6.36 54.07-8 59.5-8z" mask="url(#b)"/></g></svg>