<svg xmlns="http://www.w3.org/2000/svg" viewBox="0 0 64.8 55.9"><path fill="#004589" d="M55.8 21.4v-2.6h.8l.8.4v-2l-.8.5h-.7v-.8l.5-.8h-2l.5.8v.8h-.7l-.8-.5v2l.8-.4h.8v2.7L45.5 35h-2.2L42 32.1v-4.2h-2l-1.4-3.1h-2.3v-6.7h3l-2.8-2.9-3.3-9.6H33V4c.4-.1.7-.4.9-.8h1.6V2H34c-.2-.4-.5-.7-.9-.8V0h-1v1.2a1 1 0 0 0-.8.8h-1.5v1.2h1.6c.2.4.5.6.8.8v1.5H32l-3.4 9.6-2.7 2.9h3v6.7h-2.3l-1.4 3.1h-1.9v4.3L22 35h-2.3v-5.4h-2.6c0-3.2-2.1-6-5.1-6.9V21h-1.6v-2.2h.7l.7.4v-1.9l-.7.4h-.7V17l.4-.7H8.9l.4.7v.7h-.7l-.7-.4v1.9l.7-.4h.7V21H7.8v1.6a7.2 7.2 0 0 0-5.2 6.9H0v26.3h2.4V37.2h3.2v18.6h2.6V37.2h3.2v18.6H14V37.2h3.2v18.6H31v-5.3h3v5.3h14.7V43.1c0-1.2 1.4-3.7 1.4-3.7s1.4 2.5 1.4 3.7v12.8h2.2V40.8c0-.7.4-1.7.8-2.5l.6-1.1.6 1.1c.4.8.8 1.8.8 2.5v15.1h2.2V43.1c0-1.2 1.4-3.7 1.4-3.7s1.4 2.4 1.4 3.7v12.8h3.3v-21zm-50.1 14H2.5v-3.2h3.2zm5.8 0H8.3v-3.2h3.2zm5.8 0h-3.2v-3.2h3.2zm19-2.3c0-1.2 1.4-3.7 1.4-3.7s1.4 2.4 1.4 3.7v2.3h-2.9v-2.3zm-5.1-13.3 1.4-1.2 1.4 1.2v5h-2.8zm-2.3 29H26V44h2.9zm0-10.6V42H26v-4.8h2.9zm0-2.8H26v-2.3c0-1.2 1.4-3.7 1.4-3.7s1.4 2.5 1.4 3.7zM34 48.8h-2.8V44H34Zm0-10.6V42h-2.8v-4.8H34Zm.1-2.8h-2.9v-2.9c0-1.2 1.4-3.7 1.4-3.7s1.4 2.4 1.4 3.7v2.9zm5.1 13.4h-2.9V44h2.9v4.8zm0-10.6V42h-2.9v-4.8h2.9v1zM55.3 35h-1.4v-2.9l1.4-2.1 1.4 2.1V35Z"/></svg>
