<?xml version="1.0" encoding="UTF-8"?>
<svg version="1.1" xmlns="http://www.w3.org/2000/svg" width="2048" height="2048">
<path d="M0 0 C1.24296844 0.00343414 2.48593689 0.00686829 3.76657104 0.01040649 C92.53156155 0.29698603 180.69419617 18.39156204 261.37939453 55.73046875 C264.44839102 57.14016869 267.52954479 58.51561774 270.62109375 59.875 C283.7126825 65.65187967 296.23219334 72.21321599 308.6875 79.25 C309.62110352 79.7744873 310.55470703 80.29897461 311.51660156 80.83935547 C321.39788031 86.39608559 331.24193753 91.97156114 340.6875 98.25 C341.82938868 99.00266243 342.97131877 99.75526204 344.11328125 100.5078125 C347.98546365 103.06769302 351.83757685 105.65681181 355.6875 108.25 C356.36570801 108.70455566 357.04391602 109.15911133 357.74267578 109.62744141 C366.42353793 115.45488148 374.67310295 121.51996145 382.6875 128.25 C386.58906753 131.36583518 390.54194866 134.40640105 394.5625 137.3671875 C400.3387161 141.62567335 405.80038393 146.01520714 411.06298828 150.89453125 C413.52042428 153.10005148 416.04509927 155.14020363 418.640625 157.1796875 C425.70390235 162.92877041 432.00259912 169.38159858 438.375 175.875 C440.70877199 178.24563283 443.04590866 180.61287899 445.38671875 182.9765625 C445.94148392 183.53714355 446.49624908 184.09772461 447.06782532 184.67529297 C450.61440481 188.23617816 454.2674331 191.60978063 458.09741211 194.86669922 C463.70727549 199.74701335 468.34709276 205.79255907 473 211.5625 C476.46567191 215.85506907 480.10485434 219.91562462 483.875 223.9375 C487.52061419 227.83675154 490.98389006 231.7180265 494.09375 236.06640625 C495.78732055 238.38676394 497.56541537 240.63104916 499.35693359 242.8762207 C519.44324734 268.09147927 536.7800526 295.2486491 552.6875 323.25 C553.1427002 324.04390137 553.59790039 324.83780273 554.06689453 325.65576172 C561.31286829 338.32270199 567.549541 351.30591842 573.50195312 364.625 C574.49147598 366.81596987 575.50354476 368.99058455 576.546875 371.15625 C580.49730367 379.35809237 584.02910514 387.71021556 587.5 396.125 C587.98082031 397.27911377 588.46164062 398.43322754 588.95703125 399.62231445 C591.47824181 405.80133955 593.48135555 411.6824389 594.6875 418.25 C587.54616388 424.67720251 578.45311338 427.85115264 569.5703125 431.13671875 C566.77289282 432.16219581 566.77289282 432.16219581 564.5390625 433.3359375 C562.07367394 434.55302805 559.49698813 435.05671057 556.83203125 435.6796875 C554.68307705 436.25117623 552.68837449 436.9871502 550.625 437.8125 C547.01684185 439.2330347 543.53028288 439.72255921 539.6875 440.25 C538.6975 440.91 537.7075 441.57 536.6875 442.25 C534.82562174 442.6676941 532.94756715 443.01655938 531.0625 443.3125 C527.56612912 443.61508826 527.56612912 443.61508826 524.6875 445.25 C523.06985232 445.53502833 521.44231141 445.76444645 519.8125 445.96875 C518.33523438 446.16017578 518.33523438 446.16017578 516.828125 446.35546875 C514.734375 446.61848958 512.640625 446.88151042 510.546875 447.14453125 C509.06960938 447.33595703 509.06960938 447.33595703 507.5625 447.53125 C506.65242188 447.64533203 505.74234375 447.75941406 504.8046875 447.87695312 C502.70873007 448.03754397 502.70873007 448.03754397 501.6875 449.25 C496.2688332 449.8271148 490.8155197 450.07401427 485.375 450.375 C484.55582092 450.42113434 483.73664185 450.46726868 482.89263916 450.51480103 C470.25988608 451.20247414 457.70678099 451.33501952 445.0625 450.9375 C444.31390717 450.91439758 443.56531433 450.89129517 442.79403687 450.86749268 C418.51422398 450.07672398 418.51422398 450.07672398 416.6875 448.25 C414.27043714 447.91930732 411.8623213 447.63480228 409.4375 447.375 C402.03739041 446.51961099 394.91118972 445.08857471 387.6875 443.25 C386.65302734 443.00443359 386.65302734 443.00443359 385.59765625 442.75390625 C381.16195422 441.69421422 376.76947431 440.46769176 372.375 439.25 C371.18261719 438.92 369.99023438 438.59 368.76171875 438.25 C365.6875 437.25 365.6875 437.25 362.6875 435.25 C361.32322681 434.92947799 359.94564686 434.66306696 358.5625 434.4375 C354.2004541 433.54670943 350.88501542 431.90693454 347.12109375 429.56640625 C344.451745 428.12247282 341.69964074 427.15456471 338.85327148 426.1184082 C335.05788756 424.59657519 331.55042854 422.57928863 328 420.5625 C327.21616943 420.12115723 326.43233887 419.67981445 325.62475586 419.22509766 C315.6620385 413.58183032 306.01173889 407.68438664 296.83203125 400.81640625 C294.78243847 399.22812532 294.78243847 399.22812532 292.6875 398.25 C292.543125 399.549375 292.39875 400.84875 292.25 402.1875 C291.8125 406.125 291.8125 406.125 290.6875 407.25 C290.40431717 408.64812257 290.1740614 410.05708911 289.96875 411.46875 C289.84113281 412.31824219 289.71351562 413.16773438 289.58203125 414.04296875 C289.45183594 414.93628906 289.32164063 415.82960938 289.1875 416.75 C288.93085071 418.51096985 288.67062456 420.27142337 288.40625 422.03125 C288.29216797 422.81564453 288.17808594 423.60003906 288.06054688 424.40820312 C287.6875 426.25 287.6875 426.25 286.6875 427.25 C286.52945532 428.77933127 286.43635249 430.31547215 286.37109375 431.8515625 C286.32903809 432.80957764 286.28698242 433.76759277 286.24365234 434.75463867 C286.20449707 435.78435791 286.1653418 436.81407715 286.125 437.875 C286.0832666 438.92083252 286.0415332 439.96666504 285.99853516 441.04418945 C285.25420317 459.18334817 285.25420317 459.18334817 286.6875 477.25 C287.0175 477.58 287.3475 477.91 287.6875 478.25 C288.18120169 481.08134946 288.63294882 483.90889397 289.0625 486.75 C290.08657464 493.17727555 291.29344428 499.17811954 293.6875 505.25 C294.31404615 506.99944703 294.938928 508.74949066 295.5625 510.5 C296.26877835 512.41742487 296.9772332 514.33404898 297.6875 516.25 C298.08066406 517.33023438 298.47382812 518.41046875 298.87890625 519.5234375 C301.33668799 526.13402286 304.11026154 532.1832727 307.6875 538.25 C308.50122662 539.77017738 309.31371564 541.29101784 310.125 542.8125 C312.20806134 546.57778122 314.59112796 549.95512942 317.2578125 553.328125 C318.6875 555.25 318.6875 555.25 320.09375 557.64453125 C321.87027071 560.54879428 323.88677269 563.06994411 326.0625 565.6875 C326.86171875 566.64914062 327.6609375 567.61078125 328.484375 568.6015625 C329.21140625 569.47554687 329.9384375 570.34953125 330.6875 571.25 C331.16703125 571.85585938 331.6465625 572.46171875 332.140625 573.0859375 C334.79198903 576.42665617 337.72657972 579.04466188 340.99609375 581.7421875 C342.62081146 583.19055017 343.91251413 584.66336214 345.25 586.375 C347.82976572 589.41780059 350.33137682 591.1267384 353.6875 593.25 C354.74132474 594.11031846 355.78309116 594.98561151 356.8125 595.875 C359.11319314 597.7755726 360.97121904 599.10080421 363.6875 600.25 C363.6875 600.91 363.6875 601.57 363.6875 602.25 C364.491875 602.45625 365.29625 602.6625 366.125 602.875 C369.1160373 604.02943545 370.84960967 604.98916818 373.375 606.8125 C383.19331327 613.59697114 394.97019224 618.64592796 406.265625 622.3984375 C408.6875 623.25 408.6875 623.25 411.9609375 624.75 C415.89830197 626.46249842 419.84218803 627.19104521 424.0625 627.875 C431.57052998 629.13302998 431.57052998 629.13302998 432.6875 630.25 C456.15243436 633.81396453 483.74306808 635.26927603 506.6875 628.25 C508.16325885 627.92178345 509.64211189 627.60683507 511.125 627.3125 C514.65184246 626.54451085 517.93005343 625.48938578 521.2890625 624.1484375 C524.3833532 622.98933838 527.53358274 622.0476859 530.6875 621.0625 C542.13258893 617.36507835 552.58490572 611.71566034 562.6875 605.25 C563.3475 605.25 564.0075 605.25 564.6875 605.25 C564.6875 604.59 564.6875 603.93 564.6875 603.25 C566.29625 602.321875 566.29625 602.321875 567.9375 601.375 C568.57945313 601.00375 569.22140625 600.6325 569.8828125 600.25 C571.6875 599.25 571.6875 599.25 573.8125 598.375 C576.000306 597.20314053 576.000306 597.20314053 578.125 594.3125 C580.6875 591.25 580.6875 591.25 583 589.875 C587.18777039 587.34285977 590.30588956 583.75583286 593.6875 580.25 C598.6875 575.25 598.6875 575.25 600.2890625 573.71875 C603.69049505 570.45698413 603.69049505 570.45698413 605.6875 566.25 C607.35416667 564.58333333 609.02083333 562.91666667 610.6875 561.25 C613.79091626 557.47019815 616.5292379 553.67343203 618.75 549.3125 C620.6875 546.25 620.6875 546.25 623.4375 545.3125 C624.18 545.291875 624.9225 545.27125 625.6875 545.25 C645.5928876 628.41055437 630.38699767 728.48878669 593.6875 848.25 C593.37844727 849.09868652 593.06939453 849.94737305 592.75097656 850.82177734 C588.25166163 863.11153047 583.20372319 875.05605385 577.73388672 886.94238281 C576.45321874 889.76666507 575.23784193 892.61582113 574.02563477 895.4699707 C570.70424844 903.26695655 566.89495419 910.71820162 562.8671875 918.171875 C560.92167963 921.77941692 559.10438207 925.43835269 557.3125 929.125 C550.94812281 941.95736051 543.49592093 954.25169466 535.6875 966.25 C534.56197122 968.04133453 533.43698609 969.83301075 532.3125 971.625 C528.28033281 977.95613111 524.00787376 984.11394434 519.6875 990.25 C519.2862793 990.82153809 518.88505859 991.39307617 518.47167969 991.98193359 C510.32836016 1003.56304052 501.79653414 1014.76757836 492.78125 1025.6875 C490.81325561 1028.09609014 488.8979302 1030.53602045 487 1033 C484.01544959 1036.86276295 480.89887262 1040.5751303 477.6875 1044.25 C477.16671875 1044.86359375 476.6459375 1045.4771875 476.109375 1046.109375 C472.06555504 1050.83346374 467.76748617 1055.2247503 463.3125 1059.5625 C461.32987487 1061.59233049 459.48808971 1063.62529248 457.6484375 1065.77734375 C452.99930595 1071.13679421 447.98713011 1076.13641353 442.97265625 1081.15014648 C441.31739596 1082.80759756 439.67032311 1084.47290446 438.0234375 1086.13867188 C432.77222378 1091.41673455 427.55408455 1096.43525763 421.52368164 1100.83862305 C419.66683156 1102.26588675 418.10028693 1103.79361819 416.5 1105.5 C412.14650937 1110.00500422 407.1510781 1113.68789873 402.20703125 1117.51171875 C399.29663326 1119.76345181 396.45101949 1122.08023015 393.625 1124.4375 C381.14899279 1134.69225963 368.28376595 1144.52824717 354.6875 1153.25 C352.93656329 1154.43611842 351.18661998 1155.62370417 349.4375 1156.8125 C332.34487087 1168.17039586 314.87665418 1178.74287773 296.6875 1188.25 C296.03040039 1188.59514648 295.37330078 1188.94029297 294.69628906 1189.29589844 C290.91933101 1191.26675054 287.10746813 1193.155788 283.26953125 1195.00488281 C281.32163497 1195.94420496 279.37685048 1196.88998402 277.43359375 1197.83886719 C233.20623169 1219.40861127 186.68491637 1235.4201587 138.6875 1246.25 C137.54861328 1246.50716797 136.40972656 1246.76433594 135.23632812 1247.02929688 C100.70584802 1254.66279554 65.47285406 1258.71721008 30.1875 1260.4375 C29.32101837 1260.48047211 28.45453674 1260.52344421 27.5617981 1260.56771851 C12.07323356 1261.31774378 -3.36501985 1261.5281895 -18.86572266 1261.01098633 C-46.33060048 1260.09568744 -73.75519769 1260.30130553 -101.23115158 1260.58499146 C-107.29514446 1260.64631354 -113.35919084 1260.70143815 -119.42324245 1260.75658846 C-130.55811138 1260.85795939 -141.69293415 1260.963535 -152.82773221 1261.07239485 C-167.7948284 1261.21862275 -182.76200738 1261.35169709 -197.72929382 1261.47716141 C-204.95954937 1261.53788436 -212.18979427 1261.59986193 -219.42004013 1261.661726 C-220.57655201 1261.67162119 -221.73306389 1261.68151638 -222.92462158 1261.69171143 C-224.63381649 1261.70633801 -224.63381649 1261.70633801 -226.37754059 1261.72126007 C-229.63879699 1261.74905233 -232.90005613 1261.77650209 -236.16131592 1261.80389404 C-263.38603361 1262.03394064 -290.60889833 1262.35059883 -317.83203125 1262.71875 C-360.03333125 1263.28932209 -402.23563545 1263.7462159 -444.43847656 1264.18608475 C-450.66829811 1264.25104205 -456.89811399 1264.31653376 -463.12792969 1264.38204956 C-517.07277429 1264.94888015 -571.01760263 1265.48066955 -624.96385765 1265.89461899 C-630.67122105 1265.93842111 -636.37858067 1265.98269471 -642.0859375 1266.02734375 C-643.17845951 1266.03587372 -644.27098152 1266.04440369 -645.39661026 1266.05319214 C-661.11620231 1266.17727471 -676.83512475 1266.33802482 -692.55408478 1266.52559471 C-695.93430551 1266.56590235 -699.31453313 1266.60557793 -702.69476318 1266.64509583 C-712.10026493 1266.75553883 -721.50570072 1266.86793328 -730.91098976 1266.9953413 C-734.61335402 1267.04442759 -738.31576421 1267.08887512 -742.01819992 1267.13220024 C-743.70334972 1267.15298427 -745.38847602 1267.17580328 -747.07356644 1267.2009449 C-772.73221503 1267.58211195 -772.73221503 1267.58211195 -784.9375 1264.5 C-785.65059326 1264.3244458 -786.36368652 1264.1488916 -787.09838867 1263.96801758 C-797.87151749 1261.19993039 -808.18925149 1256.6718611 -817.3125 1250.25 C-817.3125 1249.59 -817.3125 1248.93 -817.3125 1248.25 C-817.89515625 1247.9715625 -818.4778125 1247.693125 -819.078125 1247.40625 C-831.49657851 1240.97991741 -838.55116568 1229.01921058 -845.3125 1217.25 C-845.87195313 1216.28191406 -846.43140625 1215.31382813 -847.0078125 1214.31640625 C-851.34336866 1206.28800201 -853.42154105 1198.10356677 -855.3125 1189.25 C-855.5084375 1188.45464844 -855.704375 1187.65929688 -855.90625 1186.83984375 C-859.86222895 1161.62047795 -850.00886937 1137.8654046 -841.6875 1114.625 C-840.97313155 1112.62348745 -840.25885853 1110.62194084 -839.54467773 1108.62036133 C-832.78062475 1089.68509514 -825.92364311 1070.78544821 -818.81274414 1051.97729492 C-815.38341555 1042.90359951 -812.08263158 1033.80135946 -808.9375 1024.625 C-805.46814425 1014.50822419 -801.85543113 1004.45354983 -798.15698242 994.41845703 C-797.67231663 993.10320729 -797.18769943 991.78793965 -796.703125 990.47265625 C-796.44831863 989.78107422 -796.19351227 989.08949219 -795.9309845 988.37695312 C-791.84011173 977.2624755 -787.79795747 966.13015937 -783.75 955 C-783.32364258 953.82818176 -782.89728516 952.65636353 -782.45800781 951.44903564 C-777.70355719 938.37943903 -772.965011 925.30434995 -768.265625 912.21484375 C-767.65890709 910.5255928 -767.65890709 910.5255928 -767.03993225 908.80221558 C-765.12717469 903.47519411 -763.21728531 898.1471728 -761.31225586 892.81738281 C-758.26818652 884.3193504 -755.18967935 875.84898107 -751.86328125 867.45703125 C-748.58834705 859.17889334 -745.68988252 850.78427548 -742.80299377 842.36421204 C-738.70793452 830.43690568 -734.39213327 818.59373887 -730.0625 806.75 C-728.31022097 801.94697063 -726.55941803 797.14340357 -724.80859375 792.33984375 C-724.36130417 791.11325546 -723.91401459 789.88666718 -723.45317078 788.62290955 C-720.17517614 779.62982716 -716.91347606 770.63094161 -713.66015625 761.62890625 C-713.19048651 760.3296589 -712.72081083 759.03041369 -712.25112915 757.73117065 C-710.4410975 752.72368451 -708.631404 747.71607793 -706.82434082 742.70751953 C-702.07400693 729.54206035 -697.28401476 716.39509779 -692.32600403 703.3061676 C-690.03231177 697.2371903 -687.8510723 691.13823673 -685.75 685 C-680.22621076 668.96298634 -674.35828515 653.0494092 -668.54490662 637.1157074 C-666.04734396 630.26942578 -663.556737 623.42064658 -661.0703125 616.5703125 C-649.45846485 584.58461272 -649.45846485 584.58461272 -643.75 569.25 C-640.81519741 561.36430789 -637.95523328 553.46028653 -635.20263672 545.50927734 C-632.44612578 537.57185428 -629.59500019 529.66918521 -626.73925781 521.76705933 C-625.87597274 519.37769232 -625.01409472 516.98782105 -624.15234375 514.59790039 C-621.79279334 508.06063893 -619.43013006 501.52615759 -616.9765625 495.0234375 C-612.46046986 483.01483513 -608.82764194 470.87561681 -605.3671875 458.5234375 C-592.23207502 411.75238147 -574.28329057 365.10580134 -549.3125 323.25 C-548.38777619 321.54601455 -547.47104788 319.83766497 -546.5625 318.125 C-539.50165289 305.10294589 -531.68469225 292.46578959 -523.3125 280.25 C-522.6421875 279.24453125 -521.971875 278.2390625 -521.28125 277.203125 C-516.44659669 269.95114503 -511.35236213 262.90996267 -506.125 255.9375 C-505.61388672 255.25574707 -505.10277344 254.57399414 -504.57617188 253.87158203 C-501.8760598 250.28466844 -499.13115587 246.74513328 -496.3125 243.25 C-495.14299452 241.75221228 -493.97623476 240.25227578 -492.8125 238.75 C-485.96330671 229.94182135 -478.71504976 221.63546474 -471.1328125 213.44921875 C-468.74491754 210.81088276 -466.55330818 208.03949819 -464.33984375 205.25390625 C-459.13282162 198.85792581 -453.39598292 193.06569759 -447.53735352 187.26904297 C-445.74366509 185.49372999 -443.95822804 183.71042544 -442.17382812 181.92578125 C-436.89665238 176.66539635 -431.62325386 171.45475775 -425.91967773 166.65112305 C-424.16327506 165.11990705 -422.55205384 163.49174547 -420.9375 161.8125 C-417.4853445 158.29757804 -413.70947172 155.3094508 -409.8359375 152.2734375 C-407.49859857 150.39922455 -405.27684219 148.45428006 -403.0625 146.4375 C-397.63014519 141.55029347 -391.87246019 137.09886259 -386.09570312 132.63037109 C-384.39872431 131.31674592 -382.70669785 129.9969955 -381.015625 128.67578125 C-360.46431323 112.67058348 -338.54218403 98.79355995 -316.3125 85.25 C-315.70970215 84.88148926 -315.1069043 84.51297852 -314.48583984 84.13330078 C-306.65393742 79.36719955 -298.53837604 75.2741171 -290.31542969 71.23974609 C-287.87171568 70.03218679 -285.44509869 68.79173806 -283.01708984 67.55297852 C-217.24086445 34.19089782 -146.18629041 12.73670186 -72.9375 4 C-71.68219482 3.84893799 -70.42688965 3.69787598 -69.13354492 3.54223633 C-46.12103734 0.95119194 -23.15041963 -0.10577396 0 0 Z M-133.3125 390.25 C-136.00999312 396.43917202 -138.0624087 402.56347299 -139.58984375 409.140625 C-140.06411439 411.18127056 -140.57609988 413.21358999 -141.12890625 415.234375 C-146.23473901 434.6710717 -146.58637038 459.44510508 -143.3125 479.25 C-142.9825 479.58 -142.6525 479.91 -142.3125 480.25 C-141.99827715 482.03767326 -141.68992153 483.82659347 -141.41259766 485.62036133 C-139.45572174 498.22269684 -135.54389862 509.71407189 -130.515625 521.44140625 C-128.70051639 525.67862408 -127.00964306 529.96447674 -125.3125 534.25 C-124.6525 534.25 -123.9925 534.25 -123.3125 534.25 C-123.20679688 534.971875 -123.10109375 535.69375 -122.9921875 536.4375 C-122.2501132 539.50815229 -121.11321672 541.58219229 -119.4375 544.25 C-118.92445313 545.075 -118.41140625 545.9 -117.8828125 546.75 C-117.36460937 547.575 -116.84640625 548.4 -116.3125 549.25 C-115.79429687 550.178125 -115.27609375 551.10625 -114.7421875 552.0625 C-114.27039063 552.784375 -113.79859375 553.50625 -113.3125 554.25 C-112.6525 554.25 -111.9925 554.25 -111.3125 554.25 C-111.21839844 554.8275 -111.12429688 555.405 -111.02734375 556 C-110.15177008 558.75590402 -108.84772088 560.1501391 -106.875 562.25 C-105.00928772 564.24424778 -103.48334552 565.90767384 -102.26171875 568.35546875 C-101.01579371 570.84219157 -99.10424463 572.1351529 -96.953125 573.83203125 C-95.19888009 575.34820007 -93.78638923 576.96193965 -92.3125 578.75 C-89.57785172 582.04871412 -86.64269369 584.55750298 -83.3125 587.25 C-82.19875 588.3946875 -82.19875 588.3946875 -81.0625 589.5625 C-70.59484557 599.79225319 -58.40088038 606.92208048 -45.3125 613.25 C-42.85054177 614.47194993 -40.39409247 615.70480594 -37.9375 616.9375 C-36.81601563 617.49824219 -35.69453125 618.05898438 -34.5390625 618.63671875 C-32.43011546 619.69119227 -30.33055495 620.76470911 -28.2421875 621.859375 C-25.43067943 623.19390416 -22.82411995 624.05526797 -19.8125 624.8125 C-16.91937053 625.55911406 -14.13067066 626.31439789 -11.3125 627.3125 C-7.46295226 628.51548367 -3.58180111 629.13584962 0.39453125 629.78515625 C2.6875 630.25 2.6875 630.25 3.6875 631.25 C25.36773994 634.51036539 48.00726006 634.51036539 69.6875 631.25 C70.0175 630.92 70.3475 630.59 70.6875 630.25 C74.04635885 629.59250526 77.40912873 629.00405287 80.78515625 628.44335938 C84.33974658 627.81855434 86.64451066 627.27865956 89.6875 625.25 C91.703125 624.72265625 91.703125 624.72265625 93.9375 624.3125 C98.13888612 623.44230999 101.78187832 622.05815819 105.6875 620.25 C106.75871094 619.79882812 107.82992187 619.34765625 108.93359375 618.8828125 C112.74165587 617.25733413 116.43291571 615.43393743 120.125 613.5625 C121.07922852 613.08200195 121.07922852 613.08200195 122.05273438 612.59179688 C123.59859357 611.81305578 125.14318387 611.03179666 126.6875 610.25 C126.6875 609.59 126.6875 608.93 126.6875 608.25 C127.41582031 608.14945313 128.14414063 608.04890625 128.89453125 607.9453125 C132.01762527 607.16781497 133.79380017 606.02783492 136.375 604.125 C137.23351563 603.49980469 138.09203125 602.87460937 138.9765625 602.23046875 C139.87117188 601.57691406 140.76578125 600.92335938 141.6875 600.25 C144.37250306 598.40452269 147.06191189 596.56572855 149.75390625 594.73046875 C151.80188908 593.38646886 151.80188908 593.38646886 152.6875 591.25 C153.82010254 590.57324219 153.82010254 590.57324219 154.97558594 589.8828125 C157.7609478 588.20577792 159.78025129 586.41568964 162.078125 584.125 C162.86960937 583.33609375 163.66109375 582.5471875 164.4765625 581.734375 C165.28867188 580.91453125 166.10078125 580.0946875 166.9375 579.25 C167.76507812 578.43015625 168.59265625 577.6103125 169.4453125 576.765625 C170.62480469 575.58226562 170.62480469 575.58226562 171.828125 574.375 C172.90368652 573.29605469 172.90368652 573.29605469 174.00097656 572.1953125 C175.89705348 570.25885739 175.89705348 570.25885739 176.6875 567.25 C177.99427233 565.89062454 179.33102594 564.55978383 180.6875 563.25 C181.88066877 561.83442038 183.04747261 560.39621687 184.1875 558.9375 C185.03828125 557.86048828 185.03828125 557.86048828 185.90625 556.76171875 C187.65866471 554.29066029 189.16212459 551.74271204 190.63867188 549.09936523 C191.68725494 547.2504321 192.78512518 545.44246088 193.90625 543.63671875 C198.21004316 536.6801445 201.94864751 529.98586091 204.6875 522.25 C205.39326172 520.44789063 205.39326172 520.44789063 206.11328125 518.609375 C210.07477213 508.4861162 213.71430245 498.18840844 215.23046875 487.37890625 C215.6875 484.25 215.6875 484.25 216.6875 483.25 C216.91595018 481.73457 217.0826888 480.20974142 217.22265625 478.68359375 C217.30999023 477.73154053 217.39732422 476.7794873 217.48730469 475.79858398 C219.36802776 453.52529945 219.73506908 430.97523458 213.6875 409.25 C213.5121875 408.49074219 213.336875 407.73148438 213.15625 406.94921875 C212.6876565 404.83983721 212.6876565 404.83983721 211.6875 402.25 C210.6975 401.92 209.7075 401.59 208.6875 401.25 C206.42861389 402.44276255 204.37204879 403.6612365 202.25 405.0625 C195.13145421 409.65071905 195.13145421 409.65071905 191.6875 411.25 C191.6875 411.91 191.6875 412.57 191.6875 413.25 C191.0275 413.3325 190.3675 413.415 189.6875 413.5 C186.32521537 414.34057116 183.6043831 415.6986533 180.5546875 417.3125 C178.6875 418.25 178.6875 418.25 175.6875 419.25 C175.6875 419.91 175.6875 420.57 175.6875 421.25 C174.5428125 421.4665625 174.5428125 421.4665625 173.375 421.6875 C170.60577092 422.2132594 170.60577092 422.2132594 167.6875 423.25 C167.6875 423.91 167.6875 424.57 167.6875 425.25 C165.769375 425.5903125 165.769375 425.5903125 163.8125 425.9375 C160.13858917 426.74116799 157.12919085 427.92285038 153.8125 429.6875 C149.3996755 432.02410428 145.12272321 433.36429678 140.2890625 434.5625 C137.91345882 435.19028716 135.7147608 435.96057867 133.4375 436.875 C129.79494274 438.21060433 126.51156597 438.7251282 122.6875 439.25 C121.6975 439.91 120.7075 440.57 119.6875 441.25 C117.88876833 441.73359632 116.06942619 442.14265871 114.2421875 442.50390625 C113.16453125 442.71853516 112.086875 442.93316406 110.9765625 443.15429688 C109.28660156 443.48010742 109.28660156 443.48010742 107.5625 443.8125 C106.4590625 444.03357422 105.355625 444.25464844 104.21875 444.48242188 C99.30245885 445.44874751 94.43188116 446.33328737 89.4453125 446.83984375 C85.8986819 446.83008186 85.8986819 446.83008186 84.6875 448.25 C79.2688332 448.8271148 73.8155197 449.07401427 68.375 449.375 C67.55582092 449.42113434 66.73664185 449.46726868 65.89263916 449.51480103 C53.25988608 450.20247414 40.70678099 450.33501952 28.0625 449.9375 C26.93961075 449.90284637 26.93961075 449.90284637 25.79403687 449.86749268 C1.51422398 449.07672398 1.51422398 449.07672398 -0.3125 447.25 C-2.72956504 446.91930702 -5.13767332 446.63477312 -7.5625 446.375 C-14.96557611 445.52012985 -22.07820775 444.04884955 -29.3125 442.25 C-30.9572488 441.89083046 -32.60298257 441.53611869 -34.25 441.1875 C-39.00655449 440.13240973 -43.46020126 438.58225205 -48 436.8125 C-51.20979155 435.58126317 -54.41359728 434.69978112 -57.75 433.875 C-62.38889507 432.65761041 -66.11891875 430.87071449 -70.22265625 428.42578125 C-72.68189432 427.04217254 -75.24873328 426.18123852 -77.90234375 425.2421875 C-93.24591317 418.92570998 -107.3247557 409.22238646 -120.63964844 399.45947266 C-121.82002323 398.60606099 -123.01201746 397.76860971 -124.21191406 396.94287109 C-125.14729004 396.29632568 -125.14729004 396.29632568 -126.1015625 395.63671875 C-126.6682666 395.25088623 -127.2349707 394.86505371 -127.81884766 394.4675293 C-129.3125 393.25 -129.3125 393.25 -131.3125 390.25 C-131.9725 390.25 -132.6325 390.25 -133.3125 390.25 Z " fill="#FFFFFF" transform="translate(1136.3125,391.75)"/>
</svg>
