<?xml version="1.0" encoding="UTF-8"?>
<svg version="1.1" xmlns="http://www.w3.org/2000/svg" width="2048" height="2048">
<svg xmlns="http://www.w3.org/2000/svg" viewBox="0 0 1491.3 1267.7"><path fill="#fff" d="M857 0h4c88 0 177 18 257 56l9 4 39 19 2 2 29 17 4 3 12 7 2 2 36 27 24 20q12 9 20 19l7 7 2 2 11 10q8 8 15 17l11 12 15 19q30 38 54 80l1 3q10 18 19 39l3 6 11 25 2 4 6 18s-15 9-26 13c-25 9-37 16-86 20h-40c-25-1-28-1-55-8a254 254 0 0 1-91-42l-4-3-4 16q-2 4-2 13l-1 18c-1 18-1 14 1 32q-2 2 7 28a172 172 0 0 0 23 48c14 19 33 51 89 69 56 19 97 9 109 5 12-3 48-17 79-47 18-17 31-38 31-38l1 3c19 83 4 184-32 303l-1 3a486 486 0 0 1-36 78q-10 19-21 37l-4 6-12 18-2 2-25 34-15 18-2 2-13 14-6 6-14 15-5 5-17 15-5 5-14 12-9 6q-18 17-38 29l-6 4q-25 17-52 31l-2 1-12 6-6 3q-67 31-139 48l-3 1c-34 8-74 16-109 18l-63 2H110q-26 1-38-2l-2-1q-17-4-30-14c-6-5-22-21-28-33l-2-3q-7-12-8-25l-1-2c-4-25 6-49 14-72l293-792 2-5q11-20 24-38l2-3 15-21 1-2 9-11 3-4 22-26 6-8 17-18 6-5 32-30 7-6 17-13 5-4q30-23 65-44l1-1 25-13 7-3Q674 17 784 4h4q35-4 69-4M724 388s-5 11-8 27c-5 20-6 44-3 64q6 25 13 42 2 9 17 33 10 13 22 25c27 25 33 31 64 43 17 7 15 5 28 8q32 5 69 1a180 180 0 0 0 93-47l12-12 12-15 4-8 4-5 11-22 1-3c4-10 7-14 11-43 3-22-3-67-3-67l-3-10-9 6c-7 5-30 21-58 30-18 6-37 16-105 14-81-2-101-16-117-24q-22-11-43-26z"/></svg>
