<svg xmlns="http://www.w3.org/2000/svg" data-name="Sierra" aria-labelledby="stp_alt" width="43.839" height="43.839"><circle cx="21.919" cy="21.919" r="21.919" fill="#fff"/><g fill="#f18a00"><path d="M40.88 10.932H2.97a21.93 21.93 0 006.52 29.08c4.8-.84 11.64-2.87 11.64-7.67 0-5.6-10.94-7.51-10.3-13.22.61-5.34 9.82-6.2 9.82-6.2s-4.83 1.39-4.51 4.23c.49 4.27 17 6 17.94 15.85a10.29 10.29 0 01-4.87 9.62 21.94 21.94 0 0011.67-31.69M9.56 9.322s7.51-6.31 8.97-6.31c1.46 0 9 6.31 9 6.31h2.2l-4.7-3.31s1-1.45 2-1.41c1 .04 6.67 4.69 6.67 4.69h6.14A21.92 21.92 0 0027.28.672a21.86 21.86 0 00-19.87 4.82 22.33 22.33 0 00-3.44 3.83z"/></g></svg>