<svg xmlns="http://www.w3.org/2000/svg" version="1.1" id="Layer_1" x="0" y="0" xml:space="preserve" width="73" height="73"><style id="style14756">.st1{fill:#f05a50}</style><g id="g15346" transform="translate(2.4)"><path class="st1" d="M10.9 34.1c.2-.2.5-.3.8-.5 7.2-4.2 8.7-6.8 8.7-15.1 0-7.5 6.2-13.6 13.7-13.6 2.7 0 5.2.8 7.3 2.1 1.9-.8 3.9-1.3 5.9-1.5-3.4-3.4-8-5.5-13.2-5.5-10.2 0-18.5 8.3-18.6 18.5 0 6.7-.6 7.6-6.3 10.9-.2.1-.3.2-.5.3.4 1.6 1.1 3.2 2.2 4.4" id="path14760"/><path class="st1" d="M20.5 55.4v-.9c0-8.4-1.5-10.9-8.7-15.1-6.5-3.8-8.7-12.2-5-18.7 1.3-2.3 3.3-4.1 5.5-5.2.3-2 .9-4 1.7-5.9-4.6 1.2-8.8 4.2-11.4 8.7-5.1 8.8-2.1 20.2 6.7 25.3 5.8 3.4 6.3 4.3 6.3 10.9v.6c1.5.5 3.2.6 4.9.3" id="path14762"/><path class="st1" d="M43.6 57.8c-.3-.1-.5-.3-.8-.4-7.3-4.2-10.2-4.2-17.5 0-6.5 3.7-14.9 1.5-18.6-5-1.3-2.4-1.9-5-1.8-7.4-1.6-1.3-3-2.7-4.2-4.4-1.3 4.6-.8 9.7 1.8 14.2 5.1 8.8 16.4 11.9 25.3 6.8 5.8-3.3 6.8-3.3 12.6 0 .2.1.3.2.5.3 1.2-1.1 2.2-2.6 2.7-4.1" id="path14764"/><path class="st1" d="M57.3 38.9c-.2.2-.5.3-.8.5-7.2 4.2-8.7 6.8-8.7 15.1 0 7.5-6.2 13.6-13.7 13.6-2.7 0-5.2-.8-7.3-2.1-1.9.8-3.9 1.3-5.9 1.5 3.4 3.4 8 5.5 13.2 5.5 10.2 0 18.5-8.3 18.6-18.5 0-6.7.6-7.6 6.3-10.9.2-.1.3-.2.5-.3-.4-1.6-1.1-3.2-2.2-4.4" id="path14766"/><path class="st1" d="M47.8 17.6v.9c0 8.4 1.5 10.9 8.7 15.1 6.5 3.8 8.7 12.2 5 18.7-1.3 2.3-3.3 4.1-5.5 5.2-.3 2-.9 4-1.7 5.9 4.6-1.2 8.8-4.2 11.4-8.7 5.1-8.8 2.1-20.2-6.7-25.3-5.8-3.4-6.3-4.3-6.3-10.9v-.6c-1.6-.5-3.3-.6-4.9-.3" id="path14768"/><path class="st1" d="M24.6 15.2c.3.1.5.3.8.4 7.3 4.2 10.2 4.2 17.5 0 6.5-3.7 14.9-1.5 18.6 5 1.3 2.3 1.9 4.9 1.8 7.4 1.6 1.3 3 2.7 4.2 4.4 1.3-4.6.8-9.7-1.8-14.2-5.1-8.8-16.4-11.9-25.3-6.8-5.8 3.3-6.8 3.3-12.6 0-.2-.1-.3-.2-.5-.3-1.2 1.1-2.2 2.6-2.7 4.1" id="path14770"/></g></svg>