<svg xmlns="http://www.w3.org/2000/svg" viewBox="0 0 318.6 412.2"><defs><linearGradient id="a" x1="60" x2="214" y1="295" y2="23" gradientUnits="userSpaceOnUse"><stop stop-color="#fcf6d3"/><stop offset=".8" stop-color="#fff079"/><stop offset="1" stop-color="#fff079"/></linearGradient></defs><path fill="url(#a)" d="M61.2 277.6V294l86.7 15.1L163 261l103.1-89.4 20.7-57.7-59.2-82.6-90.7-15-66 22-30.3 30.2L27 129l34.3 99-1.3 45.4"/><path fill="#fff" d="M78.7 276.7c14.8-38.8-10.3-75.4-25.1-110-7.4-17-13-34.5-9.3-53a84.8 84.8 0 0 1 25.5-43.9C100.3 41 143.3 33.5 183.2 43c38 9 76 35.6 89 73.7 3.6 10.7 5 23 3.2 32.9a58.2 58.2 0 0 1-.7 3.2c.4-1.5.3-1.4-.2.5a59.9 59.9 0 0 1-1.2 3c-1.8 4.8 1.7-3-.6 1.6l-3.2 5.5-.2.1-3 3.9c-10.4 12.8-28.3 24.7-44 35-33.2 21.6-77.1 49.4-73.2 95.2.6 7.3 5.8 11.2 12.7 7.4 6.7-3.8 12.9-13.2 12.2-21.2a69.1 69.1 0 0 1-.2-4.5c0-.2.3-4.8 0-1.8.1-1.4.4-2.8.7-4.1 1-4.5-1 3 .4-1.2.2-.8 2.2-5 .2-.9l2-3.6c2.4-4.1-2.2 3 .6-1a72 72 0 0 1 3.7-4.5c5.4-6.3 18.7-16.3 28-22.5 25.2-17 52.7-32.5 71.7-57 23.6-30.3 25-68.2 8.5-102.4-18-37.2-58-60.3-97-69.5C123.6-5.6 52 34.6 26 99.8a102 102 0 0 0-7.6 48.5 155 155 0 0 0 14.1 45.8c6.6 14.6 14 28.8 19.8 43.7 4.4 11.5 8.7 25.9 4.5 36.9-2 5.2-3 16 5 16.8 8 .8 14.5-8.4 17-14.8Zm48.8 76.9c3.1 1.2 7 2.7 10.5 4.8l-2.5.4c-14 2.3-28.9 1.4-43-.6-9.9-1.5-32.4-6-45.6-15.7l8.5-.3a192 192 0 0 1 72.1 11.4m46-42.8a213.7 213.7 0 0 0-82-19.8c-14-.6-28.1.7-40.8 6.9-13.2 6.4-21.5 20.6-25.5 34.1l-.2.8a44.2 44.2 0 0 0-12.8 15c-7.9 14.7-7.1 25.5 4.7 37.5A85.8 85.8 0 0 0 52.2 405c25.4 8.3 59.3 12 82.5-3.8a27 27 0 0 0 9-13c.6-1.7 2.2-8.8-2-6-15.7 10.7-36.7 10.6-54.8 8.2-18-2.4-36.5-8.3-51.4-18.9a59 59 0 0 1-10.6-10 23 23 0 0 1-4.4-7l-.7-2c-.7-2.9-.7-3.4 0-1.6a30.7 30.7 0 0 1 5.3-3.4c5.4 17.2 30.2 25.4 46.9 29 14.2 3 29 4.2 43.5 3.5 11.4-.6 26-2.3 33.7-12 7.5-9.4 13-20.5 1.5-28.5-11.4-8-27-10.8-40.2-13.4-21.5-4.3-51.3-8.4-73.7.4 0-1.7.2-3.5.7-5.3l.8-.8C40 319 42 318 43.8 317a51 51 0 0 1 15.1-4.5c12.3-2.2 25.2-1.4 37.5.1 22.2 2.8 45.4 8.4 65.5 18.2 4.9 2.4 15.7-17.9 11.5-20M83.2 143.6c17.7 21.7 26.7 51 29 78.6 1.2 12.7 12 14.5 21 6.7 13-11.2 21.2-26.4 32.5-39.1 12.2-13.9 26.7-25.7 40.5-37.9 27-23.6 56.3-45 92.1-52 10.5-2.2 18.1-15.1 20-24.7 1.6-8.6-1.8-18.6-12.2-16.5-38.7 7.7-72 30.1-101.7 55.2a656 656 0 0 0-45 41c-7.5 7.7-15 15.5-21.4 24.3-4.4 6-9.7 14.4-13.7 18l21 6.7c-2.9-33-12.4-68.7-33.7-94.8C98.5 93 72 129.9 83.2 143.6Z"/><path fill="#231f20" d="M71.6 269.6c14.8-38.8-10.3-75.5-25.2-110-7.3-17-13-34.5-9.2-53a84.8 84.8 0 0 1 25.5-44C93.2 33.9 136.2 26.5 176.1 36c38 9 76 35.6 89 73.7 3.6 10.7 5 23 3.2 32.9a58.2 58.2 0 0 1-.7 3.1c.4-1.5.3-1.3-.3.6a59.9 59.9 0 0 1-1 3c-2 4.8 1.6-3-.8 1.5-1 2-2 3.7-3.2 5.5a1560 1560 0 0 0 0 .2l-3 3.9c-10.5 12.8-28.4 24.6-44.1 35C182 217 138 244.8 142 290.6c.6 7.3 5.8 11.2 12.7 7.4 6.7-3.8 12.9-13.2 12.2-21.2a69.1 69.1 0 0 1-.3-4.5c0-.2.4-4.9 0-1.8l.8-4.2c.9-4.4-1.1 3.1.4-1.1.2-.8 2.1-5 .2-1l2-3.6c2.4-4-2.3 3 .6-.9 1.1-1.6 2.4-3 3.6-4.5 5.5-6.4 18.8-16.3 28-22.6 25.3-17 52.8-32.4 71.8-56.8 23.6-30.4 25-68.4 8.5-102.5-18-37.3-58-60.3-97-69.6C116.5-12.7 45 27.4 19 92.6a102.6 102.6 0 0 0-7.6 48.6c1.8 16 7.5 31 14 45.7 6.6 14.6 14.1 28.8 19.9 43.8 4.4 11.5 8.6 25.9 4.5 36.9-2 5.2-3.1 16 5 16.8 8 .7 14.4-8.4 16.9-14.8Zm48.8 76.9c3.1 1.2 7 2.7 10.5 4.8l-2.5.4c-14.1 2.3-29 1.4-43-.6-10-1.5-32.4-6.1-45.6-15.7l8.5-.3c24-.7 49.6 2.9 72.1 11.4m46-42.8a213.8 213.8 0 0 0-82-19.7c-14-.6-28.2.7-40.9 6.9-13 6.4-21.4 20.6-25.4 34.1l-.2.8a44.2 44.2 0 0 0-12.9 15c-7.8 14.6-7 25.5 4.8 37.5A85.8 85.8 0 0 0 45 397.9c25.4 8.3 59.3 12 82.5-3.8a27 27 0 0 0 9-13c.6-1.7 2.2-8.8-2-6-15.7 10.7-36.8 10.6-54.8 8.2-18-2.4-36.5-8.3-51.4-18.9-4-2.8-7.4-6.3-10.7-10-1.9-2-3.2-4.4-4.4-7l-.6-2c-.7-2.9-.7-3.4-.1-1.6a30.7 30.7 0 0 1 5.4-3.4c5.4 17.2 30.2 25.4 46.9 29 14.2 3 29 4.1 43.5 3.5 11.4-.6 26-2.3 33.7-12 7.5-9.4 13-20.5 1.4-28.5-11.3-8-26.9-10.8-40.1-13.4-21.5-4.3-51.3-8.4-73.7.4 0-1.7.2-3.5.7-5.3l.8-.8c1.6-1.4 3.7-2.5 5.5-3.5a51 51 0 0 1 15-4.5 128 128 0 0 1 37.6.1c22.2 2.7 45.4 8.4 65.5 18.2 4.9 2.4 15.7-17.9 11.5-20Z"/><path fill="#a7be38" d="M300.8 53.4C262 61 228.7 83.4 199 108.6a655.4 655.4 0 0 0-44.9 40.9 252.4 252.4 0 0 0-18.4 20.4c-5-24-14.2-47.5-29.5-66.2-13-16-39.5 20.8-28.3 34.6 17.7 21.6 26.7 51 29 78.5 1.1 12.8 12 14.6 21 6.8 13-11.2 21.2-26.5 32.4-39.2 12.3-13.8 26.7-25.7 40.6-37.8 27-23.7 56.2-45 92.1-52.1 10.5-2 18.1-15 20-24.6 1.5-8.6-1.8-18.6-12.2-16.5Z"/><path fill="#030607" d="M194.4 347.2h2c2 0 3.8-.7 3.8-2.5 0-1.5-1-2.6-3.6-2.6l-2.2.2zm0 9.7h-4v-17a27 27 0 0 1 6.5-.6c3.2 0 4.7.5 6 1.3.9.7 1.6 2 1.6 3.7 0 1.9-1.5 3.3-3.5 4v.1c1.6.7 2.6 2 3 4.2a13 13 0 0 0 1.3 4.3h-4.2c-.5-.7-.9-2.2-1.4-4.2-.3-1.9-1.3-2.7-3.5-2.7h-1.9zm-10.5-9c0 7.6 5.6 13.6 13.2 13.6 7.5 0 13-6 13-13.5s-5.5-13.7-13-13.7c-7.6 0-13.2 6.2-13.2 13.6m30.6 0c0 9.7-7.6 17.3-17.5 17.3-9.7 0-17.5-7.6-17.5-17.3 0-9.4 7.8-17 17.5-17a17 17 0 0 1 17.5 17Z"/></svg>