<svg xmlns="http://www.w3.org/2000/svg" viewBox="0 0 100 100" style="fill:#fff;background:#456cb3"><path d="M81.3,8c-3.7-2.1-8.4-0.9-10.5,2.8L51.5,44.3c-2.1,3.7-1.3,16.2-1.3,16.2s12.5-4.8,14.7-8.5l19.3-33.5C86.3,14.8,85,10.1,81.3,8z M79.9,17.5L79.9,17.5L79.9,17.5L61.2,50l0,0l0,0c-1,1.8-8.8,5.6-8.8,5.6s1.2-7.5,2.3-9.3l0,0l18.7-32.5l0,0c1-1.8,3.3-2.4,5.1-1.4C80.3,13.4,80.9,15.7,79.9,17.5zM22.7,77.4h54.6V44.5h4.4v32.8c0,2.1-2.2,4.4-4.4,4.4H22.7c-2.1,0-4.4-2.2-4.4-4.4V22.6c0-2.1,2.2-4.4,4.4-4.4h30.6v4.4H22.7V77.4z"/></svg>