<svg xmlns="http://www.w3.org/2000/svg" viewBox="0 0 83 90"><path fill="#0777cf" d="M56.092.02c-.013.013-.582.077-1.255.116l-1.488.142-.984.129-3.132.502c-2.653.502-6.795 1.699-8.71 2.523l-1.424.579-2.847 1.313c-5.177 2.575-9.034 5.445-12.321 9.153-2.705 3.051-4.517 6.643-5.035 10.002-.129.837-.129 3.913 0 4.827.712 5.085 3.792 9.179 9.629 12.796 2.11 1.3 5.656 3.167 8.245 4.325l3.753 1.699c7.986 3.63 11.597 5.96 13.396 8.676 1.294 1.97 1.605 4.107 1.01 7.132-.634 3.27-3.029 6.861-6.277 9.384-4.789 3.733-11.079 5.767-17.835 5.78-4.776 0-8.685-.772-11.778-2.317-2.951-1.48-4.724-3.952-4.724-6.591 0-3.476 4.866-7.157 9.202-6.964 1.851.077 2.964 1.043 2.964 2.575 0 .515-.065.644-.557 1.12-.311.309-.828.772-1.152 1.03-1.579 1.274-1.385 3.257.479 4.686.984.76 2.783 1.506 4.064 1.674a17 17 0 0 1 .854.129c.634.129 3.339.039 4.336-.142 1.566-.27 3.287-.875 4.439-1.545 2.252-1.313 3.999-3.527 4.621-5.857.272-1.004.285-1.068.324-2.317.116-2.806-.88-5.162-3.171-7.466-1.916-1.944-4.129-3.231-7.248-4.248-.854-.283-1.708-.541-1.916-.579-.207-.026-.815-.142-1.372-.245-2.485-.476-6.148-.528-9.008-.129-2.679.373-5.798 1.339-8.477 2.639-1.359.657-3.753 2.034-4.323 2.51l-1.048.824C3.467 60.91.775 65.068.14 68.956c-.285 1.776-.129 4.235.401 6.037 1.048 3.63 4.103 7.196 8.413 9.835 2.873 1.751 7.248 3.437 10.73 4.145.945.18 3.184.566 3.766.644l.958.142c1.941.322 9.616.322 11.648 0 .181-.026.738-.103 1.23-.154.505-.051.932-.103.971-.116.039 0 .362-.051.712-.103.828-.129 2.576-.451 3.236-.605 4.323-.991 6.148-1.558 9.707-2.987a57.51 57.51 0 0 0 5.824-2.806c1.165-.669 4.103-2.575 4.465-2.909.104-.09.725-.605 1.359-1.12 5.876-4.789 9.099-10.762 9.047-16.825-.039-3.463-.984-6.758-2.653-9.23-.427-.644-1.903-2.497-2.084-2.626-.065-.039-.505-.451-.984-.901-2.705-2.613-7.144-5.407-13.422-8.471l-8.568-4.274c-4.465-2.42-7.442-4.699-8.827-6.72-1.799-2.626-2.084-6.05-.725-8.702 1.23-2.42 3.65-4.789 6.808-6.63.699-.425 3.184-1.622 4.064-1.982 2.55-1.03 5.941-1.879 8.736-2.188 1.061-.116 5.384-.116 6.342 0 1.76.206 3.689.772 4.646 1.352.712.451 1.514 1.403 1.695 2.021.699 2.485-2.084 5.626-6.2 7.016-1.32.451-1.864.94-2.006 1.815-.116.798.052 1.184.945 2.06 1.061 1.056 3.262 2.214 4.737 2.51a27.55 27.55 0 0 0 .88.206c2.381.566 6.834-.206 9.798-1.686 6.29-3.141 8.905-9.758 6.07-15.358C79.272 5.26 72.283 1.359 63.754.278c-.324-.051-.79-.103-1.035-.142-.505-.077-6.549-.18-6.627-.116z"/></svg>