<svg xmlns="http://www.w3.org/2000/svg" viewBox="0 0 24.03 22.81"><defs><linearGradient id="a" x1="23.85" x2="9.71" y1="10.36" y2="-6.08" gradientTransform="matrix(1 0 0 -1 0 23.9)" gradientUnits="userSpaceOnUse"><stop offset=".07" stop-color="#41e6a5"/><stop offset=".2" stop-color="#34cab8"/><stop offset=".47" stop-color="#1583eb"/><stop offset=".57" stop-color="#0a69ff"/></linearGradient><linearGradient id="b" x1="7.05" x2="21.4" y1="5.23" y2="5.23" gradientTransform="matrix(1 0 0 -1 0 23.9)" gradientUnits="userSpaceOnUse"><stop offset=".15" stop-color="#000c05"/><stop offset=".43" stop-color="#001410"/><stop offset=".93" stop-color="#00292d"/><stop offset="1" stop-color="#002d32"/></linearGradient><linearGradient id="c" x1="15.59" x2="12.57" y1="27.81" y2="-9.85" gradientTransform="matrix(1 0 0 -1 0 23.9)" gradientUnits="userSpaceOnUse"><stop offset=".08" stop-color="#41e6a5"/><stop offset=".3" stop-color="#29b1ca"/><stop offset=".55" stop-color="#127df0"/><stop offset=".67" stop-color="#0a69ff"/></linearGradient><linearGradient id="d" x1="21.96" x2="2.27" y1="11.84" y2="22.93" gradientTransform="matrix(1 0 0 -1 0 23.9)" gradientUnits="userSpaceOnUse"><stop offset=".15"/><stop offset=".66" stop-color="#001d21"/><stop offset="1" stop-color="#002d32"/></linearGradient></defs><path fill="url(#a)" d="M19.95 18.86c-1.42-.09-2.9.5-4.93 1.32.26 1.17.74 2.23.9 2.56.03.07.11.09.18.07 3.55-1.07 5.04-1.98 5.27-3.02-.14-.31-.38-.86-1.42-.92Z"/><path fill="url(#b)" d="M14.61 15.52C9.96 17.88 5.67 20 7.47 21.91l.08.05c.62.34 1.45.23 2.19.06 1.31-.29 2.58-.78 3.83-1.27 2.82-1.09 4.63-2 6.37-1.89 1.04.07 1.28.61 1.42.92.25-1.12-.84-3.44-1.19-3.89-.73-.97-3.16-.87-5.57-.38Z"/><path fill="url(#c)" d="M19.68 6.65c-.52-.02-1.05-.02-1.57 0-.17.15-.38.32-.63.5-1 .72-2.64 1.66-4.89 2.79-6.26 3.16-7.16 4.34-7.62 6.12a5.23 5.23 0 0 0 .64 3.62c.48.91.93 1.63 1.86 2.24-3.34-3.51 13.82-7.7 16.12-12.79-.3-2.09-3.28-2.45-3.92-2.48Z"/><path fill="url(#d)" d="M3.82 11.66c.07.11.21.15.32.08 1.27-.83 8.62-5.43 15.55-5.1.64.03 3.63.39 3.92 2.49 0 0 1.95-4.09-2.49-7.35C14.8-2.85 2.69 2.76.08 4.89a.24.24 0 0 0-.04.31l3.78 6.46Z"/></svg>