<svg xmlns="http://www.w3.org/2000/svg" fill="#3b45fd" viewBox="0 0 160 160"><path d="M80 0a80.6 80.6 0 0 1 12.2 1l-1.1 7.3a73 73 0 0 0-22.2 0L67.8 1A80.6 80.6 0 0 1 80 0m19 2.3-1.8 7.3a72 72 0 0 1 20.4 8.4l4-6.4A79.5 79.5 0 0 0 99 2.3m28.3 13.2-4.5 6a72.9 72.9 0 0 1 15.7 15.7l6-4.5a80.5 80.5 0 0 0-17.2-17.2m21 23-6.3 3.9a72 72 0 0 1 8.4 20.4l7.3-1.8a79.5 79.5 0 0 0-9.3-22.5zm10.8 29.3-7.4 1.1a73 73 0 0 1 .8 11.1 73 73 0 0 1-.8 11l7.4 1.2a80.7 80.7 0 0 0 0-24.4M142 117.6a72 72 0 0 0 8.4-20.4l7.3 1.8a79.5 79.5 0 0 1-9.3 22.5zm-3.5 5.2 6 4.5a80.5 80.5 0 0 1-17.2 17.2l-4.5-6a72.9 72.9 0 0 0 15.7-15.7M117.6 142l4 6.4a79.5 79.5 0 0 1-22.6 9.3l-1.8-7.3a72 72 0 0 0 20.4-8.4m-26.5 9.7 1.1 7.4a81 81 0 0 1-12.2.9 81 81 0 0 1-12.2-1l1.1-7.3c3.6.5 7.3.8 11.1.8a73 73 0 0 0 11-.8zm-28.3-1.3-1.8 7.3a79.4 79.4 0 0 1-17.3-6.4l-7.6 1.8-1.7-7.3 10.3-2.4 2.4 1.2a72 72 0 0 0 15.7 5.8M28 147.3l1.7 7.3-13 3a12 12 0 0 1-14.4-14.4l3-13 7.3 1.7-3 13a4.5 4.5 0 0 0 5.4 5.4zm-13.9-21.7-7.3-1.7 1.8-7.6A79.4 79.4 0 0 1 2.3 99l7.3-1.8a72 72 0 0 0 5.8 15.7l1.2 2.4zM8.3 91 1 92.2a80.6 80.6 0 0 1 0-24.4l7.4 1.1A73 73 0 0 0 7.5 80a73 73 0 0 0 .8 11"/><path d="M9.6 62.8 2.3 61a79.5 79.5 0 0 1 9.3-22.5l6.4 3.9a72 72 0 0 0-8.4 20.4m12-25.6-6.1-4.5a80.5 80.5 0 0 1 17.2-17.2l4.5 6a72.9 72.9 0 0 0-15.7 15.7zM42.3 18l-4-6.4A79.5 79.5 0 0 1 61 2.3l1.8 7.3A72 72 0 0 0 42.4 18zM145 80a65 65 0 0 1-96.4 57 4.1 4.1 0 0 0-3-.5l-28.8 6.7 6.7-28.9a4.1 4.1 0 0 0-.4-2.9A65 65 0 1 1 145 80"/></svg>