<svg xmlns="http://www.w3.org/2000/svg" width="128.01" height="128.01"><path d="M48.645 1.87l1.44 5.82a57.84 57.84 0 00-16.08 6.65l-3.08-5.14a63.76 63.76 0 0117.72-7.33zm30.72 0l-1.44 5.82a57.84 57.84 0 0116.08 6.65l3.1-5.14a63.76 63.76 0 00-17.74-7.33zM9.205 30.92a63.76 63.76 0 00-7.33 17.72l5.82 1.44A57.84 57.84 0 0114.345 34zM6.005 64a57.9 57.9 0 01.65-8.69l-5.93-.9a64.23 64.23 0 000 19.18l5.93-.9a57.9 57.9 0 01-.65-8.69zm91.08 54.8l-3.08-5.14a57.84 57.84 0 01-16.06 6.65l1.44 5.82a63.76 63.76 0 0017.7-7.33zm24.92-54.8a57.9 57.9 0 01-.65 8.69l5.93.9a64.23 64.23 0 000-19.18l-5.93.9a57.9 57.9 0 01.65 8.69zm4.13 15.36l-5.82-1.44a57.84 57.84 0 01-6.65 16.08l5.14 3.1a63.76 63.76 0 007.33-17.74zm-53.44 42a58.41 58.41 0 01-17.38 0l-.9 5.93a64.23 64.23 0 0019.18 0zm38-22.95a58.21 58.21 0 01-12.29 12.28l3.56 4.83a64.1 64.1 0 0013.56-13.52zm-12.29-81.1a58.21 58.21 0 0112.29 12.29l4.83-3.6a64.1 64.1 0 00-13.52-13.52zM17.315 29.6a58.21 58.21 0 0112.29-12.29l-3.6-4.83A64.1 64.1 0 0012.485 26zm101.49 1.32l-5.14 3.08a57.84 57.84 0 016.65 16.06l5.82-1.44a63.76 63.76 0 00-7.33-17.7zM55.315 6.65a58.41 58.41 0 0117.38 0l.9-5.93a64.23 64.23 0 00-19.18 0zm-34.92 110.46L8.005 120l2.89-12.39-5.84-1.37-2.89 12.39a6 6 0 007.21 7.21l12.38-2.84zm-14.09-16.22l5.84 1.36 2-8.59a57.75 57.75 0 01-6.45-15.74l-5.82 1.44a63.52 63.52 0 005.9 15.21zm28 13l-8.59 2 1.36 5.84 6.32-1.47a63.52 63.52 0 0015.21 5.9l1.44-5.82a57.75 57.75 0 01-15.7-6.49zM64.005 12a52 52 0 00-44 79.67l-5 21.33 21.33-5a52 52 0 1027.67-96z" fill="#3a76f0"/></svg>