<svg xmlns="http://www.w3.org/2000/svg"><defs><clipPath id="a"><path d="M130.73 133.6v-12.376l64.975-11.344 11.345 36.097 77.352 67.037 15.47 43.316-44.349 61.881-68.069 11.346-49.506-16.502-22.688-22.691-10.315-45.378 25.785-74.258-1.031-34.034"/></clipPath><clipPath id="c"><path d="M0 380h380V0H0Z"/></clipPath><linearGradient id="b" x2="1" gradientTransform="scale(232.99 -232.99) rotate(-60 -.19 -.735)" gradientUnits="userSpaceOnUse"><stop offset="0" stop-color="#fcf6d3"/><stop offset=".766" stop-color="#fff079"/><stop offset=".836" stop-color="#fff079"/><stop offset="1" stop-color="#fff079"/></linearGradient></defs><g clip-path="url(#a)" transform="matrix(1.3333 0 0 -1.3333 0 506.67)"><path fill="url(#b)" d="M130.73 133.6v-12.376l64.975-11.344 11.345 36.097 77.352 67.037 15.47 43.316-44.349 61.881-68.069 11.346-49.506-16.502-22.688-22.691-10.315-45.378 25.785-74.258-1.031-34.034"/></g><g clip-path="url(#c)" transform="matrix(1.3333 0 0 -1.3333 0 506.67)"><path fill="#fff" d="M143.83 134.25c11.076 29.122-7.701 56.603-18.859 82.485-5.501 12.761-9.748 25.9-6.963 39.817 2.534 12.662 9.876 24.083 19.151 32.881 22.85 21.675 55.095 27.214 85.038 20.127 28.57-6.763 57.047-26.718 66.755-55.303 2.731-8.042 3.749-17.306 2.398-24.663a43.68 43.68 0 0 0-.539-2.377c.328 1.137.272 1.009-.166-.384a44.897 44.897 0 0 0-.835-2.238c-1.407-3.625 1.245 2.268-.514-1.196-.722-1.42-1.559-2.779-2.405-4.127l-.085-.129c-.71-.989-1.478-1.935-2.243-2.881-7.806-9.657-21.267-18.512-33.039-26.217-24.873-16.28-57.859-37.135-54.92-71.483.466-5.441 4.379-8.36 9.529-5.501 5.079 2.819 9.68 9.898 9.169 15.88a51.854 51.854 0 0 0-.18 3.344c-.003.165.247 3.657-.002 1.398.114 1.038.331 2.062.546 3.083.701 3.325-.811-2.317.3.879.195.562 1.628 3.692.158.665.456.94.989 1.841 1.519 2.741 1.796 3.053-1.692-2.22.416.688.858 1.183 1.804 2.3 2.754 3.408 4.078 4.755 14.08 12.236 21.023 16.902 18.942 12.731 39.539 24.348 53.79 42.651 17.733 22.775 18.757 51.252 6.356 76.852-13.534 27.939-43.505 45.257-72.698 52.166-51.795 12.26-105.487-17.85-125.009-66.705-4.561-11.414-7-24.198-5.649-36.462 1.329-12.059 5.625-23.305 10.555-34.3 4.915-10.962 10.514-21.611 14.836-32.834 3.308-8.591 6.506-19.394 3.372-27.636-1.495-3.929-2.298-12.058 3.759-12.628 5.986-.562 10.852 6.286 12.682 11.097"/><path fill="#231f20" d="M138.49 139.59c11.076 29.123-7.701 56.603-18.859 82.485-5.501 12.761-9.748 25.901-6.963 39.817 2.534 12.662 9.875 24.083 19.151 32.882 22.85 21.674 55.094 27.213 85.038 20.126 28.57-6.763 57.047-26.718 66.755-55.303 2.731-8.042 3.749-17.306 2.398-24.663a43.68 43.68 0 0 0-.539-2.377c.328 1.137.272 1.009-.166-.384a44.897 44.897 0 0 0-.835-2.238c-1.407-3.625 1.245 2.268-.514-1.196-.722-1.42-1.559-2.779-2.405-4.127a1170.02 1170.02 0 0 1-.085-.129c-.71-.989-1.478-1.935-2.243-2.881-7.806-9.657-21.267-18.512-33.039-26.217-24.873-16.28-57.859-37.134-54.92-71.483.466-5.441 4.379-8.36 9.529-5.501 5.079 2.819 9.68 9.898 9.169 15.88a51.854 51.854 0 0 0-.18 3.344c-.004.165.247 3.657-.002 1.398.114 1.038.331 2.062.546 3.083.701 3.325-.812-2.317.3.88.195.561 1.628 3.692.158.664.456.94.989 1.841 1.519 2.741 1.796 3.053-1.692-2.22.416.688.858 1.183 1.804 2.3 2.754 3.409 4.078 4.754 14.08 12.235 21.023 16.901 18.942 12.731 39.539 24.348 53.79 42.651 17.733 22.775 18.757 51.253 6.356 76.852-13.534 27.94-43.506 45.257-72.698 52.166-51.795 12.26-105.487-17.85-125.009-66.705-4.561-11.414-7-24.198-5.649-36.462 1.329-12.059 5.625-23.305 10.555-34.3 4.915-10.962 10.514-21.611 14.836-32.834 3.308-8.591 6.506-19.394 3.372-27.636-1.495-3.929-2.298-12.058 3.759-12.628 5.986-.562 10.852 6.286 12.682 11.097"/><path fill="#fff" d="M180.44 76.56c2.33-.887 5.289-2.007 7.85-3.551-.616-.111-1.231-.216-1.845-.315-10.586-1.71-21.688-1.072-32.247.456-7.447 1.077-24.319 4.556-34.2 11.734 2.159.134 4.303.2 6.38.26 17.959.516 37.213-2.169 54.062-8.584m34.438 32.144c-18.654 9.129-40.724 13.72-61.353 14.726-10.485.512-21.13-.474-30.653-5.138-9.85-4.825-16.084-15.454-19.084-25.589-.062-.209-.101-.409-.157-.616-3.842-2.843-7.133-6.51-9.634-11.198-5.879-11.018-5.31-19.145 3.552-28.159 7.18-7.302 16.85-11.57 26.434-14.708 18.999-6.221 44.454-9.023 61.876 2.84 3.18 2.164 5.425 6.238 6.709 9.761.458 1.255 1.666 6.623-1.52 4.454-11.715-7.977-27.534-7.902-41.049-6.08-13.455 1.813-27.422 6.199-38.547 14.152-2.969 2.123-5.589 4.738-8.012 7.452-1.444 1.618-2.404 3.371-3.304 5.306l-.509 1.493c-.509 2.161-.521 2.562-.038 1.203a23.01 23.01 0 0 0 4.049 2.579c4.045-12.939 22.658-19.102 35.148-21.772 10.653-2.278 21.746-3.116 32.621-2.604 8.578.403 19.507 1.712 25.275 8.935 5.665 7.094 9.731 15.435 1.109 21.447-8.529 5.948-20.197 8.081-30.124 10.049-16.135 3.198-38.463 6.278-55.259-.341-.036 1.276.151 2.617.547 4.015.137.131.315.3.588.549 1.189 1.086 2.732 1.864 4.14 2.617 3.444 1.843 7.483 2.701 11.292 3.381 9.235 1.649 18.9 1.084 28.152-.058 16.601-2.049 34.028-6.259 49.12-13.646 3.633-1.778 11.765 13.415 8.631 14.95"/><path fill="#231f20" d="M175.1 81.895c2.33-.887 5.289-2.007 7.849-3.551-.615-.111-1.23-.216-1.844-.315-10.586-1.71-21.688-1.072-32.247.456-7.447 1.077-24.319 4.556-34.2 11.734 2.159.134 4.303.2 6.38.26 17.959.516 37.213-2.169 54.062-8.584m34.438 32.144c-18.654 9.129-40.724 13.72-61.353 14.727-10.485.511-21.13-.474-30.653-5.139-9.85-4.825-16.084-15.454-19.084-25.589-.062-.209-.101-.409-.157-.616-3.843-2.843-7.133-6.51-9.634-11.198-5.879-11.018-5.31-19.145 3.552-28.159 7.18-7.302 16.85-11.57 26.434-14.708 18.998-6.221 44.454-9.023 61.876 2.84 3.18 2.164 5.425 6.238 6.709 9.761.457 1.255 1.666 6.623-1.52 4.454-11.715-7.977-27.534-7.902-41.049-6.08-13.455 1.813-27.423 6.199-38.547 14.152-2.97 2.123-5.589 4.738-8.012 7.452-1.444 1.618-2.404 3.372-3.304 5.306l-.509 1.493c-.509 2.161-.521 2.562-.038 1.203a23.01 23.01 0 0 0 4.049 2.579c4.045-12.939 22.657-19.102 35.148-21.772 10.653-2.278 21.746-3.116 32.621-2.604 8.578.404 19.507 1.712 25.275 8.935 5.665 7.094 9.731 15.436 1.109 21.448-8.529 5.947-20.198 8.08-30.124 10.048-16.135 3.198-38.463 6.278-55.259-.341-.036 1.276.151 2.617.547 4.015.137.131.315.3.588.549 1.188 1.087 2.732 1.864 4.14 2.617 3.444 1.843 7.483 2.701 11.292 3.381 9.234 1.649 18.899 1.084 28.152-.058 16.601-2.049 34.028-6.259 49.12-13.646 3.633-1.778 11.765 13.415 8.631 14.95"/><path fill="#fff" d="M147.21 234.1c13.253-16.267 20.024-38.254 21.803-58.945.82-9.548 8.996-10.917 15.726-5.073 9.679 8.404 15.86 19.863 24.308 29.392 9.187 10.363 20.022 19.26 30.412 28.373 20.242 17.756 42.194 33.7 69.099 39.069 7.861 1.569 13.574 11.276 14.924 18.47 1.211 6.452-1.274 13.928-9.113 12.363-28.986-5.785-54.063-22.572-76.284-41.373-11.583-9.801-23.088-19.873-33.715-30.71-5.675-5.787-11.264-11.696-16.051-18.253-3.32-4.548-7.268-10.818-10.311-13.461l15.726-5.073c-2.128 24.77-9.284 51.517-25.254 71.121-9.82 12.053-29.652-15.611-21.27-25.9"/><path fill="#a7be38" d="M310.37 301.75c-28.986-5.785-54.063-22.572-76.284-41.374-11.583-9.8-23.088-19.872-33.715-30.71-4.814-4.908-9.534-9.93-13.787-15.335-3.791 17.985-10.686 35.654-22.104 49.669-9.82 12.054-29.651-15.611-21.269-25.899 13.253-16.268 20.024-38.255 21.802-58.945.82-9.548 8.996-10.918 15.726-5.073 9.68 8.404 15.86 19.863 24.309 29.392 9.187 10.363 20.022 19.259 30.412 28.372 20.242 17.757 42.194 33.701 69.098 39.07 7.862 1.569 13.575 11.275 14.925 18.469 1.211 6.452-1.274 13.928-9.113 12.364"/><path fill="#030607" d="M230.63 81.384h1.399c1.635 0 2.957.545 2.957 1.868 0 1.167-.855 1.945-2.722 1.945-.779 0-1.323-.078-1.634-.155Zm-.079-7.236h-2.956v12.761c1.167.234 2.801.389 4.901.389 2.413 0 3.503-.389 4.436-.934.701-.544 1.245-1.556 1.245-2.801 0-1.4-1.09-2.49-2.646-2.957v-.155c1.245-.467 1.945-1.401 2.334-3.113.389-1.945.623-2.723.935-3.19h-3.191c-.388.467-.623 1.634-1.011 3.112-.235 1.401-1.012 2.024-2.646 2.024h-1.401zm-7.858 6.692c0-5.681 4.202-10.194 9.959-10.194 5.602 0 9.726 4.513 9.726 10.116 0 5.68-4.124 10.271-9.803 10.271-5.68 0-9.882-4.591-9.882-10.193m22.955 0c0-7.237-5.681-12.917-13.073-12.917-7.314 0-13.151 5.68-13.151 12.917 0 7.081 5.837 12.76 13.151 12.76 7.392 0 13.073-5.679 13.073-12.76"/></g></svg>