<svg xmlns="http://www.w3.org/2000/svg" width="100" height="100" fill="#0d97ff"><path d="M71.132 6.02a20.41 20.41 0 002-.4l-2 .4z"/><path d="M99.006 36.476a30.42 30.42 0 00-11.67-16.4 29.67 29.67 0 00-4.6-2.69 1.33 1.33 0 01-.61-.63 33.09 33.09 0 00-2.77-4.54A30.52 30.52 0 0062.766.856a28.9 28.9 0 00-7.47-.91 31 31 0 00-12.53 2.77 31.64 31.64 0 00-4.7 2.68 1.32 1.32 0 01-.71.21l-2.3-.08a28.15 28.15 0 00-3.08.19 30.48 30.48 0 00-9.87 2.82 29.85 29.85 0 00-8.26 5.85 30.34 30.34 0 00-8.44 23.59 1.38 1.38 0 01-.22.84 33 33 0 00-2.57 4.67 29.57 29.57 0 0010.08 36.43 29.58 29.58 0 004.61 2.7 1.4 1.4 0 01.61.62 30.8 30.8 0 002.76 4.54 30.28 30.28 0 007.38 7.12 29.93 29.93 0 009.21 4.24 29.06 29.06 0 007.49.92 30.85 30.85 0 0012.51-2.78 31.45 31.45 0 004.7-2.67 1.35 1.35 0 01.71-.2l2.33.07a29.69 29.69 0 0029.59-27.12 32.65 32.65 0 000-5.33 1.31 1.31 0 01.22-.85 31.41 31.41 0 002.56-4.66 30.86 30.86 0 002.62-12.56 28.33 28.33 0 00-1-7.48zm-51.3-30.86a26.47 26.47 0 017.6-1.18 24.42 24.42 0 016.34.77 25.74 25.74 0 0112 7.15 1.18 1.18 0 01.23 1.27 1.2 1.2 0 01-1.07.72.49.49 0 01-.18 0 33.46 33.46 0 00-3.35-.32c-.7 0-1.44-.06-2.3 0a44.44 44.44 0 00-7.28.68h-.16a1.28 1.28 0 01-.74-.26 41.7 41.7 0 00-8.07-5.21 33.18 33.18 0 00-3.07-1.34 1.13 1.13 0 01-.74-1.13 1.14 1.14 0 01.8-1.15zm-15.48 12.14a30.88 30.88 0 016.4-7.16 1.2 1.2 0 01.76-.27h.18a31.4 31.4 0 019.16 2.86l2.68 1.46a1.18 1.18 0 01.55 1.15 1.14 1.14 0 01-.82 1l-3.34 1.08-.44.15-5.7 1.76-5.12 1.25-.64.15-3.9.9a.88.88 0 01-.27 0 1.16 1.16 0 01-1-.57 1.18 1.18 0 010-1.15c.42-.87.94-1.76 1.5-2.6zm-17.45 42.57a42.64 42.64 0 00-.46 9.49l.38 3.32a1.17 1.17 0 01-.25 1 1.24 1.24 0 01-.89.41 1.12 1.12 0 01-.8-.31 24.86 24.86 0 01-7.15-25.86 1.18 1.18 0 012.22-.11l1.38 3.06a42.73 42.73 0 005.27 7.92 1.33 1.33 0 01.3 1.08zm3.23-12.5l-1.18 3.82a1.16 1.16 0 01-1.11.85 1.14 1.14 0 01-1-.55 28.92 28.92 0 01-1.51-2.64 31 31 0 01-3-9.45 27.22 27.22 0 01-.3-6.78c0-.46.1-.88.16-1.3a24.9 24.9 0 0119.15-21 1.2 1.2 0 01.28 0 1.12 1.12 0 011 .65 1.15 1.15 0 01-.13 1.25l-2 2.7a42.08 42.08 0 00-4.35 8.9.48.48 0 01-.29.3 43 43 0 00-8.07 4l-1.32.9a.75.75 0 00-.34.73c0 .3-.05.62-.08.93l-.1 1.4v1.8a.5.5 0 00.79.41l1.83-1.25.36-.25.64-.45.35-.23 2.25-1.36a1.24 1.24 0 011.49.3 1.23 1.23 0 01.23 1l-.74 3.36-.02.48-1.3 5.8-1.57 5.36zm4.45 32.06l-1.2-.44-.15-.1-.1-.17a31.61 31.61 0 01-2.21-9.67 28.43 28.43 0 01-.07-3 1.16 1.16 0 011.17-1.14 1.15 1.15 0 01.79.3l3 2.68.23.2 4.14 3.82 4.1 4.3 1.15 1.24.1.12a.12.12 0 00.12 0 33.85 33.85 0 004.61-.41.5.5 0 00.28-.85l-3-3.18-.47-.54-3.77-3.94-3.85-3.58-.7-.64-4.46-4.1-2-1.94a1.38 1.38 0 01-.34-1.25l.67-2.65 1.58-5.3 1.94-6.44 1.36-6 .18-.88 1.15-5.07.7-2.63a1.41 1.41 0 01.93-.94l2.18-.65.43-.12 5.94-1.4.74-.17 5.24-1.3 5.33-1.64.56-.18 5.8-1.85 3.1-.8a43.64 43.64 0 016.85-1.08l2.5-.1h2a31.29 31.29 0 019.67 2.07.49.49 0 01.3.28 31.19 31.19 0 012.23 9.67l.06 3a1.17 1.17 0 01-2 .84l-3.5-3.13-3.87-3.57-3.74-3.92-.38-.4-.82-.9-.22-.27a.41.41 0 00-.3-.11 33.6 33.6 0 00-4.5.41.51.51 0 00-.29.85l2.65 2.8.77.85 3.8 4 4.38 4.07.7.6.54.5 3.43 3.16 2.23 2.25a.55.55 0 01.13.46l-.77 3.1-1.67 5.67-.13.42-1.67 5.67-1.35 6-.24 1.15-1.1 4.82q-.33 1.38-.84 3.1a.53.53 0 01-.34.33l-3 .9-5.92 1.42-.3.06-5.72 1.4-5.72 1.74-.06.05-.94.3-5 1.57h-.12l-3 .8a45.45 45.45 0 01-6.84 1.08l-2.5.1h-2l-1.27-.1-1.12-.13-.34-.05-.94-.25a1 1 0 01-.19 0c-.3 0-.6-.1-.88-.18l-1.66-.37c-.65-.15-1.4-.37-2.2-.64zm29.9 14.5a26.43 26.43 0 01-7.6 1.19 24.77 24.77 0 01-6.35-.77 25.75 25.75 0 01-12-7.16 1.16 1.16 0 01-.23-1.26 1.18 1.18 0 011.07-.71h.2l3.33.34 2.35.05a44.19 44.19 0 007.22-.69h.2a1.2 1.2 0 01.72.24 43 43 0 008.08 5.23l3.07 1.32a1.19 1.19 0 01.76 1.14 1.17 1.17 0 01-.82 1.08zm15.47-12.13a30.61 30.61 0 01-6.39 7.15 1.12 1.12 0 01-.74.28h-.2a30.6 30.6 0 01-9.17-2.85l-2.68-1.46a1.19 1.19 0 01.27-2.14l3-.95 6.5-2.04 5.8-1.4 3.87-.9a1.33 1.33 0 01.28 0 1.14 1.14 0 011 .57 1.18 1.18 0 010 1.14l-1.56 2.6zm18.2-11.93a1.18 1.18 0 000-.24 31.43 31.43 0 00.27-4.4.5.5 0 00-.79-.41l-3 2-2.6 1.6a1.11 1.11 0 01-.55.15 1.17 1.17 0 01-.94-.44 1.23 1.23 0 01-.23-1l.65-3 .2-.92 1.3-5.82 1.58-5.35.1-.32 1.16-3.84a1.17 1.17 0 011.13-.84 1.23 1.23 0 011 .54l1.5 2.65a31.29 31.29 0 013 9.45 26.75 26.75 0 01.24 6.78c0 .45-.1.9-.17 1.32a24.88 24.88 0 01-19.14 21 1.17 1.17 0 01-.27 0 1.13 1.13 0 01-1-.66 1.14 1.14 0 01.13-1.25l2-2.7a43.27 43.27 0 004.22-8.54 1.4 1.4 0 01.8-.8 41.76 41.76 0 007.82-3.94l1.2-.8a1.06 1.06 0 00.33-.24zm8.48-18.66a1.17 1.17 0 01-2.21.09l-1.38-3a43.45 43.45 0 00-5.29-7.93 1.35 1.35 0 01-.29-1.08 42.81 42.81 0 00.47-9.49l-.4-3.33a1.16 1.16 0 01.25-.93 1.21 1.21 0 01.91-.42 1.13 1.13 0 01.79.3 24.93 24.93 0 017.1 25.79z"/><path d="M17.832 32.38l-.23.16-.76.48.64-.45z"/></svg>