<svg xmlns="http://www.w3.org/2000/svg" viewBox="0 0 20 20"><path d="M8.2 7.376a9.29 9.29 0 0 0 2.39 1.01l1.1.37a8.8 8.8 0 0 1 1 .39l.35.14 3.15-3h.22l-8.63 12.24-4.19-3.78 2.16-2.18 2 1.83 3-2.89c-.43-.16-.93-.32-1.53-.49a10.12 10.12 0 0 1-3.28-1.48 3.89 3.89 0 0 1-1.51-3.3 4.26 4.26 0 0 1 1.53-3.46 5.62 5.62 0 0 1 3.73-1.3 6 6 0 0 1 5.28 2.84l-2.23 2.27a3.2 3.2 0 0 0-3.05-2c-1.31-.04-2.1.62-2.1 1.56a1.5 1.5 0 0 0 .61 1.23zm7.65 5.93a4.31 4.31 0 0 1-1.62 3.53 6.35 6.35 0 0 1-4 1.3l5-7a4.3 4.3 0 0 1 .62 2.17z" fill="#2eabe2"/></svg>