<svg xmlns="http://www.w3.org/2000/svg" xmlns:xlink="http://www.w3.org/1999/xlink" version="1.1" id="company_logos" x="0" y="0" xml:space="preserve" width="336" height="336"><style type="text/css" id="style42904">.st0,.st1{fill:#202945}.st1{clip-path:url(#SVGID_2_)}.st2{fill:#ea0029}</style><g id="g43517" transform="translate(-6.105 101.307)"><path id="path42906" d="M78.5 95.1c0 2.1-1 3.1-2.8 3.1h-9.5c-1.8 0-2.9-.9-2.9-3V42.7c0-2 .5-3.1 2.5-3.4l10.1-3c1.4-.1 2.5.3 2.5 2.3v56.5" class="st0" fill="#202945"/><path id="path42908" d="M310.5 95.1c0 2.1-1 3.1-2.8 3.1h-9.5c-1.8 0-2.9-.9-2.9-3V42.7c0-2 .5-3.1 2.5-3.4l10.1-3c1.4-.1 2.5.3 2.5 2.3v56.5" class="st0" fill="#202945"/><g id="g42922"><defs id="defs42911"><path id="SVGID_1_" d="M6.2 7.7H394v135.5H6.2z"/></defs><clipPath id="SVGID_2_"><use id="use42913" xlink:href="#SVGID_1_" x="0" y="0" width="100%" height="100%" overflow="visible"/></clipPath><path id="path42916" clip-path="url(#SVGID_2_)" d="M341.3 95.1c0 2.1-1 3.1-2.8 3.1H329c-1.8 0-2.9-.9-2.9-3V42.7c0-2 .5-3.1 2.5-3.4l10.1-3c1.4-.1 2.5.3 2.5 2.3v56.5" class="st1" fill="#202945"/><path id="path42918" clip-path="url(#SVGID_2_)" d="M27.3 99.7c-6.6 0-13.8-1.9-19.5-4.4-1.4-.6-1.9-1.5-1.4-2.9l2.3-7c.5-1.5 1.5-1.9 3-1.3 6 2.5 11.5 3.9 16 3.9 5.6 0 9.4-2.5 9.4-6.7 0-3.5-2.4-5.4-7.6-7.5l-10-3.8c-7.2-2.7-13-8.2-13-16.8 0-12.4 11.6-18.1 22.9-18.1 6.1 0 12.2 1 18.4 3.8 1.6.8 1.6 1.5 1.3 3l-2.2 6.8c-.5 1.5-1.8 1.6-3 1.1-4.3-1.6-9.6-3-13.7-3-5.3 0-8 2.9-8 5.8 0 2.8 1.4 4.6 6.2 6.5l11.4 4.7c6.7 2.8 12 8 12 16.2 0 13.4-11.6 19.7-24.5 19.7" class="st1" fill="#202945"/><path id="path42920" clip-path="url(#SVGID_2_)" d="M279.6 95c0 2.2-1 3.2-2.8 3.2h-9.6c-1.8 0-2.9-.9-2.9-3v-81c0-2 .5-3.2 2.5-3.4l10.3-3c1.4-.1 2.5.3 2.5 2.3V95" class="st1" fill="#202945"/></g><path id="path42924" d="M302.9 29.4c-4.2 0-8.6-2.8-8.6-7.8s4.2-8.1 8.6-8.1c4.3 0 8.5 2.9 8.5 8 0 4.8-4.4 7.9-8.5 7.9" class="st2" fill="#ea0029"/><path id="path42926" d="M333.5 29.4c-4.2 0-8.6-2.8-8.6-7.8s4.2-8.1 8.6-8.1c4.3 0 8.5 2.9 8.5 8 0 4.8-4.3 7.9-8.5 7.9" class="st2" fill="#ea0029"/><path id="path42928" d="M179.9 44.7c-2.7-4.9-8.5-9.5-17.7-9.5-7.7 0-16 2.8-21.7 8.2-2.9-4.8-8.4-8.2-16.1-8.2-6.3 0-12.9 2.5-18 6.7v-6c0-2-1.1-2.4-2.5-2.3l-10.1 3c-2 .3-2.5 1.4-2.5 3.4v55.2c0 2.1 1.1 3 2.9 3h9.7c.2 0 .4 0 .6-.1.2 0 .3-.1.5-.2h.1c.9-.4 1.4-1.4 1.4-2.8V54.7c4-3.4 9.4-6.4 14.2-6.4 7.7 0 9.1 5.3 9.1 12V95c0 2.3 1 3.2 3.3 3.2h8.4c2.2 0 3-.9 3-3.2V73.9c0-1.8-.3-18.7-.5-19.9 3.9-3.2 9.5-5.7 14.3-5.7 7.7 0 9.5 5.2 9.5 12V95c0 2.3 1 3.2 3.3 3.2h8.9c2.2 0 3-.9 3-3.2V63c0-8.1-.7-13.7-3.1-18.3" class="st0" fill="#202945"/><path id="path42930" d="M246 42.9c-4.2-4.6-10-7.7-18.4-7.7-6.4 0-12.9 3.4-16.8 7.3v-6.3c0-2-1.1-2.4-2.5-2.3l-10.1 3c-1.4.2-2.1.8-2.3 1.9-.1.2-.2 3.2-.2 3.7v79.8c0 2.2 1 3.3 3 3.3h8.9c2.2 0 3.3-.8 3.3-3.3V93.8c3.7 3.8 9.5 6 15.3 6 8.2 0 14.8-3.3 19.5-8.6 5.3-6.2 8.2-14.9 8.2-24.6.1-8.9-2.5-17.8-7.9-23.7m-12.6 39.9c-2.2 2.7-5.7 4.7-10.1 4.7-4.8 0-9.9-2.8-12.4-6.2V53.6c2.5-3.2 8.4-6.2 13-6.2 4.4 0 8 1.8 10.4 5.2 2.5 3.5 3.7 8.7 3.7 14.7 0 6.2-1.4 11.5-4.6 15.5z" class="st0" fill="#202945"/></g></svg>