<svg xmlns="http://www.w3.org/2000/svg" viewBox="0 0 12.13 14.62"><path d="m11.02 11.28-.23.15a8.55 8.55 0 0 1-9.71-.01l-.23-.15L0 12.73l.2.13a10.22 10.22 0 0 0 11.48 0l.2-.13zM2.27 9.86 8.07 0h2.17L4.45 9.86ZM4.63.85A2.44 2.44 0 0 0 2.87.12c-.69 0-1.29.24-1.77.72a2.4 2.4 0 0 0-.72 1.77c0 .7.24 1.29.72 1.77.46.47 1.1.74 1.77.72.68 0 1.27-.25 1.76-.73.48-.49.73-1.08.73-1.76A2.4 2.4 0 0 0 4.63.85ZM3.57 3.31a.9.9 0 0 1-.69.29.97.97 0 0 1-.71-.29.91.91 0 0 1-.29-.7c0-.28.1-.51.29-.7.19-.19.44-.3.71-.29.27 0 .51.1.7.29a.98.98 0 0 1-.01 1.4zm7.83 2.47a2.42 2.42 0 0 0-1.76-.73c-.69 0-1.29.24-1.77.72a2.4 2.4 0 0 0-.72 1.76c0 .7.24 1.29.72 1.77.46.47 1.1.74 1.77.72.68 0 1.27-.25 1.76-.73.48-.49.73-1.08.73-1.76 0-.66-.26-1.3-.73-1.75Zm-1.06 2.46a.97.97 0 0 1-.7.29.97.97 0 0 1-.99-1c0-.28.1-.51.29-.7.19-.19.44-.3.71-.29.27 0 .51.1.7.29.4.39.4 1.03-.01 1.41z" fill="#ff5900"/></svg>