<svg xmlns="http://www.w3.org/2000/svg" width="182.087" height="182.087"><path d="M169.815 91.476c-.152 0-.243-.093-.243-.248 0-.62.09-1.055.212-1.49.456-1.365 1.64-2.172 3.25-2.172s2.826.807 3.251 2.173c.122.403.213.869.213 1.49 0 .154-.091.247-.243.247zm3.463 12.507c3.584 0 6.44-1.303 8.293-3.32.152-.155.152-.404-.03-.59l-2.643-2.545c-.152-.217-.365-.155-.577 0-1.124 1.055-2.522 1.77-4.466 1.77-2.005 0-3.493-.9-4.01-2.639a4.278 4.278 0 01-.243-1.117c0-.155.091-.248.243-.248h11.787c.273 0 .455-.155.455-.404 0-3.382-.243-4.81-.638-6.114-1.123-3.506-4.1-5.586-8.414-5.586-4.131 0-7.23 2.049-8.354 5.618-.395 1.24-.638 2.668-.638 4.779 0 2.048.273 3.507.699 4.717 1.063 3.569 4.1 5.68 8.536 5.68zm-14.976-.465c.243 0 .395-.155.395-.404v-14.99c0-.154.09-.248.243-.248h3.19c.242 0 .394-.155.394-.403v-3.414c0-.248-.152-.403-.395-.403h-3.159c-.152 0-.243-.093-.243-.248v-.994c0-1.675.456-2.141 2.218-2.141h1.245c.243 0 .395-.155.395-.403v-3.88c0-.248-.152-.403-.395-.403h-2.218c-4.617 0-6.835 2.017-6.835 6.858v.931c0 .156-.09.249-.243.249h-1.215c-.243 0-.395.155-.395.403v3.414c0 .248.152.403.395.403h1.215c.152 0 .243.094.243.249v14.99c0 .248.152.403.395.403h4.77zm-18.804-3.848c-1.853 0-2.825-.714-2.825-2.11 0-1.552 1.093-2.266 3.463-2.266h2.734c.152 0 .243.093.243.248v1.366c0 1.862-1.215 2.762-3.615 2.762zm8.566 3.848c.243 0 .395-.155.395-.404V90.39c0-4.965-2.278-7.2-8.657-7.2-3.22 0-5.59.776-7.23 1.986-.213.125-.243.342-.122.59l1.823 3.259c.121.217.334.248.516.093.912-.714 2.37-1.273 4.344-1.273 3.099 0 3.98.87 3.98 2.7v.745c0 .155-.091.249-.243.249h-3.463c-4.83 0-8.08 2.017-8.08 6.424 0 4.22 3.007 6.082 6.47 6.082 2.643 0 4.344-.869 5.346-2.172h.03v1.303c0 .249.153.404.396.404h4.495zm-29.527.465c7.078 0 10.754-3.724 10.754-8.782 0-5.059-2.977-7.697-8.597-8.473l-1.458-.217c-3.129-.466-4.253-1.49-4.253-3.072 0-1.77 1.246-3.042 3.645-3.042 2.248 0 4.253.745 6.35 2.142.212.124.394.093.577-.125l2.46-3.724c.213-.279.152-.465-.09-.62-2.28-1.8-5.682-2.918-9.296-2.918-5.924 0-9.691 3.414-9.691 8.535 0 4.934 3.099 7.603 8.658 8.38l1.458.216c3.25.466 4.222 1.49 4.222 3.135 0 1.986-1.61 3.32-4.465 3.32-2.886 0-5.347-1.396-7.17-2.886-.212-.155-.455-.155-.607.031l-3.068 3.57c-.213.248-.122.527.03.682 2.127 2.11 6.289 3.848 10.541 3.848z" fill="#008cc1"/><path d="M104.594 103.518c.243 0 .395-.155.395-.404V84.06c0-.248-.152-.403-.395-.403h-4.83c-.243 0-.395.155-.395.403v19.055c0 .249.152.404.395.404zm0-23.028c.243 0 .395-.155.395-.403V75.99c0-.248-.152-.403-.395-.403h-4.83c-.243 0-.395.155-.395.403v4.066c0 .248.152.403.395.403h4.83zm-8.384 23.276c.243 0 .395-.155.395-.403v-4.066c0-.248-.152-.403-.395-.403h-.85c-1.155 0-1.702-.528-1.702-1.893V75.99c0-.249-.152-.404-.395-.404h-4.83c-.243 0-.395.155-.395.403v21.445c0 4.407 1.732 6.331 6.045 6.331zm-20.262-4.624c-1.489 0-2.522-.745-2.977-2.141-.243-.776-.365-1.645-.365-3.414 0-1.77.122-2.638.365-3.414.455-1.428 1.488-2.141 2.977-2.141 1.519 0 2.582.682 3.007 2.141.243.776.365 1.645.365 3.414 0 1.769-.122 2.638-.365 3.414-.425 1.396-1.488 2.141-3.007 2.141zm-3.737 11.793c.243 0 .395-.155.395-.403v-8.845h.03c.882 1.365 2.522 2.296 5.104 2.296 3.25 0 5.59-1.644 6.592-4.779.486-1.552.699-3.072.699-5.617 0-2.576-.213-4.066-.699-5.617-1.002-3.166-3.341-4.78-6.592-4.78-2.582 0-4.222.931-5.103 2.297h-.03v-1.428c0-.248-.153-.403-.396-.403h-4.83c-.243 0-.395.155-.395.403v26.473c0 .248.152.403.395.403zm-9.538-7.417c.243 0 .395-.155.395-.404V90.576c0-4.406-2.37-7.386-6.957-7.386-2.734 0-4.678.931-6.106 2.514h-.03c-1.124-1.645-2.856-2.514-5.225-2.514-2.491 0-4.131 1.024-5.012 2.266h-.03v-1.397c0-.248-.153-.403-.396-.403h-4.89c-.243 0-.395.155-.395.403v19.055c0 .249.152.404.395.404h4.83c.243 0 .395-.155.395-.404v-11.42c0-2.173 1.123-3.6 3.068-3.6 2.005 0 3.007 1.427 3.007 3.6v11.42c0 .249.152.404.395.404h4.83c.243 0 .395-.155.395-.404v-11.42c0-2.173 1.094-3.6 3.007-3.6 2.005 0 3.068 1.427 3.068 3.6v11.42c0 .249.152.404.395.404zm-33.112 0c.243 0 .395-.155.395-.404V84.06c0-.248-.152-.403-.395-.403h-4.83c-.243 0-.395.155-.395.403v19.055c0 .249.152.404.395.404zm0-23.028c.243 0 .395-.155.395-.403V75.99c0-.248-.152-.403-.395-.403h-4.83c-.243 0-.395.155-.395.403v4.066c0 .248.152.403.395.403h4.83zm-18.864 23.493c7.078 0 10.723-3.724 10.723-8.782 0-5.059-2.977-7.697-8.597-8.473l-1.428-.217c-3.129-.466-4.253-1.49-4.253-3.072 0-1.77 1.246-3.042 3.676-3.042 2.248 0 4.253.745 6.35 2.142.212.124.394.093.576-.125l2.46-3.724c.213-.28.153-.465-.09-.62-2.279-1.8-5.68-2.918-9.296-2.918-5.924 0-9.69 3.414-9.69 8.535 0 4.934 3.098 7.603 8.657 8.38l1.458.216c3.25.466 4.223 1.49 4.223 3.135 0 1.986-1.61 3.32-4.466 3.32-2.885 0-5.346-1.396-7.169-2.886-.212-.155-.455-.155-.607.031l-3.099 3.57c-.212.248-.121.527.03.682 2.127 2.11 6.289 3.848 10.542 3.848z" fill="#50545d"/></svg>