<svg xmlns="http://www.w3.org/2000/svg" viewBox="0 0 27 27" style="background:#FF7F00;fill:#FFF"><path d="M8.24 15.96c0 1.2.61 1.74 2.39 1.74h4.43c2.79 0 3.55-.1 3.55-1.5v-.1c0-.9-.2-1.43-2.3-1.43h-6.2c-3.2 0-4.62-1.06-4.62-3.64v-.75c0-2.32 1.29-3.46 6.69-3.46h3.18c4.99 0 5.81 1.5 5.81 3.25v.5h-2.95c0-1.03-1.01-1.28-2.99-1.28h-3.59c-2.67 0-3.07.24-3.07 1.27v.47c0 .73.17 1.2 1.95 1.2h5.24c3.29 0 5.92.3 5.92 4 0 3.88-3.52 3.94-6.19 3.94h-3.76c-.8 0-1.64 0-2.28-.06a7.12 7.12 0 0 1-2-.43c-1.25-.57-2.13-1.63-2.13-3.57v-.15z"/></svg>
