<svg xmlns="http://www.w3.org/2000/svg" xmlns:xlink="http://www.w3.org/1999/xlink" viewBox="0 0 90 90"><defs><path id="a" d="M90 46.32c0 6.99-4.08 13.3-10.53 15.69-5.43 2.21-11.89 1.36-18.17-2.22l-4.58-2.73a19.1 19.1 0 01-3.4 3.07L38.9 69v-7.5l21.73-12.97c-.17 1.03-.34 2.22-.68 3.24l4.59 2.56c5.77 3.41 10.19 2.9 12.73 1.88a10.5 10.5 0 006.12-12.96 10.22 10.22 0 00-6.12-6.31c-2.54-1.03-6.96-1.54-12.73 1.87L29.03 59.8a24.15 24.15 0 01-11.7 3.58A17.3 17.3 0 01.85 51.77c-.52-1.7-.86-3.4-.86-5.28 0-7 4.08-13.3 10.53-15.86 5.43-2.22 11.89-1.37 18.17 2.21l4.58 2.73a19.1 19.1 0 013.4-3.07l.34-.17 1.7-1.02-7.14-4.26a3.3 3.3 0 01-1.18-4.44 3.08 3.08 0 014.24-1.2L45 27.4l10.19-5.97a3.18 3.18 0 014.24 1.02 3.35 3.35 0 01-1.18 4.43l-28.7 17.06c.17-1.02.34-2.05.68-3.07l-4.59-2.56c-5.77-3.41-10.19-2.9-12.73-1.87a11.22 11.22 0 00-6.29 6.48 10.75 10.75 0 000 6.48 10.22 10.22 0 006.12 6.3c2.71 1.03 6.96 1.54 12.73-1.87l35.66-20.64a24.15 24.15 0 0111.72-3.58 17.3 17.3 0 0116.47 11.6c.51 1.54.68 3.41.68 5.12"/></defs><use fill="#FFC047" xlink:href="#a"/></svg>