<svg xmlns="http://www.w3.org/2000/svg" viewBox="0 0 90 48"><path d="M90 25.3c0 7-4 13.3-10.5 15.7-5.4 2.2-12 1.4-18.2-2.2L56.7 36a19.1 19.1 0 0 1-3.4 3L39 48v-7.5l21.7-13c-.1 1-.3 2.3-.6 3.3l4.6 2.5c5.7 3.4 10.1 3 12.7 2a10.5 10.5 0 0 0 6.1-13 10.2 10.2 0 0 0-6.1-6.4c-2.6-1-7-1.5-12.7 2L29 38.7a24.1 24.1 0 0 1-11.7 3.6A17.3 17.3 0 0 1 1 30.8a17.7 17.7 0 0 1-.9-5.3c0-7 4-13.3 10.5-15.9 5.5-2.2 12-1.3 18.2 2.2l4.6 2.8a19.1 19.1 0 0 1 3.4-3.1l.3-.2 1.7-1L31.6 6a3.3 3.3 0 0 1-1.2-4.4A3 3 0 0 1 34.6.4l10.4 6 10.2-6a3.2 3.2 0 0 1 4.2 1A3.4 3.4 0 0 1 58.3 6l-28.7 17 .6-3-4.5-2.6c-5.8-3.4-10.2-2.9-12.8-1.9A11.2 11.2 0 0 0 6.6 22a10.8 10.8 0 0 0 0 6.5 10.2 10.2 0 0 0 6.2 6.3c2.7 1 7 1.5 12.7-1.9L61 12.2A24.1 24.1 0 0 1 73 8.6a17.3 17.3 0 0 1 16.4 11.6c.5 1.5.7 3.4.7 5.1"/></svg>