<svg xmlns="http://www.w3.org/2000/svg" width="162.19" height="162.19" fill="none"><mask id="a" maskUnits="userSpaceOnUse" x="323" y="302" width="91" height="43"><path d="M323.727 302.205h89.479v42.048h-89.479z" fill="#fff"/></mask><g mask="url(#a)" transform="translate(-287.371 -302.205)"><path d="M335.295 340.179c-3.916 0-7.771-.251-11.568-.693a69.877 69.877 0 0025.417 4.768c28.797 0 53.505-17.338 64.062-42.049-17.99 23.088-46.187 37.974-77.911 37.974z" clip-rule="evenodd" fill="#231f20" fill-rule="evenodd"/></g><path d="M85.669 14.517c0 5.157-4.221 9.337-9.428 9.337-5.207 0-9.428-4.18-9.428-9.337s4.22-9.337 9.428-9.337c5.207 0 9.428 4.18 9.428 9.337zm8.873 44.88c-.59-2.82-1.768-5.258-2.567-6.687a9.836 9.836 0 00-.726-1.206 6.213 6.213 0 00-.095-.142h-.007c-1.734-2.388-4.488-3.938-7.598-3.938-4.586 0-8.415 3.358-9.307 7.825-.056.162-.1.33-.122.503-.648 5.183.508 14.57 4.1 32.19 3.02 14.813 3.838 42.416 3.787 50.832-.011 1.767 0 0-.194 4.701-.25 6.077-2.003 22.214.223 18.032 2.726-5.116 9.45-37.699 12.506-60.045 3.056-22.347.94-37.557 0-42.065z" clip-rule="evenodd" fill="#231f20" fill-rule="evenodd"/></svg>