<svg xmlns="http://www.w3.org/2000/svg" data-name="Layer 1" width="58.061" height="58.061"><g fill-rule="evenodd"><path d="M20.923 45.342C14.11 43.114 9.25 36.495 8.057 29.56 4.768 10.414 25.143-6.86 45.492 2.732c.241 4.3-1.756 10.42-7.236 12.258 27.2 17.172 3.945 52.35-24.56 40.782-5.2-2.652-2.424-7.5 3.136-4.692 6.21 2.141 14.277 2.141 19.361-.666a23 23 0 008.275-7.373 23.913 23.913 0 001.963-3.63c.431-1.015 1.82-5.2.742-5.657-.27-.113-.412.207-.486.507a17.755 17.755 0 01-3.9 7.356 19.676 19.676 0 01-8.4 5.75c-4.065 1.48-8.776 1.667-15.254.25.428-.463 1.286-1.75 1.784-2.275zm18.778-40.89a13.311 13.311 0 01.184 1.895 9.005 9.005 0 01-3.006 7.468 26.82 26.82 0 01-1.555 1.428c7.682 4.776 11.694 15.221 7.235 22.521-6.018 9.836-17.944 7.6-24.458.865-6.82-7.05-5.917-16.172-1.018-22.933A28.414 28.414 0 0139.701 4.452z" fill="#96cb4c"/><path d="M16.55 26.045c1.461-14.6 18.257-17.49 24.5 1.967 5.036 20-26.82 15.647-24.5-1.967zm13.7 9.6c13.263.484 6.907-13.08-1.8-16.079-8.632-2.97-13.43 16.078 1.8 16.08z" fill="#fff"/></g></svg>