<svg xmlns="http://www.w3.org/2000/svg" viewBox="0 0 90 90"><g fill-rule="nonzero"><path fill="#0583f2" d="M0 4.5A4.5 4.5 0 0 1 4.5 0l81 9a4.5 4.5 0 0 1 4.5 4.5v72a4.5 4.5 0 0 1-4.5 4.5l-81-9A4.5 4.5 0 0 1 0 76.5v-72z"/><path fill="#fff" d="M22.5 25.875c0-.621.504-1.125 1.125-1.125h42.75c.621 0 1.125.504 1.125 1.125v6.75c0 .621-.504 1.125-1.125 1.125h-42.75c-.621 0-1.125-.504-1.125-1.125v-6.75zm.477 13.417c.065-.618.619-1.066 1.236-1.001l42.516 4.468c.618.065 1.066.619 1.001 1.236l-.706 6.713c-.065.618-.618 1.066-1.236 1.001l-42.516-4.469c-.618-.065-1.066-.619-1.001-1.236l.705-6.713zM22.5 57.375c0-.621.504-1.125 1.125-1.125h42.75c.621 0 1.125.504 1.125 1.125v6.75c0 .621-.504 1.125-1.125 1.125h-42.75c-.621 0-1.125-.504-1.125-1.125v-6.75z"/></g></svg>