<svg xmlns="http://www.w3.org/2000/svg" viewBox="0 0 90 90"><path fill="#0583f2" d="M0 4.5A4.5 4.5 0 0 1 4.5 0l81 9a4.5 4.5 0 0 1 4.5 4.5v72a4.5 4.5 0 0 1-4.5 4.5l-81-9A4.5 4.5 0 0 1 0 76.5v-72z"/><path fill="#fff" d="M22.5 25.875c0-.621.504-1.125 1.125-1.125h42.75c.621 0 1.125.504 1.125 1.125v6.75c0 .621-.504 1.125-1.125 1.125h-42.75a1.125 1.125 0 0 1-1.125-1.125v-6.75zm.477 13.417a1.125 1.125 0 0 1 1.236-1.001l42.516 4.468a1.125 1.125 0 0 1 1.001 1.236l-.706 6.713a1.124 1.124 0 0 1-1.236 1.001L23.272 47.24a1.125 1.125 0 0 1-1.001-1.236l.705-6.713zM22.5 57.375c0-.621.504-1.125 1.125-1.125h42.75c.621 0 1.125.504 1.125 1.125v6.75c0 .621-.504 1.125-1.125 1.125h-42.75a1.125 1.125 0 0 1-1.125-1.125v-6.75z"/></svg>