<svg xmlns="http://www.w3.org/2000/svg" width="132.9" height="132.9"><path d="M91.4 49l-7.3 11H84c-.6-.7-3.8-4.8-3.8-4.8-4 3.1-8.5 5.2-13.4 6.6l5.9 7.7v.1c-.9 1.3-12.8 18.9-12.8 18.9h-.1V63.2c-4.1.6-8 .8-11.8.8h-3.8v10.1s-.1.1-.1 0c-.6-1.4-1.4-2.6-2.1-3.4-5-5.3-22.2-7.2-24.7-10-.5-.5-.7-1.4-.7-2 0-2.3 1.4-3.7 5.2-3.8 2.8-.1 5 1.2 5.6 6.5h15.3c0-.6-.1-1.5-.2-2-.8-7.8-4.8-12.5-19.7-12.5-9.2 0-15.4 1.6-18.9 5.1C1.7 54.2.6 57.1.6 60.8c0 2.5.6 5.6 2.6 7.7 2.2 2.3 7 4 11.8 5.4 6 1.8 12 3.1 13.1 4.7.4.6.7 1.3.7 2.1 0 3.5-3.5 4.5-6.8 4.5-2.1 0-3.5-.6-4.6-1.7-1-1.2-1.5-3-1.6-5.4L0 78c.2 4.8.7 8.4 3.7 11 3 2.6 8.4 4.2 17.8 4.2 13.5 0 20.3-3.7 22.6-9.6 0 0 .1 0 .1.1V92h30.2L83 79.7h.1c.7 1 8.2 12.3 8.2 12.3h32.2V61.4s0-.1.1-.1h9.3V49zM108 88.7c-.1 0-13.6-18.7-13.6-18.7v-.1c.5-.7 5.9-8.2 5.9-8.3l.1-.1h7.6v27.2z" class="sixt"/><path d="M77.3 54c-7.1 4.8-17.1 7.6-29.7 7.5-1.1 0-2.2 0-3.4-.1V49c11.5.8 19.3-1.2 24-4.7 1.8-1.4 3.1-2.9 4.1-4.6h16.2c-2.2 5.8-5.9 10.7-11.2 14.3z" class="swoosh" fill="#ff5f00"/></svg>