<svg xmlns="http://www.w3.org/2000/svg" width="75.328" height="75.328" xml:space="preserve"><linearGradient id="a" gradientUnits="userSpaceOnUse" x1="-272.805" y1="343.782" x2="-272.805" y2="344.776" gradientTransform="matrix(74.975 0 0 -75.3492 20491.238 25978.9)"><stop offset="0" stop-color="#ffa630"/><stop offset=".5" stop-color="#f47f00"/><stop offset="1" stop-color="#dd5a0b"/></linearGradient><path d="M4.364 55.325h66.6c-1.2 2.2-2.5 4.3-4.1 6.2h-58.4c-1.6-1.9-3-4-4.1-6.2zm33.3 20c7.4 0 14.6-2.2 20.7-6.2h-41.4c6.1 4.1 13.3 6.3 20.7 6.2zm-36.3-27.6h72.6c.6-2 1-4.1 1.2-6.2h-75c.2 2.1.6 4.2 1.2 6.2zm-1.2-13.8h75c-.2-2.1-.6-4.2-1.2-6.2h-72.6c-.6 2-1 4.1-1.2 6.2zm4.2-13.8h66.6c-1.2-2.2-2.5-4.3-4.1-6.2h-58.4c-1.6 1.8-3 3.9-4.1 6.2zm12.6-13.9h41.5c-12.7-8.3-29-8.3-41.5 0z" fill="url(#a)"/></svg>