<svg xmlns="http://www.w3.org/2000/svg" width="680.524" height="680.524"><path d="M358.012 117.482v32c-12.585-5.464-25.88-9.583-39.427-11.718-12.82-.952-28.328.6-36.573 11.718-5.72 8.155-1.745 19.711 6.948 23.98 15.224 9.978 33.715 12.775 49.719 21.062 15.386 8.731 30.99 22.466 32.479 41.242 1.678 20.729-6.016 43.049-23.63 55.16-21.156 14.42-48.075 15.631-72.795 13.924-13.479-1.592-26.803-4.935-39.388-10.034v-32c15.11 5.081 30.778 8.604 46.583 10.583 11.805.11 24.997-.79 34.626-8.333 7.622-7.175 4.11-20.892-5-25.208-18.147-12.44-40.269-17.015-58.875-28.543-16.188-10.792-27.206-29.982-25.23-49.75.089-19.942 14.566-36.823 31.972-44.942 20.235-9.396 43.417-11.379 65.383-8.682 11.292 2.19 22.545 5.198 33.208 9.541zM340.679 517.482c-43.334.108-88.363-24.733-104.084-66.479-15.724-34.142-54.956-49.324-90.635-48.156-26.871-.071-53.743-.012-80.615-.031.194 12.224 15.366 27.18 23.75 38.166 9.78 11.682 24.456 18.362 39.686 16.5 16.584 1.187 36.981-4.712 48.856 10.459 13.846 21.937 24.824 46.526 45.682 63.15 36.39 34.049 88.162 46.52 136.89 41.548 56.762-3.286 109.466-39.105 134.022-90.262 5.399-14.88 19.636-27.262 36.235-24.895 17.703-1.182 38.114 4.468 52.462-9.166 14.524-11.983 25.163-28.622 33.75-44.834-14.993-1.566-31.195-.214-46.65-.666-34.585.349-72.794-3.777-101.652 19.302-24.905 16.56-27.897 50.38-52.072 67.52-21.193 17.205-48.204 27.764-75.625 27.844z"/><path d="M287.345 410.816c.938-28.598-15.595-56.048-40.354-69.961-23.43-14.45-51.374-19.045-78.524-18.04H2.012c-6.935 3.933 6.126 15.82 8.083 21.292 9.82 12.785 21.528 26.598 37.958 30.334 22.102.837 44.28.153 66.413.375 22.782.519 45.775-1.583 68.322 2.52 33.01 6.655 66.087 27.294 77.89 60.146 2.626 6.313 6.18 12.745 11.126 17.542 13.86 5.889 15.253-13.611 16.031-22.75.72-7.141.402-14.348-.49-21.458zM392.679 410.816c1.152-29.757 18.166-58.452 44.731-72.357 23.005-13.182 49.932-16.524 76.027-15.643h165.908c4.61 6.076-5.683 13.367-7.208 19.323-8.97 13.006-20.984 24.835-35.625 31.177-11.695 2.735-23.887 1.018-35.826 1.5-28.626.174-57.268-.377-85.882.333-37.327 2.443-76.56 21.294-93.126 56.375-3.75 8.922-5.537 22.667-17 24.625-12.445-1.289-11.604-17.312-12-26.635v-18.698zM447.345 269.482c-1.827 15.914-9.432 31.753-23.468 40.323-17.894 10.539-39.592 12.077-59.865 10.344-3.873 1.453-10.257-2.412-4.667-5.333 7.144-4.875 15.075-8.816 20.828-15.51 10.524-10.839 17.673-25.213 18.006-40.49 2.072-9.765.822-19.83 1.166-29.748V110.816h49.334c-.062 46.16.123 92.322-.094 138.48-.817 6.73-1.484 13.39-1.24 20.186z"/></svg>