<svg xmlns="http://www.w3.org/2000/svg" width="296.89" height="296.89"><path d="M75.1 129.96c17.56-14.01 26.34-21.02 39.68-24.2 21.8-5.23 47.19-.56 63.27 14.15 5.5 5.04 10.03 11.05 14.4 17.1 6.5 9.02 12.93 18.65 14.53 29.65 2.4 16.46-9.67 30.28-6.82 45.91 1.48 8.11 5.98 19.21 19.74 31.25l3.64 9.55a81.72 81.72 0 01-23.97.62s-23.62-2.9-40.3-17.66a24.86 24.86 0 01-3.67-3.98 32.92 32.92 0 01-1.17-1.83c-.13-.2-.26-.44-.41-.7l-.8-1.4c-4.27-8.36-5.65-10.32-5.98-10.17-.25.1.2 1.37.13 3.92 0 .33-.03 1.22-.27 2.9-.35 2.45-.95 4.28-1.65 7.77-2.44 12.23-9.92 18.68-21.4 23.63-8.4 3.62-17.4 6.08-25.02 11.13-12.15 8.04-27.43 6.79-41.54 6.07-2.52-.13-5.25-.38-7.13-2.08-3.19-2.87-2.2-8.04-.92-12.14 6.22-19.73 12.73-39.14 21.67-57.81 2.46-5.13 4.22-11.13 9.2-14.33 12.53-8.04 37.01-2.4 33.3-25.22l-44.8-.61c-1.43-.02-5.12.45-7.14-1.77-3.18-3.5-.12-11.01.89-13.48 3.7-9.09 10.3-14.48 12.55-16.27m185.38 45.81l-27.66-13.5c.31 7.43-.29 13.44-1.82 21l29.48-7.5m-3.81-39.03l-28.87-5.22c2.4 7.2 4.01 14.75 4.77 22.53l24.1-17.31m-11.88-34.59l-31.81 3.38a101.32 101.32 0 0111.75 20.4l20.06-23.78m-34.86-.5l12.38-28.55-29.37 12.28a99.84 99.84 0 0116.99 16.27M169.5 72.29a99.2 99.2 0 0120.73 11.13l4.05-30.77L169.5 72.3m-15.68-4.74c3.71.8 7.32 1.8 10.84 2.98l-4.91-30.37-17.78 25.57c3.93.38 7.89.97 11.85 1.82m-40.2-.41a99.22 99.22 0 0122.7-1.77l-13.25-27.24-9.45 29.01M83.13 78.5L56.47 62.16l7.84 30.14a107.68 107.68 0 0118.82-13.81m4.5-2.42a99.77 99.77 0 0121.02-7.83L88.7 46l-1.07 30.06m134.9 131.95c3.54-6.03 5.23-9.6 7.3-16.48l21.5 20.09-28.8-3.61" fill="#e1a213"/><path d="M71.44 11.62S57.6 16.25 37 31.22l38.9 28.69-4.45-48.29M117.06.41s-17.1.6-41.12 9.16l31.72 38.4L117.06.4m47.4 3.36S147.93-.8 122.43.12l18.6 46.13 23.41-42.48m43.88 16.9S193.94 11.4 169.3 4.71l4.01 49.53 35.03-33.59m4.32 2.56l-10.9 48.45 43.47-21.7s-11-13.08-32.56-26.75m57.98 64.73s-6.66-15.72-23.24-35.09l-24.74 43.08 47.98-7.99m13.8 43.5s-1.65-16.98-11.7-40.38l-36.52 33.77 48.22 6.6m.94 45.15s2.89-16.26-.35-40.7l-42.98 21.99 43.32 18.71m-48.3 12.49l35.55 30.97s7.73-14.6 12.12-38.86l-47.67 7.89M33.25 34.4S20.7 43.99 10.33 57.34l41.33 26.27L33.25 34.4m170.9 176.67c6.32-20.08 5.23-37.27 5.23-37.27-2.15-33.17-19.86-63.82-54.96-74.9 0 0-24.68-8.42-45.23-1.02 0 0 15.16-14.32 49.13-5.06l1.58.48c35.55 11.2 50 37.84 55.86 59.32 1.79 6.98 5.57 23.6 1.64 53.73 0 0 9.26-17.38 8.59-40.72l-.03-.03c-.63-49.72-41.2-91.09-92.12-91.95-28.42-.49-51.66 15.13-62.56 24.78l11.07 10.36c-6.03 5.52-13.73 13.2-17.94 21.84 0 0-18.03 35.42-32.28 80.93l14.18-5.46s.54-2.08 1.77-5.55c9.86-28.28 13.03-29.5 13.03-29.5 4.16-5 13.72-5.03 13.72-5.03l33.95-.85s-6.07 17.16-44.92 17.73l-28.84 114s77.5-32.35 104.06-36.24a.38.38 0 01.09-.02l.05-.02-.05.01c14.93-14.48 8.53-44.32 8.53-44.32s-9.4 28.63-24.97 34.39l-.01.02-67.02 23.02 20.42-81.05s42.13-.72 51.03-36.58c0 0-55.45-2.5-59.55 1.56 0 0 14.34-53.94 69.03-49.5 0 0 55 3.49 60.34 64.39.2 6.89-.31 21.83-4.22 30.14-5.63-3.32-12.44-7.18-16.66-9.05l40.48 55.14a199.43 199.43 0 00-37.13-4.45.52.52 0 01-.14-.03c-17.46-2.4-24.88-13.8-24.88-13.8l12.65 26.76.18-.07.01.06c35.87-2.74 79.78 13.58 79.78 13.58l-42.89-59.77m67.03 12.2c-8.06 16.5-16.11 26.4-16.11 26.4l-33.46-35.48 49.57 9.08" fill="#2751a7"/></svg>