<svg xmlns="http://www.w3.org/2000/svg" viewBox="0 0 124.2 124.2" style="background:#fff;fill:#e41b2b"><path d="M105.2 32.7c-4.6 0-8 3-8 7.2s3.4 6.9 8 6.9c4.7 0 8.1-3 8.1-7.2 0-4.3-3.4-7-8-7zm.1 3.5c2.3 0 3.9 1.4 3.9 3.5 0 2.2-1.6 3.6-4 3.6-2.3 0-3.9-1.4-3.9-3.6 0-2.1 1.6-3.5 4-3.5zM24.9 38c-8.7 0-17.6 4.5-17.6 14.5 0 9.2 6.9 12 13.1 14.6 4.2 1.7 9 3.5 9 8.8 0 4.5-4.3 7.4-8.2 7.4-5.9 0-9.2-2.5-11-5L5 85.6c4 3.8 9.8 6 16.4 6 10.3 0 19-6.4 19-16.8 0-10-8.4-13.6-14.7-16.2-3.6-1.4-7.6-3-7.6-7.1 0-4 4.2-5.8 7.3-5.8 4.9 0 7.3 2 9 3.6l5-6c-3-3.3-8.3-5.3-14.5-5.3zm23.1.3v52.5h9.8V70.5l13.9 20.3h12l-14.9-21L83 51.4H72L57.8 70.2v-32Zm55.6 12.2c-10 0-15 5-15 5l4 6s4-4 10-4c3 0 6.8 1 6.8 5v3.1l-8.9 1.4c-7 1.1-13.7 4.6-13.7 13 0 7.5 5 11.5 10.8 11.5 7.6 0 11.7-5 11.7-5l.5 4.3h9.4V61.2c0-8-7.2-10.7-15.6-10.7zm5.8 21v5.8c0 4-3 6.6-7.4 6.6-3.5 0-5.6-1.5-5.6-5 0-5.8 5-6.9 13-7.4z"/></svg>
