<svg xmlns="http://www.w3.org/2000/svg" viewBox="231.4 254.1 30.709 30.709" width="30.709" height="30.709"><path d="M249.7 270.705c3.4 1 6.3 3.8 7.1 7.5.4 1.7.1 3.6-.6 5.4h-3c.7-1.2 1.2-2.5 1.4-4 .2-2.5-.7-5.5-2.8-7.1-.7-.5-1.4-1-2.2-1.4z" fill="#fc0"/><path d="M259 283.505c1.2-3.3.7-7-1.8-9.6-1.6-1.8-3.9-3-6.2-3.6l.1-.4c5 1.2 10.1 4.3 10.9 9.8.2 1.2.1 2.5-.1 3.8zM248.6 271.405c.9.4 1.7 1.1 2.3 2 1.9 2.6 1.5 5.5.9 7.1-.6 2-1.7 3-1.7 3h-3.9c2.5-1.7 4.1-4.3 4.3-7.3 0-1.6-.7-3.6-2.2-4.4z" fill="#036"/><path d="M243.7 272.105c-.8-3.5.1-7.4 2.9-9.9 1.3-1.2 3.1-1.9 4.9-2.2l1.5 2.6c-1.5 0-2.8.2-4.1.8-2.3 1-4.4 3.3-4.8 6-.1.9-.2 1.7-.1 2.5z" fill="#fc0"/><path d="M250.1 257.805c-3.4.7-6.3 2.9-7.4 6.3-.8 2.3-.7 4.9-.1 7.2l-.4.1c-1.5-4.9-1.3-10.9 3.1-14.4.9-.8 2.1-1.4 3.3-1.7zM244.9 272.705c0-1 .1-2 .5-3 1.4-2.9 3.9-4.1 5.7-4.4 2-.4 3.4-.1 3.4-.1l1.9 3.3c-2.7-1.4-5.7-1.4-8.4-.1-1.4.8-2.8 2.4-2.8 4.1zM232.7 278.305c2.3 2.5 5.7 3.9 9.3 3.1 2.4-.5 4.5-2 6.2-3.6l.3.2c-3.5 3.9-8.7 6.8-13.9 4.8-1.2-.4-2.3-1.1-3.2-2z" fill="#036"/><path d="M248.2 275.105c-.8.5-1.7.9-2.8 1.1-3.2.4-5.5-1.3-6.7-2.6-1.4-1.5-1.8-2.9-1.8-2.9l1.9-3.3c.2 3.1 1.7 5.6 4.3 7.3 1.4.8 3.5 1.1 4.9.3z" fill="#036"/><path d="M248.3 276.605c-2.6 2.5-6.4 3.7-10 2.5-1.7-.6-3.2-1.7-4.4-3.1l1.5-2.6c.7 1.2 1.6 2.3 2.8 3.2 2.1 1.5 5.1 2.1 7.6 1 .8-.3 1.5-.7 2.3-1.2z" fill="#fc0"/></svg>