<svg xmlns="http://www.w3.org/2000/svg" viewBox="0 0 336.4 308"><path d="m169 0 92.4 10.5a7 7 0 0 1 4.8 2.8l68.8 92.6a7 7 0 0 1-.3 8.8l-163.8 192a3.5 3.5 0 0 1-5.4 0L1.7 114.8a7 7 0 0 1-.3-8.8L70 13.3a7 7 0 0 1 5-2.8L167.3 0h1.6zm19.2 20a1.5 1.5 0 0 0-2.4 1.8l.1.2L238 86.8a3.5 3.5 0 0 1-2.4 5.8H101a3.5 3.5 0 0 1-3-5.5l.3-.3 52-64.8a1.5 1.5 0 0 0-2-2.1l-.2.1-70.5 71a2.8 2.8 0 0 1-4.9-2v-.2l2.5-51.4a1.4 1.4 0 0 0-2.8-.5v.2L59 96c-.5 2.1-2 3.7-4 4.3h-.3l-33.1 7.2a1.4 1.4 0 0 0 0 2.8H55c2 0 3.7 1 4.7 2.6l.2.3 79.2 141.2a2.1 2.1 0 0 0 3.9-1.7v-.2L78.8 116.4a4.2 4.2 0 0 1 3.5-6h171.3a4.2 4.2 0 0 1 4 5.8l-.2.2-64 136.2a2.1 2.1 0 0 0 3.6 2.1l.2-.2 79.2-141.2c1-1.7 2.6-2.8 4.5-2.9h33.4a1.4 1.4 0 0 0 .5-2.7l-.2-.1-33-7.1c-2.1-.5-3.7-2-4.3-4l-.1-.3L263.9 37a1.4 1.4 0 0 0-2.8.1v.2l2.5 51.4a2.8 2.8 0 0 1-4.7 2.3l-.2-.2z"/></svg>