<svg xmlns="http://www.w3.org/2000/svg" viewBox="0 0 100 100"><path d="M100.1 24 64.7 3.6S59 .3 50 .3c-9.3 0-14.7 3.4-14.7 3.4L2.6 22.5l50 28.7v58l32.8-18.8s5.8-3.3 10.3-11c4-6.7 4.4-13.3 4.4-13.3V24zm-53.4 9.5S54 32 60.2 35.7l9.8 5.6v12.5c0 5.9-5 12-5 12V44L46.7 33.5zm29 47.8L65 87.5v-5.8l8.4-4.7c7.9-5.8 9.2-14.2 9.2-17V34L59.8 21s-3.5-2.3-9.7-2.3-9.6 2.1-9.6 2.1l-8 4.6-5-3 11-6.2s4.3-2.4 11.6-2.4A29 29 0 0 1 62 16.4l25.6 14.8v28.2c.1 4.4-1.9 15-11.9 22z" fill="#005f9e"/><path d="m0 41.3 35 20v6L15.1 55.9 2.6 63 35 81.7v5.7L.3 67.4c.1 2.4 2.2 9.6 6.3 15.2 4.1 5.7 8.8 8 8.8 8l32.1 18.5v-55L.1 26.7v14.4z" fill="#005f9e"/></svg>
