<svg version="1.1" id="prefix__prefix__Layer_1" xmlns="http://www.w3.org/2000/svg" x="0" y="0" viewBox="0 0 100 100" width="200" height="200" xml:space="preserve"><style>.prefix__prefix__st1{fill:#005f9e}</style><path class="prefix__prefix__st1" d="M100.1 24.02L64.69 3.61S59.08.33 50.13.33c-9.32 0-14.72 3.38-14.72 3.38L2.61 22.48l49.9 28.68v57.96l32.84-18.75s5.87-3.24 10.33-10.94c3.93-6.78 4.42-13.34 4.42-13.34V24.02zm-53.4 9.44s7.32-1.35 13.51 2.22c6.19 3.57 9.84 5.67 9.84 5.67s.01 4.97.01 12.4c0 5.95-5.04 12.12-5.04 12.12l.01-21.83L46.7 33.46zm29.02 47.88l-10.69 6.13v-5.75l8.32-4.76c7.92-5.71 9.23-14.13 9.23-17.05l-.03-25.86-22.69-13.06s-3.45-2.26-9.65-2.26-9.58 2.09-9.58 2.09l-7.97 4.58-5.03-2.91 11.01-6.29s4.31-2.39 11.53-2.39c6.63 0 11.79 2.59 11.79 2.59l25.62 14.8-.03 28.22c.18 4.34-1.84 14.94-11.83 21.92z"/><path class="prefix__prefix__st1" d="M.09 41.25l34.98 20.07-.03 5.98-19.9-11.41-12.52 7.12 32.4 18.67.02 5.76L.33 67.47c.09 2.34 2.21 9.55 6.27 15.13 4.12 5.65 8.82 8.05 8.82 8.05l32.08 18.47V54.04L.12 26.83.09 41.25z"/></svg>
