<svg xmlns="http://www.w3.org/2000/svg" viewBox="0 0 24 24"><path d="M.3 9.11 5.35 2.7a.6.6 0 0 1 .38-.23l6.18-.95a.6.6 0 0 1 .18 0l6.18.95a.6.6 0 0 1 .38.23l5.05 6.4a.6.6 0 0 1-.02.76L12.34 23.1a.45.45 0 0 1-.68 0L.32 9.87a.6.6 0 0 1-.02-.76zm13.28-5.16 4.33 4a.3.3 0 0 0 .5-.25l-.3-2.74a.15.15 0 0 1 .28-.08l1.47 3.3a.8.8 0 0 0 .48.43l1.78.6a.15.15 0 0 1-.04.29h-1.64a.8.8 0 0 0-.68.37l-6.43 10.06a.15.15 0 0 1-.26-.15l4.59-9.56a.5.5 0 0 0-.45-.72H6.79a.5.5 0 0 0-.45.72l4.6 9.56a.15.15 0 0 1-.27.15L4.24 9.87a.8.8 0 0 0-.68-.37H1.92a.15.15 0 0 1-.04-.3l1.79-.59a.8.8 0 0 0 .47-.43l1.47-3.3a.15.15 0 0 1 .28.08L5.6 7.7a.3.3 0 0 0 .5.26l4.33-4a.15.15 0 0 1 .22.2L7.9 7.51a.3.3 0 0 0 .23.49h7.74a.3.3 0 0 0 .23-.49l-2.74-3.35a.15.15 0 0 1 .21-.2z"/></svg>
