<svg xmlns="http://www.w3.org/2000/svg" width="513" height="516" fill="none"><g fill="#000" clip-path="url(#a)"><path d="M332.755 27.405c6.006 0 12.012.429 18.448.858l4.719.429 4.719.858c2.574.429 6.435 1.287 9.01 1.716 2.574.429 5.148 1.287 7.722 2.145 4.719 1.287 9.438 3.003 14.157 5.148 2.575 1.287 6.007 2.574 8.581 3.861 0 0 .429.43.858.43C300.15-23.22 163.722-12.066 75.344 76.741c-2.145 2.574-5.577 6.006-7.722 8.151-2.145 2.145-6.864 8.151-9.01 10.296-2.144 2.575-5.148 6.436-6.864 9.01-2.574 3.432-6.864 9.438-9.009 12.87-2.145 3.003-4.72 7.294-6.435 10.726-.858 1.716-5.148 9.009-6.007 10.725-1.287 3.003-4.719 9.439-6.006 12.013-1.287 3.003-3.003 7.293-4.29 10.296-.429.858-3.432 9.438-3.861 10.726l-4.29 12.87c-1.287 4.29-2.574 9.009-3.432 13.3-.43 1.716-2.145 9.438-2.574 11.154-.43 3.003-1.288 8.151-1.717 11.155-3.432 20.163-4.29 40.756-2.574 60.92.43 4.29 1.287 9.438 1.716 13.3.43 2.574 1.716 9.867 2.146 12.441.429 2.145 1.287 5.577 1.716 7.722l.858 4.291c.858 3.432 2.145 8.58 3.432 12.012.858 2.145 3.003 9.438 3.86 12.013 1.288 3.003 3.004 7.722 3.862 10.725 1.287 3.003 4.29 9.438 5.148 12.442l3.861 8.151.858 2.145.43.858.857.858 2.146 3.861c1.287 2.145 3.003 6.006 4.29 7.722 1.716 2.575 5.577 9.01 7.293 11.584 1.287 1.716 3.861 5.577 5.148 7.293 2.145 2.574 6.007 8.152 8.152 10.726 3.432 3.861 8.151 9.867 12.012 13.728l6.435 6.436 3.433 3.003 1.716 1.716c1.716 1.716 4.29 3.861 6.006 5.148 2.145 1.716 4.29 3.432 6.006 4.719.858.429 4.72 3.432 5.577 3.861 3.003 1.716 6.436 4.29 9.439 6.007 3.003 1.716 6.864 3.432 9.867 5.148 2.145.858 4.29 1.716 6.006 2.574 5.578 2.145 11.155 4.29 17.161 6.006 5.577 1.716 12.013 3.003 17.59 3.861 5.148.858 10.725 1.287 15.873 1.716h9.439c48.05-1.716 93.097-26.599 120.554-67.784.858-1.288 2.574-4.72 3.432-5.578 1.287-2.145 3.003-5.577 4.29-8.151l3.003-6.006c.858-2.574 2.574-6.007 3.432-8.152l1.716-4.29 1.288-4.29c.429-1.287.858-3.003 1.287-4.29 2.145-7.293 3.432-14.587 4.29-22.309a145.929 145.929 0 0 0 1.287-19.306c-6.006 0-12.442-.858-18.448-1.716-27.028-3.432-52.34-14.157-73.791-31.318-44.618-35.18-65.64-92.668-54.914-148.44C195.469 77.6 260.68 26.976 332.755 27.405Zm-222.231 392.98c-3.003-2.145-6.006-5.148-8.581-7.723C78.347 389.495 59.9 361.18 47.458 330.72c-.858-2.145-2.574-6.864-3.432-9.009-.858-3.861-3.003-9.01-3.861-12.442-.858-3.003-1.716-6.435-2.574-9.438l-1.287-6.435c-7.294-33.893-7.294-69.501.429-103.394C64.19 64.3 189.892-18.071 315.594 8.528c-16.731-2.574-33.892-3.861-51.053-3.003C120.82 12.389 15.281 144.097 41.452 285.673c8.58 46.334 31.318 89.665 64.353 123.128 2.574 2.574 5.148 5.148 8.151 7.294 52.769 45.904 135.141 44.188 184.049-6.865-48.05 54.486-133.425 57.489-187.481 11.155Zm17.59-42.473c-2.146-2.145-5.578-6.006-7.723-8.58-2.145-2.574-5.577-6.436-7.293-9.01C10.992 227.327 90.36 33.84 256.39 11.531c22.738-2.574 46.334-1.716 69.072 2.574-30.461-4.72-61.35-3.003-90.952 5.148-44.189 11.584-84.088 38.183-112.403 73.791-61.35 74.649-63.494 186.623-4.29 263.417 1.716 2.574 5.148 6.435 7.293 9.009 2.146 2.575 5.149 6.436 7.723 8.581 43.76 50.195 123.986 56.201 172.465 8.151-47.621 51.911-130.851 46.334-177.184-4.29Zm47.192-15.874c-3.433-2.574-6.865-5.148-9.868-8.151-21.88-20.593-38.611-46.334-48.908-74.649C73.628 162.116 149.993 33.84 274.409 17.966c20.163-2.574 40.756-1.716 60.92 2.145-13.299-1.716-27.028-2.574-40.328-1.716C143.987 27.834 60.329 196.01 145.274 321.282l3.003 4.29 3.004 3.861c3.003 3.861 6.435 8.151 9.438 11.583 36.466 43.331 102.106 55.773 148.011 20.164-37.325 32.606-94.384 30.032-133.424.858Zm26.599-40.756 3.003 3.003c2.574 2.145 5.577 4.719 8.151 6.435 1.287.858 4.29 2.574 5.148 3.432 2.574 1.287 4.719 3.003 7.294 4.29 1.287.429 4.29 2.574 5.577 3.003 24.454 11.155 52.34 12.871 77.652 3.862-9.438 3.861-19.306 6.435-29.602 7.293-1.716 0-5.148.429-6.435.429h-6.436c-17.589-.858-34.75-6.006-50.195-15.016-1.287-.858-4.29-2.574-5.577-3.432-1.287-.858-4.29-3.003-5.577-3.861-2.145-1.287-4.29-3.432-6.007-4.719-72.074-63.495-77.223-176.755-12.012-247.114 22.738-24.883 52.769-42.902 85.804-51.053 22.737-5.578 46.333-6.436 69.071-2.575-34.321-3.86-69.501 2.575-100.39 18.448-104.68 54.914-125.273 195.632-39.469 277.575Z"/><path d="M200.188 184.854c-4.719-.858-9.867-1.287-15.015-1.716v.429c5.148 0 10.296.429 15.015 1.287.429 0 .429 0 0 0Z"/><path d="M438.293 438.833c2.145-2.574 5.578-6.006 7.723-8.151 2.145-2.145 6.864-8.152 9.009-10.297 2.145-2.574 5.148-6.435 6.864-9.009 2.574-3.432 6.865-9.438 9.01-12.871 2.145-3.003 4.719-7.293 6.435-10.725.858-1.716 5.148-9.009 6.006-10.725 1.287-3.004 4.719-9.439 6.006-12.013 1.287-3.003 3.004-7.293 4.291-10.296.429-.858 3.432-9.439 3.861-10.726l4.29-12.87c1.287-4.291 2.574-9.01 3.432-13.3.429-1.716 2.145-9.438 2.574-11.154.429-3.004 1.287-8.152 1.716-11.155 3.003-20.164 3.432-40.757 1.716-60.92-.429-4.291-1.287-9.439-1.716-13.3-.429-2.574-1.716-9.867-2.145-12.441-.429-2.146-1.287-5.578-1.716-7.723l-.858-4.29c-.858-3.432-2.145-8.58-3.432-12.012-.858-2.146-3.003-9.439-3.861-12.013-1.287-3.003-3.003-7.722-3.861-10.725-1.287-3.003-4.291-9.439-5.149-12.442l-3.861-8.151-.858-2.145-.429-.858-.429-.858-2.145-3.862c-1.287-2.145-3.003-6.006-4.29-7.722-1.716-2.574-5.577-9.009-7.293-11.583-1.287-1.716-3.862-5.578-5.149-7.294-2.145-2.574-6.006-8.151-8.151-10.725-3.432-3.861-8.151-9.868-12.012-13.729l-6.436-6.435-3.432-3.003-1.716-1.716c-1.716-1.716-4.29-3.861-6.006-5.148-2.145-1.716-4.29-3.432-6.006-4.72-.858-.428-4.72-3.432-5.578-3.86-3.003-1.717-6.435-4.29-9.438-6.007-3.003-1.716-6.864-3.432-9.867-5.148-2.146-.858-4.291-1.716-6.007-2.574-4.719-2.145-9.867-3.861-15.015-5.148-2.145-.43-4.29-1.287-6.436-1.716-1.287-.43-5.148-1.288-6.435-1.288-2.145-1.287-4.719-1.716-6.435-2.145-5.148-.858-10.726-1.287-15.874-1.716H329.752c-48.05 1.716-93.097 26.6-120.125 67.785-.858 1.287-2.574 4.719-3.432 5.577-1.287 2.145-3.003 5.578-4.29 8.152l-3.004 6.006c-.858 2.574-2.574 6.006-3.432 8.151l-1.716 4.29-1.287 4.291c-.429 1.287-.858 3.003-1.287 4.29-2.145 7.293-3.432 14.586-4.29 22.309-1.287 6.864-1.716 13.299-1.716 19.734 33.463 0 65.64 11.584 92.239 32.177 44.618 35.179 65.639 92.668 54.914 148.44-14.158 74.649-79.368 125.273-151.443 124.844-6.006 0-12.013-.429-18.448-.858l-4.719-.429-4.719-.858c-2.575-.429-6.436-1.287-9.01-1.716-2.574-.429-5.148-1.287-7.722-2.145-4.719-1.287-9.438-3.003-14.158-5.148-2.574-1.287-6.006-2.575-8.58-3.862 0 0-.429-.429-.858-.429 100.819 66.069 237.247 54.915 325.624-33.892Zm-166.459 33.034c105.11-54.914 126.132-195.632 40.328-277.574l-3.003-3.003c-2.574-2.145-5.577-4.719-8.151-6.435-1.287-.858-4.29-2.575-5.149-3.433-2.574-1.287-4.719-3.003-7.293-4.29-1.287-.429-4.29-2.145-5.577-3.003-24.454-11.154-52.34-12.87-77.652-3.861 9.438-3.861 19.306-6.435 29.602-7.293 1.716 0 5.148-.429 6.435-.429h6.435c17.59.858 34.751 6.006 50.196 15.015 1.287.858 4.29 2.574 5.577 3.432 1.287.858 4.29 3.004 5.577 3.862 2.145 1.287 4.29 3.432 6.006 4.719 72.075 63.494 77.223 176.755 12.013 247.114-22.738 24.883-52.769 42.902-85.804 51.053-22.738 5.577-46.334 6.435-69.072 2.574 33.464 3.861 68.643-2.574 99.532-18.448Zm-52.769 25.312c150.586-9.438 234.244-177.613 149.298-302.886l-3.003-4.29-3.003-3.861c-3.003-3.862-6.435-8.152-9.438-11.584-36.467-43.331-102.106-55.772-148.011-20.164 37.324-32.605 94.384-30.031 133.424-.858 3.432 2.574 6.865 5.148 9.868 8.152 21.88 20.592 38.611 46.334 48.908 74.649 42.901 117.121-33.893 244.969-157.879 261.271-20.164 2.575-40.757 1.717-60.92-2.145 13.728 2.145 27.457 2.574 40.756 1.716Zm60.492-.858c44.189-11.583 84.087-38.182 112.402-73.791 60.921-74.649 63.066-186.622 3.862-263.416-1.716-2.575-5.149-6.436-7.294-9.01-2.145-2.574-5.148-6.435-7.722-8.58-43.76-50.195-123.986-56.201-172.465-8.152 47.192-51.91 130.85-46.334 176.755 4.291 2.145 2.145 5.577 6.006 7.722 8.58 2.146 2.574 5.578 6.435 7.294 9.009 102.106 132.567 22.738 326.483-143.292 348.363-23.167 3.003-46.334 2.145-69.072-2.574 30.889 5.148 62.208 3.432 91.81-4.72Zm-81.514 10.726c16.732 2.574 33.893 3.861 51.054 3.003 144.149-6.435 249.259-138.144 223.089-280.149-8.581-46.333-31.319-89.664-64.353-123.128-2.574-2.574-5.148-5.148-8.151-7.293-52.769-45.905-135.141-44.189-184.049 6.864 48.05-54.485 133.425-57.488 187.481-11.154 3.003 2.145 6.006 5.148 8.58 7.722 23.596 23.167 42.044 51.482 54.485 81.943.859 2.145 2.575 6.864 3.433 9.009 1.287 3.432 3.003 9.009 3.861 12.441.858 3.004 1.716 6.436 2.574 9.439l1.287 6.435c7.293 33.893 7.293 69.501-.429 103.393-27.457 125.703-153.159 208.074-278.862 181.475Z"/></g><defs><clipPath id="a"><path fill="#fff" d="M.695.489h512.14v514.82H.695z"/></clipPath></defs></svg>