<svg xmlns="http://www.w3.org/2000/svg" viewBox="0 0 731 88.1"><path fill="#fa490a" d="M150.8 1.9h21.9v21.9h-21.9z"/><path fill="#fff" d="M202.8 1.9h18.9v84.5h-18.9V1.9zm115.7 54.4L277 1.9h-17.6v84.5h18.9V33.5l40.3 52.9h18.9V1.9h-18.9v54.4zM41.8 35.7c-8-2-13.1-3.7-15.4-5.1-2.2-1.5-3.3-3.4-3.3-5.9 0-2.5.9-4.4 2.7-5.9 1.8-1.5 4.3-2.2 7.4-2.2 7.8 0 15.4 2.8 22.7 8.3l9.5-13.8c-4.2-3.5-9.1-6.3-14.7-8.2C45.1 1 39.5 0 33.8 0 25.2 0 18 2.2 12.3 6.5 6.5 10.9 3.7 17 3.7 25.1c0 8 2.3 13.9 6.8 17.6 4.6 3.7 11.7 6.8 21.6 9.1 6.2 1.5 10.4 3 12.5 4.5 2.1 1.5 3.1 3.5 3.1 6s-1 4.6-3 6c-2 1.5-4.7 2.2-8.2 2.2-7.7 0-16.2-4-25.3-12L0 72.5c10.7 9.9 22.8 14.9 36.1 14.9 9.3 0 16.7-2.4 22.4-7.1 5.7-4.7 8.5-10.9 8.5-18.4 0-7.6-2.2-13.3-6.6-17.3-4.4-3.9-10.6-6.9-18.6-8.9zM547 44.3c0-24.4-19.5-44-43.9-44-24.3 0-43.9 19.6-43.8 44 0 24.3 19.6 43.8 43.8 43.7 24.3.1 43.9-19.5 43.9-43.7zm-18.4-.2c.1 14.1-11.5 25.8-25.5 25.8s-25.5-11.7-25.4-25.8c.1-14 11.5-25.4 25.5-25.4 14-.1 25.4 11.3 25.4 25.4zM731 2h-68.5v16.6h25.8v67.8h18.9V18.6H731V2zM441.2 32.3c0 20.4-13.2 32.1-35 32.1h-12.3v22H375V2h30.1c22.5 0 36.1 11 36.1 30.3zm-18.1.9c0-6.4-3-14.6-19.4-14.6H394v29.3h10.8c14.6 0 18.3-8.3 18.3-14.7zm-303.9 8.2l32.2 45h22.8l-32.2-45h-22.8zM100.3 1.9v84.5h18.9V1.9h-18.9zm521.9 84.5l-15.8-22h-13.3v22h-18.9V1.9l30.2.1c22.4 0 36 11 36 30.3 0 13.1-5.4 22.6-15.1 27.7l18.9 26.4h-22zm-29-38.5H604c14.7 0 18.3-8.3 18.3-14.6s-3-14.6-19.4-14.6h-9.7v29.2z"/></svg>
