<svg xmlns="http://www.w3.org/2000/svg" xmlns:xlink="http://www.w3.org/1999/xlink" width="183.1" height="183.1"><defs><linearGradient x1="0" y1=".5" x2="1" y2=".5" id="a"><stop stop-color="#872166" offset="0%"/><stop stop-color="#4F2455" offset="100%"/></linearGradient><linearGradient xlink:href="#a" id="b" x1=".585" y1="166.776" x2="331.905" y2="166.776" gradientTransform="matrix(1.71076 0 0 .58454 19.85 -11.3)" gradientUnits="userSpaceOnUse"/></defs><path d="M92.55 67.3c-6-.4-19.8-1.3-19.8-13.7 0-15 19.9-15 27.3-15 13.1 0 30.1 3.9 42.2 7.5 0 0 6.8 2.4 12.5 4.8l.5.1V10l-.7-.2c-14.3-5-30.9-9.8-61.8-9.8-53.2 0-72 31-72 57.5 0 15.3 6.6 51.3 67.5 55.5 5.2.3 18.9 1.1 18.9 14 0 10.6-11.2 16.9-30.1 16.9-20.7 0-40.7-5.3-52.9-10.3v42.3c18.2 4.8 38.8 7.2 62.9 7.2 52 0 75.3-29.3 75.3-58.4 0-33-26-54.4-69.8-57.4z" fill="url(#b)"/></svg>