<svg xmlns="http://www.w3.org/2000/svg" height="1000" width="1000"><defs><linearGradient id="a" x1="8.393" y1="1.106" x2="11.125" y2="18.354" gradientUnits="userSpaceOnUse"><stop offset=".012" stop-color="#00b7f0"/><stop offset=".339" stop-color="#009de5"/><stop offset=".755" stop-color="#0082d9"/><stop offset="1" stop-color="#0078d4"/></linearGradient><linearGradient id="b" x1="14.379" y1="26.645" x2="29.546" y2="17.889" gradientUnits="userSpaceOnUse"><stop offset="0" stop-color="#0078d4"/><stop offset=".37" stop-color="#007ad5"/><stop offset=".573" stop-color="#0082d9"/><stop offset=".735" stop-color="#0090df"/><stop offset=".875" stop-color="#00a3e7"/><stop offset="1" stop-color="#00bcf2"/></linearGradient><linearGradient id="c" x1="10.45" y1="6.689" x2="24.291" y2="30.662" gradientUnits="userSpaceOnUse"><stop offset="0" stop-color="#00b7f0"/><stop offset="1" stop-color="#007cc1"/></linearGradient></defs><path d="M18.518 9.73a8.759 8.73 0 01-8.759 8.73A8.759 8.73 0 011 9.73 8.759 8.73 0 019.759 1a8.759 8.73 0 018.759 8.73" transform="matrix(33.33333 0 0 33.33333 -28.75 -33.333)" fill="url(#a)"/><path d="M30.725 22.267A8.762 8.733 0 0121.963 31a8.762 8.733 0 01-8.762-8.733 8.762 8.733 0 018.762-8.733 8.762 8.733 0 018.762 8.733" transform="matrix(33.33333 0 0 33.33333 -28.75 -33.333)" fill="url(#b)"/><path d="M5.65 315.9A291.933 291.933 0 10332.883 2.233 530.5 530.5 0 005.65 315.9z" fill-rule="evenodd" opacity=".05"/><path d="M994.65 688a292.033 292.033 0 10-317.767 310.8A530.5 530.5 0 00994.65 687.967z" fill-rule="evenodd" opacity=".05"/><path d="M19.317 382.433a291.833 291.833 0 10379.933-363.9 496.433 496.433 0 00-379.933 363.9z" fill-rule="evenodd" opacity=".1"/><path d="M981.383 619.6a291.933 291.933 0 10-373.066 364.633A496.433 496.433 0 00981.383 619.6z" fill-rule="evenodd" opacity=".1"/><path d="M30.05 410.033A291.767 291.767 0 10426.517 30.367 479.567 479.567 0 0030.05 410.033z" fill-rule="evenodd" opacity=".1"/><path d="M970.617 591.433A291.867 291.867 0 10580.183 972.9a479.533 479.533 0 00390.434-381.467z" fill-rule="evenodd" opacity=".1"/><path d="M29.737 16.065a13.873 13.827 0 01-13.873 13.827A13.873 13.827 0 011.991 16.065 13.873 13.827 0 0115.864 2.238a13.873 13.827 0 0113.873 13.827" transform="matrix(33.33333 0 0 33.33333 -28.75 -33.333)" fill="url(#c)"/><path d="M370.017 486.167A145.267 145.267 0 01324.45 438.1a132.867 132.867 0 01-15.6-66.433 119.4 119.4 0 0128.133-80.4 169.333 169.333 0 0173.334-49 283.167 283.167 0 0196-16.167 372.8 372.8 0 0163.866 4.9 230.6 230.6 0 0144.3 11.433 85.867 85.867 0 0134.667 22.134 44.8 44.8 0 0110.7 29.766 43.133 43.133 0 01-11.267 31.034 37.467 37.467 0 01-28.3 11.8 50.967 50.967 0 01-21.033-4.734 381.133 381.133 0 00-50.1-18.333 181.833 181.833 0 00-48.267-6 110.167 110.167 0 00-60.466 15.467 50.3 50.3 0 00-24.134 45.166 45.433 45.433 0 0012.534 31.767 114.2 114.2 0 0033.766 24.167q21.234 10.533 63.334 27.933a65.667 65.667 0 019.066 3.633 449.9 449.9 0 0178.4 40.3 158.067 158.067 0 0148.267 49.534 130.667 130.667 0 0117.433 68.8A138.367 138.367 0 01654.95 697.8a143.467 143.467 0 01-67.5 50.1 284.567 284.567 0 01-101.467 16.533 319.667 319.667 0 01-138.3-26.166 75.267 75.267 0 01-28.466-22.134A49.767 49.767 0 01309.95 686a39.367 39.367 0 0112.167-30.667 44.833 44.833 0 0131.366-11.066 80.233 80.233 0 0136.667 9.433q21.067 10.533 33.233 15.8a166.933 166.933 0 0028.667 9.067 164 164 0 0036.833 3.8 98.333 98.333 0 0061.9-16.5 54.5 54.5 0 0020.867-45.2 48 48 0 00-13.067-33 138.9 138.9 0 00-38.466-28q-25.434-13.4-71.534-32.667a443.033 443.033 0 01-78.566-40.833" fill="#fff" fill-rule="evenodd"/></svg>