<svg xmlns="http://www.w3.org/2000/svg" width="60.6" height="60.6"><path d="M30.3 48.002a23.845 23.845 0 0016.972-7.03A23.845 23.845 0 0054.302 24v-.493h-2.815V24c0 5.66-2.204 10.98-6.205 14.982A21.049 21.049 0 0130.3 45.187c-5.66 0-10.98-2.203-14.982-6.205a21.048 21.048 0 01-6.205-14.983v-.493H6.298v.493a23.844 23.844 0 007.03 16.972 23.845 23.845 0 0016.972 7.03zm0-38.888c8.208 0 14.886 6.678 14.886 14.886 0 8.209-6.678 14.887-14.886 14.887-8.208 0-14.887-6.678-14.887-14.887 0-8.208 6.679-14.886 14.887-14.886zm0 32.588a17.59 17.59 0 0012.517-5.185A17.586 17.586 0 0048 24a17.58 17.58 0 00-5.184-12.516A17.586 17.586 0 0030.3 6.299a17.586 17.586 0 00-12.517 5.185A17.586 17.586 0 0012.6 23.999a17.58 17.58 0 005.184 12.517A17.586 17.586 0 0030.3 41.702zm27.485-18.195V24c0 7.342-2.859 14.244-8.05 19.435-5.191 5.191-12.094 8.05-19.435 8.05-7.341 0-14.244-2.859-19.435-8.05C5.674 38.244 2.815 31.342 2.815 24v-.493H0V24c0 4.09.801 8.058 2.382 11.795a30.197 30.197 0 006.493 9.63A30.2 30.2 0 0030.3 54.301a30.2 30.2 0 0021.425-8.875 30.199 30.199 0 006.493-9.63A30.113 30.113 0 0060.6 23.999v-.493h-2.815zm-17.02 4.213H35.53V16.5h-3.032v13.926h8.267zm-15.191.247c-2.36 0-3.993-1.543-3.993-1.543l-1.686 2.074s2.178 2.12 5.621 2.12c3.07 0 5.055-1.686 5.055-4.294 0-2.732-2.168-3.636-4.511-4.205-2.718-.65-2.85-1.101-2.85-1.843 0-.812.686-1.316 1.791-1.316 1.732 0 3.085 1.013 3.085 1.013l1.707-2.104s-1.748-1.558-4.754-1.558c-2.837 0-4.744 1.678-4.744 4.175 0 2.64 1.71 3.57 4.664 4.284 2.696.623 2.696 1.162 2.696 1.785 0 .87-.798 1.412-2.081 1.412z" fill="#0c71bf" fill-rule="evenodd"/></svg>