<svg xmlns="http://www.w3.org/2000/svg" width="53.867" height="53.867" class="c-nav--footer__svgicon c-slackhash"><g fill="none" fill-rule="evenodd"><path d="M19.766 0a5.381 5.381 0 00-5.376 5.387 5.381 5.381 0 005.376 5.386h5.376V5.387A5.381 5.381 0 0019.766 0m0 14.365H5.43a5.381 5.381 0 00-5.376 5.386 5.381 5.381 0 005.376 5.387h14.336a5.381 5.381 0 005.376-5.387 5.381 5.381 0 00-5.376-5.386" fill="#36c5f0"/><path d="M53.814 19.751a5.381 5.381 0 00-5.376-5.386 5.381 5.381 0 00-5.376 5.386v5.387h5.376a5.381 5.381 0 005.376-5.387m-14.336 0V5.387A5.381 5.381 0 0034.102 0a5.381 5.381 0 00-5.376 5.387v14.364a5.381 5.381 0 005.376 5.387 5.381 5.381 0 005.376-5.387" fill="#2eb67d"/><path d="M34.102 53.867a5.381 5.381 0 005.376-5.387 5.381 5.381 0 00-5.376-5.386h-5.376v5.386a5.381 5.381 0 005.376 5.387m0-14.365h14.336a5.381 5.381 0 005.376-5.386 5.381 5.381 0 00-5.376-5.387H34.102a5.381 5.381 0 00-5.376 5.387 5.381 5.381 0 005.376 5.386" fill="#ecb22e"/><path d="M.054 34.116a5.381 5.381 0 005.376 5.386 5.381 5.381 0 005.376-5.386v-5.387H5.43a5.381 5.381 0 00-5.376 5.388m14.336-.001V48.48a5.381 5.381 0 005.376 5.387 5.381 5.381 0 005.376-5.387V34.117a5.381 5.381 0 00-5.376-5.387 5.381 5.381 0 00-5.376 5.387" fill="#e01e5a"/></g></svg>