<svg xmlns="http://www.w3.org/2000/svg" shape-rendering="geometricPrecision" image-rendering="optimizeQuality" fill-rule="evenodd" viewBox="0 0 509 511.64" xmlns:v="https://vecta.io/nano"><g fill="#026c97"><path d="M76.028.013h359.709a44.094 44.094 0 0130.931 12.909 44.138 44.138 0 0112.916 30.938v226.988h-19.089V43.94a25.025 25.025 0 00-7.327-17.518 24.986 24.986 0 00-17.518-7.32H75.639a24.95 24.95 0 00-9.749 1.684 24.933 24.933 0 00-8.326 5.334 24.944 24.944 0 00-5.61 8.152 24.945 24.945 0 00-2.006 9.668v226.908H30.86V43.86a44.09 44.09 0 013.536-17.083 44.149 44.149 0 019.889-14.371 44.063 44.063 0 0114.694-9.414A44.17 44.17 0 0176.028.013z"/><path fill-rule="nonzero" d="M330.15 267.232a60.36 60.36 0 0 0 23.248-3.777 60.329 60.329 0 0 0 33.783-31.508 60.376 60.376 0 0 0 5.381-22.933 60.51 60.51 0 0 0-19.512-41.371 60.55 60.55 0 0 0-42.9-15.888 60.515 60.515 0 0 0-62.412 58.218 60.502 60.502 0 0 0 19.518 41.371 60.505 60.505 0 0 0 42.894 15.888zm158.236-26.341a270.832 270.832 0 0 1-188.006 49.623c-19.082 0-39.506-2.1-39.506 28.442v3.435c29.394 19.082 57.259 19.082 78.253-13.748 13.553-20.799 31.877-13.741 22.141 13.366a78.843 78.843 0 0 1-76.347 52.293 119.383 119.383 0 0 1-22.899-2.482v84.553a50.855 50.855 0 0 0 2.824 21.551 51.011 51.011 0 0 0 11.541 18.411 50.998 50.998 0 0 0 39.646 15.203c60.506 0 92.377-55.735 92.377-114.524a224.612 224.612 0 0 0-10.307-65.465 258.581 258.581 0 0 0 107.46-72.529c9.353-13.741-1.718-29.012-17.177-18.129z"/></g><path fill="#d8711c" d="M247.69 208.249a60.452 60.452 0 01-5.253 23.228 60.561 60.561 0 01-13.808 19.398 60.54 60.54 0 01-20.223 12.56 60.528 60.528 0 01-23.503 3.797 60.48 60.48 0 01-23.249-3.777 60.449 60.449 0 01-20.027-12.393 60.232 60.232 0 01-13.755-19.122 60.3 60.3 0 01-5.388-22.926 60.522 60.522 0 0119.518-41.371 60.526 60.526 0 0142.901-15.888 60.522 60.522 0 0142.887 15.479 60.48 60.48 0 0119.9 41.015zm-43.705 82.265A276.352 276.352 0 0119.99 240.891c-15.458-10.883-26.147 4.388-16.029 17.941a256.353 256.353 0 00107.265 72.529c-36.07 122.912 29.964 180.177 82.07 179.983a50.804 50.804 0 0039.902-14.915 50.778 50.778 0 0011.647-18.432 50.653 50.653 0 002.845-21.624v-97.529a169.472 169.472 0 0037.224 6.682 77.287 77.287 0 0046.229-10.99 77.381 77.381 0 0031.071-35.963c10.494-25.194-7.447-32.447-21.376-13.17-26.918 37.029-61.459 29.394-97.153-4.771-9.736-8.971-15.076-11.453-40.083-10.118h.383z"/></svg>