<svg xmlns="http://www.w3.org/2000/svg" viewBox="0 0 509 511.6"><path fill="#026c97" d="M76 0a44.2 44.2 0 0 0-45.2 43.9v227H50v-227a25 25 0 0 1 25.7-24.8h360a25 25 0 0 1 24.8 24.8v214.5a270.8 270.8 0 0 1-160.1 32.2c-19.1 0-39.5-2-39.5 28.5 33 21.4 63.9 10.8 78.2-10.4 13.6-20.8 31.9-13.7 22.2 13.4a78.8 78.8 0 0 1-76.4 52.3c-7.7 0-15.4-1-22.9-2.5v84.6c0 7.2.3 14.6 2.8 21.5a51 51 0 0 0 51.2 33.6c60.5 0 92.4-55.7 92.4-114.5a224 224 0 0 0-10.3-65.5A258.6 258.6 0 0 0 505.6 259c9.3-13.7-1.8-29-17.2-18.1v.1c-2.9 2-5.8 3.8-8.8 5.7V43.9A44.1 44.1 0 0 0 435.7 0zm254.2 151.8a60.5 60.5 0 0 0-62.5 58.2 60.5 60.5 0 0 0 62.5 57.3l-.1-.1a60.4 60.4 0 0 0 62.5-58.2 60.5 60.5 0 0 0-62.4-57.2Z"/><path fill="#d8711c" d="M247.7 208.2a60.5 60.5 0 0 1-62.8 59 60.5 60.5 0 0 1-57-35.3c-3.3-7.2-5.1-15-5.4-22.9a60.5 60.5 0 0 1 62.4-57.2 60.5 60.5 0 0 1 62.8 56.4zM204 290.5A276.4 276.4 0 0 1 20 241c-15.5-10.9-26.2 4.4-16 18 29 33 65.9 57.9 107.2 72.5-36 122.9 30 180.1 82.1 180a50.8 50.8 0 0 0 54.4-55v-97.6a168 168 0 0 0 37.2 6.7 77.3 77.3 0 0 0 77.3-47c10.5-25.1-7.4-32.4-21.4-13.1-26.9 37-61.4 29.4-97.1-4.8-9.8-9-15-11.4-40.1-10h.4z"/></svg>