<svg xmlns="http://www.w3.org/2000/svg" width="353.767" height="353.767"><path d="M285.71 254.64c-1.849-1.9-1.68-2.496 3.791-13.383 20.27-40.336 20.592-91.247.828-130.728-2.127-4.25-3.868-8.608-3.868-9.683 0-3.088 3.49-3.42 10.772-1.025 12.96 4.264 21.847 9.63 32.095 19.378 10.809 10.283 19.302 24.907 22.788 39.239 2.206 9.066 2.2 26.597-.013 35.695-6.311 25.956-24.487 47.295-48.96 57.483-8.988 3.742-15.615 4.892-17.432 3.025zm-85.203-16.834c-1.21-.765-.677-2.562 3.19-10.734 2.553-5.399 5.584-12.945 6.734-16.77 8.614-28.648 5.963-61.926-6.976-87.558-1.685-3.337-2.764-6.55-2.4-7.141 2.002-3.238 20.44 4.342 30.061 12.358 11.128 9.272 18.655 21.557 21.748 35.493 4.527 20.403-1.733 41.56-16.742 56.585-8.268 8.276-15.44 12.826-25.672 16.288-8.125 2.75-7.972 2.726-9.943 1.48zM124.172 220.1c-.298-.483.996-4.069 2.877-7.967 5.725-11.866 7.702-21.002 7.762-35.875.06-14.704-2.097-25.093-7.38-35.558-1.633-3.237-2.97-6.348-2.97-6.914 0-2.08 5.919-.935 12.7 2.458 8.915 4.46 17.22 13.012 21.585 22.226 3.043 6.424 3.215 7.407 3.215 18.34 0 11.334-.071 11.694-3.753 19.144-4.445 8.994-12.654 17.195-21.311 21.29-6.229 2.947-11.884 4.216-12.725 2.856zm-97.802-4.69C11.899 209.456 2.869 198.19.43 183.046-2.036 167.73 6.325 150.3 19.976 142.3c21.576-12.644 50.241-2.24 59.115 21.457 2.629 7.02 2.387 21.017-.49 28.252-4.427 11.138-13.526 19.926-24.697 23.852-7.863 2.764-20.21 2.561-27.534-.452z" fill="#faa21d"/></svg>