<svg xmlns="http://www.w3.org/2000/svg" viewBox="0 0 117.5 137.4"><path fill="#791f60" d="m40.8 48.8-5.5 11c-.5 1-1.2 1.8-2.2 2.1l-.8.5a3 3 0 0 0-1.7 1.6l-.2.5a9 9 0 0 1 .8 3.9 8 8 0 0 1-1.2 4.4l.4 1c.3.7.8 1.4 1.5 1.8l1 .5c1 .5 1.8 1.2 2.1 2.2l4.1 11.8c.7 2-.3 4.3-2.4 5l-1.4.1-1.7-.3c-1-.5-1.7-1.2-2-2.3L27.5 81c-.4-1-.4-2 .2-3.1l.5-1a4 4 0 0 0 .1-2.4h-.6c-1.7 0-3.3-2.2-3.5-5.1L22 69c-.8-.2-1.7 0-2.2.5l-.8.5c-.7.5-1.4.7-2.3.7H16l-6.6-1A4 4 0 0 1 6 65a4 4 0 0 1 4.7-3.3l6.6 1a4 4 0 0 1 2.6 1.6l.7.9c.5.6 1.2 1.1 2 1.3l1.9.4c.3-2.6 1.7-4.6 3.4-4.6l.9.1v-2l-.4-1c-.3-1-.3-2.1.2-3.1L34 45.2c.6-1 1.2-1.7 2.3-2 1-.4 2-.4 3 .1s1.7 1.2 2 2.2c.4 1 0 2.2-.6 3.3m14.7-37.6C55.5 3.7 48.3-1.6 41 .4L8.2 9.7A11.3 11.3 0 0 0 0 20.4v94.8c0 4.8 3 9 7.7 10.6l33 11c7.3 2.5 14.8-3 14.8-10.5zM101 126.5H62.7v-12.3H101c2.2 0 4-2 4-4.1V26.6a4 4 0 0 0-4-4.1H62.7V10.2H101c9 0 16.4 7.3 16.4 16.2v83.5c0 9.2-7.4 16.6-16.4 16.6M89.3 44.8l-1-.1H88a5.3 5.3 0 0 1-4.3-5.2v-8.1h-21v19.2h21.8a3 3 0 0 1 3 3.1 3 3 0 0 1-3 3H62.7v9h21.8a3 3 0 0 1 3 3 3 3 0 0 1-3 3.1H62.7v9h21.8a3 3 0 0 1 3 3.1 3 3 0 0 1-3 3.1H62.7v19.8H92c3 0 5.3-2.4 5.3-5.3V44.8zm-2.4-13.3v6.3c0 2.3 1.9 4.1 4.1 4.1h6.3z"/></svg>