<svg xmlns="http://www.w3.org/2000/svg" viewBox="0 0 304.4 304.4"><defs><clipPath id="a"><path fill="none" stroke-width="0" d="M270.2 34.2C251.5 16.5 226 6.5 197.6 2.8 170.6-.8 152.2 0 152.2 0s-18.4-.9-45.4 2.7C78.6 6.5 53 16.6 34.2 34.2 16.5 53 6.5 78.6 2.8 106.8c-3.6 27-2.7 45.4-2.7 45.4s-.9 18.4 2.7 45.4c3.7 28.3 13.7 53.9 31.4 72.6 18.7 17.7 44.4 27.7 72.6 31.4 27 3.6 45.4 2.7 45.4 2.7s18.4.9 45.4-2.7c28.3-3.7 53.9-13.7 72.6-31.4 17.7-18.7 27.7-44.3 31.4-72.6 3.6-27 2.7-45.4 2.7-45.4s1-18.4-2.7-45.4C298 78.6 288 53 270.2 34.2" clip-rule="evenodd"/></clipPath></defs><g clip-path="url(#a)"><path fill="#008df7" d="M-9.3-9.3h323v323h-323z"/></g><path fill="#fff" fill-rule="evenodd" d="M226 166.3a28.9 28.9 0 1 0-28.9-28.8v.2l-13 4.3a36.6 36.6 0 0 0-23.2-17.6v-14a28.9 28.9 0 1 0-17.4 0v14a36.7 36.7 0 0 0-23.5 18.1l-12.7-4.1v-1a28.9 28.9 0 1 0-5.7 17.3l14 4.6v.6c0 7.7 2.4 15 6.5 20.8l-9.5 13.2a28.8 28.8 0 0 0-8.5-1.3 28.9 28.9 0 1 0 22.7 11.1l8.4-11.4a36.4 36.4 0 0 0 32.6.7l8.7 12a28.7 28.7 0 0 0-5 16.5 28.9 28.9 0 1 0 18.7-27l-9-12.4a36.4 36.4 0 0 0 7.5-22.2v-1.2l13.7-4.5a28.8 28.8 0 0 0 23.5 12.1Zm0-40.4a11.5 11.5 0 1 1 0 23.1 11.5 11.5 0 0 1 0-23M78.5 149a11.5 11.5 0 1 1 0-23 11.5 11.5 0 0 1 0 23m73.7-77.6a11.5 11.5 0 1 1 0 23.1 11.5 11.5 0 0 1 0-23m-48 161.5a11.5 11.5 0 1 1 0-23 11.5 11.5 0 0 1 0 23m29.7-73a18.3 18.3 0 1 1 36.6 0 18.3 18.3 0 0 1-36.6 0m78 61.5a11.5 11.5 0 1 1-23.1 0 11.5 11.5 0 0 1 23 0"/></svg>