<svg xmlns="http://www.w3.org/2000/svg" width="269" height="269"><path class="st1" d="M199.358.1l-2.2 5.5-15.2 37.6c-.2-.1-.4-.3-.6-.5-5.5-4-11.9-7.3-18.7-9.7l13.4-33h23.3zM102.958 239.1l-12.1 29.9h-23.3l2.2-5.5 14.5-35.9c5.4 4.6 11.7 8.5 18.7 11.5z" fill="#00b073"/><path class="st0" d="M71.358 94.3c0-34.1 31.7-54.4 62.2-54.4 34.6 0 59.4 20.8 61.8 51.7.2 2.3.2 6.8.2 6.8h-28.9s0-3.4-.5-6.2c0 0-.3-1.5-.3-1.6-.1-.4-.2-.9-.3-1.3-.1-.5-.2-.9-.4-1.4-.1-.5-.3-.9-.4-1.3-1.8-4.9-4.9-9-9.1-12.1-.4-.3-.8-.6-1.2-.8-.4-.2-.7-.5-1.1-.7-.3-.2-.6-.4-.9-.5-.2-.1-.5-.3-.7-.4-.6-.3-1.3-.6-1.9-.9-.6-.3-1.3-.6-2-.8-3-1.1-6.3-1.9-9.9-2.2-1.5-.2-3.1-.2-4.8-.2-16.2 0-32.9 9.8-32.9 26.2 0 4 0 15.4 18.3 22.1l-10.4 25.8c-24.4-9.1-36.8-25.1-36.8-47.8zM200.958 184.5c-3.6 30.1-29.4 50.4-64.1 50.4-17.4 0-33.8-5.7-46.2-16.1-11.9-9.9-19.6-23.8-20.7-37.4-.3-3.4 0-7 0-7h28.3s.1 2.3.5 4.6c.4 1.9 1 4.2 1.4 5.2.1.2.2.4.2.7.3.9.7 1.8 1.2 2.7.1.2.2.4.3.7.1.2.2.4.4.7.5.8 1 1.7 1.6 2.5.2.4.5.7.8 1.1 1.9 2.5 4.3 4.9 7 6.9.2.2.4.3.7.5.2.2.4.3.7.5 3.5 2.4 7.6 4.3 12.2 5.6 3.6 1 7.4 1.5 11.5 1.5 15.3 0 32.7-6.7 35.6-25.6 1.4-18.2-13.6-26.3-25.4-29.9l10.4-25.8c14.2 4.6 25.2 11.3 32.6 19.7 9.2 10.4 12.9 23.4 11 38.5z"/><path class="st1" d="M157.058 105.8l-2.4 5.8-19 47-13 32.2c-.6-.3-1.1-.7-1.6-1 0 0-.3-.2-.4-.2l-.6-.5c-11.6-8.2-9.9-23.3-9.4-26.2 0-.3.1-.6.2-.9l3.2-7.9 18.9-46.8 11.4-28.1 2.2 1c11.4 6 10.5 25.6 10.5 25.6z" fill="#00b073"/></svg>