<svg xmlns="http://www.w3.org/2000/svg" xmlns:xlink="http://www.w3.org/1999/xlink" viewBox="0 0 128 128"><defs><path id="a" d="M13.35.92H0V18h13.35z"/><mask id="b" fill="#fff"><use xlink:href="#a" width="100%" height="100%"/></mask></defs><rect width="128" height="128" fill="#8ed6c9" fill-rule="evenodd" rx="20.52" ry="20.52"/><path fill="#424449" fill-rule="evenodd" d="M13.35 12.72c0-3.06-2.12-4.25-5.3-5.07-2.76-.71-3.32-1.03-3.32-1.9V5.7c0-.72.73-1.18 1.85-1.18 1.5 0 2.84.42 4.07 1.28l.2.13 2.1-3.05-.17-.13C11.22 1.5 9.27.92 6.63.92c-3.47 0-5.9 2.1-5.9 5.1v.05c0 3.47 2.51 4.4 5.54 5.16 2.87.74 3.08 1.19 3.08 1.84v.04c0 .81-.78 1.3-2.1 1.3a7.02 7.02 0 0 1-4.68-1.74l-.18-.15L0 15.4l.17.15A10.32 10.32 0 0 0 7.18 18c3.75 0 6.17-2.06 6.17-5.24z" mask="url(#b)" transform="matrix(4.2 0 0 4.2 35.96 24.24)"/></svg>