<svg xmlns="http://www.w3.org/2000/svg" width="20.508" height="20.508" viewBox="0 0 5.426 5.426"><path d="M3.914 1.1l-1.265-.037c-.27 0-.488.003-.655.01a5.398 5.398 0 00-.569.054c-.21.031-.379.087-.504.17-.125.082-.188.221-.188.417 0 .263.066.435.197.518.132.082.338.124.619.124l1.109.027h1.2c.532 0 .926.084 1.183.252.257.168.385.5.385.995 0 .568-.15.924-.453 1.068-.302.143-.767.215-1.395.215l-1.199.018c-.366 0-.645-.005-.837-.014a4.778 4.778 0 01-.714-.1C.544 4.757.335 4.632.201 4.44.067 4.248 0 3.969 0 3.602l.01-.193h.64l.01.101c0 .294.06.495.183.605.123.11.336.18.642.211l1.127.037h.358c.379 0 .718-.017 1.017-.05.3-.034.5-.089.6-.165.101-.077.152-.216.152-.417 0-.306-.075-.514-.225-.624-.15-.11-.39-.165-.72-.165l-1.163-.009H1.52c-.482 0-.849-.076-1.1-.229-.25-.153-.375-.458-.375-.916 0-.428.122-.741.366-.94C.657.65.996.55 1.43.55L2.649.495c.226 0 .446.002.66.005.213.003.455.017.724.041.446 0 .762.093.949.28.186.186.279.5.279.94H4.62c-.025-.245-.082-.408-.17-.49-.089-.083-.267-.14-.536-.17" fill="#068488"/></svg>