<svg xmlns="http://www.w3.org/2000/svg" viewBox="0 0 93.75 88.542"><path d="M80.034 22.326 91.146 5.609l-9.663 27.134 4.349 35.372c.724 6.541-3.865 12.598-10.387 13.567l-54.836 6.784c-6.523.726-12.562-3.877-13.528-10.418L.075 23.052C-.649 16.51 3.94 10.454 10.462 9.485L65.54 2.7c5.556-.727 10.87 2.665 12.803 7.753z" fill="#f35321"/><path d="m24.071 35.04 17.427 18.183 45.56-51.109c3.983-4.669 8.465-.737 5.975 3.44L49.714 69.195c-3.485 4.669-11.7 5.16-14.689.246L17.1 41.429c-4.481-6.389 2.24-11.794 6.971-6.389z" fill="#fff"/></svg>