<svg xmlns="http://www.w3.org/2000/svg" width="64.301" height="64.301"><defs><linearGradient x1="0" y1="0" x2="1" y2="0" gradientUnits="userSpaceOnUse" gradientTransform="scale(-34.44311 34.44311) rotate(-47 .997 2.58)" spreadMethod="pad" id="b"><stop offset="0" stop-color="#2abdc4"/><stop offset="1" stop-color="#426ab2"/></linearGradient><clipPath clipPathUnits="userSpaceOnUse" id="a"><path d="M37.983 55.13c0-2.142 1.743-3.972 3.809-4.384v-3.193c-2.022-.293-3.907-1.487-4.789-3.213l-3.085.98a4.313 4.313 0 01-.466 2.511 4.48 4.48 0 01-2.64 2.205 4.606 4.606 0 01-1.401.218c-1.97 0-3.703-1.231-4.313-3.063-.772-2.326.534-4.832 2.912-5.587a4.588 4.588 0 011.403-.218c1.659 0 3.149.876 3.942 2.25l3.087-.981a5.872 5.872 0 01-.092-.999c0-3.324 2.767-6.029 6.167-6.029 3.401 0 6.167 2.705 6.167 6.029 0 3.023-2.106 5.466-5.077 5.897v3.193c2.066.412 3.445 2.242 3.445 4.384 0 2.444-2.034 4.433-4.535 4.433-2.5 0-4.534-1.989-4.534-4.433m1.813 0c0 1.466 1.222 2.66 2.721 2.66 1.5 0 2.721-1.194 2.721-2.66 0-1.467-1.221-2.661-2.721-2.661-1.499 0-2.721 1.194-2.721 2.661M28.57 43.29c-1.426.454-2.21 1.957-1.746 3.352a2.71 2.71 0 002.587 1.839c.284 0 .567-.044.841-.131a2.697 2.697 0 001.584-1.322 2.593 2.593 0 00.163-2.03 2.707 2.707 0 00-2.586-1.838c-.285 0-.568.043-.843.13m9.957-1.634c0 2.152 1.79 3.902 3.99 3.902s3.991-1.75 3.991-3.902c0-2.15-1.791-3.901-3.991-3.901s-3.99 1.751-3.99 3.901m15.694 8.38c-2.082-.661-3.342-2.666-3.105-4.716l-1.27-.404.559-1.686 1.275.405a4.536 4.536 0 013.942-2.249c.475 0 .947.073 1.401.218a4.483 4.483 0 012.641 2.204 4.319 4.319 0 01.272 3.382c-.61 1.833-2.342 3.064-4.312 3.064-.475 0-.947-.073-1.403-.218m-1.187-5.038c-.462 1.394.322 2.898 1.748 3.352.275.087.557.131.842.131a2.708 2.708 0 002.586-1.839 2.586 2.586 0 00-.163-2.029 2.688 2.688 0 00-1.584-1.323 2.801 2.801 0 00-.841-.13 2.71 2.71 0 00-2.588 1.838m-16.74-10.207c-.586.261-1.219.4-1.873.4a4.585 4.585 0 01-3.672-1.828c-1.469-1.977-1.02-4.756 1.002-6.192a4.579 4.579 0 012.663-.848c1.448 0 2.821.683 3.672 1.828a4.366 4.366 0 01-.323 5.6l.785 1.057-1.467 1.043zm-3.476-6.185a2.625 2.625 0 00-.603 3.715 2.754 2.754 0 002.206 1.096c.576 0 1.128-.175 1.595-.508a2.624 2.624 0 00.602-3.715 2.75 2.75 0 00-2.204-1.098c-.576 0-1.128.177-1.596.51m13.667 6.201l.786-1.057a4.363 4.363 0 01-.322-5.598 4.58 4.58 0 013.671-1.828c.962 0 1.882.293 2.662.846 2.023 1.437 2.473 4.215 1.003 6.193a4.583 4.583 0 01-3.671 1.828 4.586 4.586 0 01-1.874-.4l-.787 1.059zm1.93-5.613a2.625 2.625 0 00.602 3.715 2.74 2.74 0 001.597.509c.87 0 1.694-.41 2.204-1.097a2.627 2.627 0 00-.602-3.716 2.74 2.74 0 00-1.596-.507c-.87 0-1.694.41-2.205 1.096"/></clipPath></defs><path d="M57.084 7.217C50.439 1.321 41.644 0 33.443 0h-2.604C22.34 0 13.488 1.44 7.217 7.217 1.341 13.861 0 22.676 0 30.88v2.524c0 8.478 1.44 17.41 7.217 23.681 6.684 5.915 15.538 7.217 23.78 7.217h2.287c8.519 0 17.49-1.42 23.8-7.217 5.916-6.685 7.217-15.559 7.217-23.8v-2.288c0-8.517-1.42-17.49-7.217-23.779" fill="#fafafa"/><g clip-path="url(#a)" transform="matrix(1.33333 0 0 -1.33333 -24.542 88.806)"><path d="M37.983 55.13c0-2.142 1.743-3.972 3.809-4.384v-3.193c-2.022-.293-3.907-1.487-4.789-3.213l-3.085.98a4.313 4.313 0 01-.466 2.511 4.48 4.48 0 01-2.64 2.205 4.606 4.606 0 01-1.401.218c-1.97 0-3.703-1.231-4.313-3.063-.772-2.326.534-4.832 2.912-5.587a4.588 4.588 0 011.403-.218c1.659 0 3.149.876 3.942 2.25l3.087-.981a5.872 5.872 0 01-.092-.999c0-3.324 2.767-6.029 6.167-6.029 3.401 0 6.167 2.705 6.167 6.029 0 3.023-2.106 5.466-5.077 5.897v3.193c2.066.412 3.445 2.242 3.445 4.384 0 2.444-2.034 4.433-4.535 4.433-2.5 0-4.534-1.989-4.534-4.433m1.813 0c0 1.466 1.222 2.66 2.721 2.66 1.5 0 2.721-1.194 2.721-2.66 0-1.467-1.221-2.661-2.721-2.661-1.499 0-2.721 1.194-2.721 2.661M28.57 43.29c-1.426.454-2.21 1.957-1.746 3.352a2.71 2.71 0 002.587 1.839c.284 0 .567-.044.841-.131a2.697 2.697 0 001.584-1.322 2.593 2.593 0 00.163-2.03 2.707 2.707 0 00-2.586-1.838c-.285 0-.568.043-.843.13m9.957-1.634c0 2.152 1.79 3.902 3.99 3.902s3.991-1.75 3.991-3.902c0-2.15-1.791-3.901-3.991-3.901s-3.99 1.751-3.99 3.901m15.694 8.38c-2.082-.661-3.342-2.666-3.105-4.716l-1.27-.404.559-1.686 1.275.405a4.536 4.536 0 013.942-2.249c.475 0 .947.073 1.401.218a4.483 4.483 0 012.641 2.204 4.319 4.319 0 01.272 3.382c-.61 1.833-2.342 3.064-4.312 3.064-.475 0-.947-.073-1.403-.218m-1.187-5.038c-.462 1.394.322 2.898 1.748 3.352.275.087.557.131.842.131a2.708 2.708 0 002.586-1.839 2.586 2.586 0 00-.163-2.029 2.688 2.688 0 00-1.584-1.323 2.801 2.801 0 00-.841-.13 2.71 2.71 0 00-2.588 1.838m-16.74-10.207c-.586.261-1.219.4-1.873.4a4.585 4.585 0 01-3.672-1.828c-1.469-1.977-1.02-4.756 1.002-6.192a4.579 4.579 0 012.663-.848c1.448 0 2.821.683 3.672 1.828a4.366 4.366 0 01-.323 5.6l.785 1.057-1.467 1.043zm-3.476-6.185a2.625 2.625 0 00-.603 3.715 2.754 2.754 0 002.206 1.096c.576 0 1.128-.175 1.595-.508a2.624 2.624 0 00.602-3.715 2.75 2.75 0 00-2.204-1.098c-.576 0-1.128.177-1.596.51m13.667 6.201l.786-1.057a4.363 4.363 0 01-.322-5.598 4.58 4.58 0 013.671-1.828c.962 0 1.882.293 2.662.846 2.023 1.437 2.473 4.215 1.003 6.193a4.583 4.583 0 01-3.671 1.828 4.586 4.586 0 01-1.874-.4l-.787 1.059zm1.93-5.613a2.625 2.625 0 00.602 3.715 2.74 2.74 0 001.597.509c.87 0 1.694-.41 2.204-1.097a2.627 2.627 0 00-.602-3.716 2.74 2.74 0 00-1.596-.507c-.87 0-1.694.41-2.205 1.096" fill="url(#b)"/></g></svg>