<svg xmlns="http://www.w3.org/2000/svg" version="1.1" id="_x35_0-Top" x="0" y="0" xml:space="preserve" width="499.087" height="499.087"><style type="text/css" id="style52028">.st1{fill-rule:evenodd;clip-rule:evenodd;fill:#fff}</style><g id="g52625" transform="translate(54.4)"><g id="g52615"><path d="M.143 15.143c0-8.3 6.7-15 15-15h360c8.3 0 15 6.7 15 15v468.8c0 8.3-6.7 15-15 15h-360c-8.3 0-15-6.7-15-15z" id="path52030" fill-rule="evenodd" clip-rule="evenodd" fill="#231f20" stroke="#231f20" stroke-width=".287" stroke-miterlimit="3.864"/></g><path class="st1" d="M32.543 453.143h17v-36c0-12.1 8.2-14.3 11.5-14.3 10.8 0 10.3 8.3 10.3 15.5v34.8h17v-34.6c0-7.8 1.8-15.7 11.4-15.7 9.7 0 10.4 6.8 10.4 15.1v35.2h17v-41.5c0-16.1-9.5-22.2-22.7-22.2-8.6 0-15.1 4.9-18.7 10.3-3.4-7.4-10.3-10.3-18.1-10.3-8 0-14.5 3.7-19 10.1h-.2v-8.4h-15.9z" id="path52032"/><path class="st1" d="M199.443 426.243c1.2-19.1-9-36.8-30.1-36.8-18.8 0-31.7 14.2-31.7 32.8 0 19.2 12.1 32.6 31.7 32.6 14 0 24.2-6.2 29-20.9h-15c-1.1 3.8-6.6 8-13.4 8-9.5 0-14.8-4.9-15.2-15.7zm-44.7-10.8c.2-4.8 3.4-13.2 14.2-13.2 8.3 0 12 4.6 13.6 13.2z" id="path52034"/><path class="st1" d="M231.143 372.543h-17v18.6h-10.3v11.4h10.3v36.6c0 12.4 9.1 14.8 19.6 14.8 3.4 0 7.1-.1 10-.6v-13.3c-1.8.4-3.5.5-5.3.5-5.8 0-7.2-1.4-7.2-7.2v-30.7h12.5v-11.5h-12.6z" id="path52036"/><path class="st1" d="M251.643 453.143h17v-28c0-10.9 4.3-19.9 16.8-19.9 2 0 4.6.2 6.1.6v-15.8c-1.1-.4-2.5-.6-3.7-.6-8.3 0-16.7 5.4-19.8 13.2h-.2v-11.5h-16.2z" id="path52038"/><path class="st1" d="M294.243 422.143c0 19.7 12.6 32.6 32 32.6 19.6 0 32.2-13 32.2-32.6 0-19.8-12.6-32.8-32.2-32.8-19.4.1-32 13-32 32.8zm17 0c0-10 3.5-19.9 15-19.9 11.6 0 15.1 10 15.1 19.9 0 9.8-3.5 19.8-15.1 19.8-11.5 0-15-9.9-15-19.8z" id="path52040"/><path class="st1" id="polygon52042" transform="translate(.143 .143)" d="M292.6 142.4h.9v214.1h64.1V30.2h-96.4l-63.9 218.9h-.8L128.8 30.2H32.4v326.3h64.1v-212h.9l67 212h61.2z"/></g></svg>