<?xml version="1.0" encoding="utf-8"?>
<!-- Generator: Adobe Illustrator 16.0.0, SVG Export Plug-In . SVG Version: 6.00 Build 0)  -->
<!DOCTYPE svg PUBLIC "-//W3C//DTD SVG 1.1//EN" "http://www.w3.org/Graphics/SVG/1.1/DTD/svg11.dtd">
<svg version="1.1" id="Layer_1" xmlns="http://www.w3.org/2000/svg" xmlns:xlink="http://www.w3.org/1999/xlink" x="0px" y="0px"
	 width="442px" height="68px" viewBox="0 0 442 68" enable-background="new 0 0 442 68" xml:space="preserve">
<g>
	<path fill="#FFFFFF" d="M47.825,51.024H20.729c-2.067,0-3.749-1.682-3.749-3.748V20.183c0-2.067,1.682-3.749,3.749-3.749l27.094,0
		c1.001,0,1.942,0.389,2.65,1.097c0.708,0.708,1.099,1.649,1.099,2.651v27.095C51.572,49.343,49.891,51.024,47.825,51.024z
		 M22.801,45.204h22.95V22.255l-22.95,0V45.204z"/>
</g>
<g>
	<path fill="#FFFFFF" d="M100.385,25.608c-1.214-1.519-2.776-2.479-4.901-2.479c-2.038,0-3.99,1.439-3.99,3.397
		c0,5.076,12.968,2.958,12.968,13.069c0,6.036-4.077,10.312-10.757,10.312c-4.511,0-7.807-2.397-10.062-5.876l4.121-3.717
		c0.868,2.318,3.166,4.396,5.899,4.396c2.603,0,4.207-2.038,4.207-4.356c0-3.118-3.123-3.997-5.682-4.916
		c-4.208-1.599-7.287-3.558-7.287-8.234c0-4.996,4.034-9.033,9.542-9.033c2.906,0,6.939,1.319,8.935,3.358L100.385,25.608z"/>
	<path fill="#FFFFFF" d="M137.857,30.404h-0.087l-7.417,19.105h-2.212l-7.157-19.105h-0.086l-2.906,18.705h-6.419l5.509-30.936
		h4.511l8.068,19.864l7.72-19.864h4.597l4.901,30.936h-6.419L137.857,30.404z"/>
	<path fill="#FFFFFF" d="M169.951,49.909c-9.976,0-16.179-7.034-16.179-15.908c0-8.953,6.419-15.828,16.179-15.828
		s16.178,6.875,16.178,15.828C186.129,42.875,179.927,49.909,169.951,49.909z M169.951,23.969c-6.029,0-9.585,4.916-9.585,9.792
		c0,4.637,2.515,10.353,9.585,10.353c7.07,0,9.585-5.716,9.585-10.353C179.537,28.885,175.98,23.969,169.951,23.969z"/>
	<path fill="#FFFFFF" d="M209.505,49.909c-9.976,0-16.178-7.034-16.178-15.908c0-8.953,6.419-15.828,16.178-15.828
		c9.759,0,16.179,6.875,16.179,15.828C225.684,42.875,219.48,49.909,209.505,49.909z M209.505,23.969
		c-6.029,0-9.585,4.916-9.585,9.792c0,4.637,2.516,10.353,9.585,10.353c7.07,0,9.585-5.716,9.585-10.353
		C219.09,28.885,215.534,23.969,209.505,23.969z"/>
	<path fill="#FFFFFF" d="M245.069,49.109h-6.376V24.09h-6.593v-5.116h19.561v5.116h-6.592V49.109z"/>
	<path fill="#FFFFFF" d="M277.813,30.844v-11.87h6.376v30.136h-6.376V35.641h-11.797v13.469h-6.376V18.974h6.376v11.87H277.813z"/>
	<path fill="#FFFFFF" d="M316.37,26.967c-1.778-1.998-4.468-3.197-7.2-3.197c-6.115,0-9.628,5.195-9.628,10.392
		c0,5.076,3.643,10.152,9.585,10.152c2.733,0,5.465-1.319,7.243-3.197v6.994c-2.385,1.039-4.771,1.799-7.417,1.799
		c-9.194,0-16.005-7.314-16.005-15.628c0-8.553,6.55-16.107,16.136-16.107c2.559,0,5.074,0.64,7.286,1.758V26.967z"/>
	<path fill="#FFFFFF" d="M340.831,49.909c-9.976,0-16.179-7.034-16.179-15.908c0-8.953,6.42-15.828,16.179-15.828
		s16.179,6.875,16.179,15.828C357.01,42.875,350.807,49.909,340.831,49.909z M340.831,23.969c-6.028,0-9.585,4.916-9.585,9.792
		c0,4.637,2.516,10.353,9.585,10.353c7.07,0,9.586-5.716,9.586-10.353C350.417,28.885,346.86,23.969,340.831,23.969z"/>
	<path fill="#FFFFFF" d="M390.188,30.404H390.1l-7.416,19.105h-2.212l-7.157-19.105h-0.086l-2.906,18.705h-6.419l5.508-30.936h4.511
		l8.067,19.864l7.721-19.864h4.598l4.901,30.936h-6.419L390.188,30.404z"/>
	<path fill="#FFFFFF" d="M414.04,49.109h-6.376V18.974h8.675c6.854,0,11.32,2.517,11.32,9.353c0,6.395-3.773,9.512-10.453,9.512
		h-3.166V49.109z M414.04,32.962h1.301c3.773,0,5.812-0.759,5.812-4.676c0-3.877-2.429-4.437-5.985-4.437h-1.128V32.962z"/>
</g>
<g>
	<path fill="#FFFFFF" d="M49.434,66.167h-30.65c-9.47,0-17.175-7.705-17.175-17.176V18.342c0-9.471,7.705-17.175,17.175-17.175
		h30.65c9.47,0,17.175,7.705,17.175,17.175v30.649C66.609,58.462,58.904,66.167,49.434,66.167z M18.784,6.988
		c-6.261,0-11.354,5.093-11.354,11.354v30.649c0,6.262,5.093,11.354,11.354,11.354h30.65c6.261,0,11.354-5.093,11.354-11.354V18.342
		c0-6.261-5.093-11.354-11.354-11.354H18.784z"/>
</g>
</svg>
