<svg xmlns="http://www.w3.org/2000/svg" viewBox="0 0 1069 813"><path fill="#224abe" d="M903 0H166C75 0 0 75 0 166v320c0 91 75 166 166 166h539l199 161V652c91-1 165-75 165-166V166c0-91-75-166-166-166z"/><path fill="#fff" d="M154 378a71 71 0 0 0 24 30 58 58 0 0 0 35 12q16 0 28-8 11-7 11-22 0-20-31-31l-37-13q-34-11-53-31-20-21-20-52 0-21 8-37a80 80 0 0 1 21-27 97 97 0 0 1 31-18 120 120 0 0 1 40-7q34 0 62 17a105 105 0 0 1 42 47l-55 30a75 75 0 0 0-19-25q-12-10-29-10-15 0-24 7a23 23 0 0 0-10 19 22 22 0 0 0 8 17q8 7 22 12l40 14q37 14 54 34 18 21 18 50 0 23-9 40a89 89 0 0 1-24 29 108 108 0 0 1-34 18 131 131 0 0 1-41 6 136 136 0 0 1-36-5 126 126 0 0 1-32-14 114 114 0 0 1-27-22 106 106 0 0 1-19-31zm544-204v305h-64V287l-79 192h-47l-79-191v191h-63V174h79l88 212 95-212zm105 204a71 71 0 0 0 23 30 58 58 0 0 0 36 12q16 0 27-8 12-7 12-22 0-20-32-31l-37-13q-33-11-53-31-19-21-19-52 0-21 7-37a80 80 0 0 1 21-27 97 97 0 0 1 32-18 120 120 0 0 1 39-7q34 0 62 17a105 105 0 0 1 42 47l-54 30a75 75 0 0 0-19-25q-12-10-29-10-16 0-25 7a23 23 0 0 0-9 19 22 22 0 0 0 8 17q7 7 21 12l40 14q37 14 55 34 17 20 17 50 0 23-9 40a89 89 0 0 1-23 29 108 108 0 0 1-35 18 131 131 0 0 1-40 6 136 136 0 0 1-37-5 126 126 0 0 1-32-14 114 114 0 0 1-27-22 106 106 0 0 1-18-31z"/></svg>