<svg xmlns="http://www.w3.org/2000/svg" viewBox="0 0 22 26"><path fill="#6eb800" d="M5.77 5.3c2.33-.13 3.49-1.55 3.36-2.84C9 1.43 7.97.4 6.03.4A2.72 2.72 0 0 0 3.2 2.85C3.06 4 3.84 5.3 5.77 5.3Zm11.49-.39c2.32-.13 3.23-1.29 3.23-2.45 0-1.29-1.16-2.58-3.23-2.45a2.9 2.9 0 0 0-2.71 2.45c-.13 1.3.65 2.58 2.71 2.45Zm1.3 4.9c-5.56.65-5.82.65-16.01.91-4.39 0-3.49 15.36 5.68 15.36 8.77 0 19.36-17.04 10.32-16.26ZM8.6 23.12c-7.87 0-6.84-9.55-5.42-9.55 9.04-.39 11.36-.77 14.59-.77 3.35-.13-2.97 10.32-9.17 10.32"/></svg>