<svg xmlns="http://www.w3.org/2000/svg" viewBox="0 0 561.5 188.4"><g fill="#ed1c24"><path d="M407.3 4.5 494.7 56l65 22v-.1c-2.6-4.7-11-9.9-11-9.9l-76.6-42.7-57.4-20.5c-3.5-1.4-8.4-1.3-8.9-1.2h-.1zm-.7 1.5-1.6-.9h.1s-10.2.7-16 10.5L351.7 99s-8.7 15.4 2.8 24l68.7 53.6s3.5 2.4 5.4 3L494 57.5zm152.2 73.4-64.9-22-65.4 122.1c.3.1 1.9.8 5.1 1.2l60 7.5c14.6.6 20.1-11.2 20.1-11.2l44.5-79c5.1-12.1.8-18.4.6-18.6"/><path d="m280.5 14.2 40.4-3.2 42.9-3.4c-4.3-2.4-11.5-2.7-11.5-2.7L280.2 0h-.9l-68.1 4.3s-8.5.4-14.1 3.2l83.4 6.7zM363.9 9 321 12.4l-40.4 3.2v136s2.1.1 5.4-.5l61.8-13.2 7.1-1.5c15.5-3.6 16.6-18.5 16.6-18.5l1.1-29.4 2.4-60.7c-.2-13.3-10.8-18.6-11.1-18.8m-83.4 6.7L197.1 9s-11.3 5.6-10.9 18.8l2.4 60.7 1.1 29.4s1 14.9 16.6 18.5l7 1.5 61.9 13.3c3.3.6 5.3.5 5.3.5z"/><path d="M155.8 3.5c-.1 0-5.4-.2-9 1.2L89.4 25.3 12.8 68s-7.9 4.6-11 9.9v.1l65.1-22 87.3-51.5zM209.9 99l-37.3-83.5C167 6 157.2 5.1 156.6 5.1L155 6 67.7 57.5l65.5 122.3c1.5-.5 5.3-3.1 5.3-3.1 17.5-12.5 68.6-53.6 68.6-53.6 11.9-9.3 2.8-24.1 2.8-24.1M67.7 57.5l-65 22s-4.4 6.5.8 18.6l44.5 79s5.5 11.8 20.1 11.2l60-7.4c4-.5 5.2-1.2 5.2-1.2z"/></g><path fill="#f5ec3e" d="m280.5 14.2-83.4-6.7s-11.3 5.6-10.9 18.8l2.4 60.7 1.1 29.4s1 14.9 16.6 18.5l7 1.5 61.9 13.3c3.3.6 5.3.5 5.3.5z"/><path fill="#ffd42b" d="M363.9 7.5 321 10.9l-40.4 3.2v136s2.1.1 5.4-.5l61.8-13.2 7.1-1.5c15.5-3.6 16.6-18.5 16.6-18.5l1.1-29.4 2.4-60.7c-.2-13.3-10.8-18.6-11.1-18.8"/><path fill="#df9d2d" d="m211.1 101.7 17 37.8-21.9-4.6c-13.8-3.2-16-15.9-16-15.9zM351.5 99l-17.8 40.3 20.7-4.4c7.6-1.5 11.5-5.8 13.4-8.7 2.4-3.8 3.1-7 3.1-7z"/><path fill="#131718" d="m225.9 35.2 5.7 16.3c1.3 3.8 2.7 8.6 4 12.9h.1c.6-1.3 1.2-2.8 1.7-4.2l-2.5-8-5.7-16.3s-.8-4.2-4.5-4.5l-2.6-.3c2.9.8 3.8 4.1 3.8 4.1m47.4 1.6-3.1-.3c2.2.7 1 3.5 1 3.5l-25.7 46.5-1.2 34.9 3.4.7 1.2-34.7 25.7-46.5s1.5-3.7-1.3-4.1"/><path fill="#ed1c24" d="M271.2 40s1.3-2.9-1-3.5c-.1 0-.3-.1-.4-.1l-18.1-1.9c-3.1-.4-4.3 2.9-4.3 2.9l-6.6 15.2-3.3 7.7-1.7 4.2h-.1l-4-12.9-5.7-16.3s-.9-3.3-3.7-4c-.1 0-.3-.1-.4-.1L203.7 29c-3.2-.4-1.6 3.2-1.6 3.2l22.2 51.5-1 27s.4 6.2 6.5 7.7l14.4 2.9 1.2-34.9z"/><path fill="#131718" d="m297.3 53.2 1-14.3c.2-2.4 1.7-3.1 2.7-3.3l-2.9.3s-3.1.1-3.3 3.1l-1 14.5s-.2 3.4 2.8 3.4l3.6-.4c-3.1.1-2.9-3.3-2.9-3.3m20.2 61.8 1.8-60.5-3.6.4-1.9 60.7s.5 6.5 7.7 5.7l3.3-.6c-7 .4-7.3-5.7-7.3-5.7"/><path fill="#ed1c24" d="M301.7 35.6s-.3 0-.7.1c-.9.2-2.5.9-2.7 3.3l-1 14.3s-.2 3.3 2.8 3.4h.1l15.6-1.7 3.6-.4-1.8 60.5s.4 6.1 7.4 5.8l5.5-.8 8.7-1.3 1.9-66.4 15.3-1.8c6.8-1.1 7.2-7 7.2-7l1.1-14.7z"/><path fill="#ffd42b" d="m559.7 77.9-65-22-65.5 122.2c.3.1 1.9.8 5.1 1.2l60.1 7.5c14.6.6 20.1-11.2 20.1-11.2l44.5-79c5.2-12.1.9-18.4.7-18.7"/><path fill="#f5ec3e" d="m407.3 4.5-1.6-.9h.1s-10.2.7-16.1 10.5l-37.5 83.5s-8.7 15.4 2.9 24c0 0 51.2 41.2 68.7 53.6 0 0 3.5 2.4 5.4 3L494.7 56z"/><path fill="#131718" d="m425.2 43.5-13.6 26.2 3.3 2.1 13.5-26.1s1.5-3.1-1.4-5l-3.3-1.9c2.9 1.9 1.5 4.7 1.5 4.7m-39.3 74.8 3.1 2.1 18.4-33.1-3.4-2.2zm78.3-56.8-3.3-1.9c2.6 1.8 1.2 4.5 1.2 4.5l-38.3 73.6s-3.1 5.3-8.5 2.2l2.7 2c5.7 3.8 9.1-2 9.1-2l38.1-73.6c.2 0 1.6-3-1-4.8"/><path fill="#ed1c24" d="m423.8 137.8 38.3-73.6s1.4-2.8-1.2-4.5l-15.5-8.9c-2.5-1.7-3.9 1.1-3.9 1.1L427 79.6l-12.1-7.8-3.3-2.1 13.6-26.2s1.4-2.8-1.5-4.7l-15.2-8.9c-2.7-1.8-4 1-4 1l-35.1 68.2s-3.3 5.7 3.3 10.1l13.2 9.1L404 85.1l3.3 2.2 11.9 7.8-18.2 34.6 13.8 10c.2.1.3.2.5.3 5.4 3.1 8.5-2.2 8.5-2.2"/><path fill="#131718" d="M473.2 143.5s7.7 5.1 12.8 6.7c7.8 2.4 12.3.5 14.3-4.1 1.5-3.3.2-5.5-3.4-8.3 1.2 1.7 1.4 3.3.4 5.5-2 4.5-6.5 6.5-14.3 4.1-5.1-1.6-12.8-6.7-12.8-6.7-7-4.9-12 1.9-12 1.9l-6 7.3c.9 1.1 1.8 2.1 2.7 3l6.3-7.5c.1 0 5-6.7 12-1.9m72.5-44.1c-5.1-8.6-17.4-15.9-26.7-18.5-17.5-4.8-34.2 1.1-41.6 17.4-5.8 12.8-2.6 21.4 5.2 27.9-5.5-6.2-7.2-14-2.2-25.1 7.4-16.4 24.3-23 41.6-17.5 10.7 3.5 18.5 9 23.1 16.4 0 .1.6-.6.6-.6"/><path fill="#ed1c24" d="M522 83.8c-17.3-5.6-34.2 1.1-41.6 17.5-5 11-3.3 18.9 2.2 25.1 1.6 1.8 3.6 3.5 5.7 5l7.3 5.6c.5.3.9.7 1.3 1 3.6 2.8 4.9 5 3.4 8.3-2.1 4.5-6.5 6.5-14.3 4.1-5.1-1.6-12.8-6.7-12.8-6.7-7-4.8-12 1.9-12 1.9l-6.3 7.5c5.8 6.9 11.3 10.9 22.9 14.6 20.1 6.5 37.5.2 46.4-19.6 7.5-16.6-2.6-24.5-9.9-29.5l-6.9-4.7c-5.1-3.4-4.9-6.5-3.3-9.1 2.2-3.6 6.8-4.5 10.1-4 6.3 1.1 9.6 4 12.3 6.1 5.4 4.6 10.8-.2 10.8-.2 1.6-1.3 7.6-6.4 7.6-6.4-4.4-7.5-12.2-13-22.9-16.5"/><path fill="#f5ec3e" d="M66.8 56 1.7 78s-4.4 6.5.8 18.6l44.5 79s5.5 11.8 20.1 11.2l60.1-7.4c4-.5 5.2-1.2 5.2-1.2z"/><path fill="#ffd42b" d="M209.2 97.5 171.8 14c-5.6-9.5-15.4-10.4-16-10.4l-1.6.9-87.3 51.4 65.6 122.3c1.5-.5 5.3-3.1 5.3-3.1 17.5-12.5 68.7-53.6 68.7-53.6 11.9-9.2 2.7-24 2.7-24"/><path fill="#131718" d="M65 95.9c-3.8-.2-8.8-.7-14.8 1.6-3.1 1.2-5.9 4.3-4.7 8.1.9 2.7 3.3 5.2 10.1 5.2h.4c-4-.7-5.7-2.7-6.4-4.9-1.2-3.8 1.6-6.8 4.7-8 5.9-2.4 10.9-1.9 14.8-1.6 8.1.8 8.4-5.6 8.4-5.6.2-1.8.7-7.7.7-7.7-1.3-.5-2.7-.9-4.1-1.3 0 .1-.5 6.9-.7 8.7 0-.1-.3 6.3-8.4 5.5m36.3 32.4c-7.2-15.1-20.3-17-30-17.3 9.1.8 19.7 3.9 25.9 17 9.2 19.4.7 32.9-20.6 38.1-12.3 3-20 2.8-30.2.5l.2.9c5.9 1.5 19.2 3.5 34.2-1 18-5.6 29.7-18.7 20.5-38.2"/><path fill="#ed1c24" d="M76.5 166.1c21.3-5.2 29.9-18.7 20.6-38.1-6.2-13.1-16.9-16.2-25.9-17-2.2-.2-4.3-.2-6.3-.2h-9.4c-6.8 0-9.3-2.5-10.1-5.2-1.2-3.8 1.7-6.8 4.7-8.1 5.9-2.4 10.9-1.9 14.7-1.6 8.1.8 8.4-5.6 8.4-5.6.2-1.8.7-8.6.7-8.7-9.7-3.2-20.4-3.5-31.8-.7-18.2 4.5-26 18.1-18.4 34.1 6.6 14 17.8 18.4 31.2 18.6l10.4.5c6.4.1 9.7 1 11.4 4.6 2.1 4.4.2 8.2-8 10.3-5.3 1.4-15.7 1.4-15.7 1.4-9.7-.6-7.9 7.4-7.9 7.4l1.2 8.8c10.2 2.3 17.9 2.5 30.2-.5"/><path fill="#131718" d="m151.4 104.9-22-16.4c-1.8-1.6-5.9-5.7-7.2-7.2l3.1 5.4 2.7 5 20.4 15.3c1.9 1.5 5.1 3.6 7.9 2.1l3-1.7c-2.4 1.2-6-.9-7.9-2.5m-7.3-27.6c-.8-5.5-1.5-9.7-3.2-16.7l-3.4-17.4s-.9-5.4 2-7.1l-3 1.9c-3.1 1.9-2 7.3-2 7.3l3.3 17.3c1.2 4.9 1.8 8.4 2.4 11.9 1.2 1 2.3 2 3.5 3.1zm34.2 29L157.1 62c.7 3.1 1.6 8.5 1.9 10l.4 3.1 15.9 33.3c4.5 10.2 10.7 4.8 10.7 4.8l2-1.7c-1.7 1-6.1 2.8-9.7-5.2M95.4 70.1s-3.1-6 2.7-10.4l-2.5 1.5c-6.5 4.4-3.1 10.9-3.1 10.9l8.4 20 31.5 59.8 3-2.1L103.9 90z"/><path fill="#ed1c24" d="m198.7 102.5-27-57.8c-3.6-6.5-7.8-12.2-9.1-14.2 0 0-3.9-6.8-10.5-2.5l-12.6 8c-2.8 1.7-2 7.1-2 7.1l3.4 17.4c1.7 7 2.4 11.2 3.2 16.7l-.3.2c-1.1-1-2.3-2.1-3.5-3.1-3.8-3.3-7.7-6.4-10.4-9.2L118 53.8s-4.2-3.9-8.3-1.2l-11 6.7c-.2.1-.3.2-.5.3C92.4 64 95.5 70 95.5 70l8.4 20 31.5 59.8 11.2-7.9s6.1-4.8 1.9-12.3L128 91.7l-2.7-5-3.1-5.4c1.3 1.5 5.4 5.6 7.2 7.2l22 16.4c1.9 1.5 5.5 3.7 7.9 2.4h.1l1.4-.8c2.5-1.8 2.3-4.8 1.5-8.6L159.4 75l-.4-3c-.4-1.5-1.2-6.9-1.9-10l21.2 44.3c3.6 8 8 6.2 9.7 5.1.5-.3.8-.6.8-.6z"/></svg>