<svg xmlns="http://www.w3.org/2000/svg" width="391.395" height="391.395"><g data-name="PRIMARY - GHOST"><path d="M363.625 288.342c-60.61-29.34-70.27-74.64-70.7-78-.52-4.07-1.11-7.27 3.38-11.41 4.33-4 23.54-15.89 28.87-19.61 8.81-6.16 12.69-12.31 9.83-19.87-2-5.23-6.87-7.2-12-7.2a22.3 22.3 0 00-4.81.54c-9.68 2.1-19.08 6.95-24.52 8.26a8.56 8.56 0 01-2 .27c-2.9 0-4-1.29-3.72-4.78.68-10.58 2.12-31.23.45-50.52-2.29-26.54-10.85-39.69-21-51.32-4.91-5.64-27.71-29.87-71.71-29.87-44 0-66.77 24.23-71.65 29.8-10.18 11.63-18.73 24.78-21 51.32-1.67 19.29-.17 39.93.45 50.52.2 3.32-.82 4.78-3.72 4.78a8.64 8.64 0 01-2-.27c-5.43-1.31-14.83-6.16-24.51-8.26a22.3 22.3 0 00-4.81-.54c-5.15 0-10 2-12 7.2-2.86 7.56 1 13.71 9.84 19.87 5.33 3.72 24.54 15.6 28.87 19.61 4.48 4.14 3.9 7.34 3.38 11.41-.43 3.41-10.1 48.71-70.7 78-3.55 1.72-9.59 5.36 1.06 11.24 16.72 9.24 27.85 8.25 36.5 13.82 7.34 4.73 3 14.93 8.34 18.61 6.56 4.53 25.95-.32 51 7.95 21 6.92 33.76 26.47 71 26.47s50.37-19.64 71-26.47c25-8.27 44.43-3.42 51-7.95 5.33-3.68 1-13.88 8.34-18.61 8.65-5.57 19.77-4.58 36.5-13.82 10.63-5.81 4.59-9.45 1.04-11.17z" fill="#fff"/><path d="M389.995 284.892c-2.72-7.4-7.9-11.36-13.8-14.64a34.51 34.51 0 00-3-1.57c-1.76-.91-3.56-1.79-5.35-2.72-18.39-9.75-32.75-22.05-42.71-36.63a83.06 83.06 0 01-7.33-13c-.85-2.43-.81-3.81-.2-5.07a8.25 8.25 0 012.35-2.45c3.16-2.09 6.42-4.21 8.63-5.64 3.94-2.55 7.06-4.57 9.07-6 7.55-5.28 12.83-10.89 16.13-17.16a34.17 34.17 0 001.69-28.38c-5-13.16-17.43-21.33-32.49-21.33a44.75 44.75 0 00-9.45 1c-.83.18-1.66.37-2.47.58.14-9-.06-18.5-.86-27.85-2.84-32.87-14.35-50.1-26.35-63.84a105 105 0 00-26.79-21.56c-18.21-10.4-38.86-15.68-61.37-15.68-22.51 0-43.06 5.28-61.29 15.68a104.62 104.62 0 00-26.84 21.6c-12 13.74-23.51 31-26.35 63.84-.8 9.35-1 18.9-.87 27.85-.81-.21-1.63-.4-2.46-.58a44.75 44.75 0 00-9.45-1c-15.07 0-27.52 8.17-32.5 21.33a34.21 34.21 0 001.65 28.41c3.31 6.27 8.59 11.88 16.14 17.16 2 1.4 5.13 3.42 9.07 6 2.13 1.38 5.24 3.4 8.29 5.42a8.9 8.9 0 012.66 2.67c.64 1.31.66 2.72-.29 5.32a82.29 82.29 0 01-7.21 12.73c-9.74 14.25-23.68 26.33-41.48 36-9.43 5-19.23 8.34-23.37 19.59-3.12 8.49-1.08 18.15 6.85 26.29a39.63 39.63 0 0010 7.57 108.35 108.35 0 0024.47 9.79 16.16 16.16 0 014.94 2.21c2.89 2.53 2.48 6.34 6.33 11.92a27.8 27.8 0 007.24 7.36c8.08 5.58 17.16 5.93 26.78 6.3 8.69.33 18.54.71 29.79 4.42 4.66 1.54 9.5 4.52 15.11 8 13.47 8.28 31.91 19.61 62.77 19.61 30.86 0 49.43-11.39 63-19.7 5.57-3.42 10.38-6.37 14.91-7.87 11.25-3.72 21.1-4.09 29.79-4.42 9.62-.37 18.7-.72 26.78-6.3a27.89 27.89 0 008.24-9c2.77-4.71 2.7-8 5.3-10.3a15.32 15.32 0 014.64-2.12 108.76 108.76 0 0024.8-9.88 39 39 0 0010.5-8.22l.1-.12c7.44-7.96 9.31-17.34 6.26-25.62zm-27.43 14.74c-16.73 9.24-27.85 8.25-36.5 13.82-7.35 4.73-3 14.93-8.34 18.61-6.56 4.53-25.95-.32-51 7.95-20.66 6.83-33.84 26.47-71 26.47s-50.03-19.6-71.03-26.52c-25-8.27-44.43-3.42-51-7.95-5.33-3.68-1-13.88-8.34-18.61-8.66-5.57-19.78-4.58-36.5-13.77-10.65-5.88-4.61-9.52-1.06-11.24 60.6-29.34 70.27-74.64 70.7-78 .52-4.07 1.1-7.27-3.38-11.41-4.33-4-23.54-15.89-28.87-19.61-8.82-6.16-12.7-12.31-9.84-19.87 2-5.23 6.88-7.2 12-7.2a22.3 22.3 0 014.81.54c9.68 2.1 19.08 6.95 24.51 8.26a8.64 8.64 0 002 .27c2.9 0 3.92-1.46 3.72-4.78-.62-10.59-2.12-31.23-.45-50.52 2.29-26.54 10.84-39.69 21-51.32 4.88-5.59 27.81-29.82 71.66-29.82 43.85 0 66.84 24.13 71.72 29.7 10.17 11.63 18.73 24.78 21 51.32 1.67 19.29.23 39.94-.45 50.52-.23 3.49.82 4.78 3.72 4.78a8.56 8.56 0 002-.27c5.44-1.31 14.84-6.16 24.52-8.26a22.3 22.3 0 014.81-.54c5.15 0 10 2 12 7.2 2.86 7.56-1 13.71-9.83 19.87-5.33 3.72-24.54 15.6-28.87 19.61-4.49 4.14-3.9 7.34-3.38 11.41.43 3.41 10.09 48.71 70.7 78 3.58 1.79 9.62 5.43-1.03 11.36z"/></g></svg>