<svg xmlns="http://www.w3.org/2000/svg" xmlns:xlink="http://www.w3.org/1999/xlink" width="30.192" height="30.192"><g fill="#ff2341" fill-rule="evenodd"><path d="M6.3 25.641c.321.548.672.75 1.314.75h11.977c.643 0 .993-.173 1.402-.692l9.056-11.53c.204-.259-.03-.691-.35-.691H15.18c-.642 0-.993-.202-1.314-.75L6.563.278c-.175-.289-.643-.23-.76.057L.166 13.794c-.263.606-.205 1.01.116 1.557z" mask="url(#mask-2)" transform="translate(0 2.598)"/><path d="M21.373 13.367c.321.548.672.75 1.315.75h7.01c.35 0 .614-.433.439-.75l-6.69-11.414c-.321-.548-.672-.75-1.314-.75H8.753c-.35 0-.613.432-.438.75l3.477 5.937c.321.548.671.75 1.314.75h5.521z"/></g><defs id="defs2312"><path id="path-1" d="M0 .087v26.304h30.126V.087z"/><mask id="mask-2" fill="#fff"><use xlink:href="#path-1" id="use2322" x="0" y="0" width="100%" height="100%"/></mask></defs></svg>