<svg xmlns="http://www.w3.org/2000/svg" viewBox="0 0 200 200"><path fill="#fff" stroke="#000" stroke-width="10" d="M191.9 150.8c-33.2-16.1-38.5-40.9-38.7-42.7-.3-2.3-.6-4 1.8-6.3 2.4-2.2 13-8.7 15.8-10.7 4.9-3.4 7-6.7 5.4-10.9-1-2.8-3.7-4-6.5-4a12.2 12.2 0 0 0-2.7.4c-5.3 1.1-10.4 3.8-13.4 4.5a4.7 4.7 0 0 1-1 .1c-1.7 0-2.3-.7-2.1-2.6.3-5.8 1.1-17 .2-27.6a43.9 43.9 0 0 0-11.5-28.1A51.1 51.1 0 0 0 100 6.5 50.3 50.3 0 0 0 60.8 23a43.7 43.7 0 0 0-11.5 28c-1 10.6-.1 21.9.2 27.7.1 1.8-.4 2.6-2 2.6a4.7 4.7 0 0 1-1.1-.1c-3-.8-8.1-3.4-13.4-4.6a12.2 12.2 0 0 0-2.7-.3c-2.8 0-5.4 1.1-6.5 4-1.6 4.1.5 7.5 5.4 10.9 2.9 2 13.4 8.5 15.8 10.7 2.4 2.3 2 4 1.8 6.2-.2 1.9-5.5 26.7-38.7 42.7-2 1-5.2 3 .6 6.2 9.1 5 15.2 4.5 20 7.5 4 2.6 1.6 8.2 4.5 10.2 3.6 2.5 14.2-.2 28 4.4 11.4 3.8 18.4 14.5 38.8 14.5s27.6-10.8 38.9-14.5c13.6-4.6 24.3-1.9 27.9-4.4 2.9-2 .5-7.6 4.5-10.2 4.8-3 10.9-2.5 20-7.5 5.8-3.2 2.5-5.2.6-6.1z"/></svg>
