<svg xmlns="http://www.w3.org/2000/svg" style="background:#004693;fill:#fff" viewBox="0 0 90 90"><path d="M39.22 90a48.44 48.44 0 0 1-5.16-11.07c-3.15-9.61-2.35-21.41.14-31.14C38.1 32.63 44.98 18.52 52.56 5l.57-1v12.59a117.34 117.34 0 0 1-1.77 3.74l-1.2 2.46A85.1 85.1 0 0 0 47.31 29l-.74 1.85c-3.54 8.93-6.66 18-7.84 27.92-.4 3.92-.34 8.27.15 12.1a46.29 46.29 0 0 0 7.58 18.54l.39.59h4.04c-3.98-13.39-1.74-28.95 1.69-42.02l.17-.66.15-.47.05.1c1.1 4 1.95 8.08 2.7 12.14 1.8 9.6 2 20.88-.59 30.22l-.19.69H39.22Z"/></svg>
