<svg viewBox="0 0 90 90" xmlns="http://www.w3.org/2000/svg"><g fill="none"><path fill="#004693" d="M0 0h90v90H0z"/><path d="M39.221 90c-2.207-3.476-3.927-7.245-5.16-11.071-3.154-9.611-2.35-21.413.143-31.14 3.888-15.162 10.778-29.267 18.352-42.777L53.126 4v12.59a117.342 117.342 0 0 1-1.767 3.744l-1.208 2.453c-1.003 2.041-1.985 4.086-2.845 6.218l-.738 1.845c-3.542 8.926-6.654 18.003-7.834 27.922-.401 3.915-.344 8.267.143 12.094 1.082 6.728 3.802 12.937 7.588 18.546l.382.588h4.043c-3.975-13.386-1.74-28.948 1.688-42.016l.175-.663.144-.467.057.088c1.09 4.002 1.95 8.091 2.695 12.152 1.792 9.587 1.998 20.874-.585 30.213l-.19.693H39.222Z" fill="#FFF"/></g></svg>