<svg xmlns="http://www.w3.org/2000/svg" fill="none" viewBox="0 0 250 250"><ellipse cx="125.445" cy="111.649" fill="#fff" rx="118.445" ry="89"/><path fill="#218AF5" d="M125.445 21C60.028 21 7 61.357 7 111.139c0 38.992 32.535 72.194 78.075 84.762l33.666 43.064v-80.244s.048-18.377-32.776-22.48c-20.673-2.582-18.996-24.928-16.386-26.813 1.65-3.981 38.494-6.168 41.528-7.821 3.033-1.655 7.066-11.607 11.96-16.452 8.568-8.486 16.464-10.607 26.656-10.096 2.793.138 3.566 3.304 3.981 7.756 2.235 24.164-7.412 25.321-9.219 48.468-1.397 17.88 23.876 28.477 30.728 6.426 7.779-25.046-10.056-56.57-5.028-55.732 5.727.956 17.871 16.819 17.84 29.162-.08 33.981 7.154 55.757 13.998 68.744 25.6-16.535 41.868-41.188 41.868-68.744C243.891 61.357 190.857 21 125.445 21Z"/></svg>