<svg xmlns="http://www.w3.org/2000/svg" width="216" height="216"><path d="M178.43 8.685H38.26C17.17 8.685 0 25.345 0 45.805v124.51c0 20.74 16.65 37 37.91 37h140.17c21.26 0 37.92-16.26 37.92-37V45.805c0-20.81-16.5-37.12-37.57-37.12zm33.31 161.62c0 18.36-14.78 32.75-33.66 32.75H37.91c-18.91 0-33.66-14.37-33.66-32.75V45.795c0-18.43 15-32.86 34-32.86h140.18c18.68 0 33.31 14.43 33.31 32.86z"/><path d="M178.43 12.935H38.26c-19.06 0-34 14.43-34 32.86v124.51c-.01 18.38 14.74 32.75 33.65 32.75h140.17c18.88 0 33.66-14.39 33.66-32.75V45.795c0-18.43-14.63-32.86-33.31-32.86z" fill="#fcaf17"/><path d="M185.49 126.885h-27.06l-4.29-27-15.86 26.8h-3a23.14 23.14 0 01-2.52-10.42c0-4.6.34-9.1.34-15 0-7.76-2.28-11.92-8.37-13.38v-.2c12.94-1.8 18.81-10.36 18.81-22.42 0-17.12-11.39-20.84-26.32-20.84H77.08l-17 80.4h21.37l6.18-29.25h14.19c7.57 0 10.67 3.7 10.67 10.79 0 5.39-.56 9.66-.56 13.81 0 1.54.35 5.11 1.38 6.49l15.43 16.29-13.27 28.55 28.39-16.82 21.14 16.23-4-26.93zm-77.29-46.34h-17l4.1-19.38h15.79c5.62 0 11.46 1.46 11.46 8.34 0 8.67-6.65 11.04-14.35 11.04z"/><path fill="#fff" d="M173.03 130.815h-17.95l-3.11-19.53-11.44 19.34h-18.11l11.01 11.6-9.05 19.44 19.78-11.75 15.58 11.98-2.9-19.75z"/></svg>