<svg xmlns="http://www.w3.org/2000/svg" xmlns:xlink="http://www.w3.org/1999/xlink" viewBox="0 0 90 90" xmlns:v="https://vecta.io/nano"><defs><path id="A" d="M0 0h72v90H0z"/></defs><g transform="translate(10)" fill-rule="evenodd"><path fill="#fff" fill-rule="nonzero" d="M0 72h72V0H0z"/><mask id="B" fill="#fff"><use xlink:href="#A"/></mask><g fill-rule="nonzero" fill="#96285f"><path d="M20.386 20.273a12.32 12.32 0 0 1 3.146.128c.748.128 1.457.163 2.106.108 2.355-.205 4.416-1.349 5.795-3.22a12.39 12.39 0 0 1 8.824-4.912c6.134-.533 11.628 3.532 13.066 9.327 4.809.506 8.758 4.368 9.196 9.364.424 4.942-2.724 9.385-7.294 10.766l1.311 15.081-3.137-1.169c-4.699-1.751-9.635-2.415-14.669-1.977-5.046.439-9.799 1.95-14.128 4.493l-2.89 1.697L20.406 44.9c-5.879-.5-10.733-5.173-11.258-11.242-.593-6.79 4.451-12.793 11.238-13.385zM0 72h35.864l17.942 18V72H72V0H0v72z" mask="url(#B)"/><path d="M22.16 40.52c.723-.062 1.311-.193 2.085-.466l1.12 12.854c4.069-1.938 8.427-3.12 12.999-3.517 4.558-.397 9.05.012 13.389 1.214l-1.129-12.94c.792.203 1.449.252 2.145.193a6.09 6.09 0 0 0 .842-11.979 12.49 12.49 0 0 1-5.685 9.085l-3.104-3.107c3.003-1.436 4.896-4.648 4.601-8.032a8.14 8.14 0 0 0-8.799-7.39 8.13 8.13 0 0 0-5.794 3.22c-2.1 2.851-5.238 4.599-8.825 4.912-1.01.087-2.085.037-3.189-.153-.67-.115-1.364-.142-2.062-.081h-.001c-4.465.387-7.777 4.335-7.39 8.797s4.336 7.778 8.796 7.389"/></g></g></svg>