<svg xmlns="http://www.w3.org/2000/svg" width="74.1" height="74.1"><path d="M74.1 14.1v45.8c0 7.6-6.2 13.8-13.8 13.8H13.8C6.2 73.7 0 67.6 0 60V14.1C0 6.6 6.2.4 13.8.4h46.6c7.6 0 13.7 6.2 13.7 13.7z" fill="#e07a34"/><path d="M67.3 14.3v43.4c0 5-4.1 9.1-9.1 9.1H38.5c-2.6 0-4.7-2.1-4.7-4.7V55c0-.3.2-.6.4-.7 1.1-.4 2.4-.2 3.4.4l.4.3c.2.1.3.2.5.4 1.2 1.1 2.8 1.8 4.3 1.8 3.1 0 5.6-2.8 5.6-6.3s-2.5-6.3-5.6-6.3c-1.5 0-3 .6-4.2 1.7-.2.2-.4.3-.6.5l-.5.4c-.9.6-1.9.7-2.9.4-.5-.1-.8-.6-.8-1.1V26.9c0-.6-.4-1-.9-1.2-1.1-.3-2.2-.1-3.1.5l-.4.3c-.2.1-.4.3-.6.5-1.2 1.1-2.7 1.7-4.2 1.7-3.1 0-5.6-2.8-5.6-6.3s2.5-6.3 5.6-6.3c1.5 0 3.1.7 4.3 1.7.1.1.3.3.5.4l.5.4c.9.6 2 .8 3 .5.5-.2.9-.6.9-1.2v-7.2c0-1.8 1.4-3.2 3.2-3.2h23.3c3.9-.2 7 2.9 7 6.8z" fill="#fff"/></svg>