<svg xmlns="http://www.w3.org/2000/svg" width="22.023" height="22.034" fill="#00a2c7"><path d="M18.523.034c-1.9 0-3.5 1.6-3.5 3.5s1.6 3.5 3.5 3.5 3.5-1.6 3.5-3.5-1.6-3.5-3.5-3.5zm0 .9c1.4 0 2.5 1.1 2.5 2.5s-1.1 2.5-2.5 2.5-2.5-1.1-2.5-2.5 1.1-2.5 2.5-2.5"/><g transform="rotate(331.462)"><circle cx="11.001" cy="18.532" r="3.5"/><circle cx="7.413" cy="25.119" r="3.5"/></g><path d="M11.023 8.534c.7 0 1.3.3 1.8.7.5.5.7 1.1.7 1.8 0 1.4-1.1 2.5-2.5 2.5-.7 0-1.3-.3-1.8-.7-.5-.5-.7-1.1-.7-1.8-.1-1.4 1.1-2.5 2.5-2.5m0-1c-1.9 0-3.5 1.6-3.5 3.5s1.6 3.5 3.5 3.5 3.5-1.6 3.5-3.5-1.6-3.5-3.5-3.5z"/><g transform="rotate(293.89)"><circle cx="-8.646" cy="7.657" r="3.5"/><circle cx="1.252" cy="11.493" r="3.5"/><circle cx="-1.779" cy="4.626" r="3.5"/><circle cx="-12.481" cy="17.555" r="3.5"/></g><path d="M3.523 16.034c.7 0 1.3.3 1.8.7.5.5.7 1.1.7 1.8 0 1.4-1.1 2.5-2.5 2.5s-2.5-1.1-2.5-2.5c-.1-1.4 1.1-2.5 2.5-2.5m0-1c-1.9 0-3.5 1.6-3.5 3.5s1.6 3.5 3.5 3.5 3.5-1.6 3.5-3.5-1.6-3.5-3.5-3.5z"/></svg>