<svg viewBox="0 0 108 108" xmlns="http://www.w3.org/2000/svg" fill="none"><path fill="#F9A619" d="M94.5 2.01h-84C4.701 2.01 0 6.71 0 12.51v26.25c0 5.799 4.701 10.5 10.5 10.5h84c5.799 0 10.5-4.701 10.5-10.5V12.51c0-5.8-4.701-10.5-10.5-10.5Z"/><path fill="#3B85DB" d="M94.5 59.76H68.25c-5.799 0-10.5 4.7-10.5 10.5v26.25c0 5.799 4.701 10.5 10.5 10.5H94.5c5.799 0 10.5-4.701 10.5-10.5V70.26c0-5.8-4.701-10.5-10.5-10.5Z"/><path fill="#EB3669" d="M23.62 107.01c13.045 0 23.62-10.575 23.62-23.62 0-13.045-10.575-23.62-23.62-23.62C10.575 59.77 0 70.345 0 83.39c0 13.045 10.575 23.62 23.62 23.62Z"/></svg>