<svg xmlns="http://www.w3.org/2000/svg" version="1.1" id="e1db0796-acf4-4b9b-8840-d1a06d2c7ae4" x="0" y="0" xml:space="preserve" width="209.8" height="209.8"><style type="text/css" id="style8391">.st2{fill:#fff}.st3,.st4{fill:#c6c7c8}.st4{stroke:#c6c7c8;stroke-width:.5;stroke-miterlimit:10}</style><radialGradient id="SVGID_1_" cx="150" cy="1177.371" r="106.817" gradientTransform="matrix(1 0 0 -.1222 0 405.075)" gradientUnits="userSpaceOnUse"><stop offset="0" id="stop8393" stop-color="#878787"/><stop offset="1" id="stop8395" stop-color="#8b8b8b" stop-opacity="0"/></radialGradient><g id="g9022" transform="translate(-45.1 -45)"><circle id="circle8400" r="104.9" cy="149.9" cx="150" fill="#e2001a"/><g id="g8426"><g id="g8412"><path id="path8402" d="M81.7 129.1c2.6 1.4 5.2 2.1 7.2 2.1 3.7 0 4.9-1.9 4.9-4.1 0-2.4-2.2-3.6-4.3-4.7l-2.1-1c-4.3-2-6.3-4.5-6.3-9.1 0-6.4 5.6-9.9 11.8-9.9 3 0 5.7.4 7.8 1.2l-.3 6.4c-2-1.1-4.5-1.8-6.6-1.8-2.4 0-4.4 1.2-4.4 3.5 0 2 1.4 3.1 3.6 4l2.1.9c4.2 1.9 7 4.3 7 9.9 0 6.2-5 10.4-12.3 10.4-2.9 0-5.9-.4-8.4-1.4z" class="st2" fill="#fff"/><path id="path8404" d="M106.1 119.6c0-8.6 4.2-17.3 13.8-17.3 10.3 0 13.9 8.6 13.9 17.3 0 8.8-4.2 17.3-13.9 17.3-2.6 0-4.8-.5-6.5-1.5-5.2-2.9-7.3-9-7.3-15.8zm13.8 11.6c5 0 5.6-6.7 5.6-11.5 0-5-.5-11.5-5.6-11.5-4.8 0-5.5 6.7-5.5 11.5 0 3 .3 5.9 1.1 8 .8 2.1 2.2 3.5 4.4 3.5z" class="st2" fill="#fff"/><path id="path8406" d="M139.7 136.4v-33.5h8v27.2h10.4v6.3z" class="st2" fill="#fff"/><path id="path8408" d="M161 136.4l10.3-33.5h9.1l10.3 33.5h-8.3l-1.9-7.5h-9.7l-1.9 7.5zm11.1-13.2h7.1l-3.6-13.9z" class="st2" fill="#fff"/><path id="path8410" d="M194.9 136.4v-33.5h12.3c5.4 0 10.3 2.8 10.3 8.6 0 4.4-2.3 7.4-6.7 8.2 2.4.7 3.6 2 4.6 5.3l3.5 11.4h-8.5l-2.7-9.8c-.8-2.8-1.8-3.6-3.4-3.6h-1.6v13.4zm7.8-19.3h2.2c2.9 0 4.5-1.6 4.5-4.3 0-2.9-1.8-4.1-4.6-4.1h-2.2v8.4z" class="st2" fill="#fff"/></g><g id="g8416"><path id="path8414" d="M223.1 136.4v-8h8v8z" class="st3" fill="#c6c7c8"/></g><g id="g8424"><path id="path8418" d="M145.2 172.4l-5.8-28.8h6.9l3.2 20.8 3.5-20.8h7.8l3.4 20.8 3.3-20.8h6.4l-5.8 28.8h-8l-3.3-22.1-3.6 22.1z" class="st2" fill="#fff"/><path id="path8420" d="M177.8 172.4v-28.8h16.6v5.2h-9.8v6.2h9.1v5.2h-9.1v7h10.2v5.2z" class="st2" fill="#fff"/><path id="path8422" d="M200.1 172.4v-28.8h10.6c4.3 0 8.3 2.6 8.3 7.2 0 3.6-2.5 6-5.2 6.7 2.9.6 5.8 2.6 5.8 6.8 0 5.1-4 8.2-8.8 8.2zm6.7-17h1.9c2.3 0 3.7-1.4 3.7-3.7 0-2.3-1.6-3.3-3.7-3.3h-1.9zm0 12.2h2.2c2.3 0 3.8-1.2 3.8-3.8 0-2.4-1.5-3.8-3.8-3.8h-2.2z" class="st2" fill="#fff"/></g></g><g id="g8446"><g id="g8442"><path id="path8428" d="M90.5 207.1v.6h-9.6v-.4l3-1.1v-18.9l-2.8-.9v-.4H84.3c.8 0 1.3 0 1.9-.1.6-.1 1-.1 1.5-.1h1.7c1.1 0 2.1.1 3.1.2s1.8.4 2.6.9c.7.4 1.3 1 1.7 1.7.4.7.6 1.6.6 2.7 0 1.2-.2 2.2-.7 3-.4.8-1 1.5-1.8 1.9-.8.4-1.6.8-2.6 1-1 .2-2 .3-2.9.3h-1.3c-.4 0-.9-.1-1.2-.1v9zm-3.7-10.9c.4 0 .8.1 1.1.1h1c3.6 0 5.5-1.8 5.5-5.4 0-1-.1-1.8-.4-2.4-.3-.6-.8-1.1-1.2-1.5-.3-.3-1-.4-1.7-.5-.6-.1-1.1-.1-1.8-.1h-1.5c-.2 0-.8-.1-.9 0z" class="st4" fill="#c6c7c8" stroke="#c6c7c8" stroke-width=".5" stroke-miterlimit="10"/><path id="path8430" d="M100.6 193.7v-.4l4.6-.6.3 2.4c.4-.8 1.1-1.3 1.8-1.8.7-.4 1.6-.7 2.5-.7.3 0 .7 0 1 .1.3.1.7.2 1 .6l-.9 2.6c-.3-.4-.6-.9-.9-1.1-.3-.3-.8-.4-1.5-.4-1 0-1.8.4-2.2 1.3-.4.9-.7 2.2-.7 3.9v6.7l3 .9v.4h-8v-.4l2.2-.9v-11.8z" class="st4" fill="#c6c7c8" stroke="#c6c7c8" stroke-width=".5" stroke-miterlimit="10"/><path id="path8432" d="M121.8 192.5c1 0 1.9.2 2.7.6.8.3 1.3.9 1.9 1.5.4.7.9 1.3 1.1 2.1.2.8.3 1.6.3 2.5v.6h-10.3V200.7c0 .8.1 1.6.2 2.4.1.8.3 1.5.8 2 .3.6.9 1.1 1.5 1.5.6.3 1.5.6 2.4.6.7 0 1.5-.1 2.2-.4.8-.3 1.8-1 2.9-2l.6.6c-.9 1-1.7 1.8-2.7 2.4-1 .6-2 .8-3.4.8-2.4 0-4.1-.7-5.5-1.9-1.2-1.2-1.9-3.2-1.9-5.9 0-1.2.2-2.4.6-3.2.3-1 .9-1.8 1.5-2.5.7-.7 1.5-1.2 2.2-1.6.9-.8 1.9-1 2.9-1zm3.1 6.3v-.2c0-.7-.1-1.2-.2-1.9s-.3-1.1-.6-1.7c-.2-.4-.6-.9-1-1.2-.4-.3-.9-.4-1.5-.4-.9 0-1.6.2-2 .7-.4.4-1 1-1.2 1.6-.3.6-.6 1.2-.7 1.8-.1.6-.2 1-.2 1.3z" class="st4" fill="#c6c7c8" stroke="#c6c7c8" stroke-width=".5" stroke-miterlimit="10"/><path id="path8434" d="M140.3 193.5c-2 0-3.2 1-3.8 2.9-.1.6-.2 1.1-.3 1.8 0 .7-.1 1.3-.1 2.1v6l2.2.8v.4h-7.2v-.4l2.2-.8v-11.9l-2.5-.7v-.4l4.7-.6.3 2.5c.1-.2.3-.6.6-.8.2-.3.6-.7.9-.9.3-.3.8-.6 1.3-.8.5-.2 1.2-.3 1.9-.3.8 0 1.5.1 2 .3.5.2 1 .4 1.3.8.3.3.7.7.9 1 .2.3.3.8.6 1.1.4-1 1.1-1.8 1.9-2.4.8-.6 1.9-.9 3.2-.9 1.3 0 2.4.2 3 .6.7.3 1.2.8 1.6 1.5.3.6.6 1.3.6 2.1s.1 1.7.1 2.6v7.3l2.6.8v.4h-7.6v-.4l2.4-.8V199v-2.2c0-.6-.1-1.1-.3-1.6-.2-.7-.7-1.1-1.1-1.3-.4-.2-1.1-.3-2-.3-.9 0-1.6.2-2.1.7-.5.5-1 1.1-1.3 2.1-.1.6-.2 1.1-.3 1.8 0 .7-.1 1.3-.1 2.2v5.9l2.4.9v.4h-7.5v-.4l2.5-.9V199v-2.2c0-.6-.1-1.1-.3-1.6-.2-.6-.6-1-1.1-1.3-.5-.3-1-.4-1.6-.4z" class="st4" fill="#c6c7c8" stroke="#c6c7c8" stroke-width=".5" stroke-miterlimit="10"/><path id="path8436" d="M161.2 193.7v-.4l5.2-.6v13.6l2.4.9v.4h-7.3v-.4l2.4-.9v-11.9z" class="st4" fill="#c6c7c8" stroke="#c6c7c8" stroke-width=".5" stroke-miterlimit="10"/><path id="path8438" d="M176.1 192.8V201.9c0 1.8.2 3.1.8 3.9.6.8 1.3 1.2 2.4 1.2h.6c.4 0 .6-.1.9-.2.3-.1.7-.2 1-.4.3-.2.7-.4 1-.9.2-.2.3-.6.6-.8.1-.2.2-.6.3-.8.1-.3.1-.7.1-1 0-.3 0-.8.1-1.2v-3.5-2.6-1.2l-2.4-.8v-.4l5-.3-.1 9.6V206.4l2.6.7v.4l-4.9.6-.2-2.1c-.2.2-.6.4-.9.8-.3.4-.7.6-1.1.8-.4.2-.9.4-1.5.6-.6.1-1.1.2-1.8.2-.8 0-1.5-.1-2-.2-.7-.1-1.2-.4-1.7-.8-.4-.3-.8-.9-1.1-1.6-.2-.7-.4-1.6-.4-2.6v-8.5l-2.2-.8v-.4z" class="st4" fill="#c6c7c8" stroke="#c6c7c8" stroke-width=".5" stroke-miterlimit="10"/><path id="path8440" d="M200.9 193.5c-2 0-3.2 1-3.8 2.9-.1.6-.2 1.1-.3 1.8 0 .7-.1 1.3-.1 2.1v6l2.2.8v.4h-7.2v-.4l2.2-.8v-11.9l-2.5-.7v-.4l4.7-.6.3 2.5c.1-.2.3-.6.6-.8.2-.3.6-.7.9-.9.3-.3.8-.6 1.3-.8.6-.2 1.2-.3 1.9-.3.8 0 1.5.1 2 .3.5.2 1 .4 1.3.8.3.4.7.7.9 1 .2.3.3.8.6 1.1.4-1 1.1-1.8 1.9-2.4.8-.6 1.9-.9 3.2-.9 1.3 0 2.4.2 3 .6.7.3 1.2.8 1.6 1.5.3.6.6 1.3.6 2.1s.1 1.7.1 2.6v7.3l2.6.8v.4h-7.4v-.4l2.4-.8V199v-2.2c0-.6-.1-1.1-.3-1.6-.2-.7-.7-1.1-1.1-1.3-.4-.2-1.1-.3-2-.3-.9 0-1.6.2-2.1.7-.6.4-1 1.1-1.3 2.1-.1.6-.2 1.1-.3 1.8-.1.7-.1 1.3-.1 2.2v5.9l2.4.9v.4h-7.4v-.4l2.5-.9V199v-2.2c0-.6-.1-1.1-.3-1.6-.2-.6-.6-1-1.1-1.3-.5-.3-1.3-.4-1.9-.4z" class="st4" fill="#c6c7c8" stroke="#c6c7c8" stroke-width=".5" stroke-miterlimit="10"/></g><path id="path8444" d="M164.9 184.2c.7 0 1.2.2 1.7.7.5.5.7 1 .7 1.7 0 .6-.2 1.2-.7 1.6-.5.5-1 .7-1.7.7s-1.2-.2-1.7-.7c-.5-.5-.7-1-.7-1.6 0-.7.2-1.2.7-1.7.5-.5 1-.7 1.7-.7z" class="st3" fill="#c6c7c8"/></g></g></svg>