<svg xmlns="http://www.w3.org/2000/svg" width="233" height="233"><g transform="translate(-416.317 -302.51)"><ellipse cx="532.817" cy="419.011" rx="114.333" ry="116.5" fill="#27aee1" paint-order="markers fill stroke"/><ellipse cx="532.817" cy="419.011" rx="86.48" ry="88.118" fill="#fff" paint-order="markers fill stroke"/><path d="M527.484 477.495c-9.755-1.19-19.778-4.647-28-9.657-3.08-1.877-8.67-5.929-8.66-6.278.01-.435 8.098-9.88 8.387-9.795.164.048 1.23.817 2.369 1.708 5.528 4.328 12.679 8.141 18.737 9.992 5.901 1.803 8.71 2.201 15.5 2.198 5.37-.003 6.533-.102 9-.765 10.162-2.733 15.829-9.212 15.79-18.054-.03-7.301-3.16-11.9-10.625-15.618-3.947-1.965-8.647-3.501-18.498-6.045-13.824-3.569-19.906-5.83-25.53-9.492-8.152-5.309-11.803-12.576-11.803-23.492 0-8.368 2.767-15.357 8.333-21.048 5.31-5.43 11.285-8.448 20.167-10.189 3.692-.724 13.758-.808 18.5-.154 9.609 1.323 19.841 5.346 27.398 10.772l1.566 1.124-3.348 4.82c-1.842 2.652-3.544 5.027-3.784 5.278-.365.382-1.015.091-4.038-1.806-12.901-8.099-26.764-10.734-37.54-7.138-6.761 2.257-11.384 6.899-12.623 12.674-.5 2.334-.212 7.737.524 9.814 1.473 4.157 4.376 7.034 9.914 9.825 3.96 1.996 9.235 3.735 19.177 6.324 9.467 2.465 14.46 4.165 19.626 6.681 8.934 4.352 13.62 9.442 15.872 17.24.652 2.258.749 3.356.742 8.43-.006 4.398-.15 6.395-.584 8.118-1.4 5.558-3.88 10.108-7.57 13.884-4.985 5.105-11.285 8.327-19.654 10.05-3.675.757-15.14 1.112-19.345.6z"/></g></svg>