<svg xmlns="http://www.w3.org/2000/svg" width="22.055" height="22.055"><path d="M1.147 18.12H12.43c1.751 0 2.71-.166 3.272-.53.695-.43 1.09-1.158 1.09-2.017 0-1.025-.528-1.917-1.42-2.348-.463-.264-1.321-.395-2.381-.395H8.284c-2.645 0-4.365-.464-5.522-1.455C1.44 10.218.678 8.432.678 6.513c0-2.81 1.555-5.256 3.836-6.05C5.507.1 6.663 0 9.244 0h11.498v3.935H10.301c-2.084.034-2.89.034-3.584.198-.926.232-1.488 1.091-1.488 2.249 0 .992.463 1.785 1.257 2.15.661.296 1.83.363 3.418.363h3.537c3.24 0 4.993.496 6.282 1.819.992.99 1.653 2.942 1.653 4.859 0 2.349-1.09 4.531-2.81 5.588-1.09.693-2.479.894-5.752.894H1.147V18.12" fill="#3568bb"/></svg>