<svg xmlns="http://www.w3.org/2000/svg" xml:space="preserve" width="82.2" height="82.2"><path d="m82.2 56.15-79.6 5.8-2.6-36 79.6-5.7z" fill="#26828f"/><path d="M69.3 34.05c-2.1 0-4 1-5.2 2.7v-6.7h-5.3v22h5.4v-10c0-1.7 1.4-3.1 3.2-3.1 2.3 0 2.8 1.4 2.8 2.8v10.3h5.5v-12.1c-.1-3.3-2.8-5.9-6.1-5.9-.3.1-.3.1-.3 0M49.4 39.45c0-.7.5-1.1 1.4-1.1.9 0 1.8.6 2.2 1.4l4-1.8c-.9-2.4-3.2-3.9-5.8-3.9-3.9 0-6.7 2.3-6.7 5.7 0 6.2 7.9 5 7.9 7.2 0 .8-1 1.2-1.9 1.2-1-.1-1.9-.7-2.4-1.5l-4.1 2c1.4 2.6 3.6 3.7 6.5 3.7 3.7 0 7-2 7-5.9.1-5.8-8-5-8.1-7M34.1 34.05c-5.4 0-9.6 4-9.6 9.2.1 5.2 4.3 9.4 9.6 9.4 5.7 0 9.6-4 9.6-9.4s-4.3-9.1-9.6-9.2M18.4 39.05c-.6-.2-1.7-.7-2.4-1-1.1-.4-2.5-.8-2.5-2s.8-1.9 2.2-1.9c1.6.2 3.1.8 4.4 1.8l2.2-4.3c-2.1-1.4-4.5-2.2-7-2.4-3.9 0-7.5 2.6-7.5 7 0 3.1 1.5 5.1 4.3 6.3.9.4 2.6 1.1 3.3 1.3 2.1.8 2.3 1.2 2.3 2.1 0 1.2-1.6 1.7-3.2 1.7-1.9-.1-3.7-.8-5.2-2.1L7 50.15c2.3 1.4 4.5 2.7 7.6 2.7 4.4 0 8.8-2.5 8.8-7.2-.1-3.2-1.8-5.2-5-6.6" fill="#fff"/></svg>