<svg xmlns="http://www.w3.org/2000/svg" width="49.342" height="49.342"><defs><linearGradient x1="46.871" y1="17.193" x2="47.566" y2="95.131" id="a" gradientTransform="matrix(.51867 0 0 .30404 65.829 20.747)" gradientUnits="userSpaceOnUse"><stop stop-color="#F70" offset="0%"/><stop stop-color="#F30" offset="100%"/></linearGradient></defs><g transform="translate(-65.829 -10.538)" fill="none" fill-rule="evenodd"><rect fill="url(#a)" x="65.829" y="20.747" width="49.342" height="28.924" ry="6.613" rx="6.613"/><path d="M87.282 42.425l-.23-4.275.23-10.575c0-.373.309-.675.69-.675.38 0 .689.302.689.675l.23 10.575-.23 4.275a.683.683 0 01-.69.675.683.683 0 01-.69-.675zm-2.759 0l-.23-4.275.23-7.875c0-.373.309-.675.69-.675.38 0 .69.302.69.675l.23 7.875-.23 4.275a.683.683 0 01-.69.675.683.683 0 01-.69-.675zm-2.759 0l-.23-4.275.23-8.775c0-.373.31-.675.69-.675.38 0 .69.302.69.675l.23 8.775-.23 4.275a.683.683 0 01-.69.675.683.683 0 01-.69-.675zm-2.758 0l-.23-4.275.23-6.975c0-.373.309-.675.69-.675.38 0 .69.302.69.675l.229 6.975-.23 4.275a.683.683 0 01-.69.675.683.683 0 01-.69-.675zm-2.759 0l-.23-4.275.23-3.375c0-.373.31-.675.69-.675.38 0 .69.302.69.675l.23 3.375-.23 4.275a.683.683 0 01-.69.675.683.683 0 01-.69-.675zm-2.758 0l-.23-4.275.23-4.275c0-.373.308-.675.69-.675.38 0 .689.302.689.675l.23 4.275-.23 4.275a.683.683 0 01-.69.675.683.683 0 01-.69-.675zm-2.76-1.8L70.5 38.15l.23-2.475c0-.373.309-.675.69-.675.38 0 .69.302.69.675l.23 2.475-.23 2.475a.683.683 0 01-.69.675.683.683 0 01-.69-.675zm32.296-7.974a5.608 5.608 0 011.958-.351c3.047 0 5.517 2.418 5.517 5.4s-2.47 5.4-5.517 5.4H91.19c-.762 0-1.38-.607-1.38-1.351v-14.4c0-2.25 4.138-2.25 4.138-2.25 4.575 0 8.369 3.27 9.077 7.552z" fill="#fff"/></g></svg>