<svg xmlns="http://www.w3.org/2000/svg" width="117.15" height="117.15"><path class="st0" d="M66.85 61.725c0-19.1-6.8-27.8-10.4-31.1-.7-.6-1.8-.1-1.7.9.7 10.8-12.9 13.5-12.9 30.4v.1c0 10.3 7.8 18.7 17.4 18.7 9.6 0 17.4-8.4 17.4-18.7v-.1c0-4.8-1.8-9.4-3.6-12.8-.4-.7-1.4-.4-1.3.2 3.3 14.6-4.9 23.6-4.9 12.4z" fill="#f60"/><path class="st0" d="M46.15 102.025c-.4 0-.9-.2-1.2-.5l-44.5-44.5c-.6-.6-.6-1.7 0-2.4l47-47c.3-.2.7-.4 1.1-.4h13.5c.8 0 1.3.5 1.5 1 .2.5.2 1.2-.4 1.8l-44.1 44.2c-.9.9-.9 2.3 0 3.2l34.9 35c.6.6.6 1.7 0 2.4l-6.7 6.8c-.3.2-.7.4-1.1.4zM55.05 109.825c-.8 0-1.3-.5-1.5-1-.2-.5-.2-1.2.4-1.8l44.2-44.2c.4-.4.7-1 .7-1.6 0-.6-.2-1.2-.7-1.6l-35-35c-.6-.6-.6-1.7 0-2.4l6.8-6.8c.3-.3.7-.5 1.2-.5s.8.3 1.1.6l44.4 44.5c.3.3.5.7.5 1.2s-.2.9-.5 1.2l-47 47c-.3.3-.7.5-1.2.5h-13.4z" fill="#f60"/></svg>