<svg xmlns="http://www.w3.org/2000/svg" width="23.408" height="23.408"><g transform="translate(-190.282 -10.296)"><path fill="#ccc" d="M206.955 10.784c-2.029 0-3.663.707-4.969 1.45-1.307-.743-2.938-1.45-4.968-1.45-4.057 0-6.736 2.65-6.736 7.178 0 5.524 5.275 10.921 11.704 15.254 6.43-4.334 11.704-9.729 11.704-15.254 0-4.527-2.677-7.178-6.735-7.178z"/><linearGradient id="a" gradientUnits="userSpaceOnUse" x1="190.944" y1="10.52" x2="206.401" y2="10.52" gradientTransform="matrix(1 0 0 -1 0 35)"><stop offset="0" stop-color="#3656cc"/><stop offset=".35" stop-color="#304cb2"/><stop offset=".72" stop-color="#283b80"/></linearGradient><path fill="url(#a)" d="M190.944 18.059c0 5.648 5.956 10.902 11.042 14.38a46.706 46.706 0 004.415-3.416 833.168 833.168 0 00-15.331-12.501 9.304 9.304 0 00-.126 1.537z"/><linearGradient id="b" gradientUnits="userSpaceOnUse" x1="193.141" y1="22.73" x2="210.602" y2="10.504" gradientTransform="matrix(1 0 0 -1 0 35)"><stop offset=".3" stop-color="#e61c23"/><stop offset=".8" stop-color="#c3161c"/></linearGradient><path fill="url(#b)" d="M212.577 20.679c-4.883-4.027-7.84-6.077-11.011-7.98-.854-.516-2.569-1.27-4.492-1.27-1.842 0-3.389.573-4.455 1.69-.694.725-1.165 1.636-1.434 2.741a371.25 371.25 0 0116.313 12.154c2.31-2.199 4.245-4.7 5.079-7.335z"/><linearGradient id="c" gradientUnits="userSpaceOnUse" x1="203.964" y1="24.31" x2="213.947" y2="17.319" gradientTransform="matrix(1 0 0 -1 0 35)"><stop offset="0" stop-color="#fdbc11"/><stop offset=".25" stop-color="#fcb415"/><stop offset=".8" stop-color="#f89e1c"/></linearGradient><path fill="url(#c)" d="M211.343 13.122c-1.05-1.094-2.589-1.683-4.36-1.683-1.9 0-3.348.614-4.357 1.162 1.894 1.054 6.009 3.439 10.272 6.579.066-.424.103-.85.103-1.278-.001-1.989-.582-3.655-1.658-4.78z"/></g></svg>