<svg xmlns="http://www.w3.org/2000/svg" viewBox="0 0 35.73 32.01"><path fill="#394eff" d="M17.87 0c1.55 0 2.9.85 3.63 2.1l6.83 11.81 6.63 11.45.2.36v.02l.02.02.04.07.04.08.04.09v.02l.05.08.04.09v.02l.04.08.03.09v.02l.04.08.03.09v.02l.03.09.03.09v.02l.02.08v.02l.02.08v.02l.02.09v.02l.02.07v.02l.02.1v.09l.02.1v.34a4.18 4.18 0 0 1-5.44 3.99L18.5 27.93a2.1 2.1 0 0 0-1.31 0L5.43 31.8l-.25.07a4.2 4.2 0 0 1-5.2-4.05v-.21L0 27.4h.02v-.12l.02-.09v-.11l.02-.1h.02l.02-.09v-.02l.03-.08v-.02l.03-.08.03-.11.03-.09c0-.04.02-.07.03-.1l.04-.1.03-.08v-.02l.05-.08.04-.09V26l.05-.08.04-.08.03-.05.02-.03v-.02l.02-.02.2-.36L7.4 13.91l6.83-11.8A4.19 4.19 0 0 1 17.87 0"/></svg>