<svg xmlns="http://www.w3.org/2000/svg" style="isolation:isolate" viewBox="1561.429 814.721 320 320" width="320pt" height="320pt"><clipPath id="a"><path fill="#FFF" d="M1561.429 814.721h320v320h-320z"/></clipPath><g fill-rule="evenodd" fill="#1D4ED8" clip-path="url(#a)"><path d="M1739.032 1001.403H1739v106.636h124v-106.636h-.032c-1.057-33.295-28.418-60-61.968-60-33.55 0-60.911 26.705-61.968 60Zm16.968-115c0-24.836 20.164-45 45-45s45 20.164 45 45-20.164 45-45 45-45-20.164-45-45ZM1645.17 900.975h85.687v57.687c0 36.047-29.266 65.313-65.313 65.313h-20.374c-36.047 0-65.313-27.558-65.313-61.5 0-33.943 29.266-61.5 65.313-61.5Zm-27.36 37.742v11.865q1.524-1.758 2.974-2.783 1.45-1.026 3.208-1.538 1.758-.513 3.779-.513 3.047 0 5.405 1.289 2.359 1.289 3.707 3.75.849 1.436 1.142 3.208.293 1.773.293 4.087v15.322q0 2.403-1.099 3.633-1.098 1.231-2.915 1.231-3.955 0-3.955-4.864v-13.506q0-3.838-1.142-5.903-1.143-2.065-4.336-2.065-2.139 0-3.853 1.215-1.714 1.216-2.563 3.326-.645 1.787-.645 6.357v10.576q0 2.373-1.069 3.618-1.069 1.246-2.974 1.246-3.955 0-3.955-4.864v-34.687q0-2.432 1.04-3.648 1.04-1.216 2.915-1.216 1.905 0 2.974 1.231 1.069 1.23 1.069 3.633Zm35.098 20.713h14.502q-.293-4.102-2.212-6.138-1.919-2.036-5.054-2.036-2.988 0-4.907 2.065-1.919 2.066-2.329 6.109Zm34.805 19.834.732-1.787-9.844-24.786q-.908-2.138-.908-3.105 0-1.026.527-1.904.528-.879 1.451-1.407.922-.527 1.919-.527 1.728 0 2.607 1.099.879 1.098 1.553 3.149l6.767 19.688 6.416-18.311q.762-2.227 1.377-3.486.616-1.26 1.304-1.7.688-.439 1.948-.439.908 0 1.743.483.835.484 1.289 1.304.455.82.455 1.729-.118.556-.381 1.582-.264 1.025-.645 2.08l-10.43 27.304q-1.347 3.604-2.636 5.655-1.289 2.05-3.413 3.149-2.124 1.099-5.728 1.099-3.515 0-5.273-.762-1.758-.762-1.758-2.783 0-1.377.835-2.124.835-.747 2.475-.747.645 0 1.26.176.762.175 1.319.175 1.377 0 2.168-.41.791-.41 1.42-1.421.63-1.01 1.451-2.973Zm-19.161-15.293h-15.644q.029 2.724 1.099 4.804 1.069 2.08 2.841 3.135 1.773 1.055 3.911 1.055 1.436 0 2.623-.337 1.186-.337 2.299-1.055 1.114-.718 2.051-1.538.938-.82 2.432-2.226.615-.528 1.758-.528 1.23 0 1.992.674t.762 1.904q0 1.084-.85 2.534-.85 1.451-2.564 2.784-1.713 1.333-4.306 2.212-2.593.879-5.962.879-7.705 0-11.983-4.395-4.277-4.395-4.277-11.924 0-3.545 1.055-6.577 1.054-3.032 3.076-5.2 2.021-2.168 4.98-3.325 2.959-1.158 6.563-1.158 4.687 0 8.042 1.978 3.354 1.977 5.024 5.112t1.67 6.387q0 3.018-1.728 3.911-1.729.894-4.864.894Z"/></g></svg>
