<svg xmlns="http://www.w3.org/2000/svg" viewBox="0 0 283.1 266.58"><path fill="#1d4ed8" fill-rule="evenodd" d="M159.1 160v106.58h124V160a62.03 62.03 0 0 0-62-60 62.03 62.03 0 0 0-62 60zm17-115c0-24.83 20.2-45 45-45s45 20.17 45 45-20.2 45-45 45-45-20.16-45-45zM65.3 59.58H151v57.68a65.34 65.34 0 0 1-65.4 65.34H65.3C29.2 182.6 0 155.02 0 121.08c0-33.95 29.2-61.5 65.3-61.5ZM37.9 97.32v11.86q1.5-1.76 3-2.78 1.4-1.03 3.2-1.54 1.8-.51 3.8-.51 3 0 5.4 1.29 2.3 1.29 3.7 3.75.8 1.43 1.1 3.2.3 1.78.3 4.1V132q0 2.4-1.1 3.64-1.1 1.23-2.9 1.23-3.9 0-3.9-4.87v-13.5q0-3.84-1.2-5.9-1.1-2.07-4.3-2.07-2.2 0-3.9 1.21-1.7 1.22-2.5 3.33-.7 1.79-.7 6.36V132q0 2.38-1.1 3.62-1 1.25-2.9 1.25-4 0-4-4.87V97.32q0-2.44 1.1-3.65 1-1.22 2.9-1.22t2.9 1.23q1.1 1.23 1.1 3.64zM73 118.03h14.5q-.3-4.1-2.2-6.14-1.9-2.03-5.1-2.03-2.9 0-4.9 2.06-1.9 2.07-2.3 6.11zm34.8 19.83.8-1.78-9.9-24.79q-.9-2.14-.9-3.1 0-1.03.5-1.9.5-.89 1.5-1.42.9-.52 1.9-.52 1.7 0 2.6 1.1.9 1.1 1.5 3.15l6.8 19.68 6.4-18.3q.8-2.23 1.4-3.5.6-1.25 1.3-1.7.7-.43 2-.43.9 0 1.7.48.8.48 1.3 1.3.5.82.5 1.73-.2.56-.4 1.59-.3 1.02-.7 2.08l-10.4 27.3q-1.4 3.6-2.6 5.65-1.3 2.05-3.5 3.15-2.1 1.1-5.7 1.1-3.5 0-5.3-.76-1.7-.76-1.7-2.78 0-1.38.8-2.13.9-.74 2.5-.74.6 0 1.3.17.7.18 1.3.18 1.3 0 2.1-.41t1.5-1.42q.6-1.01 1.4-2.98zm-19.2-15.29H73q0 2.72 1.1 4.8 1.1 2.08 2.8 3.14 1.8 1.05 3.9 1.05 1.5 0 2.7-.33 1.2-.34 2.3-1.06 1.1-.72 2-1.54 1-.82 2.5-2.22.6-.53 1.7-.53 1.2 0 2 .67t.8 1.9q0 1.1-.9 2.54-.8 1.45-2.5 2.79-1.8 1.33-4.3 2.2-2.6.89-6 .89-7.7 0-12-4.4t-4.3-11.92q0-3.55 1.1-6.58 1-3.03 3.1-5.2 2-2.17 4.9-3.32 3-1.16 6.6-1.16 4.7 0 8 1.98 3.4 1.97 5.1 5.1 1.6 3.13 1.6 6.4 0 3.01-1.7 3.9-1.7.9-4.9.9z"/></svg>
