<svg xmlns="http://www.w3.org/2000/svg" width="56" height="56" fill="red" fill-rule="evenodd"><path d="M22.905 12.27c.642.655 1.4 1.167 2.278 1.537s1.8.556 2.798.556a6.97 6.97 0 002.779-.556 7.2 7.2 0 002.278-1.537 7.205 7.205 0 001.538-2.28 7.01 7.01 0 00.556-2.78 7.01 7.01 0 00-.556-2.78c-.37-.866-.884-1.624-1.538-2.278S31.624 1 30.76.618a6.95 6.95 0 00-2.78-.556 7.12 7.12 0 00-2.798.555 6.95 6.95 0 00-2.278 1.538 7.64 7.64 0 00-1.538 2.278 6.78 6.78 0 00-.574 2.779c0 1 .2 1.915.574 2.78s.895 1.625 1.538 2.28M49.5 28.704V25.85c0-.988-.185-1.914-.556-2.78s-.877-1.624-1.52-2.278a6.95 6.95 0 00-2.278-1.538 7.12 7.12 0 00-2.798-.556H13.642c-.988 0-1.915.185-2.78.556a7.2 7.2 0 00-3.816 3.816 7.02 7.02 0 00-.556 2.78v15.784h32.94v4.298H6.5v2.853c0 .988.185 1.915.556 2.78a7.19 7.19 0 001.537 2.278 7.2 7.2 0 002.279 1.538c.864.37 1.8.556 2.78.556h28.716a7.12 7.12 0 002.798-.556 6.95 6.95 0 002.278-1.538c.642-.653 1.15-1.413 1.52-2.278s.556-1.8.556-2.78V33.002H16.495v-4.298z"/></svg>