<svg xmlns="http://www.w3.org/2000/svg" width="172.396" height="172.396"><path d="M86.115 155.15c-15.461 0-27.997-12.534-27.997-27.996 0-15.463 12.536-27.998 27.997-27.998 15.463 0 27.998 12.535 27.998 27.998 0 15.462-12.535 27.997-27.998 27.997zm28.403-87.997c-8.903 6.716-10.625 18.568-10.888 26.579C89.56 77.46 129.689 29.587 84.089 0c28.226 36.53-40.164 72.443-40.164 126.257 0 21.095 13.181 39.686 42.133 46.139 28.4-6.047 42.413-25.044 42.413-46.138 0-31.453-19.581-41.976-13.953-59.105" fill="#f15022"/></svg>