<svg xmlns="http://www.w3.org/2000/svg" viewBox="0 0 90 90"><path fill="#102D6F" d="m0 46.5.8.8c1.3 1.2 2.7 2.3 4.3 3a32.2 32.2 0 0 0 18.7 26.8v.2h.2a34 34 0 0 0 12 2.9l.5.5c1.6 1.6 3.5 3 5.6 4a37 37 0 0 1-20.7-3.1l-.3-.1A36.6 36.6 0 0 1 0 46.5Zm74.6 4.2c-.4 4.5-1.5 9-3.5 13v.4l-.8 1.5-1.9-8.7c.5-1.7.8-3.4 1-5a32 32 0 0 0 5.2-1.2ZM58.4 18c3.5 2.3 6.6 5.2 9 8.7H61c-2-2.1-4.2-4-6.7-5.4 1.4-1 2.8-2.1 4-3.3Zm-7 64c-.7 0-1.5 0-2.3-.2a14.5 14.5 0 0 1-11.5-8 27.1 27.1 0 0 1-11.2-2.3 26.1 26.1 0 0 1-15.1-24.3 12.4 12.4 0 0 1-7.1-3.4C2.2 42 1 39.6.4 37a12 12 0 0 1 1-7.6l.6-1 1-1.8 2 .9 29.2 13.3c2.9 1.3 5.5 3 7.7 5.2 2 2 3.3 4.5 3.9 7.2l3 13.9c1.3.3 2.6.8 3.8 1.5a10 10 0 0 1 3.1 2.7L52.2 74a4.6 4.6 0 0 0-1.9-1.5c-1.2-.7-2.5-1.1-3.8-1.3l-1.4-.3-.3-1.4-2.9-13-1.9.7a9.6 9.6 0 0 1-6-.4l-.5-.2a9 9 0 0 1-4.8-5c-.8-2.2-.7-4.7.2-6.8l.1-.3.5-.8L5.2 32.3A8.3 8.3 0 0 0 11.7 43h.1l.3-1.2.3-1.2 2.5 1.1 1.5.7-.2.7a20 20 0 0 0-.5 7.4 21.5 21.5 0 0 0 23 19H40l.6 1.5a9.4 9.4 0 0 0 2.2 3.4 11.6 11.6 0 0 0 6.5 3.3h2.8l9.6-6.5-3.6-16.9-.1-.4a21 21 0 0 0-11.8-24.8l-1.6-.6c-.6-.3-1.2-.4-1.7-.5a11 11 0 0 0-1.8-.4h-.2a13 13 0 0 1-11 6.3c-.8 0-1.7-.1-2.5-.3a38.3 38.3 0 0 1-12-5 12.3 12.3 0 0 1-4.6-7 13 13 0 0 1 .8-8.3 13 13 0 0 1 11-7.3h.2l34.5.1h3.9l-2 3.3a25.9 25.9 0 0 1-22.4 12.8H23v-4.5h13.7A21.5 21.5 0 0 0 53 10.4H22.9c-1.5 0-2.8.6-4 1.4a8.3 8.3 0 0 0-3.4 8.7 8.6 8.6 0 0 0 2.9 4.6 50 50 0 0 0 10.1 4.2 9.2 9.2 0 0 0 5.1-.6 7.7 7.7 0 0 0 3.7-3.3l.6-1.2.7-1.4 1.6.2 1 .1 1 .2a36.4 36.4 0 0 1 4.8 1.4l1.2.5c3.2 1.4 6.1 3.6 8.5 6.2H90l-2 3.3a26.2 26.2 0 0 1-19.6 12.5h-.2L68 43h.2a21.3 21.3 0 0 0 13.7-7.1H60a6.4 6.4 0 0 0 .4.6A26 26 0 0 1 63 52.7l-.2 1.2 3.9 17.7.3 1.4-1.2.8-11.3 7.8-.4.3h-.5c-.8.2-1.5.2-2.3.2ZM33.5 45.5l-.2.3a4.5 4.5 0 0 0-.5 4.2 4.9 4.9 0 0 0 2.4 2.6 5 5 0 0 0 2.1.5c.4 0 .8 0 1.2-.2a6 6 0 0 0 1.8-.9c-.4-1-1-2-1.8-2.9a18 18 0 0 0-5-3.6Z"/></svg>
