<svg xmlns="http://www.w3.org/2000/svg" xml:space="preserve" viewBox="0 0 576.7 470.5"><path fill="#fff" d="M515.1 8.3a53.2 53.2 0 0 1 53.2 53.2v347.4a53.2 53.2 0 0 1-53.2 53.2H61.6a53.2 53.2 0 0 1-53.2-53.2V61.5c0-29.4 19.2-53.2 53.2-53.2Z"/><path fill="#fff" d="M515.1 470.5H61.6c-34 0-61.6-27.6-61.6-61.6V61.6A59 59 0 0 1 61.6 0h453.5c34 0 61.6 27.6 61.6 61.6V409a61.6 61.6 0 0 1-61.6 61.5zM61.6 16.7c-27.2 0-44.9 17.6-44.9 44.9V409a44.9 44.9 0 0 0 44.9 44.9h453.5A44.9 44.9 0 0 0 560 409V61.6a44.9 44.9 0 0 0-44.9-44.9Z"/><path fill="#eb0f29" d="M515.1 8.3a53.2 53.2 0 0 1 53.2 53.2v347.4a53.2 53.2 0 0 1-53.2 53.2H61.6a53.2 53.2 0 0 1-53.2-53.2V61.5c0-29.4 19.2-53.2 53.2-53.2Z"/><path fill="#fff" d="M510.2 81.3H126.5l7.8-5.9 81.6.1 11-5.9 110.6-.1C392 54.4 461.9 46.6 510.2 81.3ZM520.1 90.4c6.3 7.5 12.9 14.5 15.8 23.4H89.5c.8-2.5 2-4.2 4.2-5.9h76.2l5.7-5.9h105.5c2.6-5.7 14.4-11.6 14.4-11.6ZM539.8 122.6c2.6 7.7 5 14.9 5.2 23.6H425.4c-7.2-9-17-13-28.5-10.2a30.3 30.3 0 0 0-16.2 10.2H72.5l1.8-5.9h78l2.4-5.9h101.4s1.4-5.4 7-11.8zM376.2 155c-1.9 8.5-3.2 17.1 3.3 23.6H70.1c-.9-1.8-1.1-3.7-.9-5.9H150c-.4-1.7-.5-2.2.2-5.9h98.1c.7-4.8.9-7.9 2.9-11.8zM545.2 155c.1 8.1-.9 14.9-2.6 23.6H430.9c1.3-7.9.3-16.2-.9-23.6zM393.9 187.4c20.3 9.1 38.8 14.7 59.3 23.6H80.3l-2.4-5.9h81.2s-1-2.4-1.7-5.9h95.9a63.9 63.9 0 0 1-3.3-11.8zM470.6 219.8c9.4 6 20.7 13.8 27.4 23.6H105l-4.4-5.9h85.6c-1.5-1.6-3.2-3.8-5-5.9h92.7c-3.1-3.4-7.4-7.7-9.6-11.8zM504.3 252.2a69.8 69.8 0 0 1 11.8 23.6H357.3c-20.2-5.3-36-13.1-54.1-23.6zM333.4 284.6a49.2 49.2 0 0 0 1.2 23.6H29.5s-.2-1.8.7-5.9h77.9l1.7-5.9h99.1c.3-5.4 1.1-7.9 2.6-11.8zM517.7 284.5c1.8 7.4.7 15.7.4 23.6H389c2.4-9.7-2.8-17.8-10.2-23.6zM339.4 317.2a30 30 0 0 0 25.8 11 34 34 0 0 0 20.5-11.3l131.8.1c-2.2 8.7-3.6 16.6-9.8 23.6H34.2c-.6-1.9-1.5-3.8-1.5-5.9h76.7c-1-2.4-.2-3.8-.4-5.9h103.6c-1.8-3.7-1.9-7.7-2.3-11.6zM502.9 349.4a93.8 93.8 0 0 1-24.2 23.6H52.3l-6.4-5.9h78.8c-1.1-2.1-2.7-4-3.3-5.9h109.7c-2.8-3.9-5.9-7.5-7-11.8zM467.3 381.8c-36.7 23.7-80.5 23.1-125.5 23.6h-243l-11.6-5.9h82.5l-7.2-5.9h114.1L256 381.8z"/></svg>