<svg xmlns="http://www.w3.org/2000/svg" version="1.2" width="16" height="16"><path fill="#a07314" d="M13 2h1v1h-1z"/><path fill="#f7c753" d="M10 5h1v1h-1z"/><path fill="#893700" d="M3 13h1v1H3zm9 0h1v1h-1z"/><path fill="#d6925f" d="M6 14h1v1H6z"/><path fill="#fee4a0" d="M5 1h1v1H5z"/><path fill="#a67b24" d="M6 11h1v1H6z"/><path fill="#ce8956" d="M4 13h1v1H4zm7 0h1v1h-1z"/><path fill="#d99f24" d="M4 1h1v1H4zm10 0h1v1h-1z"/><path fill="#d3ad62" d="M3 6h1v1H3z"/><path fill="#7a2c00" d="M3 14h1v1H3zm9 0h1v1h-1z"/><path fill="#f0ce8a" d="M6 4h1v1H6z"/><path fill="#dfb44d" d="M9 2h1v2H9z"/><path fill="#875a00" d="M2 3h1v1H2zm2 0h1v1H4zm7 0h1v1h-1zm2 0h1v1h-1zm-4 7h1v1H9z"/><path fill="#8c5e01" d="M6 10h1v1H6z"/><path fill="#f8c54d" d="M14 2h1v1h-1z"/><path fill="#edba46" d="M13 5h1v1h-1z"/><path fill="#ca9b32" d="M10 7h1v1h-1z"/><path fill="#e4c37c" d="M7 11h1v1H7z"/><path fill="#dbb860" d="M8 1h1v1H8zm0 11h1v1H8z"/><path fill="#815600" d="M3 2h2v1H3zm8 0h2v1h-2z"/><path fill="#895e0b" d="M5 8h1v1H5z"/><path fill="#4d1600" d="M3 15h1v1H3zm9 0h1v1h-1z"/><path fill="#fad68f" d="M1 2h1v1H1z"/><path fill="#a47923" d="M2 6h1v1H2z"/><path fill="#fad894" d="M6 7h1v1H6z"/><path fill="#9f7214" d="M9 11h1v1H9z"/><path fill="#daa741" d="M1 1h1v1H1z"/><path fill="#c79e4b" d="M3 5h1v1H3z"/><path fill="#cca74c" d="M8 7h1v1H8z"/><path fill="#a7622f" d="M7 13h1v1H7z"/><path fill="#c7a34c" d="M8 2h1v2H8z"/><path fill="#efcd89" d="M6 2h1v2H6z"/><path fill="#fedc98" d="M1 3h1v1H1z"/><path fill="#dfbe76" d="M7 5h1v1H7z"/><path fill="#be8c22" d="M14 5h1v1h-1z"/><path fill="#f4d692" d="M6 12h1v1H6z"/><path fill="#995421" d="M6 13h1v1H6z"/><path fill="#631a00" d="M4 15h8v1H4z"/><path fill="#eace85" d="M7 1h1v1H7zm0 11h1v1H7z"/><path fill="#ab7911" d="M11 5h1v1h-1z"/><path fill="#a86633" d="M8 13h1v1H8z"/><path fill="#a16734" d="M10 13h1v1h-1z"/><path fill="#ebc45d" d="M9 1h1v1H9z"/><path fill="#ebc983" d="M7 8h1v1H7z"/><path fill="#a97914" d="M13 4h1v1h-1z"/><path fill="#caa55a" d="M6 8h1v1H6z"/><path fill="#c08103" d="M2 0h2v1H2zm3 0h6v1H5zm7 0h2v1h-2zm-1 1h1v1h-1z"/><path fill="#9e5a27" d="M5 13h1v1H5z"/><path fill="#9c602d" d="M9 13h1v1H9z"/><path fill="#ac6835" d="M11 14h1v1h-1z"/><path fill="#fcc952" d="M14 3h1v1h-1z"/><path fill="#f7de9a" d="M6 1h1v1H6z"/><path fill="#f4c149" d="M13 1h1v1h-1z"/><path fill="#bd7f03" d="M0 2h1v1H0zm15 0h1v1h-1z"/><path fill="#f7d38d" d="M1 4h1v1H1z"/><path fill="#8f6001" d="M4 4h1v1H4zm7 0h1v1h-1z"/><path fill="#d19f31" d="M12 6h1v1h-1z"/><path fill="#cca65b" d="M5 7h1v1H5z"/><path fill="#f5d38f" d="M3 1h1v1H3z"/><path fill="#e0b54d" d="M9 4h1v1H9z"/><path fill="#f5c24c" d="M14 4h1v1h-1z"/><path fill="#f6d490" d="M6 6h1v1H6z"/><path fill="#cda84c" d="M8 8h1v1H8z"/><path fill="#ecca85" d="M7 9h1v2H7z"/><path fill="#bd7a47" d="M5 14h1v1H5zm5 0h1v1h-1z"/><path fill="#f0c152" d="M9 7h1v1H9z"/><path fill="#9c6901" d="M0 4h1v1H0zm15 0h1v1h-1z"/><path fill="#c7a44c" d="M8 4h1v1H8z"/><path fill="#fddb97" d="M5 5h1v2H5z"/><path fill="#f9d05e" d="M10 1h1v1h-1z"/><path fill="#ae8127" d="M4 5h1v1H4z"/><path fill="#933f00" d="M4 12h2v1H4zm6 0h2v1h-2z"/><path fill="#e3c27a" d="M7 6h1v1H7z"/><path fill="#e6a370" d="M7 14h1v1H7z"/><path fill="#c9a54c" d="M8 5h1v1H8z"/><path fill="#cea84c" d="M8 9h1v2H8z"/><path fill="#dcbb72" d="M7 2h1v2H7z"/><path fill="#c49731" d="M9 8h1v1H9z"/><path fill="#a63" d="M4 14h1v1H4z"/><path fill="#efcc84" d="M2 5h1v1H2z"/><path fill="#906101" d="M3 4h1v1H3zm9 0h1v1h-1z"/><path fill="#d4b06a" d="M4 6h1v1H4z"/><path fill="#895d06" d="M10 8h1v1h-1z"/><path fill="#fcda96" d="M5 2h1v3H5z"/><path fill="#a37412" d="M13 6h1v1h-1z"/><path fill="#ce9f36" d="M11 6h1v1h-1z"/><path fill="#d28e5b" d="M9 14h1v1H9z"/><path fill="#bf943f" d="M1 5h1v1H1z"/><path fill="#f5c553" d="M10 2h1v3h-1z"/><path fill="#e4b84f" d="M9 5h1v1H9z"/><path fill="#f9c854" d="M10 6h1v1h-1z"/><path fill="#865a01" d="M6 9h1v1H6z"/><path fill="#a07726" d="M2 2h1v1H2z"/><path fill="#c59426" d="M12 5h1v1h-1z"/><path fill="#aa7d26" d="M2 4h1v1H2z"/><path fill="#cba64c" d="M8 11h1v1H8z"/><path fill="#ddbc73" d="M7 4h1v1H7z"/><path fill="#e7c57f" d="M7 7h1v1H7z"/><path fill="#e6bd56" d="M9 12h1v1H9z"/><path fill="#ac7402" d="M0 3h1v1H0zm15 0h1v1h-1z"/><path fill="#f1be47" d="M12 1h1v1h-1z"/><path fill="#f3d18d" d="M6 5h1v1H6z"/><path fill="#caa64c" d="M8 6h1v1H8z"/><path fill="#845800" d="M3 7h2v1H3zm8 0h2v1h-2zM9 9h1v1H9z"/><path fill="#f6d38b" d="M2 1h1v1H2z"/><path fill="#e3a06d" d="M8 14h1v1H8z"/><path fill="#eabc50" d="M9 6h1v1H9z"/></svg>