<svg xmlns="http://www.w3.org/2000/svg" width="83.192" height="83.192"><path d="M28.17 53.142c-.136 2.26.383 4.07 2.287 5.21 1.888 1.244 5.024 1.91 10.228 1.91 5.314 0 11.19-1.015 12.13-5.425.694-3.28-1.492-4.19-7.227-4.866l-20.836-2.6c-13.659-1.7-19.73-6.675-17.51-17.087 3.523-16.623 18.89-21.826 41.852-21.826 16.29 0 36.252 2.935 33.91 20.355H56.084c.324-2.6-1.015-4.292-3.198-5.203-2.159-1.008-5.25-1.357-8.31-1.357-6.9 0-11.305 1.586-12.198 5.771-.408 1.927.817 3.618 6.78 4.3l20.222 2.26c16.13 1.813 23.19 6.901 20.645 18.89-3.08 14.48-18.319 21.26-43.77 21.26-16.974 0-39.295-3.04-35.913-21.592H28.17"/></svg>