<svg xmlns="http://www.w3.org/2000/svg" viewBox="0 0 368.67 334.9" fill="#236db6"><path d="M298.96 187.72s-.22-.88-.55-2.41c-3.72-16.95-7.33-55.02 17.17-71.43 24.28-16.19 48.24 2.73 51.85 12.8 5.25 14.55-6.67 21.22-27.56 26.8-32.93 8.76-40.37 29.98-40.91 34.24z"/><path d="M306.07 214.08c-49-23.85-43.64-63.33-49.77-83.13C221.52 8.99 152.06.24 144.07.02c-19.25-.55-53.16 8.2-55.68 47.03-3.61 55.24 74.05 51.63 102.71 74.05 19.58 15.31 33.25 49.33-2.84 41.89-43.64-16.3-94.72-11.59-115.84-2.73-35.77 14.99-48.35 34.46-51.96 38.5-3.61 4.05-47.8 65.74 6.13 116.49 42.44 39.92 100.08 11.7 122.84-20.13 13.67-19.03 23.3-37.85 34.02-54.47 42.22-51.74 92.97-17.83 106.21 6.13 20.45 36.75 34.78 55.24 53.16 42.88 18.38-12.25 15.86-49.98-36.75-75.58z"/></svg>