<svg xmlns="http://www.w3.org/2000/svg" viewBox="0 0 19 19"><circle cx="9.5" cy="9.5" r="9.5" fill="#1ed760"/><path fill="#fff" d="M8.05 5.03a16 16 0 0 0-4.48.6c-1.16.33-.63 2.06.51 1.7 2.93-.9 7.98-.73 11.04 1.1 1.02.6 1.92-.93.9-1.54-2.2-1.3-5.2-1.87-7.97-1.86zm.17 3.27c-1.4-.03-2.82.14-4.11.53-.88.33-.48 1.64.43 1.42 3.02-.91 6.9-.46 9.46 1.1a.74.74 0 0 0 1.02-.23.74.74 0 0 0-.24-1.02 13.3 13.3 0 0 0-6.56-1.8zm.06 3.1c-1.2-.03-2.49.12-3.84.43-.77.17-.51 1.33.26 1.15 3.3-.75 6.11-.44 8.34.92a.6.6 0 0 0 .82-.2.6.6 0 0 0-.2-.81 10.5 10.5 0 0 0-5.38-1.5z"/></svg>
