<svg xmlns="http://www.w3.org/2000/svg" preserveAspectRatio="xMidYMin meet" width="18.82" height="18.82"><path d="M9.41 0a9.41 9.41 0 100 18.82A9.41 9.41 0 009.41 0m4.316 13.572a.586.586 0 01-.807.195c-2.21-1.35-4.99-1.655-8.266-.907-.762.174-1.023-.969-.261-1.143 3.584-.82 6.659-.467 9.139 1.049.276.169.363.53.195.806m1.15-2.562a.734.734 0 01-1.008.242c-2.529-1.555-6.385-2.005-9.377-1.097-.896.213-1.29-1.083-.426-1.404 3.418-1.037 7.666-.534 10.57 1.25a.734.734 0 01.242 1.01m.1-2.669C11.943 6.541 6.939 6.375 4.044 7.255 2.91 7.617 2.389 5.9 3.533 5.571c3.323-1.01 8.849-.814 12.34 1.258 1.01.599.111 2.113-.898 1.514" fill-rule="evenodd"/></svg>