<svg xmlns="http://www.w3.org/2000/svg" viewBox="0 0 90 90"><circle cx="45" cy="45" r="45" fill="#23CF5F"/><path fill="#FFF" d="M64.7 60.37a2.76 2.76 0 0 1 .94 3.81 2.82 2.82 0 0 1-3.86.93c-10.57-6.39-23.87-7.83-39.53-4.3a2.77 2.77 0 1 1-1.25-5.4c17.14-3.88 31.85-2.2 43.7 4.96ZM70 47.3a3.45 3.45 0 0 1 1.15 4.77 3.53 3.53 0 0 1-4.82 1.14c-12.1-7.35-30.53-9.48-44.84-5.19a3.47 3.47 0 1 1-2.04-6.64c16.34-4.9 36.66-2.52 50.55 5.92Zm5.93-15A4.14 4.14 0 0 1 77.4 38a4.23 4.23 0 0 1-5.77 1.45c-14.5-8.52-38.43-9.3-52.28-5.15a4.16 4.16 0 1 1-2.44-7.96c15.9-4.77 42.32-3.85 59.02 5.95Z"/></svg>