<svg xmlns="http://www.w3.org/2000/svg" viewBox="0 0 90 90"  fill-rule="evenodd"><rect width="90" height="90" fill="#3a85ed" rx="45"/><path fill="#fff" fill-rule="nonzero" d="M69 23.084c-4.72-3.469-10.457-5.254-16.3-5.072-12.394 0-22.31 7.536-22.31 17.684 0 5.87 3.681 9.061 9.54 11.16l5.484 1.956c3.756 1.304 5.559 2.9 5.559 5.437 0 5.001-4.282 8.334-10.892 8.334-4.781-.021-9.462-1.376-13.521-3.914L21 66.425c5.187 3.132 11.153 4.715 17.202 4.566 15.624 0 25.315-8.261 25.315-19.205 0-5.726-3.606-9.494-10.291-11.885l-6.009-2.175c-3.455-1.231-4.808-2.827-4.808-4.855 0-3.478 3.981-6.378 8.714-6.378 4.141-.135 8.209 1.114 11.568 3.551L69 23.084z"/></svg>