<svg xmlns="http://www.w3.org/2000/svg" fill="none" viewBox="0 0 59 44"><path fill="#2cd5c4" d="M27.8 11.19a8.94 8.94 0 0 1-2.72 6.43l-.2.2-4.48 4.38-.2-.2-3.54-3.52c-6.91-6.85-1.18-13.7-.17-14.82l.02-.01.05-.06L20.23 0l4.85 4.75a9 9 0 0 1 2.71 6.44z"/><path fill="#0077c8" d="M25.42 38.82 20.2 44l-3.55-3.53-15.23-15.1-.17-.18-.16-.19-.15-.19A4.69 4.69 0 0 1 1.09 19l.16-.19.17-.17L16.44 3.72l.05-.06c-1.01 1.11-6.74 7.97.17 14.82L20.2 22l.2.2 4.32 4.28.2.2a8.25 8.25 0 0 1 .5 12.14z"/><path fill="#2cd5c4" d="M31.2 32.81a8.95 8.95 0 0 1 2.92-6.62l4.48-4.39.2.2 3.54 3.52c6.91 6.85 1.18 13.7.17 14.82l-.01.01-.06.06L38.78 44l-4.86-4.75a9 9 0 0 1-2.71-6.44Z"/><path fill="#0077c8" d="M33.58 5.18 38.8 0l3.55 3.53 15.23 15.1.18.18.15.19.15.19a4.69 4.69 0 0 1-.15 5.81l-.15.19-.18.17-15.02 14.92-.05.06c1.01-1.11 6.74-7.97-.17-14.82L38.8 22l-.2-.2-4.32-4.28-.2-.2a8.25 8.25 0 0 1-.5-12.14Z"/></svg>