<svg xmlns="http://www.w3.org/2000/svg" viewBox="0 0 90 90"><circle cx="45" cy="45" r="45" fill="#000"/><path fill="#fff" fill-rule="nonzero" d="M36.818 80C31.37 80 23.683 78.434 16 71.628l6.027-6.596c10.771 9.545 21.996 5.775 25.459 2.588.241-.224.464-.457.7-.671-11.322-1.086-19.636-9.016-20.206-9.559-8.689-8.422-10.664-19.862-4.479-26.021s17.809-4.478 26.502 3.935c.77.717 9.231 8.893 10.9 19.264 5.072-3.722 8.066-9.58 8.081-15.809.043-5.256-2.092-10.302-5.912-13.974-3.955-3.83-9.556-5.912-15.727-5.912V10c8.527 0 16.348 2.986 22.009 8.404 5.578 5.342 8.7 12.694 8.642 20.355-.026 11.626-7.182 22.085-18.115 26.477-1.353 3.392-3.489 6.428-6.241 8.865-2.87 2.643-8.489 5.569-15.644 5.866-.38.021-.774.032-1.182.032zm-3.793-43.523c-1.147-.074-2.274.32-3.116 1.091-2.198 2.223-.797 8.468 4.4 13.517h0c.074.068 8.211 7.838 17.841 7.044h0c.042-8.381-8.318-16.325-8.406-16.402l-.056-.059c-3.06-2.99-7.446-5.19-10.664-5.19z"/></svg>