<svg xmlns="http://www.w3.org/2000/svg" class="squarespace-mark is-fill notranslate" width="29.698" height="29.698" viewBox="0 0 89.093 89.093"><g data-name="Logo"><path d="M18.628 46.807l28.18-28.15a10.16 10.16 0 0114.33 0l2.19 2.19 4.39-4.39-2.19-2.2a16.38 16.38 0 00-23.14 0l-28.16 28.16z"/><path d="M56.248 27.927l-4.39-4.39-28.19 28.19a10.15 10.15 0 01-14.35-14.36l24.32-24.32-4.39-4.39-24.32 24.32a16.36 16.36 0 1023.13 23.14zm28.06 5.05a16.39 16.39 0 00-23.14 0l-28.19 28.19 4.39 4.39 28.19-28.19a10.15 10.15 0 0117.32 7.18 10 10 0 01-3 7.18l-24.29 24.32 4.4 4.39 24.32-24.32a16.38 16.38 0 000-23.14z"/><path d="M70.608 42.287l-28.19 28.18a10.17 10.17 0 01-14.36 0l-2.19-2.2-4.39 4.39 2.19 2.2a16.39 16.39 0 0023.14 0l28.19-28.2z"/></g></svg>