<svg xmlns="http://www.w3.org/2000/svg" version="1.2" height="243.8" width="243.8"><path d="M243.8 121.8c0 67.3-54.7 122-122 122S0 189 0 121.8 54.5 0 121.8 0s122 54.5 122 121.8" vector-effect="non-scaling-stroke" fill="#002a5c" fill-rule="evenodd"/><path d="M208.1 121.8c0 47.7-38.6 86.3-86.3 86.3-47.7 0-86.3-38.6-86.3-86.3 0-47.7 38.6-86.3 86.3-86.3 47.7 0 86.3 38.6 86.3 86.3" vector-effect="non-scaling-stroke" fill="#fff" fill-rule="evenodd"/><path d="M17.5 87.5v1c-2-.2-4 .2-4.7 2.4-.5 2 .3 3.8 2.3 4.4 5 1.4 6.3-7.8 11.6-6.3 3.2 1 5 4 4 7.7-.6 1.8-1.7 4-3 5l-4.4-1v-.8h3.5c1.4-.3 2.5-2.2 2.8-3.4.6-2.2 0-4-2.3-4.8-4.5-1.2-5.5 8-12.2 6-2.8-.6-4.4-3.5-3.4-7.2.3-1.3 1-2.4 1.5-3.7l4.2.7zm16.7-22.4c5 2.5 6.5 7.7 3.8 13-3.2 6-8.5 7.2-13.4 4.7-5.6-3-7.4-8-4.7-13.3 3.4-6.2 8.8-7.3 14.4-4.4zm3 12.3c2.2-4.5-.7-7.8-4.6-10-5-2.5-10-1-11.8 2.7-2 3.6-.4 7.2 4 9.5 5.4 2.8 10 2 12.3-2.2zm8.4-33.6l-.8.7c-2-1.4-4.6-1.7-8 2.2-3.2 3.6-3.5 7.3.4 10.7 4.2 3.6 10 4 13.3 0 1.8-2.2 2.4-4.7 1.4-7.5h1l1.4 3.8c-1 1.8-2 3.4-3.2 4.8-4 4.7-9.4 6.4-14.8 1.7-4.7-4-5-9.2-.5-14.5 1.3-1.5 3.8-3.7 5.7-5l4 3zm5.4-10l10.4 12.7 2.3-1.3.7.7-6.2 5.2-.6-.7 1.7-2-10.4-12.6-2.1 1-.7-.7 6.2-5 .6.6-1.6 2zm16.2 1.5l1 6 2.6-1 .5.8-6 3.4-.4-.8 1.8-1.7-2.6-19.2 1.2-.6 15.6 12 2.3-.8.4.8-6.8 4-.6-1 2-1.6-4.8-3.8-6 3.5zm-.2-1.5l5-3-6.3-4.7 1.4 7.7zm18-1l2.4-1.3-5-15.5-2.8.4-.3-1L87 13l.3 1-2.4 1.2 5 15.2 6.6-2 .2-4 1-.4.4 5.5-13 4.2-.2-1zM122.8 12h-.8c-.5-2-1.5-3.6-3.8-3.5-2 0-3.5 1.4-3.4 3.5.2 5.2 9.3 3.6 9.5 9 0 3.6-2 6-6 6.2-2 0-4.4-.3-5.8-1.2l-.4-4.5 1-.3c0 1.5.5 2.6 1 3.4.6 1 2.7 1.6 4 1.6 2.2 0 4-1.3 3.8-3.7 0-4.6-9.2-2.8-9.4-9.8 0-3 2-5.4 6-5.5 1.3 0 2.6.4 4 .5l.5 4.2zm11.6 5l5 .7.8-2h.8c-.4 1.5-.7 4-.8 5.5h-.8l-.2-2.3-5-.7-1 7.4 7.5 1 1.4-2.8h1l-1.8 4.6-13.8-2 .2-1h2.7l2.2-16-2.7-1 .2-1 12.5 2-.2 4h-1l-.2-2.8-6-.8-1 7zm32.7 5.6l-1-.3c.7-2.5 0-5-5-6.8-4.5-1.6-8-.5-9.7 4.3-2 5.3 0 10.7 4.7 12.4 2.7 1 5.3.6 7.5-1.3l.5 1-3 2.7c-2.2-.2-4-.6-5.7-1.2-6-2-9.4-6.5-7-13.3 2-5.8 7-8 13.4-5.6 2 .7 4.8 2.2 6.7 3.5l-1.4 4.8zm23.5 9.5l-5 7.7c-3 4.4-6.8 6.3-12 3-4.8-3.2-5.2-7.2-2.8-10.6l6-9.2-2-1.8.6-.8 6.7 4.4-.5.8-2.5-1-5.5 8.2c-2.3 3.4-2.4 6.5 1 8.8 1.2.8 3.3 1.5 5.3 1 1.7-.6 3-2.6 3.8-3.8l5.2-8-2-1.7.5-.8 6.4 4-.7 1zm-3 19l11.7-11.4-1.6-2.4.6-.7 6.2 6.4c2 2 2.6 4.8.3 7-1.6 1.7-4.2 2-6.4 1.5l-1 5.7c-.2 1.6-.7 3.8 0 5.5l-.8.4-1-2c-.4-.5-1-1.4-1-1.6a92 92 0 011.7-9.5 32 32 0 01-2-2l-5 4.6 1.5 2.4-.6.6-5.7-6 .7-.6 2.3 1.8zm7.5-3.7l.8 1c2.4 2.3 3.6 3.4 6.4.7 2.2-2 2.4-4.4.3-6.6a6 6 0 00-1.2-1l-6.2 6zm20.4 11.7L202 68.4l1.2 2.4-.8.6-4.6-6.6.8-.6 2 2 13.2-9.4-1-2.4.6-.5 4.6 6.8-.8.5-2-2zm-7 20.4l14.6-7-1.5-3a40 40 0 00-1.2-2.4l-3.2.4-.4-1 4.5-1.4 7.6 16.3-4 2.2-.5-1 2.4-1.8a46.2 46.2 0 00-1-2.7l-1.6-3-14.6 6.8.8 3-.8.4-3.7-8 1-.3 1.6 2.7zm6.5 17.8l6.5-1.6 8-8.2-.3-2.7 1-.2 2 8-1 .4-1-2.5-6.5 6.7 8.6 2.3-.2-2.7 1-.3 1.5 6.6-1 .2-1-2-10.7-3-6.4 1.6.2 3.3-1 .2-2-8.8.8-.2 1.2 3zM17.8 147.8l-6-.3.2 2.7-1 .2-1.8-6.5h1l1 2 19.2 1.7.4 1.4-15.2 12.2.2 2.4-1 .2-2-7.5.8-.3 1.2 2.5 4.8-3.8-2-6.7zm1.3.2l1.6 5.5 6-5-7.7-.5zm-1.5 20l1.8 2 14-8-1-2.5 1-.5 5 8.8c2.7 5 3.3 10.4-2.6 13.7-6.3 3.5-11.2.7-14.2-4.7l-4.8-8.5.8-.4zm3.2 4.2c.6 1.6 1 3 2 4.4 2.2 4 6.2 5.4 10.7 3 5.4-3.2 6-7.6 3.2-12.5a35.6 35.6 0 00-2-3l-14 8zm37.6 23.2l-10.6 12.4 1.5 2-.6.8-5.6-5.7.7-.5 2.3 1.6 10-11.5h-.3l-16.3 6.3-.2-.3 6.7-16-11.5 9.2 1.4 2-.8.6-4.4-4.6.6-.6 2 1.3 12.7-10-1.5-2.4.6-.6 4.2 4.2-5.8 14 14-5.6 4 4.2-.6.6-2.2-1.6zm9 6.3l-9.6 13.1 2 2-.6.6-6.5-4.6.6-.7 2.4 1 9.3-13-2-2 .6-.7 6.5 4.5-.6.8-2.5-1zm-1 18.8l7-14.7-2.3-1.4.4-.8 4.4 2 6 19 5.6-12-2.2-1.6.4-.8 6.2 3-.3.7-2.6-.6-7.4 16-1.3-.5c-.7-2.7-5-16.2-6.2-20.4l-6 12.8 2.4 1.6-.4 1-6.3-3 .3-1 2.7.8zm31.8-5l-4 15.7 2.3 1-.2 1-7.7-2 .2-1 2.7.3 4.2-15.6-2.6-1 .2-1 7.7 2-.2 1-2.6-.3zm15.8 5.8h-1c0-2-.7-3.8-3-4-2-.4-3.6.7-3.8 2.7-.7 5 8.5 5 7.8 10.5-.5 3.3-3 5.4-7 5-1.8-.3-4-1-5.3-2l.2-4.6h1c0 1.3 0 2.5.4 3.3.5 1.2 2.5 2 3.6 2.2 2.3.3 4-.6 4.4-3 .6-4.6-8.6-4.2-7.7-11 .2-3 2.8-5 6.5-4.4 1.4 0 2.6.8 4 1l-.3 4.3zm12.8 13.2l-.8-16-3.4.2-2.7.2-.7 3-1 .2.4-4.7 17.7-1 .5 4.6h-1l-1-3a45.2 45.2 0 00-2.8.2l-3.4.2 1 16 3 .2v1l-8.7.3v-1l3-.5zm18.5-2.2l-4.2-15.6-2.8.3-.2-1 8.5-2.2c2.7-.6 5.5 0 6.3 3.2.7 2.2-.2 4.6-1.7 6.3l4.6 3.6c1.2 1 2.8 2.5 4.6 2.7v1h-2c-.8 0-1.8 0-2-.2a91 91 0 01-7.5-5.8l-2.7.8 1.7 6.4 2.7-.3.3 1-8 2v-1l2.5-1zm.5-8.3c.3 0 .7 0 1-.2 3.3-.8 5-1.4 4-5-1-3-2.8-4.2-5.8-3.4-.5 0-1 .3-1.4.5l2.2 8.3zm21.4-5l.8 6 2.6-1 .4 1-6 3-.4-.8 1.8-1.4-2-19 1.3-.8 14.7 12.6 2.3-.7.4 1-7 3.5-.4-.8 2.2-1.6-4.7-4-6 3.3zm0-1.5l5-2.6-6-5zm23-6l-9.8-12.6-2.6 2a40.2 40.2 0 00-2 1.8l1 3-.7.5-2.4-4 13.8-11 3 3.6-.7.7-2.3-2a45.4 45.4 0 00-2.3 1.7l-2.7 2 10 12.7 2.5-1.4.6.8-6.8 5.3-.6-.7 2-2.2zm3-24.6l12 11 2-1.5.7.6-5.4 5.8-.6-.5 1.4-2.3-11.7-11-2.2 1.6-.7-.6 5.5-5.8.7.6-1.5 2.2zm22-15.3c4.6 3 5.7 8.2 2.4 13-3.8 5.8-9 6.3-13.6 3.3-5.2-3.5-6.5-8.7-3.2-13.6 3.8-5.8 9.4-6.2 14.5-2.8zm1.7 12.4c2.8-4.3.4-8-3.3-10.3-4.7-3-9.7-2-12 1.4-2 3.3-1 7 3 9.8 5 3.3 9.8 3 12.4-.8zm8.6-16.5l-15.3-5.6-1.3 2.4-.8-.3 1.6-4.7 18.4-7.6-12.6-4.5-1.4 2.4-.8-.2 2.3-6.5 1 .3-.6 2.7 16.8 6-.5 1.2a3353.4 3353.4 0 00-19.6 8l13.4 5 1.4-2.6 1 .2-2.4 6.6-1-.3.6-2.6z" vector-effect="non-scaling-stroke" fill="#fff"/><path d="M37.8 123.4s2.3 1.3 5.7-.3c4-2 5.7-3.4 10-12.5 4.4-9.7 9-21.5 16.5-28.2 7.4-6.6 15.8-11.6 27.8-8.6 0 0 0 1-5 1.2-2.3.4-9.7 2-17 8-8.2 7.5-13.2 20.2-16.2 26-2 4.3-7.8 17.7-15.8 17.7-3 .3-6-3.4-6-3.4" vector-effect="non-scaling-stroke" fill="#002a5c" fill-rule="evenodd"/><path d="M68.3 101.8c8-18 17-20 17-20s0 4 .5 5c0 0-7 1.7-14.5 21.5-2.7 7-8 18.4-17.4 18.4 0 0 5.4-4 14.5-25m5 13.5l4.7-10c6.7-15.4 14.4-17.4 16.4-17.4 2.3-.3 3.3 1 3.3 1s-9.7 2.7-16.4 23.2c0 0-5.4 1.6-8 3.3m13.7-5s4.4-13.5 13.7-18.8l2.8 3s-7.8 6-10.8 14.8c0 0-3.7.3-5.7 1m17-.7c.8-3.3 5.2-7.7 5.2-7.7l-2.7-3.3s-5 3.7-7.7 10.8c0 0 2 0 3 .3h2.4zm21-12.7s4.3-.3 5.6-2c0 0 10.4 4.7 13.7 13 0 0-4.3 0-6.7.5 0 0-3-5.7-12.8-11.4m31.3 12.5s-4.4-1.4-6.7-1c0 0 0-9.4-15.2-16.5 0 0 2.4-3 3-4.3 0 0 17 5.3 19 21.8" vector-effect="non-scaling-stroke" fill="#002a5c" fill-rule="evenodd"/><path d="M171.8 116s-3.4-2.7-8-5c0 0-4.5-25-25-26l2.4-4.3c.3-.4 1-.7 1.3-1 0 0 12-3 22.5 4 4.4 3.3 10 12.4 14.4 23.8 3.7 9.4 8.4 16.8 9.8 18.5 0 0-5-.7-7.8-3.4-4-4-10.4-24-14.4-29.6-4-5.7-7.7-10.4-19.5-9.8 0 0 8.4 2.4 13.5 9 6 8.2 10.7 23.6 10.7 23.6" vector-effect="non-scaling-stroke" fill="#002a5c" fill-rule="evenodd"/><path d="M135.5 74.8c-2.7 6.6-4.7 11-10 11-10-.7-11.2-6.4-11.5-7 0-1.4 2-2.4 2-2.4-.7 0-4.7 0-10-1.4-7.5-2.3-7.5 2.7-7.5 2.7s-9-2.4-10 2.3c-.7 2-.4 5.3-.4 5.3s6.7-3.6 11.8.7c4.4 3.4 5 6.4 11.5 13.4 3 3.7 11 15.5 21.5 10.5 0 0-1.4-2.7-8.4-7.4-3-2-7.4-4-10.4-6.4-2.7-2-3.7-3-9-9-2.5-2.8-9.5-6.5-13.5-5-.4.2-.4.6-.7.6 0 0 0-1.7.3-2.4.4-1 4.4-1.3 9 0 0 0-.6-3.7 3-3 3.8.7 7.8 2 8.8 1.7 0 0 0 8.7 14.2 9.7 7 .3 9.8-7 11.5-10 .6-.7 1.6-2.4 3-2.8 9-2.3 25.5-2.3 36 14.8 4 7.4 10.7 22.2 13.3 27 6.8 11.6 12 9.6 16.5 5.6 0 0-6.7 3.7-12.4-9.8-2.6-6-11.7-25.8-18.4-31.8-3.4-3-8.4-7.8-17-9.8-18-3.7-23 2.7-23 2.7" vector-effect="non-scaling-stroke" fill="#002a5c" fill-rule="evenodd"/><path d="M101.8 78.8s1 1.3 1 2.3c0 0 1.4-1 4.4-1l-5.4-1.3m-10.3 59h5.7v39.4s-5 .7-5.7-6.3v-33zm61.7 0h-5.8v39.4s5.4.7 5.8-6.3v-33zm-51.8 0h5.4v42.6l-5.7-1.3zm9 0h5.3v44.8l-5.5-1.3v-43.5zm33 0h-5.6v42.6s1.7-.6 5.8-1.3l-.3-41.3zm-9.3 0h-5.3v44.8l5.3-1.3zm-15 0h5.8v44.8l-2.5 3.2-3-3z" vector-effect="non-scaling-stroke" fill="#002a5c" fill-rule="evenodd"/><path d="M110.6 116v10c0 4.8-1.3 9-8.7 9-6-.2-8.6-3-8.6-7.4V116l-3-.6v-1h10.2v1l-3 .6v11.5c0 3.6 1.8 5.7 5.5 5.7 5.2 0 6-3.5 6-7.3v-9.8l-3-.6v-1h7.4v1l-2.6.6zm16.5 4h-1c-.2-2.5-1.3-4.8-4.2-4.8-1.7 0-3 1-3 3 0 5 9.4 3 9.4 10.4 0 3.6-3 6.3-7 6.3a11.7 11.7 0 01-5.7-1.5c0-1.6 0-3.3-.2-5h1.2c.3 2.6 1.5 5.3 4.7 5.3 2.2 0 3.6-1.3 3.6-3.5 0-4.2-9.3-3.5-9.3-10 0-4 2.7-6.2 6.7-6.2 1.7 0 3.4.6 5 1.4v4.8zm4 14.5v-1l2.2-.7 7-19h2.5l7.3 19 2.4.6v1h-9.7v-1l2.6-.6-2-5.3h-6.3l-1.8 5.3 2.7.6v1h-7zm6.5-8.6h5.2l-2.7-7z" vector-effect="non-scaling-stroke" fill="#cf0a2c"/></svg>