<svg xmlns="http://www.w3.org/2000/svg" viewBox="-179 366 68 61"><g fill="#a0cc41"><path d="M-180.7 376.9h8.6c.5 0 1-.4 1.1-.9l1.8-8.7c.1-.5-.2-.9-.7-.9h-8.6c-.5 0-1 .4-1.1.9l-1.8 8.7c-.2.5.2.9.7.9zm9.7 14.9h8.6c.5 0 1-.4 1.1-.9l1.8-8.7c.1-.5-.2-.9-.7-.9h-8.6c-.5 0-1 .4-1.1.9l-1.8 8.7c-.2.5.1.9.7.9z"/><path d="M-112.5 376.8h-5.3c-.5 0-.8-.4-.7-.9l1.8-8.7c.1-.5-.2-.9-.7-.9h-46.2c-.5 0-1 .4-1.1.9l-1.8 8.7c-.1.5.2.9.7.9h11.1c.5 0 .8.4.7.9l-10.1 47.9c-.1.5.2.9.7.9h40.4c.5 0 1-.4 1.1-.9l10.1-47.9c.1-.5-.2-.9-.7-.9zm-19.8 18.6a5.7 5.7 0 0 1-2.6 4l-.4 10.8c0 .6-.6 1.3-1.2 1.3h-7.5c-.6 0-.8-.6-.6-1.3l4.6-10.6c-1.1-.9-1.6-2.4-1-4.2a6 6 0 0 1 4.6-4h.9l.8.1c1.7.4 2.7 2 2.4 3.9z"/></g></svg>