<svg xmlns="http://www.w3.org/2000/svg" width="476.215" height="476.215" viewBox="0 0 125.999 125.999"><defs><clipPath clipPathUnits="userSpaceOnUse" id="a"><path d="M-143.677 78.542v8.471c1.423 0 10.588-.633 10.588 14.824h-10.588v46.588c11.408 0 24.98-2.61 24.353-14.824V108.19c0-3.77-3.68-6.352-6.353-6.352 0-7.409-3.401-23.295-18-23.295z" fill="#efefee" stroke-width="1.059"/></clipPath></defs><path d="M63 0L15.352 14.823v66.705c0 31.98 44.18 42.469 47.646 44.47 3.466-2.001 47.647-12.49 47.647-44.47V14.823z" fill="#0094ff"/><path d="M63 7.412l47.646 14.823v59.293c0 31.98-44.18 42.469-47.647 44.47z" fill="#007ed9"/><path d="M63 0l47.646 14.823v7.412L62.982 7.412l-47.63 14.823v-7.412z" fill="#0069b6" fill-opacity=".992"/><path d="M62.964 62.472a6.875 6.875 0 00-6.85 6.875 6.875 6.875 0 003.229 5.829h-.05v6.352h7.412v-6.352h-.07a6.875 6.875 0 003.23-5.829 6.875 6.875 0 00-6.876-6.875 6.875 6.875 0 00-.025 0zM63 26.47c-14.598 0-18 15.886-18 23.294-2.673 0-6.354 2.582-6.354 6.353v25.411C38.02 93.742 51.592 96.352 63 96.352c11.407 0 24.978-2.61 24.352-14.824V56.117c0-3.771-3.68-6.353-6.353-6.353 0-7.408-3.401-23.294-18-23.294zm-.354 8.467c.145.001.265.004.354.004 1.422 0 10.588-.633 10.588 14.824H52.41c0-14.491 8.056-14.84 10.235-14.827z" fill="#fff" fill-rule="evenodd"/><path d="M-143.712 114.544a6.875 6.875 0 00-6.85 6.875 6.875 6.875 0 003.229 5.829h-.05v6.353h7.412v-6.353h-.07a6.875 6.875 0 003.23-5.829 6.875 6.875 0 00-6.876-6.875 6.875 6.875 0 00-.025 0zm.036-36.002c-14.598 0-18 15.886-18 23.295-2.673 0-6.353 2.581-6.353 6.352v25.412c-.627 12.214 12.945 14.823 24.353 14.823 11.407 0 24.979-2.61 24.352-14.823v-25.412c0-3.77-3.68-6.352-6.353-6.352 0-7.409-3.401-23.295-18-23.295zm-.354 8.468c.146 0 .265.004.354.004 1.422 0 10.588-.634 10.588 14.823h-21.177c0-14.49 8.056-14.84 10.235-14.827z" clip-path="url(#a)" transform="translate(206.676 -52.072)" fill="#efefee" fill-rule="evenodd"/></svg>