<svg xmlns="http://www.w3.org/2000/svg" version="1.1" id="Layer_1" x="0" y="0" xml:space="preserve" width="70.8" height="70.8"><style type="text/css" id="style8635">.st1{fill-rule:evenodd;clip-rule:evenodd;fill:#00b0ff}</style><g id="g8667" transform="translate(-2 -6.55)"><path class="st1" d="M13.4 13h50.2c2.5 0 4.6 2.1 4.6 4.6 0 2.5-2.1 4.6-4.6 4.6H13.4c-2.5 0-4.6-2.1-4.6-4.6 0-2.5 2.1-4.6 4.6-4.6z" id="path8659"/><path class="st1" d="M6.6 29.2h50.2c2.5 0 4.6 2.1 4.6 4.6 0 2.5-2.1 4.6-4.6 4.6H6.6c-2.5 0-4.6-2.1-4.6-4.6 0-2.5 2.1-4.6 4.6-4.6z" id="path8661"/><path class="st1" d="M18 45.5h50.2c2.5 0 4.6 2.1 4.6 4.6 0 2.6-2.1 4.6-4.6 4.6H18c-2.5 0-4.6-2.1-4.6-4.6 0-2.5 2.1-4.6 4.6-4.6z" id="path8663"/><path class="st1" d="M11.1 61.7h50.2c2.5 0 4.6 2.1 4.6 4.6 0 2.6-2.1 4.6-4.6 4.6H11.1c-2.5 0-4.6-2.1-4.6-4.6.1-2.5 2.1-4.6 4.6-4.6z" id="path8665"/></g></svg>