<svg xmlns="http://www.w3.org/2000/svg" id="Moniker" x="0" y="0" viewBox="0 0 74 74" xml:space="preserve"><style>.st0{fill:#fff}</style><path d="M0 0h74v74H0z"/><path class="st0" d="M19.766 42.289c0-.794-.263-1.406-.789-1.841-.526-.433-1.469-.891-2.83-1.376-2.845-.897-4.953-1.858-6.324-2.884-1.372-1.026-2.058-2.507-2.058-4.446 0-1.887.817-3.412 2.451-4.577 1.634-1.166 3.708-1.748 6.224-1.748 2.496 0 4.54.641 6.133 1.925 1.592 1.283 2.363 2.937 2.311 4.956l-.031.094h-5.072c0-.897-.304-1.627-.913-2.189-.609-.561-1.449-.842-2.521-.842-1.051 0-1.876.232-2.475.696-.598.465-.896 1.036-.896 1.716 0 .66.301 1.189.904 1.586s1.734.894 3.394 1.492c2.558.762 4.483 1.701 5.777 2.815 1.293 1.113 1.94 2.644 1.94 4.593 0 1.98-.771 3.529-2.312 4.647-1.54 1.118-3.585 1.678-6.131 1.678-2.556 0-4.768-.641-6.633-1.925-1.867-1.284-2.774-3.132-2.722-5.544l.031-.093h5.088c0 1.298.351 2.227 1.052 2.783.7.557 1.763.835 3.185.835 1.083 0 1.889-.216 2.421-.649.531-.434.796-1.001.796-1.702M61.673 25.566L53.759 48.39H58.705l8.103-22.824zM52.181 25.566L44.268 48.39h4.946l8.103-22.824zM33.639 36.487h3.238c1.149 0 2.025-.316 2.625-.949.601-.632.901-1.444.901-2.437 0-1.014-.3-1.844-.901-2.493-.601-.647-1.476-.971-2.625-.971h-3.238v6.85zm0 4.076v7.823h-5.314V25.561h8.552c2.707 0 4.854.693 6.442 2.077 1.588 1.386 2.383 3.196 2.383 5.432 0 2.247-.795 4.058-2.383 5.432-1.588 1.375-3.736 2.061-6.442 2.061h-3.238z"/></svg>