<svg xmlns="http://www.w3.org/2000/svg" viewBox="0 0 279.38 281.66"><path fill="#03a4fc" d="m271.05 9.32-5.25 33.53-3.44 21.58a12 12 0 0 0 1 7.69 142.63 142.63 0 0 1 15.11 51.12c3 29.26-1.33 57.23-14.88 83.41-19.08 36.83-49.23 60-89.15 70.7a132.74 132.74 0 0 1-46.44 3.72c-30.61-2.74-57.66-14.22-80.75-34.7-22.11-19.62-36.92-43.74-43.38-72.59-9.81-44.05-1.11-84.29 26.9-119.84 18-22.86 41-39.06 68.94-47.61 35.94-11 70.75-7.65 103.89 10.15a22.3 22.3 0 0 0 16.4 2.25c16-3.4 32.16-6.23 48.26-9.26a22.58 22.58 0 0 1 2.79-.15zm-30.56 31.55c-1.52.11-2.48.09-3.41.26l-23.89 4.53c-3.58.75-6.75.62-10-1.24-4.19-2.42-8.59-4.33-12.86-6.52-23.57-12.14-48.25-15.76-74.21-9.83a113.63 113.63 0 0 0-60.61 35.81C28.89 93.61 19.4 128.36 28.28 167.21c8.43 36.9 30.71 63.38 65.15 79.13a109.22 109.22 0 0 0 66 8.29c30.65-5.48 55.29-20.65 73.54-45.87 10.77-14.89 16.83-31.73 19.65-49.89a127.38 127.38 0 0 0-1.2-44.95 123.78 123.78 0 0 0-14.56-37.84 8 8 0 0 1-1.14-4.57c.59-4.93 1.6-9.8 2.38-14.7l2.39-15.94z"/><path fill="#03a5fc" d="m192 182.61 20.27 14.44c-17.84 23.79-41.17 37.07-70.52 38C110 236 84.56 222.74 65 197.07l20.24-14.43c26.95 36.46 79.76 36.04 106.76-.03Z"/></svg>