<svg xmlns="http://www.w3.org/2000/svg" width="188.504" height="188.504"><path d="M110.493 71.23c.713.453 1.463.903 2.203 1.34.01.002.017.01.028.013h19.59l23.1 23.088v65.68l-26.568 25.572h-69.87l-26.564-25.61.014-35.045H67.57c.021-.1.03-.193.058-.29.123-.408.334-.753.583-1.066H31.298l-.014 37.139 27.443 26.453h71.047l27.446-26.414V95.182L133.264 71.23h-22.77" fill="#fff"/><path d="M129.777 0H58.73L31.287 26.372v69.8l23.952 23.98h10.566c-.038-.607.139-1.162.296-1.581H55.51L32.412 95.45V26.884l26.57-25.528h69.864l26.568 25.568v38.278l-34.943-.017a3.459 3.459 0 01-.044 1.582h36.793V26.413L129.777 0" fill="#fff"/><path d="M155.414 26.924L128.846 1.356H58.983l-26.57 25.528v68.567l23.096 23.12H66.1c-.26.696-.597 1.772.136 2.826.802 1.159 2.185 1.159 2.704 1.159.63 0 1.492-.075 2.826-.248l.003.003s.556.472-1.135 1.015v.004c-1.387.484-2.598 1.279-3.007 2.649-.028.096-.037.19-.058.289H32.426l-.014 35.045 26.564 25.61h69.87l26.568-25.572V95.67l-23.1-23.088h-19.59l-.028-.014c-.863-.51-1.752-1.033-2.563-1.564l-.294-.185c-.556-.308-1.049-.729-1.46-1.047a8.689 8.689 0 01-1.07-.988c-.503-.502-.977-1.072-1.391-1.561 3.062.872 6.382 1.084 7.978 1.139.524-.032.996.071 1.514.166.455.216.9.374 1.384.552.197.041.402.062.61.062a3.147 3.147 0 002.835-1.82c.18-.382.429-1.146.232-2.138l34.943.017V26.924" fill="#a80c30"/><path d="M71.886 129.442l-36.29-.006-.013 30.527 24.675 23.788h67.307l24.68-23.748V96.985l-21.242-21.232-33.466.004-1.517 3.16 33.668.003 19.388 19.38v60.355L126.29 180.58l-64.758-.037-22.778-21.932.01-26.006 52.895-.004z" fill="#fff"/><path d="M56.821 115.403L35.583 94.138V28.236L60.261 4.524h67.304l24.68 23.75v33.758h-47.909l-6.97-3.262 51.71.088V29.621L126.29 7.692H61.532L38.754 29.584v63.245l19.383 19.407h26.808l-5.485 3.167z" fill="#fff"/><path d="M126.1 181.259l-6.39-.004c-3.212-.038-8.187-2.207-9.684-4-1.991-2.378-3.476-3.219-4.785-3.963-.91-.516-1.77-1.003-2.714-1.95-2.943-2.946-3.48-6.375-3.62-9.634l-.002-16.797c-.022-.286-.008-1.1.31-1.446a.445.445 0 01.35-.148c.208 0 .586.101 1.215.593 1.631 1.271 2.845 1.7 4.808 1.7.85 0 1.823-.074 3.053-.173l.59-.045c3.434-.282 7.144 2.216 9.803 4.005.567.382 1.075.726 1.519.996l.45.28c1.019.64 2.288 1.435 3.222 1.435.43 0 .77-.17.992-.495.473-.695.781-2.426-1.98-9.419-1.024-2.583-3.995-4.374-5.671-5.205-.574-.312-1.263-1.067-1.407-1.865-.096-.521.05-1.002.404-1.41.066-.054 1.598-1.427 1.679-2.845.031-.512-.13-.97-.469-1.349-.604-.73-2.017-1.224-4.32-1.51-2.57-.317-5.694-1.92-6.908-4.79-.042-.413.07-.77.33-1.063.366-.413 1.011-.674 1.683-.674.445 0 .857.114 1.162.32 1.39.925 4.213 1.88 5.717 2.082 1.547.21 2.466.303 3.081.303.647 0 .996-.107 1.17-.358.218-.314.067-.719-.125-1.23-.039-.102-.079-.211-.139-.383-.342-.957-1.142-3.204-4.311-4.864a52.92 52.92 0 00-5.589-2.554c-1.72-.681-2.182-.86-2.818-2.12-.209-.42-.403-2.461-.002-3.113.087-.138.159-.138.192-.138.053 0 .169.023.38.179l.032.021c.293.312.655.698 1.088 1.033 1.764 1.36 3.162 1.492 5.438 1.442l.163-.003c1.439 0 1.972.412 2.485.807.224.174.454.353.747.484l.157.076c.348.162.709.333 1.023.333a.616.616 0 00.524-.251c.203-.28.325-.826-.313-2.76-1.372-4.165-3.69-6.874-7.296-8.522-1.766-.81-6.875-4.141-7.788-5.172-.825-.932-1.67-2.393-1.484-2.805.011-.023.045-.101.286-.101.134 0 .305.024.507.078.643.17 1.217.422 1.77.668.998.443 2.03.899 3.519.899.777 0 1.614-.121 2.539-.371.005-.004.51-.098 1.118-.098.597 0 1.095.091 1.442.272.231.12.523.184.823.184.593 0 1.045-.262 1.18-.682.27-.856-.753-2.103-3.042-3.708-1.305-.914-2.589-1.49-3.722-2.002-2.182-.985-3.906-1.762-5.067-4.332-.233-.423-.535-1.22-.35-1.569l.055-.102c.16-.232.669-.713 1.399-.713.2 0 .405.034.61.11.376.132 1.056.405 1.874.733 1.95.78 4.622 1.85 6.003 2.177.88.202 1.67.532 2.36.996.493.294 1.543.73 2.428.73.484 0 .863-.133 1.122-.392.249-.253.374-.61.368-1.101-.451-3.31-1.328-6.287-2.18-7.409-.538-.704-1.934-2.433-3.308-3.23-.659-.383-2.96-1.729-4.837-2.933l-.069-.048a12.406 12.406 0 01-1.843-1.313c-.523-.415-.963-.82-1.318-1.216-1.461-1.487-2.552-3.037-2.839-3.743-.32-.784-.387-1.674-.153-2.022.124-.176.32-.153.607.01 3.197 1.817 8.364 2.165 10.45 2.233.217 0 1.731.168 2.05.266.38.15.97.43.984.437.547.225 1.276-.082 1.547-.668.183-.389.336-1.224-.661-2.417-.428-.665-1.055-1.429-1.868-2.27-.017-.018-1.812-1.839-3.564-3.157-1.477-1.109-5.117-3.45-7.24-4.091-2.854-.863-3.522-1.667-3.664-2.066a.58.58 0 01.023-.473c.422-.201 1.03-.379 1.812-.533a5.1 5.1 0 01.936-.079c1.205 0 2.453.304 2.484.31 1.89.331 3.31-.063 3.607-.974.137-.416.135-1.281-1.397-2.4-1.17-.853-1.99-1.21-4.426-2.277-.514-.226-1.1-.482-1.78-.784-1.642-.723-1.89-2.128-1.777-2.844.067-.422.267-.732.49-.756.348-.042.838.006 1.366.054.416.034.847.072 1.231.072.532 0 1.17-.058 1.379-.529.21-.473-.105-1.141-1.035-2.185-.094-.092-2.33-2.284-4.005-2.919-.339-.13-.54-.283-.546-.419-.014-.245.46-.666 1.154-1.026.053-.027.12-.058.192-.091.427-.196 1.144-.521 1.217-1.199.07-.637-.456-1.373-1.636-2.264-.944-.574-3.404-2.318-3.453-3.486-.01-.258.102-.466.358-.651 2.128-1.555 2.23-2.24 2.12-2.62-.168-.587-1.026-.644-1.306-.663-.983-.07-1.688-.33-1.984-.737-.172-.237-.212-.53-.119-.915.038-.216.558-.678.902-.984.27-.24.525-.465.682-.661.257-.321.346-.615.262-.87-.078-.231-.289-.4-.617-.482a2.597 2.597 0 00-.615-.063c-.868 0-1.373-.481-1.855-1.752a95.938 95.938 0 01-1.05-4.71l-.047-.214-.3-.006c-.609.005-.7.409-.944 1.485l-.073.328c-.99 4.357-1.469 5.88-2.988 5.88-.199 0-.381.019-.599.056-.406.117-.552.333-.604.493-.08.252.009.544.266.863.326.41.818.777 1.296 1.133.464.346 1.041.78 1.054 1.018.023.417-.337.836-1.014 1.468-.649.65-2.304 1.758-2.312 1.764-.22.136-2.16 1.35-2.554 2.12-.15.348-.065.6.035.75.37.564 1.562.626 2.06.626l.054-.002c2.282.087 2.47.564 2.483.66.04.262-.464.683-.79.796-.22.08-.431.152-.638.22-.831.283-1.614.548-2.536 1.072-1.404.896-2.78 2.246-2.85 2.316-.92 1.032-1.236 1.702-1.024 2.174.21.469.846.53 1.375.53.386 0 .815-.037 1.233-.076.528-.046 1.018-.092 1.367-.052.224.022.424.336.49.762.113.713-.135 2.114-1.778 2.837-.777.344-1.436.63-2 .879-.624.273-1.135.497-1.589.702-.719.386-2.057 1.222-2.916 2.451-.244.352-.302.655-.172.907.291.56 1.39.562 2.777.57.536 0 1.09.003 1.581.04.746.055 1.579-.238 2.296-.501.583-.215 1.14-.419 1.51-.377 1.136.118 1.364.322 1.515.926.152.618-.247 1.32-1.228 2.127-.215.277-.615.53-.914.659l-.105.054c-1.304.811-2.703 1.395-3.127 1.564-4.519 2.424-10.19 5.96-12.562 8.616-1.14 1.278-1.004 2.157-.82 2.567.271.603 1.032.93 1.59.685l.26-.123c.639-.3 1.51-.709 2.735-.709.374 0 .76.037 1.15.116.364.072.771.109 1.211.109 1.601 0 3.45-.488 4.662-.805.774-.166 1.493-.804 2.13-1.367.423-.378.904-.805 1.144-.805.026 0 .074 0 .137.107 1.358 2.216-.961 4.861-2.05 5.928-1.215 1.62-3.835 3.167-6.147 4.53-1.33.787-2.587 1.531-3.401 2.19-2.508 2.028-3.652 4.7-4.372 10.216-.203 1.565-.133 2.481.22 2.884.135.153.31.232.51.232.741 0 1.638-1.18 1.8-1.405.646-.776 2.162-2.601 6.126-2.601 3.368 0 4.57-.814 5.631-1.53.246-.167.488-.331.754-.481.927-.525 1.053-.335 1.117-.239.215.317-.015 1.296-.24 1.879-1.15 2.553-2.875 3.33-5.057 4.315-.988.447-2.009.907-3.102 1.596-.305.218-.57.484-1.152 1.064l-.12.115c-.83.819-1.157 1.466-.968 1.926.133.328.518.484.998.41.357-.055.836.037 1.366.129.54.096 1.15.205 1.779.205l.179-.004c1.42-.044 2.587-.33 4.158-1.009.566-.248 1.025-.562 1.431-.842.676-.464 1.134-.777 1.626-.464.53.338.387 1.317.246 1.917-.037.644-.913 1.96-1.506 2.621-.915 1.032-6.027 4.367-7.791 5.172-.25.115-.49.234-.774.388-.057.037-.117.079-.19.12-2.393 1.352-3.96 3.365-4.034 3.459-.063.093-1.537 2.216-1.117 3.028.063.119.224.32.592.32.3 0 .704-.132 1.232-.403.605-.305 1.3-.451 2.122-.451.994 0 2.011.21 2.997.418 1.483.31 2.848.522 3.692.109.216-.109.242-.082.292-.021.206.25.151 1.142.042 1.746-.007.797-.143 1.514-.233 1.7-.635 1.26-1.096 1.44-2.817 2.122-.47.187-1.026.405-1.697.695-.184.082-4.532 2.045-5.886 3.21-1.343 1.157-2.04 2.732-2.337 3.568l-.12.322c-.191.512-.345.918-.125 1.234.174.253.524.359 1.173.359.615 0 1.535-.093 3.081-.304 1.51-.204 4.335-1.158 5.716-2.083.303-.204.716-.316 1.159-.316.673 0 1.318.256 1.682.669.263.296.375.654.332 1.067-1.213 2.869-4.338 4.472-6.905 4.789-2.788.344-4.288.998-4.588 2-.275.922.618 1.692.68 1.743a9.469 9.469 0 011.6 1.367c.39.413.787 1.083.732 1.734-.034.402-.25 1.074-1.554 1.685-1.301.607 0 0 .003 0-.215.086-5.253 2.11-6.657 5.653-.938 2.379-1.596 4.339-1.95 5.823l-.061.323h.012c-.23 1.265-.076 2.338.434 2.976.604.757 1.65.664 2.357-.248 1.962-2.518 8.904-6 11.147-6.203.358-.03.754-.053 1.178-.073 2.48-.138 5.873-.322 8.056-2.626 1.858-1.964 2.687-2.117 2.899-2.117.091 0 .261 0 .261.348v4.148c.004.153.005.283 0 .355l-.017 14.246c-.055 4.394-.358 8.714-2.184 10.535-.514.517-1.12 1.06-1.759 1.635-1.535 1.38-3.276 2.945-4.407 4.7-.198.305-.4.625-.609.962-1.955 3.131-4.633 7.65-10.73 7.948l-7.321-.003 64.757.037" fill="#006f5f" stroke="#fff" stroke-width="1.9999949999999997"/></svg>