<svg xmlns="http://www.w3.org/2000/svg" viewBox="0 0 902 272"><defs><linearGradient id="a" x1="408.6" x2="408.6" y1="785.3" y2="587.2" gradientTransform="translate(0 -518)" gradientUnits="userSpaceOnUse"><stop offset="0" stop-color="#0072ff"/><stop offset="1" stop-color="#09f"/></linearGradient><linearGradient id="b" x1="864.6" x2="864.6" y1="786.7" y2="517.3" gradientTransform="translate(0 -518)" gradientUnits="userSpaceOnUse"><stop offset="0" stop-color="#0072ff"/><stop offset="1" stop-color="#09f"/></linearGradient></defs><path fill="url(#a)" d="M744 60c-37 0-54 19-54 19V64h-87v133s-9 4-16 2-7-11-7-11V64h-86v18s-15-16-32-19c-27-5-61-2-89 33s-20 86-20 86-23 14-41 14c-19 0-18-16-18-16v-50h57V64h-58V15h-85v140s-5-28-71-49c-32-10-55-12-51-27 4-11 23-10 23-10 39 0 79 26 79 26V16l-15-6C145 1 82-12 29 24a85 85 0 0 0-28 77c2 13 6 24 12 31 19 23 63 32 83 37 20 4 31 9 31 19s-14 18-44 13-59-25-59-25L3 249s50 29 122 21c73-8 84-63 84-63 0-5-3 58 65 65 62 5 105-29 105-29s19 28 63 28c45 0 59-27 59-27s6 27 52 27c43 0 50-7 50-7v3h87V146s13-11 29-5c14 5 13 22 13 22v104h85V137s-1-25-11-42-25-35-62-35ZM494 189s-8 8-26 8-29-13-29-30c0-18 11-32 29-32s26 8 26 8v46Z"/><path fill="url(#b)" d="M863 198c-31 0-36 25-36 37 1 13 6 34 37 34s38-21 38-35c0-15-7-36-39-36Z"/><path d="m388 253-2-3h-1l3 3Z"/></svg>