<svg xmlns="http://www.w3.org/2000/svg" viewBox="0 0 77.37 91.57"><g fill="#1767b0"><path d="M49.92 27.12h27.45l-7.85 6.43H52.06l-2.14-6.43zM38.96 0l4.01 12.28-6.85 21.12H7.99L0 26.98h30.12L38.96 0zM24.41 44.4l6.57 4.71-5.14 15.7-10.57 7.42 9.14-27.83zm23.91 13.31c0-1.17-1.2-1.79-3.05-1.79a38.1 38.1 0 0 0-4.44.44c-1.1 0-2.13-.13-2.13-1.18 0-1.1 2.32-1.35 3.43-1.54 5-.86 10.45-1.54 14.52-3.82a5.1 5.1 0 0 1 2.13-.93c1.2 0 1.57.25 1.57 1.24V84.4c0 3.03 1.94 3.95 5.09 4.7 1.57.36 4.07.49 4.07 1.47 0 .74-.93.99-3.24.99-3.98 0-7.96-.5-11.93-.5-3.98 0-7.96.5-11.94.5-2.59 0-3.23-.31-3.23-.99 0-.98 1.85-1.23 4.16-1.48 2.59-.24 5-1.91 5-3.82Z"/><path d="M68.14 85.62a2.87 2.87 0 1 1 .85-2.04 2.76 2.76 0 0 1-.85 2.04m-3.78-3.78a2.47 2.47 0 1 0 1.75-.72 2.38 2.38 0 0 0-1.75.72m1.7.16a2.4 2.4 0 0 1 .86.11.78.78 0 0 1 .5.8.68.68 0 0 1-.31.62 1.15 1.15 0 0 1-.46.15.76.76 0 0 1 .54.31.87.87 0 0 1 .17.5v.45a.5.5 0 0 0 .04.16l.02.04h-.52l-.01-.03a.23.23 0 0 1 0-.04l-.02-.1v-.25a.77.77 0 0 0-.3-.72 1.38 1.38 0 0 0-.62-.1h-.44v1.24h-.56V82Zm.6.51a1.49 1.49 0 0 0-.67-.12h-.48v1.13h.5a1.62 1.62 0 0 0 .54-.07.48.48 0 0 0 .33-.49.47.47 0 0 0-.21-.45"/></g></svg>