<svg xmlns="http://www.w3.org/2000/svg" viewBox="0 0 60 60"><circle cx="30" cy="30" r="30" fill="#fff"/><path fill="#006341" d="M33.02 12.97a18 18 0 0 0-6.04 0c-.15.03-.21-.12-.09-.21L30 10.4l3.11 2.36c.12.09.06.23-.09.21m-5.2 14.86s-.16.06-.2.2c.63.48 1.06 1.59 2.38 1.59s1.75-1.1 2.38-1.58c-.04-.14-.2-.2-.2-.2s-.82.19-2.18.19-2.18-.19-2.18-.19ZM30 25.97c-.36 0-.44-.14-.69-.14-.24 0-.7.19-.8.36 0 .09.04.17.1.24.53.08.77.38 1.39.38s.86-.3 1.39-.38c.06-.07.1-.15.1-.24-.1-.17-.56-.36-.8-.36-.25 0-.33.14-.7.14Zm29.96 5.68c-.04.72-.1 1.43-.19 2.13-3.4.56-4.61-2.46-8.09-2.31.21.74.38 1.49.51 2.26 2.87 0 4.03 2.68 7.22 2.28q-.25 1.23-.6 2.43c-2.52.25-3.41-2.26-6.33-2.19.02.42.04.84.04 1.26v.7l5.66 2.16q-.45 1.22-.99 2.37c-1.71-.09-2.29-2.28-4.89-2.11a29 29 0 0 1-.29 1.66c2.25-.16 2.74 1.92 4.35 2.08-.41.75-.85 1.48-1.33 2.19-.96-.51-1.78-2.06-3.6-2.15.19-.57.35-1.16.49-1.75a7.53 7.53 0 0 1-4.99-2.03c.5-2.85-3.92-5.74-3.92-7.83 0-2.26 1.15-3.52 1.15-6.57 0-2.26-1.1-4.72-2.76-6.4a5.4 5.4 0 0 0-1.03-.83c1.52 1.89 2.69 4.12 2.69 6.71 0 2.87-1.34 4.39-1.34 7.04s3.88 4.95 3.88 7.68c0 1.08-.34 2.13-1.48 4.19 1.74 1.74 4.01 2.69 5.47 2.69.47 0 .73-.15.9-.52.15-.32.28-.65.42-.98 1.58.06 2.3 1.49 3.17 2.07-.48.64-.98 1.26-1.51 1.87-.58-.65-1.37-1.74-2.52-2.04-.21.4-.42.79-.65 1.18.99.27 1.67 1.27 2.19 1.93-.57.59-1.15 1.15-1.77 1.69a5.7 5.7 0 0 0-1.65-1.76c-.25.33-.5.66-.77.98a5.2 5.2 0 0 1 1.4 1.64c-.71.57-1.44 1.11-2.2 1.61-.37-3.05-4.53-5.13-3.41-8.67-.37.62-.81 1.4-.81 2.34 0 2.56 2.73 4.59 2.94 7.13-.56.34-1.14.66-1.73.96-.1-2.79-2.98-5.85-2.98-8.15 0-2.56 3.35-5.13 3.35-8.16s-3.87-5.12-3.87-7.78 1.65-4.18 1.65-7.58a9.06 9.06 0 0 0-3.01-6.62 4.6 4.6 0 0 0-1.03-.71c1.72 2.07 2.72 3.95 2.72 6.79 0 3.2-1.89 4.98-1.89 8.11s3.8 4.88 3.8 7.79-3.53 5.38-3.53 8.38c0 2.73 3.12 5.45 3.16 8.69-.68.3-1.38.57-2.08.81.4-3.27-3.11-6.65-3.11-9.31 0-2.92 3.67-5.43 3.67-8.57s-3.73-4.61-3.73-7.84S39 27.57 39 24.01a8.68 8.68 0 0 0-3.38-6.83l-.13-.1c-.19-.14-.35.03-.21.19a9.17 9.17 0 0 1 2.18 6.22c0 3.26-2.63 5.92-2.63 9.08 0 3.73 3.53 4.8 3.53 7.86s-3.78 5.51-3.78 8.76c0 3.01 3.58 6.36 2.97 9.84q-1.08.28-2.19.48c.67-4.33-2.84-7.44-2.84-10.28 0-3.07 3.92-5.8 3.92-8.8 0-2.83-2.81-3.75-3.18-6.65-.05-.4-.37-.69-.81-.62-.57.1-1.3.48-2.45.48s-1.88-.38-2.45-.48c-.44-.07-.75.22-.8.62-.37 2.89-3.18 3.82-3.18 6.65 0 3 3.92 5.73 3.92 8.8 0 2.83-3.51 5.94-2.84 10.28-.74-.13-1.47-.29-2.18-.48-.61-3.48 2.97-6.82 2.97-9.84 0-3.25-3.78-5.7-3.78-8.76s3.53-4.13 3.53-7.86c0-3.16-2.63-5.81-2.63-9.08 0-2.65.76-4.45 2.18-6.22.13-.17-.02-.33-.21-.19l-.13.1a8.71 8.71 0 0 0-3.38 6.83c0 3.57 2.29 5.36 2.29 8.58s-3.73 4.69-3.73 7.84 3.67 5.65 3.67 8.57c0 2.67-3.51 6.04-3.11 9.31a35 35 0 0 1-2.08-.81c.05-3.24 3.16-5.96 3.16-8.69 0-3-3.53-5.46-3.53-8.38s3.8-4.66 3.8-7.8-1.89-4.91-1.89-8.11c0-2.85 1-4.73 2.72-6.79-.38.2-.7.43-1.02.71a9.06 9.06 0 0 0-3.01 6.62c0 3.4 1.65 4.93 1.65 7.58s-3.87 4.75-3.87 7.78 3.35 5.6 3.35 8.16c0 2.29-2.89 5.35-2.99 8.15-.59-.3-1.17-.62-1.73-.96.22-2.54 2.94-4.57 2.94-7.13 0-.94-.44-1.72-.81-2.34 1.12 3.53-3.04 5.62-3.41 8.67-.76-.5-1.49-1.04-2.2-1.61.33-.56.83-1.26 1.4-1.64-.27-.32-.52-.64-.77-.98a5.7 5.7 0 0 0-1.65 1.76 31 31 0 0 1-1.77-1.69c.52-.66 1.2-1.66 2.19-1.93-.23-.39-.45-.78-.65-1.18-1.15.3-1.94 1.39-2.52 2.04a27 27 0 0 1-1.51-1.87c.87-.57 1.6-2.01 3.17-2.07.13.33.27.65.42.98.17.37.43.52.9.52 1.46 0 3.73-.95 5.48-2.69-1.13-2.06-1.48-3.12-1.48-4.19 0-2.73 3.88-5.03 3.88-7.68s-1.34-4.17-1.34-7.04c0-2.59 1.17-4.83 2.69-6.71-.38.24-.71.5-1.03.83a9.56 9.56 0 0 0-2.76 6.4c0 3.05 1.15 4.31 1.15 6.57 0 2.08-4.42 4.98-3.92 7.83a7.53 7.53 0 0 1-4.99 2.03c.14.59.3 1.17.49 1.75-1.81.1-2.64 1.64-3.6 2.15-.47-.71-.91-1.44-1.33-2.19 1.61-.17 2.1-2.24 4.35-2.08-.12-.55-.22-1.1-.3-1.66-2.59-.17-3.18 2.01-4.89 2.11q-.54-1.15-.99-2.37l5.67-2.16v-.7c-.01-.42 0-.84.02-1.26-2.92-.07-3.81 2.44-6.33 2.19-.23-.8-.43-1.6-.6-2.43 3.19.4 4.35-2.29 7.22-2.28.13-.77.3-1.52.51-2.26-3.48-.15-4.69 2.88-8.09 2.31-.09-.7-.15-1.41-.19-2.13 3.95.44 5.43-2.8 9.02-2.41.34-.86.73-1.69 1.18-2.49-4.51-.79-6.04 2.98-10.23 2.4a30 30 0 0 1 59.97.01c-4.19.58-5.72-3.19-10.23-2.4.44.8.84 1.63 1.18 2.49 3.59-.4 5.07 2.85 9.02 2.41M17.11 19.06a7.84 7.84 0 0 0-7.17.77 7.84 7.84 0 0 0-3.15-5.15c-.23-.16-.46 0-.44.26.35 4.49-2.28 8.39-5.51 11.82 3.33 1 6.16-3.28 10.47-1.79a22.4 22.4 0 0 1 5.79-5.9ZM30 16.35c-2.78 0-5.12 1.58-5.73 3.61-.05.16.02.26.2.18.5-.23 1.07-.33 1.69-.33 1.14 0 2.14.42 2.73 1.14.26.86.28 2.11-.01 2.83-.47-.1-.64-.47-1.09-.47s-.81.32-1.59.32-.86-.37-1.37-.37c-.6 0-.71.62-.71 1.31 0 3.1 2.85 7.37 5.89 7.37s5.88-4.27 5.88-7.37c0-.7-.14-1.29-.77-1.37-.31.23-.6.43-1.31.43-.78 0-.99-.32-1.44-.32-.55 0-.5 1.16-1.15 1.23a5.5 5.5 0 0 1-.1-3.59 3.45 3.45 0 0 1 2.73-1.14c.62 0 1.19.11 1.69.33.18.08.24-.02.2-.18-.61-2.03-2.94-3.61-5.73-3.61Zm4.44 4.45c-.67 0-1.45.2-1.94.75a.78.78 0 0 0 .02.52c1.21-.42 2.28-.43 2.8.15.28-.25.36-.48.36-.74 0-.4-.41-.68-1.24-.68m-9.75 1.42c.58-.58 1.82-.56 3.09-.09.06-.64-1.08-1.33-2.22-1.33-.83 0-1.24.28-1.24.68 0 .26.09.49.36.74Zm19.2-10.51a9.9 9.9 0 0 0-5.65 2.17 22 22 0 0 1 2.55-5.06c-2.8.3-5.14 1.32-6.85 3.07L32.6 8.38l2.97-2.62-3.97-.28-1.59-3.7-1.59 3.7-3.97.28 2.97 2.62-1.34 3.51c-1.71-1.75-4.05-2.77-6.85-3.07a22.2 22.2 0 0 1 2.54 5.06 9.9 9.9 0 0 0-5.65-2.17 26.2 26.2 0 0 1 3.35 5.45c.1.22.31.29.53.18 3.01-1.5 6.41-2.34 10-2.34s6.98.84 10 2.34c.23.11.44.04.53-.18a27 27 0 0 1 3.36-5.45m4.8 13.26c4.31-1.5 7.15 2.79 10.47 1.79-3.23-3.43-5.85-7.33-5.51-11.82.02-.26-.22-.41-.44-.26a7.84 7.84 0 0 0-3.15 5.15 7.78 7.78 0 0 0-7.17-.77 22.6 22.6 0 0 1 5.79 5.9Z"/></svg>