<svg xmlns="http://www.w3.org/2000/svg" width="129.783" height="129.783"><path class="site-logo-coin" d="M129.783 64.892c0 35.839-29.052 64.891-64.891 64.891C29.053 129.783 0 100.731 0 64.892 0 29.053 29.053 0 64.892 0s64.891 29.053 64.891 64.892" fill="#6935d3" fill-rule="evenodd"/><path class="site-logo-curve1" d="M39.076 64.893V61.29c0-22.399 18.22-40.621 40.622-40.621h3.6v14.728h-3.6c-14.276 0-25.896 11.614-25.896 25.893v3.603H39.076" fill="#fff" fill-rule="evenodd"/><path class="site-logo-curve2" d="M90.707 64.89v3.603c0 22.399-18.22 40.622-40.622 40.622h-3.599V94.387h3.599c14.277 0 25.897-11.615 25.897-25.894V64.89h14.725" fill="#fff" fill-rule="evenodd"/></svg>