<svg xmlns="http://www.w3.org/2000/svg" viewBox="0 0 203.17 203.17"><circle cx="101.58" cy="101.58" r="101.58"/><ellipse cx="101.97" cy="192" rx="3.15" ry="3.09" fill="#fff"/><g fill="none" stroke="#fff" stroke-linecap="square" stroke-linejoin="round" stroke-width="3"><path d="M193.04 101.83c-.87 50.56-42.09 90.89-92.2 90.23s-90.26-42.07-89.82-92.63c.44-50.57 41.3-91.26 91.41-91.04s90.62 41.27 90.62 91.84"/><path d="M179.95 118.31c-.75 41.34-36.05 74.33-78.97 73.78-42.92-.54-77.32-34.4-76.94-75.75.37-41.35 35.38-74.63 78.3-74.45 42.93.18 77.63 33.75 77.63 75.1"/><path d="M161.39 102.04c-.57 32.57-27.47 58.55-60.17 58.13s-58.91-27.1-58.63-59.67 26.96-58.79 59.66-58.65c32.71.14 59.15 26.59 59.15 59.16"/></g><g fill="#fff"><ellipse cx="102.03" cy="41.61" rx="4.49" ry="4.4"/><ellipse cx="102.08" cy="101.11" rx="6.22" ry="6.38"/></g></svg>