<svg xmlns="http://www.w3.org/2000/svg" width="128.067" height="128.067" fill="#fff"><path d="M37.91 95.322c-5.4-4.3-9.7-10-12.3-16.399-5.8 6.7-8.3 12.5-6.2 15.8 2.1 3.4 9.1 3.4 18.5.6zm50.3-62c5.7 4.7 10 11 12.4 18.1 7.2-7.7 10.6-14.5 8.3-18.1-2.4-3.7-10.3-3.4-20.7 0zm-25.6-9.2c7.2 0 14 1.9 19.8 5.3 22.8-11.1 41-15.2 44.9-9.1 3.8 6-7 20-25.7 35.3.6 2.7.9 5.6.9 8.5 0 22-17.9 39.9-39.9 39.9-6.7 0-13-1.7-18.6-4.6-22 10.5-39.5 14.3-43.3 8.3-3.5-5.7 6.2-18.8 23.4-33.2-.9-3.3-1.4-6.8-1.4-10.4 0-22.1 17.9-40 39.9-40zm33.5 2.5s-24.8 7-36.3 15.7c-11.5 8.6-9.2 15.1-7 18.9 2.2 3.8 10.3 8.6 8.3 17.1-2.6 11.2-19.3 17.7-28.8 22.2 0 0 29.5-9 37.5-17.7 7.9-8.6 3.2-16.899.7-20.2-2.5-3.2-7.5-10.1-4.5-16.2 5.2-10.7 19.9-15.7 30.1-19.8z" fill="#0d4c8c"/></svg>