<svg xmlns="http://www.w3.org/2000/svg" width="128.465" height="128.465"><path d="M32.123 114.088c-3.977 0-7.201 3.217-7.201 7.189 0 3.97 3.224 7.188 7.2 7.188h15.222c3.98 0 7.203-3.219 7.203-7.188 0-3.972-3.224-7.19-7.203-7.19zM76.67 0c-3.983 0-7.212 3.221-7.212 7.197s3.23 7.199 7.212 7.199h15.242c3.983 0 7.212-3.223 7.212-7.199S95.894 0 91.912 0zM53.322.047l-3.896.25c-.758.05-2.623.222-3.367.37-1.204.24-3.02.64-4.105 1.045a30.095 30.095 0 00-15.282 12.761c-6.412 10.779-5.938 26.68 2.516 36.283 9.538 10.833 25.408 13.173 38.57 16.804 5.9 1.627 12.37 3.513 17.129 7.553 3.623 3.076 5.335 7.324 5.936 11.95.708 5.448.392 11.3-2.161 16.264-1.467 2.85-3.664 5.253-6.34 7.018-1.106.73-2.198 1.43-3.38 1.99-1.43.456-1.998.89-5.848 1.296-.254.026-1.32.084-1.627.104l-2.944.189c-3.968.256-6.98 3.675-6.723 7.637.256 3.962 3.682 6.966 7.65 6.71l4.988-.32c6.402-.412 17.362-3.807 23.42-10.687 9.106-10.341 10.13-26.768 5.953-39.59-4.032-12.38-14.977-18.815-26.773-22.629-3.563-1.152-7.174-2.168-10.832-2.968-12.075-2.641-14.787-3.398-21.148-7.18-3.818-2.27-6.52-5.516-7.364-9.926-.946-4.94-.342-10.566 2.76-14.662.49-.647 1.036-1.25 1.63-1.801 1.584-1.476 4.575-2.745 6.844-3.401 1.467-.424 5.975-.723 5.975-.723 4.592-.29 7.675-4.836 6.248-9.21C60.17 2.034 57.11.031 53.838.031c-.172 0-.344.005-.516.016z" fill="#42218a"/></svg>