<svg xmlns="http://www.w3.org/2000/svg" width="250.037" height="250.037"><defs><linearGradient x1="37.183" y1="63.156" x2="142.893" y2="93.082" id="a" gradientUnits="userSpaceOnUse"><stop stop-color="#5af1c8" offset="29%"/><stop stop-color="#99feff" offset="100%"/></linearGradient><linearGradient x1="39.253" y1="194.685" x2="179.09" y2="194.685" id="b" gradientUnits="userSpaceOnUse"><stop stop-color="#ff3180" offset="63%"/><stop stop-color="#ff9ab2" offset="100%"/></linearGradient></defs><path d="m98 114.112 29.047 9.608 35.19-90.225a13.725 13.725 0 0 0-20.722-15.57L23.3 113.685a13.725 13.725 0 0 0 3.375 24.412l44.28 14.625L80.653 123A13.702 13.702 0 0 1 98 114.112z" fill="url(#a)" transform="translate(26.85 -15.597)"/><path d="M169.662 137.782 127.07 123.72l-11.385 29.25a13.702 13.702 0 0 1-17.37 8.865l-27.36-9-31.005 94.882a13.725 13.725 0 0 0 20.745 15.57l112.342-101.092a13.725 13.725 0 0 0-3.375-24.412z" fill="url(#b)" transform="translate(26.85 -15.597)"/><path style="mix-blend-mode:lighten" d="m115.685 152.903 11.385-29.25-29.07-9.54a13.703 13.703 0 0 0-17.37 8.842L71 152.722l27.36 9a13.703 13.703 0 0 0 17.325-8.82z" fill="#fff" transform="translate(26.85 -15.597)"/></svg>