<svg xmlns="http://www.w3.org/2000/svg" version="1.1" id="Layer_1" x="0" y="0" xml:space="preserve" width="231.6" height="231.6"><style type="text/css" id="style63403">.st2{fill:#f52d46}</style><g id="g64047" transform="translate(-407.6 -342.788)"><path class="st2" d="M505.1 504.7h36.5V536c0 7-5.7 12.8-12.8 12.8h-11c-7 0-12.8-5.7-12.8-12.8v-31.3z" id="path63415"/><path class="st2" d="M453.4 461.1l11.4 11.4c32.7-31.2 84.6-31.2 117.3 0l11.4-11.4c-39-37.5-101.1-37.5-140.1 0z" id="path63421"/><path class="st2" d="M430.5 438.2l11.4 11.4c45.3-43.8 117.7-43.8 163.1 0l11.4-11.4c-51.6-50.1-134.3-50.1-185.9 0z" id="path63427"/><path class="st2" d="M407.6 415.4c64.2-62.7 167.4-62.7 231.6 0l-11.4 11.4c-57.9-56.4-150.9-56.4-208.8 0z" id="path63433"/></g></svg>