<svg xmlns="http://www.w3.org/2000/svg" width="28" height="28"><path d="M20.716 21.541c-1.595 0-3.074-.414-4.168-1.176-.95-.658-1.489-1.51-1.489-2.398.004-1.193.942-1.999 1.49-2.376 1.095-.751 2.582-1.16 4.184-1.162 1.606.002 3.097.41 4.206 1.164.553.378 1.496 1.186 1.5 2.374-.017 1.987-2.654 3.57-5.723 3.574zm-6.714-4.715c-.302-.843-.93-1.596-1.786-2.193a10.12 10.12 0 003.564-.005c-.854.597-1.481 1.35-1.778 2.198zm-6.784 4.715c-1.596 0-3.075-.414-4.17-1.176-.947-.658-1.486-1.51-1.486-2.398.005-1.193.94-2 1.487-2.376 1.098-.751 2.583-1.16 4.185-1.162 1.607.002 3.098.41 4.204 1.164.553.378 1.5 1.183 1.505 2.374-.018 1.987-2.656 3.57-5.725 3.574zM8.323 9.994c.004-1.193.94-1.998 1.488-2.374 1.096-.755 2.583-1.162 4.183-1.162 1.607 0 3.099.41 4.204 1.162.553.378 1.499 1.186 1.503 2.374-.018 1.99-2.654 3.572-5.723 3.577-1.595 0-3.074-.413-4.167-1.174-.95-.66-1.488-1.511-1.488-2.403zm12.41 3.218c-.626 0-1.23.057-1.803.162 1.253-.868 2.026-2.06 2.026-3.377 0-2.65-3.106-4.757-6.962-4.757-3.854 0-6.928 2.108-6.928 4.757 0 1.319.758 2.512 2 3.379a10.17 10.17 0 00-1.832-.164c-3.855 0-6.929 2.108-6.929 4.755 0 2.645 3.057 4.793 6.913 4.793 3.282 0 6.033-1.554 6.782-3.65.73 2.096 3.433 3.65 6.716 3.65 3.856 0 6.979-2.148 6.979-4.793 0-2.647-3.109-4.755-6.962-4.755zm3.522 2.8c-.885-.519-2.124-.844-3.508-.844-1.382 0-2.614.325-3.491.841-.88.518-1.395 1.212-1.396 1.96 0 .747.514 1.45 1.392 1.975.874.52 2.104.853 3.486.856 1.383-.003 2.624-.336 3.513-.858.889-.523 1.413-1.226 1.415-1.972-.001-.744-.524-1.44-1.41-1.959zm-13.534 0c-.884-.519-2.123-.844-3.505-.844-1.384 0-2.615.325-3.494.841-.879.518-1.395 1.212-1.398 1.958.003.749.516 1.452 1.394 1.977.874.52 2.103.853 3.487.856 1.383-.003 2.624-.336 3.511-.858.89-.523 1.414-1.226 1.417-1.972-.003-.744-.525-1.44-1.412-1.959zm-.22-4.036c.874.523 2.103.856 3.486.856 1.38 0 2.622-.333 3.51-.856.89-.523 1.416-1.228 1.418-1.972-.002-.746-.524-1.445-1.41-1.963-.885-.518-2.123-.843-3.508-.846-1.382.003-2.614.328-3.492.846-.88.518-1.396 1.214-1.398 1.96.002.749.517 1.452 1.393 1.975z" fill="#fc2929" fill-rule="evenodd"/></svg>