<svg xmlns="http://www.w3.org/2000/svg" viewBox="0 0 372.66 374.05"><path d="M246.29 68.18V27.83a27.83 27.83 0 1 0-55.66 0v40.35C128 79.31 79.31 129.41 66.79 192h-39a27.83 27.83 0 1 0 0 55.66h39c15.31 83.49 96 139.15 179.5 123.84s139.14-96 123.84-179.5C359 129.41 308.9 79.31 246.29 68.18m-27.83 249.07a97.4 97.4 0 1 1 97.4-97.4 96.8 96.8 0 0 1-97.4 97.4"/><path d="M157.23 219.85A59.84 59.84 0 1 0 217.07 160c-32 0-59.84 26.44-59.84 59.83m41.75 0a18.09 18.09 0 1 1 18.09 18.09A18.42 18.42 0 0 1 199 219.85M100.18 77.92a27.83 27.83 0 1 1-27.82-27.83 27.91 27.91 0 0 1 27.82 27.83"/></svg>