<svg xmlns="http://www.w3.org/2000/svg" width="159.994" height="159.994"><path d="M151.607 94.684a16.76 16.76 0 01-16.89 13.31H10.227c-7.33 0-11.72-6-9.76-13.31l7.92-29.37c1.78-7.69 8.15-13.14 15.48-13.14l125.91-.18c7.32 0 11.71 6 9.75 13.32z" fill="#ffed00"/><g fill="#142137"><path d="M110.377 79.994a25.3 25.3 0 0115.86-16.93 28.33 28.33 0 018.43-1.37h13.11l-2.61 9.72h-11.56c-4.58 0-9.33 3.84-10.61 8.62-1.28 4.78 1.22 8.61 5.51 8.84h.78l2.36-8.81h11.2s-4.74 17.7-4.9 18.26h-14c-10.22.02-16.29-8.21-13.57-18.33zm-23.16-18.23l-9.6 36.82h36.77a14.21 14.21 0 01-4.81-4.45 14.06 14.06 0 01-2.16-5.35h-14.28l1-4.71h7.13l2.09-7.82h-7.17l1.3-4.88h13.37a28.59 28.59 0 015.14-5.38 28 28 0 017.14-4.28zm-35.62-.08l-2.6 9.89 10.13.22-7.19 26.81h12.84l7.24-27h9.98l2.69-9.89zm-10.18 15.07c-4.49-2.08-7.2-2.62-7.13-4.06 0-.5.3-.93 2-1.12a38.68 38.68 0 014.31-.15h5.79l2.61-9.72h-11.13c-6.76 0-15.66.71-17.71 8.24-1.63 6 2.48 9.69 8.13 12.23 4.85 2.17 7.28 3.55 7.07 4.92-.14.89-.84 1.29-2.51 1.47a41.4 41.4 0 01-4.5.13h-12.86l-2.58 9.64h19.83c7.51 0 14.49-1.73 16.5-9.6 1.53-6-3.39-9.92-7.82-11.98z"/><path d="M156.227 57.214a8.74 8.74 0 00-7.15-3.22H24.607c-6.19 0-12.61 5-14.23 11.16l-7.9 29.27a9.35 9.35 0 001.34 8.28 8.74 8.74 0 007.18 3.29h124.44c6.19 0 12.58-5 14.23-11.21l7.9-29.27a9.32 9.32 0 00-1.34-8.3zm-20.79 46.87H10.997a6.87 6.87 0 01-5.65-2.54 7.48 7.48 0 01-1-6.63l7.9-29.27c1.44-5.41 7-9.81 12.4-9.81h124.43a6.87 6.87 0 015.65 2.54 7.48 7.48 0 011 6.63l-7.9 29.27c-1.43 5.41-7 9.81-12.39 9.81z"/></g></svg>