<svg xmlns="http://www.w3.org/2000/svg" viewBox="0 0 90 90"><path fill="#FFF" d="M33.65 74.25a35.74 35.74 0 0010.23 3.03c3.04.35 8.35.1 9.71-.15 4.32-.78 7-2.58 9.65-5.26 1.8-1.8 2.84-4.1 3.58-6.71.72-2.3.72-6.43-.06-8.57-.7-1.9-1.64-3.3-3.02-4.75-2.74-2.83-6-4.38-13.66-6.49-8.24-2.27-11.06-3.55-11.9-5.43a3.92 3.92 0 01-.2-2.58c.8-3 3.74-4.16 8.09-4.13 4.04.03 7.88 1.12 11.98 3.6 1.6.97 2.51 1.59 2.75 1.84.25-.37 5.2-6.88 5.4-7.13H65c-6.03-4.33-12.8-6.29-18.23-6.29-4.59 0-8.13.68-10.8 1.87-6.36 2.86-8.02 9.77-8.02 12.84 0 4.04.9 6.7 3.18 9.2 2.57 2.83 5.95 4.44 13.6 6.5 7.47 2.02 9.98 3.13 11.3 4.5a4.52 4.52 0 011.05 4.51c-.9 3.48-3.98 4.76-8.9 4.76-5.36 0-11.4-2.84-16.48-6.79-.57.73-5.17 6.44-5.85 7.31.96.97 5.28 4.16 8.03 5.54l-.22-1.22z"/><path fill="#19465D" d="M10.67 80.9V40.32h-8.8c-1.56 0-2.7-2.76-1.08-4.07 5.62-4.58 31.6-26.22 40.06-32.58.5-.25 1.48-.67 2.52-.67 1.03 0 1.82.1 2.92.6 2.13.94 13.1 9.87 13.14 9.87.04 0 0-5.42 0-5.92 0-.65.4-1.18 1.1-1.18H74c.73 0 1.1.53 1.1 1.18v18.71c8.73 7.26 13.53 11.28 14.38 12.05 1.25 1.14.03 3.9-1.28 3.9h-6.35V80.9c0 2.44-.3 6.1-4.28 6.1H15.94c-2.96 0-5.27-1.42-5.27-6.1zm23.15-6.45a35.94 35.94 0 0010.25 3c3.05.36 8.37.1 9.73-.14 4.33-.78 7-2.56 9.68-5.22 1.8-1.8 2.83-4.08 3.58-6.68.72-2.29.72-6.38-.06-8.5-.7-1.9-1.64-3.3-3.03-4.72-2.74-2.82-6.02-4.36-13.68-6.45-8.26-2.26-11.08-3.53-11.93-5.4a3.87 3.87 0 01-.2-2.57c.8-2.98 3.74-4.12 8.1-4.1 4.06.03 7.9 1.12 12.01 3.58a20.8 20.8 0 012.76 1.83c.25-.37 5.2-6.83 5.41-7.08-.11-.11-.6-.51-1.43-1.21-6.05-4.3-12.83-6.25-18.27-6.25-4.6 0-8.14.67-10.81 1.86-6.38 2.83-8.04 9.7-8.04 12.75 0 4.01.9 6.66 3.18 9.15 2.58 2.8 5.96 4.4 13.63 6.46 7.5 2 10 3.1 11.33 4.46a4.46 4.46 0 011.05 4.48c-.9 3.45-4 4.73-8.92 4.73-5.37 0-11.43-2.82-16.52-6.75-.57.73-5.17 6.4-5.85 7.27.95.96 5.28 4.13 8.03 5.5z"/></svg>