<svg xmlns="http://www.w3.org/2000/svg" viewBox="0 0 150.4 180.7"><path fill="#76b828" d="M120.5 58.3c1.2 5.6.1 10.8-.8 17.6-.8 5.8 1.1 11.2 6.3 12.9 4.3 1.4 14.1 1.1 20.9 6.9 2 2.1 2.7 2.6 3.1 5.7a16 16 0 0 1-.4 5.8 37.4 37.4 0 0 1-22.1 25.6c-11.7 3.9-18.7-7.8-27.8-12.9-4.1-2.2-8.7-3.7-12.6.3-6.1 5.9-5.2 15.3-2 22.1 6.3 12.3 19.4 23.4 28.5 32.4-16.4 4.3-32.8 8.6-49.2 4-7.6-2.2-14.7-11.8-18-19.2-5.5-12.2-9.2-40.9-37.9-61 14.2 1.7 20 3.2 29.2-3 2-1.5 2.6-4 2.5-6.3-1.4-9.7-9.3-14.8-14.8-21.6a59.5 59.5 0 0 0 12.1 3C43.6 71.3 49 70 54 67c16.7-10-2.6-32.9-2.6-32.9S69 46.7 80.1 45c3.8-.9 6.3-2 8.3-5.4 4.8-8.2 9.2-16.7 12.7-25.3-.5 8-1.8 16.2.3 23.7 2 7.1 8.2 8.5 13.8 12.5a11 11 0 0 1 5.3 7.8"/><path fill="#fff" d="M90.1 68.6c-2.8 4-2 9.8 2.9 10.4 3 .1 6.7-1.4 7.8-4.5 1.1-3.2-.3-5.9-2.7-8-2.7-1.7-6.1-.6-8 2.1"/><path fill="#004330" d="M25.8 75.3c3.9 2.2 8.2 5.2 11.6 8.7 3.8 3.9 8.9 13.5 2.4 20.8a15.2 15.2 0 0 1-10.5 4.3c-5.8.4-13.5-1.9-17.8-5.1.9 0 14.1 2.5 20.3-.7 2-1 4.3-3.7 2.9-9.3-1.9-7.3-8.7-12.8-20.2-20.1a7.7 7.7 0 0 1-2.8-4.4c.1.1 7 1.8 14.1 5.8m12.5 2c4 3.7 9.5 4.4 13.9 1.3 4.7-3.2 4.6-11.3 3.5-16a45.3 45.3 0 0 0-19.3-29.9c4.7 10.1 10.4 21 12.2 31.9.4 2.6.8 5.4-.2 7.4-2.3 4.8-11.3 1.7-15.8-.7 1.7 2.3 5.7 6 5.7 6M68.2 46c-7.3.9-12-4.2-17.1-7.5 1 4 2.7 6.5 5.6 9 5.4 4.4 13 8 20.7 3.9 9-5.4 6.6-15 8.8-23.3C88.7 18.8 100.4 0 100.4 0s-3.7 1.9-9 8.5c-2.4 2.9-4 4.2-6.7 7.7a35.3 35.3 0 0 0-7.2 15.3C76.3 37.3 76.2 45 68.2 46m31-2.3c-6.8-7.4-2.6-18.2-2.3-27.6-5.6 8.5-9.5 19.2-4.9 27.6 3.2 5.9 8.7 7.6 13.8 11 3.2 2.1 7 5.9 7.4 9.3.8 6.7-3.3 14.5-.2 21.3 1.4 2.6 2.3 4.2 4.8 6 5 3.5 9.4 3.4 14.7 3.3 6.9-.2 9.6 2.2 11.5 3.9 1 .9 2.6 3.5 2.4 6.1-.4 4.8-2 6.5-6.7 8.1 2.2 1.7 5.1 1 7.4-1 2.2-2.3 2.8-4.6 3.2-8 1.1-8.3-9-13-14.6-13.2-9.7-.3-17.1.1-17.7-10.6-.4-6.5 2.6-12.9.8-19a17 17 0 0 0-7.7-9.5c-4.1-2.8-8.5-4-11.9-7.7m3.4 33c3-3.6 1.5-8.4-2.8-10.4a11.8 11.8 0 0 0-7.9-.6c-.8.2-2.9.6-3.8 2.5 1-.3 3-.9 4.5-.9 2.4 0 3 .9 3 .9s-3.1.9-4 3.6c-.7 2.3.1 4.7 1.8 5.8 2.5 2.3 7 1.8 9.2-.9m-43.6-2a114.7 114.7 0 0 0-22.1 72.8 105.6 105.6 0 0 0 3.9 24l2.1 5.8s6.1 3.5 8.6.5c1.9-2.2 2.8-6.2 1.6-8.1-3.6-5.4-9-17-6.3-40.4 2.8-24.5 10.1-37.1 18.9-55.6 1.5-3.6 3.4-7.4 3.7-11.4A85.3 85.3 0 0 0 59 74.7m56.1 33.8c-2.9-2.2-4.7-5-7.9-6.7a36.2 36.2 0 0 0 12.6 17.8 42.5 42.5 0 0 0 17.4 9c2.6-2.4 3.5-2.9 4.6-6.4-9-3.6-18.2-7.2-26.7-13.7m-19.2 6.3c-7-1.2-12.8.1-17.1 5.3-4 4.9-4.6 9.2-4.8 15.1.3 6.5 1.3 11.9 6.2 18.1a95.5 95.5 0 0 0 35.1 27.2 187 187 0 0 0-11.4-12.3c-5.3-5.3-9.8-9.7-15-16.1-5-6.1-11.1-18.8-5-26.3 4.6-5.8 12.3-6.4 16.5-2 6.2 6.5 8.2 13.9 17.6 15.4 5.7.8 12-.3 13.1-5.7-6.7 1.5-12.2-1.8-17.1-5.9-6-5.8-9.5-11.4-18.6-12.9M32.7 120a22 22 0 0 0-11.5-8.8C14 109.1 0 106.7 0 107.1s2.2 3.1 4 3.8c17.4 6.6 21 6.1 25.3 14.9 2.7 5.5.8 12.5.8 12.5 2.2-1.4 4.5-3.2 5-6.5.7-5.4-.2-7.6-2.4-11.8"/></svg>