<svg viewBox="0 0 400 457.2"><path d="M283.234 99.8c-64.038 54.89-116.523 99.8-116.633 99.8-.111 0-.201-12.845-.201-28.545v-28.546L83.534 71.555C37.958 32.53.518.54.334.467.15.393 0 25.963 0 57.289v56.956l65.832 56.377c36.207 31.008 66.204 56.669 66.66 57.025.803.628-1.228 2.411-65.831 57.786L0 342.571v56.914C0 430.788.091 456.4.201 456.4c.111 0 52.49-44.82 116.399-99.6 63.909-54.78 116.288-99.6 116.399-99.6.11 0 .201 12.846.201 28.547v28.546l82.862 70.954c45.575 39.024 83.105 71.097 83.4 71.273.45.267.538-9.059.538-56.649v-56.969l-66.277-56.751c-36.452-31.213-66.542-56.95-66.866-57.194-.477-.359 12.036-11.263 66.277-57.757L400 113.886V56.943C400 25.624 399.925 0 399.833 0c-.092 0-52.562 44.91-116.599 99.8" fill="#046444"/></svg>