<svg viewBox="0 0 90 90" xmlns="http://www.w3.org/2000/svg"><g fill="none"><circle fill="#FFE121" cx="45" cy="45" r="45"/><path d="M43.031 21.375V51.75c-8.297-.14-15.047-7.172-14.765-15.469 0-8.156 6.609-14.625 14.765-14.906 0 .14 0 0 0 0Zm3.938 47.11V38.25c8.297.14 15.047 7.172 14.765 15.469 0 8.156-6.609 14.625-14.765 14.765Zm7.172-47.11c3.937 0 7.172 3.234 7.172 7.172 0 3.937-3.235 7.172-7.172 7.172-3.938 0-7.172-3.235-7.172-7.172 0-3.938 3.234-7.172 7.172-7.172ZM35.859 54.281c3.938 0 7.172 3.235 7.172 7.172 0 3.938-3.234 7.172-7.172 7.172-3.937 0-7.172-3.234-7.172-7.172 0-3.937 3.235-7.172 7.172-7.172Z" fill="#000"/></g></svg>