<svg xmlns="http://www.w3.org/2000/svg" viewBox="0 0 90 90"><circle cx="45" cy="45" r="45" fill="#FFE121"/><path d="M43.03 21.38v30.37a15.1 15.1 0 0 1-14.76-15.47c0-8.16 6.6-14.62 14.76-14.9 0 .14 0 0 0 0Zm3.94 47.1V38.25a15.1 15.1 0 0 1 14.76 15.47c0 8.16-6.6 14.62-14.76 14.76Zm7.17-47.1a7.2 7.2 0 0 1 7.17 7.17 7.2 7.2 0 0 1-7.17 7.17 7.2 7.2 0 0 1-7.17-7.17 7.2 7.2 0 0 1 7.17-7.17Zm-18.28 32.9a7.2 7.2 0 0 1 7.17 7.17 7.2 7.2 0 0 1-7.17 7.17 7.2 7.2 0 0 1-7.17-7.17 7.2 7.2 0 0 1 7.17-7.17Z"/></svg>
