<svg xmlns="http://www.w3.org/2000/svg" width="73.64" height="73.64"><defs><linearGradient id="a" x2="59.967" y1="9.852" y2="9.852" x1=".038" gradientUnits="userSpaceOnUse"><stop stop-color="#fae287" offset="0"/><stop stop-color="#ffbe37" offset=".52"/><stop stop-color="#805f1c" offset="1"/></linearGradient><linearGradient id="b" x2="30.801" y2="73.815" x1="30.801" y1="1.411" gradientUnits="userSpaceOnUse"><stop stop-color="#fae287" offset="0"/><stop stop-color="#ffbe37" offset=".52"/><stop stop-color="#805f1c" offset="1"/></linearGradient><linearGradient id="c" x1="31.798" x2="33.497" y1="74.101" y2="1.332" gradientUnits="userSpaceOnUse"><stop stop-color="#fae287" offset="0"/><stop stop-color="#ffbe37" offset=".52"/><stop stop-color="#805f1c" offset="1"/></linearGradient></defs><g fill-rule="evenodd"><path d="M30.63.46C15.3.46 4.96 3.51 4.53 3.64L.47 4.86.28 9.09c-.01.23-.2 4.44-.24 10.16a31.51 31.51 0 0 1 12-5.1v-.02a98.18 98.18 0 0 1 18.6-1.74c8.62 0 14.83.9 18.47 1.64A31.51 31.51 0 0 0 45.9 1.41C41.87.88 36.77.46 30.63.46z" fill="url(#a)" transform="translate(6.16 -.46)"/><path d="M49.12 14.04h.03c.1 2.9.2 6.98.2 11.32-.05 14.38-1.29 19.14-1.82 20.52-.67 1.6-5.02 5.67-6.45 7a164 164 0 0 0-1.11 1.05c-1.35 1.3-5.5 4-9.17 6.25a31.5 31.5 0 0 0 14.8 4.52c1.03-.76 1.93-1.5 2.6-2.13.3-.3.65-.62 1.03-.98 4.14-3.87 7.98-7.66 9.43-11.4.63-1.65 2.57-6.66 2.61-24.86.02-8.61-.38-16-.4-16.3l-.22-3.97-3.74-1.33c-.24-.08-3.98-1.38-11-2.31 1.88 3.83 3.02 8.1 3.21 12.62" fill="url(#b)" transform="translate(6.16 -.46)"/><path d="M.05 19.25c-.02 1.91-.02 3.99.01 6.15C.3 43.58 2.3 48.57 2.94 50.2c1.49 3.75 5.37 7.52 9.55 11.38l1.09 1c3.39 3.19 12.32 8.63 14.08 9.7l3.03 1.82 3.05-1.78A151.7 151.7 0 0 0 45.6 64.7a31.5 31.5 0 0 1-14.79-4.53h-.01c-3.59-2.26-7.65-4.98-9.04-6.29l-1.17-1.09c-1.45-1.33-5.87-5.4-6.56-7-1.96-4.94-2.25-20.47-1.97-31.65-4.4.86-8.46 2.63-12 5.1" fill="url(#c)" transform="translate(6.16 -.46)"/></g></svg>