<svg xmlns="http://www.w3.org/2000/svg" viewBox="0 0 604 273.5"><path fill="#003168" d="M12.3 262c-3 1.1-4.7-.4-3.7-3.5l8.5-27.5a32 32 0 0 0 1.1-11.5L0 46.1a5.7 5.7 0 0 1 5.3-6.3L598.5 0a5 5 0 0 1 5.4 5.5L580 268a6.2 6.2 0 0 1-6.6 5.5l-504-32.4a29.7 29.7 0 0 0-11.4 2zm272-145c-6.8 0-12 2-16 6V94.8h-12.6v58.8c0 8.6 2.6 15.7 7.7 21s12.1 8 21 8 15.8-2.7 21-8 7.6-12.4 7.6-21v-7c0-19.7-9.7-29.7-28.8-29.7zm0 12.2c5.2 0 9.2 1.3 12 4s4 7.2 4 13.4v7.1c0 5.2-1.4 9.2-4.3 12.3s-6.7 4.5-11.8 4.5-9-1.5-11.7-4.5-4.2-7-4.2-12.3v-7.2c0-6.2 1.4-10.7 4-13.4s6.7-3.9 12-3.9zm91.4 1.8h-39.9V94.6h-13V182h13v-38.2h40V182h13V94.6h-13V131zm112-14c-6.8 0-12 2-16 6V94.8h-12.6v58.8c0 8.6 2.6 15.7 7.7 21s12.1 8 21 8 15.8-2.7 21-8 7.6-12.4 7.6-21v-7c0-19.7-9.8-29.7-28.8-29.7zm0 12.2c5.2 0 9.2 1.3 12 4s4 7.2 4 13.4v7.1c0 5.1-1.4 9.3-4.3 12.3s-6.8 4.5-11.8 4.5-9-1.5-11.7-4.5-4.2-7-4.2-12.3v-7.2c0-6.2 1.4-10.7 4-13.4s6.7-3.9 12-3.9zM233.2 153c0 6.5-1 11.2-2.9 13.7s-5 3.7-9.7 3.7h-.4c-4.6 0-7.9-1.3-9.7-3.7-1.9-2.6-2.9-7.2-2.9-13.7v-34.4h-12.4V153c0 10.5 2 18.2 5.8 22.7 3.7 4.4 9.7 6.7 18 7h2.8c8.2-.3 14.2-2.6 18-7 3.7-4.6 5.7-12.2 5.7-22.7v-34.4h-12.3V153zm203.4 0c0 6.5-1 11.1-2.9 13.7-1.8 2.4-5 3.7-9.6 3.7h-.6c-4.6 0-7.9-1.3-9.7-3.7-1.9-2.6-2.9-7.2-2.9-13.7v-34.4h-12.4V153c0 10.5 2 18.2 5.8 22.7 3.7 4.4 9.7 6.7 18 7h3c8.1-.3 14.1-2.6 17.8-7s5.8-12.2 5.8-22.7v-34.4h-12.4V153h.1zM133 134.6l-30.3-10a12.4 12.4 0 0 1-4.8-2.9 4.8 4.8 0 0 1-1.7-3.4v-2c0-7 6-10.7 18-10.9h1.1c12.1 0 18.3 3.2 19 9.7l.1 1h13v-1c-.6-14.9-11.4-22.5-32-22.5H114c-20.3.2-30.5 8.2-30.5 23.7v2a17.5 17.5 0 0 0 4 11.3c2.6 3.1 6.5 5.5 11.4 7.1l30 10.1c5.1 1.7 7.6 4.5 7.6 8.7v1.8c0 3.7-1.8 6.5-5.5 8.7s-9.2 3.4-16 3.4-12-1-15.8-3.4-5.3-5-5.3-8.7V156H81.1v1.3a21.7 21.7 0 0 0 9.1 18.2c6 4.4 14.3 6.7 25 6.7s19.1-2.2 25-6.7a21.4 21.4 0 0 0 9.1-18.2v-1.8a20.3 20.3 0 0 0-4.4-13 25.3 25.3 0 0 0-11.8-7.9zm43 31.5q-4.2-4.5-4.2-12.3v-22.4h13.5v-12.8H172V94.8h-12.6v59c0 8.6 2.6 15.7 7.7 21a26.6 26.6 0 0 0 17.2 7.8l1.2.1v-12.2h-.9a14.5 14.5 0 0 1-8.4-4.4zm337.1-51h1.6v4.6h.8v-4.6h1.6v-.6h-4v.6zm7.3 3.1-1.4-3.7h-1v5.2h.7v-4.3l1.7 4.3h.5l1.6-4.3v4.3h.8v-5.2H522l-1.4 3.7z"/></svg>
