<svg xmlns="http://www.w3.org/2000/svg" width="400" height="400"><g fill-rule="evenodd"><path fill="#f4f3f5" d="M359.967 128.556c-.092.086-4.937.363-10.767.617-5.83.253-12.49.713-14.8 1.022-6.48.867-9.467 1.07-35.524 2.415-6.449.332-13.019.776-14.6.986-3.141.416-18.206 1.362-32.076 2.015-4.84.228-10.96.673-13.6.989-5.303.635-18.956 1.536-33.4 2.206-5.17.239-10.48.611-11.8.825-4.094.664-17.451 1.54-30.2 1.98-6.71.232-13.924.683-16.031 1.003-4.06.615-15.254 1.402-33.969 2.386-6.27.33-13.47.853-16 1.163-2.53.31-11.98.945-21 1.411-9.02.466-18.83 1.121-21.801 1.456-2.97.335-8.203.756-11.627.936-6.987.368-7.767.617-8.138 2.596-.396 2.106 1.037 18.981 2.151 25.345.477 2.726 1.498 13.093 2.021 20.533.226 3.213.671 7.083.989 8.6.578 2.763 1.459 11.625 2.163 21.76.206 2.97.654 6.93.995 8.8 1.551 8.51 1.495 16.297-.138 19.065-.455.771-1.005 2.653-1.222 4.183-.415 2.928-1.214 5.27-1.952 5.727-.243.15-.441 1.072-.441 2.049 0 2.087 1.879 2.558 3.892.975.56-.441 2.149-1.15 3.531-1.577 1.383-.427 3.406-1.228 4.496-1.781 1.091-.553 2.86-1.221 3.932-1.486 1.072-.265 2.418-.869 2.99-1.343.573-.474 2.283-1.19 3.8-1.592 1.518-.402 3.032-.966 3.365-1.253 1.77-1.522 8.666-1.633 19.994-.321 2.75.318 8.24.748 12.2.956 26.602 1.392 32.097 1.732 36.2 2.241 4.54.563 9.775.896 27.8 1.765 5.06.244 13.34.793 18.4 1.219 5.06.427 13.25.954 18.2 1.172 15.644.689 31.205 1.724 36.2 2.407 1.54.21 7.03.569 12.2.797 13.9.614 29.705 1.557 33.8 2.017 5.764.648 12.467 1.094 23.6 1.569 16.055.686 24.035 1.19 28.4 1.794 8.45 1.169 17.8 1.184 17.8.028 0-.277.357-.957.793-1.511.843-1.072.87-1.284 1.62-12.9.53-8.2 1.511-18.001 1.983-19.8.202-.77.556-4.37.787-8 .712-11.181 1.617-21.231 2.25-25 .333-1.98.778-7.11.99-11.4.455-9.245 1.359-19.274 2.163-24 .318-1.87.776-6.64 1.019-10.6.69-11.28 1.529-20.235 2.189-23.373.333-1.584.606-4.471.606-6.416v-3.536l-1.871-.637c-1.975-.673-2.294-.733-2.562-.482M87 176.41c5.85 1.368 7.012 1.723 7.479 2.285.28.337 1.195 1.047 2.034 1.576.839.53 1.633 1.27 1.764 1.646.131.376.568.953.969 1.283 1.063.873 2.233 5.645 1.734 7.066-1.108 3.148-9.831 2.824-11.185-.416-1.386-3.317-13.178-4.211-17.08-1.295-1.583 1.182-1.115 3.851.861 4.909.977.522 2.057 1.186 2.4 1.474.343.289 2.063.826 3.822 1.195 1.759.369 4.099 1.116 5.2 1.661 1.101.544 3.352 1.284 5.002 1.644 3.392.739 5.637 1.949 8.465 4.562 3.454 3.192 5.437 10.477 3.739 13.733-.325.624-.787 1.86-1.026 2.747-.476 1.768-3.51 5.321-4.92 5.76-.472.148-1.257.664-1.745 1.147-2.033 2.012-13.86 3.708-18.665 2.676a690.22 690.22 0 0 0-5.061-1.059c-1.937-.399-3.364-.945-4-1.532-.543-.502-1.707-1.321-2.587-1.821-1.466-.832-2.871-2.569-4.699-5.811-.458-.811-.7-2.1-.7-3.724-.001-3.629.639-4.116 5.412-4.116 4.068 0 4.44.193 5.567 2.891 2.357 5.64 18.27 6.394 20.896.99l.828-1.705-.911-1.788c-.856-1.679-1.078-1.835-3.652-2.557-1.508-.423-3.101-.994-3.541-1.269-.44-.276-2.376-.871-4.302-1.324-1.927-.453-4.184-1.172-5.018-1.597-.833-.425-2.554-1.044-3.824-1.376-1.27-.332-2.635-.842-3.032-1.134-3.369-2.477-5.224-4.016-5.224-4.332 0-.206-.476-1.415-1.057-2.687-1.65-3.607-1.431-6.487.926-12.153 1.297-3.12 5.591-6.125 10.046-7.031l4.685-.954c2.033-.415 7.794-.174 10.4.436m134.567.78c3.148.903 3.233 1.171 3.235 10.18.002 6.942.097 8.186.703 9.183l.7 1.154h16.24l1.177-1.129 1.178-1.128v-16.141l1.035-1.035c2.029-2.029 8.038-1.778 9.757.407.993 1.263 1.291 47.021.32 49.152-.971 2.132-6.114 3.31-8.672 1.987-2.402-1.241-2.563-1.947-2.473-10.834l.082-8.067-1.06-1.259-1.06-1.26h-8.103c-10.541 0-9.606-.99-9.69 10.258-.072 9.584-.189 10.052-2.793 11.14-2.88 1.203-6.473.526-8.206-1.548-1.048-1.253-1.129-47.913-.086-49.402 1.27-1.813 4.645-2.538 7.716-1.658m-105.329.851c.653.72.781 1.604.892 6.172l.131 5.333 1.841.627c1.012.345 2.501.627 3.307.627 2.286 0 2.902.986 3.112 4.981.229 4.366-.569 5.419-4.105 5.419-3.876 0-4.533 1.338-4.222 8.6.226 5.272 1.443 8.148 4 9.456 4.161 2.126 4.728 3.111 4.282 7.432-.359 3.476-3.471 5.271-5.656 3.261-.209-.192-.749-.353-1.2-.358-1.089-.011-3.961-1.335-4.895-2.256-.411-.404-1.371-1.256-2.136-1.893-1.843-1.537-3.189-3.404-3.189-4.426 0-.455-.405-1.545-.9-2.422-.893-1.582-.901-1.741-1.018-20.443l-.118-18.849 1.249-1.051c1.717-1.446 7.38-1.583 8.625-.21m64.448.541c.993 1.154 1.012 1.294.823 5.887-.217 5.275.322 6.742 2.222 6.048 1.834-.669 11.142-.366 13.205.43 4.398 1.696 7.199 4.351 9.551 9.053.842 1.681.901 2.315.907 9.6.008 9.935-.417 11.369-4.594 15.498-2.906 2.873-3.452 3.26-5.4 3.834-1.1.323-2.966.876-4.146 1.228-2.649.79-6.268.823-8.54.078-.943-.309-2.737-.851-3.988-1.203-1.416-.4-2.569-1.018-3.057-1.639-.431-.548-.976-.996-1.21-.996-.541 0-2.459-2.048-2.459-2.626 0-.239-.456-.863-1.013-1.386-2.245-2.109-2.387-3.567-2.387-24.523V178.73l.989-.802c1.697-1.374 7.726-.94 9.097.654m129.683-.346 1.231 1.035V189.5l1.248.605c.965.467 1.578.512 2.7.201 2.071-.575 10.446-.172 11.891.573 5.252 2.706 6.857 4.042 8.019 6.675.329.745.938 1.825 1.353 2.4 1.077 1.491 1.742 7.28 1.471 12.818-.379 7.759-5.185 14.93-11.001 16.415-1.034.264-2.325.659-2.867.877-3.888 1.566-13.458-.042-16.379-2.752-3.993-3.705-5.261-5.201-5.689-6.712-.25-.88-.79-2.744-1.2-4.142-.865-2.949-1.161-35.736-.336-37.277 1.186-2.216 7.328-2.823 9.559-.945M140.3 191.196c1.029.627 1.304 1.064 1.319 2.098.011.718.059 6.211.108 12.206l.088 10.901 1.934 1.853c2.423 2.322 4.433 2.72 6.772 1.339 2.775-1.636 2.869-2.084 2.959-13.993.102-13.587.079-13.439 2.228-14.415 3.398-1.542 7.71-.609 8.386 1.815.908 3.253.178 25.196-.967 29.068-.675 2.283-4.947 6.541-7.149 7.125a196.6 196.6 0 0 0-3.724 1.04c-2.494.727-6.364.725-8.881-.005a180.66 180.66 0 0 0-3.682-1.018c-2.106-.549-5.866-4.036-6.267-5.81-.149-.66-.665-2.01-1.147-3-1.614-3.313-1.653-27.492-.048-28.824 1.553-1.289 6.221-1.509 8.071-.38m130.976.144c1.215.759 1.28 1.353 1.505 13.764l.219 12.103 1.8 1.58c1.734 1.521 5.6 2.402 5.6 1.276 0-.185.626-.674 1.39-1.086 1.98-1.066 1.934-.767 2.183-14.263.255-13.806.144-13.336 3.288-13.943 3.491-.675 5.098-.473 6.37.798l1.169 1.169-.006 12.331c-.008 15.516-.506 17.734-4.985 22.213-2.728 2.728-11.613 4.375-15.895 2.946-.943-.315-2.425-.702-3.295-.86-1.797-.327-5.169-3.187-6.093-5.168-.308-.66-.901-1.74-1.319-2.4-1.153-1.821-1.607-6.876-1.607-17.902 0-11.107.24-12.469 2.274-12.919.619-.137 1.306-.315 1.526-.397.721-.266 5.151.306 5.876.758m-86.881 9.894c-3.825 2.218-4.036 15.318-.28 17.315a62.09 62.09 0 0 1 2.285 1.284c1.401.841 4.559.524 5.93-.595.588-.48 1.546-1.078 2.128-1.328 2.078-.891 2.923-11.696 1.144-14.614-1.791-2.938-7.794-4.042-11.207-2.062m131.146-.386c-4.274 1.206-5.226 14.994-1.204 17.424.585.354 1.551.977 2.147 1.385 3.065 2.1 9.817-1.188 10.558-5.142.504-2.683 0-10.013-.741-10.792a38.625 38.625 0 0 1-1.633-1.891c-1.062-1.315-6.049-1.852-9.127-.984"/><path fill="#2a0c63" d="M0 200v200h400V0H0v200m363.399-73.6c2.651 1.207 3.002 1.956 2.995 6.389-.009 6.736-.807 19.32-1.42 22.411-.327 1.65-.76 3.81-.962 4.8-.202.99-.651 7.331-.997 14.091-.57 11.122-.961 14.729-2.2 20.309-.22.99-.671 7.186-1.002 13.769-.635 12.618-.637 12.632-1.838 18.682-.528 2.663-.892 7.103-1.177 14.4-.437 11.148-.781 14.717-1.791 18.574-.543 2.076-.882 5.248-1.566 14.69-.341 4.701-.444 4.72-21.797 4.049-16.274-.511-23.027-.966-26.044-1.754-2.332-.609-11.788-1.162-28-1.637-11.587-.34-16.539-.641-20-1.218-4.584-.765-11.338-1.171-32.6-1.959-7.82-.29-12.528-.655-15.6-1.209-4.4-.793-10.463-1.168-32.4-2.002-6.16-.234-12.01-.573-13-.754-.99-.181-2.976-.529-4.412-.774-1.437-.244-10.977-.715-21.2-1.045-16.583-.536-24.691-1.058-25.653-1.652-1.561-.965-41.118-2.458-45.927-1.734-3.351.505-5.148 1.136-5.934 2.084-.289.349-1.909.953-3.6 1.343-1.902.439-3.386 1.034-3.892 1.56-.496.516-1.778 1.04-3.26 1.331-1.563.308-2.969.898-3.901 1.639-1.945 1.546-6.773 2.571-8.061 1.711-1.408-.94-1.403-6.649.007-9.201 2.799-5.065 3.417-10.195 2.662-22.093-.989-15.571-1.242-18.337-1.837-20.023-.938-2.658-1.313-6.07-1.791-16.3-.36-7.712-.61-9.993-1.444-13.2-.752-2.89-1.107-5.659-1.395-10.877-.512-9.301-1.389-18.003-2.137-21.2-.335-1.43-.612-3.891-.617-5.469l-.008-2.869 2.047-1.79c2.643-2.313 1.976-2.217 20.153-2.892 14.144-.525 21.293-1.02 22.118-1.53.851-.525 9.984-1.141 24.882-1.677 9.13-.328 17.77-.757 19.2-.952 8.525-1.165 14.958-1.628 27.817-2.003 13.768-.401 19.504-.813 22.583-1.623 2.52-.663 10.37-1.182 24-1.588 13.601-.405 18.68-.799 23.513-1.824 1.516-.321 7.308-.747 13.287-.977 21.067-.81 28.847-1.254 31.754-1.81 3.868-.74 12.498-1.298 24.646-1.594 11.549-.281 19.669-.852 23-1.617 3.099-.712 11.895-1.285 24.2-1.576 11.498-.272 20.019-.877 22.692-1.613 2.716-.747 3.911-.706 5.907.204M74.8 178.665c-4.048.398-4.886.628-5.7 1.564-.464.534-1.037.972-1.272.972-1.046.003-4.526 4.013-4.771 5.497-1.167 7.062 1.153 13.702 4.789 13.702.144 0 .654.423 1.134.94.661.714 1.602 1.049 3.91 1.393 3.026.45 5.11 1.136 5.11 1.683 0 .474 2.024 1.106 5.115 1.598 2.012.32 3.27.761 4.058 1.425.628.528 1.539.961 2.024.961 5.169 0 6.914 7.57 2.427 10.529-5.089 3.356-4.428 3.117-9.291 3.354-4.944.241-8.717-.298-9.602-1.37-.292-.354-1.26-.966-2.15-1.361-1.345-.596-1.772-1.086-2.519-2.887-.832-2.009-1.015-2.187-2.488-2.423-2.988-.478-5.764 2.001-4.19 3.741.391.432 1.12 1.668 1.621 2.748.992 2.142 2.777 3.708 5.06 4.439.805.258 1.556.709 1.669 1.002.903 2.352 19.102 2.184 22.107-.205.808-.642 1.914-1.167 2.457-1.167.674 0 1.707-.73 3.245-2.293l2.257-2.293v-12.028l-2.2-2.232c-1.521-1.542-2.632-2.314-3.6-2.5-.77-.147-2.151-.777-3.069-1.4-1.291-.875-2.504-1.246-5.341-1.634-2.622-.358-3.894-.724-4.45-1.28-.483-.483-2.172-1.077-4.439-1.561-2.543-.544-3.972-1.072-4.681-1.732-.561-.522-1.434-1.162-1.939-1.422-4.155-2.139.301-9.515 6.193-10.251 8.248-1.031 14.235.686 15.144 4.344l.418 1.682 3.421.115c4.536.152 5.84-1.948 2.696-4.344-.454-.346-.95-1.243-1.104-1.993-.272-1.332-.578-1.59-3.249-2.737-.55-.236-1.478-.814-2.062-1.285-1.551-1.249-10.292-1.923-16.738-1.291m35.267.638-.933.449.192 19.024c.105 10.463.345 19.688.533 20.499.37 1.601 3.533 5.525 4.454 5.525.311 0 1.065.534 1.674 1.186 1.385 1.482 3.854 2.111 5.866 1.493 2.573-.789 2.398-3.683-.295-4.898-5.149-2.322-6.499-5.634-6.293-15.444.153-7.24.281-7.537 3.265-7.537 6.901 0 6.975-5.513.085-6.354-2.958-.361-3.414-1.465-3.414-8.266-.001-6.28-1.177-7.58-5.134-5.677m62.813-.023c-.596.596-.681 32.862-.097 36.433.209 1.272.739 2.77 1.178 3.328.439.559 1.081 1.987 1.426 3.174.577 1.983.751 2.191 2.157 2.57.841.226 1.849.766 2.241 1.198 1.31 1.448 3.294 1.818 9.615 1.794 6.19-.024 7.015-.2 8.775-1.867.454-.429 1.48-1.047 2.281-1.371 1.254-.509 1.58-.932 2.354-3.054.494-1.355 1.265-2.959 1.713-3.566 1.77-2.394 1.384-14.186-.545-16.638-.428-.544-.778-1.394-.778-1.889 0-1.811-3.551-4.933-6.429-5.653-1.414-.354-3.057-.89-3.651-1.191-1.75-.888-6.965-.728-8.211.252-1.217.957-4.36 1.09-5.533.233-.702-.513-.788-1.176-.903-6.948-.126-6.351-.131-6.383-1.119-6.833-1.304-.594-3.868-.578-4.474.028m43.6 0c-.737.737-.663 47.046.077 48.02.367.484 1.086.7 2.325.7 3.03 0 3.047-.059 3.096-10.546.047-10.029.13-10.424 2.327-11.034 1.924-.535 18.635-.543 20.552-.011 2.313.643 2.312.64 2.369 10.816.059 10.654.094 10.784 2.936 10.762 3.298-.025 3.065 1.862 3.048-24.64-.017-26.354.197-24.547-2.913-24.547-3.175 0-3.066-.364-3.081 10.294-.018 12.367 1.336 11.106-11.927 11.106-14.619 0-13.348 1.089-13.304-11.399.03-8.701-.008-9.185-.751-9.583-1.064-.569-4.163-.529-4.754.062m87.52.121c-.382.459-.499 4.801-.499 18.513 0 20.2.111 21.767 1.645 23.182.58.535 1.325 1.542 1.656 2.238.362.761.958 1.317 1.492 1.393.49.07 1.242.574 1.672 1.12 1.949 2.478 15.602 3.021 17.91.713.526-.526 1.444-1.212 2.04-1.524 4.504-2.359 7.184-12.332 5.312-19.769-.424-1.687-.896-3.932-1.048-4.99-.339-2.347-3.821-6.277-5.562-6.277-.55 0-2.195-.45-3.656-1-3.469-1.305-7.73-1.398-9.253-.2-.726.571-1.623.8-3.134.8-3.302 0-3.375-.164-3.375-7.549 0-4.36-.147-6.438-.48-6.771-.698-.698-4.113-.611-4.72.121M134.836 194.03l-.965.802.074 9.484c.076 9.709.1 10.145.888 16.213.42 3.24.544 3.566 1.512 3.97.58.243 1.505.943 2.055 1.557 1.196 1.335 4.298 1.953 9.6 1.912 6.973-.054 9.487-1.094 11.56-4.782.49-.872 1.053-1.586 1.25-1.586.855 0 1.162-3.738 1.217-14.845.068-13.536.065-13.555-2.595-13.555-2.914 0-2.965.207-3.011 12.331-.042 11.176-.052 11.256-1.528 13.046-.535.648-1.131 1.596-1.325 2.108-.495 1.302-1.894 1.715-5.814 1.715-7.19 0-7.521-.683-7.662-15.8-.121-13.126-.08-12.818-1.754-13.152-1.901-.381-2.458-.288-3.502.582m130.964-.539c-2.007.285-2.008.294-1.869 11.229.121 9.547.2 10.503 1.1 13.401.533 1.716.969 3.463.969 3.881 0 1.092.848 2.798 1.391 2.798.254 0 1.003.611 1.663 1.357 2.137 2.414 16.036 2.657 18.146.318.55-.61 1.475-1.407 2.055-1.772.742-.466 1.195-1.244 1.525-2.62.258-1.076.765-2.48 1.125-3.12.723-1.281 1.464-23.29.829-24.616-.417-.873-2.878-1.308-4.028-.713-2.007 1.038-2.231 1.462-1.813 3.422.641 3.007.193 17.298-.587 18.744-.357.66-.843 1.948-1.082 2.861-1.214 4.656-11.517 5.627-13.38 1.261-1.677-3.929-2.656-19.223-1.477-23.091.496-1.63.139-2.209-1.884-3.054-.759-.317-1.404-.55-1.432-.517-.028.033-.591.137-1.251.231m-72.448 5.317c1.162.656 2.383 1.192 2.713 1.192 2.161 0 4.688 12.862 2.913 14.824-.342.378-.951 1.562-1.353 2.632-.402 1.069-1.101 2.135-1.553 2.368-.451.233-1.177.863-1.611 1.4-.759.937-.984.976-5.606.976h-4.815l-1.82-1.873c-1.001-1.03-1.82-2.218-1.82-2.641 0-.423-.45-1.255-1-1.848-1.155-1.247-1.513-9.14-.494-10.882.272-.465.985-1.757 1.586-2.871.632-1.174 1.474-2.147 2-2.314.499-.158 1.553-.695 2.342-1.193 2.68-1.691 5.237-1.622 8.518.23m129.022-.776c6.232 2.839 5.912 2.519 6.418 6.414.952 7.332.182 13.672-1.792 14.756-.66.363-1.416 1.09-1.681 1.617-1.387 2.762-10.629 2.15-13.04-.865a56.672 56.672 0 0 0-1.626-1.954c-1.262-1.396-1.453-2.473-1.453-8.177v-5.83l1.188-1.243c.653-.684 1.292-1.571 1.419-1.971.127-.402 1.07-1.037 2.112-1.421 1.034-.381 2.151-.917 2.481-1.189.58-.48 1.768-.801 3.374-.915.425-.029 1.595.32 2.6.778"/><path fill="#7b7092" d="M357.492 126.196c-2.673.736-11.194 1.341-22.692 1.613-12.305.291-21.101.864-24.2 1.576-3.331.765-11.451 1.336-23 1.617-12.148.296-20.778.854-24.646 1.594-2.907.556-10.687 1-31.754 1.81-5.979.23-11.771.656-13.287.977-4.833 1.025-9.912 1.419-23.513 1.824-13.63.406-21.48.925-24 1.588-3.079.81-8.815 1.222-22.583 1.623-12.859.375-19.292.838-27.817 2.003-1.43.195-10.07.624-19.2.952-14.898.536-24.031 1.152-24.882 1.677-.825.51-7.974 1.005-22.118 1.53-18.177.675-17.51.579-20.153 2.892l-2.047 1.79.008 2.869c.005 1.578.282 4.039.617 5.469.748 3.197 1.625 11.899 2.137 21.2.288 5.218.643 7.987 1.395 10.877.834 3.207 1.084 5.488 1.444 13.2.478 10.23.853 13.642 1.791 16.3.595 1.686.848 4.452 1.837 20.023.534 8.414.507 9.898-.27 14.763-.567 3.549-.948 4.717-2.392 7.33-1.41 2.552-1.415 8.261-.007 9.201 1.288.86 6.116-.165 8.061-1.711.932-.741 2.338-1.331 3.901-1.639 1.482-.291 2.764-.815 3.26-1.331.506-.526 1.99-1.121 3.892-1.56 1.691-.39 3.311-.994 3.6-1.343.786-.948 2.583-1.579 5.934-2.084 4.809-.724 44.366.769 45.927 1.734.962.594 9.07 1.116 25.653 1.652 10.223.33 19.763.801 21.2 1.045 1.436.245 3.422.593 4.412.774.99.181 6.84.52 13 .754 21.937.834 28 1.209 32.4 2.002 3.072.554 7.78.919 15.6 1.209 21.262.788 28.016 1.194 32.6 1.959 3.461.577 8.413.878 20 1.218 16.212.475 25.668 1.028 28 1.637 3.017.788 9.77 1.243 26.044 1.754 21.353.671 21.456.652 21.797-4.049.684-9.442 1.023-12.614 1.566-14.69 1.01-3.857 1.354-7.426 1.791-18.574.285-7.297.649-11.737 1.177-14.4 1.201-6.05 1.203-6.064 1.838-18.682.331-6.583.782-12.779 1.002-13.769 1.239-5.58 1.63-9.187 2.2-20.309.346-6.76.795-13.101.997-14.091.202-.99.635-3.15.962-4.8 1.254-6.323 1.827-25.65.803-27.111-1.467-2.094-4.792-2.854-8.285-1.893m7.423 2.637c1.199 1.467.806 9.644-1.277 26.567-.46 3.74-1.101 10.85-1.424 15.8-.324 4.95-1.041 12.578-1.595 16.952-.554 4.373-1.278 12.473-1.61 18-.331 5.526-.781 11.308-.999 12.848-1.079 7.615-1.619 13.116-2.022 20.6-.244 4.51-.692 9.91-.996 12-.951 6.532-1.728 13.627-1.995 18.2-.511 8.766-.457 8.734-14.023 8.182-10.802-.439-16.356-.812-29.574-1.981-5.06-.448-14.69-.991-21.4-1.208-6.71-.216-16.07-.746-20.8-1.178-13.928-1.272-18.396-1.573-30-2.019-6.05-.233-14.6-.77-19-1.195-12.946-1.248-17.378-1.552-29.2-2.006-6.16-.237-13.81-.682-17-.99-7.422-.717-22.239-1.656-35-2.217-5.5-.242-13.45-.781-17.666-1.197-8.675-.856-17.033-1.388-31.534-2.007-5.5-.234-11.62-.591-13.6-.792-4.447-.453-9.073.473-14 2.802-1.76.832-3.74 1.637-4.4 1.79-.66.153-2.014.686-3.008 1.184-.995.499-2.795 1.233-4 1.633-1.206.399-2.828 1.145-3.606 1.658-1.893 1.249-5.747 2.038-6.58 1.346-.993-.824-.781-4.613.402-7.153.935-2.008 1.357-3.496 3.212-11.328.692-2.922.695-3.313.068-7.8-.363-2.598-.766-6.614-.895-8.924-.458-8.171-.992-13.524-1.981-19.844-.55-3.517-1.194-9.536-1.43-13.375-.237-3.84-.792-9.411-1.234-12.381-1.409-9.464-1.488-10.122-1.741-14.4-.136-2.31-.701-8.363-1.256-13.451-1.654-15.174-2.857-14.349 22.649-15.535 12.37-.576 23.237-1.357 30.82-2.216 1.902-.216 9.47-.667 16.819-1.004 13.518-.619 18.032-.936 28.161-1.976 3.08-.316 11-.773 17.6-1.015 10.523-.386 18.919-.993 33.026-2.39 2.105-.208 8.495-.569 14.2-.802 9.735-.397 18.575-.969 21.774-1.41 4.236-.583 15.84-1.429 24.6-1.793 9.446-.393 19.928-1.095 30.122-2.018 2.487-.226 10.407-.678 17.6-1.005 7.193-.327 16.948-.959 21.678-1.405 13.546-1.277 16.891-1.516 25-1.788 7.857-.262 22.593-1.251 22.877-1.535.402-.403 3.528.907 4.238 1.776M72.481 178.021c-8.491 1.515-13.486 11.321-9.665 18.979 1.492 2.989 5.557 5.732 9.784 6.6 1.32.272 3.251.924 4.291 1.449 1.041.526 2.841 1.148 4 1.384 9.418 1.91 13.796 5.879 11.124 10.083-4.387 6.902-20.365 6.244-23.377-.962-.918-2.198-1.465-2.465-4.677-2.284-4.635.262-5.192 2.229-2.127 7.505 5.709 9.826 27.648 11.25 36.28 2.355 2.446-2.52 3.421-8.291 2.306-13.644-.5-2.399-3.917-6.686-5.329-6.686-.318 0-1.624-.558-2.901-1.24-1.37-.73-3.369-1.387-4.871-1.6-1.401-.198-3.396-.788-4.433-1.311-1.037-.523-3.379-1.326-5.203-1.785-7.022-1.766-10.018-5.785-6.54-8.772 5.68-4.88 16.759-4.192 19.743 1.226l.927 1.682 3.533.116c4.143.136 4.654-.137 4.654-2.485 0-3.621-3.218-7.245-8.8-9.909-2.047-.976-14.549-1.445-18.719-.701m37.252.562c-1.755.763-1.818 1.607-1.599 21.417.241 21.789.817 23.567 9.074 28.007 5.562 2.991 10.253-2.871 5.028-6.283-5.642-3.685-6.421-5.506-6.175-14.445.183-6.682.228-6.763 3.95-7.123 3.803-.369 4.389-.86 4.389-3.676 0-3.326-.554-3.918-4.222-4.509-3.987-.644-4.178-.997-4.178-7.728 0-6.255-1.593-7.694-6.267-5.66m62.942.226-1.125.888.125 18.675.125 18.674 1.944 3.864c1.196 2.378 2.245 3.959 2.726 4.112.43.137 1.377.77 2.103 1.408 3.817 3.352 17.256 3.238 21.027-.178a16.96 16.96 0 0 1 2.032-1.544c.615-.38 1.745-2.061 2.791-4.155l1.759-3.517.158-5.403c.155-5.316-.408-10.581-1.184-11.06-.204-.126-.812-1.099-1.35-2.162-2.782-5.489-12.983-9.009-19.212-6.63-3.984 1.522-4.994.118-4.994-6.945 0-5.155-.012-5.226-1.023-5.888-1.707-1.118-4.575-1.186-5.902-.139m43.431-.1-.894.691-.045 23.969-.044 23.969.938.722c1.306 1.005 4.733.997 5.98-.013.925-.749.929-.789.811-8.933-.182-12.594-.437-12.325 11.628-12.291 12.507.034 11.906-.552 11.914 11.607.006 8.501.02 8.644.932 9.5 1.271 1.195 4.525 1.217 6.02.041l1.054-.829v-47.554l-1.3-.792c-1.867-1.139-4.698-1.076-5.83.13-.836.889-.87 1.254-.87 9.22 0 11.959.524 11.454-11.88 11.454-12.054 0-11.843.22-11.676-12.113l.108-8.054-1.176-.715c-1.517-.921-4.484-.926-5.67-.009m87.348.12-1.054.829v17.355c0 20.178.22 22.617 2.256 25.054.744.89 1.485 1.824 1.648 2.077 2.544 3.94 16.022 6.433 20.896 3.866 3.234-1.704 6.295-4.481 7.179-6.516a273.44 273.44 0 0 1 1.549-3.494c1.107-2.424 1.165-12.395.09-15.411a116.596 116.596 0 0 1-1.27-3.751c-.457-1.483-4.341-5.638-5.271-5.638-.316 0-1.406-.367-2.421-.816-2.483-1.099-8.986-1.508-11.259-.708-4.784 1.683-5.797.489-5.797-6.832 0-4.819-.052-5.153-.926-5.974-1.253-1.178-4.148-1.199-5.62-.041m-216.116-.057c2.255.237 3.438.57 4.2 1.184.584.471 1.512 1.049 2.062 1.285 2.671 1.147 2.977 1.405 3.249 2.737.154.75.65 1.647 1.104 1.993 3.144 2.396 1.84 4.496-2.696 4.344l-3.421-.115-.418-1.682c-.909-3.658-6.896-5.375-15.144-4.344-5.892.736-10.348 8.112-6.193 10.251.505.26 1.378.9 1.939 1.422.709.66 2.138 1.188 4.681 1.732 2.267.484 3.956 1.078 4.439 1.561.556.556 1.828.922 4.45 1.28 2.837.388 4.05.759 5.341 1.634.918.623 2.299 1.253 3.069 1.4.968.186 2.079.958 3.6 2.5l2.2 2.232v12.028l-2.257 2.293c-1.538 1.563-2.571 2.293-3.245 2.293-.543 0-1.649.525-2.457 1.167-3.005 2.389-21.204 2.557-22.107.205-.113-.293-.864-.744-1.669-1.002-2.283-.731-4.068-2.297-5.06-4.439-.501-1.08-1.23-2.316-1.621-2.748-1.574-1.74 1.202-4.219 4.19-3.741 1.473.236 1.656.414 2.488 2.423.747 1.801 1.174 2.291 2.519 2.887.89.395 1.858 1.007 2.15 1.361.885 1.072 4.658 1.611 9.602 1.37 4.863-.237 4.202.002 9.291-3.354 4.487-2.959 2.742-10.529-2.427-10.529-.485 0-1.396-.433-2.024-.961-.788-.664-2.046-1.105-4.058-1.425-3.091-.492-5.115-1.124-5.115-1.598 0-.547-2.084-1.233-5.11-1.683-2.308-.344-3.249-.679-3.91-1.393-.48-.517-.99-.94-1.134-.94-3.636 0-5.956-6.64-4.789-13.702.245-1.484 3.725-5.494 4.771-5.497.235 0 .808-.438 1.272-.972.814-.936 1.652-1.166 5.7-1.564 2.776-.272 9.464-.215 12.538.107m27.382.508c.324.324.48 2.174.481 5.7 0 6.801.456 7.905 3.414 8.266 6.89.841 6.816 6.354-.085 6.354-2.984 0-3.112.297-3.265 7.537-.206 9.81 1.144 13.122 6.293 15.444 2.693 1.215 2.868 4.109.295 4.898-2.012.618-4.481-.011-5.866-1.493-.609-.652-1.363-1.186-1.674-1.186-.921 0-4.084-3.924-4.454-5.525-.188-.811-.428-10.036-.533-20.499l-.192-19.024.933-.449c1.255-.604 4.058-.618 4.653-.023m62.634-.028c.988.45.993.482 1.119 6.833.115 5.772.201 6.435.903 6.948 1.173.857 4.316.724 5.533-.233 1.246-.98 6.461-1.14 8.211-.252.594.301 2.237.837 3.651 1.191 2.878.72 6.429 3.842 6.429 5.653 0 .495.35 1.345.778 1.889 1.929 2.452 2.315 14.244.545 16.638-.448.607-1.219 2.211-1.713 3.566-.774 2.122-1.1 2.545-2.354 3.054-.801.324-1.827.942-2.281 1.371-1.76 1.667-2.585 1.843-8.775 1.867-6.321.024-8.305-.346-9.615-1.794-.392-.432-1.4-.972-2.241-1.198-1.406-.379-1.58-.587-2.157-2.57-.345-1.187-.987-2.615-1.426-3.174-.439-.558-.969-2.056-1.178-3.328-.584-3.571-.499-35.837.097-36.433.606-.606 3.17-.622 4.474-.028m43.88-.034c.743.398.781.882.751 9.583-.044 12.488-1.315 11.399 13.304 11.399 13.263 0 11.909 1.261 11.927-11.106.015-10.658-.094-10.294 3.081-10.294 3.11 0 2.896-1.807 2.913 24.547.017 26.502.25 24.615-3.048 24.64-2.842.022-2.877-.108-2.936-10.762-.057-10.176-.056-10.173-2.369-10.816-1.917-.532-18.628-.524-20.552.011-2.197.61-2.28 1.005-2.327 11.034-.049 10.487-.066 10.546-3.096 10.546-1.239 0-1.958-.216-2.325-.7-.74-.974-.814-47.283-.077-48.02.591-.591 3.69-.631 4.754-.062m87.486.062c.333.333.48 2.411.48 6.771 0 7.385.073 7.549 3.375 7.549 1.511 0 2.408-.229 3.134-.8 1.523-1.198 5.784-1.105 9.253.2 1.461.55 3.106 1 3.656 1 1.741 0 5.223 3.93 5.562 6.277.152 1.058.624 3.303 1.048 4.99 1.872 7.437-.808 17.41-5.312 19.769-.596.312-1.514.998-2.04 1.524-2.308 2.308-15.961 1.765-17.91-.713-.43-.546-1.182-1.05-1.672-1.12-.534-.076-1.13-.632-1.492-1.393-.331-.696-1.076-1.703-1.656-2.238-1.534-1.415-1.645-2.982-1.645-23.182 0-13.712.117-18.054.499-18.513.607-.732 4.022-.819 4.72-.121m-174.989 13.678-1.113.958.109 10.342c.161 15.189.833 18.864 3.942 21.548 4.866 4.202 17.572 4.347 21.713.249 4.411-4.365 4.842-6.368 4.799-22.301-.029-11.071-.187-11.554-3.785-11.554-3.859 0-3.867.024-3.937 12.451L155.4 215l-1.091 2.222c-1.613 3.284-2.649 4.094-5.5 4.3-7.081.512-8.009-1.455-8.009-16.98 0-12.425-.034-12.542-3.664-12.542-1.841 0-2.51.188-3.405.958m130.761-.69c-1.529.615-1.708 2.155-1.558 13.423l.146 10.909 1.278 3.8c1.291 3.836 2.531 5.53 5.454 7.445 1.17.766 8.88 1.209 13.51.775 3.482-.326 7.597-3.04 8.122-5.356.133-.585.627-1.874 1.099-2.864.797-1.675.873-2.622 1.08-13.6.272-14.317.165-14.8-3.251-14.8-4.735 0-4.863.324-4.79 12.062.094 14.904-1.021 17.538-7.422 17.538-5.919 0-6.74-1.956-6.823-16.257-.067-11.527-.182-12.276-1.987-12.962-1.046-.398-3.981-.466-4.858-.113m-126.154 1.18c1.674.334 1.633.026 1.754 13.152.141 15.117.472 15.8 7.662 15.8 3.92 0 5.319-.413 5.814-1.715.194-.512.79-1.46 1.325-2.108 1.476-1.79 1.486-1.87 1.528-13.046.046-12.124.097-12.331 3.011-12.331 2.66 0 2.663.019 2.595 13.555-.055 11.107-.362 14.845-1.217 14.845-.197 0-.76.714-1.25 1.586-2.073 3.688-4.587 4.728-11.56 4.782-5.302.041-8.404-.577-9.6-1.912-.55-.614-1.475-1.314-2.055-1.557-.968-.404-1.092-.73-1.512-3.97-.788-6.068-.812-6.504-.888-16.213l-.074-9.484.965-.802c1.044-.87 1.601-.963 3.502-.582m130.145.329c2.023.845 2.38 1.424 1.884 3.054-1.179 3.868-.2 19.162 1.477 23.091 1.863 4.366 12.166 3.395 13.38-1.261.239-.913.725-2.201 1.082-2.861.78-1.446 1.228-15.737.587-18.744-.418-1.96-.194-2.384 1.813-3.422 1.15-.595 3.611-.16 4.028.713.635 1.326-.106 23.335-.829 24.616-.36.64-.867 2.044-1.125 3.12-.33 1.376-.783 2.154-1.525 2.62-.58.365-1.505 1.162-2.055 1.772-2.11 2.339-16.009 2.096-18.146-.318-.66-.746-1.409-1.357-1.663-1.357-.543 0-1.391-1.706-1.391-2.798 0-.418-.436-2.165-.969-3.881-.9-2.898-.979-3.854-1.1-13.401-.139-10.935-.138-10.944 1.869-11.229.66-.094 1.223-.198 1.251-.231.028-.033.673.2 1.432.517m-81.249 3.697c-.531.109-1.611.606-2.4 1.104-.789.498-1.843 1.035-2.342 1.193-.526.167-1.368 1.14-2 2.314a134.944 134.944 0 0 1-1.586 2.871c-1.019 1.742-.661 9.635.494 10.882.55.593 1 1.425 1 1.848 0 .423.819 1.611 1.82 2.641l1.82 1.873h4.815c4.622 0 4.847-.039 5.606-.976.434-.537 1.16-1.167 1.611-1.4.452-.233 1.151-1.299 1.553-2.368.402-1.07 1.011-2.254 1.353-2.632 1.775-1.962-.752-14.824-2.913-14.824-.33 0-1.551-.536-2.713-1.192-2.143-1.21-4.366-1.694-6.118-1.334m130.766.017c-.55.1-1.27.405-1.6.678-.33.272-1.447.808-2.481 1.189-1.042.384-1.985 1.019-2.112 1.421-.127.4-.766 1.287-1.419 1.971l-1.188 1.243v5.83c0 5.704.191 6.781 1.453 8.177.299.33 1.03 1.209 1.626 1.954 2.411 3.015 11.653 3.627 13.04.865.265-.527 1.021-1.254 1.681-1.617 1.974-1.084 2.744-7.424 1.792-14.756-.439-3.378-.663-3.745-2.936-4.808-5.579-2.608-5.476-2.58-7.856-2.147m-124.096 2.603c5.667 2.708 5.806 15.723.212 19.829-8.895 6.53-18.667-5.77-13.183-16.591 2.178-4.298 7.81-5.704 12.971-3.238m128.923-.656c2.36.692 3.682 1.693 4.707 3.562.916 1.672.967 12.287.066 13.822-3.666 6.245-11.78 6.531-15.8.556L310.2 215l.002-5 .002-5 1.524-2.2c2.466-3.558 6.386-4.746 11.099-3.362"/><path fill="#8c84a4" d="m359.6 127.256-1.4.278 1.4-.035c1.946-.048 4.051.471 5 1.232.775.622.778.618.1-.13-.942-1.039-3.387-1.684-5.1-1.345m-5.293.634c.719.089 1.799.087 2.4-.004s.013-.164-1.307-.162c-1.32.002-1.812.077-1.093.166m-5.6.4c.719.089 1.799.087 2.4-.004s.013-.164-1.307-.162c-1.32.002-1.812.077-1.093.166m-9.994.405c1.163.081 2.963.081 4-.002 1.038-.082.087-.148-2.113-.147-2.2.001-3.049.068-1.887.149m-9.013.396c.825.087 2.175.087 3 0 .825-.086.15-.157-1.5-.157s-2.325.071-1.5.157m-10.7.714c-2.2.267-3.28.497-2.4.51.88.014 3.67-.211 6.2-.498 2.868-.326 3.772-.518 2.4-.511-1.21.007-4 .231-6.2.499m46.348 3.795c0 2.31.066 3.255.147 2.1a36.327 36.327 0 0 0 0-4.2c-.081-1.155-.147-.21-.147 2.1m-53.648-2.913a8.899 8.899 0 0 0 2.2 0c.605-.092.11-.167-1.1-.167-1.21 0-1.705.075-1.1.167m-4.8.4a8.899 8.899 0 0 0 2.2 0c.605-.092.11-.167-1.1-.167-1.21 0-1.705.075-1.1.167m-5.8.402c.715.089 1.885.089 2.6 0 .715-.088.13-.161-1.3-.161-1.43 0-2.015.073-1.3.161m-9 .405a29.38 29.38 0 0 0 3.8 0c1.045-.082.19-.15-1.9-.15s-2.945.068-1.9.15m-8.989.399c.94.085 2.38.084 3.2-.002.819-.086.049-.155-1.711-.154-1.76.002-2.43.072-1.489.156M274 132.8c-2.166.265-2.172.27-.4.288.99.01 2.97-.113 4.4-.274l2.6-.292-2.2.004c-1.21.003-3.19.126-4.4.274m-10.8.8-2.6.262 2.2.022c1.21.012 3.37-.109 4.8-.27l2.6-.292-2.2.008c-1.21.004-3.37.126-4.8.27m-6.3.687a8.899 8.899 0 0 0 2.2 0c.605-.092.11-.167-1.1-.167-1.21 0-1.705.075-1.1.167m-7 .406c.935.084 2.465.084 3.4 0s.17-.153-1.7-.153c-1.87 0-2.635.069-1.7.153m-9.788.402c1.052.082 2.672.081 3.6-.003.928-.084.068-.151-1.912-.15-1.98.001-2.74.07-1.688.153m-7.412.394c.715.089 1.885.089 2.6 0 .715-.088.13-.161-1.3-.161-1.43 0-2.015.073-1.3.161m-7.9.511c-2.173.266-2.178.27-.4.291.99.012 2.88-.112 4.2-.276l2.4-.297-2 .006c-1.1.004-2.99.128-4.2.276m-5.095.687c.609.092 1.509.09 2-.005.492-.095-.005-.171-1.105-.168-1.1.003-1.503.081-.895.173m-4 .4c.609.092 1.509.09 2-.005.492-.095-.005-.171-1.105-.168-1.1.003-1.503.081-.895.173m-4.998.403c.719.089 1.799.087 2.4-.004s.013-.164-1.307-.162c-1.32.002-1.812.077-1.093.166m-7.007.401c.825.087 2.175.087 3 0 .825-.086.15-.157-1.5-.157s-2.325.071-1.5.157m-10.4.403a29.38 29.38 0 0 0 3.8 0c1.045-.082.19-.15-1.9-.15s-2.945.068-1.9.15m-7 .395c.715.089 1.885.089 2.6 0 .715-.088.13-.161-1.3-.161-1.43 0-2.015.073-1.3.161m-7.5.533c-1.118.187-.436.222 1.8.092 1.98-.116 3.675-.279 3.767-.362.27-.246-3.613-.058-5.567.27m-5.1.665a8.899 8.899 0 0 0 2.2 0c.605-.092.11-.167-1.1-.167-1.21 0-1.705.075-1.1.167m191.22 1.713c0 1.21.075 1.705.167 1.1a8.899 8.899 0 0 0 0-2.2c-.092-.605-.167-.11-.167 1.1m-195.62-1.313a8.899 8.899 0 0 0 2.2 0c.605-.092.11-.167-1.1-.167-1.21 0-1.705.075-1.1.167m-4.8.4a8.899 8.899 0 0 0 2.2 0c.605-.092.11-.167-1.1-.167-1.21 0-1.705.075-1.1.167m-7.389.406c.94.085 2.38.084 3.2-.002.819-.086.049-.155-1.711-.154-1.76.002-2.43.072-1.489.156m-10.411.4c.935.084 2.465.084 3.4 0s.17-.153-1.7-.153c-1.87 0-2.635.069-1.7.153m-14.5.702c-5.384.655-2.47.67 3.8.02 3.249-.336 4.159-.515 2.6-.512-1.32.004-4.2.225-6.4.492m-6.895.892c.609.092 1.509.09 2-.005.492-.095-.005-.171-1.105-.168-1.1.003-1.503.081-.895.173m-4.998.403c.719.089 1.799.087 2.4-.004s.013-.164-1.307-.162c-1.32.002-1.812.077-1.093.166m-6.007.399c.715.089 1.885.089 2.6 0 .715-.088.13-.161-1.3-.161-1.43 0-2.015.073-1.3.161m-8.787.406c1.163.081 2.963.081 4-.002 1.038-.082.087-.148-2.113-.147-2.2.001-3.049.068-1.887.149m-9.202.398c.94.085 2.38.084 3.2-.002.819-.086.049-.155-1.711-.154-1.76.002-2.43.072-1.489.156m268.135.742c-.025.679-.315 3.019-.644 5.2-.328 2.181-.574 4.595-.545 5.365.06 1.612.061 1.605.991-5.428.351-2.655.55-5.175.442-5.6-.13-.508-.213-.35-.244.463M90.3 145.089c.715.089 1.885.089 2.6 0 .715-.088.13-.161-1.3-.161-1.43 0-2.015.073-1.3.161m-6.9.511c-1.9.261-1.92.275-.4.298.88.012 2.59-.114 3.8-.281 2.166-.3 2.172-.304.4-.298-.99.004-2.7.13-3.8.281m-5.893.69c.719.089 1.799.087 2.4-.004s.013-.164-1.307-.162c-1.32.002-1.812.077-1.093.166m-4.8.4c.719.089 1.799.087 2.4-.004s.013-.164-1.307-.162c-1.32.002-1.812.077-1.093.166m-5.6.4c.719.089 1.799.087 2.4-.004s.013-.164-1.307-.162c-1.32.002-1.812.077-1.093.166m-8.394.405c1.163.081 2.963.081 4-.002 1.038-.082.087-.148-2.113-.147-2.2.001-3.049.068-1.887.149m-9.202.398c.94.085 2.38.084 3.2-.002.819-.086.049-.155-1.711-.154-1.76.002-2.43.072-1.489.156m-10.027.558c-2.995.385-5.637 1.529-6.057 2.623-.228.595-.125.573.651-.133 1.78-1.623 2.562-1.805 11.522-2.677.77-.075.32-.142-1-.149-1.32-.008-3.622.143-5.116.336m-6.575 5.949c0 .99.078 1.395.173.9a5.661 5.661 0 0 0 0-1.8c-.095-.495-.173-.09-.173.9m.384 4c0 .77.082 1.085.183.7.1-.385.1-1.015 0-1.4-.101-.385-.183-.07-.183.7m329.608.6c.004.88.086 1.193.182.695.096-.497.092-1.217-.008-1.6-.1-.382-.179.025-.174.905m-329.2 2.4c.004.88.086 1.193.182.695.096-.497.092-1.217-.008-1.6-.1-.382-.179.025-.174.905m328.813 2c.003 1.1.081 1.503.173.895.092-.609.09-1.509-.005-2-.095-.492-.171.005-.168 1.105M34.101 165c.004.88.086 1.193.182.695.096-.497.092-1.217-.008-1.6-.1-.382-.179.025-.174.905m.413 3.6c.003 1.1.081 1.503.173.895.092-.609.09-1.509-.005-2-.095-.492-.171.005-.168 1.105m327.617.8c.002 1.54.074 2.121.161 1.291.087-.83.085-2.09-.003-2.8-.089-.71-.16-.031-.158 1.509M34.914 175c.003 1.1.081 1.503.173.895.092-.609.09-1.509-.005-2-.095-.492-.171.005-.168 1.105m326.806 1c0 1.21.075 1.705.167 1.1a8.899 8.899 0 0 0 0-2.2c-.092-.605-.167-.11-.167 1.1m-283.603 1.497c1.494.077 3.834.077 5.2-.001 1.365-.078.143-.141-2.717-.141-2.86.001-3.978.065-2.483.142m-5.617.379c.385.1 1.015.1 1.4 0 .385-.101.07-.183-.7-.183s-1.085.082-.7.183m14.8 0c.385.1 1.015.1 1.4 0 .385-.101.07-.183-.7-.183s-1.085.082-.7.183m130.6.006a5.661 5.661 0 0 0 1.8 0c.495-.095.09-.173-.9-.173s-1.395.078-.9.173m31.2 0a5.661 5.661 0 0 0 1.8 0c.495-.095.09-.173-.9-.173s-1.395.078-.9.173m-180.799 1.295c-2.284 1.448-5.901 4.886-5.901 5.609 0 .293.405-.065.9-.795 1.146-1.69 5.528-5.06 7.212-5.547.864-.249 1.018-.384.466-.408-.452-.02-1.656.494-2.677 1.141m147.388-.554-.889.622.094 12.278.094 12.277.111-12.2c.11-12.097.119-12.206 1.006-12.891 1.117-.862.789-.93-.416-.086m5.144-.502c.092.067.707.437 1.367.824l1.2.702-.944-.823c-.52-.453-1.135-.824-1.367-.824-.232 0-.347.054-.256.121m26.037.805c-.837.89-.87 1.25-.87 9.377 0 8.356-.011 8.465-.965 9.575l-.964 1.122-9.136.218-9.135.218 8.44.082c12.718.124 12.16.646 12.16-11.372 0-7.966.034-8.331.87-9.22.478-.509.779-.926.669-.926-.11 0-.591.417-1.069.926m6.23-.13 1.3.792v47.554l-1.054.829c-.58.456-.881.829-.67.829.212 0 .776-.417 1.254-.926l.87-.926v-47.29l-1.054-.829c-.58-.456-1.255-.828-1.5-.828-.245.001.139.359.854.795m56 .03c.832.948.9 1.409.9 6.074 0 6.36.204 6.953 2.473 7.195.95.101 1.966.06 2.259-.09.293-.15-.337-.304-1.4-.342-2.77-.1-2.932-.468-2.932-6.67 0-5.229-.005-5.258-1.1-6.223l-1.1-.97.9 1.026M35.309 180c0 .99.078 1.395.173.9a5.661 5.661 0 0 0 0-1.8c-.095-.495-.173-.09-.173.9m57.627-.4c2.458 1.559 3.009 1.559.664 0-.99-.658-1.97-1.197-2.178-1.198-.208-.001.473.538 1.514 1.198m15.326-.469c-.696.77-.97 30.212-.327 35.069.146 1.1.265-6.249.265-16.332 0-17.685.027-18.352.776-18.9.428-.312.59-.568.362-.568-.228 0-.712.329-1.076.731m70.449-.108c.844.591.889.896.889 6 0 6.266 1.402 8.647 4.178 7.093.464-.259.24-.356-.822-.356-2.543 0-2.956-.969-2.956-6.942 0-5.125-.367-6.418-1.82-6.418-.197 0 .042.28.531.623m123.947.113c-.604.668-.656 2.378-.558 18.3l.109 17.564.095-17.569c.086-15.701.166-17.646.758-18.3.364-.402.572-.731.462-.731-.11 0-.5.331-.866.736m58.651 1.264c0 .99.078 1.395.173.9a5.661 5.661 0 0 0 0-1.8c-.095-.495-.173-.09-.173.9m-245.239 4c-.032 2.75.074 5.209.236 5.464.162.254.244-1.456.183-3.8-.168-6.493-.354-7.232-.419-1.664m106.813 3.94c-.089 7.909.238 9.577 2.069 10.528l.848.441-.84-.955c-1.493-1.694-1.557-2.046-1.777-9.754l-.217-7.6-.083 7.34M35.842 184c.322 3.374 1.259 8.752 1.289 7.4.014-.66-.317-3.09-.737-5.4-.419-2.31-.668-3.21-.552-2m324.638 1.827c-.264 1.995-.46 4.155-.435 4.8.025.645.293-.717.597-3.027.303-2.31.499-4.47.435-4.8-.065-.33-.333 1.032-.597 3.027M97.859 183.7c1.03 1.68 2.141 3.159 2.141 2.849 0-.441-1.944-3.349-2.238-3.349-.115 0-.071.225.097.5m-18.368 1.389c.71.088 1.97.09 2.8.003.83-.087.249-.159-1.291-.161-1.54-.002-2.219.069-1.509.158m-5.31 1.029c-4.122 2.245-5.623 4.861-3.894 6.782 1.027 1.142 3.746 2.945 4.913 3.259.619.167.43-.027-.496-.508-6.084-3.162-6.12-6.428-.104-9.303 1.32-.631 2.13-1.139 1.8-1.13-.33.01-1.329.415-2.219.9m10.591-.626c1.146.215 5.228 2.456 5.228 2.87 0 .157.279.634.619 1.062.56.702.561.655.007-.491-.703-1.454-4.391-3.763-5.875-3.679l-.951.055.972.183M61.693 188.4c0 .77.082 1.085.183.7.1-.385.1-1.015 0-1.4-.101-.385-.183-.07-.183.7m125.607 2.691c.825.087 2.175.087 3 0 .825-.086.15-.157-1.5-.157s-2.325.071-1.5.157m128.9.085c-.454.181.499.241 2.2.139 3.907-.233 4.481-.451 1.2-.455-1.43-.002-2.96.14-3.4.316m-221.889.317c.94.085 2.38.084 3.2-.002.819-.086.049-.155-1.711-.154-1.76.002-2.43.072-1.489.156m77.064 10.107c0 5.83.056 8.215.124 5.3s.068-7.685 0-10.6-.124-.53-.124 5.3M121 192.025c1.151.23 2.297.754 2.7 1.232.793.942.968.449.2-.563-.314-.412-1.32-.735-2.7-.863l-2.2-.206 2 .4m13.082-.006c-1.049.421-2.103 2.627-2.038 4.268.031.795.143.599.39-.687.664-3.453 6.108-5.324 7.566-2.601.294.55.619.916.721.813 1.457-1.456-3.884-2.899-6.639-1.793m22.81-.151c-.28.112-.775.719-1.1 1.348-.883 1.707-.715 1.886.322.343 1.189-1.77 5.082-2.261 5.894-.744.251.469.561.749.689.622 1.122-1.123-3.686-2.422-5.805-1.569m39.108.298c.55.294 1.45.646 2 .783s.28-.097-.6-.52c-1.81-.871-2.932-1.081-1.4-.263m67.834.364c-.569.568-1.029 1.267-1.022 1.552.007.285.209.158.45-.282 1.397-2.554 6.258-2.503 7.73.082.607 1.065.625 1.071.38.118-.631-2.45-5.591-3.418-7.538-1.47m23.15-.369c-.869.379-1.351.968-1.687 2.064-.6 1.955-.335 2.308.296.395.999-3.027 6.17-3.791 7.58-1.12.435.825.799 1.32.808 1.1.102-2.517-3.742-3.857-6.997-2.439m40.16.248c.959.435 1.859.783 2 .774.505-.033-2.557-1.55-3.144-1.557-.33-.005.185.348 1.144.783m32.557.991c.004.88.086 1.193.182.695.096-.497.092-1.217-.008-1.6-.1-.382-.179.025-.174.905m-322.408.6c0 .77.082 1.085.183.7.1-.385.1-1.015 0-1.4-.101-.385-.183-.07-.183.7m24.313.033c.003.752.171 1.628.373 1.946.237.375.286-.049.139-1.2-.283-2.209-.52-2.554-.512-.746m268.594-.581 1.999 1.749 1.599 1.399-1.199-1.334c-.659-.734-1.559-1.521-1.999-1.749-.44-.228-.62-.257-.4-.065m-128.622 1.9c.759.796 1.442 1.448 1.519 1.448.34 0-1.375-1.971-2.097-2.41-.44-.268-.18.165.578.962m-77.104 1.125c-.06 1.851-.241 2.394-.963 2.9-.489.343-.697.623-.462.623 1.11 0 1.795-1.52 1.647-3.656l-.148-2.144-.074 2.277M140.975 205c0 5.94.056 8.426.124 5.524s.068-7.762 0-10.8c-.068-3.038-.124-.664-.124 5.276m121.526-8.8c.004.88.086 1.193.182.695.096-.497.092-1.217-.008-1.6-.1-.382-.179.025-.174.905m96.813 1.2c.003 1.1.081 1.503.173.895.092-.609.09-1.509-.005-2-.095-.492-.171.005-.168 1.105m-321.6.8c.003 1.1.081 1.503.173.895.092-.609.09-1.509-.005-2-.095-.492-.171.005-.168 1.105m247.658 7.2c0 5.06.057 7.075.127 4.477.07-2.597.069-6.737-.001-9.2-.07-2.462-.127-.337-.126 4.723m-222.96-8.306c-.007.271.483 1 1.088 1.619.605.619.81.757.455.306a14.52 14.52 0 0 1-1.088-1.619c-.244-.44-.448-.578-.455-.306m208.959 8.506c0 4.95.057 6.975.128 4.5.07-2.475.07-6.525 0-9-.071-2.475-.128-.45-.128 4.5m-116.004-.8c0 4.29.059 6.045.131 3.9a140.86 140.86 0 0 0 0-7.8c-.072-2.145-.131-.39-.131 3.9m48.583-6.127c.461.92 1.056 1.807 1.321 1.971.265.164.059-.409-.459-1.273-1.351-2.258-1.843-2.656-.862-.698M293.773 207c0 5.5.057 7.805.126 5.123.069-2.682.069-7.182 0-10-.069-2.818-.125-.623-.126 4.877M82.8 198.6c.99.53 2.07.97 2.4.978.33.008-.363-.434-1.54-.982-2.712-1.262-3.221-1.26-.86.004m49.716 7.8c-.028 6.471.114 9.562.507 11 .3 1.1.442 1.46.315.8-.127-.66-.355-5.61-.507-11l-.276-9.8-.039 9m53.584-7.152c-.715.206-1.3.472-1.3.59 0 .119.399.089.886-.065.487-.155 1.792-.414 2.9-.577 1.91-.281 1.931-.297.414-.31-.88-.008-2.185.155-2.9.362m130.1.204c-.935.457-.979.523-.2.297 1.327-.384 5.052-.42 6.8-.065 1.319.268 1.308.253-.2-.269-2.078-.719-4.888-.703-6.4.037m18.609-.396c-.005.251.347 1.241.782 2.2.435.959.795 1.539.8 1.288.005-.251-.347-1.241-.782-2.2-.435-.959-.795-1.539-.8-1.288m-143.976.288c.092.079.707.264 1.367.412.876.196 1.038.159.6-.138-.54-.365-2.368-.62-1.967-.274m-99.416 1.865c1.264.665 2.363 1.144 2.443 1.065.204-.205-3.667-2.274-4.255-2.274-.267 0 .548.544 1.812 1.209m28.283-.933c.385.1 1.015.1 1.4 0 .385-.101.07-.183-.7-.183s-1.085.082-.7.183m74.932.478c.677.413 1.467 1.318 1.754 2.012.287.693.601 1.181.697 1.084.606-.606-2.154-3.853-3.272-3.849-.226.001.143.34.821.753m119.063-.488c-.277.112-.692.593-.922 1.069-.356.738-.34.772.105.236.287-.346.882-.836 1.322-1.088.797-.457.456-.603-.505-.217m11.701.603c.608.477 1.438 1.602 1.845 2.5.408.897.745 1.394.75 1.105.02-1.165-2.436-4.474-3.32-4.474-.208 0 .118.391.725.869m-258.794.272c.775.916 2.635 2.075 3.278 2.043.176-.009-.22-.301-.88-.649-.66-.348-1.649-1.015-2.197-1.484l-.997-.851.796.941m50.209-.154c-.268.322-.394.817-.28 1.1.127.317.218.241.237-.2.018-.392.437-.876.932-1.075.609-.244.69-.369.249-.387-.358-.014-.87.239-1.138.562m65.498.113c-5.427 6.173-1.989 20.686 4.843 20.45l1.448-.05-1.619-.266c-6.817-1.12-9.572-14.106-4.272-20.134.338-.385.525-.7.415-.7-.11 0-.477.315-.815.7m176.622 1.9c.002 1.54.074 2.121.161 1.291.087-.83.085-2.09-.003-2.8-.089-.71-.16-.031-.158 1.509m-153.069-.4c.134.88.31 1.675.391 1.767.303.343.076-1.799-.272-2.567-.252-.558-.288-.315-.119.8m105.317 1.1c-.893 1.194-.977 1.69-1.031 6.1l-.059 4.8.263-4.866c.192-3.563.432-5.063.895-5.6.73-.848 1.267-1.734 1.052-1.734-.082 0-.586.585-1.12 1.3M38.124 205c.002 1.32.077 1.812.166 1.093.089-.719.087-1.799-.004-2.4s-.164-.013-.162 1.307m78.035 3.8c0 3.19.062 4.495.138 2.9a73.8 73.8 0 0 0 0-5.8c-.076-1.595-.138-.29-.138 2.9m-39.823-3.6c1.395.66 2.745 1.2 3 1.2.255 0-.677-.54-2.072-1.2-1.395-.66-2.745-1.2-3-1.2-.255 0 .677.54 2.072 1.2m260.506 4.8c-.053 3.701-.269 5.903-.686 7-1.014 2.666-1.067 3.305-.116 1.4.902-1.807 1.536-9.361 1.057-12.6-.097-.66-.212 1.23-.255 4.2m-130.288 0c0 2.75.064 3.875.142 2.5a53.448 53.448 0 0 0 0-5c-.078-1.375-.142-.25-.142 2.5m8.42 5.2c0 5.61.056 7.905.125 5.1a251.33 251.33 0 0 0 0-10.2c-.069-2.805-.125-.51-.125 5.1m-17.224-5c.001 2.42.066 3.358.146 2.085.08-1.273.079-3.253-.002-4.4-.08-1.147-.145-.105-.144 2.315m130.4 0c.001 2.42.066 3.358.146 2.085.08-1.273.079-3.253-.002-4.4-.08-1.147-.145-.105-.144 2.315m-246.117-3.256c.092.079.707.264 1.367.412.876.196 1.038.159.6-.138-.54-.365-2.368-.62-1.967-.274m142.889.638c-1.882 1.148-2.185 2.733-2.033 10.618l.132 6.8.089-7.12c.137-10.821-.298-10.408 11.25-10.695l8.64-.216-8.4-.083c-7.707-.076-8.505-.019-9.678.696m19.34.258c1.686.832 1.726 1.081 1.733 10.785.005 8.558.305 10.175 1.89 10.175.14 0-.127-.406-.593-.902-.805-.857-.854-1.37-.97-10.036-.132-9.845-.342-10.685-2.666-10.653-.361.005-.088.289.606.631m114.262 2.36c.002 1.32.077 1.812.166 1.093.089-.719.087-1.799-.004-2.4s-.164-.013-.162 1.307m-320.023-.4c.004.88.086 1.193.182.695.096-.497.092-1.217-.008-1.6-.1-.382-.179.025-.174.905m50.332-.451c.412.368 2.767 1.451 2.767 1.272 0-.231-2.218-1.421-2.647-1.421-.157 0-.211.067-.12.149M100.94 214c0 1.87.069 2.635.153 1.7.084-.935.084-2.465 0-3.4s-.153-.17-.153 1.7m-62.071-1.6c-.013.55.126 1.72.308 2.6.212 1.026.339 1.241.354.6.013-.55-.126-1.72-.308-2.6-.212-1.026-.339-1.241-.354-.6m24.638.69c.719.089 1.799.087 2.4-.004s.013-.164-1.307-.162c-1.32.002-1.812.077-1.093.166m199.413 1.71c0 1.21.075 1.705.167 1.1a8.899 8.899 0 0 0 0-2.2c-.092-.605-.167-.11-.167 1.1m-202.697-.711c-1.162 1.659 1.178 9.111 2.861 9.111.191 0-1.52-3.083-2.546-4.589-1.112-1.631-.503-4.574 1.062-5.133.485-.174.47-.221-.077-.246-.373-.018-.958.368-1.3.857m32.107 1.129c-.369.87-.599 1.582-.511 1.582.294 0 1.431-2.449 1.305-2.809-.068-.195-.426.358-.794 1.227m62.154.659c-.763 2.546-2.594 4.763-4.352 5.269-1.514.435-1.516.438-.151.241 2.13-.307 5.707-4.922 5.139-6.628-.087-.261-.373.242-.636 1.118m8.436.523c0 1.21.075 1.705.167 1.1a8.899 8.899 0 0 0 0-2.2c-.092-.605-.167-.11-.167 1.1m-94.502-1.359c-.04.985 1.922 3.216 3.597 4.09 1.902.993 1.265.323-.758-.797-.662-.366-1.567-1.356-2.012-2.2-.445-.844-.818-1.336-.827-1.093m103.275.959c0 .77.082 1.085.183.7.1-.385.1-1.015 0-1.4-.101-.385-.183-.07-.183.7m24.965.505c-.387 1.011-1.117 1.994-1.769 2.379-.611.361-1.466 1.059-1.9 1.552-.434.492.15.202 1.298-.646 1.846-1.363 3.76-4.276 3.187-4.849-.087-.087-.455.616-.816 1.564m113.742-1.486c0 1.435 5.116 6.798 5.817 6.098.096-.096-.551-.582-1.438-1.081-1.084-.609-2.011-1.614-2.833-3.071-1.122-1.987-1.546-2.521-1.546-1.946m47.429 2.61c-.153 1.35-.196 2.537-.096 2.638.101.1.311-.92.467-2.267.156-1.347.199-2.534.095-2.638-.104-.104-.314.916-.466 2.267m-151.775-1.162c-.029.587-.694 2.272-1.475 3.745-.782 1.474-1.355 2.745-1.274 2.826.384.384 3.15-5.806 2.985-6.68-.174-.918-.183-.914-.236.109m-89.254.259c0 .541 3.405 3.671 5.436 4.998 2.788 1.82 3.094 6.287.465 6.794l-.901.173.877.055c1.244.077 2.123-1.4 2.123-3.565 0-2.002-.511-2.682-3.251-4.319-.799-.477-2.194-1.672-3.1-2.656-.907-.983-1.649-1.65-1.649-1.48m167.286 1.135c-.247.804-.29 1.299-.096 1.1.392-.4.999-2.561.72-2.561-.096 0-.378.658-.624 1.461M39.669 217.6c-.013.55.126 1.72.308 2.6.212 1.026.339 1.241.354.6.013-.55-.126-1.72-.308-2.6-.212-1.026-.339-1.241-.354-.6m51.325.009c-.534.865-5.296 2.925-7.394 3.199l-2.2.287 1.811.053c1.309.037 2.586-.319 4.6-1.285 2.346-1.125 4.461-2.663 3.662-2.663-.124 0-.34.184-.479.409m172.219.083c-.014.73 1.201 4.027 1.408 3.82.066-.066-.22-1.109-.637-2.316-.417-1.208-.764-1.885-.771-1.504m8.788-.372c-.009 1.929 3.057 4.309 5.446 4.227 1.55-.054 1.549-.054-.322-.316-2.002-.28-3.189-1.101-4.381-3.031-.407-.66-.742-1.056-.743-.88m-99.993.761c.009.539 3.169 6.334 3.184 5.838.004-.155-.712-1.648-1.592-3.319-.88-1.671-1.596-2.804-1.592-2.519m153.083 1.062c-.93.848-1.961 1.644-2.291 1.768-.533.201-.533.228 0 .242.33.008 1.472-.788 2.539-1.769 1.066-.981 1.827-1.784 1.691-1.784-.136 0-1.009.694-1.939 1.543m-183.491-.801c0 .361 2.633 2.858 3.014 2.858.392 0 .135-.319-1.414-1.752-.88-.814-1.6-1.312-1.6-1.106m150.825 2.141c-.31.724-.636 1.497-.724 1.717-.089.22.228-.182.704-.894.476-.711.802-1.484.725-1.717-.078-.233-.395.169-.705.894M282.2 220.4c-.66.437-.995.796-.744.797.437.003 2.555-1.559 2.144-1.581-.11-.006-.74.347-1.4.784m-207.2.178c.66.322 1.92.57 2.8.551l1.6-.036-1.8-.304c-.99-.168-2.25-.416-2.8-.551-.838-.207-.805-.152.2.34m34.2.48c0 .216.585.921 1.3 1.567l1.3 1.175-1.2-1.398c-.66-.769-1.245-1.474-1.3-1.567-.055-.092-.1.008-.1.223m248.101 1.142c.004.88.086 1.193.182.695.096-.497.092-1.217-.008-1.6-.1-.382-.179.025-.174.905m-211.601-.724c.385.1 1.015.1 1.4 0 .385-.101.07-.183-.7-.183s-1.085.082-.7.183m44.4 0c.385.1 1.015.1 1.4 0 .385-.101.07-.183-.7-.183s-1.085.082-.7.183m127.405.007c.497.096 1.217.092 1.6-.008.382-.1-.025-.179-.905-.174-.88.004-1.193.086-.695.182m-218.753.92c-.356.208-.952.878-1.324 1.488L96.753 225l.846-.973c.466-.535 1.152-1.204 1.524-1.487.791-.601.566-.684-.371-.137m62.123.781c-.481.651-.875 1.316-.875 1.478 0 .161.45-.317 1-1.062.55-.745 1-1.41 1-1.478 0-.327-.325-.02-1.125 1.062m-120.382.416c0 .77.082 1.085.183.7.1-.385.1-1.015 0-1.4-.101-.385-.183-.07-.183.7m161.233.977c-1.858 1.324-3.831 3.023-3.512 3.023.152 0 .841-.456 1.531-1.014 3.263-2.637 3.642-2.959 3.455-2.939-.11.012-.773.43-1.474.93m129.493.68c-1.199.909-2.729 1.988-3.4 2.397-.67.408-1.019.744-.774.745.395.001 5.351-3.462 6.335-4.427.867-.849-.119-.263-2.161 1.285m25.682.143c.004.88.086 1.193.182.695.096-.497.092-1.217-.008-1.6-.1-.382-.179.025-.174.905M65.2 224.923c0 .364 4.539 3.077 5.147 3.077.315 0-.257-.441-1.271-.98-1.014-.539-2.3-1.28-2.86-1.646-.559-.366-1.016-.569-1.016-.451m92.605 1.642c-.877.86-1.237 1.372-.8 1.136.889-.478 2.825-2.442 2.563-2.599-.092-.056-.886.602-1.763 1.463m18.749-1.271c.414.278 1.314.95 2 1.492 1.203.952 1.219.954.447.059-.44-.51-1.34-1.181-2-1.492-.709-.333-.892-.357-.447-.059m-38.887 1.606c.911.91 1.862 1.486 2.418 1.466.792-.03.758-.082-.248-.383-.639-.191-1.727-.85-2.417-1.465-.69-.615-.579-.443.247.382m85.533-.989c0 .391-.284 1.156-.632 1.7l-.632.989.832-.944c.741-.841 1.156-2.456.632-2.456-.11 0-.2.32-.2.711m85.398.426c.436.515 1.155 1.122 1.598 1.349.849.435.725.301-1.193-1.292-1.155-.959-1.169-.961-.405-.057M40.92 228c0 1.21.075 1.705.167 1.1a8.899 8.899 0 0 0 0-2.2c-.092-.605-.167-.11-.167 1.1m52.427-1.587c-.228.228-1.299.759-2.38 1.182-1.082.422-1.697.772-1.367.778.816.013 3.836-1.384 4.174-1.931.344-.556.116-.572-.427-.029m22.34.887c.619.605 1.348 1.095 1.619 1.088.272-.007.134-.211-.306-.455a14.52 14.52 0 0 1-1.619-1.088c-.451-.355-.313-.15.306.455m152.133-.792c.294.766 2.15 2.055 2.481 1.724.128-.128.047-.232-.18-.232-.226 0-.893-.481-1.48-1.068-.588-.588-.957-.779-.821-.424M216 228.344c.755.633 1.49.823 3 .775l2-.063-1.951-.152c-1.073-.084-2.423-.433-3-.775l-1.049-.624 1 .839m140.493.456c0 .77.082 1.085.183.7.1-.385.1-1.015 0-1.4-.101-.385-.183-.07-.183.7m-202.293-.4c-1.107.282-1.123.309-.2.347.55.022 1.27-.134 1.6-.347.681-.44.329-.44-1.4 0m-80.5.276c.385.1 1.015.1 1.4 0 .385-.101.07-.183-.7-.183s-1.085.082-.7.183m12.205.007c.497.096 1.217.092 1.6-.008.382-.1-.025-.179-.905-.174-.88.004-1.193.086-.695.182m-7.205.41c.935.084 2.465.084 3.4 0s.17-.153-1.7-.153c-1.87 0-2.635.069-1.7.153m66.816.004c1.383.078 3.543.077 4.8-.002 1.256-.079.124-.143-2.516-.142-2.64 0-3.668.065-2.284.144m41.184-.002c1.155.081 3.045.081 4.2 0 1.155-.081.21-.147-2.1-.147s-3.255.066-2.1.147m62.605-.008c.609.092 1.509.09 2-.005.492-.095-.005-.171-1.105-.168-1.1.003-1.503.081-.895.173m27.011.01c1.383.078 3.543.077 4.8-.002 1.256-.079.124-.143-2.516-.142-2.64 0-3.668.065-2.284.144m41.184-.002c1.155.081 3.045.081 4.2 0 1.155-.081.21-.147-2.1-.147s-3.255.066-2.1.147m38.624 4.305c.002 1.32.077 1.812.166 1.093.089-.719.087-1.799-.004-2.4s-.164-.013-.162 1.307m-314.804 1c0 1.21.075 1.705.167 1.1a8.899 8.899 0 0 0 0-2.2c-.092-.605-.167-.11-.167 1.1m314.408 6.4c0 1.43.073 2.015.161 1.3.089-.715.089-1.885 0-2.6-.088-.715-.161-.13-.161 1.3m-314.053 0c-.008.55.223 2.35.512 4 .29 1.65.535 2.46.545 1.8.011-.66-.22-2.46-.512-4-.292-1.54-.537-2.35-.545-1.8m313.579 5.088c-.029.928-.336 3.588-.681 5.91-.345 2.323-.565 4.533-.489 4.912.077.38.471-1.83.876-4.91s.649-6.05.543-6.6c-.132-.679-.212-.459-.249.688m-312.39 3.539c-.035.895-.346 2.578-.691 3.74-.345 1.161-.547 2.192-.449 2.29.372.372 1.534-4.924 1.373-6.258-.168-1.392-.169-1.391-.233.228m310.845 9.773c0 .99.078 1.395.173.9a5.661 5.661 0 0 0 0-1.8c-.095-.495-.173-.09-.173.9m-313.267 1.4c-.027.44-.502 1.771-1.054 2.958-.553 1.187-.937 2.226-.855 2.308.311.312 2.314-4.718 2.141-5.377-.15-.568-.19-.549-.232.111m27.958.297c-.99.227-1.62.473-1.4.547.22.074 1.39-.111 2.6-.41 2.546-.631 1.488-.751-1.2-.137m6 .294c2.804.34 7.439.506 7.167.256-.092-.084-2.327-.247-4.967-.362-3.353-.145-4.016-.114-2.2.106m9.911.702c.94.085 2.38.084 3.2-.002.819-.086.049-.155-1.711-.154-1.76.002-2.43.072-1.489.156m268.982.907c0 .77.082 1.085.183.7.1-.385.1-1.015 0-1.4-.101-.385-.183-.07-.183.7m-259.78-.505c1.163.081 2.963.081 4-.002 1.038-.082.087-.148-2.113-.147-2.2.001-3.049.068-1.887.149m9.578.394c.71.088 1.97.09 2.8.003.83-.087.249-.159-1.291-.161-1.54-.002-2.219.069-1.509.158m6.209.398a8.899 8.899 0 0 0 2.2 0c.605-.092.11-.167-1.1-.167-1.21 0-1.705.075-1.1.167M59 264.21c-.88.542-1.42.981-1.2.975.22-.005 1.12-.453 2-.995.88-.542 1.42-.981 1.2-.975-.22.005-1.12.453-2 .995m55.105-.723c.609.092 1.509.09 2-.005.492-.095-.005-.171-1.105-.168-1.1.003-1.503.081-.895.173m3.128.265c.092.084 1.967.249 4.167.366 2.891.155 3.39.123 1.8-.112-2.322-.345-6.249-.512-5.967-.254m9.467.937c.715.089 1.885.089 2.6 0 .715-.088.13-.161-1.3-.161-1.43 0-2.015.073-1.3.161m6.4.4c.715.089 1.885.089 2.6 0 .715-.088.13-.161-1.3-.161-1.43 0-2.015.073-1.3.161m8.6.405a29.38 29.38 0 0 0 3.8 0c1.045-.082.19-.15-1.9-.15s-2.945.068-1.9.15m211.224 1.906c.002 1.32.077 1.812.166 1.093.089-.719.087-1.799-.004-2.4s-.164-.013-.162 1.307M53.6 266.2c-1.306.747-.849.755.854.016.74-.322 1.076-.585.746-.586-.33-.001-1.05.256-1.6.57m98.291-.311c.71.088 1.97.09 2.8.003.83-.087.249-.159-1.291-.161-1.54-.002-2.219.069-1.509.158m6.016.401c.719.089 1.799.087 2.4-.004s.013-.164-1.307-.162c-1.32.002-1.812.077-1.093.166m4.998.397c.609.092 1.509.09 2-.005.492-.095-.005-.171-1.105-.168-1.1.003-1.503.081-.895.173m7.295.528c3.475.432 6.408.404 3.6-.033-1.1-.172-2.9-.301-4-.288l-2 .024 2.4.297m7.1.676c.825.087 2.175.087 3 0 .825-.086.15-.157-1.5-.157s-2.325.071-1.5.157m8.412.404c1.052.082 2.672.081 3.6-.003.928-.084.068-.151-1.912-.15-1.98.001-2.74.07-1.688.153m10.4.4c1.052.082 2.672.081 3.6-.003.928-.084.068-.151-1.912-.15-1.98.001-2.74.07-1.688.153m7.395.395c.719.089 1.799.087 2.4-.004s.013-.164-1.307-.162c-1.32.002-1.812.077-1.093.166M44.6 270.19c-.88.542-1.441.991-1.247.998.402.014 3.047-1.566 3.047-1.821 0-.268-.116-.215-1.8.823m163.9-.703a8.899 8.899 0 0 0 2.2 0c.605-.092.11-.167-1.1-.167-1.21 0-1.705.075-1.1.167m7.9.738c2.53.287 5.32.511 6.2.497.88-.014-.47-.26-3-.547-2.53-.287-5.32-.511-6.2-.497-.88.014.47.26 3 .547m-178.388.426c-.02.757 1.091 1.421 2.066 1.234.832-.159.817-.181-.158-.231-.594-.029-1.264-.369-1.488-.754-.224-.385-.413-.497-.42-.249m187.688.44c.825.087 2.175.087 3 0 .825-.086.15-.157-1.5-.157s-2.325.071-1.5.157m8.213.404c1.163.081 2.963.081 4-.002 1.038-.082.087-.148-2.113-.147-2.2.001-3.049.068-1.887.149m10.398.398c.94.085 2.38.084 3.2-.002.819-.086.049-.155-1.711-.154-1.76.002-2.43.072-1.489.156m7.196.397c.719.089 1.799.087 2.4-.004s.013-.164-1.307-.162c-1.32.002-1.812.077-1.093.166m5.2.4c.719.089 1.799.087 2.4-.004s.013-.164-1.307-.162c-1.32.002-1.812.077-1.093.166m6.493.491c1.43.179 4.31.425 6.4.545 2.996.173 3.292.149 1.4-.114-1.32-.184-4.2-.429-6.4-.545-3.19-.169-3.473-.146-1.4.114m88.862 1.969c-.34 1.134-.793 1.69-1.677 2.056-.666.276-1.132.581-1.035.677.097.097.717-.104 1.38-.447 1.087-.562 2.484-3.155 1.974-3.665-.097-.097-.385.523-.642 1.379m-76.951-.857c.94.085 2.38.084 3.2-.002.819-.086.049-.155-1.711-.154-1.76.002-2.43.072-1.489.156m8.201.402c1.052.082 2.672.081 3.6-.003.928-.084.068-.151-1.912-.15-1.98.001-2.74.07-1.688.153m13.788.394c.715.089 1.885.089 2.6 0 .715-.088.13-.161-1.3-.161-1.43 0-2.015.073-1.3.161m6.007.401c.719.089 1.799.087 2.4-.004s.013-.164-1.307-.162c-1.32.002-1.812.077-1.093.166m4.993.397a8.899 8.899 0 0 0 2.2 0c.605-.092.11-.167-1.1-.167-1.21 0-1.705.075-1.1.167m3.933.265c.092.084 1.967.249 4.167.366 2.891.155 3.39.123 1.8-.112-2.322-.345-6.249-.512-5.967-.254m9.474.938c.719.089 1.799.087 2.4-.004s.013-.164-1.307-.162c-1.32.002-1.812.077-1.093.166m6.404.403c.94.085 2.38.084 3.2-.002.819-.086.049-.155-1.711-.154-1.76.002-2.43.072-1.489.156m8.789.402c1.155.081 3.045.081 4.2 0 1.155-.081.21-.147-2.1-.147s-3.255.066-2.1.147m9.405.392c.609.092 1.509.09 2-.005.492-.095-.005-.171-1.105-.168-1.1.003-1.503.081-.895.173"/><path fill="#9494ac" d="M360.718 127.415c-.255.256-11.586.988-21.518 1.391-5.61.227-13.8.761-18.2 1.186-12.278 1.187-17.527 1.554-28.6 2.003-5.61.227-11.01.504-12 .614-.99.111-4.32.385-7.4.609-3.08.224-7.76.586-10.4.805-2.64.219-10.38.658-17.2.976-6.82.318-17.08 1.03-22.8 1.583-5.72.552-16.334 1.281-23.588 1.619-7.253.338-15.623.875-18.6 1.193-10.368 1.109-15.075 1.437-28.8 2.01-7.597.316-17.322.929-21.612 1.362-4.29.433-11.49.98-16 1.216-20.642 1.08-24.119 1.297-28.998 1.809-5.748.603-20.235 1.563-33.252 2.203-19.811.975-19.397.652-17.78 13.899.424 3.469.888 8.377 1.032 10.907.287 5.039.515 7.039 1.755 15.4.457 3.08 1.093 9.29 1.413 13.8.32 4.51.943 10.45 1.384 13.2 1.01 6.299 1.572 11.721 2.029 19.6.198 3.41.675 8.32 1.06 10.911.693 4.666.691 4.741-.154 7.8a130.075 130.075 0 0 0-1.486 6.03c-.347 1.618-1.058 3.784-1.58 4.813-3.12 6.158-.511 9.158 5.105 5.867.955-.559 2.802-1.379 4.104-1.822 1.302-.442 3.178-1.234 4.168-1.759.99-.525 2.409-1.083 3.154-1.241.745-.157 2.545-.886 4-1.618 5.411-2.724 9.369-3.382 16.679-2.772 3.502.292 11.407.735 17.567.983 9.857.399 17.562.948 33.512 2.389 2.372.215 9.032.578 14.8.807 10.596.421 24.275 1.309 30.888 2.005 1.98.209 8.1.566 13.6.793 13.183.546 21.512 1.091 31 2.03 4.29.424 13.85 1.043 21.244 1.375 7.394.332 17.744.973 23 1.424 15.039 1.291 18.582 1.52 27.756 1.792 7.815.231 21.528 1.148 32.4 2.166 10.572.99 26.043 1.329 27.646.606 1.958-.883 2.752-3.055 2.759-7.55.005-3.07 1.107-14.008 1.963-19.481.219-1.401.59-5.698.824-9.548.516-8.499.985-13.519 2.001-21.4.426-3.3.965-9.69 1.198-14.2.373-7.216 1.176-15.496 2.384-24.6.205-1.54.567-6.04.806-10 .469-7.773 1.419-17.863 2.015-21.4 1.316-7.805 1.605-19.538.504-20.466-.685-.577-3.531-1.57-3.782-1.319m1.811 1.623 1.871.637v3.536c0 1.945-.273 4.832-.606 6.416-.66 3.138-1.499 12.093-2.189 23.373-.243 3.96-.701 8.73-1.019 10.6-.804 4.726-1.708 14.755-2.163 24-.212 4.29-.657 9.42-.99 11.4-.633 3.769-1.538 13.819-2.25 25-.231 3.63-.585 7.23-.787 8-.472 1.799-1.453 11.6-1.983 19.8-.75 11.616-.777 11.828-1.62 12.9-.436.554-.793 1.234-.793 1.511 0 1.156-9.35 1.141-17.8-.028-4.365-.604-12.345-1.108-28.4-1.794-11.133-.475-17.836-.921-23.6-1.569-4.095-.46-19.9-1.403-33.8-2.017-5.17-.228-10.66-.587-12.2-.797-4.995-.683-20.556-1.718-36.2-2.407-4.95-.218-13.14-.745-18.2-1.172-5.06-.426-13.34-.975-18.4-1.219-18.025-.869-23.26-1.202-27.8-1.765-4.103-.509-9.598-.849-36.2-2.241-3.96-.208-9.45-.638-12.2-.956-11.328-1.312-18.224-1.201-19.994.321-.333.287-1.847.851-3.365 1.253-1.517.402-3.227 1.118-3.8 1.592-.572.474-1.918 1.078-2.99 1.343-1.072.265-2.841.933-3.932 1.486-1.09.553-3.113 1.354-4.496 1.781-1.382.427-2.971 1.136-3.531 1.577-2.013 1.583-3.892 1.112-3.892-.975 0-.977.198-1.899.441-2.049.738-.457 1.537-2.799 1.952-5.727.217-1.53.767-3.412 1.222-4.183 1.633-2.768 1.689-10.555.138-19.065-.341-1.87-.789-5.83-.995-8.8-.704-10.135-1.585-18.997-2.163-21.76-.318-1.517-.763-5.387-.989-8.6-.523-7.44-1.544-17.807-2.021-20.533-1.114-6.364-2.547-23.239-2.151-25.345.371-1.979 1.151-2.228 8.138-2.596 3.424-.18 8.657-.601 11.627-.936 2.971-.335 12.781-.99 21.801-1.456 9.02-.466 18.47-1.101 21-1.411 2.53-.31 9.73-.833 16-1.163 18.715-.984 29.909-1.771 33.969-2.386 2.107-.32 9.321-.771 16.031-1.003 12.749-.44 26.106-1.316 30.2-1.98 1.32-.214 6.63-.586 11.8-.825 14.444-.67 28.097-1.571 33.4-2.206 2.64-.316 8.76-.761 13.6-.989 13.87-.653 28.935-1.599 32.076-2.015 1.581-.21 8.151-.654 14.6-.986 26.057-1.345 29.044-1.548 35.524-2.415 2.31-.309 8.97-.769 14.8-1.022 5.83-.254 10.675-.531 10.767-.617.268-.251.587-.191 2.562.482M76.6 175.974l-4.685.954c-4.455.906-8.749 3.911-10.046 7.031-2.357 5.666-2.576 8.546-.926 12.153.581 1.272 1.057 2.481 1.057 2.687 0 .316 1.855 1.855 5.224 4.332.397.292 1.762.802 3.032 1.134 1.27.332 2.991.951 3.824 1.376.834.425 3.091 1.144 5.018 1.597 1.926.453 3.862 1.048 4.302 1.324.44.275 2.033.846 3.541 1.269 2.574.722 2.796.878 3.652 2.557l.911 1.788-.828 1.705c-2.626 5.404-18.539 4.65-20.896-.99-1.127-2.698-1.499-2.891-5.567-2.891-4.773 0-5.413.487-5.412 4.116 0 1.624.242 2.913.7 3.724 1.828 3.242 3.233 4.979 4.699 5.811.88.5 2.044 1.319 2.587 1.821.636.587 2.063 1.133 4 1.532 1.657.34 3.935.817 5.061 1.059 4.805 1.032 16.632-.664 18.665-2.676.488-.483 1.273-.999 1.745-1.147 1.41-.439 4.444-3.992 4.92-5.76.239-.887.701-2.123 1.026-2.747 1.098-2.104.812-4.98-.968-9.733-1.465-3.912-6.096-7.442-11.236-8.562-1.65-.36-3.901-1.1-5.002-1.644-1.101-.545-3.441-1.292-5.2-1.661-1.759-.369-3.479-.906-3.822-1.195-.343-.288-1.423-.952-2.4-1.474-1.976-1.058-2.444-3.727-.861-4.909 3.902-2.916 15.694-2.022 17.08 1.295 1.354 3.24 10.077 3.564 11.185.416.499-1.421-.671-6.193-1.734-7.066-.401-.33-.838-.907-.969-1.283-.131-.376-.925-1.116-1.764-1.646-.839-.529-1.754-1.239-2.034-1.576-.467-.562-1.629-.917-7.479-2.285-2.606-.61-8.367-.851-10.4-.436m139.151 1.401c-2.675 1.164-2.552-.106-2.538 26.214.013 22.216.061 23.868.724 24.661 1.733 2.074 5.326 2.751 8.206 1.548 2.604-1.088 2.721-1.556 2.793-11.14.084-11.248-.851-10.258 9.69-10.258h8.103l1.06 1.26 1.06 1.259-.082 8.067c-.09 8.887.071 9.593 2.473 10.834 2.558 1.323 7.701.145 8.672-1.987.971-2.131.673-47.889-.32-49.152-1.719-2.185-7.728-2.436-9.757-.407l-1.035 1.035v16.141l-1.178 1.128-1.177 1.129h-16.24l-.7-1.154c-.606-.997-.701-2.241-.703-9.183-.002-7.901-.017-8.045-.938-8.91-1.737-1.631-5.654-2.155-8.113-1.085m-125.151.813c6.284 2.016 11.852 9.76 9.039 12.573-1.896 1.896-7.781 1.028-9.053-1.336-3.441-6.395-19.156-5.289-20.392 1.434-.407 2.217 3.301 4.85 8.381 5.95 1.087.236 3.16.948 4.608 1.584 1.448.635 3.619 1.284 4.825 1.443 4.968.651 11.399 5.159 12.502 8.764.63 2.058.608 9.103-.035 11.283-.828 2.805-3.448 5.123-8.688 7.688-5.21 2.55-19.837 1.863-24.514-1.151-1.25-.805-2.563-1.574-2.917-1.708-1.169-.443-4.756-6.752-4.756-8.366 0-2.409.988-3.211 4.222-3.429 3.269-.22 3.766.049 5.309 2.878 3.742 6.862 19.255 6.955 22.856.137l.987-1.868-.897-1.796c-1.009-2.021-5.123-4.104-10.477-5.306-1.43-.321-3.77-1.104-5.2-1.74-1.43-.635-3.595-1.355-4.81-1.598-2.211-.443-3.019-.865-6.39-3.338-3.509-2.573-4.754-8.511-3.03-14.444 1.1-3.781 6.085-7.553 10.854-8.213 4.143-.573 15.138-.224 17.576.559m17.013.063-1.249 1.051.118 18.849c.117 18.702.125 18.861 1.018 20.443.495.877.9 1.967.9 2.422 0 1.022 1.346 2.889 3.189 4.426.765.637 1.725 1.489 2.136 1.893.934.921 3.806 2.245 4.895 2.256.451.005.991.166 1.2.358 2.185 2.01 5.297.215 5.656-3.261.446-4.321-.121-5.306-4.282-7.432-2.557-1.308-3.774-4.184-4-9.456-.311-7.262.346-8.6 4.222-8.6 3.536 0 4.334-1.053 4.105-5.419-.21-3.995-.826-4.981-3.112-4.981-.806 0-2.295-.282-3.307-.627l-1.841-.627-.131-5.333c-.168-6.87-.269-7.013-4.961-7.013-2.987 0-3.429.102-4.556 1.051m63.976-.323-.989.802v19.135c0 20.956.142 22.414 2.387 24.523.557.523 1.013 1.147 1.013 1.386 0 .578 1.918 2.626 2.459 2.626.234 0 .779.448 1.21.996.488.621 1.641 1.239 3.057 1.639 1.251.352 3.045.894 3.988 1.203 2.272.745 5.891.712 8.54-.078 1.18-.352 3.046-.905 4.146-1.228 1.948-.574 2.494-.961 5.4-3.834 4.177-4.129 4.602-5.563 4.594-15.498-.006-7.285-.065-7.919-.907-9.6-2.352-4.702-5.153-7.357-9.551-9.053-2.063-.796-11.371-1.099-13.205-.43-1.9.694-2.439-.773-2.222-6.048.265-6.422-.171-7.005-5.385-7.205-3.075-.119-3.676-.031-4.535.664m130.721-.104c-1.894 1.027-1.91 1.191-1.91 19.108 0 15.397.07 17.221.746 19.526.41 1.398.95 3.262 1.2 4.142.428 1.511 1.696 3.007 5.689 6.712 2.921 2.71 12.491 4.318 16.379 2.752.542-.218 1.833-.613 2.867-.877 5.816-1.485 10.622-8.656 11.001-16.415.271-5.538-.394-11.327-1.471-12.818-.415-.575-1.024-1.655-1.353-2.4-1.162-2.633-2.767-3.969-8.019-6.675-1.445-.745-9.82-1.148-11.891-.573-1.122.311-1.735.266-2.7-.201l-1.248-.605v-10.229l-1.231-1.035c-1.467-1.235-6.106-1.472-8.059-.412m-80.133.724 1.023.67v8.211c0 12.359-.506 11.857 11.791 11.693l9.08-.122.964-1.122c.955-1.111.965-1.213.965-9.665v-8.542l1.282-1.078c1.536-1.293 4.448-1.249 6.248.094l1.07.799.103 23.784.103 23.785-.964.905c-1.753 1.647-5.479 1.626-7.031-.04-.761-.817-.811-1.39-.816-9.295-.008-12.229.798-11.425-11.466-11.425-11.739 0-11.429-.316-11.325 11.543.038 4.321.053 8.085.033 8.363-.152 2.081-5.678 2.791-7.506.963l-1.131-1.13.106-23.879.106-23.879 1.294-.813c1.537-.965 4.455-.879 6.071.18M115.6 178.8c.711.711.8 1.333.8 5.574 0 6.908-.071 6.805 5.138 7.448 2.502.308 3.262 1.451 3.262 4.903 0 2.56-.659 3.108-4.355 3.617-3.923.541-3.823.366-3.977 6.968-.206 8.856.537 10.837 5.081 13.552 2.74 1.637 3.251 2.317 3.251 4.319 0 8.17-14.298 2.155-16.269-6.844-.877-4.005-1.291-38.021-.474-39.005 1.279-1.542 6.187-1.888 7.543-.532m63.571.173c.755.684.829 1.199.829 5.8 0 6.734.917 7.997 4.808 6.624 4.55-1.605 13.65.37 16.963 3.683 6.608 6.609 6.793 25.124.296 29.668a46.94 46.94 0 0 0-2.2 1.683c-3.774 3.072-15.058 3.8-19.681 1.27-5.853-3.203-8.022-6.667-8.669-13.843-.667-7.401-.056-34.241.801-35.188.93-1.028 5.61-.821 6.853.303m130.303-.103c.877.823.926 1.149.926 6.123 0 6.677 1.239 8.029 5.726 6.253 6.216-2.461 16.236 1.829 19.08 8.168 3.217 7.169 2.804 15.736-1.122 23.305-2.563 4.94-10.793 7.506-19.559 6.096-3.902-.627-4.641-1.01-7.643-3.966-4.804-4.73-4.85-4.991-4.868-27.92L302 179.658l1.054-.829c1.514-1.191 5.134-1.168 6.42.041m-175.372 11.92c-3.02.717-3.156 1.477-2.902 16.21.188 10.901.253 11.708 1.077 13.4.482.99.998 2.34 1.147 3 .401 1.774 4.161 5.261 6.267 5.81.94.246 2.597.704 3.682 1.018 2.517.73 6.387.732 8.881.005a196.6 196.6 0 0 1 3.724-1.04c2.202-.584 6.474-4.842 7.149-7.125 1.145-3.872 1.875-25.815.967-29.068-.676-2.424-4.988-3.357-8.386-1.815-2.149.976-2.126.828-2.228 14.415-.09 11.909-.184 12.357-2.959 13.993-2.339 1.381-4.349.983-6.772-1.339l-1.934-1.853-.088-10.901c-.049-5.995-.097-11.488-.108-12.206-.035-2.382-3.362-3.49-7.517-2.504m131.298-.208c-.22.082-.907.26-1.526.397-2.034.45-2.274 1.812-2.274 12.919 0 11.026.454 16.081 1.607 17.902.418.66 1.011 1.74 1.319 2.4.924 1.981 4.296 4.841 6.093 5.168.87.158 2.352.545 3.295.86 4.282 1.429 13.167-.218 15.895-2.946 4.479-4.479 4.977-6.697 4.985-22.213l.006-12.331-1.169-1.169c-1.272-1.271-2.879-1.473-6.37-.798-3.144.607-3.033.137-3.288 13.943-.249 13.496-.203 13.197-2.183 14.263-.764.412-1.39.901-1.39 1.086 0 1.126-3.866.245-5.6-1.276l-1.8-1.58-.219-12.103c-.225-12.411-.29-13.005-1.505-13.764-.725-.452-5.155-1.024-5.876-.758M140.499 193.2c.613 1.227.7 2.71.7 12.003.001 13.386.643 15.309 5.361 16.057 6.778 1.074 8.714-2.758 8.612-17.044-.088-12.197.058-12.616 4.399-12.616 3.694 0 3.878.823 3.624 16.2-.23 13.972-.144 13.56-3.634 17.526-4.458 5.066-17.376 5.582-22.808.911-2.545-2.188-2.531-2.157-3.68-8.237-.844-4.463-1.089-23.307-.321-24.723 1.227-2.263 6.629-2.317 7.747-.077m129.101-1.243c1.837.509 2 1.554 2.104 13.505.119 13.768.595 15.065 5.793 15.794 6.398.897 7.703-1.938 7.665-16.656-.034-12.69.093-13 5.304-13 3.411 0 3.531.458 3.533 13.48.001 11.136-.288 14.102-1.591 16.32-.388.66-.816 1.671-.951 2.246-.808 3.444-5.394 5.354-12.857 5.354-9.363 0-11.627-1.208-14.235-7.6l-1.307-3.2-.263-11.6c-.345-15.213.236-16.463 6.805-14.643m-84.113 7.817c-8.283 2.38-6.821 21.092 1.679 21.494 3.666.173 4.975-.127 6.591-1.509.873-.748 1.714-1.359 1.869-1.359 2.03 0 2.674-12.022.832-15.534-1.545-2.947-6.558-4.36-10.971-3.092m129.97.24c-1.068.406-1.982.794-2.03.862-2.816 3.976-2.785 3.887-2.95 8.735l-.156 4.611 1.435 2.448c3.776 6.443 13.939 5.972 15.862-.734.703-2.451.458-10.731-.37-12.536-1.708-3.719-6.951-5.224-11.791-3.386m-121.953 1.184c3.641 2.22 4.384 15.24.954 16.712-.582.25-1.54.848-2.128 1.328-1.371 1.119-4.529 1.436-5.93.595a62.09 62.09 0 0 0-2.285-1.284c-3.756-1.997-3.545-15.097.28-17.315 1.99-1.155 7.24-1.176 9.109-.036m131.164.634a38.625 38.625 0 0 0 1.633 1.891c.741.779 1.245 8.109.741 10.792-.741 3.954-7.493 7.242-10.558 5.142a55.207 55.207 0 0 0-2.147-1.385c-4.022-2.43-3.07-16.218 1.204-17.424 3.078-.868 8.065-.331 9.127.984"/></g></svg>