<svg xmlns="http://www.w3.org/2000/svg" viewBox="0 0 41.11 37.682" style="background-color:#22baa1ff;fill:#fff"><path d="M32.475 10.079c-4.198-.546-16.325-2.722-20.931-3.556l-.837-.154c2.988-1.664 6.721-1.866 10.4-1.424.525 0 1.024.209 1.549.313 0 0 .026.026.052.026.473.104.972.234 1.444.364a.29.29 0 0 1 .132.026c.157.052.288.078.446.13h.026c.289.078.551.182.84.26l.236.079c.132.052.237.078.368.13.131.052.236.078.341.13.158.052.315.13.473.182.131.052.236.078.341.13.105.026.184.078.289.105.157.077.341.13.499.208.078.026.157.078.236.104.157.052.289.13.42.182.079.026.131.078.21.104.184.078.367.182.551.26.026.026.079.026.105.053.158.077.315.155.473.234l.157.078c.184.078.368.182.552.286l.026.026c.157.104.341.182.499.286.052.026.078.052.13.078.158.104.342.209.5.313.528.337.979.72 1.361 1.143a24.485 24.485 0 0 1-.888-.096zm-4.333 4.158s-1.391-1.405-.971-1.744c.42-.364 4.725-.26 5.487-.052zm2.784 2.317c-.146.792-.98 1.304-1.865 1.145-.715-.13-1.243-.659-1.342-1.275a.758.758 0 0 0 .949-.729.752.752 0 0 0-.33-.62c.343-.227.79-.327 1.25-.244.884.16 1.483.93 1.338 1.723zm-8.736-2.515c.152-.052.316-.085.487-.094.898-.05 1.661.562 1.706 1.366.045.804-.646 1.495-1.544 1.544-.897.05-1.661-.562-1.706-1.366-.007-.12.005-.237.029-.35a.758.758 0 0 0 1.231-.59.746.746 0 0 0-.203-.51zm-4.68-4.955c0-.052 7.928 1.978 8.086 2.915.157.937-.893 2.004-.893 2.004zM6.09 31.624c.152-3.155 1.427-6.687 1.69-9.599-1.456-1.55-4.179-4.512-4.45-5.285-.047-.114-.05-.188.004-.212l.036.024c.38-.09 2.419-.062 4.337-.012-.105-2-.178-4.037.119-5.833-.043.006-.085.017-.129.02a2.034 2.034 0 0 1-1.738-.706 1.988 1.988 0 0 1-.404-1.813l.007-.028c.004-.016.01-.032.015-.047.105-.345.304-.663.6-.911.766-.642 1.895-.587 2.631.089-.804 1.268-.854 2.476-.854 2.476l.027.013v.013c2.034 1.014 6.494 1.889 11.231 2.584-2.091-.198-3.566-.32-3.566-.32.316.655.65 1.252.997 1.798a5.485 5.485 0 0 1-.078-.106c3.307 5.258 7.902 5.804 11.603 5.7a6.044 6.044 0 0 0 4.072-1.72l.007-.007a5.49 5.49 0 0 0 .172-.178l.083-.09c.02-.021.038-.043.057-.065.177-.204.335-.412.465-.62l-.022.024c.633-1.012.698-2.023-.004-2.445-.319-.197-1.199-.406-2.402-.615 2.184.213 3.812.349 4.421.398.027.235.029.477.029.685v.469c0 .625-.053 1.275-.158 1.926-.026.156-.052.338-.079.494-.052.339-.13.677-.21 1.015-.13.495-.262 1.015-.42 1.536-.105.339-.21.703-.34 1.041l-.177.5c2.004.773 4.547 1.777 4.875 2.025.578.442-7.429 3.852-7.429 3.852v-.075c-.087.173-.175.347-.263.517-1.05 2.03-2.178 3.93-3.15 5.57a22.15 22.15 0 0 1-.472.807c-.158.287-.315.547-.473.807a37.806 37.806 0 0 1 1.886 2.363C35.94 34.83 41.11 27.776 41.11 19.521c0-10.78-8.815-19.52-19.689-19.52A19.714 19.714 0 0 0 6.247 7.081C5.16 6.242 3.181 5.47 0 6.715c0-.021 1.74 1.897 5.125 1.85-.047.069-.092.14-.139.21-1.245.574-2.78 1.933-3.227 5.15 0 0 .364-.081.904-.342a19.357 19.357 0 0 0-.93 5.938c0 4.581 1.592 8.793 4.259 12.123.013.017.084.11.099.127 0 0-.003-.11 0-.147z"/><path d="m18.98 20.04.499 2.526 8.4-1.405z"/></svg> 