<svg xmlns="http://www.w3.org/2000/svg" width="132.943" height="132.943" viewBox="0 0 35.175 35.175"><path d="M18.223 13.767c-.475-1.265-1.448-2.124-2.917-2.124-1.356 0-2.327.543-2.327 1.807 0 2.805 8.407 2.217 8.407 7.505 0 3.346-2.1 5.02-5.72 5.02-2.665 0-5.174-1.493-6.101-3.867l2.578-1.13c.743 1.537 1.717 2.553 3.547 2.553 1.56 0 2.759-.586 2.759-2.168 0-3.21-8.41-2.578-8.41-7.596 0-2.916 2.442-4.567 5.267-4.567 2.624 0 4.792 1.313 5.765 3.688zM0 25.747V9.427h9.584v1.22H1.492v6.014h5.9v1.22h-5.9v7.866z" fill="#78777a"/><path d="M26.698 19.655h3.798l-1.832-7.098h-.045zm-.046-10.24h3.889l4.634 16.345h-3.097l-.903-3.526H26.02l-.974 3.526H21.95z" fill="#a8c987"/></svg>