<svg xmlns="http://www.w3.org/2000/svg" viewBox="0 0 22.8 22.8"><defs><linearGradient id="a" x1="0" x2="22.8" y1="11.4" y2="11.4" gradientUnits="userSpaceOnUse"><stop offset="0" stop-color="#12303b"/><stop offset="1" stop-color="#345065"/></linearGradient></defs><circle cx="11.4" cy="11.4" r="11.4" fill="url(#a)"/><path fill="#fff" d="M4.52 5.68v8.3h1.5v-3.8h1.5v-1h-1.5v-2.4h1.9v-1.1h-3.4zm6.201 0c-.7 0-1.202.1-1.602.5-.4.3-.6.8-.6 1.5 0 .4.101.8.301 1.1.2.3.4.6.7.8l1 .9c.3.2.601.5.701.7.1.2.199.5.199.9 0 .3-.099.5-.199.6-.1.1-.3.201-.5.201s-.4-.101-.5-.201l-.301-.6c0-.2-.1-.501-.1-.801l-1.3.301c0 .6.1 1 .3 1.4.2.3.5.599.8.799.3.2.7.301 1.2.301.4 0 .8-.101 1.1-.301.3-.2.499-.399.699-.699.2-.4.301-.7.301-1.1 0-.6-.2-1-.4-1.4-.3-.4-.601-.7-.901-1l-1-.9c-.2-.2-.4-.4-.5-.6-.1-.2-.2-.4-.2-.7 0-.2.1-.4.2-.5.1-.1.3-.2.5-.2s.4.1.5.2c.1.1.201.3.201.5.1.2.1.4.1.7l1.301-.2c0-.2-.002-.5-.102-.8 0-.2-.099-.5-.299-.7-.1-.2-.299-.4-.599-.5-.3-.1-.6-.2-1-.2zm4.299 0-1.7 8.3h1.6l.301-1.9h1.398l.301 1.9h1.4l-1.701-8.3H15.02zm.701 1.9.599 3.5h-1.099l.5-3.5z"/><path fill="#43b02a" d="M4.52 16.08h13.8v1.1H4.52Z"/></svg>
