<svg width="1133.9" height="1133.9" version="1.1" viewBox="0 0 300 300" xml:space="preserve" xmlns="http://www.w3.org/2000/svg"><path d="m232.8 149.35c2.8525-1.1609 4.2313-4.408 3.0856-7.2667l-30.76-76.135c-1.1625-2.8496-4.4089-4.2247-7.2645-3.0769l-19.771 7.9846c-2.8522 1.16-4.2318 4.4059-3.0878 7.2645l30.767 76.137c1.1598 2.8488 4.4035 4.225 7.258 3.0791l19.771-7.9869zm-43.823 24.484c2.1527-2.166 2.1527-5.6638 0-7.8298l-74.445-74.445c-2.1638-2.1519-5.6594-2.1519-7.8232 0l-15.138 15.14c-2.1541 2.1662-2.1541 5.6656 0 7.8319l74.437 74.443c2.1604 2.1538 5.678 2.1538 7.8297 0zm-31.637 39.199c1.1516-2.8568-0.22548-6.1069-3.0791-7.2667l-76.139-30.758c-2.8544-1.1432-6.0964 0.23176-7.258 3.0791l-7.9912 19.775c-1.1425 2.8562 0.23605 6.099 3.0856 7.258l76.13 30.769c2.858 1.1455 6.1045-0.23342 7.2645-3.0856zm-7.3365-211.19c81.819 0 148.15 66.334 148.15 148.16 0 81.832-66.33 148.16-148.15 148.16-81.819 0-148.15-66.33-148.15-148.16 0-81.826 66.33-148.16 148.15-148.16z" fill="#f9423a" fill-rule="evenodd" stroke-width="2.182"/></svg>
