<svg xmlns="http://www.w3.org/2000/svg" viewBox="0 0 264 264"><circle cx="132" cy="132" r="132" fill="#f9423a"/><path fill="#fff" d="M176.4 55a5 5 0 0 0-1.9.4l-17.4 7a5 5 0 0 0-2.8 6.5l27.2 67.1a5 5 0 0 0 6.4 2.8l17.4-7a5 5 0 0 0 2.7-6.5L181 58.2a5 5 0 0 0-4.5-3.1ZM97.6 79.4c-1.3 0-2.5.5-3.5 1.4L80.8 94.1c-2 2-2 5 0 7l65.6 65.6c2 1.9 5 1.9 7 0l13.3-13.4c1.9-1.9 1.9-5 0-6.9L101 80.7c-1-.9-2.2-1.4-3.4-1.4ZM67 154a5 5 0 0 0-4.5 3l-7 17.5a5 5 0 0 0 2.7 6.4l67.1 27.1a5 5 0 0 0 6.4-2.7l7-17.4a5 5 0 0 0-2.7-6.4L69 154.3a5 5 0 0 0-2-.3"/></svg>
