<svg xmlns="http://www.w3.org/2000/svg" xml:space="preserve" id="Layer_1" x="0" y="0" version="1.1" viewBox="90.5 104.7 200 200"><style id="style1" type="text/css">.st1{fill:#fff}.st2{fill:#ff4081}</style><g id="g7"><circle id="circle1" cx="190.5" cy="204.7" r="100" class="st1"/><circle id="circle2" cx="190.5" cy="204.7" r="88.2" style="fill:#009688"/><path id="path2" d="M200.3 207.9c-1.2-1-3-2.2-7.6-2.7h-.2c-.7.1-1.4.1-2 .1-.7 0-1.4 0-2.1-.1h-.3c-3.6-.4-6.2-1.6-7.8-3.7-1.2-1.5-2.1-3.4-2.7-5.5-.6-2.2-1.2-4.7-1.4-7.6v-18.2h-30v15.9c0 6.3.4 11.6 1.3 16.3.1.7.3 1.5.4 2.2.2 1 .4 1.9.6 2.9l.9 3.3 1.5 3.7v.1c1.6 3.2 3.2 5.6 4.9 7.8 3.4 4.3 7.7 7.7 12.8 10 3.5 1.6 7.4 2.8 11.6 3.5 3.3.6 6.9.9 10.7.9 5.1 0 9.2-.5 14.2-1.6v-12c.1-8.3-2.2-13.1-4.8-15.3z" class="st1"/><path id="path3" d="M224.8 188.1c-3-3.8-6.8-6.9-11.3-9.3-.3-.1-.5-.3-.8-.4-3.5-1.7-7.3-3-11.6-3.8-3.5-.7-7.3-1-11.3-1-4.9 0-9.6.5-13.6 1.5V188.4c.2 2.8.8 5.4 1.4 7.6.6 2.1 1.5 4 2.7 5.5 1.6 2.1 4.2 3.3 7.8 3.7h.2c.7-.1 1.4-.1 2-.1.7 0 1.4 0 2.1.1h.2c4.6.5 6.4 1.6 7.6 2.7 2.6 2.2 4.9 7 4.9 15.3v16h31v-15c0-6-.5-11.8-2.1-17.4 0-.1 0-.1-.1-.2-1-3.4-2.1-6.7-3.6-9.9-1.2-2.7-3-5.5-5.5-8.6z" class="st2"/><path id="path4" d="M177.4 150.4c4.8 3.7 9.3 7.6 13.5 11.6 3.9 3.7 7.2 7.6 9.7 11.9.1.2.3.5.4.7 4.2.8 8.1 2 11.6 3.8.3.1.5.3.8.4 4.5 2.4 8.3 5.5 11.3 9.3 2.5 3.1 4.2 5.9 5.6 8.8 1.5 3.2 2.6 6.5 3.6 9.9.1.2.1.4.2.6 2-6.2 3.1-13.5 3.1-21.1 0-9.2-1.7-17.3-5.1-24.2-3.2-6.5-7.2-12.4-12-17.5-4.6-4.9-9.6-9.5-15-13.7-4.9-3.8-9.5-7.6-13.6-11.6-1.4-1.4-2.8-2.8-4.1-4.2-12.4.4-24.1 3.3-34.8 8.2 2.8 5 6.1 9.5 9.9 13.5 4.8 5 9.7 9.5 14.9 13.6z" class="st1"/><path id="path5" d="M203.9 260c-4.9-3.8-9.5-7.6-13.6-11.6-3.9-3.6-7.1-7.6-9.7-11.9-.1-.2-.2-.4-.3-.5-4.2-.7-8.1-1.9-11.6-3.5-5-2.4-9.3-5.7-12.8-10-1.7-2.2-3.3-4.7-4.9-7.8v-.1l-1.5-3.7c-.4-1-.7-2.1-.9-3.3-.2-.9-.4-1.9-.6-2.9-.2-.7-.3-1.4-.5-2.2-2.1 6.4-3.3 13.7-3.3 21.8 0 9.2 1.7 17.3 5.1 24.2 3.2 6.5 7.2 12.4 12 17.5 4.6 4.9 9.6 9.5 14.8 13.6 4.8 3.8 9.4 7.7 13.5 11.6 1.1 1.1 2.2 2.1 3.2 3.2 12.6-.3 24.6-3.2 35.4-8.3-2.7-4.5-5.8-8.7-9.3-12.5-4.6-4.9-9.6-9.5-15-13.6z" class="st2"/><path id="path6" d="M205.2 223.3c0-8.4-2.3-13.2-4.9-15.3-1.2-1-3-2.2-7.6-2.7h-.2c-.6 0-1.2.1-1.9.1 4 .5 5.7 1.6 6.9 2.6 2.6 2.2 4.9 7 4.9 15.3v12.6c.9-.2 1.9-.3 2.8-.6z" style="fill:#dbb3cd"/><path id="path7" d="M146.1 214.5c1.7 3.2 3.3 5.6 5.1 7.8 3.6 4.3 8 7.7 13.2 10 3.6 1.6 7.6 2.8 12 3.5 1.3.2 2.7.4 4.1.5-.1-.2-.2-.3-.3-.5-4.2-.7-8.1-1.9-11.6-3.5-5-2.4-9.3-5.7-12.8-10-1.7-2.2-3.3-4.7-4.9-7.8v-.1l-1.5-3.7c-.6-1.9-1.1-4-1.6-6.1-.2-.7-.3-1.4-.5-2.2-1 2.9-1.7 6.1-2.3 9.3l.9 2.7z" style="fill:#d64081"/></g></svg>