<svg xmlns="http://www.w3.org/2000/svg" width="648.719" height="648.719"><path d="M525.811 489.613s-67.854-12.596-87.43-25.888c-23.088-15.382-73.443-38.471-41.27-64.34 20.981-16.786 54.548-4.897 69.943.699 0 0 38.47 10.485 53.155 41.264 13.294 26.585 6.3 44.767 5.602 48.265zM392.206 232.914s4.905 8.395 11.203 19.588l-24.48 67.844s-14.7-46.86-64.358-60.15c-49.657-13.291-60.148-11.191-60.148-11.191s20.285-58.753 77.635-51.063c54.561 6.298 60.148 34.972 60.148 34.972z" fill="#16a855"/><path d="M558.68 369.307c-48.265-41.266-123.797-67.144-179.752-48.961-10.492-51.06-72.05-74.14-122.404-71.342 13.28-32.175 35.67-48.262 61.544-48.262 25.888 0 46.87 2.798 72.745 30.075-3.498-24.481-38.469-56.656-81.83-56.656-49.673 0-94.425 33.576-113.319 81.137-31.476 6.295-148.277 63.651-185.353 103.518 44.768-26.577 135.694-79.736 195.846-79.736 46.87 0 82.54 39.87 93.031 74.843C328.56 446.95 410.402 483.316 506.221 485.42c-14.686-2.801-32.868-7.705-46.16-12.596-44.768-16.093-82.54-46.856-59.454-66.447 14.687-12.589 60.151-9.788 90.93 10.492 28.674 18.183 36.365 47.567 30.066 70.641-35.667 122.404 19.591 171.365 114.017 159.479 13.292-134.999-22.377-230.817-76.94-277.682z" fill="#0c7834"/><path d="M208.26 277.682c-60.15 0-152.485 53.155-197.949 79.736 37.771-40.57 155.982-97.923 187.457-103.521zm116.801-47.564c0 7.694-6.297 13.988-13.988 13.988-7.69 0-13.989-6.294-13.989-13.988 0-7.695 6.298-13.989 13.99-13.989 7.69 0 13.987 6.294 13.987 13.989z" fill="#2b2825"/><path d="M525.101 345.527c-45.464-26.578-102.117-39.867-146.884-25.878L609.744 53.858c58.743 91.626-12.595 259.493-84.643 291.669" fill="#16a855"/><path d="M378.928 319.649L495.034 0c88.823 62.25 76.242 269.286 30.067 345.527-45.463-26.578-102.116-39.867-146.172-25.878z" fill="#0c7834"/></svg>