<svg xmlns="http://www.w3.org/2000/svg" fill="#a55fff" viewBox="0 0 96 96"><path d="m42.43 18.8-10.36-.83a7 7 0 0 1-6.41-6.41L24.83 1.2a1.3 1.3 0 0 0-1.3-1.2H20.1a1.3 1.3 0 0 0-1.3 1.2l-.83 10.36a7 7 0 0 1-6.41 6.41L1.2 18.8c-.68.06-1.2.63-1.2 1.3v3.43c0 .68.53 1.25 1.2 1.3l10.36.83a7 7 0 0 1 6.41 6.41l.83 10.36c.06.68.63 1.2 1.3 1.2h3.43a1.3 1.3 0 0 0 1.3-1.2l.83-10.36a7 7 0 0 1 6.41-6.41l10.36-.83c.68-.06 1.2-.63 1.2-1.3V20.1a1.3 1.3 0 0 0-1.2-1.3m52.37 0-10.36-.83a7 7 0 0 1-6.41-6.41L77.2 1.2A1.3 1.3 0 0 0 75.9 0h-3.43a1.3 1.3 0 0 0-1.3 1.2l-.83 10.36a7 7 0 0 1-6.41 6.41l-10.36.83c-.68.06-1.2.63-1.2 1.3v3.43c0 .68.53 1.25 1.2 1.3l10.36.83a7 7 0 0 1 6.41 6.41l.83 10.36c.06.68.63 1.2 1.3 1.2h3.43a1.3 1.3 0 0 0 1.3-1.2l.83-10.36a7 7 0 0 1 6.41-6.41l10.36-.83c.68-.06 1.2-.63 1.2-1.3V20.1a1.3 1.3 0 0 0-1.2-1.3M42.43 71.17l-10.36-.83a7 7 0 0 1-6.41-6.41l-.83-10.36a1.3 1.3 0 0 0-1.3-1.2H20.1a1.3 1.3 0 0 0-1.3 1.2l-.83 10.36a7 7 0 0 1-6.41 6.41l-10.36.83c-.68.06-1.2.63-1.2 1.3v3.43c0 .68.53 1.25 1.2 1.3l10.36.83a7 7 0 0 1 6.41 6.41l.83 10.36c.06.68.63 1.2 1.3 1.2h3.43a1.3 1.3 0 0 0 1.3-1.2l.83-10.36a7 7 0 0 1 6.41-6.41l10.36-.83c.68-.06 1.2-.63 1.2-1.3v-3.43a1.3 1.3 0 0 0-1.2-1.3m52.37 0-10.36-.83a7 7 0 0 1-6.41-6.41l-.83-10.36a1.3 1.3 0 0 0-1.3-1.2h-3.43a1.3 1.3 0 0 0-1.3 1.2l-.83 10.36a7 7 0 0 1-6.41 6.41l-10.36.83c-.68.06-1.2.63-1.2 1.3v3.43c0 .68.53 1.25 1.2 1.3l10.36.83a7 7 0 0 1 6.41 6.41l.83 10.36c.06.68.63 1.2 1.3 1.2h3.43a1.3 1.3 0 0 0 1.3-1.2l.83-10.36a7 7 0 0 1 6.41-6.41l10.36-.83c.68-.06 1.2-.63 1.2-1.3v-3.43a1.3 1.3 0 0 0-1.2-1.3"/></svg>