<svg xmlns="http://www.w3.org/2000/svg" width="48" height="48" viewBox="0 0 12.7 12.7"><path d="M12.7 12.7H0V0h12.7z" fill="#009"/><path d="M3.914 3.043c-.557 0-.93.24-1.056.57v.566c.097.257.361.392.926.516.187.041.316.072.388.088.11.032.206.081.246.165v.18c-.055.123-.223.188-.442.188-.16 0-.3-.026-.43-.083-.13-.052-.285-.155-.476-.31l-.389.434c.42.373.777.503 1.28.503.571 0 .962-.23 1.089-.593v-.561c-.106-.286-.404-.427-.981-.555a7.843 7.843 0 01-.388-.093c-.11-.031-.183-.07-.213-.135v-.15c.048-.115.207-.186.43-.186.285 0 .482.067.792.31l.363-.44c-.368-.305-.684-.414-1.14-.414m5.335.088v1.595c0 .357-.207.549-.544.549-.29 0-.44-.166-.44-.44V3.13h-.673v1.89c0 .513.31.839.937.839.378 0 .637-.135.777-.363v.28h.616V3.13zm-3.48 3.71c-.347 0-.612.129-.793.388-.145-.25-.398-.389-.735-.389-.347 0-.6.13-.756.383v-.295h-.626v2.646h.673V7.948c0-.31.17-.528.466-.528.28 0 .42.17.42.507v1.647h.672V7.948c0-.31.171-.528.466-.528.29 0 .42.192.42.507v1.647h.673V7.726c0-.544-.321-.886-.88-.886m4.25.851c-.194-.524-.671-.85-1.275-.85-.609 0-1.086.326-1.282.85v1.115c.196.523.673.85 1.282.85.604 0 1.08-.327 1.276-.85V7.69m-1.905.168c.106-.279.33-.45.629-.45.294 0 .518.171.623.45v.784c-.105.28-.33.444-.623.444a.645.645 0 01-.628-.444V7.86" fill="#fff"/></svg>