<svg xmlns="http://www.w3.org/2000/svg" viewBox="0 0 90 66"><path fill="#F58025" d="M2.06835214 41.5318318l2.1210031 19.3261429c.27725531 2.1656205.32161616 3.1383382-.1358551 3.2498244-.41311041.0752532-.81790316-.4487322-1.04525251-1.7057397L.20519647 47.6496402c-.34102403-1.2068387-.24952978-3.2609731.2190317-4.543065l.55451061-1.5190003c.44638105-1.265369.93989549-1.2876663 1.08961336-.0557431zm6.00257741 1.0117378c-.0471334-1.2347103-1.02861719-1.4939159-1.50549632-.5825157-.47687913.9114001-.6792755 3.5090299-.51569487 4.7381659l.90662485 9.5125651c.2190317 1.6109764.4491536 2.1015159.83176593 2.031837.44638104-.1003376.55451061-1.5747434.496287-2.8735583l-.21348659-12.826494zm4.05070005 10.6664477l.7097736-27.0939479c.080404-.7859781-1.0480251-.7051506-1.6385789.0975505l-.2134866.2787156c-.5933263.8027011-1.1090212 2.1154518-1.12565652 2.9070042L10.8822984 53.363311c.0360432.7859781.2162591 1.8478847.5545106 1.8395723.3937025-.0725152.6182793-.9003006.6848206-1.992866zM16.9126013 29.76167l-1.3169627 20.9761396c-.0859491.8863157.0693138 1.9510095.3770672 1.9344811.3826123-.0224918.7596796-1.1958847.8317659-1.9512041l3.2799303-23.3703069c-.1081295-1.2096259-1.3280529-1.4353856-2.1043678-.2536312-.3853848.624323-1.0036642 1.8924792-1.0674329 2.6645215zm3.8122605 20.4270697c.4103378.158868.7624521-.9336974 1.3169627-2.6450114l9.3268686-36.391902c.2245768-.8891029-.2772554-2.0820058-1.3308255-2.2464481-.8151306-.1226349-1.8576106.9504204-2.1182306 2.154472l-7.1753673 36.4225606c-.3022083 1.4883416-.4186556 2.5613968-.0194079 2.7063289zm5.5866944-.3010129l13.3498431-32.225103c.5545106-1.2374974.5545106-2.3356371-.4602438-2.7063289-1.1312017-.3957762-2.5701567 1.1343727-3.1357575 2.4304004L25.1054957 49.3052111c-.4602439 1.3406223-.8816719 2.5836941-.4242007 2.7564978.52124.1867395 1.0618879-.9504204 1.6302612-2.1739821zM59.1995808 4.0445774c.5627652-.8821663.419373-2.0423774-.341024-2.7592849L57.2671113.2345345c-.9121699-.4738166-1.8520654-.2173982-2.3233994.6577689L31.2771988 47.1758236s-1.9407872 3.2944189-1.2836921 3.5954318c.52124.248057 1.8631557-1.8841177 1.8631557-1.8841177L59.1995808 4.0445774zm-25.33559 49.1292069l33.0682406-36.7040634c.7458167-.8640185 1.3724137-1.4883416.9731661-2.6645216-.283535-.8812687-.8488853-1.6436123-1.6080808-2.1684077-.7458168-.5741543-1.7855242-.4570937-2.4537095.4152863L32.9490483 52.2484484c-1.1090212 1.2625818-1.6635318 2.2492352-1.308645 2.5084408.3937025.2954386 1.2892371-.4961139 2.2235875-1.5831049zm4.3473632-.3428202c.3327064.3985633 1.5359944-.3846276 2.7365099-1.318325l44.529975-31.9686847c.9731661-.7859781 1.5359944-2.2074279 1.2143782-3.1411253L85.222764 12.642955c-.3188436-.8974643-1.2698293-.9699304-2.1182305-.1560807L39.9996508 50.4284352c-1.0507976 1.0117378-2.2319052 1.8757563-1.7882968 2.4025289zm.3327064 5.3290431l42.2065755-17.4002178c1.3169627-.6159615 2.3677603-1.9900297 2.326172-3.0658721l-.4546987-4.8329293c-.0360432-1.0089506-1.0036642-1.265369-2.140411-.5769414l-42.420062 24.4795952c-1.3058725.8138497-2.5673842 1.3935783-2.3982584 1.9510096.1691257.5574313 1.4223197.1226348 2.8751375-.5546442h.0055451zm50.9789334-7.2828398l.4713341-5.0391789c.0942668-1.1009268-.9981192-1.5831049-2.4065761-1.0730552L44.4579161 59.3473359c-1.5249042.5574313-2.9389062.9197616-2.7725531 1.4883415.1386277.4877524 1.3557785.2592056 2.9860397-.0334459l41.7934651-7.2772655c1.5831278-.2954386 2.9610867-1.4994902 3.058126-2.6477986zM42.622486 65.9863426h35.6300796c1.7162103.1365706 3.108032-.7664681 3.5405503-2.0206885l.7596795-1.9677324c.5545106-1.4576829-.8317659-2.33285-2.4786625-2.1684078l-37.2326152 4.3869843c-1.6635319.1755909-3.7235388.5016882-3.604319 1.1148626.1192198.6131744 1.7716614.6744919 3.3852873.6549818z"/></svg>