<svg xmlns="http://www.w3.org/2000/svg" viewBox="0 0 90 66"><path fill="#F58025" d="M2.07 41.53l2.12 19.33c.28 2.16.32 3.14-.14 3.25-.41.07-.81-.45-1.04-1.7L.2 47.64a8.71 8.71 0 01.21-4.54l.56-1.52c.45-1.27.94-1.29 1.09-.06zm6 1.01c-.05-1.23-1.03-1.49-1.5-.58-.48.91-.68 3.51-.52 4.74l.9 9.51c.23 1.61.46 2.1.84 2.03.44-.1.55-1.57.5-2.87l-.22-12.83zm4.05 10.67l.71-27.1c.08-.78-1.05-.7-1.64.1l-.21.28c-.6.8-1.11 2.12-1.13 2.9l1.03 23.97c.04.79.22 1.85.56 1.84.4-.07.62-.9.68-1.99zm4.8-23.45L15.6 50.74c-.09.88.06 1.95.37 1.93.39-.02.76-1.2.83-1.95l3.28-23.37c-.1-1.2-1.32-1.43-2.1-.25-.39.62-1 1.89-1.07 2.66zm3.8 20.43c.42.16.77-.93 1.32-2.65l9.33-36.39c.22-.89-.28-2.08-1.33-2.24-.82-.13-1.86.95-2.12 2.15l-7.18 36.42c-.3 1.5-.41 2.56-.02 2.7zm5.6-.3l13.34-32.23c.56-1.23.56-2.33-.46-2.7-1.13-.4-2.57 1.13-3.13 2.43L25.1 49.3c-.46 1.34-.89 2.58-.43 2.75.52.19 1.06-.95 1.63-2.17zM59.2 4.04c.56-.88.42-2.04-.34-2.75L57.26.23c-.9-.47-1.84-.21-2.32.66L31.28 47.18s-1.94 3.29-1.29 3.6c.52.24 1.87-1.9 1.87-1.9L59.2 4.05zM33.86 53.17l33.07-36.7c.75-.86 1.37-1.49.98-2.66a4.2 4.2 0 00-1.61-2.17c-.75-.58-1.79-.46-2.46.41l-30.9 40.2c-1.1 1.26-1.65 2.25-1.3 2.5.4.3 1.29-.49 2.22-1.58zm4.35-.34c.33.4 1.54-.38 2.74-1.32l44.53-31.97c.97-.78 1.53-2.2 1.21-3.14l-1.47-3.76c-.32-.9-1.27-.97-2.12-.15L40 50.43c-1.05 1.01-2.23 1.87-1.79 2.4zm.33 5.33l42.21-17.4c1.32-.62 2.37-1.99 2.33-3.07l-.46-4.83c-.03-1-1-1.26-2.14-.58L38.06 56.76c-1.3.82-2.57 1.4-2.4 1.95.17.56 1.43.13 2.88-.55zm50.98-7.28l.47-5.04c.1-1.1-1-1.59-2.4-1.08L44.46 59.35c-1.53.55-2.94.92-2.77 1.49.13.48 1.35.25 2.98-.04l41.8-7.28c1.58-.29 2.96-1.5 3.05-2.64zm-46.9 15.1h35.63c1.72.14 3.11-.76 3.54-2.01l.76-1.97c.56-1.46-.83-2.33-2.48-2.17l-37.23 4.39c-1.66.17-3.72.5-3.6 1.11.12.61 1.77.68 3.38.66z"/></svg>
