<svg xmlns="http://www.w3.org/2000/svg" fill="none" viewBox="0 0 109 113"><path fill="url(#a)" d="M63.708 110.284c-2.86 3.601-8.658 1.628-8.727-2.97l-1.007-67.251h45.22c8.19 0 12.758 9.46 7.665 15.874l-43.151 54.347Z"/><path fill="url(#b)" fill-opacity="0.2" d="M63.708 110.284c-2.86 3.601-8.658 1.628-8.727-2.97l-1.007-67.251h45.22c8.19 0 12.758 9.46 7.665 15.874l-43.151 54.347Z"/><path fill="#3ECF8E" d="M45.317 2.071c2.86-3.601 8.657-1.628 8.726 2.97l.442 67.251H9.83c-8.19 0-12.759-9.46-7.665-15.875L45.317 2.072Z"/><defs><linearGradient id="a" x1="54" x2="94.2" y1="55" y2="71.8" gradientUnits="userSpaceOnUse"><stop stop-color="#249361"/><stop offset="1" stop-color="#3ECF8E"/></linearGradient><linearGradient id="b" x1="36.2" x2="54.5" y1="30.6" y2="65.1" gradientUnits="userSpaceOnUse"><stop/><stop offset="1" stop-opacity="0"/></linearGradient></defs></svg>