<svg xmlns="http://www.w3.org/2000/svg" width="31.784" height="31.784" fill="none"><path d="M22.65.003L22.54 0h-7.344c-4.808.26-6.83 3.053-7.371 4.54-2.107 6.316-3.418 14.496-4.365 20.4l-.055.343-.307 2.807a4.85 4.85 0 00.142 1.389c.59 1.712 2.371 3.154 6.294 1.717v.003a279.307 279.307 0 0012.61-5.877c2.577-1.49 6.353-4.917 6.546-9.244-.035-3.21-.142-6.575-.36-9.85l-.002.002v-.023c-.018-.269-.036-.58-.056-.904-.037-.622-.077-1.292-.12-1.799a6.261 6.261 0 00-.247-.957c-.63-1.403-1.861-2.08-3.16-2.403C24.152.04 23.424.022 22.65.003zm-.28 6.532a.657.657 0 00-.657-.658 7.559 7.559 0 00-7.56 7.56v2.53a4.063 4.063 0 01-4.062 4.062.677.677 0 00-.677.677v2.069c0 .363.294.657.657.657a7.559 7.559 0 007.559-7.56v-2.53a4.063 4.063 0 014.063-4.062.677.677 0 00.677-.677z" clip-rule="evenodd" fill="#178a9e" fill-rule="evenodd"/><path d="M21.713 5.877c.363 0 .657.294.657.657v2.069a.677.677 0 01-.677.677 4.063 4.063 0 00-4.063 4.063v2.685a7.559 7.559 0 01-7.56 7.558.657.657 0 01-.656-.657v-2.068c0-.374.303-.677.677-.677a4.063 4.063 0 004.063-4.063v-2.685a7.559 7.559 0 017.559-7.559z" fill="#fff"/></svg>