<svg xmlns="http://www.w3.org/2000/svg" viewBox="0 0 35.169 35.325" fill="#171d1a"><path d="M8.803 8.232V.004c-2.33 0-4.565.928-6.215 2.58A8.863 8.863 0 0 0 0 8.819v.028a8.863 8.863 0 0 0 2.58 6.226 8.782 8.782 0 0 0 6.2 2.587h.022a8.782 8.782 0 0 0 6.2-2.588 8.863 8.863 0 0 0 2.58-6.225V.004a8.78 8.78 0 0 0-6.003 2.377 8.86 8.86 0 0 0-2.776 5.85zm17.557 9.43h8.803a8.865 8.865 0 0 0-2.366-6.03 8.787 8.787 0 0 0-5.824-2.79h8.19A8.86 8.86 0 0 0 32.595 2.6 8.782 8.782 0 0 0 26.389 0h-.028a8.782 8.782 0 0 0-6.199 2.592 8.863 8.863 0 0 0-2.576 6.228v.022c.006 2.337.932 4.576 2.576 6.228s3.872 2.585 6.198 2.592zm-17.553 0H.004a8.87 8.87 0 0 0 2.363 6.029 8.787 8.787 0 0 0 5.82 2.792H.004a8.86 8.86 0 0 0 2.568 6.242 8.782 8.782 0 0 0 6.207 2.6h.028c2.325-.008 4.553-.94 6.197-2.593s2.57-3.891 2.575-6.228v-.021c-.005-2.337-.931-4.576-2.575-6.228s-3.872-2.585-6.197-2.593zm17.582.003h-.022a8.782 8.782 0 0 0-6.2 2.587 8.863 8.863 0 0 0-2.58 6.227v8.843c2.227 0 4.372-.849 6.001-2.375s2.622-3.616 2.778-5.848v8.223a8.78 8.78 0 0 0 6.215-2.58 8.863 8.863 0 0 0 2.588-6.234v-.028c-.007-2.337-.935-4.575-2.58-6.227s-3.874-2.582-6.2-2.588z"/></svg>