<svg xmlns="http://www.w3.org/2000/svg" viewBox="0 0 48 48"><defs><linearGradient id="a" x1="0" x2="1" y1="0" y2="1"><stop offset="0" stop-color="#CE55B0"/><stop offset=".17" stop-color="#F34DAC"/><stop offset="31.7%" stop-color="#F48E66"/><stop offset=".43" stop-color="#F0B832"/><stop offset=".59" stop-color="#B2CE37"/><stop offset=".75" stop-color="#63D7AF"/><stop offset=".89" stop-color="#1CC2DF"/><stop offset="1" stop-color="#0580E6"/></linearGradient></defs><path stroke="url(#a)" stroke-width="1.9" d="M35.7.96c4 0 5.47.38 6.94 1.17a7.78 7.78 0 0 1 3.23 3.23c.79 1.47 1.17 2.94 1.17 6.95v23.38c0 4.01-.38 5.48-1.17 6.95a7.78 7.78 0 0 1-3.23 3.23c-1.47.79-2.94 1.17-6.95 1.17H12.31c-4.01 0-5.48-.38-6.95-1.17a7.78 7.78 0 0 1-3.23-3.23C1.34 41.17.96 39.7.96 35.69V12.31c0-4.01.38-5.48 1.17-6.95a7.78 7.78 0 0 1 3.23-3.23C6.83 1.34 8.3.96 12.31.96z"/><path fill="#FFF" d="M35.83 15.07c-3.54 1.73-3.9 6.03-4.18 9.48-.32 3.64-.62 4.64-1.39 4.64-.9 0-1.12-2.76-1.26-5.35-.2-3.78-.49-8.96-5.13-8.96-4.62 0-4.9 5.18-5.11 8.96-.14 2.59-.36 5.35-1.26 5.35-1.55 0-1.55-7.8-1.55-14.08v-.13H12v.13c0 11.23 0 18.01 5.5 18.01 4.72 0 5-5.24 5.21-9.07.08-1.7.24-5.24 1.16-5.24.88 0 1.06 3.07 1.17 5.1l.01.15c.2 3.82.5 9.06 5.21 9.06 4.64 0 5.03-4.76 5.32-8.24v-.04c.23-2.7.47-5.49 1.98-6.2l.12-.05-1.73-3.57-.12.05z"/></svg>