<svg xmlns="http://www.w3.org/2000/svg" fill="none" viewBox="0 0 32 32"><g clip-path="url(#a)"><mask id="b" width="32" height="32" x="0" y="0" maskUnits="userSpaceOnUse" style="mask-type:luminance"><path fill="#fff" d="M25 0H7a7 7 0 0 0-7 7v18a7 7 0 0 0 7 7h18a7 7 0 0 0 7-7V7a7 7 0 0 0-7-7Z"/></mask><g mask="url(#b)"><path fill="#fff" d="M32 0H0v32h32V0Z"/><g filter="url(#c)"><path fill="#A51CF1" d="M7.7-8.3H-8.5V8H7.7V-8.2Z"/><path fill="#336DFF" d="M23.8-8.3H7.7V8h16.1V-8.2Z"/><path fill="#31BBFD" d="M40-8.3H23.8V8H40V-8.2Z"/><path fill="#3CEAFF" d="M40-8.3V8H23.8L40-8.2Z"/><path fill="#00EAB2" d="M40 8H23.8v16H40V8Z"/><path fill="#B0E836" d="M40 24H23.8v16.3H40V24Z"/><path fill="#FFDA19" d="M23.8 24H7.7v16.3h16.1V24Z"/><path fill="#FF8D40" d="M7.7 24H-8.5v16.3H7.7V24Z"/><path fill="#FF2055" d="M-8.5 24H7.7L-8.5 40.4V24Z"/><path fill="#E40AAF" d="M7.7 8H-8.5v16H7.7V8Z"/></g><path fill="#000" d="M4 12.6c0-3 0-4.5.6-5.7.5-1 1.3-1.8 2.3-2.3C8.1 4 9.6 4 12.6 4h6.8c3 0 4.5 0 5.7.6 1 .5 1.8 1.3 2.3 2.3.6 1.2.6 2.7.6 5.7v6.8c0 3 0 4.5-.6 5.7-.5 1-1.3 1.8-2.3 2.3-1.2.6-2.7.6-5.7.6h-6.8c-3 0-4.5 0-5.7-.6-1-.5-1.8-1.3-2.3-2.3-.6-1.2-.6-2.7-.6-5.7v-6.8Z"/><path fill="#fff" d="M18.5 20h-5c-.8 0-1.5-.7-1.5-1.5v-5c0-.8.7-1.5 1.5-1.5h5c.8 0 1.5.7 1.5 1.5v5c0 .8-.7 1.5-1.5 1.5Z"/></g></g><defs><clipPath id="a"><path fill="#fff" d="M0 0h32v32H0z"/></clipPath><filter id="c" width="60.5" height="60.5" x="-14.5" y="-14.3" color-interpolation-filters="sRGB" filterUnits="userSpaceOnUse"><feFlood flood-opacity="0" result="BackgroundImageFix"/><feBlend in="SourceGraphic" in2="BackgroundImageFix" result="shape"/><feGaussianBlur result="effect1_foregroundBlur_2114_28021" stdDeviation="3"/></filter></defs></svg>