<svg xmlns="http://www.w3.org/2000/svg" viewBox="0 0 89 89"><g fill="none" fill-rule="evenodd"><path fill="#000" d="M0 0h89v89H0z"/><path fill="#FFF" d="M14.8 28.5c-2.17-.02-3.66-.18-5.34-1.55v2.4c1.86.71 3.1.65 5.1.68 4.1.09 9.05-1.2 8.87-6.22-.15-3.87-2.44-4.73-5.19-6.32l-3.63-2.1c-1.43-.82-2.53-1.7-2.68-3.32-.21-2.5 2.53-4.18 5.03-4.03 1.77.06 3.05.34 4.33 1.56V7.25c-1.65-.67-2.77-.61-4.57-.67-3.84-.13-7.38 2-7.35 5.6.03 2.45 1.34 3.94 3.57 5.25l4.14 2.38c1.9 1.07 3.5 2.2 3.5 4.36 0 2.84-2.18 4.46-5.78 4.33m9.72-19.73c.23.29.32.49.4.8l7.63 20.55 5.58-15.37L43.83 30l7.2-20.06c.1-.35.25-.55.43-.87.26-.4.43-.66.75-1.04h-3.18c.17.26.23.47.26.79.03.37-.09.63-.26 1l-4.92 14.6L38.8 9.66a1.8 1.8 0 0 1-.09-1.04c.06-.23.12-.34.23-.55h-3.93c.23.23.4.4.6.67.24.29.44.46.59.84l1.07 2.71-4.54 12.08-5.29-15.02c-.09-.23-.06-.4 0-.64.03-.26.12-.4.26-.64h-3.96c.35.2.52.38.78.7m27.64 5.69c.15.22.23.4.31.67.1.3.12.48.12.77v12.36c0 .3 0 .5-.11.77a1.64 1.64 0 0 1-.24.5l-.08.11h2.65l-.07-.11-.09-.15a.9.9 0 0 1-.18-.4c-.06-.5-.06-1.17-.06-1.96V15.86c0-.22 0-.35.14-.83a5 5 0 0 1 .23-.58l.06-.1h-2.76l.08.1zM78.2 8.05h-2.43c.09.31.15.52.2.83.2 1.04.15 1.71.15 2.75v13.7L61 8.08h-3.17c.29.17.46.34.6.66.18.32.24.58.24.92V27.7c0 .44 0 .73-.12 1.16-.06.32-.17.5-.38.78h2.75c-.12-.38-.2-.58-.26-.92-.2-.96-.2-.96-.2-1.6V11.09l17.45 19.27-.03-20.2c0-.43 0-.69.1-1.15.05-.37.1-.6.22-.95M31.75 48.94c0-2.83-1.33-4.6-3.73-5.4l-.87-.33.81-.49c1.56-.89 2.4-2 2.34-4.04-.14-2.8-2.3-5.17-5.11-5.17h-6.53c.2.29.32.49.46.8.2.47.29.79.29 1.28v17.77c0 .43-.06.72-.2 1.12-.12.24-.18.38-.35.61h5.75c4.4 0 7.1-2.34 7.14-6.15zm-10.06-14h2.11c2.69 0 4.16 1.57 4.28 3.74.08 2.34-1.36 4.04-4.51 4.04h-1.88v-7.77zm2.22 18.85a5.23 5.23 0 0 1-2.1-.26v-9.25c.72-.17 1.15-.17 1.88-.17 2.85.09 5.66 1.1 5.75 4.8.08 3.12-2.7 4.7-5.52 4.88zm28-18.29c0-.4-.04-.63.02-1.04.06-.38.12-.6.23-.95h-3c.14.34.2.57.29.95.06.4.06.66.06 1.1v12.36a5.56 5.56 0 0 1-5.61 5.61c-3.33.12-6.3-2.45-6.3-5.78V35.41c0-.37-.03-.63.06-1.01.06-.38.12-.58.26-.9h-2.95c.14.4.2.67.26 1.13.06.38.03.6.03.98v12.4c0 4.4 3.87 7.46 8.64 7.4 4.45-.09 8-3.12 8-7.28V35.5zm19.34 18.75c-.66-.58-1.18-1.27-1.85-2.13l-5.14-6.54a13.96 13.96 0 0 0-1.5-1.64c-.18-.15-.26-.27-.43-.4a5.18 5.18 0 0 0 5.86-5.1c.09-3.09-2.46-4.96-5.29-4.96h-6.5c.18.31.32.51.4.9.15.8.18 1.26.18 2.07v15.5c0 .8 0 1.75-.09 2.19-.03.34-.17.55-.34.9h3.17c-.14-.41-.26-.64-.31-1.05-.12-.46-.1-.72-.1-1.18V42.9c.15.08.27.14.38.26.26.2.35.4.58.69l8.67 11.27h3.41a15.03 15.03 0 0 1-1.1-.87m-11.9-11.61v-7.46c.84-.37 1.39-.4 2.28-.4 3.5.14 4.08 2 4.19 3.72.17 2.4-1.62 3.96-4.6 4.2-.68.02-1.47 0-1.87-.06m-14.96 17.1c.2 1.04.14 1.7.14 2.75v13.7L29.42 58.94h-3.18c.29.17.46.34.6.66.18.32.24.58.24.92v18.03c0 .44 0 .73-.12 1.16-.06.32-.17.5-.37.78h2.74c-.11-.37-.2-.58-.26-.92-.2-.96-.2-.96-.2-1.59V61.94l17.45 19.27-.02-20.2c0-.43 0-.69.08-1.15.06-.37.12-.6.23-.95h-2.43c.1.32.15.52.2.84m16.7 19.12h-6.9v-9.65h5.78c.35 0 .6 0 .95.06.5.11.78.2 1.22.4v-2.05H54.1v-7.1h5.86c.5 0 .84-.1 1.33.08.35.12.58.26.84.52v-2.17H51.12c.2.2.29.35.4.6.12.33.18.56.18.93v18.1c0 .4.05.69-.06 1.09a2.24 2.24 0 0 1-.38.81h12.46l.75-2.42a6.68 6.68 0 0 1-3.38.8M17.9 68.61a2.04 2.04 0 0 0-.3-.09c-.05-.01-.15.03-.19 0l-.03-.04c-.12 0-.5.12-.6.18-.3.15-.4.3-.65.33h-.05a.9.9 0 0 1-.26-.19c-.02-.04.01-.15.02-.2.1-.49.82-.33 1.12-.47a.9.9 0 0 0 .35-.33c.07-.13.19-.62.15-.75-.02-.05-.2-.56-.12-.79.02-.05.07-.19.05-.24a.68.68 0 0 0-.11-.11c-.15.05-.28.14-.43.17-.16.04-.36 0-.51.02-.3.04-.69.23-.84.56-.31.66 0 1.06.02 1.18 0 .05.03.05.04.1 0 .15-.3.36-.44.34-.11-.02-.3-.22-.32-.37a1.82 1.82 0 0 1 .04-.33l.05-.25c-.01-.15.03-.38-.04-.53a3.1 3.1 0 0 0-.22-.4 6.97 6.97 0 0 0-.53-.34 5.53 5.53 0 0 0-.27-.02 32.98 32.98 0 0 0-.45-.03l-.41-.24c-.03-.01-.16.03-.17.03-.02.05-.07.11-.07.17.01.2.14.3.1.52-.06.23-.19.47-.19.71 0 .32.27.72.55.91.04.04.16.05.2.08.1.05.14.12.23.15.04.01.14-.02.18-.01.04 0 .56.35.58.4.03.05-.02.18-.06.22-.1.14-.25.14-.38.12l-.04.02-.16-.1c-.05-.04-.07-.13-.12-.17a4.59 4.59 0 0 0-.42-.2c-.14-.05-.5-.05-.65.03-.09.05-.24.21-.3.27-.04.04-.1.05-.13.1-.12.15-.16.41-.25.57-.06.1-.18.18-.22.3-.03.1.01.13.07.27l.05-.01s.3.2.43.34c.13.15.5.33.65.32.07 0 .34-.05.4-.06.12-.02.31-.1.43-.21.04-.04.33-.5.35-.55.01-.03.35-.44.5-.35.01 0 .2.18.24.26a.58.58 0 0 1-.03.27c-.06.14-.25.19-.38.33a2.57 2.57 0 0 0-.28.44c-.03.08 0 .17 0 .25-.01.23 0 .5.25.77.04.05.16.13.21.17.17.16.36.48.55.44.2-.04.3-.26.5-.38.23-.13.45-.35.54-.56.04-.09.02-.29.04-.4 0 0-.07-.31-.13-.43-.04-.09-.07-.23-.17-.34-.12-.14-.4-.2-.48-.38l.04-.08c0-.05-.05-.06-.06-.12a.85.85 0 0 1 .1-.27c.15-.18.5-.12.6 0 .16.16.13.37.22.53.2.36.73.6 1 .56.06-.01.27-.04.33-.07.16-.08.3-.25.38-.33.13-.13.41-.25.5-.4.05-.13-.14-.48-.2-.62-.06-.17-.21-.54-.4-.67m59.26.98c-.08-.16-.12-.42-.24-.58-.03-.04-.1-.05-.13-.09-.07-.06-.21-.22-.3-.26a1.04 1.04 0 0 0-.66-.03 4.21 4.21 0 0 0-.42.2c-.04.04-.06.12-.11.16-.03.03-.11.07-.17.1l-.04-.02c-.12.02-.27.02-.38-.12-.03-.04-.08-.17-.06-.22.02-.05.55-.38.58-.4.04-.01.14.02.19 0 .1-.02.13-.09.22-.14.05-.03.16-.04.21-.08.27-.18.54-.59.54-.91 0-.24-.12-.48-.18-.7-.05-.22.08-.34.09-.53 0-.06-.05-.12-.07-.17-.01 0-.14-.04-.17-.03a29 29 0 0 0-.4.24l-.45.03-.27.02a11.5 11.5 0 0 0-.54.34 2.83 2.83 0 0 0-.22.4c-.06.15-.02.38-.03.53l.04.25c.03.07.05.32.05.33-.01.15-.21.35-.32.37-.15.02-.45-.19-.44-.34 0-.05.03-.05.03-.1.02-.11.34-.52.03-1.18-.16-.33-.54-.52-.84-.56-.16-.02-.35.02-.51-.01-.16-.04-.29-.13-.43-.18l-.11.1c-.02.06.03.2.04.25.07.22-.1.74-.12.78-.04.14.08.63.16.76a.87.87 0 0 0 .35.34c.3.13 1.01-.03 1.12.46.01.05.04.16.02.2a.87.87 0 0 1-.26.2l-.06-.02c-.24-.02-.36-.17-.63-.32a2.3 2.3 0 0 0-.62-.18l-.02.04c-.04.03-.14-.01-.19 0a2.14 2.14 0 0 0-.3.1c-.2.12-.35.5-.41.66-.06.14-.25.5-.18.62.08.15.36.27.48.4.1.08.22.25.39.33.06.03.26.06.32.07.27.04.8-.2 1-.56.1-.16.06-.37.22-.53.11-.12.45-.18.62 0a.83.83 0 0 1 .08.28c0 .05-.05.06-.05.11 0 .01.04.07.03.09-.06.16-.36.24-.47.37-.1.11-.14.25-.18.34a2.5 2.5 0 0 0-.12.44c.01.1 0 .3.03.4.1.2.31.42.54.55.2.12.3.34.5.38.2.04.4-.28.56-.44.04-.04.16-.12.2-.17a.98.98 0 0 0 .26-.77c0-.08.03-.17 0-.25a2.79 2.79 0 0 0-.28-.44c-.14-.14-.32-.2-.39-.33a.58.58 0 0 1-.03-.27c.04-.08.23-.25.25-.26.14-.09.48.32.5.35 0 .04.3.52.35.55.11.1.31.2.43.21.05.01.32.06.4.06.16 0 .51-.17.64-.31.14-.15.43-.35.43-.35h.06c.05-.13.1-.15.06-.26-.04-.12-.15-.2-.22-.3"/></g></svg>