<svg xmlns="http://www.w3.org/2000/svg" width="100" height="50" viewBox="0 0 26.458 13.229" xmlns:v="https://vecta.io/nano"><g transform="matrix(.617497 0 0 .617497 -.000002 -170.16766)"><path d="M21.424 297h21.424v-21.424H21.424z" fill="#ed1c2e"/><g fill="#fff"><path d="M25.983 282.605l.298.17c.13.073.244.15.244.3 0 .083-.026.15-.08.2-.07.067-.18.1-.322.095-.15-.002-.255-.01-.374-.108l-.023-.02v.212l.01.004c.122.046.21.047.33.05h.04.03c.144 0 .378-.024.516-.164.075-.076.11-.176.107-.298-.01-.257-.147-.334-.32-.43l-.06-.033-.26-.15c-.107-.06-.175-.12-.186-.227-.005-.063.017-.122.065-.17.067-.07.18-.1.282-.103.124.004.213.023.302.108l.024.023v-.21l-.01-.004c-.106-.043-.182-.045-.288-.048h-.046c-.17-.006-.33.05-.43.148-.074.073-.114.166-.113.27.002.165.08.28.263.388"/><path d="M26.84 281.897c.017.02.022.034.03.058l.6 1.592.422-1.164.43 1.155.558-1.555c.006-.018.013-.03.022-.046.028-.046.04-.066.065-.094l.02-.023h-.297l.014.022c.01.016.016.03.017.052s-.005.04-.02.07l-.36 1.067-.4-1.08c-.01-.03-.012-.045-.006-.07.004-.016.008-.023.016-.038l.012-.02H27.6l.025.024c.017.017.03.03.045.05.024.03.034.04.042.06l.08.2-.328.873-.387-1.1c-.005-.013-.004-.023.001-.042s.007-.025.018-.042l.013-.022h-.378l.046.026c.025.015.037.026.055.05m2.343.016a.21.21 0 0 1 .012.081v1.33c0 .032 0 .052-.012.08-.006.02-.012.032-.024.05l-.015.022h.307l-.013-.022c-.02-.03-.026-.04-.03-.056-.006-.054-.006-.126-.006-.2v-1.2c0-.023 0-.037.014-.087l.025-.06.01-.02h-.32l.015.022a.25.25 0 0 1 .033.07m.572-.023c.012.02.016.038.016.063v1.366c0 .032 0 .053-.008.085-.004.02-.01.032-.026.054l-.015.022h.254l-.012-.038c-.006-.017-.01-.03-.013-.05-.015-.07-.015-.07-.015-.117V282.1l1.322 1.46-.002-1.567c0-.032 0-.05.006-.085h0c.004-.028.008-.044.017-.07l.006-.02h-.222l.007.027.013.054c.012.062.012.107.01.163v1.043l-1.124-1.283h-.3l.045.026c.02.012.03.024.04.045m2.01.067h.145c.185 0 .3.1.3.27.003.083-.02.153-.07.203-.056.058-.145.1-.26.1h-.128zm.137.694c.274.008.416.126.422.35s-.2.343-.405.355a.36.36 0 0 1-.145-.016v-.678c.047-.01.078-.01.128-.01m-.358-.75a.2.2 0 0 1 .021.09v1.346c0 .03-.004.05-.014.08l-.004.007a.19.19 0 0 1-.021.037l-.017.023h.464c.34 0 .552-.184.555-.48 0-.215-.098-.357-.292-.422l-.038-.014.036-.022c.135-.078.188-.17.184-.32-.012-.227-.188-.405-.4-.405h-.52l.015.022c.016.022.024.036.034.06m1.248.016c.003.02.003.033.002.05l-.001.02v.94a.53.53 0 0 0 .161.385.72.72 0 0 0 .498.2h.01c.353-.007.62-.25.62-.566v-.98c0-.018-.001-.033.002-.054a.35.35 0 0 1 .017-.069l.006-.02h-.268l.008.02c.01.025.015.04.02.07a.47.47 0 0 1 .005.081v.937a.39.39 0 0 1-.41.4.46.46 0 0 1-.334-.128.41.41 0 0 1-.128-.295v-.95c0-.02-.001-.036.004-.058s.008-.04.02-.064l.01-.02h-.265l.007.02c.01.03.015.048.02.083m1.796.59v-.543a.35.35 0 0 1 .158-.026c.252.01.295.135.303.27.013.172-.113.285-.334.302-.044.002-.094.001-.127-.003m-.22-.6a.73.73 0 0 1 .013.155v1.173l-.007.165c-.001.018-.008.03-.017.048l-.018.036h.283l-.014-.04c-.007-.02-.013-.034-.016-.058s-.007-.044-.006-.068v-.742a.14.14 0 0 1 .032.035l.014.02.66.86h.308l-.035-.026-.082-.065c-.048-.04-.085-.1-.133-.153l-.394-.5a1.09 1.09 0 0 0-.116-.127.39.39 0 0 0 .268-.093.42.42 0 0 0 .15-.312.36.36 0 0 0-.101-.266c-.077-.08-.192-.125-.314-.125h-.516l.02.035c.01.017.017.03.02.05m1.336-.013c.012.02.016.038.016.063v1.366c0 .032 0 .053-.008.085-.004.02-.01.032-.026.054l-.016.022h.254l-.006-.018-.007-.022c-.005-.016-.01-.03-.013-.048-.015-.07-.015-.07-.015-.117V282.1l1.322 1.46-.002-1.567c0-.032 0-.05.006-.085v-.001c.004-.026.008-.043.017-.07l.006-.02h-.222l.006.022.014.06c.012.062.01.107.01.163v1.042L35.9 281.82h-.3l.045.026c.02.012.03.024.04.045m1.805-.004a.17.17 0 0 1 .012.065v1.392a.16.16 0 0 1-.005.057c-.006.02-.013.038-.026.057l-.016.022h.98l.072-.232-.034.022a.21.21 0 0 1-.071.034c-.068.022-.1.026-.177.026h-.5v-.703h.424c.026 0 .045 0 .07.004.035.008.057.015.1.03l.02.01v-.192h-.608v-.5h.458c.024-.001.043-.002.068.007s.04.018.058.036l.024.024v-.212h-.882l.025.024c.014.014.02.024.027.04m-12.863 4.423c.353-.007.62-.25.62-.566v-.978c0-.02-.001-.033.002-.055a.34.34 0 0 1 .017-.07l.006-.02h-.268l.008.02a.33.33 0 0 1 .02.07c.005.028.004.05.004.08v.937a.39.39 0 0 1-.41.4c-.124.005-.246-.042-.334-.128-.083-.08-.128-.185-.128-.295v-.952c0-.02-.001-.036.004-.057.004-.027.008-.042.02-.064l.01-.02h-.265l.007.02a.48.48 0 0 1 .02.083.23.23 0 0 1 .002.051v.96a.53.53 0 0 0 .161.385.71.71 0 0 0 .497.19zm1.118-.065c-.005-.016-.01-.03-.013-.048-.015-.07-.015-.07-.015-.117v-1.178l1.322 1.46-.002-1.567c0-.033 0-.05.006-.085h0a.35.35 0 0 1 .017-.07l.006-.02h-.222l.006.022.014.06c.012.062.012.107.01.163v1.043l-1.124-1.283h-.298l.044.026a.09.09 0 0 1 .041.045c.012.02.016.038.016.063v1.366c0 .032 0 .053-.008.085-.004.02-.01.032-.026.054l-.016.022h.254l-.006-.018-.007-.02m1.857-1.54l.025-.06.01-.02h-.32l.014.022a.25.25 0 0 1 .033.07.21.21 0 0 1 .013.081v1.33c0 .032 0 .052-.013.08-.006.02-.012.032-.024.05l-.014.022h.307l-.013-.022a.15.15 0 0 1-.029-.055c-.006-.054-.006-.127-.006-.2v-1.202c0-.023 0-.037.014-.087m.515-.086h-.335l.04.026c.023.014.034.026.048.05.01.013.013.024.02.037l.784 1.602.728-1.548a.44.44 0 0 1 .034-.062v-.001a.49.49 0 0 1 .051-.079l.018-.023h-.276l.006.018c.006.02.008.034.008.054s-.008.033-.016.05l-.01.02-.54 1.156-.574-1.2c-.006-.015-.01-.024-.01-.038s.001-.02.01-.032zm1.593 1.64l-.016.023h.98l.072-.232-.033.022c-.026.017-.043.025-.07.033-.068.022-.1.026-.177.026h-.5v-.703h.423c.026 0 .045 0 .07.004a.39.39 0 0 1 .089.03l.02.01v-.192h-.608v-.5h.43l.028-.001c.024-.002.043-.002.068.007s.04.018.058.036l.024.024v-.212h-.882l.024.024c.014.014.02.024.027.04a.17.17 0 0 1 .012.065v1.37l.001.023c.001.02.001.036-.005.056s-.013.037-.026.056m1.466-1.497c.054-.023.093-.026.158-.026.252.01.295.142.303.27.012.172-.113.285-.334.302a.98.98 0 0 1-.128-.003zm.98 1.5l-.082-.065c-.047-.04-.084-.1-.13-.15l-.397-.504c-.04-.052-.067-.08-.116-.127.097.005.2-.028.268-.093a.42.42 0 0 0 .15-.31.36.36 0 0 0-.1-.267c-.077-.08-.192-.125-.314-.125h-.516l.02.035c.01.017.017.03.022.05a.76.76 0 0 1 .013.155v1.173l-.006.165c-.002.018-.008.03-.017.048l-.018.035h.284l-.014-.04c-.007-.02-.013-.035-.016-.058l-.006-.068v-.743c.017.014.023.023.032.035l.014.02.66.86h.308z"/><path d="M32.644 286.187c-.15-.002-.255-.01-.374-.108l-.023-.02v.212l.01.003c.122.046.208.047.327.05l.043.001h.028c.144 0 .38-.024.517-.164.075-.076.1-.176.106-.297-.01-.258-.147-.334-.32-.432l-.06-.033-.26-.15c-.107-.06-.175-.12-.186-.227-.005-.063.017-.122.065-.17.062-.064.162-.103.26-.103l.02.001c.124.004.213.023.3.108l.024.023v-.21l-.01-.004a.72.72 0 0 0-.285-.048l-.048-.001c-.007 0-.015 0-.022 0-.16 0-.31.055-.407.148-.075.073-.114.166-.113.27.002.165.08.28.263.39l.298.17c.13.073.244.15.244.3 0 .083-.026.15-.08.2-.07.067-.18.1-.322.095"/><path d="M33.732 284.658l.01-.02h-.318l.014.022c.016.024.024.042.033.07s.013.05.013.08v1.33c0 .032 0 .052-.013.08-.006.02-.012.03-.024.05l-.014.022h.307l-.013-.022c-.02-.03-.026-.04-.03-.056-.006-.054-.006-.127-.006-.21v-1.2c0-.024 0-.037.014-.088l-.013-.004.014.003.025-.06"/><path d="M34.053 284.788h.397v1.38c.001.02.002.036-.002.056s-.01.032-.02.05l-.012.02h.303l-.013-.022c-.013-.022-.02-.035-.022-.054-.01-.05-.01-.054-.01-.072v-1.367h.343c.034 0 .057.004.092.015h.001a.29.29 0 0 1 .071.025l.023.01-.018-.185-.001-.013h-1.252l-.044.212.028-.017a.23.23 0 0 1 .082-.034c.02-.006.033-.008.053-.008m2.474.004l.048-.07c.016-.022.03-.037.053-.06l.027-.025h-.276l.002.016c.002.014.002.024 0 .037s-.01.03-.022.046l-.36.57-.33-.534-.005-.007c-.013-.02-.022-.034-.03-.056s-.006-.032-.004-.052v-.016h-.32l.032.025c.018.015.03.026.042.04l.004.005.04.06.442.695v.73c.001.023.001.03-.002.042s-.005.026-.014.046l-.01.02h.254l-.006-.02-.01-.037-.002-.01c-.004-.02-.006-.034-.006-.052v-.72zm1.797-.026c.358.006.63.3.636.682a.72.72 0 0 1-.214.512.61.61 0 0 1-.428.179c-.368-.008-.64-.314-.634-.695.006-.33.23-.677.632-.677zm-.01-.163c-.218 0-.425.085-.585.24s-.26.382-.26.6a.85.85 0 0 0 .83.85h.02a.86.86 0 0 0 .602-.246.83.83 0 0 0 .243-.609.85.85 0 0 0-.828-.843h-.024"/><path d="M39.627 285.292v-.508h.452c.03.001.053 0 .08.006s.035.017.054.032l.026.02v-.207h-.867l.016.022c.01.015.02.027.025.045s.012.04.012.063v1.37l.001.028c.001.02.001.035-.002.054a.24.24 0 0 1-.025.06l-.012.02h.28l-.004-.017c-.002-.01-.005-.016-.008-.023s-.006-.013-.007-.024l-.013-.2v-.583h.516a.2.2 0 0 1 .053.008l.036.008v-.165zm-15.195 2.158l-.044.212.028-.017c.028-.017.05-.027.082-.034a.16.16 0 0 1 .053-.008h.398v1.35.03c.001.02.001.036-.002.056s-.01.03-.02.05l-.012.02h.303l-.013-.022c-.012-.02-.02-.034-.022-.054-.01-.05-.01-.053-.008-.07v-1.367h.343c.035 0 .057.004.092.014h.001a.28.28 0 0 1 .071.025l.023.012-.02-.2zm2.454 1.484a.49.49 0 0 1-.177.026h-.5v-.703h.423a.37.37 0 0 1 .069.004.38.38 0 0 1 .089.03l.02.01v-.192h-.6v-.5h.43l.028-.001c.024-.001.043-.002.068.007s.04.018.058.036l.024.024v-.212h-.882l.024.024c.014.014.02.024.027.04.008.023.012.04.012.065v1.37.023a.16.16 0 0 1-.005.057c-.006.02-.013.037-.026.056l-.016.022h.98l.072-.232-.033.022a.21.21 0 0 1-.071.034"/><path d="M27.975 288.98c-.218.004-.413-.067-.55-.204a.65.65 0 0 1-.191-.486c.002-.2.078-.38.212-.51s.308-.195.503-.195a.71.71 0 0 1 .391.101l.02.012v-.194l-.01-.004a.91.91 0 0 0-.391-.071h-.01a.96.96 0 0 0-.686.267.83.83 0 0 0-.242.594c.001.235.092.45.256.606s.396.245.65.245h.05l.024-.001c.14-.004.235-.007.374-.058l.006-.002.108-.266-.04.027a.82.82 0 0 1-.476.14"/><path d="M29.958 289.025c-.006-.027-.008-.046-.008-.07v-1.3c-.001-.037-.001-.067.01-.106a.34.34 0 0 1 .023-.066l.01-.02h-.3l.022.024a.15.15 0 0 1 .038.07c.008.023.007.04.006.064v.493h-.86v-.466c0-.043-.001-.07.012-.1l.003-.008c.007-.017.01-.03.022-.047l.013-.02h-.3l.017.023c.017.023.025.037.035.06.008.03.008.05.008.08v1.367c0 .025 0 .043-.007.065a.24.24 0 0 1-.027.043l-.017.023h.307l-.023-.034c-.01-.013-.016-.023-.02-.036-.013-.055-.012-.075-.01-.1l.001-.036v-.646h.858v.77a.13.13 0 0 1-.03.064l-.02.023h.297l-.01-.02a.23.23 0 0 1-.025-.062m1.627-1.572l.013.054a.72.72 0 0 1 .011.162v1.043L30.5 287.45h-.298l.044.026c.02.012.03.024.04.045s.016.038.016.063v1.365c0 .033 0 .053-.008.085-.004.022-.012.033-.026.053l-.016.023h.255l-.012-.038c-.006-.017-.01-.03-.013-.05-.015-.07-.015-.07-.015-.117v-1.178l1.322 1.46-.002-1.566c0-.033 0-.05.006-.085h0c.004-.026.008-.043.017-.07l.006-.02h-.222zm1.287.102c.358.006.63.3.636.682a.72.72 0 0 1-.214.513.61.61 0 0 1-.427.178c-.368-.008-.64-.313-.634-.695.006-.33.23-.677.632-.677zm.014-.162a.84.84 0 0 0-.609.239c-.165.16-.26.382-.26.6a.85.85 0 0 0 .83.85h.02c.226 0 .444-.1.602-.245a.83.83 0 0 0 .243-.61.85.85 0 0 0-.828-.843m2.047 1.518a.29.29 0 0 1-.11.02l-.616.002-.002-1.332c-.001-.038-.001-.065.01-.102a.27.27 0 0 1 .023-.059l.01-.02h-.305l.016.023c.017.024.025.043.033.067.008.03.01.048.01.08v1.352c0 .027 0 .045-.01.07-.006.015-.013.027-.024.043l-.016.023h.985l.074-.198-.023-.016c-.04.035-.042.035-.053.038"/><path d="M35.877 287.576c.358.006.63.3.636.682a.72.72 0 0 1-.214.513.61.61 0 0 1-.427.178c-.37-.008-.64-.313-.635-.695.006-.33.23-.677.632-.677zm.014-.162h-.024c-.218 0-.425.085-.585.24-.165.16-.26.382-.26.6a.85.85 0 0 0 .83.85h.02a.86.86 0 0 0 .602-.246.83.83 0 0 0 .243-.609.85.85 0 0 0-.828-.843m2.29.88c.023.025.037.04.047.074.018.055.017.1.017.157v.335c-.128.073-.228.1-.356.097a.72.72 0 0 1-.524-.181c-.135-.125-.212-.3-.22-.495a.7.7 0 0 1 .186-.503c.12-.124.284-.2.478-.194.137 0 .297.013.45.105l.022.013v-.203l-.01-.004c-.158-.06-.267-.066-.43-.07h-.01c-.526 0-.884.343-.892.857-.003.224.084.434.246.592.17.165.4.255.65.255h.045c.238-.01.447-.095.552-.164l.007-.004-.002-.566c0-.02-.001-.032.006-.05v-.001c.006-.02.013-.032.028-.052l.018-.023h-.332z"/><path d="M39.568 287.463c.002.014.002.024 0 .036s-.01.028-.022.046l-.36.57-.33-.534-.005-.007c-.013-.02-.022-.034-.03-.056s-.006-.033-.004-.053v-.016h-.32l.032.025c.02.016.03.027.044.043l.002.002.04.06.442.695v.73c.001.024.001.03-.002.042s-.005.026-.014.046l-.01.02h.254l-.006-.02c-.005-.015-.007-.025-.01-.037l-.003-.01c-.004-.022-.006-.034-.006-.052v-.72l.496-.744a.36.36 0 0 1 .053-.059l.027-.025h-.276z"/></g><path d="M0 275.576h21.424V297H0z"/><path d="M3.486 282.767c-.478-.007-.78.007-1.228-.162v-.58c.405.33.765.368 1.287.375.868.03 1.398-.36 1.398-1.044 0-.522-.4-.795-.846-1.052l-1-.574c-.537-.316-.853-.677-.86-1.265-.007-.868.846-1.383 1.773-1.354.434.015.706 0 1.103.162v.566c-.3-.294-.618-.36-1.045-.375-.603-.037-1.265.368-1.214.97.037.4.302.603.647.802l.875.508c.662.382 1.214.588 1.25 1.523.044 1.214-1.148 1.523-2.14 1.5m8.9-5.05c-.042.077-.077.126-.104.2l-1.735 4.837-1.373-3.68-1.345 3.708-1.84-4.955a.47.47 0 0 0-.098-.195.61.61 0 0 0-.188-.167h.955c-.035.056-.056.1-.063.153-.014.056-.02.098 0 .153l1.276 3.624 1.094-2.913-.258-.655c-.035-.1-.084-.132-.14-.202a1.71 1.71 0 0 0-.146-.16h.948a.45.45 0 0 0-.056.132.45.45 0 0 0 .02.25l1.282 3.56 1.185-3.52c.042-.1.07-.153.063-.244-.007-.077-.02-.125-.063-.188h.767a1.77 1.77 0 0 0-.18.25m.786 1.27h-.636l.018.028a.56.56 0 0 1 .076.162.5.5 0 0 1 .03.186v2.98c0 .072 0 .12-.028.185v.002c-.014.046-.027.073-.057.118l-.018.028h.638l-.016-.027-.022-.035c-.02-.03-.038-.056-.044-.096-.014-.12-.014-.284-.014-.473v-2.692c0-.054 0-.086.034-.2l.058-.14.013-.025zm5.6-1.29c-.02.1-.02.174-.02.28l.007 4.872-4.2-4.648v3.868a1.23 1.23 0 0 0 .05.383c.014.084.035.132.062.223h-.662c.05-.07.077-.1.1-.188.028-.104.028-.174.028-.28v-4.35c0-.084-.014-.146-.056-.223a.33.33 0 0 0-.146-.16h.767l3.645 4.16v-3.303c0-.25.014-.4-.035-.662-.014-.077-.028-.126-.05-.202h.585c-.028.084-.042.14-.056.23M5.7 286.163c-.174 0-.28 0-.453.042v2.23a1.26 1.26 0 0 0 .509.063c.683-.042 1.352-.425 1.33-1.178-.02-.892-.697-1.136-1.387-1.157m.028-2.2h-.5v1.875h.453c.76 0 1.108-.4 1.087-.976-.028-.522-.383-.9-1.03-.9m.195 4.857H4.525c.042-.056.056-.1.084-.146.035-.097.05-.167.05-.272v-4.286a.68.68 0 0 0-.07-.307 1.07 1.07 0 0 0-.111-.195H6.05c.676 0 1.2.572 1.234 1.247.014.495-.188.76-.564.976l-.195.12.2.077c.58.195.9.62.9 1.303-.007.92-.662 1.484-1.722 1.484m6.587-4.975c-.014.098-.007.153-.007.25v3.046c0 1.004-.857 1.735-1.93 1.756-1.15.014-2.084-.725-2.084-1.784v-3c0-.1.007-.146-.007-.237a1.09 1.09 0 0 0-.062-.272h.7a.71.71 0 0 0-.063.216c-.02.1-.014.153-.014.244v2.976c0 .802.718 1.422 1.52 1.394.794-.02 1.352-.613 1.352-1.352V284.1c0-.104 0-.167-.014-.265a1.24 1.24 0 0 0-.07-.23h.725c-.028.084-.042.14-.056.23m2.34.077c-.216 0-.35.007-.55.098v1.798a3.06 3.06 0 0 0 .453.014c.718-.056 1.15-.432 1.108-1-.028-.418-.167-.864-1-.9m1.763 4.906l-2.1-2.718c-.056-.07-.077-.12-.14-.167-.028-.028-.056-.042-.1-.063v2.4c0 .112-.007.174.02.286.014.097.042.153.077.25h-.767c.042-.084.077-.133.084-.216.02-.104.02-.334.02-.53v-3.736a2.43 2.43 0 0 0-.042-.502c-.02-.1-.056-.14-.098-.216h1.568c.683 0 1.296.453 1.275 1.2-.014.725-.648 1.345-1.415 1.227.042.035.062.063.105.098.146.14.23.23.362.397l1.24 1.575c.16.2.286.376.446.516l.265.2zm-5.452 1.134c-.02.1-.02.174-.02.28l.007 4.872-4.2-4.65v3.868a1.23 1.23 0 0 0 .05.383c.014.084.035.133.063.223H6.4c.05-.07.077-.1.1-.188.028-.104.028-.174.028-.28v-4.35c0-.084-.014-.146-.056-.223a.33.33 0 0 0-.146-.16h.767l3.645 4.16v-3.303c0-.25.014-.4-.035-.662-.014-.077-.028-.126-.05-.202h.586c-.028.084-.042.14-.056.23m4.17 4.978H12.34a.53.53 0 0 0 .09-.195c.028-.098.014-.168.014-.265v-4.363a.58.58 0 0 0-.042-.223c-.028-.063-.05-.097-.098-.146h2.655v.523c-.062-.063-.118-.098-.202-.126-.12-.042-.202-.02-.32-.02h-1.415v1.715h1.937v.495c-.104-.05-.174-.07-.293-.098-.083-.014-.146-.014-.23-.014h-1.394v2.328h1.666c.23 0 .362-.014.58-.084a.74.74 0 0 0 .237-.111zm-12.28-3.544c.003 0 .034-.01.04-.006a11.88 11.88 0 0 0 .099.057 7.76 7.76 0 0 1 .108.006l.065.007a1.52 1.52 0 0 1 .13.08.74.74 0 0 1 .053.097c.016.036.006.093.008.128a.47.47 0 0 1-.01.06c-.003.012-.01.08-.01.08.003.035.05.084.076.088.036.006.108-.044.107-.08-.001-.013-.007-.01-.01-.023-.004-.028-.08-.126-.006-.285.037-.08.13-.125.204-.134.037-.005.084.004.123-.004s.067-.03.104-.043a.21.21 0 0 0 .026.026c.005.014-.006.046-.01.06-.018.054.024.178.028.2a.41.41 0 0 1-.037.181c-.017.027-.045.063-.085.08-.07.032-.244-.005-.27.114-.002.01-.01.036-.004.047a.26.26 0 0 0 .06.046c.073-.007.1-.044.168-.08a.55.55 0 0 1 .147-.044l.007.01c.01.006.033-.003.044-.001a.64.64 0 0 1 .075.022c.044.03.082.12.098.162.013.034.06.12.044.148-.02.037-.087.066-.118.097-.022.02-.053.06-.093.08a.48.48 0 0 1-.078.017c-.066.01-.194-.048-.243-.135-.022-.04-.013-.088-.052-.127-.028-.028-.1-.044-.15 0-.006.006-.022.058-.02.066s.012.016.012.03c0 .002-.01.018-.008.02.017.04.086.058.115.1.023.027.032.06.042.082.014.03.03.103.03.106-.002.025.001.073-.008.095a.31.31 0 0 1-.13.134c-.055.03-.075.083-.12.092s-.094-.067-.134-.107c-.01-.01-.04-.03-.05-.04-.06-.065-.064-.132-.063-.186 0-.02-.005-.043.002-.06a.63.63 0 0 1 .067-.106c.033-.034.077-.047.093-.08.006-.012.012-.052.007-.065-.01-.02-.056-.06-.06-.063-.035-.02-.118.077-.12.084a1.34 1.34 0 0 1-.085.133c-.028.024-.075.046-.105.05a1.21 1.21 0 0 1-.095.014.3.3 0 0 1-.157-.076c-.03-.034-.103-.084-.103-.084-.027-.03-.037-.036-.028-.062s.037-.046.053-.074c.02-.037.03-.1.06-.138.007-.01.022-.013.03-.02.017-.015.053-.055.073-.066.038-.02.124-.02.16-.007.018.008.1.04.1.05s.017.03.028.04.026.017.04.025l.01-.007c.03.005.067.005.092-.027.008-.01.02-.042.014-.054a1.13 1.13 0 0 0-.14-.095c-.01-.002-.033.005-.044.001-.023-.007-.032-.023-.055-.036-.01-.006-.038-.01-.05-.018-.067-.046-.13-.144-.13-.22-.001-.057.03-.116.044-.17s-.02-.08-.022-.126c-.001-.013.012-.028.016-.04m15.3-.006c-.003 0-.034-.01-.04-.006l-.1.057a9.17 9.17 0 0 0-.108.006 1.03 1.03 0 0 0-.065.007 1.75 1.75 0 0 0-.13.08.71.71 0 0 0-.053.097c-.016.036-.005.093-.008.128a.47.47 0 0 0 .01.06.49.49 0 0 1 .01.081c-.002.034-.05.084-.076.088-.036.005-.108-.044-.107-.082.001-.013.007-.01.01-.023.004-.028.08-.126.006-.285-.037-.08-.13-.125-.204-.134-.037-.005-.083.004-.123-.004s-.067-.03-.104-.043c0 0-.023.02-.026.026-.006.014.006.046.01.06.017.054-.024.18-.028.2a.39.39 0 0 0 .037.18.21.21 0 0 0 .084.08c.07.032.244-.005.27.114.002.01.01.036.004.047s-.055.046-.062.046c-.072-.008-.1-.044-.167-.08-.028-.015-.118-.043-.148-.043l-.007.01c-.01.006-.033-.003-.044-.001a.66.66 0 0 0-.075.022c-.044.03-.082.12-.098.162-.013.034-.06.118-.043.148.02.037.087.066.118.097.022.02.053.06.093.08.014.007.063.015.077.017.066.01.194-.048.243-.135.022-.038.013-.088.052-.127.028-.028.1-.044.15 0a.22.22 0 0 1 .02.066c-.002.008-.012.016-.012.03 0 .002.01.018.008.02-.017.04-.086.058-.115.1-.023.027-.032.06-.042.082a.63.63 0 0 0-.03.105c.002.025-.001.073.008.095a.31.31 0 0 0 .13.134c.055.03.075.083.12.092s.094-.067.134-.107c.01-.01.04-.03.05-.04a.25.25 0 0 0 .063-.186c0-.02.005-.043-.002-.06a.63.63 0 0 0-.067-.106c-.033-.034-.077-.047-.093-.08-.006-.012-.012-.052-.007-.064.008-.02.056-.06.06-.063.035-.02.118.077.12.084a1.25 1.25 0 0 0 .085.134c.028.024.075.046.105.05l.094.014a.3.3 0 0 0 .157-.076c.03-.034.103-.084.103-.084.027-.03.037-.036.03-.062s-.037-.046-.053-.073c-.02-.037-.03-.1-.06-.138-.007-.01-.02-.013-.03-.02-.017-.015-.053-.055-.073-.066a.25.25 0 0 0-.159-.007 1.08 1.08 0 0 0-.101.048c-.012.01-.017.03-.028.04s-.026.017-.04.025l-.01-.007c-.03.005-.067.005-.092-.027-.008-.01-.02-.042-.014-.054a1.13 1.13 0 0 1 .141-.095c.01-.003.033.004.044.001.023-.007.032-.023.055-.036.01-.006.038-.01.05-.018.067-.046.13-.144.13-.22.001-.057-.03-.116-.043-.17s.02-.08.02-.126c.001-.013-.01-.028-.016-.04" fill="#fff"/></g></svg>