<svg xmlns="http://www.w3.org/2000/svg" width="77.737" height="77.737"><path d="M69.056 34.29c-16.9.2-38.1 4.5-47.4 13.6-4.7 4.6-6.4 10.2-4.9 16.5 1.7 7 7.4 10.9 12.2 12.2 1.7.5 3 .5 3.4.4-.3-.2-1.1-1-1.1-1l-1-1.3c-.8-1.2-1.4-2.6-1.8-4.1-.3-1-.4-1.9-.4-2.9 0-2.8 1.2-5.5 3.4-7.8 5.3-5.5 16.6-8.3 33.6-8.2l10.1.2h.2l.1-.3c.3-.9 1.4-4.2 1.8-8.6.3-2.5.2-5.2-.1-8.2l-.1-.3-.2-.1c-2.2 0-4.8-.1-7.8-.1zM35.356.69c-2.4.2-5 .7-6.7 1.2h-.1l-.2.1-.1.2c-1.3 4.4-7.4 9.2-10.3 11.6l-1.2 1-1 .9c-2.4 2-4.6 3.9-6.7 6.1-1.7 1.8-4 4.5-5.6 7.3-1.3 2.3-2.2 4.9-2.7 7.8-.2 1.4-.4 2.9-.4 4.2 0 .5 0 1.1.1 1.6v.5c.1 1.4.4 2.6.6 3.4 0-.1.1-.3.1-.3l.4-1.5.1-.4.5-1.8c1.2-3.4 3-6.4 5.5-9.2 5.3-5.9 10.9-9.1 16.4-12.2 4.2-2.4 8.2-4.7 11.9-8.1 5-4.6 6.8-8.9 7.9-11.4l.3-.8h-.2c-2.2-.3-5.8-.4-8.6-.2z" fill="#fff"/><path d="M77.556 43.19c.3-2.6.2-5.4-.1-8.3 0-.2-.1-.3-.2-.4-.1-.1-.2-.1-.3-.1-2.4-.2-5-.3-7.9-.2-16.7.1-38.1 4.3-47.6 13.6-4.4 4.3-6.6 9.9-4.9 16.8 1.8 7.8 8.4 11.3 12.4 12.4 2.1.6 3.6.4 3.6.4s.3 0 .3-.1-.2-.3-.2-.3-.7-.6-1.2-1.1c-.4-.5-.7-.8-1-1.3-.6-1-1.3-2.3-1.8-4.1-1.1-3.8.1-7.5 2.9-10.3 4.7-4.9 15.2-8.2 33.4-8.1l10.1.2s.3 0 .4-.1c.1-.1.1-.1.2-.4.7-1.7 1.6-4.9 1.9-8.6zM43.956.69c-2.2-.4-5.8-.5-8.7-.2-2.3.2-5 .7-6.8 1.2-.2.1-.3.1-.4.2-.1 0-.1.1-.1.3-1.5 5.1-9.5 10.7-11.5 12.4-2.8 2.4-5.4 4.5-7.8 7-2 2.2-4.2 4.8-5.6 7.4-1.5 2.7-2.3 5.3-2.7 7.9-.4 2.2-.4 4.3-.3 5.9v.5c.2 2.3.6 3.3.7 3.5.1.2.1.4.3.4.2 0 .2-.3.2-.5.1-.2.3-1.1.5-1.8.3-.9.4-1.3.7-2.2.8-2.3 2.3-5.6 5.4-9 9.4-10.4 19.7-12.5 28.3-20.3 5.4-5 7.1-9.6 8.2-12.1.1-.2.2-.3.1-.4-.1-.2-.2-.2-.5-.2z" fill="#ed1a3b"/><path d="M77.056 31.49c-.7-3.4-2.2-7.8-4.1-11-.4-.7-1.1-1.9-1.5-2.6-.2-.3-.1-.2-.2-.3-.2-.2-.6-.2-.6-.2-1.1-.1-3.6-.2-6.5-.2-5.2-.1-11.6.6-18.7 2-10.5 2-19.7 5.6-27.1 10.4-8 5.2-13.9 11-16.1 20.4-.4 1.5.6 4.1 1.6 6.2.6 1.3 1.3 2.3 2 3.3.1.1.2.3.3.2.1 0 .1-.1.1-.3.1-.7.3-2 1-3.8 1.2-3.3 4.1-10.4 16.1-16.2 8-3.9 16.7-5.7 24.7-6.6 12.6-1.5 22.2-1.6 28.8-.8.2 0 .4.1.4 0-.2-.2-.2-.3-.2-.5z" fill="#ed1a3b"/><path d="M70.156 37.29h-3.5v4h-4v3.5h4v4h3.5v-4h4.1v-3.5h-4.1z" fill="#fff"/></svg>