<svg xmlns="http://www.w3.org/2000/svg" xmlns:xlink="http://www.w3.org/1999/xlink" height="238.295" width="238.295" version="1.0"><defs><linearGradient id="b"><stop stop-color="#040d1a" offset="0"/><stop stop-color="#fd110d" stop-opacity=".994" offset="1"/></linearGradient><linearGradient id="a"><stop stop-color="#0019ce" offset="0"/><stop stop-color="#00a4ce" stop-opacity=".498" offset="1"/></linearGradient><linearGradient id="c" y2="173.92" xlink:href="#a" gradientUnits="userSpaceOnUse" x2="124.42" y1="207.93" x1="152.7"/><linearGradient id="d" y2="68.737" xlink:href="#b" gradientUnits="userSpaceOnUse" x2="130.08" y1="172.15" x1="222.44"/><linearGradient id="f" y2="63.745" xlink:href="#b" gradientUnits="userSpaceOnUse" x2="188.37" y1="131.68" x1="331.94"/><linearGradient id="e" y2="130.1" gradientUnits="userSpaceOnUse" x2="193.23" y1="147.71" x1="154.35"><stop offset="0"/><stop stop-opacity="0" offset="1"/></linearGradient><linearGradient id="h" y2="8.904" gradientUnits="userSpaceOnUse" x2="147.31" y1="52.138" x1="151.23"><stop stop-color="#0b4ad0" offset="0"/><stop stop-color="#0bb7d0" stop-opacity="0" offset="1"/></linearGradient><linearGradient id="g" y2="128.72" xlink:href="#a" gradientUnits="userSpaceOnUse" x2="193.42" y1="163.73" x1="168.97"/></defs><path d="M134.25 142.43c-44.015 37.806-15.361 65.517 23.451 81.637l.221-43.142c-18.976-3.891-7.9-29.039-23.673-38.496z" stroke="#999" stroke-width=".25" fill="url(#c)" color="#000" transform="translate(-48.384 -10.46)"/><path d="M135.96 34.324c-.9.06-19.445 13.801-27.562 20.406-25.422 20.685-33.41 36.418-27.562 54.313 2.974 9.1 8.148 15.283 24.812 29.688 12.53 10.831 19.186 17.479 24.406 24.5.575.774 1.11 1.554 1.656 2.344.16.232.302.41.469.656.008.012.023.02.031.031.142.21.27.389.406.594a67.656 67.656 0 012.375 3.813 48.715 48.715 0 012.157 4.187c.032.072.061.146.093.219a47.973 47.973 0 011.22 2.968c.022.063.038.125.062.188.188.513.374 1.041.562 1.594.014.041.017.083.031.125.197.58.396 1.18.594 1.812.003.01-.003.022 0 .031 1.166 3.795 2.291 8.386 3.594 14.47.203.32.28.451.469.75.105.433.203.769.312 1.218 2.93 12.11 5.968 19.38 9.813 23.47.312.332 1.317.99 2.25 1.468.932.477 1.877.82 2.093.75.497-.159.611-41.549.121-42.839-3.04-.272-6.235-2.037-8.433-4.411-1.334-1.476-2.504-3.673-3.5-6.47-.026-.071-.069-.145-.094-.218-.055-.174-.1-.38-.156-.562-.661-2.171-1.347-4.965-2.125-8.813-2.467-12.197-4.176-14.706-15.5-22.75-8.06-5.726-11.655-9.16-13.5-12.906-1.269-2.577-1.344-2.985-1.344-6.687 0-3.287.152-4.298.906-5.938 1.882-4.092 4.815-6.138 14.188-9.875 10.038-4.002 11.69-5.841 16.25-18.063 4.196-9.091 6.256-9.744 13.708-13.194.077.015-15.18-24.887-22.8-36.869z" stroke="#4d4d4d" stroke-width=".25" fill="url(#d)" transform="translate(-48.384 -10.46)"/><path d="M158.14 224.42c21.791-32.02 44.402-38.61 64.917-110.21l-80.391-70.955 16.607 28.684z" stroke="#000" stroke-width=".1" fill="url(#e)" color="#000" transform="translate(-48.384 -10.46)"/><path d="M171.12 32.824c-4.474.246-8.898.432-12.782 2.374-.049-.097.038-.195.084 24.171l64.408 54.924s1.44-2.287 2.196-7.594c1.106-7.766 1.344-13.703.813-19.406-1.117-11.985-4.364-21.496-10.344-30.281-2.794-4.105-10.337-11.534-14.594-14.375-6.437-4.296-14.443-7.657-21.75-9.125-2.399-.482-5.234-.701-8.031-.688z" stroke="#999" stroke-width=".5" fill="url(#f)" transform="translate(-48.384 -10.46)"/><path fill="url(#g)" d="M157.97 248.51c.155-.073 1.265-177.11.852-177.31l-18.54-30.059c-.5 3.163 56.522 50.065 82.839 73.381l4.596 4.544c11.259 11.132 18.46 20.028 23.183 29.806 4.256 8.81 5.584 15.09 5.211 24.631-.386 9.884-3.187 19.316-8.368 28.177-4.827 8.256-14.175 18.03-23.244 24.301-15.603 10.79-36.81 18.807-58.213 22.005-5.463.817-7.878.969-8.322.525z" transform="translate(-48.384 -10.46)"/><path d="M135.84 33.38c-.002-.34-.268-1.487-.591-2.551-1.27-4.188-.37-9.02 2.342-12.577 1.373-1.8 5.056-4.29 7.948-5.371 5.694-2.13 12.17-3.106 12.555-1.891 0 0 .157 48.704.416 48.643.215.75-21.307-18.357-22.67-26.253z" fill="url(#h)" transform="translate(-48.384 -10.46)"/></svg>