<svg xmlns="http://www.w3.org/2000/svg" version="1.0" width="472.197" height="472.197"><path d="M244.014 45.428C264.128 57.9 284.19 70.451 304.298 82.93c-2.004 3.218-4 6.444-6.036 9.644-10.101-5.83-20.177-11.706-30.289-17.515-3.244 30.4-6.715 60.792-9.873 91.192 13.48 7.892 27.04 15.663 40.56 23.495 24.675-18.06 49.368-36.099 74.046-54.158-10.08-5.852-20.17-11.695-30.263-17.526 1.767-3.339 3.447-6.728 5.256-10.046 20.849 11.208 41.755 22.313 62.593 33.536-.78 23.674-1.575 47.346-2.388 71.02-3.75-.174-7.503-.25-11.25-.426-.005-11.677-.005-23.35.003-35.027-28.006 12.35-56.026 24.667-84.013 37.054.005 15.519.003 31.037 0 46.559a269784.56 269784.56 0 0084.008 37.036v-35.035c3.744-.142 7.494-.28 11.241-.398.822 23.68 1.644 47.365 2.378 71.047-20.872 11.155-41.739 22.326-62.603 33.494-1.722-3.366-3.518-6.697-5.21-10.078 10.105-5.796 20.167-11.663 30.25-17.496a385497.316 385497.316 0 00-74.445-54.556 18884.889 18884.889 0 00-40.62 23.5c3.43 30.532 6.91 61.055 10.333 91.584 10.115-5.812 20.185-11.697 30.297-17.512 2.023 3.2 4.019 6.415 6.023 9.625-19.943 12.509-39.893 25.002-59.836 37.508z"/><path d="M224.485.415c95.832-5.98 191.253 53.258 228.253 141.926 38.985 86.75 17.908 195.732-50.61 261.68-66.505 67.619-175.245 87.477-261.443 48.1C54.733 415.336-3.54 323.599.195 230.125c1.007-95.484 66.73-185.616 156.988-216.44 21.63-7.693 44.38-12.104 67.302-13.27zm8.225 23.221c-91.578.306-177.096 67.7-199.684 156.258-23.765 83.358 10.707 178.827 82.115 227.904 73.196 53.436 180.812 51.283 251.612-5.482 69.288-52.12 99.406-149.021 72.129-231.277C412.906 85.351 327.648 22.406 237.999 23.594z"/><path d="M132.65 70.165c12.655-8.457 26.719-14.634 41.204-19.207-27.916 14.259-53.614 38.275-60.205 70.008-6.132 26.1 4.849 53.381 22.934 72.195 10.839 12.84 29.037 20.284 33.8 37.62.836 16.883.325 33.873.68 50.794-.138 7.291 3.374 19.266-8.351 14.941-31.255-2.64-57.674-24.93-71.64-52.103-19.1-33.409-19.444-75-7.454-110.882 8.753-25.794 26.163-48.51 49.032-63.366z"/><path d="M203.618 106.644c6.516-7.179-7.082 9.04-6.18 14.1-4.525 18.45 5.764 39.866 23.717 46.76 13.764 6.572 6.584 23.742 8.374 35.64-.006 75.287-.005 150.573-.003 225.859-35.4-.43-71.41-11.09-99.841-32.501 15.164-2.807 29.568-10.977 38.832-23.44-17.067 11.474-40.893 16.926-59.008 4.433-24.007-16.233-38.304-42.668-51.836-67.508 16.711 17.384 34.978 36.19 59.145 42.242 17.723 2.102 35.751 1.224 53.263-1.88 16.638 1.728 21.288 20.385 28.419 32.654 7.819 4.238 8.853-16.203 12-22.345 9.346-39.004 11.052-79.488 10.09-119.457-.254-22.854-5.016-46.864-21.034-64.163-5.486-11.544-27.1-7.514-18.79-22.895 3.966-17.232 11.305-33.97 22.852-47.5z"/><path d="M233.373 108.254a26.38 26.38 0 001.018-.18c.18 1.7.083 3.408.091 5.113v36.284c-.009 1.654.127 3.324-.144 4.967a12.86 12.86 0 00-1.006-.047c-.9-3.572-1.64-7.183-2.493-10.767-.366-1.451-.554-2.944-1.017-4.369-1.623-.227-3.266-.162-4.897-.195-4.817-.009-9.637.003-14.455-.006-1.58-.009-3.162.086-4.74-.032-.03-.372-.25-.87.153-1.124 1.216-.62 2.584-.838 3.868-1.28 3.26-1.086 6.551-2.06 9.81-3.148 1.328-.46 2.765-.687 3.963-1.463a8.303 8.303 0 00-.045-1.602c-1.168-.519-2.41-.832-3.622-1.221-2.98-.98-5.988-1.864-8.959-2.87-1.708-.593-3.495-.956-5.144-1.705-.033-.348-.068-.696-.1-1.039 4.846-.183 9.707.056 14.557-.118 3.2-.12 6.404.077 9.602-.065.118-.368.248-.734.35-1.106 1.013-4.69 2.204-9.336 3.21-14.027zM62.03 150.863c1.597-3.364 4.283-8.876 2.306-2.085-7.162 36.24-2.771 76.062 17.654 107.438 13.319 18.374 30.913 34.885 53.212 41.265 10.487 3.564 23.145 3.398 30.778 12.71 7.018 7.756 10.8 18.16 11.915 28.44-23.19 10.826-51.013 8.378-73.158-3.873-27.888-13.788-45.86-41.727-54.14-70.962-6.151-20.195-7.984-41.688-4.491-62.553 2.622-17.497 8.272-34.458 15.924-50.38z"/></svg>