<svg xmlns="http://www.w3.org/2000/svg" viewBox="0 0 90 90"><path fill="#243239" d="M62.593 30.923C57.597 19.779 49.54 9.704 38.425.7l-.698-.561a.636.636 0 00-.967.777l.995 2.036.642 1.335.626 1.317.608 1.298.593 1.279.29.633.567 1.251.55 1.234.534 1.214.518 1.197.5 1.177.484 1.16.467 1.14.45 1.123.435 1.104.21.545.41 1.076.197.53.384 1.05c.063.172.124.345.186.517l.358 1.02.343 1.002.164.495.317.974.153.48.292.947.14.467.267.919c.086.303.17.603.25.9l.234.882.11.435.21.854.191.836c.153.689.289 1.358.407 2.009l.134.771.117.753c.127.867.22 1.697.278 2.489l.042.67c.106 2.09-.038 3.904-.434 5.44-1.202 4.666-5.292 7.466-12.272 8.396l-.732.09a37.34 37.34 0 01-.753.076l-.774.063a42.6 42.6 0 01-.394.027l-.805.043c-1.358.06-2.801.065-4.331.015l-.928-.037-.95-.05-.968-.064-.99-.077-1.01-.09-.514-.05-1.041-.11-1.063-.124-1.082-.137-.55-.074-1.113-.157-.564-.083L18 52.955c2.936 1.9 6.292 3.275 10.066 4.124-3.555 1.07-6.564 2.663-9.026 4.78l1.902-.238 1.832-.218 2.334-.262 1.669-.173 1.598-.154 1.529-.135 1.458-.116 1.389-.096 1.318-.078.84-.04 1.202-.045.762-.02.732-.01.7-.003.338.002.653.01.315.01.607.023.576.032.544.04.513.05.245.027.467.062.435.071c.42.075.794.162 1.12.263l.16.051a1.27 1.27 0 01.59 1.991l-1.222 1.542-1.799 2.258-1.758 2.192-2.28 2.818-1.663 2.036-1.621 1.97-1.58 1.902-1.54 1.836-1.498 1.77-.976 1.143-1.43 1.66-1.388 1.592-1.348 1.526-1.306 1.46L22.194 90c7.412 0 15.294-4.05 23.793-11.703l1.15-1.04 1.408-1.24 2.579-2.24.747-.656.746-.665c.124-.11.248-.223.372-.335l.738-.676.729-.684.716-.693c3.19-3.136 5.896-6.534 6.785-10.271l.833-.242 1.188-.357.752-.234.719-.232.686-.228.653-.226.621-.222.588-.22.556-.217.265-.107.506-.212.241-.105.458-.208c.22-.104.429-.206.625-.307l.375-.2.343-.198.31-.195c.099-.064.191-.128.278-.192l.246-.189c.533-.437.8-.85.8-1.24 0-2.172-5.182-4.233-8.95-3.795l.221-.368.71-1.117.179-.295.174-.305.168-.319.108-.22.104-.228.099-.236.094-.245.088-.254.081-.264.075-.275.067-.286.058-.298c.01-.051.018-.102.026-.154l.046-.318.019-.164.03-.338a10.5 10.5 0 00.011-.175l.015-.36c.007-.307.002-.63-.016-.972l-.028-.419-.042-.437a17.14 17.14 0 00-.026-.225l-.064-.465-.078-.484-.094-.505a24.54 24.54 0 00-.11-.526l-.127-.548-.145-.57-.162-.593a37.34 37.34 0 00-.278-.935l-.21-.653a45.453 45.453 0 00-.113-.336l-.24-.692-.26-.719-.283-.745-.305-.773a70.054 70.054 0 00-.161-.397l-.339-.815-.363-.845-.386-.875z"/></svg>