<svg xmlns="http://www.w3.org/2000/svg" viewBox="0 0 62 62"><circle cx="31" cy="31" r="31" fill="#1113d4"/><path fill="#fff" d="m38.01 34.2-5.83 1.43c-.6 2.84-5.4 11.01-7.32 13.4l-.69.91s-.65.98 1.6-.26c1.67-.89 10.62-6.92 13.32-15.72 0 0 2.8-.5 4.1-2.83 0 0-.8-1.37-3.45-1.75 0 0 .34-3.75-.9-6.15-.49-.93-7.23-10.53-13.96-13.97a.14.14 0 0 0-.18.2c.9 1.55 4.13 7.27 6.31 12 0 0 2.51 4.84 1.92 7.32-.96 3.97-10.67 4.08-12.77 4.05-.06 0-.07.1 0 .1l4.82 1.36-4.15 2.7c-.05.02 0 .1.05.08l6.76-1.97s6.2-.12 10.36-.9"/></svg>
