<svg xmlns="http://www.w3.org/2000/svg" viewBox="0 0 94.5 100.8"><path fill="#222" d="M50 65.5h7.4v-1.1h-7.5zm0 3.1h7.4v-1.1h-7.5zm0-6.2h7.4v-1.1h-7.5zm-5.4 2H37v1.1h7.5zm0 3H37v1.2h7.5zm0-6H37v1h7.5zm11.8-19.9a185.7 185.7 0 0 0-18.3 0v15H9.3a45.1 45.1 0 0 0 8.4 19.7 3 3 0 0 1 2.5-1.3h17.9v15.6c3 .8 6 1.3 9.1 1.3v.1-.1c3.2 0 6.3-.5 9.2-1.3V75h17.9c1 0 2 .5 2.5 1.3a45.1 45.1 0 0 0 8.4-19.6H56.4ZM42 46.2l3.9 1.9 1.4-4 1.4 4 3.8-1.9-1.8 4 4 1.3-4 1.5 1.8 3.8-3.9-1.9-1.4 4-1.4-4-3.8 1.9 1.8-4-4-1.3 4-1.4zM28.4 71.1l-3.9-1.9-1.4 4-1.4-4-4 1.9 2-3.9-4.1-1.4 4-1.4-1.8-4 3.8 2 1.4-4.1 1.5 4 3.8-1.8-1.8 3.8 4 1.5-4 1.4zm6.1-.3h-1.7v-1.3h1.7zm0-3.3h-1.7v-1.3h1.7zm0-3.3h-1.7v-1.3h1.7zm0-3.4h-1.7v-1.2h1.7zm1 10v-12h7.9a3 3 0 0 1 3 3v10a3 3 0 0 0-2.3-1h-8.7zm17 15.6-3.9-1.9-1.3 4.1-1.5-4-3.8 1.8 1.8-3.9-4-1.4 4-1.4-1.8-3.9 3.9 1.9 1.4-4 1.4 4 3.8-1.9-1.8 4 4 1.3-4 1.5zm13.6-26 4 2 1.3-4.1 1.5 4 3.8-1.8-1.8 3.9 4 1.4-4 1.4 1.8 3.9-3.9-1.9-1.4 4-1.4-4-3.9 1.9 2-4-4.1-1.3 4-1.5zm-6.1-.8h1.7v1.2H60zm0 3.3h1.7v1.2H60zm0 3.3h1.7v1.3H60zm0 3.3h1.7v1.3H60zm-1-10.7v12h-8.6a3 3 0 0 0-2.4 1v-10a3 3 0 0 1 3-3h.5zm15-51a134 134 0 0 0-26.8-3.1 149.3 149.3 0 0 0-38.5 6V43c4.2-.7 21.8-3.4 38.5-3.4s34.3 2.7 38.6 3.4V10.7A178.2 178.2 0 0 0 74 7.8Zm-40.4 3.4c.6-.2-.6-1.1.2-1 .5 0 2.3 0 3.6.6.3.1.4-.4 1-.7h.2c.5.3.7.8 1 .7 1.3-.6 3-.6 3.6-.7.8 0-.5 1 .1 1a6.6 6.6 0 0 1 5.2 6.4c0 .8-.2 1.7-.5 2.4-.1.4-.6-.7-.7 0-.3 1.2-.6 2.1-1.3 3.4-.6 1.1-1.6-1.3-2-.6-.5 1.2-1.9 1.6-2.8 1.8-.1 0-.2 0-.1-.2 0 0 .3-.2.3-.7l.1-.1a2.6 2.6 0 0 0 1.4-1.8c.2-.8.6-1.8 1-2.5.7-1.4-.3-3.2 0-3.6a2 2 0 1 0-2.7-3l-.6.6c-.1.3-.1.7.2.8 1.4.3 2.3 3.5 1.8 4.5-.3.5-1 2.2-1 2.7a1.1 1.1 0 0 1-2.3.4c.4-.3 1.3-.8 1.3-1.4l-.2-1.7c.7 0 1-.5 1.1-1.1l.2-.2c.2-.2.4-.8-.1-.7-.7.2-1.5.1-2.3.4a.3.3 0 0 0-.2.2l.5 2.7h-1a17.6 17.6 0 0 0-1.1 0l.5-2.6a.3.3 0 0 0 0-.2c-.2-.2-2.2-.4-2.5-.5a.3.3 0 0 0-.3.2c-.2.2.2.6.4.7 0 .6.4 1 1 1.1h.1l-.2 1.7c0 .6.9 1 1.3 1.3v.1c-.2.4-.6.7-1 .7-.6 0-1.2-.5-1.2-1.1 0-.4-.7-2.2-1-2.7-.6-1 .3-4.2 1.7-4.5.4-.1.5-.6.3-.8-.6-.6-1.3-1.4-2.3-1.4a2 2 0 0 0-2 2.1c0 1.3 1 1.5 1 1.9a4 4 0 0 0 0 3.4l1 2.4c0 .8.5 1.4 1.2 1.8.3.2.2.4.3.7l.2.3c.2 0 0 .1 0 0-1 0-2.5-.4-3.1-1.7-.3-.7-1.4 1.7-2 .6a12.8 12.8 0 0 1-1.2-3.4c-.2-.7-.6.4-.8 0a6.7 6.7 0 0 1-.5-2.4 6.6 6.6 0 0 1 5.3-6.3zm8.6 2.1v-.2a1 1 0 0 1 1.1 1.5h-.1a4.5 4.5 0 0 0-1-1.3zm-2 10.3c-.3.6-1.1.4-1.5.8h-.3c-.4-.4-1.2-.2-1.4-.8v-.2a2.3 2.3 0 0 0 1.5-.8h.2c.3.4.8.7 1.3.8.1 0 .2 0 .1.2zm-6.2-9h-.2a1 1 0 0 1-.4-.7c0-.5.4-1 1-1l.6.3v.2a5 5 0 0 0-1 1.2zm-8.2 11.8c-.6 0-.8.2-1.3.5-.3.2-.4-.4 0-1.5.2-1-1.5-1.4-2-1-.6.4-2 1.4-3.6-.2-.3-.3.7-.2.8-.5 0-.4.4-.6.6-.8v-.4c-.5-.2-1.2-.8-1-1.7 0-.2-.8-.2-.5-.5 1.4-1.3 3-.5 3.5 0 .1 0 .3 0 .4-.2 0-.4-.2-.7.6-1.4.2-.1-.5-.7 0-.6 3 .7 1.6 3.7 2.2 4.2 1.1 1 3.8 1.8 6.3 2.3l1.1.4c2 1 3.3 1 4.4.5.4-.1.4.3.3.5-4 3.8-7.2 2.8-8.2 2.1-.8-.5-2.3-.5-3 .5-.2.1-.4.2-.5-.1-.2-.7 0-1.2.3-1.8.1-.2-.2-.3-.4-.3zm38.5 3.5c-.5.5-1.5 1-3 1-.7 0-1 .1-1.2.3l-.1.4c-.1.3 0 .6.2.9.1.2 0 .4-.2.4-.2.1-.6.1-1.2-.2-.3-.2-.4 0-.4.2-.1.3 0 .7.5 1 .2.2.2.3-.2.5-.5.2-1-.1-2-.6-.4-.3-.8-.3-1.1.1-.2.2-.2.4 0 .5.3.4.4 1-.4 2-.2.4-.5-.6-.8-.4-1.1.5-2-.2-2.4-.7 0 0-.2-.1-.4 0-.6.4-1.8 1-2.2 0-.1-.2-.8.2-.8-.1 0-1.8 1.6-2.2 2.3-2.2.2 0 .2-.1.1-.3-.2-.4-.6-.9-.4-1.4.1-.4-.9-.5-.5-.7 2-1 3.2 1 3.6 1.2.6.3 3.3-.6 3.6-2 0-.3-.6-.4-1.3-.6-.1 0-.2-.2 0-.4 1.6-1.2 3-2.8 5.9-3 .3 0 .5.2.5.4a5 5 0 0 0 1.8 3.2c.3.1.2.4.1.6zm12.3-.9c.3.2.3.3.1.5-.2.2-.5.3-1.2.3-.3 0-.3.2-.3.4 0 .3.4.6 1 .6.2.1.3.3 0 .5-.4.5-1 .5-2 .5-.9 0-1.6 1-1 1.5.3.3 1 1 .4 2.9-.2.5-.6-.5-.9-.4-.7.5-1.4 0-1.7-.5-.2-.2-.3-.2-.4 0-.3.5-1.1 1.5-2.7.6-.4-.2-1 .5-1.1.2-.3-1.2.3-2 .9-2.4 0 0 .3-.3-.1-.3-.5 0-1.2-.2-1.3-.8 0-.2-.7-.1-.6-.3.1-1 2.2-1.6 3.6-.7 1.1.8 2.6-1.9 1.6-3.1-.8-1-5.3 1.6-6.9-1.7-.6-1.3.2-2.4-.4-2.5-.7-.1-3.5-.7-6.7 1.8a11 11 0 0 1-12.4 1c-.2 0-.4.1-.3.3A1.5 1.5 0 0 1 44 29c-.5.8-2.5 1.7-2.8 1.8-2.2.6-2 2.3-1.8 3.1.1.2 0 .4-.2.3a3 3 0 0 1-2.6-1.9.3.3 0 0 0-.4 0c-.9.6-.6 1.5-.4 1.9l-.1.3c-.8 0-1.4-.8-2-.8a2.9 2.9 0 0 0-1.2.6c-.2 0-.2.3-.1.5.8 2.5-.5 2.6-.6 2.6-.1 0 0-.5-.5-.6-1.3.1-1.7-.8-1.8-1.4 0-.2 0-.3-.2-.2-.5.4-1.8 1-2.6 0l-.7.1-.1-.3a2.7 2.7 0 0 1 1.5-2.3c.2 0 .3-.2.1-.3-.4-.3-1.2-1-1-1.7.1-.2-.6-.4-.4-.5 1.6-1.2 3.5.7 3.8.9.3.2 1.7.3 5.3-1.8a14 14 0 0 0 4.1-3.1c0-.1.2-.3.5-.3 1.4 0 2.9-.3 4-1.2.2-.2.4-.1.4 0 2 1.4 3.2-1.8 3.6-3.2 0-.3 0-.6.4-.6 7.6.4 22 .3 22 .3s1.8.2 1.7-1c-.1-1.9-8-1.8-13.8-1-2.1.3-5.2.4-7-.3a3.3 3.3 0 0 1-1.7-1.3c-.4-.8-.3-1.3-.2-1.8 0-.3.2-.7.5-1 1.5-2.4 5-2.6 6-2.6.2 0 .3 0 .4-.2a2 2 0 0 1 2-1.9c.3 0 .8-.1 1-.3.2 0 .3 0 .3.2s-.2.4-.4.6c-1 .9-.9 1.3-.7 1.4h.2c3.1-2.8 4.9-1 5.4-.4.1.1.2.3 0 .3-2.1.5-3 2.4-7.2 2-.5 0-4-.2-5.1 1.4-.7 1-.2 1.8 1.7 2.2 1.4.3 4.8-.1 6.3-.3 1.6 0 8.3-1 11.8 0 1.5.5 3.7 1.7 3.3 4a3 3 0 0 1-1.7 2s-3.9 2.7 3.1 2.7c2.1 0 0 1.8 0 2.3-.2.4.2.7.5 1zM64 14c-.2 0-.5 0-.9.3-.6.4-3.1 1.5-4 .2 0 0 1.8 0 3-1 0 0 1.2-.5 2 .2l-.1.2zM47.3 0C23.6 0 0 6.3 0 6.3v31.5c0 28.4 20.3 58 47.2 63 28-5.4 47.3-34.6 47.3-63V6.3S74.8 0 47.2 0Zm40.2 49.3c0 23.1-17.6 44.1-40.3 44.1C24.6 93.4 7 72.4 7 49.3V9.5l.6-.2S28 3 47.2 3A156 156 0 0 1 87 9.3l.6.2z"/></svg>