<?xml version="1.0" encoding="UTF-8" standalone="no" ?>
<!DOCTYPE svg PUBLIC "-//W3C//DTD SVG 1.1//EN" "http://www.w3.org/Graphics/SVG/1.1/DTD/svg11.dtd">
<svg xmlns="http://www.w3.org/2000/svg" xmlns:xlink="http://www.w3.org/1999/xlink" version="1.1" width="95" height="102" viewBox="0 0 95 102" xml:space="preserve">
<desc>Created with Fabric.js 3.6.6</desc>
<defs>
</defs>
<g transform="matrix(1 0 0 1 47.75 50.91)" id="Artwork"  >
<path style="stroke: none; stroke-width: 1; stroke-dasharray: none; stroke-linecap: butt; stroke-dashoffset: 0; stroke-linejoin: miter; stroke-miterlimit: 4; fill: rgb(34,34,34); fill-rule: nonzero; opacity: 1;"  transform=" translate(-47.26, -50.41)" d="m 49.93 65.523 h 7.452 v -1.129 h -7.452 v 1.129 z m 0 3.086 h 7.452 v -1.127 h -7.452 v 1.127 z m 0 -6.171 h 7.452 v -1.129 h -7.452 v 1.129 z m -5.368 1.957 h -7.455 v 1.129 h 7.455 v -1.129 z m 0 3.087 h -7.455 v 1.127 h 7.455 v -1.127 z m 0 -6.173 h -7.455 v 1.129 h 7.455 v -1.129 z m 11.838 -19.788 c -3.026 -0.154 -6.107 -0.246 -9.156 -0.246 c -3.041 0 -6.117 0.092 -9.139 0.244 v 15.055 h -28.818 c 1.201 7.221 4.143 13.988 8.375 19.619 c 0.57 -0.803 1.504 -1.326 2.564 -1.326 h 17.879 v 15.656 c 2.922 0.804 5.975 1.245 9.133 1.245 v 0.128 h 0.014 v -0.128 c 3.164 0 6.222 -0.442 9.148 -1.25 v -15.651 h 17.883 c 1.051 0 1.982 0.518 2.556 1.314 c 4.224 -5.627 7.164 -12.393 8.363 -19.607 h -28.802 v -15.053 z m -14.433 4.694 l 3.895 1.848 l 1.393 -4.041 l 1.447 4.064 l 3.842 -1.871 l -1.854 3.895 l 4.045 1.391 l -4.065 1.449 l 1.874 3.84 l -3.897 -1.846 l -1.393 4.037 l -1.451 -4.062 l -3.836 1.871 l 1.846 -3.902 l -4.042 -1.388 l 4.066 -1.449 l -1.87 -3.836 z m -13.621 24.863 l -3.844 -1.871 l -1.449 4.062 l -1.385 -4.039 l -3.908 1.848 l 1.883 -3.838 l -4.068 -1.447 l 4.041 -1.393 l -1.855 -3.902 l 3.844 1.873 l 1.449 -4.059 l 1.391 4.035 l 3.902 -1.85 l -1.873 3.844 l 4.061 1.451 l -4.041 1.385 l 1.852 3.901 z m 6.175 -0.285 h -1.693 v -1.24 h 1.693 v 1.24 z m 0 -3.314 h -1.693 v -1.249 h 1.693 v 1.249 z m 0 -3.323 h -1.693 v -1.24 h 1.693 v 1.24 z m 0 -3.316 h -1.693 v -1.246 h 1.693 v 1.246 z m 0.903 9.959 v -11.969 h 7.543 c 0.143 -0.021 0.312 0 0.463 0 c 1.725 0 3.049 1.326 3.049 3.018 v 10.029 c -0.561 -0.664 -1.404 -1.084 -2.346 -1.084 c -0.123 0 -6.348 0.004 -8.709 0.006 z m 17.117 15.611 l -3.898 -1.85 l -1.389 4.05 l -1.451 -4.077 l -3.84 1.877 l 1.852 -3.898 l -4.043 -1.393 l 4.064 -1.451 l -1.873 -3.836 l 3.896 1.848 l 1.395 -4.037 l 1.451 4.062 l 3.835 -1.873 l -1.847 3.898 l 4.042 1.389 l -4.065 1.451 l 1.871 3.84 z m 13.603 -25.912 l 3.907 1.85 l 1.386 -4.035 l 1.452 4.059 l 3.839 -1.873 l -1.851 3.901 l 4.041 1.393 l -4.069 1.447 l 1.879 3.838 l -3.904 -1.848 l -1.387 4.039 l -1.451 -4.062 l -3.842 1.871 l 1.854 -3.9 l -4.042 -1.385 l 4.062 -1.451 l -1.874 -3.844 z m -6.178 -0.904 h 1.695 v 1.246 h -1.695 v -1.246 z m 0 3.322 h 1.695 v 1.24 h -1.695 v -1.24 z m 0 3.314 h 1.695 v 1.248 h -1.695 v -1.248 z m 0 3.323 h 1.695 v 1.24 h -1.695 v -1.24 z m -0.897 -10.723 v 11.969 c -2.363 -0.002 -8.588 -0.006 -8.709 -0.006 c -0.943 0 -1.783 0.42 -2.346 1.084 v -10.029 c 0 -1.691 1.326 -3.018 3.047 -3.018 c 0.15 0 0.32 -0.021 0.465 0 h 7.543 z m 14.854 -51.031 c -7.433 -1.567 -17.242 -3.127 -26.679 -3.127 c -14.16 -0.004 -29.137 3.518 -35.713 5.279 c -1.312 0.35 -2.287 0.631 -2.857 0.797 v 32.225 c 4.262 -0.686 21.875 -3.361 38.57 -3.363 c 16.696 0.002 34.304 2.676 38.571 3.363 v -32.225 c -0.573 -0.166 -1.547 -0.447 -2.859 -0.797 c -2.195 -0.586 -5.317 -1.367 -9.033 -2.152 z m -40.277 3.387 c 0.582 -0.135 -0.674 -1.1 0.146 -1.055 c 0.537 0.029 2.297 0.035 3.631 0.686 c 0.254 0.107 0.41 -0.375 0.916 -0.699 c 0.041 -0.025 0.162 -0.072 0.252 -0.002 c 0.525 0.324 0.711 0.795 0.965 0.686 c 1.324 -0.635 3.07 -0.635 3.598 -0.67 c 0.852 -0.053 -0.434 0.92 0.148 1.055 c 3.008 0.697 5.238 3.246 5.238 6.283 c 0 0.879 -0.215 1.699 -0.514 2.465 c -0.164 0.41 -0.594 -0.762 -0.752 -0.078 c -0.295 1.238 -0.596 2.168 -1.25 3.4 c -0.625 1.158 -1.656 -1.27 -1.977 -0.582 c -0.582 1.223 -1.943 1.645 -2.895 1.791 c -0.109 0.012 -0.211 -0.002 -0.08 -0.127 c 0.049 -0.047 0.279 -0.26 0.342 -0.693 c 0.008 -0.047 -0.02 -0.115 0.082 -0.16 c 0.717 -0.342 1.258 -1.008 1.418 -1.812 c 0.229 -0.746 0.531 -1.809 0.898 -2.467 c 0.814 -1.449 -0.176 -3.205 0.078 -3.596 c 0.559 -0.363 0.93 -0.996 0.93 -1.717 c 0 -1.135 -0.926 -2.055 -2.053 -2.055 c -0.615 0 -1.164 0.27 -1.533 0.693 l -0.059 0.055 c -0.188 0.199 -0.371 0.404 -0.533 0.621 c -0.186 0.24 -0.145 0.672 0.178 0.76 c 1.4 0.365 2.316 3.518 1.742 4.541 c -0.254 0.455 -1.027 2.152 -1.027 2.646 c 0 0.637 -0.512 1.15 -1.146 1.15 c -0.486 0 -0.896 -0.301 -1.068 -0.748 c 0 0 0.02 -0.037 0.023 -0.049 c 0.389 -0.242 1.242 -0.754 1.242 -1.287 l -0.17 -1.727 c 0.697 -0.084 1.02 -0.463 1.105 -1.123 c 0.062 -0.043 0.125 -0.09 0.18 -0.137 c 0.232 -0.213 0.389 -0.789 -0.111 -0.707 c -0.711 0.133 -1.516 0.107 -2.295 0.324 c -0.104 0.027 -0.18 0.121 -0.199 0.221 c -0.033 0.15 0.424 2.236 0.525 2.699 c 0.008 0.053 -0.027 0.084 -0.053 0.084 c -0.314 -0.025 -0.883 -0.053 -1.021 -0.053 c -0.135 0.002 -0.688 0.031 -1.018 0.059 c -0.033 0.002 -0.08 -0.041 -0.068 -0.084 c 0.105 -0.492 0.562 -2.568 0.562 -2.568 c 0.012 -0.086 0 -0.178 -0.049 -0.248 c -0.15 -0.197 -2.186 -0.371 -2.459 -0.424 c -0.117 -0.021 -0.232 0.023 -0.305 0.121 c -0.201 0.285 0.152 0.605 0.377 0.74 c 0.088 0.641 0.424 1.012 1.1 1.096 c 0.008 0.01 0.021 0.029 0.029 0.033 c -0.021 0.113 -0.193 1.713 -0.193 1.723 c 0 0.553 0.842 1.02 1.258 1.264 c 0.023 0.029 0.053 0.064 0.059 0.104 c -0.201 0.4 -0.598 0.688 -1.055 0.688 c -0.637 0 -1.148 -0.514 -1.148 -1.15 c 0 -0.408 -0.76 -2.182 -1.047 -2.664 c -0.609 -1.053 0.297 -4.156 1.752 -4.521 c 0.314 -0.076 0.477 -0.533 0.232 -0.773 c -0.609 -0.604 -1.307 -1.357 -2.23 -1.357 c -1.133 0 -2.051 0.92 -2.051 2.055 c 0 1.299 0.998 1.506 0.93 1.865 c -0.402 1.205 -0.41 2.521 0.133 3.449 c 0.375 0.643 0.66 1.668 0.887 2.402 c 0.137 0.754 0.594 1.396 1.238 1.773 c 0.32 0.186 0.164 0.434 0.299 0.703 c 0.062 0.129 0.166 0.215 0.248 0.285 c 0.137 0.105 0.031 0.129 -0.082 0.113 c -0.957 -0.121 -2.434 -0.523 -3.043 -1.811 c -0.32 -0.688 -1.361 1.74 -1.977 0.582 c -0.656 -1.232 -0.957 -2.162 -1.25 -3.4 c -0.16 -0.684 -0.59 0.488 -0.754 0.078 c -0.301 -0.766 -0.514 -1.586 -0.514 -2.465 c 0.002 -3.038 2.235 -5.587 5.238 -6.284 z m 8.569 2.119 c -0.033 -0.029 -0.025 -0.148 0.016 -0.174 c 0.148 -0.115 0.334 -0.18 0.539 -0.18 c 0.506 0 0.916 0.408 0.916 0.914 c 0 0.287 -0.133 0.541 -0.336 0.709 c -0.055 0.051 -0.156 -0.008 -0.176 -0.055 c -0.262 -0.47 -0.582 -0.89 -0.959 -1.214 z m -2.076 10.33 c -0.219 0.58 -1.037 0.387 -1.473 0.744 c -0.047 0.043 -0.178 0.043 -0.215 0.012 c -0.434 -0.369 -1.246 -0.188 -1.508 -0.818 c -0.02 -0.049 -0.02 -0.152 0.098 -0.17 c 0.574 -0.064 1.086 -0.344 1.457 -0.752 c 0.031 -0.039 0.129 -0.074 0.211 0.021 c 0.336 0.373 0.809 0.646 1.332 0.73 c 0.063 0.01 0.156 0.063 0.098 0.233 z m -6.176 -9.063 c -0.02 0.031 -0.113 0.064 -0.191 0.012 c -0.205 -0.172 -0.34 -0.428 -0.34 -0.719 c 0 -0.506 0.408 -0.914 0.914 -0.914 c 0.246 0 0.469 0.098 0.637 0.254 c 0.068 0.051 0.029 0.17 -0.008 0.203 c -0.395 0.319 -0.739 0.723 -1.012 1.164 z m -8.127 11.807 c -0.623 0 -0.883 0.201 -1.342 0.494 c -0.287 0.201 -0.375 -0.361 -0.033 -1.514 c 0.273 -0.904 -1.5 -1.391 -1.922 -0.969 c -0.596 0.465 -2.123 1.375 -3.611 -0.193 c -0.299 -0.314 0.678 -0.209 0.736 -0.484 c 0.086 -0.404 0.457 -0.648 0.611 -0.811 c 0.086 -0.123 0.086 -0.311 -0.066 -0.383 c -0.459 -0.246 -1.086 -0.775 -0.91 -1.752 c 0.021 -0.139 -0.777 -0.186 -0.512 -0.43 c 1.398 -1.295 2.926 -0.488 3.539 -0.072 c 0.107 0.039 0.324 0.059 0.344 -0.148 c 0.047 -0.418 -0.17 -0.697 0.67 -1.395 c 0.162 -0.135 -0.486 -0.699 -0.033 -0.672 c 2.898 0.727 1.586 3.73 2.188 4.26 c 1.105 0.986 3.779 1.764 6.295 2.303 c 0.217 0.047 0.998 0.324 1.162 0.41 c 2.031 1.037 3.275 0.936 4.375 0.504 c 0.352 -0.135 0.348 0.309 0.227 0.42 c -4.033 3.848 -7.102 2.871 -8.188 2.174 c -0.754 -0.484 -2.299 -0.5 -3.012 0.49 c -0.123 0.119 -0.34 0.195 -0.43 -0.121 c -0.213 -0.74 0.02 -1.223 0.238 -1.756 c 0.137 -0.277 -0.205 -0.355 -0.326 -0.355 z m 38.465 3.572 c -0.541 0.473 -1.507 0.988 -3.036 0.934 c -0.646 -0.027 -0.959 0.158 -1.121 0.35 c -0.096 0.131 -0.155 0.293 -0.166 0.326 c -0.089 0.318 0.028 0.658 0.199 0.926 c 0.164 0.234 0.102 0.385 -0.152 0.445 c -0.252 0.066 -0.585 0.072 -1.242 -0.244 c -0.289 -0.139 -0.371 0.039 -0.409 0.174 c -0.109 0.318 0.101 0.713 0.53 0.998 c 0.221 0.193 0.18 0.381 -0.164 0.502 c -0.578 0.201 -1.097 -0.062 -1.945 -0.533 c -0.497 -0.277 -0.883 -0.322 -1.218 0.074 c -0.191 0.219 -0.173 0.424 -0.062 0.537 c 0.33 0.326 0.526 0.98 -0.294 2.014 c -0.272 0.342 -0.566 -0.604 -0.816 -0.49 c -1.125 0.525 -2.047 -0.162 -2.396 -0.635 c -0.076 -0.096 -0.232 -0.127 -0.427 -0.002 c -0.562 0.377 -1.766 0.998 -2.23 -0.086 c -0.072 -0.158 -0.734 0.246 -0.727 -0.064 c 0.025 -1.795 1.584 -2.131 2.25 -2.189 c 0.203 -0.021 0.244 -0.119 0.137 -0.283 c -0.266 -0.389 -0.586 -0.852 -0.41 -1.391 c 0.123 -0.396 -0.898 -0.488 -0.48 -0.693 c 2.057 -1.025 3.208 0.936 3.564 1.146 c 0.596 0.342 3.28 -0.529 3.607 -1.982 c 0.07 -0.285 -0.626 -0.412 -1.316 -0.584 c -0.125 -0.029 -0.195 -0.189 0.032 -0.371 c 1.629 -1.211 2.935 -2.781 5.879 -3.074 c 0.356 -0.037 0.5 0.258 0.511 0.402 c 0.057 0.457 0.177 0.904 0.372 1.32 c 0.426 0.902 0.938 1.463 1.456 1.873 c 0.247 0.198 0.217 0.477 0.074 0.6 z m 12.326 -0.922 c 0.258 0.135 0.266 0.301 0.074 0.469 c -0.199 0.174 -0.499 0.334 -1.225 0.35 c -0.316 0.004 -0.312 0.203 -0.287 0.338 c 0.046 0.332 0.417 0.588 0.934 0.648 c 0.278 0.072 0.328 0.258 0.079 0.52 c -0.43 0.447 -1.005 0.447 -1.976 0.412 c -0.916 -0.033 -1.646 1.078 -1.108 1.541 c 0.363 0.312 1.102 1.002 0.465 2.877 c -0.202 0.566 -0.547 -0.52 -0.84 -0.35 c -0.759 0.451 -1.421 -0.117 -1.766 -0.525 c -0.147 -0.174 -0.279 -0.18 -0.38 0 c -0.304 0.529 -1.104 1.463 -2.717 0.592 c -0.349 -0.186 -1.07 0.455 -1.112 0.236 c -0.262 -1.254 0.381 -1.996 0.929 -2.387 c 0.055 -0.043 0.266 -0.328 -0.091 -0.318 c -0.546 -0.029 -1.209 -0.205 -1.284 -0.871 c -0.012 -0.143 -0.695 -0.107 -0.661 -0.299 c 0.162 -0.922 2.19 -1.59 3.587 -0.664 c 1.183 0.781 2.667 -1.883 1.601 -3.133 c -0.772 -0.898 -5.287 1.617 -6.822 -1.65 c -0.616 -1.314 0.156 -2.438 -0.471 -2.527 c -0.629 -0.09 -3.468 -0.703 -6.619 1.828 c -5.326 4.279 -11.099 1.947 -12.457 0.994 c -0.213 -0.066 -0.42 0.104 -0.33 0.318 c 0.219 0.551 0.125 1.064 -0.141 1.457 c -0.555 0.838 -2.469 1.693 -2.807 1.793 c -2.242 0.658 -2.006 2.371 -1.771 3.135 c 0.07 0.232 -0.016 0.371 -0.258 0.328 c -0.686 -0.127 -2.07 -0.547 -2.613 -1.893 c -0.061 -0.156 -0.217 -0.162 -0.402 -0.029 c -0.834 0.594 -0.539 1.457 -0.342 1.84 c 0.076 0.152 0.033 0.297 -0.164 0.318 c -0.764 0.092 -1.312 -0.799 -1.971 -0.734 c -0.43 0.041 -0.934 0.371 -1.207 0.562 c -0.133 0.084 -0.152 0.301 -0.07 0.547 c 0.836 2.48 -0.539 2.564 -0.621 2.52 c -0.098 -0.053 -0.043 -0.467 -0.443 -0.529 c -1.348 0.074 -1.732 -0.805 -1.807 -1.455 c -0.027 -0.211 -0.109 -0.283 -0.252 -0.186 c -0.514 0.355 -1.771 1.055 -2.561 0.025 c -0.113 -0.146 -0.49 0.008 -0.695 0.096 c -0.164 0.068 -0.168 -0.199 -0.164 -0.283 c 0.096 -1.416 1.055 -2.053 1.582 -2.299 c 0.195 -0.092 0.217 -0.193 0.061 -0.309 c -0.426 -0.316 -1.178 -1 -0.939 -1.742 c 0.043 -0.141 -0.629 -0.406 -0.461 -0.527 c 1.551 -1.123 3.539 0.74 3.793 0.941 c 0.266 0.213 1.676 0.258 5.27 -1.762 c 2.285 -1.283 3.48 -2.344 4.131 -3.15 c 0.08 -0.094 0.246 -0.266 0.479 -0.273 c 1.449 -0.049 2.881 -0.264 4 -1.248 c 0.184 -0.191 0.375 -0.078 0.453 -0.023 c 2.055 1.43 3.115 -1.734 3.539 -3.18 c 0.055 -0.293 0.117 -0.535 0.43 -0.551 c 7.571 0.363 21.917 0.312 21.917 0.312 s 1.892 0.15 1.793 -1.025 c -0.15 -1.883 -7.977 -1.842 -13.816 -1.037 c -2.121 0.291 -5.202 0.459 -7.023 -0.246 c -0.756 -0.293 -1.367 -0.76 -1.707 -1.363 c -0.363 -0.768 -0.268 -1.227 -0.199 -1.713 c 0.09 -0.352 0.262 -0.725 0.508 -1.119 c 1.496 -2.312 4.961 -2.488 6.036 -2.488 c 0.206 0 0.335 -0.088 0.363 -0.238 c 0.108 -0.535 0.513 -1.768 1.964 -1.848 c 0.408 -0.025 0.824 -0.18 1.082 -0.299 c 0.172 -0.078 0.281 -0.031 0.25 0.119 c -0.041 0.186 -0.13 0.436 -0.344 0.621 c -1.019 0.873 -0.869 1.275 -0.746 1.391 c 0.07 0.055 0.161 0.027 0.239 -0.045 c 3.085 -2.688 4.882 -0.908 5.431 -0.326 c 0.092 0.102 0.116 0.266 -0.062 0.309 c -2.097 0.469 -2.905 2.338 -7.185 2.037 c -0.521 -0.033 -4.024 -0.209 -5.137 1.377 c -0.641 0.922 -0.195 1.781 1.697 2.199 c 1.437 0.314 4.787 -0.172 6.366 -0.301 c 1.545 -0.127 8.287 -0.969 11.82 0.049 c 1.492 0.426 3.659 1.623 3.229 3.883 c -0.282 1.426 -1.654 1.986 -1.654 1.986 s -3.879 2.729 3.076 2.758 c 2.158 0.01 0.034 1.785 -0.076 2.307 c -0.08 0.375 0.27 0.715 0.606 0.912 z m -12.766 -15.08 c -0.211 0.037 -0.512 0.129 -0.84 0.346 c -0.628 0.422 -3.144 1.467 -3.93 0.209 c 0 0 1.762 -0.061 2.911 -1.076 c 0 0 1.233 -0.42 1.954 0.232 c 0.084 0.076 0.096 0.256 -0.095 0.289 z m -16.607 -13.949 c -23.676 0 -47.254 6.303 -47.254 6.303 v 31.504 c 0 28.395 20.334 57.916 47.244 63.017 c 27.906 -5.456 47.267 -34.622 47.267 -63.017 v -31.5 s -19.75 -6.303 -47.257 -6.303 z m 40.227 49.305 c -0.003 23.117 -17.573 44.105 -40.229 44.132 h -0.014 c -22.658 -0.027 -40.228 -21.015 -40.232 -44.132 v -39.793 l 0.59 -0.18 c 0.039 -0.01 20.418 -6.322 39.648 -6.328 c 19.234 0.006 39.649 6.328 39.649 6.328 l 0.588 0.18 v 39.793 z" stroke-linecap="round" />
</g>
</svg>