<svg xmlns="http://www.w3.org/2000/svg" viewBox="0 0 94.51 100.82"><path fill="#222" d="M49.93 65.52h7.45V64.4h-7.45zm0 3.09h7.45v-1.13h-7.45zm0-6.17h7.45V61.3h-7.45zm-5.37 1.95h-7.45v1.13h7.45zm0 3.1h-7.45v1.12h7.45zm0-6.18h-7.45v1.13h7.45zM56.4 41.52c-3.03-.15-6.1-.25-9.16-.25-3.04 0-6.11.1-9.14.25v15.05H9.3a45.1 45.1 0 0 0 8.37 19.62c.57-.8 1.5-1.32 2.57-1.32H38.1v15.65c2.92.8 5.97 1.25 9.13 1.25v.13h.01v-.13c3.17 0 6.22-.44 9.15-1.25V74.87h17.88c1.05 0 1.99.51 2.56 1.31a45.11 45.11 0 0 0 8.36-19.6H56.4Zm-14.43 4.7 3.9 1.84 1.39-4.04 1.44 4.07 3.84-1.87-1.85 3.89 4.05 1.4-4.07 1.44 1.87 3.84-3.9-1.85-1.39 4.04-1.45-4.06-3.83 1.87 1.84-3.9-4.04-1.39 4.07-1.45zM28.35 71.08 24.5 69.2l-1.45 4.06-1.38-4.04-3.91 1.85 1.88-3.84-4.07-1.45 4.05-1.39-1.86-3.9 3.84 1.87 1.45-4.06 1.4 4.04 3.9-1.85-1.88 3.84 4.06 1.45-4.04 1.39zm6.17-.29h-1.7v-1.24h1.7zm0-3.31h-1.7v-1.25h1.7zm0-3.32h-1.7v-1.24h1.7zm0-3.32h-1.7v-1.25h1.7zm.9 9.96V58.83h7.55c.14-.02.3 0 .46 0a3 3 0 0 1 3.05 3.02v10.03a3.06 3.06 0 0 0-2.35-1.09h-8.7zm17.12 15.6-3.9-1.85-1.39 4.05-1.45-4.08-3.84 1.88 1.85-3.9-4.04-1.4 4.07-1.44-1.88-3.84 3.9 1.85 1.4-4.04 1.44 4.07 3.84-1.88-1.85 3.9 4.04 1.39-4.06 1.45zm13.6-25.91 3.91 1.85 1.39-4.04 1.45 4.06 3.84-1.87-1.85 3.9 4.04 1.4-4.07 1.44 1.88 3.84-3.9-1.85-1.4 4.04L70 69.2l-3.85 1.87 1.86-3.9-4.04-1.39 4.06-1.45zm-6.17-.9h1.7v1.24h-1.7zm0 3.32h1.7v1.24h-1.7zm0 3.31h1.7v1.25h-1.7zm0 3.32h1.7v1.24h-1.7zm-.9-10.72V70.8h-8.71c-.94 0-1.78.41-2.35 1.08V61.85a3 3 0 0 1 3.05-3.02c.15 0 .32-.02.47 0zM73.92 7.8C66.5 6.23 56.68 4.67 47.24 4.67c-14.16 0-29.13 3.52-35.7 5.28-1.32.35-2.3.63-2.87.8v32.22c4.27-.68 21.88-3.36 38.57-3.36 16.7 0 34.3 2.68 38.57 3.36V10.75a178.15 178.15 0 0 0-11.9-2.95Zm-40.27 3.39c.58-.14-.68-1.1.14-1.06.54.03 2.3.04 3.63.69.26.1.41-.38.92-.7.04-.03.16-.07.25 0 .53.32.71.8.97.68 1.32-.63 3.07-.63 3.6-.67.85-.05-.44.92.14 1.06a6.57 6.57 0 0 1 5.24 6.28c0 .88-.21 1.7-.51 2.46-.17.41-.6-.76-.76-.07-.3 1.23-.6 2.17-1.25 3.4-.62 1.15-1.65-1.27-1.97-.59-.58 1.23-1.95 1.65-2.9 1.8-.1 0-.2 0-.08-.13.05-.05.28-.26.34-.7.01-.04-.02-.1.09-.15a2.6 2.6 0 0 0 1.41-1.82c.23-.74.54-1.8.9-2.46.82-1.45-.17-3.2.08-3.6a2.06 2.06 0 1 0-2.66-3.08l-.05.06c-.2.2-.38.4-.54.62-.18.24-.14.67.18.76 1.4.36 2.32 3.52 1.74 4.54-.25.45-1.02 2.15-1.02 2.64a1.15 1.15 0 0 1-2.22.41l.02-.05c.4-.24 1.25-.76 1.25-1.29l-.17-1.73c.7-.08 1.02-.46 1.1-1.12l.18-.14c.23-.2.39-.79-.11-.7-.71.13-1.52.1-2.3.32a.28.28 0 0 0-.2.22c-.03.15.43 2.24.53 2.7 0 .05-.03.08-.05.08l-1.02-.05c-.14 0-.7.03-1.02.06-.03 0-.08-.04-.07-.08l.56-2.57a.35.35 0 0 0-.05-.25c-.15-.2-2.18-.37-2.45-.42a.3.3 0 0 0-.31.12c-.2.28.15.6.38.74.08.64.42 1.01 1.1 1.1l.03.03-.2 1.72c0 .55.85 1.02 1.26 1.26l.06.1c-.2.4-.6.7-1.05.7-.64 0-1.15-.52-1.15-1.15 0-.41-.76-2.19-1.05-2.67-.6-1.05.3-4.15 1.75-4.52.32-.08.48-.53.23-.77-.6-.6-1.3-1.36-2.23-1.36-1.13 0-2.05.92-2.05 2.06 0 1.3 1 1.5.93 1.86-.4 1.2-.4 2.52.14 3.45.37.64.66 1.67.88 2.4.14.76.6 1.4 1.24 1.77.32.2.17.44.3.7.06.14.17.22.25.3.14.1.03.12-.08.1-.96-.12-2.44-.52-3.05-1.8-.32-.7-1.36 1.73-1.97.58a12.82 12.82 0 0 1-1.25-3.4c-.16-.69-.6.48-.76.07a6.71 6.71 0 0 1-.51-2.46 6.58 6.58 0 0 1 5.24-6.28zm8.57 2.12c-.04-.03-.03-.15.01-.18a.91.91 0 0 1 1.12 1.44c-.06.06-.16 0-.18-.05a4.45 4.45 0 0 0-.96-1.21zm-2.08 10.32c-.22.58-1.04.4-1.47.75-.05.04-.18.04-.22.01-.43-.37-1.25-.19-1.5-.82-.03-.05-.03-.15.1-.17a2.32 2.32 0 0 0 1.45-.75c.03-.04.13-.07.2.02.34.37.82.65 1.34.73.06.01.16.06.1.23zm-6.18-9.06c-.02.03-.11.07-.19.01a.94.94 0 0 1-.34-.72c0-.5.41-.9.92-.9.24 0 .46.09.63.24.07.06.03.17 0 .2-.4.33-.74.73-1.02 1.17zm-8.12 11.8c-.63 0-.89.21-1.35.5-.28.2-.37-.36-.03-1.51.27-.9-1.5-1.4-1.92-.97-.6.46-2.12 1.37-3.61-.2-.3-.3.68-.2.73-.48.09-.4.46-.65.61-.8.1-.13.1-.32-.06-.4-.46-.24-1.09-.77-.91-1.74.02-.14-.78-.19-.51-.43 1.4-1.3 2.92-.5 3.54-.08.1.04.32.06.34-.14.05-.42-.17-.7.67-1.4.16-.13-.49-.7-.03-.67 2.9.73 1.58 3.73 2.19 4.26 1.1.99 3.77 1.76 6.29 2.3.22.05 1 .33 1.16.41 2.03 1.04 3.28.94 4.38.5.35-.13.34.32.22.43-4.03 3.84-7.1 2.87-8.18 2.17-.76-.48-2.3-.5-3.02.5-.12.11-.34.19-.43-.13-.2-.74.02-1.22.24-1.76.14-.27-.2-.35-.32-.35zm38.46 3.58c-.54.47-1.5.99-3.03.93-.65-.02-.96.16-1.13.35-.1.14-.15.3-.16.33-.1.32.03.66.2.93.16.23.1.38-.16.44-.25.07-.58.07-1.24-.24-.29-.14-.37.04-.4.17-.12.32.1.72.52 1 .23.2.18.38-.16.5-.58.2-1.1-.06-1.95-.53-.5-.28-.88-.32-1.21.07-.2.22-.18.43-.07.54.34.33.53.98-.29 2.01-.27.35-.56-.6-.81-.49-1.13.53-2.05-.16-2.4-.63-.08-.1-.23-.13-.43 0-.56.37-1.76 1-2.23-.09-.07-.16-.73.25-.72-.06.02-1.8 1.58-2.13 2.25-2.2.2-.01.24-.11.13-.27-.26-.4-.58-.86-.4-1.4.12-.4-.9-.48-.49-.69 2.06-1.02 3.21.94 3.57 1.15.6.34 3.28-.53 3.6-1.99.07-.28-.62-.4-1.31-.58-.13-.03-.2-.19.03-.37 1.63-1.21 2.93-2.78 5.88-3.07.35-.04.5.25.5.4a5.02 5.02 0 0 0 1.83 3.2c.25.19.22.47.08.6zm12.33-.92c.26.13.26.3.07.47-.2.17-.5.33-1.22.35-.32 0-.32.2-.3.34.06.33.43.58.94.64.28.08.33.26.08.52-.43.45-1 .45-1.97.42-.92-.04-1.65 1.07-1.11 1.54.36.3 1.1 1 .46 2.87-.2.57-.54-.52-.84-.35-.76.45-1.42-.11-1.76-.52-.15-.18-.28-.18-.38 0-.3.53-1.1 1.46-2.72.6-.35-.2-1.07.45-1.11.23-.26-1.26.38-2 .93-2.39.05-.04.26-.33-.1-.32-.54-.03-1.2-.2-1.28-.87-.01-.14-.7-.1-.66-.3.16-.92 2.2-1.59 3.59-.66 1.18.78 2.67-1.89 1.6-3.14-.77-.9-5.29 1.62-6.82-1.65-.62-1.3.15-2.43-.47-2.52-.63-.1-3.47-.7-6.62 1.83a10.93 10.93 0 0 1-12.46.99c-.21-.07-.42.1-.33.32a1.5 1.5 0 0 1-.14 1.45c-.56.84-2.47 1.7-2.8 1.8-2.25.66-2.01 2.37-1.78 3.13.07.23-.01.37-.26.33-.68-.13-2.07-.55-2.61-1.9-.06-.15-.22-.15-.4-.02-.84.6-.54 1.46-.34 1.84.07.15.03.3-.17.32-.76.09-1.31-.8-1.97-.74a2.9 2.9 0 0 0-1.2.56c-.14.09-.16.3-.08.55.84 2.48-.54 2.57-.62 2.52-.1-.05-.04-.47-.44-.53-1.35.08-1.73-.8-1.8-1.45-.03-.21-.12-.29-.26-.19-.51.36-1.77 1.06-2.56.03-.11-.15-.49 0-.7.1-.16.06-.16-.2-.16-.29a2.66 2.66 0 0 1 1.58-2.3c.2-.1.22-.2.06-.3-.42-.32-1.17-1-.94-1.75.05-.14-.62-.4-.46-.53 1.55-1.12 3.54.74 3.8.94.26.22 1.67.26 5.27-1.76 2.28-1.28 3.48-2.34 4.13-3.15.08-.1.24-.26.48-.27 1.45-.05 2.88-.27 4-1.25.18-.19.37-.08.45-.02 2.06 1.43 3.12-1.74 3.54-3.18.05-.3.12-.54.43-.55 7.57.36 21.92.3 21.92.3s1.89.16 1.79-1.02c-.15-1.88-7.98-1.84-13.82-1.03-2.12.29-5.2.46-7.02-.25a3.26 3.26 0 0 1-1.7-1.36c-.37-.77-.27-1.23-.2-1.72.08-.35.26-.72.5-1.11 1.5-2.32 4.96-2.5 6.04-2.5.2 0 .33-.08.36-.23.1-.54.51-1.77 1.97-1.85.4-.02.82-.18 1.08-.3.17-.07.28-.03.25.12-.04.19-.13.44-.35.62-1.02.88-.87 1.28-.74 1.4.07.05.16.02.24-.05 3.08-2.69 4.88-.9 5.43-.33.09.1.11.27-.07.31-2.1.47-2.9 2.34-7.18 2.04-.52-.03-4.02-.21-5.14 1.38-.64.92-.2 1.78 1.7 2.2 1.44.3 4.79-.18 6.37-.3 1.54-.13 8.28-.98 11.82.04 1.49.43 3.65 1.63 3.22 3.89a2.93 2.93 0 0 1-1.65 1.98s-3.88 2.73 3.08 2.76c2.15.01.03 1.78-.08 2.3-.08.38.27.72.6.92zM63.86 13.95c-.21.04-.51.13-.84.35-.63.42-3.14 1.46-3.93.2 0 0 1.76-.06 2.91-1.07 0 0 1.23-.42 1.96.23.08.08.1.26-.1.29zM47.26 0C23.57 0 0 6.3 0 6.3v31.5c0 28.4 20.33 57.92 47.24 63.02 27.91-5.45 47.27-34.62 47.27-63.01V6.3S74.76 0 47.25 0Zm40.22 49.3c0 23.12-17.57 44.11-40.23 44.14h-.01C24.58 93.4 7 72.42 7 49.3V9.5l.59-.18C7.64 9.33 28 3.01 47.24 3c19.24.01 39.65 6.33 39.65 6.33l.6.18z"/></svg>