<svg xmlns="http://www.w3.org/2000/svg" viewBox="0 0 851 813"><path fill="#574f4a" d="M447 376a229 229 0 0 0 20 216 209 209 0 0 0 173 89c44 0 86-13 122-38a204 204 0 0 0 49-290 213 213 0 0 0-148-86c-7-1-15 1-21 7-6 5-9 12-9 19-1 15 10 27 24 29l7 1c41 7 77 29 102 62a149 149 0 0 1-31 209 157 157 0 0 1-122 29 155 155 0 0 1-126-127c-7-45 7-103 36-154l13-23L688 45l2-8c4-13-1-27-13-33V3c-4-2-9-3-14-3-8 0-16 4-21 10l-5 6-161 294c-10 20-21 43-29 66zM99 810h1c4 2 9 3 14 3 10 0 20-5 25-15l279-516c6-13 3-29-9-37v-1c-4-3-12-5-19-5H25c-13 0-25 11-25 25v1c0 4 1 9 4 13l72 121c4 7 12 12 21 12 5 0 10-2 14-4 6-4 10-10 12-16 1-7 0-14-3-20l-49-81h276L88 771a29 29 0 0 0 11 39z"/><path fill="#faa41a" d="M807 813H472c-16 0-29-13-29-30 0-16 13-29 29-29h335c17 0 30 13 30 29 0 17-13 30-30 30z"/></svg>