<svg xmlns="http://www.w3.org/2000/svg" width="34.798" height="34.798" viewBox="0 0 9.207 9.207"><g fill="#f07015"><path d="M3.466 8.122c.024.094-.04.168-.161.154 0 0-1.475-.115-2.003-1.93C.954 5.157.392 3.226.047 2.04-.134 1.42.234.93.73.93c.468-.001 1.02.383 1.203 1.11l1.533 6.082M7.274 2.04C7.457 1.314 8.01.93 8.477.93c.495 0 .864.49.683 1.11L7.905 6.347C7.376 8.16 5.901 8.275 5.901 8.275c-.109.015-.185-.055-.16-.153L7.274 2.04M6.09 3.807c0 .74-.649 2.734-1.45 2.734-.802 0-1.452-1.994-1.452-2.734s.65-1.34 1.451-1.34c.802 0 1.452.6 1.452 1.34"/></g></svg>