<svg xmlns="http://www.w3.org/2000/svg" width="335.721" height="335.721"><path d="M164.021 208.398c.671-41.846 30.21-85.823 45.202-85.823 4.43 0 5.37 2.879 5.37 5.936 0 14.323-21.258 52.586-50.572 79.887M312.65 59.158c-13.958-.078-27.429 8.372-36.153 21.053 41.212 26.95-9.283 161.132-83.755 161.132-8.925 0-16.498-2.598-21.565-7.905 40.315-36.316 69.439-85.701 69.439-114.826 0-14.89-7.274-24.336-24.323-24.336-49.464 0-101.615 81.155-91.94 139.703-31.19 11.078-46.687-2.779-46.687-30.613 0-58.117 60.727-118.395 57.2-136.531C71.943 86.287 22.698 41.092 0 114.647c30.586-16.643 58.817 9.96 93.71-9.49-29.966 34.566-60.21 83.508-59.802 124.839.268 27.054 14.88 46.568 46.53 46.568 17.976 0 36.629-6.295 54.58-16.561 7.695 9.618 20.091 16.561 39.037 16.561 77.245 0 161.666-108.536 161.666-185.982 0-20.547-8.152-31.342-23.072-31.424" fill="#e62324"/></svg>