<svg xmlns="http://www.w3.org/2000/svg" viewBox="0 0 42 42"><rect width="42" height="42" fill="#13C1AC" rx="10"/><path fill="#fff" d="M32.94 21c.32 1.61-.22 5.37-4.1 6.39-.2.05-.33.25-.36.46a5.9 5.9 0 0 1-2.55 4.22c-2.6 1.75-6.1 1-7.84-1.65-.14-.22-.34-.3-.63-.22a5.5 5.5 0 0 1-4.8-.62 5.91 5.91 0 0 1-1.7-8.03.58.58 0 0 0-.1-.72 5.49 5.49 0 0 1-1.22-6.7 5.29 5.29 0 0 1 7.31-2.22c.21.11.49.13.65-.05C18.98 10.2 20.66 9 23.34 9c4.2-.01 7.2 3.66 7.08 7.9a.48.48 0 0 0 .24.47A5.61 5.61 0 0 1 32.93 21zm-6.49 5.64c0-.48.27-.76.75-.78a3.83 3.83 0 0 0 3.54-4.04 4.8 4.8 0 0 0-.6-1.91c-.15-.25-.46-.37-.7-.22a.62.62 0 0 0-.21.24 7.72 7.72 0 0 1-2.12 2.53.78.78 0 0 1-1.07-.12.8.8 0 0 1 .08-1.12 5.55 5.55 0 0 0 .85-7.89 5.18 5.18 0 0 0-7.33-.79c-.3.23-.88.72-1.25 1.45-.18.38-.75.51-1.08.26l-.07-.06a3.52 3.52 0 0 0-5.14.59 3.8 3.8 0 0 0 .82 5.32c.57.42 1.22.57 1.92.62a.72.72 0 0 1 .66.72.72.72 0 0 1-.7.73 5.18 5.18 0 0 1-1.47-.2.5.5 0 0 0-.58.28 4.06 4.06 0 0 0 1.46 5.45c.8.48 1.77.63 2.69.44a.53.53 0 0 0 .4-.58 5.75 5.75 0 0 1 1.04-3.98.77.77 0 0 1 1.08-.22.8.8 0 0 1 .22 1.1 3.89 3.89 0 0 0 1.09 5.28 3.64 3.64 0 0 0 5.13-1.12c.37-.6.58-1.28.6-1.98"/></svg>