<svg width="48" height="48" fill="none" xmlns="http://www.w3.org/2000/svg"><g filter="url(#a)"><path fill-rule="evenodd" clip-rule="evenodd" d="M4 16C4 8.268 10.268 2 18 2h12c7.732 0 14 6.268 14 14v12c0 7.732-6.268 14-14 14H18c-7.732 0-14-6.268-14-14V16Z" fill="#13C1AC"/></g><path fill-rule="evenodd" clip-rule="evenodd" d="M35.365 22.003c-.437-2.2-1.814-3.245-2.162-3.462a.46.46 0 0 1-.232-.444c.122-4.045-2.744-7.536-6.744-7.526-2.556.007-4.152 1.151-5.47 2.722-.15.177-.411.158-.615.05-2.582-1.38-5.657-.45-6.957 2.106-1.128 2.216-.68 4.74 1.151 6.385a.553.553 0 0 1 .094.693c-1.598 2.572-.872 5.994 1.625 7.64a5.23 5.23 0 0 0 4.573.596c.271-.08.467 0 .599.21 1.657 2.515 4.983 3.233 7.467 1.569a5.617 5.617 0 0 0 2.429-4.017c.024-.2.152-.39.342-.44 3.697-.974 4.205-4.55 3.9-6.082Zm-6.172 5.369a3.698 3.698 0 0 1-.57 1.882c-1.063 1.684-3.25 2.161-4.886 1.066-1.635-1.095-2.098-3.348-1.035-5.032a.765.765 0 0 0-.212-1.043.732.732 0 0 0-1.026.214 5.48 5.48 0 0 0-.981 3.79.506.506 0 0 1-.393.555 3.606 3.606 0 0 1-2.56-.421c-1.777-1.039-2.4-3.364-1.392-5.195.113-.202.322-.324.557-.261.455.13.925.192 1.396.187a.683.683 0 0 0 .668-.698.686.686 0 0 0-.631-.686c-.663-.042-1.28-.189-1.823-.585-1.662-1.21-1.938-3.448-.785-5.068 1.1-1.547 3.307-1.866 4.902-.56.007.005.054.054.06.06.314.234.858.105 1.035-.25.345-.697.895-1.164 1.182-1.379 2.266-1.695 5.166-1.446 6.984.747 1.87 2.256 1.566 5.546-.805 7.519-.315.261-.341.752-.076 1.068.253.3.704.353 1.012.113.808-.628 1.558-1.485 2.022-2.413a.59.59 0 0 1 .194-.232c.234-.144.534-.03.673.211.288.5.54 1.246.572 1.825.113 2.006-1.424 3.73-3.37 3.846-.459.019-.71.286-.712.74Z" fill="#fff"/><defs><filter id="a" x="0" y="0" width="48" height="48" filterUnits="userSpaceOnUse" color-interpolation-filters="sRGB"><feFlood flood-opacity="0" result="BackgroundImageFix"/><feColorMatrix in="SourceAlpha" values="0 0 0 0 0 0 0 0 0 0 0 0 0 0 0 0 0 0 127 0" result="hardAlpha"/><feOffset dy="2"/><feGaussianBlur stdDeviation="2"/><feColorMatrix values="0 0 0 0 0.145098 0 0 0 0 0.196078 0 0 0 0 0.219608 0 0 0 0.1 0"/><feBlend in2="BackgroundImageFix" result="effect1_dropShadow_7634_6627"/><feBlend in="SourceGraphic" in2="effect1_dropShadow_7634_6627" result="shape"/></filter></defs></svg>