<svg xmlns="http://www.w3.org/2000/svg" height="186.105" width="186.105" xml:space="preserve" id="svg2" version="1.1"><style id="style879">.wallmartSpark{fill:#fab41d}</style><g id="g959" transform="translate(-594.72 -.001)"><path id="path28" class="wallmartSpark" d="M687.753 62.654c4.36 0 7.95-2.264 8.435-5.196l4.31-48.69c0-4.813-5.638-8.767-12.731-8.767-7.08 0-12.71 3.954-12.71 8.767l4.3 48.69c.475 2.932 4.068 5.196 8.412 5.196h-.016" fill-opacity="1" fill-rule="nonzero" stroke="none" stroke-width=".133"/><path id="path30" class="wallmartSpark" d="M661.436 77.865c2.188-3.771 2.019-8.015-.284-9.896L621.131 39.9c-4.158-2.408-10.4.49-13.942 6.63-3.552 6.133-2.922 12.985 1.234 15.39l44.309 20.633c2.775 1.032 6.545-.944 8.72-4.715l-.016.027" fill-opacity="1" fill-rule="nonzero" stroke="none" stroke-width=".133"/><path id="path32" class="wallmartSpark" d="M714.09 77.838c2.182 3.77 5.94 5.747 8.715 4.715l44.316-20.633c4.174-2.405 4.772-9.257 1.244-15.39-3.557-6.14-9.806-9.038-13.956-6.63l-40.022 28.069c-2.29 1.881-2.459 6.125-.282 9.896l-.016-.027" fill-opacity="1" fill-rule="nonzero" stroke="none" stroke-width=".133"/><path id="path34" class="wallmartSpark" d="M687.753 123.47c4.36 0 7.95 2.253 8.435 5.183l4.31 48.687c0 4.821-5.638 8.767-12.731 8.767-7.08 0-12.71-3.946-12.71-8.767l4.3-48.687c.475-2.93 4.068-5.182 8.412-5.182h-.016" fill-opacity="1" fill-rule="nonzero" stroke="none" stroke-width=".133"/><path id="path36" class="wallmartSpark" d="M714.09 108.265c2.182-3.778 5.94-5.74 8.715-4.695l44.316 20.61c4.174 2.413 4.772 9.27 1.244 15.408-3.557 6.12-9.806 9.028-13.956 6.628l-40.022-28.047c-2.29-1.904-2.459-6.144-.282-9.912l-.016.008" fill-opacity="1" fill-rule="nonzero" stroke="none" stroke-width=".133"/><path id="path38" class="wallmartSpark" d="M661.436 108.257c2.188 3.768 2.019 8.008-.284 9.912l-40.021 28.047c-4.158 2.4-10.4-.508-13.942-6.628-3.552-6.139-2.922-12.995 1.234-15.409l44.309-20.61c2.775-1.044 6.545.918 8.723 4.696l-.02-.008" fill-opacity="1" fill-rule="nonzero" stroke="none" stroke-width=".133"/></g></svg>