<svg xmlns="http://www.w3.org/2000/svg" fill="#414b56" width="66.267" height="66.267"><path fill="#00a2e1" fill-rule="evenodd" d="M0 0h66.267v66.267H0z"/><path d="M37.5 22.06h-1.073c-.266-.086-1.1.296-1.1.652l-5.673 14.902L24.137 22.6c-.1-.476-.86-.636-.917-.596h-.086c-.284-.094-.886.39-.886.61l-5.343 15.013a7370.413 7370.413 0 01-5.815-14.783c-.068-.33-.54-.83-1.043-.785H8.664c-.09 0-.22-.015-.52.113-.278.16-.382.54-.365.69 0 .247.08.357.115.53l8.047 20.3c.305.486.756.58.9.58h.064s.725.044.943-.64a2009.994 2009.994 0 015.35-14.468c1.212 3.34 3.792 10.418 5.314 14.474.1.485.89.653.976.634.062.02.853-.15.925-.61 2.698-6.76 5.928-14.904 8.015-20.27.054-.173.08-.237.102-.506 0-.714-.944-.827-1.03-.827zM50.677 33.237c-1.762-.018-4.5-.018-5.834-.018v-8.057h5.774c2.62.068 4.654 1.493 4.654 4.032-.014 2.692-2.022 4.016-4.593 4.043zm.038-10.98h-8.156a.812.812 0 00-.654.263.982.982 0 00-.272.714v19.808c.047.153-.05.318.244.67.277.3.554.3.674.3h1.413c.103 0 .49 0 .73-.396.206-.327.128-.46.15-.574v-6.918h5.264c4.848-.01 8.364-2.65 8.382-6.93-.018-4.3-3.7-6.937-7.774-6.937z" fill="#fff"/></svg>