<svg xmlns="http://www.w3.org/2000/svg" width="248.061" height="248.061" viewBox="0 0 65.633 65.633"><g fill="#04506e"><path d="M52.057 39.647l-1.313 1.692c1.092.333 1.75.69 2.215 1.058-.005.102-2.82 6.017-4.419 6.94l3.251-.646c.33-.724 2.098-6.52 4.916-8.097-1.61-.006-3.25.138-4.65-.947zM13.575 39.647c-1.4 1.085-3.039.94-4.649.947 2.818 1.577 4.587 7.373 4.916 8.097l3.251.647c-1.599-.924-4.414-6.84-4.42-6.94.467-.369 1.124-.726 2.217-1.06zM32.813 36.385c-1.107 1.84-3.124 3.833-8.057 6.315-.178 4.228 1.084 6.31 2.86 7.621-1.917-2.609-2.458-4.62-1.056-5.786l6.253-3.76m0 0l6.238 3.75c1.402 1.166.883 3.187-1.035 5.796 1.777-1.312 3.039-3.393 2.861-7.621-4.933-2.482-6.957-4.474-8.064-6.315"/><path d="M53.986 33.297l-.893 3.369c1.958.405 3.853 1.725 5.82 3.21-1.256 2.355-2.383 9.086-7.214 12.054l4.817-.843c2.428-4.483 4.598-12.851 9.117-14.7-4.586 1.294-8.64-1.222-11.647-3.09zM11.646 33.297C8.64 35.165 4.586 37.68 0 36.387c4.518 1.849 6.69 10.217 9.117 14.7l4.817.843c-4.832-2.968-5.958-9.7-7.213-12.055 1.966-1.484 3.861-2.804 5.82-3.209zM32.813 26.97c.038 2.017-4.177 5.53-12.046 9.892-.574 4.438.759 8.217 3.99 11.34-2.474-3.535-3.653-6.669-1.364-8.725l9.42-5.744 9.426 5.744c2.29 2.056 1.111 5.19-1.362 8.725 3.23-3.123 4.617-6.902 4.043-11.34-7.869-4.362-12.145-7.875-12.107-9.892z"/><path d="M32.813 13.703c-.299 3.292-7.354 9.564-18.336 14.842-1.251 10.089 4.602 16.985 6.29 17.697-2.86-3.552-6.782-9.42-2.263-13.617l14.309-8.589 14.31 8.589c4.518 4.198.596 10.065-2.264 13.617 1.688-.712 7.541-7.608 6.29-17.697-10.982-5.278-18.037-11.55-18.336-14.842z"/></g></svg>