<svg xmlns="http://www.w3.org/2000/svg" width="93.551" height="93.551" viewBox="0 0 93.551 95.5"><path fill-rule="evenodd" clip-rule="evenodd" d="M46.776 0c26.4 0 47.7 21.4 47.7 47.7 0 26.3-21.3 47.8-47.7 47.8-26.4 0-47.7-21.4-47.7-47.8S20.476 0 46.776 0zm0 9.1c21.4 0 38.7 17.3 38.7 38.7 0 14.2-7.7 26.7-19.2 33.4 2.4-8.4 3.4-17 3-26.9 2.5.7 3.9 1.1 6.4 1.9-2.9-7.3-6-13.9-10.1-20.6-3.6 6.9-8.5 13.4-13.4 18.5l8-.5c-6.9 12.3-16.6 18.3-28.9 20-2.8-13.9-.7-36.6 15-47.2l1.6 7.6c3.1-4.9 9.1-11.4 13.6-15.9-7.1-2.8-15.3-3.7-23.3-2.2 1.3 1.1 2.9 2.5 4.2 3.6-17.7 7.5-27.4 19.8-33.8 34.1-.3-1.9-.4-3.9-.4-5.8 0-21.4 17.3-38.7 38.6-38.7z"/></svg>