<svg xmlns="http://www.w3.org/2000/svg" viewBox="0 0 332.6 321.2"><defs><linearGradient id="a" x1="21.3" x2="311.5" y1="159.3" y2="159.3" gradientUnits="userSpaceOnUse"><stop offset="0" stop-color="#4047ff"/><stop offset="1" stop-color="#04006c"/></linearGradient></defs><path fill="url(#a)" d="M311.5 104.7c-2.1 15-9.2 64.5-45.5 112.9a276 276 0 0 1-99.7 81.5c-14.5-7.3-62.9-31.5-99.7-81.5a242 242 0 0 1-45.3-112.9L43.2 93V76.6L65 64.7V48.4a335 335 0 0 1 101.3-29c38.1 5 71.3 14.5 101.3 29v16.3l21.8 11.9v16.3z"/><path fill="#ffc200" d="M309.1 81.3V65l-21.8-12V36l-11-5.3c-31.9-15-66.9-25-107.4-30.5l-2.6-.3-2.7.3A354 354 0 0 0 56.6 31l-11 5.3v17.1L23.5 65v16.3L0 93.9l1.8 13.4A263 263 0 0 0 51 229.2c26.6 36 62.4 65.5 106.6 87.6l8.7 4.4 8.6-4.4c44.3-22.1 80-51.6 106.6-87.7a264 264 0 0 0 49.2-121.8l1.8-13.4zm2.4 23.4c-2.1 15-9.2 64.5-45.5 112.9a276 276 0 0 1-99.7 81.5c-14.5-7.3-62.9-31.5-99.7-81.5a242 242 0 0 1-45.3-112.9L43.2 93V76.6L65 64.7V48.4a335 335 0 0 1 101.3-29c38.1 5 71.3 14.5 101.3 29v16.3l21.8 11.9v16.3zM133.9 59l1 132.9-1 .5a418 418 0 0 1-25-124.2q-10.3 4.7-21.8 11.6c3.1 40.3 10 75.5 22.3 109.2l-7 4c-18.7-26.1-30.8-57.7-39-95.3q-8.6 7.9-17.1 17.4c10.8 45 28.2 79.2 53.2 106.8l19.2-11.6A219 219 0 0 0 156 265V55q-11 1.3-22 4zm124.2 68.7c7.9-8.7 9.5-15 9.5-22.6 0-10.8-9-20.5-22.1-29a143 143 0 0 0-69.2-20.8v210.3c44.2-22.7 96.5-85 96.8-116.9.5-9.7-4.5-16-15-21m-59.7-47.4c10.8 0 46 11 46 25.3 0 5-4.5 12.4-18.4 19.7L198.4 140zm27.3 116.6a205 205 0 0 1-27.3 26.6V163l41.3-23.4c11.8 3.2 11.3 11.8 11.3 12.6 0 11-11.3 28.2-25.3 44.5"/></svg>