<svg xmlns="http://www.w3.org/2000/svg" viewBox="0 0 285.72 358.3"><path fill="#004db4" d="M69.18 13.49a2 2 0 0 0-1.49 1.87L64.32 30l-27.67 7.43c-.75.19-.94.75-1.13 1.49l-3.74 15.34-26.92 7.1c-.75.19-1.12.75-1.5 2.25A192.68 192.68 0 0 0 0 99.88c0 107.71 56.09 201.2 139.86 256.92a7.52 7.52 0 0 0 3 1.5 7.52 7.52 0 0 0 3-1.5c83.76-55.72 139.86-149.21 139.86-256.92a191.86 191.86 0 0 0-3.37-36.27c-.37-1.5-.74-2.06-1.49-2.25l-26.93-7.1-3.74-15.34c-.18-.74-.37-1.3-1.12-1.49L221.39 30 218 15.41a2 2 0 0 0-1.49-1.87L144.63.16a10.14 10.14 0 0 0-3.56 0Z"/><path fill="#fff" d="M154.82 307.63c70.29-65 91.6-113.28 91.6-142.45 0-16.45-6.35-28.79-22.81-33.27a50.8 50.8 0 0 0 13.09-34c0-30.28-32.15-51.22-82.25-54.58a1 1 0 0 0-1.13.85 1.22 1.22 0 0 0 0 .27v262.81c0 .75.75 1.12 1.5.37Zm-22.43-.37V44.42a1 1 0 0 0-.86-1.12.82.82 0 0 0-.27 0 147.84 147.84 0 0 0-18.69 3.36c-1.5.37-1.87 1.12-1.87 2.62l.76 134.22c0 16.83 0 30.66.75 46.37 0 1.12-1.13 1.49-1.5.37-13.83-43-20.19-96.84-19.07-174.61 0-1.49-.37-1.87-2.24-1.12a130.14 130.14 0 0 0-18 9.35c-1.12.75-1.49 1.49-1.49 3.36-1.12 53.47 3.36 99.83 11.21 134.6L77 204.44c-1.5 1.12-2.62 1.12-3.74-1.12C60.23 174.16 52 129.66 52 81.81c0-1.87-1.12-2.62-2.24-1.5a179.37 179.37 0 0 0-16.45 17.2 6.68 6.68 0 0 0-1.85 4.86c1.12 38.88 13.46 94.22 32.54 127.87 2.25 4.11 5.24 5.23 9 2.62l14.21-9c9.34 31.41 23.18 60.2 43.74 83.75.75.75 1.5.38 1.5-.37ZM174.64 68c22.8 1.5 40 13.84 40 28.79 0 15.7-11.22 32.53-40 49.35Zm37 84.87c7.1 0 12 6 12 16.46 0 14.95-10.84 44.11-49 86.74v-84.5c22-15.7 29.16-18.7 37-18.7Z"/></svg>