<svg xmlns="http://www.w3.org/2000/svg" xmlns:xlink="http://www.w3.org/1999/xlink" width="64.001" height="64.001" fill="#fff" fill-rule="evenodd" stroke="#000" stroke-linecap="round" stroke-linejoin="round"><use xlink:href="#a" x=".5" y=".5" width="100%" height="100%" fill="#50b84d"/><symbol id="a" overflow="visible" transform="translate(-.5 -.5)"><path d="M54.628 9.373C42.13-3.124 21.87-3.124 9.373 9.373s-12.497 32.758 0 45.255 32.758 12.497 45.255 0 12.497-32.758 0-45.255zm3.458 19.722L44.307 16.59l-21.5 20.278V26.49L34.03 15.826l8.382-7.92a26.319 26.319 0 0115.675 21.19zm-.235 7.546a26.08 26.08 0 01-2.755 7.858l-7.85-7.16V26.95zM36.014 6.05l-5.93 5.604-7.297 6.92V7.42a26.29 26.29 0 0113.236-1.368zM17.047 37.057L6.17 27.293a26.08 26.08 0 012.858-7.986l8.02 7.198zm0-26.613v8.335l-4.67-4.2a26.348 26.348 0 014.67-4.146zM5.89 34.755l14.094 12.642L41.47 27.175v10.198l-19.82 18.75A26.31 26.31 0 015.892 34.755zM28.05 57.95l13.415-12.684v11.208a26.136 26.136 0 01-9.472 1.77c-1.32.001-2.64-.096-3.948-.292zm19.16-4.575v-8.292l4.575 4.142a26.55 26.55 0 01-4.561 4.151z" fill="#00ce3e" fill-rule="nonzero" stroke="none"/></symbol></svg>