<svg xmlns="http://www.w3.org/2000/svg" viewBox="0 0 77.432 54.527"><path d="M41.555 14.858a20.67 20.67 0 0 1 5.16 12.39 79.55 79.55 0 0 1-5 15.34s-2.94.12-8.11.19c-1.22-7.45-3.27-15.39-4.69-20.84h-.07c-1.42 5.45-3.47 13.39-4.69 20.84-5.17-.07-8.1-.19-8.1-.19-5.77-12.57-7-27.4-7-27.4 2.65-.19 4.88-.27 7.15-.32.56 5.56 2.51 16.57 3.61 19.71h.03a83.48 83.48 0 0 1 5.43-19.92c2.58-.06 4.36-.1 7 0h.09a83 83 0 0 1 5.48 19.93h.09c1.11-3.14 3-14.15 3.62-19.71z"/><path d="M28.695 2.667c-.9-.09-1.82-.14-2.76-.14a26 26 0 1 0 2.76.14l-.21 2.17a24 24 0 1 1-2.55-.13c.86 0 1.71.05 2.55.13z" style="fill:#999898"/><path d="M76.845 2.978a5.43 5.43 0 0 1-2.41 7.31l-15.1 7.62a5.45 5.45 0 0 1-4.87-9.72l15.11-7.62a5.44 5.44 0 0 1 7.27 2.41" style="fill:#ed1f24"/></svg>