<svg xmlns="http://www.w3.org/2000/svg" width="150" height="150"><path d="m106.05 103.75 19.58-54.47 2.5-7.78c.5-1.92.76-3.6.76-5.02 0-2.18-.7-3.66-2.07-4.46s-3.83-1.19-7.34-1.19v-4.77h30.5v4.77c-3.86 0-6.76.8-8.73 2.39s-3.62 4.18-4.96 7.78l-31.5 82.95h-4.39l-24.1-71.4-26.73 71.4h-4.39l-26.1-72.03c-1.51-4.02-2.87-7.39-4.08-10.1s-2.51-4.88-3.9-6.47-2.94-2.72-4.7-3.39-3.89-1-6.4-1v-4.9h40.91v4.9c-4.26 0-7.25.38-8.97 1.13s-2.57 2.22-2.57 4.4c0 1.08.16 2.33.5 3.76s.84 3.1 1.5 5.02l19.08 58.1L65.9 59.95c1.17-3.26 2.32-6.3 3.45-9.1s2.03-5.33 2.7-7.6c-1.17-2.42-2.24-4.43-3.2-6.02s-1.93-2.84-2.89-3.76a8.6 8.6 0 0 0-6.34-2.51v-4.9h38.4v4.9c-2.42 0-4.39.08-5.9.25s-2.65.44-3.44.82-1.34.9-1.64 1.57-.44 1.46-.44 2.38c0 1.26.23 2.78.7 4.58s1.1 4.08 1.94 6.84l16.82 56.35"/></svg>