<svg xmlns="http://www.w3.org/2000/svg" xml:space="preserve" width="1021.334" height="759.125"><path d="M1432.24 4134.12c-36.38 995.66 50.77 1941.65 423.89 2426.54 370.91 482.04 990.25 395.29 1252.87 171.01 383.65-327.64 351.74-952.92 273.28-1833.23 958.11 1570.45 1661.42 2181.33 2202.7 2217.49 1025.32 68.51 1059.37-1134.19 935.65-1845.59 703.66 935.65 1268.14 1376.4 1616.24 1553.09 677.24 343.76 1262.17-134 757.66-872.62-764.28-1118.96-982.04-1484.66-1739.83-3038.91-537.22-1101.83-1720.19-1017.77-2064.27 67.1-87.45 275.73-113.4 675.77-84.83 1127.48-789.29-1264.17-951.67-2681.18-2108.05-2681.18-653.06 0-1389.28 628.39-1465.31 2708.82" style="fill:#f14a26;fill-opacity:1;fill-rule:nonzero;stroke:none" transform="matrix(.13333 0 0 -.13333 -189.955 949.165)"/></svg>