<svg xmlns="http://www.w3.org/2000/svg" width="491.946" height="491.946"><path d="m38.37 370.247 2.38.76c28.53 9.17 59-5.53 67.73-32.67l32.28-105.56c8.72-27.14-7.48-56.85-36-66l-2.38-.77c-28.53-9.17-59 5.53-67.73 32.67L2.36 304.227c-8.72 27.14 7.48 56.85 36.01 66.02z" fill="#1f65a6"/><path d="M247.86 386.397c6.7-15.72 11.59-33.82 16.7-49.88 11.28-35.45 21.17-71.5 32-107.07q6.84-22.38 13.6-44.79c10-31-5.23-63.84-33.76-73l-2.4-.77c-28.45-9.15-59.83 8.59-69.88 39.42l-60.85 202.89c-8.39 26.1-28.17 45.09-51.17 52.46a46.27 46.27 0 0 1-5.48 1.53 67.46 67.46 0 0 1-36.23-1.35l-2.39-.77c-1.89-.61-3.7-1.35-5.51-2.11 12.6 18.11 37.95 37.44 67.62 47.18 33 10.82 70.93 6 99.36-13.92 18.53-12.97 29.9-29.89 38.39-49.82z" fill="#328ff8"/><path d="M405.45 386.227C403 393.057 366 489.557 248 449.057a53.35 53.35 0 0 0 32.33-35.66c3.85-13.48 37.84-125.67 37.84-125.67h.06l65.24-219.33c8.72-27.14 39.2-41.84 67.73-32.67l2.38.76c28.53 9.18 44.73 38.88 36 66l-70.1 235.85s-11.62 41.06-14.03 47.89z" fill="#76c3fc"/></svg>