<svg width="1024px" height="1024px" viewBox="0 0 1024 1024" xmlns="http://www.w3.org/2000/svg">
   <circle cx="512" cy="512" r="512" style="fill:#3067f0"/>
   <path d="M506.7 258.91a28.05 28.05 0 0 1 1.82-2.91q56.07 83.79 112.32 167.47Q493.92 520.9 367 618.32c-23.25-.06-46.5 0-69.76 0q38.7-66.78 77.56-133.48C395.52 449.18 416.13 413.5 437 378zM277.2 590.23Q324 510 370.72 429.62l.54-1.25Q313.55 387.79 256 347q10.65 121.62 21.2 243.23zm467.6 29.93Q756.42 486.74 768 353.3 594.29 486.69 420.66 620.17zm-468.2 86.06h467.76v-56.08H276.63q-.04 28.04-.04 56.09z" style="fill:#fff"/>
</svg>
