<svg xmlns="http://www.w3.org/2000/svg" height="36.61" width="36.61"><path d="M28.16 7.63v.27a3.21 3.21 0 011.89 1.29 4.91 4.91 0 01.64 2.69c0 1.235-.19 2.462-.56 3.64a27 27 0 01-1.63 4l-.76 1.67L24 12.11a10.51 10.51 0 01-.46-1.33 5 5 0 01-.18-1.06A1.71 1.71 0 0125 7.94v-.27H13.72v.27c.384.07.755.198 1.1.38.352.237.65.547.87.91.39.613.724 1.258 1 1.93l1.76 4.2-3.18 6.29-4.74-11a3.9 3.9 0 01-.3-.69 2.76 2.76 0 01-.07-.53 1.36 1.36 0 01.34-.91 2.36 2.36 0 011-.64v-.25H0v.27a5.74 5.74 0 012.46 1.51 13.33 13.33 0 012.16 3.42l7.28 16.18h.3l6.56-13 5.61 13h.3l6.67-14.4A23.35 23.35 0 0134 9.98a7.29 7.29 0 012.61-2.12V7.6h-8.45z" fill="#54575a" fill-rule="evenodd"/></svg>