<svg xmlns="http://www.w3.org/2000/svg" width="39.659" height="39.659" clip-rule="evenodd" fill-rule="evenodd" stroke-linejoin="round" stroke-miterlimit="1.414"><path d="M39.478 37.876c-8.541-7.044-7.47-21.777-5.048-35.45.097-.55.163-.919-.27-.97-2.759-.327-11.952 1.188-14.59 1.915-.687.19-.749.39-.76.83-.717 27.372 16.24 33.753 20.445 34 .103.006.354.04.396-.022.042-.06-.083-.224-.173-.303zM5.968 15.083c-.402.27-.705.31-.606.82 1.072 5.53 6.899 22.4 26.246 22.343.459.021.922-.064.56-.292-2.691-2.092-12.26-4.754-16.177-25.903-.04-.216-.035-1.038-.873-.785-4.19 1.42-8.748 3.548-9.15 3.817zM.422 28.864c-.397.446-.482.483-.386.837.889 3.274 6.207 8.926 19.217 8.484.614-.02.617-.21.296-.45-.209-.158-4.321-1.494-8.081-4.994-1.882-1.75-3.796-4.41-5.08-6.939-.319-.69-.58-1.196-.94-.977-1.189.724-4.044 2.936-5.026 4.04z" fill="#4840bb"/></svg>