<svg xmlns="http://www.w3.org/2000/svg" data-name="Logo SVG" width="80" height="80"><path d="M24.84 30a10 10 0 1010 10 10.09 10.09 0 00-10-10zm0 17.9a7.85 7.85 0 117.8-7.9 7.9 7.9 0 01-7.8 7.9zM46.33 30a10 10 0 1010 10 10 10 0 00-10-10zm0 17.9a7.85 7.85 0 117.8-7.9 7.77 7.77 0 01-7.8 7.9zM7.64 36a6.74 6.74 0 00-5.3 1.4v-5.3h9c.3 0 .5-.1.5-1s-.4-.9-.6-.9h-9.9a.9.9 0 00-.9.9v8.8c0 .5.3.6.8.7a.76.76 0 00.9-.2 5.69 5.69 0 015-2.4 5.2 5.2 0 014.5 4.4 5.06 5.06 0 01-4.4 5.6h-.6a5.1 5.1 0 01-4.7-3.3c-.1-.3-.3-.5-1.1-.2s-.9.5-.8.8a7.09 7.09 0 009 4.2 7.09 7.09 0 004.2-9 7 7 0 00-5.6-4.5zm55.49-5.9a5.42 5.42 0 00-4.8 5.4v8.9c0 .5.4.6 1 .6s1-.1 1-.6v-8.9a3.36 3.36 0 012.9-3.4 3.29 3.29 0 012.5.8 3.19 3.19 0 011.1 2.4 4 4 0 01-.7 1.9 3.15 3.15 0 01-2.8 1.3c-.4 0-.7 0-.8.9 0 .6 0 .9.5 1a4.92 4.92 0 002.9-.6 5.37 5.37 0 002.9-4.2 5.18 5.18 0 00-4.82-5.6 2.77 2.77 0 01-.88.1zm13.1 5.2l3.6-3.6c.1-.1.4-.4-.2-1.1a1 1 0 00-.7-.4.52.52 0 00-.4.2l-3.6 3.6-3.6-3.7c-.3-.3-.6-.2-1.1.2-.5.4-.5.8-.2 1.1l3.6 3.6-3.62 3.7a.76.76 0 00-.2.4.84.84 0 00.4.7 1.61 1.61 0 00.7.4 1.06 1.06 0 00.5-.2l3.6-3.6 3.6 3.6a.52.52 0 00.4.2 1 1 0 00.7-.4c.3-.4.4-.8.1-1z"/></svg>