<svg xmlns="http://www.w3.org/2000/svg" width="50" height="50" viewBox="-3.5 -2.5 50 50"><path d="M45.536 19.679l-1.725-1.954-9.293-10.513c-.439-.525-1.107-.945-2.002-1.26a7.653 7.653 0 00-2.585-.452H3.534c-1.99 0-3.639.654-4.94 1.964C-2.803 8.917-3.5 10.56-3.5 12.394v20.127c0 1.889.698 3.536 2.093 4.938 1.302 1.36 2.95 2.041 4.941 2.041h26.397c.966 0 1.843-.165 2.633-.494a5.192 5.192 0 002.065-1.546l9.182-11.276 1.725-2.117c1.285-1.598 1.285-3.06 0-4.388z" fill="#0da5f3"/><path d="M27.547 18.286L17.02 28.705l-6.728-6.63c-.093-.051-.148-.151-.167-.299l2.197-2.068c.092.051.192.095.298.133l4.4 4.555 8.247-8.315c.217-.199.397-.318.541-.355l2.093 1.991c-.019.217-.136.407-.353.569z" fill="#fff"/></svg>