<svg xmlns="http://www.w3.org/2000/svg" viewBox="0 0 56 56"><path fill="#FFD800" d="M49 56H7c-3.85 0-7-3.15-7-7V7c0-3.85 3.15-7 7-7h42c3.85 0 7 3.15 7 7v42c0 3.85-3.15 7-7 7z"/><path fill="#333" d="M12.628 17.196c.45.166 1.048-.134 1.481-.211.43-.075 2.19-.47 1.857-.069-.187.226-.67.227-1.1.353-.597.176-1.555.275-1.592 1.043-.085 1.827 2.755.612 3.587.315 2.255-.785 4.84-.92 7.122-1.301 2.532-.421 5.135-.46 7.691-.558 2.69-.103 5.584-.216 8.227.157.704.099 1.37.177 2.086.252.62.064 1.928.633 2.48.372.501-.237.274-.83.533-1.133.373-.435 1.108-.36.597-1.29-.389-.708-1.808-.938-2.542-.794-.073-.447.269-.249.359-.481.13-.335.13-.852-.088-1.224-.394-.677-2.266-.917-2.267-.916-4.491-.723-12.572-1.503-21.173-.5-1.427.167-3.931.345-5.393.937-.647.262-.637.268-.717.692-.077.603.213 1.306.938 1.156 1.389-.286 3.843-.683 4.546-.862 3.469-.883 15.015-.711 16.502-.358.919.196 5.968.362 6.089 1.286-11.782-.488-16.28-.483-26.859.774-.884.146-1.415.339-2.112.575-.859.289-1.44 1.346-.252 1.785zM28.208 9.892c.412.036 3.667.133 3.854-1.14.106-.722-.608-1.894-.813-2.106-.27-.223-.865 1.722-1.015-.191-.024-.312-.104-.795-.251-1.09-.074-.148-.165-.256-.275-.256a.388.388 0 00-.18.062c-.094.061-.228.259-.295.425-.184.454-.265 2.209-.72 2.238-.495.032-.48-1.124-.414-1.46.011-.055-.001-.068-.023-.063-.047.013-.062.022-.1.035-.297.114-.636.459-.661.484-.466.478-1.096 1.725-.778 2.299.331.593 1.323.732 1.671.763zM50.887 34.98c-.035-.249-.108-.402-.277-.631-.613-.839-3.495-1.401-3.496-1.391-1.447-.316-3.114-.588-4.975-.815.265-1.258-.012-3.579-.019-4.386.037-1.441.007-5.166-.102-6.108-.083-.885-.201-1.272-.686-2.004-.348-.523-.455-1.034-1.257-.953-.73.073-.999 1.086-.874 1.702l.314 1.253c.131.259.485 8.386.405 9.094.007.343-.025.785-.035 1.159-1.897-.18-3.96-.319-6.169-.416l.087-.069c1.057-.822.691-1.914.514-3.104-.241-1.905-.057-7.311-.284-7.962-.154-.51-.588-.804-.966-1.193-.466-.48-1.051-.627-1.588-.076-.527.478.132 7.304.169 10.302.048.628-.092 1.415.158 2.022-.204-.008-5.628-.121-6.084-.113.006-.106-.065-.241-.116-.344-.136-.275-.328-.917-.383-1.217a12.788 12.788 0 01-.187-1.729c-.041-1.24.074-5.076.212-6.08.155-1.11.746-3.068-1.179-2.637-.208.047-1.228.173-1.501.388-.317.249-.286.873-.298 1.218-.045 1.31-.19 5.438-.182 6.43.01.833.159 1.905.464 2.718.186.494.737.986 1.313 1.297-1.059.029-2.079.063-2.441.083-1.788.1-3.159.199-4.495.33l-.017-.064c-.224-.69.098-3.538.718-8.879.15-1.288-.077-1.339-.861-2.065-.45-.417-.831-.698-1.613-.071-.496.398-.367.909-.452 1.483-.297 2.003-.73 5.149-.914 7.188-.052.563.027 1.851.171 2.632.013.037.008.078.026.118-.776.104-1.557.218-2.438.353-2.146.333-4.043.415-5.332.993-.792.357-.837.475-1.024.764a.752.752 0 00-.099.341c-.002.022.016.307.038.391a1.056 1.056 0 00.715.76c.098.031.695.081.758.087 1.44.145 2.233-.205 3.641-.76 6.975-2.783 26.934-1.94 31.33-1.109 1.909.38 4.856.778 6.683 1.825.298.163.577.282.832.359.128.039.251.058.364.085.28.066.578.006.628-.004.1-.019.197-.048.285-.086.177-.075.32-.184.388-.316.049-.095.11-.278.139-.429a1.518 1.518 0 00-.008-.364zM9.143 40.979H7.29l1.632 8.332h2.144l1.247-5.64 1.259 5.64h2.144l1.713-8.332h-1.736l-1.049 6.375-1.364-6.375h-1.806l-1.387 6.351-.944-6.351zm14.609 0h-5.209v8.332h5.326v-1.399h-3.566v-2.074h3.042V44.44h-3.042v-2.063h3.45v-1.398h-.001zm1.485 0v8.332h3.1c1.958 0 2.89-.932 2.89-2.331 0-1.783-1.573-1.981-1.573-1.981s1.119-.478 1.119-1.865c0-1.399-.897-2.156-2.75-2.156h-2.786v.001zm1.76 3.508v-2.203h.583c1.037 0 1.457.349 1.457 1.084 0 .746-.42 1.119-1.282 1.119h-.758zm0 3.52v-2.249h1.072c.897 0 1.387.35 1.387 1.095 0 .746-.454 1.154-1.492 1.154h-.967zm6.258 1.421c.536 0 .909-.373.909-.897 0-.536-.373-.862-.886-.862-.536 0-.921.338-.921.886.001.489.304.873.898.873zm2.419-8.449v8.332h2.074c2.867 0 4.335-1.631 4.335-4.242 0-2.552-1.294-4.091-4.16-4.091h-2.249v.001zm1.76 6.934v-5.536h.478c1.608 0 2.389.956 2.389 2.808 0 1.841-.757 2.727-2.377 2.727h-.49v.001zm11.18-6.934h-5.209v8.332h5.326v-1.399h-3.566v-2.074h3.042V44.44h-3.042v-2.063h3.449v-1.398z"/></svg>