<svg xmlns="http://www.w3.org/2000/svg" width="70.96" height="70.96"><path d="M65.905 0v30.44a42.46 42.46 0 01-30.33 40.52h-.13c-.3 0-30.44-3.92-30.39-40.53V0z" fill="#c00"/><path fill="none" stroke="#fff" stroke-miterlimit="3.86" stroke-width=".5" d="M35.605 41.34v-7.7"/><path fill="none" stroke="#fff" stroke-miterlimit="5.76" stroke-width=".5" d="M36.485 41.34l3.54-6.43v4.69"/><path fill="none" stroke="#fff" stroke-miterlimit="3.86" stroke-width=".5" d="M37.285 41.6l7.9-5.95v6.76M33.875 41.67l-7.97-6.02v6.76"/><path fill="none" stroke="#fff" stroke-miterlimit="5.76" stroke-width=".5" d="M34.745 41.34l-3.55-6.43v4.75"/><path d="M37.155 59.88c0 .42-.69.77-1.54.8-.85.03-1.49-.38-1.47-.8v-17.8c0 .42.62.77 1.47.8.85.03 1.53-.38 1.54-.8zM33.135 42.01l-10.17-4.22v16.87l10.17 5.22zM38.165 42.01l10.17-4.22v16.87l-10.17 5.22zM11.845 23.33h17.68v1.54h-17.68zM25.905 25.94l-3.08 3.15h-4.42l-3.07-3.15zM22.825 29.09v1.54h-4.42v-1.54zM19.685 3.26a11.34 11.34 0 011.07 3.18c.69 3.73-2.14 5.43-2.07 9.57a9.59 9.59 0 002 6.16 17.71 17.71 0 01-.33-3.55c0-2.72 1.21-4.14 1.41-6.9a15.79 15.79 0 01.33 6.5 14 14 0 01-1 3.68 11.2 11.2 0 003.06-7.2 12.66 12.66 0 00-4.49-11.44z" fill="#fff"/><path d="M22.895 5.33a11.53 11.53 0 012.41 5.76 14.69 14.69 0 01-1.33 8.29c2.81-2.76 4.32-7.27 2.54-10.57a9.19 9.19 0 00-3.62-3.48zM19.485 5.6a5 5 0 01.2 2.94c-.43 2.12-2.27 4.56-2.21 7.5a9.37 9.37 0 002.15 6.16 5.36 5.36 0 01-3.22-3.55 6.34 6.34 0 01.13-4.69 4.77 4.77 0 001.28 7.77c-2.22-.47-4.09-2.05-4.29-4.08-.42-5.39 5.33-6.45 6-12.05zM47.935 21.44c-.23.91-.86.87-1.47.27a9.73 9.73 0 00-5.89-2.41h-.21s1.27.44 1.68.6l1.07.4a5.1 5.1 0 00-1.41.41c-.1.09 0 .09-.06.2a4.58 4.58 0 012.67.13 8 8 0 012.21 3.08 30.44 30.44 0 01.8 3.88z" fill="#fff"/><path d="M47.065 30.5c-.4-3.52.58-13.53 3.34-21.15.09-.18.42-.28.54-.47-1.63 5.56-2.41 19 .74 21.68-.52 0-4.61-.1-4.62-.06zM40.835 19.44c-.26-.62-1-2.25-1.94-2.68-.94-.43-2-.16-2.94-.86 0 1 .5 2.61 1.6 3.07a4.84 4.84 0 003.28.47zM43.315 19.99c.7-.72 1.48.14 2.54-.94.59-.57.57-1.71 1.21-2.34a4.56 4.56 0 00-3 .53 2.5 2.5 0 00-.8 2.75zM41.775 20.66c-2.38-.69-3.44.1-4 .53a4.92 4.92 0 00-1.74 3.08c.83-1.23 2.62-.9 3.69-.94a2.23 2.23 0 001.87-1.34 6.93 6.93 0 00.2-1.33zM43.155 21.26c1.06-.29 1.81.89 1.67 1.81-.13 1.24-1.51 1.93-1 3.48a3.55 3.55 0 01-2.14-2.61 2.36 2.36 0 011.47-2.68zM48.935 13.03a2.67 2.67 0 00-.47-2.75c-.35-.52-1.8-1-2.34-1.94.11 1-.13 2.82.74 4 .43.56 1.9 1.23 2.07.67zM49.535 10.55c-.26-1.14-1.4-1.3-2.21-2.41s.62-2 0-3.21c.44.22.68.26 1.14.53.46.27 2 1.3 1.74 2.75a4.34 4.34 0 01-.67 2.34z" fill="#fff"/><path d="M50.205 11.35c.82-.78 1.88-.12 3.15-.47s.91-1.79 2.07-2.27c-.43-.05-.67-.18-1.14-.27-.47-.09-2.08-.11-2.81 1a16.84 16.84 0 01-1.27 2zM43.155 13.5c-.39-.11-.57-1-1.28-1.61-1-.89-2.78-.77-3.88-.6.39.06 1.25 1.69 1.61 2a2.34 2.34 0 002.34.6 8.11 8.11 0 001.21-.4z" fill="#fff"/><path d="M42.505 14.23a2.14 2.14 0 00-1.13 1.34 3.26 3.26 0 00.6 3c.25-1.36 1.59-1.83 1.94-2.27a2 2 0 00.07-2.15c1.34.16 3.13 1.47 5.36 4.69l-.34-2.61c-.1-.08-2.5-1.39-3.15-1.81-.39-.35.24-1.27.27-1.8.19-2.36-2.4-2.85-2.94-3.55a16.39 16.39 0 010 2.81c.14 1.21 2.3 1.62 2.54 2.54a5.21 5.21 0 00-1.94-.47c-.46.16-.81 0-1.28.27zM49.405 21.99c.11 1 1 1 1.67.48a10.11 10.11 0 016.16-1.68l-.13.14s-1.17.12-1.61.2a9.78 9.78 0 00-1 .33 5.65 5.65 0 011.6.67c.07.08-.2 0-.13.13a4.56 4.56 0 00-2.68-.2 10.14 10.14 0 00-2.88 3.15c-.58 1.16-.23 1.4-.53 2.41z" fill="#fff"/><path d="M56.965 20.86c.36-.61 1.28-2.13 2.21-2.41.93-.28 2.08.07 3.15-.54-.21 1-.89 2.55-2.08 2.88a4.89 4.89 0 01-3.28.07zM54.095 21.06c-.77-.93-1.72 0-2.62-1.41-.43-.68-.17-1.62-.73-2.34a4.67 4.67 0 012.88.94 2.53 2.53 0 01.47 2.81zM55.835 21.86a4.23 4.23 0 013.95 1.07 5.22 5.22 0 011.37 3.28c-.66-1.27-2.47-1.17-3.54-1.34a2.18 2.18 0 01-1.68-1.6 6.77 6.77 0 01-.06-1.41zM54.355 22.44c-1-.42-1.88.66-1.87 1.54 0 1.31 1.29 2.16.6 3.61a3.43 3.43 0 002.41-2.27 2.32 2.32 0 00-1.14-2.88zM55.095 14.5c.39-.07.68-.91 1.47-1.47 1-.74 2.84-.4 3.88-.14-.35 0-1.41 1.58-1.8 1.88a2.38 2.38 0 01-2.41.26 9.85 9.85 0 01-1.14-.53z" fill="#fff"/><path d="M55.695 15.24a2.26 2.26 0 01.94 1.53 3.26 3.26 0 01-.94 2.88c-.1-1.35-1.39-2-1.67-2.47a2.25 2.25 0 01.26-2.21c-1.28 0-3.34 1.15-5.95 4.08l.6-2.61c.11 0 2.7-1 3.42-1.34.42-.31-.13-1.22-.14-1.74.16-2.26 2.76-2.13 3.35-2.68-.28 1 0 1.34-.4 2.62s-2.55.92-2.68 1.8a3.68 3.68 0 011.94-.27c.45.21.82.17 1.27.41zM51.075 8.01a2.84 2.84 0 01.54-2.88c.35-.55 1.88-1 2.41-2-.09 1 .16 3-.74 4.22-.46.58-2 1.3-2.21.67z" fill="#fff"/></svg>