<svg xmlns="http://www.w3.org/2000/svg" width="46" height="46"><path d="m34.288 20.971-1.36 7.63s-.26 1.08.92 1.7c1.36.71 3.2.51 4.4.1 1.56-.53 3.18-2.17 1.89-3.47l-5.85-5.96" fill="#12b7e7"/><path d="M41.688.021c-2.05.15-3.86 1.25-4.08 2.46l-3.32 18.5 5.84 5.94c.3.3.43.62.46.94l4.44-25.91c.22-1.22-1.29-2.08-3.34-1.93m-8.73 28.4-.01.07z" fill="#beddef"/><path d="m22.658 38.261 1.32 6.13s.22 1.37 2.31 1.57c2.1.2 3.63-.52 4.32-1.05.69-.52 1.13-1.23 1.09-1.82-.03-.59-.47-1.18-1.38-1.56l-7.66-3.27" fill="#1f6973"/><path d="m27.608 24.131-2.69-12.47s-.32-1.21-2.57-1.4c-2.15-.17-3.8.89-4.25 1.29-.44.4-1.16 1.3-.67 2.23.54 1.02 10.18 10.35 10.18 10.35" fill="#00b1c6"/><path d="m34.288 20.971-9.64-9.76c.21.25.27.45.27.45l2.7 12.47h-.01v.02l5.77 5.83c.01.01.02.01.03.02-.68-.61-.49-1.4-.49-1.4l1.2-6.71.06-.32z" fill="#81b9df"/><path d="M31.708 43.081c0-.06-.01-.12-.01-.15-.03-.12-2.32-10.67-4.09-18.81-.18-.17-9.64-9.33-10.17-10.33-.12-.22-.16-.45-.16-.66 0 .15.01.24.01.24l5.38 24.9c.11.05 6.76 2.9 7.66 3.27s1.34.96 1.38 1.54" fill="#0aa773"/><path d="m22.658 38.271-15.35-6.54c-1.47-.64-3.88-.14-5.31.9-1.43 1.05-1.39 2.41.08 3.04l23.08 10.02c.01 0 .02.01.03.01v-.01c-1.08-.46-1.21-1.3-1.21-1.3z" fill="#122e4a"/></svg>