<svg xmlns="http://www.w3.org/2000/svg" width="64" height="64" x="2000"><path fill="#106db3" d="M31.848.487c4.993 0 9.744 1.144 14.007 3.2.67.302 1.34.663 2.008 1.024L44.94 7.3l-4.382-4.515-7.55 6.62L28.56 4.64 14.675 16.982l8.89 9.692-3.47 3.01 8.77 9.692-3.47 3.008L37.94 56.17l7.425-6.743 6.458 7.226c-1.28.963-2.68 1.928-4.2 2.77a32.11 32.11 0 0 1-15.712 4.09C14.31 63.513 0 49.37 0 31.973-.062 14.694 14.25.487 31.848.487zM26 30.045l7.612-6.743 6.822 7.525-7.614 6.742zm5.42 13.003 7.55-6.802 6.882 7.524-7.613 6.743zM20.584 17.223l7.6-6.743 6.82 7.525-7.613 6.742zM34.527 13.6 40.2 8.554l5.116 5.6-5.664 5.116zm10.1 23.177L50.3 31.73l5.116 5.657-5.664 5.06zm4.993 11.38 5.664-5.058 5.112 5.6-5.662 5.116zm2.315-26.007 3.775-3.372 3.41 3.734-3.774 3.37zm-4.872-11.137 3.775-3.43 3.412 3.792-3.778 3.37zm9.682 22.275 3.775-3.37 3.48 3.74-3.835 3.37zm-17-8.368 5.664-5.057 5.114 5.598-5.662 5.058z"/></svg>