<svg xmlns="http://www.w3.org/2000/svg" viewBox="0 0 84 90"><defs><linearGradient id="A" x1="69.277%" x2="26.012%" y1="73.093%" y2="23.116%"><stop offset="0%" stop-color="#f9ba00"/><stop offset="28%" stop-color="#fabe00"/><stop offset="57%" stop-color="#fbcb00"/><stop offset="86%" stop-color="#fddf00"/><stop offset="100%" stop-color="#ffec00"/></linearGradient><linearGradient id="B" x1="63.616%" x2="47.064%" y1="7.572%" y2="61.455%"><stop offset="0%" stop-color="#5ec4ec"/><stop offset="100%" stop-color="#009cd1"/></linearGradient><linearGradient id="C" x1="12596.983%" x2="6810.458%" y1="8144.053%" y2="8555.485%"><stop offset="0%" stop-color="#5ec4ec"/><stop offset="100%" stop-color="#009cd1"/></linearGradient><linearGradient id="D" x1="-24.4%" x2="451.345%" y1="49.805%" y2="49.805%"><stop offset="0%" stop-color="#1fa12e"/><stop offset="100%" stop-color="#008736"/></linearGradient><linearGradient id="E" x1="6339.614%" x2="13493.164%" y1="9981.062%" y2="9981.062%"><stop offset="0%" stop-color="#1fa12e"/><stop offset="100%" stop-color="#008736"/></linearGradient><linearGradient id="F" x1="6339.889%" x2="13493.818%" y1="9982.049%" y2="9982.049%"><stop offset="0%" stop-color="#1fa12e"/><stop offset="100%" stop-color="#008736"/></linearGradient><linearGradient id="G" x1="6339.481%" x2="13492.918%" y1="9991.834%" y2="9991.834%"><stop offset="0%" stop-color="#1fa12e"/><stop offset="100%" stop-color="#008736"/></linearGradient><linearGradient id="H" x1="6340.628%" x2="13495.339%" y1="11527.338%" y2="11527.338%"><stop offset="0%" stop-color="#1fa12e"/><stop offset="100%" stop-color="#008736"/></linearGradient><linearGradient id="I" x1="6340.927%" x2="13496.95%" y1="11507.057%" y2="11507.057%"><stop offset="0%" stop-color="#1fa12e"/><stop offset="100%" stop-color="#008736"/></linearGradient><linearGradient id="J" x1="6340.208%" x2="13494.453%" y1="11527.338%" y2="11527.338%"><stop offset="0%" stop-color="#1fa12e"/><stop offset="100%" stop-color="#008736"/></linearGradient><linearGradient id="K" x1="6337.355%" x2="13488.39%" y1="11527.338%" y2="11527.338%"><stop offset="0%" stop-color="#1fa12e"/><stop offset="100%" stop-color="#008736"/></linearGradient><linearGradient id="L" x1="6338.455%" x2="13490.686%" y1="11527.338%" y2="11527.338%"><stop offset="0%" stop-color="#1fa12e"/><stop offset="100%" stop-color="#008736"/></linearGradient><linearGradient id="M" x1="6338.2%" x2="13490.167%" y1="11527.762%" y2="11527.762%"><stop offset="0%" stop-color="#1fa12e"/><stop offset="100%" stop-color="#008736"/></linearGradient><linearGradient id="N" x1="6340.56%" x2="13495.209%" y1="11526.892%" y2="11526.892%"><stop offset="0%" stop-color="#1fa12e"/><stop offset="100%" stop-color="#008736"/></linearGradient><linearGradient id="O" x1="6341.931%" x2="13496.023%" y1="11534.21%" y2="11534.21%"><stop offset="0%" stop-color="#1fa12e"/><stop offset="100%" stop-color="#008736"/></linearGradient><linearGradient id="P" x1="6340.575%" x2="13493.101%" y1="11530.396%" y2="11530.396%"><stop offset="0%" stop-color="#1fa12e"/><stop offset="100%" stop-color="#008736"/></linearGradient><linearGradient id="Q" x1="6339.514%" x2="13495.056%" y1="11532.797%" y2="11532.797%"><stop offset="0%" stop-color="#1fa12e"/><stop offset="100%" stop-color="#008736"/></linearGradient></defs><path fill="#fff" d="M84 54.333a34 34 0 0 0-4.742-17.369c1.378-9.885-1.207-18.929-7.92-24.184-2.621-2.039-5.703-3.4-8.972-3.962C56.988 3.17 50.283-.099 43.059.004c-5.001.14-9.837 1.827-13.845 4.831a28.58 28.58 0 0 0-16.678 5.121C-3.29 21.187-4.267 47.198 10.394 68.007s38.474 27.209 55.699 17.6c2.953-1.647 5.503-3.932 7.468-6.69A34.3 34.3 0 0 0 84 54.332v.001z"/><path fill="url(#A)" d="M67.835 27.404C82.51 48.267 83.349 76.01 66.131 85.62s-41.066 3.264-55.736-17.614S-3.29 21.183 12.536 9.94s40.599-3.398 55.299 17.465z" style="mix-blend-mode:multiply"/><path fill="url(#B)" d="M74.896 41.705c.415 23.343-13.158 42.52-30.316 42.832S13.166 66.171 12.722 42.828 25.902.308 43.061.004 74.504 18.36 74.896 41.705z" style="mix-blend-mode:multiply"/><path fill="url(#C)" d="M69.263 59.654C56.298 76.286 36.234 82.269 24.432 73.031s-10.874-30.234 2.076-46.867S59.536 3.542 71.338 12.787s10.876 30.233-2.074 46.867h-.001z" style="mix-blend-mode:multiply"/><path fill="#fff" d="M84 54.332c0 18.832-15.217 34.099-33.989 34.101S16.019 73.169 16.016 54.338s15.213-34.1 33.986-34.104c9.022-.022 17.681 3.563 24.062 9.963A34.08 34.08 0 0 1 84 54.332h0z"/><path fill="url(#D)" d="M27.138 43.368l1.585-.193c.897-.097 1.796-.138 2.697-.127.812 0 1.622.075 2.422.224.789.139 1.543.429 2.223.853a4.55 4.55 0 0 1 1.6 1.754 6.24 6.24 0 0 1 .607 2.973 6.38 6.38 0 0 1-.488 2.669c-.284.663-.724 1.247-1.282 1.702a5.11 5.11 0 0 1-1.83.907 8.39 8.39 0 0 1-2.111.267h-.874c-.207-.012-.412-.039-.614-.082v5.277l-1.068.155c-.31 0-.607.045-.874.045a11.21 11.21 0 0 1-1.963-.2l-.03-16.225zm3.905 7.648c.121.046.249.069.378.067a4.84 4.84 0 0 0 .57 0 2.04 2.04 0 0 0 1.632-.627c.423-.443.626-1.053.554-1.663a3.06 3.06 0 0 0-.186-1.144 2.02 2.02 0 0 0-.533-.743 1.99 1.99 0 0 0-.793-.394c-.313-.058-.631-.078-.949-.06h-.311a2.95 2.95 0 0 0-.363 0v4.563z"/><path fill="url(#E)" d="M39.007 53.804c-.01-.857.118-1.71.378-2.527.225-.723.601-1.389 1.103-1.954.502-.553 1.122-.983 1.816-1.256.798-.311 1.648-.463 2.504-.447.866-.017 1.726.135 2.534.447.694.273 1.314.703 1.816 1.255.502.567.879 1.232 1.103 1.955.258.817.383 1.67.372 2.527a7.76 7.76 0 0 1-.372 2.482 5.21 5.21 0 0 1-1.103 1.926c-.504.544-1.125.965-1.816 1.234-.81.303-1.67.45-2.534.431a6.7 6.7 0 0 1-2.504-.431c-.69-.268-1.311-.69-1.816-1.234a5.21 5.21 0 0 1-1.103-1.926 7.75 7.75 0 0 1-.378-2.482h0zm7.771 0c.049-.775-.121-1.547-.489-2.23-.323-.498-.89-.782-1.481-.743a1.62 1.62 0 0 0-1.482.743c-.633 1.403-.633 3.012 0 4.415.32.502.89.788 1.482.743a1.63 1.63 0 0 0 1.481-.743 4.12 4.12 0 0 0 .489-2.185h0z"/><path fill="url(#F)" d="M58.204 52.266a7.25 7.25 0 0 1 1.23.439 3.32 3.32 0 0 1 .949.668 2.87 2.87 0 0 1 .622.996c.165.457.243.94.23 1.427.002.557-.119 1.108-.357 1.613s-.592.948-1.037 1.286c-.506.389-1.078.681-1.689.862a7.61 7.61 0 0 1-2.32.319c-.672.004-1.343-.049-2.006-.157-.67-.124-1.327-.308-1.964-.549a9.09 9.09 0 0 1 .837-3.122c.969.446 2.023.676 3.089.676h.563c.178-.01.355-.042.526-.097a1.19 1.19 0 0 0 .37-.215.49.49 0 0 0 .141-.364c.003-.194-.111-.371-.29-.446-.217-.107-.442-.194-.674-.261l-1.533-.43c-.756-.198-1.445-.596-1.994-1.153a3.06 3.06 0 0 1-.785-2.229 3.6 3.6 0 0 1 .355-1.606 3.72 3.72 0 0 1 1.03-1.241 4.75 4.75 0 0 1 1.548-.743c.643-.187 1.31-.28 1.979-.275a10.34 10.34 0 0 1 1.874.186 12.74 12.74 0 0 1 2.007.519 7.04 7.04 0 0 1-.289 1.553c-.149.511-.339 1.009-.57 1.487-.482-.188-.978-.34-1.482-.453-.517-.127-1.046-.195-1.578-.201-.742 0-1.06.194-1.06.588-.001.166.094.317.244.386.18.094.368.169.563.224l1.468.311v.001z"/><path fill="url(#G)" d="M65.612 51.084h-3.341c-.072-.278-.122-.561-.149-.847V48.75a5.58 5.58 0 0 1 .149-.832h10.491a5.58 5.58 0 0 1 .149.832c0 .261.037.513.037.744s0 .497-.037.743c-.027.286-.077.569-.149.847h-3.334v8.495l-1.066.14a7.32 7.32 0 0 1-.859.045c-.26 0-.534 0-.852-.045l-1.038-.14v-8.495z"/><path fill="url(#H)" d="M27.153 63.264h.741v3.344h1.704v.655h-2.445z"/><path fill="url(#I)" d="M30.6 63.267h.741v2.511a.78.78 0 0 0 .24.617c.168.16.398.236.627.208a.79.79 0 0 0 .616-.217c.165-.158.253-.379.244-.608v-2.534h.741v2.534c-.052.842-.748 1.498-1.59 1.498s-1.537-.656-1.59-1.498l-.028-2.511z"/><path fill="url(#J)" d="M36.096 65.219l-1.179-1.955h.822l.534.974.253.483a4.86 4.86 0 0 1 .237-.485l.549-.973h.822l-1.193 1.955 1.259 2.044h-.815l-.608-1.071c-.134-.224-.244-.468-.244-.468s-.111.246-.245.468l-.614 1.071h-.8l1.222-2.044z"/><path fill="url(#K)" d="M39.34 63.264h2.364v.625H40.06v1.032h1.325v.618H40.06v1.069h1.734v.655h-2.452v-3.999z"/><path fill="url(#L)" d="M43.29 63.264h.741l.741 1.963.193.579.192-.579.742-1.963h.741l.452 3.999h-.742l-.17-2.23v-.609l-.208.609-.629 1.487h-.624l-.637-1.487c-.097-.23-.215-.616-.215-.616v.616l-.17 2.23h-.741l.333-3.999h.001z"/><path fill="url(#M)" d="M48.512 63.264h1.416c.741 0 1.215.373 1.215 1.026a.93.93 0 0 1-.474.84.92.92 0 0 1 .638.929c0 .795-.638 1.152-1.363 1.152h-1.43v-3.947zm1.416 1.62c.134.007.265-.045.358-.141a.47.47 0 0 0 .131-.363.46.46 0 0 0-.504-.491h-.681v.995h.696zm.074 1.724a.57.57 0 0 0 0-1.144h-.741v1.144h.741z"/><path fill="url(#N)" d="M54.402 63.198c.54-.01 1.061.199 1.444.58a2.01 2.01 0 0 1 .593 1.443c0 .73-.388 1.405-1.019 1.77a2.03 2.03 0 0 1-2.037 0c-.63-.365-1.019-1.04-1.019-1.77-.006-.542.207-1.063.591-1.444a1.99 1.99 0 0 1 1.446-.578h0zm0 3.434a1.33 1.33 0 0 0 .946-.431 1.34 1.34 0 0 0 .351-.981 1.31 1.31 0 0 0-.615-1.228 1.3 1.3 0 0 0-1.37 0 1.31 1.31 0 0 0-.615 1.228 1.34 1.34 0 0 0 .353.984 1.33 1.33 0 0 0 .951.428h0z"/><path fill="url(#O)" d="M57.663 63.267h.741v2.511a.78.78 0 0 0 .241.616c.167.159.397.236.626.209a.79.79 0 0 0 .615-.218c.164-.158.253-.379.244-.607v-2.534h.741v2.534c-.057.838-.752 1.489-1.589 1.489s-1.532-.651-1.589-1.489l-.03-2.512v.001z"/><path fill="url(#P)" d="M62.338 63.267h1.276c.267-.021.539.016.793.111a1.22 1.22 0 0 1 0 2.162c.053.058.099.124.133.194l.815 1.487h-.8l-.785-1.487h-.689v1.487h-.742v-3.954.001zm1.363 1.857a.57.57 0 0 0 .457-.166c.12-.121.18-.289.164-.459 0-.379-.162-.609-.741-.609h-.541v1.234h.66z"/><path fill="url(#Q)" d="M68.286 63.198a2.12 2.12 0 0 1 1.482.506l-.355.534c-.296-.24-.664-.374-1.045-.379a1.28 1.28 0 0 0-.983.374c-.259.26-.395.619-.372.986a1.32 1.32 0 0 0 .351.995 1.31 1.31 0 0 0 .967.416c.372-.006.724-.153.993-.409v-.445h-.607v-.617h1.251v2.103h-.651v-.357c-.313.28-.721.431-1.141.422a1.94 1.94 0 0 1-1.405-.609 1.95 1.95 0 0 1-.529-1.441c-.025-.554.181-1.093.569-1.488a1.98 1.98 0 0 1 1.475-.593h0z"/></svg>