<svg xmlns="http://www.w3.org/2000/svg" data-name="whs-logo-svg" width="355.218" height="355.218"><path d="M97.108 144.596c.54-1.44 1.77-4.2 3.49-5.08.88-.47 2.61-.44 2.91-1.65.3-1.21-.78-1.53-5-1.53h-12.84c-3.91 0-5.73 0-5.48 1.7.13.9 1.5 1.16 2.1 1.34 3.71 1 6.2 2.92 5 6.8-1.2 3.88-17.27 51.45-17.27 51.45-.64 1.71-2.2 2.19-2.7-.34l-8.5-40c-.7-3.28-1.51-7.49-1.78-9.33a3.57 3.57 0 00-3.61-2.63 3.77 3.77 0 00-3.52 2.11c-1.08 2.24-3.21 6.54-4.73 9.53l-21.31 40.94c-.87 1.52-2 1.07-2.12-.76l-2.65-41.47c0-3.27-.31-9.63-.31-10.72a5.72 5.72 0 014.38-5.52c.61-.17 2.06-.51 2.19-1.41.25-1.68-1.65-1.65-5.57-1.65h-16.1c-2.67.06-3.85.33-3.67 1.7.16.9 1.53 1.17 2.13 1.36a5.64 5.64 0 013.7 3.24 17.75 17.75 0 01.55 1.76c0 .1 0 .2.07.31a2 2 0 01.05.26c0 .11 0 .22.07.32a93.05 93.05 0 011.58 11.11l3.45 50.67c.21 3.33.1 8.21 1.1 10.33 1 2.12 5.72 2 7.59-.84.53-.8 27.11-50.77 27.11-50.77 1.55-3 3.37-2.71 4 .57l8.38 41.2a68.63 68.63 0 002.22 9.04c1.15 3 6.84 2.46 8.35-.45a76.64 76.64 0 003.87-9.17s21.87-59.8 22.87-62.42m70.14 19.54c-10.39 0-19.86 9.47-26.11 16.63a37.57 37.57 0 011.52-6.06l9.69-32.48a4.3 4.3 0 00-4.33-5.86h-8.19c-3.92 0-5.73.06-5.48 1.71.14.9 1.5 1.16 2.11 1.33 3.89 1.09 5.16 5.44 4.13 10.15 0-.39-9.68 38.4-9.68 38.4a25.57 25.57 0 01-6.12 10.16s-11.77 14.32-23.61 14.32c-5.43 0-9.47-3.11-9.47-8.89a36.33 36.33 0 01.92-8.62c12.39-1.18 34.39-6.88 34.39-22.59 0-6.36-6.12-8.2-11.33-8.2-16.67-.01-33.23 20.44-33.23 38.93 0 7.74 3.57 15.59 14.21 15.59 20 0 30.83-19.51 31.44-20.15a53.88 53.88 0 00-1 7.8c0 8.44 6.13 12.36 13.76 12.36 5.58 0 11.41-2 16.92-5.28a49.84 49.84 0 0011.63-9.85c6.48-7.32 10.85-16.32 10.85-24.73 0-8.77-3.81-14.66-13.07-14.66m-54.17 3.7c3 0 4.74 2 4.74 5 0 12.6-14 18.14-24.61 18.84 1.86-7.63 11-23.8 19.88-23.8m52.65 27.43a54.71 54.71 0 01-9.85 13.83c-4 4-8.58 6.58-13.12 6.58-5.31 0-7.05-5.09-7.05-9.83 0-12.94 14.1-37 28.43-37 5.31 0 6.93 3.69 6.93 8.09 0 5-2 11.79-5.34 18.3" fill="#0078bf"/><path d="M341.338 144.186c-10.32-8.12-29.77-7.69-29.77-7.69h-33.66c-3.92 0-5.27.28-5 1.94.13.9 1.5 1.16 2.1 1.33 2.43.68 4.2 2 4.31 4.39.12 2.79.43 11.53.43 14.56V195.706l-.06 15.43a6.12 6.12 0 006.08 6.12h20s14.38 0 24.82-4.81c15.65-7.1 24.63-20.79 24.63-37.55 0-12.51-5.17-24-13.83-30.73m-33.82 66h-.77c-4.66 0-9.48 0-12-2.47-1.3-1.3-1.93-3.21-1.93-5.85v-37.17c0-7.65-.19-11.26.07-19.84a96.17 96.17 0 0113.89-.94c8.81 0 18 1.18 25.76 9.75 5.27 5.94 7.84 13.36 7.84 22.67 0 20.55-12.92 33.83-32.89 33.83m-34.59 4c-2.4-.84-4.24-3.69-4.3-5.15-.06-1.46-1.53-66.26-1.53-66.26-.07-3.36.08-5.8-.81-6.12-1.1-.38-5.68-.28-6.9-.28-2.92 0-5.1-.08-5.61.54a29.2 29.2 0 00-2.78 6.12l-6 13.21c-1.54 3-4.15 8.07-5.69 11l-9 17.43c-1.54 3-4.11 3-5.71.07l-9.4-17.24c-1.61-2.94-4.24-7.77-5.85-10.72l-6.53-13.87c-1.34-3.08-2-5.47-2.62-6-.62-.53-2.91-.5-6.26-.48h-7.94c-3.91 0-5.68 0-5.42 1.69.13.91 1.5 1.17 2.11 1.34 2.42.68 3.31 3.64 3.31 5.11 0 1.47 0 60.49-.33 63.07 0 .43-.13.88-.21 1.34a.16.16 0 00-.1.13 6.09 6.09 0 01-4.31 5.15c-.6.18-2 .43-2.1 1.33-.26 1.66 1.56 1.71 5.47 1.71h12.98c3.92 0 5.73 0 5.48-1.71-.14-.91-1.51-1.16-2.1-1.33-2.43-.68-3.43-2.21-4.31-5.15a41 41 0 01-.62-4.47c-.13-3.36-.21-8.84-.17-12.2v-1c0-3.35.13-8.84.2-12.19l.32-13.23c.07-3.36 1.44-3.68 3-.73l8.8 16.08c1.59 3 9.95 18.78 11.45 21.77 1.27 2.54 1.53 3.5 5.46 3.56 4.39 0 4.39-1.17 6.2-5 1.31-2.85 20-39.66 20-39.66 1.53-3 2.85-2.69 2.94.67 0 0 .24 44.88-.08 46.9-.05.31-.09.53-.11.67a5.83 5.83 0 01-4 4c-.61.18-2 .43-2.11 1.33-.24 1.66 1.56 1.71 5.48 1.71h16.27c3.93 0 5.73 0 5.49-1.71-.15-.91-1.51-1.12-2.12-1.33"/></svg>