<svg xmlns="http://www.w3.org/2000/svg" width="272.684" height="272.684"><g transform="translate(-306.972 -8.736)"><circle cx="443.313" cy="145.077" r="136.342" fill="#97c93c"/><path d="M398.415 169.36l33.28-72.32h27.54l33.26 72.32 27.52-89.6h37.76L522.132 198.8c-4.504 15.043-6.879 32.515-25.157 31.152-2.294-.171-4.862-.384-7.04-1.142-7.14-4.744-10.87-15.237-14.243-22.33l-29.917-65.92-29.44 65.28c-3.386 7.507-6.573 20.621-15.36 23.175-5.817 1.69-15.774 1.712-20.344-2.832-5.78-5.747-7.852-17.89-10.376-25.463L334.612 79.643h36.562z" fill="#fff"/></g></svg>