<svg xmlns="http://www.w3.org/2000/svg" xml:space="preserve" viewBox="0 0 178.4 115.5"><path fill="#7dcc26" d="m19.1 20.1 59.6 60.6S84 86 84 94.5c0 5.2-3.8 21-21 21-8.4 0-14.1-5.2-14.1-5.2L8.3 69.4S0 62.3 0 52.4V26.2c0-10.5 10.5-10.5 10.5-10.5 5.1.1 8.6 4.4 8.6 4.4zm140.2 0L99.7 80.7s-5.3 5.3-5.3 13.8c0 5.2 3.8 21 21 21 8.4 0 14.1-5.2 14.1-5.2l40.6-40.7s8.3-7.1 8.3-17V26.4c0-10.5-10.5-10.5-10.5-10.5-5.1-.1-8.6 4.2-8.6 4.2zM89.2 0a26.2 26.2 0 0 0-19.8 43.4l15.9 17.8c1 1.1 2.4 1.8 3.9 1.8s3-.7 3.9-1.8l15.5-17.3A26.3 26.3 0 0 0 89.2 0Z"/></svg>