<svg xmlns="http://www.w3.org/2000/svg" width="29.425" height="29.425"><path style="fill:#00ffb0;fill-rule:evenodd" d="m16.62 10.397 2.117 14.005c.293 1.292-.64 2.532-1.906 2.532h-4.237c-1.265 0-2.199-1.24-1.906-2.532l2.12-14.005c.345-2.16 3.535-2.112 3.811 0zM6.196 2.491c1.266 0 2.2 1.24 1.906 2.532L5.985 19.029c-.347 2.16-3.537 2.11-3.812 0L.053 5.023c-.29-1.292.643-2.532 1.907-2.532zm21.268 0c1.265 0 2.198 1.24 1.906 2.532l-2.119 14.006c-.347 2.16-3.536 2.11-3.812 0L21.322 5.023c-.292-1.292.64-2.532 1.905-2.532z"/></svg>