<svg xmlns="http://www.w3.org/2000/svg" width="453.144" height="453.12"><path d="M420.87 207.07c-4.62-44.77-25.02-85.05-55.6-115.29a193.2 193.2 0 0 0-136.2-55.99h-.05a193.28 193.28 0 0 0-136.2 55.99C57.89 126.33 36.2 174.02 36.2 226.53v.05c0 52.5 21.7 100.18 56.61 134.74a193.18 193.18 0 0 0 136.23 56h.02c47.79 0 91.63-17.33 125.37-45.97 10.1-.72 22.23-16.25 64.48-18.36l-.02.03-.06.07a227.67 227.67 0 0 1-18.93 24.06 228.58 228.58 0 0 1-22 21.32 229.34 229.34 0 0 1-148.84 54.65h-.02a229.54 229.54 0 0 1-161.8-66.48C25.72 345.6 0 288.96 0 226.58v-.05c0-62.4 25.72-119.03 67.25-160.06A229.53 229.53 0 0 1 229.03 0h.04a229.5 229.5 0 0 1 161.78 66.47c31.77 31.41 53.27 71.92 61.76 117.27 3.06 20.18-6.32 56.5-46.44 81.8-22.95 12.72-35.82 17.16-52.06 17.16-12.85 0-20.13-2.77-34.12-12.74a1757.27 1757.27 0 0 0-35.82 30.45c-29.66 26.01-47 36.64-61.54 36.64-10.09 0-21.28-7.75-26.88-18.92-3.36-6.08-4.48-12.74-4.48-23.8 0-5.55 1.12-19.38 2.25-31.01l-40.85 39.86c-20.15 18.27-32.47 25.48-45.34 25.48-13.43 0-31.9-10.53-41.98-24.38-8.4-10.5-11.19-19.92-13.44-39.3v-7.2c0-3.32.57-9.4 1.13-16.6 3.92-23.26 11.75-39.32 26.3-56.48 40.3-46.5 68.28-68.65 86.76-68.65 7.26 0 19.01 2.77 25.74 5.53 5.04 2.78 7.28 6.1 7.28 11.08 0 19.93-25.76 48.16-95.14 104.64l-2.25 8.85c-3.91 12.2-4.47 16.06-4.47 21.04 0 6.1 3.34 11.07 7.84 11.07 2.23 0 5.59-1.65 9.5-4.42l15.12-9.97c24.06-14.94 82.27-69.75 109.12-102.42 18.47-22.7 26.87-30.45 33.02-30.45 2.23 0 9.5 2.21 14.56 3.87 7.26 2.78 10.62 5.54 10.62 9.97 0 2.21-3.36 7.75-13.44 24.91-27.97 45.4-49.22 89.7-49.22 102.42 0 6.66 4.46 12.2 10.05 12.2 8.4 0 18.46-8.32 53.16-42.09-1.1-4.98-1.66-9.4-1.66-12.18 0-27.68 52.03-93 73.86-93 10.08 0 17.93 11.06 17.93 26.57 0 22.14-4.5 31.55-37.52 77.5 7.84 8.3 15.33 13.51 24.63 11.64 24.4-4.95 45.82-30.82 46.04-45.74" fill="#3545a3"/></svg>