<svg xmlns="http://www.w3.org/2000/svg" width="467.452" height="467.452"><path d="M233.726 54.65c17.94 0 60.932 5.966 77.758 60.466 9.324-36.243 39.722-60.465 76.191-60.465 44.724 0 79.777 31.98 79.777 72.802 0 18.06-4.459 32.462-9.852 48.098L396.864 347.32c-20.35 56.97-61.776 65.481-84.672 65.481-35.897 0-63.87-18.377-78.466-50.975-14.597 32.598-42.57 50.975-78.466 50.975-22.897 0-64.321-8.51-84.672-65.481L9.852 175.55C4.459 159.916 0 145.515 0 127.454 0 86.63 35.053 54.65 79.777 54.65c36.468 0 66.867 24.222 76.19 60.465 16.827-54.5 59.818-60.465 77.759-60.465" fill="#4299da"/><path d="M234.208 221.238h-.994l-36.725 114.724c-6.462 20.878-19.372 32.809-41.23 32.809-23.348 0-35.76-15.395-43.201-36.243L51.488 161.21c-4.972-14.4-7.457-23.318-7.457-33.757 0-15.907 14.913-28.772 35.746-28.772 17.383 0 29.795 11.449 33.772 28.335l41.214 136.641h.994l41.71-133.628c5.469-19.372 15.396-31.348 36.259-31.348s30.79 11.976 36.258 31.348l41.71 133.628h.995l41.214-136.641c3.977-16.886 16.389-28.335 33.772-28.335 20.833 0 35.746 12.865 35.746 28.772 0 10.439-2.485 19.356-7.456 33.757l-60.57 171.318c-7.442 20.848-19.855 36.243-43.203 36.243-21.857 0-34.767-11.93-41.23-32.809l-36.724-114.724h-.994" fill="#fff"/></svg>