<svg xmlns="http://www.w3.org/2000/svg" width="346.667" height="346.667" version="1.0" viewBox="0 0 260 260"><path d="M221 24.2c0 .7-1.7 6.6-3.9 13.3-2.1 6.6-4.5 14.2-5.4 17-.8 2.7-3.7 11.7-6.3 20-2.6 8.2-4.9 15.4-5 16-.1.5-5.7 18.3-12.4 39.5s-13.3 42.1-14.6 46.4c-1.3 4.4-2.6 8.1-2.8 8.3-.2.3-12.5-41.8-14.2-48.7-.2-.8-4.3-15.5-9.2-32.5l-8.9-31h-33.6L98.8 95c-11.8 45.5-17 65.5-17.3 67-1.4 6.5-6.9 26.6-7.4 27.2-.4.4-2.6-3.6-5.1-9-2.4-5.3-7.5-16.1-11.2-24-3.7-7.9-6.8-14.5-6.8-14.7 0-.2-2.2-5-4.9-10.7l-4.9-10.4-20.6-.1c-18.8-.1-20.5 0-19.7 1.6.5.9 2 4.1 3.4 7.1s5.6 12 9.5 20c12.5 26.1 18 37.6 22.5 47.1 2.5 5.2 7.9 16.5 12.1 25.1l7.5 15.8h39l1.1-4.3c.6-2.3 1.8-6.7 2.7-9.7.9-3 1.7-6 1.9-6.7.1-.7.9-3.4 1.7-6 .8-2.6 5.4-18.7 10.2-35.8 4.8-17.1 8.9-31.2 9.1-31.4.2-.2.6 1 .9 2.5.4 1.6 1 3.8 1.5 4.9.5 1.1 1.1 3.1 1.4 4.5.2 1.4 1.9 7.4 3.6 13.5 1.7 6 3.3 11.7 3.5 12.5.1.8 2.2 8 4.5 16s4.3 15.2 4.5 16c.3 1.3 4.8 17.8 6.1 22.2.5 1.6 2.3 1.8 19.9 1.8 17.4 0 19.4-.2 20-1.8.7-1.7 23.7-69 49.7-145.2 19-55.9 21.6-63.6 22.3-65.3.7-1.6-.6-1.7-18.9-1.7-14.6 0-19.6.3-19.6 1.2z"/></svg>