<svg xmlns="http://www.w3.org/2000/svg" width="173.332" height="173.332"><path d="M173.332 172.681H0V.651h173.332v172.03" fill="#cf2643"/><path d="M53.144 57.935c-2.063 0-2.756.792-3.607 3.08l-7.157 19.13h-4.508L32.151 66.26l-5.458 13.885H22.03L14.56 61.323c-.852-2.167-2.115-3.388-3.97-3.388H10v-2.806h12.724v2.806h-1.232c-1.421 0-2.063.377-2.01 1.169 0 .156-.053.432.105.792 0 0 2.91 6.864 5.216 13.643.241.033.346.033.346.033l4.992-12.504c-.209-2.065-.901-3.133-3.068-3.133h-1.698v-2.806h13.398v2.806H36.66c-1.266 0-1.75.276-1.75 1.016 0 .309.052.686.208 1.049 0 0 3.016 7.276 5.216 13.61.295 0 .295.015.295.015l4.836-12.662c.312-.843.312-1.479.312-1.911 0-.792-.692-1.117-2.115-1.117h-1.749v-2.806h12.184v2.806zm-1.076 22.21v-2.804l1.473-.052c2.186 0 3.399-.206 3.399-2.289V60.224c0-2.065-1.213-2.29-3.399-2.29h-1.473V55.13h27.024v9.704h-2.86c-.156-5.83-1.527-6.745-6.623-6.745h-7.002v7.432h1.802c3.19 0 3.607-1.064 3.867-4.833h2.877v12.68h-2.929c-.208-4.299-.625-4.888-3.763-4.888h-1.854v8.708h8.06c4.56 0 5.65-2.151 6.049-7.124h2.86v10.082zm29.71 0v-2.804h1.438c2.168 0 3.121-.206 3.121-2.341l-.052-14.724c0-2.117-1.265-2.341-3.397-2.341h-1.317v-2.806h15.094v2.806l-1.801.052c-2.428 0-2.86.224-2.86 2.289v16.91h6.104c2.964 0 4.713-.38 5.51-1.858.746-1.325 1.058-2.823 1.058-5.265h2.912v10.082zm28.013 0v-2.804h.38c2.182 0 3.136-.206 3.136-2.341l-.052-14.724c0-2.117-1.022-2.341-3.136-2.341h-1.594v-2.806h15.115v2.806l-1.803.052c-2.448 0-2.858.224-2.858 2.289v16.91h6.082c2.979 0 4.73-.38 5.527-1.858.73-1.325 1.057-2.823 1.057-5.265h2.911v10.082h-24.765M160.176 72.833c0 5.73-4.505 7.792-11.177 7.792-4.02 0-7.891-2.286-8.739-3.078l-.85 2.614h-2.546V70.1h2.91c.798 4.8 4.022 6.88 8.615 7.088 3.954.172 6.762-.88 7.074-3.615.364-3.167-3.12-2.957-6.032-3.492l-4.302-.79c-6.412-1.118-8.474-2.978-8.63-7.158-.172-4.56 3.969-7.533 9.537-7.585 2.703 0 6.203.429 8.905 2.598l1.266-2.068h2.22v8.74h-2.808c-.61-4.849-5.391-6.328-9.479-6.226-2.97.101-4.928 1.805-4.928 3.82 0 1.876 1.855 2.114 4.215 2.526l5.249.914c5.36.893 9.5 1.996 9.5 7.93v.052M40.144 102.32c0-1.927-.313-3.63-1.005-5.008-.85-1.479-2.584-1.703-5.566-1.703h-6.257v7.484h1.976c3.172 0 3.659-.582 3.659-4.456h2.322v12.508l-2.374-.052c-.052-4.182-.487-5.041-3.607-5.041h-1.976v6.52c0 2.084.33 2.287 2.497 2.287h2.911v2.808H17.297v-2.808l1.44-.05c2.167 0 2.912-.205 2.912-2.289V97.744c0-2.064-.745-2.288-2.912-2.288h-1.44v-2.805h25.724v9.669h-2.877M53.595 97.159l-3.762 9.598h7.574zm1.369 20.508v-2.808h2.703c1.44 0 2.133-.154 2.133-1.012 0-.311-.175-.74-.383-1.207l-1.057-2.921h-9.759l-1.265 3.129c-.208.483-.312.844-.312 1.17 0 .791.677.84 2.01.84h2.602v2.809H38.584v-2.808h1.143c1.958 0 2.549-.687 3.294-2.443l8.372-19.765h6.136l8.008 19.765c.728 1.912 1.542 2.443 2.963 2.443h1.213v2.808H54.964" fill="#f4b318"/><path d="M89.145 99.276c0-2.91-1.698-3.768-5.252-3.768h-5.356v7.585l5.46-.052c3.502 0 5.148-1.117 5.148-3.713zm8.839 12.557c0 4.558-2.115 6.364-5.13 6.364-3.449 0-5.683-.945-5.84-4.404l-.103-2.908c-.156-4.196-1.495-5.038-5.827-5.038h-2.547v6.725c0 2.084.312 2.287 2.495 2.287h2.27v2.808h-15.27v-2.808h2.219c1.44 0 2.617-.515 2.617-2.339V97.744c0-2.064-.33-2.288-2.496-2.288h-2.061v-2.805H85.52c6.432 0 9.396 1.912 9.396 5.937 0 3.61-2.808 5.83-7.59 6.467 4.454 1.068 5.043 2.648 5.303 6.038.052.328 0 1.016 0 1.547.104 1.48.692 2.17 1.438 2.117 1.526-.101 1.645-1.221 1.526-4.197h2.391c.052.43.052.861.052 1.273h-.052M120.275 100.667c-1.198-3.751-3.708-5.506-7.848-5.506-4.079 0-7.319 3.339-7.267 9.703 0 6.47 2.6 9.964 7.267 10.013 3.394 0 6.41-1.685 6.41-4.56v-1.374c0-1.686-.416-1.686-2.806-1.686h-1.251v-2.872h11.63v2.872h-.953c-1.802 0-2.078-.172-2.078 1.962v8.377h-2.047l-1.317-2.081c-2.287 1.808-5.563 2.649-8.495 2.649-3.427 0-6.36-1.205-8.683-3.544-2.442-2.495-3.864-5.83-3.812-9.756 0-3.87 1.266-6.948 3.76-9.427 2.167-2.133 5.459-3.336 8.86-3.286 2.807 0 6.083.74 7.938 2.702l1.281-2.598h1.995v8.396l-2.584.016M151.583 105.159c0-6.571-3.59-9.998-8.516-9.998-4.87 0-8.579 3.427-8.579 9.998 0 6.554 3.71 10.065 8.579 10.065 4.854 0 8.464-3.51 8.464-10.065zm-8.412 12.97c-8.318 0-14.766-5.194-14.766-13.074 0-7.844 6.448-12.972 14.714-12.972 8.308 0 14.598 5.128 14.598 13.024 0 7.828-6.29 13.022-14.546 13.022" fill="#f4b318"/></svg>