<svg xmlns="http://www.w3.org/2000/svg" xml:space="preserve" id="Ebene_1" width="22.67" height="21.03" x="0" y="0" version="1.1"><defs id="defs48"><clipPath id="clipPath154" clipPathUnits="userSpaceOnUse"><ellipse id="ellipse156" cx="9.88" cy="10.57" rx="12.9" ry="12.84" style="fill:red;fill-rule:evenodd"/></clipPath></defs><style id="style2" type="text/css">.st0{fill:#073654}</style><g id="g43" clip-path="url(#clipPath154)" transform="translate(-.1 -.2)"><g id="g8"><path id="path4" d="M40.88 13.74c0 2.24 1.63 3.99 3.92 3.99a3.86 3.86 0 0 0 3.93-4 3.83 3.83 0 0 0-3.93-3.95 3.83 3.83 0 0 0-3.92 3.96m7.45-7.01h4v14.05h-4v-1.82A5.09 5.09 0 0 1 44 21.23c-4.35 0-7.23-3.37-7.23-7.5 0-4.14 2.84-7.45 7.03-7.45 1.08 0 3.2.2 4.54 2.27V6.73Z" class="st0"/><path id="path6" d="M57.52.2a2.4 2.4 0 0 1 2.39 2.37 2.4 2.4 0 0 1-4.77 0c0-1.3 1.07-2.37 2.38-2.37" class="st0"/></g><path id="rect10" d="M55.53 6.73h3.99v14.05h-3.99z" class="st0"/><g id="g16"><path id="path12" d="M70.13 10.07a3.33 3.33 0 0 0-2.32-.94c-.95 0-1.53.45-1.53 1.14 0 .35.16.9 1.27 1.26l.95.3c1.11.35 2.78.9 3.6 2 .42.59.71 1.43.71 2.34 0 1.27-.42 2.53-1.57 3.57a5.97 5.97 0 0 1-4.24 1.5c-2.95 0-4.61-1.4-5.5-2.34l2.1-2.4a4.4 4.4 0 0 0 3.13 1.62c1.11 0 1.96-.55 1.96-1.53 0-.87-.71-1.23-1.24-1.42l-.91-.33a7.66 7.66 0 0 1-3.04-1.69 3.75 3.75 0 0 1-1.08-2.69c0-1.36.65-2.5 1.47-3.18 1.11-.87 2.55-1 3.7-1a7.1 7.1 0 0 1 4.5 1.49z" class="st0"/><path id="path14" d="M76.94.2c1.31 0 2.4 1.07 2.4 2.37a2.4 2.4 0 0 1-4.78 0c0-1.3 1.08-2.37 2.38-2.37" class="st0"/></g><path id="rect18" d="M74.95 6.73h3.99v14.05h-3.99z" class="st0"/><g id="g22"><path id="path20" d="M82.1 6.73h4v1.82a5.2 5.2 0 0 1 4.38-2.27c1.24 0 3.07.35 4.18 1.72.98 1.2 1.11 2.6 1.11 3.95v8.83h-3.99v-7.66c0-.78-.03-2-.75-2.75a2.56 2.56 0 0 0-1.86-.72c-1.05 0-1.86.36-2.45 1.23a4.8 4.8 0 0 0-.62 2.73v7.17H82.1V6.73Z" class="st0"/></g><path id="polygon24" d="M31.11 14.03v6.75h-3.99V6.73h3.99z" class="st0"/><g id="g28"><path id="path26" d="M33.83 6.27a2.4 2.4 0 0 1 2.4 2.37 2.4 2.4 0 0 1-4.78 0 2.4 2.4 0 0 1 2.38-2.37" class="st0"/></g><linearGradient id="SVGID_1_" x1="3.32" x2="18.06" y1="18.02" y2="3.28" gradientUnits="userSpaceOnUse"><stop id="stop30" offset="0" style="stop-color:#156cc4"/><stop id="stop32" offset=".16" style="stop-color:#1368bb"/><stop id="stop34" offset=".41" style="stop-color:#0f5ca3"/><stop id="stop36" offset=".73" style="stop-color:#07487b"/><stop id="stop38" offset="1" style="stop-color:#003554"/></linearGradient><path id="path41" d="M10.62.2a10.52 10.52 0 0 0-8.7 16.4l5.88-5.88H2.9v-4H14.63v11.71h-4v-4.9L8.17 16l-3.44 3.44A10.52 10.52 0 1 0 10.63.2z" style="fill:url(#SVGID_1_)"/></g></svg>