<?xml version="1.0" encoding="UTF-8"?><svg id="a" xmlns="http://www.w3.org/2000/svg" viewBox="0 0 986.46 986.46"><defs><style>.b{fill:#ea4f00;}.c{fill:#fff;}</style></defs><path class="b" d="M3.23,493.23C3.23,222.61,222.61,3.23,493.23,3.23s490,219.38,490,490-219.38,490-490,490S3.23,763.85,3.23,493.23"/><path class="c" d="M449.03,670.17h-53.85l-41.32-174.68c-5.01-21.29-10.64-51.34-12.52-73.25h-1.25c-2.5,21.29-8.77,51.97-13.77,73.25l-39.44,174.68h-56.97l-74.51-307.42h51.97l40.07,182.82c5.64,26.3,9.39,45.71,11.9,66.37h1.25c1.88-20.66,5.01-38.82,10.64-65.74l38.82-183.45h61.36l39.45,182.82c5.01,24.42,8.14,43.83,10.64,67.62h1.25c2.51-23.79,5.64-43.2,11.27-67.62l40.07-182.82h50.72l-75.76,307.42Z"/><path class="c" d="M812.8,586.9c-10.64,40.7-43.2,90.79-118.34,90.79-86.4,0-135.24-63.24-135.24-162.16s51.34-160.28,133.36-160.28c77.01,0,129.6,57.6,129.6,150.27,0,12.52-.63,21.91-1.25,30.05h-207.24c3.13,59.48,26.3,98.3,80.76,98.3,38.82,0,60.74-23.16,68.25-56.35l50.09,9.39Zm-45.08-95.17c-1.25-59.48-28.8-92.66-76.39-92.66-26.3,0-46.96,11.9-60.11,33.18-9.39,15.03-15.65,35.06-16.91,59.48h153.4Z"/></svg>