<svg xmlns="http://www.w3.org/2000/svg" version="1.1" id="Layer_1" x="0" y="0" xml:space="preserve" width="78.84" height="78.84"><style type="text/css" id="style2"></style><path d="M78.84 5.725c0-2.31-1.87-4.18-4.39-4.18H61.63c1.23.43 3.31 2.16 5.62 6.98l6.41 13.11s2.23 4.68.57 8.13l-4.46 9.36c1.51-3.16-.51-7.12-.51-7.12L57.74 8.165c-2.37-4.75-4.24-6.19-5.47-6.62h-4.89c1.36.36 3.38 2.16 5.68 6.98l13.47 27.72s2.23 4.54.43 8.28l-4.9 10.08c1.44-3.09-.57-7.05-.57-7.05L42.41 8.165c-2.38-4.75-4.32-6.26-5.47-6.62h-4.9c1.3.36 3.31 2.16 5.62 6.98l20.95 43.13s2.23 4.54.5 8.35l-5.18 10.52c1.73-3.6-.22-7.49-.22-7.49L26.93 8.165c-2.23-4.75-4.25-6.26-5.47-6.62h-4.9c1.3.36 3.46 2.23 5.62 6.98l13.53 27.65s2.31 4.18.43 8.28l-4.96 10.08c1.44-3.31-.51-7.05-.51-7.05L11.45 8.165c-2.31-4.82-4.25-6.26-5.47-6.69H4.54c-.94 0-1.66.21-2.31.65 1.23.86 2.67 2.8 4.47 6.4l21.09 43.13s2.45 4.9.94 8.07l-5.62 10.8c1.59-3.6-.36-7.49-.36-7.49L0 16.305v56.95c0 2.23 1.94 4.11 4.54 4.11h69.91c2.52 0 4.39-1.88 4.39-4.11z" id="path16" clip-rule="evenodd" fill="#0065a4" fill-rule="evenodd"/></svg>