<svg xmlns="http://www.w3.org/2000/svg" width="165.215" height="165.215"><path d="M58.995 75.58L43.632 52.836s-6.899 7.736-8.44 9.413c-1.556 1.705-3.003 2.859-5.656 2.495-3.263-.48-17.576-3.43-17.576-3.43s-1.13 17.652-1.303 19.334c-.184 1.785-.768 4.028-3.873 6.62l52.21-11.69M117.307 62.52l18.169-32.991s-11.932 5.176-15.824 6.872c-3.923 1.689-5.485 1.426-6.077-1.326-.503-2.664-3.42-22.8-3.586-23.946-1.133 1.146-20.986 21.282-23.732 23.946-2.888 2.752-4.738 3.015-7.193 1.326a10874.34 10874.34 0 01-10.057-6.82l-9.451 45.872 57.75-12.932M150.81 80.649c1.235-1.682 14.405-19.335 14.405-19.335s-16.187 2.952-19.92 3.43c-2.907.365-3.375-.789-3.502-2.495-.102-.878-.617-10.647-.617-10.647l-23.527 11.38-54.293 63.968 40.092 6.223s.123-6.136.29-10.682c.24-4.548 2.789-5.341 4.387-6.297 1.531-.956 47.274-27.398 47.274-27.398l-4.594-2.48c-2.798-1.437-1.249-3.963.006-5.667" fill="#00aaa6"/><path d="M0 88.577s19.368 22.857 20.183 23.815c4.594 5.415 4.497 7.594-.195 13.352l-6.065 7.43 30.588-5.145c3.438-.578 6.874.37 6.021 5.096-.585 3.22-3.796 20.961-3.796 20.961l16.02-27.235 28.277-48.116-85.036 9.199L0 88.577" fill="#003c71"/><path d="M117.637 63l-54.26 63.925-.604-.095 28.263-48.085L6.052 87.93l.788-.66 52.179-11.685.56-.127 57.716-12.922.342.462" fill="#fff"/></svg>