<svg xmlns="http://www.w3.org/2000/svg" width="161.665" height="161.665" style="width:225px;height:auto"><path fill-rule="evenodd" d="M0 38.165h161.665V123.5H0z"/><path d="M101.482 57.192l-12.54 46.08h-9.1l-9.5-30.55-9.5 30.55h-9.04l-12.66-46.08h9.86l7.75 29.16 9.06-29.16h9.12l9.22 29.38 7.58-29.38zm28.97 0v28.45c0 .04.2 3.9-2.29 6.55-1.62 1.72-4.05 2.59-7.23 2.59-3.18 0-5.61-.87-7.23-2.59-2.49-2.65-2.29-6.51-2.29-6.55v-28.45h-4.09l-5.84 21.46v6.67c0 5.68 1.84 10.49 5.32 13.92 3.48 3.42 8.36 5.23 14.13 5.23 5.76 0 10.65-1.81 14.13-5.23 3.48-3.42 5.32-8.24 5.32-13.92v-28.13z" fill="#fd0"/><path d="M33.942 103.272l-12.66-46.08h3.23l12.67 46.08zm12.17 0l-12.66-46.08h-3.23l12.65 46.08z" fill="#fff"/></svg>