<svg xmlns="http://www.w3.org/2000/svg" viewBox="0 0 420 105"><path fill="#19BED3" d="M388.953 103.423c-1.983 0-3.83-.887-5.538-2.656-1.708-1.77-3.196-3.16-4.463-6.146-.225-.528-.429-1.09-.636-1.65-.698.658-1.331 1.254-1.834 1.736-1.578 1.118-4.25 3.206-6.069 4.287a45.973 45.973 0 0 1-5.729 2.881 38.744 38.744 0 0 1-6.226 2.014 28.522 28.522 0 0 1-6.526.757c-3.453 0-6.473-.634-9.064-1.903-2.588-1.266-4.747-2.974-6.473-5.12a21.518 21.518 0 0 1-3.188-5.482c-2.464 3.403-6.43 5.617-10.908 5.617-5.491 0-10.207-3.326-12.329-8.097-.052-.099-.108-.198-.157-.297a10.258 10.258 0 0 1-.927-3.61c-.018-.145-.043-.29-.055-.436a98.903 98.903 0 0 1-3.617 6.841c-1.358 2.35-2.764 4.475-4.215 6.378-1.452 1.902-2.9 3.459-4.352 4.669-1.451 1.214-2.819 1.819-4.104 1.819-2.131 0-3.783-.549-4.957-1.649-1.177-1.099-2.051-2.489-2.619-4.17a20.554 20.554 0 0 1-.587-2.133 42.477 42.477 0 0 1-2.69 2.415 29.866 29.866 0 0 1-5.673 3.694c-2.02 1.003-4.043 1.507-6.063 1.507-2.424 0-4.444-.791-6.059-2.375-1.615-1.588-3.011-3.888-4.185-6.912-.883 1.047-1.967 2.11-3.252 3.19a29.041 29.041 0 0 1-4.215 2.941 26.945 26.945 0 0 1-4.766 2.152c-1.652.556-3.304.84-4.957.84-1.763 0-3.48-.364-5.151-1.093a13.378 13.378 0 0 1-4.435-3.132c-1.285-1.362-2.313-3.02-3.085-4.978-.772-1.958-1.155-4.17-1.155-6.631 0-.602.024-1.214.062-1.822-.544.315-1.084.577-1.579.732a15.106 15.106 0 0 1-4.546.698c-11.294 0-17.418-6.807-19.435-13.65-.732-2.484-2.881-2.255-2.962-.77-.191 3.487-.898 14.231-1.93 18.852-.512 2.288-1.464 6.785-1.924 7.736-.457.951-.926 1.726-1.402 2.319-.479.603-.991 1.02-1.544 1.26a4.427 4.427 0 0 1-1.816.365c-1.507 0-2.721-.324-3.638-.979-.918-.652-1.625-1.529-2.122-2.628-.494-1.1-.825-2.35-.991-3.75a37.073 37.073 0 0 1-.241-4.169 637.578 637.578 0 0 1-7.718 4.478c-2.755 1.566-5.207 2.872-7.357 3.916-2.146 1.044-4.058 1.825-5.729 2.351-1.67.521-3.187.781-4.543.781-2.791 0-5.253-.859-7.384-2.576-2.131-1.714-3.91-4.181-5.343-7.409-1.433-3.227-2.507-7.134-3.224-11.72-.713-4.587-1.072-9.753-1.072-15.495 0-2.239.09-4.623.275-7.158.182-2.54.439-5.056.769-7.555-1.099-.145-1.955-.287-2.56-.42-.605-.13-1.248-.26-1.927-.389a52.915 52.915 0 0 0-2.591-.42 168.205 168.205 0 0 0-4.543-.559c-.884-.111-1.563-.327-2.039-.645-.478-.315-.827-.689-1.047-1.118a3.499 3.499 0 0 1-.386-1.344 15.503 15.503 0 0 1-.055-1.201c0-.748.358-1.316 1.075-1.705.716-.392 1.633-.682 2.754-.868 1.121-.188 2.351-.287 3.691-.309 1.34-.018 2.625-.009 3.857.028 1.229.037 2.332.068 3.305.084.973.021 1.643-.01 2.01-.084.992-5.034 7.675-30.58 15.096-36.05 2.53-1.869 10.504-1.924 10.195 3.746-.337 6.075-10.92 32.517-10.287 33.336.83 1.072 8.795.88 9.568.898.772.022 1.661.047 2.671.084 1.01.037 2.103.086 3.277.142 1.176.056 2.313.102 3.415.139 1.103.037 2.131.077 3.086.111.954.037 1.745.074 2.369.111.735.04 1.269.411 1.599 1.121.331.708.494 1.6.494 2.684 0 1.307-.367 2.369-1.102 3.19-.735.819-1.541 1.23-2.424 1.23h-21.153c-6.68 0-6.226 8.276-6.226 8.276-.148 2.314-.275 4.59-.386 6.829l-.111 2.99c-.037 1.025-.074 2.04-.108 3.05a178.728 178.728 0 0 0-.084 2.907c-.018.933-.027 1.791-.027 2.576 0 2.013.182 3.712.549 5.09.368 1.377.902 2.507 1.6 3.381a5.99 5.99 0 0 0 2.56 1.906c1.01.389 2.141.586 3.388.586.772 0 1.736-.185 2.894-.562 1.155-.37 2.421-.883 3.799-1.538a55.07 55.07 0 0 0 4.354-2.32 60.517 60.517 0 0 0 8.787-6.293 40.72 40.72 0 0 0 3.295-3.194c.244-1.748.507-3.514.809-5.309.42-2.517.871-4.913 1.35-7.19a159.27 159.27 0 0 1 1.433-6.262c.476-1.903.954-3.469 1.433-4.701.293-.818.587-1.473.88-1.958.294-.482.633-.865 1.019-1.146.386-.278.862-.466 1.433-.559.569-.092 1.276-.139 2.122-.139.954 0 1.696.047 2.23.14.531.092.926.317 1.183.67.256.358.413.864.469 1.54.056.67.083 1.585.083 2.74v5.006c0 1.958 2.277 2.628 3.194.782a33.002 33.002 0 0 1 3.196-5.174c1.214-1.602 2.591-2.955 4.133-4.055 1.541-1.1 3.323-1.649 5.342-1.649.698 0 1.378.12 2.039.362a5.22 5.22 0 0 1 1.735 1.037c.498.445.89.995 1.186 1.65.294.651.439 1.39.439 2.208 0 .636-.093 1.522-.275 2.659a244.581 244.581 0 0 1-.605 3.58 190.15 190.15 0 0 0-.606 3.634c-.185 1.177-.274 2.153-.274 2.937 0 1.344.126 2.462.382 3.357.257.893.597 1.612 1.02 2.153.423.54.901.923 1.433 1.149a4.315 4.315 0 0 0 1.68.336c1.652 0 2.535-.052 4.299-.8 1.76-.747 3.897-2.563 5.003-4.83.012-.015.022-.037.034-.052a50.223 50.223 0 0 1 3.135-5.213c.185-.288.37-.563.562-.813v.019c.148-.207.287-.417.438-.62 1.853-2.496 3.882-4.68 6.087-6.545 2.202-1.865 4.525-3.348 6.968-4.447a18.525 18.525 0 0 1 7.464-1.65c10.146-.11 12.854 4.72 13.225 5.093.364.37.651.893.852 1.563.201.67.303 1.587.303 2.742 0 1.792-.185 3.774-.55 5.958a286.93 286.93 0 0 1-1.214 6.71c-.438 2.296-.843 4.59-1.21 6.885-.368 2.294-.55 4.466-.55 6.513 0 1.754.154 3.126.466 4.114.312.988.982 1.482 2.011 1.482.772 0 1.578-.197 2.424-.587a14.983 14.983 0 0 0 2.564-1.54 29.5 29.5 0 0 0 2.588-2.153c.861-.8 1.68-1.63 2.452-2.49.491-.55.982-1.124 1.476-1.71a379.71 379.71 0 0 0-.21-4.414l-.303-5.624a162.772 162.772 0 0 1-.194-4.641 167.43 167.43 0 0 1-.053-4.361c0-3.842.173-6.835.522-8.981.349-2.144 1.112-3.308 2.286-3.496l6.612-1.063c.182-.037.358-.064.522-.086.167-.016.34-.025.525-.025 1.248 0 2.211.374 2.891 1.118.679.748 1.037 1.603 1.074 2.573l-2.146 35.411.769-.059 14.491-35.071c.108-.525.349-1.029.716-1.513a4.985 4.985 0 0 1 1.43-1.254 8.833 8.833 0 0 1 1.958-.871 7.653 7.653 0 0 1 2.285-.334c2.128 0 3.839.439 5.124 1.313 1.285.88 1.927 2.004 1.927 3.385 0 1.044-.136 2.035-.414 2.965a24.268 24.268 0 0 1-1.155 3.048 92.196 92.196 0 0 1-1.763 3.666c-.68 1.34-1.424 2.924-2.233 4.753a19.466 19.466 0 0 0-.658 2.069 17.396 17.396 0 0 0-.469 2.155c-.025.152-.034.306-.056.46a7.901 7.901 0 0 0-.287 2.091c0 1.128.241 2.196.667 3.166.229.624.55 1.198.97 1.723.2.25.438.48.695.692a7.578 7.578 0 0 0 5.333 2.202c3.16 0 5.868-1.94 7.042-4.71l.148-.163c.083-1.55.266-3.16.556-4.837a38.876 38.876 0 0 1 1.844-6.853 36.334 36.334 0 0 1 3.113-6.405 25.397 25.397 0 0 1 4.379-5.37c1.671-1.548 3.564-2.734 5.621-3.691 4.836-2.249 11.053-.967 12.644-.365 1.76.674 3.295 1.616 4.598 2.83 1.304 1.21 2.323 2.674 3.058 4.388.735 1.714 1.102 3.635 1.102 5.76 0 2.316-.562 4.626-1.68 6.94-1.121 2.31-2.671 4.493-4.657 6.543-1.983 2.051-4.342 3.88-7.079 5.482-2.736 1.606-5.701 2.854-8.897 3.75.553 1.003 1.093 1.843 1.624 2.513.535.67 1.078 1.199 1.628 1.57.55.37 1.13.632 1.736.78a8.194 8.194 0 0 0 1.954.223c2.202 0 4.525-.445 6.968-1.34a45.224 45.224 0 0 0 7.137-3.357c1.452-.843 5.315-4.327 8.487-7.777a71.656 71.656 0 0 1-.5-8.456c0-3.317 2.421-17.295 3.215-21.14 3.465-16.785 10.503-33.67 12.375-37.008 1.874-3.335 5.364-9.638 8.023-11.439 7.78-5.269 14.59-.494 14.59 5.593 0 4.95-7.678 23.157-11.952 35.736-5.46 16.06-11.399 37.9-11.511 38.644v.98c0 .97.155.901.356 1.815.203.915.154.51.549 1.183a6.797 6.797 0 0 0 1.263 1.532c.427.392 1.112.815 1.384.936.602.266 1.464.64 2.412.648 1.103.013 2.069-.095 3.079-.599 1.01-.503 1.263-.704 2.329-1.355a80.708 80.708 0 0 0 3.085-1.99 101.405 101.405 0 0 0 5.26-3.829c.435-.47 2.063-1.467 2.063-1.467a6.052 6.052 0 0 1 2.415-.5c3.403 0 6.161 2.798 6.161 6.254 0 6.726-21.359 17.576-31.047 17.576ZM260.501 63.45c-.383-3.422-2.644-2.891-5.673-1.347-3.907 1.992-12.907 13.252-13.447 20.683-.371 5.08-.846 8.69 4.11 9.484 4.757.757 9.219-2.384 10.26-7.087l.003.003s5.198-17.672 4.747-21.736Zm85.915 14.703a13.05 13.05 0 0 0 2.511-.833 19.533 19.533 0 0 0 4.355-2.66c1.34-1.08 2.467-2.254 3.388-3.523.917-1.266 1.708-2.798 1.816-3.987.383-4.167-4.04-7.094-7.628-4.574-1.041.732-4.482 4.015-6.4 9.206-2.254 6.084 1.331 6.504 1.958 6.371ZM105.292 91.545c.552.373 1.13.633 1.735.784.609.148 1.26.223 1.958.223 2.202 0 4.806.114 6.968-1.344 2.674-1.803 3.783-3.956 7.813-3.956 3.008 0 5.442 2.477 5.442 5.525 0 1.14-.343 3.104-1.056 3.876-1.504 1.627-5.294 4.151-7.295 4.991a39.76 39.76 0 0 1-6.226 2.013c-2.15.504-4.324.754-6.529.754-3.453 0-6.473-.633-9.061-1.899-2.591-1.27-5.918-3.84-7.517-6.085-5.133-7.192-4.611-11.918-4.611-11.918-9.685 4.472-16.347-2.124-18.327-7.653-1.25 2.984-7.31 12.984-8.669 15.464-1.359 2.48-2.755 4.61-4.188 6.402-1.43 1.791-2.881 3.19-4.351 4.2-1.47 1.004-2.937 1.507-4.407 1.507-.516 0-.964-.398-1.35-1.204-.386-.8-.707-1.881-.963-3.243-.257-1.362-.47-2.943-.634-4.756a125.184 125.184 0 0 1-.386-5.732 207.01 207.01 0 0 1-.191-6.208 357.368 357.368 0 0 1-.056-6.21l-1.6-.281c-1.065 4.067-2.322 7.785-3.77 11.161-1.452 3.376-3.005 6.285-4.658 8.725-1.652 2.446-3.36 4.345-5.123 5.707-1.764 1.362-3.49 2.041-5.18 2.041-2.862 0-4.965-2.146-6.306-6.433-1.245-3.98-1.89-16.038-1.98-23.555-3.218 1.19-4.045 1.205-8.048 1.291-7.98.176-9.537-10.167-.97-11.282 7.839-1.019 9.951-4.648 13.623-10.074.636-.939.951-1.674 2.113-2.7 1.566-1.38 10.154-.719 9.833 2.688l-3.854 30.263.713-.056A282 282 0 0 0 32.4 74.135a416.755 416.755 0 0 1 3.304-8.47c1.01-2.5 1.983-4.68 2.922-6.548 0 0 1.313-3.005 2.532-5.278 2.548-4.738 14.732-3.11 14.188.525l-4.518 30.263.772-.056 13.154-30.244c2.674-4.818 15.117-3.515 15.105 1.1 0 1.043-.173 2.164-.522 3.356a38.432 38.432 0 0 1-1.13 3.33c-.405 1.025-2.75 4.938-2.75 4.938 0 8.048 7.524 8.091 11.752 6.661 0 0 1.19-6.745 5.26-12.57 1.368-1.951 3.19-3.764 4.864-5.314 1.67-1.548 3.561-2.734 5.618-3.694 4.836-2.248 11.056-.967 12.643-.361 1.764.67 3.296 1.612 4.602 2.825 1.303 1.211 2.323 2.675 3.058 4.39.732 1.716 1.099 3.634 1.099 5.762 0 2.313-.559 4.626-1.68 6.936-1.121 2.314-2.671 4.494-4.654 6.545-1.983 2.05-4.342 3.882-7.079 5.482-2.736 1.606-5.701 2.853-8.897 3.749.549 1.007 1.093 1.847 1.624 2.517.531.67 1.075 1.195 1.625 1.566Zm-2.703-13.626c.8-.17 1.637-.448 2.511-.834a19.397 19.397 0 0 0 4.352-2.66c1.34-1.08 2.47-2.254 3.388-3.52.917-1.27 1.707-2.801 1.819-3.99.383-4.163-4.043-7.094-7.632-4.57-1.041.731-4.478 4.01-6.399 9.203-2.251 6.087 1.334 6.504 1.961 6.37Z"/></svg>