<svg xmlns="http://www.w3.org/2000/svg" viewBox="0 0 38.1 46.4"><defs><linearGradient id="a" x1="36.6" x2=".6" gradientUnits="userSpaceOnUse"><stop stop-color="#0575E6"/><stop offset="1" stop-color="#02F260"/></linearGradient></defs><path fill="url(#a)" d="M11.4 10.1a28 28 0 0 0-8 7A16 16 0 0 1 4.5 4.2 15.4 15.4 0 0 1 7.8 0a8.8 8.8 0 0 0 3.7 10.1zm6.4 36.3h-1.5a24.8 24.8 0 0 1 17.4-12.5c1-.2 2-.3 3.1-.3a16 16 0 0 1-2.3 4.5 19.7 19.7 0 0 0-13.1 8.1 19.7 19.7 0 0 1-3.6.2zm4.5-.4A19 19 0 0 1 34 38.8 19.7 19.7 0 0 1 22.3 46zm14.9-13.4a25.6 25.6 0 0 0-21.8 13.6 18.5 18.5 0 0 1-15-14.6 19.1 19.1 0 0 1 3-14.6c1.2 7.8 9.3 9.6 17 9.6h17.7v.7a20 20 0 0 1-1 5.3z"/></svg>
