<svg xmlns="http://www.w3.org/2000/svg" width="38.1" height="46.43" fill="none"><path fill="url(#a)" d="M11.45 10.13c-2.85 1.69-6.1 4.12-8.13 6.9-1.55-3.96-.8-8.68 1.26-12.77A15.4 15.4 0 0 1 7.76 0a8.84 8.84 0 0 0 3.7 10.13zm6.38 36.3-.9-.05c-.2-.02-.4-.07-.6-.07A24.8 24.8 0 0 1 33.68 33.9c1.05-.17 2.1-.27 3.17-.3-.6 1.6-1.4 3.1-2.38 4.5a19.72 19.72 0 0 0-13.1 8.1 19.7 19.7 0 0 1-3.54.22zm4.5-.45a19.07 19.07 0 0 1 11.57-7.16 19.66 19.66 0 0 1-11.56 7.16zm14.84-13.34A25.59 25.59 0 0 0 15.44 46.2C7.6 44.96 1.9 38.87.35 31.61A19.12 19.12 0 0 1 3.4 17.03c1.2 7.76 9.29 9.6 17.04 9.6h17.62c.04.2.04.43.04.65a19.91 19.91 0 0 1-.93 5.36z"/><defs><linearGradient id="a" x1="46.62" x2="9.64" y1=".72" y2=".72" gradientTransform="translate(-8.95)" gradientUnits="userSpaceOnUse"><stop stop-color="#0575E6"/><stop offset="1" stop-color="#02F260"/></linearGradient></defs></svg>