<svg width="56" height="50" viewBox="0 0 56 50" fill="none" xmlns="http://www.w3.org/2000/svg">
<path d="M20.4033 10.1251C17.5556 11.8155 14.2978 14.2544 12.27 17.0278C10.7182 13.0658 11.4809 8.351 13.5352 4.26134C14.3382 2.66814 15.4121 1.22628 16.7092 0C15.5032 3.82099 17.0186 7.97437 20.4033 10.1251ZM26.7782 46.4217C26.4801 46.4129 26.1819 46.3997 25.8882 46.3778C25.6821 46.3646 25.4805 46.3075 25.2788 46.3075C28.9006 39.7656 35.2732 35.2062 42.627 33.8956C43.6775 33.7284 44.7378 33.6301 45.8011 33.6014C45.2059 35.195 44.4072 36.7047 43.4249 38.0929C38.1423 38.906 33.4151 41.8307 30.325 46.1978C29.1519 46.3791 27.9648 46.4541 26.7782 46.4217ZM31.2881 45.975C34.1351 42.2494 38.2519 39.7037 42.8531 38.8233C39.9695 42.5081 35.8694 45.0435 31.2881 45.975ZM46.124 32.6431C36.9912 32.9398 28.7077 38.107 24.3883 46.202C16.5561 44.9646 10.8659 38.8655 9.3065 31.6127C9.07256 30.404 8.95375 29.1757 8.95167 27.9444C8.94688 24.0409 10.135 20.2301 12.3553 17.0278C13.5555 24.7914 21.6374 26.6233 29.3908 26.6233H47.0133C47.0483 26.8391 47.0483 27.0593 47.0483 27.2795C46.9871 29.1016 46.6761 30.9065 46.124 32.6431Z" fill="url(#paint0_linear_717_18435)"/>
<defs>
<linearGradient id="paint0_linear_717_18435" x1="46.6192" y1="0.721958" x2="9.63992" y2="0.721958" gradientUnits="userSpaceOnUse">
<stop stop-color="#0575E6"/>
<stop offset="1" stop-color="#02F260"/>
</linearGradient>
</defs>
</svg>