<svg xmlns="http://www.w3.org/2000/svg" viewBox="0 0 63.968 64.211"><g fill="#c32127"><path d="M10.069 8.476c3.669-2.039 8.22-2.775 12.019-2.981a58.814 58.814 0 0 1 .087-4.298 32.462 32.462 0 0 0-12.106 7.279zM8.968 32.732c0-.589.18-1.136.489-1.59-2.652-3.519-5.679-8.575-6.058-13.679A32.075 32.075 0 0 0 0 31.869c0 6.622 2 12.776 5.424 17.901.279-2.013 1.315-7.897 4.496-14.937a2.807 2.807 0 0 1-.952-2.101zM41.912 50.374c-.043.101-.101.191-.155.283 4.689 4.506 8.708 6.737 9.65 7.23a32.533 32.533 0 0 0 9.081-10.972c-2.349 1.34-9.071 4.487-18.576 3.459zM40.755 51.679a2.833 2.833 0 0 1-1.458.412 2.835 2.835 0 0 1-2.832-2.727c-6.741-1.771-14.518-5.726-22.916-13.484 0 0-.217-.215-.563-.576-.36.164-.756.26-1.176.26-.103 0-.201-.017-.301-.03-2.088 4.589-3.811 9.813-4.978 15.795 5.926 7.826 15.333 12.882 25.928 12.882a32.394 32.394 0 0 0 17.724-5.25 57.071 57.071 0 0 1-9.428-7.282zM48.059 4.522c-1.482.331-4.15 1.046-7.464 2.396.072.252.125.511.125.787 0 .197-.02.388-.059.574 11.84 3.852 18.5 10.099 22.224 15.757-2.199-8.274-7.614-15.245-14.826-19.514zM25.778 13.902a56.877 56.877 0 0 1 9.292-5.807 3.01 3.01 0 0 1-.027-.27c-4.146-1.037-7.915-1.343-11.234-1.207.045 2.358.215 4.596.448 6.767a2.84 2.84 0 0 1 1.521.517z"/><path d="M63.666 27.908c-3.864-7.318-10.74-11.701-10.74-11.701-4.528-3.107-8.805-5.288-12.803-6.787a2.832 2.832 0 0 1-4.606-.132 56.107 56.107 0 0 0-8.792 5.762c.159.353.25.743.25 1.155 0 1.244-.81 2.29-1.93 2.669 2.359 12.605 7.714 21.649 13.006 27.85a2.807 2.807 0 0 1 1.246-.302 2.837 2.837 0 0 1 2.8 2.388c5.344.718 13.317.624 19.538-4.407a32.174 32.174 0 0 0 2.333-12.058c0-1.507-.101-2.99-.302-4.437zM37.874 4.868a2.83 2.83 0 0 1 2.168 1.02 67.283 67.283 0 0 1 6.533-2.193A32.41 32.41 0 0 0 31.51 0c-2.627 0-5.178.319-7.625.906a84.936 84.936 0 0 0-.09 4.529c3.43-.057 5.905.27 5.905.27 1.935.3 3.764.654 5.503 1.058a2.838 2.838 0 0 1 2.671-1.895zM22.676 13.785a76.165 76.165 0 0 1-.561-7.057c-9.17.812-14.534 4.852-14.534 4.852s-.28.152-.666.346a31.912 31.912 0 0 0-2.417 3.527c.149 1.782 1.01 8.04 5.842 14.866a2.817 2.817 0 0 1 2.051-.359 55.962 55.962 0 0 1 9.362-12.212 2.8 2.8 0 0 1-.463-1.543c0-1.032.559-1.925 1.386-2.42z"/><path d="M36.953 47.659c-7.932-9.27-11.695-19.874-13.436-28.692a2.747 2.747 0 0 1-.539-.178c-3.252 3.273-6.372 7.241-9.079 12.035.463.504.754 1.17.754 1.908 0 .731-.285 1.39-.74 1.893 4.704 4.895 11.742 9.66 22.303 12.904 0 0 .255.079.688.208.017-.026.032-.053.049-.078z"/></g></svg>