<svg xmlns="http://www.w3.org/2000/svg" viewBox="0 0 31 31"><path d="M15.5 31C6.9 31 0 24 0 15.5 0 6.9 6.9 0 15.5 0S31 6.9 31 15.5C31 24 24.1 31 15.5 31zm0-28.4C8.4 2.6 2.6 8.4 2.6 15.5s5.8 12.9 12.9 12.9 12.9-5.8 12.9-12.9S22.6 2.6 15.5 2.6zM23.1 17H11.9c-.5 0-.9-.4-.9-.9v-1.3c0-.5.4-.9.9-.9h11.3c.5 0 .9.4.9.9v1.3c-.1.5-.5.9-1 .9zm-2.9-5H8.9c-.5 0-.9-.4-.9-.9V9.8c0-.4.4-.8.9-.8h11.3c.4 0 .8.4.8.8v1.3c0 .5-.4.9-.8.9zM8.9 19h11.3c.5 0 .9.4.9.9v1.3c0 .5-.4.9-.9.9H8.9c-.5-.1-.9-.5-.9-1v-1.3c0-.4.4-.8.9-.8z" fill="#50a346"/></svg>