<svg xmlns="http://www.w3.org/2000/svg" viewBox="0 0 90 90"><path fill="#FF8217" d="M89.98 40.3c.28 18.58-3 32.1-9.85 40.57l-1.12.59-1.11.56-.55.28-1.09.53c-8.14 3.94-15.62 6.24-27.32 6.95l-1.1.07-1.08.05-.53.02-1.03.04-.5.01-.97.02-1.41.01h-.9l-.86-.03-.83-.03-.8-.04-.76-.05-1.1-.1-.67-.08c-.67-.08-1.29-.18-1.86-.3l-.55-.12a10.03 10.03 0 01-2.62-.97l.4-.19.8-.36.74-.36.7-.34a17.92 17.92 0 004.3-2.77l.36.3.23.17.27.2.3.2.33.2c1.5.92 3.95 1.93 7.44 1.8l.39-.02.4-.03.43-.04.44-.06.45-.06.47-.09.5-.1c.07 0 .16-.03.24-.04l.51-.12.52-.14.54-.14.55-.17.28-.09.57-.19.58-.2.6-.23c.49-.2 1-.41 1.51-.65l.63-.3.63-.31.64-.34.65-.35.66-.38A44.48 44.48 0 0071.8 71.83c6.17-7.98 12.23-18.48 18.18-31.52zM41.3 0h4.11l1.12.02 1.04.02.66.02.94.04.6.03.6.04.58.04.58.05.57.06.59.07.59.08.6.08.62.1.64.1.67.13 1.06.2 1.15.22 1.24.26 2.34.5 2.72.61.99.24.7.18.36.1.73.22.76.23.76.24.77.25 1.16.4.77.27 1.13.4.74.28 1.05.4.67.27.93.38.83.36.49.21.43.2.38.18.3.16c1.88 1.02 3.29 2.21 4.64 5.14l.25.56.42 1 .48 1.18.39 1 .7 1.88.48 1.25 1.02 2.81.55 1.55c-4.77 1.46-7.98 3.5-9.64 6.1L73.1 40.33l-2 4.54-1.52 3.43-1.25 2.8-.98 2.15-.94 2.04-.9 1.92-.42.9-.6 1.26-.39.78-.36.72-.35.68-.32.6-.3.55-.26.48-.23.4-.45.76-.23.37-.46.74-.45.72-.46.7-.22.35-.46.67-.45.65-.45.62-.23.31-.45.6c-3.43 4.46-6.65 6.86-8.91 5.72-.94-.47-1.16-2.19-.66-3.4.24-.6.63-1.27 1.12-2.03l.39-.58.41-.61 1.4-2.01.5-.73.52-.76.25-.39.52-.8.52-.83.52-.84.77-1.27.5-.85.73-1.26.48-.83.67-1.22.22-.4.42-.78.4-.75.19-.37.36-.7.33-.67.3-.64.28-.59.12-.27.22-.52.18-.46c.57-1.5-1.62-3.04-4.53-4.07l-.5-.18a21.9 21.9 0 00-.79-.23l-.53-.15-.54-.13-.81-.17-.54-.1-.27-.05-.54-.07-.27-.04-.53-.05-.27-.02-.52-.03a8.26 8.26 0 00-3.85.56l-.2.11a4.91 4.91 0 00-2.2 2.55c-.3.7-.58 1.54-.86 2.45l-.75 2.4a42.28 42.28 0 01-1.87 5.08l-.5 1.06-.5 1.07-.7 1.42-.54 1.06-.36.7-.55 1.05-.56 1.04-.37.67-.38.67-.38.66-.39.64-.39.64-.38.61-.4.6-.19.3-.4.58-.38.55-.2.28-.4.52c-.06.1-.13.18-.2.26l-.38.5c-2.24 2.74-4.46 4.36-6.44 3.9-3.6-.84-6.48-5.1-7.27-9.4-.42-2.27-.4-5.76-.07-8.32l.2-1.5.11-.72.11-.63.14-.7.11-.51.13-.55.15-.57.16-.6.09-.31.19-.64c.17-.54.36-1.11.57-1.7l.18-.49.39-1 .2-.53.43-1.09.23-.55.47-1.15.5-1.19.78-1.84.83-1.92 1.46-3.3 3.72-8.37 1.08-2.46 1.07-2.43 1.52-3.56.64-1.55.62-1.51.78-1.95.74-1.87 2.96-7.64.52-1.29.47-1.17.34-.8.2-.48.31-.66.2-.4.18-.35.17-.32.17-.28c.1-.17.16-.55.16-1.14L41.3 0zM13.43 6.88L2.47 60.87C-.05 53.55-.64 45.1.7 35.51l.08-.58.17-1.13.1-.56.18-1.1.3-1.6.2-1.05.23-1.03.22-1 .23-.98.24-.96.25-.93.25-.91.25-.89.13-.43.26-.85.26-.82.26-.8.26-.77.27-.75.26-.72.27-.7.26-.66.26-.63.26-.61.26-.58.12-.28.25-.54.25-.5.24-.49.23-.44.23-.42.22-.39.2-.35.21-.33.2-.29.09-.13.18-.25.16-.2.23-.26c1.2-1.19 2.6-2.1 4.21-2.72z"/></svg>