<svg xmlns="http://www.w3.org/2000/svg" width="197" height="197"><path d="M109.441 148.05c-7.2 0-13.8-4-17.5-10.5-8.9-15.6 4.9-38.9 32.6-55.2 3.2-1.9 6.4-3.6 9.7-5.1-1.3-5.3-3.3-9.9-6-14-4.6-6.8-11.8-7.8-15.6-7.8-12.6 0-28.3 7.9-42.8 21 4.6 8.4 7 17.2 7.5 27 .7 15.6-3.5 30.2-11 38-3.8 3.9-8.2 6-12.9 6-10.6 0-18.6-9.4-18.6-21.9 0-14.5 9.7-33.3 25.2-49l1.3-1.3c-4-5.1-9.5-7.1-13.3-7.1-14.3 0-31.4 17.7-41.6 42.8-.7 1.7-2.6 2.5-4.3 1.8-1.7-.7-2.5-2.6-1.8-4.3 11.3-28 30.5-46.7 47.7-46.7 5.2 0 12.7 2.4 18.1 9 15.5-13.7 32.5-21.8 46.5-21.8 8.8 0 16.5 3.9 21.1 10.6 3 4.4 5.2 9.3 6.7 15 17.7-6.8 35-7.7 45.4-1.7 3.9 2.1 6.9 6.1 7.8 7.9 3.7 7 4.3 17.2 1.6 28.2-4.8 19.3-16.4 32.3-28.9 32.3-5.4 0-11-3.7-13.6-9-1.7-3.4-3.5-10.4 3-18.7 5.7-7.3 16.7-12.6 30.1-14.7 0 0 4.3-.6 4.4-.6.2-3.2 0-6.3-.5-9-.4-2.1-1.1-4-1.9-5.6l-.2-.3c-.3-.7-2.5-3.6-5-5-8.9-5.2-24.7-3.7-40.8 2.7.8 5.1 1 10.6.7 16.7-1.2 27.1-15.8 49.6-32.4 50.1-.3.2-.5.2-.7.2zm26-64c-2.5 1.2-5.1 2.6-7.5 4-23.8 14-37 34.4-30.3 46.5 3.1 5.5 8.3 7.3 12.2 7.1 13-.4 25-20.7 26-44 .2-4.9.1-9.5-.4-13.6zm-70.6-2.8c-.1 0-.1 0 0 0-14.5 14.6-23.4 31.6-23.4 44.6 0 7.6 4.1 15.4 12 15.4 2.9 0 5.6-1.3 8.1-4 6.2-6.5 9.8-19.6 9.1-33.4-.3-8.3-2.2-15.6-5.8-22.6zm124.4 23.9l-2.5.4c-11.6 1.8-21.4 6.4-26 12.3-3.2 4.1-4 8.2-2.3 11.8 1.7 3.5 5.2 5.3 7.7 5.3 9.3 0 18.6-11.3 22.6-27.4.2-.8.4-1.6.5-2.4z" fill="#d13e66"/></svg>