<svg xmlns="http://www.w3.org/2000/svg" width="185.632" height="128.04" fill="#f49600"><path d="M165.375.533c-9.4-2.4-8.8 3.4-8.6 15.4.3 27-.5 59.5-8.9 71.5-5.8 8.2-22.1 14.5-39.7 17.7-19.9 3.7-40.9 3.9-49-.3-12.3-6.4-25.5-24.8-34.3-47.8-1.6-4.3-3.8-12.9-8.7-11.4-8.6 2.5-15.3 11.8-16.1 19.9-.8 7.9 4.8 19.2 14.8 30.6 9.8 11.1 23.3 22.9 36 28.1 25.1 10.2 99.7-.7 116.6-25.5 9.4-13.9 15.8-50 17.9-69.2 1.6-15.5-4.2-25-20-29zm-61.7 81.9c8.1-1.2 14.8-14.7 13.8-35.5-.9-20.4-12.9-37.4-31.3-33.6-14.4 3-17.7 22.4-13.7 40.1 3.8 16.1 16 31.1 31.2 29z"/></svg>