<svg xmlns="http://www.w3.org/2000/svg" xml:space="preserve" width="162.7" height="162.7"><defs><linearGradient gradientTransform="matrix(1 0 0 -1 0 170)" y2="216.629" x2="646.454" y1="-30.307" x1="197.338" gradientUnits="userSpaceOnUse" id="b"><stop offset="0" stop-color="#54d9be"/><stop offset="1" stop-color="#363a8e"/></linearGradient><linearGradient gradientTransform="matrix(1 0 0 -1 0 170)" y2="-57.31" x2="268.073" y1="141.79" x1="268.073" gradientUnits="userSpaceOnUse" id="c"><stop offset="0" stop-color="#54d9be"/><stop offset="1" stop-color="#363a8e"/></linearGradient></defs><g transform="translate(-249.6 -4.35)"><linearGradient id="a" gradientUnits="userSpaceOnUse" x1="318.779" y1="92.321" x2="587.488" y2="215.234" gradientTransform="matrix(1 0 0 -1 0 170)"><stop offset="0" stop-color="#54d9be"/><stop offset="1" stop-color="#363a8e"/></linearGradient><path d="M357.3 115.1c-30.3 0-55-24.6-55-55 0-30.3 24.6-55 55-55 30.3 0 55 24.6 55 55-.1 30.3-24.8 55-55 55zm0-77.4C345 37.7 335 47.7 335 60s10 22.3 22.3 22.3 22.3-10 22.3-22.3c.1-12.3-10-22.3-22.3-22.3z" fill="url(#a)"/></g><path d="M380.3 160.7v5.6h-71.4c-14.2 0-27.7-5.6-37.8-15.7l-1.7-1.7c-11.8-11.8-18.7-27.5-19.6-44.1.1 1 3.5 24.7 36.7 24.7H349c17.3.1 31.3 14 31.3 31.2z" fill="url(#b)" transform="translate(-249.6 -4.35)"/><path d="M249.7 104.8s2.8 24.7 36.8 24.7V66.9c0-17.2-14-31.3-31.3-31.3h-5.6z" fill="url(#c)" transform="translate(-249.6 -4.35)"/></svg>