<svg xmlns="http://www.w3.org/2000/svg" xmlns:xlink="http://www.w3.org/1999/xlink" width="345" height="345"><defs><path id="a" d="M0 0h344.784v164.325H0z"/></defs><clipPath id="b"><use xlink:href="#a" width="100%" height="100%"/></clipPath><path d="M344.784 112.988V0H0v164.326c89.865-22.348 208.352-40.153 344.784-51.338" clip-path="url(#b)" fill="#d70a2d" transform="translate(.108 90.338)"/><g fill="#fff"><path d="M99.575 51.84h5.252s4.6-.086 3.44 5.217c-.67 3.065-10.528 43.396-11.397 46.63-.74 2.746-1.678 4.316-5.525 5.073-3.57.702-6.044 1.1-6.044 1.1s-4.177.885-5.55-4.598l-6.8-28.412-7.26 32.1s-.828 4.372-4.94 5.545c-2.433.608-7.488 1.442-7.488 1.442s-4.82 1.053-6.158-3.765l-13.4-53.207c-.4-1.996-1.44-6.913 3.708-7.116h7.305s4.626-.264 5.314 4.332l6.766 38.656L63.18 63.84c1.027-5.36 1.977-9.016 6.158-9.016h6.084c2.56 0 4.798.146 6.155 4.492 1.442 4.004 6.715 31.348 6.715 31.348l5.912-33.806c.315-1.212.988-5.025 5.37-5.02m28.003 4.695c-.001-4.876-3.363-4.703-4.482-4.703h-4.412c-4.692 0-4.485 2.774-4.485 5.42l-.001 42.832c-.013 4.808 3.908 4.062 4.258 4.03l5.54-1.062c3.765-.96 3.583-4.117 3.583-5.02V56.533m-6.656-9.7a7.41 7.41 0 007.409-7.409 7.41 7.41 0 00-7.409-7.409 7.41 7.41 0 00-7.409 7.409 7.41 7.41 0 007.409 7.409m55.548-6.26s-1.368-3.345 2.205-5.296c2.584-1.394 10.896-4.663 18.447-2.635 7.551 2.028 12.062 6.385 13.43 14.1 1.368 7.715-3.598 14.62-7.45 18.092l-8.337 7.35s-6.36 5.625-6.487 10.846l18.5-1.876s3.836-.6 3.836 2.765v3.15c0 .865.13 3.505-3.203 3.967l-27.164 3.75c-.47.015-3.918.608-3.997-4.003-.115-4.376.095-15.635 8.786-24.454 2.763-2.787 10.608-9.34 10.608-9.34s3.98-3.495 4.267-6.707c.3-3.5-1.5-6.347-4.638-7.43-2.938-1.015-6.755.1-7.856.587l-5.338 2.1c-.858.344-2.167.45-3.35-.758-1.26-1.288-2.26-4.186-2.26-4.186m69.05 42.757v-42.17c0-3.056-2.206-3-3.1-3h-3.4c-2.8 0-2.794 2.436-2.794 2.93v12.96c-2.974-2.974-7.013-2.983-7.28-2.983-.267 0-5.45-.273-9.883 3.497-4.53 3.854-4.162 11.118-4.162 11.118v10.452c0 .36-.038 5.702 2.72 9.2 2.758 3.498 5.986 4.333 10.472 4 4.486-.333 7.963-3.915 8.97-4.885 0 2.94 2.08 2.74 2.657 2.725.23-.008 3.085-.354 3.3-.408.163-.04 2.498-.267 2.5-3.446m-20.45-18.374s-.17-3.12 2.054-4.766c2.164-1.6 4.998-.703 5.473-.513.475.19 2.053 1.007 3.6 2.5v15.1s-3.726 4-7.185 3.63c-2.736-.3-3.953-2.388-3.953-5.144V64.958m59.557 7.504l-2.67-17.793c-.06-.6-.203-1.587.74-2.324.255-.2.933-.534 1.863-.534h3.22c.505 0 1.423.058 2.182.832.715.73.873 1.43 1.023 2.454l2.34 15.848s.258 1.496.687 2.232c.429.736 1.175 1.732 3.313 1.646 2.297-.092 3.384-.515 3.384-.515l1.2-20.168c.062-.65.288-1.7 1.644-2.14a4.93 4.93 0 011.295-.179h2.87S310 51.8 310 53.874s-1.624 28.7-1.63 28.755c-.006.055-.262 5.33-4.843 8.193-1.42.887-3.75 1.748-5.474 2.002l-5.282.648c-.398.03-2.748.34-2.98-1.967l-.152-1.773c-.03-.817-.47-2.494 2.23-2.838l5.22-.508s2.148.038 2.787-2.33c.608-2.254.507-3.218.507-3.218s-2.215.615-3.345.735c-.684.072-6.32.82-9.63-2.788-2.254-2.457-2.782-6.322-2.782-6.322M162.753 97.258l4.418-.76c3.366-.65 3.092-2.874 3.092-4.4V64.266c-.23-9.908-5.702-12.72-12.3-13.177-6.725-.465-12.037 4.5-12.037 4.5 0-3.94-3.402-3.8-3.402-3.8h-3.446c-4.13 0-3.896 3.027-3.896 4.093l.01 40.827c0 4.523 3.496 3.806 3.804 3.774 0 0 4.03-.8 4.957-1.063 3.453-1.016 3.206-3.583 3.206-5.018V65.337c3.3-3.785 6.93-4.72 8.802-4.3 3.294.608 3.27 4.637 3.27 4.637V93.7c0 .362-.136 4.158 3.513 3.547M268.987 64.13c-5.22-.05-12.367.796-15.914 4.014-3.547 3.218-3.116 7.45-3.116 7.703 0 .253-.152 4.283 2.433 6.867 2.585 2.584 5.853 3.244 10.136 2.712 4.283-.532 6.816-3.6 7.526-4.435.126 2.56 1.672 2.56 2 2.584.328.024 2.294.118 4.08-.43 1.473-.452 1.773-1.462 1.773-2.824V62.923c0-2.585-.76-5.474-2.736-7.602-1.976-2.128-4.396-3.434-7.944-4.042-3.548-.608-8.983.336-11.846.85-2.844.5-2.66 2.24-2.453 2.96l.83 2.816c.526 1.807 2.502 1.564 3.04 1.445a49.19 49.19 0 016.588-.938c.634-.025 3.752-.137 4.883 1.585.83 1.263.704 1.967.717 4.132m-.001 10.957c-1.115 1.343-2.33 2.28-4.484 2.7-.694.14-1.325.16-1.886.082a3.321 3.321 0 01-3.023-3.3 3.32 3.32 0 011.641-2.866c2.418-1.456 7.753-1.38 7.753-1.38v4.764z" clip-path="url(#b)" transform="translate(.108 90.338)"/></g></svg>