<svg xmlns="http://www.w3.org/2000/svg" xml:space="preserve" viewBox="0 0 700 655"><path fill="#b5121b" d="M665.7 254.4c-1.3 0-2.2-.3-2-.5.1-.3-.8-.5-2-.5h-61L655.8 0H542l-49.2 253.1-2.1.3H479c-1.3 0-2.3-.4-2.3-1s-.6-1.6-1.4-.9c-1 .6-5.3 2-6.6 2h-10L404.4 0h-93.1l-6.9 32.2v99.5s0 13.8-1 9.8l-3.6 8c0 7.6.8 64.2.3 104h-5.8V132.6c0-6 2.7-5 4.6-8.9a370.7 370.7 0 0 1-5.2-41.5l-36 168.6c-.5-.3-1-.6-1.8-.6h-51.6L164.1 43.1H50.4l44.9 207.2H68l-21.5.4c-1.2-.2-2 28.6-1.6 29.6l9.6 17c1 .7 4.8-12 4.9-10.9l3.5 68.6c-.3 1-1.6 25.9-2.9 25.9l-14.5-68.1s-6.4 4.7-6.5 5.8c0 0-8.9 70-10 69.3l-12-13.2c-.6-1-10.6-.8-11 .2 0 0-7.1 24.2-5.8 24.2h57.3c1.3 0 2.3-.8 2.1-1.9-.1-1 .5-3.7 1.6-3.7 1.2 0 2 .8 1.9 1.8-.1 1 .8 1.8 2 1.8h10.5c1.3 0 2.2-.5 2-1.2-.2-.7-.1-2.4.5-2.4s1 .9 1 2v5.7c0 1 1.1 2 2.4 2h46.9L183 655h99.9l12.8-66.1v-93c0-12.4 1.9-25.6 1.9-38.9 0 15.4 3.4 74.3 4.3 100.4l29.9-154.2h50.9l40.5 208.6h100l45.2-208.6H620l2.3-.1 22.8-.3c1.2.2 2.3-.5 2.3-1.6V377l-11-20.8-.8 6.8-4.4 4.1 7.8-28-6.1-10.4-5.3 6.3-6.3-18.4 2.6-8.1 3.5-1v-9l9.2-.1 16.3 36.6 7.6 7.2s-2-20.2-1.7-21.3l5.1 3.4 3-57.9c0-1 17 12.4 17 12.4l16.1-24.3h-34.3z"/><path fill="#fff" d="M131.2 265.3H147l13 78.6h.4l10.7-78.6h18l-19.7 123.4h-16.2l-14-81.5h-.3l-13 81.5h-16.2L88.4 265.3h18l11.9 78.6h.3l12.6-78.6zm72.8 0h19.3v123.4H204V265.3zm40.6 123.4V265.3h17.9l23.4 70.6h.3v-70.6h17.5v123.4h-16.8l-24.6-77.1h-.3v77h-17.4zm95.1-45.8h15.6l-7.7-53h-.3l-7.6 53zm-6.2 45.8h-18.7l20.7-123.4h24L380 388.7h-18.6l-3.5-27.4h-21l-3.5 27.4zm135-123.4v123.4h-16.7v-96.4h-.3L434 388.7h-9.3l-17.4-96.4h-.3v96.4h-16.8V265.3h25.3l13.7 72.1h.3l13.7-72.1h25.3zm35.2 77.6h15.5l-7.6-53h-.3l-7.6 53zm-6.3 45.8h-18.6l20.7-123.4h23.9L544 388.7h-18.7l-3.4-27.4h-21.1l-3.5 27.4zm72.8-64.7-20.6-58.7h19l11.8 39.1h.3l10.8-39.1h19L591 324l21.8 64.6h-19l-13-45h-.4l-13.3 45h-19l22-64.6z"/></svg>