<svg xmlns="http://www.w3.org/2000/svg" width="314" height="80"><g fill="none" fill-rule="evenodd"><path fill="#FFF" d="M242.88 61.04c-1.16 0-1.88-.56-1.88-1.88 0-1.32.72-1.92 1.88-1.92s1.88.6 1.88 1.92c0 1.32-.72 1.88-1.88 1.88Zm4.6-9.44c0-6.56 3.08-9.6 8.24-9.6 3.56 0 5.52 1.88 6.16 2.76.2.28.28.48.28.76 0 .68-.52 1.16-1.16 1.16-.4 0-.68-.16-.96-.48-.6-.68-1.68-1.88-4.32-1.88-3.68 0-5.64 2.36-5.64 7.28 0 5 1.96 7.32 5.64 7.32 2.32 0 3.72-1.04 4.64-1.72.28-.2.48-.28.76-.28.64 0 1.16.52 1.16 1.16 0 .36-.12.64-.52 1-.88.72-2.8 2.16-6.04 2.16-5.16 0-8.24-3.08-8.24-9.64Zm26.04-9.6c5.2 0 8.4 3.04 8.4 9.6s-3.2 9.64-8.4 9.64c-5.16 0-8.4-3.08-8.4-9.64 0-6.56 3.24-9.6 8.4-9.6Zm0 16.92c3.68 0 5.8-2.2 5.8-7.32 0-5.04-2.12-7.28-5.8-7.28-3.68 0-5.8 2.24-5.8 7.28 0 5.12 2.12 7.32 5.8 7.32ZM305.88 42c6.16 0 7.56 3.68 7.56 7.08v10.68c0 .72-.56 1.28-1.28 1.28s-1.28-.56-1.28-1.28V49.6c0-3.16-1.12-5.32-5-5.32-3.44 0-5 1.84-5 4.8v10.68c0 .72-.56 1.28-1.28 1.28s-1.28-.56-1.28-1.28V49.6c0-3.16-1-5.32-4.92-5.32-3.72 0-4.92 2.24-4.92 5.6v9.88c0 .72-.56 1.28-1.28 1.28s-1.28-.56-1.28-1.28V43.52c0-.72.56-1.28 1.28-1.28s1.28.56 1.28 1.28v1.28c.68-1.48 2.6-2.8 5.2-2.8 3.28 0 5.4 1.2 6.36 2.8 1-1.56 2.76-2.8 5.84-2.8ZM123.93 57.974l-7.13-25.42-7.13 25.42c-.434 1.55-1.798 2.666-3.472 2.666-1.612 0-2.976-1.054-3.41-2.48L92.186 22.634A3.243 3.243 0 0 1 92 21.518a3.599 3.599 0 0 1 3.596-3.596c1.984 0 3.1 1.426 3.41 2.48l7.254 26.04 7.068-25.916c.434-1.612 1.922-2.604 3.472-2.604s3.038.992 3.472 2.604l7.068 25.916 7.254-26.04a3.526 3.526 0 0 1 3.41-2.48 3.599 3.599 0 0 1 3.596 3.596c0 .434-.062.744-.186 1.116L130.812 58.16c-.434 1.426-1.798 2.48-3.41 2.48-1.674 0-3.038-1.116-3.472-2.666Zm28.644-23.126v22.444a3.334 3.334 0 0 1-3.348 3.348 3.334 3.334 0 0 1-3.348-3.348V34.848a3.334 3.334 0 0 1 3.348-3.348 3.334 3.334 0 0 1 3.348 3.348Zm-3.348-6.696c-2.542 0-3.968-1.488-3.968-3.906 0-2.852 1.426-4.092 3.968-4.092 2.604 0 4.03 1.24 4.03 4.092 0 2.418-1.426 3.906-4.03 3.906Zm24.18 2.976c8.432 0 10.416 5.394 10.416 10.788v15.5c0 1.86-1.488 3.224-3.348 3.224-1.984 0-3.348-1.364-3.348-3.224v-14.26c0-3.534-1.426-5.952-5.456-5.952-4.65 0-6.2 2.728-6.2 6.386v13.826c0 1.86-1.426 3.224-3.348 3.224s-3.348-1.364-3.348-3.224V34.848a3.334 3.334 0 0 1 3.348-3.348 3.334 3.334 0 0 1 3.348 3.348c1.178-1.798 3.782-3.72 7.936-3.72Zm34.41 17.422v-8.556s-2.418-3.162-6.138-3.162c-4.216 0-6.634 3.1-6.634 9.238 0 6.076 2.356 9.176 6.634 9.176 3.596 0 6.138-2.418 6.138-6.696Zm-6.82-17.422c2.976 0 5.58 1.24 6.82 2.48v-14.26A3.334 3.334 0 0 1 211.164 16a3.334 3.334 0 0 1 3.348 3.348V48.55c0 8.246-5.332 12.4-12.834 12.4-8.37 0-13.268-4.774-13.268-14.88 0-10.106 4.774-14.942 12.586-14.942Zm18.662 35.278c3.968 0 5.828-3.162 7.874-8.246l-9.548-22.01a3.46 3.46 0 0 1-.248-1.302 3.334 3.334 0 0 1 3.348-3.348c1.86 0 2.79 1.302 3.1 2.108l6.82 17.236 6.82-17.236c.31-.806 1.24-2.108 3.1-2.108a3.334 3.334 0 0 1 3.348 3.348c0 .558-.124.992-.248 1.302l-11.532 26.04c-2.728 6.076-6.634 10.416-12.834 10.416-1.798 0-3.224-1.302-3.224-3.1s1.426-3.1 3.224-3.1Z"/><g><circle cx="40" cy="40" r="32" fill="#FFF"/><path fill="#A00000" d="m36.442 59.403-.007.001a2.594 2.594 0 0 1-.349 0h-.697a3.761 3.761 0 0 1-.637-.12 4.623 4.623 0 0 1-1.235-.568 9.085 9.085 0 0 1-2.29-2.222 23.763 23.763 0 0 1-3.207-6.38 35.032 35.032 0 0 1-.994-3.389c-.07-.269-.13-.558-.19-.827l-.09-.428-.08-.41-.148-.827c-.04-.279-.13-.568-.13-.846-.349-2.253-.587-4.516-.797-6.51-.418-4.106-.656-7.554-.825-9.967l-.18-2.79-.06-.997-.02-.03v-.35a4.275 4.275 0 1 0-8.463 1.206l.14.997.418 2.83c.368 2.443.906 5.911 1.682 10.098.428 2.094.837 4.356 1.425 6.808.08.31.148.608.229.927l.258.997c.05.16.09.309.14.488l.15.479c.099.359.208.668.318.996.452 1.315.97 2.605 1.552 3.868a35.05 35.05 0 0 0 2.052 3.827 24.268 24.268 0 0 0 2.767 3.678 13.935 13.935 0 0 0 3.984 3.09 9.332 9.332 0 0 0 2.658.858c.474.077.954.113 1.434.11h.656l.678-.08c.23-.032.46-.075.686-.13.22-.05.429-.11.638-.17.21-.06.418-.13.617-.199.2-.07.4-.14.588-.23.283-.12.563-.251.838-.391a8.317 8.317 0 0 0 3.333 1.06h2.022c.229-.04.458-.08.677-.13a8.363 8.363 0 0 0 1.274-.409c.77-.319 1.5-.73 2.171-1.226a16.52 16.52 0 0 0 3.166-3.14 37.607 37.607 0 0 0 4.132-6.867c1.106-2.293 2.022-4.575 2.818-6.718a110.74 110.74 0 0 0 2.07-6.13 171.927 171.927 0 0 0 2.56-9.3c.268-1.127.478-2.013.617-2.622l.209-.926-.308.897c-.2.548-.498 1.456-.897 2.541a168.567 168.567 0 0 1-3.524 8.922 123.331 123.331 0 0 1-2.679 5.79c-1.005 2.014-2.12 4.107-3.405 6.17a34.488 34.488 0 0 1-4.4 5.812 12.638 12.638 0 0 1-2.659 2.132c-.426.248-.88.442-1.355.579a4.089 4.089 0 0 1-.636.12h-.604l.225-.23a42.473 42.473 0 0 0 5.158-6.609 74.5 74.5 0 0 0 3.813-6.647 109.434 109.434 0 0 0 2.908-6.161 103.853 103.853 0 0 0 3.594-9.489c.397-1.217.73-2.455.995-3.708a35.926 35.926 0 0 1-1.373 3.568c-.967 2.194-2.5 5.344-4.49 8.971-1.007 1.815-2.122 3.749-3.446 5.742-1.324 1.993-2.718 4.036-4.311 6.03a39.098 39.098 0 0 1-5.327 5.582c-.338.286-.687.56-1.047.82a6.757 6.757 0 0 1-.526-.99 17.814 17.814 0 0 1-1.066-3.15 36.533 36.533 0 0 1-.677-3.438 85.617 85.617 0 0 1-.427-3.47l-.16-1.713-.12-1.645c-.148-2.183-.16-4.246-.148-6.17.01-1.924.079-3.698.159-5.263s.179-2.93.269-4.057c.09-1.126.179-2.003.238-2.591l.1-.888-.02-.099v-.379a4.277 4.277 0 1 0-8.553-.18v.998c0 .657-.01 1.594 0 2.79.01 1.197.04 2.652.1 4.306.06 1.655.159 3.539.328 5.583.17 2.043.399 4.266.757 6.628l.299 1.794.169.887.18.907c.248 1.216.526 2.462.846 3.738a39.835 39.835 0 0 0 1.174 3.897 22.892 22.892 0 0 0 1.852 3.987c.139.236.284.469.436.697M40 80C17.91 80 0 62.09 0 40 0 17.908 17.91 0 40 0c22.092 0 40 17.908 40 40 0 22.09-17.908 40-40 40"/></g></g></svg>