<svg xmlns="http://www.w3.org/2000/svg" viewBox="0 0 80 80"><circle cx="40" cy="40" r="32" fill="#fff"/><path fill="#a00000" d="M36.44 59.4a2.6 2.6 0 0 1-.35 0h-.7a3.76 3.76 0 0 1-.64-.12 4.62 4.62 0 0 1-1.23-.56 9.09 9.09 0 0 1-2.3-2.23 23.76 23.76 0 0 1-3.2-6.38 35.03 35.03 0 0 1-1-3.39l-.18-.82-.1-.43-.07-.41-.15-.83c-.04-.28-.13-.56-.13-.84-.35-2.26-.59-4.52-.8-6.51-.42-4.1-.65-7.56-.82-9.97l-.18-2.79-.06-1-.02-.03v-.35a4.28 4.28 0 1 0-8.47 1.2l.14 1 .42 2.84c.37 2.44.9 5.9 1.68 10.1.43 2.09.84 4.35 1.43 6.8l.23.93.26 1 .14.48.15.48a41.38 41.38 0 0 0 1.87 4.86 35.05 35.05 0 0 0 2.05 3.83 24.27 24.27 0 0 0 2.76 3.68 13.94 13.94 0 0 0 3.99 3.1 9.33 9.33 0 0 0 2.66.85c.47.08.95.11 1.43.11h.66l.67-.08c.23-.03.46-.07.69-.13l.64-.17a11.73 11.73 0 0 0 2.04-.82 8.32 8.32 0 0 0 3.33 1.06h2.03l.67-.13a8.36 8.36 0 0 0 1.28-.4c.77-.33 1.5-.74 2.17-1.23a16.52 16.52 0 0 0 3.16-3.14 37.6 37.6 0 0 0 4.14-6.87c1.1-2.3 2.02-4.58 2.81-6.72a110.74 110.74 0 0 0 2.07-6.13 171.93 171.93 0 0 0 2.56-9.3l.62-2.62.21-.93-.3.9c-.2.55-.5 1.46-.9 2.54a168.57 168.57 0 0 1-3.53 8.92 123.33 123.33 0 0 1-2.68 5.8c-1 2-2.12 4.1-3.4 6.16a34.49 34.49 0 0 1-4.4 5.81 12.64 12.64 0 0 1-2.66 2.14c-.43.24-.88.44-1.36.58a4.09 4.09 0 0 1-.63.11h-.6l.22-.23a42.47 42.47 0 0 0 5.16-6.6 74.5 74.5 0 0 0 3.8-6.65 109.43 109.43 0 0 0 2.92-6.16 103.85 103.85 0 0 0 3.6-9.5c.39-1.2.72-2.45.99-3.7a35.93 35.93 0 0 1-1.38 3.57c-.96 2.2-2.5 5.34-4.49 8.97a83.94 83.94 0 0 1-7.76 11.77 39.1 39.1 0 0 1-5.32 5.58c-.34.29-.69.56-1.05.82a6.76 6.76 0 0 1-.52-.99 17.81 17.81 0 0 1-1.07-3.15 36.53 36.53 0 0 1-.68-3.43 85.62 85.62 0 0 1-.42-3.47l-.16-1.72-.12-1.64a114.08 114.08 0 0 1 .28-15.49l.23-2.6.1-.88-.02-.1v-.38a4.28 4.28 0 1 0-8.55-.18v3.79a156.05 156.05 0 0 0 .43 9.89c.17 2.04.4 4.26.76 6.63l.3 1.79.16.89.18.9c.25 1.22.53 2.47.85 3.74a39.84 39.84 0 0 0 1.17 3.9 22.9 22.9 0 0 0 1.86 3.99l.43.7M40 80a40 40 0 1 1 0-80 40 40 0 0 1 0 80"/></svg>