<svg xmlns="http://www.w3.org/2000/svg" width="128.462" height="128.98"><path d="M41.038 120.49c-11.253-4.657-21.285-9.292-22.292-10.3C16.17 107.615 0 68.319 0 64.634 0 60.003 16.918 20.1 19.636 18.32 23.284 15.929 61.724 0 63.844 0c3.239 0 43.497 17.006 45.77 19.335 3.28 3.36 19.66 44.216 18.817 46.936-.974 3.142-14.185 35.377-16.539 40.356-2.202 4.658-2.294 4.707-29.575 15.795-8.9 3.618-17.226 6.569-18.5 6.558-1.274-.011-11.525-3.831-22.779-8.49zm44.2-5.026c10.044-4.145 19.209-8.532 20.366-9.75C107.747 103.458 123 67.377 123 64.562c0-2.628-15.845-39.857-17.726-41.647C102.903 20.658 66.904 6 63.733 6 60.914 6 24.28 21.267 22.388 23.23 20.228 25.47 5.684 61.388 5.676 64.5c-.009 3.627 14.793 39.71 17.174 41.865 2.743 2.482 37.364 16.522 40.888 16.58 1.853.032 11.047-3.168 21.5-7.481zm-40.23-5.574c-9.07-3.82-17.033-7.495-17.696-8.167-1.783-1.81-15.318-34.712-15.278-37.14.019-1.145 3.314-9.958 7.321-19.583l7.287-17.5 15.43-6.642c24.087-10.37 19.67-10.168 39.942-1.835 9.617 3.953 18.06 7.73 18.764 8.395 1.738 1.644 15.464 34.573 15.468 37.11.005 2.838-13.172 34.561-15.307 36.85-2.072 2.222-34.397 15.66-37.382 15.54-1.131-.046-9.478-3.209-18.549-7.028zm1.917-18.351c1.554-.804 5.88-4.873 9.611-9.043 3.732-4.17 7.305-7.45 7.94-7.288.635.16 3.977 3.442 7.427 7.292C79.585 91.073 82.851 93 89.699 93c4.148 0 5.445-.4 6.266-1.934 1.11-2.074 1.498-49.696.428-52.484-.45-1.172-2.005-1.582-6-1.582H85v19.941c0 11.07-.41 20.194-.92 20.51-.507.313-4.872-3.71-9.7-8.941-4.83-5.23-9.478-9.486-10.33-9.457-.853.03-5.15 4.064-9.55 8.966-4.4 4.902-8.553 8.928-9.229 8.947-.922.025-1.296-4.888-1.5-19.716L43.5 37.5h-11l-.267 26.484c-.147 14.567-.049 27.054.219 27.75.68 1.774 10.932 1.636 14.473-.195z"/></svg>