<svg xmlns="http://www.w3.org/2000/svg" width="1653.333" height="1653.333"><path d="M1430.453 336l-139.666 486.215c-18.347 63.677-32.907 128.164-43.747 193.73v.81h-4.213c-3.76-36.426-13.654-72.582-19.76-103.611L1069.307 336H754.713L601.89 912.604c-6.105 31.03-15.994 67.455-19.75 103.61h-4.215v-.809c-10.836-65.296-25.399-130.053-43.745-193.461L395 336H172.115l65.361 228.537H0v163.78h284.03L330.56 891.02H0v164.05h377.113l74.791 262.264h266.144l180.085-687.769c5.654-25.364 10.84-53.155 12.24-72.583h4.214c1.44 18.888 6.6 47.219 12.24 72.583l180.093 687.77h266.16L1653.333 336h-222.88" fill="#246b60" fill-rule="evenodd"/></svg>