<svg xmlns="http://www.w3.org/2000/svg" fill="#34383b" width="21.714" height="21.714"><path d="M10.857 16.624a5.45 5.45 0 01-1.277-3.51l.002-8.688c0-.708.573-1.284 1.277-1.284s1.277.576 1.277 1.284l-.002 8.687a5.45 5.45 0 01-1.277 3.51zm9.58-3.51c0 3.01-2.409 5.458-5.402 5.458a5.413 5.413 0 01-3.233-1.073 6.72 6.72 0 001.61-4.386l.002-8.687a2.565 2.565 0 00-2.555-2.569 2.565 2.565 0 00-2.555 2.569l-.002 8.687c0 1.675.64 3.206 1.65 4.386a5.413 5.413 0 01-3.233 1.073c-2.993 0-5.442-2.449-5.442-5.459V2.517H0v10.597c0 3.718 3.035 6.743 6.733 6.743a6.681 6.681 0 004.164-1.458 6.587 6.587 0 004.131 1.458c3.698 0 6.686-3.025 6.686-6.744V2.517h-1.278v10.597z"/></svg>