<svg id="Layer_1" data-name="Layer 1" xmlns="http://www.w3.org/2000/svg" xmlns:xlink="http://www.w3.org/1999/xlink" viewBox="0 0 55.5 87.28"><defs><style>.cls-1{fill:url(#Web_Shield_blend);}.cls-2{fill:#282728;}.cls-3{fill:#c5050c;}.cls-4{fill:#fff;}</style><radialGradient id="Web_Shield_blend" cx="0.89" cy="17.74" r="33.44" gradientTransform="translate(27.04 24.74) scale(1.09 1.09)" gradientUnits="userSpaceOnUse"><stop offset="0.17" stop-color="#fff"/><stop offset="0.3" stop-color="#f6ede4"/><stop offset="0.69" stop-color="#debe9b"/><stop offset="0.87" stop-color="#d4ac7f"/></radialGradient></defs><title>crest</title><path class="cls-1" d="M28,87.36a3.78,3.78,0,0,1-1.05-1.16l-0.06-.09-0.11,0C8.65,81.86-1.45,54,.83,31.71a47.71,47.71,0,0,1,1.29-7.25,35.39,35.39,0,0,1,2.33-6.39,23.55,23.55,0,0,1,3.75-5.65A14.7,14.7,0,0,1,19,7.28,0.33,0.33,0,0,0,19.33,7,5.49,5.49,0,0,1,23.21,4.4l0.19,0,0-.19A4.69,4.69,0,0,1,28,.64a4.76,4.76,0,0,1,4.56,3.54l0,0.19,0.19,0A5.51,5.51,0,0,1,36.67,7a0.32,0.32,0,0,0,.37.26,14.7,14.7,0,0,1,10.77,5.13,24,24,0,0,1,4.24,6.71l0.23,0.55a42.56,42.56,0,0,1,2.89,12C57.45,54,47.35,81.86,29.23,86.08l-0.11,0-0.06.09A3.78,3.78,0,0,1,28,87.36Z" transform="translate(-0.25 -0.36)"/><path class="cls-2" d="M55.43,31.68a49.49,49.49,0,0,0-.86-5.5,39.81,39.81,0,0,0-1.39-4.93,31.29,31.29,0,0,0-2.23-4.93,22.63,22.63,0,0,0-3-4.1A14.94,14.94,0,0,0,37,7H36.94a5.77,5.77,0,0,0-4.16-2.91,4.93,4.93,0,0,0-9.56,0A5.77,5.77,0,0,0,19.06,7H19A14.94,14.94,0,0,0,8,12.23a22.63,22.63,0,0,0-3,4.1,31.29,31.29,0,0,0-2.23,4.93,39.81,39.81,0,0,0-1.39,4.93,49.49,49.49,0,0,0-.86,5.5C-1.73,54.3,8.44,82.1,26.73,86.36A3.17,3.17,0,0,0,28,87.64a3.17,3.17,0,0,0,1.27-1.28C47.56,82.1,57.73,54.3,55.43,31.68ZM28,1.23A3.9,3.9,0,0,1,31.93,4a4.86,4.86,0,0,0-3.86,2.47,0.17,0.17,0,0,1-.07.09,0.15,0.15,0,0,1-.07-0.09A4.86,4.86,0,0,0,24.07,4,3.9,3.9,0,0,1,28,1.23ZM26.14,5.52a3.51,3.51,0,0,1,1.59,2.11A0.46,0.46,0,0,0,28,8a0.46,0.46,0,0,0,.27-0.42,3.51,3.51,0,0,1,1.59-2.11,4.19,4.19,0,0,1,6,1.58,13.38,13.38,0,0,0-1.67.42,6.6,6.6,0,0,0-2.38,1.32,9.4,9.4,0,0,0-3,6.1c-0.67,7.31,7.72,6.16,8.14,6.13,1.08,0,1.9-1.71,1.9-4s-0.84-4-1.9-4c-0.65,0-1.77.52-1.88,2.55C35,17.1,35.7,19,36.6,19.11c0.47,0.06.89-.76,1-1.6s0.06-1.87-.59-2a0.38,0.38,0,0,0-.46.28A3.83,3.83,0,0,1,37,17.1c0,1.25-1.28.63-1.12-1.36C36,14,36.89,14.09,36.93,14.09c0.5,0,1.26,1,1.26,3,0,1.75-.84,3.63-2.46,2.65-1.36-1-1.89-3.28-1.52-5,0.17-.81.87-3,3.13-3,3.26,0,6.3,1.71,8.72,4.9-0.27.85-1.95,4.1-7.28,7.21l-0.29.15a11,11,0,0,0-4.93-1,27.07,27.07,0,0,0-4.64.74,4.09,4.09,0,0,1-.92.15h0a4.09,4.09,0,0,1-.92-0.15A27.07,27.07,0,0,0,22.44,23a11,11,0,0,0-4.93,1l-0.29-.15c-5.34-3.11-7-6.36-7.28-7.21,2.42-3.19,5.46-4.9,8.72-4.9,2.26,0,3,2.21,3.13,3,0.38,1.77-.16,4.05-1.52,5-1.61,1-2.46-.9-2.46-2.65,0-2,.76-3,1.26-3,0,0,.94-0.11,1.09,1.65,0.17,2-1.09,2.61-1.12,1.36a3.83,3.83,0,0,1,.39-1.34A0.38,0.38,0,0,0,19,15.48c-0.65.16-.71,1.3-0.59,2s0.56,1.66,1,1.6c0.9-.12,1.6-2,1.52-3.44-0.1-2-1.23-2.55-1.88-2.55-1.06,0-1.9,1.71-1.9,4s0.82,4,1.9,4c0.42,0,8.81,1.18,8.14-6.13a9.4,9.4,0,0,0-3-6.1,6.6,6.6,0,0,0-2.38-1.32A13.38,13.38,0,0,0,20.1,7.1,4.19,4.19,0,0,1,26.14,5.52ZM10.28,36.18A32.49,32.49,0,0,0,10,39.49a44.42,44.42,0,0,0,2,15.25,49.48,49.48,0,0,0,4.13,9.32A11.48,11.48,0,0,1,11,66.39,66.66,66.66,0,0,1,4.53,34.57,16.13,16.13,0,0,0,10.28,36.18ZM4.56,34c0.44-7.31,2.29-13.05,5-16.87,0.48,1.24,2.57,4.35,7.39,7.18-4.1,2.47-6,7.56-6.58,11.36A15.81,15.81,0,0,1,4.56,34ZM16.41,64.53c3.08,5.3,6.12,8.46,8.45,10.13A11.54,11.54,0,0,1,21.32,79c-4-2.7-7.4-7-10.07-12.13A11.81,11.81,0,0,0,16.41,64.53ZM25.33,75A12.2,12.2,0,0,0,28,76.46,12.2,12.2,0,0,0,30.67,75a12,12,0,0,0,3.53,4.34,18.69,18.69,0,0,1-3.58,1.78s0-.09,0-0.13c-0.26-1.32-2-1.59-2.61-1.59s-2.35.27-2.61,1.59c0,0,0,.09,0,0.13a18.69,18.69,0,0,1-3.58-1.78A12,12,0,0,0,25.33,75Zm5.81-.32c2.33-1.67,5.37-4.83,8.45-10.13a11.81,11.81,0,0,0,5.16,2.36C42.08,72,38.69,76.32,34.68,79A11.54,11.54,0,0,1,31.14,74.66Zm8.72-10.61A49.48,49.48,0,0,0,44,54.73a44.1,44.1,0,0,0,1.66-7.32A44.34,44.34,0,0,0,46,39.49a32.49,32.49,0,0,0-.32-3.31,16.13,16.13,0,0,0,5.75-1.61A66.66,66.66,0,0,1,45,66.39,11.48,11.48,0,0,1,39.86,64.05Zm5.78-28.4c-0.62-3.8-2.5-8.8-6.58-11.36,4.82-2.83,6.92-5.94,7.39-7.18,2.69,3.82,4.55,9.56,5,16.87A15.81,15.81,0,0,1,45.64,35.65ZM25,84.76a23.29,23.29,0,0,1-5.87-2.93,27.5,27.5,0,0,1-3.25-2.62,31.1,31.1,0,0,1-2.35-2.47q-0.76-.88-1.46-1.81a47.49,47.49,0,0,1-5.58-9.69A63.9,63.9,0,0,1,3.09,55,70.46,70.46,0,0,1,1.3,44.19a64.57,64.57,0,0,1-.07-10.84C1.4,31.43,1.63,29.5,2,27.59A39.32,39.32,0,0,1,3.4,22a31,31,0,0,1,2.1-4.86,20.93,20.93,0,0,1,3.15-4.44,16.19,16.19,0,0,1,4-3.1,13.93,13.93,0,0,1,1.93-.87q0.51-.18,1-0.32a8.82,8.82,0,0,1,1-.26,14,14,0,0,1,2.56-.21,7.58,7.58,0,0,1,3.88,1,8,8,0,0,1,3.34,6c0.39,4.52-4.21,5.23-5.11,5.22-0.14,0-.21-0.13.24-0.59a6.53,6.53,0,0,0,1-5.1c-0.44-2.07-1.9-3.69-4-3.69a11.16,11.16,0,0,0-8.12,3.89A22.78,22.78,0,0,0,6,22.61,42.69,42.69,0,0,0,3.76,34,62.43,62.43,0,0,0,4,44.63,68.71,68.71,0,0,0,5.94,55.22a60.82,60.82,0,0,0,3.53,9.85,43.36,43.36,0,0,0,5.48,9A25.89,25.89,0,0,0,23.08,81a18.15,18.15,0,0,0,2.21,1A6.71,6.71,0,0,0,26,85,6.63,6.63,0,0,1,25,84.76Zm3.29,1.55a0.6,0.6,0,0,1-.31.21,0.6,0.6,0,0,1-.31-0.21,6.49,6.49,0,0,1-1.51-5.17c0.12-.64,1.2-0.93,1.82-0.94s1.7,0.3,1.82.94A6.49,6.49,0,0,1,28.31,86.3ZM54.7,44.19A70.46,70.46,0,0,1,52.91,55a63.9,63.9,0,0,1-3.42,10.2,47.49,47.49,0,0,1-5.58,9.69q-0.7.93-1.46,1.81a31.1,31.1,0,0,1-2.35,2.47,27.5,27.5,0,0,1-3.25,2.62A23.29,23.29,0,0,1,31,84.76,6.63,6.63,0,0,1,30,85a6.71,6.71,0,0,0,.67-3.1,18.15,18.15,0,0,0,2.21-1,25.89,25.89,0,0,0,8.13-6.87,43.36,43.36,0,0,0,5.48-9,60.82,60.82,0,0,0,3.53-9.85A68.71,68.71,0,0,0,52,44.63,62.43,62.43,0,0,0,52.24,34,42.69,42.69,0,0,0,50,22.61a22.78,22.78,0,0,0-4.47-7.87,11.16,11.16,0,0,0-8.12-3.89c-2.12,0-3.58,1.62-4,3.69a6.53,6.53,0,0,0,1,5.1c0.45,0.46.38,0.59,0.24,0.59-0.9,0-5.51-.71-5.11-5.22a8,8,0,0,1,3.34-6,7.58,7.58,0,0,1,3.88-1,14,14,0,0,1,2.56.21,8.77,8.77,0,0,1,1,.26q0.52,0.14,1,.32a13.93,13.93,0,0,1,1.93.87,16.19,16.19,0,0,1,4,3.1,20.93,20.93,0,0,1,3.15,4.44A31,31,0,0,1,52.6,22,39.32,39.32,0,0,1,54,27.59c0.35,1.91.58,3.84,0.74,5.77A64.57,64.57,0,0,1,54.7,44.19Z" transform="translate(-0.25 -0.36)"/><path class="cls-3" d="M45,39.63c-0.11-2.69-.9-10.9-6.48-14.46A9.41,9.41,0,0,0,34.18,24c-2.74-.18-4.77.87-6.14,0.91H28c-1.37,0-3.42-1.09-6.16-.91a9.35,9.35,0,0,0-4.37,1.21C11.85,28.73,11.07,36.94,11,39.63a43.52,43.52,0,0,0,3.54,19C18.36,67.12,23,73.14,27.63,75.19L28,75.35l0.37-.16c4.61-2,9.27-8.06,13.14-16.57A43.53,43.53,0,0,0,45,39.63Z" transform="translate(-0.25 -0.36)"/><path class="cls-4" d="M36.3,33.18V35L36.67,35h0.18a1.17,1.17,0,0,1,.82.28,1.27,1.27,0,0,1,.21,1.11s-3.74,16.19-4.45,19.27c-0.82-3.9-5.26-25.18-5.26-25.18l0-.09H27.27v0.1L23.4,55.32,19,36.37a2.7,2.7,0,0,1,0-.28,1.27,1.27,0,0,1,.31-1A1,1,0,0,1,20,34.92l0.37,0v-1.8H14.13v1.76l0.28,0a1.16,1.16,0,0,1,.95.83L23,68.48l0,0.09h1.1v-0.1l3.56-23.3,4.53,23.31,0,0.09h1l7.25-32.78a1,1,0,0,1,1-.75h0.07l0.36,0V33.18H36.3Z" transform="translate(-0.25 -0.36)"/></svg>