<svg xmlns="http://www.w3.org/2000/svg" width="74.4" height="74.4"><g fill="#051b38"><path class="st0" d="M60.505 17.7c.3 1.9.6 3.8.9 5.6.1.7.5 1.3.8 1.9.8 1.7 1.7 3.4 2.6 5.2.8 1.6 1.5 3.1 2.3 4.7.9 1.7 1.7 3.5 2.6 5.2.3.7.7 1.4 1 2 .1.3.1.4-.1.6-1.2 1.3-24.9 30.4-25.6 31.2-.1.1-.4.3-.6.3h-14.5c-.2 0-.4-.1-.6-.2-7.2-10.4-24.6-30.3-25.6-31.4-.1-.2-.1-.3 0-.5 1.3-2.5 2.5-5.1 3.8-7.6.9-1.8 1.9-3.7 2.8-5.5.9-1.7 1.7-3.4 2.5-5.1.3-.6.3-1.2.4-1.9.4-2.2.7-4.4 1.1-6.6.3-2.2.7-4.3 1-6.5.3-1.9.6-3.7.9-5.5l.6-3.6c.6.4 1.1.7 1.6 1.1 2.5 1.8 5 3.5 7.5 5.3l7.2 5.1c.7.5 1.3 1 2.1 1.4.3.2.7.1 1.1.2.2 0 .4.1.6.2h.5c.2 0 .3-.1.5-.1.9.1 1.6-.4 2.3-.9 3.2-2.3 6.4-4.5 9.7-6.8 2.5-1.9 5.1-3.7 7.7-5.5.8 4.7 1.5 9.4 2.3 14.1m-37.3 42.3c.1.3.1.6.3.8 2.7 3.2 5.5 6.3 8.2 9.4.2.2.4.4.7.5.7.3 1.4.5 2.1.7.6.2 1.2.4 1.9.6 0-.5-.1-.9-.1-1.3 0-.2-2.5-6.6-3.4-7.5.1-.1.1-.1.2-.1.8-.3 7.9-.6 8.9-.2.2.1.4.2.7.3-.1.1-3.4 7.2-3.4 7.3-.1.5-.1.9-.1 1.4.1 0 .2 0 .3-.1 1-.3 2-.6 3-1 .5-.2 1-.3 1.3-.6 2.8-3.1 7.1-8.6 9.9-11.8.5-3.8.5-8.4.5-8.6 0 0 0-.6.1-.6.9 4.4 1 5 1.7 7.4.3-.3 2.7-2.9 2.9-3.2 2.2-2.6 4.5-5.2 6.7-7.8.1-.2.2-.3.1-.5-.6-1.4-1.1-2.7-1.7-4.1-.1-.2-.2-.4-.4-.5-1.3-.9-16.9-10.5-20-11.8-.1.1-5.9 5.9-6.1 6.2-.6-1.2-4.9-5.9-5.3-6.2-4.1 1.9-21.6 15-22.1 16.2-.3.5-.2.7.1 1 2 2.3 10.2 11.2 10.6 11.7.9-3 .7-2 2.1-6.3m33.6-30.1c-.2-.9-.3-1.8-.4-2.7-.2-1.4-.5-2.9-.7-4.3-.1-.7-.3-1.5-.4-2.3-2.2 3.9-8.3 9.5-10.4 13.3 3 1.4 14.5 9.1 17.6 10.5-.1-.5-4.8-9.1-4.9-9.6m-26-1.6c-2.2-3.8-8.4-8.8-10.5-12.6h-.1c-.8 5.1-4.1 16.1-4.9 21.3 3-1.3 12.5-7.3 15.5-8.7zM20.105 8.4h.1"/><path class="st0" d="M22.505 39.8h5.5c.2 0 .5.2.7.3 1.3 1.2 2.6 2.5 4 3.7v.1c-.4 0-.9.1-1.3.1-1.6.1-3.1.1-4.7.1-.1 0-.3-.1-.4-.2-1.1-1.2-2.1-2.3-3.2-3.5l-.6-.6zM52.005 40.1l-1.8 1.8-2.1 2.1c-.3.3-.7.2-1 .2-1.5-.1-3.1-.3-4.6-.4-.3 0-.5-.1-.9-.1.6-.5 1-.9 1.5-1.3.9-.8 1.8-1.5 2.7-2.3.3-.2.5-.3.9-.3 1.1.1 2.2.1 3.4.2.6 0 1.2 0 1.9.1z"/></g></svg>