<svg xmlns="http://www.w3.org/2000/svg" viewBox="-30 -39 257 232"><path fill="#D10" fill-rule="evenodd" d="m138 58 16-18-24-5 3-24-22 10L99 0 87 21 65 11l3 24-24 5 16 18-16 17 24 6-3 23 22-9 12 20 12-20 22 9-3-23 24-6zm8 13-14-5-9-12 12 5zm-37 21-8 14V91l8-12zM94 34l-14-5-8-12 15 7zm17-10 15-7-8 12-14 5zm16 11-7 11V31l9-12zM99 88 89 74l10-14 10 14zM81 50V32l16 6v17zm20-12 16-6v18l-16 5zm-30-3-2-16 9 12v15zm25 23-9 14-17-5 10-14zm-7 21 8 12v15l-8-14zm13-21 16-5 10 14-17 5zm46-16-13 14-14-6 8-12zM99 6l9 16-9 13-9-13zM50 42l19-4 8 12-14 6zm13 17 12-5-9 12-14 5zM53 74l14-5 15 5-13 4zm18 6 15-4v16l-17 7zm41 12V76l15 4 2 19zm17-14-13-4 15-5 14 5z"/></svg>