<svg xmlns="http://www.w3.org/2000/svg" viewBox="0 0 110 115"><path fill="#d10" d="m94 58 16-18-24-5 3-24-22 10L55 0 43 21 21 11l3 24-24 5 16 18L0 75l24 6-3 23 22-9 12 20 12-20 22 9-3-23 24-6zm8 13-14-5-9-12 12 5zM65 92l-8 14V91l8-12ZM50 34l-14-5-8-12 15 7Zm17-10 15-7-8 12-14 5Zm16 11-7 11V31l9-12ZM55 88 45 74l10-14 10 14ZM37 50V32l16 6v17Zm20-12 16-6v18l-16 5Zm-30-3-2-16 9 12v15Zm25 23-9 14-17-5 10-14Zm-7 21 8 12v15l-8-14Zm13-21 16-5 10 14-17 5Zm46-16L91 56l-14-6 8-12ZM55 6l9 16-9 13-9-13ZM6 42l19-4 8 12-14 6Zm13 17 12-5-9 12-14 5ZM9 74l14-5 15 5-13 4Zm18 6 15-4v16l-17 7Zm41 12V76l15 4 2 19zm17-14-13-4 15-5 14 5z"/></svg>
