<svg xmlns="http://www.w3.org/2000/svg" width="260" height="260" xml:space="preserve"><path fill="#3A6D9C" d="M0 0h260v260H0z"/><radialGradient id="a" cx="139.318" cy="133.322" r="87.339" gradientTransform="translate(-.314 2.224) scale(.9122)" gradientUnits="userSpaceOnUse"><stop offset="0" style="stop-color:#fff"/><stop offset=".285" style="stop-color:#ffb000"/><stop offset=".624" style="stop-color:#ff9300"/><stop offset="1" style="stop-color:#d45400"/></radialGradient><path fill="url(#a)" d="M158.36 119.062c-4.82-2.443-9.53 1.406-14.366 8.46-6.964-8.959-20.068-18.652-31.134-.42-8.276 13.636-15.36 29.5-22.063 39.646-5.146 7.762-20.487 22.09-35.459-2.917-13.32-23.271-28.601-50.479-42.238-30.629 22.915-44.689 49.542 10.026 71.048 10.026 14.803 0 38.617-53.634 67.751-41.134 7.748 3.323 13.4 11.816 14.119 31.107-.552-6.721-2.971-11.803-7.658-14.139z"/><linearGradient id="b" gradientUnits="userSpaceOnUse" x1="109.276" y1="134.339" x2="81.733" y2="176.395"><stop offset=".005" style="stop-color:#ffcf56"/><stop offset=".341" style="stop-color:#fff"/><stop offset=".453" style="stop-color:#f8d8bc"/><stop offset=".575" style="stop-color:#f1b27a"/><stop offset=".686" style="stop-color:#ec9445"/><stop offset=".781" style="stop-color:#e87e20"/><stop offset=".858" style="stop-color:#e67108"/><stop offset=".906" style="stop-color:#e56c00"/></linearGradient><path fill="url(#b)" d="M111.97 126.099c-8.278 13.631-15.359 29.507-22.07 39.646-3.995 6.046-13.782 16.741-25.172 9.038 11.579 8.306 22.001-1.897 26.07-8.035 6.702-10.146 13.786-26.01 22.063-39.646 7.844-12.946 16.725-11.813 23.718-6.87-7.054-5.228-16.583-7.373-24.609 5.867z"/><radialGradient id="c" cx="3028.458" cy="-2087.118" r="97.19" gradientTransform="matrix(.9122 0 0 -.9122 -2606.081 -1748.12)" gradientUnits="userSpaceOnUse"><stop offset="0" style="stop-color:#00d4ff"/><stop offset=".824" style="stop-color:#00417f"/><stop offset="1" style="stop-color:#000"/></radialGradient><path fill="url(#c)" d="M146.571 131.25c9.98 16.25 20.906 43.513 35.478 56.308-14.961-12.046-27.487-35.367-37.293-35.367-.031 0-.078.016-.149.016-.043 0-.101-.016-.138-.016h-.069c-.057 0-.113.016-.151.016-.051 0-.114-.016-.171-.016-14.593 0-36.318 52.115-62.194 40.974-7.725-3.331-18.635-15.265-26.579-29.377 14.988 25.07 30.348 10.726 35.494 2.96 6.702-10.146 13.786-26.01 22.063-39.646 12.662-20.872 27.997-5.174 33.709 4.148z"/><radialGradient id="d" cx="134.052" cy="131.632" r="59.94" gradientTransform="translate(-.314 2.224) scale(.9122)" gradientUnits="userSpaceOnUse"><stop offset="0" style="stop-color:#fff"/><stop offset=".212" style="stop-color:#5cd1ff"/><stop offset=".352" style="stop-color:#35a3d7"/><stop offset=".504" style="stop-color:#0f77b1"/><stop offset=".582" style="stop-color:#0066a2"/><stop offset=".755" style="stop-color:#00639e"/><stop offset=".942" style="stop-color:#005b91"/><stop offset="1" style="stop-color:#00588b"/></radialGradient><path fill="url(#d)" d="M114.902 127.102c-8.273 13.636-15.361 29.5-22.068 39.646-3.092 4.683-9.924 11.755-18.124 11.129 7.275-.553 13.245-6.828 16.088-11.129 6.702-10.146 13.786-26.01 22.063-39.646 4.914-8.117 10.238-10.678 15.254-10.274-5.622-.404-8.955 3.257-13.213 10.274z"/><linearGradient id="e" gradientUnits="userSpaceOnUse" x1="145.159" y1="124.03" x2="165.693" y2="157.99"><stop offset=".005" style="stop-color:#f4c93b"/><stop offset=".411" style="stop-color:#fff"/><stop offset="1" style="stop-color:#82ba00"/></linearGradient><path fill="url(#e)" d="M147.933 131.25c13.23 21.491 27.282 64.029 52.183 63.283-.394.01-.807.048-1.2.048-.058 0-.091 0-.151-.016-.038.016-.112.016-.152.016h-.061c-.047 0-.112 0-.159-.016-.046.016-.091.016-.17.016-23.211 0-38.28-41.592-51.65-63.331-3.427-5.604-10.352-13.52-18.075-14.393 8.33.589 15.597 8.136 19.435 14.393z"/><radialGradient id="f" cx="3142.794" cy="-1972.877" r="125.305" gradientTransform="matrix(.9122 0 0 -.9122 -2606.081 -1748.12)" gradientUnits="userSpaceOnUse"><stop offset="0" style="stop-color:#fff"/><stop offset=".31" style="stop-color:#ffe800"/><stop offset="1" style="stop-color:#bbd100"/></radialGradient><path fill="url(#f)" d="M170.314 116.585c10.147 11.068 17.14 18.084 22.883 21.048 16.403 8.442 38.133-14.607 11.236-41.2-21.381-21.131 16.469-44.604 33.581-15.6 13.651 23.172 4.367 69.245-15.032 76.775-24.933 9.647-36.421-21.623-52.668-41.023z"/><radialGradient id="g" cx="114.085" cy="152.422" r="121.53" gradientTransform="translate(-.314 2.224) scale(.9122)" gradientUnits="userSpaceOnUse"><stop offset="0" style="stop-color:#fff"/><stop offset=".31" style="stop-color:#ffca43"/><stop offset=".686" style="stop-color:#a6bf00"/><stop offset="1" style="stop-color:#70b800"/></radialGradient><path fill="url(#g)" d="M244.142 101.463c2.271 23.104-6.588 50.495-21.159 56.146-24.932 9.646-36.42-21.621-52.668-41.021-10.139-11.13-21.708-20.24-34.703-14.097-7.239 3.416-21.021 15.24-22.866 24.807 12.681-21.169 28.098-5.391 33.826 3.953 13.37 21.739 28.439 63.331 51.65 63.331.079 0 .124 0 .17-.016.047.016.112.016.159.016h.061c.04 0 .114 0 .152-.016.061.016.094.016.151.016 30.356-.001 50.118-55.02 45.227-93.119z"/><linearGradient id="h" gradientUnits="userSpaceOnUse" x1="140.265" y1="198.874" x2="162.575" y2="115.558"><stop offset="0" style="stop-color:#00d4ff"/><stop offset=".824" style="stop-color:#00417f"/><stop offset="1" style="stop-color:#000"/></linearGradient><path fill-rule="evenodd" clip-rule="evenodd" fill="url(#h)" d="M182.049 187.558c-10.658-8.567-17.847-20.408-27.583-29.854-7.811-7.573-12.344-7.197-19.655-.458-26.314 25.932 15.545-44.683-11.988-37.967 12.433-5.929 23.265 14.827 29.081 24.855 8.522 14.722 17.16 32.02 30.145 43.424"/><linearGradient id="i" gradientUnits="userSpaceOnUse" x1="215.25" y1="139.943" x2="190.769" y2="139.811"><stop offset="0" style="stop-color:#ccd208"/><stop offset=".274" style="stop-color:#bdd208"/><stop offset="1" style="stop-color:#7a9d00"/></linearGradient><path fill="url(#i)" d="M175.488 122.467c20.112 29.846 38.094 17.833 42.131 6.88-5.623 18.997 2.748 29.13-7.334 27.709-14.074-4.08-24.156-19.795-34.797-34.589z"/></svg>