<svg xmlns="http://www.w3.org/2000/svg" width="515.132" height="515.073"><defs><clipPath clipPathUnits="userSpaceOnUse" id="a"><path d="M0 524.538h524.541V0H0z"/></clipPath></defs><g clip-path="url(#a)" transform="matrix(1.33333 0 0 -1.33333 -92.128 607.229)"><path d="M262.27 69.117c106.688 0 193.175 86.477 193.175 193.151 0 106.677-86.487 193.154-193.175 193.154-106.687 0-193.174-86.477-193.174-193.153 0-106.674 86.487-193.152 193.174-193.152" fill="#fff"/><path d="M262.27 87.215c96.68 0 175.054 78.374 175.054 175.054S358.95 437.322 262.27 437.322c-96.679 0-175.054-78.374-175.054-175.053 0-96.68 78.375-175.054 175.054-175.054" fill="#00c2e8"/><path d="M233.03 307.516c-2.839.026-5.36-.094-6.61-.214-2.489-.234-3.349-2.587-3.19-4.913 2.33-33.674-5.419-72.775-13.85-72.702-6.273.06-7.868 18.374-7.722 34.656.08 9.625.708 18.89 1.012 27.077.107 3.04-.992 3.623-3.182 3.904-3.322.434-5.704.455-9.013-.247-2.528-.541-3.143-2.607-5.85-8.89-13.492-31.315-26.462-56.453-26.462-56.453-3.15 25.339 1.39 49.849 5.228 67.729.53 2.467-.635 3.93-2.66 3.916-3.819-.032-9.675-.106-12.335-1.81-2.494-1.605-3.428-3.33-4.176-6.905-4.267-20.487-7.152-46.2-3.209-66.138.854-4.312 1.84-5.334 3.646-6.478 1.807-1.142 9.595-2.22 12.62-2.245 3.434-.034 6.584.862 9.237 5.326 5.618 9.446 10.138 18.883 18.674 37.077.655-23.801 3.851-42.51 20.566-42.657 22.161-.194 36.944 55.043 37.17 81.679.065 7.045-3.422 8.227-9.894 8.288M384.127 276.843s-7.484.461-16.1.915c0 0 1.827 9.552 2.713 13.448.438 1.906-.555 3.811-2.964 4.42-2.388.601-7.894.687-9.747.493-1.542-.16-3.05-1.069-3.408-2.667-.906-3.99-1.852-8.796-2.984-14.952-3.197.107-6.306.16-8.463.141-2.012-.02-2.972-1.036-3.395-2.694-.43-1.65-.788-4.01-.947-6.457-.118-1.85 1.899-2.753 3.984-2.694 0 0 2.554.094 6.564.254-.774-3.502-2.335-12.887-2.951-18.728-3.72-12.119-11.302-21.02-17.767-20.96-3.957.032-6.3 2.405-6.24 9.53.085 9.872 2.461 22.332 5.875 34.81 4.758 11.183 7.55 23.635 7.597 29.29.02 2.125-.61 4.511-3.15 5.04-4.593.956-8.967.822-12.037-.1-2.746-.829-3.328-3.703-3.673-5.235-1.647-7.365-4.346-20.418-6.26-31.869-4.062-4.839-8.72-8.22-13.73-9.016-.648 15.186-9.423 21.783-21.592 21.89-21.367.194-35.15-18.728-35.336-40.097-.152-17.312 9.231-24.612 22.982-24.739 16.232-.14 28.414 11.277 33.106 32.365 4.606.895 8.61 3.094 12.076 6.163 0 0-2.7-13.068-2.766-20.754-.106-11.65 4.843-18.188 16.583-18.288 9.661-.086 18.15 6.651 23.491 14.886 1.323-10.829 6.934-15.16 16.112-15.24 8.431-.074 16.597 5.2 22.42 14.825 1.164 1.918 2.011 3.603 1.297 4.445-1.654 1.931-4.824 2.954-5.71 1.37-3.852-6.898-7.94-9.658-12.375-9.618-3.508.026-6.326 2.138-6.273 8.221.073 8.756 5.208 32.377 5.208 32.377 4.334.121 9.151.228 13.73.287 4.017.061 6.868 1.258 7.597 5.068.43 2.266-.887 3.73-3.468 3.87m-118.52-50.585c-4.917.04-8.166 4.312-8.093 12.72.14 16.128 6.028 33.427 16.338 33.333 1.158-.007 2.183-.174 3.09-.54a24.287 24.287 0 01-.35-1.425c-1.622-9.138.211-14.98 4.552-18.24-2.356-14.144-8.72-25.908-15.538-25.848" fill="#fff"/></g></svg>