<svg xmlns="http://www.w3.org/2000/svg" viewBox="0 0 231.8 127.4"><defs><radialGradient id="a" cx="206" cy="22" r="87.3" fx="206" fy="22" gradientTransform="matrix(.91 0 0 -.91 -74.3 76.6)" gradientUnits="userSpaceOnUse"><stop offset="0" stop-color="#fff"/><stop offset=".3" stop-color="#ffb000"/><stop offset=".6" stop-color="#ff9300"/><stop offset="1" stop-color="#d45400"/></radialGradient><radialGradient id="c" cx="3095.2" cy="3139.2" r="97.2" fx="3095.2" fy="3139.2" gradientTransform="matrix(.91 0 0 .91 -2680 -2775.1)" gradientUnits="userSpaceOnUse"><stop offset="0" stop-color="#00d4ff"/><stop offset=".8" stop-color="#00417f"/><stop offset="1"/></radialGradient><radialGradient id="d" cx="200.7" cy="23.7" r="59.9" fx="200.7" fy="23.7" gradientTransform="matrix(.91 0 0 -.91 -74.3 76.6)" gradientUnits="userSpaceOnUse"><stop offset="0" stop-color="#fff"/><stop offset=".2" stop-color="#5cd1ff"/><stop offset=".3" stop-color="#35a3d7"/><stop offset=".5" stop-color="#0f77b1"/><stop offset=".6" stop-color="#0066a2"/><stop offset=".8" stop-color="#00639e"/><stop offset=".9" stop-color="#005b91"/><stop offset="1" stop-color="#00588b"/></radialGradient><radialGradient id="f" cx="3209.5" cy="3024.9" r="125.3" fx="3209.5" fy="3024.9" gradientTransform="matrix(.91 0 0 .91 -2680 -2775.1)" gradientUnits="userSpaceOnUse"><stop offset="0" stop-color="#fff"/><stop offset=".3" stop-color="#ffe800"/><stop offset="1" stop-color="#bbd100"/></radialGradient><radialGradient id="g" cx="180.8" cy="2.9" r="121.5" fx="180.8" fy="2.9" gradientTransform="matrix(.91 0 0 -.91 -74.3 76.6)" gradientUnits="userSpaceOnUse"><stop offset="0" stop-color="#fff"/><stop offset=".3" stop-color="#ffca43"/><stop offset=".7" stop-color="#a6bf00"/><stop offset="1" stop-color="#70b800"/></radialGradient><linearGradient id="b" x1="96.2" x2="68.6" y1="60.4" y2="18.3" gradientTransform="matrix(1 0 0 -1 0 127.4)" gradientUnits="userSpaceOnUse"><stop offset="0" stop-color="#ffcf56"/><stop offset=".3" stop-color="#fff"/><stop offset=".5" stop-color="#f8d8bc"/><stop offset=".6" stop-color="#f1b27a"/><stop offset=".7" stop-color="#ec9445"/><stop offset=".8" stop-color="#e87e20"/><stop offset=".9" stop-color="#e67108"/><stop offset=".9" stop-color="#e56c00"/></linearGradient><linearGradient id="e" x1="132.1" x2="152.6" y1="70.7" y2="36.7" gradientTransform="matrix(1 0 0 -1 0 127.4)" gradientUnits="userSpaceOnUse"><stop offset="0" stop-color="#f4c93b"/><stop offset=".4" stop-color="#fff"/><stop offset="1" stop-color="#82ba00"/></linearGradient><linearGradient id="h" x1="127.2" x2="149.5" y1="-4.2" y2="79.2" gradientTransform="matrix(1 0 0 -1 0 127.4)" gradientUnits="userSpaceOnUse"><stop offset="0" stop-color="#00d4ff"/><stop offset=".8" stop-color="#00417f"/><stop offset="1"/></linearGradient><linearGradient id="i" x1="202.2" x2="177.7" y1="54.8" y2="54.9" gradientTransform="matrix(1 0 0 -1 0 127.4)" gradientUnits="userSpaceOnUse"><stop offset="0" stop-color="#ccd208"/><stop offset=".3" stop-color="#bdd208"/><stop offset="1" stop-color="#7a9d00"/></linearGradient></defs><path fill="url(#a)" d="M145.3 51.8c-4.9-2.5-9.6 1.4-14.4 8.4-7-9-20-18.6-31.1-.4-8.3 13.7-15.4 29.5-22.1 39.7-5.2 7.7-20.5 22-35.5-3C29 73.3 13.6 46.1 0 66c23-44.7 49.5 10 71 10 14.8 0 38.7-53.6 67.8-41 7.8 3.2 13.4 11.7 14.1 31-.5-6.7-3-11.8-7.6-14.1Z"/><path fill="url(#b)" d="M98.9 58.8c-8.3 13.6-15.4 29.5-22.1 39.7-4 6-13.8 16.7-25.2 9 11.6 8.3 22-1.9 26.1-8 6.7-10.2 13.8-26 22-39.7 7.9-13 16.8-11.8 23.8-6.9-7-5.2-16.6-7.3-24.6 6"/><path fill="url(#c)" d="M133.5 64c10 16.2 20.9 43.5 35.4 56.3-15-12-27.4-35.4-37.2-35.4h-.7c-14.6 0-36.3 52.1-62.2 41-7.7-3.4-18.6-15.3-26.6-29.4 15 25 30.4 10.7 35.5 3 6.7-10.2 13.8-26 22-39.7 12.7-20.9 28-5.2 33.8 4.2"/><path fill="url(#d)" d="M101.8 59.8c-8.3 13.7-15.4 29.5-22 39.7-3.2 4.6-10 11.7-18.2 11 7.3-.5 13.3-6.7 16.1-11 6.7-10.2 13.8-26 22-39.7 5-8.1 10.3-10.7 15.3-10.3-5.6-.4-9 3.3-13.2 10.3"/><path fill="url(#e)" d="M134.8 64c13.3 21.4 27.3 64 52.2 63.2h-1.9c-23.2 0-38.3-41.5-51.6-63.2-3.5-5.6-10.4-13.6-18.1-14.4 8.3.6 15.6 8.1 19.4 14.4"/><path fill="url(#f)" d="M157.2 49.3c10.2 11 17.2 18 22.9 21 16.4 8.5 38.1-14.6 11.2-41.2-21.3-21 16.5-44.6 33.6-15.6 13.7 23.2 4.4 69.3-15 76.8-25 9.7-36.4-21.6-52.7-41"/><path fill="url(#g)" d="M231 34.2c2.3 23-6.6 50.5-21.1 56.1-25 9.7-36.4-21.6-52.7-41-10.1-11.1-21.7-20.2-34.7-14.1-7.2 3.4-21 15.2-22.9 24.8 12.7-21.2 28.1-5.4 33.9 4 13.3 21.7 28.4 63.3 51.6 63.3h.7c30.4 0 50.1-55 45.2-93.1"/><path fill="url(#h)" fill-rule="evenodd" d="M169 120.3c-10.7-8.6-17.9-20.4-27.6-29.9-7.8-7.6-12.4-7.2-19.7-.4-26.3 25.9 15.6-44.7-12-38 12.5-6 23.3 14.8 29.1 24.8 8.5 14.8 17.2 32 30.2 43.5"/><path fill="url(#i)" d="M162.4 55.2c20.1 29.8 38 17.8 42.1 6.9-5.6 19 2.8 29-7.3 27.7-14-4.1-24.2-19.8-34.8-34.6"/></svg>