<svg xmlns="http://www.w3.org/2000/svg" width="97pt" height="97pt" viewBox="0 0 97 97"><defs><clipPath id="a"><path d="M25 0h58v96.57H25zm0 0"/></clipPath></defs><path d="M4.525 90.727h87.95V5.582H4.525zm0 0" fill="#a6a8ab"/><path d="M9.158 86.809h78.965V9.305H9.158zm0 0" fill="#05683f"/><path d="M13.357 82.332h71.446V12.148H13.357zm0 0" stroke="#05663d" stroke-width="3.013" stroke-miterlimit="10"/><path d="M73.064 78.64s-1.136 4.579-3.761 4.579c0 0 2.668-5.676 3.41-13.625 0 0 .21-.828.723-6.14 0 0-16.954 9.847-19.13 9.632 0 0 1.29-.887 1.274-1.047 0 0-.96.188-1.934.996l1.047-1.195s-2.312 1.734-2.918 1.637l2.32-1.836s-1.132.347-3.745 1.8l1.644-1.812-1.262.758-.02-.39-1.066.71 1.243-1.273s-.399-.262 5.777-4.016c0 0 .398-.586 2.73-2.262 0 0 2.516-1.203 2.329-1.703l-1.325.422 1.141-1.062s.105-.665-1.777.585c0 0 0-.613.797-1.355 0 0-.98-.133-2.25.527 0 0 .949-1.3 1.085-1.328 0 0-.082-.32-1.832 1.012l-.476-.508s.27-1.121 1.855-1.89c0 0 6.465-2.872 7.102-5.106 0 0-.106-.16-.98.371 0 0 1.296-1.539-.528-.394 0 0 1.164-1.602-1.246-.114 0 0 .848-1.46-.664-.37 0 0 .797-1.68-1.086-.212 0 0 4.426-4.234 8.344-5.965 0 0 .851-.851-1.27 0 0 0 1.563-1.757-1.008.293 0 0 1.563-2.476-.343-.504l-.106-.402-.289.348-.32-.453.422-.641-.793.402-.426-.402s-.266-.93 6.254-6.066l-.488-.04.238-.46-.863.425.523-1.043-1.074.555-.735-.215.254-.715-1.132.61s-1.133-.168-.18-.899c0 0 6.18-4.066 7.34-6.867 0 0-1.207.153-2.094.082-.078-.008.074-.148 0-.156-.055-.004-.16.066-.211.062-.195-.015-.305-.097-.426-.167-.12-.07-.426-.036-.426-.16 0 0 5.704-6.532 6.461-6.637 0 0 .938.836.32 4.882 0 0-.175 1.098 2.508 1.098l-3.34 5.8s.11 1.032 2.243 1.278l-3.778 4.633 2.81 2.219-3.235 4.152s2.086 2.055 2.668 1.934l-4.133 5.343s-.461 1.028 2.578 1.149l-2.031 3.02s.375.312 1.191.277c.324-.012 1.527-.453 1.738-.906.07-.165-.28.554-.082.476.254-.098.52-.25.809-.414 0 0-2.84 16.852-.457 20.957l-.547-.324-.476-.543-.086.367-.313-.55-.351.542s-.922-1.226-.481-3.023c0 0-.637.672-.441 1.836l-.61-1.848-.101.934-.903-1.028-1.46 2.942M30.846 78.977s-1.192 4.593-3.934 4.593c0 0 2.79-5.691 3.563-13.664 0 0 .218-.828.757-6.156 0 0-17.714 9.875-19.988 9.66 0 0 1.352-.89 1.332-1.05 0 0-1.004.187-2.02.995l1.098-1.199S9.236 73.898 8.6 73.805l2.425-1.844s-1.18.348-3.91 1.805l1.715-1.817-1.32.758-.02-.394-1.113.714 1.3-1.273s-.417-.266 6.036-4.031c0 0 .414-.582 2.848-2.266 0 0 2.632-1.207 2.437-1.707l-1.383.426 1.188-1.067s.113-.668-1.856.586c0 0 0-.617.836-1.36 0 0-1.027-.132-2.355.532 0 0 .996-1.304 1.133-1.332 0 0-.082-.32-1.91 1.016l-.497-.512s.278-1.125 1.938-1.894c0 0 6.754-2.88 7.418-5.122 0 0-.11-.16-1.024.372 0 0 1.356-1.54-.554-.395 0 0 1.218-1.605-1.301-.113 0 0 .887-1.465-.692-.371 0 0 .829-1.684-1.136-.215 0 0 4.625-4.242 8.718-5.977 0 0 .887-.855-1.328 0 0 0 1.633-1.761-1.05.293 0 0 1.632-2.484-.36-.508l-.11-.402-.304.348-.332-.45.442-.644-.829.402-.445-.402s-.277-.934 6.531-6.086l-.511-.04.25-.46-.903.43.547-1.051-1.117.555-.77-.215.262-.711-1.183.605s-1.18-.164-.188-.898c0 0 6.457-4.074 7.672-6.887 0 0-1.262.152-2.191.086-.079-.012.078-.148 0-.156-.055-.008-.168.062-.22.058-.202-.011-.32-.097-.445-.168-.125-.066-.445-.035-.445-.16 0 0 5.961-6.547 6.754-6.652 0 0 .977.836.332 4.894 0 0-.184 1.102 2.617 1.102l-3.484 5.816s.11 1.032 2.34 1.282l-3.946 4.644 2.934 2.223-3.375 4.164s2.176 2.062 2.781 1.937l-4.312 5.36s-.48 1.031 2.691 1.152l-2.12 3.028s.39.312 1.241.28c.34-.011 1.594-.456 1.813-.913.078-.16-.29.558-.082.48.265-.098.543-.25.847-.414 0 0-2.972 16.899-.48 21.012l-.57-.324-.5-.543-.09.367-.324-.551-.372.543s-.957-1.23-.496-3.031c0 0-.668.676-.46 1.84l-.641-1.852-.106.934-.941-1.032-1.527 2.954" fill="#a6a8ab"/><g clip-path="url(#a)" transform="translate(-10.611 .215)"><path d="M66.688 88.969s-1.989 7.601-6.57 7.601c0 0 4.655-9.422 5.952-22.613 0 0 .368-1.375 1.262-10.187 0 0-29.61 16.343-33.406 15.988 0 0 2.254-1.473 2.222-1.738 0 0-1.68.308-3.375 1.648l1.832-1.984s-4.039 2.886-5.101 2.726l4.055-3.05s-1.973.574-6.54 2.988l2.868-3.004-2.207 1.25-.028-.645-1.867 1.176 2.176-2.105s-.695-.442 10.086-6.668c0 0 .695-.97 4.766-3.754 0 0 4.394-1.989 4.07-2.828l-2.313.707 1.989-1.766s.183-1.102-3.098.973c0 0 0-1.02 1.387-2.254 0 0-1.711-.223-3.934.882 0 0 1.668-2.164 1.899-2.207 0 0-.141-.53-3.192 1.676l-.832-.84s.461-1.855 3.234-3.132c0 0 11.29-4.774 12.403-8.48 0 0-.184-.267-1.711.616 0 0 2.265-2.547-.926-.652 0 0 2.035-2.66-2.176-.184 0 0 1.48-2.43-1.156-.617 0 0 1.387-2.785-1.898-.355 0 0 7.726-7.02 14.574-9.895 0 0 1.484-1.41-2.219 0 0 0 2.73-2.914-1.762.488 0 0 2.73-4.109-.597-.84l-.184-.663-.512.574-.554-.75.742-1.059-1.39.664-.743-.664s-.46-1.547 10.922-10.07l-.86-.067.419-.761-1.5.707.91-1.735-1.871.918-1.286-.355.438-1.18-1.977 1.008s-1.976-.281-.312-1.492c0 0 10.789-6.746 12.824-11.395 0 0-2.113.254-3.664.137-.133-.008.129-.242 0-.254-.094-.012-.281.102-.367.094-.34-.02-.535-.156-.742-.274-.215-.113-.75-.062-.75-.265 0 0 9.965-10.836 11.293-11.008 0 0 1.632 1.383.554 8.098 0 0-.308 1.816 4.38 1.816l-5.829 9.633s.184 1.707 3.914 2.113l-6.597 7.692 4.902 3.68-5.645 6.886s3.64 3.418 4.657 3.21l-7.215 8.864s-.805 1.707 4.5 1.914l-3.543 5.004s.648.52 2.074.465c.57-.02 2.668-.758 3.035-1.512.125-.265-.488.926-.144.797.449-.168.914-.418 1.418-.691 0 0-4.965 27.972-.801 34.773l-.95-.531-.84-.902-.144.609-.55-.914-.614.898s-1.605-2.03-.836-5.02c0 0-1.113 1.118-.77 3.048l-1.066-3.063-.18 1.551-1.57-1.707-2.554 4.883" fill="#05683f"/></g></svg>