<svg xmlns="http://www.w3.org/2000/svg" xml:space="preserve" viewBox="0 0 517.6 468.34"><g clip-path="url(#a)" transform="translate(387.55 368.14)"><linearGradient id="b" x1="158.079" x2="159.079" y1="620.505" y2="620.505" gradientTransform="scale(-167.2 167.2) rotate(-13.133 -2608.192 1014.286)" gradientUnits="userSpaceOnUse"><stop offset="0%" stop-color="#219b49"/><stop offset="12.09%" stop-color="#219b4a"/><stop offset="100%" stop-color="#a6d93d"/></linearGradient><clipPath id="a"><path stroke-linecap="round" d="M505.6 394c-11.6 0-22.7-1.4-33-4.1-17.1 23.5-39.2 43.9-64.8 57.8 22.6 12.3 48 19.6 75 19.6 103.6 0 174.2-107.8 182.5-199.4C662.1 280 640.8 394 505.6 394z" transform="translate(-536.55 -367.6)"/></clipPath><path fill="url(#b)" d="M505.6 394c-11.6 0-22.7-1.4-33-4.1-17.1 23.5-39.2 43.9-64.8 57.8 22.6 12.3 48 19.6 75 19.6 103.6 0 174.2-107.8 182.5-199.4C662.1 280 640.8 394 505.6 394" transform="translate(-536.55 -367.6)" vector-effect="non-scaling-stroke"/></g><g clip-path="url(#c)" transform="translate(412.8 251.54)"><linearGradient id="d" x1="156.671" x2="157.671" y1="620.569" y2="620.569" gradientTransform="matrix(0 367.89 367.89 0 -227738.66 -57608.43)" gradientUnits="userSpaceOnUse"><stop offset="0%" stop-color="#31ad45"/><stop offset="74.73%" stop-color="#a6d93d"/><stop offset="100%" stop-color="#a6d93d"/></linearGradient><clipPath id="c"><path stroke-linecap="round" d="M531.4 107.6c-49.9 0-73.9 28.9-73.9 28.9 51.5 5.2 114.7 41.5 114.7 116.7 0 73-47.9 106.2-87 117.3-3.8 6.7-8.2 13.5-12.8 19.8 9.2 2.8 21.6 4.1 33.2 4.1 135.1 0 156.5-114.3 159.7-126.4.6-6.2.8-12.2.8-18.2.1-102.8-78.4-142.2-134.7-142.2z" transform="translate(-561.8 -251)"/></clipPath><path fill="url(#d)" d="M531.4 107.6c-49.9 0-73.9 28.9-73.9 28.9 51.5 5.2 114.7 41.5 114.7 116.7 0 73-47.9 106.2-87 117.3-3.8 6.7-8.2 13.5-12.8 19.8 9.2 2.8 21.6 4.1 33.2 4.1 135.1 0 156.5-114.3 159.7-126.4.6-6.2.8-12.2.8-18.2.1-102.8-78.4-142.2-134.7-142.2" transform="translate(-561.8 -251)" vector-effect="non-scaling-stroke"/></g><g clip-path="url(#e)" transform="translate(117.7 251.34)"><linearGradient id="f" x1="156.671" x2="157.671" y1="620.569" y2="620.569" gradientTransform="matrix(0 367.5 367.5 0 -227795.53 -57548.11)" gradientUnits="userSpaceOnUse"><stop offset="0%" stop-color="#31ad45"/><stop offset="74.73%" stop-color="#a6d93d"/><stop offset="100%" stop-color="#a6d93d"/></linearGradient><clipPath id="e"><path stroke-linecap="round" d="M310.1 394c28.7 0 53.8-8.8 73.8-22.8-6.9 2.1-15.3 3.8-23.8 3.8-38.1 0-116.6-28.2-116.6-121.8 0-75.2 63.2-111.5 114.7-116.7 0 0-24-28.9-73.9-28.9-56.3 0-134.8 39.4-134.8 142.2 0 6 .3 12 .8 18.2 3.3 12.1 24.3 126 159.8 126z" transform="translate(-266.7 -250.8)"/></clipPath><path fill="url(#f)" d="M310.1 394c28.7 0 53.8-8.8 73.8-22.8-6.9 2.1-15.3 3.8-23.8 3.8-38.1 0-116.6-28.2-116.6-121.8 0-75.2 63.2-111.5 114.7-116.7 0 0-24-28.9-73.9-28.9-56.3 0-134.8 39.4-134.8 142.2 0 6 .3 12 .8 18.2 3.3 12.1 24.3 126 159.8 126" transform="translate(-266.7 -250.8)" vector-effect="non-scaling-stroke"/></g><g clip-path="url(#g)" transform="translate(208.15 289.99)"><linearGradient id="h" x1="156.332" x2="157.332" y1="620.129" y2="620.129" gradientTransform="matrix(0 181.03 181.03 0 -111904.05 -28099.83)" gradientUnits="userSpaceOnUse"><stop offset="0%" stop-color="#219b49"/><stop offset="18.68%" stop-color="#219b49"/><stop offset="78.02%" stop-color="#a6d93d"/><stop offset="100%" stop-color="#a6d93d"/></linearGradient><clipPath id="g"><path stroke-linecap="round" d="M361.1 376.9c8.5 0 16.1-1.3 22.8-5.7 9.2-6.5 17.4-14 24.4-22.4-4.8-6-26.9-35.9-26.9-75.9 0-37.4 20.1-53.4 26.7-57.7C394.3 205 378.8 202 370 202c-14.2 0-52.6 9.7-61.7 53.6v.1c-.3 1.8-.6 3.5-.9 5.3-.9 7.3-1.4 15.4-1.4 24.3 0 35.2 16 68.6 27.7 87.9 10.1 2.5 19.6 3.7 27.4 3.7z" transform="translate(-357.15 -289.45)"/></clipPath><path fill="url(#h)" d="M361.1 376.9c8.5 0 16.1-1.3 22.8-5.7 9.2-6.5 17.4-14 24.4-22.4-4.8-6-26.9-35.9-26.9-75.9 0-37.4 20.1-53.4 26.7-57.7C394.3 205 378.8 202 370 202c-14.2 0-52.6 9.7-61.7 53.6v.1c-.3 1.8-.6 3.5-.9 5.3-.9 7.3-1.4 15.4-1.4 24.3 0 35.2 16 68.6 27.7 87.9 10.1 2.5 19.6 3.7 27.4 3.7" transform="translate(-357.15 -289.45)" vector-effect="non-scaling-stroke"/></g><g clip-path="url(#i)" transform="translate(181.9 317.84)"><linearGradient id="j" x1="157.145" x2="158.145" y1="621.343" y2="621.343" gradientTransform="scale(527.67 -527.67) rotate(75.153 483.154 208.485)" gradientUnits="userSpaceOnUse"><stop offset="0%" stop-color="#219b49"/><stop offset="5.495%" stop-color="#219b4a"/><stop offset="52.2%" stop-color="#a6d93d"/><stop offset="100%" stop-color="#a6d93d"/></linearGradient><clipPath id="i"><path stroke-linecap="round" d="M408.6 167.3c-62.6 0-92.3 46-100.3 88.3 9.1-43.9 47.3-52.5 58.2-53 13.5-.7 26.8 2.7 41.6 12.7 15 11.2 27.9 30.1 27.9 60.2 0 25.7-10 52-27.7 73.3-22.2 26.6-56.4 45.2-98.2 45.2-135.5 0-156.5-113.9-159.8-126.1 8.3 91.6 78.9 199.4 182.6 199.4 101.2 0 178.6-102.2 178.6-187.7-.1-59.3-33.8-112.3-102.9-112.3z" transform="translate(-330.9 -317.3)"/></clipPath><path fill="url(#j)" d="M408.6 167.3c-62.6 0-92.3 46-100.3 88.3 9.1-43.9 47.3-52.5 58.2-53 13.5-.7 26.8 2.7 41.6 12.7 15 11.2 27.9 30.1 27.9 60.2 0 25.7-10 52-27.7 73.3-22.2 26.6-56.4 45.2-98.2 45.2-135.5 0-156.5-113.9-159.8-126.1 8.3 91.6 78.9 199.4 182.6 199.4 101.2 0 178.6-102.2 178.6-187.7-.1-59.3-33.8-112.3-102.9-112.3" transform="translate(-330.9 -317.3)" vector-effect="non-scaling-stroke"/></g><g clip-path="url(#k)" transform="translate(325.96 66.67)"><linearGradient id="l" x1="156.878" x2="157.878" y1="621.891" y2="621.891" gradientTransform="scale(219.55 -219.55) rotate(44.627 837.784 121.644)" gradientUnits="userSpaceOnUse"><stop offset="0%" stop-color="#55b83b"/><stop offset="100%" stop-color="#a6d93d"/></linearGradient><clipPath id="k"><path stroke-linecap="round" d="M410.4 132.3s-21.6-20.8-23.1-49.1c-1.1-20.6 7.2-52.1 39.9-69.5 76.3-40.8 142.6 18.6 134.9 57 0 0-56.8-25.8-109.1 5.1-38.5 22.8-42.6 56.5-42.6 56.5z" transform="translate(-474.96 -66.13)"/></clipPath><path fill="url(#l)" d="M410.4 132.3s-21.6-20.8-23.1-49.1c-1.1-20.6 7.2-52.1 39.9-69.5 76.3-40.8 142.6 18.6 134.9 57 0 0-56.8-25.8-109.1 5.1-38.5 22.8-42.6 56.5-42.6 56.5" transform="translate(-474.96 -66.13)" vector-effect="non-scaling-stroke"/></g></svg>