<svg xmlns="http://www.w3.org/2000/svg" width="26" height="26"><path d="M1.719 13c0 4.466 2.596 8.324 6.357 10.153L2.696 8.408A11.24 11.24 0 001.719 13zM13 24.281v-.001c1.314 0 2.573-.226 3.747-.637-.03-.05-.057-.1-.08-.156l-3.468-9.498-3.384 9.834c1.008.299 2.078.458 3.185.458zm1.555-16.57l4.078 12.128 1.125-3.76c.486-1.56.857-2.682.857-3.647 0-1.395-.5-2.36-.929-3.111-.572-.93-1.108-1.716-1.108-2.645 0-1.04.786-2.004 1.894-2.004.05 0 .097.007.146.01A11.236 11.236 0 0013 1.718a11.266 11.266 0 00-9.424 5.086c.265.009.513.013.726.013 1.18 0 3.006-.143 3.006-.143.608-.035.68.858.073.931 0 0-.612.07-1.292.106l4.11 12.221 2.468-7.403-1.757-4.818c-.396-.024-.79-.06-1.184-.108-.607-.035-.538-.964.07-.93 0 0 1.865.143 2.973.143 1.18 0 3.006-.144 3.006-.144.608-.034.68.859.072.932 0 0-.612.07-1.292.106zm4.115 15.04v.001a11.275 11.275 0 005.61-9.75c0-1.962-.502-3.807-1.383-5.413.049.36.076.745.076 1.16 0 1.147-.214 2.431-.857 4.04zM13 26C5.82 26 0 20.18 0 13S5.82 0 13 0s13 5.82 13 13-5.82 13-13 13z" fill="#0085be"/></svg>