<svg xmlns="http://www.w3.org/2000/svg" fill="#218dc1" viewBox="0 0 49.618 39.1"><path d="m24.864 7.5 2.6 5.7v.1h-.9v.3c0 .3-.1.5-.2.8-.1.1-.1.2-.2.3 0 0-.1 1.2-.1 3.5 0 1.4.1 3.4.2 5.6 2.7.2 5.2.5 7.5.9v-9.6h-.7l1.7-3.8 1.7 3.8h-.7v10c2.5.5 4.6 1.1 6.5 1.7v-8.4h-.7l1.7-3.8 1.7 3.8h-.7v9.1c2.2.8 3.9 1.6 4.9 2.1 1.5-12.1-1.2-22.6-1.2-22.6-12.2-.4-23.1-7-23.1-7zm19.5 22.1v9.5h2.8c.4-1.3.8-2.7 1-4 .4-1.3.6-2.4.7-3.2v-.1c-.5-.5-2.1-1.3-4.5-2.2zm-8.5-2.6v12h6.6V28.8c-1.9-.6-4.1-1.2-6.6-1.8zm-2 12V26.6c-2.3-.4-4.7-.7-7.3-.9 0 0 .2 1.4.2 1.6.4 3.1 1.2 7.9 2.1 11.7h4.1zm-13 0c.8-3.8 1.7-8.6 2.1-11.7 0-.2.2-1.5.2-1.6-2.7.2-5.1.5-7.3.9V39h5c.1 0 .1 0 0 0 .1 0 .1 0 0 0z"/><path d="M5.264 27.4v-9.1h-.7l1.7-3.8 1.7 3.8h-.7v8.4c1.9-.6 4.1-1.2 6.5-1.7V15h-.7l1.7-3.8 1.7 3.8h-.7v9.6c2.3-.4 4.8-.7 7.5-.9.2-2.2.2-4.3.2-5.6 0-2.3-.1-3.5-.1-3.5-.1-.1-.1-.2-.2-.3-.1-.2-.2-.5-.2-.8v-.3h-.9v-.1l2.8-5.6V0s-10.9 6.5-23.2 6.9c0 0-2.6 10.5-1.3 22.6 1-.5 2.7-1.2 4.9-2.1zm2 1.4V39h6.6V27c-2.6.6-4.8 1.2-6.6 1.8zm-6.7 2.9v.1c.1.8.4 1.9.7 3.2s.6 2.7 1 4h2.8v-9.5c-2.2 1-3.8 1.8-4.5 2.2z"/></svg>