<svg xmlns="http://www.w3.org/2000/svg" viewBox="0 0 135.1 143.8" fill="#20252d"><path d="M122.1 101.5c-1.9 2.3-5.3 5.7-10.8 5.7-7.7 0-10.1-5.5-12.5-11.3L87.3 67.6 75.8 95.9c-2 4.8-4.1 11.4-12.5 11.4s-10.5-6.5-12.5-11.4L31.5 48.3h16.3l15.5 39.2 11.6-28.6c1.8-4.5 4-11.4 12.4-11.4s10.6 6.8 12.4 11.4l12.6 30.9c5.1-7.7 8-16.8 8-26.7 0-26.7-21.7-48.4-48.4-48.4-15.3 0-29.6 5.9-40.4 16.7-10.8 10.9-16.7 25.2-16.7 40.5s6 29.6 16.7 40.4C42.3 123.1 56.7 129 71.9 129c5.2 0 10.4-.7 15.4-2.1v15.2c-5.1 1.1-10.2 1.7-15.4 1.7-9.7 0-19.2-1.9-28-5.7-8.6-3.6-16.2-8.8-22.8-15.4S9.3 108.4 5.7 99.9C1.9 91 0 81.6 0 71.9s1.9-19.1 5.7-28c3.6-8.6 8.8-16.2 15.4-22.8S35.4 9.3 43.9 5.7C52.8 1.9 62.2 0 71.9 0c34.9 0 63.2 28.3 63.2 63.2 0 14.4-4.9 27.7-13 38.3z"/></svg>