<svg xmlns="http://www.w3.org/2000/svg" viewBox="0 0 33.19 35.34"><path fill="#4526ce" d="M33.19 15.52C33.19 6.94 26.23 0 17.67 0A17.64 17.64 0 0 0 5.18 5.19 17.6 17.6 0 0 0 0 17.68a17.58 17.58 0 0 0 5.18 12.49 17.55 17.55 0 0 0 12.5 5.18c2.39 0 4.49-.44 6.5-1.23l-1.34-3.37A14 14 0 0 1 3.63 17.7 14 14 0 0 1 17.67 3.66a11.89 11.89 0 0 1 9.92 18.44l-3.09-7.61c-.45-1.12-1-2.79-3.05-2.79s-2.6 1.69-3.04 2.79l-2.84 7.02-3.82-9.63H7.74l4.75 11.71c.48 1.18 1.01 2.79 3.08 2.79s2.58-1.61 3.06-2.79l2.82-6.96 2.83 6.96c.57 1.44 1.18 2.79 3.06 2.79 1.34 0 2.18-.86 2.65-1.41 2-2.61 3.19-5.88 3.19-9.42Z"/></svg>