<svg xmlns="http://www.w3.org/2000/svg" viewBox="0 0 94.85 43"><path fill="#ed1c24" d="M23.2 1.31a4.3 4.3 0 00-1.76 2.3c-.4 1.56.15 2.95.56 4.33L1.76 6A1.62 1.62 0 00-.01 7.62v27.83c0 .9.73 1.64 1.63 1.63 9.56-.74 19.12-1.51 28.68-2.27.63 2.32 1.78 4.6 3.52 5.99 7.31 4.81 19.18.72 19.81-7.98.86-7.73 1.28-13.85 2.09-20.85.04-.3.19-.45.44-.48.27-.02.45.09.55.38 1.76 7.58 3.05 13.75 4.7 20.61.22.96.61 1.88 1.16 2.7 3.83 3.5 8.51 3.57 11.95.38a8.39 8.39 0 002.35-4.43c.9-7.3 1.4-12.85 2.09-19.24 2.56.07 5.2.04 7.48.15 3.52.27 3 7.77.35 8.22-1.41.2-2.91.25-4.22.33-.6.04-1.08.3-1.45.77a4.66 4.66 0 00-.86 4.12c.12.51.36.99.71 1.38.35.43.9.64 1.45.57 2.06-.25 4.22-.5 6.06-.9a8.2 8.2 0 005.48-5.13c.82-2.64 1.12-5.35.74-7.89-.56-4.19-4.05-7.98-7.6-8.67-3.79-.47-7.96-.69-11.38-1a3.56 3.56 0 00-3.76 2.28c-1 6.2-1.45 13.03-1.9 18.72l-.33 4.48c-.02.27-.04.53-.08.8-.03.22-.14.34-.3.36a.47.47 0 01-.53-.35l-.13-.64c-1.17-5.98-2.36-11.96-3.55-17.94a14.58 14.58 0 00-1.2-3.7 8.98 8.98 0 00-4.02-4.13 11.24 11.24 0 00-8.15-.8 7 7 0 00-3.7 2.4 8.74 8.74 0 00-1.53 2.9c-1.3 9.16-1.92 17.32-2.62 25.08-.04.34-.18.48-.5.53-.38.06-.64-.1-.74-.5-2.03-9.44-4.77-19.03-6.92-27.52C34.75 2.59 31.88.61 28.88.1a8.25 8.25 0 00-5.68 1.21zM6.65 9.75l25.33 1.73.48 1.85-10.7 9.57zm-3.22 1.6l11.74 10.03L3.43 31.66zm29.82 5l3.37 12.92-8.5-7.98c2.17-2.17 3.82-3.77 5.13-4.93zm-7.38 6.98l8.75 8.08-28.07 1.91 11.06-9.85 3.22 2.75c.55.48 1.37.46 1.9-.04z"/></svg>
