<svg xmlns="http://www.w3.org/2000/svg" viewBox="0 0 20 16"><path fill="#069" d="M3.35 7.7.02 9.62l9.99 5.76 9.98-5.76-3.33-1.92"/><path fill="#3c9" d="m16.66 7.7 3.33-1.92L10.01.01.02 5.78 3.35 7.7h13.31"/><path fill="#fff" d="m16.66 7.7-6.65-3.85L3.35 7.7l3.47 2-.93.85a.88.88 0 0 0 0 1.27c.17.17.4.27.63.27.24 0 .46-.1.64-.27l1.15-1.26 1.7.98 6.65-3.84"/><path d="M11.36 7.7a1.35 1.35 0 0 1-1.35 1.35v-.34a1 1 0 0 0 1-1.01h.35Zm-1.35 1.7a1.7 1.7 0 0 1-1.7-1.7A1.7 1.7 0 1 1 10 9.4Zm0-3.92a2.22 2.22 0 0 0-1.74 3.6l-2.01 1.84a.36.36 0 0 0 0 .53c.14.15.37.16.53 0l1.83-2A2.22 2.22 0 1 0 10 5.49Z"/></svg>
