<svg xmlns="http://www.w3.org/2000/svg" viewBox="0 0 32.099 20.561"><path d="M7.53 7.508c1.553 0 2.285.29 3.41 1.436l6.038 6.145c.18.182.215.254.25.363.018.037.018.091.018.128 0 .036 0 .09-.018.127-.035.109-.07.182-.25.363l-4.126 4.218c-.179.182-.25.218-.357.255-.036.018-.09.018-.126.018-.035 0-.089 0-.124-.018-.108-.037-.18-.073-.358-.255L.187 8.381c-.34-.346-.215-.873.357-.873zM24.57 0c-1.554 0-2.286.29-3.412 1.436l-6.037 6.145c-.18.182-.215.254-.25.363-.018.037-.018.091-.018.128 0 .036 0 .09.017.127.036.109.072.182.25.363l4.127 4.2c.178.182.25.218.357.254a.3.3 0 0 0 .125.018c.036 0 .09 0 .125-.018.107-.036.18-.072.357-.254L31.912.854c.34-.345.214-.854-.357-.854z" fill="#08cf65"/></svg>
