<svg xmlns="http://www.w3.org/2000/svg" height="50" width="50" viewBox="149.6 411.5 83.1 76"><path d="M187.4 469.2l-2.6 6c4.9-.5 9.5-.8 13.6-.8l-2.8-6.3c-2.7.4-5.5.8-8.2 1.1zm24.7-2.1c-1 2.6-2.1 5.2-3 7.6 10.1.8 16.1 2.4 16.1 2.4l4.7-9.9c-6.4-.2-12.3-.2-17.8-.1zM152.4 481c-2.1 1.5-2.7 2.2-2.8 2.2-.1.1 4.6-1.7 11.8-3.6 6.8-1.8 10.2-2.4 13.9-3-.6-1.4-1.1-2.9-1.8-4.5-11.6 3.1-18 6.7-21.1 8.9z" fill="#D7182A"/><path d="M191.9 424.3l12.2 31.7 22.7-44.5-22.5 29.5-12.4-28.3-12.5 28.3-22.5-29.5 22.6 44.5"/><path d="M212.1 467.1c2.4-6.1 4.7-12.1 5.9-15.2 4.2-10.9 14.8-40.4 14.8-40.4l-28.9 59.1C200.7 462.5 192 441 192 441c-.6 1.5-8.7 21.5-11.9 29.6l-29-59.1s10.5 29.5 14.8 40.4c1.6 4 4.9 12.5 7.9 20.2l1.8 4.5c2.4 6.1 4.2 10.9 4.2 10.9l5.4-12.1 2.6-6 4.4-10 3.9 8.9 2.8 6.2 5.6 13s2.2-5.7 4.9-12.6c.6-2.5 1.7-5.1 2.7-7.8z"/><path fill="#FFF" d="M211 478.9c-.6 0-1.1-.5-1.1-1.1 0-.6.5-1.1 1.1-1.1s1.1.5 1.1 1.1-.5 1.1-1.1 1.1zm0-2.1c-.5 0-.9.4-.9 1 0 .5.4 1 .9 1s.9-.4.9-1-.5-1-.9-1zm-.2 1.6h-.2v-1.2h.4c.3 0 .4.1.4.4s-.1.3-.3.4l.4.5h-.2l-.3-.5h-.2v.4zm.2-.8c.1 0 .3 0 .3-.2 0-.1-.1-.1-.2-.1h-.2v.4h.1z"/></svg>