<svg xmlns="http://www.w3.org/2000/svg" width="238.393" height="238.393"><path d="M76.847 173.655c-4.024-8.036-13.304-26.88-20.62-41.877l-13.305-27.265 13.824-6.926 13.824-6.925 17.122 34.94c9.417 19.218 17.343 34.942 17.613 34.942 1.298 0 13.528-6.53 13.528-7.223 0-.436-5.46-11.702-12.132-25.035-6.673-13.333-14.302-28.872-16.953-34.53l-4.82-10.289 13.6-6.461c7.479-3.554 13.776-6.462 13.993-6.462.217 0 7.994 15.525 17.284 34.5 9.289 18.975 17.103 34.5 17.365 34.5 1.256 0 13.663-6.004 13.663-6.611 0-.382-7.654-16.222-17.01-35.2-9.354-18.977-16.882-34.63-16.728-34.784 1.145-1.146 27.244-13.232 27.665-12.812.774.774 40.974 82.839 40.71 83.104-.122.122-25.216 12.552-55.765 27.624l-55.542 27.402z" fill="#f58237"/><path d="M76.958 223.188c-29.942-2.173-45.068-7-57.09-18.22-10.773-10.053-15.925-22.81-18.477-45.753-2.035-18.297-1.783-72.758.401-86.833 2.9-18.68 7.348-28.624 17.159-38.357 9.824-9.746 21.527-14.527 42.88-17.52 17.837-2.501 94.686-2.518 112.239-.025 12.903 1.833 27.131 5.544 33.28 8.68 14.804 7.553 24.517 22.32 27.662 42.055 4.34 27.23 4.54 82.405.377 104-4.2 21.795-14.143 35.557-31.431 43.508-15.25 7.013-28.219 8.536-76.5 8.98-21.175.196-43.9-.036-50.5-.515zm100.41-27.97c20.082-3.119 28.387-10.818 32.909-30.503 2.416-10.519 2.385-79.748-.04-90.259-4.927-21.349-12.258-28.076-34.28-31.457-11.365-1.745-100.812-1.753-112.648-.01-23.074 3.399-30.527 9.89-35.04 30.523-2.588 11.838-3.73 60.005-1.853 78.207 3.601 34.931 12.425 42.688 51.042 44.869 14.363.811 92.792-.264 99.91-1.37z" fill="#367da9"/></svg>