<svg width="100%" height="100%" viewBox="0 0 20 20" version="1.1" xmlns="http://www.w3.org/2000/svg"
     xml:space="preserve"
     style="fill-rule:evenodd;clip-rule:evenodd;stroke-linejoin:round;stroke-miterlimit:2;color:#fe5000;">
    <path
      d="M10,6.837L11.051,3.684C11.187,3.276 11.57,3 12,3C12.107,3 12.214,3.017 12.316,3.051C12.724,3.187 13,3.57 13,4C13,4.107 12.983,4.214 12.949,4.316L11.054,10L12.949,15.684C12.983,15.786 13,15.893 13,16C13,16.549 12.549,17 12,17C11.57,17 11.187,16.724 11.051,16.316L10,13.163L8.949,16.316C8.813,16.724 8.43,17 8,17C7.451,17 7,16.549 7,16C7,15.893 7.017,15.786 7.051,15.684L8.946,10L7.051,4.316C7.017,4.214 7,4.107 7,4C7,3.57 7.276,3.187 7.684,3.051C7.786,3.017 7.893,3 8,3C8.43,3 8.813,3.276 8.949,3.684L10,6.837ZM5.024,6.002C5.064,6.003 5.104,6.007 5.144,6.012L5.168,6.016L5.191,6.02L5.215,6.025L5.239,6.031C5.411,6.072 5.574,6.16 5.707,6.293C6.095,6.681 6.095,7.319 5.707,7.707L3.414,10L5.707,12.293C5.902,12.481 6.012,12.741 6.012,13.012C6.012,13.372 5.818,13.69 5.529,13.867C5.517,13.874 5.505,13.881 5.492,13.888L5.466,13.902C5.459,13.906 5.451,13.909 5.444,13.913L5.424,13.922C5.368,13.948 5.31,13.969 5.249,13.984C5.236,13.987 5.224,13.989 5.212,13.992L5.187,13.997L5.164,14.001L5.137,14.004C5.121,14.006 5.105,14.008 5.089,14.009L5.063,14.011L5.037,14.012L5.012,14.012L4.987,14.012C4.97,14.012 4.953,14.011 4.936,14.009L4.911,14.007L4.892,14.005C4.849,14 4.807,13.992 4.765,13.981C4.756,13.979 4.747,13.977 4.739,13.974L4.715,13.967C4.707,13.965 4.699,13.962 4.691,13.959L4.668,13.951L4.645,13.942C4.637,13.939 4.629,13.936 4.622,13.933L4.599,13.923L4.59,13.919C4.48,13.868 4.379,13.796 4.293,13.707L1.293,10.707C0.947,10.361 0.91,9.815 1.182,9.426L1.194,9.408L1.209,9.388C1.214,9.382 1.22,9.375 1.225,9.369L1.237,9.354C1.245,9.344 1.254,9.334 1.263,9.325C1.272,9.314 1.283,9.303 1.293,9.293L4.293,6.293C4.452,6.134 4.654,6.04 4.863,6.011L4.88,6.009L4.904,6.007C4.944,6.003 4.984,6.002 5.024,6.002ZM15,6.002C15.032,6.002 15.064,6.004 15.096,6.007L15.12,6.009L15.124,6.01C15.338,6.036 15.544,6.13 15.707,6.293L18.707,9.293C18.737,9.323 18.765,9.355 18.79,9.388C18.824,9.432 18.854,9.478 18.879,9.526C18.947,9.651 18.985,9.788 18.995,9.927C18.996,9.941 18.997,9.954 18.997,9.967L18.998,9.976L18.998,10C18.998,10.01 18.998,10.02 18.997,10.03L18.997,10.048L18.996,10.061C18.994,10.089 18.992,10.116 18.988,10.143C18.958,10.35 18.865,10.549 18.707,10.707L15.707,13.707C15.695,13.719 15.683,13.731 15.671,13.743C15.646,13.766 15.621,13.787 15.594,13.808L15.574,13.823C15.499,13.876 15.418,13.92 15.332,13.951L15.309,13.959C15.294,13.964 15.279,13.969 15.263,13.974C15.25,13.977 15.237,13.981 15.224,13.984C15.18,13.995 15.135,14.002 15.089,14.007L15.064,14.009C15.044,14.011 15.024,14.012 15.003,14.012L14.988,14.012L14.962,14.012L14.937,14.011L14.911,14.009C14.903,14.009 14.894,14.008 14.886,14.007L14.861,14.004L14.836,14.001L14.812,13.997L14.787,13.992C14.771,13.989 14.755,13.985 14.74,13.981C14.309,13.869 13.988,13.475 13.988,13.012C13.988,12.741 14.098,12.481 14.293,12.293L16.586,10L14.293,7.707C13.905,7.319 13.905,6.681 14.293,6.293C14.36,6.226 14.434,6.171 14.513,6.127C14.52,6.123 14.527,6.12 14.534,6.116L14.556,6.105C14.593,6.087 14.63,6.071 14.669,6.058C14.684,6.053 14.699,6.048 14.715,6.043L14.738,6.037L14.761,6.031C14.769,6.029 14.777,6.027 14.785,6.025L14.832,6.016C14.84,6.015 14.848,6.014 14.856,6.012C14.895,6.007 14.933,6.004 14.972,6.003L14.976,6.002L15,6.002Z"
      fill="currentColor"/>
</svg>
