<svg xmlns="http://www.w3.org/2000/svg" width="43.919" height="43.919"><path d="M41.319 2.6A8.85 8.85 0 0035.04 0a8.85 8.85 0 00-6.277 2.6L21.96 9.405 15.155 2.6A8.851 8.851 0 008.877 0 8.877 8.877 0 002.6 15.154l6.805 6.805 3.164-3.164-6.804-6.805a4.373 4.373 0 01-1.29-3.112c0-1.176.458-2.282 1.29-3.113a4.375 4.375 0 013.112-1.29c1.176 0 2.282.458 3.113 1.29l9.97 9.968 9.969-9.968a4.373 4.373 0 013.113-1.29c1.175 0 2.28.458 3.112 1.29a4.373 4.373 0 011.29 3.113 4.373 4.373 0 01-1.29 3.112L21.96 28.185l3.164 3.164L41.32 15.154a8.877 8.877 0 000-12.554z" fill="#e63f0c"/><path d="M21.96 28.185l-6.226-6.225-3.165 3.164 6.226 6.225z" fill="#e63f0c"/><path d="M2.6 41.318a8.85 8.85 0 006.277 2.601 8.852 8.852 0 006.278-2.6l6.805-6.805 6.804 6.804a8.851 8.851 0 006.278 2.601 8.85 8.85 0 006.277-2.6 8.877 8.877 0 000-12.555l-6.805-6.805-3.165 3.164 6.805 6.806a4.372 4.372 0 011.29 3.112 4.371 4.371 0 01-1.29 3.113 4.374 4.374 0 01-3.113 1.29 4.375 4.375 0 01-3.112-1.29l-9.97-9.969-9.969 9.97a4.375 4.375 0 01-3.113 1.289 4.376 4.376 0 01-3.113-1.29 4.373 4.373 0 01-1.289-3.113c0-1.176.458-2.281 1.29-3.112l16.194-16.196-3.164-3.164L2.6 28.764a8.877 8.877 0 000 12.554z" fill="#f48026"/><path d="M21.96 15.733l6.225 6.226 3.164-3.164-6.226-6.226z" fill="#f48026"/></svg>