<svg xmlns="http://www.w3.org/2000/svg" version="1.1" id="svg2" x="0" y="0" xml:space="preserve" width="1015.54" height="1015.54"><style type="text/css" id="style4341"></style><path d="M446.76 4.171c-37.824 4.717-86.461 16.064-117.165 28.034-34.086 12.905-75.915 33.73-75.915 37.824 0 2.537 7.431 4.717 19.535 6.007 43.386 5.029 123.973 39.382 196.818 83.169 17.666 10.724 35.02 19.534 38.135 19.534 3.427 0 20.47-8.81 37.824-19.534 41.517-25.498 110.045-59.228 141.64-69.952 14.24-4.717 36.577-10.102 49.883-12.282 16.108-2.225 24.474-5.028 24.474-7.565 0-9.122-72.222-40.316-122.416-52.909C573.537-.234 512.796-4.017 446.76 4.171zM147.061 150.972C64.294 236.677 19.35 329.59 4.176 448.67c-7.12 55.445-5.251 102.703 6.497 163.176 11.48 58.294 37.824 123.796 68.795 170.119 20.47 30.882 23.851 30.57 26.343-2.536 9.612-124.107 104.438-294.582 262.186-469.729 13.617-15.44 25.098-29.947 25.098-31.816 0-4.406-47.125-51.04-81.834-81.3-46.5-40.315-106.93-77.828-124.596-77.828-6.764.09-15.441 7.298-39.604 32.217zm659.204-23.006c-39.381 19.224-92.38 59.54-143.508 109.645-20.47 19.847-37.201 38.447-37.201 40.94 0 2.491 15.174 21.759 33.774 42.851 133.897 151.518 218.8 296.14 245.144 417.131 3.426 15.441 6.185 36.534 6.185 47.258 0 17.621.623 19.846 5.874 19.846 7.12 0 35.332-44.098 52.998-83.48 35.955-78.45 48.637-143.641 45.567-233.751-3.115-104.26-30.972-189.654-88.33-271.576-26.344-37.824-84.281-97.986-94.204-97.986-3.96 0-15.753 4.094-26.299 9.122zM473.726 406.128c-73.467 64.879-170.474 166.959-225.608 237.845-58.56 74.98-121.482 176.438-121.482 195.305 0 6.008 32.529 39.693 61.987 64.568 103.504 86.95 253.82 127.266 395.149 106.174 109.11-16.376 208.254-66.793 290.71-147.424 12.726-12.282 14.55-15.753 14.55-27.1-.31-57.982-112.18-201.624-297.206-381.532-50.195-48.815-78.095-73.734-82.456-73.734-3.738.089-18.912 11.124-35.644 25.898z" id="path4343" stroke-width=".445" fill="#177d3e"/></svg>