<svg xmlns="http://www.w3.org/2000/svg" aria-labelledby="XeroLogoTitle_Nav XeroLogoDesc_Nav" width="53" height="53" fill="none"><path d="M26.5.349C11.861.349 0 12.058 0 26.499c0 14.442 11.862 26.152 26.5 26.152 14.632 0 26.5-11.71 26.5-26.151C53 12.058 41.132.349 26.5.349z" class="Xero__LogoPath-igh2r0-2 OiWCb" fill="#13b5ea"/><path d="M19.212 25.333a4.201 4.201 0 014.078-3.155 4.196 4.196 0 014.083 3.155zm9.642 1.128c.273-.335.376-.773.289-1.235-.356-1.675-1.269-3.016-2.641-3.879a5.934 5.934 0 00-3.182-.912 5.952 5.952 0 00-3.46 1.089 5.974 5.974 0 00-2.514 4.87c0 .486.06.969.18 1.434.604 2.357 2.639 4.14 5.062 4.435a5.68 5.68 0 002.14-.145 5.924 5.924 0 001.787-.756c.525-.339 1.008-.795 1.516-1.43l.033-.035c.17-.21.248-.48.216-.741a.829.829 0 00-.316-.568.923.923 0 00-.555-.197c-.188 0-.463.068-.713.391l-.02.026c-.081.11-.167.223-.265.335a4.374 4.374 0 01-1.146.92 4.184 4.184 0 01-1.95.493c-2.155-.023-3.474-1.452-3.99-2.778a4.727 4.727 0 01-.176-.659l-.003-.063 8.341-.001c.58-.013 1.065-.223 1.367-.594zM41.01 24.783c-.837 0-1.519.677-1.519 1.509 0 .832.682 1.509 1.52 1.509.835 0 1.515-.677 1.515-1.51 0-.831-.68-1.508-1.516-1.508zM35.476 21.382a.864.864 0 00-.865-.86l-.244-.003c-.74 0-1.44.226-2.03.654a.861.861 0 00-1.675.262l.003 9.9a.859.859 0 001.719 0v-6.089c0-1.972.17-2.797 1.886-3.008.143-.017.296-.018.334-.018.506-.018.872-.37.872-.838z" class="Xero__LogoPath-igh2r0-2 lofyha" fill="#fff"/><path d="M12.84 26.355l4.451-4.447a.835.835 0 00.253-.602.863.863 0 00-1.479-.602l-4.452 4.425-4.47-4.433a.864.864 0 00-1.468.61c0 .23.092.448.26.614l4.454 4.432L5.94 30.79a.844.844 0 00-.266.616.86.86 0 00.86.858.876.876 0 00.61-.248l4.464-4.442 4.446 4.421a.87.87 0 00.623.271.864.864 0 00.866-.86.854.854 0 00-.253-.605zM41.009 30.44c-2.3 0-4.17-1.86-4.17-4.148 0-2.29 1.87-4.155 4.17-4.155a4.165 4.165 0 014.166 4.155c0 2.288-1.869 4.149-4.166 4.149zm0-10.07c-3.28 0-5.948 2.656-5.948 5.921s2.669 5.92 5.949 5.92c3.278 0 5.946-2.655 5.946-5.92s-2.668-5.922-5.946-5.922z" class="Xero__LogoPath-igh2r0-2 lofyha" fill="#fff"/></svg>