<svg xmlns="http://www.w3.org/2000/svg" width="4.313" height="4.313" class="src-styles-icon-e3eb1fe7" viewBox="0 0 24.8 10.783"><path fill="#b0d400" d="M18.75-7.009c-.5 0-.8.3-1 .7 0 0-7.7 13.7-8 14.1l5.1 9.3c.2.3.5.7 1 .7h3.6c.2 0 .4-.1.5-.2.1-.2.1-.4 0-.6l-5-9.2 7.9-14c.1-.2.1-.4 0-.6-.1-.1-.3-.2-.5-.2z"/><path fill="currentColor" d="M3.75-2.109c-.2 0-.4.1-.5.2-.1.2-.1.4 0 .6l2.4 4.2-3.7 6.7c-.1.2-.1.4 0 .6.1.1.3.2.5.2h3.5c.5 0 .8-.4 1-.7 0 0 3.7-6.6 3.9-6.8l-2.5-4.3c-.2-.3-.5-.7-1-.7z"/></svg>