<?xml version="1.0" encoding="UTF-8"?>
<svg version="1.1" id="Layer_1" xmlns="http://www.w3.org/2000/svg" xmlns:xlink="http://www.w3.org/1999/xlink"
  x="0px" y="0px" viewBox="0 0 88 88" enable-background="new 0 0 88 88" xml:space="preserve">
  <g>
    <g>
      <path d="M44,86.51A42.51,42.51,0,1,1,86.51,44,42.56,42.56,0,0,1,44,86.51Z" fill="#fff"/>
      <path d="M44,3A41,41,0,1,1,3,44,41.06,41.06,0,0,1,44,3m0-3A44,44,0,1,0,88,44,44,44,0,0,0,44,0Z" fill="#3f3f3f"/>
    </g>
    <path d="M24.72,40.57l8.38,6.7L44.62,28.4,59.29,51.86l8-6.29,8.82,13a38.45,38.45,0,0,0,3.77-15.29A35.35,35.35,0,0,0,44.22,7.62C24.32,7.62,8,23.76,8,43.26A37.25,37.25,0,0,0,12.17,60Z" fill="#0d86ef"/>
  </g>
</svg>
