<svg xmlns="http://www.w3.org/2000/svg" viewBox="0 0 23.71 21.89"><defs><radialGradient cx="50%" cy="54.2297354%" fx="50%" fy="54.2297354%" r="55.7622718%" gradientTransform="translate(0.500000,0.542297),scale(0.923616,1.000000),rotate(149.072303),scale(1.000000,1.015506),translate(-0.500000,-0.542297)" id="a"><stop stop-color="#FFB900" offset="0%"/><stop stop-color="#FA5C86" offset="74.7090242%"/><stop stop-color="#F95353" offset="100%"/></radialGradient></defs><path d="M17.0078833,5.1514375 C17.0078833,7.99677083 14.6998171,10.3034479 11.8525754,10.3034479 C9.00521901,10.3034479 6.69715289,7.99677083 6.69715289,5.1514375 C6.69715289,2.30667708 9.00521901,-1.42108547e-14 11.8525754,-1.42108547e-14 C14.6998171,-1.42108547e-14 17.0078833,2.30667708 17.0078833,5.1514375 L17.0078833,5.1514375 Z M5.15542252,11.5914792 C2.30818079,11.5914792 -2.84217094e-14,13.8974687 -2.84217094e-14,16.7428021 C-2.84217094e-14,19.5879062 2.30818079,21.8943542 5.15542252,21.8943542 C8.00277893,21.8943542 10.3110744,19.5879062 10.3110744,16.7428021 C10.3110744,13.8974687 8.00277893,11.5914792 5.15542252,11.5914792 L5.15542252,11.5914792 Z M18.5496136,11.5910208 C15.7023719,11.5910208 13.3941911,13.8974687 13.3941911,16.7428021 C13.3941911,19.5879062 15.7023719,21.8943542 18.5496136,21.8943542 C21.3968554,21.8943542 23.7050362,19.5879062 23.7050362,16.7428021 C23.7050362,13.8974687 21.3968554,11.5910208 18.5496136,11.5910208 L18.5496136,11.5910208 Z" fill="url(#a)"/></svg>