<svg xmlns="http://www.w3.org/2000/svg" viewBox="0 0 25.576 26.709"><g transform="translate(-132.92 -.042)" fill="#f26a60"><path transform="translate(132.69)" d="m13.965 15.078-0.024 0.042c-0.203 0.35-0.363 0.725-0.478 1.113l-3.09 10.518h4.536l2.73-9.29c0.077-0.263 0.292-0.462 0.56-0.52 0.267-0.056 0.545 0.039 0.722 0.248l4.477 4.808 2.308-4.007-3.467-3.617c-1.067-1.257-2.676-1.92-4.319-1.78s-3.117 1.066-3.955 2.485m-3.021-1.709-0.024-0.042c-0.203-0.35-0.447-0.676-0.726-0.97l-7.564-7.937-2.37 3.821 6.783 7.119c0.19 0.198 0.254 0.484 0.17 0.744-0.085 0.26-0.306 0.453-0.575 0.502l-6.403 1.474 2.316 4.003 4.866-1.194c1.623-0.296 3.002-1.358 3.702-2.85 0.7-1.493 0.635-3.233-0.175-4.67m2.961-1.699h0.048c0.405 0 0.81-0.048 1.203-0.143l10.655-2.583-2.123-3.963-9.557 2.316c-0.266 0.065-0.546-0.022-0.729-0.225-0.183-0.204-0.24-0.492-0.148-0.75l1.926-6.28-4.625 5e-3 -1.399 4.81c-0.555 1.554-0.324 3.279 0.618 4.632 0.943 1.352 2.482 2.165 4.131 2.182"/></g></svg>