<svg xmlns="http://www.w3.org/2000/svg" viewBox="0 0 90 90"><path d="M45 90C20.148 90 0 69.852 0 45S20.148 0 45 0s45 20.148 45 45-20.148 45-45 45zM34.337 33.084c1.459 3.112 2.655 6.49 5.281 14.534l.022.066c2.65 8.125 3.845 11.52 5.44 15.044 1.097 2.421 2.185 4.33 3.376 5.79 1.75 2.151 3.834 3.483 6.41 3.483 3.426 0 6.311-1.5 8.312-4.174 1.577-2.109 2.544-4.833 3.073-8.135.806-5.034.602-11.42-.346-19.191-1.073-8.786-2.822-15.894-5.3-21.356a4.5 4.5 0 1 0-8.194 3.717c2.052 4.524 3.591 10.78 4.561 18.73.855 7 1.035 12.666.393 16.678-.32 1.99-.82 3.402-1.394 4.17a1.389 1.389 0 0 1-.49.454l-.046-.056c-.614-.75-1.35-2.045-2.154-3.821-1.406-3.105-2.548-6.35-5.085-14.125l-.021-.067c-2.75-8.44-4.01-11.979-5.687-15.56-1.17-2.5-2.342-4.428-3.66-5.853-2.017-2.18-4.536-3.313-7.376-2.663-3 .689-5.125 2.895-6.406 6.069-.993 2.469-1.541 5.661-1.725 9.653-.343 7.423.576 17.966 2.737 31.728a4.5 4.5 0 1 0 8.89-1.397C32.871 53.588 32 43.583 32.31 36.886c.125-2.625.42-4.65.85-6.046a24.807 24.807 0 0 1 1.177 2.25z" fill="#08a0b6"/></svg>