<svg xmlns="http://www.w3.org/2000/svg" viewBox="0 0 169.9 192.1"><path fill="#172980" d="M169.9 188.8H65.2V56.6h104.6z"/><path fill="#fff" d="M4.4 134.7V4.4l60.8 53v130.3z"/><path fill="none" stroke="#172980" stroke-width="9" d="M4.4 134.7V4.4l60.8 53v130.3z" stroke-linejoin="round"/><path fill="#ffe100" d="M138.8 124.9s-.7-18.6-24.3-18.6c-16.4 0-20.9 18.6-20.9 18.6zm-24.3-36.6c51 0 43.9 53.7 43.9 53.7H93.9s3.5 16.8 21 16.8c16.7 0 21.2-10.2 21.2-10.2H157c0 3.4-10.6 28.7-42.5 28.7s-40.2-30.5-41.1-38.7C71 118 84.7 88.3 114.5 88.3"/></svg>
