<svg xmlns="http://www.w3.org/2000/svg" fill="none" viewBox="0 0 70 65"><path fill="#172973" d="M3.09 33.88c.04-.01 1.61-.73 4.09-1.23.02 1.76.18 3.52.48 5.24a1.78 1.78 0 0 0 2.06 1.46 1.8 1.8 0 0 0 1.43-2.09 29.12 29.12 0 0 1-.43-5.01v-.04c2.8-.14 6.1.2 9.46 1.69a23.87 23.87 0 0 0 9.75 2.03c5.75 0 9.96-1.92 10.22-2.05l1.61-.75-1.48-3.27-1.6.76c-.1.03-8.4 3.84-17.09-.02-10.12-4.5-19.58-.17-19.98.02l-1.6.75 1.48 3.27 1.6-.76Zm0-12.51c.05-.02 2.71-1.22 6.57-1.6a31.9 31.9 0 0 0-1.58 4.84 1.8 1.8 0 0 0 1.72 2.23c.8 0 1.52-.55 1.72-1.38.47-1.97 1.17-3.9 2.05-5.72 2.09.16 4.34.64 6.6 1.65a23.87 23.87 0 0 0 9.76 2.03c5.74 0 9.96-1.93 10.22-2.05l1.6-.75-1.47-3.26-1.6.74c-.1.04-8.46 3.82-17.1-.01-10.12-4.5-19.57-.17-19.97.02l-1.6.75 1.47 3.26 1.6-.75Z"/><path fill="#172973" d="M38.59.3a31.18 31.18 0 0 0-23.97 11.28c-.63.76-.53 1.9.2 2.54.75.65 1.87.55 2.5-.2A27.65 27.65 0 0 1 38.6 3.9c15.37 0 27.88 12.72 27.88 28.35 0 15.64-12.5 28.35-27.88 28.35a27.73 27.73 0 0 1-25.03-15.84c2.09.17 4.34.65 6.61 1.66a23.87 23.87 0 0 0 9.76 2.03c5.74 0 9.96-1.93 10.22-2.05l1.6-.75-1.48-3.27-1.6.75c-.09.04-8.4 3.84-17.08-.01-10.13-4.5-19.59-.17-19.98.01L0 43.88l1.48 3.28 1.6-.75c.06-.02 2.72-1.24 6.6-1.61a31.28 31.28 0 0 0 28.9 19.4C55.91 64.2 70 49.88 70 32.27S55.9.3 38.59.3Z"/></svg>