<svg xmlns="http://www.w3.org/2000/svg" viewBox="0 0 117.98 101.88"><path fill="#fff" d="M115.55 50.94c0 28.14-25.32 50.94-56.56 50.94-31.24 0-56.56-22.8-56.56-50.94C2.43 22.81 27.75 0 59 0c31.24 0 56.56 22.8 56.56 50.94"/><path fill="#0b335e" d="m66.32 98.99 45.87-48.23-15.58-14.9-28.88 30.22c-10.4 12.08-10.12 23.3-1.41 32.9M58.58.07C98.04.42 118 28 117.98 50.82c0 19.27-12.76 47.67-54.87 51.04-13-11.16-7.7-27.71-4.96-31.55C61.5 65.6 92.9 32.45 92.9 32.45L77.5 17.72S50.24 45.84 44.1 52.6c-6.42 7.05-9.16 20.68-1.97 32.34 0 0 9.83 10.3 17.06 16.9C22.53 101.54-5.65 72 .97 42.5 7.2 14.31 31.84-.72 57.45.06L23.66 36.15c-8.69 9.27-5.29 26.32.46 31.99 5.75 5.66 8.9 8.49 8.9 8.49s-3.78-15.93 9.24-29.29a2504.04 2504.04 0 0 0 31.53-33.2S58.91.44 58.58.06"/></svg>