<svg xmlns="http://www.w3.org/2000/svg" width="431.338" height="431.338"><path d="M228.061 9.03L343.021 0l-66.326 105.403 37.721-.415-74.012 102.688 42.334-4.417-66.636 83.463 41.356.663-127.202 143.91 45.38-105.621-33.532-1.01 43.154-85.47-30.588-2.078 52.947-94.834-42.707.864z" fill="#f2d719"/><path d="M154.262 422.144c19.412 5.977 40.034 9.194 61.407 9.194 115.106 0 208.418-93.312 208.418-208.418 0-73.901-38.463-138.82-96.463-175.827l-26.598 40.615c2.846 1.8 5.631 3.689 8.352 5.66l26.258 1.694-8.925 12.831c30.11 29.075 48.837 69.864 48.837 115.027 0 88.299-71.58 159.88-159.879 159.879-8.4 0-16.65-.648-24.7-1.896M145.144 366.443C92.212 340.384 55.79 285.906 55.79 222.92c0-78.976 57.267-144.591 132.561-157.554l24.483-50.845c-113.8 1.517-205.583 94.24-205.583 208.4 0 82.726 48.198 154.195 118.045 187.858" fill="#004b91" paint-order="markers fill stroke"/></svg>