<svg xmlns="http://www.w3.org/2000/svg" width="1004" height="1004" viewBox="-7.089 -7.089 898.194 898.082"><g fill="#84b816"><path d="M46.18 373.204c-30.195 0-52.841 24.227-52.841 56.352 0 32.91 22.193 56.801 52.841 56.801a52.834 52.834 0 0048.653-29.4l1.021-2.001-12.607-7.285-1.133 2.153c-7.549 14.228-20.191 22.383-34.61 22.383a39.193 39.193 0 01-28.422-11.323A39.808 39.808 0 018.285 433.06h90.172v-2.905a59.419 59.419 0 00-16.153-42.5 49.6 49.6 0 00-36.124-14.452zM8.852 418.872c3.442-18.168 19.253-31.372 37.743-31.518 20.23 0 33.517 15.78 36.729 31.518zm190.8-28.76a50.56 50.56 0 00-38.16-16.908c-31.327 0-53.222 22.982-53.222 55.897 0 32.91 22.648 57.256 53.673 57.256a49.624 49.624 0 0037.744-17.246v15.098h14.833v-108.78h-14.985zm-38.047 82.095c-25.062 0-38.612-22.197-38.612-43.106 0-20.082 14.491-41.747 37.744-41.747 23.252 0 39.482 16.683 39.482 40.615 0 22.006-11.929 44.238-38.614 44.238zm110.479-54.165c-12.344-4.492-19.931-7.74-19.931-16.836 0-7.925 8.154-13.852 15.439-13.852a17.488 17.488 0 0116.118 10.34l1.015 2.193 12.95-6.532-.947-2.036a33.365 33.365 0 00-28.681-18.004c-17.213 0-30.69 12.569-30.69 28.647 0 19.362 17.7 25.817 31.896 31.027 10.644 3.773 18.871 7.548 18.871 18.266a20.816 20.816 0 01-6.104 14.961 20.835 20.835 0 01-14.955 6.104c-14.532 0-20.875-10.606-23.628-19.518l-.718-2.226-14.234 4.531.533 2.149c4.185 17.51 20.054 29.693 38.047 29.219a34.575 34.575 0 0025.37-9.718 34.547 34.547 0 0010.523-25.048c-.151-22.457-17.173-28.687-30.874-33.667zm87.154 48.047l-42.73-90.587h-15.776l51.07 108.102c-.797 1.89-22.648 61.26-22.648 61.26h15.474l68.506-169.434h-15.512zM421.024 339.042v145.166h23.964v-14.76a42.372 42.372 0 0036.916 18.272 51.618 51.618 0 0039.858-18.307 64.973 64.973 0 0013.932-39.672c0-30.61-22.764-57.9-54.58-57.9-12.344 0-26.422 4.307-33.971 14.912v-47.711zm371.367 0v145.09h26.084v-50.84l37.29 50.84h34.913l-45.707-55.559 39.219-53.223h-30.803l-34.912 51.26v-87.568zm-62.336 32.793a37.76 37.76 0 00-28.026 13.556v-10h-24.115l.15 108.627h26.08v-49.066c0-8.643-.374-20.348 4.303-27.897a22.054 22.054 0 0118.27-9.625 20.988 20.988 0 0117.285 9.063c4.531 7.169 4.531 17.964 4.531 26.422v51.217h26.08v-56.315c0-13.965-.185-27.514-8.642-39.252a18.238 18.238 0 00-2.719-3.174 43.606 43.606 0 00-31.027-13.55 37.839 37.839 0 00-2.17-.006zm-131.594.045a51.21 51.21 0 00-40.463 18.873 55.642 55.642 0 00-13.926 39.066 62.03 62.03 0 0013.55 39.629 51.044 51.044 0 0040.044 18.272 48.515 48.515 0 0037.295-18.307v14.758h23.93l.035-108.78h-23.928v15.362a43.72 43.72 0 00-36.537-18.873zm-121.687 25.465a31.433 31.433 0 011.586.013c18.68 0 31.209 14.381 31.209 32.614 0 18.227-12.753 32.19-31.21 32.19-19.628 0-32.763-14.906-32.763-33.778a31.692 31.692 0 019.896-22.36 31.707 31.707 0 0121.282-8.68zm125.95.013c18.457-.191 31.44 13.59 31.44 32.233 0 18.647-12.944 32.763-31.816 32.572a31.444 31.444 0 01-22.711-8.92 31.456 31.456 0 01-9.486-22.482c0-19.063 13.365-33.403 32.574-33.403z"/></g></svg>