<svg xmlns="http://www.w3.org/2000/svg" width="130" height="130"><path d="M17.333 58.2c-1.333 0-2.377.422-3.133 1.267-.756.844-1.222 1.889-1.4 3.133h9.067c-.178-1.244-.667-2.289-1.467-3.133-.8-.845-1.822-1.267-3.067-1.267zm15.734-1.467c-1.423-2.755-3.511-5-6.267-6.733-2.756-1.733-5.822-2.6-9.2-2.6-4.8 0-8.933 1.711-12.4 5.133C1.733 55.956 0 60.111 0 65s1.733 9.044 5.2 12.467c3.467 3.422 7.6 5.133 12.4 5.133 3.378 0 6.444-.844 9.2-2.533 2.756-1.69 4.844-3.911 6.267-6.667a19.472 19.472 0 01-1.467-4 18.071 18.071 0 01-.533-4.4c0-1.511.177-2.956.533-4.333a19.87 19.87 0 011.467-3.934zm-14.8 13.734c1.422 0 2.666-.378 3.733-1.134 1.067-.755 1.956-1.133 2.667-1.133.622 0 1.177.244 1.666.733.49.49.734 1.045.734 1.667 0 1.244-1.023 2.356-3.067 3.333-2.044.978-4.133 1.467-6.267 1.467-3.2 0-5.777-1.044-7.733-3.133-1.956-2.09-2.933-4.69-2.933-7.8 0-2.845.955-5.378 2.866-7.6 1.911-2.223 4.378-3.334 7.4-3.334 3.023 0 5.467 1.134 7.334 3.4 1.866 2.267 2.8 4.556 2.8 6.867 0 .889-.2 1.533-.6 1.933-.4.4-1.045.6-1.934.6h-12c.178 1.423.778 2.467 1.8 3.134 1.023.666 2.2 1 3.534 1zM62.533 65c0-1.689.223-3.289.667-4.8a18.284 18.284 0 011.867-4.267c-1.511-2.577-3.6-4.644-6.267-6.2-2.667-1.555-5.6-2.333-8.8-2.333-4.889 0-9.044 1.711-12.467 5.133C34.111 55.956 32.4 60.111 32.4 65s1.711 9.044 5.133 12.467C40.956 80.889 45.111 82.6 50 82.6c3.2 0 6.133-.778 8.8-2.333 2.667-1.556 4.756-3.623 6.267-6.2A18.284 18.284 0 0163.2 69.8a16.93 16.93 0 01-.667-4.8zM59.2 71.533c0 .711-.111 1.49-.333 2.334-.223.844-1 1.266-2.334 1.266-.8 0-1.4-.2-1.8-.6-.4-.4-.689-1-.866-1.8-.8.89-1.645 1.556-2.534 2-.889.445-1.866.667-2.933.667-2.667 0-4.889-1.022-6.667-3.067-1.777-2.044-2.666-4.666-2.666-7.866 0-3.111.91-5.711 2.733-7.8 1.822-2.09 4.022-3.134 6.6-3.134 1.067 0 2.089.2 3.067.6a5.357 5.357 0 012.4 1.934c.089-.623.377-1.156.866-1.6.49-.445 1.09-.667 1.8-.667 1.334 0 2.111.422 2.334 1.267.222.844.333 1.622.333 2.333zm-10-12.8c-1.511 0-2.644.623-3.4 1.867-.756 1.244-1.133 2.533-1.133 3.867A7.24 7.24 0 0045.8 68.4c.756 1.2 1.889 1.8 3.4 1.8s2.622-.6 3.333-1.8a7.576 7.576 0 001.067-3.933c0-1.334-.356-2.623-1.067-3.867-.71-1.244-1.822-1.867-3.333-1.867zm47.067-3.466a17.841 17.841 0 00-6.2-5.734C87.533 48.111 84.71 47.4 81.6 47.4c-4.889 0-9.044 1.711-12.467 5.133C65.711 55.956 64 60.111 64 65s1.711 9.044 5.133 12.467C72.556 80.889 76.711 82.6 81.6 82.6c3.111 0 5.933-.711 8.467-2.133a17.841 17.841 0 006.2-5.734 20.676 20.676 0 01-2.134-4.6 16.535 16.535 0 01-.8-5.133c0-1.778.267-3.489.8-5.133a20.676 20.676 0 012.134-4.6zM80.933 75.4c-1.6 0-3.31-.4-5.133-1.2-1.822-.8-2.733-1.867-2.733-3.2 0-.444.2-.978.6-1.6.4-.622 1-.933 1.8-.933 1.155 0 2.089.333 2.8 1 .71.666 1.733 1 3.066 1 .89 0 1.49-.134 1.8-.4.311-.267.467-.667.467-1.2 0-1.334-1.644-2.311-4.933-2.934-3.29-.622-4.934-2.577-4.934-5.866 0-1.956.734-3.534 2.2-4.734 1.467-1.2 3.311-1.8 5.534-1.8 1.422 0 2.955.334 4.6 1 1.644.667 2.466 1.711 2.466 3.134 0 .622-.222 1.177-.666 1.666-.445.49-.978.734-1.6.734-.534 0-1.29-.267-2.267-.8-.978-.534-1.956-.8-2.933-.8-.445 0-.867.133-1.267.4-.4.266-.6.666-.6 1.2 0 1.333 1.644 2.31 4.933 2.933 3.29.622 4.934 2.533 4.934 5.733 0 1.867-.734 3.445-2.2 4.734-1.467 1.289-3.445 1.933-5.934 1.933zM130 65c0-4.889-1.711-9.044-5.133-12.467-3.423-3.422-7.578-5.133-12.467-5.133s-9.044 1.711-12.467 5.133C96.511 55.956 94.8 60.111 94.8 65s1.711 9.044 5.133 12.467c3.423 3.422 7.578 5.133 12.467 5.133s9.044-1.711 12.467-5.133C128.289 74.044 130 69.889 130 65zm-9.733-8l-7.6 19.067a3.346 3.346 0 01-.8 1.333c-.356.356-.845.533-1.467.533-.711 0-1.289-.2-1.733-.6-.445-.4-.667-.866-.667-1.4 0-.177.044-.4.133-.666a5.17 5.17 0 01.267-.667l2-4.933L105.333 57a2.6 2.6 0 01-.2-.533 2.807 2.807 0 01-.066-.667c0-.622.244-1.111.733-1.467.489-.355.956-.533 1.4-.533.622 0 1.111.133 1.467.4.355.267.666.667.933 1.2l3.067 8.667 3.466-8.667c.178-.533.467-.933.867-1.2.4-.267.867-.4 1.4-.4.444 0 .911.178 1.4.533.489.356.733.845.733 1.467 0 .267-.022.489-.066.667a2.6 2.6 0 01-.2.533z"/></svg>