<svg xmlns="http://www.w3.org/2000/svg" viewBox="1.9 159.7 52.5 52.5" width="52.5" height="52.5"><path d="M49.4 187.7H25.2c-1.1 0-1.6.5-1.6 1.4 0 2.2 1.2 4.3 3.6 6.3 2.4 2 5 3 7.8 3 1.6 0 3.5-.3 5.5-.9 2-.6 3.7-1.4 5-2.3 1.2-.8 2.1-1.2 2.8-1.2.9 0 1.8.5 2.6 1.6.9 1.1 1.3 2.2 1.3 3.4 0 2.5-1.5 4.8-4.6 7.1-5.4 4.1-11.7 6.1-18.8 6.1-7.2 0-13.2-2.1-18.1-6.3-2.4-2.1-4.3-4.5-5.8-7.4-2-3.9-3-7.9-3-12.2 0-5.7 1.7-10.9 5.2-15.5 3-4 6.8-6.9 11.5-8.9 3.5-1.5 7.3-2.2 11.3-2.2 6.5 0 12 1.8 16.6 5.5 2.3 1.8 4.1 4 5.5 6.6 1.6 2.9 2.4 5.7 2.4 8.4 0 2.2-.5 4-1.4 5.5-1 1.3-2.2 2-3.6 2zm-22.8-9.6h5.2c2.2 0 3.3-1 3.3-3 0-1.8-.5-3.4-1.6-4.5-1.1-1.2-2.4-1.7-4.2-1.7-1.9 0-3.4.8-4.5 2.3-1 1.4-1.5 2.8-1.5 4.3 0 1 .2 1.7.7 2.2.5.2 1.3.4 2.6.4z" fill="#f60"/></svg>