<svg xmlns="http://www.w3.org/2000/svg" width="51.281" height="51.281"><g data-name="Group 4325" transform="rotate(45 22.675 28.352)"><rect data-name="Rectangle 8" width="17.07" height="17.113" rx="1.5" transform="translate(30.318 18.134)" fill="#001e42" ry="1.5"/><rect data-name="Rectangle 9" width="17.07" height="17.113" rx="1.5" transform="translate(12.229 18.134)" fill="#001e42" ry="1.5"/><rect data-name="Rectangle 10" width="17.07" height="17.113" rx="1.5" transform="translate(12.229)" fill="#001e42" ry="1.5"/><rect data-name="Rectangle 11" width="11.21" height="11.238" rx="1.5" transform="translate(30.318 5.874)" fill="#1186fc" ry="1.5"/><rect data-name="Rectangle 14" width="11.21" height="11.238" rx="1.5" transform="translate(0 11.749)" fill="#001e42" ry="1.5"/><rect data-name="Rectangle 12" width="6.115" height="6.13" rx="1.5" transform="translate(26.751 36.269)" fill="#1186fc" ry="1.5"/><rect data-name="Rectangle 15" width="3.567" height="3.576" rx="1" transform="translate(7.643 7.152)" fill="#1186fc" ry="1"/><rect data-name="Rectangle 16" width="3.567" height="3.576" rx="1" transform="translate(.51 27.074)" fill="#001e42" ry="1"/><rect data-name="Rectangle 17" width="3.567" height="3.576" rx="1" transform="translate(6.879 41.632)" fill="#1186fc" ry="1"/><rect data-name="Rectangle 18" width="3.567" height="3.576" rx="1" transform="translate(23.184 43.42)" fill="#001e42" ry="1"/><rect data-name="Rectangle 13" width="6.115" height="6.13" rx="1.5" transform="translate(5.095 24.009)" fill="#1186fc" ry="1.5"/></g></svg>