<svg xmlns="http://www.w3.org/2000/svg" width="34.663" height="26.797" fill="#00a9e0"><path d="m0 14.74 5.024 3.013 5.027 3.013 5.024 3.017 5.024 3.014 5.024-3.014-5.024-3.017-5.024-3.013-5.024-3.014v-6.03l-5.027 3.014L0 14.739zm20.099-6.03V2.68l-5.024 3.016-5.024 3.013 5.024 3.014 5.024 3.016 5.024 3.014 5.024-3.014-5.024-3.016-5.024-3.014z"/><path d="M34.58 4.639c-.29-.74-1.366-1.664-3.225-2.768C29.426.72 27.844.106 26.608.018s-2.325.15-3.26.717l-3.25 1.95 10.065 5.987 3.007-1.806c1.23-.746 1.699-1.488 1.41-2.227z"/></svg>