<svg xmlns="http://www.w3.org/2000/svg" viewBox="0 0 90 90"><path fill="#FF9000" d="M77.59 16C84.44 16 90 21.56 90 28.41V62.6C90 69.44 84.44 75 77.59 75H12.4A12.41 12.41 0 010 62.59V28.4C0 21.56 5.56 16 12.41 16H77.6zm0 4.66H12.4a7.76 7.76 0 00-7.75 7.5V62.6c0 4.2 3.34 7.62 7.5 7.75H77.6c4.2 0 7.62-3.34 7.75-7.5V28.4c0-4.2-3.34-7.62-7.5-7.75h-.25z"/><path fill="#F1A800" d="M60.42 46.96c.91-.91 2.39-.9 3.3 0l15.51 15.53.12.12a2.33 2.33 0 01-3.41 3.17L60.42 50.25l-.12-.13c-.78-.91-.74-2.3.12-3.16zm-30.84 0c.86.87.9 2.25.12 3.16l-.12.13-15.52 15.53a2.33 2.33 0 01-3.41-3.17l.12-.12 15.51-15.53c.91-.9 2.39-.91 3.3 0zm49.77-21.6c.8.92.74 2.3-.12 3.16l-.13.12-28.54 24.48a8.53 8.53 0 01-10.9.18l-.22-.18L10.9 28.64a2.33 2.33 0 012.9-3.65l.13.11 28.54 24.48a3.88 3.88 0 004.88.14l.18-.14L76.07 25.1a2.33 2.33 0 013.28.25z"/></svg>