<svg xmlns="http://www.w3.org/2000/svg" width="191.4" height="191.4"><path fill="#f5af02" d="M121.2 98c-8.7.3-14.1 1.9-14.1 7.6 0 3.7 3 7.7 10.5 7.7 10.1 0 15.4-5.5 15.4-14.5v-1c-3.5 0-7.9.1-11.8.2zm21.4 11.9c0 2.8.1 5.5.3 8H134c-.2-2-.3-4.1-.3-6-4.8 5.9-10.6 7.6-18.5 7.6-11.9 0-18.2-6.2-18.2-13.5 0-10.5 8.6-14.1 23.5-14.5 4.1-.1 8.7-.1 12.5-.1v-1c0-7-4.5-9.9-12.3-9.9-5.8 0-10 2.4-10.5 6.5h-10.1c1.1-10.3 11.9-12.9 21.4-12.9 11.4 0 21 4.1 21 16.1v19.7z"/><path fill="#e53238" d="M38.2 92.9c-.4-9-6.8-12.3-13.8-12.3C17 80.5 11 84.3 10 92.9zM9.8 99.3c.5 8.7 6.5 13.9 14.8 13.9 5.7 0 10.8-2.3 12.5-7.4H47c-2 10.2-12.9 13.7-22.3 13.7C7.6 119.5 0 110.1 0 97.4c0-14 7.8-23.2 24.8-23.2 13.5 0 23.5 7.1 23.5 22.5v2.6z"/><path fill="#0064d2" d="M72.9 112.9c8.9 0 15-6.4 15-16.1 0-9.7-6.1-16.1-15-16.1s-15 6.4-15 16.1c0 9.7 6.1 16.1 15 16.1zM48.3 57.3h9.6v24.1c4.7-5.6 11.2-7.2 17.6-7.2 10.7 0 22.6 7.2 22.6 22.8 0 13-9.4 22.5-22.7 22.5-7 0-13.5-2.5-17.6-7.4 0 2-.1 4-.3 5.9H48c.2-3 .3-6.8.3-9.9z"/><path fill="#86b817" d="M191.4 75.8l-29.7 58.3H151l8.5-16.2-22.3-42.1h11.2l16.4 32.9 16.4-32.9z"/></svg>