<svg xmlns="http://www.w3.org/2000/svg" id="Layer_1" version="1.1" width="94.893" height="94.893"><style id="style1685">.st0{fill:#f84147}</style><g id="g1702" transform="translate(0 22.551)"><path class="st0" d="M94.8 9.9c.5 3-1.1 5.2-3 7.2-4.6 3.7-9 6.7-14.3 8.6.9.4 2 .6 2.9 1 2.2.8 4.6 2.1 5.3 4.5.9 2.4-1.5 6.8-8.9 10-1.7.9-13.4 5.8-18.5 7.2-1.4.5-1.7.9-1.6 1.5-2 .1-3-1.1-3.5-2-.9-2.1-.1-4.6 1.4-6.1 1.7-2.1 4.2-2.3 6.5-3.1 4.6-1.4 9.2-3.1 13.6-5.1 3.1-1.7.1-3-.4-3.1-4.8-1-8.1.1-9-.6-1.3-1.1-1.7-5.4-.2-6.7 1.6-1.7 3.7-2.4 5.6-3.6 4.6-2.5 9.5-4.2 14-7 .5-.5 1.5-.7 1.4-1.4-1-1.2-7.6.4-8.3.4-2.7.4-12.6 3.2-14 3.4-.6.4.4 1.2.5 2.9.2 1.8.3 2.9-.5 4.7-.7 1.8-2 3.4-2.8 5.3-3.1 4.9-6.3 9.8-9.6 14.5-.1.2-.5.5-.8.6-1.6.2-3.1-.2-3.9-1.6-2.6-5 2.1-8.9 4.5-12.7 2.8-3.9 4.9-8.1 7.3-12.2-.9-.7-1.7-1.6-1.6-2.9.3-3.2 2-6.4 5.2-7.5 7.2-2.5 15.5-3.3 23.4-2.5 3 .3 8.4 1.7 9.3 6.3z" id="path1687"/><path class="st0" d="M56.9 5.7c.1.6-.2 2-1 2.4-.5.3-1.3.4-1.8.3-.4-.1-1.4-.4-1.4-.4-5.1-.7-9.2.6-13.9 1.6-5.1.9-9.8 2.7-14.8 3.8.6.8.9 1.9.5 2.9-1 1.1-2 2.2-3 3.2 8-1.3 20.3-3.4 26-2.6 3.3.8 4.7 3.7 4.6 4.8.1 2.4-3.2 3.3-15.6 4.6-9.2 1.7-20 3.8-22.5 4.3-.9 1.1-2.1 2.7-1.8 4 1.9 2 12-.8 18.7-.6 7.2.1 8.5 5 6.7 6.7-.6.7-2.5.6-6 1.2-5.3 1-13.1 2.3-18.3 1.8-1.6-.2-2.8-.9-4.1-1.7-3-2.2-3.5-5.8-3.3-9.1-.1-.5.7-1 .1-1.4-1.4-.1-3.1-.1-4.3-1-.7-.4-1.5-1-1.7-2 .1-1.7.1-3.6 1.5-4.7 3.2.6 6.4-.4 9.4-1.5 1.6-2.2 3.3-4.3 5-6.4-.7-.8-1.6.2-2.5.2-2.5.5-5.9 1.3-7.6-1.3-1.1-1.4-1.1-3.7-.5-5.3.2-.4.6-1 1-.9.6 1.1 2.4.7 3.4.6 15.8-5.8 34-11 41.4-8.8 3.6 1.2 5.5 3.6 5.8 5.3z" id="path1689"/></g></svg>