<svg xmlns="http://www.w3.org/2000/svg" width="36.639" height="36.639" viewBox="0 0 9.694 9.694"><g fill="red"><path d="M0 .662h3.63v1.675H2.175v1.587h1.36v1.593h-1.36v1.84h1.598v1.675H0zM9.694 4.307H7.517V2.852c0-.423-.023-.687-.07-.792-.046-.105-.149-.157-.307-.157-.18 0-.293.063-.341.19-.049.128-.073.404-.073.828V6.81c0 .407.024.672.073.797.048.123.157.186.326.186.161 0 .267-.063.317-.187.05-.124.075-.416.075-.876V5.677h2.177v.326c0 .867-.061 1.481-.184 1.844-.122.362-.392.68-.811.952-.419.273-.935.41-1.549.41-.638 0-1.163-.116-1.577-.347-.413-.231-.688-.55-.822-.96-.134-.407-.201-1.022-.201-1.843V3.614c0-.603.02-1.056.062-1.358.041-.3.164-.591.37-.87.204-.28.489-.5.852-.66.364-.16.782-.24 1.254-.24.642 0 1.17.124 1.587.372.418.248.691.556.822.927.131.37.197.945.197 1.727z"/></g></svg>