<svg xmlns="http://www.w3.org/2000/svg" width="274.6" height="274.6"><g fill="#42145f"><path class="st0" d="M240.6 180.4c0-9.2-.4-107.2-.5-111.2l-.2-10.6-9.9-4.7c-30.6-14.3-60.5-18.9-78.5-20.3.8.9 1.7 1.8 2.9 2.5 18.1 1.7 46.1 6.4 74.7 19.9l8.7 4.1.2 9.2c.1 4 .5 101.9.5 111.1 0 11.7-17.4 29.7-31.5 43.2-11.8 11.4-35.1 33-63 45.4l-6.7 3-6.7-3c-27.9-12.5-50-33.3-61.8-44.7-14-13.5-32.6-32.2-32.6-44 0-9.3.4-107.2.5-111.1l.2-9.2 8.7-4.1c28.8-13.5 57-18.3 75.1-19.9 1.1-.8 2.1-1.6 2.8-2.5-18 1.4-48.1 5.9-78.9 20.4l-9.9 4.7-.2 10.6c-.1 4-.5 101.9-.5 111.2 0 10 12.5 25.5 33.3 45.6 11.9 11.5 34.2 32.6 62.5 45.2l7.6 3.4 7.6-3.4c28.3-12.6 51.8-34.4 63.7-45.9 20.6-20.2 31.9-34.9 31.9-44.9zM137.3 33.6c.1-.2.2-.4.2-.7h-.4c.1.3.2.5.2.7z"/><path class="st0" d="M231.4 70.6l-.1-6.1-5.6-2.7C203.3 51 181 45.8 164 43.4c-.3 3.1-.7 7.7-1 11.6 14.6 2.2 33.3 6.8 52.1 15.8l4.9 2.4.1 5.3c0 2.6-.1 46.5-.1 74l9.5 3.9-9.5 9v8.7c0 9.6-17.6 28.2-25.2 35.7-10 10-30.4 28.3-53.9 39.1l-3.8 1.8-3.8-1.8c-23.6-10.8-43.9-29.2-53.9-39.1-7.6-7.5-25.2-26.1-25.2-35.7v-9.3l-9.2-8.7 9.2-3.7c-.1-27.5-.2-71.2-.1-73.8l.1-5.3 3.6-2.4c19-9.2 38.8-13.7 53.9-15.9-.3-3.9-.7-8.5-1-11.5-17.4 2.4-41 7.5-63.7 18.4l-4 2.7-.1 6.1c-.1 4.2.2 98 .2 106.2 0 10.9 20 32 28.6 40.6 11.4 11.3 34.5 32.1 61.2 44.4l4.4 2 4.4-2c26.7-12.3 49.8-33.1 61.2-44.4 8.6-8.6 28.6-29.6 28.6-40.6-.2-8.3 0-102.2-.1-106.3z"/><path class="st0" d="M91.8 137.1c1.9-13.5 8.8-46.2 32.4-72.6 0 0-49.3 14.9-62.3 85.9zM182.3 137.1c-1.9-13.5-8.8-46.2-32.4-72.6 0 0 49.3 14.9 62.3 85.9zM79.2 197.4l-2.1-11.9-7.4 3.3v-4.3l26.9-12.2v4.3l-6.1 2.8-3.1 17.5c7.7 1.8 9.5 10.1 9.7 20.3v20.3c6.7 5.9 13.2 6.3 18.9 11.4v-31.7c0-9.4 6.4-17.3 15.2-19.8l-3.9-20.7h-9.6v-4.3h38.7v4.3h-9.6l-3.9 20.7c8.8 2.5 15.2 10.4 15.2 19.8v30.7L177 236v-18.8c.1-10.2 2-18.5 9.7-20.3l-3.1-17.5-6.1-2.8v-4.3l26.9 12.2v4.3l-7.4-3.3-2.1 11.9c6.2 2.6 7.8 10.4 7.8 19.7v-3l10.1-10.5v-31.9L176 155.3H97.8l-36.7 16.4v32.4c3.2 2.8 6.6 7.6 10.1 10.7.5-8.2 2.3-15 8-17.4z"/><path class="st0" d="M131 62.7c-23.8 28.4-27.3 59.8-27.7 73.6h67.5c-.3-13.8-3.9-45.2-27.7-73.6 0 0 .6-8.3 13.2-8.5l.7-11.5s-16.3.8-16.1-32.7c0 0-1.3-.9-3.7-1h-.2c-2.5.1-3.7 1-3.7 1 .8 33.6-16.1 32.7-16.1 32.7l.7 11.5c12.4.2 13.1 8.5 13.1 8.5z"/><path class="st0" d="M132.3 4.7c0-2.6 2.1-4.7 4.8-4.7 2.6 0 4.8 2.1 4.8 4.7s-2.1 4.7-4.8 4.7c-2.6 0-4.8-2.1-4.8-4.7z"/></g></svg>