<svg xmlns="http://www.w3.org/2000/svg" width="554.4" height="554.4"><g fill="#2b3079"><path d="M433.6 513.467C392.667 540.4 341.467 554.4 282.8 554.4c-110.8 0-175.067-55.867-175.067-161.067 0-146.133 89.334-207.6 181.6-207.6 108 0 148.934 66.134 136 188.134L163.6 384c3.733 59.6 40.934 97.733 121.067 97.733 48.4 0 95.866-13.066 132.266-32.533zm-270-150l219.733-29.734c-6.533-56.8-42.8-79.066-102.4-79.066-77.333 0-113.6 36.266-117.333 108.8M252.267 0l14.4 119.333H290.8L305.333 0h-53.066M446.667 48.933L378.4 145.067l-21.2-11.6L400 23.733l46.667 25.2"/><path d="M446.667 48.933L378.4 145.067l-21.2-11.6L400 23.733l46.667 25.2M110.8 48.933l68.267 96.134 21.2-11.6-42.8-109.734-46.667 25.2"/></g></svg>