<svg xmlns="http://www.w3.org/2000/svg" viewBox="0 0 68.79 68.79"><path fill="#4951f5" d="M57.3 0H11.5A11.5 11.5 0 0 0 0 11.49V57.3a11.5 11.5 0 0 0 11.49 11.5H57.3a11.5 11.5 0 0 0 11.5-11.5V11.5A11.5 11.5 0 0 0 57.3 0zM15.48 56.13l-5.23-4.81c-.41-.35-.41-.9-.07-1.3l11.49-12.53a.93.93 0 0 0 0-1.17L11 23.52a.88.88 0 0 1 .13-1.23l5.44-4.61a.88.88 0 0 1 1.24.14l15.82 18.7c.2.35.2.9-.07 1.25l-16.79 18.3c-.34.34-.9.4-1.23 0zm43.4-.34c0 .55-.4.9-.89.9H33.64a.87.87 0 0 1-.9-.9v-6.67c0-.48.42-.9.9-.9h24.35c.48 0 .9.42.9.9z"/></svg>