<svg fill="currentColor" viewBox="0 0 26 400" height="26" class="text-logo dark:text-dark-contrastText" width="26" xmlns="http://www.w3.org/2000/svg"><g transform="translate(1740.98 1763.216)" fill="#4951f5"><path d="M-1594.98-1763.216h-266a67 67 0 00-67 67v266a67 67 0 0067 67h266a67 67 0 0067-67v-266a67 67 0 00-67-67zm29 325a37 37 0 01-37 37h-250a37 37 0 01-37-37v-163h324zm0-201h-324v-49a37 37 0 0137-37h250a37 37 0 0137 37z"/><rect x="-1859.979" y="-1700.216" width="38.1" height="38.1" rx="2.4" ry="2.4"/><rect x="-1801.979" y="-1700.216" width="38.1" height="38.1" rx="2.4" ry="2.4"/><rect x="-1743.979" y="-1700.216" width="38.1" height="38.1" rx="2.4" ry="2.4"/><rect x="-1727.979" y="-1468.216" width="114.3" height="38.1" rx="3.3" ry="3.3"/><path d="M-1818.98-1432.216a3 3 0 005 0l61-68a3 3 0 001-4l-59-69a3 3 0 00-4-1l-20 17a3 3 0 00-1 5l40 47a3 3 0 010 4l-43 47a3 3 0 001 4z"/></g></svg>