<svg xmlns="http://www.w3.org/2000/svg" width="207.742" height="207.742" viewBox="0 0 54.965 54.965"><g fill="#fdb751"><path d="M11.174 34.963c-1.472 0-8.915-.511-10.507-1.344 2.787 12.224 13.726 21.346 26.795 21.346 15.178 0 27.482-12.304 27.482-27.482C54.944 12.304 42.64 0 27.462 0h-.087C12.745.046.815 11.516.021 25.948c1.914 1.048 9.195 2.085 9.732 1.725 0-9.896 7.812-18.109 17.709-18.109 7.483 0 13.987 4.692 16.669 11.207-10.335 10.976-17.039 11.15-24.506 13.636.092.261 6.318 8.185 15.663.815l5.118 5.026c-3.488 3.57-6.302 4.595-12.4 5.338-9.789.924-16.99-10.014-16.832-10.623" paint-order="markers fill stroke"/><path d="M16.935 27.437c-.156-3.666 1.438-6.796 5.874-9.505 4.436-2.709 12.126.668 11.95 1.662.148.505-11.946 8.028-17.824 7.843z"/></g></svg>