<svg xmlns="http://www.w3.org/2000/svg" xml:space="preserve" viewBox="0 0 1409 1442"><path fill="#fcc81c" fill-rule="evenodd" d="M0 0h1409v1442H0z"/><path fill="#3b3d3f" d="M329 396H135v11h33v249h-34v12h203l7-87h-8v1c-5 18-10 35-20 51-13 23-25 23-62 23h-41V536h10c35 0 45 6 46 51v2h9V475h-9v1c-2 18-2 28-6 34-7 13-22 14-39 14h-11V407h28c35 0 55 0 70 25l8 19 6 22h8l-3-77h-2zm100 264c-20 0-25-18-26-29a425 425 0 0 1 1-89c3-24 18-27 25-27 17 0 28 16 31 23 9 17 11 35 11 50 0 57-28 72-42 72m82-4V396h-69v11h29v124c-6-10-19-28-46-28-34 0-69 30-69 85 0 61 43 84 69 84 25 0 39-15 46-29v25h65v-12h-25Zm270-148h-61v11h26l-30 98-18-50-3-8-19-51h-16l-34 108-13-37-6-18-16-42h26v-11h-88v11h19l59 153h14l34-107 41 107h15l48-153h23v-11h-1zm89 92c-1 20-2 32-13 43-3 2-10 8-21 8-10 0-22-6-22-25 0-31 30-38 56-38zm57 50-2 2c-3 3-6 6-10 6-7 0-7-7-7-21v-79c0-15 0-28-11-39a70 70 0 0 0-47-16c-38 0-64 22-64 42 0 11 7 19 18 19 12 0 19-9 19-18 0-5-3-9-5-13l-3-5c0-4 12-14 30-14 23 0 24 15 25 26v37c-9 0-32 1-51 7-28 9-44 27-44 49 0 23 18 39 44 39 22 0 40-11 51-29 1 6 2 15 10 21 6 5 15 8 23 8 17 0 26-9 30-13l1-1zm85-124-6 13v-32h-66v12h26v137h-26v11h90v-11h-25v-45c1-24 1-44 12-70 7-18 14-18 14-18 2 0 2 0 3 7 1 13 9 19 19 19 13 0 22-9 22-21 0-14-11-24-26-24-14 0-27 8-37 22m141 134c-19 0-24-16-26-29a425 425 0 0 1 1-89c3-24 18-27 25-27 17 0 27 16 31 23 9 17 10 35 10 50 0 57-27 72-41 72m82-4V396h-69v11h29v124c-6-10-19-28-46-28-34 0-69 30-69 85 0 61 42 84 69 84 25 0 39-15 46-29v24h65v-11zM339 986c0 44-36 57-83 57-16 0-19-1-29-3v-48l15 1c28 0 30-13 30-33V725h67v261zm126-22c16 0 24-13 24-59 0-42-5-58-25-58s-23 16-23 58c-1 46 7 58 24 58m0-152c62 0 94 40 94 94 0 56-30 95-94 95s-94-39-94-95c-1-54 31-94 93-94m125 4h67v24h1c14-18 35-28 60-28 27 0 44 16 44 41v145h-67V868c0-10-4-16-17-16-7 0-12 2-17 7l-4 5v132h-67V815Zm319 69c-1-17-2-36-26-36-19 0-24 19-24 36zm-51 35c1 15 4 42 31 42 16 0 30-10 34-24l45 14c-2 8-23 49-83 49-65 0-94-45-94-95 0-51 31-94 93-94 65 0 87 48 87 95v13H858zm253-48c-6-11-15-24-31-24-14 0-20 6-20 12 0 29 102 20 102 80 0 38-34 61-84 61-46 0-76-21-87-51l51-14c8 14 17 26 36 26 13 0 22-5 22-13 0-30-103-18-103-81 0-19 22-56 82-56 33 0 67 13 79 49z"/></svg>