<svg xmlns="http://www.w3.org/2000/svg" viewBox="0 0 552.9 552.9"><path fill="#02262b" d="m353.4 172 10.7-51H51.3L0 366h261.5l-14.4 65.8h250.5L553 172z"/><path fill="#fff" d="M106.6 334.8c-7 0-13.8-1.2-20-3.5a46.7 46.7 0 0 1-27.7-27c-2.7-6.6-4-14.2-4-22.8 0-11.7 1.6-22.4 4.8-32s7.8-18 13.7-24.9a60.5 60.5 0 0 1 47.7-21.7 51 51 0 0 1 18.7 3.5 44.6 44.6 0 0 1 25.9 26 57.9 57.9 0 0 1 3.8 26.5l-.4 5.2-.5 5.2c-.1 1.7-.3 3.1-.6 4.3H76.2a97.6 97.6 0 0 0-.2 6.4c0 6.5 1 12 2.8 16.7s4.4 8.4 7.4 11.3c3 2.9 6.4 5 10.2 6.3s7.6 2 11.5 2c8.4 0 15.2-1.5 20.3-4.4s9-6.9 11.7-11.8h21.6a42.4 42.4 0 0 1-18.2 24.7c-4.7 3.1-10.1 5.6-16.3 7.4s-13 2.6-20.4 2.6zm41.5-77.6.2-2.2v-3.2c0-4.1-.6-8-1.8-11.8a26.2 26.2 0 0 0-14.6-16.6 36 36 0 0 0-38 7.5c-3.4 3.1-6.4 7-9 11.4s-4.5 9.4-6 14.8h69.2zm79.5 77.6a45 45 0 0 1-32.7-14c-4.2-4.4-7.6-9.9-10-16.3s-3.7-13.5-3.7-21.3a93.2 93.2 0 0 1 8.9-41.3 76.6 76.6 0 0 1 10.2-16.2 67 67 0 0 1 13.3-12.3 58.4 58.4 0 0 1 15.7-7.8A57.4 57.4 0 0 1 247 203a48 48 0 0 1 24.2 7.2 35.5 35.5 0 0 1 14 18.6h1.8l15.7-74.1h20.7l-37.8 178H266l3.7-17.4h-2a49.8 49.8 0 0 1-40.1 19.6zm6.5-18.3c6.6 0 12.7-1.6 18.4-4.7a47.7 47.7 0 0 0 14.7-12.7c4.1-5.4 7.4-11.8 9.8-19s3.5-15.2 3.5-23.7c0-5.4-.7-10.3-2.2-14.6-1.5-4.3-3.7-8-6.4-11a28 28 0 0 0-10-7 38.8 38.8 0 0 0-31.6 1.9c-5.6 2.8-10.5 6.9-14.6 12s-7.3 11.5-9.6 18.7-3.6 15-3.6 23.7c0 5.3.8 10.3 2.3 14.7s3.7 8.4 6.5 11.6a29 29 0 0 0 22.8 10.1zm101.8 81.8 55.4-65.7h3.8l29.9 65.7h45.8l-44.3-97.8 82.4-95h-46l-50.4 62.3H410l-26.6-62.3h-46.7l40 90.5-86.3 102.3z"/></svg>