<svg xmlns="http://www.w3.org/2000/svg" width="124" height="124" viewBox="0 0 32.808 32.808"><defs><clipPath clipPathUnits="userSpaceOnUse" id="a"><path d="M184.2 699.768h103.94v43.03H184.2z"/></clipPath><clipPath clipPathUnits="userSpaceOnUse" id="b"><path d="M184.209 699.768H288.14v43.03H184.209z"/></clipPath></defs><path d="M26.817 8.817v2.404h1.362l-2.428 2.995-2.43-2.995h1.368V8.817h-4.476v2.691l3.868 4.768-3.868 4.772v.48h1.844v2.464h2.632v-2.464h-1.523l2.587-3.192 2.59 3.192h-1.526v2.464h5.991v-2.464h-1.123l-4.262-5.252 4.097-5.055h1.288V8.817z" fill="#209fda"/><path d="M18.67 8.817v2.404h1.31l.233.287V8.817zM19.824 21.528H18.67v2.464h3.387v-2.464h-1.844v-.48z" fill="#026ba4"/><g clip-path="url(#a)" transform="matrix(.35278 0 0 -.35278 -64.985 270.854)"><path d="M209.867 709.955h6.03a16.516 16.516 0 00-2.957-4.78 16.67 16.67 0 00-3.073 4.78M209.88 719.293h-1.075a16.707 16.707 0 01-.027-5.555h1.148c.236.857.36 1.762.36 2.698 0 .994-.14 1.954-.405 2.857m0 0c.265-.903.406-1.863.406-2.857 0-.936-.125-1.841-.361-2.698h5.87a9.727 9.727 0 00-.378 2.698c0 .994.149 1.954.427 2.857zm3.059 8.403a16.635 16.635 0 01-3.743-6.684 9.823 9.823 0 00.684-1.72h5.964c.18.59.416 1.158.7 1.694a16.622 16.622 0 01-3.605 6.71" fill="#78212e"/></g><g clip-path="url(#b)" transform="matrix(.35278 0 0 -.35278 -64.985 270.854)"><path d="M209.197 721.012a16.056 16.056 0 01-.392-1.72h1.076a9.745 9.745 0 01-.684 1.72m25.45-18.234v-3.01h2.484v5.218a16.188 16.188 0 00-2.484-2.208m6.197 33.19h-3.713v6.815h-7.014v-6.814h4.53v-5.875c-2.634 1.895-5.87 3.007-9.422 3.007a16.617 16.617 0 01-12.284-5.405 16.633 16.633 0 003.605-6.71 9.723 9.723 0 008.599 5.177c5.372 0 9.502-4.355 9.502-9.727v-.053c-.027-5.348-4.148-9.673-9.502-9.673a9.724 9.724 0 00-9.348 7.028h-7.02a16.519 16.519 0 011.089-3.783h6.032a16.538 16.538 0 00-2.957-4.78 16.616 16.616 0 0112.284-5.403c3.553 0 6.788 1.11 9.422 3.006a16.188 16.188 0 012.484 2.208v1.766h3.27l1.104 1.36v27.04z" fill="#8a8c8f"/><path d="M207.913 709.955a9.339 9.339 0 00-7.128-3.245c-4.436 0-8.178 2.969-9.348 7.028h17.341a16.707 16.707 0 00.027 5.555h-24.36a16.809 16.809 0 01-.028-5.555c1.29-7.921 8.163-13.966 16.448-13.966 4.862 0 9.131 2.082 12.075 5.404a16.67 16.67 0 00-3.073 4.779zm-7.048 23.146c-8.23 0-15.067-5.965-16.42-13.808h7.04a9.729 9.729 0 009.3 6.87c3.717 0 6.841-2.086 8.412-5.151a16.611 16.611 0 003.743 6.684c-2.944 3.322-7.213 5.405-12.075 5.405m16.047-13.808c-.094.575-.216 1.14-.366 1.693a9.698 9.698 0 01-1.128-4.55c0-.936.132-1.841.38-2.698h1.14a17.627 17.627 0 01-.026 5.555" fill="#b72868"/></g></svg>