<svg xmlns="http://www.w3.org/2000/svg" viewBox="11.49 0.466 49.043 49.043" width="49.043" height="49.043"><path fill="#ffe600" d="M36.036.468c-7.872 0-13.978 6.398-13.978 13.88 0 6.627 4.326 10.197 4.326 10.197.43.377.32.573.016.882 0 0-4.342 3.948-4.342 10.058 0 8.373 6.698 14.026 13.978 14.026 8.14 0 13.928-6.62 13.928-13.93 0-6.29-4.167-10.006-4.167-10.006-.588-.565-.586-.66 0-1.176 0 0 4.168-3.505 4.168-10.055 0-7.4-5.948-13.878-13.929-13.88zm-3.11 7.2c.396 0 .746.205.95.515a1.135 1.135 0 011.98.147 1.136 1.136 0 012.064 0 1.134 1.134 0 012.166.475 1.137 1.137 0 01-2.166.48 1.136 1.136 0 01-2.062-.002 1.137 1.137 0 01-1.982.145 1.13 1.13 0 01-.307.314 1.135 1.135 0 01.007 1.865 1.133 1.133 0 010 1.865c.09.064.17.14.239.226a1.134 1.134 0 011.867.13 1.134 1.134 0 011.95-.012 1.137 1.137 0 110 1.18 1.136 1.136 0 01-1.952-.012 1.135 1.135 0 01-1.866.13c-.07.087-.152.164-.244.227a1.132 1.132 0 010 1.87 1.135 1.135 0 010 1.87c.12.08.223.186.304.31a1.133 1.133 0 011.983.14 1.136 1.136 0 012.063 0 1.137 1.137 0 110 .955 1.135 1.135 0 01-2.063-.002 1.136 1.136 0 01-1.98.148 1.136 1.136 0 11-1.598-1.552 1.136 1.136 0 010-1.87 1.137 1.137 0 010-1.87 1.135 1.135 0 01-.008-1.868 1.137 1.137 0 010-1.865 1.135 1.135 0 01.006-1.867 1.135 1.135 0 01.644-2.07l.004-.004zm0 21.166c.396 0 .746.205.95.514a1.135 1.135 0 011.98.146c.182-.39.574-.658 1.03-.658.456 0 .85.27 1.032.656.263-.57.937-.818 1.506-.558.404.187.662.592.66 1.036a1.137 1.137 0 01-2.166.482 1.142 1.142 0 01-2.063-.004 1.138 1.138 0 01-1.983.146 1.13 1.13 0 01-.304.312 1.137 1.137 0 01.003 1.867 1.133 1.133 0 010 1.866c.09.063.17.14.24.226a1.134 1.134 0 011.866.13 1.133 1.133 0 011.947-.014 1.137 1.137 0 110 1.18 1.136 1.136 0 01-1.95-.012 1.135 1.135 0 01-1.868.13 1.09 1.09 0 01-.245.23 1.134 1.134 0 01.002 1.867 1.135 1.135 0 01-.002 1.87c.12.085.224.19.305.313a1.133 1.133 0 011.983.14 1.138 1.138 0 012.064 0 1.138 1.138 0 011.508-.554 1.137 1.137 0 01-.957 2.06 1.14 1.14 0 01-.55-.552 1.14 1.14 0 01-1.516.55 1.14 1.14 0 01-.55-.55 1.138 1.138 0 01-1.98.147c-.2.312-.553.52-.951.52a1.14 1.14 0 01-.645-2.075 1.136 1.136 0 010-1.87 1.134 1.134 0 010-1.87 1.135 1.135 0 01-.003-1.867 1.132 1.132 0 010-1.863 1.133 1.133 0 01.002-1.865 1.136 1.136 0 01.646-2.072h.008z"/></svg>