<svg xmlns="http://www.w3.org/2000/svg" viewBox="-10 0 1455 1455" width="1455" height="1455"><path d="M0 656.5v-135c0-.667 1-1.5 3-2.5s5.333-2.167 10-3.5a850.59 850.59 0 0114.5-4c5-1.333 10.167-2.667 15.5-4 6-1.333 11.667-2.5 17-3.5s10.667-2.167 16-3.5c5.333-1.333 9.833-2.667 13.5-4 3.667-1.333 6.5-2.333 8.5-3 8-3.333 15.5-6.667 22.5-10s13.5-7 19.5-11 11.5-8.167 16.5-12.5 9.833-8.833 14.5-13.5c4.667-5.333 9-10.667 13-16s8-11 12-17c3.333-6.667 6.833-13.5 10.5-20.5s7.167-14.5 10.5-22.5h238c-16 13.333-30 27.667-42 43-12 15.333-21.333 31.667-28 49-7.333 18-12.833 36.833-16.5 56.5s-5.5 40.167-5.5 61.5c0 12 .833 23.5 2.5 34.5s3.833 21.833 6.5 32.5c3.333 10.667 7.333 20.833 12 30.5a204.14 204.14 0 0016 27.5c5.333 8.667 11.833 16.833 19.5 24.5 7.667 7.667 16.167 14.833 25.5 21.5 9.333 6.667 19.333 12.5 30 17.5 10.667 5 22.333 9.167 35 12.5l260 70c10.667 2.667 18.5 7.667 23.5 15s7.5 17 7.5 29c0 6.667-.833 12.5-2.5 17.5s-4.167 9.5-7.5 13.5c-4 3.333-8.167 6.167-12.5 8.5s-8.833 3.833-13.5 4.5c-4.667 1.333-9.667 2.333-15 3-5.333.667-11 1-17 1h-77c-10.667-2.667-20-7-28-13s-14.667-13.333-20-22a525.44 525.44 0 01-13-28c-4-9.333-7.333-19-10-29l-16-5H342c0 12.667 1 25.333 3 38 2 12.667 4.667 24.667 8 36 4 12 8.667 23.667 14 35 5.333 11.333 11.667 22.333 19 33 6.667 10 14 19.667 22 29 8 9.333 17 18 27 26a199.048 199.048 0 0030 23 316.425 316.425 0 0033 18H162v-428zm1045 217c0-10.667-.667-21.5-2-32.5a182.282 182.282 0 00-7-32.5 199.557 199.557 0 00-10.5-31c-4.333-10-9.5-19.667-15.5-29a220.764 220.764 0 00-20-26.5c-7.333-8.333-15.333-15.833-24-22.5-8.667-7.333-18.167-13.5-28.5-18.5-10.333-5-21.167-9.167-32.5-12.5l-282-82c-4-1.333-7.833-3.333-11.5-6s-7.167-6-10.5-10c-3.333-3.333-6-7.333-8-12s-3-9.667-3-15c0-4.667 1.167-8.833 3.5-12.5s5.5-7.167 9.5-10.5c4.667-3.333 9-5.833 13-7.5 4-1.667 8-2.5 12-2.5h81c4 0 8 .5 12 1.5s8 2.5 12 4.5 7.833 4.333 11.5 7a88.295 88.295 0 0110.5 9c3.333 3.333 6.5 6.667 9.5 10s5.833 7 8.5 11 5 7.833 7 11.5 3.667 7.167 5 10.5c2.667 0 6.5.167 11.5.5 5 .333 11.167.5 18.5.5a477.702 477.702 0 0022.5 1.5c7.667.333 15.5.5 23.5.5s15.833.167 23.5.5c7.667.333 15.167.5 22.5.5 7.333.667 13.667 1 19 1h81c0-21.333-2.5-41.833-7.5-61.5S987 480.5 977 462.5c-10.667-17.333-23.333-33.667-38-49-14.667-15.333-31.667-29.667-51-43h547v173h-194l-12 536H921c19.333-10.667 36.5-23.333 51.5-38 15-14.667 28.167-31 39.5-49 10.667-18 18.833-36.833 24.5-56.5 5.667-19.667 8.5-40.5 8.5-62.5z" fill="#fcb017" stroke="#080000" stroke-width="20"/></svg>