<svg xmlns="http://www.w3.org/2000/svg" width="70.564" height="70.564" fill="none"><g fill-rule="evenodd" clip-rule="evenodd"><path d="M37.773 20.517h-4.98a.614.614 0 01-.61-.614V.613c0-.336.275-.613.61-.613h4.98c.335 0 .61.277.61.614v19.29a.614.614 0 01-.61.613zM48.248 47.484l2.485-4.344a.616.616 0 01.836-.23l16.578 9.64a.626.626 0 01.227.842l-2.485 4.344a.615.615 0 01-.836.229l-16.578-9.64a.621.621 0 01-.227-.841zM19.834 43.14l2.484 4.343a.617.617 0 01-.227.843L5.513 57.964a.608.608 0 01-.836-.228l-2.484-4.344a.616.616 0 01.227-.843l16.578-9.638a.608.608 0 01.836.228z" fill="#32bdb5"/><path d="M66.666 24.777L61.518 15.8A1.107 1.107 0 0060 15.39L35.277 29.77 10.553 15.39c-.525-.312-1.206-.12-1.516.41l-5.148 8.977c-.311.53-.12 1.215.406 1.528l24.724 14.38v28.76c0 .613.489 1.119 1.11 1.119h10.284c.609 0 1.11-.494 1.11-1.12v-28.76l24.725-14.379c.537-.313.716-.999.418-1.528z" fill="#4b4f54"/></g></svg>