<svg xmlns="http://www.w3.org/2000/svg" viewBox="0 0 200 56"><path fill="#097651" d="M169.4 0c-.9 0-1.8.1-2.8.4v.1l-7 2.4a8.4 8.4 0 0 0-5.7 7.8 9 9 0 0 0 .9 3.8l.5 1a22.5 22.5 0 0 0-2.8 3 17.5 17.5 0 0 0-4.3-2 28.7 28.7 0 0 0-18.8 1.7 17.9 17.9 0 0 0-23.3-12C105 2.8 102.5.3 99 .3h-7.2A8.1 8.1 0 0 0 86 3c-.9.8-1 2-1.4 3.3l-.5.3a7.5 7.5 0 0 0-5.7-2.2l-4.4.2A7.7 7.7 0 0 0 66.1.8l-7 1.1a8.1 8.1 0 0 0-5.6 3.5v.3l-5.6.3c-1.5.1-3 .6-4.1 1.6a7.6 7.6 0 0 0-4.2-2.8L22.6.4a8 8 0 0 0-9.1 4l-3.2 5.9c-.6 1.2-1 2.5-1 3.9a8 8 0 0 0-6.2 8V30c0 1.2.4 2.6 1 3.7l-1 .9A8.3 8.3 0 0 0 0 40.2v1a8 8 0 0 0 1.9 5.2l5 6.1a8.8 8.8 0 0 0 12.4.4l3.1-3c3.6 4.6 9 5 11 5l12.3-.7a7 7 0 0 0 4.5-1.8c2.3 1.3 4.8 2.3 7.4 2.8a35.2 35.2 0 0 0 27-5c.3.7.7 1.4 1.3 2a8.3 8.3 0 0 0 5.8 2.5H99c1.3 0 2.2-.8 3.2-1.3a18.3 18.3 0 0 0 14.5.3 20 20 0 0 0 8.8-7.8 11 11 0 0 0 1.9-1l2 5a8.1 8.1 0 0 0 8.5 5.3 33 33 0 0 0 16.4-6.9 27.8 27.8 0 0 0 24.5 7 35.7 35.7 0 0 0 18.6-9 8.3 8.3 0 0 0 1.4-10.6l-4.4-6.7c-.6-1-1.5-1.7-2.5-2.2a7.8 7.8 0 0 0 4.4-3.6 9.4 9.4 0 0 0 1-4.4c0-.8-.1-1.7-.4-2.5l-2.8-7a8.4 8.4 0 0 0-9.3-5l-2.3.4-5.3 1.2-.8-1.7a7.5 7.5 0 0 0-6.9-4.2Z"/><path fill="#fff" d="m169.2 8.3-7.1 2.4 3.7 7.8c-18.3 8.7-10.2 32 11.6 28.7a26.7 26.7 0 0 0 14.4-6.9l-4.3-6.7c-3.5 2.5-6.1 4.5-12 5.3-10.8 1.5-15.7-8.4-7-13.4l.4-.2 2.8 6.7 7.2-2.8-3-6.8a75.5 75.5 0 0 1 13.2-3.1l-2.7-7c-3.6.7-8 1.3-13.6 3.3zm-148.6 0-3 5.8c2 .7 14.6 4 16.7 4.7l3-6.1zm71.1.3v5.9l-3.4-1.3-2.2 6.3 5.6 2.5v5.2c-2.5 2.5-4.4 4.8-6 6.7l3.6 7.1 2.4-3.2v8.8H99c0-1.3-.2-8 0-16.5a32.5 32.5 0 0 1 8.7-8.3c5.5-2.8 7.5 1 7 4.7a11.4 11.4 0 0 0-13.9 11c-.3 7.6 6.1 11.3 13 8.7 3.2-1.3 5.7-4.4 7.3-9a14.3 14.3 0 0 1 1.6 1.3l1.7-7c-.4-.3-1.3-1.3-2-1.7a22.2 22.2 0 0 0-.7-9.2c-2.5-8.2-11.8-9.4-19-4A24.8 24.8 0 0 0 99 20V8.6Zm-24.2.3-7.2 1.2.8 3.4c-5 .3-9.5.4-12.4.7l.5 6.6c2-.3 7.8-.7 13.7-1l1 2.9L48.1 24l.4 7.3c1.6-.3 9.4-1 17-1.6l1.5 5 7.6-1.8c-.3-1.2-.8-2.1-1.2-4 4.6-.4 7.2-.5 8-.5l-.8-6.7c-1.2 0-4.4 0-9.2.4-.4-.9-.6-1.9-.9-2.8l8.2-.4-.5-6.3-9.7.4c-.6-1.8-1-3.6-1.1-4Zm-33 11h-1c-3.9.2-15 1.4-22.1 2.2v8l15.1-3c-1.5.7-15.2 11.8-18.2 14l5 6.1c2.2-2.3 6.1-5.7 9.3-8.5a7.5 7.5 0 0 1 3.5-1.5c1.6-.1 2.5-.2 2 2.5-1.5 7 3.7 7 6 7a53.8 53.8 0 0 0 10.4-.6v-7.6c-.9 0-2.6.4-5.7.6-3.6.3-3.4-1-3.1-4 .2-2.9-1.5-3.6-3.4-3.6H31c2.7-2.2 5-4 6-5 3-2.5 2.4-6.4-2.5-6.6zm107.3 4a35.5 35.5 0 0 0-15.2 4.5l2.7 6.6c4.8-2.5 9.7-4.9 13-4.5 4.4.5 4.4 4.6 1.2 6.5a45.6 45.6 0 0 1-9.2 3.2L137 47s7.3-.8 12.2-5.1c3.5-3.2 4-6.1 3.7-9.2-.2-3-2-6.8-7-8.3-1.3-.4-2.6-.6-4-.6zm-30 8.9c1.3 0 2.5.5 2.5.5s0 4.7-3.7 6.6c-3.2 1.3-4.4-1.4-3.2-3.7 1.2-2.6 3-3.4 4.3-3.4zm-57.4.7-8 1c4.8 19 29.2 14.2 35 7.3l-3.1-7.4c-6 6.8-20.8 8.2-23.8-1Z"/></svg>