<svg xmlns="http://www.w3.org/2000/svg" viewBox="0 0 319.69 89.51">
	<style>.cls-1{fill:#026141;}.cls-2{fill:#097651;}.cls-3{fill:#fff;}</style>
	<path class="cls-1" d="M206.72,55.78l-4.39-10.47c13.37-6.6,22.69-8.81,30.76-6.42,7.92,2.37,11,8.45,11.32,13.33s-.44,9.58-6,14.61C230.61,73.72,218.9,75,218.9,75l-4.17-10.79s9.83-2.42,14.66-5.18c5.13-3,5.13-9.68-2-10.42C222.05,48,214.36,51.79,206.72,55.78Z"/><path class="cls-2" d="M196.51,33.57a13,13,0,0,0-7.27,11.74,12.45,12.45,0,0,0,1,5.07l4.37,10.47a13.09,13.09,0,0,0,7.63,7.26h.13c.07.28,0,.61.12.86l4.2,10.81a13.1,13.1,0,0,0,13.61,8.29c1.66-.17,16.26-2,26.83-11.43,10.23-9.27,10.85-18.88,10.37-25.27-.75-11.66-8.82-21.49-20.61-25C222.74,22.12,208.51,27.64,196.51,33.57Z"/><path class="cls-2" d="M59.7,20.22C58.28,19.83,35.16,13.8,33,13.3l-4.95,9.2c3.32.95,23.48,6.32,26.73,7.36Z"/><path class="cls-2" d="M21.46,7.09l-4.93,9.23a13,13,0,0,0,8,18.8l26.33,7.25c6,1.62,12.79-1,15.68-6.55l4.89-9.63a13.14,13.14,0,0,0,.37-11.32,12.86,12.86,0,0,0-8.56-7.29L36.1.55A12.89,12.89,0,0,0,21.46,7.09Z"/><path class="cls-2" d="M62,62.37c-5.82.41-5.37-1.52-5-6.51.33-4.5-2.39-5.67-5.36-5.56-.85,0-1.53,0-2.15.06,4.29-3.56,7.88-6.51,9.73-8.16,4.9-4.27,3.73-11-5.67-10.53-6.29.3-23.95,2.24-35.33,3.57V48c1.68-.45,18.91-3.9,24.17-4.88-2.4,1.19-24.42,18.8-29.23,22.53l8,9.78c3.64-3.83,9.82-9.25,15-13.77a12,12,0,0,1,5.53-2.26c2.61-.23,3.92-.34,3.21,3.92-2.38,11,5.91,11,9.65,11.24a86,86,0,0,0,16.69-1l-.14-12.08C69.66,61.59,67,62.06,62,62.37Z"/><path class="cls-2" d="M52.82,18.56,16.65,22.25a12.9,12.9,0,0,0-11.57,13V48a11.59,11.59,0,0,0,1.72,5.9L5.09,55.26a13.24,13.24,0,0,0-5,8.94c0,.5-.1,1-.1,1.46A13.21,13.21,0,0,0,3,74l8.07,9.76c2.28,2.82,6,4.18,9.57,4.43A14.38,14.38,0,0,0,30.8,84.41s2.65-2.51,4.93-4.58C41.45,87,50.15,87.51,53.47,87.7c.39,0,19.59-1.15,19.59-1.15,7-.44,11.29-6.09,11.23-13.13l-.1-12.1a13.07,13.07,0,0,0-4.3-9.72,12.85,12.85,0,0,0-9.19-3.28c2.61-3.48,4.42-7.37,4.42-11.44a17.21,17.21,0,0,0-1.27-6.65C70.68,22.4,62.85,18.05,52.82,18.56ZM62.88,75.43h0Z"/><path class="cls-2" d="M77,38.3l.71,11.61c2.46-.38,15-1.75,27.18-2.6,1.08,3.5,2.15,7,2.34,8l12.22-2.78c-.59-2.06-1.32-3.47-2.1-6.41,7.6-.71,11.59-.78,12.88-.78L129,34.61c-1.91,0-7,.11-14.72.61-.58-1.42-.92-3-1.4-4.49,6.38-.36,11.44-.58,13-.67l-.74-9.93c-2.61,0-8.54.21-15.45.58-.94-2.87-1.65-5.8-1.88-6.46L96.44,16c.32,1.51.66,3,1.29,5.41-8,.54-15.24.72-19.84,1.17l.68,10.52c3.22-.4,12.52-1.08,22.1-1.71.56,2.3.86,3,1.31,4.71C91.36,37,81.58,37.75,77,38.3Z"/><path class="cls-2" d="M105.71,1.29,94.4,3.05a12.93,12.93,0,0,0-8.89,5.46c-.1.16-.08.35-.15.49l-8.73.54A12.61,12.61,0,0,0,67.81,14a12.81,12.81,0,0,0-3,8.5c0,.33,0,.68,0,1,0,0,.67,10.38.71,10.46-.56,1.46-1.59,2.64-1.59,4.32,0,.27,0,.57,0,.86l.71,11.63c.2,3.54,2.34,6.78,5,9.09a14.21,14.21,0,0,0,10.28,3s9-.84,16.71-1.59c3,4.69,8.1,8,13.54,6.8l12.18-2.82a13,13,0,0,0,8.63-6.1c.18-.4.13-.79.29-1.17,3.28-.45,6.59-1.76,8.65-4.26a13.57,13.57,0,0,0,3.38-8.66c0-.45,0-.86-.08-1.31L142,33.07a13.42,13.42,0,0,0-3.32-6.79c-.18-2.89-.57-7.12-.57-7.12-.47-7-5.76-12.41-12.84-12.14l-7,.26A12.33,12.33,0,0,0,105.71,1.29Z"/><path class="cls-2" d="M125.12,54.87c-9.42,10.84-33.2,13.14-38-1.42L74.28,55c7.6,30.26,46.56,22.82,55.88,11.7Z"/><path class="cls-2" d="M85.55,40.43,72.73,42a13.43,13.43,0,0,0-9.25,5.58,13.2,13.2,0,0,0-1.91,10.63C65.55,74,76.35,84.66,92,88.27c17.18,4,38.8-1.92,48.17-13.15a13,13,0,0,0,2-13.48l-5.05-11.83a13,13,0,0,0-21.92-3.53c-2.7,3-9.17,5-13.68,4.08-.39-.09-1.78-.42-1.92-1A13.19,13.19,0,0,0,85.55,40.43Z"/><path class="cls-1" d="M299.56,53.6c-5.57,3.95-9.68,7.18-19.15,8.52-17.19,2.37-24.93-13.45-11-21.43.18-.13.38-.23.54-.36,2.13,4.78,3.85,8.87,4.41,10.79l11.5-4.51c-.89-2.3-2.72-6.2-4.85-10.9a120.7,120.7,0,0,1,21.23-4.93l-4.36-11.15c-5.66,1.16-12.82,2.05-21.81,5.24-2.68-5.69-4.95-10.24-5.71-11.67L259,17c1.29,2.4,3.42,7,5.94,12.37-29.16,13.92-16.22,51.3,18.65,45.92a42.64,42.64,0,0,0,23-11.08Z"/><path class="cls-2" d="M266.3.74,254.86,4.49A13.46,13.46,0,0,0,247,12.12a13.31,13.31,0,0,0-1,5,14,14,0,0,0,1.41,6.08l.77,1.61a35.9,35.9,0,0,0-12.47,27,34.8,34.8,0,0,0,1.49,10.27c4.8,15.5,21.93,30.26,48.35,26.19A56.65,56.65,0,0,0,315.34,74a13.22,13.22,0,0,0,2.18-17.06l-7.06-10.59a11.26,11.26,0,0,0-4-3.57,13.38,13.38,0,0,0,7-5.8A14.9,14.9,0,0,0,315.23,30a11.29,11.29,0,0,0-.76-4.07l-4.34-11.11a13.42,13.42,0,0,0-14.88-8.08l-3.64.73-8.4,2.12c-.47-1-1.4-2.88-1.4-2.88C278.94.9,272.53-1.29,266.3.74Z"/><path class="cls-1" d="M195.44,47.56a35.46,35.46,0,0,0-1.15-14.76c-3.92-13.15-18.79-15-30.22-6.28a39.61,39.61,0,0,0-6,5.39c0-8.66,0-16.46,0-18.29h-11.5c.07,1.18,0,4.22,0,9.36l-5.33-1.9-3.66,10c1.94.79,5.92,2.53,9,3.87.07,2.6,0,5.79,0,8.32-3.92,4.13-6.92,7.71-9.67,10.79l5.76,11.39c.84-1.18,2.37-3.26,3.91-5.2,0,6.85.07,12.25,0,14h11.5c0-1.9-.14-12.72,0-26.29,4.76-6,10-11.08,14.1-13.19,8.72-4.45,11.87,1.54,11.18,7.57C171.1,40,161.46,48.54,161,59.76c-.49,12.22,9.74,18.15,20.63,13.89,5.17-2,9.29-6.93,11.79-14.32A22.8,22.8,0,0,1,196,61.5l2.71-11.28C198,49.81,196.56,48.18,195.44,47.56ZM176.85,63.74c-5.23,1.89-7.1-2.26-5.26-6.07,3.89-8.14,10.95-4.52,10.95-4.52S182.8,60.61,176.85,63.74Z"/><path class="cls-2" d="M146.61.5a13.3,13.3,0,0,0-9.26,4.19C136,6,135.94,8.05,135.22,9.89a12.64,12.64,0,0,0-6.3,6.68l-3.62,10a13.42,13.42,0,0,0-.77,4.4c0,4.28,2.45,8,6,10.54-.28.38-3.42,3.85-3.42,3.85A13.27,13.27,0,0,0,125.25,60l5.85,11.4a10.9,10.9,0,0,0,2.48,2.69,13.84,13.84,0,0,0,3.76,9.27,13.48,13.48,0,0,0,9.27,4h11.5c1.91,0,3.35-1.34,5.08-2.12a29.34,29.34,0,0,0,23.2.58c5.76-2.23,10.25-6.92,14-12.54,4-1.59,7.36-4.56,8.4-8.75l2.72-11.3a11.57,11.57,0,0,0,.3-2.51,14.82,14.82,0,0,0-3-8.09c0-.11,0-.21,0-.33a45.14,45.14,0,0,0-2-13.34A28.62,28.62,0,0,0,188.18,9.49c-5.92-1.9-12.34-1.54-18.59.19C167.84,4.56,163.82.5,158.11.5Zm27.52,60.06c0-.08,0-.19,0-.31a5.21,5.21,0,0,1,1.92-4.09,5.64,5.64,0,0,1,4.78-.9s0,0,.05,0c-1.39,4.19-3.15,5.86-3.93,6.17a4.37,4.37,0,0,1-2.64.44A3.44,3.44,0,0,1,174.13,60.56Z"/><path class="cls-2" d="M159.7,52c-3.26,6.89-2.33,14.73,2.39,19.91s12.06,6.76,19.24,4.13a5.63,5.63,0,0,0,1.61-.75c9.8-5.14,12.93-15.41,12.68-22.67-.26-6.64-.41-10.59-7.08-11.12L172.4,40.29C168.56,41.56,163.23,44.63,159.7,52Z"/><path class="cls-3" d="M206.72,55.78l-4.39-10.47c13.37-6.6,22.69-8.81,30.76-6.42,7.92,2.37,11,8.45,11.32,13.33s-.44,9.58-6,14.61C230.61,73.72,218.9,75,218.9,75l-4.17-10.79s9.83-2.42,14.66-5.18c5.13-3,5.13-9.68-2-10.42C222.05,48,214.36,51.79,206.72,55.78Z"/><path class="cls-3" d="M59.7,20.22C58.28,19.83,35.16,13.8,33,13.3l-4.95,9.2c3.32.95,23.48,6.32,26.73,7.36Z"/><path class="cls-3" d="M62,62.37c-5.82.41-5.37-1.52-5-6.51.33-4.5-2.39-5.67-5.36-5.56-.85,0-1.53,0-2.15.06,4.29-3.56,7.88-6.51,9.73-8.16,4.9-4.27,3.73-11-5.67-10.53-6.29.3-23.95,2.24-35.33,3.57V48c1.68-.45,18.91-3.9,24.17-4.88-2.4,1.19-24.42,18.8-29.23,22.53l8,9.78c3.64-3.83,9.82-9.25,15-13.77a12,12,0,0,1,5.53-2.26c2.61-.23,3.92-.34,3.21,3.92-2.38,11,5.91,11,9.65,11.24a86,86,0,0,0,16.69-1l-.14-12.08C69.66,61.59,67,62.06,62,62.37Z"/><path class="cls-3" d="M77,38.3l.71,11.61c2.46-.38,15-1.75,27.18-2.6,1.08,3.5,2.15,7,2.34,8l12.22-2.78c-.59-2.06-1.32-3.47-2.1-6.41,7.6-.71,11.59-.78,12.88-.78L129,34.61c-1.91,0-7,.11-14.72.61-.58-1.42-.92-3-1.4-4.49,6.38-.36,11.44-.58,13-.67l-.74-9.93c-2.61,0-8.54.21-15.45.58-.94-2.87-1.65-5.8-1.88-6.46L96.44,16c.32,1.51.66,3,1.29,5.41-8,.54-15.24.72-19.84,1.17l.68,10.52c3.22-.4,12.52-1.08,22.1-1.71.56,2.3.86,3,1.31,4.71C91.36,37,81.58,37.75,77,38.3Z"/><path class="cls-3" d="M125.12,54.87c-9.42,10.84-33.2,13.14-38-1.42L74.28,55c7.6,30.26,46.56,22.82,55.88,11.7Z"/><path class="cls-3" d="M299.56,53.6c-5.57,3.95-9.68,7.18-19.15,8.52-17.19,2.37-24.93-13.45-11-21.43.18-.13.38-.23.54-.36,2.13,4.78,3.85,8.87,4.41,10.79l11.5-4.51c-.89-2.3-2.72-6.2-4.85-10.9a120.7,120.7,0,0,1,21.23-4.93l-4.36-11.15c-5.66,1.16-12.82,2.05-21.81,5.24-2.68-5.69-4.95-10.24-5.71-11.67L259,17c1.29,2.4,3.42,7,5.94,12.37-29.16,13.92-16.22,51.3,18.65,45.92a42.64,42.64,0,0,0,23-11.08Z"/><path class="cls-3" d="M195.44,47.56a35.46,35.46,0,0,0-1.15-14.76c-3.92-13.15-18.79-15-30.22-6.28a39.61,39.61,0,0,0-6,5.39c0-8.66,0-16.46,0-18.29h-11.5c.07,1.18,0,4.22,0,9.36l-5.33-1.9-3.66,10c1.94.79,5.92,2.53,9,3.87.07,2.6,0,5.79,0,8.32-3.92,4.13-6.92,7.71-9.67,10.79l5.76,11.39c.84-1.18,2.37-3.26,3.91-5.2,0,6.85.07,12.25,0,14h11.5c0-1.9-.14-12.72,0-26.29,4.76-6,10-11.08,14.1-13.19,8.72-4.45,11.87,1.54,11.18,7.57C171.1,40,161.46,48.54,161,59.76c-.49,12.22,9.74,18.15,20.63,13.89,5.17-2,9.29-6.93,11.79-14.32A22.8,22.8,0,0,1,196,61.5l2.71-11.28C198,49.81,196.56,48.18,195.44,47.56ZM176.85,63.74c-5.23,1.89-7.1-2.26-5.26-6.07,3.89-8.14,10.95-4.52,10.95-4.52S182.8,60.61,176.85,63.74Z"/>
</svg>