<svg xmlns="http://www.w3.org/2000/svg" version="1.1" id="Layer_1" x="0" y="0" xml:space="preserve" width="33.5" height="33.5"><style type="text/css" id="style7302">.st0{fill:#1d94bc}</style><g id="g7941" transform="translate(2.85)"><path id="path7304" d="M13.5 6.9c0 .4-.3.7-.7.7h-1.2c-.4 0-.7-.3-.7-.7V.7c0-.4.3-.7.7-.7h1.2c.4 0 .7.3.7.7z" class="st0" fill="#1d94bc"/><path class="st0" d="M27.8 33.5H11V10.9h16.8V15H15.2v5.2h12.2v4H15.2v5.1h12.6z" id="path7306" fill="#1d94bc"/><path id="path7334" d="M.7 13.5c-.4 0-.7-.3-.7-.7v-1.2c0-.4.3-.7.7-.7h6.2c.4 0 .7.3.7.7v1.2c0 .4-.3.7-.7.7z" class="st0" fill="#1d94bc"/><path id="path7336" d="M16.8 9.4c-.3.3-.7.3-1 0l-.9-.9c-.3-.3-.3-.7 0-.9l4.4-4.4c.3-.3.7-.3 1 0l.9.9c.3.3.3.7 0 1z" class="st0" fill="#1d94bc"/><path id="path7338" d="M5 21.2c-.3.3-.7.3-1 0l-.9-.9c-.3-.3-.3-.7 0-.9L7.6 15c.3-.3.7-.3 1 0l.9.9c.3.3.3.7 0 1z" class="st0" fill="#1d94bc"/><path id="path7340" d="M3.2 5c-.3-.3-.3-.7 0-1l.9-.9c.3-.3.7-.3.9 0l4.4 4.4c.3.3.3.7 0 1l-.9.9c-.3.3-.7.3-1 0z" class="st0" fill="#1d94bc"/></g></svg>