<svg xmlns="http://www.w3.org/2000/svg" width="273.11" height="273.11"><path d="M85.4 40.307c15.223-4.96 32.046-5.034 47.276-.026 19.526 6.785 36.095 21.992 43.901 41.185 3.201-2.01 6.168-4.454 9.73-5.837 11.257-4.57 24.931-3.41 34.847 3.784 6.936 5.001 12.482 12.274 14.48 20.677 2.412 9.727.916 20.483-4.684 28.874 15.357 3.28 28.635 13.9 35.971 27.651 5.914 10.592 7.2 23.205 5.494 35.071-3.904 24.662-27.088 45.17-52.305 44.86-52.762.011-105.51.011-158.273 0-29.853.251-57.235-24.429-61.172-53.775-1.803-13.105-.015-26.914 6.278-38.676 6.364-12.414 16.857-22.76 29.6-28.593-1.05-15.412 2.071-31.329 10.55-44.406 8.983-14.005 22.47-25.36 38.306-30.789z" fill="#00a68e"/><g fill="#fff"><path d="M105.06 84.961c13.413-4.208 29.227 4.782 32.21 18.554-16.95 4.41-33.812 9.102-50.757 13.507-3.957-13.385 4.904-28.882 18.547-32.06z"/><path d="M158.593 93.452c1.734-2.726 6.24-2.61 8.092-.047 1.484 1.603 1.525 4.12.41 5.938-3.115 5.803-6.746 11.325-9.768 17.167 1.602 7.818 4.031 15.486 6.021 23.215 6.125-1.182 12.041-3.236 18.123-4.655 3.201-.845 6.676 2.171 6.17 5.487.041 2.422-1.959 4.361-4.23 4.834a1246.67 1246.67 0 00-17.199 4.65c1.977 8.035 2.633 16.371.916 24.521 6.904 3.852 13.713 7.867 20.523 11.854 1.758.86 2.453 2.734 3.188 4.404-.547 3.314-3.842 6.818-7.365 5.102-6.988-3.727-13.758-7.865-20.662-11.724-5.232 7.325-12.578 13.296-21.29 15.907-6.445-23.65-12.708-47.345-19.086-71.016-3.289.951-6.573 1.918-9.93 2.591 5.82 23.82 12.745 47.37 18.788 71.144-9.332 2.451-19.15.281-27.67-3.814-2.842 6.14-6.063 12.104-8.959 18.215-.79 1.555-1.573 3.254-3.125 4.193-2.8 1.58-6.81.131-7.625-3.043-.884-3.584 1.805-6.54 3.135-9.617 2.7-5.609 5.8-11.027 8.206-16.768-4.99-5.633-8.333-12.64-10.057-19.919-6.4.8-12.452 3.342-18.782 4.504-3.452.551-6.653-3.12-5.7-6.5.617-1.592 1.801-3.1 3.5-3.594 5.967-1.86 12.097-3.152 18.096-4.924-2.294-7.709-4.093-15.543-6.34-23.273-5.736-3.316-11.537-6.525-17.23-9.93-2.298-1.198-3.472-4.13-2.346-6.522 1.073-2.674 4.542-4.277 7.142-2.71 6.025 3.304 11.856 6.94 17.897 10.213 22.114-6.217 44.437-11.7 66.503-18.049 3.927-5.693 6.833-12.063 10.654-17.834z"/></g></svg>