<svg xmlns="http://www.w3.org/2000/svg" version="1.1" id="svg1914" width="238.022" height="238.022"><defs id="defs1893"><style id="style1891">.cls-2{fill:#ff7300}</style></defs><g id="g1947" transform="translate(.022 54.75)"><path class="cls-2" d="M79.59 0H15.36L0 118.75A8.24 8.24 0 002.22 125a10.18 10.18 0 005.88 3.48h63.2l-6.11-19.23h-44.5l4.71-37.07h35.82l10.26-9.77-8-9.11H27.91l4.4-34.42h44.57z" id="path1903"/><path class="cls-2" d="M135.08 0l26.83 122.62a8.94 8.94 0 002.39 4.06c2.09 1.74 6.14 1.84 6.14 1.84h6.34a7.66 7.66 0 006.2-4.24c.2-.4.45-.85.45-.85L238 0h-22.25l-40.33 92.08L156.41 0z" id="path1905"/><path class="cls-2" d="M95.88 0L80.54 118.45a8.24 8.24 0 001.82 6.82 8.72 8.72 0 006.64 3.25h55.3l-6.15-19.17h-37.3L115.16 0z" id="path1907"/></g></svg>