<svg xmlns="http://www.w3.org/2000/svg" fill="none" width="663.259" height="663.259"><path d="M53.557 559.946c-3.3.4 8.9-26.8 11.7-40.4 9.9-49.3-39.5-88.6-54.5-136-20-63.2-11.8-134.8 22-193.3s93-102.9 159.5-120.1c50.1-12.9 102.8-10.7 153.9-4.5 57.9 7 116 19.4 166.6 46.8 50.6 27.4 93.7 71.3 109.2 125.7 23.2 81-20.1 171.8-89.9 223.5-69.8 51.7-160.9 71.3-247.8 67.3-130.7-6.1-217.8 29.2-230.7 31z" fill="#ffd2c0"/><path d="M88.457 602.546c-3.3.4 8.9-26.8 11.7-40.4 9.9-49.3-39.5-88.6-54.5-136-20-63.2-11.8-134.8 22-193.3s93-102.9 159.5-120.1c50.1-12.9 102.8-10.7 153.9-4.5 57.9 7 116 19.4 166.6 46.8 50.6 27.4 93.7 71.3 109.3 125.7 23.2 81-20.1 171.8-89.9 223.5-69.8 51.7-160.9 71.3-247.8 67.3-130.8-6-217.8 29.3-230.8 31z" fill="#ff997a"/><path d="M213.357 334.946c.4 2.3.7 5.6.7 7.2l-49.5 7.5c3.1 7.7 9.3 10.5 17.4 9.3 5.5-.8 10.9-4 14.9-8.8l17.1 11.8c-6.4 8.6-16.8 14.8-30.2 16.7-23 3.6-40.8-9.4-44.2-32.1-3.6-23 9.3-41.2 31.5-44.6 21.5-3.3 38.7 10.1 42.3 33zm-51 0l26.5-4c-3-7-8.1-10.1-14.9-9.2-7.1 1.1-11 5.8-11.6 13.2zm176.4-5.9v48.4h-23.5v-40.1c0-8.8-4.4-13.7-11.8-13.7-6.4 0-11.9 4.4-11.9 14v39.7h-23.5v-39.9c0-8.8-4.4-13.7-11.6-13.7-6.6 0-11.9 4.4-11.9 14v39.7h-23.7v-73.7h22.6v9.3c4.7-7.8 12.2-11.2 22-11.2 9.7 0 17.9 4.4 22.4 12.3 4.9-8.5 13.3-12.3 23.4-12.3 16.9-.2 27.5 10.2 27.5 27.2zm124.9 0v48.4h-23.5v-40.1c0-8.8-4.4-13.7-11.8-13.7-6.4 0-11.9 4.4-11.9 14v39.7h-23.5v-39.9c0-8.8-4.4-13.7-11.6-13.7-6.6 0-11.9 4.4-11.9 14v39.7h-23.5v-73.7h22.6v9.3c4.7-7.8 12.2-11.2 22-11.2 9.7 0 17.9 4.4 22.4 12.3 4.9-8.5 13.3-12.3 23.4-12.3 16.6-.2 27.3 10.2 27.3 27.2zm85.4 48.4h-22.8v-7.9c-4.4 5.7-11.2 10-21.2 10-19.7 0-34.3-17.1-34.3-39 0-21.6 14.6-38.8 34.3-38.8 10 0 16.7 4.2 21.2 10v-8.1h22.8zm-54.2-36.9c0 9.6 6.3 17 15.7 17 9.3 0 15.7-7.1 15.7-17 0-9.7-6.6-17-15.7-17-9.4 0-15.7 7.4-15.7 17z" fill="#f9f3f1"/><defs id="defs8353"><clipPath id="clip01"><path fill="#fff" d="M0 0h663.3v541.8H0z" id="path8350"/></clipPath></defs></svg>