<svg xmlns="http://www.w3.org/2000/svg" viewBox="0 0 333 64"><path fill="#ff9981" d="M60.4 27.2c.3 1.9.6 4.5.6 5.8l-40.2 6.1c2.5 6.3 7.5 8.6 14.1 7.6A20 20 0 0 0 47 39.5l13.9 9.6c-5.2 7-13.7 12-24.5 13.6-18.7 2.9-33.2-7.7-36-26C-2.3 17.8 8 3.1 26.2.3c17.4-2.7 31.4 8.2 34.3 26.8Zm-41.4 0 21.5-3.3c-2.4-5.6-6.6-8.2-12-7.4-5.9.9-9 4.7-9.5 10.7Zm143.2-4.8v39.3h-19V29.1c0-7.1-3.6-11-9.7-11-5.2 0-9.6 3.5-9.6 11.3v32.2h-19V29.2c0-7.1-3.7-11.1-9.5-11.1-5.4 0-9.7 3.6-9.7 11.4v32.2H66.5V1.9h18.3v7.5c3.9-6.3 10-9 17.9-9a20 20 0 0 1 18.2 10c4-7 10.8-10 19-10 13.7-.2 22.3 8.2 22.3 22Zm101.4 0v39.3h-19V29.1c0-7.1-3.7-11-9.7-11-5.2 0-9.6 3.5-9.6 11.3v32.2h-19.1V29.2c0-7.1-3.6-11.1-9.4-11.1-5.4 0-9.7 3.6-9.7 11.4v32.2h-19V1.9h18.3v7.5c3.8-6.3 9.9-9 17.9-9 7.8 0 14.5 3.5 18.1 10 4-7 10.8-10 19-10 13.5-.2 22.2 8.2 22.2 22ZM333 61.7h-18.6v-6.4c-3.6 4.6-9 8.1-17.2 8.1-16 0-27.8-13.9-27.8-31.7 0-17.5 11.8-31.5 27.8-31.5 8.1 0 13.6 3.5 17.2 8.2V1.8H333v59.9Zm-44-30c0 7.8 5 13.8 12.7 13.8 7.5 0 12.7-5.7 12.7-13.8 0-7.8-5.3-13.8-12.7-13.8-7.7 0-12.8 6-12.8 13.8Z"/></svg>