<svg xmlns="http://www.w3.org/2000/svg" viewBox="0 0 1000 1000"><circle cx="500" cy="500" r="500" fill="#b50e1c"/><path fill="#fff" d="M659 464a18 18 0 0 1-7 14l-12 9a18 18 0 0 1-29-14v-17l-68-26a18 18 0 0 1-24 12l-79-31v53a18 18 0 0 1-7 15l-12 8a18 18 0 0 1-29-14V143l-76 56v357a18 18 0 0 1-7 15l-12 9a18 18 0 0 1-29-15v-43l-27 19v135l123 186h295l76-184V256l-76-56v264Z"/><path d="M671 898H354a18 18 0 0 1-15-8L207 691a18 18 0 0 1-3-10V532a18 18 0 0 1 8-15l64-45a18 18 0 0 1 3-2V190a18 18 0 0 1 8-15l113-83a18 18 0 0 1 29 15v261l79 30a18 18 0 0 1 24-12l90 35V164a18 18 0 0 1 29-15l113 84a18 18 0 0 1 7 14v434a18 18 0 0 1-1 7l-82 199a18 18 0 0 1-17 11Zm-307-36h295l76-184V256l-76-56v264a18 18 0 0 1-7 14l-12 9a18 18 0 0 1-29-14v-17l-68-26a18 18 0 0 1-24 12l-79-31v53a18 18 0 0 1-7 15l-12 8a18 18 0 0 1-29-14V143l-76 56v357a18 18 0 0 1-7 15l-12 9a18 18 0 0 1-29-15v-43l-27 19v135Z"/></svg>
