<svg xmlns="http://www.w3.org/2000/svg" viewBox="0 0 94.57 94.56"><path fill="#4ac7eb" d="M21.43 25.85A21.49 21.49 0 0 0 0 47.28a21.5 21.5 0 0 0 21.43 21.43h4.42V25.85z"/><path fill="#485daa" d="M73.13 25.85h-4.41v42.86h4.42a21.49 21.49 0 0 0 21.43-21.43 21.49 21.49 0 0 0-21.44-21.43z"/><path fill="#4ac7eb" d="M68.72 21.43A21.49 21.49 0 0 0 47.29 0a21.49 21.49 0 0 0-21.43 21.43v4.42h42.86z"/><path fill="#485daa" d="M26.51 78.28a21.5 21.5 0 0 0 20.77 16.28 21.49 21.49 0 0 0 21.44-21.43v-4.42H36.08z"/><path fill="#0c3b5d" d="M25.85 25.85v47.28a21.31 21.31 0 0 0 .66 5.15l9.57-9.57h32.64V25.85z"/></svg>