<svg xmlns="http://www.w3.org/2000/svg" width="178" height="178"><path d="M145.1 89c19.5-8.4 32.2-20.9 32.9-34.8 0 0-5.1-3.9-21.8-9.8-14.6-5.2-25.7-6.4-25.7-6.4v31c0 4.6-1.9 9.4-5.5 13.6-11-2.6-23.2-4.1-36-4.1S64 80 52.9 82.6c-3.6-4.2-5.5-8.9-5.5-13.6V38s-11.1 1.2-25.7 6.4C5.1 50.3 0 54.2 0 54.2.7 68.1 13.4 80.7 33 89 13.5 97.3.7 109.9 0 123.8c0 0 5.1 3.9 21.8 9.8 14.6 5.2 25.7 6.4 25.7 6.4l-.1-31c0-4.6 1.9-9.4 5.5-13.6 11 2.6 23.2 4.1 36 4.1s25-1.5 36.1-4.1c3.6 4.2 5.5 8.9 5.5 13.6v31s11.1-1.2 25.7-6.4c16.6-6 21.8-9.8 21.8-9.8-.6-13.9-13.4-26.5-32.9-34.8zM89 96h-.4c-11.6 0-21-2.8-27.9-7 6.9-4.2 16.3-7 27.9-7h.8c11.6 0 21 2.8 27.9 7-6.9 4.2-16.3 7-27.9 7z" fill="#87aa14"/></svg>