<svg xmlns="http://www.w3.org/2000/svg" viewBox="0 0 100 100"><path fill="#7567ce" d="M0 50a50 50 0 1 1 50 50A50 50 0 0 1 0 50Z"/><path fill="#fff" d="M45.321 22.643c-18.75 0-26.571 8.036-26.571 18.75v17.214c0 10.714 7.821 18.75 26.571 18.75h18.143c17 0 17.857-2.071 17.857-5.5s-1.571-5.464-5.464-5.464H45.321c-9.393 0-14.071-4.679-14.071-9.357v-1.571h44.536A5.179 5.179 0 0 0 81.25 50a5.179 5.179 0 0 0-5.464-5.464H31.25v-1.679c0-4.679 4.679-9.357 14.071-9.357h30.464c3.893 0 5.464-1.571 5.464-5.464s-.786-5.5-17.857-5.5Z"/></svg>