<svg xmlns="http://www.w3.org/2000/svg" version="1.1" x="0" y="0" xml:space="preserve" id="svg26765" width="141.74" height="141.74"><style type="text/css" id="style26719"></style><g id="g27377"><circle cx="70.87" cy="70.87" r="70.87" id="circle26721" fill="#7866d5"/><path d="M55.24 34.59l-.19.01c-1 .11-2 .2-3 .29-3.09.28-6.28.57-9.44 1.27-12.06 2.68-17.82 9.06-19.25 21.31-.14 1.23-.27 2.47-.4 3.72l-.18 1.76-.01 18.78.01.22c.09.73.17 1.45.25 2.18.18 1.63.37 3.33.65 5 1.83 10.84 7.49 16.67 18.34 18.92 4.4.93 8.92 1.45 13.43 1.56 7.1.13 14.25.19 21.4.19 7.15 0 14.3-.06 21.44-.17 3.22-.06 7-.28 10.7-1.47.59-.2 1.15-.47 1.67-.79a8.13 8.13 0 003.66-5.09c.5-2.13.14-4.33-1.03-6.21-1.82-2.86-4.9-2.859-6.38-2.859H96.88c-11.63.01-23.66.02-35.48-.06-3.75-.02-8.16-.21-12.45-1.41-3.21-.9-5.08-2.8-5.87-5.94-.42-1.96-.68-3.98-.76-6.06l-.01-.122c-.01-.09-.011-.19-.021-.28h63.941c1.03.02 2.07-.05 3.14-.22 3.06-.59 4.84-2.49 5.01-5.33.02-.33.05-.648.08-.978.21-2.42.5-5.73-2.92-7.92a7.276 7.276 0 00-3.72-1.022h-63.8c-.62 0-1.25 0-1.68-.03.01-.43.06-1.049.11-1.669.55-6.98 2.83-9.45 9.75-10.59 2.2-.38 4.45-.58 6.67-.6 15.56-.03 31.12-.07 46.64-.12 1.24.03 2.5-.06 3.67-.25 2.62-.34 4.67-2.41 4.97-4.95.98-5.8-1.22-9.02-6.93-10.13-1.73-.34-3.47-.52-5.15-.69-.75-.07-1.5-.15-2.24-.24l-.11-.01z" id="path26725" fill="#fff"/></g></svg>