<svg xmlns="http://www.w3.org/2000/svg" width="121.097" height="89"><path fill="#f54565" d="M92.7 18.6c-9.2-1.8-18.6.2-26.4 5.4-7.8 5.3-13 13.2-14.8 22.5-.8 4.3-.8 8.8 0 12.9 2.5 14 14 25.6 27.9 28.2 2.6.5 5.1.7 7.6.7 14.3 0 23.9-8.1 28.3-13l.7-.7-14.2-10.8-.6.5c-2.6 2.4-9.8 6.6-18.3 4.9-4.7-.9-8.4-3.9-10.2-8.2l47 .5.5-1.1c.3-.6.3-1.1.4-1.6 0-.1 0-.3.1-.6 2.8-18.6-9.5-36-28-39.6zM73 44.8c2.6-5.6 8.5-9.2 14.4-8.5 5.1.5 9.7 4 12 8.9L73 44.8z"/><path fill="#04034a" d="M21.6 89 53.9 0h-21L0 89z"/></svg>