<svg xmlns="http://www.w3.org/2000/svg" width="1024" height="1024" fill="none">
  <g clip-path="url(#a)">
    <rect width="1024" height="1024" fill="url(#b)" rx="234"/>
    <g filter="url(#c)" opacity=".8">
      <path fill="#fff" d="M512.364 162 226 289.273v190.909C226 656.773 348.182 821.909 512.364 862c164.181-40.091 286.363-205.227 286.363-381.818V289.273zm0 190.909c44.545 0 89.091 35 89.091 79.546v47.727c19.091 0 38.181 19.091 38.181 41.363v111.364c0 19.091-19.091 38.182-41.363 38.182h-175c-19.091 0-38.182-19.091-38.182-41.364V518.364c0-19.091 19.091-38.182 38.182-38.182v-47.727c0-44.546 44.545-79.546 89.091-79.546m0 38.182c-25.455 0-47.728 15.909-47.728 41.364v47.727h95.455v-47.727c0-25.455-22.273-41.364-47.727-41.364" style="fill:#fff;fill-opacity:1"/>
    </g>
    <g filter="url(#d)" opacity=".8">
      <path fill="#fff" d="M512.364 162 226 289.273v190.909C226 656.773 348.182 821.909 512.364 862c164.181-40.091 286.363-205.227 286.363-381.818V289.273zm0 190.909c44.545 0 89.091 35 89.091 79.546v47.727c19.091 0 38.181 19.091 38.181 41.363v111.364c0 19.091-19.091 38.182-41.363 38.182h-175c-19.091 0-38.182-19.091-38.182-41.364V518.364c0-19.091 19.091-38.182 38.182-38.182v-47.727c0-44.546 44.545-79.546 89.091-79.546m0 38.182c-25.455 0-47.728 15.909-47.728 41.364v47.727h95.455v-47.727c0-25.455-22.273-41.364-47.727-41.364" style="fill:#fff;fill-opacity:1"/>
    </g>
    <g filter="url(#e)" opacity=".8">
      <path fill="#fff" d="M512.364 162 226 289.273v190.909C226 656.773 348.182 821.909 512.364 862c164.181-40.091 286.363-205.227 286.363-381.818V289.273zm0 190.909c44.545 0 89.091 35 89.091 79.546v47.727c19.091 0 38.181 19.091 38.181 41.363v111.364c0 19.091-19.091 38.182-41.363 38.182h-175c-19.091 0-38.182-19.091-38.182-41.364V518.364c0-19.091 19.091-38.182 38.182-38.182v-47.727c0-44.546 44.545-79.546 89.091-79.546m0 38.182c-25.455 0-47.728 15.909-47.728 41.364v47.727h95.455v-47.727c0-25.455-22.273-41.364-47.727-41.364" style="fill:#fff;fill-opacity:1"/>
    </g>
  </g>
  <defs>
    <filter id="c" width="931.501" height="1058.77" x="46.613" y="90.245" color-interpolation-filters="sRGB" filterUnits="userSpaceOnUse">
      <feFlood flood-opacity="0" result="BackgroundImageFix"/>
      <feColorMatrix in="SourceAlpha" result="hardAlpha" values="0 0 0 0 0 0 0 0 0 0 0 0 0 0 0 0 0 0 127 0"/>
      <feOffset dy="107.632"/>
      <feGaussianBlur stdDeviation="89.694"/>
      <feColorMatrix values="0 0 0 0 0 0 0 0 0 0 0 0 0 0 0 0 0 0 0.35 0"/>
      <feBlend in2="BackgroundImageFix" result="effect1_dropShadow_26133_116870"/>
      <feBlend in="SourceGraphic" in2="effect1_dropShadow_26133_116870" result="shape"/>
      <feColorMatrix in="SourceAlpha" result="hardAlpha" values="0 0 0 0 0 0 0 0 0 0 0 0 0 0 0 0 0 0 127 0"/>
      <feOffset dy="17.939"/>
      <feGaussianBlur stdDeviation="8.969"/>
      <feComposite in2="hardAlpha" k2="-1" k3="1" operator="arithmetic"/>
      <feColorMatrix values="0 0 0 0 1 0 0 0 0 1 0 0 0 0 1 0 0 0 0.25 0"/>
      <feBlend in2="shape" result="effect2_innerShadow_26133_116870"/>
      <feColorMatrix in="SourceAlpha" result="hardAlpha" values="0 0 0 0 0 0 0 0 0 0 0 0 0 0 0 0 0 0 127 0"/>
      <feOffset dy="-8.969"/>
      <feGaussianBlur stdDeviation="4.485"/>
      <feComposite in2="hardAlpha" k2="-1" k3="1" operator="arithmetic"/>
      <feColorMatrix values="0 0 0 0 0 0 0 0 0 0 0 0 0 0 0 0 0 0 0.25 0"/>
      <feBlend in2="effect2_innerShadow_26133_116870" result="effect3_innerShadow_26133_116870"/>
    </filter>
    <filter id="d" width="931.501" height="1058.77" x="46.613" y="90.245" color-interpolation-filters="sRGB" filterUnits="userSpaceOnUse">
      <feFlood flood-opacity="0" result="BackgroundImageFix"/>
      <feColorMatrix in="SourceAlpha" result="hardAlpha" values="0 0 0 0 0 0 0 0 0 0 0 0 0 0 0 0 0 0 127 0"/>
      <feOffset dy="107.632"/>
      <feGaussianBlur stdDeviation="89.694"/>
      <feColorMatrix values="0 0 0 0 0 0 0 0 0 0 0 0 0 0 0 0 0 0 0.12 0"/>
      <feBlend in2="BackgroundImageFix" result="effect1_dropShadow_26133_116870"/>
      <feBlend in="SourceGraphic" in2="effect1_dropShadow_26133_116870" result="shape"/>
      <feColorMatrix in="SourceAlpha" result="hardAlpha" values="0 0 0 0 0 0 0 0 0 0 0 0 0 0 0 0 0 0 127 0"/>
      <feOffset dy="17.939"/>
      <feGaussianBlur stdDeviation="8.969"/>
      <feComposite in2="hardAlpha" k2="-1" k3="1" operator="arithmetic"/>
      <feColorMatrix values="0 0 0 0 1 0 0 0 0 1 0 0 0 0 1 0 0 0 0.25 0"/>
      <feBlend in2="shape" result="effect2_innerShadow_26133_116870"/>
      <feColorMatrix in="SourceAlpha" result="hardAlpha" values="0 0 0 0 0 0 0 0 0 0 0 0 0 0 0 0 0 0 127 0"/>
      <feOffset dy="-8.969"/>
      <feGaussianBlur stdDeviation="4.485"/>
      <feComposite in2="hardAlpha" k2="-1" k3="1" operator="arithmetic"/>
      <feColorMatrix values="0 0 0 0 0 0 0 0 0 0 0 0 0 0 0 0 0 0 0.25 0"/>
      <feBlend in2="effect2_innerShadow_26133_116870" result="effect3_innerShadow_26133_116870"/>
    </filter>
    <filter id="e" width="572.727" height="726.908" x="226" y="153.031" color-interpolation-filters="sRGB" filterUnits="userSpaceOnUse">
      <feFlood flood-opacity="0" result="BackgroundImageFix"/>
      <feBlend in="SourceGraphic" in2="BackgroundImageFix" result="shape"/>
      <feColorMatrix in="SourceAlpha" result="hardAlpha" values="0 0 0 0 0 0 0 0 0 0 0 0 0 0 0 0 0 0 127 0"/>
      <feOffset dy="17.939"/>
      <feGaussianBlur stdDeviation="8.969"/>
      <feComposite in2="hardAlpha" k2="-1" k3="1" operator="arithmetic"/>
      <feColorMatrix values="0 0 0 0 1 0 0 0 0 1 0 0 0 0 1 0 0 0 0.25 0"/>
      <feBlend in2="shape" result="effect1_innerShadow_26133_116870"/>
      <feColorMatrix in="SourceAlpha" result="hardAlpha" values="0 0 0 0 0 0 0 0 0 0 0 0 0 0 0 0 0 0 127 0"/>
      <feOffset dy="-8.969"/>
      <feGaussianBlur stdDeviation="4.485"/>
      <feComposite in2="hardAlpha" k2="-1" k3="1" operator="arithmetic"/>
      <feColorMatrix values="0 0 0 0 0 0 0 0 0 0 0 0 0 0 0 0 0 0 0.25 0"/>
      <feBlend in2="effect1_innerShadow_26133_116870" result="effect2_innerShadow_26133_116870"/>
    </filter>
    <linearGradient id="b" x1="96.5" x2="985" y1="71" y2="977.5" gradientUnits="userSpaceOnUse">
      <stop stop-color="#C373F2" style="stop-color:#c373f2;stop-color:color(display-p3 .7647 .451 .949);stop-opacity:1"/>
      <stop offset="1" stop-color="#9610D6" style="stop-color:#9610d6;stop-color:color(display-p3 .5882 .0627 .8392);stop-opacity:1"/>
    </linearGradient>
    <clipPath id="a">
      <rect width="1024" height="1024" fill="#fff" rx="234" style="fill:#fff;fill-opacity:1"/>
    </clipPath>
  </defs>
</svg>
