<svg xmlns="http://www.w3.org/2000/svg" viewBox="0 0 1024 1024"><rect width="1024" height="1024" fill="#3eb54a" ry="182.3"/><path fill="#fff" d="M791 306.8a280.2 280.2 0 0 0-111-101.5 332 332 0 0 0-153.7-35.4c-60.7 0-114.7 12.8-162.2 38a283.9 283.9 0 0 0-112 105.2 291 291 0 0 0-40.7 153.7c0 56.4 13.9 107 41.7 151.6a278 278 0 0 0 76.7 81.1c.8.7 1.8 1.2 2.6 1.8a551.9 551.9 0 0 0 17 11.1c6.8 4.2 13.8 8 20.9 11.6 50.4 25.8 109.7 38.5 178 38.5a410 410 0 0 0 119-15.9c6.3-2 12.4-4 18.5-6.2l3.6-1.4.5-.1 7.5-3a261.2 261.2 0 0 0 92.9-65.1l-104.5-111a222 222 0 0 1-59.2 37.6 192 192 0 0 1-72.9 12 173 173 0 0 1-78.1-16.3 117 117 0 0 1-62-75.6h415.9l2.1-25.3c.7-9 1-17.1 1-24.2 0-63.5-13.9-117.2-41.7-161.2ZM410.3 411.9c2.3-13.7 6.3-26.1 11.8-37.5a103.8 103.8 0 0 1 41.8-45 126.8 126.8 0 0 1 64.4-15.8c24 0 44.7 5.3 62.4 15.8a111.9 111.9 0 0 1 41.6 45c6.1 11.4 10.1 24 12.4 37.5H410.4Z"/></svg>
