<svg xmlns="http://www.w3.org/2000/svg" viewBox="0 0 48 48"><rect width="48" height="48" fill="#87e64b" rx="12"/><g fill="#1a4200"><circle cx="25.63" cy="40.11" r="1.58"/><path d="m34.72 29.33-8.92.96c-.16.01-.24-.2-.11-.3l8.72-6.79a2 2 0 0 0 .77-1.95 2.04 2.04 0 0 0-2.37-1.8l-9.48 1.38c-.16.03-.25-.19-.12-.29l9.4-7.17c1.85-1.45 2-4.28.3-5.93a3.92 3.92 0 0 0-5.56.06L12.21 22.9a2.68 2.68 0 0 0-.67 2.31 2.62 2.62 0 0 0 3.04 2.06l8.17-1.66c.17-.04.27.2.12.3L13.8 31.7c-1.13.72-1.65 2-1.29 3.3a3 3 0 0 0 3.71 2.26l13.54-3.33a.16.16 0 0 1 .16.26l-2.11 2.6c-.57.73.36 1.7 1.13 1.14l6.95-5.72c1.24-1.03.42-3.03-1.18-2.88z"/></g></svg>