<svg xmlns="http://www.w3.org/2000/svg" fill="none" viewBox="0 0 31.6 36.7"><path stroke="url(#a)" stroke-linecap="round" stroke-width="2.4" d="M15.4 28v7.5"/><path stroke="url(#b)" stroke-linecap="round" stroke-width="2.4" d="M7.5 30.2v3.1"/><path stroke="url(#c)" stroke-linecap="round" stroke-width="2.4" d="M23.3 30.2v3.1"/><path fill="url(#d)" d="M19.6 2A4.5 4.5 0 0 0 12 2L.7 19.9c-1.9 3 .3 7 3.8 7h2.6a6 6 0 0 0 5.5-3.5l.8-1.8a2 2 0 0 1 3.7 0l.8 1.8a6 6 0 0 0 5.5 3.5H27c3.5 0 5.7-4 3.8-7z"/><defs><linearGradient id="a" x1="15.9" x2="15.9" y1="28" y2="35.5" gradientUnits="userSpaceOnUse"><stop stop-color="#FA342C"/><stop offset="1" stop-color="#FF5A08"/></linearGradient><linearGradient id="b" x1="8" x2="8" y1="30.2" y2="33.3" gradientUnits="userSpaceOnUse"><stop stop-color="#FA342C"/><stop offset="1" stop-color="#FF5A08"/></linearGradient><linearGradient id="c" x1="23.8" x2="23.8" y1="30.2" y2="33.3" gradientUnits="userSpaceOnUse"><stop stop-color="#FA342C"/><stop offset="1" stop-color="#FF5A08"/></linearGradient><linearGradient id="d" x1="8.6" x2="34.6" y1="26.8" y2="23.5" gradientUnits="userSpaceOnUse"><stop stop-color="#F9332B"/><stop offset="1" stop-color="#FF6100"/></linearGradient></defs></svg>