<svg xmlns="http://www.w3.org/2000/svg" viewBox="0 0 24.78 29.28"><path d="M14.04 29.28c1.02-.12 2.1-.36 3.12-.66l.06-9.72c-.06-.06-.12-.12-.12-.18-.36-.36-.72-.66-1.14-.9-.36.42-.72.84-1.08 1.14-.24.18-.48.3-.72.48zm-6.42-.72c1.02.36 2.04.54 3.06.66l.06-9.9c-.24-.12-.48-.3-.72-.48-.42-.3-.78-.72-1.08-1.14-.42.24-.78.54-1.14.9l-.18.18z" fill="#e44c38"/><path d="M12.48 0C9.96 0 7.86 4.14 7.86 9.24c0 .48 0 .96.06 1.44-1.98 1.44-3.3 3.72-3.3 6.36 0 1.14.24 2.16.66 3.12.78-1.8 2.28-3.3 4.14-4.08.78 1.5 1.86 2.4 3.06 2.4s2.28-.9 3.12-2.4c1.8.78 3.3 2.28 4.08 4.08.42-.96.66-2.04.66-3.12 0-2.64-1.26-4.98-3.24-6.36.06-.48.06-.96.06-1.44C17.04 4.2 15 0 12.48 0zm-.06 6c1.14 0 2.04.9 2.04 2.04s-.9 2.04-2.04 2.04-2.04-.9-2.04-2.04C10.44 6.9 11.34 6 12.42 6z" fill="#e44c38"/><path d="M6.12 24.36c-1.56-1.38-2.64-3.24-3.06-5.4C1.92 18.84.9 18.72 0 18.6c.42 4.02 2.76 7.44 6.12 9.42zm-3-9.24c.18-.84.54-1.68.9-2.46.12-.24.18-.48.3-.66A8.604 8.604 0 0 1 6.6 9.18v-.9c0-.78.06-1.5.12-2.22C3.18 7.92.6 11.4.06 15.48c.9-.12 1.92-.24 3.06-.36zm15.54 12.84c3.3-1.92 5.64-5.4 6.12-9.42-.9.12-1.92.3-3.06.36-.42 2.16-1.5 4.02-3.06 5.4zm6.06-12.48c-.54-4.08-3.06-7.5-6.6-9.36.06.72.12 1.44.12 2.22v.9c.9.78 1.68 1.74 2.22 2.82.12.24.24.42.3.66.42.72.72 1.56.9 2.4 1.14.12 2.16.24 3.06.36z" fill="#fbcbc7"/></svg>