<svg xmlns="http://www.w3.org/2000/svg" viewBox="0 0 95.55 28"><path fill="#EA1C0A" fill-rule="evenodd" d="M95.552 10.36c0 3.203-3.81 14.166-4.434 15.811-.411 1.081-1.198 1.234-2.218 1.234-1.846 0-3.237-.44-3.916-.983a.614.614 0 0 1-.197-.703c.694-2.068 3.327-9.513 3.327-11.122 0-.88-.26-1.542-1.14-1.542-5.329 0-15.12 11.372-16.94 13.405-.594.665-1.466.805-2.484.805-1.26 0-2.603-.669-2.73-.735-.399-.206-.418-.434-.3-.914l.335-1.361c.612-2.49 3.785-11.703 5.985-16.695.093-.211.184-.386.662-.461.222-.035.95-.204 1.963-.204.743 0 2.188.053 2.912.441 0 0 .006-.01.006 1.204 0 .525.057 2.31 1.737 2.31 2.834 0 7.98-4.865 12.53-4.865 4 0 4.902 2.468 4.902 4.376m-56.597 4.024c0 .665-.774 2.495-.884 2.765-.696 1.717-2.521 1.995-3.806 1.995-1.928 0-2.59-.692-2.59-1.785 0-.845.711-2.305.805-2.52.868-1.989 2.421-2.205 3.955-2.205 1.3 0 2.52.541 2.52 1.75m-16.485-4.2c0-1.266-.06-3.08-1.05-3.08-3.222 0-8.882 4.928-9.45 5.495-.42.42-.106.385.455.385h7.245c2.567 0 2.8-.432 2.8-2.8m7.735.665c0 6.203-3.816 7.49-8.05 7.49H19.18c-2.973 0-8.96-.175-8.96-.175-.48-.01-.84-.105-.84.175 0 2.023 2.289 5.075 5.775 5.075 2.746 0 4.515-1.715 4.9-2.121 0 0 3.155-.364 5.18-.364 1.966 0 4.865.315 4.865 1.435C30.1 24.55 23.001 28 17.045 28 8.078 28 0 23.128 0 17.255 0 7.413 18.995 0 24.535 0c4.99 0 5.67 7.946 5.67 10.85m23.8-.21c-.675 0-1.68.105-2.135.735-1.705 2.36-2.835 8.263-2.835 9.905 0 1.121.779 1.05 1.82 1.05.605 0 1.583.015 2.135-.56 1.498-1.56 2.79-8.63 2.79-9.907 0-.908-.065-1.223-1.775-1.223m11.27-.315c0 2.695-2.661 8.611-3.516 10.255-3.574 6.872-8.349 6.825-13.74 6.825-2.633 0-8.504.03-8.504-4.9 0-2.205 1.922-6.247 3.5-10.08.67-1.63 3.53-7.105 13.265-7.105 4.015 0 8.995.63 8.995 5.005"/></svg>