<svg xmlns="http://www.w3.org/2000/svg" viewBox="0 0 100 100" fill="#da532c"><path d="M11.4 2.5C6.7 5.3 2.7 10.7 1 16.5c-.8 2.8-1 13.6-.8 35 .3 29.8.4 31.2 2.5 35.1 2.8 5.3 9.1 10.7 14.2 12.2 2.5.8 13.9 1.2 33.5 1.2h29.7l5.4-2.6c3-1.4 6.8-4.1 8.4-6 5.4-6.7 5.8-9.8 5.7-43.9-.2-34.2-.2-34.1-7-41.3C86.7-.1 87.4 0 49.8 0H15.5l-4.1 2.5zm44.9 4.8c3.9 1.7 31.4 29.3 34 34.2 2.6 4.7 2.7 9.7.6 14.5-1.8 3.9-23.5 27.1-31 33.1-4.7 3.7-11 4.4-16.5 1.9-4.1-1.9-31.8-29.1-34.2-33.6-2.3-4.4-2.5-10.1-.3-14.7C11 38 37.7 10.2 42.5 7.7c3.7-2 9.5-2.1 13.8-.4zM38.1 33.6c-3.9 1.6-4.8 4.7-4.6 16.8.1 10.5.2 10.9 2.9 13.2C38.9 65.8 40 66 50.1 66c10.3 0 11.1-.1 13.4-2.5 2.6-2.5 2.8-3.5 2.6-19-.1-6-.4-7.3-2.5-9.4-2.3-2.3-3.2-2.4-12.7-2.5-5.6-.1-11.4.4-12.8 1z"/></svg>
