<svg xmlns="http://www.w3.org/2000/svg" viewBox="0 0 647.2 751"><path fill="#2b292a" d="M588.4 0H58.8C15.8 0 0 15.8 0 58.8V577q0 7.3.6 13.6c1 9.4 1.2 18.4 9.9 28.8.9 1 9.8 7.6 9.8 7.6 4.7 2.4 8 4.1 13.4 6.3l260.8 109.2c13.5 6.2 19.2 8.7 29 8.5h.1c9.8.2 15.5-2.3 29-8.5l260.8-109.2c5.4-2.2 8.7-4 13.5-6.3 0 0 8.9-6.6 9.8-7.6 8.7-10.4 8.9-19.4 9.8-28.8q.7-6.3.7-13.6V58.8c0-43-15.9-58.8-58.8-58.8"/><path fill="#fff" d="m235 484.7-10.2 25.4h20.1zm23.5 60.2c-2.4-5.4-4.2-11-6.6-16.4h-34.1c-2.4 5.4-4.2 11-6.6 16.4h-24l36.9-87.6h22L283 545zm102.2 0v-51.4l-22.6 34.8h-.5l-22.3-34.6V545h-22.6v-87H317l21 34.2 21.2-34.2h24.4v87zm40.6 0v-87H470v19.7h-46V492h41.4v18.5H424v14.8h46.6V545zm116 1.4a57 57 0 0 1-38.5-14.2l13-15.5a47 47 0 0 0 26.4 10.4c4.8.1 11-.6 11.6-6.5.4-7.5-17.9-9.3-26.9-12.3-12.8-4-21.2-12.2-20.2-24.2-.3-18.9 18-28.8 34.3-27.5a55 55 0 0 1 33.5 11.4L539 484.4a43 43 0 0 0-24-8.6c-4.1 0-8.8 1.5-9 6.3.4 6.7 10.7 7.3 18.3 9.8 16.2 4.7 29 8.8 28.7 26.5.2 20.5-17 28-35.7 28zM139.3 261h51.5v-39.9h-51.5v-81.4h53.6v-40H95.5v288h98.2v-39.9h-54.4zm369.4 8.7v65c0 11.5-5.3 16.8-16.4 16.8h-8.2c-11.4 0-16.7-5.3-16.7-16.8V152.9c0-11.6 5.3-17 16.8-17h7.3q16.4-.2 16.4 17v56.3h43v-58.8c0-35.8-17.2-53-52.8-53h-21.3q-53.3-.2-53.2 53.4v186q-.1 53.5 53.2 53.4h21.7q53.3.1 53.2-53.5v-67zm-152 118h43.7V99.8h-43.8zm-63.6-160q0 17-16.4 16.9h-18V138.5h18c11 0 16.4 5.3 16.4 16.8zm-9.5-127.9H215v288h43.8V283.2h25q53.2.1 53.1-53.5v-76.5q.1-53.6-53.2-53.5M198.8 648h250.7l-128 42.3zm-20.4-114.9a55 55 0 0 1-35.8 13.4 47 47 0 0 1-39.5-17 45 45 0 0 1-9-27.6 37 37 0 0 1 5.4-21.8 45 45 0 0 1 17.7-18 51 51 0 0 1 25.4-5.9c15.6.4 26.5 6.5 32.8 12.6l-13.6 16.6c-6.5-5-10.5-7.5-21.2-8.5-2.8-.2-7.4.6-11 2.9a26 26 0 0 0-11.8 21.4c0 4 .9 7.8 3 12.8a23 23 0 0 0 20.8 12.6c9.4 0 12.8-2.9 14.8-4v-10.8h-17.3v-17.6h39.3z"/></svg>