<svg xmlns="http://www.w3.org/2000/svg" width="750.977" height="750.977"><path d="M640.301 0H110.676c-42.928 0-58.77 15.842-58.77 58.79v518.235c0 4.86.195 9.375.624 13.557.978 9.375 1.162 18.46 9.88 28.802.852 1.013 9.754 7.637 9.754 7.637 4.788 2.348 8.057 4.077 13.457 6.25l260.795 109.265c13.538 6.206 19.2 8.625 29.033 8.43v.001h.078c9.833.194 15.494-2.225 29.034-8.431l260.793-109.264c5.402-2.174 8.67-3.903 13.46-6.25 0 0 8.9-6.625 9.751-7.638 8.719-10.343 8.903-19.427 9.88-28.802.43-4.182.627-8.697.627-13.557V58.79c0-42.948-15.844-58.79-58.77-58.79" fill="#2f2d2e" fill-rule="evenodd"/><path d="M286.816 484.74l-10.11 25.4h20.11zm23.564 60.178c-2.33-5.392-4.16-11.004-6.548-16.37H269.68c-2.325 5.393-4.161 11.003-6.546 16.37H239.1c12.596-29.664 25.355-61.052 36.888-87.608h22.016c12.742 29.756 25.213 60.996 36.894 87.608zM412.64 544.918v-51.452l-22.613 34.843h-.472l-22.375-34.603v51.212h-22.613v-87.01h24.4l21.06 34.245 21.185-34.246h24.392v87.011zM453.178 544.918v-87.01h68.782v19.725h-46.057v14.224h41.416v18.521h-41.416v14.821h46.655v19.719zM569.24 546.351c-15.438-.447-27.447-4.426-38.554-14.217l12.973-15.54c7.662 6.309 16.66 9.513 26.417 10.399 4.865.11 11.086-.546 11.666-6.455.36-7.512-17.91-9.284-26.895-12.312-12.807-4.046-21.24-12.259-20.237-24.259-.322-18.823 18.062-28.776 34.28-27.493 12.273-.133 23.84 4.139 33.553 11.475l-11.539 16.496c-6.902-4.9-15.31-8.607-23.92-8.607-4.174-.097-8.82 1.488-9.164 6.217.52 6.774 10.799 7.377 18.444 9.802 16.167 4.758 28.934 8.849 28.683 26.529.134 20.549-17.059 27.956-35.707 27.965zM191.18 261.037h51.577v-39.896H191.18v-81.448h53.63V99.797h-97.43v287.935h98.246v-39.897H191.18zM560.613 269.68v64.992c0 11.519-5.324 16.863-16.37 16.863h-8.192c-11.46 0-16.784-5.344-16.784-16.863V152.856c0-11.517 5.324-16.861 16.784-16.861h7.369c11.053 0 16.377 5.344 16.377 16.861v56.359h42.978v-58.827c0-35.782-17.194-53.06-52.8-53.06h-21.292c-35.608 0-53.216 17.686-53.216 53.475v185.923c0 35.79 17.608 53.474 53.216 53.474h21.698c35.616 0 53.215-17.684 53.215-53.474V269.68zM408.513 387.733h43.806V99.797h-43.806zM344.954 227.722c0 11.519-5.316 16.87-16.369 16.87H310.57V138.462h18.015c11.053 0 16.37 5.346 16.37 16.862zM335.54 99.797h-68.77v287.936h43.8V283.25h24.97c35.614 0 53.214-17.684 53.214-53.467v-76.512c0-35.79-17.6-53.474-53.214-53.474" fill="#fff"/><path d="M250.71 648.083H501.45L373.467 690.29z" fill="#fff" fill-rule="evenodd"/><path d="M230.335 533.131c-11.314 9.018-22.792 13.44-35.83 13.348-9.408-.066-14.193-.427-22.069-3.887-6.851-3.01-13.07-7.638-17.433-13.094-6.006-7.509-9.197-18.366-9.054-27.592.16-10.249 1.231-14.5 5.437-21.835 4.281-7.469 9.867-13.684 17.702-17.946 6.822-3.711 15.535-6.119 25.418-5.891 15.575.359 26.493 6.5 32.78 12.526l-13.611 16.592c-6.517-5.047-10.493-7.462-21.2-8.453-2.81-.26-7.384.618-10.918 2.883-9.88 6.332-11.802 16.541-11.825 21.369-.02 4.078.825 7.846 2.916 12.805 2.741 6.503 10.622 12.536 20.826 12.601 9.433.06 12.774-2.862 14.824-4.009l.003-10.78-17.274.007-.065-17.568 39.321.04.052 38.884z" fill="#fff" paint-order="markers fill stroke"/></svg>