<svg xmlns="http://www.w3.org/2000/svg" width="91.125" height="91.125" fill="none"><path d="M4.854 46.038c-.052.264-.052.475-.052.739 0 5.962 3.693 9.497 8.442 9.497.739 0 1.319-.105 1.794-.316 1.689-1.214 3.271-2.269 4.432-2.849l.264.844c-.316 1.161-2.321 3.324-3.007 3.799-1.003.475-3.694 1.266-5.54 1.266C4.643 59.018 0 54.481 0 47.199c0-7.545 5.435-12.716 11.45-12.716 4.802 0 8.918 3.219 8.918 9.129 0 .634-.159 1.425-.528 1.689-.527.21-2.532.738-4.96.738H4.854zm10.554-2.005c.159-.369.264-1.002.264-1.582 0-3.167-1.583-6.122-4.644-6.122-4.38 0-6.121 5.435-6.121 7.704h10.5zm15.829-6.226l.105.052c3.323-2.32 5.592-3.377 7.176-3.377 4.38 0 10.184 3.694 10.184 11.239 0 9.339-7.863 13.296-12.769 13.296-1.003 0-3.166-.844-4.38-1.636l-.105.052c0 3.852.105 7.388.211 9.973l4.908 1.636-.475 1.214c-2.375 0-4.485-.053-6.913-.053-1.794 0-3.694.053-5.54.053l.475-1.319 2.692-1.373c.052-1.793.21-6.806.21-14.51V38.44l-2.955-1.583.476-1.055c.843-.422 5.064-1.371 6.912-1.425l-.211 3.43zm.21 17.57c.95.58 2.427 1.108 3.957 1.108 4.433 0 8.495-3.8 8.495-9.92 0-4.802-2.902-8.97-7.545-8.97-1.319 0-3.007.58-4.907 1.952zm21.686-19.364c.844-.264 4.01-1.213 7.017-1.53v10.659c0 5.91.053 8.97.105 10.448l3.747 1.582-.37 1.214c-1.845 0-3.85-.053-5.91-.053-1.688 0-3.43.053-5.487.053l.37-1.214 3.007-1.582c.052-1.794.105-6.332.105-10.553v-6.649l-2.85-1.372zm4.96-12.452c.739.263 2.164 1.846 2.639 2.955l-.105.422c-.475 1.003-2.058 2.585-2.797 3.008l-.422.105c-.898-.528-2.11-2.005-2.585-3.008l.105-.422c.739-1.214 1.952-2.48 2.849-3.008zm19.839 33.611l-.317 1.214c-1.952 0-3.957-.053-6.015-.053-1.846 0-3.693.053-5.54.053l.317-1.161 3.007-1.583c.105-1.055.159-4.326.159-12.082 0-6.65 0-12.98-.159-18.627l-2.955-1.372.475-1.055c1.371-.423 5.276-1.372 7.176-1.637a996.265 996.265 0 00-.158 18.257c0 5.171.052 15.301.158 16.462zm12.875 2.005c-2.85-.159-5.277-.791-7.177-2.585-2.427-2.269-6.12-6.806-8.706-10.395l-.051-.264c2.268-2.532 5.328-6.121 7.28-8.706l1.003-2.744c2.322 0 5.91.369 7.124.686l-.739 1.214c-.79.423-4.115 1.53-5.487 2.058-1.794 1.741-2.585 2.585-5.065 5.382v.159c3.06 4.169 9.497 11.766 12.136 14.932l-.317.263z" fill="#000"/></svg>