<svg data-name="Ebene 1" xmlns="http://www.w3.org/2000/svg" width="180" height="90"><path fill="#404955" d="M90 0h90v90H90z"/><path fill="#be0f05" d="M0 0h90v90H0z"/><g fill="#fff"><path d="M97.79 7.8v6.68h3.54v-.97h-2.42V11.5h2.3v-.92h-2.3V8.74h2.42V7.8h-3.54zm8.32 1.75v2.38a2 2 0 0 1-.5 1.4 1.08 1.08 0 0 1-.75.32.66.66 0 0 1-.49-.16 1.12 1.12 0 0 1-.21-.78V9.55h-1.09V13a1.64 1.64 0 0 0 .4 1.21 1.45 1.45 0 0 0 1.07.37 1.83 1.83 0 0 0 1.67-1 6 6 0 0 0 0 .83h1V9.55zm5.68-.1a1.5 1.5 0 0 0-1.59 1 5.62 5.62 0 0 0 .07-.92h-1v4.93h1.11v-2a2.29 2.29 0 0 1 .51-1.76 1 1 0 0 1 .9-.18V9.43zm4.96.55a2.21 2.21 0 0 0-1.62-.58 2.38 2.38 0 0 0-1.71.68 2.7 2.7 0 0 0-.74 1.94 2.61 2.61 0 0 0 .63 1.92 2.22 2.22 0 0 0 1.64.58 2.33 2.33 0 0 0 1.76-.76 2.77 2.77 0 0 0 .68-1.89 2.54 2.54 0 0 0-.64-1.89zm-.92 3.27a1.12 1.12 0 0 1-.79.32 1.09 1.09 0 0 1-.81-.3 1.88 1.88 0 0 1-.41-1.35c0-1.17.66-1.58 1.23-1.58a1.09 1.09 0 0 1 .81.29 1.85 1.85 0 0 1 .4 1.31 1.83 1.83 0 0 1-.43 1.34zm6.95-3.36a1.66 1.66 0 0 0-1.23-.46 1.7 1.7 0 0 0-1.56.93c0-.27.05-.83.05-.83h-1v7.32h1.09v-2.38a3.4 3.4 0 0 0 .72 0 2.44 2.44 0 0 0 1.89-.74 2.93 2.93 0 0 0 .68-2 2.52 2.52 0 0 0-.64-1.84zm-1 3.42a1.29 1.29 0 0 1-.93.34 2.8 2.8 0 0 1-.75-.09V12.1a2.35 2.35 0 0 1 .31-1.18 1.05 1.05 0 0 1 .88-.56.76.76 0 0 1 .57.23 1.72 1.72 0 0 1 .37 1.28 2.05 2.05 0 0 1-.46 1.46zm5.97-4.65a.62.62 0 0 0 .61-.63.61.61 0 0 0-.61-.61.63.63 0 0 0-.45.18.64.64 0 0 0-.18.43.65.65 0 0 0 .63.63zm-1.93 0a.62.62 0 0 0 .62-.63.64.64 0 0 0-.18-.43.62.62 0 0 0-.44-.18.6.6 0 0 0-.44.18.62.62 0 0 0-.18.43.67.67 0 0 0 .18.45.65.65 0 0 0 .44.18zm2.84 5.77v-3.33a1.61 1.61 0 0 0-.4-1.21 2.09 2.09 0 0 0-1.53-.46 5 5 0 0 0-1.72.32l.11 1a3 3 0 0 1 1.43-.38 1.08 1.08 0 0 1 .79.23.89.89 0 0 1 .21.66v.29a3.48 3.48 0 0 0-2.45.75 1.39 1.39 0 0 0-.43 1 1.24 1.24 0 0 0 .34.9 1.46 1.46 0 0 0 1.05.37 1.75 1.75 0 0 0 1.59-.9 7.69 7.69 0 0 0 0 .78h1.07zm-1.55-1.08a1 1 0 0 1-.75.33.64.64 0 0 1-.49-.18.53.53 0 0 1-.15-.39c0-.57.6-.86 1.81-.86v.07a1.46 1.46 0 0 1-.42 1.03zm3.53-3.82h1.09v4.93h-1.09zm.55-.68a.67.67 0 0 1-.5-.21.65.65 0 0 1-.2-.47.67.67 0 0 1 .2-.48.7.7 0 0 1 .5-.2.72.72 0 0 1 .5.2.71.71 0 0 1 .19.48.68.68 0 0 1-.69.68zm4.2 2.7c-.44-.16-.84-.29-.84-.68s.3-.59.84-.59a3.76 3.76 0 0 1 1 .14v-.91a6.24 6.24 0 0 0-.92-.09 2.27 2.27 0 0 0-1.64.55 1.37 1.37 0 0 0-.4 1c0 1 .69 1.2 1.3 1.4.45.14.84.27.84.68a.51.51 0 0 1-.15.37 1.15 1.15 0 0 1-.79.25 3.86 3.86 0 0 1-1.05-.16v1a6 6 0 0 0 1 .09c1.28 0 2.14-.64 2.14-1.6s-.72-1.23-1.33-1.45zm6.08 1.78a2.49 2.49 0 0 1-1.05.23 1.22 1.22 0 0 1-.88-.31 1.69 1.69 0 0 1-.39-1.24 2 2 0 0 1 .33-1.21 1.17 1.17 0 0 1 1-.45 2.88 2.88 0 0 1 1 .19l.12-1a3.64 3.64 0 0 0-1.07-.15 2.42 2.42 0 0 0-1.78.65 2.83 2.83 0 0 0-.72 2.05 2.53 2.53 0 0 0 .6 1.83 2.17 2.17 0 0 0 1.6.55 4.12 4.12 0 0 0 1.38-.24zm5.4-3.53a1.42 1.42 0 0 0-1.07-.37 1.77 1.77 0 0 0-1.63.92 5 5 0 0 0 .06-.88V7.26h-1.1v7.22h1.1v-2.37c0-1 .54-1.73 1.25-1.73a.66.66 0 0 1 .49.16 1.09 1.09 0 0 1 .21.77v3.17h1.09V11a1.66 1.66 0 0 0-.4-1.18zm5.71.18a2 2 0 0 0-1.45-.53 2.11 2.11 0 0 0-1.53.6 2.75 2.75 0 0 0-.72 2 2.64 2.64 0 0 0 .63 1.93 2.42 2.42 0 0 0 1.75.59 4.6 4.6 0 0 0 1.7-.31l-.11-.89a3.46 3.46 0 0 1-1.41.31 1.39 1.39 0 0 1-1.05-.36 1.65 1.65 0 0 1-.39-1.24h3.1a4.9 4.9 0 0 0 0-.5 2.22 2.22 0 0 0-.52-1.6zm-1.49.3a.94.94 0 0 1 .69.26 1 1 0 0 1 .27.78h-2a1.07 1.07 0 0 1 1.04-1.06zm5.35 1.27c-.46-.16-.85-.29-.85-.68s.3-.59.84-.59a3.83 3.83 0 0 1 .95.14v-.91a6 6 0 0 0-.91-.09 2.27 2.27 0 0 0-1.64.55 1.37 1.37 0 0 0-.4 1c0 1 .69 1.2 1.31 1.4.44.14.83.27.83.68a.51.51 0 0 1-.15.37 1.13 1.13 0 0 1-.79.25 3.86 3.86 0 0 1-1-.16v1a6 6 0 0 0 1 .09c1.28 0 2.14-.64 2.14-1.6s-.72-1.23-1.33-1.45zm-54.99 7.53a2.64 2.64 0 0 0-1.94-.65h-1.69v6.68h1.12v-2.4h.47a2.8 2.8 0 0 0 1.88-.65 2.16 2.16 0 0 0 .71-1.63 1.85 1.85 0 0 0-.55-1.35zm-2.09 2.71a3.42 3.42 0 0 1-.45 0V19.4a4.44 4.44 0 0 1 .53 0 1.41 1.41 0 0 1 1.07.35 1.1 1.1 0 0 1 .31.83c0 .73-.58 1.22-1.46 1.23zm7.41 3.33v-3.33a1.63 1.63 0 0 0-.39-1.22 2.09 2.09 0 0 0-1.53-.46 4.88 4.88 0 0 0-1.73.33l.1 1a2.87 2.87 0 0 1 1.44-.4 1 1 0 0 1 .78.24.85.85 0 0 1 .21.66v.29a3.5 3.5 0 0 0-2.44.75 1.43 1.43 0 0 0-.43 1 1.24 1.24 0 0 0 .34.9 1.46 1.46 0 0 0 1 .38 1.75 1.75 0 0 0 1.58-.91v.78h1.07zm-1.54-1.07a1.05 1.05 0 0 1-.76.32.69.69 0 0 1-.49-.17.57.57 0 0 1-.15-.4c0-.57.61-.86 1.81-.86V23a1.49 1.49 0 0 1-.41 1.07zm4.77-3.83V18.4l-1.1.29v1.55h-.93v.86h.93v2.64a1.68 1.68 0 0 0 .33 1.21 1.42 1.42 0 0 0 1 .31 5 5 0 0 0 1-.11v-.92a3 3 0 0 1-.62.07.56.56 0 0 1-.44-.13c-.13-.12-.18-.34-.18-.77v-2.3h1.28v-.86zm6.15.43a1.93 1.93 0 0 0-1.44-.53 2.08 2.08 0 0 0-1.53.6 2.75 2.75 0 0 0-.72 2 2.64 2.64 0 0 0 .63 1.93 2.41 2.41 0 0 0 1.75.6 4.6 4.6 0 0 0 1.7-.32l-.11-.89a3.35 3.35 0 0 1-1.42.31 1.42 1.42 0 0 1-1-.36 1.68 1.68 0 0 1-.36-1.23h3.11a4.75 4.75 0 0 0 0-.5 2.18 2.18 0 0 0-.61-1.61zm-1.48.3a.94.94 0 0 1 .69.26 1.06 1.06 0 0 1 .27.77h-2a1.08 1.08 0 0 1 1.04-1zm7.44-.46a1.45 1.45 0 0 0-1.07-.37 1.82 1.82 0 0 0-1.67 1 6.1 6.1 0 0 0 0-.84h-1v4.93h1.1v-2.44a2.13 2.13 0 0 1 .36-1.23 1.1 1.1 0 0 1 .89-.5.66.66 0 0 1 .49.17 1 1 0 0 1 .21.77v3.17h1.09v-3.45a1.65 1.65 0 0 0-.4-1.21zm3.61-.27V18.4l-1.09.29v1.55h-.93v.86h.93v2.64A1.64 1.64 0 0 0 125 25a1.43 1.43 0 0 0 1.05.31 5 5 0 0 0 1-.11v-.92a3.2 3.2 0 0 1-.63.07.62.62 0 0 1-.45-.13c-.12-.12-.16-.34-.16-.77V21.1H127v-.86zm6.55 4.9v-3.33a1.63 1.63 0 0 0-.39-1.22 2.09 2.09 0 0 0-1.53-.46 5 5 0 0 0-1.73.33l.1 1a2.87 2.87 0 0 1 1.43-.4 1.08 1.08 0 0 1 .79.24.89.89 0 0 1 .21.66v.29a3.48 3.48 0 0 0-2.44.75 1.4 1.4 0 0 0-.44 1 1.24 1.24 0 0 0 .34.9 1.48 1.48 0 0 0 1.05.38 1.76 1.76 0 0 0 1.59-.91 7.69 7.69 0 0 0 0 .78h1.07zm-1.55-1.07a1 1 0 0 1-.75.32.68.68 0 0 1-.49-.17.57.57 0 0 1-.15-.4c0-.57.61-.86 1.81-.86V23a1.5 1.5 0 0 1-.42 1.07zM141 20.51a1.46 1.46 0 0 0-1.08-.37 1.77 1.77 0 0 0-1.61 1 1.28 1.28 0 0 0-1.37-1 1.79 1.79 0 0 0-1.63 1c0-.26.06-.88.06-.88h-1.05v4.93h1.1v-2.38a2.08 2.08 0 0 1 .37-1.25 1.07 1.07 0 0 1 .85-.5.64.64 0 0 1 .47.17 1.05 1.05 0 0 1 .21.79v3.15h1.08v-2.36c0-1.08.64-1.75 1.23-1.75a.64.64 0 0 1 .47.17 1.13 1.13 0 0 1 .21.8v3.14h1.1v-3.39a1.79 1.79 0 0 0-.41-1.27zm3.6-.27V18.4l-1.09.29v1.55h-.94v.86h.94v2.64a1.64 1.64 0 0 0 .32 1.21 1.43 1.43 0 0 0 1 .31 5 5 0 0 0 1-.11v-.92a3.2 3.2 0 0 1-.63.07.58.58 0 0 1-.44-.13c-.13-.12-.18-.34-.18-.77v-2.3h1.28v-.86zM97.79 35.52v6.67h3.55v-.96h-2.43v-2.01h2.31v-.92h-2.31v-1.84h2.43v-.94h-3.55zm8.33 1.74v2.39a2 2 0 0 1-.51 1.39 1 1 0 0 1-.74.33.66.66 0 0 1-.49-.17 1.07 1.07 0 0 1-.22-.77v-3.17h-1.08v3.44a1.7 1.7 0 0 0 .39 1.22 1.5 1.5 0 0 0 1.08.37 1.81 1.81 0 0 0 1.67-1 6.15 6.15 0 0 0-.06.84h1.06v-4.87zm5.68-.09a1.47 1.47 0 0 0-1.59 1 6.77 6.77 0 0 0 .07-.91h-1.06v4.93h1.11v-2a2.25 2.25 0 0 1 .51-1.75 1 1 0 0 1 .9-.18v-1.08zm4.96.58a2.18 2.18 0 0 0-1.61-.58 2.42 2.42 0 0 0-1.73.67 2.71 2.71 0 0 0-.74 1.95 2.63 2.63 0 0 0 .64 1.92 2.2 2.2 0 0 0 1.63.58 2.34 2.34 0 0 0 1.77-.76 2.78 2.78 0 0 0 .68-1.9 2.56 2.56 0 0 0-.64-1.88zm-.93 3.25a1.09 1.09 0 0 1-.79.32 1.11 1.11 0 0 1-.8-.3 1.86 1.86 0 0 1-.41-1.36c0-1.16.66-1.58 1.22-1.58a1.12 1.12 0 0 1 .82.3 1.82 1.82 0 0 1 .4 1.3 1.84 1.84 0 0 1-.44 1.32zm6.95-3.37a1.65 1.65 0 0 0-1.22-.46 1.68 1.68 0 0 0-1.56.93 8.19 8.19 0 0 0 0-.84h-1v7.33h1.1v-2.38a4.09 4.09 0 0 0 .71 0 2.53 2.53 0 0 0 1.9-.73 3 3 0 0 0 .67-2 2.52 2.52 0 0 0-.6-1.85zm-1 3.41a1.24 1.24 0 0 1-.93.34 2.34 2.34 0 0 1-.74-.09v-1.48a2.38 2.38 0 0 1 .3-1.18 1.06 1.06 0 0 1 .88-.55.82.82 0 0 1 .58.22 1.8 1.8 0 0 1 .36 1.28 2 2 0 0 1-.46 1.42zm6.52-3.34a1.93 1.93 0 0 0-1.45-.53 2.1 2.1 0 0 0-1.53.59 2.78 2.78 0 0 0-.72 2 2.62 2.62 0 0 0 .63 1.93 2.38 2.38 0 0 0 1.75.6 4.6 4.6 0 0 0 1.7-.31l-.11-.89a3.32 3.32 0 0 1-1.42.31 1.42 1.42 0 0 1-1-.36 1.65 1.65 0 0 1-.36-1.22h3.1a4.57 4.57 0 0 0 0-.49 2.22 2.22 0 0 0-.59-1.63zm-1.49.29a.93.93 0 0 1 .7.27 1.1 1.1 0 0 1 .26.77h-2a1.07 1.07 0 0 1 1.04-1.03zm7.39 4.17v-3.33a1.61 1.61 0 0 0-.4-1.21 2.1 2.1 0 0 0-1.54-.46 4.89 4.89 0 0 0-1.72.32l.11 1a3 3 0 0 1 1.44-.39 1.13 1.13 0 0 1 .79.23.93.93 0 0 1 .21.67v.29a3.46 3.46 0 0 0-2.45.74 1.43 1.43 0 0 0-.43 1.05 1.27 1.27 0 0 0 .34.9 1.46 1.46 0 0 0 1.05.37 1.72 1.72 0 0 0 1.58-.91v.79h1.07zm-1.54-1.07a1.09 1.09 0 0 1-.77.32.67.67 0 0 1-.49-.17.55.55 0 0 1-.15-.4c0-.56.61-.85 1.82-.85v.07a1.51 1.51 0 0 1-.41 1.03zm7.26-3.55a1.42 1.42 0 0 0-1.07-.37 1.82 1.82 0 0 0-1.67.95 5.9 5.9 0 0 0 .06-.83h-1.06v4.93h1.1v-2.41a2.1 2.1 0 0 1 .36-1.22 1.1 1.1 0 0 1 .89-.5.62.62 0 0 1 .49.17 1 1 0 0 1 .22.77v3.16h1.08v-3.44a1.62 1.62 0 0 0-.4-1.21zm-38.47 9.28a2.68 2.68 0 0 0-1.94-.65h-1.7v6.68h1.12v-2.4a3.86 3.86 0 0 0 .47 0 2.8 2.8 0 0 0 1.88-.65 2.2 2.2 0 0 0 .71-1.63 1.85 1.85 0 0 0-.54-1.35zm-2.09 2.71a3.42 3.42 0 0 1-.45 0v-2.41a4.35 4.35 0 0 1 .52 0 1.52 1.52 0 0 1 1.08.34 1.15 1.15 0 0 1 .3.84c0 .7-.58 1.22-1.45 1.23zm7.41 3.33v-3.33a1.63 1.63 0 0 0-.39-1.22 2.09 2.09 0 0 0-1.53-.46 4.88 4.88 0 0 0-1.73.33l.1 1a3 3 0 0 1 1.44-.38 1 1 0 0 1 .78.23.85.85 0 0 1 .21.66v.29a3.5 3.5 0 0 0-2.44.75 1.45 1.45 0 0 0-.43 1 1.23 1.23 0 0 0 .34.89 1.42 1.42 0 0 0 1 .38 1.73 1.73 0 0 0 1.58-.91v.78h1.07zm-1.54-1.07a1.05 1.05 0 0 1-.76.32.66.66 0 0 1-.49-.18.51.51 0 0 1-.15-.39c0-.57.61-.85 1.81-.86v.07a1.49 1.49 0 0 1-.41 1.04zM110 48v-1.88l-1.09.29V48h-.93v.87h.93v2.63a1.64 1.64 0 0 0 .33 1.21 1.42 1.42 0 0 0 1 .3 4.84 4.84 0 0 0 1-.1V52a2.59 2.59 0 0 1-.63.08.59.59 0 0 1-.44-.13c-.12-.12-.17-.34-.17-.77v-2.3h1.27V48zm6.14.39a2 2 0 0 0-1.44-.53 2.08 2.08 0 0 0-1.54.6 2.79 2.79 0 0 0-.72 2 2.64 2.64 0 0 0 .64 1.93 2.38 2.38 0 0 0 1.74.6 4.56 4.56 0 0 0 1.7-.32l-.11-.89a3.46 3.46 0 0 1-1.41.31 1.41 1.41 0 0 1-1-.36 1.68 1.68 0 0 1-.37-1.23h3.11a3 3 0 0 0 0-.5 2.17 2.17 0 0 0-.6-1.61zm-1.49.3a.94.94 0 0 1 .7.26 1.13 1.13 0 0 1 .26.78h-2a1.07 1.07 0 0 1 1.04-1.04zm7.46-.46a1.5 1.5 0 0 0-1.08-.37 1.8 1.8 0 0 0-1.66 1 8.19 8.19 0 0 0 0-.83h-1.06v4.93h1.11v-2.45a2.12 2.12 0 0 1 .35-1.23 1.12 1.12 0 0 1 .89-.5.7.7 0 0 1 .5.17 1.08 1.08 0 0 1 .21.77v3.17h1.09v-3.44a1.71 1.71 0 0 0-.35-1.22zm3.63-.23v-1.88l-1.09.29V48h-.94v.87h.94v2.63a1.64 1.64 0 0 0 .33 1.21 1.42 1.42 0 0 0 1 .3 4.92 4.92 0 0 0 1-.1V52a2.53 2.53 0 0 1-.63.08.58.58 0 0 1-.44-.13c-.12-.12-.17-.34-.17-.77v-2.3H127V48zm10.61-1.1a3 3 0 0 0-2.14-.78A3.1 3.1 0 0 0 132 47a4.12 4.12 0 0 0-.1 5.21 2.86 2.86 0 0 0 2.1.79 3.12 3.12 0 0 0 2.27-.94 3.63 3.63 0 0 0 .94-2.58 3.51 3.51 0 0 0-.86-2.58zm-1 4.55a1.79 1.79 0 0 1-1.27.53 1.74 1.74 0 0 1-1.26-.47 2.81 2.81 0 0 1-.64-2 2.6 2.6 0 0 1 .59-1.78 1.73 1.73 0 0 1 1.33-.6 1.71 1.71 0 0 1 1.27.48 2.7 2.7 0 0 1 .64 2 2.59 2.59 0 0 1-.64 1.84zm10.23-5.76a3.57 3.57 0 0 0-.8-.09 2 2 0 0 0-1.43.49 2 2 0 0 0-.51 1.52V48H142v.87h.87v4.06h1.1v-4.1h1.22V48h-1.22v-.37c0-.75.27-1.08.89-1.08a2 2 0 0 1 .65.1l.08-.91zm-3.84 0a3.44 3.44 0 0 0-.8-.09 2 2 0 0 0-1.43.49 2.08 2.08 0 0 0-.5 1.52V48h-.88v.87h.87v4.06h1.1v-4.1h1.22V48h-1.22v-.37c0-.75.27-1.08.88-1.08a2.13 2.13 0 0 1 .67.1l.09-.91zm5.39 1.6a.69.69 0 0 0 .69-.69.71.71 0 0 0-.19-.48.72.72 0 0 0-.5-.2.71.71 0 0 0-.51.21.68.68 0 0 0-.19.47.71.71 0 0 0 .19.48.75.75 0 0 0 .51.21zm-.56.67h1.1v4.93h-1.1zm6.21 3.8a2.49 2.49 0 0 1-1.05.23 1.2 1.2 0 0 1-.88-.31 1.72 1.72 0 0 1-.38-1.23 2.08 2.08 0 0 1 .32-1.22 1.2 1.2 0 0 1 1-.45 2.83 2.83 0 0 1 1 .19l.11-1a3.64 3.64 0 0 0-1.07-.15 2.43 2.43 0 0 0-1.78.65 2.83 2.83 0 0 0-.72 2 2.49 2.49 0 0 0 .61 1.83 2.13 2.13 0 0 0 1.59.55 4.08 4.08 0 0 0 1.38-.24zm4.91-3.37a1.93 1.93 0 0 0-1.44-.53 2 2 0 0 0-1.53.6 2.75 2.75 0 0 0-.72 2 2.64 2.64 0 0 0 .63 1.93 2.41 2.41 0 0 0 1.75.6 4.5 4.5 0 0 0 1.69-.32l-.1-.89a3.39 3.39 0 0 1-1.41.31 1.41 1.41 0 0 1-1-.36 1.68 1.68 0 0 1-.36-1.23h3.11a4.75 4.75 0 0 0 0-.5 2.18 2.18 0 0 0-.62-1.61zm-1.48.3a1 1 0 0 1 .69.26 1 1 0 0 1 .26.78h-2a1.09 1.09 0 0 1 1.05-1.04zM137.53 65.6V68a2 2 0 0 1-.49 1.39 1.09 1.09 0 0 1-.75.33.66.66 0 0 1-.49-.17 1.09 1.09 0 0 1-.22-.77V65.6h-1.09V69a1.64 1.64 0 0 0 .41 1.21 1.44 1.44 0 0 0 1.08.37 1.79 1.79 0 0 0 1.65-1 8.13 8.13 0 0 0 0 .84h1V65.6zm5.68-.1a1.5 1.5 0 0 0-1.59 1 5.44 5.44 0 0 0 .07-.91h-1v4.92h1.09v-2a2.26 2.26 0 0 1 .52-1.76 1 1 0 0 1 .9-.18l.05-1.08zm4.96.58a2.13 2.13 0 0 0-1.61-.58 2.35 2.35 0 0 0-1.71.67 2.74 2.74 0 0 0-.75 2 2.63 2.63 0 0 0 .64 1.92 2.2 2.2 0 0 0 1.63.58 2.37 2.37 0 0 0 1.77-.76 2.84 2.84 0 0 0 .67-1.9 2.52 2.52 0 0 0-.64-1.93zm-.92 3.27a1.09 1.09 0 0 1-.79.32 1.07 1.07 0 0 1-.8-.3 1.86 1.86 0 0 1-.42-1.36c0-1.17.67-1.58 1.23-1.58a1.13 1.13 0 0 1 .82.3 2.3 2.3 0 0 1 0 2.62zM154.2 66a1.65 1.65 0 0 0-1.2-.5 1.68 1.68 0 0 0-1.56.93v-.83h-1v7.32h1.1v-2.38a4.09 4.09 0 0 0 .71 0 2.46 2.46 0 0 0 1.9-.74 3 3 0 0 0 .66-2 2.56 2.56 0 0 0-.61-1.8zm-1 3.42a1.29 1.29 0 0 1-.93.34 2.68 2.68 0 0 1-.74-.09v-1.52a2.41 2.41 0 0 1 .3-1.19 1 1 0 0 1 .88-.55.83.83 0 0 1 .58.22 1.81 1.81 0 0 1 .36 1.29 2.05 2.05 0 0 1-.46 1.46zM165.25 66a2 2 0 0 0-1.44-.52 2.17 2.17 0 0 0-1.54.59 2.83 2.83 0 0 0-.72 2 2.65 2.65 0 0 0 .64 1.94 2.39 2.39 0 0 0 1.75.59 4.5 4.5 0 0 0 1.69-.31l-.1-.89a3.51 3.51 0 0 1-1.42.31 1.41 1.41 0 0 1-1-.36 1.69 1.69 0 0 1-.36-1.23h3.11v-.5a2.22 2.22 0 0 0-.61-1.62zm-1.48.31a1 1 0 0 1 .69.26 1.06 1.06 0 0 1 .27.77h-2a1.08 1.08 0 0 1 1.04-1.01zm7.58-.44a1.48 1.48 0 0 0-1.09-.37 1.8 1.8 0 0 0-1.66 1 8.38 8.38 0 0 0 .05-.84h-1.05v4.92h1.1v-2.43a2.11 2.11 0 0 1 .36-1.23 1.1 1.1 0 0 1 .89-.5.66.66 0 0 1 .49.17 1.08 1.08 0 0 1 .21.77v3.16h1.09v-3.44a1.66 1.66 0 0 0-.39-1.21zm-68.62-1.33a2.93 2.93 0 0 0-2.13-.79 3.15 3.15 0 0 0-2.23.89 4.12 4.12 0 0 0-.1 5.21 2.9 2.9 0 0 0 2.13.77 3.11 3.11 0 0 0 2.27-.93 3.61 3.61 0 0 0 .94-2.59 3.48 3.48 0 0 0-.88-2.56zm-1 4.55a1.83 1.83 0 0 1-1.28.53 1.68 1.68 0 0 1-1.25-.48 2.8 2.8 0 0 1-.64-2 2.66 2.66 0 0 1 .58-1.79 1.84 1.84 0 0 1 2.61-.11 2.72 2.72 0 0 1 .64 2 2.62 2.62 0 0 1-.63 1.85zM112 63.33a3.5 3.5 0 0 0-.8-.09 2 2 0 0 0-1.43.48 2.09 2.09 0 0 0-.5 1.53v.34h-.88v.87h.88v4.06h1.09v-4.06h1.23v-.87h-1.23v-.36c0-.75.27-1.08.89-1.08a2.34 2.34 0 0 1 .66.09l.08-.92zm-3.88 0a3.35 3.35 0 0 0-.79-.09 2 2 0 0 0-1.43.48 2 2 0 0 0-.51 1.53v.34h-.87v.87h.87v4.06h1.1v-4.06h1.23v-.87h-1.23v-.36c0-.75.27-1.08.89-1.08a2.27 2.27 0 0 1 .65.09l.09-.92zm5.39 1.59a.69.69 0 0 0 .7-.68.7.7 0 0 0-1.2-.48.67.67 0 0 0-.2.48.65.65 0 0 0 .2.47.67.67 0 0 0 .5.21zm-.55.67h1.1v4.93h-1.1zm6.2 3.8a2.39 2.39 0 0 1-1 .24 1.21 1.21 0 0 1-.89-.32 1.71 1.71 0 0 1-.39-1.23 2 2 0 0 1 .34-1.21 1.16 1.16 0 0 1 1-.45 2.9 2.9 0 0 1 1 .18l.12-1a4.08 4.08 0 0 0-1.08-.15 2.38 2.38 0 0 0-1.77.66 2.78 2.78 0 0 0-.72 2 2.51 2.51 0 0 0 .6 1.83 2.18 2.18 0 0 0 1.59.55 3.85 3.85 0 0 0 1.38-.25zm4.92-3.39a2 2 0 0 0-1.45-.52 2.09 2.09 0 0 0-1.53.59 2.81 2.81 0 0 0-.72 2A2.64 2.64 0 0 0 121 70a2.38 2.38 0 0 0 1.75.6 4.4 4.4 0 0 0 1.7-.32l-.11-.88a3.23 3.23 0 0 1-1.4.31 1.43 1.43 0 0 1-1.06-.36 1.65 1.65 0 0 1-.36-1.22h3.11a4.57 4.57 0 0 0 0-.49 2.24 2.24 0 0 0-.55-1.64zm-1.49.3a.9.9 0 0 1 .69.27 1.06 1.06 0 0 1 .27.77h-2a1.08 1.08 0 0 1 1.04-1.02zm9.64-.3a2 2 0 0 0-1.44-.52 2.1 2.1 0 0 0-1.53.59 2.81 2.81 0 0 0-.72 2 2.64 2.64 0 0 0 .64 1.93 2.34 2.34 0 0 0 1.74.6 4.4 4.4 0 0 0 1.7-.32l-.11-.88a3.31 3.31 0 0 1-1.41.31 1.39 1.39 0 0 1-1.05-.36 1.61 1.61 0 0 1-.37-1.22h3.11a4.57 4.57 0 0 0 0-.49 2.16 2.16 0 0 0-.56-1.64zm-1.47.3a.92.92 0 0 1 .69.27 1.06 1.06 0 0 1 .26.77h-2a1.1 1.1 0 0 1 1.05-1.02zm28.96-.3a2 2 0 0 0-1.44-.52 2.17 2.17 0 0 0-1.54.59 2.83 2.83 0 0 0-.72 2 2.65 2.65 0 0 0 .64 1.94 2.39 2.39 0 0 0 1.75.59 4.6 4.6 0 0 0 1.7-.31l-.1-.89a3.51 3.51 0 0 1-1.42.31 1.41 1.41 0 0 1-1-.36 1.69 1.69 0 0 1-.36-1.23h3.11a4.9 4.9 0 0 0 0-.5 2.22 2.22 0 0 0-.62-1.62zm-1.48.31a.94.94 0 0 1 .69.26 1.11 1.11 0 0 1 .27.77h-2a1.08 1.08 0 0 1 1.04-1.01zm-.3-1.36l1.67-.99-.5-.76-1.58 1.11.41.64zM100.67 74v2.24h-.66a2.51 2.51 0 0 0-1.82.69 2.91 2.91 0 0 0-.75 2.1 2.55 2.55 0 0 0 .6 1.86 1.69 1.69 0 0 0 1.22.46 1.72 1.72 0 0 0 1.56-.93 6 6 0 0 0 0 .81h1V74zm-.51 6.11a.92.92 0 0 1-.67.28.8.8 0 0 1-.59-.22 1.85 1.85 0 0 1-.35-1.28 2.16 2.16 0 0 1 .38-1.39 1.23 1.23 0 0 1 1-.41 3.82 3.82 0 0 1 .75.08v1.5a2.08 2.08 0 0 1-.52 1.44zm6.9-3.4a1.93 1.93 0 0 0-1.44-.53 2.11 2.11 0 0 0-1.53.6 2.83 2.83 0 0 0-.72 2 2.66 2.66 0 0 0 .63 1.94 2.42 2.42 0 0 0 1.75.59 4.5 4.5 0 0 0 1.69-.31l-.1-.88a3.31 3.31 0 0 1-1.41.31 1.43 1.43 0 0 1-1-.35 1.68 1.68 0 0 1-.37-1.24h3.1a4.57 4.57 0 0 0 0-.49 2.2 2.2 0 0 0-.6-1.64zm-1.48.3a.89.89 0 0 1 .69.27 1.06 1.06 0 0 1 .27.77h-2a1.07 1.07 0 0 1 1.04-1.05zm24.21-.3a2 2 0 0 0-1.44-.53 2.15 2.15 0 0 0-1.54.6 2.82 2.82 0 0 0-.71 2 2.66 2.66 0 0 0 .63 1.94 2.4 2.4 0 0 0 1.75.59 4.54 4.54 0 0 0 1.69-.31l-.1-.88a3.31 3.31 0 0 1-1.41.31 1.47 1.47 0 0 1-1.06-.35 1.72 1.72 0 0 1-.36-1.24h3.11a4.57 4.57 0 0 0 0-.49 2.2 2.2 0 0 0-.56-1.64zm-1.48.3a.92.92 0 0 1 .69.27 1.06 1.06 0 0 1 .27.77h-2a1.09 1.09 0 0 1 1.04-1.05zm12.13-.3a2 2 0 0 0-1.45-.53 2.11 2.11 0 0 0-1.53.6 2.78 2.78 0 0 0-.72 2 2.66 2.66 0 0 0 .63 1.94 2.39 2.39 0 0 0 1.74.59 4.61 4.61 0 0 0 1.71-.31l-.1-.88a3.31 3.31 0 0 1-1.41.31 1.47 1.47 0 0 1-1.06-.35 1.72 1.72 0 0 1-.36-1.24H141a3 3 0 0 0 0-.49 2.24 2.24 0 0 0-.56-1.64zM139 77a.9.9 0 0 1 .69.27 1.06 1.06 0 0 1 .27.77h-2A1.09 1.09 0 0 1 139 77zm-28 1.31c-.45-.16-.84-.29-.84-.69s.29-.58.84-.58a3.29 3.29 0 0 1 .94.14v-.91a6 6 0 0 0-.92-.09 2.33 2.33 0 0 0-1.64.55 1.43 1.43 0 0 0-.39 1c0 1 .69 1.2 1.3 1.4.45.15.84.27.84.68a.51.51 0 0 1-.16.37 1.11 1.11 0 0 1-.78.25 3.86 3.86 0 0 1-1.05-.15v.94a5.8 5.8 0 0 0 1 .1c1.28 0 2.14-.65 2.14-1.61s-.71-1.19-1.28-1.4zm37.49 0c-.46-.16-.85-.29-.85-.69s.3-.58.84-.58a3.36 3.36 0 0 1 1 .14v-.91a6 6 0 0 0-.92-.09 2.31 2.31 0 0 0-1.64.55 1.4 1.4 0 0 0-.4 1c0 1 .69 1.2 1.3 1.4.45.15.84.27.84.68a.5.5 0 0 1-.15.37 1.11 1.11 0 0 1-.78.25 4 4 0 0 1-1.06-.15v.94a6 6 0 0 0 1 .1c1.28 0 2.15-.65 2.15-1.61s-.71-1.19-1.33-1.4zm-28.12-1.67a1.7 1.7 0 0 0-1.23-.46 1.63 1.63 0 0 0-1.51.89 7.55 7.55 0 0 0 .06-.8V74h-1.1v7.08a6.46 6.46 0 0 0 1.75.21A2.5 2.5 0 0 0 121 78.5a2.55 2.55 0 0 0-.63-1.86zm-1 3.43a1.3 1.3 0 0 1-.94.34 2.22 2.22 0 0 1-.73-.1v-1.49a2.37 2.37 0 0 1 .3-1.17 1 1 0 0 1 .88-.54.78.78 0 0 1 .58.22 1.78 1.78 0 0 1 .35 1.28 2 2 0 0 1-.45 1.46zm5.79-3.89a1.48 1.48 0 0 0-1.58 1 6.77 6.77 0 0 0 .07-.91h-1.06v4.93h1.11v-2a2.29 2.29 0 0 1 .51-1.76 1.1 1.1 0 0 1 .9-.18v-1.08zm9.67.1l-.94 2.64c-.11.32-.2.65-.26.89a9.1 9.1 0 0 0-.3-.93l-.91-2.6h-1.22l1.85 4.93h1.1l1.85-4.93zm9.17 0v-1.84l-1.09.3v1.54h-.94v.87h.94v2.63a1.64 1.64 0 0 0 .33 1.21 1.4 1.4 0 0 0 1.05.31 4.89 4.89 0 0 0 1-.11v-.92a2.53 2.53 0 0 1-.63.08.58.58 0 0 1-.44-.13c-.13-.12-.17-.35-.17-.77v-2.3h1.27v-.87zM41.07 49.75c1.42-3.8 1.72-7.24.77-9a2.11 2.11 0 0 0-1.41-1.14c-2.31-.53-5.55 2.83-7.38 7.66-1.39 3.66-1.71 6.89-.84 8.65a2.32 2.32 0 0 0 1.43 1.27c2.3.68 5.63-2.66 7.43-7.44zm5 1.17A20.84 20.84 0 0 1 38 61.25a8.73 8.73 0 0 1-6.88 1.31 6.36 6.36 0 0 1-4.1-3.46c-1.54-3.13-1.18-8 .9-13.25C31 38 37.37 32.88 42.42 34.12a6.2 6.2 0 0 1 4.09 3.29c1.73 3.26 1.58 8.18-.41 13.51z"/><path d="M42.56 24.24A2.63 2.63 0 0 1 45.19 23 9.29 9.29 0 0 1 49 24.73a17.57 17.57 0 0 1 5.76 7.63c2.59 6.07 3.93 15.18-2 25.89-4 7.31-9.56 11.65-14.64 13.37a23.32 23.32 0 0 1-10.6.95 16.94 16.94 0 0 1-4.67-1.31 11.35 11.35 0 0 1-2.54-1.52c-1.87-1.57-1.9-3-1.3-4.18a2.64 2.64 0 0 1 2.79-1.46 4.08 4.08 0 0 1 1.75.7 12.06 12.06 0 0 0 2.34 1.29 15 15 0 0 0 10 .12c4.23-1.31 8.81-5.27 11.91-11A27.89 27.89 0 0 0 51 44.93a18.47 18.47 0 0 0-3.21-13.27A15.39 15.39 0 0 0 43.34 28a2.82 2.82 0 0 1-.78-3.76z"/><path d="M19.68 75.28A15.36 15.36 0 0 0 23 76.63a27.2 27.2 0 0 0 8.86.68c7.62-.54 17.31-4.9 23.76-16.79 6.55-12.07 5.61-23.8 1.12-32.84a23.18 23.18 0 0 0-9.11-9.53 20.55 20.55 0 0 0-4.62-2 2.69 2.69 0 0 1-1.89-3.66 2.82 2.82 0 0 1 3-1.9 9.87 9.87 0 0 1 2.89.66 25.24 25.24 0 0 1 4.26 2.14A30.24 30.24 0 0 1 63 27.06C67.45 37 68 50.19 61 63 48.29 86.1 26.48 85.28 18.29 81.28A11.31 11.31 0 0 1 14.92 79a2.71 2.71 0 0 1-.38-3.49 2.55 2.55 0 0 1 2-1.28 3.39 3.39 0 0 1 1.21.12 4.58 4.58 0 0 1 1 .46c.17.05.48.19.93.47z"/><path d="M62.87 66.37a4.9 4.9 0 0 1 .3-.85c.11-.24.23-.49.4-.79.38-.64.75-1.35 1-1.85 2.9-5.74 6.23-15.52 5-25.5-1.25-10.52-5-18.71-11.57-24.23a29.38 29.38 0 0 0-2.49-1.87 5.76 5.76 0 0 1-1.16-.94A2.71 2.71 0 0 1 54.12 7c1.11-1.87 3-1.7 5.56.08a33.85 33.85 0 0 1 6.67 6.3c3.74 4.56 7.79 11.86 9.05 23.11a48.44 48.44 0 0 1-1.31 17.21 57.44 57.44 0 0 1-4.15 11.56c-.42.83-.86 1.57-1.24 2.19a5.32 5.32 0 0 1-1.53 1.71 3.12 3.12 0 0 1-3.27-.06 2.38 2.38 0 0 1-1.03-2.73z"/></g></svg>
