<svg xmlns="http://www.w3.org/2000/svg" id="DP_Markenclip" version="1.1" width="103" height="103"><defs id="defs4400"><linearGradient id="Unbenannter_Verlauf" y1="106" x2="1" y2="106" gradientTransform="matrix(0 103 103 0 -10862 0)" gradientUnits="userSpaceOnUse"><stop offset="0" stop-color="#fff4d8" id="stop4387"/><stop offset=".08" stop-color="#ffe680" id="stop4389"/><stop offset=".283" stop-color="#ffd942" id="stop4391"/><stop offset=".462" stop-color="#ffd012" id="stop4393"/><stop offset=".55" stop-color="#fc0" id="stop4395"/><stop offset="1" stop-color="#fc0" id="stop4397"/></linearGradient><style id="style4385"></style></defs><g id="g4980" transform="translate(-4.5)"><path class="logo-gradient" id="rect4408" fill="url(#Unbenannter_Verlauf)" d="M6 0h100v103H6z"/><path d="M45.172 67.508h8.94l-9.03 9.122h-8.94zm-21.09 9.122h8.942l9.026-9.122h-8.939zm41.047-9.122h-8.942l9.03 9.122h8.94zm12.06 0h-8.941l9.028 9.122h8.94zM90.42 31.01C89.15 49.596 75.189 65.875 54.471 65.866 31.036 65.86 21.976 45.52 23.196 30.108l6.882-2.186c-1.119 8.771 1.601 15.097 3.476 17.996-2.233-12.408 7.15-22.452 18.894-22.46 10.564-.007 19.301 7.693 19.26 18.741a58.503 58.503 0 002.85-15.13zM65.175 42.59A12.694 12.694 0 1052.48 55.262 12.682 12.682 0 0065.175 42.59z" id="path4410"/></g></svg>