<svg xmlns="http://www.w3.org/2000/svg" width="792.44" height="792.44"><defs><clipPath clipPathUnits="userSpaceOnUse" id="a"><path d="M.253 614.455h594.334V227H.253z"/></clipPath><clipPath clipPathUnits="userSpaceOnUse" id="b"><path d="M0 227h595v388H0z"/></clipPath><clipPath clipPathUnits="userSpaceOnUse" id="c"><path d="M0 227h595v388H0z"/></clipPath></defs><g clip-path="url(#a)" transform="matrix(1.33333 0 0 -1.33333 -.338 957.19)"><g clip-path="url(#b)"><path d="M583.585 318.76L63.138 227C50.107 300.92 16.065 294.919 3.03 368.83c-13.031 73.931 21.01 79.932 7.967 153.856l520.448 91.769c13.022-73.928 47.076-67.919 60.107-141.838 13.036-73.928-21.002-79.928-7.967-153.856" fill="#f8b80c"/></g></g><g clip-path="url(#c)" transform="matrix(1.33333 0 0 -1.33333 -.338 957.19)"><path d="M519.005 501.502l-2.925 16.596-54.613-9.583 18.217-103.673 54.618 9.6-2.916 16.614-37.017-6.495-5.313 30.29 30.544 5.364-2.916 16.6-30.535-5.359-4.14 23.551zm-81.144-73.62l-1.57-3.98c-1.14-2.928-2.806-5.974-4.827-8.262-2.034-2.3-4.313-3.785-6.891-4.24-3.321-.528-5.566.18-7.942 1.924-7.258 5.122-11.609 22.365-13.027 31.505-1.105 6.174-2.494 16.006-1.565 24.154.422 4.064 1.455 7.643 3.046 10.073 1.633 2.44 3.507 3.874 6.803 4.511 2.662.443 4.857-.067 7.098-1.329 2.202-1.245 4.32-3.313 6.123-5.752l2.603-3.502 13.592 11.71-2.447 3.06c-7.035 9-17.365 15.123-29.961 12.84-7.043-1.219-12.618-4.485-16.5-8.963-5.849-6.756-7.996-15.697-8.604-24.606-.59-8.941.473-18.01 1.755-25.36 1.73-9.728 4.849-22.214 11.124-32.215 3.135-4.98 7.127-9.398 12.343-12.276 5.14-2.886 11.448-4.064 18.458-2.827l.093.008c12.646 2.215 20.862 11.693 25.129 22.496l1.435 3.578-3.52 1.612-12.748 5.84zM313.58 465.41l12.897 2.262 12.38-70.455-12.9-2.266 2.925-16.609 43.566 7.676-2.925 16.597-13.052-2.296-12.385 70.45 13.06 2.288-2.92 16.6-43.565-7.646zm-42.227-32.97c-1.258-2.384-2.92-3.616-6.098-4.24l-10.064-1.777-4.9 27.86 7.77 1.367c4.346.76 7.27.287 9.215-1.038 1.954-1.33 3.794-4.022 4.803-9.676 1.063-5.942.506-10.073-.726-12.495zM289 429.014c2.089 6.064 2.25 12.68 1.119 19.09-1.655 9.52-6.364 16.433-12.154 20.513-5.79 4.081-12.503 5.44-18.365 4.41l-29.83-5.237 18.213-103.656 17.618 3.093-7.482 42.595 4.237.747 30.206-41.903 14.465 10.419-26.893 37.4c4.292 3.372 7.229 7.769 8.866 12.529zm-96.664-9.98c-1.325-2.502-3.186-3.941-6.63-4.684l-9.401-1.751-4.887 27.821 7.052 1.245c4.565.794 7.705.22 9.844-1.228 2.131-1.43 3.946-4.135 4.887-9.368.979-5.46.439-9.507-.865-12.035zm-16.639 39.253l-24.808-4.359 18.22-103.644 17.615 3.076-7.49 42.613 10.35 1.81c7.584 1.304 14.124 5.507 18.062 11.955 3.954 6.444 5.3 14.883 3.603 24.517-1.536 8.896-5.54 16.04-11.895 20.28-6.339 4.259-14.521 5.364-23.657 3.752" fill="#231f20"/><path d="M90.516 433.997c14.862 2.477 21.922-15.622 25.382-29.869l-39.071-6.86c-1.612 14.57-1.144 33.977 13.689 36.729zm15.23-85.811c-18.728-3.292-25.147 25.969-27.493 39.329l-.004.008 39.637 6.967.004-.008 10.735 1.882c-3.578 20.352-13.178 51.723-39.662 47.326v.008a2.046 2.046 0 01-.144-.026c-.067-.012-.118-.02-.16-.038-26.404-4.895-24.728-37.662-21.146-58.006 3.558-20.26 13.217-51.828 39.929-47.127 11.684 2.06 19.34 10.684 23.63 21.42l-9.46 4.338c-2.739-6.967-7.874-14.677-15.867-16.074" fill="#110f0d"/></g></svg>