<svg xmlns="http://www.w3.org/2000/svg" style="fill-rule:evenodd;clip-rule:evenodd;stroke-linejoin:round;stroke-miterlimit:2" viewBox="0 0 98 100"><path d="M-5-6h105v115H-5z" style="fill:none" transform="matrix(.93333 0 0 .86957 4.667 5.217)"/><path d="M8.19 99h46.37c5.6 0 12.85-2.8 16.26-6.2 3-3 13-13.46 19.74-20.51a21.83 21.83 0 0 0 6.38-16.1V8.36c0-4.038-3.322-7.36-7.36-7.36H43.05c-6.44 0-12.72 2.78-16.19 6.28-3 3-12.85 13.4-19.63 20.41a21.7 21.7 0 0 0-6.4 16.07v47.89C.83 95.682 4.148 99 8.18 99z" style="fill:#ffcb31;fill-rule:nonzero"/><path d="M77.92 59.94a22.1 22.1 0 0 0 2.2-10.38q0-8.75-4.29-13.41T63.45 31.5q-8.09 0-12.43 4.62t-4.33 13.39q0 8.76 4.31 13.49t12.4 4.68h.6l1.48 1.81.85 1v.06l.36.44q.267.307.58.57l.47.36a8.6 8.6 0 0 0 3.73 1.42H78l-6.49-7.26a13.38 13.38 0 0 0 6.41-6.14M63.41 61.4a7.84 7.84 0 0 1-6.68-3q-2.23-3-2.24-8.86c0-3.93.76-6.88 2.26-8.88a7.89 7.89 0 0 1 6.7-3q8.86 0 8.87 11.87T63.41 61.4M38 38.2c3.057-.093 5.566-2.537 5.74-5.59v-.56h-18.5c-3.197.06-5.795 2.703-5.8 5.9v29.21H38c3.057-.083 5.57-2.526 5.74-5.58v-.52H26.88v-8.31h10.27c3.039-.092 5.536-2.515 5.72-5.55v-.55h-16V38.2z" style="fill-rule:nonzero"/></svg>
