<svg xmlns="http://www.w3.org/2000/svg" viewBox="0 0 96.13 98"><path fill="#ffcb31" d="M7.37 98h46.37c5.6 0 12.85-2.8 16.26-6.2 3-3 13-13.46 19.74-20.51a21.83 21.83 0 0 0 6.38-16.1V7.36C96.12 3.32 92.8 0 88.76 0H42.23c-6.44 0-12.72 2.78-16.19 6.28-3 3-12.85 13.4-19.63 20.41a21.7 21.7 0 0 0-6.4 16.07v47.89C.01 94.68 3.33 98 7.36 98z"/><path d="M77.1 58.94c1.57-3.23 2.32-6.79 2.2-10.38q0-8.745-4.29-13.41c-4.29-4.665-6.99-4.66-12.38-4.65-5.39 0-9.54 1.54-12.43 4.62s-4.34 7.54-4.33 13.39c0 5.84 1.44 10.34 4.31 13.49s7.01 4.71 12.4 4.68h.6l1.48 1.81.85 1v.06l.36.44a6 6 0 0 0 .58.57l.47.36c1.11.76 2.39 1.25 3.73 1.42h6.53l-6.49-7.26c2.77-1.26 5.03-3.42 6.41-6.14M62.59 60.4c-2.59.17-5.09-.96-6.68-3-1.49-2-2.23-4.95-2.24-8.86 0-3.93.76-6.88 2.26-8.88a7.9 7.9 0 0 1 6.7-3c5.91 0 8.86 3.96 8.87 11.87 0 7.91-2.96 11.87-8.91 11.87M37.18 37.2a5.94 5.94 0 0 0 5.74-5.59v-.56h-18.5c-3.2.06-5.8 2.7-5.8 5.9v29.21h18.56c3.06-.08 5.57-2.53 5.74-5.58v-.52H26.06v-8.31h10.27c3.04-.09 5.54-2.51 5.72-5.55v-.55h-16V37.2z"/></svg>
