<svg xmlns="http://www.w3.org/2000/svg" viewBox="0 0 250 250"><path fill="#DDE1EE" d="M125 43.7c-44.8 0-81.3 36.5-81.3 81.3s36.5 81.3 81.3 81.3 81.2-36.5 81.2-81.3-36.4-81.3-81.2-81.3z"/><path fill="#FFF" d="m125 48.5 4.1 29.9 9.2-28.7-1.2 30.1 14.1-26.7-6.4 29.5 18.5-23.8-11.4 27.9 22.3-20.3-16.1 25.5 25.5-16.1-20.3 22.3 27.9-11.4-23.8 18.5 29.5-6.4-26.7 14.1 30.1-1.2-28.7 9.2 29.9 4.1-29.9 4.1 28.7 9.2-30.1-1.2 26.7 14.1-29.5-6.4 23.8 18.5-27.9-11.4 20.3 22.3-25.5-16.1 16.1 25.5-22.3-20.3 11.4 27.9-18.5-23.8 6.4 29.5-14.1-26.7 1.2 30.1-9.2-28.7-4.1 29.9-4.1-29.9-9.2 28.7 1.2-30.1-14.1 26.7 6.4-29.5-18.6 24 11.5-28.1-22.3 20.3 16.1-25.5-25.5 16.1 20.3-22.3-27.9 11.4 23.8-18.5-29.5 6.4 26.7-14.1-30.1 1.2 28.7-9.2-29.9-4.1 29.9-4.1-28.7-9.2 30.1 1.2L53 98.8l29.5 6.4-23.8-18.5 27.9 11.4-20.2-22.3 25.5 16.1-16.1-25.5 22.3 20.3-11.4-28 18.5 23.8L98.8 53l14.1 26.7-1.2-30.1 9.2 28.7 4.1-29.8zM242.1 125c0 64.7-52.4 117.1-117.1 117.1C60.3 242.1 7.9 189.7 7.9 125 7.9 60.3 60.3 7.9 125 7.9c64.7 0 117.1 52.4 117.1 117.1zm-37.9 0c0-43.7-35.5-79.2-79.2-79.2S45.8 81.3 45.8 125s35.5 79.2 79.2 79.2 79.2-35.5 79.2-79.2z"/><path fill="#A29061" d="m163.3 97.8 15.2-9.8c-.8-.8-2.8-.5-6.3.7-3.6 1.2-13 6-13 6 1.7-2 6.8-6.6 9.8-8.3-.8-.9-2.9-.1-3.6.1-2.3.7-9.2 4-11.7 4.6.3-.5 3-2.9 3.2-3.2-1.4-.6-1.8-.7-3.6-.1-2.8.9-12 7.9-14.5 11.8-4.5 1.3-16 8.1-23.6 25.5-1.3-3-3.4-11.1-2.1-23.3 0 0-1.4-2.5-3.2-6.9C108 90.5 97 62.4 99.1 56.1c-.9.4-1.5 1.3-2.1 2.9-1.3 3.3-2.1 9.3-.4 17.1 0 0-6.2-9.6-7.1-18.8-1.5 2.4-2.3 3.3-2.4 7.6-.2 3.9.8 10.7 3 15.4-.7-1-6.2-8.8-7.2-10.9-1.1-2.2-1.3-3.1-1.3-3.1-.8.9-1.3 2.2-1.4 3.8-.2 2.3 1.7 13.8 6.3 20.5-.4-.5-4.2-4.3-6.5-7.5-2.5-3.3-5.7-7.8-5.7-7.8-.3 1.4-.3.9-.5 3.8-.3 4 3.8 14.3 8.5 18.6-.9-.4-9.9-7.7-10.7-8.4-.1 1.8.5 7 4.7 11.7 4.3 4.6 6 6.7 6 6.7-.7-.4-4.9-2.9-5.3-3.2.3 1.3 1.1 3.4 1.5 4.2.4.8 1.8 3.7 5.5 7-.7-.2-4.2-1-5.4-3.9.1 1.9.4 4.8 3.6 8.4.9 2.4 8 22.6 15 26.6-.2.3-.4.9-.4.9-8.1 2.9-21.9 4-30.2 3 .6.8 1.4 2 2.4 3.5l10.9-.9-10.1 2c.6.8 1.3 1.7 2.1 2.6l9.9-3-8.9 4.1c.7.8 1.5 1.6 2.3 2.4l8.8-4.6-7.8 5.5c.7.6 1.4 1.3 2.2 1.9L87 159l-7.7 5.9c.9.6 1.9 1.3 3 1.9l8.3-5.7-6.4 6.7c.9.5 1.8.8 2.8 1.2.5.2 7.6-6.7 7.6-6.7s-4.9 7.6-4.4 7.7c.8.2 1.7.4 2.5.6.6 0 5.7-7.7 5.7-7.7s-2.8 7.4-2.8 8.1c.9.1 1.7.3 2.7.4l3.9-7.7 2.5-.1s1 5.9 1.6 7c.6 1.1 4.6 1.6 6.3 1.5l4.4 2.7c1.1.2 2.4.5 2.4 1.3.1.7-1.2 1.7-1.3 2.9-.1 1.3-.9 4.2-1.1 5.4-.2 1.2 2.3 2.2 3.5 2.6l-.8-3.2 2.2-2.8 7.8 4.9.1 2.4s.5.1 1.9-1.8c2-2.8-5.1-6.5-5.1-6.5l4.7.5 1 2.5s.2.4.8-2.1c.5-2.4-7.7-4.8-9.2-5.5-1.6-.7-2.2-2.1-2.2-2.1s.6-.6.8-1c.3-.6.1-.9-.6-1.8-.6-.9-.4-.7-2.8-1.9-2.3-1.1-4.1-.4-1.7-4.7-.2.4-.9 2.5-.6 3 .3.6 2 1.1 3.4 1.7 1.4.6 1.8.9 2.5 2.2 1.2 2.4 5.3 3.3 6.1 4.2 1.9 2.2 6.2 5.2 9 6.3 2.2.9 3.5 5.9 3.5 5.9s-.5 1.6-1.3 2.9c-.8 1.3-.6 2.1-.4 2.7.2.6 1.7 1.4 2.6 1.8l-.4-2.8 2.5-2.7 9.6 2.9c.2.9.5 2.8.5 2.8s1.1-.3 2.3-2.7c1.2-2.3-8.5-5.5-10-6.1 7.1-1.8 9.2-.5 9.2-.5s1.1 1.3 1.3 2.2c0 0 .6-.3 1-3.5s-12-1-14-1.1c-.6-.5-2.6-3.2-2.5-5.6.1-2.4-1.1-2.4-2.7-4.3-1.6-1.8-5.7-6.4-6-8.7-.3-2.3-.7-3.3 2.2-4.9 3-1.5 6.6-3.2 6.6-3.2l-.2.7s13.3-5.9 16.3-4.7c2 .8 1.7 1.4 1.8 1.9 3.6-5.7-4.1-6.7-5.5-7.2.2-1.4-.3-3-4-3.6-3.7-.6-9.5-1.2-9.5-1.2l.2.4s-9.9-.5-11.4-.6c-1.6-.2-4.9-.6-4.9-.6s12.4-4.9 15.3-7.2c2.8-2.4 9.2-8.9 12.7-13.6 3.5-4.6 7.4-9.2 17.1-15 9.7-5.8 17.3-8.7 21.6-9.1-.5-.7-1.3-1.8-6.4-.8-4.8 1-15 3.9-16 4.1.6-.4 5.9-3.3 8.6-4.4 2.9-1.2 9-3.3 9.6-3.4-.5-.8-3.4-1.7-7.5-.7-6.9 1.8-15.3 5.9-16.3 6.4zm-10.8 47.8c.3.2.3.5 0 1.1l-4.1-1.2c.2 0 3.8-.1 4.1.1zM125 1C56.5 1 1 56.5 1 125s55.5 124 124 124 124-55.5 124-124S193.5 1 125 1zm0 241.1C60.3 242.1 7.9 189.7 7.9 125 7.9 60.3 60.3 7.9 125 7.9c64.7 0 117.1 52.4 117.1 117.1 0 64.7-52.4 117.1-117.1 117.1z"/><path fill="#00539E" d="M184.8 42.1c-.5-1.6-1.9-2.6-3-3.4l-2.8-1.9-6.1 9.1 2.7 1.8c2.1 1.4 3.5 1.8 4.6 1.7 1.3-.2 2.8-1.2 3.8-2.7 1-1.6 1.2-3.3.8-4.6zM29.3 137.2c-.2 0-.3-.1-.5-.1l-3.9-1.2.5 3.8 3.4-2.1c.1-.1.3-.2.4-.2.1-.1.3-.1.4-.2h-.3zm37.8-86.8c-.5-.6-1.1-.7-1.7-.5-.4.2-.8.5-1.5 1.1l-5.4 4.8 2.3 2.7 5.6-4.9c.6-.5.9-.9 1.1-1.2.4-.8 0-1.5-.4-2zm79.6-26.1c-.5-.6-1.2-.8-1.8-.9l-6-1-.6 3.7 5.4.9c1.1.2 2.9.5 3.2-1.3.1-.5.1-1-.2-1.4zm-59 6c-.2-.4-.5-.8-1-1-.7-.2-1.4 0-2 .2L79.2 32l1.5 3.4 5-2.3c1.1-.3 2.8-1.1 2-2.8zM38.5 165.5l-1.7-3.9-2.5 1.1 1.8 4c.2.5.8 1.5 1.9.9.2-.1.5-.3.7-.6.1-.1.2-.5-.2-1.5zM61.4 45.1c-.4-.4-.9-.6-1.6-.4-.3.1-.7.4-1.2.8l-5.2 4.6 2.1 2.4 5.1-4.6c.9-.7.9-.9 1.1-1.1.3-.5.2-1.1-.3-1.7zM205.5 179c-.2-.1-.5-.3-.8-.3-.3 0-.7.1-1.3.9l-2.5 3.5 2.2 1.6 2.6-3.6c.3-.5.8-1.4-.2-2.1zm-83 42.9c-.1-.2-.2-.3-.2-.4 0-.2-.1-.3-.1-.5 0 .2-.1.3-.1.4-.1.1-.1.3-.2.4l-1.7 3.6 3.9.1-1.6-3.6zm-57.3-21.2c-.2.1-.3.2-.4.2l-3.6 1.9 3 2.4.9-3.9c0-.2.1-.3.1-.5 0-.1.1-.2.2-.4 0 .2-.1.2-.2.3zm-19.6-23.1c-1.1-1.5-3.2-2.4-5.4-1-1.1.7-1.4 1.6-1.5 1.9-.2.4-.7 1.7.5 3.5 1.4 2.1 3.6 2.3 5.4 1.1 2.1-1.3 2.3-3.7 1-5.5zm-7.1-12.1-1.7-3.9-2.5 1.1 1.8 4c.2.5.8 1.5 1.9.9.2-.1.5-.3.7-.6.1-.1.2-.5-.2-1.5zm-9.2-28.3c-.2 0-.3-.1-.5-.1l-3.9-1.2.5 3.8 3.4-2.1c.1-.1.3-.2.4-.2.1-.1.3-.1.4-.2h-.3zm37.8-86.8c-.5-.6-1.1-.7-1.7-.5-.4.2-.8.5-1.5 1.1l-5.4 4.8 2.3 2.7 5.6-4.9c.6-.5.9-.9 1.1-1.2.4-.8 0-1.5-.4-2zm-5.4-3.6c.3-.5.2-1.1-.3-1.7-.4-.4-.9-.6-1.6-.4-.3.1-.7.4-1.2.8l-5.2 4.6 2.1 2.4 5.1-4.6c.9-.7 1-.9 1.1-1.1zm26-16.5c-.2-.4-.5-.8-1-1-.7-.2-1.4 0-2 .2L79.2 32l1.5 3.4 5-2.3c1.1-.3 2.8-1.1 2-2.8zm59-6c-.5-.6-1.2-.8-1.8-.9l-6-1-.6 3.7 5.4.9c1.1.2 2.9.5 3.2-1.3.1-.5.1-1-.2-1.4zm38.1 17.8c-.5-1.6-1.9-2.6-3-3.4l-2.8-1.9-6.1 9.1 2.7 1.8c2.1 1.4 3.5 1.8 4.6 1.7 1.3-.2 2.8-1.2 3.8-2.7 1-1.6 1.2-3.3.8-4.6zm19.5 16.8-2.2-2.7-8.5 7 2 2.5c1.6 1.9 2.8 2.7 4 2.9 1.3.2 3-.4 4.4-1.5 1.5-1.2 2.1-2.8 2.1-4.1.1-1.7-.9-3.1-1.8-4.1zm-65.2-.3c-1.7 0-2.6.7-2.9 1.1 0-.6.1-1.4.8-2 .4-.3.9-.6 1.6-.6 1.2 0 1.7.6 1.9 1l2.3-.2c-.2-.4-.2-.7-.6-1.1-.8-1-2.2-1.3-3.5-1.3-2 0-4.8 1.1-4.8 4.8 0 2.3 1.1 4.4 4.6 4.4 1.7 0 2.8-.6 3.3-1.1.5-.5.9-1.2.9-2.1.1-1.5-1.1-2.9-3.6-2.9zm-.7 4.4c-.6 0-1.4-.1-1.9-.7-.2-.3-.2-.6-.2-.8 0-.8.8-1.4 1.9-1.4.9 0 2.3.2 2.3 1.4.1 1.2-1 1.5-2.1 1.5zm-10.2-1.3c2-.7 3-1 3.6-1.8.3-.5.6-1 .6-1.6 0-2.7-3.3-2.8-4.2-2.8-1 0-2.1.2-2.8.6-1 .6-1.2 1.7-1.3 2.5h2.2c0-.2.1-.5.3-.8.3-.5.8-.6 1.5-.6.6 0 1.8.1 1.8 1.1 0 .8-.6 1-1.2 1.3-.6.2-1.1.4-1.7.6-.7.2-1.8.7-2.5 1.7s-.7 2.1-.7 2.6h8.4v-1.7h-5.8c.3-.5.6-.7 1.8-1.1zM118 55.4c-2.8 0-4.3 1.4-4.3 3.2 0 1.3.8 2.8 3.5 2.8.8 0 1.5-.1 2.2-.4.5-.2.7-.4.9-.7-.1.7-.2 1.4-.7 1.9-.6.6-1.5.7-1.8.7-1.4 0-1.8-.7-1.9-1l-2.2.2c.1.4.2.9.8 1.4 1.1 1 2.5 1.1 3.1 1.1 1 0 3.5-.1 4.5-2.4.3-.8.4-1.6.4-2.5 0-1.5-.5-2.7-1.2-3.3-1.2-1-2.8-1-3.3-1zm-.2 4.5c-.7 0-1.9-.2-1.9-1.4 0-1 .9-1.4 2-1.5.8 0 2.3.1 2.3 1.4-.1 1.2-1.3 1.5-2.4 1.5zM106.2 57v1.6c1.2-.2 1.7-.3 2.5-.7v6.6h2.2v-8.8h-2c-.9 1.1-2.1 1.2-2.7 1.3zM125 9.8C61.5 9.8 9.8 61.5 9.8 125S61.5 240.2 125 240.2 240.2 188.5 240.2 125 188.5 9.8 125 9.8zm108.3 105.9-4.5.9-2.7-14-3.3.6 2.5 12.9-4.6.9-2.5-13-3.2.6 2.7 14.3-4.6.9-4.1-21.5 20.1-3.8 4.2 21.2zm-10.2-36.4L209 85.8l4.3 9.5-4.5 2.1-7.4-16.2 18.6-8.5 3.1 6.6zM206.2 125c0 44.8-36.4 81.3-81.2 81.3-44.8 0-81.3-36.5-81.3-81.3S80.2 43.7 125 43.7s81.2 36.5 81.2 81.3zm2.5-68.4c1.3 1.7 5.2 6.2 3.2 11.5-.3.8-1.1 2.7-3.4 4.7-1.3 1-2.7 1.8-4.2 2.2-1.3.4-3.2.7-5.6-.4-2.3-1-3.7-2.4-5-4l-8.2-10.1 15.9-13 7.3 9.1zm-23.4-21.3c1.8 1.2 6.8 4.4 6.4 10.1-.1.9-.2 2.9-2 5.4-.9 1.3-2 2.5-3.4 3.4-1.1.7-2.8 1.5-5.4 1.3-2.5-.3-4.2-1.3-5.9-2.4l-10.8-7.3 11.4-17 9.7 6.5zm-16.9-9.4-7.6 19-6.8-2.7 7.6-19 6.8 2.7zM131 25l1.4-8.5 14.8 2.5c1.8.3 3.9.7 5.4 2.3 1.3 1.3 1.8 3.5 1.5 5.5-.2 1.4-.9 2.8-1.9 3.6-1.4 1.2-2.8 1.2-3.7 1.3l3.7 8.9-8-1.4-2.9-8.1-3.9-.7-1.3 7.4-7.2-1.3 1.2-7.3-10.2-1.6 3.5-4L131 25zm-27-6.2 4.3 5.6c.7 1 .8 1.1 1.4 2.1.3-1.2.4-1.5.8-2.9l2.3-6.2 8.4-1.3-7 15.6.9 6-7.2 1.1-.9-6-11.5-12.7 8.5-1.3zm-19.6 5.9c1.6-.7 3.6-1.6 5.7-1.2 1.8.4 3.5 1.9 4.3 3.8.6 1.3.8 2.8.4 4.1-.5 1.7-1.7 2.6-2.4 3.2l8.1 5.4-7.4 3.3-6.9-5.1-3.6 1.6 3.1 6.8-6.7 3-8.4-18.7 13.8-6.2zM57.7 40.2c1.1-.9 2.6-2.2 4.3-2.4 1.8-.2 3.2.9 3.8 1.7 1.7 1.9 1.6 3.9.1 6.1 1-.7 2.3-1.5 3.9-1.3 1.3.1 2.2.7 3.1 1.8 1.9 2.1 1.7 4.5.7 6.4-.9 1.6-2.3 3-3.5 4.1L58.3 66.9 44.8 51.5l12.9-11.3zM28.1 76.6l14.2 2.1-9.1-11.1 4.7-8.5 17.8 10-3.6 6.3L40.8 69l9.1 10.7-2.8 4.9-13.7-2.2 11.4 6.4-3.5 6.2-17.9-10 4.7-8.4zm-7.3 17.1 4.6.9-2.7 14 3.3.6 2.4-13 4.6.9-2.4 13 3.2.6 2.7-14.3 4.6.9-4.1 21.5-20.2-3.8 4-21.3zm.9 48.4 1.9-1.2-.7-5.6-2.2-.7-.4-3 11.6 3.9.4 3-10.3 6.7-.3-3.1zm1.1 5.8 10.6-2.9 2.7 9.9-1.9.5-2-7.2-2.4.6 1.9 7-1.9.5-1.9-7-2.6.7 2.1 7.5-1.9.5-2.7-10.1zm12.3 21-2.8 4.9-1.3-3 2.8-4.5-1.3-2.9-4 1.8-1.1-2.5 10-4.5 3.1 6.9c.5 1.1.9 2.2.3 3.5-.4.8-1 1.3-1.6 1.5-.8.3-1.8.5-2.7 0-.7-.2-1.1-.8-1.4-1.2zm2.5 14.2c-2.4-3.7-1.7-7 1.1-8.9 3.2-2.1 6.3-.9 8.4 2 1.3 1.7 2.2 4.1 1.5 6.2-.2.7-.8 2-2.3 3-2.9 2-6.2 1.4-8.7-2.3zm13.1 15.6.8-8.2c.1-.9.1-1.3.3-2.2-.6.6-.7.8-1.3 1.3l-4.4 4.2-1.8-1.9 8.1-7.5 1.9 2-.8 8.1c-.1 1-.2 1.2-.3 2.3.7-.8.9-1 1.6-1.7l4.1-3.8 1.8 1.9-8.1 7.5-1.9-2zm14.9 12.7-2.4-1.9.6-2.2-4.4-3.5-2 1-2.4-1.9 11-5.4 2.3 1.8-2.7 12.1zm15.2 3.5c-.6 1-1.2 2-2.5 2.4-1.6.5-3.7-.2-5.1-1-.7-.4-1.3-.8-1.9-1.4-.4-.4-.9-.9-1.3-1.6-.9-1.9-.2-3.2.4-4.3l3.2-5.5 2.4 1.3-3.2 5.6c-.5.9-.7 1.7-.1 2.6.6.8 1.3 1.2 2 1.6 1 .4 1.7.5 2.3.3.4-.1.8-.3 1.3-1.3l3.2-5.6 2.4 1.3-3.1 5.6zm7.6 8.1-2.6-1 3.3-8.4-3.8-1.5.7-1.9 10.2 3.9-.7 1.9-3.8-1.5-3.3 8.5zm8.9 2.9-2.7-.8 3.1-10.6 2.7.8-3.1 10.6zm9.6.4c2.4.4 3.3-.8 3.8-1.4l2.9.5c-.3.6-.7 1.4-1.8 2.1-1 .6-2.6 1.3-5.4.8-3.9-.7-6.2-3.2-5.4-7 .7-4.1 4.3-5.2 7.7-4.5 1.3.2 4.8 1.2 5.6 4.5l-3-.2c-.2-.5-.8-2-2.9-2.4-2.4-.5-4.2 1-4.5 3.1-.7 2.4.9 4.2 3 4.5zm18.8 3.4-.9-2.1-5.6-.2-1 2.1-3-.1 5.6-10.9 3 .1 5 11.2-3.1-.1zm6.4-.3-1.2-11 2.8-.3.9 9 6.1-.6.2 2-8.8.9zm28.6-7.3c-.7 1.5-2.6 2.6-4.2 3.1-.8.2-1.5.4-2.3.4-.6.1-1.3 0-2.1-.2-2-.6-2.5-2-2.9-3.2l-1.9-6.1 2.6-.8 2 6.2c.3.9.7 1.7 1.9 1.8 1 .1 1.7-.1 2.5-.4 1-.4 1.5-.9 1.8-1.5.2-.4.2-.8-.1-1.8l-2-6.2 2.6-.8 1.9 6.1c.4 1.1.8 2.1.2 3.4zm13.7-4.9-7.7-3.1c-.8-.4-1.2-.5-2.1-.9.4.7.5.9.9 1.6l2.7 5.4-2.4 1.2-4.9-9.9 2.4-1.3 7.6 3.1c.9.4 1.1.5 2.1.9-.6-.9-.7-1.1-1.1-2l-2.5-5.1 2.4-1.2 4.9 9.9-2.3 1.4zm6.6-3.8-6-9.2 2.3-1.5 6 9.2-2.3 1.5zm8.3-5.9-10.8-5.5 2.4-1.9 6.8 3.8c.4.2.6.3.9.6-.2-.5-.2-.6-.4-1L186 196l2.3-1.8 3 11.7-2 1.6zm7.6-6.3-7.9-7.7 7.1-7.4 1.4 1.4-5.2 5.4 1.8 1.7 5.1-5.2 1.4 1.4-5.1 5.2 1.9 1.8 5.4-5.6 1.4 1.4-7.3 7.6zm14.9-17.7-5.3-.2-1.8 2.5 3.6 2.6-1.6 2.2-8.9-6.5 4.5-6.2c.7-1 1.5-1.9 2.9-2 .9-.1 1.6.3 2.1.6.7.5 1.3 1.3 1.3 2.3 0 .7-.3 1.5-.5 1.9h5.7l-2 2.8zm6.6-10.6c-.8 1.6-2.4 4-5.5 3.9l.6-2.5c1.5.1 2.5-1.2 3.2-2.5.3-.6 1.2-2.5 0-3.2-.7-.4-1.2.2-1.6.7-.3.4-1.6 2.2-2 2.6-.6.8-2.2 2.9-4.4 1.7-.5-.2-.9-.6-1.2-1.1-.9-1.5-.3-3.5.5-5.1.8-1.4 1.5-2.4 2.6-3.2 1.1-.7 2-.8 2.4-.8l-.6 2.6c-.2 0-.6 0-1.3.4-.6.5-1.1 1.3-1.4 1.8-.6 1.1-.9 2.3 0 2.8.6.3 1.1-.2 1.7-.8.3-.4 1.7-2.2 2-2.6.8-1 2.2-2.7 4.3-1.6 3.1 1.9 1.3 5.7.7 6.9zm3.5-8.5-10.3-4 1-2.6 10.3 4-1 2.6zm3.3-9.3-8.7-2.4-1.1 3.9-1.9-.6 3-10.5 1.9.6-1.1 3.9 8.7 2.5-.8 2.6zm3.3-15.2-4.1-.6-7.5 4.3.4-3.4 4.5-2.4c.3-.2.4-.2.6-.2-.2-.1-.2-.2-.4-.3l-3.8-3.5.4-3.3 6.2 6.1 4.1.5-.4 2.8zm-23.8 38.8c-.3 0-.7.1-1.3.9l-2.5 3.5 2.2 1.6 2.6-3.6c.4-.5.9-1.4-.1-2.1-.3-.1-.6-.3-.9-.3zm-9-113c1.6 1.9 2.8 2.7 4 2.9 1.3.2 3-.4 4.4-1.5 1.5-1.2 2.1-2.8 2.1-4.1 0-1.7-1-3.1-1.9-4.1l-2.2-2.7-8.5 7 2.1 2.5zm-20.2-18c2.1 1.4 3.5 1.8 4.6 1.7 1.3-.2 2.8-1.2 3.8-2.7 1.1-1.6 1.3-3.3.9-4.6-.5-1.6-1.9-2.6-3-3.4l-2.8-1.9-6.1 9.1 2.6 1.8zM147 25.6c.1-.5 0-1-.3-1.4-.5-.6-1.2-.8-1.8-.9l-6-1-.6 3.7 5.4.9c1.1.2 2.9.6 3.3-1.3zm-7.9 33c-1.7 0-2.6.7-2.9 1.1 0-.6.1-1.4.8-2 .4-.3.9-.6 1.6-.6 1.2 0 1.7.6 1.9 1l2.3-.2c-.2-.4-.2-.7-.6-1.1-.8-1-2.2-1.3-3.5-1.3-2 0-4.8 1.1-4.8 4.8 0 2.3 1.1 4.4 4.6 4.4 1.7 0 2.8-.6 3.3-1.1.5-.5.9-1.2.9-2.1.1-1.5-1.1-2.9-3.6-2.9zm-.7 4.4c-.6 0-1.4-.1-1.9-.7-.2-.3-.2-.6-.2-.8 0-.8.8-1.4 1.9-1.4.9 0 2.3.2 2.3 1.4.1 1.2-1 1.5-2.1 1.5zm-10.2-1.3c2-.7 3-1 3.6-1.8.3-.5.6-1 .6-1.6 0-2.7-3.3-2.8-4.2-2.8-1 0-2.1.2-2.8.6-1 .6-1.2 1.7-1.3 2.5h2.2c0-.2.1-.5.3-.8.3-.5.8-.6 1.5-.6.6 0 1.8.1 1.8 1.1 0 .8-.6 1-1.2 1.3-.6.2-1.1.4-1.7.6-.7.2-1.8.7-2.5 1.7s-.7 2.1-.7 2.6h8.4v-1.7h-5.8c.3-.5.6-.7 1.8-1.1zm-5.9 159.8c0-.2-.1-.3-.1-.5 0 .2-.1.3-.1.4-.1.1-.1.3-.2.4l-1.7 3.6 3.9.1-1.5-3.6c-.2-.1-.3-.3-.3-.4zM118 55.4c-2.8 0-4.3 1.4-4.3 3.2 0 1.3.8 2.8 3.5 2.8.8 0 1.5-.1 2.2-.4.5-.2.7-.4.9-.7-.1.7-.2 1.4-.7 1.9-.6.6-1.5.7-1.8.7-1.4 0-1.8-.7-1.9-1l-2.2.2c.1.4.2.9.8 1.4 1.1 1 2.5 1.1 3.1 1.1 1 0 3.5-.1 4.5-2.4.3-.8.4-1.6.4-2.5 0-1.5-.5-2.7-1.2-3.3-1.2-1-2.8-1-3.3-1zm-.2 4.5c-.7 0-1.9-.2-1.9-1.4 0-1 .9-1.4 2-1.5.8 0 2.3.1 2.3 1.4-.1 1.2-1.3 1.5-2.4 1.5zM106.2 57v1.6c1.2-.2 1.7-.3 2.5-.7v6.6h2.2v-8.8h-2c-.9 1.1-2.1 1.2-2.7 1.3zM85.8 33.2c1-.5 2.7-1.2 2-2.9-.2-.4-.5-.8-1-1-.7-.2-1.4 0-2 .2L79.3 32l1.5 3.4 5-2.2zM60.7 58.5l5.6-4.9c.6-.5.9-.9 1.1-1.2.5-.9.1-1.6-.3-2.1-.5-.6-1.1-.7-1.7-.5-.4.2-.8.5-1.5 1.1l-5.4 4.8 2.2 2.8zm4.1 142.4-3.6 1.9 3 2.4.9-3.9c0-.2.1-.3.1-.5 0-.1.1-.2.2-.4-.1.1-.2.2-.3.2 0 .2-.2.3-.3.3zM61.7 46.8c.3-.5.2-1.1-.3-1.7-.4-.4-.9-.6-1.6-.4-.3.1-.7.4-1.2.8l-5.2 4.6 2.1 2.4 5.1-4.6c.9-.7 1-.9 1.1-1.1zM45.6 177.6c-1.1-1.5-3.2-2.4-5.4-1-1.1.7-1.4 1.6-1.5 1.9-.2.4-.7 1.7.5 3.5 1.4 2.1 3.6 2.3 5.4 1.1 2.1-1.3 2.3-3.7 1-5.5zm-7.7-9.9c.2-.1.5-.3.7-.6.2-.3.3-.6-.2-1.6l-1.7-3.9-2.5 1.1 1.8 4c.3.6.8 1.5 1.9 1zm-9.1-30.6-3.9-1.2.5 3.8 3.4-2.1c.1-.1.3-.2.4-.2.1-.1.3-.1.4-.2-.2 0-.3 0-.4-.1-.1.1-.2 0-.4 0zm16.8 40.5c-1.1-1.5-3.2-2.4-5.4-1-1.1.7-1.4 1.6-1.5 1.9-.2.4-.7 1.7.5 3.5 1.4 2.1 3.6 2.3 5.4 1.1 2.1-1.3 2.3-3.7 1-5.5zm159.9 1.4c-.2-.1-.5-.3-.8-.3-.3 0-.7.1-1.3.9l-2.5 3.5 2.2 1.6 2.6-3.6c.3-.5.8-1.4-.2-2.1zM65.2 200.7c-.2.1-.3.2-.4.2l-3.6 1.9 3 2.4.9-3.9c0-.2.1-.3.1-.5 0-.1.1-.2.2-.4 0 .2-.1.2-.2.3zm57.3 21.2c-.1-.2-.2-.3-.2-.4 0-.2-.1-.3-.1-.5 0 .2-.1.3-.1.4-.1.1-.1.3-.2.4l-1.7 3.6 3.9.1-1.6-3.6zm-1.3-165.5c-1.1-1-2.8-1-3.2-1-2.8 0-4.3 1.4-4.3 3.2 0 1.3.8 2.8 3.5 2.8.8 0 1.5-.1 2.2-.4.5-.2.7-.4.9-.7-.1.7-.2 1.4-.7 1.9-.6.6-1.5.7-1.8.7-1.4 0-1.8-.7-1.9-1l-2.2.2c.1.4.2.9.8 1.4 1.1 1 2.5 1.1 3.1 1.1 1 0 3.5-.1 4.5-2.4.3-.8.4-1.6.4-2.5-.1-1.5-.6-2.6-1.3-3.3zm-3.4 3.5c-.7 0-1.9-.2-1.9-1.4 0-1 .9-1.4 2-1.5.8 0 2.3.1 2.3 1.4-.1 1.2-1.3 1.5-2.4 1.5zm-8.9-4.2c-.9 1.1-2.1 1.3-2.7 1.3v1.6c1.2-.2 1.7-.3 2.5-.7v6.6h2.2v-8.8h-2zm30.2 2.9c-1.7 0-2.6.7-2.9 1.1 0-.6.1-1.4.8-2 .4-.3.9-.6 1.6-.6 1.2 0 1.7.6 1.9 1l2.3-.2c-.2-.4-.2-.7-.6-1.1-.8-1-2.2-1.3-3.5-1.3-2 0-4.8 1.1-4.8 4.8 0 2.3 1.1 4.4 4.6 4.4 1.7 0 2.8-.6 3.3-1.1.5-.5.9-1.2.9-2.1.1-1.5-1.1-2.9-3.6-2.9zm-.7 4.4c-.6 0-1.4-.1-1.9-.7-.2-.3-.2-.6-.2-.8 0-.8.8-1.4 1.9-1.4.9 0 2.3.2 2.3 1.4.1 1.2-1 1.5-2.1 1.5zm-10.2-1.3c2-.7 3-1 3.6-1.8.3-.5.6-1 .6-1.6 0-2.7-3.3-2.8-4.2-2.8-1 0-2.1.2-2.8.6-1 .6-1.2 1.7-1.3 2.5h2.2c0-.2.1-.5.3-.8.3-.5.8-.6 1.5-.6.6 0 1.8.1 1.8 1.1 0 .8-.6 1-1.2 1.3-.6.2-1.1.4-1.7.6-.7.2-1.8.7-2.5 1.7s-.7 2.1-.7 2.6h8.4v-1.7h-5.8c.3-.5.6-.7 1.8-1.1zm76.1-2.8-2.2-2.7-8.5 7 2 2.5c1.6 1.9 2.8 2.7 4 2.9 1.3.2 3-.4 4.4-1.5 1.5-1.2 2.1-2.8 2.1-4.1.1-1.7-.9-3.1-1.8-4.1z"/></svg>