<svg xmlns="http://www.w3.org/2000/svg" width="149.84" height="149.84"><path d="M0 91.697C.026 62.589 44.293 30.42 95.458 27.334c33.294-1.764 54.439 11.73 54.375 31.256-.248 27.704-46.681 63.483-101.748 64.07C19.35 121.926 1.045 110.542 0 91.697z" fill="#fff"/><path d="M148.658 50.534c-3.9-12.2-17-20.1-34.3-22.5-.4.4-5.1 18.1-5.1 18.1-49.7-.8-64.3 24.4-50.5 31.5 0 0 15.4-9.5 44.5-11.4l-6.3 19.7c-8.3 0-36.7 2.8-36.3 18.9.8 14.6 27.2 10.6 36.3 7.9 36-14.5 58.4-41.3 51.7-62.2z" fill="#204180"/><path d="M42.658 100.234c-.4-10.6 11.4-19.7 11.4-19.7-40.2-18.9 1.6-48.9 41.4-52.8v-.4c-10.6.4-22.5 2.8-34.3 6.3-40.6 13.4-67.4 42.9-59.9 65.4 6.3 20.1 37.8 28.4 72.9 20.9-13.8-.8-31.2-5.9-31.5-19.7z" fill="#007950"/></svg>