<svg xmlns="http://www.w3.org/2000/svg" width="487" height="487"><path d="M181.495 276.328c5.314-.189 13.005-1.691 12.721-9-.472-14.332-45.376-5.17-46.517-39.703-.76-20.137 15.95-31.018 33.512-31.627 14.144-.511 24.968 3.989 34.082 15.607l-14.62 12.032c-6.264-6.574-9.969-9.7-19.273-9.383-3.984.16-9.872 2.937-9.777 7.944.566 14.748 45.757 4.374 46.994 39.42.666 20.55-14.525 32.868-32.94 33.508-16.806.605-31.902-3.607-41.968-18.862l15.668-12.32c6.36 8.842 11.203 12.737 22.118 12.384M62.065 271.86h-37.88v-16.148h33.512v-21.159H24.186v-16.467h37.69v-21.098H12.129c-6.548 0-11.962 5.362-11.962 12v71.97c0 6.604 5.414 11.968 11.962 11.968.571 0 1.044 0 1.52-.065h48.416M216.241 197.084v21.51h17.566v74.234h27.15l-.092-74.233h18.8v-21.511" fill="#234e93"/><path d="M429.088 155.818c4.75 0 8.927 1.787 12.344 5.299 3.512 3.541 5.316 7.853 5.316 12.7 0 4.981-1.804 9.223-5.22 12.77-3.513 3.538-7.69 5.293-12.44 5.293-4.933 0-9.017-1.755-12.435-5.294-3.513-3.546-5.22-7.788-5.22-12.769 0-4.847 1.707-9.094 5.126-12.636 3.512-3.547 7.596-5.363 12.53-5.363M395.01 292.957h-5.034l-2.184-.13s-1.233-.093-2.465-.317c-1.048-.162-2.468-.54-2.468-.54s-.954-.258-1.998-.675c-.948-.413-1.802-.828-1.802-.828s-1.422-.8-2.754-1.82c-1.425-1.054-2.752-2.52-2.752-2.52l-.949-1.376-.853-1.497-.76-1.598-.572-1.499v-.254l-.382-1.437-.284-2.873v-5.744c0-2.714-.094-4.5-.094-5.17h88.862v-6.192H369.66l-.094-42.124v-.64l.188-3.255s.095-.704.383-1.82c.283-1.087.567-1.628.567-1.628s.288-.863.76-1.82c.57-.988.853-1.469.853-1.469s.379-.67 1.237-1.816c.946-1.116 1.615-1.692 1.615-1.692l1.988-1.661s.381-.288 1.33-.795c.954-.515 1.427-.674 1.427-.674s1.704-.798 3.89-1.374a27.605 27.605 0 014.272-.734h79.462s2.658.287 5.603 1.409c2.277.858 3.608 1.622 3.608 1.622s.853.387 2.28 1.345c1.421.956 1.992 1.438 1.992 1.438l1.803 1.785s1.237 1.405 1.996 2.779c.757 1.528 1.138 2.55 1.138 2.55s.568 1.692.76 3.865c.19 2.198.09 4.083.09 4.083v8.84h-88.568v6.609h88.568v42.923c-.184 1.756-.85 3.384-1.23 4.37-.568 1.821-1.234 2.938-1.234 2.938s-.666 1.533-2.563 3.478c-1.903 1.914-3.323 2.812-3.323 2.812l-.284.158s-1.713.953-3.328 1.628c-1.609.636-2.936.923-2.936.923s-.765.164-1.614.288c-.954.129-1.998.129-1.998.129H395.01" fill="#e31d25"/><path d="M345.545 271.892h-37.877v-16.149h33.512v-21.159h-33.512v-16.466h37.877v-21.1h-49.938c-6.548 0-11.963 5.364-11.963 12.001v71.97c0 6.604 5.415 11.968 11.963 11.968.57 0 1.042-.035 1.524-.095h48.414M93.207 214.927h11.01c6.075 0 13.293 1.623 13.293 10.18 0 9.476-8.167 10.147-14.908 10.147-3.229 0-6.17-.16-9.395 0m26.579 57.608h27.153l-20.035-43.152v.352c9.403-4.307 15.19-13.722 15.19-25.371 0-19.627-14.147-27.638-29.999-27.638H69.09v95.873h24.117v-37.308h10.82l15.759 37.244" fill="#234e93"/></svg>