<svg xmlns="http://www.w3.org/2000/svg" width="96.1" height="96.1"><path d="M10.4 48.25c0 6.3 1.6 8.6 8.2 8.6 2.5 0 4.5-.2 5.9-1 1.4-.8 2.2-2.2 2.2-4.6h-5.2c-.1 1.8-1.3 2-2.9 2-2.4 0-2.9-1-2.9-4v-.1h11.1v-.8c0-6.9-1.9-8.6-8.2-8.6-6.7-.1-8.2 2-8.2 8.5zm8.1-5c1.9 0 2.9.2 2.9 2.8v.1h-5.7c.1-2.2.6-2.9 2.8-2.9zm43.9-.2c-2.3 0-2.8.8-2.8 3.1h5.9v-.2c0-2.7-1.1-2.9-3.1-2.9zm-23.9 10.4c-1.4 0-2.8 0-2.9-1.9h-5.3c0 3.7 1.8 4.9 5.1 5.2 1 .1 2.1.1 3.2.1 4.5 0 8.2-.7 8.2-5.6 0-4.6-2.4-5-8.2-5.1-2.9-.1-3-.7-3-1.6 0-1.1.1-1.5 3-1.5 1.1 0 2.1.1 2.4 1.4h5v-.7c0-4-4.2-4.1-7.4-4.1-4.8 0-8.2.1-8.2 5.5 0 3.4 1.2 4.9 8.2 4.9.6 0 1.6 0 2.2.2.6.2.8.7.8 1.6 0 1.4-.6 1.6-3.1 1.6z"/><path d="M93.8 36.05c-2.1-3.5-6.2-5.9-10.9-5.9H13.3c-4.8 0-8.8 2.5-11 5.9-1.9 3.2-2.3 8.5-2.3 12s.4 8.8 2.3 12c2.1 3.5 6.2 5.9 11 5.9h69.5c4.8 0 8.8-2.5 11-5.9 1.9-3.2 2.3-8.5 2.3-12 0-3.4-.4-8.7-2.3-12zm-43.7 26.9H14.2c-2.8 0-6-1.4-7.7-3.2-2.7-2.9-3.2-7.4-3.2-11.6 0-4.3.6-8.8 3.3-11.6 1.7-1.8 4.9-3.2 7.7-3.2h35.8zm20.6-14.1H59.6v.2c0 3 .5 4 2.9 4 1.7 0 2.9-.2 3-2h5.1c0 2.4-.9 3.7-2.2 4.5-1.4.8-3.4 1-5.9 1-6.6 0-8.2-2.2-8.2-8.5 0-6.5 1.4-8.5 8.2-8.5 6.3 0 8.1 1.7 8.1 8.5v.8zm16.4-5.4h-3.9v13.1h-5.3v-13.1H74v-3.8h13.1z"/></svg>