<svg xmlns="http://www.w3.org/2000/svg" width="115.093" height="115.093"><path d="M57.543.006C25.763.006.001 25.77.001 57.55c0 31.78 25.763 57.543 57.542 57.543 31.78 0 57.543-25.763 57.543-57.543 0-31.78-25.763-57.544-57.543-57.544" fill="#231f20"/><path d="M59.723 10.38 15.939 79.905a47.3 47.3 0 0 0 5.086 7.585l66.46-66.46a47.012 47.012 0 0 0-27.762-10.652M94.21 27.796l-66.42 66.42a47.156 47.156 0 0 0 7.635 5.06l69.295-43.639a47.006 47.006 0 0 0-10.51-27.84m9.487 39.759L46.63 103.493c30.122 6.703 52.808-14.601 57.066-35.937" fill="#fff"/></svg>