<svg xmlns="http://www.w3.org/2000/svg" width="28.347" height="28.347" class="esri-header-brand-image"><path d="M14.82 1.307c-1.218-.037-1.933.12-2.652.26-.216-.056-.62.003-.643.472 0 .252.08.447.24.562.16.114 1.493 1.1 2.473 2.142-.47.052-.98.138-1.504.246-.585-1.264-2.465-.114-3.714-.064-.146.006-.286.025-.43.035-.138-1.056-.236-2.15-.21-2.92C9.996 1.123 13.126.447 15.252.414l.373-.01c.312-.003.337-.25.043-.29-2.64-.362-4.929.172-7.279 1.144C5.944 2.29 2.832 4.661.936 9.138c-.444 1.246-2.219 7.194.935 12.3 2.56 4.141 5.855 6.112 9.887 6.675 4.024.561 6.207.075 8.752-1.055 5.951-2.642 10.496-12.559 5.95-19.747-1.794-3.319-6.495-6.229-11.64-6.004zm-2.26 4.647a17.754 17.754 0 012.362-.368c.665.788 1.25 1.638 1.748 2.54-.805.39-1.878.688-2.315 1.312-.18.26-.226.613-.232.995a23.59 23.59 0 00-3.877 1.286c-.453-1.332-.85-2.66-1.124-3.842 1.296-1.237 2.813-1.438 3.438-1.923zm6.61 15.88c-.354.038-.706.083-1.016.13a14.67 14.67 0 00-2.685.723c-.53-.843-1.95-2.89-2.667-4.437 1.442-.709 3.457-1.303 5.775-1.444.19.33.4.66.69.956.757.774-.44 1.883-.096 4.072zm-8.603-9.14c1.12-.53 2.3-.968 3.56-1.286-.008.333-.045.65-.182.903-.196.366-.106 1.428.134 1.775.755 1.1 2.008.488 2.951.883.433.181.721.482.964.84-1.974.124-3.91.584-5.706 1.41-.923-1.96-1.72-4.524-1.72-4.524zm.832 4.938c-.07.033-.145.074-.217.11a40.803 40.803 0 00-3.256-.78c-.995-.204-1.03-.15-2.15.175-.16.046-.314.088-.463.133a36.17 36.17 0 01-.445-1.202c1.436-1.106 2.884-2.034 4.821-2.985.5 1.491 1.215 3.483 1.71 4.55zm.768 4.528c.293-.765.521-1.33.605-1.89.57.958 1.248 2 1.774 2.815-.819.397-1.772 1.01-2.672 1.685.062-1.037.083-2.064.293-2.61zm5.334-14.636c-.01.014-.028.026-.04.04-.42-.728-.879-1.433-1.376-2.11 1.007-.062 2.246-.009 3.374.107-1.014.363-1.46 1.254-1.958 1.963zM8.473 8.618c.02-.026.04-.047.057-.072.234 1.182.513 2.16.886 3.518-1.402.618-3.88 2.148-4.976 2.972-.198-.502-.404-1.214-.589-1.946.25-.737.758-1.254 1.476-1.325 1.228-.123 2.28-1.95 3.146-3.147zm-5.41-1.784c1.313-1.838 3.096-3.627 4.723-4.52-.016.4.086 1.567.218 2.693-.57.057-1.134.128-1.692.211a12.084 12.084 0 00-3.115 4.088c-.117-1.054-.178-1.933-.133-2.472zm-.857 1.438s.062 1.06.113 1.833c0 0-.78.886-1.18 1.59.16-1.443.498-2.187 1.067-3.423zM9.87 26.628c-4.046-1.267-7.044-4.677-8.114-8.253a17.475 17.475 0 01-.65-6.473c.055.01.185.072.38.017.134-.093.615-.43.956-.728l.018.131c-.23.87-.37 1.775-.4 2.71.37.39.804 1.038 1.286 1.707-.31.23-.905.641-1.045.741-.41.292-.406.753-.114 1.015.161.144.492.084.613-.01.358-.285.656-.513 1.066-.77.15.393.292.748.43 1.086-.175.188-.3.436-.342.798-.135 1.172.98 2.092 1.918 2.36.035.01.06.014.094.023.05.076.095.147.148.224-.487.378-.82.765-1.049 1.063-.132.172-.28.43-.16.481.123.05.535 0 .72-.034.465-.09.825-.606 1.147-.796.387.534 1.017 1.22 1.672 1.88.03.12.055.246.088.351.125.403.293.804.495 1.196.471.22.962.402 1.464.561-.22.228-.428.469-.622.72zm.99.313c.154-.203.311-.454.504-.626.468.31.97.665 1.368.894-.615-.07-1.337-.085-1.873-.268z"/></svg>