<svg xmlns="http://www.w3.org/2000/svg" width="56.15" height="56.15"><g fill="#6aac0e"><path d="M34.248 32.975c0 .1 0 .1-.1.2 0 .1-.1.1-.2.1h-11.8v-2.1c0-2.9 3.5-4.3 6.2-4.3 2.6 0 5.9 1.4 5.9 4.3zm-5.9-12.6c-6.1.1-12.8 3.6-12.8 10.7v10.8c0 7.2 6.7 10.6 12.8 10.7 4.4 0 9.3-1.8 11.7-5.7.1-.1 0-.3-.1-.4-2.1-1.2-3.3-1.9-5.4-3-.1 0-.1 0-.2.1-1.1 1.9-4 2.9-6 2.9-2.7 0-6.2-1.7-6.2-4.6v-3.2h16.9c.9 0 1.6-.7 1.6-1.6v-5.9c0-7.2-6.3-10.7-12.3-10.8M16.772 21.775c.4-.4.7-.7.3-.7-.7 0-5.2.7-6.1-2.7-.9-3.4 4-13.5 4.2-13.9.1-.4-.2-.9-.8-.9-.5 0-.9.6-1 .6-5 6.3-12.1 14.1-13 17.5-2.3 8.5 6.6 12 12.2 12.6.1 0 .1-.1.1-.1v-3c.1-4.1 1.6-7.2 4.1-9.4M55.772 21.675c-.9-3.4-7.9-11.2-13-17.5-.1-.1-.4-.6-1-.6-.5 0-.9.5-.7.9.2.4 5.1 10.6 4.2 13.9-.9 3.4-5.4 2.7-6.1 2.7-.4 0-.1.3.3.7 2.5 2.2 4.1 5.3 4.1 9.3v3c0 .1 0 .1.1.1 5.7-.5 14.4-4 12.1-12.5"/></g></svg>