<svg xmlns="http://www.w3.org/2000/svg" width="1280" height="1280" version="1.0" viewBox="0 0 960 960"><path d="M664.8 148.5c-.1.1-8.6.6-18.8.9-10.2.4-20.1.8-22 1-1.9.3-6.6.7-10.5 1-3.8.4-7.9.8-9 1-1.1.2-4.2.7-7 1-9.4 1.3-12 1.7-17 2.6-2.7.5-6.7 1.2-8.7 1.4-2.1.3-5.9 1.1-8.5 1.7-2.7.6-6.1 1.3-7.8 1.6-4.2.7-27.5 6.7-36 9.2-3.8 1.2-7.9 2.3-8.9 2.6-9.9 2.3-46.2 16-65.6 24.7-7.2 3.3-27 13.2-33.5 16.8-3.3 1.8-7.6 4.2-9.5 5.2-6 3.2-33.3 20.5-37 23.5-.8.6-6.1 4.5-11.7 8.7-5.5 4.1-11.2 8.4-12.5 9.5-1.2 1.1-3.4 2.9-4.8 4.1-9.5 7.9-13.5 11.7-22.4 20.6-19 18.9-20 20.2-18.7 23l1.1 2.6 2.9-2.4c1.6-1.3 5.2-3.9 8-5.8 2.7-1.9 5-3.8 5.1-4.3 0-.4.6-.7 1.4-.7.8 0 1.6-.4 1.8-.9.1-.5 6.2-4.7 13.3-9.4 7.2-4.8 13.5-9.1 14.2-9.7.7-.5 1.5-1 1.7-1 .3 0 3-1.6 6-3.5s6-3.5 6.6-3.5c.5 0 1-.4 1-.8s1.5-1.5 3.3-2.3c7.4-3.5 22.2-11.5 22.5-12.2.2-.4.8-.7 1.2-.7.5 0 5.5-2.2 11-4.9 5.5-2.8 10.3-5 10.5-5.1.3 0 2.8-1.1 5.7-2.4 2.9-1.3 9.6-4 14.8-6.1 5.2-2.1 11-4.4 12.8-5.2 1.8-.8 4-1.6 5-1.8.9-.2 7.1-2.2 13.7-4.5 6.6-2.2 12.7-4.2 13.5-4.4.8-.2 2.2-.6 3-.9 1.4-.5 9.1-2.7 11.5-3.3.6-.1 3-.7 5.5-1.4s5.4-1.4 6.5-1.7c1.1-.2 2.5-.5 3-.7 1-.3 11.9-2.6 14.5-3.1.8-.2 1.5-.4 1.5-.5 0-.1.9-.3 2-.4 3.1-.5 9.6-1.6 11.9-2.1 3.2-.7 7.7-1.5 12.2-2.1 2.3-.2 5-.6 6-.8 7.7-1.4 16.6-2.5 34.6-4.1 14.8-1.3 20.5-1.5 40.3-1.5 20.2 0 25.9.2 39.5 1.5 12.7 1.2 13.4 1.3 16.5 1.8 1.7.3 5 .8 7.5 1.1 2.5.3 5.5.8 6.6 1 1.2.2 3.7.7 5.5 1 12.6 2.1 36.1 8.4 47.9 12.8 38.8 14.4 65.3 30.8 89.4 55.2 14.2 14.6 14.6 15 14.6 16.4 0 .7.4 1.2.9 1.2 1.1 0 10 13 14.8 22 8.8 16 16.3 38.6 19.7 59.1.3 1.9.7 4.3 1 5.4.2 1.1.7 5.4 1.1 9.5.3 4.1.9 9.3 1.1 11.5.7 5.7.6 32.7 0 41-.8 9.2-1.6 16.8-2 19.1-.2 1.1-.7 4.6-1.1 7.9-.5 3.3-.9 6.7-1.1 7.5-.2.8-.8 3.7-1.3 6.5-.8 4.5-2.4 11-3.6 15.8-.3.9-.7 2.7-1 3.8-1 4.5-3.8 13.8-7.5 24.5-10.5 30.5-24.9 57.4-45 83.8-2.3 3-2.7 4.2-1.9 5.7.5 1.1 1.4 1.9 2 1.9 1.8 0 37.8-36.7 50.6-51.6 2.3-2.7 5.4-6.3 6.8-7.9 25.2-29.1 49.3-68 60.4-97.2 3.1-8.1 7.8-23.6 8.7-28.3.3-1.4.9-4.1 1.4-6 .5-1.9 1.1-5.5 1.4-8 .4-2.5 1-7.2 1.5-10.5.9-6.3.7-36.8-.3-44.4-1.6-12.2-5-27.4-8.6-38.1-1.2-3.6-2.3-7-2.4-7.5-.5-2.7-7.5-19.1-12-28-6.3-12.6-13.2-23.6-21.5-34.5-6.9-9-27.9-30.6-34.5-35.6-2.2-1.6-4.7-3.6-5.6-4.4-.8-.8-3.6-2.8-6-4.5-2.5-1.6-4.7-3.2-5-3.5-1.5-1.5-7.1-5-8-5-.5 0-1-.5-1-1 0-.6-.4-1-.9-1-.6 0-2.9-1.3-5.3-2.8-2.4-1.5-8.3-4.8-13.3-7.2-4.9-2.5-9.1-4.8-9.3-5.3-.2-.4-1.1-.7-2.1-.7-.9 0-2.1-.4-2.6-.8-.6-.5-3-1.7-5.5-2.6-2.5-1-5.8-2.4-7.5-3.1-8.5-3.8-34.9-12.2-40.8-13.1-1.6-.2-3.3-.6-3.8-1-.5-.3-2.2-.8-3.7-1-1.5-.3-4.3-.9-6.2-1.4-1.9-.5-5.1-1.1-7-1.4-1.9-.3-4.8-.8-6.5-1.2-3.7-.7-5.7-1-12-1.8-2.7-.4-6.1-.9-7.5-1.2-1.4-.3-5.4-.7-9-1-3.6-.3-7.6-.7-9-1-1.4-.2-9.7-.7-18.5-1-8.8-.3-16.5-.7-17.2-.9-.6-.2-1.3-.2-1.5 0z"/><path d="M303.5 240.6c-28.9 12.4-66.1 31-86 43.1-1.1.7-2.7 1.5-3.5 1.9-.8.4-1.7 1-2 1.3-.3.3-2.1 1.5-4 2.5-12.5 6.8-53.4 35.4-68.5 48-2.7 2.2-5.8 4.8-6.8 5.6-1 .8-2.9 2.4-4.1 3.5-1.3 1.1-5.6 4.9-9.7 8.5-10.5 9.3-31.2 30-39.9 40-4 4.7-7.7 8.6-8.2 8.8-.4.2-.8.8-.8 1.3 0 .6-.9 2-2.1 3.2C60 416.8 34 454.7 34 457.8c0 .6-.4 1.2-.8 1.4-2 .8-20.7 41.7-21.6 47.3-.1.5-.5 1.5-.9 2.1-.3.6-1.4 4-2.2 7.5-.9 3.5-2.1 8.2-2.6 10.4-.6 2.2-1.2 4.7-1.4 5.5-.2.8-.6 2.6-.9 4-.3 1.4-.8 4.1-1.1 6-.2 1.9-.8 4.6-1.2 6-1.3 5-1.2 51.2.2 57.8.7 3.5 1.6 8.1 1.9 10.3.7 4.7 3 14.1 5.8 22.9 2.3 7.3 9.8 26.2 10.7 27 .3.3 2.1 3.6 4 7.3 11.3 22.8 37.1 53 57 66.7 2 1.4 4.1 3 4.6 3.6 1.3 1.5 17.6 12.3 24 16 2.8 1.5 5.2 3.2 5.3 3.6.2.4 1.2.8 2.2.8 1 0 2 .3 2.2.7.5 1.2 17.9 9.6 30.4 14.7 8.7 3.6 34.9 13 34.9 12.6 0-.1.7.1 1.5.4 5 1.7 12 3.4 12 2.9 0-.3.7 0 1.5.7s1.5 1 1.5.7c0-.3 1.5-.1 3.3.4 1.7.6 4.1 1.2 5.2 1.4 1.1.3 3 .7 4.3 1 8.6 1.9 17.6 3.7 21.2 4.1 1.4.1 2.6.3 2.8.4.3.4 1.3.5 7.2 1.4 3 .4 6.4 1 7.5 1.1 3 .6 18.5 2.3 26 2.9 18.5 1.6 29.6 2 53 2 14.9 0 32.2-.4 38.5-.8 6.3-.4 14.4-.9 17.9-1.1 3.5-.2 8-.7 10-1 2-.3 5.9-.8 8.6-1.1 6.3-.5 11.9-1.2 17-1.9 5.3-.9 8-1.2 14-2 2.8-.3 5.7-.8 6.5-1 .8-.2 3.3-.6 5.5-.9 2.2-.4 6.3-1 9-1.6 2.8-.5 6.4-1.1 8-1.4 1.7-.2 3.7-.7 4.5-1 .8-.3 3.3-.8 5.5-1.1 2.2-.3 5.8-1 8-1.6 2.2-.6 4.9-1.2 6-1.4 1.1-.1 3.4-.5 5-.9 1.7-.3 4-.9 5.3-1.1 1.2-.3 3.1-.7 4.2-1 1.1-.3 3-.7 4.3-1 1.2-.2 3.4-.7 4.9-1.1 1.5-.3 2.9-.4 3-.3.2.1 1.2-.3 2.4-.9 1.1-.6 3.2-1.3 4.5-1.6 4.6-1 6.5-1.4 15.9-4.1 15.4-4.3 47.1-15.2 62.9-21.6 8-3.3 15.1-6.1 15.6-6.3 8.2-2.6 50.2-23.4 68.6-34 7.9-4.6 15.9-9.1 17.8-10.2 1.9-1 4-2.2 4.5-2.6.6-.4 8.8-5.9 18.1-12.1 15.9-10.6 32.1-22 35.5-24.9 1.7-1.6 10.7-8.6 14.4-11.3 1.5-1.1 4-3.1 5.5-4.5s4.7-4.1 7.1-6c2.4-1.9 5.4-4.4 6.6-5.5 1.2-1.1 5.2-4.7 9-8 10-8.9 11.5-10.7 10.2-12.2-.6-.7-1.5-1.3-2-1.3-.8 0-9.3 6.2-16.8 12.2-3.7 2.9-45.6 30.8-46.4 30.8-.4 0-2.3 1.1-4.4 2.4-5.1 3.3-11.9 7.2-16.9 9.7-2.4 1.2-4.3 2.5-4.3 3s-.6.9-1.4.9c-.7 0-4.4 1.7-8.2 3.8-10.5 5.7-44.6 22.2-46 22.2-.2 0-2.7 1.1-5.6 2.4-2.9 1.3-8.4 3.6-12.3 5.1-3.8 1.5-8.3 3.3-10 4-1.6.8-4.1 1.7-5.5 2-1.4.4-3.8 1.3-5.5 2-4.3 1.9-41.8 14.3-45.5 15-.8.2-4.2 1.1-7.5 2.1-3.3.9-6.7 1.8-7.5 1.9-.8.1-3.5.8-6 1.4-2.5.7-5.3 1.5-6.3 1.7-1 .2-2.6.5-3.5.8-.9.3-2.8.7-4.2 1-1.4.3-3.5.7-4.7 1-1.3.4-3.3.8-4.5 1.1-1.3.3-4.8 1-7.8 1.7-3 .6-5.8 1.1-6.2 1-.4-.1-1.8.2-3.2.7-1.3.6-4.1 1.2-6.3 1.6-2.1.3-5 .7-6.3 1-3.8.7-13.1 2.4-16.5 2.9-8 1.2-10.2 1.6-12 2-1.8.3-10.3 1.4-16.5 2.1-1.4.1-4.7.5-7.5.9-25.6 3-44.6 4.1-76 4-23.6 0-46.1-.8-52.5-1.8-1.4-.3-5.5-.7-9.2-1.1-3.7-.3-8-.8-9.5-1.1-1.5-.3-4.4-.7-6.3-.9-5.5-.5-12-1.5-18-2.7-3-.6-6.4-1.2-7.5-1.4-1.9-.3-4.3-.8-9.5-1.9-1.4-.4-3.6-.8-5-1.1-1.4-.3-3.3-.7-4.2-1-.9-.3-2.5-.7-3.5-.9-2.7-.5-11.9-3.1-19.8-5.5-3.8-1.2-8.6-2.6-10.5-3.2-1.9-.5-3.9-1.3-4.5-1.6-.5-.4-1.4-.7-2-.8-3.4-.6-25.2-9.9-37-15.9-64.5-32.6-100.6-79.1-110-142-.5-3.4-1.3-19.8-1.5-31-.2-6.6 1.4-22.6 3-31.3.5-3.1 1.3-7.1 1.6-8.7 1.6-9 7.7-30.9 9.5-34.5.4-.8 2.2-5.3 3.9-10 4.9-12.9 19.3-42 21.3-42.8.4-.2.7-.8.7-1.3 0-1.4 16.4-26 22.6-33.9 17.4-22 45.7-51.9 62.9-66.5 3.9-3.2 7.8-6.7 8.8-7.7 1-1 2.1-1.8 2.5-1.8.4 0 2.3-1.5 4.2-3.3 1.9-1.8 6.2-5.3 9.5-7.8 3.3-2.4 6.9-5.2 8-6.1 2.6-2.2 5.9-4.5 20.3-14.3 6.4-4.4 11.9-8.2 12.2-8.5.3-.3 4.8-3.2 10-6.4 5.2-3.3 11.1-6.9 13-8.1 6-3.8 18.3-10.9 23.3-13.4 3.2-1.6 4.6-2.9 4.2-3.9-.3-.7-.5-1.8-.5-2.3 0-1.5-3.2-.9-9.5 1.7z"/><path d="M687 349.1c-8.1.8-13.3 1.7-18.5 3.1-2.2.5-4.7 1.2-5.5 1.3-6.7 1.5-26 9.9-26.8 11.7-.2.5-.8.8-1.4.8-1.3 0-9.6 5.9-13 9.2-1.5 1.6-3.2 2.8-3.7 2.8s-1.3.9-1.6 2c-.3 1.1-1 2-1.4 2-.9 0-9.1 10.4-9.1 11.5 0 .3-1.1 2.2-2.3 4.3-2 3.1-4.5 9.2-5.3 12.4-.1.5-.2.9-.4 1-.1.2-.3 1-.5 1.8s-.7 2.6-1 4c-1.4 5.3-1.5 24.5-.1 29.7.8 2.9 1.3 5.3 1.1 5.3-.7 0 5.8 12.6 8.6 16.6 7.4 10.8 22.2 22.2 39.8 30.6 5.8 2.7 14.9 7 20.1 9.5 12.6 6.1 24 14.2 24 17.2 0 .6.4 1.1.9 1.1 1.5 0 3.4 6 3.7 11.2.5 12.8-8.1 23-23.4 27.4-7.7 2.3-9 2.4-21.2 2.5-9 0-17.7-1-30.5-3.6-6.3-1.3-21.1-6.7-28.7-10.5-4.3-2.2-8.3-4-8.9-4-.5 0-1.2 1.3-1.5 3-.4 1.6-1 3-1.5 3s-.9.6-.9 1.4c0 1.1-3 8-10 23.1-6 12.9-7 15.9-5.8 16.7 4.4 2.9 21.2 10.3 30.1 13.3 16.4 5.3 30.4 7.5 48.7 7.5 14.2 0 23.8-.7 33-2.5 9.9-1.9 13.7-2.7 15-3.2.8-.3 2-.7 2.5-.9 5.5-1.4 18.6-7 23-9.7 12.9-8 22.4-16.3 28.4-25 3.3-4.9 8.9-15.6 9.7-18.5.2-1 1.2-5.2 2.2-9.4 2.9-11.6 2.6-31.4-.5-38.8-.3-.8-.7-2-.8-2.6-1.3-6.1-10.3-19.2-17.6-25.7-6.8-6-6.1-5.5-14.4-11-5.5-3.5-35.4-18.7-37-18.7-.2 0-3.6-1.9-7.6-4.2-7.7-4.4-19.5-15.1-18.5-16.7.4-.5.2-1.1-.3-1.3-1.5-.5-2-8.4-.8-12.5 2.4-7.8 12.9-15.4 25.4-18.3 8-1.8 27.5-1.6 37.9.4 7.4 1.5 17 4.3 24.2 7.2 9 3.7 9.3 3.8 9 2.6-.1-.4.6-2.2 1.5-3.9 1-1.8 1.8-3.6 1.8-4 .2-1.2 5.7-15.8 7.8-20.8 6.4-14.8 7.6-19.5 5-19.5-.5 0-2.8-.9-5.2-1.9-4.2-1.9-15.5-5.7-19.5-6.6-1.2-.3-3.2-.7-4.4-1-10.2-2.2-15.4-2.7-30.3-2.9-9.3-.1-19.9.1-23.5.5z"/><path d="M410.8 352.8c-1.5.3-2 2-3.4 10.2-.3 1.4-1.1 6-2 10.3-.8 4.2-1.7 9-2 10.5-.2 1.5-.7 4-1.1 5.7-.8 3.5-.9 4.1-1.8 9.5l-.7 4H432c27.6 0 32.1.2 31.7 1.4-.3.8-1 4.1-1.6 7.3-.6 3.2-1.3 7.1-1.6 8.8-.3 1.6-.8 4.1-1.1 5.5-.2 1.4-.6 3.4-.9 4.6-.3 1.2-.7 3.9-1 6-.4 2.1-.8 4.6-1 5.4-.3.8-.7 3.3-1 5.5-.4 2.2-.8 4.8-1.1 5.7-.3 1-.7 3-1 4.5-.2 1.6-1.4 7.7-2.5 13.8-1.1 6-2.2 12.1-2.4 13.5-.2 1.4-.7 3.8-1 5.5-.4 1.6-.8 3.9-.9 5-.1 1.2-.6 2.7-1 3.4-.4.7-.6 1.5-.3 1.7.3.3.1 2-.4 3.7-.5 1.8-1.2 5.2-1.5 7.7-.3 2.4-.7 4.7-.9 5-.2.3-.6 2.5-1 5s-.8 4.7-1 5c-.2.3-.6 3-1 6s-.9 5.8-1.1 6.1c-.2.3-.6 2-.9 3.7-.9 5.4-1.5 8.6-2 11.2-.3 1.4-1.4 7.4-2.5 13.5-2.4 13-2.8 15.1-3.5 18.7-.4 1.5-.8 3.9-1 5.5-.2 1.5-.9 5.3-1.5 8.3-1.5 7.2-1.8 9-2.2 12l-.3 2.5 28.7.1c31.6.1 29.3.6 30.4-6.5.3-2 1.4-7.9 2.4-13.1 1.1-5.2 2.1-10.9 2.4-12.6.3-1.7 1.3-6.6 2.1-11 .9-4.3 1.8-9.5 2.1-11.4.2-1.9.7-4.2.9-5 .2-.8.7-2.9 1-4.5.2-1.7.7-4.1 1-5.5.3-1.4.8-4.1 1.1-6 .2-1.9.7-4.2.9-5 .2-.8.7-3.1 1-5 .3-1.9 1.8-9.4 3.1-16.5 1.4-7.2 2.8-14.1 3-15.5.2-1.4.6-3.6.9-5 .3-1.4 1.4-7.2 2.5-13s2.2-11.6 2.5-13c.3-1.4.7-3.9 1-5.5.4-2.9.8-4.8 2-10.5.8-4 1.4-7.2 2-11 .6-4 .9-5.6 2.3-12 .6-2.5 1.3-6.1 1.6-8 .3-1.9.7-4.4 1-5.5.2-1.1.7-3.9 1.1-6.3l.7-4.2H580l.6-2.8c.4-1.5 1.7-5.1 3-8 1.3-2.9 2.3-5.5 2.3-5.9-.1-.3.3-.9.8-1.2.5-.3 2-2.2 3.3-4.1 3.2-4.7 11.7-13 13.1-13 .7 0 .9-.3.6-.7-1.3-1.2 11.8-8.8 21.8-12.7 2.5-.9 3.3-1.5 2-1.6-5.4-.3-215.4-.5-216.7-.2zM222.9 353.2c0 .2-.2 1.4-.4 2.8s-1.3 7.2-2.4 13c-1.2 5.8-2.4 11.8-2.7 13.5-.2 1.6-.7 3.7-.9 4.5-.2.8-.7 3.7-1.1 6.5-.3 2.7-.8 5.3-1 5.6-.2.3-.6 2.1-.9 4-.3 1.9-1.3 7.2-2.1 11.9-.9 4.7-1.8 9.6-2 11-.3 1.4-.7 3.8-1.1 5.5-.9 4-.8 3.4-1.8 9-.4 2.7-.9 5.4-1.1 6-.1.5-.5 3-.9 5.5-.4 2.4-.8 4.7-1.1 5.1-.2.3-.5 2.2-.8 4.2-.2 2-.7 4.4-1 5.4-.2 1-.7 3.4-1 5.3-.5 3.3-.9 5-2.1 11-.3 1.4-.8 4.3-1.1 6.5-.3 2.2-.7 4.2-.9 4.5-.2.3-.6 2.6-1 5-.3 2.5-1.1 6.5-1.7 9-.5 2.5-1.2 5.8-1.4 7.5-.3 1.6-1.4 7.5-2.4 13-2.3 11.6-3.1 16.2-3.5 19-.1 1.1-.3 2-.5 2-.1 0-.3.9-.4 2-.2 1.1-.6 3.3-.9 5-.4 1.6-1 4.7-1.3 6.9-.3 2.1-.8 4.8-1 6-1.2 5.4-2.5 12.4-3 15.6-.3 1.9-1.7 9.1-3 15.8-1.3 6.8-2.4 12.6-2.4 12.8 0 .2 39.4.4 87.5.4 69.1 0 87.7-.3 88-1.3.3-.6.7-2.8.9-4.7.3-1.9.5-3.5.6-3.5.1 0 .3-1.1.6-2.5.2-1.4.9-5 1.5-8s1.2-6.6 1.5-8c.2-1.4.9-5 1.5-8s1.2-6.6 1.5-8c.2-1.4.7-3.1.9-3.8.5-1.4 5.8-1.3-65.7-1.3H242l.5-3.7c.3-2 .7-4.8 1-6.2.7-3.5 5.5-29 6-32 .3-1.4.7-3.4.9-4.5.2-1.1.7-4.4 1.1-7.3.4-3 1.3-5.6 2-5.8.6-.3 24.3-.6 52.5-.7l51.4-.2.8-3c.4-1.7 1-4.6 1.3-6.5.5-4.1 1.3-8.2 2.2-12.5.4-1.7.8-3.6.9-4.3.1-.8.8-4.6 1.6-8.5.7-4 1.2-7.8 1.1-8.5 0-.6.2-1.2.6-1.2.4 0 .7-1 .6-2.2l-.2-2.2-51.4-.1c-28.3-.1-51.7-.3-52-.3-.4-.1 0-3.2.7-6.8.8-3.6 1.6-8 1.8-9.7.3-1.8 1-5.7 1.6-8.7.6-3 1.4-6.9 1.7-8.5.3-1.7 1.2-6.2 1.9-10 .8-3.9 1.6-7.5 1.6-8.1.1-.9 14.1-1.2 51.7-1.2 28.4 0 53-.1 54.7-.1 3-.1 3.1-.2 4.4-7.4.8-3.9 1.5-7.7 1.6-8.2.1-.6.5-2.7.8-4.9.3-2.1.8-4.1 1-4.5.2-.3.7-2.8 1-5.5.4-2.7.9-5.2 1.1-5.5.1-.3.6-2.4.9-4.5.4-2.1.9-5 1.2-6.2l.6-2.4h-84.1c-46.3 0-84.1.1-84.2.2zM896 616.5c-21.1 4.4-33.6 23.9-28.5 44.5 2.6 10.5 12 20.4 22.9 24 9 2.9 24.5 1.1 29.7-3.6.8-.8 1.8-1.4 2.2-1.4 1.3 0 7.7-7.1 10.1-11.2 4.9-8.6 6-19 3.1-29.3-2.7-9.7-13.6-20.1-23-22-2.2-.5-4.7-1-5.5-1.2-3.7-.9-5.9-.9-11 .2zm11 4c10.8 1.9 21.5 12.6 23.6 23.5 2 11-1.3 21.7-8.8 28.4-8.4 7.6-18.5 10.2-29.2 7.6-13-3.1-23.4-17-22.8-30.5.2-5.8 3-14.5 4.6-14.5.5 0 .7-.3.3-.6-.8-.8 7.3-9.4 8.9-9.4.7 0 1.4-.4 1.6-.9.2-.5 3-1.8 6.3-2.9 5.5-1.9 8.1-2 15.5-.7z"/><path d="M885.9 631.9c-.4 6.8-.3 37.1.1 37.2.3 0 1.3.2 2.4.4 3.8.7 4.4-.4 4.3-7.8l-.2-7.2h6.3c8.1 0 10.4 2 10.6 9.6.2 5.3.3 5.4 3.1 5.4 2.6.1 3.1-.4 3.5-3 .9-5-1.1-11.3-4.4-13.4l-2.9-1.9 3.1-1.6c3.7-1.9 4.4-2.9 4.9-7.3.9-8.6-4.8-12-20.4-12-8.8 0-10.3.2-10.4 1.6zm22.2 5.6c2.4 2.3 2.2 6.9-.6 9.5-1.9 1.7-7.5 2.6-13.2 2.1-.9-.1-1.3-2.3-1.3-7.2v-7.2l6.5.6c4.3.3 7.3 1.1 8.6 2.2z"/></svg>