<svg xmlns="http://www.w3.org/2000/svg" width="349.177" height="349.177"><path fill="#f2562e" fill-rule="evenodd" d="M0 0h349.177v349.177H0z"/><path d="M139.755 76.922c0-3.333.333-5.333 6-5.333h76.333c13.334 0 20.667 11.333 26 32.666l4.334 17h13c2.333-48.333 4.333-69.333 4.333-69.333s-32.667 3.667-52 3.667h-97.667l-52.333-1.667v14l17.667 3.333c12.333 2.334 15.333 5 16.333 16.334 0 0 1 33.333 1 88.333s-1 88-1 88c0 10-4 13.667-16.333 16l-17.667 3.333v14l52.333-1.666h87.334c19.666 0 65.333 1.666 65.333 1.666 1-12 7.667-66.333 8.667-72.333h-12.334l-13 29.667c-10.333 23.333-25.333 25-42 25h-49.666c-16.667 0-24.667-6.667-24.667-21v-76s37 0 49 1c9.333.666 15 3.333 18 16.333l4 17.333h14.333l-1-43.666 2-44h-14.333l-4.667 19.333c-3 12.667-5 15-18 16.333-17 1.667-49.333 1.334-49.333 1.334V76.922" fill="#fff"/></svg>