<svg xmlns="http://www.w3.org/2000/svg" fill="#00b5ae" viewBox="0 0 50.5 50.844"><path d="M50.4 25.2c0-1.7-1.3-3-3-3h-.1c-1.7-.1-3.1 1.3-3.2 3v.2c0 2.5-.5 5.1-1.5 7.4-1.9 4.5-5.6 8.2-10.1 10.1-2.3 1-4.8 1.5-7.4 1.5h-1.2c-.4 0-.8-.1-1.2-.1-2.3-.3-4.5-1-6.5-2.1s-3.8-2.5-5.3-4.2-2.7-3.6-3.5-5.7c-.9-2.2-1.3-4.5-1.3-6.8 0-2.5.5-5 1.5-7.3 1-2.2 2.4-4.3 4.1-6s3.8-3.1 6-4.1c2.3-1 4.8-1.5 7.3-1.5s5 .5 7.3 1.4c2 .8 3.8 2 5.3 3.4L26.1 23.1c-1 1.4-.6 3.2.7 4.2l.1.1c1.3 1 3.3.8 4.3-.6l14.3-14.3c.7-.7.7-1.8 0-2.5L43 7.5c-2.3-2.3-5.1-4.2-8.1-5.5-3.1-1.3-6.4-2-9.7-2s-6.6.7-9.7 2c-3 1.3-5.8 3.2-8.2 5.5-2.3 2.4-4.1 5.1-5.4 8.2S0 22.1 0 25.4c0 3.1.6 6.1 1.7 9 1.1 2.8 2.7 5.5 4.7 7.8s4.4 4.1 7 5.6c2.7 1.5 5.7 2.4 8.8 2.8.5.1 1 .1 1.5.2s1 0 1.6 0c3.3 0 6.7-.6 9.7-1.9 3.1-1.3 5.8-3.1 8.1-5.5 2.4-2.3 4.2-5.1 5.5-8.2s1.9-6.4 1.9-9.7v-.3z"/></svg>