<?xml version="1.0" encoding="utf-8"?>
<!-- Generator: Adobe Illustrator 16.0.0, SVG Export Plug-In . SVG Version: 6.00 Build 0)  -->
<!DOCTYPE svg PUBLIC "-//W3C//DTD SVG 1.1//EN" "http://www.w3.org/Graphics/SVG/1.1/DTD/svg11.dtd">
<svg version="1.1" id="Layer_1" xmlns="http://www.w3.org/2000/svg" xmlns:xlink="http://www.w3.org/1999/xlink" x="0px" y="0px"
	 width="516.607px" height="95.2px" viewBox="0 0 516.607 95.2" enable-background="new 0 0 516.607 95.2" xml:space="preserve">
<g>
	<g>
		<path fill="#131C4E" d="M166.882,68.503c-6.533,6.176-14.207,9.264-23.001,9.264c-8.799,0-16.077-2.707-21.821-8.134
			c-5.745-5.422-8.617-12.694-8.617-21.816s2.923-16.377,8.781-21.764c5.853-5.388,12.768-8.084,20.743-8.084
			c7.971,0,14.736,2.407,20.305,7.222c5.563,4.812,8.351,11.421,8.351,19.821v8.623h-42.235c0.501,3.162,2.157,5.745,4.956,7.755
			c2.802,2.016,5.962,3.02,9.484,3.02c5.673,0,10.345-1.907,14.007-5.711L166.882,68.503z M151.368,34.13
			c-2.225-1.867-4.939-2.798-8.136-2.798c-3.194,0-6.125,0.97-8.78,2.906c-2.657,1.941-4.201,4.563-4.633,7.867h25.426
			C154.887,38.654,153.592,35.998,151.368,34.13z"/>
		<path fill="#131C4E" d="M215.259,50.184V18.939h16.271v57.965h-16.271v-7.646c-4.024,5.671-9.213,8.509-15.57,8.509
			c-6.356,0-11.689-1.992-15.997-5.978c-4.309-3.99-6.467-9.895-6.467-17.722V18.939h16.271v31.568
			c0,8.905,3.263,13.362,9.804,13.362c3.232,0,6.033-1.168,8.401-3.502C214.073,58.035,215.259,54.64,215.259,50.184z"/>
		<path fill="#131C4E" d="M257.601,76.904h-16.16V-0.157h16.16v38.17l17.991-19.182h20.367l-22.087,23.49l22.945,34.583h-19.177
			l-14.759-22.196l-5.281,5.495V76.904z"/>
		<path fill="#131C4E" d="M316.319,45.659v31.245h-16.158V-0.157h16.158v25.562c4.885-4.956,10.357-7.437,16.431-7.437
			c6.068,0,11.187,2.156,15.353,6.465c4.164,4.31,6.248,10.06,6.248,17.241v35.229h-16.16V45.229c0-8.907-3.27-13.357-9.806-13.357
			c-3.229,0-6.052,1.169-8.455,3.502C317.52,37.707,316.319,41.135,316.319,45.659z"/>
		<path fill="#131C4E" d="M421.581,47.924c0,8.402-2.909,15.481-8.729,21.226c-5.812,5.745-13.129,8.617-21.922,8.617
			c-8.798,0-16.104-2.872-21.925-8.617c-5.819-5.744-8.728-12.823-8.728-21.226c0-8.406,2.908-15.496,8.728-21.282
			c5.82-5.779,13.127-8.673,21.925-8.673c8.793,0,16.109,2.894,21.922,8.673C418.672,32.428,421.581,39.518,421.581,47.924z
			 M376.546,47.924c0,4.74,1.347,8.602,4.042,11.581c2.692,2.98,6.136,4.474,10.343,4.474c4.2,0,7.647-1.493,10.343-4.474
			c2.69-2.979,4.04-6.841,4.04-11.581c0-4.738-1.35-8.622-4.04-11.637c-2.695-3.02-6.143-4.524-10.343-4.524
			c-4.207,0-7.65,1.505-10.343,4.524C377.893,39.302,376.546,43.186,376.546,47.924z"/>
		<path fill="#131C4E" d="M471.252,58.857c0,5.711-2.102,10.292-6.304,13.738c-4.2,3.446-9.535,5.171-16.002,5.171
			c-4.306,0-8.793-0.772-13.465-2.315c-4.669-1.545-8.872-3.826-12.609-6.841l7.113-10.126c6.035,4.665,12.461,6.999,19.287,6.999
			c2.086,0,3.732-0.41,4.954-1.238c1.22-0.823,1.833-1.918,1.833-3.287c0-1.362-0.846-2.616-2.532-3.77
			c-1.687-1.146-4.128-2.226-7.322-3.229c-3.195-1.005-5.645-1.867-7.329-2.588c-1.691-0.716-3.61-1.76-5.764-3.123
			c-4.385-2.73-6.572-6.772-6.572-12.126c0-5.348,2.151-9.713,6.467-13.09c4.308-3.372,9.871-5.063,16.699-5.063
			c6.818,0,13.648,2.299,20.468,6.896l-6.033,10.774c-5.028-3.445-10.036-5.171-15.029-5.171c-4.995,0-7.489,1.368-7.489,4.093
			c0,1.511,0.791,2.696,2.369,3.559c1.577,0.858,4.2,1.868,7.866,3.015c3.665,1.153,6.268,2.032,7.812,2.64
			c1.543,0.613,3.396,1.562,5.552,2.856C469.241,49.072,471.252,53.147,471.252,58.857z"/>
		<path fill="#131C4E" d="M497.107,30.576v25.966c0,2.225,0.573,3.968,1.726,5.228c1.147,1.255,2.513,1.885,4.092,1.885
			c3.019,0,5.565-1.362,7.654-4.092l6.028,11.307c-5.029,4.599-10.326,6.897-15.892,6.897s-10.273-1.834-14.111-5.494
			c-3.848-3.662-5.768-8.652-5.768-14.976V30.576h-6.784V18.939h6.784V4.616h16.271v14.323h14.011v11.637H497.107z"/>
	</g>
	<g>
		<path fill="#0047BA" d="M50.368,46.612c0,0.727,0,1.908,0,2.63V95.2c0,0.726,0.514,1.024,1.127,0.658l17.903-10.335
			c0.625-0.363,1.142-1.243,1.142-1.961v-34.32c0-0.722,0-1.903,0-2.63V12.298c0-0.719-0.517-1.602-1.142-1.966L51.495,0
			c-0.613-0.369-1.127-0.064-1.127,0.654V46.612z"/>
		<path fill="#0047BA" d="M81.643,17.397c-0.618-0.355-1.134-0.068-1.134,0.653v28.562c0,0.727,0,1.908,0,2.63v28.561
			c0,0.724,0.516,1.014,1.134,0.659l6.909-3.994c0.617-0.357,1.129-1.246,1.129-1.956v-23.27c0-0.722,0-1.903,0-2.63V23.35
			c0-0.719-0.512-1.6-1.129-1.964L81.643,17.397z"/>
		<path fill="#0047BA" d="M0,33.716c0,0.725,0.57,1.151,1.262,0.942L38.06,24.047c0.686-0.2,1.259-0.961,1.259-1.68V0.654
			c0-0.719-0.518-1.023-1.136-0.654L1.14,21.385C0.508,21.75,0,22.631,0,23.35V33.716z"/>
		<path fill="#0047BA" d="M0,46.612c0,0.727,0,1.908,0,2.63v3.842c0,0.722,0.587,1.4,1.3,1.499l36.718,5.283
			c0.719,0.104,1.301-0.398,1.301-1.121v-9.503c0-0.722,0-1.903,0-2.63v-9.498c0-0.725-0.582-1.225-1.301-1.123L1.3,41.278
			C0.587,41.375,0,42.051,0,42.775V46.612z"/>
		<path fill="#0047BA" d="M0,72.512c0,0.71,0.508,1.599,1.14,1.956l37.043,21.391c0.618,0.366,1.136,0.067,1.136-0.658V73.488
			c0-0.716-0.573-1.477-1.259-1.673L1.262,61.191C0.57,60.99,0,61.419,0,62.144V72.512z"/>
	</g>
</g>
</svg>
