<svg xmlns="http://www.w3.org/2000/svg" viewBox="0 0 89.681 96.173" fill="#0047ba"><path d="M50.368 46.77v48.588c0 .726.514 1.024 1.127.658l17.903-10.335c.625-.363 1.142-1.243 1.142-1.961V12.456c0-.719-.517-1.602-1.142-1.966L51.495.158c-.613-.369-1.127-.064-1.127.654zm31.275-29.215c-.618-.355-1.134-.068-1.134.653v59.753c0 .724.516 1.014 1.134.659l6.909-3.994c.617-.357 1.129-1.246 1.129-1.956V23.508c0-.719-.512-1.6-1.129-1.964zM0 33.874c0 .725.57 1.151 1.262.942L38.06 24.205c.686-.2 1.259-.961 1.259-1.68V.812c0-.719-.518-1.023-1.136-.654L1.14 21.543C.508 21.908 0 22.789 0 23.508zM0 46.77v6.472c0 .722.587 1.4 1.3 1.499l36.718 5.283c.719.104 1.301-.398 1.301-1.121V37.272c0-.725-.582-1.225-1.301-1.123L1.3 41.436c-.713.097-1.3.773-1.3 1.497zm0 25.9c0 .71.508 1.599 1.14 1.956l37.043 21.391c.618.366 1.136.067 1.136-.658V73.646c0-.716-.573-1.477-1.259-1.673L1.262 61.349C.57 61.148 0 61.577 0 62.302z"/></svg>
