<svg xmlns="http://www.w3.org/2000/svg" width="27.83" height="27.83"><g fill-rule="evenodd"><path d="M10.26 6.355c-2.23-.3-3.36.94-4.92 2.08L0 12.635l1.02.54h.01c1.34.66 3.2.44 4.46-.5l2.26-1.8.86-.68 4.3-3.42z" fill="#7cc5d3"/><path d="M0 12.625l1.02.55h.01c1.34.66 3.2.44 4.46-.5l3.12-2.48z" fill="#2090b6"/><path d="M19.38 8.945l-2.86-.51s-2-.48-3.67.81c0 0-1.23.92-2.14 1.63l-2.02 1.6-4.67 3.71-.04.03 1.41.75c1.34.66 3.2.44 4.47-.5l4.18-3.31 5.34-4.2" fill="#7c2045"/><path d="M10.71 10.875c.91-.71 2.14-1.63 2.14-1.63.32-.24.64-.42.97-.55l-5.2 1.5-.87.69-2.25 1.79a4.52 4.52 0 01-4.47.5c1.14.69 2.91.84 5.58.05l1.82-.54.27-.21zm7.34 1.6a11.2 11.2 0 012.16-1.46l-5.83 1.87-.34.27-4.18 3.3a4.52 4.52 0 01-4.47.51c2.06 1.13 5.23.3 7.89-.65l.16-.13 4.61-3.72m6.85 3.75c-2.33-.68-3.04-.25-5.79.58l-.23.2-4.45 3.52a4.73 4.73 0 01-4.58.46c1.65.86 3.36.65 6.28-.26l11.7-3.6z" fill="#c1beb9"/><path d="M25.68 11.365l-3.1-.56c-1.85-.35-2.73.25-4.53 1.66l-4.61 3.72-5 4.04 1.4.75c1.34.66 3.33.48 4.6-.46l4.43-3.52z" fill="#7c2045"/></g></svg>