<svg xmlns="http://www.w3.org/2000/svg" width="89.779" height="89.779"><g fill="#22b6f0"><path d="M24.078 34.235h-5.442v-5.397c0-4.024.153-6.54.46-7.54.308-.998 1.107-1.484 2.396-1.454 1.383.034 2.231 1.295 2.54 3.785.028.307.046 2.045.046 5.209zm9.453-23.798C30.056 8.009 25.75 6.81 20.615 6.84c-4.366.03-8.178 1.03-11.434 2.997-.289.174-.553.363-.826.553-.004.005-.016.01-.022.014-.012.008-.024.015-.036.025-.26.18-.507.382-.757.576-2.837 2.216-4.869 5.285-6.063 9.255C.493 23.523 0 27.931 0 33.498V54.944c0 3.862.253 7.282.75 10.266.717 4.29 1.94 7.682 3.68 10.167 3.564 5.104 9.39 7.622 17.477 7.56 7.195-.032 12.546-2.44 16.05-7.237 2.061-2.831 3.431-5.904 4.103-9.224.464-2.276.695-5.64.695-10.102V50.93H25.09v9.69c0 3.659-.245 6.133-.736 7.424-.495 1.29-1.43 1.92-2.817 1.891-1.534-.034-2.471-1.062-2.811-3.088-.06-.402-.09-2-.09-4.797v-15.87h24.12v-9.73c0-6.086-.48-10.87-1.428-14.344-1.387-5.102-3.986-8.992-7.797-11.668M71.145 57.57c0-2.212.06-.782.185 4.291.057 2.339-.078 4.151-.416 5.443-.493 1.786-1.37 2.659-2.63 2.63-1.667-.031-2.631-1.557-2.906-4.542.061.146.095-2.27.095-7.268V8.18H46.839V57.71c0 6.55.107 10.763.326 12.638.244 2.214.796 4.29 1.658 6.227 1.904 4.304 5.582 6.424 11.021 6.362 4.952-.06 8.717-2.534 11.3-7.422l-.323 6.086H89.78V8.179H71.145v49.39"/></g></svg>