<svg xmlns="http://www.w3.org/2000/svg" width="114.489" height="114.489"><path fill="#222c68" fill-rule="evenodd" d="M0 0h114.489v114.489H0z"/><path d="M47.713 66.776v.002c8.235 8.264 8.5 21.198 8.5 30.15h2.063c.001-8.952.262-21.891 8.5-30.156l-.002-.002c8.264-8.236 21.2-8.498 30.154-8.5v-2.053c-8.955 0-21.89-.264-30.154-8.5l.002-.001c-8.238-8.266-8.499-21.203-8.5-30.156h-2.063c0 8.953-.265 21.885-8.5 30.15v.002c-8.265 8.234-21.197 8.498-30.153 8.498v2.067c8.956 0 21.888.264 30.153 8.499" fill="#fbc728"/></svg>