<svg xmlns="http://www.w3.org/2000/svg" width="130.226" height="130.226"><path d="M124.893 91.742c-11.031-2.378-19.514-4.406-30.182-6.728 0 0-9.011 9.027-13.818 11.538-16.205 8.467-33.697 1.993-44.667-11.477l94-21.333c0-8.58-1.762-16.765-5.146-24.667-3.228-7.535-7.72-14.199-13.521-19.999C75.316-17.168 11.339 1.976 1.192 52.409c-1.546 7.684-1.546 16.28-.245 24 8.568 50.84 71.061 70.325 108.603 36.854 6.583-5.869 11.95-13.376 15.343-21.52M93.56 45.074l-62.922 14.06c6.264-22.072 28.075-36.643 50.255-25.553 5.118 2.559 10.372 6.077 12.667 11.493z" fill="#f05537"/></svg>