<svg xmlns="http://www.w3.org/2000/svg" viewBox="0 0 1622 689"><path fill="#0a293b" d="M769 10a13 13 0 0 1 9-8l4-1h95a14 14 0 0 1 13 18L709 514a14 14 0 0 1-13 8H591a13 13 0 0 1-11-5l-2-3-147-401a14 14 0 0 0-13-9H133a14 14 0 0 0-14 14v74a13 13 0 0 0 4 10 14 14 0 0 0 10 4h158a14 14 0 0 1 12 8l1 5v73a14 14 0 0 1-13 14H133a14 14 0 0 0-14 13v86a14 14 0 0 0 14 13h228a13 13 0 0 1 13 9l1 5v77a13 13 0 0 1-9 12l-5 1H15a14 14 0 0 1-14-13V15A13 13 0 0 1 9 2l6-1h495a14 14 0 0 1 11 5l2 4 111 333a14 14 0 0 0 26-1L769 10z"/><path fill="#32647f" fill-rule="evenodd" d="M898 581a14 14 0 0 1 18-5 213 213 0 0 0 62 20 190 190 0 0 0 44 1 85 85 0 0 0 44-20 79 79 0 0 0 22-61 14 14 0 0 0-20-12 154 154 0 0 1-74 17 181 181 0 0 1-84-20 145 145 0 0 1-70-85 210 210 0 0 1-8-112 208 208 0 0 1 30-73 182 182 0 0 1 112-75 251 251 0 0 1 87-8 462 462 0 0 1 136 29 13 13 0 0 1 3 8v326c0 60-17 105-50 134-34 29-79 43-137 43a348 348 0 0 1-115-18 221 221 0 0 1-31-17 14 14 0 0 1-1-15l32-57zm191-322a14 14 0 0 0-10-13 141 141 0 0 0-73-1 105 105 0 0 0-19 8 90 90 0 0 0-32 33 85 85 0 0 0-10 27 131 131 0 0 0 1 62 98 98 0 0 0 15 30 68 68 0 0 0 56 24 77 77 0 0 0 53-17 68 68 0 0 0 19-53V259zm140 60a203 203 0 0 1 41-105 190 190 0 0 1 94-62 206 206 0 0 1 101-5 202 202 0 0 1 88 41 189 189 0 0 1 67 131 198 198 0 0 1-7 77 200 200 0 0 1-60 94 191 191 0 0 1-128 45 204 204 0 0 1-114-34 187 187 0 0 1-80-123 197 197 0 0 1-2-59zm196 118a85 85 0 0 0 45-12 83 83 0 0 0 30-33 99 99 0 0 0 11-35 122 122 0 0 0-16-79 93 93 0 0 0-18-19 86 86 0 0 0-33-16 82 82 0 0 0-19-2 86 86 0 0 0-53 18 79 79 0 0 0-23 27 103 103 0 0 0-12 44 114 114 0 0 0 28 84 77 77 0 0 0 40 21 83 83 0 0 0 20 2z"/></svg>