<svg xmlns="http://www.w3.org/2000/svg" fill="none" viewBox="0 0 40 40"><path fill="url(#a)" d="M39.414 24.085c-.573-1.641-1.503-3.323-2.337-4.749-1.065-1.826-1.37-3.611-1.017-5.978.514-3.448-.39-6.608-2.421-8.452-1.334-1.211-3.776-2.437-7.828-1.378-3.3.86-6.344-.77-8.791-2.081C15.14.439 13.651-.357 12.505.165c-.665.304-1.124 1.03-1.403 2.219-.735 3.14-1.444 5.311-2.234 6.833-.657 1.267-1.359 2.078-2.34 2.704-2.439 1.56-4.232 3.297-5.326 5.16-.966 1.663-1.363 3.43-1.143 5.107.195 1.47.86 2.86 1.918 4.008 1.028 1.118 2.377 1.955 3.898 2.43a5.85 5.85 0 0 1 2.938 2c.735.925 1.304 2.152 1.738 3.744.386 1.422 1.003 2.615 1.833 3.556.826.937 1.822 1.567 2.957 1.87a6 6 0 0 0 1.565.204c.82 0 1.672-.16 2.539-.481 1.51-.556 3.008-1.575 4.46-3.027 1.41-1.41 2.707-2.303 4.077-2.803 1.212-.445 2.336-.523 3.523-.608 1.352-.096 2.751-.196 4.408-.833 2.006-.774 3.288-1.93 3.81-3.434.451-1.303.352-2.848-.302-4.73zm-2.877-.097c-.246 2.693-1.517 4.904-3.772 6.575-.992.73-1.958 1.21-2.943 1.63a15.17 15.17 0 0 0 5.055-6.908 15.3 15.3 0 0 0 .805-7.071c.07.14.132.274.198.415.584 1.933.808 3.73.661 5.36zM21.167 34.7q-.264.01-.529.01a14.37 14.37 0 0 1-9.896-3.933C7.899 28.107 6.26 24.485 6.12 20.57a14.63 14.63 0 0 1 3.89-10.512 14.4 14.4 0 0 1 10.124-4.66q.264-.01.53-.01c3.687 0 7.185 1.385 9.896 3.933 2.843 2.67 4.481 6.293 4.62 10.208a14.63 14.63 0 0 1-3.89 10.511 14.4 14.4 0 0 1-10.124 4.66m9.801-25.824a15 15 0 0 0-8.39-3.966c3.993-.404 7.329 1.355 9.298 4.9-.29-.322-.588-.633-.908-.934M14.46 6.114a15 15 0 0 0-4.886 3.53l-.129.148c.17-.377.338-.781.514-1.215.177-.34.357-.685.548-1.048 1.422-2.66 3.857-2.563 6.94-2.44.054 0 .113.003.168.007q-1.628.332-3.155 1.018m-8.942 14.47a15.3 15.3 0 0 0 3.075 8.69C6.7 27.833 5.404 25.862 4.916 23.65c-.5-2.263-.158-4.681.98-7.052-.297 1.3-.43 2.634-.381 3.985zm9.933 13.801c1.668.615 3.41.922 5.184.922.183 0 .367 0 .547-.01a15 15 0 0 0 2.685-.342c-1.487.867-3.049 1.323-4.58 1.323q-.48 0-.948-.06c-1.84-.226-3.475-1.1-4.728-2.518a9 9 0 0 0-.246-.27q1.002.555 2.086.955m18.115-22.56c-.283-.56-.574-1.141-.856-1.719-.992-2.026-2.44-3.63-4.184-4.63a9.4 9.4 0 0 0-3.318-1.133c2.04-.207 3.858.222 5.305 1.27.93.674 1.697 1.582 2.277 2.697.563 1.078.922 2.3 1.077 3.63q.04.343.092.674-.2-.394-.394-.79m-16.101-7.34c-1.546-.063-3.004-.119-4.275.203-.893.226-1.624.623-2.223 1.212.103-.286.202-.575.309-.878.51-1.474 1.256-1.99 2.365-1.99.838 0 1.881.297 3.185.693.933.286 1.97.604 3.079.804a44 44 0 0 1-2.436-.044zm-11.487 10.7c-1.686 2.856-2.255 5.83-1.642 8.6a10 10 0 0 0 1.973 4.097c-1.874-1.156-3.108-2.93-3.424-4.96-.297-1.925.107-4.955 3.564-8.574q-.231.435-.467.837zm7.19 18.92c1.351 1.53 3.115 2.47 5.102 2.714q.507.062 1.025.063c1.194 0 2.399-.259 3.578-.751-2.01 1.396-4.114 1.933-6.021 1.514-1.914-.422-3.49-1.766-4.441-3.785a10 10 0 0 0-.856-1.456 29 29 0 0 1 1.616 1.704zm18.14-1.941a13 13 0 0 0 1.81-1.119c2.403-1.774 3.755-4.13 4.016-7.004.07-.778.055-1.593-.034-2.433.452 1.37.691 2.6.706 3.696.014 1.219-.243 2.3-.768 3.219-.588 1.033-1.532 1.896-2.806 2.57-1.04.552-1.98.841-2.925 1.067zm1.935-26.809c1.881 1.708 2.715 4.667 2.23 7.915a11.7 11.7 0 0 0-.132 2.249 26 26 0 0 0-.327-.726 20.6 20.6 0 0 1-.547-2.92c-.162-1.403-.548-2.695-1.143-3.84-.624-1.2-1.451-2.178-2.457-2.904-.956-.692-2.058-1.133-3.263-1.326 2.822-.33 4.603.611 5.64 1.552M12.76.714a1.3 1.3 0 0 1 .547-.108c.874 0 2.083.648 3.438 1.374 1.51.811 3.244 1.733 5.14 2.156-1.749-.03-3.39-.53-4.886-.99-1.43-.436-2.66-.814-3.725-.703-.738.078-1.322.381-1.785.933.07-.278.136-.559.205-.852.232-.996.58-1.589 1.07-1.807zM2.418 25.783c-.974-1.059-1.584-2.33-1.764-3.677-.209-1.563.151-3.152 1.07-4.719 1.043-1.782 2.77-3.448 5.131-4.956.309-.2.595-.418.864-.663l-.107.219a9 9 0 0 1-1.23 1.552c-3.979 3.963-4.42 7.337-4.093 9.47.272 1.775 1.19 3.367 2.59 4.571a8 8 0 0 1-2.465-1.804zm16.817 13.168c-1.319.485-2.579.574-3.743.26-1.018-.275-1.914-.845-2.664-1.69-.767-.867-1.34-1.981-1.7-3.311-.28-1.026-.621-1.915-1.029-2.685.702.781 1.326 1.659 1.767 2.592 1.032 2.193 2.755 3.652 4.856 4.115q.7.156 1.43.156c1.274 0 2.59-.356 3.886-1.045-.926.723-1.863 1.263-2.8 1.608zm19.918-10.338c-.47 1.349-1.602 2.352-3.46 3.07-1.051.405-1.999.582-2.906.682a11 11 0 0 0 1.723-.737c2.615-1.385 3.927-3.515 3.894-6.333-.011-1.008-.199-2.111-.555-3.323.386.763.735 1.545 1.003 2.312.61 1.744.709 3.159.301 4.33"/><defs><linearGradient id="a" x1="11.881" x2="31.856" y1="38.015" y2="3.696" gradientUnits="userSpaceOnUse"><stop offset=".17" stop-color="#6E06C1"/><stop offset=".25" stop-color="#5E24BD"/><stop offset=".46" stop-color="#3D67B4"/><stop offset=".64" stop-color="#239DAD"/><stop offset=".8" stop-color="#0FC3A9"/><stop offset=".92" stop-color="#04DBA6"/><stop offset="1" stop-color="#00E4A5"/></linearGradient></defs></svg>