<svg xmlns="http://www.w3.org/2000/svg" fill="none" class="containerLogoindex___3wpVB" viewBox="0 0 64 64"><path fill="#FF7E37" d="M0 25.6c0-9 0-13.4 1.7-16.9a16 16 0 0 1 7-7C12.2 0 16.7 0 25.6 0h9.6c10 0 15.1 0 19 2A18 18 0 0 1 62 9.8c2 3.9 2 9 2 19v9.6c0 9 0 13.4-1.7 16.9a16 16 0 0 1-7 7c-3.5 1.7-8 1.7-16.9 1.7H25.6c-9 0-13.4 0-16.9-1.7a16 16 0 0 1-7-7C0 51.8 0 47.3 0 38.4V25.6z"/><path fill="#fff" d="M49.9 15c-2.1 0-3.6 1-4.5 2.6l-9.6 17.6V19.6c0-2.7-2.1-4.6-4.8-4.6-2 0-3.6 1-4.4 2.6l-9.6 17v-19H9v33.5h7.7L28 29.3v15.3c0 2.8 2 5 4.7 5A5.2 5.2 0 0 0 37 47a1108 1108 0 0 0 9.6-17.8v19.9h7.7V20c.1-2.8-1.9-5.1-4.5-5.1z"/></svg>