<svg xmlns="http://www.w3.org/2000/svg" viewBox="0 0 86.909 86.909"><path d="M14.439 13.104A23.53 23.53 0 002.662 33.497v19.907A23.53 23.53 0 0014.44 73.797l17.234 9.953a23.528 23.528 0 0023.552 0l17.246-9.953a23.543 23.543 0 0011.776-20.393V33.497A23.53 23.53 0 0072.47 13.104L55.225 3.15c-7.28-4.201-16.26-4.201-23.552 0z" fill="#408edd"/><path d="M19.508 35.738l24.255.023-1.506-2.525 1.506-2.524H19.508l-1.506 2.502zm33.416-5.026L39.121 53.664h3.035l1.506 2.525 13.803-22.952-1.506-2.525zm8.379 22.953l13.803-22.952h3.034l1.506 2.525L65.843 56.19l-1.506-2.525zm-5.012.001l8.243-13.746H61.5l-1.506-2.525L51.75 51.14l1.506 2.525zm-23.296-.002H8.75l-1.506-2.502 1.506-2.525h24.255L31.5 51.162zM30.65 39.666H14.152l1.506 2.525-1.506 2.524H30.65l1.506-2.524z" fill="#fff"/></svg>
