<svg xmlns="http://www.w3.org/2000/svg" width="1024" height="1024"  xmlns:v="https://vecta.io/nano"><g fill-rule="evenodd"><rect width="885.85" height="885.85" x="69.07" y="69.07" rx="169.42" fill="#fff"/><path d="M159.19 864.81c-18.87-18.87-30.32-45.16-30.32-74.85V234.04c0-29.69 11.45-55.98 30.32-74.85L69.07 69.07C26.7 111.45.37 169.87.37 234.04v555.92c0 64.17 26.33 122.6 68.7 164.97" fill="#ffc600"/><path d="M69.07 954.93c42.38 42.37 100.8 68.7 164.97 68.7h555.92c64.17 0 122.6-26.33 164.97-68.7L864.8 864.8c-18.87 18.87-45.16 30.32-74.85 30.32H234.04c-29.69 0-55.98-11.45-74.85-30.32" fill="#2eaae2"/><path d="M954.93 69.07C912.55 26.7 854.13.37 789.96.37H234.04c-64.17 0-122.6 26.33-164.97 68.7l90.12 90.12c18.87-18.87 45.16-30.32 74.85-30.32h555.92c29.69 0 55.98 11.45 74.85 30.32" fill="#ffc600"/><path d="M864.81 159.19c18.87 18.87 30.32 45.16 30.32 74.85v555.92c0 29.69-11.45 55.98-30.32 74.85l90.12 90.12c42.37-42.38 68.7-100.8 68.7-164.97V234.04c0-64.17-26.33-122.6-68.7-164.97" fill="#2ecb70"/></g><path d="M337.1 257.18h350.1v104.23H465.4v94.21h188.25V563H465.4v98.3H687.2v105.69H337.1z" fill="#313e48"/></svg>