<svg xmlns="http://www.w3.org/2000/svg" width="96.378" height="96.378"><g fill-rule="evenodd"><path d="M58.493 22.677H47.571a5.877 5.877 0 01-5.88-5.878V5.876A5.877 5.877 0 0147.571 0h10.922a5.877 5.877 0 015.876 5.876v10.922a5.877 5.877 0 01-5.876 5.878" fill="#0d6eb7"/><path d="M30.238 47.16H17.951a6.607 6.607 0 01-6.612-6.61V28.26a6.614 6.614 0 016.612-6.612h12.287a6.614 6.614 0 016.613 6.612v12.29a6.608 6.608 0 01-6.613 6.61" fill="#72217b"/><path d="M29.068 72.664h-7.504a4.042 4.042 0 01-4.044-4.042v-7.5a4.045 4.045 0 014.044-4.048h7.504a4.043 4.043 0 014.042 4.047v7.501a4.04 4.04 0 01-4.042 4.042" fill="#b12384"/><path d="M49.218 96.378h-8.874a4.772 4.772 0 01-4.775-4.775v-8.874a4.772 4.772 0 014.775-4.776h8.874a4.772 4.772 0 014.776 4.776v8.874a4.772 4.772 0 01-4.776 4.775m32.519-69.232h-6.148a3.308 3.308 0 01-3.306-3.305v-6.14a3.309 3.309 0 013.306-3.311h6.148a3.307 3.307 0 013.302 3.31v6.14a3.305 3.305 0 01-3.302 3.306" fill="#d92b80"/><path d="M62.387 41.101c5.31 0 9.723 3.408 11.229 8.157H51.088c1.506-4.75 5.924-8.157 11.299-8.157m17.6 10.82c-.137-8.971-8.148-16.642-17.6-16.642-9.863 0-17.738 7.877-17.738 17.6-.048 9.816 7.922 17.786 17.738 17.739 4.725 0 9.11-1.85 12.259-4.998.617-.548 1.028-1.371 1.028-2.193 0-1.574-1.37-2.944-2.946-2.944-.89 0-1.712.548-2.328 1.165-1.987 2.122-4.931 3.08-8.013 3.08-5.89 0-10.68-4.035-11.711-9.65h26.436c.02 0 .037-.006.057-.006h.08c.049-.005.098-.021.147-.03.102-.014.202-.028.3-.058 1.248-.336 2.29-1.53 2.29-3.061" fill="#004691"/></g></svg>