<svg xmlns="http://www.w3.org/2000/svg" height="149.808" width="186.266"><path d="M48.412 149.808c-20.922 0-34.267-11.754-34.267-28.089 0-5.38 1.594-11.951 7.769-25.3H0l20.12-43.033h140.05c3.187 0 5.377-2.388 5.377-5.175 0-2.792-2.19-5.183-5.378-5.183H46.815l9.962-21.315C62.952 8.566 76.3 0 90.841 0h47.615c27.49 0 47.81 18.924 47.81 43.624 0 29.288-26.894 52.796-57.97 52.796H36.26c-2.793 5.776.395 10.36 7.17 10.36h73.31c12.152 0 21.515 8.564 21.515 19.52 0 12.551-12.15 23.508-25.899 23.508z" style="fill:#da3940;fill-opacity:1"/></svg>