<svg xmlns="http://www.w3.org/2000/svg" viewBox="0 0 55.934 21.08"><path d="M55.93 13.982a7.078 7.078 0 0 1-6.991 7.092l-12.817.006v-2.437a2.331 2.331 0 0 1 2.33-2.33h10.487a2.331 2.331 0 0 0 .427-4.622l3.5-3.5a6.985 6.985 0 0 1 3.068 5.788" fill="#0372f2"/><path d="M51.497 0a2.8 2.8 0 0 1 1.981 4.782l-6.87 6.87h-6.525l6.991-6.991H34.956V0z" fill="#068ff6"/><path d="M11.86 16.402h21v4.66h-21z" fill="#ff9c00"/><path d="M32.861 6.991a7 7 0 0 1-7 6.991h-14v-2.33a2.332 2.332 0 0 1 2.333-2.33h11.667a2.33 2.33 0 1 0 0-4.661h-14V0h14a7 7 0 0 1 7 6.991" fill="#ffad00"/><path d="m3.495 9.554 4.66-2.33v13.75h-4.66z" fill="#01a063"/><path d="M8.156 0v4.661L0 8.739v-3.22a2.33 2.33 0 0 1 1.287-2.085z" fill="#02b880"/></svg>