<svg xmlns="http://www.w3.org/2000/svg" viewBox="0 0 95 95"><path fill="#50e4ea" d="M2 3h90v90H2z"/><g fill="#173647"><path d="M90 5v85H5V5h85m5-5H0v95h95z"/><path d="M69.69 60.92A5.15 5.15 0 0 0 66 62.44 5.41 5.41 0 0 0 66 70a5.46 5.46 0 0 0 7.41 0 5.25 5.25 0 0 0 0-7.51 5.06 5.06 0 0 0-3.72-1.57zM38 22.6 29.81 24v45.57l.29.09a45.9 45.9 0 0 0 12.55 1.78 18.65 18.65 0 0 0 6.87-1.19 13.9 13.9 0 0 0 5.18-3.43 14.83 14.83 0 0 0 3.3-5.37 20 20 0 0 0 1.18-7.06 22.51 22.51 0 0 0-1-6.86 15.6 15.6 0 0 0-2.74-5.43 11.7 11.7 0 0 0-4.57-3.45 14.29 14.29 0 0 0-6.11-1.26 15.36 15.36 0 0 0-3.33.38v7a10.51 10.51 0 0 1 2.12-.23c2.58 0 4.35.85 5.48 2.56a12.55 12.55 0 0 1 1.8 7.19 11.27 11.27 0 0 1-2.21 7.39 7.4 7.4 0 0 1-6 2.59c-1.16 0-2.16 0-3-.11-.67-.1-1.18-.21-1.64-.3V22.6z"/></g></svg>