<svg width="83" height="83" xmlns="http://www.w3.org/2000/svg"><defs><linearGradient y2=".915" x2=".091" y1="-.033" x1=".798" id="a"><stop stop-color="#409FF8" offset=".036"/><stop stop-color="#1673FF" offset=".5"/><stop stop-color="#516FF7" offset="1"/></linearGradient></defs><path fill="url(#a)" d="M1.524 0a.836.836 0 0 0-.699 1.291l14.88 23.291a6.686 6.686 0 0 0 5.638 3.092H41.47c7.377 0 11.989 6.523 11.962 13.826-.028 7.303-4.942 13.761-11.962 13.761H19.982a2.23 2.23 0 0 0-2.228 2.233V80.77c0 1.232.993 2.23 2.225 2.23h27.448C71.178 83 82.986 60.466 83 41.5 83.015 22.534 71.345 0 47.427 0H1.524zm9.763 55.326H5.943C2.661 55.326 0 58.422 0 62.242v20.147a.6.6 0 0 0 .6.6h5.343c3.282 0 5.943-3.096 5.943-6.916V55.925a.6.6 0 0 0-.6-.6l.001.001z" clip-rule="evenodd" fill-rule="evenodd"/></svg>