<svg viewBox="0 0 27.379 24" xmlns="http://www.w3.org/2000/svg"><path d="M13.232 24c6.39 0 11.6-5.376 11.6-12a13.849 13.849 0 0 0-.15-1.864c.017.2.034.416.034.616 0 5.792-4.56 10.502-10.17 10.502a9.91 9.91 0 0 1-6.324-2.28c-.799.665-1.348 1.181-2.98 1.714A11.534 11.534 0 0 0 13.233 24zM4.377 10.735c0-5.792 4.56-10.502 10.17-10.502.473.006.946.045 1.414.117a11.687 11.687 0 0 0-2.73-.35c-6.39 0-11.6 5.376-11.6 12 .018 1.502.277 2.99.766 4.41a10.891 10.891 0 0 1 2.63-1.897 10.138 10.138 0 0 1-.65-3.778z"/><path d="M11.201 8.788c-2.047-.716-4.011-.15-4.943.216a8.082 8.082 0 0 1 2.93 2.48C9.735 10.652 11 9.037 11.2 8.788zm4.061 5.958a7.26 7.26 0 0 0-.1-.815 19.21 19.21 0 0 1-2.197 1.315c-.116.066-.25.116-.383.183l-.649.3c-.05.016-.083.032-.133.05.034.082.067.165.117.282.033.083.066.166.1.266.033.1.066.167.1.267.05.166.116.35.182.549.034.1.067.216.1.333.034.116.05.216.084.333.153.655.237 1.324.25 1.997 0 .15-.034.316-.034.466a6.014 6.014 0 0 0 2.596-4.927v-.316a.779.779 0 0 1-.033-.283z"/><path d="M25.897 1.631c.5.044.995.127 1.482.25-2.314 5.991-6.758 9.52-10.103 11.417-.416.233-.732.4-1.115.6a28.07 28.07 0 0 0-.233-1.465.134.134 0 0 0-.084-.105.133.133 0 0 0-.133.022 21.731 21.731 0 0 1-4.96 2.829.232.232 0 0 0-.116.316c.05.117.133.266.2.4-.45.116-.949.233-1.082.266-.116-.65-.6-1.498-1.115-1.864.166-.3.516-.916.766-1.315.066-.1.116-.2.183-.3.066-.1.116-.183.183-.283a37.08 37.08 0 0 1 2.396-3.212c.066-.073.128-.151.184-.233.065-.068.127-.14.183-.216 1.864-2.18 4.16-4.394 6.507-5.642a12.724 12.724 0 0 1 4.844-1.465c-.333.616-.95 1.448-2.014 2.447a.166.166 0 0 0-.067.083.547.547 0 0 0-.067.283 1.214 1.214 0 0 0 .483.865c.4.333.849.383 1.132.133l.083-.066c1.248-1.082 2.08-2.347 2.463-3.745zm-9.82 9.836a1.065 1.065 0 1 0-1.031-1.065 1.045 1.045 0 0 0 1.032 1.065zm2.297-1.797a1.065 1.065 0 1 1 1.032-1.065 1.046 1.046 0 0 1-1.031 1.065zm2.214-1.764A1.065 1.065 0 1 1 21.62 6.84a1.055 1.055 0 0 1-1.032 1.066zm-12.932 7.04c.566.033 1.099 1.115 1.082 1.398-.017.366-.167.949-1.182 1.93l-.016.017-.017.017c-.782.749-1.88 1.248-3.013 1.581-.016 0-.016 0-.033.017H4.46a18.966 18.966 0 0 1-4.46.682 28.316 28.316 0 0 1 2.813-3.196l.033-.033c1.032-.965 1.897-1.564 2.613-1.93a.017.017 0 0 0 .017-.017c.016 0 .016-.017.033-.017 1.182-.582 1.897-.499 2.147-.45zm-.1 1.182c.104-.08.194-.175.266-.283.017-.05-.05-.1-.116-.183-.383-.483-1.664 0-2.23.35a8.694 8.694 0 0 0-2.247 2.03c0 .016-.017.016-.017.033l-.016.017-.1.15s.05-.05.133-.117l.016-.017.017-.017c.433-.399 1.581-1.414 2.43-1.664.1-.017-.516 1.531-.516 1.531s1.298-.948 1.315-.965c.216-.166.433-.333.616-.483.083-.066.166-.133.233-.183a.622.622 0 0 1 .216-.2z"/></svg>
