<svg xmlns="http://www.w3.org/2000/svg" viewBox="0 0 56 90"><path fill="#34a853" d="M27.81 0a7.9 7.9 0 0 0-6.965 4.171 7.85 7.85 0 0 0 .416 8.088l3.372-3.356a3.25 3.25 0 0 1-.166-1.038c0-1.833 1.49-3.318 3.329-3.318s3.329 1.486 3.329 3.318-1.49 3.318-3.329 3.318c-.352.001-.702-.055-1.037-.166l-3.367 3.356a7.91 7.91 0 0 0 9.205-.25 7.85 7.85 0 0 0 2.698-8.777C34.21 2.148 31.198-.004 27.81 0h0z"/><path fill="#fbbc04" d="M24.671 22.921a12.2 12.2 0 0 0-2.459-7.367l-4.375 4.357a6.24 6.24 0 0 1-1.198 7.547l2.378 5.793c3.523-2.262 5.653-6.152 5.655-10.33z"/><path fill="#ea4335" d="M12.444 29.174h-.114c-2.684 0-5.071-1.7-5.94-4.231s-.028-5.333 2.093-6.972 5.052-1.753 7.295-.284l4.332-4.319a12.37 12.37 0 0 0-14.66-.647C.952 15.741-1.04 21.336.542 26.507s6.365 8.706 11.789 8.711c.837 0 1.672-.082 2.492-.247l-2.378-5.798z"/><path fill="#4285f4" d="M27.976 34.185a28.08 28.08 0 0 0-8.085 1.18l3.467 8.443a19.17 19.17 0 0 1 4.613-.559c9.009.003 16.762 6.348 18.517 15.157S43.514 76.031 35.19 79.467s-17.923.531-22.927-6.936-4.021-17.419 2.35-23.769c1.329-1.321 2.847-2.439 4.504-3.318l-3.429-8.419C2.906 43.264-3.145 58.069 1.622 71.436s18.836 21.042 32.7 17.839 23.112-16.264 21.495-30.359S42.232 34.179 28 34.18l-.024.005z"/></svg>