<svg xmlns="http://www.w3.org/2000/svg" viewBox="0 0 32 32"><path d="M18.037.132C9.272-.994 1.257 5.2.132 13.963-.992 22.727 5.2 30.743 13.964 31.866c8.763 1.126 16.78-5.065 17.904-13.83C32.994 9.273 26.8 1.256 18.037.132" fill="#F26B3A"/><path d="M6.228 27.196a.63.63 0 0 1-.585-.391.63.63 0 0 1 .137-.69l1.558-1.55a.494.494 0 0 1 .291-.14.492.492 0 0 1 .121-.228l4.957-5.346a.498.498 0 0 1 .198-.131.64.64 0 0 1 .127-.706l.593-.612-2.62.565a.64.64 0 0 1-.621-1.041l1.62-1.906a.5.5 0 0 1 .212-.146.504.504 0 0 1 .132-.233c4.544-4.545 6.357-5.93 7.76-5.93.078 0 .156.005.231.014a3.06 3.06 0 0 1-.097-1.177 3.077 3.077 0 0 1 3.404-2.725 3.066 3.066 0 0 1 1.561.636.502.502 0 0 1 .19.374v.009a.488.488 0 0 1 .188.116c.516.509.814 1.215.82 1.937l-.003.143-.013.176-.023.159-.029.146-.04.156-.048.147-.059.154-.07.158-.072.132-.495-.148.425.263a2.035 2.035 0 0 1-.055.085l-.085.117a2.85 2.85 0 0 1-.355.38l-.108.09a2.74 2.74 0 0 1-.303.212.57.57 0 0 1-.266.079.499.499 0 0 1-.298.38 3.058 3.058 0 0 1-2.17.09c.015.29-.043.632-.233 1.022a.492.492 0 0 1 .296.569c-.1.416-.217.71-.217.71-.016.065-.81 2.814-5.056 6.354a.496.496 0 0 1-.17.093.49.49 0 0 1-.163.258c-.33.276-.68.582-1.049.903-1.414 1.236-3.16 2.762-5.34 3.937l.363 1.552a.628.628 0 0 1-.12.537.64.64 0 0 1-.498.24.66.66 0 0 1-.237-.057.498.498 0 0 1-.432.25l-3.254.014" fill="#FFF"/><path d="M23.305 4.303a3.58 3.58 0 0 0-3.565 3.933c-1.507.203-3.393 1.698-7.746 6.051a1.004 1.004 0 0 0-.17.23.998.998 0 0 0-.2.18l-1.622 1.906a1.143 1.143 0 0 0-.167 1.216 1.145 1.145 0 0 0 1.275.635l1.274-.274a1.182 1.182 0 0 0-.034.32.11.11 0 0 1-.01.01l-4.957 5.346a1.012 1.012 0 0 0-.12.16.973.973 0 0 0-.278.195l-1.557 1.55a1.131 1.131 0 0 0 .8 1.935l3.256-.013a.998.998 0 0 0 .591-.196c.025.002.051.002.076.002a1.13 1.13 0 0 0 1.105-1.39l-.278-1.185c2.072-1.17 3.736-2.626 5.097-3.814.365-.318.712-.622 1.041-.897.093-.078.17-.17.23-.275a.933.933 0 0 0 .102-.075c4.08-3.4 5.076-6.152 5.216-6.597a6.48 6.48 0 0 0 .223-.733 1.003 1.003 0 0 0-.177-.844c.028-.083.051-.165.07-.248.043.007.087.012.13.017a3.577 3.577 0 0 0 1.794-.263.999.999 0 0 0 .466-.406c.034-.015.067-.032.1-.05l.06-.035a3.52 3.52 0 0 0 .47-.343 3.31 3.31 0 0 0 .417-.443l.087-.116.033-.047.061-.092.038-.062.048-.08.05-.093.026-.05a2.96 2.96 0 0 0 .143-.33c.003-.007.016-.044.02-.05l.038-.12.02-.064.03-.115.012-.053.027-.133.01-.05a3.622 3.622 0 0 0 .04-.36 3.278 3.278 0 0 0-.964-2.491 1.069 1.069 0 0 0-.096-.084.995.995 0 0 0-.325-.452 3.572 3.572 0 0 0-2.21-.763M7.69 24.92l1.79 1.763-3.252.013a.133.133 0 0 1-.094-.227L7.69 24.92m8.06-6.21.724.726c-.334.28-.686.587-1.057.911-1.446 1.264-3.247 2.836-5.486 3.998a.146.146 0 0 0-.075.162l.426 1.818a.134.134 0 0 1-.13.164.13.13 0 0 1-.093-.039l-1.942-1.914 4.956-5.345 2.676-.48m-1.367-1.37.938.938-1.805.32a.109.109 0 0 1-.026.003c-.119 0-.188-.149-.1-.239l.993-1.023m-1.997-1.996 1.493 1.492-2.979.641a.154.154 0 0 1-.03.004c-.114 0-.185-.137-.106-.23l1.622-1.907m9.53-3.058c-.092.378-.197.646-.197.646s-.736 2.673-4.91 6.152c-.003-.003-.004-.008-.008-.01l-.69-.685s5.565-5.71 5.805-6.103M21.5 10.09c.576.575.461 1.468-.604 2.533l-5.23 5.31-.962-.952 6.796-6.89m-1.393-.88c.367 0 .672.14.941.41l.01.005-6.82 6.88-1.537-1.512c4.041-4.04 6.113-5.784 7.406-5.784m4.944-.387a.226.226 0 0 0 .171-.07c.496-.57.128-1.277.113-1.306-.033-.062-.11-.099-.19-.099a.264.264 0 0 0-.078.012c-.105.033-.156.125-.113.205.003.006.3.583-.074 1.013-.063.073-.037.17.058.218a.244.244 0 0 0 .113.027m.183-2.509c.426.42.666.992.671 1.585v.01c0 .036 0 .072-.003.108v.02a1.773 1.773 0 0 1-.029.25l-.006.036a12.56 12.56 0 0 1-.018.086l-.01.041a1.962 1.962 0 0 1-.022.082l-.012.041-.026.081-.014.037c-.01.03-.022.058-.034.087a2.127 2.127 0 0 1-.083.175c-.01.023-.023.044-.035.066a.764.764 0 0 1-.032.054l-.028.044a1.281 1.281 0 0 1-.063.094 1.59 1.59 0 0 1-.06.081 2.244 2.244 0 0 1-.279.297l-.012.01a1.071 1.071 0 0 1-.073.061l-.012.011c-.077.06-.156.115-.239.165l-.022.014-.02.011-1.578-1.667 2.04-1.88m-1.93-1.01a2.554 2.554 0 0 1 1.592.549l-2.433 2.242a.142.142 0 0 0-.047.102.145.145 0 0 0 .04.105l1.855 1.962a2.556 2.556 0 0 1-1.29.19 2.587 2.587 0 0 1-2.283-2.852 2.588 2.588 0 0 1 2.566-2.299" fill="#F26B3A"/></svg>