<svg xmlns="http://www.w3.org/2000/svg" width="55" height="55"><path d="M31.2 50.5v-2.1c0-.5.2-.9.6-1.1L44 40.1c.3-.2.5-.5.5-.8v-4c0-.6-.3-1.1-.8-1.4-.2-.1-.5-.2-.7-.2-.3 0-.5.1-.8.2l-12.6 7.4c-.8.5-1.3 1.4-1.3 2.3V55C43.1 54.6 55 42.4 55 27.5 55 12.3 42.7 0 27.5 0S0 12.3 0 27.5C0 42.4 11.9 54.6 26.7 55V43.6c0-1-.5-1.8-1.3-2.3l-12.6-7.4c-.2-.1-.5-.2-.8-.2-.2 0-.5.1-.7.2-.5.3-.8.8-.8 1.4v4c0 .3.2.7.5.8l12.2 7.2c.4.2.6.7.6 1.1v2.1c0 .8-.8 1.4-1.6 1.3C11.1 49.3 2.7 39.4 2.7 27.5c0-13.7 11.1-24.8 24.8-24.8 13.7 0 24.8 11.1 24.8 24.8 0 11.9-8.4 21.8-19.5 24.2-.9.2-1.6-.4-1.6-1.2M33 9.4c0-.2-.1-.3-.2-.4L28 6.2c-.2-.1-.3-.1-.5-.1s-.3 0-.5.1L22.2 9c-.1.1-.2.2-.2.4s.1.3.2.4l4.8 2.8c.3.2.7.2 1 0l4.9-2.8c0-.1.1-.2.1-.4m-4.7 24.9V40l19.3-11.4c.3-.2.5-.5.5-.8v-4c0-.6-.3-1-.8-1.3-.2-.2-.5-.2-.7-.2-.3 0-.5.1-.8.2L29.6 32c-.8.5-1.3 1.4-1.3 2.3m0-18.4v5.7l9.3-5.4c.3-.2.5-.5.5-.8v-4c0-.6-.3-1-.8-1.3-.2-.1-.5-.2-.8-.2-.3 0-.5.1-.8.2l-6.1 3.6c-.8.3-1.3 1.2-1.3 2.2m0 9.2v5.7L44 21.6c.3-.2.5-.5.5-.8v-4c0-.6-.3-1-.8-1.3-.2-.1-.5-.2-.8-.2-.3 0-.5.1-.8.2l-12.6 7.4c-.7.4-1.2 1.3-1.2 2.2m-3 6.9L9.1 22.5c-.2-.2-.4-.2-.7-.2-.3 0-.5.1-.8.2-.5.3-.8.8-.8 1.3v4c0 .3.2.7.5.8L26.6 40v-5.7c.1-.9-.4-1.8-1.3-2.3m0-18.5l-6.1-3.6c-.2-.1-.5-.2-.8-.2-.3 0-.5.1-.8.2-.5.3-.8.8-.8 1.3v4c0 .3.2.7.5.8l9.3 5.4v-5.7c.1-.8-.4-1.7-1.3-2.2m0 9.3l-12.6-7.4c-.2-.1-.5-.2-.8-.2-.3 0-.5.1-.8.2-.5.3-.8.8-.8 1.3v4c0 .3.2.7.5.8l15.7 9.3v-5.7c.2-.9-.3-1.8-1.2-2.3" fill="#008b93" fill-opacity="1"/></svg>
