<svg xmlns="http://www.w3.org/2000/svg" viewBox="0 0 92.8 108.4" fill="#1E8BC1"><path d="M74.1 99c0 3.1-2.5 5.5-5.5 5.5H5.5c-3 0-5.5-2.5-5.5-5.5V13.7c0-3.1 2.5-5.5 5.5-5.5h63.1c3.1 0 5.5 2.5 5.5 5.5V99zm-6-81.1c0-2.6-.1-2.7-2.7-2.7H8.7c-2.6 0-2.7.1-2.7 2.7v76.6c0 2.6.1 2.7 2.7 2.7h56.7c2.6 0 2.7-.1 2.7-2.7V17.9z"/><path d="M12.8 18.6v-6.9l10-1.6L29.5 0h14.8L51 10.1l9.9 1.6v6.9zM32.6 36.1 21.1 47.6l-4.5-4.5-3.5 3.5 8 8 15-15-3.5-3.5zM45.2 33.6c-.4.2-.7.6-.7 1.1l.3 61.7c0 .5.3.9.7 1.1.4.2.9.1 1.3-.3l12.6-13.3L70 107.5c.4.8 1.4 1.2 2.2.8l11-5c.8-.4 1.2-1.4.8-2.2L73.4 77.5l18.3-.6c.5 0 .9-.3 1-.8.2-.4 0-.9-.3-1.3l-46-41.1c-.3-.2-.8-.3-1.2-.1zM32.6 60.1 21.1 71.6l-4.5-4.5-3.5 3.5 8 8 15-15-3.5-3.5zm0 0"/></svg>