<svg xmlns="http://www.w3.org/2000/svg" viewBox="0 0 82 90"><path d="M6.286 77.368c1.76 0 3.253.615 4.485 1.848 1.231 1.233 1.844 2.713 1.844 4.445 0 1.761-.613 3.258-1.844 4.49C9.539 89.383 8.046 90 6.286 90c-1.73 0-3.209-.617-4.44-1.85C.618 86.92 0 85.423 0 83.66c0-1.73.618-3.21 1.846-4.444 1.231-1.233 2.71-1.848 4.44-1.848zm69.385 0c1.76 0 3.253.615 4.484 1.848C81.387 80.45 82 81.93 82 83.661c0 1.761-.613 3.258-1.845 4.49C78.924 89.383 77.431 90 75.671 90c-1.73 0-3.21-.617-4.44-1.85-1.229-1.23-1.846-2.728-1.846-4.49 0-1.73.617-3.21 1.846-4.444 1.23-1.233 2.71-1.848 4.44-1.848zm-6.286 5.527v1.579h-56.77v-1.58h56.77zm-32.318-60.79c2.924 0 5.669.562 8.235 1.685 2.565 1.124 4.937 2.808 7.118 5.055V23.38h12.234v49.554H52.419v-5.237c-2.39 2.308-4.784 3.97-7.185 4.986-2.4 1.017-5.006 1.528-7.81 1.528-6.298 0-11.744-2.484-16.338-7.447-4.595-4.965-6.894-11.138-6.894-18.516 0-7.65 2.225-13.92 6.672-18.811 4.447-4.888 9.844-7.332 16.203-7.332zm2.492 11.478c-3.78 0-6.925 1.36-9.425 4.077-2.5 2.717-3.751 6.2-3.751 10.453 0 4.282 1.273 7.803 3.819 10.567 2.545 2.763 5.677 4.145 9.4 4.145 3.844 0 7.027-1.359 9.556-4.076 2.533-2.718 3.8-6.279 3.8-10.682 0-4.31-1.267-7.803-3.8-10.476-2.53-2.671-5.728-4.008-9.6-4.008zM39.402 0c1.76 0 3.253.615 4.484 1.848 1.232 1.233 1.845 2.713 1.845 4.444 0 1.762-.613 3.259-1.845 4.49-1.231 1.233-2.724 1.85-4.484 1.85-1.73 0-3.21-.617-4.44-1.85-1.229-1.231-1.847-2.728-1.847-4.49 0-1.73.618-3.211 1.847-4.444C36.192.615 37.672 0 39.402 0z"/></svg>