<svg xmlns="http://www.w3.org/2000/svg" viewBox="0 0 30 28"><path d="m27.636 8.939 1.857 3.08a4.384 4.384 0 0 1 0 4.094l-5.632 9.646c-0.731 1.381-2.141 2.241-3.674 2.241h-10.4c-1.533 0-2.943-0.86-3.675-2.241l-1.944-3.29 7.673-7.119 5.559 3.223c0.581 0.398 1.36 0.292 1.82-0.248zm-16.738 0.785-8.41 9.464-1.98-3.032a4.369 4.369 0 0 1 0-4.088l5.94-9.83a4.172 4.172 0 0 1 3.677-2.238h10.01c1.535 0 2.946 0.859 3.678 2.238l2.02 3.402-7.521 6.99-5.54-3.217a1.373 1.373 0 0 0-1.874 0.31z" fill="#5386ff" fill-rule="evenodd"/></svg>