<svg xmlns="http://www.w3.org/2000/svg" viewBox="0 0 90 90"  fill-rule="evenodd"><path fill="#f04444" d="M0 0h90v90H0z"/><path fill="#fff" fill-rule="nonzero" d="M34.606 15.271c.378.607.5 1.34.337 2.037s-.595 1.3-1.203 1.677c-13.263 8.271-17.328 25.718-9.086 39 3.951 6.391 10.295 10.936 17.618 12.62a28.13 28.13 0 0 0 21.381-3.534 2.7 2.7 0 0 1 3.712.866 2.7 2.7 0 0 1-.864 3.714 33.49 33.49 0 0 1-17.74 5.096c-2.597-.002-5.185-.301-7.713-.892a33.49 33.49 0 0 1-20.972-15.024c-9.811-15.811-4.972-36.58 10.817-46.426a2.7 2.7 0 0 1 3.713.866zm37.699 47.146c1.56 0 2.824 1.264 2.824 2.824s-1.264 2.824-2.824 2.824-2.824-1.264-2.824-2.824 1.264-2.824 2.824-2.824z"/></svg>