<svg xmlns="http://www.w3.org/2000/svg" width="173.263" height="173.263"><defs><clipPath clipPathUnits="userSpaceOnUse" id="a"><path d="M201.673 370l-41.35-23.873a17.23 17.23 0 01-8.614-14.92v-47.745a17.23 17.23 0 018.614-14.92l41.35-23.873a17.213 17.213 0 018.571-2.308h.085c2.96.007 5.919.777 8.572 2.308l41.348 23.873a17.23 17.23 0 018.614 14.92v47.745a17.23 17.23 0 01-8.614 14.92L218.901 370a17.218 17.218 0 01-8.614 2.308c-2.975 0-5.949-.769-8.614-2.308"/></clipPath><clipPath clipPathUnits="userSpaceOnUse" id="c"><path d="M151.681 242.361h117.212v129.947H151.681z"/></clipPath><clipPath clipPathUnits="userSpaceOnUse" id="d"><path d="M151.71 372.308h58.576v-97.46H151.71z"/></clipPath><clipPath clipPathUnits="userSpaceOnUse" id="e"><path d="M151.709 274.847h58.577v97.461h-58.577z"/></clipPath><clipPath clipPathUnits="userSpaceOnUse" id="f"><path d="M154.018 274.847a17.22 17.22 0 016.305-6.305l41.35-23.873a17.213 17.213 0 018.571-2.308h.085c2.96.007 5.919.777 8.572 2.308l41.348 23.873a17.224 17.224 0 016.306 6.305l-56.268 32.488z"/></clipPath><clipPath clipPathUnits="userSpaceOnUse" id="h"><path d="M151.681 242.361h117.212v129.947H151.681z"/></clipPath><linearGradient x1="0" y1="0" x2="1" y2="0" gradientUnits="userSpaceOnUse" gradientTransform="matrix(-117.15361 0 0 117.15361 268.863 307.335)" spreadMethod="pad" id="b"><stop offset="0" stop-color="#1d9ad6"/><stop offset=".166" stop-color="#1d9ad6"/><stop offset="1" stop-color="#2e4797"/></linearGradient><linearGradient x1="0" y1="0" x2="1" y2="0" gradientUnits="userSpaceOnUse" gradientTransform="matrix(112.53746 0 0 -112.53746 154.018 274.848)" spreadMethod="pad" id="g"><stop offset="0" stop-color="#375cb3"/><stop offset="1" stop-color="#15bedf"/></linearGradient></defs><g clip-path="url(#a)" transform="matrix(1.33333 0 0 -1.33333 -193.75 496.41)"><path d="M201.673 370l-41.35-23.873a17.23 17.23 0 01-8.614-14.92v-47.745a17.23 17.23 0 018.614-14.92l41.35-23.873a17.213 17.213 0 018.571-2.308h.085c2.96.007 5.919.777 8.572 2.308l41.348 23.873a17.23 17.23 0 018.614 14.92v47.745a17.23 17.23 0 01-8.614 14.92L218.901 370a17.218 17.218 0 01-8.614 2.308c-2.975 0-5.949-.769-8.614-2.308" fill="url(#b)"/></g><g clip-path="url(#c)" transform="matrix(1.33333 0 0 -1.33333 -193.75 496.41)"><g clip-path="url(#d)"><g clip-path="url(#e)" opacity=".25"><path d="M160.324 346.127a17.23 17.23 0 01-8.614-14.92v-47.746c0-3.077.82-6.038 2.308-8.613l56.269 32.486v64.974c-2.974 0-5.95-.769-8.614-2.308z" fill="#7540ab"/></g></g></g><g clip-path="url(#f)" transform="matrix(1.33333 0 0 -1.33333 -193.75 496.41)"><path d="M154.018 274.847a17.22 17.22 0 016.305-6.305l41.35-23.873a17.213 17.213 0 018.571-2.308h.085c2.96.007 5.919.777 8.572 2.308l41.348 23.873a17.224 17.224 0 016.306 6.305l-56.268 32.488z" fill="url(#g)"/></g><g clip-path="url(#h)" transform="matrix(1.33333 0 0 -1.33333 -193.75 496.41)"><path d="M209.7 341.265h5.455c.808 0 1.463-.655 1.463-1.462V281.55a6.384 6.384 0 00-6.384-6.383h-4.92c-.808 0-1.463.654-1.463 1.462v58.788a5.85 5.85 0 005.849 5.85M231.934 325.227h5.455c.808 0 1.463-.655 1.463-1.462v-42.216a6.384 6.384 0 00-6.384-6.383h-4.92c-.808 0-1.463.655-1.463 1.462v42.75a5.85 5.85 0 005.849 5.849M187.57 302.943h5.455c.808 0 1.463-.655 1.463-1.462v-20.037a6.384 6.384 0 00-6.384-6.383h-4.92c-.808 0-1.463.655-1.463 1.462v20.571a5.85 5.85 0 005.85 5.85" fill="#fff"/></g></svg>