<svg xmlns="http://www.w3.org/2000/svg" viewBox="0 0 67 90"><path fill="#888" d="M44.475 30.658h9.857a1.41 1.41 0 0 1 1.404 1.412c0 .339-.121.666-.341.923L36.876 54.555a1.42 1.42 0 0 0 .145 1.992 1.4 1.4 0 0 0 .918.343h7.111a1.41 1.41 0 0 1 1.404 1.412c0 .458-.221.887-.592 1.152L3.189 89.888a.6.6 0 0 1-.839-.143.61.61 0 0 1-.05-.615l11.714-24.165c.34-.701.05-1.546-.647-1.888a1.4 1.4 0 0 0-.615-.143H1.003C.449 62.934 0 62.482 0 61.925c0-.194.056-.383.16-.546L15.859 36.88c.42-.656.232-1.529-.42-1.952a1.4 1.4 0 0 0-.761-.225H4.512c-.554 0-1.003-.452-1.003-1.009 0-.173.044-.344.129-.495L21.08 2.055A4.01 4.01 0 0 1 24.577 0h41.019A1.41 1.41 0 0 1 67 1.412c0 .349-.128.685-.36.944L43.431 28.302a1.42 1.42 0 0 0 .105 1.994 1.4 1.4 0 0 0 .939.362z"/></svg>