<svg xmlns="http://www.w3.org/2000/svg" viewBox="0 0 160 160"><path d="M53.344 4.556v29.275c-15.93 9.222-26.656 26.453-26.656 46.17 0 29.423 23.888 53.311 53.312 53.311s53.312-23.888 53.312-53.311c0-19.717-10.726-36.948-26.656-46.17V4.556c31.065 10.989 53.343 40.636 53.343 75.445C159.999 124.153 124.153 160 80 160S0 124.153 0 80.001C0 45.192 22.28 15.545 53.344 4.556z" fill="#ccc"/><path d="M66.672 1.108C71.007.38 75.459 0 80 0s8.993.38 13.328 1.108v27.263c-4.26-1.098-8.727-1.682-13.328-1.682s-9.068.584-13.328 1.682zM66.672 104.44V42.299c4.17-1.477 8.656-2.279 13.328-2.279s9.158.802 13.328 2.279v62.141c-4.17 1.476-8.656 2.279-13.328 2.279s-9.158-.803-13.328-2.279z" fill="#2f8cbb"/></svg>