<svg xmlns="http://www.w3.org/2000/svg" height="50" width="50" style="background:#006be5;fill:#fff"><path d="M35.8,29.7c-0.4,0-0.6-0.1-0.7-0.2s-0.2-0.3-0.2-0.7c0-0.3,0.1-0.7,0.2-1.3L36,23l0.2-0.7c0.1-0.4,0.1-0.7,0.2-1.1c0-0.3,0.1-0.6,0.1-1c0-1.1-0.3-1.9-0.9-2.4c-0.7-0.5-1.4-0.8-2.3-0.8s-1.7,0.2-2.4,0.5c-0.8,0.3-1.6,0.9-2.4,1.8c-0.1-0.8-0.4-1.4-0.9-1.7c-0.6-0.4-1.2-0.6-2-0.6c-1.7,0-3.3,0.7-4.8,2.2c-0.1-0.5-0.4-1-0.8-1.3c-0.7-0.6-1.6-0.9-2.8-0.9c-0.9,0-1.7,0.2-2.4,0.6c-0.4,0.1-0.7,0.3-1,0.5L13,21.7l0.2-0.2c0.2-0.3,0.5-0.5,0.8-0.8c0.3-0.2,0.6-0.4,0.9-0.5c0.3-0.1,0.7-0.2,1-0.2c0.2,0,0.4,0.1,0.6,0.3c0.2,0.2,0.3,0.5,0.3,0.9c0,0.2,0,0.5-0.1,0.9v0.2l-2.2,10.3h3.9l2.1-10c0.5-0.8,1.1-1.3,1.6-1.7c0.5-0.4,1.1-0.6,1.6-0.6c0.3,0,0.6,0.1,0.7,0.2c0.1,0.1,0.2,0.3,0.2,0.6c0,0.4-0.1,0.9-0.2,1.5l-2.1,10H26l2.1-10c0.4-0.7,1-1.3,1.5-1.7c0.6-0.4,1.1-0.6,1.6-0.6c0.4,0,0.6,0.1,0.7,0.2c0.1,0.1,0.2,0.3,0.2,0.7c0,0.3-0.1,0.7-0.2,1.3l-0.4,2.2l-0.7,3.1c-0.1,0.4-0.1,0.7-0.2,1.1c0,0.3-0.1,0.6-0.1,1c0,1.1,0.3,1.9,0.9,2.4s1.3,0.7,2.2,0.7s1.7-0.2,2.4-0.5h0.1l0.7-3.1C36.7,29.5,36.2,29.7,35.8,29.7z"/></svg>