<svg xmlns="http://www.w3.org/2000/svg" viewBox="0 0 90 40"><path fill="#C5D1CF" d="M67.933 3.882C58.93 1.475 47.784.052 35.715.052c-3.363 0-6.654.11-9.848.322 15.856.43 29.805 3.321 38.92 7.617a106.42 106.42 0 0 1 3.146-4.109M89.859 19.57c0 10.781-24.241 19.52-54.144 19.52-1.383 0-2.754-.019-4.11-.056 25.2-1.67 44.294-9.628 44.294-19.196 0-1.921-.77-3.777-2.205-5.531 1.532-2.41 2.979-4.768 4.313-6.923 7.415 3.34 11.852 7.576 11.852 12.186"/><path fill="#EE3524" d="M11.734 8.973c.168-1.085.292-1.377 1.998-1.377 1.207 0 1.58.835 1.58 2.13 0 3.505-1.455 4.925-3.369 4.925-.75 0-.957-.25-.957-.794 0-.166.042-.375.083-.626l.665-4.258zm-1.79 12.232c.127-.667.293-.918.958-.918.75 0 .916.25 1.332 1.836l1.747 6.721c.167.75.958 1.253 3.12 1.253 1.666 0 5.743-.377 5.743-2.964 0-.377-.124-.794-.207-1.128l-2.58-6.971c-.208-.543-.334-1.085-.334-1.545 0-.71.417-1.169 1.29-1.795 2.58-1.878 3.496-4.132 3.496-6.846 0-5.677-3.786-7.305-8.904-7.305h-4.993c-5.035 0-6.576 1.169-6.868 3.172L.083 28.051c-.042.25-.083.5-.083.668 0 1.168 1.79 1.378 4.078 1.378 2.414 0 4.493-.251 4.702-1.587l1.165-7.305zm26.863-8.433c1.206 0 1.789.501 1.789 1.628 0 1.503-.5 2.421-1.914 2.421h-1.665c-.582 0-.916-.166-.916-.625 0-.835.25-1.754.625-2.339.458-.709 1.082-1.085 2.081-1.085zm2.413 8.224c5.451-.418 6.99-2.17 6.99-7.264 0-4.425-2.995-6.553-9.07-6.553-3.746 0-6.617.918-8.656 3.13-2.746 2.964-3.578 8.516-3.578 12.106 0 5.428 3.453 7.931 10.236 7.931 3.662 0 5.992-.417 6.991-1.126.832-.584 1.58-1.795 1.58-4.216 0-1.504-1.122-1.754-1.871-1.587-.999.208-2.747.501-4.952.501-2.58 0-3.454-.418-3.454-1.378 0-.417.041-.668.166-.835.167-.208.458-.333 1-.375l4.618-.334zm37.478-14.19c-2.23 3.456-5.098 8.385-8.26 12.9a74.202 74.202 0 0 1-2.667 3.588c-5.169 6.493-5.13 6.955-12.137 7.01-8.421.064-5.801-5.195-5.491-9.589.207-2.938 1.166-5.883 1.46-7.953.314-2.198 1.104-4.972 4.911-4.681 1.07.081 4.314 1.29 3.891 3.254-.833 3.884-1.605 11.054-1.688 11.185 0 0 8.581-13.446 12.37-17.247 1.808-1.814 11.66-4.745 7.611 1.533z"/></svg>