<svg xmlns="http://www.w3.org/2000/svg" viewBox="0 0 90 54"><path fill="#ff642d" d="M77.624 26.66c0 1.666-.85 1.938-2.958 1.938-2.244 0-2.652-.374-2.89-2.074-.442-4.319-3.366-7.991-8.262-8.399-1.564-.136-1.938-.714-1.938-2.652 0-1.802.272-2.652 1.666-2.652 8.5.034 14.382 6.869 14.382 13.84zm12.376 0C90 13.704 81.228 0 60.963 0H20.706c-.816 0-1.326.408-1.326 1.156 0 .408.306.782.578.986 1.462 1.156 3.638 2.448 6.494 3.877 2.788 1.394 4.964 2.312 7.14 3.196.918.374 1.258.782 1.258 1.292 0 .714-.51 1.156-1.496 1.156H1.394c-.952 0-1.394.612-1.394 1.224 0 .51.17.952.612 1.394 2.584 2.72 6.732 5.985 12.75 9.759 5.27 3.298 11.798 6.869 17 9.351.884.408 1.156.884 1.156 1.394-.034.578-.476 1.054-1.496 1.054H15.368c-.816 0-1.292.442-1.292 1.122 0 .374.306.85.714 1.224 3.332 3.026 8.67 6.325 15.776 9.351C40.053 51.586 49.675 54 60.487 54 80.99 54 90 38.664 90 26.66zM63.241 45.057c-10.064 0-18.462-8.195-18.462-18.397 0-10.065 8.398-18.125 18.462-18.125 10.336 0 18.394 8.059 18.394 18.125-.034 10.202-8.092 18.397-18.394 18.397z"/></svg>