<?xml version="1.0" encoding="UTF-8"?>
<svg width="369" height="369" version="1.1" viewBox="0 0 369 369" xmlns="http://www.w3.org/2000/svg"><g transform="matrix(1.25 0 0 1.25 -5.54e-6 69.2)" stroke="#000" stroke-linecap="square" stroke-linejoin="bevel" stroke-opacity="0" stroke-width="0"><path transform="scale(.72)" d="m356 256 54.4-256h-356l-54.3 256z" fill="#fff"/><g fill="#336"><path transform="matrix(.72 0 0 .72 28.8 6.48)" d="m21.7 1.1s198 40.6 202 41.3c45.4 8 44 16.8 44 16.8 31.8-0.2 35.8 1.1 41.3 5.8 16.7 14-10.5 55.2-10.5 55.2-3.9 2.9-298 116-298 116h308l50.3-237h-336v1.1"/><path transform="matrix(.72 0 0 .72 190 58)" d="m28.4 6.2c-4.5 2.2-16.1 3.4-21.6 3.9-5.3 0.4-6.7 1-6.8 3-0.1 1.8 0.8 2.8 8.3 2.8 17.3 0 48.4-6.5 57.8-3.5 5 1.6 1 10.4-3.1 22-1.6 4.5 1.5 4.2 3.3 2.2s9.9-16.7 10.8-24.3c1.2-10.7-7.9-12.3-20.6-12.3h-20.1c-1.1 0-1.9 0.7-3.2 2.4-1 1.4-1.9 2.3-4.8 3.8"/><path transform="matrix(.72 0 0 .72 8.42 45.8)" d="m38.6 0.127-38.6 182s118-58.1 133-65.5c29.7-15.2 70.7-35.4 109-48.3 7.2-2.5 38.2-12 56.2-15.2 7-1.3 9.9-2.4 9.9-3.8-0.3-3.7-7.3-4-19.2-3.4-36.3 1.7-106 29.4-126 39.9l-22.6-70h144c6.5-18.2-85.5-15.6-88.3-15.8h-157v0.1"/></g></g></svg>
