<svg xmlns="http://www.w3.org/2000/svg" width="450" height="164"><path d="M58.188 67.353c3.887-.298 7.518-1.159 10.879-2.584 3.367-1.425 6.135-3.492 8.302-6.19q3.25-4.06 3.251-10.812c0-6.755-2.236-11.93-6.717-15.539-4.475-3.603-9.625-5.404-15.441-5.404-8.063 0-14.15 2.659-18.249 7.971-4.111 5.312-6.085 12.016-5.935 20.091H3.904c.302-8.075 1.762-15.449 4.374-22.102q3.927-9.971 11.007-17.116c4.711-4.762 10.365-8.437 16.948-11.047C42.816 2.015 50.154.712 58.236.712c6.284 0 12.571.939 18.856 2.809 6.29 1.873 11.935 4.682 16.954 8.425 5.016 3.743 9.093 8.305 12.234 13.701 3.141 5.39 4.72 11.601 4.72 18.633 0 7.639-1.83 14.377-5.479 20.217q-5.474 8.76-16.413 11.899v.452c8.646 1.947 15.425 6.14 20.351 12.58q7.378 9.663 7.377 23.133 0 12.357-4.83 22.019c-3.224 6.444-7.526 11.828-12.918 16.177-5.388 4.338-11.607 7.636-18.65 9.877-7.04 2.238-14.38 3.366-22.011 3.366-8.84 0-16.885-1.275-24.156-3.817-7.263-2.558-13.445-6.267-18.536-11.149-5.095-4.876-9.022-10.83-11.792-17.872-2.776-7.039-4.084-15.118-3.931-24.245h30.373q.219 6.287 2.027 12.007c1.2 3.816 2.929 7.111 5.18 9.877s5.06 4.981 8.44 6.627q5.065 2.46 12.04 2.461c7.203 0 13.285-2.198 18.235-6.601q7.431-6.607 7.43-18.028-.002-8.967-3.576-13.668c-2.389-3.139-5.371-5.41-8.963-6.836q-5.388-2.125-11.78-2.459a231 231 0 0 0-12.219-.342V67.353q5.154.449 10.989 0" style="fill:#1e76c0"/><path d="M209.286 21.09c17.763 0 35.356 7.192 48.265 19.734l3.445 3.343V17.189l-.863-.606C245.37 6.222 229.09 1.188 210.363 1.188c-47.927 0-86.92 36.714-86.92 81.84 0 44.459 38.993 80.627 86.92 80.627 17.492 0 35.154-5.462 49.747-15.374l.886-.607V120.78l-3.421 3.215c-13.354 12.556-30.801 19.757-47.856 19.757-34.73 0-64.07-28.086-64.07-61.332 0-33.243 29.14-61.33 63.637-61.33" style="fill:#706d6e"/><path d="M261.273 51.636v62.703l27.412-32.657z" style="fill:#1e76c0"/><path d="m427.259 162.582-64.496-78.83 64.484-78.62H393.04L345.742 62.94 298.447 5.13h-34.203l64.485 78.622-64.5 78.829h33.87l47.643-58.078 47.65 58.078z" style="fill:#706d6e"/><path d="M440.106 152.654c1.197 0 3.299.226 3.299-1.312 0-.994-1.311-1.174-2.35-1.174h-2.575v2.486zm4.519 5.812h-1.626l-2.893-4.456h-1.626v4.456h-1.356v-9.655h4.203c1.739 0 3.432.474 3.432 2.554 0 1.898-1.333 2.602-3.05 2.645zm3.298-4.772c0-4.16-3.457-7.462-7.502-7.462-4.043 0-7.5 3.302-7.5 7.462s3.457 7.462 7.5 7.462c4.045 0 7.502-3.302 7.502-7.462m-16.357 0c0-4.905 3.909-8.818 8.855-8.818 4.95 0 8.857 3.913 8.857 8.818s-3.907 8.818-8.857 8.818c-4.946 0-8.855-3.913-8.855-8.818" style="fill:#5b6065"/></svg>