<svg version="1.1" id="Layer_1" xmlns="http://www.w3.org/2000/svg" xmlns:xlink="http://www.w3.org/1999/xlink" x="0px" y="0px"
	 width="100%" viewBox="0 0 180 180" enable-background="new 0 0 180 180" xml:space="preserve">
<path fill="#FFFDFD" opacity="1.000000" stroke="none" 
	d="
M97.000000,181.000000 
	C64.688789,181.000000 32.877575,181.000000 1.033180,181.000000 
	C1.033180,121.063828 1.033180,61.127632 1.033180,1.095719 
	C60.894360,1.095719 120.788925,1.095719 180.841736,1.095719 
	C180.841736,60.999668 180.841736,120.999794 180.841736,181.000000 
	C153.127960,181.000000 125.313980,181.000000 97.000000,181.000000 
M80.500053,17.763012 
	C60.945156,17.763012 41.390259,17.763012 22.361626,17.763012 
	C45.570999,41.085098 68.737396,64.363998 91.322891,87.059174 
	C114.113808,64.171036 137.182236,41.004204 160.324799,17.762922 
	C134.306473,17.762922 107.903267,17.762922 80.500053,17.763012 
M162.482788,142.495972 
	C162.482788,122.726555 162.482788,102.957138 162.482788,82.487526 
	C158.193863,85.183685 154.601151,87.442192 151.008423,89.700699 
	C150.728577,89.224144 150.448730,88.747589 150.168884,88.271034 
	C152.926865,85.899094 155.552704,83.346764 158.478149,81.203384 
	C161.730942,78.820145 163.621994,76.190140 161.852051,71.670067 
	C152.604568,77.539619 144.755142,85.240616 134.924347,89.915016 
	C142.905640,81.739395 151.451355,74.343323 159.754242,66.684044 
	C161.342499,65.218895 161.973999,62.716614 163.046906,60.692818 
	C162.565414,60.401505 162.083923,60.110191 161.602432,59.818878 
	C160.436066,60.667351 159.244492,61.483482 158.107224,62.369308 
	C147.331039,70.763016 136.589752,79.201912 125.765205,87.532684 
	C124.246025,88.701874 122.332176,89.358253 120.601013,90.252007 
	C120.428368,89.826447 120.255722,89.400879 120.083069,88.975319 
	C133.287170,76.847084 146.521896,64.751785 159.648880,52.540638 
	C160.989227,51.293808 161.682999,49.351917 162.676819,47.732563 
	C162.259979,47.485119 161.843155,47.237675 161.426315,46.990234 
	C144.591644,60.585926 127.772408,74.200874 110.894035,87.742111 
	C109.487175,88.870819 107.681282,89.502144 106.060783,90.364548 
	C106.444115,90.581833 106.827438,90.799118 107.210762,91.016403 
	C114.873077,82.459961 122.290031,73.666313 130.267487,65.414528 
	C138.071594,57.342045 146.447128,49.821957 154.571838,42.059391 
	C154.037735,41.486221 153.503632,40.913055 152.969528,40.339890 
	C133.121368,56.951111 113.273209,73.562332 94.842621,88.987167 
	C117.800865,112.072327 140.336533,134.732590 162.482391,157.000870 
	C162.482391,153.124802 162.482391,148.308731 162.482788,142.495972 
z"/>
<path fill="#FF183E" opacity="1.000000" stroke="none" 
	d="
M81.000061,17.762966 
	C107.903267,17.762922 134.306473,17.762922 160.324799,17.762922 
	C137.182236,41.004204 114.113808,64.171036 91.322891,87.059174 
	C68.737396,64.363998 45.570999,41.085098 22.361626,17.763012 
	C41.390259,17.763012 60.945156,17.763012 81.000061,17.762966 
z"/>
<path fill="#FF1D41" opacity="1.000000" stroke="none" 
	d="
M162.482590,142.994324 
	C162.482391,148.308731 162.482391,153.124802 162.482391,157.000870 
	C140.336533,134.732590 117.800865,112.072327 94.842621,88.987167 
	C113.273209,73.562332 133.121368,56.951111 152.969528,40.339890 
	C153.503632,40.913055 154.037735,41.486221 154.571838,42.059391 
	C146.447128,49.821957 138.071594,57.342045 130.267487,65.414528 
	C122.290031,73.666313 114.873077,82.459961 107.210762,91.016403 
	C106.827438,90.799118 106.444115,90.581833 106.060783,90.364548 
	C107.681282,89.502144 109.487175,88.870819 110.894035,87.742111 
	C127.772408,74.200874 144.591644,60.585926 161.426315,46.990234 
	C161.843155,47.237675 162.259979,47.485119 162.676819,47.732563 
	C161.682999,49.351917 160.989227,51.293808 159.648880,52.540638 
	C146.521896,64.751785 133.287170,76.847084 120.083069,88.975319 
	C120.255722,89.400879 120.428368,89.826447 120.601013,90.252007 
	C122.332176,89.358253 124.246025,88.701874 125.765205,87.532684 
	C136.589752,79.201912 147.331039,70.763016 158.107224,62.369308 
	C159.244492,61.483482 160.436066,60.667351 161.602432,59.818878 
	C162.083923,60.110191 162.565414,60.401505 163.046906,60.692818 
	C161.973999,62.716614 161.342499,65.218895 159.754242,66.684044 
	C151.451355,74.343323 142.905640,81.739395 134.924347,89.915016 
	C144.755142,85.240616 152.604568,77.539619 161.852051,71.670067 
	C163.621994,76.190140 161.730942,78.820145 158.478149,81.203384 
	C155.552704,83.346764 152.926865,85.899094 150.168884,88.271034 
	C150.448730,88.747589 150.728577,89.224144 151.008423,89.700699 
	C154.601151,87.442192 158.193863,85.183685 162.482788,82.487526 
	C162.482788,102.957138 162.482788,122.726555 162.482590,142.994324 
z"/>
</svg>