<svg xmlns="http://www.w3.org/2000/svg" viewBox="0 0 140.7 139.2"><path fill="#ff183e" d="M58.6 0H138L69 69.3 0 0h58.6z"/><path fill="#ff1d41" d="M140.1 125.2v14l-67.6-68 58.1-48.6 1.6 1.7c-8.1 7.8-16.5 15.3-24.3 23.4-8 8.2-15.4 17-23 25.6l-1.2-.7c1.6-.9 3.4-1.5 4.8-2.6l50.6-40.8 1.2.8c-1 1.6-1.7 3.5-3 4.8C124.2 47 110.9 59 97.7 71.2l.5 1.3c1.8-.9 3.7-1.6 5.2-2.7l32.3-25.2 3.5-2.5 1.5.8c-1 2-1.7 4.6-3.3 6-8.3 7.7-16.9 15-24.8 23.3 9.8-4.7 17.6-12.4 26.9-18.3 1.8 4.5-.1 7.2-3.4 9.5-3 2.2-5.5 4.7-8.3 7.1l.8 1.4 11.5-7.2v60.5z"/></svg>