<svg xmlns="http://www.w3.org/2000/svg" width="763.909" height="763.909"><path d="M76.509 424.64v68.42a4.58 4.58 0 01-6.73 4L5.339 462.9a4.58 4.58 0 010-8.09l64.44-34.21a4.58 4.58 0 016.73 4z" fill="#e1743f" stroke="#e1743f" stroke-linecap="round" stroke-linejoin="round" stroke-width="6.04"/><path d="M487.889 663.74V422.47l-5.32-1.28-43.68 20.23v230h41.3a7.67 7.67 0 007.7-7.64v-.04z" fill="#c25934" stroke="#c25934" stroke-linecap="round" stroke-linejoin="round" stroke-width="6.04"/><path d="M760.889 399.12c.27.8-32.74-60.77-32.74-60.77l-45.26 51.66z" fill="#e1743f" stroke="#e1743f" stroke-linecap="round" stroke-linejoin="round" stroke-width="6.04"/><path d="M251.479 172.04h-38a11.72 11.72 0 00-6.43 1.92l-131.29 86.16a11.72 11.72 0 00-5.29 9.79v412.14a11.72 11.72 0 0011.72 11.72h78.2a11.72 11.72 0 008.28-3.43l81.22-81.22-162.84-245.54a11.72 11.72 0 013.3-16.24q.37-.24.75-.46l101.15-56.5a11.72 11.72 0 006-10.23v-45.03a11.72 11.72 0 013-7.88z" fill="#c25934" stroke="#c25934" stroke-linecap="round" stroke-linejoin="round" stroke-width="6.04"/><path d="M431.739 693.77h-113.53a7.67 7.67 0 01-6.32-3.33L84.829 359.98a7.67 7.67 0 012-10.66q.27-.18.55-.34l110.84-61.91v145.65a7.67 7.67 0 007.64 7.67l233 1v245.24a7.14 7.14 0 01-7.14 7.14z" fill="#e1743f" stroke="#e1743f" stroke-linecap="round" stroke-linejoin="round" stroke-width="6.04"/><path d="M336.239 146.45a3 3 0 01-3-3V73.12a3 3 0 014.45-2.66l131 70.27a3 3 0 01-1.43 5.68z" fill="#c25934"/><path d="M336.239 73.12l131 70.27h-131V73.12m0-6a6 6 0 00-6 6v70.31a6 6 0 006 6h131a6 6 0 002.82-11.31l-130.97-70.28a6 6 0 00-2.85-.72z" fill="#c25934"/><path fill="#c25934" stroke="#c25934" stroke-linecap="round" stroke-linejoin="round" stroke-width="6.04" d="M631.069 326.16l-49.58 47.17 2.2 12.72 43.38 67.81 101.16-115.63z"/><path d="M626.279 454.2l-42.59-68.15-30-173.58a14.08 14.08 0 00-5.13-8.64l-77.73-61.61h-149.53a12.9 12.9 0 00-5.24 1.11l-64.58 28.7 187.41 269.39 43.66-20.23z" fill="#e1743f" stroke="#e1743f" stroke-linecap="round" stroke-linejoin="round" stroke-width="6.04"/><path d="M198.249 432.72v-197.1a13 13 0 013.38-8.74l49.86-54.85 187.4 269.39-233-1a7.67 7.67 0 01-7.64-7.7z" fill="#e68c59" stroke="#e68c59" stroke-linecap="round" stroke-linejoin="round" stroke-width="6.04"/></svg>