<svg version="1.1" id="Layer_1" x="0" y="0" xml:space="preserve" width="187" height="187" xmlns="http://www.w3.org/2000/svg"><style type="text/css" id="style4196"></style><g id="g2915" transform="translate(6.65)" clip-rule="evenodd" fill-rule="evenodd"><path d="M113.8 129.5c-9.6 0-17.9-3.3-24.8-9.8-.3-.2-.5-.5-.8-.7-.5-.5-.9-.9-1.3-1.4-5.7-6.2-8.7-13.6-9.2-22.1.1-.7.1-1.3.1-2s0-1.4-.1-2c-.2-2.4-1-4.7-2.1-6.7-.8-1.4-1.8-2.7-3-3.9-3.5-3.5-7.7-5.2-12.6-5.2-5 0-9.2 1.7-12.7 5.2S42 88.6 42 93.5c0 5 1.8 9.2 5.3 12.6 3.5 3.5 7.7 5.2 12.7 5.2 5 0 9.2-1.7 12.6-5.2 1.2-1.2 2.2-2.5 3-3.9 1.4 6.5 4.5 12.4 9.2 17.5-6.9 6.6-15.2 9.9-24.8 9.9-6.5 0-12.5-1.6-18-4.7V187l18.4-10.6c8.3 2.7 17.2 4.1 26.4 4.1 48 0 86.9-38.9 86.9-86.9 0-23.1-9.1-44.2-23.8-59.8v59.7c0 10.1-3.5 18.6-10.5 25.6-7 6.9-15.6 10.4-25.6 10.4" id="path4198" fill="#ee5224"/><path d="M113.4 10.7c.7.2.7.2 0 0m-12.3 95.4c3.5 3.5 7.7 5.2 12.6 5.2 5 0 9.2-1.7 12.7-5.2s5.3-7.7 5.3-12.6c0-5-1.8-9.2-5.3-12.6-3.5-3.5-7.7-5.2-12.7-5.2-5 0-9.2 1.7-12.6 5.2-1.2 1.2-2.2 2.5-3 3.9-1.4-6.5-4.5-12.4-9.2-17.5 6.9-6.6 15.2-9.9 24.8-9.9 6.5 0 12.5 1.6 18 4.7V0l-18.5 10.7h.1C105 8 96.1 6.6 86.9 6.6 38.9 6.6 0 45.5 0 93.5c0 23.1 9.1 44.2 23.8 59.8V93.6c0-10.1 3.5-18.6 10.5-25.6S49.9 57.5 60 57.5c9.6 0 17.9 3.3 24.8 9.8.3.2.5.5.8.7.5.5.9.9 1.3 1.4 5.7 6.2 8.7 13.6 9.2 22.1-.1.7-.1 1.3-.1 2s0 1.4.1 2c.2 2.4 1 4.7 2.1 6.7.7 1.4 1.7 2.7 2.9 3.9z" id="path4200" fill="#193f6e"/></g></svg>