<svg xmlns="http://www.w3.org/2000/svg" viewBox="0 0 94 84"><path fill="#0868b2" d="M23.6 11.8a11.8 11.8 0 1 1-23.6 0 11.8 11.8 0 0 1 23.6 0z"/><path fill="#7bb1e0" d="M46.4 0A41.2 41.2 0 0 0 5.2 41.3v.3h23.6V41c0-9.8 7.8-17.7 17.6-17.8V0z"/><path fill="#0868b2" d="M93.6 12.2a11.8 11.8 0 1 1-23.6 0 11.8 11.8 0 0 1 23.6 0z"/><path fill="#5588c7" d="M46.5 0a41.2 41.2 0 0 1 41.2 41.3v.3H64.1V41c0-9.8-7.8-17.7-17.6-17.8V0z"/><path fill="#272a67" d="M46.4 83.4A41.2 41.2 0 0 1 5.2 42v-.3h23.6v.7c0 9.8 7.8 17.7 17.6 17.8v23z"/><path fill="#0868b2" d="M46.5 83.4A41.2 41.2 0 0 0 87.8 42v-.3H64v.7c0 9.8-7.8 17.7-17.6 17.8v23z"/></svg>
