<svg xmlns="http://www.w3.org/2000/svg" preserveAspectRatio="xMidYMid" width="230" height="230" version="1.1" id="svg29114"><defs id="defs29108"><style id="style29106"></style></defs><g id="big-logosvg" transform="translate(3.75 .015)" fill-rule="evenodd"><path d="M211.241 115.09c9.643-8.634 13.846-22.426 9.591-35.513-4.168-12.821-16.115-21.659-28.681-23.272L49.438 51.813l-20.193 89.123s1.538 32.529 1.235 32.529c-2.471 12.487 1.957 26.549 12.957 34.53 11.155 8.092 25.603 8.382 36.824 1.914 5.252 11.818 17.103 20.068 30.897 20.076 13.795.005 25.656-8.232 30.92-20.042 11.212 6.479 25.661 6.204 36.826-1.876 11.164-8.082 15.905-21.7 13.204-34.344 12.889-1.331 24.419-10.024 28.688-23.108 4.269-13.085.08-26.882-9.555-35.525z" style="-webkit-transition:fill .3s ease;-moz-transition:fill .3s ease;-ms-transition:fill .3s ease;-o-transition:fill .3s ease;transition:fill .3s ease" fill="#8065c6"/><path d="M192.146 56.296c2.345-12.429-2.233-26.349-13.144-34.283-11.154-8.109-25.598-8.399-36.812-1.919C136.939 8.258 125.092-.007 111.302-.014 97.515-.02 85.658 8.23 80.394 20.063c-11.208-6.493-25.652-6.218-36.813 1.88-11.159 8.095-15.898 21.736-13.199 34.4-12.885 1.334-24.41 10.043-28.678 23.15-4.267 13.106-.08 26.926 9.552 35.586-9.642 8.65-13.843 22.466-9.587 35.577 4.186 12.905 16.225 21.452 28.863 23.005L81.78 84.244l110.366-27.948z" style="-webkit-transition:fill .3s ease;-moz-transition:fill .3s ease;-ms-transition:fill .3s ease;-o-transition:fill .3s ease;transition:fill .3s ease" fill="#35c5e1"/><path d="M175.156 145.281h-105l-5.17 28.013H30.174L52.539 56.3h139.613l-16.996 88.981zm-92-60l-6 29h69l6-29h-69z" id="path-3" fill="#fff"/></g></svg>