<svg xmlns="http://www.w3.org/2000/svg" viewBox="0 0 225 225"><path fill="#429BFF" d="M116.167 150.2c-18.708 14.202-37.865 14.248-58.08 2.504 0 11.944.007 23.205-.007 34.465-.002 1.83.113 3.697-.192 5.483-.823 4.813-5.216 8.25-9.988 8.028-5.036-.234-8.687-3.71-9.195-8.812-.115-1.157-.078-2.33-.078-3.496-.003-24.823-.039-49.646.009-74.469.041-21.458 12.806-39.452 33.31-45.266 20.51-5.816 41.416-.127 54.41 20.656 11.413 18.254 8.418 42.236-6.675 57.56-1.052 1.067-2.16 2.078-3.514 3.347M75.79 88.035c-1.489.74-3.027 1.394-4.458 2.232-10.73 6.283-15.724 19.916-11.794 32.088 3.73 11.551 15.963 20.293 27.45 19.208 11.752-1.11 20.448-6.977 24.7-18.162 4.029-10.6 1.927-20.496-5.912-28.616-8.094-8.384-18.01-10.865-29.986-6.75z"/><path fill="#439BFF" d="M170.902 29.95c15.768 9.734 20.777 25.395 13.467 41.963-6.779 15.366-13.764 30.64-20.726 45.924-3.062 6.723-8.36 9.092-13.945 6.433-5.53-2.633-6.92-8.08-3.847-14.907 2.91-6.466 5.782-12.949 8.707-19.506-24.185-6.564-34.984-23.473-27.924-42.864 6.501-17.859 26.126-25.538 44.268-17.043m-19.17 41.077c8.518 2.029 15.997-2 17.99-9.69 1.877-7.239-2.293-14.71-9.452-16.937-6.856-2.132-14.3 1.489-17.129 8.33-2.86 6.92.218 14.007 8.591 18.297z"/></svg>