<svg xmlns="http://www.w3.org/2000/svg" viewBox="0 0 149.1 174.2"><path fill="#429bff" d="M132.3 3.5c15.8 9.7 20.8 25.4 13.5 42C139 60.7 132 76 125 91.3c-3 6.7-8.3 9-14 6.4-5.4-2.6-6.8-8.1-3.8-15 3-6.4 5.8-12.9 8.7-19.4C91.8 56.8 81 39.9 88 20.5c6.5-17.9 26.1-25.5 44.3-17m-19.2 41c8.5 2 16-2 18-9.6a14 14 0 0 0-9.4-17 14.1 14.1 0 0 0-17.2 8.3c-2.8 7 .2 14 8.6 18.3Zm-35.5 79.2c-18.8 14.2-38 14.3-58.1 2.5v34.5c0 1.8 0 3.7-.2 5.5a9.8 9.8 0 0 1-10 8c-5-.2-8.7-3.7-9.2-8.8v-78a45.7 45.7 0 0 1 33.2-45.2 46.1 46.1 0 0 1 54.4 20.6 47 47 0 0 1-6.6 57.6l-3.5 3.3M37.2 61.5c-1.5.8-3 1.4-4.5 2.3a27.6 27.6 0 0 0-11.8 32c3.8 11.6 16 20.4 27.5 19.3C60 114 68.8 108 73 96.9c4-10.6 1.9-20.5-6-28.6-8-8.4-18-10.9-30-6.8"/></svg>