<svg xmlns="http://www.w3.org/2000/svg" version="1.1" id="Layer_1" x="0" y="0" xml:space="preserve" width="184.19" height="184.19"><style type="text/css" id="style29209"></style><path d="M87.66 87.49c-8.39 2.3-16.9 4.17-25.22 6.75C45.51 79 23.88 68.89 0 66.32c18.66-13.25 59.39-38.04 117.79-38.14l-14.52 13.33s61.53-2.19 77.06-23.4c-.12 1.99-1.39 4.6-2.02 6.41-4.42 13.02-12.43 23.53-22.4 31.63-9.71 7.91-20.75 13.52-31.93 18.2-11.42 4.77-22.9 9.39-34.7 12.72-.55.13-1.07.28-1.62.42m96.53-2.09s-56.79-4.34-115.77 14.66c7.82 8.18 14.42 17.53 19.46 27.78 31.03-17.26 74.04-39.32 96.31-42.44m-92.42 51.31c3.61 9.25 6.02 19.11 7.02 29.37l54.05-55.61z" id="path29213" fill="#f99d1c"/></svg>