<svg xmlns="http://www.w3.org/2000/svg" viewBox="0 0 45.79 44.92"><path d="M44.62 23.7c-.27-1.34 1.12-2.5.46-3.87-.66-1.37-3.84-1.28-3.9-2.84-.06-1.81 2.58-.89 3.69-.85 0-2.9-1.14-5.39-4.27-3.43a1.7 1.7 0 0 1-1.47-.57c-1-1.71 1.9-2.08 2-3.44 0-.8-.94-1.31-1.24-2a3.4 3.4 0 0 1 0-1.45c0-.19-.23-.2-.38-.24-.6-.15-1.14.19-1.75.06a8.3 8.3 0 0 1-1.64-1c-.13.3-.33.56-.57.77-.44.61-2 2.78-3 1.84-.3-.44-.4-1-.24-1.51.53-3.79-.84-4.2-4.18-4.73-.8-.13-2.84-.61-3.77-.33 0 .64.8 5.13-.63 4.89-1.71 0-.78-4.45-3.26-5-.46.07-.89.28-1.22.6-.35.51.35 2.08.5 2.69.2.8.17 1.64-.11 2.41v.16c-2.82 0-2.51-6.23-6.91-3.16 0 1.67 4 3.78 2.6 5.61-.24.32-.6.55-1 .62-2.12.26-3-4.34-5.34-3.93-.38.1-.7.35-.86.7-.61 1.06 2 2.65 2.4 3.73.13.56.11 1.15-.06 1.7-2 0-4.36-2.87-6.23-1.05a1.2 1.2 0 0 0-.5 1.12c.19.76 1.55.63 2 1.35v.09c.7 1.61-.92 2.79-.94 4.25 0 .73.55 1.14.32 1.93-.8 2.72-3.38-.31-4.61.85-1.23 1.16.15 3.21.24 4.44-.1.74-.25 1.47-.44 2.19.1.66.31 1.3.64 1.88.24.87 0 1.83.47 2.58 1.39 2.14 3.7-3.7 4.8-1.24.86 2-3.44 1.88-3.55 3.39-.11 1.51 2.46 2.85 3.46 3.79a5.23 5.23 0 0 1 1.72 3.2 9.86 9.86 0 0 1-.72 3.53c.4.09.82.1 1.23.06 2.18-.65 3.46-4.13 3.1-6.29-.33-1.82-1.33-3.38-1.46-5.28-.13-1.9 1.7-5 0-6.34l-.23-.14c-.15.2-.4.3-.64.26-.37.02-.72-.1-1-.33a.85.85 0 0 1-.3-1.19c.42-.62 1.6-.5 1.75-1.33.3-1.84-3.55-2.2-1.22-4.47a2.2 2.2 0 0 1 1.77-.68c1.08.08 3.69.86 3.54 2.24-.07.63-.6 1.22-.37 1.92.23.7 1.3.65 1.59 1.33.38.93-.4 1.62-.32 2.49.01.18.12.34.28.43a3 3 0 0 1 1.15.77c.49 1.08-.82 2.4.92 3 0-.77-.17-1.8.5-2.2.12.23.29.44.49.62.55.86.78 1.67 1.9 2a6.32 6.32 0 0 0-.88-3.06c.8 0 1.3 1.06 2.2.82.92-.24.1-1.15-.1-1.54-.54-1.11.25-2-.08-3s-3.31-1.98-4.21-2.82a1.28 1.28 0 0 1-.47-1.22c.55-1.7 2.55-.69 4-1.09.63-.23 1.2-.63 1.62-1.16.73-.75 1-1.85.69-2.85a3.09 3.09 0 0 1-.56-1.74c.42-3.06 5.37-2.89 7.53-1.78 1.1.56 2.15 1.86 1.57 3.18-.52 1.16-1.92.49-2.9.92a6.5 6.5 0 0 0-2.3 3c-.44 1.24.79 2.18.87 3.39.17 2.64-1.08 5.07-1.6 7.46-.1.44.29 1 .05 1.43-.38.64-1.17.41-1.81.64-.42.23-.8.52-1.15.84-.92.57-2 .85-2.11 2.11.58 0 1-.31 1.63-.37.07-.01.14.05.13.12v.12c-.14 1.1-1 2-.5 3.18.79 0 1-1.82 2.27-1.34.15 0 .13 0 .17.14.17.8.45 1.58.83 2.31a.51.51 0 0 0 .43-.51 7.62 7.62 0 0 1 .1-2.62c.39-1 1.07-.86.9-2.2.23-.12.45-.26.66-.42 1.59-.55 1.85-1.47 3.86-1.41.47-.02.94.06 1.38.24.35 0 .22-.55.09-1-.71-2.34-1.6-4.65-1.6-7.35h.38c.4.8.88 1.58 1.42 2.3.3.48 1.27 2.7 2.13 2.22.4-.24.64-3 .87-3.65.85-2.29 3.25-2.79 4.67-.58s.5 6.52-1.2 8.14c-.67.63-1.63.63-2.27 1.22-.64.59-.07 1.77-.18 2.58a3.69 3.69 0 0 1-1.15 2c-1.2 1.21-2.83 1.75-4.06 2.86-.53.47-.65 1.25-1.3 1.54-.65.29-1.43-.08-2.1.12l-1.47.92c-.9.47-2.36 1.26-2.84 1.41 0 1.92 4.59.9 5.53.39.67-.36.87-1.24 1.53-1.53.66-.29 1.33.41 2.09.15a10.1 10.1 0 0 0 2-1.24 39.07 39.07 0 0 0 3.56-2.47 4 4 0 0 0 1.14-1.24c.29-.81-1-2.81 1.28-2.48 1.76.23 3.52-3.31 3.85-4.56l.58-2.92.73-1.76c.42-1.44-.88-1.44-1.1-2.44zM4.7 27.41a1.69 1.69 0 0 1-1.77-2.47c.27-.44.67-.79 1.14-1 .51 0 1.02.15 1.44.44a1.7 1.7 0 0 1-.81 3.03zm9.43-10.29a.81.81 0 0 1-.51-.11c-1.8-.76-1.05-1.92-.37-3.19 1.36.55 1.67 2.88.88 3.3zm2.5 5.26a3.46 3.46 0 0 1 2.18 2.93 1 1 0 0 1-.16.42c-.3.1-.6.1-.9 0-1.33-.57-1.13-2.03-1.13-3.35zm13.2 5.86a2 2 0 0 1-.7 1.24 1.4 1.4 0 0 1-1.43-.88 4.36 4.36 0 0 1 0-1.69c.05-1.9.36-3.8.9-5.62.62 1.36.4 3 .7 4.51.3.78.49 1.6.53 2.44zm9-8.06c-.83.06-1.66.04-2.5-.07-3.13-.62-.42-4.15.25-5.56 1.28 1.15 2.7 3.79 2.26 5.63z"/></svg>