<svg xmlns="http://www.w3.org/2000/svg" viewBox="0 0 448.3 357.1"><path fill="#0164ff" d="M404.4 356.9a40.5 40.5 0 0 1-14.3-10.3c-4.3-5-8.4-10.2-12.6-15.3-16.4-20-33.1-39.9-50.4-59.1a60.3 60.3 0 0 0-21.5-15.8c-6.7-2.8-5.6-2.2-8.9-8l-41-72a46 46 0 0 0-11.5-14.6c-4.4-3.4-9-6.6-13.7-9.7a5.8 5.8 0 0 0-7 0q-4.7 3.3-9.3 6.8a13.3 13.3 0 0 0-2.5 2.9l-18.3 25.5a13.1 13.1 0 0 1-3 3c-5.9 4.1-10.5 9.3-15 14.8-20 25.7-40.3 51.3-60.4 77a8.8 8.8 0 0 1-3.6 2.6c-7 3-5.6 2-10.3 8L62.5 342A48 48 0 0 1 47 355.6l-3 1.4A223.2 223.2 0 0 1 64 67.4a223.7 223.7 0 0 1 316.1-4c87.1 84.6 85.7 212.9 24.3 293.4Zm-127-312.1-13.7-4.5-.2.4 8.4 11.7-8.2 11.6a.3.3 0 0 0 0 .2s0 0 .3.2l13.5-4.3 8.5 11.6.5-.1V57l13.7-4.5v-.4l-13.7-4.5v-10a25.5 25.5 0 0 0-.2-5Zm99.4 117-.1.5 11.6 8.4-4.4 13.8.4.2 11.6-8.4c4 2.8 7.8 5.7 12 8l-4.3-13.5 11.4-8.5v-.2a2.3 2.3 0 0 0 0-.4h-14.4l-4.5-13.6h-.4l-4.5 13.7Zm-316.9 9 11.7-8.6-.1-.5H57l-4.7-14.2-4.7 14.3H33.2l-.2.4 11.7 8.6-4.4 13.7.4.2 11.6-8.4 11.7 8.5.4-.3-4.5-13.7Zm24.4-57.6v-15l-8.8 12c-4.7-1.2-9.1-3-14-3.9L70 118l-8.5 11.7.3.3 13.8-4.4 8.5 11.7.5-.2v-14.4l14.2-4.7ZM425 224.3v-.4l-13.7-4.5V205l-.4-.1-8.5 11.6-13.8-4.4-.2.4 8.5 11.6-8.5 11.7.3.3 13.7-4.4 8.5 11.7.5-.2v-14.4Zm-392.3 62h15l4.5 13.8h.4l4.6-13.9h15L60 277.4l4.4-13.8-.4-.2-11.7 8.4-11.7-8.3-.3.2 4.4 13.7Zm351.7-22.8-.4.2 4.4 13.7-4 3c-1.3 1-2.7 1.9-4 3s-2.7 1.5-3.8 3.1h14.8l4.4 13.6h.5l4.5-13.8H415v-.4l-11.5-8.4 4.3-13.8-.3-.2-11.7 8.4Zm-165-226.3H205v.3l11.6 8.5-4.4 13.7.4.3 11.6-8.4L236 60l.3-.2-4.4-13.8 11.7-8.6-.2-.4h-14.5l-4.5-13.7h-.4ZM170.9 60l13.8 4.4.2-.3-8.5-11.7 8.5-11.7-.2-.4-13.8 4.5-8.5-11.7-.5.2v14.4l-13.7 4.5v.4l13.8 4.5v14.4l.4.1Zm-53.1 38.1.4.2 4.6-13.8h7.4a51 51 0 0 0 7.4-.2l-12-8.7L130 62l-.4-.3-11.6 8.3-11.7-8.4-.3.2 4.4 13.7c-4 3.1-8 5.7-11.6 8.6l.2.5h14.3l4.5 13.5Zm220.2-22.5 4.4-13.8-.3-.2-11.7 8.4-11.7-8.4-.3.3 4.4 13.6c-4 3-8 5.7-11.7 8.7l.2.4h14.4l4.5 13.6h.4l4.5-13.7h7.5a55 55 0 0 0 7.4-.2ZM51.5 224l8.4-11.7-.3-.3-13.7 4.4-4.2-5.9c-1.4-1.9-2.8-4-4.3-5.8l-.5.3v14.3l-13.6 4.5v.4l13.7 4.5v14.4l.4.1 8.6-11.6 14.3 4.6ZM350 117.8v.4l13.8 4.5V137l.4.1 8.5-11.5 13.8 4.4.2-.3-8.5-11.7 8.5-11.7-.2-.4-13.8 4.4-8.5-11.6-.4.2v14.3Z"/><path fill="#0165ff" d="M185.6 286.4c.4-1 .6-1.8 1-2.5l21.4-49.7a4.3 4.3 0 0 1 .2-.4c2.2-3.9 1.2-7.8-4.3-9.3l25.2-58a38 38 0 0 1 14.2 13.5q15.6 27.7 31.5 55.4l21.2 37.3 1.8 2.7c1.4-2.9.3-5.5 1-8 4.5 1.8 9 3.8 12.6 7.2 3.3 3.1 6.5 6.4 9.5 9.7a1648.5 1648.5 0 0 1 57 67.5c1.2 1.7 2.7 3.2 4.4 5.2h-4.7l-34.3-.6c-3.4 0-6.8-.3-10.3-.4a2.8 2.8 0 0 1-2.6-1.6c-1.5-2.7-3.3-5.3-4.8-8A174.2 174.2 0 0 0 307 320l-6.4-7.8-1.6-1.8c-1.3-1.4-2-1.7-3-1.2s-1.6 2-1 3.6c.3 1.3.9 2.5 1.3 3.8l9 23.8a21 21 0 0 1 1.5 8.4 10.1 10.1 0 0 1-1.4 4.8 411.3 411.3 0 0 1-46.6-7.6l1.6 10.8h-39.2a29.4 29.4 0 0 1-1.4-8.9c-.2-6.1 1.2-12 2.9-17.9a234.2 234.2 0 0 1 12.8-33.8l1.1-2.5a11.9 11.9 0 0 0-1.3-.8 69 69 0 0 0-22.8-6.2l-6.5-.3h-17.7Z"/><path fill="#0366ff" d="M188.6 243.6c1.3 1.3.5 2.2 0 3q-5.1 11-10.4 21.9l-4.1 8.6a20.6 20.6 0 0 0-2.3 8c0 2.6.6 5 3.1 6.3a1.8 1.8 0 0 1 .8 2.6l-7 16.3a20 20 0 0 0-11.2 4.6 65.6 65.6 0 0 0-13.4 13.6c-3 4.1-5.9 8.4-8.7 12.6-1.4 2-2.3 2-4 .3a5.6 5.6 0 0 1-1-6.2 16.8 16.8 0 0 1 1.2-2.3l12.5-21c1.3-2.2 1.2-2.6-1-4.2a2 2 0 0 1 .2-.6c8-13.2 16-26.5 24.2-39.7a72.2 72.2 0 0 1 12.2-15c2.5-2.3 4.8-4.9 7.3-7.3l1.6-1.5Z"/></svg>
