<svg xmlns="http://www.w3.org/2000/svg" width="500" height="500" fill="#10cf78"><path d="m43.762 141.506-4.364 4.158c-51.985 51.804-52.604 135.794-1.388 188.359s135.194 54.128 188.331 3.507 55.646-134.576 5.626-188.28-133.942-57.157-188.205-7.744zM203.825 310.09c-38.6 38.575-101.162 38.561-139.746-.031s-38.584-101.154 0-139.747 101.145-38.606 139.746-.03a98.389 98.389 0 0 1 0 139.808zM84.623 190.877a69.759 69.759 0 0 0 0 98.656c.34.353.68.693 1.033 1.021l.851.79c27.996 25.971 71.67 24.606 97.988-3.063s25.499-71.355-1.839-98.018-71.031-26.389-98.033.614zm73.99 73.989a34.88 34.88 0 1 1 0-49.322c13.618 13.62 13.618 35.701 0 49.322z"/><path d="m85.643 290.562 24.663-24.664 73.99 73.99-24.663 24.664zm54.466-184.057-.146.134-41.189 41.213a98.912 98.912 0 0 0-34.502 22.333l-24.655-24.68-39.025-39zm131.7 228.241c-52.154-52.205-52.127-136.8.061-188.972s136.784-52.171 188.972 0 52.216 136.767.062 188.972a116.522 116.522 0 0 1-4.365 4.158c-52.81 48.16-134.14 46.33-184.73-4.158zm24.667-24.655c38.599 38.564 101.148 38.544 139.724-.043s38.575-101.136 0-139.723-101.125-38.606-139.724-.043c-38.558 38.628-38.558 101.182 0 139.81zm20.546-20.558c-26.91-26.877-27.33-70.358-.945-97.75s69.85-28.602 97.717-2.718l.851.79 1.033 1.022a69.761 69.761 0 1 1-98.656 98.656zm24.667-24.667a34.88 34.88 0 1 0 0-49.322 34.855 34.855 0 0 0 0 49.322z"/><path d="m316 140.512 24.664-24.663 73.99 73.99-24.663 24.663zm44.156-34.007.134.134 41.225 41.213a98.912 98.912 0 0 1 34.515 22.333l24.655-24.68 39.025-39.024zm-109.42 226.96 30.027 30.028-30.028 30.027-30.027-30.027z"/></svg>