<svg xmlns="http://www.w3.org/2000/svg" fill="#10cf78" viewBox="0 0 500 500"><path d="m43.76 141.5-4.36 4.16c-51.99 51.8-52.6 135.8-1.39 188.36s135.2 54.13 188.33 3.51 55.65-134.58 5.63-188.28-133.94-57.16-188.2-7.74zm160.06 168.6c-38.6 38.58-101.16 38.56-139.74-.03s-38.59-101.16 0-139.75 101.14-38.6 139.75-.03a98.39 98.39 0 0 1 0 139.81zM84.62 190.88a69.76 69.76 0 0 0 0 98.65c.34.36.68.7 1.04 1.02l.85.8a69.76 69.76 0 1 0-1.89-100.47zm74 73.99a34.88 34.88 0 1 1 0-49.33 34.88 34.88 0 0 1 0 49.33z"/><path d="m85.64 290.56 24.67-24.66 73.99 73.99-24.67 24.66zm54.47-184.05-.15.13-41.19 41.21a98.91 98.91 0 0 0-34.5 22.34L39.62 145.5l-39.03-39zm131.7 228.24c-52.16-52.2-52.13-136.8.06-188.98s136.78-52.17 188.97 0 52.22 136.77.06 188.98a116.52 116.52 0 0 1-4.36 4.15c-52.81 48.16-134.14 46.33-184.73-4.15zm24.67-24.66c38.6 38.57 101.14 38.55 139.72-.04s38.58-101.14 0-139.73-101.13-38.6-139.72-.04c-38.56 38.63-38.56 101.18 0 139.81zm20.54-20.56a69.76 69.76 0 0 1 96.77-100.46l.85.79 1.04 1.02a69.76 69.76 0 1 1-98.66 98.65zm24.67-24.66a34.88 34.88 0 1 0 0-49.33 34.85 34.85 0 0 0 0 49.33z"/><path d="m316 140.51 24.66-24.66 74 73.99-24.67 24.66zm44.16-34 .13.13 41.23 41.21a98.91 98.91 0 0 1 34.51 22.34l24.66-24.68 39.02-39.03zM250.74 333.45l30.02 30.03-30.03 30.03-30.02-30.03z"/></svg>