<svg xmlns="http://www.w3.org/2000/svg" width="440.635" height="440.635"><path d="M131.997 302.658c12.16 7.46 178.56 109.98 178.56 109.98s17.4 13.64 34.94 5.18c17.53-8.46 16.82-25.58 16.82-27.82v-226.43s.65-13.59-5.18-25.88c-6.57-13.86-15.5-21.2-25.23-27.17-9.73-5.97-168.85-104.16-168.85-104.16s-14.15-11.19-31.05-3.88c-16.91 7.31-17.47 23.55-17.47 27.82v244.86c.12 3.69.55 8.59 1.94 11.33 2.42 4.79 3.36 8.7 15.52 16.17zm56.93-192.15l98.98 60.81v137.8l-98.98-60.17z" fill="#26abff"/><path d="M78.297 294.888c.12 3.69.55 8.9 1.94 11.65 2.43 4.79 3.37 8.71 15.53 16.17 12.16 7.46 178.56 109.98 178.56 109.98s17.4 13.64 34.94 5.18c17.53-8.46 16.82-25.58 16.82-27.82v-226.43s.65-13.59-5.18-25.88c-6.57-13.86-15.5-21.2-25.23-27.17-9.73-5.97-168.85-104.16-168.85-104.16s-14.15-11.19-31.05-3.88c-16.92 7.31-17.48 23.55-17.48 27.82zm74.4-164.32l98.98 60.81v137.8l-98.98-60.17z" fill="#f50049"/></svg>