<svg xmlns="http://www.w3.org/2000/svg" width="72mm" height="72mm" viewBox="0 0 72 72"><defs><clipPath clipPathUnits="userSpaceOnUse" id="a"><path d="M0 0h396v612H0z"/></clipPath></defs><g clip-path="url(#a)" transform="matrix(2.56105 0 0 -2.56105 -644.632 991.761)" fill="#c6193d"><path d="M273.807 383.394v.007c.003.155 0 .304-.011.451l-.003.028a3.872 3.872 0 01-.06.413c-.001.013-.004.026-.006.038a3.47 3.47 0 01-.1.371l-.017.055a3.782 3.782 0 01-.167.397 3.804 3.804 0 01-.211.366 3.57 3.57 0 01-.174.24c-.027.031-.054.063-.082.093a2.961 2.961 0 01-.187.202c-.034.033-.071.064-.104.095-.047.042-.093.088-.142.127l.016-.02c-2.518 2.065-8.153.943-10.292-4.44-1.291-3.253-1.652-6.053-1.636-8.035-.024-2.606.6-3.922.746-3.18 1.703 8.561 11.887 6.638 12.416 12.18.02.212.024.415.014.612m-3.616 1.61c-.82-.306-1.635-.307-2.965-.786-1.536-.557-2.4-1.509-2.502-1.354-.077.116.19 1.031 1.288 1.941 1.038.864 2.668 1.19 3.272 1.218.286.013 1.35-.045 1.538-.505.089-.218-.192-.35-.631-.515m-5.584-21.718l-.02.118a2.391 2.391 0 01-.077.38 3.14 3.14 0 01-.067.232l-.045.122c-.03.077-.06.152-.095.226l-.051.108a3.367 3.367 0 01-.127.227l-.052.085a3.49 3.49 0 01-.176.248c-.01.014-.021.03-.033.043a3.294 3.294 0 01-.522.527l-.001.003v-.002a3.437 3.437 0 01-2.171.77 3.463 3.463 0 01-3.456-3.47c0-.046.005-.09.007-.138-.002-.046-.007-.091-.007-.138a3.462 3.462 0 013.456-3.47 3.464 3.464 0 013.458 3.47c0 .047-.005.092-.006.138 0 .048.006.092.006.138 0 .129-.007.258-.021.383m-3.626.936c-.268-.15-.898-.436-1.284-.772-.55-.481-.883-1.328-.952-1.323-.07.002-.155.419 0 1.239.204 1.076.886 1.697 1.518 1.865.53.142 1.084-.05 1.163-.494.028-.161-.13-.34-.445-.515"/></g></svg>