<svg viewBox="0 0 23.81 24.001" xmlns="http://www.w3.org/2000/svg"><path d="M10.011 23.831.898 18.543c-.632-.371-.992-1.218-.816-1.895l2.614-9.876c.176-.669.84-.927 1.463-.564l9.122 5.289c.631.37.99 1.217.815 1.894l-2.614 9.876c-.168.677-.84.935-1.471.564z" fill="#5981f9"/><path d="M17.357 18.542H1.545c-1.087 0-1.75-.83-1.487-1.854L3.991 1.854C4.255.838 5.366 0 6.461 0h15.804c1.088 0 1.751.83 1.487 1.854l-3.925 14.842c-.272 1.016-1.39 1.846-2.47 1.846z" fill="#5981f9"/><path d="M12.977 4.66h-2.142a.344.344 0 0 0-.32.233l-.328 1.226c-.016.08-.008.17.048.234a.265.265 0 0 0 .224.096h2.158c1.567 0 1.743.5 1.695 1.032-.088 1.024-.911 1.54-2.462 1.54H9.652a.343.343 0 0 0-.328.242l-1.151 4.28a.294.294 0 0 0 .048.243c.056.072.136.112.223.096h1.623a.344.344 0 0 0 .32-.233l.72-2.741h.511c1.2 0 2.19-.121 3.134-.702 1.03-.62 1.662-1.62 1.766-2.717.144-1.773-1.183-2.83-3.541-2.83z" fill="#fff"/><path d="M1.545 18.542c-.551-.008-.983-.226-1.247-.564.128.234.304.427.528.564 1.279.742 11.423 1.854 11.423 1.854l.488-1.854z" fill="#5074e0"/></svg>