<svg xmlns="http://www.w3.org/2000/svg" viewBox="0 0 35 35"><path fill="#0070ff" d="M31 16.68v15.94c0 1.1-1.07 2.38-2.33 2.38H6.32A2.53 2.53 0 0 1 4 32.62V16.68c0-1.1 1.07-2.39 2.33-2.39h17.16V9.9c0-2.93-2.5-5.13-5.9-5.13-3.04 0-5.37 1.84-5.9 4.4 0 .37-.36.73-1.07.73H7.58c-.54 0-1.08-.36-1.08-1.1C7.4 4.04 11.87 0 17.41 0c5.9 0 10.73 4.4 10.73 9.9v4.4h.54c1.43.18 2.32 1.1 2.32 2.37z"/><path fill="#fff" d="M21 23.28c0-1.93-1.24-3.28-3-3.28s-3 1.35-3 3.28c0 1.16.53 1.93 1.24 2.7v3.86c0 .58.35 1.16 1.06 1.16h1.76c.53 0 1.06-.39 1.06-1.16v-3.86c.35-.58.88-1.54.88-2.7Z"/></svg>