<svg xmlns="http://www.w3.org/2000/svg" width="35" height="35"><path style="fill:#0070ff" d="M27 16.675v15.943c0 1.1-1.073 2.382-2.325 2.382H2.325C1.252 35 0 33.9 0 32.618V16.675c0-1.1 1.073-2.382 2.325-2.382H19.49V9.895c0-2.932-2.503-5.13-5.9-5.13-3.04 0-5.365 1.832-5.901 4.397 0 .367-.358.733-1.073.733h-3.04c-.536 0-1.073-.366-1.073-1.1C3.397 4.032 7.868 0 13.411 0c5.9 0 10.728 4.398 10.728 9.895v4.398h.536c1.431.183 2.325 1.1 2.325 2.382z" transform="translate(4)"/><path style="fill:#fff" d="M17 23.28c0-1.93-1.235-3.28-3-3.28s-3 1.35-3 3.28c0 1.159.53 1.93 1.235 2.702v3.86c0 .58.353 1.158 1.06 1.158h1.764c.53 0 1.059-.386 1.059-1.158v-3.86c.353-.578.882-1.543.882-2.701Z" transform="translate(4)"/></svg>