<svg xmlns="http://www.w3.org/2000/svg" width="220" height="220"  xmlns:v="https://vecta.io/nano"><defs><filter id="A" x="-.038" width="1.077" y="-.036" height="1.072" color-interpolation-filters="sRGB"><feGaussianBlur stdDeviation="2.639"/></filter></defs><g fill-rule="evenodd"><path d="M62.442 31H190.08a18.48 18.48 0 0 1 18.523 18.522v96.554c0 13.188-8.89 21.367-12.276 25.748s-32.51 28.29-38.696 31.326-11.144 4.675-18.56 4.675H62.442a18.48 18.48 0 0 1-18.522-18.522V49.522a18.48 18.48 0 0 1 18.522-18.523z" fill="#909090" paint-order="markers fill stroke" filter="url(#A)" transform="rotate(340 97.76 127.816)"/><path d="M24.453 47.21L144.392 3.557a18.482 18.482 0 0 1 23.74 11.07l33.024 90.732c4.51 12.392-1.046 23.119-2.73 28.394s-20.872 37.703-25.647 42.671-8.873 8.205-15.841 10.741L84.93 213.372a18.482 18.482 0 0 1-23.74-11.07L13.381 70.952a18.482 18.482 0 0 1 11.07-23.741z" fill="#f3f3f3" stroke="#606974" stroke-width="3" stroke-linejoin="round" paint-order="markers fill stroke"/><path d="M167.304 172.3c.17-16.663-10.59-25.007-7.194-34.038 2.676-7.115 10.012-6.617 34.348-18.555 7.692-3.774 7.029-14.393 5.988-16.3 4.866 13.368-.691 24.094-2.375 29.37s-20.872 37.702-25.647 42.67-8.874 8.206-18.206 11.602c2.307-.958 13.463-4.105 13.086-14.75z" fill="#cdcccc" paint-order="markers fill stroke"/></g><path d="M200.446 103.407c1.396 2.883 2.06 13.501-5.633 17.275-24.336 11.939-31.672 11.44-34.347 18.556-3.396 9.03 7.363 17.375 7.193 34.037.378 10.644-10.779 13.791-15.45 15.61" fill="none" stroke="#606974" stroke-width="3" stroke-linejoin="round" paint-order="markers fill stroke"/><g fill="#949494"><path d="M43.514 58.88c-3.29 1.197-6.258 3.483-7.54 7.028-1.484 4.099-.908 9.724.942 14.805 1.78 4.894 4.575 9.47 8.173 11.702 3.37 2.09 7.485 2.033 10.916.784 3.297-1.2 6.866-4.075 8.148-7.63 1.476-4.095.298-9.133-1.548-14.206-1.6-4.397-3.3-8.523-6.44-10.819-3.63-2.652-8.848-3.048-12.65-1.664zm2.297 5.081c1.597-.581 3.992.145 5.868 2.225 1.624 1.8 2.758 4.687 3.871 7.745 1.284 3.528 2.263 6.974 1.958 9.56-.265 2.243-1.625 3.835-3.01 4.339-1.441.525-3.297.197-5.006-1.487-1.824-1.798-3.495-5.081-4.734-8.484-1.286-3.534-2.044-7.317-1.736-9.904.267-2.238 1.407-3.49 2.789-3.994z" paint-order="markers fill stroke"/><path d="M102.883 42.525l4.21 4.395 4.683-3.49 7.358 20.216-6.888 2.507 1.681 4.619 19.704-7.172-.483-5.515-7.107 2.587-10.23-28.106z"/><path d="M79.223 45.883c-3.29 1.198-6.258 3.483-7.542 7.029-1.483 4.098-.906 9.723.943 14.804 1.781 4.894 4.575 9.471 8.173 11.702 3.37 2.09 7.486 2.033 10.917.784 3.296-1.2 6.866-4.075 8.147-7.63 1.476-4.094.299-9.133-1.548-14.206-1.6-4.396-3.3-8.523-6.44-10.819-3.629-2.652-8.847-3.048-12.65-1.664zm2.296 5.082c1.597-.582 3.993.144 5.869 2.224 1.623 1.8 2.757 4.687 3.87 7.745 1.284 3.528 2.263 6.974 1.958 9.56-.265 2.244-1.625 3.835-3.01 4.34-1.44.524-3.296.196-5.005-1.488-1.825-1.798-3.496-5.08-4.734-8.484-1.287-3.534-2.045-7.317-1.737-9.904.267-2.238 1.407-3.49 2.789-3.993z" paint-order="markers fill stroke"/><path d="M132.953 31.58l4.21 4.396 4.683-3.49 7.358 20.215-6.888 2.507 1.681 4.62 19.704-7.172-.482-5.515-7.108 2.587-10.23-28.107zM50.044 116.817l4.211 4.395 4.682-3.49 7.358 20.216-6.888 2.507 1.682 4.619 19.703-7.172-.482-5.515-7.108 2.587-10.23-28.106z"/><path d="M91.292 96.335c-3.29 1.198-6.258 3.483-7.541 7.029-1.484 4.098-.907 9.723.942 14.805 1.781 4.893 4.576 9.47 8.173 11.701 3.37 2.09 7.486 2.033 10.917.784 3.296-1.2 6.866-4.074 8.147-7.63 1.477-4.094.299-9.133-1.548-14.206-1.6-4.396-3.3-8.523-6.44-10.818-3.629-2.653-8.847-3.049-12.65-1.665zm2.296 5.082c1.598-.582 3.993.144 5.869 2.224 1.623 1.8 2.757 4.688 3.87 7.745 1.285 3.528 2.263 6.974 1.958 9.56-.265 2.244-1.625 3.835-3.01 4.34-1.44.524-3.296.197-5.005-1.488-1.825-1.798-3.496-5.08-4.734-8.484-1.287-3.534-2.045-7.317-1.737-9.904.267-2.238 1.407-3.49 2.79-3.993zM127 83.338c-3.29 1.198-6.258 3.484-7.541 7.029-1.484 4.098-.907 9.724.943 14.805 1.78 4.893 4.575 9.47 8.172 11.701 3.37 2.09 7.486 2.033 10.917.784 3.297-1.2 6.866-4.074 8.148-7.63 1.476-4.094.298-9.132-1.548-14.205-1.6-4.397-3.3-8.524-6.44-10.82-3.63-2.652-8.848-3.048-12.651-1.664zm2.296 5.082c1.598-.581 3.993.144 5.87 2.225 1.623 1.8 2.757 4.687 3.87 7.744 1.284 3.529 2.263 6.974 1.958 9.56-.265 2.244-1.625 3.836-3.01 4.34-1.441.524-3.297.197-5.006-1.487-1.824-1.798-3.495-5.081-4.734-8.485-1.286-3.534-2.044-7.317-1.736-9.904.266-2.237 1.406-3.49 2.788-3.993zm33.412-18.078c-3.29 1.197-6.257 3.483-7.54 7.028-1.484 4.098-.908 9.724.942 14.805 1.78 4.893 4.575 9.47 8.173 11.701 3.37 2.09 7.485 2.033 10.916.785 3.297-1.2 6.866-4.075 8.148-7.63 1.476-4.095.298-9.133-1.548-14.206-1.6-4.397-3.3-8.524-6.44-10.819-3.63-2.653-8.848-3.048-12.65-1.664zm2.297 5.081c1.597-.581 3.992.144 5.868 2.225 1.624 1.8 2.758 4.687 3.871 7.745 1.284 3.528 2.263 6.974 1.958 9.559-.265 2.244-1.625 3.836-3.01 4.34-1.441.524-3.297.197-5.006-1.487-1.824-1.798-3.495-5.081-4.734-8.484-1.286-3.534-2.044-7.317-1.736-9.904.267-2.238 1.407-3.49 2.789-3.994z" paint-order="markers fill stroke"/><path d="M67.586 165.267l4.21 4.396 4.683-3.491 7.358 20.216-6.888 2.507 1.681 4.62 19.704-7.172-.483-5.515-7.107 2.586-10.23-28.106zm65.778-23.941l4.211 4.395 4.682-3.49 7.358 20.216-6.887 2.507 1.68 4.619 19.704-7.172-.482-5.515-7.107 2.587-10.23-28.106z"/><path d="M108.432 144.775c-3.29 1.198-6.258 3.483-7.541 7.029-1.484 4.098-.907 9.723.942 14.804 1.781 4.894 4.576 9.471 8.173 11.702 3.37 2.09 7.486 2.033 10.917.784 3.297-1.2 6.866-4.075 8.147-7.63 1.477-4.094.299-9.133-1.547-14.206-1.6-4.396-3.3-8.523-6.44-10.819-3.63-2.652-8.848-3.048-12.651-1.664zm2.296 5.082c1.598-.582 3.993.144 5.869 2.224 1.623 1.8 2.758 4.687 3.87 7.745 1.285 3.528 2.264 6.974 1.958 9.56-.265 2.244-1.625 3.835-3.01 4.34-1.44.524-3.296.196-5.005-1.488-1.825-1.798-3.496-5.08-4.734-8.484-1.286-3.534-2.045-7.317-1.736-9.904.266-2.238 1.406-3.49 2.788-3.993z" paint-order="markers fill stroke"/></g><g fill="#55585b"><path d="M40.95 57.685c-3.29 1.197-6.257 3.483-7.54 7.028-1.484 4.098-.907 9.724.942 14.805 1.781 4.893 4.576 9.47 8.173 11.701 3.37 2.09 7.486 2.033 10.917.784 3.297-1.2 6.866-4.074 8.147-7.63 1.477-4.094.299-9.132-1.547-14.205-1.6-4.397-3.3-8.524-6.44-10.82-3.63-2.652-8.848-3.048-12.651-1.663zm2.297 5.081c1.598-.581 3.993.144 5.869 2.225 1.623 1.8 2.758 4.687 3.87 7.745 1.285 3.528 2.264 6.973 1.958 9.559-.265 2.244-1.625 3.836-3.01 4.34-1.44.524-3.296.197-5.005-1.487-1.825-1.798-3.496-5.081-4.734-8.485-1.286-3.533-2.045-7.317-1.736-9.903.266-2.238 1.406-3.49 2.788-3.994z" paint-order="markers fill stroke"/><path d="M100.32 41.33l4.21 4.395 4.682-3.49 7.358 20.216-6.887 2.507 1.68 4.619 19.705-7.172-.483-5.515-7.107 2.587-10.23-28.106z"/><path d="M76.66 44.688c-3.291 1.197-6.259 3.483-7.542 7.028-1.483 4.098-.907 9.724.943 14.805 1.78 4.893 4.575 9.47 8.172 11.702 3.37 2.089 7.486 2.033 10.917.784 3.297-1.2 6.866-4.075 8.148-7.63 1.476-4.095.298-9.133-1.548-14.206-1.6-4.397-3.3-8.523-6.44-10.819-3.63-2.652-8.848-3.048-12.65-1.664zm2.296 5.081c1.597-.581 3.992.144 5.868 2.225 1.624 1.8 2.758 4.687 3.87 7.745 1.285 3.528 2.264 6.974 1.959 9.559-.265 2.244-1.625 3.836-3.01 4.34-1.441.524-3.297.197-5.006-1.487-1.824-1.798-3.495-5.081-4.734-8.484-1.286-3.534-2.044-7.317-1.736-9.904.267-2.238 1.406-3.49 2.789-3.994z" paint-order="markers fill stroke"/><path d="M130.39 30.385l4.21 4.395 4.683-3.49 7.358 20.216-6.888 2.507 1.681 4.619 19.704-7.172-.483-5.515-7.107 2.587-10.23-28.106zM47.48 115.621l4.212 4.396 4.682-3.49 7.358 20.216-6.888 2.507 1.681 4.618 19.704-7.171-.483-5.515-7.107 2.587-10.23-28.107z"/><path d="M88.728 95.14c-3.29 1.198-6.258 3.483-7.54 7.028-1.484 4.099-.908 9.724.942 14.805 1.78 4.894 4.575 9.47 8.173 11.702 3.37 2.09 7.485 2.033 10.916.784 3.297-1.2 6.866-4.075 8.148-7.63 1.476-4.095.298-9.133-1.548-14.206-1.6-4.397-3.3-8.523-6.44-10.819-3.63-2.652-8.848-3.048-12.65-1.664zm2.297 5.081c1.597-.58 3.992.145 5.868 2.225 1.624 1.8 2.758 4.687 3.871 7.745 1.284 3.528 2.263 6.974 1.958 9.56-.265 2.244-1.625 3.835-3.01 4.339-1.441.525-3.297.197-5.006-1.487-1.824-1.798-3.495-5.081-4.734-8.484-1.286-3.534-2.044-7.317-1.736-9.904.267-2.238 1.407-3.49 2.789-3.994zm33.412-18.078c-3.29 1.198-6.258 3.483-7.542 7.029-1.483 4.098-.906 9.723.943 14.804 1.781 4.894 4.575 9.471 8.173 11.702 3.37 2.09 7.486 2.033 10.917.784 3.296-1.2 6.866-4.074 8.147-7.63 1.476-4.094.299-9.133-1.548-14.206-1.6-4.396-3.3-8.523-6.44-10.819-3.629-2.652-8.847-3.048-12.65-1.664zm2.296 5.082c1.597-.582 3.993.144 5.869 2.224 1.623 1.8 2.757 4.687 3.87 7.745 1.284 3.528 2.263 6.974 1.958 9.56-.265 2.244-1.625 3.835-3.01 4.34-1.44.524-3.296.196-5.005-1.488-1.825-1.798-3.496-5.08-4.734-8.484-1.287-3.534-2.045-7.317-1.737-9.904.267-2.238 1.407-3.49 2.789-3.993zm33.412-18.079c-3.29 1.198-6.258 3.484-7.541 7.029-1.484 4.098-.907 9.723.942 14.805 1.781 4.893 4.576 9.47 8.173 11.701 3.37 2.09 7.486 2.033 10.917.784 3.297-1.2 6.866-4.074 8.148-7.63 1.476-4.094.298-9.132-1.548-14.205-1.6-4.397-3.3-8.524-6.44-10.82-3.63-2.652-8.848-3.048-12.651-1.664zm2.296 5.082c1.598-.581 3.993.144 5.869 2.225 1.624 1.8 2.758 4.687 3.87 7.744 1.285 3.528 2.264 6.974 1.958 9.56-.265 2.244-1.624 3.835-3.01 4.34-1.44.524-3.296.197-5.005-1.487-1.824-1.798-3.496-5.082-4.734-8.485-1.286-3.534-2.045-7.317-1.736-9.904.266-2.237 1.406-3.49 2.788-3.993z" paint-order="markers fill stroke"/><path d="M65.022 164.072l4.211 4.395 4.682-3.49 7.358 20.216-6.887 2.507 1.68 4.619 19.705-7.172-.483-5.515-7.107 2.587-10.23-28.106zM130.8 140.13l4.212 4.396 4.682-3.49 7.358 20.215-6.888 2.507 1.681 4.62 19.704-7.172-.483-5.515-7.107 2.587-10.23-28.107z"/><path d="M105.868 143.58c-3.29 1.197-6.257 3.483-7.54 7.028-1.484 4.098-.907 9.724.942 14.805 1.781 4.893 4.575 9.47 8.173 11.702 3.37 2.09 7.485 2.033 10.917.784 3.296-1.2 6.865-4.075 8.147-7.63 1.476-4.095.299-9.133-1.548-14.206-1.6-4.397-3.3-8.523-6.44-10.819-3.629-2.652-8.848-3.048-12.65-1.664zm2.297 5.081c1.597-.581 3.992.144 5.869 2.225 1.623 1.8 2.757 4.687 3.87 7.745 1.284 3.528 2.263 6.974 1.958 9.559-.265 2.244-1.625 3.836-3.01 4.34-1.441.524-3.296.197-5.005-1.487-1.825-1.798-3.496-5.081-4.735-8.484-1.286-3.534-2.044-7.317-1.736-9.904.267-2.238 1.407-3.49 2.789-3.994z" paint-order="markers fill stroke"/></g></svg>