<svg xmlns="http://www.w3.org/2000/svg" width="75" height="75"><g fill="#a81c24"><path d="M47.716 41.735c-1.76.68-7 .91-10.42-.28-6.06-2.1-8-8.35-3.36-16.36 6.3-10.78 24-15.54 40-8.15a38.47 38.47 0 00-25.92-9.97c-13.5-.09-30.35 9.32-32.06 21.4-1.65 11.48 10.28 19.13 23.45 16.88 6-1 8.32-3.53 8.32-3.53" class="cls-1"/><path d="M16.406 19.395c-11.8 4.97-17.07 13.06-15.82 21.79 1.56 11 17.62 20.63 34.55 16 13.87-3.76 18.69-12.31 19.52-19.06 0 0-7.63 15.68-29.32 10.66-9-2.08-13.33-8.58-14.25-13.93a16.79 16.79 0 015.32-15.46" class="cls-1"/><path d="M39.966 30.005c2.29-1.36 6.66-1.85 10.88-.18 6.37 2.53 9.49 8.35 5.32 17.05-5.62 11.75-26 20.18-41.39 12.82a15.7 15.7 0 004 2.62c7.68 3.89 25.26 10.31 43.2.61 14-7.54 15.2-20.9 9.19-29-5.85-7.87-16.76-9.43-22.76-8.31-6 1.12-8.43 4.39-8.43 4.39" class="cls-1"/></g></svg>