<svg xmlns="http://www.w3.org/2000/svg" viewBox="0 0 189.68 168.26"><defs><linearGradient id="a" x1="3503.51" x2="3599.52" y1="-1716.26" y2="-1635.64" gradientTransform="matrix(.7 .7 .7 -.7 -1165.86 -3617.89)" gradientUnits="userSpaceOnUse"><stop offset="0" stop-color="#d3368a"/><stop offset=".28" stop-color="#dd4c7e"/><stop offset=".68" stop-color="#ea5c7b"/><stop offset="1" stop-color="#ff7575"/></linearGradient><linearGradient id="b" x1="-482.76" x2="-390.69" y1="-1637.13" y2="-1643.57" gradientTransform="matrix(1 0 0 -1 483.82 -1591.28)" gradientUnits="userSpaceOnUse"><stop offset="0" stop-color="#038ef5"/><stop offset=".17" stop-color="#038ef5"/><stop offset=".38" stop-color="#4570fc"/><stop offset="1" stop-color="#4869fd"/></linearGradient></defs><path fill="url(#a)" d="M173.9 17.6a55.65 55.65 0 0 0-78.5-.1 55.29 55.29 0 0 1-.1 77.9c-2.2 2.2-5 3.3-6.7 5.7-7.3 10.3-.1 16.7 8.5 25.5l16.5 17c4.6 4.5 5.4 7.5 7.1 6L174 96.3a55.53 55.53 0 0 0-.1-78.7z" transform="translate(-.62 -.87)"/><path fill="url(#b)" d="M95.6 17.1A55.68 55.68 0 0 0 17 96l26.2-26.2-.1-.1a18.6 18.6 0 0 1 26.3-26.3l.1.1L95.1 18l.7-.7z" transform="translate(-.62 -.87)"/><path fill="#32325d" d="M88.28 115.43a9.87 9.87 0 0 1 .2-13.8 1.76 1.76 0 0 1 .5-.4 76.58 76.58 0 0 0 9.2-9.7 56 56 0 0 0-.7-72.6c-.8-.9-1.7-1.8-2.4-2.5l-26.2 26.1a18.6 18.6 0 0 1-26.3 26.3l-26.2 26.3 69.4 69.3a13.1 13.1 0 0 0 18.5 0l16.5-16.5"/></svg>
