<svg xmlns="http://www.w3.org/2000/svg" viewBox="20.86 277.75 136.92 100.41"><path fill="#adc5db" d="m104.3 329.8-5.6 5.6c2.4 2.4 3.6 5.5 3.6 8.7 0 2.7-.9 5.3-2.6 7.6l17-17c-1.4-3.9-3.6-7.5-6.7-10.6zm-5.6 5.6 5.6-5.6 5.6-5.6-8.8-8.9-11.2 11.3zm-35.6-.6-16.6-16.6a12.35 12.35 0 0 1 0-17.4 12.35 12.35 0 0 1 17.4 0l14.6 14.6 11.3-11.3-14.6-14.6c-5.5-5.5-12.8-8.3-20-8.3a28.34 28.34 0 0 0-28.3 28.3c0 7.2 2.8 14.5 8.3 20l33.4 33.4a28.4 28.4 0 0 1-5.5-28.1"/><path fill="#008caf" d="m81.1 335.4 8.8-8.8-11.3-11.3-8.8 8.8c-3.1 3.1-5.3 6.8-6.7 10.7L80.3 352c-1.9-2.3-2.9-5.1-2.9-7.9.1-3.2 1.3-6.3 3.7-8.7m71.7-25.9c0-7.2-2.8-14.5-8.3-20.1-5.5-5.5-12.8-8.3-20-8.3s-14.5 2.8-20 8.3L89.9 304l11.3 11.3 14.6-14.6c2.4-2.4 5.5-3.6 8.7-3.6s6.3 1.2 8.7 3.6 3.6 5.6 3.6 8.8-1.2 6.3-3.6 8.7l-16.6 16.6c1.1 3 1.6 6.2 1.6 9.4 0 6.5-2.2 13-6.7 18.3l32.9-32.9c5.6-5.6 8.4-12.9 8.4-20.1"/><path fill="#65a5c1" d="m116.6 334.8-17 17c-.3.4-.6.8-1 1.2a12.2 12.2 0 0 1-12.5 3c-1.9-.6-3.6-1.6-5.1-3.1-.3-.3-.5-.6-.7-.8l-17.2-17.2a28.2 28.2 0 0 0 5.5 28l1.3 1.3c3.1 3.1 6.7 5.3 10.6 6.7 3 1 6.2 1.6 9.3 1.6 7.2 0 14.5-2.8 20-8.3l-5.6-5.6 5.6 5.6 1.7-1.7a28.7 28.7 0 0 0 6.7-18.3c0-3.2-.5-6.4-1.6-9.4m-37.99-19.45 11.24-11.24 11.25 11.24-11.25 11.24z"/></svg>