<svg xmlns="http://www.w3.org/2000/svg" viewBox="0 0 90 90"><path fill="#EA4335" d="M81.9 21.9a18.57 18.57 0 00-25.41 6.83L43.53 51.24c-3.75 6.5 1.08 8.78 6.46 12.01l12.47 7.22a8.8 8.8 0 0012.05-3.23L87.83 44.1a16.28 16.28 0 00-5.93-22.2z"/><path fill="#FBBC04" d="M67.24 31.22L54.77 24c-6.88-3.83-10.78-4.09-13.6.42l-18.4 31.94a18.66 18.66 0 006.82 25.46 16.17 16.17 0 0022.13-5.95l18.74-32.56a8.85 8.85 0 00-3.22-12.1z"/><path fill="#34A853" d="M69.64 14.8l-8.76-5.08a20.21 20.21 0 00-27.66 7.44L16.55 46.12a8.95 8.95 0 003.26 12.21l9.8 5.68a10.1 10.1 0 0013.83-3.72L62.5 27.2A14.26 14.26 0 0182 21.96L69.64 14.8z"/><path fill="#4285F4" d="M35.59 25.44l-9.47-5.47a8.81 8.81 0 00-12.05 3.24L2.72 42.89a20.26 20.26 0 007.4 27.68l7.21 4.16 8.74 5.05 3.8 2.19a15.59 15.59 0 01-4.76-20.72l2.94-5.1L38.82 37.5a8.83 8.83 0 00-3.23-12.05z"/></svg>