<svg xmlns="http://www.w3.org/2000/svg" width="244.419" height="244.419"><path d="M0 144.825V99.594h14.655c5.554 0 9.173.227 10.86.679 2.592.679 4.762 2.155 6.51 4.428 1.748 2.273 2.622 5.209 2.622 8.809 0 2.777-.504 5.11-1.512 7.003-1.008 1.893-2.288 3.378-3.841 4.458-1.553 1.08-3.131 1.795-4.736 2.144-2.18.432-5.337.648-9.472.648H9.131v17.063H0zm9.132-37.58v12.836h4.999c3.599 0 6.006-.236 7.22-.71 1.213-.473 2.165-1.213 2.854-2.221.688-1.008 1.033-2.18 1.033-3.518 0-1.645-.483-3.002-1.45-4.072-.967-1.07-2.19-1.738-3.671-2.005-1.09-.206-3.281-.31-6.572-.31zM78.258 144.825h-9.935l-3.949-10.275h-18.08l-3.733 10.275h-9.688L50.49 99.594h9.657zM61.443 126.93l-6.232-16.784-6.109 16.784zM89.23 144.825v-19.037L72.662 99.594h10.706l10.645 17.895 10.429-17.895h10.521l-16.63 26.256v18.975z"/><g fill="#64b3df"><path d="M119.432 144.825V99.594h33.538v7.652h-24.405v10.027h22.708v7.62h-22.708v12.312h25.269v7.62h-34.402zM161.577 144.825V99.594h33.538v7.652H170.71v10.027h22.708v7.62H170.71v12.312h25.269v7.62h-34.402zM203.753 144.825V99.594h19.222c4.833 0 8.346.406 10.536 1.219 2.19.813 3.944 2.258 5.261 4.335 1.316 2.078 1.975 4.454 1.975 7.127 0 3.394-.998 6.197-2.993 8.408-1.995 2.21-4.978 3.605-8.947 4.18 1.975 1.153 3.604 2.418 4.891 3.796 1.285 1.378 3.019 3.826 5.198 7.343l5.523 8.824h-10.923l-6.603-9.842c-2.345-3.518-3.949-5.734-4.813-6.65-.864-.915-1.779-1.542-2.746-1.882-.967-.34-2.499-.51-4.598-.51h-1.851v18.884h-9.132zm9.133-26.102h6.757c4.381 0 7.116-.185 8.207-.555 1.09-.37 1.943-1.007 2.561-1.913.617-.905.926-2.036.926-3.394 0-1.522-.406-2.751-1.219-3.687-.813-.936-1.959-1.527-3.44-1.774-.74-.103-2.962-.154-6.664-.154h-7.127v11.477z"/></g></svg>