<svg xmlns="http://www.w3.org/2000/svg" viewBox="0 0 36 36"><circle cx="18.023" cy="18" r="18" fill="#0f6fde"/><path fill="#fff" d="M11.879 9.613a.41.41 0 0 0-.41.41v14.44c0 1.74 1.412 3.15 3.154 3.15a3.153 3.153 0 0 0 3.154-3.15c.028-.041.028-.06 0-.06v-3.58a.192.192 0 0 1 .205-.204h4.2a5.51 5.51 0 0 0 5.29-5.514 5.51 5.51 0 0 0-5.312-5.492zm1.414 1.617h8.662a3.894 3.894 0 0 1 3.406 1.881 3.884 3.884 0 0 1-3.261 5.891h-4.118a.19.19 0 0 1-.205-.205v-2.658c0-.117.089-.214.205-.225h3.973a.82.82 0 0 0 .82-.818.82.82 0 0 0-.82-.819h-5.387a.407.407 0 0 0-.408.409v9.757c0 .848-.689 1.534-1.537 1.534a1.534 1.534 0 0 1-1.535-1.534v-13.01a.19.19 0 0 1 .055-.148.195.195 0 0 1 .15-.055z"/></svg>
