<svg xmlns="http://www.w3.org/2000/svg" version="1.1" id="Layer_1" x="0" y="0" xml:space="preserve" width="224.986" height="224.986"><style type="text/css" id="style8473"></style><path d="M13.808 31.018c2.2 16.9 9.7 52.9 13.1 68.1.9 4.3 1.9 8 2.8 9.5 4.7 8.1 8.5-2.7 8.5-2.7 14.7-43.9-8.5-72.2-15.9-79.8-1.3-1.4-3.6-3.1-5.7-3.7-3-.9-3.5.8-3.5 2.2.1 1.4.6 5.3.7 6.4zm204.7-13.7c2.9 2.1 13 12.7 0 14.3-18.6 2.2-54 3.5-112.7 52.6-22.2 18.6-72 68.7-98.7 131-.3.8-1.2 1.2-2 1-2.4-.7-6.7-3.3-4.5-13.3 3-13.5 30-83.8 101.4-145.8 23.3-20.2 78.9-67.8 116.5-39.8z" id="path8475" fill="#ff4800"/></svg>