<svg xmlns="http://www.w3.org/2000/svg" viewBox="0 0 36 44.32"><path fill="#001c64" d="M30.64 10.16c.11-5.57-4.49-9.84-10.8-9.84H6.78c-.63 0-1.16.46-1.26 1.08L.29 34.1c-.09.57.3 1.1.86 1.19l.16.01h7.74l-1.21 7.57c-.09.57.3 1.1.86 1.19l.16.01h6.3c.31 0 .58-.11.81-.31s.27-.47.32-.77l1.85-10.89c.05-.3.2-.69.43-.89s.43-.31.74-.31h3.86c6.18 0 11.43-4.39 12.39-10.51.68-4.34-1.18-8.29-4.92-10.24Z"/><path fill="#0070e0" d="M10.73 23.24 8.8 35.46l-1.21 7.66c-.09.57.3 1.1.86 1.19l.16.01h6.67c.63 0 1.16-.46 1.26-1.08L18.3 32.1c.1-.62.63-1.08 1.26-1.08h3.93c6.18 0 11.43-4.51 12.39-10.62a9.72 9.72 0 0 0-5.24-10.24 12.55 12.55 0 0 1-12.51 12h-6.15c-.63 0-1.16.46-1.26 1.08Z"/><path fill="#003087" d="M8.8 35.46H1.04C.47 35.46 0 35 0 34.42l.01-.16L5.24 1.08C5.34.46 5.88 0 6.51 0h13.34c6.31 0 10.9 4.6 10.79 10.16a11.7 11.7 0 0 0-5.44-1.3H14.08c-.63 0-1.16.46-1.26 1.08l-2.1 13.3-1.93 12.22Z"/></svg>