<svg xmlns="http://www.w3.org/2000/svg" viewBox="0 0 349.65 346.87"><defs><style>.cls-1{fill:#fff;}.cls-2{fill:#f03;}.cls-3{fill:#3f3a39;}</style></defs><g id="レイヤー_2" data-name="レイヤー 2"><g id="レイヤー_3" data-name="レイヤー 3"><path class="cls-1" d="M248.92,0A32.67,32.67,0,0,1,281.5,32.58V187.77a32.67,32.67,0,0,1-32.58,32.58H93.73a32.67,32.67,0,0,1-32.58-32.58V69l.08-38.12A32.66,32.66,0,0,1,93.73,0H248.92"/><path class="cls-2" d="M104.05,220.35H93.73a32.67,32.67,0,0,1-32.58-32.58V69a411.27,411.27,0,0,1,80.43-.56ZM236.59,117.64c5.16-21.06-28.77-40.53-83.11-47.87l-19.73,82.07c45.54,2.15,97.29-11.56,102.84-34.2M248.92,0H93.73a32.66,32.66,0,0,0-32.5,30.83c129.93-3.67,193.13,41.54,183.21,86.61-8.93,40.58-50.16,56.13-117.14,61.24l-10,41.67H248.92a32.67,32.67,0,0,0,32.58-32.58V32.58A32.67,32.67,0,0,0,248.92,0"/><path class="cls-3" d="M205.77,253.52H183.46a3.69,3.69,0,0,0-3.69,3.69v70.31h15.71V302.37h10.29c15.22,0,29-9.49,29-25.57s-13.79-23.28-29-23.28M195.48,294.8V261.08s4.85,0,10.29,0C213.49,261.1,222,267,222,277s-8.5,17.82-16.22,17.82H195.48m66.07-22.69c-11.9,0-18,2.93-18,2.93l1.45,4.41s4.48-2.08,13.26-2.08c9.76,0,11.74,4.74,11.74,11.2l-.13,2.89a49.63,49.63,0,0,0-12-1.42c-7.44,0-19.72,4.59-19.72,19.55,0,14.26,10.82,18.91,18.5,18.91A23.34,23.34,0,0,0,270,324.6v2.92h15.7V288.57c0-12.31-12.25-16.46-24.15-16.46m.67,49.43c-6.83,0-11.73-5-11.73-12.46S257,297.26,263,297.26c3,0,5.87.83,7,1.78V318.1c-1.93,1.67-4.17,3.44-7.78,3.44m60.2,12.71c-4.77,10.55-12.64,11.93-16.14,12.33a54.91,54.91,0,0,1-7.65.25V338.2c7,0,10.82.55,14.95-7.64l2.8-7.1-25.81-51.35h16.49L324,306.25l15-34.14h10.71s-22.46,51.59-27.23,62.14M26,253.52H3.69A3.69,3.69,0,0,0,0,257.21v70.31H15.72V302.37H26c15.22,0,29-9.49,29-25.57s-13.79-23.28-29-23.28M15.72,294.8V261.08s4.85,0,10.29,0c7.71,0,16.22,5.86,16.22,15.89S33.72,294.81,26,294.81H15.72m66.07-22.69c-11.9,0-18,2.93-18,2.93l1.46,4.41s4.48-2.08,13.25-2.08c9.76,0,11.75,4.74,11.75,11.2l-.14,2.89a49.61,49.61,0,0,0-12-1.42c-7.44,0-19.72,4.59-19.72,19.55,0,14.26,10.82,18.91,18.5,18.91a23.4,23.4,0,0,0,13.33-3.9v2.92h15.7V288.57c0-12.31-12.25-16.46-24.15-16.46m.66,49.43c-6.83,0-11.72-5-11.72-12.46s6.54-11.82,12.52-11.82c3,0,5.87.83,7,1.78V318.1c-1.93,1.67-4.17,3.44-7.79,3.44m60.21,12.71c-4.77,10.55-12.64,11.93-16.15,12.33a54.78,54.78,0,0,1-7.64.25V338.2c7,0,10.82.55,14.94-7.64l2.8-7.1L110.8,272.11h16.49l16.92,34.14,15-34.14h10.7s-22.45,51.59-27.22,62.14"/></g></g></svg>