<svg xmlns="http://www.w3.org/2000/svg" xmlns:xlink="http://www.w3.org/1999/xlink" viewBox="0 0 59.502 59.502"><g><path d="M25.547 57.548l1.812-11.494.117-.637a2.36 2.36 0 012.332-1.992h1.44c2.4 0 4.604-.256 6.552-.761 2.079-.54 3.928-1.379 5.495-2.493 1.662-1.182 3.058-2.71 4.15-4.54 1.15-1.931 1.996-4.256 2.513-6.91.456-2.342.541-4.44.255-6.234-.304-1.896-1.034-3.514-2.17-4.81-.69-.784-1.571-1.464-2.621-2.02l-.025-.014v-.03c.366-2.34.352-4.29-.042-5.97-.397-1.682-1.2-3.197-2.456-4.628-2.603-2.967-7.337-4.47-14.071-4.47H10.334a2.602 2.602 0 00-2.567 2.193L.067 51.57a1.537 1.537 0 001.522 1.78H13.06l-.01.055-.788 4.997a1.342 1.342 0 001.325 1.551h9.624a2.268 2.268 0 002.24-1.914l.095-.49" fill="#27346a" mask="url(#mask-2)" transform="translate(4.52 -.498)"/><path d="M18.954 15.676a2.314 2.314 0 012.286-1.954h14.496c1.718 0 3.32.113 4.783.348.419.068.825.145 1.221.233a17.716 17.716 0 011.7.465c.718.24 1.387.52 2.003.847.726-4.629-.005-7.779-2.508-10.631C40.178 1.843 35.199.498 28.828.498H10.334c-1.302 0-2.41.947-2.613 2.233L.02 51.563a1.587 1.587 0 001.568 1.835h11.417l5.949-37.722" fill="#27346a" mask="url(#mask-2)" transform="translate(4.52 -.498)"/><path d="M49.963 15.117c-.056.353-.117.713-.19 1.083-2.438 12.522-10.782 16.85-21.439 16.85h-5.427a2.637 2.637 0 00-2.604 2.235l-3.566 22.613a1.389 1.389 0 001.371 1.604h9.624a2.314 2.314 0 002.286-1.954l.094-.489 1.813-11.495.117-.636a2.314 2.314 0 012.286-1.953h1.44c9.322 0 16.622-3.788 18.756-14.742.89-4.577.43-8.398-1.927-11.084-.713-.812-1.6-1.484-2.634-2.032" fill="#2790c3"/><path d="M47.41 14.1c-.371-.11-.755-.207-1.15-.295a21.06 21.06 0 00-1.221-.232c-1.464-.236-3.065-.349-4.783-.349H25.76a2.313 2.313 0 00-2.286 1.955l-3.082 19.536-.089.57a2.637 2.637 0 012.604-2.234h5.427c10.657 0 19.001-4.33 21.44-16.851.072-.37.133-.73.189-1.083a13.105 13.105 0 00-2.004-.846c-.18-.06-.362-.117-.549-.171" fill="#1f264f"/></g><defs id="defs9162"><path id="path-1" d="M.036 60h245.209V.498H.036z"/><mask id="mask-2" fill="#fff"><use xlink:href="#path-1"/></mask></defs></svg>