<svg xmlns="http://www.w3.org/2000/svg" viewBox="0 0 300.92 199.44"><path fill="#001db5" d="M300.92 99.66v.11a4 4 0 0 1-1.19 2.86l-96.21 96.21a2 2 0 0 1-1.43.59h-.6a2.03 2.03 0 0 1-2.03-2.03V99.77a4 4 0 0 1-1.19 2.86l-95.61 95.61a4 4 0 0 1-2.87 1.19h-.11a4 4 0 0 1-2.85-1.19L1.17 102.65A4 4 0 0 1 0 99.8v-.11a4 4 0 0 1 1.19-2.86L96.8 1.2A4 4 0 0 1 99.66 0h.11c1.07 0 2.11.42 2.86 1.17l95.61 95.61c.76.76 1.19 1.8 1.19 2.87V2.02c0-1.12.91-2.02 2.03-2.02h.6c.54 0 1.05.22 1.44.59l96.21 96.19c.76.76 1.19 1.8 1.19 2.87h.02z"/></svg>