<svg xmlns="http://www.w3.org/2000/svg" version="1.1" id="clean" x="0" y="0" xml:space="preserve" width="17.6" height="17.6"><style type="text/css" id="style9880">.st1{fill:#e2001a}</style><g id="g9908" transform="translate(2.75)"><path class="st1" d="M9.6 17.6H2.5c-1.4 0-2.5-1.1-2.5-2.5V8.7c0-1.4 1.1-2.5 2.5-2.5h7.1c1.4 0 2.5 1.1 2.5 2.5v6.4c0 1.4-1.1 2.5-2.5 2.5z" id="path9904"/><path class="st1" d="M1.9 5.5C2.2 3.6 4 2.1 6.1 2.1s3.9 1.5 4.2 3.4c.6.1 1.2.4 1.7.9v-.6C11.9 2.6 9.3 0 6.1 0S.2 2.6.2 5.8v.6c.5-.4 1-.8 1.7-.9z" id="path9906"/></g></svg>