<svg xmlns="http://www.w3.org/2000/svg" width="102.563" height="102.563"><g fill="none" fill-rule="evenodd"><path d="M102.217 44.564c-.932-2.715-3.467-4.662-6.449-4.662h-.062a6.749 6.749 0 00-4.926 2.141 6.75 6.75 0 00-4.926-2.14h-.062a6.728 6.728 0 00-4.455 1.685v-.532a1.016 1.016 0 00-1.002-.953h-4.571c-.558 0-1.01.461-1.01 1.032v25.302c0 .57.452 1.032 1.01 1.032h4.571c.51 0 .929-.389.996-.892V51.74l-.003-3.324c0-.062.003-.123.009-.183.075-.81.656-1.477 1.576-1.56h.843c.386.035.71.173.964.38.398.324.621.82.62 1.363l-.002 3.324h.002v14.087l.018.662c0 .57.453 1.032 1.01 1.032h4.571c.54 0 .98-.436 1.006-.982V51.717l-.003-3.324c-.002-.599.268-1.138.744-1.456.234-.155.515-.258.84-.287h.843c.988.088 1.586.851 1.584 1.743l-.002 3.324h.002v.94h.018v13.785c0 .57.453 1.031 1.01 1.031h4.571c.558 0 1.01-.462 1.01-1.031V47.028c0-1.322-.146-1.886-.345-2.464M71.272 40.17h-2.614v-4.317h-.001l.001-.012a.933.933 0 00-.923-.942.871.871 0 00-.174.02c-2.9.81-2.318 4.902-7.609 5.25h-.515c-.076 0-.15.011-.22.027h-.005.003a1.025 1.025 0 00-.789 1.004v4.658c0 .57.453 1.032 1.011 1.032h2.758v13.482c0 .01-.003.02-.003.029v6.243c0 .563.448 1.02 1 1.02h4.519c.551 0 .999-.457.999-1.02v-4.385h.001V46.89h2.56c.558 0 1.011-.46 1.011-1.031V41.2c0-.568-.453-1.03-1.01-1.03" fill="#00baf2"/><path d="M54.825 40.17h-4.57a1.02 1.02 0 00-1.01 1.03v2.5h-.02v3.05c.014.07.022.144.022.219v3.143l-.002.017v.706a1.08 1.08 0 01-1.069 1.074H46.26c-.59 0-1.07-.49-1.07-1.092v-7.116h-.02V41.2c0-.568-.453-1.03-1.01-1.03h-4.57a1.02 1.02 0 00-1.011 1.03v10.558c0 4.011 2.805 6.87 6.743 6.87h2.887s.067 0 .158.017c.533.062.948.518.948 1.078a1.08 1.08 0 01-.934 1.077l-.076.014-1.298.024H41.62c-.558 0-1.01.462-1.01 1.031v4.658a1.02 1.02 0 001.01 1.03h7.475c3.937 0 6.743-2.858 6.743-6.87V41.2c0-.568-.453-1.03-1.012-1.03M10.581 48.707v2.874c0 .603-.48 1.092-1.07 1.092h-.43c-.009.001-.017.004-.026.004H6.61v-5.763h2.9c.591 0 1.071.489 1.071 1.092v.701zm.401-8.537H5.558l-.064.002-.025-.002H.991A1 1 0 000 41.18v4.564l.002.026-.002.065v20.659c0 .562.412 1.019.924 1.033h4.657a1.02 1.02 0 001.011-1.031l.018-7.082h4.372c3.66 0 6.211-2.585 6.211-6.332v-6.571c0-3.745-2.55-6.341-6.21-6.341zM29.547 59.644v.728a.98.98 0 01-.06.322v.001a1.07 1.07 0 01-1.017.701h-1.902c-.595 0-1.078-.459-1.078-1.024v-.88l-.002-.032.002-2.338v-.733-.006c.004-.563.484-1.02 1.078-1.02h1.902c.594 0 1.077.46 1.077 1.026v3.255zm-.728-19.448h-6.342c-.56 0-1.016.434-1.016.967v1.81c0 .013.004.025.004.038 0 .012-.004.024-.004.037v2.483c0 .566.482 1.024 1.077 1.024h2.251l.022.001h3.767c.476.075.854.429.909.985v.6c-.055.528-.428.913-.885.958h-2.989c-3.978 0-6.813 2.693-6.813 6.474v5.42c0 3.76 2.436 6.435 6.386 6.435h5.625l.112-.003c.015 0 .03.003.044.003h2.509c1.487 0 2.693-1.147 2.693-2.561V47.19c0-4.288-2.168-6.994-7.35-6.994z" fill="#20336b"/></g></svg>