<svg xmlns="http://www.w3.org/2000/svg" version="1.1" id="Layer_1" x="0" y="0" xml:space="preserve" width="175" height="175"><style type="text/css" id="style940">.st0{fill:#52adff}.st1{fill:#fff}</style><g id="g1187"><g id="g1149"><path class="st0" d="M1.5 82.9V1.5h66.8v12.8H81v37.6H68.3V61H19.1v21.9zm61.9-41.3V20.9H19.1v20.7z" id="path942"/><g id="g1109"><g id="g1103"><g id="g1098"><g id="g1094"><path class="st1" d="M66.8 3v12.8h12.8v34.6H66.8v9.1H17.6v21.9H3V3h63.8M17.6 43.1H65V19.4H17.6v23.7M69.8 0H0v84.4h20.6V62.5h49.2v-9.1h12.8V12.8H69.8V3zM20.6 22.4H62v17.7H20.6z" id="path944"/></g></g></g></g></g><g id="g1157" transform="translate(0 -.2)"><path class="st0" id="polygon948" transform="translate(-7 -9.8)" d="M101 24h10V11h70v20h-62v42h62v20h-70v-9h-10z"/><g id="g1127"><g id="g1121"><g id="g1116"><g id="g1112"><path class="st1" d="M172 3.2v16h-62v46h62v16h-67v-9h-9v-56h9v-13h67m3-3h-73v13h-9v62h9v9h73v-22h-62v-40h62V3z" id="path950"/></g></g></g></g></g><g id="g1141" transform="translate(-1.54 -4.674)"><g id="g1091"><g id="g1085"><g id="g1065" transform="translate(-239.851 376.144)"><path class="st0" id="polygon954" transform="translate(8.39 -290.47)" d="M244 11h70v20h-62v42h62v20h-70v-9h-10V24h10z"/><path class="st1" d="M320.39-277.47v16h-62v46h62v16h-67v-9h-9v-56h9v-13h67m3-3h-73v13h-9v62h9v9h73v-22h-62v-40h62v-19.2z" id="path956"/></g></g></g></g><g id="g1134" transform="translate(10.46 7.326)"><g id="g1080"><g id="g1074"><g id="g1069" transform="translate(-569.851 364.144)"><path class="st0" id="polygon972" transform="translate(8.39 -290.47)" d="M725 55v38h-71v-9h-9V24h9V11h71v20h-60v42h42V62h-22V42h29v13z"/><path class="st1" d="M731.39-277.47v16h-60v46h46v-15h-22v-16h25v13h11v34h-67v-9h-9v-56h9v-13h67m3-3H661.39v13h-9v62h9v9H734.39v-40h-11v-13h-31v22h22v9h-40v-40h60v-19.2z" id="path974"/></g></g></g></g></g></svg>