<svg xmlns="http://www.w3.org/2000/svg" width="48" height="48"><g fill-rule="evenodd"><path fill="#e1251b" d="M8.416 48h31.168V0H8.416z"/><path fill="#fff" d="M23.124 21.291c-.495.353-1.396.863-1.982 1.213-.186.12-.45.333-.54-.145-.142-.796-.558-1.465-2.044-.942-.602-.634-2.139-1.793-2.784-2.253-.78-.56-2.514-1.71-3.75-2.573-1.15-.803-1.85-1.256-2.416-1.762-1.159-1.034.542-1.459 1.266-1.674.924-.28 1.755-.55 2.823-.807 1.012-.243 4.235-.807 6.652-.945 1.72-.097 5.2-.405 6.707 1.506 0 0-3.678 2.922-3.93 8.382m-.51 11.081c.5 4.574-.618 2.38-.746 2.076-.478-1.13-1.18-4.877-1.16-6.975 0 0 1.614 2.163 1.907 4.9m5.27-17.65s-.144 3.12-2.536 4.94c.047-1.211 1.223-3.78 2.535-4.94m1.5 12.413c-.931.08-4.424.013-4.26-4.576 4.67-3.33 4.793-7.027 4.286-9.157 1.124-.944 2.237-1.42 3.145-1.806.46-.194 1.017-.312 1.218-.02.542.793 2.395.824 1.34-1.232-.296-.572-.931-.94-1.857-.861-.955.082-2.795.608-4.754 2.119-2.14-2.347-5.461-2.248-7.802-2.153-4.2.166-9.831 1.58-12.285 2.498v4.597c1.32 1.006 2.996 1.985 3.375 2.216.67.411 4.29 2.633 6.364 4.854.569.614.277.526.019.85-.39.531-.086 1.259.286 1.595.227.213.469.052.46.985-.01 2.062.42 4.93.798 6.502.484 2.02 1.496 3.66 1.843 4.055 1.127 1.337 2.373 1.488 2.683-.638.109-.725.088-1.898.037-3.41-.035-1.021-.215-4.345-2.753-8.238-.286-.425-.226-.546.07-.68.928-.465 1.68-.879 1.68-.879.455 4.272 2.834 5.349 5.673 5.24 2.357-.092 6.373-1.61 10.632-4.31v-2.453c-4.058 2.768-7.679 4.69-10.199 4.902"/></g></svg>