<svg xmlns="http://www.w3.org/2000/svg" viewBox="0 0 70.44 51.92"><defs><linearGradient id="a" x1="60.48" x2="-4.29" y1="5.92" y2="60.47" gradientTransform="scale(1.16476 .85855)" gradientUnits="userSpaceOnUse"><stop offset="0" stop-color="#c9d7e9"/><stop offset=".39" stop-color="#8ed6e7"/><stop offset="1" stop-color="#e6d6d1"/></linearGradient></defs><path fill="url(#a)" d="m69.36 26.14-.02-2.78a11.75 11.75 0 0 0 1.06-5.96 14.06 14.06 0 0 0-.96-4.6 19.27 19.27 0 0 1-2.38 3.8c-1.54 1.92-4.14 3.07-7.93 3.07-5.32 0-12.62-2.36-16.95-7.62C37.4 6.25 28.46 0 20.08 0a12.84 12.84 0 0 0-9.53 3.88 6.43 6.43 0 0 0-2.82-.7A6.17 6.17 0 0 0 3.2 5.45c-2.22 2.45-2.11 5.4.33 9l-.87 2.2-.05.13a3.02 3.02 0 0 0 .5 2.8l1.37 1.58-.34.83a3.05 3.05 0 0 0 .13 2.63l.48.88c-.78.11-3.28 1.55-4.75.87a7.56 7.56 0 0 0 .28 2.35 5.77 5.77 0 0 0 2.1 3.12 11.95 11.95 0 0 0-1 8.18c2.27 8.78 8.17 9.23 9.33 9.23l.33-.01 2.31-.24a17.82 17.82 0 0 0 9.16 2.92 9.25 9.25 0 0 0 5.04-1.28l2.54-1.74-2.74-1.38a8.53 8.53 0 0 1-1.62-1.04 8.65 8.65 0 0 0 1.7.17 6.33 6.33 0 0 0 3.14-.74l2.87-1.72-3-1.47a3.13 3.13 0 0 1-1.66-2.26 7.16 7.16 0 0 1-.05-2.77 21.04 21.04 0 0 0 13.24 4.76c.3 0 2.3-.11 2.62-.12l-1.46-1.39a32.3 32.3 0 0 0 7.06.81c10.64 0 14.93-4.79 16.48-6.04a8.06 8.06 0 0 0 2.22-3.38l-2.84.27a8.92 8.92 0 0 0 1.05-.9 7.69 7.69 0 0 0 2.25-5.56z"/><path d="M39.76 38.1a7.5 7.5 0 0 0 3.06 2.5 19.32 19.32 0 0 1-14.83-6.1c-1.3 1.7-2.4 7.86 1.65 9.84 0 0-2.97 1.78-7.43-1.5 0 0-.67 3.77 4.32 6.3 0 0-6.2 4.24-16.87-5.14 0 0-.27 1.3 1.22 3.42 0 0-5.58.48-7.74-7.86-1.2-4.67 1.92-8.67 1.92-8.67a3.19 3.19 0 0 1-2.97-2.47c1.5.32 3.2-1.67 5.33-1.84l-1.53-2.83a1.25 1.25 0 0 1-.06-1.07l.64-1.52a.61.61 0 0 0-.1-.63L4.5 18.38a1.24 1.24 0 0 1-.14-1.05l1.25-3.13C2.6 10.23 3.19 8.18 4.56 6.67c1.36-1.5 3.23-2.64 6.38-.45 7.25-9.53 22.52-1.9 29.82 6.98 7.39 8.98 23.58 10.99 27.83 4.38.72 7.41-6.62 11.38-14.19 10.76-6.06-.5-10.53-4.45-15.64-8.8-6.43-5.47-14.1-15.38-23.67-8.94a7.65 7.65 0 0 0-3.01 3.74l.1-.13a10.9 10.9 0 0 1 9.61-4.88c4.52.4 9.88 4.62 17.93 14.82 8.71 11.03 18.93 10.71 25.63 10.3 0 0-8.8 9.31-25.59 3.65z"/><path d="M47.3 28.16c9.43 4.06 16.1 2.42 20.24-2 .06 7.01-11.13 9.83-20.25 2z"/><path fill="#8fd6e7" d="M45.38 35.1c-8.44-1.05-12.14-8.76-14.1-13.5 3.74 5.42 10.22 12.4 14.1 13.5zm-33.61-4a8.09 8.09 0 0 0 3.32 1.11c-1.68 1.19-4.28 1.4-5.81-.22 1.62-.55 2.5-.89 2.5-.89zm13.26-9.65a4.36 4.36 0 0 0-.52-6.25c-2.3-2.06-6.94-2.47-13.02.43a.98.98 0 0 1-.78.04 2.41 2.41 0 0 1-1.55-1.77 24.43 24.43 0 0 0-1.13 4.49 1.4 1.4 0 0 0 .52 1.27l2.04 1.6a1.05 1.05 0 0 1 .36 1.1 24.25 24.25 0 0 0-.77 4.42 1.34 1.34 0 0 0 .8 1.33l.17.08a1.64 1.64 0 0 0 1.52-.11 6.85 6.85 0 0 1 5.1-.91c.2.04.39.1.58.15a12.77 12.77 0 0 1 2.07 1.01 5.8 5.8 0 0 0 6.75-.77 3.4 3.4 0 0 0 1.11-2.68c-.18-2.65-3.25-3.42-3.25-3.42z"/><path d="M21.75 21.14a1.08 1.08 0 0 1-1.17.3l-2.18-.8a1.35 1.35 0 0 1 .08.45 1.33 1.33 0 0 1-2.57.46l-1.8.8a.63.63 0 0 1-.83-.3l-.71-1.43a1 1 0 0 1 .12-1.08l.64 1.2a.39.39 0 0 0 .52.17l4.1-2.09a1.23 1.23 0 0 1 .98-.06l3.74 1.37z"/></svg>