<svg xmlns="http://www.w3.org/2000/svg" xmlns:xlink="http://www.w3.org/1999/xlink" width="605.824" height="605.824"><defs><clipPath id="b"><use overflow="visible" xlink:href="#a" width="100%" height="100%"/></clipPath><path id="a" d="M0 0h1500v389.456H0z"/></defs><g clip-rule="evenodd" fill-rule="evenodd"><path clip-path="url(#b)" d="M471.173 193.622c0 94.17-76.339 170.509-170.509 170.509-94.169 0-170.509-76.339-170.509-170.509 0-94.169 76.34-170.509 170.509-170.509 94.169 0 170.509 76.34 170.509 170.509" fill="#fff" transform="translate(0 108.184)"/><path clip-path="url(#b)" d="M302.912 49.458c-78.511 0-142.184 63.668-142.184 142.18 0 78.509 63.673 142.184 142.184 142.184s142.184-63.675 142.184-142.184c0-78.513-63.673-142.18-142.184-142.18m21.632 179.271h-46.358v37.098c0 10.255-8.287 18.543-18.544 18.543-10.266 0-18.548-8.288-18.548-18.543V129.818c0-10.261 8.282-18.542 18.548-18.542h64.902c32.461 0 58.735 26.272 58.735 58.723 0 32.456-26.274 58.73-58.735 58.73" fill="#1bbed0" transform="translate(0 108.184)"/><path clip-path="url(#b)" d="M327.638 148.611l-49.424.003-.036 42.769 49.46.005c10.516-1.477 18.544-10.506 18.544-21.389 0-10.873-8.028-19.906-18.544-21.388" fill="#1bbed0" transform="translate(0 108.184)"/><path clip-path="url(#b)" d="M558.963 208.021c-4.88 27.264-20.768 42.35-43.027 52.109 22.384-14.958 37.092-40.425 37.092-69.359 0-41.414-30.287-75.726-69.915-82.218 10.45 21.638 12.111 38.392 9.893 58.665C481.015 72.945 400.454 0 302.912 0 197.079 0 111.275 85.803 111.275 191.638c0 17.742 2.413 34.932 6.919 51.247-8.465-21.577-13.101-45.124-13.101-69.792 0-23.054 4.078-45.189 11.565-65.712C50.318 119.433 0 177.486 0 247.276c0 76.472 60.336 138.962 136.002 142.18h374.062c51.738-2.158 95.76-46.423 95.76-98.662 0-35.853-17.928-65.901-46.861-82.773M302.912 352.363c-88.768 0-160.728-71.955-160.728-160.726 0-88.774 71.96-160.728 160.728-160.728 88.768 0 160.728 71.955 160.728 160.729 0 88.77-71.96 160.725-160.728 160.725" fill="#1bbed0" transform="translate(0 108.184)"/></g></svg>