<svg xmlns="http://www.w3.org/2000/svg" width="129.502" height="129.502" viewBox="0 0 34.264 34.264" version="1.1" id="svg8"><g id="layer1" transform="translate(-3.464 -98.89)"><g id="g159" transform="translate(2.289)"><path id="path890" d="m1.058 9.763 4.948 2.858V6.932l9.895-5.715L30.745 9.79v17.118l-9.896 5.715-4.948-2.857v5.715L1.058 26.908V9.763" style="fill:#303344;fill-opacity:1;stroke:#000;stroke-width:0;stroke-linecap:butt;stroke-linejoin:miter;stroke-miterlimit:4;stroke-dasharray:none;stroke-opacity:1" transform="translate(2.406 97.674)"/><g id="g147"><g id="g138"><g id="g130"><path id="polygon843" style="fill:#feda47" transform="matrix(.26458 0 0 .26458 -1.298 94.79)" d="m74.1 80.2 18.7-10.8-24.9-14.3-18.7 10.8z"/><path id="polygon847" style="fill:#eda920" transform="matrix(.26458 0 0 .26458 -1.298 94.79)" d="m74.1 80.2 18.7-10.8v28.8L74.1 109z"/><path style="fill:#ccc;fill-opacity:1" class="st3" id="polygon851" transform="matrix(.26458 0 0 .26458 -1.298 94.79)" d="M74.1 22.7 49.2 37.1l46.7 27 24.9-14.4z"/><path style="fill:#ccc;fill-opacity:1" class="st3" id="polygon853" transform="matrix(.26458 0 0 .26458 -1.298 94.79)" d="m99 69.4 24.9-14.3V109L99 123.4z"/><path style="fill:#ccc;fill-opacity:1" class="st3" id="polygon855" transform="matrix(.26458 0 0 .26458 -1.298 94.79)" d="m24.3 58.7 43.6 25.1v50.4L24.3 109z"/></g></g></g></g></g><style id="style815" type="text/css">.st3{fill:#cdcccc}</style></svg>