<svg xmlns="http://www.w3.org/2000/svg" viewBox="-60 -60 120 120"><g fill="none" stroke="#000" stroke-width=".1"><circle r="60"/><circle r="19"/><circle r="7.5"/><path fill="#000" stroke="none" d="M-60-60H60V60H-60z"/><path fill="#fff" stroke="none" d="M-10-38c-20 0-22 23-22 23v51h10V8l4 3L0 5s13-5 13-19c0-11-8-24-23-24zm0 11c8 0 12 6 12 12C2-7-5-4-5-4l-16 6v-19s1-10 11-10z"/><g stroke="none" stroke-width="0"><path fill="#f9ce02" d="M33-37a6 6 0 0 1-6 6 6 6 0 0 1-5-6 6 6 0 0 1 5-5 6 6 0 0 1 6 5z"/><path fill="#f4761e" d="M33-22a6 6 0 0 1-6 6 6 6 0 0 1-5-6 6 6 0 0 1 5-6 6 6 0 0 1 6 6z"/><path fill="#ef1b41" d="M33-7a6 6 0 0 1-6 5 6 6 0 0 1-5-5 6 6 0 0 1 5-6 6 6 0 0 1 6 6z"/><path fill="#675fcd" d="M33 8a6 6 0 0 1-6 5 6 6 0 0 1-5-5 6 6 0 0 1 5-6 6 6 0 0 1 6 6z"/><path fill="#049fd8" d="M33 22a6 6 0 0 1-6 6 6 6 0 0 1-5-6 6 6 0 0 1 5-5 6 6 0 0 1 6 5z"/><path fill="#0cab44" d="M33 37a6 6 0 0 1-6 5 6 6 0 0 1-5-5 6 6 0 0 1 5-6 6 6 0 0 1 6 6z"/></g></g></svg>