<svg xmlns="http://www.w3.org/2000/svg" viewBox="0 0 34.2 34.2"><path fill="#fff" d="M9.8 12.25v17h3.5v-9.4l1.2 1.3 5.1-2a7.3 7.3 0 0 0 4.8-7 7.4 7.4 0 0 0-7.34-7.2 7.3 7.3 0 0 0-7.26 7.3Zm7.3-4a4 4 0 0 1 3.9 4 4 4 0 0 1-2.6 3.8l-5.1 2v-5.8a3.9 3.9 0 0 1 3.8-4z"/><circle id="a" cx="32.1" cy="2.1" r="2"/><use fill="#fccc12" href="#a"/><use y="6" fill="#ff7112" href="#a"/><use y="12" fill="#ef1541" href="#a"/><use y="18" fill="#6e55dc" href="#a"/><use y="24" fill="#069de0" href="#a"/><use y="30" fill="#05ac3f" href="#a"/></svg>
