<svg xmlns="http://www.w3.org/2000/svg" width="120" height="24" fill="none" viewBox="0 0 120 24"><path fill="#fff" d="M6.672 2.111v.004s.466 3.571.466 9.667-.466 9.671-.466 9.667v.004a14.06 14.06 0 0 0 3.847-9.67v-.002c0-3.74-1.463-7.139-3.847-9.67"/><path fill="#fff" d="M6.756 8.513c-.5-1.89-1.436-3.67-2.733-5.289A16.2 16.2 0 0 0 .03 0c1.484 2.346 2.483 6.734 2.483 11.76S1.516 21.163.035 23.51l-.035.08a17 17 0 0 0 2.383-1.657c2.526-2.404 4.188-5.29 4.655-8.428a14.4 14.4 0 0 0-.281-4.993zM95.524 7.201c-4.75 0-8.534 3.72-8.534 8.402s3.772 8.387 8.522 8.387c4.749 0 8.521-3.709 8.521-8.39s-3.76-8.398-8.51-8.398m-.012 13.017c-2.729 0-4.412-2.122-4.412-4.615s1.684-4.618 4.412-4.618c2.729 0 4.413 2.122 4.413 4.615s-1.684 4.618-4.413 4.618M35.788 7.203c-4.71 0-8.115 3.803-8.116 8.424 0 4.522 3.259 8.373 7.99 8.373 3.415 0 6.523-2.047 7.697-5.236h-4.144c-.642.854-1.9 1.579-3.526 1.579-2.593 0-3.772-1.851-3.908-3.265h11.851c.07-.455.107-1.21.107-1.736 0-4.895-3.6-8.139-7.95-8.139m-3.998 6.79c0-1.752 1.727-3.171 3.858-3.171 2.13 0 3.858 1.42 3.858 3.17zM112.226 7.203c-4 0-7.233 3.231-7.233 7.232v9.156h4.056l.001-9.15c0-2.067 1.468-3.385 3.17-3.385 1.7 0 3.16 1.328 3.158 3.396l-.008 9.139h4.091v-9.153a7.23 7.23 0 0 0-7.235-7.235M73.96 7.714c-.448-.21-1.42-.51-2.53-.51a5.04 5.04 0 0 0-4.578 2.733V7.612h-3.84l-.01 15.977 4.053.002V13.137c.11-.216 1.249-2.157 3.604-2.157.88 0 1.683.272 1.886.37zM53.091 7.201c-4.715 0-8.55 3.68-8.55 8.472 0 4.488 3.363 8.336 7.906 8.326 2.288-.004 4.092-.985 5.03-2.406v1.998h4.106l-.003-8.199c-.002-4.619-3.841-8.19-8.488-8.19m-.028 13.07c-2.729 0-4.413-2.152-4.413-4.646s1.685-4.646 4.413-4.646c2.73 0 4.413 2.153 4.413 4.646 0 2.494-1.684 4.647-4.413 4.647M81.273 14.053c-2.695-.573-3.772-.81-3.772-1.726 0-1.036 1.381-1.576 2.839-1.576 2.213 0 3.85 1.243 4.031 1.381l2.02-2.964c-1.033-.693-3-1.965-6.088-1.965-4.287 0-6.78 2.44-6.78 5.162 0 2.865 2.762 4.219 5.93 4.886 2.423.51 3.166.707 3.166 1.563 0 1.166-1.381 1.637-2.787 1.637-2.17 0-3.968-1.12-5.06-2.289l-2.257 2.93c.941.895 3.378 2.907 7.248 2.907s6.933-2.2 6.933-4.93c0-3.3-2.257-4.344-5.423-5.017M20.924 0h-8.003l-.002 23.59h4.027l.003-8.5h3.975c4.682 0 7.814-3.232 7.814-7.545S25.606 0 20.924 0m-.506 11.25H16.95V3.84h3.47c2.761 0 4.21 1.483 4.21 3.705s-1.449 3.706-4.21 3.706"/></svg>