<svg xmlns="http://www.w3.org/2000/svg" viewBox="0 0 27.35 23"><path fill="#805D25" d="M17.96 12.2h-.22c-.13 0-.37-.1-.37-.45 0-.58.03-1.7.03-2.78 0-1.42-.03-2.79-.03-2.79 0-.25.2-.45.44-.45h.7c.92 0 1.54.29 1.86.52a3.29 3.29 0 0 1 1.26 2.73c0 .97-.31 3.23-3.67 3.23zm-7.18-9.23-.02.02-.36.45-.02.02-.43.53-.97 1.16a.93.93 0 0 1-.58.31.7.7 0 0 1-.72-.26 5.67 5.67 0 0 1-.43-.56c-.21-.27-.43-.53-.65-.78v-.01c-.17-.2-.34-.39-.5-.6L5.88 3a7.03 7.03 0 0 1-.33-.4c-.15-.2-.13-.4.05-.55.09-.08.16-.1.28-.09.03.01.16.05.25.13A6.94 6.94 0 0 1 6.9 3l.34.45.24.28h.01l.22.26.47.52c.02.02.04.02.06.02.02 0 .04 0 .05-.02l.22-.23.01-.02c.08-.07.16-.15.23-.25.15-.18.32-.35.48-.52l.47-.51c.1-.13.2-.27.3-.38l.28-.37c.1-.13.27-.28.44-.3.09 0 .17.03.25.1l.02.01c.29.28.08.58-.21.93zm.02 4.51-.03.03-.58.72-.03.04c-.5.62-1.08 1.32-1.23 1.48a.96.96 0 0 1-.69.36.58.58 0 0 1-.25-.05c-.25-.08-.46-.37-.66-.62l-.27-.32-.9-1.08L6.14 8 4.3 5.8 3.61 5l-.01-.03c-.46-.54-.94-1.1-1.35-1.62l-.19-.21a2.38 2.38 0 0 1-.33-.42c-.1-.11-.15-.23-.13-.48a.44.44 0 0 1 .2-.34.5.5 0 0 1 .47-.06c.16.05.35.3.5.5l.1.12a778.38 778.38 0 0 1 5.39 6.6c.02 0 .04 0 .06-.03l.22-.26c.33-.39.94-1.12 1.23-1.44l.11-.14.26-.3.06-.07a.8.8 0 0 1 .3-.26h.01c.18-.03.38.1.48.23.14.25.02.43-.19.69zm.08 9.09c-.17.14-.44.2-.63-.03a43.1 43.1 0 0 1-1.4-1.82L8.3 14c-.02-.02-.04-.02-.06-.02a58.69 58.69 0 0 1-.55.6c-.7.79-1.97 2.26-2.61 3.03-.47.57-1.44 1.8-2.01 2.53l-.44.55a.66.66 0 0 1-.46.22h-.03a.45.45 0 0 1-.33-.21c-.16-.24-.09-.54.07-.73l.8-.91c.69-.76 1.61-1.8 2.05-2.31a79.15 79.15 0 0 1 3.14-3.53c.18-.12.38-.19.57-.19.2 0 .37.08.49.22l1.04 1.41.02.02.96 1.3c.17.24.06.47-.08.59zm-.02 4.35c-.17.14-.43.19-.62-.04-.37-.44-.71-.93-1.04-1.42-.26-.37-.53-.77-.8-1.13a.07.07 0 0 0-.06-.03.08.08 0 0 0-.06.03c-.57.74-1.97 2.47-2.05 2.56a.75.75 0 0 1-.54.27h-.02a.39.39 0 0 1-.31-.17c-.26-.36 0-.72.34-1.12l.1-.11.73-.9.03-.03.79-.95.01-.02c.13-.15.27-.33.43-.43.15-.1.34-.16.52-.16.23 0 .43.09.56.24.17.2.34.43.5.66l.02.03.17.23c.2.3.42.58.62.87l.08.1.68.94c.17.24.06.46-.08.58zm-8.7-5.74.09-.11c.3-.38.99-1.19 1.54-1.84h.01l.85-1c.07-.1.54-.7.56-.81.02-.08-.05-.16-.2-.32H5l-.05-.05-.64-.83c-.2-.26-.4-.53-.65-.83-.22-.26-.56-.62-.89-.98-.5-.54-1.07-1.15-1.14-1.33-.15-.37.03-.56.1-.63.09-.07.19-.1.3-.1.07 0 .15.01.2.06a37.27 37.27 0 0 1 3.3 3.93 2.66 2.66 0 0 1 .34.37c.12.13.26.29.31.43.11.28-.1.52-.29.75l-.06.07c-.69.83-1.87 2.3-2.65 3.28l-.78.97a.41.41 0 0 1-.3.11H2a.37.37 0 0 1-.29-.25c-.09-.27.25-.66.45-.9zM23.94 1.47A8.56 8.56 0 0 0 18.88.06c-.73 0-2.65-.06-3.2-.04 0 0-9.36-.06-14.05.04C.9.07 0 .53 0 1.62l.02 9.5L0 21.83C0 23 .97 23 1.41 23H16c.45 0 1.37 0 1.37-.84l.02-4.52c9.1 0 9.96-6.14 9.96-8.76 0-3.4-1.42-5.94-3.42-7.41z"/></svg>
