<svg xmlns="http://www.w3.org/2000/svg" viewBox="0 0 378.6 500"><path d="M98.7 0 46.2 74v42L.4 137.6l-.4-.2v273.1l178.4 84.3 10.9 5.1 10.9-5.1 178.4-84.3V137.5l-.4.1-45.7-21.7V74l-1.6-2.3-51-71.8-52.6 74v.1L189 20.2l-38 53.5-1.3-1.9zm9.3 43 20.4 28.7H69l20.1-28.3zm181.2 0 20.3 28.7h-59.3l20.1-28.3zm-90.9 20.3 20.4 28.6h-59.3l20.1-28.3ZM63.5 86h28.1v94.7l-28.1-13.3zm42.5 0h28v114.7l-28-13.2zm138.6 0h28.1v101.4l-28 13.3V86zm42.6 0h28v81.3l-28 13.3zm-133.4 20.2h28.1v117.1l-28.1-13.3zm42.5 0h28v104l-28 13.3V106.3zm136.2 31.1 24.7 10.2-24.7 11.7zm-286.3 0v21.9l-24.8-11.7zM21.8 172l156.6 74v224.8l-156.6-74Zm335 0v224.9l-156.6 74v-225Z"/></svg>