<svg xmlns="http://www.w3.org/2000/svg" xmlns:xlink="http://www.w3.org/1999/xlink" viewBox="0 0 24.6 31.663"><linearGradient id="a"><stop stop-color="#ffa02f" offset="0"/><stop stop-color="#e00034" offset="1"/></linearGradient><linearGradient id="b" x1="-5.474" x2="15.125" y1="22.479" y2="54.362" gradientTransform="translate(0 -9)" gradientUnits="userSpaceOnUse" xlink:href="#a"/><linearGradient id="c" x1="19.865" x2="11.692" y1="33.423" y2="12.328" gradientTransform="translate(0 -9)" gradientUnits="userSpaceOnUse" xlink:href="#a"/><path d="M12.475 1.257c0-.442.092-.86.23-1.257-1.989 1.163-6.118 4.118-6.118 8.62 0 7.392 5.81 7.875 5.81 12.177 0 1.817-1.336 2.81-3.098 2.81-2.903 0-6.401-4.35-4.26-9.93 0 0-5.035 2.274-5.035 7.213 0 6.26 5.505 10.773 12.297 10.773 6.793 0 12.299-5.074 12.299-11.334 0-9.57-9.148-13.498-11.347-16.764a3.851 3.851 0 0 1-.778-2.308z" clip-rule="evenodd" fill="url(#b)" fill-rule="evenodd"/><path d="M.616 24.425c2.24 4.909 9.046 6.38 12.375 3.201 2.732-2.61 1.035-6.472-1.59-9.643.596.803 1.004 1.675 1.004 2.813 0 1.823-1.34 2.82-3.106 2.82-2.908 0-6.413-4.365-4.269-9.964 0 0-3.937 1.783-4.854 5.617-.044.6-.105 1.35-.176 2.18.056 1.051.27 2.046.616 2.976z" clip-rule="evenodd" fill="url(#c)" fill-rule="evenodd"/></svg>