<svg xmlns="http://www.w3.org/2000/svg" viewBox="0 0 29.002 32.005"><defs><linearGradient id="a" x1="5.76" x2="23.25" y1="11.1" y2="11.1" gradientTransform="translate(.002 .002)" gradientUnits="userSpaceOnUse"><stop stop-color="#ddeaff" offset="0"/><stop stop-color="#e3eeff" offset="1"/></linearGradient><linearGradient id="b" x1="14.5" x2="23.25" y1="18.51" y2="18.51" gradientTransform="translate(.002 .002)" gradientUnits="userSpaceOnUse"><stop stop-color="#98c1f8" offset="0"/><stop stop-color="#73a5f2" offset="1"/></linearGradient><linearGradient id="c" x1="5.76" x2="14.5" y1="18.51" y2="18.51" gradientTransform="translate(.002 .002)" gradientUnits="userSpaceOnUse"><stop stop-color="#abcafa" offset="0"/><stop stop-color="#b7d2fa" offset="1"/></linearGradient></defs><path d="M13.282.323a2.45 2.45 0 0 1 2.43 0l12.07 6.8a2.39 2.39 0 0 1 1.22 2.07v13.61a2.37 2.37 0 0 1-1.22 2.07l-12.07 6.81a2.45 2.45 0 0 1-2.43 0l-5.62-3.17a.82.82 0 0 0-.65 0l-6 3.38a.68.68 0 0 1-.31.08.62.62 0 0 1-.7-.66V9.192a2.39 2.39 0 0 1 1.22-2.07l12.07-6.81" fill="#3d6cd3"/><path d="M5.762 11.072v.06l8.74 4.94.04.01 8.71-4.93-8.76-5.04z" fill="url(#a)"/><path d="m14.542 16.072-.04-.02v9.84l8.75-4.89v-9.86z" fill="url(#b)"/><path d="m5.762 20.992 8.73 4.9h.01v-9.84l-8.74-4.93z" fill="url(#c)"/></svg>