<svg xmlns="http://www.w3.org/2000/svg" width="132.035" height="132.035"><path d="M58.357 23.267c-3.594 5.484-4.919 12.105-4.919 24.212 0 12.673 1.135 18.16 5.108 23.644 3.215 4.35 7.566 6.621 13.24 6.621 12.297 0 18.16-9.836 18.16-30.643 0-20.997-5.863-31.212-17.97-31.212-6.052 0-10.215 2.271-13.62 7.378zm-5.107-4.54C62.518 4.729 70.273 0 83.704 0c22.32 0 35.94 18.16 35.94 47.856 0 29.51-13.808 46.912-37.454 46.912-7.376 0-14.564-2.079-19.293-5.485-3.216-2.459-5.864-6.054-9.27-12.484v30.076c0 9.457 1.513 10.782 12.674 11.162h4.351v13.998H12.391v-13.998h4.35c8.701-.38 9.837-1.705 9.837-11.162v-78.88c0-9.458-1.136-10.782-9.838-11.159h-4.35v-14h40.86v15.89" fill="#61ccf5"/></svg>