<svg xmlns="http://www.w3.org/2000/svg" width="149.6" height="149.6" overflow="visible"><path fill="#fff" d="M140.35 0H9.25v149.6h131.1z"/><path fill="#fdb813" d="M84.75 101.5c-1.9 1.1-3.1 2.4-3.8 4.1-1.4 3.8-.6 8.1 2.3 12.9l-2.8 2.8-3.2 4.7c-1.5 4.1-.9 8.4 2.1 13.1 1.8 3.1 5.1 4.6 10 4.5h12.5c1.9.2 2.7-.4 2.3-1.9V119h-7.1v5.7l-8-11.3-1.2-3.5c0-2 .9-2.9 2.7-2.7l1 .3c.8.4 1.1 1 1.3 1.9v3.2h8v-2.7c-.1-2.4-.5-4.3-1.3-5.7l-1.1-1.4c-1.7-1.6-4-2.4-6.9-2.6l-4.1.3z"/><path fill="#fff" d="M92.15 136.6h4.4l.1-.5-9.7-11.4c-.9.6-1.5 1.8-1.9 3.6-.5 2.3-.1 4.4 1.2 6.4l1.6 1.1z"/><path fill="#1689c5" d="M131.45 121.8h-11.5v12.6h11.5v9.2h3.2V5.6h-27.5V144h1.6V91.4h22.7v9.3h-11.5v11.8h11.5zM33.85 104.6c-.7-3.1-2.5-4.4-5.1-3.9V116c3 .5 4.7-1.1 5.1-4.8z"/><path fill="#1689c5" d="M54.35 90.9l5.6-.8c4.1.2 7.3 1.7 9.4 4.6l1.6 2.5c.8 2.4 1.2 5.7.8 9.8l-10.1-.1v-5c-.2-1.5-.9-2.3-2.5-2.3-1.5.1-2.3 1.1-2.3 3v29.9l.3 1.4c.4.9 1 1.5 1.9 1.6 2 .7 3.1-.2 3.1-2.5v-8.8h-2.8V115h12.8v12.4l34.3-121.8h-91.6v138.5h3.3V91.2h10.8l5.6.6c4.1 1.2 6.9 3.3 8.4 6.6.8 1.7 1.3 4.6 1.7 8.6.4 5.6-.1 9.2-1.3 10.7-2.3 5.2-6 7.8-11.2 7.4l-3.6-.1v18.7h25.4c-5.1-1.1-7.6-5-7.6-11.3v-30.3c-.7-6 2-9.8 8-11.2z"/></svg>