<svg xmlns="http://www.w3.org/2000/svg" viewBox="0 0 78.483 100"><path d="M68.393 78.328c-2.752.336-6.935.872-7.944 1.15-1.028.281-2.03.934-2.469 2.466-.288 1.008-.82 5.2-1.152 7.956a34.188 34.188 0 0 0 11.565-11.572zM39.255 94.786a33.857 33.857 0 0 0 16.449-4.237c-.319-2.69-.918-7.514-1.232-8.604-.435-1.533-1.439-2.185-2.463-2.466-1.544-.424-10.437-1.447-10.437-1.447v-.613s8.893-1.023 10.437-1.448c1.024-.281 2.028-.93 2.463-2.466.417-1.452 1.358-9.615 1.459-10.492-6.099 1.129-10.28 3.942-15.522 6.623-5.574 2.85-11.011 4.893-18.085 4.893-6.24 0-11.79-2.027-15.813-4.516 4.027 14.295 17.162 24.774 32.745 24.774zM5.792 21.476h3.645v-2.848h1.298c3.395 0 5.541-1.749 5.541-4.797 0-3.348-2.296-4.546-6.04-4.546-1.449 0-3.195.1-4.444.25zm11.933 0h3.645v-4.697h3.794v4.697h3.645V9.534h-3.645v4.746H21.37V9.534h-3.645zm13.78 0h3.644V9.534h-3.644zm6.34 0h6.59l.549-2.399H41.49V9.534h-3.645zm8.437 0h3.646V9.534h-3.646zm6.392 0h3.643v-2.848h1.299c3.395 0 5.542-1.749 5.542-4.797 0-3.348-2.297-4.546-6.042-4.546-1.447 0-3.196.1-4.442.25zm-13.418 5.277c-2.88 0-5.675.36-8.346 1.034.143 1.197.55 4.519.748 5.212.243.848.798 1.209 1.367 1.365.85.234 5.642.777 5.642.777v.34s-4.791.566-5.642.8c-.569.156-1.124.518-1.367 1.366-.19.66-.568 3.709-.726 5.03 2.834.375 5.877.725 5.877.725v.614s-8.894 1.023-10.432 1.446c-1.028.28-2.03.933-2.469 2.466-.405 1.416-1.293 9.126-1.425 10.288 6.263-1.141 11.623-4.39 15.645-6.332 5.719-2.762 10.957-5.025 18.101-5.025 6.211 0 11.693 1.99 15.712 4.464-4.094-14.191-17.177-24.57-32.685-24.57zm30.692-8.575c0 .75-.549 1.15-1.897 1.15-1.198 0-3.046-.4-4.144-.95l.399 2.748c1.099.4 2.596.6 3.795.6 3.046 0 5.542-1 5.542-3.998 0-3.996-5.741-3.247-5.741-5.145 0-.65.649-.95 1.697-.95 1.147 0 2.397.25 3.245.6l-.3-2.599c-.948-.2-1.798-.35-3.345-.35-2.945 0-4.943 1.162-4.943 3.598 0 4.197 5.692 3.348 5.692 5.296zm-13.43 44.738c.079.695 1.043 9.119 1.463 10.59.439 1.537 1.441 2.185 2.469 2.466 1.093.303 5.904.907 8.594 1.23a33.788 33.788 0 0 0 3.983-12.347c-3.75-1.51-8.06-2.294-11.598-2.294-1.793 0-3.414.127-4.911.356zM17.937 41.954c1.023-.28 2.028-.929 2.462-2.466.284-.984.799-5.004 1.13-7.756A34.194 34.194 0 0 0 10.196 43.08c2.75-.337 6.753-.854 7.742-1.127zM5.505 56.502c3.73 1.485 8.008 2.227 11.544 2.227a29.22 29.22 0 0 0 4.777-.396c-.136-1.22-1.02-8.993-1.427-10.404-.434-1.533-1.439-2.186-2.462-2.466-1.075-.295-5.705-.88-8.424-1.208a33.794 33.794 0 0 0-4.009 12.248zm24.21-18.855c-.24-.848-.796-1.209-1.363-1.365-.675-.185-3.8-.576-5.087-.733.239 1.775.48 3.369.644 3.94.439 1.537 1.44 2.185 2.468 2.466.586.162 2.237.41 4.058.656-.163-1.354-.532-4.314-.72-4.964zm0-4.648c.194-.671.581-3.807.735-5.092a33.796 33.796 0 0 0-7.75 3.144c.135 1.14.316 2.62.502 4.033 1.247-.145 4.464-.531 5.15-.719.567-.156 1.123-.517 1.363-1.366zM5.495 64.985c4.302 2.74 10.29 4.095 15.309 4.095 7.602 0 12.179-2.264 17.192-4.765 6.89-3.437 12.61-7.062 21.587-7.016 5.434.029 10.236 1.45 13.687 3.285a34.367 34.367 0 0 0-.278-4.229c-4.298-2.72-10.268-4.116-15.266-4.116-7.601 0-12.167 2.324-17.184 4.815-6.438 3.198-12.602 7.04-21.55 7.04-5.452 0-13.753-3.336-13.753-3.323 0 1.411.088 2.847.256 4.214zM78.483 2.15v58.586c0 21.632-17.607 39.264-39.24 39.264C17.233 100 0 82.368 0 60.736V2.15C5.11 1.52 21.492 0 39.244 0c17.355 0 33.97 1.427 39.239 2.15zM48.523 84.4c-.19-.66-.621-4.393-.621-4.393h-.268S47.2 83.74 47.01 84.4c-.187.663-.62.942-1.062 1.064-.665.183-4.394.624-4.394.624v.264s3.729.44 4.394.623c.442.122.875.403 1.062 1.063.19.661.623 4.394.623 4.394h.268s.432-3.733.622-4.394c.189-.66.62-.941 1.064-1.063.662-.182 4.391-.623 4.391-.623v-.264s-3.73-.441-4.391-.624c-.443-.122-.875-.401-1.064-1.064zm11.22-70.518c0-1.499-.85-2.348-2.646-2.348-.188 0-.387 0-.6.013v4.933h.6c1.897 0 2.646-1.05 2.646-2.598zM10.217 16.48h-.6v-4.933c.212-.013.412-.013.6-.013 1.797 0 2.646.85 2.646 2.348 0 1.549-.75 2.598-2.646 2.598z"/></svg>