<svg xmlns="http://www.w3.org/2000/svg" viewBox="0 0 11.798 5.119"><defs><linearGradient id="a" x2="1" gradientTransform="translate(0 2.87) scale(11.797)" gradientUnits="userSpaceOnUse"><stop stop-color="#ed1c24" offset="0"/><stop stop-color="#f25c19" offset=".141"/><stop stop-color="#f25c19" offset=".173"/><stop stop-color="#f9a70f" offset=".323"/><stop stop-color="#f9a70f" offset=".369"/><stop stop-color="#f9a70f" offset=".41"/><stop stop-color="#80cc28" offset=".612"/><stop stop-color="#42b298" offset=".798"/><stop stop-color="#42b298" offset=".82"/><stop stop-color="#42b298" offset=".846"/><stop stop-color="#2b6bb2" offset="1"/></linearGradient></defs><path d="M0 .277v2.782h.511v-.008c0-.613.354-1.274 1.132-1.274.635 0 .984.407.984 1.147v.135h.511v-.12c0-1.006-.478-1.56-1.346-1.56-.816 0-1.136.528-1.214.69l-.067.135V.276C.511.106.413 0 .255 0 .098 0 0 .106 0 .276m8.352 2.783h-.327c-.121 0-.194.07-.194.189 0 .118.073.189.194.189h.326c.074 1.027.811 1.682 1.924 1.682.464 0 .828-.07 1.146-.223.078-.037.166-.106.143-.231a.162.162 0 0 0-.073-.12c-.051-.031-.123-.035-.207-.01-.063.02-.12.04-.174.06-.203.071-.378.134-.785.134-.86 0-1.43-.503-1.451-1.28v-.013h2.675c.154 0 .243-.08.249-.228V3.18c-.003-1.67-1.253-1.8-1.636-1.8-1.005 0-1.723.68-1.81 1.679m.522-.018c.06-.776.57-1.278 1.302-1.278.558 0 1.154.336 1.154 1.281v.015H8.872zM6.799 1.684v1.375h.511V1.684c0-.164-.095-.262-.255-.262s-.256.098-.256.262m-2.62 0v1.375h.511V1.684c0-.164-.095-.262-.255-.262s-.255.098-.255.262M6.8 3.436v.125c0 .65-.467 1.16-1.062 1.16-.705 0-1.048-.375-1.048-1.146v-.139h-.51v.167c0 1.006.474 1.516 1.41 1.516.55 0 .954-.24 1.2-.71l.01-.018v.423c0 .164.095.262.255.262s.255-.098.255-.262V3.436zm-4.173 0V4.8c0 .17.098.276.256.276.157 0 .255-.106.255-.276V3.436zM0 3.436V4.8c0 .17.098.276.255.276.158 0 .256-.106.256-.276V3.436z" fill="url(#a)"/></svg>