<svg xmlns="http://www.w3.org/2000/svg" width="44.588" height="44.588" viewBox="0 0 11.797 11.797"><defs><linearGradient x1="0" y1="0" x2="1" y2="0" gradientUnits="userSpaceOnUse" gradientTransform="translate(74.37 100.256) scale(11.79738)" spreadMethod="pad" id="a"><stop offset="0" stop-color="#ed1c24"/><stop offset=".141" stop-color="#f25c19"/><stop offset=".173" stop-color="#f25c19"/><stop offset=".323" stop-color="#f9a70f"/><stop offset=".369" stop-color="#f9a70f"/><stop offset=".41" stop-color="#f9a70f"/><stop offset=".612" stop-color="#80cc28"/><stop offset=".798" stop-color="#42b298"/><stop offset=".82" stop-color="#42b298"/><stop offset=".846" stop-color="#42b298"/><stop offset="1" stop-color="#2b6bb2"/></linearGradient></defs><path d="M74.37 97.663v2.782h.511v-.008c0-.613.354-1.274 1.132-1.274.635 0 .984.407.984 1.147v.135h.511v-.12c0-1.006-.478-1.56-1.346-1.56-.816 0-1.136.528-1.214.69l-.067.135v-1.928c0-.17-.098-.276-.256-.276-.157 0-.255.106-.255.276m8.352 2.783h-.327c-.121 0-.194.07-.194.189 0 .118.073.189.194.189h.326c.074 1.027.811 1.682 1.924 1.682.464 0 .828-.07 1.146-.223.078-.037.166-.106.143-.231a.162.162 0 0 0-.073-.12c-.051-.031-.123-.035-.207-.01-.063.02-.12.04-.174.06-.203.071-.378.134-.785.134-.86 0-1.43-.503-1.451-1.28v-.013h2.675c.154 0 .243-.08.249-.228v-.028c-.003-1.67-1.253-1.8-1.636-1.8-1.005 0-1.723.68-1.81 1.679m.522-.018c.06-.776.57-1.278 1.302-1.278.558 0 1.154.336 1.154 1.281v.015h-2.458zm-2.075-1.357v1.375h.511V99.07c0-.164-.095-.262-.255-.262s-.256.098-.256.262m-2.62 0v1.375h.511V99.07c0-.164-.095-.262-.255-.262s-.255.098-.255.262m2.62 1.752v.125c0 .65-.467 1.16-1.062 1.16-.705 0-1.048-.375-1.048-1.146v-.139h-.51v.167c0 1.006.474 1.516 1.41 1.516.55 0 .954-.24 1.2-.71l.01-.018v.423c0 .164.095.262.255.262s.255-.098.255-.262v-1.378zm-4.173 0v1.364c0 .17.098.276.256.276.157 0 .255-.106.255-.276v-1.364zm-2.627 0v1.364c0 .17.098.276.255.276.158 0 .256-.106.256-.276v-1.364z" fill="url(#a)" transform="translate(-74.37 -94.576)"/></svg>