<svg xmlns="http://www.w3.org/2000/svg" xmlns:xlink="http://www.w3.org/1999/xlink" width="212.7" height="212.7"><defs><linearGradient id="b" x1="302.09" y1="145.21" x2="328.69" y2="134.26" gradientUnits="userSpaceOnUse"><stop offset="0" stop-color="#f60"/><stop offset="1" stop-color="#fc0"/></linearGradient><linearGradient id="a" x1="253.31" y1="176.36" x2="362.06" y2="33.96" gradientUnits="userSpaceOnUse"><stop offset="0" stop-color="#005082"/><stop offset=".6" stop-color="#1e82c0"/><stop offset="1" stop-color="#3db5ff"/></linearGradient><linearGradient id="e" x1="271.63" y1="248.98" x2="326.4" y2="109.72" xlink:href="#a"/><linearGradient id="f" x1="266.02" y1="160.78" x2="358.34" y2="88.8" gradientUnits="userSpaceOnUse"><stop offset="0" stop-color="#e6e6e6"/><stop offset="1" stop-color="#fefefe"/></linearGradient><linearGradient id="g" x1="345.46" y1="134.87" x2="401.81" y2="130.53" gradientTransform="rotate(.79 326.38 105.1)" xlink:href="#b"/><linearGradient xlink:href="#b" id="c" gradientUnits="userSpaceOnUse" x1="302.09" y1="145.21" x2="328.69" y2="134.26"/><linearGradient xlink:href="#a" id="d" gradientUnits="userSpaceOnUse" x1="253.31" y1="176.36" x2="362.06" y2="33.96"/></defs><g fill-rule="evenodd"><path d="M316.15 81.1a55.89 55.89 0 1019.41 110.07z" transform="translate(-178.199 -51.167)" fill="url(#c)"/><path d="M203.45 106.87a52 52 0 01-25.25-36.08c19.29 12.46 63.07-11.11 102.73-18.11A108.91 108.91 0 01361.33 71l-6 13.06-28.78 32.1-18.49 73c-5.36 19.49-1.48 46.2 35.94 72.4-99.87 17.61-179-70.87-140.54-154.65" transform="translate(-178.199 -51.167)" fill="url(#d)"/><path d="M355.53 83.6l-.2.45-28.78 32.1-18.49 73c-5.34 19.39 5.77 48.2 35.94 72.4-131.38-8.14-145.82-165-30.25-189.2 11.86-2.48 27.5 6.19 41.78 11.27" transform="translate(-178.199 -51.167)" fill="url(#e)"/><path d="M353.53 81.59c.52.35 1.86 1.13 2.37 1.49l-47.84 106c-23.06-4.78-40.38-19.28-45.39-47.7-5.01-28.42 15.84-63 48.07-68.65a59 59 0 0142.79 8.81" transform="translate(-178.199 -51.167)" fill="url(#f)"/><path d="M361.06 70.79a71.41 71.41 0 01-30.14 128.55c14.11-19.57-30.7-32.06-21.15-55.62 6.07-15 21.4-6.44 27.91-20.47z" transform="translate(-178.199 -51.167)" fill="url(#g)"/><path d="M137.281 35.553a17 17 0 1017 17 17 17 0 00-17-17"/><path d="M142.031 40.183a6 6 0 106 6 6 6 0 00-6-6" fill="#fff"/></g></svg>