<svg xmlns="http://www.w3.org/2000/svg" width="397" height="397" clip-rule="evenodd" fill-rule="evenodd" stroke-linejoin="round" stroke-miterlimit="1.414"><path d="M397 198.5C397 308.128 308.13 397 198.5 397 88.871 397 0 308.128 0 198.5S88.871 0 198.5 0C308.13 0 397 88.872 397 198.5zM163.124 327.817c3.848 0 6.947-3.462 6.947-7.76V76.944c0-4.301-3.099-7.759-6.947-7.76h-46.016c-3.847.001-6.947 3.459-6.947 7.76v243.113c0 4.298 3.1 7.76 6.947 7.76zm21.804-218.654V79.242c0-7.365 7.416-12.847 14.746-8.539 5.872 3.45 123.247 73.104 133.266 79.06 6.578 3.911 6.465 13.244 0 17.162-7.215 4.37-125.037 74.375-133.57 79.238-6.246 3.567-14.442-.373-14.442-8.487v-29.962c0-28.312 49.003-36.419 56.213-40.789 6.469-3.918 6.579-13.251 0-17.162-10.017-5.956-56.213-12.367-56.213-40.6z" fill="#1da456"/></svg>