<svg xmlns="http://www.w3.org/2000/svg" width="800" height="381" fill="none"><path fill="#8000DB" d="M50.521 194.764c-1.382-7.857-3.04-15.439-6.911-21.573-5.253-8.271-14.514-13.923-32.76-14.061l-.276 10.339c6.497-.207 12.717.414 18.039 3.791 4.492 2.826 8.293 7.513 11.196 15.301-15.896-5.376-24.88-3.791-31.308.345-3.318 2.136-5.944 4.962-8.501 7.857l7.188 6.617c.414-.621.898-1.172 1.313-1.655 7.74-9.166 16.725-8.891 26.263-3.859-20.596 9.856-23.913 27.225-22.808 39.7.968.138 10.09 0 10.09 0-.898-12.2 7.81-28.535 25.918-33.428l2.696-5.514-.139-3.86Z"/><path fill="#008298" d="M185.982 87.45c30.478-42.182 45.545-63.066 33.45-73.198-7.948-6.685-18.729-1.93-36.146 11.028-.622 13.854-4.008 33.566-8.431 59.688l11.127 2.482Z"/><path fill="#580098" d="M205.264 340.263h-11.196c-.277 15.921.138 32.325-16.933 37.563.553.069 1.175.138 1.797.207 1.797.207 3.594.069 5.322-.345 21.217-5.376 20.734-21.642 21.01-37.425Z"/><path fill="#98005E" d="m217.359 340.263-11.819-27.846h10.989l-9.261-26.26h-15.274l7.119 26.26h-8.432l9.123 27.846h17.555Z"/><path fill="#8000DB" d="M177.135 377.826c17.071-5.238 16.656-21.573 16.933-37.563h-40.569c-.138 23.71 8.432 35.289 23.636 37.563Z"/><path fill="#FF009E" d="M190.681 312.417h8.432l-7.119-26.26-41.191-.206-9.606 27.293 10.436.828-10.436 26.191h58.607l-9.123-27.846Z"/><path fill="#98005E" d="m105.189 313.382-10.92-27.638-15.343-.069 7.534 27.087h-8.64l9.33 28.121 19.352.207-13.477-27.845 12.164.137Z"/><path fill="#FF009E" d="M77.82 312.762h8.64l-7.534-27.087-41.813-.207-10.09 28.121 10.643.827-10.643 26.329 60.128.138-9.33-28.121Z"/><path fill="#00BEDD" d="M173.265.399c-16.38-3.998-25.986 22.193-49.761 73.197l51.42 11.372c4.423-26.122 7.809-45.834 8.431-59.688.622-14.819-2.004-22.883-10.09-24.881Z"/><path fill="#F90" d="m204.711 259.208 13.546.896-14.444-28.741H215.7l-10.712-26.122h-17.14l9.675 26.122h-10.712l12.993 28.741-12.233-.896 12.993 26.949 18.522.069-14.375-27.018Z"/><path fill="#008298" d="m218.257 178.223-9.952-27.846h-19.282l8.224 27.846H185.36l10.436 27.018h20.734l-12.717-27.018h14.444Z"/><path fill="#FFE001" d="M123.504 73.596c-.069 0-.069.138 0 0l-22.876 45.283 12.647.276-15.204 31.222h109.957l-14.237-5.996c-2.142-.896-3.455-2.619-2.902-3.791.069-.138.138-.207.207-.276.691-.965 2.626-1.102 4.561-.275l.622.275 9.953 4.205 8.639 3.653V93.859l-91.367-20.263Z"/><path fill="#fff" d="M178.863 125.289c6.911 0 12.579-5.583 12.579-12.544 0-6.893-5.598-12.545-12.579-12.545-6.911 0-12.578 5.583-12.578 12.545 0 6.961 5.667 12.544 12.578 12.544Zm0-18.816c3.456 0 6.289 2.825 6.289 6.272 0 3.446-2.833 6.272-6.289 6.272-3.455 0-6.289-2.826-6.289-6.272 0-3.447 2.834-6.272 6.289-6.272Z"/><path fill="#000" d="M179.258 119.009c3.467-.216 6.102-3.193 5.887-6.65-.216-3.458-3.202-6.086-6.668-5.871-3.467.215-6.103 3.193-5.887 6.65.216 3.458 3.201 6.086 6.668 5.871ZM214.871 150.377v-2.205l-18.592-7.927-.622-.275c-1.935-.827-3.87-.69-4.561.275-.069.069-.138.207-.207.276-.484 1.172.829 2.895 2.902 3.791l14.238 5.996h.276l6.566.069Z"/><path fill="#00BEDD" d="M185.36 178.223h11.818l-8.155-27.846h-77.545l-11.749 27.846h11.818l-11.127 26.949h.139v.069h95.237l-10.436-27.018Z"/><path fill="#FFE001" d="m100.351 205.172-49.623-6.686-15.204 30.809h10.021c-.968 1.31-2.004 2.688-2.972 4.136l13.961 13.026 18.107-17.093 17.624 17.507 18.108-17.093 18.107 17.093 17.624-17.507.553.551 17.485 16.473 18.108-17.093 6.911 6.824-2.143-4.825h10.713l-9.676-26.191H100.49"/><path fill="#FFE001" d="m187.571 259.208 12.233.827-2.488-5.445-15.274-15.163-18.038 17.989-18.108-17.989-18.038 18.058-17.693-17.645-18.107 17.094-17.486-17.369-18.038 17.989-18.038-17.92c-1.175 1.93-8.225 14.198-10.644 18.816l13.754.827-12.233 26.191 171.191.758-12.993-27.018Z"/><path fill="#000" d="m189.023 236.188-6.912-6.824-18.107 17.093-18.108-17.093-17.623 17.507-18.108-17.093-18.107 17.093-17.624-17.507-18.107 17.093-13.961-13.026c-1.313 1.929-2.695 3.997-4.009 6.203l18.039 17.92 18.038-17.989 17.486 17.369 18.107-17.094 17.693 17.645 18.107-17.989 18.108 17.989 18.038-17.989 15.274 15.163-8.224-18.471Z"/><path fill="#580098" d="M81.553 340.814c-.277 16.059.207 32.532-16.933 37.839 1.037.138 2.074.276 3.18.345a9.36 9.36 0 0 0 2.764-.207c.83-.207 1.59-.413 2.35-.62 1.105-.345 2.211-.689 3.179-1.034a54.424 54.424 0 0 0 1.935-.827c.415-.207.83-.414 1.175-.62.346-.207.76-.414 1.106-.621a31.807 31.807 0 0 0 1.59-1.033c.345-.207.621-.483.967-.69.691-.551 1.382-1.103 1.935-1.654a45.225 45.225 0 0 0 1.797-1.93c.207-.275.415-.482.622-.758.276-.345.484-.689.691-1.034.415-.689.83-1.378 1.175-2.068.207-.344.346-.758.553-1.102.07-.207.207-.414.276-.621.139-.275.208-.62.346-.896.07-.137.138-.275.138-.482.207-.62.415-1.241.553-1.861 0-.138.07-.276.07-.345.137-.413.206-.827.276-1.24 0-.069.069-.207.069-.276.069-.482.207-.965.276-1.447.07-.276.07-.552.138-.827.07-.276.07-.621.139-.896.207-1.379.345-2.689.414-4.136.139-1.723.208-3.446.208-5.169.069-1.861.069-3.722.138-5.583l-11.127-.207Z"/><path fill="#8000DB" d="M40.984 340.745c-.07 4.618.207 8.822.83 12.544.206 1.448.483 2.826.828 4.136.208.896.484 1.723.692 2.55 3.524 11.166 10.781 17.024 21.217 18.609 17.14-5.307 16.656-21.78 16.933-37.839h-40.5Z"/><path fill="#98005E" d="M255.785 122.808c-4.147 10.338-17.762 18.747-40.983 20.815V150.308c1.589-.069 3.04-.206 4.561-.275a59.162 59.162 0 0 0 5.183-.621c1.521-.206 2.972-.482 4.354-.758 6.29-1.309 11.473-3.239 15.62-5.652.898-.551 1.797-1.102 2.557-1.654.415-.276.76-.551 1.175-.896a30.03 30.03 0 0 0 3.041-2.826c.622-.62 1.106-1.309 1.589-1.999 1.175-1.723 2.074-3.515 2.627-5.307.691-2.343.76-4.893.276-7.512Z"/><path fill="#FF009E" d="M219.847 95.1c-1.59-.413-3.249-.896-4.976-1.24v49.832c23.221-2.068 36.837-10.546 40.983-20.815-2.073-10.615-14.099-21.643-36.007-27.777Z"/><path fill="#fff" d="M394.775 145.723c11.239 0 19.996 2.716 26.271 8.148 6.369 5.432 9.554 13.019 9.554 22.759 0 9.834-3.185 17.468-9.554 22.9-6.275 5.338-15.032 8.008-26.271 8.008h-18.404v30.907h-24.163v-92.722h42.567Zm-3.793 43.692c10.209 0 15.313-4.262 15.313-12.785s-5.104-12.784-15.313-12.784h-14.611v25.569h14.611ZM456.304 160.053c-4.87 0-8.429-.89-10.677-2.67-2.154-1.873-3.231-4.776-3.231-8.71 0-4.027 1.077-6.931 3.231-8.71 2.248-1.873 5.807-2.81 10.677-2.81 4.871 0 8.383.937 10.537 2.81 2.248 1.779 3.372 4.683 3.372 8.71 0 3.934-1.124 6.837-3.372 8.71-2.154 1.78-5.666 2.67-10.537 2.67Zm11.942 78.392h-23.883v-70.244h23.883v70.244ZM531.327 166.796c7.399 0 13.3 2.154 17.701 6.463 4.402 4.308 6.603 10.442 6.603 18.403v46.783h-23.883v-40.461c0-8.616-3.324-12.925-9.974-12.925-3.746 0-6.79 1.312-9.132 3.934-2.341 2.623-3.512 6.697-3.512 12.223v37.229h-23.883v-70.244h21.354l.703 14.049c2.06-5.058 5.151-8.898 9.272-11.52 4.214-2.623 9.132-3.934 14.751-3.934ZM640.221 224.677c1.686 0 3.044-.187 4.075-.562l-1.405 13.627c-2.81 1.312-6.229 1.967-10.256 1.967-4.589 0-8.429-.843-11.52-2.529-3.091-1.779-5.198-4.402-6.322-7.867-1.873 3.372-4.917 5.994-9.132 7.867-4.214 1.78-8.803 2.67-13.767 2.67-7.306 0-13.066-1.639-17.28-4.917-4.215-3.372-6.322-8.196-6.322-14.471 0-10.396 6.322-16.905 18.966-19.527l24.304-5.058v-1.967c0-3.278-.937-5.853-2.81-7.727-1.779-1.966-4.214-2.95-7.305-2.95-6.837 0-11.005 3.512-12.504 10.537l-20.23-4.777c1.311-6.931 4.824-12.363 10.537-16.296 5.807-3.934 13.674-5.901 23.602-5.901 10.302 0 18.263 2.295 23.883 6.884 5.713 4.589 8.569 11.192 8.569 19.809v25.709c0 3.653 1.639 5.479 4.917 5.479Zm-40.741-.281c3.465 0 6.322-.983 8.57-2.95 2.341-2.061 3.512-5.058 3.512-8.991v-3.934l-11.38 2.388c-2.903.656-5.01 1.546-6.322 2.669-1.311 1.031-1.966 2.576-1.966 4.637 0 2.06.702 3.605 2.107 4.636 1.405 1.03 3.231 1.545 5.479 1.545ZM702.397 234.511c-2.341 1.592-5.339 2.904-8.991 3.934a42.362 42.362 0 0 1-10.818 1.405c-8.335 0-14.751-1.78-19.247-5.339-4.495-3.559-6.79-9.272-6.883-17.139V185.2h-12.082v-16.999h12.082v-15.735l23.882-6.603v22.338h20.933V185.2H680.34v28.238c0 6.275 3.091 9.413 9.273 9.413 3.933 0 7.352-1.031 10.255-3.091l2.529 14.751ZM781.258 224.677c1.686 0 3.044-.187 4.074-.562l-1.405 13.627c-2.81 1.312-6.228 1.967-10.256 1.967-4.589 0-8.429-.843-11.52-2.529-3.09-1.779-5.198-4.402-6.322-7.867-1.873 3.372-4.917 5.994-9.131 7.867-4.215 1.78-8.804 2.67-13.768 2.67-7.305 0-13.065-1.639-17.28-4.917-4.215-3.372-6.322-8.196-6.322-14.471 0-10.396 6.322-16.905 18.966-19.527l24.304-5.058v-1.967c0-3.278-.936-5.853-2.809-7.727-1.78-1.966-4.215-2.95-7.306-2.95-6.837 0-11.005 3.512-12.503 10.537l-20.23-4.777c1.311-6.931 4.823-12.363 10.536-16.296 5.807-3.934 13.674-5.901 23.602-5.901 10.302 0 18.263 2.295 23.883 6.884 5.713 4.589 8.57 11.192 8.57 19.809v25.709c0 3.653 1.639 5.479 4.917 5.479Zm-40.742-.281c3.466 0 6.322-.983 8.57-2.95 2.342-2.061 3.512-5.058 3.512-8.991v-3.934l-11.379 2.388c-2.904.656-5.011 1.546-6.322 2.669-1.311 1.031-1.967 2.576-1.967 4.637 0 2.06.702 3.605 2.107 4.636 1.405 1.03 3.232 1.545 5.479 1.545Z"/></svg>