<svg xmlns="http://www.w3.org/2000/svg" xmlns:xlink="http://www.w3.org/1999/xlink" height="32.041" width="32.041" xml:space="preserve" version="1.1" id="svg11" clip-rule="evenodd" fill-rule="evenodd" image-rendering="optimizeQuality" shape-rendering="geometricPrecision" text-rendering="geometricPrecision"><defs id="defs4"><linearGradient id="linearGradient7099"><stop offset="0" id="stop7095" stop-color="#3257eb" stop-opacity=".996"/><stop offset="1" id="stop7097" stop-color="#80adf9" stop-opacity=".996"/></linearGradient><linearGradient xlink:href="#linearGradient7099" id="linearGradient7101" x1="624.799" y1="997.096" x2="2266.653" y2="997.096" gradientUnits="userSpaceOnUse"/><style type="text/css" id="style2"><![CDATA[.fil1{fill:none}.fil0{fill:#424242}]]></style></defs><g transform="matrix(.01951 0 0 .01951 -12.193 -3.438)" id="Layer_x0020_1" fill="#172ff1" fill-opacity="1"><g id="g7106" fill-opacity="1"><path d="M2266.653 1800.556V176.17H624.798v1641.853H2266.653z" id="path6" opacity="1" fill="url(#linearGradient7101)" stroke-width="1.092"/><path d="M2266.653 683.475C1794.465 1168.137 1245.6 1420.162 624.799 1453.93v364.093h1641.854z" id="path7093" opacity="1" fill="#172ff1" stroke-width="1.092"/><path d="M920.635 871.47l312.887-320.095 23.598 9.568v115.965l288.026 265.259 179.025-43.938 13.276 22.736-184.928 196.547 378.971 425.044-19.35 19.404-429.794-380.028-177.015 181.15-23.383-11.931 28.698-161.559-244.944-302.111-134.53 7.263-10.536-23.275z" id="path6198" opacity="1" fill="#fff" stroke-width=".86"/></g></g></svg>