<svg xmlns="http://www.w3.org/2000/svg" style="background-color:#34d28b" viewBox="0 0 25 25"><path fill="#FFF" d="M18.71 11.11c0 1.18-.12 2.2-.37 3.06-.25.87-.6 1.59-1.05 2.16-.44.57-.99 1-1.62 1.27-.64.28-1.35.42-2.13.42a6.18 6.18 0 0 1-1.68-.22c-.52-.14-1-.43-1.42-.86l-.07.03.05 1.78v2.44H6.96V4.56l2.4-.16.66 1.17a5.1 5.1 0 0 1 1.63-.99 5.51 5.51 0 0 1 1.98-.35c.82 0 1.55.12 2.18.36.63.24 1.16.63 1.6 1.17.43.53.75 1.24.97 2.12.22.88.33 1.96.33 3.23zm-3.54-.02c0-.76-.05-1.39-.14-1.89-.1-.5-.24-.89-.44-1.18a1.53 1.53 0 0 0-.77-.59 3.38 3.38 0 0 0-1.11-.17 2.98 2.98 0 0 0-1.33.3c-.4.18-.71.45-.96.78v5.72c.2.33.49.6.86.82.36.22.82.33 1.36.33a3.06 3.06 0 0 0 1.03-.17c.31-.1.58-.31.8-.61.22-.3.39-.72.51-1.26s.19-1.23.19-2.08z"/></svg>