<svg width="140" height="140" fill="none" xmlns="http://www.w3.org/2000/svg"><g fill="#141414"><path d="M69.833 85.007c23.604 0 42.739-19.03 42.739-42.503C112.572 19.03 93.437 0 69.833 0c-23.604 0-42.74 19.03-42.74 42.504 0 23.474 19.136 42.503 42.74 42.503Z"/><path d="M139.663 94.017a41.084 41.084 0 0 0-8.252-21.001l-61.552 23.69-61.552-23.69a41.096 41.096 0 0 0-8.252 21l38.395 14.777-26.14 10.06a111.482 111.482 0 0 0 12.585 19.336l44.964-17.306 44.964 17.306a111.287 111.287 0 0 0 12.584-19.336l-26.139-10.06 38.395-14.776Z"/></g></svg>