<svg xmlns="http://www.w3.org/2000/svg" height="31.666" viewBox="0 0 117.618 116.77" width="31.666"><g fill-rule="evenodd"><path d="m43.137 27.2 13.13 22.736a9.415 9.415 0 0 1 6.43.574l6.9-11.956-11.535-19.977-15.06 8.697zM23.008 56.825h26.267a9.48 9.48 0 0 1 .936-2.29 9.374 9.374 0 0 1 2.77-3.005l-6.902-11.953H23.002V56.97h.006zm43.758 7.027a9.378 9.378 0 0 1-2.764 3.003l6.906 11.965h23.07V61.577H67.702a9.543 9.543 0 0 1-.934 2.275m-1.766-11.527a9.432 9.432 0 0 1 2.732 5.855h13.8l11.538-19.978-14.935-8.625zM38.94 88.179 52.08 65.42a9.454 9.454 0 0 1-2.73-5.844H35.54L24.002 79.549l15.06 8.702zm35.528 2.711L61.342 68.148a9.38 9.38 0 0 1-6.436-.57l-6.904 11.96 11.53 19.973 15.063-8.693z" fill="#de752c"/><path d="M58.812-.423c-32.43 0-58.81 26.38-58.81 58.8 0 32.432 26.38 58.817 58.81 58.817 32.423 0 58.804-26.385 58.804-58.818 0-32.42-26.38-58.8-58.805-58.8zm0 11.91c25.898 0 46.894 20.99 46.894 46.89 0 25.91-20.996 46.91-46.895 46.91-25.905 0-46.902-21-46.902-46.91 0-25.9 20.997-46.89 46.9-46.89z" fill="#517c9f"/></g></svg>