<svg xmlns="http://www.w3.org/2000/svg" viewBox="0 0 59.07 53"><path fill="#0096fa" fill-rule="evenodd" d="M51.74 6.35C47.1 2.32 40.61 0 33.06 0 13.38 0 0 15.09 0 15.09l3.77 5.94s2.09.17.98-3.33c.96-1.79 2.82-4.2 6.47-6.98v39.6c-1.57.44-3.65 1.27-2.23 2.68h10.83c1.43-1.42-.82-2.28-2.2-2.68v-9.34s7.43 2.9 15.44 2.9c7.03 0 13.43-2.08 18.2-5.84a19.77 19.77 0 0 0 7.8-15.68 20.9 20.9 0 0 0-7.32-16zM46 34.91a19.23 19.23 0 0 1-13.6 5.27c-6.16 0-11.35-1.18-14.77-2.86V7.62c3.75-2.66 9.85-4.3 14.77-4.28 5.98 0 10.67 2.25 13.85 5.65 3.17 3.43 4.9 7.98 4.91 13.27A17.3 17.3 0 0 1 46 34.9z"/></svg>