<svg xmlns="http://www.w3.org/2000/svg" xmlns:xlink="http://www.w3.org/1999/xlink" version="1.1" id="svg1843" width="63" height="63"><defs id="defs1808"><radialGradient id="radial-gradient" cx="56.89" cy="29.18" r="47.16" gradientTransform="matrix(.99 0 0 .99 -1.27 .24)" gradientUnits="userSpaceOnUse"><stop offset="0" stop-color="#004a99" id="stop1791"/><stop offset=".14" stop-color="#004793" id="stop1793"/><stop offset=".32" stop-color="#003e83" id="stop1795"/><stop offset=".53" stop-color="#002f68" id="stop1797"/><stop offset=".75" stop-color="#001b42" id="stop1799"/><stop offset=".99" stop-color="#000112" id="stop1801"/><stop offset="1" stop-color="#000010" id="stop1803"/></radialGradient><radialGradient id="radial-gradient-2" cx="56.89" cy="29.18" r="47.16" xlink:href="#radial-gradient"/><radialGradient id="radial-gradient-3" cx="56.9" cy="29.18" r="47.15" xlink:href="#radial-gradient"/><radialGradient xlink:href="#radial-gradient" id="radialGradient1849" gradientUnits="userSpaceOnUse" gradientTransform="matrix(.99 0 0 .99 -1.27 .24)" cx="56.89" cy="29.18" r="47.16"/><style id="style1789"></style></defs><g id="g1903" transform="translate(-23.997 -13.52)"><path d="M55.48 27.12a6.78 6.78 0 10-6.78-6.78 6.77 6.77 0 006.78 6.78z" id="path1812" fill="#e42229"/><path d="M55.51 46.57c9 0 16.69-2.23 19.94-5.33a4.63 4.63 0 001.67-3.32 4.65 4.65 0 00-1.67-3.33 14.87 14.87 0 00-4.63-2.76 42.52 42.52 0 00-15.35-2.56c-8.06 0-15 1.84-18.78 4.41a5.9 5.9 0 00-2.8 5.39v24.06A7.71 7.71 0 0035 67.65a13.36 13.36 0 004.7 4.69l.14.09V43.9l.16.1a42.37 42.37 0 0015.43 2.6zm-9.17-8.94a.83.83 0 01-.19-.5A1.32 1.32 0 0147 36a1.76 1.76 0 01.76-.18H63.6a1.76 1.76 0 01.76.18 1.3 1.3 0 01.81 1.11.77.77 0 01-.19.5 1.16 1.16 0 01-.87.39H47.22a1.18 1.18 0 01-.88-.37z" id="path1814" fill="url(#radialGradient1849)"/><path d="M58.63 72.6v-6.88a3.82 3.82 0 00-3.8-3.79v-.64a4.23 4.23 0 003.85-4.16v-4.84a11.77 11.77 0 01.4-3.21v-.13h-.14c-.65 0-1.61.07-2.62.07-1.51 0-3.13-.05-4-.14h-.08v.08a10.58 10.58 0 00-.52 3.44v5.49a2.48 2.48 0 01-2.43 2.47V48.58h-.09a35.35 35.35 0 01-6.73-1.47l-.13-.05V74h.06a27.19 27.19 0 006.78 2h.11V62.26a2.48 2.48 0 012.44 2.48v7.46a12 12 0 00.73 4.13v.06h.06c.52.06 1.43.09 2.45.09a34.42 34.42 0 004.14-.21h.11v-.11a10.44 10.44 0 01-.59-3.56z" id="path1816" fill="url(#radial-gradient-2)"/><path d="M76.48 45.89a1.2 1.2 0 00-1.19-1.15 1.26 1.26 0 00-.54.13 32.88 32.88 0 01-11.85 3.75 2.1 2.1 0 00-1.8 2.12v23.12a1.74 1.74 0 001.74 1.74 1.47 1.47 0 00.36 0 24.47 24.47 0 009.29-4.34c2.21-1.85 4-4.42 4-7.44zm-6 5.76v16.08a1.4 1.4 0 01-.69 1.11 1.18 1.18 0 01-1.62 0 .65.65 0 01-.11-.43V51.72a1.17 1.17 0 01.93-1 1.9 1.9 0 01.4-.05 1.07 1.07 0 011.07.68.85.85 0 010 .23z" id="path1818" fill="url(#radial-gradient-3)"/></g></svg>