<svg xmlns="http://www.w3.org/2000/svg" data-name="Layer 1" viewBox="0 0 499.56 70.88"><path d="M77.4 0c.15 2.38-.69 4.6-1.18 6.87-3.12 14.51-6.3 29-9.4 43.5-.25 1.17-1.12 2.63.18 3.6s2.6.38 3.84-.17c1.52-.67 1.75-.09 1.4 1.26a10.85 10.85 0 0 0-.47 2.22c-.1 3-2 4.19-4.61 4.84a17.06 17.06 0 0 1-8 .4 6.76 6.76 0 0 1-5.71-6.95c0-4.5 1.43-8.75 2.34-13.08q3.33-15.86 6.87-31.68c.35-1.54 0-2-1.55-1.94-4 0-4 0-3.16-3.94.36-1.65.79-3.28 1.19-4.93ZM499.56 51.93c-.89 2.82-2 5.49-4.36 7.46a14.43 14.43 0 0 1-15.56 2.55c-5.36-2.1-8.19-6.34-8.5-12s1.92-10.44 7.2-13.19c7.75-4 18.75-.84 21 8.93a5.21 5.21 0 0 0 .24.66Zm-6-2.79c0-4.91-2.56-8.28-6.85-9a8.1 8.1 0 0 0-9.35 6.5c-1.08 5.08 1.51 10 5.86 11.1 5.55 1.45 10.3-2.52 10.32-8.6ZM283.92 70.88c-.42-2.31-.09-2.78 2.13-2.82a4.14 4.14 0 0 0 3.46-1.76c1-1.43 1.88-3 2.8-4.44a3 3 0 0 0 .1-2.22q-1.61-8.88-3.17-17.76c-.17-1-.35-2 1-2.2s1.78.54 2 1.68q1.15 6.64 2.35 13.29c.12.68.27 1.35.5 2.47.72-1.13 1.25-1.93 1.75-2.75 2.56-4.26 5.1-8.52 7.67-12.78a6.17 6.17 0 0 1 1.1-1.5 1.6 1.6 0 0 1 2.1-.13c.79.58.39 1.27 0 1.87q-7.5 12.57-15 25.13a9.9 9.9 0 0 1-4.58 3.95ZM21.21 4.56c5.7.07 12.25-.32 18.75.63 4.24.62 8.26 1.88 11.16 5.28 3.37 3.93 3.57 8.65 2.74 13.44-1.73 10-9.08 16.77-20 18.66a80.1 80.1 0 0 1-14.68.65c-1.59 0-2.24.48-2.56 2.07-1 5-2.2 10-3.22 15.08-.26 1.3-.83 1.77-2.1 1.76-3.22 0-6.43-.06-9.65 0-1.54 0-1.87-.53-1.54-2q4.17-19 8.23-38c.47-2.17.88-4.35 1.43-6.5.33-1.32 0-1.88-1.38-1.8-1.11.07-2.22 0-3.33 0-1 0-1.26-.4-1.07-1.29.48-2.29 1-4.57 1.45-6.86.26-1.19 1.23-1.08 2.09-1.09 4.28-.04 8.54-.03 13.68-.03Zm7.39 9.25h-3.68a1.47 1.47 0 0 0-1.71 1.28c-1.29 6-2.58 12-3.93 18-.3 1.32.12 1.68 1.36 1.64 2.16-.07 4.33 0 6.48-.09 7.38-.33 12.33-4.87 13.34-12.19.7-5.14-1.3-7.7-6.44-8.41a42.74 42.74 0 0 0-5.45-.23ZM76.29 47.28a30.29 30.29 0 0 1 26.51-29.89 23 23 0 0 1 13.14 1.84 3.55 3.55 0 0 0 2.55-.07c1.08-.24 2.15-.55 3.23-.81 1.68-.4 1.87-.21 1.49 1.5-1.37 6.28-2.76 12.55-4.13 18.83-.93 4.28-1.87 8.55-2.73 12.85-.39 2 .24 2.61 2.2 2.42a10.45 10.45 0 0 0 2-.49c1.71-.55 1.77-.52 1.42 1.32a15.83 15.83 0 0 0-.55 2.56c-.07 2.51-1.64 3.55-3.75 4.17a15.77 15.77 0 0 1-8.28.68 6.72 6.72 0 0 1-4.55-3c-.64-1.1-1.05-.78-1.83-.19a18.48 18.48 0 0 1-15.57 3.39A13.37 13.37 0 0 1 76.6 50.55c-.13-1.27-.24-2.55-.31-3.27Zm29.75-22a10.73 10.73 0 0 0-6.76 2.06c-7.45 5.4-10.53 12.85-9.8 21.92a5.24 5.24 0 0 0 4.38 4.85 8.68 8.68 0 0 0 8.89-3.94A19.4 19.4 0 0 0 105 44.3c1.29-5.69 2.51-11.4 3.82-17.09.33-1.45-.21-1.95-1.56-1.93-.41.03-.82.02-1.22.02ZM168.45 45.94A29.07 29.07 0 0 1 198 17.16a15.76 15.76 0 0 1 9.54 3c4.93 3.83 5.82 11.21 2 16.76-3.38 5-8.4 7.25-14.07 8.38a35 35 0 0 1-12.54.13c-1.32-.22-1.8.19-1.74 1.55.18 3.91 3.5 7.06 7.85 7.28 5.1.25 9.79-1.31 14.35-3.39.42-.19.84-.41 1.26-.62.7-.34 1.18-.29 1 .66-.47 2.29-1 4.58-1.46 6.86a2.16 2.16 0 0 1-1.43 1.43c-6.81 3.09-13.86 4.56-21.3 3-8.68-1.82-13.05-7.35-13.01-16.26Zm19-7.73a16.11 16.11 0 0 0 7.84-1.47 8.09 8.09 0 0 0 4.6-5.22c1.12-4.15-1.3-6.75-5.48-5.94-5.4 1-8.3 4.9-10.56 9.42-1.47 2.94-1.32 3.09 2 3.21.53.02 1.06 0 1.58 0ZM161.76 32.79c-1.52 0-3-.07-4.56 0-1 .07-1.36-.33-1.32-1.3a13.25 13.25 0 0 0-.05-2.27 4.2 4.2 0 0 0-5.12-3.77 10.42 10.42 0 0 0-6.57 4 25.42 25.42 0 0 0-5.69 18.1c.37 4.29 3.05 6.43 7.41 6.67 5.11.27 9.79-1.27 14.31-3.45.67-.32 1.45-1.15 2-.72s0 1.49-.12 2.26a27.33 27.33 0 0 0-.6 2.91c-.14 2.66-1.69 4-4 4.88-6.18 2.44-12.47 3.44-19 2-8.89-1.94-13.69-8.31-13-17.4.52-7.15 2.86-13.63 7.8-18.92 6.87-7.38 15.35-10.24 25.25-8 6.57 1.51 10.22 6.53 9.87 12.84-.08 1.37-.57 2-2 2h-4.56Z"/><path d="M581 527.81c-5.62 0-10-2.42-12.42-7.53a13.38 13.38 0 0 1 1.41-14.4c.35-.48.67-1.33 1.43-1s.43 1.22.27 1.86a13 13 0 0 0 .23 6.92c.16.53.19 1.39.84 1.38.82 0 .49-.91.56-1.42 1.05-7.23 4.6-12.76 11.11-16.23a10.3 10.3 0 0 1 2.63-.93c2.71-.63 4.52.25 5.75 2.74a25.27 25.27 0 0 1 2.11 7.38 26.21 26.21 0 0 1-.42 10.76c-1.77 6.73-6.5 10.43-13.5 10.47Z" style="fill:#80b341" transform="translate(-250.79 -464.91)"/><path d="M254.51 22.22c-5.26 0-5.27 0-6.37 5.07-1.61 7.35-3.2 14.72-4.82 22.07a25 25 0 0 0-.42 3.65c-.29 3.7 2 5.66 6.2 5.32a16.43 16.43 0 0 0 5.87-1.63c1-.47 1.18-.29 1.08.81-.22 2.25-1 3.76-3.44 4.39-3.28.85-6.5 1.37-9.82.31a8.05 8.05 0 0 1-5.78-9.21c.92-6.13 2.54-12.11 3.79-18.18.74-3.6 1.51-7.2 2.38-10.77.34-1.39.1-2-1.42-1.84-1.1.09-2.22 0-3.33 0-.92 0-1.18-.39-1.06-1.32.37-2.82.53-3 3.36-3 4.21-.06 3.58.67 4.56-3.67.45-2 1-4 1.33-6a2.71 2.71 0 0 1 2.09-2.47c.9-.25 1.74-.66 2.62-1 1.7-.61 1.83-.51 1.44 1.31-.7 3.31-1.39 6.63-2.2 9.92-.36 1.45.07 1.92 1.49 1.89 2.4-.05 4.79 0 7.19 0 1.24 0 1.61.43 1.35 1.72-.52 2.6-.46 2.61-3.11 2.61ZM365.26 50.98c-2.57 0-5.14.06-7.71 0-1.62-.05-1.73.62-1.29 1.91 1.57 4.65 7.39 6.67 11.91 4.08a28.78 28.78 0 0 0 2.39-1.76 2.6 2.6 0 0 1 3.64.2 2.47 2.47 0 0 1-.15 3.49 12.6 12.6 0 0 1-10.53 4.19c-7.95-.33-12.68-4.89-13.64-12.78a14 14 0 0 1 7.07-13.65c4.92-2.59 11.22-2.08 15.12 1.37a12.41 12.41 0 0 1 4.14 10.36c-.07 1.7-1 2.52-2.91 2.56-2.68.06-5.37 0-8.05 0Zm-2.05-4.68h5.42c1.81 0 2-.28 1.44-2.07a6.53 6.53 0 0 0-6.64-4.44c-3.3.17-6.71 2.76-7.24 5.43-.2 1 .38 1.07 1.07 1.08 1.95.01 3.95 0 5.95 0ZM448.14 59.66c-4.11 3.86-8.7 4.19-13.54 2.12-3.06-1.32-4.42-3.94-4.42-7.17a7.35 7.35 0 0 1 4.7-7c3.64-1.67 7.57-1.82 11.47-2 2-.12 2.16-.36 1.54-2.16a4.67 4.67 0 0 0-4.13-3.3 10 10 0 0 0-7 1.51 3.85 3.85 0 0 1-2.26.85 2.16 2.16 0 0 1-2.09-1.58 2.48 2.48 0 0 1 1-2.93 14.74 14.74 0 0 1 9.18-2.91c5.84-.09 9.94 2.86 11 7.79a20.23 20.23 0 0 1 .18 4.19v11.91c0 2.46-.62 3.54-2.19 3.82s-2.53-.62-3.44-3.14Zm-6.93-1.48c4.08 0 6.77-2.6 7-6.71.08-1.15-.34-1.66-1.49-1.52a53.22 53.22 0 0 0-6.42.73c-2.93.72-4.35 2.23-4.11 4.4.24 2.01 2.02 3.11 5.02 3.1ZM384.78 38.98a13.32 13.32 0 0 1 5-3.39c6.63-2.09 12.71 1.87 13.05 8.8.25 5.13.1 10.28 0 15.42a2.79 2.79 0 0 1-2.77 3 2.85 2.85 0 0 1-3-3c-.08-4.09 0-8.18 0-12.27a13.73 13.73 0 0 0-.33-3.12c-.5-2.18-1.66-3.76-3.93-4.2a5.76 5.76 0 0 0-5.93 2.15 9.26 9.26 0 0 0-1.9 5.89v11.22a3 3 0 0 1-1.5 3 2.79 2.79 0 0 1-4.25-2.46c-.08-7.31 0-14.61 0-21.91a2.62 2.62 0 0 1 2.66-2.69c1.53 0 2.49.86 2.75 2.57.07.22.09.5.15.99ZM417 55.56c2.22-5.58 4.3-10.78 6.37-16 .28-.7.53-1.42.84-2.11.81-1.79 2.4-2.54 4-1.89s2.12 2.16 1.4 4c-1.29 3.25-2.69 6.46-4.05 9.69-1.46 3.44-2.93 6.87-4.38 10.31-.82 1.93-2.13 3.3-4.33 3.24s-3.28-1.48-4.06-3.34c-2.69-6.4-5.42-12.79-8.14-19.18a3.78 3.78 0 0 1-.19-3.37 2.79 2.79 0 0 1 2.57-1.53 2.83 2.83 0 0 1 2.73 1.86c.93 2.14 1.76 4.32 2.62 6.49 1.46 3.8 2.95 7.6 4.62 11.83ZM226.14 17.9h4c1.32 0 1.7.51 1.4 1.85-1.77 8-3.47 16-5.2 24-.84 3.88-1.7 7.75-2.5 11.64-.54 2.63.58 3.61 3.21 2.94.77-.19 1.76-1 2.25-.45.67.76-.1 1.86-.27 2.81a1.64 1.64 0 0 1-1.1 1.26 9.33 9.33 0 0 1-6.65.56 4.93 4.93 0 0 1-3.34-5.52 82.15 82.15 0 0 1 1.9-9.44c1.66-7.76 3.34-15.52 5.09-23.27.34-1.51.14-2.26-1.58-2a2.43 2.43 0 0 1-1 0c-.86-.27-2.35.76-2.51-.94-.22-2.34.74-3.36 2.81-3.38h3.51ZM457.13 42.93V31.54c0-2.33 1-3.46 2.79-3.54a2.51 2.51 0 0 1 2.84 2 12.94 12.94 0 0 1 .31 2.78c.06 2.9 0 2.9 3 2.91a12.79 12.79 0 0 1 1.75.05 2.35 2.35 0 0 1 2.35 2.53 2.27 2.27 0 0 1-2.3 2.38 23 23 0 0 1-3.32.07c-1 0-1.49.42-1.48 1.46 0 4.26 0 8.53.06 12.79 0 2.1 1.35 3 3.41 2.67s3.3.26 3.55 1.77-.88 2.68-2.71 3.09c-6.17 1.37-10.13-1.75-10.27-8.22-.05-3.75.02-7.55.02-11.35ZM275.26 62.92a6.76 6.76 0 0 1-3.25-.63c-1.14-.55-2.22-1.65-3.39.06-.27.4-1.13.32-1.62-.12s-.38-1.19-.25-1.81q1.08-5.05 2.2-10.1 1.85-8.46 3.71-16.94a10.76 10.76 0 0 1 .36-1.35 1.54 1.54 0 0 1 2.06-1.11c1 .29.9 1.09.72 1.88q-.74 3.24-1.46 6.49c-.1.45-.34 1 0 1.33s.87-.08 1.26-.27a11.64 11.64 0 0 1 2.81-.95c4.85-1 8.43 1.85 8.62 7.11a18.71 18.71 0 0 1-4.29 13 9 9 0 0 1-7.48 3.41Zm.59-3a5.31 5.31 0 0 0 3.82-1.4c3.18-2.51 5.37-10 4.07-13.81a3.44 3.44 0 0 0-3-2.51 7.93 7.93 0 0 0-8.18 5.7 60.09 60.09 0 0 1-1.52 6.46c-1.25 3.38 1.62 5.84 4.81 5.59ZM232.04 2.27a3 3 0 0 1 3.22 3.14c0 2.2-2.56 4.46-4.87 4.38a3.13 3.13 0 0 1-3-3.22 4.69 4.69 0 0 1 4.65-4.3Z"/></svg>