<svg xmlns="http://www.w3.org/2000/svg" fill="#111" viewBox="0 0 47 47.6"><path d="M18.6 0L4.1 3.8 0 18.4l5 5.2-5.1 5 3.8 14.7 14.5 4 5-5 5 5.2L43 43.7 47 29 42 24l5.1-5L43.2 4 28.7.1l-5 5zM9.7 6.6l7.7-2 3.3 3.5-4.9 4.8zm16.8 1.5L30 4.7 37.6 7 31.3 13zM4.7 17.2l2-7.7 6.2 6.3L8 20.7zM34.2 16l6.2-6.2 2 7.7L39 21zm-15.5-.1l4.9-4.9 4.8 5-4.9 4.8zM11 23.6l4.9-4.8 4.8 5-4.9 4.8zm15.5.2l4.9-4.9 4.8 5-4.9 4.8zM4.6 29.9L8 26.5l4.8 5-6.2 6.2zm14 1.6l4.9-4.8 4.8 4.9-4.9 4.9zm15.5.2l4.9-4.9 3.3 3.4-2 7.7zm-24.7 9l6.3-6.3 4.8 5-3.4 3.4zm16.9-1.3l4.9-4.8 6 6.2-7.6 2z"/></svg>
