<svg xmlns="http://www.w3.org/2000/svg" width="54.57" height="54.57"><defs><clipPath id="a"><path d="M0 841.89h595.28V0H0z"/></clipPath></defs><g clip-path="url(#a)" transform="matrix(1.25 0 0 -1.25 -140.468 828.823)"><path d="M155.738 637.835c-.91-5.81-3.49-10.338-7.736-13.588l-8.972 8.809 2.99-12.19c-2.622-.975-5.244-1.463-7.866-1.463-2.558 0-5.147.488-7.77 1.463l3.056 12.254-9.134-8.873c-4.204 3.293-6.751 7.822-7.64 13.588l12.029 3.412-12.028 3.38c.823 5.461 3.37 9.99 7.639 13.588l9.069-8.94-2.99 12.32c2.253.976 4.843 1.463 7.769 1.463 2.99 0 5.612-.487 7.866-1.463l-2.99-12.32 8.972 8.94c4.334-3.576 6.912-8.105 7.736-13.588l-12.125-3.38z" fill="#2d94b4"/></g></svg>