<svg xmlns="http://www.w3.org/2000/svg" width="40.883" height="40.883"  fill="#84b749" xmlns:v="https://vecta.io/nano"><path d="M24.526 4.144l-2.6-.2c-8 0-14.7 5.8-16.2 13.4-.1.5-.2 1.3-.2 1.5-.1.5-.1 1-.1 1.6 0 5.5 2.7 10.4 6.9 13.4.9-.2 1.9-.4 2.9-.7-.3-.3-.4-.6-.4-.9 0-.2 0-.4.3-.6l.1-.1h.2c.3 0 .6.2 1.2.5a3.17 3.17 0 0 1 .6.5c.4-.1.7-.3 1.1-.5-.7-.6-1-1-1-1.4 0-.3.1-.6.2-1.2.2-.7.4-1 .7-1.1.5-.1 1-.2 1.5-.4.4-.1.7-.4 1-.9l.6-1.2c.3-.5.9-.8 1.7-.8.1 0 .3 0 .5.1h.4c.3 0 .8-.1 1.4-.3.7-.3 1.2-.4 1.6-.4.8 0 1.5.1 2 .2l.6-.6a2.36 2.36 0 0 1-.8-.9c-.1-.2-.3-.7-.7-1.4-.1-.1-.3-.4-.8-1.2-.3-.5-.5-1.1-.5-1.8 0-.8.2-1.5.7-2.1.5-.8 1.2-1.2 2-1.2 1.2 0 2.3.5 3.2 1.4.5.6.9 1.2 1.1 1.9 1.4-2.2 2.3-4.4 2.7-6.4 0-.1 0-.1.1-.1-2.1-3.8-5.6-6.7-9.9-7.9zm8.9 11.1c0-.3 0-.5.1-.7l.1-.2h.3c.2 0 .4.1.6.3s.3.4.4.5c.1.4.2.6 0 .8-.1.1-.2.2-.3.2-.1.2-.3.2-.5.2-.1 0-.7 0-.7-.9zm-10.4 5c.4-.2.7-.3 1.1-.3 1.4 0 1.5.9 1.5 1.3s-.2.7-.5 1c-.4.3-.6.4-1.1.5h-.3c-1 0-1.4-1-1.4-1.4 0-.5.3-.9.7-1.1zm-3.4 4.9c.6 0 1 .4 1 1.1 0 .9-.6.9-.7.9-.3 0-.5-.1-.8-.3s-.4-.5-.4-.7.1-.4.3-.7c.1-.2.4-.3.6-.3zm-.7-1v.3c0 .7-.2 1.3-.5 1.7-.4.4-.9.6-1.6.6s-1.1-.4-1.1-1.2c0-1.3.9-2.2 2.2-2.2.6 0 .9.4 1 .8zm-3.5-6.3c.4 0 .8.2 1.1.6.3.3.4.7.4 1.1a.99.99 0 0 1-1.1 1h-.2c-.8 0-1.2-.5-1.2-1.3 0-1.2.6-1.4 1-1.4zm-4.6 2.2c.8 0 1.4.2 1.7.7.2.4.4.8.7 1.2.4.4.8.8 1.1 1l.1.1c.4.5.7 1.2.8 2l.3 1.9c0 .1.1.3.4.8.3.4.4.8.4 1.3 0 1.2-.7 1.9-1.8 1.9-1 0-2-.7-3-2l-1.1-1.1c-.5-.6-1-1.4-1.4-2.4s-.6-1.9-.6-2.6.2-1.4.6-1.9c.5-.6 1.1-.9 1.8-.9zm-2.7-3.3l.4-.3.1.5c.1.2.1.4.1.7 0 .8-.4.9-.6.9-.4 0-.7-.3-.7-.8.1-.3.3-.7.7-1zm-1 8.3h1l.1.6c0 .2 0 .3-.1.5l-.2.2-.3-.1c-.2-.1-.5-.3-.5-.9zm24.7 4c-.1.4-.1.5-.1.6 0 0 0 .1.1.4.1.2.1.4.1.6 0 .8-.5 1.5-1.4 2.1-.6.4-1.4.7-2.3.9-.1 0-.4.1-1.4 1-.7.6-1.6.9-2.6.9-.6 0-1.1-.1-1.5-.3-.1 0-.1-.1-.2-.1-.6.3-1.3.7-1.9 1-.1.1-.2.2-.4.2-.3.1-.7.3-1 .4.9.2 1.9.3 2.9.3 9.1 0 16.4-7.4 16.5-16.4-1.6 2.7-3.8 5.3-6.4 7.7-.3.1-.3.3-.4.7zm2.6-1.9l.6-.4v1.2c0 .4-.5 1-.9 1.1h-.2l-.1-.1c-.2-.2-.3-.4-.3-.6 0-.4.3-.7.9-1.2zm-3.9-6.3c.3-.1 1.2-.7 1.1-1.6-.2-.9-1.1-2.8-2.6-2-.5.3-.8 1.3-.2 1.9s.9 1 .9 1.3c0 .4.5.4.8.4zm-3.9 6c-.7-.3-1.3-.4-1.8-.4-.6 0-1.1.2-1.5.7-.3.4-.5.8-.7 1.2-.3.5-.5.9-.8 1-.5.2-.9.8-1 1.5 1.7-.9 3.3-2 4.9-3.1.2-.4.6-.7.9-.9zm-13.5 1.5c.7.2 1.5-.6 1.1-1.6-.4-.9-1.5-1.8-1.6-3 0-.7-.8-1.9-1.4-1.4-.5.4-.9 1.3-.5 2.6.5 1.3 1.8 3.2 2.4 3.4z"/><path d="M39.426 5.944c-2.6-3.4-8.1-3.9-14.5-2 .9.1 1.6.3 2.3.5 3.8-.5 7 .3 8.7 2.5 1.3 1.7 1.6 4 1 6.6-.7 3.1-2.7 6.6-5.7 9.8-1.4 1.6-3.1 3.1-5 4.5-4.5 3.4-9.2 5.5-13.3 6.3-.5.1-1 .1-1.4.2-3.5.3-6.4-.5-8-2.6-2.2-2.9-1.4-7.6 1.6-12.4 0-.5.1-1.1.2-1.6-5.1 6.5-6.9 13.3-3.8 17.2 2.1 2.8 6.1 3.6 10.9 2.8 1.7-.3 3.4-.8 5.3-1.5 3.4-1.3 7-3.3 10.4-5.9 4.5-3.5 8-7.5 10.2-11.4 1-1.7 1.7-3.5 2.1-5.1.8-3 .6-5.8-1-7.9z"/></svg>