<svg xmlns="http://www.w3.org/2000/svg" viewBox="0 0 90 90"><path fill="#3b78ff" d="M79.667 8.934C86 10.588 90 16.544 90 22.83v44.007c0 6.287-4.333 11.912-10.333 13.897l-27.334 8.272c-4.666 1.324-10 1.324-14.666 0l-27.334-7.94C4.333 79.08 0 73.124 0 66.837V22.831c0-6.287 4.333-11.912 10.333-13.897L37.667.993c4.666-1.324 10-1.324 14.666 0l27.334 7.94z"/><path fill="#fff" d="M61.786 25.234L45.67 29.902c-.671 0-1.007.333-1.678 0l-16.114-4.668c-3.358-1-6.379 1.333-6.379 4.668v36.01c0 .667.336 1.334 1.007 1.334l6.043 1.667c1.007.334 1.679-.333 1.679-1.333v-8.336s0-.334.335-.334l12.086 3.668c1.679.333 3.357.333 4.7 0l18.129-5.668c2.014-.334 3.021-1.667 3.021-3.335v-23.34c0-3.334-3.357-6.002-6.714-5.001zM59.77 49.24c0 .333-.335.667-.671.667l-13.093 4c-.671.334-1.343.334-2.014 0L31.235 50.24c-.336 0-.672-.333-.672-.667V36.237c0-.334.336-.667 1.007-.667l10.408 3c2.014.668 4.364.668 6.378 0l10.407-3c.336 0 1.007.333 1.007.667V49.24z"/></svg>