<svg xmlns="http://www.w3.org/2000/svg" viewBox="0 0 512 512"><linearGradient id="a" x1="73.2" x2="422.8" y1="-39.2" y2="-616.4" gradientTransform="translate(0 597)" gradientUnits="userSpaceOnUse"><stop offset="0" stop-color="#0eb8c5"/><stop offset="1" stop-color="#b4e133"/></linearGradient><path fill="url(#a)" d="M392 0H120A120 120 0 0 0 0 120v272a120 120 0 0 0 120 120h272a120 120 0 0 0 120-120V120A120 120 0 0 0 392 0z"/><path fill="#fff" d="M382.9 103.3h-217a24.3 24.3 0 0 0-24.6 24.6v269.2c0 13.8 10.8 24.6 24.6 24.6s24.6-10.8 24.6-24.6v-98.5h192.3L312 201.7l70.9-98.4zm-95.4 146.1h-96.9v-96.9h96.9l-35.4 49.2 35.4 47.7z"/><linearGradient id="b" x1="561.5" x2="-6.1" y1="-393.9" y2="-12.7" gradientTransform="translate(0 597)" gradientUnits="userSpaceOnUse"><stop offset="0" stop-color="#3fb54a"/><stop offset="1" stop-color="#00aacd"/></linearGradient><path fill="url(#b)" d="M512 230.5 382.9 103.3l-70.8 98.5 70.8 96.9H190.6v98a24.9 24.9 0 0 1-25 25.1 24.8 24.8 0 0 1-17.4-7.4l97.4 97.6H392a120 120 0 0 0 120-120V230.5z" opacity=".5"/></svg>