<svg xmlns="http://www.w3.org/2000/svg" viewBox="0 0 512 512"><linearGradient id="a" x1="73.2" x2="422.8" y1="557.8" y2="-19.4" gradientUnits="userSpaceOnUse"><stop offset="0" stop-color="#0eb8c5"/><stop offset="1" stop-color="#b4e133"/></linearGradient><path fill="url(#a)" d="M392 0H120A120 120 0 0 0 0 120v272a120 120 0 0 0 120 120h272a120 120 0 0 0 120-120V120A120 120 0 0 0 392 0"/><path fill="#fff" d="M383 103H166a24 24 0 0 0-25 25v269c0 14 11 25 25 25s24-11 24-25v-98h193l-71-97zm-96 146h-96v-97h97l-36 50z"/><linearGradient id="b" x1="561.5" x2="-6.1" y1="203.1" y2="584.3" gradientUnits="userSpaceOnUse"><stop offset="0" stop-color="#3fb54a"/><stop offset="1" stop-color="#00aacd"/></linearGradient><path fill="url(#b)" d="M512 231 383 103l-71 99 71 97H191v98a25 25 0 0 1-25 25 25 25 0 0 1-18-8l98 98h146a120 120 0 0 0 120-120z" opacity=".5"/></svg>