<svg xmlns="http://www.w3.org/2000/svg" width="33.242" height="45" fill="none"><path d="M2.398 0C1.005 0 0 .986 0 2.362 0 3.76 1.005 4.769 2.399 4.769c1.325 0 2.307-1.032 2.307-2.407C4.706 1.009 3.701 0 2.398 0z" fill="#00aeef"/><path d="M3.015 10.776H1.667c-.708 0-1.188.482-1.188 1.193v20.636c0 .71.48 1.192 1.188 1.192h1.348c.708 0 1.188-.481 1.188-1.192V11.969c0-.688-.48-1.193-1.188-1.193zm27.851 18.39a12.382 12.382 0 0 0 2.376-7.314c0-6.833-5.529-12.382-12.337-12.382S8.567 15.019 8.567 21.851s5.529 12.382 12.338 12.382c2.741 0 5.277-.894 7.334-2.43l1.85 1.857c.48.482 1.257.482 1.737 0l.891-.894c.48-.482.48-1.26 0-1.743zm-9.961 1.124c-4.638 0-8.385-3.76-8.385-8.416s3.747-8.415 8.385-8.415 8.385 3.76 8.385 8.415a8.225 8.225 0 0 1-1.28 4.449l-2.033-2.041a1.225 1.225 0 0 0-1.737 0l-.891.894a1.235 1.235 0 0 0 0 1.743l2.034 2.04a8.1 8.1 0 0 1-4.478 1.33z" fill="#000"/></svg>