<svg xmlns="http://www.w3.org/2000/svg" width="194.24" height="194.24"><path d="M130.857 120.77a6.985 6.985 0 00-4.975-2.06 6.928 6.928 0 00-4.955 2.057c-2.746 2.746-2.746 7.208-.013 9.95l61.326 61.326c1.248 1.245 3.057 1.96 4.975 1.96 1.914 0 3.726-.715 4.968-1.96a6.99 6.99 0 002.06-4.971 6.97 6.97 0 00-2.056-4.968l-61.33-61.334" fill="#4aa5e1"/><path d="M193.007 15.313c0-8.314-7.02-15.076-15.663-15.076H96.319C43.12.44-.003 43.723-.003 96.741c0 53.215 43.287 96.509 96.503 96.509 14.153 0 27.703-2.847 40.175-8.774 4.213-1.997 1.029-4.57 1.029-4.57l-3.07-3.067s-2.03-2.007-5.005-.824c-10.148 4.028-21.02 6.54-32.667 6.54-46.814 0-84.893-38.09-84.893-84.9 0-46.812 38.08-84.888 84.893-84.888 46.806 0 84.895 38.076 84.895 84.888 0 10.721-1.754 21.114-5.733 30.69-2.028 4.867.904 7.496 3.237 9.494.459.386 3.143 2.809 5.208-1.952 5.679-13.072 8.442-25.152 8.438-39.146l-.043-2.222.043-.715v-78.49" fill="#312f30"/></svg>