<?xml version="1.0" encoding="utf-8"?>
<!-- Generator: Adobe Illustrator 25.3.1, SVG Export Plug-In . SVG Version: 6.00 Build 0)  -->
<svg version="1.1" id="Layer_1" xmlns="http://www.w3.org/2000/svg" xmlns:xlink="http://www.w3.org/1999/xlink" x="0px" y="0px"
	 viewBox="0 0 400 130" style="enable-background:new 0 0 400 130;" xml:space="preserve">
<style type="text/css">
	.st0{fill:url(#SVGID_1_);}
	.st1{fill:url(#SVGID_2_);}
	.st2{fill:#53BCE6;}
	.st3{fill:url(#SVGID_3_);}
	.st4{fill:url(#SVGID_4_);}
	.st5{fill:url(#SVGID_5_);}
	.st6{fill:#53BAE4;}
</style>
<g>
	<g>
		
			<linearGradient id="SVGID_1_" gradientUnits="userSpaceOnUse" x1="302.9854" y1="99.9759" x2="363.0233" y2="41.1328" gradientTransform="matrix(1 0 0 -1 0 132)">
			<stop  offset="0" style="stop-color:#4AA6CC"/>
			<stop  offset="1" style="stop-color:#53BCE6"/>
		</linearGradient>
		<path class="st0" d="M337.9,119.7c-2.3,0-4.7-0.1-7-0.5c-14.3-1.8-26.9-9.1-35.8-20.5c-8.9-11.4-12.6-25.5-10.7-39.7
			c1.8-14.3,9.1-26.9,20.5-35.8c11.4-8.7,25.5-12.6,39.7-10.7c9.4,1.3,18.2,4.8,25.7,10.5c1.4,1,1.6,3,0.6,4.3c-1,1.4-3,1.6-4.3,0.6
			c-6.6-5.1-14.4-8.2-22.8-9.4c-12.6-1.6-25.2,1.8-35.2,9.5c-10.1,7.7-16.6,19-18.1,31.6c-3.3,26.1,15.2,50,41.2,53.4
			c12.6,1.6,25.2-1.8,35.2-9.5c10.1-7.7,16.6-19,18.1-31.6c0.6-4.8,0.5-9.6-0.3-14.3c-0.3-1.6,0.9-3.3,2.5-3.5
			c1.6-0.3,3.3,0.9,3.5,2.5c0.9,5.3,1,10.7,0.4,16.2c-1.8,14.3-9.1,26.9-20.5,35.8C361.2,116,349.8,119.7,337.9,119.7z"/>
		
			<linearGradient id="SVGID_2_" gradientUnits="userSpaceOnUse" x1="337.8242" y1="100.9913" x2="337.8242" y2="82.6659" gradientTransform="matrix(1 0 0 -1 0 132)">
			<stop  offset="0" style="stop-color:#4AA6CC"/>
			<stop  offset="1" style="stop-color:#4AA6CC;stop-opacity:0"/>
		</linearGradient>
		<path class="st1" d="M337.9,119.7c-2.3,0-4.7-0.1-7-0.5c-14.3-1.8-26.9-9.1-35.8-20.5c-8.9-11.4-12.6-25.5-10.7-39.7
			c1.8-14.3,9.1-26.9,20.5-35.8c11.4-8.7,25.5-12.6,39.7-10.7c9.4,1.3,18.2,4.8,25.7,10.5c1.4,1,1.6,3,0.6,4.3c-1,1.4-3,1.6-4.3,0.6
			c-6.6-5.1-14.4-8.2-22.8-9.4c-12.6-1.6-25.2,1.8-35.2,9.5c-10.1,7.7-16.6,19-18.1,31.6c-3.3,26.1,15.2,50,41.2,53.4
			c12.6,1.6,25.2-1.8,35.2-9.5c10.1-7.7,16.6-19,18.1-31.6c0.6-4.8,0.5-9.6-0.3-14.3c-0.3-1.6,0.9-3.3,2.5-3.5
			c1.6-0.3,3.3,0.9,3.5,2.5c0.9,5.3,1,10.7,0.4,16.2c-1.8,14.3-9.1,26.9-20.5,35.8C361.2,116,349.8,119.7,337.9,119.7z"/>
		<path class="st2" d="M385.6,58.2c-0.3,0-0.4,0-0.6,0c-2.5-0.1-4.8-1.3-6.4-3.2c-1.6-1.9-2.5-4.3-2.3-6.7c0.3-5.1,4.7-9.1,9.9-8.7
			c5.1,0.3,9,4.7,8.7,9.9c-0.1,2.5-1.3,4.8-3.2,6.4C390,57.4,387.9,58.2,385.6,58.2z M382.6,48.7c0,0.9,0.3,1.6,0.8,2.3
			c0.5,0.6,1.3,1,2.1,1c0.8,0,1.6-0.3,2.3-0.8c0.6-0.5,1-1.3,1-2.1c0.1-1.8-1.3-3.2-2.9-3.3C384.1,45.6,382.6,47,382.6,48.7z"/>
		
			<linearGradient id="SVGID_3_" gradientUnits="userSpaceOnUse" x1="346.335" y1="75.2473" x2="367.7138" y2="57.9377" gradientTransform="matrix(1 0 0 -1 0 132)">
			<stop  offset="0" style="stop-color:#4AA6CC"/>
			<stop  offset="0.2069" style="stop-color:#4DAED5"/>
			<stop  offset="0.6101" style="stop-color:#52B8E2"/>
			<stop  offset="1" style="stop-color:#53BCE6"/>
		</linearGradient>
		<path class="st3" d="M373.7,58.5c-0.8-2.4-1.9-4.4-3.3-6.2c-1.4-1.8-3.2-3-5.1-3.9c-2-0.9-4.2-1.3-6.6-1.3c-2.4,0-4.7,0.4-6.7,1.3
			c-2,0.8-3.7,2-5.2,3.7c-1.4,1.6-2.5,3.7-3.3,6.2c-0.8,2.4-1.1,5.3-1.1,8.6c0,3,0.4,5.7,1.1,8.1c0.8,2.4,1.9,4.6,3.3,6.2
			c1.4,1.8,3.2,3,5.2,3.9c2,0.9,4.2,1.3,6.6,1.3c2.4,0,4.6-0.4,6.6-1.3c2-0.9,3.7-2.1,5.2-3.8c1.4-1.6,2.5-3.8,3.3-6.2
			c0.8-2.4,1.1-5.2,1.1-8.2C375,63.6,374.5,60.8,373.7,58.5z M358.7,52.8c2.1,0,4,0.6,5.4,1.8c1.5,1.1,2.7,2.8,3.4,4.8
			s1.1,4.4,1.3,7.1c0,2.8-0.5,5.2-1.3,7.3s-1.9,3.8-3.4,4.9c-1.5,1.1-3.3,1.8-5.4,1.8c-2.1,0-3.9-0.6-5.4-1.8
			c-1.5-1.1-2.7-2.8-3.4-4.8c-0.8-2.1-1.1-4.6-1.1-7.2c0-2.8,0.4-5.2,1.1-7.2c0.8-2,1.9-3.7,3.4-4.8
			C354.6,53.5,356.5,52.8,358.7,52.8z"/>
		
			<linearGradient id="SVGID_4_" gradientUnits="userSpaceOnUse" x1="323.511" y1="72.9635" x2="343.5792" y2="59.8721" gradientTransform="matrix(1 0 0 -1 0 132)">
			<stop  offset="0" style="stop-color:#4AA6CC"/>
			<stop  offset="0.2069" style="stop-color:#4DAED5"/>
			<stop  offset="0.6101" style="stop-color:#52B8E2"/>
			<stop  offset="1" style="stop-color:#53BCE6"/>
		</linearGradient>
		<path class="st4" d="M342.4,63.3c-1.8-1-3.5-1.5-5.6-1.5c-2.3,0-4.2,0.5-5.8,1.4l9.1-16.1h-7.2c-2.8,4.9-8.3,15.2-9.4,17.5
			c-2.5,6.1-1.8,11.3-0.3,14.9c1,2.3,2.8,3.9,4.8,5.2c2,1.1,4.3,1.8,6.8,1.8c2.3,0,4.4-0.5,6.4-1.5c2-1,3.7-2.5,4.8-4.4
			c1.3-1.9,1.9-4.2,1.9-6.7c0-2.3-0.5-4.4-1.6-6.2C345.5,65.9,344.1,64.4,342.4,63.3z M341.2,77.6c-0.6,1.1-1.5,1.9-2.7,2.5
			c-1.1,0.6-2.4,0.9-3.7,0.9c-1.4,0-2.5-0.4-3.7-1c-1.1-0.6-2-1.5-2.7-2.5c-0.6-1-1-2.3-1-3.4v-1c0-1.1,0.4-2.3,1-3.2
			c0.6-1,1.5-1.8,2.7-2.3c1.1-0.5,2.3-0.9,3.7-0.9c1.4,0,2.5,0.3,3.7,0.9c1.1,0.5,2,1.4,2.7,2.4c0.6,1,1,2.3,1,3.7
			C342.2,75.2,341.9,76.5,341.2,77.6z"/>
		
			<linearGradient id="SVGID_5_" gradientUnits="userSpaceOnUse" x1="303.8364" y1="73.1287" x2="323.0974" y2="61.5238" gradientTransform="matrix(1 0 0 -1 0 132)">
			<stop  offset="0" style="stop-color:#4AA6CC"/>
			<stop  offset="0.2069" style="stop-color:#4DAED5"/>
			<stop  offset="0.6101" style="stop-color:#52B8E2"/>
			<stop  offset="1" style="stop-color:#53BCE6"/>
		</linearGradient>
		<path class="st5" d="M322.8,63.6c-1.1-0.9-2.4-1.6-3.8-1.9c-0.9-0.3-1.8-0.4-2.7-0.4l8.7-14.2h-20.7V53h11.6l-8.3,13l-0.1,0.1
			l0.5,0.4h0.1c0.6-0.3,1.3-0.4,2-0.6c0.8-0.1,1.6-0.3,2.8-0.3c2.1,0,3.9,0.6,5.2,1.8c1.3,1.3,1.9,2.9,1.9,5.1c0,1.6-0.4,3-1,4.2
			c-0.6,1.1-1.6,2.1-2.8,2.8c-1.1,0.6-2.4,1-3.8,1c-1.4,0-2.7-0.4-3.9-1c-1.3-0.6-2.3-1.5-2.9-2.3l-0.1-0.3l-3.2,5.1l0.1,0.1
			c1.3,1.3,2.8,2.3,4.7,3c1.9,0.8,3.8,1.1,5.6,1.1c2.5,0,4.8-0.5,6.8-1.6c2-1.1,3.8-2.7,4.9-4.7c1.3-2,1.9-4.4,1.9-7.1
			c0-2.1-0.4-4-1-5.6C324.7,65.7,323.8,64.6,322.8,63.6z"/>
	</g>
	<g>
		<g>
			<g>
				<path d="M16.7,120H8.9V37.2c6.6-2.1,13.1-3.1,19.5-3.1c4.7,0,8.9,0.7,12.7,2.1s7.1,3.4,9.7,6.1c2.7,2.6,4.8,5.7,6.2,9.2
					c1.4,3.5,2.1,7.5,2.1,11.7c0,5.1-0.8,9.4-2.6,13.1c-1.8,3.6-4,6.6-6.9,9c-2.9,2.3-6.1,4.1-9.8,5.2c-3.6,1.1-7.4,1.7-11.2,1.7
					c-2.1,0-4.1-0.2-6.1-0.5c-2-0.3-3.9-0.7-6-1.2L16.7,120L16.7,120z M50.1,63.1c0-6.6-1.9-11.9-5.5-16C40.9,43,35.7,41,29,41
					c-2.1,0-4.2,0.1-6.2,0.4s-4.1,0.7-6.1,1.4v40.4c1.9,0.7,3.7,1.1,5.7,1.6c2,0.4,3.8,0.7,5.6,0.7c6.8,0,12.1-2,16.1-5.8
					C48.1,75.7,50.1,70.2,50.1,63.1z"/>
				<path d="M75.1,91.7V11.9h8v79.8C83.1,91.7,75.1,91.7,75.1,91.7z"/>
				<path d="M148.2,83.4c-2.7,2.9-5.8,5-9.2,6.5s-7.7,2.2-12.7,2.2c-4.6,0-8.6-0.7-11.9-2.3c-3.4-1.6-6.2-3.6-8.6-6.3
					c-2.2-2.6-4-5.7-5.1-9.1c-1.1-3.4-1.7-7-1.7-10.8c0-5,0.7-9.3,2.1-13.1c1.4-3.7,3.3-6.7,5.6-9.1c2.3-2.4,5.1-4.2,8.2-5.4
					c3.1-1.2,6.4-1.8,9.9-1.8c8.4,0,14.6,2.5,18.9,7.7c4.3,5.1,6.3,12.6,6.2,22.4h-42.7c0.2,6.4,2.1,11.6,5.6,15.4
					c3.4,3.8,8.2,5.7,14.3,5.7c3.4,0,6.3-0.6,9.1-1.7c2.7-1.1,5.2-2.9,7.4-5.3L148.2,83.4z M141.8,57.5c0-2.3-0.4-4.6-1.1-6.6
					c-0.7-2.1-1.8-3.8-3.1-5.2c-1.3-1.4-3.1-2.6-5.2-3.4c-2.1-0.8-4.6-1.3-7.4-1.3c-2.9,0-5.4,0.5-7.5,1.3c-2.1,0.8-3.7,2-4.9,3.4
					c-1.2,1.4-2.3,3.1-3.4,5.2c-1,2.1-1.7,4.4-2,6.8L141.8,57.5L141.8,57.5z"/>
				<path d="M202,48.2c-2-2.5-4.1-4.4-6.4-5.5c-2.3-1.2-5-1.8-8.2-1.8c-4.1,0-6.9,0.7-8.6,2.1s-2.4,3.3-2.4,5.5
					c0,1.5,0.4,2.8,1.1,3.9c0.7,1,1.8,2,3,2.7c1.2,0.7,2.7,1.4,4.3,2s3.4,1.1,5,1.7c2.1,0.7,4.3,1.4,6.4,2.2
					c2.1,0.8,4.1,1.9,5.9,3.2c1.8,1.3,3.3,2.9,4.4,4.8c1.1,1.9,1.7,4.2,1.7,7c0,2.6-0.6,4.9-1.7,7s-2.6,3.8-4.6,5.2
					c-1.9,1.4-4.2,2.5-6.7,3.2c-2.6,0.7-5.3,1.1-8.3,1.1c-4.6,0-8.6-0.7-12-2.2c-3.5-1.5-6.8-3.9-9.9-7.4l6.2-5.5
					c4.1,5.3,9.5,8,16.1,8c4.3,0,7.5-0.8,9.5-2.4s3.1-3.5,3.1-5.8c0-1.8-0.4-3.2-1.1-4.4c-0.7-1.2-1.8-2.1-3.1-3s-2.8-1.5-4.6-2.1
					c-1.7-0.6-3.5-1.1-5.4-1.7c-2.1-0.7-4.3-1.3-6.3-2.1c-2.1-0.7-4-1.8-5.7-2.9c-1.7-1.2-3.1-2.7-4.1-4.5c-1.1-1.9-1.6-4.1-1.6-7
					c0-5,1.9-8.9,5.5-11.7c3.6-2.7,8.4-4.1,14.2-4.1c4.1,0,7.8,0.7,11,2.1c3.3,1.4,6.3,3.7,9.2,7.2l-5.9,5.3L202,48.2z"/>
				<path d="M223.2,91.7V12h8v79.6L223.2,91.7L223.2,91.7z M231.1,62.3l27.3-27.6h10.7l-28,27.4l27.9,29.6h-11L231.1,62.3z"/>
			</g>
		</g>
		<g>
			<path class="st6" d="M102.8,120H54.8v-7.5h48L102.8,120L102.8,120z"/>
		</g>
	</g>
</g>
</svg>
