<svg xmlns="http://www.w3.org/2000/svg" xmlns:xlink="http://www.w3.org/1999/xlink" width="37.13" height="37.13" fill="none"><g transform="translate(-95 .44)"><use xlink:href="#a" fill="url(#b)"/><use xlink:href="#a" fill="url(#c)"/></g><path d="M34.01 15.98h-.2a2.96 2.96 0 0 1-2.14-1.07 3.15 3.15 0 0 1-.77-2.26 3.1 3.1 0 0 1 3.32-2.93 3.13 3.13 0 0 1 1.84 5.49c-.57.5-1.28.77-2.05.77zm-1-3.2c0 .3.1.54.27.78.17.2.43.34.7.34s.54-.1.77-.27c.2-.17.34-.44.34-.7a1.05 1.05 0 0 0-.97-1.12.99.99 0 0 0-1.1.98z" fill="#53bce6"/><path d="M125.03 15.65a6.9 6.9 0 0 0-1.1-2.1 4.57 4.57 0 0 0-1.7-1.3c-.68-.3-1.41-.44-2.21-.44s-1.58.13-2.24.44a4.5 4.5 0 0 0-1.74 1.24 5.85 5.85 0 0 0-1.1 2.09c-.28.8-.38 1.78-.38 2.9 0 1 .14 1.91.37 2.72.27.8.64 1.55 1.1 2.09.47.6 1.08 1 1.75 1.31.66.3 1.4.44 2.2.44a4.98 4.98 0 0 0 5.05-3.8c.27-.81.37-1.76.37-2.77a7.27 7.27 0 0 0-.37-2.82zm-5.01-1.92c.7 0 1.33.2 1.8.6.5.37.9.95 1.14 1.62.23.67.37 1.48.44 2.39 0 .94-.17 1.75-.44 2.46-.27.7-.64 1.28-1.14 1.65a3 3 0 0 1-3.61 0c-.5-.37-.9-.95-1.14-1.62a6.95 6.95 0 0 1-.36-2.42c0-.95.13-1.75.36-2.43.27-.67.64-1.24 1.14-1.61.44-.4 1.07-.64 1.8-.64z" fill="url(#d)" transform="translate(-95 .44)"/><path d="M114.56 17.26a3.6 3.6 0 0 0-1.87-.5c-.77 0-1.4.17-1.94.47l3.04-5.42h-2.4a167.4 167.4 0 0 0-3.15 5.89 6.5 6.5 0 0 0-.1 5.02c.34.77.94 1.3 1.6 1.75a4.68 4.68 0 0 0 4.42.1 3.8 3.8 0 0 0 1.6-1.48c.44-.64.64-1.42.64-2.26 0-.77-.16-1.48-.53-2.09a3.47 3.47 0 0 0-1.3-1.48zm-.4 4.82a2 2 0 0 1-.9.84 2.6 2.6 0 0 1-2.48-.04c-.36-.2-.67-.5-.9-.84-.2-.33-.33-.77-.33-1.14v-.34a2.08 2.08 0 0 1 1.23-1.85c.37-.17.77-.3 1.24-.3a2.59 2.59 0 0 1 2.14 1.1c.2.34.34.78.34 1.25 0 .5-.1.95-.34 1.32z" fill="url(#e)" transform="translate(-95 .44)"/><path d="M108 17.36c-.36-.3-.8-.54-1.26-.64-.3-.1-.6-.13-.9-.13l2.9-4.78h-6.92v1.98h3.88l-2.78 4.38-.03.03.17.14h.03c.2-.1.43-.14.67-.2.27-.04.53-.1.94-.1.7 0 1.3.2 1.73.6.44.44.64.98.64 1.72 0 .54-.13 1-.33 1.41a2.53 2.53 0 0 1-2.21 1.28c-.47 0-.9-.13-1.3-.33a2.6 2.6 0 0 1-.98-.78l-.03-.1-1.07 1.72.03.03c.44.44.94.78 1.58 1.01.63.27 1.27.37 1.87.37.83 0 1.6-.17 2.27-.54.67-.37 1.27-.9 1.64-1.58.44-.67.64-1.48.64-2.39 0-.7-.14-1.35-.34-1.89-.2-.5-.5-.87-.83-1.2z" fill="url(#f)" transform="translate(-95 .44)"/><defs><linearGradient id="b" x1="101.38" y1="6.73" x2="121.59" y2="26.41" xlink:href="#g"><stop stop-color="#4aa6cc"/><stop offset="1" stop-color="#53bce6"/></linearGradient><linearGradient id="c" x1="113.03" y1="6.39" x2="113.03" y2="12.56" xlink:href="#g"><stop stop-color="#4aa6cc"/><stop offset="1" stop-color="#4aa6cc" stop-opacity="0"/></linearGradient><linearGradient id="d" x1="115.88" y1="15.06" x2="123.07" y2="20.84" xlink:href="#g"><stop stop-color="#4aa6cc"/><stop offset=".21" stop-color="#4daed5"/><stop offset=".61" stop-color="#52b8e2"/><stop offset="1" stop-color="#53bce6"/></linearGradient><linearGradient id="e" x1="108.25" y1="15.83" x2="114.98" y2="20.19" xlink:href="#g"><stop stop-color="#4aa6cc"/><stop offset=".21" stop-color="#4daed5"/><stop offset=".61" stop-color="#52b8e2"/><stop offset="1" stop-color="#53bce6"/></linearGradient><linearGradient id="f" x1="101.66" y1="15.77" x2="108.13" y2="19.64" xlink:href="#g"><stop stop-color="#4aa6cc"/><stop offset=".21" stop-color="#4daed5"/><stop offset=".61" stop-color="#52b8e2"/><stop offset="1" stop-color="#53bce6"/></linearGradient><linearGradient id="g" gradientUnits="userSpaceOnUse"/><path id="a" d="M113.06 36.25c-.77 0-1.57-.03-2.34-.17-4.79-.6-9-3.06-11.98-6.9a17.8 17.8 0 0 1-3.58-13.37c.6-4.81 3.05-9.05 6.86-12.05A17.8 17.8 0 0 1 115.3.16c3.14.44 6.09 1.61 8.6 3.53.46.34.53 1.01.2 1.45-.34.47-1 .54-1.44.2a15.88 15.88 0 0 0-19.4.03 15.69 15.69 0 0 0-6.06 10.65 16.1 16.1 0 0 0 13.78 17.97c4.22.54 8.43-.6 11.78-3.2a15.67 15.67 0 0 0 6.05-10.63c.2-1.62.17-3.24-.1-4.82-.1-.54.3-1.1.84-1.18.54-.1 1.1.3 1.17.85A18.06 18.06 0 0 1 124 32.5a17.44 17.44 0 0 1-10.94 3.74z"/></defs></svg>
