<svg xmlns="http://www.w3.org/2000/svg" xmlns:xlink="http://www.w3.org/1999/xlink" viewBox="0 0 45.36 60"><defs><linearGradient id="a" x1="14.84" x2="27.47" y1="22.54" y2="44.65" gradientUnits="userSpaceOnUse"><stop offset="0" stop-color="#909cf7"/><stop offset="1" stop-color="#4b38d8"/></linearGradient><linearGradient xlink:href="#a" id="b" x1="7.98" x2="21" y1="-1.36" y2="21.42"/></defs><path fill="url(#a)" d="M45.25 22.6C44.16 33.06 35.02 40.83 24.5 40.83h-4.05v9.57c0 5.3-4.3 9.6-9.6 9.6H3.36A3.35 3.35 0 0 1 0 56.64v-19.7l5.04-7.07a3.36 3.36 0 0 1 4.04-1.15l2.87 1.2c1.44.61 3.12.13 4.02-1.15l6.72-9.42a3.33 3.33 0 0 1 4.01-1.14l5.52 2.32c1.44.61 3.11.13 4.02-1.14l6.46-9.06a20.5 20.5 0 0 1 2.55 12.27"/><path fill="url(#b)" d="M3.29 28.87a5.55 5.55 0 0 1 3.41-2.31 5.37 5.37 0 0 1 3.15.32l2.86 1.2c.17.07.34.1.52.1.44 0 .85-.21 1.1-.57l6.59-9.24a5.6 5.6 0 0 1 3.41-2.31 5.4 5.4 0 0 1 3.13.31l5.52 2.32a1.33 1.33 0 0 0 1.62-.46l6.92-9.71A20.33 20.33 0 0 0 24.95 0H3.36A3.35 3.35 0 0 0 0 3.36v30.13z"/></svg>