<svg xmlns="http://www.w3.org/2000/svg" viewBox="0 0 747 997"><defs><radialGradient id="a" cx="591.3" cy="905.2" r="724.4" fx="591.3" fy="905.2" gradientUnits="userSpaceOnUse"><stop offset="0" stop-color="#2440E6"/><stop offset="1" stop-color="#5661B3"/></radialGradient><radialGradient id="b" cx=".3" cy="256.7" r="527.6" fx=".3" fy="256.7" gradientTransform="scale(.9 1.2)" gradientUnits="userSpaceOnUse"><stop offset="0" stop-color="#6574CD" stop-opacity=".5"/><stop offset="1" stop-color="#6574CD"/></radialGradient></defs><circle cx="371.2" cy="375.9" r="373.4" fill="url(#a)" transform="translate(2 -2)"/><path fill="url(#b)" d="M307 7A370 370 0 0 0 5 302l-6 26-1 336v335h7l28-2a290 290 0 0 0 251-243c4-27 5-37 4-182l-1-152 6-15c8-20 31-43 51-51l15-6h139c76 0 143-1 149-2a92 92 0 0 0 69-75c3-13 3-17-1-32-13-46-56-109-101-146-51-42-107-70-167-84-32-8-104-9-140-2" transform="translate(2 -2)"/></svg>