<svg xmlns="http://www.w3.org/2000/svg" version="1.1" id="Layer_1" x="0" y="0" viewBox="134 307.5 176.023 176.023" xml:space="preserve" width="176.023" height="176.023"><style type="text/css" id="style2302">.st7{opacity:.12;enable-background:new}</style><g id="g2364" transform="translate(8.662 -1.214)"><linearGradient id="SVGID_1_" gradientUnits="userSpaceOnUse" x1="215.196" y1="531.454" x2="100.359" y2="646.291" gradientTransform="translate(0 -212)"><stop offset="0" id="stop2308" stop-color="#00a0ff"/><stop offset=".007" id="stop2310" stop-color="#00a1ff"/><stop offset=".26" id="stop2312" stop-color="#00beff"/><stop offset=".512" id="stop2314" stop-color="#00d2ff"/><stop offset=".76" id="stop2316" stop-color="#00dfff"/><stop offset="1" id="stop2318" stop-color="#00e3ff"/></linearGradient><path d="M137.5 311.5c-2 2.1-3.2 5.4-3.2 9.6v151.3c0 4.2 1.2 7.5 3.2 9.6l.5.5 84.8-84.8v-2L138 310.9z" id="path2321" fill="url(#SVGID_1_)"/><linearGradient id="SVGID_2_" gradientUnits="userSpaceOnUse" x1="297.578" y1="608.75" x2="132.007" y2="608.75" gradientTransform="translate(0 -212)"><stop offset="0" id="stop2323" stop-color="#ffe000"/><stop offset=".409" id="stop2325" stop-color="#ffbd00"/><stop offset=".775" id="stop2327" stop-color="orange"/><stop offset="1" id="stop2329" stop-color="#ff9c00"/></linearGradient><path d="M251 426l-28.2-28.3v-2l28.3-28.3.6.4 33.5 19c9.6 5.4 9.6 14.3 0 19.8l-33.5 19z" id="path2332" fill="url(#SVGID_2_)"/><linearGradient id="SVGID_3_" gradientUnits="userSpaceOnUse" x1="235.969" y1="624.481" x2="80.242" y2="780.208" gradientTransform="translate(0 -212)"><stop offset="0" id="stop2334" stop-color="#ff3a44"/><stop offset="1" id="stop2336" stop-color="#c31162"/></linearGradient><path d="M251.7 425.6l-28.9-28.9-85.3 85.3c3.1 3.3 8.4 3.8 14.2.4l100-56.8" id="path2339" fill="url(#SVGID_3_)"/><linearGradient id="SVGID_4_" gradientUnits="userSpaceOnUse" x1="116.02" y1="473.07" x2="185.559" y2="542.609" gradientTransform="translate(0 -212)"><stop offset="0" id="stop2341" stop-color="#32a071"/><stop offset=".069" id="stop2343" stop-color="#2da771"/><stop offset=".476" id="stop2345" stop-color="#15cf74"/><stop offset=".801" id="stop2347" stop-color="#06e775"/><stop offset="1" id="stop2349" stop-color="#00f076"/></linearGradient><path d="M251.7 367.9l-100-56.8c-5.9-3.3-11.1-2.9-14.2.4l85.3 85.3z" id="path2352" fill="url(#SVGID_4_)"/><g id="g2358"><path d="M251 425l-99.3 56.4c-5.6 3.2-10.5 3-13.7.1l-.5.5.5.5c3.2 2.9 8.2 3.1 13.7-.1l100-56.8z" id="path2354" opacity=".2"/><path class="st7" d="M137.5 481c-2-2.1-3.2-5.4-3.2-9.6v1c0 4.2 1.2 7.5 3.2 9.6l.5-.5z" id="path2356"/></g><path class="st7" d="M285.1 405.6L251 425l.6.6 33.5-19c4.8-2.7 7.2-6.3 7.2-9.9-.4 3.3-2.8 6.4-7.2 8.9z" id="path2360"/><path d="M151.7 312l133.4 75.8c4.3 2.5 6.8 5.6 7.2 8.9 0-3.6-2.4-7.2-7.2-9.9L151.7 311c-9.6-5.4-17.4-.9-17.4 10v1c0-10.9 7.8-15.4 17.4-10z" id="path2362" opacity=".25" fill="#fff"/></g></svg>