<svg xmlns="http://www.w3.org/2000/svg" fill="none" viewBox="0 0 69 66"><path fill="#000" d="M13.2 7.8c0 1.8-1.5 3.3-3.3 3.3H4.5V4.5H10a3.3 3.3 0 0 1 3.3 3.3zm4.7 0A7.7 7.7 0 0 0 10.1 0H0v22.2h4.5v-6.6h5.6c4.3 0 7.8-3.5 7.8-7.8zm12 41h16.3v-4.4H34.3v-3.7a27.8 27.8 0 0 0 5.3-1.3l2.2-.8-1.6-4.4-2.2.8a24.4 24.4 0 0 1-3.7 1v-4.8h11.9v-4.5H29.8v9.6c-2.7-.3-4.7-1.4-6-2.5-2.3-2-4.7-6-3-13.9l.5-2.3-4.6-1-.5 2.3c-1.7 8-.1 14.3 4.5 18.4a14.7 14.7 0 0 0 9.1 3.6v8zm34.6 5.7a8.8 8.8 0 0 1-.4 2.8c-.3.8-.7 1.6-1.3 2.2a5.8 5.8 0 0 1-2 1.5 6.6 6.6 0 0 1-5.1 0 5.8 5.8 0 0 1-2-1.5c-.5-.6-1-1.4-1.2-2.2a8.8 8.8 0 0 1-.5-2.8c0-1 .2-2 .5-2.8.3-.9.7-1.6 1.2-2.3a5.7 5.7 0 0 1 2-1.5 7 7 0 0 1 5.2 0 5.7 5.7 0 0 1 2 1.5 8.8 8.8 0 0 1 1.7 5zm4.5 0a11.4 11.4 0 0 0-2.9-8.3 9.8 9.8 0 0 0-3.4-2.4 11 11 0 0 0-4.4-.9 11 11 0 0 0-4.5.9 9.8 9.8 0 0 0-3.4 2.4c-.9 1-1.6 2.3-2.1 3.7-.5 1.4-.7 3-.7 4.6 0 1.6.2 3.2.7 4.6.5 1.4 1.2 2.6 2.1 3.6a9.9 9.9 0 0 0 3.4 2.4c1.4.6 2.9.9 4.5.9a11 11 0 0 0 4.4-.9 10 10 0 0 0 3.4-2.4c1-1 1.7-2.2 2.2-3.6.5-1.4.7-3 .7-4.6z"/></svg>