<svg xmlns="http://www.w3.org/2000/svg" viewBox="0 0 90 90"><path fill="#fff" d="M44.861 16c6.224-.023 12.133 2.071 16.933 5.677a28.67 28.67 0 0 1 10.281 14.774l.386 1.309.388 1.309c.102.339.264.65.476.926s.474.509.774.69l1.16.693 1.162.696c2.781 1.662 4.985 3.989 6.462 6.721s2.226 5.861 2.104 9.14c-.179 4.76-2.291 8.979-5.526 12.013s-7.604 4.883-12.297 4.898l-22.104.081L22.955 75c-4.693.017-9.073-1.801-12.331-4.815S5.231 62.97 5.019 58.213c-.147-3.279.584-6.413 2.041-9.157s3.646-5.082 6.419-6.764l1.157-.702 1.154-.702a2.84 2.84 0 0 0 .768-.696c.21-.276.371-.592.468-.932l.38-1.311.38-1.309c1.744-6.054 5.401-11.205 10.179-14.845S38.635 16.021 44.861 16"/><path fill="#43a046" d="M44.843 10a33.94 33.94 0 0 1 20.429 6.714c5.725 4.248 10.104 10.244 12.373 17.21.093.286.229.546.409.778a2.67 2.67 0 0 0 .645.593c3.533 2.289 6.45 5.468 8.434 9.227s3.042 8.1 2.845 12.71c-.278 6.67-3.227 12.598-7.758 16.869-4.53 4.266-10.638 6.875-17.23 6.899h0H25.18a25.35 25.35 0 0 1-17.276-6.712C3.346 70.087.355 64.211.031 57.547c-.226-4.609.797-8.956 2.757-12.728a24.82 24.82 0 0 1 8.374-9.292 2.64 2.64 0 0 0 .64-.596 2.58 2.58 0 0 0 .403-.78 34.91 34.91 0 0 1 12.252-17.293c5.694-4.287 12.743-6.831 20.385-6.857zm.031 8.857c-5.643.019-10.985 1.949-15.313 5.242s-7.645 7.952-9.225 13.428h0l-.344 1.184-.344 1.186c-.087.307-.234.593-.424.843a2.57 2.57 0 0 1-.696.63h0l-1.046.635-1.048.635c-2.513 1.522-4.497 3.639-5.818 6.118s-1.984 5.317-1.85 8.282c.193 4.302 2.128 8.106 5.08 10.829a16.41 16.41 0 0 0 11.175 4.355h0l20.033-.068 20.033-.073c4.253-.013 8.21-1.686 11.145-4.43s4.846-6.56 5.008-10.865c.11-2.965-.568-5.798-1.907-8.267s-3.335-4.576-5.856-6.079h0l-1.054-.63-1.051-.627c-.272-.164-.511-.375-.702-.624a2.59 2.59 0 0 1-.432-.838h0l-.352-1.184-.349-1.184c-1.621-5.465-4.965-10.098-9.318-13.363s-9.706-5.156-15.346-5.135zm-8.687 37.337c.514-.003.979.211 1.318.549a1.9 1.9 0 0 1 .552 1.334l.005 1.904.008 1.902a1.9 1.9 0 0 1-.542 1.34 1.85 1.85 0 0 1-1.318.557l-1.878.005-1.881.005c-.516.003-.982-.208-1.321-.549s-.55-.809-.552-1.332l-.005-1.904-.008-1.902c0-.52.208-.994.545-1.337a1.85 1.85 0 0 1 1.316-.559l1.878-.008 1.884-.005zm10.635 0c.514-.003.979.211 1.318.549a1.9 1.9 0 0 1 .552 1.334l.008 1.904.005 1.902a1.9 1.9 0 0 1-.542 1.34 1.85 1.85 0 0 1-1.318.557l-1.878.005-1.881.005c-.516.003-.982-.208-1.321-.549s-.55-.809-.552-1.332l-.005-1.904-.008-1.902c0-.52.208-.994.545-1.337a1.85 1.85 0 0 1 1.316-.559l1.881-.008 1.881-.005zm10.635 0c.514-.003.979.211 1.318.549a1.9 1.9 0 0 1 .552 1.334l.008 1.904.005 1.902a1.9 1.9 0 0 1-.542 1.34 1.85 1.85 0 0 1-1.318.557l-1.878.005-1.881.005c-.516.003-.982-.208-1.321-.549s-.55-.809-.552-1.332l-.005-1.904-.008-1.902a1.91 1.91 0 0 1 .542-1.34c.337-.343.804-.557 1.321-.557l1.878-.008 1.881-.005zM36.182 45.434c.514 0 .979.213 1.318.551s.55.812.552 1.332l.008 1.904.005 1.902c0 .52-.206.994-.545 1.337s-.799.557-1.316.559l-1.878.005-1.881.008c-.514 0-.979-.211-1.318-.551a1.9 1.9 0 0 1-.555-1.329l-.005-1.907-.008-1.902c0-.52.208-.994.545-1.337a1.85 1.85 0 0 1 1.316-.559l1.881-.008 1.881-.005zm10.635 0c.514 0 .979.213 1.318.551s.55.812.552 1.332l.008 1.904.005 1.902c0 .52-.206.994-.542 1.337a1.85 1.85 0 0 1-1.318.559l-1.878.005-1.881.008c-.514 0-.979-.211-1.318-.551s-.55-.809-.552-1.329l-.008-1.907-.008-1.902c0-.52.208-.994.545-1.337a1.85 1.85 0 0 1 1.318-.559l1.878-.008 1.881-.005zm10.635 0c.514 0 .979.213 1.318.551s.55.812.552 1.332l.008 1.904.005 1.902c0 .52-.206.994-.542 1.337a1.85 1.85 0 0 1-1.318.559l-1.878.005-1.881.008c-.514 0-.982-.208-1.321-.549a1.88 1.88 0 0 1-.55-1.332l-.008-1.907-.008-1.902c0-.52.206-.994.545-1.337a1.85 1.85 0 0 1 1.318-.559l1.878-.008 1.881-.005zM36.177 34.671c.514 0 .979.213 1.318.551s.55.812.552 1.332l.008 1.904.005 1.902c0 .52-.206.994-.542 1.337a1.85 1.85 0 0 1-1.318.559l-1.878.005-1.881.008c-.514 0-.979-.211-1.318-.551s-.55-.809-.552-1.329l-.008-1.904-.008-1.904c0-.52.208-.994.545-1.337a1.85 1.85 0 0 1 1.318-.559l1.878-.005 1.881-.008zm10.635 0c.514 0 .979.213 1.318.551s.55.812.552 1.332l.008 1.904.005 1.902c.003.52-.206.994-.542 1.337a1.85 1.85 0 0 1-1.318.559l-1.878.005-1.881.008c-.514 0-.979-.211-1.318-.551s-.55-.809-.552-1.329l-.008-1.904-.005-1.904c-.003-.52.206-.994.542-1.337s.804-.557 1.318-.559l1.878-.005 1.881-.008zm10.635 0a1.86 1.86 0 0 1 1.336.523 1.89 1.89 0 0 1 .583 1.321v.039l-.018 1.904-.015 1.904c0 .52-.208.994-.545 1.337a1.85 1.85 0 0 1-1.318.559l-1.878.005-1.881.005c-.514.003-.982-.208-1.321-.549a1.88 1.88 0 0 1-.55-1.332l-.008-1.904-.005-1.902c-.003-.523.206-.996.542-1.34a1.85 1.85 0 0 1 1.318-.559l1.878-.005 1.881-.008z"/></svg>