<svg version="1.2" xmlns="http://www.w3.org/2000/svg" viewBox="0 0 84 84" width="128" height="128">
	<title>plutus logo-svg</title>
	<style>
		.s0 { fill: #d1ae52 } 
	</style>
	<path id="Layer" fill-rule="evenodd" class="s0" d="m50.2 56c2.1 2.7 4.4 5.6 1.9 8.7q-0.3 0.3-0.6 0.6-0.3 0.3-0.6 0.6-0.3 0.3-0.6 0.5-0.4 0.3-0.7 0.5c-1.8 1.2-2.9 2-2.4 6.1l-2.1 0.2c-0.8-5.2 1.3-6.7 3.3-8.1 0.7-0.5 1.5-1 2-1.8 1.4-1.6 0.6-2.8-1.9-5.9q-0.2-0.2-0.4-0.4-0.2-0.3-0.4-0.5-0.1-0.3-0.3-0.5-0.2-0.2-0.4-0.5-0.3-0.3-0.5-0.8-0.2-0.4-0.4-0.9-0.1-0.5-0.1-0.9 0-0.5 0.1-1 0.1-0.5 0.3-0.9 0.2-0.4 0.5-0.8 0.2-0.4 0.5-0.8 0.3-0.3 0.7-0.6-0.9-0.6-1.6-1.4-0.7-0.7-1.3-1.6-0.5-1-0.8-2-0.3-1-0.4-2h2.2q0.1 0.9 0.4 1.7 0.2 0.9 0.7 1.6 0.5 0.7 1.2 1.3 0.7 0.6 1.5 1l0.2 0.1c1.3 0.6 2.9 1 5.1 1 8.8-0.2 9-6.4 9-6.7h2.2c0 0 0 0.6-0.3 1.4q0.5 0 1 0 0.4-0.1 0.9-0.2 0.4-0.1 0.9-0.2 0.4-0.1 0.9-0.3c-0.5-1.5-2.9-6.1-5.3-10l0.7-1.6h0.2c-0.4-1.8-1.2-5.1-1.4-7.3-8.3-1.3-14.2-0.4-17.7 2.7q-0.7 0.7-1.3 1.6-0.6 0.8-1 1.7-0.4 1-0.6 2-0.2 1-0.2 2l-1.2 0.1-0.9 0.1q0-0.2-0.1-0.4-0.1-0.2-0.2-0.4-0.1-0.2-0.2-0.3-0.2-0.1-0.4-0.2c-0.4-0.3-0.9-0.2-1.4 0.2-0.9 0.6-1.2 1.4-1 2.4 0.4 1.8 2.1 3.8 3.5 4.6l0.5-0.3 0.2 0.7 0.1 0.1 0.2 0.2 0.5 1q-0.2 0.1-0.3 0.2-0.1 0-0.3 0.1-0.1 0.1-0.3 0.2-0.1 0.1-0.2 0.2l-0.2 0.1c-0.7 0.6-1.5 1.5-1.7 2.3-0.2 0.7 0 1.3 0.5 1.9l1.5 1.8c2.1 2.7 4.4 5.5 1.9 8.7-0.8 1-1.7 1.6-2.5 2.2-1.8 1.2-2.9 2-2.4 6l-2.1 0.3c-0.8-5.3 1.3-6.7 3.2-8.1q0.3-0.1 0.6-0.3 0.3-0.3 0.6-0.5 0.2-0.2 0.5-0.5 0.2-0.2 0.4-0.5c1.4-1.6 0.6-2.9-1.9-5.9l-1.5-1.9q-0.3-0.3-0.5-0.8-0.2-0.4-0.4-0.9-0.1-0.4-0.1-0.9 0-0.5 0.1-1c0.3-1.2 1-2.2 1.8-3q-0.7-0.5-1.3-1.1-0.6-0.6-1.1-1.4-0.5-0.7-0.8-1.5-0.4-0.7-0.6-1.6-0.1-0.6-0.1-1.3 0.1-0.6 0.3-1.3 0.3-0.6 0.7-1.1 0.4-0.5 0.9-0.9c1.2-0.8 2.4-1 3.6-0.4l0.4 0.1q0.2-0.8 0.5-1.6 0.3-0.8 0.7-1.5 0.5-0.8 1-1.4 0.6-0.7 1.2-1.3c3.9-3.6 10.5-4.8 19.2-3.4 2-2.6 2.9-6.3-0.5-9.5-3.1-2.9-8.6-3.7-12.4-0.2l-1.7-0.4c-0.7-3.1-4.2-4.6-7.2-5.1-4.6-0.5-10.7 1-13.1 5.8-3.1 6.3 0.9 9.5 1.1 9.6l-0.8 2c-4.6-0.2-7.6 0.5-9.1 2.2-2 2.3-1.2 6.2-0.6 9.4 0.6 2.6 1 4.6 0 5.8q-0.4 0.4-0.8 0.8-0.5 0.4-1 0.6-0.5 0.3-1 0.4-0.6 0.1-1.2 0.1-0.3 0-0.6 0-0.3 0-0.6-0.1-0.2-0.1-0.5-0.2-0.3-0.1-0.6-0.2c-1.8-1-2.9-2.7-2.5-4.5l2.1 0.5c-0.2 0.7 0.4 1.5 1.3 2q0.4 0.2 0.9 0.3 0.6 0.1 1.1 0 0.5-0.2 0.9-0.4 0.4-0.3 0.7-0.7c0.4-0.4 0-2.6-0.3-4.1-0.8-3.6-1.7-8.1 1-11.1 1.7-2 4.4-3 8.5-3.1-1.2-2-2.4-5.4 0-10.3 2.9-5.7 10-7.6 15.4-6.9 4 0.6 7.1 2.4 8.4 5 4.6-3.3 10.5-2.2 14 1.2 0.9 0.7 1.6 1.6 2.1 2.6 0.5 1.1 0.8 2.2 0.9 3.3 0.1 1.1-0.1 2.3-0.4 3.3-0.4 1.1-0.9 2.1-1.7 3 0.4 2.7 1.8 8.7 1.8 8.7l-0.8 1.3c5.6 9.4 5.1 10.4 4.8 10.9-0.5 1-2.4 1.6-4.1 1.8q0.9 0.6 1.7 1.4 0.7 0.8 1.2 1.7 0.5 1 0.8 2 0.2 1.1 0.1 2.2c0 2.7-2.1 5-4.2 7.2-2.7 2.9-4.3 4.8-2.8 7l-1.8 1.3c-2.4-3.8 0.5-6.9 3.1-9.8 1.7-1.9 3.6-3.8 3.6-5.8 0.2-3.9-3.2-5.6-4.5-6.1-1.4 2.1-4 4.2-9.3 4.4h-0.7q-0.6-0.1-1.2-0.1-0.6-0.1-1.2-0.2-0.6-0.1-1.2-0.2-0.6-0.2-1.1-0.3c-0.8 0.5-1.8 1.4-2 2.5-0.2 0.6 0 1.2 0.5 1.8q0.2 0.3 0.3 0.5 0.2 0.2 0.4 0.4 0.2 0.3 0.4 0.5 0.2 0.2 0.4 0.4zm-15.5-38l1.6 1.4q-0.2 0.3-0.4 0.6-0.1 0.4-0.1 0.7 0 0.4 0.1 0.7 0.1 0.4 0.3 0.7c0.5 0.7 1.4 1.1 2.2 0.8 1.4-0.6 1.6-0.9 2.7-2.6q0.3-0.5 0.7-1 0.3-0.5 0.6-1 0.4-0.5 0.7-1 0.4-0.4 0.7-0.9c1.5-1.9 3.1-2.9 4.8-2.9 2.9-0.1 5 2.1 5 2.2l-1.6 1.5c0 0-1.4-1.6-3.2-1.6-1.1 0-2.2 0.8-3.2 2q-0.3 0.5-0.7 1-0.3 0.4-0.7 0.9-0.3 0.5-0.7 1-0.3 0.5-0.6 1c-1.2 1.8-1.7 2.5-3.7 3.3q-0.1 0.1-0.3 0.1-0.2 0.1-0.4 0.1-0.2 0.1-0.3 0.1-0.2 0-0.4 0-0.5 0-1-0.1-0.4-0.2-0.9-0.4-0.4-0.2-0.7-0.5-0.4-0.3-0.7-0.7-0.4-0.6-0.7-1.3-0.2-0.7-0.2-1.5 0.1-0.7 0.4-1.4 0.2-0.7 0.7-1.2zm23.3 45.2c2.2 2.7 4.5 5.5 2 8.6q-0.2 0.4-0.5 0.7-0.3 0.3-0.6 0.5-0.3 0.3-0.7 0.6-0.3 0.2-0.7 0.4c-1.7 1.3-2.9 2.1-2.4 6.1l-2.1 0.3c-0.7-5.3 1.4-6.7 3.3-8.1q0.3-0.2 0.5-0.4 0.3-0.2 0.6-0.5 0.3-0.2 0.5-0.4 0.2-0.3 0.5-0.6c1.3-1.6 0.5-2.8-2-5.8q-0.2-0.3-0.4-0.5-0.1-0.2-0.3-0.4-0.2-0.3-0.4-0.5-0.2-0.2-0.3-0.5-0.4-0.3-0.6-0.8-0.2-0.4-0.3-0.9-0.2-0.4-0.2-0.9 0-0.5 0.1-1c0.6-2.8 3.6-4.4 4.1-4.7l1 1.9c-0.7 0.5-2.7 1.8-3 3.2-0.1 0.7 0 1.3 0.5 1.9l1.5 1.8zm-22-34.4c-6.3-0.2-9.6 1.2-9.8 4.1-0.1 1.2 0 2.5 0.1 4 0.2 3.6 0.5 7.6-1.9 10.1-1.3 1.3-3.2 2-5.8 2h-1.4l0.2-2.2c2.6 0.1 4.3-0.3 5.4-1.3 1.8-1.8 1.5-5.1 1.3-8.4-0.1-1.5-0.2-3-0.1-4.3 0.1-3 2.4-6.5 12-6.1zm26.1 3.6c0 0-0.8-1.1-3-1.1-2 0-4.8 1.9-5.8 2.7l-1.2-1.6c0.1-0.1 3.9-3.2 7-3.2 3.4 0 4.6 2.2 4.7 2.2zm-2.2 3.4c-0.8 0-1.4-0.6-1.4-1.3 0-0.7 0.6-1.3 1.4-1.3 0.8 0 1.5 0.6 1.5 1.3 0 0.7-0.7 1.3-1.5 1.3z"/>
</svg>