<svg xmlns="http://www.w3.org/2000/svg" viewBox="0 0 300 300"><rect width="257.1" height="257.1" x="21.4" y="21.4" fill="#fff" stroke="#003ca6" stroke-width="43" ry="60"/><path fill="#003ca6" d="M130 53.3a66 66 0 0 0-11.1.8c-8 1-15 5.5-19 12.4a62 62 0 0 0-2.2 4l-25.2 49.7a155 155 0 0 0-8 19.2 62.6 62.6 0 0 0-2.1 32.4A68.7 68.7 0 0 0 75 203.3l-.8 2.4c-2.8 9.8-5.5 19.7-6.7 30-1 8-.6 24.1-.6 24.1l65.5-2.2c0-7 1.5-13.8 4.4-20.1l2.4.2c10 .7 20 0 29.7-3.4a62.5 62.5 0 0 0 29-21 204 204 0 0 0 21.7-35c6.9-14 13.5-28 20.5-41.9a24 24 0 0 0-.4-24 55.4 55.4 0 0 0-7.6-10.7 129.8 129.8 0 0 0-37.2-28c-17-9-34.9-15.8-53.8-19.4a66 66 0 0 0-11-1zm-3.6 11.2h2.2c8.3-.2 16 1.3 23.4 3.6a190 190 0 0 1 51.7 23.6 94 94 0 0 1 21.9 19.3c3 3.8 5.3 8 6 12.9.7 6-2.3 11.2-8 13.4-4.3 1.6-8.8 2-13.3 2-13.1-.2-25.9-2.5-38.1-7a183.3 183.3 0 0 1-44.4-22.8c-7-5-12.6-11.4-17.2-18.7-3-4.6-4.2-9.5-2.6-15a14 14 0 0 1 11.6-10.6c2.3-.4 4.7-.7 6.8-.7zm14.7 9.1a2 2 0 0 0-1.7 1l-2.3 4.7c-.4.9 0 2 .8 2.4l38.5 18.7c.9.4 2 0 2.3-.8L181 95v-.1c.5-.9.1-2-.8-2.4l-38.4-18.7-.7-.2zm-7.7 15.8a2 2 0 0 0-1.7 1l-2.3 4.7c-.4.9 0 2 .8 2.4l38.5 18.7c.9.4 1.9 0 2.3-.8l2.3-4.7c.5-.9.1-2-.8-2.4l-38.4-18.7-.7-.2zm64 14.2c-.7 0-1.3.4-1.6 1l-7.5 15.8c-.4.9 0 2 .9 2.3l7 3.4c2 .9 4.2 1.2 5.6 1.2a14 14 0 0 0 7.5-2.3c.9-.7 3.5-3.2 3.5-7.7-.6-4.3-2.7-7.5-7.4-10l-7.3-3.5-.7-.2z"/></svg>
