<svg xmlns="http://www.w3.org/2000/svg" width="973.349" height="973.349"><path d="M185.269 238.393c.004 0 .096-.12.141-.178l.024-.033c-.105.15-.165.21-.165.21" fill="#6a3906"/><path d="M961.308 317.02c-6.278-6.76-24.104-21.214-55.236-9.642-4.716 1.75-8.606 3.139-11.955 4.152C829.374 173.267 692.336 79.942 540.234 72.089 407.49 65.102 283.112 119.787 198.44 221.925c-.676.698-1.412 1.486-1.847 2.02-3.47 4.228-6.819 8.538-10.423 13.313-.281.345-.6.759-.76.957-.416.528-.87 1.187-1.313 1.852a446.524 446.524 0 00-9.356 13.163c-10.888-8.988-23.953-15.056-38.236-17.57-21.745-3.786-43.641 1.073-61.679 13.71-20.904 14.65-33.61 38.184-34.992 63.068a87.742 87.742 0 00-4.67 3.035C17.142 328.11 5.098 347.039 1.269 368.778c-3.815 21.739 1.036 43.65 13.681 61.679 12.66 18.066 31.598 30.118 53.328 33.933 11.895 2.088 23.804 1.57 35.158-1.396a468.64 468.64 0 00-.495 11.413c-.06.691-.09 1.382-.09 2.02v1.532a457.002 457.002 0 000 16.392l.134 5.459c.181 6.12.51 12.21.961 18.187l.767 8.29c.285 2.988.6 5.947.945 8.846 4.656 39.894 14.883 78.453 30.442 114.865-15.8 15.31-23.472 37.07-20.664 59.365 1.652 13.134 6.862 25.419 15.017 35.458.016.03 1.007 1.254 1.021 1.284l51.438 63.27c11.833 14.575 28.684 23.676 47.44 25.607 16.205 1.667 32.2-2.208 45.64-10.987 70.194 50.326 155.42 77.862 241.97 77.862 3.544 0 7.074-.046 10.648-.136 76.02-1.967 149.263-24.479 212.91-65.291 23.157 15.521 53.629 15.987 77.718.181.044-.03.09-.06.135-.098a74.63 74.63 0 005.932-4.332 67.338 67.338 0 006.337-5.85l57.234-60.268c12.93-13.621 19.794-31.484 19.298-50.302-.436-16.963-6.788-32.836-18.006-45.256 33.67-68.024 47.922-143.812 41.3-220.307a400.647 400.647 0 00-1.908-17.519c16.369-16.789 27.904-32.318 34.33-46.248 16.97-36.793 7.96-58.052-2.582-69.412" fill="#6a3906"/><path d="M792.918 783.322c-3.705 3.952-3.506 10.16.446 13.865l7.869 7.402c1.384-1.038 2.804-2.016 4.033-3.311l8.246-8.684 1.713-1.803-8.441-7.914c-3.952-3.706-10.16-3.507-13.866.445M177.593 724.082c4.31-3.283 5.141-9.437 1.859-13.748-3.282-4.31-9.436-5.143-13.747-1.86l-8.596 6.547-1.896 1.445c-.903-1.727-1.627-3.515-2.225-5.332 1.224 3.837 3.066 7.528 5.753 10.832l.968 1.193 7.301 8.983 1.378-1.05 9.205-7.01M157.688 393.194c9.12-45.567 29.818-83.248 54.049-103.881 15.487-13.188 32.401-19.468 48.7-16.206 41.797 8.366 63.564 75.694 48.616 150.382s-60.95 128.453-102.75 120.088c-29.337-5.874-48.74-40.836-52.571-86.958-1.63-19.59-.503-41.158 3.956-63.425zm49.524 196.028c54.057 10.819 113.55-58.715 132.882-155.305 19.334-96.594-8.817-183.666-62.874-194.486-11.166-2.234-22.55-.917-33.771 3.27-.73.33-1.453.594-2.181.885-9.166 3.737-18.208 9.321-26.898 16.701-37.262 49.787-62.848 109.376-71.821 175.372a377.91 377.91 0 00-3.307 41.298c4.996 59.55 30.07 104.678 67.97 112.265" fill="#fff"/><path d="M918.76 341.466c-17.871 6.653-31.618 10.927-48.258 7.139-53.184-134.83-181.892-232.428-332.161-240.19-126.96-6.553-240.247 49.135-313.465 138.575-3.34 4.08-6.666 8.173-9.836 12.39-.258.345-.544.666-.8 1.01.042-.037.088-.067.13-.103 8.69-7.38 17.732-12.964 26.898-16.701.728-.29 1.45-.555 2.18-.885 11.222-4.187 22.606-5.504 33.772-3.27 54.057 10.82 82.208 97.892 62.874 194.486-19.332 96.59-78.825 166.124-132.882 155.305-37.9-7.587-62.974-52.715-67.97-112.265-.004-.066-.014-.128-.02-.194-.016.646.014 1.302 0 1.947-.102 4.976-.092 9.977.002 14.996.017.923-.024 1.835 0 2.759.018.741.092 1.466.116 2.206.176 5.583.466 11.134.88 16.651.189 2.516.464 5.005.7 7.508.258 2.708.556 5.401.869 8.09 5.016 43.037 17.095 83.834 35.216 121.133 2.281 4.693 1.12 10.305-2.93 13.597l-10.39 8.445c-9.436 7.671-13.581 19.439-12.16 30.735.241 1.917.677 3.81 1.252 5.673.065.212.141.42.21.631.6 1.817 1.323 3.605 2.226 5.332l1.896-1.445 8.596-6.547c4.31-3.283 10.465-2.45 13.747 1.86 3.282 4.31 2.45 10.465-1.86 13.748l-9.204 7.01-1.378 1.05 44.143 54.308c11.807 14.525 33.35 16.75 47.875 4.944l9.666-7.856c4.099-3.33 9.908-3.283 14.046-.001 67.137 53.25 152.566 84.202 244.928 81.818 78.044-2.014 149.9-27.574 209.112-69.602 4.393-3.119 10.322-2.782 14.229.929l6.148 5.837c11.652 11.067 29.225 12.15 42.13 3.666.697-.458 1.415-.96 2.087-1.464l-.141-.132-7.87-7.402c-3.951-3.705-4.15-9.913-.445-13.865 3.707-3.952 9.914-4.15 13.866-.445l8.44 7.914 47.266-49.77c12.89-13.572 12.33-35.224-1.242-48.114l-9.862-9.365c-3.717-3.528-4.492-9.076-2.008-13.557 35.178-63.466 52.678-137.934 45.854-216.638a372.797 372.797 0 00-4.488-33.678c11.318-10.414 32.014-30.906 40.113-48.471 8.693-18.856 10.87-38.284-12.096-29.732" fill="#ff9a75"/><path d="M165.285 437.549c-1.06-12.763-.325-26.812 2.577-41.316 5.942-29.684 19.426-54.23 35.21-67.671 10.088-8.59 21.106-12.683 31.724-10.556 27.228 5.45 41.406 49.308 31.669 97.961-9.737 48.652-39.704 83.676-66.933 78.227-19.11-3.825-31.75-26.601-34.247-56.645zm41.019 106.028c41.798 8.365 87.8-45.4 102.749-120.088C324 348.8 302.234 281.473 260.437 273.107c-16.299-3.262-33.213 3.018-48.7 16.206-24.23 20.633-44.93 58.314-54.05 103.881-4.458 22.267-5.585 43.835-3.955 63.425 3.832 46.122 23.234 81.084 52.572 86.958" fill="#ff574d"/><path d="M266.465 415.967c9.737-48.653-4.441-92.512-31.67-97.961-10.617-2.127-21.635 1.965-31.723 10.556-15.784 13.441-29.268 37.987-35.21 67.67-2.902 14.505-3.637 28.554-2.577 41.317 2.497 30.044 15.137 52.82 34.247 56.645 27.229 5.45 57.196-29.575 66.933-78.227" fill="#ffdbc7"/><path d="M215.348 353.706c-18.055-6.581-26.104 6.424-47.514.295-5.264-1.508-8.081-4.939-11.717-5.718 14.445-15.617 16.624-39.682 3.92-57.812-14.641-20.888-43.441-25.953-64.33-11.314-18.814 13.186-24.642 37.814-14.943 57.849-8.575.327-17.16 2.96-24.71 8.25-20.888 14.64-25.953 43.44-11.314 64.327 14.64 20.888 43.44 25.954 64.329 11.314 6.647-4.659 11.496-10.839 14.813-17.656 13.043 23.969 37.666 40.593 62.716 41.732 19.758.898 32.684-5.755 42.748-19.26 12.994-17.436 3.164-65.751-13.998-72.007" fill="#fff"/></svg>