<svg xmlns="http://www.w3.org/2000/svg" width="96" height="96"><defs><linearGradient x1="0" y1="0" x2="1" y2="0" gradientUnits="userSpaceOnUse" gradientTransform="scale(711.83) rotate(-90 .767 .242)" spreadMethod="pad" id="b"><stop offset="0" stop-color="#f14624"/><stop offset="1" stop-color="#ea038c"/></linearGradient><clipPath clipPathUnits="userSpaceOnUse" id="a"><path d="M733.434 369.551c0-198.821-161.176-360-360-360-198.825.004-360 161.179-360 360.004 0 198.82 161.175 359.996 360 359.996 198.824 0 360-161.176 360-360z"/></clipPath></defs><g clip-path="url(#a)" transform="matrix(.13333 0 0 -.13333 -1.791 97.273)"><path d="M733.434 369.551c0-198.821-161.176-360-360-360-198.825.004-360 161.179-360 360.004 0 198.82 161.175 359.996 360 359.996 198.824 0 360-161.176 360-360" fill="url(#b)"/></g><path d="M35.66 23.057v49.885L78.862 48zm4.135 7.162L70.59 48 39.795 65.78V30.22" fill="#fff"/><path d="M25.729 28.503v38.993L59.496 48zm4.135 7.162L51.226 48 29.864 60.334V35.665" fill="#fff"/></svg>