<svg xmlns="http://www.w3.org/2000/svg" fill="#c81e6d" viewBox="0 0 219.35 221.03"><path d="M95.712 1.9c-8.2 2.8-12.9 5.6-18.2 10.8-10.5 10.3-13.9 19.6-14.1 38.6 0 7-.2 13-.4 13.1-.2.2-5.7.5-12.2.6-18.2.2-27.6 3.7-37.6 13.8-23.7 23.9-14.2 63.7 18 75.4 4.2 1.5 8.6 2.1 18.5 2.3l13 .3.6 13.8c.7 16.1 2.2 21.5 8.2 30.5 15.7 23.5 49.4 26.8 69.6 6.8 10.4-10.3 14.1-20.9 14-39.4-.1-5.9.1-10.9.3-11.1.3-.3 5.5-.6 11.7-.6 13.4-.2 18.6-1.2 26.6-4.9 20.2-9.6 30.5-34 23.4-55.3-3.9-11.7-11-20.2-21.9-26.1-7.7-4.2-13.4-5.4-27.1-5.5-6.8-.1-12.5-.4-12.7-.5-.1-.2-.3-5.6-.4-12.1s-.5-13.9-1.1-16.4c-3.4-16.7-18.3-31.7-34.9-35.1-7.5-1.5-17.1-1.1-23.3 1zm20.9 18.4c6.6 2 13.6 8 16.6 14.3 2 4.2 2.3 6.5 2.5 19.3.2 16.5 1.2 20.6 6 24.8 4.9 4.4 9 5.3 24.2 5.6 15.8.3 20.4 1.7 26.5 8 5.8 5.9 7.7 10.9 7.4 19.1-.4 11-5.5 18.9-15.6 23.6-3.8 1.8-6.6 2.2-19 2.4-14.9.2-18.8 1.1-23.6 5.2-4.7 3.9-5.7 7.9-5.9 22.8-.2 15.2-1.2 20-5.3 25.5-3.5 4.7-4.8 5.7-11.1 8.7-12.4 5.9-28.6-.5-34.4-13.7-1.6-3.7-2-7-2.2-19-.3-19-1.6-22.5-10.4-27.1-3.6-1.8-6.1-2.2-18.5-2.4-15.9-.4-20.3-1.7-26.5-7.7-5.6-5.5-7.6-10.3-7.6-18.8 0-6.4.4-8.2 2.9-12.8 5.9-10.5 12.2-13.3 30.9-13.8 14.5-.4 19-1.5 23.5-5.7 4.8-4.4 5.4-7.1 5.7-23.6.3-17.9 1.5-21.9 8.2-28.4 7-6.7 16.4-9 25.7-6.3z"/></svg>