<svg xmlns="http://www.w3.org/2000/svg" viewBox="0 0 90 21"><path fill="#C7CDD5" d="M49.58 2.43h-2.79V0h-4.31v2.43h-2.8v3.98h2.8v2.44h4.31V6.41h2.79z"/><path fill="#233A73" d="M0 17.21V7.2h10.39c.19-.02.38-.02.57 0l.57.11.54.24c.17.1.33.21.48.34l.3.38c.09.14.16.3.23.45a3.84 3.84 0 01.2 1.2v3.4a3.52 3.52 0 01-.2 1.13c-.05.16-.12.3-.22.43a2.05 2.05 0 01-.67.66 2.67 2.67 0 01-1.05.4c-.2.02-.42.03-.63.03H4.9V21H0v-3.79zm4.88-7.74v4.3H7.8c.08 0 .16-.03.23-.08a.86.86 0 00.19-.2.91.91 0 00.1-.24.98.98 0 000-.25v-2.85c.01-.1 0-.2-.04-.28a.6.6 0 00-.13-.2.48.48 0 00-.18-.15.53.53 0 00-.17-.05H4.9zm21.09 1.32v7.66c0 .07.02.13.05.2.04.06.08.13.14.18.06.05.13.1.2.13s.14.05.21.05h2.14c.07 0 .14-.02.21-.04a.42.42 0 00.18-.12c.06-.05.1-.1.14-.16a.3.3 0 00.06-.18v-7.66h4.77V21H24.04a2.98 2.98 0 01-1.18-.25 3.46 3.46 0 01-.86-.71 3.9 3.9 0 01-.57-1c-.05-.18-.1-.37-.13-.56a2.94 2.94 0 01-.04-.54v-7.15h4.7zm20.82.07v1.86h-6.32a.6.6 0 00-.15 0l-.16.07a.5.5 0 00-.13.1.21.21 0 00-.06.13v.56c0 .05.03.1.07.13l.13.09.17.05h4.82c.15-.02.3-.02.44 0s.29.06.43.1a1.94 1.94 0 01.98.76 2.36 2.36 0 01.35 1.37v2.38a2.51 2.51 0 01-.42 1.4l-.27.33a2.63 2.63 0 01-1.88.71h-9.1v-1.73h6.73c.05 0 .1-.02.16-.04l.15-.1c.05-.02.09-.06.12-.11a.33.33 0 000-.16v-.56a.3.3 0 000-.14.35.35 0 00-.12-.1.47.47 0 00-.16-.09.34.34 0 00-.15 0h-4.64c-.19 0-.37-.02-.56-.04a2.63 2.63 0 01-.9-.36 1.84 1.84 0 01-.63-.91 1.94 1.94 0 01-.07-.7v-2.73a2.18 2.18 0 01.22-.93c.07-.12.16-.24.25-.36a2.63 2.63 0 011.11-.77c.2-.06.38-.12.58-.16.18-.03.38-.05.57-.05h8.44zm14.3-2.52v2.08h-7.47l-.13 2.5h5.27c.31-.01.63.04.92.14a2.18 2.18 0 011.39 1.31 2.52 2.52 0 01.18.98v3.32a2.02 2.02 0 01-.18.95c-.05.17-.14.33-.25.47-.1.13-.22.25-.34.37l-.38.23c-.13.06-.27.11-.42.15-.14.05-.29.09-.44.1-.15.02-.3.02-.46 0H49.4v-2h6.92c.08 0 .15-.03.2-.08.05-.06.1-.13.13-.2.03-.09.06-.18.07-.26v-2.74a.84.84 0 000-.27.54.54 0 00-.12-.2.39.39 0 00-.16-.13.59.59 0 00-.18-.01h-7.1l.1-6.7 11.82-.01zm4.5-.02h7.33a4.01 4.01 0 011.1.21 2.25 2.25 0 01.87.67c.15.17.26.36.35.56.18.39.3.8.35 1.23.02.2.02.41 0 .62v6.1a3.22 3.22 0 01-.13 1.23 3.09 3.09 0 01-.57 1.17 2.4 2.4 0 01-.84.66c-.17.08-.34.14-.52.18-.17.03-.35.05-.52.05h-7.45c-.2 0-.4-.02-.6-.06a2.23 2.23 0 01-1.09-.55c-.16-.14-.31-.3-.43-.49a3.18 3.18 0 01-.47-1.12c0-.18-.06-.37-.08-.56a4.76 4.76 0 010-.63v-5.81a4.56 4.56 0 010-.68 4.74 4.74 0 01.34-1.32A2.72 2.72 0 0164 8.8a2 2 0 01.54-.29c.34-.12.7-.19 1.06-.2zm4.83 2.12h-2.4a.5.5 0 00-.25.07.58.58 0 00-.23.18.73.73 0 00-.17.23.54.54 0 00-.06.26v7c0 .1.03.19.08.27.05.08.11.16.19.22.07.07.16.13.25.18a.7.7 0 00.29.07h2.3c.08 0 .15-.02.22-.05a.92.92 0 00.23-.15c.06-.05.11-.1.15-.18a.39.39 0 00.06-.2v-7.32a.41.41 0 00-.1-.23.74.74 0 00-.15-.18c-.07-.05-.14-.1-.22-.13a.57.57 0 00-.2-.04zm9.57-2.12h7.32a4.01 4.01 0 011.12.21c.17.08.33.18.48.3.14.1.27.23.38.37.14.17.26.35.35.56.18.39.3.8.35 1.23v7.37c-.02.2-.07.4-.13.59-.06.22-.14.44-.24.64a2.63 2.63 0 01-.73.9c-.14.12-.29.2-.45.28-.16.08-.33.14-.51.18-.17.03-.33.05-.5.05h-7.45c-.2 0-.4-.02-.6-.06a2.23 2.23 0 01-1.08-.55 2.42 2.42 0 01-.7-1c-.09-.2-.16-.4-.2-.61 0-.18-.07-.37-.1-.56a4.76 4.76 0 010-.63v-5.81a6.11 6.11 0 01.2-1.36c.03-.22.1-.44.2-.64A2.43 2.43 0 0179 8.51c.33-.12.7-.19 1.05-.2H80zm4.84 2.12h-2.4a.5.5 0 00-.27.07.58.58 0 00-.22.18.73.73 0 00-.17.23.54.54 0 00-.06.26v7c0 .1.02.19.07.27.05.08.12.16.2.22.07.07.15.13.25.18a.7.7 0 00.28.07h2.32c.08 0 .16-.02.23-.05.08-.04.15-.1.22-.15.06-.05.11-.1.15-.18a.39.39 0 00.07-.2v-7.32a.41.41 0 00-.07-.21.74.74 0 00-.15-.18l-.22-.13a.57.57 0 00-.23-.06zm-65.17 10.5h-2.53c-.2-.05-.39-.13-.55-.25a3.27 3.27 0 01-.86-.94 4.23 4.23 0 01-.57-1.3 5.3 5.3 0 01-.18-1.45V7.54h4.71l-.02 13.38z"/></svg>