<svg xmlns="http://www.w3.org/2000/svg" viewBox="0 0 60.9 76.4"><path fill="#d1ae52" d="M39.2 52c2 2.7 4.4 5.6 1.9 8.7l-.6.6-.6.6-.6.5-.7.5c-1.8 1.2-3 2-2.4 6.1l-2.1.2c-.8-5.2 1.3-6.7 3.3-8 .7-.6 1.5-1 2-1.9 1.4-1.6.6-2.8-2-5.9l-.3-.4-.4-.5-.3-.5-.4-.5-.5-.8-.4-.9-.1-.9v-1l.4-.9.5-.8.5-.8.7-.6q-1-.6-1.6-1.4-.7-.7-1.3-1.6l-.8-2-.4-2h2.2q0 1 .4 1.7.2 1 .7 1.6.5.7 1.2 1.3.7.6 1.5 1l.2.1c1.3.6 2.9 1 5 1 8.9-.2 9-6.4 9-6.7h2.3s0 .6-.3 1.4h1l.9-.2.9-.2.9-.3a74 74 0 0 0-5.3-10l.7-1.6h.2c-.4-1.8-1.2-5-1.4-7.3-8.3-1.3-14.2-.4-17.7 2.7q-.7.7-1.3 1.6-.6.8-1 1.7l-.6 2-.2 2-1.2.1-1 .1v-.4l-.2-.4-.2-.3-.4-.2c-.4-.3-1-.2-1.4.2-1 .6-1.2 1.4-1 2.4a8.2 8.2 0 0 0 3.5 4.6l.5-.3.2.7v.1l.3.2.5 1-.3.2-.3.1-.3.2-.2.2-.2.1c-.7.6-1.5 1.5-1.7 2.3-.2.7 0 1.3.5 2l1.5 1.7c2 2.7 4.4 5.5 1.9 8.7-.8 1-1.7 1.6-2.5 2.2-1.8 1.2-3 2-2.4 6l-2.1.3c-.8-5.3 1.3-6.7 3.2-8l.6-.4.6-.5.5-.5.4-.5c1.4-1.6.6-2.9-2-5.9l-1.4-1.9-.5-.8-.4-.9-.1-.9v-1c.4-1.2 1-2.2 1.9-3l-1.3-1-1.1-1.5q-.5-.7-.8-1.5-.4-.7-.6-1.6l-.1-1.3.3-1.3.7-1 .9-1c1.2-.8 2.4-1 3.6-.4l.4.1.5-1.6.7-1.5 1-1.4 1.2-1.3c3.9-3.6 10.5-4.8 19.2-3.4 2-2.6 2.9-6.3-.5-9.5a9.2 9.2 0 0 0-12.4-.2l-1.7-.4c-.7-3-4.2-4.6-7.2-5-4.6-.6-10.7 1-13.1 5.7-3.1 6.3.9 9.5 1 9.6l-.7 2c-4.6-.2-7.6.5-9.1 2.2-2 2.3-1.2 6.2-.6 9.4.6 2.6 1 4.6 0 5.8l-.8.8-1 .6-1 .4-1.2.1H3.7l-.5-.3-.6-.2c-1.8-1-3-2.7-2.5-4.5l2 .5c-.1.7.5 1.5 1.4 2l.9.3h1l1-.4.7-.7c.4-.4 0-2.6-.3-4-.8-3.7-1.7-8.2 1-11.2 1.7-2 4.4-3 8.5-3-1.2-2-2.4-5.5 0-10.4 2.9-5.7 10-7.6 15.4-6.9 4 .6 7 2.4 8.4 5a11 11 0 0 1 14 1.2C55 7 55.7 8 56 9c.6 1.1.9 2.2 1 3.3a9 9 0 0 1-.4 3.3 9 9 0 0 1-1.7 3c.4 2.7 1.8 8.7 1.8 8.7l-.8 1.3c5.6 9.4 5 10.4 4.8 11-.5 1-2.4 1.5-4.1 1.7q.9.6 1.7 1.4.7.8 1.2 1.7l.8 2q.2 1.1 0 2.2c0 2.7-2 5-4.1 7.2-2.7 3-4.3 4.8-2.8 7L51.7 64c-2.4-3.8.5-6.9 3-9.8 1.8-1.9 3.7-3.8 3.7-5.8.2-3.9-3.2-5.6-4.5-6-1.4 2-4 4.1-9.3 4.3h-1.9l-1.2-.3-1.2-.2-1.1-.3c-.8.5-1.8 1.4-2 2.5-.2.6 0 1.2.5 1.8l.3.5.4.4.4.5zM23.7 14l1.6 1.4-.4.6-.1.7v.7l.4.7c.5.7 1.4 1.1 2.2.8 1.4-.6 1.6-.9 2.7-2.6l.7-1 .6-1 .7-1 .7-.9c1.5-1.9 3-2.9 4.8-2.9 2.9 0 5 2.1 5 2.2L41 13.2s-1.4-1.6-3.2-1.6c-1.1 0-2.2.8-3.2 2l-.7 1-.7 1-.7 1-.6 1c-1.2 1.7-1.7 2.4-3.7 3.2l-.3.1-.4.1-.3.1h-1.4l-1-.5-.6-.5-.7-.7-.7-1.3q-.2-.7-.2-1.5l.4-1.4q.2-.7.7-1.2ZM47 59.2c2.2 2.7 4.5 5.5 2 8.6l-.5.7-.6.5-.7.6-.7.4c-1.7 1.3-3 2.1-2.4 6.1l-2.1.3c-.7-5.3 1.4-6.7 3.3-8l.5-.5.6-.5.5-.4.5-.6c1.3-1.6.5-2.8-2-5.8l-.4-.5-.3-.4-.4-.5-.3-.5q-.4-.3-.6-.8L43 57q-.2-.4-.2-.9v-1c.7-2.8 3.7-4.4 4.2-4.7l1 2c-.7.4-2.7 1.7-3 3.1-.1.7 0 1.3.5 2l1.5 1.7zM25 24.8c-6.3-.2-9.6 1.2-9.8 4.1v4c.3 3.6.6 7.6-1.8 10.1-1.3 1.3-3.2 2-5.8 2H6.2l.2-2.2c2.6.1 4.3-.3 5.4-1.3 1.8-1.8 1.5-5 1.3-8.4-.1-1.5-.2-3-.1-4.3 0-3 2.4-6.5 12-6zm26 3.6s-.7-1-3-1c-2 0-4.7 1.8-5.7 2.6L41 28.4s3.9-3.2 7-3.2c3.4 0 4.6 2.2 4.7 2.2zm-2 3.4c-.8 0-1.4-.6-1.4-1.3 0-.7.6-1.3 1.4-1.3.8 0 1.5.6 1.5 1.3 0 .7-.7 1.3-1.5 1.3z"/></svg>
