<svg xmlns="http://www.w3.org/2000/svg" version="1.1" id="svg11857" width="297.559" height="297.559"><defs id="defs11847"><style id="style11845"></style></defs><path fill="#6b2c81" fill-rule="evenodd" d="M207.647 211.45l14.958-10.483c16.925-11.861 18.013-22.203 18.754-38.32.962-23.4 1.571-41.586 2.44-63.546l53.76-37.752h-45.815l-103.8 72.786-.535.376-.536-.376-26.46-18.555-2.188-1.542-2.68-1.888-2.679 1.888-2.185 1.542-.003.004-32.3 22.428c-.447-11.862-.841-22.91-1.393-36.292-.72-17.4 5.833-20.736 15.692-22.805a397.804 397.804 0 0154.953-7.485 397.813 397.813 0 0154.953 7.485 40.098 40.098 0 015.293 1.427l27.073-18.993c-3.361-2.13-7.494-3.32-12.172-4.301A543.977 543.977 0 00147.63 46.81a543.988 543.988 0 00-75.147 10.236C59 59.877 50.04 64.438 51.023 88.233c1.018 24.608 1.64 43.45 2.578 66.983L4.49 189.315l-.002-.001L0 192.48h45.91l69.11-47.7.534-.369.53.373 26.502 18.556 2.19 1.54 2.684 1.885 2.673-1.885 2.182-1.54 65.337-45.88c-.487 12.782-.894 24.403-1.48 38.676-.543 11.787-1.337 19.35-13.714 28.024l-10.939 7.665h-.006l-35.663 25.001c-7.086 4.968-9.325 4.99-16.412.019L99.299 188.71h.013l-6.51-4.55a37.79 37.79 0 01-7.782-6.959l-22.138 15.28a53.908 53.908 0 009.774 8.486l8.9 6.221h-.017l54.889 38.477c9.691 6.797 12.753 6.767 22.442-.025l48.77-34.19z" id="path11855"/></svg>