<svg width="452" height="347" xmlns="http://www.w3.org/2000/svg"><g fill="none" fill-rule="evenodd"><path d="M167.25 347H276.5c14.636 0 26.5-11.864 26.5-26.5 0-.503-.014-1.004-.042-1.5H303v-5h-65.743a129.944 129.944 0 0 0 14.692-14H238v-7.06c-70.585-2.626-127-60.59-127-131.71 0-19.32 4.163-37.67 11.643-54.203-52.706 5.94-96.19 37.116-113.54 78.973H1v41c.314 66.32 62.874 120 140 120 .334 0 .667 0 1-.003V347h25.25z" fill="#25C1CE"/><path d="M275 314H158c-25.405 0-46-20.595-46-46v-84.734c0-1.43.065-2.844.193-4.24C120.893 243.4 176.143 293.03 243 293.03h27v-.007h49V314h-44z" fill="#3A4287"/><path d="m245.998 29.033.02-.023h57.284C297.146 1.115 270.218.933 270.218.933H140.825C35.192 3.453-1.748 95.253 1.06 135.606v50.885h110.986v-8.796A133.29 133.29 0 0 1 111 161.001c0-72.902 59.098-132 132-132 1.002 0 2 .01 2.998.033z" fill="#3DD0AD"/><g transform="translate(21 29)"><circle fill="#FFDA00" cx="33.5" cy="162.5" r="33.5"/><path fill="#221E1F" d="M165 134h85v29h-85z"/><circle fill="#404953" cx="200.5" cy="74.5" r="25.5"/><circle fill="#FFF" cx="195.5" cy="66.5" r="10.5"/><path d="M383.842 261.042C412.31 233.418 430 194.75 430 151.948 430 69.338 364.098 2.12 282 0v159.2l101.842 101.842zM282 292.98c21.31-.418 40.986-7.502 57.03-19.252L282 216.698v76.282z" fill="#404953"/></g></g></svg>