<svg xmlns="http://www.w3.org/2000/svg" viewBox="0 0 188 152"><path fill="#fff" d="M44 120h82.7V14.7H44z"/><path fill="#24c1ce" d="M45 76H0v19.2A57 57 0 0 0 58.3 152H112c8.1 0 14.7-6.6 14.7-14.7V119h-25c-25.9 0-51.5-18.3-56.7-42.9"/><path fill="#3dd0ad" d="M44 66.8c0-29.1 28.6-52.1 57.7-52.1h25C126.7 6.6 120 0 112 0H58.3A57 57 0 0 0 0 56.8V76h45c-.6-3-1-6-1-9.2"/><path fill="#404953" d="M90.7 28a13.3 13.3 0 1 0 0 26.7 13.3 13.3 0 0 0 0-26.7"/><path fill="#fff" d="M85.3 32a4 4 0 1 0 0 8 4 4 0 0 0 0-8"/><path fill="#404953" d="M74.7 74.7h36V64h-36Z"/><path fill="#ffda00" d="M24 62.7a13.3 13.3 0 1 0 0 26.6 13.3 13.3 0 0 0 0-26.6"/><path fill="#404953" d="M169.3 33.3a63.6 63.6 0 0 0-42.6-18.6v66.2l42.6 42.7c25-25 25-65.4 0-90.3m-42.6 68V133c8.3-.4 16.5-3.1 23.6-8z"/><path fill="#3a4287" d="M45 76h-1v43.4c0 10 8 18 18 18l64.7-.3v-18.2h-25c-25.9 0-51.5-18.3-56.7-42.9"/></svg>