<svg id="Calque_1" data-name="Calque 1" xmlns="http://www.w3.org/2000/svg" xmlns:xlink="http://www.w3.org/1999/xlink" viewBox="0 0 559.54 559.5"><defs><style>.cls-1,.cls-5{fill:none;}.cls-2{clip-path:url(#clip-path);}.cls-3{clip-path:url(#clip-path-2);}.cls-4{fill:url(#Dégradé_sans_nom);}.cls-5{stroke:#000678;stroke-linecap:round;stroke-linejoin:round;stroke-width:29.67px;}.cls-6{clip-path:url(#clip-path-4);}.cls-7{fill:url(#Dégradé_sans_nom_2);}.cls-8{opacity:0.99;}.cls-9{clip-path:url(#clip-path-6);}.cls-10{fill:#00f2ff;}.cls-11{opacity:0.16;}.cls-12{clip-path:url(#clip-path-8);}.cls-13{fill:#000678;}.cls-14{clip-path:url(#clip-path-9);}.cls-15{fill:url(#Dégradé_sans_nom_3);}.cls-16{clip-path:url(#clip-path-11);}</style><clipPath id="clip-path" transform="translate(0 0)"><rect class="cls-1" width="559.54" height="559.5"/></clipPath><clipPath id="clip-path-2" transform="translate(0 0)"><path class="cls-1" d="M34.78,14.84A19.93,19.93,0,0,0,14.84,34.78V171.49a19.94,19.94,0,0,0,19.94,19.94H459.67a85,85,0,0,0,85-85V99.91a85.08,85.08,0,0,0-85.08-85.07Z"/></clipPath><linearGradient id="Dégradé_sans_nom" y1="559.5" x2="1" y2="559.5" gradientTransform="matrix(529.87, 0, 0, -529.87, 14.84, 296566.36)" gradientUnits="userSpaceOnUse"><stop offset="0" stop-color="#00f2ff"/><stop offset="1" stop-color="#ff6b89"/></linearGradient><clipPath id="clip-path-4" transform="translate(0 0)"><path class="cls-1" d="M459.63,191.43H99.91a85.07,85.07,0,0,0-85.07,85.08V283a85,85,0,0,0,83.63,85H459.63a85,85,0,0,0,85.08-85V106.4a85,85,0,0,1-85.08,85"/></clipPath><linearGradient id="Dégradé_sans_nom_2" y1="559.5" x2="1" y2="559.5" gradientTransform="matrix(529.87, 0, 0, -529.87, 14.84, 296700.44)" gradientUnits="userSpaceOnUse"><stop offset="0" stop-color="#ff6b89"/><stop offset="1" stop-color="#00f2ff"/></linearGradient><clipPath id="clip-path-6" transform="translate(0 0)"><rect class="cls-1" x="405.18" y="113.82" width="139.89" height="261.63"/></clipPath><clipPath id="clip-path-8" transform="translate(0 0)"><rect class="cls-1" x="405.54" y="11.57" width="139.16" height="176.6"/></clipPath><clipPath id="clip-path-9" transform="translate(0 0)"><path class="cls-1" d="M14.84,459.59a85.07,85.07,0,0,0,85.07,85.07h420.8a24.82,24.82,0,0,0,24-24.84V390a21.93,21.93,0,0,0-21.93-21.93H99.91A85.07,85.07,0,0,1,14.84,283Z"/></clipPath><linearGradient id="Dégradé_sans_nom_3" x1="0" y1="559.5" x2="1" y2="559.5" gradientTransform="matrix(529.87, 0, 0, -529.87, 14.84, 296877.05)" xlink:href="#Dégradé_sans_nom"/><clipPath id="clip-path-11" transform="translate(0 0)"><rect class="cls-1" x="14.84" y="188.17" width="139.16" height="176.6"/></clipPath></defs><title>Source file (1)</title><g class="cls-2"><g class="cls-3"><rect class="cls-4" x="14.84" y="14.84" width="529.87" height="176.6"/></g><g class="cls-2"><path class="cls-5" d="M544.71,99.91v6.49a85,85,0,0,1-85,85H34.78a19.94,19.94,0,0,1-19.94-19.94V34.78A19.94,19.94,0,0,1,34.78,14.84H459.63A85.08,85.08,0,0,1,544.71,99.91Z" transform="translate(0 0)"/></g><g class="cls-6"><rect class="cls-7" x="14.84" y="106.4" width="529.87" height="261.63"/></g><g class="cls-6"><g class="cls-8"><g class="cls-9"><path class="cls-10" d="M545.07,113.82V290.41a85,85,0,0,1-85.08,85H405.18a85,85,0,0,0,85.08-85V193.3a85,85,0,0,0,54.81-79.48" transform="translate(0 0)"/></g></g></g><g class="cls-2"><path class="cls-5" d="M544.71,106.4V283a85,85,0,0,1-85.08,85H98.47a85,85,0,0,1-83.63-85v-6.48a85.07,85.07,0,0,1,85.07-85.08H459.63A85,85,0,0,0,544.71,106.4Z" transform="translate(0 0)"/><g class="cls-11"><g class="cls-12"><path class="cls-13" d="M407,188.17h54.09a85.05,85.05,0,0,0,83.64-85V96.65a85.08,85.08,0,0,0-85.08-85.08H405.54a85.08,85.08,0,0,1,85.08,85.08v6.48a85,85,0,0,1-83.64,85" transform="translate(0 0)"/></g></g></g><g class="cls-14"><rect class="cls-15" x="14.84" y="282.99" width="529.87" height="261.67"/></g><g class="cls-2"><path class="cls-5" d="M522.78,368.07A21.93,21.93,0,0,1,544.71,390V519.82a24.82,24.82,0,0,1-24,24.84H99.91a85.07,85.07,0,0,1-85.07-85.07V283a85.07,85.07,0,0,0,85.07,85.08Z" transform="translate(0 0)"/><g class="cls-11"><g class="cls-16"><path class="cls-13" d="M152.56,364.76H98.47a85,85,0,0,1-83.63-85v-6.49a85.07,85.07,0,0,1,85.07-85.07H154a85.07,85.07,0,0,0-85.07,85.07v6.49a85,85,0,0,0,83.63,85" transform="translate(0 0)"/></g></g></g></g></svg>