<svg xmlns="http://www.w3.org/2000/svg" width="50" height="50" viewBox="0 0 13.229 13.229"><path d="M.897 3.304.9 0l2.86 1.657 2.858 1.654-2.862 1.65L.894 6.608zm8.58 1.664L6.618 3.31l-.003 3.304-.004 3.303 2.859 1.658 2.859 1.653.003-3.304.007-3.304z" fill="#41d9bf"/><path d="M6.615 6.615 6.61 9.918 3.752 8.265.894 6.608 3.756 4.96l2.862-1.65z" fill="#144556"/><path d="M12.342 3.318 12.34 6.62 9.477 4.968 6.618 3.31l2.866-1.647 2.862-1.65zM.887 9.912l.007-3.304 2.858 1.657 2.86 1.653-2.863 1.65-2.866 1.647z" fill="#072b38"/></svg>