<svg width="256" height="257" viewBox="0 0 256 257" fill="none" xmlns="http://www.w3.org/2000/svg">
<rect x="87.3934" y="7.65574" width="80.7869" height="81.8361" fill="#6775F8" stroke="black" stroke-width="14.6885"/>
<rect x="87.3934" y="89.4918" width="80.7869" height="81.8361" fill="#BD83CF" stroke="black" stroke-width="14.6885"/>
<rect x="7.65574" y="89.4918" width="80.7869" height="81.8361" fill="#F39A4A" stroke="black" stroke-width="14.6885"/>
<path d="M88.4426 15V7.65574H81.0984H52.7705C27.8543 7.65574 7.65574 27.8543 7.65574 52.7705V82.1475V89.4918H15H81.0984H88.4426V82.1475V15Z" fill="#3FBE87" stroke="black" stroke-width="14.6885"/>
<path d="M174.475 7.65574H167.131V15V82.1475V89.4918H174.475H240.574H247.918V82.1475V52.7705C247.918 27.8543 227.719 7.65574 202.803 7.65574H174.475Z" fill="#FF7575" stroke="black" stroke-width="14.6885"/>
<path d="M174.475 89.4918H167.131V96.8361V163.984V171.328H174.475H207C229.598 171.328 247.918 153.008 247.918 130.41V96.8361V89.4918H240.574H174.475Z" fill="#F2C94D" stroke="black" stroke-width="14.6885"/>
<path d="M15 171.328H7.65574V178.672V199.656C7.65574 226.89 29.7332 248.967 56.9672 248.967H81.0984H88.4426V241.623V178.672V171.328H81.0984H15Z" fill="#88CFAF" stroke="black" stroke-width="14.6885"/>
<path d="M94.7377 171.328H87.3934V178.672V241.623V248.967H94.7377H118.869C146.103 248.967 168.18 226.89 168.18 199.656V178.672V171.328H160.836H94.7377Z" fill="#37C2E1" stroke="black" stroke-width="14.6885"/>
</svg>
