<svg xmlns="http://www.w3.org/2000/svg" width="256" height="257" fill="none" stroke="#000" stroke-width="14.689" xmlns:v="https://vecta.io/nano"><path fill="#6775f8" d="M87.393 7.656h80.787v81.836H87.393z"/><path fill="#bd83cf" d="M87.393 89.492h80.787v81.836H87.393z"/><path fill="#f39a4a" d="M7.656 89.492h80.787v81.836H7.656z"/><path d="M88.443 15V7.656h-7.344-28.328c-24.916 0-45.115 20.199-45.115 45.115v29.377 7.344H15h66.098 7.344v-7.344V15z" fill="#3fbe87"/><path d="M174.475 7.656h-7.344V15v67.148 7.344h7.344 66.099 7.344v-7.344-29.377c0-24.916-20.199-45.115-45.115-45.115h-28.328z" fill="#ff7575"/><path d="M174.475 89.492h-7.344v7.344 67.148 7.344h7.344H207c22.598 0 40.918-18.32 40.918-40.918V96.836v-7.344h-7.344-66.099z" fill="#f2c94d"/><path d="M15 171.328H7.656v7.344 20.984c0 27.234 22.077 49.311 49.311 49.311h24.131 7.344v-7.344-62.951-7.344h-7.344H15z" fill="#88cfaf"/><path d="M94.738 171.328h-7.344v7.344 62.951 7.344h7.344 24.131c27.234 0 49.311-22.077 49.311-49.311v-20.984-7.344h-7.344-66.098z" fill="#37c2e1"/></svg>