<svg xmlns="http://www.w3.org/2000/svg" version="1.1" id="Layer_1" x="0" y="0" xml:space="preserve" width="112.6" height="112.6"><style type="text/css" id="style31653">.st0{fill:#f27777}.st1{fill:#fff}</style><g id="g31665" transform="translate(-15.7 -15.7)"><circle class="st0" cx="72" cy="72" r="56.3" id="circle31655"/><path class="st1" d="M43.1 43.2c5 1.1 9.8 2.9 14.1 5.3-5.1 2.6-9.4 6.5-12.5 11.3-2-2.7-3.1-6.1-3.1-9.7 0-2.5.5-4.8 1.5-6.9z" id="path31657"/><path class="st1" d="M102.4 95.2c0 3.1-2.5 5.6-5.6 5.6-3.1 0-5.6-2.5-5.6-5.6v-4.5H52.7v4.5c0 3.1-2.5 5.6-5.6 5.6-3.1 0-5.6-2.5-5.6-5.6V78.1c0-16.5 12.8-30.5 29.3-31.1 17.3-.6 31.5 13.2 31.5 30.4z" id="path31659"/><path class="st1" d="M99.3 59.8c-3.1-4.8-7.4-8.7-12.5-11.3 4.4-2.4 9.1-4.2 14.1-5.3 1 2.1 1.5 4.4 1.5 6.9 0 3.6-1.2 6.9-3.1 9.7z" id="path31661"/><path class="st0" d="M85.3 71.4c-.4-.2-.8-.1-1 .2-.4.6-.9 1-1.6 1.4v-.5c0-1.4-.5-2.7-1.3-3.7-.6-.9-1.6-1.4-2.8-1.4-1.9 0-3.5 1.6-3.5 3.5 0 .8.3 1.6.8 2.2.6.7 1.3 1.3 2.2 1.7-.6.3-1.2.5-1.9.5-.8 0-1.4.7-1.4 1.4 0 .8.6 1.4 1.4 1.4h.7c2.2 0 4.2-1.3 5.1-3.1 1.5-.4 2.7-1.4 3.5-2.7.3-.2.2-.7-.2-.9zm-5.7 1.9c-.9-.3-1.7-.8-2.2-1.6-.2-.2-.3-.5-.3-.8 0-.8.6-1.4 1.4-1.4.7 0 1.4.6 1.4 1.3 0 .2.1.4.1.7.1.6-.1 1.3-.4 1.8z" id="path31663"/></g></svg>