<?xml version="1.0" encoding="UTF-8"?>
<svg width="100%" height="100%" viewBox="0 0 60 59" version="1.1" xmlns="http://www.w3.org/2000/svg" xmlns:xlink="http://www.w3.org/1999/xlink">
    <title>Instant On</title>
    <defs>
        <path d="M30,16 C31.0603867,16 31.92,16.8596133 31.92,17.92 L31.92,23.91 C31.92,24.9703867 31.0603867,25.83 30,25.83 C28.9396133,25.83 28.08,24.9703867 28.08,23.91 L28.08,17.92 C28.08,16.8596133 28.9396133,16 30,16 Z M30,38 C29.67,38 29.34,38 29,38 L28.72,38 L28.6,38 L28,37.78 L27.57,37.69 L27,37.56 L26.52,37.42 L26.2,37.3 L26.14,37.3 C25.1384305,36.934999 24.1952361,36.4263478 23.34,35.79 C20.9067296,34.0220316 19.3437558,31.2995407 19.043907,28.3067815 C18.7440581,25.3140223 19.7358457,22.3355662 21.77,20.12 C22.6667556,19.1619537 24.1667175,19.1017767 25.1373393,19.9849058 C26.107961,20.8680348 26.1893262,22.3669967 25.32,23.35 C24.2036384,24.5617918 23.660747,26.1942603 23.8290474,27.8332775 C23.9973479,29.4722947 24.8606684,30.9603681 26.2,31.92 C26.6843474,32.2840418 27.2202301,32.5738903 27.79,32.78 L27.86,32.78 L28,32.83 L28.28,32.91 L28.57,32.99 L28.81,32.99 L29.19,33.04 L29.38,33.04 C29.7727618,33.0699876 30.1672382,33.0699876 30.56,33.04 L30.74,33.04 L31.12,32.99 L31.35,32.99 L31.66,32.91 L31.92,32.84 L32.07,32.78 L32.14,32.78 C32.7097699,32.5738903 33.2456526,32.2840418 33.73,31.92 C35.2332574,30.8343174 36.1255683,29.0943111 36.13,27.24 C36.1402107,27.0401303 36.1402107,26.8398697 36.13,26.64 C36.13,26.44 36.08,26.25 36.04,26.05 C35.8092555,25.0347879 35.3122109,24.0993775 34.6,23.34 C33.7398125,22.3583099 33.8218661,20.8691557 34.7847024,19.9879156 C35.7475388,19.1066756 37.2381205,19.1564688 38.14,20.1 C39.4270166,21.5078034 40.3143098,23.2340548 40.71,25.1 C40.7835945,25.4533415 40.8370142,25.8105861 40.87,26.17 C40.9101968,26.5352857 40.9302272,26.9025094 40.9300019,27.27 C40.9287961,30.6433183 39.3160531,33.8130645 36.59,35.8 C35.7347639,36.4363478 34.7915695,36.944999 33.79,37.31 L33.73,37.31 L33.41,37.42 L32.93,37.56 L32.4,37.69 L31.98,37.78 L31.33,37.88 L31.27,37.88 L30.99,37.88 C30.63,38 30.29,38 30,38 Z" id="path-1"/>
        <filter x="-141.3%" y="-131.8%" width="382.6%" height="381.8%" filterUnits="objectBoundingBox" id="filter-2">
            <feOffset dx="0" dy="2" in="SourceAlpha" result="shadowOffsetOuter1"/>
            <feGaussianBlur stdDeviation="5" in="shadowOffsetOuter1" result="shadowBlurOuter1"/>
            <feColorMatrix values="0 0 0 0 1   0 0 0 0 1   0 0 0 0 1  0 0 0 1 0" type="matrix" in="shadowBlurOuter1" result="shadowMatrixOuter1"/>
            <feOffset dx="0" dy="1" in="SourceAlpha" result="shadowOffsetOuter2"/>
            <feGaussianBlur stdDeviation="7" in="shadowOffsetOuter2" result="shadowBlurOuter2"/>
            <feColorMatrix values="0 0 0 0 1   0 0 0 0 1   0 0 0 0 1  0 0 0 0.9 0" type="matrix" in="shadowBlurOuter2" result="shadowMatrixOuter2"/>
            <feOffset dx="0" dy="2" in="SourceAlpha" result="shadowOffsetOuter3"/>
            <feGaussianBlur stdDeviation="10" in="shadowOffsetOuter3" result="shadowBlurOuter3"/>
            <feColorMatrix values="0 0 0 0 1   0 0 0 0 1   0 0 0 0 1  0 0 0 1 0" type="matrix" in="shadowBlurOuter3" result="shadowMatrixOuter3"/>
            <feOffset dx="0" dy="2" in="SourceAlpha" result="shadowOffsetOuter4"/>
            <feGaussianBlur stdDeviation="1" in="shadowOffsetOuter4" result="shadowBlurOuter4"/>
            <feColorMatrix values="0 0 0 0 0   0 0 0 0 0   0 0 0 0 0  0 0 0 0.7 0" type="matrix" in="shadowBlurOuter4" result="shadowMatrixOuter4"/>
            <feOffset dx="0" dy="2" in="SourceAlpha" result="shadowOffsetOuter5"/>
            <feGaussianBlur stdDeviation="8" in="shadowOffsetOuter5" result="shadowBlurOuter5"/>
            <feColorMatrix values="0 0 0 0 1   0 0 0 0 0.51372549   0 0 0 0 0  0 0 0 1 0" type="matrix" in="shadowBlurOuter5" result="shadowMatrixOuter5"/>
            <feMerge>
                <feMergeNode in="shadowMatrixOuter1"/>
                <!--<feMergeNode in="shadowMatrixOuter2"></feMergeNode>
                <feMergeNode in="shadowMatrixOuter3"></feMergeNode>-->
                <feMergeNode in="shadowMatrixOuter4"/>
                <feMergeNode in="shadowMatrixOuter5"/>
            </feMerge>
        </filter>
    </defs>
    <g id="instant-on-glow" stroke="none" stroke-width="1" fill="none" fill-rule="evenodd">
        <g fill-rule="nonzero">
            <use fill="black" fill-opacity=".4" filter="url(#filter-2)" xlink:href="#path-1"/>
            <use fill="#FF8300" xlink:href="#path-1"/>
        </g>
    </g>
</svg>