<svg xmlns="http://www.w3.org/2000/svg" width="164.4" height="164.4"><g opacity=".2" fill="#22252b" fill-rule="evenodd"><path d="M164.4 55.8c-8.8 8.4-25.7 14.1-45.2 14.1-14.5 0-27.6-3.2-37-8.3C71.4 55.7 56.5 47.5 37 47.5c-14.5 0-27.6 3.2-37 8.3v-4c9.4-5.1 22.5-8.3 37-8.3 19.5 0 34.4 8.2 45.2 14.1 9.4 5.1 22.5 8.3 37 8.3 19.5 0 36.4-5.7 45.2-14.1z"/><path d="M164.4 72.8c-8.8 8.4-25.7 14.1-45.2 14.1-14.5 0-27.6-3.2-37-8.3C71.4 72.7 56.5 64.5 37 64.5c-14.5 0-27.6 3.2-37 8.3v-4c9.4-5.1 22.5-8.3 37-8.3 19.5 0 34.4 8.2 45.2 14.1 9.4 5.1 22.5 8.3 37 8.3 19.5 0 36.4-5.7 45.2-14.1z"/><path d="M164.4 89.8c-8.8 8.4-25.7 14.1-45.2 14.1-14.5 0-27.6-3.2-37-8.3C71.4 89.7 56.5 81.5 37 81.5c-14.5 0-27.6 3.2-37 8.3v-4c9.4-5.1 22.5-8.3 37-8.3 19.5 0 34.4 8.2 45.2 14.1 9.4 5.1 22.5 8.3 37 8.3 19.5 0 36.4-5.7 45.2-14.1z"/><path d="M164.4 106.8c-8.8 8.4-25.7 14.1-45.2 14.1-14.5 0-27.6-3.2-37-8.3-10.8-5.9-25.7-14.1-45.2-14.1-14.5 0-27.6 3.2-37 8.3v-4c9.4-5.1 22.5-8.3 37-8.3 19.5 0 34.4 8.2 45.2 14.1 9.4 5.1 22.5 8.3 37 8.3 19.5 0 36.4-5.7 45.2-14.1z"/></g><path d="M64.3 56.75h-8.5v-8.5h30.1c18.8 0 22.7 12.4 22.7 21 0 6.9-2.8 12.2-5.7 15.1-4.7 4.7-11.1 5.8-20.8 5.8h-7.6v17.5h8.9v8.5H55.8v-8.5h8.5zM83 81.95c12.5 0 15.2-5.8 15.2-12.8 0-8-4.5-12.4-12-12.4H74.5v25.2z" fill="#22252b" fill-rule="evenodd"/></svg>