<svg xmlns="http://www.w3.org/2000/svg" viewBox="0 0 236 233.4"><path fill="#ed7000" d="M80 103.9c-9.3 0-16.8 5.2-16.8 16.8 0 11.4 7.5 16.8 16.8 16.8 9.2 0 16.7-5.4 16.7-16.8 0-11.6-7.5-16.8-16.8-16.8zm0 25.6c-4.2 0-7.3-3.2-7.3-8.8 0-6.1 3.1-8.8 7.2-8.8 4.2 0 7.3 2.7 7.3 8.8 0 5.7-3 8.8-7.3 8.8zm60.3-25.3a.3.3 0 0 0 .3.3h7.1c.6 0 1 .5 1 1v6.2s0 .3-.3.3h-7.8a.3.3 0 0 0-.3.3V124c0 4.6 1.7 6 4.6 6 1.4 0 3.5-1 3.8-1 .2 0 .3.2.3.4v5.9a1 1 0 0 1-.5.8c-1.3.7-3.4 1.2-6.6 1.2-5.6 0-10.8-2.8-10.8-11.7V105a7.2 7.2 0 0 1 2-4.8c1.4-1.6 6.2-4.8 7-4.8.1 0 .2 0 .2.4zm-112 1.4c0-.6.4-1 1-1h12.2c12 0 18.2 7.2 18.2 16.5s-7 15.8-18.4 15.8h-3.6a.3.3 0 0 0-.3.3v15c0 .4 0 .5-.4.5-.6 0-5.4-3.1-7-4.8a7.2 7.2 0 0 1-1.8-4.8v-37.5zm22.3 15c0-4-2.5-7.6-9.3-7.6h-3.6a.3.3 0 0 0-.3.3V128c0 .2.1.3.3.3h3.8c8 0 9.1-5.6 9.1-8zm75.8 6.3c0 6.8-4.8 10.6-14.4 10.6a41.3 41.3 0 0 1-11.3-2 1 1 0 0 1-.7-1v-6.3a.4.4 0 0 1 .4-.3h.1a59 59 0 0 0 12.2 2.3c2 0 3.2-.4 4-1a2.2 2.2 0 0 0 .6-1.7c0-2-2.6-2.6-5.2-3.2l-1-.2c-5.5-1.4-11.4-2.7-11.4-9.8a9 9 0 0 1 3.8-7.6c2.5-1.8 6-2.7 10.3-2.7a37.5 37.5 0 0 1 10 1.7c.4 0 .7.5.7 1v6.3a.4.4 0 0 1-.5.4 33 33 0 0 0-11.3-2.2c-2.3 0-3.8 1-3.8 2.5 0 1.8 2.2 2.3 5 2.9l2.1.5c2.3.5 4.6 1 6.5 2.2 2.6 1.7 4 4.2 4 7.6zm49.5 9.9a.2.2 0 0 1-.2-.2v-19.3c0-4.3-1.4-6-4.8-6a9 9 0 0 0-4.2 1.2l-3 1.8a.6.6 0 0 0-.2.4v22a.2.2 0 0 1-.2 0h-8.6a.2.2 0 0 1-.2-.1v-31a1 1 0 0 1 1-1h7.8l.2.3v2.4c0 .2.1.3.2.3a.3.3 0 0 0 .2 0l.3-.3a15.8 15.8 0 0 1 3.4-2 18.8 18.8 0 0 1 6.3-1.2c7 0 10.8 4 10.8 11.6v20.9l-.2.2zm16 0a.2.2 0 0 1-.3-.2V89c0-.1 0-.2.3-.2.5 0 5.3 3 6.8 4.7a7 7 0 0 1 1.8 4.8v38.2a.2.2 0 0 1-.2.2zm-112-82.5a1 1 0 0 0-.5.2 20.5 20.5 0 0 0-3.8 3.7.9.9 0 0 0 0 1.3 21.1 21.1 0 0 0 3.6 3.5c.2.2.4.3.7.3.3 0 .6 0 .8-.3a20.5 20.5 0 0 0 3.5-3.5.9.9 0 0 0 0-1.3 20.2 20.2 0 0 0-3.7-3.7 1 1 0 0 0-.6-.2zm0 11.6h-2a1 1 0 0 0-.8.4c-.3.3-.4.6-.4 1l.2 14.3v4.2a1 1 0 0 0 1.1 1h4a1 1 0 0 0 1-1l.1-18.3v-.2a1.4 1.4 0 0 0-.3-1 1 1 0 0 0-.7-.3H80zm10 1a2.1 2.1 0 0 0-2 1.4 50.8 50.8 0 0 0-2.8 7.6v.9a.9.9 0 0 0 .8.3h3a1 1 0 0 0 1-.7 27.5 27.5 0 0 1 1.6-4s0-.2.2-.2a.7.7 0 0 1 .2 0l1.6.5a.6.6 0 0 1 .3.4c.1.2.1.5 0 .8l-4 11.6c-.2.3 0 .7 0 1 .3.3.6.4 1 .4h3.7a1.1 1.1 0 0 0 1.2-.7l.6-1.6v-.3c1.2-3.1 3-8 3.3-9.2.6-2.3.8-4.8-2.6-6a55.8 55.8 0 0 0-3-1.1l-3.3-1a2.7 2.7 0 0 0-.8 0zM70 67a2.7 2.7 0 0 0-.7 0h-.2a58 58 0 0 0-6.3 2c-3.4 1.3-3.2 3.8-2.6 6l3.3 9.7.6 1.5c.2.5.7.8 1.2.8H69c.4 0 .7-.1 1-.4a1 1 0 0 0 0-1L66 74a1.1 1.1 0 0 1 0-1 .6.6 0 0 1 .3-.2l1.6-.5a.8.8 0 0 1 .2 0h.2l1.5 4a1 1 0 0 0 1 .8h3a.9.9 0 0 0 .8-.3.9.9 0 0 0 .1-.8 52 52 0 0 0-2.7-7.6 2.2 2.2 0 0 0-2-1.3zm23.7 22.9H66.2a1.8 1.8 0 0 0-1.8 1.7V95c0 1 .4 1.6 1.4 1.6h28.3c1 0 1.5-.5 1.5-1.6v-3.5a1.8 1.8 0 0 0-1.8-1.7zm133 26.8c0-19.4-36.6-53-75.4-74.3C106.7 17.6 55.8 3 39 12.3 20 22.9 9.4 75.5 9.4 116.6c0 41.4 10 93.4 29.6 104.3 17.8 9.9 66.5-4.7 112.4-30 39.4-21.7 75.2-54 75.3-74.3zM52.3 0C80.7 0 126 18 156 34.5A275.6 275.6 0 0 1 207.8 72c14.5 13.5 28.2 30.3 28.2 44.6 0 13.5-11 29.4-28.6 45.5a283 283 0 0 1-51.4 36.6c-29 16-73.3 34.7-102.5 34.7-8 0-14.5-1.3-19.4-4C21.1 222 13 203 8.1 184A284.1 284.1 0 0 1 8 49.8c6.1-24.1 15.1-40 26-46A38.2 38.2 0 0 1 52.4 0z"/></svg>