<svg xmlns="http://www.w3.org/2000/svg" width="106" height="106"><path d="M4.67 103.205c-1.43-1.125-3.064-3.713-3.63-5.75-1.52-5.47-1.282-84.691.266-89.111.657-1.874 2.464-4.349 4.017-5.5C8.09.792 9.043.75 53 .75s44.91.042 47.677 2.094c1.552 1.151 3.36 3.626 4.017 5.5 1.548 4.42 1.785 83.64.266 89.11-.566 2.038-2.2 4.626-3.63 5.75-2.533 1.993-3.775 2.046-48.33 2.046s-45.797-.053-48.33-2.045zM31 65.359v-6.89l7.497-.379c6.475-.327 7.852-.735 10.11-2.992 3.413-3.413 4.303-10.188 1.938-14.761-2.454-4.745-6.646-6.087-19.013-6.087H21v38h10zm0-19.109v-5h3.929c4.25 0 7.071 1.995 7.071 5s-2.821 5-7.071 5H31zm43 11v-15h11v-8H53v8h11v30h10z" fill="#edda02"/><path d="M21 53.25v-19h10.532c12.367 0 16.56 1.342 19.013 6.087 2.365 4.573 1.475 11.348-1.939 14.761-2.257 2.257-3.634 2.665-10.11 2.992L31 58.469V72.25H21zm19.429-3.571c3.728-3.73.662-8.429-5.5-8.429H31v10h3.929c2.238 0 4.604-.676 5.5-1.571zM64 57.25v-15H53v-8h32v8H74v30H64z" fill="#024bb6"/></svg>