<svg xmlns="http://www.w3.org/2000/svg" width="95" height="95"><path d="M.256 83.194h94.488V11.806H.256z" fill="#fc0"/><path d="M40.003 22.25l33.004-.865C47.403 36.679 38.79 60.142 36.646 74.583H8.27c2.079-15.83 14.91-42.062 31.732-52.333M88.008 43.065c-13.061 8.19-16.881 21.08-17.677 26.005h-8.49c1.47-8.668 6.922-19.896 14.976-25.786.068-.05 11.191-.219 11.191-.219" fill="#0a3478"/><path d="M62.69 34.97l19.339-.541C66.154 42.81 58.244 60.402 56.914 71.267H42.206c1.246-8.91 7.342-26.44 20.484-36.297" fill="#e10014"/></svg>