<svg xmlns="http://www.w3.org/2000/svg" id="Layer_1" data-name="Layer 1" version="1.1" width="162.585" height="162.585"><defs id="defs4118"><style id="style4116">.cls-1{fill:none}</style></defs><path class="cls-1" id="rect4122" fill="none" d="M-42.02-17.395h246.53v246.53H-42.02z"/><path class="cls-1" id="rect4124" fill="none" d="M-42.02-17.395h246.53v246.53H-42.02z"/><g id="g4146" transform="translate(-42.02 -41.996)"><path id="path4126" d="M201.22 110.55a21 21 0 00-33.71-2.32l-7.51-5.62c1.88-.77 5.81-2.5 6.07-3.56.15-.63-1.85-1.07-4.92-1.27l14.08-12.85a.32.32 0 00.06-.36l-3.58-6.75a.27.27 0 00-.43-.07L156.63 91.1c-4.38 0-12.17.58-14.41-.83-3.58-2.26-4-5.57-5.32-6.76-1.32-1.19-2.81-1.33-3.13-2.34a.1.1 0 01.08-.13c.69-.18 4.53-1.26 5.41-3.94.88-2.68-.91-6.31-1.21-6.88a.12.12 0 010-.14l4.09-3.57a.12.12 0 00-.09-.2l-6 .73a.1.1 0 01-.1 0c-.32-.42-2.71-3.28-7.6-1.28-5.7 2.31-4.65 7.24-4.65 7.24.76 5.1 2.53 6.11 5.42 7.78.08 0 .11.13 0 .18-1.86 1.55-20.56 16.91-37.84 22.9a.34.34 0 000 .63c5 2.17 20 1 24.43-1.57a.11.11 0 01.17.12c-.49 1.85-3.1 12.7 1 16.07l.23.17-5.56 3.92a1.42 1.42 0 001 2.57l2.86-.31a8.24 8.24 0 004.91-2.31l1-.94 8.08 6-1.07 8.55a21 21 0 1017.35 11l2.06-1.32a5.07 5.07 0 008.25-5.13l8.55-2.5a1.39 1.39 0 001-1.63l-.06-.28a1.4 1.4 0 00-1.37-1.11h-7.26a.12.12 0 01-.1-.07l-2.18-4.93 4.34-25.5 7 5.2a21 21 0 1035.39 0zM143 95.45l9.89-.17 1.3 2.45c-2.29.08-4.68.26-7 .55-1.67.2-3.69-1.94-4.29-2.62a.13.13 0 01.1-.21zm-15 14.81c.83-1.38 5.63-9.38 6.23-12.11a.12.12 0 01.2-.05c3.2 3.73 9.95 5.87 10.47 6a.06.06 0 00.06 0l8.67-2.67 1.94 1.44-9.07 8.33a6.22 6.22 0 00-3.53-1.54c-5.22-.67-13.38.51-14.86.74a.11.11 0 01-.04-.14zm22.42 27.31a5.15 5.15 0 00-1.68.5l-6.2-4.74a.1.1 0 010-.13l3.1-6.43a.11.11 0 01.2 0l5.1 8zm-13.15-6.95l-4.24-3.17 8.12-7.46zm0-11l-6.6 6.06-6.62-4.93a76.31 76.31 0 0013.34-1.08zM132 130.15l4.35 3.24-.52 1.43a1.94 1.94 0 001.17 2.5l9.07 3.31.27.2a5.1 5.1 0 00-.12 3.21l-2 1.3a20.93 20.93 0 00-13-8.25zm-1.41 11.26a16.66 16.66 0 019.92 6.27l-11.63 7.4zm5.57 30.36a16.67 16.67 0 11-8.37-30.7l-2.09 16.65a1.45 1.45 0 00.65 1.37 1.4 1.4 0 001.51 0l14.15-9a16.68 16.68 0 01-5.87 21.68zm12.39-54.53a.07.07 0 010-.06 9 9 0 00-.42-3.52l7.67-7-3.32 19.49zm43.94 18.65a16.66 16.66 0 01-23.15-22.79l13.21 9.84a1.4 1.4 0 001.6.06 1.33 1.33 0 00.37-.34 1.41 1.41 0 00-.29-2L171 110.83a16.16 16.16 0 013.56-3 16.67 16.67 0 1117.91 28.11z"/><path id="path4128" d="M150.07 87.66l4.88.28a.83.83 0 00.62-.22l12.06-11.32a.22.22 0 00-.14-.38l-4.74-.27a1.28 1.28 0 00-.94.34l-11.89 11.16a.24.24 0 00.15.41z"/><path id="polygon4130" d="M66 171.48l9.15.97 2.68 9.07 3.33-8.56 9.17.59-7.09-6.26 2.98-8.7-7.71 4.69-7.32-5.97 2.32 9.15z"/><path id="polygon4132" d="M74.99 138.5l9.15.98 2.68 9.06 3.34-8.55 9.16.59-7.09-6.26 2.99-8.7-7.72 4.69-7.32-5.97 2.32 9.15z"/><path id="polygon4134" d="M49.53 142.49l-7.51 5.01 9.15.97 2.68 9.07 3.33-8.56 9.16.59-7.08-6.26 2.98-8.7-7.71 4.69-7.32-5.97z"/></g></svg>