<svg xmlns="http://www.w3.org/2000/svg" class="p_logo" aria-labelledby="title desc" width="32" height="32"><path fill="#a9d158" fill-rule="evenodd" d="M0 0h32v32H0z"/><path d="M22.177 10.667c.12 1.198.12 2.517-.12 3.715-.24 1.199-.719 2.397-1.558 3.356-.719.959-1.918 1.798-3.356 2.517-1.318.719-3.236 1.078-5.513 1.318l-1.438.12L11.271 32H4.837L1.563 3.596l8.27-.84c1.917-.12 3.595-.12 5.033.12 1.318.24 2.637.72 3.715 1.439.96.719 1.798 1.558 2.397 2.636.6.96.96 2.278 1.199 3.716zM9.593 16.659l1.198-.12c1.798-.12 3.116-.719 3.955-1.438.72-.719 1.079-2.037.96-3.475-.12-1.439-.72-2.517-1.559-3.117-.839-.599-2.277-.719-3.955-.599l-1.558.12z" fill="#fff"/><circle cx="27.922" cy="27.635" r="3" fill="#ee935c"/></svg>