<svg xmlns="http://www.w3.org/2000/svg" width="64.5" height="64.5"><path d="M49.34 60.14a1.417 1.417 0 0 1 1.607-1.203l.31-2.177a1.421 1.421 0 0 1 .404-2.815l.307-2.177a1.42 1.42 0 0 1-1.204-1.604c.11-.777.831-1.32 1.607-1.206l.31-2.18a1.424 1.424 0 0 1-1.208-1.604 1.43 1.43 0 0 1 1.609-1.208l.313-2.174a1.427 1.427 0 0 1-1.209-1.61 1.424 1.424 0 0 1 1.607-1.205l.313-2.175a1.424 1.424 0 0 1-1.206-1.61 1.42 1.42 0 0 1 1.607-1.201l.31-2.181a1.413 1.413 0 0 1-1.204-1.604 1.411 1.411 0 0 1 1.605-1.202l.315-2.18a1.42 1.42 0 0 1 .393-2.813l.312-2.177a1.412 1.412 0 0 1-1.2-1.607 1.413 1.413 0 0 1 1.607-1.205l.307-2.174a1.421 1.421 0 0 1 .401-2.815l.31-2.178a1.417 1.417 0 0 1-1.203-1.604 1.414 1.414 0 0 1 1.604-1.206l.393-2.752-3.187-.456a1.417 1.417 0 0 1-1.607 1.206 1.423 1.423 0 0 1-1.203-1.606l-2.18-.312a1.419 1.419 0 1 1-2.81-.398l-2.18-.311a1.414 1.414 0 0 1-1.604 1.202 1.418 1.418 0 0 1-1.206-1.603l-2.177-.312a1.419 1.419 0 1 1-2.81-.401l-2.182-.313a1.412 1.412 0 0 1-1.604 1.205 1.418 1.418 0 0 1-1.206-1.601l-2.177-.313a1.42 1.42 0 1 1-2.81-.402l-2.18-.31a1.417 1.417 0 0 1-1.606 1.204 1.422 1.422 0 0 1-1.206-1.604l-2.18-.313a1.413 1.413 0 0 1-1.604 1.205A1.42 1.42 0 0 1 17.535.453L14.35 0l-.393 2.753a1.418 1.418 0 1 1-.404 2.807l-.31 2.18c.777.11 1.318.829 1.204 1.604a1.415 1.415 0 0 1-1.605 1.208l-.31 2.177c.777.108 1.316.83 1.204 1.607a1.414 1.414 0 0 1-1.604 1.203l-.31 2.177a1.426 1.426 0 0 1 1.205 1.61 1.426 1.426 0 0 1-1.609 1.205l-.31 2.177a1.42 1.42 0 0 1 1.206 1.607 1.42 1.42 0 0 1-1.604 1.203l-.313 2.18a1.413 1.413 0 0 1 1.203 1.604 1.419 1.419 0 0 1-1.604 1.208l-.31 2.175c.776.112 1.313.83 1.203 1.61a1.416 1.416 0 0 1-1.604 1.2l-.312 2.178c.776.11 1.315.832 1.205 1.61a1.418 1.418 0 0 1-1.609 1.202l-.307 2.18a1.421 1.421 0 0 1 1.205 1.606 1.417 1.417 0 0 1-1.606 1.201l-.313 2.18c.779.11 1.318.83 1.203 1.604a1.42 1.42 0 0 1-1.604 1.21l-.312 2.176c.78.113 1.315.83 1.208 1.607a1.417 1.417 0 0 1-1.604 1.202l-.396 2.756 3.187.455a1.421 1.421 0 0 1 1.607-1.207 1.426 1.426 0 0 1 1.206 1.607l2.18.31a1.416 1.416 0 0 1 1.604-1.205 1.42 1.42 0 0 1 1.206 1.605l2.174.312a1.423 1.423 0 0 1 1.61-1.205c.775.11 1.315.83 1.203 1.604l2.177.314a1.422 1.422 0 0 1 1.609-1.206c.773.108 1.318.83 1.203 1.604l2.177.31a1.423 1.423 0 0 1 1.607-1.201c.776.11 1.32.829 1.206 1.603l2.18.314a1.415 1.415 0 0 1 1.606-1.205c.774.11 1.318.829 1.203 1.604l2.175.31a1.428 1.428 0 0 1 1.61-1.205c.778.113 1.317.83 1.202 1.607l2.18.31a1.418 1.418 0 0 1 2.81.402l3.187.456.394-2.755a1.419 1.419 0 0 1-1.206-1.604" fill="#d81845" fill-rule="evenodd"/><path d="M32.103 21.788h-1.235v8.979h1.284c2.417 0 3.946-.69 3.946-4.589 0-3.453-1.43-4.39-3.995-4.39zm.789 15.195h-2.024v5.625h3.75v5.871H19.866v-5.871h2.713V21.443h-2.713v-5.871h13.026c6.216 0 11.742 2.071 11.742 10.212 0 8.979-5.625 11.2-11.742 11.2" fill="#fff"/></svg>