<svg xmlns="http://www.w3.org/2000/svg" viewBox="0 0 90 90"><circle cx="45" cy="45" r="40" fill="#FFF"/><path d="M33.24 21.94a3.81 3.81 0 00-1.97 1.9c-.38.84-.4 2.3-.35 21.93l.02 21.03h6.8l.02-8.72c.03-4.77.07-8.74.11-8.8.07-.05 2.97-.13 6.46-.18 6.65-.1 7.09-.13 9.22-.85 2.04-.68 3.6-1.64 5.2-3.27 4.85-4.88 4.98-13.57.28-18.77-1.8-1.97-3.68-3.02-7.46-4.16-.6-.17-17.91-.28-18.33-.1zm18.11 6.73c2.92 1.33 4.3 3.66 4.17 7.05-.15 3.55-2.02 5.94-5.33 6.77-1.63.41-12.32.61-12.36.22-.02-.31-.02-13.93 0-14.42.02-.39.3-.41 6.12-.32l6.08.08 1.32.62z"/><path d="M51.57 52.21c-.35.09-1.93.18-3.51.22-1.56.02-2.9.09-2.92.13a169 169 0 004.79 7.17l4.89 7.07h4.24c2.35 0 4.25-.04 4.25-.13 0-.11-.96-1.53-3.09-4.58a1171.8 1171.8 0 01-6.41-9.15c-.64-.97-.9-1.03-2.24-.73z"/><path fill="#4CC7E8" d="M68.67 6.72A44.97 44.97 0 0189.53 51.5l-6.68-.96.04-.29a38.21 38.21 0 00-17.78-37.8l-.05-.03 3.6-5.7h.01z"/><path fill="#72C6B8" d="M10.64 15.94l5.12 4.4-.05.06a38.25 38.25 0 0028.73 62.85v6.74h-.18a45 45 0 01-33.72-73.94l.1-.11z"/><path fill="#FDB900" d="M82.85 50.54l6.68.96A44.92 44.92 0 0145 90h-.56v-6.75H45c18.9 0 34.88-13.8 37.78-32.26l.07-.45z"/><path fill="#F25D0F" d="M31.59 2.03l1.93 6.47-.09.03a38.3 38.3 0 00-17.67 11.81l-5.12-4.4.3-.36A45.04 45.04 0 0131.4 2.1l.2-.06z"/><path fill="#8AC734" d="M45 0c8.69 0 16.8 2.46 23.67 6.72l-3.61 5.7.06.04c-6-3.71-12.9-5.71-20.12-5.71a38.23 38.23 0 00-11.57 1.78l.1-.03-1.94-6.47.52-.16A45 45 0 0145 0z"/></svg>