<svg xmlns="http://www.w3.org/2000/svg" width="88" height="88"><path fill="#0337cc" d="M44 0l.672.007C52.73.12 60.492 1.425 67.96 3.924c7.676 2.567 14.21 6.117 19.604 10.65 1.453 15.694-.726 29.893-6.534 42.598-5.75 12.578-17.906 22.775-36.466 30.592L44 88c-6.915-2.874-12.953-6.075-18.114-9.6V61.215l.017.017V23.766h19.002c11.098 0 18.286 5.649 18.429 15.287l.002.42c0 10.347-7.884 15.85-18.735 15.96l-.33.001h-6.08l-.138 14.39a76.561 76.561 0 005.522 2.584l.425.178.374-.156c12.294-5.178 20.346-11.933 24.155-20.265 3.848-8.416 5.29-17.822 4.329-28.218-3.573-3.003-7.902-5.354-12.986-7.055-4.77-1.596-9.722-2.457-14.856-2.584l-.57-.01-.446-.005-.445.004c-5.338.075-10.48.94-15.427 2.595-3.39 1.134-7.643 3.485-12.761 7.055v45.562c-3.584-3.82-6.383-7.933-8.397-12.337C1.162 44.467-1.017 30.268.436 14.573c5.393-4.532 11.928-8.082 19.604-10.65C27.508 1.426 35.27.12 43.328.008zm-.045 34.09H38.19v11.717h5.827c4.302 0 6.947-2.21 7.028-5.601l.002-.29c0-3.741-2.579-5.764-6.89-5.825l-.203-.001z"/></svg>