<svg xmlns="http://www.w3.org/2000/svg" viewBox="0 0 349 86"><path fill="#097337" d="M12 34.8V0H0v84.3h12V75c6.1 6.8 13 11 20.7 11 7.7 0 15.3-3 21-8.8a31.4 31.4 0 0 0 8.7-23 30 30 0 0 0-8.7-22.5 29.1 29.1 0 0 0-21-8.5A24 24 0 0 0 12 34.8Zm5.9 5.4c3.5-3.9 7.8-5.8 13-5.8 5 0 9.5 2 13.2 5.8 3.6 3.9 5.5 8.7 5.5 14.6a19.1 19.1 0 0 1-18.8 19.7A17 17 0 0 1 17.9 69a19.8 19.8 0 0 1-5.3-14.3c0-5.8 1.8-10.6 5.3-14.5ZM134 51.4a26 26 0 0 0-8.9-20.7c-5.8-5-12.9-7.5-21.2-7.5-8.3 0-15.5 2.8-21.6 8.5a29.7 29.7 0 0 0-9.2 22.8A30.1 30.1 0 0 0 104 86c10.6 0 19.1-3.4 25.7-10.2l-7.3-8c-4 4.8-9.8 7.2-17.5 7.2-4.8 0-9.1-1.4-12.8-4A13.9 13.9 0 0 1 86 60.1h48v-8.8Zm-42.4-13c3.7-2.8 8-4.2 12.7-4.2a17 17 0 0 1 11.8 3.9c3.3 2.7 4.9 6.7 4.9 11.8H86c0-4.9 1.9-8.8 5.6-11.7v.3Zm88.7-4V24.1h-17.1V5h-12v19h-8.6v10.3h8.5V65c0 6.4 2 11.6 5.8 15.3 3.9 3.8 8.2 5.7 13.7 5.7a22 22 0 0 0 15-6l-5.3-9.1c-2.6 2.7-5.2 4-8 4-2.7 0-5.3-.9-6.8-2.6a10 10 0 0 1-2.3-7V34.5h17.1Zm48.1 0V24.1H213V5h-13.8v19h-6.8v10.3h6.8V65c0 6.4 2 11.6 5.8 15.3a20 20 0 0 0 14.3 5.7 22 22 0 0 0 15-6l-5.3-9.1c-2.6 2.7-5.2 4-8 4-2.7 0-4.2-.9-5.7-2.6a10 10 0 0 1-2.3-7V34.5h16-.6Zm73.9 17c0-8.8-3.2-15.7-9-20.7s-12.9-7.5-21.2-7.5c-8.3 0-15.5 2.8-21.6 8.5a29.7 29.7 0 0 0-9.2 22.8A30.1 30.1 0 0 0 272.2 86c10.5 0 19.1-3.4 25.7-10.2l-7.3-8c-4 4.8-9.8 7.2-17.5 7.2-4.8 0-9.1-1.4-12.9-4a13.9 13.9 0 0 1-6-10.8h48v-8.8Zm-42.5-13c3.7-2.8 8-4.2 12.7-4.2a17 17 0 0 1 11.8 3.9c3.3 2.7 4.9 6.7 4.9 11.8h-35c0-4.9 1.8-8.8 5.6-11.7v.3Zm88.9-2.3v-13c-4 .2-8.7 1.4-12.2 3.9a26.6 26.6 0 0 0-8.4 9.3V24.1h-12v60.2h12V58a24 24 0 0 1 4.8-15.8c3.2-4 8.7-6.2 15-6.2h.8Z"/></svg>
