<svg width="1080" height="1080" fill="none" xmlns="http://www.w3.org/2000/svg"><path fill="#4338CA" d="M0 0h1080v1080H0z"/><path d="M540.378 324C448.49 324 374 398.49 374 490.378v256.231c0 5.508 4.465 9.979 9.984 9.979h46.588c5.514 0 9.985-4.471 9.985-9.979V623.491c27.807 20.888 62.371 33.27 99.826 33.27 91.882 0 166.384-74.49 166.384-166.377C706.761 398.49 632.265 324 540.378 324Zm0 266.21c-55.133 0-99.827-44.694-99.827-99.832 0-55.133 44.694-99.827 99.827-99.827 55.132 0 99.832 44.694 99.832 99.827 0 55.132-44.7 99.832-99.832 99.832Z" fill="#fff"/></svg>
