<?xml version="1.0" encoding="UTF-8"?><svg id="a" xmlns="http://www.w3.org/2000/svg" viewBox="0 0 1361.04 368.5"><defs><style>.b{fill:#4338ca;}</style></defs><path class="b" d="M523.96,28.91c.11-.18,.22-.36,.32-.55l.04-.06h0c.59-1.16,.93-2.47,.93-3.86,0-3.11-1.68-5.83-4.17-7.31-.03-.03-.05-.07-.08-.09-52.52-28.65-122.64-21.88-169.07,25.89-26.07,26.81-39.38,61.3-40.06,95.96h-.04v136.06h0c0,4.7,3.81,8.5,8.5,8.5h39.69c4.7,0,8.5-3.81,8.5-8.5h0V141.73h.02c0-21.36,7.98-42.75,24.04-59.28,28.68-29.5,71.01-31.71,100.2-16.18,.09,.05,.18,.1,.28,.14,.07,.04,.13,.07,.2,.1h0c1.11,.52,2.34,.83,3.64,.83,3.32,0,6.19-1.91,7.59-4.68l19.49-33.75Z"/><path class="b" d="M141.73,0C63.46,0,0,63.45,0,141.73H0v218.27c0,4.69,3.81,8.5,8.5,8.5H48.19c4.7,0,8.5-3.81,8.5-8.5v-104.88c23.69,17.79,53.13,28.34,85.04,28.34,78.27,0,141.74-63.46,141.74-141.73S220,0,141.73,0Zm0,226.77c-46.96,0-85.04-38.07-85.04-85.04S94.77,56.69,141.73,56.69s85.04,38.07,85.04,85.04-38.08,85.04-85.04,85.04Z"/><path class="b" d="M977.53,0c-78.27,0-141.73,63.45-141.73,141.73h0v218.27c0,4.69,3.81,8.5,8.5,8.5h39.69c4.7,0,8.5-3.81,8.5-8.5v-104.88c23.69,17.79,53.13,28.34,85.04,28.34,78.27,0,141.74-63.46,141.74-141.73S1055.8,0,977.53,0Zm0,226.77c-46.96,0-85.04-38.07-85.04-85.04s38.07-85.04,85.04-85.04,85.04,38.07,85.04,85.04-38.08,85.04-85.04,85.04Z"/><path class="b" d="M806.47,144.57C806.47,66.29,743.01,0,664.74,0s-141.73,63.45-141.73,141.73,63.46,141.73,141.73,141.73c44.31,0,80.85-20.3,103.77-45.21h0s.04-.04,.05-.06h0c1.5-1.54,2.43-3.63,2.43-5.95,0-2.45-1.04-4.65-2.7-6.2h0l-.12-.11c-.22-.2-.44-.38-.68-.55l-30.32-24.68c-1.5-1.31-3.45-2.12-5.6-2.12-2.67,0-5.05,1.23-6.61,3.16-13.47,13.71-34.77,25.03-60.24,25.03-46.96,0-85.04-38.07-85.04-85.04s38.07-85.04,85.04-85.04c37.02,0,68.5,23.67,80.18,56.69h-73.1c-4.7,0-8.5,3.81-8.5,8.5v39.69c0,4.7,3.8,8.5,8.5,8.5h123.31c.23,0,.46-.02,.69-.04,.23,.02,.46,.04,.69,.04,3.78,0,6.97-2.46,8.08-5.87l.1,.02c.05-.31,.1-.6,.14-.9,.06-.29,.11-.58,.14-.88,.99-6.34,1.5-10.86,1.5-17.87Z"/><path class="b" d="M1360.08,28.35l.04-.06h0c.59-1.16,.93-2.47,.93-3.86,0-3.11-1.68-5.83-4.17-7.31-.03-.03-.05-.07-.08-.09-52.52-28.65-122.64-21.88-169.07,25.89-26.07,26.81-39.38,61.3-40.06,95.96h-.04v136.06h0c0,4.7,3.81,8.5,8.5,8.5h39.69c4.7,0,8.5-3.81,8.5-8.5h0V141.72h.02c0-21.36,7.98-42.75,24.04-59.28,28.68-29.5,71.01-31.71,100.2-16.18,.09,.05,.18,.1,.28,.14,.07,.04,.13,.07,.2,.1h0c1.11,.52,2.34,.83,3.64,.83,3.32,0,6.19-1.91,7.59-4.68l19.49-33.75c.11-.18,.22-.36,.32-.55Z"/></svg>