<svg xmlns="http://www.w3.org/2000/svg" height="125.925" width="125.925"><g fill="#1f2938"><path d="M62.968 3.656l-19.885 11.48 13.255 7.653 6.613-3.826 6.645 3.824 13.252-7.654zM62.971 122.27l49.702-28.698-.001-30.61-13.26 7.653.005 15.304-36.452 21.046-36.455-21.05-.001-15.303-13.25-7.65v30.607z"/><path d="M119.298 28.52v.01l.009 15.297-46.399 26.79 13.245 7.653-23.186 13.39-23.195-13.39 13.254-7.653-46.399-26.79.009-15.287L0 24.709V5.58l56.331 32.518 6.636-3.822 6.618 3.822 56.34-32.528v19.128z"/></g></svg>