<svg xmlns="http://www.w3.org/2000/svg" viewBox="0 0 418 417"><ellipse cx="209.2" cy="208.4" fill="#fff" rx="208.9" ry="208.4"/><path fill="#1981ff" d="M110 208c-1 55 46 101 99 101 55 0 99-46 99-100 0-55-44-98-99-98-71 0-99 58-99 98zm99-87a87 87 0 0 1 87 87 87 87 0 0 1-87 88 87 87 0 0 1-87-87 87 87 0 0 1 87-88zM86 208a124 124 0 0 0 123 124c65 0 124-55 124-124S274 85 209 85A123 123 0 0 0 86 208ZM209 96c57 0 111 48 111 113 0 64-49 111-111 111-63 0-111-50-111-111 0-65 51-113 111-113ZM62 208A148 148 0 1 0 209 61 146 146 0 0 0 62 208ZM209 73a136 136 0 1 1-1 272 136 136 0 0 1 1-272zm-7 64h15v143h-15zm-33 11c6-5 16-7 16-7v134c-9-1-16-7-16-7zm81 0c-6-5-16-7-16-7v134a63 63 0 0 0 16-7zm-98 17v87s-14-14-14-44c0-29 14-43 14-43zm114-1v87s14-15 14-44c1-29-14-43-14-43zm17-102 21-40-20-9-16 42zm-32-13 12-43-21-5-7 46Zm-33-4 2-45h-22l3 45zm-35 2-6-45-22 4 12 44zm-34 9-15-42-19 7 19 40zm-31 15L95 33 77 46l29 35ZM93 93 62 60 47 76l34 28Zm-22 26L34 95l-12 18 40 20Zm-15 30-41-16-7 20 43 12zm-9 33-44-7-3 22 45 2zm-2 34-44 3 1 20 45-6zm5 35L7 262l6 20 43-15zm13 32-40 19 10 19 38-24zm18 28-35 29 14 16 33-32zm24 25-28 34 16 12 25-36zm29 19-21 38 20 10 16-42zm32 11-11 43 20 5 7-44zm34 6-2 45h22l-2-45zm34-2 6 45 22-4-11-44zm34-9 15 42 21-8-21-41zm31-16 23 38 18-12-27-35zm26-21 31 31 15-15-34-28zm21-26 37 24 12-18-40-20zm16-31 41 16 8-20-43-12zm8-34 44 8 4-21-45-4zm2-35 45-1-1-22-45 8zm-5-33 43-11-6-20-42 15zm-13-32 40-21-10-19-38 25zm-18-29 35-27-15-16-31 31zm-24-24 28-34-18-14-24 38Z"/></svg>