<svg xmlns="http://www.w3.org/2000/svg" viewBox="0 0 800 800"><g style="fill:#1966cc;fill-opacity:1"><path d="M143 223c-1 45 38 83 82 83 45 0 82-38 82-83s-37-81-82-81c-59 0-82 48-82 81zm82-72c40 0 72 32 72 72s-32 72-72 72-72-32-72-72 32-72 72-72z" style="fill:#1966cc;fill-opacity:1;stroke:none" transform="matrix(1.20986 0 0 1.20986 128 49)"/><path d="M123 223c0 58 48 102 102 102s102-45 102-102-48-102-102-102c-53 0-102 42-102 102zm102-93c47 0 92 40 92 93s-41 92-92 92c-52 0-92-41-92-92 0-53 42-93 92-93z" style="fill:#1966cc;fill-opacity:1;stroke:none" transform="matrix(1.20986 0 0 1.20986 128 49)"/><path d="M103 223a122 122 0 1 0 122-122c-65 0-122 50-122 122zm122-112a112 112 0 1 1-1 225 112 112 0 0 1 1-225z" style="fill:#1966cc;fill-opacity:1;stroke:none" transform="matrix(1.20986 0 0 1.20986 128 49)"/></g><g style="fill:#318bff;fill-opacity:1"><path d="M219 164h13v118h-13zM192 173c5-4 13-6 13-6v111c-7-1-13-6-13-6zM259 173c-5-4-13-6-13-6v111c7-2 13-6 13-6zM178 187v72s-12-12-12-36 12-36 12-36zM272 186v72s12-12 12-36-12-36-12-36z" style="fill:#318bff;fill-opacity:1;stroke:none" transform="matrix(1.20986 0 0 1.20986 128 49)"/></g><g style="stroke:none;stroke-opacity:1;fill:#318bff;fill-opacity:1"><path d="m292 106 19-32-16-9-15 34zM266 94l12-35-17-5-8 37zM239 89l4-37-18-1v37zM210 89l-3-37-18 2 8 37zM182 95l-11-35-16 5 14 34zM156 106l-18-32-15 10 22 30zM134 123l-24-28-13 12 27 25zM115 144l-30-22-10 15 32 18zM101 168l-33-15-7 16 35 12zM92 195l-36-8-3 18 37 4zM89 223H53v17l37-3zM92 252l-36 7 4 17 36-11zM101 279l-34 14 8 16 32-18zM115 303l-30 22 11 14 28-25zM134 324l-25 27 13 11 22-29zM157 341l-19 31 16 9 15-34zM183 352l-11 35 16 5 8-36zM211 358l-4 37 18 1v-37zM239 358l3 37 18-2-7-37zM267 352l11 35 17-6-15-34zM293 340l18 32 15-9-21-30zM316 324l24 27 13-12-27-25zM334 303l30 22 10-15-32-18zM349 278l33 15 7-16-35-12zM357 251l36 8 4-17-37-5zM360 222l37 1v-18l-37 4zM357 194l36-7-4-17-35 11zM348 167l34-15-8-16-32 19zM334 143l30-21-11-14-27 24zM315 122l25-27-14-12-22 30z" style="fill:#318bff;fill-opacity:1;stroke:none" transform="matrix(1.20826 -.0622 .0622 1.20826 114 64)"/></g><g style="font-size:45.490097050000003px;font-style:normal;font-weight:400;line-height:125%;letter-spacing:0;word-spacing:0;fill:#1966cc;fill-opacity:1;stroke:none;font-family:Sans"><g style="fill:#1966cc;fill-opacity:1"><path d="M252 588v98h20v-29h6a43 43 0 0 0 27-10l8-11c2-4 3-9 3-14s-1-9-3-14l-8-11a41 41 0 0 0-27-9zm26 19c5 0 9 1 13 4s6 7 6 11c0 5-2 8-6 11s-8 4-13 4h-6v-30z" style="font-size:163.76434326px;font-variant:normal;font-weight:700;font-stretch:normal;font-family:Triplex;-inkscape-font-specification:Triplex Bold;fill:#1966cc;fill-opacity:1"/><path d="m374 628-4-20-8 2-7 4a65 65 0 0 0-9 6l-1-2a55 55 0 0 0-8-9l-16 9c4 3 8 7 10 11s3 9 3 14v43h18v-44a64 64 0 0 1 8-8l6-4c3-2 5-2 8-2zM402 659h3c19 0 41-11 40-27-1-10-4-13-9-17s-14-7-20-7c-4 0-9 2-14 4l-11 8a42 42 0 0 0-9 28 47 47 0 0 0 9 28c3 4 7 7 11 9s9 3 14 3c4 0 7 0 11-2a35 35 0 0 0 13-9l3-3-11-10-5 4c-3 2-7 2-11 2a13 13 0 0 1-11-4l-2-4-1-3zm13-34 9 1c2 2 4 4 4 6 0 5-9 9-15 10l-13 1 1-3 2-6 5-6 7-3z" style="font-size:163.76434326px;font-variant:normal;font-weight:700;font-stretch:normal;fill:#1966cc;fill-opacity:1;font-family:Triplex;-inkscape-font-specification:Triplex Bold"/><path d="M455 611v18h29l-30 57h59v-18h-30l30-57zM539 576c-4 0-6 1-9 3-2 2-3 5-3 8s1 6 3 8c3 2 5 3 9 3 3 0 5-1 8-3 2-2 3-5 3-8s-1-6-3-8c-3-2-5-3-8-3zm9 35h-19v75h19z" style="font-size:163.76434326px;font-variant:normal;font-weight:700;font-stretch:normal;font-family:Triplex;-inkscape-font-specification:Triplex Bold;fill:#1966cc;fill-opacity:1"/></g></g></svg>