<svg xmlns="http://www.w3.org/2000/svg" width="46.137" height="46.137" viewBox="0 0 12.207 12.207"><defs><linearGradient x1="0" y1="0" x2="1" y2="0" gradientUnits="userSpaceOnUse" gradientTransform="matrix(16.36674 28.56092 28.34807 -16.48963 455.678 730.947)" spreadMethod="pad" id="b"><stop offset="0" stop-color="#2c65ad"/><stop offset=".5" stop-color="#448ed3"/><stop offset="1" stop-color="#51c6d6"/></linearGradient><clipPath clipPathUnits="userSpaceOnUse" id="a"><path d="M451.02 744.342c0-9.579 7.293-17.579 16.756-18.465v12.188c-4.432.418-7.477 3.719-7.477 8.091 0 4.232 2.815 7.302 6.693 7.302 3.553 0 5.953-2.233 5.953-5.535 0-2.929-1.844-4.838-5.169-5.349v-4.509c6.832.182 11.263 4.369 11.263 10.649 0 6.791-5.26 11.766-12.462 11.766-8.863 0-15.557-6.976-15.557-16.138"/></clipPath></defs><g clip-path="url(#a)" transform="matrix(.35278 0 0 -.35278 -157.948 268.28)"><path d="M451.02 744.342c0-9.579 7.293-17.579 16.756-18.465v12.188c-4.432.418-7.477 3.719-7.477 8.091 0 4.232 2.815 7.302 6.693 7.302 3.553 0 5.953-2.233 5.953-5.535 0-2.929-1.844-4.838-5.169-5.349v-4.509c6.832.182 11.263 4.369 11.263 10.649 0 6.791-5.26 11.766-12.462 11.766-8.863 0-15.557-6.976-15.557-16.138" fill="url(#b)"/></g></svg>