<svg xmlns="http://www.w3.org/2000/svg" viewBox="0 0 54.194 54.194"><path d="M46.265 8.763c-.84-3.36-3.13-6.04-6.43-7.55-3.75-1.72-8.24-1.61-12.07.32l-11.24 6.04v5.49l13.48-7.24c2.47-1.24 5.39-1.32 7.83-.21 1.94.88 3.27 2.43 3.75 4.33 1.6 6.37.17 11.62-11.93 18.08l-13.12 7.05v5.48l15.4-8.27c12.5-6.68 16.79-13.72 14.33-23.52m-18.43 39.35-11.31 6.08v-5.49l9.03-4.85c1.61-.87 3.56.3 3.56 2.13-.01.9-.49 1.71-1.28 2.13m5.47-32.95a2.414 2.414 0 0 0-3.27-.99l-13.51 7.25v5.49l15.79-8.47c1.17-.64 1.62-2.1.99-3.28" fill="#0f2648"/><path d="M7.265 43.773v5.45l9.26 4.97v-5.49l-9.03-4.85c-.07-.03-.15-.05-.23-.08m0-13.64v5.45l9.26 4.97v-5.48l-9.03-4.85c-.07-.05-.15-.06-.23-.09m.23-27.41c-.08-.04-.16-.05-.23-.09v5.45l9.26 4.97v-5.48zm-.23 13.76v5.45l9.26 4.97v-5.49l-9.03-4.85c-.07-.03-.15-.05-.23-.08" fill="#7d9ebd"/></svg>
