<svg xmlns="http://www.w3.org/2000/svg" width="512" height="512"><defs><linearGradient x1="96.256" y1="627.226" x2="96.256" y2="539.266" id="a" gradientTransform="scale(2.3452 .4264)" gradientUnits="userSpaceOnUse"><stop stop-color="#4BB749" offset="0%"/><stop stop-color="#79B481" offset="100%"/></linearGradient><linearGradient x1="357.36" y1="416.026" x2="396.757" y2="462.561" id="c" gradientTransform="scale(1.06674 .93744)" gradientUnits="userSpaceOnUse"><stop stop-color="#23FF16" offset="0%"/><stop stop-color="#189A33" offset="100%"/></linearGradient><linearGradient x1="79.333" y1="409.373" x2="21.49" y2="486.644" id="d" gradientTransform="scale(1.09859 .91026)" gradientUnits="userSpaceOnUse"><stop stop-color="#23FF16" offset="0%"/><stop stop-color="#189A33" offset="100%"/></linearGradient><radialGradient cx="79.876" cy="489.62" fx="79.876" fy="489.62" r="14.875" gradientTransform="scale(2.8999 .34484)" id="b" gradientUnits="userSpaceOnUse"><stop offset="0%"/><stop stop-color="#030303" offset="19.01%"/><stop stop-color="#0C0C0C" offset="32.36%"/><stop stop-color="#1C1C1C" offset="43.97%"/><stop stop-color="#323232" offset="54.61%"/><stop stop-color="#4E4E4E" offset="64.56%"/><stop stop-color="#717171" offset="74.02%"/><stop stop-color="#9A9A9A" offset="83.09%"/><stop stop-color="#C9C9C9" offset="91.61%"/><stop stop-color="#FEFEFE" offset="99.85%"/><stop stop-color="#FFF" offset="100%"/></radialGradient></defs><g fill-rule="nonzero" transform="translate(27.84)" fill="none"><path d="M416.842 185.459v.015H396.05v-18.576C396.05 74.72 320.877 0 228.131 0 135.401 0 60.226 74.72 60.226 166.898v18.576H39.465C17.661 185.474 0 203.02 0 224.695V377.92c.045 10.204.656 17.622 4.65 23.03 4.143 5.421 11.103 7.358 21.491 7.328h33.4l5.096 80.678c0 .194-.015.507-.015.91.015 2.144.254 7.045 2.966 11.752 2.668 4.752 8.272 8.998 17.333 8.923h84.877l44.07-46.73h32.937l42.61 48.19h76.128c6.558-.03 12.564.134 17.765-3.173 5.187-3.381 8.302-9.802 9.807-20.989 2.19-16.267 2.697-60.777 3.696-79.546h33.37c10.268-.03 16.975-1.013 21.327-5.69 4.202-4.767 4.754-11.56 4.814-21.749V224.695c-.03-21.674-17.691-39.221-39.48-39.236z" fill="#349334"/><path d="M451.465 381.166c.06 10.043-.97 15.661-3.445 18.254-2.31 2.697-7.366 4.008-17.431 3.978h-38.397l-.134 2.474c-.925 17.703-1.551 65.059-3.773 81.644-1.446 10.699-4.235 15.229-7.47 17.315-3.251 2.19-8.247 2.354-14.897 2.325h-73.782l-42.632-48.22h-37.592l-44.108 46.76H85.149c-7.53-.075-10.736-2.966-12.779-6.304-1.968-3.383-2.281-7.525-2.266-9.164 0-.507.015-.716.015-.716l.015-.208-5.458-85.92H26.353c-9.975-.015-14.762-1.848-17.297-5.246-2.684-3.427-3.638-9.88-3.609-19.893V224.986c.03-18.79 15.33-33.974 34.237-34.004h26.05V167.17c.15-89.318 72.843-161.574 162.73-161.723 89.871.149 162.58 72.405 162.744 161.723v23.812h26.065c18.893.03 34.177 15.214 34.207 34.004v156.18z" fill="#4bb749"/><path fill="#118011" d="M70.203 398.827h315.915v10.47H70.203z"/><path fill="#118011" d="M70.703 402.459h-5.341V204.558h5.34zM392.064 402.459h-5.34V204.558h5.34z"/><ellipse cx="225.74" cy="246.922" rx="113.173" ry="20.577" fill="url(#a)"/><path d="M331.045 194.27v-30.18c0-56.864-46.189-102.965-103.18-102.965-56.99 0-103.194 46.101-103.194 102.966v30.178z" fill="#fff"/><path fill="url(#b)" d="M184.586 162.799h91.991v10.939h-91.991z"/><circle cx="193.967" cy="117.106" r="19.064" fill="#000"/><circle cx="261.749" cy="117.106" r="19.064" fill="#000"/><path fill="#fff" d="M191.244 309.258h68.993V360.7h-68.993zM201.895 303.81c3.11-10.864 12.755-18.746 24.155-18.761 11.4.015 21.045 7.897 24.17 18.762h8.2c-3.303-15.17-16.46-26.629-32.385-26.629-15.925.015-29.067 11.459-32.37 26.629z"/><path d="M435.38 413.228c1.855-.015 3.56-.06 5.206-.134V407.3c-3.007.463-6.463.627-10.487.642h-33.496c-.51 9.363-.883 25.072-1.407 40.512h5.46c.45-13.663.794-26.938 1.243-35.226z" fill="#118011"/><path d="M440.586 416.213v-2.86c-1.63.073-3.336.133-5.206.133h-33.495c-.45 8.227-.793 21.405-1.242 34.968h7.764c17.788.015 32.18-14.423 32.18-32.24z" fill="url(#c)"/><path d="M59.799 408.294H26.357c-5.178.015-9.476-.46-13.043-1.599v6.676c2.105.252 4.403.355 6.925.355l33.456-.014 2.209 34.742h6.432z" fill="#118011"/><path d="M20.202 413.708c-2.509 0-4.795-.104-6.888-.356v2.888c0 17.788 14.28 32.214 31.9 32.214h10.464l-2.196-34.761z" fill="url(#d)"/></g></svg>