<svg xmlns="http://www.w3.org/2000/svg" width="38" height="38" fill="none"><path d="M28.4 0H9.6C6.24 0 4.56 0 3.276.654A6 6 0 0 0 .654 3.276C0 4.56 0 6.24 0 9.6v18.8c0 3.36 0 5.04.654 6.324a6 6 0 0 0 2.622 2.622C4.56 38 6.24 38 9.6 38h18.8c3.36 0 5.04 0 6.324-.654a6 6 0 0 0 2.622-2.622C38 33.44 38 31.76 38 28.4V9.6c0-3.36 0-5.04-.654-6.324A6 6 0 0 0 34.724.654C33.44 0 31.76 0 28.4 0Z" fill="#232320"/><path d="M18.56 9H11v20.047h4.296V22.46h3.264c5.766 0 8.649-2.243 8.649-6.73S24.326 9 18.56 9zm.2 3.781c2.712 0 4.067.983 4.067 2.95s-1.355 2.95-4.066 2.95h-3.465v-5.9z" fill="#fff" fill-rule="evenodd"/></svg>