<svg viewBox="0 0 106.19 15.9" xmlns="http://www.w3.org/2000/svg"><path d="m0 7.82a12.9 12.9 0 0 1 5.3 7.45 16.2 16.2 0 0 0 -2.3-9.33z" fill="#546570"/><path d="m3.25 4.9c.08.1.14.21.21.31s.14.22.2.33a16.93 16.93 0 0 1 2.11 5.52v-9.36l-4 1.23a15.84 15.84 0 0 1 1.48 1.97z" fill="#8d9ca6"/><path d="m16.87 1.31a4.47 4.47 0 0 0 -3.16-1.31h-7.24v15.86h2.11-.07.15 1.25v-6.86h3.8a4.44 4.44 0 0 0 .63 0l.38-.07.36-.11a4.47 4.47 0 0 0 1.79-7.43zm-2.58 4.41a1.33 1.33 0 0 1 -.29.28 1.46 1.46 0 0 1 -.33.22 2 2 0 0 1 -.88.21h-2.88v-3.9h2.88a2 2 0 0 1 2 2 1.94 1.94 0 0 1 -.5 1.19z" fill="#008461"/><path d="m22 3.76h3.12c1.63 0 3 .78 3 2.37s-1.25 2.48-3.12 2.48h-1.31v3.19h-1.69zm1.66 3.66h1.2c1 0 1.58-.35 1.58-1.27s-.59-1.15-1.5-1.15h-1.25z" fill="#008461"/><path d="m29.35 7.79c0-1 0-1.65 0-2h1.56a9.16 9.16 0 0 1 .05 1.07 2 2 0 0 1 2-1.17v1.5c-1.35 0-2 .45-2 1.79v2.82h-1.61z" fill="#008461"/><path d="m34.08 5.74h1.62v6.06h-1.62zm0-2.45h1.62v1.42h-1.61z" fill="#008461"/><path d="m38.46 5.74c.65 2.09 1.14 3.67 1.32 4.63.16-.89.82-2.75 1.4-4.63h1.59l-2.19 6.06h-1.71l-2.13-6.06z" fill="#008461"/><path d="m48.65 10.31a12.41 12.41 0 0 0 .09 1.49h-1.43a4.13 4.13 0 0 1 -.1-.74 1.94 1.94 0 0 1 -1.83.84c-1.59 0-2.15-.94-2.15-1.84 0-1.08.82-2 3.05-2h.78v-.48c0-.48-.15-.91-1-.91s-1 .38-1.05.85h-1.52c.06-.95.67-1.9 2.63-1.9 1.53 0 2.53.51 2.53 1.94zm-1.53-1.26h-.8c-1.22 0-1.47.45-1.47.9s.28.82 1 .82c1 0 1.31-.64 1.31-1.57z" fill="#008461"/><path d="m55.72 9.72a2.51 2.51 0 0 1 -2.79 2.18c-2 0-2.88-1.19-2.88-3.14a2.84 2.84 0 0 1 3-3.14 2.37 2.37 0 0 1 2.69 2.21h-1.64a1.06 1.06 0 0 0 -1.1-1.07c-.94 0-1.31.79-1.31 2 0 1.42.45 2 1.28 2s1-.5 1.16-1z" fill="#008461"/><path d="m58.08 5.74c.77 2.53 1.25 4 1.36 4.7.18-.76.76-2.78 1.35-4.7h1.63l-2.22 6.32c-.68 1.92-1.45 2.15-2.56 2.15a3.91 3.91 0 0 1 -.64-.06v-1.15a5.63 5.63 0 0 0 .58 0c.6 0 .88-.36 1.07-1l-2.3-6.29z" fill="#008461"/><g fill="#546570"><path d="m63.49 3.76h3.12c1.63 0 3 .78 3 2.37s-1.28 2.48-3.15 2.48h-1.31v3.19h-1.66zm1.66 3.66h1.19c1 0 1.58-.35 1.58-1.27s-.61-1.15-1.52-1.15h-1.25z"/><path d="m76.44 8.69c0 1.84-.92 3.22-3.06 3.22s-3-1.45-3-3.19a2.89 2.89 0 0 1 3.08-3.1 2.8 2.8 0 0 1 2.98 3.07zm-4.44 0c0 1.32.47 2.06 1.42 2.06s1.38-.75 1.38-2.05-.45-1.91-1.4-1.91-1.4.72-1.4 1.9z"/><path d="m77.83 11.8v-8.51h1.61v8.51z"/><path d="m81.22 5.74h1.62v6.06h-1.62zm0-2.45h1.61v1.42h-1.6z"/><path d="m89.9 9.72a2.51 2.51 0 0 1 -2.79 2.18c-2 0-2.87-1.19-2.87-3.14a2.84 2.84 0 0 1 3-3.14 2.37 2.37 0 0 1 2.66 2.21h-1.61a1.07 1.07 0 0 0 -1.11-1.07c-.93 0-1.3.79-1.3 2 0 1.42.45 2 1.27 2s1-.5 1.16-1z"/><path d="m91.2 5.74h1.62v6.06h-1.62zm0-2.45h1.62v1.42h-1.62z"/><path d="m95.84 9.1c0 .82.31 1.64 1.32 1.64a1.09 1.09 0 0 0 1.16-.74h1.58a2.63 2.63 0 0 1 -2.79 1.93c-2.14 0-2.9-1.4-2.9-3.14a2.85 2.85 0 0 1 3-3.14c2.17 0 2.8 1.43 2.8 3v.51zm2.56-1c0-.73-.31-1.38-1.24-1.38a1.27 1.27 0 0 0 -1.29 1.38z"/><path d="m102.46 10a1 1 0 0 0 1.16.87c.65 0 1-.26 1-.67s-.37-.62-1.37-.88c-1.72-.46-2.13-1-2.13-1.87s.55-1.79 2.43-1.79 2.45.83 2.45 1.79h-1.57a.86.86 0 0 0 -1-.76c-.51 0-.78.22-.78.59s.26.53 1.22.77c1.74.43 2.29 1 2.29 2 0 1.21-1.07 1.88-2.62 1.88s-2.54-.71-2.66-1.93z"/></g></svg>