<svg xmlns="http://www.w3.org/2000/svg" viewBox="0 0 61.71 56.38"><path fill="#76bc21" d="M39.82 13.32A253.56 253.56 0 0 0 9.77 49.15c15.95-13.84 33.28-26.08 51.94-36v-.03c-7.29-.27-14.6-.22-21.89.2"/><path fill="#236138" d="M3.24 56.38c9.67-15.91 20.89-30.86 33.91-44.18C35.58 8.13 32.34 0 32.34 0a130.56 130.56 0 0 0-11.91 15.96A144.41 144.41 0 0 0 0 22.16s8.42 5.72 12.55 8.67c-3.5 8.09-9.01 24.55-9.33 25.55m46.14-2.32c-2.38-8.85-4.73-17.7-7.06-26.56a314.74 314.74 0 0 0-16.87 11.7c8.05 4.83 16.01 9.8 23.92 14.86"/></svg>