<svg xmlns="http://www.w3.org/2000/svg" width="27.44" height="27.44"><path fill="#20323c" d="M19.68 15.227c-.048.05-.094.104-.145.152l-.001.01-4.796 4.797-.008-.002a3.421 3.421 0 01-2.43 1.01H7.579a.712.712 0 00-.713.712v4.216h-.015a.856.856 0 01-1.449.468l-.003.002-4.35-4.348.004-.007A3.42 3.42 0 010 19.767V8.887c0-.921.365-1.756.957-2.373l-.002-.006 4.932-4.932h.002A3.42 3.42 0 018.287.599H12.3c.512 0 .996.115 1.431.316V.906c.372.173.71.406.994.692l.006-.003 5.854 5.854.001 6.867h6.85v10.67c.002.006.002.013.002.02v.24a1.715 1.715 0 01-1.71 1.597h-3.433a1.716 1.716 0 01-1.709-1.857v-10.67zm-6.662-.903a.712.712 0 00.713-.712V8.178a.712.712 0 00-.713-.712v-.001h-5.44a.713.713 0 00-.713.712v5.433c0 .394.319.712.713.712h5.438z"/><path fill="#00b9a1" d="M20.59 14.323h6.85l-6.85-6.865z"/></svg>