<svg xmlns="http://www.w3.org/2000/svg" width="38.994" height="38.994"><path d="M31.139 10.251l1.466-.957C29.08 4.147 24.155.727 19.174 0l-.383 1.733c4.54.607 9.072 3.753 12.348 8.518zm-2.93 1.92l1.465-.96c-3.03-4.392-7.167-7.265-11.256-7.748l-.377 1.731c3.638.353 7.385 2.955 10.169 6.977zm-2.932 1.923l1.468-.963c-2.54-3.659-5.9-5.979-9.087-6.182l-.382 1.752c2.684.037 5.702 2.122 8 5.393zm4.65 13.45l-1.7-.414a5.326 5.326 0 01-2.491 3.059 4.849 4.849 0 01-2.311.564 5.643 5.643 0 01-.68-.045l1.034 1.8a6.518 6.518 0 002.77-.748 7.073 7.073 0 003.379-4.216zm5.125 1.25a12.232 12.232 0 01-6.061 7.664c-.758.404-1.558.722-2.385.95l.908 1.586a13.939 13.939 0 009.241-9.781zm-1.7-.414l-1.7-.415a8.8 8.8 0 01-4.282 5.36 8.164 8.164 0 01-2.616.86l.937 1.629a9.888 9.888 0 002.489-.924 10.522 10.522 0 005.17-6.512zM18.83 27.346a15.5 15.5 0 01-4.005-4.791 14.925 14.925 0 01-1.83-5.5 27.748 27.748 0 01-7.273 8.027l-2.824 2.1a2.686 2.686 0 00-.157 3.327c1.049 1.891 2.4 1.858 2.624 1.842.444 0 .784-.344 1.005-.274 1.354.425 3.3 3.01 3.539 3.735.262.8.833.5 1.425.305.592-.195 1.39-.641.942-1.309a7.4 7.4 0 00-.768-.91c-.62-.756-2.5-2.919-1.8-3.8a3.2 3.2 0 01.757-.658c1.29-.909 3.572-2.257 8.365-2.094zm6.036-10.052c-2.423-4.672-6.425-7.376-8.94-6.033-2.513 1.343-2.587 6.219-.162 10.892 2.425 4.673 6.426 7.377 8.938 6.036 2.512-1.341 2.588-6.219.164-10.895zm-.825 9.151c-1.243.665-2.967.113-4.515-1.339a12.02 12.02 0 01-1.578-1.712c.05.017 1.866 2.147 2.884 1.614 1.25-.654 1.282-3.079.08-5.393-1.2-2.314-3.182-3.659-4.422-2.994a1.815 1.815 0 00-.853 1.244c-.374-2.285.1-4.2 1.417-4.9 2-1.069 5.033 1.176 6.963 4.9 1.93 3.724 2.026 7.514.024 8.581z" fill="#111" fill-rule="evenodd"/></svg>