<svg xmlns="http://www.w3.org/2000/svg" viewBox="0 0 90 90"><path fill="#005A98" d="M25.47 31.3c-.19-1.56 1.62-4.92 2.68-5.05 1.06-.14-.5 3.1-1.91 6.68 0 0-.64-.53-.77-1.64zm25.18 9.5c-.22-1.76 3.48-3.15 3.48-3.15-.53 4.27-3.32 4.55-3.48 3.16zM60.8 70.7c-.21-1.78 3.48-3.17 3.48-3.17-.53 4.27-3.31 4.55-3.48 3.16zM39.27 51.51c-.24.6-1.02 1.5-2.86 1.73a4.2 4.2 0 01-1.43-.07c.15-.15.3-.27.43-.38 2.48-2 4.3-3.13 5.67-3.3.69-.08 1.56.32 1.72 1.13 0 .3-.03.55 0 .8.13 1.08.71 2.2.71 2.2s1.5 2.98 2.47 2.86c1.68-.2-.59-1.43.14-3.83.63-2.13 1.83-4.46 1.8-6.83-.04-1.09-.2-1.68-.2-1.68-.65-2.01-2.34-3.45-3.33-3.61a11.6 11.6 0 00.44-.68c.27.16.7.33 1.17.27 2.47-.3 4.67-5.62 5.34-7.17.7-1.27 1.36-2.67 1.86-3.8.03.3.08.45.08.45.95 3.09.74 6.9.74 6.9s-4.75 1.55-4.42 4.24c.24 2.05 2.67 2.45 3.38 2.37 1.66-.2 4.53-1.6 4.02-6.28l-.02-.22c1.86-.6 3.19-1.47 4.14-2.35-.67 1.94-1.06 3.46-.97 4.24.19 1.51.82 3.62 3.16 3.33 1.71-.22 4.49-3.96 6.56-7.18-.1.79-.11 1.56-.02 2.32.4 3.35 2.57 3.73 3.81 3.57l.31-.04c.03-.03.1-.04.16-.05.03 0 .06 0 .09-.04 1.68-.47 3.35-2.09 4.66-3.85l.37-.56c.11-.14.22-.32.3-.45.27.15.7.32 1.17.27 2.65-.33 4.98-6.43 5.46-7.45.57-1.1-.44-1.32-.8-.57-2.06 4.16-3.2 6.71-4.7 6.9-.16.02-.51-.07-.62-.15.84-1.45 1.28-2.53 1.2-3.1-.31-2.65-3.26-1.13-2.95 1.43.14 1.13.51 1.89.51 1.89s-2.95 4.15-4.79 4.38c-2.7.33 1.23-11.57 6.4-12.22 1.41-.17 1.6-.64 1.46-.85-.94-1.23-2.33-2.24-4.08-2.03-2.3.29-5.44 3.5-7.02 7.3-2.4 4.16-5.93 8.61-6.75 8.72-2.27.28 3.76-11.92 6.74-19.44.62-.11 1.27-.2 1.93-.27 3.46-.43 5.65 1.19 5.76 2.1 0 0 1.1 0 .66-1.07-.67-1.65-2.7-3.55-6.6-3.07l-.9.12c.51-1.45.8-2.54.73-3.08-.39-3.19-3.54-3.92-3.43-3 .12 1.04-.67 3.6-1.87 6.77-1.08.26-2.72.6-4.59.83a7.2 7.2 0 01-4.8-.92c-.58-.4-1.05-.12-.55.94.63 1.2 2.07 2.44 5.53 2 1.25-.15 2.4-.29 3.49-.49-1.19 3.02-2.56 6.29-3.69 9.18a9.5 9.5 0 01-5.6 4.87c-.63-6.5.71-6.67.5-8.37-.21-1.8-2.44-2.97-3.23-3.45-.61-.37-.86 1.26-.95 2.04-.3 1.93-1.84 5-2.7 6.72a.98.98 0 00-.08.2c-1.89 3.82-3 6.15-4.43 6.32-.15.02-.51-.06-.62-.14.84-1.45 1.28-2.54 1.21-3.1-.32-2.66-3.27-1.14-2.96 1.42.14 1.14.51 1.9.51 1.9s-2.94 4.15-4.78 4.37c-2.72.34 1.23-11.57 6.4-12.2 1.4-.18 1.6-.66 1.45-.86-.94-1.23-2.33-2.25-4.07-2.03-3.4.42-8.65 7.26-7.97 12.92.4 3.35 2.57 3.72 3.82 3.57l.3-.04c.04-.04.1-.05.16-.05.03 0 .06-.01.1-.05 1.32-.36 2.64-1.45 3.78-2.76.1.44.35 1.1.96 1.79-.1 1.07-.24 2.18-.45 3.1-.79-1.05-2.14-1.78-4.17-1.53-2.3.28-4.9 1.63-7.6 4.12-.18.15-.36.3-.53.47-.33-.78-.57-1.73-.71-2.89-.66-5.46 2.81-11.8 4.05-13.62 1.2-1.78-1.48-3.31-2.03-3.7-.58-.37-.9.15-1.3.46-.62.46-4.5 3.15-4.5 3.15s1.6-2.85 2.58-5.5a7.9 7.9 0 001.26-5.88c-1.23-6.03-8.1-6.79-13.09-6.17C9.91 16.74-1.23 22.54.11 29.7c.93 4.57 3.7 6.25 5.97 5.96 1.13-.14-.8-.92-.8-.92s-1.16-.44-1.57-2.47c-1.18-5.85 6.38-14.3 14.73-15.33 2.9-.36 7.11.43 7.87 4.06.14.7.15 1.47.01 2.29a9.15 9.15 0 00-3.15 5.64 15.95 15.95 0 01-6.43 3.75s3.07-5.74 2.7-7.75c-.44-2.06-3.4-2.95-3.22-2.04.47 2.35-9.48 16.86-8.9 21.67.33 2.75 1.49 3.98 2.2 3.9.72-.1.5-.65.38-1.6-.23-1.92 5.02-10.88 5.02-10.88s4.88-.51 8.53-2.66c.64 1.98 1.83 2.18 2.55 2.09 1.77-.22 3.3-.96 4.15-1.48-1.21 2.5-3.37 7.67-2.84 12.12a9.92 9.92 0 002.48 5.67 39.8 39.8 0 00-4.67 6.83c-.42.72-.8 1.5-1.06 2.21-.33.72-.87 1.97-1.16 2.78a20.26 20.26 0 00-1.22 6.08c-.1 7.27 4.1 9.89 8.71 9.31 5.71-.7 9.58-3.44 12.14-6.33.56 1.75 2.22 2.7 3.21 2.57 1.15-.14 4.52-5.3 4.52-5.3s-.4 1.23-.3 1.99c.1.79 1.58 2.6 2.86 2.43 2.65-.33 7.54-9.27 8.61-11.32l.08-.12c.7-1.27 1.35-2.67 1.85-3.79.03.29.08.44.08.44.95 3.1.74 6.9.74 6.9s-4.75 1.55-4.42 4.24C60 72.7 62.43 73.1 63.14 73c1.66-.2 4.53-1.59 4.03-6.27l-.03-.22a11.5 11.5 0 003.35-1.7c-.9 2.2-1.46 3.92-1.37 4.72.25 2.09 3.06 3.06 2.91 1.82-.36-2.97 8.83-13.66 8.83-13.66s-3.7 7.16-3.47 8.99c.22 1.83 1.41 4.38 3.44 4.13 2.84-.35 8.47-10.58 9-11.67.56-1.13-.41-1.33-.8-.58-2.26 4.55-6.53 10.37-7.46 10.49-2.94.36 3.44-9.76 3.25-11.31-.18-1.52-.84-3.26-2.12-3.1-1.27.15-7.8 8.27-7.8 8.27s6.61-12.1 6.3-14.76c-.32-2.62-2.91-3.62-2.84-2.98.28 2.3-3.88 10.58-6.72 16.96a9.53 9.53 0 01-4.63 3.3c-.63-6.5.71-6.66.5-8.37-.21-1.8-2.44-2.97-3.23-3.44-.61-.38-.86 1.26-.95 2.04-.28 1.78-1.6 4.54-2.5 6.3a.95.95 0 00-.06.11c-2.23 4.54-6.28 10.34-7.25 10.46-1 .12 1.54-3.56 1.26-5.87-.28-2.3-2.9-2.46-2.48-1.94.38.53-5.2 8.57-5.95 8.67-2.25.27 4.75-11.5 8.4-11.95.68-.09-.94-3.29-2.78-3.06-3.18.4-8.93 8.22-9.57 12.37a18.16 18.16 0 01-12.17 6.82c-2.62.32-4.69-1.1-4.64-5.17l-.02-.7c.08-2.7 1.45-6.34 2.7-9.13.24-.6.78-1.6.95-2 .26-.46.52-.94.79-1.39.68-1.14 1.5-2.27 2.5-3.42a38.3 38.3 0 011.47-1.61c.73.15 1.45.19 2.11.1 3.27-.4 3.84-2.75 3.84-2.75s-.38-.6-.66.02z"/></svg>