<svg xmlns="http://www.w3.org/2000/svg" fill="none" viewBox="0 0 32.92 30.05"><path fill="url(#a)" fill-rule="evenodd" d="M13.22 28.27a3.44 3.44 0 0 0 5.89.23L32.35 8.3A3.44 3.44 0 0 0 29.87 3L3.84.02A3.44 3.44 0 0 0 .44 5.1z" clip-rule="evenodd"/><path fill="url(#b)" fill-rule="evenodd" d="M13.22 28.27a3.44 3.44 0 0 0 5.89.23L32.35 8.3A3.44 3.44 0 0 0 29.87 3L3.84.02A3.44 3.44 0 0 0 .44 5.1z" clip-rule="evenodd"/><path fill="url(#c)" d="m15.14 24.39-1.17 1.77c-.48.71-1.54.67-1.96-.08l1.21 2.2a3.44 3.44 0 0 0 5.88.22L32.36 8.3A3.44 3.44 0 0 0 29.88 3L3.84.02A3.44 3.44 0 0 0 .44 5.1l.1.19L22.7 7.85a1.91 1.91 0 0 1 1.37 2.95z"/><defs><linearGradient id="a" x1="21.37" x2="22.49" y1="-17.48" y2="20.61" gradientTransform="translate(-3.29 -.74)" gradientUnits="userSpaceOnUse"><stop offset=".99" stop-color="#6D4AFF"/></linearGradient><linearGradient id="b" x1="21.59" x2="12.28" y1="-12.2" y2="27.87" gradientTransform="translate(-3.29 -.74)" gradientUnits="userSpaceOnUse"><stop offset=".48" stop-color="#24ECC6" stop-opacity="0"/><stop offset=".99" stop-color="#24ECC6"/></linearGradient><linearGradient id="c" x1="24.67" x2="4.03" y1="32.27" y2="-3.03" gradientTransform="translate(-3.29 -.74)" gradientUnits="userSpaceOnUse"><stop offset=".07" stop-color="#ABFFEF"/><stop offset=".45" stop-color="#CAC9FF"/><stop offset="1" stop-color="#6D4AFF"/></linearGradient></defs></svg>