<svg xmlns="http://www.w3.org/2000/svg" width="75.962" height="75.962" viewBox="58.919 358.337 75.962 75.962"><path d="M131.641 366.817c0-4.68-3.8-8.48-8.5-8.48s-8.5 3.8-8.5 8.48v.27l-36.97 11.91c-2.64-3.88-7.92-4.9-11.8-2.25-3.87 2.63-4.88 7.9-2.24 11.8 1.6 2.37 4.3 3.76 7.2 3.7.86 0 1.74-.16 2.57-.45l24.3 30.68a8.49 8.49 0 004.48 11.14c4.3 1.84 9.3-.17 11.13-4.48 1.44-3.4.52-7.36-2.3-9.77l12.92-44.14c4.36-.4 7.7-4.07 7.67-8.45zm-26.26 50.36c-1.3.02-2.6.34-3.76.94l-23.73-30.04a8.43 8.43 0 001.2-3.53l37.78-12.06c.4.43.83.83 1.3 1.2l-12.75 43.47h-.04z" fill="#5fb364"/></svg>