<svg xmlns="http://www.w3.org/2000/svg" fill="none" viewBox="0 0 498 632"><path fill="url(#a)" d="M0 466v164h115V473a58 58 0 0 1 17-40 57 57 0 0 1 41-17h117a207 207 0 0 0 0-415H0v205h115v-97h168a98 98 0 0 1 69 29 98 98 0 0 1 29 69 98 98 0 0 1-29 70 98 98 0 0 1-69 29H161a160 160 0 0 0-62 12 161 161 0 0 0-52 35 161 161 0 0 0-35 52 161 161 0 0 0-12 61Z"/><path fill="url(#b)" d="M172 416a172 172 0 0 0-121 50C18 499 0 543 0 588v42h115V473a58 58 0 0 1 17-40 57 57 0 0 1 40-17Z"/><defs><radialGradient id="a" cx="0" cy="0" r="1" gradientTransform="matrix(632.616 0 0 633.388 499 -86)" gradientUnits="userSpaceOnUse"><stop stop-color="#A995FF"/><stop offset="1" stop-color="#6652F5"/></radialGradient><linearGradient id="b" x1="86.3" x2="86.3" y1="599.3" y2="358.5" gradientUnits="userSpaceOnUse"><stop stop-color="#6D4BFD"/><stop offset="1" stop-color="#1C0554"/></linearGradient></defs></svg>