<svg xmlns="http://www.w3.org/2000/svg" width="22.817" height="22.817"><g fill="#505061"><path d="M11.408 0S4.558-.22 3.145 7.248v5.086s.058.545 1.616 1.65c1.558 1.106 5.59 4.219 6.647 4.219 1.056 0 5.09-3.113 6.646-4.22 1.558-1.104 1.617-1.65 1.617-1.65V7.248C18.258-.221 11.408 0 11.408 0zm4.69 10.02h-9.38V7.247c.951-3.708 4.69-3.76 4.69-3.76s3.738.052 4.69 3.76z"/><path d="M11.408 19.347s-1.062-.102-1.893-.67c-.83-.566-6.37-4.456-6.37-4.456v7.7s.047.896 1.05.896H18.62c1.004 0 1.05-.895 1.05-.895v-7.7s-5.539 3.89-6.37 4.456c-.83.567-1.892.67-1.892.67z"/></g></svg>