<svg xmlns="http://www.w3.org/2000/svg" viewBox="0 0 44.28 44.1"><defs><linearGradient id="a" x1="-47" x2="85" y1="-44" y2="88" gradientUnits="userSpaceOnUse"><stop offset="0" stop-color="#73c596"/><stop offset="1" stop-color="#0b7487"/></linearGradient></defs><path fill="url(#a)" d="M27.46 28.47h3.49a10.92 10.92 0 0 1-11.1 4.02l-4 6.36 1.88-7.07h-.01l.65-2.48a8.35 8.35 0 0 0 9.09-.83m-7.2-4.7-3.31-1.75 9.7-3.55.04-.03-.02.02h.02l-.03.01-5.25 8.9Zm-8.93-1.89c0-.6.07-1.2.17-1.78l-6.14-4.7 6.75 2.48 2.36.85a8.32 8.32 0 0 0 1.28 8.45v3.42a10.86 10.86 0 0 1-4.42-8.72m18.42 3.82a8.34 8.34 0 0 0-1.54-9.75v-3.2a10.88 10.88 0 0 1 4.72 11.48l6.38 4.18-7.12-2.03v.01ZM28.07 4.82l-1.68 7h.02l-.6 2.48a8.33 8.33 0 0 0-9.51 1.67l-3.12-.14a10.94 10.94 0 0 1 11.1-4.65ZM0 22.04A22.1 22.1 0 0 0 22.14 44.1a22.1 22.1 0 0 0 22.14-22.06A22.1 22.1 0 0 0 22.14 0 22.1 22.1 0 0 0 0 22.04"/></svg>
