<svg xmlns="http://www.w3.org/2000/svg" xmlns:xlink="http://www.w3.org/1999/xlink" width="44.276" height="44.276" viewBox="19 13.287 44.276 44.276" overflow="visible"><g transform="translate(-66.651 -8.691)"><defs><path id="a" d="M113.107 50.545h3.493c-2 2.609-5.143 4.303-8.683 4.303-.833 0-1.645-.101-2.424-.281l-3.986 6.354 1.869-7.072c-.002 0-.004 0-.006-.002l.646-2.479a8.346 8.346 0 003.901.976 8.391 8.391 0 005.19-1.799m-7.194-4.699l-3.314-1.755 9.696-3.547.044-.035-.016.024.016-.006-.024.021-5.254 8.896zm-8.928-1.892c0-.61.063-1.204.163-1.786l-6.139-4.697 6.757 2.484.002-.007 2.354.853a8.317 8.317 0 001.279 8.455l-.008 3.417c-2.669-1.987-4.408-5.152-4.408-8.719m18.417 3.817a8.265 8.265 0 00.934-3.817 8.344 8.344 0 00-2.478-5.938v-.65l-.002-2.545c3.001 1.945 4.994 5.308 4.994 9.133 0 .81-.095 1.598-.27 2.354l6.381 4.178-7.115-2.037-.005.014zm-1.677-20.877l-1.682 6.992c.005 0 .009.002.013.003l-.589 2.481a8.328 8.328 0 00-3.549-.805c-2.332 0-4.444.95-5.97 2.481l-3.115-.14a10.935 10.935 0 019.085-4.847c.689 0 1.359.073 2.011.198zM85.651 44.116c0 12.182 9.912 22.057 22.138 22.057 12.225 0 22.138-9.874 22.138-22.057 0-12.185-9.913-22.056-22.138-22.056-12.227 0-22.138 9.872-22.138 22.056"/></defs><clipPath id="b"><use xlink:href="#a" overflow="visible" width="100%" height="100%"/></clipPath><linearGradient id="c" gradientUnits="userSpaceOnUse" x1="30.418" y1="134.116" x2="30.919" y2="134.116" gradientTransform="rotate(45 135268.474 23200.26) scale(763.5151)"><stop offset="0" stop-color="#73c596"/><stop offset=".493" stop-color="#0b7487"/><stop offset="1" stop-color="#2e2e4a"/></linearGradient><path clip-path="url(#b)" fill="url(#c)" d="M152.061 44.117L107.789 0 63.517 44.117l44.272 44.115z"/></g></svg>