<svg xmlns="http://www.w3.org/2000/svg" class="header-logo pru-logo" width="38.924" height="38.924"><path d="M28.25 11.122l-8.763-5.07-3.19-.576v2.32l2.468 2.278-3.406-.314c.026.079 1 1.139 2.95 3.184l12.903 2.149 2.28 1.481-5.914.3-2.418 8.883-7.99 5.332h-5.217l1.748-3.472-.279-.119-4.685 3.591H7.61l4.799-6.761c.05-.459.177-1.966.38-4.506l-.722-1.022-1.925 7.452L6.13 31.09H5.103l2.38-3.367 3.33-10.245-.784.431-1.507 4.035-1.013.566-3.647 8.62C1.279 27.447 0 23.373 0 18.917 0 14.043 1.798 9.76 5.407 6.012 9.269 2.042 14.03.04 19.702.04c5.09 0 9.472 1.717 13.131 5.122 2.9 2.698 4.698 5.582 5.369 8.662zm7.913.879c-1.19-3.027-3.241-5.542-6.166-7.533-3.102-2.124-6.534-3.172-10.295-3.172-5.28 0-9.737 1.861-13.346 5.595-3.33 3.511-4.988 7.506-4.988 12.027 0 3.446.823 6.656 2.481 9.603l4.926-13.193c1.038-.538 1.545-.76 1.545-.68l2.203-5.595 1.405-.76 1.773-3.709 3.862.604 7.787 4.35zm-1.658 20.005c-1.697 2.16-3.926 3.864-6.699 5.095a19.617 19.617 0 01-8.205 1.783c-6.217 0-11.193-2.292-14.954-6.878zm-6.167-6.249l-2.849 5.332h-2.71l5.027-6.315zm7.268-5.673l-1.823 4.244-1.659 1.429-3.292 5.332h-2.165l2.165-3.814 1.697-1.401 2.456-6.851zM32.34 18.8l-2.38 4.466-1.279.225.33-2.609-.33-.536.33-2.91zm6.585 2.424c-.24 3.55-1.456 6.838-3.634 9.865h-4.343l4.115-6.539 1.266-4.23z" fill="#07639d"/></svg>