<svg xmlns="http://www.w3.org/2000/svg" width="81.66" height="81.66"><path d="M40.83 81.66c-16.36-9.74-37-23.88-37-48.86V6.43C11.38 3.57 23.04 0 40.83 0c18 0 30.35 3.89 37 6.43V32.8c0 25.2-21.43 39.7-37 48.86z" fill="#fff"/><path d="M51.97 47.5c0-.56.46-1.43.46-2.2 0-.77-1.13-1.22-2-1.34-1.85-.26-2.47-.17-2.47-.58 0-.41.25-.58.59-1.06a3.49 3.49 0 012.28-1.07A19.22 19.22 0 0153.7 41a16.18 16.18 0 012.77.27c1.13.2 1.31.67 1.31 1.2V43c0 .54-.44.82-1.23 1l-.61.12c-.57.12-1.28.23-1.53 1-.54 1.55-1.48 2.77-2.18 2.74-.13-.04-.26-.13-.26-.36zm1.63-25c-.07 0-.31-.13-.31-.37s.2-.55.6-1.09c.93-1.24 2.2-2.77 2.67-2.77.23 0 .37.16.65.69a3.13 3.13 0 01.31 1.35 6.92 6.92 0 01-1.45 4.12 12.16 12.16 0 00-2.47-1.98zm-27.19 3.03c.42 0 .74-.28 1.36-1 1.41-1.56 2.77-1.77 2.77-2.43a1.81 1.81 0 00-.39-.9 58 58 0 01-3-5.3c-.32-.62-.74-1-1.07-1-.51 0-1.06.6-1.38 1.12a4.85 4.85 0 00-.87 2.3 16.23 16.23 0 00.75 4.52c.46 1.43 1.19 2.69 1.83 2.69zm16.9 5.41a2.82 2.82 0 00-3-2.38A3.66 3.66 0 0037 30.82a3.42 3.42 0 002.41 2.1c.22.07.43.07.43.26s-.27.39-.85.39a4.17 4.17 0 01-3.41-1.39 13.24 13.24 0 01-1.71.28c-.56 0-.81-.36-.81-.86a2.51 2.51 0 01.28-1.07l.3-.6a5.49 5.49 0 012.4-2.76l1-.57a4.88 4.88 0 012.79-.69h.83a3.6 3.6 0 012.63.89c1.21 1 1.88 1.57 1.88 2.32a3.37 3.37 0 01-.72 2.37 3 3 0 01-2 1.26c-.15 0-.2-.09-.2-.17 0-.08.13-.17.26-.28a3.11 3.11 0 00.8-1.36zm8.13 25.94a15.15 15.15 0 01-3.71.23c-4.2 0-4.91-1-4.91-1.85 0-1.37 6-2.33 8.39-2.33 2.39 0 3.28.73 3.28 1.29s-1.03 2.17-3.05 2.66zM27.21 69.17a132 132 0 0013.62 9.16c0-4.11-.09-6.54 2.69-9.45l3.31-3.47c.79-.82 1.43-1.43 1.81-1.43.38 0 .38.14.38.5a8.42 8.42 0 001 3.33 4.17 4.17 0 003.07 2.38c11.93-9 21.9-20.73 21.9-37.45V8.38c-2.94-1-15-5.63-34.2-5.63-19.2 0-31.21 4.63-34.16 5.63v24.36a38.63 38.63 0 005.11 19.36c.31-3.39 2.6-5 2.6-8.32 0-2.32-.66-3.78-.66-5.73 0-3.51 4.75-10.73 7.21-13.68.07-.08.23-.29.43-.29a.5.5 0 01.41.29c.25.38.36.58.63.58s.37-.15.37-.39a20.66 20.66 0 01-.7-5.62c0-2.79.64-3.38 2.38-5.08a3.86 3.86 0 012.21-1.25c1 0 1.54.61 2.18 1.26 1.07 1.09 2.57 3 2.81 3.33a.34.34 0 00.28.16c.49 0 .91-.15 3.06-.15a51.38 51.38 0 0112.88 1.61 21.93 21.93 0 002.3.86c.2 0 .22-.13.22-.23s-.42-.52-.42-.79a.46.46 0 01.29-.38c2.26-1.22 4.2-2.14 6-2.14 1 0 1.54.89 2 1.77a6 6 0 01.7 2.56 7.89 7.89 0 01-1.64 4.88c.35.36.84.9 1.14 1.26A4 4 0 0159.5 29a8.06 8.06 0 01-.29 1.43c0 .21-.23.63-.59.62-.36-.01-.42-.36-.43-.68v-.24a3.67 3.67 0 00-3.09-3.58h-.27a3.11 3.11 0 00-2.42 1 2.32 2.32 0 00-.75 1.7 4.78 4.78 0 00.67 1.69c.23.45.81 1.53 1.12 2.08a1.14 1.14 0 001 .65c1 0 1.83-.13 1.83-.42 0-.08-.05-.15-.18-.15h-.27c-1.28 0-2-1.62-2.59-3.09a2.7 2.7 0 012-1 2 2 0 012.1 2 3 3 0 01-.27 1.22.53.53 0 00-.07.23c0 .17.21.21.56.29l.5.12a1.48 1.48 0 01.94.88l.42 1.15a8 8 0 01.55 2.64 7.77 7.77 0 01-.38 2.58 14.61 14.61 0 00-.63 2.79 4.57 4.57 0 01.21.46 5.59 5.59 0 01.5 2.21v.75a5.62 5.62 0 01-1.21 3.42c-.48.66-1.18 1.59-1.58 2.1a1.35 1.35 0 01-1 .54 2.58 2.58 0 01-.63-.12l-1-.25a2 2 0 01-1.42-1.57l-.21-.53c-.21-.52-.32-.86-.65-.86s-.47.16-.71.52a3.9 3.9 0 01-2.81 2.12c-.53.13-1.59.35-2.18.48a20.2 20.2 0 01-3.44.62h-.6a4.65 4.65 0 01-3.63-2.09c-2.11-2.51-1.89-2.87-2-6.27 0-.38-.14-.85-.53-.85s-.51.72-.64 1.74c-.15 1.2-.43 2.45-1 2.45a4 4 0 01-1.32-.27l-3.68-1.23c-1.36-.45-2.67-.81-3.2-2l-.94-2.18c-.16-.39-.28-.59-.53-.59s-.45.43-.49.77c-.04.34-.14 1.28-.19 1.83a7.69 7.69 0 01-1.68 4.7c-.46.6-.9 1.22-1.4 1.89a7.94 7.94 0 00-1.65 5.51v1.65c.08 3.96 1.1 5.92 7.86 11.31z" fill="#1e407c"/><path d="M59 33.7l.42 1.15a8 8 0 01.55 2.64 7.77 7.77 0 01-.38 2.58 14.61 14.61 0 00-.63 2.79c-.11-.23-2.17-3.78-2.32-4.07a1.81 1.81 0 01-.29-.9c0-.36.15-.58.59-.86.26-.16.61-.36.84-.48a2 2 0 001.31-1.93 5.85 5.85 0 00-.09-.92zm-9 5.68a2.56 2.56 0 01.2.83 1.21 1.21 0 01-.42 1c-.18.15-.38.32-.55.49a1.89 1.89 0 00-.73.6c-.34.48-.59.78-.59 1.06a.24.24 0 00.09.2 1.45 1.45 0 01-.57-1.18c0-.38.12-.57.12-.92a2.76 2.76 0 00-.13-.76c-.57-1.91-1.53-4.18-2.13-5.72-.6-1.54-1.07-2.44-1.75-2.44-.38 0-.72.19-1.12.19a3 3 0 002-1.26 3.37 3.37 0 00.72-2.37 1.55 1.55 0 00-.43-1 11.38 11.38 0 012 3.24c1.28 2.74 2.39 5.72 3.33 8.04zM19.34 57.81v-1.65a7.94 7.94 0 011.65-5.51c.5-.67.94-1.29 1.4-1.89a7.69 7.69 0 001.68-4.7c.05-.55.14-1.44.19-1.83.05-.39.12-.77.49-.77s.37.2.53.59l.94 2.18c.53 1.21 1.84 1.57 3.2 2l3.68 1.23a4 4 0 001.32.27c.59 0 .87-1.25 1-2.45.13-1 .28-1.74.64-1.74s.52.47.53.85c.13 3.4-.09 3.76 2 6.27a4.65 4.65 0 003.63 2.09 1.71 1.71 0 01-1-1.78v-1.2a4.72 4.72 0 01.37-1.94c.15-.33.31-.93.47-1.29a2 2 0 00.14-1.22 7.09 7.09 0 00-.52-2c-.19-.57-.44-1.4-.69-2.08-.76-2.13-1.07-2.63-3.62-3l-5.14-.72c-2.86-.41-5.1-.54-6.26-2.46-1.4-2.3-1.25-5.06-2.59-5.06-.64 0-1 .71-1 1.75s.42 2.85.42 5.92c0 2.65-.25 3.38-1.8 5.34-.4.5-.94 1.25-1.28 1.68-1.15 1.44-1.66 2.26-1.59 3.94a56.83 56.83 0 001.21 9.18zM48.5 68c.09-1.07.56-2.84.56-3.56 0-.36-.12-.5-.38-.5s-1 .61-1.81 1.43l-3.34 3.51c-2.78 2.91-2.65 5.34-2.69 9.45 3.09-1.86 5.92-3.66 8-5.09A16.28 16.28 0 0148.5 68z" fill="#96bee6"/></svg>