<svg xmlns="http://www.w3.org/2000/svg" viewBox="0 0 75.6 43.3"><path fill="#231f20" d="M0 40.3a3 3 0 0 0 3 3 3 3 0 0 0 3-3V34h5a11 11 0 0 0 11.3-11c0-3-1-5.8-3-7.8a12 12 0 0 0-8.4-3.2H3a3 3 0 0 0-3 3m16.3 8c0 3.2-2.3 5.5-5.5 5.5H6v-11h4.6c4.2 0 5.7 2.9 5.7 5.6m15 17.2a3 3 0 1 0 6.1 0V17.8h5.8a2.9 2.9 0 0 0 2.9-3c0-1.5-1.3-2.8-3-2.8H25.8a2.9 2.9 0 0 0-3 2.9 2.9 2.9 0 0 0 3 2.9h5.7"/><path fill="#ec1d24" d="M73.4 18.2a3.7 3.7 0 0 0 2.2-3.3 4 4 0 0 0-2.2-3.4L47.2.2a3 3 0 0 0-4 1.6 3 3 0 0 0 1.7 4l21 9-21 9.2a3 3 0 0 0-1.6 4 3 3 0 0 0 4 1.5"/></svg>