<svg xmlns="http://www.w3.org/2000/svg" viewBox="0 0 147.337 43.456" xmlns:v="https://vecta.io/nano"><path d="M71.757 40.304c0 1.67 1.35 3.02 3.018 3.02a3.02 3.02 0 0 0 3.022-3.02v-6.269h5.025c6.305 0 11.246-4.822 11.246-10.975 0-3.036-1.091-5.815-3.07-7.827-2.089-2.12-4.96-3.241-8.309-3.241h-7.914a3.02 3.02 0 0 0-3.018 3.022m16.271 8.046c0 3.172-2.303 5.473-5.475 5.473h-4.756V17.497h4.58c4.166 0 5.651 2.873 5.651 5.563m15.121 17.244a3.02 3.02 0 1 0 6.04 0v-22.54h5.736a2.89 2.89 0 0 0 2.886-2.885c0-1.596-1.294-2.887-2.886-2.887H97.413c-1.593 0-2.886 1.291-2.886 2.887a2.89 2.89 0 0 0 2.886 2.885h5.736" fill="#231f20"/><path d="M145.136 18.235a3.66 3.66 0 0 0 2.201-3.356c0-1.504-.909-2.795-2.204-3.358L119.007.249c-1.53-.663-3.309.043-3.968 1.575a3.02 3.02 0 0 0 1.575 3.969l21.046 9.086-21.046 9.085a3.02 3.02 0 0 0-1.575 3.969 3.02 3.02 0 0 0 3.968 1.575" fill="#ec1d24"/><g fill="#231f20"><path d="M32.999 14.731c0-1.61-1.192-2.736-2.895-2.736h-2.355c-.254 0-.568 0-.812.244s-.244.558-.244.813v6.577c0 .41.014.549.118.757.135.257.425.414.757.414s.619-.157.756-.414c.104-.208.115-.347.115-.757v-2.163h1.665c1.703 0 2.895-1.123 2.895-2.735m-1.751 0c0 .707-.5 1.182-1.244 1.182h-1.565v-2.365h1.565c.756 0 1.244.464 1.244 1.183m9.032 3.014v-4.632c0-.408-.015-.549-.117-.754-.139-.257-.426-.413-.757-.413s-.619.156-.758.413c-.103.205-.118.346-.118.754v4.569c0 .982-.565 1.59-1.477 1.59s-1.476-.608-1.476-1.59v-4.569c0-.408-.016-.549-.118-.754-.138-.257-.428-.413-.757-.413s-.619.156-.757.413c-.104.205-.119.346-.119.754v4.632c0 1.783 1.357 3.079 3.227 3.079s3.227-1.296 3.227-3.079m2.208 3.006h2.627c1.665 0 2.7-.968 2.7-2.528 0-1.201-.731-1.742-1.19-1.96a2.05 2.05 0 0 0 1.067-1.801c0-.745-.249-1.368-.719-1.797-.476-.438-1.17-.67-2.006-.67h-2.479c-.254 0-.572 0-.816.244s-.244.558-.244.814v6.641c0 .254 0 .569.244.813s.562.244.816.244m.691-1.553V17.09h1.764c.83 0 1.121.539 1.121 1.046 0 .513-.291 1.062-1.121 1.062h-1.764zm0-3.677v-1.973h1.653c.687 0 1.112.377 1.112.987s-.425.986-1.112.986h-1.653zm6.659 5.23h3.642c.37 0 .51-.014.677-.098.227-.121.371-.38.371-.679s-.144-.559-.371-.678c-.167-.084-.307-.099-.677-.099h-2.95v-6.084c0-.408-.017-.546-.119-.753-.138-.257-.428-.415-.756-.415s-.62.158-.757.415c-.105.205-.119.345-.119.753v6.58c0 .254 0 .571.242.815s.563.243.817.243"/><path d="M56.439 20.8c.331 0 .621-.157.759-.414.101-.207.116-.347.116-.756v-6.516c0-.409-.015-.546-.116-.754-.138-.257-.428-.414-.759-.414s-.619.157-.757.414c-.103.205-.118.345-.118.754v6.516c0 .409.015.549.121.756.135.257.425.414.754.414m5.098.024c1.007 0 1.679-.236 2.245-.79.556-.53.754-1.148.754-1.518 0-.299-.069-.498-.231-.663-.158-.157-.361-.237-.608-.237-.188 0-.382.059-.5.152-.155.121-.29.315-.428.613-.272.609-.676.891-1.271.891a1.31 1.31 0 0 1-1.02-.461c-.35-.401-.425-.836-.425-2.439s.075-2.035.422-2.438c.273-.305.617-.461 1.023-.461.595 0 .999.284 1.271.893.138.297.273.49.428.61.118.095.312.153.5.153.247 0 .45-.079.608-.239s.231-.36.231-.662c0-.368-.198-.986-.754-1.518-.566-.554-1.238-.787-2.245-.787-.943 0-1.728.308-2.335.922-.859.859-.9 1.798-.9 3.527s.041 2.668.9 3.528c.607.613 1.392.924 2.335.924M6.021 23.427c-.164-.087-.307-.102-.674-.102H1.046c-.367 0-.509.015-.675.102-.229.119-.371.378-.371.678s.142.56.371.676c.166.087.308.098.675.098h1.276v6.085c0 .408.015.549.119.757.136.253.426.41.755.41s.619-.157.757-.41c.104-.21.118-.349.118-.757v-6.085h1.276c.367 0 .508-.011.674-.098.231-.116.37-.376.37-.676s-.139-.559-.37-.678m7.456 2.582c0-1.578-1.172-2.683-2.851-2.683H8.243c-.254 0-.57 0-.814.244s-.246.561-.246.817v6.577c0 .408.015.549.12.757.137.253.427.41.757.41s.618-.157.755-.41c.104-.21.119-.349.119-.757v-2.351h1.167l1.613 2.815c.217.377.403.703.873.703a.93.93 0 0 0 .461-.136c.275-.154.444-.438.429-.726-.011-.21-.087-.358-.275-.695l-1.295-2.254c.984-.404 1.57-1.266 1.57-2.311m-1.737.005c0 .677-.483 1.128-1.206 1.128h-1.6v-2.263h1.6c.732 0 1.206.446 1.206 1.135"/><path d="M18.868 24.072c-.118-.304-.21-.456-.355-.581-.167-.147-.353-.213-.624-.213s-.454.066-.623.213c-.142.125-.237.277-.353.581l-2.518 6.677c-.172.457-.259.783.045 1.114a.85.85 0 0 0 .625.268.74.74 0 0 0 .485-.162c.152-.128.221-.268.367-.65l.283-.777h3.381l.283.777c.143.382.212.522.367.65.136.11.293.162.484.162a.85.85 0 0 0 .624-.268c.306-.331.217-.657.046-1.114m-2.35-1.678h-2.291l1.145-3.098 1.146 3.098zm9.146-5.793c-.331 0-.621.159-.756.413-.103.207-.118.348-.118.756v4.155l-3.07-4.532c-.366-.536-.61-.792-1.019-.792-.256 0-.474.092-.656.271-.196.203-.237.47-.237.811v6.604c0 .408.014.548.121.756.135.254.425.411.754.411s.621-.157.757-.411c.103-.21.118-.348.118-.756v-4.158l3.075 4.534c.349.526.603.791 1.011.791a.88.88 0 0 0 .656-.268c.198-.198.237-.459.237-.815v-6.601c0-.408-.015-.549-.118-.756-.138-.254-.429-.413-.755-.413m5.709 3.676l-1.023-.148c-.367-.055-.595-.152-.798-.334-.167-.154-.244-.362-.244-.654 0-.476.345-1.035 1.324-1.035a2.72 2.72 0 0 1 1.367.342c.256.13.471.198.644.198a.66.66 0 0 0 .523-.24c.126-.154.201-.358.201-.536 0-.344-.259-.66-.709-.868a4.36 4.36 0 0 0-1.978-.425c-.918 0-1.692.259-2.239.746-.534.476-.817 1.141-.817 1.917 0 .747.206 1.31.629 1.721.401.389.943.621 1.701.732l1.04.155c.394.058.618.145.775.295.169.164.259.411.259.718 0 .694-.544 1.077-1.532 1.077-.67 0-1.063-.144-1.646-.451-.335-.179-.507-.234-.701-.234-.201 0-.358.063-.491.196-.142.142-.236.37-.236.567 0 .5.321.752.88 1.016.696.331 1.264.447 2.175.447.917 0 1.739-.244 2.317-.694.614-.477.94-1.157.94-1.968s-.229-1.435-.679-1.856c-.377-.358-.897-.571-1.682-.684m6.84-3.628h-2.352c-.254 0-.57 0-.814.244s-.245.56-.245.816v6.577c0 .409.014.549.119.757.137.254.425.411.756.411s.62-.157.757-.411c.104-.21.117-.348.117-.757V28.8h1.662c1.704 0 2.896-1.126 2.896-2.735s-1.192-2.739-2.896-2.739m1.145 2.739c0 .705-.499 1.182-1.244 1.182h-1.563v-2.368h1.563c.757 0 1.244.465 1.244 1.186m5.61-2.812c-.969 0-1.734.305-2.352.924-.859.86-.898 1.801-.898 3.528s.039 2.669.898 3.528c.618.623 1.383.923 2.352.923s1.739-.3 2.353-.923c.858-.859.899-1.799.899-3.528s-.041-2.668-.899-3.528c-.614-.619-1.385-.924-2.353-.924m1.084 6.884c-.264.295-.658.467-1.084.467s-.82-.172-1.082-.467c-.314-.355-.418-.756-.418-2.432s.104-2.083.418-2.438c.254-.293.649-.46 1.082-.46s.83.167 1.084.46c.315.355.418.757.418 2.438s-.103 2.077-.418 2.432m9.415-4.128c0-1.578-1.173-2.683-2.852-2.683h-2.386c-.254 0-.568 0-.812.244s-.244.561-.244.817v6.577c0 .408.013.549.118.757.135.253.425.41.754.41s.622-.157.759-.41c.104-.21.116-.349.116-.757v-2.351h1.168l1.611 2.815c.218.377.406.703.873.703a.92.92 0 0 0 .462-.136c.276-.154.445-.438.433-.726-.014-.21-.088-.358-.278-.695L56.41 28.32c.986-.404 1.574-1.266 1.574-2.311m-1.739.005c0 .677-.485 1.128-1.208 1.128h-1.6v-2.263h1.6c.735 0 1.208.446 1.208 1.135m8.05-2.587c-.167-.087-.308-.102-.677-.102h-4.3c-.368 0-.508.015-.674.102-.231.119-.373.378-.373.678s.142.56.373.676c.166.087.306.098.674.098h1.276v6.085c0 .408.014.549.118.757.138.253.428.41.757.41s.618-.157.756-.41c.104-.21.119-.349.119-.757v-6.085h1.274c.369 0 .51-.011.677-.098.227-.116.369-.376.369-.676s-.142-.559-.369-.678M22.31 42.757c-.084.257-.164.408-.268.502-.135.13-.271.17-.455.17s-.319-.04-.452-.17c-.103-.094-.183-.245-.27-.502l-2.364-7.106c-.092-.281-.112-.404-.087-.556.055-.344.398-.483.638-.483.164 0 .271.047.372.139.119.105.179.228.271.501l1.892 5.819 1.893-5.819c.092-.273.152-.396.27-.501a.51.51 0 0 1 .374-.139c.239 0 .581.139.637.483.025.152.005.275-.087.556m2.224 7.479c-.097.179-.3.3-.563.3s-.464-.121-.564-.3c-.092-.172-.099-.276-.099-.6v-7.019c0-.324.007-.429.099-.6.1-.176.3-.299.564-.299s.466.123.563.299c.092.171.1.276.1.6v7.019c0 .324-.008.428-.1.6m1.992-7.655c.563-.564 1.297-.888 2.247-.888 1.098 0 1.753.331 2.284.9.491.527.667 1.089.667 1.401 0 .228-.055.375-.176.496a.63.63 0 0 1-.459.184c-.166 0-.299-.054-.394-.128-.141-.11-.225-.269-.324-.496-.317-.747-.802-1.182-1.621-1.182a1.66 1.66 0 0 0-1.258.546c-.458.495-.519 1.054-.519 2.712s.061 2.217.519 2.712c.319.344.742.547 1.258.547.819 0 1.304-.436 1.621-1.183.099-.228.183-.386.324-.494.095-.075.228-.131.394-.131.184 0 .331.063.459.184.121.122.176.269.176.497 0 .312-.176.876-.667 1.402-.531.57-1.186.901-2.284.901-.95 0-1.684-.326-2.247-.888-.847-.847-.878-1.715-.878-3.547s.031-2.702.878-3.545m11.458.275c-.133.072-.256.087-.539.087h-1.641v6.693c0 .323-.004.428-.096.6-.1.179-.303.3-.567.3s-.464-.121-.563-.3c-.092-.172-.097-.277-.097-.6v-6.693h-1.641c-.283 0-.406-.015-.541-.087-.16-.092-.269-.269-.269-.503a.56.56 0 0 1 .269-.503c.135-.073.258-.085.541-.085h4.605c.283 0 .406.012.539.085.16.092.271.271.271.503a.56.56 0 0 1-.271.503m.335 3.27c0-1.829.033-2.702.878-3.546.567-.562 1.298-.886 2.261-.886.955 0 1.688.324 2.255.886.844.844.883 1.717.883 3.546s-.039 2.7-.883 3.546c-.567.564-1.3.89-2.255.89-.963 0-1.694-.326-2.261-.89-.845-.846-.878-1.714-.878-3.546m3.139 3.259c.526 0 .974-.208 1.297-.552.431-.459.516-.981.516-2.707s-.085-2.255-.516-2.712c-.323-.345-.771-.547-1.297-.547-.532 0-.979.202-1.299.547-.434.457-.514.985-.514 2.712s.08 2.248.514 2.707c.32.344.767.552 1.299.552m4.116.251v-7.063c0-.196 0-.428.188-.616s.425-.192.619-.192h2.575c1.652 0 2.707 1.067 2.707 2.548 0 1.243-.755 2.04-1.728 2.316l1.561 2.724c.155.271.203.38.21.546.005.216-.099.411-.327.545-.108.067-.239.092-.355.092-.331 0-.484-.233-.654-.537l-1.821-3.187H49.26v2.824c0 .323-.005.428-.097.6-.099.179-.302.3-.563.3s-.467-.121-.565-.3c-.092-.172-.097-.277-.097-.6m1.322-6.693v2.743h1.96c.883 0 1.482-.503 1.482-1.358 0-.866-.599-1.385-1.482-1.385h-1.96zm7.247 7.293c-.097.179-.3.3-.563.3s-.467-.121-.564-.3c-.092-.172-.097-.276-.097-.6v-7.019c0-.324.005-.429.097-.6s.3-.299.564-.299.466.123.563.299c.092.171.097.276.097.6v7.019c0 .324-.005.428-.097.6m2.824-1.502l-.433 1.172c-.112.293-.167.404-.291.5-.097.08-.217.129-.36.129-.184 0-.368-.073-.484-.196-.251-.256-.172-.532-.043-.875l2.671-7.11c.092-.249.159-.356.264-.452.128-.124.275-.184.483-.184s.355.06.482.184c.105.096.172.203.264.452l2.671 7.11c.129.343.208.619-.043.875-.116.123-.3.196-.484.196a.55.55 0 0 1-.359-.129c-.124-.096-.179-.207-.291-.5l-.434-1.172m-1.806-4.94l-1.397 3.814h2.792l-1.395-3.814z"/></g></svg>