<svg xmlns="http://www.w3.org/2000/svg" xmlns:xlink="http://www.w3.org/1999/xlink" width="22.952" height="22.952" xmlns:v="https://vecta.io/nano"><defs><linearGradient x1=".886" y1="11.638" y2="11.638" id="A" x2="21.286" gradientUnits="userSpaceOnUse"><stop stop-color="#f50" offset="0%"/><stop stop-color="#f50" offset="40.988%"/><stop stop-color="#ff2000" offset="58.198%"/></linearGradient><linearGradient x1="2.098" y1="2.097" y2="2.097" id="B" x2="18.665" gradientUnits="userSpaceOnUse"><stop stop-color="#ff452a" offset="0%"/><stop stop-color="#ff2000" offset="100%"/></linearGradient><path d="M15.963 2.276L13.872 0H6.528L4.437 2.276s-1.836-.49-2.703.343c0 0 2.448-.212 3.29 1.1l2.575.417c.306 0 .969-.245 1.581-.44s1.02-.198 1.02-.198a3.78 3.78 0 0 0 1.02.197c.612.196 1.275.44 1.581.44s2.576-.415 2.576-.415c.841-1.313 3.289-1.101 3.289-1.101-.867-.832-2.703-.343-2.703-.343" id="C"/></defs><g transform="translate(.39)"><path d="M20.572 5.506l.561-1.321-1.581-1.566c-.867-.832-2.703-.343-2.703-.343L14.758 0H7.414L5.323 2.276s-1.836-.49-2.703.343L1.039 4.185 1.6 5.506.886 7.464l2.346 8.563c.485 1.835.816 2.545 2.193 3.475l4.284 2.79c.408.244.918.66 1.377.66s.969-.416 1.377-.66l4.284-2.79c1.377-.93 1.709-1.64 2.193-3.475l2.346-8.563z" fill="url(#A)"/><path d="M16.263 3.72s2.689 3.12 2.689 3.786-.338.843-.678 1.19l-2.018 2.054c-.19.195-.588.49-.354 1.02s.578 1.206.195 1.89-1.04 1.142-1.461 1.067-1.409-.571-1.772-.798-1.515-1.138-1.515-1.486 1.19-.975 1.41-1.117 1.223-.693 1.244-.91.012-.279-.284-.813-.829-1.246-.74-1.72.948-.721 1.562-.943l1.943-.708c.147-.065.11-.127-.338-.168s-1.716-.202-2.288-.05-1.549.386-1.628.51-.149.127-.068.553l.54 2.832c.041.362.12.602-.287.692l-1.33.244c-.236 0-.922-.155-1.33-.244s-.328-.33-.288-.692.46-2.406.54-2.832.012-.43-.067-.553-1.056-.356-1.628-.51-1.841.01-2.288.05-.485.103-.338.168 1.33.485 1.943.708 1.473.468 1.562.943-.444 1.186-.74 1.72-.304.598-.284.814 1.024.767 1.244.909 1.41.768 1.41 1.117-1.151 1.26-1.515 1.486-1.351.722-1.772.798-1.077-.382-1.46-1.067-.04-1.36.194-1.89-.163-.825-.354-1.02L3.898 8.696c-.34-.347-.678-.523-.678-1.19S5.91 3.72 5.91 3.72l2.575.416c.306 0 .969-.245 1.581-.44s1.02-.198 1.02-.198a3.78 3.78 0 0 0 1.02.197c.612.196 1.275.44 1.581.44s2.576-.415 2.576-.415zm-2.017 11.933c.167.1.065.289-.086.392a123.05 123.05 0 0 0-2.388 1.784c-.198.168-.488.444-.686.444s-.488-.276-.686-.444a123.206 123.206 0 0 0-2.388-1.784c-.151-.103-.253-.292-.086-.392s.687-.352 1.406-.709 1.614-.66 1.754-.66 1.035.303 1.754.66l1.406.71z" fill="#fff"/><use fill="url(#B)" xlink:href="#C" x=".886"/></g></svg>