<svg xmlns="http://www.w3.org/2000/svg" xml:space="preserve" width="83.229" height="83.229"><path d="m44.2 63.815 5.6-13.2h9.3c13.4 0 18.5-5.5 22.1-13.8 1.3-3.1 3.5-8.2.6-12.6s-9-4.8-13.3-4.8H19.1l-7 16.3H21l-5 11.7H7l-7 16.4z" fill="#cfb991"/><path d="M79.2 25.915c-1.6-2.4-5-3.5-10.8-3.5H21.1l-4.3 10.3h8.9l-7.5 17.7h-9l-4.4 10.3h37.4l4.4-10.3h-9.1l1.2-2.9h20.4c13.1 0 16.6-5.6 19.3-12 1.4-3.3 2.7-6.8.8-9.6m-34.1 6.8h15c2.1 0 1.8 1 1.5 1.7-.8 1.8-2.6 2.9-4.8 2.9H43.1z" fill="#9d9795"/><path d="M68.5 24.015H22.2l-3 7.1h8.9l-8.9 20.9h-9l-3 7.1h34l3-7.1h-9.1l2.6-6h21.4c12.3 0 15.4-5.2 17.8-11 2.4-5.8 3.9-11-8.4-11m-11.7 14.9h-16l3.3-7.7h16c2.8 0 4 1.5 2.9 3.9-1 2.3-3.4 3.8-6.2 3.8"/></svg>