<svg xmlns="http://www.w3.org/2000/svg" version="1.1" id="Layer_1" x="0" y="0" xml:space="preserve" width="83.229" height="83.229"><style type="text/css" id="style12653"></style><g id="g13293" transform="translate(-.2 19.015)"><path d="M44.4 44.8L50 31.6h9.3c13.4 0 18.5-5.5 22.1-13.8 1.3-3.1 3.5-8.2.6-12.6S73 .4 68.7.4H19.3l-7 16.3h8.9l-5 11.7h-9l-7 16.4z" id="path12689" fill="#cfb991"/><path d="M79.4 6.9c-1.6-2.4-5-3.5-10.8-3.5H21.3L17 13.7h8.9l-7.5 17.7h-9L5 41.7h37.4l4.4-10.3h-9.1l1.2-2.9h20.4c13.1 0 16.6-5.6 19.3-12 1.4-3.3 2.7-6.8.8-9.6m-34.1 6.8h15c2.1 0 1.8 1 1.5 1.7-.8 1.8-2.6 2.9-4.8 2.9H43.3z" id="path12691" fill="#9d9795"/><path d="M68.7 5H22.4l-3 7.1h8.9L19.4 33h-9l-3 7.1h34l3-7.1h-9.1l2.6-6h21.4c12.3 0 15.4-5.2 17.8-11 2.4-5.8 3.9-11-8.4-11M57 19.9H41l3.3-7.7h16c2.8 0 4 1.5 2.9 3.9-1 2.3-3.4 3.8-6.2 3.8" id="path12693"/></g></svg>