<svg xmlns:i="&amp;ns_ai;" xmlns="http://www.w3.org/2000/svg" version="1.0" width="50.1" height="50.1"><switch transform="translate(3.15)"><g i:extraneous="self"><path d="M43.7 7l-.1-1.9-1.8-.8C34.4 1.2 23.4.1 22.2 0h-.6C20.4.1 9.3 1.2 1.9 4.3l-1.7.8L.1 7C0 8.9-.2 15.8 1.6 23.6c1.3 5.4 3.3 10.2 6 14.2 3.3 5 7.7 8.9 12.9 11.6l1.4.7 1.4-.7c5.2-2.6 9.6-6.5 12.9-11.5 2.7-4 4.7-8.8 6-14.2C44 15.8 43.8 8.9 43.7 7z" clip-rule="evenodd" fill="#f0f0f0" fill-rule="evenodd"/><path d="M21.9 46.6c-4.7-2.4-8.6-5.8-11.6-10.4-2.4-3.7-4.3-8.1-5.5-13.1C3 15.6 3.3 9.1 3.4 7.6c6.9-3 17.7-4 18.5-4 .8.1 11.6 1.1 18.5 4 .1 1.5.3 8.1-1.5 15.6-1.2 5-3 9.4-5.5 13.1-2.9 4.4-6.8 7.9-11.5 10.3" fill="#4fc516"/><path d="M35.3 21.4c0 6.7-4.5 12.1-11.4 12.1-2.5 0-4.9-.9-6.8-2.5v12.5c-2.4-1.8-4.5-4-6.3-6.6V9.7l3.5 3c1.7-2.2 4.6-3.5 9.5-3.5 7.2 0 11.5 5.5 11.5 12.2zm-17.5.3c0 2.5 1.3 4.6 3.2 5.6l1.6-4.4c-.7-.3-1.1-1-1.1-1.7 0-1 .8-1.9 1.9-1.9 1 0 1.9.8 1.9 1.9 0 .8-.5 1.5-1.2 1.7l1.7 4.3c1.8-1 3-3.1 3-5.5 0-3.4-2.5-6.2-5.5-6.2-3.1 0-5.5 2.8-5.5 6.2z" clip-rule="evenodd" fill="#f0f0f0" fill-rule="evenodd"/></g></switch></svg>