<svg xmlns="http://www.w3.org/2000/svg" viewBox="0 0 137.7 139"><path fill="#3b108e" d="M67.3 0a69 69 0 0 1 70.4 68.2 69.3 69.3 0 0 1-67 70.7A69.4 69.4 0 0 1 0 70.2 69.3 69.3 0 0 1 67.3 0z"/><path fill="#6536ca" d="M72.8 14.8c6.8-.3 13.2.6 19.4 2.7 8.9 3 16.2 8.2 21.3 16.4a55.5 55.5 0 0 1 8 24.1 65.6 65.6 0 0 1-4.9 32.7 60.9 60.9 0 0 1-14.3 20.5A49.3 49.3 0 0 1 76 124.7a41 41 0 0 1-22.2-2.4 63.4 63.4 0 0 1-26.4-21A60.9 60.9 0 0 1 15.6 75a43.6 43.6 0 0 1 10.9-39.7 62.3 62.3 0 0 1 34.2-19.4c4.1-.8 8.1-1.4 12.1-1.1z"/><path fill="#805fee" d="M80.2 28.8c5 0 9.4.6 13.8 2.2a16 16 0 0 1 7.5 6 31.3 31.3 0 0 1 5.3 16 70 70 0 0 1-3 25c-1.9 6-4.7 11.7-8.3 17a50 50 0 0 1-10.6 11c-7 5.4-16.3 7.4-24.8 3.4-6.1-3-10.8-7.5-15-12.6a72 72 0 0 1-11.5-17.4c-2.8-6.5-5-13.3-4.4-20.5a19 19 0 0 1 5.6-12 59 59 0 0 1 20-13.3 68.3 68.3 0 0 1 17.8-4.4 29 29 0 0 1 7.7-.5z"/><path fill="#fefefe" d="M94.6 51.1c0 4-.9 7.2-2 10.2C89.2 70 86 78.8 81.7 87.1c-1.7 3.3-3.3 6.6-6.4 8.9-3.9 2.8-8.3 2.7-11.8-.5-2.3-2-4.1-4.3-5.6-7C54.4 82 50 76 46.7 69.2l-3-6.9a7 7 0 0 1 2.4-8.5c2-1.5 4.3-2.2 6.5-3 9-3 18-6.6 27.1-9 2.5-.7 5-1 7.5-.8a7 7 0 0 1 6.4 4.8c.7 2 1 4 1 5.3z"/></svg>