<svg xmlns="http://www.w3.org/2000/svg" width="1195.997" height="1195.997"><path d="M174.667 174.665C116.889 233.332 73.333 299.554 44 373.332 14.667 446.222 0 521.109 0 597.998c0 76.887 14.667 151.777 44 224.667 29.333 73.776 72.89 139.555 130.667 197.332 58.666 58.667 124.889 102.667 198.665 132 72.89 29.333 147.78 44 224.667 44 76.89 0 151.776-14.667 224.667-44 73.777-29.333 140-73.333 198.666-132 57.779-57.777 101.334-123.556 130.666-197.332 29.335-72.89 44-147.78 44-224.667 0-76.89-14.665-151.776-44-224.666-29.332-73.778-72.887-140-130.666-198.667C962.665 116.886 896.443 73.331 822.666 44 749.776 14.664 674.888 0 597.999 0c-76.887 0-151.777 14.664-224.667 44-73.776 29.33-139.999 72.886-198.665 130.665zm770.665 770.666c-47.998 47.11-102.221 82.666-162.666 106.666-60.444 24-122.001 36-184.667 36-62.667 0-124.223-12-184.665-36-60.444-24-114.668-59.556-162.668-106.666l124-124c31.113 31.11 66.222 54.223 105.334 69.333 39.109 16 78.89 24 119.333 24s79.777-8 117.998-24c39.112-15.11 73.778-38.223 104-69.333 31.113-31.113 54.223-66.222 69.335-105.334 15.998-39.109 24-78.89 24-119.333s-8.002-79.777-24-117.998c-15.112-39.112-38.222-73.778-69.335-104L374.666 821.33c-31.11-31.113-54.223-66.222-69.333-105.334-16-39.109-24-78.89-24-119.333s8-79.777 24-117.998c15.11-38.225 38.223-72.89 69.333-104 31.113-31.113 66.222-54.223 105.334-69.335 39.109-15.998 78.89-24 119.333-24s79.777 8.002 117.998 24c39.112 15.112 73.778 38.222 104 69.335l124.001-124.001c48 47.998 84.443 101.778 109.334 161.332 23.998 60.444 36 122.001 36 184.667s-12.002 124.223-36 184.668c-24.891 60.441-61.335 115.11-109.334 163.999z"/></svg>