<svg xmlns="http://www.w3.org/2000/svg" width="184.751" height="184.751"><path d="M14.89 183.951c0-.801 68.558-155.085 69.2-155.726.4-.401 37.19-5.306 37.55-5.006.139.115-7.209 17.046-16.328 37.625-9.119 20.578-17.22 38.935-18.004 40.793l-1.424 3.378 4.184-.669c6.214-.993 16.482-6.804 23.977-13.569 21.165-19.102 34.672-52.952 27.025-67.725-4.484-8.664-17.07-12.597-33.617-10.505-32.295 4.082-56.51 25.53-64.595 57.212-1.505 5.9-2.005 10.132-1.632 13.835l.536 5.335-5.186-.684c-14.248-1.878-19.283-8.284-16.672-21.216 4.867-24.11 32.477-49.05 67.214-60.71C123.902-6.03 156.655.117 166.906 21.294c2.906 6 3.856 18.944 2.007 27.336-5.05 22.927-25.433 46.512-50.18 58.065-10.566 4.933-18.12 6.958-28.844 7.73l-8.5.613-15.5 34.851-15.5 34.852-17.75.009c-9.762.004-17.75-.356-17.75-.8z" fill="#239df1"/></svg>