<svg xmlns="http://www.w3.org/2000/svg" viewBox="0 0 58 90"><path fill="#300d4f" d="M29 89.872V67.31a.13.13 0 01.068-.116l28.864-16.742a.13.13 0 00.068-.116V43.92c.001-.048-.025-.093-.066-.117s-.093-.024-.134.001L29.201 60.389c-.041.025-.093.025-.134.001s-.067-.069-.066-.117v-6.419c0-.048.026-.093.068-.117l28.864-16.742a.138.138 0 00.068-.116v-6.416a.136.136 0 00-.201-.117L29.201 46.934c-.041.025-.093.025-.134.001s-.067-.069-.066-.117v-6.416a.13.13 0 01.068-.116l28.864-16.733a.134.134 0 00.068-.116v-6.504a.285.285 0 00-.133-.233L29.133.036a.264.264 0 00-.266 0l-5.466 3.17a.132.132 0 000 .232L52 20.024a.136.136 0 010 .232l-5.466 3.17a.283.283 0 01-.268 0L17.534 6.764a.279.279 0 00-.282 0l-5.449 3.167a.132.132 0 000 .232l28.593 16.589a.132.132 0 010 .232l-5.463 3.17a.279.279 0 01-.282 0L5.932 13.489a.28.28 0 00-.282 0L0 16.775V73.21a.13.13 0 00.068.116l5.531 3.209c.041.025.093.025.134.001s.067-.069.066-.117V20.373c-.001-.048.025-.093.066-.117s.093-.024.134.001l5.534 3.209a.132.132 0 01.065.116v56.355c0 .048.026.093.068.116l5.531 3.209a.135.135 0 00.203-.119V27.101c-.001-.048.025-.093.066-.117s.093-.024.134.001l5.531 3.207a.132.132 0 01.068.116v56.358a.139.139 0 00.065.116l5.548 3.207c.04.018.087.015.124-.009s.061-.064.063-.108z"/></svg>