<svg xmlns="http://www.w3.org/2000/svg" xmlns:xlink="http://www.w3.org/1999/xlink" width="67.104" height="67.104"><style>.B{stroke-width:.3}.C{fill-rule:evenodd}.D{stroke-width:.309}.E{fill:#f7f7f4}.F{fill:#efeeea}.G{fill:#2f6491}.H{fill:#3775a9}</style><g stroke="#ccc" stroke-linejoin="bevel"><use xlink:href="#B" class="B E"/><path transform="skewY(20) scale(-.9397 1)" d="M-20.603 23.038h10.068v11.004h-10.068z" class="C D F"/><use xlink:href="#B" x="-9.461" y="7.965" class="B E"/><g class="C D"><path d="M-30.671 11.63h10.068v11.004h-10.068z" class="F" transform="skewY(20) scale(-.9397 1)"/><path d="M-40.739 1.029h10.068v11.004h-10.068z" class="G" transform="skewY(20) scale(-.9397 1)"/></g><use xlink:href="#B" x="28.383" y="-3.039" fill="#ffc91d" class="B"/><g class="C D"><path d="M30.671 61.909h10.068v11.004H30.671z" fill="#fff" transform="skewY(-20) scale(.9397 1)"/><g fill="#ffd242"><path d="M40.739 61.909h10.068v11.004H40.739zM50.808 61.909h10.068v11.004H50.808z" transform="skewY(-20) scale(.9397 1)"/></g><path d="M30.671 50.905h10.068v11.004H30.671z" class="H" transform="skewY(-20) scale(.9397 1)"/><g fill="#ffd242"><path d="M40.739 50.905h10.068v11.004H40.739zM50.808 50.905h10.068v11.004H50.808zM60.876 50.905h10.068v11.004H60.876zM60.876 39.901h10.068v11.004H60.876z" transform="skewY(-20) scale(.9397 1)"/></g><g class="H"><path d="M50.808 39.901h10.068v11.004H50.808zM40.739 39.901h10.068v11.004H40.739zM30.671 39.901h10.068v11.004H30.671z" transform="skewY(-20) scale(.9397 1)"/></g></g><use xlink:href="#B" x="-9.461" y="14.852" class="B E"/><g class="G"><path transform="skewY(20) scale(-.9397 1)" d="M-30.671 18.921h10.068v11.004h-10.068z" class="C D"/><use xlink:href="#B" y="7.291" class="B"/></g><g class="C D H"><path d="M40.739 28.897h10.068v11.004H40.739zM50.808 28.897h10.068v11.004H50.808z" transform="skewY(-20) scale(.9397 1)"/></g><g class="B G"><use xlink:href="#B" x="9.461" y="-7.156"/><use xlink:href="#B" x="18.922" y="-10.6"/></g><g class="C D"><path d="M-30.671 29.925h10.068v11.004h-10.068z" class="G" transform="skewY(20) scale(-.9397 1)"/><g class="F"><path d="M-30.671 40.929h10.068v11.004h-10.068zM-20.603 40.929h10.068v11.004h-10.068zM-10.535 40.929H-.467v11.004h-10.068z" transform="skewY(20) scale(-.9397 1)"/></g></g><path d="M.439 41.089 9.9 37.645l9.461 3.444L9.9 44.532z" class="B E"/><path transform="skewY(20) scale(-.9397 1)" d="M-20.603 29.925h10.068v11.004h-10.068z" class="C D F"/></g><g transform="skewY(-20) scale(.9397 1)" fill="#fff"><circle cy="67.448" cx="57.131" r="1.934"/><circle cy="34.362" cx="44.513" r="1.934"/></g><defs><path id="B" d="m19.361 18.676 9.461-3.444 9.461 3.444-9.461 3.444z"/></defs></svg>