<svg xmlns="http://www.w3.org/2000/svg" width="74.124" height="74.124"><g fill="#040404" fill-rule="evenodd"><path d="M7.705 64.378c-.372-1.423-.571-2.792-.733-4.167-.611-5.217-.066-10.294 1.94-15.165 3.145-7.641 8.517-13.207 15.915-16.837 3.657-1.794 7.52-2.967 11.548-3.754.24.304.137.668.177.994.074.603.099 1.212.185 1.813.062.444-.106.593-.532.692-2.68.63-5.294 1.47-7.814 2.586-6.668 2.955-11.805 7.555-15.101 14.115-2.206 4.391-3.144 9.044-2.866 13.95.075 1.332.212 2.654.455 3.963.079.426.004.684-.463.832-.88.279-1.74.623-2.71.978M21.548 74.124c.032-1.014.077-1.938.082-2.863.002-.437.177-.572.6-.64 2.606-.425 5.157-1.073 7.578-2.144 8.822-3.903 14.518-10.495 16.955-19.852.973-3.739 1.123-7.549.84-11.385-.017-.232-.035-.462-.037-.694-.006-.399-.291-.888 0-1.165.259-.247.747-.254 1.14-.355.67-.173 1.341-.336 2.063-.515.298 1.365.388 2.718.468 4.065.168 2.839.089 5.668-.337 8.491-.975 6.465-3.687 12.078-8.125 16.863-4.752 5.122-10.651 8.17-17.44 9.593a38.183 38.183 0 01-3.787.601M50.82 16.887c.301.01.45-.155.62-.259 4.057-2.44 8.28-4.583 12.415-6.88.259-.145.478-.236.779-.04.886.578 1.795 1.12 2.755 1.713-.23.233-.489.322-.722.442-5.234 2.711-10.466 5.425-15.706 8.124a2.654 2.654 0 00-1.065.964c-1.943 3.021-3.907 6.03-5.866 9.042-.35.537-.356.538-.872.224-.551-.336-1.1-.676-1.649-1.018-.538-.337-.541-.342-.206-.86 1.237-1.907 2.477-3.813 3.716-5.721.745-1.15 1.482-2.304 2.242-3.444.223-.334.336-.672.361-1.075.353-5.758.717-11.517 1.08-17.276.015-.253.035-.506.057-.823.817.373 1.466.952 2.232 1.292.903.4 1.08.998.995 1.943-.34 3.736-.582 7.481-.875 11.222-.062.798-.188 1.59-.29 2.43"/><path d="M29.574 41.368c-.141 1.39-1.767 3.238-3.126 3.519-1.019.21-1.894-.09-2.58-.872-.653-.746-.774-1.617-.41-2.515.47-1.162 1.261-2.08 2.394-2.641.897-.444 1.8-.367 2.63.211.795.554 1.215 1.301 1.092 2.298M39.743 47.978c-.122 1.43-1.762 3.304-3.166 3.58-.982.191-1.834-.098-2.515-.838-.658-.715-.765-1.577-.44-2.433.467-1.227 1.3-2.203 2.5-2.768 1.765-.831 3.784.56 3.62 2.46"/></g></svg>