<svg xmlns="http://www.w3.org/2000/svg" viewBox="0 0 90 83"><path fill="#1c4396" d="M27.721 83c-5.302 0-10.036-1.287-14.201-3.862s-7.46-6.096-9.884-10.564S0 59.034 0 53.354 1.212 42.64 3.636 38.248c2.424-4.468 5.718-7.951 9.884-10.45 4.166-2.575 8.899-3.862 14.201-3.862 4.241 0 7.953.795 11.134 2.385 2.555 1.277 4.719 2.97 6.492 5.077.4.475 1.233.205 1.233-.416V3.376a.63.63 0 0 1 .503-.618L60.363.013a.63.63 0 0 1 .759.618v80.375a.63.63 0 0 1-.631.631H48.689a.63.63 0 0 1-.619-.509L46.86 74.99c-.106-.54-.815-.701-1.168-.278-1.695 2.032-3.822 3.849-6.383 5.448C36.355 82.053 32.492 83 27.721 83zm3.067-12.721c4.696 0 8.521-1.552 11.475-4.657 3.03-3.18 4.544-7.232 4.544-12.154s-1.515-8.935-4.544-12.04c-2.954-3.18-6.779-4.771-11.475-4.771-4.62 0-8.445 1.552-11.475 4.657s-4.544 7.118-4.544 12.04 1.515 8.973 4.544 12.154 6.854 4.771 11.475 4.771z"/><ellipse cx="80.21" cy="71.62" fill="#2c71f0" rx="9.79" ry="9.788"/></svg>