<svg viewBox="0 0 56 55" xmlns="http://www.w3.org/2000/svg"><path d="M27.709 54.945c15.303 0 27.709-12.3 27.709-27.473S43.012-.001 27.709-.001C12.405-.001 0 12.299 0 27.472s12.406 27.473 27.709 27.473z" fill="#00A38F"/><path d="M27.709 7.63c-1.825 1.815-14.337 14.584-14.337 24.531 0 7.082 5.694 9.43 14.337 15.26 8.643-5.83 14.338-8.178 14.338-15.26 0-9.947-12.513-22.717-14.338-24.531zm-.314 34.816c-.46-.3-.92-.597-1.367-.885-6.902-4.458-8.654-5.963-8.654-9.4 0-5.493 5.374-13.08 10.021-18.366v28.65z" fill="#fff"/></svg>