<svg xmlns="http://www.w3.org/2000/svg" viewBox="0 0 150 44"><defs><linearGradient id="a" x1="124.883" y1="17.983" x2="117.483" y2="2.113" gradientUnits="userSpaceOnUse"><stop offset=".006" stop-color="#bfbfbd"/><stop offset=".046" stop-color="#c7c7c5"/><stop offset=".276" stop-color="#efefef"/><stop offset=".393" stop-color="#fff"/></linearGradient><linearGradient id="b" x1="116.71" y1="31.343" x2="102.594" y2="14.521" gradientUnits="userSpaceOnUse"><stop offset="0" stop-color="#df8200"/><stop offset=".392" stop-color="#f0a800"/><stop offset=".713" stop-color="#ffcb00"/><stop offset="1" stop-color="#ffcb00"/></linearGradient><linearGradient id="c" x1="106.335" y1="23.516" x2="140.192" y2="23.516" gradientUnits="userSpaceOnUse"><stop offset="0" stop-color="#fcc200"/><stop offset="1" stop-color="#ffcb00"/></linearGradient></defs><path d="M133.293 1.094h-13.627v19.322a42.906 42.906 0 0 1 6.919-4.057V8.011h6.708v.013a9.777 9.777 0 0 1 0 19.555v.006h-6.708v-6.037c0-.173-.157-.171-.236-.113a31.892 31.892 0 0 0-6.683 6.25v6.825h13.627a16.707 16.707 0 0 0 0-33.415z" style="fill:#fff"/><path style="fill:url(#a)" d="m126.585 16.359-6.919 4.057V1.094l6.919 6.917v8.348z"/><path style="fill:url(#b)" d="M106.335 11.382h6.634v23.101h-6.634z"/><path d="M140.191 13.257a.789.789 0 0 0-.2-.505.935.935 0 0 0-.82-.191 42.336 42.336 0 0 0-32.84 21.922h6.634c7.037-12.392 17.369-17.99 26.691-20.609.416-.138.544-.391.535-.617z" style="fill:url(#c)"/><path d="M6.362 11.314v2.906a6.654 6.654 0 0 1 6.362-3.707 6.411 6.411 0 0 1 6.313 3.858 7.37 7.37 0 0 1 7.013-3.858 7.432 7.432 0 0 1 5.611 2.154c1.4 1.5 1.854 3.107 1.854 6.664v15.178h-6.363V20.532c0-3.157-1.152-4.659-3.558-4.659-2.353 0-3.706 1.7-3.706 4.659v13.977h-6.362V20.733c0-3.207-1.2-4.86-3.507-4.86-2.4 0-3.657 1.7-3.657 4.86v13.776H0v-23.2zM62.4 23.137c0 6.813-5.562 12.174-12.676 12.174-7.313 0-12.573-5.16-12.573-12.375 0-7.313 5.209-12.423 12.674-12.423A12.171 12.171 0 0 1 62.4 23.137zm-18.837-.2c0 4.008 2.5 6.714 6.212 6.714 3.657 0 6.211-2.756 6.211-6.613 0-4.158-2.4-6.813-6.162-6.813s-6.258 2.704-6.258 6.711zM72.943 33.4c0 3.507-.7 5.862-2.205 7.414-1.553 1.653-4.129 2.5-7.085 2.5-.351 0-1 0-1.7-.049v-5.81h.947c2.155 0 3.407-1.5 3.407-4.058V11.314h6.635zM95.522 26.677l-.121-.033a6.191 6.191 0 0 1-11.422-2.205h18.135c.05-.45.05-1.1.05-1.251 0-7.464-5.16-12.674-12.524-12.674-7.215 0-12.27 5.111-12.27 12.374 0 7.214 5.256 12.424 12.621 12.424a12.147 12.147 0 0 0 10.4-5.574zm-5.831-10.8a5.654 5.654 0 0 1 5.91 4.909H83.979c.602-3.16 2.657-4.913 5.712-4.913z" style="fill:#fff"/><path d="M109.652.685a3.969 3.969 0 1 1-3.969 3.968 3.971 3.971 0 0 1 3.969-3.968z" style="fill:#ffcb00"/><path d="M69.625.685a3.969 3.969 0 1 1-3.968 3.968A3.972 3.972 0 0 1 69.625.685z" style="fill:#fff"/></svg>