<svg xmlns="http://www.w3.org/2000/svg" viewBox="0 0 192.5 168.4"><g transform="translate(-57.8,-70.8)"><g fill="#A96427"><polygon points="57.8 126.2 57.8 239.2 91.8 203.2 106.1 160.4"/><polygon points="135.9 70.9 57.8 70.9 57.8 126.2 117.5 126.2"/><path d="m154.5 126.2h10.3l51-53.9c-2.6-0.6-5.4-1.1-8.2-1.3v-0.1h-71.6z"/></g><path d="m235.5 166c-2.7-2.4-5.4-4.3-8.1-5.7-3-1.5-7.1-3.1-12.3-4.8v-0.4c0.5-0.1 0.8-0.3 1.3-0.4 2.8-0.7 5.5-1.7 8.1-2.9 1.2-0.5 2.3-1 3.1-1.4 2.6-1.3 5.2-3.1 7.9-5.5 9.4-7.8 14.1-18.2 14.1-31.1v-0.2-0.2c0-6-1.3-11.6-3.6-16.8-2.2-4.9-5.3-9.3-9.3-13.2l-0.6-0.6c-0.3-0.3-0.7-0.5-1-0.8-0.9-0.8-1.8-1.5-2.7-2.2-0.6-0.4-1.1-0.8-1.7-1.2-2.1-1.4-4.3-2.6-6.6-3.6l-155.4 164.2h138.9c5.8 0 11.2-1.1 16.1-3.2 5-1.9 9.6-4.9 13.7-8.9 4-3.8 7.2-8.1 9.5-13.1 2.2-4.8 3.4-10.1 3.4-15.7 0-13-4.9-23.8-14.8-32.3z" fill="#D98429"/></g></svg>