<svg xmlns="http://www.w3.org/2000/svg" width="264.444" height="264.073" viewBox="0 0 198.333 198.055">
  <g data-name="Layer">
    <clipPath id="a">
      <path transform="matrix(1 0 0 -1 0 198.055)" d="M0 198.055h198.333V0H0Z"/>
    </clipPath>
    <g clip-path="url(#a)" fill="#00063e">
      <path d="m99.166 87.58 5.279 38.287 17.346-28.985-7.36 31.882 18.7-17.891-9.739 23.619 15.56-11.611c-7.243 19.709-13.553 30.758-39.785 39.74-26.232-8.982-32.543-20.031-39.785-39.74l15.559 11.61-9.739-23.618 18.7 17.89-7.36-31.881 17.347 28.985 5.278-38.287ZM71.687 74.751c-7.948 0-12.695-4.253-12.695-11.4V46.243h6.59v16.84c0 4.151 2.183 6.434 6.156 6.434 4.074 0 6.234-2.187 6.234-6.317V46.243h6.633v16.995c0 7.103-4.949 11.513-12.918 11.513M99.414 74.278h-9.202V46.244h9.339c6.827 0 10.589 2.65 10.589 7.445 0 2.524-1.316 4.466-3.828 5.655 3.368 1.189 5.079 3.414 5.079 6.629 0 5.359-4.251 8.305-11.977 8.305m-2.836-4.682h2.836c2.563 0 5.609-.654 5.609-3.78 0-3.22-3.097-3.905-5.703-3.905h-2.742Zm0-12.09h2.395c3.206 0 4.98-1.203 4.98-3.384 0-2.145-1.546-3.191-4.72-3.191h-2.655ZM129.847 74.751c-9.074 0-14.933-5.666-14.933-14.453 0-8.684 6.073-14.523 15.112-14.523 3.352 0 6.172.66 8.622 2.02l.214.12-.984 5.707-.434-.289c-2.406-1.615-4.695-2.36-7.195-2.36-5.391 0-8.613 3.474-8.613 9.29 0 5.71 3.332 9.254 8.702 9.254 2.544 0 5.047-.764 7.653-2.332l.43-.258.929 5.325-.207.12c-2.675 1.532-5.976 2.38-9.296 2.38"/>
      <path d="M99.167 168.559c-30.97-8.773-45.75-29.22-45.75-58.367V41.196h91.5v68.996c0 29.148-14.782 49.594-45.75 58.367m-49.5-131.113v73.215c0 30.77 16.742 53.048 49.5 61.785 32.757-8.737 49.5-31.015 49.5-61.785V37.446Z"/>
      <path d="M99.168 84.207c6.902 0 7.835 2.8 13.395 2.766 5.54.034 6.487-2.766 13.39-2.766 6.902 0 7.851 2.8 13.395 2.766v-6.428c-5.544.037-6.493-2.729-13.395-2.729-6.903 0-7.85 2.766-13.39 2.73-5.56.036-6.493-2.73-13.395-2.73-6.903 0-7.836 2.766-13.395 2.73-5.539.036-6.488-2.73-13.39-2.73-6.903 0-7.856 2.766-13.395 2.73v6.427c5.54.034 6.492-2.766 13.395-2.766 6.902 0 7.851 2.8 13.39 2.766 5.56.034 6.492-2.766 13.395-2.766M103.541 95.823c3.33.797 4.915 2.318 9.022 2.292 5.538.035 6.487-2.766 13.39-2.766 6.901 0 7.851 2.8 13.395 2.766v-6.428c-5.544.037-6.494-2.728-13.396-2.728-6.901 0-7.85 2.765-13.39 2.728-4.462.03-5.947-1.745-9.927-2.447ZM85.774 98.115c4.106.026 5.69-1.495 9.018-2.291l.907-6.584c-3.98.702-5.464 2.477-9.925 2.447-5.54.037-6.49-2.728-13.391-2.728-6.902 0-7.855 2.765-13.394 2.728v6.428c5.539.035 6.492-2.766 13.394-2.766s7.852 2.8 13.39 2.766M105.142 107.433c1.883.647 3.33 1.438 5.566 1.718l3.859-6.446c-.603.082-1.262.128-2.004.123-3.819.026-5.455-1.27-8.343-2.086ZM122.812 106.721c.902-.142 1.928-.23 3.14-.23 6.903 0 7.853 2.8 13.396 2.766v-6.428c-5.543.037-6.493-2.729-13.395-2.729-.583 0-1.121.022-1.626.058ZM75.522 106.721l-1.516-6.563a22.686 22.686 0 0 0-1.623-.057c-6.902 0-7.855 2.765-13.394 2.728v6.428c5.539.035 6.492-2.766 13.395-2.766 1.21 0 2.236.088 3.138.23M87.625 109.152c2.237-.28 3.684-1.07 5.566-1.718l.922-6.69c-2.886.814-4.522 2.11-8.339 2.085a13.96 13.96 0 0 1-2.008-.125Z"/>
    </g>
  </g>
</svg>
