<svg xmlns="http://www.w3.org/2000/svg" fill="#00063e" viewBox="0 0 99 135"><path d="m49.5 50.13 5.27 38.3 17.35-29-7.36 31.88 18.7-17.89-9.74 23.62 15.56-11.6c-7.24 19.7-13.55 30.75-39.78 39.73-26.23-8.98-32.54-20.03-39.79-39.74l15.56 11.61-9.73-23.62 18.7 17.9-7.37-31.88 17.35 28.98 5.28-38.29zM22.02 37.3c-7.95 0-12.7-4.25-12.7-11.4V8.8h6.6v16.84c0 4.15 2.18 6.43 6.15 6.43 4.07 0 6.23-2.19 6.23-6.32V8.8h6.64v17c0 7.1-4.95 11.5-12.92 11.5m27.73-.47h-9.2V8.8h9.33c6.83 0 10.6 2.65 10.6 7.44 0 2.53-1.33 4.47-3.84 5.66 3.37 1.19 5.08 3.41 5.08 6.63 0 5.36-4.25 8.3-11.97 8.3m-2.84-4.68h2.84c2.56 0 5.6-.65 5.6-3.78 0-3.22-3.09-3.9-5.7-3.9h-2.74zm0-12.09h2.4c3.2 0 4.97-1.2 4.97-3.38 0-2.15-1.54-3.2-4.71-3.2H46.9zm33.27 17.25c-9.08 0-14.94-5.67-14.94-14.46 0-8.68 6.08-14.52 15.12-14.52 3.35 0 6.17.66 8.62 2.02l.21.12-.98 5.7-.44-.28a12.47 12.47 0 0 0-7.19-2.36c-5.39 0-8.6 3.47-8.6 9.29 0 5.7 3.32 9.25 8.7 9.25 2.53 0 5.04-.76 7.64-2.33l.43-.26.93 5.33-.2.12a18.93 18.93 0 0 1-9.3 2.38ZM49.5 131.11c-30.97-8.77-45.75-29.22-45.75-58.37V3.75h91.5v69c0 29.14-14.79 49.59-45.75 58.36M0 0v73.21c0 30.77 16.74 53.05 49.5 61.79C82.25 126.26 99 103.98 99 73.21V0ZM49.5 46.76c6.9 0 7.83 2.8 13.4 2.77 5.53.03 6.48-2.77 13.38-2.77s7.85 2.8 13.4 2.77V43.1c-5.55.04-6.49-2.73-13.4-2.73-6.9 0-7.85 2.77-13.39 2.73-5.56.04-6.49-2.73-13.39-2.73s-7.83 2.77-13.4 2.73c-5.53.04-6.48-2.73-13.38-2.73s-7.86 2.77-13.4 2.73v6.43c5.54.03 6.5-2.77 13.4-2.77s7.85 2.8 13.39 2.77c5.56.03 6.49-2.77 13.4-2.77m4.36 11.62c3.33.8 4.92 2.31 9.02 2.29 5.54.04 6.5-2.77 13.4-2.77s7.84 2.8 13.4 2.77v-6.43c-5.56.04-6.5-2.73-13.4-2.73s-7.86 2.77-13.4 2.73c-4.46.03-5.94-1.74-9.92-2.45zm-17.76 2.29c4.1.03 5.69-1.5 9.02-2.3l.9-6.58c-3.98.7-5.46 2.48-9.92 2.45-5.54.04-6.5-2.73-13.4-2.73s-7.85 2.77-13.39 2.73v6.43c5.54.04 6.5-2.77 13.4-2.77s7.85 2.8 13.39 2.77m19.36 9.31c1.88.65 3.33 1.44 5.57 1.72l3.86-6.44c-.6.1-1.27.12-2 .12-3.83 0-5.46-1.27-8.35-2.09zm17.67-.7c.9-.15 1.93-.24 3.14-.24 6.9 0 7.86 2.8 13.4 2.77v-6.43c-5.54 0-6.49-2.73-13.4-2.73-.58 0-1.12 0-1.62.1zm-47.28 0-1.52-6.57a22.69 22.69 0 0 0-1.62-.1c-6.9 0-7.86 2.77-13.4 2.73v6.43c5.54 0 6.5-2.77 13.4-2.77 1.2 0 2.23.1 3.14.23m12.1 2.43c2.24-.28 3.68-1.07 5.56-1.72l.93-6.69c-2.89.82-4.53 2.11-8.34 2.1a13.96 13.96 0 0 1-2.01-.14Z"/></svg>
