<svg xmlns="http://www.w3.org/2000/svg" width="321.777" height="321.777"><path d="M89.03 229.809c3.918 10.395 9.34 19.283 16.27 26.664 6.93 7.382 15.14 13.031 24.63 16.948 9.491 3.917 19.81 5.875 30.958 5.875 10.847 0 21.015-2.034 30.506-6.102 9.491-4.068 17.776-9.792 24.856-17.173 7.08-7.382 12.58-16.194 16.496-26.438 3.917-10.244 5.875-21.692 5.875-34.347V0h47.453v316.354h-47v-29.376c-10.546 11.147-22.975 19.734-37.286 25.761-14.312 6.025-29.752 9.038-46.323 9.038-16.873 0-32.615-2.938-47.228-8.813-14.611-5.875-27.266-14.235-37.961-25.082-10.695-10.847-19.132-23.876-25.308-39.092-6.177-15.215-9.265-32.162-9.265-50.843V0h47.453v195.236c0 12.655 1.958 24.178 5.875 34.573z" fill="#010202"/></svg>