<svg xmlns="http://www.w3.org/2000/svg" viewBox="0 0 60 60"><path fill="#06c167" d="M0 22.4c0-7.8 0-11.8 1.5-14.8a15 15 0 0 1 6.1-6.1c3-1.5 7-1.5 14.8-1.5h15.2c7.8 0 11.8 0 14.8 1.5a15 15 0 0 1 6.1 6.1c1.5 3 1.5 6.9 1.5 14.8v15.2c0 7.8 0 11.8-1.5 14.8a13.8 13.8 0 0 1-6.1 6.1c-3 1.5-6.9 1.5-14.8 1.5H22.4c-7.8 0-11.8 0-14.8-1.5a15 15 0 0 1-6.1-6.1C0 49.4 0 45.4 0 37.6Z"/><path d="M28.7 40.5a3.1 3.1 0 0 0-3.1-3.2 3.1 3.1 0 0 0-3.2 3v.1a3.1 3.1 0 0 0 3.1 3.2 3 3 0 0 0 3.2-2.8v-.3m2.6-5.1v10.3h-2.6v-.9a5 5 0 0 1-3.4 1.2 5.5 5.5 0 0 1-5.6-5.4 5.5 5.5 0 0 1 5.6-5.4 5.4 5.4 0 0 1 3.4 1.2v-.9Zm8.8 7.9h-2c-.6 0-1-.3-1-.8v-4.8h3v-2.3h-3v-2.9h-2.7v2.9h-2v2.3h2v5.5a2.5 2.5 0 0 0 2.8 2.5h2.9Zm6.1 2.6c3.1 0 4.8-1.4 4.8-3.4 0-1.4-1-2.5-3.2-2.9l-2.3-.5c-1.3-.2-1.7-.5-1.7-1s.6-1 1.8-1 2.2.3 2.5 1.5h2.6c-.1-2.1-1.7-3.6-4.9-3.6-2.8 0-4.7 1.1-4.7 3.3 0 1.5 1.1 2.5 3.4 3l2.5.6c1 .2 1.3.5 1.3.9 0 .6-.8 1-2 1-1.5 0-2.4-.3-2.7-1.5h-2.7c.3 2.2 2 3.6 5.3 3.6M9.1 31.7h10v2.4h-7.3v3.4h7.1v2.3h-7.1v3.5H19v2.4H9v-14Zm41.6-12.1v-1.9H50a2.9 2.9 0 0 0-2.5 1.3v-1.3h-2V28h2.1v-5.8a2.4 2.4 0 0 1 2.3-2.6ZM36 22a3.2 3.2 0 0 1 3.2-2.6 3.1 3.1 0 0 1 3.1 2.6Zm3.2-4.3a5.2 5.2 0 0 0-5.3 5.1v.1a5.3 5.3 0 0 0 5.5 5.3 5.5 5.5 0 0 0 4.5-2.2l-1.6-1a3.7 3.7 0 0 1-3 1.5 3.4 3.4 0 0 1-3.4-2.9h8.4v-.7a5 5 0 0 0-5.1-5.2m-11.7 8.8a3.6 3.6 0 0 1-3.5-3.6 3.5 3.5 0 0 1 7.1 0 3.7 3.7 0 0 1-3.6 3.6M21.9 28h2v-1.3a5.1 5.1 0 0 0 3.7 1.5 5.3 5.3 0 1 0 0-10.6 5.1 5.1 0 0 0-3.7 1.5V14h-2.1v14Zm-7.2-1.6a3.5 3.5 0 0 0 3.5-3.7v-8.6h2.1V28h-2.1v-1.3a5.2 5.2 0 0 1-3.8 1.5A5.3 5.3 0 0 1 9 22.7V14h2.1v8.6a3.6 3.6 0 0 0 3.6 3.8"/></svg>
