<svg xmlns="http://www.w3.org/2000/svg" version="1.1" x="0" y="0" width="46" height="46" xml:space="preserve" id="svg730"><style type="text/css" id="style724"></style><path d="M36.2 13.3l-.8.7.9 2.9-2.6-1.4-.9.7 2.9 1.6-3.1 2.5-.8-1.1 1.1-.9-.8-1-1.1.9-.9-1.2 1.1-.9-.8-1.1-5.6 4.7 5.4 4.3 1-1.2c.7 0 1.2.6 1.5 1.2l-1 1.2.6.5c1.3-1.2 3.1-2 4.9-2 3.8 0 6.7 3.1 6.7 6.9 0 1.2-.3 2.6-1 3.7l1 .8c0 .7-.7 1.5-1.4 1.7l-1-.8c-1.3 1.3-3.1 2-4.9 2-3.8 0-6.7-3-6.7-6.8 0-1.2.4-2.5.9-3.6l-.7-.5-1 1.3c-.7-.1-1.3-.6-1.5-1.3l1-1.1-4.5-3.8v6h1.5c.2.3.3.6.3.9 0 .3-.1.7-.3 1h-1.5v.7c3.3.6 6.1 3.4 6.1 6.8 0 3.5-2.7 6.3-6.1 6.9v1.2c-.3.2-.7.3-1.1.3-.4 0-.9-.1-1.2-.3v-1.2c-3.4-.5-6-3.4-6-6.9 0-3.4 2.6-6.2 6-6.7v-.8h-1.6c-.2-.3-.3-.6-.3-1s.1-.7.3-1h1.6v-6l-4.6 3.8 1 1.1c-.2.7-.8 1.2-1.5 1.3l-1-1.3-.6.6c.6 1.1 1 2.3 1 3.6 0 3.8-3 6.8-6.7 6.8-1.8 0-3.6-.7-4.9-2l-1 .8c-.6-.2-1.3-1-1.4-1.7l1-.8c-.6-1.1-1-2.4-1-3.7 0-3.8 2.9-6.9 6.7-6.9 1.8 0 3.6.8 4.9 2l.6-.4-1-1.2c.2-.6.8-1.1 1.5-1.2l1 1.2 5.4-4.3-5.6-4.7-.8 1.1 1.1.9-.8 1.1-1.1-.9-.8 1 .9.7-.8 1.1-3-2.5 2.8-1.6-.8-.7-2.6 1.4.8-2.7-.8-.7-1 3.1-3.1-2.5.8-1 1.1.9.9-1-1.1-1 .8-1 1.1.8.8-1-2.4-1.8c.2-.8.7-1.4 1.5-1.9l12.7 10.4v-6.9h-1.3v1.3h-1.3v-1.3h-1.3v1.3h-1.3V7.8l3 1.3V8l-2.8-1.2 2.8-1.1v-1l-3 1.2v-4h1.3v1.4h1.3V1.9h1.3v1.4h1.3V.2c.4-.1.8-.2 1.2-.2.4 0 .8.1 1.1.2v17.1L36.8 6.9c.7.5 1.2 1.1 1.5 1.9l-2.4 1.9.8 1 1.1-.8.8 1-1.1 1 .8 1 1.1-.9.8 1-3.1 2.5zM10.3 32.1c0 1.1.8 1.8 1.8 1.9l-1.6 1.2c-1.1-.4-2.1-1.7-2.1-2.9 0-.4.1-.6.2-.9h-.3c-1.5 0-2.7-1.4-3-2.8L7 27.3v.5c0 .9.9 1.7 1.8 1.7 1 0 1.9-.8 1.9-1.8 0-1.2-.9-2-2.1-2-2.2 0-4.4 2.2-4.4 5 0 .8.2 1.6.5 2.3l1-.8c.7.3 1.2 1 1.4 1.8l-1 .8c1 .8 2.2 1.2 3.4 1.2 2.6 0 4.6-2.1 4.6-3.9 0-1.1-.7-2-1.8-2-1.2.2-2 1-2 2zm13.6 4c0 1 .8 1.8 1.8 1.8.7 0 1-.3 1.5-.7v2.1c-.5.3-1 .4-1.6.4-1.1 0-2-.3-2.6-1.3-.6 1-1.6 1.3-2.7 1.3-.5 0-1.1-.1-1.6-.4v-2.1c.5.5.8.7 1.5.7 1 0 1.8-.8 1.8-1.8s-.6-1.8-1.7-1.8c-1.9 0-2.7 1.8-2.7 3.5 0 2.4 1.8 4.5 4.1 4.9v-1.2c.4-.2.8-.2 1.1-.2.4 0 .8 0 1.2.2v1.2c2.2-.3 4.1-2.6 4.1-4.9 0-1.7-.7-3.5-2.7-3.5-.8-.1-1.5.8-1.5 1.8zm11.4-8.3c0 .9 1 1.8 1.9 1.8.9 0 1.8-.8 1.8-1.7v-.5l1.6 1.3c-.3 1.6-1.7 2.9-3.3 2.8.1.3.1.6.1.9 0 1.2-1 2.5-2.1 2.9L33.8 34c1-.1 1.8-.8 1.8-1.9 0-1.1-.9-1.8-1.9-1.8-1.1 0-1.8.9-1.8 2 0 1.3 1.6 3.9 4.7 3.9 1.2 0 2.4-.4 3.3-1.2l-1-.8c.2-.8.7-1.5 1.4-1.8l1 .8c.4-.7.6-1.5.6-2.3 0-2.2-1.7-5-4.4-5-1.2 0-2.2.7-2.2 1.9z" id="path728" fill="#000"/></svg>