<svg xmlns="http://www.w3.org/2000/svg" style="background:#00467f;fill:#fff" viewBox="0 0 90 90"><path d="M32.2 30h-5a.7.7 0 00-.8.7V48c0 2.6-2.2 4.7-5 4.7s-4.9-2-4.9-4.7V30.7a.7.7 0 00-.7-.7h-5a.7.7 0 00-.6.2.7.7 0 00-.2.5v17.7c.1 5.9 5.2 10.6 11.5 10.6s11.3-4.7 11.4-10.6V30.7c0-.2 0-.4-.2-.5l-.5-.2m47.1 0H60.1a.7.7 0 00-.5.2.7.7 0 00-.2.5v5a.7.7 0 00.2.5c.1.2.3.3.5.3h5.4V49c0 4.3 3.1 8.3 7.3 9.9a.7.7 0 001-.4l1.9-4.5a.6.6 0 000-.5.6.6 0 00-.4-.4 4.7 4.7 0 01-3.2-4.4V36.5h7.2c.4 0 .7-.4.7-.8v-5a.7.7 0 00-.2-.5.7.7 0 00-.5-.2M48.4 52.9c-4.2 0-5.3-2.1-5.3-3.5v-4h5c1.4 0 5 .5 5 3.5 0 1.5-.9 4-4.7 4m-.3-17c1.4 0 3 .8 3 2.1 0 2-1.5 2.5-3 2.5h-5v-4.6h5zm8.3 6a8.3 8.3 0 001.1-3.7c0-2.1-.9-4.2-2.5-5.6-2.1-1.8-4.5-2.6-8.2-2.6h-9.5a.7.7 0 00-.7.7V49c0 4.8 3 9.9 11.8 9.9 3.6 0 6.7-1.2 8.7-3.4a9.3 9.3 0 002.5-6.2c0-3.7-1.3-6.3-3.2-7.5"/></svg>
