<svg xmlns="http://www.w3.org/2000/svg" viewBox="0 0 90 90" fill-rule="evenodd" xmlns:v="https://vecta.io/nano"><path fill="#00467f" d="M0 0h90v90H0z"/><path fill="#fff" fill-rule="nonzero" d="M32.206 30h-5.039a.71.71 0 0 0-.728.69v17.432h0c0 2.597-2.224 4.704-4.966 4.704s-4.958-2.107-4.958-4.704h-.016V30.693a.71.71 0 0 0-.725-.69h-5.042c-.189-.004-.372.066-.509.196a.7.7 0 0 0-.219.494v17.632c-.004.02-.004.041 0 .061.148 5.881 5.212 10.608 11.451 10.608s11.319-4.727 11.467-10.616v-.061-17.624c-.003-.186-.08-.363-.215-.492s-.317-.2-.505-.198M79.296 30H60.099a.72.72 0 0 0-.501.216.7.7 0 0 0-.2.503v5.023a.7.7 0 0 0 .2.502c.132.134.312.212.501.214h5.446v12.603c0 4.347 3.084 8.31 7.256 9.889a.73.73 0 0 0 .928-.381l1.974-4.485a.63.63 0 0 0-.005-.511c-.074-.162-.212-.287-.383-.344-1.917-.652-3.212-2.424-3.235-4.427V36.459h7.218c.395-.007.71-.329.704-.719v-5.023a.7.7 0 0 0-.202-.502.72.72 0 0 0-.502-.214M48.4 52.849c-4.187 0-5.347-2.064-5.347-3.422v-3.971h5.039c1.44 0 5.101.389 5.101 3.476 0 1.449-.968 3.918-4.799 3.918m-.294-16.99c1.445 0 2.966.884 2.966 2.176 0 1.934-1.442 2.466-2.966 2.466h-5.042V35.86h5.042zm8.323 6.046c.569-1.14 1.103-2.344 1.103-3.747.001-2.108-.907-4.116-2.497-5.521C52.895 30.773 50.508 30 46.796 30H37.3a.71.71 0 0 0-.728.687v18.433c0 4.775 3.117 9.873 11.81 9.873 3.602 0 6.673-1.175 8.703-3.353 1.699-1.928 2.559-4.019 2.559-6.214 0-3.699-1.38-6.288-3.214-7.524"/></svg>