<svg xmlns="http://www.w3.org/2000/svg" xmlns:xlink="http://www.w3.org/1999/xlink" xml:space="preserve" id="svg2" x="0" y="0" version="1.1" viewBox="0 0 153 153"><style>.st2{fill:#ffce01}.st3{fill:#e32726}</style><g id="g10" transform="matrix(1.33333 0 0 -1.33333 0 289.333)"><g id="g12"><defs><path id="SVGID_1_" d="m110 215.8 3-206.2h-272.8l-3 206.2"/></defs><clipPath id="SVGID_00000005253610875461769850000002988038738386168994_"><use xlink:href="#SVGID_1_" overflow="visible"/></clipPath><g id="g14" clip-path="url(#SVGID_00000005253610875461769850000002988038738386168994_)"><g id="g92" transform="translate(144.142 209.384)"><path id="path94" fill="#231f20" d="M-86.1 4.8c-30.5 0-43.2-10.2-43.2-10.2v-45.9c0-25.4 33.6-51.8 43.2-54.4 9.5 2.6 43.1 29 43.1 54.4v45.9S-55.6 4.8-86.1 4.8"/></g><g id="g96" transform="translate(138.601 149.594)"><path id="path98" d="M-85.9 7.8c.2-.2.3-.5.3-.9 0-.8-.7-1.5-1.5-1.5s-1.5.7-1.5 1.5c0 .4.2.8.5 1.1-1.2.2-2.5.8-2.5.8.3-.9.9-4.2 3.1-4.4 2.7-.3 3.4 2.2 3.4 2.2s-.4.8-1.8 1.2" class="st2"/></g><g id="g100" transform="translate(152.185 149.815)"><path id="path102" d="M-86.5 7.8c.3-.3.5-.7.5-1.1 0-.8-.7-1.5-1.5-1.5s-1.5.7-1.5 1.5c0 .3.1.6.3.9-1.4-.4-1.8-1.2-1.8-1.2s.7-2.5 3.4-2.2c2.2.2 2.8 3.6 3.1 4.4-.1 0-1.3-.6-2.5-.8" class="st2"/></g><g id="g104" transform="translate(154.86 157.95)"><path id="path106" d="M-86.7 7.3c-.9.7-2-.2-1.2-1.2.7-.8 1.2-1.4.9-2-.4-.8-4.6-.6-9.8-2.6-5.3 2-9.4 1.8-9.8 2.6-.3.6.2 1.1.9 2 .9 1-.3 1.9-1.2 1.2-.7-.6-2.1-2.5-1.6-3.8.8-2 5.5-1.4 11.7-4 6.2 2.6 10.9 2 11.7 4 .5 1.4-.8 3.2-1.6 3.8" class="st2"/></g><g id="g108" transform="translate(149.017 130.357)"><path id="path110" d="M-86.4 8.7c-.8.3-2.3 1.2-2.7 2.6-.4 1.3.2 2.3.8 2.4.6.1 1.2-.2.9-.9-.2-.5-.7-.8-.9-.9-.3-.2-.1-.7.4-.6 1 .2 1.5 1.2 1.5 2 0 1.1-1.3 1.4-2.1 1.3-1.1-.2-1.9-1.3-1.5-3.2.4-1.8 2-2.8 2.9-3.2-.7-.3-2.3-.6-3.8-.6-1.5.1-3.1.3-3.8.6.8.4 2.4 1.4 2.9 3.2.5 1.9-.3 3-1.5 3.2-.7.1-2-.1-2.1-1.3 0-.7.5-1.8 1.5-2 .4-.1.7.4.4.6-.2.1-.8.4-.9.9-.2.7.4 1.1.9.9.6-.2 1.1-1.1.8-2.4-.4-1.5-1.9-2.3-2.7-2.6-.7-.3-.8-1-.4-1.2 1.4-.8 3.5-1 4.8-1h.2c1.3 0 3.4.2 4.8 1 .4.2.3.9-.4 1.2" class="st2"/></g><g id="g112" transform="translate(144.26 194.095)"><path id="path114" d="M-86.1 5.6c.4.1.8.2 1.2.4.1 0 .1.1.2.1.4.4 1.2 1.5 1.5 2 .1.1.1.2 0 .3-.1.3-.4.5-.5.5-.4.1-4.4.1-4.8 0h-.1c-.2-.1-.5-.5-.4-.8.2-.5 1.1-1.7 1.5-2 .4-.3.9-.5 1.4-.5" class="st2"/></g><g id="g116" transform="translate(141.01 192.068)"><path id="path118" d="M-86 5.7c0 .4.1.8-.1 1.2 0 .1 0 .1-.1.2-.2.5-1.1 1.6-1.5 1.9-.1.1-.2.1-.3.1-.3 0-.6-.2-.7-.3-.2-.3-1.5-4-1.5-4.4v-.1c.1-.2.3-.6.6-.6.5.1 2 .5 2.5.8.6.3.9.8 1.1 1.2" class="st2"/></g><g id="g120" transform="translate(141.99 188.455)"><path id="path122" d="M-86 5.8c-.4.2-.8.3-1.2.3h-.2c-.6-.1-1.9-.6-2.4-.8-.2-.1-.2-.1-.3-.3-.1-.3 0-.6.1-.7.2-.3 3.5-2.6 3.9-2.7h.1c.2 0 .7.1.8.4.1.5.1 2 0 2.6-.2.5-.5.9-.8 1.2" class="st2"/></g><g id="g124" transform="translate(145.872 188.249)"><path id="path126" d="M-86.2 5.8c-.3-.3-.6-.6-.7-1v-.2c-.1-.5 0-1.9.1-2.5 0-.1.1-.2.2-.3.3-.1.6-.2.7-.1.4.1 3.6 2.4 3.9 2.7v.1c.1.2.1.7-.1.9-.5.3-1.9.7-2.5.8-.7 0-1.2-.2-1.6-.4" class="st2"/></g><g id="g128" transform="translate(147.269 191.728)"><path id="path130" d="M-86.3 5.7c.2-.3.4-.7.8-1 0 0 .1-.1.2-.1.5-.3 1.9-.7 2.5-.7.1 0 .2 0 .3.1.2.2.4.5.4.6 0 .4-1.2 4.1-1.5 4.4h-.1c-.2.1-.7.3-.9.1-.4-.4-1.3-1.5-1.6-2-.2-.5-.2-1-.1-1.4" class="st2"/></g><g id="g132" transform="translate(145.278 190.485)"><path id="path134" d="M-86.2 5.7c-.2.1-.4.3-.3.5.1.2.3.4.6.3.2-.1.4-.3.3-.5-.1-.2-.4-.3-.6-.3m-.9 1.4c-.2.1-.2.4-.1.6.1.2.4.2.6.1.2-.1.2-.4.1-.6-.2-.2-.4-.3-.6-.1m0-2.5c-.2 0-.4.2-.4.4s.2.4.4.4.4-.2.4-.4c.1-.2-.1-.4-.4-.4m-1 2.1c-.2-.1-.5-.1-.6.1-.2.2-.1.5.1.6.2.1.5.1.6-.1.1-.2.1-.4-.1-.6m-.3-1.5c-.2-.1-.5 0-.6.3-.1.2 0 .5.3.5.2.1.5 0 .6-.3.1-.2 0-.5-.3-.5m3.5 1.4c-.1.2-.3.4-.5.5v.4c-.1.3-.2.6-.5.8-.5.3-1.1.3-1.6-.1-.4.2-1 .2-1.4-.1-.3-.2-.5-.5-.5-.8 0-.2 0-.4.1-.6l-.3-.3c-.2-.3-.2-.7-.1-1 .2-.5.7-.9 1.3-.9.2-.4.7-.7 1.2-.7.6 0 1.1.4 1.3.9.5.1.9.4 1.1.9 0 .4 0 .7-.1 1" class="st2"/></g><g id="g136" transform="translate(119.104 196.257)"><path id="path138" d="M-84.9 5.4c-1.2 1.2-1.9 1.4-2.3 1.4-.2 0-.5-.1-.9-.5l-.3-.3c-.6-.7-1.3-1.5-2.6-1.5-.5 0-1 .1-1.5.4V-5c.5-.9 1-1.3 1.4-1.3.2 0 .6.1 1.2.8 1.4 1.5 3.2 1.8 5 .8V5.4z" class="st2"/></g><g id="g140" transform="translate(127.314 195.221)"><path id="path142" d="M-85.3 5.5c-1.3 0-2 .9-2.6 1.5l-.3.3c-.4.5-.7.5-.9.5-.4 0-1.1-.3-2.3-1.4V-3.7c.7.4 1.4.6 2.1.6 1 0 2-.5 2.9-1.4.6-.7 1-.8 1.2-.8.4 0 .9.5 1.4 1.3v9.8c-.5-.2-1-.3-1.5-.3" class="st2"/></g><g id="g144" transform="translate(169.245 185.558)"><path id="path146" d="M-87.4 6c1.8 1 3.5.8 5-.8.6-.7 1-.8 1.2-.8.4 0 .9.5 1.4 1.3v9.8c-.5-.3-1-.4-1.5-.4-1.3 0-2 .9-2.6 1.5l-.3.3c-.4.5-.7.5-.9.5-.4 0-1.1-.3-2.3-1.4V6z" class="st2"/></g><g id="g148" transform="translate(161.037 195.221)"><path id="path150" d="M-87 5.5c-.5 0-1 .1-1.5.4v-9.8c.5-.9 1-1.3 1.4-1.3.2 0 .6.1 1.2.8.9.9 1.9 1.3 2.9 1.3.7 0 1.4-.2 2.1-.6V6.5c-1.2 1.2-1.9 1.4-2.3 1.4-.2 0-.5-.1-.9-.5l-.3-.3c-.6-.7-1.3-1.6-2.6-1.6" class="st2"/></g><g id="g152" transform="translate(133.586 163.797)"><path id="path154" d="M-85.6 7.1C-88.8 8.2-95.2 11.4-98 19c-.7 2-1.7 1.7-1.5-.4.5-5.5 4-12.1 11.3-15.1 3.1-1.4 4.8 2.8 2.6 3.6" class="st2"/></g><g id="g156" transform="translate(154.873 163.797)"><path id="path158" d="M-86.7 7.1c3.2 1.1 9.6 4.3 12.4 11.9.7 2 1.7 1.7 1.5-.4-.5-5.5-4-12.1-11.3-15.1-3.1-1.4-4.8 2.8-2.6 3.6" class="st2"/></g><g id="g160" transform="translate(152.794 165.417)"><path id="path162" d="M-86.6 7c.4.1 1 .3 1.8.5 2 .7 5.4 2.5 8.1 6-6.1 1.2-12.4 1.8-18 1.8s-11.9-.7-18.1-1.9c2.8-3.6 6.4-5.4 8.3-6.1.6-.2 1.1-.3 1.5-.4.9-.2 1.8-.3 2.9.6 1.1 1 1.3 1.5 5.3 1.5s4.2-.5 5.3-1.5c1.2-.9 2-.7 2.9-.5" class="st2"/></g><g id="g164" transform="translate(174.897 155.084)"><path id="path166" d="m-87.7 7.5-9-14.8c3.4 1.5 8.5 5.3 9 14.8" class="st2"/></g><g id="g168" transform="translate(122.919 139.463)"><path id="path170" d="m-85.1 8.3-9 14.8c.5-9.4 5.6-13.3 9-14.8" class="st2"/></g><g id="g172" transform="translate(172.427 127.462)"><path id="path174" d="M-87.5 8.9c-1.7-1.4-3.1-2.3-4.2-3.1-2.4-1.7-3.3-2.4-3.2-3.7l.4-5.3-3.1 1.4c-2.5 1.1-3.6 2.6-3.8 5-.3 3.7 2 7.6 6.1 10.3 1 .6 1.9 1.1 2.6 1.5.7.4 1.4.7 1.4.9.1.4-.6 1.1-2.9 2.1-.2.1-.7.3-1.1.4l-19.1-31.5-19.1 31.5c-.4-.2-.8-.3-1-.4-2.3-1-3.1-1.7-2.9-2.1.1-.2.7-.6 1.4-.9.7-.4 1.6-.8 2.6-1.5 4.2-2.8 6.5-6.6 6.1-10.3-.2-2.4-1.4-3.9-3.8-5l-3.1-1.4.4 5.3c.1 1.2-.8 2-3.2 3.7-1.1.8-2.4 1.7-4.2 3.1-10.7 8.6-11 19.4-7.9 24 1 1.5 4 4.8 4 4.8l-.5.8c-1.1.1-1.9 1-1.9 2.1 0 1.2 1 2.1 2.1 2.1 1.2 0 2.1-1 2.1-2.1 0-.2 0-.4-.1-.6 0 0 .1 0 0-.1l29-48.5 29 48.5v.1c-.1.2-.1.4-.1.6 0 1.2 1 2.1 2.1 2.1 1.2 0 2.1-1 2.1-2.1s-.8-2-1.9-2.1l-.5-.8s3-3.3 4-4.8c3.2-4.6 2.8-15.5-7.8-24m-1.9 40.9c-1.2-3.4-3.5-6.9-7-9.5 2.8-.9 6.4-.9 8.8.7-.8-2.1-3.4-4.9-5.3-6.7-.3.2-.7.5-.9.8-.8.8-1.4.1-.9-.6.2-.2.6-.9.9-1.1-.6-.5-1-.9-1.1-1-.4.2-.8.6-1 .9-.8.8-1.4.1-.9-.6.2-.2.7-.9.9-1.1-.5-.4-1-.8-1.4-1.1-.9 1.2-1.9 2.4-3.5 1.7-1.6-.8 0-1.9 0-3.5 0-6.4-4-8.8-5.1-11.6-1-2.7-2-7.6-2.8-8.9-.8-1.3-4.2-2.8-5.7-1.6-1.5-1.2-4.9.2-5.7 1.6-.8 1.3-1.8 6.2-2.8 8.9-1 2.7-5 5.1-5 11.6 0 1.6 1.6 2.7 0 3.5-1.5.8-2.5-.5-3.5-1.7-.4.3-1 .7-1.4 1.1.3.2.7.9.9 1.1.5.7-.2 1.4-.9.6-.3-.3-.7-.6-1-.9-.1.1-.5.5-1.1 1 .3.2.7.9.9 1.1.5.7-.2 1.4-.9.6-.2-.3-.6-.6-.9-.8-1.9 1.8-4.4 4.6-5.3 6.7 2.5-1.7 5.8-1.6 8.7-.6-3.5 2.6-5.7 6.1-6.9 9.4-5.5-1.5-10.6-3.5-14.8-5.8V30.2c0-22.1 31.6-47.7 39.8-50 8.1 2.3 39.6 27.9 39.6 50V44c-4.2 2.4-9.3 4.3-14.7 5.8" class="st2"/></g><g id="g176" transform="translate(179.794 180.95)"><path id="path178" d="m-87.9 6.2-9.5 2v-.9h-2.8v.9l-5.3-.8h-.2l-4-.6v14l.7.2v2.3l1.4-1c1-.7 1.5-.9 1.8-.9.5 0 .8.4 1.3 1 .1.1.2.3.4.4.7.7 1.4 1.1 2.1 1.1.9 0 1.9-.5 3.1-1.6 1.2 1.1 2.2 1.6 3.1 1.6.8 0 1.5-.3 2.1-1.1.1-.1.2-.3.4-.4.5-.6.9-1 1.3-1 .3 0 .9.2 1.8.9l1.4 1V21l.7-.2V6.2zm-24.8 6.8c-.1-.4-.7-.6-1.4-.6 0-.4-.1-.8-.2-.9-.4-.5-4.8-3.6-5.5-3.8h-.3c-.2 0-.4 0-.7.1-.2-.7-.6-1.1-1.1-1.1-.5 0-.9.4-1.1 1.1-.3-.1-.6-.1-.8-.1h-.3c-.6.2-5 3.3-5.4 3.8-.1.1-.2.5-.2.8-.7 0-1.3.2-1.4.6-.1.4.2.9.7 1.3-.3.3-.5.8-.5 1 0 .6 1.7 5.6 2.1 6.2.1.1.4.3.8.5-.2.6-.1 1.2.2 1.4.4.2.9.1 1.4-.2.2.4.6.7.8.7.4.1 2.2.2 3 .2 1.2 0 3.3 0 3.7-.2.2-.1.5-.3.7-.6.6.4 1.1.5 1.5.3.3-.2.4-.8.2-1.4.4-.1.8-.4.9-.5.4-.5 2.1-5.5 2.1-6.2 0-.2-.1-.6-.4-.9 1-.6 1.3-1.1 1.2-1.5m-21.2-6.2-4 .6h-.2l-5.3.8v-.9h-2.8v.9l-9.5-2v14.5l.7.2v2.3l1.4-1c1-.7 1.5-.9 1.8-.9.5 0 .8.4 1.3 1 .1.1.2.3.4.4.7.7 1.4 1.1 2.1 1.1.9 0 1.9-.5 3.1-1.6 1.2 1.1 2.2 1.6 3.2 1.6.8 0 1.5-.3 2.1-1.1.1-.1.2-.3.4-.4.5-.6.8-1 1.3-1 .3 0 .9.2 1.8.9l1.4 1v-2.3l.7-.2.1-13.9zm12.1 23.1c-29.3 0-39.7-9-39.7-9V-5.4c4 2 8.7 3.7 13.8 5.1-.1.5-.2 1-.2 1.5-.1 1.4.1 2.5.8 3.2.5.5 1.1.8 1.8.8.8 0 2.1-.4 3-2.7l.6-1.5c6.8 1.4 13.7 2.1 19.8 2.1 6.2 0 13.1-.7 19.9-2.1l.6 1.5c.8 2.4 2.2 2.7 3 2.7.7 0 1.3-.3 1.8-.8.7-.7.9-1.8.8-3.2 0-.5-.1-1-.2-1.5 5.1-1.3 9.8-3 13.8-5V21c.1 0-10.3 8.9-39.6 8.9" class="st3"/></g><g id="g180" transform="translate(168.046 138.203)"><path id="path182" d="M-87.3 8.3c1.3-.7 2.7-1.8 2.7-3.2 0-1.5-1.3-2.2-2.6-2.9-.7-.4-1.5-.7-2.4-1.3-1.3-.9-5.5-4-5.1-8.3.1-1.5.7-2.3 2.2-3l-.2 1.9c-.1 1.9 1.6 3.5 4.1 5.3 1.1.8 2.4 1.7 4.1 3 9.2 7.4 10.2 17 7.5 21.1-.4.5-.9 1.3-1.5 2.1-1-8.4-5.2-12.6-8.8-14.7" class="st3"/></g><g id="g184" transform="translate(111.15 153.665)"><path id="path186" d="M-84.5 7.6c-.6-.8-1.1-1.6-1.5-2.1-2.8-4.1-1.7-13.7 7.5-21.1 1.7-1.3 3-2.3 4.1-3 2.5-1.7 4.2-3.3 4.1-5.3l-.2-1.9c1.5.7 2.1 1.5 2.2 3 .4 4.3-3.8 7.5-5.1 8.3-.9.6-1.7 1-2.4 1.3-1.4.7-2.6 1.3-2.6 2.9 0 1.4 1.4 2.5 2.7 3.2-3.7 2.1-8 6.3-8.8 14.7" class="st3"/></g></g></g></g></svg>