<svg xmlns="http://www.w3.org/2000/svg" viewBox="0 0 565.3 93.1"><path fill="#fab90a" d="m495.5 84.8 9-23.7 1.6 1.3c5.6 4.5 13.1 8.3 20.2 8.5 6.4.1 9.5-1.5 8.7-6.9-.7-4-5.2-4.6-8-5.2l-6.3-1.2c-12-2.3-22.2-9.7-22.2-23.7 0-21.2 18.4-33 37-33 9.7 0 18.6 2.4 27 7.8l-7.9 21c-4.3-3-10.8-7.4-19-7.7-2.8 0-9 1.3-7 7.6.9 2.6 4.7 3.8 7 4.3l7.1 1.7c13.1 3 22.6 10.4 22.6 25.5 0 21.3-18.5 31.9-37 31.9-10.7 0-23.2-3-32.8-8.2M457.8 2.3h31v89.3h-31V2.3M422.2 2.3h32.3l-33 89.3h-26.3L362.3 2.3h32.3l13.8 54 13.8-54M285.7 91.6h32.8l2.5-11.2h23.4l3.1 11.2h32.9L349.6 2.3h-34.4Zm47-63.5c.6 3.8 6.3 31.1 6.3 31.1h-12.4l6.2-31.1M236.4 66h2c10.5 0 18.2-6.2 18.2-17.8 0-12.6-6.8-19.6-18.3-19.6h-2zM205 2.3H237c28.9 0 51 13.1 51 46a41 41 0 0 1-43.3 43.3h-39.5V2.3M186.2 5.1l1.7 14.7c.4 3.5 2.4 11.8 0 10.7-1.6-.7-2.9-4.5-4.2-7.9a72 72 0 0 0-4.5-10.3A42.6 42.6 0 0 0 159.1 6c-20 0-33 14.5-33 40.3C126 64.8 135 87 157.6 87c8.2 0 23.8-2.5 28-14 2-5.2 3.7-9.8 5-8.4.9 1-.3 5.2-.9 7.4-2.7 10.7-2.8 13.9-3.7 14.3a81.6 81.6 0 0 1-35 6.8c-36.6 0-49.3-21.2-49.3-42.4 0-36.7 22.8-52 58.2-50.6 8.9.3 17.8 1.9 26.2 5M78 6.7l-6-2c-2-1.7.5-2.2.5-2.2S81 4 102 2.3c0 0 1.8.3.6 1.8l-7 3c-4.5 1.9-4.5.8-4.5 5.7v45.5C91.2 93.9 54.6 93 47.5 93c-3.4 0-36.7 0-36.7-28.6V16.3c0-8.4 1-8.2-2-9.1L.5 4S-1 2 1.5 2.1c7 .4 17 1.8 40.3.2 0 0 2 .4.8 2l-6.8 1.9c-5.4 2.4-4.7.5-4.8 6l.1 47.5c0 11.7 6 26.1 24.9 26.1C81.9 85.8 82 63.6 82 58.7V11.6c.3-4.4-.2-3.2-4.2-4.9"/></svg>