<svg xmlns="http://www.w3.org/2000/svg" viewBox="0 0 92 44"><path fill="#2774ae" d="M0 0h92v44H0Z"/><path fill="#fff" d="M14.7 26.2a19 19 0 0 1 0-2.2l1-12h3.9l-1 12.1c-.3 2.6.7 4.5 3.3 4.5 2.6 0 4-2 4.2-4.2l1-12.4H31l-1 12.2c-.4 4.7-3.5 8.3-8.4 8.3-3.9 0-6.4-2.6-6.8-6.3M31.9 22.2c.5-5.8 4.3-10.6 10.9-10.6a8.9 8.9 0 0 1 5 1.5l-.4 4.8a5.6 5.6 0 0 0-5-2.4c-4 0-6.3 3-6.6 6.6-.4 3.7 1.4 6.5 5.4 6.5a7.3 7.3 0 0 0 5.5-2.5l-.4 4.9a11 11 0 0 1-5.4 1.5c-6.5 0-9.5-5-9-10.3M51 12h3.8l-1.4 16.3h7.5l-.4 3.8H49.2ZM71 19.5a5.7 5.7 0 0 0 .2-.9 4.6 4.6 0 0 0 .2.9l1.7 6h-4.8l2.6-6m1-8.4h-.2L61 32h4.1l1.5-3.2h7.4L75 32h4.1z"/></svg>