<svg xmlns="http://www.w3.org/2000/svg" viewBox="0 0 43 36"><path fill="#002856" d="M40.75.22h-12.4l-.57 1-6.31 11.1-6.36-11.1-.56-1H.22v35.44l2.75-1.2 8.52-3.69 1.18-.51V22.2l4.13 7.92.55 1.06h8.55l.55-1.08 3.82-7.57v7.73l1.19.51 8.51 3.7 2.75 1.19V.22Zm.99 1.97v31.97l-1.38-.6-8.51-3.69-.6-.25v-11.2l-5.68 11.24-.27.53h-7.36l-.27-.52-5.98-11.48v11.43l-.6.25-8.51 3.7-1.37.6V1.2h12.77l.28.5 7.2 12.6 7.18-12.6.28-.5h12.82z"/><path fill="#daa900" d="m21.47 16.29 8.02-14.1h11.26v30.48l-8.51-3.7V14.3l-7.55 14.9h-3.22Z"/><path fill="#002856" d="m21.47 16.29-8.02-14.1H2.18v30.48l8.52-3.7V14.3l7.54 14.91h3.23z"/></svg>
