<svg xmlns="http://www.w3.org/2000/svg" fill="none" viewBox="0 0 512 512"><path fill="#00458C" d="M0 0h512v512H0z"/><path fill="#fff" d="M107.7 183.2h28.2V280a52 52 0 0 1-6 26.5c-3.9 6.8-9.3 11.7-16.3 14.9-7 3-15 4.6-23.9 4.6-9 0-17-1.5-24-4.6-7-3.2-12.6-8.1-16.5-14.9a53.4 53.4 0 0 1-5.8-26.5v-96.7h28.2V280c0 6.1.7 10.8 2 14.1 1.5 3.3 3.5 5.6 6.2 6.8 2.7 1.2 6 1.7 10 1.7s7.2-.5 9.8-1.7a12 12 0 0 0 6-6.8c1.4-3.3 2-8 2-14v-96.8Zm117 94h28.1a61.4 61.4 0 0 1-6.4 26.7 38.7 38.7 0 0 1-16.5 16.4c-7 3.8-15.7 5.6-25.7 5.6-7.8 0-14.7-1.3-20.8-3.8-6-2.7-11.2-6.5-15.5-11.6-4.2-5.1-7.5-11.4-9.6-18.9a96 96 0 0 1-3.2-26v-23.9c0-9.8 1-18.4 3.3-26a53.9 53.9 0 0 1 10-19 41 41 0 0 1 15.5-11.5c6.1-2.7 13-4 20.7-4a52 52 0 0 1 25.7 5.8 39 39 0 0 1 16 17c3.7 7.3 6 16.3 6.8 26.9h-28.2c-.2-6.7-1-12-2.4-15.8a13.6 13.6 0 0 0-6.1-8 24 24 0 0 0-11.8-2.5c-3.8 0-7 .7-9.7 2-2.7 1.3-5 3.4-6.7 6.3-1.7 3-3 6.7-3.8 11.4-.8 4.7-1.2 10.5-1.2 17.2v24.1c0 6.6.4 12.3 1 17 .8 4.7 1.9 8.5 3.4 11.4 1.6 3 3.7 5.2 6.3 6.5 2.7 1.4 6.2 2 10.3 2 4.7 0 8.6-.7 11.5-2 3-1.5 5.1-4 6.6-7.7 1.4-3.7 2.2-9 2.4-15.7ZM330 287c0-2.5-.3-4.8-.7-6.9-.5-2-1.4-4-3-5.7a25.6 25.6 0 0 0-6.2-5.2 73 73 0 0 0-10.6-5.4c-5.3-2.2-10.3-4.5-15.2-7a71.2 71.2 0 0 1-13.3-8.7c-3.9-3.3-7-7.1-9.3-11.6a35 35 0 0 1-3.4-15.9 35.2 35.2 0 0 1 12.5-28.5c4-3.5 8.6-6.1 14-8a55.1 55.1 0 0 1 41.4 2.8 39.2 39.2 0 0 1 15.4 15.4c3.7 6.5 5.5 14 5.5 22.4H329c0-4-.6-7.5-1.7-10.5-1.1-3.1-3-5.5-5.4-7.3a16 16 0 0 0-9.4-2.6c-3.6 0-6.6.8-9 2.2-2.4 1.5-4 3.4-5.3 6a20.1 20.1 0 0 0-1.6 8.2c0 2.4.6 4.5 1.6 6.3a19 19 0 0 0 4.8 5c2 1.4 4.3 2.8 7 4.1 2.8 1.4 5.8 2.7 9.1 4 6.4 2.5 12 5.3 17 8.3 4.8 3 9 6.3 12.2 10 3.3 3.7 5.8 7.9 7.5 12.5a46.5 46.5 0 0 1-.6 32c-2 4.7-5 8.8-8.8 12.3-3.9 3.4-8.5 6-14 8a61.8 61.8 0 0 1-36.6.1 39.5 39.5 0 0 1-25.7-22.8 52.5 52.5 0 0 1-3.9-20.9h28.4c0 4.3.4 8 1.2 11 .9 3 2.2 5.3 3.9 7.1a17 17 0 0 0 6.4 4c2.6.8 5.5 1.2 8.8 1.2 3.7 0 6.7-.7 8.9-2.1 2.2-1.4 3.8-3.3 4.8-5.7 1-2.4 1.5-5.1 1.5-8.1Zm114.4-9.9h28.2a61.4 61.4 0 0 1-6.4 26.8 38.7 38.7 0 0 1-16.6 16.4c-7 3.8-15.6 5.6-25.7 5.6-7.8 0-14.7-1.3-20.8-3.8-6-2.7-11.2-6.5-15.4-11.6-4.3-5.1-7.5-11.4-9.7-18.9a96 96 0 0 1-3.2-26v-23.9c0-9.8 1.1-18.4 3.4-26a53.9 53.9 0 0 1 9.9-19 41 41 0 0 1 15.5-11.5c6.2-2.7 13-4 20.7-4a52 52 0 0 1 25.7 5.8 39 39 0 0 1 16 17c3.8 7.3 6 16.3 6.8 26.9h-28.2c-.2-6.7-1-12-2.3-15.8a13.6 13.6 0 0 0-6.2-8 24 24 0 0 0-11.8-2.5c-3.7 0-7 .7-9.7 2-2.7 1.3-4.9 3.4-6.6 6.3-1.8 3-3 6.7-3.9 11.4-.8 4.7-1.1 10.5-1.1 17.2v24.1c0 6.6.3 12.3 1 17 .7 4.7 1.8 8.5 3.4 11.4 1.5 3 3.6 5.2 6.3 6.5 2.7 1.4 6.1 2 10.2 2 4.8 0 8.6-.7 11.5-2 3-1.5 5.2-4 6.6-7.7 1.4-3.7 2.2-9 2.4-15.7Z"/></svg>