<svg xmlns="http://www.w3.org/2000/svg" viewBox="0 0 289 55"><path fill="#0e284b" d="M35 28.3c0 8.5-1.3 15-14.2 15s-14.9-6.2-14.9-15V7.6c0-4.6-2-5-5.4-5V1.2h16.3v1.2c-3.3 0-5.4.5-5.4 5.1v20.7C11.4 34.7 13 41 21 41c9 0 10.4-5.2 10.4-12.6V7.6c0-4.6-2-5-5.4-5V1.2h14.3v1.2C37 2.5 35 3 35 7.6v20.7Zm34.3 13.3c-3 1.1-6.5 1.7-11.1 1.7-12.5 0-18.4-9.4-18.4-22.7 0-11.5 3.7-20 17-20 5 0 9.2 1 12 1.8l.5 9.8h-1.5C67 8.7 64.5 3 56.8 3c-10 0-10.9 10.6-10.9 17 0 8 1.8 20.4 15.4 20.4 4.2 0 6.4-1 8-1.5v2.6Zm33.4-31.4c-.6-3.3-3-7.1-9.7-7.1-4.2 0-7.8 2.6-7.8 6.8 0 5.5 7.4 7.3 12.8 10.5 4.9 2.8 8.2 5.4 8.2 11.3 0 7.9-6.9 11.6-15.4 11.6-4.2 0-9.1-1-10.7-1.2l-.4-8.8h1.5c.5 3.3 3.5 7.2 10.1 7.2 5.5 0 9-3.5 9-7.8 0-6.7-10.3-8.8-16-13.2a9.3 9.3 0 0 1-4.1-8.3c0-7.5 6.1-10.5 14-10.5 4.1 0 6.8.5 9.6 1l.4 8.5h-1.5Zm28.9 32.5c-.7.2-2 .5-4 .5-3.3 0-4.2-1.6-4.2-4h-.1c-1.7 2.5-4.1 4-7.9 4s-6.6-2.6-6.6-6.2c0-8 10.4-8 14.6-8.4v-2.1c0-3.9 0-8-4.7-8-3.4 0-3.9 1.4-3.9 3.2 0 2.3-1.6 2.9-2.6 2.9-1.5 0-2.6-1-2.6-2.5 0-3.6 5.3-5.4 9.1-5.4 7.6 0 9 3.6 9 8.8v13.7c0 2 .7 2.6 2.4 2.6l1.5-.2v1.1Zm-8.2-12.3c-2.6 0-9.7.6-9.7 5.7 0 2.9 1.9 4.8 3.8 4.8 3.6 0 5.9-3.5 5.9-7.2v-3.3Zm9.4 11.3c2.3 0 4.2-.5 4.2-4V22.4c0-3.3-2.6-3.4-4.2-3.5v-1l8.5-1.3V24h.1c.8-2 3.3-7.3 8.7-7.3 5.9 0 6.5 3.2 6.5 8.3v12.6c0 3.6 1.8 4.1 4.1 4.1v1H148v-1c2.4 0 4.2-.5 4.2-4V26.2c0-4.8 0-7-3.7-7-3.2 0-7.2 6.3-7.2 11.5v6.8c0 3.6 1.9 4.1 4.2 4.1v1h-12.7v-1Zm34.2-.3c3.4 0 5.5-.4 5.5-5V7.5c0-4.6-2-5-5.4-5V1.2h14.5C192 1.3 203 3.5 203 22s-11.5 20.6-21.3 20.6h-14.5v-1.3Zm11-6.4c0 4.6.5 5.3 3.6 5.3 10.7 0 15.1-5.8 15.1-18.3 0-11.4-3.3-18.3-15-18.3-3.2 0-3.7.4-3.7 5.2V35Zm27.1 6.7c2.4 0 4.2-.5 4.2-4V22.4c0-3.3-2.5-3.4-4.2-3.5v-1l8.6-1.3v21c0 3.5 1.8 4 4.2 4v1H205v-1Zm3-33.3c0-1.7 1.5-3.1 3.2-3.1a3.2 3.2 0 1 1-3.1 3.1Zm29.8 33.8a18 18 0 0 1-6.6 1c-8.6 0-13.4-4.7-13.4-14 0-8 3.3-12.5 11.2-12.5 5 0 9.5 2.7 9.5 9.2V27h-16.1c0 4.6 2.3 14 11.5 14 1.3 0 2.8 0 3.9-.6v1.7Zm-4.2-17c0-2.9-1-6.7-5.3-6.7s-6 4.7-6 6.8h11.3Zm22.9 13.1c2.6 0 8.7 0 8.7 6.2s-6.1 9.8-13.5 9.8c-5.4 0-11-2-11-7 0-3.4 2.5-4.9 4.2-5.8a4.3 4.3 0 0 1-2.3-4c0-2 1.7-4 2.4-4.7-1.3-1-3.3-2.7-3.3-7.4 0-7.2 5.2-8.7 10.5-8.7 2.5 0 4 .4 5.7 1.4.9-2.1 2.2-6 5.6-6 1.5 0 2.6 1 2.6 2.7 0 1.5-1 2.5-2.6 2.5-1.4 0-1.8-.8-2.5-.8-1.2 0-1.7 1.6-2 2.5.7.7 2.5 2.8 2.5 6.6 0 5.6-3.5 8.8-10 8.8-2.3 0-4-.3-5.1-.9-.4.5-1 1.3-1 2.5 0 2.2 2.7 2.2 4.5 2.2h6.5Zm-9.6 3.9c-1.1.8-2.7 1.7-2.7 4.2 0 3.3 3 6.1 7.8 6.1s9.6-2.6 9.6-6.6c0-2.8-2.3-3.7-5-3.7H247Zm4.8-9.7c4.6 0 5.2-3.6 5.2-6.5 0-4.2-1.4-7.5-5.4-7.5-4.3 0-5.2 3.2-5.2 6.4 0 4.2 1.4 7.7 5.4 7.7Z"/><path fill="#0e284b" d="M265.4 30c0-8.3 4.5-13.3 11.6-13.3s11.5 5 11.5 13.3S284 43.2 277 43.2s-11.5-5-11.5-13.2ZM277 41.4c5.5 0 6.6-6.8 6.6-11.4s-1.1-11.5-6.7-11.5-6.6 6.9-6.6 11.5 1.1 11.4 6.6 11.4Z"/><path fill="#c69215" d="M238 52.2H.4v1.4h238.8c-.6-.4-1-.9-1.4-1.4Zm50 0h-21.8l-1.6 1.4H288v-1.4Z"/></svg>