<svg xmlns="http://www.w3.org/2000/svg" viewBox="0 0 116.4 55.9"><path fill="#052049" d="m62.4 35.6.5.4c1.5 1 4.3 2 8.3 3l4 .8a18 18 0 0 1 5.3 1.8c1.1.7 1.7 1.6 1.7 2.9 0 2.1-1.2 3.6-3.4 4.3-1.2.4-2.7.7-4.6.7-3.2 0-5.4-.8-6.7-2.4a7.6 7.6 0 0 1-1.5-3.8h-7.5c0 3.9 1.4 7 4.3 9.2 2.8 2.2 6.7 3.4 11.7 3.4 4.8 0 8.6-1.2 11.3-3.4 2.4-2.1 3.7-4.7 4-7.8v10.6H98V39.6h15.8v-6.4H98.1v-8.8h18.3v-7H89.7v25.8a9 9 0 0 0-3.3-7 17 17 0 0 0-6.5-2.8L73.2 32c-1.2-.3-3.6-.9-5-1.6a3.3 3.3 0 0 1-1.8-3c0-1.6.7-2.6 2-3.5 1.2-.8 3-1.1 4.8-1.1 4.1 0 7.5 1.4 7.8 5.7h7.5c0-4-1.6-7-4.4-9.1A16.8 16.8 0 0 0 73.8 16c-4.8 0-8.5 1.1-11 3.4-1.5 1.3-2.5 3-3.1 4.7l-.2.7-.1.5c-1 4.4-3.8 7.3-8.4 7.3-7.5 0-10.4-6.4-10.4-12.7 0-6.6 2.9-13 10.4-13 4 0 7.7 2.9 8.2 6.7h8.1C66.3 4.9 59.3 0 51 0 39.8 0 33 8 32.4 18.5V.9H24v23.6c0 5.6-1.9 8.2-7.9 8.2-6.7 0-7.8-4-7.8-8.2V.9H0v23.6c0 10.3 6 15.2 16.1 15.2 10.2 0 16.3-5 16.3-15.2v-3C33 31.8 39.8 39.7 51 39.7c4.6 0 8.5-1.4 11.4-4"/></svg>