<svg xmlns="http://www.w3.org/2000/svg" height="30" width="30"><path d="M29 .5l1 .5v13c0 5.552-2.89 8.696-5.995 10.1h.004l-7.62 4.389-.178.101-.086.05.002-.002C14.483 29.546 12.685 30 11 30 6 30 0 26 0 18V6l2 1v11c0 8 6 10 9 10 1.859 0 4.869-.768 6.89-3.255C14.182 23.873 10 20.68 10 14V2.2L2 7 0 6l10-6 1 .5 1 .5v13c0 6.94 4.515 8.612 7.018 8.933.608-1.311.982-2.935.982-4.933V5l2 1v12c0 1.853-.322 3.49-.878 4.914C23.648 22.55 28 20.814 28 14V2.25L22 6l-2-1 8-5z" fill="#02b3e4" fill-rule="evenodd"/></svg>