<svg xmlns="http://www.w3.org/2000/svg" width="82.377" height="82.377" viewBox="0 0 21.796 21.796"><defs><clipPath clipPathUnits="userSpaceOnUse" id="a"><path d="M195.341 686.376h222.296v61.783H195.341z"/></clipPath></defs><g clip-path="url(#a)" transform="matrix(.35278 0 0 -.35278 -68.91 263.934)"><path d="M226.226 748.16c17.057 0 30.885-13.832 30.885-30.892s-13.828-30.892-30.885-30.892c-17.056 0-30.884 13.832-30.884 30.892s13.828 30.891 30.884 30.891" fill="#0f6cb1"/></g><path d="M11.984 17.87c-1.195 0-1.51-.015-1.51-1.63v-3.317c1.189-.31 2.251-1.434 2.251-3.791v-.596c1.831.37 2.797 1.917 2.797 4.356 0 3.733-1.549 4.977-3.538 4.977m-1.51-9.42h1.347c.11 0 .217.004.323.011v.619c0 1.775-.573 2.914-1.67 3.23zm2.256-.468V5.414c0-.276.044-.5.067-.71.055-.475.425-.659.962-.725v-.343h-2.641v.343c.526.066.907.25.963.724.022.21.066.435.066.71v2.558H8.174v.385c1.133.163 1.083.089 1.083 1.466v2.51c-1.212-.288-1.54-1.571-1.54-3.191V5.283c0-1.225-.045-1.16.962-1.304v-.343h-3.01v.343c1.007.145.962.08.962 1.304v3.924c0 2.208.635 3.59 2.626 3.781v3.5c0 1.378.05 1.303-1.083 1.466v.385h3.814c3.122 0 4.973-2.518 4.973-5.48 0-2.923-1.434-4.73-4.231-4.878" fill="#fff"/></svg>