<svg xmlns="http://www.w3.org/2000/svg" width="199.632" height="199.632"><path d="M196.279 111.224c-.701-.562-1.49-.94-2.347-1.103-5.067 5.051-11.25 10.371-16.74 13.946-2.534 1.684-5.72 2.525-7.83 2.525-4.856 0-6.966-4.63-7.6-11.99-.844-9.886-1.414-21.727-1.414-40.028 0-18.77-4.26-31.53-15.608-32.531-.48-.043-.964-.072-1.47-.072-6.966 0-10.344 3.575-14.777 12.622-3.799 7.78-9.71 19.14-20.685 40.595-9.5 18.511-20.054 34.918-29.132 46.277-2.528 3.149-4.526 5.312-6.404 6.542-1.255.826-2.46 1.239-3.727 1.239-3.583 0-6.199-3.023-7.073-10.064-.207-1.673-.317-3.572-.317-5.712 0-14.512 5.49-38.072 14.987-72.78 6.966-25.24 4.012-42.486-11.188-42.486H64.784l-.011.003c-3.442.04-6.295 1.286-9.044 3.45-2.707 2.13-5.416 6.734-7.944 12.922C44.935 41.55 27.604 76.314.02 94.223c-.325 6.81 3.53 13.616 11.34 14.353 7.11.674 12.158-2.322 18.658-6.689a1796.979 1796.979 0 00-2.576 11.668c-.495 2.273-.81 3.735-.903 4.14a116.164 116.164 0 00-1.966 11.812c-3.89 34.766 12.225 51.922 31.096 51.922 3.154 0 6.278-.376 9.382-1.165 20.792-5.271 40.808-29.121 64.5-84.024-.359 5.972-.396 11.55-.138 16.727 1.561 31.465 14.007 40.906 31.591 40.906 13.298 0 25.752-6.94 32.084-15.565 4.646-6.1 6.545-12.832 6.545-18.09 0-4.081-1.294-7.34-3.353-8.994" fill="#ea5252" fill-rule="evenodd"/></svg>