<?xml version="1.0" encoding="UTF-8"?>
<!-- Generator: Adobe Illustrator 21.0.0, SVG Export Plug-In . SVG Version: 6.00 Build 0)  -->
<svg version="1.1" id="Layer_1" xmlns="http://www.w3.org/2000/svg" xmlns:xlink="http://www.w3.org/1999/xlink" x="0px" y="0px" viewBox="0 0 637.7 312.9" style="enable-background:new 0 0 637.7 312.9;" xml:space="preserve">
<style type="text/css">
	.st0{fill:#D51E18;}
</style>
<g>
	<path class="st0" d="M141.7,0.1c19.7-0.1,39.5-0.1,59.2,0c-11.8,42.2-23.4,84.5-35.2,126.8c-0.7,2.1-1,4.8,0.8,6.5   c3.3,3.2,8.1,2.7,12.3,2.7c4.8-0.1,10.1,0.5,14.5-1.9c3.3-2.5,3.5-7,4.7-10.6C209.6,82.4,220.8,41.1,232.5,0   c19.6,0.1,39.2,0,58.8,0.1c-12.4,46.2-25.6,92.2-38.2,138.4c-2.3,7.5-3.6,15.6-8.2,22.2c-3.2,4.7-7.9,8.2-13.3,9.9   c-9.3,3-19.2,3.3-28.9,3.6c-22.9-0.1-45.9,0.1-68.8,0c-10.6-0.4-22.3-3.2-29.1-12c-4-4.8-4.6-11.6-3-17.5   C115,96.5,128.5,48.3,141.7,0.1 M309.1,38.2c3.9-12.7,7-25.6,10.8-38.2c42.6,0.1,85.1-0.1,127.7,0.1c-3.2,12.8-7,25.4-10.5,38.1   C394.5,38.3,351.8,38.3,309.1,38.2 M482,4.2c11-4,22.8-4.2,34.4-4.2c28.8,0,57.7-0.1,86.5,0.1c-3.7,12.6-7,25.4-10.7,38.1   c-21.7,0.2-43.4,0-65.1,0.1c-2.7,0.1-5.6,0.2-8,1.7c-2.6,2-3.3,5.3-4.1,8.3c-7.2,26.4-14.8,52.8-21.9,79.2   c-2.1,4.8,3.1,8.6,7.4,8.4c23.2,0.2,46.3-0.1,69.5,0.2c-3.9,12.6-7,25.5-10.8,38.2c-30.6-0.1-61.2,0-91.8,0   c-9.9,0-20.4-1.5-28.4-7.8c-6.2-4.7-9.7-13.2-7.4-20.8c11.2-40.4,22.4-80.9,33.7-121.3C467.7,15.7,473.3,7.3,482,4.2 M271.6,174.2   c9.8-36.5,20.2-72.9,30.2-109.4c42.7-0.1,85.4,0,128.1,0c-3.8,12.7-7,25.6-10.9,38.3c-22.8-0.2-45.7,0-68.6-0.1   c-6.9,23.7-12.9,47.7-20.1,71.3C310.7,174.1,291.2,174.3,271.6,174.2 M0,312c1.5-6.4,3.4-12.7,5.1-19.1c84.7-0.1,169.4,0,254.1,0   c-1.8,6.4-3.1,13.1-5.6,19.3C169.1,311.8,84.5,312.1,0,312L0,312z"/>
	<path d="M128.5,208.5c9.6-1.5,19.3,0.4,28.6,2.6c-1.4,4.4-3.1,8.7-4.6,13c-7-1.7-14.2-2.7-21.3-2.5c-4.8,0.1-9,3.5-10.2,8.2   c-2.6,8.8-5.1,17.7-7.5,26.6c-1.1,3.1-0.3,7.2,3.3,8.1c4.8,1.1,9.8,0.2,14.6-0.7c1.1-3.9,2.2-7.7,3.3-11.5c-3.1,0-6.2,0.1-9.4,0.1   c1.1-4,2.3-8,3.2-12.1c7.8-0.4,15.7-0.1,23.5-0.2c-3.2,11.3-6,22.7-9.6,33.9c-9.4,3.8-19.7,4.8-29.7,4c-6.2-0.6-13.2-3.6-14.9-10.1   c-1.6-7.7,2.2-14.9,3.8-22.3c2.4-7.9,3.9-16.2,7.2-23.8C112.2,214,120.3,209.4,128.5,208.5 M507,208.3c15.5-2,31.3-0.6,46.4,3   c-2,6.4-3.8,12.8-6,19.1c-9.7-2.3-19.7-3.6-29.6-3.6c-3.9,0.2-8.5,0.3-11.1,3.6c-2.5,4.2-3.8,9.1-3.9,14c0.8,2.8,3.9,3.8,6.4,4.6   c9,2.8,19.1,4,26.5,10.4c5.5,4.9,4.4,13,2.9,19.4c-2.7,10.2-5.7,21.6-14.8,28.1c-9.4,6.4-21.4,6.8-32.4,6.7   c-9.8-0.8-19.8-2.7-28.8-6.7c2.4-5.8,4.6-11.6,6.8-17.4c11.9,3.8,24.7,6.5,37.2,4.2c6.6-1.8,8.2-9.3,9.3-15.1   c0.9-2.7-0.9-5.4-3.4-6.4c-9.3-4.1-20.5-4.3-28.4-11.4c-5.5-5-5-13.1-3.6-19.7c2-8.2,4.3-16.5,9.2-23.5   C493.6,211.8,500.4,209.2,507,208.3 M590.7,208.3c15.7-2.1,31.6-0.7,47,2.9c-2.1,6.3-4,12.6-6,19c-11.8-2.3-24-4.7-36-2.8   c-4.7,0.6-6.7,5.5-7.7,9.5c-1,3.5-2.6,8.7,1.8,10.6c10,4.3,22,4.5,30.4,12.1c5.6,5.7,3.8,14.3,2,21.1c-2.7,10.7-6.8,22.7-17.4,28   c-10.8,5.3-23.4,5.5-35.1,4.3c-7.9-1.3-15.9-2.7-23.1-6.3c2.4-5.7,4.6-11.5,6.8-17.3c12,3.8,24.9,6.8,37.4,4.1   c6.4-1.9,7.9-9.3,9.1-14.9c0.9-2.6-0.7-5.3-3.1-6.3c-9.5-4.4-21.2-4.4-29-12c-4.8-4.6-4.8-12-3.4-18.1c1.9-8.5,4.3-17.2,9.2-24.4   C577.5,212.1,584.1,209.3,590.7,208.3 M83.9,209c5,0.1,10.1,0.1,15.1,0c-6.5,22.7-12.5,45.6-19.1,68.3c-4.9-0.3-9.9-0.2-14.8,0   C71.1,254.5,77.6,231.8,83.9,209 M174,209c5,0.1,10,0.1,15,0c-2.5,9.2-5.1,18.3-7.6,27.5c7.3,0.1,14.6-0.1,21.9,0.1   c3.1-9.1,5-18.6,8.1-27.7c4.9,0.3,9.9,0.2,14.8,0.1c-6.3,22.7-12.6,45.5-18.9,68.2c-5,0.2-9.9,0.1-14.9,0.2   c2.1-9.4,5.2-18.5,7.3-27.8c-7.3,0.2-14.7,0-22,0.1c-2.8,9.2-4.9,18.6-7.9,27.7c-4.9-0.3-9.9-0.2-14.8-0.1   C161.4,254.5,167.7,231.7,174,209 M29.1,209c14.5,0,29,0.1,43.5,0c-1.2,4.4-2.5,8.8-3.7,13.3c-9.5-0.1-18.9,0-28.4-0.1   c-1.4,5.1-2.9,10.1-4.3,15.2c8.8-0.1,17.6,0,26.4-0.1c-1.3,4.4-2.6,8.8-3.7,13.2c-8.8-0.1-17.5,0-26.2-0.1   c-2.7,8.9-5,17.9-7.5,26.9c-5,0.1-10.1,0.1-15.1,0.1C16.5,254.6,22.7,231.8,29.1,209 M230.4,222.2c1.4-4.4,2.5-8.8,3.8-13.2   c17.4,0.1,34.9,0.1,52.3,0c-1.4,4.4-2.5,8.9-3.9,13.3c-6.1-0.2-12.3-0.1-18.4-0.1c-5.1,18.3-10.3,36.6-15.2,55   c-5.1,0.3-10.2,0.2-15.3,0.2c5.1-18.4,10.1-36.8,15.3-55.1C242.9,222.1,236.7,222.2,230.4,222.2 M307.2,209.1   c13.7-0.2,27.4-0.1,41-0.1c9.4,0.2,20.6,1.6,26.5,9.9c4.8,7.2,2.6,16.1,0.3,23.7c-3.2,11.7-6,25.3-17.2,32.1   c-14.4,8.2-31.6,5.1-47.4,5.6c-3.1,10.5-6,21-8.8,31.5c-7.7,0.1-15.3,0-23,0.1C288.3,277.7,297.7,243.4,307.2,209.1 M324.9,229   c-3.6,10.5-6,21.4-9.1,32.1c8.4-0.4,16.9,0.6,25.3-0.6c8.1-1.8,9.2-11.1,11.1-17.7c1.4-4.3,2.9-11.1-2.7-13   C341.4,228.2,333.1,229.1,324.9,229 M415.9,209c10.4,0,20.9,0,31.3,0c1.4,34.3,2.8,68.7,4.4,103c-8.1,0.1-16.2,0-24.3,0   c-0.1-6.7-0.1-13.5-0.1-20.2c-11.8-0.4-23.6-0.1-35.3-0.2c-4,6.7-7.6,13.7-11.7,20.4c-8.2-0.2-16.4-0.1-24.6,0   C375.9,277.8,395.8,243.3,415.9,209 M402,272.9c8.3,0,16.6-0.1,24.9,0c0.1-14.9,0.1-29.8,0.2-44.7   C418.3,242.8,410.5,258.1,402,272.9L402,272.9z"/>
</g>
</svg>