<svg xmlns="http://www.w3.org/2000/svg" viewBox="0 0 256 256"><defs><linearGradient id="b" x1="106.3" x2="194" y1="265.3" y2="153.2" gradientUnits="userSpaceOnUse"><stop stop-color="#C2C4CE"/><stop offset=".4" stop-color="#D6D9E2"/><stop offset="1" stop-color="#fff"/></linearGradient><linearGradient id="c" x1="106.3" x2="194" y1="265.3" y2="153.2" gradientUnits="userSpaceOnUse"><stop stop-color="#C2C4CE"/><stop offset=".4" stop-color="#D6D9E2"/><stop offset="1" stop-color="#fff"/></linearGradient><linearGradient id="d" x1="106.3" x2="194" y1="265.3" y2="153.2" gradientUnits="userSpaceOnUse"><stop stop-color="#C2C4CE"/><stop offset=".4" stop-color="#D6D9E2"/><stop offset="1" stop-color="#fff"/></linearGradient><radialGradient id="a" cx="0" cy="0" r="1" gradientTransform="matrix(0 256 -256 0 128 0)" gradientUnits="userSpaceOnUse"><stop stop-color="#006FFF"/><stop offset="1" stop-color="#003C9E"/></radialGradient></defs><path fill="url(#a)" d="M0 0h256v256H0z"/><path fill="url(#b)" d="M188 67h-8v8h8v-8Z"/><path fill="url(#c)" d="M160 123v-16h16v16h16v5c0 6-.5 12.9-1.6 18.3a57 57 0 0 1-6.8 17.4 62.8 62.8 0 0 1-6.7 9.5l-.1.2-.2.3-2 2.1a63.2 63.2 0 0 1-2.3 2.4 63.6 63.6 0 0 1-88.5 0 63.2 63.2 0 0 1-2.5-2.4l-2-2.2-.2-.4a62.7 62.7 0 0 1-6.7-9.5A64.4 64.4 0 0 1 64 128V68h32v60.9l.4 5.3a34.9 34.9 0 0 0 6 17 32.2 32.2 0 0 0 30 12.5 32.2 32.2 0 0 0 23.4-15.9 45.8 45.8 0 0 0 4.1-18.9v-.3l.1-5.6Z"/><path fill="url(#d)" d="M164 79h12v12h16v16h-16V91h-12V79Z"/></svg>
