<svg xmlns="http://www.w3.org/2000/svg" fill="#fff" width="1024" height="1024"><path d="M682.2 194v541.6c0 28-2.8 57.8-8.4 87 136.8-25 226-109.6 271.2-256.8l22-72V.6c-258 0-284.8 99-284.8 193.4zM227.8 57h57v56.2h-57zm57 85h57v56.4h-57zm-56.6 70.8h56.4V269h-56.4zm-57 84.4h56.4v56.4h-56.4zM57 0h57v57H57zm284.8 735.6V325.4h-57v209.8h-57V409.8H171V466h-57V155.8H57v464C57 850.6 226 1024 512 1024c0 0-170.2-93.8-170.2-288.4zM552 852.8c-76-3.4-134.4-22.8-179.6-50.6 30.6 133 145.2 198.4 150.8 201.6l33.8 18.6c258.6-17.2 410-184.2 410-402.6v-47.4c-61.4 200.6-204.6 290-415 280.4zm-380.8-739h56.2V170h-56.2z" fill="#0559c9"/></svg>