<svg xmlns="http://www.w3.org/2000/svg" xmlns:xlink="http://www.w3.org/1999/xlink" width="93.322" height="93.322"><defs><path id="a" d="M66.458.01L87.11.138a6.25 6.25 0 016.212 6.25v18a6.25 6.25 0 01-6.25 6.25H67.404a3.994 3.994 0 01-2.909-1.259L50.83 14.828 63.52 1.275A3.993 3.993 0 0166.458.01zM76.95 3.17c-4.337 0-9.043 2.097-9.077 6.949h4.404c.034-2.065 2.42-3.213 4.74-3.213 3.026 0 5.346 1.18 5.346 3.672 0 2.655-3.261 2.95-5.043 2.95-4.64 0-9.547 1.574-9.547 6.851v6.032h19.06V22.38H72.21v-1.967c0-2.491 3.16-2.983 5.11-2.983 4.942 0 9.446-1.114 9.446-6.95 0-5.441-5.11-7.31-9.816-7.31z"/></defs><g transform="translate(0 30.814)" fill="#02254f"><path d="M13.946 31.693c7.892 0 13.587-4.705 13.587-13.893V0h-5.875v17.8c0 5.326-2.78 8.567-7.667 8.567-4.888 0-8.117-2.974-8.117-8.567V0H0v17.8c0 9.366 6.412 13.893 13.946 13.893zm24.824-1.056V17.069l13.192 13.568h7.339v-.35l-15.173-15.45L58.13.175V0h-7.383L38.77 12.955V0h-5.943v30.637z"/><use xlink:href="#a" width="100%" height="100%" fill-rule="evenodd"/></g></svg>