<svg xmlns="http://www.w3.org/2000/svg" version="1.1" id="svg16483" width="63" height="63"><defs id="defs16417"><style id="style16415">.cls-3{fill:#092665}</style></defs><g id="g17113" transform="translate(0 14.869)"><path class="cls-3" d="M15 30.71a15.06 15.06 0 01-10.57-4.12A13.17 13.17 0 010 16.64v-14h.82A6.7 6.7 0 015.56 4.5 6 6 0 017.53 9v7.66a6.84 6.84 0 002.2 5.12A7.21 7.21 0 0015 23.9a7.21 7.21 0 005.28-2.15 6.9 6.9 0 002.19-5.11V9a6 6 0 012-4.48 6.69 6.69 0 014.74-1.87H30v14a13.17 13.17 0 01-4.42 10A15 15 0 0115 30.71" id="path16475"/><path class="cls-3" d="M63 30.71h-7.57v-3.1a6.88 6.88 0 00-2.2-5.11A7.21 7.21 0 0048 20.36h-2.9v10.35h-7.52V2.55h.81a6.67 6.67 0 014.74 1.87 6 6 0 012 4.47v4.65H48a7.18 7.18 0 005.28-2.15 6.88 6.88 0 002.2-5.11V2.55H63v3.74a13.11 13.11 0 01-1.62 6.33A14.37 14.37 0 0157.7 17a14.41 14.41 0 013.65 4.34A13.1 13.1 0 0163 27.61z" id="path16477"/></g></svg>