<svg xmlns="http://www.w3.org/2000/svg" viewBox="0 0 90 90"><path fill="#fff" opacity="0" d="M0 0h90v90H0z"/><path fill="#2877fe" d="M0 0h16v90H0z"/><path fill="#5d39f9" d="M16 0h17v90H16z"/><path fill="#b117fb" d="M33 0h17v90H33z"/><path fill="#c823b2" d="M50 0h17v90H50z"/><path fill="#ff7539" d="M67 0h17v90H67z"/><path fill="#ffae00" d="M84 0h6v90h-6z"/><path d="M78.333 22L84 27.778V74H55.667L50 68.222V45.111l5.667-5.778h17v-5.778H50V22h28.333zM72.5 51.5h-11v11h11v-11zM0 62h6v12H0zm10-40l11 .056v41L33 63V22h11v52H15.667L10 68.222z" fill="#fff"/></svg>