<svg xmlns="http://www.w3.org/2000/svg" viewBox="0 0 156.466 157" width="32.1" height="32.1"><path d="M112.103 122.182a36.15 36.15 0 01-32.09-19.5 2 2 0 00-3.55 0 36.17 36.17 0 11.37-32.58 17.91 17.91 0 00.84 24.56.8.8 0 001.12 0 17.91 17.91 0 00.84-24.56 36.16 36.16 0 1132.46 52.07z" fill="#fff"/><path d="M155.733 33.082a3.27 3.27 0 00-4.63 0l-5.37 5.38a78.49 78.49 0 00-135 0l-5.41-5.38a3.27 3.27 0 00-5.59 2.32v43.07a78.5 78.5 0 00157 0v-43.07a3.27 3.27 0 00-1-2.32zm-43.67 89.09a36.15 36.15 0 01-32.09-19.5 2 2 0 00-3.55 0 36.17 36.17 0 11.37-32.58 17.91 17.91 0 00.84 24.56.8.8 0 001.12 0 17.91 17.91 0 00.84-24.56 36.16 36.16 0 1132.46 52.07z"/><path d="M43.073 57.832a15.83 15.83 0 11-3 0 22.83 22.83 0 103 0z" fill="#18a5d6"/><path d="M44.983 60.662a6 6 0 012.27 4.72 5.69 5.69 0 01-11.37 0 6 6 0 012.18-4.57l.34-.33a4.05 4.05 0 001.63-2.61 15.47 15.47 0 103 0h-.12c.12.9 1.11 1.92 2.07 2.79z" fill="#18a5d6"/><path d="M44.983 60.662a6 6 0 012.27 4.72 5.69 5.69 0 01-11.37 0 6 6 0 012.18-4.57l.34-.33a4.05 4.05 0 001.63-2.61 15.47 15.47 0 103 0h-.12c.12.9 1.11 1.92 2.07 2.79z" fill="#004e69"/><path d="M116.293 57.842a15.48 15.48 0 11-2.92 0 23 23 0 102.92 0z" fill="#f01446"/><path d="M118.313 60.662a6 6 0 012.27 4.72 5.69 5.69 0 01-11.37 0 6 6 0 012.18-4.57l.34-.33c.87-.84 1.56-1.51 1.63-2.59a15.82 15.82 0 102.92 0c.11.9 1.08 1.91 2.03 2.77z" fill="#f01446"/><path d="M118.313 60.662a6 6 0 012.27 4.72 5.69 5.69 0 01-11.37 0 6 6 0 012.18-4.57l.34-.33c.87-.84 1.56-1.51 1.63-2.59a15.82 15.82 0 102.92 0c.11.9 1.08 1.91 2.03 2.77z" fill="#8b0020"/></svg>