<svg xmlns="http://www.w3.org/2000/svg" fill="#0d274d" viewBox="0 0 50 50"><path d="M30.9 18.1c-.1 0-.7-.4-1.6-.4-1.2 0-2.1.9-2.1 2s.8 2 2.1 2c.9 0 1.5-.4 1.6-.4v2c-.2.1-.9.3-1.7.3-2.1 0-4-1.5-4-3.9 0-2.2 1.7-3.9 4-3.9.9 0 1.5.2 1.7.3v2zm-19.7 0c-.1 0-.7-.4-1.6-.4-1.2 0-2.1.9-2.1 2s.8 2 2.1 2c.9 0 1.5-.4 1.6-.4v2c-.2.1-.9.3-1.7.3-2.1 0-4-1.5-4-3.9 0-2.2 1.7-3.9 4-3.9.9 0 1.5.2 1.7.3v2zm29.7 1.6c0 2.1-1.7 3.9-4 3.9s-4-1.7-4-3.9c0-2.1 1.7-3.9 4-3.9 2.3.1 4 1.8 4 3.9m-4-1.9c-1.1 0-2 .9-2 2s.8 2 2 2c1.1 0 2-.9 2-2s-.9-2-2-2m-14-.1s-.8-.2-1.5-.2c-.8 0-1.2.3-1.2.6 0 .5.6.6.9.7l.5.2c1.2.4 1.8 1.2 1.8 2.1 0 1.9-1.7 2.5-3.1 2.5-1 0-1.9-.2-2-.2v-1.7c.2 0 1 .3 1.8.3.9 0 1.4-.3 1.4-.7 0-.4-.4-.6-.8-.7-.1 0-.3-.1-.4-.1-1.1-.3-1.9-1-1.9-2.2 0-1.4 1-2.3 2.8-2.3.9 0 1.8.2 1.8.2l-.1 1.5zM3.5 7.9c0-.5-.5-.9-1-.9s-.9.4-.9.9v2c0 .5.4.9.9.9s.9-.4.9-.9l.1-2zm5.1-2.6c0-.5-.4-.9-.9-.9s-.9.4-.9.9v4.6c0 .5.4.9.9.9s.9-.4.9-.9V5.3zm5.2-3.5c0-.5-.4-.9-.9-.9s-.9.4-.9.9v10c0 .5.4.9.9.9s.9-.4.9-.9v-10zm5.1 3.5c0-.5-.4-.9-.9-.9s-.9.4-.9.9v4.6c0 .5.4.9.9.9s.9-.4.9-.9V5.3zm5.2 2.6c0-.5-.4-.9-.9-.9s-.9.4-.9.9v2c0 .5.4.9.9.9s.9-.4.9-.9v-2zm5.2-2.6c0-.5-.4-.9-.9-.9s-.9.4-.9.9v4.6c0 .5.4.9.9.9s.9-.4.9-.9V5.3zm5.1-3.5c0-.5-.4-.9-.9-.9s-.9.4-.9.9v10c0 .5.4.9.9.9s.9-.4.9-.9v-10zm5.2 3.5c0-.5-.4-.9-.9-.9s-.9.4-.9.9v4.6c0 .5.4.9.9.9s.9-.4.9-.9V5.3zm5.1 2.6c0-.5-.4-.9-.9-.9s-.9.4-.9.9v2c0 .5.4.9.9.9s.9-.4.9-.9v-2zM13.8 16h1.9v7.5h-1.9zM70 17.6h1.3"/></svg>
