<svg xmlns="http://www.w3.org/2000/svg" width="40" height="40"><path d="M3.333.077L2.171 8.914l-.078 30.853 22.17.155 13.644-1.084-.543-16.668-1.162-9.612.542-11.163L3.334.077zm13.08 27.946l3.591.09-1.167-7.095 8.455 1.805-7.377-7.553 7.817 1.702-7.368-7.54 5.575 1.115-6.294-6.862-6.726 6.32 4.092-1.25L10.348 18.8l5.615-3.26-4.769 9.313 5.986-3.585-.768 6.756zm-10.868 4.85l.809 1.437 4.31-1.976 4.85 2.604 4.4-2.425 4.311 1.977 4.67-2.605 4.58 1.706.719-1.436-5.03-2.335-5.298 2.335-3.951-1.886-3.862 1.976-5.568-1.976-4.94 2.604z" fill-rule="evenodd"/></svg>