<svg xmlns="http://www.w3.org/2000/svg" fill="#539ca6" viewBox="0 0 47.625 61.302"><path d="M46.09 31.39a6.566 6.566 0 0 1-10.06.001c-2.653-3.16-5.286-7.3-9.497-8.443a10.4 10.4 0 0 0-5.443 0c-4.21 1.142-6.843 5.283-9.494 8.443a6.566 6.566 0 1 1-10.059-8.443Q9.422 13.549 17.31 4.152C18.86 2.308 20.235.501 22.757.085a6.616 6.616 0 0 1 2.11 0c2.523.416 3.898 2.222 5.449 4.067l15.772 18.796a6.565 6.565 0 0 1 .001 8.44zm0 27.566a6.566 6.566 0 0 1-10.06.001c-2.653-3.16-5.286-7.3-9.497-8.443a10.4 10.4 0 0 0-5.443 0c-4.208 1.142-6.843 5.283-9.494 8.443a6.566 6.566 0 1 1-10.059-8.443q7.885-9.399 15.772-18.795c1.55-1.845 2.926-3.652 5.448-4.068a6.621 6.621 0 0 1 2.11 0c2.523.416 3.898 2.222 5.449 4.068l15.772 18.795a6.565 6.565 0 0 1 .001 8.44z"/></svg>