<svg xmlns="http://www.w3.org/2000/svg" version="1.1" id="Layer_1" x="0" y="0" xml:space="preserve" width="106.4" height="106.4"><style type="text/css" id="style41514">.st0{fill:#303030}</style><g id="g42113" transform="translate(-7.6 -14.3)"><path class="st0" d="M60.8 14.3c-29.4 0-53.2 23.8-53.2 53.2 0 29.4 23.8 53.2 53.2 53.2 29.4 0 53.2-23.8 53.2-53.2 0-29.4-23.8-53.2-53.2-53.2zm-1.9 74.1L55 99.9c-.1.4-.3.7-.5 1-.5.8-1.1 1.4-1.9 1.8-.7.4-1.5.6-2.3.6-.5 0-1.1-.1-1.6-.3-2.2-.8-3.6-3-3.3-5.2-11-5.6-18.5-17.1-18.5-30.3 0-18.8 15.2-34.1 34.1-34.1 2.2 0 4.3.2 6.4.6 1.2-1.9 3.6-2.8 5.8-2.1 1.2.4 2.1 1.2 2.7 2.2.5.9.8 1.9.7 3 0 .4-.1.8-.2 1.1l-3.9 11.5zm4.3 13.1l4.7-14.2c8.1-2.9 13.9-10.6 13.9-19.8 0-4.3-1.3-8.4-3.6-11.7l4.7-14.2c7.3 6.2 12 15.5 12 25.9-.1 18-14 32.7-31.7 34z" id="path41524"/><path class="st0" d="M39.8 67.5c0 7.4 3.9 13.9 9.7 17.7l13.2-38.6c-.6-.1-1.3-.1-1.9-.1-11.6 0-21 9.4-21 21z" id="path41526"/></g></svg>