<svg width="32" height="32" xmlns="http://www.w3.org/2000/svg" xmlns:xlink="http://www.w3.org/1999/xlink"><defs><radialGradient cx="50%" cy="50%" fx="50%" fy="50%" r="50%" id="a"><stop stop-color="#A02520" offset="0%"/><stop stop-color="#811E19" offset="100%"/></radialGradient><path id="b" d="M0 16a16 16 0 1 0 32 0 16 16 0 0 0-32 0Z"/></defs><g fill="none" fill-rule="evenodd"><use fill="url(#a)" xlink:href="#b"/><use xlink:href="#b"/><use xlink:href="#b"/><path d="m8.75 18 .5-4h14l-.5 4h-14Zm-.25 2-.37 3c-.07.55.32 1 .88 1h12.98l.5-4H8.5Zm1-8 .37-3c.07-.56.58-1 1.14-1H24l-.5 4h-14Z" fill="#F1F1F1"/><path d="M22.46 14h.79l-.5 4h-.78l.5-4Zm-1.22 10H22l.5-4h-.76l-.49 4ZM23.2 8H24l-.5 4h-.8l.5-4Z" fill="#AAA"/></g></svg>