<svg xmlns="http://www.w3.org/2000/svg" width="64.067" height="64.067" viewBox="0 0 16.951 16.951"><path d="M8.056 6.361c-.19-.204-1.222-.318-.82-.527-.021.012-.04.02.005-.003.041-.02.023-.011.003 0 .226-.11.748.102.972.17-.605-.844-1.396-.517-1.484.355-.077.676 1.258-.057 1.32.006h.004zM7.17 6.36c-.052-.297.462-.05 0 0zm.07-.528V5.83l-.012.003s0-.002.006-.003v.006zm7.517 6.014c-.006-.004-.006-.004 0-.002l-.019-.009.116.061-.103-.056v.006zm-9.41-.491c.042-.025.286-.147 0 0zM8.475 0C3.803 0 0 3.803 0 8.476c0 4.673 3.803 8.475 8.476 8.475 4.672 0 8.475-3.802 8.475-8.475S13.151 0 8.476 0zM.735 8.476c0-4.27 3.472-7.743 7.74-7.743 4.27 0 7.743 3.474 7.743 7.743a7.689 7.689 0 01-1.02 3.832 1.1 1.1 0 00-.436-.464c-.012-.01-.025-.016-.04-.027a20.433 20.433 0 01-1.823-1.314c-.721-.593-1.497-1.253-1.968-2.071-.152-.265-.293-.59-.213-.898.097-.368.507-.516.812-.67.465-.237.96-.467 1.32-.852.403-.434.483-1.001.342-1.562-.299-1.203-1.65-2.077-2.731-2.49-.623-.236-1.21-.247-1.87-.226-.74.028-1.473.1-2.188.292-1.191.313-2.572 1.023-3.037 2.237-.207.535-.317 1.144-.22 1.717.11.66.636 1.005 1.198 1.302.263.138.55.253.843.303.239.037.501.006.728.11.275.12.397.462.69.537-.061-.016.599-.456.617-.345-.06-.318-.683.142-.77-.302-.067-.324.406-.039.446-.066.12-.11-.275-.424-.359-.49.186.15-.353.419-.573.314.149-.302.248-.847.253-.935.05-.489.092-1.132.447-1.511.348-.373.778-.143 1.1.12.28.227.556.465.818.715.196.19.501.428.587.697.033-.092.07-.183.126-.269.145.202.28.446.03.611-.093.061-.198.11-.297.171-.152.098-.03.214.007.373.097.397.018.795-.282 1.088-.394.385-1.289.703-1.829.458-.088-.037-.12-.092-.082-.183.035-.067.165-.257.09-.336-.055-.055-.116 0-.156.049-.28.317-.159.739.281.763.098.007.802 0 .483.239-.275.208-.636.318-.96.428-.28.097-.572.177-.846.287-.572.232-1.072.605-1.5 1.039a8.443 8.443 0 00-1.657 2.401A7.714 7.714 0 01.684 8.476l.027.033zm3.044 3.77c0-.002.002-.006.004-.006l.006-.004.025-.028-.025.034c.294-.358.715-.66 1.076-.946.238-.187.476-.373.727-.54.128-.082.33-.236.489-.22-.067-.02-.514-.048-.459-.12.117-.141.318-.231.471-.313.196-.098.403-.192.611-.242.202-.038.244.11.263.291.098.82-1.094.946-1.607 1.21-.11.066-.226.187-.33.27a11.6 11.6 0 01-.727.543c-.178.132-.38.292-.593.368-.202.077.055-.246.091-.291l-.006-.006zm.261 1.044c.8-.324.821-1.493 1.711-1.738.516-.14.613.359.58.76-.05.608-.268 1.221-.534 1.767-.078.16-.449.986-.737.829.019.01.03.017.043.022-.012-.006-.024-.012-.037-.022v-.002H5.06c.019.008-.012-.011-.091-.055-.08-.05-.165-.104-.245-.161a1.294 1.294 0 01-.305-.3.468.468 0 01-.037-.495c.159-.287.477-.397.672-.63 0 .037.006.08.018.123.098-.11.19-.214.288-.318.085.03-.47.972-.404 1.02.061.037.477-.904.563-.86.067.036-.318.928-.355 1.032-.098.305.324-.11.379-.19.22-.324.36-.709.458-1.087.086-.318.184-.71.092-1.027-.098-.348-.452-.153-.648.006-.269.214-.464.507-.654.782-.177.281-.36.66-.623.874-.336.269-.85-.367-.85-.672 0-.232.208-.122.3-.024.104.116.293.427.483.354l-.025-.012zm.978 1.596c.014.012.023.012.028.019-.006-.007-.01-.007-.012-.013l-.017-.012.002.012zm3.288-5.243c.528-.183 1.13-.122 1.613-.44-.045.654-1.184.972-1.739.837.64.165 1.348-.018 1.948-.25-.142.305-.637.477-.923.587-.333.128-.868.317-1.21.128-.422-.226.024-.752.311-.856zM9.34 5.457a.396.396 0 01-.322-.293c-.363.238.105.318.077.556-.027.263-.286-.104-.334-.165-.392-.44-.737-.929-1.144-1.356.302-.061.598-.019.84.183.187.153.32.373.535.501.29.165.63.006.89-.153.17-.11.372-.122.516.037.248.263.314.8.198 1.13-.043.135-.142.196-.258.092-.098-.085-.16-.202-.22-.312-.294.007-.544-.11-.807-.213l.025.012zm-.171 6.331c.236-.14.49-.244.745-.354.133-.055.278.08.369.17.47.49.855 1.602 1.692 1.522.44-.042.82-.372 1.137-.653.116-.104.532-.593.727-.495a2.298 2.298 0 01-.562.696c-.025.019-.037.037-.049.043l-.128.116.085-.073c-.024.018-.012.012.012-.006-.336.305-.653.623-.99.922-.152.14-.372.324-.592.27-.275-.074-.477-.392-.63-.6-.317-.421-.586-.996-1.063-1.252-.709-.38-1.149.69-1.38 1.167-.068.14-.166.3-.172.428-.006.103-.043.201-.067.305l-.122.479c-.019.058-.098.229-.074.29-.042-.11.263-.508.318-.6.086-.152.275-.37.287-.556-.018.18-.311 1.027-.134 1.127-.067-.037.3-1.48.458-1.437.21.055-.257 1.357-.037 1.534a3.714 3.714 0 01.062-.324c.031-.238.063-.482.113-.715.015-.091.036-.348.142-.39.098-.048.143.39.318.39.23 0 .087.764.06.868-.085.36-.292.88-.726.917-.336.03-.648.11-.978.165a1.876 1.876 0 01-.578.023 1.268 1.268 0 01-.303-.07c-.165-.06-.061-.154-.025-.293.19-.67.19-1.445.587-2.041.391-.587.8-1.13 1.415-1.515l.042-.041z" color="#000" overflow="visible"/></svg>