<svg xmlns="http://www.w3.org/2000/svg" width="22.9" height="22.9"><path d="M12 6c0-.1 0-.1 0 0 .2-.3.1-.5 0-.6s-1.9-1.2-1.9-1.2c-.1 0-.2-.2-.2-.4 0-.3.2-.5.5-.6 1.1-.3 5.1-.5 6.5-.5h2C16.9 1 14.3 0 11.5 0 5.2.1.1 5.2.1 11.5c0 2.8 1 5.3 2.6 7.3 1.4-2.1 5-7.1 5.7-8.2l3.3-4.3zM4.5 20.5a11.11 11.11 0 006.9 2.4c6.3 0 11.4-5.1 11.4-11.4 0-1.9-.5-3.7-1.3-5.3.4-.4.8-1 .5-1.7-.1-.2-.5-.7-.6-.9.3.8-.3 1.4-.7 1.7-.2.2-3.1 2.9-6.5 5.9-3 2.6-6.3 5.3-8.3 6.7-2.7 2-3.3 2.3-3.3 2.3-.1 0-.2.1-.3.1-.2 0-.3-.1-.4-.2v.1c.3.5.8 1 1.1 1 .1 0 .2 0 .3-.1.2.1.4 0 1.2-.6z" fill="#e3000f"/><path d="M12 5.9c.2-.3.1-.4 0-.5s-1.9-1.2-1.9-1.2c-.1 0-.2-.2-.2-.4 0-.3.2-.5.5-.6 1.1-.3 5.1-.5 6.5-.5l2.7.1c.9.1 1.6.3 1.8.7.3.9-.2 1.4-.6 1.8l-6.5 5.9c-3 2.6-6.3 5.3-8.3 6.7-2.7 2-3.3 2.3-3.3 2.3-.1 0-.2.1-.3.1a.47.47 0 01-.5-.5c0-.1 0-.2.1-.3l6.3-9 3.3-4.4s.2.1.4-.2z" fill="#fff"/></svg>