<svg xmlns="http://www.w3.org/2000/svg" width="364.575" height="364.575" viewBox="0 0 96.46 96.46"><defs><linearGradient x1="0" y1="0" x2="1" y2="0" gradientUnits="userSpaceOnUse" gradientTransform="matrix(273.43033 0 0 -273.43033 646.498 315.212)" spreadMethod="pad" id="b"><stop offset="0" stop-color="#58c1e9"/><stop offset=".255" stop-color="#6185c4"/><stop offset=".5" stop-color="#633393"/><stop offset=".75" stop-color="#6185c4"/><stop offset=".998" stop-color="#58c1e9"/><stop offset="1" stop-color="#58c1e9"/></linearGradient><clipPath clipPathUnits="userSpaceOnUse" id="a"><path d="M737.05 435.836c-10.412-8.359-22.527-23.303-25.804-48.657-25.354-3.277-40.301-15.392-48.654-25.801-14.524-18.095-16.093-38.314-16.093-46.166 0-7.855 1.569-28.07 16.093-46.165 8.353-10.41 23.3-22.524 48.654-25.804 3.277-25.354 15.392-40.295 25.804-48.651 18.092-14.527 38.311-16.097 46.162-16.097 7.853 0 28.07 1.57 46.166 16.097 10.412 8.356 22.524 23.297 25.804 48.651 25.351 3.28 40.297 15.394 48.654 25.804 14.524 18.095 16.094 38.31 16.094 46.165 0 7.852-1.57 28.071-16.094 46.166-8.357 10.409-23.303 22.524-48.654 25.801-3.28 25.354-15.392 40.298-25.804 48.657-18.096 14.521-38.313 16.09-46.166 16.09-7.851 0-28.07-1.569-46.162-16.09m-5.187-48.071c2.361 13.748 8.356 24.55 17.908 32.22 13.431 10.778 28.992 11.616 33.441 11.616 4.45 0 20.014-.838 33.444-11.616 9.552-7.67 15.546-18.472 17.909-32.22-16.933-1.344-34.337-7.583-51.329-18.346l-.024.013-.022-.013c-16.989 10.763-34.396 17.002-51.327 18.346m81.24-42.502a204.822 204.822 0 01-11.992 11.122c13.454 7.325 25.146 10.216 34.327 11.05-.835-9.178-3.727-20.873-11.052-34.324a204.056 204.056 0 01-11.283 12.152m-82.113 22.172c9.178-.834 20.873-3.725 34.327-11.05a205.755 205.755 0 01-12.033-11.159 207.34 207.34 0 01-11.244-12.115c-7.325 13.451-10.218 25.146-11.05 34.324m106.432-52.246l.013.023-.013.023c10.76 16.989 17.002 34.396 18.344 51.33 13.751-2.364 24.552-8.357 32.22-17.911 10.778-13.431 11.618-28.992 11.618-33.442 0-4.449-.84-20.013-11.618-33.444-7.668-9.549-18.469-15.545-32.22-17.908-1.342 16.93-7.584 34.337-18.344 51.329M678.44 281.768c-10.779 13.431-11.617 28.995-11.617 33.444 0 4.45.838 20.011 11.617 33.442 7.67 9.554 18.474 15.547 32.22 17.911 1.343-16.934 7.582-34.341 18.348-51.33l-.018-.023.015-.023c-10.763-16.992-17.002-34.399-18.345-51.329-13.746 2.363-24.55 8.359-32.22 17.908m101.101 7.013a175.36 175.36 0 00-11.925 10.814 175.478 175.478 0 00-10.835 11.945 152.032 152.032 0 00-2.928 3.672 148.186 148.186 0 002.928 3.671 175.357 175.357 0 0010.83 11.941 175.2 175.2 0 0011.93 10.82 170.15 170.15 0 003.671 2.928 165.454 165.454 0 003.674-2.928 176.12 176.12 0 0011.918-10.809 174.588 174.588 0 0010.84-11.952 155.837 155.837 0 002.932-3.671 160.093 160.093 0 00-2.932-3.672 176.163 176.163 0 00-10.84-11.953 176.522 176.522 0 00-11.918-10.806 152.154 152.154 0 00-3.674-2.929c-1.213.942-2.437 1.91-3.671 2.929m21.57-14.742a204.67 204.67 0 0112.035 11.166 203.244 203.244 0 0111.24 12.109c7.325-13.454 10.217-25.146 11.052-34.325-9.181.833-20.873 3.725-34.327 11.05m-59.071 23.275a206.587 206.587 0 0111.241-12.112 203.9 203.9 0 0112.036-11.163c-13.454-7.325-25.149-10.217-34.327-11.05.832 9.179 3.725 20.871 11.05 34.325m41.196-36.309c16.992-10.765 34.396-17.004 51.329-18.349-2.363-13.746-8.357-24.549-17.909-32.214-13.43-10.782-28.994-11.621-33.444-11.621-4.449 0-20.01.839-33.441 11.621-9.552 7.665-15.547 18.468-17.908 32.214 16.931 1.345 34.338 7.584 51.327 18.349l.022-.015z"/></clipPath></defs><g clip-path="url(#a)" transform="matrix(.35278 0 0 -.35278 -228.07 159.43)"><path d="M737.05 435.836c-10.412-8.359-22.527-23.303-25.804-48.657-25.354-3.277-40.301-15.392-48.654-25.801-14.524-18.095-16.093-38.314-16.093-46.166 0-7.855 1.569-28.07 16.093-46.165 8.353-10.41 23.3-22.524 48.654-25.804 3.277-25.354 15.392-40.295 25.804-48.651 18.092-14.527 38.311-16.097 46.162-16.097 7.853 0 28.07 1.57 46.166 16.097 10.412 8.356 22.524 23.297 25.804 48.651 25.351 3.28 40.297 15.394 48.654 25.804 14.524 18.095 16.094 38.31 16.094 46.165 0 7.852-1.57 28.071-16.094 46.166-8.357 10.409-23.303 22.524-48.654 25.801-3.28 25.354-15.392 40.298-25.804 48.657-18.096 14.521-38.313 16.09-46.166 16.09-7.851 0-28.07-1.569-46.162-16.09m-5.187-48.071c2.361 13.748 8.356 24.55 17.908 32.22 13.431 10.778 28.992 11.616 33.441 11.616 4.45 0 20.014-.838 33.444-11.616 9.552-7.67 15.546-18.472 17.909-32.22-16.933-1.344-34.337-7.583-51.329-18.346l-.024.013-.022-.013c-16.989 10.763-34.396 17.002-51.327 18.346m81.24-42.502a204.822 204.822 0 01-11.992 11.122c13.454 7.325 25.146 10.216 34.327 11.05-.835-9.178-3.727-20.873-11.052-34.324a204.056 204.056 0 01-11.283 12.152m-82.113 22.172c9.178-.834 20.873-3.725 34.327-11.05a205.755 205.755 0 01-12.033-11.159 207.34 207.34 0 01-11.244-12.115c-7.325 13.451-10.218 25.146-11.05 34.324m106.432-52.246l.013.023-.013.023c10.76 16.989 17.002 34.396 18.344 51.33 13.751-2.364 24.552-8.357 32.22-17.911 10.778-13.431 11.618-28.992 11.618-33.442 0-4.449-.84-20.013-11.618-33.444-7.668-9.549-18.469-15.545-32.22-17.908-1.342 16.93-7.584 34.337-18.344 51.329M678.44 281.768c-10.779 13.431-11.617 28.995-11.617 33.444 0 4.45.838 20.011 11.617 33.442 7.67 9.554 18.474 15.547 32.22 17.911 1.343-16.934 7.582-34.341 18.348-51.33l-.018-.023.015-.023c-10.763-16.992-17.002-34.399-18.345-51.329-13.746 2.363-24.55 8.359-32.22 17.908m101.101 7.013a175.36 175.36 0 00-11.925 10.814 175.478 175.478 0 00-10.835 11.945 152.032 152.032 0 00-2.928 3.672 148.186 148.186 0 002.928 3.671 175.357 175.357 0 0010.83 11.941 175.2 175.2 0 0011.93 10.82 170.15 170.15 0 003.671 2.928 165.454 165.454 0 003.674-2.928 176.12 176.12 0 0011.918-10.809 174.588 174.588 0 0010.84-11.952 155.837 155.837 0 002.932-3.671 160.093 160.093 0 00-2.932-3.672 176.163 176.163 0 00-10.84-11.953 176.522 176.522 0 00-11.918-10.806 152.154 152.154 0 00-3.674-2.929c-1.213.942-2.437 1.91-3.671 2.929m21.57-14.742a204.67 204.67 0 0112.035 11.166 203.244 203.244 0 0111.24 12.109c7.325-13.454 10.217-25.146 11.052-34.325-9.181.833-20.873 3.725-34.327 11.05m-59.071 23.275a206.587 206.587 0 0111.241-12.112 203.9 203.9 0 0112.036-11.163c-13.454-7.325-25.149-10.217-34.327-11.05.832 9.179 3.725 20.871 11.05 34.325m41.196-36.309c16.992-10.765 34.396-17.004 51.329-18.349-2.363-13.746-8.357-24.549-17.909-32.214-13.43-10.782-28.994-11.621-33.444-11.621-4.449 0-20.01.839-33.441 11.621-9.552 7.665-15.547 18.468-17.908 32.214 16.931 1.345 34.338 7.584 51.327 18.349l.022-.015z" fill="url(#b)"/></g></svg>