<svg xmlns="http://www.w3.org/2000/svg" viewBox="0 0 116.22 116.22"><path fill="#094183" d="M0 0h116.22v116.22H0z"/><path fill="#FFF" d="M12.951 77.253c-.011.033-.195.809-.195.909 0 .102.057.138.106.138.087 0 .123-.071.143-.125l.136-.247c.118-.176.297-.229.802-.238l1.171-.016v3.475c0 .783 0 1.46-.04 1.806-.035.249-.074.381-.193.406l-.238.032c-.089 0-.129.057-.129.114 0 .13.148.13.197.13l.684-.02.136-.005.097.003.931.022c.179 0 .198-.091.198-.13 0-.055-.041-.114-.13-.114l-.367-.032c-.199-.028-.247-.157-.271-.404-.043-.348-.043-1.024-.043-1.807v-3.475l.989.016c.805.017.94.214.966.406l.008.089c.006.08.017.2.131.2.02 0 .123-.008.123-.172l.008-.267.017-.652c0-.05 0-.166-.106-.166l-.099.016c-.118.024-.339.069-.728.069h-3.137l-.653-.041-.27-.07-.105-.031c-.078-.002-.109.091-.139.181zM24.211 77.207l-.135.005-.108-.004-.838-.021c-.049 0-.198 0-.198.131 0 .066.056.114.131.114l.271.022c.227.05.294.14.31.42l.016 1.802v.176l-3.532-.015.013-.161.017-1.802c.016-.284.079-.386.259-.419l.197-.023c.076 0 .131-.048.131-.114 0-.087-.066-.131-.198-.131l-.682.02-.138.005-.11-.004-.836-.021c-.131 0-.197.044-.197.131 0 .065.056.114.13.114l.269.022c.229.05.296.14.31.42l.018 1.803v1.473c0 .783 0 1.459-.041 1.806-.035.249-.074.381-.192.406l-.238.032c-.09 0-.131.057-.131.114 0 .13.149.13.198.13l.681-.02.137-.005.098.004.931.021c.177 0 .196-.091.196-.13 0-.057-.04-.114-.129-.114l-.369-.032c-.197-.028-.246-.157-.271-.404-.043-.348-.043-1.024-.043-1.807v-.879l3.534.014-.015.865c0 .783 0 1.459-.042 1.806-.032.244-.072.381-.191.406l-.237.032c-.091 0-.132.059-.132.114 0 .13.149.13.198.13l.685-.02.135-.005.095.003.933.022c.18 0 .199-.091.199-.13 0-.055-.041-.114-.131-.114l-.367-.032c-.199-.028-.248-.157-.273-.404-.04-.347-.04-1.024-.04-1.807v-1.473l.016-1.802c.018-.287.078-.385.258-.419l.196-.023c.077 0 .132-.048.132-.114 0-.131-.149-.131-.198-.131l-.682.017zM29.554 77.148l-.04.016-.347.041-1.912.007-.113-.004-.832-.021c-.049 0-.198 0-.198.131 0 .066.054.114.13.114l.269.022c.229.05.295.14.311.42l.017 1.802v1.473c0 .783 0 1.459-.041 1.806-.035.25-.074.381-.193.406l-.238.032c-.089 0-.129.057-.129.114 0 .13.147.13.196.13l.68-.02.14-.005.318.011 1.748.039c.33 0 .441 0 .512-.263.042-.177.112-.752.112-.828 0-.061 0-.189-.116-.189-.106 0-.125.116-.135.178-.056.323-.148.473-.34.555-.204.085-.563.085-.777.085-.81 0-.885-.102-.906-.625l-.001-1.059.001-.368v-.736c0 .004 1.184.046 1.184.046.284.029.351.14.379.246l.031.26c0 .081.051.137.123.137.123 0 .123-.149.123-.22l.033-.53.066-.475c0-.121-.08-.13-.104-.13l-.169.123c-.063.071-.162.086-.356.103l-1.324.016.014-2.328c.1-.019.989-.012 1.123.004.458.05.502.15.544.246l.045.276c0 .155.092.171.131.171.042 0 .097-.025.122-.143l.032-.426.009-.134.05-.285.019-.112c0-.13-.075-.14-.098-.14l-.093.031zM39.09 77.206l-.142.006-.117-.004-.771-.021c-.048 0-.196 0-.196.131 0 .065.056.114.13.114l.27.022c.245.053.294.157.311.42l.016 1.802v1.046c0 .999-.14 1.6-.47 2.009a1.684 1.684 0 01-1.263.579c-.475 0-.826-.072-1.22-.443-.3-.286-.607-.75-.607-2.019v-1.17l.016-1.802c.017-.291.08-.393.255-.419l.199-.023c.076 0 .132-.048.132-.114 0-.131-.148-.131-.197-.131l-.622.018-.208.007-.173-.006-.789-.019c-.049 0-.197 0-.197.131 0 .065.056.114.131.114l.27.022c.228.05.294.14.309.42l.017 1.803V80.9c0 1.352.399 1.912.748 2.247.567.532 1.349.612 1.766.612.451 0 1.124-.066 1.766-.636.701-.623.791-1.689.791-2.547v-.896l.016-1.802c.016-.287.076-.385.258-.419l.197-.023c.076 0 .13-.048.13-.114 0-.131-.148-.131-.197-.131l-.559.015zM41.333 77.551l-.008 4.793c0 .749-.042.955-.205 1.002l-.325.046c-.09 0-.13.057-.13.114 0 .13.138.13.197.13l.666-.019.137-.006.122.005.763.02c.059 0 .214 0 .214-.13 0-.053-.035-.114-.131-.114l-.401-.047c-.169-.051-.26-.206-.278-.911l-.103-3.834 2.067 2.273a97.02 97.02 0 002.186 2.271c.477.474.56.55.654.55.129 0 .139-.1.139-.658l.015-4.899c0-.522.044-.637.26-.684l.188-.022c.107 0 .156-.064.156-.123 0-.121-.145-.121-.214-.121l-.561.018-.15.007-.179-.006-.691-.019c-.081 0-.231 0-.231.121 0 .078.048.123.131.123l.396.04c.2.052.268.165.275.733l.09 4.081-.624-.677-1.27-1.383-2.732-2.946c-.118-.13-.195-.209-.267-.209-.145 0-.156.191-.156.481zM49.903 77.207l-.135.005-.129-.005-.716-.02c-.048 0-.197 0-.197.131 0 .065.056.114.129.114l.246.03c.129.031.217.112.236.412l.016 1.802v1.473c0 .783 0 1.459-.042 1.806-.036.255-.073.381-.192.406l-.238.032c-.09 0-.131.059-.131.114 0 .13.149.13.198.13l.684-.02.136-.005.095.003.933.022c.179 0 .198-.091.198-.13 0-.055-.04-.114-.129-.114l-.367-.032c-.199-.027-.248-.157-.274-.404-.043-.347-.043-1.024-.043-1.807v-1.473l.018-1.802c.016-.284.079-.386.257-.42l.197-.023c.077 0 .132-.048.132-.114 0-.131-.15-.131-.199-.131l-.683.02zM57.384 77.206l-.123.006-.194-.007-.625-.018c-.086 0-.247 0-.247.131 0 .043.02.114.155.114l.297.029c.056.03.066.096.066.132l-.073.297c-.169.554-1.205 3.264-1.725 4.491l-1.55-4.133c-.121-.313-.222-.575-.222-.671 0-.046.012-.082.073-.111l.291-.035c.133 0 .147-.086.147-.123 0-.121-.182-.121-.29-.121l-.607.018-.17.007-.206-.006-.772-.019c-.118 0-.281 0-.281.121 0 .076.05.123.131.123l.3.03c.262.076.379.148.56.607l2.068 5.178c.155.391.202.509.342.509.103 0 .14-.083.264-.36l.143-.314 1.034-2.422.495-1.195.489-1.187c.219-.552.339-.69.436-.757.142-.089.31-.089.365-.089.143 0 .164-.077.164-.123 0-.081-.069-.121-.206-.121l-.529.019zM61.95 77.149l-.037.015-.349.041-1.912.007-.11-.004-.834-.021c-.049 0-.199 0-.199.131 0 .066.055.114.132.114l.27.022c.227.05.294.14.309.42l.018 1.803v1.473c0 .783 0 1.459-.042 1.806-.035.25-.074.381-.192.406l-.239.032c-.089 0-.13.059-.13.114 0 .13.149.13.198.13l.682-.02.137-.005.319.011 1.747.038c.331 0 .443 0 .513-.263.041-.178.11-.752.11-.828 0-.061 0-.189-.114-.189-.104 0-.125.106-.138.177-.055.324-.146.474-.337.556-.206.085-.564.085-.777.085-.81 0-.885-.102-.906-.625l-.001-1.059.001-.368v-.736c0 .004 1.185.046 1.185.046.317.032.359.172.38.247l.03.259c0 .083.048.137.123.137.121 0 .121-.149.121-.22l.035-.53.066-.475c0-.121-.081-.13-.106-.13l-.154.109c-.077.085-.175.1-.37.117l-1.322.016.013-2.328c-.013-.019 1.125.004 1.125.004.455.05.5.15.543.247l.044.276c0 .155.092.171.131.171.036 0 .098-.019.12-.145l.033-.396.011-.16.067-.398c0-.126-.067-.14-.097-.14l-.097.03zM64.997 80.45c-.027-.018-.029-.032-.029-.048v-2.734c0-.022.007-.033.026-.04.064-.019.278-.047.538-.047.867 0 1.383.602 1.383 1.61 0 .569-.18 1.029-.483 1.234-.186.132-.413.148-.591.148-.394 0-.745-.064-.844-.123zm-.13-3.246l-.28.008-.11-.004-.835-.021c-.049 0-.197 0-.197.131 0 .066.055.114.131.114l.268.022c.229.05.295.14.311.42l.017 1.802v1.473c0 .783 0 1.459-.043 1.806-.033.244-.072.381-.192.406l-.238.032c-.09 0-.13.057-.13.114 0 .13.149.13.198.13l.752-.023c.033-.002.133.002.133.002l.929.021c.181 0 .2-.091.2-.13 0-.055-.041-.114-.133-.114l-.366-.032c-.199-.028-.247-.157-.271-.404-.043-.348-.043-1.024-.043-1.807v-.201c-.004-.002 1.024.013 1.024.013l.066.034c0 .002.288.395.288.395l.615.835.113.148c.417.551.694.915 1.037 1.098.231.126.456.166.925.166h.594c.105 0 .265 0 .265-.13 0-.063-.063-.114-.14-.114l-.316-.024c-.218-.034-.557-.132-.983-.582-.438-.467-.949-1.124-1.541-1.886l-.162-.208c.673-.635.992-1.252.992-1.935 0-.595-.38-1.028-.604-1.191-.466-.334-1.054-.379-1.567-.379l-.707.015zM70.269 78.639c0 .571.189 1.106 1.11 1.864l.376.309c.738.608.94.921.94 1.458 0 .521-.389 1.047-1.132 1.047-.304 0-1.029-.078-1.177-.802l-.022-.296c0-.047 0-.155-.122-.155-.111 0-.124.123-.132.19l-.006.082-.036.812c0 .225.007.299.161.375h.001c.323.158.699.234 1.15.234.509 0 .958-.126 1.298-.365.545-.387.738-.998.738-1.441 0-.655-.204-1.194-1.246-2.015l-.233-.183c-.801-.656-.996-.922-.996-1.355 0-.542.387-.907.963-.907.692 0 .923.288.99.411.044.082.094.3.102.394.007.06.02.166.129.166.123 0 .123-.167.123-.257l.028-.823.003-.063c0-.121-.11-.121-.145-.121l-.28-.04a3.293 3.293 0 00-.792-.085c-1.071-.003-1.793.628-1.793 1.566zM75.882 77.207l-.139.005-.128-.005-.715-.02c-.132 0-.198.044-.198.131 0 .065.056.114.131.114l.242.03c.114.027.22.095.238.412l.016 1.802v1.473c0 .783 0 1.459-.041 1.806-.035.249-.074.381-.193.406l-.238.032c-.089 0-.13.059-.13.114 0 .13.148.13.196.13l.686-.02.134-.005.099.004.932.021c.177 0 .195-.091.195-.13 0-.057-.04-.114-.13-.114l-.366-.032c-.199-.028-.247-.157-.272-.404-.043-.348-.043-1.024-.043-1.807v-1.473l.018-1.802c.015-.284.078-.386.258-.42l.196-.023c.076 0 .131-.048.131-.114 0-.131-.15-.131-.199-.131l-.68.02zM77.75 77.271c-.004.015-.189.791-.189.892 0 .102.057.138.105.138.084 0 .121-.066.144-.124l.137-.248c.116-.176.296-.23.799-.239l1.174-.016v3.475c0 .783 0 1.459-.041 1.806-.032.244-.073.381-.192.406l-.239.032c-.09 0-.13.057-.13.114 0 .13.148.13.197.13l.682-.02.138-.005.099.004.928.021c.173 0 .199-.081.199-.13 0-.055-.041-.114-.13-.114l-.368-.032c-.197-.027-.246-.157-.272-.404-.042-.347-.042-1.024-.042-1.807v-3.475l.989.016c.806.017.941.215.968.406l.007.089c.005.079.014.2.132.2.02 0 .121-.008.121-.172l.007-.268.016-.652c0-.05 0-.166-.105-.166l-.099.015c-.118.024-.338.069-.728.069h-3.136l-.656-.041-.27-.07-.103-.031c-.071 0-.105.087-.142.201zM88.626 77.205l-.22.007-.134-.007-.418-.018c-.172 0-.198.071-.198.113 0 .087.082.114.162.141.036.01.098.026.098.177a.76.76 0 01-.134.394c-.142.237-1.08 1.851-1.339 2.361a238.176 238.176 0 01-1.478-2.543c-.062-.118-.101-.209-.101-.295 0-.037.025-.069.074-.095l.043-.016c.054-.022.117-.046.117-.115 0-.081-.057-.121-.171-.121l-.59.02-.114.005-.196-.006-.63-.019c-.166 0-.174.101-.174.121 0 .072.061.123.148.123a.75.75 0 01.325.123c.165.111.37.335.55.601.301.445 1.416 2.277 1.467 2.399.111.246.188.418.188.853v.72l-.026.83c-.011.166-.056.372-.208.403l-.238.032c-.09 0-.131.057-.131.114 0 .13.148.13.197.13l.685-.02.134-.005.099.004.929.021c.179 0 .198-.091.198-.13 0-.055-.041-.114-.131-.114l-.367-.032c-.186-.026-.269-.143-.289-.402l-.024-.83v-.72c0-.269 0-.524.12-.811.143-.343 1.307-2.303 1.588-2.645.186-.229.274-.32.429-.411a.703.703 0 01.35-.109c.128 0 .173-.071.173-.132 0-.052-.045-.113-.173-.113l-.59.017zM93.129 80.169c0-1.658.91-2.688 2.376-2.688 1.194 0 2.48.946 2.48 3.023 0 2.669-1.87 2.804-2.245 2.804-1.537.001-2.611-1.291-2.611-3.139zm-.924.233c0 1.615 1.036 3.353 3.31 3.353 1.97 0 3.4-1.466 3.4-3.486 0-1.914-1.346-3.199-3.35-3.199-2.448 0-3.36 2.044-3.36 3.332zM103.26 77.151l-.046.022-.255.026-.098.005-2.054.007-.11-.004-.835-.021c-.049 0-.198 0-.198.131 0 .066.055.114.132.114l.268.022c.229.049.296.14.311.42l.018 1.803v1.473c0 .783 0 1.459-.042 1.806-.035.25-.075.381-.192.406l-.238.032c-.09 0-.131.057-.131.114 0 .13.149.13.198.13l.682-.02.137-.005.1.004.928.021c.179 0 .198-.091.198-.13 0-.057-.041-.114-.132-.114l-.365-.032c-.199-.028-.248-.157-.271-.404-.043-.348-.043-1.024-.043-1.807v-.712c.311-.012 1.065-.009 1.25.013.221.028.344.153.384.261l.04.238.005.05c0 .074.05.131.121.131.122 0 .122-.145.122-.223l.034-.553.067-.475c0-.121-.08-.13-.104-.13-.061 0-.097.048-.129.09-.07.099-.146.127-.352.143l-.372.009-1.071.008.005-2.32c.01-.029 1.297-.004 1.297-.004.3.007.473.143.515.231l.068.292c0 .155.102.163.122.163.044 0 .103-.024.129-.143l.033-.415.009-.145.049-.285.018-.112c0-.082-.047-.14-.114-.14l-.088.029z"/><g><path fill="#FFF" d="M13.789 88.483h89.206v.509H13.789z"/></g><g><path fill="#FFF" d="M22.777 93.844l-3.484 7.314-3.496-7.223c-.162-.325-.247-.418-.378-.418-.085 0-.198.063-.251.362l-1.278 8.42c-.07.475-.179.924-.505.993l-.381.039c-.059 0-.239 0-.239.121 0 .175.192.175.265.175l.794-.023.484-.015.414.013.942.025c.165 0 .342-.013.342-.175 0-.077-.082-.121-.225-.121l-.536-.064c-.243-.057-.362-.182-.362-.382l.038-.603.663-5.077c.106.174.627 1.283.627 1.283l.715 1.53c.153.356 1.157 2.302 1.486 2.934l.038.071c.196.369.314.592.442.592.139 0 .208-.129.506-.74l2.815-5.863c0 .052.766 5.672.766 5.672.016.114.023.207.023.281 0 .157-.031.228-.066.24-.086.037-.164.083-.164.172 0 .117.136.15.403.174.509.038 2.289.078 2.624.078.237 0 .367-.062.367-.175 0-.121-.161-.121-.239-.121-.177 0-.426-.014-.791-.128-.38-.114-.499-.503-.61-1.278l-1.176-7.98c-.041-.288-.127-.428-.264-.428-.134-.003-.206.121-.309.325zM32.884 93.727l-.076.022-.552.077c-.219.012-2.329.013-3.225.013l-.661-.02-.151-.006-1.047-.013c-.153 0-.316.011-.316.148 0 .148.17.148.251.148l.496.037c.422.09.507.3.531.708.026.412.026.767.026 2.736v2.273c0 1.183 0 2.206-.064 2.746-.058.418-.128.638-.35.683l-.459.051c-.102 0-.238.014-.238.135 0 .106.098.161.29.161l.892-.026.736-.013 1.342.039.375.009 1.86.03c.497 0 .632 0 .728-.359.067-.265.169-1.14.169-1.442 0-.13 0-.264-.135-.264-.124 0-.15.092-.173.22-.092.533-.244.786-.563.932-.329.152-.875.152-1.201.152-1.341 0-1.493-.213-1.518-1.054l-.002-1.468.002-.532v-1.02c0-.098.023-.098.046-.098.29 0 1.582.013 1.83.039.409.044.624.192.696.479l.041.34.01.121c0 .092.052.145.148.145.148 0 .148-.174.148-.277l.024-.407.028-.457.087-.805.016-.139c0-.086-.045-.135-.122-.135-.074 0-.13.063-.213.158-.127.142-.312.178-.616.203-.191.017-.924.026-2.064.026-.04 0-.058-.01-.058-.111v-3.267c0-.097.031-.097.058-.097.25 0 1.607.025 1.83.051.648.078.757.234.84.445.073.175.075.426.075.453 0 .064 0 .213.148.213.126 0 .151-.122.161-.168l.047-.592.018-.264.085-.714.018-.128c0-.036 0-.148-.11-.148l-.138.031zM37.863 93.824l-.684.016-.655-.016-1.114-.023c-.153 0-.316.011-.316.148 0 .148.17.148.251.148l.419.037c.422.09.507.3.531.708.026.412.026.767.026 2.736v2.273c0 1.183 0 2.206-.064 2.746-.058.418-.128.638-.349.683l-.459.051c-.102 0-.238.014-.238.135 0 .161.218.161.29.161l.891-.026.736-.013 2.016.05 1.741.028c.679 0 .761-.066.845-.373.104-.38.194-1.344.194-1.493 0-.124 0-.251-.135-.251-.149 0-.165.144-.174.222-.025.242-.179.595-.328.756-.303.328-.764.351-1.487.351-1.033 0-1.339-.097-1.541-.276-.26-.224-.26-1.122-.26-2.753v-2.273c0-1.969 0-2.324.026-2.736.027-.471.141-.649.452-.707l.498-.038c.137 0 .265-.018.265-.148s-.146-.148-.303-.148l-1.074.025zM45.831 93.817l-.93.022-.497-.013-1.259-.026c-.153 0-.316.011-.316.148 0 .148.17.148.251.148l.496.037c.422.09.508.3.531.708.026.412.026.767.026 2.736v2.273c0 1.183 0 2.206-.063 2.746-.048.345-.107.634-.349.683l-.459.051c-.102 0-.238.014-.238.135 0 .161.217.161.29.161l.891-.026.736-.013.967.039.503.022.402.016c2.404 0 3.48-1.43 3.48-2.847 0-1.461-1.19-2.399-2.323-2.801.774-.626 1.29-1.254 1.29-2.249 0-.462-.2-1.968-2.782-1.968l-.647.018zm.426.576c1.153 0 1.583 1.209 1.583 1.97 0 .605-.18 1.07-.517 1.344-.225.198-.527.238-.909.238l-.6-.038c-.039-.009-.066-.022-.066-.111v-3.19c0-.138.024-.169.093-.189-.001.002.416-.024.416-.024zm-.078 8.475c-.395-.16-.432-.358-.432-1.21v-3.061c0-.054.019-.058.046-.058l.554.013c.488.025.784.11 1.054.304h.001c1.119.78 1.239 2.039 1.239 2.544 0 1.543-1.275 1.621-1.531 1.621-.294 0-.586-.012-.931-.153zM51.597 98.714c0 2.454 1.638 5.094 5.236 5.094 3.166 0 5.378-2.19 5.378-5.327 0-2.999-2.011-4.861-5.249-4.861-3.686 0-5.365 2.64-5.365 5.094zm1.846-.401c0-3.489 1.971-4.01 3.146-4.01 2.209 0 3.752 1.914 3.752 4.655 0 3.736-2.074 4.14-2.965 4.14-2.316 0-3.933-1.967-3.933-4.785zM72.121 93.828l-.373.012c-.036-.002-1.485-.039-1.485-.039-.146 0-.302.011-.302.148 0 .148.169.148.251.148l.457.037c.422.09.507.3.531.708.026.412.026.767.026 2.736v1.614c0 1.383-.054 2.494-.74 3.18-.621.621-1.437.688-1.759.688-.446 0-1.031-.059-1.594-.522-.517-.423-.996-1.097-.996-3.152v-1.808c0-1.969 0-2.324.026-2.736.027-.471.141-.649.453-.707l.368-.038c.071 0 .238 0 .238-.148 0-.137-.163-.148-.315-.148l-.944.022-.645.016-.69-.016-1.195-.023c-.153 0-.315.011-.315.148 0 .148.169.148.251.148l.496.037c.422.09.508.3.531.708.025.412.025.767.025 2.736v1.885c0 1.637.368 2.732 1.16 3.446.994.899 2.321.899 2.888.899.752 0 1.74-.107 2.707-.938 1.088-.932 1.238-2.431 1.238-3.911v-1.381c0-1.969 0-2.324.026-2.736.027-.471.141-.649.451-.707l.369-.038c.137 0 .264-.018.264-.148 0-.137-.156-.148-.302-.148l-1.101.028zM77.708 93.819l-.948.02-.517-.013-1.252-.026c-.152 0-.316.011-.316.148 0 .148.17.148.251.148l.496.037c.422.09.507.3.531.708.026.412.026.767.026 2.736v2.273c0 1.183 0 2.206-.064 2.746-.047.345-.106.634-.349.683l-.459.051c-.102 0-.239.014-.239.135 0 .161.218.161.291.161l1.052-.024.524-.014.417.01 1.481.029c.072 0 .29 0 .29-.161 0-.041-.018-.135-.186-.135l-.629-.052c-.345-.046-.434-.275-.476-.682-.064-.541-.064-1.569-.064-2.76v-.181c0-.054.018-.071.071-.071l1.123.026c.089 0 .154.014.209.079l.618.853.659.927c.754 1.038 1.237 1.618 1.78 1.908.35.189.69.249 1.397.249h1.226c.091 0 .278 0 .278-.161 0-.041-.018-.135-.187-.135l-.356-.039c-.209-.042-.73-.145-1.429-.869-.657-.691-1.403-1.633-2.348-2.824l-.434-.547c1.185-.968 1.694-1.836 1.694-2.896 0-.942-.584-1.586-.892-1.796-.722-.494-1.615-.561-2.394-.561l-.875.02zM77.66 98.8c-.07-.031-.095-.065-.095-.203v-3.925c0-.096.021-.13.093-.15.116-.035.325-.051.676-.051.722 0 1.944.491 1.944 2.332 0 1.185-.469 1.706-.749 1.911-.221.16-.383.213-.898.213-.368 0-.731-.047-.971-.127zM86.474 94.052l-.116 7.644c-.013 1.113-.066 1.475-.378 1.572a2.292 2.292 0 01-.572.063c-.065 0-.239 0-.239.135 0 .161.182.161.316.161l1.178-.031.217-.008.359.011 1.242.028c.106 0 .329 0 .329-.161 0-.135-.176-.135-.251-.135-.191 0-.439-.01-.661-.089-.279-.098-.408-.517-.431-1.405 0 0-.138-5.248-.14-5.364.072.063.262.269.262.269a82.307 82.307 0 002.794 2.95l1.714 1.715 2.096 2.082c.148.148.306.292.461.292.176 0 .199-.218.199-.432l.143-8.148c.013-.722.119-.972.454-1.068l.379-.037c.176 0 .265-.05.265-.148 0-.148-.198-.148-.329-.148l-1.03.029-.235.011-.455-.013-1.107-.026c-.155 0-.368 0-.368.148 0 .131.128.148.239.148.181 0 .484 0 .673.075.273.114.405.313.418 1.133l.129 5.766h-.031c0-.013-.906-.954-.906-.954l-1.913-1.981c-1.964-1.95-3.982-4.124-4.002-4.145l-.12-.131c-.152-.168-.253-.279-.38-.279-.182 0-.203.269-.203.471zM102.681 93.728l-.075.022-.552.077c-.219.012-2.328.013-3.225.013l-.66-.02-.153-.006-1.047-.013c-.152 0-.316.011-.316.148 0 .148.169.148.251.148l.496.037c.422.09.507.3.531.708.027.412.027.767.027 2.736v2.273c0 1.183 0 2.206-.064 2.746-.047.344-.106.634-.349.683l-.459.051c-.102 0-.239.014-.239.135 0 .161.219.161.291.161l.891-.026.737-.013 1.341.039.375.009 1.861.03c.485 0 .632 0 .728-.359.066-.263.169-1.138.169-1.442 0-.13 0-.264-.135-.264-.125 0-.15.092-.173.22-.091.532-.244.785-.563.932-.33.152-.875.152-1.201.152-1.34 0-1.492-.213-1.517-1.054l-.002-1.468.002-.532v-1.02c0-.098.022-.098.045-.098.29 0 1.582.013 1.831.039.409.044.624.192.695.479l.042.344.009.117c0 .092.052.145.148.145.148 0 .148-.174.148-.277l.024-.418.028-.445.087-.804.016-.141c0-.086-.045-.135-.122-.135-.075 0-.13.063-.213.159-.127.14-.312.177-.616.202-.19.017-.923.026-2.063.026-.041 0-.058-.01-.058-.111v-3.267c0-.097.032-.097.058-.097.249 0 1.607.025 1.83.051.649.078.757.234.839.445.073.174.076.425.076.453 0 .064 0 .213.148.213.127 0 .152-.127.16-.168l.047-.591.018-.265.086-.715.018-.127c0-.098-.037-.148-.11-.148l-.141.031z"/></g><path fill="#FFF" d="M58.032 70.012c-2.157-2.157-4.825-3.297-7.404-4.4l-.206-.087-1.374-.514a5.732 5.732 0 01-.332-.13l-.237-.108-.009.027c-8.449-2.988-13.616-9.945-13.838-18.654-.013-.355-.02-.73-.02-1.119 0-1.307.078-2.68.231-4.081l.377-2.827.748-4.445c.077-.455.115-.684.141-.791l.066-.271-.05-.003c.045-.617.09-1.375.09-2.125 0-3.065-.777-5.001-2.52-6.278l-.013-.01-.228-.228 3.758-4.897-.107-.143c-.294-.39-.464-.797-.507-1.21l-.058-.555.526.187c.335.119.673.226 1.033.325l.152.042 3.736-4.869.171.287c.7 1.18 1.953 1.753 3.828 1.753.768 0 1.649-.093 2.774-.293l3.723-.574 3.12-.362.233-.025a24.136 24.136 0 012.329-.107c1.612 0 3.358.136 5.19.404l2.645.393 3.252.541a16.5 16.5 0 001.575.091c1.458 0 2.476-.323 3.205-1.016.161-.143.293-.312.42-.474l.364-.458 3.439 4.524.164-.063c.557-.213 1.32-.489 2.293-.839l.677-.244c1.261-.459 2.287-.77 3.136-.949l.669-.141-.273.627a8.614 8.614 0 01-.661 1.272l-.408.625.692-.279.92-.367-.44.842c-.235.45-1.141 1.878-1.98 2.497l-.184.136.131.187.018.026c.087.139.136.355.136.594 0 .227-.044.453-.118.606a2.66 2.66 0 01-.514.738l-.142.145.924 1.216-.18.136c-1.776 1.336-2.639 3.395-2.639 6.296l.001.097c-.006.149-.008.307-.008.469 0 .67.047 1.398.138 2.162l.452 2.837.487 2.916.332 3.157.12 2.942c.003.11.004.225.004.339 0 4.697-1.576 9.453-4.112 12.414l-.05.061c-1.65 2.009-3.911 4.762-10.079 6.933-3.461 1.259-6.538 2.492-9.18 4.838l-.011.009-.098.112-.082.089-.19.211-.168-.167z"/><path fill="#094183" d="M82.314 23.72c-.049-.065-.087-.093-.125-.099.038.006.075.033.125.099zm.004.006zM84.474 17.305c.233-.357.452-.785.68-1.307l.455-1.044-1.114.236c-.86.182-1.896.495-3.167.958l-.676.244c-.875.315-1.705.615-2.297.841l-3.515-4.625-.553.696a3.277 3.277 0 01-.397.449c-.682.649-1.649.951-3.043.951-.546 0-1.089-.045-1.537-.088l-3.258-.541-2.644-.393a36.308 36.308 0 00-5.224-.407c-.914 0-1.784.045-2.587.133v.001c-.079.008-.514.059-3.133.363l-3.727.575c-1.111.198-1.979.289-2.732.289-1.786 0-2.972-.536-3.627-1.639l-.348-.584-3.85 5.018a14.182 14.182 0 01-1.016-.32l-.877-.312.096.925c.05.483.249.924.553 1.327l-3.774 4.919.383.384.03.023c1.676 1.228 2.424 3.106 2.424 6.088 0 .84-.057 1.694-.107 2.343h.007c-.028.115-.066.34-.145.808l-.749 4.455-.377 2.831a37.998 37.998 0 00-.233 4.106c0 .39.007.77.02 1.125.226 8.887 5.542 15.971 14.219 18.948l.002-.005c.072.033.182.074.348.136l1.364.51.205.087c2.559 1.094 5.206 2.226 7.33 4.35l.343.345.354-.394.083-.09.091-.104c2.61-2.318 5.668-3.542 9.102-4.792 6.23-2.193 8.514-4.974 10.183-7.006l.046-.057c2.572-3.001 4.169-7.816 4.169-12.567 0-.116-.001-.232-.004-.344l-.12-2.955-.334-3.172c-.001-.006-.002-.021-.488-2.921l-.451-2.828a17.997 17.997 0 01-.137-2.134c0-.159.002-.314.008-.472l-.001-.094c0-2.822.833-4.82 2.545-6.108l.369-.277-.944-1.242a2.88 2.88 0 00.557-.8c.178-.368.209-1.045-.03-1.426a.479.479 0 00-.025-.037c.865-.639 1.787-2.075 2.049-2.577l.734-1.404-1.508.602zm-45.478.354l2.994-3.892c1.055 1.521 2.79 1.629 4.511 1.689l1.144-.122 4.89-.769 3.287-.376c3.182-.362 6.351.135 9.367.557l4.345.71c1.841.134 3.815.09 5.069-1.284l.24-.27 2.77 3.641-.013.006a7.8 7.8 0 01-.256.111c-.357.129-.761.277-1.138.428l-.144.05-.047-.011-1.41-1.858c-1.464.83-3.29.95-5.054.83l-2.536-.393-3.135-.512-3.348-.393c-2.006-.165-4.058-.09-6.005.136l-2.777.393-4.616.694c-1.78.149-3.5-.061-4.934-.861l-1.432 1.863c-.186-.036-.372-.072-.566-.112-.44-.088-.834-.17-1.206-.255zm35.075 8.648c-.042.453-.57.554-.745.92l-.248.176a.88.88 0 00.601-.337c.364-.116 1.513-.355 1.565-.131.051.223-.055.429-.395.672s-1.552.762-2.445.616c-.498-.014-.966.131-1.434.233l-2.401.703c-.832.22-1.806.336-2.706.118-1.331-.248-2.648-.601-4.055-.513a.6.6 0 00-.469.322c.147-.03.366-.102.513 0-.02.182-.046 1.188-.433 1.568-.102-.116-.157-.303-.208-.469s-.633-2.71.481-3.513c.666-.216 1.535.189 1.755.308.86.466 2.329.713 3.47 1.155.497-.059.979-.22 1.491-.279l3.44-.454c.615.116.705-.673 1.243-.73.352.014.572-.251.849-.41.049-.043.131-.029.131.045zM45.7 27.859c.132-.117.59-.221 1.024-.159.433.062 1.209.25 1.794.661 1.186.395 2.113 1.213 3.32 1.59.045-.104-.117-.192-.175-.265.747-.571 1.523-1.098 2.358-1.448.54-.631 1.257-1.258 2.135-1.128l.199-.021s.004.202 0 .283c-.025.457-.263.913-.522 1.539 0 0-.729.27-1.083.483-.287.173-2.81 1.653-2.81 1.653-.717.57-1.073-.068-1.814-.57-.865-.454-1.757-.893-2.504-1.595 0-.101.219-.044.117-.161-.425.044-.741.191-1.121.309-.161.074-.56.208-.689-.041l.185-.049c.236-.159.321-.476.708-.569-.281-.271-.832-.368-1.233-.394l.111-.118zm31.839.206c.03.211-.396.714-.943.836-.665.149-1.201.02-1.628-.225.02.473.804.651 1.379.542-.32.439-1.294.743-2.025.715-.759-.03-1.27-.258-1.945-.675-.069.457.794.844 1.409.893-1.222.673-2.59.184-2.759.139-.337-.089-.834-.298-1.098-.566-.017.355.462.636.889.735-.804.377-1.828-.043-2.232-.713 1.321-.384 2.328-.735 3.67-1.069 1.295.216 2.535-.327 3.018-.893.188-.22.315-.49.323-.559.122-.039.295.007.414.036.122.029 1.41.32 1.528.804zm-10.992 1.923c.63.074 1.493-.056 1.787-.146.144.247-.144.667-.386.577.103.351.427.805.369 1.213-.307-.115-1.213-.474-1.213-.474.22.366.538 1.011.423 1.478-.367-.277-1.139-.301-1.447-.535.146.557.512 1.362.029 1.889-.452-.322-.673-.835-1.053-1.201.073.527.191 1.346-.177 1.831-.233-.294-1.236-.683-1.208-1.033-.102-.031-.371 1.075-.708 1.28-.335-.467-.622-1.126-1.086-1.549.129-.147.291-.061.23-.31-.132-.317-.612-.498-1.141-.715.079-.165.134-.246.302-.486.429-.612.697-1.179.799-1.473.168-.485.224-.643.263-.995.546.069.923.157 1.591.232.695.081 1.716.304 2.626.417zm-11.36-.194c-.166.181-.268.281-.355.496-.2.496 0 1.241.511 1.608.341.245.456.275.731.355-.672.181-1.416 1.148-1.42 1.66-.26-.241-.329-.715-.263-1.152-.185.259-.595.447-.845.475-.087-.22-.044-.793.212-1.056-.101-.174-.683-.084-.952.106-.058-.351.07-.627.425-.844-.096-.199-.313-.055-.794.007.307-.15.772-.4 1.268-.718a149.15 149.15 0 011.482-.937zm.315 14.02c.729 1.168.794 1.213 1.189 1.888s2.032 3.199 2.349 3.712c.317.513 2.005 3.374 3.096 3.93-.839.913-.437 2.044-1.821 2.268-.8.129-3.044.819-3.82-.479s-1.129-3.374-.895-5.013c.986 1.532 1.693 2.21 2.236 2.522-1.801-2.002-1.578-2.42-2.44-3.503-.347-.437-.421-1.143-.463-1.677-.071-.91-.056-1.829-.1-2.741-.025-.493 0-1.017-.164-1.489a11.739 11.739 0 01-.234-.913c-.04-.189-.02-.437-.02-.437s.358.764 1.087 1.932zm5.455-17.435c-.76.54-.902 1.033-2.152 1.67-.693.353-1.372.643-1.814.423-.454-.248-.312-1.066-.314-1.173-.002-.092.01-.224.014-.292.337-.169.823-.064.961-.483.115-.35.086-.745.16-1.112.145-.307.585-.455.672-.79-.569.365-1.023.922-1.727.891-.219-.057-.072-.337-.189-.467-.142-.056-.139-.167-.161-.27a.955.955 0 00.107.009c.034 0 .06-.026.06-.06 0-.033-.026-.062-.06-.062s-.112-.007-.183-.028l-.013-.013c-.013-.118.045-.279-.043-.365l-.353-.061c.03-.364.28-.687.294-1.081.059.072.279.056.175.203-.058.059-.043.162-.013.221-.019-.174.615-.401.277-.521-.145-.028-.555.067-.585-.154 0-.321.133-.599.309-.862.367.307.863.57.98 1.068.13.147.264.336.454.336.41-.161.614.248 1.009.22 0-.087.045-.176.133-.205.09-.046.189 0 .249.075.045.189-.073.306-.162.424-.147.116-.322.146-.512.175.321.22.6-.132.907-.205.145-.029.293.029.351.176.133.747-.189 1.828.747 2.196.129.058.276.073.422.117zm14.582 27.144c-.605-.068-1.122-.035-1.34.537-.306.704-.473 1.219-.713 1.625-.286.484-.75.905-1.534 1.123-.784.218-1.877.269-2.012-.202.201-.957 1.502-1.105 2.055-1.373 1.035-.5 1.13-1.41 1.164-2.348-1.455-.936-4.384-3.26-4.384-3.26s2.553 2.535 3.912 3.44c0 .797-.208 1.25-.84 1.6-.413.228-.884.398-1.467.692-.997.566-.7 1.37-2.049 1.884-.566.216-1.931.404-1.574-.335.511-.767-.034-.77-.034-.77-.311.092-1.139.322-1.568.339-.263.01-.528-.181-.298-.394.084-.077.216-.141.355-.248.206-.158.325-.261.414-.42.141-.253.254-.594.102-.682-.183-.107-.463-.033-.598.114-.558.619-.604 1.657-2.213 1.358 0 0-1.893-.436-.366-2.566.431-.573-.755-1.243-1.452-2.097-1.332-1.632-5.133-7.795-5.133-7.795-.395-.57-.812-1.257-1.175-1.815-.363-.557-.482-1.748.352-1.633.396.083.525.262.967.075.318-.134.29.342 0 .581a.504.504 0 00.066.738c.326.188.409-.183.779-.078.371.106.633.998 1.293 1.188.18.044.294.031.336-.087.095-.266-.21-.63-.137-.955.11.199.391.407.768.615.459.253.726.315.605-.07-.136-.436-.203-.734-.203-.734-.045-.328.247-.581.469-.581.129 0 .265.114.355.263.29.527.151.831.814 1.04.99 2.099 3.545 4.788 4.564 5.625.213.175.596.392.894.505-.226-.221-.587-.54-.748-.694-2.68-2.569-4.375-4.945-4.33-5.451.767-.32.886-1.064 1.109-.953.112.067-.242.676-.179.983.037.179.216.424.7.417-.868.866 1.34 1.593 2.977 1.556.591.368 1.623.99 2.858 1.273 0 0 .121.59.506.61 0 0 .905 1.401 2.142 2.729 1.236 1.331 2.634 3.489 3.791 4.631zm-9.552-1.469c-2.643-2.821-5.267-7.087-5.617-7.218 0 0 3.257 4.946 3.849 5.784.592.838 1.397 1.634 1.777 2.309.119-.197.299-.546-.009-.875zm-4.798-25.193c-1.133 1.077.206 3.801-.561 4.91-.083.12-.171.268-.231.387-.61-.201-.979-.217-1.496-.223-.306-.004-.67.068-.916.089-.61.052-1.064-.007-1.623.112.042-.121.121-.22.231-.387-.521.015-.916-.089-1.206-.469a.916.916 0 01-.127-.841c.148-.404.575-.781.752-1.154 0 0 .3-.468.409-1.034.052.186.14.493.648.61.473.109.99-.068 1.83-.491-.384.61-.93.991-1.95 1.155.352.072 1.02-.071 1.705-.429.831-.436 1.88-1.877 1.88-1.877.251-.222.743-.43.655-.358zm-1.273 3.809c-.186.346-.415.615-1.152.648-.938.042-1.156-.511-1.156-.511.058.289.26.895 1.163.855 1.149-.051 1.145-.992 1.145-.992zm22.615-6.617c-1.733 1.382-2.267 3.475-2.372 4.111-.287 1.841-.349 3.907-.015 5.717l.921 5.718.269 2.503.108 2.926c.192 6.756-3.06 15.808-14.152 19.446l-2.684 1.039c-2.263.997-4.48 2.083-6.411 3.832-2.686-2.399-5.853-3.709-9.051-4.933-10.182-3.224-13.753-11.823-13.938-17.739a37.947 37.947 0 01.226-6.108l.424-3.018.708-4.088c.317-2.309.334-4.872-.437-6.983-.376-.965-1.072-1.841-1.915-2.594a581.99 581.99 0 012.969-3.907l.047.107.025.057c.162.448.343.793.486 1.03.072.136.147.274.23.414l-1.615 2.162c1.992 2.247 2.097 5.43 2.006 8.418l-.24 1.854-.876 5.296-.345 3.016-.107 2.776c-.343 6.779 4.819 15.462 14.315 18.313 2.474.994 4.873 2.14 7.09 3.772 2.218-1.615 4.646-2.745 7.135-3.714 10.989-3.094 14.315-11.568 14.449-17.164.123-2.067-.059-4.104-.271-6.079l-.422-2.807-.573-3.499c-.345-1.943-.274-4.31.074-6.195.59-.259 1.223-.833 1.609-2.06l.057-.18c.642-.444 1.431-1.161 1.954-1.871.075.031.159.169.322.432zm2.066-8.272c-.762 1.748-1.242 2.254-2.413 2.664 0 0-3.778 1.158-4.744 1.529-1.121.43-1.998.897-2.57 1.225-2.011-1.225-5.707-.312-6.604.025-1.446.543-2.928 1.428-4.157 2.305-.183-.18-.428-.474-.635-.489 0 0 .627.381.514 1.042.159-.045.778-.511 1.2-.14.424.37-.009.817-.157 1.168.454-.351.941-.626 1.436-.302.55.36-.07 1.021-.253 1.332.408-.073.829-.384 1.119.038.29.422-.146.642-.558.875.395-.029.424.279 1.555.349-.526.05-1.072.108-1.423.139-.254-.057-.556-.201-1.06-.342-1.306-.366-2.085-.771-2.599-.938-.514-.167-1.118-.22-1.505-.1-.208.004-.211.088-.389.102 1.729-.615 1.212-2.694 2.033-3.952.834-1.567 2.576-1.941 4.127-2.22 2.019-.278 5.182-.584 6.118-.776 1.688-.346 3.791-1.034 4.215-1.234.517-.243 2.785-1.045 3.661-1.364s2.05-.716 3.089-.936zm.114 2.072c-.252.656-1.117 2.161-2.063 2.641-1.301.731-3.143 1.039-4.55 1.197a5.48 5.48 0 01-2.415-.184s-.419-.134-.56-.24c2.108-1.135 4.681-1.903 7.369-2.625 1.492-.518 1.677-.573 2.219-.789zm-26.509 2.285c-.561.072-1.275.206-1.701.97-.199-.161-.132-.489.091-.779.162-.211.744-.44 1.61-.191zm24.506 1.772a2.42 2.42 0 01-.742.905c-.846.714-4.877 1.296-6.418.782 1.635-.659 1.805-1.208 1.905-1.625 1.226-.046 3.063-.186 5.118-1.081.239-.06.284.716.137 1.019zm-8.791-.889c.474.159 1.196.489.861.591-2.575.432-4.266 1.152-8.711 2.853a1.304 1.304 0 00-.486.079.769.769 0 00-.228-.754c-.208-.208-.551-.313-1.082-.119 1.302-.85 2.639-1.702 4.109-2.243 1.174-.432 2.437-.64 3.801-.665.833-.015 1.32.118 1.736.258zm-13.237.139c.038.139.009.514-.258.654-.498.232-.802-.284-1.211-.401-.763-.118-1.674.014-2.405-.177.196-.282.524-.582.919-.715.467-.146 1.363-.345 1.998-.148.62.192.882.534.957.787zm.609.262c0 .117-.038.155-.094.241a.355.355 0 01-.418.155c-.028-.207.09-.425.279-.542.102-.031.233.029.233.146zm15.898.616c-.079.357-.604.783-1.015 1.016-.459.261-1.114.418-1.336.766-.294.262-2.844.997-4.046 1.299s-2.184.56-3.337.752c-.216-.177-.544-.164-.752-.127.298-.615.182-1.032-.354-1.191l5.832-2.103c1.074-.309 2.419-.691 3.316-.719.586.141.987.307 1.692.307zm-17.777-.264c.382.118 1.071.808 1.248 1.16.058.278-.058.541-.235.747a.746.746 0 00-.394.393.59.59 0 00-.119-.467 1.053 1.053 0 01-.406-.474c-.608.011-1.505.032-1.833-.268-.007-.119-.052-.223-.171-.365.193-.023.906.039 1.29.052.385.014.913.007 1.016.162 0 .072-.071.072-.117.088-.044.014-.102-.016-.13.014.117.191.351.233.556.176.118-.058.178-.176.103-.322-.113-.222-.379-.261-.718-.307-.339-.047-2.11-.073-2.11-.073-.188-.206-.605-.503-.873-.637-.03-.131.127-.245.213-.201.718.249 1.891.221 2.68.322zm2.323.105c-.027.117.045.089.147.206 0 .22-.147.395-.321.497-.161.088-.409.146-.571.015a1.578 1.578 0 00-.306-.117c0-.381.454-.572.746-.703.129-.058.263-.028.305.102zm-17.531.299c1.688.295 1.604 1.819 2.02 2.471-1.424.077-2.052.127-3.146-.125-3.871-.893-4.607-2.716-5.648-5.169 1.876 1.693 5.985 2.685 6.774 2.823zm37.647 1.019c-.85 1.186-2.413 2.178-3.019 2.438-.439.189-1.013.33-1.955.109-.493-.114-.954-.325-1.278-.584-.633-.506-.597-.852-.586-1.03.008-.122.218-.39.432-.321 2.332.593 5.633-.119 6.406-.612zm-20.425-.315c.074-.014.134-.059.222-.043.1.336-.269.442-.484.497-.161.016-.25-.118-.308-.233 0-.1.002-.231-.071-.313a.156.156 0 01.071-.126c.134.189.337.292.57.218zm-15.068 2.02c.119.159.339.7 1.145 1.279-.451.123-.937.171-1.64.208-.953.05-1.813-.05-1.813-.05-1.41-.114-3.206-1.809-3.652-2.468.949.499 2.212.894 3.198 1.015.985.119 1.94.138 2.762.016zm4.587 1.209c-.009.163.021.416.323.613-.202.025-.649.021-.887.102-1.475-.083-2.954-.525-3.791-1.944.373-.001.714-.025 1.275.096.803.174 2.012.53 3.08 1.133zm25.991-.077c-.069.298-.656.745-1.274.836-.017.004-.083-.472-.746-.428-.373.025-.371.077-.634.136.117-.162.083-.401-.019-.578-.03-.044-.106-.115-.166-.115-.174 0-.357.058-.576.197-.223.141-.448.104-.625.171-.312.117-.525.3-.759.663-.067.051-.161.028-.313.017-.143-.062-2.636.304-2.636.304-.466-.03-1.106.016-1.919-.233 0 0 .674-.335.318-.929 0 0 3.359-.734 4.686-1.105s2.043-.612 2.49-.83c-.079.308.218.851.749 1.268.367.288 1.117.566 1.424.626zm2.811-.653c-.754 2.398-2.888 2.095-3.649 1.612.786-.24 1.119-.906 1.119-.906 1.07.087 1.786-.109 2.53-.706zm-29.579 1.58c-.32.179-.237.428-.166.594.101.235.366.362.366.362a1.74 1.74 0 00-.461.465c-.342-.182-.825-.447-1.246-.588-.784-.457-1.533-.729-2.347-.673-.236.016-.753.2-.922.27-.553-.096-1.385-.57-1.607-.834 1.017.14 1.677.104 2.266.064a10.296 10.296 0 001.666-.245c.834.327 1.429.596 2.451.585zM61.5 33.126c-.266.015-.096.128-.668.567-.117.088-.531.146-.882.11.097-.181.246-.342.048-.744-.203-.414-.519-.518-.668-.521.232.17.414.383.522.632.086.2.021.436-.155.611a1.407 1.407 0 00-.563.307c.14-.527-.324-1.305-.71-1.415.343.46.643.781.454 1.577-.119.268-1.185 1.001-1.508.735-.519-.459-.094-.826-.286-1.338-.043-.089-.074-.216-.149-.185.146.497-.069.713-.03 1.228-.357.127-.549.199-.803.149-.118-.147-.208-.387-.131-.769.077-.382.376-.882.7-1.28 0 0-.166.057-.32.2-.462.427-.701.985-.666 1.381.016.183.037.339.172.475-.096.002-.585-.024-.727-.314-.279-.571.13-1.1.436-1.48.251-.312.664-.498.664-.498.644-.307 1.577-.187 2.226-.286.65-.099 1.196.002 1.74.174s.894.393 1.304.684zm9.933 11.334c.077.426-.474.717-.898.778l-.134.013c.013-.402-.067-1.166.35-1.242.418-.076.603.126.682.451zm-6.607-4.657c1.193 1.459 2.306 2.228 2.54 2.391 0 0-1.632-1.527-1.959-2.123 2.754 2.144 4.903 2.994 5.927 3.725-.381-.086-.851-.13-1.082.178-.231.308-.054.783-.199 1.237-.079.343-.312.401-.43.401-.205-1.29-1.23-1.492-1.23-1.492.258.307.586.605.66 1.066-.961-.169-2.777-1.281-2.776-1.296-.952.053-2.107-.059-2.713-.453-.691-.452.749-.526.159-.997-.261-.208-.562.017-.782-.313-.149-.223.402-.707.164-1.176-.15-.296-.44-.287-.688-.049-.253.237-.398 1.18-1.135.994-.432-.109-.298-.841-.759-1.183-.301-.223-.717-.224-.968.037-.308.321-.238.756-.238.756-.875-1.74-.03-5.436-.03-5.436-.925 2.403-.917 4.478-.209 5.744-.226-.111-.596-.472-.689-.685-.197-.448-.487-1.072-.412-1.682-.551.968.511 2.726.089 2.717-.35-.007-.345-.692-.782-.923-.45-.238-.614.162-.796.007-.202-.171.752-.849-.082-1.325-.451-.258-.654.223-1.023.012-.37-.212-.846-.116-.846-.116-.16-.846.902-4.66.902-4.66.634.317 1.524-.199 1.524-.199.477.897 1.432.164 1.85-.184.316-.264.416-.487.787-.651.402-.179.871.074 1.282-.104.441-.192.544-.458.544-.458.57.499 1.249 2.313 1.521 2.932.934 2.117 1.879 3.308 1.879 3.308zm-8.67-13.277c-.938-.149-1.749.271-2.471 1.224-.943.29-1.513.64-2.246 1.386a7.85 7.85 0 01-1.292-.616 1.09 1.09 0 01.56-.604c-.238-.149-.652-.353-.578-.621.14-.506.794-.209 1.518-.503-.29-.141-.633-.361-.492-.775.139-.414.781-.348 1.295-.222-.283-.275-.346-.741-.043-.941.304-.198.966-.129.966-.129.015-.353.276-.603.47-.88-.308.072-.486.459-.589.692-.946-.079-1.374.384-1.158.979-.454-.089-.92-.011-1.098.376-1.156-.688-2.882-1.186-4.109-1.255-.183-.01-.259-.008-.423-.03-.135-.149-.265-.522-.305-.672-.137-.52-.391-1.256-.931-1.516 1.13.153 4.168.738 6.067 1.528-1.392-1.028-5.159-1.546-7.453-2.081-1.717-.401-4.058-1.136-5.514-2.166-.824-.582-1.302-1.262-1.381-2.02 1.044.371 1.937.565 3.135.809.811.165 1.468.275 2.624.521 1.077.23 2.646.693 2.646.693 2.445.704 5.181.25 7.581 1.068 1.078.415 1.026 1.727 1.186 2.724l.258.257c-.001 1.387.665 1.939 1.777 2.774zm7.799 13.216c1.161 1.456 1.243 1.46 2.255 2.472-.551-.268-1.739-1.376-2.387-2.179-.993-1.23-1.455-2.31-1.623-3.454.001 0 .594 1.705 1.755 3.161zm-12.58-17.763c-1.402-.749-3.41-.682-4.547-.977-1.154-.3-1.302-.373-1.302-.373.449.076.865.207 1.348.267 1.535.191 3.229.268 4.513.812.727.308 1.116 1.044 1.293 1.826-.299-.604-.724-1.245-1.305-1.555z"/><path fill="#094183" d="M24.43 53.815l-.275.001.068.267c.65 2.543-.038 5.014-1.838 6.61l-.568.504.748-.131c.574-.1 1.334-.208 2.131-.146 1.876.118 3.199.503 4.28 1.229l-1.13 5.588a1.119 1.119 0 00-.028.246c0 .357.176.668.359.931l.01.014.011.012c.823.866 1.871 1.154 2.883 1.434l.085.023c4.424 1.032 9.094.113 13.153-2.585l2.186-1.427.961-.593 1.157-.71c2.228-1.321 4.063-2.04 6.133-2.401 4.283-.753 8.871.159 12.276 2.44l.445.26a3878.53 3878.53 0 002.872 1.883 746.47 746.47 0 001.788 1.132c3.957 2.486 9.083 3.224 13.377 1.925.726-.242 2.227-.742 2.44-2.059l.006-.038-1.129-5.873.157-.114-.049.038c1.808-1.011 4.177-1.364 6.335-.942l.782.153-.599-.526c-1.803-1.585-2.478-4.06-1.807-6.622l.07-.267-.275-.003c-2.741-.03-5.296.349-7.595 1.128-1.142.439-2.856 1.098-3.361 2.647l-.01.031-.06 4.492-.012 1.77c-2.669-.056-4.878-1.394-6.742-2.659l-.651-.45c-.004-.004-2.668-1.745-2.668-1.745-3.159-1.958-6.29-3.122-9.569-3.564-5.615-.734-11.224.636-16.224 3.963l-2.512 1.708c-1.972 1.297-4.118 2.558-6.723 2.588.003-.335.03-5.947.03-5.947-.015-.895-.701-1.723-2.044-2.465-2.462-1.195-5.362-1.767-8.874-1.75z"/><g fill="#FFF"><path d="M32.668 60.282c.716-.206 1.45-.433 2.046-.992l-.013 4.686c-1.558-.043-3.311-.255-4.628-1.439a2.938 2.938 0 00-.056-.075c-.146-.188-.269-.346-.269-.542 0-.07.016-.146.053-.227.382-.709 1.139-.916 1.869-1.116l.595-.176.403-.119zM81.053 59.537c.715.626 1.595.888 2.453 1.13.755.211 1.535.431 2.18.908.197.176.29.329.29.489a.516.516 0 01-.053.218c-.415.79-1.383 1.182-2.074 1.408a11.01 11.01 0 01-2.797.406l.001-4.559z"/><path d="M25.057 55.928c0-.499-.056-1.006-.152-1.515 2.669.107 5.74.415 8.406 1.856.666.425 1.42 1.01 1.42 1.786l-.001.061c-.125.993-1.129 1.296-2.014 1.563l-1.154.354c-.942.262-1.906.546-2.34 1.522-1.518-.912-3.425-1.331-5.676-1.246.976-1.163 1.511-2.717 1.511-4.381zM84.861 60.43l-.094-.036-1.119-.338c-.912-.242-1.773-.471-2.418-1.188a1.07 1.07 0 01-.169-.607c0-.196.041-.388.109-.542.839-1.29 2.273-1.741 3.659-2.176l.365-.116c1.703-.463 3.593-.71 5.764-.762a9.388 9.388 0 00-.153 1.605c0 1.678.508 3.154 1.464 4.292-2.205-.087-4.119.322-5.696 1.213-.259-.776-1.057-1.095-1.712-1.345zM41.672 62.377l3.879-2.498c4.699-2.988 9.754-4.17 15.022-3.511 3.039.393 5.938 1.425 8.859 3.154l2.496 1.562 2.554 1.663a11.696 11.696 0 008.395 1.871c1.196-.263 2.532-.575 3.432-1.661l1.025 5.3c-.143.698-.908 1.04-1.522 1.314l-.156.07c-4.451 1.478-9.852.593-14.09-2.312a24640.6 24640.6 0 00-3.849-2.528 18.394 18.394 0 00-13.482-2.614c-2.301.44-4.553 1.407-7.09 3.044l-3.551 2.304c-3.473 2.221-7.545 3.083-11.465 2.427-1.201-.232-2.444-.47-3.394-1.348-.194-.21-.293-.398-.317-.606.003 0 .925-4.598 1.057-5.256 1.292 1.424 3.159 1.735 5.001 1.835 2.383.119 4.669-.585 7.196-2.21z"/></g><path fill="#094183" d="M31.695 65.505l-1.378-.203c-.035.026-.047.105-.047.105.132.068.139.098.129.174l-.381 2.572c-.011.075-.025.101-.139.098-.033.028-.045.11-.045.11.026.036.903.165.903.165l.031.006.018-.114c-.107-.053-.131-.082-.131-.13l.003-.041s.151-1.016.151-1.024c.003.029.615.12.615.12.792.118 1.144-.316 1.212-.76.065-.445-.147-.962-.941-1.078zm-.292 1.275l-.546-.08c.029-.003.127-.653.14-.741l.516.077c.232.033.37.092.438.183l.046.27c-.04.271-.202.35-.594.291zm2.937-.96c-.39-.012-.733.109-.993.353-.297.279-.471.705-.487 1.198-.032.955.521 1.615 1.375 1.644.39.013.732-.109.992-.352.299-.279.472-.704.488-1.198.016-.494-.129-.93-.409-1.229-.243-.259-.577-.402-.966-.416zm.436 2.462a.698.698 0 01-.523.18c-.504-.016-.769-.397-.748-1.07.012-.382.115-.673.297-.841a.69.69 0 01.519-.177.7.7 0 01.509.212c.169.181.252.478.24.857-.011.379-.113.67-.294.839zm2.741-1.545c-.37-.003-.688-.006-.737-.233-.043-.208.083-.356.356-.414.46-.097.735.051.758.159l.011.07c.029.053.117.07.117.07.036-.02.309-.816.309-.816l.037-.109-.147.069-.096.081-.149-.021-.172-.034a1.897 1.897 0 00-.723.023c-.818.176-1.005.721-.917 1.135.133.627.773.635 1.287.64.393.005.732.009.785.255l-.04.28c-.08.124-.262.217-.541.277-.243.05-.602.04-.761-.065l-.074-.094-.019-.076-.087-.018c-.038.023-.231.802-.231.802l.031.006v.002l.063.024c.004-.008.008-.007.012-.014l.03.004c.019-.036.031-.056.045-.058.001-.001.184.017.184.017l.179.033.71-.016c.915-.194 1.225-.789 1.125-1.26-.148-.709-.813-.714-1.345-.719zm3.643.505l-.971-2.126c.014.024.62-.25.62-.25.118-.054.146-.05.196.028.039.011.114-.023.114-.023.016-.041-.286-.704-.286-.704-.042-.016-.117.018-.117.018-.004.099-.017.124-.136.179l-1.801.819c-.127.058-.151.046-.186-.003-.038-.01-.112.024-.112.024-.016.041.285.705.285.705.041.016.117-.018.117-.018l-.003-.048c0-.087.026-.112.126-.157l.635-.289v.002c0 .071.927 2.112.927 2.112.014.03.022.053.022.072 0 .03-.018.049-.053.075a.078.078 0 00-.002.016.31.31 0 00.025.098c.043.016.805-.332.805-.332l.029-.014-.049-.103c-.129.008-.152-.008-.185-.081zm3.219-2.401l.003.05c0 .056-.021.085-.113.144l-1.123.726.001-.003c0-.046-.349-.588-.396-.663l.598-.389c.116-.074.142-.068.179-.033.039.003.107-.041.107-.041.009-.045-.364-.621-.364-.621-.045-.009-.112.036-.112.036.003.02.004.036.004.05 0 .058-.024.087-.113.144l-.626.403c.003-.001.003-.001.003-.003 0-.05-.368-.617-.37-.62.018.025 1.046-.64 1.046-.64.117-.077.142-.07.178-.035.038.005.109-.04.109-.04.009-.044-.365-.62-.365-.62-.045-.011-.113.034-.113.034.01.094.008.122-.107.196l-1.714 1.107c-.01.045.034.112.034.112.193-.067.211-.039.251.019l1.409 2.181c.041.064.05.09-.068.188-.006.042.038.109.038.109.044.01 1.816-1.135 1.816-1.135.117-.075.141-.067.179-.024.041.006.112-.039.112-.039.009-.044-.371-.631-.371-.631-.045-.007-.112.038-.112.038zM47 63.446l-.1-.061-.859-.495c.009-.01.013-.021.021-.031.293-.27.32-.656.068-1.048-.296-.457-.819-.52-1.366-.166l-1.221.79c-.011.044.031.112.031.112.133-.029.158-.016.201.05l1.413 2.182c.045.071.041.097-.022.155-.004.041.041.11.041.11.043.01.755-.451.755-.451l.028-.018-.063-.096c-.129.029-.153.017-.197-.052 0 0-.56-.859-.564-.868.019.022.432-.244.433-.245 0 .019.881.52.881.52l.146.104c.002.002.004.007.004.014 0 .014-.009.036-.055.072v.01c0 .041.038.101.038.101.044.009.769-.461.769-.461.009-.045-.036-.111-.036-.111-.113.023-.167-.009-.346-.117zm-1.582-.671l-.561.364.001-.003c0-.047-.336-.573-.384-.645l.534-.349c.27-.172.467-.153.604.059l.065.266c-.022.108-.109.21-.259.308zm7.384-2.586c-.035-.001-.097.041-.097.041-.008.046.045.145.045.145.001.001-.031.198-.031.198a.738.738 0 01-.422.331.783.783 0 01-.601-.056c-.23-.123-.407-.361-.501-.673-.117-.381-.118-.685-.001-.903.094-.178.262-.301.516-.378.275-.085.577.005.632.187l.006.02.033.061.056.004c.035-.024.2-.806.2-.806l.018-.09-.112.043-.092.077a5.093 5.093 0 01-.131-.023l-.152-.037a1.263 1.263 0 00-.632.036c-.714.218-1.287.92-.959 1.997.27.884 1.021 1.329 1.827 1.083.515-.156.695-.426.804-.587l.098-.113c.021-.007.05.003.085.023.046-.014.073-.079.073-.079-.009-.038-.662-.501-.662-.501zm3.16.128l-.063-.093-.571-.814c.013-.006.023-.014.035-.02.38-.122.563-.458.499-.918-.075-.538-.524-.817-1.171-.728l-1.442.205c-.026.035-.015.117-.015.117.131.028.148.05.159.13l.364 2.571c.009.084-.004.107-.085.134-.02.034-.01.115-.01.115.036.027.878-.092.878-.092l.031-.004-.014-.11c-.133-.031-.151-.054-.159-.13l-.146-1.024c.006.029.496-.041.497-.041 0 .028.58.841.58.841l.088.155v.006c0 .013-.009.035-.08.051a.143.143 0 00-.016.075c0 .023.003.04.003.04.035.028.888-.092.888-.092.027-.036.016-.117.016-.117-.112-.031-.15-.081-.266-.257zm-.787-1.441c-.065.088-.188.144-.365.169l-.659.094c.003-.001.004-.011.004-.031 0-.135-.069-.635-.08-.718l.63-.089c.319-.044.489.056.524.307l-.054.268zm3.462 1.239h-1.34l.03-.776h.716c.138 0 .157.021.166.068l.113.025.033-.719-.114-.031c-.041.083-.058.105-.197.105h-.746l.031-.728 1.228.032c.137 0 .154.019.164.069l.114.025.031-.721-.113-.031c-.043.084-.06.105-.197.105h-2.042l-.032.114c.2.049.2.081.2.151v2.6c0 .076-.008.103-.161.122l-.028.112 2.144.032c.139 0 .155.021.166.078l.113.026.033-.73-.114-.031c-.043.083-.058.103-.198.103zm2.665-1.341c.042-.008.565-.664.565-.664l-.025-.019v-.001l-.003-.003-.063-.05c-.036.033-.066.05-.116.043l-.134-.07-.151-.09a1.897 1.897 0 00-.685-.218c-.827-.11-1.187.339-1.244.757-.085.637.515.857.997 1.035.368.136.685.252.652.502l-.132.25c-.117.09-.321.116-.603.079-.243-.033-.576-.162-.691-.314l-.039-.116.008-.076-.077-.045c-.043.009-.486.678-.486.678l-.016.024.079.06c.049-.009.124-.062.125-.062l.159.078.161.093.676.223c.588.078.94-.078 1.132-.225a.883.883 0 00.346-.583c.095-.718-.528-.945-1.029-1.129-.345-.127-.642-.237-.612-.466l.11-.204c.084-.063.206-.085.363-.063.412.056.574.231.615.284l.045.119a4.725 4.725 0 01-.019.097.35.35 0 00.092.076zm2.911 2.612c.048.014.105-.024.105-.024.013-.039-.292-.78-.292-.78-.031-.02-.103-.016-.103-.016-.03.036-.038.146-.038.146 0 .003-.137.154-.137.154a.703.703 0 01-.525.05c-.479-.13-.701-.625-.544-1.201.104-.385.267-.643.482-.764.172-.098.386-.113.634-.044a.671.671 0 01.4.29l.039.218-.013.077.045.035c.043-.002.595-.574.595-.574l.064-.065-.114-.023-.118.016-.094-.085-.115-.117a1.243 1.243 0 00-.553-.307 1.46 1.46 0 00-1.125.123c-.359.204-.618.568-.75 1.05-.243.89.154 1.667.964 1.889.519.141.816.009.992-.068l.142-.043c.022.006.043.029.059.063zm2.449 1.099l.184-2.629.02-.161c.009-.02.025-.06.112-.028.04-.017.072-.093.072-.093-.018-.041-.912-.421-.912-.421-.041.017-.072.093-.072.093.08.069.092.095.092.107l-.001.007-.119.148-1.76 1.965c-.043.046-.085.087-.133.072-.039.019-.069.093-.069.093.018.041.724.341.724.341l.029.012.044-.103c-.066-.055-.082-.095-.082-.121 0-.014.004-.024.006-.029l.055-.077c.004-.002.338-.381.339-.384.001.022.923.414.928.416-.019.002-.054.536-.054.536l-.015.09c-.005.009-.009.019-.084-.001-.036.018-.069.093-.069.093.016.041.746.351.746.351.041-.017.075-.092.075-.092-.053-.064-.065-.077-.056-.185zm-.375-2.452c-.053.23-.143 1.155-.146 1.193l-.025-.011c-.068-.059-.511-.251-.606-.292.049-.056.695-.823.78-.923l-.003.033zm3.237 4.229l1.415-2.263c.026-.043.056-.06.127-.021.042-.011.087-.08.087-.08-.011-.043-.875-.584-.875-.584-.044.01-.088.08-.088.08.029.053.039.08.039.098 0 .012-.004.019-.01.029-.026.038-.334.255-.661.483l-.814.578a.497.497 0 00.008-.044c.06-.173.151-.684.151-.684.07-.418.164-.992.193-1.041.009-.014.023-.026.087-.014.033-.014.075-.082.075-.082-.01-.043-.883-.592-.883-.592-.045.01-.087.079-.087.079.066.087.063.119.037.162l-1.414 2.263c-.031.048-.064.056-.118.026-.043.011-.086.082-.086.082.011.043.683.461.683.461l.028.018.058-.093c-.056-.063-.074-.099-.074-.126 0-.018.008-.033.018-.048l1.102-1.765c-.006.019-.008.038-.012.057-.1.339-.334 1.49-.334 1.49l-.149.844c.014.033.088.078.088.078.037-.001.805-.553.805-.553l1.232-.916-.049.079c-.272.379-1.088 1.683-1.088 1.683-.024.038-.049.061-.137.014-.041.011-.086.078-.086.078.011.044.702.477.702.477.044-.011.088-.08.088-.08-.093-.104-.08-.139-.058-.173zm3.647 1.877c-.105.08-.133.081-.242.009l-1.071-.701c.036-.001 1.291-1.912 1.291-1.912.043-.065.064-.083.207-.008.041-.011.085-.079.085-.079-.008-.044-.805-.566-.805-.566-.044.009-.09.076-.09.076.115.133.105.16.064.224l-1.423 2.17c-.04.063-.064.08-.176.024-.04.011-.087.079-.087.079.01.045 1.704 1.154 1.704 1.154.114.074.117.102.095.157.012.038.08.084.08.084.045-.01.447-.623.447-.623-.011-.043-.079-.088-.079-.088zm2.098-1.464c.098.091.089.108.085.117l-.117.14-1.838 1.901c-.044.043-.09.085-.135.068-.041.016-.075.089-.075.089.016.043.711.37.711.37l.03.013.046-.103c-.052-.053-.075-.087-.075-.119 0-.011.003-.023.008-.034l.058-.075.353-.368c0 .023.907.447.912.449-.02.002-.077.535-.077.535l-.016.089c-.004.01-.008.018-.086-.004-.036.017-.072.089-.072.089.015.043.734.381.734.381.042-.015.076-.089.076-.089-.05-.066-.061-.081-.049-.186l.275-2.549.038-.237c.009-.019.026-.055.112-.021.04-.015.075-.092.075-.092-.015-.043-.896-.453-.896-.453-.042.015-.077.089-.077.089zm.192.797c-.062.23-.187 1.149-.191 1.186l-.024-.011c-.063-.06-.502-.272-.597-.316l.817-.893-.005.034zm3.261.431c.112.077.12.105.101.179l-.414 1.675c-.094.383-.369.548-.75.454-.19-.046-.326-.137-.405-.267-.078-.129-.094-.297-.048-.486l.413-1.674c.019-.075.038-.097.139-.088.033-.024.053-.104.053-.104-.023-.038-.885-.25-.885-.25l-.031-.008-.008.032-.018.08c.138.082.14.112.121.184l-.411 1.662c-.187.765.124 1.252.922 1.447.407.101.742.075.994-.078.24-.144.407-.404.497-.772l.411-1.662c.019-.075.035-.098.15-.087.034-.024.053-.103.053-.103-.023-.038-.825-.237-.825-.237-.037.024-.059.103-.059.103zm2.338.132l-1.278-.005c-.032.031-.034.113-.034.113.126.046.141.072.138.152l-.009 2.596c0 .079-.015.102-.117.12l-.026.11c.031.031 1.197.036 1.197.036.509.003.9-.128 1.163-.388.263-.262.398-.654.4-1.166.003-.977-.534-1.564-1.434-1.568zm.787 1.566c-.004.764-.25 1.008-1.019 1.004l-.337-.001v-.001c.03-.008.04-1.851.041-2.02l.305.004c.764.003 1.01.247 1.01 1v.014zm3.708.226c-.039-.023-.118-.001-.118-.001-.019.091-.03.117-.165.151l-1.294.334s.003-.004.003-.01c0-.09-.149-.664-.171-.748l.693-.179c.134-.034.156-.021.178.024.035.016.115-.005.115-.005.023-.038-.149-.704-.149-.704-.04-.023-.119-.001-.119-.001-.019.091-.03.115-.163.149l-.722.186c.002-.001.003-.004.003-.011 0-.094-.154-.692-.154-.696.008.029 1.196-.279 1.196-.279.134-.033.154-.019.178.026.036.016.115-.006.115-.006.023-.038-.152-.704-.152-.704-.039-.023-.117-.001-.117-.001-.019.09-.031.117-.162.151l-1.975.512c-.023.038-.003.117-.003.117.198-.001.212.026.23.095l.652 2.517c.018.074.017.101-.123.156-.019.036.001.117.001.117.038.023 2.081-.507 2.081-.507.133-.033.154-.018.181.035.035.017.115-.004.115-.004.02-.038-.154-.714-.154-.714zM49.756 62.09l-1.868-1.756c-.039-.038-.166-.169-.166-.169-.014-.028-.023-.06.049-.104.012-.041-.023-.114-.023-.114-.044-.014-.907.442-.907.442-.014.041.024.114.024.114.133-.023.142-.005.145.001l.042.179c.003.011.413 2.616.413 2.616.008.063.012.122-.029.147-.011.041.026.116.026.116.044.013.725-.346.725-.346l.028-.014-.053-.1c-.101.013-.142.005-.166-.037l-.023-.092-.085-.506c.011.018.903-.451.913-.455.001.026.381.381.381.381l.058.067.004.01c0 .01-.01.024-.055.055l-.003.015c0 .041.03.098.03.098.044.013.745-.356.745-.356.013-.043-.026-.116-.026-.116-.082-.002-.1-.001-.179-.076zm-1.33-.38c-.083.013-.516.235-.611.285l-.221-1.192.027.026c.139.181.802.841.829.868l-.024.013z"/><g fill="#FFF"><path d="M41.894 35.093l-1.143-.41.594 1.112-1.08.763 1.218.273-.092 1.235 1.007-.838.93.838-.062-1.295 1.28-.108-1.065-.821.608-1.098-1.25.366-.47-1.189-.475 1.172zM49.222 36.982l-1.143-.38.593 1.096-1.082.748 1.251.273-.123 1.251.989-.841.96.841-.077-1.295 1.282-.109-1.05-.806.593-1.113-1.25.334-.457-1.156-.486 1.157zM41.011 43.29l.454 1.172 1.252-.35-.597 1.083 1.054.822-1.28.107.061 1.31-.929-.854-1.006.854.105-1.249-1.217-.275 1.067-.745-.58-1.082 1.141.379zM49.678 43.838l.367 1.082h1.126l-.913.701.35 1.113-.93-.67-.927.67.332-1.113-.912-.685 1.097-.016zM49.176 52.599l-1.144-.395.58 1.096-1.082.746 1.234.275-.091 1.25.991-.855.945.869-.091-1.28 1.295-.153-1.051-.822.595-1.082-1.235.351-.457-1.188-.489 1.188z"/></g><g fill="#FFF"><path d="M46.976 29.4c-.365-.003-.94.511-1.126.707.746-.258 1.026-.118 1.197-.342.01-.118.035-.294-.071-.365zM47.442 29.6c-.089.473.234.935.606 1.158l.068-.358c-.053-.336-.407-.646-.674-.8zM47.236 30.495c-.04.132-.157.301-.124.447.052.264.469.364.597.757.226-.363-.075-1.099-.473-1.204zM46.939 31.275l-.183.322c-.304.464.254.829.248 1.123.169-.181.358-.664.253-.998a.788.788 0 00-.318-.447zM45.816 31.346c-.201.079-.692.401-.942.366.123.156.664.124.857.148.337.02.566-.362.735-.63l-.65.116zM46.349 32.159c-.664.163-.244.943-.806 1.394.386-.07.554-.075.797-.537.11-.223.161-.629.009-.857zM41.178 30.682c-.127.507-.009.621.232.933-.117-.713.72-1.01.338-1.576-.268.069-.502.403-.57.643zM43.996 32.646c.025.158.657.12.949-.008.147-.032.641-.222.693-.4-1.145-.261-.737.164-1.642.408zM45.346 30.989c.052.15.668.002.935-.176.136-.059.587-.332.609-.516-1.174-.054-.699.291-1.544.692zM41.548 29.465c-.167-.077-.636.162-.757.249-.291.133-.742.58-.64.704.784-.512.829.074 1.397-.953z"/><g><path d="M43.124 27.467c.397.111.577.347.841.385.31.013.42-.079.479-.192-.125-.392-.916-.351-1.32-.193zM44.959 29.226c-.031-.413.132-.66.077-.922-.092-.297-.214-.37-.341-.386-.326.251-.022.979.264 1.308zM43.068 27.802c-.331-.117-.905.121-1.093.283.425-.042.693.431 1.199.224l.325-.171a.786.786 0 00-.431-.336zM43.722 28.633c-.106.333.149.901.319 1.084-.055-.425.409-.706.186-1.207l-.184-.32a.796.796 0 00-.321.443zM45.38 32.984l-.368.021c-.542.078-.531.621-.918.803.244.046.86-.045 1.084-.314a.78.78 0 00.202-.51zM41.657 28.511c-.494.177-.521.341-.646.714.527-.494 1.24.03 1.494-.602-.205-.184-.613-.189-.848-.112zM42.802 29.473c.044.522.195.592.523.807-.339-.635.352-1.191-.196-1.597-.232.15-.343.544-.327.79z"/></g><path d="M42.192 29.425c-.027.714-.015 1.262.29 1.603.194-.578.204-.839.048-1.189-.056-.154-.194-.422-.338-.414z"/></g></svg>
