<svg xmlns="http://www.w3.org/2000/svg" width="693.295" height="693.295"><path d="M509.903 337.632c21.055-4.098 42.282-7.206 61.421-7.206 10.621 0 20.572.978 29.506 3.228 18.656 4.78 32.291 17.156 32.264 33.402 0 7.902-3.147 16.942-10.82 26.8-23.895 30.657-67.757 49.635-177.862 49.729h-.228c-30.697 0-58.997-2.464-83.842-6.014 43.407-52.153 94.382-119.04 137.013-173.937 62.131-80.024 94.314-92.333 111.578-92.681.215-.013.402-.013.616-.013 9.442.174 18.175 4.768 18.241 17.009.054 9.95-6.16 25.447-24.16 47.318-19.447 23.626-46.127 48.993-67.93 68.439a1104.902 1104.902 0 01-29.186 25.139s-5.37 4.446-7.754 6.294c-2.397 1.862-3.2 2.799-2.706 4.03.536 1.233 2.6.845 4.02.537 1.46-.32 9.83-2.074 9.83-2.074m-341.78 1.07c54.63 22.06 39.054 91.53 34.312 135.152-4.166 38.277-.229 72.109 43.527 63.725 42.256-8.09 102.498-85.837 102.498-85.837 32.117 6.603 63.645 10.447 92.762 12.349 8.598.563 19.795.95 32.692.95 37.595 0 89.48-3.414 132.793-16.566 43.261-13.072 83.654-36.403 86.413-76.167.107-1.714.174-3.375.174-4.996.067-21.603-10.245-35.652-25.434-43.782-15.188-8.183-40.246-10.594-60.35-10.607-27.925 0-56.197 5.224-72.108 8.759 13.38-7.701 35.947-21 58.688-36.376 0 0 19.982-13.152 39.671-28.166 19.715-15.014 38.921-36.55 39.631-56.077.763-20.907-14.84-44.613-57.524-46.488-42.75-1.888-77.573 14.599-113.413 40.14-35.854 25.554-66.645 64.408-66.645 64.408-19.099 23.894-52.608 68.908-80.252 107.708-.08.067-21.24 30.067-43.983 62.118-38.358-8.357-48-12.911-49.26-13.286l-.027-.014c-.375-.08-1.58-.522-2.116-.522-1.875-.067-3.696 1.513-4.58 4.07a5.736 5.736 0 00-.455 2.21c.094 3.202 3.481 4.314 2.96 4.166 18.75 7.768 25.527 10.192 44.8 15.617-50.56 69.953-59.827 83.547-72.698 81.283-8.665-1.54-12.027-11.746-7.62-36.456 4.834-26.88 21.696-80.868 20.8-125.427-.95-46.582-35.546-78.82-93.699-70.917 0 0-29.68 3.107-66.216 23.759-36.59 20.666-75.752 52.97-79.583 56.533-3.777 3.549-4.795 6.924-3.067 8.545 1.89 1.754 7.353-.71 13.782-4.514 6.402-3.803 46.782-29.438 82.395-37.527 35.6-8.078 57.215-3.364 71.131 2.234" fill="#532c7f"/></svg>