<svg xmlns="http://www.w3.org/2000/svg" width="366.518" height="366.518"><path d="M25.798 0v2.035h84.909V0zM255.81 0v2.035h84.906V0zM25.798 28.078v4.094h84.909v-4.094zm230.012 0v4.094h84.906v-4.094zM25.798 56.824v5.617h84.909v-5.617zm230.012 0v5.617h84.906v-5.617zM25.798 84.926v8.166h84.909v-8.166zm230.012 0v8.166h84.906v-8.166zM25.798 113v10.123h84.909V113zm230.012 0v10.123h84.906V113zM25.798 141.623v11.88h84.909v-11.88zm230.012 0v11.88h84.906v-11.88zm-230.012 28.31v14.2h84.909v-14.2zm230.012 0v14.2h84.906v-14.2zM25.798 198.007c0 5.61.204 11.063.596 16.365h85.379a132.918 132.918 0 01-1.066-16.365zm230.012 0a132.94 132.94 0 01-1.068 16.365h85.47c.359-5.305.532-10.758.504-16.365zM27.7 226.736a186.946 186.946 0 003.397 18.287h89.72c-3.009-5.851-5.192-12.054-6.737-18.287zm224.735 0c-1.545 6.233-3.727 12.436-6.736 18.287h90.054a189.451 189.451 0 003.243-18.287zm-218.72 27.987a163.66 163.66 0 007.697 20.558H155.94c-12.946-4.274-22.324-11.649-29.066-20.558zm205.927 0c-6.742 8.91-16.122 16.284-29.068 20.558h115.199a164.061 164.061 0 007.463-20.558zM45.345 283.324a151.847 151.847 0 0014.326 22.32h248.272a149.986 149.986 0 0014-22.32zm19.317 28.434a153.303 153.303 0 0026.343 24.181h186.047a149.145 149.145 0 0025.994-24.181zm32.353 28.322c27.584 18.086 59.01 26.438 86.242 26.438 28.93 0 60.556-8.446 87.826-26.438z" fill="#808285"/></svg>