<svg xmlns="http://www.w3.org/2000/svg" width="59.903" height="59.903"><g transform="translate(0 4.952)"><path fill="#013a81" d="M56.4 11.4c-.6-.1-1.1-.2-1.5-.5C53 9.7 53.5 7.4 52 6.4c-1.8-1.1-3.8.1-5.1-.6-1.7-.9-1.9-3.2-4.2-3.9-3.3-1.1-3.8.8-6.4.6C33.4 2.2 32.2 0 30 0c-2.1 0-3.4 2.2-6.2 2.5-2.6.3-3.1-1.7-6.4-.6-2.3.8-2.5 3.1-4.2 3.9-1.3.7-3.3-.5-5.1.6-1.6.9-1 3.4-2.9 4.5 0 0-.4.3-1.6.5-1.2.2-3.6 1.4-3.6 7.2.1 5.8 4.3 14.2 15.2 23.4.9.6 9 8 14.8 8 6.9 0 14.8-8.1 14.8-8.1 10.9-9.2 15-17.6 15.1-23.4.1-5.7-2.3-7-3.5-7.1z"/><path fill="#0e71f2" d="M25.3 46.8C-1 26.6 5.6 17.2 6.7 15.8 14.1 5.9 26.9 6 29.7 6 32.6 5.9 47 6 54 16.4c2.2 3.2 1.8 6.3 1.3 9.5 2-4.5 1.9-8.4-.5-11.6C46.9 4 33.3 4 29.8 4s-16.6.2-24.6 10.4C-3 24.7 14.4 39.9 25.3 46.8z"/><path fill="#0e71f2" d="M52.7 25.5c-.4-9.9-10.4-15.4-22.7-15.4-7.9 0-16.5 3.8-19.6 9.7 3.6-4.3 10.1-7.5 18.8-7.9 12.7-.2 21.5 7.7 19.8 17.4-.2 1.3-.5 2.1-.8 3v-1.1C48.2 22.8 40 17 29.8 17c-6.3 0-14 3.7-17.4 8.8 3.2-3.6 10.4-7.5 16.6-7.3 11 .3 16.9 6.8 16.3 15.6-.1 1.1-.4 2-.7 2.7 0-.1.1-.6.1-1.7-.3-6.4-7.3-11.6-15.1-11.6-5 0-11.5 2.7-14 7.2 2.6-3.1 7.8-6 13-5.9C37 25.1 41.7 31 41.7 37c0 .9-.1 1.8-.4 2.8-.6-7.3-6.7-10.5-11.6-10.6-3.4 0-7.8 1.6-10.5 5.5 2-1.9 5.4-4.4 9.5-4.3 6.8.2 9.6 4 9.7 9 0 0 0 2.3-.9 3.6.2-.7.2-.9.2-1.6 0-3.9-4.3-7.2-8.7-6.5-3 .4-5 2.2-5.7 3.8 1.1-1.6 3.5-3 6.5-2.8 3.3.1 6.1 2.5 6.2 5.9.2 1.7-.7 5.5-5.9 6.3 6.6.1 16.5-10.2 19.6-13.6 3.6-3.8 3.1-8.9 3-9z"/><circle fill="#fff" cx="30" cy="42.6" r="3.8"/><path fill="#0e71f2" d="M30.4 39.9h-.3c1.2.2 2.2 1.3 2.2 2.6 0 .6-.2 1.1-.5 1.6.6-.4 1-1.1 1-1.9-.1-1.3-1.1-2.3-2.4-2.3z"/></g></svg>