<svg xmlns="http://www.w3.org/2000/svg" version="1.1" id="Ebene_1" x="0" y="0" xml:space="preserve" width="30.912" height="30.912"><style id="style35539"></style><path id="Ebene_1_1_" d="M15.451.002C9.31-.082 3.403 3.92 1.143 9.62-1.17 15.104.107 21.856 4.271 26.11c4.05 4.36 10.722 5.963 16.31 3.921 5.858-1.993 10.158-7.787 10.312-13.981.312-6.017-3.303-11.968-8.748-14.522A15.375 15.375 0 0015.45.002zm8.311 2.89c-.11.146-.223-.313 0 0zm-.73-.455c-.012.154-.345-.293 0 0zM19.091.831c-.004.003-.003-.004 0 0zM8.642 2.017c-.018.262-.42.064 0 0zm20.25 20.242c-2.685 5.45-8.891 8.885-14.938 8.193-.623-.009-3.457-.612-1.556-.33 1.108.141.204-1.379 1.56-1.212 1.674-.237 3.574-.61 4.636-2.056-.401-.072-.88.225-1.234.002-.47.17-1.359.012-1.378-.343.302-.645-.981-1.154-.761-2.005-.349-.742-.06-1.667-.252-2.574-.181-.71.095-1.511-.277-2.1-.645.168-.968-.343-1.515-.663-.505-.51-1.067-1.587-1.708-.59-.924-.476-1.195-1.723-1.817-2.716 1.323-.28.453-1.226-.534-1.543-.307-.75-1.333-.62-1.688-1.07-.21-1.013-.467-.488-1.198-.583-.729.066-1.188.757-1.917.397-1.37.036-1.459 1.138-2.28 1.905-.214.214.14 1.009-.21.591.115.732.064.64.063 1.352-.235 1.168.355 2.772 1.144 3.344.508.874 1.806 1.208 1.91 2.415.354.17.788.57.49 1.056-.12.445-.51.317.087 1.297.154.585.763 1.442.076 1.52-.418.39-1.42-1.274-1.954-1.751C-.185 20.1-.688 13.045 2.443 7.858a15.19 15.19 0 015.84-5.656c-.078.622.529-.268.84-.242.463-.29.979-.626.296.157.201.527.775-.023 1.088-.12.543-.522 1.468-.47 2.104-.595-1.528-.188.563-.341 1.064-.568-.02-.116-.926-.199-1.31-.05-.107-.169 2.09-.407 2.873-.39.582.402-.575-.113-.77.181.309.053.88.137 1.34.285.751.256-.593.251-.86.208-.572-.219-.564-.314-1.214-.12-.414.04-1.13.61-.347.164-.016.106-.299.301.417.16.883-.075-.7.272.223.24.657-.282 1.397.069 2.054-.24.25-.223 1.416-.063.93-.326-1.18-.262.896-.007-.093-.269-.347-.134.531-.222.715.187.944.362-.87-.235-.287.275.841-.117-.733.222.312.4.842.634-.233.077-.534.32-.49.305-1.084.319-1.628.174-.686.524-.287-.2-.764.08-.435.173-.962-.239-1.43.019-.458.156-.955.128-1.313.447.127.043-1.083.686.07.491.478-.162.976.004 1.426-.035.2.62 1.175.117 1.31.893.442.476.518-.902.856-.154-.814.489.654.27.53-.22.179.53.838.211 1.3.12.84-.424.212.113.58.216.558-.001.475.902 1.097.553.539-.135.945.268 1.38.447.475-.458.747.18 1.086.234.773.139.32.44 1.067.638-.246-.638.232-.398.598.101-.483-.831.526-.295.786.041.26-.018.711.763.888.353.527.28.151-.194-.065-.635.701.54-.623-.92.345-.868-1.058-.806-.056-1.223.233-.43.13.514.6 1.087.652 1.641-.569-.453-.553.22-.684.704.043.8-.495-.965-.339.171-.294-.645-1.086-.722-.702.114-.423.477.185.853.46 1.267.762.726-1.09-1.24-.733-.29-.08.405-.002.74.547.786.491.824.148.204-.29.034.18.785-.268.823-.309-.035-.135-.22-.56-1.721-.648-.822-.19.518.813 1.094.13.946-.324-.178-1.171-.927-.667-.154-.054.48-.81-.192-.984.113-.389.486-1.051.306-.58-.136-.493-.43-.154.943-.874.527-.03.798-.785-.482-.46.531-.67-.288-.399-1.391.31-.757.802-.16-.181-.987-.485-1.231-.264-.142-.434-.91-.936-.65-.483.009-1.4-.023-1.79.38-.58.21-1.14.423-1.75.256-.386.26-.896.586-.844 1.004.77.194 1.006.07.538.973-.56.555.068.67.565.43.526-.423 1.084-.58 1.212-1.317.421-.125 1.624-1.024 1.523-.185-.587.076-1.187.354-1.18 1.026.274.324 1.307.554 1.402.694-.167-.793.806.068.085.172-.373-.07-.75-.306-.816.237-.041.103.085-.963-.695-.513.153.652-.283.525-.515.277a4.388 4.388 0 01-.754.732c-.323-.16-.76-.773-1.185-.306-.016-.087-.181-.623-.57-.764.066-.537.455-.258.681-.835-.413-.282-.228.06-.598.085-.17.257-.474 1.082-.743.512-.22.256-.355-.217-.683.112.095-.337-.556.363-.884-.044-.468.421-.734-.287-.878-.1-.366.022-.88-.664-.566.306-.046.566-.398.94-.86 1.095-.439-.03-.548-1.129-1.17-1.12-.233.643-1.705.952-1.096 1.74-.323.554.508.921.967 1.015.554-.299 1.102-.67 1.805-.543.449-.734.656.584 1.263.357.87-.109 0 1.171.544 1.575.215.405.42.972-.095 1.317.328.374.678-.837.848-.29.318.256-.01-.511-.14-.683-.166-.326-.35-1.036-.177-1.592.628-.556.195.495.6.173-.187.592.26 1.061.402 1.63.125.422-.457.6-.147 1.154-.25.245.537.923.707.62-.593-.478.07-.655.33-.675.437-.139.597.604.842.286.79.552.063.377-.285.171-.476.39-.048.36-.206.865-.052 1.087 1.028.723 1.461 1.437 1.55-.477-.017 1.375-.64 1.535-.913-.557-.32 1.964.142.652-.19.58.159 1.785.383 2.329-.224.693.331 1.194.522 1.841-.224.799-.507 1.636.789 1.168.842.1 1.461-.291 2.191-.483.836-.083 1.367-.373 1.954-1.033.818-.17.784-.92-.031-1.155.26-1.06-.733.645-1.356.077-.362-.168.327-.722-.32-.444.21-.594-.947-1.424.141-1.572.454.632.76 1.82 1.816 1.092-.065.89 1.589.577 2.311.423.242.083.253.517.76.137 1.072-.373-.338.224-.234.407.509-.097.411-.108.006.295.494.482 1.141-.82.68.462-.045.512-.359 2.086.069 1.862.71-.57.873-1.4 1.453-2.03.856-.678 1.189-1.732 1.95-2.447.085-.35.24.282.276.396zM17.703 1.551l-.087-.063zm3.406 15.363c.186.274.55.65.376 1.028-.031.47.26.82.086 1.384-.04.66-.908.349-1.129-.068-.492-.645.839-.85.24-1.28-.26-.523-.454-1.146-.225-1.37.077-.45.572-.324.72-.514.635-.356.992.686.247.58.006.6-.24-.043-.315.24zm-1.52 2.101c-.082.025-.064-.184 0 0zm-1.013-3.555c.003.332-.8.08-.376.7.518.31.933 1.691-.017 1.3-.302.104-.843-.634-1.333-.775-.548-.02-1.348.081-1.495-.625-.082-.45.523-.435.614-.853.362.119.339-.504.878-.423.282-.124.214.58.65.468.353-.016 1.43-.099 1.244.222-.054-.012-.114.017-.165-.014zm-2.89 3.56c.966.061-.206-.44-.062-.039zm.717-9.018l-.012.025zm.616.31c.053-.344-.512.1 0 0zm8.247-5.562c-.034-.004.024.031 0 0zM13.686.827l-.003.005zm8.25 23.155v.002zm3.023 1.794c.081.084-.009-.104 0 0zM17.83 10.72v-.006zm.164-3.717c.081-.025-.146-.037 0 0zm-1.076 2.52c-.149-.372-.159.322 0 0zm-5.87 4.106c.669-.237.003-.701 0 0zm.31 1.797c-.67-.868-.092.939.128.335.257-.143.452-.233-.129-.335zm-.48-1.71c-.534-.131-.542 1.273.095.247.023-.085.077-.278-.095-.248zm2.491 3.467c.629-.231-.32-1.032-.33-.295-.03.096.25.47.33.295zm4.215-1.552c-.088-.477-.765-.32-.462.086.051.437 1.474.058.462-.086zm-3.723 2.385c-.64-.658-.636-.027.03.114l.012-.069zm4.151-2.248l-.014-.005zm-6.148-7.097c-.196-.104-.874.155-.34.426-.332-.069-1.145-.062-.424.184.518.323.686.645 1.137.324.026-.353.125-.8.35-1.156.119-.413.493-.635.656-.91.144-.286-1.117.072-.762.208-.311.29-.274.352-.325.736.028.204-.171.154-.292.188zm1.546-3.8c.032.472 1.13.713 1.024.05-.504-.559-.492-.631-1.099-.16l.01.038zm8.554 2.941c.685.807.38.14.447-.547.1-.339.838-1.017.207-.632-.397.07-.65.882-.654 1.18zM14.624 9.9c-.432.327-.297.467.186.087.134-.098-.159-.073-.186-.087zm-6.21-6.86c.157-.25 1.498-.658.712-.578-.31-.502-1.416 1.05-.713.578zm2.548 5.287c.32.245.972-.121.957-.48-.15-.175-.823-.3-.814.165-.323-.139-.687.273-.143.315zm5.184 1.9c.766-.542-.716.272 0 0z" fill="#182c5f" fill-opacity="1"/></svg>