<svg xmlns="http://www.w3.org/2000/svg" version="1.1" id="Layer_1" x="0" y="0" xml:space="preserve" width="163" height="163"><style type="text/css" id="style58280">.st0{fill:#1f369b}</style><g id="g58920"><path id="rect58909" fill="#fff" fill-rule="evenodd" d="M.1 0H163v163H.1z"/><path class="st0" d="M132.1 162.9c1.3-3.6 2.5-7.4 3.5-11.2 1.9-7.8 2.9-16 2.9-24.2 0-4.8-.3-9.5-1-14.2-.5 6.8-1.7 12.7-1.7 12.7.3.9.8 2.4 1 3.3-.7 7-2.1 13.8-3.9 20.3-.9-3.3-2.1-6.4-2.2-6.6-2.4 6.4-6 13.9-9.2 20h10.6z" id="path58286"/><path class="st0" d="M109.9 162.9h6.1c17.4-25.7 18.3-48.5 18.3-52.9 0-8.3-1.4-15.8-3.7-21.8 0 0-3.6-9.3-9.2-17.6.6 1.9 1.8 5.6 2.4 9 0 .2.1.4.1.6 1.1 1.8 6.1 10.7 6.8 20.4 0 0-3.5-4.9-6.2-8.1-.1 5.3-.8 10.7-1.9 15.8 0 0 5.2 6.1 7.6 10 0 0-1.6 8.5-5 16.7-3.5-5.1-7.9-10-7.9-10-2.6 6.4-5.9 12.9-9.5 18.9 0 0 6.6 7.8 8.1 10-1.9 3.1-3.8 6-6 9z" id="path58288"/><path class="st0" d="M88.1 162.9c11.6-12.9 21.4-28.1 27.3-44.4 5.1-14.1 7.9-31.4 3.4-46.7-.3-1-.6-2-1-3.1-1.5-3.8-3.3-7-5.4-9.6-5.5-6.2-11.8-11.7-18.7-16.4 1 1.3 1.9 2.6 2.7 4 0 0 8.4 6.2 13.2 12.5-6.2-4.4-9.7-6.2-10.2-6.5h-.1c2.4 5.8 3.1 10.6 3.1 10.7 0 0 7.4 3.9 14 9.6.9 4.3 1.3 8.6 1.2 13-6.7-5.9-14.4-10.5-14.4-10.5-.1 5-.8 10-1.9 15 0 0 7.3 4.6 14.5 11.1 0 0-2 9.2-5.4 16.4-6.8-6.4-13.5-11.3-14-11.7 0 0-3.4 8.9-8.9 17.8 6.9 6 13.3 12.1 13.3 12.1-3.9 6.1-8.4 12-13.2 17.4l-12.3-12.2c-5 6.2-10.4 12-16.2 17.3.3.3 2.7 3 3.8 4.2z" id="path58290"/><path class="st0" d="M91.3 44c-.8-1.1-1.7-2.2-2.7-3.2-.9-.9-1.8-1.6-2.7-2.3-10.2-7.7-29-11.5-29-11.5 1.8 1 3.3 1.9 3.3 1.9.1 0 7.7 1.9 14.4 5.2 0 0-6.1-1.4-10-1.9 1.6 1.4 3.2 3.1 4.5 4.8 0 0 12.5 2.3 17.9 5.3 0 0 2.6 2.7 4.8 7.4-8.5-3.5-18.2-5.3-18.2-5.3 1.3 2.9 2.2 6 2.8 9.2 0 0 10.6 2.6 18.6 6.4.7 3.8.9 7.7.8 11.7C86.4 67 77 64 77 64c-.2 4.1-.8 8.3-2 12.7 0 0 12.9 5.8 18.7 9.2-1.3 5.1-3.1 10.1-5.2 14.9C79.7 95.1 70.4 90 70.4 90c-2.3 5.6-8.1 14.8-8.1 14.8.1.1 9.7 6.7 17.1 12.5-3.7 5.5-7.8 10.9-12.3 15.9-1.5-1.5-15.7-14-15.7-14-4.3 4.9-9 9.8-14.2 14.4L50.8 149c-8.8 7.3-17.7 12.8-17.7 12.8l-11.4-16.1s-8 6.1-21.5 12.5v4.7h44.4C94 125.4 111.6 71.8 91.3 44z" id="path58292"/><path class="st0" d="M66.2 38.4C53.9 21.8 34.6 24.2 28.9 25c-6.3.9-11.1 2.3-11.1 2.3 1.4.1 3.3.4 4.7.7 1-.2 9.9-2.3 16.3-1.4-4.7.5-11.2 2.5-11.9 2.7.2.1 2.1.6 4.5 2 .7-.2 9.5-2.5 17.8-2.7 0 0 3.1 1.4 6.1 3.4-10.8 0-19.7 2-20 2.1 1.3 1.1 2.5 2.5 3.7 4.1 11.8-1.8 22-1 22-1s1.4 1.7 2 2.6c.8 1.1 1.6 2.6 2.2 3.8-12.1-1.4-23.6-.4-23.6-.4.8 2.1 1.3 4.3 1.6 6.6 1.3 0 11.6 0 24.6 2.4.4 3 .5 6.2.1 9.6-2.2-.6-12.9-3.2-24.6-4.4-.2 2.9-.8 6-1.6 9.1 1.3.3 15.7 3.7 23.8 7-.2.5-.3 1-.5 1.5-1.2 3.5-2.6 6.9-4.3 10.4-6.5-3.2-22.4-9.4-22.4-9.4-1.6 3.6-3.5 7.2-5.8 10.8 0 0 13.7 7.8 20.3 12.1-3 4.3-6.5 8.6-10.3 12.7-4.8-4.3-16.7-13.5-17.6-14.2-3.9 4.6-8.7 9.4-10.2 10.8L29 124.6c-.1.1-.3.2-.4.4-3.1 2.6-6.4 5-9.3 6.9-2.5 1.7-4.5 3-5.2 3.4-.2-.3-9.5-15.2-11-17.6-1 .8-2.1 1.5-3.1 2.2v30.8c1.7-.8 3.4-1.7 5.1-2.5 8.1-4 15.9-9 23.2-14.9 4.7-3.7 9.6-8.1 14.4-13.1 5.8-5.9 10.8-12.1 14.9-18.4 16-23.4 20.2-47.7 8.6-63.4z" id="path58294"/><path class="st0" d="M34.3 37.2c-5.9-6.7-15.6-9-26.9-7.4-.3 0-.6.1-.9.1-.9.1-1.7.3-2.6.5-1.7.4-2.9.8-3.6 1.1v3.4c1.1-.9 2.3-1.7 3.4-2.5 2.3-.5 4.5-.8 6.6-.9-3.3 1.9-7 4.4-10 6.7v2.6l.1.1s8.3-6.6 14.9-9.4c1.6.1 3.1.3 4.6.7-9.9 4.2-17.1 9.4-17.6 9.7 1 .6 1.9 1.4 2.1 1.4.1-.1 9.7-6.1 20.2-9.6 1.4.7 2.8 1.5 4 2.4-11.5 3.2-22.5 9-22.5 9 .6.7 1.2 1.5 1.6 2.3.1 0 .1-.1.2-.1 11.7-5 24.2-7.6 24.2-7.6 1 1.3 1.8 2.8 2.4 4.5 0 0-11.2 1.3-25.6 5.9.6 2 .8 3.5.8 3.5s13.6-3 26.1-3.4c.2 2 .1 4.3-.2 6.6-7.4-.4-25 .5-25.7.6 0 0-.1 2.5-.7 4.9 0 0 12.9.4 24.6 2.6-.9 2.8-2.1 5.6-3.4 8.3-7.8-2.3-19.7-5.2-22.8-5.9-.8 2-1.9 4-3.1 6 0 0 14.5 6.3 20 9.4-2.4 3.6-7.2 8.7-7.2 8.7-1.4-1-2.7-2-3.9-2.9-3.8-2.7-9.5-6.7-13-9.1v12l7.5 8.8c-2.5 2-5 3.8-7.5 5.4v7.1c.1-.1.2-.1.3-.2 3.4-2.3 6.8-4.9 10.1-7.8 25.7-22.6 36.3-52.8 23.5-67.5z" id="path58296"/><path class="st0" d="M.1 71.5C6.7 62.1 7.7 51.3 1.9 46c-.5-.5-1.1-.9-1.8-1.3z" id="path58298"/><path class="st0" d="M36.3 20.8c58.7 0 106.5 48 106.5 106.9 0 12-2 23.9-5.9 35.1H163V0H.1v27.2h.1c11.6-4.3 23.8-6.4 36.1-6.4z" id="path58300"/></g></svg>