<svg xmlns="http://www.w3.org/2000/svg" viewBox="0 0 107 16"><path fill="#3E5EED" d="M68.5 3.04c-.39.71-.7 1.8-.7 3.46 0 3.46.07 8.1.07 8.25 0 .24.08.4.4.48.24.08.78.16 1.57.16a7.5 7.5 0 0 0 1.8-.16c.31-.16.3-.4.3-.4v-8.1c0-1.57 1.34-2.38 2.92-2.16l.09.02c1.1.22 1.25.17 1.58-.3.32-.55.94-1.88 1.17-2.67.08-.23-.06-.42-.4-.54-.23-.08-.86-.32-1.72-.47-.6-.1-1.2-.16-1.8-.16-2.15 0-4.1.74-5.27 2.59ZM.8.6C.47.69.4.85.4 1.09c0 .08-.08 4.54-.08 7.9v.05c0 1.64.32 2.49.71 3.2 1.18 2.05 3.23 3.14 5.98 3.14h.08c2.76 0 4.87-1.1 6.04-3.14.4-.7.71-1.56.71-3.2 0-3.38-.08-7.81-.08-7.97A.48.48 0 0 0 13.4.6a7.65 7.65 0 0 0-1.6-.13c-.85 0-1.56.06-1.8.14-.31.07-.31.46-.31.46.08 2.75 0 7.33 0 7.73 0 1.65-1.18 2.51-2.67 2.51-1.5 0-2.67-.86-2.68-2.51V1s0-.27-.39-.4A5.38 5.38 0 0 0 2.37.45 5.9 5.9 0 0 0 .8.6Zm47.47.64c-.23.31-2.5 6.2-3.13 7.86-.08.08-.32.08-.32 0-.47-1.26-2.82-7.47-2.98-7.86-.31-.62-.47-.78-2.11-.78-.79 0-1.88.07-1.88.54 0 .48 1.33 4 2.82 7.85 1.4 3.61 2.47 5.9 2.74 6.22.27.32 1.03.3 1.74.32.7 0 1.43 0 1.61-.31.25-.42 1.36-2.68 2.76-6.3 1.49-3.84 2.74-7.3 2.74-7.78 0-.54-1.1-.54-1.88-.54-1.64 0-1.8.15-2.11.78ZM22.7.45c-2.67 0-4.78 1.06-6.1 3.19-.4.7-.7 1.61-.7 3.27 0 3.4.07 7.8.07 7.96 0 .16.19.35.39.4.2.04.86.1 1.64.1.86 0 1.35-.01 1.64-.09.28-.09.3-.46.3-.46-.07-2.76.02-7.5.02-7.9 0-1.65 1.26-2.68 2.74-2.68 1.56 0 2.67 1.02 2.67 2.68v7.91s.01.28.3.4c.3.1.85.14 1.71.14.78 0 1.33 0 1.57-.08.3-.08.38-.23.38-.47 0-.08.08-4.57.08-7.96 0-1.65-.31-2.5-.7-3.22-1.18-2.13-3.2-3.2-5.95-3.2h-.07Zm9.73.09c-.31.08-.4.23-.4.47 0 .08-.07.95-.07 6.75 0 6.05.08 6.83.08 6.91 0 .23.07.5.39.58.19.05.92.13 1.7.13a6.4 6.4 0 0 0 1.57-.13c.3-.12.39-.23.39-.47 0-.08.08-.98.08-7.03 0-5.8-.08-6.67-.08-6.75 0-.24-.09-.43-.39-.47-.23-.04-.94-.08-1.71-.08-.78 0-1.33 0-1.56.09Zm46.05 4.7c0 3.3 3.03 4.15 5.94 4.38l.27.03c1.1.08 2.28.15 2.28 1.25 0 .86-.48 1.33-1.82 1.33-1.57 0-3.46-.7-4.71-1.33-.64-.32-1.02-.63-1.18-.63-.16 0-.71.47-1.18 1.1-.4.63-.63 1.33-.47 1.57.4.47 1.65 1.1 2.9 1.57 1.03.4 2.68.86 4.4.86 3.93 0 6.53-1.8 6.53-4.88.15-3.76-3.7-4.39-6.53-4.47-.63 0-1.89-.15-1.89-1.24 0-1.1.8-1.18 1.66-1.18.54 0 1.65.16 3.15.55 1.01.31 1.73.63 1.96.7.24.16.71-.47 1.1-1.25.39-.78.48-1.5.24-1.57-.4-.24-3.46-1.57-6.68-1.57-2.83 0-5.97 1.25-5.97 4.78ZM92.84 7.6c0-4.32 2.74-7.15 6.97-7.15 3.6 0 6.82 1.89 6.82 7.15 0 .55 0 .7.02 1.24 0 .35-.28.48-.62.48-.8 0-2.51.08-4.94.08-1.5 0-3.33-.08-4.03-.08-.1 0-.12.03-.12.11a3.4 3.4 0 0 0 3.35 2.49c1.02 0 2.74-.32 3.91-.86.39-.16.53-.1.62 0 .18.17.47.62.79 1.25.23.55.4.94.47 1.18.07.31 0 .4-.47.63-1.42.71-2.9 1.26-5.56 1.26a7.6 7.6 0 0 1-7.2-7.78Zm4.07-1.3 5.93.02c.06 0 .18-.01.18-.17 0-1.5-1.4-2.66-3.12-2.66-1.73 0-3.15 1.16-3.15 2.66 0 0 0 .16.16.16ZM52.25 7.68c0-4.32 2.75-7.14 6.97-7.14 3.6 0 6.83 1.88 6.83 7.14 0 .56-.01.7.01 1.25 0 .35-.28.48-.62.48-.79 0-2.51.07-4.94.07-1.49 0-3.33-.07-4.03-.07-.1 0-.12.03-.11.1.07.48.92 2.5 3.34 2.5 1.02 0 2.74-.32 3.91-.87.39-.15.53-.1.63 0 .17.18.46.63.78 1.26.24.54.4.94.47 1.18.07.31 0 .4-.47.63a11.2 11.2 0 0 1-5.56 1.25 7.6 7.6 0 0 1-7.2-7.78Zm4.07-1.29 5.93.02c.06 0 .19-.02.19-.17 0-1.49-1.41-2.67-3.13-2.67s-3.15 1.17-3.15 2.66c0 0 0 .16.16.16Z"/></svg>