<svg xmlns="http://www.w3.org/2000/svg" viewBox="0 0 19 19" style="background:#3e5eed;fill:#fff"><path d="M3.22 2.19c-.33.09-.4.25-.4.49 0 .08-.08 4.54-.08 7.9v.05c0 1.64.32 2.49.71 3.2 1.18 2.05 3.23 3.14 5.98 3.14h.08c2.76 0 4.87-1.1 6.04-3.14.4-.7.71-1.56.71-3.2 0-3.38-.08-7.81-.08-7.97a.48.48 0 0 0-.36-.47 7.65 7.65 0 0 0-1.6-.13c-.85 0-1.56.06-1.8.14-.31.07-.31.46-.31.46.08 2.75 0 7.33 0 7.73 0 1.65-1.18 2.5-2.67 2.5-1.5 0-2.67-.85-2.68-2.5v-7.8s0-.27-.39-.4a5.38 5.38 0 0 0-1.58-.15 5.9 5.9 0 0 0-1.57.15Z"/></svg>