<svg xmlns="http://www.w3.org/2000/svg" viewBox="0 0 66 62"><path fill="#f37965" d="m34.06.74 29.31 50.64a1.48 1.48 0 0 1-1.28 2.22H3.46a1.48 1.48 0 0 1-1.29-2.22L31.49.74a1.48 1.48 0 0 1 2.57 0z"/><path fill="#fff" d="M60.24 32.06a10 10 0 0 0-.84-3.86 11.58 11.58 0 0 0-12.93-7 16.61 16.61 0 0 0-2.86.71 1.71 1.71 0 0 0-1.48-.59h-3.46a.93.93 0 0 0-.88.64c-.5 1.36-4.88 13.39-6.29 17.13a3.32 3.32 0 0 1-3.62 2.36 1.94 1.94 0 0 1-1.29-.88 1.81 1.81 0 0 1-.23-1.44l.06-.2c.14-.49.3-1.05.49-1.55l5.51-14.54a.92.92 0 0 0-.87-1.26h-4.08a1.81 1.81 0 0 0-1.82 1.28c-.83 2.36-1.67 4.66-2.5 6.85-.45 1.21-.89 2.49-1.27 3.62-.5 1.48-1 3-1.62 4.49a6.78 6.78 0 0 1-1.79 2.76A5.53 5.53 0 0 1 14 41.65c-2.09-.43-2.38-2.49-2.31-3.64a12.54 12.54 0 0 1 .88-3.48c1-2.59 2.87-7.74 4.32-11.53a.91.91 0 0 0-.1-.86.8.8 0 0 0-.76-.41h-3.75a2.3 2.3 0 0 0-1.25.36 27.82 27.82 0 0 0-3.13 2.75 44 44 0 0 1-5.89 5 1 1 0 0 0-.42.77.91.91 0 0 0 .4.78 1 1 0 0 0 .82.08h.09c.58-.11 1.87-.44 4.75-1.18A33.68 33.68 0 0 0 5.54 37a9.39 9.39 0 0 0 2.07 7.8c3 3.58 7.93 3.72 11.25 2.34a8.7 8.7 0 0 0 3-2.22 7.6 7.6 0 0 0 6.65 2.72l-.62 1.68-.24.66c-1 2.78-2.31 6.23-3 8a1.83 1.83 0 0 0 .15 1.72 1.87 1.87 0 0 0 1.57.76h3.37a.93.93 0 0 0 .88-.62c.54-1.55 1.38-3.84 2.18-6.08l.82-2.27 2-5.61.81-2.26a10.59 10.59 0 0 0 1.16 1.16 11.62 11.62 0 0 0 9.72 2.66 15 15 0 0 0 7.93-3.82 14.71 14.71 0 0 0 5-11.56zm-6.93 1.18a9.17 9.17 0 0 1-4.24 6.88 7.48 7.48 0 0 1-4 1.2 5 5 0 0 1-4.78-3.53 8.48 8.48 0 0 1-.29-1.17V36a9.58 9.58 0 0 1 2.25-5.75 7.88 7.88 0 0 1 5.69-2.88h.36a4.89 4.89 0 0 1 4.49 2.91 5.14 5.14 0 0 1 .52 2.96z"/><path fill="#242430" d="M48.6 21a11.42 11.42 0 0 1 10.8 7.2 10 10 0 0 1 .84 3.86 14.76 14.76 0 0 1-5 11.56 14.92 14.92 0 0 1-7.93 3.81 13.27 13.27 0 0 1-2.15.18 11.46 11.46 0 0 1-7.56-2.84 10.49 10.49 0 0 1-1.16-1.15l-.81 2.25c-.33.93-1.13 3.14-2 5.61l-.82 2.27-2.18 6.07a.93.93 0 0 1-.88.61h-3.38A1.76 1.76 0 0 1 24.64 58c.7-1.79 2-5.24 3-8l.24-.66.63-1.68h-.73a7.51 7.51 0 0 1-5.92-2.75 8.81 8.81 0 0 1-3 2.21 10.89 10.89 0 0 1-4.15.82 9 9 0 0 1-7.09-3.16 9.35 9.35 0 0 1-2.08-7.85 34.48 34.48 0 0 1 2.07-6.68c-2.88.74-4.17 1.06-4.75 1.18h-.1a2.08 2.08 0 0 1-.39.05.69.69 0 0 1-.43-.14.91.91 0 0 1-.4-.78.93.93 0 0 1 .46-.73 43.9 43.9 0 0 0 5.89-5A28 28 0 0 1 11 22.08a2.23 2.23 0 0 1 1.24-.35H16a.8.8 0 0 1 .76.4.93.93 0 0 1 .11.87 723.38 723.38 0 0 0-4.32 11.53 12.22 12.22 0 0 0-.91 3.47c-.07 1.15.22 3.21 2.31 3.64a5.45 5.45 0 0 0 1.06.11 5.52 5.52 0 0 0 3.46-1.2 6.94 6.94 0 0 0 1.8-2.77c.59-1.46 1.11-3 1.61-4.49.39-1.12.82-2.4 1.28-3.61.83-2.19 1.67-4.5 2.49-6.85a1.83 1.83 0 0 1 1.83-1.28h4.07a.92.92 0 0 1 .77.4.94.94 0 0 1 .1.86l-5.51 14.56c-.19.5-.35 1.05-.49 1.54l-.06.21a1.81 1.81 0 0 0 .23 1.44 1.94 1.94 0 0 0 1.29.88 4.27 4.27 0 0 0 .59.05 3.41 3.41 0 0 0 3-2.41c1.44-3.74 5.82-15.78 6.32-17.08a.93.93 0 0 1 .88-.64h3.46a1.71 1.71 0 0 1 1.48.59 16.61 16.61 0 0 1 2.86-.71A14.27 14.27 0 0 1 48.6 21zM45 41.32a7.48 7.48 0 0 0 4-1.2 9.17 9.17 0 0 0 4.24-6.88 5.14 5.14 0 0 0-.58-3 4.89 4.89 0 0 0-4.49-2.91h-.36a7.88 7.88 0 0 0-5.69 2.88A9.58 9.58 0 0 0 39.94 36v.63a8.48 8.48 0 0 0 .26 1.17 5 5 0 0 0 4.8 3.52zm3.6-21.83a15.93 15.93 0 0 0-2.36.18 17 17 0 0 0-2.31.51 3.74 3.74 0 0 0-1.8-.42h-3.46a2.48 2.48 0 0 0-2.33 1.65c-.05.14-4.79 13.17-6.28 17.12-.16.47-.64 1.47-1.59 1.47h-.33a.42.42 0 0 1-.25-.19.27.27 0 0 1-.05-.19l.06-.21c.13-.46.28-1 .45-1.42l5.51-14.54A2.48 2.48 0 0 0 31.57 20h-4.11a3.38 3.38 0 0 0-3.26 2.31c-.82 2.34-1.66 4.64-2.48 6.81-.46 1.22-.9 2.49-1.28 3.61-.49 1.47-1 3-1.58 4.41a5.37 5.37 0 0 1-1.36 2.16 3.92 3.92 0 0 1-2.47.84 3.74 3.74 0 0 1-.75-.07 1.1 1.1 0 0 1-.87-.68 2.91 2.91 0 0 1-.21-1.37 11 11 0 0 1 .79-3c.93-2.55 2.85-7.67 4.31-11.51a2.46 2.46 0 0 0-.3-2.26 2.35 2.35 0 0 0-2-1.07h-3.83a3.76 3.76 0 0 0-2 .62 28 28 0 0 0-3.37 2.91 42.74 42.74 0 0 1-5.67 4.82 2.48 2.48 0 0 0-.07 4.11 2.26 2.26 0 0 0 1.31.41A3.79 3.79 0 0 0 3 33h.2c.37-.07 1-.22 1.94-.46A26.1 26.1 0 0 0 4 36.68a10.85 10.85 0 0 0 2.41 9.1 10.55 10.55 0 0 0 8.28 3.71 12.41 12.41 0 0 0 4.74-.94 9.13 9.13 0 0 0 2.36-1.46 9.2 9.2 0 0 0 4.51 2l-.13.34c-1 2.62-2.29 6.19-3 8a3.32 3.32 0 0 0 .33 3.15A3.36 3.36 0 0 0 26.37 62h3.37a2.43 2.43 0 0 0 2.32-1.63c.43-1.2 1-2.84 1.65-4.59l.53-1.47.83-2.31 2-5.61a12.91 12.91 0 0 0 8.07 2.81 14.16 14.16 0 0 0 2.4-.21 16.47 16.47 0 0 0 8.73-4.2A16.23 16.23 0 0 0 61.78 32a11.56 11.56 0 0 0-1-4.43 13 13 0 0 0-12.18-8.08zM41.48 36a8.06 8.06 0 0 1 1.89-4.73A6.27 6.27 0 0 1 48 28.9h.26a3.38 3.38 0 0 1 3.11 2.05 3.75 3.75 0 0 1 .42 2.05 7.59 7.59 0 0 1-3.54 5.78 5.93 5.93 0 0 1-3.2 1 3.41 3.41 0 0 1-3.31-2.46 5.22 5.22 0 0 1-.21-.92V36z"/></svg>