<svg xmlns="http://www.w3.org/2000/svg" viewBox="0 0 844.4 823"><path fill="#ff7a64" d="M452.3 9.8 841.7 682a19.7 19.7 0 0 1-17 29.5H45.9a19.7 19.7 0 0 1-17-29.5L418.3 9.8c7.5-13 26.4-13 34 0"/><path fill="#fff" d="M800 425.6c-.5-18.8-4.1-35.5-11-51.3-30.9-69.7-95-104.5-171.8-93a208 208 0 0 0-38 9.4c-4.3-5.5-10.4-7.9-19.7-7.9h-46c-5 0-9.8 3.3-11.7 8.5a33740 33740 0 0 1-83.4 227.4c-3.3 8.7-16.5 36.7-48.1 31.3-7-1.2-13.2-5.4-17.2-11.7a23.6 23.6 0 0 1-3-19l.8-2.7c1.9-6.6 4-14 6.5-20.6l73.2-193a12.4 12.4 0 0 0-11.6-16.7c-23.3-.3-47.6-.2-54.1 0a23.8 23.8 0 0 0-24.2 17 4123 4123 0 0 1-33.2 90.8c-6.1 16.1-11.8 33-16.9 48-6.7 19.7-13.6 40.1-21.5 59.6a89 89 0 0 1-23.9 36.7 73.5 73.5 0 0 1-60 14.5c-27.7-5.7-31.6-33-30.7-48.3a168 168 0 0 1 11.8-46.2c12.6-34.5 38-102.7 57.4-153.1 1.4-3.8 1-8-1.4-11.4-2.3-3.4-4.7-5.4-10.1-5.4-6 0-44.5-.2-49.9 0-6.6.2-11.7 1.5-16.5 4.7-10.8 7.2-25 20.8-41.5 36.5-22.6 21.6-50.8 48.5-78.2 66.3a12.5 12.5 0 0 0-5.7 10.1c0 4.1 2 8 5.3 10.4 3 2.1 5.9 2 11 1.1l1.2-.2c7.7-1.6 24.8-6 63-15.7a456.8 456.8 0 0 0-27.4 88.7 124.5 124.5 0 0 0 27.6 104.2c39.8 47.6 105.3 49.5 149.4 31a116 116 0 0 0 39.7-29.3c20.8 27.5 57.8 39.1 88.3 36l-8.2 22.4-3.3 8.8a8361.4 8361.4 0 0 1-39.8 106.3 24 24 0 0 0 2.1 22.8c4.4 6.3 11.9 10 20.8 10l44.8-.3c5.3 0 10-3.2 11.7-8.2l29-80.5 10.9-30.2 26.8-74.5L484 579a153.6 153.6 0 0 0 144.5 50.7A198.7 198.7 0 0 0 733.8 579c45.6-42.5 67.9-94.2 66.3-153.4Zm-92 15.6c-5.4 40.4-24.3 71.1-56.3 91.3a98.7 98.7 0 0 1-53.3 16h-.4a66 66 0 0 1-63.4-46.9 97.7 97.7 0 0 1-4-22l-.2-1.8a127.4 127.4 0 0 1 30-76.4 104 104 0 0 1 80.3-38.4 65 65 0 0 1 59.6 38.6 69.3 69.3 0 0 1 7.8 39.6Z"/><path fill="#242430" d="M645.5 279.1c64 0 116.5 34.3 143.4 95.2 7 15.8 10.6 32.5 11.1 51.2 1.7 59.3-20.6 111-66.2 153.5A198.9 198.9 0 0 1 600 632a152.3 152.3 0 0 1-116-53l-10.7 29.9-26.8 74.4-10.9 30.2-29 80.5a12 12 0 0 1-11.6 8.2l-44.9.3c-8.9 0-16.3-3.6-20.8-10a24 24 0 0 1-2-22.8c9.2-23.7 26.2-69.5 39.8-106.3l3.2-8.8 8.3-22.3c-3.2.3-6.4.5-9.7.5-28.3 0-60-12-78.6-36.6a116 116 0 0 1-39.8 29.4 145.2 145.2 0 0 1-55.1 10.9c-33.7 0-69.1-11.9-94.3-42a124.5 124.5 0 0 1-27.5-104.1 452.7 452.7 0 0 1 27.4-88.7 2133.4 2133.4 0 0 1-64.3 15.9c-2 .4-3.8.6-5.3.6-2.1 0-3.8-.5-5.6-1.7a12.4 12.4 0 0 1 .4-20.5c27.4-17.9 55.5-44.8 78.2-66.4 16.5-15.7 30.6-29.3 41.5-36.5 4.7-3.1 10-4.4 16.5-4.7h49.9c5.4 0 7.8 2 10 5.4a12 12 0 0 1 1.4 11.5c-19.3 50.3-44.8 118.6-57.4 153a164 164 0 0 0-11.7 46.2c-1 15.3 2.9 42.6 30.7 48.4a73 73 0 0 0 60-14.5c12-10 18.8-24.2 23.8-36.7 8-19.5 14.8-40 21.5-59.7 5.1-14.9 10.8-31.8 17-48a3949 3949 0 0 0 33-90.8c4-11 12.4-16.9 24.3-17a1929.2 1929.2 0 0 1 54 0 12.5 12.5 0 0 1 11.6 16.8l-73.1 193c-2.5 6.6-4.6 14-6.5 20.5l-.8 2.8a23.6 23.6 0 0 0 3 19c4 6.3 10.2 10.5 17.2 11.7 2.7.5 5.3.7 7.8.7 26 0 37.3-24 40.3-32 18.6-49.6 76.9-209.4 83.4-227.4 2-5.2 6.6-8.4 11.8-8.5h46c9.2 0 15.3 2.4 19.6 8a205.8 205.8 0 0 1 66.3-11.7ZM598 548.4h.4c18.7 0 36.6-5.3 53.3-16 32-20.1 51-50.8 56.3-91.2a69 69 0 0 0-7.7-39.5 65 65 0 0 0-64.4-38.5 104 104 0 0 0-75.6 38.2 127.3 127.3 0 0 0-30 76.4l.3 1.8.5 6.4c.9 5.8 2 11 3.5 15.6a66 66 0 0 0 63.4 46.8Zm47.5-289.7c-10.3 0-20.8.8-31.3 2.4a229 229 0 0 0-30.8 6.8 48.6 48.6 0 0 0-23.9-5.5h-46a33 33 0 0 0-31 21.8C482 286 419 459 399.3 511.5c-2.1 5.6-8.4 18.7-21.1 18.7-1.4 0-2.9-.1-4.4-.4a5.2 5.2 0 0 1-3.3-2.4c-.7-1.1-.8-2-.7-2.5l.8-2.8a240 240 0 0 1 6-18.9l73.2-193A33 33 0 0 0 446 280a33 33 0 0 0-26.7-14.2l-29.8-.2-24.9.1a44.7 44.7 0 0 0-43.2 30.7c-11 31.1-22 61.6-33 90.4-6.1 16.2-11.8 33-17 48l-.1.7c-6.6 19.4-13.4 39.4-21 58.4a72.1 72.1 0 0 1-18.1 28.7 52.4 52.4 0 0 1-42.8 10.2 15 15 0 0 1-11.6-9c-3.1-6.8-3-15-2.8-18.1.8-12.7 5.2-25.8 10.6-40.4 12.3-33.9 37.7-101.9 57.2-152.8a32.8 32.8 0 0 0-3.6-30.4 31 31 0 0 0-27-14.2h-13.6a6781.7 6781.7 0 0 0-36.9 0 50 50 0 0 0-27 8.2 381.8 381.8 0 0 0-44.3 38.6c-22 21.1-49.5 47.3-75.3 64a32.9 32.9 0 0 0-1 54.5 30 30 0 0 0 17.4 5.5 47.7 47.7 0 0 0 11.1-1.4c5-1 12.8-3 25.7-6.2-6 17.6-11.3 36.2-14.7 55.8a144.3 144.3 0 0 0 32 120.8 140.1 140.1 0 0 0 110 49.2c21.8 0 43.5-4.3 63-12.4a125.7 125.7 0 0 0 31.3-19.4 122.8 122.8 0 0 0 59.9 26.6l-1.7 4.6a8322 8322 0 0 1-39.7 106 44.1 44.1 0 0 0 4.3 41.8c8.3 12 22 18.9 37.6 18.9h.2l44.7-.4c14 0 26.1-8.5 30.9-21.7l21.9-61 7-19.5 11-30.1 26.8-74.6.2-.6a171.5 171.5 0 0 0 107.1 37.3A218.5 218.5 0 0 0 748 593.9c50-46.8 74.4-103.6 72.6-169a153 153 0 0 0-12.8-58.9c-30.2-68.2-89.3-107.3-162.2-107.3Zm-94.6 218.6c1.6-23.7 10-44.8 25-62.8a83.3 83.3 0 0 1 64.7-31c18.1 0 32.8 9.6 41.3 27.1 5 10.2 7 19.6 5.9 27.9-4.7 34.6-20 59.7-47 76.7a78.7 78.7 0 0 1-42.4 12.8h-.4a45.3 45.3 0 0 1-44-32.6c-1.1-3.6-2-7.6-2.7-12.3l-.3-4.1v-1.1l-.1-.5Z"/></svg>