<svg xmlns="http://www.w3.org/2000/svg" width="64.215" height="64.215"><g fill="#7b00ff"><path d="M59.175 34.8H27.911v2.35h31.286a2.68 2.68 0 012.69 2.692 2.68 2.68 0 01-2.69 2.693H25.54v-10.77h-2.35v13.12h35.984a5.05 5.05 0 005.04-5.043 5.05 5.05 0 00-5.04-5.042z"/><path d="M2.35 32.108a2.68 2.68 0 012.69-2.693h30.944a5.05 5.05 0 005.04-5.042 5.05 5.05 0 00-5.04-5.043h-12.77v5.385h2.348V21.68h10.422a2.68 2.68 0 012.69 2.692 2.68 2.68 0 01-2.69 2.692H5.04A5.05 5.05 0 000 32.108c0 2.777 2.242 5.064 5.04 5.064h15.803v-2.35H5.04a2.712 2.712 0 01-2.69-2.714z"/></g></svg>