<svg xmlns="http://www.w3.org/2000/svg" xmlns:xlink="http://www.w3.org/1999/xlink" xml:space="preserve" viewBox="0 0 278.7 317.4"><path fill="#fff" d="M278.7 0H0v139c-.2 60.4 33.3 104.2 61.5 130.3 31 28.8 65 45.3 76.5 47.8l1.4.3 1.4-.3c11.4-2.5 45.5-19 76.5-47.7 28.1-26.1 61.6-70 61.4-130.4V0"/><path fill="#011f5b" d="M273.5 5.3H5.3V139c-.2 58.5 32.4 101 59.8 126.5 29.8 27.6 63.5 44.1 74 46.4h.6c10.5-2.3 44.1-18.8 74-46.4 27.3-25.4 60-68 59.8-126.5V5.3"/><path fill="#fff" d="M211.1 262.7c-31 28.8-63.1 43.3-71.7 45.5-8.6-2.2-40.8-16.7-71.8-45.5l-2.3-2.1 74-78.6 74.1 78.6-2.3 2.1zm43.8-58.2L139.4 93.1 23.9 204.5A150.3 150.3 0 0 1 9 139V89.6h260.7V139a149 149 0 0 1-14.8 65.5z"/><path fill="#900" d="M7 7.3s.4 80.8 0 80.4h264.7V7.3H7.1"/><g id="a" display="inline"><path fill="#011f5b" d="M78.4 57.8c-.7-.5-1-.9-1-1.4V40.3c0-.6.3-.9 1-1.4.4-.3 1-.7 1.2-1.2.4-.6.6-1.2.6-2a3.2 3.2 0 0 0-.6-1.8 5.5 5.5 0 0 0-1.2-1.2c-.7-.5-1-.9-1-1.4v-5.6H76c-3 0-6.2 0-8.3-1-.8-.3-1.6-.8-2.4-1.3-1.8-1.1-4-2.5-7.1-2.5-2.6 0-4.9 1-7 1.8-1.3.6-2.6 1-3.5 1h-.4c-.9 0-2.2-.4-3.5-1-2-.8-4.4-1.8-7-1.8-3.1 0-5.2 1.4-7 2.5l-2.5 1.4c-2 .9-5.3.9-8.3.9h-1v5.6c0 .6-.4.9-1 1.4-.5.3-1 .7-1.3 1.2a3.3 3.3 0 0 0-.6 1.9c0 .7.2 1.3.6 1.9.3.5.8.9 1.2 1.2.7.5 1 .8 1 1.4v16.1c0 .5-.3.8-1 1.3-.4.4-.9.7-1.2 1.3a3.3 3.3 0 0 0-.6 1.9c0 .6.2 1.3.6 1.9.3.5.8.8 1.2 1.2.7.5 1 .8 1 1.3v5.5h59.6v-5.5c0-.5.4-.8 1-1.3.4-.4 1-.7 1.3-1.2.3-.6.5-1.3.5-2a3.2 3.2 0 0 0-.5-1.8 5.5 5.5 0 0 0-1.3-1.3"/><path fill="#fff" d="M52 24.4c2-.7 4.1-1.6 6.3-1.6 2.6 0 4.3 1 6.1 2.2l2.7 1.5c.7.3 1.6.5 2.5.7v34.3a31.5 31.5 0 0 0-4.6-.2c-2.5 0-5 0-7.5-.8l-2.5-.8c-2.5-.8-4.7-1.5-6.3-1.6V25.6c1-.2 2.1-.7 3.4-1.2zm-23.8 2.1c1-.4 1.8-1 2.6-1.5 1.8-1.1 3.5-2.2 6.2-2.2 2.1 0 4.3.9 6.2 1.6 1.3.6 2.5 1 3.5 1.2V58h-.2c-1.5.1-3.7.8-6.3 1.7l-2.5.7c-2.4.8-5 .8-7.5.8a30 30 0 0 0-4.5.2V27.2l2.5-.7zm50.4 34.4c0 .3-.1.7-.3 1-.2.3-.5.5-1 .8-.6.6-1.6 1.3-1.6 2.6V69H19.5v-3.6c0-1.3-1-2-1.7-2.6l-.9-.9a1.6 1.6 0 0 1-.2-1c0-.3 0-.6.3-1l.8-.7c.8-.6 1.7-1.4 1.7-2.7V40.3c0-1.4-1-2.1-1.7-2.7l-.9-.8a1.6 1.6 0 0 1-.2-1c0-.4 0-.7.2-1 .2-.3.6-.5 1-.8.7-.6 1.6-1.3 1.6-2.7v-3.7h.1c1.5 0 2.9 0 4.2-.2v37.2h20.5a3.4 3.4 0 0 0 6.6 0h20.5V27.5h4.3v3.8c0 1.4 1 2 1.7 2.7l.9.8c.2.3.3.6.3 1s-.1.7-.3 1c-.2.3-.5.5-1 .8-.6.6-1.6 1.3-1.6 2.7v16.1c0 1.4 1 2 1.7 2.6l.9.9c.2.3.3.6.3 1z"/></g><use xlink:href="#a" width="100%" height="100%" transform="translate(183.5)"/><path fill="#011f5b" d="M128.3 21c-2.7-.2-5.3 1.7-6.4 2.6-1-1-3-2.7-5.7-2.6a5.6 5.6 0 0 0-4.5 2.8c-1.2-.8-3.5-2.1-6-1.2-3 1.1-4.5 3.9-5.1 6l-1-1.7a.8.8 0 0 0-1.3-.2 37 37 0 0 0-8.1 11.8c-1.6 3-2.7 5.8-3.4 8.5v.3c-.7 2.5-1.9 6.8.2 9a6.4 6.4 0 0 0 .9.8 4.3 4.3 0 0 1 .6.5c1.7 1.5 1 2.5-.7 4.5-1 1.2-2 2.4-2 4 0 2 1.4 3.6 3.8 4.3a6 6 0 0 0 4 5 7.8 7.8 0 0 0 2.6.3c5.9 0 10.6-2.8 14.4-5.5a19 19 0 0 0 6.2-7.1 7 7 0 0 0 .5-2.5c6.9-3.6 17.3 2.1 24.3 6l3.2 1.6a58.6 58.6 0 0 0 26.3 8.5 23 23 0 0 0 19.3-9.8 21.1 21.1 0 0 0 1.6-17l-.5-1.9c-1.8-6.7-2.7-9.8.7-18a.8.8 0 0 0-.7-1.2c-4.9-.6-7.9 1-9.5 2.4-2.6 2.4-4 6.3-3.9 11.7a11 11 0 0 0-7.8 4.9c-1.8 3-1.7 6.7.2 11.3a.8.8 0 0 0 1.5.2c2-2.9 4.2-5.7 7-5 1.6.3 2.7 1.5 3.2 3.2.4 2-.2 4.2-1.6 5.3-3.9 3.2-9.7 1.8-13.4-1-2-1.4-3.9-3-5.8-4.6.8-2.2.9-4.2 0-5.8a6 6 0 0 0-3-2.7c.3-1.1.7-3.2.2-4.6-.5-1.4-2.1-2-3.2-2.3.3-1 .6-2.8-.3-4-1.2-2-3.6-2-5-1.9.2-1.3 0-3.5-1.5-5.2-2-2-5.4-1.9-7.2-1.6.1-1.2 0-3-1.7-4.1-2.5-1.6-5-.7-6.5 0-.5-1.7-1.8-3.7-4.3-4h-.6z"/><path fill="#fff" d="M120.7 29.6c5 .1 11.4 1.3 17 5.6 4 3 7.4 7 10.6 10.8a246.7 246.7 0 0 0 2.7 3 96.4 96.4 0 0 0 15.2 14.2c4.2 3 10.9 4.7 15.5 1a7 7 0 0 0 2.1-7 5.8 5.8 0 0 0-4.4-4.6c-3.5-.8-6.3 2.2-7.9 4.4-1.1-3.4-1-6.2.2-8.4a9.3 9.3 0 0 1 7.4-4 .8.8 0 0 0 .7-1c-.1-5.2 1-9 3.4-11.1a9.2 9.2 0 0 1 7-2.1c-3 8-2 11.6-.3 18l.5 2c1.7 6.1 1.2 11.4-1.5 15.6a21.6 21.6 0 0 1-12.8 8.6c-10.6 1.8-20.5-2.7-30.6-7.9l-3.1-1.7c-6-3.2-13.4-7.3-20-7.3a12.3 12.3 0 0 0-6 1.5l-2.8-.5.3-.1 1.2-1 5.3-3.7a.8.8 0 0 0 0-1.3 28.6 28.6 0 0 1-3-4.1l-1.3-1.8c.8-1.5 2-2.5 3.1-2.8 1-.3 2.1 0 3.2.7 3.5 2.5 4.8 2.4 8 .6a4 4 0 0 1 4 .3 4.9 4.9 0 0 1 2.3 4.6.8.8 0 0 0 1 .8c1-.2 3.8-.5 5.4.8 1.8 1.6 1.4 4.7 1.4 4.8a.8.8 0 0 0 1 .8s3-1 4.4.6c.9 1 .9 2.2 1 3.3 0 1 0 2 .8 2.6l1 .4c1.6.4 3.4 1 3 4a.8.8 0 0 0 .7.9h.1c.4 0 .8-.3.8-.7.5-4.3-2.6-5.3-4-5.7l-.8-.3a4 4 0 0 1-.1-1.2c0-1.3 0-3-1.3-4.4-1.5-1.6-3.7-1.5-5-1.2 0-1.4-.3-3.7-2-5-1.8-1.6-4.4-1.5-5.9-1.4a6.4 6.4 0 0 0-2.9-5 5.5 5.5 0 0 0-5.6-.4c-2.8 1.5-3.5 1.6-6.4-.4a5.4 5.4 0 0 0-4.5-1 6.7 6.7 0 0 0-3.9 3c-2.3-2-6-3-9-1.2l.2-1.4c0-2.7-1.3-6.1-2.8-9.1a35.6 35.6 0 0 1 17.4-4zm-22-1c1.5 2.5 5.7 9.8 5.7 14.2 0 2-2.9 4.6-4 5.8l-.5.4a.8.8 0 0 0 1 1.3l2.6-2.1c1-1 2-1.8 3-2.4 2.8-1.7 6-.5 8 1.5l1.4 2.1a30.8 30.8 0 0 0 2.7 3.6 360.4 360.4 0 0 0-4.5 3.3l-1.2.9c-1.3.9-2 1.4-1.9 2.1a1 1 0 0 0 .8.8l3.8.7a6.6 6.6 0 0 1-.4 1.7c-.7 2-3.4 4.8-5.6 6.3A23 23 0 0 1 96.2 74c-.7 0-1.4 0-2-.3-.8-.2-1.5-.7-2-1.4a4.5 4.5 0 0 1-.8-1.5H93a18.1 18.1 0 0 0 13.2-5.7.8.8 0 0 0-1.1-1.1 16.6 16.6 0 0 1-14.2 5h-.3c-.8-.2-3.2-1-3.2-3 0-.9.8-1.8 1.7-2.8 1.4-1.8 3.4-4.1.6-6.9l-.8-.6-.7-.6c-1.4-1.5-.3-5.4.2-7.4v-.2a42.4 42.4 0 0 1 3.3-8.3c1.8-3.6 4-7.8 7-10.5zm29.4-6.1h.6c2.8.4 3.2 3.6 3.2 3.8a.8.8 0 0 0 1.3.5s3-2.1 5.6-.5c1.7 1 .9 3.5.9 3.6a.8.8 0 0 0 1 1s4.6-1.3 6.7.9c1.9 1.9 1 4.8 1 4.9a.8.8 0 0 0 .9 1s3.3-1 4.5 1c.7 1 .1 2.8-.1 3.4a.8.8 0 0 0 .6 1c.6.1 2.5.6 2.9 1.6.4 1.1-.3 3.4-.6 4.2a.8.8 0 0 0 .6 1s2 .5 2.9 2.3c.5 1 .5 2.3 0 3.8-2.5-2.3-5.1-5-7.8-8a286.5 286.5 0 0 1-2.7-3c-3.3-4-6.8-8-11-11.2-6.7-5.2-14.6-6-20-5.8-1 0-9.8.4-16 4.1l-1-1.7c.4-1.5 1.4-5.1 4.6-6.3 2.6-1 5.2 1.5 5.2 1.5a.8.8 0 0 0 1.3-.3s1-2.6 3.6-2.7c2.7-.2 4.9 2.6 4.9 2.6a.8.8 0 0 0 1.2.1s2.8-2.8 5.7-2.8z"/><path fill="#011f5b" d="M98.2 54.7c-1.3 0-3 .8-2.6 2.5.6 2.2-.7 3.1 0 3.7 1.2 1 3-.3 4.2-1a28.4 28.4 0 0 0 1.8-1.5c.7-.5.7-1.5.1-2l-.8-.7a4 4 0 0 0-2.7-1z"/><circle id="b" cx="139.4" cy="142.9" r="23" fill="#fff" fill-opacity="1" fill-rule="evenodd" stroke="none" stroke-dasharray="none" stroke-dashoffset="0" stroke-linecap="round" stroke-linejoin="round" stroke-miterlimit="4" stroke-opacity="1" stroke-width="3.3" display="inline" opacity="1" paint-order="normal" vector-effect="none"/><use xlink:href="#b" width="100%" height="100%" transform="translate(-62.4 57)"/><use xlink:href="#b" width="100%" height="100%" transform="translate(62.4 57)"/></svg>