<svg xmlns="http://www.w3.org/2000/svg" width="119.841" height="119.841"><defs><clipPath clipPathUnits="userSpaceOnUse" id="a"><path d="M0 90.38h63.939V0H0z"/></clipPath></defs><g clip-path="url(#a)" transform="matrix(1.33333 0 0 -1.33333 17.295 120.507)"><path d="M55.04 40.516c-1.952-4.44-4.473-8.422-7.27-11.7 2.02 7.931 1.046 18.174-3.328 28.121-2.284 5.197-5.315 9.873-8.833 13.685 5.505 4.447 11.236 5.898 15.665 3.851 2.838-1.31 5.027-3.996 6.33-7.765 2.469-7.137 1.51-16.929-2.563-26.192m-46.143 0C4.824 49.78 3.866 59.571 6.335 66.708c1.304 3.77 3.493 6.454 6.33 7.765 4.429 2.048 10.16.596 15.665-3.85-3.518-3.813-6.548-8.489-8.833-13.685-4.375-9.947-5.349-20.19-3.329-28.122-2.796 3.28-5.318 7.261-7.27 11.7m27.2-20.069a10.082 10.082 0 00-4.129-.914 10.09 10.09 0 00-4.13.914c-8.528 3.94-10.253 19.73-3.766 34.478 2.057 4.68 4.76 8.878 7.89 12.277 3.132-3.4 5.843-7.595 7.902-12.278 6.486-14.748 4.761-30.537-3.768-34.477M47.678 80.36c-5.053.21-10.56-1.95-15.707-6.259-5.147 4.31-10.656 6.473-15.71 6.263a26.946 26.946 0 0015.706 5.017 26.949 26.949 0 0015.712-5.02M62.35 68.275l-.004.015-.01.028-.007.024c-.006.018-.014.033-.02.05C58.042 81.547 45.864 90.38 31.967 90.38c-13.934 0-26.143-8.877-30.38-22.089-.006-.02-.007-.044-.014-.066C-1.248 59.94-.225 48.842 4.32 38.502 10.54 24.357 21.83 14.53 31.827 14.53l.143.001h.142c9.997 0 21.285 9.826 27.506 23.971 4.556 10.36 5.574 21.482 2.733 29.774M40.52 6.75c-2.81-.83-5.61-1.25-8.323-1.25H31.8c-2.732 0-5.551.425-8.377 1.266a2.5 2.5 0 01-1.425-4.793C25.288.995 28.586.5 31.8.5h.396c3.194 0 6.47.491 9.74 1.456A2.5 2.5 0 0140.52 6.75" fill="#49cc68"/></g></svg>