<svg xmlns="http://www.w3.org/2000/svg" width="34" height="34" fill="none"><path d="M33.939 16.982C33.573-.434 9.603-6.924.377 9.395c.408.285.972.67 1.38.955A16.202 16.202 0 00.32 14.697c-.182.969-.273 1.95-.273 2.935C.047 26.674 7.637 34 17 34s16.954-7.326 16.954-16.363c0-.22 0-.438-.015-.655zM4.23 19.905c-.222 1.772-.083 2.323-.085 2.536l-.407.143c-.154-.29-.547-1.318-.72-2.699-.443-5.27 3.28-10.019 8.942-10.903 5.194-.734 10.16 2.376 11.324 6.734l-.41.143a11.75 11.75 0 00-1.122-1.25c-6.264-6.072-16.11-3.286-17.522 5.294zm16.13 2.947a4.58 4.58 0 01-1.742 1.461 4.756 4.756 0 01-4.464-.183 4.542 4.542 0 01-1.608-1.6 4.355 4.355 0 01-.61-2.15 4.348 4.348 0 01.543-2.168 4.53 4.53 0 011.56-1.644 4.73 4.73 0 012.186-.71c.752-.04 1.5.142 2.15.522.64.373 1.152.932 1.47 1.602.312.666.409 1.406.278 2.126a3.588 3.588 0 01-1.01 1.906zm9.64.173c-2.444 5.359-7.478 8.163-12.854 8.098-10.312-.489-13.31-11.985-6.42-16.137l.303.292c-.117.15-.517.462-1.161 1.68-.75 1.478-.98 2.952-.886 3.874.537 8.035 12.183 9.669 16.194 1.725C30.285 11.661 16.747.597 4.727 9.05l-.276-.268c3.163-4.787 9.337-6.93 15.235-5.503 9.02 2.185 13.864 11.266 10.32 19.744l-.002.002z" fill="#000"/></svg>