<svg xmlns="http://www.w3.org/2000/svg" width="86.8" height="86.8"><path d="M43.4 86.8c-3.7-1.6-21-9.3-26.6-13.9-6.5-5.3-10-13-10-22.1V8.3C17.2 2.7 29.2 0 43.4 0 57.6 0 69.6 2.7 80 8.3v42.4c0 9.1-3.4 16.8-10 22.1-5.6 4.7-22.9 12.4-26.6 14z" fill="#150400"/><path d="M75.6 10c-4.4-.4-8.9-.7-13.6-.7-17.1 0-35.5 3.7-50.7 17.6v23.8c0 7.8 2.9 14.2 8.3 18.7 4.8 3.9 19.6 10.6 23.8 12.5 4.1-1.8 18.9-8.4 23.8-12.5 5.5-4.5 8.3-10.8 8.3-18.7V10m-61 38.3V28.9h6.2v19.6c0 1.7.4 4.3 3.2 4.3 1.2 0 2.2-.3 2.9-.8V28.9h6.1v26.7c-2.4 1.6-5.5 2.5-9.3 2.5-6.1 0-9.1-3.3-9.1-9.8m27.7 22.3H36V30.5c2.2-1.4 4.9-2.2 8.3-2.2 7.4 0 11.4 5.6 11.4 14.5 0 9-3.9 15.1-10.8 15.1-1.3 0-2.2-.2-2.8-.3zm0-18c.4.2 1.2.4 2 .4 3.5 0 5.2-3.3 5.2-10 0-6.9-1.5-9.7-5.1-9.7-.8 0-1.7.2-2.2.4zm14.9-16.3c0-5 4.2-7.9 8.3-8 3.4-.1 5.7 1.2 6.8 2v5.4c-1.3-1.3-3.4-2.5-5.5-2.5-1.7 0-3.6.8-3.6 2.9-.1 2.2 1.8 3.1 4 4.5 5.1 3 6.1 5.7 6 9.3-.1 3.9-2.8 8.2-8.9 8.2-2.4 0-4.8-.8-6.8-1.9v-5.7c1.6 1.4 3.9 2.5 5.9 2.5 2.3 0 3.7-1.3 3.7-3.4 0-1.9-1.1-3-3.8-4.6-5.1-3-6-5.4-6.1-8.7M17.6 71.9c-6.2-5.1-9.5-12.4-9.5-21.2V9.1c9.8-5.2 21.7-7.9 35.4-7.9s25.6 2.6 35.4 7.9v41.7c0 8.8-3.3 16.1-9.5 21.2-5.7 4.7-23.8 12.6-25.9 13.5-2.1-1-20.2-8.9-25.9-13.6z" fill="#f7be00"/></svg>