<svg xmlns="http://www.w3.org/2000/svg" xmlns:xlink="http://www.w3.org/1999/xlink" viewBox="0 0 106.27 120"><g transform="matrix(3.2 0 0 3.2 -27.32 -1.38)"><defs><path id="a" d="M0 0h152.22v45.59H0z"/></defs><clipPath id="b"><use xlink:href="#a" width="152.22" height="45.59"/></clipPath><path d="M37.27 26.72s.16-.14.27-.2l.49-.37c.35-.26.52-.2.52.1 0 .34-.2.6-.26.65.1-.05.24-.07.24.21 0 .21.02.39.08.41l-.3.23c-.04-.05-.04-.15-.04-.23 0-.34-.06-.44-.32-.25l-.4.3v.76l-.28.2zm.26.1.02.55.45-.34a.6.6 0 0 0 .27-.5c0-.22-.13-.17-.27-.06zm-3.15 3.56-.34.18v-1.88s.13-.09.27-.16l.56-.3c.31-.17.5-.13.5.19 0 .18-.08.37-.24.53.22-.06.33.06.33.3 0 .3-.19.64-.64.88zm-.04-1.6.01.51.48-.26a.47.47 0 0 0 .25-.4c0-.2-.1-.2-.25-.12zm.01.75.02.57.5-.27c.18-.1.29-.27.29-.45 0-.19-.11-.23-.29-.14zm-1.79 1.24-.14.57-.35.16.62-2.2.32-.14.8 1.55-.31.14-.2-.41zm.64-.55-.3-.67-.26.93zm-9.64 5.44-.2.5-.35-.03.76-1.86.38.02.77 1.98-.37-.03-.18-.52-.81-.06m.7-.24-.3-.84-.3.8zm-5.74-4.08-.17.44-.34-.12.71-1.62.32.12.68 2.05-.33-.1-.15-.48zm.63 0-.27-.9-.27.68z" clip-path="url(#b)"/><path d="M36.65 31.3c.51-.33.43-.3.43-.89V30c-.77.5-1.57.98-2.43 1.42v1.18l2-1.29m1.23-1.86v1.05c0 .8-.07.96-.52 1.27-.7.47-1.8 1.23-3.5 2.23v-2.17a23.4 23.4 0 0 1-3.2 1.26v3.18c-1.51.66-3.64 1.1-5.9 1.1-2.26 0-4.4-.44-5.9-1.1v-3.18a23.33 23.33 0 0 1-3.2-1.26V34c-1.7-1-2.8-1.76-3.5-2.23-.45-.3-.52-.47-.52-1.27v-1.05A37.95 37.95 0 0 1 8.4 26.9v-4.63h3.63c1.48 2.31 2.56 3.97 3.13 4.89a27.82 27.82 0 0 0 6.3 2.66c.64.17 1.26.32 1.87.43v2.87c.47.03 2.37.03 2.84 0v-2.87c.6-.11 1.23-.26 1.87-.43 2.1-.58 4.32-1.5 6.34-2.66 0 0 1.63-2.61 3.08-4.89h3.64v4.63c-.95.83-2.03 1.7-3.23 2.54m-25.44.54v.43c0 .59-.08.56.43.9l2 1.28v-1.18c-.86-.44-1.67-.92-2.43-1.43m27.88-6.5c-2.96 3.58-8.87 6.5-13.12 7.38l2.72 1.63s3.28-1.02 5.76-2.56c3.53-2.19 4.64-3.5 4.64-3.5v-2.95Zm-4.36 2.7c.66-.42 1.16-.78 1.16-.78l-.04-1.02Zm-22.42-.07-1.1-1.73v1.02c.37.27 1.1.7 1.1.7M9.2 23.5v3.06c2.98 2.42 6.26 4.8 10.39 5.94l2.72-1.63C18.06 30 12.16 27.07 9.2 23.5m10.46 9.84v2.37a13 13 0 0 0 5.1.86c1.93 0 3.72-.27 5.08-.86v-2.37a19.77 19.77 0 0 1-10.18 0z" clip-path="url(#b)"/><path d="M24.82 29.5c-6.94-1.86-12.72-7.81-12.72-14.03V.43h25.44v15.04c0 6.22-5.79 12.17-12.72 14.03M12.9 1.24v14.25c0 5.5 4.97 11.11 11.9 13.2 6.93-2.09 11.9-7.7 11.9-13.2V1.24Zm4.98 30.35v-1.86l-.33-.14v1.87z" clip-path="url(#b)"/><path fill-rule="evenodd" d="M17.28 29.76v-.28l-1.35-.64v.29l.5.23v1.6l.32.16v-1.57z" clip-path="url(#b)"/><path d="m15.36 29.94-.72-1.8-.32-.19v1.88l.29.18v-1.39l.01.01.72 1.8.29.17v-1.91l-.26-.15v1.41z" clip-path="url(#b)"/><path fill-rule="evenodd" d="M13.99 28.06v-.29l-1.13-.72v1.88l1.15.74v-.29l-.87-.56v-.55l.79.51v-.27l-.79-.51v-.49z" clip-path="url(#b)"/><path d="M12.6 28.73v-1.85l-.3-.19v1.85zM12.02 27a1.33 1.33 0 0 0-.6-1c-.41-.26-.66.03-.66.57 0 .54.25 1.14.66 1.4.34.2.58.04.6-.4l-.24-.14c-.02.26-.14.4-.35.27-.3-.18-.43-.62-.43-.98s.13-.64.42-.45c.21.12.31.34.35.58zm-2.5-1.2c0 .46.25.84.55 1.04.26.18.52.2.52-.22a1 1 0 0 0-.26-.66 8.62 8.62 0 0 0-.37-.4.52.52 0 0 1-.16-.36c0-.19.14-.15.24-.07.16.1.27.27.28.52l.23.16c0-.4-.23-.76-.5-.95-.24-.16-.48-.15-.48.23a1 1 0 0 0 .29.67l.39.43c.05.06.1.16.1.3 0 .15-.07.24-.27.1a.76.76 0 0 1-.33-.64zm17.25 9.04c-.05-.41-.4-.63-.86-.6-.6.03-.94.5-.94 1.05.01.55.38.99.97.95a.85.85 0 0 0 .84-.82l-.34.02c-.02.27-.2.51-.5.53-.43.03-.61-.33-.62-.7 0-.36.17-.74.6-.76.29-.02.44.13.5.35z" clip-path="url(#b)"/><path fill-rule="evenodd" d="M39.81 24.94v-.27l-.99.88v1.81l1-.89v-.28l-.76.68v-.53l.69-.61v-.26l-.69.62v-.48zm-8.94 6.71v-1.6l-.33.14v1.88l1.32-.49v-.29zm4.75-2.71a1.7 1.7 0 0 1 .55-1.48c.45-.41.79-.29.88.17 0 0 .19.74-.55 1.48-.45.37-.8.28-.88-.17m1.17-1.07c-.06-.3-.25-.48-.57-.19-.32.3-.4.71-.34 1.02.06.3.24.46.57.18.5-.55.34-1.01.34-1.01m-2.89-9.73v3.02a7.42 7.42 0 0 0-1.76-3.02Zm-5.49 0c.69 1.97 2 3.27 4.42 4.08H16.78c2.45-.81 3.76-2.11 4.44-4.08zm-10.93 0a7.59 7.59 0 0 0-1.76 3.02v-3.02z" clip-path="url(#b)"/><path fill-rule="evenodd" d="M24.82 16.08c.85 0 .77-.32 1.36-.32h2.45V10.9l-.34-.23v4.69h-1.9c-1.1 0-.82.32-1.57.32-.78 0-.48-.32-1.57-.32h-1.91v-4.69l-.34.23v4.86h2.46c.56 0 .49.32 1.36.32m.3-1.08c.38-.22.68-.24 1.25-.24h1.32v-4.09c-.66 0-.66-.17-1.42-.17-.72 0-1.15.48-1.15.95zm-.6 0c-.4-.22-.69-.24-1.25-.24h-1.33v-4.09c.66 0 .66-.17 1.42-.17.72 0 1.15.48 1.15.95zm-6.32-.74h.4c0-.13-.09-.23-.2-.23-.11 0-.2.1-.2.22zm.4.36h-.4v.04c0 .12.09.22.2.22.11 0 .2-.1.2-.22zm1.59.34h-1.27a.6.6 0 0 1-.51.29.57.57 0 0 1-.59-.57v-.06h-.1a.17.17 0 0 1-.18-.18c0-.1.07-.18.19-.18h.1v-.05c0-.3.25-.57.58-.57.22 0 .43.15.5.36l1.29-.02zm9.23-.98h1.67c.44 0 .72.08.72.44 0 .41-.23.54-.62.54h-1.77ZM18.2 11.6h.4c0-.14-.09-.23-.2-.23-.11 0-.2.1-.2.22zm.4.36h-.4v.03c0 .12.09.22.2.22.11 0 .2-.1.2-.22zm1.59.34h-1.27a.6.6 0 0 1-.51.28.57.57 0 0 1-.59-.56v-.06h-.1c-.1 0-.18-.08-.18-.19 0-.1.07-.17.19-.17h.1v-.06c0-.3.26-.56.58-.56.22 0 .43.15.5.35l1.29-.01zm9.23-.98h1.67c.44 0 .72.07.72.43 0 .42-.23.55-.62.55h-1.77Zm-13.7 6.82V5.11c1.06 3.12 2.9 4.4 5.94 4.88-.47-3.04-1.74-4.88-4.88-5.94h16.05c-3.12 1.06-4.38 2.9-4.85 5.94 3.04-.47 4.87-1.76 5.91-4.88v13.03h-1.75c-1.04-1.02-2.4-1.56-4.16-1.84.1.67.24 1.28.44 1.84h-7.2c.2-.56.34-1.17.44-1.84-1.77.27-3.14.82-4.17 1.85z" clip-path="url(#b)"/></g></svg>
