<svg version="1.1" xmlns="http://www.w3.org/2000/svg" xmlns:xlink="http://www.w3.org/1999/xlink" height="120" width="428.58" viewBox="0 0 428.58259 120">
<title>University of Queensland</title>
<g transform="matrix(3.2491269,0,0,3.2491269,-27.31541,-1.3808796)">
<defs>
<rect id="XMLID_1_" y="0" width="152.22" x="0" height="45.589"/>
</defs>
<clipPath id="XMLID_3_">
<use xlink:href="#XMLID_1_" height="45.589001" width="152.222" y="0" x="0"/>
</clipPath>
<path fill="#000" d="m37.272,26.723s0.158-0.14,0.265-0.211l0.49-0.359c0.349-0.259,0.522-0.212,0.522,0.094,0,0.345-0.207,0.595-0.259,0.655,0.094-0.052,0.236-0.075,0.236,0.208,0,0.212,0.022,0.386,0.084,0.414l-0.297,0.226c-0.043-0.051-0.043-0.149-0.043-0.234,0-0.335-0.061-0.435-0.315-0.245l-0.405,0.306v0.749l-0.278,0.208v-1.811zm0.26,0.093c0.007,0.202,0.012,0.411,0.015,0.558l0.457-0.346c0.174-0.127,0.268-0.301,0.268-0.49,0-0.23-0.127-0.179-0.272-0.069l-0.468,0.347z" clip-path="url(#XMLID_3_)"/>
<path fill="#000" d="m34.378,30.382-0.342,0.177v-1.881s0.131-0.084,0.278-0.156l0.556-0.306c0.311-0.165,0.509-0.127,0.509,0.189,0,0.188-0.089,0.372-0.245,0.532,0.212-0.058,0.325,0.061,0.325,0.311,0,0.297-0.188,0.631-0.636,0.876l-0.445,0.258zm-0.041-1.603,0.013,0.514,0.479-0.266c0.141-0.076,0.254-0.228,0.254-0.396,0-0.192-0.094-0.208-0.254-0.123l-0.492,0.271zm0.018,0.751,0.015,0.572,0.5-0.274c0.179-0.099,0.288-0.264,0.288-0.453,0-0.184-0.109-0.23-0.288-0.132l-0.515,0.287z" clip-path="url(#XMLID_3_)"/>
<path fill="#000" d="m32.565,30.772-0.149,0.567-0.35,0.161,0.627-2.192,0.315-0.146,0.811,1.546-0.32,0.146-0.194-0.418-0.74,0.336zm0.64-0.549-0.313-0.673-0.248,0.928,0.561-0.255z" clip-path="url(#XMLID_3_)"/>
<path fill="#000" d="m23.557,35.661-0.188,0.5-0.363-0.028,0.768-1.866,0.377,0.028,0.769,1.97-0.372-0.023-0.179-0.52c-0.228-0.014-0.646-0.047-0.812-0.061m0.707-0.24-0.306-0.839-0.303,0.798,0.609,0.041z" clip-path="url(#XMLID_3_)"/>
<path fill="#000" d="m18.521,31.345-0.17,0.435-0.339-0.123,0.711-1.616,0.315,0.118,0.684,2.049-0.334-0.089-0.146-0.488-0.721-0.286zm0.63-0.013-0.27-0.896-0.27,0.688,0.54,0.208z" clip-path="url(#XMLID_3_)"/>
<path fill="#000" d="m36.652,31.303c0.509-0.33,0.429-0.307,0.429-0.891v-0.426c-0.767,0.501-1.576,0.982-2.427,1.427v1.177s1.131-0.732,1.998-1.287m1.23-1.859v1.048c0,0.801-0.07,0.961-0.518,1.264-0.707,0.471-1.813,1.233-3.511,2.232v-2.172c-1.01,0.486-2.073,0.915-3.187,1.262l-0.008,3.182c-1.508,0.66-3.642,1.098-5.898,1.098-2.258,0-4.399-0.438-5.907-1.098v-3.183c-1.112-0.346-2.174-0.774-3.184-1.26v2.171c-1.7-0.999-2.808-1.762-3.515-2.232-0.447-0.303-0.518-0.463-0.518-1.264v-1.051c-1.196-0.836-2.274-1.71-3.229-2.545v-4.622h3.638c1.476,2.309,2.558,3.963,3.128,4.886,2.021,1.155,4.19,2.078,6.291,2.658,0.642,0.174,1.268,0.32,1.881,0.429v2.874c0.462,0.033,2.369,0.033,2.832,0v-2.874c0.607-0.108,1.238-0.255,1.875-0.429,2.102-0.58,4.315-1.503,6.342-2.658,0,0,1.628-2.61,3.077-4.886l3.638,0.003,0.004,4.619c-0.953,0.836-2.036,1.711-3.231,2.548m-25.444,0.539v0.429c0,0.584-0.075,0.561,0.434,0.891l1.993,1.287v-1.177c-0.85-0.445-1.661-0.928-2.427-1.43m27.885-6.503c-2.959,3.577-8.873,6.508-13.118,7.375l2.714,1.63s3.277-1.017,5.759-2.552c3.532-2.188,4.646-3.497,4.646-3.497v-2.956zm-4.364,2.708c0.656-0.432,1.163-0.789,1.163-0.789l-0.046-1.023-1.117,1.812zm-22.422-0.083c-0.315-0.514-0.633-0.994-1.094-1.73v1.023c0.364,0.274,1.094,0.707,1.094,0.707m-4.328-2.615-0.008,3.059c2.992,2.422,6.268,4.801,10.399,5.937l2.719-1.63c-4.246-0.868-10.152-3.793-13.11-7.366m10.457,9.837v2.372c1.366,0.593,3.152,0.857,5.095,0.857,1.944,0,3.727-0.265,5.093-0.857v-2.371c-1.603,0.426-3.303,0.66-5.093,0.66-2.6,0.009-5.089-0.659-5.09-0.66l-0.005-0.001z" clip-path="url(#XMLID_3_)"/>
<path fill="#000" d="M24.817,29.498c-6.938-1.854-12.722-7.808-12.722-14.026v-15.047h25.443v15.047c0.001,6.218-5.783,12.173-12.721,14.026m-11.909-28.26v14.253c0,5.5,4.972,11.113,11.909,13.193,6.918-2.08,11.891-7.693,11.891-13.193v-14.253h-23.8z" clip-path="url(#XMLID_3_)"/>
<polygon points="17.554,31.458,17.879,31.585,17.879,29.729,17.554,29.587" fill="#000" clip-path="url(#XMLID_3_)"/>
<polygon fill-rule="evenodd" clip-path="url(#XMLID_3_)" points="15.934,29.126,16.434,29.365,16.434,30.964,16.753,31.118,16.753,29.545,17.281,29.762,17.281,29.479,15.934,28.839" fill="#000"/>
<polygon points="15.368,29.945,15.358,29.94,14.642,28.141,14.317,27.952,14.317,29.832,14.609,30.007,14.609,28.621,14.619,28.626,15.335,30.427,15.632,30.596,15.632,28.692,15.368,28.541" fill="#000" clip-path="url(#XMLID_3_)"/>
<polygon fill-rule="evenodd" clip-path="url(#XMLID_3_)" points="13.139,27.51,13.992,28.057,13.992,27.773,12.861,27.053,12.861,28.933,14.006,29.667,14.006,29.381,13.139,28.824,13.139,28.272,13.926,28.777,13.926,28.509,13.139,28.005" fill="#000"/>
<polygon points="12.301,28.537,12.598,28.729,12.598,26.883,12.301,26.689" fill="#000" clip-path="url(#XMLID_3_)"/>
<path fill="#000" d="m12.018,27.005c-0.028-0.419-0.278-0.811-0.594-1.008-0.414-0.26-0.664,0.032-0.664,0.574,0,0.538,0.25,1.136,0.664,1.396,0.34,0.208,0.575,0.047,0.594-0.396l-0.236-0.146c-0.018,0.264-0.141,0.409-0.357,0.273-0.298-0.183-0.425-0.618-0.425-0.975,0-0.363,0.127-0.642,0.424-0.457,0.208,0.123,0.311,0.349,0.349,0.589l0.245,0.15z" clip-path="url(#XMLID_3_)"/>
<path fill="#000" d="m9.521,25.794c0.005,0.466,0.25,0.844,0.547,1.051,0.259,0.18,0.518,0.193,0.518-0.226,0-0.198-0.08-0.467-0.255-0.655-0.064-0.08-0.353-0.387-0.372-0.41-0.095-0.104-0.155-0.222-0.155-0.354,0-0.188,0.132-0.15,0.234-0.075,0.161,0.108,0.274,0.273,0.283,0.528l0.226,0.155c0-0.392-0.226-0.759-0.499-0.947-0.235-0.165-0.476-0.151-0.476,0.226,0,0.189,0.066,0.435,0.287,0.674,0.179,0.193,0.302,0.316,0.391,0.425,0.053,0.065,0.109,0.165,0.109,0.306,0,0.146-0.076,0.236-0.278,0.095-0.184-0.128-0.33-0.344-0.33-0.632l-0.23-0.161z" clip-path="url(#XMLID_3_)"/>
<path fill="#000" d="m26.766,34.842c-0.047-0.415-0.405-0.632-0.857-0.608-0.594,0.033-0.942,0.509-0.934,1.061,0.01,0.547,0.373,0.984,0.966,0.946,0.486-0.027,0.816-0.361,0.84-0.823l-0.34,0.019c-0.023,0.278-0.192,0.513-0.504,0.532-0.424,0.027-0.607-0.33-0.612-0.692-0.01-0.368,0.165-0.745,0.589-0.769,0.292-0.019,0.442,0.137,0.504,0.354l0.348-0.02z" clip-path="url(#XMLID_3_)"/>
<polygon fill-rule="evenodd" clip-path="url(#XMLID_3_)" points="39.063,25.61,39.809,24.941,39.809,24.673,38.823,25.554,38.823,27.363,39.822,26.473,39.822,26.194,39.063,26.873,39.063,26.341,39.751,25.729,39.751,25.47,39.063,26.087" fill="#000"/>
<polygon fill-rule="evenodd" clip-path="url(#XMLID_3_)" points="31.864,31.288,30.874,31.647,30.874,30.049,30.535,30.187,30.535,32.066,31.864,31.576" fill="#000"/>
<path d="m35.624,28.941c-0.089-0.457,0.104-1.074,0.547-1.483,0.447-0.41,0.787-0.283,0.876,0.17,0,0,0.19,0.746-0.551,1.479-0.441,0.377-0.787,0.283-0.872-0.166m1.164-1.074c-0.062-0.302-0.25-0.48-0.57-0.184-0.321,0.292-0.391,0.712-0.335,1.013,0.057,0.303,0.237,0.466,0.566,0.189,0.504-0.559,0.339-1.018,0.339-1.018" fill-rule="evenodd" clip-path="url(#XMLID_3_)" fill="#000"/>
<path d="m33.891,18.142v3.02c-0.436-1.306-1.011-2.288-1.755-3.022l1.755,0.002zm-5.476,0c0.682,1.965,1.986,3.269,4.417,4.078h-16.048c2.444-0.81,3.753-2.113,4.436-4.079l7.195,0.001zm-10.932,0c-0.741,0.738-1.317,1.72-1.759,3.02v-3.02h1.759z" fill-rule="evenodd" clip-path="url(#XMLID_3_)" fill="#000"/>
<path d="m24.816,16.079c0.85,0,0.774-0.321,1.36-0.321h2.457v-4.858l-0.34-0.228v4.688h-1.909c-1.097,0-0.813,0.321-1.568,0.321-0.775,0-0.474-0.321-1.569-0.321h-1.909v-4.688l-0.341,0.228v4.857h2.458c0.567,0.001,0.491,0.322,1.361,0.322m0.302-1.077c0.378-0.227,0.681-0.246,1.248-0.246h1.323v-4.083c-0.662,0-0.662-0.17-1.418-0.17-0.719,0-1.153,0.473-1.153,0.945v3.554zm-0.605,0c-0.396-0.227-0.68-0.246-1.246-0.246h-1.324v-4.083c0.662,0,0.662-0.17,1.418-0.17,0.718,0,1.152,0.473,1.152,0.945v3.554zm-6.315-0.738h0.41c0-0.136-0.096-0.234-0.208-0.234-0.113,0-0.202,0.099-0.202,0.222v0.012zm0.41,0.359h-0.41v0.033c0,0.122,0.089,0.221,0.202,0.221,0.112,0,0.208-0.099,0.208-0.221v-0.033zm1.58,0.341h-1.271c-0.094,0.17-0.302,0.283-0.51,0.283-0.322,0-0.586-0.245-0.586-0.567v-0.057h-0.095c-0.113,0-0.189-0.075-0.189-0.188,0-0.095,0.076-0.171,0.189-0.171h0.095v-0.056c0-0.303,0.264-0.566,0.586-0.566,0.227,0,0.435,0.15,0.51,0.358l1.281-0.018-0.01,0.982zm9.234-0.982,1.669-0.001c0.436,0,0.72,0.075,0.72,0.435,0,0.415-0.228,0.548-0.624,0.548h-1.765v-0.982zm-11.224-2.382h0.41c0-0.137-0.096-0.235-0.208-0.235-0.113,0-0.202,0.099-0.202,0.221v0.014zm0.41,0.358h-0.41v0.033c0,0.122,0.089,0.221,0.202,0.221,0.112,0,0.208-0.099,0.208-0.221v-0.033zm1.58,0.341h-1.271c-0.094,0.17-0.302,0.283-0.51,0.283-0.322,0-0.586-0.246-0.586-0.566v-0.058h-0.095c-0.113,0-0.189-0.075-0.189-0.188,0-0.095,0.076-0.17,0.189-0.17h0.095v-0.058c0-0.302,0.264-0.566,0.586-0.566,0.227,0,0.435,0.151,0.51,0.358l1.281-0.017-0.01,0.982zm9.234-0.982,1.669-0.001c0.436,0,0.72,0.075,0.72,0.434,0,0.416-0.228,0.549-0.624,0.549h-1.765v-0.982zm-13.696,6.825v-13.029c1.059,3.119,2.892,4.404,5.935,4.877-0.472-3.044-1.739-4.877-4.876-5.937h16.048c-3.119,1.06-4.385,2.893-4.858,5.937,3.044-0.473,4.878-1.758,5.918-4.877v13.028h-1.757c-1.032-1.021-2.393-1.563-4.161-1.839,0.104,0.668,0.248,1.279,0.441,1.838l-7.195,0.001c0.193-0.56,0.336-1.171,0.44-1.839-1.775,0.266-3.138,0.813-4.176,1.843l-1.759-0.003z" fill-rule="evenodd" clip-path="url(#XMLID_3_)" fill="#000"/>
<path d="m46.429,36.623c0.143-0.016,0.274-0.04,0.369-0.163,0.073-0.094,0.207-0.364,0.4-0.82l1.303-3.065h0.204l1.554,3.535c0.103,0.235,0.179,0.366,0.228,0.411,0.082,0.072,0.229,0.09,0.332,0.104v0.229h-1.697v-0.232c0.122-0.011,0.274-0.009,0.388-0.057,0.019-0.01,0.041-0.033,0.041-0.114,0-0.094-0.073-0.291-0.109-0.376l-0.242-0.555h-1.529c-0.151,0.38-0.241,0.612-0.272,0.699-0.03,0.086-0.042,0.148-0.042,0.19,0,0.083,0.031,0.131,0.09,0.159,0.077,0.035,0.244,0.046,0.332,0.054v0.232h-1.35v-0.231zm2.012-2.951-0.611,1.471h1.229l-0.618-1.471z" fill-rule="evenodd" clip-path="url(#XMLID_3_)" fill="#000"/>
<path fill="#000" d="m55.223,32.883c-0.117,0.008-0.389,0.023-0.481,0.109-0.047,0.041-0.084,0.156-0.084,0.386v1.973c0,0.319,0.043,0.561,0.126,0.729,0.15,0.303,0.437,0.459,0.88,0.459,0.926,0,1.096-0.541,1.096-1.316v-1.605c0-0.341-0.043-0.523-0.103-0.586-0.105-0.113-0.337-0.136-0.476-0.149v-0.235h1.554v0.235c-0.134,0.014-0.388,0.04-0.483,0.158-0.057,0.067-0.094,0.25-0.094,0.577v1.605c0,0.432-0.066,0.775-0.204,1.027-0.255,0.467-0.74,0.692-1.43,0.692-0.681,0-1.16-0.222-1.417-0.683-0.137-0.246-0.203-0.564-0.203-0.953v-1.928c0-0.228-0.038-0.342-0.084-0.384-0.092-0.085-0.358-0.104-0.474-0.112v-0.236h1.877v0.237z" clip-path="url(#XMLID_3_)"/>
<path fill="#000" d="m61.062,36.172c0.233,0.273,0.52,0.409,0.865,0.409,0.182,0,0.337-0.059,0.467-0.172,0.128-0.11,0.195-0.266,0.195-0.474,0-0.184-0.065-0.342-0.198-0.479-0.215-0.214-0.87-0.594-1.113-0.744-0.161-0.103-0.293-0.207-0.392-0.315-0.185-0.205-0.279-0.435-0.279-0.687,0-0.698,0.514-1.151,1.196-1.151,0.15,0,0.326,0.037,0.526,0.109,0.206,0.07,0.306,0.099,0.32,0.099,0.069,0,0.097-0.018,0.107-0.031,0.041-0.05,0.054-0.115,0.068-0.177h0.233l0.149,1.44h-0.266c-0.078-0.307-0.199-0.647-0.473-0.84-0.212-0.151-0.419-0.224-0.62-0.224-0.3,0-0.566,0.177-0.566,0.5,0,0.145,0.044,0.266,0.13,0.365,0.091,0.107,0.233,0.223,0.434,0.346l0.543,0.334c0.341,0.211,0.588,0.407,0.732,0.59,0.146,0.189,0.219,0.412,0.22,0.666,0,0.343-0.131,0.63-0.39,0.858-0.257,0.229-0.584,0.341-0.976,0.341-0.199,0-0.406-0.037-0.62-0.111-0.215-0.075-0.319-0.105-0.335-0.105-0.06,0-0.082,0.017-0.093,0.034-0.031,0.058-0.039,0.11-0.049,0.174h-0.245l-0.201-1.44h0.258c0.092,0.242,0.202,0.485,0.373,0.685" clip-path="url(#XMLID_3_)"/>
<path fill="#000" d="m69.814,32.646,0.037,1.176h-0.264c-0.037-0.171-0.115-0.524-0.269-0.658-0.091-0.082-0.301-0.134-0.66-0.134h-0.278v3.094c0,0.243,0.04,0.357,0.087,0.395,0.101,0.076,0.394,0.095,0.513,0.104v0.233h-1.925v-0.233c0.513-0.039,0.584-0.042,0.584-0.571v-3.021h-0.28c-0.341,0-0.554,0.05-0.66,0.134-0.163,0.131-0.23,0.48-0.264,0.658h-0.268l0.039-1.176h3.608z" clip-path="url(#XMLID_3_)"/>
<path d="m72.848,36.501c0.041-0.05,0.072-0.189,0.072-0.451v-2.672c0-0.217-0.035-0.334-0.081-0.38-0.083-0.088-0.338-0.107-0.449-0.116v-0.236h1.771c0.36,0,0.664,0.046,0.911,0.141,0.474,0.179,0.715,0.516,0.715,1.002,0,0.321-0.105,0.578-0.323,0.757-0.188,0.156-0.436,0.262-0.736,0.32l1.203,1.479c0.17,0.209,0.288,0.252,0.55,0.278v0.231h-1.088l-1.469-1.896-0.25,0.011v1.154c0,0.23,0.036,0.348,0.081,0.389,0.093,0.08,0.36,0.1,0.476,0.11v0.232h-1.841v-0.232c0.104-0.01,0.383-0.032,0.458-0.121m2.141-2.719c0-0.337-0.135-0.556-0.401-0.675-0.146-0.064-0.345-0.1-0.599-0.1-0.181,0-0.267,0.015-0.288,0.029-0.007,0.005-0.027,0.029-0.027,0.121v1.455c0.406-0.018,0.693-0.063,0.864-0.132,0.303-0.123,0.451-0.35,0.451-0.698" fill-rule="evenodd" clip-path="url(#XMLID_3_)" fill="#000"/>
<path d="m78.747,36.623c0.143-0.016,0.274-0.04,0.369-0.163,0.073-0.094,0.207-0.364,0.4-0.82l1.303-3.065h0.204l1.554,3.535c0.103,0.235,0.179,0.366,0.228,0.411,0.082,0.072,0.229,0.09,0.332,0.104v0.229h-1.697v-0.232c0.122-0.011,0.274-0.009,0.389-0.057,0.018-0.01,0.04-0.033,0.04-0.114,0-0.094-0.073-0.291-0.109-0.376l-0.24-0.556h-1.529c-0.151,0.38-0.241,0.612-0.272,0.699-0.03,0.086-0.042,0.148-0.042,0.19,0,0.083,0.031,0.131,0.09,0.159,0.077,0.035,0.244,0.046,0.332,0.054v0.232h-1.35v-0.23zm2.013-2.951-0.61,1.471h1.229l-0.619-1.471z" fill-rule="evenodd" clip-path="url(#XMLID_3_)" fill="#000"/>
<path fill="#000" d="m86.111,36.511c0.043-0.037,0.08-0.15,0.08-0.389v-2.744c0-0.22-0.035-0.337-0.081-0.383-0.086-0.089-0.348-0.104-0.461-0.112v-0.236h1.871v0.237c-0.126,0.006-0.376,0.018-0.482,0.102-0.052,0.042-0.091,0.146-0.091,0.351v2.963c0,0.063,0.01,0.104,0.025,0.131,0.008,0.014,0.032,0.032,0.104,0.041l0.142,0.013,0.287,0.003c0.549,0,0.905-0.046,1.084-0.13,0.253-0.118,0.441-0.48,0.548-0.699h0.279l-0.337,1.197h-3.431v-0.232c0.112-0.013,0.374-0.038,0.463-0.113" clip-path="url(#XMLID_3_)"/>
<path fill="#000" d="m92.429,36.519c0.047-0.037,0.087-0.152,0.087-0.396v-2.744c0-0.228-0.04-0.346-0.09-0.389-0.1-0.089-0.389-0.099-0.511-0.105v-0.237h1.953v0.237c-0.122,0.007-0.41,0.017-0.51,0.105-0.05,0.043-0.09,0.161-0.09,0.389v2.744c0,0.244,0.04,0.359,0.087,0.396,0.1,0.075,0.395,0.094,0.513,0.103v0.234h-1.953v-0.234c0.119-0.01,0.412-0.028,0.514-0.103" clip-path="url(#XMLID_3_)"/>
<path d="m96.429,36.623c0.144-0.016,0.275-0.04,0.369-0.163,0.074-0.094,0.207-0.364,0.402-0.82l1.302-3.065h0.204l1.553,3.535c0.104,0.235,0.18,0.366,0.229,0.411,0.082,0.072,0.228,0.09,0.332,0.104v0.229h-1.697v-0.232c0.122-0.011,0.274-0.009,0.388-0.057,0.019-0.01,0.04-0.033,0.04-0.114,0-0.094-0.072-0.291-0.108-0.376l-0.24-0.556h-1.53c-0.15,0.38-0.241,0.612-0.271,0.699-0.03,0.086-0.042,0.148-0.042,0.19,0,0.083,0.03,0.131,0.09,0.159,0.077,0.035,0.244,0.046,0.332,0.054v0.232h-1.351v-0.23zm2.013-2.951-0.611,1.471h1.229l-0.618-1.471z" fill-rule="evenodd" clip-path="url(#XMLID_3_)" fill="#000"/>
<path d="m115.02,5.759c0.008,0.869-0.709,1.626-1.739,1.932l2.238,2.93c0.226,0.259,0.435,0.564,0.74,0.564h0.048v0.209h-1.738l-2.689-3.542h-0.499v2.528c0,0.515,0.209,0.805,0.708,0.805h0.049v0.209h-2.77v-0.209h0.081c0.482,0,0.692-0.29,0.692-0.805v-5.652c0-0.499-0.21-0.805-0.692-0.805h-0.081v-0.209h2.013c2.962-0.161,3.626,0.824,3.639,2.045m-3.64-1.421v3.03h0.645c0.934,0,1.675-0.74,1.675-1.609,0-0.87-0.741-1.546-1.675-1.546-0.001,0-0.303-0.036-0.645,0.125" fill-rule="evenodd" clip-path="url(#XMLID_3_)" fill="#000"/>
<path fill="#000" d="m50.75,11.361v-0.273h-0.435c-0.468,0-0.854-0.435-0.854-0.917v-7.73h1.787c0.741,0,1.192,0.547,1.24,1.626h0.24l-0.094-2.317c0-0.033-0.048-0.081-0.064-0.081h-7.842s-0.063,0.048-0.063,0.081l-0.097,2.317h0.258c0.048-1.079,0.499-1.626,1.24-1.626h1.786v7.729c0,0.482-0.387,0.917-0.87,0.917h-0.45v0.273h4.218z" clip-path="url(#XMLID_3_)"/>
<path fill="#000" d="m80.287,2.619c0-0.468-0.273-0.677-0.644-0.677h-0.37v-0.29h2.785v0.29h-0.322c-0.418,0-0.66,0.209-0.66,0.677v5.635c0,1.819-1.4,3.221-3.703,3.221s-3.815-1.433-3.815-3.382v-5.249c0-0.467-0.371-0.901-0.87-0.901h-0.113v-0.29h3.575v0.29h-0.129c-0.483,0-0.869,0.435-0.869,0.901v5.298c0,1.417,0.885,2.56,2.367,2.56,1.417,0,2.769-0.854,2.769-2.447v-5.636z" clip-path="url(#XMLID_3_)"/>
<path fill="#000" d="m58.736,7.707h-3.285v2.641c0,0.515,0.21,0.805,0.693,0.805h0.048v0.209h-2.753v-0.209h0.048c0.531,0,0.692-0.29,0.692-0.805v-5.653c0-0.499-0.161-0.805-0.692-0.805h-0.048v-0.208h2.753v0.209h-0.048c-0.483,0-0.693,0.306-0.693,0.805v2.464h3.285v-2.465c0-0.499-0.209-0.805-0.726-0.805h-0.048v-0.208h2.786v0.209h-0.081c-0.499,0-0.691,0.306-0.691,0.805v5.652c0,0.515,0.192,0.805,0.691,0.805h0.081v0.209h-2.786v-0.209h0.048c0.517,0,0.726-0.29,0.726-0.805v-2.641z" clip-path="url(#XMLID_3_)"/>
<path fill="#000" d="m63.663,7.578v2.834c0,0.225,0.177,0.386,0.386,0.386h1.934c1.062,0,1.545-0.628,1.803-1.497h0.226l-0.645,2.062h-5.717v-0.21h0.049c0.499,0,0.708-0.289,0.708-0.806v-5.65c0-0.499-0.209-0.806-0.708-0.806h-0.049v-0.209h5.539l0.129,1.755h-0.193c-0.049-0.805-0.499-1.239-1.079-1.239h-2.383v2.801h2.222c0.37,0,0.548-0.402,0.548-0.725v-0.048h0.226v2.125h-0.226v-0.049c0-0.354-0.178-0.724-0.548-0.724h-2.222z" clip-path="url(#XMLID_3_)"/>
<path fill="#000" d="m93.023,10.348c0,0.515,0.209,0.805,0.708,0.805h0.033v0.209h-2.737v-0.209h0.032c0.531,0,0.74-0.29,0.74-0.805v-5.653c0-0.499-0.209-0.805-0.74-0.805h-0.032v-0.208h2.737v0.209h-0.033c-0.499,0-0.708,0.306-0.708,0.805v5.652z" clip-path="url(#XMLID_3_)"/>
<path fill="#000" d="m98.546,11.313,2.657-6.746c0.209-0.435,0.402-0.677,0.708-0.677v-0.208h-1.771v0.209h0.112c0.226,0,0.468,0.226,0.37,0.516l-1.896,4.733-2.077-4.733c-0.113-0.29,0.145-0.516,0.338-0.516h0.258v-0.209h-2.608v0.209c0.306,0,0.516,0.226,0.709,0.644l2.93,6.779c0.063,0.081,0.208,0.113,0.272-0.001" clip-path="url(#XMLID_3_)"/>
<path fill="#000" d="m104.78,7.578v2.834c0,0.225,0.177,0.386,0.387,0.386h1.933c1.046,0,1.528-0.628,1.803-1.497h0.226l-0.66,2.062h-5.7v-0.21h0.049c0.499,0,0.692-0.289,0.692-0.806v-5.65c0-0.499-0.193-0.806-0.692-0.806h-0.049v-0.209h5.522l0.146,1.755h-0.193c-0.048-0.805-0.515-1.239-1.079-1.239h-2.383v2.801h2.206c0.386,0,0.564-0.402,0.564-0.725v-0.048h0.225v2.125h-0.225v-0.049c0-0.354-0.179-0.724-0.564-0.724h-2.208z" clip-path="url(#XMLID_3_)"/>
<path fill="#000" d="m117.11,8.753h-0.226v2.608h0.226c0.097-0.338,0.386-0.499,0.66-0.338,0.934,0.499,2.093,0.58,2.897-0.048,0.773-0.564,1.111-1.676,0.628-2.544-0.451-0.854-1.657-1.515-2.592-1.997-1.079-0.611-1.111-1.643-0.29-2.173,0.998-0.58,2.48,0.435,2.48,1.899h0.192v-2.478h-0.192c-0.065,0.369-0.338,0.402-0.726,0.241-1.063-0.482-1.932-0.467-2.673,0.209-0.837,0.773-1.03,2.335,0.338,3.173,0.822,0.515,1.934,1.095,2.335,1.642,0.371,0.499,0.436,1.095-0.273,1.707-1.029,0.902-2.784-0.194-2.784-1.901" clip-path="url(#XMLID_3_)"/>
<path fill="#000" d="m84.313,3.682h-1.964v0.209c0.322,0,0.531,0.032,0.692,0.226,0.177,0.193,0.29,0.338,0.515,0.596v5.86c0,0.371-0.338,0.564-0.676,0.564h-0.081v0.225h2.142v-0.225h-0.048c-0.354,0-0.709-0.193-0.709-0.564v-5.089l5.072,5.877h0.161v-6.89c0-0.388,0.354-0.58,0.691-0.58h0.05v-0.209h-2.126v0.209h0.064c0.338,0,0.676,0.192,0.676,0.58v4.379l-4.459-5.168z" clip-path="url(#XMLID_3_)"/>
<path fill="#000" d="m124.28,10.348c0,0.515,0.209,0.805,0.709,0.805h0.048v0.209h-2.771v-0.209h0.081c0.499,0,0.692-0.29,0.692-0.805v-5.653c0-0.499-0.193-0.805-0.692-0.805h-0.081v-0.208h2.771v0.209h-0.048c-0.5,0-0.709,0.306-0.709,0.805v5.652z" clip-path="url(#XMLID_3_)"/>
<path fill="#000" d="m136.08,8.093-2.351-3.591c-0.241-0.45-0.499-0.61-0.805-0.61v-0.227h2.721v0.227h-0.177c-0.226,0-0.436,0.272-0.29,0.563l1.933,2.947,1.755-2.995c0.128-0.209-0.033-0.515-0.242-0.515h-0.19v-0.227h1.884v0.227c-0.338,0-0.645,0.225-0.87,0.578l-2.093,3.575v2.318c0,0.532,0.209,0.789,0.725,0.789h0.048v0.209h-2.802v-0.209h0.049c0.516,0,0.708-0.29,0.708-0.821v-2.238z" clip-path="url(#XMLID_3_)"/>
<path fill="#000" d="m129.78,10.396c0,0.516,0.209,0.757,0.708,0.757h0.032v0.209h-2.737v-0.209h0.033c0.498,0,0.739-0.241,0.739-0.757v-6.135h-1.545c-0.58,0-0.918,0.403-0.967,1.24h-0.177l0.064-1.771c0-0.016,0.032-0.048,0.048-0.048h6.345c0.016,0,0.048,0.032,0.048,0.048l0.081,1.771h-0.193c-0.049-0.837-0.354-1.24-0.95-1.24h-1.529v6.135z" clip-path="url(#XMLID_3_)"/>
<path fill="#000" d="m56.53,24.597c0,0.516,0.209,0.789,0.692,0.789h0.081v0.193h-2.771v-0.193h0.049c0.516,0,0.708-0.306,0.708-0.805v-5.635c0-0.517-0.192-0.839-0.708-0.839h-0.049v-0.209h5.877l0.129,1.771h-0.177c-0.048-0.789-0.515-1.24-1.079-1.24h-2.752v2.786h2.238c0.386,0,0.548-0.354,0.548-0.725v-0.049h0.209v2.125h-0.209v-0.031c0-0.37-0.162-0.74-0.548-0.74h-2.238v2.802z" clip-path="url(#XMLID_3_)"/>
<path fill="#000" d="m84.579,21.795v2.834c0,0.241,0.192,0.402,0.419,0.402h1.916c1.046,0,1.528-0.644,1.803-1.513h0.209l-0.628,2.061h-5.716v-0.193h0.049c0.515,0,0.708-0.306,0.708-0.806v-5.65c0-0.499-0.193-0.821-0.708-0.821h-0.049v-0.21h5.522l0.129,1.771h-0.177c-0.032-0.821-0.515-1.239-1.095-1.239h-2.383v2.785h2.237c0.354,0,0.564-0.354,0.564-0.725v-0.049h0.193v2.126h-0.193v-0.032c0-0.371-0.21-0.741-0.564-0.741h-2.236z" clip-path="url(#XMLID_3_)"/>
<path fill="#000" d="m80.473,18.64c0-0.338-0.225-0.531-0.53-0.531h-0.211v-0.21h2.095v0.21h-0.242c-0.306,0-0.499,0.193-0.499,0.531v4.492c0,1.448-1.111,2.527-2.931,2.527-1.835,0-3.043-1.127-3.043-2.673v-4.138c0-0.37-0.29-0.74-0.677-0.74h-0.016v-0.21h2.689v0.21h-0.048c-0.354,0-0.66,0.37-0.66,0.74v4.187c0,1.111,0.692,2.045,1.852,2.045,1.143,0,2.222-0.692,2.222-1.948v-4.492z" clip-path="url(#XMLID_3_)"/>
<path fill="#000" d="m91.342,21.795v2.834c0,0.241,0.177,0.402,0.386,0.402h1.933c1.063,0,1.529-0.644,1.803-1.513h0.226l-0.66,2.061h-5.684v-0.193h0.032c0.499,0,0.708-0.306,0.708-0.806v-5.65c0-0.499-0.209-0.821-0.708-0.821h-0.032v-0.21h5.507l0.129,1.771h-0.177c-0.05-0.821-0.517-1.239-1.079-1.239h-2.383v2.785h2.205c0.387,0,0.597-0.354,0.597-0.725v-0.049h0.192v2.126h-0.192v-0.032c0-0.371-0.21-0.741-0.597-0.741h-2.206z" clip-path="url(#XMLID_3_)"/>
<path fill="#000" d="m111.97,24.549c0,0.241,0.193,0.482,0.403,0.482h1.787c1.046,0,1.529-0.66,1.803-1.546h0.226l-0.627,2.094h-5.589v-0.21h0.065c0.483,0,0.692-0.306,0.692-0.82v-5.604c0-0.515-0.209-0.837-0.692-0.837h-0.065v-0.21h2.771v0.21h-0.049c-0.531,0-0.725,0.322-0.725,0.837v5.604z" clip-path="url(#XMLID_3_)"/>
<path fill="#000" d="m104.48,22.986h-0.226v2.593h0.226c0.079-0.354,0.369-0.499,0.659-0.339,0.935,0.483,2.094,0.597,2.914-0.031,0.773-0.58,1.111-1.675,0.628-2.544-0.45-0.869-1.689-1.514-2.592-2.014-1.095-0.61-1.143-1.657-0.29-2.156,0.966-0.597,2.464,0.401,2.464,1.899h0.226v-2.512h-0.226c-0.081,0.386-0.338,0.435-0.709,0.273-1.079-0.515-1.964-0.467-2.705,0.193-0.82,0.773-0.997,2.351,0.371,3.188,0.821,0.515,1.933,1.078,2.334,1.642,0.338,0.467,0.436,1.079-0.273,1.707-1.03,0.887-2.801-0.207-2.801-1.899" clip-path="url(#XMLID_3_)"/>
<path fill="#000" d="m97.621,17.898h-1.964v0.209c0.321,0,0.547,0.05,0.676,0.227,0.192,0.209,0.322,0.338,0.547,0.611v5.845c0,0.387-0.354,0.58-0.692,0.58h-0.063v0.209h2.125v-0.209h-0.048c-0.355,0-0.693-0.193-0.693-0.58v-5.088l5.056,5.877h0.161v-6.892c0-0.37,0.338-0.58,0.676-0.58h0.065v-0.209h-2.109v0.209h0.049c0.338,0,0.708,0.21,0.708,0.58v4.396l-4.494-5.185z" clip-path="url(#XMLID_3_)"/>
<path fill="#000" d="m126.12,17.898h-1.964v0.209c0.305,0,0.531,0.05,0.66,0.227,0.192,0.209,0.321,0.338,0.547,0.611v5.845c0,0.387-0.354,0.58-0.692,0.58h-0.048v0.209h2.109v-0.209h-0.04c-0.371,0-0.709-0.193-0.709-0.58v-5.088l5.056,5.877h0.161v-6.892c0-0.37,0.338-0.58,0.676-0.58h0.081v-0.209h-2.077v0.209c0.339,0,0.708,0.21,0.708,0.58v4.396l-4.476-5.185z" clip-path="url(#XMLID_3_)"/>
<path d="m118.58,22.539h2.255l-1.124-2.598-1.131,2.598zm4.558,2.143c0.177,0.419,0.402,0.659,0.707,0.659h0.081v0.209h-2.673v-0.209h0.21c0.241,0,0.483-0.24,0.37-0.53l-0.741-1.707h-2.721l-0.725,1.707c-0.112,0.29,0.162,0.53,0.435,0.53h0.098v0.209h-2.046v-0.209h0.146c0.306,0,0.58-0.24,0.789-0.691l2.834-6.859c0.169-0.191,0.261,0.026,0.261,0.026l2.975,6.865z" fill-rule="evenodd" clip-path="url(#XMLID_3_)" fill="#000"/>
<path d="m134.95,18.462v6.537c0.306,0.081,0.467,0.097,0.757,0.097,2.319,0,3.431-1.369,3.431-3.365,0.016-0.085,0.137-3.485-3.45-3.396,0-0.001-0.459-0.07-0.738,0.127m5.363,3.285c0,2.158-1.724,3.848-3.961,3.848h-3.559v-0.209h0.064c0.499,0,0.692-0.306,0.692-0.82v-5.604c0-0.516-0.193-0.838-0.692-0.838h-0.064v-0.209h2.918c4.911-0.153,4.602,3.832,4.602,3.832" fill-rule="evenodd" clip-path="url(#XMLID_3_)" fill="#000"/>
<path d="m46.29,20.593c0.008,2.584,1.195,4.376,2.882,4.348,1.578,0,2.882-1.586,2.882-4.419-0.06-3.725-1.972-4.228-2.882-4.275-2.129,0.107-2.889,2.242-2.882,4.346m2.882-4.943c2.822,0.04,4.605,2.206,4.605,4.942,0,2.705-1.803,4.928-4.605,4.928s-4.604-2.223-4.604-4.928c0.242-5.164,4.604-4.942,4.604-4.942" fill-rule="evenodd" clip-path="url(#XMLID_3_)" fill="#000"/>
<path d="m69.178,16.405s-2.806-0.133-2.842,4.348c0,2.85,1.272,4.347,2.882,4.347,1.563,0,2.866-1.497,2.866-4.347,0-2.851-1.344-4.348-2.906-4.348m0-0.595s4.585,0.008,4.661,5.012c0,2.222-1.175,4.021-3.107,4.649,0.419,0.95,1.563,2.028,3.141,2.125v0.258c-2.19,0-4.122-0.709-5.588-2.222-2.286-0.436-3.703-2.464-3.703-4.879-0.001-2.725,1.786-4.923,4.596-4.943" fill-rule="evenodd" clip-path="url(#XMLID_3_)" fill="#000"/>
</g>
</svg>
