<svg version="1.1" xmlns="http://www.w3.org/2000/svg" xmlns:xlink="http://www.w3.org/1999/xlink" height="120" width="428.58" viewBox="0 0 428.58259 120">
<title>University of Queensland</title>
<g transform="matrix(3.2491269,0,0,3.2491269,-27.31541,-1.3808796)">
<defs>
<rect id="XMLID_1_" y="0" width="152.22" x="0" height="45.589"/>
</defs>
<clipPath id="XMLID_3_">
<use xlink:href="#XMLID_1_" height="45.589001" width="152.222" y="0" x="0"/>
</clipPath>
<path fill="#000" d="m37.272,26.723s0.158-0.14,0.265-0.211l0.49-0.359c0.349-0.259,0.522-0.212,0.522,0.094,0,0.345-0.207,0.595-0.259,0.655,0.094-0.052,0.236-0.075,0.236,0.208,0,0.212,0.022,0.386,0.084,0.414l-0.297,0.226c-0.043-0.051-0.043-0.149-0.043-0.234,0-0.335-0.061-0.435-0.315-0.245l-0.405,0.306v0.749l-0.278,0.208v-1.811zm0.26,0.093c0.007,0.202,0.012,0.411,0.015,0.558l0.457-0.346c0.174-0.127,0.268-0.301,0.268-0.49,0-0.23-0.127-0.179-0.272-0.069l-0.468,0.347z" clip-path="url(#XMLID_3_)"/>
<path fill="#000" d="m34.378,30.382-0.342,0.177v-1.881s0.131-0.084,0.278-0.156l0.556-0.306c0.311-0.165,0.509-0.127,0.509,0.189,0,0.188-0.089,0.372-0.245,0.532,0.212-0.058,0.325,0.061,0.325,0.311,0,0.297-0.188,0.631-0.636,0.876l-0.445,0.258zm-0.041-1.603,0.013,0.514,0.479-0.266c0.141-0.076,0.254-0.228,0.254-0.396,0-0.192-0.094-0.208-0.254-0.123l-0.492,0.271zm0.018,0.751,0.015,0.572,0.5-0.274c0.179-0.099,0.288-0.264,0.288-0.453,0-0.184-0.109-0.23-0.288-0.132l-0.515,0.287z" clip-path="url(#XMLID_3_)"/>
<path fill="#000" d="m32.565,30.772-0.149,0.567-0.35,0.161,0.627-2.192,0.315-0.146,0.811,1.546-0.32,0.146-0.194-0.418-0.74,0.336zm0.64-0.549-0.313-0.673-0.248,0.928,0.561-0.255z" clip-path="url(#XMLID_3_)"/>
<path fill="#000" d="m23.557,35.661-0.188,0.5-0.363-0.028,0.768-1.866,0.377,0.028,0.769,1.97-0.372-0.023-0.179-0.52c-0.228-0.014-0.646-0.047-0.812-0.061m0.707-0.24-0.306-0.839-0.303,0.798,0.609,0.041z" clip-path="url(#XMLID_3_)"/>
<path fill="#000" d="m18.521,31.345-0.17,0.435-0.339-0.123,0.711-1.616,0.315,0.118,0.684,2.049-0.334-0.089-0.146-0.488-0.721-0.286zm0.63-0.013-0.27-0.896-0.27,0.688,0.54,0.208z" clip-path="url(#XMLID_3_)"/>
<path fill="#000" d="m36.652,31.303c0.509-0.33,0.429-0.307,0.429-0.891v-0.426c-0.767,0.501-1.576,0.982-2.427,1.427v1.177s1.131-0.732,1.998-1.287m1.23-1.859v1.048c0,0.801-0.07,0.961-0.518,1.264-0.707,0.471-1.813,1.233-3.511,2.232v-2.172c-1.01,0.486-2.073,0.915-3.187,1.262l-0.008,3.182c-1.508,0.66-3.642,1.098-5.898,1.098-2.258,0-4.399-0.438-5.907-1.098v-3.183c-1.112-0.346-2.174-0.774-3.184-1.26v2.171c-1.7-0.999-2.808-1.762-3.515-2.232-0.447-0.303-0.518-0.463-0.518-1.264v-1.051c-1.196-0.836-2.274-1.71-3.229-2.545v-4.622h3.638c1.476,2.309,2.558,3.963,3.128,4.886,2.021,1.155,4.19,2.078,6.291,2.658,0.642,0.174,1.268,0.32,1.881,0.429v2.874c0.462,0.033,2.369,0.033,2.832,0v-2.874c0.607-0.108,1.238-0.255,1.875-0.429,2.102-0.58,4.315-1.503,6.342-2.658,0,0,1.628-2.61,3.077-4.886l3.638,0.003,0.004,4.619c-0.953,0.836-2.036,1.711-3.231,2.548m-25.444,0.539v0.429c0,0.584-0.075,0.561,0.434,0.891l1.993,1.287v-1.177c-0.85-0.445-1.661-0.928-2.427-1.43m27.885-6.503c-2.959,3.577-8.873,6.508-13.118,7.375l2.714,1.63s3.277-1.017,5.759-2.552c3.532-2.188,4.646-3.497,4.646-3.497v-2.956zm-4.364,2.708c0.656-0.432,1.163-0.789,1.163-0.789l-0.046-1.023-1.117,1.812zm-22.422-0.083c-0.315-0.514-0.633-0.994-1.094-1.73v1.023c0.364,0.274,1.094,0.707,1.094,0.707m-4.328-2.615-0.008,3.059c2.992,2.422,6.268,4.801,10.399,5.937l2.719-1.63c-4.246-0.868-10.152-3.793-13.11-7.366m10.457,9.837v2.372c1.366,0.593,3.152,0.857,5.095,0.857,1.944,0,3.727-0.265,5.093-0.857v-2.371c-1.603,0.426-3.303,0.66-5.093,0.66-2.6,0.009-5.089-0.659-5.09-0.66l-0.005-0.001z" clip-path="url(#XMLID_3_)"/>
<path fill="#000" d="M24.817,29.498c-6.938-1.854-12.722-7.808-12.722-14.026v-15.047h25.443v15.047c0.001,6.218-5.783,12.173-12.721,14.026m-11.909-28.26v14.253c0,5.5,4.972,11.113,11.909,13.193,6.918-2.08,11.891-7.693,11.891-13.193v-14.253h-23.8z" clip-path="url(#XMLID_3_)"/>
<polygon points="17.554,31.458,17.879,31.585,17.879,29.729,17.554,29.587" fill="#000" clip-path="url(#XMLID_3_)"/>
<polygon fill-rule="evenodd" clip-path="url(#XMLID_3_)" points="15.934,29.126,16.434,29.365,16.434,30.964,16.753,31.118,16.753,29.545,17.281,29.762,17.281,29.479,15.934,28.839" fill="#000"/>
<polygon points="15.368,29.945,15.358,29.94,14.642,28.141,14.317,27.952,14.317,29.832,14.609,30.007,14.609,28.621,14.619,28.626,15.335,30.427,15.632,30.596,15.632,28.692,15.368,28.541" fill="#000" clip-path="url(#XMLID_3_)"/>
<polygon fill-rule="evenodd" clip-path="url(#XMLID_3_)" points="13.139,27.51,13.992,28.057,13.992,27.773,12.861,27.053,12.861,28.933,14.006,29.667,14.006,29.381,13.139,28.824,13.139,28.272,13.926,28.777,13.926,28.509,13.139,28.005" fill="#000"/>
<polygon points="12.301,28.537,12.598,28.729,12.598,26.883,12.301,26.689" fill="#000" clip-path="url(#XMLID_3_)"/>
<path fill="#000" d="m12.018,27.005c-0.028-0.419-0.278-0.811-0.594-1.008-0.414-0.26-0.664,0.032-0.664,0.574,0,0.538,0.25,1.136,0.664,1.396,0.34,0.208,0.575,0.047,0.594-0.396l-0.236-0.146c-0.018,0.264-0.141,0.409-0.357,0.273-0.298-0.183-0.425-0.618-0.425-0.975,0-0.363,0.127-0.642,0.424-0.457,0.208,0.123,0.311,0.349,0.349,0.589l0.245,0.15z" clip-path="url(#XMLID_3_)"/>
<path fill="#000" d="m9.521,25.794c0.005,0.466,0.25,0.844,0.547,1.051,0.259,0.18,0.518,0.193,0.518-0.226,0-0.198-0.08-0.467-0.255-0.655-0.064-0.08-0.353-0.387-0.372-0.41-0.095-0.104-0.155-0.222-0.155-0.354,0-0.188,0.132-0.15,0.234-0.075,0.161,0.108,0.274,0.273,0.283,0.528l0.226,0.155c0-0.392-0.226-0.759-0.499-0.947-0.235-0.165-0.476-0.151-0.476,0.226,0,0.189,0.066,0.435,0.287,0.674,0.179,0.193,0.302,0.316,0.391,0.425,0.053,0.065,0.109,0.165,0.109,0.306,0,0.146-0.076,0.236-0.278,0.095-0.184-0.128-0.33-0.344-0.33-0.632l-0.23-0.161z" clip-path="url(#XMLID_3_)"/>
<path fill="#000" d="m26.766,34.842c-0.047-0.415-0.405-0.632-0.857-0.608-0.594,0.033-0.942,0.509-0.934,1.061,0.01,0.547,0.373,0.984,0.966,0.946,0.486-0.027,0.816-0.361,0.84-0.823l-0.34,0.019c-0.023,0.278-0.192,0.513-0.504,0.532-0.424,0.027-0.607-0.33-0.612-0.692-0.01-0.368,0.165-0.745,0.589-0.769,0.292-0.019,0.442,0.137,0.504,0.354l0.348-0.02z" clip-path="url(#XMLID_3_)"/>
<polygon fill-rule="evenodd" clip-path="url(#XMLID_3_)" points="39.063,25.61,39.809,24.941,39.809,24.673,38.823,25.554,38.823,27.363,39.822,26.473,39.822,26.194,39.063,26.873,39.063,26.341,39.751,25.729,39.751,25.47,39.063,26.087" fill="#000"/>
<polygon fill-rule="evenodd" clip-path="url(#XMLID_3_)" points="31.864,31.288,30.874,31.647,30.874,30.049,30.535,30.187,30.535,32.066,31.864,31.576" fill="#000"/>
<path d="m35.624,28.941c-0.089-0.457,0.104-1.074,0.547-1.483,0.447-0.41,0.787-0.283,0.876,0.17,0,0,0.19,0.746-0.551,1.479-0.441,0.377-0.787,0.283-0.872-0.166m1.164-1.074c-0.062-0.302-0.25-0.48-0.57-0.184-0.321,0.292-0.391,0.712-0.335,1.013,0.057,0.303,0.237,0.466,0.566,0.189,0.504-0.559,0.339-1.018,0.339-1.018" fill-rule="evenodd" clip-path="url(#XMLID_3_)" fill="#000"/>
<path d="m33.891,18.142v3.02c-0.436-1.306-1.011-2.288-1.755-3.022l1.755,0.002zm-5.476,0c0.682,1.965,1.986,3.269,4.417,4.078h-16.048c2.444-0.81,3.753-2.113,4.436-4.079l7.195,0.001zm-10.932,0c-0.741,0.738-1.317,1.72-1.759,3.02v-3.02h1.759z" fill-rule="evenodd" clip-path="url(#XMLID_3_)" fill="#000"/>
<path d="m24.816,16.079c0.85,0,0.774-0.321,1.36-0.321h2.457v-4.858l-0.34-0.228v4.688h-1.909c-1.097,0-0.813,0.321-1.568,0.321-0.775,0-0.474-0.321-1.569-0.321h-1.909v-4.688l-0.341,0.228v4.857h2.458c0.567,0.001,0.491,0.322,1.361,0.322m0.302-1.077c0.378-0.227,0.681-0.246,1.248-0.246h1.323v-4.083c-0.662,0-0.662-0.17-1.418-0.17-0.719,0-1.153,0.473-1.153,0.945v3.554zm-0.605,0c-0.396-0.227-0.68-0.246-1.246-0.246h-1.324v-4.083c0.662,0,0.662-0.17,1.418-0.17,0.718,0,1.152,0.473,1.152,0.945v3.554zm-6.315-0.738h0.41c0-0.136-0.096-0.234-0.208-0.234-0.113,0-0.202,0.099-0.202,0.222v0.012zm0.41,0.359h-0.41v0.033c0,0.122,0.089,0.221,0.202,0.221,0.112,0,0.208-0.099,0.208-0.221v-0.033zm1.58,0.341h-1.271c-0.094,0.17-0.302,0.283-0.51,0.283-0.322,0-0.586-0.245-0.586-0.567v-0.057h-0.095c-0.113,0-0.189-0.075-0.189-0.188,0-0.095,0.076-0.171,0.189-0.171h0.095v-0.056c0-0.303,0.264-0.566,0.586-0.566,0.227,0,0.435,0.15,0.51,0.358l1.281-0.018-0.01,0.982zm9.234-0.982,1.669-0.001c0.436,0,0.72,0.075,0.72,0.435,0,0.415-0.228,0.548-0.624,0.548h-1.765v-0.982zm-11.224-2.382h0.41c0-0.137-0.096-0.235-0.208-0.235-0.113,0-0.202,0.099-0.202,0.221v0.014zm0.41,0.358h-0.41v0.033c0,0.122,0.089,0.221,0.202,0.221,0.112,0,0.208-0.099,0.208-0.221v-0.033zm1.58,0.341h-1.271c-0.094,0.17-0.302,0.283-0.51,0.283-0.322,0-0.586-0.246-0.586-0.566v-0.058h-0.095c-0.113,0-0.189-0.075-0.189-0.188,0-0.095,0.076-0.17,0.189-0.17h0.095v-0.058c0-0.302,0.264-0.566,0.586-0.566,0.227,0,0.435,0.151,0.51,0.358l1.281-0.017-0.01,0.982zm9.234-0.982,1.669-0.001c0.436,0,0.72,0.075,0.72,0.434,0,0.416-0.228,0.549-0.624,0.549h-1.765v-0.982zm-13.696,6.825v-13.029c1.059,3.119,2.892,4.404,5.935,4.877-0.472-3.044-1.739-4.877-4.876-5.937h16.048c-3.119,1.06-4.385,2.893-4.858,5.937,3.044-0.473,4.878-1.758,5.918-4.877v13.028h-1.757c-1.032-1.021-2.393-1.563-4.161-1.839,0.104,0.668,0.248,1.279,0.441,1.838l-7.195,0.001c0.193-0.56,0.336-1.171,0.44-1.839-1.775,0.266-3.138,0.813-4.176,1.843l-1.759-0.003z" fill-rule="evenodd" clip-path="url(#XMLID_3_)" fill="#000"/>

</g>
</svg>

