<svg xmlns="http://www.w3.org/2000/svg" width="250" height="250" style="cursor:default" viewBox="70 70 884 884"><path fill="#e35946" d="M829.08 703.335c68.96 0 124.92 56.144 124.92 125.332C954 897.856 898.04 954 829.08 954c-68.961 0-124.92-56.144-124.92-125.333 0-69.188 55.959-125.332 124.92-125.332Z"/><path fill="#b74837" d="M902.562 890.483c2.827 2.552 4.522 6.238 4.522 10.492 0 8.223-6.783 15.028-14.979 15.028-4.239 0-7.913-1.701-10.457-4.537l-42.394-42.25c-9.609 6.522-21.479 10.492-34.197 10.492-33.915 0-61.612-27.789-61.612-61.816s27.697-61.815 61.612-61.815c33.915 0 61.612 27.788 61.612 61.815 0 10.492-2.544 20.416-7.348 28.923l43.241 43.668Z"/><path fill="#294658" d="M907.367 887.931c0 8.223-6.783 15.029-14.979 15.029-4.24 0-7.914-1.702-10.457-4.537l-55.112-55.011c9.044-5.104 16.109-13.043 19.784-22.684l56.242 56.711c2.826 2.552 4.522 6.239 4.522 10.492Z"/><path fill="#26495d" d="M805.339 760.614c24.306 0 44.09 19.849 44.09 44.235s-19.784 44.235-44.09 44.235c-24.305 0-44.089-19.849-44.089-44.235s19.784-44.235 44.089-44.235Z"/><path fill="#3b637d" d="M805.339 855.322c-23.175 0-41.828-18.715-41.828-41.967 0-23.251 18.653-41.966 41.828-41.966 23.176 0 41.829 18.715 41.829 41.966 0 23.252-18.653 41.967-41.829 41.967Z"/><path fill="#9db2c2" d="M798.274 778.194c6.5 0 11.587 5.104 11.587 11.626 0 6.522-5.087 11.626-11.587 11.626-6.501 0-11.588-5.104-11.588-11.626 0-6.522 5.087-11.626 11.588-11.626Z"/><path fill="#e5e9ec" d="M805.339 866.664c-33.915 0-61.612-27.788-61.612-61.815s27.697-61.816 61.612-61.816c33.915 0 61.613 27.789 61.613 61.816s-27.698 61.815-61.613 61.815Zm0-103.782c-23.175 0-41.828 18.715-41.828 41.967 0 23.251 18.653 41.966 41.828 41.966 23.176 0 41.829-18.715 41.829-41.966 0-23.252-18.653-41.967-41.829-41.967Z"/></svg>
