<svg xmlns="http://www.w3.org/2000/svg" width="79.178" height="79.178" viewBox="0 0 20.949 20.949"><g fill="#00a5c9"><path d="M8.57 9.764c0 1.489-1.218 2.696-2.723 2.696-1.504 0-2.724-1.207-2.724-2.696 0-1.49 1.22-2.697 2.724-2.697 1.505 0 2.724 1.207 2.724 2.697M10.653 14.674c0 .77-.63 1.394-1.408 1.394a1.401 1.401 0 01-1.409-1.394c0-.77.63-1.395 1.409-1.395.778 0 1.408.625 1.408 1.395M11.435 2.835c0 1.567-1.282 2.836-2.864 2.836-1.582 0-2.864-1.27-2.864-2.836C5.707 1.269 6.989 0 8.57 0c1.582 0 2.864 1.269 2.864 2.835M17.826 9.429c0 2.076-1.7 3.759-3.797 3.759-2.096 0-3.796-1.683-3.796-3.76 0-2.075 1.7-3.757 3.796-3.757 2.097 0 3.797 1.682 3.797 3.758M14.657 15.288a2.71 2.71 0 011.989.832c.553.554.83 1.226.83 2.015 0 .778-.275 1.441-.822 1.99a2.677 2.677 0 01-1.965.824c-.783 0-1.452-.28-2.005-.84-.553-.559-.83-1.238-.83-2.039 0-.767.274-1.423.821-1.966a2.712 2.712 0 011.982-.816"/></g></svg>