<svg xmlns="http://www.w3.org/2000/svg" width="28" height="28"><defs><linearGradient id="a" x1="27.667%" x2="90.667%" y1="2.939%" y2="87.55%"><stop offset="0%" stop-color="#03BCFF"/><stop offset="51%" stop-color="#024FFF"/><stop offset="100%" stop-color="#F900FF"/></linearGradient></defs><path fill="url(#a)" d="M12.876 20.998a8.34 8.34 0 0 1-5.862-2.413 8.204 8.204 0 0 1-2.432-5.814V5.96a3.116 3.116 0 0 0-.928-2.206 3.168 3.168 0 0 0-2.227-.912H0V0h1.427a6.046 6.046 0 0 1 4.249 1.746 5.95 5.95 0 0 1 1.76 4.213v6.812c0 1.431.573 2.804 1.593 3.816a5.463 5.463 0 0 0 3.847 1.58 5.463 5.463 0 0 0 3.846-1.58 5.374 5.374 0 0 0 1.594-3.816V5.96c0-1.58.633-3.097 1.76-4.214A6.034 6.034 0 0 1 24.324 0h1.427v2.842h-1.427c-.834 0-1.635.328-2.226.912a3.116 3.116 0 0 0-.928 2.206v6.811a8.203 8.203 0 0 1-2.433 5.814 8.34 8.34 0 0 1-5.861 2.413zm12.875-8.227c0 3.387-1.356 6.636-3.77 9.03a12.93 12.93 0 0 1-9.105 3.741 12.93 12.93 0 0 1-9.105-3.74A12.719 12.719 0 0 1 0 12.772V4.543h.998c.494 0 .969.194 1.32.538.352.345.552.813.558 1.304v6.385a9.889 9.889 0 0 0 2.932 7.021 10.052 10.052 0 0 0 7.078 2.909c2.655 0 5.202-1.046 7.08-2.909a9.889 9.889 0 0 0 2.931-7.02V6.385c0-.494.198-.968.55-1.317.352-.35.83-.546 1.328-.546h.976v8.248z"/></svg>