<svg xmlns="http://www.w3.org/2000/svg" width="266.101" height="266.101"><path d="m27.046 117.151.746-4.564c-3.567 3.736-8.877 5.475-13.275 5.475-7.466 0-13.109-4.725-13.109-13.186 0-1.16.168-2.491.417-3.821L4.727 84.55H0l2.155-12.113h17.839l-4.398 24.89a16.6 16.6 0 0 0-.249 2.738c0 3.976 1.992 5.886 5.475 5.886 4.978 0 7.717-3.149 8.795-9.127l2.159-12.274h-4.813l2.074-12.113h18.335l-5.722 32.515h4.727l-2.156 12.199zm39.916.998c-6.056 0-8.711-1.91-10.62-3.813l-.498 2.816h-9.042l2.239-12.856h12.694v.163c0 2.986 1.493 4.231 4.73 4.231 2.82 0 4.728-1.407 5.143-3.566l.084-.665c0-2.568-3.237-3.404-10.953-5.639-6.14-1.747-9.623-5.561-9.623-10.866 0-.751.082-1.579.248-2.415 1.327-7.881 8.878-14.1 18.67-14.1 5.888 0 7.632 2.072 8.96 3.565l.495-2.738h8.795l-2.322 12.95H74.014v-.42c0-2.242-1.243-3.565-3.814-3.565-2.408 0-4.482 1.323-4.814 3.234v.494c0 6.056 20.576 2.661 20.576 16.096 0 .836-.083 1.749-.25 2.739-1.409 7.968-8.627 14.355-18.75 14.355m46.548-35.425c-4.564 0-9.375 2.737-11.865 7.379h21.821c-1.328-5.059-5.393-7.379-9.956-7.379m19.663 17.009H99.986c1.328 4.726 5.143 7.131 9.706 7.131 3.072 0 5.977-.998 8.216-3.071h13.44c-5.143 8.795-14.353 14.775-23.728 14.775-11.203 0-19.83-7.72-19.83-19.339 0-1.406.166-2.899.416-4.393 2.405-13.604 14.766-23.73 27.463-23.73 10.866 0 19.413 7.55 19.413 19.083 0 1.406-.083 2.821-.333 4.315a26.469 26.469 0 0 1-1.577 5.229m21.166-3.071-1.495 8.291h4.73l-2.158 12.199H132.85l2.156-12.199h4.73l3.567-20.402h-4.729l2.158-12.114h16.758l-1.161 6.714c4.564-5.469 8.464-6.97 13.94-7.379l-2.325 13.52c-7.549.418-12.361 4.401-13.605 11.37" style="fill:#1d4b97" transform="translate(0 54.632)"/><g style="fill:#408cfe"><path d="m177.979 124.74 2.159-12.189h13.107l-2.075 12.189zm-13.025 47.044 2.156-12.199h4.729l3.567-20.402h-4.728l2.157-12.114h17.921l-5.808 32.516h11.321l-3.275 12.199z"/><path d="m212.088 139.182-3.65 20.402h4.729l-2.158 12.2h-22.566l2.156-12.2h4.73l3.568-20.402h-4.73l2.159-12.113h4.728c2.82-12.778 9.955-16.6 21.738-16.6l-2.077 11.533c-.33-.077-.662-.077-1.158-.077-3.321 0-4.731 2.073-5.31 5.144h5.556l-2.072 12.113z"/><path d="m259.796 139.182-21.323 36.09h4.564l-2.072 12.197H218.48l2.157-12.197h4.064l2.739-4.896-6.719-31.194h-4.564l2.155-12.113h21.489l-2.157 12.113h-2.572l2.241 15.012 8.132-15.012h-2.655l2.156-12.113h21.155l-2.155 12.113z"/></g><path d="M153.291 34.24C153.206 15.346 137.781 0 118.835 0 105.98 0 94.54 6.961 88.597 17.863a34.347 34.347 0 0 0-12.583-2.38c-16.702 0-30.665 11.925-33.8 27.688a34.822 34.822 0 0 0-5.333-.417c-16.376 0-30.111 11.471-33.594 26.782h6.108c3.34-12.042 14.366-20.89 27.486-20.89 3.64 0 7.248.702 10.624 2.065-.009-.281-.041-.546-.041-.835 0-15.739 12.782-28.499 28.55-28.499a28.412 28.412 0 0 1 15.54 4.614c3.592-11.633 14.445-20.096 27.28-20.096 15.768 0 28.546 12.76 28.546 28.508 0 1.133-.081 2.243-.209 3.335 10.114 4.385 17.194 14.432 17.194 26.143a28.35 28.35 0 0 1-.577 5.655h.084l-2.009 2.202s2.903-2.227 7.923-2.202a34.43 34.43 0 0 0 .484-5.655c0-12.282-6.545-23.508-16.979-29.641" style="fill:#1d4b97" transform="translate(0 54.632)"/></svg>