<svg xmlns="http://www.w3.org/2000/svg" viewBox="0 0 25.75 25.54"><defs><linearGradient id="a" x1="7.18" x2="23.34" y1=".77" y2="22.57" gradientTransform="scale(1.0041 .99591)" gradientUnits="userSpaceOnUse"><stop offset="0" stop-color="#03Bcff"/><stop offset=".51" stop-color="#024fff"/><stop offset="1" stop-color="#f900ff"/></linearGradient></defs><path fill="url(#a)" d="M12.88 21A8.34 8.34 0 0 1 7 18.59a8.2 8.2 0 0 1-2.43-5.82V5.96a3.12 3.12 0 0 0-.93-2.2 3.17 3.17 0 0 0-2.22-.92H0V0h1.43a6.05 6.05 0 0 1 4.25 1.75 5.95 5.95 0 0 1 1.76 4.2v6.82c0 1.43.57 2.8 1.59 3.82a5.46 5.46 0 0 0 3.85 1.58 5.46 5.46 0 0 0 3.84-1.58 5.37 5.37 0 0 0 1.6-3.82V5.96c0-1.58.63-3.1 1.76-4.21A6.03 6.03 0 0 1 24.32 0h1.43v2.84h-1.43c-.83 0-1.63.33-2.22.91a3.12 3.12 0 0 0-.93 2.21v6.81a8.2 8.2 0 0 1-2.43 5.82 8.34 8.34 0 0 1-5.86 2.4zm12.87-8.23c0 3.39-1.36 6.64-3.77 9.03a12.93 12.93 0 0 1-9.1 3.74 12.93 12.93 0 0 1-9.1-3.74A12.72 12.72 0 0 1 0 12.77V4.54h1a1.9 1.9 0 0 1 1.88 1.84v6.39a9.89 9.89 0 0 0 2.93 7.02 10.05 10.05 0 0 0 7.08 2.91c2.65 0 5.2-1.05 7.08-2.9a9.89 9.89 0 0 0 2.93-7.03V6.4a1.88 1.88 0 0 1 1.88-1.86h.97v8.24"/></svg>
