<svg xmlns="http://www.w3.org/2000/svg" viewBox="0 0 266.1 266.1"><path fill="#1d4b97" d="m27 171.8.8-4.6a19 19 0 0 1-13.3 5.5c-7.4 0-13-4.7-13-13.2 0-1.2 0-2.5.3-3.8l3-16.5H0L2.2 127H20l-4.4 25a16.6 16.6 0 0 0-.3 2.7c0 4 2 5.9 5.5 5.9 5 0 7.7-3.2 8.8-9.1l2.2-12.3H27l2-12.1h18.4l-5.7 32.5h4.7l-2.2 12.2zm40 1c-6 0-8.7-2-10.7-3.8l-.5 2.8h-9l2.2-12.9h12.7v.2c0 3 1.5 4.2 4.8 4.2 2.8 0 4.7-1.4 5.1-3.5v-.7c0-2.6-3.1-3.4-10.9-5.6-6.1-1.8-9.6-5.6-9.6-11l.3-2.3c1.3-8 8.8-14.1 18.6-14.1 6 0 7.7 2 9 3.5l.5-2.7h8.8l-2.3 13H74v-.5c0-2.2-1.2-3.5-3.8-3.5-2.4 0-4.5 1.3-4.8 3.2v.5c0 6 20.6 2.7 20.6 16 0 1-.1 1.8-.3 2.8-1.4 8-8.6 14.4-18.7 14.4m46.5-35.4c-4.6 0-9.4 2.7-11.9 7.3h21.9c-1.4-5-5.4-7.3-10-7.3m19.7 17H100c1.3 4.7 5.1 7.1 9.7 7.1 3 0 6-1 8.2-3h13.4a28.6 28.6 0 0 1-23.7 14.7c-11.2 0-19.8-7.7-19.8-19.3a29 29 0 0 1 27.9-28.1c10.8 0 19.4 7.5 19.4 19 0 1.4-.1 2.8-.4 4.3a26.5 26.5 0 0 1-1.5 5.3m21.1-3.1-1.5 8.3h4.8l-2.2 12.2h-22.6l2.2-12.2h4.7l3.6-20.4h-4.7l2.1-12.1h16.8l-1.2 6.7c4.6-5.5 8.5-7 14-7.4l-2.4 13.5c-7.5.4-12.3 4.4-13.6 11.4"/><g fill="#408cfe"><path d="m178 124.7 2.1-12.1h13.1l-2 12.1zm-13 47 2.1-12.1h4.7l3.6-20.4h-4.7l2.1-12.1h18l-5.9 32.5h11.4l-3.3 12.2z"/><path d="m212 139.2-3.6 20.4h4.8l-2.2 12.2h-22.6l2.2-12.2h4.7l3.6-20.4h-4.7l2.1-12.1h4.8c2.8-12.8 10-16.6 21.7-16.6l-2 11.5h-1.2c-3.4 0-4.8 2-5.4 5h5.6l-2 12.2z"/><path d="m259.8 139.2-21.3 36h4.5l-2 12.3h-22.5l2.1-12.2h4.1l2.7-5-6.7-31.1h-4.5l2.1-12.1h21.5l-2.2 12h-2.5l2.2 15 8.1-15h-2.6l2.1-12h21.2l-2.2 12z"/></g><path fill="#1d4b97" d="M153.3 88.9a34.5 34.5 0 0 0-64.7-16.4A34.3 34.3 0 0 0 76 70c-16.7 0-30.7 12-33.8 27.7a34.8 34.8 0 0 0-5.3-.4 34.5 34.5 0 0 0-33.6 26.8h6a28.5 28.5 0 0 1 38.2-18.9v-.8A28.5 28.5 0 0 1 76 76a28.4 28.4 0 0 1 15.6 4.6 28.6 28.6 0 0 1 55.6 11.8 28.5 28.5 0 0 1 17.2 26.1 28.4 28.4 0 0 1-.6 5.7l-2 2.2s3-2.3 8-2.2a34.4 34.4 0 0 0 .5-5.7c0-12.3-6.6-23.5-17-29.6"/></svg>