<svg xmlns="http://www.w3.org/2000/svg" width="80" height="80"><defs><linearGradient x1="40.003" y1="20.554" x2="40.003" y2="36.329" id="a" gradientUnits="userSpaceOnUse"><stop stop-color="#fff" offset="0%"/><stop stop-color="#e9ebed" offset="100%"/></linearGradient></defs><g fill-rule="evenodd"><path d="M36.06 23.91a1.67 1.67 0 00-2.73-.08V22.5c0-.67.34-.67.67-.67h10l1.33 10c3.3-1.32 5.96-5.4 6-9.96h28.63c0 .04.04 0 .04 0a30.94 30.94 0 01-1.17 3.4L71.1 28.6h6.28a53.64 53.64 0 01-1.85 3.32L62.2 35.23h11.08a54.7 54.7 0 01-2.78 3.33l-17.2 3.31h13.74a45.88 45.88 0 01-4.47 3.33l-17.2 3.3 7.96-14.33H26.67l7.96 14.32-17.2-3.3a40.08 40.08 0 01-4.47-3.31H26.7l-17.2-3.4a45.06 45.06 0 01-2.78-3.32H17.8L4.47 31.83a33.42 33.42 0 01-1.85-3.32h6.24L1.13 25.2c-.4-1.1-.8-2.19-1.13-3.33l.04-.04h28.63a11.5 11.5 0 006.66 10.34l3.04-5zm9.31 24.59l10.96.01c-4.04 1.73-8.42 3.22-13 3.68zm-8.69 3.7c-4.6-.45-8.97-1.92-13.05-3.69l11-.01zM40.67 24c0-.63-.54-1.17-1.17-1.17s-1.17.54-1.17 1.17c0 .63.54 1.17 1.17 1.17s1.17-.54 1.17-1.17z" fill="#d8dbde" fill-rule="nonzero"/><path d="M45.38 48.5l3.88-7.01 20.15-15.16.28-.2.33-.12L80 21.83a31.02 31.02 0 01-1.17 3.4l-7.73 3.33h6.28a53.47 53.47 0 01-1.85 3.33L62.2 35.2h11.08a54.2 54.2 0 01-2.78 3.33l-17.2 3.32h13.74a45.6 45.6 0 01-4.47 3.33zm-.01 0l10.96.01c-4.04 1.73-8.42 3.22-13 3.68zm-8.69 3.7c-4.6-.45-8.97-1.92-13.05-3.69h11zm-2.05-3.7l-17.2-3.31a40.09 40.09 0 01-4.47-3.33H26.7l-17.2-3.4a45.12 45.12 0 01-2.78-3.33H17.8L4.47 31.81a33.5 33.5 0 01-1.85-3.33h6.24l-7.73-3.32c-.4-1.1-.8-2.2-1.13-3.33l9.86 4.18.33.12.28.2 20.31 15.24z" fill="#192332" opacity=".1"/><path d="M48.67 42.57v-.07H31.33v.07l-4.66-8.4h26.66zm-8.64-6.4l-.67 1.33-1.53.2 1.13 1.03-.31 1.44 1.38-.7 1.32.7-.25-1.44 1.07-1.03-1.48-.2zm6.11 0l-.66 1.33-1.48.2 1.07 1.03-.25 1.44 1.32-.7 1.33.7-.26-1.44 1.12-1.03-1.53-.2zm-12.33 0l-.66 1.33-1.48.2 1.07 1.03-.26 1.44 1.33-.7 1.37.7-.25-1.44L36 37.7l-1.48-.2z" fill="#2a56a4"/><path d="M43.33 42.5h5.34v.07l-5.34 9.6zm-6.66 0v9.67l-5.34-9.6v-.07z" fill="#d9484c"/><path d="M40.02 14.33l.67 1.34 1.48.2-1.07 1.03.25 1.43-1.33-.69-1.37.7.3-1.44-1.12-1.03 1.53-.2zm6.12 0l.66 1.34 1.53.2-1.12 1.03.26 1.43-1.33-.69-1.32.7.25-1.44L44 15.87l1.48-.2zm-12.33 0l.71 1.34 1.48.2-1.07 1.03.25 1.43-1.37-.69-1.33.7.26-1.44-1.07-1.03 1.47-.2zm2.86 16v-9.66h6.66v9.67l-3.33 6z" fill="url(#a)" transform="translate(0 21.83)"/></g></svg>