<svg width="369" height="369" xmlns="http://www.w3.org/2000/svg"><g stroke="none" stroke-linecap="square" stroke-linejoin="bevel" stroke-opacity="0" stroke-width="0"><path d="m320.4 299.6 48.96-230.4H48.96L.09 299.6z" fill="#fff"/><g fill="#336"><path d="M55.53 78.29s178.2 36.54 181.8 37.17c40.86 7.2 39.6 15.12 39.6 15.12 28.62-.18 32.22.99 37.17 5.22 15.03 12.6-9.45 49.68-9.45 49.68-3.51 2.61-268.2 104.4-268.2 104.4h277.2l45.27-213.3H56.52v.99"/><path d="M263.06 147.28c-4.05 1.98-14.49 3.06-19.44 3.51-4.77.36-6.03.9-6.12 2.7-.09 1.62.72 2.52 7.47 2.52 15.57 0 43.56-5.85 52.02-3.15 4.5 1.44.9 9.36-2.79 19.8-1.44 4.05 1.35 3.78 2.97 1.98s8.91-15.03 9.72-21.87c1.08-9.63-7.11-11.07-18.54-11.07h-18.09c-.99 0-1.71.63-2.88 2.16-.9 1.26-1.71 2.07-4.32 3.42"/><path d="m45.265 126.564-34.74 163.8s106.2-52.29 119.7-58.95c26.73-13.68 63.63-31.86 98.1-43.47 6.48-2.25 34.38-10.8 50.58-13.68 6.3-1.17 8.91-2.16 8.91-3.42-.27-3.33-6.57-3.6-17.28-3.06-32.67 1.53-95.4 26.46-113.4 35.91l-20.34-63h129.6c5.85-16.38-76.95-14.04-79.47-14.22h-141.3v.09"/></g></g></svg>