<svg xmlns="http://www.w3.org/2000/svg" viewBox="0 0 104.8 36.6"><path fill="#003660" d="M88.2 11.6c-1.2 0-2.2.4-2.9 1.2-1.2 1.2-1.4 3.3-1.4 5.5s.2 4.3 1.4 5.5c.8.8 1.7 1.2 2.9 1.2a4 4 0 0 0 3-1.2c1.2-1.2 1.4-3.3 1.4-5.5s-.2-4.3-1.4-5.5a4 4 0 0 0-3-1.2M56.4 24.9c3.7 0 4.2-3.1 4.2-6.7s-.5-6.7-4.2-6.7-4.2 3.1-4.2 6.7.6 6.7 4.2 6.7"/><path fill="#003660" d="M100.7 0H73.4v8.2h3.9v3.1h-3.9v11.2c0 1.5.7 2.3 2.2 2.3h1.7v3.5h-2.4c-3.8 0-5.5-2.7-5.5-5.6V11.3h-2.3V8.2h2.3V0H4.1A4 4 0 0 0 0 4.1v28.3a4 4 0 0 0 4.1 4.1h44.1V8.2h4v2.1a6.3 6.3 0 0 1 5.3-2.4c2.1 0 3.8.7 4.9 1.8 1.9 2 2.3 5.2 2.3 8.5s-.3 6.6-2.3 8.5a6.8 6.8 0 0 1-4.9 1.8c-2.1 0-3.8-.5-5.3-2.3v10.4h48.5a4 4 0 0 0 4.1-4.1V4.1a4 4 0 0 0-4.1-4.1M24.5 28.3h-4v-2a7.3 7.3 0 0 1-5.4 2.3c-2.1 0-3.8-.7-5-1.8-1.5-1.5-2-3.4-2-5.7V8.2h4.1v12.3c0 3.1 1.8 4.5 4.1 4.5s4.2-1.4 4.2-4.5V8.2h4.1v20.1zm11.8.3c-3.3 0-6.1-.6-8.5-2.9l2.7-2.7c1.6 1.7 3.8 2.1 5.8 2.1 2.5 0 4.4-.9 4.4-2.8 0-1.4-.8-2.2-2.7-2.4l-3.2-.3c-3.8-.4-6-2-6-5.6 0-4 3.4-6.2 7.6-6.2 3.1 0 5.6.6 7.5 2.3l-2.5 2.6a7.6 7.6 0 0 0-5-1.5c-2.5 0-3.7 1-3.7 2.6 0 1.4.8 2.1 2.8 2.3l2.8.2c4.2.4 6.4 2.2 6.4 5.7-.1 4.4-3.6 6.6-8.4 6.6m57.9-2.4a8 8 0 0 1-6 2.4 8 8 0 0 1-6-2.4c-1.9-2-2.4-4.5-2.4-7.9 0-3.4.5-5.9 2.4-7.9a8.3 8.3 0 0 1 6-2.4 8 8 0 0 1 6 2.4c1.9 2 2.4 4.5 2.4 7.9 0 3.4-.5 5.9-2.4 7.9"/></svg>