<?xml version="1.0" encoding="UTF-8" standalone="no"?>
<!DOCTYPE svg PUBLIC "-//W3C//DTD SVG 20010904//EN" "http://www.w3.org/TR/2001/REC-SVG-20010904/DTD/svg10.dtd">
<svg version="1.0" xmlns="http://www.w3.org/2000/svg" width="700.000000pt" height="700.000000pt" viewBox="0 0 700.000000 700.000000" preserveAspectRatio="xMidYMid meet">
<metadata>
Created by potrace 1.11, written by Peter Selinger 2001-2013
</metadata>
<g transform="translate(0.000000,700.000000) scale(0.100000,-0.100000)" fill="#000000" stroke="none">
<path d="M3172 6694 c-291 -294 -292 -295 -275 -317 10 -12 145 -148 301 -302 l282 -280 300 300 300 300 -297 298 c-163 163 -302 297 -307 296 -6 0 -143 -133 -304 -295z"/>
<path d="M2145 5643 l-296 -297 300 -300 301 -301 143 143 142 142 213 0 212 0 0 -426 c0 -234 3 -424 8 -422 4 2 30 14 57 27 157 73 367 71 517 -5 26 -13 49 -21 49 -17 1 5 2 195 3 423 l1 415 214 3 213 2 118 -117 c64 -65 129 -129 143 -142 l26 -24 295 296 c163 163 296 299 296 304 0 12 -583 593 -595 593 -6 0 -72 -62 -147 -138 l-137 -138 -745 1 -745 0 -136 138 c-75 75 -140 137 -145 137 -4 0 -141 -134 -305 -297z"/>
<path d="M3405 4102 c-72 -9 -158 -47 -221 -98 -50 -40 -1551 -1545 -1593 -1597 -12 -16 9 -40 208 -239 l222 -221 25 24 c15 13 342 340 729 727 l702 702 164 -165 c90 -90 169 -165 174 -165 6 0 109 99 230 220 l220 220 -250 249 c-137 137 -270 261 -294 276 -86 53 -212 80 -316 67z"/>
<path d="M1799 3734 l-224 -224 225 -225 225 -224 224 224 224 224 -225 225 -225 224 -224 -224z"/>
<path d="M4206 3227 l-728 -723 -170 170 -169 169 -225 -224 -225 -224 258 -256 c149 -148 277 -266 303 -280 72 -40 156 -62 234 -62 80 0 121 11 216 56 60 28 131 96 879 843 l815 812 -221 221 c-121 122 -224 221 -229 221 -5 0 -337 -326 -738 -723z"/>
<path d="M4704 2615 l-220 -222 223 -223 c123 -123 226 -220 230 -217 5 4 106 105 226 224 l217 218 -222 222 c-123 123 -225 223 -228 222 -3 -1 -104 -101 -226 -224z"/>
<path d="M2015 1720 l-219 -219 20 -22 c10 -12 122 -125 248 -251 149 -149 249 -240 285 -261 147 -86 331 -86 477 -1 45 26 104 83 431 416 l112 114 -224 224 -225 225 -170 -170 -169 -169 -165 164 c-91 91 -169 166 -173 167 -5 2 -107 -96 -228 -217z"/>
<path d="M3810 1708 l-222 -222 259 -257 c265 -263 300 -291 410 -324 111 -34 274 -8 377 60 39 26 344 321 504 488 l34 35 -221 221 c-122 122 -223 221 -226 221 -5 0 -117 -107 -307 -292 -21 -21 -40 -38 -43 -38 -2 0 -78 74 -169 165 -90 91 -167 165 -169 165 -3 0 -105 -100 -227 -222z"/>
<path d="M2913 812 l-222 -223 255 -254 c232 -231 262 -258 331 -292 l77 -38 130 0 c126 0 133 1 196 32 36 17 79 43 95 57 29 26 411 404 470 465 l29 32 -219 219 c-121 121 -224 220 -229 220 -4 0 -67 -57 -139 -127 -71 -71 -148 -145 -170 -167 l-39 -38 -170 168 c-93 93 -170 169 -171 169 -1 1 -102 -100 -224 -223z"/>
</g>
</svg>