<svg xmlns="http://www.w3.org/2000/svg" viewBox="0 0 382 698"><path d="M160 30c-29 29-29 29-28 31l30 30 29 28 30-30 30-30-30-29c-16-17-30-30-31-30l-30 30z"/><path d="m57 135-30 29 30 30 31 30 14-14 14-14h43v85l6-3c16-7 37-7 52 1l5 1v-84h43l11 12 15 14 2 2 30-29 30-31-60-59-15 14-13 14-75-1h-74l-14-13-14-14c-1 0-15 13-31 30zm126 154c-7 1-16 4-22 10L2 458c-2 2 0 4 20 24l23 22 2-2 73-73 70-70 17 16 17 17 23-22 22-22-25-25-29-28c-9-5-22-8-32-6zM22 326 0 348l23 22 22 23 22-23 23-22-23-22-22-23z"/><path d="m263 376-73 73-17-17-17-17-22 22-23 22 26 26c15 15 28 27 31 28a49 49 0 0 0 45 1c6-3 13-10 87-85l82-81-22-22-23-22-74 72zm50 61-22 23 22 22 23 22 23-23 22-22-23-22-22-22-23 22zM44 527l-22 22 2 2a1528 1528 0 0 0 53 51c15 9 34 9 48 0 5-2 11-8 43-41l11-12-22-22-22-23-17 17-17 17-17-16-17-17-23 22zm180 1-23 22 26 26c27 26 30 29 41 32 11 4 28 1 38-6 4-2 34-32 50-48l4-4-22-22-23-22a718 718 0 0 0-35 33 530 530 0 0 1-34-33l-22 22zm-90 90-22 22 25 25c23 24 26 26 33 30l8 3h13c13 0 13 0 20-3l9-5 47-47 3-3-22-22-23-22-14 13-17 16-4 4-17-17-17-17-22 23z"/></svg>