<svg xmlns="http://www.w3.org/2000/svg" xml:space="preserve" id="Layer_1" x="0" y="0" version="1.1" viewBox="0 0 240 240"><style>.st0{fill:#005493}</style><g id="uvic"><path id="c" d="M174.2 119.8v-.2c0-19.8 15.5-34.6 35.3-34.6 14.6 0 24.5 7.1 30 17.3L221.2 113c-2.5-4.7-6-8.1-12-8.1-7.5 0-12.4 6.5-12.4 14.5v.2c0 8.6 5.1 14.7 12.4 14.7 6.3 0 9.8-3.4 12.5-8.3l18.3 10.3c-5.6 9.9-14.9 17.9-31.4 17.9-18.4 0-34.4-13.8-34.4-34.4z" class="st0"/><path id="i" d="M145.8 86.4H168v66.3h-22.2V86.4z" class="st0"/><path id="v-darkblue" fill="#002747" d="m130.6 86.4-23.1 66.8h8.9l12.8-31.8 12.1-35z"/><path id="v-red" fill="#c63527" d="M98.7 153.2h9.2l23-66.8h-9.1z"/><path id="v-blue" d="m116.4 153.2 26.9-66.8h-4.5c-1.6 22.3-27.2 44.6-28.1 66.8h5.7z" class="st0"/><path id="v-gold" fill="#f5aa1c" d="m118.4 86.4-23.2 66.8h5c.9-22.3 26.5-44.6 28.2-66.8h-10z"/><path id="v-half" d="M92.6 86.4H67.8l26.9 66.8h.5l10.3-29.6z" class="st0"/><path id="u" d="M0 123V86.4h22.6v36.3c0 8.2 4.3 11.8 10.2 11.8S43 131.3 43 123.2V86.4h22.6v36.1c0 22.7-13.2 31.6-33 31.6S0 145 0 123z" class="st0"/></g></svg>