<svg xmlns="http://www.w3.org/2000/svg" viewBox="0 0 240 69.2"><path fill="#002747" d="m130.6 1.4-23.1 66.8h8.9l12.8-31.8 12.1-35z"/><path fill="#c63527" d="M98.7 68.2h9.2l23-66.8h-9.1z"/><path fill="#f5aa1c" d="M118.4 1.4 95.2 68.2h5c.9-22.3 26.5-44.6 28.2-66.8z"/><path fill="#005493" d="M0 38V1.4h22.6v36.3c0 8.2 4.3 11.8 10.2 11.8 5.9 0 10.2-3.2 10.2-11.3V1.4h22.6v36.1c0 22.7-13.2 31.6-33 31.6S0 60 0 38ZM92.6 1.4H67.8l26.9 66.8h.5l10.3-29.6zm23.8 66.8 26.9-66.8h-4.5c-1.6 22.3-27.2 44.6-28.1 66.8Zm29.4-66.8H168v66.3h-22.2zm28.4 33.4v-.2A34.3 34.3 0 0 1 209.5 0c14.6 0 24.5 7.1 30 17.3L221.2 28c-2.5-4.7-6-8.1-12-8.1-7.5 0-12.4 6.5-12.4 14.5v.2c0 8.6 5.1 14.7 12.4 14.7 6.3 0 9.8-3.4 12.5-8.3L240 51.3a33.5 33.5 0 0 1-31.4 17.9 33.8 33.8 0 0 1-34.4-34.4z"/></svg>