<svg xmlns="http://www.w3.org/2000/svg" xml:space="preserve" viewBox="0 0 59.9 59.9"><path fill="#fff" d="m29.9 59.8-.6-.3c-6.8-3.2-12.3-7.8-15.9-13.3C4.8 33 4.5 19.3 4.2 4.9c0-1.1-.1-2.2-.1-3.3V.1h51.7v1.5c0 1.1 0 2.2-.1 3.3-.3 14.5-.6 28.1-9.2 41.4-3.6 5.5-9.1 10.1-15.9 13.3l-.7.2z"/><path fill="#ffd54f" d="m29.8 17.9-20.3 16C6.3 23.7 6.4 13.2 6.1 2.5h47.3c-.3 10.8-.1 21.3-3.4 31.4l-20.2-16zm0 11.5L13.3 42.5s1 1.7 1.6 2.6c3.6 5.5 9 9.6 14.9 12.4 5.9-2.7 11.2-6.8 14.8-12.4.6-.9 1.1-1.8 1.6-2.7l-16.4-13z"/><path fill="#ba0c2f" d="m16 10.6-.2.2c-.2.2-.1.2-.3.5l-.3.6H14.6c-.1 0-.1 0-.3.1h-.4c-.1-.1 0-.3-.1-.4 0-.1-.2-.1-.3-.2-.1-.1-.2-.1-.3-.1 0-.3-.1-.3-.2-.3s-.3-.1-.4-.1c-.2-.1-.2-.2-.4-.3-.2-.2-.2-.6-.4-.8-.2-.2-.4-.4-.7-.4-.6-.1.1-.1-.2-.6-.4-.8-1-.9-1.8-1-.1-.2-.1-.9-.5-.7.3-.6.6-.3.9-.7.2-.2 0-.2 0-.2-.1-.2-.3 0-.4-.1-.1-.1-.2-.2-.2-.3-.1-.1 0-.3-.1-.4 0 0 0-.1-.1 0 .2 0 .3-.2.5-.3 0 0 .1 0 .1-.1h.4c.2 0 .3.2.2.1-.1-.1.3.2.3.3v.2c.1.2.1.3.2.4 0 0 0 .1.1.1l.2.1.1.1c.1.1 0 .1.1.1s0-.1 0-.1c0-.2-.1-.5.1-.7 0 0 0-.1.1-.1l.1-.1c.1-.1.1-.2.1-.3l.1.1c.1.1.1.1.2.1l.1.1c.2 0 .3.6.2.6-.5 2.3 1.7 4.1 4.1 4.6m-6 .2c-.3-.1-.6-.1-.8-.1-.1 0-.2.2-.2.3.1-.1.3.1.3.1-.1.3-.2.4.3.7-1.7-.1-1.1 1.3-.9 1 .1-.1.7.1.7.2s0 .2-.3.7c-.1.1.2.8.3.6.1-.3.4-.2.6-.1.4-.2.3-.4.6-.5.4-.1.5 0 .6.3 0 .1 0 .3-.1.4.6.1 1-.7 1.5-.5.7.3 1.9.6 2.2.4.1-.1-.2-.8.1-1.6-1.2.6-2.5.2-3.7-.3-.6-.2-.5-1.2-1.2-1.6m3.3-3.4c.8 1.3 2.8.2 3.4.5-.9-1.6-2.4-.3-3.4-.5m8.5 2.2c0-1.1-.4-2.4-1.1-3.3 0 1.2-.4 2.3-1.4 2.9-1.4.8-3.2 1.4-3.6 3.1-.2.6-.4 2.1-.1 2.7.1-.3.3-.6.7-.6 1.4-.1 1.8-.3 2.7-1 .3-.2 1.2.7 1.2.6 0-.2-.1-.9.1-.8.3.3.9.4 1.3.4-1.2-1.2.2-2.6.2-4m-6.5 14.9c.2 0 0 .2 0 .2-.1.1-.2.2-.3.4-.1.1-.1.2-.1.3 0 .1.1.2.1.3l.1.1.1.1c0-.1.1-.3.2-.2.9.5.9-.5 1.4-.9.2-.1.7 0 .6.5.5-.3.7-1 1.1-1.4.9-1 2.1-1.6 3.4-2.1-.4-.5-1.1-.8-1.4-1.4-.2-.3-.4-.8 0-.7 1.5.4 2.3-.5 2.5-1.7 2.2.3 2.7-1.8 3-3.3.1-.8.5-.8.1-2.1-.2-.5 1-.7.8-1.6-.1-.3-.4-.5-.6-.5.2.5-.7.6-.8.8-.1.3-.4.6-.4.9-.7-1-.1-2.2.5-3.1 1-1.3 3-.6 3.8.2 0-.4-.3-1-.6-1.2.8-.1 1.6.4 2.7-.2.6-.3 1.2-.6 1.5-1.3-1.3.2-3.1-.8-4.3-1.1-2.2-.4-3.7 1.1-4.5 2.9-.8 1.8-.3 3.2.6 4.5.2.3-.8.1-1.1.3-.4.2-.5.7-.4 1.1.5-.5 1.7-.2 1.9.7.2 1.2-1 2.9-2.2 2.4-1.2-.5-1.9-1.8-2.3-3.3-1 .9-3 .2-3.9 1-.9.8 1.3 1.4 2.2 1.8.3.1.6.5.6.9-1.3-.8-2.9.1-2.9 1.5.1 1.1 1.4 1.7 2.4 1.8.5 0 .7.5.2.9-1 .6-2 1.3-3.1.2-.2-.2-.8-.1-.9.3-.1.2-.1.4-.1.6.1-.1.1-.2.2-.2s.2.1.2.2c-.1.5-.8.2-1 .6 0 0 0 .1-.1.1-.1.3-.3.5 0 .7 0 0 .2.2.2.3 0-.3.3-.2.3-.2h.1l.2-.1zm-4.5-5c.1 0 .2.1.1.2s-.2.1-.3.3c-.1.1 0 .4 0 .5s.2.2.3.2l.1.1s-.1-.1 0-.2c0 0 .1-.1.1 0 .1.1.3.1.4.1.1 0 .2 0 .3-.1.2-.2.2-.4.3-.5l.3-.2c.2-.1 1.2.4.5 1.1.7-.5 2.1-1.2 3.1-.8-.6-1-.1-2.6 1.1-3-1.3-1.3-2.4-1.2-2.9.1-.2.6.6 1.4-.2 1.7-.4.2-.9.1-1.3-.1-.8-.3-.3-1.3-1-1.8-.4-.4-1.5-.3-1.5.6.1 0 .1-.1.2-.1.2.5.2.6.6.7.1 0 0 .2-.1.2s-.3 0-.4-.1c-.2-.1-.4-.1-.6 0-.1 0-.2.1-.3.2l-.1.1-.1.1c-.1.1-.1.2-.1.4v.2l.1.1c.1.1.3.2.5.3 0 0 0-.1-.1-.1v-.2c.1-.1.2 0 .2-.1.5.1.7 0 .8.1M36.3 7.8c.1.1 0 .2-.1.3h-.4c-.5.2-.5 1.4-.4 1.3.1-.2.4-.1.7 0 .4.1.7-.7.9-.7.6.1 1.2.8 1.4 1.3 0 .1-.2.1-.3.4.8-.1 1.5.4 2.1.9.3-.5.6-.8.9-1.1-1.2-1.2-3.7-1.6-3.3-3.7 0-.3-.3-.5-.4-.7-.2-.2-.5-.2-.7-.2.2.5-.2.5-.1 1.3h-.1c-.2-.1-.3-.2-.4-.2-.1-.1-.2-.1-.4 0-.1 0-.2.1-.2.1l-.3.3v.1s-.1.1-.1.2c.1 0 .3 0 .3.1.1.1.1.2.1.3.1.1.1.1.3.2.1-.2.3-.2.5-.2m3.2-.9c-.2 0-.5-.2-.7-.1.6.9 1.7 1.2 2.7.4.1-.1.3-.1.4 0-.9-.9-1.7-.3-2.4-.3m3.3 2.8c-.9.4-3.2 2.4-2.4 3.2-.1-.1 1.3.3 1.7.8.1.1.5-.9 2.2-.9.5 0 1 .2 1.4.5-.3-1.9 1-3.8.4-5.8 0 0-.2-.8-.3-.5-.5 1.6-1.7 2.1-3 2.7m-3.5 12.7c.2.3-.1-.1.1.3.9-.4 1.9-.8 2.9-.4-.5-2 1-2.5 1.2-2.9.2-.5-.8-1.5-1.6-1.2-1 .3-.6 1.6-.7 2.4-.1.5-.7.8-1.2.6-.8-.3-1.1-1-1.3-1.9-.1-.5-1.2-.6-1.4-.2-.7 1.3.4-.1.3.8 0 .2-.8 0-.9.6-.1.4.3.7.7.8.1 0-.1-.2 0-.2s.4.1.4.2c-.5.3-.6.9.2 1.2 0 0-.1-.2 0-.3.7-.3 1.4.2 1.3.2m-13.7 13c.6 1.4 1.9.5 2.9.3-.2-.2-.7-.5-.9-.5-1 .2-1.2.6-2 .2m-.4.8s-.1-.1-.2-.1-.1 0-.2-.1h-.2v.2l-.2.2s0 .1-.1.1c0 .1-.1.2-.1.3v.2s.1.1.1.2l.1.1c.1.1 0 .1.2.2.1.1 0 .2-.1.2-.6-.2-.7-.8-1.2-1.1-.4-.2-1 .2-1 .7.1 0 .3 0 .3.1.1.6 1 .2 1 .7 0 .3-.6 0-.9.1-.4.2-.4.9-.1 1.3.3-.3.7.1 1-.1.2-.2.3-.4.5-.5.7-.3.9.3.7.9.4-.2 1.2-.3 1.4-.4.4-.1.4-.9.8-1.2-.6 0-1.4-.3-1.5-.9v-.2c0-.2 0-.5-.1-.7v-.1s0-.1-.1-.1l-.2-.2c.2.2.1.2.1.2m-4.5 4.2c.3.5-1.1-.3-1.5.5-.2.2-.1.8-.1 1.1.3-.3.6.2 1.2-.2.1.1.1.1 0 .2-.2.2-.3.5-.2.7.1.2.5.5.5.5 0-.3.6 0 .7-.7 0-.3.1-.7.5-.6.4.2.4.6.4 1 .6-.2 1.6-.8 2.2-.3.8.6 2.2.8 3.1 1.1-.6-.4-.8-1.6-.7-2.3-1.5.3-3.1.2-4.5-.4-.4-.2-.3-.6-.5-1-.1-.4-.6-.8-1.1-.8-.2 0-.9.5-.7.6 0 0 0 .1-.1.1.1-.1.3 0 .3.1s.1.2.1.2c.2.1.4.1.4.2m3.6 8.3c.3-.4.5-.2.7-.2.3 0 .3.4.2.7 1.2-.6 2.4-1.4 3.8-1.1-.8-.9-.5-2.7.6-2.9 0 0-.8-.1-.8-.2-1-.6-2.2-1.2-2.9.1-.3.7.3 1.2.8 1.8.1.1 0 .2-.2.2-1.1.3-3.1.5-3.2-1.2 0-.2-.4-.3-.7-.3-.8 0-.8 1.1-.7 1 .2-.1.7-.1.7.3-.1.4-.8-.2-1.1.2-.2.3-.2.9-.1 1.2 0-.1.1-.2.2-.2.9-.1.9.2.6 1 0 .1.2.6.4.6v-.2c0-.1.1-.1.1-.1h.3s.1 0 .1-.1c.1 0 .1-.1.2-.2.2-.2.4-.6.7-.6.1 0 .2.1.3.2m8.8 3.8c.8-.8 1.3-1.8 2.2-2.5-.9-.5-2-1.1-2.1-2.3 0-.1.1-.2.2-.2 1.3.7 3 .8 3.9-.5.7-1 1-2.7 2.5-2.8-.5-.9.1-2 .8-2.5-.3-.1-.6-.3-.9-.3-.4.1-.5.5-.9.6.7-2.2-.6-5.2-3-5.2-.5 0-1 .4-1.2.9-.1.5-.2 1 .1 1.5.8 1 1.4 2 1.1 3.2.6-.5 1.1-1.2 1.1-2 0-.2.3-.1.4-.1.7-1-.4-1.6-1-2.2-.2-.2.2-.4.3-.4 2.1.6 2.3 3.2 1.4 4.8-.2-.3-1.1-.2-1.4-.3 1 .5.7.6.7.7-.1.3-.9.2-1.1.4-.3.4-.5.5-.5 1.8.4-.4.9-1.1 1.5-.8 1.2.6-.1 2.7-1.2 3.1-1 .3-1.9 0-2.5-.9-.9-1.2-.2-2.7-.9-4-.5.1-.4.8-.7.7-1-.4-1.5-1.5-2.2-2.3-.3.1-.4.4-.7.4-.4 0-1.2-.1-1.4.1-.2.2-.3 2 1.4 2.6 1.1.4 2.1.8 2.8 1.7-.5 0-.6-.2-1-.2s-.6.1-.9.3c-.3.2-.6.7-.6 1.1.3 2.1 2.7 2.1 3.9 3.5.2.2-.3 1.1-.8 1.5-.4.3-1.4-.5-1.2-1.2.1-.5-1.2-.9-1.6-.3.2 0 .2.1.2.2-.1.5.5.5.5.8 0 .3-.3-.1-.6-.2-.5-.1-1 .1-1.4.5-.1.1-.3.3-.2.5.4-.2.6.4 1 .2.2-.1.4-.3.7-.2.1 0 .2.2.1.2-.7.5-1.3 1.1-.8 1.9 0-.2.1-.3.3-.3.2-.1.5.1.7 0 .3-.1.2-.5.3-.7.2-.4.9-1 1.3-.5.1.1 0 .4-.2.4.2 0 .4.2.6.2h.2c.1 0 .1 0 .1-.1.1-.1.2-.2.2-.3.2 0 .4 0 .5-.1-.1-.2 0-.3 0-.4m-3.5-15.2c-1.3.4-2.1 1.6-2.5 2.7 0 .1-.1.2-.1.5 0 .1.8-.8 1.3-.5 0 .1-.1.7-.3.8.7-.1 1.6-.2 2.1-.7.1-.1 0 .5.1.7.3.7.9 1.2 1.5 1.6.2.1.1-.3.5-.6.3-.2.7.2 1 .3.2.1-.2-.6-.3-.8-.4-2 .4-3.6.4-5.5 0-.3-.1-.9-.5-1.2-.4 1.6-1.9 2.3-3.2 2.7m-11-31.4c-.4.2-1.4.3-1.2-.1.2-.5.8-.6 1.2.1m.9-.7c-.6 0-1.1-.5-1.6-.3-.6.2-1.3.5-1.9.7-.2.1-.7.3-.6.8.6-.2 1.5-.6 1.9.1.2.4.2.8 0 1.4-.1.4-.9.6-1.5.5.1.1.2.3.1.5 1.3-.3 3.2.2 4.1-1.3.3-.5-.1-1 0-1.5.1-.2.4-.4.5-.7.1-.2-.2-.5-.2-.7-.2.3-.4.5-.8.5m24.2.5c-.5.2-1.7.6-1.5.1.3-.7 1-.4 1.5-.1 0 0 .1-.1 0 0m.8 2.3c.5-.3.6-1 .8-1.5.1-.3.5-.3.7-.7v-.6c-.3.2-.9.4-1.3.3-1.2-.3-1.6-1-2.8-.1-.3.3-1 0-1.5.6-.1.1-.1.3-.1.5.6 0 1.5-.7 1.9.1.1.1.1.2.1.4v.6c0 .2-.1.4-.3.6.1-.2.1-.2 0-.1l-.1.1c-.1.1-.2.1-.2.1-.1 0-.1 0-.2.1H41.2c-.2 0-.2-.1-.3 0-.1.1-.1.2-.1.3.1 0 .2 0 .3.1.1.1.3.1.4.1h1.3c.2 0 .1 0 .3-.1.1 0 .2-.1.3-.1.1-.1.2-.2.4-.3.2-.1.5-.1.7-.3M29.7 34.4c-.1 0-.1 0-.2-.1s-.1-.2-.1-.3c0-.1.1-.1.1-.2s.1 0 .2-.1l.1-.1h.1c.1 0 .2.1.4.1s.3 0 .5.1l-.1.1c-.2.3-.8.6-1 .5m1.6-.9c-.8-.2-1.5-.4-2.1 0 0 0-.5.5-.4.5-.9 0-1.5.6-1.4 1 .3-.2.7-.5 1-.2.3.2.5 1 .3 1.4-.1.2-.4.6-.9.6-.2 0-.1.3-.1.4 1.2-.1 2.6-.8 3.6-1.4.5-.3.5-.8.7-1.4.1-.4.8-.5.6-1.2-.2.4-.8.4-1.3.3M48 28.3c0-.2.4-.7.5-1.1 0-1.4.8-2 .9-3.4 0-.4-1.5-.7-1.6-1.5 0-.4-.2-1 .2-1 .5 0 1-.1 1.4-.4 1.6-1.4.2-3.4.1-5.1 0-.4.7-1.2.6-1.5-.1-1.5-.4-2.8.1-4.2-.4.4-.5 1-.9 1.3-.2.1-.2-.2-.2-.2.2-1.3.7-2.4 1.3-3.6.7-1.4.3-2.6-.9-3-1.3-.6-2.4.5-2.5 1.6-.1 1 .2 2.3.5 3.1.1.2 0 .5.1.7.2-.9.2-1.8.2-2.7 0-.2.2-.5.4-.6.8-.2 1.2.3 1.1.8-.2 1.4-.4 2.4-.8 3.7-.4 1.5.2 3.1.3 4.6-.6-.4-1.2-.4-1.5.5-.1.5.3 1 .5 1.4 0-.6.6-1.4 1.1-1 .7.4.7 2.5.5 2.8-.3.6-.8 1-1.6.8-.4-.1-.2-.7-.5-1-1.3-1.4-1.9-3-2-4.9 0-.3.1-1 .1-1-1.7-.7-2.5 0-3.2 1-.1-.3-.8-.7-.8-.6-.3.6-.2 1.7.3 2.1 1.3 1.1 2.6 1.9 3.4 3.5-.8.1-1.6.3-1.9 1.2-.3.9-.2 2.1.7 2.4.8.3 2 0 2.3 0 .8.1 1.7.8 1.5 1.5 0 0-.3 1.8-1.1 1.4-.4-.2-.2-1.2-.8-1.4-.8-.2-1 1-.9.9.3-.3.5.2 1 .5-1.8-.4-1.2 1.2-1.2 1.1.1-.2.4 0 1 0 0 0-.1.1-.2.1-.1.2-.2.2-.2.4v.2c0 .1 0 .2.1.2 0 0 0-.1.1-.1h.1s.1 0 .2.1h.4c.1 0 .2 0 .3-.1l.1-.1c.1-.2.2-.2.2-.2.2-.4.3-.4.8-.3l.1.1s.1.3.1.2c.1.5.2.6.2.8m-12.5-16c.1.1-.1.2-.2.1-.8-.9-2.1-.8-2 .7.5-.2.6.4.9.2.3-.2.5-.4.8-.2.2.1.1.4 0 .4-1.4.5-.3 1.4-.5 1.6.2-.2.8-.2 1.3-1 .1-.2.8-.2 1.1-.1.4.1 0 .7.2.7.4-.1 1.3.4 1.7.8.8.8 1.5.7 2.5 1.2-.7-.6-.7-1.7-.5-2.5-.9 0-1.7-.2-2.5-.4-1.6-.4-1.5-2.1-1.8-2.7l-.1-.1c-.1-.3-.4-.4-.7-.4H35.4c.1 0 .1.1 0 .2v.2c-.2.2-.3.5-.2.7 0 .1 0 .1.1.1 0 0 0 .1.1.1.1.1.1.2.2.3l-.1.1z"/><path d="M52.9 5.7c-.2 9.6-.4 18.8-3.2 27.7L29.8 17.6 9.9 33.4c-2.8-8.9-3-18.1-3.2-27.7 0-.9 0-1.8-.1-2.7h46.3v2.7m-8.7 39.1C41 49.8 36 54 29.8 57c-6.2-2.9-11.2-7.1-14.5-12.1-.6-.8-1.1-1.7-1.5-2.5l16-12.7 16 12.7c-.5.7-1 1.6-1.6 2.4m-33.3-8.7 19-15 18.9 15c-.5 1.2-1 2.5-1.6 3.7L29.8 26.1 12.5 39.8c-.6-1.2-1.2-2.4-1.6-3.7M5.7 2v.5c0 1.1.1 2.1.1 3.2.3 13.9.6 27 8.8 39.7 3.4 5.2 8.6 9.5 15.1 12.5l.2.1.2-.1c6.5-3 11.7-7.3 15-12.5 8.2-12.6 8.5-25.8 8.8-39.7 0-1.1 0-2.1.1-3.2V2H5.7z"/></svg>