<svg xmlns="http://www.w3.org/2000/svg" viewBox="0 0 33.788 32.516"><g fill="#fff"><path d="M26.468 16.461c.802.793 1.504 2.279 1.504 3.369l.3 10.502c0 1.09-.801 1.684-1.904 1.386l-22.36-7.034c-1.102-.297-2.005-1.486-2.205-2.575L.7 12.796c-.1-1.09.602-2.279 1.705-2.576l11.129-3.27c1.102-.297 2.606.1 3.409.793z"/><path d="M11.028 19.434 1.001 11.806l-.2.792 1.102 10.006 1.404 1.783 23.964 7.43.902-.89-.3-11.89-.702-1.09-12.232 2.378z"/><path d="M27.872 31.421 14.336 18.542c-.802-.793-2.206-.892-3.208-.297l-8.623 5.449"/><path d="M14.337 18.443c-.802-.793-2.206-.892-3.208-.297l-3.41 2.18L27.773 31.42z"/></g><path d="m26.179 17.351.036-.035.033.04-10.026 1.91-1.337-1.28c-.604-.597-1.536-.935-2.354-.935-.533 0-1.256.1-1.785.483l-.507.32-8.42-6.262.008-.012c.209-.305.485-.509.785-.575l.02-.004 11.087-3.386.036-.018a.596.596 0 0 1 .187-.037c.111-.01.238-.01.394-.01.792 0 1.661.358 2.055.747l.006.006zM8.876 18.716l-7.311-5.412 1.037 8.754c.017.169.066.349.145.53zM3.721 23.75c.173.115.353.203.53.256l.008.002 21.817 6.864-12.292-11.876c-.285-.283-.748-.45-1.252-.45-.357 0-.692.094-.852.251l-.04.04zm23.843 6.391-.292-10.305v-.007c0-.298-.083-.682-.235-1.087l-9.432 1.851zM3.752 25.456l22.435 6.928c.293.132.577.132.76.131h.023c.494 0 1.003-.125 1.5-.494l.07-.051.047-.071c.228-.338.487-.833.487-1.469v-.106l-.3-10.502c-.002-.681-.2-1.442-.508-2.129-.309-.689-.748-1.35-1.267-1.806l-.35-.307-.042.04-9.233-8.45-.007-.007a4.81 4.81 0 0 0-3.03-1.11h-.026c-.284 0-.65 0-1.026.123L2.268 9.44C.936 9.803 0 11.101 0 12.498v.327l1.106 9.433c.123 1.406 1.277 2.747 2.647 3.198z" clip-rule="evenodd" fill="#455a6f" fill-rule="evenodd"/><path d="m22.759 10.121 3.108 3.071c1.003-5.35 7.921-12.087 7.921-12.087-9.726-3.17-18.248 1.486-18.248 1.486l2.707 3.17c-4.712 3.369-6.717 8.223-7.52 12.286l.201-.1c.401-.297 1.003-.396 1.504-.396.702 0 1.404.198 2.005.694C18.75 12.4 22.76 10.12 22.76 10.12z" fill="#fcb616"/></svg>