<svg xmlns="http://www.w3.org/2000/svg" viewBox="0 0 156.247 156.42"><path d="M150.664 102.824l-16.87-9.74a4.9 4.9 0 01-2.45-4.23v-19.48a11.36 11.36 0 00-5.68-9.83l-16.87-9.74a4.92 4.92 0 01-2.44-4.24v-19.48a11.39 11.39 0 00-5.68-9.85l-22.55-13-22.55 13a11.39 11.39 0 00-5.66 9.85v19.48a4.92 4.92 0 01-2.44 4.24l-16.89 9.74a11.38 11.38 0 00-5.67 9.83v19.48a4.89 4.89 0 01-2.44 4.23l-16.88 9.74a11.41 11.41 0 00-5.68 9.84v26l22.55 13a11.34 11.34 0 0011.35 0l16.87-9.74a4.91 4.91 0 014.89 0l16.87 9.74a11.37 11.37 0 0011.36 0l16.87-9.74a4.91 4.91 0 014.89 0l16.87 9.74a11.34 11.34 0 0011.35 0l22.55-13v-26a11.4 11.4 0 00-5.67-9.84zm-50.75-76.74v19.48a11.39 11.39 0 005.68 9.83l16.87 9.74a4.91 4.91 0 012.45 4.24v19.48a11.38 11.38 0 005.67 9.83l16.87 9.74a4.9 4.9 0 012.45 4.24v18.57l-68.55-39.56v-79.11l16.09 9.29a4.89 4.89 0 012.47 4.23zm-91.09 82.34l16.87-9.74a11.39 11.39 0 005.68-9.83v-19.48a4.9 4.9 0 012.44-4.24l16.87-9.74a11.39 11.39 0 005.68-9.83v-19.48a4.91 4.91 0 012.44-4.23l16.11-9.29v79.11l-68.53 39.56v-18.57a4.9 4.9 0 012.44-4.24zm121.73 37.7a4.91 4.91 0 01-4.89 0l-16.87-9.74a11.34 11.34 0 00-11.35 0l-16.87 9.74a4.91 4.91 0 01-4.89 0l-16.87-9.74a11.36 11.36 0 00-11.36 0l-16.87 9.74a4.91 4.91 0 01-4.89 0l-16.08-9.29 68.51-39.6 68.51 39.56z" fill="#2d3232"/></svg>
