<svg xmlns="http://www.w3.org/2000/svg" viewBox="0 0 38.795 41.746"><path d="M.025 9.127c-.005.01.002 11.818 0 12.798 0 .092.014.186.062.268.14.246.454.35.697.197.126-.087.235-.207.355-.305a12.66 12.66 0 0 1 1.228-.894c.163-.1.33-.2.497-.3.976-.56 1.997-.97 3.033-1.26.153-.04.31-.09.468-.13.087-.02.176-.05.264-.06.892-.2 1.905-.32 3.116-.38.063 0-.065.01 0 .01 5.174-.09 9.348-4.3 9.36-9.5C19.115 4.29 14.86.01 9.6 0 4.463-.008.236 4.042.025 9.127" fill="#60c7d7"/><path d="M13.982 40.705c.01 0 10.234-5.91 11.082-6.4a.53.53 0 0 0 .202-.186c.142-.25.075-.58-.178-.71-.14-.07-.3-.1-.45-.16-.16-.06-.31-.12-.47-.19-.32-.13-.62-.28-.92-.43-.18-.09-.35-.18-.52-.28-.98-.57-1.84-1.25-2.62-2-.12-.11-.23-.22-.35-.34-.06-.07-.13-.13-.19-.2-.62-.68-1.23-1.49-1.89-2.51-.03-.05.04.05 0-.01-2.66-4.44-8.4-5.94-12.91-3.36-4.55 2.63-6.12 8.45-3.5 13.01 2.56 4.45 8.18 6.09 12.69 3.73" fill="#fbb116"/><path d="M34.346 12.833c-.005-.01-10.233-5.91-11.084-6.4a.54.54 0 0 0-.262-.08c-.28 0-.53.22-.52.505.02.153.07.307.09.46.03.165.05.332.08.498.05.337.08.674.09 1.012.01.194.02.39.02.58 0 1.13-.15 2.216-.42 3.26-.03.156-.07.314-.12.472-.02.085-.04.174-.07.26-.27.877-.67 1.813-1.22 2.893-.03.057.03-.06 0-.003a9.52 9.52 0 0 0 3.55 12.854c4.55 2.64 10.38 1.09 13.02-3.46 2.58-4.44 1.18-10.128-3.11-12.85" fill="#f16651"/></svg>