<svg viewBox="0 0 90 90" xmlns="http://www.w3.org/2000/svg"><defs><linearGradient id="a" x1="50%" x2="50%" y2="100%"><stop stop-color="#00C2FF" offset="0"/><stop stop-color="#007BFF" offset="1"/></linearGradient></defs><path d="M37 23.245c-2.11.145-5.828-.302-10.375-3.835-7.167-5.571-6.395-11.295-6.23-12.227.162-.91 6.867-2.245 13.851 2.868a13.79 13.79 0 00-.861 7.05c.201-3.306 1.655-7.572 6.668-11.406 10.018-7.66 19.822-5.804 20.05-4.528.226 1.275 1.276 9.11-8.742 16.772-6.268 4.793-11.399 5.47-14.361 5.306zm13.149 26.96a16.428 16.428 0 0010.401 5.086 11.383 11.383 0 011.57 5.786c0 6.31-5.109 11.425-11.41 11.425S39.3 67.387 39.3 61.077c0-2.19.615-4.238 1.683-5.976a16.352 16.352 0 004.939-1.747c1.575-.82 3-1.886 4.226-3.149zm1.829-20.759a13.903 13.903 0 0110.44-4.707c7.702 0 13.946 6.251 13.946 13.963 0 7.712-6.244 13.963-13.946 13.963-4.155 0-7.886-1.82-10.44-4.707a16.461 16.461 0 001.8-3.488c1.73 3.002 4.96 5.021 8.66 5.021 4.414 0 8.16-2.874 9.489-6.863a12.448 12.448 0 01-9.458 4.348 12.421 12.421 0 01-8.425-3.282c.5-1.575.768-3.252.768-4.993a16.44 16.44 0 00-2.835-9.256zM24.386 47.959a13.903 13.903 0 01-10.44 4.707C6.243 52.666 0 46.415 0 38.703 0 30.991 6.244 24.74 13.945 24.74c4.156 0 7.887 1.82 10.441 4.707a16.44 16.44 0 00-2.834 9.257c0 1.766.277 3.468.79 5.063a12.42 12.42 0 01-8.346 3.211c-3.834 0-7.265-1.735-9.559-4.466 1.294 4.05 5.07 6.982 9.528 6.982 3.682 0 6.9-2.001 8.637-4.981a16.462 16.462 0 001.785 3.447zm10.695 7.142a11.382 11.382 0 011.684 5.976c0 6.31-5.108 11.425-11.41 11.425-6.301 0-11.41-5.115-11.41-11.425 0-2.111.572-4.09 1.57-5.786 4.121-.39 7.8-2.3 10.473-5.164a16.446 16.446 0 009.093 4.974zm13.883 20.193c.311 1.04.478 2.141.478 3.282 0 6.31-5.108 11.425-11.41 11.425s-11.41-5.115-11.41-11.425c0-1.141.167-2.243.478-3.282 4.87-.609 8.959-3.732 10.932-8.03 1.973 4.298 6.063 7.421 10.932 8.03zM30.25 81.646c1.034 3.314 4.056 5.712 7.621 5.712 3.531 0 6.528-2.352 7.591-5.616-1.834 2.18-4.544 3.558-7.566 3.558-3.067 0-5.811-1.42-7.647-3.654zm-12.5-17.396c1.035 3.314 4.057 5.712 7.622 5.712 3.531 0 6.528-2.352 7.591-5.616-1.834 2.18-4.544 3.558-7.566 3.558-3.067 0-5.811-1.42-7.647-3.654zm25.355 0c1.035 3.314 4.057 5.712 7.622 5.712 3.531 0 6.528-2.352 7.591-5.616-1.834 2.18-4.544 3.558-7.566 3.558-3.067 0-5.811-1.42-7.647-3.654zm-5.07-11.584c-7.702 0-13.945-6.252-13.945-13.963 0-7.712 6.243-13.963 13.945-13.963s13.945 6.252 13.945 13.963c0 7.712-6.244 13.963-13.945 13.963zM28.525 42.51c1.294 4.05 5.07 6.982 9.528 6.982 4.414 0 8.16-2.875 9.489-6.864a12.448 12.448 0 01-9.458 4.348c-3.834 0-7.265-1.735-9.559-4.466z" transform="translate(7)" fill="url(#a)" fill-rule="nonzero"/></svg>