<svg xmlns="http://www.w3.org/2000/svg" xmlns:xlink="http://www.w3.org/1999/xlink" viewBox="0 0 37.894 36.927"><defs><path id="a" d="M24.536 0s1.842 1.762 3.227 4.36L7.831 24.309 0 13.917l3.025-4.203 5.202 6.858L24.537 0z"/><mask id="b" fill="#fff"><use width="100%" height="100%" xlink:href="#a"/></mask></defs><path d="M36.479 14.565a18.568 18.568 0 0 1-.281 8.791 18.53 18.53 0 0 1-3.062 6.183c-6.147 8.158-17.711 9.813-25.829 3.696a18.252 18.252 0 0 1-6.235-8.483 18.54 18.54 0 0 1-1.067-5.79A18.463 18.463 0 0 1 3.741 7.387C9.419-.147 19.718-2.134 27.653 2.426c.357.205.71.424 1.058.656l-2.1 3.143a14.632 14.632 0 0 0-.842-.522c-6.352-3.65-14.528-1.99-19.01 3.96a14.683 14.683 0 0 0-2.975 9.213 14.76 14.76 0 0 0 .848 4.608 14.47 14.47 0 0 0 4.95 6.732c6.446 4.858 15.64 3.542 20.534-2.952a14.749 14.749 0 0 0 2.44-4.923 14.711 14.711 0 0 0 .223-6.998l3.699-.778z" fill="#404042"/><use transform="translate(10.131 1.66)" width="100%" height="100%" fill="#009bde" fill-rule="evenodd" xlink:href="#a"/><g transform="translate(10.131 1.66)" fill="none" fill-rule="evenodd" mask="url(#b)"><g transform="translate(-12.513 -9.854)"><ellipse cx="35.807" cy="17.468" rx="14.178" ry="14.354" fill="#ffad00"/><ellipse cx="47.059" cy="14.506" rx="14.178" ry="14.354" fill="#009b48"/><ellipse cx="19.154" cy="38.201" rx="19.129" ry="19.367" fill="#b731a9"/><ellipse cx="13.078" cy="28.86" rx="10.802" ry="10.936" fill="#009bde"/></g></g></svg>