<svg xmlns="http://www.w3.org/2000/svg" fill="none" viewBox="0 0 32 32"><mask id="a" width="72" height="71" x="0" y="0" maskUnits="userSpaceOnUse"><path fill="#fff" fill-rule="evenodd" d="M57.53 0c-6.91 0-12.62 5.2-13.42 11.89A30.83 30.83 0 0031 8.99 31.05 31.05 0 000 39.98C0 57.1 13.91 71 31.02 71a30.84 30.84 0 0015.59-4.2l-4.74-8.14A21.61 21.61 0 019.43 40c0-11.91 9.68-21.6 21.59-21.6a21.61 21.61 0 0121.1 26.16 2.55 2.55 0 01-2.48 2.04 2.54 2.54 0 01-2.54-2.54l-.05-4.1c-.02-8.82-7.2-16-16.03-16-8.84 0-16.04 7.2-16.04 16.03 0 8.84 7.2 16.03 16.04 16.03 3.7 0 7.27-1.33 10.08-3.59a11.93 11.93 0 008.54 3.6 12 12 0 0011.71-9.54c.45-2.12.68-4.3.68-6.5a30.83 30.83 0 00-2.88-13.05A13.52 13.52 0 0057.53 0zM24.16 40.12a6.75 6.75 0 016.75-6.75 6.75 6.75 0 016.75 6.75 6.75 6.75 0 01-6.75 6.74 6.75 6.75 0 01-6.75-6.74zM58.2 12.09c.32-.29.64-.61.97-.97.32-.37.48-.79.48-1.27 0-.55-.2-.97-.6-1.28a2.23 2.23 0 00-1.4-.47c-.65 0-1.15.2-1.51.59-.36.4-.56.88-.61 1.45l-3.45-.25c.04-.83.22-1.55.53-2.16a4.56 4.56 0 011.22-1.54 5.16 5.16 0 011.78-.91 7.72 7.72 0 012.22-.31 6.82 6.82 0 012.07.3 4.85 4.85 0 011.68.91c.48.4.85.9 1.12 1.51.27.6.4 1.31.4 2.11 0 .51-.05.98-.16 1.4a4.68 4.68 0 01-.45 1.13c-.19.34-.42.65-.68.94-.26.29-.54.57-.85.84l-4.95 4.2h7.23v2.99H51.87v-3.6z" clip-rule="evenodd"/></mask><g fill-rule="evenodd" clip-rule="evenodd" mask="url(#a)" transform="matrix(.45035 0 0 .4507 0 0)"><path fill="#fff" d="M57.53 0c-6.91 0-12.62 5.2-13.42 11.89A30.83 30.83 0 0031 8.99 31.05 31.05 0 000 39.98C0 57.1 13.91 71 31.02 71a30.84 30.84 0 0015.59-4.2l-4.74-8.14A21.61 21.61 0 019.43 40c0-11.91 9.68-21.6 21.59-21.6a21.61 21.61 0 0121.1 26.16 2.55 2.55 0 01-2.48 2.04 2.54 2.54 0 01-2.54-2.54l-.05-4.1c-.02-8.82-7.2-16-16.03-16-8.84 0-16.04 7.2-16.04 16.03 0 8.84 7.2 16.03 16.04 16.03 3.7 0 7.27-1.33 10.08-3.59a11.93 11.93 0 008.54 3.6 12 12 0 0011.71-9.54c.45-2.12.68-4.3.68-6.5a30.83 30.83 0 00-2.88-13.05A13.52 13.52 0 0057.53 0zM24.16 40.12a6.75 6.75 0 016.75-6.75 6.75 6.75 0 016.75 6.75 6.75 6.75 0 01-6.75 6.74 6.75 6.75 0 01-6.75-6.74zM58.2 12.09c.32-.29.64-.61.97-.97.32-.37.48-.79.48-1.27 0-.55-.2-.97-.6-1.28a2.23 2.23 0 00-1.4-.47c-.65 0-1.15.2-1.51.59-.36.4-.56.88-.61 1.45l-3.45-.25c.04-.83.22-1.55.53-2.16a4.56 4.56 0 011.22-1.54 5.16 5.16 0 011.78-.91 7.72 7.72 0 012.22-.31 6.82 6.82 0 012.07.3 4.85 4.85 0 011.68.91c.48.4.85.9 1.12 1.51.27.6.4 1.31.4 2.11 0 .51-.05.98-.16 1.4a4.68 4.68 0 01-.45 1.13c-.19.34-.42.65-.68.94-.26.29-.54.57-.85.84l-4.95 4.2h7.23v2.99H51.87v-3.6z"/><path fill="#2aaeff" d="M67.5 1.42a42.97 42.97 0 00-61.1 0 42.89 42.89 0 000 61.06c16.83 17 44.27 17 61.1 0a42.89 42.89 0 000-61.06"/><path fill="#558bec" d="M66.8 56.8a37.67 37.67 0 01-52.59 0 37.6 37.6 0 010-52.54 37.67 37.67 0 0152.58 0 37.6 37.6 0 010 52.54"/><path fill="#7f68da" d="M66.08 51.12a30.16 30.16 0 01-43.34 0 30.1 30.1 0 010-43.31 30.16 30.16 0 0143.34 0 30.1 30.1 0 010 43.31"/><path fill="#aa46c7" d="M66.8 45.44a25.66 25.66 0 01-35.53 0 25.6 25.6 0 010-35.5 25.66 25.66 0 0135.52 0 25.6 25.6 0 010 35.5"/><path fill="#d423b5" d="M65.37 39.76a17.38 17.38 0 01-25.58 0 17.35 17.35 0 010-25.56 17.38 17.38 0 0125.58 0 17.35 17.35 0 010 25.56"/><path fill="#ff00a2" d="M65.37 34.79a12.83 12.83 0 01-17.76 0 12.8 12.8 0 010-17.75 12.83 12.83 0 0117.76 0 12.8 12.8 0 010 17.75"/></g></svg>
