<svg xmlns="http://www.w3.org/2000/svg" viewBox="0 0 794 234.3"><defs><linearGradient id="a"><stop offset="0" stop-color="#424242" stop-opacity=".6"/><stop offset=".8" stop-color="#424242" stop-opacity=".2"/><stop offset="1" stop-color="#424242" stop-opacity="0"/></linearGradient><linearGradient id="b"><stop offset="0" stop-color="#ffa850" stop-opacity=".35"/><stop offset="1" stop-opacity=".38"/></linearGradient><linearGradient id="c"><stop offset="0" stop-color="#424242" stop-opacity=".6"/><stop offset="1" stop-color="#424242" stop-opacity="0"/></linearGradient><linearGradient id="e" x1="136" x2="211.2" y1="234.3" y2="205" gradientUnits="userSpaceOnUse" href="#a"/><linearGradient id="f" x1="115.3" x2="157.3" y1="119.7" y2="91.6" gradientUnits="userSpaceOnUse" href="#b"/><linearGradient id="d" x1="110.3" x2="189.1" y1="232.3" y2="97" gradientUnits="userSpaceOnUse" href="#c"><stop offset="0" stop-color="#ff5722"/><stop offset=".2" stop-color="#ff5b20"/><stop offset=".5" stop-color="#ff6819"/><stop offset=".7" stop-color="#ff7d0e"/><stop offset="1" stop-color="#ff9800"/></linearGradient></defs><path fill="#fff" d="M96 178c0 42-9 52-48 52S0 220 0 178s9-52 48-52 48 10 48 52m-64 0c0 20 2 25 16 25s17-5 17-25-3-25-17-25-16 5-16 25m266-49c2 0 3 1 3 3v16c0 3-1 3-3 3h-32c-7 0-10 2-10 5v2c0 3 2 4 8 6l22 8c15 5 20 14 20 28v3c0 21-17 27-39 27l-40-1c-3 0-3-1-3-3v-18c0-2 0-3 3-3h39c7 0 9-1 9-4v-2c0-2-2-4-10-7l-20-6c-15-5-19-17-19-29v-3c0-19 14-28 43-28 10 0 19 1 29 3m170-2c2 0 3 1 2 2l-15 84c-3 16-9 17-27 17-23 0-26-1-29-17l-7-34-8 34c-3 16-6 17-29 17-18 0-24-1-27-17l-15-84 2-2h28l2 2 11 74 2 2c1 0 2 0 2-2l17-71 3-2h24l3 2 16 71 2 2c1 0 2 0 2-2l11-74 2-2zm49-28c0 11-6 17-18 17-11 0-18-6-18-17 0-10 7-16 18-16 12 0 18 6 18 16m-5 28c2 0 3 1 3 3v97c0 2-1 3-3 3h-26c-2 0-3-1-3-3v-97c0-2 1-3 3-3zm58-28c2-1 3 1 3 3v26h16c2 0 3 1 3 2v18c0 2-1 3-3 3h-16v43c0 8 3 9 10 9h7c2 0 3 1 3 3v19c0 2-1 3-3 3l-18 2c-17 0-31 0-31-24l1-55h-11c-2 0-3-1-3-3v-18c0-1 1-2 3-2h11v-19c0-2 0-3 2-3zm112 30c2 0 3 1 3 4v17c0 2-1 3-3 3h-31c-13 0-16 5-16 25s3 25 16 25h31c2 0 3 1 3 3v18c0 2-1 3-3 4-10 2-24 2-31 2-40 0-48-10-48-52s8-52 48-52c7 0 21 0 31 3m47-41c2 0 3 1 3 3v36l17-1c36 0 45 8 45 44v57c0 2-1 3-3 3h-26c-2 0-3-1-3-3v-47c0-25-1-27-17-27h-13v74c0 2-1 3-2 3h-27c-2 0-2-1-2-3V91c0-2 0-3 2-3z"/><path fill="url(#d)" d="M157.3 91.6c-18.4 0-27.8 1.3-38 3.5-2.9 1-4.3 2-4.3 5.2v18c0 1.7.7 2.4 2.5 2.4h35.7c18 0 23.1 3.1 23.1 13.2v3.6c0 8-1.2 11.8-7.2 16.3l-36.4 26.3c-16.3 12-23 17.7-23 33v16.2c0 3 1 5 4.9 5h96.8c.9 0 1.3-.2 1.3-1V206c0-.9-.2-1-1.5-1h-53v-2.7a5 5 0 0 1 .9-2.3h-.1c.6-1 1.7-1.8 3.6-2.9l27.8-18.8c18.8-13 19.4-22 19.4-34.7v-18.2c0-28.8-24.8-33.8-52.5-33.8z"/><path fill="#424242" d="M285 69a9 9 0 1 1-18 0 9 9 0 0 1 18 0m-28-30a13 13 0 1 1-26 0 13 13 0 0 1 26 0m-44-20a16 16 0 1 1-32-2 16 16 0 0 1 32 2m-56 4a22 22 0 1 1-44-2 22 22 0 0 1 44 2M99 54a29 29 0 1 1-58-2 29 29 0 0 1 58 2"/><path fill="url(#e)" d="M211.2 205h-53v-1.8c0-1.1.2-2.2.9-3.2 0 0-23.1 11.2-23.1 34.3h75.4c.9 0 1.3-.2 1.3-1V206c0-.9-.2-1-1.5-1"/><path fill="url(#f)" d="M117.5 120.7h35.6c18.1 0 23.2 3 23.2 13.2v3.6c0 5.8-.7 9.4-3.4 12.7a54.1 54.1 0 0 0 10.9-13.3 30.3 30.3 0 0 0-26.3-45.3h-.2c-18.4 0-27.9 1.3-38 3.4-2.9 1-4.3 2-4.3 5.3v18a2.6 2.6 0 0 0 .3 1.4l.7.6a3.2 3.2 0 0 0 1.5.4"/></svg>
