<?xml version="1.0" encoding="UTF-8"?> <svg xmlns="http://www.w3.org/2000/svg" xmlns:xlink="http://www.w3.org/1999/xlink" viewBox="0 0 793.7 250.99"><defs><style>.cls-1{fill:url(#linear-gradient);}.cls-2{fill:url(#linear-gradient-2);}.cls-3{fill:none;}.cls-4{isolation:isolate;}.cls-5{clip-path:url(#clip-path);}.cls-6{fill:#fff;}.cls-7{fill:#424242;}.cls-8{clip-path:url(#clip-path-3);}.cls-9{fill:url(#linear-gradient-3);}.cls-10{opacity:0.46;mix-blend-mode:overlay;}.cls-11{clip-path:url(#clip-path-5);}.cls-12{clip-path:url(#clip-path-6);}.cls-13{mask:url(#mask);}.cls-14{fill:url(#linear-gradient-4);}.cls-15{clip-path:url(#clip-path-7);}.cls-16{clip-path:url(#clip-path-8);}.cls-17{mask:url(#mask-2);}.cls-18{fill:url(#linear-gradient-5);}</style><linearGradient id="linear-gradient" y1="226.68" x2="1" y2="226.68" gradientTransform="matrix(58.57, 0, 0, -58.57, 150.17, 13375.99)" gradientUnits="userSpaceOnUse"><stop offset="0"></stop><stop offset="1" stop-color="#fff"></stop></linearGradient><linearGradient id="linear-gradient-2" y1="226.86" x2="1" y2="226.86" gradientTransform="matrix(74.61, 0, 0, -74.61, 157.49, 17121.91)" gradientUnits="userSpaceOnUse"><stop offset="0" stop-color="#fff"></stop><stop offset="1"></stop></linearGradient><clipPath id="clip-path" transform="translate(-24.09 -13.17)"><rect class="cls-3" width="841.89" height="226.77"></rect></clipPath><clipPath id="clip-path-3" transform="translate(-24.09 -13.17)"><path class="cls-3" d="M141.69,73.4c-2.89.9-4.34,2-4.34,5.25V96.73c0,1.63.72,2.35,2.53,2.35h35.64c18.09,0,23.16,3.08,23.16,13.21v3.62c0,8-1.27,11.76-7.24,16.28l-36.36,26.23c-16.28,11.94-23,17.73-23,32.93v16.28c0,3.08.9,5.07,4.88,5.07h96.79c.9,0,1.27-.18,1.27-1.09V184.48c0-.91-.18-1.08-1.45-1.08h-53v-1.81c0-2.71,1.08-4.16,4.34-6l27.86-18.81c18.82-13,19.36-22.07,19.36-34.74V103.79C232.15,75,207.36,70,179.68,70c-18.45,0-27.86,1.27-38,3.44"></path></clipPath><linearGradient id="linear-gradient-3" y1="226.8" x2="1" y2="226.8" gradientTransform="matrix(156.11, 0, 0, -156.11, 98.34, 35545.62)" gradientUnits="userSpaceOnUse"><stop offset="0" stop-color="#ff5722"></stop><stop offset="0.24" stop-color="#ff5b20"></stop><stop offset="0.5" stop-color="#ff6819"></stop><stop offset="0.75" stop-color="#ff7d0e"></stop><stop offset="1" stop-color="#ff9800"></stop></linearGradient><clipPath id="clip-path-5" transform="translate(-24.09 -13.17)"><rect class="cls-3" x="137.35" y="69.96" width="72.85" height="58.64"></rect></clipPath><clipPath id="clip-path-6" transform="translate(-24.09 -13.17)"><path class="cls-3" d="M139.88,99.09h35.64c18.09,0,23.16,3.07,23.16,13.21v3.62c0,5.82-.7,9.41-3.39,12.68h0a54.11,54.11,0,0,0,10.87-13.3C217.74,95.3,203,70,179.91,70h-.23c-18.45,0-27.86,1.27-38,3.44-2.89.91-4.34,2-4.34,5.25V96.73a2.6,2.6,0,0,0,.37,1.43l.67.6a3.23,3.23,0,0,0,1.49.32"></path></clipPath><mask id="mask" x="83.93" y="16.59" width="139.03" height="139.03" maskUnits="userSpaceOnUse"><g transform="translate(-24.09 -13.17)"><rect class="cls-1" x="128.39" y="50.12" width="98.31" height="98.31" transform="translate(-18.2 154.62) rotate(-45)"></rect></g></mask><linearGradient id="linear-gradient-4" y1="226.68" x2="1" y2="226.68" gradientTransform="matrix(58.57, 0, 0, -58.57, 150.17, 13375.99)" gradientUnits="userSpaceOnUse"><stop offset="0"></stop><stop offset="1"></stop></linearGradient><clipPath id="clip-path-7" transform="translate(-24.09 -13.17)"><rect class="cls-3" x="158.39" y="178.4" width="76.65" height="34.29"></rect></clipPath><clipPath id="clip-path-8" transform="translate(-24.09 -13.17)"><path class="cls-3" d="M233.59,183.39h-53v-1.81a5.36,5.36,0,0,1,.86-3.18s-23.06,11.15-23.06,34.29h75.39c.9,0,1.27-.18,1.27-1.09V184.48c0-.9-.18-1.08-1.45-1.08"></path></clipPath><mask id="mask-2" x="117.15" y="126.9" width="110.95" height="110.95" maskUnits="userSpaceOnUse"><g transform="translate(-24.09 -13.17)"><rect class="cls-2" x="157.49" y="156.32" width="78.45" height="78.45" transform="translate(-80.66 196.37) rotate(-45)"></rect></g></mask><linearGradient id="linear-gradient-5" y1="226.86" y2="226.86" gradientTransform="matrix(74.61, 0, 0, -74.61, 157.49, 17121.91)" xlink:href="#linear-gradient-4"></linearGradient></defs><title>logo</title><g class="cls-4"><g id="Layer_2" data-name="Layer 2"><g id="Layer_1-2" data-name="Layer 1"><g class="cls-5"><g class="cls-5"><path class="cls-6" d="M120.34,161.5c0,41.79-9.23,52.1-48.12,52.1s-48.12-10.31-48.12-52.1c0-42,9.23-52.28,48.12-52.28s48.12,10.31,48.12,52.28m-64.58,0c0,19.9,2.71,25,16.46,25s16.46-5.07,16.46-25c0-20.08-2.72-25.15-16.46-25.15s-16.46,5.07-16.46,25.15" transform="translate(-24.09 -13.17)"></path><path class="cls-6" d="M322.25,112.11c2.17.54,2.89,1.27,2.89,2.9v16.64c0,2.17-.72,2.89-3.08,2.89H289.69c-6.15,0-9.23,1.45-9.23,5.07v1.63c0,2.53,2,4.34,7.42,6.15l22.61,7.42c14.65,4.88,19.36,14.47,19.36,28v3.26c0,21.35-17.19,27.5-39.26,27.5a358.85,358.85,0,0,1-39.8-1.81c-2.35,0-3.07-.72-3.07-2.71V191c0-2.17.72-2.9,3.07-2.9h39.08c7.06,0,9.23-.9,9.23-4.34v-1.26c0-2.71-2.17-4.34-9.77-6.87l-20.62-6.87c-14.29-4.7-19-16.1-19-28.4v-3.26c0-19.18,13.93-27.86,43.42-27.86a154.58,154.58,0,0,1,29.13,2.89" transform="translate(-24.09 -13.17)"></path><path class="cls-6" d="M492.31,110.12c1.63,0,2.35.72,2.17,2.53L479.1,196.59c-2.71,15.19-8.86,17-26.77,17-23,0-25.87-1.63-29.13-17l-7.42-34.73-7.42,34.73c-3.26,15.38-6.15,17-29.31,17-17.73,0-23.88-1.81-26.77-17l-15.2-83.94c-.36-1.81.54-2.53,2.17-2.53h27.86c1.27,0,1.63.72,2,2.53l11.22,73.27c.36,1.81.72,2,2,2s1.63-.18,2-2l16.46-70.38a2.6,2.6,0,0,1,2.9-2.17h24.24a2.7,2.7,0,0,1,2.89,2.17l16.46,70.38c.36,1.81.72,2,1.81,2,1.27,0,1.81-.18,2.17-2l11.22-73.27c.18-1.81.72-2.53,2-2.53Z" transform="translate(-24.09 -13.17)"></path><path class="cls-6" d="M541.53,82.26c0,10.49-6.69,16.64-18.09,16.64C511.68,98.9,505,92.75,505,82.26c0-10.31,6.7-16.46,18.45-16.46,11.4,0,18.09,6.15,18.09,16.46m-5.24,27.86c1.81,0,2.71,1.09,2.71,2.9V209.8c0,2-.9,2.89-2.71,2.89H510.23c-1.81,0-2.71-.91-2.71-2.89V113c0-1.81.9-2.9,2.71-2.9Z" transform="translate(-24.09 -13.17)"></path><path class="cls-6" d="M594.36,81.9c1.81-.54,2.71.91,2.71,2.9v26h15.56c2.17,0,3.08.91,3.08,2.72v17.55c0,2-.91,2.9-3.08,2.9H597.07v43.42c0,7.78,3.08,9,10.31,9h6.88c2,0,3.08.9,3.08,2.71V208c0,2.35-1.08,3.26-3.08,3.62a93.76,93.76,0,0,1-17.91,2c-17,0-30.76-.72-30.76-24.78V134H554.74c-2,0-3.08-.9-3.08-2.9V113.56c0-1.81,1.09-2.72,3.08-2.72H565.6V91.67c0-2,.72-2.35,2.53-2.89Z" transform="translate(-24.09 -13.17)"></path><path class="cls-6" d="M706.17,112.11c2,.54,3.08,1.27,3.08,3.8v17.55c0,2-1.09,2.9-3.26,2.9H675.41c-13.75,0-16.47,5.07-16.47,25,0,20.08,2.72,25.15,16.47,25.15H706c2.17,0,3.26.9,3.26,2.89v17.55c0,2.53-1.09,3.26-3.08,3.8-10.31,2.53-24.42,2.89-30.75,2.89-40.16,0-47.94-10.49-47.94-52.28s7.78-52.1,47.94-52.1c6.33,0,20.44.36,30.75,2.89" transform="translate(-24.09 -13.17)"></path><path class="cls-6" d="M753.57,71c1.81,0,2.72,1.09,2.72,2.9v36.18c5.43-.54,12.3-.9,17.19-.9,35.82,0,44.32,7.78,44.32,44V209.8c0,2-.91,2.89-2.71,2.89H788.85c-1.81,0-2.53-.9-2.53-2.89V162.95c0-25.15-1.45-26.59-17.73-26.59H756.47V209.8c0,2-.91,2.89-2.71,2.89H727.34c-1.81,0-2.71-.9-2.71-2.89V73.94c0-1.81.9-2.9,2.71-2.9Z" transform="translate(-24.09 -13.17)"></path><path class="cls-7" d="M292.83,82.08a8.63,8.63,0,1,1-8.33-8.92,8.63,8.63,0,0,1,8.33,8.92" transform="translate(-24.09 -13.17)"></path><path class="cls-7" d="M265.1,52.65a12.92,12.92,0,1,1-12.46-13.36A12.92,12.92,0,0,1,265.1,52.65" transform="translate(-24.09 -13.17)"></path><path class="cls-7" d="M221.14,32a16.29,16.29,0,1,1-15.72-16.85A16.3,16.3,0,0,1,221.14,32" transform="translate(-24.09 -13.17)"></path><path class="cls-7" d="M165.07,36.27a22.33,22.33,0,1,1-21.54-23.08,22.33,22.33,0,0,1,21.54,23.08" transform="translate(-24.09 -13.17)"></path><path class="cls-7" d="M106.66,67a29,29,0,1,1-28-30,29,29,0,0,1,28,30" transform="translate(-24.09 -13.17)"></path></g><g class="cls-8"><rect class="cls-9" x="96.71" y="54.47" width="173.72" height="173.72" transform="translate(-70.26 158.03) rotate(-45)"></rect></g><g class="cls-5"><g class="cls-10"><g class="cls-11"><g class="cls-12"><g class="cls-13"><rect class="cls-14" x="128.39" y="50.12" width="98.31" height="98.31" transform="translate(-42.29 141.45) rotate(-45)"></rect></g></g></g></g><g class="cls-10"><g class="cls-15"><g class="cls-16"><g class="cls-17"><rect class="cls-18" x="157.49" y="156.32" width="78.45" height="78.45" transform="translate(-104.75 183.2) rotate(-45)"></rect></g></g></g></g></g></g></g></g></g></svg> 