<svg xmlns="http://www.w3.org/2000/svg" width="50" height="33" fill="none"><g fill-rule="evenodd" clip-rule="evenodd"><path fill="#3DA2FF" d="M25.1222 11.871 2.6719.1187v20.8006l22.4503 11.7523V11.871Zm-8.2304 7.5176c1.6532 0 2.9934-1.3402 2.9934-2.9934 0-1.6532-1.3402-2.9933-2.9934-2.9933-1.6532 0-2.9934 1.3401-2.9934 2.9933s1.3402 2.9934 2.9934 2.9934Z"/><path fill="#62B3FF" d="M25.123 11.871 47.5734.1187v20.8006L25.123 32.6716V11.871Zm8.2308 7.7051c1.6532 0 2.9934-1.3402 2.9934-2.9934 0-1.6532-1.3402-2.9933-2.9934-2.9933-1.6532 0-2.9933 1.3401-2.9933 2.9933s1.3401 2.9934 2.9933 2.9934Z"/></g></svg>