<svg width="50" height="33" viewBox="0 0 50 33" fill="none" xmlns="http://www.w3.org/2000/svg"><g id="Frame 6"><path id="Subtract" fill-rule="evenodd" clip-rule="evenodd" d="M25.1222 11.871L2.67188 0.118652V20.9193L25.1222 32.6716V11.871ZM16.8918 19.3886C18.545 19.3886 19.8852 18.0484 19.8852 16.3952C19.8852 14.742 18.545 13.4019 16.8918 13.4019C15.2386 13.4019 13.8984 14.742 13.8984 16.3952C13.8984 18.0484 15.2386 19.3886 16.8918 19.3886Z" fill="#3DA2FF"/><path id="Subtract_2" fill-rule="evenodd" clip-rule="evenodd" d="M25.123 11.871L47.5734 0.118652V20.9193L25.123 32.6716V11.871ZM33.3538 19.5761C35.007 19.5761 36.3472 18.2359 36.3472 16.5827C36.3472 14.9295 35.007 13.5894 33.3538 13.5894C31.7006 13.5894 30.3605 14.9295 30.3605 16.5827C30.3605 18.2359 31.7006 19.5761 33.3538 19.5761Z" fill="#62B3FF"/></g></svg>