<svg xmlns="http://www.w3.org/2000/svg" viewBox="0 0 36.203 36.601" fill="#4d216d"><path d="M22.802 25.88a12.561 12.561 0 0 0 12.185-8.584c.168-.419.293-.628.586-.628.461 0 .628.586.628 1.633a18.026 18.026 0 0 1-18.047 18.3 18.301 18.301 0 1 1 .293-36.6c8.542 0 15.368 5.4 15.368 12.185a9.117 9.117 0 0 1-9.254 9.212c-4.69 0-8.584-3.266-8.584-7.83a8.178 8.178 0 0 1 1.717-5.025c.838-1.047 1.591-1.3 1.591-.712a11.8 11.8 0 0 0-.209 1.466 3.757 3.757 0 0 0 3.936 3.559 4.039 4.039 0 0 0 4.062-4.062c0-2.889-2.973-5.192-6.783-5.192-5.695 0-9.966 5.192-9.966 10.887 0 6.49 5.527 11.39 12.478 11.39"/></svg>
