<svg xmlns="http://www.w3.org/2000/svg" xmlns:xlink="http://www.w3.org/1999/xlink" fill="none" viewBox="0 0 86.26 94.29"><linearGradient id="a"><stop offset="0"/><stop offset=".45" stop-color="#100030"/><stop offset=".84" stop-color="#180070"/><stop offset="1"/></linearGradient><linearGradient xlink:href="#a" id="b" x1="136.97" x2="122.9" y1="65.65" y2="65.65" gradientTransform="translate(-103.37 -15.82)" gradientUnits="userSpaceOnUse"/><linearGradient xlink:href="#a" id="c" x1="154.19" x2="167.96" y1="65.61" y2="65.61" gradientTransform="translate(-103.37 -15.82)" gradientUnits="userSpaceOnUse"/><g fill="#ff48d8"><path d="M64.61 72.53c.12 3.17 2 7.74 5.2 9.5 2.87 1.58 5.2 2.34 5.2 4.1 0 1.76-8.63 6.2-17.49 1.87-8.85-4.33-9.68-9.73-10.27-11.95 9.68-5.74 17.36-3.52 17.36-3.52z"/><path d="M75.12 66.98c1.24-5.8 9.9-14.1 10.98-25.5C87.52 26.55 79.9 0 42.7 0 5.5 0 0 27.41 0 38.85c0 15.3 11.34 23.2 10.8 28.65 9.22 7.21 44.12 15.65 64.32-.52z"/><path d="M20.8 72.53c-.12 3.17-2.01 7.74-5.2 9.5-2.88 1.58-5.2 2.34-5.2 4.1 0 1.76 8.62 6.2 17.48 1.87 8.86-4.33 9.69-9.73 10.28-11.95-9.69-5.74-17.36-3.52-17.36-3.52z"/><path d="M52.73 74.69s-.7 6.2-1.77 9.85c-1.06 3.64-2.36 9.75-8.74 9.75-6.37 0-7.83-6.97-8.27-9.48-.47-2.7-1.18-10.8-1.18-10.8s9.8-8.76 19.96.68zm22.15-7.77c-.82 6.56 5.9 6.8 5.55 10.55-.35 3.75-14.4 3.75-18.19-3.64-3.78-7.38 12.64-6.91 12.64-6.91zm-63.98 0c.82 6.56-5.91 6.8-5.56 10.55.35 3.75 14.41 3.75 18.19-3.64 3.78-7.38-12.64-6.91-12.64-6.91z"/></g><path fill="#fff" d="M26.18 58.28c5.58 0 10.11-4.49 10.11-10.03 0-5.54-4.53-10.04-10.11-10.04-5.59 0-10.11 4.5-10.11 10.04 0 5.54 4.52 10.03 10.1 10.03z"/><path fill="url(#b)" d="M26.86 56.9A7.1 7.1 0 0 0 34 49.83a7.1 7.1 0 0 0-7.13-7.07 7.1 7.1 0 0 0-7.12 7.07 7.1 7.1 0 0 0 7.12 7.07z"/><path fill="#fff" d="M22.72 47.67a1.6 1.6 0 1 0 0-3.19 1.6 1.6 0 1 0 0 3.19zm35.16 9.83a9.3 9.3 0 0 0 9.33-9.25 9.3 9.3 0 0 0-9.33-9.26 9.3 9.3 0 0 0-9.32 9.26 9.3 9.3 0 0 0 9.32 9.25z"/><path fill="url(#c)" d="M57.86 56.83a7.06 7.06 0 0 0 7.09-7.04 7.06 7.06 0 0 0-7.09-7.03 7.06 7.06 0 0 0-7.08 7.03 7.06 7.06 0 0 0 7.08 7.04z"/><path fill="#fff" d="M54.21 47.37c.9 0 1.64-.72 1.64-1.62a1.64 1.64 0 0 0-3.28 0c0 .9.74 1.62 1.64 1.62z"/><path fill="#100030" d="M67.96 29.72c1 .47 1.9.84 2.66 1.71.45.57-.2 1.38-.85 1.08a7.9 7.9 0 0 0-2.41-.7c-1.68-.3-1-2.7.6-2.09zm-50.28 3.19c-.72.06-1.6.17-2.26.46l-.17.08c-.28.13-.6 0-.74-.27-.4-.84 1.95-2.04 2.57-2.37.57-.31 1.29-.1 1.57.5.37.7-.18 1.58-.97 1.6zm20.74 31.08c1.44 1.3 4 1.06 5.63.17.31-.2 1.27-.65 1.61-.83a.75.75 0 0 1 1 .34c.24.64.04 1.35-.25 1.91-1.58 2.75-5.63 3.51-8.28 1.85a4.33 4.33 0 0 1-1.38-1.37c-.59-.84-.87-3.02.73-2.83.4.05.7.5.94.76z"/></svg>