<svg xmlns="http://www.w3.org/2000/svg" viewBox="0 0 60 60"><path d="M53.135 16.08a18.073 18.073 0 0 0-7.11-3.48 23.136 23.136 0 0 0-4.53-.57c-1.138-.03-2.28-.03-3.416-.03H21.95c-1.14 0-2.281 0-3.42.03a23.14 23.14 0 0 0-4.547.57 18.081 18.081 0 0 0-7.106 3.48 17.826 17.826 0 0 0 0 27.84 18.08 18.08 0 0 0 7.106 3.48c1.488.338 3.006.529 4.531.569 1.14.031 2.28.031 3.42.031h16.13c1.14 0 2.28 0 3.42-.031 1.524-.04 3.042-.23 4.53-.57a18.07 18.07 0 0 0 7.11-3.48 17.825 17.825 0 0 0 0-27.838zm-7.866 18.75a6.449 6.449 0 0 1-2.639 1.02c-.96.151-1.89.12-2.85.12H20.225c-.96 0-1.89.031-2.85-.12a6.465 6.465 0 0 1-2.641-1.02 5.907 5.907 0 0 1-2.55-4.83 5.829 5.829 0 0 1 2.55-4.83 6.491 6.491 0 0 1 2.64-1.02c.96-.15 1.891-.119 2.851-.119h19.558c.96 0 1.891-.03 2.851.119.942.142 1.841.49 2.633 1.02A5.91 5.91 0 0 1 47.819 30a5.83 5.83 0 0 1-2.55 4.83z" fill="#181a1b"/></svg>
