<svg xmlns="http://www.w3.org/2000/svg" height="36" width="36"><path d="M19.192 17.861c-.96 0-2.247.555-3.863 1.664-1.7 1.162-2.548 2.178-2.548 3.05 0 .738.493 1.36 1.48 1.86.821.45 1.657.674 2.506.674 1.233 0 2.397-.357 3.493-1.07 1.233-.765 1.85-1.728 1.85-2.89 0-.713-.302-1.44-.905-2.18-.602-.738-1.273-1.108-2.013-1.108zm6.616 2.456c0 2.64-.986 4.727-2.959 6.257-1.835 1.4-4.165 2.1-6.986 2.1-1.699 0-3.096-.33-4.192-.991-1.342-.766-2.013-1.914-2.013-3.445 0-1.69.877-3.743 2.63-6.16 1.753-2.415 4.136-3.623 7.15-3.623.905 0 1.89.106 2.959.317-.137-.924-.41-1.577-.822-1.96-.41-.383-1.082-.575-2.013-.575-.795 0-1.932.146-3.411.436-1.48.29-2.507.436-3.082.436-.521 0-.994-.244-1.418-.733-.426-.488-.637-.996-.637-1.525 0-.554.493-.964 1.48-1.227 2.63-.687 5.191-1.03 7.684-1.03 1.616 0 2.726.224 3.329.673.904.687 1.506 2.06 1.808 4.119.109 1.558.232 3.116.37 4.673.082 1.056.123 1.809.123 2.258zm4.768-2.912c0-3.332-.987-6.28-2.96-8.845-2.137-2.802-4.89-4.204-8.26-4.204-2.11 0-4.301.648-6.575 1.943-5.151 2.962-7.726 7.246-7.726 12.85 0 3.36.972 6.307 2.918 8.845 2.137 2.829 4.89 4.243 8.26 4.243 2.11 0 4.288-.647 6.534-1.942 5.205-2.962 7.809-7.259 7.809-12.89zM36 14.89c0 3.301-.987 6.594-2.96 9.881-1.972 3.287-4.52 5.96-7.643 8.02C22.082 34.93 18.684 36 15.206 36c-4.248 0-7.843-1.446-10.788-4.337C1.473 28.773 0 25.281 0 21.188c0-3.3.987-6.6 2.96-9.9 1.972-3.302 4.505-5.981 7.601-8.04C13.85 1.082 17.233 0 20.713 0c4.218 0 7.82 1.46 10.808 4.376C34.506 7.294 36 10.799 36 14.89Z" style="fill:#cc1e1f;fill-rule:evenodd"/></svg>