<svg xmlns="http://www.w3.org/2000/svg" viewBox="0 0 36 36"><path fill="#cc1e1f" d="M19.2 17.9c-1 0-2.3.5-3.9 1.6-1.7 1.2-2.5 2.2-2.5 3 0 .8.5 1.4 1.5 2 .8.4 1.6.6 2.5.6 1.2 0 2.4-.3 3.5-1 1.2-.8 1.8-1.8 1.8-3 0-.7-.3-1.4-.9-2.1-.6-.8-1.3-1.1-2-1.1zm6.6 2.4c0 2.7-1 4.7-3 6.3a11.2 11.2 0 0 1-7 2 8 8 0 0 1-4.1-1c-1.4-.7-2-1.8-2-3.4 0-1.7.8-3.7 2.6-6.1a8.4 8.4 0 0 1 7.1-3.6c1 0 2 0 3 .3-.1-1-.4-1.6-.8-2-.4-.4-1.1-.6-2-.6-.8 0-2 .2-3.4.5a18 18 0 0 1-3.1.4c-.6 0-1-.2-1.4-.7a2 2 0 0 1-.7-1.5c0-.6.5-1 1.5-1.3 2.6-.7 5.2-1 7.7-1 1.6 0 2.7.2 3.3.7 1 .7 1.5 2 1.8 4a252.7 252.7 0 0 0 .5 7zm4.8-2.9c0-3.3-1-6.3-3-8.8a10 10 0 0 0-8.2-4.2 13 13 0 0 0-6.6 1.9A14 14 0 0 0 5 19.1c0 3.4 1 6.4 3 8.9a10 10 0 0 0 8.2 4.2 13 13 0 0 0 6.6-2 14 14 0 0 0 7.8-12.8zM36 15c0 3.3-1 6.6-3 9.9-2 3.3-4.5 6-7.6 8A18.6 18.6 0 0 1 15.2 36 15 15 0 0 1 0 21.2c0-3.3 1-6.6 3-10 2-3.2 4.5-5.9 7.6-8C13.9 1.1 17.2 0 20.7 0a15 15 0 0 1 10.8 4.4A14 14 0 0 1 36 14.9Z"/></svg>