<svg xmlns="http://www.w3.org/2000/svg" viewBox="0 0 103 103"><defs><linearGradient id="b" x1="45.6" x2="88.4" y1="9.8" y2="157.8" gradientUnits="userSpaceOnUse"><stop offset="0" stop-color="#ef1970"/><stop offset=".1" stop-color="#f23b5c"/><stop offset=".5" stop-color="#f77d35"/><stop offset=".7" stop-color="#fcad18"/><stop offset=".9" stop-color="#fecb07"/><stop offset="1" stop-color="#ffd600"/></linearGradient><clipPath id="c"><rect id="a" width="103" height="103" x="0" y="0" rx="51.5"/></clipPath></defs><use href="#a" fill="url(#b)"/><path clip-path="url(#c)" fill="#fff" d="M9.4 39.7a.9.9 0 0 0 .3-1.3 1 1 0 0 0-1.3-.3 1 1 0 0 0 1 1.6Zm56.1-25.2a.9.9 0 0 0 .3-1.3 1 1 0 0 0-1.3-.3 1 1 0 0 0-.3 1.3c.3.4.9.5 1.3.3Zm12 36.4a1 1 0 1 0 1.3-.8c-.6-.2-1.1.2-1.3.8ZM61.7 87.7c-.4-.2-.8 0-1 .6a.8.8 0 1 0 1-.6Zm-45.9-68a.5.5 0 1 0 .2-1c-.3 0-.6 0-.6.4a.5.5 0 0 0 .4.6Zm3.2 50c-.4.2-.7.5-.6.9a.7.7 0 0 0 .8.6c.4 0 .6-.4.6-.8a.7.7 0 0 0-.8-.6Zm67.3-34.2-.6 2.6-2.4 1.2 2.6.6 1.1 2.3.6-2.6 2.4-1.1-2.6-.6ZM52.1 18.2a1 1 0 0 0-.6 1.4c.4.9.6 2 .3 3a1.1 1.1 0 0 0 1 1.4h.1a1 1 0 0 0 1-1 6 6 0 0 0-.4-4.2 1 1 0 0 0-1.4-.6Zm-.5-4.3a6 6 0 0 0-1-1.5c-.4-.4-1-.4-1.5 0a1 1 0 0 0 0 1.5c.3.3.5.6.6 1 .3.5 1 .7 1.5.5.5-.3.7-1 .4-1.5ZM90 84.5A128 128 0 0 0 84 66a44 44 0 0 0-13.2-15 3.2 3.2 0 0 1-.3-4.7 113 113 0 0 0 14.3-16.1c1.6-3 4.7-8.5 4.8-13.3.4-3.6 0-7.7-4.9-9.6-2.4-1-5-.7-7 1-3 2-4 7.6-6 13.3C69 28 65.1 29 63.1 29s-.7-2.2-5.3-15.6C53.3 0 41 2.4 31.6 7.9 19.7 14.9 25 30 28 39.8c-1.6 1.6-7.9 2.8-13.5 5.8-3.5 2-6.6 3-9.5 5.5C1 54.4-1 58 .5 63A7.2 7.2 0 0 0 4 67.3c3.4 1.5 8.3-.7 15.8-6.4a45 45 0 0 1 12-5.5s4.5 7 8.8 15.3c4.3 8.3-4.6 11-5.5 11-.9 0-14.8-1.4-11.6 10.4 3.2 11.8 20 7.4 28.5 1.8 8.6-5.6 6.5-24.2 6.5-24.2 8.3-1.2 11 7.8 11.8 12.2.8 4.4-1 12.5 7.5 12.7 1.2 0 2.4-.2 3.5-.5 4.6-1 7.3-3.4 8.3-5.8a6 6 0 0 0 .4-3.7Zm-42.4-55c-8.6 3.3-12.7-1-13.2-8.8-.6-8.8 7.6-11 7.6-11 9-3 11.5 1.4 13.6 7.8 2.1 6.4.5 8.8-8 12Z"/></svg>
