<svg width="126" height="153" viewBox="0 0 126 153" fill="none" xmlns="http://www.w3.org/2000/svg">
<g id="Offensity_Logo Copy 3">
<path id="Offensity Lens" fill-rule="evenodd" clip-rule="evenodd" d="M16.0511 49.9587L38.2493 12.0612H82.6449L104.843 49.9587L82.6449 87.8571H38.2493L16.0511 49.9587ZM124.351 143.375L94.1404 91.9567L115.266 55.8903L118.741 49.9587L115.266 44.0272L93.0675 6.12967L89.5936 0.19812H82.645H38.2494H31.3007L27.826 6.12967L5.62863 44.0272L2.15387 49.9587L5.62863 55.8903L27.826 93.7887L31.3007 99.7202H38.2494H81.8128L111.704 150.594L124.351 143.375Z" fill="#6294AC"/>
<path id="Fill 18" fill-rule="evenodd" clip-rule="evenodd" d="M55.4174 80.0961H66.468V68.4229H55.4174V80.0961ZM53.8526 23.6975H67.9523L65.5683 62.0196H56.1543L53.8526 23.6975Z" fill="#6294AC"/>
</g>
</svg>
