<svg xmlns="http://www.w3.org/2000/svg" width="437.413" height="437.413"><path d="M90.907 308.691c-20.732-2.117-39.084-8.21-53.506-17.764-6.445-4.27-17.567-14.981-22.001-21.189-20.008-28.008-20.582-69.69-1.36-98.605 25.47-38.312 82.673-53.348 131.31-34.517 27.998 10.841 47.486 31.799 55.068 59.22 2.59 9.372 3.525 26.773 1.998 37.217-5.644 38.598-35.083 66.394-78.463 74.083-7.074 1.254-26.873 2.186-33.046 1.555zm23.105-40.22c15.994-3.9 28.185-16.444 32.924-33.878 1.981-7.286 2.03-23.585.091-30.806-2.293-8.545-6.7-16.6-12.371-22.612-8.122-8.61-17.483-12.857-29.967-13.598-19.532-1.16-36.032 8.194-44.039 24.963-4.172 8.738-5.819 16.348-5.819 26.883 0 26.612 15.31 46.315 38.874 50.028 5.125.807 14.918.335 20.307-.98zm175.112 36.058c-2.899-.152-19.315-.537-36.482-.854l-31.212-.578-.225-12.504c-.163-9.123.041-12.669.758-13.111 1.159-.717 11.249-2.152 20.95-2.981l6.892-.589.208-50.346.21-50.346-12.148-.995c-6.68-.548-13.159-1.267-14.396-1.598l-2.249-.601v-26.637l38.914-.642c80.74-1.332 104.046.22 127.64 8.504 25.538 8.965 41.258 24.468 47.154 46.502 2.463 9.208 3.043 27.629 1.162 36.914-6.5 32.072-31.355 54.139-72.49 64.356-20.192 5.015-46.783 6.975-74.686 5.506zm46.976-37.176c2.923-.708 8.661-2.89 12.753-4.852 19.63-9.407 28.406-28.127 24.212-51.65-4.01-22.497-20.803-33.775-50.338-33.807-6.53-.007-10.091.312-10.742.962-.733.733-.973 11.918-.973 45.36 0 41.393.096 44.445 1.42 45.275 1.904 1.193 16.755.385 23.668-1.288z" fill="#d12030"/></svg>