<svg xmlns="http://www.w3.org/2000/svg" viewBox="0 0 608 651"><radialGradient id="a" cx="0" cy="0" r="1" gradientTransform="matrix(-247 588 -737 -310 267 139)" gradientUnits="userSpaceOnUse"><stop offset=".1" stop-color="#ae7fe2"/><stop offset="1" stop-color="#0078d4"/></radialGradient><linearGradient id="b" x1="245.1" x2="197.4" y1="511.9" y2="398.1" gradientUnits="userSpaceOnUse"><stop offset="0" stop-color="#114a8b"/><stop offset="1" stop-color="#0078d400"/></linearGradient><radialGradient id="c" cx="0" cy="0" r="1" gradientTransform="matrix(417 -141 109 321 143 522)" gradientUnits="userSpaceOnUse"><stop offset=".1" stop-color="#d59dff"/><stop offset="1" stop-color="#5e438f"/></radialGradient><linearGradient id="d" x1="551.9" x2="472.5" y1="331.5" y2="444.1" gradientUnits="userSpaceOnUse"><stop offset="0" stop-color="#493474"/><stop offset="1" stop-color="#8c66ba00"/></linearGradient><radialGradient id="e" cx="0" cy="0" r="1" gradientTransform="matrix(-500 -176 175 -496 621 334)" gradientUnits="userSpaceOnUse"><stop offset=".1" stop-color="#50e6ff"/><stop offset="1" stop-color="#436dcd"/></radialGradient><linearGradient id="f" x1="195.4" x2="302.2" y1="15.6" y2="15.6" gradientUnits="userSpaceOnUse"><stop offset="0" stop-color="#2d3f80"/><stop offset="1" stop-color="#436dcd00"/></linearGradient><path fill="url(#a)" d="m250 12 1-1a130 130 0 0 0-9 5L68 110C26 132 0 176 0 224v203c0 48 26 92 68 115l42 22h42l174-96-63-35c-42-23-68-66-68-114v-61l22-41 87-22V12z"/><path fill="url(#b)" d="m250 12 1-1a130 130 0 0 0-9 5L68 110C26 132 0 176 0 224v203c0 48 26 92 68 115l42 22h42l174-96-63-35c-42-23-68-66-68-114v-61l22-41 87-22V12z"/><path fill="url(#c)" d="M412 233v88c0 48-26 92-68 115l-174 94a130 130 0 0 1-112 5 130 130 0 0 0 10 7l174 94a130 130 0 0 0 124 0l173-94c43-23 69-67 69-115v-55L478 261z"/><path fill="url(#d)" d="M412 233v88c0 48-26 92-68 115l-174 94a130 130 0 0 1-112 5 130 130 0 0 0 10 7l174 94a130 130 0 0 0 124 0l173-94c43-23 69-67 69-115v-55L478 261z"/><path fill="url(#e)" d="M540 110 366 16a130 130 0 0 0-115-5c-35 24-56 64-56 107v136l50-25a130 130 0 0 1 118 0l173 88a130 130 0 0 1 72 110V224c0-48-26-92-68-114z"/><path fill="url(#f)" d="M540 110 366 16a130 130 0 0 0-115-5c-35 24-56 64-56 107v136l50-25a130 130 0 0 1 118 0l173 88a130 130 0 0 1 72 110V224c0-48-26-92-68-114z"/></svg>
