<svg xmlns="http://www.w3.org/2000/svg" width="513.179" height="513.179"><g fill="#100f0d"><path d="M116.587 249.74c-21.431 0-33.382 21.789-33.382 50.953 0 21.089 5.975 30.577 23.192 30.577 19.317 0 34.092-18.627 34.092-50.599 0-20.725-5.628-30.93-23.902-30.93"/><path d="M424.95 328.809c10.551 0 22.851-2.463 36.213-7.375 4.918 2.462 7.374 9.49 7.374 14.761 0 17.92-16.166 28.464-55.872 28.464-42.522 0-65.366-17.224-65.366-61.853 0-55.527 33.737-86.795 86.798-86.795 33.39 0 41.466 10.191 41.466 23.54 0 7.38-2.463 11.603-7.026 15.108-8.076-2.454-16.514-3.861-29.514-3.861-25.308 0-39.712 14.761-39.712 46.388 0 23.19 7.025 31.623 25.64 31.623zM297.838 363.95c-13.702 0-18.621-4.924-26.008-20.73l-23.54-48.149-8.785 66.068c-6.67 2.463-17.564 2.811-24.95 2.811-15.457 0-22.483-6.316-22.483-19.686 0-3.854.696-10.531 2.101-20.02l19.679-149.698c2.816-22.135 10.19-27.413 27.768-27.413 9.829 0 19.678 2.462 25.648 7.038l-16.515 123.695c41.82-57.987 45.681-61.507 66.765-61.507 22.134 0 29.868 6.331 29.868 18.976 0 7.38-2.106 12.299-5.625 16.167-5.267-.348-10.54-.348-14.756-.348-7.38 0-11.588 1.76-32.33 30.213l23.893 43.226c1.76 2.81 3.513 5.273 7.388 5.273 3.157 0 8.437-.363 12.646-1.406 3.512 2.463 4.918 7.387 4.918 11.95 0 16.501-16.515 23.54-45.682 23.54zm-198.118.71c-40.053 0-66.416-17.584-66.416-62.202 0-52.013 31.628-86.808 86.102-86.808 50.946 0 68.872 25.307 68.872 62.91 0 53.073-32.332 86.1-88.558 86.1zm399.317-57.794c-8.276-11.532-24.527-7.468-28.299-15.007-1.934-3.868-.356-10.556 12.603-9.96 23.319 1.07 29.839-29.908 29.839-46.432 0-20.41-9.598-54.653-73.882-54.653-24.458 0-45.996 5.287-63.993 14.9-1.716.832-3.468 1.619-5.159 2.48-2.08 1.059-4.6.792-6.362-.739-9.307-8.086-23.836-14.124-46.548-14.124-4.823 0-9.243.264-13.364.832-3.896.538-7.207-2.714-6.687-6.613l2.533-19.01L301.8 143a5.928 5.928 0 00-2.268-5.49l-12.452-9.548c-15.724-12.057-35.41-13.857-45.742-13.857-35.409 0-55.777 18.936-60.528 56.273l-2.262 17.193c-.512 3.884-4.574 6.224-8.163 4.652-14.337-6.285-31.483-9.601-51.26-9.601C47.868 182.622 0 230.779 0 302.458c0 59.619 37.17 95.23 99.437 95.23 25.924 0 48.628-5.773 67.172-16.38 2.279-1.303 5.023-.85 6.906.976 9.674 9.393 23.685 14.694 40.757 14.694 15.837 0 27.4-1.54 36.387-4.857l10.46-3.858c1.773-.654 3.709-.37 5.308.64 7.933 5.008 17.977 8.075 31.129 8.075 24.335 0 41.21-4.652 52.907-11.437 1.814-1.055 3.954-1.103 5.804-.11 4.062 2.174 8.43 4.038 13.037 5.647 13.33 5.222 28.984 7.996 47.003 7.996 77.729 0 93.678-38.288 93.678-60.672 0-11.023-2.726-22.238-10.12-30.692-.234-.268-.577-.493-.829-.844"/></g></svg>