<svg xmlns="http://www.w3.org/2000/svg" viewBox="0 0 35.98 36"><path d="m19.8.25-.75 9.12a9.28 9.28 0 0 0-2.38.04l-.42-4.42a.24.24 0 0 1 .24-.26h.75L16.88.26c0-.14.1-.26.23-.26h2.45c.14 0 .25.12.23.26zM13.6.7c-.04-.13-.18-.21-.3-.16l-2.3.84a.23.23 0 0 0-.14.32l1.87 4.08-.7.26a.23.23 0 0 0-.14.32l1.91 4.01a8.57 8.57 0 0 1 2.23-.85L13.62.7zM7.97 3.24l5.3 7.46c-.68.44-1.29.96-1.8 1.56L8.28 9.14a.24.24 0 0 1 .01-.35l.58-.48-3.15-3.19a.23.23 0 0 1 .02-.35L7.62 3.2a.23.23 0 0 1 .34.04zM3.53 7.56c-.1-.08-.27-.04-.34.08L1.97 9.76a.24.24 0 0 0 .1.33l4.06 1.92-.38.65a.23.23 0 0 0 .11.33l4.04 1.85a8.8 8.8 0 0 1 1.16-2.08zM.54 13.32c.02-.14.16-.22.3-.19l8.84 2.31a8.76 8.76 0 0 0-.38 2.36l-4.43-.36a.23.23 0 0 1-.2-.28l.12-.74L.32 16c-.14-.01-.23-.14-.2-.28l.41-2.41zM.21 19.3c-.14.01-.23.14-.2.28l.42 2.41c.02.14.16.22.3.19l4.33-1.13.13.74c.02.14.16.22.3.19l4.27-1.18a8.67 8.67 0 0 1-.45-2.34l-9.1.84Zm1.42 6.34a.24.24 0 0 1 .1-.33L10 21.39c.31.74.73 1.43 1.23 2.05L7.6 26.02a.24.24 0 0 1-.34-.07l-.38-.66-3.69 2.55c-.1.08-.27.04-.34-.08l-1.23-2.12zm10.01-1.72-6.43 6.51c-.1.1-.09.26.02.35l1.88 1.57c.11.09.26.07.34-.04l2.6-3.66.58.49c.11.09.27.07.35-.05l2.52-3.66a8.99 8.99 0 0 1-1.85-1.51zm-1.27 10.45a.23.23 0 0 1-.13-.32l3.81-8.32c.7.36 1.46.63 2.25.78l-1.12 4.3a.24.24 0 0 1-.3.16l-.72-.26-1.19 4.33c-.04.13-.18.21-.3.16l-2.3-.84zm6.56-7.75-.74 9.12c0 .14.1.26.23.26h2.45c.14 0 .25-.12.23-.26l-.36-4.47h.75c.14 0 .25-.12.24-.26l-.42-4.42a8.2 8.2 0 0 1-2.38.03zm8.82-24.69a.23.23 0 0 0-.13-.32l-2.3-.84a.23.23 0 0 0-.3.16l-1.2 4.33-.7-.26a.25.25 0 0 0-.32.16l-1.12 4.3c.8.16 1.55.43 2.25.78zm5.02 3.63-6.43 6.51a8.73 8.73 0 0 0-1.85-1.51l2.52-3.66a.24.24 0 0 1 .35-.05l.58.49 2.6-3.66a.23.23 0 0 1 .34-.04l1.88 1.57c.11.09.11.25.02.35zm3.48 5.12a.23.23 0 0 0 .1-.33l-1.23-2.12a.25.25 0 0 0-.34-.08L29.1 10.7l-.38-.65c-.07-.12-.23-.16-.34-.07l-3.62 2.58c.5.62.91 1.31 1.23 2.05l8.26-3.92zm1.3 3.32.42 2.41a.24.24 0 0 1-.2.28l-9.12.85a8.6 8.6 0 0 0-.45-2.34l4.28-1.18c.13-.04.27.05.3.19l.12.74 4.34-1.13c.13-.03.27.05.3.19zm-.4 8.85c.12.03.26-.05.28-.19l.42-2.41a.24.24 0 0 0-.2-.28l-4.48-.42.13-.74a.24.24 0 0 0-.2-.28l-4.44-.36a8.76 8.76 0 0 1-.38 2.36l8.85 2.31zm-2.37 5.5a.25.25 0 0 1-.34.08l-7.53-5.2c.48-.63.87-1.33 1.16-2.08L30.11 23c.13.06.18.21.11.33l-.38.65 4.06 1.92c.12.06.17.21.1.33zm-10.07-3.07 5.3 7.46c.07.11.23.13.33.04l1.87-1.57a.24.24 0 0 0 .02-.35l-3.15-3.19.58-.48c.11-.09.11-.25.01-.35l-3.17-3.12a8.63 8.63 0 0 1-1.8 1.56zm-.05 10.16a.23.23 0 0 1-.3-.16l-2.43-8.82a8.57 8.57 0 0 0 2.23-.85l1.91 4.01c.06.13 0 .28-.13.32l-.7.26 1.86 4.08c.06.13 0 .27-.13.32l-2.3.84z"/></svg>