<svg xmlns="http://www.w3.org/2000/svg" width="66.78" height="66.78"><path d="M10.69 0S0 0 0 10.69V56.1s0 10.68 10.69 10.68H56.1s10.68 0 10.68-10.68V10.69S66.78 0 56.1 0Z" fill="#007858"/><path d="M22.22 37.92A1.13 1.13 0 0 1 21.1 39h-2.24a1.13 1.13 0 0 1-1.12-1.13V12.92a1.13 1.13 0 0 1 1.12-1.13h2.24a1.13 1.13 0 0 1 1.12 1.1v25Zm4.51.81V12a2.56 2.56 0 0 0-1.2-2.23c-.61-.35-1.3-.52-3.22-.53h-4.64c-1.94 0-2.63.18-3.24.53a2.5 2.5 0 0 0-1.19 2.14v.2a1.28 1.28 0 0 0 0 .19v26.24a1.28 1.28 0 0 0 0 .19v.11a2.54 2.54 0 0 0 1.2 2.23c.61.35 1.3.52 3.24.53h4.64c1.92 0 2.61-.18 3.22-.53a2.52 2.52 0 0 0 1.19-2.14ZM48.86 37.44v.37A1.15 1.15 0 0 1 47.71 39h-3.45V25.69h3.4a1.38 1.38 0 0 1 1.2 1.31v10.4Zm0-15.74a1.38 1.38 0 0 1-1.23 1.3h-3.34V11.84h3.45A1.15 1.15 0 0 1 48.86 13v8.7ZM53.47 39V28.45a4.08 4.08 0 0 0-4-4.07 4.07 4.07 0 0 0 4-4.06v-8.48a2.27 2.27 0 0 0-2.3-2.59H39.66V41.6h11.51a2.27 2.27 0 0 0 2.3-2.6M36.61 41.6h.98v-2.63h-3.12V9.21h-4.61V41.6H36.61zM47 57.57v-2.84l1.54-1.56 2.58 4.4h2.45l-3.73-5.73 3.54-3.66h-2.53L47 52.35v-4.17h-1.9v9.39Zm-10.73 0v-6.12l3.78 6.12H42v-9.39h-1.78v6.27l-3.85-6.27h-1.84v9.39Zm-10-3.71 1.27-3.49 1.3 3.49Zm2.3-5.68h-2L23 57.57h2l.77-2.13h3.73l.83 2.13h2.06Zm-11.47 5.3a6.51 6.51 0 0 1 1.68.13 1.16 1.16 0 0 1 .59.43 1.22 1.22 0 0 1 .21.72 1.16 1.16 0 0 1-.27.8 1.17 1.17 0 0 1-.69.37 8.15 8.15 0 0 1-1.3.06h-1.75v-2.51Zm-.44-3.73h1.62a1.1 1.1 0 0 1 .71.33 1 1 0 0 1 .24.7 1 1 0 0 1-.28.74 1.22 1.22 0 0 1-.76.33 12.49 12.49 0 0 1-1.38 0h-1.24v-2.1Zm-3 7.82h3.2q1.81 0 2.28-.06a2.79 2.79 0 0 0 1.28-.45 2.54 2.54 0 0 0 .81-1 2.8 2.8 0 0 0 .3-1.25 2.34 2.34 0 0 0-.46-1.42 2.52 2.52 0 0 0-1.32-.85 2.25 2.25 0 0 0 1-.82 2.17 2.17 0 0 0 .36-1.21 2.12 2.12 0 0 0-.29-1.1 2.39 2.39 0 0 0-.72-.79 2.72 2.72 0 0 0-1-.39 11.29 11.29 0 0 0-1.67-.09h-3.76ZM11.02 43.98h44.75v1.9H11.02z" fill="#fff"/></svg>