<svg xmlns="http://www.w3.org/2000/svg" xmlns:xlink="http://www.w3.org/1999/xlink"
    viewBox="0 0 50 40">
    <defs>
        <path id="c"
            d="M8 15.9A7.95 7.95 0 0 1 .01 7.96 7.95 7.95 0 0 1 8 .02c4.4 0 7.97 3.56 7.97 7.94a7.95 7.95 0 0 1-7.97 7.94Z" />
        <path id="reuse-0" fill="#FAE300" d="M.01 15.91h15.96V.02H.01z" mask="url(#d)" />
    </defs>
    <defs>
        <path id="a" d="M4.78 39.99H0L.06.02l39.79 39.92z" />
        <path id="i"
            d="M4.47.08C6.91.08 8.9 2.3 8.9 5.02c0 2.72-1.99 4.93-4.43 4.93-2.44 0-4.42-2.2-4.42-4.93C.05 2.29 2.03.08 4.47.08Zm-.02 8.4c1.46 0 2.65-1.54 2.65-3.43 0-1.89-1.19-3.43-2.65-3.43S1.8 3.16 1.8 5.05c0 1.9 1.19 3.43 2.65 3.43Z" />
        <path id="k" d="m.12.07 1.86.05.04 7.77 3.11-.04.3 1.7-5.32-.01z" />
        <path id="m"
            d="m4.18 4.3.03.02 3.7-.02v4.53c-2.55 1.54-4.63.82-4.63.82-2.62-.63-3-3.13-3-3.13-.6-2.53.37-4.21.37-4.21C1.59.45 3.19.19 3.19.19c2.2-.64 4.26.54 4.26.54l-.27 1.7C4.58.69 3 2.07 3 2.07c-1.26.91-1.1 3.06-1.1 3.06.1 1.88 1.06 2.6 1.06 2.6 1.44 1.04 3.36.18 3.36.18L6.3 5.8H4.43L4.18 4.3Z" />
        <use xlink:href="#c" />
        <use xlink:href="#c" id="e" />
        <use xlink:href="#c" id="g" />
    </defs>
    <g fill="none" fill-rule="evenodd">
        <g transform="translate(9.1)">
            <mask id="b" fill="#fff">
                <use xlink:href="#a" />
            </mask>
            <path fill="#E4002B" d="M0 39.99h39.85V.01H0z" mask="url(#b)" />
        </g>
        <g transform="translate(.16 16)">
            <mask id="d" fill="#fff">
                <use xlink:href="#c" />
            </mask>
            <use xlink:href="#reuse-0" mask="url(#d)" />
        </g>
        <g transform="translate(16.45 16)">
            <mask id="f" fill="#fff">
                <use xlink:href="#e" />
            </mask>
            <use xlink:href="#reuse-0" mask="url(#f)" />
        </g>
        <g transform="translate(32.73 16)">
            <mask id="h" fill="#fff">
                <use xlink:href="#g" />
            </mask>
            <use xlink:href="#reuse-0" mask="url(#h)" />
        </g>
        <g transform="translate(3.6 18.97)">
            <mask id="j" fill="#fff">
                <use xlink:href="#i" />
            </mask>
            <path fill="#003C71" d="M.05 9.95H8.9V.08H.05z" mask="url(#j)" />
        </g>
        <g transform="translate(21.95 19.2)">
            <mask id="l" fill="#fff">
                <use xlink:href="#k" />
            </mask>
            <path fill="#003C71" d="M.1 9.56h5.33V.07H.1z" mask="url(#l)" />
        </g>
        <g transform="translate(36.4 18.97)">
            <mask id="n" fill="#fff">
                <use xlink:href="#m" />
            </mask>
            <path fill="#003C71" d="M.07 9.83h7.85V0H.07z" mask="url(#n)" />
        </g>
    </g>
</svg>