<svg xmlns="http://www.w3.org/2000/svg" viewBox="0 50 500 400"><g id="a"><path fill="#ff69ad" d="M153.06 50.03a149.56 149.56 0 0 0-109.13 43.9c-58.58 58.58-58.58 153.56 0 212.14l100 100A149.53 149.53 0 0 0 250 450V88.2a149.47 149.47 0 0 0-96.94-38.17Z"/><path fill="#461036" d="M209.1 214.39a9.43 9.43 0 0 0-8.4 14.36c11.18 18.23 30.24 27.35 49.3 27.35v-18.36c-12.75 0-25.5-6.28-33.2-18.85a9.44 9.44 0 0 0-7.7-4.5z"/><path fill="#e34198" d="M179.25 212.01a58.97 58.97 0 1 0-117.93 0 58.97 58.97 0 0 0 117.93 0"/><circle cx="208.73" cy="176.64" r="17.45" fill="#461036"/></g><use href="#a" transform="matrix(-1 0 0 1 500 0)"/></svg>