<svg xmlns="http://www.w3.org/2000/svg" viewBox="0 50 500 400"><g transform="matrix(1.88679 0 0 -1.88679 250 450)"><path d="M0 0c-20.346 0-40.691 7.762-56.215 23.285l-53 53c-31.047 31.047-31.047 81.383 0 112.43 29.997 29.997 78 31.012 109.215 3.044 31.216 27.967 79.219 26.952 109.215-3.044 31.047-31.047 31.047-81.383 0-112.43l-53-53C40.692 7.762 20.346 0 0 0" style="fill:#ff69ad;fill-opacity:1;fill-rule:nonzero;stroke:none"/></g><g transform="matrix(1.88679 0 0 -1.88679 220.519 176.636)"><path d="M0 0a6.25 6.25 0 1 0-12.5 0A6.25 6.25 0 0 0 0 0" style="fill:#461036;fill-opacity:1;fill-rule:nonzero;stroke:none"/><path d="M0 0a6.25 6.25 0 1 0-12.5 0A6.25 6.25 0 0 0 0 0Z" style="fill:none;stroke:#461036;stroke-width:6;stroke-linecap:butt;stroke-linejoin:miter;stroke-miterlimit:10;stroke-dasharray:none;stroke-opacity:1"/></g><g transform="matrix(1.88679 0 0 -1.88679 303.066 176.636)"><path d="M0 0a6.25 6.25 0 1 0-12.5 0A6.25 6.25 0 0 0 0 0" style="fill:#461036;fill-opacity:1;fill-rule:nonzero;stroke:none"/><path d="M0 0a6.25 6.25 0 1 0-12.5 0A6.25 6.25 0 0 0 0 0Z" style="fill:none;stroke:#461036;stroke-width:6;stroke-linecap:butt;stroke-linejoin:miter;stroke-miterlimit:10;stroke-dasharray:none;stroke-opacity:1"/></g><g transform="matrix(1.88679 0 0 -1.88679 208.749 223.818)"><path d="M0 0c10.004-16.325 33.722-16.325 43.726 0" style="fill:none;stroke:#461036;stroke-width:10;stroke-linecap:round;stroke-linejoin:round;stroke-miterlimit:10;stroke-dasharray:none;stroke-opacity:1"/></g><g transform="matrix(1.88679 0 0 -1.88679 438.679 212.013)"><path d="M0 0c0 17.259-13.991 31.25-31.25 31.25S-62.5 17.259-62.5 0s13.991-31.25 31.25-31.25S0-17.259 0 0" style="fill:#e34198;fill-opacity:1;fill-rule:nonzero;stroke:none"/></g><g transform="matrix(1.88679 0 0 -1.88679 179.245 212.013)"><path d="M0 0c0 17.259-13.991 31.25-31.25 31.25S-62.5 17.259-62.5 0s13.991-31.25 31.25-31.25S0-17.259 0 0" style="fill:#e34198;fill-opacity:1;fill-rule:nonzero;stroke:none"/></g></svg>