<svg xmlns="http://www.w3.org/2000/svg" width="498.188" height="498.188"><path d="M212.84 497.691c-22.167-1.331-50.194-6.126-66.678-11.407-37.826-12.116-56.432-30.429-68.179-67.102-7.346-22.935-10.148-48.838-10.134-93.7.023-76.79 3.82-121.928 13.4-159.307 3.398-13.26 9.06-29.781 12.607-36.783 8.08-15.956 25.507-29.851 48.224-38.455 4.705-1.782 6.224-2.827 6.117-4.208-.078-1.01-4.188-10.837-9.132-21.837C125.35 34.384 118.63 15.2 120.873 12.958c3.03-3.03 27.036 16.127 69.966 55.835 10.637 9.838 11.725 10.584 14.5 9.941 4.25-.984 60.229-.693 70.817.368 4.849.486 9.001.585 9.227.22.226-.366-1.802-10.062-4.506-21.547-2.704-11.486-6.031-26.958-7.394-34.383-4.347-23.694-4.22-26.039 1.168-21.505 6.25 5.258 29.94 33.652 59.61 71.443l13.69 17.439 10.87 3.291c13.518 4.093 20.232 7.036 27.693 12.14 16.082 10.998 28.237 29.052 34.795 51.684 6.968 24.044 9.03 50.086 9.03 114.008 0 70.432-2.781 103.963-11.653 140.472-4.072 16.757-6.778 23.582-13.345 33.656-7.088 10.874-12.826 16.967-21.808 23.158-23.76 16.376-54.177 24.769-102.194 28.197-12.805.914-55.287 1.11-68.5.316z"/><path d="M294.224 173.304c5.48-4.31 7.263-13.032 4.175-20.422-1.605-3.842-6.743-7.483-10.56-7.483-11.941 0-16.505 19.944-6.385 27.905 3.489 2.744 9.282 2.744 12.77 0zM178.224 173.304c3.876-3.05 5.616-7.114 5.612-13.112-.01-14.724-15.63-20.278-21.987-7.82-3.633 7.122-1.95 16.562 3.752 21.047 3.341 2.628 9.203 2.575 12.623-.115zM284.84 429.38c43.474-6.481 59.02-24.273 62.304-71.31l.477-6.822-5.718-7.178c-14.041-17.626-28.13-31.595-31.919-31.646-1.295-.018-4.22 1.24-6.5 2.795-2.28 1.554-7.875 5.38-12.433 8.5-4.56 3.12-8.965 5.673-9.79 5.673-2.836 0-8.933-3.815-16.672-10.433-7.388-6.317-9.825-9.602-6-8.089 4.252 1.683 16.885 4.522 20.12 4.522 2.955 0 4.278-.794 7.908-4.75 2.397-2.613 7.63-9.475 11.629-15.25 7.797-11.261 10.663-13.701 14.857-12.649 3.264.82 13.375 7.692 25.463 17.309 5.074 4.037 9.704 7.34 10.287 7.34 2.518 0-.575-94.137-3.638-110.755l-.6-3.255-94.638.255-94.638.255-1.176 7.104c-4.38 26.456-6.946 110.808-4.394 144.463 3.06 40.353 8.008 58.924 18.253 68.507 9.996 9.35 24.296 13.86 53.317 16.818 7.637.778 56.041-.292 63.5-1.404z" fill="#fff"/></svg>