<svg xmlns="http://www.w3.org/2000/svg" viewBox="35.98 139.2 648.03 430.85"><defs><radialGradient id="b" cx="0" cy="0" r="1" fx="0" fy="0" gradientTransform="rotate(50.153 -220.11 166.388)scale(204.2385 338.7675)" href="#a"><stop offset="0" stop-color="#4894fe"/><stop offset=".695" stop-color="#0934b3"/></radialGradient><radialGradient id="c" cx="0" cy="0" r="1" fx="0" fy="0" gradientTransform="rotate(130.923 299.935 133.077)scale(878.24553 650.787)" href="#a"><stop offset=".165" stop-color="#23c0fe"/><stop offset=".534" stop-color="#1c91ff"/></radialGradient><radialGradient id="f" cx="0" cy="0" r="1" fx="0" fy="0" gradientTransform="rotate(220.014 134.364 87.21)scale(178.5555 408.75149)" href="#a"><stop offset="0" stop-color="#fff" stop-opacity=".4"/><stop offset=".661" stop-color="#adc0ff" stop-opacity="0"/></radialGradient><radialGradient id="g" cx="0" cy="0" r="1" fx="0" fy="0" gradientTransform="rotate(220.236 270.358 156.97)scale(201.258 305.6535)" href="#a"><stop offset="0" stop-color="#033acc"/><stop offset="1" stop-color="#368eff" stop-opacity="0"/></radialGradient><radialGradient id="h" cx="0" cy="0" r="1" fx="0" fy="0" gradientTransform="rotate(66.571 -10.959 191.792)scale(441.60599 476.739)" href="#a"><stop offset=".593" stop-color="#3464e3" stop-opacity="0"/><stop offset="1" stop-color="#033acc" stop-opacity=".6"/></radialGradient><radialGradient id="i" cx="0" cy="0" r="1" fx="0" fy="0" gradientTransform="rotate(135 286.76 141.91)scale(649.59 1017.68852)" href="#a"><stop offset="0" stop-color="#4bfde8" stop-opacity=".898"/><stop offset=".544" stop-color="#4bfde8" stop-opacity="0"/></radialGradient><radialGradient id="l" cx="0" cy="0" r="1" fx="0" fy="0" gradientTransform="rotate(21.632 -656.352 929.652)scale(294.354 557.4075)" href="#a"><stop offset="0" stop-color="#fff" stop-opacity=".4"/><stop offset=".785" stop-color="#fff" stop-opacity="0"/></radialGradient><radialGradient id="m" cx="0" cy="0" r="1" fx="0" fy="0" gradientTransform="rotate(139.243 291.105 250.031)scale(403.551 404.919)" href="#a"><stop offset="0" stop-color="#4bfde8" stop-opacity=".898"/><stop offset=".585" stop-color="#4bfde8" stop-opacity="0"/></radialGradient><linearGradient id="j" x1="449.996" x2="449.996" y1="569.735" y2="275.973" href="#a"><stop offset="0" stop-color="#0086ff"/><stop offset=".49" stop-color="#0bf"/></linearGradient><linearGradient id="a" gradientUnits="userSpaceOnUse"/><path id="d" d="M192.172 238.813 98.914 390.859c-17.984 28.262-65.609 16.254-61.664-24.25a181 181 0 0 0-.895 9.938c-6.512 105.387 77.043 192.906 181.02 192.906 114.594 0 387.895-142.781 360.234-285.844-29.152-84.09-111.086-144.406-203.945-144.406s-152.367 53.496-181.492 99.609zm0 0"/><path id="k" d="m215.699 569.496 320.035.539c84.227 0 148.266-68.762 148.266-149.004s-65.328-148.586-148.266-148.586-130.707 62.047-166.582 129.781c-42.035 79.367-95.664 166.32-153.453 167.27m0 0"/></defs><path fill="url(#b)" d="M215.078 205.09c-99.066.004-173.121 81.098-178.695 171.438 3.453 19.465 14.793 57.902 32.559 55.93 22.203-2.469 78.125 0 125.824-86.352 34.844-63.078 106.52-141.02 20.313-141.016zm0 0"/><use fill="url(#c)" href="#d"/><use fill="url(#f)" href="#d"/><use fill="url(#g)" href="#d"/><use fill="url(#h)" href="#d"/><use fill="url(#i)" href="#d"/><use fill="url(#j)" href="#k"/><use fill="url(#l)" href="#k"/><use fill="url(#m)" href="#k"/></svg>