<svg viewBox="0 0 90 90" xmlns="http://www.w3.org/2000/svg"><path d="M44.917 0C20.087.05-.14 20.485.001 45.375c.132 23.043 17.565 42.283 40.432 44.622a.514.514 0 0 0 .523-.309.529.529 0 0 0 .045-.209V45.116h-3.498a.516.516 0 0 1-.52-.518v-7a.519.519 0 0 1 .52-.521h10.975a.516.516 0 0 1 .517.52V89.48a.519.519 0 0 0 .569.518c23.857-2.439 41.615-23.205 40.375-47.214C88.699 18.774 68.896-.042 44.915.003L44.917 0Zm12.79 79.947a.516.516 0 0 1-.69-.49v-7.404a.776.776 0 0 1 .443-.703c12.31-5.873 18.872-19.552 15.766-32.858C70.12 25.185 58.183 15.847 44.552 16.06c-15.394.237-28.026 12.683-28.517 28.11-.365 11.544 6.117 22.21 16.516 27.18a.777.777 0 0 1 .445.703v7.405a.52.52 0 0 1-.692.49C17.612 74.54 7.893 60.462 8.021 44.773 8.196 24.632 24.614 8.187 44.71 8.04c20.534-.167 37.28 16.53 37.28 37.076 0 15.977-10.122 29.625-24.284 34.831Z" fill="#E54B4D"/></svg>