<svg xmlns="http://www.w3.org/2000/svg" viewBox="0 0 90 90"><path fill="#E54B4D" d="M53.51 72.45a25.34 25.34 0 0017.03-23.83c0-13.97-11.46-25.33-25.54-25.33-14.08 0-25.54 11.36-25.54 25.33 0 11.88 8.3 21.84 19.46 24.56v2.48a27.77 27.77 0 01-21.9-27.04c0-15.32 12.53-27.74 27.98-27.74 15.45 0 27.97 12.42 27.97 27.74a27.75 27.75 0 01-19.46 26.4v-2.57zM45 35.35a13.34 13.34 0 00-13.38 13.27c0 5.13 2.98 9.57 7.3 11.76v2.69a15.66 15.66 0 01-9.73-14.45c0-8.66 7.08-15.68 15.81-15.68s15.81 7.02 15.81 15.68a15.6 15.6 0 01-7.3 13.17v-3a13.15 13.15 0 004.87-10.17c0-7.32-6-13.27-13.38-13.27zM0 48.62A44.46 44.46 0 0020.48 86a46.27 46.27 0 018.12-4.13 47.52 47.52 0 0110.32-2.68c.8-.08 1.61-.18 2.43-.24V52.24h-2.43V47.4h12.16V79.18c6.73.94 13 3.3 18.44 6.82A44.44 44.44 0 0090 48.62C90 23.98 69.85 4 45 4S0 23.98 0 48.62z"/></svg>