<svg xmlns="http://www.w3.org/2000/svg" viewBox="0 0 273.2 61.3"><path fill="red" d="M1.5 1.24s18.3 7.6 22.5 28.1c0 0 2.1 8.6 9.3 8.6 7.2 0 8.6-5.9 8.6-8.6 0-2.7-1.2-8.5-7.7-8.5 0 0-4.5-.1-8.2 2.9l-4-10s5.3-4 12.9-4c7.6 0 19 4.8 18 17.9-1 13.1-11.7 21.2-22.5 21.2s-15.9-8.6-15.9-8.6 6.3 0 6.6-.6c.4-.6-1.6-3.2-2.7-5.9-1.2-2.7-4.9-16.8-18.4-22.5.1.1.2-4.3 1.5-10M0 13.74c0 2.7.2 5.2.7 7.5 26.1 19.5 12.3 3.8-.7-7.5m9.4 22.6c1 .8 2 1.6 3.1 2.3 15.5 1.2 3.4-1.3-3.1-2.3M192.13 0c-2.15 0-3.63.34-3.63.34l-60.6 14 .76 3.9H117.9v29.9h12.4V25.42c2.68 11.78 8.1 35.32 8.1 35.32l10.9-2.5c-.1-.5-.2-1-.2-1.5 0-3.8 3.1-6.9 6.9-6.9 3.3 0 6 2.2 6.7 5.3l26.2-6c-.1-.5-.1-.9-.1-1.4.04-8.1 11.57-9.54 13.6-1.7l11.9-2.7-7.1-31.1C204.8 1.65 196.86 0 192.13 0ZM124.1 4.14c-3.5 0-6.3 2.4-6.3 5.4 0 3 2.8 5.4 6.3 5.4s6.3-2.4 6.3-5.4c0-3-2.8-5.4-6.3-5.4zm73.49 7.55c1.29 0 2.51.2 3.91.65l-1.1 5.8c-.8-.4-2.2-.7-3.4-.5-1 .2-1.4.9-1.2 1.5.2.8 1 1.4 2.5 1.8 4.8 1 6.2 2.8 6.8 5.4.9 4.7-1.9 8.7-8.1 10-3.1.7-6.2.5-7.9-.1l1.1-6.5c1 .5 2.7.8 4 .5.8-.2 1.3-.7 1.2-1.4-.2-.7-.6-1.3-2.5-1.6-4.3-.8-5.7-2.9-6.3-5.3-1-4.4 1.7-8.6 6.7-9.7 1.65-.35 3-.55 4.29-.55zm-13.79 3.15 4.7 21.5c-2.2 1.8-5.7 3.2-10.6 4.2-7.2 1.6-11.5.4-12.9-6l-3.3-14.8 9.5-2.1 3.4 15.6c.1.6.7 1.3 2 1 .6-.1 1-.3 1.4-.5l-3.7-16.8zm-33.26.67c.46-.02.9-.02 1.32 0 5.07.19 7.79 2.68 8.54 6.13.8 3.4-1.5 6-3.4 7.1v.1c2.7.4 6.1 2.3 6.9 5.9 1.2 5.6-2.6 9.5-11.1 11.4-4.7 1-8.3 1.2-11 .6l-5.8-26.5c2.1-1.6 5.5-3.1 10-4.1a25.5 25.5 0 0 1 4.54-.63zM68.7 17.64c-5.8 0-10.8 1-14.1 2.3v28.2H67v-22.7c2.04-.53 4.36.44 4.4 2.4v20.3l12.4-.1v-20.4c0-6.5-4.3-10-15.1-10zm31.7 0c-5.8 0-10.8 1-14.1 2.3v28.2h12.4v-22.7c2.04-.53 4.36.44 4.4 2.4v20.3l12.4-.1v-20.4c0-6.5-4.3-10-15.1-10zm47.67 3.77c-.24.03-.5.07-.77.13-.6.1-.8.2-1.1.4l1.5 6.7.7-.1c2.7-.4 3.3-1.8 2.7-4.3-.44-2.01-1.33-2.95-3.03-2.82zM1.7 24.84c.7 2 1.5 3.9 2.6 5.6 24 8.2 8.7-.8-2.6-5.6zm226.6.4c-6 0-8.9 5.6-8.9 11.6 0 6.1 2.8 11.6 8.9 11.6 2.2 0 3.8-.5 4.9-1.4l-1.2-3.4c-.7.4-1.4.7-2.6.7-3.3 0-4.6-3.8-4.6-7.6s1.1-7.7 4.6-7.7c1.3 0 2.1.3 2.7.7l1.1-3.2c-1.1-.8-2.7-1.3-4.9-1.3zm12.6 0c-6.3 0-8.8 5.2-8.8 11.6 0 6.4 2.5 11.6 8.8 11.6 6.3 0 8.8-5.2 8.8-11.6 0-6.4-2.5-11.6-8.8-11.6zm11.1.3-2.4 22.5h4.4l1.3-15.8h.1l4.5 15.8h2.7l4.5-15.8h.1l1.2 15.8h4.8l-2.4-22.5h-5.1l-3.7 12.6-.6 2.5h-.1l-.6-2.5-3.5-12.6zm-11.1 3.2c2.8 0 3.4 4 3.4 7.9 0 3.9-.5 7.9-3.4 7.9s-3.4-4-3.4-7.9c0-3.8.5-7.9 3.4-7.9zM5.2 31.84c.8 1.1 1.7 2.2 2.7 3.2 19 3.7 7.3-.6-2.7-3.2zm146 1.1a4.06 4.06 0 0 0-.77 0 8.2 8.2 0 0 0-1.03.21l-.7.19 1.6 7.1c.2 0 .6 0 1.2-.1 2.5-.5 3-1.7 2.5-4.2-.46-1.76-1.16-3.05-2.8-3.2zm5 19a4.7 4.7 0 1 0-.01 9.4 4.7 4.7 0 0 0 .01-9.4m39.6-8.9a4.7 4.7 0 1 0-.01 9.4 4.7 4.7 0 0 0 .01-9.4m21.6 5.6c-1.3 0-2.4-1.1-2.4-2.4 0-1.3 1.1-2.4 2.4-2.4 1.3 0 2.4 1.1 2.4 2.4 0 1.3-1 2.4-2.4 2.4"/></svg>