<svg xmlns="http://www.w3.org/2000/svg" width="48.027" height="48.027" fill="none"><path d="M14.284 23.349l3.522 2.023v-4.566l9.586-5.606-3.465-2.138-9.643 5.663z" fill="#3b4550"/><path d="M23.927 0l7.969 4.624L10.935 17.05v10.692l-7.622-4.45v-11.27z" fill="#64bc4f"/><path d="M29.47 16.414l-3.522 2.023 4.042 2.37-.058 10.807 3.523-2.023V18.726z" fill="#3b4550"/><path d="M44.715 35.89l-7.969 4.74V16.876l-9.643-5.664 8.084-4.681 9.528 5.548z" fill="#64bc4f"/><path d="M27.911 32.885v-3.93l-4.042 2.37-9.585-5.606v3.93l9.643 5.606z" fill="#3b4550"/><path d="M3.313 36.064v-8.785l20.614 11.79 9.47-5.664.058 9.132-9.297 5.49z" fill="#64bc4f"/></svg>