<svg xmlns="http://www.w3.org/2000/svg" fill="none" viewBox="0 0 64 64"><path fill="#012fff" d="M32 0a32 32 0 1 0 0 64 32 32 0 0 0 0-64Z"/><path fill="#fff" d="m40.8 24.4 3.5-2.3 3.5 2.4-1.2-4 3.4-2.6-4.2-.2-1.4-4-1.4 4h-4.3l3.4 2.7zm-18.9-3.3c-6.2 0-11.8 4.6-11.8 12 0 7.3 5.6 11.8 11.8 11.8C28 45 33.6 40.4 33.6 33c0-7.3-5.5-11.9-11.7-11.9zm0 19.5c-3.5 0-7.1-2.4-7.1-7.6 0-5.1 3.6-7.6 7-7.6 3.6 0 7.2 2.5 7.2 7.6 0 5.2-3.6 7.6-7.1 7.6zm24-12.4c-1.7 0-3.6.7-4.6 2.4v-2h-4.1v15.8h4.2v-9c0-2 1.1-3.4 3-3.4 2 0 3 1.4 3 3.2v9.2h4.2v-10c0-3.4-1.8-6.2-5.7-6.2z"/></svg>