<svg xmlns="http://www.w3.org/2000/svg" width="134.314" height="134.313" viewBox="0 0 35.537 35.537"><path d="M35.537 17.769c0 9.813-7.955 17.768-17.768 17.768C7.955 35.537 0 27.582 0 17.769 0 7.955 7.955 0 17.769 0c9.813 0 17.768 7.955 17.768 17.769" fill="#003978" fill-rule="evenodd"/><path d="M15.742 17.639v-.044c0-2.646-1.93-4.85-4.648-4.85-2.719 0-4.604 2.16-4.604 4.805v.045c0 2.644 1.93 4.849 4.648 4.849 2.719 0 4.604-2.16 4.604-4.805m-12.782 0v-.044c0-4.388 3.442-7.98 8.178-7.98 4.735 0 8.134 3.549 8.134 7.935v.045c0 4.386-3.442 7.98-8.178 7.98-4.736 0-8.134-3.55-8.134-7.936M20.654 13.494h3.332v1.676c.767-.992 1.754-1.896 3.443-1.896 2.52 0 3.99 1.675 3.99 4.387v7.649h-3.332v-6.591c0-1.587-.746-2.402-2.018-2.402-1.272 0-2.083.815-2.083 2.402v6.59h-3.332zM27.789 12.499l-2.293-1.61-2.324 1.563.823-2.673-2.207-1.724 2.802-.044.96-2.629.908 2.647 2.8.1-2.24 1.68z" fill="#fff"/><g><path d="M17.697 34.201c-9.021 0-16.36-7.333-16.36-16.347 0-9.015 7.339-16.348 16.36-16.348 9.02 0 16.36 7.333 16.36 16.348 0 9.014-7.34 16.347-16.36 16.347m0 .329c9.202 0 16.688-7.481 16.688-16.676 0-9.196-7.486-16.676-16.688-16.676-9.203 0-16.689 7.48-16.689 16.676 0 9.195 7.486 16.676 16.689 16.676" fill="#fff"/></g></svg>