<svg xmlns="http://www.w3.org/2000/svg" viewBox="0 0 90 90"><path fill="#151311" d="M90 34.31c0 15.5-3.71 30.2-14.85 30.2-3.13 0-6.45-2.4-9.96-7.22a.3.3 0 00-.56.18v24.3c0 .68-.55 1.23-1.24 1.23H49.8c-.7 0-1.24-.55-1.24-1.24V9.05c0-.69.55-1.24 1.23-1.24H63.4c.69 0 1.24.55 1.24 1.24v5.78c.2-.06.22-.13.25-.19 1.1-2.5 2.13-4.18 3.06-5.04C75.15 2.96 90 8.28 90 34.31zm-20.08-9.86c-.75 0-1.2.3-2 1.65-1.37 2.31-2.3 6.1-2.33 10.21-.04 4.08.8 7.77 2.1 9.97.75 1.28 1.22 1.59 2.23 1.59 1 0 1.48-.3 2.23-1.59 1.3-2.2 2.13-5.89 2.1-9.97-.04-4.11-.97-7.9-2.34-10.21-.8-1.35-1.25-1.65-2-1.65z"/><path fill="#BA1425" d="M21.32 7.2c27.84 0 29 57.31 0 57.31s-27.84-57.32 0-57.32zm0 16.02c-.9 0-1.44.32-2.41 1.77-1.66 2.5-2.78 6.59-2.82 11.02-.05 4.4.97 8.39 2.53 10.76.91 1.38 1.48 1.72 2.7 1.72 1.22 0 1.79-.34 2.7-1.72 1.56-2.37 2.58-6.35 2.53-10.76-.04-4.43-1.16-8.52-2.82-11.02-.97-1.45-1.5-1.77-2.4-1.77z"/></svg>