<svg xmlns="http://www.w3.org/2000/svg" xml:space="preserve" width="72" height="72"><path d="M71.237 30.2h-36.6c-4.1 0-7.6 3-8.1 7.1-.6 5.5-4.8 8.7-10.1 8.9-5.6 0-10.1-4.6-10.2-10.1 0-5.6 4.6-10.2 10.1-10.2 3.6 0 6.8 1.9 8.6 4.8.1.2.5.2.6 0 1.1-1.3 2.4-2.3 3.9-3 .2-.1.3-.4.2-.6-2.9-4.3-7.7-7.1-13.3-7.1-8.8 0-15.9 7.1-15.9 16 0 8.8 7.2 15.9 16 15.9 8.2-.3 14.9-5.6 15.8-14 .1-1.1 1.1-1.9 2.3-1.9h31.2v4.4c0 2.3-.7 5.8-3.6 5.8-2.9 0-3.6-3.5-3.6-5.8v-1.1c0-.2-.2-.4-.4-.4h-5c-.2 0-.4.2-.4.4v1.1c0 2.3-.7 5.8-3.6 5.8-2.9 0-3.6-3.5-3.6-5.8v-1.1c0-.2-.2-.4-.4-.4h-5c-.2 0-.4.2-.4.4v1.1c0 5.7 3.1 11.6 9.4 11.6 2.6 0 4.9-1 6.5-2.9 1.7 1.9 3.9 2.9 6.5 2.9 6.3 0 9.4-5.9 9.4-11.6v-9.8c.1-.2-.1-.4-.3-.4" fill="#ff0049"/></svg>