<svg xmlns="http://www.w3.org/2000/svg" viewBox="0 0 32 32"><path d="M29.153 6.888A15.926 15.926 0 0 1 32 16c0 3.387-1.052 6.527-2.847 9.113l-4.144-4.145A10.24 10.24 0 0 0 26.286 16c0-1.801-.463-3.495-1.277-4.967z" fill="#8fc7ff"/><path d="M25.113 2.847 20.968 6.99A10.239 10.239 0 0 0 16 5.714C10.32 5.714 5.714 10.32 5.714 16S10.319 26.286 16 26.286c1.802 0 3.495-.463 4.968-1.277l4.145 4.144A15.927 15.927 0 0 1 16 32C7.164 32 0 24.837 0 16 0 7.164 7.164 0 16 0a15.93 15.93 0 0 1 9.113 2.847z" fill="#297eff"/></svg>
