<svg xmlns="http://www.w3.org/2000/svg" width="163.879" height="163.879"><g fill="#f78e1e"><path d="M16.355 65.856h131.168v32.165H16.355z"/><path d="M6.542 49.501C2.944 49.501 0 52.445 0 56.043v51.792c0 3.598 2.944 6.542 6.542 6.542h150.795c3.598 0 6.542-2.944 6.542-6.542V56.043c0-3.598-2.944-6.542-6.542-6.542z"/></g><g fill="#fff"><path d="M15.276 72.52c0-4.508 2.652-8.176 8.397-8.176s8.397 3.668 8.397 8.176v16.44c0 4.51-2.651 8.177-8.397 8.177s-8.397-3.667-8.397-8.177zm5.481 16.31c0 2.385.708 3.534 2.917 3.534 2.209 0 2.917-1.149 2.917-3.535V72.652c0-2.387-.708-3.536-2.917-3.536-2.209 0-2.917 1.15-2.917 3.536zM40.33 72.918v2.475h.089c1.635-2.077 2.829-2.917 5.304-2.917 3.094 0 5.038 2.3 5.038 6.63V90.51c0 4.331-1.944 6.628-5.038 6.628-2.166 0-3.182-.884-5.126-2.476v9.55h-4.951V72.917zm.266 18.915c.972.708 1.856 1.238 2.829 1.238 1.325 0 2.386-.707 2.386-3.845v-8.84c0-3.138-1.061-3.845-2.386-3.845-.973 0-1.857.53-2.829 1.238zM69.532 85.734H59.1v3.447c0 2.741.973 3.89 2.74 3.89 1.768 0 2.741-1.148 2.741-3.89v-.53h4.951c-.089 5.04-2.166 8.485-7.691 8.485-5.656 0-7.689-3.623-7.689-8.839v-6.983c0-5.215 2.033-8.84 7.689-8.84 5.658 0 7.691 3.625 7.691 8.84zm-4.951-4.066V80.43c0-2.739-.973-3.889-2.741-3.889-1.767 0-2.74 1.15-2.74 3.89v1.237zM72.695 96.695V72.918h4.685v2.386c2.078-1.768 3.139-2.829 6.011-2.829 2.608 0 4.155 1.901 4.155 4.995v19.225h-4.95v-18.43c0-1.194-.707-1.724-1.768-1.724-1.06 0-2.033.663-3.182 1.503v18.651zM91.241 64.786h8.132c5.657 0 8.664 3.094 8.664 9.635v12.64c0 6.541-3.006 9.635-8.664 9.635h-8.132zm5.48 27.402h1.9c2.917 0 3.934-1.104 3.934-4.464V73.757c0-3.359-1.016-4.464-3.934-4.464h-1.9zM111.603 96.695v-31.91h5.083l6.674 18.252h.088v-18.25h4.95v31.91h-4.773l-6.984-19.934h-.087v19.933h-4.951zM142.934 72.325c-.221-2.74-1.679-3.536-2.916-3.536-1.769 0-2.741 1.15-2.741 3.138 0 5.437 11.14 8.044 11.14 16.707 0 5.26-3.537 8.177-8.664 8.177-5.083 0-7.999-4.066-8.221-8.84l5.216-.75c.222 3.225 1.502 4.816 3.271 4.816 1.899 0 3.182-1.017 3.182-2.917 0-6.32-11.139-8-11.139-17.148 0-5.083 3.096-7.955 8.487-7.955 4.464 0 7.116 3.226 7.602 7.734z"/></g></svg>