<svg xmlns="http://www.w3.org/2000/svg" viewBox="0 0 299 299"><path fill="#E7704D" d="M147.1 232.83H64.8c-7.9 0-11.8-3.5-11.7-10.3.1-6 3.8-9.6 10.3-9.6 12.6-.1 25.2 0 37.8-.1 7.2 0 11.1-3.3 11.2-9.2.1-6.6-3.8-10.1-11.3-10.1H44.4c-7.1 0-11.3-3.6-11.3-9.7 0-6.2 3.9-9.7 11.2-9.8 6.7-.2 10.9-3.9 10.9-9.7 0-6-3.9-9.6-10.9-9.6-11.1-.1-22.3 0-33.4 0-7.2 0-11-3.6-10.9-10 .1-6.1 3.8-9.6 10.9-9.5 4.1.1 5.4-.7 5-5.3-4-47.7 13.5-85.5 53.7-112 21.2-14 45-19.8 70.5-17.4 49.5 4.7 82.9 30.9 101 76.7 6.4 16.2 8.4 33.4 6.2 50.9-.9 7-.8 7.1 6.2 7h19.9c7 .1 10.5 3.4 10.5 9.7 0 6.3-3.7 9.8-10.5 9.8h-93.5c-4.3 0-8.7-.3-11.5 4.4-3.9 6.5 0 14.4 7.5 15 1.1.1 2.3 0 3.4 0 6.3.1 10.2 4 10.2 9.9-.1 5.8-4.1 9.6-10.4 9.7-3.4.1-6.8-.1-10.2 0-5.8.2-9.9 4.2-9.9 9.6 0 5.8 3.9 9.6 10.3 9.7 20.3.1 40.7.1 61 0 4.7 0 8.7 1.3 10.7 5.9 3.1 6.8-1.6 13.9-9.5 14.1-11.6.2-23.2 0-34.9 0-16.6-.1-33.1-.1-49.5-.1z"/><path fill="#E27353" d="M278.8 173.93c3.4 0 6.8-.1 10.2 0 5.3.1 9.7 4.4 9.8 9.3.1 5.6-3.9 10.1-9.4 10.2-7.3.2-14.5.2-21.8 0-5.3-.2-8.7-4.1-8.8-9.5-.1-5.7 3.3-9.6 9-9.9 3.6-.2 7.3 0 11-.1 0 .1 0 0 0 0zm-55.8 19.5c-3.7 0-7.4.2-11.1 0-5.2-.3-8.7-4.3-8.7-9.6 0-5.5 3.4-9.5 8.6-9.7 7.4-.2 14.8-.2 22.2 0 5.4.1 9.2 4.5 9 9.9-.1 5.3-3.8 9.2-9 9.5-3.6.1-7.3 0-11-.1 0 .1 0 .1 0 0z"/></svg>
