<svg xmlns="http://www.w3.org/2000/svg" xmlns:xlink="http://www.w3.org/1999/xlink" height="256" width="256" xmlns:v="https://vecta.io/nano"><style><![CDATA[.B{fill:#ceeeab}.C{opacity:.387}.D{stroke-linejoin:round}.E{stroke-linecap:round}.F{fill:#2d3335}.G{opacity:.039}.H{fill-opacity:.476}.I{fill:#d0e9f2}.J{font-family:Monospace}]]></style><defs><linearGradient id="A" xlink:href="#AM"><stop stop-color="#2d3335" offset="0"/><stop stop-color="#4c464a" offset=".5"/><stop stop-color="#384042" offset="1"/></linearGradient><linearGradient id="B" xlink:href="#AM"><stop offset="0"/><stop stop-opacity="0" offset="1"/></linearGradient><linearGradient id="C" y2="-179.97" xlink:href="#B" x2="9" y1="-94.672" x1="94.25"/><linearGradient id="D" y2="-30.438" xlink:href="#B" x2="35.75" y1="-114.44" x1="50.75"/><linearGradient id="E" y2="-74.625" xlink:href="#B" x2="115.25" y1="-163.12" x1="77.625"/><linearGradient id="F" y2="7.063" xlink:href="#B" x2="125.72" y1="-50.438" x1="56.5"/><linearGradient id="G" y2="-146.8" xlink:href="#B" x2="180.75" y1="-163.3" x1="35"/><linearGradient id="H" y2="-41.609" xlink:href="#B" x2="179" y1="-141.11" x1="57"/><linearGradient id="I" y2="39.75" xlink:href="#B" x2="208.25" y1="-26.5" x1="156"/><linearGradient id="J" y2="-77.297" xlink:href="#B" x2="235" y1="-169.3" x1="142.75"/><linearGradient id="K" y2="-113.72" xlink:href="#L" x2="166.5" y1="-161.36" x1="214.25"/><linearGradient id="L" xlink:href="#AM"><stop stop-color="#fff" offset="0"/><stop stop-color="#fff" stop-opacity="0" offset="1"/></linearGradient><linearGradient id="M" y2="-62.469" xlink:href="#L" x2="57.656" y1="-126.5" x1="53.25"/><linearGradient id="N" y2="-17.125" xlink:href="#L" x2="75.719" y1="6.625" x1="39.5"/><linearGradient id="O" y2="-121.44" xlink:href="#L" x2="85.312" y1="-162.34" x1="102"/><linearGradient id="P" y2="-14.75" xlink:href="#L" x2="63.5" y1="-78.094" x1="117.75"/><linearGradient id="Q" y2="-60.75" xlink:href="#L" x2="133.94" y1="-125.12" x1="180.69"/><linearGradient id="R" y2="33.375" xlink:href="#L" x2="130.22" y1="-23.5" x1="170.75"/><linearGradient id="S" y2="-5.656" xlink:href="#L" y1="-76" x2="181.75" x1="213.5"/><linearGradient id="T" y2="-223.25" xlink:href="#B" x2="9" y1="62.064" x1="210.17"/><linearGradient id="U" y2="150.38" xlink:href="#A" x2="-87" y1="150.38" x1="-77"/><linearGradient id="V" y2="143.36" xlink:href="#A" x2="-79.12" y1="134.36" x1="-82"/><linearGradient id="W" y2="179.508" y1="179.508" x2="-92" x1="-72" xlink:href="#AM"><stop stop-color="#2d3335" offset="0"/><stop stop-color="#4c464a" offset=".5"/><stop stop-color="#384042" offset="1"/></linearGradient><linearGradient id="X" y2="186.5" x2="-74" y1="186.5" x1="-90" xlink:href="#AM"><stop stop-color="#f9e295" offset="0"/><stop stop-color="#f7dd84" offset=".125"/><stop stop-color="#fff" offset=".206"/><stop stop-color="#f4ce51" offset=".301"/><stop stop-color="#f9e7aa" offset=".341"/><stop stop-color="#efbb0e" offset="1"/></linearGradient><linearGradient id="Y" y2="253.5" y1="253.5" x2="-74" x1="-90" xlink:href="#AM"><stop stop-color="#f9e295" offset="0"/><stop stop-color="#f7dd84" offset=".125"/><stop stop-color="#fff" offset=".206"/><stop stop-color="#f4ce51" offset=".301"/><stop stop-color="#f9e7aa" offset=".341"/><stop stop-color="#efbb0e" offset="1"/></linearGradient><linearGradient id="Z" y2="258.211" x2="17.286" y1="242.463" x1="1.538" xlink:href="#AM"><stop stop-color="#f9e295" offset="0"/><stop stop-color="#f7dd84" offset=".125"/><stop stop-color="#fff" offset=".206"/><stop stop-color="#f4ce51" offset=".301"/><stop stop-color="#f9e7aa" offset=".341"/><stop stop-color="#efbb0e" offset="1"/></linearGradient><linearGradient id="a" y2="150.38" x2="133" gradientTransform="rotate(-135 332.789 -39.72) scale(2.7839 -2.4637)" y1="150.38" x1="123" xlink:href="#AM"><stop stop-color="#2d3335" offset="0"/><stop stop-color="#4c464a" offset=".5"/><stop stop-color="#384042" offset="1"/></linearGradient><linearGradient id="b" y2="192.267" x2="83.234" y1="176.519" x1="67.486" xlink:href="#AM"><stop stop-color="#f9e295" offset="0"/><stop stop-color="#f7dd84" offset=".125"/><stop stop-color="#fff" offset=".206"/><stop stop-color="#f4ce51" offset=".301"/><stop stop-color="#f9e7aa" offset=".341"/><stop stop-color="#efbb0e" offset="1"/></linearGradient><linearGradient id="c" y2="150.38" xlink:href="#A" x2="133" gradientTransform="scale(-1.39197 1.39197) rotate(-45 -28.292 379.342)" y1="150.38" x1="123"/><linearGradient id="d" y2="144.766" xlink:href="#A" x2="120.656" y1="133.073" x1="126.68"/><linearGradient id="e" y2="150.38" xlink:href="#B" y1="167.73" gradientTransform="rotate(-135 332.789 -39.72) scale(2.7839 -2.4637)" x2="133" x1="108"/><linearGradient id="f" y2="127.2" x2="179.96" y1="19.815" x1="126.64" xlink:href="#AM"><stop stop-color="#fff" offset="0"/><stop stop-color="#fff" stop-opacity="0" offset="1"/></linearGradient><linearGradient id="g" y2="137.2" y1="29.815" gradientTransform="matrix(-.50295 .1984 .1972 -.43254 276.16 123.42)" x2="179.96" x1="126.64" xlink:href="#AM"><stop stop-color="#fff" offset="0"/><stop stop-color="#fff" stop-opacity="0" offset="1"/></linearGradient><linearGradient id="h" y2="-21.25" x2="9" y1="264.064" x1="210.17" xlink:href="#AM"><stop offset="0"/><stop stop-opacity="0" offset="1"/></linearGradient><linearGradient id="i" y2="4.302" x2="122" y1="245.45" x1="122" xlink:href="#AM"><stop offset="0"/><stop stop-opacity="0" offset="1"/></linearGradient><linearGradient id="j" y2="-10.918" x2="9" y1="258.125" x1="210.17" xlink:href="#AM"><stop offset="0"/><stop stop-opacity="0" offset="1"/></linearGradient><clipPath id="k"><path d="M9 12.25s7.5 13 11.75 27.75S27 65.5 27 65.5s-5.5 12.75-8.25 24.75-5.75 23-5.75 23 5.75 16 9.25 30S26 167.5 26 167.5s-4 10.25-7.5 24.25-5 30.75-5 30.75 9.25-2 28.5 1.25 32.25 6 32.25 6 12.75-2.75 24-6.25 16.25-6.5 16.25-6.5 5.5.5 22.5 6.25 29.25 8.5 29.25 8.5l26-5.75c13-3 26.5-8 26.5-8s-.75-5 4.25-24.5 8.75-28 8.75-28-.5-4.5-3.75-19.75S218 116 218 116s1.75-10.5 6.75-23.75L235 65.5s-4.75-15.25-7.5-29.75S219.25 10 219.25 10 195 19 187.5 20.5s-21 5.25-21 5.25-9.75-4.25-22-8.5-29.75-5.5-29.75-5.5-3.25 3.5-22 8-27.5 5.75-27.5 5.75-18.5-9-31.5-11.5-24-2-24.75-1.75z" class="B"/></clipPath><clipPath id="l"><path d="M9 12.25s7.5 13 11.75 27.75S27 65.5 27 65.5s-5.5 12.75-8.25 24.75-5.75 23-5.75 23 5.75 16 9.25 30S26 167.5 26 167.5s-4 10.25-7.5 24.25-5 30.75-5 30.75 9.25-2 28.5 1.25 32.25 6 32.25 6 12.75-2.75 24-6.25 16.25-6.5 16.25-6.5 5.5.5 22.5 6.25 29.25 8.5 29.25 8.5l26-5.75c13-3 26.5-8 26.5-8s-.75-5 4.25-24.5 8.75-28 8.75-28-.5-4.5-3.75-19.75S218 116 218 116s1.75-10.5 6.75-23.75L235 65.5s-4.75-15.25-7.5-29.75S219.25 10 219.25 10 195 19 187.5 20.5s-21 5.25-21 5.25-9.75-4.25-22-8.5-29.75-5.5-29.75-5.5-3.25 3.5-22 8-27.5 5.75-27.5 5.75-18.5-9-31.5-11.5-24-2-24.75-1.75z" class="B"/></clipPath><clipPath id="m"><path d="M9 12.25s7.5 13 11.75 27.75S27 65.5 27 65.5s-5.5 12.75-8.25 24.75-5.75 23-5.75 23 5.75 16 9.25 30S26 167.5 26 167.5s-4 10.25-7.5 24.25-5 30.75-5 30.75 9.25-2 28.5 1.25 32.25 6 32.25 6 12.75-2.75 24-6.25 16.25-6.5 16.25-6.5 5.5.5 22.5 6.25 29.25 8.5 29.25 8.5l26-5.75c13-3 26.5-8 26.5-8s-.75-5 4.25-24.5 8.75-28 8.75-28-.5-4.5-3.75-19.75S218 116 218 116s1.75-10.5 6.75-23.75L235 65.5s-4.75-15.25-7.5-29.75S219.25 10 219.25 10 195 19 187.5 20.5s-21 5.25-21 5.25-9.75-4.25-22-8.5-29.75-5.5-29.75-5.5-3.25 3.5-22 8-27.5 5.75-27.5 5.75-18.5-9-31.5-11.5-24-2-24.75-1.75z" class="B"/></clipPath><clipPath id="n"><path d="M9 12.25s7.5 13 11.75 27.75S27 65.5 27 65.5s-5.5 12.75-8.25 24.75-5.75 23-5.75 23 5.75 16 9.25 30S26 167.5 26 167.5s-4 10.25-7.5 24.25-5 30.75-5 30.75 9.25-2 28.5 1.25 32.25 6 32.25 6 12.75-2.75 24-6.25 16.25-6.5 16.25-6.5 5.5.5 22.5 6.25 29.25 8.5 29.25 8.5l26-5.75c13-3 26.5-8 26.5-8s-.75-5 4.25-24.5 8.75-28 8.75-28-.5-4.5-3.75-19.75S218 116 218 116s1.75-10.5 6.75-23.75L235 65.5s-4.75-15.25-7.5-29.75S219.25 10 219.25 10 195 19 187.5 20.5s-21 5.25-21 5.25-9.75-4.25-22-8.5-29.75-5.5-29.75-5.5-3.25 3.5-22 8-27.5 5.75-27.5 5.75-18.5-9-31.5-11.5-24-2-24.75-1.75z" class="B"/></clipPath><clipPath id="o"><path d="M9 12.25s7.5 13 11.75 27.75S27 65.5 27 65.5s-5.5 12.75-8.25 24.75-5.75 23-5.75 23 5.75 16 9.25 30S26 167.5 26 167.5s-4 10.25-7.5 24.25-5 30.75-5 30.75 9.25-2 28.5 1.25 32.25 6 32.25 6 12.75-2.75 24-6.25 16.25-6.5 16.25-6.5 5.5.5 22.5 6.25 29.25 8.5 29.25 8.5l26-5.75c13-3 26.5-8 26.5-8s-.75-5 4.25-24.5 8.75-28 8.75-28-.5-4.5-3.75-19.75S218 116 218 116s1.75-10.5 6.75-23.75L235 65.5s-4.75-15.25-7.5-29.75S219.25 10 219.25 10 195 19 187.5 20.5s-21 5.25-21 5.25-9.75-4.25-22-8.5-29.75-5.5-29.75-5.5-3.25 3.5-22 8-27.5 5.75-27.5 5.75-18.5-9-31.5-11.5-24-2-24.75-1.75z" class="B"/></clipPath><clipPath id="p"><path d="M9 12.25s7.5 13 11.75 27.75S27 65.5 27 65.5s-5.5 12.75-8.25 24.75-5.75 23-5.75 23 5.75 16 9.25 30S26 167.5 26 167.5s-4 10.25-7.5 24.25-5 30.75-5 30.75 9.25-2 28.5 1.25 32.25 6 32.25 6 12.75-2.75 24-6.25 16.25-6.5 16.25-6.5 5.5.5 22.5 6.25 29.25 8.5 29.25 8.5l26-5.75c13-3 26.5-8 26.5-8s-.75-5 4.25-24.5 8.75-28 8.75-28-.5-4.5-3.75-19.75S218 116 218 116s1.75-10.5 6.75-23.75L235 65.5s-4.75-15.25-7.5-29.75S219.25 10 219.25 10 195 19 187.5 20.5s-21 5.25-21 5.25-9.75-4.25-22-8.5-29.75-5.5-29.75-5.5-3.25 3.5-22 8-27.5 5.75-27.5 5.75-18.5-9-31.5-11.5-24-2-24.75-1.75z" class="B"/></clipPath><clipPath id="q"><path d="M123.62 141.06c20.832 20.243 54.607 19.289 75.439-2.132s20.832-55.196 0-75.439-54.607-19.289-75.439 2.132-20.832 55.196 0 75.439z" fill="url(#w)"/></clipPath><clipPath id="r"><path d="M9 22.578s7.5 12.393 11.75 26.8S27 74.373 27 74.373s-5.5 13.195-8.25 25.417S13 123.25 13 123.25s5.75 15.535 9.25 29.252S26 176.449 26 176.449s-4 10.574-7.5 24.857-5 31.154-5 31.154 9.25-2.748 28.5-1.055 32.25 3.392 32.25 3.392 12.75-3.782 24-8.191 16.25-7.815 16.25-7.815 5.5.055 22.5 4.43 29.25 6.135 29.25 6.135l26-7.853c13-4.051 26.5-10.143 26.5-10.143s-.75-4.94 4.25-24.844 8.75-28.708 8.75-28.708-.514-4.455-3.75-19.447c-1.75-8.108-2.25-4.068-2.25-4.068s16.264-26.155 16.5-40.334c.25-15.02-7.25-36.413-7.25-36.413s-4.75-14.866-7.5-29.143-8.25-25.083-8.25-25.083S195 14.281 187.5 16.388s-21 6.948-21 6.948-9.75-3.461-22-6.72-29.75-3.094-29.75-3.094-3.25 3.763-22 9.78-27.5 7.973-27.5 7.973-18.5-7.504-31.5-8.952-24-.06-24.75.252z" fill="url(#j)" class="G"/></clipPath><radialGradient id="s" cy="86" cx="128" gradientTransform="matrix(1.0213,0,0,-1.0213,-212.72,173.83)" r="47" xlink:href="#AM"><stop stop-color="#d0e9f2" stop-opacity="0" offset="0"/><stop stop-color="#d0e9f2" stop-opacity="0" offset=".839"/><stop stop-color="#d0e9f2" stop-opacity=".282" offset=".943"/><stop stop-color="#d0e9f2" offset="1"/></radialGradient><radialGradient id="t" cy="86" cx="128" gradientTransform="matrix(1.005223000134796,1.005223000134796,1.005223000134796,-1.005223000134796,-40.8387777747368,43.25348637451053)" r="47" xlink:href="#AM"><stop stop-color="#d0e9f2" stop-opacity="0" offset="0"/><stop stop-color="#d0e9f2" stop-opacity="0" offset=".839"/><stop stop-color="#d0e9f2" stop-opacity=".282" offset=".943"/><stop stop-color="#d0e9f2" offset="1"/></radialGradient><radialGradient id="u" cy="72.588" cx="159.61" gradientTransform="matrix(1.2125 0 0 .83915 -46.348 24.528)" r="38.417" xlink:href="#AM"><stop stop-color="#fff" offset="0"/><stop stop-color="#fff" stop-opacity=".93" offset=".5"/><stop stop-color="#fff" stop-opacity="0" offset="1"/></radialGradient><radialGradient id="v" cx="159.61" cy="72.588" r="38.417" gradientTransform="matrix(1.2125 0 0 .83915 -45.92 25.814)" xlink:href="#AM"><stop stop-color="#fff" offset="0"/><stop stop-color="#fff" stop-opacity="0" offset="1"/></radialGradient><radialGradient id="w" cy="86" cx="128" gradientTransform="matrix(.80254 .77986 .80254 -.82522 -10.402 73.423)" r="47" xlink:href="#AM"><stop stop-color="#d0e9f2" stop-opacity="0" offset="0"/><stop stop-color="#d0e9f2" stop-opacity="0" offset=".839"/><stop stop-color="#d0e9f2" stop-opacity=".282" offset=".943"/><stop stop-color="#d0e9f2" offset="1"/></radialGradient><filter id="x"><feGaussianBlur stdDeviation="4.287"/></filter><filter id="y"><feGaussianBlur stdDeviation="6.311"/></filter><filter id="z"><feGaussianBlur stdDeviation="4.457"/></filter><path id="AA" d="M174.28 35.875c-17.6 0-35.19 6.639-48.72 19.906-.16.164-.33.303-.5.469-22.05 22.056-26.206 55.25-12.47 81.5l-2.28 1.63c2.25 4.23 4.94 8.3 8.1 12.12l-13.32 13.34c-1.34-.58-2.78-1.03-4.56-1.37l-2.842 2.84c-1.11-.48-2.139-.81-3.063-.87L30.5 229.56c-.037 1.1.226 2.19.656 3.28l-.531.54-1.094 1.09c.716 3.74 2.011 6.82 5.469 10.28s6.42 4.63 10.281 5.47l1.094-1.1.719-.71c1.088.46 2.13.78 3.094.84l64.122-64.13c-.24-.97-.62-1.93-1.03-2.9l3-3c-.25-1.73-.68-3.2-1.31-4.6l13.28-13.28a71.81 71.81 0 0 0 12.13 8.1l1.62-2.28c26.25 13.74 59.44 9.58 81.5-12.47.17-.17.31-.34.47-.5 26.69-27.22 26.55-70.923-.47-97.94-13.59-13.59-31.41-20.375-49.22-20.375zm-.5 3.281c.11.002.21-.002.31 0a67.89 67.89 0 0 1 5.72.375l.28.031.29.032c.14.017.29.044.43.062a64.67 64.67 0 0 1 2.69.375c.62.102 1.23.224 1.84.344l1.04.187c.72.153 1.43.324 2.15.5l.94.219c.07.019.14.043.22.063.95.253 1.89.516 2.84.812.07.023.15.04.22.063a62.41 62.41 0 0 1 2.84.969c.06.019.11.042.16.062a68.34 68.34 0 0 1 2.84 1.125c.06.022.11.041.16.063.94.4 1.88.836 2.81 1.281l.13.062c.93.451 1.86.91 2.78 1.407.03.017.06.044.09.062.93.503 1.84 1.013 2.75 1.562.03.02.06.044.1.063a68.25 68.25 0 0 1 2.68 1.719c.55.369 1.09.769 1.63 1.156l1.09.781c.02.014.05.018.06.031.88.656 1.75 1.36 2.6 2.063 1.76 1.449 3.448 2.982 5.06 4.594a69.04 69.04 0 0 1 4.56 5.031c.01.011.03.02.03.031.71.855 1.41 1.715 2.07 2.594.28.379.54.773.81 1.156l1.09 1.563c.02.024.05.038.07.062a76.06 76.06 0 0 1 1.71 2.688c.02.032.05.061.07.094a75.45 75.45 0 0 1 1.56 2.75c.02.032.04.06.06.093.5.921.96 1.844 1.41 2.781l.06.126A61.53 61.53 0 0 1 235.31 81l.06.156A60.9 60.9 0 0 1 236.5 84l.06.156a59.55 59.55 0 0 1 .97 2.844l.06.219c.3.941.56 1.894.82 2.843l.06.219c.08.31.14.627.22.938l.5 2.156c.07.342.12.688.18 1.031l.35 1.844c.15.893.26 1.791.37 2.688.02.145.05.291.07.437l.03.281.03.282c.1.952.19 1.912.25 2.872a53.85 53.85 0 0 1 .12 2.85c.01.1 0 .2 0 .31.02 1.05.01 2.1-.03 3.15a64.29 64.29 0 0 1-.15 2.79c-.01.12-.02.25-.04.37a50.19 50.19 0 0 1-.28 2.75 68.88 68.88 0 0 1-.43 2.88c-.02.08-.02.16-.04.25-.02.12-.03.25-.06.37a62.41 62.41 0 0 1-.56 2.72l-.09.41a86.1 86.1 0 0 1-.69 2.65l-.53 1.75-.53 1.69c-.3.86-.61 1.71-.94 2.56-.06.16-.13.32-.19.47l-.12.34c-.36.88-.73 1.73-1.13 2.6a60.91 60.91 0 0 1-1.19 2.44c-.08.15-.16.31-.25.46-.41.8-.83 1.6-1.28 2.38-.09.17-.18.34-.28.5-.2.34-.42.66-.62 1l-1.13 1.75c0 .01.01.02 0 .03-.49.75-1 1.49-1.53 2.22-.46.64-.95 1.25-1.44 1.87-.19.26-.36.53-.56.79l-.41.5c-.16.2-.33.39-.5.59-.55.67-1.13 1.32-1.72 1.97a58.29 58.29 0 0 1-1.87 2c-.16.16-.31.34-.47.5-21.13 21.13-52.26 24.49-77.19 11.15l.13-.18a65.83 65.83 0 0 1-10.63-6.78c-.54-.43-1.06-.87-1.59-1.32l-1.53-1.31c-.09-.08-.19-.16-.28-.25a86.97 86.97 0 0 1-2.41-2.31 86.97 86.97 0 0 1-2.31-2.41c-.09-.09-.17-.19-.25-.28-.45-.5-.88-1.02-1.31-1.53l-1.32-1.59a65.83 65.83 0 0 1-6.78-10.63l-.19.13c-13.33-24.93-9.97-56.061 11.16-77.191.16-.163.34-.308.5-.469.65-.64 1.33-1.269 2-1.875.65-.588 1.3-1.162 1.97-1.719l.81-.687c.35-.278.72-.512 1.06-.782.63-.483 1.24-.98 1.88-1.437.74-.53 1.5-1.036 2.25-1.531l1.75-1.125 1.34-.813c.69-.395 1.37-.757 2.07-1.125 1.106-.597 2.23-1.159 3.37-1.687.87-.397 1.72-.769 2.59-1.125.16-.062.32-.096.47-.157.97-.384 1.93-.758 2.91-1.093.56-.192 1.12-.356 1.69-.532l1.75-.531a66.18 66.18 0 0 1 2.65-.687c.07-.017.15-.015.22-.032l1.25-.281 2.03-.406c.09-.015.17-.017.25-.031.95-.164 1.92-.317 2.88-.438 3.005-.377 6.032-.544 9.06-.5z"/><path id="AB" d="m110.75 5.5-4.25 7c-.75 9-2.25 13.75-8.5 16.5s-12.25 3.5-11 7.5 13 9.25 14.25 13 8.25 1.75 11 7 2 15.25-3.75 17.25-17.5.5-20.25 9.5-4.75 10.5-9 12.75-7.25 10.5-3.5 16.5 12.25-1.25 15-6.5S98 97.25 98 97.25h23.75l59-1.75 3.25-3.75s3.25 4 2.75 8.75-3.75 14.75.25 17.25 19.5-2 24-7-4.75-28.25-10.5-29.5-18.5-1.75-17-7 11.75 4.5 17.25 3.25 16.75-21 12-25.25-24.25-5.25-25.75-8 21-8 22.25-11-2.5-7.25-6.25-8.5S189 41 182 40.5s-20 5.75-17.25 11.5-6 11-14.5 6.5-24.75-13-21.75-24S150 15.75 150 15.75L110.75 5.5zM97.188 112.72c-1.595.15-4.469 4.69-4.938 7.03-.5 2.5-3.25 6.75-3.5 12.25s4.75 6.75 8.75 6.5 2.75-6.75 2-15c-.25 0-.5-10.25-2-10.75-.094-.03-.206-.04-.312-.03zm92.722 51.66c-6.34.29-6.63 7.46-7.41 8.87-1.25 2.25 2.25 13.75 2 18s-4.75 5.25-9.5 9.75.5 16 11.25 31l44.75 1.25-1-35s4.75-4.25-20.75-24.25c-9.56-7.5-15.54-9.8-19.34-9.62zM39.94 180.91c-4.03-.11-8.282 5.71-9.688 7.59-1.5 2-6.25 5-17 9.5l-14.5 34.25 53 4.25s1.75-11-4.25-15.75-17.25-5.75-18.25-13.25 9.25-10 13.75-14.25 2-11.25-2.25-12.25a3.728 3.728 0 0 0-.812-.09z"/><path id="AC" d="M122.75 62.25c6.25.5 12.25-2.25 10.75-6.5s-12.5-7.25-13.25-3 2 10.5 2.5 9.5zm-14-15.5c-8.5-5.5-8.5-7.25-7-8s10.25 5 12.75 8-2.25 2-5.75 0z"/><path id="AD" d="M15.75 151.25c33-2.5 38.25-3.5 36.25-10.25s-8.75-23.5-23-22.5-22.75-6.75-22.75-6.75"/><path id="AE" d="M17.5 177.25c18.25-10 28.75-8.5 35-11.5s13.25-5.75 15.75-9.5 5.75-11.5 5.75-18-3.5-36 3.25-43.5 17.25-26 26-23.25 12.25 9.75 22 9.5S147 77 149.5 68.75s-15.75-16-16-23 5.5-14.25 20.25-17 23.5-11.5 23.5-11.5"/><path id="AF" d="M14.5 161c15.25-1.5 22.25 3.5 31.5 1.75s13.25-3 17.75-5.75 6-3.75 6.25-6.5 1-12.5-3-22S54.5 97 58.75 89.75 64 68.25 74.5 65.25 95.5 59 102.25 64s12.75 14.25 20 14.5S134 77 136.75 74s4.5-10.25 1.75-13.75-15.5-5.5-17.25-9.5-10.75-17-.25-26.75 36.25-8.25 36.25-8.25"/><path id="AG" d="M21.25 159c13.75 1 21.5 4.25 33.5-.5s13.5-5.25 13.75-8.75-.25-15.75-3-20-13-13.75-15.75-24.25.25-41 8.5-48.25 32-7.25 37.5-10.5 5.25-16.75 13-24.5 27-12.25 27-12.25M190 18.5c11.75 5 39 9.75 47.25 40.25M9.75 214c19-12.5 36-1.25 49-4s38.25-37.25 46-37 5.5-11.75 8.5-13.25 5.5 6 11.75 8 24.5-2.75 23.5-5.75-7-7.75-5.5-8.5 8.5 5 12.75 3.5 43.75-1 48.5-13.5 21.5-13.5 21.5-13.5M77.5 233.5c13.5-11.5 23.25-25 28.5-27s12.75-3.75 15.75-8 2.5-10.75 5.25-12 3.75 5.75 8.75 6 36.75-5 42.75-11.75 32.25-12.5 32.5-14.5-1-4.75.25-5.5 24.75-6 24.75-6M168.75 236c9-13.75 20.5-41 29.5-42s10.25-2.5 12.5-4.25 17 2.25 17 2.25"/><path id="AH" d="m57.75 20-8.5 28.25 18 6.25L75 90.75 54 113l9 10.5L51 135l.5 4.5L71.75 164l14-6.75 20.5 18.5L95.75 204l10.25 8.5-2.75 13"/><path id="AI" d="m105.75 212.25 12.5-27.75 11-7 27.5 15.75 20.5-3.75-.25-15.75-10.25-6 12.75-26.25 5.75-3.75 38.75-10"/><path id="AJ" d="M9 12.25s7.5 13 11.75 27.75S27 65.5 27 65.5s-5.5 12.75-8.25 24.75-5.75 23-5.75 23 5.75 16 9.25 30S26 167.5 26 167.5s-4 10.25-7.5 24.25-5 30.75-5 30.75 9.25-2 28.5 1.25 32.25 6 32.25 6 12.75-2.75 24-6.25 16.25-6.5 16.25-6.5 5.5.5 22.5 6.25 29.25 8.5 29.25 8.5l26-5.75c13-3 26.5-8 26.5-8s-.75-5 4.25-24.5 8.75-28 8.75-28-.5-4.5-3.75-19.75S218 116 218 116s1.75-10.5 6.75-23.75L235 65.5s-4.75-15.25-7.5-29.75S219.25 10 219.25 10 195 19 187.5 20.5s-21 5.25-21 5.25-9.75-4.25-22-8.5-29.75-5.5-29.75-5.5-3.25 3.5-22 8-27.5 5.75-27.5 5.75-18.5-9-31.5-11.5-24-2-24.75-1.75z"/><path id="AK" d="M-82 134c26.51 0 48-21.49 48-48s-21.49-48-48-48-48 21.49-48 48 21.49 48 48 48z"/><path id="AL" d="M127.03 132.72c26.1 26.09 68.4 26.09 94.49 0 26.1-26.1 26.1-68.4 0-94.493-26.09-26.093-68.39-26.093-94.49 0-26.09 26.093-26.09 68.393 0 94.493z"/><linearGradient id="AM" gradientUnits="userSpaceOnUse"/></defs><use xlink:href="#AA" opacity=".7" transform="matrix(1 .06864 0 .8487 0 26.913)" filter="url(#y)" class="F"/><path opacity=".5" d="M9 17.25s7.5 11 11.75 25.75S27 68.5 27 68.5s-5.5 12.75-8.25 24.75l-5.75 25s5.75 16 9.25 30S26 170.5 26 170.5s-4 10.25-7.5 24.25-5 30.75-5 30.75 9.25-2 28.5 1.25 32.25 6 32.25 6 12.75-2.75 24-6.25 16.25-6.5 16.25-6.5 5.5.5 22.5 6.25 29.25 8.5 29.25 8.5l26-5.75c13-3 26.5-8 26.5-8s-.75-5 4.25-24.5 8.75-28 8.75-28L228 150.75C224.75 135.5 218 121 218 121s1.75-12.5 6.75-25.75L235 68.5s-4.75-15.25-7.5-29.75S219.25 15 219.25 15 195 24 187.5 25.5s-21 5.25-21 5.25-9.75-4.25-22-8.5-29.75-5.5-29.75-5.5-3.25 3.5-22 8-27.5 5.75-27.5 5.75-18.5-9-31.5-11.5-24-2-24.75-1.75z" transform="matrix(1 0 0 .84657 0 27.66)" filter="url(#z)" fill="url(#i)"/><path d="M9 2.25s7.5 13 11.75 27.75S27 55.5 27 55.5s-5.5 12.75-8.25 24.75-5.75 23-5.75 23 5.75 16 9.25 30S26 157.5 26 157.5s-4 10.25-7.5 24.25-5 30.75-5 30.75 9.25-2 28.5 1.25 32.25 6 32.25 6 12.75-2.75 24-6.25 16.25-6.5 16.25-6.5 5.5.5 22.5 6.25 29.25 8.5 29.25 8.5l26-5.75c13-3 26.5-8 26.5-8s-.75-5 4.25-24.5 8.75-28 8.75-28-.5-4.5-3.75-19.75S218 106 218 106s1.75-10.5 6.75-23.75L235 55.5s-4.75-15.25-7.5-29.75S219.25 0 219.25 0 195 9 187.5 10.5s-21 5.25-21 5.25-9.75-4.25-22-8.5-29.75-5.5-29.75-5.5-3.25 3.5-22 8-27.5 5.75-27.5 5.75-18.5-9-31.5-11.5S9.75 2 9 2.25z" class="B"/><g transform="translate(0 -10)" clip-path="url(#m)"><use xlink:href="#AB" fill="#a6dd8b"/></g><path fill="#aac3e7" d="M158.53 75.344c-4.76-.015-9.03.968-11.53 3.156-8 7-35 .75-48.5 7s-13.25 38-14.75 44.5-17.5 20.75-20 23.5-13.25 7.25-19.5 8.5-12.75 7.25-15.5 11c-2.021 2.76-7.406 6.45-10.125 8.22-.046.18-.079.35-.125.53-.134.53-.247 1.08-.375 1.63 4.98-1.61 11.18-8.18 16.625-13.63 6.25-6.25 20-7.75 27.75-11.5S76.75 138.5 89 134.5s21.25 11.75 24.25 18.5 1.75 12.75 3.75 17 11 11.75 11.5 13.5-5 6.5-6.25 8.5-10.5 7-11.75 8.75c-.97 1.35-1.92 6.77-2.31 9.22l1.12-.47c.49-2.53 1.52-7.08 2.94-8.5 2-2 11.25-4.5 12.5-8.5s7-6.5 7-6.5 2.75 4 16 14c8.83 6.67 12.76 15.53 14.41 20.72l2.03.53c-1.22-4.32-4.84-16.24-8.94-20.75-5-5.5-18.5-10.75-22.75-22S108 144.25 115 138.25s16.5-4 28.5 7.5 46.25 5.75 57.75 3.75c9.95-1.73 20.83 14.88 23.91 26.03l1.65-5.75c-1.74-1.92-3.69-4.62-5.31-8.28-3.75-8.5-12-13.25-12-13.25s8.75-5 14.75-7.75c1.62-.74 3.01-1.68 4.19-2.66l-.44-2.09-.09-.44c-4.77 5.56-19.24 9.62-21.66 10.94-2.75 1.5-18.25 3-35.75 4.5s-26.75-7.5-34.25-14.75-13-36-3-38 20 13.75 30 17 21.5-15.75 19.75-27c-1.2-7.734-14-12.625-24.47-12.656zm-53.34 13.281c1.27.001 5.86 1.594 6.56 2.375 2.25 2.5 2 7.25 0 8s-12.75 8-10.5 14.25 1.75 18-3.5 18-8 0-10-2.5-2-12 0-19.75 3.5-15 8-18.25c3.094-2.234 6.63-2.128 9.44-2.125zm13.59 73.095c.2.01 1.91 3.51 4.72 7.03 3 3.75 3.25 8.25 3.25 8.25s-4.25-4.75-6-8-2-7.25-2-7.25c0-.03.02-.03.03-.03z"/><g stroke="#6d7f42" fill="none"><use xlink:href="#AC" class="C D"/><g clip-path="url(#k)" transform="translate(0 -10)"><use xlink:href="#AD" class="C D E"/><use xlink:href="#AE" class="C"/><g class="D E"><use xlink:href="#AF" class="C"/><use xlink:href="#AG" class="C"/></g></g></g><g clip-path="url(#l)" transform="translate(0 -10)" stroke="#d38484" fill="none" stroke-width="2" class="E"><use xlink:href="#AH"/><use xlink:href="#AI"/></g><g opacity=".504"><path d="M219.25 330s-24.25 9-31.75 10.5-21 5.25-21 5.25-9.75-4.25-22-8.5-29.75-5.5-29.75-5.5-3.25 3.5-22 8-27.5 5.75-27.5 5.75-18.5-9-31.5-11.5-24-2-24.75-1.75c0 0 7.5 13 11.75 27.75S27 385.5 27 385.5l51.469 5.125 48.971-4 52.25 12.031c10.38-4.418 52.11-4.9 55.31-13.156 0 0-4.75-15.25-7.5-29.75S219.25 330 219.25 330z" fill="#b1e479"/><path d="M27 385.5s-5.5 12.75-8.25 24.75-5.75 23-5.75 23l50.969 16.37 53.721-15.74 52.25 17.53c16.36-4.26 32.39-9.12 48.06-15.41 0 0 1.75-10.5 6.75-23.75L235 385.5c-3.2 8.256-44.93 8.738-55.31 13.156l-52.25-12.031-47.971 4L27 385.5z" fill="#87d531"/><path d="M231.75 485.5c-17.9 7.67-35.94 14.9-54.31 21.41l-52.25-18.53-50.221 9L26 487.5s-4 10.25-7.5 24.25-5 30.75-5 30.75 9.25-2 28.5 1.25 32.25 6 32.25 6 12.75-2.75 24-6.25 16.25-6.5 16.25-6.5 5.5.5 22.5 6.25 29.25 8.5 29.25 8.5l26-5.75c13-3 26.5-8 26.5-8s-.75-5 4.25-24.5 8.75-28 8.75-28z" class="B"/><path d="M13 433.25s5.75 16 9.25 30S26 487.5 26 487.5l48.969 9.88 50.221-9 52.25 18.53c18.37-6.51 36.41-13.74 54.31-21.41 0 0-.5-4.5-3.75-19.75S218 436 218 436c-15.67 6.29-31.7 11.15-48.06 15.41l-52.25-17.53-53.721 15.74L13 433.25z" fill="#b9e787"/></g><g opacity=".522"><path d="M13.719 332.031c-2.729-.007-4.438.125-4.719.219 0 0 7.5 13 11.75 27.75S27 385.5 27 385.5s-5.5 12.75-8.25 24.75-5.75 23-5.75 23 5.75 16 9.25 30S26 487.5 26 487.5s-4 10.25-7.5 24.25-5 30.75-5 30.75 9.25-2 28.5 1.25 32.25 6 32.25 6l1.5-53.25L63.5 450l16-59.75c-2.22-15.48-9.068-30.046-14.25-44.75 0 0-18.5-9-31.5-11.5-8.125-1.563-15.483-1.956-20.031-1.969z" fill="#83d32b"/><path d="M114.75 331.75s-3.25 3.5-22 8-27.5 5.75-27.5 5.75c5.182 14.704 12.03 29.27 14.25 44.75L63.5 450l12.25 46.5-1.5 53.25s12.75-2.75 24-6.25 16.25-6.5 16.25-6.5l11.25-48.5-8.25-54.25 11.75-45c-3.44-9.727-8.06-56.93-14.5-57.5z" fill="#b1e479"/><path d="M219.25 330s-24.25 9-31.75 10.5-21 5.25-21 5.25c4.92-1.358 11.44 45.392 14.25 52.25l-11.25 53.25 9.5 55-12.75 45.5 26-5.75c13-3 26.5-8 26.5-8s-.75-5 4.25-24.5 8.75-28 8.75-28-.5-4.5-3.75-19.75S218 436 218 436s1.75-10.5 6.75-23.75L235 385.5s-4.75-15.25-7.5-29.75-8.25-25.75-8.25-25.75z" fill="#a4df62"/><path d="M114.75 331.75c6.44.57 11.06 47.773 14.5 57.5l-11.75 45 8.25 53.25L114.5 537s5.5.5 22.5 6.25 29.25 8.5 29.25 8.5l12.75-45.5-9.5-55L180.75 398c-2.81-6.858-9.33-53.608-14.25-52.25 0 0-9.75-4.25-22-8.5s-29.75-5.5-29.75-5.5z" class="B"/></g><path d="M9-189.75s7.5 13 11.75 27.75S27-136.5 27-136.5s-5.5 12.75-8.25 24.75-5.75 23-5.75 23 5.75 16 9.25 30S26-34.5 26-34.5s-4 10.25-7.5 24.25-5 30.75-5 30.75 9.25-2 28.5 1.25 32.25 6 32.25 6S87 25 98.25 21.5 114.5 15 114.5 15s5.5.5 22.5 6.25 29.25 8.5 29.25 8.5l26-5.75c13-3 26.5-8 26.5-8S218 11 223-8.5s8.75-28 8.75-28-.5-4.5-3.75-19.75S218-86 218-86s1.75-10.5 6.75-23.75L235-136.5s-4.75-15.25-7.5-29.75-8.25-25.75-8.25-25.75-24.25 9-31.75 10.5-21 5.25-21 5.25-9.75-4.25-22-8.5-29.75-5.5-29.75-5.5-3.25 3.5-22 8-27.5 5.75-27.5 5.75-18.5-9-31.5-11.5-24-2-24.75-1.75z" fill="url(#T)" transform="translate(0 192)" class="G"/><g opacity=".27" transform="translate(0 182)"><path fill="url(#K)" d="M219.25-182s-24.25 9-31.75 10.5-21 5.25-21 5.25c4.92-1.36 11.44 45.39 14.25 52.25l-.06.28c11.81-4.07 51.21-4.77 54.31-12.78 0 0-4.75-15.25-7.5-29.75S219.25-182 219.25-182z"/><path fill="url(#M)" d="M27-126.5s-5.5 12.75-8.25 24.75-5.75 23-5.75 23l50.625 16.281 15.781-58.911L27-126.5z"/><path fill="url(#N)" d="M26-24.5S22-14.25 18.5-.25s-5 30.75-5 30.75.147-.045.438-.094c2.033-.338 11.218-1.5 28.062 1.344 19.25 3.25 32.25 6 32.25 6l1.469-52.5-.75.125L26-24.5z"/><path fill="url(#O)" d="M114.75-180.25s-3.25 3.5-22 8-27.5 5.75-27.5 5.75c5.182 14.7 12.03 29.27 14.25 44.75l-.094.31 48.034-3.94 1.12.26c-3.36-13.33-7.79-54.6-13.81-55.13z"/><path fill="url(#P)" d="M117.59-78.094 63.969-62.375l-.344-.094L63.5-62l12.25 46.5-.031.75 49.471-8.875.53.187.03-.062-8.25-54.25.09-.344z"/><path fill="url(#Q)" d="M128.56-125.12l.69 2.37-11.66 44.656.1-.031L169.5-60.75l11.19-52.97-1 .38-51.13-11.78z"/><path fill="url(#R)" d="M125.53-23.5L114.5 25s5.5.5 22.5 6.25l6.12 2.031L148.75 35c10.62 3.199 17.5 4.75 17.5 4.75l12.72-45.406-1.53.562L125.53-23.5z"/><path fill="url(#S)" d="M218-76c-15.67 6.288-31.7 11.15-48.06 15.406l-.44-.156 9.5 55-.03.094c17.84-6.36 35.38-13.387 52.78-20.844 0 0-.5-4.5-3.75-19.75S218-76 218-76z"/></g><g opacity=".043" transform="translate(0 182)"><path fill="url(#C)" d="M13.719-179.97l-2.719.06-1.156.07c-.03 0-.066-.01-.094 0l-.75.09s7.5 13 11.75 27.75S27-126.5 27-126.5l51.469 5.12.937-.06.094-.31c-2.22-15.48-9.068-30.05-14.25-44.75 0 0-18.5-9-31.5-11.5a89.62 89.62 0 0 0-3-.53l-1.75-.28c-.237-.04-.453-.06-.688-.1a98.77 98.77 0 0 0-3.812-.46c-.735-.08-1.395-.13-2.094-.19l-2-.16c-.992-.07-1.89-.12-2.781-.15-1.456-.07-2.769-.1-3.906-.1z"/><path fill="url(#D)" d="M13-78.75s5.75 16 9.25 30S26-24.5 26-24.5l48.969 9.875.75-.125.031-.75L63.5-62l.125-.469L13-78.75z"/><path fill="url(#E)" d="m127.44-125.38-47.971 4h-.063L63.625-62.469l.344.094 53.621-15.719 11.66-44.656c-.22-.63-.45-1.45-.69-2.37l-1.12-.26z"/><path fill="url(#F)" d="M125.19-23.625 75.719-14.75l-1.469 52.5S87 35 98.25 31.5 114.5 25 114.5 25l11.22-48.438-.53-.187z"/><path fill="url(#G)" d="M114.75-180.25c6.02.53 10.45 41.8 13.81 55.13l51.13 11.78a12.43 12.43 0 0 1 1-.38l.06-.28c-2.81-6.86-9.33-53.61-14.25-52.25l-1.72-.72c-3.32-1.39-11.09-4.59-20.28-7.78-12.25-4.25-29.75-5.5-29.75-5.5z"/><path fill="url(#H)" d="M117.69-78.125l-.1.031-.09.344 8.25 53.25-.22 1 51.91 18.406 1.53-.562.03-.094-9.5-55-51.81-17.375z"/><path fill="url(#I)" d="M231.75-26.5c-17.4 7.457-34.94 14.484-52.78 20.844L166.25 39.75l26-5.75c13-3 26.5-8 26.5-8S218 21 223 1.5s8.75-28 8.75-28z"/><path fill="url(#J)" d="M235-126.5c-3.1 8.01-42.5 8.71-54.31 12.78L169.5-60.75l.44.156C186.3-64.85 202.33-69.712 218-76c0 0 1.75-10.5 6.75-23.75L235-126.5z"/></g><g clip-path="url(#q)" transform="matrix(1.2525 .0354 0 1.2525 -27.809 -48.344)"><use xlink:href="#AJ" class="B"/><g clip-path="url(#n)"><use xlink:href="#AB" fill="#a6dd8b"/></g><path fill="#aac3e7" d="M158.53 85.344c-4.76-.015-9.03.968-11.53 3.156-8 7-35 .75-48.5 7s-13.25 38-14.75 44.5-17.5 20.75-20 23.5-13.25 7.25-19.5 8.5-12.75 7.25-15.5 11c-2.021 2.76-7.406 6.45-10.125 8.22-.046.18-.079.35-.125.53-.134.53-.247 1.08-.375 1.63 4.98-1.61 11.18-8.18 16.625-13.63 6.25-6.25 20-7.75 27.75-11.5S76.75 148.5 89 144.5s21.25 11.75 24.25 18.5 1.75 12.75 3.75 17 11 11.75 11.5 13.5-5 6.5-6.25 8.5-10.5 7-11.75 8.75c-.97 1.35-1.92 6.77-2.31 9.22l1.12-.47c.49-2.53 1.52-7.08 2.94-8.5 2-2 11.25-4.5 12.5-8.5s7-6.5 7-6.5 2.75 4 16 14c8.83 6.67 12.76 15.53 14.41 20.72l2.03.53c-1.22-4.32-4.84-16.24-8.94-20.75-5-5.5-18.5-10.75-22.75-22S108 154.25 115 148.25s16.5-4 28.5 7.5 46.25 5.75 57.75 3.75c9.95-1.73 20.83 14.88 23.91 26.03l1.65-5.75c-1.74-1.92-3.69-4.62-5.31-8.28-3.75-8.5-12-13.25-12-13.25s8.75-5 14.75-7.75c1.62-.74 3.01-1.68 4.19-2.66l-.44-2.09-.09-.44c-4.77 5.56-19.24 9.62-21.66 10.94-2.75 1.5-18.25 3-35.75 4.5s-26.75-7.5-34.25-14.75-13-36-3-38 20 13.75 30 17 21.5-15.75 19.75-27c-1.2-7.734-14-12.625-24.47-12.656zm-53.34 13.281c1.27.001 5.86 1.595 6.56 2.375 2.25 2.5 2 7.25 0 8s-12.75 8-10.5 14.25 1.75 18-3.5 18-8 0-10-2.5-2-12 0-19.75 3.5-15 8-18.25c3.094-2.234 6.63-2.128 9.44-2.125zm13.59 73.095c.2.01 1.91 3.51 4.72 7.03 3 3.75 3.25 8.25 3.25 8.25s-4.25-4.75-6-8-2-7.25-2-7.25c0-.03.02-.03.03-.03z"/><g stroke="#6d7f42" fill="none"><path d="M122.75 72.25c6.25.5 12.25-2.25 10.75-6.5s-12.5-7.25-13.25-3 2 10.5 2.5 9.5zm-14-15.5c-8.5-5.5-8.5-7.25-7-8s10.25 5 12.75 8-2.25 2-5.75 0z" class="C D"/><g clip-path="url(#o)"><use xlink:href="#AD" class="C D E"/><use xlink:href="#AE" class="C"/><g class="D E"><use xlink:href="#AF" class="C"/><use xlink:href="#AG" class="C"/></g></g></g><g clip-path="url(#p)" stroke="#d38484" fill="none" stroke-width="2" class="E"><use xlink:href="#AH"/><use xlink:href="#AI"/></g><use xlink:href="#AJ" fill="url(#h)" class="G"/><g opacity=".27" transform="translate(0 192)"><path fill="url(#K)" d="M219.25-182s-24.25 9-31.75 10.5-21 5.25-21 5.25c4.92-1.36 11.44 45.39 14.25 52.25l-.06.28c11.81-4.07 51.21-4.77 54.31-12.78 0 0-4.75-15.25-7.5-29.75S219.25-182 219.25-182z"/><path fill="url(#M)" d="M27-126.5s-5.5 12.75-8.25 24.75-5.75 23-5.75 23l50.625 16.281 15.781-58.911L27-126.5z"/><path fill="url(#N)" d="M26-24.5S22-14.25 18.5-.25s-5 30.75-5 30.75.147-.045.438-.094c2.033-.338 11.218-1.5 28.062 1.344 19.25 3.25 32.25 6 32.25 6l1.469-52.5-.75.125L26-24.5z"/><path fill="url(#O)" d="M114.75-180.25s-3.25 3.5-22 8-27.5 5.75-27.5 5.75c5.182 14.7 12.03 29.27 14.25 44.75l-.094.31 48.034-3.94 1.12.26c-3.36-13.33-7.79-54.6-13.81-55.13z"/><path fill="url(#P)" d="M117.59-78.094 63.969-62.375l-.344-.094L63.5-62l12.25 46.5-.031.75 49.471-8.875.53.187.03-.062-8.25-54.25.09-.344z"/><path fill="url(#Q)" d="M128.56-125.12l.69 2.37-11.66 44.656.1-.031L169.5-60.75l11.19-52.97-1 .38-51.13-11.78z"/><path fill="url(#R)" d="M125.53-23.5L114.5 25s5.5.5 22.5 6.25l6.12 2.031L148.75 35c10.62 3.199 17.5 4.75 17.5 4.75l12.72-45.406-1.53.562L125.53-23.5z"/><path fill="url(#S)" d="M218-76c-15.67 6.288-31.7 11.15-48.06 15.406l-.44-.156 9.5 55-.03.094c17.84-6.36 35.38-13.387 52.78-20.844 0 0-.5-4.5-3.75-19.75S218-76 218-76z"/></g><g opacity=".043" transform="translate(0 192)"><path fill="url(#C)" d="M13.719-179.97l-2.719.06-1.156.07c-.03 0-.066-.01-.094 0l-.75.09s7.5 13 11.75 27.75S27-126.5 27-126.5l51.469 5.12.937-.06.094-.31c-2.22-15.48-9.068-30.05-14.25-44.75 0 0-18.5-9-31.5-11.5a89.62 89.62 0 0 0-3-.53l-1.75-.28c-.237-.04-.453-.06-.688-.1a98.77 98.77 0 0 0-3.812-.46c-.735-.08-1.395-.13-2.094-.19l-2-.16c-.992-.07-1.89-.12-2.781-.15-1.456-.07-2.769-.1-3.906-.1z"/><path fill="url(#D)" d="M13-78.75s5.75 16 9.25 30S26-24.5 26-24.5l48.969 9.875.75-.125.031-.75L63.5-62l.125-.469L13-78.75z"/><path fill="url(#E)" d="m127.44-125.38-47.971 4h-.063L63.625-62.469l.344.094 53.621-15.719 11.66-44.656c-.22-.63-.45-1.45-.69-2.37l-1.12-.26z"/><path fill="url(#F)" d="M125.19-23.625 75.719-14.75l-1.469 52.5S87 35 98.25 31.5 114.5 25 114.5 25l11.22-48.438-.53-.187z"/><path fill="url(#G)" d="M114.75-180.25c6.02.53 10.45 41.8 13.81 55.13l51.13 11.78a12.43 12.43 0 0 1 1-.38l.06-.28c-2.81-6.86-9.33-53.61-14.25-52.25l-1.72-.72c-3.32-1.39-11.09-4.59-20.28-7.78-12.25-4.25-29.75-5.5-29.75-5.5z"/><path fill="url(#H)" d="M117.69-78.125l-.1.031-.09.344 8.25 53.25-.22 1 51.91 18.406 1.53-.562.03-.094-9.5-55-51.81-17.375z"/><path fill="url(#I)" d="M231.75-26.5c-17.4 7.457-34.94 14.484-52.78 20.844L166.25 39.75l26-5.75c13-3 26.5-8 26.5-8S218 21 223 1.5s8.75-28 8.75-28z"/><path fill="url(#J)" d="M235-126.5c-3.1 8.01-42.5 8.71-54.31 12.78L169.5-60.75l.44.156C186.3-64.85 202.33-69.712 218-76c0 0 1.75-10.5 6.75-23.75L235-126.5z"/></g></g><use xlink:href="#AA" clip-path="url(#r)" transform="matrix(1 .08088 0 1 0 -21.056)" filter="url(#x)" class="F"/><path d="M48.01 227.46l-4.807 4.55-15.08-16.13 4.491-4.07c6.829 6.53 8.872 8.53 15.396 15.65z" fill="url(#Z)"/><path d="M-95.5 225c28.719 0 52 23.28 52 52s-23.281 52-52 52-52-23.28-52-52 23.28-52 52-52z" class="H I"/><path d="M-82 136c-27.61 0-50-22.39-50-50s22.39-50 50-50 50 22.386 50 50-22.386 50-50 50zm0-3c26.51 0 48-20.49 48-47s-21.49-47-48-47-48 20.49-48 47 21.49 47 48 47z" class="F"/><path fill="#9eaaac" d="M-82 136c-27.61 0-50-22.39-50-50v-.5c.27 27.38 22.55 49.5 50 49.5s49.729-22.12 50-49.5v.5c0 27.61-22.386 50-50 50zm-48-50.5V85c0-26.51 21.49-47 48-47s48 20.49 48 47v.5C-34.27 59.234-55.658 39-82 39s-47.73 20.234-48 46.5z"/><use xlink:href="#AK" class="H I"/><use xlink:href="#AK" fill="url(#s)"/><path fill="url(#V)" d="M-96.438 130.72l-.843 5a52.1 52.1 0 0 0 30.562 0l-.843-5C-72.115 132.19-76.959 133-82 133s-9.885-.81-14.438-2.28z"/><path fill="url(#U)" d="M-82 136.25c1.757 0 3.431.3 5 .81v26.63c-1.569.51-3.243.81-5 .81s-3.431-.3-5-.81v-26.63c1.569-.51 3.243-.81 5-.81z"/><path d="M-82 150.5c3.514 0 5.613.65 8 2.44v67.12c-3.137.91-4.486 1.44-8 1.44s-4.863-.53-8-1.44v-67.12c2.637-1.79 4.486-2.44 8-2.44z" fill="url(#X)"/><path d="M-82 154.5c3.514 0 7.238.78 10 2.44v65.12c-2.012 1.79-6.486 2.44-10 2.44s-7.863-.15-10-2.44v-65.12c1.887-1.66 6.486-2.44 10-2.44z" fill="url(#W)"/><path d="M-82 217.5c3.514 0 5.863.78 8 2.44v5.12c-2.387 1.54-4.486 2.44-8 2.44s-5.738-.9-8-2.44v-5.12c2.387-1.91 4.486-2.44 8-2.44z" fill="url(#Y)"/><path fill="#e0bb41" d="M-82 221.5c-3.514 0-5.613.28-8 2.44v1.12c2.262 1.54 4.486 2.44 8 2.44s5.613-.9 8-2.44v-1.12c-2.512-2.04-4.486-2.44-8-2.44z"/><path d="M125.06 134.69c-27.176-27.18-27.176-71.251 0-98.431s71.25-27.18 98.43 0 27.18 71.251 0 98.431-71.25 27.18-98.43 0zm2.96-2.96c26.09 26.1 67.41 27.08 93.5.99 26.1-26.1 25.11-67.416-.98-93.509s-67.41-27.077-93.51-.984c-26.09 26.093-25.11 67.413.99 93.503z" class="F"/><path fill="#9eaaac" d="M125.06 134.69c-27.176-27.18-27.176-71.251 0-98.431l.5-.493c-26.689 27.218-26.526 70.924.49 97.934 27.01 27.02 70.72 27.18 97.93.49-.16.17-.32.33-.49.5-27.18 27.18-71.25 27.18-98.43 0zm2.46-96.955l.5-.492c26.09-26.093 67.41-25.109 93.5.984 26.1 26.093 27.08 67.413.99 93.503l-.5.5c25.59-26.12 24.46-67.091-1.47-93.019s-66.9-27.063-93.02-1.476z"/><use xlink:href="#AL" class="H I"/><use xlink:href="#AL" fill="url(#t)"/><path fill="url(#d)" d="m116.05 115.28-5.75 4.09c3.3 6.21 7.56 12.05 12.8 17.28 5.23 5.24 11.07 9.5 17.28 12.8l4.09-5.75c-5.92-3.04-11.49-7.01-16.45-11.97s-8.93-10.53-11.97-16.45z"/><path fill="url(#c)" d="M124.82 134.93c1.73 1.73 3.08 3.67 4.12 5.72l-26.21 26.21a22.302 22.302 0 0 1-5.718-4.12 22.268 22.268 0 0 1-4.121-5.72l26.209-26.21c2.05 1.04 3.99 2.39 5.72 4.12z"/><path d="M116.27 159.23 50.199 225.3c-3.984-2.19-5.832-3-9.29-6.46s-4.267-5.3-6.459-9.29l66.07-66.07c5.06 3.75 12.12 10.4 15.75 15.75z" fill="url(#b)"/><path d="M105.78 154.12c3.46 3.46 7.43 6.66 8.52 11.02l-64.101 64.1c-6.517-5.16-14.555-12.79-19.686-19.69l64.1-64.1c3.491.23 7.657 5.16 11.117 8.62l.05.05z" fill="url(#a)"/><path opacity=".596" d="M105.53 154.36c3.46 3.46 7.68 6.42 8.77 10.78l-64.101 64.1c-7.877-6.91-11.798-10.63-19.686-19.69l64.1-64.1c3.491.23 7.417 5.45 10.877 8.91h.04z" fill="url(#e)"/><path opacity=".604" d="M131.17 37.05c40.66-32.173 78.13-12.728 77.78 5.303s-56.57 70.357-76.37 66.117-25.45-53.389-1.41-71.42z" fill="url(#f)"/><text opacity=".461" font-weight="bold" xml:space="preserve" transform="rotate(351.1)" font-size="19.8" y="69.184" x="99.839" fill="url(#v)" class="J"><tspan y="69.184" x="99.839">01011001</tspan><tspan y="93.934" x="99.839">00110101</tspan><tspan y="118.684" x="99.839">10010011</tspan></text><text font-weight="bold" xml:space="preserve" transform="rotate(351.1)" font-size="19.8" y="67.898" x="99.41" fill="url(#u)" class="J"><tspan y="67.898" x="99.41">01011001</tspan><tspan y="92.648" x="99.41">00110101</tspan><tspan y="117.398" x="99.41">10010011</tspan></text><path opacity=".765" d="M219.46 129.09c-26.79 21.98-41.81 21.01-38.07 13.14 3.73-7.87 42.32-41.66 51.45-43.75 9.12-2.093 2.27 18.04-13.38 30.61z" fill="url(#g)"/></svg>