<svg width="299" height="299" xmlns="http://www.w3.org/2000/svg" version="1.1"><g><path fill="#E7704D" d="m147.10192,232.82683c-27.4,0 -54.9,0 -82.3,0c-7.9,0 -11.8,-3.5 -11.7,-10.3c0.1,-6 3.8,-9.6 10.3,-9.6c12.6,-0.1 25.2,0 37.8,-0.1c7.2,0 11.1,-3.3 11.2,-9.2c0.1,-6.6 -3.8,-10.1 -11.3,-10.1c-18.9,0 -37.8,0 -56.7,0c-7.1,0 -11.3,-3.6 -11.3,-9.7c0,-6.2 3.9,-9.7 11.2,-9.8c6.7,-0.2 10.9,-3.9 10.9,-9.7c0,-6 -3.9,-9.6 -10.9,-9.6c-11.1,-0.1 -22.3,0 -33.4,0c-7.2,0 -11,-3.6 -10.9,-10c0.1,-6.1 3.8,-9.6 10.9,-9.5c4.1,0.1 5.4,-0.7 5,-5.3c-4,-47.7 13.5,-85.5 53.7,-112c21.2,-14 45,-19.8 70.5,-17.4c49.5,4.7 82.9,30.9 101,76.7c6.4,16.2 8.4,33.4 6.2,50.9c-0.9,7 -0.8,7.1 6.2,7c6.6,0 13.2,0 19.9,0c7,0.1 10.5,3.4 10.5,9.7c0,6.3 -3.7,9.8 -10.5,9.8c-31.2,0 -62.3,0 -93.5,0c-4.3,0 -8.7,-0.3 -11.5,4.4c-3.9,6.5 0,14.4 7.5,15c1.1,0.1 2.3,0 3.4,0c6.3,0.1 10.2,4 10.2,9.9c-0.1,5.8 -4.1,9.6 -10.4,9.7c-3.4,0.1 -6.8,-0.1 -10.2,0c-5.8,0.2 -9.9,4.2 -9.9,9.6c0,5.8 3.9,9.6 10.3,9.7c20.3,0.1 40.7,0.1 61,0c4.7,0 8.7,1.3 10.7,5.9c3.1,6.8 -1.6,13.9 -9.5,14.1c-11.6,0.2 -23.2,0 -34.9,0c-16.6,-0.1 -33.1,-0.1 -49.5,-0.1z" /><path fill="#E27353" d="m278.80192,173.92683c3.4,0 6.8,-0.1 10.2,0c5.3,0.1 9.7,4.4 9.8,9.3c0.1,5.6 -3.9,10.1 -9.4,10.2c-7.3,0.2 -14.5,0.2 -21.8,0c-5.3,-0.2 -8.7,-4.1 -8.8,-9.5c-0.1,-5.7 3.3,-9.6 9,-9.9c3.6,-0.2 7.3,0 11,-0.1c0,0.1 0,0 0,0z"/><path fill="#E27353" d="m223.00192,193.42683c-3.7,0 -7.4,0.2 -11.1,0c-5.2,-0.3 -8.7,-4.3 -8.7,-9.6c0,-5.5 3.4,-9.5 8.6,-9.7c7.4,-0.2 14.8,-0.2 22.2,0c5.4,0.1 9.2,4.5 9,9.9c-0.1,5.3 -3.8,9.2 -9,9.5c-3.6,0.1 -7.3,0 -11,-0.1c0,0.1 0,0.1 0,0z"/></g></svg>