<svg xmlns="http://www.w3.org/2000/svg" width="600.412" height="600.412" viewBox="-1.734 -1.734 51.159 51.135"><path d="M49.425 12.328a23.32 23.32 0 00-2.004-3.4l-8.212 2.989a15.351 15.351 0 012.414 3.25zM13.122 21.41L4.907 24.4a23.89 23.89 0 00.651 3.894l7.804-2.842a15.271 15.271 0 01-.24-4.04" fill="#c22133"/><path d="M31.353 10.001a15.205 15.205 0 014.438 3.16l8.212-2.988a23.35 23.35 0 00-9.17-7.632C23.093-2.934 9.085 2.164 3.611 13.904A23.32 23.32 0 001.49 25.645l8.213-2.989a15.19 15.19 0 011.367-5.273C14.627 9.755 23.726 6.445 31.353 10M40.113 25.01a15.063 15.063 0 01-1.379 5.273c-3.556 7.629-12.656 10.939-20.282 7.383a15.11 15.11 0 01-4.446-3.155l-8.197 2.982a23.294 23.294 0 009.164 7.634c11.741 5.474 25.746.376 31.221-11.365a23.254 23.254 0 002.115-11.735z" fill="#db212e"/><path d="M42.133 14.982l-7.804 2.84a15.311 15.311 0 011.91 8.595l8.196-2.98a23.665 23.665 0 00-2.302-8.455M6.07 28.106l-7.804 2.843a23.758 23.758 0 003.67 7.955l8.195-2.984a15.34 15.34 0 01-4.061-7.814" fill="#eb2126"/><path d="M48.236 10.164a22.41 22.41 0 00-.814-1.236l-8.213 2.989c.362.37.694.762 1.012 1.165zM13.09 23.061c-.02-.548-.012-1.098.031-1.65l-8.215 2.99c.042.526.109 1.048.187 1.57l7.997-2.91z" fill="#ad213b"/><path d="M48.309 22.027l-8.196 2.982a14.996 14.996 0 01-.693 3.525l8.921-3.252c.064-1.09.054-2.178-.032-3.255M5.81 37.494c.631.89 1.33 1.737 2.089 2.537l8.922-3.254a15.164 15.164 0 01-2.816-2.266z" fill="#ba2133"/></svg>