<svg width="32" height="32" fill="none" xmlns="http://www.w3.org/2000/svg"><path fill-rule="evenodd" clip-rule="evenodd" d="M29.153 6.888A15.926 15.926 0 0132 16c0 3.387-1.052 6.527-2.847 9.113l-4.144-4.145A10.24 10.24 0 0026.286 16c0-1.801-.463-3.495-1.277-4.967l4.144-4.145z" fill="#8FC7FF"/><path fill-rule="evenodd" clip-rule="evenodd" d="M25.113 2.847L20.968 6.99A10.239 10.239 0 0016 5.714C10.32 5.714 5.714 10.32 5.714 16c0 5.68 4.605 10.286 10.286 10.286 1.802 0 3.495-.463 4.968-1.277l4.145 4.144A15.927 15.927 0 0116 32C7.164 32 0 24.837 0 16 0 7.164 7.164 0 16 0c3.386 0 6.526 1.052 9.113 2.847z" fill="#297EFF"/></svg>