<svg xmlns="http://www.w3.org/2000/svg" viewBox="0 0 38.541 37.737"><path d="M12.834 20.71v4.542a13.049 13.049 0 0 0 9.123-3.715 12.566 12.566 0 0 0 3.785-8.953h-4.627a8.062 8.062 0 0 1-2.429 5.743 8.371 8.371 0 0 1-5.852 2.384z" fill="#3be081"/><path d="M12.833 33.22c-2.18 0-4.27-.85-5.811-2.362a7.99 7.99 0 0 1-2.408-5.704c0-2.139.866-4.19 2.408-5.703a8.297 8.297 0 0 1 5.81-2.362V12.58c-1.682-.002-3.35.32-4.905.95a12.836 12.836 0 0 0-4.162 2.722 12.567 12.567 0 0 0-2.784 4.076 12.377 12.377 0 0 0-.014 9.627 12.565 12.565 0 0 0 2.772 4.085 12.834 12.834 0 0 0 4.154 2.733c1.554.634 3.22.962 4.903.964h.037z" fill="#0037ff"/><path d="M12.834 33.22v4.508c3.399 0 6.659-1.325 9.062-3.684a12.461 12.461 0 0 0 3.754-8.895h-4.598a8 8 0 0 1-2.408 5.704 8.308 8.308 0 0 1-5.81 2.367z" fill="#0cf"/><path d="M12.834 8.07v4.508c3.399 0 6.659-1.325 9.062-3.684A12.461 12.461 0 0 0 25.65 0h-4.598a8 8 0 0 1-2.408 5.704 8.308 8.308 0 0 1-5.81 2.367z" fill="#861dff"/><path d="M25.725 8.07v4.508c3.399 0 6.659-1.325 9.062-3.684A12.46 12.46 0 0 0 38.541 0h-4.596a8 8 0 0 1-2.409 5.704 8.308 8.308 0 0 1-5.811 2.367z" fill="#ff8110"/></svg>