<?xml version="1.0" encoding="UTF-8"?>
<svg width="1024px" height="1024px" viewBox="0 0 1024 1024" version="1.1" xmlns="http://www.w3.org/2000/svg" xmlns:xlink="http://www.w3.org/1999/xlink">
    <title>sidebar-logo</title>
    <defs>
        <linearGradient x1="2.40234039e-14%" y1="0%" x2="100%" y2="100%" id="linearGradient-1">
            <stop stop-color="#9B5FFF" offset="0%"></stop>
            <stop stop-color="#6D28D9" offset="100%"></stop>
        </linearGradient>
        <linearGradient x1="-2.04422511e-13%" y1="0%" x2="100%" y2="100%" id="linearGradient-2">
            <stop stop-color="#9B5FFF" offset="0%"></stop>
            <stop stop-color="#6D28D9" offset="100%"></stop>
        </linearGradient>
        <linearGradient x1="4.1809582e-13%" y1="0%" x2="100%" y2="100%" id="linearGradient-3">
            <stop stop-color="#9B5FFF" offset="0%"></stop>
            <stop stop-color="#6D28D9" offset="100%"></stop>
        </linearGradient>
        <linearGradient x1="0%" y1="-2.83713738e-13%" x2="100%" y2="100%" id="linearGradient-4">
            <stop stop-color="#9B5FFF" offset="0%"></stop>
            <stop stop-color="#6D28D9" offset="100%"></stop>
        </linearGradient>
        <linearGradient x1="-5.34553817e-13%" y1="0%" x2="100%" y2="100%" id="linearGradient-5">
            <stop stop-color="#9B5FFF" offset="0%"></stop>
            <stop stop-color="#6D28D9" offset="100%"></stop>
        </linearGradient>
        <linearGradient x1="-1.25904494e-13%" y1="0%" x2="100%" y2="100%" id="linearGradient-6">
            <stop stop-color="#22D3EE" offset="0%"></stop>
            <stop stop-color="#0891B2" offset="100%"></stop>
        </linearGradient>
        <linearGradient x1="0%" y1="2.08923188e-13%" x2="100%" y2="100%" id="linearGradient-7">
            <stop stop-color="#22D3EE" offset="0%"></stop>
            <stop stop-color="#0891B2" offset="100%"></stop>
        </linearGradient>
        <linearGradient x1="-1.08239704e-13%" y1="0%" x2="100%" y2="100%" id="linearGradient-8">
            <stop stop-color="#22D3EE" offset="0%"></stop>
            <stop stop-color="#0891B2" offset="100%"></stop>
        </linearGradient>
        <linearGradient x1="0%" y1="2.51735774e-13%" x2="100%" y2="100%" id="linearGradient-9">
            <stop stop-color="#22D3EE" offset="0%"></stop>
            <stop stop-color="#0891B2" offset="100%"></stop>
        </linearGradient>
        <linearGradient x1="1.58872642e-13%" y1="0%" x2="100%" y2="100%" id="linearGradient-10">
            <stop stop-color="#22D3EE" offset="0%"></stop>
            <stop stop-color="#0891B2" offset="100%"></stop>
        </linearGradient>
        <linearGradient x1="1.80996488e-13%" y1="0%" x2="100%" y2="100%" id="linearGradient-11">
            <stop stop-color="#22D3EE" offset="0%"></stop>
            <stop stop-color="#0891B2" offset="100%"></stop>
        </linearGradient>
        <linearGradient x1="-4.76219557e-13%" y1="0%" x2="100%" y2="100%" id="linearGradient-12">
            <stop stop-color="#22D3EE" offset="0%"></stop>
            <stop stop-color="#0891B2" offset="100%"></stop>
        </linearGradient>
        <linearGradient x1="-3.64421579e-13%" y1="0%" x2="100%" y2="100%" id="linearGradient-13">
            <stop stop-color="#22D3EE" offset="0%"></stop>
            <stop stop-color="#0891B2" offset="100%"></stop>
        </linearGradient>
        <linearGradient x1="9.05787496e-14%" y1="0%" x2="100%" y2="100%" id="linearGradient-14">
            <stop stop-color="#22D3EE" offset="0%"></stop>
            <stop stop-color="#0891B2" offset="100%"></stop>
        </linearGradient>
    </defs>
    <g id="sidebar-logo" stroke="none" fill="none" fill-rule="evenodd" stroke-width="1">
        <g id="Group" transform="translate(202, 147)">
            <g id="Path">
                <path d="M497.807938,429.587611 C538.406333,470.081859 578.473378,510.043166 618.354518,549.81912 C614.783702,555.45937 610.501867,554.144746 606.885187,554.150069 C568.597445,554.205922 530.309309,553.997448 492.022214,554.13864 C484.435368,554.166696 478.666015,551.894256 473.206247,546.392597 C446.989596,519.97501 420.548451,493.774666 393.832021,467.863194 C388.219085,462.419534 387.527813,458.306801 391.697273,451.56657 C415.941181,412.375647 429.0447,370.203207 426.617646,323.480822 C425.406067,300.154181 426.719627,276.703689 426.522419,253.312364 C426.467724,246.831395 428.281974,241.935549 432.920294,237.271298 C446.662601,223.451563 460.091425,209.31288 473.382151,195.055802 C477.561226,190.57288 482.259826,188.239846 488.277187,188.230882 C529.400563,188.169898 570.52381,188.085469 611.647186,188.059377 C614.077618,188.059377 616.69201,188.01195 619.2,191.978558 C561.686146,253.089729 503.877782,314.513808 444.431327,377.678426 C462.839497,395.574914 480.057912,412.314793 497.807938,429.587611 Z" fill="url(#linearGradient-1)"></path>
                <path d="M2.05533673,352.285157 C1.40102591,345.002761 0.388735625,338.666945 0.369249102,332.328014 C0.205945441,279.174018 0.432127461,226.017817 0.00191696952,172.866615 C-0.0774616104,163.055959 2.27716595,159.218659 12.8972486,159.246261 C59.6448,159.367968 106.394039,158.601224 153.143604,158.275718 C166.814197,158.180507 167.411283,158.92147 167.454674,172.751792 C167.505861,189.052181 166.913518,205.379202 167.675007,221.644392 C168.189273,232.627832 163.903085,236.046103 153.443835,235.465297 C141.431529,234.798243 129.351668,235.328003 117.301296,235.368789 C103.065771,235.416978 103.100913,235.43133 103.109488,249.439537 C103.15801,328.815765 103.205039,408.191991 103.177692,487.568218 C103.176264,491.69641 104.201285,496.061654 101.640485,499.887912 C65.4000566,494.343974 11.2936536,414.494621 2.05533673,352.285157 Z" fill="url(#linearGradient-2)"></path>
                <path d="M409.875494,338.841065 C408.454755,374.507011 399.070414,406.824437 381.49967,436.714527 C375.776047,446.45108 373.912691,446.694689 365.703295,438.823759 C346.768584,420.66989 328.024067,402.317029 309.00985,384.24733 C303.867917,379.360772 301.006691,374.783678 305.094889,367.664557 C308.017176,362.575888 306.74129,356.548888 306.742459,350.92377 C306.759219,268.327874 306.682179,185.731913 306.734924,103.136081 C306.737653,98.7103762 305.435264,93.9928046 308.19152,89.826817 C312.373194,88.9191389 315.12737,91.5134482 317.926369,93.4725274 C376.910067,134.758396 410.916106,189.527519 409.886926,263.369096 C409.541226,288.178377 409.863542,312.996944 409.875494,338.841065 Z" fill="url(#linearGradient-3)"></path>
                <path d="M288.885126,149.685581 C288.88558,168.341803 288.88558,185.933958 288.88558,203.209829 C283.78639,204.485357 282.471336,201.429611 280.77914,199.437995 C259.105126,173.92938 231.249935,162.280642 198.136602,163.063169 C188.869833,163.2821 182.703269,161.664439 183.723937,150.609949 C184.490821,142.303561 179.021504,141.835368 172.724441,141.847643 C125.903099,141.939086 79.0813666,141.91577 32.2600263,141.814586 C28.1855316,141.805752 23.8212635,143.080437 20.1802934,140.47632 C19.277066,138.123023 20.6871538,136.826452 21.8272782,135.55599 C82.2538022,68.2168118 187.845851,41.1121669 272.363113,71.2211227 C288.930466,77.1231019 288.920722,77.1231677 288.906013,94.3604606 C288.886491,112.447501 288.890192,130.534476 288.885126,149.685581 Z" fill="url(#linearGradient-4)"></path>
                <path d="M306.864448,24.1849216 C307.088681,-2.59564719 303.8787,0.361187256 329.317361,0.174990645 C352.706824,0.00379310507 376.100833,0.298449939 399.487827,0.00236512882 C407.23655,-0.0957672715 410.198591,2.85041587 410.172945,10.6009368 C410.005797,60.5622802 410.120122,110.524466 410.072964,160.486329 C410.070755,162.797152 410.771512,165.512454 408.180767,167.198373 C404.795726,167.652146 404.067688,164.855988 403.011357,162.81222 C383.40499,124.877145 354.008303,96.259271 317.794376,74.4930077 C309.735029,69.6488592 306.149922,64.3350254 306.792996,54.9925598 C307.472447,45.1198174 306.894718,35.1605024 306.864448,24.1849216 Z" fill="url(#linearGradient-5)"></path>
            </g>
            <g id="Path">
                <path d="M155.578779,422.085766 C155.588651,393.378202 155.806646,365.732105 155.472249,338.092763 C155.379554,330.432255 157.704821,327.346179 165.672644,327.293964 C173.940958,327.239865 173.730431,332.215983 173.714582,337.777648 C173.637869,364.712072 173.589475,391.646563 173.505745,418.580987 C173.489961,423.656925 173.337312,428.288963 179.870559,430.27415 C188.971165,433.039461 191.646875,431.771724 191.663049,422.176039 C191.733203,380.35671 191.522289,338.536861 191.617906,296.717725 C191.630247,291.295691 189.513557,287.488007 186.087268,283.541274 C179.034822,275.41777 179.705633,264.908108 187.098975,257.856725 C194.153048,251.128962 206.94958,251.141563 214.327917,257.883545 C221.605247,264.533244 222.868335,274.740454 215.762623,282.622685 C210.669148,288.272678 209.724478,294.111205 209.747409,301.018994 C209.880311,341.065769 209.898303,381.113258 209.808144,421.160163 C209.791709,428.462757 210.767753,433.996042 220.262586,432.581856 C225.310459,431.829916 227.907507,429.704772 227.875548,424.395551 C227.779605,408.448267 227.778307,392.499556 227.891137,376.552466 C227.91894,372.625023 225.558335,370.072927 223.663411,367.095959 C217.932836,358.0929 219.606715,347.468284 227.483467,341.532079 C235.202114,335.714916 248.376306,337.34797 254.479213,344.878391 C261.052214,352.988775 260.566075,362.888989 251.949788,370.371936 C247.050793,374.626641 245.639083,379.045072 245.792057,385.111168 C246.119376,398.096942 245.89235,411.096676 245.89235,426.854383 C262.494715,419.172639 275.755235,411.492453 285.542374,399.132171 C290.905224,392.359467 294.254733,392.295236 300.401355,398.47869 C319.133919,417.323838 338.431221,435.617273 357.810757,453.803615 C363.074872,458.743753 363.568676,462.382841 358.405633,467.693363 C323.300782,503.800224 281.35388,525.952848 230.909624,531.33539 C210.304934,533.533795 189.943638,532.067846 169.533558,529.027622 C159.440993,527.524138 155.138628,523.410754 155.397093,512.453683 C156.098889,482.700883 155.600732,452.919772 155.578779,422.085766 Z" fill="url(#linearGradient-6)"></path>
                <path d="M609.353683,675.48539 C616.40581,680.926646 617.659867,687.657326 616.290053,695.066174 C615.216317,700.873594 611.290315,705.756576 605.733499,705.324302 C598.532885,704.764085 590.509915,705.247795 584.258453,702.728304 C576.900379,699.762768 569.943221,699.440376 562.61568,699.424531 C525.398688,699.344126 488.180266,699.236318 450.965095,699.512078 C443.658079,699.566242 438.092172,697.367842 432.987591,692.289754 C412.639804,672.048216 392.160026,651.937997 371.578787,631.933637 C366.414962,626.914526 364.101064,621.35208 364.143806,614.035589 C364.371285,575.054568 364.420394,536.069654 364.079428,497.08993 C363.989338,486.432322 369.158229,480.233866 378.668064,474.840216 C381.504998,485.225381 381.675575,494.978558 381.749626,504.643603 C382.01309,539.017267 382.174574,573.393917 381.962425,607.767058 C381.914877,615.472445 384.300747,621.187642 389.814949,626.49745 C407.173152,643.212062 424.195787,660.275429 441.31482,677.237616 C444.433277,680.327722 447.669565,682.322323 452.463523,682.284005 C491.09424,681.974477 529.726906,681.879658 568.359053,681.827309 C574.204666,681.819384 579.098136,680.674008 583.91652,676.658563 C591.365789,670.45069 600.052099,670.062576 609.353683,675.48539" fill="url(#linearGradient-7)"></path>
                <path d="M352.557552,646.614552 C364.878731,658.978469 376.709091,670.703587 388.440459,682.526899 C393.197131,687.320914 398.082418,691.20335 404.963185,693.30732 C416.028482,696.690845 421.439011,707.9442 418.198176,717.734592 C415.462187,725.999414 405.284592,731.134781 395.499078,729.187589 C386.136952,727.324694 380.39722,718.697995 382.260317,707.218762 C383.110085,701.9826 380.889724,699.170986 377.883255,696.163104 C364.354527,682.627824 350.915699,668.997341 337.137146,655.720157 C332.450108,651.203597 330.189733,646.350226 330.202726,639.841397 C330.280284,600.859334 330.456708,561.872208 329.883266,522.897293 C329.717757,511.649136 338.035242,509.367475 344.260723,504.323683 C349.795581,508.065187 348.098384,513.102874 348.114363,517.373165 C348.255449,554.937336 348.14866,592.502549 348.229856,630.066979 C348.241808,635.611627 347.082846,641.581411 352.557552,646.614552 Z" fill="url(#linearGradient-8)"></path>
                <path d="M29.4950004,672.556608 C15.5407386,677.298014 4.43055551,672.902122 0.900336139,661.956216 C-2.38246079,651.777451 3.59189642,641.427749 14.4593334,637.867834 C20.9738728,635.733854 26.6435165,637.693258 31.2790442,641.680517 C36.5863579,646.245403 42.3332347,647.203867 48.93774,647.05787 C61.6893864,646.775875 74.46,646.679496 87.2056718,647.067874 C94.3990123,647.286998 100.078854,645.423581 105.314648,640.25172 C119.42591,626.313005 133.786997,612.614846 148.39057,599.192578 C154.108994,593.936803 156.502661,588.105096 156.096876,580.438157 C155.62938,571.603373 155.818274,562.726891 155.939615,553.871323 C155.992944,549.981091 156.101552,545.064984 161.638227,545.647027 C166.493505,546.157104 173.463458,545.608056 173.669243,553.175237 C174.044563,566.977958 173.754596,580.800941 173.618446,594.614184 C173.575769,598.937078 170.367802,601.559054 167.579652,604.24559 C148.703271,622.433554 129.614938,640.405901 110.974224,658.831435 C105.141733,664.596509 98.4538886,664.912402 91.345188,664.354392 C77.5353264,663.270456 63.7701552,663.590246 49.9399603,664.107989 C42.0087091,664.405051 35.4364232,666.100128 29.4950004,672.556608 Z" fill="url(#linearGradient-9)"></path>
                <path d="M119.712696,377.395653 C119.677683,364.285901 119.628381,352.240213 119.623315,340.194463 C119.619222,330.367116 120.277562,320.918208 113.718592,311.875076 C108.213876,304.285621 111.698494,293.257692 118.756983,288.187274 C126.019113,282.970532 137.916186,284.293277 144.084763,291.003178 C150.011246,297.449984 150.597029,308.149741 143.948353,315.254966 C138.777775,320.780523 137.736254,326.62639 137.756,333.589839 C137.918652,390.981975 137.921641,448.374568 137.93262,505.767029 C137.933333,509.581402 138.789663,513.544373 136.630296,517.100525 C122.531051,516.828533 119.939527,514.357488 119.905424,500.688557 C119.803766,459.945698 119.774795,419.202644 119.712696,377.395653 Z" fill="url(#linearGradient-10)"></path>
                <path d="M243.584882,708.327509 C232.552062,712.088885 224.627826,708.557285 218.839767,700.059955 C213.105491,691.64147 215.417506,683.754499 221.949259,676.956922 C225.871365,672.875102 225.879612,668.121749 225.873702,663.131731 C225.834077,629.447141 225.770616,595.762546 225.856358,562.078214 C225.866556,558.06095 224.683496,553.538414 229.619773,550.81824 C237.901599,546.254654 243.675367,549.694291 243.695829,559.81032 C243.764032,593.494133 243.711028,627.178334 243.607943,660.862147 C243.58787,667.42475 244.612113,672.655066 250.366005,677.549486 C260.814991,686.437522 257.842623,699.196445 243.584882,708.327509 Z" fill="url(#linearGradient-11)"></path>
                <path d="M163.408176,673.036944 C155.161624,667.908984 150.752277,661.413144 152.743923,652.243109 C154.624169,643.586275 159.854118,638.285822 168.94102,636.08508 C180.072834,633.389064 191.947821,616.687315 191.964255,605.067278 C191.985757,589.837056 191.902222,574.606709 191.854543,559.376357 C191.840512,554.913437 191.818882,550.634573 198.292628,550.946702 C203.749731,551.209862 209.471666,550.805899 209.504858,558.655723 C209.590342,578.84232 209.853417,599.033592 209.513172,619.214078 C209.370462,627.678154 201.516574,631.348613 196.314622,636.353827 C190.998475,641.468798 187.583555,645.852614 189.119007,654.426058 C191.637522,668.488949 180.104664,676.586602 163.408176,673.036944 Z" fill="url(#linearGradient-12)"></path>
                <path d="M302.439707,530.518896 C305.725233,529.189339 308.074858,527.03172 311.668539,529.136861 C311.863151,530.802062 312.309407,532.850568 312.311873,534.899597 C312.380339,591.23975 312.411648,647.57977 312.421132,703.919923 C312.422041,708.91981 312.928056,714.12337 305.300284,714.250531 C299.262595,714.351326 295.873007,712.528176 295.98155,705.906734 C296.144138,695.988398 295.982914,686.064739 295.982265,676.143418 C295.979342,632.20524 295.975705,588.266938 295.998763,544.328765 C296.001558,539.079096 295.094886,533.373638 302.439707,530.518896 Z" fill="url(#linearGradient-13)"></path>
                <path d="M260.644998,593.834318 C260.546069,581.546515 260.46234,570.253286 260.411477,558.959928 C260.345093,544.223165 261.358551,543.17351 277.998914,542.02008 C277.998914,561.695558 278.219639,581.306866 277.857634,600.907656 C277.75578,606.419054 272.586111,605.473056 268.829452,605.657242 C260.83123,606.049253 261.227273,600.070766 260.644998,593.834318 Z" fill="url(#linearGradient-14)"></path>
            </g>
        </g>
    </g>
</svg>