<svg xmlns="http://www.w3.org/2000/svg" width="1721.477" height="1721.477"><path d="M166.874 689.96c-34.893 4.582-67.538 11.615-97 32.297-84.996 59.664-94.19 192.247-18 263.19 43.425 40.434 105.675 52.53 163 44.807 24.312-3.276 47.812-11.773 69-24.002 81.61-47.102 103.878-162.058 53.305-239.716-34.966-53.692-106.631-84.936-170.305-76.575m1394 0c-24.78 3.254-48.23 5.946-71 17.328-53.44 26.72-80.66 106.687-32 152.157 29.32 27.396 71.29 31.68 109 37.844 18.67 3.052 67.9 6.773 62.53 35.246-3.17 16.82-21.79 23.376-36.53 26.195-35.1 6.715-71.98-4.465-104-18.196-9.7-4.16-28.29-19.18-39-13.82-13.88 6.946-22.45 30.18-27.57 43.821-1.98 5.257-4.07 12.595-1.25 17.96 4.3 8.174 18.94 12.88 26.82 16.792 48.03 23.847 108.11 32.65 161 24.821 22.78-3.373 45.62-10.645 65-23.268 46.93-30.56 67.87-106.785 22-148.134-27.54-24.826-66.02-30.402-101-37.17-18.55-3.59-38.73-5.659-56-13.783-7.63-3.587-16.17-9.724-15.73-19.218.7-14.932 17.27-22.14 29.73-24.79 30.06-6.391 62.29-.79 91 8.79 9.06 3.022 24.49 13.574 34 8.821 4.47-2.233 7.88-6.81 10.65-10.82 7.67-11.096 29.7-43.013 13.33-54.035-11.16-7.517-26.15-11.727-38.98-15.387-31.64-9.03-69.06-15.48-102-11.154m-456 1c-9.23 1.212-24.79-.141-31.49 7.8-6.26 7.427-2.51 27.506-2.51 36.775v101c0 36.768-3.94 75.614 8 111 23.87 70.712 99.91 90.327 167 83.83 16.39-1.587 32.7-5.109 48-11.23 11.02-4.409 21.59-9.966 31-17.265 60.72-47.124 47-131.648 47-199.335v-80c0-9.13 3.16-23.385-7-27.891-16.01-7.091-38.14-6.11-55-3.355-6.17 1.008-15.47 2.102-18.68 8.29-2.6 5.005-1.32 12.495-1.32 17.956v138c0 19.795 2.06 40.935-4.36 60-10.63 31.61-44.88 43.492-75.64 39.714-23.07-2.833-43.94-15.826-51.48-38.714-6.31-19.159-4.52-40.138-4.52-60v-139c0-5.682 1.46-13.917-1.86-18.892-7.07-10.619-35.99-10.147-47.14-8.683m-600 236.575c35.58 0 74.168 4.217 109-4.13 21.866-5.24 44.378-14.97 59.83-31.874 38.616-42.244 39.545-121.498-2.845-161.906-42.318-40.34-104.43-33.09-157.985-33.09h-66c-6.454 0-18.74-2.403-23.297 3.229-3.277 4.05-2.703 9.911-2.703 14.771v269c0 10.064-4.034 31.771 3.43 39.606 4.319 4.535 12.657 5.671 18.57 6.344 13.884 1.581 28.138 1.735 42-.235 6.308-.897 15.262-2.508 18.427-8.758 3.808-7.519 1.573-19.733 1.573-27.957v-65m330-158v235c0 6.015-1.356 14.021 3.279 18.725 4.099 4.161 11.208 5.15 16.72 6 14.572 2.251 30.438 2.2 45-.163 6.889-1.118 15.803-2.957 17.942-10.566 2.368-8.419 1.059-18.33 1.059-26.996v-222h69c7.34 0 20.45 2.5 26.67-2.009 4.53-3.28 5.55-9.877 6.53-14.99 2.56-13.421 2.43-27.635-.41-41-1.55-7.308-4.28-14.425-12.79-14.957-61.791-3.866-125.073-.044-187-.044h-55c-7.46 0-17.962-1.875-24.985.894-6.216 2.45-7.588 10.25-8.58 16.106-2.215 13.083-2.233 26.941.18 40 .908 4.913 2.097 11.216 6.493 14.258 6.209 4.296 19.613 1.742 26.892 1.742h69m-666-3.714c14.31-1.757 30.244-.518 44 3.74 66.465 20.573 85.552 111.793 37.575 160.69-14.826 15.108-34.76 23.441-55.575 25.998-14.675 1.802-30.94.446-45-4.058-61.573-19.725-82.336-101.178-44.1-151.656 15.218-20.091 38.39-31.679 63.1-34.714m336 91.714v-90h54c12.919 0 26.334-.56 38 6.044 28.773 16.288 26.96 65.478-3 79.466-11.423 5.333-23.741 4.49-36 4.49z" fill="#02a3ad"/></svg>