<svg xmlns="http://www.w3.org/2000/svg" viewBox="-49 447.7 99.4 99.4" width="99.4" height="99.4"><path d="M22.55 514.9c-1.6 6.3-3.2 12.8-4.8 19.4 7 4.5 13.9 9 20.7 12.8-5.3-10-10.5-20.9-15.9-32.2z" fill="#e77724"/><path d="M22.55 514.9c6.3 4.5 12.4 9 18.4 13.2-.8 6.1-1.6 12.5-2.5 19-5.3-10-10.5-20.9-15.9-32.2zM22.55 514.9c-1.6 6.3-3.2 12.8-4.8 19.4-7-4.5-14.1-9.1-21.3-13.2 8.6-2.8 17.4-5 26.1-6.2z" fill="#d25f27"/><path d="M22.55 514.9c-6.3-4.5-12.7-8.9-19.1-12.8-2.4 6.2-4.7 12.6-7 19 8.6-2.8 17.4-5 26.1-6.2z" fill="#f1a91e"/><path d="M29.65 489.2c-1.1 3.6-2.1 7.3-3.2 11.1 5.6 4.5 11.1 9.1 16.4 13.6-4.4-7.8-8.7-16.1-13.2-24.7z" fill="#e77724"/><path d="M29.65 489.2c5 4.6 9.9 9.2 14.7 13.9-.5 3.5-1 7.1-1.5 10.8-4.4-7.8-8.7-16.1-13.2-24.7z" fill="#d25f27"/><path d="M22.55 514.9c1.3-5 2.6-9.9 3.9-14.6 5.6 4.5 11.1 9.1 16.4 13.6-6.6-.4-13.4 0-20.3 1z" fill="#f1a91e"/><path d="M22.55 514.9c6.3 4.5 12.4 9 18.4 13.2.6-4.9 1.3-9.6 1.9-14.2-6.6-.4-13.4 0-20.3 1z" fill="#e77724"/><path d="M29.65 489.2c.9-3 1.8-5.9 2.6-8.6 4.6 4.6 8.9 9.3 13.2 14-5-2.4-10.3-4.2-15.8-5.4z" fill="#b3b3b1"/><path d="M29.65 489.2c5 4.6 9.9 9.2 14.7 13.9.4-2.9.8-5.7 1.1-8.5-5-2.4-10.3-4.2-15.8-5.4zM29.65 489.2c.9-3 1.8-5.9 2.6-8.6-4.6-4.6-9.3-9-14.1-13.1 3.9 7.2 7.7 14.5 11.5 21.7z" fill="#8a8a8d"/><path d="M29.65 489.2c-5-4.6-10.3-9-15.6-13 1.4-3 2.7-5.9 4.1-8.8 3.9 7.3 7.7 14.6 11.5 21.8z" fill="#d2d1cd"/><path d="M-15.95 491.9c-3 6.3-6 12.7-8.8 19 6.9 2.6 14.1 6.1 21.3 10.2-4.2-10-8.4-19.8-12.5-29.2z" fill="#d25f27"/><path d="M-15.95 491.9c6.4 2.7 12.9 6.2 19.4 10.2-2.4 6.2-4.7 12.6-7 19-4.1-10-8.3-19.8-12.4-29.2z" fill="#e77724"/><path d="M-15.95 491.9c-3 6.3-6 12.7-8.8 19-6.9-2.6-13.5-4.1-19.2-4.1 8.1-6.6 17.8-11.6 28-14.9z" fill="#d0912a"/><path d="M-15.95 491.9c-6.4-2.7-12.6-4.6-18.3-5.3-3.4 6.8-6.6 13.6-9.8 20.2 8.2-6.6 17.9-11.6 28.1-14.9z" fill="#ffce06"/><g><path d="M-2.15 465.3c-2.2 3.8-4.3 7.7-6.4 11.7-5.9-2.9-11.7-5.2-17.3-6.5 7.5-3.2 15.5-4.9 23.7-5.2z" fill="#ffce06"/><path d="M-2.15 465.3c-5.4-3.1-10.9-5.7-16.2-7.6-2.6 4.1-5 8.4-7.4 12.7 7.4-3.1 15.4-4.8 23.6-5.1z" fill="#fcaf17"/></g><g><path d="M-15.95 491.9c2.4-5 4.9-10.1 7.4-15-5.9-2.9-11.7-5.2-17.3-6.5 3.3 6.8 6.6 14 9.9 21.5z" fill="#fcaf17"/><path d="M-15.95 491.9c-6.4-2.7-12.6-4.6-18.3-5.3 2.7-5.4 5.5-10.9 8.5-16.2 3.2 6.8 6.5 14 9.8 21.5z" fill="#d0912a"/></g><path d="M-2.15 465.3c1.8-3.1 3.6-6.2 5.5-9.1 5 3.3 10 7.1 14.9 11.2-6.8-1.7-13.6-2.4-20.4-2.1z" fill="#8a8a8d"/><path d="M-2.15 465.3c5.5 3.1 10.9 6.8 16.2 10.9 1.4-3 2.7-5.9 4.1-8.8-6.7-1.7-13.5-2.4-20.3-2.1z" fill="#b3b3b1"/><path d="M-2.15 465.3c1.8-3.1 3.6-6.2 5.5-9.1-5-3.3-10.1-6.2-15.1-8.4 3.2 5.6 6.4 11.4 9.6 17.5z" fill="#fcaf17"/><path d="M-2.15 465.3c-5.4-3.1-10.9-5.7-16.2-7.6 2.1-3.4 4.3-6.8 6.5-10 3.3 5.7 6.5 11.5 9.7 17.6z" fill="#d0912a"/></svg>