<svg xmlns="http://www.w3.org/2000/svg" width="506.068" height="506.068" viewBox="0 0 133.897 133.897"><path d="M.176 0h133.545l-.001 133.896c-44.514.003-89.03 0-133.543 0V0m115.625 96.849c-.006.283-.007.569 0 .854.637-.004 1.278-.001 1.916-.001.004 1.776 0 3.552.003 5.33.349-.003.697-.003 1.046 0 0-1.777-.001-3.553 0-5.33h1.922v-.85c-1.629-.003-3.258.003-4.887-.003m6.105.001c-.004 2.06-.004 4.12 0 6.18h1.043c.007-1.688-.01-3.374.011-5.062.699 1.673 1.33 3.373 1.997 5.058l.675.001c.673-1.692 1.314-3.396 2.004-5.08.012 1.693.003 3.388.007 5.083.346 0 .693 0 1.04.003.013-2.06.001-4.12.005-6.18a119.8 119.8 0 00-1.586 0c-.588 1.547-1.189 3.09-1.786 4.635-.6-1.547-1.212-3.09-1.813-4.638h-1.597m-105.879 6.588c-2.599.105-5.216 1.283-6.763 3.426-1.332 1.795-1.864 4.078-1.853 6.287-.04 2.079.38 4.22 1.49 6.002a8.162 8.162 0 003.863 3.244c1.91.776 4.051.915 6.063.5 1.866-.384 3.633-1.363 4.848-2.847 1.097-1.313 1.732-2.964 1.991-4.645.28-1.953.206-3.981-.37-5.875-.54-1.775-1.636-3.39-3.159-4.459-1.762-1.251-3.974-1.747-6.11-1.633m17.788 2.636c.003-.722.003-1.444 0-2.165-1.556 0-3.112-.008-4.668.006.008 6.224.001 12.447.004 18.67 1.668.007 3.335 0 5.003.004.008-4.131-.01-8.264.01-12.394.203-.608.76-1.047 1.316-1.335 1.274-.607 2.718-.66 4.103-.671l.001-4.63c-2.182-.203-4.364.877-5.77 2.516m12.243-2.01a8.262 8.262 0 00-4.235 3.112c1.104.646 2.219 1.275 3.331 1.906.948-1.177 2.35-1.989 3.865-2.109 1.085-.093 2.384-.038 3.159.842.548.63.388 1.51.41 2.276-2.547.3-5.118.719-7.49 1.73-1.34.58-2.646 1.414-3.437 2.68-.884 1.419-.973 3.234-.481 4.806a4.833 4.833 0 002.599 2.96c1.418.66 3.04.624 4.551.383a11.065 11.065 0 004.23-1.68c.142.539.283 1.076.427 1.617h4.378c-.054-4.316-.02-8.635-.025-12.951.087-1.272-.153-2.618-.95-3.642-1.038-1.385-2.757-2.041-4.412-2.306-1.968-.282-4.016-.233-5.92.376m24.36-.4c-1.75.36-3.28 1.344-4.708 2.375-.143-.73-.308-1.458-.438-2.19-1.363.187-2.727.375-4.09.567-.003 6.048 0 12.095 0 18.142h4.89v-13.371c1.155-.962 2.477-1.839 4.001-2.029.768-.085 1.669-.04 2.228.568.553.646.641 1.543.667 2.36.003 4.158.001 8.314.001 12.472 1.64.003 3.28 0 4.92 0v-13.267c-.02-.887-.14-1.781-.447-2.617-.398-1.123-1.223-2.094-2.313-2.587-1.465-.666-3.152-.72-4.712-.424m12.782 2.718c-1.5 2.03-2.025 4.625-1.977 7.11.021 2.269.524 4.643 1.961 6.451 1.14 1.47 2.916 2.377 4.752 2.57 1.34.128 2.771.072 3.969-.61.832-.465 1.418-1.245 1.91-2.042.038.785.01 1.572.019 2.357-.032 1.04-.183 2.174-.903 2.981-.656.729-1.678.987-2.626.99-.997.013-2.073-.021-2.936-.582-.43-.277-.65-.762-.777-1.239-1.618.26-3.234.522-4.852.783.294 1.51 1.347 2.792 2.68 3.517 2.08 1.157 4.554 1.285 6.874 1.062 2.012-.201 4.137-.774 5.572-2.289 1.285-1.359 1.688-3.293 1.717-5.11v-18.478c-1.388.008-2.776-.02-4.162.015-.108.688-.243 1.373-.363 2.06-.43-.891-1.267-1.51-2.166-1.874-1.18-.483-2.483-.598-3.75-.525-1.967.15-3.792 1.264-4.942 2.853m20.458-.14c-1.35 1.608-1.953 3.715-2.103 5.78-.145 2.255.066 4.606 1.096 6.65.797 1.592 2.167 2.897 3.825 3.556 2.129.859 4.519.85 6.737.38 2.172-.475 4.216-1.78 5.32-3.748a511.43 511.43 0 01-3.61-2.005c-.538.773-1.194 1.497-2.045 1.925-.957.488-2.075.55-3.12.398-1.014-.147-1.972-.705-2.524-1.577-.682-1.073-.87-2.382-.878-3.632 4.118.003 8.237 0 12.357.001.14-1.644-.018-3.32-.49-4.9-.52-1.714-1.576-3.302-3.1-4.27-1.868-1.21-4.203-1.472-6.372-1.217-1.942.234-3.838 1.13-5.093 2.658zm0 0" fill="#f60"/><path d="M107.498 107.942c.595-.674 1.483-1.037 2.369-1.09 1.13-.084 2.363.233 3.135 1.11.682.76.91 1.81.936 2.806-2.503 0-5.005.003-7.508-.003.081-1.011.376-2.055 1.068-2.824zm0 0M89.196 107.064c1.152-.212 2.406.158 3.222 1.011.96.982 1.35 2.378 1.432 3.718.039.983-.003 1.972-.159 2.944-.175 1.024-.52 2.071-1.258 2.828-.672.684-1.65.997-2.595.974-.879.027-1.805-.252-2.414-.915-.818-.845-1.09-2.05-1.222-3.182-.108-1.153-.14-2.32.012-3.471.144-1.012.456-2.04 1.132-2.828a3.19 3.19 0 011.85-1.08zm0 0M15.827 107.656c1.193-.177 2.528.02 3.463.84.878.756 1.305 1.899 1.496 3.015a10.837 10.837 0 01-.05 3.795c-.223 1.095-.71 2.2-1.62 2.891-1.014.755-2.374.89-3.584.64a3.604 3.604 0 01-2.37-1.718c-.728-1.265-.888-2.767-.857-4.203.046-1.29.274-2.632 1.008-3.72a3.614 3.614 0 012.514-1.54zm0 0M48.056 114.106c1.395-.578 2.898-.834 4.388-1.023.006 1.455-.003 2.912.004 4.369-1.246 1.119-2.835 1.998-4.548 1.966a2.057 2.057 0 01-1.535-.648c-.745-.839-.853-2.167-.275-3.126.43-.743 1.2-1.205 1.966-1.538zm0 0" fill="#f60"/><path d="M115.802 96.849c1.629.006 3.258 0 4.887.003v.85h-1.921c-.003 1.776-.001 3.552-.001 5.329h-1.046c-.003-1.777 0-3.553-.003-5.33-.638 0-1.28-.003-1.917.001-.006-.285-.004-.57 0-.854zm0 0M121.907 96.85h1.597c.6 1.547 1.213 3.09 1.813 4.638.597-1.544 1.198-3.088 1.786-4.635a119.8 119.8 0 011.586 0c-.004 2.06.007 4.12-.006 6.18a72.224 72.224 0 00-1.04-.003c-.004-1.695.005-3.39-.007-5.083-.69 1.684-1.331 3.388-2.004 5.08h-.675c-.667-1.686-1.298-3.386-1.997-5.06-.022 1.689-.004 3.375-.01 5.064h-1.044c-.004-2.06-.004-4.12 0-6.181zm0 0M16.028 103.438c2.136-.114 4.348.382 6.11 1.633 1.523 1.068 2.618 2.685 3.159 4.46.576 1.893.65 3.921.37 5.874-.259 1.681-.894 3.332-1.99 4.646-1.216 1.484-2.983 2.462-4.849 2.847-2.012.414-4.153.275-6.063-.5a8.162 8.162 0 01-3.863-3.245c-1.11-1.781-1.53-3.923-1.49-6.002-.01-2.21.521-4.491 1.853-6.287 1.547-2.143 4.164-3.321 6.763-3.426m-.201 4.218a3.614 3.614 0 00-2.514 1.54c-.734 1.088-.962 2.43-1.008 3.72-.03 1.436.129 2.938.857 4.203a3.604 3.604 0 002.37 1.719c1.21.25 2.57.114 3.584-.64.91-.691 1.397-1.797 1.62-2.892.245-1.247.253-2.54.05-3.795-.191-1.116-.618-2.259-1.496-3.015-.935-.82-2.27-1.017-3.463-.84zm0 0M33.816 106.074c1.405-1.638 3.587-2.718 5.77-2.514-.003 1.542-.001 3.085-.001 4.628-1.385.013-2.83.065-4.104.671-.556.289-1.112.728-1.316 1.336-.02 4.13-.001 8.263-.01 12.394-1.668-.004-3.335.003-5.003-.004-.003-6.223.004-12.447-.004-18.67 1.556-.014 3.112-.006 4.668-.006.003.72.003 1.443 0 2.165zm0 0M46.058 104.065c1.905-.609 3.952-.658 5.92-.376 1.655.265 3.374.92 4.411 2.306.798 1.023 1.038 2.37.951 3.642.005 4.316-.029 8.634.025 12.95h-4.378l-.427-1.616a11.066 11.066 0 01-4.23 1.68c-1.511.241-3.133.277-4.551-.383a4.833 4.833 0 01-2.6-2.96c-.491-1.573-.401-3.387.482-4.807.79-1.265 2.097-2.099 3.437-2.68 2.373-1.01 4.943-1.43 7.49-1.73-.021-.764.138-1.645-.41-2.275-.774-.88-2.074-.935-3.158-.842-1.516.12-2.918.932-3.866 2.109-1.112-.631-2.227-1.26-3.33-1.906a8.262 8.262 0 014.234-3.112m1.998 10.04c-.766.334-1.536.796-1.966 1.539-.578.959-.47 2.287.275 3.126.392.418.961.663 1.536.648 1.713.032 3.301-.847 4.547-1.966-.007-1.457.001-2.914-.004-4.369-1.49.189-2.993.445-4.388 1.023zm0 0M70.418 103.664c1.56-.296 3.246-.242 4.711.423 1.09.494 1.916 1.465 2.314 2.588.306.835.427 1.73.446 2.617v13.267c-1.64 0-3.28.003-4.92 0 0-4.158.002-8.314 0-12.472-.026-.817-.115-1.714-.667-2.36-.56-.608-1.46-.653-2.228-.568-1.524.19-2.846 1.067-4 2.028v13.372h-4.891c0-6.047-.003-12.094 0-18.142 1.362-.192 2.727-.38 4.09-.567.13.732.294 1.46.438 2.19 1.427-1.03 2.958-2.015 4.707-2.376zm0 0M83.2 106.382c1.15-1.59 2.974-2.704 4.942-2.853 1.266-.073 2.569.042 3.75.525.898.364 1.736.983 2.166 1.874.12-.687.255-1.372.362-2.06 1.387-.036 2.774-.007 4.162-.015v18.478c-.029 1.816-.431 3.751-1.717 5.11-1.434 1.514-3.56 2.088-5.571 2.289-2.321.223-4.795.095-6.875-1.063-1.333-.724-2.386-2.006-2.68-3.516 1.619-.26 3.235-.523 4.853-.783.127.477.347.962.777 1.239.863.56 1.939.595 2.935.581.948-.003 1.97-.26 2.627-.99.72-.807.87-1.94.902-2.98-.008-.785.02-1.572-.019-2.358-.492.798-1.078 1.578-1.91 2.043-1.197.682-2.63.738-3.969.61-1.835-.193-3.611-1.1-4.751-2.57-1.437-1.808-1.94-4.182-1.961-6.45-.048-2.487.477-5.081 1.976-7.111m5.997.682a3.19 3.19 0 00-1.85 1.079c-.676.788-.988 1.816-1.132 2.828-.151 1.15-.12 2.317-.012 3.47.132 1.134.404 2.338 1.222 3.183.61.663 1.535.942 2.414.915.944.023 1.923-.29 2.595-.974.739-.757 1.083-1.804 1.258-2.828.156-.972.197-1.961.159-2.944-.083-1.34-.473-2.736-1.432-3.718-.816-.853-2.07-1.223-3.222-1.011zm0 0M103.657 106.241c1.256-1.528 3.152-2.424 5.094-2.658 2.169-.255 4.503.007 6.372 1.217 1.524.969 2.58 2.556 3.099 4.27.473 1.58.63 3.257.49 4.9-4.12 0-8.239.002-12.356 0 .008 1.25.195 2.559.877 3.63.553.873 1.51 1.431 2.524 1.579 1.046.151 2.163.09 3.12-.399.851-.428 1.507-1.152 2.046-1.925 1.2.673 2.405 1.342 3.61 2.005-1.105 1.968-3.148 3.273-5.32 3.749-2.219.47-4.608.478-6.738-.38-1.657-.66-3.027-1.964-3.825-3.557-1.03-2.044-1.24-4.395-1.095-6.65.15-2.065.752-4.172 2.102-5.78m3.841 1.7c-.692.77-.987 1.812-1.068 2.824 2.503.005 5.005 0 7.508.003-.027-.997-.254-2.047-.936-2.806-.772-.878-2.005-1.195-3.135-1.11-.886.053-1.774.415-2.369 1.09zm0 0" fill="#fff"/></svg>