<svg xmlns="http://www.w3.org/2000/svg" fill="none" viewBox="0 0 280 280"><path fill="#1E2124" fill-rule="evenodd" d="M224.008 127.19a97.452 97.452 0 0 0-17.044-43.61 96.207 96.207 0 0 0-35.324-30.427 95.184 95.184 0 0 0-45.335-10.118 95.252 95.252 0 0 0-44.733 12.558c-13.669 7.82-25.226 18.91-33.658 32.295a97.537 97.537 0 0 0-14.703 44.471 97.739 97.739 0 0 0 7.694 46.235c6.274 14.543 15.989 27.309 28.29 37.175 9.418-4.234 19.716-9.178 30.654-14.722a67.373 67.373 0 0 1-27.18-24.026 68.277 68.277 0 0 1-10.922-34.768 68.351 68.351 0 0 1 8.493-35.452 67.502 67.502 0 0 1 25.453-25.882 66.648 66.648 0 0 1 35.049-8.825 66.702 66.702 0 0 1 34.507 10.786c10.311 6.71 18.605 16.143 23.983 27.276a68.383 68.383 0 0 1 6.521 35.876c10.129-6.488 19.6-12.803 28.255-18.842Zm.808 10.982c-9.694 7.24-20.436 14.741-31.986 22.304-5.159 16.34-16.257 30.099-31.06 38.507a66.585 66.585 0 0 1-48.719 6.809c-12.661 6.146-24.673 11.466-35.673 15.872a95.306 95.306 0 0 0 48.84 15.097 95.222 95.222 0 0 0 49.592-12.346c15.122-8.564 27.665-21.104 36.293-36.29a97.644 97.644 0 0 0 12.713-49.953Z" clip-rule="evenodd"/><path fill="#00CCF5" fill-rule="evenodd" d="M229.687 59.363a6.52 6.52 0 0 0 3.648-1.117 6.623 6.623 0 0 0 2.419-2.976 6.702 6.702 0 0 0 .373-3.83 6.657 6.657 0 0 0-1.797-3.395 6.544 6.544 0 0 0-3.362-1.815 6.504 6.504 0 0 0-3.793.377 6.572 6.572 0 0 0-2.947 2.442 6.672 6.672 0 0 0-1.107 3.684 6.673 6.673 0 0 0 1.92 4.69 6.567 6.567 0 0 0 2.132 1.438 6.502 6.502 0 0 0 2.514.502ZM8.752 172.014a8.693 8.693 0 0 0 4.865-1.491 8.822 8.822 0 0 0 3.223-3.971 8.916 8.916 0 0 0 .493-5.109 8.866 8.866 0 0 0-2.402-4.525 8.724 8.724 0 0 0-4.488-2.412 8.673 8.673 0 0 0-5.059.514 8.775 8.775 0 0 0-3.922 3.266 8.903 8.903 0 0 0 1.11 11.149 8.707 8.707 0 0 0 6.18 2.579ZM156.554 119.96c9.454-5.276 18.659-10.282 27.544-14.902.329.538.684 1.175 1.057 1.893-8.805 4.647-18.01 9.672-27.463 14.956l-1.138-1.947Zm122.791-47.075c-4.22-7.384-29.809.457-66.024 17.548.338.566.675 1.149.995 1.741 34.696-16.679 58.907-24.708 61.981-18.249 4.834 8.452-50.644 49.92-123.856 92.617-73.213 42.696-136.527 70.456-141.36 62.004-2.755-5.024 10.866-18.716 23.1-29.607-17.619 14.355-26.859 25.417-23.82 30.728 6.894 12.067 73.63-11.663 147.917-54.943 74.288-43.28 127.997-89.772 121.067-101.84Z" clip-rule="evenodd"/><path fill="#FA00E9" d="M147.856 126.975a13.68 13.68 0 0 1-1.655-8.989 13.6 13.6 0 0 1 4.369-8.009 13.363 13.363 0 0 1 8.41-3.389 13.348 13.348 0 0 1 8.629 2.769 13.585 13.585 0 0 1 4.929 7.671 13.689 13.689 0 0 1-1.011 9.086 13.492 13.492 0 0 1-6.492 6.374 13.312 13.312 0 0 1-9.023.767 12.904 12.904 0 0 1-4.719-2.291 13.047 13.047 0 0 1-3.437-3.989Z"/></svg>