<svg xmlns="http://www.w3.org/2000/svg" width="72" height="72"><g fill-rule="nonzero" fill="none"><path d="M72 36c0 19.884-16.116 36-36 36S0 55.884 0 36 16.116 0 36 0s36 16.116 36 36z" fill="#A6CE39"/><g fill="#FFF"><path d="M23.906 52.035h-4.342v-29.98h4.342V52.035zM30.278 22.055h11.729c11.165 0 16.07 7.922 16.07 15.004 0 7.698-6.061 15.004-16.014 15.004H30.278V22.055zm4.342 26.117h6.908c9.84 0 12.095-7.418 12.095-11.113 0-6.019-3.863-11.113-12.32-11.113H34.62v22.226zM24.583 15.812c0 1.54-1.269 2.827-2.848 2.827s-2.847-1.287-2.847-2.827a2.83 2.83 0 012.847-2.827c1.58 0 2.848 1.288 2.848 2.827z"/></g></g></svg>