<svg xmlns="http://www.w3.org/2000/svg" xml:space="preserve" viewBox="0 0 141.5 178.512"><path fill="#fff" d="M140.112 63.212c-.7-5.5-2.4-10.8-4.8-15.6-1.7-3.4-3.8-6.5-6.7-8.9-3.6-3.1-8.2-4.8-13-4.8-2.2 0-4.3.2-6.5 1l6.2-13.4.7-1.7-1.3-.8-12.2-8.6-.5-.5h-10.3c-2.2-.5-4.3-1.4-6-2.9-5.8-4.6-12.7-7-20.2-7-7.4-.2-14.6 2.2-20.4 7.2l-21.1 20.6-.5.5-12.2 12c-2.2 2.2-3.8 4.6-5 7.4-2.4 5-4.1 10.1-4.8 15.6-2.4 12.7-1.9 25.7 1.2 38.2 3.6 13.2 9.8 25.4 18.2 36.2 11.8 14.9 26.6 27.4 43.4 37l5.3 3.1 1.2.7 1.2-.7 5.3-3.1c16.8-9.6 31.4-22.3 43.7-37.2 8.4-10.8 14.6-23 18.2-36.2 2.6-12.4 3.1-25.4.9-38.1z"/><path d="M60.512 49.312h-19l-1.7 28.6c1 .2 2.2.5 3.1 1zm-14.7 64.8-.2 2.4 1 .5c1.9.7 3.8 1.2 6 1 2.2 0 4.3-.2 6.2-1.2v-2.4c-1.9 1-4.1 1.4-6.2 1.4-1.9 0-4.1-.5-6-1.2zm.7 8.9-.7-.5h-.2v2.4l1 .5c1.9.7 3.8 1.2 6 1 1.7 0 3.4-.2 4.8-.7v-2.2c-1.4.5-3.1.7-4.8.7-2.2.2-4.4-.3-6.1-1.2zm0 8.4-.7-.5h-.2v2.4l1 .5c1.9.7 3.8 1 5.8 1 1 0 1.9 0 2.9-.2v-2.2c-1 .2-1.9.2-2.9.2-2 .2-4.2-.3-5.9-1.2zm21.4-121.5c1.7.2 3.1 1 4.6 1.7 1.4.7 2.9 1.7 4.1 2.6 1.9 1.7 4.1 3.1 6.2 4.3v-3.5c-1.7-1-3.1-1.9-4.8-2.9-1.4-1-3.1-1.7-4.6-2.4-1.7-.7-3.4-1.2-5-1.4-1.7-.2-3.4-.2-5.3 0h-.2v1.4h.2c1.4-.3 3.1 0 4.8.2zm70.1 53.8c-.7-5.3-2.4-10.3-4.6-15.1-1.4-3.1-3.6-6-6.2-8.2-3.1-2.6-7.4-4.3-11.5-4.3-5.5 0-10.8 2.2-14.6 6l-6.2-6.7 1-2.2h8.6l-1 2.2h3.4l6.7-14.6-12.2-8.6h-9.7c-2.6-.5-5.3-1.7-7.2-3.4-5.3-4.3-12-6.7-19-6.7-7-.5-13.7 1.9-19 6.5l-21.8 21.2-12.2 12c-1.9 1.9-3.6 4.3-4.8 6.7-2.2 4.8-3.8 9.8-4.6 15.1-2.4 12.2-1.9 25 1.2 37.2 3.6 13 9.6 25 18 35.5 12 14.9 26.6 27.4 43.2 36.7l5.3 3.1 5.3-3.1c16.6-9.6 31.2-22.1 43.2-36.7 8.2-10.6 14.2-22.6 17.8-35.5 2.8-12.2 3.3-24.9.9-37.1zm-89.5-53.1c1.4-1.4 6.2-5.8 16.8-5.8 6.2 0 12.5 2.2 17.3 6.2 3.1 2.2 5.8 3.8 9.1 3.8h8.6l9.6 6.7-3.8 8.4h-8.6c-1.2 0-2.4-.5-3.4-1.4-1.2-1.2-1.9-2.6-2.2-4.3h-1.4c0 1 0 2.2.5 3.1.2 1 1 1.9 1.7 2.9.2.5.7.7 1.2 1l-2.2 4.6 5.8 6.2h-4.3l-7.7-6.5h-1.8l5.5 6.5h-11.3l-6.5-6.5h-3.7c.7-1.7 1.2-3.6 1.2-5.5v-3l-.2-1c-.2-1.4-.7-2.6-1.4-3.8-.7-1.2-1.4-2.4-2.4-3.4l-.2-.2-.5-.2-.7-.7c-.5-.5-1.2-.7-1.7-1.2-2.4-1.4-4.6-2.2-6.7-2.4h-1.9v1.4c2.4 0 4.8.7 6.7 2.2.5.2 1 .7 1.4 1l.7.7.2.2.2.2c.7 1 1.4 1.9 1.9 2.9s1 2.2 1.2 3.4v3.9c-.2 2.4-1 4.6-2.4 6.2l-1.7 2.4h8.2l3.6 3.6h-33.6v-12.5h-10.8zm-15.2 43.5c-1.2 4.6-5 7.9-9.6 8.4h-1.2c-5.8 0-10.8-4.6-11.3-10.3v-.7c0-3.1 1.2-6 3.6-8.2l10.9-10.6h10.8v10.6zm100.6 46.1c-2.2 7.4-5 14.9-8.9 21.6l-.7 1-.5.7-.7 1-.5 1.2-.5 1-1.2 1.7-.5.7-1 1.2-.5.7-1 1.2-.5.5-1.4 1.9-1.2 1.7c-5 6.2-10.8 12.2-17 17.5-5 4.3-10.1 8.2-15.6 11.8-2.6 1.7-5.5 3.6-8.4 5.3l-3.6 2.2-3.6-2.2c-16.1-9.4-30.5-21.6-42.2-36l-1-1.2-.5-.7-1-1.4-.5-1-1.2-1.7-.2-.2-1.2-1.9c-5.3-8.2-9.4-17-11.8-26.4-2.9-11.8-3.4-24-1.2-36 .5-3.6 1.4-7.2 2.6-10.6.2 2.2 1.2 4.3 2.4 6-.5 1.7-.7 3.4-1.2 5.3-.5 2.9-1 6-1 8.9l19.7 9.1c.2-.5.7-1 1.2-1.4l1-1-12-15.6c2.2.5 4.3.7 6.5.2l8.2 13.4c1-.5 1.9-.7 3.1-1l-1.2-20.2c.5-1 .7-1.7 1-2.6l2.9-9.6v-.3h63.4l.5-.5c3.4-3.6 7.9-5.5 12.7-5.3 3.6 0 7 1.2 9.6 3.6 2.4 1.9 4.1 4.6 5.5 7.2 2.2 4.6 3.6 9.4 4.3 14.2 2.3 12 1.8 24.2-1.1 36zm-33.1-80.9c.9 0 1.7.8 1.7 1.7 0 .9-.8 1.7-1.7 1.7-.9 0-1.7-.8-1.7-1.7 0-1 .8-1.7 1.7-1.7zm-9.1 2.6c.2-1.2 1.2-2.2 2.4-2.4v-1.7h-3.8v4.1zm39.3 43c-1.7-9.8-5.8-21.6-15.4-21.6-4.6-.2-8.9 2.2-11 6h-35l-24 31.2c.2.2.5.5 1 .7.5.5 1 1.2 1.2 1.7l17.3-7.9-1.4 6.2-14.4 4.6c.2 1 .5 2.2.5 3.4-.5 0-1-.2-1.4-.5-.4-.3-1-.5-1.4-.5l-.7-.2-1.4-.7c-1.2-.5-2.4-1-3.6-1h-5.8c-1.2.2-2.4.5-3.6 1l-1.4.7-.7.2c-.5.2-1 .5-1.4.5-.5.2-1 .2-1.4.5 0-1.2.2-2.4.5-3.4l-18.5-6c0 2.2 0 4.3.2 6.5v3.1h1.9l1.2.2c1.2.2 2.6.7 3.6 1.4 2.4 1.2 5 1.9 7.7 1.9s5.3-.5 7.7-1.9c.5-.2 1.2-.5 1.7-.7 1.2-.5 2.6-.7 4.1-.7h1.7c1.2 0 2.6.2 3.8.7.7.2 1.2.5 1.9.7 2.4 1.2 5 1.9 7.7 1.9s5.3-.5 7.7-1.9l1.2-.5-.7 2.9 2.6-.5-.7 3.1c-1.4.2-2.6.7-3.8 1.4-2.2 1.2-4.3 1.7-6.7 1.7-2.4 0-4.6-.5-6.7-1.7-2.4-1.2-5-1.9-7.7-1.9-2.6 0-5.3.5-7.7 1.9-2.2 1.2-4.3 1.7-6.7 1.7-2.4 0-4.6-.5-6.7-1.7-1.2-.7-2.4-1.2-3.8-1.4h1-1.5c-.7 0-1.2-.2-1.9-.2.2.7.2 1.4.5 2.2h1.8l.7.2.7.2c.7.2 1.7.7 2.4 1 2.4 1.2 5 1.9 7.7 1.9 2.6 0 5.3-.5 7.7-1.9 2.2-1.2 4.3-1.7 6.7-1.7 2.4 0 4.6.5 6.7 1.7 2.4 1.2 5 1.9 7.7 1.9 2.6 0 5.3-.5 7.7-1.9.7-.5 1.7-.7 2.4-1l-1.4 6.2c-.7.2-1.4.7-2.2 1-1.9 1.2-4.3 1.7-6.5 1.7s-4.6-.5-6.5-1.7c-2.4-1.2-5-1.9-7.7-1.9-2.6 0-5.3.5-7.7 1.9-2.6.7-5 1.2-7.2 1.2s-4.6-.5-6.5-1.7l-1.4-.7c-1-.5-2.2-.7-3.1-1 .5 1.2.7 2.2 1.2 3.4 1.9 4.8 4.1 9.4 6.7 13.9l.2.7.5 1 .5.7.5 1 .5.7.5 1 .5.7.5.7.7 1 .5.7.7 1 .5.5 1.2 1.7c11.5 13.9 25.5 25.9 41.3 34.8l1.4 1 1.4-1c15.8-9.1 29.8-20.9 41-35 .7-.7 1.2-1.7 1.9-2.4l.2-.2c.5-.7 1.2-1.7 1.7-2.4l.2-.2c1.2-1.7 2.4-3.6 3.4-5.3 2.9-4.8 5-9.6 7-14.6.5-1 .7-1.9 1-2.9-1.2.2-2.2.5-3.1 1h-.2l-1.4.7c-4.1 2.2-8.9 2.2-13 0-4.8-2.4-10.6-2.4-15.6 0-4.1 2.2-8.9 2.2-13 0-.7-.2-1.4-.7-2.2-1l-2.4-11.5 2.9.5-1.7-7.7 9.1-8.9 6 4.3 9.4-9.4 9.1 9.6 6-4.3 10.8 10.8 2.6 2.6c0-1 .2-1.9.2-2.9v-1c.7-7.4.4-14.6-.8-21.8zm-17.5 1.4.2-.5h3.4l1-3.4h.5l1 3.1h3.4l.2.5-2.9 1.9 1 3.4-.5.2-2.9-1.9-2.9 1.9-.5-.2 1-3.4zm-7.2-.5-.5.2-2.9-1.9-2.6 1.9-.5-.2 1-3.4-2.9-1.9.2-.5h3.4l1.2-3.4h.5l1 3.4h3.4l.2.5-2.6 2.2zm-15.6 5.8-.5.2-2.9-1.9-2.9 1.9-.5-.2 1-3.4-2.9-1.9.2-.5h3.4l1-3.4h.5l1 3.1h3.4l.2.5-2.9 1.9zm-12.5 38.4-3.4-.7 4.6 22.1-8.9-3.6-8.9 3.6 4.6-22.1-3.4.7 4.3-21.1-2.6.5 5.5-29.3h.5l5.8 29.3-2.6-.5zm-6 24.2.7 20.9h-5l.7-20.9v-3.4l1.7-.7 1.7.7zm-6 6v1.4c-1.7 0-3.4.5-4.8 1.2-2.6 1.4-5.8 2.2-8.9 2.2-2.9 0-6-.5-8.4-1.9l-.2-.2-1.2-.5h-.2c-.5-.2-.7-.2-1.2-.5l1.2-1 .2-.2c.7.2 1.2.5 1.9.7l.7.5c2.2 1 4.6 1.4 6.7 1.4 2.6 0 5.3-.5 7.7-1.9 1.9-1 4.1-1.7 6.2-1.7zm29.3 1.5.7-.5c.5-.2 1.2-.5 1.9-.7l1.7 1.4c-.5.2-1 .2-1.2.5l-.7.5-.2.2c-2.6 1.4-5.5 1.9-8.4 1.9-3.1 0-6.2-.7-8.9-2.2-1.4-.7-3.1-1.2-4.8-1.2v-1.9c2.2 0 4.3.5 6.2 1.7 2.4 1.2 5 1.9 7.7 1.9 1.7-.2 3.8-.7 6-1.6zm-35.3-33.9-1.2 5.8 3.6-.7-5 23.5 9.4-4.6-.3 3.2-.2 2.6c-2.6 0-5 .5-7.2 1.9-2.2 1-4.6 1.4-7 1.4-2.2 0-4.3-.5-6.2-1.4l-.5-.2c-.7-.2-1.4-.7-2.2-1v-28.8l-1.9 1.7v27.8l-1.9 1.7v-30.7l3.6-2.9h.2l.7.2.2.2c.5.2 1.2.5 1.9.7 1.9.7 3.8 1 6 1 3 .6 5.6-.2 8-1.4zm20.7 0c2.4 1.2 5 1.9 7.7 1.9 1.9 0 4.1-.2 6-1 .7-.2 1.2-.5 1.9-.7l1-.5h.2l3.6 2.9v30.6l-1.9-1.7v-28.1l-2.2-1.7v29c-.7.2-1.4.5-2.2 1l-.5.2c-1.9 1-4.1 1.4-6.2 1.4-2.4 0-4.6-.5-6.7-1.7-2.2-1.2-4.8-1.9-7.2-1.9l-.2-2.6-.2-3.1 9.4 4.6-.7-3.1-4.3-20.4 3.6.7zm13.6 8.9 1-.5v-2.4h-.2l-.7.5c-1.9 1-3.8 1.2-6 1.2s-4.3-.5-6.2-1.4v2.4c3.7 1.4 8.1 1.7 12.1.2zm0 6.3c-1.9 1-3.8 1.2-6 1.2-1.7 0-3.4-.2-4.8-.7v2.2c1.4.5 3.1.7 4.8.7 1.9 0 4.1-.2 6-1l1-.5v-2.4h-.2zm0 8.4c-1.9 1-3.8 1.2-6 1.2-1 0-1.9 0-2.9-.2v2.2c1 .2 1.9.2 2.9.2 1.9 0 4.1-.2 6-1l1-.5v-2.4h-.2zm-74.8-77.3 1.2 1 12.2-16.8v-2.2h-1.9zm69.3 42.2v-7.2h-2.9v1.9h1v5.3zm6-1.9c.5 1.4 1.9 2.4 3.4 2.2 1-.2 1.9-1 2.2-2.2 0-.7-.5-1.4-1.2-1.9.5-.2 1-1 1-1.7-.2-1.4-1.4-2.4-2.9-2.2-1 .2-1.9 1-2.2 2.2 0 .7.5 1.2 1 1.7-.8.5-1.5 1.2-1.3 1.9zm2.7-2.6c-.5 0-.7-.2-.7-.7 0-.5.2-.7.7-.7.5 0 .7.2.7.7 0 .2-.3.7-.7.7zm0 3.1c-.5 0-.7-.2-.7-.7 0-.5.2-.7.7-.7.5 0 .7.2.7.7 0 .4-.3.7-.7.7 0 .2 0 .2 0 0zm10.5-5.8-1.4 1.9c-.7.7-1.2 1.9-1.2 2.9 0 .7.5 1.4 1 1.9.7.5 1.4.7 2.2.7 1.4.2 2.9-1 3.1-2.6v-.2c0-1.4-1-2.4-2.2-2.6h-.9l1.9-2.4zm.3 3.9c.5 0 1 .7 1 1.2s-.5.7-1 1c-.5 0-1.2-.2-1.2-1 0-.5.2-1.2 1-1.2h.2zm7.9 1.4c.2 1.4 1.9 2.4 3.4 2.2 1-.2 1.9-1 2.2-2.2 0-.7-.5-1.4-1.2-1.9.5-.2 1-1 1-1.7-.2-1.4-1.4-2.4-2.9-2.2-1 .2-1.9 1-2.2 2.2 0 .7.5 1.2 1 1.7-.8.2-1.3 1.2-1.3 1.9zm2.6-2.6c-.5 0-.7-.2-.7-.7 0-.5.2-.7.7-.7.5 0 .7.2.7.7 0 .2-.2.7-.7.7.3 0 .3 0 0 0zm0 3.1c-.5 0-.7-.2-.7-.7 0-.5.2-.7.7-.7.5 0 .7.2.7.7.3.4 0 .7-.7.7.3.2.3.2 0 0z"/></svg>
