<svg xmlns="http://www.w3.org/2000/svg" viewBox="0 0 86 77"><defs><linearGradient id="a" x1="43.7" x2="43.7" y1="-.13" y2="76.87" gradientUnits="userSpaceOnUse"><stop offset="0" stop-color="#ff373c"/><stop offset="1" stop-color="#ffc72c"/></linearGradient></defs><path fill="url(#a)" d="M43 0A42.91 42.91 0 0 0 2.14 29.36 42.42 42.42 0 0 0 17.59 77a43.24 43.24 0 0 1 50.83 0 42.4 42.4 0 0 0 15.45-47.64A42.93 42.93 0 0 0 43 0m0 64.39c-12.11-.01-21.92-9.75-21.92-21.76s9.82-21.75 21.93-21.75 21.93 9.73 21.94 21.74c0 5.79-2.31 11.33-6.42 15.4A22 22 0 0 1 43 64.39"/></svg>