<svg xmlns="http://www.w3.org/2000/svg" viewBox="0 0 500 193"><path fill="#1226aa" d="M181 143c29 1 52-15 53-38 1-26-24-32-45-37v2-2c-14-3-26-5-26-13 0-6 9-11 19-11 12 0 22 6 23 14h2l23-12 1-2c-7-15-25-25-47-26-28-1-49 15-50 36-2 29 24 35 46 39 15 3 25 6 24 13 0 7-10 12-22 11-12 0-21-6-23-15l-1-1h-1l-23 13-1 2c8 16 25 27 48 27m302-87a61 61 0 0 0-43-16c-35 0-60 25-60 59 0 36 26 62 61 62 24 0 45-12 53-30v-2h-1l-24-8h-1c-5 9-17 14-28 14-14 0-26-9-29-24h87l2-2V99c0-17-6-32-17-43m-72 31c4-13 15-21 29-21s25 8 29 21h-58zM366 0h-1l-27 10-1 1v42c-9-9-22-13-35-13-33 0-57 25-57 60s24 61 57 61c14 0 27-5 37-15l5 10 1 1h20l2-2V2l-1-2m-59 133c-19 0-32-14-32-33s13-32 32-32c18 0 31 14 31 32s-13 33-31 33m-73 22-1-1a102 102 0 0 1-99 0l-1 1-14 20 1 1a127 127 0 0 0 127 0l1-1-14-20zM61 40C25 40 0 65 0 100c0 36 25 61 61 61s62-25 62-61c0-35-26-60-62-60m0 94c-18 0-31-14-31-34s13-33 31-33 32 14 32 33-13 34-32 34"/></svg>