<svg xmlns="http://www.w3.org/2000/svg" id="Capa_1" data-name="Capa 1" version="1.1" width="56.93" height="56.93"><defs id="defs16963"><style id="style16961">.cls-1{fill:#003b71}</style></defs><g id="g17546" transform="translate(-.01)"><path id="path16967" transform="translate(-16.85 -14.07)" d="M60.48 23v4.33h4.38a11.4 11.4 0 016.91 2.33 29.36 29.36 0 00-13.61-13.6A11.4 11.4 0 0160.48 23z" class="cls-1" fill="#003b71"/><path id="path16969" transform="translate(-16.85 -14.07)" d="M25.8 27.33h4.58V23a11.45 11.45 0 012.36-6.94 29.27 29.27 0 00-13.47 13.3 11.43 11.43 0 016.53-2.03z" class="cls-1" fill="#003b71"/><path id="path16971" transform="translate(-16.85 -14.07)" d="M30.37 62v-4.55H25.8a11.41 11.41 0 01-6.54-2 29.18 29.18 0 0013.16 13.12A11.42 11.42 0 0130.37 62z" class="cls-1" fill="#003b71"/><path id="path16973" transform="translate(-16.85 -14.07)" d="M64.85 57.45h-4.37V62a11.34 11.34 0 01-2 6.53 29.33 29.33 0 0013.27-13.4 11.38 11.38 0 01-6.9 2.32z" class="cls-1" fill="#003b71"/><path transform="translate(-16.85 -14.07)" id="path16975" d="M70.73 46a5.94 5.94 0 01-5.87 5.88H44.27v3.02h4.48v6.89H42.1V41.12h-3V62a2.71 2.71 0 00.84 2 2.64 2.64 0 002 .81H49A2.8 2.8 0 0051.81 62v-7.1h3.06V62A5.89 5.89 0 0149 67.93h-7.13A5.88 5.88 0 0136 62V41.12h-3.06v4.6H26v-6.64h20.71V36H25.8a2.82 2.82 0 00-2 .8 2.87 2.87 0 00-.83 2V46a2.81 2.81 0 002.83 2.81h7.14v3.07H25.8A5.89 5.89 0 0119.92 46v-7.18a5.82 5.82 0 011.7-4.14 5.91 5.91 0 014.18-1.74h20.91v-3.06H42.1v-6.62h6.65v20.33h3.06V23a2.76 2.76 0 00-.81-2 2.84 2.84 0 00-2-.81h-7.13a2.76 2.76 0 00-2 .81 2.7 2.7 0 00-.84 2v6.88H36V23a5.87 5.87 0 015.87-5.87H49A5.85 5.85 0 0154.87 23v20.59h3.07v-4.51h6.66v6.65H44.27v3h20.58a2.81 2.81 0 002-.82 2.77 2.77 0 00.82-2v-7.09A2.76 2.76 0 0064.85 36h-6.9v-3.05h6.91a5.87 5.87 0 015.87 5.88zm-5.88-16.12h-6.9V23A9 9 0 0049 14.07h-7.13A9 9 0 0032.94 23v6.88H25.8a8.94 8.94 0 00-8.94 8.94V46a9 9 0 008.94 8.9h7.14V62a8.94 8.94 0 008.93 9H49a8.82 8.82 0 006.31-2.62A8.73 8.73 0 0057.95 62v-7.1h6.91a9 9 0 008.93-8.9v-7.18a9 9 0 00-8.93-8.94" class="cls-1" fill="#003b71"/></g></svg>