<svg xmlns="http://www.w3.org/2000/svg" viewBox="0 0 500 193.4"><path d="M180.5 143.3c29.7 1 52.1-15.3 53.5-38.8 1.3-25.8-24.5-31.5-45.1-36.1l-.4 1.5.4-1.5c-14.2-3.2-26.4-5.9-25.9-13.3.4-6.6 8.7-11.4 18.9-11.1 12.5.4 21.7 5.9 22.9 13.5.3 1.3 1.9 1.3 2.6.8.8-.4 22.6-12.5 22.6-12.5.7-.4 1-1.3.7-2-7-15.3-25-25.3-47.1-26-27.1-.9-48.4 14.7-49.7 36.5-1.6 28.9 24.6 34.2 45.7 38.6 15.7 3.2 25.2 5.7 24.9 12.6-.4 7.2-10 12.3-22.4 11.8-12-.4-21.1-6.3-23.2-15.1-.1-.5-.4-.8-.9-1-.4-.2-.9-.2-1.3.1L134 113.9c-.7.4-1 1.3-.7 2 7.4 16.4 25 26.6 47.2 27.4m302.8-86.9c-10.9-10.8-26.2-16.8-43.1-16.8-35 0-60.4 25-60.4 59.5 0 35.9 25.7 62 61 62 23.7 0 45.5-12.5 53-30.5.2-.4.2-.8 0-1.2s-.5-.7-.9-.8l-23.7-7.8c-.7-.2-1.4 0-1.7.6-5 8.1-16.2 13.8-27.2 13.8-14.7 0-25.9-9.3-29.5-24.5H498c.8 0 1.4-.6 1.5-1.3l.2-1.8c.1-1.4.4-5.1.4-8.3 0-16.9-6-32.1-16.8-42.9M411 87c4-13.3 14.8-21.5 28.5-21.5 14.3 0 25.6 8.4 29.2 21.5H411zM366.3.3c-.4-.3-.9-.3-1.4-.2l-26.8 9.8c-.6.2-1 .8-1 1.4v41.5c-9.4-8.5-21.7-13.2-35.1-13.2-32.9 0-56.8 25.5-56.8 60.7S269.1 161 302 161c14.2 0 27.2-5.2 36.8-14.6l5 9.6c.3.5.8.8 1.3.8h20.2c.8 0 1.5-.7 1.5-1.5V1.5c.1-.5-.1-1-.5-1.2m-59.8 132.5c-18.4 0-31.7-13.7-31.7-32.5s13.3-32.5 31.7-32.5c18.3 0 31.5 13.7 31.5 32.5s-13.2 32.5-31.5 32.5m-72.2 22c-.3-.5-1-.6-1.5-.4-14.7 8.1-31.5 12.7-49.2 12.7-17.8 0-34.5-4.6-49.2-12.7-.5-.3-1.2-.1-1.5.4l-13.5 19.8c-.4.6-.2 1.3.4 1.7 18.9 10.9 40.7 17.1 63.8 17.1s44.9-6.2 63.8-17.1c.6-.3.8-1.1.4-1.7l-13.5-19.8zM61.4 39.6c-36 0-61.2 25-61.2 60.7C.1 136 25.3 161 61.4 161c36 0 61.2-25 61.2-60.7 0-35.8-25.2-60.7-61.2-60.7m0 94.5c-18.4 0-31.7-14.2-31.7-33.8S43 66.5 61.4 66.5s31.7 14.2 31.7 33.8-13.4 33.8-31.7 33.8" fill="#1226aa"/></svg>