<svg xmlns="http://www.w3.org/2000/svg" xmlns:xlink="http://www.w3.org/1999/xlink" width="300" height="300" xmlns:v="https://vecta.io/nano"><defs><clipPath id="A"><use xlink:href="#B"/></clipPath><circle id="B" cx="175" cy="175" r="150" opacity=".15"/></defs><circle cx="150" cy="150" r="143.7" fill="#f6a"/><g clip-path="url(#A)" transform="translate(-25 -25)" opacity=".15"><path d="M175-106.9l256.2 443.8H-81.2z" fill="#f1f1f2"/><path d="M581.2 443.7H68.8L325 0z" fill="#231f20"/><path d="M573.8 158.2H61.4l256.2-443.8z" fill="#929497"/><path d="M290 380h-512.4L33.8-63.7z" fill="#636466"/><path d="M231.6 52.3l97.3 168.5H134.3z" fill="#6d6e70"/><path d="M231.1 38.6L158.8-86.6h-50L36.5 38.6z" fill="#808184"/><path d="M132.6 164l97.3 168.5H35.3z" fill="#404041"/><path d="M219.4 104.8h-96.2l48.1-83.3z" fill="#58595b"/><path d="M245.2 176.4l48.1 83.3h-96.2z" fill="#404041"/><path d="M379.2 239.3H283l48.1-83.3z" fill="#f1f1f2"/><path d="M211.3 74.6l24 41.6h-48.1z" fill="#bbbdbf"/><path d="M238.3 52.8l6.4 11h-12.8z" fill="#fff"/><path d="M158.9 248.6l48.1 83.3h-96.2z" fill="#a6a8ab"/><path d="M125.1 231.7l18 31.4H107z" fill="#231f20"/><g fill="#a7a8ab"><path d="M238 243.6l24.1 41.7H214zm-5.4-118l24.1 41.6h-48.1z"/></g><path d="M274.1 19.5l48 83.3H226z" fill="#f1f1f2"/><g fill="#a6a8ab"><path d="M97.4 143.6H1.2l48.1-83.3zm186.3 55.2l18.3 31.8h-36.6z"/></g><path d="M175 53.1l18.3 31.7h-36.6z" fill="#fff"/><path d="M193.3 282.1h-36.6l18.3-31.8z" fill="#58595b"/><path d="M63.6 201.3L82 233.1H45.3z" fill="#bbbdbf"/><g fill="#f1f1f2"><path d="M90.6 263.3l18.4 31.8H72.3zM46 136l18.3 31.7H27.6z"/></g><path d="M122.8 107.9l9.2 15.8h-18.3z" fill="#59595c"/><path d="M59.9 137.1l9.2 15.8H50.8z" fill="#bbbdbf"/><path d="M116.9 68.5l9.2 15.9h-18.4z" fill="#e6e7e8"/><path d="M187.7 61.9L206 30.1l18.4 31.8z" fill="#808184"/><path d="M283.4 128.2l18.3-31.7 18.3 31.7z" fill="#fff"/><path d="M286.9 268.6l9.2-15.9 9.1 15.9z" fill="#a7a8ab"/><path d="M231.9 128.5h-21.8l10.9-18.9z" fill="#d0d2d3"/></g><path d="M76.8 181.3c-4.7 0-8.8-.8-12.3-2.3s-6.4-3.7-8.6-6.4c-2.3-2.7-4-5.9-5.2-9.6s-1.7-7.6-1.7-11.9.6-8.3 1.7-12c1.2-3.7 2.9-7 5.2-9.7s5.2-4.9 8.6-6.5 7.6-2.4 12.3-2.4 8.8.8 12.3 2.4 6.4 3.7 8.8 6.5c2.3 2.7 4 6 5.2 9.7 1.1 3.7 1.7 7.7 1.7 12s-.6 8.2-1.7 11.9-2.8 6.9-5.2 9.6c-2.3 2.7-5.2 4.9-8.8 6.4-3.4 1.6-7.6 2.3-12.3 2.3zm0-12.1c4.2 0 7.2-1.6 9-4.7s2.7-7.6 2.7-13.4-.9-10.3-2.7-13.4-4.8-4.7-9-4.7c-4.1 0-7.1 1.6-8.9 4.7s-2.7 7.6-2.7 13.4.9 10.3 2.7 13.4c1.8 3.2 4.8 4.7 8.9 4.7zm51.8-14.5c-4.2-1.2-7.5-3-9.8-5.3-2.4-2.4-3.5-5.9-3.5-10.6 0-5.7 2-10.1 6.1-13.4 4.1-3.2 9.6-4.8 16.7-4.8 2.9 0 5.8.3 8.6.8s5.7 1.3 8.6 2.4c-.2 1.9-.5 4-1.1 6.1s-1.3 3.9-2.1 5.5c-1.8-.7-3.8-1.4-5.9-2-2.2-.6-4.5-.8-6.8-.8-2.5 0-4.5.4-5.9 1.2s-2.1 2-2.1 3.8c0 1.6.5 2.8 1.5 3.5s2.4 1.3 4.3 1.9l6.4 1.9c2.1.6 4 1.3 5.7 2.2s3.1 1.9 4.3 3.2 2.1 2.8 2.8 4.7 1 4.2 1 6.8c0 2.8-.6 5.3-1.7 7.7-1.2 2.4-2.8 4.5-5 6.2-2.2 1.8-4.9 3.1-8 4.2-3.1 1-6.7 1.5-10.7 1.5-1.8 0-3.4-.1-4.9-.2s-2.9-.3-4.3-.6-2.7-.6-4.1-1c-1.3-.4-2.8-.9-4.4-1.5.1-2 .5-4.1 1.1-6.1.6-2.1 1.3-4.1 2.2-6 2.5 1 4.8 1.7 7 2.2s4.5.7 6.9.7c1 0 2.2-.1 3.4-.3s2.4-.5 3.4-1 1.9-1.1 2.6-1.9 1.1-1.8 1.1-3.1c0-1.8-.5-3.1-1.6-3.9s-2.6-1.5-4.5-2.1zm39.3-32.7c2.7-.4 5.3-.7 8-.7 2.6 0 5.3.2 8 .7v30.7c0 3.1.2 5.6.7 7.6s1.2 3.6 2.2 4.7c1 1.2 2.3 2 3.8 2.5s3.3.7 5.3.7c2.8 0 5.1-.3 7-.8V122c2.7-.4 5.3-.7 7.9-.7s5.3.2 8 .7v55.8c-2.4.8-5.6 1.6-9.5 2.4s-8 1.2-12.3 1.2c-3.8 0-7.5-.3-11-.9s-6.6-1.9-9.3-3.8-4.8-4.8-6.3-8.5c-1.6-3.7-2.4-8.7-2.4-14.9V122zm65.9 58c-.4-2.8-.7-5.5-.7-8.2s.2-5.5.7-8.3c2.8-.4 5.5-.7 8.2-.7s5.5.2 8.3.7c.4 2.8.7 5.6.7 8.2 0 2.8-.2 5.5-.7 8.3-2.8.4-5.6.7-8.2.7-2.8-.1-5.5-.3-8.3-.7zm-.4-80.7c2.9-.4 5.8-.7 8.6-.7 2.9 0 5.8.2 8.8.7l-1.1 54.9c-2.6.4-5.1.7-7.5.7-2.5 0-5.1-.2-7.6-.7z" fill="#fff"/></svg>