<svg xmlns="http://www.w3.org/2000/svg" version="1.0" viewBox="0 0 600 660"><defs><radialGradient id="a" cx="-80" cy="-80" r="405" gradientTransform="translate(300 300)" gradientUnits="userSpaceOnUse"><stop offset="0" stop-color="#fff" stop-opacity=".31"/><stop offset=".19" stop-color="#fff" stop-opacity=".25"/><stop offset=".6" stop-color="#6b6b6b" stop-opacity=".13"/><stop offset="1" stop-opacity=".13"/></radialGradient></defs><path fill="#fc0" fill-rule="evenodd" stroke="#000" stroke-width="3" d="M299.98 658.4s298.33-112.6 298.43-398l.09-258.84-597-.06v259.19c0 285.4 298.48 397.7 298.48 397.7z"/><path fill="#039" fill-rule="evenodd" stroke="#000" stroke-width="3" d="M61.5 160.4c.01 34.93-.02 69.87.06 104.8.14 9.82.7 19.7 1.68 29.44a313.31 313.31 0 0 0 8.54 47.53 311.75 311.75 0 0 0 10.47 32.5 319.6 319.6 0 0 0 27.57 55.06c8.75 14 18.56 27.4 29.09 40.04a430.11 430.11 0 0 0 52.13 52.26 518.98 518.98 0 0 0 76.04 53.3c10.4 6 20.97 11.62 31.75 16.9.56.32 1.23.68 1.83.24 3.41-1.75 6.87-3.43 10.27-5.2a532.96 532.96 0 0 0 47-27.44A514.89 514.89 0 0 0 401.52 528 462 462 0 0 0 429 503.73c25.77-24.66 48.68-52.55 66.6-83.45a318.48 318.48 0 0 0 23.04-48.5 312.51 312.51 0 0 0 18-77.1 320.42 320.42 0 0 0 1.67-30.23c.15-11.99.02-23.98.08-35.97l.09-166.92L61.5 61.5v98.9z"/><path fill="#fc0" fill-rule="evenodd" stroke="#000" stroke-width="3" d="M61.5 61.5v79.68l161.14 161.15-118.26 118.25c1.79 3.07 3.56 6.15 5.44 9.15 8.75 14 18.56 27.4 29.09 40.04a413.61 413.61 0 0 0 34.3 36.2l126.54-126.54L426.42 506.1c.85-.8 1.74-1.57 2.58-2.37 25.63-24.52 48.42-52.25 66.3-82.95L376.87 302.33l161.58-161.59.04-79.18-75.06-.01-163.67 163.67L136.05 61.5Z"/><path fill="#fc0" stroke="#000" stroke-linecap="round" stroke-linejoin="round" stroke-width="3" d="m299.72 83.47-5.5 9.54-5.52 9.55h-22.05l5.52 9.55 5.5 9.55-5.5 9.54-5.52 9.55h22.08l5.5 9.55 5.52 9.54 5.51-9.54 5.51-9.55h22.02l-5.5-9.55-5.52-9.54 5.51-9.55 5.51-9.55h-22.04l-5.51-9.55zM128.53 264.6l-5.5 9.55-5.52 9.55H95.46l5.51 9.54 5.52 9.55-5.52 9.55-5.5 9.54h22.06l5.52 9.55 5.5 9.55 5.52-9.55 5.51-9.55h22.02l-5.5-9.54-5.52-9.55 5.51-9.55 5.51-9.54h-22.04l-5.51-9.55zm171.22 188.7-5.51 9.55-5.51 9.55h-22.05l5.51 9.55 5.51 9.54-5.51 9.55-5.51 9.55h22.07l5.51 9.54 5.51 9.55 5.51-9.55 5.52-9.54h22.02l-5.51-9.55-5.51-9.55 5.5-9.54 5.52-9.55h-22.05l-5.51-9.55zm170.98-188.7 5.5 9.55 5.52 9.55h22.05l-5.52 9.54-5.5 9.55 5.5 9.55 5.52 9.54h-22.08l-5.5 9.55-5.52 9.55-5.51-9.55-5.51-9.55h-22.02l5.5-9.54 5.52-9.55-5.51-9.55-5.51-9.54h22.04l5.51-9.55z"/><path fill="red" stroke="#000" stroke-linejoin="round" stroke-width="3" d="M244.33 359.05c2.81 4.84 5.62 9.57 8.46 14.61l3.9-15.9z"/><path fill="#d40000" stroke="#000" stroke-linejoin="bevel" stroke-width="3" d="m248.17 242.92 4.26 114.4c12.94-89.4.24 10.9.36 16.34h106.9V242.92Z"/><path fill="#fc0" stroke="#000" stroke-width="3" d="M351.23 235.23c0 4.61 2.3 7.69 4.61 10.1v124.49H252.8l-8.46-14.62"/><path fill="#d40000" stroke="#000" stroke-width="3" d="M263.55 362.13v23.84l5.77-7.7 5.77 7.7v-23.84"/><path fill="none" stroke="#000" stroke-width="3" d="M355.84 369.82c-7.19-2.9-6.4-7.11-5.38-11.54"/><path fill="#d40000" stroke="#000" stroke-width="3" d="M252.02 232.15v126.9h99.61v-126.9Z"/><path fill="#fc0" stroke="#000" stroke-linecap="round" stroke-linejoin="round" stroke-width="3" d="m299.75 254.12 5.4 9.39 5.42 9.38h21.63l-5.41 9.4-5.4 9.38 5.4 9.38 5.4 9.39h-21.64l-5.4 9.39-5.41 9.38-5.41-9.38-5.41-9.39h-21.6l5.4-9.39 5.4-9.38-5.4-9.39-5.4-9.39h21.62l5.41-9.38z"/><rect width="7.69" height="126.9" x="244.33" y="232.15" fill="#d40000" stroke="#000" stroke-linejoin="round" stroke-width="3" ry="0"/><path fill="url(#a)" d="M1.5 1.5h597V260c0 286.2-298.5 398.39-298.5 398.39S1.5 546.2 1.5 260z"/></svg>