<svg xmlns="http://www.w3.org/2000/svg" width="556.711" height="556.722"><path d="M155.562 278.375c0-68.2 55.276-123.489 123.475-123.489 68.2 0 123.465 55.29 123.465 123.489 0 68.186-55.265 123.476-123.465 123.476-68.199 0-123.475-55.29-123.475-123.476" fill="#6ec72d"/><path d="M364.661 121.962c0-39.078 31.686-70.763 70.764-70.763 39.09 0 70.788 31.685 70.788 70.763 0 39.091-31.698 70.776-70.788 70.776-39.078 0-70.764-31.685-70.764-70.776M0 278.375C0 124.739 124.451.188 278.024 0v100.597c-98.033.175-177.439 79.695-177.439 177.778 0 98.183 79.594 177.765 177.765 177.765 97.595 0 177.777-78.832 177.777-178.44l100.584.06c0 154.347-124.614 278.962-278.361 278.962C124.614 556.722 0 432.107 0 278.372" fill="#00674c"/></svg>