<svg xmlns="http://www.w3.org/2000/svg" viewBox="0 0 520.1 176"><path fill="#db1f26" d="m471.6 77-1 5c-3 41-16 54-33 54-14 0-25-10-23-37l1-6c3-40 16-53 33-53 14 0 25 10 23 37m-367 0v5c-3 41-17 54-33 54-14 0-25-10-23-37l1-6c3-40 16-53 33-53 14 0 25 10 22 37m349-77c-26 0-48 8-62 25 2-6 3-13 3-21h-91c-20 0-31 8-39 31l4-31h-92c-17 0-28 8-32 24-12-19-32-28-58-28-48 0-80 28-86 88v8c-5 54 23 80 66 80 49 0 81-28 86-88l1-8c1-14 0-26-2-36h41l-12 101c-2 20 9 30 27 30 11 0 15-1 19-2l15-129h48l-12 101c-3 20 8 30 26 30 12 0 15-1 20-2l14-129h24c8 0 15-2 20-5-8 13-13 29-14 49l-1 8c-5 54 23 80 67 80 48 0 80-28 86-88v-8c5-53-23-80-66-80"/></svg>
