<svg xmlns="http://www.w3.org/2000/svg" version="1.0" id="Calque_1" x="0" y="0" xml:space="preserve" width="293.4" height="293.4"><style type="text/css" id="style38857">.st2{fill:#f28a2c}.st6{fill:#f7a62b}</style><g id="g39522" transform="translate(0 -141.75)"><path d="M207.9 177.95c13.3 0 26.3 1 39.1 3-26.2-24.3-61.4-39.2-100-39.2-80.1-.1-145.2 63.9-147 143.5 46.2-65 122.1-107.3 207.9-107.3z" id="path38862" fill="#fccd25"/><path class="st2" d="M92.1 369.35c-17.2-11.6-30.6-28.4-37.7-48.3-5.8 6.3-11.4 14.5-16.3 22.4-5.1 8.2-10 16.6-13.5 25.8 2.4 3.6 5 7.1 7.6 10.4h80.1c-7.1-2.6-13.9-6.1-20.2-10.3z" id="path38864"/><path class="st2" d="M237.2 325.35c-3.3 7.9-12.6 21.9-12.6 21.9-11.1 14.6-26.2 26-43.7 32.5H261c7.3-9.1 13.5-19.1 18.5-29.7-8.8-3.4-17.3-7.7-25.3-12.6-5.9-3.7-11.6-7.7-17-12.1z" id="path38866"/><path d="M279.5 225.75c-.3-.7-.7-1.4-1-2.1-.2-.5-.5-1-.7-1.5-10.1-1.4-20.2-2.6-30.3-3.5-11.2-.9-22.3-1.4-33.4-1.7 2.7 2.5 5.2 5.2 7.6 8.1 3.9 4.7 7.5 9.8 10.5 15.2 7.9 14.1 12.4 30.4 12.4 47.7 0 9.5-1.4 18.8-3.9 27.5-1 3.4-2.2 6.7-3.5 9.9 12.8 10.5 27.1 18.8 42.4 24.7 7.1-15.2 11.7-31.7 13.2-49.2.4-4.2.6-8.5.6-12.9-.1-22.3-5-43.3-13.9-62.2z" id="path38880" fill="#ea5330"/><path class="st6" d="M0 285.25v2.7c0 30.1 9.1 58.1 24.6 81.4 8-17 18-33.2 29.8-48.2-3.7-10.4-5.8-21.5-5.8-33.1 0-37.2 20.8-69.6 51.3-86.2-40 18.7-74.5 47.7-99.9 83.4z" id="path38882"/><path class="st6" d="M246.7 180.65c-12.2-1.8-24.6-2.8-37.2-2.9h-1.2c-8.1 0-16 .4-23.9 1.1-23.4 2.2-45.9 7.5-67 15.5 9.2-2.9 19.1-4.5 29.3-4.5 12.3 0 24.1 2.3 34.9 6.4 12.2 4.7 23.3 11.7 32.6 20.6 21.1.6 42.4 2.3 63.7 5.2-8-15.5-18.6-29.6-31.2-41.4z" id="path38884"/></g></svg>