<svg xmlns="http://www.w3.org/2000/svg" viewBox="0 0 90 90"><path d="M65.99 75.2A29.11 29.11 0 0 1 45 83.65c-4.19 0-8.07-.75-11.64-2.24a28.46 28.46 0 0 1-15.6-15.57 29.93 29.93 0 0 1-2.24-11.25h7.07a10.6 10.6 0 0 0 3.05 6.89 10.73 10.73 0 0 0 7.62 3.07 10.73 10.73 0 0 0 7.62-3.07c.97-.96 1.73-2.1 2.27-3.4.36-.86.6-1.78.72-2.73h2.26c.12.95.36 1.87.73 2.73a10.32 10.32 0 0 0 5.65 5.65c1.3.54 2.71.82 4.23.82a10.72 10.72 0 0 0 7.62-3.07 10.71 10.71 0 0 0 3.06-6.88h7.05c-.04 4.02-.79 7.77-2.24 11.25A28.53 28.53 0 0 1 66 75.2M39.62 53.84a6.17 6.17 0 0 1-3.85 5.87c-.77.33-1.6.49-2.5.49a6.41 6.41 0 0 1-4.53-1.83 6.1 6.1 0 0 1-1.35-2 6.5 6.5 0 0 1-.48-2.53c0-.9.16-1.74.48-2.52a6.07 6.07 0 0 1 3.36-3.35c.77-.33 1.6-.49 2.52-.49a6.42 6.42 0 0 1 4.52 1.82 6.15 6.15 0 0 1 1.83 4.54m23.48 0a6.42 6.42 0 0 1-1.83 4.53 6.38 6.38 0 0 1-4.53 1.83 6.37 6.37 0 0 1-4.52-1.83 6.3 6.3 0 0 1-1.84-4.53 6.28 6.28 0 0 1 3.85-5.87c.77-.33 1.6-.49 2.5-.49a6.38 6.38 0 0 1 4.54 1.82 6.43 6.43 0 0 1 1.83 4.54M18.15 41.7c5.01-1.67 11.66-3.8 11.66-3.8 14.63-4.73 16.6-10.3 16.6-10.3s3.07 5.57 13.7 9.25c0 0 5.86 1.96 11.32 3.96.28.55.56 1.1.8 1.68.96 2.3 1.61 4.71 1.96 7.25h-7.51l-.05-.14a10.36 10.36 0 0 0-5.66-5.65c-1.3-.54-2.7-.81-4.23-.81a10.49 10.49 0 0 0-10.32 7.72h-2.84a10.29 10.29 0 0 0-6.1-6.91c-1.3-.54-2.7-.81-4.21-.81a10.55 10.55 0 0 0-7.62 3.07c-.97.96-1.73 2.08-2.27 3.4l-.05.13h-7.5c.34-2.54.98-4.96 1.94-7.25l.38-.79m68.41-14.53A43.58 43.58 0 0 0 62.77 3.43 45.49 45.49 0 0 0 45 0C38.6 0 32.7 1.14 27.23 3.43A43.56 43.56 0 0 0 3.44 27.17 45.65 45.65 0 0 0 0 45c0 6.4 1.14 12.34 3.44 17.83a43.58 43.58 0 0 0 23.8 23.74A45.56 45.56 0 0 0 45 90c6.4 0 12.32-1.14 17.77-3.43a43.6 43.6 0 0 0 23.8-23.75A45.84 45.84 0 0 0 90 45c0-6.4-1.15-12.34-3.44-17.83" fill="#EE6513"/></svg>