<svg xmlns="http://www.w3.org/2000/svg" viewBox="60 90.4 570.02 539.67"><defs><linearGradient id="b" x1="149.85" x2="463.95" y1="335.4" y2="140.55" href="#a"><stop offset="0" stop-color="#20a7fa"/><stop offset=".4" stop-color="#3bd5ff"/><stop offset="1" stop-color="#c4b0ff"/></linearGradient><linearGradient id="d" x1="258" x2="432.9" y1="401.85" y2="121.95" href="#a"><stop offset="0" stop-color="#165ad9"/><stop offset=".5" stop-color="#1880e5"/><stop offset="1" stop-color="#8587ff"/></linearGradient><linearGradient id="e" x1="385.5" x2="191.4" y1="405.75" y2="247.5" href="#a"><stop offset=".24" stop-color="#448aff" stop-opacity="0"/><stop offset=".79" stop-color="#0032b1" stop-opacity=".2"/></linearGradient><linearGradient id="g" x1="360.75" x2="667.65" y1="466.65" y2="270.3" href="#a"><stop offset="0" stop-color="#1a43a6"/><stop offset=".49" stop-color="#2052cb"/><stop offset="1" stop-color="#5f20cb"/></linearGradient><linearGradient id="h" x1="447.45" x2="261" y1="454.95" y2="293.55" href="#a"><stop offset="0" stop-color="#0045b9" stop-opacity="0"/><stop offset=".67" stop-color="#0d1f69" stop-opacity=".2"/></linearGradient><linearGradient id="k" x1="630" x2="357.75" y1="449.1" y2="449.1" href="#a"><stop offset="0" stop-color="#4dc4ff"/><stop offset=".2" stop-color="#0fafff"/></linearGradient><linearGradient id="p" x1="51.9" x2="313.95" y1="568.05" y2="567.9" href="#a"><stop offset=".21" stop-color="#6ce0ff"/><stop offset=".54" stop-color="#50d5ff" stop-opacity="0"/></linearGradient><linearGradient id="a" gradientUnits="userSpaceOnUse"/><radialGradient id="i" cx="0" cy="0" r="1" fx="0" fy="0" gradientTransform="matrix(0 -405.04051 438.393 0 360.03 102.27)" href="#a"><stop offset=".57" stop-color="#275ff0" stop-opacity="0"/><stop offset=".99" stop-color="#002177"/></radialGradient><radialGradient id="l" cx="0" cy="0" r="1" fx="0" fy="0" gradientTransform="rotate(-45 897.15 -224.33)scale(173.58)" href="#a"><stop offset=".26" stop-color="#0060d1" stop-opacity=".4"/><stop offset=".91" stop-color="#0383f1" stop-opacity="0"/></radialGradient><radialGradient id="m" cx="0" cy="0" r="1" fx="0" fy="0" gradientTransform="rotate(-52.66 784.06 187.41)scale(589.22098 532.80602)" href="#a"><stop offset=".73" stop-color="#f4a7f7" stop-opacity="0"/><stop offset="1" stop-color="#f4a7f7" stop-opacity=".5"/></radialGradient><radialGradient id="o" cx="0" cy="0" r="1" fx="0" fy="0" gradientTransform="matrix(-170.86542 259.72241 -674.01037 -443.41595 278.566 412.98)" href="#a"><stop offset="0" stop-color="#49deff"/><stop offset=".72" stop-color="#29c3ff"/></radialGradient><radialGradient id="r" cx="0" cy="0" r="1" fx="0" fy="0" gradientTransform="rotate(46.92 -378.5 245.25)scale(315.927)" href="#a"><stop offset=".04" stop-color="#0091ff"/><stop offset=".92" stop-color="#183dad"/></radialGradient><radialGradient id="s" cx="0" cy="0" r="1" fx="0" fy="0" gradientTransform="matrix(0 168 -193.782 0 180 491.16)" href="#a"><stop offset=".56" stop-color="#0fa5f7" stop-opacity="0"/><stop offset="1" stop-color="#74c6ff" stop-opacity=".5"/></radialGradient><path id="c" d="M407.1 103.34a91 91 0 0 1 3.08 1.91L566.4 206.6 179.06 452.1l-59.43-93.77L403.89 177.8c26.93-17.1 28.11-55.57 3.21-74.46m0 0"/><path id="f" d="M333.6 498.99 179.07 452.1l328.56-208.27c27.67-17.54 27.6-57.94-.13-75.38l-1.48-.93 4.26 2.65 100 64.86a43.3 43.3 0 0 1 19.72 36.3v38.96Zm0 0"/><path id="j" d="M315.77 630.05h220.45a93.75 93.75 0 0 0 93.75-93.75V272.14c0 15.3-7.86 29.53-20.82 37.66l-327.9 205.9a60.7 60.7 0 0 0-28.43 51.4 62.95 62.95 0 0 0 62.95 62.95m0 0"/><path id="n" d="M405.4 630.04H183.74a93.75 93.75 0 0 1-93.75-93.75V271.95a44.5 44.5 0 0 0 20.75 37.62l327.58 206.52a61.74 61.74 0 0 1-32.92 113.95m0 0"/><path id="q" d="M108.75 345h142.5A48.75 48.75 0 0 1 300 393.75v142.5A48.75 48.75 0 0 1 251.25 585h-142.5A48.75 48.75 0 0 1 60 536.25v-142.5A48.75 48.75 0 0 1 108.75 345m0 0"/></defs><path fill="url(#b)" d="M463.98 140.14 119.64 358.41 90.02 311.7v-40.26a43.3 43.3 0 0 1 19.72-36.3l200.17-129.88a92.1 92.1 0 0 1 100.28-.01Zm0 0"/><use href="#c" fill="url(#d)"/><use href="#c" fill="url(#e)"/><use href="#f" fill="url(#g)"/><use href="#f" fill="url(#h)"/><path fill="url(#i)" d="M410.19 105.25a92.1 92.1 0 0 0-100.28 0l-200.17 129.9a43.3 43.3 0 0 0-19.72 36.29v1.97a44.5 44.5 0 0 0 20.74 36.16l248.88 156.9L609.16 309.8a44.5 44.5 0 0 0 20.82-37.66v38.17l.01-38.97a43.3 43.3 0 0 0-19.72-36.3Zm0 0"/><use href="#j" fill="url(#k)"/><use href="#j" fill="url(#l)"/><use href="#j" fill="url(#m)"/><use href="#n" fill="url(#o)"/><use href="#n" fill="url(#p)"/><use href="#q" fill="url(#r)"/><use href="#q" fill="url(#s)"/><g fill="#fff"><path d="M179.39 534q-29.77 0-48.88-18.62-19.1-18.63-19.1-48.61 0-31.66 19.39-51.22T181.6 396q29.66 0 48.3 18.71 18.71 18.72 18.72 49.36 0 31.47-19.4 50.75Q209.92 534 179.39 534m.57-26.35q16.22 0 26.12-11.08t9.89-30.83q0-20.58-9.6-32.03t-25.64-11.45q-16.52 0-26.6 11.82-10.08 11.75-10.08 31.1 0 19.65 10.08 31.1 10.08 11.37 25.83 11.37m0 0"/><path d="M179.33 535.85q-29.65 0-48.69-19.13-19.03-19.14-19.03-49.93 0-32.52 19.32-52.61 19.32-20.1 50.6-20.09 29.55 0 48.11 19.23 18.66 19.23 18.66 50.7 0 32.33-19.32 52.12-19.23 19.7-49.65 19.7m.57-27.07q16.17 0 26.02-11.38 9.85-11.4 9.85-31.67 0-21.13-9.56-32.9t-25.54-11.76q-16.45 0-26.5 12.14-10.05 12.06-10.04 31.95 0 20.18 10.04 31.95 10.05 11.67 25.73 11.67m0 0"/></g></svg>