<svg xmlns="http://www.w3.org/2000/svg" width="395.246" height="395.246"><path fill="#e6007e" d="M349.715 99.351h-58.826c-4.042-.203-15.007.148-25.066 8.943l-157.364 155.74a4.308 4.308 0 01-2.155 1.024l-60.358.01c-11.347-.314-14.038-4.827-14.291-8.085V148.154c0-11.24 4.061-17.019 12.201-17.147h26.617c7.083 27.91 32.343 48.637 62.42 48.637 35.55 0 64.47-28.924 64.47-64.456 0-35.55-28.919-64.474-64.47-64.474-30.077 0-55.337 20.73-62.42 48.637l-26.151.01c-1.799-.047-17.969-.167-30.612 12.107C7.453 117.55 0 128.846 0 148.154v108.83c0 15.458 12.002 38.816 45.504 39.73h58.826c.434.027.956.036 1.542.036 4.864 0 14.554-1.126 23.525-8.979l157.37-155.74a4.407 4.407 0 012.15-1.024h60.357c11.352.314 14.047 4.817 14.296 8.084l.009 109.2c.102 4.43-.424 10.381-3.507 13.603-2.916 3.036-7.65 3.165-7.882 3.165h-27.226c-6.792-28.314-32.265-49.458-62.628-49.458-35.551 0-64.474 28.924-64.474 64.455 0 35.551 28.923 64.475 64.474 64.475 29.772 0 54.839-20.332 62.204-47.815h27.769c3.479 0 18.356-.71 29.967-12.247 6.165-6.138 13.419-17.535 12.948-36.557v-108.82c-.001-15.469-12.008-38.818-45.509-39.74zM132.892 82.37c18.094 0 32.814 14.711 32.814 32.818 0 18.09-14.72 32.81-32.814 32.81-18.093 0-32.813-14.72-32.813-32.81-.001-18.107 14.719-32.818 32.813-32.818zm129.442 230.506c-18.099 0-32.818-14.72-32.818-32.819 0-18.079 14.72-32.809 32.818-32.809 18.089 0 32.8 14.73 32.8 32.81 0 18.097-14.711 32.818-32.8 32.818z"/></svg>