<svg xmlns="http://www.w3.org/2000/svg" viewBox="0 0 48 48"><path fill="#0a9828" d="M14.32 16.1a11.4 11.4 0 0 0-6.73-2.08c-2.26 0-4.36.59-6.1 1.66L.01 10.14 37.86 0l3.77 14.06-1.05-.05c-2.56 0-4.92.75-6.77 2.11l.7-1.8H27.2l-2.56 8.77-.57 1.98-.56-1.98-2.56-8.77h-7.32zm22.65 8.03c0-2.05 1.38-3.76 3.61-3.76a3.45 3.45 0 0 1 3.39 2.41l.13.47q.09.42.09.87c0 2.2-1.48 3.71-3.61 3.71s-3.61-1.51-3.61-3.71zm-25.78 0c0-2.05-1.38-3.76-3.61-3.76s-3.61 1.71-3.61 3.76c0 2.2 1.49 3.71 3.61 3.71s3.61-1.51 3.61-3.71m18.87 1.69c.83 5.1 5.23 8.1 10.52 8.1 2.21 0 4.26-.52 5.97-1.5l1.46 5.44L10.15 48 6.36 33.87q.6.06 1.23.06c5.27 0 9.66-2.98 10.51-8.06l3 7.75h5.93l3.02-7.8"/></svg>
