<svg xmlns="http://www.w3.org/2000/svg" viewBox="0 0 214.2 255.9"><path fill="#0e2050" d="M107.1 0C48 0 0 47.9 0 106.9c0 35.3 17.4 68.3 46.7 88.3A25.05 25.05 0 0 0 71 213.8c3.1 0 6.2-.6 9.1-1.7 3.9 1.3 8 2.4 12 3.2-1.2 3.3-2.8 6.3-4.4 9h.1c0 .1-.1.1-.1.1l2.2 2.2c.6-.3 1.2-.5 1.9-.5 2.2 0 4 1.8 4 4s-1.8 4-4 4c-1.9 0-3.6-1.3-4.5-2.6 0 0-.5 1.8-.5 4.2 0 7.7 8.4 16.5 20 20.2 11.6-3.6 20-12.4 20-20.1 0-2.7-.5-4.2-.5-4.2-.9 1.1-2.3 2.6-4.5 2.6s-4-1.8-4-4a4 4 0 0 1 6.1-3.4l2.2-2.2h.1c-1.2-2.9-2.1-5.6-2.7-8.2 19.2-2.6 35.5-10.7 48.4-24.3a105.98 105.98 0 0 0 42.3-85.2C214.2 48 166.2 0 107.1 0Z" /><path fill="#fff" d="M107.1 0C48 0 0 47.9 0 106.9c0 35.3 17.4 68.3 46.7 88.3A25.05 25.05 0 0 0 71 213.8c3.1 0 6.2-.6 9.1-1.7 3.9 1.3 8 2.4 12 3.2-1.2 3.3-2.8 6.3-4.4 9h.1c0 .1-.1.1-.1.1l2.2 2.2c.6-.3 1.2-.5 1.9-.5 2.2 0 4 1.8 4 4s-1.8 4-4 4c-1.9 0-3.6-1.3-4.5-2.6 0 0-.5 1.8-.5 4.2 0 7.7 8.4 16.5 20 20.2 11.6-3.6 20-12.4 20-20.1 0-2.7-.5-4.2-.5-4.2-.9 1.1-2.3 2.6-4.5 2.6s-4-1.8-4-4a4 4 0 0 1 6.1-3.4l2.2-2.2h.1c-1.2-2.9-2.1-5.6-2.7-8.2 19.2-2.6 35.5-10.7 48.4-24.3a105.98 105.98 0 0 0 42.3-85.2C214.2 48 166.2 0 107.1 0Zm0 3c57.3 0 103.9 46.6 104 104 0 32.8-15 62.9-41.2 82.8-17.4 6.1-33.6 5.7-47.5 2.6.4-6.2 3-12.8 6.9-14C159.8 169 182 140.5 182 107c0-41.2-33.6-74.8-74.9-74.8-41.3 0-74.9 33.6-74.9 74.8A75.11 75.11 0 0 0 61 165.9c-4.3 1.9-8 4.9-10.6 8.7-1.4-.9-2.7-1.9-3.9-2.9l-.7.7c.8.9 2.1 2.2 3.6 3.7a24.95 24.95 0 0 0-3.4 14.8 104.07 104.07 0 0 1-42.8-84C3.2 49.6 49.8 3 107.1 3ZM89.8 9.2l-3.2.9-1.6 9-6.4-6.7-3.1.9 8.9 9.3 2 7 2.9-.8-2-7.1zm43 2.5c-3.9 0-7.3 2.6-8.7 7.3-.3 1.1-.5 2.1-.5 3.1 0 1.8.3 3.3 1.1 4.7 1.7 3.1 4.9 4.2 7.3 4.2 1.4 0 2.7-.3 3.9-1 3.1-1.8 5.2-5.8 5.3-9.5 0-1.7-.4-3.3-1.1-4.6a8.35 8.35 0 0 0-7.3-4.2zm.2 2.5c2.2 0 5.1 1.7 5.2 6 0 2.7-1.9 8.1-6.3 8.1-1.3 0-3.3-.7-4.4-2.7-.6-1-.8-2.2-.8-3.4 0-3.3 2.2-8 6.3-8zm-26 .8c-1.5 0-2.6 1.2-2.6 2.6 0 1.5 1.2 2.6 2.6 2.6 1.4 0 2.5-1.1 2.6-2.6 0-1.4-1.2-2.6-2.6-2.6zm-38.4.8-12.1 6.3 1.2 2.3 4.7-2.5 7.5 14.3 2.7-1.4-7.5-14.3 4.7-2.4zm84.5 3.8-9.5 16.1 2.6 1.5 4.3-7.3 6 3.5 1.3-2.2-6-3.5 2.6-4.5 6.4 3.8 1.2-2.1zm-104.5 8-2.4 1.8 11.4 14.8 2.3-1.7zm58.5 7.6c39.6 0 71.8 32.2 71.8 71.8 0 39.5-32.2 71.7-71.9 71.9-4.6 0-9.1-.5-13.5-1.3a25.36 25.36 0 0 0-29.2-12.9c-18.2-13.6-29-35-29-57.7 0-39.6 32.2-71.8 71.8-71.8Zm-67.8 2.4s-2.7-.2-5.3 2.7a6.52 6.52 0 0 0-1.8 4.3c0 1.4.6 2.6 1.7 3.6 2.1 1.9 4.5 1.1 6.8.2 1.2-.5 2.6-1.2 3.8-1.2.7 0 1.2.2 1.7.6.6.5.9 1.2.9 1.9 0 .8-.3 1.6-1 2.4a8.3 8.3 0 0 1-4.2 2.1l.6 2.5s3.2-.3 5.6-3c1.2-1.3 1.8-2.8 2-4.3 0-1.5-.7-2.9-1.9-4-1.1-1-2.3-1.3-3.4-1.3-1.5 0-3 .7-4.1 1.1-1.4.6-3.6 1.9-4.9.7-.5-.5-.7-1-.7-1.6 0-.7.3-1.5 1-2.3 1.7-1.8 3.7-1.9 3.7-1.9zm129 1.4c-1.4 0-2.6 1.1-2.7 2.5 0 1.4 1.1 2.6 2.5 2.7 1.4 0 2.6-1.1 2.7-2.5 0-1.4-1.1-2.6-2.5-2.7zm15.4 11.2c-1.8 0-3.9.6-5.8 1.8-3.6 2.3-4.9 5.5-4.9 7.9 0 1.5.4 3 1.3 4.4 2 3.1 5 3.9 7 3.9 1.9 0 4-.7 5.9-1.9 2.3-1.5 4.9-4.2 4.9-7.9 0-1.5-.4-3-1.3-4.4a7.78 7.78 0 0 0-7.1-3.8zM83.4 51.5l-5.8 8.2v.5l2.2.4c.4.1.5.4.3.7l-3.3 4.9h-.4l-4.4-4c-.2-.1-.2-.4.2-.6l1.8-.8-.1-.5-7.8-5.2-.9.3 4.6 13.9c2.4-1 7.7-1.8 13.9-1.8 6.3 0 11.6.8 13.9 1.8l4.6-13.9-.6-.2-7.5 5.2-.1.5 1.8.8c.4.1.4.4.2.6l-4.7 4h-.4l-3.3-4.9c-.2-.3-.1-.6.3-.7l2.2-.4v-.6l-5.8-8.2Zm46.3 0-5.8 8.2v.4l2.2.4c.4.1.5.4.3.7l-3.3 4.9h-.4l-4.4-4c-.2-.1-.2-.4.2-.6l1.8-.7-.1-.5-7.8-5.2-.9.3 4.6 13.9c2.4-1 7.7-1.8 13.9-1.8 6.3 0 11.6.8 13.9 1.8l4.6-13.9-.6-.2-7.5 5.2-.1.5 1.8.8c.4.1.4.4.2.6l-4.7 4h-.4l-3.3-4.9c-.2-.3-.1-.6.3-.7l2.2-.4v-.6l-5.8-8.2Zm54.6 1.6c1.8 0 3.2.8 4.2 2.3.5.9.8 1.8.8 2.8 0 2.1-1.3 4.1-3.7 5.6-1.7 1-3.3 1.6-4.8 1.6a4.93 4.93 0 0 1-4.9-5c0-2.1 1.3-4.2 3.8-5.8 1.6-1 3.2-1.5 4.6-1.5zM25.7 55.8c-2.6 0-3.8 1.6-5.5 4.6L18 64.3l16.5 8.9 1.4-2.6-6.8-3.7.4-.7c1.2-2.1 1.6-2.4 4.5-2.2l5.3.5 1.4-2.9-6.1-.5c-1.2-.1-2.2-.2-3 0-.3.1-.6.3-.9.5.1-.3.2-.7.2-1 0-.5 0-1-.2-1.5-.3-1.1-1.1-1.9-2.3-2.6-.9-.5-1.8-.7-2.7-.7Zm-.2 2.9c.4 0 1 .1 1.5.4.7.4 1.2 1.1 1.6 1.7.1.3.1.5.1.8 0 1.1-.7 2.2-1.3 3.4l-.4.7-5.3-2.8.8-1.5c1.1-1.9 1.8-2.7 3-2.7zm173 10.5-6.8 8.1-11.1-2.7 1 3.1 8.3 1.9-5.5 6.4 1 3.2 7.3-8.8 10.3 2.5-1-3-7.5-1.7 5.1-5.8zM83.9 70.6c-7.1 0-12.9 1.1-12.9 2.5s5.8 2.5 12.9 2.5c7.1 0 12.9-1.1 12.9-2.5s-5.8-2.5-12.9-2.5zm46.3 0c-7.1 0-12.9 1.1-12.9 2.5s5.8 2.5 12.9 2.5c7.1 0 12.9-1.1 12.9-2.5s-5.8-2.5-12.9-2.5zM13.9 75l-3.1 10.4 18.1 5 2.8-10.3-2.5-.7-2.1 7.4-5.6-1.5 1.9-6.8-2.4-.7-1.9 6.8-5-1.4 2.3-7.5zm58 8v44.6h24c5.6 0 8.8 1.2 9.1 6.2h.5V93.3c0-3.9-1.3-7.1-4.2-8.9C99.5 83.3 97 83 94 83zm48.2 0c-3 0-5.5.3-7.3 1.4-2.9 1.7-4.2 4.9-4.2 8.9l-.1 40.5h.5c.3-5 3.6-6.2 9.1-6.2h24.2V83Zm-62 2a2.8 2.8 0 0 0-2.8 2.8 2.87 2.87 0 0 0 4.6 2.2l3.9 1.2V95l-2.9-.5c-.4-1-1.4-1.7-2.6-1.7a2.8 2.8 0 0 0-2.8 2.8c0 1.5 1.3 2.8 2.8 2.8.8 0 1.5-.4 2-.9l3.5.6v3.9l-3-.1a2.9 2.9 0 0 0-2.4-1.4c-1.5 0-2.8 1.3-2.8 2.8 0 1.5 1.3 2.8 2.8 2.8 1 0 1.8-.5 2.3-1.2l3.2.1v4.2l-3.1.1a2.8 2.8 0 0 0-5.1 1.6c0 1.5 1.3 2.8 2.8 2.8 1 0 1.9-.6 2.4-1.4l3-.1v3.9l-3.4.6c-.5-.6-1.2-.9-2-.9-1.5 0-2.8 1.3-2.8 2.8 0 1.5 1.3 2.8 2.8 2.8 1.2 0 2.2-.7 2.6-1.7l2.9-.5v3.8l-3.7 1.1c-.5-.4-1.1-.7-1.8-.7a2.8 2.8 0 0 0-2.8 2.8c0 1.5 1.3 2.8 2.8 2.8 1.3 0 2.4-.8 2.7-2l2.8-.9v3.7l-4.1 1.8c-.4-.3-.9-.5-1.5-.5a2.8 2.8 0 0 0-2.8 2.8c0 1.5 1.3 2.8 2.8 2.8 1.37 0 2.56-.95 2.8-2.3l2.9-1.2v3.4h35.3c1.5 2.5 3.9 3.8 7.7 3.8 3.8 0 6.3-1.3 7.7-3.8h35.1V86.5h-3.1v47.2h-34.2l-.4 1c-.6 1.4-1.7 2.8-5.4 2.8s-4.8-1.3-5.4-2.8l-.4-1H66.9V86.5h-3.1v1.4l-3-.9c-.4-1.1-1.4-2-2.7-2zm27.5 4.9c1.8.1 3.2 1.4 3.2 3.3 0 2.1-1.4 3.4-3.3 3.4-2 0-3.3-1.4-3.3-3.3 0-1.6 1.1-3.4 3.4-3.4zm4 .1h2.3l1.7 3.9 1.5-3.9h2.3v.5c-.8.1-.8.1-.8 1.1l.1 3.3c0 1.1.1 1.1.8 1.2v.4h-3.1v-.4c.7-.1.8-.1.8-1.2v-3.5l-1.9 4.9h-.5L91 91.7l-.1 2.2v1.6c0 .4.3.5.9.5v.4h-2.4V96c.5 0 .7-.1.7-.5.1-.3.1-.8.2-1.7l.1-2c.1-1.2 0-1.3-.8-1.4zm23.5 0h2.3l1.7 3.9 1.5-3.9h2.3v.5c-.7.1-.8.1-.8 1.1l.1 3.3c0 1.1.1 1.1.8 1.2v.4h-3.1v-.4c.7-.1.8-.1.8-1.2v-3.5l-1.9 4.9h-.5l-1.8-4.6-.1 2.2v1.6c0 .4.3.5.9.5v.4h-2.4V96c.5 0 .7-.1.7-.5.1-.3.1-.8.2-1.7l.1-2c.1-1.2 0-1.3-.8-1.4zm22.7 0 .7 1.9c.4 1.2.8 2.3 1.2 3.3.3.9.5.9 1 1v.4h-3.1v-.5h.2c.4 0 .4-.1.3-.5l-.4-1h-1.6l-.3.9c-.1.4-.1.5.3.6h.3v.4h-2.3v-.4c.5-.1.7-.1 1-.9l2-5.1zm-61 .1h2.8c1.2 0 2.2.2 2.9.9.5.4.8 1.2.8 2 0 2.4-1.9 3.5-4.1 3.5h-2.5v-.4c.7-.1.8-.1.8-1.2v-3.2c0-1.1-.1-1.1-.7-1.2zm23.4 0h3.2v.4c-.7.1-.8.1-.8 1.2v3.2c0 1.1.1 1.1.8 1.2v.4h-3.2v-.4c.7-.1.8-.1.8-1.2v-3.2c0-1.1-.1-1.1-.8-1.2zm23.5 0h3.2v.4c-.7.1-.8.1-.8 1.2v3.2c0 1.1.1 1.1.8 1.2v.4h-3.2v-.4c.7-.1.8-.1.8-1.2v-3.2c0-1.1-.1-1.1-.8-1.2zm3.8.1h2.2l3.3 4.1V93c0-1 0-1.6-.1-1.9-.1-.3-.3-.5-1-.5v-.4h2.5v.4c-.5 0-.8.2-.8.5s-.1.8-.1 1.9v3.6h-.9L127 92v1.8c0 1 0 1.6.1 1.9 0 .3.3.5 1 .5v.4h-2.5v-.4c.4 0 .7-.2.7-.5s.1-.8.1-1.9V92c0-.7 0-.9-.2-1.1-.1-.2-.4-.3-.7-.3zm-47.9.3c-.2 0-.4 0-.4.1-.1 0-.1.2-.1.5v3.8c0 .9.2 1 .7 1 .8 0 1.7-.9 1.7-2.7 0-2.1-1.1-2.7-1.9-2.7zm7.7 0c-.7 0-1.3.8-1.3 2.6s.7 3.1 1.6 3.1c.8 0 1.3-.8 1.3-2.6 0-2-.7-3.1-1.6-3.1zm49.7 1.6-.7 1.9h1.3zm70 2-18.6 1.5.2 3 8.4-.7.6 6.9 2.5-.2-.6-6.9 5.2-.4.6 7.4 2.6-.2zm-195.9.4L9 97.6l14.8 5.7-15.4 4.3.1 3.2 19-5.7.1-3.1zm108.1 7.2h.3c.2.2.3.2.5.2h3.9c.3 0 .3-.1.5-.2h.3c0 .4.1 1.2.1 2h-.4c-.1-.6-.3-.8-.4-1-.2-.2-.5-.2-1-.2h-.2v4.2c0 1.1.1 1.1.9 1.2v.4h-3.4v-.4c.8-.1.9-.1.9-1.2v-4.3h-.2c-.7 0-.9.1-1.1.3-.1.1-.2.4-.4 1h-.4c0-.8.1-1.5.1-2zm13.8 0c1.8.1 3.2 1.4 3.2 3.3 0 2.1-1.4 3.4-3.3 3.4-2 0-3.3-1.4-3.3-3.3 0-1.6 1.1-3.4 3.4-3.4zm-35.6.1c.3 0 .6 0 .9.1.2.1.4.1.5.1 0 .4.1.9.2 1.5l-.4.1c-.2-.6-.6-1.3-1.3-1.3-.5 0-.9.4-.9.9s.4.8 1 1.1l.2.1c.9.4 1.7.9 1.7 2.1 0 1.2-1 2.1-2.5 2.1-.4 0-.8-.1-1.1-.2-.3-.1-.5-.2-.6-.2-.1-.5-.2-1-.3-1.6l.4-.3c.2.6.8 1.7 1.8 1.7.5 0 .9-.3.9-1 0-.6-.4-.9-1-1.2l-.1-.1c-.8-.4-1.7-.9-1.7-1.9 0-1.1.8-2 2.3-2zm-16.4.1h2.2l3.3 4.1v-1.3c0-1 0-1.6-.1-1.9 0-.3-.3-.5-1-.5v-.4H89v.4h-.3c-.4 0-.4.1-.3.5.2.5 1 2.5 1.3 3.5.3-.8.9-2.7 1.1-3.2.2-.6.1-.7-.3-.8h-.3v-.4h2.4v.4c-.6.1-.7.1-1.1 1-.1.1-1.3 3.1-2 5.1h-.7c-.7-1.8-1.6-4.2-2-5.1-.3-.79-.5-.9-.98-1-.44 0-.63.22-.72.5 0 .3-.1.8-.1 1.9v3.7h-1l-3.6-4.6v1.8c0 1 0 1.6.1 1.9 0 .3.3.5 1 .5v.4h-2.4v-.4c.4 0 .7-.2.7-.5s.1-.8.1-1.9v-1.9c0-.7 0-.9-.2-1.1-.1-.2-.4-.3-.7-.3zm44.6 0h3.2v.4c-.7.1-.8.1-.8 1.2v3.2c0 1.1.1 1.1.8 1.2v.4h-3.2v-.4c.7-.1.8-.1.8-1.2v-3.2c0-1.1-.1-1.1-.8-1.2zm7.1.4c-.7 0-1.3.8-1.3 2.6s.7 3.1 1.6 3.1c.8 0 1.3-.8 1.3-2.6 0-2-.7-3.1-1.6-3.1zm63.9 10.1c-2.1 0-4.1.6-5.7 1.7-2.8 2-3.3 5-3.3 6.7 0 6.3 5.9 8.8 10.4 8.8 2 0 3.96-.56 5.6-1.7 3.2-2.3 3.4-5.7 3.3-6.7 0-5.6-5.1-8.8-10.3-8.8zm-61.1 1.2.7 1.9c.4 1.2.8 2.3 1.2 3.3.3.9.5.9 1 1v.4h-3.1v-.5h.2c.4 0 .4-.1.3-.5l-.4-1h-1.6l-.3.9c-.1.4-.1.5.3.6h.3v.4h-2.3v-.4c.5-.1.7-.1 1-.9l2-5.1zm-55.5.1h3.2v.4c-.7.1-.8.1-.8 1.2v3.2c0 1.1.1 1.1.8 1.2v.4H78v-.4c.7-.1.8-.1.8-1.2v-3.2c0-1.1-.1-1.1-.8-1.2zm3.8 0H85v.4c-.7.1-.8.1-.8 1.2v3.4h.1c0 .5 0 .8.2.8.2.1.4.1.7.1.3 0 .7 0 .9-.3.2-.2.3-.5.5-1l.4.1c-.1.4-.3 1.4-.4 1.7h-4.9v-.4c.7-.1.8-.1.8-1.2v-3.2c0-1.1-.1-1.1-.7-1.2zm5.5 0h3.2v.4c-.7.1-.8.1-.8 1.2v3.4h.1c0 .5 0 .8.2.8.2.1.4.1.7.1.3 0 .7 0 .9-.3.2-.2.3-.5.5-1l.4.1c-.1.4-.3 1.4-.4 1.7h-4.9v-.4c.7-.1.8-.1.8-1.2v-3.2c0-1.1-.1-1.1-.7-1.2zm4.2 0h3.2v.4h-.3c-.4 0-.4.1-.3.5.2.5 1 2.5 1.3 3.5.3-.8.9-2.7 1.1-3.2.2-.6.1-.7-.3-.8h-.3v-.4h2.4v.4c-.6.1-.7.1-1.1 1-.1.1-1.3 3.1-2 5.1h-.7c-.7-1.8-1.6-4.2-2-5.1-.3-.8-.5-.9-1-1zm24.4 0h2.3l1.7 3.9 1.5-3.9h2.3v.4c-.7.1-.8.1-.8 1.1l.1 3.3c0 1.1 0 1.1.8 1.2v.4h-3.1v-.4c.7-.1.8-.1.8-1.2V115l-1.9 4.9h-.5l-1.8-4.6-.1 2.2v1.6c0 .4.3.5.9.5v.4h-2.4v-.3c.5 0 .7-.1.7-.5.1-.3.1-.8.2-1.7l.1-2c.1-1.2 0-1.3-.8-1.4zm8.7 0h4.7c0 .2.1.9.1 1.6h-.4c-.1-.5-.2-.8-.4-.9-.2-.2-.5-.2-1-.2h-.2c-.4 0-.4 0-.4.3v1.9h.5c.8 0 .9-.1 1-.8h.4v2.3h-.4c-.1-.9-.1-.9-1-.9h-.5v1.6c0 .5 0 .8.2.8.2.1.4.1.7.1.4 0 .8-.1 1-.3.2-.2.3-.5.5-1l.4.1c0 .5-.3 1.5-.3 1.8h-5v-.4c.8-.1.8-.1.8-1.2v-3.2c0-1.1-.1-1.1-.7-1.2zm69.9 1.7c1.8 0 5.2.5 6.9 3 .6.8.9 1.8.9 2.8 0 1.4-.6 3.1-2.1 4.2-1.1.8-2.5 1.2-4.1 1.2-3.6 0-7.9-2-7.9-5.7 0-1.3.5-3.1 2.1-4.3 1.1-.8 2.6-1.2 4.2-1.2zm-61.8.3-.7 1.9h1.3zm-104.8 1.5-18.5 2.7.4 3 18.5-2.7zm1.9 10.6L12.1 134l1 2.6 13-4.6-10.2 12.4 1 2.7 17.5-6.7-1-2.6-12.7 5 10.1-12.3zm152.9 6.1-1.2 2.7 7.1 3.2-.4.8c-1 2.1-1.4 2.5-4.3 2.5h-5.4l-1.3 2.9h6.2c1.3 0 2.2 0 3-.3.3-.1.5-.3.8-.5 0 .2-.1.3-.1.5 0 .7.1 1.4.4 2 .8 1.9 3.1 2.9 4.8 2.9 3 0 4.2-1.8 5.6-5.1 0-.1 1.7-4 1.8-3.9zm8.1 6.9 5.4 2.4-.6 1.4c-1 2.3-1.7 3-3.1 3-.9 0-2.3-.5-2.8-1.8-.1-.4-.2-.7-.2-1.1 0-1 .5-2.1 1-3.2zm-84.4 4.1-5.8 8.2v.6l2.2.4c.4.1.5.4.3.7l-3.3 4.9h-.4l-4.4-4c-.2-.1-.2-.4.2-.6l1.8-.8-.1-.5-7.8-5.2-.6.2 4.6 13.9c2.4-1 7.7-1.8 13.9-1.8 6.3 0 11.6.8 13.9 1.8l4.3-13.9-.6-.2-7.5 5.2-.1.5 1.8.8c.4.1.4.4.2.6l-4.7 4h-.4l-3.3-4.9c-.2-.3-.1-.6.3-.7l2.2-.4v-.6l-5.8-8.2zm-70.1 3.8c-1.7 0-3.6 1.1-5.9 2.7l-8.3 5.6 1.7 2.4 8.7-5.9c1.8-1.2 2.8-1.9 3.8-1.9 1.1 0 2.3.5 3.2 1.8.6.9.9 1.8.9 2.6 0 1.3-.7 2.2-2.3 3.3-.2.1-9.7 6.9-9.7 6.9l1.7 2.5 9.4-6.6c3.2-2.2 3.8-3.7 3.8-5.5 0-1.6-.5-3.1-1.5-4.5-1.2-1.6-3-3.2-5.5-3.4zm137.9 2.2-2.6 3.3c-1.9 2.4-3.4 4.6-3.4 7.4 0 2.4 1.1 5.1 3.8 7.3 1.8 1.4 3.9 2.2 6 2.2 2.6 0 4.7-.7 7.9-4.8l2.9-3.7zm.1 3.8 10.7 8.5-.8 1c-2 2.5-3.4 4-6 4-1.5 0-2.8-.5-4.3-1.7-1.4-1.1-3-3-3-5.3 0-1.6.9-3.2 2.2-5zm-67.2 9.3c-7.1 0-12.9 1.1-12.9 2.5s5.8 2.5 12.9 2.5c7.1 0 12.9-1.1 12.9-2.5s-5.8-2.5-12.9-2.5zm-36.2 2.7c7.4 0 14.3 3.8 18.4 9.9-3.5-.9-7-2-10.4-3.5l-.1-.1a17.66 17.66 0 0 0-21.9 5.6c-1.3-.8-2.7-1.6-4-2.4 4-5.7 10.7-9.5 18-9.5zm1.87 7.67c1.64.17 3.24.62 4.73 1.33l3.9 2.3c12.5 7.6 44.7 27.2 83.6 16.4-14.7 13.3-32.9 19.9-55.4 19.9-14.4 0-32.3-4.8-44.6-12.1-3.8-2.2-8.2-6.3-8.2-13.3 0-1.85.31-3.68 1-5.4 4.6 3.8 9.3 7.4 12.3 9 .7.4 1.1.6 1.9.6 3.82 0 4.91-5.2 1.4-6.7-2.5-1.1-7.9-3.3-13.6-6.3a14.35 14.35 0 0 1 12.97-5.73zM51.7 178.2c1.1 1.1 2.3 2.1 3.6 3.2a17.2 17.2 0 0 0-1.7 7.5c0 6.6 3.4 12.1 9.7 15.8 3.6 2.2 7.7 4.1 12.1 5.8-1.4.3-2.8.4-4.3.4-16.79 0-27.45-17.97-19.4-32.7zm38.1 1.3c3.1.7 7.3 1.6 10.5 1.9-.9.7-1.7 1.5-2.2 2.4-2.7-1.3-6.1-3-8.3-4.3zm33.2.5c-2.1 3.1-3.4 7.4-3.8 11.7-6.8-1.8-12.9-4.1-18.3-6.6 1-2 4-3.4 6.1-3.4 5.5 0 10.8-.6 16-1.7zm-27.4 16.6c-1.4 0-2.6 1.2-2.6 2.6 0 1.5 1.2 2.6 2.6 2.6 1.4 0 2.6-1.2 2.6-2.6 0-1.4-1.2-2.6-2.6-2.6zm26.1 4.3c-1.4 0-2.6 1.2-2.6 2.6 0 1.4 1.2 2.6 2.6 2.6 1.4 0 2.6-1.2 2.6-2.6 0-1.4-1.2-2.6-2.6-2.6zM95.4 216c4.9.8 9.7 1.3 14.2 1.3 3.6 0 7.2-.2 10.8-.5.5 2 1.2 4.1 2 6.3h-.4c-4 0-7.2 2.8-7.2 7.1 0 4.2 3.3 7.1 7.2 7.1.6 0 1.1-.1 1.7-.2-.9 6-7.8 12.6-16.7 15.6-8.9-3-15.8-9.7-16.7-15.6.5.1 1.1.2 1.7.2 4.3 0 7.2-3 7.2-7.1 0-3.9-3-7-7-7.1 1.2-2.2 2.3-4.6 3.2-7.1z" /></svg>