<svg height="2497" viewBox="0 0 288 287.6" width="2500" xmlns="http://www.w3.org/2000/svg"><path d="m0 0h288v287.6h-288z" fill="#002147"/><g fill="#fff"><path d="m64.4 237.7c0 10.9-8.4 18.8-18.9 18.8-10.7 0-18.9-8-18.9-18.4 0-10.9 8.4-18.8 18.9-18.8 10.7 0 18.9 8 18.9 18.4zm-6 .2c0-9.9-4.8-16.8-12.9-16.8-8.8 0-12.9 8.3-12.9 16.8 0 9.9 4.8 16.8 12.9 16.8 8.8-.1 12.9-8.3 12.9-16.8zm121.3-.2c0 10.9-8.4 18.8-18.9 18.8-10.7 0-18.9-8-18.9-18.4 0-10.9 8.4-18.8 18.9-18.8 10.7 0 18.9 8 18.9 18.4zm-6 .2c0-9.9-4.8-16.8-12.9-16.8-8.8 0-12.9 8.3-12.9 16.8 0 9.9 4.8 16.8 12.9 16.8 8.8-.1 12.9-8.3 12.9-16.8zm20.6.2h4.5c6.8 0 8.3-4.3 8.3-8.4 0-3.1-1.4-6-4.6-7.4-1.7-.7-3.3-.7-5.5-.7h-2.7zm8.3 5.7c-2.1-3-2.9-4.1-5.5-4.1h-2.8v12.2c0 1 .4 1.5 1.5 1.7l4.1.9v1.3h-16.1v-1.3l3.7-.9c1.1-.3 1.5-.7 1.5-1.7v-28.2c0-1-.4-1.4-1.5-1.7l-3.7-.9v-1.3h15.7c3.3 0 5.6.3 7.5 1 3.9 1.5 6.1 5.2 6.1 8.7 0 4.4-3.3 8.1-8.8 9.4v.2c1.1.5 1.7 1.2 5.6 6.3l4.9 6.5c.7 1 1.6 1.6 2.7 1.8l3.6.8v1.3h-8.6c-1 0-1.5-.3-2.4-1.5zm-70.5-11.6h1.5v12h-1.5l-.9-3.6c-.3-1.3-1.1-1.8-2.3-1.8h-8.7v13.2c0 1 .4 1.5 1.5 1.7l4.1.9v1.3h-16.1v-1.3l3.7-.9c1.1-.3 1.5-.7 1.5-1.7v-28.2c0-1-.4-1.4-1.5-1.7l-3.7-.9v-1.3h27.2v9h-1.5l-1.7-5.4c-.4-1.4-1-1.9-2.2-1.9h-11.3v15.5h8.7c1.2 0 1.9-.5 2.3-1.8zm91.9 23.6v-1.3l3.7-.9c1.1-.3 1.5-.7 1.5-1.7v-28.2c0-1-.4-1.4-1.5-1.7l-3.7-.9v-1.3h16.9c4.6 0 7.9.6 10.6 1.8 6.8 3.1 9.9 9.8 9.9 16.4 0 6.4-2.4 12.4-8.5 15.6-2.8 1.5-6.7 2.2-11.8 2.2zm10.5-34.2v31c0 1.3.3 1.6 1.6 1.6h4.4c4.2 0 7.3-.6 9.5-2.2 3.7-2.7 5.4-7.6 5.4-13.8 0-6.1-1.7-12.1-6.7-15-2.1-1.2-4.8-1.6-9-1.6zm-156 32.9v1.3h-12.7v-1.3l3.2-.8c1.2-.3 2-.7 2.8-1.6l11-13.8-11-14.6c-.7-1-1.6-1.5-2.7-1.8l-3-.8v-1.3h15.8v1.3l-3.4.7c-1.2.2-.9.7-.3 1.5l8.1 11.6h.2l8.3-11.6c.6-.8.8-1.1-.3-1.4l-3.2-.8v-1.3h12.7v1.3l-3.2.8c-1.2.3-2 .7-2.8 1.6l-10.4 13.1 11.6 15.3c.7 1 1.6 1.5 2.7 1.8l3 .8v1.3h-15.9v-1.3l3.4-.7c1.2-.2 1-.6.4-1.4l-8.8-12.4h-.2l-8.8 12.4c-.6.8-.8 1.1.3 1.4zm-37.9-51.6c-1 1-2.5 1.7-4.6 1.7-1.8 0-3.5-.6-4.6-1.7-1.6-1.6-1.5-3.5-1.5-5.6v-10h2v10.7c0 1.4 0 2.7 1 3.7.7.7 1.8 1.1 3.1 1.1s2.3-.4 2.9-1.1c1.2-1.2 1.1-2.4 1.1-5.5v-9h2v8.5c.1 3.2.3 5.6-1.4 7.2zm18.1 1.4-8.2-14 .1 14h-1.9v-17h2.1l8.2 14.1v-14.2h1.9v17h-2.2zm9.2 0v-17h2.1v17zm14.8 0h-2.3l-5.9-17h2.1l5 15 5.1-15h2zm10.7 0v-17h9.3v1.7h-7.3v5.6h6.8v1.7h-6.8v6.3h7.5v1.8zm22.4-14.5c-1-1-2.2-.9-3.6-.9h-1.9v6.4h.7c1.7 0 3.6.1 4.7-1.1.6-.6.9-1.4.9-2.2 0-1-.4-1.8-.8-2.2zm1.9 14.5-2-4.4c-1.2-2.7-1.8-3-4.2-3h-1.2v7.4h-2v-17h3.7c2.3 0 4 0 5.3 1.3.9.9 1.3 2 1.3 3.4 0 1.2-.3 2.2-1.1 2.9-.6.7-1.6 1.2-2.7 1.3.6 0 1.1.4 1.4.7.5.5.8 1.2 1.3 2.3l2.3 5.1zm22 0v-17h2.1v17zm13.7-15.4v15.3h-2.1v-15.3h-5.1v-1.7h12.2v1.7zm14.9 8.6v6.7h-2v-6.7l-5.4-10.3h2.3l4.2 8 4.1-8h2.2zm24.5-8.9c-3.3 0-5.5 2.8-5.5 7.1 0 4.2 2.4 7.1 5.6 7.1 3.6 0 5.5-3 5.5-7.3.1-4.1-2.3-6.9-5.6-6.9zm0 16c-4.4 0-7.6-3.6-7.6-8.8 0-5.3 3.2-8.9 7.8-8.9 4.5 0 7.6 3.6 7.6 8.8s-3.1 8.9-7.8 8.9zm15.5-15.7v5.6h6.6v1.7h-6.6v8.1h-2v-17h9.1v1.7h-7.1zm-84.4 2.5c0-2.6 2.1-4.5 5.2-4.5s4.6 1.6 4.8 1.8l-1 1.2c-.4-.3-1.7-1.3-3.6-1.3-2.2 0-3.4 1.1-3.4 2.7 0 .7.3 1.3.8 1.7.6.5 1.4.9 2.4 1.3 1.1.5 2.7 1.1 3.8 2.2.7.8 1.3 1.7 1.3 3.1 0 2.8-2 5-5.5 5-3 0-4.9-1.7-5.1-1.8l.9-1.4c.5.4 2.4 1.5 4.1 1.5 2.6 0 3.5-1.4 3.5-3.1 0-.8-.4-1.4-.9-1.9-.8-.8-2-1.3-3.2-1.8-1.1-.5-2.2-1.1-3-1.9-.6-.6-1.1-1.5-1.1-2.8zm100.7-123.3v25.5h-18.4l-.2.5c-.3.8-.9 1.5-2.9 1.5s-2.6-.7-2.9-1.5l-.2-.5h-18.4v-25.5h-1.7v.8l-1.6-.5c-.2-.6-.8-1.1-1.4-1.1-.8 0-1.5.7-1.5 1.5s.7 1.5 1.5 1.5c.4 0 .7-.1 1-.4l2.1.6v2l-1.6-.3c-.2-.5-.8-.9-1.4-.9-.8 0-1.5.7-1.5 1.5s.7 1.5 1.5 1.5c.4 0 .8-.2 1.1-.5l1.9.3v2.1l-1.6-.1c-.3-.4-.7-.7-1.3-.7-.8 0-1.5.7-1.5 1.5s.7 1.5 1.5 1.5c.5 0 .9-.3 1.2-.6l1.7.1v2.3l-1.7.1c-.3-.4-.7-.6-1.2-.6-.8 0-1.5.7-1.5 1.5s.7 1.5 1.5 1.5c.5 0 1-.3 1.3-.7l1.6-.1v2.1l-1.8.3c-.3-.3-.7-.5-1.1-.5-.8 0-1.5.7-1.5 1.5s.7 1.5 1.5 1.5c.6 0 1.2-.4 1.4-.9l1.5-.3v2.1l-2 .6c-.3-.2-.6-.4-1-.4-.8 0-1.5.7-1.5 1.5s.7 1.5 1.5 1.5c.7 0 1.3-.5 1.4-1.1l1.5-.5v2l-2.2 1c-.2-.2-.5-.3-.8-.3-.8 0-1.5.7-1.5 1.5s.7 1.5 1.5 1.5c.7 0 1.4-.5 1.5-1.3l1.6-.7v1.8h19.1c.8 1.4 2.1 2.1 4.1 2.1s3.4-.7 4.1-2.1h19.1v-26.7z"/><ellipse cx="190.5" cy="61" rx="7" ry="1.3"/><path d="m200.1 51.3-4 2.8v.3l1 .4c.2.1.2.2.1.3l-2.5 2.1h-.2l-1.8-2.6c-.1-.2-.1-.3.1-.4l1.2-.2v-.3l-3.1-4.4h-.5l-3.1 4.4v.3l1.2.2c.2 0 .3.2.1.4l-1.8 2.6h-.2l-2.4-2.1c-.1-.1-.1-.2.1-.3l1-.4v-.3l-4.2-2.8-.3.1 2.5 7.5c1.3-.6 4.1-1 7.5-1s6.2.4 7.5 1l2.5-7.5z"/><ellipse cx="203" cy="111.4" rx="7" ry="1.3"/><path d="m212.6 101.8-4 2.8v.3l1 .4c.2.1.2.2.1.3l-2.5 2.1h-.2l-1.8-2.6c-.1-.2-.1-.3.1-.4l1.2-.2v-.3l-3.1-4.4h-.5l-3.1 4.4v.3l1.2.2c.2 0 .3.2.1.4l-1.8 2.6h-.2l-2.4-2.1c-.1-.1-.1-.2.1-.3l1-.4v-.3l-4.2-2.8-.3.1 2.5 7.5c1.3-.6 4.1-1 7.5-1s6.2.4 7.5 1l2.5-7.5z"/><ellipse cx="215.5" cy="61" rx="7" ry="1.3"/><path d="m225.1 51.3-4 2.8v.3l1 .4c.2.1.2.2.1.3l-2.5 2.1h-.2l-1.8-2.6c-.1-.2-.1-.3.1-.4l1.2-.2v-.3l-3.1-4.4h-.5l-3.1 4.4v.3l1.2.2c.2 0 .3.2.1.4l-1.8 2.6h-.2l-2.4-2.2c-.1-.1-.1-.2.1-.3l1-.4v-.3l-4.2-2.8-.3.1 2.5 7.5c1.3-.6 4.1-1 7.5-1s6.2.4 7.5 1l2.5-7.5zm-22.9 20.6c0-2.1-.7-3.9-2.3-4.8-1-.6-2.3-.8-4-.8h-11.9v24.1h13c3 0 4.8.7 4.9 3.4h.3zm-8.8 1.5c.3 0 .4-.1.4-.3s.1-.4.1-.9l.1-1.1c0-.7 0-.7-.4-.8v-.2h1.2l.9 2.1.8-2.1h1.3v.2c-.4 0-.4.1-.4.6l.1 1.8c0 .6 0 .6.4.6v.2h-1.7v-.2c.4 0 .4-.1.4-.6v-1.9l-1 2.7h-.3l-1-2.5v2.1c0 .2.1.2.5.3v.2h-1.3zm3.1 5.3c-.5-.2-1-.5-1-1.1s.4-1.1 1.3-1.1c.2 0 .3 0 .5.1.1 0 .2.1.3.1 0 .2.1.5.1.8h-.2c-.1-.3-.3-.7-.7-.7-.3 0-.5.2-.5.5s.2.4.5.6l.1.1c.5.2.9.5.9 1.1 0 .7-.5 1.1-1.3 1.1-.2 0-.4 0-.6-.1s-.3-.1-.3-.1c0-.2-.1-.5-.2-.9l.2-.1c.1.3.4.9.9.9.3 0 .5-.2.5-.5 0-.4-.2-.6-.5-.7zm-3.5-1.7c.1.3.5 1.3.7 1.9.2-.5.5-1.5.6-1.7.1-.3.1-.4-.2-.4h-.2v-.2h1.3v.2c-.3 0-.4.1-.6.5 0 .1-.7 1.7-1.1 2.7h-.4c-.4-1-.9-2.3-1.1-2.8s-.3-.5-.5-.5v-.2h1.7v.2h-.2c-.1.1-.1.2 0 .3zm-1.6-6.9c1 0 1.7.7 1.7 1.8s-.8 1.8-1.8 1.8c-1.1 0-1.8-.8-1.8-1.8.1-.8.7-1.8 1.9-1.8zm-5.9 3.5v-.2c.4 0 .4-.1.4-.6v-1.8c0-.6 0-.6-.4-.6v-.2h1.6c.7 0 1.2.1 1.6.5.3.2.5.6.5 1.1 0 1.3-1 1.9-2.2 1.9h-1.5zm3.6 9.5c-.4 0-.4.1-.4.6v1.8c0 .6 0 .6.4.6v.2h-1.7v-.2c.4 0 .4-.1.4-.6v-1.8c0-.6 0-.6-.4-.6v-.2h1.7zm0-3.1h-1.3v-.2c.2 0 .4-.1.4-.3v-2c0-.4 0-.5-.1-.6s-.2-.1-.4-.2v-.2h1.2l1.8 2.2v-.7-1c0-.2-.2-.3-.5-.3v-.2h1.4v.2c-.3 0-.4.1-.4.3v3h-.5l-2-2.5v2c0 .2.2.3.5.3zm2.9 6.4h-2.6v-.2c.4 0 .4-.1.4-.6v-1.8c0-.6 0-.6-.4-.6v-.2h1.7v.2c-.4 0-.4.1-.4.6v1.8c0 .3 0 .4.1.5h.4c.2 0 .4 0 .5-.2.1-.1.2-.2.3-.5h.2c0 .3-.1.8-.2 1zm3 0h-2.6v-.2c.4 0 .4-.1.4-.6v-1.8c0-.6 0-.6-.4-.6v-.2h1.7v.2c-.4 0-.4.1-.4.6v1.8c0 .3 0 .4.1.5h.4c.2 0 .4 0 .5-.2.1-.1.2-.2.3-.5h.2c0 .3-.2.8-.2 1zm3.3-3.3c-.3 0-.4.1-.6.5 0 .1-.7 1.7-1.1 2.7h-.4c-.4-1-.9-2.3-1.1-2.8s-.3-.5-.5-.5v-.2h1.7v.2h-.2c-.2 0-.2.1-.1.3.1.3.5 1.3.7 1.9.2-.5.5-1.5.6-1.7.1-.3.1-.4-.2-.4h-.2v-.2h1.3zm1.7-12.7c-.4 0-.4.1-.4.6v1.8c0 .6 0 .6.4.6v.2h-1.7v-.2c.4 0 .4-.1.4-.6v-1.8c0-.6 0-.6-.4-.6v-.2h1.7z"/><path d="m187.1 70.5h-.2v2.3c0 .5.1.6.4.6.5 0 .9-.5.9-1.4-.1-1.2-.6-1.5-1.1-1.5zm4.4 2.9c.5 0 .7-.4.7-1.4 0-1.1-.4-1.7-.8-1.7s-.7.5-.7 1.4c-.1 1 .2 1.7.8 1.7zm25.3 10.6-.3 1h.7zm1.3-12.7-.4 1h.7zm-3 6.9c0 1 .4 1.7.9 1.7s.7-.4.7-1.4c0-1.1-.4-1.7-.8-1.7-.5 0-.8.4-.8 1.4z"/><path d="m210.1 66.4c-1.6 0-3 .2-4 .8-1.6.9-2.3 2.6-2.3 4.8v21.9h.3c.2-2.7 1.9-3.4 4.9-3.4h13.1v-24.1zm2.8 3.8h1.2l1.8 2.2v-.7-1c0-.2-.2-.3-.5-.3v-.2h1.4v.2c-.3 0-.4.1-.4.3v3h-.5l-2-2.5v2c0 .2.2.3.5.3v.2h-1.4v-.2c.2 0 .4-.1.4-.3v-2c0-.4 0-.5-.1-.6s-.2-.1-.4-.2zm4.8 8c0 1.1-.8 1.8-1.8 1.8-1.1 0-1.8-.8-1.8-1.8 0-.9.6-1.9 1.8-1.9 1 .2 1.8.9 1.8 1.9zm-4 1.6v.2h-1.7v-.2c.4 0 .4-.1.4-.6v-1.8c0-.6 0-.6-.4-.6v-.2h1.7v.2c-.4 0-.4.1-.4.6v1.8c0 .5 0 .6.4.6zm-2.8-6.4c.4 0 .4-.1.4-.6v-1.8c0-.6 0-.6-.4-.6v-.2h1.7v.2c-.4 0-.4.1-.4.6v1.8c0 .6 0 .6.4.6v.2h-1.7zm.1 6.4v.2h-1.9v-.2c.4 0 .5-.1.5-.6v-2.3h-.1c-.4 0-.5.1-.6.2s-.1.2-.2.5h-.2c0-.4.1-.8.1-1.1h.2c.1.1.1.1.3.1h2.1c.1 0 .2 0 .3-.1h.2c0 .2 0 .7.1 1.1h-.2c-.1-.3-.1-.5-.2-.5-.1-.1-.3-.1-.5-.1h-.1v2.3c-.3.4-.3.5.2.5zm-3.6-6.2h-1.3v-.2c.3 0 .4-.1.4-.3s.1-.4.1-.9l.1-1.1c0-.7 0-.7-.4-.8v-.2h1.2l.9 2.1.8-2.1h1.3v.2c-.4 0-.4.1-.4.6l.1 1.8c0 .6 0 .6.4.6v.2h-1.7v-.2c.4 0 .4-.1.4-.6v-1.9l-1 2.7h-.3l-1-2.5v2.1c0 .2.1.2.5.3zm4.7 12.8h-1.7v-.2c.4 0 .4-.1.4-.6v-1.9l-1 2.7h-.3l-1-2.5v2.1c0 .2.1.2.5.3v.2h-1.3v-.2c.3 0 .4-.1.4-.3s.1-.4.1-.9l.1-1.1c0-.7 0-.7-.4-.8v-.2h1.2l.9 2.1.8-2.1h1.3v.2c-.4 0-.4.1-.4.6l.1 1.8c0 .6 0 .6.4.6zm3 0h-2.7v-.2c.4 0 .5-.1.5-.6v-1.8c0-.6 0-.6-.4-.6v-.2h2.5c0 .1 0 .5.1.9h-.2c-.1-.3-.1-.4-.2-.5s-.3-.1-.5-.1h-.2c-.2 0-.2 0-.2.2v1h.3c.5 0 .5 0 .5-.4h.2v1.3h-.2c-.1-.5-.1-.5-.5-.5h-.3v.9c0 .3 0 .4.1.5h.4c.2 0 .4 0 .6-.2.1-.1.2-.3.3-.5h.2c-.1.1-.2.6-.3.8zm3.7 0h-1.7v-.2h.2c.2 0 .2-.1.1-.3l-.2-.5h-.9l-.2.5c-.1.2-.1.3.2.3h.2v.2h-1.2v-.2c.3 0 .4-.1.5-.5l1.1-2.7.4-.1.4 1c.2.6.5 1.3.7 1.8s.3.5.5.5zm1.3-12.8h-1.7v-.2h.2c.2 0 .2-.1.1-.3l-.2-.5h-.9l-.2.5c-.1.2-.1.3.2.3h.2v.2h-1.2v-.2c.3 0 .4-.1.5-.5l1.1-2.7.4-.1.4 1c.2.6.5 1.3.7 1.8s.3.5.5.5z"/><circle cx="196.9" cy="129.1" r="1.4"/><circle cx="210.9" cy="131.4" r="1.4"/><circle cx="203" cy="31" r="1.4"/><circle cx="236" cy="44" r="1.4"/><path d="m167.8 103.7c.5.8.8 1.6.8 2.4 0 1-.3 1.8-2.1 3l-5 3.6-.9-1.3s5.1-3.7 5.2-3.7c.9-.6 1.3-1.1 1.3-1.8 0-.4-.2-.9-.5-1.4-.5-.7-1.1-1-1.7-1-.5 0-1.1.4-2.1 1.1l-4.7 3.2-.9-1.3 4.5-3c1.2-.9 2.2-1.5 3.2-1.5 1.3-.1 2.3.8 2.9 1.7zm-16.1-9.8 9.5-3.3.5 1.4-5.5 6.7 6.9-2.7.5 1.4-9.4 3.6-.5-1.4 5.5-6.7-7 2.5zm-1.4-7.6 10-1.5.2 1.6-10 1.5zm-.3-12.1v-1.7l10 4.1-.1 1.7-10.2 3.1v-1.7l8.3-2.3zm9.1-22.6c-1.4 0-2.1.8-3 2.5l-1.2 2.1 8.9 4.8.8-1.4-3.7-2 .2-.4c.6-1.1.8-1.3 2.4-1.2l2.9.3.8-1.5-3.3-.3c-.7-.1-1.2-.1-1.6 0-.1 0-.3.1-.5.2 0-.2.1-.4.1-.5 0-.3 0-.6-.1-.8-.2-.6-.6-1.1-1.3-1.4-.4-.2-.9-.4-1.4-.4zm-1.8 3.1c.6-1.1 1-1.5 1.6-1.5.2 0 .5.1.8.2.4.2.7.6.8.9 0 .1.1.3.1.4 0 .6-.3 1.2-.7 1.8l-.2.4-2.8-1.5zm12.9-17.3 1.3-1 6.1 8-1.3 1zm5.5-4 6.5-3.4.6 1.2-2.5 1.3 4 7.7-1.4.7-4-7.7-2.6 1.3zm16.3-6.4 1.7-.5-1.4 6.8 1.1 3.8-1.5.4-1.1-3.8-4.8-5 1.7-.5 3.4 3.6zm30.8 13.8 5.1-8.7 4.8 2.8-.7 1.2-3.4-2-1.4 2.4 3.2 1.9-.7 1.2-3.2-1.9-2.3 3.9zm26 22.5 3.7-4.4.6 1.7-2.7 3.1 4.1.9.5 1.6-5.6-1.3-4 4.7-.6-1.7 3-3.5-4.5-1-.5-1.7zm-2.9 9.9 10.1-.8.5 5.6-1.4.1-.3-4-2.8.2.3 3.8-1.3.1-.3-3.8-4.6.4zm4.4 9c-1.2 0-2.2.3-3.1.9-1.5 1.1-1.8 2.7-1.8 3.6 0 3.4 3.2 4.8 5.6 4.8 1.2 0 2.2-.3 3.1-.9 1.7-1.2 1.8-3.1 1.8-3.7 0-3-2.7-4.7-5.6-4.7zm.8 7.7c-2 0-4.3-1.1-4.3-3.1 0-.7.3-1.7 1.1-2.3.6-.4 1.4-.7 2.3-.7 1 0 2.8.3 3.8 1.6.3.4.5 1 .5 1.5 0 .8-.3 1.7-1.1 2.3-.6.5-1.4.7-2.3.7zm-6.6-41.3c-1 0-2.1.3-3.2 1-1.9 1.2-2.6 3-2.6 4.3 0 .8.2 1.7.7 2.4 1.1 1.7 2.7 2.1 3.8 2.1 1 0 2.1-.3 3.2-1 1.2-.8 2.6-2.3 2.6-4.3 0-.8-.2-1.6-.7-2.4-.9-1.4-2.3-2.1-3.8-2.1zm-1.6 8.2c-.9 0-1.7-.4-2.3-1.3-.3-.5-.4-.9-.4-1.4 0-1.1.7-2.3 2-3.2.9-.6 1.7-.8 2.5-.8 1 0 1.8.4 2.3 1.3.3.5.5 1 .5 1.5 0 1.1-.7 2.2-2 3-.9.6-1.8.9-2.6.9zm-26-29c-2.1 0-3.9 1.4-4.7 3.9-.2.6-.3 1.1-.3 1.6 0 1 .2 1.8.6 2.6.9 1.7 2.6 2.3 3.9 2.3.7 0 1.4-.2 2.1-.5 1.7-.9 2.8-3.1 2.8-5.2 0-.9-.2-1.7-.6-2.5-.7-1.4-2.2-2.2-3.8-2.2zm-.5 9c-.7 0-1.8-.4-2.4-1.4-.3-.5-.4-1.2-.4-1.8 0-1.8 1.2-4.3 3.4-4.3 1.2 0 2.8.9 2.8 3.2 0 1.3-1 4.3-3.4 4.3zm-55.4 27.6 1.4.4-1.5 5.5-9.8-2.7 1.7-5.6 1.3.4-1.2 4 2.7.7 1-3.7 1.3.4-1 3.7 3 .8zm2.6-21.1c1.4-1.6 2.8-1.5 2.8-1.5l.2 1.3s-1.1 0-2 1c-.4.4-.6.9-.6 1.3 0 .3.1.6.4.8.7.6 1.9-.1 2.6-.4.6-.2 1.4-.6 2.2-.6.6 0 1.2.2 1.8.7.7.6 1 1.4 1 2.1 0 .9-.3 1.6-1 2.4-1.3 1.4-3 1.6-3 1.6l-.3-1.4c1-.2 1.8-.6 2.3-1.2.4-.4.5-.9.5-1.3s-.2-.7-.5-1c-.3-.2-.6-.3-.9-.3-.6 0-1.4.4-2.1.6-1.2.5-2.5.9-3.7-.1-.6-.5-.9-1.2-.9-1.9.2-.5.5-1.4 1.2-2.1zm79.6 52 3.8 1.7-.2.4c-.5 1.2-.7 1.4-2.3 1.4h-2.9l-.7 1.6h3.3c.7 0 1.2 0 1.6-.2.1-.1.3-.1.4-.3v.3c0 .4.1.7.2 1.1.5 1.1 1.7 1.6 2.6 1.6 1.6 0 2.2-1 3-2.7 0-.1.9-2.2.9-2.2l-9.2-4.1zm6 5.9c-.5 0-1.2-.3-1.5-1-.1-.2-.1-.4-.1-.6 0-.6.3-1.1.5-1.7l.2-.4 2.9 1.3-.3.8c-.6 1.3-1 1.6-1.7 1.6zm-11.3 3.6c-1 1.3-1.8 2.5-1.8 4 0 1.3.6 2.7 2.1 3.9 1 .8 2.1 1.2 3.2 1.2 1.4 0 2.5-.4 4.3-2.6l1.6-2-7.9-6.3zm3.6 7.6c-.8 0-1.6-.3-2.3-.9-.8-.6-1.6-1.6-1.6-2.9 0-.9.5-1.7 1.2-2.6l.7-.8 5.8 4.6-.4.6c-1.3 1.2-2 2-3.4 2z"/><path d="m260.9 79.3c0-31.8-26-57.8-57.9-57.8s-57.9 25.9-57.9 57.8c0 19.1 9.4 36.9 25.2 47.7 1.6 5.8 6.9 10.1 13.1 10.1 1.7 0 3.4-.3 4.9-.9 2.1.7 4.3 1.3 6.5 1.7-.6 1.8-1.5 3.4-2.4 4.9s0 0-.1 0l1.2 1.2c.3-.2.7-.3 1-.3 1.2 0 2.2 1 2.2 2.2s-1 2.2-2.2 2.2c-1 0-2-.7-2.4-1.4 0 0-.3 1-.3 2.3 0 4.1 4.5 8.9 10.8 10.9 6.3-2 10.8-6.7 10.8-10.9 0-1.4-.3-2.3-.3-2.3-.5.6-1.3 1.4-2.4 1.4-1.2 0-2.2-1-2.2-2.2s1-2.2 2.2-2.2c.4 0 .8.1 1.1.3l1.2-1.2c-.7-1.6-1.1-3-1.5-4.4 10.4-1.4 19.2-5.8 26.2-13.1 14.9-11.1 23.2-27.8 23.2-46zm-77.3 56.1c-6.6 0-11.9-5.4-11.9-11.9 0-2.1.5-4 1.4-5.7.6.6 1.3 1.1 1.9 1.7-.6 1.2-.9 2.6-.9 4 0 3.6 1.8 6.5 5.2 8.6 2 1.2 4.2 2.2 6.5 3.1-.6.2-1.4.2-2.2.2zm19.4-17.3c-2.5 0-4.9-.2-7.3-.7-2.3-4.5-7-7.4-12.1-7.4-1.3 0-2.5.2-3.6.5-9.8-7.3-15.7-18.9-15.7-31.1 0-21.4 17.4-38.8 38.8-38.8s38.8 17.4 38.8 38.8-17.5 38.7-38.9 38.7zm8.7.6c-1.2 1.7-1.9 4-2.1 6.3-3.7-.9-7-2.2-9.9-3.5.6-1.1 2.1-1.8 3.3-1.8 3 0 5.9-.4 8.7-1zm-12.3.8c-.5.4-.9.8-1.2 1.3-1.5-.7-3.3-1.6-4.5-2.3 1.7.4 3.9.9 5.7 1zm-15.8-8c4 0 7.7 2 9.9 5.3-1.9-.5-3.8-1.1-5.6-1.9h-.1c-1.3-.6-2.7-.9-4.1-.9-3.2 0-6 1.6-7.7 3.9-.7-.4-1.5-.8-2.2-1.3 2.2-3 5.7-5.1 9.8-5.1zm27.4 30.5c-2.1 0-3.9 1.5-3.9 3.8s1.8 3.8 3.9 3.8c.3 0 .6-.1.9-.1-.4 3.2-4.2 6.8-9 8.4-4.8-1.6-8.5-5.2-9-8.4.3.1.6.1.9.1 2.3 0 3.9-1.6 3.9-3.8 0-2.1-1.7-3.8-3.8-3.8.7-1.2 1.3-2.5 1.7-3.8 2.7.5 5.3.7 7.7.7 2 0 3.9-.1 5.8-.3.3 1.1.6 2.2 1.1 3.4zm-6.6-4.7c-7.8 0-17.4-2.6-24.1-6.6-2-1.2-4.4-3.4-4.4-7.2 0-1 .2-2 .6-2.9 2.5 2.1 5.1 4 6.7 4.9.4.2.6.3 1 .3 1 0 1.9-.8 1.9-1.9 0-.8-.4-1.4-1.1-1.7-1.4-.6-4.3-1.8-7.4-3.4 1.4-1.9 3.7-3.1 6.2-3.1 1.2 0 2.3.3 3.3.7l2.1 1.2c6.8 4.1 24.2 14.7 45.1 8.9-8 7.2-17.8 10.8-29.9 10.8zm32.5-13.3c-9.4 3.3-18.2 3.1-25.7 1.4.2-3.3 1.6-6.9 3.7-7.6 16.5-5.1 28.5-20.5 28.5-38.6 0-22.3-18.2-40.4-40.5-40.4s-40.3 18.2-40.3 40.5c0 12.4 5.8 24.2 15.5 31.8-2.3 1-4.3 2.7-5.7 4.7-.7-.5-1.5-1-2.1-1.6l-.4.4c.4.5 1.1 1.2 1.9 2-1.2 2-1.9 4.4-1.9 6.9 0 .4 0 .8.1 1.2-14.5-10.6-23.1-27.4-23.1-45.4 0-31 25.2-56.1 56.1-56.1s56.1 25.2 56.1 56.1c.1 17.7-8 34-22.2 44.7z"/></g></svg>