<svg xmlns="http://www.w3.org/2000/svg" viewBox="0 0 98 98"><path fill="#cd6702" d="M0 0h98v98H0Z"/><rect width="72" height="72" x="13" y="13.4" fill="none" stroke="#fff" stroke-width="10" rx="10"/><path fill="#fff" d="M52 53.6q0 7.5-.3 10.6-.3 3.1-2.2 5.7-1.8 2.6-5 4-3.2 1.3-7.4 1.3-4 0-7.1-1.2-3.2-1.4-5.1-4-2-2.6-2.3-5.6-.4-3.1-.4-10.8v-8.5q0-7.5.3-10.5.4-3.2 2.3-5.8 1.8-2.5 5-4 3.1-1.3 7.3-1.3 4 0 7.2 1.3t5.1 4q2 2.5 2.3 5.6.4 3 .4 10.7zM39.3 37.3q0-3.5-.4-4.4-.4-1-1.6-1-1 0-1.6.8-.5.8-.5 4.6v23.2q0 4.3.4 5.3.3 1 1.6 1t1.7-1.1q.4-1.2.4-5.6zm36.5-3.8v9L66.7 66h9.1v8.2H54.7v-8.5l9.3-24h-8.4v-8.2z" letter-spacing="0" word-spacing="0"/></svg>