<svg xmlns="http://www.w3.org/2000/svg" width="697.666" height="697.666"><path d="M624.926 334.713c50.89-24.181 70.565-108.88 42.547-156-18.42-30.982-53.809-48.362-88.547-53.725-42.173-6.511-87.375-2.275-130-2.275-19.803 0-40.529-2.113-55.91 13.093-17.718 17.515-15.043 44.002-17.26 66.907-8.71 108.36-20.442 212.208-27.919 313-1.57 21.43-4.194 44.537 19.09 55.869 10.135 4.933 21.054 4.13 32 4.13h47c70.857 0 147.705 8.493 207-38.665 46.786-37.211 60.601-118.731 23.496-167.334-13.897-18.203-32.17-24.707-51.497-35m-502-58s30.445 1.405 45-2.131c8.723-2.12 17.27-5.994 23.985-12.053 5.283-4.766 9.43-11.178 11.95-17.816 3.383-8.914 4.655-20.693 2.138-30-10.464-38.682-65.649-28.695-76.55 4-5.97 17.91-6.523 58-6.523 58m323 33l10-115h62c16.965 0 34.714-.111 50 8.44 39.852 22.293 26.567 83.313-11 100.248-15.36 6.925-31.565 6.312-48 6.312h-63m-332 73s-3.372 38.186-5.17 57c-1.035 10.83-4.013 23.42-.282 34 10.762 30.519 51.618 30.65 69.552 7 13.116-17.296 11.7-47.087 12.865-68l1.469-30h31.566c31.477 0 86.56 7.677 89.91-38 1.435-19.56-10.32-37.614-30.91-39.826-68.55-1.178-134.842-.174-206-.174-26.593 0-57.266-4.833-72.204 23-10.583 19.718-3.036 45.956 19.204 53.25 9.973 3.272 21.633 1.75 32 1.75h58m315 121l10-116c36.993 0 75.197-2.672 112 .83 14.456 1.376 29.6.658 42 9.783 30.664 22.56 18.216 74.459-11 91.782-22.237 13.185-48.962 13.605-74 13.605z" fill="#ff790e"/></svg>