<svg xmlns="http://www.w3.org/2000/svg" viewBox="0 0 260.396 295.83" width="40.604" height="40.604"><path d="M237.623 187.485c-3.34-13.44-12.06-23.94-25.88-31.23-15.43-8.13-36.06-6.89-52.94-3.57-1.82-6.12-5.73-10.27-9.2-9.5-3.47.77-5.35 6.33-4.38 12.75-7.29 2-12.83 4.07-15.32 5-2.49-1-8-3-15.26-5 1-6.42-.87-12-4.38-12.76-3.51-.76-7.39 3.38-9.2 9.5-16.88-3.32-37.54-4.58-53 3.57-13.83 7.3-22.54 17.8-25.9 31.24-3.8 15.21-.77 33.73 9 55a170.13 170.13 0 0015.73 27.33l4.39 5.92 10.7-40.53a104.34 104.34 0 0014 14.82c16 13.88 34.63 21.22 54 21.22 17.67 0 35.8-7.32 52.41-21.17a126.25 126.25 0 0015.39-15.29l10.81 41 4.33-5.88a170.13 170.13 0 0015.73-27.33c9.74-21.36 12.78-39.88 8.97-55.09zm-143.58 67.56c-29.72-21.35-11.88-25.42-3.86-26.2l3.29-.18 6.09-22.34c4.53 4.42 15.37 13.19 30.16 13.19 14.79 0 25.9-8.82 30.51-13.23l6.1 22.39 3.3.18c6.93.67 21.16 3.8 5.8 18.38-18.43 14.52-34.82 17.65-45.49 17.65a70.42 70.42 0 01-35.9-9.84zm35.85-57c9.73 0 18.06 3.9 21.57 9.44-4.65 3.64-12.24 8.05-21.72 8.05-9.48 0-16.88-4.36-21.46-8 3.49-5.49 11.85-9.49 21.61-9.49zm92.47 41.85a172.86 172.86 0 01-10.92 20.06l-9.41-35.65-30.29-1.69-6.46-23.57-35.42-15.82-35.39 15.82-6.42 23.56-30.29 1.69-9.41 35.65a172.74 172.74 0 01-10.87-19.9c-11.47-25-11-41.59-8.65-51.14 2.91-11.64 10.51-20.78 22.6-27.15 7.34-3.87 16.22-5.29 25.31-5.29 24.93 0 51.4 10.68 51.76 10.83l1.39.57 1.39-.57c.49-.2 49.63-20 77.07-5.54 12.08 6.37 19.69 15.5 22.6 27.13 4.33 17.27-2.29 37.29-8.59 51.05zM74.783 83.635l-30.19-52.94c8.772.69 3.335 3.682-1.52 7.17C7.603 67.158-12.549 113.762-9.291 159.68c.804 19.05 5.73 37.629 11.38 55.695.31 4.452-6.682 5.696-7.926 1.41-15.25-42.498-17.323-91.385 2.97-132.651 11.388-23.365 28.261-44.65 49.9-59.23 4.775-1.438 5.943 4.904 7.436 7.922 7.397 16.845 15.315 33.573 22.395 50.491-.126 1.065-1.731 1.233-2.081.318zm108.85-1.01c8.606-18.855 16.702-38.01 25.617-56.684 3.623-3.517 7.739 1.657 10.693 3.504 38.557 30.437 60.983 79.959 57.99 129.04-1.069 20.328-5.133 40.693-12.457 59.66-2.644 3.654-8.784.087-7.023-4.03 14.165-39.598 16.634-84.95-1.31-123.8-10.473-22.872-26.65-43.353-47.18-57.99 6.608-2.996 5.764-.22 2.328 4.564-9.149 15.7-17.806 31.85-27.252 47.28-.932.414-1.927-.663-1.406-1.544z" fill="#208aec"/><path d="M245.533 149.675c-5.491-7.139-1.605-18.05-5.095-26.616-7.248-32.18-26.371-63.03-55.515-79.544-3.708 5.855-.497 8.931 5.334 11.537 21.511 16.11 36.525 40.461 42.658 66.51 2.892 9.182-7.959 12.739-14.353 7.992-32.635-14.36-69.08-16.672-104.319-15.289-25.912 1.157-52.048 5.611-75.747 16.483-9.366 4.614-14.428-6.292-10.489-13.704 7.877-26.887 24.422-52.228 48.846-66.689-.876-5.736-3.083-8.587-8.16-3.088-30.776 21.277-49.797 57.992-51.737 95.121 1.74 3.925-2.258 5.184-2.752 8.567.328 3.996 2.521 7.637 4.192 10.999.016 4.802-.392 12.515 5.657 13.491 1.316 1.385.834 13.434 2.717 8.152 4.369-11.999 13.7-21.745 24.863-27.732-3.354-7.774-1.443-17.926 6.63-22.023 10.535-5.502 22.795-5.594 34.32-7.357 32.51-2.855 65.534-2.564 97.714 3.256 9.874 1.423 20.421 9.47 18.426 20.504-4.263 7.227 6.055 7.79 9.67 12.39 7.342 6.102 12.86 14.334 15.75 23.43 1.297-3.225.498-8.431 2.196-10.609 6.19-1.609 4.958-9.433 5.495-14.27 2.053-3.296 4.432-7.46 3.76-11.41z" fill="#208aec"/><path d="M185.873 39.295c-8.152-10.099-21.147-14.61-33.442-17.18-17.902-3.29-36.68-2.807-54.167 2.435-9.13 3.053-18.623 7.511-24.288 15.626-1.432 2.989.896 5.984 1.528 8.874C79.91 62.036 84.16 75.095 88.66 88.036c.982 1.199 2.54-.444 1.847-1.602l-7.824-42.269c9.897-7.672 22.704-10.098 34.883-11.38 16.89-1.238 34.39-.619 50.305 5.704 3.507 1.463 6.917 3.271 9.852 5.706-2.62 14.421-5.433 28.83-7.934 43.259.11 1.346 2.152 1.31 2.238-.03 4.929-14.84 10.057-29.627 14.86-44.501a4.688 4.688 0 00-1.014-3.628zm-104.94 6.62c-.127.181.016-.098 0 0zm98.52 0c-.06-.172.138.084 0 0zM55.203 114.705c18.28-10.714 39.282-16.15 60.24-18.3 28.037-2.544 56.83 2.282 82.296 14.35 1.23.668 9.358 4.669 5.746 3.491-34.005-10.093-70.136-14.167-105.366-8.976-14.51 2.053-28.916 5.078-42.916 9.435z" fill="#208aec"/></svg>