<svg xmlns="http://www.w3.org/2000/svg" viewBox="0 0 49.69 49.69"><path fill="#10203a" d="M0 2.13C0 .95.95 0 2.13 0h45.43c1.18 0 2.13.95 2.13 2.13v45.43c0 1.18-.95 2.13-2.13 2.13H2.13A2.13 2.13 0 0 1 0 47.56V2.13Z"/><path fill="#fff" d="M41.11 32.48v-3.29h-.47v-3.65c0-.64-.16-1.12-.47-1.43s-.8-.47-1.45-.47c-.34 0-.75 0-1.22.02l-1.45.06c-.48.01-.9.03-1.29.06v-2.41l1.06-.08a46.44 46.44 0 0 1 2.38-.06c1.14 0 2.09.15 2.84.45.76.3 1.33.77 1.71 1.41.39.64.59 1.48.59 2.51v6.88h-2.25Zm-3.57.28a4.9 4.9 0 0 1-2.12-.43 3.36 3.36 0 0 1-1.41-1.22 3.56 3.56 0 0 1-.49-1.92c0-.82.2-1.48.59-2 .41-.52.97-.9 1.69-1.16a7.67 7.67 0 0 1 2.57-.39h2.57v1.69h-2.61c-.65 0-1.16.16-1.51.49-.34.31-.51.72-.51 1.22s.17.91.51 1.22c.35.31.86.47 1.51.47.37 0 .74-.06 1.08-.2.34-.15.62-.39.84-.73.23-.35.36-.83.39-1.43l.69.8a4.66 4.66 0 0 1-.57 1.96 3 3 0 0 1-1.27 1.22c-.53.27-1.18.41-1.96.41ZM20.05 29.4v-3.14l5.84-9.08 2.18 1.49-5.14 8.04.25.41h9.14v2.29H20.05Zm7.79 3.08V21.81h2.67v10.67h-2.67Zm-14.72.37c-.91 0-1.71-.19-2.41-.57-.69-.39-1.24-.97-1.63-1.71s-.61-1.65-.65-2.71h.43v4.63H6.61v-14.9h2.84v7.45L8.7 26.2c.05-1.14.28-2.1.67-2.86.41-.76.95-1.33 1.63-1.71a4.65 4.65 0 0 1 2.31-.57 4.87 4.87 0 0 1 4.71 3.41c.24.68.37 1.42.37 2.23v.43c0 .8-.12 1.55-.37 2.25a5 5 0 0 1-4.89 3.49Zm-.63-2.39a2.8 2.8 0 0 0 1.59-.45c.46-.31.82-.73 1.08-1.27.26-.53.39-1.14.39-1.84s-.13-1.32-.39-1.84a2.87 2.87 0 0 0-2.67-1.63 3.1 3.1 0 0 0-2.69 1.45 3.24 3.24 0 0 0-.43 1.71v.82a2.86 2.86 0 0 0 1.61 2.67c.47.24.98.37 1.51.37Z"/></svg>