<svg xmlns="http://www.w3.org/2000/svg" viewBox="0 0 35.991 39.849"><path d="M18.836 23.834v11.625a4.38 4.38 0 0 0 1.395-.504l9.568-5.53a4.563 4.563 0 0 0 2.269-3.942V14.45a4.41 4.41 0 0 0-.201-1.297l-10.401 6.032c-2.138 1.52-2.6 2.959-2.63 4.648" fill="#ffc600"/><path d="m35.662 10.953-3.795 2.2c.128.417.2.852.2 1.298v11.032a4.564 4.564 0 0 1-2.268 3.942l-9.568 5.53a4.373 4.373 0 0 1-1.395.504v4.39a5.447 5.447 0 0 0 1.923-.661l12.426-7.183a5.645 5.645 0 0 0 2.806-4.875V12.804c0-.63-.115-1.249-.33-1.851" fill="#f6eb61"/><path d="M17.964 20.18c.566-.928 1.409-1.73 2.62-2.497l10.468-6.072A4.433 4.433 0 0 0 29.8 10.51l-9.568-5.53a4.518 4.518 0 0 0-4.516.002l-9.529 5.527a4.43 4.43 0 0 0-1.27 1.128l10.42 6.043c1.219.771 2.062 1.573 2.628 2.5" fill="#439879"/><path d="m6.186 10.507 9.529-5.526a4.518 4.518 0 0 1 4.516-.003l9.568 5.531c.494.285.91.667 1.253 1.102l3.79-2.197a5.485 5.485 0 0 0-1.657-1.485L20.759.746a5.588 5.588 0 0 0-5.584.003L2.8 7.927a5.565 5.565 0 0 0-1.67 1.512l3.786 2.196a4.44 4.44 0 0 1 1.27-1.128" fill="#28cdfb"/><path d="m15.715 34.953-9.529-5.528a4.562 4.562 0 0 1-2.263-3.938v-11.04c0-.434.07-.858.19-1.263L.315 10.982A5.522 5.522 0 0 0 0 12.798v14.338a5.641 5.641 0 0 0 2.8 4.87l12.374 7.178c.587.34 1.231.558 1.917.663v-4.393a4.37 4.37 0 0 1-1.376-.501" fill="#fdd757"/><path d="m14.445 19.174-10.332-5.99c-.12.406-.19.829-.19 1.262v11.041c0 1.62.867 3.13 2.263 3.939l9.53 5.527c.432.25.898.41 1.375.5V23.83c-.03-1.686-.491-3.124-2.646-4.656" fill="#ec8b00"/></svg>