<svg xmlns="http://www.w3.org/2000/svg" viewBox="0 0 35.991 39.849"><path d="m18.836 23.834v11.625a4.38 4.38 0 0 0 1.395-0.504l9.568-5.53a4.563 4.563 0 0 0 2.269-3.942v-11.033a4.41 4.41 0 0 0-0.201-1.297l-10.401 6.032c-2.138 1.52-2.6 2.959-2.63 4.648" fill="#ffc600"/><path d="m35.662 10.953-3.795 2.2c0.128 0.417 0.2 0.852 0.2 1.298v11.032c0 1.622-0.869 3.133-2.268 3.942l-9.568 5.53c-0.438 0.254-0.911 0.413-1.395 0.504v4.39a5.447 5.447 0 0 0 1.923-0.661l12.426-7.183a5.645 5.645 0 0 0 2.806-4.875v-14.326c0-0.63-0.115-1.249-0.33-1.851" fill="#f6eb61"/><path d="m17.964 20.18c0.566-0.928 1.409-1.73 2.62-2.497l10.468-6.072a4.433 4.433 0 0 0-1.252-1.101l-9.568-5.53a4.518 4.518 0 0 0-4.516 2e-3l-9.529 5.527a4.43 4.43 0 0 0-1.27 1.128l10.42 6.043c1.219 0.771 2.062 1.573 2.628 2.5" fill="#439879"/><path d="m6.186 10.507 9.529-5.526a4.518 4.518 0 0 1 4.516-3e-3l9.568 5.531c0.494 0.285 0.91 0.667 1.253 1.102l3.79-2.197a5.485 5.485 0 0 0-1.657-1.485l-12.426-7.183a5.588 5.588 0 0 0-5.584 3e-3l-12.375 7.178a5.565 5.565 0 0 0-1.67 1.512l3.786 2.196a4.44 4.44 0 0 1 1.27-1.128" fill="#28cdfb"/><path d="m15.715 34.953-9.529-5.528a4.562 4.562 0 0 1-2.263-3.938v-11.04c0-0.434 0.07-0.858 0.19-1.263l-3.798-2.202a5.522 5.522 0 0 0-0.315 1.816v14.338a5.641 5.641 0 0 0 2.8 4.87l12.374 7.178c0.587 0.34 1.231 0.558 1.917 0.663v-4.393a4.37 4.37 0 0 1-1.376-0.501" fill="#fdd757"/><path d="m14.445 19.174-10.332-5.99c-0.12 0.406-0.19 0.829-0.19 1.262v11.041c0 1.62 0.867 3.13 2.263 3.939l9.53 5.527c0.432 0.25 0.898 0.41 1.375 0.5v-11.623c-0.03-1.686-0.491-3.124-2.646-4.656" fill="#ec8b00"/></svg>