<svg xmlns="http://www.w3.org/2000/svg" width="135.121" height="135.121"><path d="M42.08 132.975c-23.12-6.057-35.225-21.964-37.65-49.48-.829-9.407.66-24.493 3.546-35.924 3.969-15.72 13.28-30.926 22.379-36.55C34.363 8.544 44.771 6.434 57.89 5.44c8.171-.62 9.808-1.05 11.702-3.08C70.803 1.062 72.949 0 74.36 0c3.759 0 21.9 9.364 30.29 15.636C130.118 34.673 138.17 69.3 123.92 98.5c-13.063 26.768-50.715 42.63-81.84 34.475z"/><path d="M79.09 123.89c14.13-2.958 27.349-14.04 34.725-29.108 5.355-10.938 7.075-18.184 7.075-29.81 0-10.31-1.527-17.123-5.674-25.312-5.46-10.78-17.256-19.825-25.47-19.526-3.29.12-6.191-.781-11.856-3.682-6.814-3.49-8.187-3.833-15-3.757-13.61.152-27.976 5.235-34.766 12.3-17.083 17.78-20.488 64.17-6.16 83.948 4.713 6.507 16.135 12.769 27.426 15.035 6.06 1.216 23.722 1.164 29.7-.088z" fill="#fff"/><path d="M40.247 58.423c-3.216-4.909.953-10.755 6.322-8.867 3.509 1.234 5.138 5.354 3.521 8.904-1.658 3.638-7.45 3.616-9.843-.038zM83.135 60.75C79.51 56.221 81.657 50 86.84 50c5.43 0 7.771 5.096 4.492 9.777-1.73 2.47-6.544 3.04-8.198.973zM52.726 99.081c-7.445-2.38-11.924-5.237-16.675-10.635-3.931-4.466-6.9-12.08-5.813-14.911.974-2.538 2.376-1.763 4.827 2.668C41.479 87.8 61.156 94.61 76.725 90.621c7.114-1.823 15.58-6.985 18.967-11.567 3.198-4.326 4.579-3.933 3.902 1.112-1.124 8.385-9.24 16.293-19.77 19.264-7.428 2.095-19.96 1.934-27.098-.349z"/></svg>