<svg xmlns="http://www.w3.org/2000/svg" viewBox="0 0 300 300"><circle cx="150" cy="150" r="150" fill="#73c41d"/><path fill="#fff" d="M125.86 77.64v98c0 30.08 23.3 49.24 49.9 49.24 29.42 0 51.56-22.6 51.56-51.55.49-27.1-23.3-50.4-49.9-50.4-18.18 0-27.76 6.28-34.54 13.06l-1.65 1.65v-60zm-47.83.63c-.25-.05-.3.05-.1.34 18.69 20.32 28.23 45.27 32.23 52.05a261.67 261.67 0 0 0-11.9-12.39 65.76 65.76 0 0 0-11.92-10.17 48.28 48.28 0 0 0-6.77-4A123.33 123.33 0 0 0 52.3 93.35c-5.62-1.15-10.74-1.65-10.74-1.65s16.86 14.21 24.29 23.3c6.78 8.92 14.7 16.85 22.64 20.32a68.14 68.14 0 0 0 17.54 5.13 399.95 399.95 0 0 0 12.36 2.27l-6.45-22.14c-3.94-11.24-5.6-18.18-17-30.57-3.45-3.47-15.14-11.36-16.9-11.74Zm98.23 59.53c22.64 0 35.69 18.18 35.69 36.85 0 20.32-14.2 36.19-36.2 36.19a35.55 35.55 0 0 1-35.68-35.4v-.29c0-20.35 14.19-37.35 36.19-37.35z"/></svg>
