<svg xmlns="http://www.w3.org/2000/svg" width="181.023" height="181.023"><path d="M75.383 143.492c-31.219 1.904-73.717-47.29-63.514-51.128 4.111-.74 9.47.653 20.333 4.724 7.492 2.807 17.332 5.99 21.867 7.074 29.888 7.138 54.021.587 73.169-19.862 10.695-11.422 19.087-26.8 23.13-42.388 1.834-7.07 3.786-10.19 7.972-12.743 6.97-4.25 16.459-1.436 20.421 6.057 1.991 3.765 2.273 5.747 2.262 15.894-.023 20.403-5.797 39.284-15.658 55.159-20.363 32.784-49.066 34.718-89.982 37.213z" fill="#fbcb05"/><path d="M66.65 153.18c-24.274-3.833-53.397-20.69-63.771-36.913-5.085-7.952-3.32-17.642 4.398-22.06 1.53-.876 2.843-1.56 4.594-1.839-.839 1.358 3.681 11.064 7.585 15.55 5.552 6.38 18.681 15.813 28.991 20.829 37.388 18.188 80.02 11.92 110.731-16.279l6.19-6.19-3.377 5.422c-5.078 8.153-18.742 20.64-27.373 26.286-9.124 5.969-19.444 10.495-30.407 13.336-8.89 2.304-28.574 3.278-37.561 1.858z" fill="#f4961b"/></svg>