<svg xmlns="http://www.w3.org/2000/svg" width="91.4" height="91.4"><path class="st2" d="M.1 91.35h47.1H.1zM.1.15v91.1H0V.05c0 .1 0 .1.1.1z" fill="#ce4a63"/><path d="M47.1 91.35H0V.25c15.7 0 31.4-.1 47.1-.1 1.6.1 3.3.2 4.9.3.1.1 2.1.3 2.2.5 8.9 1.6 16.1 5.8 22.9 11.6 3.3 3.4 5.9 6.8 8.5 10.8l2.7 5.7c1.3 4.2 2.2 8 2.9 12.2 0 2.3.1 4.6.2 6.9-.2 1.7-.4 3.5-.6 5.2-1.4 6.9-3.9 12.7-7.7 18.5-1.9 2.5-1.9 2.5-2.1 2.8-5 5.3-9.9 9.2-16.4 12.5l-4.8 1.8c-4 1.4-8.3 2.2-12.7 2.4z" fill="#f60"/><path d="M45.5 81.65c-1.9-13.4-4.1-27-5.6-40.4 2.1-1.1 2.7-3.4 3.4-5.5.4-2.3 1-4.9.9-7.3-4.1.1-8.5.5-12.2 2.3-4.6 0-4.9-6.4-.1-6.9 4.1 1.6 8.2 2.2 12.5 2.3-.2-4.3-.7-8.3-2.3-12.3 0-1.2.3-1.8 1-2.7 2.7-1.8 5.3-.6 5.8 2.6-1.7 4.1-1.9 7.8-2.3 12.2.1 0 .1.1.2.1 4.2-.2 8.4-.6 12.3-2.3 4.7.4 4.5 6.9-.1 6.9-3.7-1.9-8.3-2.1-12.3-2.2.3 2.5.5 11.8 4.5 12.8-.2 2.1-.3 2.2-4.3 31.9-.2.1-1.2 8.3-1.4 8.5z" fill="#fff"/><path class="st2" d="M.1.25c15.7-.1 31.4-.1 47.1-.1-15.8 0-31.5 0-47.1.1z" fill="#ce4a63"/></svg>