<svg xmlns="http://www.w3.org/2000/svg" width="144" height="144"><path d="M76.316 74.716c-10.392 13.27-31.012 36.449-45.4 52.435 9.113 10.71 22.7 16.786 41.084 16.786 41.084 0 57.55-30.692 57.55-71.777 0-20.621-3.835-38.525-13.427-51.315-12.151 17.584-29.736 41.084-39.807 53.871z" fill="#17469e"/><path d="M112.765 16.529C103.651 6.136 90.065.063 72 .063c-41.24 0-57.548 30.854-57.548 72.096 0 20.463 4.157 38.048 13.268 50.996 12.15-17.585 29.895-42.044 40.286-54.832 9.112-11.669 29.892-35.33 44.76-51.794z" fill="#00aeef"/></svg>