<svg xmlns="http://www.w3.org/2000/svg" width="195" height="195"><path d="M106.68 58.947c-.002-5.126-.011-10.25 0-15.375.009-3.208 1.766-5.043 4.949-4.976 3.798.079 7.672-.117 11.374.564 9.667 1.779 16.535 10.983 16.038 20.915-.496 9.892-8.158 18.358-17.806 19.361-3.456.359-6.977.205-10.464.11-2.446-.067-4.072-1.985-4.084-4.545-.024-5.352-.008-10.702-.008-16.054" fill="#90b92b"/><path d="M179.866 76.498c.056.512.16 1.026.16 1.538.008 34.089.022 68.178-.003 102.268-.007 8.532-5.339 14.033-13.88 14.49a28.08 28.08 0 01-1.497.052c-25.283-.005-50.566.044-75.848-.045-11.904-.043-23.507-1.952-34.491-6.753-16.965-7.416-28.001-20.271-34.113-37.558-3.874-10.952-5.235-22.294-5.227-33.856.02-34.77.012-69.54-.004-104.31-.001-2.651.445-5.155 1.935-7.384C19.318 1.316 23.006.238 27.062.19 33.96.108 40.862.166 47.76.166h55.559c.455 0 .919-.058 1.359.019.46.081.896.296 1.34.452-.174.436-.243.97-.54 1.295-4.66 5.086-9.356 10.14-14.03 15.216-2.041 2.217-4.556 3.116-7.552 3.08-5.945-.07-11.892-.026-17.837-.01-.677.003-1.373.034-2.023.196-1.276.32-2.025 1.158-2.088 2.518-.018.408-.012.816-.012 1.225 0 28.46-.022 56.921.019 85.381.008 5.664-.119 11.355 1.201 16.934 3.418 14.436 13.47 23.849 28.166 26.122 3.614.559 7.309.69 10.973.819 3.127.11 3.965-.847 3.965-3.928v-31.32c.002-3.052.87-3.921 3.959-3.663 9.865.83 19.587.046 29.116-2.654 18.24-5.17 31.487-16.196 39.204-33.648.265-.6.577-1.18.867-1.768l.46.066" fill="#90b92b"/></svg>