<svg xmlns="http://www.w3.org/2000/svg" viewBox="0 0 62.04 62.39"><path fill="#e5006f" d="M.35 35.43c-1.31-9.4 1.09-17.8 7.28-24.98A29.03 29.03 0 0 1 25.73.4c8.57-1.3 16.37.62 23.3 5.9.16.11.3.24.43.42l-.85-.3A25.53 25.53 0 0 0 41 4.93a25.01 25.01 0 0 0-18.36 6.83 25.5 25.5 0 0 0-8.16 16.04c-.43 3.38-.21 6.7 1.28 9.8 2.63 5.51 6.96 8.84 13.06 9.51 5.87.65 10.69-1.5 14.46-6.03l.27-.32.06.03-.21.5c-3.71 7.54-9.61 12.32-17.9 13.92A23.8 23.8 0 0 1 8.9 52.4a4.66 4.66 0 0 1-1.17-1.03 30.06 30.06 0 0 1-7.4-15.94zm53-25.3c.25.13.44.31.62.51a30.25 30.25 0 0 1 7.64 15.78 30.73 30.73 0 0 1-2.54 18.38 29.59 29.59 0 0 1-5.8 8.38 29.97 29.97 0 0 1-17.21 8.85c-6.25.92-12.24.05-17.93-2.72a27.34 27.34 0 0 1-5.31-3.39c-.06-.05-.16-.08-.15-.2l1.69.56c2.97.96 6.03 1.4 9.13 1.15 9.24-.73 16.23-5.13 20.89-13.14a25.7 25.7 0 0 0 3.34-12.17A16.53 16.53 0 0 0 37.6 16.33a16.19 16.19 0 0 0-17.46 3.43c-.57.57-1.12 1.16-1.64 1.78a18.7 18.7 0 0 1 2.23-4.13c3.86-5.48 9.05-8.99 15.65-10.24 6-1.12 11.68-.13 16.97 2.95z"/></svg>
