<svg xmlns="http://www.w3.org/2000/svg" width="68" height="68"><path d="M60 13.05l-26 15.7-26-15.7v10.7l17.1 10.3L8 44.35v10.7l26-15.7 26 15.7v-10.7l-17.1-10.3L60 23.75zm-26 32.4c-3.2 0-5.8 2.6-5.8 5.7 0 3.2 2.6 5.8 5.7 5.8s5.8-2.6 5.8-5.7c0-3.2-2.5-5.8-5.7-5.8zm33.4-11.4c0 3.2-2.6 5.7-5.8 5.7s-5.7-2.6-5.7-5.8 2.6-5.7 5.7-5.7c3.3 0 5.8 2.6 5.8 5.8zm-33.4-23c-3.2 0-5.8 2.6-5.8 5.7 0 3.2 2.6 5.8 5.7 5.8s5.8-2.6 5.8-5.7c0-3.2-2.5-5.8-5.7-5.8zm-21.9 23c0 3.2-2.6 5.7-5.8 5.7-3.2-.1-5.7-2.7-5.7-5.8 0-3.2 2.6-5.7 5.7-5.7 3.2 0 5.8 2.6 5.8 5.8z" fill="#005ba2"/></svg>