<svg xmlns="http://www.w3.org/2000/svg" fill="#f28f2a" viewBox="0 0 190.85 190.85"><path d="M95.42 0C42.84 0 .04 42.78 0 95.35c-.02 25.49 9.89 49.46 27.9 67.5s41.97 27.98 67.46 28h.07a94.8 94.8 0 0 0 67.42-27.9 94.8 94.8 0 0 0 28-67.46C190.88 42.88 148.07.04 95.42 0m85.46 95.49a84.87 84.87 0 0 1-25.08 60.41 84.98 84.98 0 0 1-60.46 24.99 84.88 84.88 0 0 1-60.42-25.08A84.9 84.9 0 0 1 9.94 95.36c.03-47.09 38.37-85.4 85.53-85.4 47.14.03 85.45 38.41 85.41 85.53m-46.63-39.04a17.38 17.38 0 0 0-16.28 17.09 16.72 16.72 0 0 0 6.22 13.13l3.6 2.98-12.43 10.95-12.22-10.81 3.82-3.37a17.05 17.05 0 0 0 5.81-11.68q.03-.48.03-.96c0-4.78-1.99-9.39-5.47-12.67A17.37 17.37 0 0 0 78.07 74.5c.19 4.46 2.3 8.8 5.8 11.89l3.82 3.38-12.25 10.79-12.4-10.97 3.83-3.19a16.44 16.44 0 0 0 5.99-12.58v-.08c0-4.78-1.99-9.39-5.47-12.67a17.37 17.37 0 0 0-29.27 12.39 17.02 17.02 0 0 0 5.86 12.93l23.72 20.98-3.83 3.37a16.95 16.95 0 0 0-5.8 13.72 17.363 17.363 0 0 0 34.71-1.05c0-.32 0-.65-.02-.96a17.02 17.02 0 0 0-5.78-11.67l-3.83-3.39L95.4 96.6l12.22 10.81-3.83 3.37a16.96 16.96 0 0 0-5.81 13.72 17.36 17.36 0 0 0 29.23 11.59 17.44 17.44 0 0 0 5.49-12.66c0-.32 0-.64-.03-.96a16.97 16.97 0 0 0-5.78-11.67l-3.83-3.39 23.8-20.98a17 17 0 0 0 5.84-12.64c0-4.78-1.99-9.39-5.47-12.67a17.48 17.48 0 0 0-12.99-4.67m-23.68 62 4.78-4.21 4.79 4.23a6.7 6.7 0 0 1 2.34 4.56v.4a7.15 7.15 0 0 1-7.62 7.13 7.21 7.21 0 0 1-6.66-7.47c.09-1.7.95-3.38 2.37-4.64m-15.15-35.5-4.78-4.23a6.7 6.7 0 0 1-2.36-4.66v-.78a7.22 7.22 0 0 1 6.67-6.66l.46-.01a7.1 7.1 0 0 1 4.89 1.94 7.08 7.08 0 0 1 2.25 5.2v.41a6.77 6.77 0 0 1-2.36 4.57zm35.29-4.17a6.63 6.63 0 0 1-2.51-5.1v-.36a7.21 7.21 0 0 1 7.13-6.68c1.83 0 3.56.69 4.9 1.94a7.1 7.1 0 0 1 2.25 5.21v.4a6.77 6.77 0 0 1-2.36 4.57l-4.56 4.02zm-60.06 39.64 4.78-4.21 4.79 4.23a6.66 6.66 0 0 1 2.34 4.56v.41c0 1.99-.81 3.84-2.26 5.21a7.1 7.1 0 0 1-5.36 1.92 7.2 7.2 0 0 1-6.66-6.68 7 7 0 0 1 0-.79c.08-1.71.94-3.4 2.36-4.65m-22.28-44.8.01-.36a7.22 7.22 0 0 1 6.67-6.66l.46-.01a7.13 7.13 0 0 1 7.15 7.21 6.26 6.26 0 0 1-2.31 4.75l-5.04 4.2-4.52-4a6.83 6.83 0 0 1-2.42-5.13"/></svg>