<svg xmlns="http://www.w3.org/2000/svg" version="1.1" id="Layer_1" x="0" y="0" xml:space="preserve" width="133" height="133"><style type="text/css" id="style5797">.st0{fill:#e31837}.st1{fill:#012169}</style><g id="g5827" transform="translate(-587 30.45)"><path id="path5803" d="M653.3 72.1c21-18 50.5-35.5 66.7-41.8-2.5-1.6-6.4-3.9-10.8-6.4-20.9 6.9-45.3 22.2-67.1 39.5 3.7 2.8 7.6 5.7 11.2 8.7z" class="st0" fill="#e31837"/><path id="path5805" d="M643.7 23.2c-3.1-1.5-6.5-2.9-9.1-4.1-7.9 3.9-18.2 9.8-31.2 19.1 2.8 1.5 5.8 3.3 9 5.1 10-7.4 20.1-14.4 31.3-20.1z" class="st1" fill="#012169"/><path id="path5807" d="M662.4 14.6c-3.8-2.1-17-7-26.1-9.1-2.7 1-6.5 2.5-9.1 3.6 3.3.9 15.6 4.2 26.1 9.5 2.7-1.3 6.5-2.9 9.1-4z" class="st0" fill="#e31837"/><path id="path5809" d="M617.7 13.3c-11.7 5.4-24 12.8-30.7 17.1 2.4 1.1 4.8 2 8.1 3.6 14.8-10 26.4-16.1 31-18.1-3.3-1.2-6.4-2-8.4-2.6z" class="st1" fill="#012169"/><path id="path5811" d="M671.2 11.5c2.7-.9 5.8-1.7 8.5-2.5-7.8-3.3-17.6-6.8-26.4-9-1.4.4-5.6 1.5-8.5 2.4 3 .9 12.9 3.2 26.4 9.1zm-49.3 37.6c3.2 1.9 6.6 4.5 9.9 6.7 21.9-17 43.5-30.1 67.2-37.5-3.3-1.7-6.2-3.2-9.9-5-14.2 3.6-38.5 13.3-67.2 35.8z" class="st0" fill="#e31837"/></g></svg>