<svg xmlns="http://www.w3.org/2000/svg" viewBox="0 0 405.9 405.9"><path fill="#fd0" d="M0 0h405.9v405.9H0z"/><path d="M97.7 157.3c0 8.7-3.6 14.3-11.6 14.3a12.4 12.4 0 0 1-9.7-4.2v-24c2.1-2.8 5.3-4.7 10.4-4.7 8.6 0 11 6.5 11 14zm12.8-.6v-3.9c0-14.3-5.7-25.8-21.2-25.8-5.4 0-9.8 1.5-13 4.5v-22.8h-13v73h9.6l1.3-3.8c3.5 3.6 8.8 5.2 14.1 5.2 15 0 22.2-10.5 22.2-26.4m39.4 6.4c0 5.8-3.7 9.3-10.9 9.3-5.2 0-7.5-2-7.5-6.5 0-4.9 2.8-6.3 12-7.4l6.4-.8zm12.9 18.8c2.2 0 4.5 0 6.5-.3v-11a22.8 22.8 0 0 1-3.3.1c-2.3 0-3-1-3-4v-22c0-10.5-3.7-17.7-20.7-17.7-12.4 0-21.4 4.2-21.4 17.4l11.7.9c.1-6.3 3.5-7.7 9-7.7 6.6 0 8.3 2.2 8.3 7.2v4.7l-10.3 1c-14.8 1.4-21.2 5-21.2 16.7 0 10.6 6.9 15.4 18 15.4 9 0 14.2-3 17.2-8.4.7 4.9 3.2 7.7 9.1 7.7m47.3-.3h13v-33.8c0-14-6-20.8-18-20.8-7 0-12.3 2.3-16 5.8l-1.4-4.3h-9.7v53.1H191v-38.4a14 14 0 0 1 10.3-4.3c6.8 0 8.8 4.3 8.8 11zm53.6-31.8 19-21.3h-14.7l-20.4 24v-43.8h-13v73h13v-16.8a38.5 38.5 0 0 0 7.4-5.7l13.1 22.4h14.8zm-64.8 85.3c0 14.4-9.2 21.4-20.8 21.4-13.2 0-20.2-8-20.2-20.4 0-15 9.2-21.2 20.6-21.2 13.7 0 20.3 8.5 20.3 20.2m-75.6 0c0 14.4-9.2 21.4-20.7 21.4-13.3 0-20.3-8-20.3-20.4 0-15 9.2-21.2 20.6-21.2 13.7 0 20.4 8.5 20.4 20.2m96.8 2c0-27-15-40.8-41.2-40.8-18.7 0-31.9 7.4-38.1 20.8-6-13.7-19-20.8-37.6-20.8-26.6 0-42.2 15-42.2 41 0 23.4 14 38 37.6 38a30.1 30.1 0 0 0 14.9-4 236.5 236.5 0 0 1-30.5 40.1h24.5c11.3-13.2 26.8-33.1 33.5-54.3 5.9 11.5 17.4 18.1 33.3 18.1a30.1 30.1 0 0 0 14.9-4 236 236 0 0 1-30.5 40.2H183c14.8-17.4 37-46.3 37-74.5" class="cls-4"/></svg>