<svg xmlns="http://www.w3.org/2000/svg" viewBox="0 0 26 39"><style>.B{fill:#685ac0}.C{fill:#20024e}.D{fill:#c2bfeb}.E{fill:#a094fc}</style><path d="M0 0v13l6.5-6.5z" class="B"/><path d="M13 0H0l6.5 6.5z" class="E"/><path d="M13 13V0L6.5 6.5z" class="B"/><path d="M0 13h13L6.5 6.5z" class="C"/><path d="M13 0v13l6.5-6.5z" class="D"/><path d="M26 0H13l6.5 6.5z" class="B"/><path d="M26 13V0l-6.5 6.5z" class="C"/><path d="M13 13h13l-6.5-6.5z" class="B"/><path d="M13 13v13l6.5-6.5z" class="D"/><path d="M26 13H13l6.5 6.5z" class="E"/><path d="M26 26V13l-6.5 6.5z" class="B"/><path d="M13 26h13l-6.5-6.5z" class="C"/><path d="M0 13v13l6.5-6.5z" class="B"/><path d="M13 13H0l6.5 6.5z" class="D"/><path d="M13 26V13l-6.5 6.5z" class="C"/><path d="M0 26h13l-6.5-6.5z" class="E"/><path d="M13 26v13l6.5-6.5z" class="D"/><path d="M26 26H13l6.5 6.5z" class="B"/><path d="M13 26H0l6.5 6.5z" class="D"/><path d="M13 39V26l-6.5 6.5z" class="C"/></svg>