<svg xmlns="http://www.w3.org/2000/svg" viewBox="0 0 26 39"><path fill="#20024e" d="M0 13h13L6.5 6.5M26 13V0l-6.5 6.5M13 26h13l-6.5-6.5"/><path fill="#685ac0" d="M13 13V0L6.5 6.5M26 0H13l6.5 6.5M13 13h13l-6.5-6.5M26 26V13l-6.5 6.5M0 13v13l6.5-6.5M26 26H13l6.5 6.5M0 0v13l6.5-6.5"/><path fill="#a094fc" d="M13 0H0l6.5 6.5M26 13H13l6.5 6.5M0 26h13l-6.5-6.5"/><path fill="#c2bfeb" d="M13 0v13l6.5-6.5M13 13v13l6.5-6.5M13 13H0l6.5 6.5M13 26v13l6.5-6.5M13 26H0l6.5 6.5"/><path fill="#20024e" d="M13 26V13l-6.5 6.5M13 39V26l-6.5 6.5"/></svg>
