<svg xmlns="http://www.w3.org/2000/svg" viewBox="0 0 1337 1624.2"><path fill="#e91b2a" stroke="#fff" d="M1284 1620c-8-4-13-9-24-29-22-37-58-88-85-122-40-48-89-97-138-138-101-85-229-157-372-209a1823 1823 0 0 0-618-108c-20 0-26-2-36-11-12-11-11 43-10-499V26l3-6C7 13 16 6 24 3c6-2 19-2 645-2h640l7 3c9 5 16 13 19 21 1 6 2 85 1 790v783l-3 6c-9 17-32 25-49 16Z"/><path fill="#fff" stroke="#e91b2a" d="M375 924c46-4 84-13 116-28 59-28 94-73 107-136 3-17 5-61 2-83-5-53-23-92-56-127-28-28-40-36-149-100-92-53-101-59-116-71a92 92 0 0 1-41-85c2-28 9-47 26-64 19-19 44-28 79-28s57 8 78 29c9 9 11 13 16 23 9 18 11 28 12 58 0 24 1 25 4 31 4 7 10 12 18 16 7 2 10 2 54 2 55 0 56 0 67-11 10-10 10-12 9-50 0-35-3-49-11-74-26-73-90-121-182-136-86-14-175 1-231 39-58 38-89 96-92 171-3 66 24 134 71 173 15 13 17 14 115 72 103 60 112 66 128 79 14 11 22 20 30 33 12 18 17 35 17 58 0 46-19 72-62 83-11 3-14 4-39 4s-29-1-38-3c-33-10-56-31-65-62-3-8-3-13-4-45l-1-37-3-6c-5-7-13-13-21-15a571 571 0 0 0-107 1c-8 4-15 10-18 17-2 4-2 9-3 34-2 64 7 104 32 142 46 69 142 104 258 96zm401-18c6-2 13-9 17-15l20-75 20-72 1-3h119l119 1 19 71 21 77c3 6 9 12 14 15 3 2 10 2 58 2 53 0 55 0 60-3 10-5 15-14 13-25-1-11-191-750-194-755-3-6-10-11-16-13l-95-1c-89 0-91 0-97 2-6 3-10 7-13 12S649 872 648 881c0 6 0 8 2 12 4 6 9 10 16 13 7 2 103 2 110 0z"/><path fill="#e91b2a" stroke="#fff" d="m863 622 86-351c2-3 5-3 7 0l44 175 42 174c1 2-4 2-89 2z"/></svg>