<svg xmlns="http://www.w3.org/2000/svg" viewBox="0 0 79.508 79.508"><path d="M57.558 39.888a22.68 22.68 0 0 0-4.89-3.79 18.39 18.39 0 0 0 1.73-2 21 21 0 0 0 4-14 21.57 21.57 0 0 0-6.2-13.85 22 22 0 0 0-15.96-6.24h-20.68v79.5h24.34c9.13 0 14.75-4 17.87-7.39a23.6 23.6 0 0 0 6.18-16.11 22.89 22.89 0 0 0-6.39-16.12zm-21.32-30.61c8.37 0 12.5 5.75 12.88 11.43a11.49 11.49 0 0 1-9.71 11.93h-14.58V9.278zm3.65 61h-15.06v-28.37h13.73c11.89 0 16.1 7.6 16.1 14.11-.01 6.84-4.62 14.22-14.77 14.22z" fill="#151515"/></svg>