<svg xmlns="http://www.w3.org/2000/svg" viewBox="0 0 90 90"><path d="m15.4 36 4.1-9.3c0-.4 0-.4.4-.4v.4l3.4 4.7c0 .4 0 .4-.4.4l-7.1 4.6h-.4V36Zm16.3 33.8-3-9.5v-.2h.5l3 .6V70c-.5 0-.5 0-.5-.2Zm0-10-2.5-.5c0-.2-.2-.2-.2-.3l3-6.5c0-.4 0-.4.3-.4v7.4h-.6v.2ZM15.4 88.1l8-4.1h.5l7.4 5.1v.4l-.2.4-15.5-1.2a.4.4 0 0 1-.4-.4l.2-.2ZM15 86V75h.4l7 2.1c.5 0 .5 0 .5.4l-7.5 8.7c-.4-.2-.4-.2-.4-.4ZM15 74v-1l3.5-8c0-.3 0-.3.4-.3v.4L23 76v.4s0 .2-.4 0l-7.1-1.7-.4-.6Zm0-3.8v-8h.4L18 64v.4l-2.3 6H15v-.2Zm0-9.4v-1.6l7-5.5h.5v.4l-3.8 8.9-.2.4-3.5-2.2V61Zm0-3v-.5l4-9.6h.3l4 3.9v.2l-8 6.3H15V58Zm0-3.7V41.5c0-.2.2-.2.4-.2l.4.2 2.5 5.7v.4l-2.7 6.8-.4.4c0-.4-.2-.6-.2-.6Zm.4-15.5 9.4 2.8.4.4-.4.3-5.3 4.6h-.4v-.2l-3.9-7.1c-.2-.8 0-.8.2-.8Zm-.4-5.1v-8h.4l3.5.3v.4l-3.3 7.5h-.2c-.2 0-.4 0-.4-.2Zm0-9.2v-1.2l4.1-5.1h.4v.2l-.4 6.3v.4l-3.9-.4c-.2 0-.2 0-.2-.2Zm0-3.2V16h.4l3.5.6.2.4c0 .2-.2.2-.2.2l-3.5 4.5c-.4 0-.4 0-.4-.4Zm0-6.5V13l2.4-2.8.4-.2c0 .2 0 .2.2.2l1.5 5.3c0 .2-.2.2-.2.2l-4-1c-.3.4-.3.4-.3 0Zm0-3.5v-6l.4-.3c0 .2.2.2.2.2l1.8 3.5V9l-2.2 2.2v.4l-.2-.4Zm0-8.4V0h12.6l.4.2v.4l-9.7 7.7h-.2L15 2.8Zm14.4-2 1.5 7.5v.3H19.5v-.3L28.8.8h.6ZM30 0h8.1v.4L32 7.7c0 .2-.2.2-.2.2l-.2-.2L30 .4 30 0Zm-.3 9.6-9.5 6c0 .3 0 .3-.4 0l-1.4-6v-.2h11v.2h.3Zm21-8-8.8 5h-.4L40.2.5V0h.4l10.2 1.2h.4l-.4.4ZM60 6.3 49.6 8c0 .3 0 0-.4 0v-.2l3.2-6c0-.1.2-.1.2-.3h.4l7 4.1v.6Zm6 8.6-6.3 6.3h-.2c-.2 0-.2-.2-.2-.4l2.5-13h.4l4 7-.2.1Zm1.1 9.7L65 31.4c0 .2-.2.2-.4.4h-.4l-5.3-8.2c-.4-.4-.4-.4 0-.6l6.9-6.5v-.4c.2 0 .2.2.2.2l1.1 8.3Zm-8.6 14.3-2.2-6.3v-.4h.4l6.9.6.4.2v.4l-5.1 5.3c0 .2 0 .6-.4.2Zm-1.4-.4-8.9-7V31h.2l7.1 1.2 2.2 6c0 .1-.2.1-.2.3H57Zm-.6-7.5 2.2-6.8h.4l5 7.6v.4H64l-6.9-.6c0-.2-.2-.4-.4-.4V31h-.2Zm-1-1.1L52 20.2V20h.4l5.7 3v.6L56.3 30l-.2.4-.4-.2-.2-.4Zm2.4-7.7L51.6 19v-.4l8.6-10h.2l.4.1L58.1 22l-.2.2Zm-9.7.6-1-3.3.5-.2h2.1c.2 0 .2 0 .2.2v.3l-1.6 3v.2s-.2 0-.2-.2Zm2.8-2.4 4.1 10.8-.4.2-8-1.1-.2-.4v-.4l2.1-4.7 2.2-4.6.2.2Zm0-2.7-2-8.3c0-.4 0-.4.2-.4L60 7c.2 0 .2.3.2.3v.4l-9 10.2-.2-.2Zm-.8 1h-2.5v-.4l.7-6.3h.6l1.6 6.3v.4h-.4Zm-6.5-4.2-1.6-6.2c0-.4 0-.4.2-.4L47.5 9v.4l-3.6 5c0 .3 0 .3-.4.3l.2-.2Zm4.2-3.3-1 6.5c0 .2-.2.4-.4.4l-2.2-2.2c-.4 0-.4-.4 0-.4l3-4.5c.4 0 .4-.4.4 0l.2.2Zm.3-2.8-4.9-1.1V7L51 2.4h.2v.4l-2.8 5.6h-.2ZM39.6 1l1.6 6c-.2 0-.2.3-.4.3l-7.5 1h-.4v-.4L38.8.8h.4l.4.2ZM32 14l-9.6 1.6H22c0-.4 0-.4.4-.4l8.4-5.7h.2c0 .2.2.4.4.4l.6 4v.1Zm.6-3.9 4.7 3.6h.4c0 .2-.2.3-.4.3h-4.1c-.2 0-.2 0-.2-.3l-1-3.4.2-.4c0 .2.4.2.4.2Zm-.4 7.3v13.7h-.6l-3-7.2h.5l2.7-6.5s.2-.4.2 0h.2Zm7.9-3.4 1.2-4.5h.4l1.5 5.3H43v.4l-2.7-1c0 .2-.2-.2 0-.2Zm-7.3-5 7.7-1.2.4.4-1.8 5.3v.2h-.4l-5.9-4.2c0-.2-.2-.2-.2-.2l.2-.4Zm13.6 21.8 9 7v.4c0 .2 0 .2-.4.2l-12.6-4.3v-.4l3.4-3h.6Zm-5.1 3.9 2 6.3c0 .2-.3.2-.3.4h-.6l-8.2-6.3v-.4l.2-.4h6.7l.2.4Zm1.1 0L56 39.5l.4.2c0 .2 0 .2-.2.2L44.3 42l-.4-.2-1.8-7 .4-.1c-.2-.2-.2-.2 0 0Zm15.8 5.9 1.6 6.5-.2.4L46.3 43l-.2-.4.2-.4 12-2.1v.6Zm6.9 3.1L61 47.4h-.4c-.2 0-.2 0-.2-.4l-1.1-5.7v-.4h.4l5.7 2.1.2.4c0 .2-.2.2-.4.4Zm5.7 6.1-9.5-1.8v-.5L66 44h.1l4.6 5.7c.4 0 .4 0 .4.2h-.2Zm3.9 10.2-4.5 1.6h-.4v-.4l2.1-8.2.4-.4.4.4 2.2 6.8v.2h-.2Zm-1.6 12-5-.6c0-.2-.3-.2-.3-.2l.4-.4 6-8.4h.3c.4 0 .4 0 .4.4L73.8 72h-.6ZM68 79.8l-.4-7.5V72h.4l5.1 1v.2l-4.5 6.5c-.2 0-.2.2-.2.2H68Zm-10.4 6.5-.6-8.3v-.4h.4l9.2 3.6v.5l-8.8 4.6h-.2Zm-9 2.1-7.7-5c-.4 0-.4 0-.4-.3h.4l14.1 4v.3l-6 1.2-.5-.2Zm-15 .8 3.5-6.5v-.4h.4l9.3 6c.2 0 .4.1.4.3 0 .2-.2.4-.4.4l-12.8.8c-.4 0-.4 0-.4-.4v-.2Zm8-47.1-14.3-1h-.4v-.2l5.3-6.1h.6l9 6.9v.2l-.1.2ZM26 40l-1.8-7.3v-.4s.4-.2.4 0l7 1.6c.1 0 .1.2.3.2v.4l-5.3 5.3c-.2.4-.2.4-.6.2Zm5.7 9-6.9 2.4c-.4 0-.4 0-.4-.2l1.6-8.5v-.4h.4l5.3 6.3v.4ZM27.2 42l14.8 1 .1.1H42l-9.1 5.7h-.2L27 42.2v-.1l.2-.2Zm16.5 1.5 2 5.1v.2c-.2 0-.4.2-.4.4H35.1l-.4-.2v-.2l8.6-5c0-.5 0-.5.4-.5v.2Zm1.2 0 12.2 4.2c.4 0 .4 0 .4.2H57l-10.8 1-1.8-5v-.4h.4Zm13.8 5.7L53 53.6h-.4l-5.1-3.5v-.4h.4l10.4-1h.4v.4Zm-4.6 6L66 61v.2h-.2l-9.5-1.2-.4-.2-2.1-4.5v-.2l.3-.2Zm2.4 6.6 8.7 8.6v.4h-.4l-9.9-2.3-.4-.2 1.6-6.3v-.4c.2 0 .4 0 .4.2Zm-2.4 7.7 1.6 6.5c.4 0 0 0 0 .3h-.2l-5.9-3.5v-.4l4.5-3Zm-5.7 3.5 4.6 2.8c.2 0 .2.2.2.2-.2 0-.2.1-.2 0l-9.5-1.6v-.4l4.5-1.2.4.2Zm-8.6 2.2L37 80.4h-.4l-3.3-5.7v-.4c0-.4 0-.4.4-.4l5.7.6h.4v.6Zm20.6-26L68 61v.2h-.2L54 54.2l-.2-.2h.2l6.2-5 .2.1Zm1.2-.4L72 51v.4L69.5 61H69l-7.7-12v-.4h.2ZM68.7 63l-1.8 7.4c0 .4 0 .4-.4.4l-9.2-9.2v-.4h.4l10.8 1.6c.2-.2.2 0 .2.2 0-.2 0-.2 0 0Zm5.1-1.2-5.3 7.5h-.4v-.4l1.6-6v-.3l4.1-1.2c.4.4.4.4 0 .4Zm-18.5 7.5 10.3 2.3.4.4-.2.4-8.3 4.5H57l-.4-.2-1.6-6.8.2-.6Zm11.4 3.5.6 8v.5H67l-9-4h-.2c0-.4 0-.4.4-.4l8.2-4.5h.2v.4h.2Zm-13.1 4.7L38.4 81H38v-.2l2.8-5.7.2-.4 12.6 2.1v.6Zm-38-39.9 7.5-4.7h.4l1.7 7.5v.4h-.4l-9.2-3.2-.2.2c0-.2 0-.2.2-.2Zm7.9 13.6-4-3.7V47l5.3-4.6h.4v.4L23.7 51l-.2.2Zm8.2-.8-3.3 8-.4.5-.4-.4-3.4-6c0-.3 0-.3.4-.3l6.5-2.2h.4v.4h.2Zm-7.5 3 3.4 5.8v.4l-8 4.2H19v-.4L23.7 53c.2 0 .2-.2.3-.2l.2.4Zm0 22.7 4-14.3h.4L32 73.5c0 .4 0 .4-.4.4l-7 2.7h-.5V76Zm6.5-.5-6.3 6.8H24l-.1-.2v-4.5l.1-.4 6.3-2c.4-.3.4 0 .4 0s.4 0 0 .3Zm5.7 6.4-3 5.7s-.3.4-.3 0h-.4V76c0-.2.2-.4.4-.4v.4l3.3 5.7v.3ZM32 89l-7-5.2c-.3 0-.3-.2-.5-.2l7.5-8h.4v.4l.2 12.7c0 .4 0 .4-.2.4l-.4-.2Zm-8.4-10.3v4.5c0 .4 0 .4-.4.4l-7.3 3.6c0 .3 0 0-.4 0v-.2l7-8.1c0-.2.3-.2.3-.4l.8.2Zm32.8 8L39.2 82v-.3l16.7-4h.4l.4 8.7v.6l-.4-.2Zm-36.6-22 7.5-3.9h.2v.2l-4 14.2v.2c-.1 0-.1-.2-.3-.2l-3.6-10.3.2-.1Zm12-49.3L28.4 23H28L21 17v-.8L31.3 15h.4v.4ZM22 23.2l-1.6 1.2-.4-.2.4-4.2v-.3c.2 0 .2 0 .2.3l1.2 3v.2h.2Zm-.4-4.7 5.1 4.7v.4h-.4l-3.3-.8-1.6-4.1c-.4 0 0-.4 0-.4l.2.2Zm6 6.3-3.3 5.7h-.5l-1-6.3V24h.2l4.5.6v.2h.2Zm4 8.8-6.9-1.8c-.2-.4-.2-.4 0-.4l3.6-6.2h.6l3 8c0 .4 0 .4-.3.4Zm-9-4.5L20 25.7c0-.4 0-.4.4-.4l1.6-1.5.4.2.6 4.7v.4c-.6.2-.6.2-.6 0Z" fill="#46BAB6" fill-rule="nonzero"/></svg>