<svg width="71" height="78" viewBox="0 0 71 78" fill="none" xmlns="http://www.w3.org/2000/svg"><path d="M70.7191 15.4721L60.0181 10.9884L35.7772 0.675781H35.4497L0.507812 15.4721L2.14571 26.5694L11.9731 22.0856L35.5588 11.4368L47.7885 17.1535L59.1446 22.0856L56.3056 48.6518L46.0414 56.3862L45.1679 70.2858L65.4778 54.0323L70.7191 15.4721Z" fill="#B1BFC8"/><path d="M36.1044 77.9082L36.5412 63.6723L34.1389 52.2388L26.823 70.51L36.1044 77.9082Z" fill="#B1BFC8"/><path d="M44.6219 29.9321L43.8576 26.7935L36.1048 22.7581L35.9956 19.2832L34.9037 18.3865L32.5015 18.6107L34.0302 21.1888L32.2831 19.2832L30.8636 18.2744L28.1337 19.3953L27.0418 22.3098L16.5592 27.5782L8.15136 40.1326L10.3352 30.6047L3.23766 34.0796L5.96749 54.0322L22.4557 67.035L34.1389 52.2388L40.3634 46.2978L45.7138 45.1768L52.4838 40.4689L53.139 34.0796L44.6219 29.9321ZM41.3461 33.1828L39.3806 31.7256V30.6047L42.0013 30.0442L42.438 31.6135L41.3461 33.1828Z" fill="#B1BFC8"/></svg>
