<svg xmlns="http://www.w3.org/2000/svg" id="Layer_1" data-name="Layer 1" version="1.1" width="88.93" height="88.93"><defs id="defs10740"><style id="style10738">.cls-2{fill:#35614a}</style></defs><g id="g16446" transform="translate(0 22.082)"><path d="M49.422 39.067a12.42 12.42 0 01-8.12 3.09 9.71 9.71 0 01-7.27-2.7 10 10 0 01-2.62-7.25 12.32 12.32 0 014.4-9.64l.3-.26 13.6 16.52zm-15.36-30.5a6.07 6.07 0 012.73-5.92 5.56 5.56 0 016.09.46 6.6 6.6 0 012.3 5.59c-.06 3.68-1.76 6.69-5.36 9.48l-.28.21-.24-.25c-2.86-3-4.85-5.82-5.25-9.58m29.34 34.39a6.09 6.09 0 01-4-1.46 21.83 21.83 0 01-3.68-4.38l-.14-.21.14-.21a20.43 20.43 0 003-11.21 27.14 27.14 0 00-.18-3 1 1 0 01.79-1.15l3.45-.91v-.71l-2.17.08h-6.36l-3-.08v.72l3.44.73a2.24 2.24 0 011 .47 1.76 1.76 0 01.5 1.09 22.76 22.76 0 01.19 3.21 18.25 18.25 0 01-2 8.67l-.26.5-13.51-15.7.44-.22c6-3 8.77-6.34 8.77-10.65 0-2.86-.83-4.92-2.55-6.28a10.88 10.88 0 00-7-2.24 12 12 0 00-7.9 2.65 8.71 8.71 0 00-3.14 7 13 13 0 00.89 4.71 27.54 27.54 0 004.14 6.34l.29.35-.4.22c-5.65 3.14-8.52 7.15-8.52 11.91a9.93 9.93 0 004.08 8.34 16.55 16.55 0 0010.2 3.11 18.91 18.91 0 0011.77-4.07l.3-.23.23.3a9.64 9.64 0 007.79 4.13 10.88 10.88 0 004.31-.92l-.24-.9h-.7" id="path10742" fill="#99876a"/><path class="cls-2" d="M75.88 20.417c.35 5.77.4 7.45.4 12.49v11h-7.34v-43h7.28s3.47 12.59 4.22 15.28c.75 2.69 1.33 5 1.68 6.83-.23-4.2-.29-9.4-.29-13.72V.887h7.1v43h-6.52s-4-13.27-4.8-15.9a62 62 0 01-1.73-7.56" id="path10744"/><path class="cls-2" d="M20.98 31.717c0 8.91-4.1 12.16-11 12.16H0v-43h10c7.69 0 9.71 4.48 9.71 11.82 0 5.26-2 8.12-5.49 8.29 3.81 0 6.76 3.75 6.76 10.76m-13.29-8.09v15.18h2c2.37 0 3-1.4 3-8 0-4.76-.58-7.22-3.12-7.22zm0-17.76v12.38h2c2.08 0 2.48-1.79 2.48-5.49 0-5-.52-6.89-3.06-6.89z" id="path10754"/></g></svg>