<svg xmlns="http://www.w3.org/2000/svg" viewBox="0 0 89 44.8"><path fill="#99876a" d="M49.4 39a12.4 12.4 0 0 1-8.1 3.1 9.7 9.7 0 0 1-7.3-2.7 10 10 0 0 1-2.6-7.3 12.3 12.3 0 0 1 4.4-9.6l.3-.3 13.6 16.5zM34.1 8.5a6 6 0 0 1 2.7-6 5.6 5.6 0 0 1 6 .5 6.6 6.6 0 0 1 2.4 5.6c0 3.7-1.8 6.7-5.4 9.5l-.3.2-.2-.3c-2.9-3-4.8-5.8-5.2-9.5M63.4 43a6 6 0 0 1-4-1.4 21.8 21.8 0 0 1-3.7-4.4l-.1-.2.1-.2a20.4 20.4 0 0 0 3-11.2 27.1 27.1 0 0 0-.2-3 1 1 0 0 1 .8-1.2l3.5-.9v-.7H51.2v.7l3.5.8a2.2 2.2 0 0 1 1 .4 1.8 1.8 0 0 1 .5 1.1 22.8 22.8 0 0 1 .2 3.2 18.3 18.3 0 0 1-2 8.7l-.3.5-13.5-15.7.4-.2c6-3 8.8-6.4 8.8-10.7 0-2.8-.8-4.9-2.5-6.3a10.9 10.9 0 0 0-7-2.2 12 12 0 0 0-8 2.7 8.7 8.7 0 0 0-3 7 13 13 0 0 0 .8 4.7 27.5 27.5 0 0 0 4.2 6.3l.2.4-.4.2c-5.6 3.1-8.5 7.1-8.5 12a10 10 0 0 0 4.1 8.2 16.6 16.6 0 0 0 10.2 3.1 19 19 0 0 0 11.8-4l.3-.3.2.3a9.6 9.6 0 0 0 7.8 4.2 10.9 10.9 0 0 0 4.3-1l-.2-.9h-.7"/><path fill="#35614a" d="M75.9 20.3c.3 5.8.4 7.5.4 12.5v11h-7.4V1h7.3l4.2 15.3c.8 2.7 1.4 5 1.7 6.8a270 270 0 0 1-.3-13.7V.8H89v43h-6.5l-4.8-16a62 62 0 0 1-1.7-7.5M21 31.6c0 9-4.1 12.2-11 12.2H0V.8h10c7.7 0 9.7 4.5 9.7 11.8 0 5.3-2 8.1-5.5 8.3C18 21 21 24.6 21 31.6m-13.3-8v15.1h2c2.4 0 3-1.4 3-8 0-4.7-.6-7.2-3.1-7.2zm0-17.8v12.4h2c2 0 2.5-1.8 2.5-5.5 0-5-.5-6.9-3-6.9z"/></svg>
