<svg xmlns="http://www.w3.org/2000/svg" aria-labelledby="basecamp-logo-title" width="41.9" height="41.9"><path class="icon" d="M37.9 25.95c-.9 0-1.6-.7-1.7-1.6-.6-8.6-5.3-20.7-14-20.7-7.2 0-12.6 5-16.1 14.9-.3.9-1.3 1.4-2.2 1-.9-.3-1.4-1.3-1-2.1C6.9 6.05 13.4.25 22.2.25c11.5 0 16.8 14.6 17.4 23.9.1.9-.6 1.8-1.6 1.8z" fill="#1d2d35"/><path class="card card--front" d="M41.9 29.25l-30 12.4L0 12.85l5.4-2.2L30.1.55z" fill="#ffe000" opacity=".4"/><path class="card card--back" d="M40.5 32.55l-31.8 6.6-6.3-30.5 5.3-1.1 26.5-5.5z" fill="#ffe000"/><path class="icon" d="M21.8 32.25c-5.8 0-11.4-2.5-15.3-6.9-.5-.4-.6-1.1-.4-1.7 1.1-2.9 4-9.6 7.7-9.7 1.9 0 3.3 1.5 4.4 2.7.3.4.8.9 1.2 1.2.9-.9 2.6-3.7 3.9-6.6.4-.9 1.4-1.2 2.3-.8.9.4 1.2 1.4.8 2.3-4 8.7-6.1 8.7-6.9 8.7-1.6 0-2.7-1.2-3.8-2.4-.5-.5-1.5-1.6-1.9-1.6-.9.1-2.8 3.2-4.1 6.5 3.3 3.3 7.8 5.1 12.4 5 4 0 11.1-.7 14-5-.8-8.6-5.5-20.2-14-20.2-.9 0-1.7-.8-1.7-1.7 0-.9.8-1.8 1.8-1.8 11.5 0 16.8 14.6 17.4 23.9 0 .3-.1.7-.2 1-2.7 4.6-8.8 7.2-17.2 7.2-.1-.1-.3-.1-.4-.1z" fill="#1d2d35"/></svg>