<svg xmlns="http://www.w3.org/2000/svg" viewBox="0 48.5 275.7 275.7" width="275.7" height="275.7"><path fill="#2e3b4d" d="M60.25 257.9V48.5h32v77.6c13.6-17.5 31-26.2 52.4-26.2s38.8 7.8 51.4 23.3c12.6 15.5 19.4 34.9 19.4 58.2 0 23.3-6.8 42.7-19.4 58.2-12.6 15.5-30.1 23.3-51.4 23.3-21.3 0-38.8-8.7-52.4-26.2V259h-32zm32-76.6c0 15.5 3.9 27.2 11.6 36.8 8.7 9.7 19.4 14.5 33.9 14.5 13.6 0 25.2-4.8 32-14.5 7.8-9.7 11.6-22.3 11.6-36.8 0-14.5-3.9-27.2-10.7-36.8-7.8-9.7-18.4-14.5-32-14.5-14.5 0-25.2 4.8-33 14.5-9.5 9.7-13.4 21.3-13.4 36.8z"/><path fill="#00a1e0" fill-rule="evenodd" d="M60.25 304.2h155.2v20H60.25z"/></svg>