<svg xmlns="http://www.w3.org/2000/svg" viewBox="0 0 65.19 69.65"><path fill="#0968ac" d="M49.4 68.56a28.71 28.71 0 0 1 7.27-5.45 28.4 28.4 0 0 1 5.68-2.1c.98-.25 1.8-.93 2.33-1.8a3.8 3.8 0 0 0 .37-2.92 3.98 3.98 0 0 0-1.8-2.32 3.99 3.99 0 0 0-2.92-.38A35.04 35.04 0 0 0 44 63.12a3.84 3.84 0 0 0 0 5.4 3.84 3.84 0 0 0 5.4.04z"/><path fill="#1c1f26" d="M50.5 25.98c-3-2.67-6.87-3.53-10.77-3.38a18.7 18.7 0 0 0 4.02-6.68c1.12-3.49.18-7.46-3.08-9.45-2.48-1.5-5.55-1.43-8.33-1.13-.75.07-1.5.15-2.25.26l.22-.75c.27-.97.12-2.02-.37-2.92A3.74 3.74 0 0 0 24.72.54a4 4 0 0 0-1.83 2.29c-.53 1.65-1.05 3.26-1.62 4.91-1.76.6-3.49 1.28-5.21 2.07A53.91 53.91 0 0 0 1.24 20.27a4.2 4.2 0 0 0-.9 1.24 3.5 3.5 0 0 0-.34 1.5 3.66 3.66 0 0 0 1.13 2.78c.37.37.78.64 1.27.86.49.2.98.3 1.5.27a3.75 3.75 0 0 0 2.74-1.24c.83-.83 1.73-1.65 2.63-2.4.37-.34.75-.64 1.12-.98.23-.19.45-.37.75-.56l.42-.3a46.04 46.04 0 0 1 6.07-3.83l.34-.19c-2.48 6.94-5.03 13.85-7.39 20.83L8.93 43.2c-.53 1.65-1.16 3.37-1.61 5.06-.2.68-.3 1.35-.27 2.07a3.79 3.79 0 0 0 5.67 2.81 3.86 3.86 0 0 0 1.84-2.29 334.58 334.58 0 0 1 4.99-15c.52-.27 1.05-.57 1.61-.83l1.01-.49.6-.26.38-.15.3-.11a53.63 53.63 0 0 1 16.5-3.72c2.3-.11 4.58.19 6.05 2.06 1.84 2.33.3 5.97-1.1 8.07a31.94 31.94 0 0 1-5.02 5.78 50.17 50.17 0 0 1-5.48 4.69l-1.8 1.24a53.78 53.78 0 0 1-15.64 7.09c-1.2.34-2.48.64-3.75.9-1.24.26-2.52.45-3.8.56a19 19 0 0 0-2.92.42c-.94.18-1.8.7-2.4 1.46l-.11.15c-.42.6-.64 1.35-.6 2.1.03.71.26 1.42.63 2.06.38.6.94 1.13 1.58 1.47 1.16.56 2.59.22 3.79.08l1.2-.15a72.76 72.76 0 0 0 9.9-2.1 64.68 64.68 0 0 0 9.38-3.6c1.5-.72 3-1.54 4.47-2.37a53.02 53.02 0 0 0 8.25-5.89c.34-.3.68-.56 1.02-.86a50.82 50.82 0 0 0 6.26-6.76c2.48-3.22 4.62-6.71 4.77-10.92.04-1.83-.3-3.63-.98-5.32a13.8 13.8 0 0 0-3.15-4.47zM30.16 13.33c1.62-.33 3.27-.52 4.92-.56.41-.04.83.04 1.16.19.6.37.15 1.12-.11 1.57-1.31 2.14-3 4.02-4.95 5.6a48.55 48.55 0 0 1-4.5 2.92 46.82 46.82 0 0 1-3.08 1.54c1.09-3 2.14-5.97 3.19-9 .19-.53.37-1.1.56-1.66.9-.22 1.84-.4 2.81-.6z"/></svg>