<svg xmlns="http://www.w3.org/2000/svg" width="3544" height="3544"><path d="M643 1803.85c11.6 3.9 25.1 9.7 40.5 17.4 27 15.5 50.1 36.7 69.5 63.7 23.2 38.6 34.7 84.9 34.7 138.9 0 185.3-112 277.9-335.8 277.9H17.8c-11.6 0-17.4-5.8-17.4-17.4v-891.6c0-11.6 5.8-17.4 17.4-17.4h457.4c81.1 0 146.6 22.3 196.8 66.6 50.1 44.4 75.3 103.3 75.3 176.6 0 42.5-9.7 80.1-28.9 112.9-19.4 32.9-44.5 57-75.4 72.4zm-196.8 364.7c65.6 0 113.8-10.6 144.7-31.8 30.8-21.2 46.3-57.9 46.3-110s-15.5-88.7-46.3-110c-30.9-21.2-79.2-31.8-144.7-31.8H174.1c-15.5 0-23.2 5.8-23.2 17.4v249c0 11.6 7.7 17.4 23.2 17.4h272.1zm-272.1-660c-11.6 0-17.4 5.8-17.4 17.4v208.4c0 11.6 5.8 17.4 17.4 17.4h266.3c100.3 0 150.5-40.5 150.5-121.6s-50.2-121.6-150.5-121.6zm1406.9 295.3c11.6 3.9 23.2 9.7 34.7 17.4 30.8 15.5 54 36.7 69.5 63.7 27 38.6 40.5 84.9 40.5 138.9 0 185.3-112 277.9-335.8 277.9H955.7c-11.6 0-17.4-5.8-17.4-17.4v-891.6c0-11.6 5.8-17.4 17.4-17.4h457.4c77.2 0 141.8 22.3 194 66.6 52.1 44.4 78.2 103.3 78.2 176.6 0 42.5-9.7 80.1-28.9 112.9-19.5 32.9-44.6 57-75.4 72.4zm-474.8-295.3c-11.6 0-17.4 5.8-17.4 17.4v208.4c0 11.6 5.8 17.4 17.4 17.4h272.1c100.3 0 150.5-40.5 150.5-121.6s-50.2-121.6-150.5-121.6zm277.9 660c65.6 0 113.8-10.6 144.7-31.8 30.8-21.2 46.3-57.9 46.3-110s-15.5-88.7-46.3-110c-30.9-21.2-79.2-31.8-144.7-31.8h-277.9c-11.6 0-17.4 5.8-17.4 17.4v249c0 11.6 5.8 17.4 17.4 17.4h277.9zm1169.5-781.6c3.8-7.7 7.7-11.6 11.6-11.6h150.5c3.8 0 7.7 2 11.6 5.8 3.8 3.9 3.8 7.8 0 11.6l-480.5 903.2c-3.9 3.9-8.7 5.8-14.5 5.8-5.8 0-10.7-1.9-14.5-5.8l-480.5-903.2c-3.9-3.8-4.9-7.7-2.9-11.6 1.9-3.8 6.7-5.8 14.5-5.8h144.7c7.7 0 13.5 3.9 17.4 11.6l306.8 579c0 3.9 3.8 5.8 11.6 5.8 7.7 0 13.5-1.9 17.4-5.8zm173.7 770.1c-3.9 7.8-9.7 11.6-17.4 11.6h-150.5c-3.9 0-6.8-1.9-8.7-5.8-2-3.8-2.9-7.7-2.9-11.6l480.6-903.2c3.8-3.8 9.6-5.8 17.4-5.8 7.7 0 13.5 2 17.4 5.8l480.4 903.2c0 3.9-1 7.8-2.9 11.6-2 3.9-4.9 5.8-8.7 5.8h-150.5c-7.8 0-13.6-3.8-17.4-11.6l-301.1-579c-3.9-7.7-9.7-11.6-17.4-11.6-7.8 0-13.6 3.9-17.4 11.6z" fill="#004580"/></svg>