<svg xmlns="http://www.w3.org/2000/svg" width="783.224" height="783.998" viewBox="4.445 2.992 144.856 145.055"><g fill="#005faf"><path d="M109.738 128.124l2.182-.633-2.393-3.307zm-35.822-.563l-.422 2.956c1.086-.106 2.423.83 2.956-1.267-.04-1.634-1.284-1.724-2.534-1.689zm17.384-.07c-.18-.805-.853-1.398-2.534-.844l.563 3.025c1.381-.306 2.091-1.123 1.971-2.18zm-39.27-2.476l-.673 2.688c1.08.045 2.345.921 3.062-.672.048-.998.09-1.992-2.39-2.016zm37.792 6.91l.493 3.097c1.153.03 2.205-.664 1.9-2.11-.294-1.393-1.463-1.173-2.393-.987z"/><path d="M135.59 17.136C98.323-1.849 53.816-1.32 18.308 16.308c-18.31 32.233-18.893 77.332 0 117.276 39.12 19.796 82.385 18.492 117.557.828 16.53-33.913 19.26-74.72-.275-117.276zm-62.94 96.248l-2.209.025c-.547-6.104-2.006-11.234-5.136-15.16-14.353-17.999-43.693-4.448-36.154-35.037 3.92-15.638 48.633-24.86 43.5 50.172zM29.204 83.172c3.134 6.38 22.77 7.424 29.585 12.307 10.812 7.745 9.26 17.933 9.26 17.933H65.5c-5.02-15.387-19.109-3.204-30.394-7.348-7.085-2.52-12.229-13.443-5.9-22.892zm35.774 50.161l1.056-8.375 1.9.141-.845 9.22c-.852 4.06-6.907 3.517-7.67-.353l.984-9.57 2.252.352-.985 8.022c.125 2.655 2.788 2.496 3.308.563zm-10.11 2.287l-2.167-.523c.254-1.79 2.377-5.432-1.819-5.432l-1.168 4.76-2.39-.448 2.54-11.427c6.205.676 6.748 2.403 6.871 4.257-.245 1.438-.628 2.442-1.867 2.688 1.45 1.316.017 4.074 0 6.125zM41.11 122.821c-.597.792-1.792 3.56-1.965 5.764-.184 2.337 2.061 1.845 2.62 1.572.451-.219.786-2.096.786-2.096l-1.572-.524.524-1.57 3.538 1.178-1.703 5.896-1.44-.394.13-.917c-1.764.804-4.993.201-5.372-1.834-.379-1.635.77-6.592 2.62-8.908 1.8-2.252 6.182-.05 6.29 1.31.105 1.356-.43 2.882-.43 2.882l-1.65-.31s.101-.49.245-1.263c.152-.818-1.98-1.637-2.62-.786zm32.173 9.596l-.422 5.068-1.759-.07.633-12.035c4.393.091 6.911.7 6.827 3.801-.262 4.238-3.694 3.285-5.279 3.236zm4.38-19.006h-2.944c-.26-10.422 1.743-29.485-3.733-43.514-4.149-10.635-14.649-15.419-16.976-24.01-3.684-13.598 2.586-28.31 23.652-29.444 18.263 1.875 23.874 15.974 20.76 29.101-5.357 13.125-10.714 11.24-17.383 24.313-5.447 14.015-3.373 32.376-3.377 43.554zM110.3 132.7l-2.04.704-.635-12.105 2.393-.633 5.912 9.993-1.619 1.056-1.97-2.814-2.253.844zm-23.81-19.288h-2.355c1.94-26.766 35.575-20.95 38.65-30.239 5.315 9.208 3.404 16.972-2.147 20.952-13.794 9.894-27.02-7.322-34.149 9.287zm12.48 13.518l1.056 5.56c.657 1.281 1.103 1.044 2.111.915 1.17-.846.925-1.67.704-2.745l2.041-.28c.532 4.027-1.383 4.438-2.815 4.714-3.07.22-3.673-.378-4.504-4.363-.484-3.41-1.32-7.013 1.548-7.67 4.708-.72 4.43 1.4 4.856 2.884l-2.04.353c-.327-1.276-.796-1.782-1.83-1.688-.944.433-1.33 1.134-1.127 2.32zm-4.293 5.77c.098 1.753-.497 2.917-1.619 3.308l-4.786.985-1.9-11.612c.982-.16 5.797-1.924 6.967 1.268.577 1.95-.02 2.648-.704 3.518 1.295.416 1.732 1.424 2.042 2.533zm-12.29-58.273c10.662-30.02 35.06-24.715 40.47-11.213 7.413 27.093-16.457 19.663-31.747 30.773-5.779 5.026-8.82 10.792-8.865 19.533h-2.62c-.157-17.606-.442-30.073 2.762-39.093z"/></g></svg>