<svg xmlns="http://www.w3.org/2000/svg" style="fill:#fff;background:#003C71" viewBox="0 0 850 850"><path d="M83 571V279h72c67 0 97 22 97 76 0 30-13 51-38 62v1c33 12 45 37 45 70 0 67-43 84-100 84H83zm74-170c25 0 47-9 47-41 0-31-23-37-47-37h-27v78zm5 127c34 0 48-12 48-43 0-32-16-45-48-45h-32v88zm309-52c-9 65-36 99-89 99-70 0-93-57-93-151 0-84 24-148 93-148 56 0 78 35 86 94l-45 4c-6-37-19-55-40-55-30 0-45 31-45 105 0 81 13 108 45 108 23 0 37-21 43-61zm41 95V279h48v292zm148 0V323h-60v-44h168v44h-60v248z"/></svg>
