<svg xmlns="http://www.w3.org/2000/svg" width="149.6" height="135.6" viewBox="0 0 39.582 35.878" version="1.1" id="svg21119">
  <g id="layer1" transform="translate(-121.837 -334.737)">
    <g id="g21154" transform="translate(.265 -.265)">
      <path id="rect21123" class="st0" style="fill:#003e6b;stroke-width:.26458332" d="M121.837 335.266h35.322v35.348h-35.322z"/>
      <path id="path21125" d="M157.873 337.806v-1.878h-.45v-.397h1.35v.397h-.45v1.878zm2.593 0v-1.587l-.344 1.587h-.317l-.37-1.587v1.587h-.398v-2.275h.609l.317 1.429.344-1.43h.582v2.276z" class="st0" style="fill:#003e6b;stroke-width:.26458332"/>
      <path id="path21127" transform="scale(.26458)" d="M520.986 1309.447c-10.9 0-14.7 10.101-14.7 23.301 0 14.8 3.599 23.701 14.599 23.701 8.4 0 12.601-5.3 14.101-15.5l-7.1-.8c-1 6.3-3.1 9.5-6.8 9.5-4.9 0-7-4.3-7-17 0-11.6 2.4-16.5 7.1-16.5 3.4 0 5.4 2.899 6.3 8.699l7-.6c-1.1-9.3-4.7-14.8-13.5-14.8zm20.399.502v45.899h7.601v-45.899zm13.8 0v6.899h9.5v39h7.5v-39h9.5v-6.899zm-81.199.1v45.899h11.9v-.1c8.9 0 15.8-2.6 15.8-13.2 0-5.2-1.9-9.1-7-10.9v-.1c3.8-1.7 5.9-4.901 5.9-9.701 0-8.5-4.8-11.899-15.3-11.899zm7.399 6.7h4.2c3.7 0 7.3.9 7.3 5.8 0 5-3.399 6.5-7.3 6.5h-4.2v-.1zm0 18.4h5c5 0 7.5 2 7.5 7s-2.3 6.8-7.6 6.8h-4.9z" style="fill:#fff;stroke-width:.99999994"/>
    </g>
  </g>
  <style id="style21121" type="text/css">
    .st0{fill:#003e6b}
  </style>
</svg>
