<svg xmlns="http://www.w3.org/2000/svg" xml:space="preserve" viewBox="0 0 269.553 154.412"><g fill="#0067A4"><path d="M200.294 89.145c-1.415-6.842-4.122-12.499-8.027-17.649-8.002-10.561-20.964-17.236-38.508-17.236-27.274 0-44.043 18.521-49.009 38.044-4.46-13.766-16.396-23.053-29.004-26.977 9.49-6.918 14.458-16.814 14.458-28.111 0-10.486-4.365-20.031-11.672-26.243C67.812 1.86 53.2 0 35.195 0H0v151.975c9.972 0 20.222-.044 30.214 0 8.89.041 17.572-.012 25.668-.336 25.626-1.027 43.166-13.926 48.78-33.296 1.928 8.612 5.636 15.633 10.478 20.961 9.868 10.862 24.175 15.108 38.583 15.108 17.74 0 30.566-5.145 39.328-13.029l-12.541-14.74c-6.311 4.758-14.422 7.563-23.531 7.563-17.865-.056-25.743-11.36-26.449-22.229h69.763v39.998h26.131V.759h-26.131v88.386zM26.851 20.532l7.261-.004c7.012 0 12.55.754 16.538 2.302 7.874 3.055 11.617 9.316 11.617 17.137.009 6.613-2.521 17.005-16.432 19.846-2.327.475-5.679.738-10.415.738h-8.569V20.532zm29.541 109.2c-3.271.588-7.271.719-10.52.719H26.849l.001-49.58h17.021c5.372 0 11.451.604 14.934 1.516 11.941 3.133 18.801 11.695 18.801 23.033 0 11.74-6.317 21.628-21.214 24.312zm74.619-36.65c2.303-11.07 10.486-19.038 22.546-19.038 12.073 0 20.104 7.139 22.185 19.038h-44.731zM243.868.759h25.686v151.215h-25.686z"/></g></svg>