<svg xmlns="http://www.w3.org/2000/svg" viewBox="0 0 269.6 154.4"><path fill="#0067A4" d="M200.3 89.1a42.8 42.8 0 0 0-8-17.6 46 46 0 0 0-38.5-17.2c-27.3 0-44 18.5-49 38a43.4 43.4 0 0 0-29-27 34 34 0 0 0 14.4-28c0-10.6-4.4-20.1-11.7-26.3C67.8 1.9 53.2 0 35.2 0H0v152h30.2c8.9 0 17.6 0 25.7-.4 25.6-1 43.1-13.9 48.8-33.3a45.2 45.2 0 0 0 10.4 21 50.8 50.8 0 0 0 38.6 15.1c17.8 0 30.6-5.1 39.4-13l-12.6-14.8a38.8 38.8 0 0 1-23.5 7.6c-17.9 0-25.8-11.4-26.5-22.2h69.8v40h26.1V.8h-26.1V89zM26.9 20.5H34c7 0 12.6.8 16.6 2.3 7.8 3 11.6 9.3 11.6 17.2 0 6.6-2.6 17-16.5 19.8a55 55 0 0 1-10.4.8H27v-40zm29.5 109.2c-3.3.6-7.3.8-10.5.8h-19V80.9h17a68 68 0 0 1 15 1.5c11.8 3.1 18.7 11.7 18.7 23 0 11.8-6.3 21.6-21.2 24.3zM131 93.1c2.3-11 10.5-19 22.6-19 12 0 20 7 22.1 19H131zM244 .8h25.7V152H244z"/></svg>