<?xml version="1.0" encoding="utf-8"?>
<!-- Generator: Adobe Illustrator 26.2.1, SVG Export Plug-In . SVG Version: 6.00 Build 0)  -->
<svg version="1.1" id="Layer_1" xmlns="http://www.w3.org/2000/svg" xmlns:xlink="http://www.w3.org/1999/xlink" x="0px" y="0px"
	 viewBox="0 0 128 128" style="enable-background:new 0 0 128 128;" xml:space="preserve">
<style type="text/css">
	.st0{fill:#00101E;}
	.st1{fill:#F9C806;}
</style>
<g>
	<path class="st0" d="M43.6,34.6c-6.5,0-12.8,1.3-18.7,3.9V8.8H0v108.5h24.9v-3.7c5.9,2.5,12.3,3.8,18.7,3.7
		c24.9,0,43.2-17.7,43.2-41.4S69,34.6,43.6,34.6z M43.7,93.8C33.4,93.8,26,86.3,26,76.1s7.7-17.9,17.7-17.9
		c10.5,0,17.9,7.5,17.9,17.8C61.7,86.3,54.1,93.8,43.7,93.8L43.7,93.8z"/>
	<path class="st1" d="M110.1,83.5c10.5,0,17.9,7.5,17.9,17.8s-7.6,17.8-17.9,17.8s-17.7-7.5-17.7-17.7
		C92.3,91.2,100,83.5,110.1,83.5z M110.1,83.5c10.5,0,17.9,7.5,17.9,17.8s-7.6,17.8-17.9,17.8s-17.7-7.5-17.7-17.7
		C92.3,91.2,100,83.5,110.1,83.5z"/>
</g>
</svg>
