<svg xmlns="http://www.w3.org/2000/svg" version="1.1" id="svg2931" width="25" height="25"><defs id="defs2923"><style id="style2921"></style></defs><g id="g3484" transform="translate(3.04 -34.156)"><path d="M15.34 46.16a7.17 7.17 0 012.61 2.49 6.36 6.36 0 01-1.3 8.25 7.94 7.94 0 01-5.48 2H0V34.41h10.76a7 7 0 015 1.95 6.26 6.26 0 012.06 4.71 6.15 6.15 0 01-2.49 5.09" id="path2925" fill="#ef4e58"/><path d="M9.68 46.16a7.17 7.17 0 012.61 2.49 6.36 6.36 0 01-1.3 8.25 7.94 7.94 0 01-5.48 2H0V34.41h5.1a7 7 0 015 1.95 6.26 6.26 0 012.07 4.71 6.15 6.15 0 01-2.49 5.09" id="path2927" fill="#87084f"/></g></svg>