<svg xmlns="http://www.w3.org/2000/svg" viewBox="0 0 277.6 264.8"><path fill="#fff" d="m115.8 257.8-.9-1c2.3-5.6 4.6-7.2 6.4-7.7 2.1-.6 4.3-1.1 6.5-1.5a1.3 1.3 0 0 0 1.4-2 5.2 5.2 0 0 0-1.4-2l-4.2-4-4-3.1c-1.9-1.6-3.5-3.6-5.5-5.1-1.7-1.3-2.4-3.2-3.7-4.6L109 225l-3.7 4.7a68 68 0 0 1-4.6 6c-2.1 2.5-4.7 4.4-7 6.7s-5.3 4-7.9 6.2a41 41 0 0 0-3 2.9l-3.3 2.9a34.4 34.4 0 0 1-3.6 2.8 43.7 43.7 0 0 1-4.3 2.2 61.5 61.5 0 0 0-5.5 3.3 7 7 0 0 1-2.3 1 4.3 4.3 0 0 1-1.6.2c-2.3-.1-4.2.6-7.9.8l-6.8-.1-5.7-.1-4.5-.7-2.5-1.1a4 4 0 0 1 2.9-3.6c1.3-.6 2.3-2 3.4-3 2.4-2.3 5.4-3 8.5-3 3.5.2 5.9-1.2 7.2-4.5 1.7-4.1 4.8-7.2 7.8-10.3a34.2 34.2 0 0 0 8.2-15.2l2.9-10.5a10.7 10.7 0 0 0 .6-3 1.8 1.8 0 0 0-1.2-1.2c-1.5 0-2.9.5-4.4.7l-4.7.7a13.8 13.8 0 0 0-2.7.8l-2.2 1-4.1 2a19 19 0 0 1-6.9 2.2 12.5 12.5 0 0 1-2.3 2.3 17.3 17.3 0 0 1-9.1 3.9c-3.6.3-4.4-.8-6.8.2a22.7 22.7 0 0 0-3.4 1.9c-3 1.9-6.1 1.6-9.1.4-.7-.3-1.1-1.8-1.4-2.8a6.7 6.7 0 0 1 0-2l1.5-.4.8-1.2a10.7 10.7 0 0 1 1.5-2.2 8.4 8.4 0 0 0 1.4-2.4l-.4-.5-6.8 3.8a10.9 10.9 0 0 1-1.8 0c-1 0-1.5-.5-2.9-.6a12.3 12.3 0 0 1-4.1-1.3c-.5-.2-.8-1-1.5-2l-2.8-1.6c2.1-2.1 4-4 5.7-6a71.5 71.5 0 0 0 6.1-7.4c.9-1.2 1-3 1.4-4.5a1.2 1.2 0 0 0-.5-1c-1.4-1-1-2.1-.2-3.3.9-1.4 1.7-3 2.7-4.4 1.5-2.2 3.1-4.3 4.5-6.5a4.4 4.4 0 0 0 .6-2.5 10.7 10.7 0 0 1 2.5-7.3 1.9 1.9 0 0 1 2.6-.4l.2.2 2 1.4c2.7 1.9 5 1.2 6.4-1.7a10.3 10.3 0 0 1 2.4-3.1c1.9-1.8 3.8-1.5 5.5.5 1.2 1.4 1.9 1.5 3.1.2a31.8 31.8 0 0 1 3.4-3 44 44 0 0 1 9-5 112 112 0 0 0 21.6-11.3l1.4-1 .8-.6 1.3-.8c7.5-4.3 18.9-4.3 18.9-4.3 2 0 10.6 0 14.8 2.5 2.3 1.4 3.3 1.8 5.2 2.8a20.3 20.3 0 0 0 2.6 1 34.5 34.5 0 0 0 14.9 2.6c7.9-.4 15.5-2.5 23.3-4a94 94 0 0 1 11.9-1 65.3 65.3 0 0 1 23.6 4.3 69.5 69.5 0 0 1 22 13.9c1.9 1.7 3.5 3.4 6.7 6.6 0 0 10.8 11.3 10.6 17a3 3 0 0 1-.3 1.4c-1.4 1.3-.8 2.5-.2 4l1.6 5.4c1 3.7 2.2 7.4 3.1 11.2.3 2.2.6 4.4.7 6.7.3 4 .8 7.9 1.5 11.9.8 3.4 1.1 7 3.6 9.9a31.9 31.9 0 0 1 4.3 7.4 20.3 20.3 0 0 1 1 4.9 12.7 12.7 0 0 1 .3 2.8 4 4 0 0 1-1.9 3.6l-9.1 5.9a5.7 5.7 0 0 1-2.6.4h-18.3a7.4 7.4 0 0 1 .1-4 7.5 7.5 0 0 1 4-4.1 15.3 15.3 0 0 1 7.3-1.3h.5c1.4-.3 2.9-.8 2.9-2.3 0-1-1.1-2.1-2.1-2.8a5.6 5.6 0 0 0-3.3-.8 30 30 0 0 1-9.2-2.1 29.1 29.1 0 0 1-8.1-4 10.7 10.7 0 0 1-2.6-2.6c-1.2-1.8-2.1-3.7-3.4-6-1.2.9-2.7 1.7-4 2.7-1.3 1-3.1 2-4.8 3.4a84.6 84.6 0 0 0-6.5 5.4 58.2 58.2 0 0 0-5.3 4.6l-7.1 8.8a9 9 0 0 0-1.1 1.6c-1 3-3.6 3.4-6.2 3.6-3.5.4-7.1.7-10.6.9-2.4.2-4.9.2-7.3.2a55.8 55.8 0 0 1-9.9-1.2c-.2-.8-1-4 .9-6.2a5.4 5.4 0 0 1 3.3-1.8 72.2 72.2 0 0 1 7.9-1.3c1.1-.2 2.3-.1 3.4-.2 2-.3 2.7-1.5 2.4-3.5-.3-2.3-.3-4.7-.6-7-.2-1.8-.6-3.5-.7-5.3a183.8 183.8 0 0 1 .3-13.3h-2.7a84.7 84.7 0 0 1-11.3-.7c-3-.3-6.1-.5-9.1-.5.6 1.7 1 3.4 1.6 4.9 1.2 2.9 2.7 5.6 4 8.5.6 1.2.9 2.5 1.4 3.7.8 1.9.2 3.6-.5 5.3-.7 1.7-1.8 3.5-2.7 5.3l-2.3 4.9a5.6 5.6 0 0 1-4.7 2.9c-2.6.2-5.2-.1-7.8 0-2.6.3-2.7.5-7 .9a47.5 47.5 0 0 1-6.9.4"/><path fill="#faa826" d="M268.7 89A488.8 488.8 0 0 0 0 142c-.1-11.7 1-58.7 37-97.3 4.6-5 28.3-29.6 68.8-39.8a138.7 138.7 0 0 1 96.4 9 138.5 138.5 0 0 1 66.5 75.3"/><path fill="#0a9da2" d="M253.6 216.5a42 42 0 0 0-.5-10.6 39.3 39.3 0 0 0-1-4.1c-.9-3.2-2.2-7.6-4.2-13.1a15.2 15.2 0 0 0 1.2-6.6c-.1-3.8-1.6-7.8-11-18.4-5.5-6.2-8.2-9.3-11.9-12.4a76.2 76.2 0 0 0-21-12.6 66.2 66.2 0 0 0-20.1-4.7 82.2 82.2 0 0 0-18.4 1.3l-19.2 3a27.6 27.6 0 0 1-9.5.3 26.2 26.2 0 0 1-4.8-1.3c-4.6-1.7-6.8-4.2-13.5-6.1a49.5 49.5 0 0 0-19.4-1 53.9 53.9 0 0 0-16.8 4.2c-8 3.5-13.5 8.4-21.1 11l-4 1.6a31.6 31.6 0 0 0-7.7 4.5c-2.7 2.2-2.9 3.4-4.9 3.9-1.7.5-2.2-.2-4.2 0-4.5.3-5.1 4-8.4 4.2-3.8 0-5.1-4.7-8.4-4.2-.8 0-2.1.6-4.2 4.2-3.3 5.6-1.5 7.5-4.2 12.6-2.4 4.5-4.9 5-6.4 10a21.4 21.4 0 0 0-.8 4.4 115.9 115.9 0 0 1-6.9-23.1 94.2 94.2 0 0 1-1.6-11A475.5 475.5 0 0 1 101 113.7l7.9-2a453.6 453.6 0 0 1 163.3-10.3 136 136 0 0 1-18.6 115"/></svg>
