<svg xmlns="http://www.w3.org/2000/svg" viewBox="0 0 100 100"><rect width="100" height="100" fill="#121212" ry="20"/><path fill="#fff" d="M31.67 45.755c1.977 0 3.43.654 4.357 1.961.928 1.307 1.392 2.853 1.392 4.635v1.04h-8.507c.156.83.538 1.493 1.145 1.986.607.494 1.405.74 2.393.74.573 0 1.089-.073 1.548-.22.46-.147.993-.36 1.6-.637l.989 2.441c-.59.45-1.306.78-2.146.987-.842.208-1.531.312-2.069.312-2.185 0-3.906-.598-5.164-1.792-1.257-1.195-1.886-2.796-1.886-4.805 0-2.008.568-3.618 1.704-4.83 1.136-1.212 2.684-1.818 4.644-1.818zm29.449 0c1.977 0 3.43.654 4.358 1.961.927 1.307 1.391 2.853 1.391 4.635v1.04h-8.507c.157.83.538 1.493 1.145 1.986.607.494 1.405.74 2.393.74.573 0 1.088-.073 1.548-.22.46-.147.993-.36 1.6-.637l.989 2.441c-.59.45-1.306.78-2.146.987-.842.208-1.531.312-2.069.312-2.185 0-3.906-.598-5.164-1.792-1.257-1.195-1.886-2.796-1.886-4.805 0-2.008.568-3.618 1.704-4.83 1.136-1.212 2.684-1.818 4.644-1.818zm12.918.14c3.245 0 5.342 1.672 5.342 4.198v8.595h-3.421v-1.87h-.07c-.715 1.285-2.05 2.069-3.702 2.069-2.519 0-4.217-1.579-4.217-3.79v-.022c0-2.28 1.769-3.614 4.885-3.813l3.104-.187v-.771c0-1.112-.726-1.802-2.062-1.802-1.277 0-2.05.597-2.214 1.404l-.023.105H68.53l.012-.14c.187-2.316 2.178-3.977 5.494-3.977ZM90 55.224v3.463h-3.469v-3.462ZM16.608 41.029c1.717 0 3.113.377 4.188 1.13 1.075.754 1.613 2.022 1.613 3.805 0 .658-.152 1.25-.455 1.779a4.685 4.685 0 0 1-1.184 1.363 5.538 5.538 0 0 1 1.964 1.688c.512.71.768 1.61.768 2.701 0 1.628-.569 2.9-1.704 3.818-1.137.918-2.65 1.376-4.54 1.376H10v-17.66Zm29.006 0c1.925 0 3.572.442 4.942 1.325s2.056 2.25 2.056 4.103c0 1.091-.282 2.03-.846 2.818a5.715 5.715 0 0 1-2.172 1.83l4.345 7.584h-3.59l-3.747-6.752a14.611 14.611 0 0 1-1.223.052h-1.95v6.7h-3.356v-17.66ZM84.826 41v17.688h-3.585V41Zm-8.868 12.204-2.589.163c-1.324.082-2.015.643-2.015 1.532v.024c0 .923.762 1.473 1.945 1.473 1.535 0 2.659-.982 2.659-2.292zm-58.726-2.255h-3.876v4.96h3.642c.902 0 1.626-.207 2.172-.623.547-.416.82-1.004.82-1.766 0-.831-.252-1.467-.755-1.909-.503-.44-1.17-.662-2.003-.662Zm14.36-2.311c-.694 0-1.275.212-1.743.636-.468.424-.772 1.043-.91 1.857h5.28c-.173-.848-.485-1.476-.936-1.883-.451-.407-1.015-.61-1.691-.61Zm29.449 0c-.694 0-1.275.212-1.743.636-.468.424-.772 1.043-.91 1.857h5.28c-.173-.848-.485-1.476-.936-1.883-.452-.407-1.015-.61-1.691-.61ZM45.51 43.833h-2.081v5.402h2.133c1.006 0 1.838-.203 2.497-.61.66-.407.989-1.078.989-2.013 0-.987-.312-1.697-.937-2.13-.624-.432-1.491-.649-2.601-.649Zm-29.397 0h-2.757v4.39h2.497c.937 0 1.67-.178 2.199-.533.529-.355.793-.913.793-1.675 0-.831-.243-1.402-.728-1.714-.486-.312-1.154-.468-2.004-.468Z"/></svg>