<svg xmlns="http://www.w3.org/2000/svg" xml:space="preserve" width="709.893" height="709.893"><path d="M89.613 2662.12c0 1420.77 1151.727 2572.5 2572.497 2572.5 1420.77 0 2572.5-1151.73 2572.5-2572.5S4082.88 89.621 2662.11 89.621 89.613 1241.35 89.613 2662.12" style="fill:#c57f0a;fill-opacity:1;fill-rule:nonzero;stroke:none" transform="matrix(.13333 0 0 -.13333 0 709.893)"/><path d="M89.613 2662.12c0 1420.77 1151.727 2572.5 2572.497 2572.5 1420.77 0 2572.5-1151.73 2572.5-2572.5S4082.88 89.621 2662.11 89.621 89.613 1241.35 89.613 2662.12Z" style="fill:none;stroke:#0b4071;stroke-width:179.229;stroke-linecap:butt;stroke-linejoin:miter;stroke-miterlimit:3.86369;stroke-dasharray:none;stroke-opacity:1" transform="matrix(.13333 0 0 -.13333 0 709.893)"/><path d="M3189.59 331.039c10.79-10.871 26.85-15.871 42.64-11.937a45.279 45.279 0 0 1 21.13 11.929l-63.77.008zm-170.21 0c-.06-2.68.11-5.371.54-8.078 3.89-24.582 26.98-41.082 51.26-37.25 22.57 3.578 38.63 23.117 38.11 45.32l-89.91.008zm-147.13 0c-4.63-8.18-6.78-17.801-5.57-27.668 3.03-24.711 25.54-42 49.93-39.012 24.71 3.032 42.35 25.262 39.33 49.981a45.503 45.503 0 0 1-5.46 16.699h-78.23zm-150.93 0c-9.71-8.629-15.65-21.371-15.17-35.16.87-24.879 21.78-44.07 46.35-43.219 24.88.871 44.39 21.481 43.53 46.36-.44 12.75-6.08 24.089-14.81 32l-59.9.019zm-144.37 0c-9.87-8.16-16.27-20.391-16.51-33.98-.43-24.891 19.44-45.149 44.02-45.579 24.9-.441 45.47 19.122 45.9 44.008.25 14.274-6.07 27.121-16.2 35.571l-57.21-.02zm-166.65 0c-4.41-6.289-7.27-13.738-7.98-21.82-2.16-24.789 16.25-46.399 40.74-48.539 24.79-2.168 46.68 15.898 48.85 40.711.96 10.949-2.03 21.339-7.81 29.711l-73.8-.063zm-165.04 0c-3.47-24.32 13.3-46.758 37.35-50.57 24.59-3.899 47.68 12.621 51.57 37.199.72 4.531.75 9 .16 13.32l-89.08.051zm-147.63 0c6.2-10.25 16.47-17.98 29.03-20.66 19.32-4.098 38.38 4.672 48.01 20.641l-77.04.019" style="fill:#fff;fill-opacity:1;fill-rule:evenodd;stroke:none" transform="matrix(.13333 0 0 -.13333 0 709.893)"/><path d="M3253.36 331.039c10.74 10.731 15.76 26.609 11.81 42.461-6.03 24.16-30.25 38.961-54.4 32.941-24.15-6.031-38.81-30.839-32.86-54.703 2.03-8.148 6.17-15.207 11.68-20.738l63.77.039zm-144.07 0a45.71 45.71 0 0 1-.55 5.992c-3.9 24.59-26.73 41.449-51.32 37.559-21.84-3.469-37.52-22.371-38.04-43.57l89.91.019zm-158.8 0c-8.64 15.422-25.88 24.91-44.53 22.609-14.71-1.796-26.9-10.628-33.71-22.628l78.24.019zm-169.27 0c-8.31 7.512-19.41 11.93-31.54 11.5-10.92-.379-20.79-4.668-28.36-11.437l59.9-.063zm-147.06 0c-7.54 6.313-17.19 10.16-27.81 10.34-11.14.191-21.41-3.731-29.4-10.328l57.21-.012zm-150.06 0c-7.3 10.629-19.06 17.981-32.89 19.199-16.63 1.453-31.96-6.468-40.91-19.207l73.8.008zm-149.76 0c-2.61 19.07-17.29 35.031-37.35 38.199-24.59 3.903-47.78-13.218-51.62-37.5-.04-.23-.08-.457-.11-.687l89.08-.012zm-159.67 0c2.5 4.129 4.37 8.77 5.43 13.801 5.18 24.34-10.1 48.269-34.45 53.441-24.34 5.18-48.4-10.703-53.51-34.75-2.47-11.633-.19-23.113 5.49-32.492h77.04zm1155.02 80c-.86-6.519-.34-13.25 1.77-19.789 7.7-23.672 33.09-36.359 56.47-28.762 21.04 6.84 33.71 27.492 30.88 48.614l-89.12-.063zm-1390.94 0a41.21 41.21 0 0 1-.97-2.848c-7.28-23.8 6.24-48.75 29.74-55.941 23.81-7.289 48.97 5.852 56.25 29.66 3.05 9.942 2.52 20.129-.85 29.149l-84.17-.02zm-136.8 0a45.672 45.672 0 0 1 12.38-7.16c15.73-6.039 32.73-2.789 44.84 7.141l-57.22.019" style="fill:#fff;fill-opacity:1;fill-rule:evenodd;stroke:none" transform="matrix(.13333 0 0 -.13333 0 709.893)"/><path d="M3563.82 473.328c-8.93 23.242-34.77 34.992-58 26.07-23.24-8.918-34.77-35.347-25.96-58.296 8.93-23.243 34.94-34.582 57.89-25.774 23.25 8.922 34.98 34.762 26.07 58zm144.4 65.742c-10.51 22.559-37.11 32.469-59.68 21.961-22.55-10.523-32.2-37.679-21.82-59.961 10.53-22.558 37.27-32.062 59.55-21.672 22.56 10.512 32.48 37.122 21.95 59.672zm139.62 75.02c-12.07 21.781-39.3 29.82-61.06 17.75-21.78-12.07-29.51-39.84-17.59-61.34 12.07-21.77 39.4-29.391 60.91-17.461 21.78 12.063 29.81 39.289 17.74 61.051zm135.58 86.051c-13.92 20.629-41.74 26.269-62.38 12.347-20.63-13.918-25.91-42.25-12.17-62.636 13.92-20.641 41.82-25.832 62.2-12.082 20.64 13.91 26.27 41.73 12.35 62.371zm-2538.54-68.59c13.2 21.117 7.02 48.82-14.09 62.019-21.11 13.188-49.14 6.489-62.17-14.359-13.19-21.109-6.59-48.723 14.26-61.75 21.1-13.191 48.81-7.02 62 14.09zm138.57-76.981c11.68 21.981 3.6 49.192-18.38 60.871-21.98 11.688-49.48 3.047-61.03-18.652-11.68-21.98-3.17-49.059 18.53-60.598 21.98-11.691 49.19-3.601 60.88 18.379zm141.37-67.351c10.53 22.57 1.02 49.312-21.53 59.832-22.57 10.519-49.58.461-59.96-21.821-10.53-22.562-.62-49.16 21.67-59.55 22.56-10.52 49.31-1.02 59.82 21.539zm1693.99-76.18a44.46 44.46 0 0 1-1.82 8c-7.68 23.68-32.88 36.762-56.55 29.07-17.05-5.539-28.52-20.468-30.75-37.121l89.12.051zm-1395.89 0c-4.71 12.582-14.95 22.879-28.8 27.121-22.83 6.969-47.07-5.371-55.37-27.109l84.17-.012zm-163.75 0c5.79 4.723 10.45 10.992 13.34 18.5 8.92 23.242-2.43 49.262-25.66 58.191-23.25 8.911-49.49-3.011-58.3-25.96-7.13-18.579-1.05-38.821 13.4-50.692l57.22-.039zm2182.45 320c15.41-15.008 39.82-17.059 57.64-4.109a43.702 43.702 0 0 1 4.95 4.16l-62.59-.051zm-2809.32 0a44.662 44.662 0 0 1 16.53-23.187c20.14-14.641 48.21-10.411 62.84 9.726a45.315 45.315 0 0 1 6.72 13.461h-86.09" style="fill:#fff;fill-opacity:1;fill-rule:evenodd;stroke:none" transform="matrix(.13333 0 0 -.13333 0 709.893)"/><path d="M4231.3 891.078c-16.01 19.07-44.26 21.75-63.33 5.762-19.06-16.012-21.36-44.738-5.56-63.57 16.01-19.071 44.3-21.329 63.13-5.52 19.07 16 21.76 44.25 5.76 63.328zm115.81 111.392c-17.6 17.61-45.99 17.82-63.58.23-17.61-17.598-17.39-46.43 0-63.809 17.59-17.602 45.98-17.383 63.36 0 17.6 17.609 17.83 45.98.22 63.579zm-3281.27-88.04c16.98 18.199 16.21 46.582-2 63.55-18.2 16.981-47 15.75-63.76-2.23-16.982-18.199-15.771-46.559 2.21-63.332 18.2-16.969 46.58-16.199 63.55 2.012zm118.55-102.168c16.01 19.066 13.75 47.359-5.32 63.359s-47.77 13.27-63.56-5.562c-16.01-19.071-13.31-47.321 5.52-63.118 19.07-16.011 47.36-13.75 63.36 5.321zm2919.82-81.223c15.86 15.391 18.56 40.289 5.21 58.66-14.63 20.153-42.62 24.801-62.77 10.16-20.14-14.621-24.42-43.129-9.98-63.007a44.263 44.263 0 0 1 4.95-5.75l62.59-.063zm-2785.82 0c5.45 17.82-.52 37.801-16.45 49.379-20.14 14.633-48.58 9.902-63.02-9.977-8.62-11.851-10.55-26.433-6.62-39.363l86.09-.039zm3077.28 320.001c17.07-14.55 41.79-14 58.19.06l-58.19-.06zm-3518.283 0a44.629 44.629 0 0 1 11.465-23.42c16.976-18.21 45.336-19.43 63.546-2.44 7.645 7.13 12.293 16.28 13.856 25.83l-88.867.03" style="fill:#fff;fill-opacity:1;fill-rule:evenodd;stroke:none" transform="matrix(.13333 0 0 -.13333 0 709.893)"/><path d="M4553.62 1242.71c-19.88 14.98-48.01 11.25-62.99-8.64-14.99-19.88-10.76-48.38 8.87-63.18 19.88-14.98 47.96-10.82 62.76 8.82 14.98 19.88 11.25 48.02-8.64 63zm90.28 127.86c-20.64 13.92-48.54 8.72-62.46-11.92-13.92-20.64-8.21-48.89 12.17-62.63 20.64-13.93 48.46-8.29 62.21 12.09 13.92 20.63 8.71 48.54-11.92 62.46zm81.93 135.86c-21.56 12.44-49.03 5.31-61.47-16.25-12.46-21.56-4.78-49.35 16.51-61.63 21.55-12.45 48.92-4.9 61.21 16.39 12.44 21.57 5.3 49.04-16.25 61.49zm72.6 140.9c-22.38 10.9-49.28 1.87-60.19-20.5-10.92-22.38-1.33-49.55 20.77-60.33 22.38-10.91 49.13-1.47 59.92 20.63 10.9 22.37 1.87 49.28-20.5 60.2zm63.19 145.34c-23.08 9.32-49.3-1.57-58.62-24.65-9.33-23.08 2.14-49.52 24.93-58.73 23.09-9.33 49.12 1.96 58.33 24.75 9.33 23.09-1.56 49.3-24.64 58.63zM508.34 1677.8c22.914 9.73 33.75 35.96 24.023 58.88-9.726 22.91-36.535 33.51-59.16 23.91-22.914-9.73-33.344-36.14-23.738-58.76 9.723-22.91 35.961-33.75 58.875-24.03zm70.816-141.9c22.184 11.3 31.16 38.23 19.86 60.41-11.301 22.18-38.782 30.88-60.688 19.72-22.176-11.3-30.738-38.37-19.578-60.27 11.301-22.18 38.227-31.16 60.406-19.86zm78.543-135.46c21.559 12.44 29.117 39.81 16.672 61.36-12.445 21.56-40.344 28.81-61.633 16.52-21.554-12.45-28.695-39.92-16.398-61.21 12.445-21.56 39.805-29.12 61.359-16.67zm89.18-131.18c20.637 13.93 26.269 41.75 12.351 62.38-13.921 20.64-42.257 25.92-62.636 12.18-20.641-13.93-25.84-41.83-12.09-62.21 13.914-20.63 41.734-26.27 62.375-12.35zm99.652-126.05c19.348 15.67 22.532 43.87 6.867 63.22-15.664 19.34-44.355 22.14-63.457 6.67-19.343-15.67-22.093-43.92-6.625-63.02 15.668-19.35 43.872-22.54 63.215-6.87zm3607.329-92.17c1.65 1.47 3.21 3.02 4.68 4.7 16.32 18.79 14.57 47.12-4.22 63.46-18.79 16.33-47.12 14.57-63.45-4.22-16.33-18.79-14.1-47.53 4.45-63.65.12-.11.24-.21.35-.3l58.19.01zm-3487.606 0c2.152 13.15-1.574 27.13-11.418 37.68-16.981 18.21-45.793 18.99-63.773 2.23-11.375-10.62-15.946-25.68-13.676-39.87l88.867-.04zm-575.688 800c8.532-22.79 33.489-34.88 56.637-26.9 13.317 4.58 23.149 14.72 27.703 26.91l-84.34-.01" style="fill:#fff;fill-opacity:1;fill-rule:evenodd;stroke:none" transform="matrix(.13333 0 0 -.13333 0 709.893)"/><path d="M4914.87 1939.95c-23.53 8.11-49.14-4.14-57.24-27.67-8.11-23.55 4.72-49.35 27.98-57.36 23.53-8.1 48.94 4.54 56.95 27.79 8.1 23.53-4.14 49.14-27.69 57.24zm42.95 152.65c-24.04 6.44-48.73-7.56-55.17-31.6-6.45-24.05 8.15-48.9 31.9-55.26 24.04-6.44 48.52 7.94 54.88 31.68 6.44 24.05-7.55 48.74-31.61 55.18zm32.26 157.22c-24.51 4.32-47.89-11.78-52.22-36.29-4.32-24.51 12.39-48 36.6-52.27 24.51-4.32 47.64 12.14 51.91 36.34 4.32 24.52-11.78 47.9-36.29 52.22zM356.293 2125.69c24.352 5.18 39.996 28.86 34.82 53.21-5.175 24.35-29.472 39.86-53.515 34.75-24.352-5.17-39.625-29.1-34.512-53.14 5.176-24.35 28.863-39.99 53.207-34.82zm39.641-151.45c24.046 6.45 38.425 30.91 31.988 54.96-6.445 24.04-31.516 38.26-55.262 31.9-24.047-6.44-38.047-31.13-31.683-54.88 6.441-24.04 30.914-38.43 54.957-31.98zm78.972-123.2a44.46 44.46 0 0 1 .367 30.15c-8.105 23.54-34.105 35.98-57.347 27.98-23.539-8.1-35.785-33.72-27.781-56.96.132-.39.277-.78.418-1.16l84.343-.01zm4498.134 480c7.12-8.31 17.21-14.12 28.78-15.54 15.62-1.91 30.27 4.44 39.67 15.56l-68.45-.02zm-4698.587 0c-.183-2.84-.113-5.68.238-8.53 3.036-24.71 25.27-42.36 49.977-39.32 24.02 2.94 41.367 24.04 39.527 47.91l-89.742-.06" style="fill:#fff;fill-opacity:1;fill-rule:evenodd;stroke:none" transform="matrix(.13333 0 0 -.13333 0 709.893)"/><path d="M5026.26 2557.35c-24.85 2.5-47.05-15.37-49.54-40.23-2.48-24.85 15.99-47.11 40.55-49.57 24.86-2.49 46.77 15.72 49.22 40.27 2.49 24.86-15.37 47.05-40.23 49.53zm-.18 162c-24.89 0-45.11-19.91-45.11-44.81 0-24.89 20.53-45.11 45.11-45.11 24.9 0 44.81 20.22 44.81 44.8 0 24.9-19.91 45.12-44.81 45.12zM295.938 2596.88c24.89 0 45.117 19.91 45.117 44.8 0 24.9-20.535 45.12-45.117 45.12-24.891 0-44.805-20.22-44.805-44.8 0-24.9 19.914-45.12 44.805-45.12zm10.777-161.91c24.855 2.49 43.066 24.4 40.574 49.26-2.488 24.86-25.019 43.01-49.57 40.55-24.86-2.49-42.723-24.68-40.262-49.23 2.484-24.86 24.395-43.07 49.258-40.58zm4734.775-103.93a44.812 44.812 0 0 1 10.26 23.47c3.04 24.71-14.27 47.21-38.98 50.25-24.7 3.03-47.21-14.27-50.24-38.98-1.6-13.01 2.61-25.42 10.51-34.69l68.45-.05zm-4677.295 0a44.87 44.87 0 0 1-.207 2.12c-3.031 24.7-25.883 42.28-50.281 39.28-21.812-2.67-37.852-20.52-39.254-41.46l89.742.06zm4618.455 480c9.12-13.24 25.01-21.23 41.84-19.55 13.87 1.39 25.57 8.92 32.78 19.57l-74.62-.02zm-4727.224 0c-.137-.91-.246-1.77-.332-2.63-2.492-24.86 15.375-47.05 40.234-49.54 24.86-2.48 47.051 15.38 49.535 40.24.41 4.08.254 8.1-.406 11.97l-89.031-.04" style="fill:#fff;fill-opacity:1;fill-rule:evenodd;stroke:none" transform="matrix(.13333 0 0 -.13333 0 709.893)"/><path d="M4997.97 3033.23c-24.71-3.03-42.35-25.26-39.33-49.97 3.04-24.71 25.89-42.28 50.29-39.28 24.7 3.03 42.01 25.53 39.01 49.93-3.03 24.71-25.26 42.36-49.97 39.32zm-31.23 157.56c-24.35-5.18-39.99-28.86-34.82-53.21 5.18-24.35 29.48-39.86 53.52-34.75 24.35 5.17 39.62 29.1 34.51 53.14-5.17 24.35-28.86 39.99-53.21 34.82zM330.855 3066.51c24.516-4.33 47.891 11.77 52.211 36.29 4.329 24.51-12.386 48-36.597 52.26-24.516 4.33-47.641-12.13-51.906-36.34-4.325-24.51 11.777-47.89 36.292-52.21zm-21.746-157.1c24.758-2.61 46.954 15.09 49.559 39.84 2.602 24.76-15.707 47.02-40.156 49.59-24.758 2.6-46.676-15.43-49.242-39.88-2.606-24.75 15.085-46.95 39.839-49.55zm4748.161-98.37c5.69 8.45 8.57 18.83 7.49 29.67-2.49 24.87-24.41 43.07-49.26 40.59-24.87-2.49-43.07-24.4-40.58-49.26.78-7.81 3.55-14.96 7.73-21.02l74.62.02zm-4712.813 0c-3.344 19.7-19.621 35.58-40.137 37.64-23.988 2.4-45.226-14.46-48.894-37.7l89.031.06zm4550.093 480c.23-1.24.5-2.47.83-3.7 6.45-24.05 31.51-38.27 55.25-31.91 17.5 4.69 29.68 19.04 32.57 35.67l-88.65-.06zm-4558.218 0a45.419 45.419 0 0 1-5.156-12c-6.446-24.04 7.558-48.73 31.601-55.17 24.047-6.45 48.739 7.56 55.184 31.61 3.363 12.55.988 25.33-5.434 35.58l-76.195-.02" style="fill:#fff;fill-opacity:1;fill-rule:evenodd;stroke:none" transform="matrix(.13333 0 0 -.13333 0 709.893)"/><path d="M4876.48 3492.51c-23.53-8.1-36.18-33.52-28.07-57.06 8.1-23.53 34.11-35.98 57.35-27.97 23.54 8.1 35.78 33.71 27.78 56.96-8.1 23.54-33.52 36.17-57.06 28.07zm-60.7 146.36c-22.91-9.72-33.75-35.95-24.02-58.87 9.72-22.91 36.53-33.51 59.16-23.9 22.91 9.72 33.34 36.13 23.74 58.75-9.73 22.92-35.96 33.75-58.88 24.02zm-4294.745 30.59c22.371-10.9 49.281-1.88 60.195 20.5 10.915 22.38 1.321 49.56-20.777 60.33-22.371 10.92-49.137 1.46-59.91-20.63-10.914-22.37-1.883-49.28 20.492-60.2zm-62.754-145.5c23.082-9.32 49.297 1.56 58.621 24.64 9.328 23.09-2.14 49.54-24.933 58.75-23.082 9.32-49.117-1.98-58.332-24.77-9.321-23.08 1.566-49.29 24.644-58.62zm-52.883-149.46c23.68-7.69 49.067 5 56.758 28.67 7.692 23.68-5.59 49.26-28.968 56.86-23.676 7.69-48.864-5.39-56.458-28.77-7.699-23.68 4.993-49.07 28.668-56.76zm4577.802-83.46c1.08 6.28.85 12.81-.88 19.27-6.44 24.05-30.91 38.43-54.96 31.99-22.81-6.12-36.93-28.46-32.81-51.28l88.65.02zm-4570.673 0c-5.871 9.39-15.129 16.65-26.472 19.69-19.672 5.27-39.629-3.39-49.723-19.73l76.195.04zm4319.773 480c-12.19-13.4-15.56-33.37-6.83-50.49 11.3-22.18 38.78-30.88 60.68-19.72 22.18 11.3 30.74 38.36 19.58 60.27-1.88 3.69-4.2 7.02-6.85 9.95l-66.58-.01" style="fill:#fff;fill-opacity:1;fill-rule:evenodd;stroke:none" transform="matrix(.13333 0 0 -.13333 0 709.893)"/><path d="M4666.94 3916.62c-21.55-12.44-29.11-39.8-16.67-61.36 12.45-21.56 40.36-28.81 61.64-16.51 21.56 12.44 28.7 39.91 16.4 61.21-12.45 21.56-39.8 29.11-61.37 16.66zm-88.78 131.31c-20.64-13.92-26.27-41.74-12.35-62.38s42.26-25.92 62.64-12.17c20.63 13.92 25.83 41.82 12.09 62.2-13.92 20.64-41.74 26.27-62.38 12.35zm-99.43 126.25c-19.35-15.67-22.53-43.88-6.86-63.22 15.66-19.35 44.35-22.15 63.45-6.68 19.35 15.67 22.1 43.92 6.63 63.03-15.67 19.35-43.87 22.53-63.22 6.87zm-105.58 118.28c-18.2-16.98-19.41-45.33-2.44-63.54 16.99-18.21 45.79-18.99 63.77-2.23 18.21 16.98 18.98 45.35 2.22 63.33-16.98 18.21-45.34 19.42-63.55 2.44zm-3402.158 22.97c17.602-17.6 45.978-17.83 63.588-.22 17.6 17.6 17.38 46.42 0 63.81-17.61 17.6-45.986 17.38-63.369 0-17.602-17.61-17.82-45.98-.219-63.59zm-106.988-117.06c18.785-16.34 47.113-14.57 63.445 4.21 16.336 18.79 14.106 47.53-4.453 63.65-18.781 16.33-47.082 14.14-63.211-4.42-16.328-18.78-14.57-47.12 4.219-63.44zm-98.977-123.73c19.883-14.98 48.02-11.25 63 8.63 14.981 19.89 10.75 48.4-8.879 63.19-19.878 14.98-47.957 10.81-62.753-8.82-14.977-19.88-11.25-48.01 8.632-63zm-90.062-128.02c20.637-13.91 48.543-8.72 62.461 11.92 13.922 20.64 8.203 48.89-12.176 62.64-20.637 13.92-48.457 8.28-62.203-12.1-13.922-20.63-8.723-48.53 11.918-62.46zm-81.551-136.01c21.559-12.45 49.031-5.32 61.481 16.24 12.445 21.56 4.773 49.34-16.516 61.63-21.559 12.45-48.922 4.89-61.211-16.4-12.441-21.56-5.313-49.03 16.246-61.47zm4205.466-39.57c-13.28 14.66-35.07 19.34-53.56 9.91a45.338 45.338 0 0 1-13.02-9.91h66.58zm-521.69 640a46.107 46.107 0 0 1-13.2-9.2c-17.59-17.6-17.82-45.98-.21-63.59 17.6-17.59 46.43-17.38 63.81 0 17.6 17.61 17.38 45.99 0 63.37a45.348 45.348 0 0 1-13.62 9.39l-36.78.03" style="fill:#fff;fill-opacity:1;fill-rule:evenodd;stroke:none" transform="matrix(.13333 0 0 -.13333 0 709.893)"/><path d="M4141.7 4505.89c-16.01-19.07-13.75-47.36 5.32-63.36 19.06-16.01 47.77-13.28 63.57 5.56 15.99 19.07 13.3 47.32-5.53 63.12-19.06 16-47.36 13.75-63.36-5.32zm-127.06 95c-14.63-20.13-10.41-48.2 9.73-62.84 20.14-14.63 48.57-9.9 63.02 9.99 14.63 20.14 9.97 48.14-9.91 62.59-20.15 14.62-48.21 10.41-62.84-9.74zm-2808.71-75.78c15.33-19.62 43.47-23.3 63.09-7.98 19.62 15.33 22.91 43.96 7.78 63.34-15.33 19.62-43.53 22.86-62.9 7.73-19.61-15.33-23.29-43.48-7.97-63.09zm-119.42-98.04c16-19.07 44.26-21.76 63.33-5.75 19.07 16 21.36 44.73 5.56 63.56-16 19.07-44.3 21.32-63.12 5.52-19.08-16-21.77-44.26-5.77-63.33zm3227.46-16.03c-11.69 5.2-25.13 5.21-36.79-.06l36.79.06zm-437.58 240c2.89-10.32 9.49-19.65 19.35-25.81 21.12-13.19 49.14-6.49 62.18 14.36 2.27 3.63 3.96 7.46 5.08 11.38l-86.61.07zm-2549.38 0c-1.89-10.89.27-22.54 6.99-32.51 13.92-20.64 41.74-26.27 62.38-12.35 15.07 10.16 21.95 28.02 19.22 44.84l-88.59.02M3743.29 4764.55c-11.68-21.98-3.59-49.19 18.39-60.87 21.97-11.69 49.47-3.05 61.02 18.65 11.68 21.98 3.18 49.06-18.53 60.6-21.98 11.69-49.19 3.6-60.88-18.38zm-141.25 67.59c-10.52-22.56-1.01-49.31 21.54-59.84 22.56-10.51 49.57-.45 59.96 21.83 10.52 22.56.61 49.16-21.66 59.55-22.57 10.52-49.32 1.02-59.84-21.54zm-147.54 58.04c-8.91-23.23 2.42-49.26 25.67-58.18 23.24-8.92 49.48 3 58.29 25.96 8.92 23.23-2.83 49.07-25.77 57.89-23.25 8.92-49.26-2.43-58.19-25.67zm-151.13 48.02c-7.28-23.81 5.85-48.97 29.66-56.25 23.81-7.28 49.15 6.45 56.34 29.96 7.27 23.8-6.24 48.76-29.75 55.95-23.81 7.28-48.98-5.86-56.25-29.66zm-156.18 37.45c-5.18-24.35 10.1-48.27 34.44-53.45 24.36-5.17 48.41 10.71 53.52 34.75 5.17 24.35-10.47 48.04-34.52 53.15-24.34 5.18-48.27-10.1-53.44-34.45zm-154.23 27.39c-3.89-24.59 12.62-47.68 37.21-51.58 24.58-3.89 47.77 13.23 51.62 37.51 3.88 24.58-12.97 47.42-37.26 51.26-24.58 3.9-47.67-12.6-51.57-37.19zm-157.53 16.74c-2.17-24.79 15.91-46.68 40.7-48.85 24.81-2.17 46.75 16.53 48.89 41.02 2.17 24.8-16.25 46.4-40.73 48.54-24.8 2.17-46.68-15.91-48.86-40.71zm-156.39 7.01c-.87-24.87 18.33-45.78 43.22-46.65 24.87-.87 45.8 18.95 46.66 43.52.87 24.88-18.65 45.48-43.22 46.34-24.88.87-45.79-18.32-46.66-43.21zm-158.54-4.37c.87-24.88 21.48-44.39 46.36-43.52 24.88.86 44.37 22.1 43.52 46.66-.87 24.88-21.78 44.07-46.35 43.22-24.87-.87-44.4-21.48-43.53-46.36zm-159.92-15.65c3.03-24.71 25.27-42.36 49.97-39.32 24.71 3.03 42.29 25.88 39.29 50.28-3.03 24.71-25.53 42.01-49.94 39.02-24.7-3.04-42.35-25.27-39.32-49.98zm-152.72-23.18c3.89-24.58 26.73-41.45 51.31-37.55 24.59 3.89 41.36 27.34 37.51 51.62-3.89 24.59-26.98 41.09-51.26 37.25-24.59-3.89-41.46-26.73-37.56-51.32zm-156.34-36.85c6.02-24.15 30.24-38.95 54.39-32.94 24.15 6.02 38.81 30.84 32.86 54.7-6.02 24.15-30.46 38.58-54.31 32.63-24.16-6.02-38.96-30.24-32.94-54.39zm-151.72-45.81c7.69-23.67 32.89-36.76 56.56-29.06 23.67 7.69 36.56 33.47 28.97 56.84-7.7 23.68-33.09 36.37-56.47 28.78-23.67-7.69-36.75-32.89-29.06-56.56zm-146.73-54.54c8.92-23.24 34.76-34.99 58-26.07 23.24 8.93 34.76 35.34 25.95 58.29-8.92 23.25-34.94 34.59-57.89 25.78-23.24-8.92-34.98-34.76-26.06-58zm-144.26-66.06c10.52-22.56 37.11-32.47 59.68-21.95 22.55 10.52 32.21 37.68 21.82 59.96-10.52 22.57-37.27 32.06-59.55 21.67-22.56-10.52-32.47-37.11-21.95-59.68zm-139.43-75.42c12.07-21.78 39.29-29.81 61.06-17.74 21.78 12.06 29.51 39.83 17.59 61.33-12.06 21.77-39.41 29.39-60.91 17.47-21.77-12.07-29.81-39.29-17.74-61.06zM3963 4651.04c5.41 18.74-2.08 39.5-19.34 50.29-21.11 13.19-48.82 7.02-62.01-14.09-7.02-11.25-8.55-24.37-5.26-36.17l86.61-.03zm-2547.4 0a44.421 44.421 0 0 1-7.05 17.78c-13.92 20.63-41.82 25.84-62.2 12.09-10.66-7.2-17.32-18.1-19.34-29.8l88.59-.07" style="fill:#fff;fill-opacity:1;fill-rule:evenodd;stroke:none" transform="matrix(.13333 0 0 -.13333 0 709.893)"/><path d="M2796.03 299.02c-.87 24.878-21.48 44.39-46.35 43.519-24.89-.871-44.38-22.09-43.53-46.66.87-24.879 21.78-44.07 46.35-43.219 24.88.871 44.39 21.481 43.53 46.36zm159.91 15.32c-3.04 24.699-25.27 42.351-49.98 39.308-24.71-3.019-42.28-25.878-39.28-50.277 3.03-24.711 25.54-42 49.93-39.012 24.71 3.032 42.35 25.262 39.33 49.981zm152.8 22.691c-3.9 24.59-26.73 41.449-51.32 37.559-24.58-3.899-41.35-27.34-37.5-51.629 3.89-24.582 26.98-41.082 51.26-37.25 24.59 3.898 41.46 26.73 37.56 51.32zm156.43 36.469c-6.03 24.16-30.25 38.961-54.4 32.941-24.15-6.031-38.81-30.839-32.86-54.703 6.02-24.148 30.46-38.578 54.32-32.636 24.15 6.027 38.96 30.25 32.94 54.398zm151.82 45.539c-7.68 23.68-32.88 36.762-56.55 29.07-23.67-7.699-36.56-33.48-28.98-56.859 7.7-23.672 33.09-36.359 56.47-28.762 23.68 7.692 36.76 32.883 29.06 56.551zm146.83 54.289c-8.93 23.242-34.77 34.992-58 26.07-23.24-8.918-34.77-35.347-25.96-58.296 8.93-23.243 34.94-34.582 57.89-25.774 23.25 8.922 34.98 34.762 26.07 58zm144.4 65.742c-10.51 22.559-37.11 32.469-59.68 21.961-22.55-10.523-32.2-37.679-21.82-59.961 10.53-22.558 37.27-32.062 59.55-21.672 22.56 10.512 32.48 37.122 21.95 59.672zm139.62 75.02c-12.07 21.781-39.3 29.82-61.06 17.75-21.78-12.07-29.51-39.84-17.59-61.34 12.07-21.77 39.4-29.391 60.91-17.461 21.78 12.063 29.81 39.289 17.74 61.051zm135.58 86.051c-13.92 20.629-41.74 26.269-62.38 12.347-20.63-13.918-25.91-42.25-12.17-62.636 13.92-20.641 41.82-25.832 62.2-12.082 20.64 13.91 26.27 41.73 12.35 62.371zm126 89.558c-14.63 20.153-42.62 24.801-62.77 10.16-20.14-14.621-24.42-43.129-9.98-63.007 14.63-20.153 42.71-24.372 62.59-9.922 20.14 14.629 24.79 42.629 10.16 62.769zm121.88 101.379c-16.01 19.07-44.26 21.75-63.33 5.762-19.06-16.012-21.36-44.738-5.56-63.57 16.01-19.071 44.3-21.329 63.13-5.52 19.07 16 21.76 44.25 5.76 63.328zm115.81 111.392c-17.6 17.61-45.99 17.82-63.58.23-17.61-17.598-17.39-46.43 0-63.809 17.59-17.602 45.98-17.383 63.36 0 17.6 17.609 17.83 45.98.22 63.579zm107.21 116.73c-18.79 16.33-47.12 14.57-63.45-4.22-16.33-18.79-14.1-47.53 4.45-63.65 18.78-16.34 47.08-14.13 63.22 4.41 16.32 18.79 14.57 47.12-4.22 63.46zm99.3 123.51c-19.88 14.98-48.01 11.25-62.99-8.64-14.99-19.88-10.76-48.38 8.87-63.18 19.88-14.98 47.96-10.82 62.76 8.82 14.98 19.88 11.25 48.02-8.64 63zm90.28 127.86c-20.64 13.92-48.54 8.72-62.46-11.92-13.92-20.64-8.21-48.89 12.17-62.63 20.64-13.93 48.46-8.29 62.21 12.09 13.92 20.63 8.71 48.54-11.92 62.46zm81.93 135.86c-21.56 12.44-49.03 5.31-61.47-16.25-12.46-21.56-4.78-49.35 16.51-61.63 21.55-12.45 48.92-4.9 61.21 16.39 12.44 21.57 5.3 49.04-16.25 61.49zm72.6 140.9c-22.38 10.9-49.28 1.87-60.19-20.5-10.92-22.38-1.33-49.55 20.77-60.33 22.38-10.91 49.13-1.47 59.92 20.63 10.9 22.37 1.87 49.28-20.5 60.2zm63.19 145.34c-23.08 9.32-49.3-1.57-58.62-24.65-9.33-23.08 2.14-49.52 24.93-58.73 23.09-9.33 49.12 1.96 58.33 24.75 9.33 23.09-1.56 49.3-24.64 58.63zm53.25 147.28c-23.53 8.11-49.14-4.14-57.24-27.67-8.11-23.55 4.72-49.35 27.98-57.36 23.53-8.1 48.94 4.54 56.95 27.79 8.1 23.53-4.14 49.14-27.69 57.24zm42.95 152.65c-24.04 6.44-48.73-7.56-55.17-31.6-6.45-24.05 8.15-48.9 31.9-55.26 24.04-6.44 48.52 7.94 54.88 31.68 6.44 24.05-7.55 48.74-31.61 55.18zm32.26 157.22c-24.51 4.32-47.89-11.78-52.22-36.29-4.32-24.51 12.39-48 36.6-52.27 24.51-4.32 47.64 12.14 51.91 36.34 4.32 24.52-11.78 47.9-36.29 52.22zm22.69 154.94c-24.7 3.03-47.21-14.27-50.24-38.98-3.04-24.7 14.88-47.28 39.29-50.28 24.7-3.04 46.93 14.62 49.93 39.01 3.04 24.71-14.27 47.21-38.98 50.25zm13.49 152.59c-24.85 2.5-47.05-15.37-49.54-40.23-2.48-24.85 15.99-47.11 40.55-49.57 24.86-2.49 46.77 15.72 49.22 40.27 2.49 24.86-15.37 47.05-40.23 49.53zm-.18 162c-24.89 0-45.11-19.91-45.11-44.81 0-24.89 20.53-45.11 45.11-45.11 24.9 0 44.81 20.22 44.81 44.8 0 24.9-19.91 45.12-44.81 45.12zm-10.58 161.95c-24.87-2.49-43.07-24.4-40.58-49.26 2.49-24.86 25.02-43.01 49.57-40.55 24.86 2.49 42.72 24.68 40.27 49.22-2.49 24.87-24.41 43.07-49.26 40.59zm-17.53 151.93c-24.71-3.03-42.35-25.26-39.33-49.97 3.04-24.71 25.89-42.28 50.29-39.28 24.7 3.03 42.01 25.53 39.01 49.93-3.03 24.71-25.26 42.36-49.97 39.32zm-31.23 157.56c-24.35-5.18-39.99-28.86-34.82-53.21 5.18-24.35 29.48-39.86 53.52-34.75 24.35 5.17 39.62 29.1 34.51 53.14-5.17 24.35-28.86 39.99-53.21 34.82zm-39.38 151.51c-24.04-6.45-38.42-30.92-31.98-54.96 6.45-24.05 31.51-38.27 55.25-31.91 24.06 6.45 38.05 31.14 31.69 54.88-6.44 24.05-30.91 38.43-54.96 31.99zm-50.88 150.21c-23.53-8.1-36.18-33.52-28.07-57.06 8.1-23.53 34.11-35.98 57.35-27.97 23.54 8.1 35.78 33.71 27.78 56.96-8.1 23.54-33.52 36.17-57.06 28.07zm-60.7 146.36c-22.91-9.72-33.75-35.95-24.02-58.87 9.72-22.91 36.53-33.51 59.16-23.9 22.91 9.72 33.34 36.13 23.74 58.75-9.73 22.92-35.96 33.75-58.88 24.02zm-70.46 142.08c-22.18-11.3-31.16-38.22-19.85-60.4 11.3-22.18 38.78-30.88 60.68-19.72 22.18 11.3 30.74 38.36 19.58 60.27-11.3 22.17-38.23 31.16-60.41 19.85zm-78.38 135.67c-21.55-12.44-29.11-39.8-16.67-61.36 12.45-21.56 40.36-28.81 61.64-16.51 21.56 12.44 28.7 39.91 16.4 61.21-12.45 21.56-39.8 29.11-61.37 16.66zm-88.78 131.31c-20.64-13.92-26.27-41.74-12.35-62.38s42.26-25.92 62.64-12.17c20.63 13.92 25.83 41.82 12.09 62.2-13.92 20.64-41.74 26.27-62.38 12.35zm-99.43 126.25c-19.35-15.67-22.53-43.88-6.86-63.22 15.66-19.35 44.35-22.15 63.45-6.68 19.35 15.67 22.1 43.92 6.63 63.03-15.67 19.35-43.87 22.53-63.22 6.87zm-105.58 118.28c-18.2-16.98-19.41-45.33-2.44-63.54 16.99-18.21 45.79-18.99 63.77-2.23 18.21 16.98 18.98 45.35 2.22 63.33-16.98 18.21-45.34 19.42-63.55 2.44zm-109.16 109.38c-17.59-17.6-17.82-45.98-.21-63.59 17.6-17.59 46.43-17.38 63.81 0 17.6 17.61 17.38 45.99 0 63.37-17.61 17.61-45.99 17.83-63.6.22zm-122.29 104.05c-16.01-19.07-13.75-47.36 5.32-63.36 19.06-16.01 47.77-13.28 63.57 5.56 15.99 19.07 13.3 47.32-5.53 63.12-19.06 16-47.36 13.75-63.36-5.32zm-127.06 95c-14.63-20.13-10.41-48.2 9.73-62.84 20.14-14.63 48.57-9.9 63.02 9.99 14.63 20.14 9.97 48.14-9.91 62.59-20.15 14.62-48.21 10.41-62.84-9.74zm-132.99 86.35c-13.19-21.11-7.02-48.82 14.09-62.01 21.12-13.19 49.14-6.49 62.18 14.36 13.18 21.11 6.59 48.71-14.26 61.74-21.11 13.19-48.82 7.02-62.01-14.09zm-138.36 77.31c-11.68-21.98-3.59-49.19 18.39-60.87 21.97-11.69 49.47-3.05 61.02 18.65 11.68 21.98 3.18 49.06-18.53 60.6-21.98 11.69-49.19 3.6-60.88-18.38zm-141.25 67.59c-10.52-22.56-1.01-49.31 21.54-59.84 22.56-10.51 49.57-.45 59.96 21.83 10.52 22.56.61 49.16-21.66 59.55-22.57 10.52-49.32 1.02-59.84-21.54zm-147.54 58.04c-8.91-23.23 2.42-49.26 25.67-58.18 23.24-8.92 49.48 3 58.29 25.96 8.92 23.23-2.83 49.07-25.77 57.89-23.25 8.92-49.26-2.43-58.19-25.67zm-151.13 48.02c-7.28-23.81 5.85-48.97 29.66-56.25 23.81-7.28 49.15 6.45 56.34 29.96 7.27 23.8-6.24 48.76-29.75 55.95-23.81 7.28-48.98-5.86-56.25-29.66zm-156.18 37.45c-5.18-24.35 10.1-48.27 34.44-53.45 24.36-5.17 48.41 10.71 53.52 34.75 5.17 24.35-10.47 48.04-34.52 53.15-24.34 5.18-48.27-10.1-53.44-34.45zm-154.23 27.39c-3.89-24.59 12.62-47.68 37.21-51.58 24.58-3.89 47.77 13.23 51.62 37.51 3.88 24.58-12.97 47.42-37.26 51.26-24.58 3.9-47.67-12.6-51.57-37.19zm-157.53 16.74c-2.17-24.79 15.91-46.68 40.7-48.85 24.81-2.17 46.75 16.53 48.89 41.02 2.17 24.8-16.25 46.4-40.73 48.54-24.8 2.17-46.68-15.91-48.86-40.71zm-156.39 7.01c-.87-24.87 18.33-45.78 43.22-46.65 24.87-.87 45.8 18.95 46.66 43.52.87 24.88-18.65 45.48-43.22 46.34-24.88.87-45.79-18.32-46.66-43.21zm-158.54-4.37c.87-24.88 21.48-44.39 46.36-43.52 24.88.86 44.37 22.1 43.52 46.66-.87 24.88-21.78 44.07-46.35 43.22-24.87-.87-44.4-21.48-43.53-46.36zm-159.92-15.65c3.03-24.71 25.27-42.36 49.97-39.32 24.71 3.03 42.29 25.88 39.29 50.28-3.03 24.71-25.53 42.01-49.94 39.02-24.7-3.04-42.35-25.27-39.32-49.98zm-152.72-23.18c3.89-24.58 26.73-41.45 51.31-37.55 24.59 3.89 41.36 27.34 37.51 51.62-3.89 24.59-26.98 41.09-51.26 37.25-24.59-3.89-41.46-26.73-37.56-51.32zm-156.34-36.85c6.02-24.15 30.24-38.95 54.39-32.94 24.15 6.02 38.81 30.84 32.86 54.7-6.02 24.15-30.46 38.58-54.31 32.63-24.16-6.02-38.96-30.24-32.94-54.39zm-151.72-45.81c7.69-23.67 32.89-36.76 56.56-29.06 23.67 7.69 36.56 33.47 28.97 56.84-7.7 23.68-33.09 36.37-56.47 28.78-23.67-7.69-36.75-32.89-29.06-56.56zm-146.73-54.54c8.92-23.24 34.76-34.99 58-26.07 23.24 8.93 34.76 35.34 25.95 58.29-8.92 23.25-34.94 34.59-57.89 25.78-23.24-8.92-34.98-34.76-26.06-58zm-144.26-66.06c10.52-22.56 37.11-32.47 59.68-21.95 22.55 10.52 32.21 37.68 21.82 59.96-10.52 22.57-37.27 32.06-59.55 21.67-22.56-10.52-32.47-37.11-21.95-59.68zm-139.43-75.42c12.07-21.78 39.29-29.81 61.06-17.74 21.78 12.06 29.51 39.83 17.59 61.33-12.06 21.77-39.41 29.39-60.91 17.47-21.77-12.07-29.81-39.29-17.74-61.06zM1334 4618.53c13.92-20.64 41.74-26.27 62.38-12.35s25.92 42.25 12.17 62.64c-13.92 20.63-41.82 25.84-62.2 12.09-20.64-13.93-26.27-41.74-12.35-62.38zm-128.07-93.42c15.33-19.62 43.47-23.3 63.09-7.98 19.62 15.33 22.91 43.96 7.78 63.34-15.33 19.62-43.53 22.86-62.9 7.73-19.61-15.33-23.29-43.48-7.97-63.09zm-119.42-98.04c16-19.07 44.26-21.76 63.33-5.75 19.07 16 21.36 44.73 5.56 63.56-16 19.07-44.3 21.32-63.12 5.52-19.08-16-21.77-44.26-5.77-63.33zm-115.518-111.64c17.602-17.6 45.978-17.83 63.588-.22 17.6 17.6 17.38 46.42 0 63.81-17.61 17.6-45.986 17.38-63.369 0-17.602-17.61-17.82-45.98-.219-63.59zm-106.988-117.06c18.785-16.34 47.113-14.57 63.445 4.21 16.336 18.79 14.106 47.53-4.453 63.65-18.781 16.33-47.082 14.14-63.211-4.42-16.328-18.78-14.57-47.12 4.219-63.44zm-98.977-123.73c19.883-14.98 48.02-11.25 63 8.63 14.981 19.89 10.75 48.4-8.879 63.19-19.878 14.98-47.957 10.81-62.753-8.82-14.977-19.88-11.25-48.01 8.632-63zm-90.062-128.02c20.637-13.91 48.543-8.72 62.461 11.92 13.922 20.64 8.203 48.89-12.176 62.64-20.637 13.92-48.457 8.28-62.203-12.1-13.922-20.63-8.723-48.53 11.918-62.46zm-81.551-136.01c21.559-12.45 49.031-5.32 61.481 16.24 12.445 21.56 4.773 49.34-16.516 61.63-21.559 12.45-48.922 4.89-61.211-16.4-12.441-21.56-5.313-49.03 16.246-61.47zm-72.379-141.15c22.371-10.9 49.281-1.88 60.195 20.5 10.915 22.38 1.321 49.56-20.777 60.33-22.371 10.92-49.137 1.46-59.91-20.63-10.914-22.37-1.883-49.28 20.492-60.2zm-62.754-145.5c23.082-9.32 49.297 1.56 58.621 24.64 9.328 23.09-2.14 49.54-24.933 58.75-23.082 9.32-49.117-1.98-58.332-24.77-9.321-23.08 1.566-49.29 24.644-58.62zm-52.883-149.46c23.68-7.69 49.067 5 56.758 28.67 7.692 23.68-5.59 49.26-28.968 56.86-23.676 7.69-48.864-5.39-56.458-28.77-7.699-23.68 4.993-49.07 28.668-56.76zm-42.621-150.63c24.047-6.45 48.739 7.56 55.184 31.61 6.437 24.03-8.16 48.89-31.906 55.25-24.047 6.44-48.516-7.94-54.879-31.69-6.446-24.04 7.558-48.73 31.601-55.17zm-31.922-157.36c24.516-4.33 47.891 11.77 52.211 36.29 4.329 24.51-12.386 48-36.597 52.26-24.516 4.33-47.641-12.13-51.906-36.34-4.325-24.51 11.777-47.89 36.292-52.21zm-21.746-157.1c24.758-2.61 46.954 15.09 49.559 39.84 2.602 24.76-15.707 47.02-40.156 49.59-24.758 2.6-46.676-15.43-49.242-39.88-2.606-24.75 15.085-46.95 39.839-49.55zm-13.781-150.54c24.86-2.48 47.051 15.38 49.535 40.24 2.492 24.86-15.996 47.11-40.543 49.57-24.855 2.49-46.769-15.72-49.226-40.27-2.492-24.86 15.375-47.05 40.234-49.54zm.61-161.99c24.89 0 45.117 19.91 45.117 44.8 0 24.9-20.535 45.12-45.117 45.12-24.891 0-44.805-20.22-44.805-44.8 0-24.9 19.914-45.12 44.805-45.12zm10.777-161.91c24.855 2.49 43.066 24.4 40.574 49.26-2.488 24.86-25.019 43.01-49.57 40.55-24.86-2.49-42.723-24.68-40.262-49.23 2.484-24.86 24.395-43.07 49.258-40.58zm17.953-151.78c24.707 3.03 42.352 25.26 39.32 49.97-3.031 24.7-25.883 42.28-50.281 39.28-24.707-3.03-42.008-25.53-39.016-49.93 3.036-24.71 25.27-42.36 49.977-39.32zm31.625-157.5c24.352 5.18 39.996 28.86 34.82 53.21-5.175 24.35-29.472 39.86-53.515 34.75-24.352-5.17-39.625-29.1-34.512-53.14 5.176-24.35 28.863-39.99 53.207-34.82zm39.641-151.45c24.046 6.45 38.425 30.91 31.988 54.96-6.445 24.04-31.516 38.26-55.262 31.9-24.047-6.44-38.047-31.13-31.683-54.88 6.441-24.04 30.914-38.43 54.957-31.98zm51.269-150.1c23.535 8.1 36.176 33.52 28.07 57.05-8.105 23.54-34.105 35.98-57.347 27.98-23.539-8.1-35.785-33.72-27.781-56.96 8.101-23.54 33.515-36.17 57.058-28.07zm61.137-146.34c22.914 9.73 33.75 35.96 24.023 58.88-9.726 22.91-36.535 33.51-59.16 23.91-22.914-9.73-33.344-36.14-23.738-58.76 9.723-22.91 35.961-33.75 58.875-24.03zm70.816-141.9c22.184 11.3 31.16 38.23 19.86 60.41-11.301 22.18-38.782 30.88-60.688 19.72-22.176-11.3-30.738-38.37-19.578-60.27 11.301-22.18 38.227-31.16 60.406-19.86zm78.543-135.46c21.559 12.44 29.117 39.81 16.672 61.36-12.445 21.56-40.344 28.81-61.633 16.52-21.554-12.45-28.695-39.92-16.398-61.21 12.445-21.56 39.805-29.12 61.359-16.67zm89.18-131.18c20.637 13.93 26.269 41.75 12.351 62.38-13.921 20.64-42.257 25.92-62.636 12.18-20.641-13.93-25.84-41.83-12.09-62.21 13.914-20.63 41.734-26.27 62.375-12.35zm99.652-126.05c19.348 15.67 22.532 43.87 6.867 63.22-15.664 19.34-44.355 22.14-63.457 6.67-19.343-15.67-22.093-43.92-6.625-63.02 15.668-19.35 43.872-22.54 63.215-6.87zm105.867-118.03c18.207 16.97 19.415 45.33 2.438 63.54-16.981 18.21-45.793 18.99-63.773 2.23-18.204-16.98-18.973-45.35-2.211-63.33 16.976-18.21 45.336-19.43 63.546-2.44zm113.442-110.75c16.98 18.199 16.21 46.582-2 63.55-18.2 16.981-47 15.75-63.76-2.23-16.982-18.199-15.771-46.559 2.21-63.332 18.2-16.969 46.58-16.199 63.55 2.012zm118.55-102.168c16.01 19.066 13.75 47.359-5.32 63.359s-47.77 13.27-63.56-5.562c-16.01-19.071-13.31-47.321 5.52-63.118 19.07-16.011 47.36-13.75 63.36 5.321zm127.28-94.684c14.63 20.141 10.41 48.211-9.73 62.84-20.14 14.633-48.58 9.902-63.02-9.977-14.63-20.14-9.98-48.14 9.91-62.589 20.14-14.641 48.21-10.411 62.84 9.726zm133.21-86.027c13.2 21.117 7.02 48.82-14.09 62.019-21.11 13.188-49.14 6.489-62.17-14.359-13.19-21.109-6.59-48.723 14.26-61.75 21.1-13.191 48.81-7.02 62 14.09zm138.57-76.981c11.68 21.981 3.6 49.192-18.38 60.871-21.98 11.688-49.48 3.047-61.03-18.652-11.68-21.98-3.17-49.059 18.53-60.598 21.98-11.691 49.19-3.601 60.88 18.379zm141.37-67.351c10.53 22.57 1.02 49.312-21.53 59.832-22.57 10.519-49.58.461-59.96-21.821-10.53-22.562-.62-49.16 21.67-59.55 22.56-10.52 49.31-1.02 59.82 21.539zm147.69-57.68c8.92 23.242-2.43 49.262-25.66 58.191-23.25 8.911-49.49-3.011-58.3-25.96-8.92-23.239 2.83-49.079 25.78-57.891 23.24-8.93 49.26 2.422 58.18 25.66zm151.26-47.629c7.28 23.789-5.85 48.961-29.65 56.25-23.81 7.27-49.16-6.461-56.34-29.969-7.28-23.8 6.24-48.75 29.74-55.941 23.81-7.289 48.97 5.852 56.25 29.66zm156.33-37.07c5.18 24.34-10.1 48.269-34.45 53.441-24.34 5.18-48.4-10.703-53.51-34.75-5.17-24.351 10.47-48.031 34.52-53.152 24.35-5.168 48.27 10.101 53.44 34.461zm154.08-27.172c3.9 24.594-12.61 47.672-37.19 51.57-24.59 3.903-47.78-13.218-51.62-37.5-3.9-24.59 12.96-47.418 37.24-51.269 24.59-3.899 47.68 12.621 51.57 37.199zm157.73-16.277c2.17 24.789-15.91 46.679-40.7 48.847-24.8 2.16-46.74-16.527-48.89-41.019-2.16-24.789 16.25-46.399 40.74-48.539 24.79-2.168 46.68 15.898 48.85 40.711zm158.45-5.903c.44 24.891-19.12 45.461-44.01 45.891-24.89.441-45.48-19.75-45.91-44.32-.43-24.891 19.44-45.149 44.02-45.579 24.9-.441 45.47 19.122 45.9 44.008z" style="fill:none;stroke:#fff;stroke-width:7.468;stroke-linecap:round;stroke-linejoin:miter;stroke-miterlimit:3.86371;stroke-dasharray:none;stroke-opacity:1" transform="matrix(.13333 0 0 -.13333 0 709.893)"/><path d="M3262.69 1011.15c-17.5 40-42.5 42.5-35 97.5-26.25 6.25-136.53 9.54-172.5-2.5-111.84-37.4-158.79-67.5-265-67.5-80 0-138.65-8.52-217.5 5-87.5 15-257.21 51.29-300 62.5-46.25 6.25-108.13-25.63-183.75-2.5-15-86.25-37.5-123.752-72.5-153.752-93.75-116.25-125-173.75-76.25-228.75 44.51-50.218 125-32.5 210-45 87.99-12.937 146.62-24.16 205-42.5 73.06-22.957 203.95-52.007 302.5-47.5 100.87 4.614 227.5 45 227.5 45 77.5 27.5 132.5 22.5 205 22.5 48.4 0 157.91 13.981 212.5 42.5 138.75 72.5 0 232.5-40 315.002" style="fill:#0b4071;fill-opacity:1;fill-rule:nonzero;stroke:none" transform="matrix(.13333 0 0 -.13333 0 709.893)"/><path d="M2192.69 1231.15c0 31.25-45 20-65 20-44.38 0-96.25 23.75-115 46.25-23.94 28.71-45 93.75-85 63.75-59.08-44.3 55.14-68.63 53.75-120-1.25-46.25-63.64-101.34-77.5-143.75-21.25-65-82.5-220.002-43.75-240.002 44.23-22.828 148.75 143.752 166.25 172.502 17.06 28.02 41.25 176.25 66.25 175 21.22-1.06 100-26.3 100 26.25" style="fill:#0b4071;fill-opacity:1;fill-rule:nonzero;stroke:none" transform="matrix(.13333 0 0 -.13333 0 709.893)"/><path d="M4185.19 1243.65c102.5 75 152.5 175 230 345 54.84 120.29 138.84 187.13 187.5 297.49 102.5 232.5 72.5 300 90 517.5 6.83 84.94 15.24 198.41 17.5 270.01 2.71 85.97 2.5 187.5-15 270-36.62 172.61-69.7 196-107.5 322.5-34.5 115.46-25 247.5-117.5 407.5-118.74 205.39-177.5 192.5-222.5 267.5-46.5 77.49-96.44 173.94-160 237.5-82.5 82.5-233.48 150.63-317.5 205-85 55-189.01 153.63-335 212.5-155 62.5-297.5 57.5-445 87.5-130.1 26.46-192.72 51.64-347.5 60-185 10-380-60-475-85-102.5-37.5-242.5-27.5-382.5-120-70.52-46.6-110.33-65.47-190-130-46.33-37.53-194.94-125.14-250-167.5-130-100-161.43-146.01-220-212.5-92.5-105-101.94-171.43-147.502-230-27.434-35.27-86.157-117.45-150-242.5-43.43-85.06-103.352-166.83-140-272.5-46.958-135.4-67.5-285.03-67.5-422.5 0-100-25-170-25-270 0-135.02 29.8-272.16 65-372.5 21.152-60.29 18.089-160.29 42.5-222.5 30.496-77.72 94.359-195.25 117.5-295 20-85 182.502-225 207.502-272.5 22.5-87.5 70-160 135-215 80.56-68.17 157.53-127.35 207.5-175 110.57-105.451 190.21-178.681 305-197.502 152.5-25 142.07 113.661 172.5 226.252 12.5 46.25 26.25 60 58.75 110-57.5 55-173.5 198.82-266.25 241.25-82.44 37.71-99.41 83.38-170 177.5-45.84 61.55-101.36 138.91-142.5 212.5-53.43 95.56-121.65 187.41-147.5 257.49-33.51 90.82-15.87 93.34-35 222.51-10 67.5-60 207.5-60 330 0 85 5 140 5 225 0 150.65 22.5 250 60 332.5 50.2 110.44 130 227.5 192.5 360 51.98 110.19 130 132.5 232.5 307.5 36.44 62.23 147.07 98.15 230 155 57.39 39.34 150.65 118.05 212.5 147.5 60.75 28.93 99.84 39.93 167.5 65 55.62 20.61 105 50 205 64.99 41.99 6.31 80.99 2.29 125 2.51 46.82.23 98.97 7.5 175 7.5 216.67 0 402.5-40 530-87.5 64.43-24 109.42-67.59 177.5-102.5 97.5-50 282.5-115 412.5-255 76.7-82.6 134.93-249.14 210-345 43.54-56.18 92.5-105 112.5-192.5 19.59-85.69 21.03-169.32 45-255 26.91-96.21 87.5-178 87.5-275 0-157.5-5-130-5-287.51 0-194.81-45.48-348.34-125-487.5-50-87.49-59.77-144.47-100-210-41.3-67.26-95.47-125.6-155-174.99-59.86-49.67-205-167.5-290-275-54.27-68.64-88.75-107.5-180-130 42.5-36.25 42.11-33.15 46.25-66.25 17.5-140 35-247.502 68.75-268.752 38.89-24.488 80.22-38.98 172.5-25 82.5 12.5 150 75 247.5 215.002 60.89 87.45 152.71 116.13 240 180" style="fill:#0b4071;fill-opacity:1;fill-rule:nonzero;stroke:none" transform="matrix(.13333 0 0 -.13333 0 709.893)"/><path d="M3397.69 1362.4c-26.19 28.8-86.25-73.75-118.75-86.25-19.56-7.53-150.63 4.97-152.5-25-3.75-60 71.31-24.72 115-35 21.25-5 26.25-23.75 21.25-55-2.6-16.24-1.41-29.92 0-45 3.12-33.43 40-87.5 67.5-131.252 22.4-35.64 49.83-89.257 70-126.25 15-27.5 65-12.5 52.5 32.5-12.5 57.5-15 105.321-18.75 137.502-3.13 26.57-15 82.82-15 93.44 0 63.44-90 71.88-90 135.31 0 33.75 106.25 63.75 68.75 105" style="fill:#0b4071;fill-opacity:1;fill-rule:nonzero;stroke:none" transform="matrix(.13333 0 0 -.13333 0 709.893)"/><path d="M3145.19 1183.65c0-16.25 2.5-26.25 5-36.25 53.75 6.25 82.5-18.75 80 26.25-.92 16.64-73.13 8.13-85 10M3430.19 1308.65c11.25-15 18.75-21.25 31.25-41.25-33.75-12.5-78.75-47.5-93.75-23.75-6.16 9.74 35.62 36.88 62.5 65M2185.19 1163.65c-10 2.5-9.69 1.25-20 1.25-20.63 0-41.88 6.25-62.5 6.25-7.5 0-7.69-22.99-6.25-28.75 3.75-15 27.5-15 85-7.5 6.56 9.07 3.75 17.19 3.75 28.75M1858.94 1272.4c11.25-13.75 43.12-54.37 63.75-52.5 3.42.31 21.25 16.57 20 23.75-2.9 16.62-53.13 41.25-64.38 58.75-3.75-7.18-13.12-20-19.37-30" style="fill:#0b4071;fill-opacity:1;fill-rule:nonzero;stroke:none" transform="matrix(.13333 0 0 -.13333 0 709.893)"/><path d="m2195.97 765.34 67.38-15.551 1.24 5.41c-8.25 4.09-9.01 6.461-7.19 14.36l42.35 183.429c1.82 7.903 4.06 10.012 12.76 9.762l1.25 5.398-47.63 11.723-49.55-27.531-2.05-10.039 5.41-1.25 27.94 1.82-37.48-162.461c-1.83-7.898-4.38-9.5-13.18-9.66l-1.25-5.41M2096.31 910.539c-4.84-16.848 4.71-34.059 21.79-38.961 17.07-4.887 34.06 4.723 38.89 21.563 4.83 16.839-4.42 34.218-21.5 39.129-17.07 4.89-34.36-4.891-39.18-21.731" style="fill:#fff;fill-opacity:1;fill-rule:nonzero;stroke:none" transform="matrix(.13333 0 0 -.13333 0 709.893)"/><path d="M2459.43 911.379c35.85-4.41 49.94-13.738 47.53-33.328-2.41-19.59-18.33-25.262-54.18-20.852-35.84 4.391-49.92 13.742-47.52 33.332 2.41 19.59 18.33 25.25 54.17 20.848zm-11.26-88.309c39.6-4.871 58.17-18.992 55.36-41.91-2.82-22.93-24.26-32.14-63.86-27.281-39.59 4.859-58.17 18.992-55.35 41.91 2.81 22.93 24.25 32.141 63.85 27.281zm58.68 9.289c24.58 3.75 42.83 14.629 46.06 40.891 6.19 50.43-52.39 66.09-91.15 70.84-40.01 4.918-96.05 3.328-102.39-48.352-2.98-24.168 14.3-41.949 35.83-49.238l-.1-.832c-31.45-4.598-53.04-15.066-57.29-49.656-5.94-48.352 50.57-70.524 93.5-75.793 40.85-5.008 110.9-3.039 117.86 53.64 3.89 31.68-14.33 48.719-42.37 58.082l.1.84-.05-.422M2727.15 821.289c31.49.551 53.59-14.18 54-37.687.41-23.524-21.16-39.012-52.64-39.571-31.5-.543-53.6 14.188-54.01 37.699-.41 23.52 21.16 39.008 52.65 39.559zm96.59 96.602c-1.23-1.282-4.59-1.762-7.95-1.813-4.62-.078-11.83 4.41-24.51 9.223-12.27 4.84-30.4 9.14-56.44 8.687-67.59-1.187-116.69-51.609-115.51-119.199 1.15-65.918 42.2-108.039 108.96-106.871 45.34.793 101.57 27.801 100.66 80.293-.8 45.348-43.62 68.539-84.77 67.82-29.8-.523-51.5-8.461-77.3-22.769.93 43.269 26.16 65.558 68.57 66.289 13.43.238 47.95-4.199 59.58-20.801 2.14-2.48 2.61-5.41 3.5-7.91l5.06-1.59 23.56 45.762-3.41 2.879M2979.5 926.199c35.57 6.27 51.77 1.449 55.2-17.988 3.43-19.43-10.15-29.5-45.72-35.77-35.56-6.281-51.76-1.453-55.19 17.977-3.42 19.434 10.16 29.5 45.71 35.781zm15.05-87.738c39.29 6.918 61.18-1.152 65.19-23.902 4.01-22.739-13.8-37.821-53.09-44.75-39.29-6.93-61.17 1.152-65.19 23.89-4.01 22.75 13.8 37.821 53.09 44.762zm53.4 26.039c22.4 10.77 36.69 26.512 32.09 52.559-8.82 50.043-69.41 47.882-107.87 41.109-39.71-7.008-92.83-24.898-83.79-76.188 4.23-23.98 25.95-35.921 48.67-36.609l.14-.832c-28.72-13.59-46.32-29.91-40.27-64.238 8.46-47.961 68.98-52.641 111.58-45.133 40.52 7.152 106.94 29.512 97.02 85.762-5.54 31.422-27.94 42.398-57.5 43.148l-.15.832.08-.41" style="fill:#fff;fill-opacity:1;fill-rule:evenodd;stroke:none" transform="matrix(.13333 0 0 -.13333 0 709.893)"/><path d="M3156.13 884.301c4.83-16.852 22.04-26.391 39.12-21.5 17.07 4.91 26.39 22.051 21.56 38.898-4.83 16.852-21.89 26.68-38.96 21.789-17.07-4.886-26.55-22.347-21.72-39.187M3949.3 3833.07l5.98 4.35c-3.39 4.66-3.56 9.1.43 12l110.45 80.25-32.07-178.34c-1-6.31-2.12-9.67-3.79-10.87-1.99-1.45-4.44-.19-6.13 2.14l-5.99-4.35 39.16-53.89 5.99 4.35c-2.42 3.32-2.6 7.77 1.4 10.67l151.03 109.74c4 2.9 8.17 1.36 10.59-1.97l5.98 4.35-36.49 50.23-6-4.35c4.12-5.65 4.29-10.1.31-13l-105.8-76.86 29.77 167.51c1.27 8.04 2.48 11.97 4.48 13.42 2.33 1.69 4.29 1.09 5.26-.25l5.98 4.36-41.32 56.88-5.99-4.35c2.41-3.32 2.6-7.76-1.4-10.66l-151.04-109.74c-4-2.9-8.17-1.36-10.58 1.97l-5.98-4.35 35.77-49.24M4601.36 2615.42l-.39 7.39c-5.76-.3-10.07 3.6-10.68 15.09l-9.81 187.27-7.39-.39c.19-3.7-2.08-7.52-7.01-7.78l-186.44-9.77c-4.92-.26-7.58 3.31-7.78 7l-7.39-.39 10.03-191.36c.43-8.21-.09-14.01-8.3-14.44l.38-7.39 57.5 3.01-.39 7.4c-6.57-.35-10.98 5.18-11.4 13.39l-7.2 137.17 56.68 2.97 4.22-80.49c.55-10.68-1.57-17.37-13.89-18.02l.39-7.4 64.06 3.36-.39 7.4c-12.31-.65-14.3 5.83-14.86 16.51l-4.22 80.49 50.92 2.67 6.98-133.05c.6-11.51-2.47-15.79-8.22-16.09l.39-7.38 54.21 2.83M3054.1 4348.07l10.99 56.51-7.27 1.41c-1.25-6.46-7.68-9.39-15.76-7.83l-134.02 26.05 31.23 160.67c.94 4.84 5.05 6.56 12.71 5.07l1.42 7.26-69.44 13.5-1.4-7.27c8.48-1.65 11.63-4.78 10.69-9.62l-35.62-183.27c-.94-4.84-5.05-6.55-13.53-4.91l-1.4-7.26 192.14-37.35c8.07-1.57 13.57-3.48 12-11.55l7.26-1.41M1734.55 1068.93c9.28 14.86 4.85 34.04-10.21 43.45-15.06 9.42-34.04 4.86-43.32-10-9.29-14.86-5.19-34.12 9.87-43.53 15.06-9.41 34.37-4.78 43.66 10.08M1491.83 1146.95l-52.73 42.7c-3.84 3.11-6.76 8.65-2.1 14.4l-5.75 4.66-36.23-44.74 5.75-4.66c4.66 5.76 10.69 4.05 14.52.95l141.9-114.91c3.83-3.1 6.75-8.65 2.09-14.4l5.76-4.66 36.22 44.75-5.75 4.65c-4.66-5.75-10.68-4.05-14.51-.94l-52.74 42.7 103 127.19c3.11 3.84 7.53 3.43 10.41 1.1l4.66 5.76-49.22 39.85-4.65-5.75c4.15-3.37 5.47-7.62 2.37-11.45l-103-127.2M1018.12 1623.07l4.24-6.07c4.72 3.3 10.44 2.29 17.04-7.14l107.56-153.61 6.07 4.25c-2.13 3.03-2.23 7.48 1.81 10.31l152.93 107.08c4.05 2.83 8.19 1.21 10.32-1.81l6.06 4.24-109.92 156.98c-4.71 6.73-7.34 11.92-.61 16.64l-4.24 6.06-47.16-33.03 4.24-6.05c5.4 3.77 12.07 1.42 16.78-5.32l78.78-112.51-46.48-32.55-46.23 66.02c-6.14 8.75-7.89 15.56 2.22 22.64l-4.25 6.07-52.55-36.8 4.24-6.07c10.11 7.08 15.23 2.63 21.37-6.13l46.23-66.01-41.78-29.25-76.42 109.14c-6.6 9.43-6.26 14.69-1.55 17.99l-4.24 6.06-44.46-31.13M1085.34 1744.94c15.18 8.76 20.27 27.78 11.39 43.16-8.88 15.38-27.77 20.27-42.95 11.51-15.18-8.76-20.6-27.69-11.72-43.08 8.88-15.38 28.11-20.35 43.28-11.59M911.469 1828.08l6.961 2.53c-2.676 7.34-1.621 11.67 3.015 13.36l113.995 41.48c60.67 22.08 64.73 63.83 39.83 132.23-24.89 68.39-54.83 97.75-115.5 75.67l-114-41.49c-4.633-1.69-8.215.94-10.325 6.74l-6.961-2.53 22.508-61.83 6.953 2.53c-2.957 8.12-1.898 12.44 2.739 14.13l115.925 42.2c32.461 11.81 50.521-6.57 64.871-45.98 14.35-39.41 12.31-65.1-20.14-76.91l-115.93-42.19c-4.64-1.69-8.222.94-10.051 5.97l-6.957-2.53 23.067-63.38M1013.83 2225.14l-7.27-1.41c1.1-5.65-.61-9.75-5.46-10.69l-134.014-26.06 104.434 148.07c3.574 5.31 6.007 7.87 8.027 8.27 2.422.47 4.105-1.72 4.652-4.54l7.266 1.41-12.711 65.39-7.266-1.41c.785-4.04-.929-8.14-5.773-9.08l-183.27-35.63c-4.843-.93-7.972 2.23-8.754 6.26l-7.265-1.41 11.844-60.96 7.265 1.42c-1.332 6.86.383 10.96 5.227 11.9l128.371 24.96-97.778-139.24c-4.546-6.75-7.308-9.8-9.73-10.27-2.824-.55-4.352.83-4.668 2.44l-7.266-1.4 13.418-69.04 7.266 1.42c-.781 4.03.934 8.14 5.777 9.08l183.268 35.63c4.84.93 7.97-2.23 8.75-6.26l7.27 1.41-11.61 59.74M965.961 2520.11l-7.363-.77c.734-6.96-1.332-10.9-6.239-11.41l-185.675-19.52c-4.907-.51-7.746 2.91-8.481 9.86l-7.359-.77 7.136-67.89 7.364.77c-.735 6.96 1.332 10.89 6.238 11.41l185.676 19.51c4.91.52 7.746-2.9 8.48-9.85l7.36.77-7.137 67.89M737.156 2718.86l7.395.39c-.391 7.39 1.449 11.6 5.969 11.84 4.515.24 16.789-6.12 31.507-11.94l113.981-45.5-110.18-58.48c-13.207-7.28-22.371-13.12-28.125-13.42-5.336-.27-7.215 4.16-7.41 7.85l-7.387-.39 3.852-73.51 7.39.4c1.989 9.16 4.215 13.8 9.817 16.98l156.695 82.33c12.016 6.4 21.203 11.82 23.664 11.95 2.059.11 4.973-.56 5.949-3.39l7.387.39-3.289 62.82-7.394-.38c-1.532-2.14-2.68-3.85-5.555-4-2.461-.13-9.641 3.2-20.578 7.57l-163.555 64.31c-5.055 2.21-15.926 5.35-16.508 16.43l-7.39-.39 3.765-71.86M760.129 3054.54l-.906-7.35c5.715-.7 9.293-5.28 7.89-16.71l-22.851-186.12 7.347-.9c.454 3.67 3.352 7.04 8.25 6.44l185.301-22.75c4.899-.61 6.903-4.58 6.445-8.25l7.348-.91 23.356 190.21c1.004 8.16 2.519 13.78 10.683 12.77l.903 7.35-57.141 7.02-.902-7.35c6.527-.8 9.91-7.02 8.906-15.18l-16.738-136.33-56.325 6.92 9.821 80c1.3 10.61 4.554 16.84 16.8 15.34l.899 7.35-63.672 7.81-.902-7.35c12.246-1.5 13.074-8.23 11.777-18.84l-9.824-80-50.617 6.21 16.242 132.25c1.398 11.42 5.168 15.11 10.883 14.41l.902 7.34-53.875 6.62" style="fill:#fff;fill-opacity:1;fill-rule:nonzero;stroke:none" transform="matrix(.13333 0 0 -.13333 0 709.893)"/><path d="m834.098 3175.88 18.414 68.71c10.215 38.14 25.902 45.85 42.586 41.38 16.683-4.46 26.418-19 16.195-57.13l-18.41-68.72-58.785 15.76zm-42.235-49.57c2.129 7.95 5.473 10.88 10.239 9.6l180.336-48.32c4.765-1.27 6.191-5.48 4.062-13.43l7.148-1.91 18.412 68.71-7.15 1.92c-2.45-9.14-5.574-11.28-10.34-10l-70.707 18.94 15.219 56.8 73.668 27.09c6.63 2.48 10.45 4.02 13.23 3.27 2.38-.63 3.3-5.14 2.03-9.91l7.15-1.91 19.9 74.28-7.15 1.91c-1.17-4.37-3.06-9.82-9.18-12.01l-89.628-32.61c3.011 36.66-8.903 63.69-43.461 72.95-45.282 12.13-70.907-16.76-84.528-67.61l-36.394-135.84 7.144-1.92" style="fill:#fff;fill-opacity:1;fill-rule:evenodd;stroke:none" transform="matrix(.13333 0 0 -.13333 0 709.893)"/><path d="M1069.5 3333.18c-.9 1.85-1.43 4.42-.5 6.26 5.6 10.99 31.76 17.04 60.51 73.47 20.17 39.57 38.51 106.37-12.05 132.14-87.94 44.8-109.51-131.59-156.038-107.88-16.125 8.22-8.727 38.14 2.289 59.76 14.375 28.21 42.149 52.83 57.429 54.74 2.95.34 6.44-.05 9.92-1.37l3.33 2.92-32.92 48.62-5.165-2.91c.715-2.2.332-4.78-1.539-8.45-6.348-12.45-37.172-27.67-63.125-78.59-30.993-60.83-14.957-104.54 15.461-120.03 89.768-45.74 109.498 131.58 154.198 108.81 22.36-11.39 4.54-56.32-3.67-72.44-11.76-23.08-41.6-53.57-57.43-54.73-2.39-.17-4.41.4-6.61 1.52l-3.7-2.73 34.07-42.75 5.54 3.64M1243.42 3599.49l-6.13 4.14c-3.91-5.8-8.02-7.49-12.12-4.72L1070.4 3703.3c-4.1 2.76-4.07 7.21-.16 13.01l-6.14 4.14-38.17-56.6 6.14-4.14c3.9 5.8 8.02 7.48 12.11 4.73l154.78-104.4c4.09-2.76 4.07-7.21.16-13l6.13-4.14 38.17 56.59M1208.81 3847l42.7 52.73c3.1 3.84 8.64 6.76 14.4 2.1l4.66 5.75-44.74 36.23-4.67-5.75c5.76-4.66 4.05-10.68.94-14.52l-114.9-141.89c-3.1-3.84-8.65-6.76-14.4-2.1l-4.66-5.75 44.75-36.24 4.65 5.76c-5.75 4.66-4.04 10.69-.94 14.52l42.71 52.73 127.19-103c3.83-3.11 3.42-7.53 1.09-10.41l5.75-4.66 39.86 49.22-5.75 4.66c-3.37-4.16-7.62-5.48-11.45-2.38l-127.19 103M1258.64 3961.16c3.85 3.71 14.09 7.31 20.46 6.04l134.23-24.74 50.84-52.65c3.43-3.55 2.48-7.89-1.07-11.33l5.14-5.32 46.74 45.14-5.14 5.32c-4.14-4-8.52-4.8-11.94-1.25l-50.85 52.66-18.56 119.85c-3.66 23.33-2.42 27.96 4.39 34.54l-5.15 5.32-51.76-49.99 5.13-5.32c3.26 3.13 8.57 7.11 11.14 4.45 2.28-2.36 2.5-6.73 3.81-14.61l11.38-81.05c-26.35 6.57-85.8 16.04-90.37 20.78-3.71 3.84-.44 8.15 3.11 11.58l-5.14 5.32-61.53-59.42 5.14-5.32M1520.5 4066.16c11.26-13.42 30.87-15.14 44.48-3.72 13.6 11.42 15.14 30.88 3.87 44.3-11.26 13.42-30.84 15.47-44.45 4.05-13.6-11.41-15.17-31.21-3.9-44.63" style="fill:#fff;fill-opacity:1;fill-rule:nonzero;stroke:none" transform="matrix(.13333 0 0 -.13333 0 709.893)"/><path d="M1693.04 4297.8c35.57 22.23 88.23 24.1 112.85-15.31 24.63-39.4-.14-85.92-35.71-108.14-35.57-22.23-88.23-24.1-112.85 15.31-24.62 39.41.14 85.91 35.71 108.14zm-20.05 32.08c-50.91-31.81-93.9-100.37-54.02-164.19 39.88-63.82 120.35-55.24 171.26-23.43 50.92 31.82 93.9 100.38 54.02 164.2-39.87 63.83-120.34 55.24-171.26 23.42" style="fill:#fff;fill-opacity:1;fill-rule:evenodd;stroke:none" transform="matrix(.13333 0 0 -.13333 0 709.893)"/><path d="M2125.65 4415.17c4.82-16.84 22.05-26.39 39.12-21.49 17.07 4.89 26.39 22.04 21.56 38.89-4.83 16.84-21.89 26.68-38.96 21.79-17.07-4.9-26.55-22.35-21.72-39.19M2491 4469.09l-5.24-4.06c.98-1.1 2.08-3.03 2.31-4.66 2.12-15.07-42.25-39.16-76.45-43.96-46.02-6.47-89.24 14.45-95.82 61.28-6.59 46.83 29.2 78.85 75.21 85.32 26.88 3.78 70.77-4.18 74.93-16.05.69-1.98 1.33-3.55 1.56-5.17l4.47-2.29 24.84 53.74-6.8 4.03c-.99-1.8-2.51-5.75-4.96-6.1-2.03-.28-12.96 3.58-30.34 6.12-17.39 2.54-41.34 4.57-68.62.74-68.82-9.68-125.05-55.78-114.92-127.86 10.13-72.08 76.89-100.9 145.71-91.23 52.53 7.38 93.62 45.96 99.73 46.82 1.63.23 2.91 0 4.53.23l2.81 3.71-32.95 39.39" style="fill:#fff;fill-opacity:1;fill-rule:nonzero;stroke:none" transform="matrix(.13333 0 0 -.13333 0 709.893)"/><path d="m2680.4 4564.45 31.85-77.64-73.15 2.55 41.3 75.09zm-67.66-158.11.26 7.4c-4.11.14-7.74 2.33-7.65 4.79.08 2.47 1.89 6.93 4.54 12.19l15.81 28.66 100.29-3.5 14.55-30.96c2.3-4.6 3-8.33 2.92-10.8-.12-3.28-4.7-4.77-6.75-4.7l-.26-7.4 72.33-2.53.26 7.4c-6.08 2.69-10.51 5.31-13.19 11.16l-79.65 170.26c-3.45 7.11-5.36 11.29-5.21 15.4.19 5.75 5.18 7.23 8.91 7.92l.26 7.39-69.46 2.43-.26-7.4c4.09-.96 8.95-3.19 8.76-8.53-.14-4.11-4.07-10.56-8.01-17.42l-81.62-157.21c-3.97-7.68-7.91-14.53-14.93-15.11l-.26-7.4 58.36-2.04" style="fill:#fff;fill-opacity:1;fill-rule:evenodd;stroke:none" transform="matrix(.13333 0 0 -.13333 0 709.893)"/><path d="m3157.86 4326.31 1.93 7.15c-6.76 1.81-9.7 5.15-8.42 9.92l48.32 180.33c1.28 4.77 5.49 6.19 12.24 4.39l1.92 7.15-65.94 17.67-1.91-7.16c6.74-1.8 9.68-5.14 8.4-9.91l-48.32-180.33c-1.27-4.78-5.48-6.2-12.23-4.39l-1.93-7.15 65.94-17.67M3494.49 4436.93l-6.81 2.9c-2.25-5.3-7.64-7.48-18.24-2.98l-175.64 74.55-2.89-6.81c6.43-2.73 8.88-6.45 6.95-11l-72.95-171.85c-1.93-4.54-6.3-5.36-12.73-2.63l-2.89-6.81 64.34-27.32 2.89 6.81c-6.43 2.74-10.39 7.09-8.45 11.64l31.17 73.43 74.19-31.49c9.83-4.18 14.93-9.01 10.11-20.37l6.81-2.9 23.15 54.51-6.82 2.89c-2.89-6.81-9.59-5.75-19.43-1.58l-74.19 31.49 19.92 46.95 122.65-52.07c10.59-4.49 13.09-9.13 10.83-14.43l6.82-2.89 21.21 49.96" style="fill:#fff;fill-opacity:1;fill-rule:nonzero;stroke:none" transform="matrix(.13333 0 0 -.13333 0 709.893)"/><path d="m4547.49 2474.24-4.96-70.98c-2.75-39.37-16.69-49.94-33.92-48.74-17.22 1.2-29.55 13.62-26.79 52.99l4.96 70.97 60.71-4.24zm32 56.71c-.57-8.2-3.29-11.73-8.22-11.39l-186.24 13.03c-4.92.34-7.12 4.21-6.55 12.41l-7.39.52-4.96-70.97 7.39-.52c.66 9.44 3.32 12.14 8.24 11.79l73.03-5.1-4.11-58.67-67.15-40.64c-6.03-3.7-9.49-5.93-12.36-5.73-2.46.17-4.22 4.42-3.88 9.34l-7.39.52-5.36-76.72 7.38-.51c.33 4.51 1.14 10.23 6.72 13.54l81.76 49.11c4.04-36.55 20.9-60.82 56.58-63.31 46.77-3.27 66.41 29.98 70.08 82.49l9.82 140.29-7.39.52" style="fill:#fff;fill-opacity:1;fill-rule:evenodd;stroke:none" transform="matrix(.13333 0 0 -.13333 0 709.893)"/><path d="m3981.98 1219.75 5.42 5.05c-3.92 4.21-3.73 10.03 4.7 17.88l137.14 127.88-5.05 5.42c-2.71-2.53-7.1-3.24-10.46.36l-127.32 136.54c-3.37 3.61-2.35 7.94.36 10.46l-5.05 5.42-140.15-130.69c-6.01-5.62-10.79-8.94-16.39-2.92l-5.41-5.05 39.25-42.11 5.41 5.05c-4.48 4.81-3.07 11.75 2.94 17.35l100.45 93.67 38.7-41.5-58.94-54.96c-7.82-7.3-14.32-9.98-22.73-.96l-5.41-5.05 43.75-46.91 5.41 5.05c-8.41 9.02-4.72 14.71 3.1 22l58.94 54.97 34.78-37.29-97.44-90.87c-8.42-7.85-13.67-8.26-17.6-4.04l-5.41-5.05 37.01-39.7M3920.63 1192.67c-4.26-3.23-14.87-5.55-21.04-3.51l-130.21 40.91-44.05 58.46c-2.97 3.94-1.49 8.14 2.44 11.11l-4.45 5.91-51.89-39.1 4.46-5.91c4.6 3.46 9.03 3.72 12-.23l44.05-58.45 3.82-121.22c.79-23.61-1-28.05-8.56-33.74l4.46-5.91 57.47 43.31-4.45 5.91c-3.62-2.73-9.37-6.03-11.59-3.07-1.99 2.63-1.66 6.98-2.02 14.96l-1.41 81.84c25.35-9.74 83.21-26.38 87.17-31.63 3.21-4.28-.56-8.15-4.51-11.12l4.47-5.92 68.31 51.48-4.47 5.92M3631.37 1110.27c-10.3 14.17-29.75 17.25-44.11 6.81-14.38-10.44-17.26-29.74-6.96-43.92 10.3-14.17 29.69-17.59 44.06-7.15 14.37 10.44 17.3 30.08 7.01 44.26M1380.67 1314.76l-51.95-46.78c-3.67-3.3-7.97-2.2-10.45.55l-5.5-4.95 41.55-46.15 5.5 4.95c-2.75 3.06-3.39 7.47.27 10.77l138.74 124.92c3.67 3.3 7.98 2.2 10.73-.85l5.5 4.95-41.54 46.14-5.51-4.95c2.48-2.75 3.12-7.16-.55-10.46l-57.45-51.73-88.6 98.41 57.45 51.73c3.67 3.3 7.98 2.2 11.56-1.78l5.5 4.96-42.38 47.06-5.5-4.95c2.48-2.75 3.12-7.16-.55-10.46l-138.74-124.92c-3.67-3.3-7.97-2.2-10.45.55l-5.5-4.95 42.37-47.06 5.5 4.95c-3.58 3.97-4.21 8.37-.55 11.67l51.95 46.79 88.6-98.41M2019.69 4523.65l-6.59-3.36c2.61-5.13.81-10.66-9.45-15.88l-170.01-86.63 3.36-6.59c6.23 3.17 10.65 2.65 12.89-1.74l84.76-166.35c2.23-4.4.06-8.28-6.17-11.45l3.36-6.6 62.29 31.74-3.36 6.6c-6.23-3.18-12.11-3.41-14.35.99l-36.22 71.08 71.81 36.59c9.53 4.86 16.51 5.65 22.11-5.34l6.6 3.36-26.89 52.76-6.59-3.37c3.36-6.59-1.76-11.04-11.28-15.89l-71.82-36.6-23.15 45.44 118.72 60.48c10.26 5.23 15.41 4.17 18.03-.96l6.6 3.36-24.65 48.36M4368.78 1683.83l3.58 6.47c-5.03 2.8-6.63 8.39-1.05 18.46l90.91 164.01-6.47 3.59c-1.8-3.24-5.75-5.28-10.07-2.89l-163.29 90.52c-4.3 2.38-4.68 6.82-2.88 10.05l-6.47 3.59-92.9-167.6c-3.99-7.2-7.5-11.84-14.7-7.84l-3.58-6.48 50.35-27.91 3.59 6.48c-5.76 3.18-6.56 10.21-2.58 17.41l66.58 120.13 49.64-27.52-39.07-70.49c-5.18-9.36-10.54-13.92-21.32-7.93l-3.59-6.47 56.11-31.11 3.59 6.48c-10.79 5.98-9.05 12.53-3.86 21.88l39.07 70.5 44.6-24.73-64.59-116.53c-5.59-10.07-10.45-12.07-15.49-9.28l-3.59-6.47 47.48-26.32M4013.86 1576.55l47.16-33.01 4.24 6.06c-5.39 3.77-5.46 10.85-.74 17.58l78.31 111.84 134.06-93.87c4.05-2.83 3.95-7.28-.53-13.68l6.06-4.25 40.57 57.94-6.07 4.25c-4.95-7.07-9.09-8.7-13.13-5.86l-152.94 107.08c-4.03 2.83-3.94 7.27 1.02 14.35l-6.07 4.24-112.26-160.33c-4.72-6.74-8.71-10.99-15.43-6.27l-4.25-6.07M4423.15 2151.21l-94.75-50.3c-5.24-2.59-8.51-3.95-10.11-3.57-2 .46-2.34 2.65-1.6 5.85l-7.22 1.67-17.11-74.13 7.21-1.67c4.94 8.58 16.06 16.56 25.64 21.52l116.8 61.67 52.05-109.08c2.59-5.25 3.88-10.61 2.68-15.82l7.22-1.66 19.42 84.14-7.21 1.67c-.74-3.22-3-5.65-6.6-4.82-2.8.66-5.39 5.89-10.05 14.99l-46.16 98.02 76.13-17.58c4.81-1.11 6.38-5.27 5.36-9.68l7.21-1.67 14.43 62.51-7.21 1.66c-1.2-5.2-4.44-8.25-9.24-7.15l-181.91 42.01c-4.81 1.1-6.38 5.26-5.18 10.48l-7.22 1.66-14.42-62.5 7.21-1.67c1.02 4.4 4.25 7.46 9.06 6.34l57.3-13.22 18.27-39.67" style="fill:#fff;fill-opacity:1;fill-rule:nonzero;stroke:none" transform="matrix(.13333 0 0 -.13333 0 709.893)"/><path d="M3643.58 4317.04c34.78-23.45 57.89-70.8 31.92-109.32-25.99-38.52-78.55-34.82-113.32-11.37-34.78 23.46-57.9 70.8-31.92 109.33 25.99 38.52 78.55 34.82 113.32 11.36zm21.16 31.37c-49.78 33.56-129.9 44.95-171.98-17.44-42.08-62.38-1.51-132.41 48.26-165.98 49.77-33.57 129.89-44.95 171.98 17.43 42.08 62.39 1.51 132.41-48.26 165.99M3864.09 4167.75l54.5-45.73c30.24-25.37 30.6-42.86 19.5-56.09-11.1-13.23-28.38-15.91-58.62 9.47l-54.5 45.72 39.12 46.63zm-27.08 59.22c6.31-5.29 7.56-9.56 4.39-13.34l-120-143.02c-3.18-3.77-7.6-3.29-13.9 2l-4.76-5.67 54.5-45.73 4.76 5.67c-7.25 6.08-7.87 9.82-4.7 13.6l47.06 56.07 45.04-37.79-6.59-78.22c-.54-7.05-.77-11.16-2.61-13.37-1.6-1.89-6.07-.82-9.85 2.35l-4.75-5.67 58.9-49.42 4.77 5.66c-3.47 2.91-7.62 6.93-7.01 13.4l8.32 95.01c31.95-18.22 61.48-18.85 84.48 8.56 30.14 35.92 14.77 71.34-25.55 105.18l-107.73 90.4-4.77-5.67M4338.74 3491.85l-59.03-59.67-26.23 68.34 85.26-8.67zm-171.98.49 6.91 2.66c-1.47 3.83-.88 8.02 1.42 8.91 2.3.89 7.12.97 13 .58l32.55-3.36 35.96-93.67-22.8-25.5c-3.34-3.92-6.51-6.01-8.81-6.9-3.08-1.18-6.23 2.46-6.96 4.38l-6.92-2.66 25.94-67.56 6.91 2.65c.09 6.64.78 11.75 5.12 16.5l125.6 139.83c5.2 5.96 8.31 9.36 12.15 10.83 5.37 2.07 8.67-1.95 10.77-5.11l6.9 2.65-24.9 64.88-6.9-2.65c.7-4.14.54-9.48-4.45-11.4-3.84-1.47-11.31-.37-19.16.58l-176.6 13.69c-8.62.66-16.47 1.61-19.75 7.84l-6.91-2.65 20.93-54.52" style="fill:#fff;fill-opacity:1;fill-rule:evenodd;stroke:none" transform="matrix(.13333 0 0 -.13333 0 709.893)"/><path d="M4361.34 3276.73c-16.85-4.83-26.39-22.05-21.5-39.12 4.9-17.07 22.05-26.39 38.9-21.55 16.84 4.82 26.68 21.88 21.79 38.95-4.9 17.07-22.35 26.55-39.19 21.72" style="fill:#fff;fill-opacity:1;fill-rule:nonzero;stroke:none" transform="matrix(.13333 0 0 -.13333 0 709.893)"/><path d="m4492.71 3073.73 19.01-76.21c5.98-23.94 6.36-42.5-13.59-47.47-19.96-4.98-28.32 11.59-34.29 35.53l-19.01 76.21 47.88 11.94zm-82.18-20.5 18.99-76.21c8.17-32.72.57-49.87-16.59-54.15-17.15-4.27-31.9 7.31-40.06 40.02l-19 76.21 56.66 14.13zm102.38 85.71-7.19-1.79c1.9-7.58.39-11.77-4.39-12.96l-181.15-45.17c-4.79-1.19-8.08 1.8-9.97 9.38l-7.18-1.79 36.51-146.43c12.54-50.28 43.64-73.04 75.56-65.08 30.32 7.56 40.52 31.29 41.53 57.82l.79.2c12.86-19.26 29.31-34.23 54.45-27.96 41.49 10.34 44.52 59.42 32.17 108.89l-31.13 124.89" style="fill:#fff;fill-opacity:1;fill-rule:evenodd;stroke:none" transform="matrix(.13333 0 0 -.13333 0 709.893)"/><path d="m4123.6 3576.46 6.41 3.7c-3.5 6.06-3.2 10.5 1.06 12.96l161.68 93.35c4.28 2.47 8.27.5 11.76-5.56l6.42 3.71-34.13 59.11-6.42-3.7c3.5-6.05 3.21-10.49-1.06-12.96l-161.68-93.35c-4.28-2.47-8.26-.49-11.76 5.56l-6.41-3.7 34.13-59.12" style="fill:#fff;fill-opacity:1;fill-rule:nonzero;stroke:none" transform="matrix(.13333 0 0 -.13333 0 709.893)"/><path d="m2672.11 1649.62.58-50.97m664.42 2465.97h-340m768.08-2483.47-30.58 55.97m-523.17-248.47 26.25-64.44m-1075.58 135.41-54.42-138.47m-489.33 2345.97-122.5-40m911.25 295.63-485-155.63m750-2585 .58-83.47m-1097.45 452.97 44.37 75.5m2480.58 476.52 24.21-30.25M2387.11 3834.62l-97.5-60m1790.58-1090.97 139.13-125.77m-394.71 756.74 268.08-163.47M3677.5 3688.9l172.11-51.78m-2325-1235-266.92-370.97m266.92 883.47-376.92-378.47m376.92 758.47-341.92-203.47m1411.92 678.47-6.88-23.75m84.38 51.25v-87.5m-241.25 292.5-723.75-132.5m636.25 195.63-353.75-.63m920-62.5 755-132.5m-712.5-35 97.5-60m-117.5 147.5 483.08-150.97m-666.83-1.53 6.83-23.47" style="fill:none;stroke:#fff;stroke-width:28.8;stroke-linecap:round;stroke-linejoin:miter;stroke-miterlimit:3.86369;stroke-dasharray:none;stroke-opacity:1" transform="matrix(.13333 0 0 -.13333 0 709.893)"/><path d="M3737.69 3576.14c-85 22.51-129.99 60.01-195 137.51-60-45-127.15-67.22-219.72-67.22-149.81 0-309.6 49.94-379.51 49.94-107.13 0-222.92-31.58-258.58-113.99-3.57-8.24-10.94-39.36-12.19-56.23-1.88 17.19-5 39.5-12.06 55.92-35.49 82.64-151.45 114.3-258.71 114.3-69.91 0-229.7-49.94-379.51-49.94-92.58 0-219.71 67.23-219.71 67.23s-49.67-54.79-87.51-82.51c-36.98-27.09-102.5-57.49-102.5-57.49V1707.4h917.5s5.63 7.5 15 21.24h262.5c5.75-11.28 12.5-15 12.5-15h917.5v1862.5" style="fill:#fff;fill-opacity:1;fill-rule:nonzero;stroke:none" transform="matrix(.13333 0 0 -.13333 0 709.893)"/><path d="m1802.84 3706.15-.15-1820.01c414.99 0 490 85.01 675 85.01 89.88 0 171.12-75.07 195-140m760.18 24.58c-362.66 10.34-408.5 55.42-550.18 55.42-91.79 0-141.25-58.76-156.25-88.76m816.25 1888.76V1893.64c-417.5-13.74-490 77.51-675 77.51-89.89 0-170-75.07-193.88-140m966.38 1785V1803.64c-539.94 0-646.25 52.5-762.5 52.5-41.11 0-92.5-34.99-105-60m-1065 1825.01v-1827.5c539.93 0 662.5 62.49 760 62.49 41.1 0 92.5-34.99 105-60m-817.5 1867.51V1841.14c509.93 0 547.5 70.01 707.5 70.01 91.79 0 136.25-56.25 151.25-86.25m193.28-92.18c-3.11 6.08-4.4 14.66-7.03 23.43 32.5 30 67.52 39.99 115 39.99 100 0 312.5-42.49 772.5-42.49v867.5m-2030 972.5V1751.14c528.75 0 728.75 43.76 772.5 43.76 46.88 0 95-13.76 122.5-38.75-2.06-9.46-4.21-16.95-7.5-23.76m1045.15 1930.63-.15-1798.74m97.65 985.61-.15 741.26" style="fill:none;stroke:#c57f0a;stroke-width:21.6;stroke-linecap:round;stroke-linejoin:round;stroke-miterlimit:3.86369;stroke-dasharray:none;stroke-opacity:1" transform="matrix(.13333 0 0 -.13333 0 709.893)"/><path d="M3542.11 3712.12c-10-20-15-30-36.62-49.09-51.44-29.49-109.98-44.09-185.02-44.09-149.81 0-309.6 49.93-379.51 49.93-107.13 0-222.92-31.58-258.59-113.98-3.56-8.25-10.93-39.36-12.18-56.24-1.88 17.19-5 39.5-12.06 55.92-35.49 82.64-151.44 114.3-258.72 114.3-69.9 0-229.7-49.93-379.5-49.93-53.86 0-119.42 22.75-164.83 41.78-32.65 13.69-52.07 55.44-52.07 55.44s-49.88-54.78-87.82-82.51c-37.01-27.05-102.5-57.49-102.5-57.49V1709.89h917.5s5.63 7.5 15 21.26h262.5c5.75-11.29 12.5-15 12.5-15h917.5v1862.49c-85 22.51-130.57 55.99-195.58 133.48z" style="fill:none;stroke:#fff;stroke-width:60;stroke-linecap:round;stroke-linejoin:round;stroke-miterlimit:3.86369;stroke-dasharray:none;stroke-opacity:1" transform="matrix(.13333 0 0 -.13333 0 709.893)"/><path d="m2672.84 1831.15-.11 1822.22" style="fill:none;stroke:#c57f0a;stroke-width:21.6;stroke-linecap:round;stroke-linejoin:round;stroke-miterlimit:3.86369;stroke-dasharray:none;stroke-opacity:1" transform="matrix(.13333 0 0 -.13333 0 709.893)"/><path d="M2732.69 3534.15c31.06 53.24 79.6 73.2 180 77.01" style="fill:none;stroke:#c57f0a;stroke-width:21.6;stroke-linecap:round;stroke-linejoin:miter;stroke-miterlimit:3.86369;stroke-dasharray:none;stroke-opacity:1" transform="matrix(.13333 0 0 -.13333 0 709.893)"/><path d="M2967.69 3608.65c36.83-12.08 127.3-38.09 265.14-42.5" style="fill:none;stroke:#c57f0a;stroke-width:18.72;stroke-linecap:round;stroke-linejoin:miter;stroke-miterlimit:3.86369;stroke-dasharray:none;stroke-opacity:1" transform="matrix(.13333 0 0 -.13333 0 709.893)"/><path d="M3287.68 3565.23c44.12-.15 95.32 1.01 155.01 3.92" style="fill:none;stroke:#c57f0a;stroke-width:21.6;stroke-linecap:round;stroke-linejoin:miter;stroke-miterlimit:3.86369;stroke-dasharray:none;stroke-opacity:1" transform="matrix(.13333 0 0 -.13333 0 709.893)"/><path d="M2732.69 3442.15c35 60 92.18 77.72 220.77 77.72 25.06 0 42.33-8.06 73.07-17.48" style="fill:none;stroke:#c57f0a;stroke-width:18.72;stroke-linecap:round;stroke-linejoin:miter;stroke-miterlimit:3.86369;stroke-dasharray:none;stroke-opacity:1" transform="matrix(.13333 0 0 -.13333 0 709.893)"/><path d="M2732.69 3244.15c35 60 92.18 77.72 220.77 77.72 23.54 0 40.21-7.12 67.63-15.79m376.59 67.64c14.44.53 29.44 1.17 45.01 1.93m-482.5 38c67.5-5 70-41.47 382.54-41.47m-610.04-31.53c32.06 54.96 82.73 74.45 189.85 77.33m440.06 56.14c24.85.64 51.49 1.63 80.09 3.03m-359.58 11.35c44.59-8.38 109.04-15.18 209.59-15.29" style="fill:none;stroke:#c57f0a;stroke-width:21.6;stroke-linecap:round;stroke-linejoin:miter;stroke-miterlimit:3.86369;stroke-dasharray:none;stroke-opacity:1" transform="matrix(.13333 0 0 -.13333 0 709.893)"/><path d="M2732.69 3150.15c18.19 31.18 47.93 49.21 85 61m275.44 77.55c64.44-11 167.5-18.43 349.56-9.55" style="fill:none;stroke:#c57f0a;stroke-width:18.72;stroke-linecap:round;stroke-linejoin:miter;stroke-miterlimit:3.86369;stroke-dasharray:none;stroke-opacity:1" transform="matrix(.13333 0 0 -.13333 0 709.893)"/><path d="M2732.69 3048.15c35 60 152.5 100.5 257.5 68m372.41-33.39c23.42.64 53.41-.91 80.09.39m-300 108c85-7.5 185.32-11.6 300-6m-580 36c10 5 22.5 6.72 70 6.72 37.13 0 82.5-24.22 165-31.72" style="fill:none;stroke:#c57f0a;stroke-width:21.6;stroke-linecap:round;stroke-linejoin:miter;stroke-miterlimit:3.86369;stroke-dasharray:none;stroke-opacity:1" transform="matrix(.13333 0 0 -.13333 0 709.893)"/><path d="M3042.08 3103.88c41.3-11.27 110.61-25.23 270.61-25.23" style="fill:none;stroke:#c57f0a;stroke-width:18.72;stroke-linecap:round;stroke-linejoin:miter;stroke-miterlimit:3.86369;stroke-dasharray:none;stroke-opacity:1" transform="matrix(.13333 0 0 -.13333 0 709.893)"/><path d="M2732.69 2944.15c30.52 52.32 77.92 72.5 174.82 76.8" style="fill:none;stroke:#c57f0a;stroke-width:21.6;stroke-linecap:round;stroke-linejoin:miter;stroke-miterlimit:3.86369;stroke-dasharray:none;stroke-opacity:1" transform="matrix(.13333 0 0 -.13333 0 709.893)"/><path d="M2953.46 3021.87c58.16 0 121.73-46.49 314.25-46.49" style="fill:none;stroke:#c57f0a;stroke-width:18.72;stroke-linecap:round;stroke-linejoin:miter;stroke-miterlimit:3.86369;stroke-dasharray:none;stroke-opacity:1" transform="matrix(.13333 0 0 -.13333 0 709.893)"/><path d="M2732.69 2842.15c35 60 92.18 77.72 220.77 77.72 32.73 0 64.25-12.88 124.95-24.92m239.28 81.2c28.98.6 90.68 1.32 125 3" style="fill:none;stroke:#c57f0a;stroke-width:21.6;stroke-linecap:round;stroke-linejoin:miter;stroke-miterlimit:3.86369;stroke-dasharray:none;stroke-opacity:1" transform="matrix(.13333 0 0 -.13333 0 709.893)"/><path d="M2732.69 2740.15c21.98 37.67 52.7 58.68 104.36 69.09m311.51 74.6c67.14-8.1 159.84-12.74 294.13-6.69" style="fill:none;stroke:#c57f0a;stroke-width:18.72;stroke-linecap:round;stroke-linejoin:miter;stroke-miterlimit:3.86369;stroke-dasharray:none;stroke-opacity:1" transform="matrix(.13333 0 0 -.13333 0 709.893)"/><path d="M2732.11 2644.62c35 60 100 77.72 185 77.72m355.45 56.11c47.54-2.06 33.01-1.33 99.55-1.33m-474.43 39.33c16.94.98 35.46 1.42 55.78 1.42 53.03 0 82.71-24.59 264.25-36.46" style="fill:none;stroke:#c57f0a;stroke-width:21.6;stroke-linecap:round;stroke-linejoin:miter;stroke-miterlimit:3.86369;stroke-dasharray:none;stroke-opacity:1" transform="matrix(.13333 0 0 -.13333 0 709.893)"/><path d="M2987.99 2711.79c33.15-7.07 75.51-16.59 134-24.98" style="fill:none;stroke:#c57f0a;stroke-width:18.72;stroke-linecap:round;stroke-linejoin:miter;stroke-miterlimit:3.86369;stroke-dasharray:none;stroke-opacity:1" transform="matrix(.13333 0 0 -.13333 0 709.893)"/><path d="M2997.11 2493.64c30.18-7.4 92.28-20 145.73-26.82m-410.73-22.67c35 60 85 67 185 67 14.44 0 28.24-2.56 44.59-6.62m-94.21 107.21c16.37 1.47 34.48 2.13 54.62 2.13 59.25 0 136.59-41.47 374.92-54.1m-564.92-23.62c21.44 36.76 48.52 57.65 90.42 68.31m359.75 74.87c64.74-6.84 22.47-7.21 124.83-7.21" style="fill:none;stroke:#c57f0a;stroke-width:21.6;stroke-linecap:round;stroke-linejoin:miter;stroke-miterlimit:3.86369;stroke-dasharray:none;stroke-opacity:1" transform="matrix(.13333 0 0 -.13333 0 709.893)"/><path d="M3192.13 2461.36c63.94-6.09 79.53-9.24 184.4-9.24" style="fill:none;stroke:#c57f0a;stroke-width:18.72;stroke-linecap:round;stroke-linejoin:miter;stroke-miterlimit:3.86369;stroke-dasharray:none;stroke-opacity:1" transform="matrix(.13333 0 0 -.13333 0 709.893)"/><path d="M2947.73 2396.32c51.39 1.26 149.96-24.45 244.24-28.74m-459.28-27.43c35 60 80 61 155 61" style="fill:none;stroke:#c57f0a;stroke-width:19.44;stroke-linecap:round;stroke-linejoin:miter;stroke-miterlimit:3.86369;stroke-dasharray:none;stroke-opacity:1" transform="matrix(.13333 0 0 -.13333 0 709.893)"/><path d="M2307.82 3575.46c-50.13-14.31-112.45-11.81-167.63-11.81m592.5-1541.5c13.4 22.98 28.28 37.02 46.59 45.59m578.41 198.41c28.14-.82 20.47 0 52.5 0" style="fill:none;stroke:#c57f0a;stroke-width:21.6;stroke-linecap:round;stroke-linejoin:miter;stroke-miterlimit:3.86369;stroke-dasharray:none;stroke-opacity:1" transform="matrix(.13333 0 0 -.13333 0 709.893)"/><path d="M2227.87 3479.62c-22.79-2.72-52.66-4.47-80.18-4.47m465 59c-35 60-110 67-190 67-19.93 0-41.9-2.76-65.57-6.71" style="fill:none;stroke:#c57f0a;stroke-width:18.72;stroke-linecap:round;stroke-linejoin:miter;stroke-miterlimit:3.86369;stroke-dasharray:none;stroke-opacity:1" transform="matrix(.13333 0 0 -.13333 0 709.893)"/><path d="M2336.24 3393.57c-48.76-9.73-112.27-20.42-188.55-20.42m465 69c-35 60-105 69-195 69-42.56 0-77.5-17.5-140.24-23.79" style="fill:none;stroke:#c57f0a;stroke-width:21.6;stroke-linecap:round;stroke-linejoin:miter;stroke-miterlimit:3.86369;stroke-dasharray:none;stroke-opacity:1" transform="matrix(.13333 0 0 -.13333 0 709.893)"/><path d="M2537.19 3399.5c-26.6 7.77-57.94 9.65-94.5 9.65-13.08 0-43.38-5.95-57.5-8" style="fill:none;stroke:#c57f0a;stroke-width:18.72;stroke-linecap:round;stroke-linejoin:miter;stroke-miterlimit:3.86369;stroke-dasharray:none;stroke-opacity:1" transform="matrix(.13333 0 0 -.13333 0 709.893)"/><path d="M2612.69 3340.15c-8.08 13.84-17.21 24.97-27.48 33.89" style="fill:none;stroke:#c57f0a;stroke-width:21.6;stroke-linecap:round;stroke-linejoin:miter;stroke-miterlimit:3.86369;stroke-dasharray:none;stroke-opacity:1" transform="matrix(.13333 0 0 -.13333 0 709.893)"/><path d="M2017.71 3280.88c-34.65-.29-72.84-.23-115.02.27" style="fill:none;stroke:#c57f0a;stroke-width:18.72;stroke-linecap:round;stroke-linejoin:miter;stroke-miterlimit:3.86369;stroke-dasharray:none;stroke-opacity:1" transform="matrix(.13333 0 0 -.13333 0 709.893)"/><path d="m2027.7 3085.69-125.01 1.46m710 67c-35 60-100 69-195 69-42.03 0-85.92-15.18-194.64-25.55m389.64 48.55c-11.71 20.07-44.08 47.27-62.5 57.5m-46.92 6.86c-25.14 3.62-53.67 4.64-85.58 4.64-59.08 0-82.58-27.84-344.88-33.46" style="fill:none;stroke:#c57f0a;stroke-width:21.6;stroke-linecap:round;stroke-linejoin:miter;stroke-miterlimit:3.86369;stroke-dasharray:none;stroke-opacity:1" transform="matrix(.13333 0 0 -.13333 0 709.893)"/><path d="M2472.85 3120.27c-70.16 10.88-187.35-29.85-395.01-34.12" style="fill:none;stroke:#c57f0a;stroke-width:18.72;stroke-linecap:round;stroke-linejoin:miter;stroke-miterlimit:3.86369;stroke-dasharray:none;stroke-opacity:1" transform="matrix(.13333 0 0 -.13333 0 709.893)"/><path d="M1985.19 3188.25c-19.09.15-61.58.45-82.5.9m710-137c-12.5 26.5-37.5 56.5-85.23 62.84" style="fill:none;stroke:#c57f0a;stroke-width:21.6;stroke-linecap:round;stroke-linejoin:miter;stroke-miterlimit:3.86369;stroke-dasharray:none;stroke-opacity:1" transform="matrix(.13333 0 0 -.13333 0 709.893)"/><path d="M2052.7 2980c-43.8-.65-93.46-.38-150.01 1.15m269.86 212.38c-40.35-2.7-87.99-4.65-144.88-5.22" style="fill:none;stroke:#c57f0a;stroke-width:18.72;stroke-linecap:round;stroke-linejoin:miter;stroke-miterlimit:3.86369;stroke-dasharray:none;stroke-opacity:1" transform="matrix(.13333 0 0 -.13333 0 709.893)"/><path d="M2172.77 2885.18c-67.11-4.23-154.3-6.89-270.08-6.03m710 67c-35 60-97.5 82.5-195 66.5m-55-4c-48.35-8.4-147.48-23.91-264.99-27.62" style="fill:none;stroke:#c57f0a;stroke-width:21.6;stroke-linecap:round;stroke-linejoin:miter;stroke-miterlimit:3.86369;stroke-dasharray:none;stroke-opacity:1" transform="matrix(.13333 0 0 -.13333 0 709.893)"/><path d="M2481.44 2916.15c-104.89 0-133.85-17.11-268.9-28.11" style="fill:none;stroke:#c57f0a;stroke-width:18.72;stroke-linecap:round;stroke-linejoin:miter;stroke-miterlimit:3.86369;stroke-dasharray:none;stroke-opacity:1" transform="matrix(.13333 0 0 -.13333 0 709.893)"/><path d="M2377.69 2806.15c-53.1-8.74-165-27.39-334.95-27.39m-45.11-.9c-29.3-.46-60.87-.71-94.94-.71m710 67c-7.5 20.75-31.25 58.25-79.28 65.78" style="fill:none;stroke:#c57f0a;stroke-width:21.6;stroke-linecap:round;stroke-linejoin:miter;stroke-miterlimit:3.86369;stroke-dasharray:none;stroke-opacity:1" transform="matrix(.13333 0 0 -.13333 0 709.893)"/><path d="M2612.69 2742.15c-35 60-80 81.5-180 72" style="fill:none;stroke:#c57f0a;stroke-width:18.72;stroke-linecap:round;stroke-linejoin:miter;stroke-miterlimit:3.86369;stroke-dasharray:none;stroke-opacity:1" transform="matrix(.13333 0 0 -.13333 0 709.893)"/><path d="M2106.86 2676.65c-54.36-3.07-121.29-5.03-204.75-5.03" style="fill:none;stroke:#c57f0a;stroke-width:21.6;stroke-linecap:round;stroke-linejoin:miter;stroke-miterlimit:3.86369;stroke-dasharray:none;stroke-opacity:1" transform="matrix(.13333 0 0 -.13333 0 709.893)"/><path d="M2278.36 2695.12c-38.75-10-79.59-11.19-123.75-15" style="fill:none;stroke:#c57f0a;stroke-width:18.72;stroke-linecap:round;stroke-linejoin:miter;stroke-miterlimit:3.86369;stroke-dasharray:none;stroke-opacity:1" transform="matrix(.13333 0 0 -.13333 0 709.893)"/><path d="M1955.2 2561.6c-17.03-.29-34.71-.45-53.09-.45m710 85.47c-35 60-76.25 76-175 76-22.82 0-80.62-11.36-108.75-17.5" style="fill:none;stroke:#c57f0a;stroke-width:21.6;stroke-linecap:round;stroke-linejoin:miter;stroke-miterlimit:3.86369;stroke-dasharray:none;stroke-opacity:1" transform="matrix(.13333 0 0 -.13333 0 709.893)"/><path d="M2247.44 2584.17c-67.83-15.52-131.01-17.65-230.22-21.24" style="fill:none;stroke:#c57f0a;stroke-width:18.72;stroke-linecap:round;stroke-linejoin:miter;stroke-miterlimit:3.86369;stroke-dasharray:none;stroke-opacity:1" transform="matrix(.13333 0 0 -.13333 0 709.893)"/><path d="M2381.53 2499.12c-50.06-9.74-122.62-32.13-263.88-44.45m-45.53-3.45c-48.95-3.14-105.14-5.07-170.01-5.07m710 92c-12.72 21.8-22.57 28.69-37.5 40.5m-37.5 21.25c-32.5 17.5-68.17 15.97-110 15.97-31.97 0-70.24-11.44-135.17-23.86" style="fill:none;stroke:#c57f0a;stroke-width:21.6;stroke-linecap:round;stroke-linejoin:miter;stroke-miterlimit:3.86369;stroke-dasharray:none;stroke-opacity:1" transform="matrix(.13333 0 0 -.13333 0 709.893)"/><path d="M2612.11 2426.14c-35 60-98.75 86.26-190 77.73" style="fill:none;stroke:#c57f0a;stroke-width:18.72;stroke-linecap:round;stroke-linejoin:miter;stroke-miterlimit:3.86369;stroke-dasharray:none;stroke-opacity:1" transform="matrix(.13333 0 0 -.13333 0 709.893)"/><path d="M1942.67 2341.39c-12.97-.16-26.29-.24-39.98-.24" style="fill:none;stroke:#c57f0a;stroke-width:21.6;stroke-linecap:round;stroke-linejoin:miter;stroke-miterlimit:3.86369;stroke-dasharray:none;stroke-opacity:1" transform="matrix(.13333 0 0 -.13333 0 709.893)"/><path d="M2202.49 2357.84c-59.62-7.57-87.37-16.69-209.8-16.69" style="fill:none;stroke:#c57f0a;stroke-width:18.72;stroke-linecap:round;stroke-linejoin:miter;stroke-miterlimit:3.86369;stroke-dasharray:none;stroke-opacity:1" transform="matrix(.13333 0 0 -.13333 0 709.893)"/><path d="M2612.69 2324.15c-35 60-80 71.99-180 71.99-36.56 0-82.75-15.04-169.27-29.39" style="fill:none;stroke:#c57f0a;stroke-width:21.6;stroke-linecap:round;stroke-linejoin:miter;stroke-miterlimit:3.86369;stroke-dasharray:none;stroke-opacity:1" transform="matrix(.13333 0 0 -.13333 0 709.893)"/><path d="M2107.9 2236.15c-26.4-1.61-55.01-2.85-85.74-3.62m222.45-87.91c-17.5-7.5-34.48-8.27-52.26-10.02m624.76-49.98c37.5 12.5 29.31 12.5 50 12.5m-254.42-68.97c-9.52 16.3-20 37.99-55 50.5m55 143.5c-27.19 46.61-76.25 64-124.81 62.82" style="fill:none;stroke:#c57f0a;stroke-width:18.72;stroke-linecap:round;stroke-linejoin:miter;stroke-miterlimit:3.86369;stroke-dasharray:none;stroke-opacity:1" transform="matrix(.13333 0 0 -.13333 0 709.893)"/><path d="M2612.84 2120.15c-35 60-80.15 65.99-155.15 65.99-33.52 0-88.61-18-167.98-34.44m143.13 134.45c-51.15 0-106.19-27.63-280.81-45.57" style="fill:none;stroke:#c57f0a;stroke-width:21.6;stroke-linecap:round;stroke-linejoin:miter;stroke-miterlimit:3.86369;stroke-dasharray:none;stroke-opacity:1" transform="matrix(.13333 0 0 -.13333 0 709.893)"/><path d="M2733 2124.15c31.57 54.12 66.34 61.05 131.59 61.89" style="fill:none;stroke:#c57f0a;stroke-width:19.44;stroke-linecap:round;stroke-linejoin:miter;stroke-miterlimit:3.86369;stroke-dasharray:none;stroke-opacity:1" transform="matrix(.13333 0 0 -.13333 0 709.893)"/><path d="M2517.91 2084.96c-17.41 6.19-37.74 1.19-60.22 1.19-37.01 0-89.86-20.38-170.76-38.28m452.15 189.36c26.65 45.67 89.34 58.53 130.53 58.87" style="fill:none;stroke:#c57f0a;stroke-width:21.6;stroke-linecap:round;stroke-linejoin:miter;stroke-miterlimit:3.86369;stroke-dasharray:none;stroke-opacity:1" transform="matrix(.13333 0 0 -.13333 0 709.893)"/><path d="M1998.94 3569.9c65-3.13 88.75.62 88.75-58.75v-95c0-58.75-52.2-50.47-92.5-47.5-41.31 3.05-88.13-7.5-87.5 65v96.25c0 61.25 58.78 41.56 91.25 40z" style="fill:none;stroke:#c57f0a;stroke-width:21.6;stroke-linecap:round;stroke-linejoin:round;stroke-miterlimit:10;stroke-dasharray:none;stroke-opacity:1" transform="matrix(.13333 0 0 -.13333 0 709.893)"/><path d="M1983.31 3534.9c16.25-1.25 19.38-1.88 34.77-2.65 5.81-45.22 28.89-121.36 28.89-130.57-11.15-.71-13.12-2.2-24.27 0l-9.39 43.22c-12.42 0-29.06 2.5-29.06 2.5-3.87-19.34-6.56-22.5-10.31-43.13-7.5 1.88-18.74-.03-26.25 2.51 13.56 48.9 20.12 83.31 35.62 128.12zm16.25-24.38c-5.62-18.12-10.31-42.5-10.31-42.5s6.01-1.65 20-2.18c0 0-3.44 24.68-9.69 44.68" style="fill:#c57f0a;fill-opacity:1;fill-rule:evenodd;stroke:none" transform="matrix(.13333 0 0 -.13333 0 709.893)"/><path d="M3240.7 2363.29c63.24-6.4 46.97-6.22 131.41-6.17" style="fill:none;stroke:#c57f0a;stroke-width:21.6;stroke-linecap:round;stroke-linejoin:miter;stroke-miterlimit:3.86369;stroke-dasharray:none;stroke-opacity:1" transform="matrix(.13333 0 0 -.13333 0 709.893)"/><path d="M1923.36 1668.37c0-25-23.17-22.22-23.17-42.22s67.5-60 67.5-87.5 2.5-47.5 2.5-57.5c0-27.5 28.75-31.56 28.75-31.56s7.95 25.31 43.75 25.31c55 0 60-86.25 0-86.25-30 0-46.25 17.5-46.25 50-32.5 17.5-63.75 2.5-73.75 72.5s-55 17.5-92.5 57.5-18.08 15.97-33.08 68.47c0 2.5-2.4-39.1-31.92-55.97-35-20-35.11-42.25-7.5-55 16.25-7.5 20-40 45-65 15 20 72.5 22.5 72.5-42.5 0-47.5-99.07-47.18-76.57 34.07-5 42.5-31.02 22.79-85.93 30.93-33.75 5-38.75 21.25-38.75 61.25s46.25 45.09 46.25 88.75c0 12.02-3.33 24.03-7.87 34.81 38.54-.09 131.04-.09 211.04-.09" style="fill:#fff;fill-opacity:1;fill-rule:nonzero;stroke:none" transform="matrix(.13333 0 0 -.13333 0 709.893)"/><path d="M1923.36 1668.37c0-25-23.17-22.22-23.17-42.22s67.5-60 67.5-87.5 2.5-47.5 2.5-57.5c0-27.5 28.75-31.56 28.75-31.56s7.95 25.31 43.75 25.31c55 0 60-86.25 0-86.25-30 0-46.25 17.5-46.25 50-32.5 17.5-63.75 2.5-73.75 72.5s-55 17.5-92.5 57.5-18.08 15.97-33.08 68.47c0 2.5-2.4-39.1-31.92-55.97-35-20-35.11-42.25-7.5-55 16.25-7.5 20-40 45-65 15 20 72.5 22.5 72.5-42.5 0-47.5-99.07-47.18-76.57 34.07-5 42.5-31.02 22.79-85.93 30.93-33.75 5-38.75 21.25-38.75 61.25s46.25 45.09 46.25 88.75c0 12.02-3.33 24.03-7.87 34.81 38.54-.09 131.04-.09 211.04-.09z" style="fill:none;stroke:#c57f0a;stroke-width:21.6;stroke-linecap:round;stroke-linejoin:round;stroke-miterlimit:3.86369;stroke-dasharray:none;stroke-opacity:1" transform="matrix(.13333 0 0 -.13333 0 709.893)"/><path d="M1551.44 1971.78s-56.25-11.88-56.25-96.89c0-63.75 33.99-88.74 62.5-88.74 7.38 0 9.16 1.25 14.58 2.85v-57.19c-13.81-9.04-28.02-14.42-53.33-14.42-48.75 0-116.25 28.76-116.25 121.26 0 20.49 18.75 93.13 148.75 133.13" style="fill:#fff;fill-opacity:1;fill-rule:evenodd;stroke:none" transform="matrix(.13333 0 0 -.13333 0 709.893)"/><path d="M1551.44 1971.78s-56.25-11.88-56.25-96.89c0-63.75 33.99-88.74 62.5-88.74 7.38 0 9.16 1.25 14.58 2.85v-57.19c-13.81-9.04-28.02-14.42-53.33-14.42-48.75 0-116.25 28.76-116.25 121.26 0 20.49 18.75 93.13 148.75 133.13z" style="fill:none;stroke:#c57f0a;stroke-width:21.6;stroke-linecap:round;stroke-linejoin:miter;stroke-miterlimit:3.86369;stroke-dasharray:none;stroke-opacity:1" transform="matrix(.13333 0 0 -.13333 0 709.893)"/><path d="M3242.69 1628.65c4.54-43.83 12.13-82.07 3.75-107.5-19.36-58.69-73.55-71.42-87.5-86.25-16.64-17.67-59.88-75.52-126.25-98.75-50-17.5-32.74-61.49-135-82.5-182.5-37.5-272.5 5-312.5 2.5-135.75-8.48-187 93.45-277.5 115-52.5 12.5-77.5 125-150 167.5-72.98 42.78-105 137.5-120 217.5s-163.75 236.25-338.75 236.25c-113.75 0-266.92-35.77-296.92-148.27-2.5 95.01 120.67 156.92 120.67 237.01 0 50.01-17.5 33.75-17.5 62.51 0 66.25 177.89 107.17 197.5 102.49 52.5-12.49 119.68 31.88 169.68-3.11 64.77-45.34 75.32-21.88 175.32-76.88 100-55.01 133.56-125.4 210-180 70-50 32.5-182.51 135-247.5 125.33-79.48 55-122.5 185-157.5s85-70 240-55c66.03 6.39 68.03 41.41 101.25 60 44.75 25.05 108.75 37.69 108.75 75 0 65-2.5 85-2.5 85 57.5 0 210.03-45.39 217.5-117.5" style="fill:#fff;fill-opacity:1;fill-rule:nonzero;stroke:none" transform="matrix(.13333 0 0 -.13333 0 709.893)"/><path d="M3242.69 1628.65c4.54-43.83 12.13-82.07 3.75-107.5-19.36-58.69-73.55-71.42-87.5-86.25-16.64-17.67-59.88-75.52-126.25-98.75-50-17.5-32.74-61.49-135-82.5-182.5-37.5-272.5 5-312.5 2.5-135.75-8.48-187 93.45-277.5 115-52.5 12.5-77.5 125-150 167.5-72.98 42.78-105 137.5-120 217.5s-163.75 236.25-338.75 236.25c-113.75 0-266.92-35.77-296.92-148.27-2.5 95.01 120.67 156.92 120.67 237.01 0 50.01-17.5 33.75-17.5 62.51 0 66.25 177.89 107.17 197.5 102.49 52.5-12.49 119.68 31.88 169.68-3.11 64.77-45.34 75.32-21.88 175.32-76.88 100-55.01 133.56-125.4 210-180 70-50 32.5-182.51 135-247.5 125.33-79.48 55-122.5 185-157.5s85-70 240-55c66.03 6.39 68.03 41.41 101.25 60 44.75 25.05 108.75 37.69 108.75 75 0 65-2.5 85-2.5 85 57.5 0 210.03-45.39 217.5-117.5z" style="fill:none;stroke:#c57f0a;stroke-width:21.6;stroke-linecap:butt;stroke-linejoin:miter;stroke-miterlimit:3.86369;stroke-dasharray:none;stroke-opacity:1" transform="matrix(.13333 0 0 -.13333 0 709.893)"/><path d="M3241.59 1638.65c-5 35-75.15 87.5-173.9 102.5-125.15 19.01-257.5 27.5-257.5 187.5 0 37.95 40.3 60.37 82.45 71.45 54.22 14.25 124.18 8.48 176.92-13.32 0 0-49.37-18.14-49.37-85.64 0-94.99 221.4-123.27 221.4-262.49" style="fill:#fff;fill-opacity:1;fill-rule:nonzero;stroke:none" transform="matrix(.13333 0 0 -.13333 0 709.893)"/><path d="M3241.59 1638.65c-5 35-75.15 87.5-173.9 102.5-125.15 19.01-257.5 27.5-257.5 187.5 0 37.95 40.3 60.37 82.45 71.45 54.22 14.25 124.18 8.48 176.92-13.32 0 0-49.37-18.14-49.37-85.64 0-94.99 221.4-123.27 221.4-262.49z" style="fill:none;stroke:#c57f0a;stroke-width:21.6;stroke-linecap:butt;stroke-linejoin:miter;stroke-miterlimit:3.86369;stroke-dasharray:none;stroke-opacity:1" transform="matrix(.13333 0 0 -.13333 0 709.893)"/><path d="M3858.94 2404.9c31.95 15.22 56.47 21.24 83.75 21.24 100 0 130-30 145-150s-112.5-319.99-165-364.99c-111.09-95.22-244.42-29.03-460-57.5-66.25-8.76-136.83 95-223.75 95-112.5 0-186.25 61.24-260 58.75-49.98-1.7-151.25-2.5-168.75-78.75 1.87 53.12 135 103.61 135 231.24 0 57.51-47.5 46.26-47.5 61.26 0 35 30 69.99 135 69.99 108.54 0 130-9.99 190-39.99s77.5 15 150-35.01c181.53-125.18 215-30 315-49.99 36.19-7.24 97.5-22.5 120-17.51 24.53 5.46 130 47.51 130 127.5 0 100.01-78.75 128.76-78.75 128.76" style="fill:#fff;fill-opacity:1;fill-rule:nonzero;stroke:none" transform="matrix(.13333 0 0 -.13333 0 709.893)"/><path d="M3858.94 2404.9c31.95 15.22 56.47 21.24 83.75 21.24 100 0 130-30 145-150s-112.5-319.99-165-364.99c-111.09-95.22-244.42-29.03-460-57.5-66.25-8.76-136.83 95-223.75 95-112.5 0-186.25 61.24-260 58.75-49.98-1.7-151.25-2.5-168.75-78.75 1.87 53.12 135 103.61 135 231.24 0 57.51-47.5 46.26-47.5 61.26 0 35 30 69.99 135 69.99 108.54 0 130-9.99 190-39.99s77.5 15 150-35.01c181.53-125.18 215-30 315-49.99 36.19-7.24 97.5-22.5 120-17.51 24.53 5.46 130 47.51 130 127.5 0 100.01-78.75 128.76-78.75 128.76z" style="fill:none;stroke:#c57f0a;stroke-width:21.6;stroke-linecap:butt;stroke-linejoin:miter;stroke-miterlimit:3.86369;stroke-dasharray:none;stroke-opacity:1" transform="matrix(.13333 0 0 -.13333 0 709.893)"/><path d="M3980.19 2423.65s-98.13 41.25-157.5 52.5c-62.77 11.89-160-50.01-255-50.01-36.1 0-80 12.51-105 26.25 35-62.49-35-106.24-35-126.24 0-22.5 32.5-65.01 180-65.01 132.5 0 182.5 182.51 372.5 162.51" style="fill:#fff;fill-opacity:1;fill-rule:nonzero;stroke:none" transform="matrix(.13333 0 0 -.13333 0 709.893)"/><path d="M3980.19 2423.65s-98.13 41.25-157.5 52.5c-62.77 11.89-160-50.01-255-50.01-36.1 0-80 12.51-105 26.25 35-62.49-35-106.24-35-126.24 0-22.5 32.5-65.01 180-65.01 132.5 0 182.5 182.51 372.5 162.51z" style="fill:none;stroke:#c57f0a;stroke-width:21.6;stroke-linecap:butt;stroke-linejoin:miter;stroke-miterlimit:3.86369;stroke-dasharray:none;stroke-opacity:1" transform="matrix(.13333 0 0 -.13333 0 709.893)"/><path d="M3688.31 2846.46c-5-77.81 14.38-102.81 14.38-102.81 61.69-10.97 15.01-47.5 90-47.5 32.5 0 93.9 29.48 90 75-2.49 29.14-34.24 11.17-45 60-7.42 33.62.77 42.3 11.74 74.83 1.06 3.15 12.44 13.8 8.88 15.17-27.5 10.62-45.62 9.71-45.62 52.5 0 62.5 87.5 57.5 87.5 2.5 0-50-30.63-53.75-40.63-55-11.06-1.38 21.88-6.88 21.88-31.87 0-13.27-7.5-22.53-7.5-33.13 0-25 53.75 15 53.75-77.5 0-40.31 20-30 47.5-5 23.88 21.72 74.19 20.79 86.99 49.68 1.93 4.36 10.12 27.09 4.26 27.82-15 1.87-41.25 0-41.25 52.5s80 52.5 82.5 0c2.41-50.5-21.48-45.74-35-52.5-12.5-6.25 27.5-5 27.5-60 0-7.5-17.5-37.5-75-60s-102.5-152.5-182.5-152.5c-36.48 0-65.27 40.22-157.5 47.5-18.54 7.67-30.3 15.08-37.5 23.75-7.5 31.25-12.48 51.89-92.5 53.75-48.24 1.12-112.21-68.19-110-145 1.79-62.5 12.5-120 137.5-132.51-147.5-2.49-235 111.11-235 170.01 0 95 85 95 85 160s47.5 108.12 70 108.12c29.64 0 20-20.62 140-15.62 25.1 1.04 45.62 15.31 45.62-2.19" style="fill:#fff;fill-opacity:1;fill-rule:evenodd;stroke:none" transform="matrix(.13333 0 0 -.13333 0 709.893)"/><path d="M3688.31 2846.46c-5-77.81 14.38-102.81 14.38-102.81 61.69-10.97 15.01-47.5 90-47.5 32.5 0 93.9 29.48 90 75-2.49 29.14-34.24 11.17-45 60-7.42 33.62.77 42.3 11.74 74.83 1.06 3.15 12.44 13.8 8.88 15.17-27.5 10.62-45.62 9.71-45.62 52.5 0 62.5 87.5 57.5 87.5 2.5 0-50-30.63-53.75-40.63-55-11.06-1.38 21.88-6.88 21.88-31.87 0-13.27-7.5-22.53-7.5-33.13 0-25 53.75 15 53.75-77.5 0-40.31 20-30 47.5-5 23.88 21.72 74.19 20.79 86.99 49.68 1.93 4.36 10.12 27.09 4.26 27.82-15 1.87-41.25 0-41.25 52.5s80 52.5 82.5 0c2.41-50.5-21.48-45.74-35-52.5-12.5-6.25 27.5-5 27.5-60 0-7.5-17.5-37.5-75-60s-102.5-152.5-182.5-152.5c-36.48 0-65.27 40.22-157.5 47.5-18.54 7.67-30.3 15.08-37.5 23.75-7.5 31.25-12.48 51.89-92.5 53.75-48.24 1.12-112.21-68.19-110-145 1.79-62.5 12.5-120 137.5-132.51-147.5-2.49-235 111.11-235 170.01 0 95 85 95 85 160s47.5 108.12 70 108.12c29.64 0 20-20.62 140-15.62 25.1 1.04 45.62 15.31 45.62-2.19z" style="fill:none;stroke:#c57f0a;stroke-width:21.6;stroke-linecap:butt;stroke-linejoin:miter;stroke-miterlimit:3.86369;stroke-dasharray:none;stroke-opacity:1" transform="matrix(.13333 0 0 -.13333 0 709.893)"/><path d="M3682.69 2851.15c0-20-50-50-85-50s-46.25-56.25 50-55c22.51.29 39.07.16 51.4-2.03m-123.9 25.78c23.75-58.13 69.37-60 70-111.25" style="fill:none;stroke:#c57f0a;stroke-width:21.6;stroke-linecap:round;stroke-linejoin:miter;stroke-miterlimit:3.86369;stroke-dasharray:none;stroke-opacity:1" transform="matrix(.13333 0 0 -.13333 0 709.893)"/><path d="m2670.86 3913.2 192.81-139.81-76.89 232.98 206.58 148.55-251.25-.3-71.25 232.78-75-232.78-247.5.3 206.59-148.55-76.9-232.98 192.81 139.81" style="fill:#fff;fill-opacity:1;fill-rule:nonzero;stroke:none" transform="matrix(.13333 0 0 -.13333 0 709.893)"/><path d="m2652.11 4052.12-297.5 102.5h236.25l61.25-102.5M2669.61 4382.12v-323.75l70.62 98.13-70.62 225.62M2659.61 4039.62l-179.26-263.93 76.13 227.68 103.13 36.25M2671.48 4037.12l188.75-260.62-188.75 141.87zM2988.36 4155.25l-311.25-109.38 105-36.87 206.25 146.25" style="fill:#c57f0a;fill-opacity:1;fill-rule:nonzero;stroke:none" transform="matrix(.13333 0 0 -.13333 0 709.893)"/><path d="m2670.78 3913.55 192.81-139.81-76.9 232.98 206.59 148.55-251.26-.3-71.24 232.78-75-232.78-247.5.3 206.58-148.55-76.89-232.98 192.81 139.81z" style="fill:none;stroke:#fff;stroke-width:28.8;stroke-linecap:round;stroke-linejoin:round;stroke-miterlimit:3.86369;stroke-dasharray:none;stroke-opacity:1" transform="matrix(.13333 0 0 -.13333 0 709.893)"/><path d="M2902.42 1503.11c11.77 5.28 30.49 28.94 52.77 41.79 26.6 15.34 53.43 19.76 71.92-4.03 15.14-19.49 13.14-32.53 9.83-42.45 4.52.3 24.46 1.65 36.42-18.17 21.87-36.25 11.32-47.59-4.42-64.72-21.25-23.13-53.19-26.25-73.92-49.51-12.77 28.88-23.45 53.81-36.07 72.75-19.85 29.77-41.8 58.27-56.53 64.34" style="fill:#c57f0a;fill-opacity:1;fill-rule:nonzero;stroke:none" transform="matrix(.13333 0 0 -.13333 0 709.893)"/><path d="M2948.36 1504c10.34-15.86 8.71-12.57 22.5-31.88 31.87 20.63 49.69 27.24 33.75 50-13.13 18.75-34.38.63-56.25-18.12M2986.48 1448.37c12.5-21.87 16.99-33.6 22.5-41.87 26.25 15 60.95 30.34 40 56.87-18.75 23.75-41.25 1.25-62.5-15" style="fill:#fff;fill-opacity:1;fill-rule:nonzero;stroke:none" transform="matrix(.13333 0 0 -.13333 0 709.893)"/><path d="M3394.83 2131.87c-10.22-13.09-53.42-152.86-48.57-162.86-16.96 7.9-11.96 11.65-36.96 15.71 25 15 53.18 155.87 55 163.75 17.14-17.14 30.53-16.6 30.53-16.6" style="fill:#c57f0a;fill-opacity:1;fill-rule:nonzero;stroke:none" transform="matrix(.13333 0 0 -.13333 0 709.893)"/><path d="M3394.83 2131.87c-10.22-13.09-53.42-152.86-48.57-162.86-16.96 7.9-11.96 11.65-36.96 15.71 25 15 53.18 155.87 55 163.75 17.14-17.14 30.53-16.6 30.53-16.6z" style="fill:none;stroke:#c57f0a;stroke-width:7.5;stroke-linecap:butt;stroke-linejoin:round;stroke-miterlimit:3.86369;stroke-dasharray:none;stroke-opacity:1" transform="matrix(.13333 0 0 -.13333 0 709.893)"/><path d="M3239.12 2196.15c-24.26-38.8-33.93-132.86-41.43-152.86 33.75 1.61 72.96-11.73 83.75-10.9 1.21-2.42-6.61-13.38-10.89-31.96-9.11 18.22-76.61 6.97-115.72 21.44 24.86 20.6 48.48 177.4 44.11 185.53 17.35-7.05 26.92-8.35 40.18-11.25" style="fill:#c57f0a;fill-opacity:1;fill-rule:nonzero;stroke:none" transform="matrix(.13333 0 0 -.13333 0 709.893)"/><path d="M3239.12 2196.15c-24.26-38.8-33.93-132.86-41.43-152.86 33.75 1.61 72.96-11.73 83.75-10.9 1.21-2.42-6.61-13.38-10.89-31.96-9.11 18.22-76.61 6.97-115.72 21.44 24.86 20.6 48.48 177.4 44.11 185.53 17.35-7.05 26.92-8.35 40.18-11.25z" style="fill:none;stroke:#c57f0a;stroke-width:7.5;stroke-linecap:round;stroke-linejoin:round;stroke-miterlimit:3.86369;stroke-dasharray:none;stroke-opacity:1" transform="matrix(.13333 0 0 -.13333 0 709.893)"/><path d="M2671.44 1427.4c-6.8-29.64-12.5-43.75-36.97-49.43 7-42.7 11.77-59.69 20.38-81.56-19.52 5.06-14.4 3.96-36.52 5.98 3.59 4.57 3.49 15.96 1.78 22.08-7.56 26.96-9.14 29.38-13.05 56.21-10.82 2.8-21.93 5.01-38.68 11.67-12.93-22.6-25.8-54.59-25.09-69.18 0 0-15.52-4.15-37.53 10.39 17.71 5.63 43.97 100.61 62.58 147.27 2.58 6.49 3.84 15.66-.84 20.68 64.9-12.91 115.74-22.61 103.94-74.11zm-92.56-8.66c20.38-6.78 55.11-27.64 65.06 8.66 9.07 33.11-25.26 32.17-51.7 39.15-5.49-18-10.35-30.93-13.36-47.81" style="fill:#c57f0a;fill-opacity:1;fill-rule:evenodd;stroke:none" transform="matrix(.13333 0 0 -.13333 0 709.893)"/><path d="M1812.06 2206.15c-10-22.5-37.98-129.94-36.87-135.62 25.62.62 72.97-27.93 78.75-24.38-3.89-13.07-6.27-16.47-6.88-32.81-37.71 13.73-58.75 30.94-108.12 29.06 2.5 6.57 40.93 153.75 38.75 160 14.37 4.37 26.25 5 34.37 3.75M1872.69 2002.39c31.48-8.17 73.75-34.99 98.75-56.86 0 0 11.25 19.32 15 33.75-23.13.94-46.32 24.18-80 36.87 8.12 18.75 11.25 23.13 18.75 37.5 27.5-8.43 25.62-8.75 41.25-18.12 3.91 10.74 5 15 11.87 26.86-8.75.64-10.62 2.51-41.25 16.88 5 11.25 13.13 23.13 18.13 38.76 21.92-4.02 54.68-21.56 66.25-32.5 0 0 2.5 11.25 7.5 31.24-30.63 20.01-58.75 31.87-85 36.26 1.36-4.98-60.62-124.82-71.25-150.64M2097.06 2065.53c-12.12-7.28-12.5-6.25-30-8.76 16.68-15.15 20.63-18.12 33.75-34.37-20.94-22.18-94.37-91.87-107.5-93.75 21.47-16.69 19.38-15 30-27.51-.62 9.38 61.88 70.01 96.88 100.64 14.55-18.2 22.57-19 36.87-39.38 0 0 3.32 16.4 9.38 31.25-40.01 36.37-35.43 33.07-69.38 71.88M2258.62 1821.46c-14.68-.62-22.5 1.87-38.35 1.55 8.48-21.21 16.17-30.93 26.17-51.24-47.9-19.7-126.88-55.62-137.71-53.03 11.82-16.06 7.39-29.77 21.46-40.09 6.56 19.06 99.1 51.97 130.62 64.99 6.67-13.63 28.13-38.61 28.13-44.36 12.12 4.84 15.04 18.92 26.56 24.68-23.03 16.68-54.75 72.04-56.88 97.5M2344.32 1701.23c10.3-17.58 23.14-16.1 35.87-28.83-29.1-11.52-51.03-27.55-70.43-46.95 10.91-10.91 14.66-24.16 30.43-39.92 22.12 10.91 60.3 50.13 60 54.37 12.12-18.19 6.57-27.17 19.3-39.3-15.76 1.81-139.43-104.88-139.43-118.82-10.92 14.55-25.5 35.62-25.5 35.62 23.04 12.73 38.9 23.32 63.75 50-7.27 9.7-17.65 22.29-32.19 42.89-13.34-4.84-63.05-34.24-63.05-52.12-14.55 11.51-17.88 17.98-36.63 27.98 43.65 21.83 153.33 93.86 157.88 115.08M2445.5 1576.78c.61-5.46-88.59-124.53-113.75-149.69 25-11.25 97.44-46.66 115.62-69.69 12.13 10.91 26.83 32.23 26.83 32.23-5.16-1.51-71.54 30.31-92.15 48.5 12.12 16.98 16.75 21.67 32.51 38.65 18.19-14.55 31.59-13.73 42.51-33.13 2.42 3.64 14.52 14.75 19.37 26.88-21.83 12.12-31.88 17.5-45.62 31.25 3.63 8.49 13.97 23.64 25.19 33.35 33.35-22.13 46.06-25.23 67.93-50.23 6.06 14.54 3.75 15 12.5 34.38-41.25 17.5-48.75 23.12-90.94 57.5M2701.75 1463.03l118.44 9.37 9.37-33.43c-8.12 5.62-54.37 3.12-90.62-1.57l1.87-40c20.2-2.56 43.13 2.19 51.25 5l3.75-29.37c-14.37 4.06-29.06-3.13-54.37-3.13l-.63-51.25c23.33 0 79.38-1.25 92.5 17.5l-5.62-40s-57.5-17.5-123.13-2.81c9.96 5.97 9.56 72.96 8.43 87.19-2.56 32.7 3.13 55.31-11.24 82.5M3075.19 1648.65c13.75-3.75 19.73-7.47 29.73-8.09-11.25-28.75-10.94-35-28.44-52.5 10.86-7.6 20.63-20.31 26.88-26.56 14.37 13.75 18.44 26.25 20.94 35 8.75-8.13 13.43-15 22.18-16.88-5.62-20-9.37-26.25-23.75-38.75 11.25-15 12.82-15.62 23.13-26.25 26.25 11.88 37.19 54.06 37.19 54.06s14.64-24.4 18.39-28.78c-10.63-35-38.75-50-62.5-66.25-27.5 40-89.49 111.36-108.75 110 32.5 27.5 36.87 30.63 45 65M3498.43 2101.4c-36.15 7.48-88.64-14.87-97.09-80.7-6.37-49.7 26.63-97.46 61.49-104.03 58.44-11.01 69.95 42.38 73.34 77.96.6 6.18 7.06 8.04 7.1 13.63-6.75.09-47.67 12.86-61.65 14.74-1.33-11.95-.68-12.49-6.6-26.03 17.87-1.39 23.71-4.46 33.38-9.51.16-5.13-1.73-52.08-36.93-42.14-29.78 8.41-44.77 29.08-40.45 74.43 3.6 37.85 31.16 63.09 61.25 57.44 20.88-3.93 32.34-12.74 32.34-25.86 14.76 7.21 25.37 15.52 25.37 15.52-14.98 22.36-18.31 27.66-51.55 34.55M3614.25 2093.65c-2.19-23.76.73-52.38 3.75-68.12 24.29 8.56 41.12 12.05 66.83 6.34 0 0-5.93 69.32-12.14 71.47 7.27 4.24 36.87-5 36.87-5-2.81-4.69-4.37-10.94-4.1-14.68 3.14-44.34 13.52-153.32 23.48-155.33-3.64-1.81-18.04 2.6-33.75-3.11 3.03 4.23-7.24 61.76-8.75 78.75-22.87 12.51-51.61-.68-67.06-3.97 0-10.01.18-71.67 9.87-72.91-19.09-7.58-21.1-3.17-41.41-4.69 0 3.64 5.53 9.6 6.07 15.77 1.28 14.54-8.98 142.69-17.16 146.72 0 0 29.69 3.14 37.5 8.76M3746.62 2090.26c39.32.93 59.03-1.55 90 18.12 10.94-15.31 12.5-18.44 22.19-28.44-13.64.91-37.19-7.5-49.38-11.87 15.74-67.09 33.13-125.31 38.44-127.81-15.16-4.55-21.08-5.82-35.62-11.88-1.57 35.94-24.38 106.88-30.63 135.63-22.5-3.13-30.31-4.38-46.56-12.19-.92 2.72 7.23 32.2 11.56 38.44" style="fill:#c57f0a;fill-opacity:1;fill-rule:nonzero;stroke:none" transform="matrix(.13333 0 0 -.13333 0 709.893)"/></svg>