<svg xmlns="http://www.w3.org/2000/svg" width="128" height="128"><path d="M-24.2-9.8h150v150h-150z" fill="none"/><linearGradient id="a" gradientUnits="userSpaceOnUse" x1="75.064" y1="663.977" x2="164.078" y2="533.809" gradientTransform="translate(-51.06 -533.36)"><stop offset="0" stop-color="#e2231a"/><stop offset=".078" stop-color="#e23614"/><stop offset=".193" stop-color="#e2540c"/><stop offset=".269" stop-color="#e26a05"/><stop offset=".507" stop-color="#e27801"/><stop offset="1" stop-color="#f89d1f"/></linearGradient><path d="M85.3.2C53.7.2 13.5 39.6 13.5 82.6c0 27 12.2 42.7 14.9 45.2 11.1-5.9 21.3-7.8 42.6-11.3 29.5-4.9 43.5-13.2 43.5-27.3 0-15.6-22-22.4-38.6-23.3-1.3-.1-2.4-.6-2.4-1.6 0-.8.8-1.3 1.6-1.9 15.1-11.1 31.4-26.8 31.4-44C106.5 10 101.2.2 85.3.2m-1.9 42.6c0 9.9-15.1 21-22.1 25.7-1.4.9-2.9 1.8-2.9 3.3 0 1.7 1.7 2.5 4.9 2.8 11.5 1.1 21.5 4.4 21.5 11.2 0 6.7-7.3 11.2-27.7 13.2-15.4 1.5-23.3 4.2-27.5 5.9-.4-1.7-.9-5.3-.9-11.2 0-31.8 24.3-59.5 44.2-59.5 6.6 0 10.5 3.5 10.5 8.6z" fill="url(#a)"/></svg>