<svg xmlns="http://www.w3.org/2000/svg" width="120" height="44" fill="none"><path fill="#ffc400" d="m51.693 0 5.05 3.168L61.794 0l5.05 3.168L71.894 0v8.509H51.693V0z"/><path fill="#fff" d="M57.364 34.624h-5.671V11.345h5.671v23.279zm.567-11.64 7.297-11.64h6.666l-7.297 11.64 7.297 11.64h-6.666l-7.297-11.64zm14.867-6.841h5.671v18.481h-5.671v-18.48zm20.369 8.459c0-2.521-1.393-3.914-3.549-3.914s-3.548 1.393-3.548 3.914v10.022h-5.671v-18.48h5.671v2.455c1.128-1.559 3.117-2.654 5.605-2.654 4.278 0 7.13 2.919 7.13 7.895v10.785h-5.638V24.602zm16.91-3.781c-2.123 0-4.046 1.592-4.046 4.544s1.923 4.611 4.046 4.611c2.155 0 4.046-1.625 4.046-4.578s-1.891-4.578-4.046-4.578zm-1.658-4.942c2.719 0 4.709 1.227 5.704 2.886v-2.62h5.671V34.62c0 4.942-2.853 9.155-9.253 9.155-5.505 0-9.087-2.786-9.584-7.198h5.605c.364 1.393 1.757 2.289 3.714 2.289 2.155 0 3.847-1.128 3.847-4.246v-2.621c-1.028 1.626-2.985 2.919-5.704 2.919-4.544 0-8.159-3.715-8.159-9.553s3.615-9.487 8.159-9.487zM12.051 29.401c.519-.431.779-1.055.779-1.874s-.271-1.459-.812-1.923-1.288-.697-2.238-.697H5.669v5.14h4.177c.95 0 1.685-.215 2.205-.646zm-6.382-8.638h3.713c.928 0 1.641-.204 2.138-.613s.746-1.012.746-1.808-.249-1.404-.746-1.824-1.21-.63-2.138-.63H5.669v4.874zm11.67 3.93a5.7 5.7 0 0 1 1.227 3.598c0 1.945-.68 3.487-2.039 4.626s-3.255 1.707-5.686 1.707H0V11.345h10.476c2.365 0 4.216.543 5.553 1.626s2.006 2.553 2.006 4.41c0 1.371-.36 2.509-1.077 3.416s-1.674 1.536-2.868 1.889c1.348.288 2.431.957 3.249 2.007zM32.3 23.581c0-.973-.332-1.745-.995-2.32s-1.492-.863-2.486-.863c-.95 0-1.752.277-2.403.83s-1.056 1.338-1.21 2.354H32.3zm5.702 3.15h-12.83c.088 1.15.459 2.029 1.111 2.636s1.453.912 2.404.912c1.414 0 2.398-.597 2.951-1.791h6.034a8.29 8.29 0 0 1-1.674 3.283c-.807.974-1.818 1.736-3.034 2.288s-2.575.83-4.078.83c-1.812 0-3.426-.387-4.84-1.161s-2.52-1.879-3.315-3.316-1.194-3.118-1.194-5.041.392-3.604 1.177-5.041 1.884-2.542 3.299-3.316 3.038-1.16 4.873-1.16c1.79 0 3.381.376 4.774 1.128a8.1 8.1 0 0 1 3.266 3.216c.785 1.392 1.177 3.018 1.177 4.875 0 .53-.033 1.083-.099 1.657zm11.875 3.085v4.808h-2.884c-2.055 0-3.658-.502-4.807-1.509s-1.724-2.648-1.724-4.925v-7.362h-2.254v-4.685h2.254v-4.799h5.669v4.799h3.713v4.685h-3.713v7.428c0 .553.133.951.397 1.194s.707.365 1.327.365h2.022z"/></svg>