<svg xmlns="http://www.w3.org/2000/svg" width="249" height="51" fill="none"><path fill="#fff" d="M53.055 36.106h8.762c4.534 0 7.66-2.328 7.66-6.403 0-2.819-1.655-4.534-3.616-5.3 1.256-.674 2.512-2.206 2.512-4.228 0-3.585-2.91-5.515-6.801-5.515h-8.517v21.446Zm4.534-13.266v-4.534h3.554c2.053 0 2.972.827 2.972 2.267s-.92 2.267-2.88 2.267h-3.646Zm0 9.283v-5.392h3.83c2.542 0 3.676.98 3.676 2.727 0 1.746-1.134 2.665-3.676 2.665h-3.83ZM82.338 30.867c-.337 1.317-1.47 1.991-3.186 1.991-2.145 0-3.524-1.347-3.83-3.523h11.09c.031-.337.062-.796.062-1.378 0-3.524-2.175-7.537-7.629-7.537-5.239 0-7.628 4.013-7.628 7.935 0 3.89 2.696 7.996 7.935 7.996 3.799 0 6.74-2.144 7.352-5.484h-4.166Zm-3.493-7.322c2.053 0 3.248 1.379 3.37 3.094h-6.832c.368-2.144 1.532-3.094 3.462-3.094ZM90.52 16.1v3.493c0 .766-.43 1.072-1.072 1.072h-1.9v3.554h2.972v6.28c0 3.585 2.298 5.607 5.852 5.607h2.542v-3.86h-1.96c-1.38 0-2.176-.705-2.176-2.206v-5.821h4.136v-3.554h-4.136V16.1H90.52ZM103.205 16.1v3.493c0 .766-.428 1.072-1.072 1.072h-1.899v3.554h2.971v6.28c0 3.585 2.298 5.607 5.852 5.607h2.543v-3.86h-1.961c-1.378 0-2.175-.705-2.175-2.206v-5.821h4.136v-3.554h-4.136V16.1h-4.259ZM123.955 30.867c-.337 1.317-1.471 1.991-3.186 1.991-2.145 0-3.523-1.347-3.83-3.523h11.091c.03-.337.061-.796.061-1.378 0-3.524-2.175-7.537-7.629-7.537-5.238 0-7.628 4.013-7.628 7.935 0 3.89 2.696 7.996 7.935 7.996 3.799 0 6.74-2.144 7.353-5.484h-4.167Zm-3.493-7.322c2.053 0 3.248 1.379 3.37 3.094H117c.368-2.144 1.532-3.094 3.462-3.094ZM140.341 24.219v-3.554h-1.747c-1.869 0-3.033.643-3.86 2.574v-2.574h-4.289v15.441h4.289V28.6c0-2.635.95-4.381 3.064-4.381h2.543ZM157.333 36.351c5.086 0 8.547-2.727 8.547-8.15v-13.54h-4.289V28.2c0 2.82-1.777 4.137-4.258 4.137-2.482 0-4.228-1.318-4.228-4.136V14.66h-4.32v13.542c0 5.422 3.493 8.15 8.548 8.15ZM169.255 42.356h4.259v-7.629c.827 1.042 2.328 1.624 4.075 1.624 4.442 0 7.444-3.155 7.444-7.965 0-4.81-2.757-7.966-7.077-7.966-1.991 0-3.523.735-4.442 1.93v-1.685h-4.259v21.691Zm7.813-9.681c-2.298 0-3.799-1.716-3.799-4.29 0-2.604 1.501-4.32 3.799-4.32 2.236 0 3.768 1.716 3.768 4.32 0 2.574-1.532 4.29-3.768 4.29ZM189.043 16.1v3.493c0 .766-.429 1.072-1.073 1.072h-1.899v3.554h2.972v6.28c0 3.585 2.297 5.607 5.851 5.607h2.543v-3.86h-1.961c-1.378 0-2.175-.705-2.175-2.206v-5.821h4.136v-3.554h-4.136V16.1h-4.258ZM199.553 13.833v4.534h4.688v-4.534h-4.688Zm.184 22.273h4.289V20.665h-4.289v15.441ZM207.157 36.106h4.289v-8.762c0-1.992 1.134-3.309 2.91-3.309 1.655 0 2.697 1.317 2.697 3.309v8.762h4.289v-8.762c0-1.992 1.133-3.309 2.91-3.309 1.655 0 2.727 1.317 2.727 3.309v8.762h4.258v-10.11c0-3.095-2.175-5.576-5.545-5.576-2.481 0-4.412 1.317-5.147 2.819-.735-1.839-2.298-2.819-4.718-2.819-2.083 0-3.554 1.011-4.381 2.42v-2.175h-4.289v15.441ZM244.678 30.867c-.337 1.317-1.471 1.991-3.186 1.991-2.145 0-3.524-1.347-3.83-3.523h11.09c.031-.337.062-.796.062-1.378 0-3.524-2.176-7.537-7.629-7.537-5.239 0-7.628 4.013-7.628 7.935 0 3.89 2.696 7.996 7.935 7.996 3.798 0 6.74-2.144 7.352-5.484h-4.166Zm-3.493-7.322c2.053 0 3.248 1.379 3.37 3.094h-6.832c.368-2.144 1.532-3.094 3.462-3.094Z"/><path fill="url(#a)" d="M22.455 24.573V8.629c0-2.884-3.623-4.17-5.442-1.932L4.06 22.641c-1.627 2.002-.202 4.995 2.378 4.995H19.39a3.064 3.064 0 0 0 3.064-3.063Z"/><path fill="#fff" d="M31.192 22.455H18.788a3.241 3.241 0 0 0-3.241 3.241v15.265c0 3.052 3.832 4.413 5.757 2.044L33.707 27.74c1.721-2.118.214-5.285-2.515-5.285Z"/><defs><linearGradient id="a" x1="10.364" x2="25.046" y1="6.045" y2="33.682" gradientUnits="userSpaceOnUse"><stop stop-color="#BCBECD"/><stop offset="1" stop-color="#BCBECD" stop-opacity="0"/></linearGradient></defs></svg>