<svg viewBox="0 0 1024 1024" xmlns="http://www.w3.org/2000/svg"><path d="M0 0h1024v1024H0z" fill="#262d34" stroke="#fff" stroke-miterlimit="10"/><path d="M346.4 506.5c8.8-3.1 17-6.9 24.4-11.4 11-6.7 20.4-14.6 28-23.7s13.5-19.1 17.5-29.8c4-10.8 6.1-22.1 6.1-33.6 0-17.4-2.9-33.2-8.7-47-5.8-13.9-14.8-25.8-26.8-35.4-11.9-9.6-27.2-16.9-45.4-21.8-18-4.9-39.6-7.3-64-7.3H151.9v432.1h141.3c22.9 0 43.6-2.7 61.7-8.1 18.2-5.4 33.7-13.3 46.2-23.6 12.6-10.3 22.3-23.1 28.9-37.9s9.9-31.6 9.9-50c0-28.8-9.4-52.5-27.9-70.4-15.9-15.5-37.9-26.2-65.6-32.1m-157.1 18.1h103.9c17.5 0 33.3 2 46.9 5.9s25.2 9.5 34.4 16.7 16.3 16 21.2 26.2 7.4 22 7.4 34.9c0 28.2-9.3 50.2-27.6 65.7-18.5 15.6-46.3 23.5-82.6 23.5H189.3zm138.1-36.3c-13.5 4.9-30.1 7.3-49.3 7.3h-88.9V327.2h88.2c37 0 64.6 7.2 82.1 21.4 17.3 14 26 35.1 26 62.6 0 10.6-2 21-6.1 31-4 9.9-10.4 19-18.9 26.8-8.4 8-19.6 14.5-33.1 19.3" fill="#61c8ed"/><path d="M833.6 299.6c-2.5 2-4.2 4.4-5.2 7L683.7 659.8c-1.8 4.4-3.5 9.3-5.1 14.4-.3 1.2-.7 2.3-1 3.5-.3-1.2-.7-2.4-1.1-3.6-1.6-5.1-3.2-9.8-4.9-14.4l-145-353.2c-1.2-2.9-2.9-5.3-5.1-7.1-2.4-2-5.4-3-9-3h-29.2l177.5 430.1.8 2h31.7l178.4-432.1h-28.9c-3.5.1-6.6 1.1-9.2 3.2" fill="#fff"/></svg>