<svg xmlns="http://www.w3.org/2000/svg" viewBox="0 0 41.82 41.9"><defs><linearGradient id="a" x1="-.67" x2="41.29" y1="10.52" y2="10.52" gradientUnits="userSpaceOnUse"><stop offset="0" stop-color="#fff"/><stop offset=".25" stop-color="#fff"/><stop offset=".27" stop-color="#f9f9f9"/><stop offset=".47" stop-color="#b3b3b3"/><stop offset=".65" stop-color="#7c7c7c"/><stop offset=".8" stop-color="#545454"/><stop offset=".92" stop-color="#3c3c3c"/><stop offset="1" stop-color="#333"/></linearGradient><linearGradient id="d" x1="-.67" x2="41.29" y1="10.52" y2="10.52" gradientUnits="userSpaceOnUse"><stop offset="0" stop-color="#692474"/></linearGradient><clipPath id="c"><path fill="none" stroke-width="0" d="M21 .04A20.92 20.92 0 0 0 0 20.46l8.42.46a12.33 12.33 0 0 1 3.62-8.81 12.58 12.58 0 0 1 8.87-3.63c6.57-.11 12.06 5 12.43 11.56l4.27-4.25L41.82 20A20.79 20.79 0 0 0 21.26 0z"/></clipPath><mask id="b" width="41.82" height="20.89" x="-.06" y=".02" maskUnits="userSpaceOnUse"><path fill="url(#a)" stroke-width="0" d="M-.06.02h41.82v20.89H-.06z"/></mask></defs><g clip-path="url(#c)" mask="url(#b)"><path fill="url(#d)" d="M-.06.02h41.82v20.89H-.06z"/></g><path fill="#522058" d="M33.27 22.51a12.48 12.48 0 0 1-3.56 7.31 12.3 12.3 0 0 1-8.77 3.64A12.6 12.6 0 0 1 8.42 20.9l-4.23-1.44-4.19 1a21.5 21.5 0 0 0 5.88 15 21.47 21.47 0 0 0 14.46 6.44h.3a20.91 20.91 0 0 0 21.14-19.54l-4.13-4.19z"/></svg>