<svg xmlns="http://www.w3.org/2000/svg" width="43.778" height="42.398" viewBox="0 0 11.583 11.218"><path d="M3.263 6.758c.453 0 .686-.397.686-.806s-.245-.799-.723-.799c-.365 0-.604.164-.604.164v1.038c.062.163.264.403.641.403M1.835 3.14c0-.07.07-.139.139-.139h.51c.075 0 .138.07.138.139v1.422c.132-.057.421-.126.71-.126.863 0 1.41.667 1.41 1.516 0 .83-.573 1.523-1.365 1.523-.636 0-.97-.434-.97-.434l-.069.226c-.031.082-.075.139-.144.139h-.22a.144.144 0 0 1-.139-.139zm5.191 2.416c-.063-.164-.264-.403-.642-.403-.453 0-.686.396-.686.806s.245.799.724.799c.365 0 .604-.164.604-.164zm.786 1.881c0 .938-.654 1.41-1.447 1.41-.478 0-.906-.22-1.044-.328-.044-.038-.063-.113-.032-.163l.19-.41c.024-.056.106-.075.169-.037.107.063.39.22.692.22.447 0 .686-.15.686-.692v-.082c-.132.05-.41.12-.699.12-.868 0-1.44-.667-1.44-1.516 0-.881.597-1.523 1.39-1.523.617 0 .95.434.95.434l.076-.233c.025-.082.069-.138.138-.138h.233a.14.14 0 0 1 .138.138zM8.31 3.14c0-.07.068-.139.137-.139h.51c.07 0 .139.07.139.139v4.127c0 .076-.07.139-.139.139h-.51a.144.144 0 0 1-.138-.139zm2.531 2.793a.75.75 0 0 1 .74.74.748.748 0 0 1-.74.732.742.742 0 0 1-.732-.732c0-.401.331-.74.732-.74" fill="#0a3b5c"/><g fill="none" stroke-width=".363" stroke-linecap="round" stroke-miterlimit="10"><path d="M6.109.183a5.45 5.45 0 0 1 4.937 5.077" stroke="#19a3a3"/><path d="M.183 5.099A5.45 5.45 0 0 1 5.114.182" stroke="#0a3b5c"/><path d="M5.12 11.036A5.45 5.45 0 0 1 .181 6.095" stroke="#0189c0"/><path d="M10.496 8.02a5.452 5.452 0 0 1-4.399 3.016" stroke="#74a641"/></g></svg>