<svg width="32.709" height="32.708" viewBox="0 0 8.654 8.654" xmlns="http://www.w3.org/2000/svg"><path d="M6.347 3.37a2.55 2.55 0 01-.98.264l.035.022c1.118.674 2.55.5 3.252.354a4.305 4.305 0 00-.847-2.27c-.218.486-.665 1.231-1.46 1.63" fill="#f69220"/><path d="M3.962 2.71c.06.036.16.091.28.134.696.235 1.31.224 1.823-.034.804-.402 1.172-1.292 1.277-1.596A4.324 4.324 0 004.333 0C2.975 0 1.763.624.97 1.6c.072-.005.145-.01.217-.01.95 0 1.893.538 2.776 1.12" fill="#00b0bc"/><path d="M5.078 4.191c-.33-.198-.665-.424-.99-.643-1.28-.865-2.493-1.683-3.62-1.176a4.31 4.31 0 00-.404 1.219c.32-.116.61-.169.874-.17 1.032 0 1.692.792 2.427 1.672.349.418.744.893 1.22 1.338 1.006.94 2.298.848 3.07.673a4.3 4.3 0 00.999-2.453c-.83.157-2.337.288-3.576-.46" fill="#91c73e"/><path d="M4.162 6.883c-.505-.472-.913-.962-1.273-1.394C1.905 4.31 1.358 3.66 0 4.287L0 4.327a4.33 4.33 0 004.333 4.327c.947 0 1.82-.303 2.533-.817-.836.034-1.843-.15-2.704-.954" fill="#607a80"/></svg>