<svg xmlns="http://www.w3.org/2000/svg" viewBox="0 0 90 90"><path fill="#247BFF" d="M53.89 9c0 .82-.11 1.61-.32 2.36l16.17 9.36A8.77 8.77 0 0176.11 18c4.9 0 8.89 4.03 8.89 9 0 4.2-2.83 7.73-6.67 8.72v18.56A8.98 8.98 0 0185 63c0 4.97-3.98 9-8.89 9a8.84 8.84 0 01-6.37-2.72l-16.17 9.36A8.95 8.95 0 0145 90a8.95 8.95 0 01-8.57-11.36l-16.17-9.36A8.77 8.77 0 0113.89 72 8.95 8.95 0 015 63c0-4.2 2.83-7.73 6.67-8.72V35.72A8.98 8.98 0 015 27c0-4.97 3.98-9 8.89-9 2.5 0 4.76 1.05 6.37 2.72l16.17-9.36A8.95 8.95 0 0145 0c4.9 0 8.89 4.03 8.89 9zm-11.11 8.72a8.74 8.74 0 01-4.15-2.44l-16.17 9.36a8.98 8.98 0 01-6.35 11.08v18.56a8.74 8.74 0 014.15 2.44l16.17-9.36a8.98 8.98 0 016.35-11.08V17.72zm4.44 0v18.56a8.98 8.98 0 016.35 11.08l16.17 9.36a8.74 8.74 0 014.15-2.44V35.72a8.98 8.98 0 01-6.35-11.08l-16.17-9.36a8.74 8.74 0 01-4.15 2.44zM45 54a8.84 8.84 0 01-6.37-2.72l-16.17 9.36a9.08 9.08 0 010 4.72l16.17 9.36a8.84 8.84 0 0112.74 0l16.17-9.36a9.08 9.08 0 010-4.72l-16.17-9.36A8.84 8.84 0 0145 54z"/></svg>