<svg xmlns="http://www.w3.org/2000/svg" xmlns:xlink="http://www.w3.org/1999/xlink" width="22.5" height="22.5"><defs><path d="M0 10.25C0 15.2 3.45 19 10 19c.9 0 1.75-.15 2.6-.35-.55 1.35-1.7 2.8-4.1 3.85h1c4.7 0 9.5-3.95 9.5-8.75v-8.5C13.1 10 5.9 10 0 5.25zM18 0H1C.45 0 0 .45 0 1v3c2.9 1.5 5.9 2.3 8.95 2.4C8.25 6.1 8 5.25 8 4.25 8 3 8.65 2 9.5 2S11 3 11 4.25c0 1-.15 1.85-.9 2.15 3-.1 6-.9 8.9-2.4V1c0-.55-.45-1-1-1z" id="a"/><mask id="b" fill="#fff"><use xlink:href="#a" width="100%" height="100%"/></mask></defs><g transform="translate(1.75)" fill-rule="evenodd"><use fill="#1297f7" xlink:href="#a" width="100%" height="100%"/><path d="M.016 11.66V5.25l.782.59S.732 12.422 5.2 15.09s5.825.533 7.137 1.378c1.312.845.267 2.2.267 2.2s-6.87 2.082-11.198-3.45C.368 13.895.016 11.66.016 11.66z" fill="#1b82e3" mask="url(#b)"/><path d="M18 0H1C.45 0 0 .45 0 1v3c2.9 1.5 5.9 2.3 8.95 2.4C8.25 6.1 8 5.25 8 4.25 8 3 8.65 2 9.5 2S11 3 11 4.25c0 1-.15 1.85-.9 2.15 3-.1 6-.9 8.9-2.4V1c0-.55-.45-1-1-1z" fill="#00aeff" mask="url(#b)"/></g></svg>