<svg xmlns="http://www.w3.org/2000/svg" version="1.1" id="layer" x="0" y="0" viewBox="-153 -46 600.1 600.1" xml:space="preserve" width="600.1" height="600.1"><style type="text/css" id="style12078">.st0{fill:#243be1}</style><g id="g12092" transform="translate(-21.2 -22.35)"><g id="g12090"><path class="st0" id="polygon12080" d="M238.5 203.2l52.6 146.2h37.8l24.5-79.6 24.4 79.6h37.8l52.7-146.2h-46l-28.4 78.7-23.2-78.7H336l-23.1 78.7-28.5-78.7z"/><g id="g12088"><path class="st0" d="M-131.7 203.2h71.6c40.1 0 47.6 25.1 47.6 39.7 0 19.4-13.2 29.7-23.2 32.6 8.6 2.1 24.2 11.3 24.2 33.2 0 15-7.3 40.7-47.4 40.7h-72.9V203.2zm58 57.4c13.2 0 17.8-7.5 17.8-14.8 0-6.1-2.9-14.6-17.8-14.6h-14.4v29.5h14.4zm-14.4 28.5V319h14.8c13.2 0 17.8-7.7 17.8-15 0-6.1-3.3-14.8-17.8-14.8h-14.8z" id="path12082"/><path class="st0" id="rect12084" d="M9.7 203.2h43.9v146.2H9.7z"/><path class="st0" d="M224.3 268.4h-69V297h24.2c-2.1 11.3-10.9 20.7-27.8 20.7-23.8 0-35.5-18.4-35.5-40.1 0-21.3 11.1-41.2 33.4-41.2 15 0 23.2 9.2 24.6 17.6h48.1c-2.7-30.1-31.1-54.7-72.1-54.7-49.7 0-78.3 36.1-78.3 77.9 0 41.2 27.6 76.3 78.8 76.3 40.6 0 67.2-21.8 72.6-54.5 1.1-6.4 1.5-13 1.5-19.7-.1-3.8-.2-7.4-.5-10.9" id="path12086"/></g></g></g></svg>