<svg id="Layer_1" data-name="Layer 1" xmlns="http://www.w3.org/2000/svg" viewBox="0 0 300 300"><defs><style>.cls-1{fill:#07a3d7;}</style></defs><title>BILI_Logo_Light</title><path class="cls-1" d="M220.66,246.4c-.46,7.69-6,12.33-11.55,12.9a12.39,12.39,0,0,1-9.82-3.32,12.53,12.53,0,0,1-4.17-9.43H105.85c-1.28,8.19-5.69,13.18-14.46,12.68-6-.34-9.86-5-11.39-12.65a2.44,2.44,0,0,0-1.46-.18H67.7A25.11,25.11,0,0,1,55,242.68c-10.38-6.07-16.12-15.38-18.83-26.88a46.13,46.13,0,0,1-1.05-10.73c0-31.19-.26-62.38.14-93.57.19-14.5,6.49-26.35,18.93-34.41a28,28,0,0,1,15.34-4.38c13.9-.06,27.81,0,41.71,0h2.58a5.06,5.06,0,0,0-1.49-2C106.57,65,100.83,59.27,95.13,53.53A7.34,7.34,0,0,1,93.67,45a7.63,7.63,0,0,1,12.44-2q14.25,14.28,28.48,28.56a3.39,3.39,0,0,0,2.63,1.13c8.78,0,17.57,0,26.35,0H165q6.12-6.15,12.27-12.33Q186,51.62,194.77,42.9a7.44,7.44,0,0,1,8.09-1.71,7.55,7.55,0,0,1,2.44,12.62q-8.58,8.5-17.08,17.07c-.48.48-.91,1-1.38,1.53.47.47,1,.27,1.46.27,13.59,0,27.17,0,40.75,0,12.07,0,21.18,5.42,27.92,15.12a45.81,45.81,0,0,1,8,26.74q0,44.87,0,89.73c0,10.24-2.59,19.74-8.65,28.05-5.38,7.38-12.42,12.57-21.67,13.86-3.91.54-7.94.17-11.92.21Zm-70.91-22.79q37.67,0,75.32,0a11.63,11.63,0,0,0,6.18-1.44c5.22-3.14,7.51-7.94,7.52-13.87q0-48.56,0-97.12a16.79,16.79,0,0,0-.64-5.14c-2-6.25-6.52-10.57-13.5-10.57q-75,0-149.94,0a11.87,11.87,0,0,0-7,2.15A15.72,15.72,0,0,0,60.9,111c-.07,31.92,0,63.84,0,95.75a32.28,32.28,0,0,0,.4,4.49,14.54,14.54,0,0,0,15,12.5C100.73,223.4,125.25,223.61,149.75,223.61Z"/><path class="cls-1" d="M220.94,155.89l-47.5-9.17c1.18-6.07,2.33-12,3.52-18.18,15.8,3.22,31.68,6,47.5,9.33C223.24,144.1,222.12,149.86,220.94,155.89Z"/><path class="cls-1" d="M149.9,192.59s-1.6,1.32-2.37,2c-6.4,5.76-15.2,5.35-21.85-.22-2-1.67-5.52-5.55-5.52-5.55s-1.2-1.27-1.25-1.36c2.2-1.39,5.66-3.54,7.84-4.93l1.3,1.36a20.08,20.08,0,0,0,5.69,4.89,6.75,6.75,0,0,0,7.76-1c3-2.6,4.89-6,7-9.27a16.94,16.94,0,0,1,1.43-1.85s2,2.67,2.84,4c1.71,2.7,3.36,5.45,6,7.4a6.67,6.67,0,0,0,8.14.25,22.22,22.22,0,0,0,4.48-4c.48-.54,1.75-1.75,1.74-1.75s4.9,2.95,7.28,4.67a8.89,8.89,0,0,1-2,3,23.16,23.16,0,0,1-10,7.48c-6.22,2.26-11.74.79-16.61-3.53-.51-.46-1.42-1.16-1.93-1.62C149.88,192.58,149.9,192.6,149.9,192.59Z"/><path class="cls-1" d="M79.78,156l47.5-9.17c-1.17-6.07-2.32-12.05-3.51-18.19-15.8,3.23-31.68,6-47.5,9.33C77.48,144.22,78.61,150,79.78,156Z"/></svg>