<svg xmlns="http://www.w3.org/2000/svg" viewBox="0 0 18 16">
  <path fill="#00a1d6" d="M13.57 0a.95.95 0 0 0-.74.3l-2.12 2.03a.78.78 0 0 0-.15.2H7.35a.98.98 0 0 0-.16-.2L5.07.3C4.13-.6 2.78.8 3.71 1.7l.85.82h-.58a4 4 0 0 0-4 4V12a4 4 0 0 0 4 3.99h10a4 4 0 0 0 4-4V6.52a4 4 0 0 0-4-3.99h-.64l.85-.82c.71-.68.12-1.64-.62-1.7Zm-9.6 4.45h10a2 2 0 0 1 2 2v5.63a2 2 0 0 1-2 2h-10a2 2 0 0 1-2-2V6.44c0-1.1.9-2 2-2zM12 7.12a1 1 0 0 0-1 1v.9c0 1.33 2 1.33 2 0v-.9a1 1 0 0 0-1-1Zm-6 0c-.5 0-1 .33-1 1v.9c0 1.32 2 1.32 2 0v-.9c0-.66-.5-1-1-1Z"/>
</svg>