<svg xmlns="http://www.w3.org/2000/svg" xmlns:xlink="http://www.w3.org/1999/xlink" viewBox="0 0 265 100"><defs><linearGradient xlink:href="#a" id="b" x1="-269.88" x2="-40.06" y1="86.56" y2="86.75" gradientTransform="translate(283.61 -37.63)" gradientUnits="userSpaceOnUse"/><linearGradient id="a"><stop offset="0" stop-color="#2173fa"/><stop offset=".14" stop-color="#3241de"/><stop offset=".36" stop-color="#5117bf"/><stop offset=".43" stop-color="#6911ac"/><stop offset=".55" stop-color="#92078b"/><stop offset=".63" stop-color="#a90178"/><stop offset=".72" stop-color="#c00057"/><stop offset=".8" stop-color="#cf0541"/><stop offset=".89" stop-color="#db363a"/><stop offset="1" stop-color="#eb7531"/></linearGradient></defs><path fill="url(#b)" d="M11.24 76.42h26.2c5.93 0 12.04.37 17.46-2.5 8.32-4.42 13.43-21.02 1.06-23.96 2.25-1.05 4.37-1.83 5.87-3.97 3.5-4.99 2.95-15.28-1.9-19.21-2.8-2.26-6.36-2.72-9.8-3.06-7.13-.69-14.5-.22-21.69-.22h-7.4l-2.76.02s-.52 3.03-.64 3.95c-.44 3.35-1 6.7-1.4 10.06-1.56 12.97-3.36 25.93-5 38.9M72.9 23.5l-1.85 14.56h18.21L75.01 45.4l-5.2 3.08-1.2 8.1-2.33 19.84h12.96l5 .01.53-3.71 1.35-10.06 3.13-24.6 1.97-14.6-6.42.04H72.9m16.66 52.92 16.42.02 3.44-27.52 3.67 6.35 7.5 14.02 3.82 7.14H140.9c2.25-17.69 4.25-35.23 6.62-52.9l-16.42-.03-3.44 27.79c-3.83-5.82-6.87-12.56-9.99-18.79-1.23-2.46-4.26-8.97-4.26-8.97l-4-.03h-9.27c-.96 0-3.8.05-3.8.05l-.74 5.78m105.35 16.66h-23.02c1.06 2.54 2.5 5.02 3.86 7.41.57 1.02 2.02 3.1 2.02 3.1s-2.04 2.93-2.97 3.7c-4.79 3.88-12.21.6-14.99-4.15-3.52-6.05-.54-14.5 6-17.08 3.39-1.33 7.28-.91 10.84-.91h19.32l1.85-14.56h-23.02c-4.83 0-9.86-.4-14.55.99-18.74 5.56-24.61 30.61-11.35 44.52 6.74 7.08 15.21 7.41 24.31 7.41h13.23l4.45-.02 1.18-8.18c1.05-7.38 1.48-14.9 2.84-22.23m1.06 30.43h41.27l3.35-.02.7-3.95 1.24-10.32-28.04-.26.53-4.76h23.28l1.85-14.56h-23.28l.53-4.5 28.31-.26 1.59-14.02-32.81-.27h-8.2l-3.57.02-.48 3.95L207 37.53l-4.98 38.89M31.88 44.14c.23-1.49 1.44-7.63 1.44-7.63s2.18-.04 3.06-.04c2.7 0 6.64-.52 8.83 1.45 2.68 2.41.53 5.66-2.21 6.1-1.4.23-2.84.12-4.24.12h-6.88M29.36 64c.27-1.77 1.25-8.88 1.25-8.88s3.7-.06 4.78-.06c2.98 0 6.32-.38 8.96 1.3 4.15 2.53.8 6.8-2.41 7.42-1.57.3-3.17.22-4.76.22z"/></svg>