<svg xmlns="http://www.w3.org/2000/svg" viewBox="0 0 94.9 95"><path fill="#50e4ea" stroke="#000" stroke-width="5" d="M2.5 2.5h90v90h-90z"/><path d="M24 61a13.4 13.4 0 0 1-13.4-13.4C10.6 40 15.6 35 23 35h.5A20.9 20.9 0 0 1 62 28.6a16.7 16.7 0 1 1 6.4 32.1h-7.2v-4.5h7.2a12.1 12.1 0 1 0-6.2-22.6L60 35l-1-2.3A16.4 16.4 0 0 0 44 23a16.8 16.8 0 0 0-16.5 16v1.5a18.1 18.1 0 0 0-5-.7c-4.6.2-7.4 3.2-7.4 7.9a8.9 8.9 0 0 0 8.9 8.8h4.5V61ZM43.5 65.2 35.3 57l3.4-3.4 4.8 4.8 14.3-13.9 3.4 3.5-17.7 17.2Z"/><path d="M61.2 56.2a15.3 15.3 0 1 1-8.6-13.7l2.8-4A20.1 20.1 0 1 0 66 56.1Z"/></svg>