<svg xmlns="http://www.w3.org/2000/svg" viewBox="0 0 63 90"><defs><linearGradient id="A" x1="35.676%" x2="64.568%" y1="6.52%" y2="94.184%"><stop offset="7.59%" stop-color="#e5653c"/><stop offset="100%" stop-color="#e2a432"/></linearGradient></defs><path fill="url(#A)" d="M63 31.153C63 13.97 48.873 0 31.5 0S0 13.97 0 31.153v27.673c0 3.079.449 6.133 1.343 9.057 1.926 6.264 5.91 11.889 11.216 15.853C18.044 87.831 24.604 90 31.5 90 48.873 90 63 76.03 63 58.847a30.94 30.94 0 0 0-3.291-13.837A30.83 30.83 0 0 0 63 31.15v.002zm-31.5-3.499c-9.582.067-17.373 7.837-17.373 17.314s7.79 17.249 17.529 17.314c8.978-.043 17.351-3.785 23.307-10.362a23.6 23.6 0 0 1 1.007 6.866c0 13.328-10.971 24.175-24.448 24.175-5.349 0-10.434-1.68-14.686-4.844-4.118-3.079-7.208-7.441-8.707-12.29a24.12 24.12 0 0 1-1.055-7.04V31.15c0-13.326 10.971-24.175 24.448-24.175S55.97 17.824 55.97 31.15c0 2.348-.336 4.654-1.007 6.866-5.977-6.577-14.35-10.317-23.462-10.362zm20.037 17.338c-4.567 6.465-11.954 10.317-19.925 10.338-5.756 0-10.458-4.649-10.458-10.338 0-5.67 4.68-10.319 10.412-10.34 7.992.021 15.403 3.873 19.97 10.34z"/></svg>