<svg xmlns="http://www.w3.org/2000/svg" class="header__svg-logo" viewBox="0 0 50.531 62.442" width="22.242" height="22.242" version="1.1" id="svg6456"><defs id="defs6406"><linearGradient id="logo-gradient" x1="64.01" y1="65.26" x2="32.99" y2="89.48" gradientUnits="userSpaceOnUse"><stop offset=".18" stop-color="#0052cc" id="stop6401"/><stop offset="1" stop-color="#2684ff" id="stop6403"/></linearGradient><style id="style6399"></style></defs><g class="header__svg-logo__icon" id="g6414" transform="translate(-5.93 -38.1)"><path d="M2 41.25a2 2 0 00-2 2.32l8.49 51.54a2.72 2.72 0 002.66 2.27h40.73a2 2 0 002-1.68l8.51-52.11a2 2 0 00-2-2.32zM37.75 78.5h-13l-3.52-18.38H40.9z" id="path6410" fill="#2684ff"/><path d="M59.67 60.12H40.9L37.75 78.5h-13L9.4 96.73a2.71 2.71 0 001.75.66h40.74a2 2 0 002-1.68z" id="path6412" fill="url(#logo-gradient)"/></g></svg>