<svg xmlns="http://www.w3.org/2000/svg" version="1.1" id="svg909" width="420" height="420"><style id="style894"></style><linearGradient id="a" x1="61.5" x2="358.5" y1="359.3" y2="62.3" gradientTransform="matrix(1 0 0 -1 0 420.8)" gradientUnits="userSpaceOnUse"><stop stop-color="#30b5ec" offset="0" id="stop898"/><stop stop-color="#1e58bb" offset="1" id="stop900"/></linearGradient><g id="g1482"><circle cx="210" cy="210" r="210" id="circle903" fill="url(#a)"/><path d="M305.3 202.5c-2.2-1.3-4.5-2.5-6.8-3.5h-.3l1.6-1.5c3-2.4 6-5 8.5-8 11.8-13.6 15.2-28.8 10.2-45.3-4-13.6-13.2-23.7-27.6-31-11-5.5-23.4-8-38.3-8H131l.4 119.5H76.6v47h80l-25 15.2v28h123.6c8 0 16.5-1 25-2.3 28.6-5 51-32.2 51-62 0-21.7-8.7-38-26-48.2zm-42.8-18.8c-2.5 1.7-5.7 2.6-9 3.4-2.4.7-5 .7-7.3.7h-67v-41H252c8.7.2 16 6 18.6 14.6 2.4 8.2-1 17.4-8 22.4zm-65 90h-18.3v-48h74.5c10.7 0 18.3 3.5 23.7 11 4.4 6 5.5 14 3 21.3-2.6 7-8 12.2-15 14-4.3 1-8.4 1.7-12 1.8h-56z" id="path905" fill="#fff"/></g></svg>