<svg xmlns="http://www.w3.org/2000/svg" class="header__svg-logo" viewBox="0 0 50.531 62.442" width="22.242" height="22.242"><defs><linearGradient id="a" x1="64.01" y1="65.26" x2="32.99" y2="89.48" gradientUnits="userSpaceOnUse"><stop offset=".18" stop-color="#0052cc"/><stop offset="1" stop-color="#2684ff"/></linearGradient></defs><g class="header__svg-logo__icon"><path d="M-3.93 3.15a2 2 0 0 0-2 2.32l8.49 51.54a2.72 2.72 0 0 0 2.66 2.27h40.73a2 2 0 0 0 2-1.68l8.51-52.11a2 2 0 0 0-2-2.32zM31.82 40.4h-13L15.3 22.02h19.67z" fill="#2684ff"/><path d="M59.67 60.12H40.9L37.75 78.5h-13L9.4 96.73a2.71 2.71 0 0 0 1.75.66h40.74a2 2 0 0 0 2-1.68z" fill="url(#a)" transform="translate(-5.93 -38.1)"/></g></svg>