<svg xmlns="http://www.w3.org/2000/svg" width="29" height="29"><g fill-rule="evenodd"><path stroke="currentcolor" d="M0 0h29v29H0z"/><path d="M14.562 13.077H9.5V7.224h5.21c2.478 0 3.841 1.093 3.841 2.769v.048c0 1.992-1.635 3.036-3.99 3.036zm5.971-3.303c0-1.141-.396-2.04-1.115-2.768-.99-.948-2.552-1.506-4.534-1.506H7.5v11h2v-1.723h5.409c3.023 0 4.609 1.068 4.609 2.914 0 1.943-1.636 3.085-4.262 3.085H9.5V19.5h-2v3h7.706c3.791 0 6.294-1.724 6.294-4.638 0-2.38-1.66-3.546-3.717-4.153 1.363-.583 2.75-1.725 2.75-3.935z" fill="#fff"/><path fill="#fff" d="M5.5 18.7h6v-1.5h-6z"/></g></svg>