<svg xmlns="http://www.w3.org/2000/svg" version="1.2" viewBox="0 0 88.828 88.828" height="118.437" width="118.437"><path d="M85.586 27H3.246A3.25 3.25 0 000 30.246v51.7a3.25 3.25 0 003.246 3.245h82.34a3.248 3.248 0 003.242-3.246V30.246A3.248 3.248 0 0085.586 27z" fill="#475e87"/><path d="M44.547 81.055c-13.895 0-25.195-11.305-25.195-25.196 0-13.89 11.3-25.195 25.195-25.195 13.89 0 25.191 11.305 25.191 25.195 0 13.891-11.3 25.196-25.191 25.196z" fill="#fff"/><path d="M44.547 32.828c-12.7 0-23.031 10.332-23.031 23.031 0 12.7 10.332 23.032 23.03 23.032 12.7 0 23.028-10.332 23.028-23.032 0-12.699-10.328-23.03-23.027-23.03" fill="#475e87"/><path d="M58.238 64.23c-.488.938-1.203 1.739-2.144 2.407-.946.656-2.157 1.125-3.645 1.406-.949.18-2.219.293-3.742.36v4.824c0 .902-.68 1.632-1.523 1.632-.844 0-1.528-.73-1.528-1.632V68.46h-3.054v4.766c0 .902-.684 1.632-1.528 1.632s-1.527-.73-1.527-1.632V68.46h-6.945v-1.895l1.109-.09c.894-.058 1.508-.289 1.836-.687.324-.402.488-1.398.488-2.996V47.766c0-1.614-.164-2.618-.488-3.016-.328-.398-.945-.629-1.852-.688l-1.093-.074v-1.914h6.945V37.31c0-.899.683-1.63 1.527-1.63.844 0 1.528.731 1.528 1.63v4.765h1.718c.461 0 .899.008 1.336.02v-4.785c0-.899.684-1.63 1.528-1.63.843 0 1.523.731 1.523 1.63v4.933c2.61.211 4.594.633 5.926 1.274 2 .96 2.996 2.562 2.996 4.804 0 1.621-.684 2.922-2.047 3.907-1.367.984-3.398 1.62-6.094 1.906 3.246.453 5.637 1.25 7.176 2.387 1.54 1.14 2.309 2.675 2.309 4.609 0 1.133-.246 2.168-.735 3.101z" fill="#fff"/><path d="M44.355 53.258c2.352 0 4.012-.363 4.993-1.086.976-.719 1.465-1.934 1.465-3.64 0-1.407-.415-2.516-1.243-3.325-.828-.812-1.953-1.219-3.37-1.219-1.423 0-2.364.192-2.829.574-.465.38-.695 1.45-.695 3.204v5.453c.199.011.422.023.66.027.238.008.578.012 1.02.012zM49.992 56.477c-1.23-.895-3.262-1.344-6.101-1.344-.145 0-.348.008-.618.02-.27.011-.468.019-.597.019v7.621c0 1.812.234 2.922.703 3.336.473.41 1.383.617 2.73.617 1.86 0 3.278-.5 4.258-1.496.977-.996 1.465-2.441 1.465-4.336 0-2.062-.613-3.543-1.84-4.437z" fill="#475e87"/><path d="M56.578 3.637c-7.8 0-14.637 4.113-18.476 10.285a22.995 22.995 0 0111.96 10.918h28.262C78.02 13.078 68.41 3.637 56.578 3.637zM29.688 14.46c-7.653 0-14.333 4.184-17.91 10.379h35.824C44.02 18.645 37.34 14.46 29.688 14.46" fill="#faba14"/></svg>