<svg xmlns="http://www.w3.org/2000/svg" width="28" height="28" fill="none"><g fill-rule="evenodd" clip-rule="evenodd"><path d="M14 28s11.973-4.076 11.973-19.034V3.582c0-.586-.457-1.062-1.033-1.102C22.765 2.378 17.61 1.935 14 0 10.389 1.935 5.234 2.378 3.06 2.48a1.107 1.107 0 00-1.033 1.102v5.384C2.027 23.924 14 28 14 28" fill="#00adee"/><path d="M16.262 11.53c-.011 1.559-2.43 1.36-3.21 1.354l-.005-2.754c.779.006 3.227-.225 3.215 1.4zm.612 4.29c-.012 1.712-2.917 1.496-3.851 1.49l-.005-3.036c.935.007 3.868-.241 3.856 1.545zm1.964-4.888c-.146-1.635-1.545-2.192-3.324-2.36l.008-2.284-1.38.008.006 2.206c-.363-.002-.754.002-1.122.007l.002-2.236-1.39.005.009 2.266c-.299.004-2.78.01-2.78.01L8.863 10l1.766-.003-.006 7.283-1.545.008-.013 1.66s2.185-.01 2.508-.005l.004 2.292 1.367.007.007-2.265c.378.01.744.017 1.102.02l-.006 2.256h1.39l-.005-2.278c2.32-.117 3.947-.69 4.164-2.866.175-1.752-.644-2.54-1.958-2.866.802-.401 1.307-1.116 1.199-2.312z" fill="#fefefe"/></g></svg>