<svg xmlns="http://www.w3.org/2000/svg" xmlns:xlink="http://www.w3.org/1999/xlink" width="34.929" height="34.929" viewBox="0 0 9.242 9.242"><defs><linearGradient x1="0" y1="0" x2="1" y2="0" gradientUnits="userSpaceOnUse" gradientTransform="matrix(-3.3586 3.65939 4.92309 4.40775 216.678 422.225)" spreadMethod="pad" id="e"><stop offset="0" stop-color="#d72716"/><stop offset="1" stop-color="#ed7100"/></linearGradient><linearGradient x1="0" y1="0" x2="1" y2="0" gradientUnits="userSpaceOnUse" gradientTransform="matrix(-3.3586 3.65939 4.92309 4.40775 216.678 422.225)" spreadMethod="pad" id="d"><stop offset="0" stop-opacity="0" stop-color="#fff"/><stop offset="1" stop-color="#fff"/></linearGradient><linearGradient xlink:href="#e" id="f" x1="5.486" y1="3.231" x2="6.612" y2="4.46" gradientUnits="userSpaceOnUse" gradientTransform="translate(-10.584 -.001)"/><clipPath clipPathUnits="userSpaceOnUse" id="a"><path d="M-32768 32767h64939.7v-65535H-32768z"/></clipPath><clipPath clipPathUnits="userSpaceOnUse" id="b"><path d="M215.154 413.091l-10.636 11.588 11.837 10.599 10.636-11.589z"/></clipPath><clipPath clipPathUnits="userSpaceOnUse" id="c"><path d="M215.154 413.091l-10.636 11.588 11.837 10.599 10.636-11.589z"/></clipPath></defs><path d="M2.052 4.621h-.126c-.58 0-.915-.47-.749-1.05l.422-1.47h1.176z" fill="#d72716"/><path d="M5.672 2.1h-.74l-.723 2.521h.742c.462 0 .613.35.413 1.05-.201.7-.553 1.051-1.016 1.051-.461 0-.613-.35-.413-1.05L5.259 1.05C5.426.47 5.091 0 4.51 0H3.04L1.414 5.672c-.683 2.38.236 3.57 2.21 3.57 1.975 0 3.577-1.19 4.26-3.57.682-2.38-.237-3.571-2.212-3.571" fill="#ed7100"/><path d="M-4.912 2.099h-.713l-.722 2.52h.714c.462 0 .613.35.413 1.05l2.52.002C-2.018 3.29-2.937 2.1-4.912 2.1" fill="url(#f)" transform="translate(10.584)"/></svg>