<svg xmlns="http://www.w3.org/2000/svg" width="266.667" height="266.667"><path d="M145.333 236.67c-14.965.263-25.88-4.548-26.547-17.626-.251-4.908-.172-10.135.067-13.287 1.448-19.112 14.814-32.862 28.006-35.502 16.409-3.283 27.34 4.221 27.34 25.7 0 14.517-4.031 40.281-28.866 40.716zM132.725 0C59.255 0 0 58.97 0 136.086c0 39.986 21.388 78.618 51.466 101.828 5.79 4.467 12.688 4.06 16.643.227 3.332-3.229 3.057-11.004-3.14-16.452-24.045-21.144-40.667-53.154-40.667-85.126 0-57.424 50.987-105.744 108.423-105.744 69.912 0 107.298 56.777 107.298 104.9 0 29.404-14.379 64.906-40.335 87.552.039-.102 5.39-10.628 5.39-31.126 0-34.89-22.109-53.793-47.762-53.793-18.57 0-29.689 6.639-37.256 12.83 0-14.213.476-40.755.476-40.755 0-17.52-6.137-31.544-27.528-31.85-12.38-.176-21.568 5.504-27.299 18.339-2.064 4.815-1.303 10.045 2.778 12.416 3.377 1.96 8.93.507 11.68-3.161 1.835-2.291 2.864-2.78 4.46-2.61 2.628.283 2.728 4.518 2.832 7.224.08 2.08 2.1 32.282.995 109.888 0 21.406 16.789 45.994 56.989 45.994 17.306 0 30.596-4.838 49.902-15.807 29.386-16.697 71.322-53.736 71.322-116.381C266.667 56.203 203.275 0 132.725 0" fill="#ee4e1d"/></svg>