<svg xmlns="http://www.w3.org/2000/svg" width="140.29" height="140.29"><g fill="#1598cb" fill-rule="evenodd"><path d="M85.456 78.869V61.255l-15.31-8.807-15.31 8.807V78.87l15.31 8.81 15.31-8.81"/><path d="M131.231 35.203c-1.186-2.147-2.957-3.926-5.286-5.265l-48.73-28.03c-4.517-2.598-9.817-2.486-14.122-.01l-8.28 4.763v30.335l15.333-8.82 36.477 20.982v41.967l-36.477 20.982-36.48-20.982V18.564l-19.435 11.18c-4.52 2.6-6.932 5.174-6.932 10.27V98.04c0 2.65.71 5.037 1.856 7.055 1.285 2.26 3.118 4.057 5.148 5.224l48.528 27.915c4.748 2.732 9.857 2.744 14.578.029l48.646-27.983c4.54-2.611 6.936-6.757 6.936-12.027V42.489c0-2.744-.602-5.19-1.76-7.286"/></g></svg>