<svg xmlns="http://www.w3.org/2000/svg" xmlns:xlink="http://www.w3.org/1999/xlink" width="1200" height="1200"><defs><linearGradient x1="599.967" y1="0" x2="599.967" y2="1199.934" id="b" gradientTransform="scale(1.00006 .99994)" gradientUnits="userSpaceOnUse"><stop stop-color="#091C57" offset="0%"/><stop stop-color="#142F94" offset="100%"/></linearGradient><ellipse id="a" cx="600" cy="599.933" rx="600" ry="599.933"/></defs><g transform="translate(0 .067)" fill="none" fill-rule="evenodd"><mask id="c" fill="#fff"><use xlink:href="#a" width="100%" height="100%"/></mask><use fill="url(#b)" xlink:href="#a" width="100%" height="100%"/><path d="M556.179 841.695c21.242 0 40.945-4.533 59.133-15.865 18.211-9.821 34.883-23.418 48.524-40.793 13.64-16.62 24.273-36.26 31.852-57.41 7.578-21.908 11.367-43.816 11.367-67.232 0-28.706-4.547-50.614-14.399-67.234-9.875-16.62-29.578-23.416-55.344-23.416-8.336 0-16.696.753-30.336 3.776-13.64 3.02-25.008 9.821-36.375 18.885l-58.376 246.266c18.188 3.023 37.133 3.023 43.954 3.023zM673.77 457c28.766 0 53.726 5.294 74.929 15.879 21.178 9.83 37.818 23.441 52.19 41.59 13.638 17.395 23.47 37.81 30.278 61.25 6.808 23.445 9.833 48.398 9.833 75.62 0 41.59-7.564 80.157-23.448 117.21-15.907 36.296-36.33 69.567-62.802 96.035-26.497 27.221-57.509 49.152-93.838 64.274-36.306 15.88-74.905 23.442-116.53 23.442-5.294 0-15.127 0-28.741-.756-13.639 0-29.523-1.512-46.163-3.78-17.397-3.025-36.33-6.049-55.239-10.586-19.666-4.538-37.842-11.343-55.239-19.66L514.884 264.93 654.104 243l-55.239 231.391c12.102-5.29 23.472-9.829 35.574-12.099 12.858-3.78 25.716-5.29 39.331-5.29z" fill="#fffffe" mask="url(#c)"/></g></svg>