<svg xmlns="http://www.w3.org/2000/svg" viewBox="0 0 90 90"><path d="M53.17 7.92c11.91-3.75 19.35 6.71 19.35 13.15v4.14c0 9.78-5.03 14.33-5.03 14.33S75 43.35 75 51.52v5.2c0 13.5-8.23 19.85-15.67 22.21L24.11 90l-7.94-5.8 39.1-12.28c7.2-2.26 11.8-9.6 11.8-14.79v-5.08a6.67 6.67 0 0 0-8.72-6.37l-25.5 8v12.84l-7.93 2.5V16.8ZM15 10.78l7.93 5.8V71.7l28.67-9a7.88 7.88 0 0 0 5.55-7.54v-7.04l1.8-.57a4.7 4.7 0 0 1 6.13 4.5v5.07c0 4.65-4.18 10.94-10.4 12.9L15 82.5V10.78Zm49.59 10.88c0-3.9-4.3-7.68-9.03-6.2l-22.7 7.14v22.8l22.71-7.14c5.45-1.7 9.02-6.39 9.02-12.88Zm-8.43-4.31c3.54-1.12 6.45 1.78 6.45 4.32v3.7c0 5.4-2.85 9.52-7.63 11L34.84 42.7v-8.29l15.32-4.81a6.52 6.52 0 0 0 4.51-6.19v-5.6l1.49-.46ZM43.23.68c6.18-1.96 11.2.82 12.85 2l3.57 2.6a16.95 16.95 0 0 0-7.07.76l-28.47 8.94-7.94-5.8Z" fill="#0C0C0C" fill-rule="evenodd"/></svg>