<svg xmlns="http://www.w3.org/2000/svg" fill="#6f468d" viewBox="0 0 64 64"><path d="M32 48.008a7.12 7.12 0 0 1-5.032-2.084 7.11 7.11 0 0 1-2.084-5.032h14.233a7.12 7.12 0 0 1-2.084 5.032A7.11 7.11 0 0 1 32 48.008zM16.095 32.102a4.4 4.4 0 0 0-3.11 1.288 4.39 4.39 0 0 0-1.285 3.1h8.788c0-2.427-1.967-4.394-4.394-4.394m31.843 0c-2.426.001-4.392 1.967-4.393 4.393h8.787c-.001-2.426-1.968-4.393-4.394-4.393M32 11.168a2.72 2.72 0 1 0 0-5.445c-1.503.001-2.72 1.22-2.72 2.722s1.218 2.722 2.72 2.722m26.356 40.515a4.89 4.89 0 0 1-3.445 1.638c-5.493.256-13.926.562-22.9.562s-17.418-.305-22.9-.562c-1.323-.058-2.566-.65-3.445-1.64-.882-.982-1.33-2.28-1.238-3.596.3-4.394.682-8.284 1.164-11.562.716-4.865 1.794-9.803 2.57-13.1.5-2.112 2.312-3.65 4.476-3.774 3.983-.248 10.58-.544 19.382-.544s15.4.296 19.382.544c2.164.126 3.986 1.662 4.475 3.774.78 3.287 1.856 8.228 2.57 13.1.484 3.278.875 7.168 1.164 11.56a4.88 4.88 0 0 1-1.237 3.598m4.42-15.8c-.74-5.016-1.844-10.1-2.642-13.462-.928-4-4.38-6.9-8.48-7.147-4.045-.25-10.74-.552-19.656-.552s-15.6.3-19.653.552c-4.1.238-7.55 3.148-8.48 7.147-.8 3.37-1.904 8.443-2.644 13.462-.5 3.394-.904 7.402-1.2 11.914a9.24 9.24 0 0 0 2.345 6.812 9.25 9.25 0 0 0 6.517 3.101c5.54.26 14.046.568 23.116.568a496.07 496.07 0 0 0 23.116-.568 9.25 9.25 0 0 0 6.516-3.101 9.24 9.24 0 0 0 2.345-6.812c-.297-4.512-.7-8.52-1.2-11.914"/></svg>
