<svg xmlns="http://www.w3.org/2000/svg" viewBox="0 0 90 90"><path fill="#FF0065" d="M11.9 47.15l35.4 35.4c.9.9.93 2.31.12 3.25l-.12.13-3.37 3.37c-.93.93-2.44.93-3.37 0L5.16 53.9a2.38 2.38 0 01-.13-3.24l.12-.13 3.38-3.38a2.38 2.38 0 013.37 0zM52.19 7.72c1.25 1.2 2.82 3.3 3.76 4.65.4.53.63.9.94 1.2.63.6 1.25.75 2.59.38 8.22-2.18 15.43.22 22.32 6.83 9.64 9.24 10.2 20.95-2.02 32.67L56.74 76.5c-1.26 1.2-2.31 1.3-3.57.1L3.04 26.4c-1.25-1.2-1.44-2.07-.19-3.27L18.6 7.35c11.05-10.58 23.72-9.1 33.59.37zm6.27 25.98l-10.5 10.06c-1.25 1.2-1.18 2.18.08 3.38l3.76 3.6c1.25 1.2 2.27 1.28 3.52.07l10.5-10.06c3.06-2.92 3.68-5.63 1.1-8.1-2.51-2.4-5.4-1.88-8.46 1.05zM32.84 21.6l-4 3.84c-1.25 1.2-1.17 2.17.08 3.37l3.76 3.61c1.26 1.2 2.27 1.28 3.53.07l4-3.83c2.03-1.95 2.34-4.65-.09-6.98-2.35-2.25-5.24-2.02-7.28-.07z"/></svg>