<svg xmlns="http://www.w3.org/2000/svg" width="65.1" height="65.1"><path fill="#159e49" d="M53.55 58.3h-42v6.8h42z"/><path d="M42.15 39c-1.4 1.4-3.3 2-5.7 2h-11.2V26.5h11.2c2.3 0 4.2.7 5.7 2 1.4 1.3 2.1 3.1 2.1 5.2.1 2.2-.6 4-2.1 5.3zM25.25 6.9h10.3c2.1 0 3.8.6 5.2 1.9 1.4 1.2 2 2.9 2 4.9 0 2-.7 3.6-2 4.8-1.4 1.2-3.1 1.8-5.2 1.8h-10.3zm26.1 20.5c-1.5-2.1-3.5-3.6-6-4.5 2-.9 3.5-2.2 4.7-4 1.2-1.8 1.8-3.9 1.8-6.3 0-1.9-.4-3.6-1.1-5.1-.7-1.6-1.8-2.9-3.1-4s-2.9-2-4.7-2.6c-1.8-.6-3.8-.9-6-.9h-25.4v6.4c3.9 0 7 3.2 7 7.1 0 3.9-3.1 7.1-7 7.1v5.8c3.9 0 7 3.2 7 7.1v1.1c0 3.9-3.1 7.1-7 7.1v6.4h26.5c2.3 0 4.3-.3 6.2-1 1.9-.6 3.5-1.5 4.9-2.7 1.4-1.2 2.5-2.6 3.2-4.2.8-1.6 1.2-3.4 1.2-5.4 0-2.9-.7-5.3-2.2-7.4z" fill="#333433"/></svg>