<svg xmlns="http://www.w3.org/2000/svg" viewBox="0 0 160.22 30.339"><g fill="#1a345f" fill-rule="evenodd"><path d="M146.38 4.955h-8.381V.459h22.219v4.496h-8.468V29.88h-5.369V4.955zM116.77.459v11.785h12.44V.46h5.37V29.88h-5.37V16.916h-12.44V29.88h-5.369V.459zM107.9 28.527c-1.878.699-5.545 1.659-9.472 1.659-4.978 0-8.732-1.266-11.525-3.93-2.619-2.488-4.146-6.373-4.104-10.825 0-9.298 6.636-15.278 16.37-15.278 3.623 0 6.46.741 7.814 1.397l-1.179 4.322c-1.616-.698-3.579-1.267-6.679-1.267-6.286 0-10.695 3.711-10.695 10.564 0 6.679 4.103 10.653 10.213 10.653 1.921 0 3.363-.263 4.061-.612v-7.334h-5.195v-4.233h10.39v14.884zM79.319.459V29.88H73.95V.459zM52.878 24.053c1.747 1.004 4.365 1.877 7.116 1.877 3.448 0 5.369-1.616 5.369-4.017 0-2.227-1.484-3.535-5.237-4.889-4.846-1.745-7.946-4.322-7.946-8.556C52.179 3.666 56.196 0 62.569 0c3.186 0 5.545.698 7.071 1.484l-1.31 4.322c-1.047-.569-3.1-1.397-5.849-1.397-3.405 0-4.889 1.832-4.889 3.535 0 2.27 1.703 3.318 5.632 4.847 5.106 1.919 7.594 4.494 7.594 8.73 0 4.715-3.579 8.818-11.175 8.818-3.098 0-6.329-.874-7.944-1.834z"/></g><g fill="#04a2d1" fill-rule="evenodd"><path d="M37.684 3.688h-8.95V.458h21.783v3.23h-8.993V29.88h-3.841V3.687zM25.456.459V29.88h-3.798V.459zM0 .83C1.658.48 4.278.219 6.94.219c3.798 0 6.243.654 8.076 2.14 1.528 1.134 2.445 2.88 2.445 5.195 0 2.836-1.877 5.325-4.976 6.46v.087c2.794.698 6.067 3.011 6.067 7.376 0 2.533-1.004 4.452-2.488 5.893-2.053 1.877-5.369 2.75-10.171 2.75-2.619 0-4.628-.174-5.893-.349zm3.798 12.046h3.448c4.016 0 6.373-2.094 6.373-4.931 0-3.45-2.619-4.803-6.46-4.803-1.747 0-2.749.13-3.361.262zm0 14.1c.741.132 1.832.175 3.187.175 3.928 0 7.551-1.44 7.551-5.72 0-4.014-3.448-5.674-7.596-5.674H3.798z"/></g></svg>
