<svg xmlns="http://www.w3.org/2000/svg" width="259" height="259"><path d="M234.2 3.2c-2.1-2.1-4.7-3.2-7.6-3.2H32.4c-2.9 0-5.5 1.1-7.6 3.2-2.1 2.1-3.2 4.7-3.2 7.6v129.5c0 9.7 1.9 19.2 5.6 28.7 3.8 9.5 8.4 17.9 14 25.3 5.6 7.4 12.2 14.5 19.9 21.5 7.7 7 14.8 12.8 21.3 17.4 6.5 4.6 13.3 9 20.4 13.1 7.1 4.1 12.1 6.9 15.1 8.3 3 1.5 5.4 2.6 7.2 3.4 1.3.7 2.8 1 4.4 1 1.6 0 3-.3 4.4-1 1.8-.8 4.2-1.9 7.2-3.4s8-4.2 15.1-8.3c7.1-4.1 13.9-8.5 20.4-13.1 6.5-4.6 13.6-10.4 21.3-17.4 7.7-7 14.3-14.1 19.9-21.5 5.6-7.4 10.2-15.8 14-25.3 3.8-9.5 5.6-19.1 5.6-28.7V10.8c0-2.9-1.1-5.4-3.2-7.6zm-25 138.3c0 46.9-79.6 87.2-79.6 87.2v-201h79.6z" fill="#175ddc"/></svg>