<svg xmlns="http://www.w3.org/2000/svg" viewBox="0 0 259 259"><path fill="#175ddc" d="M234.2 3.2a10.5 10.5 0 0 0-7.6-3.2H32.4c-2.9 0-5.5 1.1-7.6 3.2a10.5 10.5 0 0 0-3.2 7.6v129.5c0 9.7 1.9 19.2 5.6 28.7a108 108 0 0 0 14 25.3 158 158 0 0 0 19.9 21.5 228.5 228.5 0 0 0 41.7 30.5 241.6 241.6 0 0 0 22.3 11.7c1.3.7 2.8 1 4.4 1 1.6 0 3-.3 4.4-1a172.3 172.3 0 0 0 22.3-11.7 228.5 228.5 0 0 0 41.7-30.5 158 158 0 0 0 19.9-21.5 108 108 0 0 0 14-25.3 76.7 76.7 0 0 0 5.6-28.7V10.8c0-2.9-1.1-5.4-3.2-7.6zm-25 138.3c0 46.9-79.6 87.2-79.6 87.2v-201h79.6z"/></svg>
