<svg xmlns="http://www.w3.org/2000/svg" viewBox="0 0 54.008 38.344"><path fill="#e60000" d="M34.98 19.152c0 4.398-3.559 7.957-7.996 7.957a7.951 7.951 0 0 1-7.956-7.957c0-4.438 3.558-7.996 7.956-7.996a7.968 7.968 0 0 1 7.995 7.996zm-7.996 17.313c-9.554 0-17.35-7.757-17.35-17.313C9.634 9.556 17.43 1.8 26.984 1.8c9.594 0 17.35 7.756 17.35 17.352 0 9.556-7.756 17.313-17.35 17.313zM34.819 0c-2.798 0-5.437.52-7.835 1.6C24.625.52 21.947 0 19.188 0 8.555 0 0 8.517 0 19.152c0 10.596 8.555 19.192 19.188 19.192 2.759 0 5.437-.64 7.796-1.679 2.398 1.04 5.037 1.68 7.835 1.68 10.594 0 19.189-8.597 19.189-19.193C54.008 8.517 45.413 0 34.819 0Z"/></svg>