<svg xmlns="http://www.w3.org/2000/svg" width="49.4" height="49.4"><path d="M14.6 46.7l.7-1.6 1-1.6 2.2-2.5 1.9-2.1.9-1.3.7-1.3.4-1.5v-1.3L22 32l-.8-1.1-1.8.7-1.2.1H17l-1.6-.4-1.6-.6-.8.4-.8.2-2.4.8-.6.5-.4 1.3-.3.6-.5.2H6.3l-1.4-.2L1.4 33l-.6-.7-.4-1.1-.2-1.4-.2-1.7.1-.4.9-.9v-.9l11.6-8.8v-.9l.3-.9 5.6-3.5-.2-.6.1-.4.8-1.6v-.3l-1-.5-1.1-.1-.7.1-1.4.4-.4-.2.2-.6.3-.5.7-1 .5-.7.6-.5 1.1-.7 1.7-.8 1.4-.4 1.3.8L23 3l1.6-.2 1.6-.1 1.6.1 1.3.2 2 .8-.1 1.6 1.2-1.2 1.5.6 2 .9 1.4 1L39 8.2l2 2.3v1.2l1.5-.1 1 .7 1.9 1.8 1 1.3.8 1.4 1 2.3-1.3 1.6 1.6.4.5 1.6.2 1.7.2 2.4-.1 3.4-.3 3.2-1.4.9 1.2.9-.3 3.8-.7 2.3-1.8 2.4-3.1 3z"/></svg>