<svg xmlns="http://www.w3.org/2000/svg" width="400" height="400" viewBox="0 0 105.83333 105.83334"><g fill="#42d31a"><path fill="#fff" d="M35.454 30.453c0 .588 0 1.176.002 1.764.002 1.48-.023 2.96.031 4.44.025.326.042.656.124.974.091.366.269.716.536.986a1.689 1.689 0 0 0 .94.5c.274.175.509.403.738.633l.275.28v17.65h9.037l-.177-20.096c-.182-.355-.36-.712-.532-1.072-.328-.68-.655-1.362-1.053-2.004a8.6 8.6 0 0 0-3.74-3.256c-.245-.11-.49-.215-.742-.307-.936-.344-1.916-.546-2.898-.705-.33-.054-.66-.102-.99-.157l-1.551-.252v.622zM15.34 31.488l.04 8.838c.016 3.127.033 6.253.054 9.38.013 1.93.028 3.86.04 5.791l.015 2.01 1.418.035.092.002.36.01.046.001.405.012c1.282.038 2.564.082 3.847.09h.046c.148 0 .297-.007.446-.013.343-.017.689-.069 1.007-.203.132-.055.258-.123.375-.204.415.24.85.449 1.308.593.315.103.636.188.96.251.99.193 2.01.198 3.005.049a10.634 10.634 0 0 0 2.692-.785c.436-.187.858-.41 1.258-.666a9.879 9.879 0 0 0 2.85-2.809c.145-.214.284-.431.405-.66.322-.603.542-1.26.66-1.933.276-1.477.316-2.99.19-4.485a14.6 14.6 0 0 0-.19-1.478c-.159-.852-.42-1.692-.83-2.46a11.188 11.188 0 0 0-.434-.726c-.648-1.004-1.439-1.923-2.38-2.663a5.404 5.404 0 0 0-.49-.351c-.742-.471-1.57-.795-2.418-1.017a9.605 9.605 0 0 0-4.143-.184c-.558.101-1.107.257-1.633.47v-7.427h-9.003l.002.532zm63.325 6.257c-.609.01-1.216.076-1.814.19a10.64 10.64 0 0 0-3.28 1.208 8.563 8.563 0 0 0-3.08 3.079c-.23.392-.427.802-.594 1.225-.343.858-.568 1.76-.697 2.674a9.698 9.698 0 0 0-1.45-3.324 10.59 10.59 0 0 0-2.31-2.446 11.887 11.887 0 0 0-6.686-2.413 11.338 11.338 0 0 0-1.28.03 11.444 11.444 0 0 0-5.692 2.09 10.47 10.47 0 0 0-2.396 2.378 8.989 8.989 0 0 0-1.4 2.89c-.116.429-.195.869-.235 1.312-.07.817-.135 1.637-.1 2.457.008.223.026.446.061.667.092.593.283 1.166.518 1.717.138.327.291.647.449.965a12.29 12.29 0 0 0 3.458 3.968 9.175 9.175 0 0 0 2.777 1.367c1.007.306 2.057.46 3.108.494.408.011.817 0 1.224-.027a11.823 11.823 0 0 0 3.643-.816 5.93 5.93 0 0 0 .508-.228c.73-.374 1.415-.832 2.051-1.35.579-.47 1.117-.99 1.618-1.543.321-.357.613-.741.873-1.146a9.4 9.4 0 0 0 1.223-2.856c.113 1.023.35 2.039.773 2.98.265.59.605 1.149 1.02 1.646a8.286 8.286 0 0 0 1.959 1.698c.762.487 1.585.872 2.425 1.206.364.142.742.246 1.125.318v8.375l1.413-.06.142-.006.142-.006.046-.002.305-.011c1.316-.05 2.632-.087 3.946-.171.899-.066 1.794-.271 2.608-.664.224-.11.448-.223.665-.347a10.497 10.497 0 0 0 2.294-1.793c.089-.088.171-.181.25-.278.55-.652 1.034-1.368 1.37-2.155.15-.35.267-.715.353-1.086.23-.965.324-1.955.374-2.943.026-.503.043-1.006.061-1.509.072-3.2.052-6.401.053-9.602 0-.784.002-1.568.001-2.352V38.1h-8.73v.23a7.87 7.87 0 0 0-3.092-.585zm-19.768 8.557c.103.004.21.009.306.05.034.022.061.053.093.078.35.308.682.64.972 1.005.039.07.046.152.053.23.014.203-.005.405-.021.606a2.07 2.07 0 0 1-.748 1.322c-.201.162-.436.282-.687.341-.322.09-.67.06-.983-.054a1.922 1.922 0 0 1-.97-.772 1.865 1.865 0 0 1-.197-.445 1.833 1.833 0 0 1 .115-1.28c.07-.146.159-.282.262-.406.178-.256.428-.468.724-.572.096-.034.197-.05.297-.063a4.467 4.467 0 0 1 .675-.04c.036-.002.072-.001.109 0zm21.223.02c.166 0 .331.023.488.075.456.148.846.494 1.042.932.063.13.115.263.149.403.083.333.081.692-.034 1.017-.046.128-.111.25-.193.36l-.026.034a2.074 2.074 0 0 1-.806.614 2.91 2.91 0 0 1-.689.21 1.245 1.245 0 0 1-.456-.1 5.338 5.338 0 0 1-.484-.22 1.58 1.58 0 0 1-.598-.744 2.005 2.005 0 0 1-.094-1.23c.048-.193.13-.377.244-.54.264-.42.713-.72 1.204-.794.084-.013.169-.019.253-.017zm-53.803.29c.182.001.364.035.531.106.383.16.7.478.85.866.079.209.105.435.091.656a1.753 1.753 0 0 1-.321.907 1.835 1.835 0 0 1-.758.473c-.327.111-.678.151-1.022.118a1.047 1.047 0 0 1-.676-.397 1.615 1.615 0 0 1-.369-.9 1.83 1.83 0 0 1 .218-1.082c.115-.2.279-.375.481-.49.293-.173.635-.261.975-.257z"/><path d="M52.017 99.96c-.45-.424-2.01-3.81-4.948-10.716L42.783 79.11H30.03c-7.382 0-13.361-.105-14.181-.264-2.117-.397-4.975-1.905-6.51-3.44-1.56-1.56-3.068-4.286-3.492-6.297-.211-.952-.29-8.308-.29-23.415 0-18.945.052-22.252.396-23.601 1.27-4.869 5.318-8.6 10.187-9.367 2.38-.396 71.199-.396 73.554 0 4.736.741 8.652 4.128 10.054 8.626.503 1.667.53 2.434.53 24.262 0 14.208-.107 22.94-.292 23.68-.714 3.149-3.413 6.641-6.27 8.176-2.937 1.561-3.652 1.64-17.675 1.64H63.315l-4.286 10.134c-2.382 5.556-4.498 10.292-4.737 10.53-.793.794-1.534.847-2.275.186zm32.914-36.063c.794-.45 1.826-1.297 2.302-1.932 1.561-2.063 1.667-2.83 1.667-13.07v-9.208h-5.556V41.354l-.582-.529c-1.456-1.323-3.413-1.773-5.662-1.323-4.234.873-6.456 3.89-6.456 8.758 0 4.075 1.111 6.112 4.127 7.594 1.35.661 2.038.846 3.228.846 1.905-.026 3.493-.45 4.419-1.19l.74-.583-.185 1.165c-.37 2.302-1.587 3.44-3.704 3.44h-1.217v5.344l2.725-.106c2.382-.08 2.858-.185 4.154-.873zm-53.816-8.123c1.508-.688 2.963-2.17 3.651-3.625.741-1.667.768-5.609.053-7.673-.529-1.56-2.143-3.519-3.44-4.206-2.698-1.403-6.138-1.165-8.016.555l-.609.53v-8.811h-5.82l.052 11.72.08 11.695 2.857.08c2.699.08 2.831.053 2.831-.477 0-.661.08-.661 1.297.133 1.852 1.243 4.55 1.27 7.064.08zm30.983.265c1.614-.582 3.81-2.46 4.683-4.022 2.884-5.027-.397-11.112-6.641-12.33-3.916-.767-8.15 1.138-10.001 4.525-.583 1.111-.794 1.852-.874 3.44-.105 1.772-.026 2.195.609 3.624.767 1.72 2.513 3.599 4.101 4.419 2.302 1.19 5.477 1.323 8.123.344zm-16.643-9.023-.079-9.048-.873-1.773c-1.217-2.46-3.149-3.784-6.324-4.313l-1.137-.185v2.937c0 2.513.053 2.937.423 2.937.238 0 .82.397 1.323.9l.9.899v16.722h5.846z"/><path d="M78.66 51.197c-1.746-.741-2.434-3.122-1.402-4.816 1.43-2.354 4.763-2.143 5.874.37.82 1.88 0 3.81-1.984 4.552-.98.37-1.456.344-2.487-.106zM24.395 50.906c-1.958-1.35-1.747-4.525.37-5.53 2.91-1.376 5.689 1.508 4.207 4.366-.741 1.455-3.255 2.09-4.577 1.164zM56.7 51.065a3.374 3.374 0 0 1-1.058-4.79c.767-1.137 1.587-1.56 3.069-1.56.979 0 1.296.132 2.17 1.031.873.874 1.031 1.191 1.031 2.17 0 2.831-2.883 4.577-5.212 3.149z"/></g></svg>