<svg xmlns="http://www.w3.org/2000/svg" viewBox="0 0 439 424.1"><path fill="#92cad3" d="M187 8.8a6.6 6.6 0 0 1-5 3 6.6 6.6 0 0 1 5-3" opacity=".1" style="isolation:isolate"/><path fill="#86bbc9" d="M263 13.8a11 11 0 0 1 6 5c-2.7-1-4.7-2.7-6-5" opacity=".1" style="isolation:isolate"/><path fill="#668c97" d="M173 18.8c-1.8 2.7-4.1 4.7-7 6 1.7-2.8 4-4.8 7-6" opacity=".4" style="isolation:isolate"/><path fill="#8eaabc" d="M269 18.8a29 29 0 0 1 11 11 86 86 0 0 1-11-11" opacity=".2" style="isolation:isolate"/><path fill="#f6f9f9" d="M212 15.8v18c-1-4.2-1.4-8.5-1-13a8.8 8.8 0 0 0-5 1.5 93 93 0 0 1-12 11.5c-4.4 4.6-8.2 9.6-11.5 15a58 58 0 0 0-4.5 9c-1.3.8-2.5 1.8-3.5 3a97 97 0 0 0-7 23 448 448 0 0 0-.5 30h3c1.8 10.4 4 20.7 6.5 31a484 484 0 0 1 25.5 42c.3 3 1.7 5.5 4 7.5-.4 1-1 1.5-2 1.5a1054 1054 0 0 1-33-45 183.3 183.3 0 0 1-18.5-36c-8-48 10.5-81.2 55.5-99.5 1.5-.8 2.9-.6 4 .5"/><path fill="#6b92a0" d="M164 26.8c-1.6 3.2-4 5.9-7 8 1.6-3.3 3.9-6 7-8" opacity=".3" style="isolation:isolate"/><path fill="#fdd8dd" d="M212 33.8c-.2 1.7 0 3.3.5 5 1.6 1.3 2.8 3 3.5 5 6.6 2.5 11.8.8 15.5-5a6.6 6.6 0 0 1 3 3 82 82 0 0 1 5-11c1.8.6 3.3 0 4.5-2 .7.4 1.6.7 2.5 1 2.4-1 4.9-1.7 7.5-2q3 3.6 6 9v2q-.4 3.9-1.5 0a7.2 7.2 0 0 1-2.5 2 40 40 0 0 0-15-.5l-2.5 2.5c-1.2 4-2.7 7.9-4.5 11.5.2 3.7 2.2 5.6 6 5.5-.3 2.2.3 4 2 5.5l-7 1c1.5 2.2 3.1 4.2 5 6a29 29 0 0 0-2 9.5l2 16c1.3-.2 2.7 0 4 .5l-4 8c3 .7 5.7 2 8 4q-.5 2.4-3 3c2.2 1.3 2.2 3 0 5-2-.3-3.8-1-5.5-2.5 1 7.2 1.8 14.5 2.5 22a16.9 16.9 0 0 0 1-8h13c-.3-2.4.4-4.4 2-6l2 6.5c-1.3-.1-2.3 0-3 .5a21 21 0 0 1 2 7 200.5 200.5 0 0 0-12 24 96.5 96.5 0 0 0-10 16c-2.3.9-3.5-.1-3.5-3-3.6 2.6-4.4 5.9-2.5 10l-.5 2q-1-1.8-1.5 0c-.6 1.8 0 3.5 2 5l-1 2c-1.1-.1-2.1-.4-3-1a276 276 0 0 0 0-46c-.6-6 0-11.7 2-17h1a3 3 0 0 0 3-1c3.7-6.3 3.8-12.6.5-19-6.5-5.8-14-7.5-22.5-5-.2-1.4.1-2.5 1-3.5-5.7-3-5.3-4 1-3 3.4 6 6.8 6 10 0a53 53 0 0 0 10-1.5c-1-4-1.3-8-1-12h-8v-6h-16v3h-5c-.4 5.3-1 10.7-2 16-1-1.2-1.8-1.2-2.5 0a8.4 8.4 0 0 0-.5 4h4c.3 2.9-.7 5.2-3 7a4.3 4.3 0 0 0 3 2.5l-6 2a7.7 7.7 0 0 1 3 4c-2 4.2-2.3 8.5-1 13-1 .6-1.8.4-2.5-.5a10.9 10.9 0 0 1-.5-9.5c-2.3-7.1-3.6-6.6-4 1.5 1.8 5 1 9-2.5 12a9.9 9.9 0 0 1-2 5c-3.4-6.2-6-5.6-8 2a7.9 7.9 0 0 1-1.5-8.5 87.3 87.3 0 0 1 1-74.5q1.8-4.7 4.5-9c3.3-5.4 7.1-10.4 11.5-15a93 93 0 0 0 12-11.5 8.8 8.8 0 0 1 5-1.5c-.3 4.5 0 8.8 1 13"/><path fill="#8bbdc5" d="M282 31.8c1.4.4 2 1.4 2 3-1.4-.5-2.1-1.5-2-3" opacity=".1" style="isolation:isolate"/><path fill="#7d9cb8" d="M157 34.8c0 1.5-.6 2.5-2 3-.1-1.6.6-2.6 2-3" opacity=".2" style="isolation:isolate"/><path fill="#fed6d8" d="M260 38.8c16.3 33 16 66-1 99a21 21 0 0 0-2-7c.7-.5 1.7-.6 3-.5l-2-6.5a7.2 7.2 0 0 0-2 6h-13a16.9 16.9 0 0 1-1 8c-.7-7.5-1.6-14.8-2.5-22 1.7 1.4 3.5 2.2 5.5 2.5 2.2-2 2.2-3.7 0-5q2.5-.6 3-3c-2.3-2-5-3.3-8-4l4-8a8.4 8.4 0 0 0-4-.5l-2-16a29 29 0 0 1 2-9.5 36.5 36.5 0 0 1-5-6l7-1a5.8 5.8 0 0 1-2-5.5c-3.8 0-5.8-1.8-6-5.5 1.8-3.6 3.3-7.5 4.5-11.5l2.5-2.5c5-.8 10-.7 15 .5a7.2 7.2 0 0 0 2.5-2q1.1 3.9 1.5 0"/><path fill="#90a5c2" d="M287 38.8c1.4.4 2 1.4 2 3-1.4-.5-2.1-1.5-2-3" opacity=".2" style="isolation:isolate"/><path fill="#aec9d1" d="M289 41.8c1.4.4 2 1.4 2 3-1.4-.5-2.1-1.5-2-3" opacity=".1" style="isolation:isolate"/><path fill="#7fa7b2" d="M151 43.8c0 1.5-.6 2.5-2 3-.1-1.6.6-2.6 2-3" opacity=".2" style="isolation:isolate"/><path fill="#a0bccd" d="M149 46.8a66 66 0 0 1-6 14 36.4 36.4 0 0 1 3.5-11 4.3 4.3 0 0 1 2.5-3" opacity=".1" style="isolation:isolate"/><path fill="#7596a2" d="M297 57.8a56 56 0 0 1 5 16c-2.5-5-4.1-10.4-5-16" opacity=".5" style="isolation:isolate"/><path fill="#1b3549" d="M272 41.8a8 8 0 0 1 6.5 4c1.6 5.5 3.6 10.8 6 16a16 16 0 0 1 2-7c1.7 1 2.2 2.1 1.5 3.5 1.4 4 2.2 8.1 2.5 12.5 1.4 2.2 2.6 4.5 3.5 7h3c-.2-1 0-2 .5-3 .3 3 1 6 2 9 1-2 1.8-4 2.5-6 .8 8 1.1 16 1 24v5a71 71 0 0 0-2 4l-3-1.5c1.2-1 1.2-1.8 0-2.5-1 1.1-1.8 1.1-2.5 0l-1-4a38 38 0 0 0-3.5 21 5 5 0 0 1-4 2.5q-.9 2.8-3 4.5a89.4 89.4 0 0 0-14 17 31.6 31.6 0 0 0-9.5 20 18 18 0 0 0-5 10c-1.7-1.4-3-3-4-5a65 65 0 0 0-8 11q-1 1.8-1.5 0a905 905 0 0 1 41.5-56c2.2-3 3.7-6.4 4.5-10a53 53 0 0 0 1-25c-.3-18.9-6-35.9-17-51"/><path fill="#6791a0" d="M139 73.8c.1 4.9-.6 9.5-2 14-.2-5 .5-9.6 2-14" opacity=".4" style="isolation:isolate"/><path fill="#6f95a2" d="M302 73.8c1.5 4 2.2 8.4 2 13 .3 5.2 0 10.2-1 15 .1-8-.2-16-1-24z" opacity=".2" style="isolation:isolate"/><path fill="#7da0af" d="M95 92.8c-9.7-.1-19.4.2-29 1a68.2 68.2 0 0 1 29-1" opacity=".2" style="isolation:isolate"/><path fill="#9fcbd1" d="M59 94.8c-4.1 1.7-8.5 3-13 4a25 25 0 0 1 13-4" opacity=".2" style="isolation:isolate"/><path fill="#8bb5c2" d="M377 94.8c7 0 13.4 2 19 6z" opacity=".1" style="isolation:isolate"/><path fill="#97bcc5" d="m339 94.8-22 7h-2a80.3 80.3 0 0 1 24-7" opacity=".2" style="isolation:isolate"/><path fill="#715d6f" d="M289 92.8a53 53 0 0 1-1 25c.8-8.3 1-16.7 1-25"/><path fill="#95b5c9" d="M407 106.8c4.2 1.5 7.5 4.2 10 8a43.4 43.4 0 0 1-10-8" opacity=".1" style="isolation:isolate"/><path fill="#f6f9f9" d="M136 121.8c-2.5 1.1-4.5.4-6-2l-7.5 2c-8.6-1-17-2.2-25.5-3.5a49 49 0 0 0-17 .5 119 119 0 0 0-35 7.5c-1.3 1.8-3 3-5 3.5-2.4.1-4 1.3-5 3.5-3.5.9-6.9 2-10 3.5-1.8 0-2.8-.8-3-2.5.9-1.5 1.5-3 2-4.5 27.4-21.9 58-28 92-18.5 7 3.2 13.6 6.7 20 10.5"/><path fill="#1b3d51" d="m377 94.8 19 6c4 1.2 7.8 3.2 11 6 2.9 3 6.2 5.8 10 8 1.6 1 3 2.3 4 4 1.2 2.9 3.2 5.2 6 7a58.9 58.9 0 0 1 10 25c1.3 10.3 1.3 20.6 0 31q-2.5 14.3-9 27c-.6-1.5-1.4-2.8-2.5-4a8 8 0 0 1-5.5 2c0-1.5-.3-2.8-1-4 1.6-3.1 2.4-6.4 2.5-10a21 21 0 0 1 3.5-6.5 63 63 0 0 1-1-15.5v-11a145 145 0 0 0-19 4c-7 1.5-9.8-1.2-8.5-8a52.6 52.6 0 0 1 21.5-12c1-1.3 1.3-2.6.5-4l-4.5-7q-14-17.8-36-22.5c-10.6-2.4-21.2-3-32-2a108.4 108.4 0 0 1-27 4l-1-1c1.4-.5 2-1.3 1.5-2.5a11 11 0 0 0-5.5-5.5q1.8-.4 3-1.5l22-7a91.5 91.5 0 0 1 38 0"/><path fill="#698a94" d="M29 108.8c-2.4 3.4-5.4 6-9 8 2.4-3.4 5.4-6.1 9-8" opacity=".4" style="isolation:isolate"/><path fill="#1b465e" d="M315 101.8h2q-1.2 1.1-3 1.5a11 11 0 0 1 5.5 5.5c.4 1.2 0 2-1.5 2.5l1 1c3 0 6-.2 9-.5a114 114 0 0 0-30 18c-5.2.2-8.2 2.8-9 8-3.4 0-5 1.6-5 5-2.2.3-3.5-.5-4-2.5a19.8 19.8 0 0 1 3-4.5 7 7 0 0 0 1-5q2.1-1.7 3-4.5a5 5 0 0 0 4-2.5 38 38 0 0 1 3.5-21l1 4c.7 1.1 1.6 1.1 2.5 0 1.2.7 1.2 1.6 0 2.5l3 1.5a71 71 0 0 1 2-4q1.5 2 3 0c2.2-3 5.2-4.6 9-5"/><path fill="#fddce1" d="M178 57.8a87.3 87.3 0 0 0-1 74.5c-1.2 3-.7 5.9 1.5 8.5 2-7.6 4.6-8.2 8-2a9.9 9.9 0 0 0 2-5c3.5-3 4.3-7 2.5-12 .3-8.1 1.7-8.6 4-1.5-1.3 3.2-1.2 6.3.5 9.5.7 1 1.5 1 2.5.5-1.4-4.5-1-8.8 1-13a7.7 7.7 0 0 0-3-4l6-2a4.3 4.3 0 0 1-3-2.5c2.3-1.8 3.3-4.1 3-7h-4a8.3 8.3 0 0 1 .5-4c.7-1.2 1.5-1.2 2.5 0 1-5.3 1.6-10.7 2-16h5v-3h16v6h8c-.3 4 0 8 1 12a53 53 0 0 1-10 1.5c-3.3 6-6.6 6-10 0-6.3-1-6.7 0-1 3-.9 1-1.2 2.1-1 3.5q-8.6 10.5-4.5 24c2.4 1.3 3 3.2 1.5 5.5 1.8.3 2.1 1 1 2a5 5 0 0 1 2 3.5l-.5 47-3 2c-.7-1.4-1.4-1.4-2 0-.6-2.5-1.8-3.2-3.5-2a484 484 0 0 0-25.5-42 505 505 0 0 1-6.5-31h-3a448 448 0 0 1 .5-30 97 97 0 0 1 7-23c1-1.3 2.2-2.3 3.5-3"/><path fill="#8ab0c1" d="M421 118.8c2.7 1.7 4.7 4 6 7-2.8-1.8-4.8-4.1-6-7" opacity=".3" style="isolation:isolate"/><path fill="#193e51" d="M235 .8c7.8 1.9 15.1 4.9 22 9 .4 1.4 1.4 2 3 2 .4 1.4 1.4 2 3 2 1.3 2.3 3.3 4 6 5 3.3 4 7 7.6 11 11l2 2c-.1 1.5.6 2.5 2 3 1.7.7 2.7 2 3 4-.1 1.5.6 2.5 2 3-.1 1.5.6 2.5 2 3 2.7 3.9 4.7 8.2 6 13 .9 5.6 2.5 11 5 16v4c-.7 2-1.5 4-2.5 6-1-3-1.7-6-2-9a5 5 0 0 0-.5 3h-3c-1-2.5-2-4.8-3.5-7-.3-4.4-1-8.5-2.5-12.5.7-1.4.2-2.6-1.5-3.5a16 16 0 0 0-2 7c-2.4-5.2-4.4-10.5-6-16a8 8 0 0 0-6.5-4c-5.7-5.7-11.7-11-18-16a101.3 101.3 0 0 0-24-12q-1.5-2-3 0a12.5 12.5 0 0 0-9.5 11q-4-2-4.5-6c.2-1.3-.1-2.3-1-3-1.1-1.1-2.5-1.3-4-.5-45 18.3-63.4 51.5-55.5 99.5 4.8 12.7 11 24.7 18.5 36a2.4 2.4 0 0 1-2-.5 57.7 57.7 0 0 1-8.5-9.5c-.2-5-2.3-8.6-6.5-11a10 10 0 0 0-5-8l-2.5-6-1 6c-.8-1.7-2-2.2-3.5-1.5a9 9 0 0 0-1 5.5l-5-4c-6.4-3.8-13-7.3-20-10.5a97.7 97.7 0 0 0-92 18.5c-3.4-.7-5.4.6-6 4-2 2-3.7 2-5 0-2 1-2.4.6-1-1.5q6 .3 0-3l2-1c-.8-.7-1.1-1.5-1-2.5.6-1 1-2 1-3a25.9 25.9 0 0 1 6-6c3.6-2 6.6-4.6 9-8a68.8 68.8 0 0 1 17-10c4.5-1 8.9-2.3 13-4 2.2-.8 4.6-1 7-1a338 338 0 0 1 29-1c4.1-.2 8.1.5 12 2l22 8c2.3 1 4.4 2.4 6.5 4 .1-6.6.6-12.9 1.5-19 1.4-4.5 2.1-9.1 2-14 0-2.7.6-5.2 2-7.5l-1-1q1.9-2.2 3-4.5a66 66 0 0 0 6-14c1.4-.5 2-1.5 2-3 .8-2.4 2.1-4.4 4-6 1.4-.5 2-1.5 2-3 3-2.1 5.4-4.8 7-8a3 3 0 0 1 2-2c2.9-1.3 5.2-3.3 7-6a46.6 46.6 0 0 1 9-7 6.6 6.6 0 0 0 5-3 15 15 0 0 1 7-3 499 499 0 0 0 21-5.5c6.7-.5 13.3-.4 20 .5" style="isolation:isolate"/><path fill="#94b6cb" d="M107 94.8c8 .9 15.3 3.5 22 8z" opacity=".1" style="isolation:isolate"/><path fill="#f4dbe6" d="M230 13.8c-1.3 1-2 2.5-2 4.5l.5 4.5c.9-.6 1.9-1 3-1 2.7 1 5.5 1.7 8.5 2a3 3 0 0 0 1 3c1.2.4 2.2 1 3 2-1.2 2-2.7 2.6-4.5 2a82 82 0 0 0-5 11 6.6 6.6 0 0 0-3-3c-3.7 5.8-8.9 7.5-15.5 5-.7-2-1.9-3.7-3.5-5a13 13 0 0 1-.5-5v-5l2 9c3.6 6.2 7.8 6.6 12.5 1 1-2.6 1.4-5.3 1.5-8a125.5 125.5 0 0 1-1-17q1.5-2 3 0"/><path fill="#506475" d="M212 15.8c.9.7 1.2 1.7 1 3a219 219 0 0 1 1 19l-2-9z"/><path fill="#f5eef4" d="M230 13.8a101.3 101.3 0 0 1 24 12v2c-2.6.3-5.1 1-7.5 2-1-.3-1.8-.6-2.5-1a6.9 6.9 0 0 0-3-2 3 3 0 0 1-1-3c-3-.3-5.8-1-8.5-2-1.1 0-2.1.4-3 1l-.5-4.5c0-2 .7-3.5 2-4.5"/><path fill="#0c2c3d" d="M227 13.8c0 5.6.2 11.3 1 17 0 2.7-.6 5.4-1.5 8-4.7 5.6-9 5.2-12.5-1 0-6.4-.4-12.7-1-19q.5 4 4.5 6c.8-5.8 4-9.5 9.5-11"/><path fill="#fdeae6" d="M80 118.8a49 49 0 0 1 17-.5c8.4 1.3 17 2.5 25.5 3.5l7.5-2c1.5 2.4 3.5 3.1 6 2 0 1.6.6 3 2 4l-1.5 1c-10.5-1-20.7-3.2-30.5-6.5-8.7-1.1-17.3-1.6-26-1.5"/><path fill="#fdd8dd" d="m414 132.8 4.5 7c.8 1.4.6 2.7-.5 4a52.6 52.6 0 0 0-21.5 12c-1.3 6.8 1.5 9.5 8.5 8l17-2v6a9.9 9.9 0 0 0-4.5 8c-1.3 1-2.5 2.2-3.5 3.5q-17.4 47-66 58.5c-.5 1.1-1.5 1.8-3 2l-37 5h-5c-6.3-2.7-12.6-5-19-7-.4-.8-1.1-1.3-2-1.5.4-.5.8-1 1-1.5l-27-6.5a4.5 4.5 0 0 1 0-5.5c3.5-1.3 7.2-2.1 11-2.5l2-2c12.6-5 25.2-9.7 38-14 .7-.7 1-1.5 1-2.5 2.7-2.9 5.4-2.7 8 .5 7.9 1 14-1.8 18.5-8.5 1-4.8.2-9.1-2.5-13a6.5 6.5 0 0 0-4-6 331 331 0 0 0-16-2c-.4 5-1.8 9.6-4 14a87.5 87.5 0 0 1-20 3c-4.5-.2-8.6-.6-12.5-1a9.3 9.3 0 0 1-9.5 5c-.2 6.3-3.5 9-10 8v-3a40 40 0 0 0 5-7c4.7-2.5 8-6.1 10-11 3-1.5 4.8-3.8 5.5-7 5.3-6 10.1-12.3 14.5-19q18.6-17.6 42-28.5c16.1-5.7 32.8-7 50-4 5.3 2.8 11 4.8 17 6 4.5 1.7 8.8 3.8 13 6.5.8-.5 1.1-1.2 1-2"/><path fill="#7d9cb0" d="M14 122.8c0 1-.4 2-1 3l-4 3a11 11 0 0 1 5-6" opacity=".2" style="isolation:isolate"/><path fill="#17344c" d="M230 129.8h-1c-.4-2.3.3-4.1 2-5.5l-2-1c3-14.5-2.7-18.7-17-12.5-2.2 1.7-2.6 3.7-1 6a9.3 9.3 0 0 0-2 7.5l3 1q5.4 5.5 6 13.5c-1 2.6-1.3 5.1-1 7.5.4 10.2 1.6 20.3 3.5 30.5a151 151 0 0 0 1.5-15h3v32c-1.6 2-3.6 2.4-6 1 1.2-3.7.5-7-2-10a25 25 0 0 1-3 8c.3-20.6 0-40.9-1-61a14 14 0 0 1-6-12.5c2.4-13.2 9.7-17 22-11 6.3 6.8 6.6 14 1 21.5"/><path fill="#1a3d4d" d="M13 125.8c-.1 1 .2 1.8 1 2.5l-2 1q6 3.3 0 3c-1.4 2-1 2.6 1 1.5 1.3 2 3 2 5 0 .6-3.4 2.6-4.7 6-4-.5 1.5-1.1 3-2 4.5.2 1.7 1.2 2.5 3 2.5 4.7 2.6 9.7 4.7 15 6.5a32 32 0 0 1 7.5 5.5c.7 1.9.5 3.7-.5 5.5q-4.3 1.9-9 1.5a146 146 0 0 0-24-4 91.3 91.3 0 0 0 47 87c-1 2.4-.3 4.5 2 6.5-.5.4-.8.9-1 1.5a32 32 0 0 0 5 4.5c-4.8 2.2-8.6 1-11.5-3.5-1 .8-2.2 1.1-3.5 1-5.4-2.4-10-5.7-14-10a4 4 0 0 1 3.5 2l.5-1a46 46 0 0 1-6-5.5l2-1c-1.5-.9-2-2-1.5-3.5a6.9 6.9 0 0 1 3 5c1.6-1.3 3.4-2 5.5-2.5-2.2-.5-2.9-1.5-2-3-1-.7-1.8-.5-2.5.5-1.7-3.6-4.5-5-8.5-4 1.4-6.2-.4-11.2-5.5-15l-11-22c-.3-3.3-.8-6.4-1.5-9.5l-4-2q-1.8-3.1 0-6c-2.3-3.4-4-7.1-5-11a23 23 0 0 0 8-13.5l-1-1c-1.5 1-2.8 2.1-4 3.5 1.2 1 1.2 2.2 0 3.5-1.3.8-2.5 1.8-3.5 3l-1-2c-.5 2-.4 4 .5 6 0 2.1-.6 2.5-2 1a65 65 0 0 0-1 16 86 86 0 0 1 4.5-43c.7-2.1 1.8-3.8 3.5-5z"/><path fill="#22415c" d="M171 150.8q-.5 6 4.5 9c.5 1.6.6 3.3.5 5h3a15.4 15.4 0 0 0 1 7c2.6.6 4.3 2.3 5 5 1.2.7 2.5 1 4 1 .3 2.3.8 4.6 1.5 7 1-1.3 2.2-1.3 3.5 0q1.7 3.7 0 7.5a3.6 3.6 0 0 0 2 2l-1 1q3.6 1.4 6 4.5a6 6 0 0 1-5 2 12.2 12.2 0 0 1-1.5 7c-.4-.6-1-1-1.5-1 .9-1.3 1-2.6.5-4q-20.3-24.6-37.5-51-7.2-13.8-15-27a9 9 0 0 1 1-5.5c1.6-.7 2.7-.2 3.5 1.5l1-6 2.5 6a10 10 0 0 1 5 8c4.2 2.4 6.3 6 6.5 11 2.4 3.4 5.3 6.6 8.5 9.5a2.4 2.4 0 0 0 2 .5"/><path fill="#133447" d="M229 129.8c-2 5.3-2.6 11-2 17v46c.9.6 1.9.9 3 1l2 2c-1.1 1-2.5 1.2-4 .5-.9-1-1.9-2-3-2.5v-32h-3a151 151 0 0 1-1.5 15 217 217 0 0 1-3.5-30.5c-.3-2.4 0-4.9 1-7.5q-.6-8-6-13.5l-3-1c-.5-2.7.2-5.2 2-7.5-1.6-2.3-1.2-4.3 1-6 14.3-6.2 20-2 17 12.5l2 1a5.5 5.5 0 0 0-2 5.5"/><path fill="#f8f9f9" d="M414 132.8c.1.8-.2 1.5-1 2a72.7 72.7 0 0 0-13-6.5c-6-1.2-11.7-3.2-17-6a98.1 98.1 0 0 0-50 4q-23.4 10.9-42 28.5c-4.4 6.7-9.2 13-14.5 19a9.4 9.4 0 0 1-5.5 7c-2 4.9-5.3 8.5-10 11a40 40 0 0 1-5 7c-2.7 2-4.4 4.6-5 8-3 1.8-5 1.1-6-2 2-4.5 4.4-8.9 7-13a606 606 0 0 0 27.5-39c5.7-8.1 11.8-15.8 18.5-23a114 114 0 0 1 30-18c6-.7 12-1.9 18-3.5 10.8-1 21.4-.4 32 2q22.1 4.8 36 22.5"/><path fill="#224554" d="M298 129.8c-6.7 7.2-12.8 14.9-18.5 23a606 606 0 0 1-27.5 39c-.3-3.4.6-6.4 2.5-9 1.1 1.4 2 1.3 2.5-.5.8-3.2 1.5-6.3 2-9.5 4.3-.9 6.8-3.6 7.5-8 .6 1.3 1.3 1.3 2 0q-.5-3 0-6c1.8 0 3.7-.9 5.5-2.5-.7-3.2-2-6-4-8.5a89.4 89.4 0 0 1 14-17 7 7 0 0 1-1 5 19.8 19.8 0 0 0-3 4.5c.5 2 1.8 2.8 4 2.5 0-3.4 1.6-5 5-5 .8-5.2 3.8-7.8 9-8"/><path fill="#fdd4da" d="M80 118.8c8.7-.1 17.3.4 26 1.5 9.8 3.3 20 5.5 30.5 6.5l1.5-1c-1.4-1-2-2.4-2-4l5 4q7.8 13.2 15 27c.3 3.3-1 5.8-4 7.5 2.6.6 2.6 1.3 0 2a47.6 47.6 0 0 0 9 5c-.8 3-1.1 6.6-1 10.5-4.5.3-8.3-1-11.5-4l-3 1q-3.8-5.9-7.5 0c.5.6 1.2 1.1 2 1.5a29.5 29.5 0 0 0-4 6q2.4 1.6 3 4.5a4 4 0 0 1-3.5-2q-.2-6.9-4.5-12l-2 2c-5.9-2-11.7-3.6-17.5-5-.3.8-.8 1.4-1.5 2-2.7-1.4-3.4-.7-2 2-2.5 6.4-3.5 13-3 20h3c4.8 8.5 11.5 10.2 20 5a6.7 6.7 0 0 0 4 2c6.5 3.5 13.2 6.8 20 10 0 .6.4 1 1 1.5a56.9 56.9 0 0 1 25 11 9.3 9.3 0 0 1-2 2.5q-13.8 2.4-27 6h-1c-7.8-.1-15.5.4-23 1.5l-2-1c1.2-1 1.2-1.8 0-2.5a12.2 12.2 0 0 1-5.5-3c-2.8.4-5.4-.2-8-2-2 .3-4-.4-6-2a8.6 8.6 0 0 1-7 2c-1.6 1.6-3.3 2-5 1l-.5 1c1.7.6 3.4 1.5 5 2.5a23 23 0 0 1-16 1l-11-5.5c-1.3-2-1.3-3.7 0-5.5a11.4 11.4 0 0 1-3.5-1.5 4.3 4.3 0 0 1-2.5 3c-3.4-1.8-6-4-8-7a4 4 0 0 1 2-3.5 19 19 0 0 0-8-1.5v-4c-1.7.2-3.2-.2-4.5-1a40 40 0 0 0-6-9l-1-5c-2.2-1-4-2.4-5.5-4-2.6-9.2-4.6-18.6-6-28a20 20 0 0 1 15.5 3c7.1-2.6 9.4-7.6 7-15a8.2 8.2 0 0 0-6.5-4.5c-4.4-3.3-5-7.2-2-11.5 2-.6 3.7-1.7 5-3.5a119 119 0 0 1 35-7.5"/><path fill="#f7bec9" d="M260 36.8c2.4 1.5 5 2.5 8 3v5h3c.2 1.6-.1 3.1-1 4.5q1.8 1.1 3 3a12 12 0 0 0 .5 10.5l1.5-1.5q-1.9-2.2 0-4.5 1.3-1.7 3 0a144.5 144.5 0 0 1 8.5 25q2.6 12 0 24a42 42 0 0 0-4.5 7q3.6 6.3-1.5 12c-.4-.5-1-.8-1.5-1-.8 1.5-1.3 3.2-1.5 5a12.4 12.4 0 0 0-4 7l-1-1c-3.4 6.7-7.2 13-11.5 19q-5 4.6-10.5 9c-2 5.1-3.2 4.8-3.5-1a200.5 200.5 0 0 1 12-24c17-33 17.3-66 1-99z"/><path fill="#f7f9fa" d="M38 155.8H24c-.3 4.7.2 9.4 1.5 14 1.5 5.6 3.7 11 6.5 16a88.4 88.4 0 0 0 42 44.5 90 90 0 0 0 19.5 5.5c1.6.2 2.7 1 3.5 2.5 5.7-.2 11 .7 16 2.5-8.1 2.2-15.8 5.2-23 9-10-2.7-19.7-6.4-29-11a91.3 91.3 0 0 1-47-87c8.2.6 16.2 2 24 4"/><path fill="#f5dfe2" d="M40 129.8c-3 4.3-2.4 8.2 2 11.5 3 .3 5 1.8 6.5 4.5 2.4 7.4.1 12.4-7 15a20 20 0 0 0-15.5-3c1.4 9.4 3.4 18.8 6 28-2.8-5-5-10.4-6.5-16a45.3 45.3 0 0 1-1.5-14h14q4.7.4 9-1.5c1-1.8 1.2-3.6.5-5.5a32 32 0 0 0-7.5-5.5 82 82 0 0 1-15-6.5c3.1-1.5 6.5-2.6 10-3.5 1-2.2 2.6-3.4 5-3.5"/><path fill="#f0c2d0" d="M254 25.8c6.3 5 12.3 10.3 18 16a86.7 86.7 0 0 1 17 51c0 8.3-.2 16.7-1 25-.8 3.6-2.3 7-4.5 10a905 905 0 0 0-41.5 56 86 86 0 0 1-10 12l-2-2 1-2c-2-1.5-2.6-3.2-2-5q.5-1.8 1.5 0l.5-2c-2-4.1-1-7.4 2.5-10 0 2.9 1.2 3.9 3.5 3a96.5 96.5 0 0 1 10-16c.3 5.8 1.4 6.1 3.5 1q5.4-4.4 10.5-9c4.3-6 8.1-12.3 11.5-19l1 1a12.4 12.4 0 0 1 4-7c.2-1.8.7-3.5 1.5-5 .6.2 1 .5 1.5 1q5.1-5.7 1.5-12a42 42 0 0 1 4.5-7q2.6-12 0-24a144.5 144.5 0 0 0-8.5-25q-1.7-1.7-3 0-1.9 2.3 0 4.5l-1.5 1.5a12 12 0 0 1-.5-10.5 9.6 9.6 0 0 0-3-3 6.5 6.5 0 0 0 1-4.5h-3v-5c-3-.5-5.6-1.5-8-3q-3-5.4-6-9z"/><path fill="#85a5b4" d="M437 150.8a59.9 59.9 0 0 1 0 31c1.3-10.4 1.3-20.7 0-31" opacity=".1" style="isolation:isolate"/><path fill="#fbd2dd" d="M156 152.8q17.2 26.4 37.5 51c.5 1.4.4 2.7-.5 4-2 .1-4 0-6-.5a400 400 0 0 0-17-6.5c-5.4-4-11.4-6.9-18-8.5q-1.1-2.1-1.5-4.5a42 42 0 0 0-8 1c-1.7 0-2.9-.6-3.5-2q-.6-2.9-3-4.5a29.5 29.5 0 0 1 4-6c-.8-.4-1.5-.9-2-1.5q3.7-5.9 7.5 0l3-1c3.2 3 7 4.3 11.5 4-.1-4 .2-7.4 1-10.5a47.6 47.6 0 0 1-9-5c2.6-.7 2.6-1.4 0-2 3-1.7 4.3-4.2 4-7.5"/><path fill="#c0bfc7" d="M227 146.8a276 276 0 0 1 0 46z"/><path fill="#18394f" d="M38 238.8a11 11 0 0 0-6-5l-8-9c0-2.2-1-3.5-3-4 0-1.6-.6-2.6-2-3-3.1-3.2-5.4-6.9-7-11a6.6 6.6 0 0 0-3-5c-.8-3.7-2.1-7-4-10a50 50 0 0 1-4-15c-.4-5.4 0-10.8 1-16 1.4 1.5 2 1.1 2-1-.9-2-1-4-.5-6l1 2c1-1.2 2.2-2.2 3.5-3 1.2-1.3 1.2-2.4 0-3.5 1.2-1.4 2.5-2.6 4-3.5l1 1a23 23 0 0 1-8 13.5c1 3.9 2.7 7.6 5 11q-1.8 2.9 0 6l4 2c.7 3 1.2 6.2 1.5 9.5l11 22c5 3.8 7 8.8 5.5 15 4-1 6.8.4 8.5 4 .7-1 1.5-1.2 2.5-.5-.9 1.5-.2 2.5 2 3-2 .4-3.9 1.2-5.5 2.5a6.9 6.9 0 0 0-3-5c-.5 1.5 0 2.6 1.5 3.5l-2 1c1.8 2 3.8 3.8 6 5.5l-.5 1a4 4 0 0 0-3.5-2"/><path fill="#133b54" d="M132 182.8a6 6 0 0 1-2 5l1 4c-.9.7-1.7.4-2.5-1a13 13 0 0 0-.5 5h3c.1 1.7.4 3.3 1 5a6.7 6.7 0 0 1-4-2c-8.5 5.2-15.2 3.5-20-5-3.6-8-1.6-14.2 6-18.5q8.2-1.8 15 3 2.4 1.7 3 4.5"/><path fill="#f3e1ea" d="M230 129.8c5.6-7.6 5.3-14.7-1-21.5-12.3-6-19.6-2.2-22 11a14 14 0 0 0 6 12.5c.1 20.3 0 40.6-.5 61a20.6 20.6 0 0 0-7 5 4.2 4.2 0 0 1-1.5-2c1 0 1.6-.5 2-1.5-2.3-2-3.7-4.5-4-7.5 1.7-1.2 2.9-.5 3.5 2 .6-1.4 1.3-1.4 2 0l3-2c.4-15.8.5-31.4.5-47a5 5 0 0 0-2-3.5c1.1-1 .8-1.7-1-2 1.4-2.3 1-4.2-1.5-5.5q-4-13.5 4.5-24c8.5-2.5 16-.8 22.5 5a18.3 18.3 0 0 1-.5 19 3 3 0 0 1-3 1"/><path fill="#ebd7e3" d="M139 186.8c.6 1.4 1.8 2 3.5 2 2.7-.6 5.3-1 8-1q.4 2.4 1.5 4.5a49.2 49.2 0 0 1 18 8.5 844 844 0 0 0-36-12.5c-.6-2-1.3-3.8-2-5.5q-.6-2.8-3-4.5-6.8-4.8-15-3c-7.6 4.3-9.6 10.5-6 18.5h-3c-.5-7 .5-13.6 3-20-1.4-2.7-.7-3.4 2-2 .7-.6 1.2-1.2 1.5-2 5.8 1.4 11.6 3 17.5 5l2-2q4.3 5.1 4.5 12a4 4 0 0 0 3.5 2"/><path fill="#e4cbd7" d="M424 170.8a81.1 81.1 0 0 1-20 48 147 147 0 0 0 7.5-16c.5-1.7.6-3.3.5-5h3c2-5 3.8-10 5.5-15q1.7-7.4 1.5-15v-6l-17 2a145 145 0 0 1 19-4z"/><path fill="#f4dde3" d="M332 180.8c-4.6-3.9-10-5-16-3.5a32.1 32.1 0 0 0-8 11c-19 6.4-38 12.6-57 18.5.6-3.4 2.3-6 5-8v3c6.5 1 9.8-1.7 10-8 4.3.3 7.4-1.4 9.5-5 3.9.4 8 .8 12.5 1 6.8-.3 13.4-1.3 20-3 2.2-4.4 3.6-9 4-14 5.3.5 10.7 1.2 16 2a6.5 6.5 0 0 1 4 6"/><path fill="#8fb1c9" d="M5 191.8c1.9 3 3.2 6.3 4 10a18.6 18.6 0 0 1-4-10" opacity=".1" style="isolation:isolate"/><path fill="#153b4d" d="M332 180.8a16 16 0 0 1 2.5 13 17.6 17.6 0 0 1-18.5 8.5c-2.6-3.2-5.3-3.4-8-.5a66.3 66.3 0 0 1-15 5c0-3.6-2-5.3-5.5-5a53 53 0 0 0-10.5 5.5c-3.2 1-6 .4-8.5-1.5-4.7 2.2-4.6 3.7.5 4.5a9 9 0 0 1-4 3l2 1c-5.4 2.7-9.5 1.6-12.5-3.5l-3 3a6 6 0 0 0-6.5 0c-.8-2.4-2.1-4.2-4-5.5 3-.4 3.4-1 1-2q1-2.1 1.5-4.5.3 1.8 1.5 3c1 3.1 3 3.8 6 2 19-5.9 38-12 57-18.5 1.8-4.2 4.5-7.9 8-11 6-1.5 11.4-.4 16 3.5"/><path fill="#82a9c3" d="M9 201.8a6.6 6.6 0 0 1 3 5 6.6 6.6 0 0 1-3-5" opacity=".1" style="isolation:isolate"/><path fill="#1f4153" d="M213 131.8c1 20.1 1.3 40.4 1 61-.8 2.2-1.8 4.4-3 6.5 1 1.2 1 2.4 0 3.5a99 99 0 0 1-5.5 2l-1-1a20.2 20.2 0 0 1-8.5 7c.1 1.3-.2 2.4-1 3.5-2 1.8-4.4 3-7 3.5-.1 3 .4 3.4 1.5 1a20.4 20.4 0 0 1 0 9 6.5 6.5 0 0 1-4.5 1l2-2c1.6-2.9 1-5-2-6.5a372 372 0 0 0-33-9.5c-6.8-3.2-13.5-6.5-20-10-.6-1.7-.9-3.3-1-5h-3c-.2-1.7 0-3.4.5-5 .8 1.4 1.6 1.7 2.5 1l-1-4a6 6 0 0 0 2-5c.7 1.7 1.4 3.5 2 5.5a844 844 0 0 1 53 19c2 .4 4 .6 6 .5.6 0 1 .4 1.5 1a12.2 12.2 0 0 0 1.5-7 6 6 0 0 0 5-2q-2.4-3.1-6-4.5l1-1a3.6 3.6 0 0 1-2-2q1.7-3.8 0-7.5c-1.3-1.3-2.4-1.3-3.5 0-.7-2.4-1.2-4.7-1.5-7-1.5 0-2.8-.3-4-1a6.4 6.4 0 0 0-5-5 15.4 15.4 0 0 1-1-7h-3c.1-1.7 0-3.4-.5-5q-5-3-4.5-9a1054 1054 0 0 0 33 45c.2.7.7 1.4 1.5 2a20.6 20.6 0 0 1 7-5c.5-20.4.6-40.7.5-61"/><path fill="#526e7e" d="M428 208.8c-1.1 4.5-3.4 8.1-7 11 0-1.7.6-3 2-4-1.1-1.8-.5-2.4 2-2 .2-1.7-.1-3.2-1-4.5 1.4.3 2.8.1 4-.5" opacity=".8" style="isolation:isolate"/><path fill="#79a1b7" d="M21 220.8c2 .5 3 1.8 3 4a7 7 0 0 1-3-4" opacity=".2" style="isolation:isolate"/><path fill="#e6d6e1" d="M308 201.8c0 1-.3 1.8-1 2.5-12.8 4.3-25.4 9-38 14l-2 2c-3.8.4-7.5 1.2-11 2.5a4.5 4.5 0 0 0 0 5.5l27 6.5c-.2.5-.6 1-1 1.5.9.2 1.6.7 2 1.5a167 167 0 0 1-14-4l-18-4c-.3-3 0-5.8 1-8.5l40-14.5a66.3 66.3 0 0 0 15-5"/><path fill="#f9dce2" d="M32 185.8c1.5 1.6 3.3 3 5.5 4l1 5a40 40 0 0 1 6 9c1.3.8 2.8 1.2 4.5 1v4c2.7-.1 5.4.4 8 1.5a4 4 0 0 0-2 3.5c2 3 4.6 5.2 8 7a4.3 4.3 0 0 0 2.5-3 11.4 11.4 0 0 0 3.5 1.5c-1.3 1.8-1.3 3.6 0 5.5l11 5.5a23 23 0 0 0 16-1c-1.6-1-3.3-1.9-5-2.5l.5-1c1.7 1 3.4.6 5-1 2.4.4 4.7-.3 7-2 2 1.6 4 2.3 6 2 2.6 1.8 5.2 2.4 8 2a12.2 12.2 0 0 0 5.5 3c1.2.7 1.2 1.6 0 2.5l2 1a157 157 0 0 1 23-1.5 84 84 0 0 0-10 3q-6.3.9-12 3a46.8 46.8 0 0 0-13 3c-5-1.8-10.3-2.7-16-2.5a4.6 4.6 0 0 0-3.5-2.5 90 90 0 0 1-19.5-5.5 88.4 88.4 0 0 1-42-44.5"/><path fill="#f0e2ed" d="M152 210.8c11.1 2.6 22.1 5.8 33 9.5 3 1.5 3.6 3.6 2 6.5a646 646 0 0 0-38 5q13.2-3.6 27-6a9.3 9.3 0 0 0 2-2.5 56.9 56.9 0 0 0-25-11c-.6-.4-1-1-1-1.5"/><path fill="#f4c5ce" d="M422 167.8q.2 7.6-1.5 15c-1.7 5-3.5 10-5.5 15h-3c.1 1.7 0 3.3-.5 5a147 147 0 0 1-7.5 16 72 72 0 0 1-26 23c-9 3.9-18.3 6.7-28 8.5-4.7.8-9.3 1.3-14 1.5 5.2-1.3 10.5-2.5 16-3.5 3.4-1.8 6.8-3.8 10-6 3.2-.2 6.2-1 9-2.5 1.5-3 .9-5.4-2-7a41.6 41.6 0 0 1-21 5q48.6-11.4 66-58.5c1-1.3 2.2-2.5 3.5-3.5a9.9 9.9 0 0 1 4.5-8"/><path fill="#224757" d="m187 226.8-2 2c-3.7.5-3.4.8 1 1-1.4 5.2.6 7.9 6 8-3.3.8-6.7 1.5-10 2-1.2.2-2 .9-2 2l-15 3-37 6c7-4.8 15-7.5 24-8q-4.5-1.3-9-1.5c-1-2.8-3-4.1-6-4 .7-.7 1-1.5 1-2.5a84 84 0 0 1 10-3h1a646 646 0 0 1 38-5"/><path fill="#163d53" d="M270 147.8c2 2.4 3.3 5.3 4 8.5a8 8 0 0 1-5.5 2.5q-.5 3 0 6c-.7 1.3-1.4 1.3-2 0-.7 4.4-3.2 7.1-7.5 8-.5 3.2-1.2 6.3-2 9.5-.5 1.8-1.4 2-2.5.5a13.4 13.4 0 0 0-2.5 9 121 121 0 0 0-7 13q-1.2-1.2-1.5-3-.4 2.4-1.5 4.5c2.4 1 2 1.6-1 2 1.9 1.3 3.2 3.1 4 5.5a6 6 0 0 1 6.5 0l3-3c3 5 7.1 6.2 12.5 3.5l-2-1a9 9 0 0 0 4-3c-5-.8-5.2-2.3-.5-4.5 2.5 2 5.3 2.4 8.5 1.5a53 53 0 0 1 10.5-5.5c3.6-.3 5.4 1.4 5.5 5l-40 14.5a20 20 0 0 0-1 8.5l18 4q-2.7 1.2-6 1.5c-2 4.3-.7 6 4 5a11.5 11.5 0 0 1 2-2.5 21.9 21.9 0 0 0 6 3 3.8 3.8 0 0 0-.5 4l1-1c.3.9.8 1.7 1.5 2.5a251 251 0 0 1-25-2.5h-7c-2.4 0-4.3-1-5.5-3-1.4 1.4-2.6 1.2-3.5-.5q.3-2.2 0-4.5a7.2 7.2 0 0 0-2.5 2q-2.2.4-4.5 0a11 11 0 0 0 5-6 10 10 0 0 0 2-7 12 12 0 0 0-1-5c-6.4-12.4-15.7-15.2-28-8.5-8.8 11-7.1 20.2 5 27.5q-.4 2 0 4.5c1.2 1.5 2.7 2.6 4.5 3.5 1-1.3 1.5-1 1.5 1-1 2.6-2.5 5-4.5 7-.4-.3-.6-.6-.5-1a131 131 0 0 0-4-5c2.5-2.7 2.2-5-1-7a7.2 7.2 0 0 0-2.5 2c-.2 1.7-.7 3.4-1.5 5a7.2 7.2 0 0 0-7 0c.5 2.4 1.7 3 3.5 2q.3 1.8 1.5 3l-8 9-2-1c-2 3.5-4.9 6.2-8.5 8a5 5 0 0 0-.5 3c-2.4.6-4.4 2-6 4-1.4-2.5-3-3.8-5-4a7 7 0 0 1 5-1 8.3 8.3 0 0 1 .5-4l8.5-11.5c-.8-.7-1.1-1.5-1-2.5 3.1-2.7 6-5.7 8.5-9 .5-1 .6-2 .5-3h-15c0-1.1.8-1.8 2-2 3.3-.5 6.7-1.2 10-2-5.4-.1-7.4-2.8-6-8-4.4-.2-4.7-.5-1-1 1.6.2 3.1-.2 4.5-1a20.4 20.4 0 0 0 0-9c-1.1 2.4-1.6 2-1.5-1 2.6-.5 5-1.7 7-3.5.8-1 1.1-2.2 1-3.5 3.4-1.5 6.2-3.9 8.5-7l1 1a99 99 0 0 0 5.5-2c1-1.1 1-2.3 0-3.5 1.2-2.1 2.2-4.3 3-6.5a25 25 0 0 0 3-8c2.5 3 3.2 6.3 2 10 2.4 1.4 4.4 1 6-1 1.1.6 2.1 1.4 3 2.5 1.5.7 2.9.6 4-.5a86 86 0 0 0 10-12q.4 1.8 1.5 0c2.3-4 5-7.7 8-11 1 2 2.3 3.6 4 5a18 18 0 0 1 5-10c.8-8 4-14.6 9.5-20"/><path fill="#8f9ca9" d="M236 219.8c.6 1.4 1 3 1 5 .1 2.7-.5 5-2 7 .7-4 1-8 1-12"/><path fill="#f7f7f9" d="M236 219.8c0 4-.3 8-1 12a11 11 0 0 1-5 6 26.6 26.6 0 0 1-17 1c-12.2-7.3-13.8-16.5-5-27.5 12.3-6.7 21.6-3.9 28 8.5"/><path fill="#fce9e9" d="M228 214.8a4 4 0 0 1 3.5 2c0 3 .9 5.6 2.5 8-1.8 1.3-2.1 2.8-1 4.5a18.4 18.4 0 0 0-4 7 44 44 0 0 1-13 2q-1-5.4 1.5-10.5c4.4-3.7 8-8 10.5-13"/><path fill="#7ebac3" d="M32 233.8a11 11 0 0 1 6 5 11 11 0 0 1-6-5" opacity=".1" style="isolation:isolate"/><path fill="#fac2cc" d="M336 251.8c-10.1-.2-19.4-2.6-28-7l37-5c1.5-.2 2.5-.9 3-2 7.5.1 14.5-1.5 21-5 2.9 1.6 3.5 4 2 7a22.2 22.2 0 0 1-9 2.5 83 83 0 0 1-10 6c-5.5 1-10.8 2.2-16 3.5"/><path fill="#2d4c63" d="M138 234.8c0 1-.3 1.8-1 2.5 3-.1 5 1.2 6 4q4.5.2 9 1.5c-9 .5-17 3.2-24 8-4.6 1.3-9.3 2.3-14 3-1 0-1.6-.2-2-1l5-2 4-8q4-3 9-4.5a8.4 8.4 0 0 0-4-.5q5.7-2.1 12-3"/><path fill="#d8c7d2" d="M378 241.8a58.2 58.2 0 0 1-26 10c-9 .8-18 1.1-27 1-1.8 0-3.5-.2-5-1a53.3 53.3 0 0 1-17-7h5a62.2 62.2 0 0 0 42 5.5c9.7-1.8 19-4.6 28-8.5"/><path fill="#2e4a5c" d="M270 233.8a167 167 0 0 0 14 4c6.4 2 12.7 4.3 19 7a53.3 53.3 0 0 0 17 7c.1 1.3-.2 2.4-1 3.5l-7 1c4.9 1 4.9 1.7 0 2-1.2.7-1.2 1.5 0 2.5a10 10 0 0 0 7 3.5c.8 3.7 3.2 5.7 7 6 2 3.3 4.4 6.2 7.5 8.5a4.9 4.9 0 0 0 2.5-5c-1.5.2-2.8-.1-4-1 1-1.4 2.4-2 4-1.5l6 6c-2.7 1.8-3.6 4.3-2.5 7.5 1.5 1.4 2.9 3.1 4 5 2.4 6.2 4.5 12.5 6.5 19a372 372 0 0 1-8.5-16 100 100 0 0 0-7.5-9 57.3 57.3 0 0 0-17-16.5 162 162 0 0 0-26-10.5c-9.5-4.7-19.5-8-30-10a27.6 27.6 0 0 0-8-3 251 251 0 0 0 25 2.5 9.2 9.2 0 0 1-1.5-2.5l-1 1c-.6-1.4-.5-2.8.5-4a21.9 21.9 0 0 1-6-3 11.5 11.5 0 0 0-2 2.5c-4.7 1-6-.7-4-5q3.3-.3 6-1.5"/><path fill="#354d58" d="M126 237.8c1.3-.2 2.7 0 4 .5a31.7 31.7 0 0 0-9 4.5l-4 8-5 2c.4.8 1 1 2 1-8.9 3.4-17.6 7.4-26 12v-4c1.3.1 2.7 0 4-.5 2.4-2.1 3.8-4.5 4-7q-1.6-4.3-6-4.5c7.2-3.8 14.9-6.8 23-9a46.8 46.8 0 0 1 13-3"/><path fill="#1c394a" d="M424 170.8a63 63 0 0 0 1 15.5 21 21 0 0 0-3.5 6.5c0 3.6-.9 6.9-2.5 10a6.8 6.8 0 0 1 1 4c2 0 3.9-.7 5.5-2 1 1.2 1.9 2.5 2.5 4-1.2.6-2.6.8-4 .5a6.5 6.5 0 0 1 1 4.5c-2.5-.4-3.1.2-2 2-1.4 1-2 2.3-2 4-1 2.2-2.3 4.2-4 6a11 11 0 0 0-5 6 35 35 0 0 0-7 7 4.7 4.7 0 0 0-4 3c0 .6-.4 1-1 1-1.6-.1-2.6.5-3 2a35.3 35.3 0 0 1-8 6c-2.5-.3-4.2.7-5 3a61.5 61.5 0 0 0-12.5 5c-1.5-.9-3-1-4.5-.5-1.8.8-2.5 2-2 3.5a7.7 7.7 0 0 1-3-3.5c-1.5-.3-2.8-.8-4-1.5a245 245 0 0 1-28-3c6 .1 12 0 18-.5 1.5-.3 2.9-.8 4-1.5a58.2 58.2 0 0 0 26-10 72 72 0 0 0 26-23 81.1 81.1 0 0 0 20-48"/><path fill="#f8d6e2" d="M246 243.8h7c2.8.5 5.4 1.5 8 3-1-.2-1.6.2-2 1q2.5 1 4.5 3l1-1c2.2 1.6 4.7 2.2 7.5 2v4c2.2-.3 3.9.6 5 2.5-1.5.8-2.7 2-3.5 3.5-.5-2.7-2-4-4.5-4a25 25 0 0 0 4 8c-1.2 1.7-2.9 2.3-5 2a26.6 26.6 0 0 0 4.5 16c.6-1.4 1.3-1.4 2 0 0 3.5 1.3 6.5 3.5 9-1.3.1-2.5-.2-3.5-1a390 390 0 0 0-28.5-44z"/><path fill="#628591" d="M389 250.8a6.6 6.6 0 0 1-5 3c.8-2.3 2.5-3.3 5-3" opacity=".5" style="isolation:isolate"/><path fill="#72737b" d="M352 251.8a8.8 8.8 0 0 1-4 1.5c-6 .5-12 .6-18 .5-2 .2-3.6 0-5-1 9 .1 18-.2 27-1"/><path fill="#9dc2cb" d="M55 250.8c2.2.5 3.9 1.9 5 4-2.3-.6-4-2-5-4" opacity=".1" style="isolation:isolate"/><path fill="#fed7dd" d="M261 246.8c10.5 2 20.5 5.3 30 10a582 582 0 0 1 33.5 37 117.7 117.7 0 0 1 15.5 82c-.2-3 .1-5.8 1-8.5a13.7 13.7 0 0 1-2.5-5.5l-1 7a9.9 9.9 0 0 0-2-5q-2.1 3.8-4.5 0c-1.4 1.8-1 3.3 1 4.5-1.3.4-2.7.6-4 .5 0-3-1.1-3.7-3.5-2-1.2-.6-2-1.4-2.5-2.5a75 75 0 0 0-16 .5 43.8 43.8 0 0 0-2 17 3 3 0 0 1 3 1c.2 5 2.6 8.5 7 10.5l-1 1q3.5.8 3 4.5c3.3.3 4.3 2 3 5a16.7 16.7 0 0 1-12 2.5 59 59 0 0 1-16.5-8.5c-.3.8-.8 1.4-1.5 2-6.6-3.8-13.2-7.3-20-10.5a209 209 0 0 0-22.5-20.5 18 18 0 0 0-6-11 45.3 45.3 0 0 1-3.5-10l-4-3a88 88 0 0 1-6.5-18 403 403 0 0 1-2.5-55c.7-.5 1.2-1.1 1.5-2 1 2.3 1.8 2 2.5-1-.8-1.5-1.5-3-2-4.5a8 8 0 0 0 2-5.5c1.8-.3 3.4 0 5 1q.6 2.9 3 4.5c-3.5 3-3.8 6.3-1 10-2.2 4.6-1 7.4 4 8.5a59 59 0 0 0 1 7c.9 1.1 1.7 1.1 2.5 0a9.2 9.2 0 0 0 5 5q.3-1.7 1.5-3a9.8 9.8 0 0 1 1 6h4c-.2 2.6 0 5.3.5 8 3-5.4 3.8-5.3 2.5.5 2.6 8.2 8 13.3 16.5 15.5a25 25 0 0 0 7.5-2.5 13.3 13.3 0 0 1 5-5.5c2-3.7 2.4-7.4 1-11-1.6-4.7-4.6-8-9-10a13.8 13.8 0 0 1-3.5-9c-.7-1.4-1.4-1.4-2 0a26.6 26.6 0 0 1-4.5-16c2.1.3 3.8-.3 5-2a25 25 0 0 1-4-8c2.5 0 4 1.3 4.5 4 .8-1.5 2-2.7 3.5-3.5a4.8 4.8 0 0 0-5-2.5v-4c-2.8.2-5.3-.4-7.5-2l-1 1a14.9 14.9 0 0 0-4.5-3c.4-.8 1-1.2 2-1"/><path fill="#254b5c" d="M61 238.8c9.3 4.6 19 8.3 29 11q4.4.2 6 4.5c-.2 2.5-1.6 4.9-4 7-1.3.4-2.7.6-4 .5v4a36.6 36.6 0 0 1-7 4l-10.5 3a20.5 20.5 0 0 1-3.5-2.5c1.4-1.4 2.8-2.9 4-4.5-.2-.7-.5-1-1-1 1.4-2.2 2.4-4.5 3-7h-5c-3-.3-5.7-1.3-8-3-1.1-2.1-2.8-3.5-5-4-1.6 0-2.6-.6-3-2 1.3.1 2.5-.2 3.5-1 2.9 4.5 6.7 5.7 11.5 3.5a32 32 0 0 1-5-4.5c.2-.6.5-1.1 1-1.5-2.3-2-3-4.1-2-6.5"/><path fill="#fcdbdf" d="M180 241.8h15c.1 1 0 2-.5 3a57 57 0 0 1-8.5 9l-13 12-2-1a16 16 0 0 1-6.5 5q-1-3.6-3 0l-1-2a22.5 22.5 0 0 1-7.5 7c-1.2.9-1.2 1.7 0 2.5-4.3-.5-6.8 1.4-7.5 5.5a10 10 0 0 0-6 8c-7.5 6.4-9.7 14.4-6.5 24-1.4-1.3-2.6-1-3.5 1a4.3 4.3 0 0 0-4.5-2c-.7-5.8.3-11 3-16-1.9-1.5-2.2-3.2-1-5 2.1 1 2.5.3 1-2 .7-1.3 1.6-1.3 2.5 0a4.3 4.3 0 0 0 2.5-3c.8-4 1.2-8 1-12a9.8 9.8 0 0 1-6-1 409 409 0 0 1 20-2 337 337 0 0 0 4.5-14 7 7 0 0 1 3.5-2.5c-9.5-1.8-17.8.6-25 7a28.7 28.7 0 0 0-10 3v3.5c-.6-.3-1.1-.6-1.5-1a10.3 10.3 0 0 1-10.5 2.5c-3 2.5-6.4 4.3-10 5.5a210 210 0 0 1 13-9.5l14-5a39.3 39.3 0 0 1 16-7c2.5-1.1 4.8-2.5 7-4l22-6c-2-.5-4-.7-6-.5z"/><path fill="#243e56" d="M214 253.8c-1.1 0-1.8.7-2 2a5.7 5.7 0 0 0 3 3.5c.3 2.7 0 5.5-1 8.5a11.2 11.2 0 0 0 3 7c-1.4 4-2.7 4-4 0-2 1.5-2.4 3.4-1 5.5a3.6 3.6 0 0 1-2 2 23 23 0 0 1 2 5 40.7 40.7 0 0 0-3 11.5c.2 5.8.5 11.7 1 17.5-1.3.4-2.7.6-4 .5q-.3-3.1-1.5-6a26 26 0 0 0-.5 15c1 4-.4 6.3-4 7a31.2 31.2 0 0 1 3.5 7c.9-1.3 1.7-1.3 2.5 0a6.6 6.6 0 0 1-3 3q.3-1.6-1.5-3a23.2 23.2 0 0 1-3.5 3c.9 3.2 1.2 6.5 1 10-2.6-1-4.7-2.7-6.5-5-1 .8-2.2 1.1-3.5 1 2.4-3.3 4.1-7 5-11 4.7-10.1 7.8-20.8 9.5-32a765 765 0 0 1 5.5-47.5c0-1.4-.4-2.6-1-3.5-1.4-2.1-3-2.5-5-1q-1.2-1.2-1.5-3c-1.9 1-3 .4-3.5-2a7.2 7.2 0 0 1 7 0c.8-1.6 1.3-3.3 1.5-5a7.2 7.2 0 0 1 2.5-2c3.2 2 3.5 4.3 1 7a131 131 0 0 1 4 5"/><path fill="#8bb2c1" d="M68 257.8h5c-.6 2.5-1.6 4.8-3 7l-2 1a12.7 12.7 0 0 1 3-6z" opacity=".2" style="isolation:isolate"/><path fill="#8eafbd" d="m362 263.8-20 7c-1-.8-1.3-1.8-1-3 7-1.2 14-2.5 21-4" opacity=".1" style="isolation:isolate"/><path fill="#94bcc2" d="M66 267.8c-1.6 3.2-4 5.9-7 8 1.6-3.3 3.9-6 7-8" opacity=".2" style="isolation:isolate"/><path fill="#f9f9fa" d="M165 244.8c2-.2 4 0 6 .5l-22 6c-2.2 1.5-4.5 2.9-7 4a39.3 39.3 0 0 0-16 7l-14 5a210 210 0 0 0-13 9.5c-1.8.5-3.5 1.4-5 2.5a118.8 118.8 0 0 0-30.5 46.5 112 112 0 0 0 3.5 52l-4 2a21.8 21.8 0 0 1-7.5-6q-5-11.7-7.5-24c-1-14.3.3-28.3 4-42a106.8 106.8 0 0 1 29-38 36.6 36.6 0 0 0 7-4c8.4-4.6 17.1-8.6 26-12 4.7-.7 9.4-1.7 14-3z"/><path fill="#e5d9e1" d="M208 254.8c-3.4-.7-5.4.7-6 4a152 152 0 0 0-20 21 620 620 0 0 1-21.5 20l-1 12c-2.2 2-4.7 3.3-7.5 4a3 3 0 0 1 2-2 11 11 0 0 0 4.5-5l1-11a586 586 0 0 0 35.5-35l8-9c2-1.5 3.6-1.1 5 1"/><path fill="#fccfd6" d="M196 317.8c-1-1.1-2-2.5-2.5-4a22.6 22.6 0 0 0-2 7c-2.8.7-3.6 2.2-2.5 4.5q-1.1 2-1.5 4.5l-1-2a7 7 0 0 1-2.5 2c1.8-7.9 4.3-15.6 7.5-23 .7-5.4.6-10.8-.5-16 1.8-1.2 2-2.5 1-4-3.4 3.1-7 3.6-11 1.5 1.1-3.2.6-3.3-1.5-.5l2.5-8a152 152 0 0 1 22.5-23c3.1 1.5 3 3-.5 4.5a5 5 0 0 1 1 2.5c-2 15.6-3.7 31.2-5 47-.7 2.8-2 5-4 7"/><path fill="#1f4558" d="M246 243.8v4c-1.1.7-1.3 1.7-.5 3a62 62 0 0 1 8.5 11.5 19.8 19.8 0 0 1-3 4.5 31 31 0 0 0-2-6q-2.4-3.7-4.5 0c-1-3.8-2.6-6.5-5-8l-1 1c-3.2-5.3-4.4-5-3.5 1l-2-2-8 3a260 260 0 0 0-2 10 308 308 0 0 0-4.5 12c-.9 16.4-3 32.4-6.5 48l1 4v2a5 5 0 0 0-2.5 4c-1-3.3-1.9-6.6-2.5-10-1.4-2.6-2.8-2.6-4 0a26 26 0 0 1 .5-15q1.2 2.9 1.5 6c1.3.1 2.7 0 4-.5-.5-5.8-.8-11.7-1-17.5.4-4 1.4-7.9 3-11.5a23 23 0 0 0-2-5 3.6 3.6 0 0 0 2-2c-1.4-2.1-1-4 1-5.5 1.3 4 2.6 4 4 0a11.2 11.2 0 0 1-3-7c1-3 1.3-5.8 1-8.5a5.7 5.7 0 0 1-3-3.5c.2-1.3.9-2 2-2-.1.4 0 .7.5 1 2-2 3.5-4.4 4.5-7 0-2-.5-2.3-1.5-1-1.8-.9-3.3-2-4.5-3.5q-.4-2.5 0-4.5a26.6 26.6 0 0 0 17-1q2.2.4 4.5 0a7.2 7.2 0 0 1 2.5-2q.3 2.3 0 4.5c.9 1.7 2 1.9 3.5.5 1.2 2 3 3 5.5 3"/><path fill="#375662" d="M70 264.8c.5 0 .8.3 1 1a31.4 31.4 0 0 1-4 4.5 20.5 20.5 0 0 0 3.5 2.5l10.5-3a106.8 106.8 0 0 0-29 38c-1-6 .8-11 5.5-15 1.2-7.7-.4-8.7-5-3l-1 7-1-3q-1 1.8-1.5 0c1.6-1.8 1.2-2.8-1-3a7.6 7.6 0 0 1 4-6c1.4-.5 2-1.5 2-3 1.2-2.5 2.8-4.5 5-6 3-2.1 5.4-4.8 7-8a3 3 0 0 1 2-2z"/><path fill="#f6e2e9" d="M173 265.8a801 801 0 0 0-22 25.5q-15.9-.7-18 15a7 7 0 0 0 2 5.5 5.6 5.6 0 0 0 4 4.5c4 .6 8 .5 12-.5-1.6 2.4-4 3.4-7 3-4.3.2-8-1.1-11-4-3.2-9.6-1-17.6 6.5-24a10 10 0 0 1 6-8c.7-4.1 3.2-6 7.5-5.5-1.2-.8-1.2-1.6 0-2.5a22.5 22.5 0 0 0 7.5-7l1 2q2-3.6 3 0a16 16 0 0 0 6.5-5z"/><path fill="#f7dce1" d="m235 254.8 28 41.5c-3.4 7-2.4 13.3 3 19 13 5.5 20 1.3 21-12.5 1.4 3.6 1 7.3-1 11a13.3 13.3 0 0 0-5 5.5 25 25 0 0 1-7.5 2.5c-8.4-2.2-14-7.3-16.5-15.5 1.3-5.8.5-6-2.5-.5-.5-2.7-.7-5.4-.5-8h-4a9.8 9.8 0 0 0-1-6q-1.2 1.3-1.5 3a9.2 9.2 0 0 1-5-5c-.8 1.1-1.6 1.1-2.5 0a59 59 0 0 1-1-7c-5-1-6.2-4-4-8.5-2.8-3.7-2.5-7 1-10q-2.4-1.6-3-4.5a7.1 7.1 0 0 0-5-1 8 8 0 0 1-2 5.5c.5 1.5 1.2 3 2 4.5-.7 3-1.5 3.3-2.5 1-.3.9-.8 1.5-1.5 2 .1-1-.2-1.7-1-2v-4a260 260 0 0 1 2-10l8-3z"/><path fill="#eccada" d="M208 254.8c.6 1 1 2 1 3.5a765 765 0 0 0-5.5 47.5c-1.7 11.2-4.8 21.9-9.5 32 .4-7 1-13.6 2-20 2-2 3.3-4.2 4-7 1.3-15.8 3-31.4 5-47a5 5 0 0 0-1-2.5c3.5-1.5 3.6-3 .5-4.5a7 7 0 0 1-2.5 2c.6-3.3 2.6-4.7 6-4"/><path fill="#b2c5d0" d="M54 281.8c0 1.5-.6 2.5-2 3-.1-1.6.6-2.6 2-3" opacity=".1" style="isolation:isolate"/><path fill="#fed8dc" d="M133 314.8c3 2.9 6.7 4.2 11 4 3 .4 5.4-.6 7-3h1c2.8-.7 5.3-2 7.5-4l1-12a620 620 0 0 0 21.5-20l-2.5 8c2.1-2.8 2.6-2.7 1.5.5 4 2.1 7.6 1.6 11-1.5 1 1.5.8 2.8-1 4 1 5.2 1.2 10.6.5 16-3.2 7.4-5.7 15.1-7.5 23a208 208 0 0 1-57.5 60c-2 2-4.6 3.2-7.5 3.5-1.6.7-2.6 1.9-3 3.5-6.7.8-13.3 1.1-20 1q-5 .3-6-4.5c.7-4.4 2.4-8.2 5-11.5 2-2 3.4-4.4 4.5-7q2.1.2 4.5 0a4.5 4.5 0 0 0-2-1.5 5 5 0 0 0 1-2.5l-5-16c2.5-2.2 2.5-4.4 0-6.5a144 144 0 0 0-17-.5c-.5 2.3-.9 4.6-1 7a84 84 0 0 1-12.5 3 6.2 6.2 0 0 1-3-1c-.8-7-.3-13.8 1.5-20.5-.6-1-1-2-1-3a43 43 0 0 0 3.5-16.5c3.8-5 6.8-10.3 9-16l14-14c.2-2.8 1.7-4.5 4.5-5 .8-1.9 1.8-3.5 3-5 3.6-1.2 7-3 10-5.5 3.8 1.1 7.3.3 10.5-2.5.4.4.9.7 1.5 1v-3.5a28.7 28.7 0 0 1 10-3 28.4 28.4 0 0 1 25-7 7 7 0 0 0-3.5 2.5 337 337 0 0 1-4.5 14 409 409 0 0 0-20 2 9.8 9.8 0 0 0 6 1c.2 4-.2 8-1 12a4.3 4.3 0 0 1-2.5 3c-1-1.3-1.8-1.3-2.5 0 1.5 2.3 1.1 3-1 2-1.2 1.8-.9 3.5 1 5-2.7 5-3.7 10.2-3 16 2-.3 3.4.3 4.5 2 1-2 2-2.3 3.5-1"/><path fill="#1d3948" d="M186 253.8c-.1 1 .2 1.8 1 2.5l-8.5 11.5a8.4 8.4 0 0 0-.5 4 7 7 0 0 0-5 1c2 .2 3.6 1.5 5 4 1.6-2 3.6-3.4 6-4-.2-1 0-2 .5-3 3.6-1.8 6.4-4.5 8.5-8l2 1a586 586 0 0 1-35.5 35l-1 11a11 11 0 0 1-4.5 5c0-2.6.6-4.9 2-7a4.7 4.7 0 0 1 0-5.5 11 11 0 0 0-2-3.5c3.8-1.3 6.8-3.6 9-7-1.5-.9-2.8-1.9-4-3a47 47 0 0 1-7 5.5c-13.3-.7-19 5.5-17 18.5a7 7 0 0 1-2-5.5q2.1-15.7 18-15c7.1-8.7 14.5-17.2 22-25.5z"/><path fill="#a6ccda" d="M351 282.8c1.4.4 2 1.4 2 3-1.4-.5-2.1-1.5-2-3" opacity=".1" style="isolation:isolate"/><path fill="#2d4750" d="M223 265.8v4c-3 20.1-6.4 40.1-10 60l-1-4c3.4-15.6 5.6-31.6 6.5-48a308 308 0 0 1 4.5-12"/><path fill="#f7bbc7" d="M291 256.8a162 162 0 0 1 26 10.5 57.3 57.3 0 0 1 17 16.5c2.9 8 7 15.4 12.5 22q7.4 23.4 6 48c-1 9.7-3.1 19-6.5 28a26.3 26.3 0 0 1-7 10c-2.8-.7-4.5-2.5-5-5.5q1.6-6.3 6-10.5c4.8-29.3-.3-56.7-15.5-82a582 582 0 0 0-33.5-37"/><path fill="#163c51" d="M246 247.8a390 390 0 0 1 28.5 44c1 .8 2.2 1.1 3.5 1 4.4 2 7.4 5.3 9 10-1 13.8-8 18-21 12.5-5.4-5.7-6.4-12-3-19l-28-41.5c-.9-6 .3-6.3 3.5-1l1-1c2.4 1.5 4 4.2 5 8q2-3.7 4.5 0a31 31 0 0 1 2 6 19.8 19.8 0 0 0 3-4.5 62 62 0 0 0-8.5-11.5c-.8-1.3-.6-2.3.5-3"/><path fill="#9dbfd0" d="M48 290.8a20 20 0 0 1-5 9 20 20 0 0 1 5-9" opacity=".1" style="isolation:isolate"/><path fill="#20465b" d="M320 251.8c1.5.8 3.2 1 5 1 1.4 1 3 1.2 5 1a245 245 0 0 0 28 3c1.2.7 2.5 1.2 4 1.5a7.7 7.7 0 0 0 3 3.5c-.5-1.5.2-2.7 2-3.5 1.5-.5 3-.4 4.5.5 4-2.2 8.1-3.8 12.5-5a82.6 82.6 0 0 1-22 10c-7 1.5-14 2.8-21 4-.3 1.2 0 2.2 1 3l9 12c-.1 1.5.6 2.5 2 3 2.5 4.1 4.9 8.4 7 13q2.2 9.3 6 18v3c.1 9.1-.2 18.4-1 28-1-1.1-2-2.5-2.5-4a3.3 3.3 0 0 1-3.5 2q-.3-6-1.5 0c-.8 5.3-1.5 10.6-2 16-1 2.2-2.2 4.2-3.5 6 4.5-19.9 3.8-39.6-2-59-2-6.5-4.1-12.8-6.5-19a22.7 22.7 0 0 0-4-5c-1-3.2-.2-5.7 2.5-7.5l-6-6c-1.6-.4-3 0-4 1.5 1.2.9 2.5 1.2 4 1 .2 2.1-.6 3.8-2.5 5-3-2.3-5.6-5.2-7.5-8.5-3.8-.3-6.2-2.3-7-6a10 10 0 0 1-7-3.5c-1.2-1-1.2-1.8 0-2.5 4.9-.3 4.9-1 0-2l7-1c.8-1 1.1-2.2 1-3.5"/><path fill="#143e53" d="M154 313.8a3 3 0 0 0-2 2h-1c-4 1-8 1.1-12 .5a5.6 5.6 0 0 1-4-4.5c-2-13 3.7-19.2 17-18.5 2.5-1.7 4.8-3.5 7-5.5 1.2 1.1 2.5 2.1 4 3a15.7 15.7 0 0 1-9 7 11 11 0 0 1 2 3.5 4.7 4.7 0 0 0 0 5.5 12 12 0 0 0-2 7"/><path fill="#2c4b5c" d="M52 307.8c-3.7 13.7-5 27.7-4 42-1.2-3.8-2-7.8-2.5-12-1 1-1.7.8-2-1a27 27 0 0 0-1.5-7l-2 2c-1.3-.9-2.6-.9-4 0v-7c1.5-2.4 2.2-5 2-8a58.2 58.2 0 0 1 5-17 20 20 0 0 0 5-9c2.2.2 2.6 1.2 1 3q.5 1.8 1.5 0l1 3 1-7c4.6-5.7 6.2-4.7 5 3-4.7 4-6.5 9-5.5 15"/><path fill="#7b9ca9" d="M360 298.8q5 8.1 6 18-3.8-8.7-6-18" opacity=".2" style="isolation:isolate"/><path fill="#9ec7d0" d="M366 316.8c1.5 3 2.2 6.3 2 10-1-2.2-1.6-4.5-2-7z" opacity=".1" style="isolation:isolate"/><path fill="#8ea8b8" d="M38 316.8c.2 3-.5 5.6-2 8 0-3 .7-5.6 2-8" opacity=".1" style="isolation:isolate"/><path fill="#f5bfc6" d="M196 317.8a252 252 0 0 0-2 20c-2.5-.2-4.3.8-5.5 3-2 5.4-4.2 10.8-6.5 16-3.5-.4-5.9 1.1-7 4.5a11.4 11.4 0 0 0-3.5 1.5l-5-1a7 7 0 0 1-4.5 2.5 5.8 5.8 0 0 0-2 5.5h-4a26.4 26.4 0 0 0-7.5 11c-.7 1.2-.6 2.4.5 3.5-1 .4-2 .3-3-.5-1.2.7-1.2 1.6 0 2.5a48.6 48.6 0 0 1-12 7l-18 3.5a5.4 5.4 0 0 1 3-3.5c3-.3 5.4-1.4 7.5-3.5a208 208 0 0 0 57.5-60 7 7 0 0 0 2.5-2l1 2q.4-2.4 1.5-4.5c-1.1-2.3-.3-3.8 2.5-4.5.3-2.5 1-4.8 2-7 .6 1.5 1.4 2.9 2.5 4"/><path fill="#f8f9f9" d="M223 269.8c.8.3 1.1 1 1 2a403 403 0 0 0 2.5 55 88 88 0 0 0 6.5 18 159.3 159.3 0 0 0 13 28c6.6 5.3 13 11 19 17 6.5 3.6 13.2 7.1 20 10.5 3 .5 6 1.2 9 2l15 6.5c-13 2.2-25.6.8-38-4a95.8 95.8 0 0 1-56-57 47 47 0 0 1-2-16v-2c3.6-19.9 7-39.9 10-60"/><path fill="#e2c2cd" d="M334 283.8a100 100 0 0 1 7.5 9 372 372 0 0 0 8.5 16c5.8 19.4 6.5 39.1 2 59a61 61 0 0 1-6 14c3.4-9 5.5-18.3 6.5-28q1.4-24.6-6-48a71.7 71.7 0 0 1-12.5-22"/><path fill="#fadde2" d="M99 276.8a24.3 24.3 0 0 0-3 5c-2.8.5-4.3 2.2-4.5 5l-14 14c-2.2 5.7-5.2 11-9 16a43 43 0 0 1-3.5 16.5c0 1 .4 2 1 3a55.7 55.7 0 0 0-1.5 20.5 6.2 6.2 0 0 0 3 1c4.2-.7 8.4-1.7 12.5-3 .1-2.4.5-4.7 1-7 5.6-.2 11.3 0 17 .5 2.5 2.1 2.5 4.3 0 6.5l5 16a5 5 0 0 1-1 2.5c.8.3 1.4.8 2 1.5q-2.4.2-4.5 0c-1 2.6-2.6 5-4.5 7 1.2-4.8 1.2-9.5 0-14-1.7-4.9-5-7-10-6.5a427 427 0 0 0-18 16.5 112 112 0 0 1-3.5-52c6.6-18.1 16.7-33.6 30.5-46.5 1.5-1.1 3.2-2 5-2.5"/><path fill="#6c9eae" d="M36 355.8q2.6 5.5 3 12-3-5.5-3-12" opacity=".2" style="isolation:isolate"/><path fill="#f8dce2" d="m233 344.8 4 3a45.3 45.3 0 0 0 3.5 10 18 18 0 0 1 6 11c8 6.3 15.5 13.1 22.5 20.5 6.8 3.2 13.4 6.7 20 10.5.7-.6 1.2-1.2 1.5-2a59 59 0 0 0 16.5 8.5c4.3.7 8.3-.2 12-2.5 1.3-3 .3-4.7-3-5q.5-3.7-3-4.5l1-1c-4.4-2-6.8-5.5-7-10.5a3 3 0 0 0-3-1c-.5-5.9.2-11.5 2-17a75 75 0 0 1 16-.5c.5 1.1 1.3 2 2.5 2.5 2.4-1.7 3.6-1 3.5 2 1.3.1 2.7 0 4-.5-2-1.2-2.4-2.7-1-4.5q2.4 3.8 4.5 0a9.9 9.9 0 0 1 2 5l1-7c.4 2 1.2 3.8 2.5 5.5-.9 2.7-1.2 5.6-1 8.5q-4.4 4.2-6 10.5c.5 3 2.2 4.8 5 5.5-1.1 1-2.5 1.2-4 .5a90.7 90.7 0 0 0-15-17c-6.8-3-10-.8-9.5 6.5a93.5 93.5 0 0 0 12 19c.6 1.4.4 2.7-.5 4a37 37 0 0 1-13 4l-15-6.5c-3-.8-6-1.5-9-2-6.8-3.4-13.5-6.9-20-10.5a231 231 0 0 0-19-17 159.3 159.3 0 0 1-13-28"/><path fill="#63899b" d="M44 378.8c2.7 1.8 4.4 4.5 5 8a16 16 0 0 1-5-8" opacity=".8" style="isolation:isolate"/><path fill="#355566" d="M183 378.8c-2.5 3-5.2 5.8-8 8.5-4.6 3.4-9.3 6.6-14 9.5-.5-.8-1.1-1.3-2-1.5q1-2.1 1.5-4.5c1.5 2 3.3 2.3 5.5 1a4.3 4.3 0 0 1 3-2.5c-2.9-1.9-2.7-3.4.5-4.5 1 .7 2.2 1.4 3.5 2 3-3.2 5.2-6.5 6.5-10l1 2c1.5-3.8 2.3-3.8 2.5 0" style="isolation:isolate"/><path fill="#8cacb5" d="M234 398.8c1.9.2 3.2 1.2 4 3a4.7 4.7 0 0 1-4-3" opacity=".2" style="isolation:isolate"/><path fill="#1b3d50" d="M213 331.8a47 47 0 0 0 2 16c-.6.2-1 .7-1 1.5q1 3.6 1.5 7.5c2.7 3 4.5 6.4 5.5 10.5l5.5 6.5a161 161 0 0 1 1.5 8c1.4-.3 2.8 0 4 1 2.2 2.8 2.2 5.4 0 8 .7.4 1.7.5 3 .5a11.5 11.5 0 0 1-2 2.5q-3.1-2.2-3-6c-2 .2-3.4-.5-4.5-2-1 .8-2.2 1.1-3.5 1a21.7 21.7 0 0 1-4-5c-.4-2.5-.9-4.9-1.5-7-1.1-2-2.5-2.6-4-2-.7-1-.5-1.8.5-2.5a28.4 28.4 0 0 1-4-1.5c-.5-2.4-1.2-4.7-2-7l1-2-4-2c-1.2-1.3-1.2-2.4 0-3.5-2.1-.5-3.5.3-4 2.5a41.1 41.1 0 0 1-10 14c-1.4.4-2.1 1.4-2 3-1.4 2-3 3.6-5 5-.2-3.8-1-3.8-2.5 0l-1-2a27.8 27.8 0 0 1-6.5 10c-1.3-.6-2.4-1.3-3.5-2-3.2 1.1-3.4 2.6-.5 4.5a4.3 4.3 0 0 0-3 2.5c-2.2 1.3-4 1-5.5-1q-.4 2.4-1.5 4.5c.9.2 1.5.7 2 1.5a82.2 82.2 0 0 1-42 17H93a69 69 0 0 1-25-8c-.5-1.5-1.5-2.1-3-2-6.7-4.4-12-10-16-17-.6-3.5-2.3-6.2-5-8-2.5-3.3-4.2-7-5-11q-.4-6.5-3-12a87 87 0 0 1 0-24c1.4-.9 2.7-.9 4 0l2-2a27 27 0 0 1 1.5 7c.3 1.8 1 2 2 1 .5 4.2 1.3 8.2 2.5 12q2.5 12.3 7.5 24a21.8 21.8 0 0 0 7.5 6l4-2q8.7-8.5 18-16.5c5-.5 8.3 1.6 10 6.5a109 109 0 0 1-14.5 16q-3 3.4-4.5 7.5a5 5 0 0 0 3 4c3.8 1.7 7.8 3 12 3.5 30 3.5 56.3-5.1 78.5-26a133.2 133.2 0 0 0 19.5-24c1.3.1 2.5-.2 3.5-1 1.8 2.3 4 4 6.5 5 .2-3.5-.1-6.8-1-10l3.5-3q1.8 1.4 1.5 3a6.6 6.6 0 0 0 3-3c-.8-1.3-1.6-1.3-2.5 0a31.2 31.2 0 0 0-3.5-7c3.6-.7 5-3 4-7 1.2-2.6 2.6-2.6 4 0 .6 3.4 1.5 6.7 2.5 10a5 5 0 0 1 2.5-4" style="isolation:isolate"/><path fill="#f6f2f4" d="M95 367.8c1.2 4.5 1.2 9.2 0 14a25.6 25.6 0 0 0-5 11.5q1 4.8 6 4.5c-1.5 1-3.1 1.2-5 1-4.2-.6-8.2-1.8-12-3.5a5 5 0 0 1-3-4q1.5-4.1 4.5-7.5a109 109 0 0 0 14.5-16"/><path fill="#ecc9d4" d="M194 337.8c-.9 4-2.6 7.7-5 11a133.2 133.2 0 0 1-19.5 24 93.3 93.3 0 0 1-78.5 26c1.9.2 3.5 0 5-1a134.9 134.9 0 0 0 38-4.5c4.3-1.8 8.3-4.2 12-7-1.2-1-1.2-1.8 0-2.5 1 .8 2 1 3 .5-1-1-1.2-2.3-.5-3.5 1.6-4.5 4.1-8.2 7.5-11h4c-.4-2.3.3-4.1 2-5.5a7 7 0 0 0 4.5-2.5l5 1a11.4 11.4 0 0 1 3.5-1.5c1.1-3.4 3.5-4.9 7-4.5 2.3-5.2 4.4-10.6 6.5-16 1.2-2.2 3-3.2 5.5-3"/><path fill="#47697a" d="m209 368.8 4 1.5c-1 .7-1.2 1.5-.5 2.5 1.5-.6 2.9 0 4 2 .6 2.1 1.1 4.5 1.5 7a46.1 46.1 0 0 1-9-13" opacity=".9" style="isolation:isolate"/><path fill="#4d7086" d="M209 368.8c-2.7-3.3-4.8-7-6.5-11-.7-.8-1.5-1.1-2.5-1 .5-2.2 1.9-3 4-2.5-1.2 1-1.2 2.2 0 3.5l4 2-1 2c.8 2.3 1.5 4.6 2 7" opacity=".9" style="isolation:isolate"/><path fill="#1c374e" d="M365 347.8c-3 9-4.8 18.3-5.5 28-1.7 4-4.5 5.9-8.5 5.5 2.7 2.4 3 5 1 7.5.9 2 .7 4-.5 6-.7-1.4-1.4-1.4-2 0a8.4 8.4 0 0 0-.5 4 3 3 0 0 1-3-1q-.6-3-3-4.5 2.4-.4 4.5-1.5c1.8-3.5 2.5-7.2 2-11a22.6 22.6 0 0 0-4 8 56 56 0 0 0-5.5 4.5 12.4 12.4 0 0 1-7 0c-1-2.9-2.5-3-4.5-.5 0 3.6.4 7.3 1 11l4.5 3a12 12 0 0 1-6 4c-1.8-.6-2.1-1.4-1-2.5a69 69 0 0 0-5-3.5c.9-1.3 1-2.6.5-4a93.5 93.5 0 0 1-12-19c-.4-7.3 2.7-9.5 9.5-6.5a90.7 90.7 0 0 1 15 17c1.5.7 2.9.6 4-.5 3-2.8 5.4-6.2 7-10 2.6-4.5 4.6-9.1 6-14 1.3-1.8 2.5-3.8 3.5-6 .5-5.4 1.2-10.7 2-16q1.2-6 1.5 0c1.6.1 2.8-.6 3.5-2 .6 1.5 1.4 2.9 2.5 4"/><path fill="#87bac6" d="M65 403.8c1.5-.1 2.5.5 3 2-1.6 0-2.6-.6-3-2" opacity=".1" style="isolation:isolate"/><path fill="#244557" d="M215 347.8a95.8 95.8 0 0 0 56 57c.7 3.4 2.9 5.4 6.5 6a11.4 11.4 0 0 0 1.5 3.5 73 73 0 0 1 9 2.5 5 5 0 0 1-4 2.5c1.3.6 1.3 1.3 0 2a147 147 0 0 0 28 1.5c-18 3.2-35.4.8-52-7-.5-1.5-1.5-2.1-3-2a56.2 56.2 0 0 1-19-12 4.7 4.7 0 0 0-4-3q-6.5-5.5-12-12c1.3.1 2.5-.2 3.5-1a4.6 4.6 0 0 0 4.5 2q-.1 3.8 3 6a11.5 11.5 0 0 0 2-2.5c-1.3 0-2.3-.1-3-.5 2.2-2.6 2.2-5.2 0-8a4.9 4.9 0 0 0-4-1 161 161 0 0 0-1.5-8l-5.5-6.5c-1-4-2.8-7.6-5.5-10.5q-.5-3.9-1.5-7.5c0-.8.4-1.3 1-1.5" style="isolation:isolate"/><path fill="#668f9e" d="M93 413.8h26c-4.2.8-8.5 1.5-13 2-4.5-.5-8.9-1.2-13-2" opacity=".3" style="isolation:isolate"/><path fill="#1c3c4c" d="M366 319.8c.4 2.5 1 4.8 2 7a76.8 76.8 0 0 1 0 34 132 132 0 0 0-5 19 64.5 64.5 0 0 1-12 20c-2 1.3-3.7 3-5 5a53.5 53.5 0 0 1-34 18 147 147 0 0 1-28-1.5c1.3-.7 1.3-1.4 0-2a5 5 0 0 0 4-2.5 73 73 0 0 0-9-2.5 11.4 11.4 0 0 1-1.5-3.5c-3.6-.6-5.8-2.6-6.5-6 12.4 4.8 25 6.2 38 4a37 37 0 0 0 13-4l5 3.5c-1.1 1-.8 2 1 2.5a12 12 0 0 0 6-4l-4.5-3c-.6-3.7-1-7.4-1-11 2-2.6 3.5-2.4 4.5.5a12.4 12.4 0 0 0 7 0c1.7-1.7 3.6-3.2 5.5-4.5a22.6 22.6 0 0 1 4-8c.5 3.8-.2 7.5-2 11q-2.1 1-4.5 1.5 2.4 1.6 3 4.5a3 3 0 0 0 3 1c-.2-1.4 0-2.8.5-4 .6-1.4 1.3-1.4 2 0 1.2-2 1.4-4 .5-6 2-2.6 1.7-5-1-7.5 4 .4 6.8-1.5 8.5-5.5.7-9.7 2.5-19 5.5-28 .8-9.6 1.1-18.9 1-28" style="isolation:isolate"/></svg>