<svg xmlns="http://www.w3.org/2000/svg" width="500" height="500" style="shape-rendering:geometricPrecision;text-rendering:geometricPrecision;image-rendering:optimizeQuality;fill-rule:evenodd;clip-rule:evenodd"><path fill="#fefffe" d="M135.5 7.5c1.333.667 1.333.667 0 0ZM63.5 12.5c1.333.667 1.333.667 0 0ZM271.5 15.5c1.333.667 1.333.667 0 0ZM320.5 18.5c1.333.667 1.333.667 0 0ZM153.5 25.5c1.333.667 1.333.667 0 0Z" style="opacity:.004"/><path fill="#7da5b0" d="M266.5 30.5a104.419 104.419 0 0 0-20-.5 486.073 486.073 0 0 1-21 5.5c8.831-4.05 18.165-6.717 28-8 4.568.546 8.901 1.546 13 3Z" style="opacity:.306"/><path fill="#fefffe" d="M203.5 30.5c1.333.667 1.333.667 0 0ZM97.5 34.5c1.333.667 1.333.667 0 0ZM40.5 39.5c1.333.667 1.333.667 0 0Z" style="opacity:.004"/><path fill="#92cad3" d="M218.5 38.5c-1.159 1.75-2.826 2.75-5 3 1.159-1.75 2.826-2.75 5-3Z" style="opacity:.067"/><path fill="#9db4d3" d="M288.5 39.5c1.527-.073 2.527.594 3 2-1.527.073-2.527-.594-3-2Z" style="opacity:.016"/><path fill="#a0ced4" d="M291.5 41.5c1.527-.073 2.527.594 3 2-1.527.073-2.527-.594-3-2Z" style="opacity:.027"/><path fill="#86bbc9" d="M294.5 43.5c2.609.943 4.609 2.61 6 5-2.635-.974-4.635-2.64-6-5Z" style="opacity:.149"/><path fill="#fefffe" d="M335.5 46.5c1.333.667 1.333.667 0 0ZM146.5 48.5c1.333.667 1.333.667 0 0ZM488.5 48.5c1.333.667 1.333.667 0 0Z" style="opacity:.004"/><path fill="#668c97" d="M204.5 48.5c-1.739 2.743-4.073 4.743-7 6 1.739-2.743 4.073-4.743 7-6Z" style="opacity:.373"/><path fill="#8eaabc" d="M300.5 48.5c4.688 2.688 8.355 6.355 11 11a85.729 85.729 0 0 1-11-11Z" style="opacity:.196"/><path fill="#fefffe" d="M47.5 52.5c1.333.667 1.333.667 0 0Z" style="opacity:.004"/><path fill="#f6f9f9" d="M243.5 45.5v18c-.985-4.134-1.318-8.468-1-13-1.808-.009-3.475.491-5 1.5a92.879 92.879 0 0 1-12 11.5 101.03 101.03 0 0 0-11.5 15 57.838 57.838 0 0 0-4.5 9 14.694 14.694 0 0 0-3.5 3c-3.362 7.626-5.695 15.292-7 23-.5 9.994-.666 19.994-.5 30h3a506.414 506.414 0 0 0 6.5 31 484.887 484.887 0 0 1 25.5 42c.379 3.042 1.712 5.542 4 7.5-.336 1.03-1.003 1.53-2 1.5a1061.407 1061.407 0 0 1-33-45 183.566 183.566 0 0 1-18.5-36c-7.92-48 10.58-81.167 55.5-99.5 1.566-.765 2.899-.598 4 .5Z" style="opacity:1"/><path fill="#6b92a0" d="M195.5 56.5c-1.594 3.264-3.927 5.93-7 8 1.594-3.264 3.927-5.93 7-8Z" style="opacity:.353"/><path fill="#fefffe" d="M431.5 59.5c1.333.667 1.333.667 0 0Z" style="opacity:.004"/><path fill="#fdd8dd" d="M243.5 63.5c-.16 1.7.006 3.366.5 5a10.504 10.504 0 0 1 3.5 5c6.662 2.507 11.828.84 15.5-5a6.544 6.544 0 0 1 3 3 82.399 82.399 0 0 1 5-11c1.857.667 3.357 0 4.5-2 .765.423 1.598.757 2.5 1a31.61 31.61 0 0 1 7.5-2c2.008 2.462 4.008 5.462 6 9v2c-.221 2.597-.721 2.597-1.5 0a7.248 7.248 0 0 1-2.5 2 39.918 39.918 0 0 0-15-.5l-2.5 2.5c-1.134 4.08-2.634 7.913-4.5 11.5.266 3.768 2.266 5.6 6 5.5-.322 2.222.345 4.056 2 5.5l-7 1a36.591 36.591 0 0 0 5 6c-1.193 3.014-1.859 6.181-2 9.5.674 5.353 1.341 10.686 2 16a8.43 8.43 0 0 1 4 .5l-4 8c3.045.745 5.711 2.078 8 4-.32 1.653-1.32 2.653-3 3 2.215 1.391 2.215 3.057 0 5-1.956-.222-3.79-1.055-5.5-2.5a548.13 548.13 0 0 1 2.5 22 16.873 16.873 0 0 0 1-8h13c-.253-2.327.414-4.327 2-6a168.028 168.028 0 0 1 2 6.5c-1.238-.077-2.238.089-3 .5a21.028 21.028 0 0 1 2 7 201.52 201.52 0 0 0-12 24 96.843 96.843 0 0 0-10 16c-2.284.916-3.451-.084-3.5-3-3.556 2.607-4.39 5.94-2.5 10l-.5 2c-.654-1.196-1.154-1.196-1.5 0-.589 1.873.078 3.54 2 5-.363.683-.696 1.35-1 2a5.727 5.727 0 0 1-3-1c1.277-15.48 1.277-30.813 0-46-.545-5.963.121-11.63 2-17h1c1.175.219 2.175-.114 3-1 3.703-6.206 3.87-12.539.5-19-6.513-5.787-14.013-7.454-22.5-5-.17-1.322.163-2.489 1-3.5-5.644-3.004-5.311-4.004 1-3 3.444 5.962 6.777 5.962 10 0a52.141 52.141 0 0 0 10-1.5 40.282 40.282 0 0 1-1-12h-8v-6h-16v3h-5a143.796 143.796 0 0 1-2 16c-.925-1.141-1.759-1.141-2.5 0a8.43 8.43 0 0 0-.5 4h4c.354 2.921-.646 5.254-3 7 .59 1.299 1.59 2.132 3 2.5l-6 2c1.439.991 2.439 2.324 3 4-1.99 4.24-2.323 8.574-1 13-.949.617-1.782.451-2.5-.5-1.626-3.113-1.792-6.279-.5-9.5-2.289-7.087-3.622-6.587-4 1.5 1.819 5.134.986 9.134-2.5 12-.216 1.884-.883 3.551-2 5-3.33-6.198-5.997-5.531-8 2-2.196-2.573-2.696-5.407-1.5-8.5-10.8-24.896-10.467-49.73 1-74.5a57.838 57.838 0 0 1 4.5-9 101.03 101.03 0 0 1 11.5-15 92.879 92.879 0 0 0 12-11.5c1.525-1.009 3.192-1.509 5-1.5-.318 4.532.015 8.866 1 13Z" style="opacity:1"/><path fill="#fefffe" d="M407.5 61.5c1.333.667 1.333.667 0 0Z" style="opacity:.004"/><path fill="#8bbdc5" d="M313.5 61.5c1.406.473 2.073 1.473 2 3-1.406-.473-2.073-1.473-2-3Z" style="opacity:.137"/><path fill="#7d9cb8" d="M188.5 64.5c.073 1.527-.594 2.527-2 3-.073-1.527.594-2.527 2-3Z" style="opacity:.165"/><path fill="#fed6d8" d="M291.5 68.5c16.296 33.121 15.962 66.121-1 99a21.028 21.028 0 0 0-2-7c.762-.411 1.762-.577 3-.5a168.028 168.028 0 0 0-2-6.5c-1.586 1.673-2.253 3.673-2 6h-13a16.873 16.873 0 0 1-1 8 548.13 548.13 0 0 0-2.5-22c1.71 1.445 3.544 2.278 5.5 2.5 2.215-1.943 2.215-3.609 0-5 1.68-.347 2.68-1.347 3-3-2.289-1.922-4.955-3.255-8-4l4-8a8.43 8.43 0 0 0-4-.5 8626.255 8626.255 0 0 0-2-16c.141-3.319.807-6.486 2-9.5a36.591 36.591 0 0 1-5-6l7-1c-1.655-1.444-2.322-3.278-2-5.5-3.734.1-5.734-1.732-6-5.5 1.866-3.587 3.366-7.42 4.5-11.5l2.5-2.5a39.918 39.918 0 0 1 15 .5 7.248 7.248 0 0 0 2.5-2c.779 2.597 1.279 2.597 1.5 0Z" style="opacity:1"/><path fill="#90a5c2" d="M318.5 68.5c1.406.473 2.073 1.473 2 3-1.406-.473-2.073-1.473-2-3Z" style="opacity:.239"/><path fill="#aec9d1" d="M320.5 71.5c1.406.473 2.073 1.473 2 3-1.406-.473-2.073-1.473-2-3Z" style="opacity:.055"/><path fill="#7fa7b2" d="M182.5 73.5c.073 1.527-.594 2.527-2 3-.073-1.527.594-2.527 2-3Z" style="opacity:.157"/><path fill="#fefffe" d="M156.5 80.5c1.333.667 1.333.667 0 0ZM339.5 82.5c1.333.667 1.333.667 0 0Z" style="opacity:.004"/><path fill="#a0bccd" d="M180.5 76.5c-1.488 4.967-3.488 9.634-6 14a36.488 36.488 0 0 1 3.5-11c.377-1.442 1.21-2.442 2.5-3Z" style="opacity:.094"/><path fill="#fefffe" d="M348.5 89.5c1.333.667 1.333.667 0 0Z" style="opacity:.004"/><path fill="#7596a2" d="M328.5 87.5c2.443 5 4.11 10.334 5 16-2.439-4.99-4.106-10.323-5-16Z" style="opacity:.447"/><path fill="#fefffe" d="M434.5 92.5c1.333.667 1.333.667 0 0ZM89.5 104.5c1.333.667 1.333.667 0 0Z" style="opacity:.004"/><path fill="#1b3549" d="M303.5 71.5c2.849.233 5.016 1.566 6.5 4a115.011 115.011 0 0 0 6 16c.14-2.543.806-4.877 2-7 1.758.97 2.258 2.136 1.5 3.5a43.433 43.433 0 0 1 2.5 12.5 35.576 35.576 0 0 1 3.5 7h3a4.934 4.934 0 0 1 .5-3 43.073 43.073 0 0 0 2 9 41.362 41.362 0 0 0 2.5-6 196.329 196.329 0 0 1 1 24v5a71.254 71.254 0 0 0-2 4l-3-1.5c1.211-.893 1.211-1.726 0-2.5-.925 1.141-1.759 1.141-2.5 0l-1-4c-3.179 6.721-4.346 13.721-3.5 21-.881 1.471-2.214 2.304-4 2.5-.553 1.878-1.553 3.378-3 4.5a89.347 89.347 0 0 0-14 17c-5.544 5.446-8.711 12.112-9.5 20-2.726 2.786-4.393 6.119-5 10a14.506 14.506 0 0 1-4-5 64.783 64.783 0 0 0-8 11c-.69 1.238-1.19 1.238-1.5 0a904.415 904.415 0 0 1 41.5-56 26.352 26.352 0 0 0 4.5-10c1.54-4.565 2.207-9.398 2-14.5-.001-3.683-.335-7.183-1-10.5-.284-18.853-5.951-35.853-17-51Z" style="opacity:1"/><path fill="#fefffe" d="M55.5 109.5c1.333.667 1.333.667 0 0ZM489.5 111.5c1.333.667 1.333.667 0 0Z" style="opacity:.004"/><path fill="#fe00ff" d="M151.5 115.5c1.333.667 1.333.667 0 0Z" style="opacity:.004"/><path fill="#6791a0" d="M170.5 103.5c.138 4.914-.528 9.581-2 14-.138-4.914.528-9.581 2-14Z" style="opacity:.373"/><path fill="#6f95a2" d="M333.5 103.5c1.554 4.067 2.22 8.4 2 13 .321 5.195-.013 10.195-1 15a196.329 196.329 0 0 0-1-24v-4Z" style="opacity:.157"/><path fill="#fefffe" d="M411.5 117.5c1.333.667 1.333.667 0 0ZM363.5 120.5c1.333.667 1.333.667 0 0Z" style="opacity:.004"/><path fill="#7da0af" d="M126.5 122.5a340.858 340.858 0 0 0-29 1c5.767-1.453 11.767-2.12 18-2 3.849.001 7.516.335 11 1Z" style="opacity:.176"/><path fill="#9fcbd1" d="M90.5 124.5c-4.095 1.779-8.428 3.112-13 4 3.878-2.513 8.211-3.846 13-4Z" style="opacity:.176"/><path fill="#8bb5c2" d="M408.5 124.5c7.051.018 13.384 2.018 19 6a28048.99 28048.99 0 0 0-19-6Z" style="opacity:.067"/><path fill="#97bcc5" d="M370.5 124.5c-7.238 2.3-14.571 4.633-22 7h-2c7.543-3.556 15.543-5.89 24-7Z" style="opacity:.196"/><path fill="#abd1e5" d="m335.5 116.5 2 20c-1 1.333-2 1.333-3 0v-5c.987-4.805 1.321-9.805 1-15Z" style="opacity:.263"/><path fill="#715d6f" d="M320.5 122.5c.665 3.317.999 6.817 1 10.5.207 5.102-.46 9.935-2 14.5a229.416 229.416 0 0 0 1-25Z" style="opacity:1"/><path fill="#95b5c9" d="M438.5 136.5c4.224 1.557 7.557 4.224 10 8-3.777-2.208-7.11-4.875-10-8Z" style="opacity:.106"/><path fill="#f6f9f9" d="M167.5 151.5c-2.42 1.145-4.42.478-6-2a150.86 150.86 0 0 1-7.5 2 518.39 518.39 0 0 1-25.5-3.5c-5.849-.818-11.515-.652-17 .5-12.021.726-23.688 3.226-35 7.5-1.29 1.802-2.956 2.969-5 3.5-2.344.175-4.011 1.342-5 3.5a66.226 66.226 0 0 0-10 3.5c-1.752.082-2.752-.751-3-2.5a15.407 15.407 0 0 0 2-4.5c27.392-21.839 58.058-28.006 92-18.5a236.475 236.475 0 0 1 20 10.5Z" style="opacity:1"/><path fill="#1b3d51" d="M408.5 124.5a28048.99 28048.99 0 0 1 19 6c4.12 1.226 7.787 3.226 11 6 2.89 3.125 6.223 5.792 10 8 1.667 1 3 2.333 4 4 1.257 2.927 3.257 5.261 6 7 5.227 7.472 8.561 15.805 10 25a125.029 125.029 0 0 1 0 31c-1.629 9.554-4.629 18.554-9 27-.582-1.431-1.415-2.764-2.5-4-1.584 1.361-3.418 2.028-5.5 2a6.846 6.846 0 0 0-1-4c1.641-3.058 2.474-6.392 2.5-10a20.889 20.889 0 0 1 3.5-6.5 62.792 62.792 0 0 1-1-15.5v-11a144.615 144.615 0 0 0-19 4c-6.942 1.557-9.775-1.11-8.5-8 6.181-5.676 13.347-9.676 21.5-12 1.114-1.223 1.281-2.556.5-4a785.54 785.54 0 0 0-4.5-7c-9.221-11.786-21.221-19.286-36-22.5a101.663 101.663 0 0 0-32-2 108.441 108.441 0 0 1-18 3.5 64.934 64.934 0 0 1-9 .5l-1-1c1.456-.423 1.956-1.256 1.5-2.5-1.167-2.5-3-4.333-5.5-5.5 1.237-.232 2.237-.732 3-1.5 7.429-2.367 14.762-4.7 22-7 12.703-2.663 25.37-2.663 38 0Z" style="opacity:1"/><path fill="#698a94" d="M60.5 138.5c-2.4 3.403-5.4 6.07-9 8 2.4-3.403 5.4-6.07 9-8Z" style="opacity:.416"/><path fill="#1b465e" d="M346.5 131.5h2c-.763.768-1.763 1.268-3 1.5 2.5 1.167 4.333 3 5.5 5.5.456 1.244-.044 2.077-1.5 2.5l1 1a64.934 64.934 0 0 0 9-.5 114.317 114.317 0 0 0-30 18c-5.201.201-8.201 2.868-9 8-3.333 0-5 1.667-5 5-2.135.353-3.468-.48-4-2.5a19.953 19.953 0 0 1 3-4.5c.952-1.545 1.285-3.212 1-5 1.447-1.122 2.447-2.622 3-4.5 1.786-.196 3.119-1.029 4-2.5-.846-7.279.321-14.279 3.5-21l1 4c.741 1.141 1.575 1.141 2.5 0 1.211.774 1.211 1.607 0 2.5l3 1.5a71.254 71.254 0 0 1 2-4c1 1.333 2 1.333 3 0 2.248-2.893 5.248-4.56 9-5Z" style="opacity:1"/><path fill="#fddce1" d="M209.5 87.5c-11.467 24.77-11.8 49.604-1 74.5-1.196 3.093-.696 5.927 1.5 8.5 2.003-7.531 4.67-8.198 8-2 1.117-1.449 1.784-3.116 2-5 3.486-2.866 4.319-6.866 2.5-12 .378-8.087 1.711-8.587 4-1.5-1.292 3.221-1.126 6.387.5 9.5.718.951 1.551 1.117 2.5.5-1.323-4.426-.99-8.76 1-13-.561-1.676-1.561-3.009-3-4l6-2c-1.41-.368-2.41-1.201-3-2.5 2.354-1.746 3.354-4.079 3-7h-4a8.43 8.43 0 0 1 .5-4c.741-1.141 1.575-1.141 2.5 0a143.796 143.796 0 0 0 2-16h5v-3h16v6h8a40.282 40.282 0 0 0 1 12 52.141 52.141 0 0 1-10 1.5c-3.223 5.962-6.556 5.962-10 0-6.311-1.004-6.644-.004-1 3-.837 1.011-1.17 2.178-1 3.5-5.68 7.063-7.18 15.063-4.5 24 2.439 1.362 2.939 3.195 1.5 5.5 1.801.317 2.134.984 1 2 1.124.839 1.791 2.006 2 3.5a1595.54 1595.54 0 0 1-.5 47l-3 2c-.667-1.333-1.333-1.333-2 0-.567-2.483-1.733-3.15-3.5-2a484.887 484.887 0 0 0-25.5-42 506.414 506.414 0 0 1-6.5-31h-3c-.166-10.006 0-20.006.5-30 1.305-7.708 3.638-15.374 7-23a14.694 14.694 0 0 1 3.5-3Z" style="opacity:1"/><path fill="#8ab0c1" d="M452.5 148.5c2.743 1.739 4.743 4.073 6 7-2.743-1.739-4.743-4.073-6-7Z" style="opacity:.298"/><path fill="#193e51" d="M266.5 30.5c7.846 1.929 15.179 4.929 22 9 .473 1.406 1.473 2.073 3 2 .473 1.406 1.473 2.073 3 2 1.365 2.36 3.365 4.026 6 5a85.729 85.729 0 0 0 11 11l2 2c-.073 1.527.594 2.527 2 3 1.762.762 2.762 2.096 3 4-.073 1.527.594 2.527 2 3-.073 1.527.594 2.527 2 3 2.757 3.916 4.757 8.25 6 13 .894 5.677 2.561 11.01 5 16v4a41.362 41.362 0 0 1-2.5 6 43.073 43.073 0 0 1-2-9 4.934 4.934 0 0 0-.5 3h-3a35.576 35.576 0 0 0-3.5-7 43.433 43.433 0 0 0-2.5-12.5c.758-1.364.258-2.53-1.5-3.5-1.194 2.123-1.86 4.457-2 7a115.011 115.011 0 0 1-6-16c-1.484-2.434-3.651-3.767-6.5-4a203.776 203.776 0 0 0-18-16 101.058 101.058 0 0 0-24-12c-1-1.333-2-1.333-3 0-5.472 1.576-8.639 5.243-9.5 11-2.621-1.247-4.121-3.247-4.5-6 .237-1.291-.096-2.291-1-3-1.101-1.098-2.434-1.265-4-.5-44.92 18.333-63.42 51.5-55.5 99.5a183.566 183.566 0 0 0 18.5 36 2.428 2.428 0 0 1-2-.5 57.577 57.577 0 0 1-8.5-9.5c-.131-4.937-2.298-8.603-6.5-11-.392-3.572-2.059-6.239-5-8l-2.5-6-1 6c-.725-1.658-1.892-2.158-3.5-1.5-.906 1.699-1.239 3.533-1 5.5l-5-4a236.475 236.475 0 0 0-20-10.5c-33.942-9.506-64.608-3.339-92 18.5-3.333-.667-5.333.667-6 4-2.03 1.978-3.697 1.978-5 0-2.03 1.129-2.363.629-1-1.5 4.016.213 4.016-.787 0-3l2-1c-.752-.671-1.086-1.504-1-2.5a5.728 5.728 0 0 0 1-3 25.647 25.647 0 0 1 6-6c3.6-1.93 6.6-4.597 9-8 5.141-4.123 10.808-7.456 17-10 4.572-.888 8.905-2.221 13-4a21.434 21.434 0 0 1 7-1 340.858 340.858 0 0 1 29-1c4.174-.166 8.174.5 12 2 7.291 2.66 14.624 5.327 22 8a38.675 38.675 0 0 1 6.5 4c.172-6.513.672-12.847 1.5-19 1.472-4.419 2.138-9.086 2-14-.034-2.699.633-5.198 2-7.5l-1-1c1.281-1.409 2.281-2.909 3-4.5 2.512-4.366 4.512-9.033 6-14 1.406-.473 2.073-1.473 2-3 .84-2.353 2.174-4.353 4-6 1.406-.473 2.073-1.473 2-3 3.073-2.07 5.406-4.736 7-8 .333-1 1-1.667 2-2 2.927-1.257 5.261-3.257 7-6a46.512 46.512 0 0 1 9-7c2.174-.25 3.841-1.25 5-3 2.009-1.565 4.343-2.565 7-3a486.073 486.073 0 0 0 21-5.5c6.68-.474 13.346-.307 20 .5Z" style="opacity:.999"/><path fill="#94b6cb" d="M138.5 124.5c8.049.903 15.382 3.57 22 8-7.376-2.673-14.709-5.34-22-8Z" style="opacity:.118"/><path fill="#f4dbe6" d="M261.5 43.5c-1.265 1.014-1.931 2.514-2 4.5l.5 4.5a6.291 6.291 0 0 1 3-1 27.719 27.719 0 0 0 8.5 2c-.219 1.175.114 2.175 1 3 1.239.442 2.239 1.11 3 2-1.143 2-2.643 2.667-4.5 2a82.399 82.399 0 0 0-5 11 6.544 6.544 0 0 0-3-3c-3.672 5.84-8.838 7.507-15.5 5a10.504 10.504 0 0 0-3.5-5 12.93 12.93 0 0 1-.5-5v-5l2 9c3.62 6.274 7.786 6.607 12.5 1a23.814 23.814 0 0 0 1.5-8 124.698 124.698 0 0 1-1-17c1-1.333 2-1.333 3 0Z" style="opacity:1"/><path fill="#506475" d="M243.5 45.5c.904.709 1.237 1.709 1 3 .61 6.315.943 12.649 1 19l-2-9v-13Z" style="opacity:1"/><path fill="#f5eef4" d="M261.5 43.5a101.058 101.058 0 0 1 24 12v2a31.61 31.61 0 0 0-7.5 2 11.114 11.114 0 0 1-2.5-1c-.761-.89-1.761-1.558-3-2-.886-.825-1.219-1.825-1-3a27.719 27.719 0 0 1-8.5-2 6.291 6.291 0 0 0-3 1l-.5-4.5c.069-1.986.735-3.486 2-4.5Z" style="opacity:1"/><path fill="#0c2c3d" d="M258.5 43.5a124.698 124.698 0 0 0 1 17 23.814 23.814 0 0 1-1.5 8c-4.714 5.607-8.88 5.274-12.5-1a217.866 217.866 0 0 0-1-19c.379 2.753 1.879 4.753 4.5 6 .861-5.757 4.028-9.424 9.5-11Z" style="opacity:1"/><path fill="#fdeae6" d="M111.5 148.5c5.485-1.152 11.151-1.318 17-.5a518.39 518.39 0 0 0 25.5 3.5 150.86 150.86 0 0 0 7.5-2c1.58 2.478 3.58 3.145 6 2-.02 1.643.647 2.976 2 4l-1.5 1c-10.493-1.01-20.659-3.177-30.5-6.5a194.488 194.488 0 0 0-26-1.5Z" style="opacity:1"/><path fill="#fdd8dd" d="M445.5 162.5a785.54 785.54 0 0 1 4.5 7c.781 1.444.614 2.777-.5 4-8.153 2.324-15.319 6.324-21.5 12-1.275 6.89 1.558 9.557 8.5 8l17-2v6c-2.741 1.8-4.241 4.466-4.5 8a24.275 24.275 0 0 0-3.5 3.5c-11.575 31.416-33.575 50.916-66 58.5-.47 1.193-1.47 1.86-3 2a2617.575 2617.575 0 0 0-37 5h-5a220.106 220.106 0 0 0-19-7c-.418-.722-1.084-1.222-2-1.5a3.647 3.647 0 0 0 1-1.5c-9.009-2.168-18.009-4.334-27-6.5-1.26-1.814-1.26-3.647 0-5.5a48.338 48.338 0 0 1 11-2.5l2-2a867.536 867.536 0 0 1 38-14c.752-.671 1.086-1.504 1-2.5 2.775-2.816 5.441-2.649 8 .5 7.92 1.125 14.087-1.708 18.5-8.5 1.036-4.727.203-9.06-2.5-13-.13-2.798-1.464-4.798-4-6a327.323 327.323 0 0 0-16-2c-.414 4.998-1.747 9.665-4 14a87.23 87.23 0 0 1-20 3c-4.431-.199-8.597-.533-12.5-1-2.039 3.636-5.206 5.302-9.5 5-.181 6.323-3.514 8.989-10 8v-3a39.71 39.71 0 0 0 5-7c4.749-2.414 8.082-6.08 10-11 3.03-1.422 4.864-3.755 5.5-7a154.248 154.248 0 0 0 14.5-19c12.443-11.727 26.443-21.227 42-28.5 16.172-5.652 32.838-6.985 50-4 5.286 2.797 10.953 4.797 17 6a72.809 72.809 0 0 1 13 6.5c.798-.457 1.131-1.124 1-2Z" style="opacity:1"/><path fill="#7d9cb0" d="M45.5 152.5a5.728 5.728 0 0 1-1 3l-4 3c.92-2.589 2.586-4.589 5-6Z" style="opacity:.227"/><path fill="#17344c" d="M261.5 159.5h-1c-.359-2.266.308-4.099 2-5.5l-2-1c2.966-14.479-2.701-18.646-17-12.5-2.191 1.708-2.524 3.708-1 6-1.803 2.369-2.47 4.869-2 7.5l3 1c3.634 3.724 5.634 8.224 6 13.5-.962 2.649-1.295 5.149-1 7.5a216.737 216.737 0 0 0 3.5 30.5 152.41 152.41 0 0 0 1.5-15h3v32c-1.588 2.116-3.588 2.449-6 1 1.229-3.662.563-6.995-2-10-.58 2.947-1.58 5.614-3 8a931.31 931.31 0 0 0-1-61c-4.184-3.02-6.184-7.187-6-12.5 2.408-13.204 9.742-16.871 22-11 6.33 6.821 6.663 13.988 1 21.5Z" style="opacity:1"/><path fill="#1a3d4d" d="M44.5 155.5c-.086.996.248 1.829 1 2.5l-2 1c4.016 2.213 4.016 3.213 0 3-1.363 2.129-1.03 2.629 1 1.5 1.303 1.978 2.97 1.978 5 0 .667-3.333 2.667-4.667 6-4a15.407 15.407 0 0 1-2 4.5c.248 1.749 1.248 2.582 3 2.5 4.693 2.629 9.693 4.795 15 6.5a31.989 31.989 0 0 1 7.5 5.5c.743 1.941.576 3.774-.5 5.5-2.85 1.289-5.85 1.789-9 1.5-7.75-1.98-15.75-3.313-24-4-1.346 38.316 14.321 67.316 47 87-.892 2.403-.225 4.569 2 6.5-.457.414-.79.914-1 1.5a32.455 32.455 0 0 0 5 4.5c-4.78 2.204-8.614 1.037-11.5-3.5-1.011.837-2.178 1.17-3.5 1-5.38-2.355-10.046-5.688-14-10 1.517.011 2.684.677 3.5 2l.5-1a46.022 46.022 0 0 1-6-5.5l2-1c-1.507-.837-2.007-2.004-1.5-3.5 1.74 1.216 2.74 2.882 3 5a14.442 14.442 0 0 1 5.5-2.5c-2.178-.442-2.845-1.442-2-3-.95-.617-1.782-.451-2.5.5-1.677-3.551-4.51-4.884-8.5-4 1.45-6.144-.383-11.144-5.5-15l-11-22a74.45 74.45 0 0 0-1.5-9.5l-4-2c-1.192-2.055-1.192-4.055 0-6a38.498 38.498 0 0 1-5-11c4.385-3.795 7.051-8.295 8-13.5l-1-1a19.885 19.885 0 0 0-4 3.5c1.211 1.113 1.211 2.28 0 3.5a23.639 23.639 0 0 0-3.5 3l-1-2c-.498 2.027-.331 4.027.5 6 .07 2.166-.596 2.499-2 1a64.873 64.873 0 0 0-1 16c-2.178-14.558-.678-28.892 4.5-43 .697-2.084 1.864-3.751 3.5-5l4-3Z" style="opacity:1"/><path fill="#22415c" d="M202.5 180.5c-.29 4.001 1.21 7.001 4.5 9a12.93 12.93 0 0 1 .5 5h3a15.418 15.418 0 0 0 1 7c2.667.667 4.333 2.333 5 5a6.846 6.846 0 0 0 4 1 52.56 52.56 0 0 0 1.5 7c1.113-1.211 2.28-1.211 3.5 0 1.173 2.479 1.173 4.979 0 7.5.405.945 1.072 1.612 2 2l-1 1c2.442.946 4.442 2.446 6 4.5-1.35 1.45-3.016 2.117-5 2 .202 2.489-.298 4.823-1.5 7-.383-.556-.883-.889-1.5-1 .912-1.238 1.079-2.572.5-4a564.076 564.076 0 0 1-37.5-51 529.716 529.716 0 0 0-15-27c-.239-1.967.094-3.801 1-5.5 1.608-.658 2.775-.158 3.5 1.5l1-6 2.5 6c2.941 1.761 4.608 4.428 5 8 4.202 2.397 6.369 6.063 6.5 11a57.577 57.577 0 0 0 8.5 9.5 2.428 2.428 0 0 0 2 .5Z" style="opacity:1"/><path fill="#133447" d="M260.5 159.5c-1.879 5.37-2.545 11.037-2 17a3875.326 3875.326 0 0 0 0 46c.891.61 1.891.943 3 1l2 2c-1.101 1.098-2.434 1.265-4 .5a10.515 10.515 0 0 0-3-2.5v-32h-3a152.41 152.41 0 0 1-1.5 15 216.737 216.737 0 0 1-3.5-30.5c-.295-2.351.038-4.851 1-7.5-.366-5.276-2.366-9.776-6-13.5l-3-1c-.47-2.631.197-5.131 2-7.5-1.524-2.292-1.191-4.292 1-6 14.299-6.146 19.966-1.979 17 12.5l2 1c-1.692 1.401-2.359 3.234-2 5.5Z" style="opacity:1"/><path fill="#f8f9f9" d="M445.5 162.5c.131.876-.202 1.543-1 2a72.809 72.809 0 0 0-13-6.5c-6.047-1.203-11.714-3.203-17-6-17.162-2.985-33.828-1.652-50 4-15.557 7.273-29.557 16.773-42 28.5a154.248 154.248 0 0 1-14.5 19c-.636 3.245-2.47 5.578-5.5 7-1.918 4.92-5.251 8.586-10 11a39.71 39.71 0 0 1-5 7c-2.664 1.984-4.331 4.651-5 8-2.883 1.849-4.883 1.182-6-2a121.345 121.345 0 0 1 7-13 608.463 608.463 0 0 0 27.5-39 236.113 236.113 0 0 1 18.5-23 114.317 114.317 0 0 1 30-18 108.441 108.441 0 0 0 18-3.5 101.663 101.663 0 0 1 32 2c14.779 3.214 26.779 10.714 36 22.5Z" style="opacity:1"/><path fill="#224554" d="M329.5 159.5a236.113 236.113 0 0 0-18.5 23 608.463 608.463 0 0 1-27.5 39c-.236-3.329.597-6.329 2.5-9 1.156 1.493 1.99 1.326 2.5-.5a80.21 80.21 0 0 0 2-9.5c4.337-.839 6.837-3.506 7.5-8 .667 1.333 1.333 1.333 2 0-.305-1.943-.305-3.943 0-6 1.851.009 3.685-.824 5.5-2.5-.702-3.181-2.036-6.014-4-8.5a89.347 89.347 0 0 1 14-17c.285 1.788-.048 3.455-1 5a19.953 19.953 0 0 0-3 4.5c.532 2.02 1.865 2.853 4 2.5 0-3.333 1.667-5 5-5 .799-5.132 3.799-7.799 9-8Z" style="opacity:1"/><path fill="#fdd4da" d="M111.5 148.5c8.699-.081 17.365.419 26 1.5 9.841 3.323 20.007 5.49 30.5 6.5l1.5-1c-1.353-1.024-2.02-2.357-2-4l5 4a529.716 529.716 0 0 1 15 27c.312 3.388-1.021 5.888-4 7.5 2.667.667 2.667 1.333 0 2a47.929 47.929 0 0 0 9 5c-.737 3.132-1.07 6.632-1 10.5-4.43.307-8.264-1.026-11.5-4l-3 1c-2.518-3.898-5.018-3.898-7.5 0a4.457 4.457 0 0 0 2 1.5 29.26 29.26 0 0 0-4 6c1.6 1.123 2.6 2.623 3 4.5-1.517-.011-2.684-.677-3.5-2-.104-4.538-1.604-8.538-4.5-12l-2 2a258.628 258.628 0 0 0-17.5-5 4.457 4.457 0 0 1-1.5 2c-2.667-1.333-3.333-.667-2 2-2.434 6.418-3.434 13.085-3 20h3c4.842 8.583 11.508 10.25 20 5 1.122 1.13 2.456 1.797 4 2a377.668 377.668 0 0 0 20 10c.111.617.444 1.117 1 1.5 9.309 1.668 17.642 5.335 25 11a9.258 9.258 0 0 1-2 2.5 321.13 321.13 0 0 0-27 6h-1a155.762 155.762 0 0 0-23 1.5l-2-1c1.211-.893 1.211-1.726 0-2.5-2.114-.534-3.948-1.534-5.5-3-2.728.486-5.395-.18-8-2-2.055.348-4.055-.319-6-2-2.269 1.769-4.602 2.435-7 2-1.555 1.646-3.221 1.979-5 1l-.5 1a29.144 29.144 0 0 1 5 2.5c-5.037 2.247-10.371 2.581-16 1l-11-5.5c-1.267-1.871-1.267-3.704 0-5.5a11.339 11.339 0 0 1-3.5-1.5c-.368 1.41-1.201 2.41-2.5 3-3.364-1.707-6.03-4.04-8-7 .029-1.529.695-2.696 2-3.5a18.991 18.991 0 0 0-8-1.5v-4c-1.644.214-3.144-.12-4.5-1a39.91 39.91 0 0 0-6-9l-1-5c-2.167-.988-4-2.321-5.5-4a229.165 229.165 0 0 1-6-28c5.522-1.129 10.688-.129 15.5 3 7.13-2.565 9.464-7.565 7-15-1.378-2.608-3.545-4.108-6.5-4.5-4.323-3.276-4.99-7.11-2-11.5 2.044-.531 3.71-1.698 5-3.5 11.312-4.274 22.979-6.774 35-7.5Z" style="opacity:1"/><path fill="#f7bec9" d="M291.5 66.5c2.428 1.543 5.094 2.543 8 3v5h3c.214 1.644-.12 3.144-1 4.5a9.568 9.568 0 0 1 3 3c-1.439 3.588-1.272 7.088.5 10.5l1.5-1.5c-1.247-1.458-1.247-2.958 0-4.5.891-1.09 1.891-1.09 3 0a144.66 144.66 0 0 1 8.5 25c1.782 8.013 1.782 16.013 0 24a41.588 41.588 0 0 0-4.5 7c2.453 4.217 1.953 8.217-1.5 12a3.647 3.647 0 0 0-1.5-1 14.72 14.72 0 0 0-1.5 5c-2.106 1.877-3.439 4.21-4 7l-1-1a135.176 135.176 0 0 1-11.5 19 189.169 189.169 0 0 1-10.5 9c-2.031 5.181-3.197 4.847-3.5-1a201.52 201.52 0 0 1 12-24c16.962-32.879 17.296-65.879 1-99v-2Z" style="opacity:1"/><path fill="#f7f9fa" d="M69.5 185.5h-14a45.551 45.551 0 0 0 1.5 14 74.683 74.683 0 0 0 6.5 16c8.663 19.791 22.663 34.624 42 44.5a89.742 89.742 0 0 0 19.5 5.5c1.607.269 2.774 1.103 3.5 2.5 5.76-.122 11.093.711 16 2.5-8.065 2.207-15.731 5.207-23 9a152.49 152.49 0 0 1-29-11c-32.679-19.684-48.346-48.684-47-87 8.25.687 16.25 2.02 24 4Z" style="opacity:1"/><path fill="#f5dfe2" d="M71.5 159.5c-2.99 4.39-2.323 8.224 2 11.5 2.955.392 5.122 1.892 6.5 4.5 2.464 7.435.13 12.435-7 15-4.812-3.129-9.978-4.129-15.5-3a229.165 229.165 0 0 0 6 28 74.683 74.683 0 0 1-6.5-16 45.551 45.551 0 0 1-1.5-14h14c3.15.289 6.15-.211 9-1.5 1.076-1.726 1.243-3.559.5-5.5a31.989 31.989 0 0 0-7.5-5.5c-5.307-1.705-10.307-3.871-15-6.5a66.226 66.226 0 0 1 10-3.5c.989-2.158 2.656-3.325 5-3.5Z" style="opacity:1"/><path fill="#f0c2d0" d="M285.5 55.5a203.776 203.776 0 0 1 18 16c11.049 15.147 16.716 32.147 17 51a229.416 229.416 0 0 1-1 25 26.352 26.352 0 0 1-4.5 10 904.415 904.415 0 0 0-41.5 56 85.582 85.582 0 0 1-10 12l-2-2c.304-.65.637-1.317 1-2-1.922-1.46-2.589-3.127-2-5 .346-1.196.846-1.196 1.5 0l.5-2c-1.89-4.06-1.056-7.393 2.5-10 .049 2.916 1.216 3.916 3.5 3a96.843 96.843 0 0 1 10-16c.303 5.847 1.469 6.181 3.5 1a189.169 189.169 0 0 0 10.5-9 135.176 135.176 0 0 0 11.5-19l1 1c.561-2.79 1.894-5.123 4-7a14.72 14.72 0 0 1 1.5-5 3.647 3.647 0 0 1 1.5 1c3.453-3.783 3.953-7.783 1.5-12a41.588 41.588 0 0 1 4.5-7c1.782-7.987 1.782-15.987 0-24a144.66 144.66 0 0 0-8.5-25c-1.109-1.09-2.109-1.09-3 0-1.247 1.542-1.247 3.042 0 4.5l-1.5 1.5c-1.772-3.412-1.939-6.912-.5-10.5a9.568 9.568 0 0 0-3-3c.88-1.356 1.214-2.856 1-4.5h-3v-5c-2.906-.457-5.572-1.457-8-3-1.992-3.538-3.992-6.538-6-9v-2Z" style="opacity:1"/><path fill="#85a5b4" d="M468.5 180.5c1.418 5.266 2.085 10.766 2 16.5.156 5.09-.51 9.923-2 14.5a125.029 125.029 0 0 0 0-31Z" style="opacity:.118"/><path fill="#fefffe" d="M477.5 200.5c1.333.667 1.333.667 0 0Z" style="opacity:.004"/><path fill="#fbd2dd" d="M187.5 182.5a564.076 564.076 0 0 0 37.5 51c.579 1.428.412 2.762-.5 4a18.453 18.453 0 0 1-6-.5 400.145 400.145 0 0 0-17-6.5c-5.333-4.019-11.333-6.852-18-8.5a15.256 15.256 0 0 1-1.5-4.5c-2.622.07-5.289.403-8 1-1.699.113-2.866-.553-3.5-2-.4-1.877-1.4-3.377-3-4.5a29.26 29.26 0 0 1 4-6 4.457 4.457 0 0 1-2-1.5c2.482-3.898 4.982-3.898 7.5 0l3-1c3.236 2.974 7.07 4.307 11.5 4-.07-3.868.263-7.368 1-10.5a47.929 47.929 0 0 1-9-5c2.667-.667 2.667-1.333 0-2 2.979-1.612 4.312-4.112 4-7.5Z" style="opacity:1"/><path fill="#c0bfc7" d="M258.5 176.5c1.277 15.187 1.277 30.52 0 46a3875.326 3875.326 0 0 1 0-46Z" style="opacity:1"/><path fill="#18394f" d="M69.5 268.5c-1.41-2.414-3.41-4.081-6-5a5733.962 5733.962 0 0 0-8-9c-.054-2.132-1.054-3.465-3-4 .073-1.527-.594-2.527-2-3-3.08-3.15-5.413-6.817-7-11-.25-2.174-1.25-3.841-3-5-.764-3.637-2.097-6.97-4-10a49.937 49.937 0 0 1-4-15 64.873 64.873 0 0 1 1-16c1.404 1.499 2.07 1.166 2-1-.831-1.973-.998-3.973-.5-6l1 2a23.639 23.639 0 0 1 3.5-3c1.211-1.22 1.211-2.387 0-3.5a19.885 19.885 0 0 1 4-3.5l1 1c-.949 5.205-3.615 9.705-8 13.5a38.498 38.498 0 0 0 5 11c-1.192 1.945-1.192 3.945 0 6l4 2a74.45 74.45 0 0 1 1.5 9.5l11 22c5.117 3.856 6.95 8.856 5.5 15 3.99-.884 6.823.449 8.5 4 .718-.951 1.55-1.117 2.5-.5-.845 1.558-.178 2.558 2 3a14.442 14.442 0 0 0-5.5 2.5c-.26-2.118-1.26-3.784-3-5-.507 1.496-.007 2.663 1.5 3.5l-2 1a46.022 46.022 0 0 0 6 5.5l-.5 1c-.816-1.323-1.983-1.989-3.5-2Z" style="opacity:1"/><path fill="#fefffe" d="M478.5 216.5c1.333.667 1.333.667 0 0Z" style="opacity:.004"/><path fill="#133b54" d="M163.5 212.5c.117 1.984-.55 3.65-2 5l1 4c-.855.793-1.689.46-2.5-1a12.93 12.93 0 0 0-.5 5h3a20.69 20.69 0 0 0 1 5c-1.544-.203-2.878-.87-4-2-8.492 5.25-15.158 3.583-20-5-3.612-7.952-1.612-14.118 6-18.5 5.477-1.173 10.477-.173 15 3 1.641 1.129 2.641 2.629 3 4.5Z" style="opacity:1"/><path fill="#f3e1ea" d="M261.5 159.5c5.663-7.512 5.33-14.679-1-21.5-12.258-5.871-19.592-2.204-22 11-.184 5.313 1.816 9.48 6 12.5.167 20.336 0 40.669-.5 61a20.645 20.645 0 0 0-7 5c-.717-.544-1.217-1.211-1.5-2 .997.03 1.664-.47 2-1.5-2.288-1.958-3.621-4.458-4-7.5 1.767-1.15 2.933-.483 3.5 2 .667-1.333 1.333-1.333 2 0l3-2c.398-15.733.565-31.399.5-47-.209-1.494-.876-2.661-2-3.5 1.134-1.016.801-1.683-1-2 1.439-2.305.939-4.138-1.5-5.5-2.68-8.937-1.18-16.937 4.5-24 8.487-2.454 15.987-.787 22.5 5 3.37 6.461 3.203 12.794-.5 19-.825.886-1.825 1.219-3 1Z" style="opacity:1"/><path fill="#ebd7e3" d="M170.5 216.5c.634 1.447 1.801 2.113 3.5 2a42.414 42.414 0 0 1 8-1 15.256 15.256 0 0 0 1.5 4.5c6.667 1.648 12.667 4.481 18 8.5a842.5 842.5 0 0 0-36-12.5 61.16 61.16 0 0 0-2-5.5c-.359-1.871-1.359-3.371-3-4.5-4.523-3.173-9.523-4.173-15-3-7.612 4.382-9.612 10.548-6 18.5h-3c-.434-6.915.566-13.582 3-20-1.333-2.667-.667-3.333 2-2a4.457 4.457 0 0 0 1.5-2 258.628 258.628 0 0 1 17.5 5l2-2c2.896 3.462 4.396 7.462 4.5 12 .816 1.323 1.983 1.989 3.5 2Z" style="opacity:1"/><path fill="#e4cbd7" d="M455.5 200.5c-1.4 18.2-8.066 34.2-20 48a149.143 149.143 0 0 0 7.5-16 12.93 12.93 0 0 0 .5-5h3a238.2 238.2 0 0 0 5.5-15 57.35 57.35 0 0 0 1.5-15v-6l-17 2a144.615 144.615 0 0 1 19-4v11Z" style="opacity:1"/><path fill="#f4dde3" d="M363.5 210.5c-4.618-3.814-9.951-4.98-16-3.5-3.508 3.171-6.174 6.838-8 11a1890.489 1890.489 0 0 1-57 18.5c.669-3.349 2.336-6.016 5-8v3c6.486.989 9.819-1.677 10-8 4.294.302 7.461-1.364 9.5-5 3.903.467 8.069.801 12.5 1a87.23 87.23 0 0 0 20-3c2.253-4.335 3.586-9.002 4-14a327.323 327.323 0 0 1 16 2c2.536 1.202 3.87 3.202 4 6Z" style="opacity:1"/><path fill="#8fb1c9" d="M36.5 221.5c1.903 3.03 3.236 6.363 4 10-2.294-2.87-3.628-6.203-4-10Z" style="opacity:.11"/><path fill="#153b4d" d="M363.5 210.5c2.703 3.94 3.536 8.273 2.5 13-4.413 6.792-10.58 9.625-18.5 8.5-2.559-3.149-5.225-3.316-8-.5a66.134 66.134 0 0 1-15 5c-.064-3.562-1.897-5.229-5.5-5a52.627 52.627 0 0 0-10.5 5.5c-3.169.978-6.003.478-8.5-1.5-4.696 2.195-4.529 3.695.5 4.5a8.905 8.905 0 0 1-4 3l2 1c-5.325 2.795-9.492 1.628-12.5-3.5l-3 3c-2.132-1.28-4.298-1.28-6.5 0-.734-2.315-2.068-4.148-4-5.5 3.044-.359 3.378-1.026 1-2a15.256 15.256 0 0 0 1.5-4.5c.232 1.237.732 2.237 1.5 3 1.117 3.182 3.117 3.849 6 2a1890.489 1890.489 0 0 0 57-18.5c1.826-4.162 4.492-7.829 8-11 6.049-1.48 11.382-.314 16 3.5Z" style="opacity:1"/><path fill="#82a9c3" d="M40.5 231.5c1.75 1.159 2.75 2.826 3 5-1.75-1.159-2.75-2.826-3-5Z" style="opacity:.09"/><path fill="#1f4153" d="M244.5 161.5a931.31 931.31 0 0 1 1 61 30.738 30.738 0 0 1-3 6.5c1.115 1.235 1.115 2.402 0 3.5-1.841.73-3.675 1.397-5.5 2l-1-1c-2.275 3.193-5.108 5.527-8.5 7 .17 1.322-.163 2.489-1 3.5-2.027 1.879-4.36 3.046-7 3.5-.087 3.098.413 3.432 1.5 1 .667 3 .667 6 0 9-1.356.88-2.856 1.214-4.5 1l2-2c1.667-2.808 1-4.975-2-6.5a372.387 372.387 0 0 0-33-9.5 377.668 377.668 0 0 1-20-10 20.69 20.69 0 0 1-1-5h-3a12.93 12.93 0 0 1 .5-5c.811 1.46 1.645 1.793 2.5 1l-1-4c1.45-1.35 2.117-3.016 2-5a61.16 61.16 0 0 1 2 5.5 842.5 842.5 0 0 1 36 12.5 400.145 400.145 0 0 1 17 6.5c1.973.495 3.973.662 6 .5.617.111 1.117.444 1.5 1 1.202-2.177 1.702-4.511 1.5-7 1.984.117 3.65-.55 5-2-1.558-2.054-3.558-3.554-6-4.5l1-1c-.928-.388-1.595-1.055-2-2 1.173-2.521 1.173-5.021 0-7.5-1.22-1.211-2.387-1.211-3.5 0a52.56 52.56 0 0 1-1.5-7 6.846 6.846 0 0 1-4-1c-.667-2.667-2.333-4.333-5-5a15.418 15.418 0 0 1-1-7h-3a12.93 12.93 0 0 0-.5-5c-3.29-1.999-4.79-4.999-4.5-9a1061.407 1061.407 0 0 0 33 45c.283.789.783 1.456 1.5 2a20.645 20.645 0 0 1 7-5c.5-20.331.667-40.664.5-61Z" style="opacity:1"/><path fill="#526e7e" d="M459.5 238.5c-1.089 4.522-3.422 8.189-7 11-.02-1.643.647-2.976 2-4-1.109-1.714-.442-2.381 2-2 .214-1.644-.12-3.144-1-4.5 1.459.355 2.793.189 4-.5Z" style="opacity:.753"/><path fill="#8fa6cf" d="M50.5 247.5c1.406.473 2.073 1.473 2 3-1.406-.473-2.073-1.473-2-3Z" style="opacity:.012"/><path fill="#79a1b7" d="M52.5 250.5c1.946.535 2.946 1.868 3 4-1.474-.936-2.474-2.27-3-4Z" style="opacity:.176"/><path fill="#e6d6e1" d="M339.5 231.5c.086.996-.248 1.829-1 2.5a867.536 867.536 0 0 0-38 14l-2 2a48.338 48.338 0 0 0-11 2.5c-1.26 1.853-1.26 3.686 0 5.5 8.991 2.166 17.991 4.332 27 6.5a3.647 3.647 0 0 1-1 1.5c.916.278 1.582.778 2 1.5a167.384 167.384 0 0 1-14-4l-18-4c-.277-2.948.056-5.781 1-8.5a15035.61 15035.61 0 0 0 40-14.5 66.134 66.134 0 0 0 15-5Z" style="opacity:1"/><path fill="#f9dce2" d="M63.5 215.5c1.5 1.679 3.333 3.012 5.5 4l1 5a39.91 39.91 0 0 1 6 9c1.356.88 2.856 1.214 4.5 1v4c2.77-.079 5.437.421 8 1.5-1.305.804-1.971 1.971-2 3.5 1.97 2.96 4.636 5.293 8 7 1.299-.59 2.132-1.59 2.5-3a11.339 11.339 0 0 0 3.5 1.5c-1.267 1.796-1.267 3.629 0 5.5l11 5.5c5.629 1.581 10.963 1.247 16-1a29.144 29.144 0 0 0-5-2.5l.5-1c1.779.979 3.445.646 5-1 2.398.435 4.731-.231 7-2 1.945 1.681 3.945 2.348 6 2 2.605 1.82 5.272 2.486 8 2 1.552 1.466 3.386 2.466 5.5 3 1.211.774 1.211 1.607 0 2.5l2 1a155.762 155.762 0 0 1 23-1.5 83.25 83.25 0 0 0-10 3c-4.202.632-8.202 1.632-12 3a46.982 46.982 0 0 0-13 3c-4.907-1.789-10.24-2.622-16-2.5-.726-1.397-1.893-2.231-3.5-2.5a89.742 89.742 0 0 1-19.5-5.5c-19.337-9.876-33.337-24.709-42-44.5Z" style="opacity:1"/><path fill="#f0e2ed" d="M183.5 240.5a372.387 372.387 0 0 1 33 9.5c3 1.525 3.667 3.692 2 6.5a649.296 649.296 0 0 0-38 5 321.13 321.13 0 0 1 27-6 9.258 9.258 0 0 0 2-2.5c-7.358-5.665-15.691-9.332-25-11-.556-.383-.889-.883-1-1.5Z" style="opacity:1"/><path fill="#f4c5ce" d="M453.5 197.5a57.35 57.35 0 0 1-1.5 15 238.2 238.2 0 0 1-5.5 15h-3a12.93 12.93 0 0 1-.5 5 149.143 149.143 0 0 1-7.5 16c-6.788 9.788-15.455 17.455-26 23a127.645 127.645 0 0 1-28 8.5 100.168 100.168 0 0 1-14 1.5 363.166 363.166 0 0 1 16-3.5 84.258 84.258 0 0 0 10-6 22.127 22.127 0 0 0 9-2.5c1.542-3.036.875-5.369-2-7-6.514 3.5-13.514 5.167-21 5 32.425-7.584 54.425-27.084 66-58.5a24.275 24.275 0 0 1 3.5-3.5c.259-3.534 1.759-6.2 4.5-8Z" style="opacity:1"/><path fill="#b2dbe1" d="M448.5 255.5c-.919 2.589-2.586 4.589-5 6 .919-2.589 2.586-4.589 5-6Z" style="opacity:.012"/><path fill="#224757" d="m218.5 256.5-2 2c-3.672.545-3.338.878 1 1-1.36 5.25.64 7.917 6 8a104.781 104.781 0 0 1-10 2c-1.213.247-1.88.914-2 2a593.56 593.56 0 0 1-15 3c-12.39 1.85-24.723 3.85-37 6 7.03-4.788 15.03-7.455 24-8a42.769 42.769 0 0 0-9-1.5c-.999-2.761-2.999-4.094-6-4 .752-.671 1.086-1.504 1-2.5a83.25 83.25 0 0 1 10-3h1a649.296 649.296 0 0 1 38-5Z" style="opacity:1"/><path fill="#163d53" d="M301.5 177.5c1.964 2.486 3.298 5.319 4 8.5-1.815 1.676-3.649 2.509-5.5 2.5-.305 2.057-.305 4.057 0 6-.667 1.333-1.333 1.333-2 0-.663 4.494-3.163 7.161-7.5 8a80.21 80.21 0 0 1-2 9.5c-.51 1.826-1.344 1.993-2.5.5-1.903 2.671-2.736 5.671-2.5 9a121.345 121.345 0 0 0-7 13c-.768-.763-1.268-1.763-1.5-3a15.256 15.256 0 0 1-1.5 4.5c2.378.974 2.044 1.641-1 2 1.932 1.352 3.266 3.185 4 5.5 2.202-1.28 4.368-1.28 6.5 0l3-3c3.008 5.128 7.175 6.295 12.5 3.5l-2-1a8.905 8.905 0 0 0 4-3c-5.029-.805-5.196-2.305-.5-4.5 2.497 1.978 5.331 2.478 8.5 1.5a52.627 52.627 0 0 1 10.5-5.5c3.603-.229 5.436 1.438 5.5 5a15035.61 15035.61 0 0 1-40 14.5c-.944 2.719-1.277 5.552-1 8.5l18 4c-1.792.809-3.792 1.309-6 1.5-2 4.333-.667 6 4 5a11.38 11.38 0 0 1 2-2.5 22.136 22.136 0 0 0 6 3c-.928 1.268-1.095 2.601-.5 4l1-1c.374.916.874 1.75 1.5 2.5a251.747 251.747 0 0 1-25-2.5h-7c-2.423.076-4.256-.924-5.5-3-1.412 1.423-2.579 1.256-3.5-.5.194-1.43.194-2.93 0-4.5a7.248 7.248 0 0 0-2.5 2c-1.478.29-2.978.29-4.5 0 2.39-1.391 4.057-3.391 5-6 1.517-1.962 2.184-4.295 2-7-.007-1.869-.34-3.536-1-5-6.338-12.322-15.671-15.155-28-8.5-8.784 11.034-7.118 20.201 5 27.5-.223 1.388-.223 2.888 0 4.5a11.821 11.821 0 0 0 4.5 3.5c1.018-1.206 1.518-.873 1.5 1a19.643 19.643 0 0 1-4.5 7c-.399-.228-.565-.562-.5-1a137.374 137.374 0 0 0-4-5c2.536-2.638 2.203-4.971-1-7a7.248 7.248 0 0 0-2.5 2 14.72 14.72 0 0 1-1.5 5c-2.339-1.224-4.672-1.224-7 0 .508 2.404 1.675 3.071 3.5 2 .232 1.237.732 2.237 1.5 3a5999.972 5999.972 0 0 0-8 9 43.836 43.836 0 0 1-2-1c-2.033 3.534-4.866 6.2-8.5 8a4.934 4.934 0 0 0-.5 3c-2.367.664-4.367 1.997-6 4-1.355-2.429-3.022-3.762-5-4 1.545-.952 3.212-1.285 5-1a8.43 8.43 0 0 1 .5-4 984.14 984.14 0 0 1 8.5-11.5c-.752-.671-1.086-1.504-1-2.5a56.798 56.798 0 0 0 8.5-9 4.934 4.934 0 0 0 .5-3h-15c.12-1.086.787-1.753 2-2a104.781 104.781 0 0 0 10-2c-5.36-.083-7.36-2.75-6-8-4.338-.122-4.672-.455-1-1 1.644.214 3.144-.12 4.5-1 .667-3 .667-6 0-9-1.087 2.432-1.587 2.098-1.5-1 2.64-.454 4.973-1.621 7-3.5.837-1.011 1.17-2.178 1-3.5 3.392-1.473 6.225-3.807 8.5-7l1 1c1.825-.603 3.659-1.27 5.5-2 1.115-1.098 1.115-2.265 0-3.5a30.738 30.738 0 0 0 3-6.5c1.42-2.386 2.42-5.053 3-8 2.563 3.005 3.229 6.338 2 10 2.412 1.449 4.412 1.116 6-1a10.515 10.515 0 0 1 3 2.5c1.566.765 2.899.598 4-.5a85.582 85.582 0 0 0 10-12c.31 1.238.81 1.238 1.5 0a64.783 64.783 0 0 1 8-11 14.506 14.506 0 0 0 4 5c.607-3.881 2.274-7.214 5-10 .789-7.888 3.956-14.554 9.5-20Z" style="opacity:1"/><path fill="#8f9ca9" d="M267.5 249.5c.66 1.464.993 3.131 1 5 .184 2.705-.483 5.038-2 7a54.968 54.968 0 0 0 1-12Z" style="opacity:1"/><path fill="#f7f7f9" d="M267.5 249.5a54.968 54.968 0 0 1-1 12c-.943 2.609-2.61 4.609-5 6-5.53 2.199-11.197 2.532-17 1-12.118-7.299-13.784-16.466-5-27.5 12.329-6.655 21.662-3.822 28 8.5Z" style="opacity:1"/><path fill="#fce9e9" d="M259.5 244.5c1.517.011 2.684.677 3.5 2 .096 2.951.929 5.618 2.5 8-1.77 1.32-2.103 2.82-1 4.5a18.38 18.38 0 0 0-4 7c-4.284 1.326-8.617 1.992-13 2-.697-3.547-.197-7.047 1.5-10.5 4.468-3.674 7.968-8.007 10.5-13Z" style="opacity:1"/><path fill="#7ebac3" d="M63.5 263.5c2.59.919 4.59 2.586 6 5-2.59-.919-4.59-2.586-6-5Z" style="opacity:.149"/><path fill="#fac2cc" d="M367.5 281.5c-10.091-.189-19.424-2.522-28-7a2617.575 2617.575 0 0 1 37-5c1.53-.14 2.53-.807 3-2 7.486.167 14.486-1.5 21-5 2.875 1.631 3.542 3.964 2 7a22.127 22.127 0 0 1-9 2.5 84.258 84.258 0 0 1-10 6 363.166 363.166 0 0 0-16 3.5Z" style="opacity:1"/><path fill="#dce5ea" d="M436.5 268.5c-.762 1.762-2.096 2.762-4 3 .762-1.762 2.096-2.762 4-3Z" style="opacity:.004"/><path fill="#2d4c63" d="M169.5 264.5c.086.996-.248 1.829-1 2.5 3.001-.094 5.001 1.239 6 4 3.053.179 6.053.679 9 1.5-8.97.545-16.97 3.212-24 8a105.835 105.835 0 0 1-14 3c-.876.131-1.543-.202-2-1l5-2 4-8a31.49 31.49 0 0 1 9-4.5 8.43 8.43 0 0 0-4-.5c3.798-1.368 7.798-2.368 12-3Z" style="opacity:1"/><path fill="#d8c7d2" d="M409.5 271.5c-7.856 5.438-16.523 8.771-26 10a236.813 236.813 0 0 1-27 1c-1.792.134-3.458-.199-5-1-6.147-1.377-11.813-3.71-17-7h5c8.576 4.478 17.909 6.811 28 7 4.696-.171 9.363-.671 14-1.5a127.645 127.645 0 0 0 28-8.5Z" style="opacity:1"/><path fill="#c8e4e9" d="M431.5 272.5c-.473 1.406-1.473 2.073-3 2 .473-1.406 1.473-2.073 3-2Z" style="opacity:.004"/><path fill="#2e4a5c" d="M301.5 263.5c4.61 1.537 9.277 2.87 14 4a220.106 220.106 0 0 1 19 7c5.187 3.29 10.853 5.623 17 7 .17 1.322-.163 2.489-1 3.5l-7 1c4.89 1.095 4.89 1.762 0 2-1.141.741-1.141 1.575 0 2.5 1.843 2.105 4.176 3.272 7 3.5.871 3.771 3.204 5.771 7 6 1.947 3.374 4.447 6.207 7.5 8.5 1.883-1.153 2.716-2.819 2.5-5-1.478.262-2.811-.071-4-1 1.091-1.388 2.424-1.888 4-1.5l6 6c-2.707 1.864-3.541 4.364-2.5 7.5a22.755 22.755 0 0 1 4 5 266.83 266.83 0 0 1 6.5 19 365.846 365.846 0 0 1-8.5-16 101.245 101.245 0 0 0-7.5-9c-4.48-6.646-10.147-12.146-17-16.5a162.003 162.003 0 0 0-26-10.5c-9.449-4.705-19.449-8.039-30-10a27.641 27.641 0 0 0-8-3 251.747 251.747 0 0 0 25 2.5 9.454 9.454 0 0 1-1.5-2.5l-1 1c-.595-1.399-.428-2.732.5-4a22.136 22.136 0 0 1-6-3 11.38 11.38 0 0 0-2 2.5c-4.667 1-6-.667-4-5 2.208-.191 4.208-.691 6-1.5Z" style="opacity:1"/><path fill="#354d58" d="M157.5 267.5a8.43 8.43 0 0 1 4 .5 31.49 31.49 0 0 0-9 4.5l-4 8-5 2c.457.798 1.124 1.131 2 1a227.86 227.86 0 0 0-26 12v-4a8.43 8.43 0 0 0 4-.5c2.477-2.097 3.811-4.43 4-7-1.02-2.859-3.02-4.359-6-4.5 7.269-3.793 14.935-6.793 23-9a46.982 46.982 0 0 1 13-3Z" style="opacity:1"/><path fill="#1c394a" d="M455.5 200.5a62.792 62.792 0 0 0 1 15.5 20.889 20.889 0 0 0-3.5 6.5c-.026 3.608-.859 6.942-2.5 10a6.846 6.846 0 0 1 1 4c2.082.028 3.916-.639 5.5-2 1.085 1.236 1.918 2.569 2.5 4-1.207.689-2.541.855-4 .5.88 1.356 1.214 2.856 1 4.5-2.442-.381-3.109.286-2 2-1.353 1.024-2.02 2.357-2 4a18.478 18.478 0 0 1-4 6c-2.414 1.411-4.081 3.411-5 6a34.832 34.832 0 0 0-7 7c-1.904.238-3.238 1.238-4 3 0 .667-.333 1-1 1-1.527-.073-2.527.594-3 2a35.23 35.23 0 0 1-8 6c-2.489-.259-4.156.741-5 3a61.193 61.193 0 0 0-12.5 5c-1.465-.83-2.965-.996-4.5-.5-1.774.881-2.44 2.047-2 3.5-1.345-.847-2.345-2.013-3-3.5a10.258 10.258 0 0 1-4-1.5c-9.549-.478-18.883-1.478-28-3 6.009.166 12.009-.001 18-.5 1.558-.21 2.891-.71 4-1.5 9.477-1.229 18.144-4.562 26-10 10.545-5.545 19.212-13.212 26-23 11.934-13.8 18.6-29.8 20-48Z" style="opacity:1"/><path fill="#f8d6e2" d="M277.5 273.5h7a27.641 27.641 0 0 1 8 3c-.876-.131-1.543.202-2 1a14.748 14.748 0 0 1 4.5 3l1-1c2.228 1.613 4.728 2.28 7.5 2v4c2.216-.225 3.883.608 5 2.5-1.5.833-2.667 2-3.5 3.5-.45-2.606-1.95-3.939-4.5-4 .823 2.851 2.156 5.518 4 8-1.168 1.717-2.835 2.384-5 2-.199 5.858 1.301 11.191 4.5 16 .667-1.333 1.333-1.333 2 0 .119 3.515 1.286 6.515 3.5 9-1.322.17-2.489-.163-3.5-1a389.174 389.174 0 0 0-28.5-44v-4Z" style="opacity:1"/><path fill="#628591" d="M420.5 280.5c-1.159 1.75-2.826 2.75-5 3 .844-2.259 2.511-3.259 5-3Z" style="opacity:.455"/><path fill="#72737b" d="M383.5 281.5c-1.109.79-2.442 1.29-4 1.5-5.991.499-11.991.666-18 .5-1.915.284-3.581-.049-5-1 9.028.18 18.028-.153 27-1Z" style="opacity:1"/><path fill="#9dc2cb" d="M86.5 280.5c2.249.58 3.915 1.913 5 4-2.249-.58-3.915-1.913-5-4Z" style="opacity:.047"/><path fill="#fed7dd" d="M292.5 276.5c10.551 1.961 20.551 5.295 30 10a581.202 581.202 0 0 1 33.5 37c15.176 25.385 20.343 52.719 15.5 82a23.745 23.745 0 0 1 1-8.5 13.757 13.757 0 0 1-2.5-5.5l-1 7c-.216-1.884-.883-3.551-2-5-1.38 2.558-2.88 2.558-4.5 0-1.33 1.847-.997 3.347 1 4.5a8.43 8.43 0 0 1-4 .5c.078-2.987-1.089-3.653-3.5-2-1.169-.509-2.002-1.342-2.5-2.5-5.551-.398-10.884-.232-16 .5-1.784 5.505-2.45 11.172-2 17 1.175-.219 2.175.114 3 1 .26 5.037 2.593 8.537 7 10.5l-1 1c2.363.589 3.363 2.089 3 4.5 3.338.349 4.338 2.016 3 5-3.713 2.365-7.713 3.198-12 2.5a59.001 59.001 0 0 1-16.5-8.5 4.457 4.457 0 0 1-1.5 2 346.044 346.044 0 0 0-20-10.5 209.032 209.032 0 0 0-22.5-20.5c-.668-4.349-2.668-8.016-6-11a45.25 45.25 0 0 1-3.5-10 514.367 514.367 0 0 0-4-3c-2.746-5.561-4.913-11.561-6.5-18a403.187 403.187 0 0 1-2.5-55c.722-.418 1.222-1.084 1.5-2 .984 2.295 1.817 1.961 2.5-1a27.07 27.07 0 0 1-2-4.5c1.356-1.567 2.023-3.4 2-5.5 1.788-.285 3.455.048 5 1 .401 1.934 1.401 3.434 3 4.5-3.436 3.06-3.769 6.393-1 10-2.219 4.611-.885 7.445 4 8.5.186 2.315.52 4.649 1 7 .925 1.141 1.759 1.141 2.5 0 1 2.333 2.667 4 5 5a6.802 6.802 0 0 1 1.5-3 9.86 9.86 0 0 1 1 6h4a32.462 32.462 0 0 0 .5 8c3.017-5.401 3.851-5.234 2.5.5 2.588 8.211 8.088 13.377 16.5 15.5a24.879 24.879 0 0 0 7.5-2.5 13.271 13.271 0 0 1 5-5.5c2.086-3.651 2.42-7.317 1-11-1.612-4.611-4.612-7.944-9-10-2.214-2.485-3.381-5.485-3.5-9-.667-1.333-1.333-1.333-2 0-3.199-4.809-4.699-10.142-4.5-16 2.165.384 3.832-.283 5-2-1.844-2.482-3.177-5.149-4-8 2.55.061 4.05 1.394 4.5 4 .833-1.5 2-2.667 3.5-3.5-1.117-1.892-2.784-2.725-5-2.5v-4c-2.772.28-5.272-.387-7.5-2l-1 1a14.748 14.748 0 0 0-4.5-3c.457-.798 1.124-1.131 2-1Z" style="opacity:1"/><path fill="#254b5c" d="M92.5 268.5a152.49 152.49 0 0 0 29 11c2.98.141 4.98 1.641 6 4.5-.189 2.57-1.523 4.903-4 7a8.43 8.43 0 0 1-4 .5v4a36.602 36.602 0 0 1-7 4c-3.379.95-6.879 1.95-10.5 3a20.483 20.483 0 0 1-3.5-2.5 31.192 31.192 0 0 0 4-4.5c-.124-.607-.457-.94-1-1a19.49 19.49 0 0 0 3-7h-5c-3.042-.233-5.708-1.233-8-3-1.085-2.087-2.751-3.42-5-4-1.527.073-2.527-.594-3-2 1.322.17 2.489-.163 3.5-1 2.886 4.537 6.72 5.704 11.5 3.5a32.455 32.455 0 0 1-5-4.5 3.646 3.646 0 0 1 1-1.5c-2.225-1.931-2.892-4.097-2-6.5Z" style="opacity:1"/><path fill="#fcdbdf" d="M211.5 271.5h15a4.934 4.934 0 0 1-.5 3 56.798 56.798 0 0 1-8.5 9l-13 12a43.836 43.836 0 0 1-2-1c-1.715 2.21-3.881 3.876-6.5 5-.691-2.391-1.691-2.391-3 0l-1-2c-1.94 2.895-4.44 5.228-7.5 7-1.141.925-1.141 1.759 0 2.5-4.225-.434-6.725 1.399-7.5 5.5-3.419 1.565-5.419 4.232-6 8-7.459 6.403-9.625 14.403-6.5 24-1.38-1.206-2.547-.873-3.5 1-1.049-1.607-2.549-2.273-4.5-2-.636-5.718.364-11.051 3-16-1.833-1.468-2.166-3.135-1-5 2.177 1.004 2.511.338 1-2 .774-1.211 1.607-1.211 2.5 0 1.299-.59 2.132-1.59 2.5-3a45.747 45.747 0 0 0 1-12 9.86 9.86 0 0 1-6-1 406.24 406.24 0 0 1 20-2 343.137 343.137 0 0 0 4.5-14 6.978 6.978 0 0 1 3.5-2.5c-9.432-1.711-17.765.622-25 7a28.946 28.946 0 0 0-10 3c.14 1.069.14 2.236 0 3.5a3.647 3.647 0 0 1-1.5-1c-3.123 2.833-6.623 3.666-10.5 2.5-3.004 2.496-6.338 4.329-10 5.5a208.527 208.527 0 0 1 13-9.5c4.623-1.638 9.289-3.305 14-5 4.816-3.536 10.15-5.869 16-7a36.16 36.16 0 0 0 7-4 1102.855 1102.855 0 0 0 22-6 18.453 18.453 0 0 0-6-.5 593.56 593.56 0 0 0 15-3Z" style="opacity:1"/><path fill="#243e56" d="M245.5 283.5c-1.086.12-1.753.787-2 2 .51 1.588 1.51 2.755 3 3.5.293 2.731-.04 5.565-1 8.5.179 2.691 1.179 5.025 3 7-1.316 3.979-2.649 3.979-4 0-2.044 1.568-2.378 3.402-1 5.5-.405.945-1.072 1.612-2 2a22.703 22.703 0 0 1 2 5 40.855 40.855 0 0 0-3 11.5c.209 5.881.542 11.714 1 17.5a8.43 8.43 0 0 1-4 .5 20.093 20.093 0 0 0-1.5-6c-1.642 4.977-1.809 9.977-.5 15 .956 3.979-.378 6.312-4 7a31.412 31.412 0 0 1 3.5 7c.893-1.211 1.726-1.211 2.5 0a6.547 6.547 0 0 1-3 3c.204-1.029-.296-2.029-1.5-3a23.65 23.65 0 0 1-3.5 3 28.819 28.819 0 0 1 1 10c-2.544-.968-4.711-2.635-6.5-5-1.011.837-2.178 1.17-3.5 1a27.557 27.557 0 0 0 5-11c4.693-10.081 7.859-20.748 9.5-32a765.496 765.496 0 0 1 5.5-47.5c-.014-1.385-.348-2.551-1-3.5-1.379-2.097-3.045-2.43-5-1-.768-.763-1.268-1.763-1.5-3-1.825 1.071-2.992.404-3.5-2 2.328-1.224 4.661-1.224 7 0a14.72 14.72 0 0 0 1.5-5 7.248 7.248 0 0 1 2.5-2c3.203 2.029 3.536 4.362 1 7a137.374 137.374 0 0 1 4 5Z" style="opacity:1"/><path fill="#8bb2c1" d="M99.5 287.5h5a19.49 19.49 0 0 1-3 7l-2 1a12.802 12.802 0 0 1 3-6 44.093 44.093 0 0 1-3-2Z" style="opacity:.157"/><path fill="#8eafbd" d="M393.5 293.5a3199.936 3199.936 0 0 0-20 7c-.904-.709-1.237-1.709-1-3a466.81 466.81 0 0 0 21-4Z" style="opacity:.055"/><path fill="#94bcc2" d="M97.5 297.5c-1.594 3.264-3.927 5.931-7 8 1.594-3.264 3.927-5.931 7-8Z" style="opacity:.227"/><path fill="#f9f9fa" d="M196.5 274.5a18.453 18.453 0 0 1 6 .5 1102.855 1102.855 0 0 1-22 6 36.16 36.16 0 0 1-7 4c-5.85 1.131-11.184 3.464-16 7a3058.956 3058.956 0 0 1-14 5 208.527 208.527 0 0 0-13 9.5 19.177 19.177 0 0 0-5 2.5c-13.737 12.925-23.904 28.425-30.5 46.5-2.917 17.657-1.75 34.99 3.5 52l-4 2a21.76 21.76 0 0 1-7.5-6 124.014 124.014 0 0 1-7.5-24c-.993-14.274.34-28.274 4-42 6.746-14.793 16.413-27.46 29-38a36.602 36.602 0 0 0 7-4 227.86 227.86 0 0 1 26-12 105.835 105.835 0 0 0 14-3c12.277-2.15 24.61-4.15 37-6Z" style="opacity:1"/><path fill="#e5d9e1" d="M239.5 284.5c-3.378-.609-5.378.724-6 4a152.737 152.737 0 0 0-20 21 617.927 617.927 0 0 1-21.5 20l-1 12c-2.158 1.994-4.658 3.328-7.5 4 .333-1 1-1.667 2-2 2.004-1.173 3.504-2.84 4.5-5l1-11a585.364 585.364 0 0 0 35.5-35c2.638-2.974 5.305-5.974 8-9 1.955-1.43 3.621-1.097 5 1Z" style="opacity:1"/><path fill="#fccfd6" d="M227.5 347.5c-1.058-1.1-1.892-2.434-2.5-4a22.508 22.508 0 0 0-2 7c-2.768.708-3.601 2.208-2.5 4.5a15.256 15.256 0 0 0-1.5 4.5l-1-2c-.708.881-1.542 1.547-2.5 2a148.607 148.607 0 0 1 7.5-23 45.209 45.209 0 0 0-.5-16c1.789-1.123 2.122-2.456 1-4-3.336 3.173-7.003 3.673-11 1.5 1.173-3.11.673-3.277-1.5-.5.81-2.541 1.643-5.208 2.5-8a152.737 152.737 0 0 1 20-21c.958-.453 1.792-1.119 2.5-2 3.16 1.583 2.993 3.083-.5 4.5a4.933 4.933 0 0 1 1 2.5 1039.34 1039.34 0 0 0-5 47c-.706 2.799-2.039 5.133-4 7Z" style="opacity:1"/><path fill="#fefffe" d="M27.5 304.5c1.333.667 1.333.667 0 0Z" style="opacity:.004"/><path fill="#1f4558" d="M277.5 273.5v4c-1.073.751-1.24 1.751-.5 3a62.011 62.011 0 0 1 8.5 11.5 19.953 19.953 0 0 1-3 4.5c-.341-1.695-1.008-3.695-2-6-1.598-2.473-3.098-2.473-4.5 0-.933-3.78-2.6-6.447-5-8l-1 1c-3.202-5.278-4.368-4.945-3.5 1a31.147 31.147 0 0 1-2-2l-8 3c-.74 3.366-1.407 6.7-2 10a322.948 322.948 0 0 0-4.5 12c-.873 16.447-3.04 32.447-6.5 48a343.58 343.58 0 0 1 1 4v2c-1.466.847-2.3 2.18-2.5 4a102.972 102.972 0 0 1-2.5-10c-1.405-2.571-2.738-2.571-4 0-1.309-5.023-1.142-10.023.5-15a20.093 20.093 0 0 1 1.5 6 8.43 8.43 0 0 0 4-.5 403.236 403.236 0 0 1-1-17.5 40.855 40.855 0 0 1 3-11.5 22.703 22.703 0 0 0-2-5c.928-.388 1.595-1.055 2-2-1.378-2.098-1.044-3.932 1-5.5 1.351 3.979 2.684 3.979 4 0-1.821-1.975-2.821-4.309-3-7 .96-2.935 1.293-5.769 1-8.5-1.49-.745-2.49-1.912-3-3.5.247-1.213.914-1.88 2-2-.065.438.101.772.5 1a19.643 19.643 0 0 0 4.5-7c.018-1.873-.482-2.206-1.5-1a11.821 11.821 0 0 1-4.5-3.5c-.223-1.612-.223-3.112 0-4.5 5.803 1.532 11.47 1.199 17-1 1.522.29 3.022.29 4.5 0a7.248 7.248 0 0 1 2.5-2c.194 1.57.194 3.07 0 4.5.921 1.756 2.088 1.923 3.5.5 1.244 2.076 3.077 3.076 5.5 3Z" style="opacity:1"/><path fill="#375662" d="M101.5 294.5c.543.06.876.393 1 1a31.192 31.192 0 0 1-4 4.5 20.483 20.483 0 0 0 3.5 2.5c3.621-1.05 7.121-2.05 10.5-3-12.587 10.54-22.254 23.207-29 38-.948-5.929.885-10.929 5.5-15 1.28-7.645-.386-8.645-5-3l-1 7-1-3c-.654 1.196-1.154 1.196-1.5 0 1.592-1.725 1.258-2.725-1-3 .345-2.698 1.678-4.698 4-6 1.406-.473 2.073-1.473 2-3a16.636 16.636 0 0 1 5-6c3.073-2.069 5.406-4.736 7-8 .333-1 1-1.667 2-2l2-1Z" style="opacity:1"/><path fill="#f6e2e9" d="M204.5 295.5a809.194 809.194 0 0 0-22 25.5c-10.551-.448-16.551 4.552-18 15-.107 2.221.56 4.054 2 5.5.416 2.252 1.749 3.752 4 4.5 4.054.694 8.054.527 12-.5-1.556 2.488-3.889 3.488-7 3-4.312.231-7.979-1.102-11-4-3.125-9.597-.959-17.597 6.5-24 .581-3.768 2.581-6.435 6-8 .775-4.101 3.275-5.934 7.5-5.5-1.141-.741-1.141-1.575 0-2.5 3.06-1.772 5.56-4.105 7.5-7l1 2c1.309-2.391 2.309-2.391 3 0 2.619-1.124 4.785-2.79 6.5-5 .683.363 1.35.696 2 1Z" style="opacity:1"/><path fill="#fefffe" d="M75.5 307.5c1.333.667 1.333.667 0 0Z" style="opacity:.004"/><path fill="#f7dce1" d="M266.5 284.5a2826.698 2826.698 0 0 0 28 41.5c-3.332 7.003-2.332 13.336 3 19 12.94 5.535 19.94 1.368 21-12.5 1.42 3.683 1.086 7.349-1 11a13.271 13.271 0 0 0-5 5.5 24.879 24.879 0 0 1-7.5 2.5c-8.412-2.123-13.912-7.289-16.5-15.5 1.351-5.734.517-5.901-2.5-.5a32.462 32.462 0 0 1-.5-8h-4a9.86 9.86 0 0 0-1-6 6.802 6.802 0 0 0-1.5 3c-2.333-1-4-2.667-5-5-.741 1.141-1.575 1.141-2.5 0a58.334 58.334 0 0 1-1-7c-4.885-1.055-6.219-3.889-4-8.5-2.769-3.607-2.436-6.94 1-10-1.599-1.066-2.599-2.566-3-4.5-1.545-.952-3.212-1.285-5-1 .023 2.1-.644 3.933-2 5.5a27.07 27.07 0 0 0 2 4.5c-.683 2.961-1.516 3.295-2.5 1-.278.916-.778 1.582-1.5 2 .172-.992-.162-1.658-1-2v-4c.593-3.3 1.26-6.634 2-10l8-3a31.147 31.147 0 0 0 2 2Z" style="opacity:1"/><path fill="#eccada" d="M239.5 284.5c.652.949.986 2.115 1 3.5a765.496 765.496 0 0 0-5.5 47.5c-1.641 11.252-4.807 21.919-9.5 32a253.86 253.86 0 0 1 2-20c1.961-1.867 3.294-4.201 4-7a1039.34 1039.34 0 0 1 5-47 4.933 4.933 0 0 0-1-2.5c3.493-1.417 3.66-2.917.5-4.5-.708.881-1.542 1.547-2.5 2 .622-3.276 2.622-4.609 6-4Z" style="opacity:1"/><path fill="#b2c5d0" d="M85.5 311.5c.073 1.527-.594 2.527-2 3-.073-1.527.594-2.527 2-3Z" style="opacity:.114"/><path fill="#fed8dc" d="M164.5 344.5c3.021 2.898 6.688 4.231 11 4 3.111.488 5.444-.512 7-3h1c2.842-.672 5.342-2.006 7.5-4l1-12a617.927 617.927 0 0 0 21.5-20 779.991 779.991 0 0 1-2.5 8c2.173-2.777 2.673-2.61 1.5.5 3.997 2.173 7.664 1.673 11-1.5 1.122 1.544.789 2.877-1 4a45.209 45.209 0 0 1 .5 16 148.607 148.607 0 0 0-7.5 23c-15.451 24.205-34.618 44.205-57.5 60-2.049 2.108-4.549 3.274-7.5 3.5-1.563.759-2.563 1.926-3 3.5a134.215 134.215 0 0 1-20 1c-3.262.201-5.262-1.299-6-4.5.744-4.313 2.411-8.146 5-11.5 1.951-1.98 3.451-4.313 4.5-7 1.43.194 2.93.194 4.5 0a4.457 4.457 0 0 0-2-1.5 4.933 4.933 0 0 0 1-2.5 2612.487 2612.487 0 0 0-5-16c2.581-2.174 2.581-4.34 0-6.5a145.053 145.053 0 0 0-17-.5 51.569 51.569 0 0 0-1 7 83.575 83.575 0 0 1-12.5 3 6.29 6.29 0 0 1-3-1c-.772-6.965-.272-13.799 1.5-20.5a6.291 6.291 0 0 1-1-3c2.252-5.251 3.419-10.751 3.5-16.5 3.878-4.926 6.878-10.259 9-16l14-14c.263-2.764 1.763-4.431 4.5-5a24.425 24.425 0 0 1 3-5c3.662-1.171 6.996-3.004 10-5.5 3.877 1.166 7.377.333 10.5-2.5.414.457.914.791 1.5 1 .14-1.264.14-2.431 0-3.5a28.946 28.946 0 0 1 10-3c7.235-6.378 15.568-8.711 25-7a6.978 6.978 0 0 0-3.5 2.5 343.137 343.137 0 0 1-4.5 14 406.24 406.24 0 0 0-20 2 9.86 9.86 0 0 0 6 1 45.747 45.747 0 0 1-1 12c-.368 1.41-1.201 2.41-2.5 3-.893-1.211-1.726-1.211-2.5 0 1.511 2.338 1.177 3.004-1 2-1.166 1.865-.833 3.532 1 5-2.636 4.949-3.636 10.282-3 16 1.951-.273 3.451.393 4.5 2 .953-1.873 2.12-2.206 3.5-1Z" style="opacity:1"/><path fill="#1d3948" d="M217.5 283.5c-.086.996.248 1.829 1 2.5a984.14 984.14 0 0 0-8.5 11.5 8.43 8.43 0 0 0-.5 4c-1.788-.285-3.455.048-5 1 1.978.238 3.645 1.571 5 4 1.633-2.003 3.633-3.336 6-4a4.934 4.934 0 0 1 .5-3c3.634-1.8 6.467-4.466 8.5-8 .683.363 1.35.696 2 1a585.364 585.364 0 0 1-35.5 35l-1 11c-.996 2.16-2.496 3.827-4.5 5-.06-2.521.606-4.854 2-7-1.19-1.859-1.19-3.692 0-5.5a11.068 11.068 0 0 0-2-3.5c3.876-1.21 6.876-3.543 9-7a22.531 22.531 0 0 1-4-3 47.35 47.35 0 0 1-7 5.5c-13.225-.613-18.892 5.554-17 18.5-1.44-1.446-2.107-3.279-2-5.5 1.449-10.448 7.449-15.448 18-15a809.194 809.194 0 0 1 22-25.5l13-12Z" style="opacity:1"/><path fill="#a6ccda" d="M382.5 312.5c1.406.473 2.073 1.473 2 3-1.406-.473-2.073-1.473-2-3Z" style="opacity:.047"/><path fill="#2d4750" d="M254.5 295.5v4a1808.711 1808.711 0 0 1-10 60 343.58 343.58 0 0 0-1-4c3.46-15.553 5.627-31.553 6.5-48a322.948 322.948 0 0 1 4.5-12Z" style="opacity:1"/><path fill="#fefffe" d="M479.5 321.5c1.333.667 1.333.667 0 0Z" style="opacity:.004"/><path fill="#f7bbc7" d="M322.5 286.5a162.003 162.003 0 0 1 26 10.5c6.853 4.354 12.52 9.854 17 16.5 2.884 8.105 7.05 15.438 12.5 22 4.916 15.654 6.916 31.654 6 48-.928 9.706-3.095 19.04-6.5 28-1.562 3.892-3.895 7.225-7 10-2.804-.643-4.471-2.476-5-5.5 1.084-4.198 3.084-7.698 6-10.5 4.843-29.281-.324-56.615-15.5-82a581.202 581.202 0 0 0-33.5-37Z" style="opacity:1"/><path fill="#fefffe" d="M71.5 323.5c1.333.667 1.333.667 0 0Z" style="opacity:.004"/><path fill="#163c51" d="M277.5 277.5a389.174 389.174 0 0 1 28.5 44c1.011.837 2.178 1.17 3.5 1 4.388 2.056 7.388 5.389 9 10-1.06 13.868-8.06 18.035-21 12.5-5.332-5.664-6.332-11.997-3-19a2826.698 2826.698 0 0 1-28-41.5c-.868-5.945.298-6.278 3.5-1l1-1c2.4 1.553 4.067 4.22 5 8 1.402-2.473 2.902-2.473 4.5 0 .992 2.305 1.659 4.305 2 6a19.953 19.953 0 0 0 3-4.5 62.011 62.011 0 0 0-8.5-11.5c-.74-1.249-.573-2.249.5-3Z" style="opacity:1"/><path fill="#9dbfd0" d="M79.5 320.5c-.91 3.492-2.576 6.492-5 9 .91-3.492 2.576-6.492 5-9Z" style="opacity:.094"/><path fill="#fefffe" d="M486.5 328.5c1.333.667 1.333.667 0 0ZM50.5 329.5c1.333.667 1.333.667 0 0Z" style="opacity:.004"/><path fill="#20465b" d="M351.5 281.5c1.542.801 3.208 1.134 5 1 1.419.951 3.085 1.284 5 1 9.117 1.522 18.451 2.522 28 3a10.258 10.258 0 0 0 4 1.5c.655 1.487 1.655 2.653 3 3.5-.44-1.453.226-2.619 2-3.5 1.535-.496 3.035-.33 4.5.5a61.193 61.193 0 0 1 12.5-5c-6.768 4.381-14.102 7.714-22 10a466.81 466.81 0 0 1-21 4c-.237 1.291.096 2.291 1 3 2.988 3.962 5.988 7.962 9 12-.073 1.527.594 2.527 2 3a120.457 120.457 0 0 1 7 13 103.838 103.838 0 0 0 6 18v3c.145 9.157-.188 18.49-1 28-1.058-1.1-1.892-2.434-2.5-4-.71 1.473-1.876 2.14-3.5 2-.193-3.949-.693-3.949-1.5 0a294.505 294.505 0 0 0-2 16c-.977 2.206-2.143 4.206-3.5 6 4.506-19.865 3.839-39.532-2-59a266.83 266.83 0 0 0-6.5-19 22.755 22.755 0 0 0-4-5c-1.041-3.136-.207-5.636 2.5-7.5l-6-6c-1.576-.388-2.909.112-4 1.5 1.189.929 2.522 1.262 4 1 .216 2.181-.617 3.847-2.5 5-3.053-2.293-5.553-5.126-7.5-8.5-3.796-.229-6.129-2.229-7-6-2.824-.228-5.157-1.395-7-3.5-1.141-.925-1.141-1.759 0-2.5 4.89-.238 4.89-.905 0-2l7-1c.837-1.011 1.17-2.178 1-3.5Z" style="opacity:1"/><path fill="#fefffe" d="M46.5 330.5c1.333.667 1.333.667 0 0ZM62.5 330.5c1.333.667 1.333.667 0 0Z" style="opacity:.004"/><path fill="#143e53" d="M185.5 343.5c-1 .333-1.667 1-2 2h-1a28.214 28.214 0 0 1-12 .5c-2.251-.748-3.584-2.248-4-4.5-1.892-12.946 3.775-19.113 17-18.5a47.35 47.35 0 0 0 7-5.5 22.531 22.531 0 0 0 4 3c-2.124 3.457-5.124 5.79-9 7a11.068 11.068 0 0 1 2 3.5c-1.19 1.808-1.19 3.641 0 5.5-1.394 2.146-2.06 4.479-2 7Z" style="opacity:1"/><path fill="#2c4b5c" d="M83.5 337.5c-3.66 13.726-4.993 27.726-4 42-1.139-3.801-1.972-7.801-2.5-12-1.016 1.134-1.683.801-2-1a26.708 26.708 0 0 0-1.5-7l-2 2c-1.226-.863-2.56-.863-4 0v-7c1.54-2.338 2.206-5.005 2-8a58.076 58.076 0 0 1 5-17c2.424-2.508 4.09-5.508 5-9 2.258.275 2.592 1.275 1 3 .346 1.196.846 1.196 1.5 0l1 3 1-7c4.614-5.645 6.28-4.645 5 3-4.615 4.071-6.448 9.071-5.5 15Z" style="opacity:1"/><path fill="#7b9ca9" d="M391.5 328.5c3.375 5.457 5.375 11.457 6 18a103.838 103.838 0 0 1-6-18Z" style="opacity:.239"/><path fill="#9ec7d0" d="M397.5 346.5c1.511 3.044 2.178 6.378 2 10-.907-2.157-1.573-4.49-2-7v-3Z" style="opacity:.09"/><path fill="#8ea8b8" d="M69.5 346.5c.206 2.995-.46 5.662-2 8 .065-2.928.732-5.595 2-8Z" style="opacity:.133"/><path fill="#fefffe" d="M476.5 359.5c1.333.667 1.333.667 0 0Z" style="opacity:.004"/><path fill="#f5bfc6" d="M227.5 347.5a253.86 253.86 0 0 0-2 20c-2.481-.177-4.314.823-5.5 3a259.766 259.766 0 0 1-6.5 16c-3.49-.349-5.823 1.151-7 4.5a11.333 11.333 0 0 0-3.5 1.5l-5-1c-1.171 1.393-2.671 2.227-4.5 2.5-1.655 1.444-2.322 3.278-2 5.5h-4c-3.337 2.882-5.837 6.548-7.5 11-.684 1.284-.517 2.451.5 3.5-1.049.492-2.049.326-3-.5-1.211.774-1.211 1.607 0 2.5a48.826 48.826 0 0 1-12 7 492.914 492.914 0 0 1-18 3.5c.437-1.574 1.437-2.741 3-3.5 2.951-.226 5.451-1.392 7.5-3.5 22.882-15.795 42.049-35.795 57.5-60 .958-.453 1.792-1.119 2.5-2l1 2a15.256 15.256 0 0 1 1.5-4.5c-1.101-2.292-.268-3.792 2.5-4.5.29-2.452.956-4.785 2-7 .608 1.566 1.442 2.9 2.5 4Z" style="opacity:1"/><path fill="#f8f9f9" d="M254.5 299.5c.838.342 1.172 1.008 1 2a403.187 403.187 0 0 0 2.5 55c1.587 6.439 3.754 12.439 6.5 18a159.45 159.45 0 0 0 13 28 231.854 231.854 0 0 1 19 17 404.511 404.511 0 0 0 20 10.5c3.029.539 6.029 1.206 9 2a3362.917 3362.917 0 0 0 15 6.5c-12.922 2.214-25.588.881-38-4-26.921-10.802-45.587-29.802-56-57a46.93 46.93 0 0 1-2-16v-2a1808.711 1808.711 0 0 0 10-60Z" style="opacity:1"/><path fill="#e2c2cd" d="M365.5 313.5c2.636 2.81 5.136 5.81 7.5 9a365.846 365.846 0 0 0 8.5 16c5.839 19.468 6.506 39.135 2 59a61.427 61.427 0 0 1-6 14c3.405-8.96 5.572-18.294 6.5-28 .916-16.346-1.084-32.346-6-48-5.45-6.562-9.616-13.895-12.5-22Z" style="opacity:1"/><path fill="#8faec0" d="M67.5 355.5v6a86.632 86.632 0 0 0 0 24c-2.616-9.997-2.616-19.997 0-30Z" style="opacity:.035"/><path fill="#fadde2" d="M130.5 306.5a24.425 24.425 0 0 0-3 5c-2.737.569-4.237 2.236-4.5 5l-14 14c-2.122 5.741-5.122 11.074-9 16-.081 5.749-1.248 11.249-3.5 16.5a6.291 6.291 0 0 0 1 3c-1.772 6.701-2.272 13.535-1.5 20.5a6.29 6.29 0 0 0 3 1 83.575 83.575 0 0 0 12.5-3 51.569 51.569 0 0 1 1-7c5.676-.166 11.343.001 17 .5 2.581 2.16 2.581 4.326 0 6.5a2612.487 2612.487 0 0 1 5 16 4.933 4.933 0 0 1-1 2.5 4.457 4.457 0 0 1 2 1.5c-1.57.194-3.07.194-4.5 0-1.049 2.687-2.549 5.02-4.5 7 1.244-4.798 1.244-9.465 0-14-1.646-4.82-4.979-6.986-10-6.5a424.237 424.237 0 0 0-18 16.5c-5.25-17.01-6.417-34.343-3.5-52 6.596-18.075 16.763-33.575 30.5-46.5a19.177 19.177 0 0 1 5-2.5Z" style="opacity:1"/><path fill="#6c9eae" d="M67.5 385.5c1.78 3.7 2.78 7.7 3 12-1.916-3.663-2.916-7.663-3-12Z" style="opacity:.169"/><path fill="#fefffe" d="M426.5 390.5c1.333.667 1.333.667 0 0Z" style="opacity:.004"/><path fill="#f8dce2" d="M264.5 374.5c1.315.976 2.648 1.976 4 3a45.25 45.25 0 0 0 3.5 10c3.332 2.984 5.332 6.651 6 11a209.032 209.032 0 0 1 22.5 20.5 346.044 346.044 0 0 1 20 10.5 4.457 4.457 0 0 0 1.5-2 59.001 59.001 0 0 0 16.5 8.5c4.287.698 8.287-.135 12-2.5 1.338-2.984.338-4.651-3-5 .363-2.411-.637-3.911-3-4.5l1-1c-4.407-1.963-6.74-5.463-7-10.5-.825-.886-1.825-1.219-3-1-.45-5.828.216-11.495 2-17 5.116-.732 10.449-.898 16-.5.498 1.158 1.331 1.991 2.5 2.5 2.411-1.653 3.578-.987 3.5 2a8.43 8.43 0 0 0 4-.5c-1.997-1.153-2.33-2.653-1-4.5 1.62 2.558 3.12 2.558 4.5 0 1.117 1.449 1.784 3.116 2 5l1-7a13.757 13.757 0 0 0 2.5 5.5 23.745 23.745 0 0 0-1 8.5c-2.916 2.802-4.916 6.302-6 10.5.529 3.024 2.196 4.857 5 5.5-1.101 1.098-2.434 1.265-4 .5a90.479 90.479 0 0 0-15-17c-6.748-2.909-9.914-.743-9.5 6.5a93.384 93.384 0 0 0 12 19c.579 1.428.412 2.762-.5 4-4.043 2.124-8.377 3.458-13 4a3362.917 3362.917 0 0 1-15-6.5 108.394 108.394 0 0 0-9-2 404.511 404.511 0 0 1-20-10.5 231.854 231.854 0 0 0-19-17 159.45 159.45 0 0 1-13-28Z" style="opacity:1"/><path fill="#fefffe" d="M57.5 401.5c1.333.667 1.333.667 0 0Z" style="opacity:.004"/><path fill="#93abbd" d="M399.5 390.5c-.284 6.807-1.95 13.141-5 19a132.042 132.042 0 0 1 5-19Z" style="opacity:.043"/><path fill="#fefffe" d="M434.5 406.5c1.333.667 1.333.667 0 0ZM457.5 408.5c1.333.667 1.333.667 0 0Z" style="opacity:.004"/><path fill="#63899b" d="M75.5 408.5c2.758 1.879 4.425 4.546 5 8-2.45-2.129-4.117-4.796-5-8Z" style="opacity:.835"/><path fill="#fefffe" d="M35.5 411.5c1.333.667 1.333.667 0 0ZM420.5 412.5c1.333.667 1.333.667 0 0Z" style="opacity:.004"/><path fill="#355566" d="M214.5 408.5a95.356 95.356 0 0 1-8 8.5 166.797 166.797 0 0 1-14 9.5c-.418-.722-1.084-1.222-2-1.5a15.256 15.256 0 0 0 1.5-4.5c1.493 2.06 3.326 2.393 5.5 1 .59-1.299 1.59-2.132 3-2.5-2.833-1.833-2.667-3.333.5-4.5a18.08 18.08 0 0 0 3.5 2c3.066-3.137 5.233-6.471 6.5-10l1 2c1.507-3.736 2.34-3.736 2.5 0Z" style="opacity:.995"/><path fill="#8cacb5" d="M265.5 428.5c1.904.238 3.238 1.238 4 3-1.904-.238-3.238-1.238-4-3Z" style="opacity:.173"/><path fill="#1b3d50" d="M244.5 361.5a46.93 46.93 0 0 0 2 16c-.597.235-.93.735-1 1.5a59.176 59.176 0 0 1 1.5 7.5c2.748 2.995 4.581 6.495 5.5 10.5l5.5 6.5a168.167 168.167 0 0 1 1.5 8c1.478-.262 2.811.071 4 1 2.231 2.799 2.231 5.466 0 8 .762.411 1.762.577 3 .5a11.38 11.38 0 0 1-2 2.5c-2.053-1.439-3.053-3.439-3-6-1.89.203-3.39-.463-4.5-2-1.011.837-2.178 1.17-3.5 1a21.614 21.614 0 0 1-4-5 49.583 49.583 0 0 0-1.5-7c-1.101-1.894-2.434-2.561-4-2-.617-.949-.451-1.782.5-2.5a28.208 28.208 0 0 1-4-1.5 54.86 54.86 0 0 0-2-7l1-2-4-2c-1.211-1.22-1.211-2.387 0-3.5-2.114-.442-3.448.391-4 2.5-2.355 5.38-5.688 10.046-10 14-1.406.473-2.073 1.473-2 3-1.333 2-3 3.667-5 5-.16-3.736-.993-3.736-2.5 0l-1-2c-1.267 3.529-3.434 6.863-6.5 10a18.08 18.08 0 0 1-3.5-2c-3.167 1.167-3.333 2.667-.5 4.5-1.41.368-2.41 1.201-3 2.5-2.174 1.393-4.007 1.06-5.5-1a15.256 15.256 0 0 1-1.5 4.5c.916.278 1.582.778 2 1.5-12.261 9.542-26.261 15.208-42 17h-26c-8.929-1.089-17.263-3.755-25-8-.473-1.406-1.473-2.073-3-2-6.714-4.38-12.048-10.047-16-17-.575-3.454-2.242-6.121-5-8-2.451-3.24-4.118-6.907-5-11-.22-4.3-1.22-8.3-3-12a86.632 86.632 0 0 1 0-24c1.44-.863 2.774-.863 4 0l2-2a26.708 26.708 0 0 1 1.5 7c.317 1.801.984 2.134 2 1 .528 4.199 1.361 8.199 2.5 12a124.014 124.014 0 0 0 7.5 24 21.76 21.76 0 0 0 7.5 6l4-2a424.237 424.237 0 0 1 18-16.5c5.021-.486 8.354 1.68 10 6.5a108.96 108.96 0 0 1-14.5 16c-1.959 2.277-3.459 4.777-4.5 7.5.285 1.89 1.285 3.223 3 4a40.522 40.522 0 0 0 12 3.5c30.122 3.588 56.289-5.079 78.5-26 7.47-7.294 13.97-15.294 19.5-24 1.322.17 2.489-.163 3.5-1 1.789 2.365 3.956 4.032 6.5 5a28.819 28.819 0 0 0-1-10 23.65 23.65 0 0 0 3.5-3c1.204.971 1.704 1.971 1.5 3a6.547 6.547 0 0 0 3-3c-.774-1.211-1.607-1.211-2.5 0a31.412 31.412 0 0 0-3.5-7c3.622-.688 4.956-3.021 4-7 1.262-2.571 2.595-2.571 4 0 .672 3.397 1.505 6.73 2.5 10 .2-1.82 1.034-3.153 2.5-4Z" style="opacity:.999"/><path fill="#f6f2f4" d="M126.5 397.5c1.244 4.535 1.244 9.202 0 14-2.589 3.354-4.256 7.187-5 11.5.738 3.201 2.738 4.701 6 4.5-1.419.951-3.085 1.284-5 1a40.522 40.522 0 0 1-12-3.5c-1.715-.777-2.715-2.11-3-4 1.041-2.723 2.541-5.223 4.5-7.5a108.96 108.96 0 0 0 14.5-16Z" style="opacity:1"/><path fill="#fefffe" d="M239.5 410.5c1.333.667 1.333.667 0 0Z" style="opacity:.004"/><path fill="#ecc9d4" d="M225.5 367.5a27.557 27.557 0 0 1-5 11c-5.53 8.706-12.03 16.706-19.5 24-22.211 20.921-48.378 29.588-78.5 26 1.915.284 3.581-.049 5-1 6.702.164 13.369-.169 20-1a492.914 492.914 0 0 0 18-3.5 48.826 48.826 0 0 0 12-7c-1.211-.893-1.211-1.726 0-2.5.951.826 1.951.992 3 .5-1.017-1.049-1.184-2.216-.5-3.5 1.663-4.452 4.163-8.118 7.5-11h4c-.322-2.222.345-4.056 2-5.5 1.829-.273 3.329-1.107 4.5-2.5l5 1a11.333 11.333 0 0 1 3.5-1.5c1.177-3.349 3.51-4.849 7-4.5a259.766 259.766 0 0 0 6.5-16c1.186-2.177 3.019-3.177 5.5-3Z" style="opacity:1"/><path fill="#47697a" d="M240.5 398.5c1.266.59 2.599 1.09 4 1.5-.951.718-1.117 1.551-.5 2.5 1.566-.561 2.899.106 4 2a49.583 49.583 0 0 1 1.5 7 46.204 46.204 0 0 1-9-13Z" style="opacity:.855"/><path fill="#becadc" d="M221.5 400.5c.073 1.527-.594 2.527-2 3-.073-1.527.594-2.527 2-3Z" style="opacity:.004"/><path fill="#4d7086" d="M240.5 398.5c-2.644-3.273-4.811-6.94-6.5-11-.671-.752-1.504-1.086-2.5-1 .552-2.109 1.886-2.942 4-2.5-1.211 1.113-1.211 2.28 0 3.5l4 2-1 2a54.86 54.86 0 0 1 2 7Z" style="opacity:.937"/><path fill="#d3e0e4" d="M382.5 429.5c-.667 2.667-2.333 4.333-5 5 1.333-2 3-3.667 5-5Z" style="opacity:.004"/><path fill="#1c374e" d="M396.5 377.5c-2.93 8.987-4.763 18.32-5.5 28-1.674 4.066-4.508 5.899-8.5 5.5 2.696 2.463 3.029 4.963 1 7.5.883 1.98.717 3.98-.5 6-.667-1.333-1.333-1.333-2 0a8.43 8.43 0 0 0-.5 4c-1.175.219-2.175-.114-3-1-.401-1.934-1.401-3.434-3-4.5a15.256 15.256 0 0 0 4.5-1.5c1.855-3.482 2.522-7.149 2-11a22.573 22.573 0 0 0-4 8 55.747 55.747 0 0 0-5.5 4.5 12.494 12.494 0 0 1-7 0c-.933-2.848-2.433-3.014-4.5-.5.077 3.632.41 7.299 1 11a92.012 92.012 0 0 0 4.5 3c-1.592 1.951-3.592 3.284-6 4-1.771-.535-2.104-1.369-1-2.5a69.98 69.98 0 0 0-5-3.5c.912-1.238 1.079-2.572.5-4a93.384 93.384 0 0 1-12-19c-.414-7.243 2.752-9.409 9.5-6.5a90.479 90.479 0 0 1 15 17c1.566.765 2.899.598 4-.5 3.105-2.775 5.438-6.108 7-10a61.427 61.427 0 0 0 6-14c1.357-1.794 2.523-3.794 3.5-6a294.505 294.505 0 0 1 2-16c.807-3.949 1.307-3.949 1.5 0 1.624.14 2.79-.527 3.5-2 .608 1.566 1.442 2.9 2.5 4Z" style="opacity:1"/><path fill="#87bac6" d="M96.5 433.5c1.527-.073 2.527.594 3 2-1.527.073-2.527-.594-3-2Z" style="opacity:.055"/><path fill="#244557" d="M246.5 377.5c10.413 27.198 29.079 46.198 56 57 .742 3.467 2.909 5.467 6.5 6a11.333 11.333 0 0 0 1.5 3.5 73.735 73.735 0 0 1 9 2.5c-.881 1.471-2.214 2.304-4 2.5 1.333.667 1.333 1.333 0 2a147.85 147.85 0 0 0 28 1.5c-18.006 3.197-35.339.864-52-7-.473-1.406-1.473-2.073-3-2-7.186-2.754-13.519-6.754-19-12-.762-1.762-2.096-2.762-4-3a102.102 102.102 0 0 1-12-12c1.322.17 2.489-.163 3.5-1 1.11 1.537 2.61 2.203 4.5 2-.053 2.561.947 4.561 3 6a11.38 11.38 0 0 0 2-2.5c-1.238.077-2.238-.089-3-.5 2.231-2.534 2.231-5.201 0-8-1.189-.929-2.522-1.262-4-1a168.167 168.167 0 0 0-1.5-8l-5.5-6.5c-.919-4.005-2.752-7.505-5.5-10.5a59.176 59.176 0 0 0-1.5-7.5c.07-.765.403-1.265 1-1.5Z" style="opacity:.996"/><path fill="#668f9e" d="M124.5 443.5h26c-4.16.857-8.493 1.524-13 2a134.362 134.362 0 0 1-13-2Z" style="opacity:.307"/><path fill="#a7bccf" d="M288.5 443.5c1.527-.073 2.527.594 3 2-1.527.073-2.527-.594-3-2Z" style="opacity:.043"/><path fill="#fefffe" d="M192.5 448.5c1.333.667 1.333.667 0 0ZM179.5 449.5c1.333.667 1.333.667 0 0Z" style="opacity:.004"/><path fill="#1c3c4c" d="M397.5 349.5c.427 2.51 1.093 4.843 2 7 2.536 11.346 2.536 22.679 0 34a132.042 132.042 0 0 0-5 19c-2.815 7.458-6.815 14.125-12 20-2 1.333-3.667 3-5 5-9.069 10.202-20.402 16.202-34 18a147.85 147.85 0 0 1-28-1.5c1.333-.667 1.333-1.333 0-2 1.786-.196 3.119-1.029 4-2.5a73.735 73.735 0 0 0-9-2.5 11.333 11.333 0 0 1-1.5-3.5c-3.591-.533-5.758-2.533-6.5-6 12.412 4.881 25.078 6.214 38 4 4.623-.542 8.957-1.876 13-4a69.98 69.98 0 0 1 5 3.5c-1.104 1.131-.771 1.965 1 2.5 2.408-.716 4.408-2.049 6-4a92.012 92.012 0 0 1-4.5-3 80.674 80.674 0 0 1-1-11c2.067-2.514 3.567-2.348 4.5.5 2.333.667 4.667.667 7 0a55.747 55.747 0 0 1 5.5-4.5 22.573 22.573 0 0 1 4-8c.522 3.851-.145 7.518-2 11a15.256 15.256 0 0 1-4.5 1.5c1.599 1.066 2.599 2.566 3 4.5.825.886 1.825 1.219 3 1a8.43 8.43 0 0 1 .5-4c.667-1.333 1.333-1.333 2 0 1.217-2.02 1.383-4.02.5-6 2.029-2.537 1.696-5.037-1-7.5 3.992.399 6.826-1.434 8.5-5.5.737-9.68 2.57-19.013 5.5-28 .812-9.51 1.145-18.843 1-28Z" style="opacity:.997"/><path fill="#fefffe" d="M478.5 453.5c1.333.667 1.333.667 0 0ZM86.5 469.5c1.333.667 1.333.667 0 0ZM411.5 472.5c1.333.667 1.333.667 0 0ZM81.5 481.5c1.333.667 1.333.667 0 0ZM193.5 487.5c1.333.667 1.333.667 0 0ZM156.5 490.5c1.333.667 1.333.667 0 0Z" style="opacity:.004"/></svg>