<svg xmlns="http://www.w3.org/2000/svg" viewBox="0 0 90 90"><path fill="#1655AA" d="M0 0h90v90H0z"/><path fill="#FFF" d="M57.26 59.09c0-5.95-2.6-12.26-9.99-12.34H32.74v24.67h14.54c7.4 0 9.98-6.39 9.98-12.33M32.74 18.58v19.6h12.49c6.06 0 8.2-5.26 8.2-9.8 0-4.47-2.22-9.8-8.38-9.8h-12.3zM66 59.08c0 5.7-1.6 10.68-4.55 14.44-3.38 4.2-8.38 6.48-14.17 6.48h-18.9A4.34 4.34 0 0124 75.71V14.29A4.34 4.34 0 0128.37 10h16.68c5.08 0 9.54 2.02 12.66 5.69a19.35 19.35 0 014.46 12.68c0 4.9-1.6 9.45-4.46 12.78 0 0 0 .09-.09.09 1.43.96 2.68 2.1 3.84 3.5C64.39 48.49 66 53.4 66 59.09"/></svg>