<svg xmlns="http://www.w3.org/2000/svg" width="60.31" height="60.31"><path d="M52.95 42.126c-4.33 8.129-12.92 13.689-22.79 13.689-14.23 0-25.8-11.51-25.8-25.66s11.57-25.66 25.8-25.66c14.21 0 25.79 11.51 25.79 25.66 0 2.54-.39 4.99-1.08 7.3 1.19.931 2.46 1.75 3.81 2.46 1.05-3.06 1.63-6.34 1.63-9.76 0-16.57-13.5-30-30.15-30C13.5.155 0 13.585 0 30.155s13.5 30 30.16 30c11.48 0 21.46-6.38 26.55-15.77a29.72 29.72 0 01-3.76-2.259z" fill="#1d95d6"/><path d="M12.16 19.615c.86 1.48 1.36 3.2 1.37 5.04V41.265h6.37v-11.65c0-3.22 1.39-4.87 4.26-4.87 2.67 0 3.5 1.46 3.5 3.93v12.59h6.36v-11.65c0-3.22 1.4-4.87 4.27-4.87 2.67 0 3.5 1.46 3.5 3.93v12.59h6.36v-13.23c0-5.44-3.05-8.99-8.08-8.99-3.5 0-6.05 1.14-7.89 3.67-1.21-2.4-3.25-3.67-6.18-3.67-2.67 0-4.76.95-6.1 3.04v-2.47h-6.37z" fill="#182c6d"/></svg>