<svg xmlns:osb="http://www.openswatchbook.org/uri/2009/osb" xmlns="http://www.w3.org/2000/svg" width="54.26" height="54.26"><defs><linearGradient id="a" osb:paint="solid"><stop offset="0" stop-color="red"/></linearGradient></defs><path d="M27.721.007C12.761.007.622 12.157.622 27.137c0 14.982 12.14 27.127 27.1 27.127 14.972 0 27.104-12.143 27.104-27.126 0-14.984-12.132-27.13-27.105-27.13" mask="url(#d)" transform="translate(-.594 -.006)" fill="red" fill-opacity=".901" fill-rule="evenodd"/><path d="M26.274 18.853l-4.705-6.14a1.045 1.045 0 00-1.654-.02l-5.6 7.066v11.074l5.568-7.145a1.08 1.08 0 011.709.009l4.728 6.19a.978.978 0 001.565 0l4.727-6.19a1.083 1.083 0 011.71-.01l5.567 7.146V19.76l-5.6-7.066a1.045 1.045 0 00-1.654.02l-4.705 6.14a1.044 1.044 0 01-1.656 0zm-11.96 20.104H39.89v-8.124H14.315z" fill="#f0f" fill-rule="evenodd"/><path d="M14.26 25.087l.002-5.105 2.925-3.66c1.61-2.014 3.2-3.66 3.536-3.66.337 0 1.762 1.473 3.168 3.274 1.407 1.801 2.825 3.326 3.152 3.39.366.07 1.593-1.19 3.19-3.276 1.426-1.864 2.876-3.389 3.22-3.389.344 0 1.883 1.56 3.419 3.468l2.792 3.467v5.395c0 4.316-.094 5.272-.47 4.785l-2.737-3.564c-1.383-1.801-2.548-2.955-2.982-2.955-.448 0-1.676 1.286-3.31 3.467-1.429 1.908-2.795 3.468-3.036 3.468-.242 0-1.621-1.56-3.066-3.468-1.536-2.027-2.905-3.467-3.296-3.467-.383 0-1.838 1.481-3.404 3.467-1.505 1.908-2.819 3.468-2.92 3.468-.1 0-.183-2.297-.182-5.105zm0 9.729v-3.853h25.428v7.705h-25.43z" fill="#fff"/></svg>