<svg xmlns="http://www.w3.org/2000/svg" viewBox="0 0 10.134 10.134" height="38.301" width="38.301"><path d="M5.109 2.121l-.029-.014c-.004-.002-.018 0-.029.005l-1.44.702c-.01.005-.01.009.002.009h2.913c.012 0 .014-.003.003-.008z" fill="#0e7391"/><path d="M5.069 0A5.074 5.074 0 000 5.065a5.074 5.074 0 005.065 5.069 5.073 5.073 0 005.069-5.065A5.073 5.073 0 005.069 0M7.92 8.01a.015.015 0 01-.015.016l-5.679-.002a.014.014 0 01-.014-.015l-.001-.572c0-.008.006-.015.014-.015l5.681.002c.007 0 .014.008.014.015zM4.097 6.516V3.637h.653v2.879h.636l.001-2.878h.652l-.001 2.879h.65l.001-2.879h.651l-.002 2.88h.288v.585c0 .009-.006.015-.015.015l-5.088-.002a.017.017 0 01-.016-.015v-.586h.29V3.637h.65v2.878zm4.017-3.484l-.18.316c-.005.01-.02.019-.032.019l-5.664-.002a.04.04 0 01-.031-.018l-.18-.316c-.006-.01-.002-.023.008-.028l3.017-1.604a.044.044 0 01.037 0l3.017 1.605a.02.02 0 01.008.028" fill="#0e7391"/></svg>