<svg xmlns="http://www.w3.org/2000/svg" viewBox="0 0 197 197"><path fill="#461558" d="M23.8.1c-.2.2-2.7.4-5.7.6-5.5.4-9 2-11.3 5.2a7 7 0 00-1.2 2.3 6 6 0 01-.6 2.3c-.5 1.5-.5 2 .6 2 1 0 1.1.3.3 1.7-.5 1-.7 2.2-.3 2.7.3.5.7 4 .9 7.6.1 3.6.6 8 1 9.8.7 2.8.6 3.6-.9 5.4C5 42 5 42 6.8 45c1 1.7 1.7 3.5 1.6 4-.3 2.8.3 4.3 2.5 6.3l2.2 2.1-2.5 2.3c-1.4 1.3-2 2.1-1.4 1.8 1.6-.9 1 4-1.1 8.6-1.5 3.3-2.4 17.8-1.2 17.8 1 0 .3 4.2-.8 5.3-.6.6-1 1.6-1 2.2 0 .6-.4 1.1-.9 1.1-.4 0-.9.8-.9 1.7 0 1 .4 1.8.7 1.8 2.1 0 3 12.8 1.6 22.9-1.1 9-1.6 10.8-2.4 10.8-1 0 2.6 5.3 4.1 6.3 1.4.8 1 2.9-1.2 7a13.2 13.2 0 00-1.5 6.7c.2 2-.1 3.9-1 4.6-.9 1-.8 1.4 1.1 2.7 1.6 1 2 1.9 1.6 2.8-.3.8-.5 2.2-.5 3 0 .8-1 2.3-2.2 3.2-2.3 1.8-2.3 1.8-.5 3.3 1.5 1.3 1.7 2.5 1.6 8.4 0 4.7-.4 7.1-1.2 7.4-.8.3-.8.8.3 2.2 2.4 3.6 6.6 4.7 18.7 5.3 15.2.6 141 .6 146 0l8.3-1c7.2-.9 11-2.4 11.8-4.5.4-1.2 1.1-2 1.6-2 1.2 0 1-2.4-.2-2.9-.7-.2-.5-.8.7-1.8 2.4-1.6 3.6-4.8 4.2-10.7.3-3.6.2-4.5-.8-4.5-1.5 0-1.5.3-1.7-13.4a67.8 67.8 0 00-1.8-19.2c-.7-3.5-2.4-7.1-3-6.8-.5.4-.8 0-.8-.8 0-.7.4-1.3.8-1.3.5 0 .9-.6.9-1.2 0-.7.9-1.5 2-2 1.5-.8 1.9-1.6 1.8-4.3-.2-3.7-1-6.2-2.6-7.9-.5-.5-1-2.9-1-5.3-.1-3.6.1-4.4 1.5-4.9 1-.3 1.8-1 1.8-1.5.2-1.8.1-7.6 0-16.7-.2-7 0-9.3 1.2-10.8.8-1.3 1-2.2.5-2.4-.5-.2-.7-.7-.4-1.1.3-.4.1-.8-.3-.8-1.4 0-.7-5.5 1-8 1.2-1.8 1.4-2.7.7-3.1-3.4-2.1-4.4-23-1.4-27.8.3-.5.1-1.4-.3-2a8 8 0 01-.6-3.9c0-1.6-.2-3-.5-3.2a25 25 0 01-.6-7.4c0-6.1-.3-7.3-2.3-9.8-1.2-1.6-3-3-4.1-3.3a328 328 0 00-21 0 1009 1009 0 01-69-.1 581 581 0 01-26.7.3C67.4 0 24-.2 23.8 0z"/><path fill="#fff" d="M130.6 19a9 9 0 00-2.3.4c-.2.2-1.1.4-3 .2H124c-.7-.2-.9-.2-1.1-.5h-1.4l-.2.3h-.3c-.6.4-3.6-.3-4.8-.3-1.1-.2-2-.2-2.5 0l-.2.3-.5.2-.7.2c-.5-.2-1-.2-1.2.2 0 .7.2 1.8.5 3 .2 1.8-.6 3.9-.6 5.4.2 0 .2 0 .2.3v.6c.2.3.4.5.2.7v1l-.2.8v.7c.2 1.4.2 3.2.2 5.7v6.3c.2 3.4.2 5.7 0 6.6l-.2 2c.2 1.5.2 2.8.4 3.4v5.7a9 9 0 01.5 4l-.2.3c0 .7 0 1.2-.3 1.4 0 .2 0 .4.3.7v.9c0 1.1 0 3-.3 5.2a61 61 0 000 10.9v.4h-.2v3.2c.2 2.7 0 4.8-.2 5.9v1.1c-.2 1.1-.2 2.3 0 3.9.2 4.3.2 8.4.2 11.7-.2 10.5-.2 15.5-.4 14.8 0 1.6.6 5.4.6 7-.2 2.3-.2 3.9-.4 5v5.4c0 1.2 0 2-.2 2.8v.9l.2.4v.7h.2c0 1.6 0 3-.2 3.6l.2 1.2c-.2 1.3-.2 2.2-.4 2.4-.3 1-.3 1.6 0 2.3l.4 2c-.2-1-.2-.2-.2 2.8v5.9c0 1.1 0 1.8-.2 2.5v.2c0 1.1.2 2.7.9 4.8.7.2.9.4.9.6 3 .3 5.7.2 8.5.2 6.2.2 9.2.2 9.4 0 1.8-1.3 3.2-2 3.2-4v-.9c0-1 .2-1.6.5-2-.3-1-.3-1.7-.5-2.1l.5-1.4c.2-3.4.4-5.9.2-7.7l.2-4-.4-.7V137c0-5.2-.3-9.5-.5-13v-.6l-.4-.9.4-1.1v-1.6c0-.5.2-.7.5-.7v-6.8c0-.9-.3-2.3-.5-3.8V102c-.2-.2-.2-.2 0-.4l.5-1c-.3 0 0-.2.7-.4h3.6c5 .2 8.8.2 11 0l2.1-.2.7-.5 2-2.3c.3-1.3.3-2.2 0-2.5-.6-.9-.8-1.3-1-1.3l.4-2.3h.2v-2.5c0 .3 0 0-.2-.2 0-1.8 0-3.2.2-4.3-.2-.7-.4-1-1.1-1-.3 0-.7.3-1.4.6a4 4 0 00-1.8-1.6c.4.2-.5.2-2.8.4l-5.5-.4H139l-4.2.4-.4-.4c-.7-.5-1-.7-1-1 .7-.2 1-1 1-2.7v-2.7c0-2 .9-2.5.9-3.4 0-.7-.2-1.6-.7-2.7-.2-1-.2-2.3 0-3.9l.2-1c0-.4 0-.6-.2-.8l-.2-2.7.7-5.7c.2-.6.2-1.5 0-2.2l-.3-.3-.4-3.1v-7.5c-.3-1 0 0 0-5.2-.3-1.6.7-2.3 2.7-2.3 1.2-.2 5.8-.2 13.6 0 2.5 0 4.1-.2 4.8-.4.5-3.9.7-6.6.7-8.4h.2v-.5c-.4-.4-.7-.9-.4-1.1 0-.7 0-1 .2-1.2h.2V20c-.7-.5-1.1-.7-1.8-.7-1 0-1.6 0-2.3.2-1 0-1.6 0-1.9-.2a42 42 0 00-7.5 0c-2.6 0-4 0-4.2.2-.9-.7-1.3-.5-1.6-.5h-.9l-1.1.7-.7.5s-.5.2-.5 0c-1.1-.7-1.8-1.2-2.3-1.2h-1zm4.1 45.7zm-23.6-11.5v-.3.3zm-65.3-34a4 4 0 00-1.2.2c-.2.2-.5.4-.5.7-.2 1.3-1.2.5-1 1.4-.2.2-.4 1.1-.6 1.1l-1 .8c0 .3.4 1.2-.3 1.5l.4 1.8V31c.2 2.5.2 4.3.2 5.6.7 3 0 6.6 0 7.3v12.7c0 2.5-.2 8.6 0 11.1l.5 2.3c.2 1.3.2 2.7 0 4.3l-.7 4.8.7 10.4c0 .7-.5 2-.5 2.7 0 .7.5 2 .5 2.7a57 57 0 010 8.9c0 .2-.5 2-.5 2.7l.5 2.7v3.2l-.5 2.7v16.2c.3 2.7.3 5.2 0 7.4 0 1.6 0 2.7-.2 3-.2.7-.2 1.3 0 2.3.2.9.2 1.5.2 2.2l-.2 4.8.2 13v8c.5 3.2 1 5 1.2 5.3 1.4.5 2.5.7 3.2.7h9.3c.2.2.6.2.9.2.2 0 .4 0 .7-.2h3.4l2.3.2 2.4-.2h8.3c.4.2.9.2 1.4.2.9 0 3.7-.5 4.8-.5h5c.5-.2 1-.2 1.2-.4h.3c.2 0 .2 0 .2-.2l1.9-.5c0-.2 0-.2.2-.2h.2c.2 0 .2 0 0-.2l2.8-1h.4v-.2h.7l1.4-1 .7-.7c3.5-3 4.2-4.8 4.9-5.9 1.6-3.4 1.8-4.5 2-5.2.3-1.8.5-2.5.5-3.2.2-.2.2-2 0-5.2v-.7c.2-.9.2-2 .2-3.4v-9.3c.3-.2.3-.7.3-.9 0-.4 0-.9-.3-1.3v-1.4c-.2-8-.2-17.3 0-28.1 0-3.7-.9-6.2-1.1-7.3-.2-.2-.2-.2-.5-.2v-.7l-.4-.2-.5-1-2.3-2.7c-1.9-.9-2-1.6-2.8-1.6-.7-.9-1.1-1.3-1.1-1.5a2 2 0 01-1.2-.5c-1.2-.7-1.6-1.1-1.4-1.4.2-.9 1.2-1.5 2.8-2l2.8-2.5c.7-.7 1.4-1.3 1.6-2v-.3l.2-.2c.5-1.1.7-1.8 1-2v-.7c1-3.4 1.8-6.1 2-8.6-.2-2-.2-3.7-.2-4.8 0-1 .4-2.3.4-3.2 0-.9-.6-3.4-.6-4.3l.4-3.6c0-.2 0-1-.2-1.6v-3.2a5 5 0 00.2-1.6c0-.2 0-.6-.2-1.1v-3.6c-.2-2.8-.5-3.9-.5-3.2 0-.2 0-.5.3-.5 0-.2 0-.4-.3-.6v-4.4l.3-.2-.3-5.2-2.3-2.3c-.2-1.1-.4-1.5-.7-1.5L96.3 26c-.2-1-.2-1.6 0-2-6.2-1.7-4.8-2.3-5.5-2.3-.2-.3-.7-.3-1.4 0L88 22l-1.8-.9h-.5V21h-.5l-.6-.7c-.3-.7-1.2-.9-2.8-.7-5.1 0-2.3 1.6-3.7 1.6-.7 0-.7-1.6-2.3-1.8-.2-.2-.7 0-1.2.2H74c-1.1.2-1.6.5-1.6.5l-2.8-.7h-2l-1 .2h-1.1c.7 0 .2 0-1-.2h-3.2l-9 .2c-.7 0-1.4 0-1.8.2-.5 0-.7 0-1-.2l-1 .2h.1c-.5 0-.9-.2-1.1-.4l-1.6-.2zM66.3 33h.5c.2.2.4.2.7.2 0 .7.2 1 .9 1.2 2.8.2 4.8.2 6.2 0l1.2.9c1.1.4 1.8 1.3 2.3 2.7l.2.4c0 .5 0 1-.2 1.6 0 .7.2 1.9.5 3v8.2l-.5 1v1c.2.2.5.5.5 1 .2 5.1.2 9.2 0 12 .2 1 .2 2.2.2 2.9-.2 1.1-.2 2-.2 2.5.2 1.8.2 2.2.4 1.6-.2 1.1-.4 2-.4 2.7l-1.7 6.3v1.4c-1.1.2-1.6.7-1.8.9-1-.2-1.4-.2-1.6-.5-.3.7-.5 1.2-.5 1.9l-2.5-1.4a7 7 0 01-3-.2l-.5.2c-1 .2-1.4.2-1.6 0-.2-.2-.2-.7-.2-.9 0-.4.2-1.1.6-1.8.3-1.6.3-3 .3-3.9l.4-3.8c-.4-5.5 0-3.7 0-4.8l-.2-1.8v-1l.2-.7c0-.4 0-.8-.2-1l-.2-.7c0-.5 0-.7.2-1-.2-1-.2-2.2-.2-2.9v-.4c-.3-2.3-.3-4.1-.3-5.2.7-.7 1-2 1-4.1-.3-.2-.3-.2-.3-.5l.3-.2v-3.4c0-.2 0-.5-.3-.2l.3-.5-.3-2.3v-2l-.2-3c0-.6.5-2 .5-2.7-1.2-.7-2.3-1.1-3.3-1.3-1.1.2-2 .4-2.3.6-.9-.2-1.4-.9-1.1-1.5h1.8c.7.2 1 .4 1.2.6.9-.2 1.6-.2 2-.4l.3-.2 1-.5zm-1.5 65.3c.2 0 .4.2.6.5.2.2.2.2 0 .5l.4.2c.7.2 1.4.2 1.7.4 0 .3.9 0 2.7-.2l.3-.2c2.5-.2 4.4.2 5.3.9l.4.7.7.9 1.7 3.4c0 .2-.5 1.3-.5 2l.5 2.7c-.3 1.2-.5 2-.5 2.8 0 3.8.2 7 .5 9l-.5 2c0 1 .5 3.7.5 4.6 0 1.1-.5 4.1-.5 5.2 0 .7.5 2 .5 2.8 0 .2-.5 1-.5 1.3-.2 2.5-.2 4.1 0 5 .2 1.6.2 2.5.5 3.2 0 .7-.5 1.8-.5 2.5l.4 1.3c-.1 0-.3.7-.4 2v5.1l-.5.4c0 2.5-.9 2.5-1.6 2.5l-1.1-.4-2.6 1.1-2-.2a7 7 0 00-3.5.4c0-.2-1-.9-1-1.1 0 0 .5-1 .5-1.6v-3.8l.2-1.2v-3.2c-.2-1-.2-2-.2-2.2a199.7 199.7 0 000-25.2c0-1 .5-3.6.5-4.5 0-.5 0-1.2-.3-2.3v-2.3c.3-3.4.3-5 .3-5.2 0-3.4 0-4.8-.3-4.3.3-.5.3-.5.3-.2 0-.3 0-.3-.3-.5v-2.5c-.2-.7-2-.4-2-1.3v-1h.3z"/></svg>
