<svg xmlns="http://www.w3.org/2000/svg" viewBox="0 0 84 84"><g data-name="Layer 2"><g data-name="Layer 1"><path d="M54.68 35.34A20.86 20.86 0 0 0 57 25.58C57 15.4 48.08 6.8 37.54 6.8H18.67v70.4h6.16c3.2 0 6.66 0 10-.06h7.88a22.59 22.59 0 0 0 12-41.76ZM31 19.18h6.53c3.72 0 7.11 3.07 7.11 6.44 0 4.84-2.46 6.08-4 6.4l-.8.11h-.1A23.72 23.72 0 0 0 31 34.51Zm11.72 45.59H30.98V54.49c0-5.28 5.7-10.28 11.72-10.28a10.28 10.28 0 1 1 0 20.56Z" style="fill:#1359f4"/><path style="fill:none" d="M0 0h84v84H0z"/></g></g></svg>