<svg xmlns="http://www.w3.org/2000/svg" viewBox="0 0 392.8 392.8"><circle cx="196.4" cy="196.4" r="196.4" fill="#0000a4"/><path fill="#fff" d="M49.7 125v138.2h66.6A52 52 0 0 0 171 210a53.8 53.8 0 0 0-55.4-55.7 68.5 68.5 0 0 0-25 4.4V125zm260.6 0v138H351V125Zm-70.7 29.3c-43.7 0-62.4 27.8-62.4 55.3 0 26.2 17.6 55.4 62.8 55.4 42.1 0 62-27 62-55.4 0-25.9-17.3-55.3-62.4-55.3zm-132.4 34c13.7 0 23.1 8.4 23.1 20.5 0 12.4-9.6 20.3-24.3 20.3a88 88 0 0 1-15.4-1.4v-36.9a53.4 53.4 0 0 1 16.6-2.4zm132.4.7c12.8 0 21.5 8.5 21.5 20.7s-8.8 20.6-21.5 20.6c-12.8 0-21.5-8.5-21.5-20.7 0-12.1 8.7-20.6 21.5-20.6zm140.8 26.3a24.4 24.4 0 0 0-24.3 24.8A24.6 24.6 0 0 0 380 265a196.4 196.4 0 0 0 11.4-47 23.9 23.9 0 0 0-10.9-2.7z"/></svg>
