<svg xmlns="http://www.w3.org/2000/svg" width="69" height="40" fill="none"><path fill="#34D186" fill-rule="evenodd" d="M55.262 0v30.074h-7.136V1.504L55.262 0ZM34.945 32.924c1.97 0 3.568 1.584 3.568 3.538 0 1.954-1.598 3.538-3.568 3.538s-3.568-1.584-3.568-3.538c0-1.954 1.597-3.538 3.568-3.538Zm0-24.383c6.075 0 11.01 4.884 11.01 10.918 0 6.035-4.935 10.92-11.01 10.92-6.085 0-11.01-4.885-11.01-10.92 0-6.034 4.935-10.918 11.01-10.918Zm0 14.456c1.972 0 3.568-1.582 3.568-3.538 0-1.955-1.596-3.538-3.568-3.538s-3.568 1.583-3.568 3.538c0 1.956 1.596 3.538 3.568 3.538Zm-22.448 0c1.23 0 2.23-.992 2.23-2.21a2.224 2.224 0 0 0-2.23-2.212H7.146v4.422h5.351ZM7.146 7.077v4.422h3.964c1.229 0 2.23-.993 2.23-2.212a2.224 2.224 0 0 0-2.23-2.21H7.146Zm11.922 7.095c1.724 1.69 2.795 4.03 2.785 6.614 0 5.13-4.192 9.288-9.366 9.288H0V0h11.1c5.173 0 9.365 4.157 9.365 9.287 0 1.79-.505 3.47-1.397 4.885ZM68.74 16.02h-3.558v5.553c0 1.68.545 2.918 1.972 2.918.922 0 1.596-.206 1.596-.206v5.209s-1.477.884-3.479.884h-.089c-.09 0-.168-.01-.258-.01h-.069c-.04 0-.09-.01-.129-.01-3.984-.206-6.69-2.692-6.69-7.007V5.041l7.136-1.503v5.405h3.568v7.077Z" clip-rule="evenodd"/></svg>