<svg xmlns="http://www.w3.org/2000/svg" viewBox="0 0 69 40"><path fill="#34D186" d="M55.26 0v30.07h-7.13V1.5L55.26 0ZM34.95 32.92a3.55 3.55 0 0 1 3.56 3.54 3.56 3.56 0 0 1-7.14 0c0-1.95 1.6-3.54 3.57-3.54Zm0-24.38c6.07 0 11 4.89 11 10.92s-4.93 10.92-11 10.92a10.96 10.96 0 0 1-11.02-10.92c0-6.04 4.94-10.92 11.02-10.92Zm0 14.46a3.55 3.55 0 0 0 3.56-3.54 3.56 3.56 0 0 0-7.14 0c0 1.95 1.6 3.54 3.57 3.54ZM12.5 23c1.23 0 2.23-1 2.23-2.21a2.22 2.22 0 0 0-2.23-2.22H7.15V23h5.35ZM7.15 7.08v4.42h3.96c1.23 0 2.23-1 2.23-2.21a2.22 2.22 0 0 0-2.23-2.21H7.15Zm11.92 7.1a9.19 9.19 0 0 1 2.78 6.6c0 5.14-4.19 9.3-9.36 9.3H0V0h11.1a9.33 9.33 0 0 1 9.37 9.29c0 1.79-.51 3.47-1.4 4.88Zm49.67 1.84h-3.56v5.55c0 1.68.55 2.92 1.97 2.92.93 0 1.6-.2 1.6-.2v5.2s-1.48.89-3.48.89h-.09l-.26-.01h-.07l-.12-.01c-3.99-.2-6.7-2.7-6.7-7V5.03l7.14-1.5v5.4h3.57v7.08Z"/></svg>