<svg xmlns="http://www.w3.org/2000/svg" version="1.0" width="682.667" height="682.667" viewBox="0 0 512 512" aria-labelledby="bonobos-favicon-svg bonobos-favicon-svg-desc"><path d="M0 256v256h512V0H0z"/><path d="M224 310.1v34.1l18.8-.4c17-.3 19.2-.6 23.9-2.7 6.5-2.9 13.4-10.1 15.9-16.6 2.9-7.6 2.7-24.2-.4-31-6.4-13.8-15.1-17.5-41.4-17.5H224zm0-111.1v31h14.3c22.9 0 31.4-3.3 37.2-14.6 2.8-5.4 3-6.4 3-17.3 0-11-.2-11.9-3-17-3.2-5.8-9-10.3-15.5-12.1-1.9-.5-10.8-1-19.7-1H224zm59.5-75.2c26.2 7.2 42.8 23.4 49.1 47.7 1.4 5.2 1.8 10.7 1.8 21.5 0 13-.3 15.3-2.7 22.5-4.5 13.6-13 25.3-22.6 31.6l-2.4 1.5 5.7 3.2c12.1 6.9 22.2 20.7 26.3 36.2 2.6 9.5 2.5 37.7 0 47.5-5.8 22-19.2 38.2-39.2 47.5-16 7.5-14.8 7.4-74.7 7.8l-53.8.3V120.9l52.3.3c50.2.4 52.5.5 60.2 2.6z" fill="#fff"/></svg>