<svg xmlns="http://www.w3.org/2000/svg" width="424.878" height="424.878"><g fill-rule="evenodd"><path d="M75.324 1.185h274.23c41.429 0 75.324 32.798 75.324 74.527v272.11c0 41.728-33.896 75.87-75.324 75.87H0V75.713C0 33.982 33.896 1.185 75.324 1.185z" fill="#0c3b7c"/><path d="M228.5 206.296c13.893 6.331 23.21 16.033 27.603 29.855 8.773 27.606-.013 64.409-42.408 76.076a89.304 89.304 0 01-23.478 3.209c-23.496.078-46.996-.034-70.496.1-3.342.022-4.399-.77-4.393-4.286.113-60.272.062-120.546.102-180.82.006-11.77 8.913-21.69 20.281-21.764 20.282-.128 40.601-.993 60.846.417 16.417 1.145 31.32 6.69 42.484 19.516 18.02 20.706 15.657 54.49-4.881 72.719-1.682 1.492-3.373 2.97-5.66 4.978zm76.18 60.943c14.018 0 25.381 11.364 25.381 25.382 0 14.017-11.363 25.38-25.381 25.38s-25.381-11.363-25.381-25.38c0-14.018 11.363-25.382 25.38-25.382zm-149.13-10.53c0-6.395-.068-12.793.015-19.189.112-8.795 4.539-13.123 13.312-13.142 7.614-.015 15.23-.079 22.844.013 15.553.189 26.072 11.258 26.1 27.354.034 17.224-9.86 28.213-25.868 28.46-10.962.169-21.93-.06-32.896.099-2.748.036-3.685-.584-3.582-3.493.233-6.694.074-13.401.074-20.101zm0-84.993c0-4.877-.016-9.759.002-14.638.036-9.972 4.267-14.288 14.106-14.352 5.489-.037 10.978-.025 16.466-.003 14.928.055 23.778 8.486 24.327 23.157.556 14.873-8.282 25.435-22.605 26.165-9.884.504-19.815.046-29.724.174-2.515.034-2.613-1.248-2.595-3.12.058-5.794.022-11.588.022-17.382z" fill="#00001b"/><path d="M228.5 204.885c13.893 6.332 23.21 16.033 27.603 29.856 8.773 27.606-.012 64.409-42.408 76.076a89.301 89.301 0 01-23.478 3.208c-23.496.08-46.996-.033-70.496.1-3.342.023-4.399-.768-4.393-4.285.113-60.273.062-120.547.101-180.82.006-11.77 8.914-21.691 20.282-21.765 20.282-.128 40.601-.992 60.846.418 16.417 1.145 31.32 6.69 42.484 19.516 18.02 20.706 15.657 54.49-4.881 72.718-1.683 1.493-3.373 2.97-5.66 4.978zM155.55 255.3c0-6.395-.068-12.793.015-19.189.112-8.795 4.539-13.124 13.312-13.142 7.614-.015 15.23-.08 22.844.012 15.553.19 26.072 11.258 26.1 27.355.034 17.223-9.86 28.213-25.868 28.46-10.962.168-21.931-.06-32.896.098-2.748.037-3.685-.583-3.581-3.492.232-6.694.073-13.401.073-20.102zm0-84.993c0-4.878-.016-9.759.003-14.638.036-9.972 4.267-14.289 14.106-14.353a1574.57 1574.57 0 0116.466-.003c14.928.056 23.778 8.487 24.327 23.158.556 14.872-8.282 25.434-22.605 26.165-9.884.503-19.815.046-29.724.174-2.515.034-2.613-1.249-2.595-3.12.058-5.794.022-11.588.022-17.382z" fill="#fff"/><path d="M304.68 265.83a25.381 25.381 0 0125.381 25.38 25.381 25.381 0 11-25.38-25.38z" fill="#00aff1"/></g></svg>