<svg xmlns="http://www.w3.org/2000/svg" viewBox="0 0 32.6 38.2"><path fill="#0b0b0a" d="M14.2 36.95h-1.35V15.97c1.72 0 9.75.46 9.75 9.86 0 10.44-6.18 11.12-8.4 11.12zM12.83 1.66c.24 0 .78 0 1.03.03 2.8.22 5.68 1.97 5.68 6.13 0 4.81-3.68 6.63-6.7 6.63zm6.8 13.07c2.72-.08 7.34-1.8 7.34-7.02C26.98 2 20.53.07 13.76.07H.79a.79.79 0 0 0-.79.8v.01c0 .36.25.65.6.77 1.37.48 2 .02 2 2.03v31.04c0 2-.63 1.55-2 2.03-.35.12-.6.4-.6.77v.01c0 .44.35.8.79.8h14.67c11.51 0 17.14-3.72 17.14-12.5 0-7.9-6.32-11.1-12.96-11.1z"/></svg>
