<svg xmlns="http://www.w3.org/2000/svg" viewBox="0 0 535 535"><path fill="#05054b" d="M512 186c5-5 7-12 7-16s-2-6-5-6c-5 0-11 6-11 16a19 19 0 0 0 1 4l-18 26a33 33 0 0 0-6 0c-15 0-30 10-30 30a38 38 0 0 0 3 14c-13 14-23 23-31 23-3 0-4-1-4-4 0-4 1-10 5-17l42-95 46-5 5-11-44 2 8-17-18 2-7 15-63 2-11 22 65-7-13 26c-6-3-15-5-24-5a88 88 0 0 0-39 9 40 40 0 0 0-18-3c-15 0-32 7-46 19-3-8-8-13-17-13-10 0-21 5-31 13-6-5-15-6-25-2a62 62 0 0 0 8-30c0-17-8-30-23-38a115 115 0 0 1 16-11 38 38 0 0 0-5-3 148 148 0 0 0-21 10c-9-3-20-4-33-4-60 0-116 34-116 76 0 19 11 26 21 26s20-6 23-12c-9-2-14-10-14-19 0-33 40-62 81-62 9 0 17 2 24 5-25 19-44 45-60 73a43 43 0 0 0-7 0c-12 0-20 5-20 15 0 6 4 12 11 16l-27 59c-2-5-9-9-16-9-18 0-32 16-32 35 0 13 5 25 14 35-8 10-18 15-28 16a19 19 0 0 1-10-3c8-1 15-7 15-15s-7-14-17-14c-11 0-17 10-17 18 0 16 14 24 31 23 15 0 27-5 39-14a73 73 0 0 0 39 11c46 0 85-39 85-91 0-21-6-37-14-50a102 102 0 0 0 38-23c14-14 25-13 31-9-24 24-43 64-43 90 0 16 7 27 19 27 38 0 84-73 83-113 12-14 28-22 42-22a26 26 0 0 1 7 1c-30 21-49 57-49 85 0 14 8 25 22 25 26 0 60-40 60-81 0-12-4-22-10-28 10-6 20-9 30-9a47 47 0 0 1 19 4l-26 52c-6 12-9 22-9 29 0 10 7 15 16 15 14 0 31-13 48-32 7 9 18 13 27 13a49 49 0 0 0 9-1c-7 9-18 16-35 20l-227 57c-34 9-55 26-45 58 8-6 22-13 58-24l206-63c30-9 49-30 57-52 14-7 27-20 27-38 0-20-17-32-23-46zm-360 52a50 50 0 0 1 7 7 67 67 0 0 1-11 1l4-8zm-36-5c0-5 7-6 13-6l-7 14c-3-2-6-5-6-8zM66 359c-8-7-11-16-11-24a22 22 0 0 1 2-10c3 5 9 9 16 9a20 20 0 0 0 8-1 232 232 0 0 1-15 26zm31 11a52 52 0 0 1-14-2c23-26 41-68 60-111a109 109 0 0 0 23-2c3 8 6 18 6 30 0 38-29 85-75 85zm75-129a73 73 0 0 0-15-13c13-28 28-54 47-74 6 6 10 15 10 26 0 27-18 50-42 61zm58 79c-4 0-5-3-5-8 0-23 39-100 59-100 4 0 6 3 6 9 0 24-40 99-60 99zm102-22c-4 0-5-3-5-8 0-18 16-56 42-79 2 5 4 11 4 17 0 30-27 70-41 70zm128-52a30 30 0 0 1 0-7c0-12 8-21 19-21h2l-21 28zm42 13a28 28 0 0 1-17 5c-9 0-16-3-21-9l26-34c9 5 13 17 13 28a48 48 0 0 1-1 10zm11-14c0-13-7-26-19-32l13-20c5 8 11 18 11 30a49 49 0 0 1-5 22z"/></svg>
