<svg xmlns="http://www.w3.org/2000/svg" width="534.814" height="534.814"><g data-name="Layer 2"><path d="M512.054 185.777c4.49-5.11 7.28-11.5 7.28-16.25 0-3.2-1.86-5.22-4.86-5.22-5 0-11 6.15-11 15.39a18.9 18.9 0 00.41 3.89c-5.72 8.93-11.67 18-17.68 26.7a33.23 33.23 0 00-6.49-.63c-14.47 0-29.39 10.84-29.39 30.46a37.81 37.81 0 002.54 14.07c-12.38 14.11-23.28 23.26-30.64 23.26-2.92 0-4.65-1.58-4.65-4.86 0-3.53 1.7-9.12 5.1-16.9l42.58-94.21 45.93-5.41 5.22-10.88-44.4 1.49 7.7-17-17.29 2.05-7.8 15.47-62.16 2-11.18 22.18 65-7.66-13.08 25.96c-6.66-3-14.78-4.72-24.19-4.72a87.52 87.52 0 00-39.35 9.47 40.32 40.32 0 00-17.65-3.89c-15 0-32 7.22-45.83 19.88-2.8-8.63-8.67-13.82-17.34-13.82-10.1 0-20.83 5.32-31.1 13.89-6.14-5-15-6.47-24.4-2.94a62.44 62.44 0 007.81-29.35c0-17.4-8.15-30.16-23-37.86a115.1 115.1 0 0116.11-11 38.34 38.34 0 00-5.19-3.66 148 148 0 00-21 10.55c-9.36-3-20.54-4.5-33.33-4.5-59.33 0-115.47 34.26-115.47 76.6 0 18.66 10.56 25.34 21 25.34 9.77 0 19.31-5.49 22.32-12.11-8.48-1.75-13.51-9.11-13.51-18.45 0-33 39.93-61.8 80.9-61.8 9.17 0 17.12 1.71 23.64 4.86-24.89 19.17-44 45.23-59.76 73.12a43.16 43.16 0 00-6.64-.53c-11.77 0-20.27 5-20.27 14.84 0 6.65 4.32 12.34 11 16.47-9.79 20.31-18.32 40.61-26.52 59.09-2.84-5.61-9.32-9.27-16.81-9.27-18 0-31.61 15.88-31.61 35.53 0 12.81 5.2 25.08 14.17 34.9-8.47 9.46-17.73 15.07-28.53 15.36a19.11 19.11 0 01-10.07-2.53c8.48-.93 15.43-7.23 15.24-15.41-.19-8.18-7-14-16.36-13.75-11.45.23-17.64 9.81-17.45 18.19.37 15.5 13.54 23.68 30.75 23.28 14.85-.34 27.64-5.65 39-14.58a72.78 72.78 0 0039.41 11.13c45.66 0 84.39-38.87 84.39-91.06 0-20.73-5.34-37.17-13.34-49.72a102.46 102.46 0 0038-23.6c14.18-14.07 24.74-12.77 30.77-9-23.57 24.45-42.7 63.89-42.7 90.39 0 16.41 6.57 27.11 19.21 27.11 37.87 0 83.12-73.05 82.55-113.19 12.17-13.49 28.45-21.52 41.65-21.52a26.42 26.42 0 016.84.84c-29.6 20.94-48.06 56.74-48.06 84.28 0 14.59 7.17 25.65 21.16 25.65 26.07 0 60-40.61 60-81.1 0-12.45-3.54-21.8-9.15-28.38 9.12-5.43 19.14-8.72 29.86-8.72a47 47 0 0118.6 4l-26.11 51.78c-6.08 12.64-8.43 22-8.43 28.8 0 10.45 6.12 15.82 15.85 15.82 14.16 0 30.86-13.15 47.5-32 7.21 8.91 18.41 12.9 27.68 12.9a49.36 49.36 0 009-.86c-7 8.85-18.68 15.52-35.8 19.8l-226.63 56.78c-34.44 8.6-55.48 25.6-45.33 58.13 7.87-6.45 22-12.77 58.59-23.92l205.74-62.74c30.08-9.17 49.19-30.75 57.31-52.5 14-6.82 26.5-19.83 26.5-37.88.03-19.94-16.69-31.85-22.76-46.32zm-360.11 51.75a49.94 49.94 0 017.17 7.34 67.36 67.36 0 01-11.21 1.39q1.99-4.38 4.04-8.73zm-35.47-4.77c0-5.16 6.21-6 12.86-5.26q-3.6 6.69-7 13.45c-3.72-2.34-5.86-5.22-5.86-8.19zm-50.61 126.19c-7.56-7.06-11.28-16.2-11.18-23.8a22.29 22.29 0 012.69-10.29c2.43 5.28 8.31 9.31 15.43 9.31a20.12 20.12 0 007.8-1.58 232.08 232.08 0 01-14.74 26.36zm31.28 11.4a51.64 51.64 0 01-14.3-1.92c23.48-26.42 41-68.75 60.1-111.26a108.8 108.8 0 0022.59-1.94c3.82 8.07 6.16 17.93 6.16 29.66 0 38.38-28.21 85.46-74.55 85.46zm75-129.62a72.51 72.51 0 00-15.61-12.85c13.56-27.88 28.62-54.2 47.47-74.31 6.4 6.61 9.87 15.64 9.87 26.42-.02 26.84-17.72 50.4-41.71 60.74zm57.86 79.76c-3.65 0-5.47-3.16-5.47-8.51 0-23.34 39.63-99.69 59.57-99.69 3.77 0 5.47 3.16 5.47 8.63-.03 23.59-39.42 99.57-59.57 99.57zm102.25-22.2c-3.77 0-5.47-3-5.47-8.63 0-18.07 16.06-56 41.84-78.25 2.86 4.74 4.14 10.74 4.16 17 .11 29.85-27.27 69.88-40.56 69.88zm128-52.76a29.55 29.55 0 01-.72-6.58c0-11.66 8.31-21.07 19.28-21.07q1.1 0 2.13.09c-7.05 9.92-14.04 19.3-20.74 27.56zm41.6 13.22a28.42 28.42 0 01-17 5.6c-8.58 0-15.9-3.53-20.43-9.61 8.62-10.48 17.14-22.23 25.18-34.18 9.36 5.27 13.18 17.44 13.19 28.45a47.89 47.89 0 01-.99 9.74zm11-13.36c-.32-13.37-7-26.2-18.38-32.19 4.5-6.88 8.82-13.76 12.9-20.44 4.27 8.71 10.63 18.12 10.63 30.49a49.34 49.34 0 01-5.17 22.14z" fill="#05054b" data-name="Layer 1"/></g></svg>