<svg xmlns="http://www.w3.org/2000/svg" width="118.733" height="118.72"><path d="M118.68 18.5v1.26a19.38 19.38 0 01-5.81 13.77l-8.7 8.83-25 25V98.3c0 11.24 8.9 20.43 19.77 20.43s19.77-9.2 19.77-20.43V20.42c.06-.64.03-1.28-.02-1.9z" fill="#d20073"/><path d="M51.4 39.54L5.4 85.5c-7.1 8-7.07 20.1.3 27.46l73.5-73.4z" fill="#23bbea"/><path d="M5.8 113c7.38 7.35 19.48 7.4 27.44.28l45.98-45.93v-27.8z" fill="#009de0"/><path d="M104.2 42.37l8.7-8.83a20.71 20.71 0 01-14.62 6H79.22v27.8l25-25z" fill="#006fb7"/><path d="M96.7.14h1.4-77.67C9.2 0 0 8.9 0 19.77s9.2 19.77 20.43 19.77h31L84.16 6.78A19.58 19.58 0 0196.7.14z" fill="#d20073"/><path d="M79.23 19.85v-1.9l.06-.48a.2.2 0 000-.07l.33-1.75a19.63 19.63 0 014.39-8.87L51.4 39.54h27.8V20.42l.01-.57z" fill="#006fb7"/><path d="M118.68 18.5a21.2 21.2 0 00-.45-2.78A19.63 19.63 0 0099 0h-.9l-.68.05h-.72a19.58 19.58 0 00-12.54 6.73 19.63 19.63 0 00-4.39 8.87l-.33 1.73a.2.2 0 010 .07l-.06.48v21.6h18.9c11.24 0 20.43-8.9 20.43-19.77 0-.43-.02-.85-.04-1.26z" fill="#003883"/></svg>