<svg xmlns="http://www.w3.org/2000/svg" xml:space="preserve" version="1.0" viewBox="0 0 411.8 183.1"><path fill="#c7d9ed" d="M57.9 178.7v3"/><path fill="#fff" d="M58.499 181.683h-1.177v-2.949h1.177z"/><path fill="#c7d9ed" d="M101.1 178.7v3"/><path fill="#fff" d="M101.64 181.683h-1.176v-2.947h1.176zm105.275.817h-1.377V59.763h1.377zm-33.403 0h-1.374V59.764h1.374zm-33.4 0h-1.371V59.762h1.371zm100.202 0h-1.376V59.764h1.376zm33.402 0h-1.378V59.762h1.378z"/><path fill="#f29800" d="M10.604 168.578c3.535-.982 108.401-33.385 108.401-33.385l21.21 26.021 33.581-21.604 32.992 5.402 33.581-22.584 32.991 8.836 138.446-34.856-10.604-15.306-138.447 34.857-32.991-8.837-33.581 22.585-32.993-5.401-33.581 21.603-21.208-26.021S3.535 152.292 0 153.275z"/><path fill="#003b79" d="M206.521.686 7 56.982h400.615z"/><path fill="#fff" d="m6.999 57.666-.189-1.348L206.522-.028l201.276 56.346-.184 1.348zm395.604-1.373L206.522 1.399 11.968 56.293Z"/><path fill="#7c8ab4" d="M357.538 52.826H57.078v-2.947h300.46z"/><path fill="#bbc1d8" d="M357.114 52.761 206.294 7.725l.844-2.824 150.82 45.04z"/><path fill="#fff" d="m57.501 52.759-.848-2.818L206.291 4.904l.847 2.818z"/><g transform="translate(-38.6 -48.6)"><linearGradient id="a" x1="97.4" x2="69.7" y1="169.9" y2="169.9" gradientUnits="userSpaceOnUse"><stop offset="0" stop-color="#003b79"/><stop offset="0.3" stop-color="#44709e"/><stop offset="0.8" stop-color="#bacbde"/><stop offset="1" stop-color="#e9eff7"/></linearGradient><path fill="url(#a)" d="M69.9 126.4h27.5v87H69.9z"/><path fill="#fff" d="M69.167 214.113v-88.41h28.87v88.41zm1.376-1.373h26.118v-85.665H70.543Zm-.687-85.664v-.688z"/></g><g transform="translate(-38.6 -48.6)"><linearGradient id="b" x1="106.6" x2="61.1" y1="120.1" y2="120.1" gradientUnits="userSpaceOnUse"><stop offset="0" stop-color="#003b79"/><stop offset="0.3" stop-color="#44709e"/><stop offset="0.8" stop-color="#bacbde"/><stop offset="1" stop-color="#e9eff7"/></linearGradient><path fill="url(#b)" d="M65.8 116.4h36.1v7.5H65.8z"/><path fill="#fff" d="M65.082 124.513v-8.84h37.429v8.839H65.082Zm36.745-.688v-.688zm-35.369-.688h34.681v-6.086H66.458Z"/></g><g transform="translate(-38.6 -48.6)"><linearGradient id="c" x1="110.9" x2="56.7" y1="111.3" y2="111.3" gradientUnits="userSpaceOnUse"><stop offset="0" stop-color="#003b79"/><stop offset="0.3" stop-color="#44709e"/><stop offset="0.8" stop-color="#bacbde"/><stop offset="1" stop-color="#e9eff7"/></linearGradient><path fill="url(#c)" d="M61.4 109h44.8v4.7H61.4z"/><path fill="#fff" d="M60.724 114.365v-6.087h46.149v6.087zm45.461-.684v-.688zm-44.088-.688h43.399v-3.342H62.097Z"/></g><g transform="translate(-38.6 -48.6)"><linearGradient id="d" x1="106.6" x2="61.1" y1="220" y2="220" gradientUnits="userSpaceOnUse"><stop offset="0" stop-color="#003b79"/><stop offset="0.3" stop-color="#44709e"/><stop offset="0.8" stop-color="#bacbde"/><stop offset="1" stop-color="#e9eff7"/></linearGradient><path fill="url(#d)" d="M65.8 216.3h36.1v7.5H65.8z"/><path fill="#fff" d="M65.082 224.406v-8.836h36.745v.684-.684h.684v8.836zm1.376-1.377h34.681v-6.086H66.458Z"/></g><g transform="translate(-38.6 -48.6)"><linearGradient id="e" x1="110.9" x2="56.7" y1="228.7" y2="228.7" gradientUnits="userSpaceOnUse"><stop offset="0" stop-color="#003b79"/><stop offset="0.3" stop-color="#44709e"/><stop offset="0.8" stop-color="#bacbde"/><stop offset="1" stop-color="#e9eff7"/></linearGradient><path fill="url(#e)" d="M61.4 226.3h44.8v4.7H61.4z"/><path fill="#fff" d="M60.724 231.721v-6.088h45.461v.689-.689h.688v6.088zm1.373-1.375h43.399v-3.342H62.097Z"/></g><path fill="#fff" d="M36.063 163.759h-1.178V79.154h1.178zm-4.416-89.757h-1.178v-4.913h1.178zm0 99.742h-1.178v-4.66h1.178zM28.895 63.937h-1.178v-2.703h1.178z"/><g transform="translate(-38.6 -48.6)"><linearGradient id="f" x1="149.1" x2="121.4" y1="169.9" y2="169.9" gradientUnits="userSpaceOnUse"><stop offset="0" stop-color="#003b79"/><stop offset="0.3" stop-color="#44709e"/><stop offset="0.8" stop-color="#bacbde"/><stop offset="1" stop-color="#e9eff7"/></linearGradient><path fill="url(#f)" d="M121.6 126.4h27.5v87h-27.5z"/><path fill="#fff" d="M120.941 214.113v-88.411h28.864v88.411zm1.373-1.373h26.118v-85.666h-26.118zm-.687-85.665v-.687z"/></g><g transform="translate(-38.6 -48.6)"><linearGradient id="g" x1="158.3" x2="112.9" y1="120.1" y2="120.1" gradientUnits="userSpaceOnUse"><stop offset="0" stop-color="#003b79"/><stop offset="0.3" stop-color="#44709e"/><stop offset="0.8" stop-color="#bacbde"/><stop offset="1" stop-color="#e9eff7"/></linearGradient><path fill="url(#g)" d="M117.5 116.4h36.1v7.5h-36.1z"/><path fill="#fff" d="M116.853 124.51v-8.836h37.428v8.837h-37.428zm36.741-.687v-.687zm-35.368-.686h34.681v-6.086h-34.681z"/></g><g transform="translate(-38.6 -48.6)"><linearGradient id="h" x1="162.7" x2="108.5" y1="111.3" y2="111.3" gradientUnits="userSpaceOnUse"><stop offset="0" stop-color="#003b79"/><stop offset="0.3" stop-color="#44709e"/><stop offset="0.8" stop-color="#bacbde"/><stop offset="1" stop-color="#e9eff7"/></linearGradient><path fill="url(#h)" d="M113.2 109H158v4.7h-44.8z"/><path fill="#fff" d="M112.494 114.365v-6.088h46.146v6.089h-46.146zm45.46-.687v-.687zm-44.087-.686h43.4v-3.342h-43.4z"/></g><g transform="translate(-38.6 -48.6)"><linearGradient id="i" x1="158.3" x2="112.9" y1="220" y2="220" gradientUnits="userSpaceOnUse"><stop offset="0" stop-color="#003b79"/><stop offset="0.3" stop-color="#44709e"/><stop offset="0.8" stop-color="#bacbde"/><stop offset="1" stop-color="#e9eff7"/></linearGradient><path fill="url(#i)" d="M117.5 216.3h36.1v7.5h-36.1z"/><path fill="#fff" d="M116.853 224.406v-8.836h36.741v.688-.688h.687v8.836zm1.373-1.373 34.681-.006v-6.084h-34.681z"/></g><g transform="translate(-38.6 -48.6)"><linearGradient id="j" x1="162.7" x2="108.5" y1="228.7" y2="228.7" gradientUnits="userSpaceOnUse"><stop offset="0" stop-color="#003b79"/><stop offset="0.3" stop-color="#44709e"/><stop offset="0.8" stop-color="#bacbde"/><stop offset="1" stop-color="#e9eff7"/></linearGradient><path fill="url(#j)" d="M113.2 226.3H158v4.7h-44.8z"/><path fill="#fff" d="M112.494 231.719v-6.088h45.459v.686-.686h.687v6.088zm1.373-1.373h43.4v-3.342h-43.4z"/></g><path fill="#fff" d="M87.833 163.763h-1.179v-84.61h1.179zm-4.417-89.761h-1.179V69.09h1.179zm0 99.742h-1.179v-4.908h1.179zm-2.749-109.81h-1.181v-2.699h1.181z"/><g transform="translate(-38.6 -48.6)"><linearGradient id="k" x1="369.6" x2="341.9" y1="169.9" y2="169.9" gradientUnits="userSpaceOnUse"><stop offset="0" stop-color="#003b79"/><stop offset="0.3" stop-color="#44709e"/><stop offset="0.8" stop-color="#bacbde"/><stop offset="1" stop-color="#e9eff7"/></linearGradient><path fill="url(#k)" d="M342.1 126.4h27.5v87h-27.5z"/><path fill="#fff" d="M341.375 214.109v-88.407h28.873v88.407zm1.376-1.369h26.116v-85.663h-26.116zm-.687-85.662v-.688z"/></g><g transform="translate(-38.6 -48.6)"><linearGradient id="l" x1="378.8" x2="333.3" y1="120.1" y2="120.1" gradientUnits="userSpaceOnUse"><stop offset="0" stop-color="#003b79"/><stop offset="0.3" stop-color="#44709e"/><stop offset="0.8" stop-color="#bacbde"/><stop offset="1" stop-color="#e9eff7"/></linearGradient><path fill="url(#l)" d="M338 116.4h36.1v7.5H338z"/><path fill="#fff" d="M337.292 124.51v-8.835h37.43v8.835zm36.743-.684v-.688zm-35.371-.688h34.684v-6.089h-34.684z"/></g><g transform="translate(-38.6 -48.6)"><linearGradient id="m" x1="383.1" x2="328.9" y1="111.3" y2="111.3" gradientUnits="userSpaceOnUse"><stop offset="0" stop-color="#003b79"/><stop offset="0.3" stop-color="#44709e"/><stop offset="0.8" stop-color="#bacbde"/><stop offset="1" stop-color="#e9eff7"/></linearGradient><path fill="url(#m)" d="M333.6 109h44.8v4.7h-44.8z"/><path fill="#fff" d="M332.93 114.365v-6.086h46.151v6.086zm45.463-.684v-.688zm-44.085-.688h43.396l-.002-3.342h-43.395v3.342z"/></g><g transform="translate(-38.6 -48.6)"><linearGradient id="n" x1="378.8" x2="333.3" y1="220" y2="220" gradientUnits="userSpaceOnUse"><stop offset="0" stop-color="#003b79"/><stop offset="0.3" stop-color="#44709e"/><stop offset="0.8" stop-color="#bacbde"/><stop offset="1" stop-color="#e9eff7"/></linearGradient><path fill="url(#n)" d="M338 216.3h36.1v7.5H338z"/><path fill="#fff" d="M337.292 224.406v-8.836h36.743v.684-.684h.687v8.836zm1.372-1.377h34.684v-6.086h-34.684z"/></g><g transform="translate(-38.6 -48.6)"><linearGradient id="o" x1="383.1" x2="328.9" y1="228.7" y2="228.7" gradientUnits="userSpaceOnUse"><stop offset="0" stop-color="#003b79"/><stop offset="0.3" stop-color="#44709e"/><stop offset="0.8" stop-color="#bacbde"/><stop offset="1" stop-color="#e9eff7"/></linearGradient><path fill="url(#o)" d="M333.6 226.3h44.8v4.7h-44.8z"/><path fill="#fff" d="M332.93 231.719v-6.084h45.463v.688-.688h.688v6.084zm1.378-1.373h43.397v-3.34h-43.397z"/></g><path fill="#fff" d="M308.27 163.763h-1.178V79.155h1.178zM303.856 74h-1.182v-4.911h1.182zm0 99.746h-1.182v-4.662h1.182zm-2.751-109.809h-1.182v-2.7h1.182z"/><g transform="translate(-38.6 -48.6)"><linearGradient id="p" x1="421.3" x2="393.6" y1="169.9" y2="169.9" gradientUnits="userSpaceOnUse"><stop offset="0" stop-color="#003b79"/><stop offset="0.3" stop-color="#44709e"/><stop offset="0.8" stop-color="#bacbde"/><stop offset="1" stop-color="#e9eff7"/></linearGradient><path fill="url(#p)" d="M393.8 126.4h27.5v87h-27.5z"/><path fill="#fff" d="M393.147 214.113v-88.412h28.869v88.413h-28.869zm1.375-1.377h26.118v-85.661h-26.118zm-.686-85.66v-.686z"/></g><g transform="translate(-38.6 -48.6)"><linearGradient id="q" x1="430.5" x2="385.1" y1="120.1" y2="120.1" gradientUnits="userSpaceOnUse"><stop offset="0" stop-color="#003b79"/><stop offset="0.3" stop-color="#44709e"/><stop offset="0.8" stop-color="#bacbde"/><stop offset="1" stop-color="#e9eff7"/></linearGradient><path fill="url(#q)" d="M389.8 116.4h36.1v7.5h-36.1z"/><path fill="#fff" d="M389.06 124.51v-8.835h37.434v8.835zm36.744-.686v-.687zm-35.37-.687h34.684v-6.086h-34.684z"/></g><g transform="translate(-38.6 -48.6)"><linearGradient id="r" x1="434.9" x2="380.7" y1="111.3" y2="111.3" gradientUnits="userSpaceOnUse"><stop offset="0" stop-color="#003b79"/><stop offset="0.3" stop-color="#44709e"/><stop offset="0.8" stop-color="#bacbde"/><stop offset="1" stop-color="#e9eff7"/></linearGradient><path fill="url(#r)" d="M385.4 109h44.8v4.7h-44.8z"/><path fill="#fff" d="M384.7 114.365v-6.089h46.15v6.089zm45.465-.685v-.687zm-44.091-.687h43.399v-3.339h-43.399z"/></g><g transform="translate(-38.6 -48.6)"><linearGradient id="s" x1="430.5" x2="385.1" y1="220" y2="220" gradientUnits="userSpaceOnUse"><stop offset="0" stop-color="#003b79"/><stop offset="0.3" stop-color="#44709e"/><stop offset="0.8" stop-color="#bacbde"/><stop offset="1" stop-color="#e9eff7"/></linearGradient><path fill="url(#s)" d="M389.8 216.3h36.1v7.5h-36.1z"/><path fill="#fff" d="M389.06 224.406v-8.84h36.744v.691-.691h.689v8.84zm1.374-1.377h34.684v-6.086l-34.684-.004z"/></g><g transform="translate(-38.6 -48.6)"><linearGradient id="t" x1="434.9" x2="380.7" y1="228.7" y2="228.7" gradientUnits="userSpaceOnUse"><stop offset="0" stop-color="#003b79"/><stop offset="0.3" stop-color="#44709e"/><stop offset="0.8" stop-color="#bacbde"/><stop offset="1" stop-color="#e9eff7"/></linearGradient><path fill="url(#t)" d="M385.4 226.3h44.8v4.7h-44.8z"/><path fill="#fff" d="M384.7 231.719v-6.088h45.465v.691-.691h.686v6.088zm1.371-1.373h43.402v-3.338h-43.402z"/></g><path fill="#fff" d="M360.045 163.763h-1.182V79.399h1.182zM355.624 74h-1.182v-4.911h1.182zm0 99.58h-1.182V169h1.182zm-2.748-110.052h-1.181v-2.293h1.181z"/></svg>