<?xml version="1.0" encoding="UTF-8"?>
<svg width="512px" height="512px" viewBox="0 0 512 512" version="1.1" xmlns="http://www.w3.org/2000/svg" xmlns:xlink="http://www.w3.org/1999/xlink">
    <title>Bowens Favicon</title>
    <g id="Bowens-Favicon" stroke="none" stroke-width="1" fill="none" fill-rule="evenodd">
        <rect fill="#154C97" x="0" y="0" width="512" height="512"></rect>
        <path d="M281.695582,210.162162 C275.374227,214.864865 265.892195,218 250.088807,218 L209,218 L209,160 L251.669146,160 C265.892195,160 276.954566,163.135135 281.695582,167.837838 C288.016937,172.540541 289.597276,180.378378 289.597276,188.216216 C291.177615,197.621622 288.016937,203.891892 281.695582,210.162162 M209,285 L257.566667,285 C274.8,285 285.766667,288.15 293.6,292.875 C299.866667,299.175 303,305.475 303,314.925 C303,324.375 299.866667,332.25 293.6,338.55 C287.333333,344.85 274.8,348 259.133333,348 L210.566667,348 L209,285 L209,285 Z M344,244.248848 C356.571429,239.548387 367.571429,231.714286 375.428571,223.880184 C388,209.778802 394.285714,190.976959 394.285714,172.175115 C394.285714,148.672811 384.857143,126.737327 367.571429,111.069124 C350.285714,95.4009217 325.142857,86 293.714286,86 L105.142857,86 L102,86 L102,426 L279.571429,426 C287.428571,426 303.142857,424.43318 325.142857,421.299539 C342.428571,419.732719 355,415.032258 364.428571,410.331797 C378.571429,402.497696 389.571429,389.963134 397.428571,375.861751 C405.285714,361.760369 410,346.092166 410,327.290323 C410,305.354839 403.714286,286.552995 392.714286,272.451613 C381.714286,259.917051 366,250.516129 344,244.248848" id="Shape" fill="#FFF200" fill-rule="nonzero"></path>
    </g>
</svg>