<svg xmlns="http://www.w3.org/2000/svg" viewBox="0 0 25 25" style="fill:#fff200;background:#154c97">
    <path d="M14.1 9.55c-.4.3-1 .5-2 .5H9.5v-3.7h2.7c.9 0 1.6.2 1.9.5.4.3.5.8.5 1.3.1.6-.1 1-.5 1.4m-4.6 4.8h3.1c1.1 0 1.8.2 2.3.5.4.4.6.8.6 1.4 0 .6-.2 1.1-.6 1.5-.4.4-1.2.6-2.2.6H9.6Zm8.6-2.6c.8-.3 1.5-.8 2-1.3.8-.9 1.2-2.1 1.2-3.3 0-1.5-.6-2.9-1.7-3.9s-2.7-1.6-4.7-1.6H2.7v21.7H14c.5 0 1.5-.1 2.9-.3 1.1-.1 1.9-.4 2.5-.7.9-.5 1.6-1.3 2.1-2.2.5-.9.8-1.9.8-3.1 0-1.4-.4-2.6-1.1-3.5-.7-.8-1.7-1.4-3.1-1.8" />
</svg>