<svg xmlns="http://www.w3.org/2000/svg" version="1.1" x="0" y="0" xml:space="preserve" id="svg19826" width="524.3" height="524.3"><style type="text/css" id="style19818"></style><path d="M99.914 38c-35.6 42.5-54.5 89.2-59.1 145.8l-1 12.5h-16.8c-19.6 0-17.7 2.7-15.5-21.9 5.8-61.5 28.3-113.7 69.4-162L87.414 0l12.1 12.1 11.9 11.9zm94.3 78.1c-18.3 23.1-28.1 45.7-30 69.2l-.9 11.1h-117.6l.9-12.5c4.4-55.8 25.6-106.2 61.3-146.3l8.1-9.1 41.2 41.2 41.2 41.3zm124-73.8c27.3 5.1 55.9 19.2 76.4 37.3l5.4 4.8-11.9 11.9-11.8 11.8-4.4-3.4c-9.7-8-21.6-15.5-31.4-20-11.1-5.1-30.8-10.5-38.9-10.5-11.5-.1-11.4.1-11.4-17.9V40.1h8.4c4.5 0 13.5 1 19.6 2.2zm124.9 25.1c28.4 34.4 44.4 73.6 48.1 117.1l1 11.8h-78.5v-7.5c0-21.6-11.9-50-30.8-73.1l-3.8-4.7 27-27c14.8-14.8 27.3-26.8 27.7-26.8.4 0 4.7 4.7 9.3 10.2zm-155.7 30.8v18.2l-7.7 1c-15.8 1.8-29.7 8-45.9 20-1.3 1-5.1-1.8-14.6-11.4-7-7-12.8-13.2-12.8-13.8 0-2.3 19.5-15.5 30.5-21 13.2-6.5 30.5-11.1 42.3-11.2l8.1-.1v18.3zm29.8-15.5c6.7 1.7 17.2 5.4 23.4 8.5 10.8 5.1 30.5 18.7 30.5 21 0 .6-5.8 6.8-12.8 13.8-9.5 9.5-13.3 12.4-14.6 11.4-16-12.1-27-17-43.6-19.9l-9.2-1.4-.4-18.2-.4-18h7.5c4.1 0 12.9 1.3 19.6 2.8zm-92.9 65.6c-7.7 8.9-13.5 21.9-16.2 35.8l-2.3 12.2h-36.8l.9-10.8c1.8-20.2 12.1-44.4 26.7-63l5.8-7.4 13.6 13.5 13.5 13.5zm158.6-23.4c14.9 19.5 25 45.7 25.1 64.6v6.8h-36.2l-2.3-11.9c-2.7-14.1-7.2-24.3-15.3-34.9l-5.8-7.8 12.4-12.4c6.8-7 13.2-12.5 14.2-12.5.8 0 4.5 3.7 7.9 8.1zm-176.5 78.8c.1 13.1 8.9 35.8 17.9 46.3l4.7 5.5-13.5 13.3-13.5 13.3-4.8-5.7c-15.3-18-27.5-48.8-27.7-69.3v-6.7h18.5c18.1.2 18.4.2 18.4 3.3zm201.2 8.3c-1.6 20.7-13.1 47.9-27.3 64.6l-4.8 5.7-12.9-12.8c-7-7-12.8-13.2-12.8-13.8 0-.6 2.6-4.4 5.7-8.5 7.1-9.4 12.5-22.7 14.6-36.2l1.7-10.4h36.6zm83.7 1c-3 36.9-16.6 74.8-37.2 103.5-8.9 12.5-18.3 23.3-20.2 23.3-.6 0-13.1-12.1-27.8-26.8l-27-27 5-5.4c15.8-17.5 27.3-43.6 29.1-66.2.4-5.7 1-11.1 1.4-12.1.3-1.3 9.4-1.7 39-1.7h38.6zm-252.2 51.4c11.8 9.4 32.1 17 45.2 17.2 3.1 0 3.1.3 3.1 18.6v18.7l-10.2-.9c-14.3-1.1-25.3-4.3-40.2-11.5-13.3-6.4-30.5-18.3-30.5-21.2 0-1.4 23.9-26.6 25.3-26.6 0 .1 3.5 2.7 7.3 5.7zm120.4 7.6l13.2 13.3-6.4 5.3c-19.6 16-48.7 27.7-69.3 27.8h-6.8v-36.6l8.2-1c15.3-1.8 36.2-10.9 43.6-19.2 1.4-1.6 3-2.8 3.4-2.8.6 0 6.9 6 14.1 13.2zm-150.5 23.9c17.9 15.8 46.1 26.8 72.7 28.7l5 .3.4 16.6.4 16.8h-7c-18.3 0-47.3-8.1-66.7-18.5-11.8-6.4-27.3-17.3-32.8-23.3l-3.5-3.8 11.2-11.2c6.2-6.2 11.8-11.4 12.5-11.4.7 0 4.2 2.5 7.8 5.8zm195.4 21l26.7 26.7-6.7 6.2c-31.5 29.3-80.7 49.7-122.8 51.3l-10.6.4v-76.6l9.9-.9c12.5-1.1 25.3-4.4 37.6-9.7 10.8-4.4 27.3-14.9 32.5-20.6 2-2 4.1-3.7 5-3.7.9 0 13.6 12.1 28.4 26.9zm43.1 43.2l11.8 11.9-7.5 6.8c-31.7 28.5-70.3 48.3-111.9 57.2-15.1 3.3-44.6 6.7-47.7 5.4-1.6-.6-2-4.3-2-16.9v-16.2l12.5-1c47-3.8 92.4-22.7 123.1-51.1 4.7-4.3 8.8-7.8 9.2-8 .5.1 6.2 5.5 12.5 11.9zm43.6 43.7l27 27-7.1 6.5c-32.2 29.1-67.2 51-105.2 65.7-30.8 11.9-77.4 21.3-105.4 21.3h-10.2v-76.2l18.9-1.6c32.9-3 59.8-10.4 88.3-24.4 20.2-9.8 38.3-21.7 54-35.4 6.2-5.5 11.6-9.9 12.1-10.1.4.1 12.9 12.3 27.6 27.2z" id="path19823" fill="#008e5a" fill-opacity="1"/></svg>