<svg xmlns="http://www.w3.org/2000/svg" width="188.977" height="188.977"><path d="M0 0v188.977h188.977V0H0" fill="#ed1c24"/><path d="M171.218 170.195H19.802V18.78h151.416v151.416" fill="#fff"/><path d="M100.058 104.52H69.331v29.284h30.727c13.35-.647 19.726-4.897 19.726-14.504 0-10.898-6.376-14.78-19.728-14.78zm-1.904-49.347H69.33V82.56h28.823c12.494 0 19.483-2.921 19.483-13.907 0-10.092-6.989-12.833-19.483-13.48zm50.957 67.953c0 28.468-20.41 32.682-46.084 32.682h-63.16V33.168h60.608c33.587 0 46.63 10.076 46.63 32.015 0 18.867-11.017 24.842-18.653 27.768 9.112 3.43 20.659 10.44 20.659 26.795v3.38" fill="#ed1c24"/><path d="M0 0v188.977h188.977V0H0" fill="#ed1c24"/><path d="M171.218 170.195H19.802V18.78h151.416v151.416" fill="#fff"/><path d="M99.54 103.587H71.67v26.562h27.87c12.11-.586 17.892-4.441 17.892-13.155 0-9.885-5.782-13.407-17.894-13.407zm-1.727-44.76H71.669V83.67h26.144c11.333 0 17.672-2.65 17.672-12.614 0-9.154-6.339-11.64-17.672-12.227zm46.22 61.637c0 25.821-18.512 29.644-41.8 29.644h-57.29V38.868H99.92c30.465 0 42.294 9.14 42.294 29.039 0 17.113-9.992 22.533-16.918 25.187 8.265 3.111 18.738 9.47 18.738 24.304v3.066" fill="#ed1c24"/></svg>