<svg xmlns="http://www.w3.org/2000/svg" viewBox="0 0 179.4 199.1"><path fill="#57b7dd" fill-rule="evenodd" d="M.1 60.4v52.3l61.2 29 62.6-66-41-74.6A22 22 0 0 0 79 2.8L11 42A21.4 21.4 0 0 0 0 60.4"/><path fill="#f99132" fill-rule="evenodd" d="m61.3 141.6 73.8 34.8 33.4-19.3-44.6-81.4z"/><path fill="#a98bbc" fill-rule="evenodd" d="m160.5 37.1-60-34.3A21.6 21.6 0 0 0 83 1.1l41 74.7 36.7-38.5z"/><path fill="#ff6d56" fill-rule="evenodd" d="M168.5 157.1h.2a21.4 21.4 0 0 0 10.7-18.5V60.4c0-7.7-4-14.7-10.7-18.6l-8.1-4.6-36.7 38.5 44.7 81.5z"/><path fill="#8ac539" fill-rule="evenodd" d="M.1 112.7v26c0 7.5 4.2 14.6 10.8 18.4l23 13.3 27.4-28.8z"/><path fill="#ffbe0a" fill-rule="evenodd" d="m34 170.4 45 25.8a21.6 21.6 0 0 0 21.6 0l34.5-19.8-73.8-34.8z"/></svg>