<svg xmlns="http://www.w3.org/2000/svg" viewBox="0 0 90 90"><path d="M43.72.02c-.01.01-.78.09-1.7.14-2.43.16-3.23.27-5.72.75A44.96 44.96 0 008.22 19.07C3.45 25.87.92 32.79.07 41.39c-.1.92-.1 5.8 0 7.12a45.55 45.55 0 006.09 19.37c.73 1.23 3.2 4.85 3.65 5.32.12.14.55.62.94 1.1A45.5 45.5 0 0036.3 89.2l1.07.18c1.2.24 1.58.29 2.5.38l1.6.16c.69.1 5.73.1 6.85.02a45.4 45.4 0 0018.44-5.46 63.09 63.09 0 006.13-4.02A46.12 46.12 0 0085.34 65.2a45.83 45.83 0 003.93-11.53l.37-1.96c.52-2.68.47-11.21-.1-13.86-.1-.4-.2-1-.25-1.33-.06-.34-.14-.82-.2-1.07l-.2-.89a4.11 4.11 0 00-.17-.7 50.96 50.96 0 00-2.31-6.72 51.44 51.44 0 00-5.12-8.84A45.45 45.45 0 0053.66.87L52.65.69 51.49.51c-.47-.05-1.02-.14-1.21-.17-.68-.13-6.45-.41-6.56-.32zm3.89 6.73c1.08.06 2.12.14 2.31.18.2.05.66.12 1.03.18a38.44 38.44 0 0132.26 42.74l-.17 1.26a48 48 0 01-1.96 7.35 39.76 39.76 0 01-5.52 9.96 53.47 53.47 0 01-6.6 6.71c-4.88 3.84-11.47 6.83-16.97 7.7l-.9.16c-.4.07-2.06.26-3.13.35a54 54 0 01-5.87 0 46.01 46.01 0 01-3.2-.37c-8.27-1.46-15-4.87-20.75-10.52-1.89-1.83-3.03-3.13-2.53-2.8.68.4 3.47.77 5.56.7 4.86-.12 9.45-2.22 13.3-6.06l1.65-1.63.29.57c1.94 3.75 6.03 6.8 9.88 7.34 5.43.74 10.15-1.44 13.98-6.53 1.94-2.57 3.66-6.86 4.25-10.55.2-1.3.25-5.85.07-6.93l-.25-1.62c-.03-.3-.28-1.23-.55-2.04-1.5-4.75-4.57-8.34-8.35-9.76-1.55-.57-1.9-.62-4.27-.62-2.48.02-4.47.44-6.45 1.4-.66.34-1.23.59-1.24.57-.02-.02.32-2.15.55-3.45l.2-1.15.28-1.64.4-2.3c.22-1.37.35-2.05.58-3.3.14-.72.3-1.93.37-2.66.09-1.14.04-1.46-.3-2.17-.57-1.24-1.6-2.22-2.42-2.34-.82-.13-11.54-.13-12.2 0-.25.05-.57.3-.73.57-.44.74-.98 3.94-.87 5.22.05.64.67.73 5.18.75 2.8.01 4.34.09 4.34.2-.01.08-.09.56-.14 1.06l-.39 2.49-.78 4.7-.45 2.67c-.03.25-.44 2.68-.89 5.42l-.9 5.51c-.04.28-.13.66-.17.8-.03.14-.12.62-.18 1.07-.05.44-.14.92-.17 1.06-.04.14-.11.59-.18.98-.2 1.4-.29 1.8-.64 3.2-1.3 5.1-4.81 9.63-8.9 11.53a13.72 13.72 0 01-9.8.66c-3.68-1.26-5.87-3.73-7.39-8.32-.46-1.4-.5-1.6-.96-4.32C5.96 44.96 6.76 37.55 9 31.6a43.51 43.51 0 014.56-8.68 50.68 50.68 0 017.08-7.58 42.9 42.9 0 017.57-4.79 37.54 37.54 0 0114.69-3.83c1.03-.06 1.9-.13 1.94-.16.03-.04.23-.04.44.01.22.04 1.27.13 2.34.18zm5.93 32.7c1.97.89 3.7 3.27 4.27 5.86.44 1.98.48 2.39.46 4.1a19.4 19.4 0 01-1.48 7.7c-1.26 3.04-3.41 5.57-5.62 6.6a6.95 6.95 0 01-8.28-1.89c-1.62-2.02-2.28-4.2-2.28-7.62-.02-4.2 1.01-7.86 2.95-10.68 2.8-4.05 6.57-5.6 9.98-4.07z"/></svg>