<svg xmlns="http://www.w3.org/2000/svg" viewBox="0 0 303 290.2"><defs><linearGradient id="a" x1="306" x2="144.8" y1="-20" y2="151.5" gradientUnits="userSpaceOnUse"><stop offset="0" stop-color="#f869d5"/><stop offset="1" stop-color="#a472ff"/></linearGradient><linearGradient id="b" x1="207.4" x2="66.9" y1="-14.1" y2="124.3" gradientTransform="translate(0 -.9)" gradientUnits="userSpaceOnUse"><stop offset="0" stop-color="#ff7676"/><stop offset="1" stop-color="#f966be"/></linearGradient><linearGradient id="c" x1="333.4" x2="177.6" y1="63.9" y2="225.8" gradientTransform="translate(0 -.9)" gradientUnits="userSpaceOnUse"><stop offset="0" stop-color="#4affb1"/><stop offset="1" stop-color="#2bd2ff"/></linearGradient></defs><path fill="url(#a)" d="m278.2 35.2 24.8 25L172.9 190 130 147.4 24.8 252.5.5 228.1 130 98.5l42.4 42.4Z"/><path fill="url(#b)" d="M117.5 4.5 0 120.3l26.5 27L128.3 46.8 170.8 90l26.9-26.5-58-59a15.7 15.7 0 0 0-22.2 0z"/><path fill="url(#c)" d="m303 168.4-26.8-26.9-101.5 101.6-43.1-43-26.8 26.8 58.8 58.7a15.7 15.7 0 0 0 22.2 0z"/></svg>
