<svg xmlns="http://www.w3.org/2000/svg" width="303.05" height="303.05"><defs><linearGradient id="a" x1="305.96" y1="-20.02" x2="144.8" y2="151.47" gradientUnits="userSpaceOnUse"><stop offset="0" stop-color="#f869d5"/><stop offset="1" stop-color="#a472ff"/></linearGradient><linearGradient id="b" x1="207.38" y1="-14.11" x2="66.89" y2="124.33" gradientUnits="userSpaceOnUse"><stop offset="0" stop-color="#ff7676"/><stop offset="1" stop-color="#f966be"/></linearGradient><linearGradient id="c" x1="333.36" y1="63.87" x2="177.62" y2="225.84" gradientUnits="userSpaceOnUse"><stop offset="0" stop-color="#4affb1"/><stop offset="1" stop-color="#2bd2ff"/></linearGradient></defs><g data-name="Icon"><path fill="url(#a)" d="M278.16 35.22 303 60.06 172.88 190.19l-42.87-42.86L24.85 252.5.46 228.12 130.05 98.53l42.41 42.4z" transform="translate(0 6.395)"/><path d="M117.5 5.39 0 121.21l26.5 26.89L128.3 47.82 170.83 91l26.87-26.52-58.08-58.93a15.65 15.65 0 0 0-22.12-.16z" transform="translate(0 5.505)" fill="url(#b)"/><path d="m303.05 169.28-26.83-26.83L174.65 244l-43.06-43.05-26.82 26.81 58.79 58.79a15.72 15.72 0 0 0 22.22 0z" transform="translate(0 5.505)" fill="url(#c)"/></g></svg>