<svg xmlns="http://www.w3.org/2000/svg" version="1.1" id="svg6182" width="303.05" height="303.05"><defs id="defs6157"><linearGradient id="linear-gradient" x1="305.96" y1="-20.02" x2="144.8" y2="151.47" gradientUnits="userSpaceOnUse"><stop offset="0" stop-color="#f869d5" id="stop6142"/><stop offset="1" stop-color="#a472ff" id="stop6144"/></linearGradient><linearGradient id="linear-gradient-2" x1="207.38" y1="-14.11" x2="66.89" y2="124.33" gradientUnits="userSpaceOnUse"><stop offset="0" stop-color="#ff7676" id="stop6147"/><stop offset="1" stop-color="#f966be" id="stop6149"/></linearGradient><linearGradient id="linear-gradient-3" x1="333.36" y1="63.87" x2="177.62" y2="225.84" gradientUnits="userSpaceOnUse"><stop offset="0" stop-color="#4affb1" id="stop6152"/><stop offset="1" stop-color="#2bd2ff" id="stop6154"/></linearGradient><style id="style6140"></style></defs><g id="Icon" transform="translate(0 6.395)"><g id="Icon-2" data-name="Icon"><path id="polygon6174" fill="url(#linear-gradient)" d="M278.16 35.22L303 60.06 172.88 190.19l-42.87-42.86L24.85 252.5.46 228.12 130.05 98.53l42.41 42.4z"/><path d="M117.5 5.39L0 121.21l26.5 26.89L128.3 47.82 170.83 91l26.87-26.52-58.08-58.93a15.65 15.65 0 00-22.12-.16z" transform="translate(0 -.89)" id="path6176" fill="url(#linear-gradient-2)"/><path d="M303.05 169.28l-26.83-26.83L174.65 244l-43.06-43.05-26.82 26.81 58.79 58.79a15.72 15.72 0 0022.22 0z" transform="translate(0 -.89)" id="path6178" fill="url(#linear-gradient-3)"/></g></g></svg>