<svg xmlns="http://www.w3.org/2000/svg" width="35.996" height="36" xml:space="preserve"><path d="M7.496 16.808a92.408 92.408 0 0 0-7.341 5.794.487.487 0 0 0-.095.589l6.078 10.262a.483.483 0 0 0 .562.199 92.66 92.66 0 0 0 8.61-3.651 92.034 92.034 0 0 1-7.814-13.193zM29.298 5.345a92.008 92.008 0 0 0-8.61 3.651 92.57 92.57 0 0 1 7.813 13.192 91.225 91.225 0 0 0 7.34-5.795.485.485 0 0 0 .096-.587L29.858 5.54a.483.483 0 0 0-.56-.195Z" style="fill:#2ce0df" transform="translate(0 -1.5)"/><path d="M20.687 8.996a91.939 91.939 0 0 0-5.793-7.341.487.487 0 0 0-.587-.096C10.886 3.587 7.463 5.612 4.042 7.638a.483.483 0 0 0-.197.563 92.066 92.066 0 0 0 3.651 8.607 92.48 92.48 0 0 1 13.191-7.812zM15.308 30.003a91.98 91.98 0 0 0 5.795 7.342.486.486 0 0 0 .586.097c3.423-2.025 6.843-4.053 10.264-6.078a.486.486 0 0 0 .2-.562 93.162 93.162 0 0 0-3.651-8.61 92.581 92.581 0 0 1-13.194 7.811z" style="fill:#a7f501" transform="translate(0 -1.5)"/><path d="M20.687 8.996a92.535 92.535 0 0 0-13.192 7.813 92.639 92.639 0 0 0 7.813 13.193A92.424 92.424 0 0 0 28.5 22.189a92.172 92.172 0 0 0-7.813-13.193z" style="fill:#01cc00" transform="translate(0 -1.5)"/></svg>