<svg xmlns="http://www.w3.org/2000/svg" xml:space="preserve" viewBox="0 0 36 36"><path fill="#2ce0df" d="M7.5 15.3a92.4 92.4 0 0 0-7.34 5.8.49.49 0 0 0-.1.6l6.08 10.25a.48.48 0 0 0 .56.2 92.66 92.66 0 0 0 8.61-3.65A92.03 92.03 0 0 1 7.5 15.3zM29.3 3.85a92 92 0 0 0-8.61 3.66 92.57 92.57 0 0 1 7.81 13.19 91.22 91.22 0 0 0 7.34-5.8.48.48 0 0 0 .1-.58L29.86 4.04a.48.48 0 0 0-.56-.2Z"/><path fill="#a7f501" d="M20.69 7.5a91.94 91.94 0 0 0-5.8-7.34.49.49 0 0 0-.58-.1L4.04 6.14a.48.48 0 0 0-.2.56 92.07 92.07 0 0 0 3.66 8.6 92.48 92.48 0 0 1 13.19-7.8zm-5.38 21a91.98 91.98 0 0 0 5.8 7.34.49.49 0 0 0 .58.1l10.26-6.08a.49.49 0 0 0 .2-.56 93.16 93.16 0 0 0-3.65-8.6 92.58 92.58 0 0 1-13.2 7.8z"/><path fill="#01cc00" d="M20.69 7.5a92.53 92.53 0 0 0-13.2 7.8 92.64 92.64 0 0 0 7.82 13.2A92.42 92.42 0 0 0 28.5 20.7a92.17 92.17 0 0 0-7.81-13.2z"/></svg>