<svg xmlns="http://www.w3.org/2000/svg" fill="none" viewBox="0 0 74 74"><mask id="a" width="74" height="74" x="-.1" y="-.1" fill="#000" maskUnits="userSpaceOnUse"><path fill="#fff" d="M-.1-.1h74v74h-74z"/><path d="M37 71.1A34.1 34.1 0 1 1 37 3a34.1 34.1 0 0 1 0 68.2z" class="C"/></mask><path fill="#535353" d="M37 68.8A31.8 31.8 0 0 1 5.2 37H.6A36.4 36.4 0 0 0 37 73.4v-4.6ZM5.2 37A31.8 31.8 0 0 1 37 5.2V.6A36.4 36.4 0 0 0 .6 37h4.6ZM37 5.2A31.8 31.8 0 0 1 68.8 37h4.6A36.4 36.4 0 0 0 37 .6v4.6ZM68.8 37A31.8 31.8 0 0 1 37 68.8v4.6A36.4 36.4 0 0 0 73.4 37h-4.6Z" mask="url(#a)"/><path stroke="#535353" stroke-width="1.3" d="M37 73a36 36 0 1 1 0-72 36 36 0 0 1 0 72"/><mask id="b" width="72" height="73" x="1" y="1" mask-type="alpha" maskUnits="userSpaceOnUse"><path fill="#fff" d="M37 73a36 36 0 1 1 0-72 36 36 0 0 1 0 72z" class="C"/></mask><g stroke="#535353" stroke-width="1.6" mask="url(#b)"><path d="M72 45.2C72 56.2 56.5 65 37 65S2 56 2 45"/><path d="M1.8 28.4C.2 37.1 20.6 48 43.8 52.5c20.6 4 45.7-1.7 47.3-10.3"/><path d="M72 28.4c1.4 8.7-19 19.6-42 24.1-20.6 4.1-45.8-1.7-47.3-10.3"/><path d="M12 70.8c2.9 3.5 19.3-10.3 31.7-28.7 13.8-20.3 21.9-40.4 18-44.8"/><path d="M62.2 70.8c-3 3.5-19.3-10.3-31.8-28.7C16.7 21.8 8.6 1.7 12.4-2.7M69.7 52c0-25.2-11.6-36.3-32.7-46.8"/><path d="M4 52C4 26.8 16 15.7 36.5 5.2M17.3 19A40.2 40.2 0 0 1 37 12.4m19.8 6.7A40.2 40.2 0 0 0 37 12.4m44.5 7.9c-1.2-3-27-2.8-44.5 4.2"/><path d="M-7.3 20.3c1.1-3 26.8-2.8 44.4 4.2m-32.3 31c-1.5-2.9 15.4-22.2 32.2-31m32.2 31c1.5-2.9-15.4-22.2-32.2-31"/><path d="M35.9-12.5A68.2 68.2 0 0 1 60.4 40C58 60.1 41.7 75.4 28.9 74.2"/><path d="M38.4-12.5A68.2 68.2 0 0 0 13.9 40C16 60.1 32.5 75.4 45.4 74.2m-8.5-1.6V1"/></g></svg>