<svg xmlns="http://www.w3.org/2000/svg" width="97.887" height="97.887"><defs><linearGradient id="a" gradientUnits="userSpaceOnUse" x1="231.493" y1="5.96" x2="219.157" y2="27.326"><stop offset="0" stop-color="#e6ebef"/><stop offset=".076" stop-color="#bbcee5"/><stop offset=".185" stop-color="#85a9d8"/><stop offset=".28" stop-color="#5d8fcf"/><stop offset=".354" stop-color="#457ec9"/><stop offset=".4" stop-color="#3c78c7"/><stop offset=".9" stop-color="#2e5c99"/></linearGradient></defs><path fill="url(#a)" d="M235.014 9.296c-2.764 2.747-8.752 5.105-11.698 6.209-4.025 1.512-5.811 2.047-8.063 2.78-2.549.827-7.648 2.37-7.648 2.37 10.563 3.154 18.007 4.105 18.007 4.105s3.468-1.072 8.962-4.01c2.975-1.512 4.439-2.53 5.486-3.503.386-.349 1.383-1.387 1.631-2.715.016-.097.064-.351.064-.601 0 0 0-.176-.016-.329-.006-.176-.037-.294-.037-.294s-.059-.315-.137-.536c-.081-.221-.421-.903-.972-1.346-.368-.299-1.004-1.044-3.308-1.854-.783-.272-2.051-.523-2.051-.523z" transform="translate(-143.868 36.423)"/><path fill="#ce210f" d="M97.886 50.284s-.016-.294-.088-.543a2.092 2.092 0 00-.304-.657 5.65 5.65 0 00-.782-.92 6.954 6.954 0 00-.926-.722c-1.441-.944-3.301-1.476-4.947-1.701-2.551-.34-5.477-.28-5.754-.29-.941-.012-7.021.038-8.584.066-6.941.143-15.438.162-17.664.162-22.979.105-32.981-.39-44.113-2.622C5.254 41.176 0 39.389 0 39.389c8.353-.29 57.091-2.311 65.982-2.547 5.821-.164 9.954-.2 13.261-.008 1.696.095 3.274.239 5.256.576 1.777.304 3.391.82 4.331 1.169 1.98.733 3.649 1.793 4.474 2.879 0 0 .244.25.575.694.371.516.802 1.15.948 1.388 1.205 1.826 1.777 2.973 1.976 3.373.215.42.405.856.59 1.283.181.424.255.68.313.86.127.449.158.858.164.95z"/></svg>