<svg xmlns="http://www.w3.org/2000/svg" viewBox="0 0 365.4 365.4"><path fill="#fff" d="M316.3 182.7A133.7 133.7 0 0 0 182.6 49 133.7 133.7 0 0 0 49 182.7a133.7 133.7 0 0 0 133.7 133.7 133.7 133.7 0 0 0 133.6-133.7m-61.8 0a71.9 71.9 0 0 1-71.9 71.9 71.9 71.9 0 0 1-71.9-71.9 71.9 71.9 0 0 1 72-71.9 71.9 71.9 0 0 1 71.8 71.9"/><path fill="#e52629" d="M310.3 182.7A127.6 127.6 0 0 0 182.7 55.1 127.6 127.6 0 0 0 55.1 182.7a127.6 127.6 0 0 0 127.6 127.6 127.6 127.6 0 0 0 127.6-127.6m-49.4 0a78.2 78.2 0 0 1-78.2 78.2 78.2 78.2 0 0 1-78.3-78.2 78.2 78.2 0 0 1 78.3-78.2 78.2 78.2 0 0 1 78.2 78.2"/><path fill="#fff" d="M365.3 180.4v-55.2a2.4 2.4 0 0 0-2.4-2.4H236.8a26.8 26.8 0 0 0-11.6 2.7l-.3.1-45.8 23.2-14.2 7.2-45 22.2-4 1.8-.6.4a25.1 25.1 0 0 1-10 2.1H2.3a2.4 2.4 0 0 0-2.3 2.4v55.3a2.4 2.4 0 0 0 2.4 2.4h127a26.8 26.8 0 0 0 11.6-2.7l.3-.2 103.2-52.1 4.9-2.3.6-.3a25.1 25.1 0 0 1 10-2.1h103a2.4 2.4 0 0 0 2.4-2.5"/><path fill="#231f20" d="m242.7 182.3 4.9-2.3.7-.3a25.1 25.1 0 0 1 9.9-2.1h99.4a2.4 2.4 0 0 0 2.4-2.4v-44.7a2.4 2.4 0 0 0-2.4-2.4h-119a26.6 26.6 0 0 0-11.7 2.7l-.3.2-45.7 23.1-14.2 7.2-45 22.3-4 1.8-.7.3a25 25 0 0 1-9.9 2.1H7.7a2.4 2.4 0 0 0-2.4 2.5v44.6a2.4 2.4 0 0 0 2.4 2.4h119.9a26.6 26.6 0 0 0 11.6-2.7l.3-.1 103.2-52.2"/></svg>