<svg xmlns="http://www.w3.org/2000/svg" version="1.1" id="svg9734" width="365.401" height="365.401"><defs id="defs9686"><style id="style9684">.a{fill:#fff}</style></defs><g id="g10289" transform="translate(.03 49.016)"><path id="path9698" transform="translate(1569.31 -329.12)" d="M-1253 462.8a133.68 133.68 0 0 0-133.68-133.68 133.68 133.68 0 0 0-133.64 133.68 133.69 133.69 0 0 0 133.68 133.69A133.69 133.69 0 0 0-1253 462.8m-61.8 0a71.88 71.88 0 0 1-71.88 71.88 71.88 71.88 0 0 1-71.88-71.88 71.88 71.88 0 0 1 71.88-71.88 71.88 71.88 0 0 1 71.88 71.88" class="a" style="fill:#fff"/><path id="path9700" transform="translate(1569.31 -329.12)" d="M-1259 462.8a127.6 127.6 0 0 0-127.6-127.6 127.6 127.6 0 0 0-127.6 127.6 127.6 127.6 0 0 0 127.6 127.6A127.6 127.6 0 0 0-1259 462.8m-49.39 0a78.22 78.22 0 0 1-78.25 78.2 78.22 78.22 0 0 1-78.21-78.21 78.22 78.22 0 0 1 78.21-78.21 78.22 78.22 0 0 1 78.21 78.21" style="fill:#e52629"/><path id="path9702" transform="translate(1569.31 -329.12)" d="M-1204 460.54v-55.23a2.38 2.38 0 0 0-2.43-2.43h-126.07a26.76 26.76 0 0 0-11.64 2.69l-.3.16-45.75 23.13-14.21 7.23-44.91 22.25-4.07 1.8-.66.32a25.14 25.14 0 0 1-9.9 2.15h-102.97a2.38 2.38 0 0 0-2.43 2.43v55.23a2.38 2.38 0 0 0 2.43 2.43h126.93a26.77 26.77 0 0 0 11.68-2.7l.3-.16 103.19-52.16 4.88-2.25.66-.32a25.14 25.14 0 0 1 9.9-2.15h103a2.38 2.38 0 0 0 2.43-2.44" class="a" style="fill:#fff"/><path id="path9704" transform="translate(1569.31 -329.12)" d="m-1326.58 462.4 4.88-2.26.66-.31a25.14 25.14 0 0 1 9.9-2.15h99.43a2.38 2.38 0 0 0 2.43-2.43v-44.6a2.38 2.38 0 0 0-2.43-2.43h-119a26.63 26.63 0 0 0-11.65 2.69l-.3.15-45.75 23.14-14.21 7.23-44.91 22.24-4.07 1.81-.66.31a25 25 0 0 1-9.9 2.15h-99.43a2.38 2.38 0 0 0-2.43 2.43V515a2.38 2.38 0 0 0 2.43 2.43h119.85a26.63 26.63 0 0 0 11.65-2.69l.3-.15 103.19-52.16" style="fill:#231f20"/></g></svg>