<svg xmlns="http://www.w3.org/2000/svg" fill="none" class="css-uwwqev" width="37.312" height="37.312"><g fill="#00b287"><g opacity=".4"><path opacity=".4" d="M3.57 25.44l2.788 4.578a.42.42 0 01-.359.638H.422a.42.42 0 01-.36-.638l2.79-4.577a.42.42 0 01.718 0zM8.718 17.569l2.789 4.577a.42.42 0 01-.36.638H5.57a.42.42 0 01-.359-.638l2.786-4.577a.422.422 0 01.721 0z"/></g><path d="M34.462 25.28l2.788 4.577a.42.42 0 01-.359.639h-5.575a.42.42 0 01-.359-.64l2.789-4.576a.418.418 0 01.716 0zM24.163 25.28l2.79 4.577a.42.42 0 01-.36.639h-5.577a.42.42 0 01-.36-.64l2.79-4.576a.42.42 0 01.717 0zM13.865 25.28l2.786 4.577a.42.42 0 01-.36.639h-5.574a.42.42 0 01-.36-.64l2.79-4.576a.42.42 0 01.718 0zM19.015 14.73l2.789 4.577a.42.42 0 01-.36.639h-5.577a.42.42 0 01-.359-.639l2.789-4.577a.42.42 0 01.718 0zM24.163 6.858l2.79 4.577a.42.42 0 01-.36.639h-5.577a.42.42 0 01-.36-.639l2.79-4.577a.42.42 0 01.717 0zM29.311 14.73l2.789 4.577a.42.42 0 01-.36.639h-5.574a.42.42 0 01-.36-.639l2.79-4.577c.16-.27.55-.27.715 0z"/></g></svg>