<svg xmlns="http://www.w3.org/2000/svg" fill="none" class="css-uwwqev" width="37.312" height="37.312"><g fill="#00b287"><path opacity=".4" d="m3.57 25.44 2.788 4.578a.42.42 0 0 1-.359.638H.422a.42.42 0 0 1-.36-.638l2.79-4.577a.42.42 0 0 1 .718 0zm5.148-7.871 2.789 4.577a.42.42 0 0 1-.36.638H5.57a.42.42 0 0 1-.359-.638l2.786-4.577a.422.422 0 0 1 .721 0z"/><path d="m34.462 25.28 2.788 4.577a.42.42 0 0 1-.359.639h-5.575a.42.42 0 0 1-.359-.64l2.789-4.576a.418.418 0 0 1 .716 0zm-10.299 0 2.79 4.577a.42.42 0 0 1-.36.639h-5.577a.42.42 0 0 1-.36-.64l2.79-4.576a.42.42 0 0 1 .717 0zm-10.298 0 2.786 4.577a.42.42 0 0 1-.36.639h-5.574a.42.42 0 0 1-.36-.64l2.79-4.576a.42.42 0 0 1 .718 0zm5.15-10.55 2.789 4.577a.42.42 0 0 1-.36.639h-5.577a.42.42 0 0 1-.359-.639l2.789-4.577a.42.42 0 0 1 .718 0zm5.148-7.872 2.79 4.577a.42.42 0 0 1-.36.639h-5.577a.42.42 0 0 1-.36-.639l2.79-4.577a.42.42 0 0 1 .717 0zm5.148 7.872 2.789 4.577a.42.42 0 0 1-.36.639h-5.574a.42.42 0 0 1-.36-.639l2.79-4.577c.16-.27.55-.27.715 0z"/></g></svg>