<svg xmlns="http://www.w3.org/2000/svg" version="1.0" width="21.295" height="21.295" viewBox="0 0 15.971 15.971"><g fill="#2969b0"><path d="M6.965.042C3.504.522.81 3.049.128 6.452c-.17.848-.17 2.325 0 3.12.688 3.194 3.066 5.573 6.266 6.266.79.17 2.379.17 3.168 0 3.925-.848 6.586-4.277 6.4-8.245C15.79 3.956 13.183.911 9.589.148 8.997.02 7.536-.038 6.965.042z"/><path d="M8.074 2.863c.219.058.405.117.421.133.016.016-.048.33-.138.704a7.11 7.11 0 00-.155.693c.01.006.165.048.347.09l.325.076.17-.688c.123-.475.198-.683.251-.683.07 0 .774.165.806.187.01.01-.059.304-.15.656-.085.357-.16.677-.16.714 0 .043.208.17.47.283.634.288 1.082.715 1.21 1.168.214.725-.176 1.626-.794 1.85-.176.064-.262.155-.144.155.021 0 .16.101.298.224.502.443.624 1.003.384 1.765-.346 1.083-1.072 1.488-2.432 1.365a6.481 6.481 0 01-.597-.074c-.075-.027-.117.08-.261.677-.096.39-.181.72-.192.73-.021.027-.784-.16-.837-.207-.022-.022.032-.326.117-.683.09-.352.165-.667.165-.693 0-.048-.464-.192-.608-.197-.032 0-.128.309-.224.682a10.4 10.4 0 01-.192.704c-.016.016-.848-.176-.88-.208-.005-.005.07-.33.171-.725.101-.395.176-.72.17-.725-.005 0-.383-.096-.837-.208-.453-.112-.842-.22-.869-.24-.032-.027.32-.907.395-.987.016-.01.154.01.314.053.374.102.555.102.64 0 .07-.085 1.062-3.967 1.067-4.165 0-.197-.245-.378-.624-.47a2.426 2.426 0 01-.379-.106c-.032-.037.15-.88.203-.912.016-.01.41.075.875.192.464.118.858.203.869.187.016-.01.096-.31.181-.656.166-.667.198-.763.219-.763.01 0 .192.048.405.102z" fill="#fff"/><path d="M7.728 6.33l-.22.858.198.048c.736.197 1.355.224 1.653.07a.753.753 0 00.336-1.025c-.17-.315-.885-.672-1.557-.778l-.197-.032zM7.237 8.297c-.181.688-.421 1.69-.41 1.701.063.07.965.24 1.375.267.421.027.565.016.757-.059.288-.112.496-.336.544-.597.107-.576-.373-1.019-1.429-1.317-.778-.224-.778-.224-.837.005z"/></g></svg>