<svg xmlns="http://www.w3.org/2000/svg" width="73.563" height="73.563" viewBox="0 0 19.463 19.463"><defs><clipPath clipPathUnits="userSpaceOnUse" id="a"><path d="M312.208 312.039h66.893v50.609h-66.893z"/></clipPath><clipPath clipPathUnits="userSpaceOnUse" id="b"><path d="M315.486-167.719H649.36v767.604H315.486z"/></clipPath></defs><g clip-path="url(#a)" transform="matrix(.35278 0 0 -.35278 -111.748 128.507)"><g clip-path="url(#b)"><path d="M316.766 317.398h55.172v38.575h-55.172z" fill="#c61823"/><path d="M368.727 320.617h-48.752v32.148h48.752zm-49.692 33.088v-34.038h50.637v34.038" fill="#fff"/><path d="M338.918 333.069c-.006-2.044-.977-4.168-4.438-4.173-2.212.012-2.946.676-2.959 2.666v5.577h2.8c3.067-.001 4.595-2.061 4.597-4.07zm-4.57 4.682h-2.827v6.422c.664.028 1.709.078 2.271.078 3.232-.008 4.302-1.661 4.307-3.488-.005-2.034-1.226-3.003-3.751-3.012zm3.293-.168c1.735.36 2.946 1.755 2.948 3.26.002 1.283-.543 2.207-1.637 2.98-.972.701-3.014 1.038-5.345 1.04-.505 0-2.513-.028-3.968-.08-.767-.027-2.591-.132-3.33-.159h-.053V344.012h.979c1.829-.014 1.965-.736 1.983-2.244v-10.971c-.018-1.655-.374-2.096-2.537-2.114h-.664V328.071h9.731c4.286.007 5.759 2.967 5.765 5.08 0 2.059-1.437 3.678-3.872 4.432M356.659 344.709V344.04l.078-.007c2.2-.132 2.503-.474 2.532-3.033v-6.206c-.009-4.479-2.999-5.682-5.991-5.695-3.936.011-5.978 2.111-5.987 5.671v7.404c.019 1.513.564 1.84 2.02 1.859h.32V344.709h-7.009V344.036l.08-.003c1.814-.052 2.184-.23 2.21-1.913v-7.778c.005-3.849 2.661-6.788 7.781-6.794 5.819.006 7.96 3.591 7.966 6.928v7.192c.019 1.682.583 2.323 2.342 2.365l.084.002V344.709h-.086" fill="#fff"/></g></g></svg>