<svg xmlns="http://www.w3.org/2000/svg" width="32" height="32" class="buda-landing-header__logo"><path d="M21.204 21.358l-5.308 2.93a.405.405 0 01-.388.001L8.943 20.7a.795.795 0 01-.415-.696v-6.849c0-.293.163-.563.424-.701l3.334-1.77a1.001 1.001 0 011.473.877v4.345l7.442 4.06a.794.794 0 01.004 1.393m7.94-4.966l-9.188-5.05a.026.026 0 01-.014-.024V.798A.801.801 0 0018.78.085L2.91 8.033c-.54.271-.881.82-.881 1.422v14.389c0 .286.154.55.405.692l12.83 7.255a1.61 1.61 0 001.559.015l12.313-6.674a1.59 1.59 0 00.835-1.397v-5.95a1.59 1.59 0 00-.826-1.393" fill="#4f90ff" fill-rule="evenodd"/></svg>