<svg xmlns="http://www.w3.org/2000/svg" xmlns:xlink="http://www.w3.org/1999/xlink" width="200" height="200"><defs><path d="M80.926 2.111a15.76 15.76 0 0115.759 0l72.953 42.118a15.759 15.759 0 017.88 13.647v84.236c0 5.63-3.005 10.832-7.88 13.647l-72.953 42.118a15.759 15.759 0 01-15.76 0L7.974 155.76a15.758 15.758 0 01-7.88-13.647V57.876c0-5.63 3.004-10.832 7.88-13.647L80.926 2.111z" id="a"/></defs><g fill="none" fill-rule="evenodd"><g transform="translate(11.194 .006)"><mask id="b" fill="#fff"><use xlink:href="#a" width="100%" height="100%"/></mask><path d="M80.926 2.111a15.76 15.76 0 0115.759 0l72.953 42.118a15.759 15.759 0 017.88 13.647v84.236c0 5.63-3.005 10.832-7.88 13.647l-72.953 42.118a15.759 15.759 0 01-15.76 0L7.974 155.76a15.758 15.758 0 01-7.88-13.647V57.876c0-5.63 3.004-10.832 7.88-13.647L80.926 2.111z" fill="#0da7fe" mask="url(#b)"/><path fill="#1a67fd" mask="url(#b)" d="M88.805 202.426L.094 151.221 46.17 99.994z"/><path fill="#0da7fe" mask="url(#b)" d="M.094 151.221L46.17 99.994.715 48.42z"/><path fill="#05bbff" mask="url(#b)" d="M.715 48.42l45.456 51.574L88.805-2.438z"/><path fill="#00c9ff" mask="url(#b)" d="M88.805-2.438l88.712 153.648L46.171 99.994"/><path fill="#1a86fd" mask="url(#b)" d="M46.171 99.994L88.805 202.6l88.712-51.379z"/><path fill="#05bbff" mask="url(#b)" d="M88.805-2.438l88.712 153.648V48.778z"/></g><path fill-opacity=".5" fill="#1a67fd" d="M87.048 59.654l31.704 31.702 11.26 11.261-5.59 5.59-5.67 5.67-31.704 31.703-11.26-11.26 31.703-31.703-31.703-31.702z"/><path fill="#d6ffff" d="M130.012 97.563l-11.26-11.26-42.964 42.962 11.26 11.26z"/><path fill="#d6ffff" d="M87.048 54.6l-11.26 11.261 42.964 42.963 11.26-11.26z"/></g></svg>