<svg xmlns="http://www.w3.org/2000/svg" width="484.882" height="484.882" viewBox="0 0 128.292 128.292"><path d="M128.292 64.146L96.218 7.412H32.071L0 64.146l32.071 56.734h64.147z" fill="#f2561c"/><path d="M97.382 73.007c-.015 4.414-.648 8.387-1.892 11.928-1.27 3.563-3.02 6.604-5.29 9.128a23.073 23.073 0 01-8.037 5.843c-3.072 1.356-6.445 2.042-10.132 2.057a22.23 22.23 0 01-6.119-.81 20.068 20.068 0 01-4.64-1.929c-1.298-.784-2.364-1.539-3.215-2.319a16.16 16.16 0 01-2.49-2.748h-.218l.11 1.03a45.9 45.9 0 01.109 2.657v2.821H42.556V37.754c0-.811-.214-1.408-.61-1.805-.413-.398-1.012-.581-1.767-.581h-4.332V23.652h13.108c2.527-.016 4.406.579 5.599 1.774 1.19 1.19 1.785 3.074 1.765 5.603v16.055a67.634 67.634 0 01-.105 3.344l-.11 1.32h.215c.187-.274.386-.54.598-.795a16.014 16.014 0 011.88-1.914c.833-.765 1.892-1.52 3.21-2.28 1.304-.757 2.873-1.393 4.676-1.916a23.726 23.726 0 016.213-.796c3.753.016 7.134.72 10.127 2.114a21.955 21.955 0 017.728 5.93h.002c2.134 2.566 3.778 5.623 4.911 9.166 1.14 3.521 1.698 7.444 1.718 11.75" fill="#fff"/><path d="M82.393 80.527c.74-2.134 1.104-4.556 1.12-7.306-.016-3.519-.6-6.58-1.754-9.182-1.153-2.585-2.762-4.592-4.82-6.015-2.06-1.414-4.457-2.138-7.185-2.156-1.807 0-3.536.327-5.18.995-1.685.71-3.2 1.782-4.442 3.145-1.303 1.414-2.33 3.22-3.09 5.425-.755 2.207-1.135 4.843-1.155 7.897a23.43 23.43 0 00.85 6.274 17.684 17.684 0 002.582 5.458 12.794 12.794 0 004.3 3.856c1.714.939 3.734 1.426 6.026 1.443a12.75 12.75 0 005.328-1.139 12.993 12.993 0 004.406-3.329c1.28-1.463 2.29-3.248 3.014-5.366" fill="#f2561c"/></svg>