<svg xmlns="http://www.w3.org/2000/svg" data-name="Layer 1" width="336.047" height="336.047"><g transform="translate(45.523 -4.473)" fill="#4949e4"><circle cx="122.5" cy="223.8" r="13.92"/><path d="M122.5 340.52A116.85 116.85 0 0 1 5.78 223.8v-57.88a8.69 8.69 0 0 1 8.68-8.69h41.4l-.14-134-32.58 20.05v76.3a8.68 8.68 0 0 1-17.36 0V42.29A15.67 15.67 0 0 1 13.21 29L49.3 6.79a15.6 15.6 0 0 1 23.78 13.29l.15 137.15h49.27a66.57 66.57 0 1 1-66.56 66.57l-.06-49.2H23.14v49.2a99.36 99.36 0 1 0 99.36-99.36h-15.06a8.68 8.68 0 0 1 0-17.36h15.06a116.72 116.72 0 0 1 0 233.44zM73.25 174.6v49.19a49.2 49.2 0 1 0 49.2-49.19z"/></g></svg>