<svg xmlns="http://www.w3.org/2000/svg" viewBox="0 0 233.3 336" fill="#4949e4"><g transform="translate(-5.8 -4.5)"><circle cx="122.5" cy="223.8" r="13.9"/><path d="M122.5 340.5A116.8 116.8 0 0 1 5.8 223.8v-57.9a8.7 8.7 0 0 1 8.7-8.7h41.4l-.2-134-32.6 20v76.4a8.7 8.7 0 0 1-17.3 0V42.3A15.7 15.7 0 0 1 13.2 29L49.3 6.8A15.6 15.6 0 0 1 73.1 20l.1 137.1h49.3a66.6 66.6 0 1 1-66.6 66.6v-49.2H23v49.2a99.4 99.4 0 1 0 99.4-99.4h-15a8.7 8.7 0 0 1 0-17.3h15a116.7 116.7 0 0 1 0 233.4zM73.2 174.6v49.2a49.2 49.2 0 1 0 49.3-49.2z"/></g></svg>
