<svg xmlns="http://www.w3.org/2000/svg" xmlns:xlink="http://www.w3.org/1999/xlink" width="120.624" height="120.624"><defs><linearGradient id="d"><stop offset="0" stop-color="#e4bc98"/><stop offset="1" stop-color="#f6daaa" stop-opacity="0"/></linearGradient><linearGradient id="c"><stop offset="0" stop-color="#363433"/><stop offset="1" stop-color="#363433" stop-opacity="0"/></linearGradient><linearGradient id="e"><stop offset="0" stop-color="#fff"/><stop offset="1" stop-color="#fff" stop-opacity="0"/></linearGradient><linearGradient id="b"><stop offset="0" stop-color="#f6daaa"/><stop offset="1" stop-color="#e4bc98"/></linearGradient><linearGradient id="a"><stop offset="0" stop-color="#8a7ab9"/><stop offset="1" stop-color="#b888b6"/></linearGradient><linearGradient x1="148" y1="33" x2="148" y2="122" id="f" xlink:href="#a" gradientUnits="userSpaceOnUse" gradientTransform="translate(-56)"/><linearGradient x1="41.976" y1="88.198" x2="34.958" y2="96.024" id="g" xlink:href="#b" gradientUnits="userSpaceOnUse"/><linearGradient x1="53.223" y1="51.558" x2="50.293" y2="51.232" id="i" xlink:href="#c" gradientUnits="userSpaceOnUse"/><radialGradient cx="31.249" cy="66.879" r="9.79" fx="31.249" fy="66.879" id="j" xlink:href="#d" gradientUnits="userSpaceOnUse" gradientTransform="matrix(.58654 .29353 -1.194 2.38586 93.617 -112.223)"/><radialGradient cx="79.979" cy="69.121" r="5.297" fx="79.979" fy="69.121" id="h" xlink:href="#e" gradientUnits="userSpaceOnUse" gradientTransform="matrix(1.57658 0 0 1.57658 -45.978 -40.844)"/></defs><g transform="translate(12.812 -1.376)"><rect width="88.011" height="88.011" rx="1.978" ry="1.978" x="3.494" y="33.494" fill="url(#f)" stroke="#625874" stroke-width=".989"/><path d="M34.938 94.75c-22.391 0-24.332 21.921-24.5 26.25h47.187c.092-5.027-.8-26.25-22.688-26.25z" style="marker:none" color="#000" overflow="visible" fill="#363433"/><path d="M74.748 58.13c.205 12.13-14.843-5.276-12.91-12.58 1.274-1.25 2.557-2.335 4.758-2.477 1.81.17 6.664 8.116 8.152 15.057z" style="marker:none" color="#000" overflow="visible" fill="#f6daaa" stroke="#363433" stroke-width="1.3" stroke-linecap="square"/><path d="M42.79 47.098c8.404-21.502 4.65-41.922-2.926-43.929" style="marker:none" color="#000" overflow="visible" fill="none" stroke="#6d6e6e" stroke-width=".5" stroke-linecap="square"/><path d="M42.274 46.71c-12.02 1.503-14.098 11.979-13.076 15.79 3.38 12.006 4.965 20.162 5.073 33.861 2.048 2.169 7.758 4.619 11.28 1.097-1.08-8.155 5.719-10.49 16.022-9.733 12.256.9 28.072-2.002 28.072-13.639-.965-7.333-9.432-12.77-22.577-20.325" style="marker:none" color="#000" overflow="visible" fill="url(#g)" stroke="#363433" stroke-width="1.3" stroke-linecap="square"/><path d="M45.505 45.132c-.449-9.952 22.134-28.29 29.962-19.007" style="marker:none" color="#000" overflow="visible" fill="none" stroke="#6d6e6e" stroke-width=".5" stroke-linecap="square"/><path d="M37.209 52.436c12.432-15.31 23.78-17.228 32.177 8.144" style="marker:none" color="#000" overflow="visible" fill="#f6daaa"/><path d="M77.188 60.313a8.333 8.333 0 00-5.407 7.812c0 4.612 3.7 8.344 8.313 8.344 3.783 0 6.974-2.52 8-5.969-1.114-2.127-2.928-4.162-5.406-6.219-1.575-1.307-3.43-2.615-5.5-3.969z" fill="url(#h)"/><path d="M43.125 84.938c-.501 0-1.08.918-.188.843 4.503-.375 8.846-.282 12.594 2.344l.344-.063.469-.593.1-.158c-4.102-2.614-8.628-2.847-13.319-2.374z" style="line-height:normal;-inkscape-font-specification:ALPHA-Demo;text-indent:0;text-align:start;text-decoration-line:none;text-transform:none;marker:none" color="#000" font-weight="400" font-family="ALPHA-Demo" overflow="visible" fill="#363433"/><path d="M48.501 66.246c-.91-.91-6.1-17.076 2.81-19.616 5.708-1.627 12.546 10.92 12.546 16.152 0 5.23-10.676 7.737-15.356 3.464z" style="marker:none" color="#000" overflow="visible" fill="#fff" stroke="url(#i)" stroke-width=".75" stroke-linecap="square"/><path d="M57.086 54.096a4.015 5.708 9.5 11-7.892-1.48 4.015 5.708 9.5 117.892 1.48z" fill="#343231"/><path d="M53.895 51.972a1.215 2.035 25.79 11-2.188-1.057 1.215 2.035 25.79 112.188 1.057zM52.346 56.612a.547.727-75.395 101.241-.42.547.727-75.395 10-1.24.42z" fill="#fff"/><path d="M42.875 47.281l-.313.032c-.554.474-.585.295-.53.062-.107.015-.209.046-.313.063-.108.122-.232.253-.407.468l-.312.375-.313.125.313-.375c.25-.308.34-.445.375-.531-.084.015-.167.016-.25.031-.31.209-.573.433-.219.063-4.937.989-7.85 3.609-9.5 6.468-1.797 3.116-2.03 6.587-1.593 8.25.001.008-.002.025 0 .032 3.349 11.902 4.96 20.145 5.093 33.656.936.93 2.687 2.008 4.594 2.406 1.258.263 2.523.242 3.688-.219.695-.71 1.18-1.763 1.687-2.937.19-3.038 1.668-5.263 4.125-6.563.012-.006.02-.025.031-.03z" style="marker:none" color="#000" overflow="visible" fill="url(#j)"/><path d="M41.033 2.943a1.565 1.565 0 11-3.13 0 1.565 1.565 0 113.13 0zM77.05 26.181a1.565 1.565 0 11-3.13 0 1.565 1.565 0 113.13 0z" fill="#413f3e"/><path d="M33.875 95.281c-11.576-.314-19.044 11.386-18.21 11.806 1.387.306 2.872-2.986 8.693-7.893 2.64-2.224 9.623-2.976 9.52-3.757-.001-.053 0-.103-.003-.156z" fill="#fff"/><path d="M33.969 98.594c-12.305 5.4-16.01 14-16.125 22.406h38.468c-.003-6.523-.38-15.158-9.812-21.906-2.233 1.965-5.12 2.284-7.531 1.781-1.947-.406-3.68-1.256-5-2.281z" style="marker:none" color="#000" overflow="visible" fill="#e67e71"/><path d="M69.39 60.594c-1.626-6.455-3.93-11.22-6.421-14.438-2.492-3.217-5.22-4.995-8.094-5.406-2.874-.411-5.835.52-8.844 2.5-3.008 1.98-6.809 6.288-8.828 9.188 3.338-3.319 6.482-6.45 9.36-8.344 2.877-1.894 5.62-2.711 8.187-2.344 2.567.367 5.02 1.92 7.406 5s4.99 7.597 7.235 13.844z" style="line-height:normal;-inkscape-font-specification:ALPHA-Demo;text-indent:0;text-align:start;text-decoration-line:none;text-transform:none;marker:none" color="#000" font-weight="400" font-family="ALPHA-Demo" overflow="visible" fill="#363433"/></g></svg>