<svg xmlns="http://www.w3.org/2000/svg" viewBox="0 0 29.1 29.1"><rect width="29.1" height="29.1" fill="#023e84" rx="5.29" ry="5.29"/><path fill="#fff" d="M8.74 9.9H6.12c-.2 0-.28.09-.28.26v2.65c0 .18.09.27.28.27h2.62c.19 0 .28-.09.28-.27v-2.65a.25.25 0 0 0-.28-.26zm13.16 1.36A4.13 4.13 0 0 0 19.95 10 9.88 9.88 0 0 0 17 9.62a10.31 10.31 0 0 0-1.54.11 8.28 8.28 0 0 1-.99.12q-.22 0-.22-.2V4.09a.24.24 0 0 0-.27-.28h-2.1c-.18 0-.27.09-.27.37V24.5c0 .04.09.13.25.19a18.48 18.48 0 0 0 2.06.43 17.82 17.82 0 0 0 2.56.17 9.73 9.73 0 0 0 3.35-.5 4.37 4.37 0 0 0 2.07-1.55 6.46 6.46 0 0 0 1.06-2.64 20.28 20.28 0 0 0 .3-3.78 14.49 14.49 0 0 0-.32-3.32 5.24 5.24 0 0 0-1.06-2.25zm-1.51 8.8a4.51 4.51 0 0 1-.55 1.88 2.3 2.3 0 0 1-1.23 1 6.79 6.79 0 0 1-2.16.28c-.3 0-.67-.02-1.07-.04a3.9 3.9 0 0 1-.94-.16.28.28 0 0 1-.2-.31V12.39a.38.38 0 0 1 .23-.4 7.81 7.81 0 0 1 .88-.17 8.95 8.95 0 0 1 1.29-.09 6.66 6.66 0 0 1 1.87.23 2.17 2.17 0 0 1 1.2.84 4.06 4.06 0 0 1 .61 1.68 15.67 15.67 0 0 1 .18 2.65 26.35 26.35 0 0 1-.11 2.93zM8.74 21.38H6.12c-.2 0-.28.08-.28.26v2.65c0 .18.09.26.28.26h2.62c.19 0 .28-.08.28-.26v-2.65a.25.25 0 0 0-.28-.26z"/></svg>
