<svg xmlns="http://www.w3.org/2000/svg" height="32.002" width="32.002" viewBox="0 0 299.913 299.904"><path d="M37.36 101.695l.3 101.8 2.6 10.5c3.1 12.4 7.6 24 12.5 32.4 15.5 26.5 42.2 45 74.3 51.6 14.4 3 36.7 2.4 51.2-1.3 31.8-8.3 59.1-30.2 73.7-59.4 9-18 12.9-42.6 10.1-64.3-4.6-35.7-26.8-67.5-59.1-84.9-15.9-8.6-30.8-12.1-52-12.1-8.1 0-16.1.3-17.8.6l-3.1.6v44.5c0 24.5.3 44.3.7 44.1 13.6-6.8 14.2-7 21.6-6.6 4.3.2 8.8 1.2 11.2 2.3 6.1 3 12 9.4 14.4 15.9 8.4 22.4-7.9 44.1-31.9 42.4-13-1-21.6-8.5-25.7-22.3-1.6-5.5-1.8-13.7-2.1-101.8l-.3-95.7h-81z" fill="#094303"/></svg>