<svg xmlns="http://www.w3.org/2000/svg" viewBox="20 76.2 139.746 139.746" aria-labelledby="logo-title-Bulb-homepage" height="139.746" width="139.746" class="sc-AxhCb hshtuk"><path style="line-height:normal;font-variant-ligatures:normal;font-variant-position:normal;font-variant-caps:normal;font-variant-numeric:normal;font-variant-alternates:normal;font-variant-east-asian:normal;font-feature-settings:normal;font-variation-settings:normal;text-indent:0;text-align:start;text-decoration-line:none;text-decoration-style:solid;text-decoration-color:#000;text-transform:none;text-orientation:mixed;white-space:normal;shape-padding:0;shape-margin:0;inline-size:0;isolation:auto;mix-blend-mode:normal;solid-color:#000;solid-opacity:1" d="M22 141.277c11.1-10.9 16.3-20.3 14.8-23.1 0 0-7.6 6.4-11.1 20.3-3.6 14.6-1.4 25.5 8.3 27.3 7.5 1.4 15-5.3 16.6-14.3 1.9-9.8-3.6-15.1-10.8-13.8-7.4 1.3-10.1 10-10.1 10s10.5-11.2 23.8-11.2c10.7 0 11.4 2 11.4 2-4.3 11.2-7.6 22.8-1 26.5 7.5 4.2 16.5-7.2 19.3-12.8 2.8-5.6 5.3-15.1 3.5-13.5-1.8 1.6-4 9.2-4.2 13.1-.2 4-.6 12.2 7 13.2 8.3 1.1 18.8-15.2 23.5-26.3 4.5-10.9 5.4-20.4 2.7-20.4s-8.5 8.2-11.7 20.1c-6.1 23.3 4.5 30.2 11.6 26.7 6.9-3.7 19.8-15.4 23.8-27.4 3.4-10.3 5-19.4 2.2-19.4-3.4 0-8.9 10.1-11.7 20.4-2.8 10.3-1.1 26.2 11.2 27.2 7 .6 13.6-5.7 15.7-12.5 2.6-8.3-.3-14.9-7.6-14.9-6.8 0-9.9 7.3-9.9 7.3" color="#000" font-weight="400" font-family="sans-serif" overflow="visible" fill="none" stroke="#dc258d" stroke-width="4" stroke-linecap="round" stroke-linejoin="round"/></svg>