<svg xmlns="http://www.w3.org/2000/svg" viewBox="0 0 192.5 168.4"><path d="m34 132.4 14.3-42.8L0 55.4v113zM0 55.4h59.7L78.1.1H0zM96.7 55.4H107l51-53.9c-2.6-.6-5.4-1.1-8.2-1.3V.1H78.2z" fill="#a96427"/><path d="M177.7 95.2c-2.7-2.4-5.4-4.3-8.1-5.7-3-1.5-7.1-3.1-12.3-4.8v-.4c.5-.1.8-.3 1.3-.4 2.8-.7 5.5-1.7 8.1-2.9 1.2-.5 2.3-1 3.1-1.4 2.6-1.3 5.2-3.1 7.9-5.5 9.4-7.8 14.1-18.2 14.1-31.1v-.4c0-6-1.3-11.6-3.6-16.8-2.2-4.9-5.3-9.3-9.3-13.2l-.6-.6c-.3-.3-.7-.5-1-.8-.9-.8-1.8-1.5-2.7-2.2-.6-.4-1.1-.8-1.7-1.2-2.1-1.4-4.3-2.6-6.6-3.6L10.9 168.4h138.9c5.8 0 11.2-1.1 16.1-3.2 5-1.9 9.6-4.9 13.7-8.9 4-3.8 7.2-8.1 9.5-13.1 2.2-4.8 3.4-10.1 3.4-15.7 0-13-4.9-23.8-14.8-32.3z" fill="#d98429"/></svg>
