<svg xmlns="http://www.w3.org/2000/svg" width="576.024" height="576.024" viewBox="0 0 152.406 152.406"><path d="M113.506 70.98l-.264.53.264-.53m6.615 19.58l-.265.264.265-.264m-.265.529c0 9.731-.005 19.238 3.176 28.575.612 1.794 4.597 7.682 1.322 7.937.53 1.371 2.368 8.29-1.548 6.922-.902-.315-.826-1.383-.833-2.16-.027-3.13-3.01-5.343-2.87-8.201.072-1.486 1.65-2.699 1.16-4.233-.928-2.905-5.277-4.714-7.085-7.144-1.52-2.046-3.96-6.848-3.365-9.515.366-1.635 3.538-3.194 4.728-4.32 2.428-2.295 3.27-5.394 5.315-7.861M43.921 105.64l.264.264-.264-.264m74.612-16.404h-.264c-.048-2.25-1.622-3.966-1.771-6.086-.16-2.275 1.819-4.716 2.83-6.614-1.738 1.519-5.2 4.528-5.142 7.133.033 1.507 2.451 2.598 2.843 4.244 1.232 5.17-4.37 10.018-8.55 11.641.784-2.864 1.85-5.13 1.542-8.202-.325-3.251-2.097-5.897-1.761-9.26.414-4.147 2.573-7.334 4.982-10.583-3.836 2.137-6.222 5.701-7.585 9.79-.333 1-1.143 2.61-.901 3.676.25 1.097 1.936 1.674 2.524 2.677 1.462 2.497 1.54 6.806.727 9.521-1.597 5.335-8.264 8.204-11.087 12.965-1.922 3.241-2.666 6.852-2.083 10.583.307 1.967 1.31 4.08 1.147 6.085-.15 1.87-1.655 3.092-2.287 4.763-.781 2.063-.568 4.223-.3 6.35-2.52-.389-2.645-2.937-2.91-5.027l-2.91 2.646c.465-2.506.276-4.998 1.29-7.409 1.15-2.734 3.35-4.963 3.92-7.937.925-4.835-.612-10.066.486-14.817.975-4.217 6.147-6.465 3.312-11.377a6.544 6.544 0 00-1.6-1.852c.976 2.606.966 5.79-.564 8.202-1.51 2.38-3.793 3.544-3.933 6.615-5.999-.758-11.931-3.359-17.992-3.435-4.395-.055-8.927 1.613-12.965 3.17.272-2.106.341-5.28 1.36-7.143 1.494-2.734 6.086-4.347 8.959-5.028v-.264c-6.053.26-10.616 2.678-14.817 6.879 2.53-1.272 4.04-.243 3.625 2.646-.378 2.628-1.73 5.147-3.44 7.143-6.018 7.03-16.667 7.482-22.625 14.288-3.872 4.423-1.98 10.562-4.283 15.346-2.027-.696-4.627-4.08-3.772-6.35.782-2.074 2.954-3.353 3.749-5.556.703-1.954.456-4.86 1.634-6.555 1.204-1.73 3.868-.202 5.533-1.036 2.356-1.18 2.422-4.02 4.306-5.412 1.477-1.09 3.171.252 4.665-.35 3.889-1.569 1.659-7.4-.24-9.402.653 1.694 1.324 3.479.703 5.292-.689 2.012-3.594 3.345-5.409 1.93-1.967-1.533-1.644-4.764-1.644-6.957 0-7.216 2.904-14.105 7.525-19.58 8.865-10.502 23.355-10.2 34.015-17.554 5.164-3.562 8.111-9.027 11.391-14.195 3.067-4.832 6.537-9.488 10.349-13.759 1.213-1.36 2.885-4.072 4.718-4.575 1.016-.278 2.229.526 3.175.817 2.772.851 10.585.217 8.155-4.708-.434-.88-1.243-1.581-1.805-2.381 2.506.465 5.497.453 7.938-.361 2.07-.69 3.486-2.217 5.82-1.975 3.184.331 5.997 2.905 7.612 5.51.796 1.284 1.194 2.898 2.454 3.833 3.286 2.44 10.35-2.766 11.755 3.311.177.768.164 1.598.13 2.382-.048 1.071-.27 2.264-.956 3.125-2.316 2.903-8.196 2.169-11.47 3.15-5.216 1.566-9.526 6.26-12.088 10.922-2 3.64-3.963 7.746-4.504 11.907-.79 6.075.077 11.75-3.516 17.198m-50.8 16.933c-4.078 7.056-13.553 7.636-19.021 13.013-3.163 3.112-3.733 10.327-3.733 14.504-1.09-.31-1.64-.945-2.303-1.853-.713-.977-1.856-2.186-1.99-3.439-.258-2.39 3.057-4.747 3.902-6.88.35-.883.11-2.243.663-2.99 1.395-1.881 5.68-3.102 7.666-4.53 4.934-3.55 8.185-7.687 14.816-7.825M114.83 8.01c-7.012 3.108-18.108 7.497-17.152 17.198.215 2.191 1.179 4.315 2.465 6.085.536.737 1.949 1.892 1.669 2.91-.304 1.108-1.812 2.098-2.569 2.91-1.881 2.02-3.687 4.14-5.343 6.35-4.92 6.571-7.369 14.873-12.53 21.167-4.55 5.55-12.375 7.192-18.927 9.108-6.26 1.831-12.108 4.415-16.934 8.908-8.823 8.216-15.93 19.455-29.104 20.356-4.231.289-8.778-.11-11.857-3.457-.946-1.028-1.672-2.329-1.986-3.694C.008 84.73 13.294 84.126 18.737 78.365c2.851-3.019 2.62-11.355-.745-14 0 .5.193 3.341-.96 2.668-.848-.496-.83-2.103-1.1-2.932-.6-1.836-1.862-2.811-3.761-2.91.5.77 1.274 1.606 1.315 2.57.086 1.986-2.137 1.55-3.143.728-1.985-1.62-2.627-4.052-2.935-6.473h-.264c-.592 4.678.003 7.667 3.44 11.112h-3.44c1.647 1.887 4.602 1.323 6.879 1.323l-3.175 2.117v.264c2.519-.051 8.847-2.91 8.438 1.853-.253 2.94-3.45 4.618-5.792 5.752-4.636 2.245-10.231 3.896-12.467 9.064-3.543 8.187 2.57 15.544 10.88 16.116 10.378.715 16.8-4.924 25.4-9.501-.202 4.694-1.488 9.28-1.014 14.023.173 1.73 2 4.593 1.17 6.109-.872 1.59-3.027 3.189-4.92 3.004-1.05-.103-2.843-1.266-3.775-.44-.874.774-.773 2.698-.912 3.762-.36 2.768-.561 5.749-2.02 8.202-.764 1.286-3.137 2.518-3.347 3.972-.181 1.259 1.334 2.29 1.655 3.437.393 1.402-1.108 2.817-.323 4.177 1.5 2.596 9.014 2.58 10.99.678.998-.963.449-2.292-.21-3.268-1.461-2.164-3.69-3.53-3.885-6.35-.539-7.817 6.761-11.361 12.94-13.758.609 3.891-3.22 5.164-4.475 8.202-.583 1.413 1.393 2.321 1.419 3.704.021 1.144-1.069 2.543-.22 3.593 1.247 1.545 9.155 1.828 9.908-.183.878-2.34-2.375-4.536-3.305-6.32-.885-1.699-.04-3.64.561-5.292 2.672-7.326 11.847-8.494 17.544-12.67 1.723-1.263 4.217-4.937 6.354-5.031 6.251-.277 13.08 3.15 19.31 3.943 0 4.208.831 9.442-.38 13.493-.643 2.146-2.126 3.927-2.785 6.086-.663 2.174-.389 4.433-1.001 6.614-.388 1.381-1.782 3.075-1.732 4.496.12 3.389 8.447 3.497 9.948 1.267 1.18-1.754-1.427-5.686-1.015-7.88.459-2.45 2.897-3.69 3.44-6.085.578-2.555-.611-5.532-.344-8.202.717-7.17 5.212-11.4 11.067-14.817 1.18 4.16 3.081 7.873 5.974 11.103 1.305 1.456 4.004 2.767 4.802 4.532.74 1.636-1.214 3.556-1.067 5.268.198 2.313 3.187 3.06 3.742 5.246.487 1.923-1.453 4.358-.478 6.096 1.058 1.881 5.837 1.175 7.665 1.082.808-.042 1.9-.182 2.196-1.082.59-1.786-1.914-5.488-2.645-7.11-2.456-5.447-4.372-11.135-5.803-16.932-2.602-10.547-.924-20.449.582-30.957.62-4.322.31-8.703 1.478-12.964 1.633-5.958 7.55-15.074 13.187-17.784 4.132-1.986 13.121-1.299 14.571-6.558.262-.946.267-1.936.243-2.91-.23-9.394-12.172-1.344-14.55-8.202 6.387-.957 13.96-8.468 10.874-15.346-2.377-5.297-9.805-8.685-15.371-8.731v.264c5.965 2.031 11.847 7.475 8.227 14.023-1.515 2.742-4.372 4.093-6.375 6.35h-.264c-1.62-1.987-5.298-3.915-7.938-3.299-1.428.334-2.491 1.467-3.969 1.662-2.441.322-4.928-.538-7.408-.092-1.524.274-3.241 1.52-4.763 1.417-6.346-.431-7.622-7.953-5.06-12.388 1.378-2.383 3.464-4.418 5.59-6.137 1.029-.832 3.081-1.818 3.44-3.123"/><path d="M143.669 14.095c4.671 4.092 5.707 10.276.79 14.77-1.881 1.72-7.088 5.603-8.463 1.899 4.21-2.578 9.054-5.577 8.995-11.113-.02-1.86-1.602-3.874-1.322-5.556M105.833 14.095c-2.371 4.276-5.036 9.053-1.266 13.494 2.582 3.042 5.28 2.632 8.371 4.348.677.375.985 1.211.672 1.941-1.186 2.77-7.099-.345-8.57-1.277-1.985-1.256-3.916-2.768-4.825-5.012-1.874-4.626 1.214-11.44 5.618-13.494" fill="#fdd128"/><path d="M143.669 14.095c4.671 4.092 5.707 10.276.79 14.77-1.881 1.72-7.088 5.603-8.463 1.899 4.21-2.578 9.054-5.577 8.995-11.113-.02-1.86-1.602-3.874-1.322-5.556M105.833 14.095c-2.371 4.276-5.036 9.053-1.266 13.494 2.582 3.042 5.28 2.632 8.371 4.348.677.375.985 1.211.672 1.941-1.186 2.77-7.099-.345-8.57-1.277-1.985-1.256-3.916-2.768-4.825-5.012-1.874-4.626 1.214-11.44 5.618-13.494" fill="#fdd128"/></svg>