<svg xmlns="http://www.w3.org/2000/svg" viewBox="0 0 90 90"><path fill="#fff" opacity="0" d="M0 0h90v90H0z"/><g fill="#7c999d" fill-rule="nonzero"><path d="M36.369 0L8.336 28.033H0L28.033 0h8.336zM90 61.967L61.967 90h-8.336l28.033-28.033H90z"/><path d="M90 32.459v29.508H28.033V0h29.508v5.902H33.934v50.164h50.164V32.459z"/></g><path fill="#000" fill-rule="nonzero" d="M0 90V61.967h5.902l-.001 17.77 16.478-16.293 4.173 4.173-16.293 16.481h17.774V90H0z"/><path fill="#f7b500" d="M36.885 14.754h38.361v38.361l-19.18 19.18H17.705V33.934z"/><g fill-rule="nonzero"><path fill="#7c999d" d="M0 28.033h61.967V90H32.459v-5.902h23.607V33.934H5.902v23.607H0z"/><path fill="#000" d="M90 0v28.033h-5.902V10.138L67.869 26.557h-4.426v-4.426l16.413-16.23-17.888.001V0H90z"/></g></svg>