<svg viewBox="0 0 90 90" xmlns="http://www.w3.org/2000/svg"><defs><linearGradient id="a" x1="-33.94%" x2="153.69%" y1="50.041%" y2="50.041%"><stop stop-color="#FBAA19" offset="0"/><stop stop-color="#EF3E23" offset="1"/></linearGradient><linearGradient id="b" x1="32.891%" x2="67.113%" y1="96.667%" y2="3.111%"><stop stop-color="#F78D1E" offset="0"/><stop stop-color="#F37121" offset="1"/></linearGradient><linearGradient id="c" x1="14.403%" x2="63.227%" y1="75.177%" y2="12.448%"><stop stop-color="#FEBE2D" offset="0"/><stop stop-color="#F04E23" offset="1"/></linearGradient><linearGradient id="d" x1="69.88%" x2="33.101%" y1="3.213%" y2="81.581%"><stop stop-color="#EA4425" offset="0"/><stop stop-color="#FDBB27" offset="1"/></linearGradient><linearGradient id="e" x1="-40.127%" x2="144.71%" y1="49.989%" y2="49.989%"><stop stop-color="#F47920" offset="0"/><stop stop-color="#E93825" offset="1"/></linearGradient><linearGradient id="f" x1="-143.23%" x2="243.36%" y1="49.917%" y2="49.917%"><stop stop-color="#FDCA0B" offset="0"/><stop stop-color="#F5841F" offset="1"/></linearGradient><linearGradient id="g" x1="39.677%" x2="63.887%" y1="-25.013%" y2="131.61%"><stop stop-color="#E73C25" offset="0"/><stop stop-color="#FAA21B" offset="1"/></linearGradient><linearGradient id="h" x1="-562.99%" x2="562.9%" y1="49.998%" y2="49.998%"><stop stop-color="#FDBA12" offset="0"/><stop stop-color="#F7921E" offset="1"/></linearGradient><linearGradient id="i" x1="1.983%" x2="106.17%" y1="41.501%" y2="60.044%"><stop stop-color="#FEBE2D" offset="0"/><stop stop-color="#F04E23" offset="1"/></linearGradient></defs><g fill="none" fill-rule="evenodd"><path d="M44.056 14.371l20.706 11.245L45.629.001a14.266 14.266 0 00-1.573 14.371z" fill="url(#a)" transform="translate(5)"/><path d="M34.699 56.077a4.72 4.72 0 110 9.44 4.72 4.72 0 010-9.44z" fill="url(#b)" transform="translate(5)"/><path d="M20.287 3.755l57.986 31.47a2.811 2.811 0 010 5.055A45.085 45.085 0 0164.07 45.82L52.007 70.574s-3.818 8.685-14.329 5.35c4.406-4.406 9.734-8.392 9.734-15.169 0-7.033-5.701-12.734-12.734-12.734s-12.734 5.702-12.734 12.734c0 8.853 8.728 12.587 13.573 18.734a7.972 7.972 0 01-.692 10.05C28.804 83.58 17.161 73.53 12.377 66.943a19.09 19.09 0 01-4.09-11.643 21.922 21.922 0 0115.482-19.846 25.28 25.28 0 018.14-.986 26.391 26.391 0 0110.909 3.294c5.14 3.021 7.636 2.224 11.182-.755 2.098-1.72 4.385-7.322.84-8.623a25.469 25.469 0 00-3.546-.88c-6.588-1.28-18.105-2.497-22.343-4.91-6.735-3.713-11.266-11.37-8.665-18.839z" fill="url(#c)" transform="translate(5)"/><path d="M47.308 60.818c2.685-14.119-11.643-27.587-22.636-25.573l.734-.168c-.587.126-1.154.273-1.699.44A21.924 21.924 0 008.224 55.365a19.09 19.09 0 004.196 11.643c4.783 6.587 16.427 16.636 22.448 22.594a7.972 7.972 0 00.692-10.05c-4.95-6.125-13.678-9.88-13.678-18.712 0-7.033 5.701-12.734 12.734-12.734S47.35 53.806 47.35 60.839l-.042-.021z" fill="url(#d)" transform="translate(5)"/><path d="M20.287 3.755l44.056 24 1.259.693c1.049.818 2.098 2.454.734 5.475-2.098 4.51-10.49 8.874-20.161 5.455 3.021.88 5.077-.126 7.72-2.35 2.098-1.72 4.385-7.322.84-8.623a25.469 25.469 0 00-3.546-.88c-6.587-1.28-18.105-2.497-22.343-4.91-6.63-3.734-11.161-11.392-8.56-18.86z" fill="url(#e)" transform="translate(5)"/><path d="M20.287 3.755c4.552 16.783 32.266 18.168 46.154 25.175L20.287 3.755z" fill="url(#f)" transform="translate(5)"/><path d="M35.455 79.552c-4.846-6.126-13.573-9.881-13.573-18.713a12.734 12.734 0 0111.161-12.587c-10.124.035-18.322 8.233-18.357 18.357-.002 1.24.124 2.478.378 3.692 4.007 4.532 9.797 9.881 14.685 14.413a273.549 273.549 0 015.119 4.888 8.77 8.77 0 002.097-4.972 7.678 7.678 0 00-1.51-5.076z" fill="url(#g)" transform="translate(5)"/><path d="M47.245 62.329c.066-.5.101-1.005.105-1.51 2.643-14.12-11.685-27.588-22.678-25.574a26.203 26.203 0 017.175-.713c14.413.588 18.44 15.986 15.399 27.797z" fill="url(#h)" transform="translate(5)"/><path d="M4.741 31.133a4.762 4.762 0 014.742 4.762v4.741H4.74A4.741 4.741 0 010 35.897c0-2.623 2.12-4.751 4.741-4.763z" fill="url(#i)" transform="translate(5)"/></g></svg>