<svg xmlns="http://www.w3.org/2000/svg" viewBox="0 0 36 36"><path fill="#00aeef" d="M0 36h36V0H0Z"/><path fill="#fff" d="M18.204 9.337c.818 0 1.257-.362 1.524-.775l-.015.063c-.077.387.245.625.548.625h.264l.731-4.162h-.906l-.12.635c-.164-.328-.625-.721-1.372-.721-1.317 0-2.098 1.085-2.228 2.24-.15 1.322.703 2.095 1.574 2.095m.785-3.657c1.518.084 1.024 2.985-.52 2.9-1.395-.078-.961-2.982.52-2.9M6.5 4.807c0-.941-.605-1.38-1.667-1.38H2.78L1.743 9.25l1.882-.001c.43 0 .839-.014 1.07-.063 1.055-.223 1.483-.99 1.568-1.553.118-.78-.374-1.295-.933-1.42.42-.09 1.17-.524 1.17-1.406M4.294 8.534c-.118.029-.306.045-.7.045h-.685l.346-1.953H4.27c1.34 0 1.218 1.612.024 1.908m.398-2.655c-.129.043-.3.055-.613.055h-.701l.329-1.863h.917c1.1 0 1.014 1.497.068 1.808m5.808-.787h-.27l-.444 2.547c-.097.56-.367.944-1.125.944-.431 0-.852-.26-.754-.845.04-.226.325-1.887.35-2.021.079-.45-.304-.625-.62-.625h-.239c-.058.347-.321 1.81-.42 2.382a2.3 2.3 0 0 0-.039.616c.09.776.772 1.25 1.615 1.25 1.456 0 2.003-.76 2.178-1.665.057-.297.333-1.806.354-1.958.063-.45-.307-.625-.586-.625m1.499 5.8.422-2.296c.164.328.632.744 1.378.744 1.344 0 2.175-1.048 2.259-2.276.089-1.306-.678-2.057-1.568-2.057-.771 0-1.297.375-1.565.766l.012-.056c.085-.402-.258-.625-.549-.625H12.1s-.783 4.48-.89 5.018c-.127.634.388.782.55.782zm2.19-5.139c1.395.078.96 2.99-.52 2.908-1.518-.084-1.025-2.993.52-2.908m19.517 5.248c-.389 0-.918-.022-1.234-.13-.372-.127-.701-.38-1.05-.649-.174-.133-.354-.273-.55-.402-.237-.158-.434-.231-.623-.231-.254 0-.5.137-.801.447-.406.418-1.054 1.367-1.312 1.756-.017.024-.039.05-.072.05-.063 0-.065-.082-.065-.11-.012-1.086-.183-7.013-.302-8.783-.052-.783-.295-1.27-.634-1.27-.273 0-.68.363-.936 1.385-.65 2.599-2.037 8.378-2.633 11.314-.018.08-.11.08-.126 0-.066-.3-.125-.641-.181-.928-.178-.905-.332-1.687-.636-2.117-.347-.49-.86-.52-1.48-.108a3.96 3.96 0 0 0-.41.325c-.398.343-.849.733-1.598.733h-7.32l-.18.97h7.703c.788 0 1.518-.453 1.954-.766.221-.16.375-.251.497-.251.17 0 .245.172.308.43.03.126.069.301.111.504.146.67.366 1.726.643 2.429.13.327.323.507.542.507.337 0 .68-.397.874-1.013.26-.821 1.817-7.569 2.474-10.395l.043-.186c.012-.05.045-.083.084-.083.034 0 .073.03.074.093l.001.01c.05 2.86.192 7.882.405 8.398.118.285.298.436.522.436.26 0 .57-.209.792-.532.112-.162.254-.375.404-.598.372-.553.794-1.178.918-1.312.186-.197.399-.197.702.01.044.029.096.067.158.112.323.234.863.556 1.47.723.403.11.921.134 1.284.134.235 0 .484-.01.557-.014l.167-.9a13.709 13.709 0 0 1-.544.012"/></svg>