<svg xmlns="http://www.w3.org/2000/svg" viewBox="0 0 48 48"><path fill="#0079c8" d="M0 0h48v48H0z"/><path fill="#fff" d="M47.99 19.61v1.33h-.78c-1 0-1.66-.71-2.08-1.36l-2.26 4.65a.8.8 0 0 1-1.05.34.77.77 0 0 1-.42-.62L40 8.06l-3 13.12a.67.67 0 0 1-.82.48.7.7 0 0 1-.41-.32l-1.46-2.7a5.58 5.58 0 0 1-4.6 2.29H17.8l.16-1.33H29.7c1.66.01 3.19-.9 3.96-2.37.08-.17.2-.31.35-.42a.66.66 0 0 1 .77.03.7.7 0 0 1 .18.2l1.16 2.12L39.36 5.2a.86.86 0 0 1 .9-.8c.47.03.83.44.8.91l1.5 16.7 1.97-4.18c.1-.19.27-.31.48-.35.2-.03.41.04.56.18.14.16.25.34.34.53.25.48.72 1.37 1.32 1.37zM26.5 10.54v-.03c.27-2.13 1.87-3.34 3.41-3.34a2.3 2.3 0 0 1 2.06 1.13l.12-1h1.48l-.8 6.45h-1.46l.12-1.05a2.95 2.95 0 0 1-2.35 1.2c-1.51-.01-2.85-1.2-2.58-3.36m3.11 2.06a2.26 2.26 0 0 0 2.12-2.06v-.03c.14-1.24-.63-2.05-1.62-2.05A2.2 2.2 0 0 0 28 10.52v.03c-.15 1.23.6 2.05 1.63 2.05zM9.28 9.31c.97.34 1.6.91 1.45 2.07v.05c-.19 1.52-1.55 2.34-3.45 2.34H3.32l1.05-8.55H8.2c.98 0 1.72.27 2.14.76.34.39.49.91.4 1.42v.02a2.38 2.38 0 0 1-1.46 1.9M5.42 8.8h2.04c.97 0 1.66-.37 1.76-1.16v-.02c.08-.67-.42-1.09-1.37-1.09H5.68L5.4 8.8zm2.22 1.27H5.25l-.29 2.35h2.49c1.03 0 1.7-.42 1.8-1.18v-.02c.09-.72-.44-1.15-1.63-1.15zm8.94-2.77-.45 3.64c-.03.89-.76 1.6-1.65 1.6-.88 0-1.3-.57-1.19-1.58l.45-3.66h-1.46l-.52 4.13c-.18 1.5.54 2.48 2 2.48a2.67 2.67 0 0 0 2.15-1.14l-.13 1h1.5l.79-6.45zm3.35 8.4h-1.48l1.03-8.4h1.48l-.13 1.08a2.96 2.96 0 0 1 2.35-1.21c1.51 0 2.84 1.2 2.58 3.34v.03c-.27 2.14-1.88 3.35-3.39 3.35a2.29 2.29 0 0 1-2.06-1.14zm2.22-3.1a2.2 2.2 0 0 0 2.12-2.06v-.03c.14-1.24-.6-2.05-1.6-2.05a2.26 2.26 0 0 0-2.12 2.06v.03c-.17 1.22.62 2.05 1.6 2.05"/></svg>