<svg xmlns="http://www.w3.org/2000/svg" xmlns:xlink="http://www.w3.org/1999/xlink" width="26.588" height="26.588" viewBox="0 0 36.673 39.1"><g transform="translate(-55.587 -3)"><g id="a"><path d="M-2.812 11.5l-.4-1-1-2c.5 1.8 1.2 3.5 1.9 5.3l-.5-2.3m.5 2.4l-2.3-5.8-.6-.8 3 7.7-.1-1.1" fill="#ffc556" transform="translate(88.235)"/><path d="M-2.212 15c-1.2-2.6-2.3-5.3-3.3-8l-.5-.6c1.1 3.2 2.4 6.4 3.8 9.5V15" fill="#ffc556" fill-rule="evenodd" transform="translate(88.235)"/><path d="M-2.212 16a143 143 0 01-4.2-10l-.5-.4c1.3 3.7 2.9 7.3 4.5 11v-.8" fill="#ffc556" fill-rule="evenodd" transform="translate(88.235)"/><path d="M-2.312 16.6c-1.7-3.6-3.4-7.4-4.8-11.2a12 12 0 00-.5-.3c1.6 4.1 3.3 8.2 5.3 12.2v-.7" fill="#ffc556" fill-rule="evenodd" transform="translate(88.235)"/><path d="M-2.412 17.3c-2-4-3.8-8.2-5.5-12.4l-.5-.3c1.8 4.5 3.8 9 6 13.2v-.5" fill="#ffc556" fill-rule="evenodd" transform="translate(88.235)"/><path d="M-2.412 17.9c-2.3-4.4-4.4-9-6.3-13.5l-.5-.2c2 5 4.3 9.7 6.6 14.2l.2-.5" fill="#ffc556" fill-rule="evenodd" transform="translate(88.235)"/><path d="M-2.612 18.4c-2.5-4.7-4.8-9.5-7-14.4l-.3-.2c2.1 5.2 4.5 10.2 7.2 15l.1-.4" fill="#ffc556" fill-rule="evenodd" transform="translate(88.235)"/><path d="M-2.712 18.9c-2.8-5-5.3-10-7.6-15.2l-.4-.1a172 172 0 007.9 15.7l.1-.4" fill="#ffc556" fill-rule="evenodd" transform="translate(88.235)"/><path d="M-2.812 19.3c-3-5.1-5.8-10.4-8.3-15.9h-.4c2.7 5.7 5.5 11.2 8.6 16.3v-.4" fill="#ffc556" fill-rule="evenodd" transform="translate(88.235)"/><path d="M-11.912 3.3l-.4-.1c2.9 6 6 11.7 9.2 17l.2-.5a191 191 0 01-9-16.4" fill="#ffc556" fill-rule="evenodd" transform="translate(88.235)"/><path d="M-12.712 3.1h-.4c3.1 6.1 6.4 12 9.8 17.4l.2-.4c-3.5-5.5-6.7-11.2-9.6-17" fill="#ffc556" fill-rule="evenodd" transform="translate(88.235)"/><path d="M-13.512 3h-.4c3.3 6.3 6.8 12.3 10.5 17.8l.2-.3c-3.9-5.7-7.2-11.5-10.4-17.5" fill="#ffc556" fill-rule="evenodd" transform="translate(88.235)"/><path d="M-14.412 3h-.3c3.5 6.5 7.3 12.6 11.1 18.2l.2-.3c-4.3-6.5-8-12.7-11-17.9z" fill="#ffc556" transform="translate(88.235)"/><path d="M-15.212 3h-.2c3.6 6.4 7.6 12.6 11.8 18.5l.1-.3c-4-5.9-8-12-11.6-18.2" fill="#ffc556" transform="translate(88.235)"/><path d="M-16.312 3.2a274 274 0 0012.4 18.6l.2-.3c-4.4-6-8.4-12-12.3-18.4h-.3" fill="#ffc556" fill-rule="evenodd" transform="translate(88.235)"/><path d="M-17.112 3.3c4.1 6.5 8.4 12.7 13 18.8l.2-.3c-4.5-6-8.8-12.2-12.8-18.5h-.4" fill="#ffc556" fill-rule="evenodd" transform="translate(88.235)"/><path d="M-17.912 3.6a338 338 0 0013.6 18.8l.2-.2c-4.7-6.2-9.3-12.4-13.4-18.7h-.4" fill="#ffc556" fill-rule="evenodd" transform="translate(88.235)"/><path d="M-18.312 3.7l-.3.1.2.3c3.7 5.3 8.4 11.8 14 18.6l.1-.3c-4.8-6-9.4-12.2-13.9-18.5l-.1-.2" fill="#ffc556" fill-rule="evenodd" transform="translate(88.235)"/><path d="M-19.112 4l-.3.1.4.6c4.6 6.2 9.4 12.3 14.3 18.3l.2-.3c-4.9-6-9.9-12.3-14.6-18.7" fill="#ffc556" fill-rule="evenodd" transform="translate(88.235)"/><path d="M-20.112 4.5c4.4 5.6 9.5 12 15.2 18.8l.2-.3a556.4 556.4 0 01-15-18.6l-.4.1" fill="#ffc556" fill-rule="evenodd" transform="translate(88.235)"/><path d="M-20.812 5l15.7 18.5.2-.2a711 711 0 01-15.5-18.5l-.3.1m-.6.5l16 18.4.3-.3a994 994 0 01-16-18.3c-.2 0-.3.1-.3.2m-.7.5l16.6 18.1.2-.2-16.5-18-.3.1m-.6.6l17 17.8c0-.1 0-.2.2-.3l-17.1-17.7-.2.2m-.6.6l17.3 17.4.2-.2-17.2-17.5-.3.3m-.5.6l17.6 17 .2-.2-17.6-17-.2.2m-.5.7c6 5.4 12 11 17.8 16.5l.3-.2a981.9 981.9 0 00-17.9-16.6l-.2.3m-.4.7l18 16 .2-.1c-5.9-5.5-11.9-11-17.9-16.2l-.2.3" fill="#ffc556" transform="translate(88.235)"/><path d="M-25.112 9.8c6.1 5 12.2 10.3 18.1 15.6l.3-.2c-6-5.4-12-10.6-18.2-15.7l-.2.3" fill="#ffc556" fill-rule="evenodd" transform="translate(88.235)"/><path d="M-25.312 10.3l-.1.3.4.3c5 4 11.2 9 17.7 14.7l.3-.2a446 446 0 00-18.3-15.1m-.3.7l-.1.4.2.1c6.1 4.6 12.1 9.3 18 14.3l.2-.2c-5.8-5-11.9-9.8-18-14.4l-.3-.2" fill="#ffc556" transform="translate(88.235)"/><path d="M-26.012 12.1c5.2 3.7 11.6 8.4 18.2 13.9l.3-.2c-6-4.9-12.1-9.5-18.4-14v.3" fill="#ffc556" fill-rule="evenodd" transform="translate(88.235)"/><path d="M-26.212 13a294 294 0 0118 13.2l.4-.2c-6-4.7-12-9.2-18.3-13.4v.4" fill="#ffc556" fill-rule="evenodd" transform="translate(88.235)"/><path d="M-26.312 13.8c6.1 4 12 8.1 17.9 12.5l.3-.1c-5.9-4.5-12-8.8-18.1-12.8v.4" fill="#ffc556" fill-rule="evenodd" transform="translate(88.235)"/><path d="M-26.412 14.6c6 3.7 12 7.7 17.7 12l.3-.3c-5.8-4.3-11.8-8.3-18-12v.3" fill="#ffc556" fill-rule="evenodd" transform="translate(88.235)"/><path d="M0 .1v.4c6 3.4 11.7 7.2 17.3 11.2l.4-.1C12.2 7.6 6.3 3.8 0 0" fill="#ffc556" mask="url(#e)" transform="translate(61.824 15)" fill-rule="evenodd"/><path d="M-26.412 15.9v.4a207 207 0 0117 10.5 11.8 11.8 0 00.3-.1c-5.3-3.8-11.2-7.4-17.3-10.8z" fill="#ffc556" transform="translate(88.235)"/><path d="M-26.412 16.7l.1.4c5.7 3 11.2 6.3 16.5 10l.4-.2c-5.3-3.6-11-7-17-10.2" fill="#ffc556" transform="translate(88.235)"/><path d="M-26.212 17.5v.4c5.5 2.8 10.9 6 16 9.3l.4-.2c-5.1-3.3-10.6-6.5-16.4-9.5" fill="#ffc556" fill-rule="evenodd" transform="translate(88.235)"/><path d="M-26.012 18.7c4.8 2.4 10 5.2 15.4 8.6l.4-.1c-5-3.2-10.2-6.2-15.9-8.9l.1.4" fill="#ffc556" transform="translate(88.235)"/><path d="M-25.712 19.6c5 2.3 10 5 14.7 7.8h.4c-4.7-3-9.8-5.7-15.3-8.3l.2.5" fill="#ffc556" fill-rule="evenodd" transform="translate(88.235)"/><path d="M-25.412 20.4c4.7 2.2 9.4 4.5 14 7.2l.4-.2c-4.7-2.7-9.6-5.2-14.6-7.4l.2.4" fill="#ffc556" fill-rule="evenodd" transform="translate(88.235)"/><path d="M-25.012 21.2c4.4 2 8.8 4.1 13 6.5l.5-.1c-4.5-2.5-9-4.8-13.8-6.8l.3.4" fill="#ffc556" fill-rule="evenodd" transform="translate(88.235)"/><path d="M-24.612 22c3.9 1.7 8 3.6 12 5.8l.6-.1c-4.2-2.3-8.5-4.3-12.9-6.1l.3.4" fill="#ffc556" fill-rule="evenodd" transform="translate(88.235)"/><path d="M-24.012 22.9a139 139 0 0110.8 5l.6-.1c-3.8-2-7.8-3.8-11.8-5.4l.4.5" fill="#ffc556" fill-rule="evenodd" transform="translate(88.235)"/><path d="M-23.412 23.7c3.1 1.2 6.3 2.6 9.5 4.2h.7c-3.5-1.8-7-3.3-10.6-4.7l.4.5" fill="#ffc556" fill-rule="evenodd" transform="translate(88.235)"/><path d="M-22.912 24.3l.3.3c2.6 1 5.2 2 7.9 3.3h.8a129.5 129.5 0 00-9-3.6" fill="#ffc556" fill-rule="evenodd" transform="translate(88.235)"/><path d="M-21.412 25.5l5.6 2.3 1 .1-7.5-3 .9.6m2.3 1.4l1 .4 2.1.5-5-2c.5.4 1.2.8 1.9 1" fill="#ffc556" transform="translate(88.235)"/></g><use xlink:href="#a" transform="rotate(180 73.924 22.55)" width="100%" height="100%"/></g><defs id="defs9219"><path id="a" d="M.2.2h18.4v28.5H.2z"/><path id="b" d="M.2.1h9.2v28.5H.2z"/><path id="d" d="M0 .1h17.7v11.6H0z"/></defs></svg>