<svg xmlns="http://www.w3.org/2000/svg" viewBox="0 0 87 87"><path fill="#f7a600" d="M62 49.36V27h4.5v22.36z"/><path d="M9.63 56H0V33.64h9.25c4.5 0 7.1 2.45 7.1 6.28a5.16 5.16 0 0 1-2.84 4.62 5.2 5.2 0 0 1 3.17 5.02c0 4.18-2.94 6.44-7.05 6.44zM8.9 37.54H4.5v5.15h4.4c1.9 0 2.97-1.04 2.97-2.58s-1.06-2.57-2.97-2.57zm.3 9.07H4.5v5.5h4.7c2.03 0 3-1.26 3-2.77 0-1.5-.97-2.73-3-2.73zm21.2.22V56h-4.46v-9.17L19 33.64h4.88l4.3 9.01 4.23-9h4.89zM50.05 56H40.4V33.64h9.25c4.5 0 7.11 2.45 7.11 6.28a5.16 5.16 0 0 1-2.85 4.62 5.2 5.2 0 0 1 3.17 5.02c0 4.18-2.94 6.44-7.04 6.44zm-.75-18.46h-4.4v5.15h4.4c1.91 0 2.98-1.04 2.98-2.58s-1.07-2.57-2.98-2.57zm.3 9.07h-4.7v5.5h4.7c2.03 0 3-1.26 3-2.77 0-1.5-.97-2.73-3-2.73zm31.39-9.07V56h-4.5V37.54h-6.01v-3.9H87v3.9z"/></svg>