<svg xmlns="http://www.w3.org/2000/svg" viewBox="0 0 69.4 54.9"><path fill="#002e5d" d="M43.6 0c-.2 0 0 .7 0 .7 1.3 0 3 0 2.6 1.8 0 1.7-7.5 12.4-10 16.4-.5.6-.7 1.3-.9 2a5 5 0 0 0-.8-2c-3.7-5.4-10-14.2-10.1-16.4C24.3.7 25.7.7 26.9.7c.3 0 .3-.6 0-.6H.2C0 .1 0 .7.1.7c1.1 0 2.2.2 3.1.7l.7.5c1 .9 1.9 1.9 2.5 3l19 28v17.6c0 1.5 0 2-1 2.7a10 10 0 0 1-3.8 1c-.3 0-.3.7 0 .7h29.1c.1 0 .2-.7 0-.7-1.3 0-2.6-.4-3.8-1-1-.7-1-1.3-1-2.8V33L64 4.8c.8-1.2 1.6-2.2 2.7-3.1l.6-.5c.6-.4 1.2-.5 2-.5.2 0 .3-.7 0-.7z"/></svg>
