<?xml version="1.0" encoding="UTF-8"?>
<svg width="750px" height="750px" viewBox="0 0 750 750" version="1.1" xmlns="http://www.w3.org/2000/svg" xmlns:xlink="http://www.w3.org/1999/xlink">
    <!-- Generator: Sketch 43 (38999) - http://www.bohemiancoding.com/sketch -->
    <title>1024</title>
    <desc>Created with Sketch.</desc>
    <defs></defs>
    <g id="Page-1" stroke="none" stroke-width="1" fill="none" fill-rule="evenodd">
        <g id="1024" fill="#007BFF">
            <path d="M440.195587,552.608826 C512.452823,548.568353 572.766409,537.834363 578.798746,521 C594.175072,478.089492 453.525377,118 377.298746,118 C301.072115,118 156.233783,474.815031 175.798746,521 C183.353314,538.833281 242.866332,549.292441 313.971502,552.943005 L377,679 L440.195587,552.608826 Z M376.5,741 C174.639924,741 11,577.360076 11,375.5 C11,173.639924 174.639924,10 376.5,10 C578.360076,10 742,173.639924 742,375.5 C742,577.360076 578.360076,741 376.5,741 Z" id="Combined-Shape"></path>
            <circle id="Oval-2" cx="377" cy="254" r="41"></circle>
        </g>
    </g>
</svg>