<svg xmlns="http://www.w3.org/2000/svg" width="113.567" height="113.567"><defs><linearGradient x1="0" y1="0" x2="1" y2="0" gradientUnits="userSpaceOnUse" gradientTransform="rotate(-90 549.512 123.568) scale(673.08)" spreadMethod="pad" id="b"><stop offset="0" stop-color="#ff5f00"/><stop offset=".265" stop-color="#ff6506"/><stop offset=".48" stop-color="#ff6e0f"/><stop offset=".482" stop-color="#fe690c"/><stop offset=".486" stop-color="#fd5e05"/><stop offset=".493" stop-color="#fc5701"/><stop offset=".511" stop-color="#fc5500"/><stop offset=".775" stop-color="#fe6300"/><stop offset="1" stop-color="#ff6900"/></linearGradient><clipPath clipPathUnits="userSpaceOnUse" id="a"><path d="M851.887 666.508c0 6.769-7.481 8.91-11.047 3.562-103.692-159.281-162.133-250.148-214.871-332.816H7.727c-7.84 0-10.692-9.981-3.922-12.473C260.367 227.855 630.96 82.117 837.992.516c5.344-2.141 13.895 2.847 13.895 6.414z"/></clipPath></defs><g clip-path="url(#a)" transform="matrix(.13333 0 0 -.13333 -.018 101.656)"><path d="M836 0L1 325c-2.04 6.735-.384 9.388 4 13h621l215 333 1 1c2.613 2.945 5.49 2.035 8 0 .93-.693 1.255-1.255 2-2 3.542 24.736 61.967-666.395-6-670" fill="url(#b)"/></g></svg>