<?xml version="1.0" encoding="UTF-8" standalone="no"?>
<!DOCTYPE svg PUBLIC "-//W3C//DTD SVG 20010904//EN" "http://www.w3.org/TR/2001/REC-SVG-20010904/DTD/svg10.dtd">
<svg version="1.0" xmlns="http://www.w3.org/2000/svg" width="180.000000pt" height="180.000000pt" viewBox="0 0 180.000000 180.000000" preserveAspectRatio="xMidYMid meet">

<g transform="translate(0.000000,180.000000) scale(0.100000,-0.100000)" stroke="none" fill="#183e7a">
<path d="M0 900 l0 -900 900 0 900 0 0 900 0 900 -900 0 -900 0 0 -900z m470 510 l0 -150 -75 0 -75 0 0 150 0 150 75 0 75 0 0 -150z m237 109 l22 -8 -23 -73 c-22 -71 -23 -73 -53 -71 -17 2 -42 7 -56 12 l-24 10 15 76 15 76 41 -7 c23 -3 51 -10 63 -15z m233 -99 c0 -14 -73 -141 -78 -137 -4 1 -25 11 -47 21 -22 10 -41 19 -43 21 -3 3 43 129 53 145 6 9 115 -39 115 -50z m168 -103 c12 -11 22 -24 22 -28 0 -9 -91 -119 -99 -119 -3 1 -23 16 -45 34 l-38 33 43 66 c44 65 44 66 69 50 14 -9 35 -25 48 -36z m167 -159 c177 -197 285 -479 285 -745 l0 -104 -77 3 -78 3 -6 105 c-14 216 -69 381 -188 559 -7 12 -19 6 -61 -29 l-51 -43 -49 54 c-27 30 -49 56 -49 59 1 7 212 189 221 190 3 0 27 -24 53 -52z m-355 -250 c0 -7 -83 -120 -185 -251 -134 -172 -185 -245 -185 -264 0 -42 -37 -106 -75 -130 -98 -64 -235 10 -235 126 0 80 62 149 137 154 36 2 68 24 279 189 132 103 245 187 252 187 6 1 12 -5 12 -11z"/>
</g>
</svg>