<svg xmlns="http://www.w3.org/2000/svg" viewBox="0 0 180 180"><path fill="#183e7a" d="M0 90v90h180V0H0v90zm47-51v15H32V24h15v15zm23.7-10.9 2.2.8-2.3 7.3c-2.2 7.1-2.3 7.3-5.3 7.1-1.7-.2-4.2-.7-5.6-1.2l-2.4-1 1.5-7.6 1.5-7.6 4.1.7c2.3.3 5.1 1 6.3 1.5zM94 38c0 1.4-7.3 14.1-7.8 13.7l-4.7-2.1-4.3-2.1A102 102 0 0 1 82.5 33c.6-.9 11.5 3.9 11.5 5zm16.8 10.3c1.2 1.1 2.2 2.4 2.2 2.8 0 .9-9.1 11.9-9.9 11.9-.3-.1-2.3-1.6-4.5-3.4l-3.8-3.3 4.3-6.6c4.4-6.5 4.4-6.6 6.9-5 1.4.9 3.5 2.5 4.8 3.6zm16.7 15.9a115.2 115.2 0 0 1 28.5 74.5v10.4l-7.7-.3-7.8-.3-.6-10.5a106 106 0 0 0-18.8-55.9c-.7-1.2-1.9-.6-6.1 2.9l-5.1 4.3-4.9-5.4a48 48 0 0 1-4.9-5.9c.1-.7 21.2-18.9 22.1-19 .3 0 2.7 2.4 5.3 5.2zM92 89.2c0 .7-8.3 12-18.5 25.1C60.1 131.5 55 138.8 55 140.7c0 4.2-3.7 10.6-7.5 13-9.8 6.4-23.5-1-23.5-12.6 0-8 6.2-14.9 13.7-15.4 3.6-.2 6.8-2.4 27.9-18.9a339.6 339.6 0 0 1 25.2-18.7c.6-.1 1.2.5 1.2 1.1z"/></svg>
