<svg xmlns="http://www.w3.org/2000/svg" xmlns:xlink="http://www.w3.org/1999/xlink" xml:space="preserve" width="177.2" height="177.2"><g transform="translate(0 76.6)"><defs><path id="a" d="M0 0h177.2v24H0z"/></defs><clipPath id="b"><use xlink:href="#a" overflow="visible" style="overflow:visible" width="100%" height="100%"/></clipPath><path clip-path="url(#b)" d="M24 14.6c.9-2.3 1.8-4.5 2.8-6.8.4 2.3.9 4.5 1.4 6.8zM24.9.3c-3.8 7.8-7.2 15.5-10.3 23.3h4.8c.7 0 1.3-.5 1.6-1.1.4-1 .8-2 1.1-3h7.1c.2 1 .5 2 .8 3 .2.7.8 1.1 1.4 1.1h4.9c-2.2-7.8-4-15.5-5.6-23.3ZM39.2 23.6H45c.5-7.7 1.2-15.4 2.4-23.1h-5.8c-1.1 7.6-1.9 15.4-2.4 23.1M63.1 8.7c-.2 1.9-1.5 3-3.5 3h-2.9c.2-2 .4-4 .7-6.1h2.8c2 0 3.1 1 2.9 3.1 0-.1 0-.1 0 0m5.8-.3v-.2c.3-2.3-.2-4.1-1.3-5.4C66.4 1.3 64.2.5 61.2.5H50.8c-.3 1.7-.5 3.5-.7 5.2h1.6c-.8 6-1.3 12-1.7 18h5.8c.1-2.4.3-4.8.5-7.2h2.1c.9 2.1 1.9 4.2 2.9 6.3.2.5.8.8 1.3.8h5.6c-1.4-2.8-2.7-5.6-4-8.4 2.5-1.2 4.3-3.4 4.7-6.8M84.4 8.8c-.2 2-1.6 3.2-3.6 3.2h-2c.2-2.2.5-4.2.7-6.4h2c2.1 0 3.2 1 2.9 3.2M82.5.4h-9.7c-.2 1.7-.5 3.5-.7 5.2h1.6c-.8 6-1.3 11.9-1.7 18h5.8c.1-2.2.3-4.5.5-6.7h2.2c4.9-.1 9-2.7 9.7-8.3v-.1c.6-5.2-2.4-8.1-7.7-8.1M104.9 9.2h-6.4c.3-2.9.7-5.9 1.1-8.8h-5.8c-1.1 7.7-1.9 15.4-2.4 23.1h5.8c.2-3 .4-6 .7-8.9h6.4c-.3 3-.5 6-.7 8.9h5.8c.5-7.7 1.2-15.4 2.4-23.1H106c-.4 3-.8 5.9-1.1 8.8M149.7 12.1c-2.2-4-4.3-8-6.2-12-2.7.5-2.6.4-5.3.9-1.1 7.6-1.9 15.1-2.3 22.7h5.7c.2-4 .6-8.1 1-12.1 2 3.8 4.2 7.6 6.4 11.4.3.4.7.7 1.2.7h4.4C155 16 155.8 8.3 157 .6h-5.7c-.7 3.7-1.2 7.6-1.6 11.5M6.9 9.9c.2-1.4.3-2.7.5-4.1H18c.2-1.8.5-3.6.7-5.4H.8C.5 2.2.3 4 0 5.8h1.6C.9 11.7.3 17.6 0 23.6h5.8c.2-2.9.4-5.7.6-8.6h6.2c.9 0 1.7-.7 1.7-1.6.1-1.2.2-2.3.4-3.5zM165.4 18.3c.1-1.3.2-2.6.3-4h6.3c.9 0 1.7-.7 1.8-1.6l.3-3.3h-7.9c.1-1.3.3-2.5.5-3.8h9.8c.2-1.7.5-3.5.7-5.2h-17.1c-.3 1.7-.5 3.5-.7 5.2h1.6c-.8 6-1.3 11.9-1.7 17.9H175c.1-1.7.2-3.5.4-5.2zM127.9 12.5v.4c-.4 4-2.2 5.8-4.9 5.8s-4.4-2.4-4-6.4v-.4c.4-4 2.6-6.4 5.2-6.4 1.3 0 2.3.6 3 1.7l-.8.8c.8.9 1.7 2.5 1.5 4.5m3.1-8.9.8-.8C130.2 1 127.9 0 125.1 0c-6 0-11.2 4.9-11.9 11.8 0 .2 0 .3-.1.5-.7 6.9 3.4 11.7 9.5 11.7s10.5-4.2 11.2-11.1c0-.2 0-.3.1-.5.3-3.7-1.1-6.7-2.9-8.8" style="fill:#2fa6df"/></g></svg>