<svg xmlns="http://www.w3.org/2000/svg" data-name="FCU Logo" aria-hidden="true" height="85.739" width="85.739" viewBox="0 0 85.739 81.929" fill="#fff"><g fill="#083b75"><path d="M35.59 74.698c19.138-10.537 25.287-1.648 25.287-1.648 22.62-32.29 1.308-65.98 1.308-65.98 3.607 30.711-27.229 67.274-26.596 67.628z"/><path d="M58.447-1.902c-.653-.582-37.092 72.004-41.934 77.874 2.225-1.718 16.475-12.536 24.86-14.508 0 0 9.152-39.6 17.074-63.366zM14.458 82.792l3.051.141 25.348.901.104-.076c5.343-3.896 7.967-9.173 8.076-9.396l.412-.842-.88.32c-12.884 4.672-36.11 8.952-36.11 8.952z"/></g></svg>