<svg height="400" viewBox="0 0 400 400" width="400" xmlns="http://www.w3.org/2000/svg"><g fill="#1a1919" fill-rule="evenodd" transform="translate(23 29)"><path d="m207 224.651516c0 12.754871 10.255895 20.348484 28.05038 20.348484 17.501506 0 25.94962-8.504328 25.94962-25.211573v-15.788427h-14.478343c-30.780563 0-39.521657 7.282479-39.521657 20.651516"/><path d="m177.010479 0c-97.7535714 0-177.010479 62.7341345-177.010479 140.123302v62.743765c0 77.389168 79.2569076 140.132933 177.010479 140.132933 97.75196 0 176.989521-62.743765 176.989521-140.132933v-62.743765c0-77.3891675-79.237561-140.123302-176.989521-140.123302zm-57.458477 207.594238h-17.527737v67.889881h-16.3089214c-12.9990937 0-24.481116-9.926256-24.481116-24.072456v-107.233749c0-33.099828 15.4157676-74.5480488 61.7211094-84.8129924 46.872833-10.3917506 59.981555 12.4768423 59.981555 12.4768423s-29.327361-.3996827-52.305915 17.4881251c-13.082928 10.1814758-28.147238 32.632729-28.606712 58.162663v31.539621c28.935599 5.528142 52.097943-4.062638 58.930407-7.093164l1.172063-.147674s-2.07489 35.802903-42.574733 35.802903zm181.016773 12.533023c0 34.298876-25.375881 58.061539-61.637275 58.061539h-8.160909c-38.676455 0-65.269541-21.656704-65.269541-51.440289 0-28.879885 21.151942-50.839963 80.985176-50.839963h14.196951v-2.112379c0-22.862172-10.875838-39.109515-35.053862-39.109515-29.308015 0-45.618549 11.13012-51.667488 18.653465h-1.507399v-12.934311c0-18.051533 16.320207-39.708236 59.222214-39.708236 36.261393 0 68.892133 26.173599 68.892133 82.124364z"/></g></svg>
