<svg xmlns="http://www.w3.org/2000/svg" width="1542" height="1300" version="1.2"><path fill-rule="evenodd" d="m1540 151.3-152.8 238.2c-2.9 4.2-8.6 7.1-14.3 4.2-355.6-178.2-765.5 148.4-1125.4 71.4-2.9-1.5-5.7-2.9-8.6-5.8L3.3 101.4C-1 94.2.4 84.2 7.5 80c2.9-2.9 7.2-2.9 11.5-2.9 91.4 21.4 181.3 35.7 274.2 45.6 549.8 30 845.5-299.5 1244 12.9 5.7 2.8 5.7 10 2.8 15.7zM714.5 874.4c-2.8 1.4-4.3 5.7-4.3 8.6l90 405c0 4.3-2.9 8.6-5.7 10-5.7 2.9-11.4 0-14.3-4.3l-415.6-639c-1.4-1.4-2.9-4.2-2.9-7.1 0-8.5 7.2-17.1 15.7-17.1 384.2-10 635.6-188.3 905.5-95.6h1.5c4.3 1.5 4.3 5.7 2.8 8.6L1100.1 833c-2.8 2.9-5.7 4.3-8.5 2.9-111.4-52.8-347.1 27.1-377.1 38.5z" style="fill:#fff"/></svg>