<svg xmlns="http://www.w3.org/2000/svg" preserveAspectRatio="xMinYMid meet" aria-labelledby="navbar-fanatical-logo" width="400" height="400"><path fill="#ff9800" d="M2.994 166.006h284.67a2.998 2.998 0 002.723-1.743l25.863-56.045a3 3 0 00-1.464-3.982 2.997 2.997 0 00-1.258-.276l-288.918.035C58.566 42.02 124.379 0 200 0c110.392 0 199.882 89.543 199.882 200S310.392 400 200 400C89.608 400 .118 310.457.118 200c0-11.588.985-22.946 2.876-33.994zM126.044 328c0 2.21 1.79 4 3.997 4h5.173l62.83-79.011h49.43a2.998 2.998 0 002.722-1.742l25.835-55.976a3.002 3.002 0 00.276-1.258c0-1.657-1.342-3-2.998-3H126.044V328z"/></svg>