<svg xmlns="http://www.w3.org/2000/svg" viewBox="0 0 174 242"><path fill="#fa005a" d="M166.935 118.154 50.108 1.273A4.317 4.317 0 0 0 45.405.34a4.314 4.314 0 0 0-2.662 3.99v98.276L7.365 67.22a4.31 4.31 0 0 0-4.702-.933A4.317 4.317 0 0 0 0 70.277v101.487a24.1 24.1 0 0 0 7.07 17.072l46.037 46.099a24.17 24.17 0 0 0 17.068 7.085h33.68a24.14 24.14 0 0 0 17.063-7.075l46.027-46.099A24.133 24.133 0 0 0 174 171.774v-36.533a24.153 24.153 0 0 0-7.065-17.087z"/><path fill="#ffc500" d="M131.297 160.901a7.24 7.24 0 0 1-2.108 5.111l-37.11 37.3a7.231 7.231 0 0 1-7.914 1.582 7.252 7.252 0 0 1-2.355-1.582l-36.99-37.3a7.221 7.221 0 0 1-2.117-5.096v-14.191a7.234 7.234 0 0 1 2.128-5.116l13.317-13.328a7.228 7.228 0 0 1 10.245 0l18.624 18.645 18.596-18.65a7.22 7.22 0 0 1 5.122-2.127 7.225 7.225 0 0 1 5.121 2.127l13.318 13.328a7.218 7.218 0 0 1 2.123 5.116v14.181z"/></svg>