<svg xmlns="http://www.w3.org/2000/svg" width="34.611" height="34.611"><path d="M32.003 16.321c0 .288-.115.564-.32.768L18.3 30.51c-.226.224-.454.324-.738.324-.292 0-.55-.11-.77-.325l-.943-.886a.41.41 0 01-.01-.59l15.45-15.46c.262-.263.716-.078.716.29v2.46zm-17.167 10.12l-.766.685a.642.642 0 01-.872-.02L3.01 17.16c-.257-.25-.4-.593-.4-.95v-1.858c0-.67.816-1.007 1.298-.536l10.814 10.56c.188.187.505.57.505 1.033 0 .296-.068.715-.39 1.035zM5.73 7.192l3.506-3.465a.421.421 0 01.592 0L21.564 15.33a3.158 3.158 0 010 4.5l-3.503 3.462a.423.423 0 01-.59 0L5.732 11.687a3.132 3.132 0 01-.937-2.25c0-.85.332-1.65.935-2.246zm13.89 1.982l3.662-3.62a3.232 3.232 0 012.737-.897c.722.098 1.378.47 1.893.978l3.708 3.667a.41.41 0 010 .585l-5.64 5.576a.419.419 0 01-.59 0L19.62 9.76a.411.411 0 010-.585zm14.56-.687L26.014.272A.869.869 0 0024.786.27l-6.479 6.467c-.5.5-1.316.5-1.82.004l-6.48-6.4A.87.87 0 008.793.34L.447 8.467C.16 8.747 0 9.127 0 9.524v7.7c0 .392.158.77.44 1.048l16.263 16.072a.87.87 0 001.22 0l16.25-16.073c.28-.278.438-.655.438-1.048V9.527c0-.39-.153-.763-.43-1.04z" fill="#00d6d6" fill-rule="evenodd"/></svg>