<svg xmlns="http://www.w3.org/2000/svg" width="381.401" height="381.401"><g fill="#ff282d"><path d="M223.722 177.241l-6.207-6.209-31.522 27.47a14.995 14.995 0 00-5.071-.897c-8.506 0-15.392 7.089-15.392 15.824 0 8.745 6.886 15.832 15.392 15.832 8.502 0 15.404-7.087 15.404-15.832 0-1.659-.252-3.257-.713-4.76z"/><path d="M348.65 299.867l-.053-253.81h-81.562v23.802a166.734 166.734 0 00-55.456-20.979h.461V20.714h9.952V0h-82.125v20.714h9.95V48.88h.565C72.373 63.241 13.256 131.551 13.256 213.713c0 92.595 75.062 167.657 167.657 167.657 31.602 0 61.155-8.755 86.385-23.955l14.694 23.986h86.152v-81.535H348.65zm-162.851-.185v-9.588h-9.772v9.561c-43.775-2.551-78.79-37.721-81.073-81.567h9.713v-9.772h-9.663c2.596-43.542 37.466-78.378 81.023-80.917v9.61h9.772v-9.638c42.935 2.295 77.52 35.973 81.257 78.51v2.802h-9.791v9.772h9.793v2.676c-3.716 42.557-38.31 76.256-81.26 78.551z"/></g></svg>