<svg xmlns="http://www.w3.org/2000/svg" width="432.026" height="432.026"><defs><linearGradient id="a" y1="97.2" x2="181.54" y2="97.2" gradientTransform="translate(.006 .002)" gradientUnits="userSpaceOnUse"><stop offset="0" stop-color="#fb8d63"/><stop offset="1" stop-color="#fda96c"/></linearGradient><linearGradient id="b" x1=".74" y1="216.02" x2="182.27" y2="216.02" gradientTransform="translate(0 .008)" gradientUnits="userSpaceOnUse"><stop offset="0" stop-color="#fead6d"/><stop offset=".37" stop-color="#fead6d"/><stop offset="1" stop-color="#feb26d"/></linearGradient><linearGradient id="c" x1="1.47" y1="334.83" x2="183.01" y2="334.83" gradientTransform="rotate(-.239 .926 -.931) scale(.99865)" gradientUnits="userSpaceOnUse"><stop offset=".04" stop-color="#fdac6b"/><stop offset=".95" stop-color="#fdbd7c"/></linearGradient><linearGradient id="d" x1="127.11" y1="249.92" x2="86.32" y2="179.26" gradientUnits="userSpaceOnUse"><stop offset=".15" stop-color="#feba7d"/><stop offset=".76" stop-color="#febe7f"/></linearGradient><linearGradient id="e" x1="40.11" y1="153.7" x2="161.67" y2="72.12" gradientUnits="userSpaceOnUse"><stop offset="0" stop-color="#feb16e"/><stop offset="1" stop-color="#ffb76e"/></linearGradient><linearGradient id="f" x1="46.3" y1="403.6" x2="179.67" y2="270.23" gradientUnits="userSpaceOnUse"><stop offset=".04" stop-color="#fca56c"/><stop offset=".95" stop-color="#fea368"/></linearGradient></defs><path d="M26.398 93.817 160.23.002l10.102 14.412a61.85 61.85 0 0 1-15.143 86.148L21.316 194.406l-10.103-14.412a61.85 61.85 0 0 1 15.185-86.177z" fill="url(#a)" transform="translate(124.504 -.002)"/><path d="m27.09 212.66 133.866-93.84 10.103 14.412a61.85 61.85 0 0 1-15.144 86.149L22.05 313.219l-10.102-14.412A61.85 61.85 0 0 1 27.09 212.66z" fill="url(#b)" transform="translate(124.504 -.002)"/><path d="M27.834 331.462 161.7 237.624l10.102 14.411a61.85 61.85 0 0 1-15.143 86.149L22.785 432.028 12.71 417.657a61.85 61.85 0 0 1 15.123-86.195z" fill="url(#c)" transform="translate(124.504 -.002)"/><path d="M92.77 210a344.89 344.89 0 0 0-49.37 88.25l112.52-78.87a61.86 61.86 0 0 0 15.14-86.16l-1.44-2.05C142.14 155.77 115.34 181 92.77 210z" fill="url(#d)" transform="translate(124.504 -.002)"/><path d="M152 83c-37.76 26.15-84.32 35.71-125.86 55.29a262.32 262.32 0 0 0-25.65 13.9A61.39 61.39 0 0 0 11.21 180l10.1 14.41 133.87-93.84a61.69 61.69 0 0 0 26.21-46.75A117.55 117.55 0 0 1 152 83z" fill="url(#e)" transform="translate(124.504 -.002)"/><path d="M180.89 271.46c-30.95 5.27-61.48 15.4-84.56 36.06-28.71 25.7-41.82 64.55-43 103.09l103.33-72.44a61.87 61.87 0 0 0 24.23-66.71z" fill="url(#f)" transform="translate(124.504 -.002)"/></svg>