<svg xmlns="http://www.w3.org/2000/svg" version="1.1" id="svg152262" width="432.026" height="432.026"><defs id="defs152224"><linearGradient id="linear-gradient" y1="97.2" x2="181.54" y2="97.2" gradientTransform="translate(.006 .002)" gradientUnits="userSpaceOnUse"><stop offset="0" stop-color="#fb8d63" id="stop152192"/><stop offset="1" stop-color="#fda96c" id="stop152194"/></linearGradient><linearGradient id="linear-gradient-2" x1=".74" y1="216.02" x2="182.27" y2="216.02" gradientTransform="translate(0 .008)" gradientUnits="userSpaceOnUse"><stop offset="0" stop-color="#fead6d" id="stop152197"/><stop offset=".37" stop-color="#fead6d" id="stop152199"/><stop offset="1" stop-color="#feb26d" id="stop152201"/></linearGradient><linearGradient id="linear-gradient-3" x1="1.47" y1="334.83" x2="183.01" y2="334.83" gradientTransform="rotate(-.239 .926 -.931) scale(.99865)" gradientUnits="userSpaceOnUse"><stop offset=".04" stop-color="#fdac6b" id="stop152204"/><stop offset=".95" stop-color="#fdbd7c" id="stop152206"/></linearGradient><linearGradient id="linear-gradient-4" x1="127.11" y1="249.92" x2="86.32" y2="179.26" gradientUnits="userSpaceOnUse"><stop offset=".15" stop-color="#feba7d" id="stop152209"/><stop offset=".76" stop-color="#febe7f" id="stop152211"/></linearGradient><linearGradient id="linear-gradient-5" x1="40.11" y1="153.7" x2="161.67" y2="72.12" gradientUnits="userSpaceOnUse"><stop offset="0" stop-color="#feb16e" id="stop152214"/><stop offset="1" stop-color="#ffb76e" id="stop152216"/></linearGradient><linearGradient id="linear-gradient-6" x1="46.3" y1="403.6" x2="179.67" y2="270.23" gradientUnits="userSpaceOnUse"><stop offset=".04" stop-color="#fca56c" id="stop152219"/><stop offset=".95" stop-color="#fea368" id="stop152221"/></linearGradient><style id="style152190"></style></defs><g id="g152868" transform="translate(124.504 -.002)"><path d="M26.398 93.817L160.23.002l10.102 14.412a61.85 61.85 0 01-15.143 86.148L21.316 194.406l-10.103-14.412a61.85 61.85 0 0115.185-86.177z" id="path152248" fill="url(#linear-gradient)"/><path d="M27.09 212.66l133.866-93.84 10.103 14.412a61.85 61.85 0 01-15.144 86.149L22.05 313.219l-10.102-14.412A61.85 61.85 0 0127.09 212.66z" id="path152250" fill="url(#linear-gradient-2)"/><path d="M27.834 331.462L161.7 237.624l10.102 14.411a61.85 61.85 0 01-15.143 86.149L22.785 432.028 12.71 417.657a61.85 61.85 0 0115.123-86.195z" id="path152252" fill="url(#linear-gradient-3)"/><path d="M92.77 210a344.89 344.89 0 00-49.37 88.25l112.52-78.87a61.86 61.86 0 0015.14-86.16l-1.44-2.05C142.14 155.77 115.34 181 92.77 210z" id="path152254" fill="url(#linear-gradient-4)"/><path d="M152 83c-37.76 26.15-84.32 35.71-125.86 55.29a262.32 262.32 0 00-25.65 13.9A61.39 61.39 0 0011.21 180l10.1 14.41 133.87-93.84a61.69 61.69 0 0026.21-46.75A117.55 117.55 0 01152 83z" id="path152256" fill="url(#linear-gradient-5)"/><path d="M180.89 271.46c-30.95 5.27-61.48 15.4-84.56 36.06-28.71 25.7-41.82 64.55-43 103.09l103.33-72.44a61.87 61.87 0 0024.23-66.71z" id="path152258" fill="url(#linear-gradient-6)"/></g></svg>