<svg xmlns="http://www.w3.org/2000/svg" width="271.422" height="271.423"><path d="M225.214 76.76c11.165 16.915 17.68 37.168 17.68 58.952 0 59.196-47.988 107.183-107.183 107.183-36.986 0-69.594-18.734-88.858-47.229l-23.738 15.826c24.38 36.153 65.71 59.93 112.596 59.93 74.95 0 135.711-60.76 135.711-135.71 0-27.639-8.283-53.333-22.472-74.776L225.214 76.76" fill="#6bbbea"/><path d="M28.527 135.712c0-59.196 47.987-107.184 107.184-107.184 37.412 0 70.33 19.18 89.503 48.232l23.736-15.824C224.66 24.226 183.023 0 135.711 0 60.76 0 0 60.76 0 135.712c0 28.065 8.522 54.14 23.115 75.78l23.738-15.826c-11.57-17.112-18.326-37.743-18.326-59.954" fill="#246cbe"/><path d="M71.195 178.721H195.69a4.535 4.535 0 004.536-4.536V92.701l-129.03 86.02" fill="#1f262f"/><path d="M135.711 135.71L71.195 92.702v86.02c.66-.44 1.16-.774 0 0l64.516-43.01" fill="#fab20b"/></svg>