<svg xmlns="http://www.w3.org/2000/svg" viewBox="0 0 90 90"><path fill="#E7004C" d="M78.85 15.12A44.93 44.93 0 0051.42.1c-.2-.03-.41-.03-.62-.03v1.46V.07a4.42 4.42 0 00-.62 8.8 36.36 36.36 0 0120.4 61.65 35.85 35.85 0 01-25.6 10.62 36 36 0 01-21.64-7.2 4.42 4.42 0 00-5.26 7.09A44.44 44.44 0 0044.98 90C57 90 68.32 85.3 76.81 76.76A44.92 44.92 0 0090 44.83a45.35 45.35 0 00-11.15-29.71zm-3.12 60.56a43.11 43.11 0 01-30.78 12.8 43.2 43.2 0 01-26.04-8.66 2.98 2.98 0 01-.6-4.14 2.96 2.96 0 014.13-.59 37.32 37.32 0 0022.5 7.5 37.22 37.22 0 0026.64-11.08A37.6 37.6 0 0082.62 44.8 37.82 37.82 0 0050.4 7.37a2.95 2.95 0 01.42-5.87c.13 0 .27 0 .4.03a43.71 43.71 0 0137.26 43.26 43.5 43.5 0 01-12.74 30.9z"/><path fill="#FFF" d="M15.9 66.5a36.06 36.06 0 01-7.17-21.7c0-2.4.24-4.84.72-7.2a2.97 2.97 0 012.91-2.36h26.87a4.34 4.34 0 004.26-4.42c0-2.43-1.9-4.41-4.25-4.41H15.38a.9.9 0 01-.8-.49.95.95 0 01.03-.97A36.22 36.22 0 0139.75 8.79a4.45 4.45 0 003.74-5A4.43 4.43 0 0039.13 0c-.2 0-.41 0-.62.03A45.15 45.15 0 000 44.72c-.01 9.8 3.07 19.15 8.92 27a4.42 4.42 0 006.17.9 4.42 4.42 0 001.73-2.91 4.89 4.89 0 00-.94-3.2zm-1.77 5.01a2.96 2.96 0 01-4.12-.6A43.4 43.4 0 011.39 44.8c0-10.56 3.8-20.78 10.73-28.74A43.48 43.48 0 0138.65 1.53c.13-.04.27-.04.41-.04 1.47 0 2.71 1.1 2.91 2.54.24 1.6-.87 3.1-2.5 3.34a37.67 37.67 0 00-26.14 16.82 2.4 2.4 0 002.01 3.71H39.2c1.56 0 2.8 1.32 2.8 2.96a2.87 2.87 0 01-2.8 2.95H12.33A4.39 4.39 0 008 37.35a38.22 38.22 0 00-.73 7.48c0 8.2 2.6 16.02 7.48 22.58a2.98 2.98 0 01-.62 4.1z"/><g fill="#903FFF"><path d="M69.82 26.4H51.29a4.41 4.41 0 000 8.83h18.53a4.41 4.41 0 000-8.82zm0 7.37H51.29a2.95 2.95 0 01-2.94-2.95 2.95 2.95 0 012.94-2.95H69.8a2.95 2.95 0 012.95 2.95 3 3 0 01-2.94 2.95zm-52.05 5.77a4.41 4.41 0 00-4.4 4.42c0 8.68 3.26 16.88 9.21 23.04a30.9 30.9 0 0022.37 9.62c8.45 0 16.42-3.4 22.37-9.62a33.07 33.07 0 009.21-23.04 4.41 4.41 0 00-4.4-4.42H17.78zm57.27 4.42c0 8.3-3.11 16.12-8.8 22a29.4 29.4 0 01-42.65 0 31.44 31.44 0 01-8.8-22A2.95 2.95 0 0117.73 41H72.1a2.95 2.95 0 012.94 2.96z"/><path d="M44.95 69.25c12.43 0 22.68-9.8 24.1-22.34h-48.2c1.42 12.54 11.67 22.34 24.1 22.34zm15.17-7.54a22.11 22.11 0 01-15.17 6.08 22.11 22.11 0 01-15.17-6.08 23.8 23.8 0 01-7.2-13.34h44.78a24.3 24.3 0 01-7.24 13.34zm-1.84-45.55c-3.63-2.5-8.38-3.86-13.36-3.86-5.02 0-9.8 1.39-13.44 3.93a3.53 3.53 0 00-1.35 4 3.53 3.53 0 003.4 2.5l22.81-.04c1.56 0 2.91-1 3.4-2.5a3.67 3.67 0 00-1.46-4.03zm0 3.54a2.08 2.08 0 01-1.97 1.46l-22.82.04a2.08 2.08 0 01-1.18-3.8c3.4-2.36 7.9-3.64 12.6-3.64 4.72 0 9.18 1.28 12.54 3.61.76.52 1.11 1.46.83 2.33z"/></g></svg>