<svg xmlns="http://www.w3.org/2000/svg" viewBox="0 0 27.925 31"><path d="M21.694 6.503c-1.918.64-2.841 1.788-3.47 3.576-.163.478-.569 1.006-1.025 1.362l1.573 1.686-4.993-3.495L0 0s.995 6.462 1.34 8.84c.243 1.676.66 2.428 1.978 3.19l.528.285 2.273 1.199-1.35-.702 6.23 3.404-.04.092-6.707-3.11c.355 1.22 1.045 3.567 1.34 4.603.314 1.118.669 1.524 1.755 1.92l1.999.732 1.238-.487-1.573 1.046L1.146 31c5.226-4.857 9.65-6.584 12.887-7.996 4.13-1.789 6.616-2.937 8.24-7.062 1.156-2.896 2.059-6.604 3.206-8.037l2.445-3.13s-5.063 1.342-6.23 1.728z" fill="#3f00a5"/></svg>