<svg xmlns="http://www.w3.org/2000/svg" viewBox="0 0 90 90"><path fill="#512DA8" d="M0 0h90v90H0z"/><path fill="#FFF" fill-rule="nonzero" d="M54.5 59.25a7.75 7.75 0 110-15.5 7.75 7.75 0 010 15.5M66.13 36c-1.58 0-2.93.94-3.53 2.28a15.5 15.5 0 100 26.44 3.87 3.87 0 007.4-1.6V39.89A3.87 3.87 0 0066.12 36m-48.25.28c8.56 0 15.5 6.88 15.5 15.36v11.52A3.86 3.86 0 0129.5 67a3.86 3.86 0 01-3.88-3.84V51.64a7.71 7.71 0 00-7.75-7.68A3.86 3.86 0 0114 40.12a3.86 3.86 0 013.88-3.84zM41.13 19A3.86 3.86 0 0145 22.84a3.86 3.86 0 01-3.88 3.84 7.71 7.71 0 00-7.74 7.68v9.38a17.48 17.48 0 00-7.76-7.57v-1.81c0-8.48 6.95-15.36 15.5-15.36z"/></svg>