<svg xmlns="http://www.w3.org/2000/svg" viewBox="0 0 79.04 46.11"><defs><linearGradient id="a" x1="40.31" x2="69.14" y1="-309.54" y2="-281.04" gradientTransform="matrix(1 0 0 -1 0 -270.98)" gradientUnits="userSpaceOnUse"><stop offset="0" stop-color="#000c05"/><stop offset=".25" stop-color="#00120d"/><stop offset=".65" stop-color="#002325"/><stop offset=".83" stop-color="#002d32"/></linearGradient><linearGradient id="b" x1="49.25" x2="49.55" y1="-292.23" y2="-291.93" gradientTransform="matrix(1 0 0 -1 0 -270.98)" gradientUnits="userSpaceOnUse"><stop offset="0" stop-color="#000c05"/><stop offset=".21" stop-color="#00120d"/><stop offset=".54" stop-color="#002225"/><stop offset=".83" stop-color="#00343f"/></linearGradient><linearGradient id="c" x1="40.99" x2="40.99" y1="-283.65" y2="-346.88" gradientTransform="matrix(1 0 0 -1 0 -270.98)" gradientUnits="userSpaceOnUse"><stop offset=".06" stop-color="#3fe3a7"/><stop offset=".14" stop-color="#2fbdc1"/><stop offset=".21" stop-color="#219fd8"/><stop offset=".29" stop-color="#1787e9"/><stop offset=".37" stop-color="#0f76f5"/><stop offset=".46" stop-color="#0b6cfc"/><stop offset=".57" stop-color="#0a69ff"/></linearGradient><linearGradient id="d" x1="14.65" x2="35.04" y1="-312.92" y2="-278" gradientTransform="matrix(1 0 0 -1 0 -270.98)" gradientUnits="userSpaceOnUse"><stop offset=".15"/><stop offset=".55" stop-color="#001d21"/><stop offset=".81" stop-color="#002d32"/></linearGradient></defs><path fill="url(#a)" d="M78.84 19.91 56.64.11c-.2-.2-.5-.1-.7.1-7.1 10.4-11.7 14.3-13.2 15.4 3.4 3.2 6.4 6 7 6.4l.1.1-.1-.1c-.1-.1-.3-.2-.5-.4 2 1.4 3.2 3.7 2.6 6.3-.2.8-.5 1.6-1 2.3-3.1 4.3-9 9.8-4.6 14.2.2.2.5.4.8.6 10.1 5.8 29.8-21.5 32-24.6 0-.1 0-.3-.2-.5"/><path fill="url(#b)" d="M49.94 21.41c-.3-.2-.7-.4-1.1-.6.4.2.8.4 1.1.6"/><path fill="url(#c)" d="M48.84 21.71c-1.5-1-6.1-2.7-13.5 4.3-1.8 1.7-3.4 3.5-4.9 5.4l15.4 13.2c-4.5-4.4 1.4-10 4.5-14.3.5-.7.8-1.5 1-2.3.7-2.5-.5-4.9-2.5-6.3"/><path fill="url(#d)" d="M35.54 25.91c9.3-8.7 14.1-3.8 14.1-3.8s-15.6-14.4-18.3-17-6.7-2-6.7-2c-15.3 2.7-23.6 22.3-24.6 24.9-.1.2 0 .4.1.5l21.3 17.5c.2.2.5.1.7-.2 1-2.5 5.9-12.9 13.4-19.9"/></svg>