<svg xmlns="http://www.w3.org/2000/svg" xmlns:xlink="http://www.w3.org/1999/xlink" version="1.1" id="FAX.PLUS_x5F_Sign_x5F_RGB" x="0" y="0" xml:space="preserve" width="160" height="160"><style type="text/css" id="style5686">.st1{fill:#4ec3e0}</style><g id="Sign_8_" transform="translate(-80 -80)"><path id="Paper_x5F_beneath_8_" class="st1" d="M120 160h80v80h-80z"/><path id="Paper_x5F_beneath_x5F_shadow_8_" fill="#0095c8" d="M120 200h80v20h-80z"/><path id="Fax_8_" d="M80 159.9c0-22.1 17.9-40 40-40h80c22.1 0 40 17.9 40 40s-17.9 40-40 40h-80c-22.1 0-40-17.9-40-40z" fill="#00b5e2"/><g id="Paper_x5F_top_x5F_shadow_15_"><defs id="defs5693"><path id="Paper_x5F_top_x5F_shadow_x5F_mask_8_" d="M80 159.9c0-22.1 17.9-40 40-40h80c22.1 0 40 17.9 40 40s-17.9 40-40 40h-80c-22.1 0-40-17.9-40-40z"/></defs><clipPath id="Paper_x5F_top_x5F_shadow_x5F_mask_1_"><use xlink:href="#Paper_x5F_top_x5F_shadow_x5F_mask_8_" id="use5695" x="0" y="0" width="100%" height="100%" overflow="visible"/></clipPath><path id="Paper_x5F_top_x5F_shadow_16_" clip-path="url(#Paper_x5F_top_x5F_shadow_x5F_mask_1_)" fill="#0095c8" d="M240 136.8l-40-23.1v46.2z"/></g><path id="Paper_x5F_top_12_" class="st1" d="M120 80h80v80h-80z"/></g></svg>