<svg width="340.157" height="340.157" viewBox="0 0 90 90" xmlns="http://www.w3.org/2000/svg"><path style="display:inline;fill:#fd6500;stroke-width:.0190955" d="m51.93 31.889.044.01-.005 12.713-.005 12.712c-.095-6.604-.033-19.466-.033-25.435zm.072 25.421c-.005-.013-.005-3.718-.005-12.723l.005-12.698h14.112l.005 2.812.004 2.812h-4.056c-3.662 0-4.06.003-4.086.03-.027.027-.03.218-.03 1.82 0 1.481.004 1.796.025 1.814.019.015 1.123.022 4.082.026l4.056.005v5.404l-4.056.004c-2.96.004-4.063.011-4.082.027-.021.017-.026.444-.026 2.508 0 2.065.005 2.491.026 2.51.019.015 1.123.022 4.082.025l4.056.005.005 2.821.004 2.822h-7.056c-5.628 0-7.058-.005-7.066-.024zm14.23 0c.007-.013 1.612-1.82 3.565-4.014 1.954-2.195 3.552-4.006 3.553-4.024 0-.02-1.564-1.793-3.56-4.037-1.959-2.201-3.564-4.01-3.568-4.02-.004-.01 1.487-.017 3.752-.017h3.759l1.775 1.957c.977 1.077 1.79 1.958 1.805 1.957.016 0 .798-.88 1.738-1.957l1.708-1.957h3.626c2.243 0 3.623.007 3.619.018-.004.01-1.6 1.81-3.549 4-2.114 2.378-3.542 3.998-3.542 4.02 0 .022 1.439 1.646 3.59 4.05 1.974 2.209 3.593 4.022 3.596 4.031.004.01-1.66.016-3.771.016l-3.778-.001-1.633-1.835c-1.908-2.144-1.865-2.097-1.906-2.097-.018 0-.789.858-1.768 1.967l-1.737 1.967H69.86c-2.91 0-3.641-.005-3.63-.024z"/><path style="fill:#4c138b;stroke-width:.0190955" d="M40.745 58.248a7.877 7.877 0 0 1-3.082-.78c-1.301-.634-2.395-1.596-3.278-2.884-.778-1.134-1.338-2.6-1.527-3.996-.017-.128-.03-.172-.057-.186-.05-.027-11.752-.026-11.802 0-.046.026-.049.164-.009.458.106.784.454 1.48 1.022 2.043a3.437 3.437 0 0 0 1.82.97c.241.045 1.062.045 1.4-.001.863-.12 1.359-.421 1.942-1.183l.172-.225h2.862c2.513 0 2.861.004 2.861.029 0 .042-.16.398-.346.773-.466.936-1.003 1.705-1.658 2.375a7.839 7.839 0 0 1-2.865 1.893c-1.712.67-4.006.84-5.93.438a9.337 9.337 0 0 1-2.348-.828 8.402 8.402 0 0 1-2.302-1.694 8.489 8.489 0 0 1-2.09-3.602 9.406 9.406 0 0 1-.367-2.907 9.896 9.896 0 0 1 .239-2.035c.03-.133.05-.25.046-.263-.011-.033-6.762-.031-6.774.002-.005.013-.012 2.421-.014 5.352l-.005 5.327-3.356.005-3.356.005.005-12.722.005-12.723h14.99l.005 2.812.004 2.812h-4.12c-2.265 0-4.13.007-4.142.014-.026.017-.045 3.607-.02 3.647.013.02.793.024 3.796.024h3.78v1.622c0 .892.005 1.635.011 1.651.024.062.065.025.18-.165 1.6-2.621 4.47-4.1 7.953-4.1 4.23 0 7.323 2.124 8.614 5.916.055.161.107.3.116.31.033.032.059-.016.137-.255.934-2.857 3.083-4.955 5.78-5.644a7.698 7.698 0 0 1 1.832-.245c1.461-.035 2.63.234 3.648.837a5.67 5.67 0 0 1 1.167.93c.187.187.283.271.307.266.033-.006.035-.203.044-5.22l.01-5.212 2.921-.005c1.607-.003 2.94 0 2.965.005l.043.01-.005 12.713-.005 12.712h-5.92l-.01-.811-.009-.812h-.047c-.036 0-.069.03-.139.124-.658.894-1.484 1.565-2.41 1.96-.856.363-1.68.506-2.684.463zm2.263-4.791c1.146-.18 1.993-.885 2.478-2.062.357-.866.47-2.018.308-3.16-.13-.918-.469-1.775-.92-2.325a2.992 2.992 0 0 0-1.006-.807c-.415-.202-.709-.28-1.208-.319a3.477 3.477 0 0 0-1.035.073c-1.525.341-2.562 1.737-2.792 3.76-.037.32-.032 1.077.01 1.355.116.8.389 1.491.832 2.11.181.254.582.657.822.826.218.154.614.356.85.433a3.576 3.576 0 0 0 1.661.116zm-15.4-6.732c.02-.024.016-.067-.028-.243-.397-1.62-1.7-2.552-3.434-2.454a3.15 3.15 0 0 0-2.437 1.4c-.23.34-.37.636-.49 1.038-.069.228-.07.238-.036.263.029.022.57.026 3.218.026 2.849 0 3.185-.003 3.207-.03z"/></svg>