<svg xmlns="http://www.w3.org/2000/svg" viewBox="0 0 128 128"><path fill="none" d="M0 0h128v128H0z"/><path fill="#2BB24C" d="M120.7 58.4 76.8 14.9c-2.1-2.1-4.1-4.5-7-5.7a14 14 0 0 0-9-.8c-2.7.5-5 2-7 3.9A190113 190113 0 0 1 4.4 61.2a14.3 14.3 0 0 0-4 6.8c-1.3 4.7.4 10 3.9 13.3L39 115.8a14 14 0 0 0 10 4.1h28.4c4.3.3 8.6-1.2 11.7-4.2l31.5-31.2c1.7-1.7 3.6-3.3 5-5.3 2.5-3.7 3-8.6 1.4-12.8-1.1-3.3-4-5.6-6.4-8M38.5 76.9c-1.8 2.1-5 1.6-7.3 1.2a34.8 34.8 0 0 1-5.8-5.7c-1-1.2.2-2.4 1-3.2L59 37c1.4-1.4 2.7-3 4.4-4.2 1.4-.7 2.5.8 3.4 1.6 2 2.1 4.2 4 6 6.2 1 1.1 0 2.4-.9 3.2L38.5 77m34.1 25.3c-1.7 2-3.5 3.9-5.6 5.5-1.8.4-3.8.3-5.7 0-1.8-.9-3-2.6-4.5-4-1-1-2.7-2.5-1.3-4 2.2-2.5 4.7-5 7.2-7.2 1-.8 2.4-.4 3.2.4a241.5 241.5 0 0 1 6.4 6.4c.8.7 1.2 2.1.3 3M72 73.3 53.5 91.7c-1.8 2.1-4.8 1.5-7.1 1.3-2.3-1.5-4-3.6-6-5.6-1.1-1.1 0-2.6 1-3.5a4987.6 4987.6 0 0 0 18.4-18.3c1.2-1 2.2-2.3 3.5-3.1 1.4-.6 2.4.8 3.3 1.5 2 2.2 4.4 4.1 6.2 6.5.9 1 0 2.2-.8 2.9"/></svg>
