<svg xmlns="http://www.w3.org/2000/svg" xml:space="preserve" viewBox="0 0 128 128"><g clip-rule="evenodd"><path fill="none" d="M0 0h128v128H0z"/><path fill="#2BB24C" fill-rule="evenodd" d="M120.738 58.4c-14.644-14.509-29.292-29.009-43.924-43.522-2.14-2.084-4.152-4.461-6.976-5.654-2.804-1.319-6.056-1.51-9.068-.872-2.636.598-5.016 2.029-6.92 3.914A190113.037 190113.037 0 0 1 4.445 61.202c-1.896 1.874-3.376 4.216-3.98 6.819-1.352 4.687.344 9.941 3.812 13.316 11.608 11.502 23.228 22.991 34.832 34.501 2.592 2.619 6.248 4.144 9.956 4.101 9.496.055 18.988-.008 28.48.032 4.272.269 8.592-1.244 11.616-4.275 10.52-10.388 21.008-20.816 31.524-31.212 1.712-1.719 3.568-3.332 4.964-5.329 2.56-3.653 2.984-8.578 1.488-12.718-1.167-3.326-3.975-5.62-6.399-8.037M38.521 76.923c-1.788 2.108-4.932 1.553-7.352 1.181-2.132-1.692-4.084-3.653-5.804-5.749-.996-1.161.28-2.369 1.068-3.189 10.832-10.681 21.624-21.41 32.436-32.108 1.452-1.403 2.768-2.96 4.4-4.16 1.404-.697 2.488.808 3.424 1.609 1.988 2.1 4.24 3.962 6.064 6.208.94 1.113-.092 2.405-.916 3.201-11.116 10.99-22.24 21.98-33.32 33.007m34.085 25.313c-1.728 1.926-3.532 3.815-5.56 5.424-1.864.444-3.844.341-5.728.071-1.812-.907-3.036-2.651-4.52-3.994-1.056-1.018-2.708-2.548-1.348-4.017 2.296-2.528 4.752-4.941 7.292-7.239.944-.788 2.356-.396 3.12.46a241.463 241.463 0 0 1 6.404 6.359c.824.725 1.276 2.1.34 2.936m-.648-28.832C65.79 79.505 59.602 85.599 53.47 91.74c-1.72 2.092-4.752 1.43-7.112 1.236-2.276-1.45-4.044-3.593-5.872-5.547-1.22-1.145-.08-2.643.86-3.502a4987.64 4987.64 0 0 0 18.488-18.312c1.12-1.082 2.132-2.326 3.488-3.146 1.36-.578 2.352.792 3.256 1.561 2.052 2.179 4.392 4.097 6.264 6.43.824 1.043-.132 2.207-.884 2.944"/></g></svg>