<svg xmlns="http://www.w3.org/2000/svg" xml:space="preserve" viewBox="0 0 177 197"><g fill-rule="evenodd"><path fill="#3cac5a" d="M28 0h121c15 0 28 13 28 28s-13 28-28 28H28C13 56 0 43 0 28S13 0 28 0"/><path fill="#fbbf11" d="M28 73h47c16 0 28 12 28 28 0 15-12 28-28 28H28c-15 0-28-13-28-28 0-16 13-28 28-28"/><path fill="#eb4f41" d="M0 169v-68a28 28 0 0 1 56 0v68a28 28 0 0 1-56 0"/><path fill="#4688f4" d="M120 169v-69c0-15 13-28 28-28 16 0 28 13 28 28v69a28 28 0 0 1-56 0"/><path fill="#1d833c" d="M147 0h2c15 0 28 13 28 28s-13 28-28 28h-2c-15 0-28-13-28-28s13-28 28-28"/><path fill="#fa8426" d="M56 101a28 28 0 0 0-56 0c0 15 13 28 28 28h28v-28"/></g></svg>