<svg xmlns="http://www.w3.org/2000/svg" width="41.543" height="41.543" viewBox="0 0 10.992 10.992"><path d="M5.527 10.987a5.365 5.365 0 100-10.73 5.365 5.365 0 000 10.73" fill="#fff"/><path d="M4.703 6.516h1.974l.577.374H4.615l-1.05 3.315-.134.345C2.123 10.043.912 8.867.404 7.546c-.54-1.28-.54-2.888.012-4.174C.935 2.051 2.181.858 3.506.367 4.55-.065 5.947-.11 7.054.23a5.538 5.538 0 013.166 2.462 5.513 5.513 0 01.524 4.446 5.368 5.368 0 01-1.765 2.607l-.143-.225-1.314-2.203 2.028 1.131c.012 0 .018-.013.012-.025L6.904 6.128l3.436.525c.012 0 .017-.006.017-.012l-.022-.017-3.241-1.136 3.367-.813c.012 0 .012-.011.006-.017l-3.454.225L9.487 3.02l.23-.185c.006-.011-.017-.017-.023-.005L7.128 4.133l-.473.237 1.678-2.959c0-.005 0-.017-.01-.01L6.13 3.97 6.55.594c0-.006-.011-.012-.023-.006L5.52 3.867l-.283-1.014-.6-2.364c-.005-.006-.017-.012-.023 0l.018.287.225 3.218-2.082-2.709c-.006-.006-.012 0-.018.005L4.332 4.29 1.356 2.662c-.006 0-.017.007-.017.012l2.375 1.95.271.223-3.378-.356c-.013.006-.013.016 0 .022l3.275.958-3.258.957c-.006.005-.006.017 0 .022l3.361-.391L1.345 8.3c-.006 0-.012.012 0 .019l.035-.012L3.495 7.2l.496-.79h.565l-.391-.276 1.308-2.1-.772 2.48.002.002"/></svg>