<svg width="402.73" height="402.73" viewBox="-1.594 -1.594 53.149 53.135" xmlns="http://www.w3.org/2000/svg"><path d="M24.99-1.601c-14.65 0-26.526 11.898-26.526 26.574 0 9.203 4.67 17.312 11.764 22.082.105.07.213.134.318.201a35.406 35.406 0 01-4.254-16.86c0-14.084 8.203-26.25 20.084-31.962A26.784 26.784 0 0024.99-1.6zm8.48 1.395C22.109 2.847 13.255 12.098 10.751 23.692c4.279-7.718 12.492-12.943 21.93-12.943 7.074 0 13.459 2.94 18.018 7.66C48.479 9.66 41.93 2.65 33.47-.206zm-.79 14.705c-11.762 0-21.33 9.587-21.33 21.37a21.322 21.322 0 005.618 14.438h.002l.002.002c.049.017.1.031.148.047v.002h.002a26.467 26.467 0 007.868 1.19c14.368 0 26.062-11.45 26.506-25.737C47.898 19.085 40.815 14.5 32.68 14.5z" fill="#14cc14"/></svg>