<svg xmlns="http://www.w3.org/2000/svg" width="42.051" height="42.051" fill="none"><path d="M6.41 9.914v12.345a.521.521 0 0 0 .519.519h12.345a.51.51 0 0 0 .288-.088.514.514 0 0 0 .079-.798L7.295 9.548a.53.53 0 0 0-.265-.14.511.511 0 0 0-.3.03.52.52 0 0 0-.321.476z" fill="#ab1a2d"/><path d="m11.247 10.558 9.674 9.67a.52.52 0 0 0 .887-.367V.519a.515.515 0 0 0-.321-.479.515.515 0 0 0-.566.112l-9.674 9.666a.517.517 0 0 0 0 .74z" fill="#ea0a2a"/><path d="M24.27 8.684v11.177a.52.52 0 0 0 .621.51c.1-.02.193-.07.265-.143L36.334 9.051a.515.515 0 0 0 .112-.566.516.516 0 0 0-.48-.321H24.79a.521.521 0 0 0-.52.52z" fill="#d6202a"/><path d="M26.8 22.778h14.013a.51.51 0 0 0 .288-.088.512.512 0 0 0 .19-.233.513.513 0 0 0-.111-.565l-7.006-7.006a.52.52 0 0 0-.735 0l-7.006 7.006a.517.517 0 0 0 .079.799.522.522 0 0 0 .29.087z" fill="#a32135"/><path d="m26.433 25.738 7.927 7.928a.513.513 0 0 0 .566.113.516.516 0 0 0 .322-.481v-7.921a.529.529 0 0 0-.152-.368.53.53 0 0 0-.368-.152H26.8a.526.526 0 0 0-.475.319.512.512 0 0 0-.03.297.51.51 0 0 0 .137.265z" fill="#f12535"/><path d="m32.036 34.285-6.88-6.88a.521.521 0 0 0-.567-.113.528.528 0 0 0-.32.479v13.761a.522.522 0 0 0 .32.479.515.515 0 0 0 .566-.112l6.88-6.88a.518.518 0 0 0 0-.734z" fill="#911a1c"/><path d="M21.804 38.432V27.774a.51.51 0 0 0-.088-.288.514.514 0 0 0-.798-.079l-10.66 10.658a.513.513 0 0 0-.113.566.516.516 0 0 0 .48.322h10.658a.529.529 0 0 0 .368-.153.512.512 0 0 0 .152-.368z" fill="#c20f2f"/><path d="M19.274 24.857H1.234a.516.516 0 0 0-.285.089.532.532 0 0 0-.19.23.53.53 0 0 0 .107.562l9.02 9.02a.515.515 0 0 0 .736 0l9.019-9.02a.525.525 0 0 0 .107-.561.523.523 0 0 0-.474-.32z" fill="#d82336"/></svg>