<svg xmlns="http://www.w3.org/2000/svg" height="63" width="63"><linearGradient id="a" gradientUnits="userSpaceOnUse" x1="53.648" x2="9.165" y1="53.742" y2="9.259" gradientTransform="translate(.093)"><stop offset="0" stop-color="#db9b28"/><stop offset=".43" stop-color="#f9ba1a"/><stop offset="1" stop-color="#fed401"/></linearGradient><path d="M31.503 0C14.152 0 .093 14.102.093 31.5c0 17.4 14.06 31.5 31.41 31.5 17.34 0 31.404-14.1 31.404-31.5C62.907 14.102 48.843 0 31.503 0zM22.93 9.165c3.467 0 6.279 2.819 6.279 6.297 0 3.478-2.811 6.297-6.28 6.297-3.466 0-6.277-2.819-6.277-6.297-.001-3.478 2.81-6.297 6.278-6.297zM7.277 31.294c0-3.478 2.81-6.297 6.277-6.297 3.468 0 6.28 2.819 6.28 6.297 0 3.478-2.811 6.297-6.28 6.297-3.467 0-6.277-2.819-6.277-6.297zM23.093 53.61c-3.467 0-6.279-2.819-6.279-6.297 0-3.478 2.811-6.297 6.28-6.297 3.468 0 6.278 2.819 6.278 6.297 0 3.478-2.812 6.297-6.279 6.297zm14.79-18.465H27.28V28.54h10.603zm3.466 16.058l-2.723-5.447c5.205-2.623 8.785-8.013 8.785-14.255 0-6.242-3.58-11.632-8.785-14.256l2.723-5.447C48.54 15.42 53.477 22.88 53.477 31.5c0 8.622-4.936 16.081-12.126 19.703z" fill="url(#a)"/></svg>