<svg xmlns="http://www.w3.org/2000/svg" width="82.83" height="82.831" xmlns:v="https://vecta.io/nano"><path d="M42.148 79.453c20.205 0 36.585-16.577 36.585-37.027S62.353 5.398 42.148 5.398 5.563 21.977 5.563 42.426s16.38 37.028 36.585 37.028"/><path d="M0 41.419c0 22.869 18.544 41.411 41.416 41.411S82.83 64.288 82.83 41.419 64.289-.001 41.417-.001 0 18.548 0 41.419m7.633 0c0-18.657 15.124-33.786 33.784-33.786 18.655 0 33.783 15.129 33.783 33.786S60.072 75.198 41.417 75.198c-18.66 0-33.784-15.119-33.784-33.779m40.998-10.71v3.404h-3.185v24.545c0 7.703 4.006 3.653 4.006 6.386v1.074H29.435v-1.074c0-2.734 3.279 1.088 3.279-6.386V34.113h-3.499v-1.095c0-3.674 3.636.194 3.636-4.842v-1.509c0-6.604 5.693-11.983 13.296-11.983 3.945 0 8.425 2.425 8.532 6.1.075 2.36-1.714 4.657-4.23 4.657-2.508 0-3.999-1.344-4.375-4.377-.093-.709-.671-3.891-2.559-3.564-1.199.2-1.371 1.532-1.085 2.49.725 2.455 3.014 5.669 3.014 9.541v1.178h3.185z" fill="#fdc300"/></svg>