<svg xmlns="http://www.w3.org/2000/svg" viewBox="0 0 692 297"><path fill="#0b1560" d="M466 .4c-32.7.8-40.3 1.3-48 3.3a84.7 84.7 0 0 0-23 10c-10.4 7-33.9 31.8-77.5 81.8-82.2 94.4-82.3 94.5-91.4 97.9-9.2 3.4-19.8 4.2-70.6 5a999 999 0 0 0-53.4 2c-8.5 2-18.5 10.9-69.1 61l-33 33 4 .6c16.6 2.5 163.7 2.9 213.2.5 30.2-1.4 39-3.3 52.8-11.4 13.9-8.2 27.1-21.5 57.9-58.2l16-19.2 6.1-.5c3.3-.3 25.5-.8 49.3-1.1 44.7-.6 60.4-1.5 72.5-4 15.1-3.1 28.6-11.8 45.9-29.2 16-16.2 33.8-37.2 33.8-40 0-2-12.5-2.3-79.9-2.4l-73-.7-5.4-.7 4.9-5.5 16.7-18.3 11.9-12.7h56.7c96.1-.1 117.2-2 138.2-12.6 13.6-6.8 25.5-18.3 47.8-46.2 15.9-20 23.4-30.3 22.5-31.2C690.7.3 508.2-.5 466 .4z"/></svg>