<svg xmlns="http://www.w3.org/2000/svg" version="1.1" id="Layer_1" x="0" y="0" xml:space="preserve" width="197.1" height="197.1"><style type="text/css" id="style13556">.st0{fill-rule:evenodd;clip-rule:evenodd;fill:#00408a}</style><g id="g14222" transform="translate(0 45.2)"><path id="polygon13558" class="st0" clip-rule="evenodd" fill="#00408a" fill-rule="evenodd" d="M53.1 70L4.8 53.4l48.1-16.6z"/><path id="polygon13560" class="st0" clip-rule="evenodd" fill="#00408a" fill-rule="evenodd" d="M99.9 20.6L153 2.2v102.3L99.7 86.1l42.5-14.6V35.1z"/><path id="polygon13562" class="st0" clip-rule="evenodd" fill="#00408a" fill-rule="evenodd" d="M154.2 67.9l42.9-14.1-42.9-13.9-56.3-19.6L41.3.9v39l.1 28v38.8l56.4-19.6z"/><path id="polygon13564" class="st0" clip-rule="evenodd" fill="#00408a" fill-rule="evenodd" d="M53.1 70L4.8 53.4l48.1-16.6z"/><path id="path13566" d="M51.4 39c0 3.5.1 25.3.1 28.9-3.4-1.2-35.3-12.2-42-14.5C16.2 51.1 48 40.2 51.4 39zM0 53.4l54.6 18.8-.2-37.5z" class="st0" clip-rule="evenodd" fill="#00408a" fill-rule="evenodd"/><path id="polygon13568" class="st0" clip-rule="evenodd" fill="#00408a" fill-rule="evenodd" d="M99.9 20.6L153 2.2v102.3L99.7 86.1l42.5-14.6V35.1z"/><path id="path13570" d="M151.4 4.3v98c-3.5-1.2-40.1-13.9-47-16.2 6.9-2.4 39.3-13.5 39.3-13.5V34s-32.2-11.1-39.1-13.4c6.9-2.4 43.3-15 46.8-16.3zM95.1 20.6s43.5 14.9 45.5 15.6v34.2c-2 .7-45.6 15.7-45.6 15.7l59.5 20.6V0z" class="st0" clip-rule="evenodd" fill="#00408a" fill-rule="evenodd"/><path id="polygon13572" class="st0" clip-rule="evenodd" fill="#00408a" fill-rule="evenodd" d="M154.2 67.9l42.9-14.1-42.9-13.9-56.3-19.6L41.3.9v39l.1 28v38.8l56.4-19.6z"/><path id="path13574" d="M99.9 20.6l42.3 14.5v36.4L99.7 86.1l53.2 18.4V2.2zM4.8 53.4L53.1 70 53 36.8zm117.8-11.9h.3c4.1-.6 4.9 7.3 4.9 9.9 0 3.9-.4 9.3-4.6 10.6 0 0-.1 0-.3.1-4.8 1-4.8-8.7-4.8-11.6 0-3.7.8-8 4.5-9zm.2 21.6c.4-.1.7-.1 1-.3 4.9-2 8.4-7.7 8.5-13.3v-.9c0-1.5-.3-2.8-.8-4.1-1.4-3.6-5.2-4.9-8.7-4.2-.4.1-.8.3-1.3.4-4.2 1.7-7.1 6.2-7.8 10.9-.6 3.5-.3 8.4 2.9 10.7 1.9 1.3 4.1 1.3 6.2.8zm-21.4 7.7c1.1-.1 2.8-1.3 3.5-2 1.1-1.3 2.4-3.8 3.1-6.7-1.4-.4.4.1-1.1-.3-.3 1.2-1 2.5-1.3 3-.3.4-1 1.5-1.4 1.6l-.6.1c-.4-.1-.4-2.5-.3-3.2V44.9c-3.9 1.7-4.6 1.9-8.7 3.8.2.9.1 1 .1.8 0 .2.1.4.2.8l.7-.1c.6-.1 1.4-.3 1.5-.3.8-.1.8 1 .8 2.5v13.3c0 1.6-.3 4.4 1 4.8.1 0 1.2.5 2.5.3zm-6.6-21.3c-.2-.7-.1-.1 0 0zm6.7-8c2 0 3.5-1.7 3.5-3.8 0-2-1.5-3.8-3.5-3.8-2.1 0-3.6 1.7-3.6 3.8 0 2 1.5 3.8 3.6 3.8zm-38.3-5.1c1.7-.3 2.8-.3 3.6 0 .4.1 1.1.9 1.1 1.6 0 .4.3 1.6.3 2.6v32.3c0 .9.6 5.4-4.8 8.6v2L80.3 78v-2.5c-2.7 0-4.2-1.2-4.2-2.8v-18c1.8-.4 2.9-.7 3.9-.7.8 0 1.8.4 2.4.9.4.3 1 1 1.1 1.6.1.4.6 1.6.7 2.5l.6 2.8H86V42.3h-1.7c-.1 1.4-.3 2.8-.3 3-.1 1-.7 2.2-1 2.9-.4.9-1.4 1.9-2.2 2.3-1.7.9-3.2 1.2-4.9 1.7V36.1c0-1.7 0-2.9 1.7-3.9l.6-.3c2.8-1.7 5.9-.7 7.4.1 1.7.7 3.2 4.4 3.8 7.3l.3 1.2H91V24.9l-27.9 9.7v1.8z" clip-rule="evenodd" fill="#fff" fill-rule="evenodd"/></g></svg>