<svg xmlns="http://www.w3.org/2000/svg" width="52.315" height="52.315" viewBox="0 0 13.842 13.842"><path d="M13.842 0H0v12.155c0 .932.755 1.687 1.686 1.687h12.156" fill="#fff"/><path d="M13.041 9.018V.792H5.064a13.012 13.012 0 017.977 8.226" fill="#fe3b1f"/><path d="M12.161 12.99c0-2.084-.56-4.04-1.538-5.725L7.858 9.173v2.976l-2.285-1.735L1.75 12.15l2.203-3.342L2.268 6.93l3.08-.077 2.385-2.897a11.387 11.387 0 00-6.94-2.41V11.84a1.2 1.2 0 001.2 1.201h10.168z" fill="#0050b6"/><path d="M7.857 4.053v2.798l2.552.061a11.538 11.538 0 00-2.552-2.859" fill="#0050b6"/></svg>