<svg xmlns="http://www.w3.org/2000/svg" viewBox="0 0 146.64 153.03"><path d="M130.28 65.39c-.58 9.03-2.92 17.11-7.91 25.9-5.86 10.33-15.09 17.94-23.9 21.85-1.54.68-2.98.93-4.27.68-1.33-.26-2.35-1.13-2.91-2.31-.55-1.16-.48-2.6.05-3.72.55-1.17 1.6-2 3.31-2.84 9.21-4.53 15.28-9.61 20.92-18.05 4.85-7.25 8.17-17.07 9.06-26.35.13-1.32.34-2.26.83-2.85.42-.51 1.04-.78 1.84-.69 2.05.23 3.35 2.71 2.98 8.38zm-53.41 44.63c-9.21.73-18.01-1.65-24.11-7.12-5.17-4.63-7.94-10.9-8.17-18.03-.1-8.19 2.17-14.81 6.99-20.85 8.25-10.32 22.44-16.03 37.78-15.13 1.76.11 3.11-.09 4.11-.71 1.08-.66 1.74-1.8 1.87-3.32.1-1.25-.28-2.55-1.2-3.45-.87-.85-2.2-1.34-4.08-1.46-18.42-1.13-35.42 5.93-45.59 18.66-6.41 8.03-9.02 16.07-9.05 28.38-.02 9.94 0 45.2 0 54.81 0 4.35 1.55 6.61 3.99 7.33 1.72.51 3.09.07 3.87-.84.77-.89 1.19-2.11 1.19-4.22v-36.01c7.94 8.86 22.89 12.29 33.17 10.96 1.74-.23 3.09-.66 3.98-1.49 1-.93 1.44-2.15 1.28-3.72-.13-1.29-.78-2.42-1.75-3.1-.93-.65-2.04-.87-4.28-.69zm30.41-86.18c-1.98-1.85-4.14-2.32-5.7-1.39-.81.48-1.29 1.31-1.39 2.16-.12 1.1.26 2.33 1.26 3.91 5.8 9.11 8.36 21.99 3.51 36.24-3.78 11.11-11.1 19.14-20.62 23.31-10 4.38-17.32 2.53-19.39-1.57-1.78-3.52-.9-9.13 5.06-13.34 4.06-2.88 9.78-4.32 14.93-3.99 2.15.14 3.29-.2 4.19-.75 1.03-.62 1.69-1.74 1.86-3.23.17-1.51-.37-3.01-1.49-3.89-.89-.69-2-1.07-3.66-1.19-7.27-.53-15.21 1.62-21.01 5.72-8.79 6.22-12.03 16.48-7.88 24.7 2.15 4.25 6.34 7.53 12.63 8.55 4.98.8 11.36.21 18.36-2.81 11.87-5.11 20.98-14.89 25.57-28.41 5.97-17.53 2.39-35.96-6.23-44.02zm19.85 95.26c13.8-17.3 19.92-38.11 19.48-56.62-.48-20.05-8.93-37.95-22.97-49.15C108.75 1.46 89.84-2.45 70.57 1.47 50.98 5.45 33.19 16.75 19.48 33.94 8.64 47.54.98 65.85.1 84.07c-.8 16.55 2.98 31.78 12.82 45.19 3.37 4.59 7.2 8.06 8.78 9.41 1.06.91 2.04 1.33 3.12 1.28 1.11-.05 2.11-.57 2.82-1.5.62-.81.8-1.84.67-2.75-.15-1.06-.73-1.99-1.79-2.89-1.25-1.06-4.51-3.99-7.48-8.04-8.58-11.7-12.13-24.46-11.4-40.05.76-16.1 7.46-33.14 17.74-46.03C38.07 22.78 54.32 12.53 72.04 8.92c17.06-3.47 33.81-.05 46.83 10.34 12.21 9.74 19.74 25.52 20.17 43.39.42 17.58-5.63 36.4-18.13 52.07-15.73 19.73-37.92 30.85-60.33 30.74a34 34 0 0 1-3.16-.14c-1.58-.12-2.65.07-3.47.67-.76.56-1.32 1.48-1.4 2.72-.08 1.19.31 2.31 1.13 3.05.77.69 1.82.98 3.31 1.13.89.09 1.72.12 2.63.13 25.11.32 49.7-11.58 67.51-33.92zm-35.23 5.91c-.37-.55-.9-.78-1.56-.78-.56 0-1.22.21-2.08.55-8.72 3.53-19.21 4.67-29.93 2.67-1.51-.28-2.59-.19-3.44.35a3.51 3.51 0 0 0-1.54 2.23c-.3 1.33.12 2.45.82 3.21.62.67 1.56 1.05 2.51 1.27 2.54.58 5.92.88 9.07.88 9.28 0 19.61-2.37 24.76-6.47 1.68-1.33 2.09-2.86 1.39-3.91zM84.53 19.65c-16.65.04-38.7 9.06-51.79 24.59-7.43 8.81-11.29 17.08-13.4 26.68-2.38 10.83-1.75 21.76.76 29.57.62 1.91 1.31 3.43 2.02 4.47 1.22 1.8 2.55 2.31 3.8 2.01.87-.21 1.38-.78 1.58-1.53.21-.81.04-1.83-.29-3.21-2.16-9.09-2.47-18.37-.24-28.54 1.89-8.6 6.24-16.85 12.62-24 10.99-12.32 26.92-20.31 45.02-21.01 2.05-.08 3.51-.46 4.45-1.29.84-.75 1.35-1.78 1.35-3.24 0-1.3-.49-2.58-1.59-3.41-.9-.72-2.24-1.09-4.29-1.09z"/></svg>