<svg xmlns="http://www.w3.org/2000/svg" width="172" height="172"><radialGradient id="a" cx="448.379" cy="94.3" r="68.51" gradientUnits="userSpaceOnUse"><stop offset=".017" stop-color="#6ca8d8"/><stop offset=".293" stop-color="#4d8dc5"/><stop offset=".764" stop-color="#1e63a7"/><stop offset="1" stop-color="#0c539c"/></radialGradient><radialGradient id="b" cx="421.742" cy="85.156" r="79.154" gradientUnits="userSpaceOnUse"><stop offset="0" stop-color="#68c14c"/><stop offset=".056" stop-color="#65bc4a"/><stop offset=".686" stop-color="#478d37"/><stop offset="1" stop-color="#3b7b30"/></radialGradient><path d="M502.7 101.7l-52.9 52.9c-2.4 2.4-6.5.7-6.5-2.7V31.1l59.3 59.3c3.2 3.2 3.2 8.2.1 11.3z" fill="url(#a)" transform="translate(-339.981 .4)"/><path d="M400.2 85.4h12c4.7 0 8.5 3.8 8.5 8.5v73.4c0 3.4-4.1 5.1-6.5 2.7l-62.9-62.9c-5.8-5.8-5.8-15.2 0-21l84.8-84.8c2.6-2.6 7.1-.8 7.1 3v26.9L397 77.5c-2.9 2.9-.9 7.9 3.2 7.9z" fill="url(#b)" transform="translate(-339.981 .4)"/></svg>