<svg xmlns="http://www.w3.org/2000/svg" width="422" height="422" viewBox="0 0 32.537 32.537"><g clip-rule="evenodd" fill-rule="evenodd"><path d="M22.416 25.839s.06-.059.06-.176c0-.176-.177-.117-.47-.293-.059 0-.117-.059-.176-.117-.293-.293-.176-.586-.293-.938l-.176-.412s.411.176 1.056.588c.762.469.528 1.23.528 1.23s.411.234.645-.117c.117-.176.234-.41.352-.586.293-.645.176-1.291.176-1.291s-.059-.234-.234-.645c-.176-.352-.527-.703-.527-.703-.88-.763-2.229-.587-3.343-.998-.645-.293-1.055-.645-1.055-.645s-.293-.176-.469-.293l-.352-.118s-.41-.117-.938 0c-.293.118-.586.352-.586.352s.47-.118.762.234c.234.293.293.527.41.821.176.293.411.352.411.352s-.293.117-.646.352c-.469.352-.645.762-.645.762s.528-.293.997 0c.352.234.645.234.645.234s-.527.293-.879.762c-.352.412-.176.764-.176.764s.058-.176.293-.234c.235-.117.528 0 .528 0s-.293.117-.528.586c-.235.352-.586.469-.586.469s.117.176.528.176c.411.059.704-.176.88-.293.233-.176.468-.234.468-.234-.293.938.235 1.23.235 1.23s.117-.352.527-.762c.528-.469 1.173-.469 1.173-.469s.293-.059.762.059c.41.06.643.353.643.353z" fill="#fff"/><path d="M22.416 25.839s.06-.059.06-.176c0-.176-.177-.117-.47-.293-.059 0-.117-.059-.176-.117-.293-.293-.176-.586-.293-.938l-.176-.412s.411.176 1.056.588c.762.469.528 1.23.528 1.23s.411.234.645-.117c.117-.176.234-.41.352-.586.293-.645.176-1.291.176-1.291s-.059-.234-.234-.645c-.176-.352-.527-.703-.527-.703-.88-.763-2.229-.587-3.343-.998-.645-.293-1.055-.645-1.055-.645s-.293-.176-.469-.293l-.352-.118s-.41-.117-.938 0c-.293.118-.586.352-.586.352s.47-.118.762.234c.234.293.293.527.41.821.176.293.411.352.411.352s-.293.117-.646.352c-.469.352-.645.762-.645.762s.528-.293.997 0c.352.234.645.234.645.234s-.527.293-.879.762c-.352.412-.176.764-.176.764s.058-.176.293-.234c.235-.117.528 0 .528 0s-.293.117-.528.586c-.235.352-.586.469-.586.469s.117.176.528.176c.411.059.704-.176.88-.293.233-.176.468-.234.468-.234-.293.938.235 1.23.235 1.23s.117-.352.527-.762c.528-.469 1.173-.469 1.173-.469s.293-.059.762.059c.41.06.643.353.643.353z" fill="#fff"/><path d="M21.83 25.195c-.293-.293-.176-.586-.352-.998-.117-.352-.176-.293-.176-.293s.411.176 1.114.588c.762.469.528 1.23.528 1.23s0 .059.234.059c.176.059.293-.059.234 0 .06.059.117.234.117.234s.235.938-.352 1.291c-.469.293-1.23.176-1.23.176s.644-.117.703-.822c.06-.41-.234-.82-.234-.82s.117-.117.06-.234c-.06-.177-.353-.06-.646-.411zM7.581 16.223c.235.293.293.528.293.528-.234.176-.234.586 0 .88.234.352.293.703.293.703s-.176.234-.117.528c.058.528.293.997.762 1.524.645.704.763 1.114.763 1.114s-.176.293.06.704c.292.469 1.113.821 1.347 1.172.118.469.821.527.88.82.06.354.47.646.704.764.176 0 .352.117.352.293.06.41.88.527 1.29.762 0 0-1.935.703-3.518 1.408-1.524.703-2.462-.412-2.462-.412s.293 1.877 2.11 2.17c.938.176 1.76 0 1.76 0s-.47.469-1.174.881c-.762.41-1.23.234-1.23.234s.41.703 1.7.41a2.917 2.917 0 001.114-.469s0 .352-.586.703c-.528.352-.762.41-.762.41s.352.059.88.352c.351.234.878.41 1.524.352.527-.059 1.114-.527 1.114-.527s-.118.293-.118.41c0 .293.118.41.118.41s.06-.82 1.76-.176c1.758.646 2.58.176 2.58.176s-.294-.176-.47-.352c-.059-.176-.059-.352-.059-.352s.528.469 1.994.117c1.114-.234 1.876-1.055 1.876-1.055s-1.29-.176-2.11-2.229c-.47-1.172-.294-1.877 0-2.346.292-.527.762-.703.762-.703s-.704 0-1.23.527c-.353.352-.47.703-.47.703s-.528-.293-.293-1.172c0 0-.235 0-.469.176-.117.176-.41.352-.82.352-.412-.059-.529-.234-.529-.234s.352-.059.586-.469c.235-.469.47-.586.47-.586s-.235-.059-.47 0-.352.234-.352.234-.118-.293.176-.703c.411-.529.938-.764.938-.764s-.293-.059-.703-.293c-.469-.293-.997 0-.997 0s.234-.41.703-.703c.352-.293.646-.411.646-.411s-.235 0-.41-.293c-.118-.293-.236-.586-.41-.821-.294-.352-.763-.293-.763-.293s.293-.234.586-.293c.528-.176.938-.059.938-.059s-1.524-1.701-2.346-4.104a4.005 4.005 0 01-.234-.586c-1.23-4.515-1.583-4.749-1.583-4.749-.293 0-.293.41-.293.41s-.41-.293-1.7-2.639c-.528-.997-.997-2.639-1.056-2.639-.234.118-.352.352-.41.763v.762s-.822-.879-1.525-2.638c-.469-1.173-.82-2.814-.997-2.697-.293.118-.528.469-.469 1.114.06.587.645 2.346.645 2.346h-.06s-.822-.762-1.408-1.876c-.586-1.114-1.114-2.756-1.23-2.756-.353.117-.646.938.175 2.814.41 1.055.821 1.759.821 1.759s-1.114-.411-1.876-2.404C3.83 1.211 3.713.038 3.713.038s-.235-.117-.41.352c-.235.41-.235 1.583.292 3.049.47 1.466.88 1.994.88 1.994S3.77 5.14 3.184 4.26c-.646-.938-1.056-2.404-1.056-2.404s-.118.059-.235.235c-.117.235-.293.997.176 2.287.293.704.821 1.583.821 1.583s-.469-.235-.762-.586c-.293-.293-.645-.704-.645-.704-.352.117-.059 1.172.293 1.817.293.704.645 1.055 1.173 1.524.527.586.47.938.47.938-.177.234.586 1.055.88 1.231.468.352.644.469.644.469s-.41.176.528.997c.293.176.352.293.352.293s-.704.235.88 1.524c.468.352.527.528.527.528-.293.293-.176.469.117.88.117.176.176.469.176.469s-.293.117 0 .645c0 .061.057.179.057.237zm12.431 5.16c1.114.411 2.463.235 3.343 1.056 0 0-.059-.176-.118-.528-.059-.645.06-.704.704-1.701 1.231-1.642 5.16-5.805 5.805-7.33.293-.645.586-1.759.88-2.814.352-1.407.586-2.697.586-2.697-.352-.234-.704.586-.997 1.466a14.72 14.72 0 01-.234.646s-.059-.293.234-1.466c.234-.997.411-1.29.411-1.29-.234-.176-.763.117-1.114 1.231-.176.645-.352 1.173-.352 1.173s-.059 0-.059-.528c-.059-.527.117-.821.117-.821s-.41 0-.762.762c-.176.411-.293 1.114-.293 1.114-.234-.176-.234-.645-.234-.645-.176 0-.469.352-.587.879-.175.41-.175.997-.175.997-.177-.117-.177-.41-.177-.41s-.352.234-.586 1.055c-.118.528-.118.763-.118.763-.175-.117-.175-.411-.175-.411-.294.117-.587.645-.763 1.466 0 0-.293-.059-.527.235-.176.293-.352.997-.704 1.231-.234-.117-.41.118-.469.176-.176.293-.352.704-.587.879-.117-.059-.352 0-.469.059-.234.176-.41.704-.586.821-.117-.059-.352 0-.469.117-.176.176-.234.411-.41.645-.176-.059-.293 0-.41.176-.235.234-.235.41-.353.586-.235-.059-.352.059-.469.235-.117.117-.176.352-.293.586-.528.117-.704 1.642-.704 1.642s.47.352 1.114.645z" fill="#b59537"/></g></svg>