<svg xmlns="http://www.w3.org/2000/svg" width="334.858" height="334.858"><defs><clipPath id="A"><path d="M100.576 110.435h16.139V94.296h-16.139z"/></clipPath><clipPath id="B"><path d="M74.853 110.435h16.139V94.296h-16.14z"/></clipPath><clipPath id="C"><path d="M49.133 110.435h16.139V94.296h-16.14z"/></clipPath><clipPath id="D"><path d="M23.413 110.435h16.139V94.296h-16.14z"/></clipPath></defs><path d="M330.822 148.601a7.399 7.399 0 0 0-7.397-7.402h-85.4c-15.574 0-28.232 12-28.232 27.574s12.658 27.574 28.232 27.574h68.59c6.676 0 12.102 6.104 12.102 12.77 0 6.676-5.426 12.78-12.102 12.78H221.22a7.4 7.4 0 0 0-7.397 7.39 7.395 7.395 0 0 0 7.397 7.398h85.396c15.574 0 28.243-11.996 28.243-27.568s-12.67-27.565-28.243-27.565h-68.59c-6.667 0-12.096-6.108-12.096-12.779s5.429-12.77 12.096-12.77h85.4a7.398 7.398 0 0 0 7.397-7.402m-150.62-40.349a10.76 10.76 0 0 0-21.519 0 10.76 10.76 0 0 0 21.519 0" fill="#4bcd3e"/><g transform="matrix(1.33333 0 0 -1.33333 -9.71 244.74)"><g clip-path="url(#A)" opacity=".8"><path d="M116.715 102.366a8.068 8.068 0 0 1-8.07 8.07 8.07 8.07 0 0 1-8.07-8.07 8.067 8.067 0 1 1 16.14 0" fill="#4bcd3e"/></g><g clip-path="url(#B)" opacity=".6"><path d="M90.992 102.366a8.072 8.072 0 0 1-8.07 8.07 8.068 8.068 0 0 1-8.07-8.07 8.07 8.07 0 0 1 16.14 0" fill="#4bcd3e"/></g><g clip-path="url(#C)" opacity=".4"><path d="M65.272 102.366a8.068 8.068 0 01-8.07 8.07 8.07 8.07 0 110-16.139 8.067 8.067 0 018.07 8.07" fill="#4bcd3e"/></g><g clip-path="url(#D)" opacity=".2"><path d="M39.552 102.366a8.067 8.067 0 01-8.065 8.07 8.07 8.07 0 110-16.139 8.066 8.066 0 018.065 8.07" fill="#4bcd3e"/></g></g><path d="M121.703 141.204c-.231 0-.452.048-.674.067v-.067H48.403C19.55 141.204 0 160.092 0 188.946v40.346c0 4.451 3.604 8.067 8.06 8.067a8.069 8.069 0 0 0 8.07-8.067v-40.346c0-20.004 12.1-32.948 32.273-32.948h72.626v-.067c.222.02.443.067.674.067a7.399 7.399 0 0 0 7.397-7.396 7.4 7.4 0 0 0-7.397-7.398m-97.502 47.741a7.4 7.4 0 0 0 7.398 7.402h73.962a7.4 7.4 0 0 0 0-14.8H31.6a7.4 7.4 0 0 0-7.398 7.398m137.171-40.344v80.686a8.08 8.08 0 0 0 8.07 8.077 8.08 8.08 0 0 0 8.072-8.077V148.6a8.07 8.07 0 0 0-8.071-8.064c-4.457 0-8.07 3.608-8.07 8.064" fill="#4bcd3e"/></svg>