<svg xmlns="http://www.w3.org/2000/svg" viewBox="0 0 236.213 236.212" width="236.212" height="236.212"><path d="M22.6 123.906l11.9 11.9 25.7-25.6-11.8-11.9-5.4-5.4c-4.3-4.3-6.6-9.9-6.6-16 0-5.3 1.8-10.1 4.9-13.9 4.2-5.3 10.6-8.7 17.8-8.7 6.1 0 11.7 2.4 16.1 6.7l5.3 5.1 11.9 12 25.8-25.6-12-11.9-5.4-5.2c-10.7-10.7-25.4-17.3-41.7-17.3-32.7 0-59.1 26.4-59.1 58.9 0 8.1 1.6 15.8 4.6 22.9 3 7.1 7.3 13.4 12.7 18.7l5.3 5.3" fill="#ea4335"/><path fill="#fbbc04" d="M81.5 140.306l36.7-36.5-25.8-25.7-32.2 32.1-25.7 25.6 13.8 13.9 11.9 11.8 12.4-12.4"/><path fill="#34a853" d="M118.1 218.106l25.8-24.4h-.1l58-57.9-25.8-25.6-57.9 57.8-32.2-32.1-25.7 25.6 32.2 32.2-.1.1z"/><path d="M218.9 118.606c12-12 18.9-30.4 17-49-2.8-28.2-26.2-49.4-54.6-51.3-17.9-1.2-34.3 5.5-45.9 17.1l-43 42.7 25.7 25.7 43-42.8c5.2-5.1 12.4-7.5 19.8-6.3 9.6 1.5 17.4 9.4 18.7 19 1 7.2-1.4 14.2-6.5 19.3l-17.1 17.2 25.8 25.6z" fill="#4285f4"/></svg>