<svg xmlns="http://www.w3.org/2000/svg" width="140.325" height="140.333"><path d="m134.954 108.433-28.548-28.35-26.435 26.434 28.316 28.316c7.333 7.334 19.067 7.334 26.4 0s7.6-19.066.267-26.4m-49.12-27.68c5.87-5.869 5.866-15.386-.007-21.251L31.754 5.5c-7.428-7.854-20.821-7.296-27.89 1.678-5.913 7.506-4.86 18.373 1.897 25.13L43.58 70.13a.052.052 0 0 1 0 .074L5.79 107.996c-7.47 7.472-7.725 19.957-.047 27.216 7.329 6.973 18.888 6.805 26.01-.379l54.08-54.08M135.065 5.89c-7.258-7.678-19.744-7.424-27.214.048L80.04 33.747a.053.053 0 0 0 0 .076l26.324 26.324a.053.053 0 0 0 .076 0L134.687 31.9c7.183-7.123 7.35-18.682.377-26.01" fill="#f36528"/></svg>