<svg xmlns="http://www.w3.org/2000/svg" viewBox="0 0 256 256"><path d="M0 0 C0.69351563 0.60070312 1.38703125 1.20140625 2.1015625 1.8203125 C18.08944299 16.53425829 26.71175511 38.40625547 28.2734375 59.734375 C30.11731283 110.90351054 -13.91360797 163.95580585 -43 203 C-43.67788574 203.91023926 -44.35577148 204.82047852 -45.05419922 205.75830078 C-47.23636854 208.67839236 -49.42836247 211.59077967 -51.625 214.5 C-52.65693481 215.87369751 -52.65693481 215.87369751 -53.7097168 217.27514648 C-54.35465088 218.12278564 -54.99958496 218.9704248 -55.6640625 219.84375 C-56.23592285 220.59849609 -56.8077832 221.35324219 -57.39697266 222.13085938 C-59 224 -59 224 -62 226 C-66.32689595 220.25062557 -70.64294761 214.49324006 -74.95263672 208.73095703 C-76.76471071 206.31384998 -78.58595076 203.904045 -80.41015625 201.49609375 C-90.83973854 187.64029332 -100.41824332 173.21841738 -109.89135742 158.69915771 C-110.89913896 157.15458437 -111.90939352 155.61162531 -112.91992188 154.06884766 C-132.8853036 123.40125081 -156.65488242 85.13190509 -148.81762695 47.15039062 C-144.73856302 29.78528907 -136.6438401 14.66501906 -124 2 C-123.24074219 1.22914062 -122.48148438 0.45828125 -121.69921875 -0.3359375 C-88.00678149 -32.64979713 -33.65632958 -30.60656508 0 0 Z " fill="#FEBB00" transform="translate(189,27)"/><path d="M0 0 C1.53602881 1.12538151 3.05719337 2.27134391 4.5625 3.4375 C5.80386719 4.36369141 5.80386719 4.36369141 7.0703125 5.30859375 C19.13032246 15.61063987 26.63411223 31.78107578 27.87890625 47.41015625 C28.59804341 65.04633296 23.90164332 81.33027385 12.125 94.8125 C10.62297097 96.37249324 9.10318367 97.91567085 7.5625 99.4375 C6.94890625 100.07300781 6.3353125 100.70851563 5.703125 101.36328125 C-5.63415727 112.28873916 -20.88580938 116.97308827 -36.25 116.875 C-37.34892578 116.89498047 -38.44785156 116.91496094 -39.58007812 116.93554688 C-56.47941802 116.92558851 -71.42089469 109.02748027 -83.4375 97.4375 C-97.448829 81.51157946 -101.65942196 64.15399303 -100.4375 43.4375 C-98.4038675 27.4482977 -89.06396883 12.66269043 -76.9453125 2.3515625 C-72.36790606 -1.14209662 -67.57410585 -3.97123651 -62.4375 -6.5625 C-61.58285156 -6.99949219 -60.72820312 -7.43648437 -59.84765625 -7.88671875 C-41.36077379 -15.62351978 -16.10806361 -11.17017506 0 0 Z " fill="#544FBB" transform="translate(164.4375,38.5625)"/><path d="M0 0 C1.18239258 0.01244751 1.18239258 0.01244751 2.38867188 0.02514648 C13.19441304 0.33650962 22.10339555 4.22250575 30.1875 11.4375 C32.93606942 14.5704479 35.12244608 17.82228624 37.1875 21.4375 C37.83912109 22.55898437 37.83912109 22.55898437 38.50390625 23.703125 C42.74538546 32.39298485 42.78147469 44.29235964 40 53.5 C38.24169182 57.78794966 35.83422038 61.64692885 33.1875 65.4375 C32.61 66.30375 32.0325 67.17 31.4375 68.0625 C28.10322454 71.58201298 24.36551941 74.00919254 20.1875 76.4375 C19.12789062 77.06591797 19.12789062 77.06591797 18.046875 77.70703125 C9.16046763 82.1036279 -2.39657462 81.78948428 -11.9453125 79.77734375 C-23.16078901 75.71656777 -31.95343511 66.64405195 -37.25 56.125 C-40.56540017 46.98253285 -40.56540017 33.89246715 -37.25 24.75 C-36.125 22.52734375 -36.125 22.52734375 -34.8125 20.4375 C-34.338125 19.67566406 -33.86375 18.91382812 -33.375 18.12890625 C-25.41827696 6.78675057 -13.84215792 -0.18927154 0 0 Z " fill="#FDFBFC" transform="translate(126.8125,48.5625)"/><path d="M0 0 C3.90387701 2.95171189 7.35807825 6.52865649 9.5625 10.9375 C10.21940809 18.63732434 10.46174031 24.74898592 5.5625 30.9375 C0.78139259 35.7061241 -3.04064799 37.10296691 -9.75 37.25 C-17.05961147 37.17698501 -19.97546945 35.28762007 -25.1875 30.3125 C-28.6838502 25.83174052 -29.5758151 20.38280341 -29.3515625 14.796875 C-28.32125662 8.98137071 -24.74996651 4.81326104 -20.4375 0.9375 C-14.74283836 -2.82243686 -6.23853714 -1.92827512 0 0 Z " fill="#B90A0A" transform="translate(137.4375,71.0625)"/></svg>
