<svg xmlns="http://www.w3.org/2000/svg" viewBox="0 0 321.1 317.8"><path fill="#00a1de" d="m192 138.1-24.6-32.9L94.9 5.3A10.6 10.6 0 0 0 85.5.1h-66c-7 0-8.8 4.6-4 10.5l100.7 138.7c40.3 51.5 26.5 77.7 24.3 81.2l51.4-69.9a18.6 18.6 0 0 0 0-22.5"/><path fill="#00549f" d="M116.2 149.4 1.8 307.3c-3.5 5.8-1.8 10.5 5.3 10.5h65.3c4 0 7-2.8 8.8-5.2l59-81.6.3-.4c2.2-3.5 16-29.8-24.3-81.2"/><path fill="#333" d="M218.6 114.9a7.1 7.1 0 0 0 11.4 0l75.8-104.4c4.7-5.8 2.9-10.5-4.1-10.5h-66c-4 0-7 1.7-9.3 5.2L184.2 63a4.2 4.2 0 0 0 0 5zm100.8 192.4L230 183.9a7 7 0 0 0-11.4 0l-34.4 47.2a4.2 4.2 0 0 0 0 5l55.7 76.5c2.3 3 4.7 5.2 8.8 5.2H314c7.2 0 8.9-4.7 5.4-10.5"/></svg>