<svg xmlns="http://www.w3.org/2000/svg" xml:space="preserve" id="katman_1" x="0" y="0" style="enable-background:new 0 0 1200 800" version="1.0" viewBox="0 0 1200 800"><style>.st0{fill:#1d1d1b}</style><g transform="translate(-2.5 -2.826)"><path d="M1052.4 474.8c-1.8-1.3-3.8-1.8-6.1-1.8-2 0-3.8.5-5.3 1.3s-2.5 1.8-3.5 3c-1 1.3-1.5 2.8-2 4.6-.5 1.8-.8 3.3-.8 5.1 0 2 .3 3.8.8 5.6.5 1.8 1.3 3.3 2 4.6 1 1.3 2 2.3 3.5 3 1.5.8 3.3 1.3 5.3 1.3 1.5 0 2.8-.3 4.1-.8 1.3-.5 2.3-1.3 3-2 .8-.8 1.5-2 2-3 .5-1.3.8-2.5.8-4.1h4.6c-.5 4.3-2 7.6-4.6 10.1-2.5 2.3-6.1 3.5-10.4 3.5-2.5 0-5.1-.5-6.8-1.3-2-1-3.5-2.3-4.8-3.8-1.3-1.5-2.3-3.5-3-5.6-.8-2.3-1-4.6-1-7.1s.3-4.8 1-7.1c.8-2.3 1.8-4.1 3-5.8 1.3-1.5 3-3 5.1-3.8 2-1 4.3-1.5 6.8-1.5 1.8 0 3.5.3 5.1.8s3 1.3 4.3 2c1.3 1 2.3 2 3 3.5.8 1.3 1.3 3 1.5 4.8h-4.6c-.2-2.5-1.2-4.3-3-5.5zm-33.2-4.8h4.6v34.2h-4.6V470zm-23.3 14.6h15.7v3.8h-15.7v15.7h-4.6V470h22.5v3.8h-18l.1 10.8zm-27.6 0H984v3.8h-15.7v15.7h-4.6V470h22.6v3.8h-18v10.8zm-17 9.2h-14.4l-3.8 10.4h-4.6l13.4-34.2h5.1l13.4 34.2h-5.1l-4-10.4zm-7.1-19.8-5.8 16H950l-5.8-16zm-22.8 28.6c0-.5-.3-1.3-.3-2v-2.5c0-.8-.3-1.8-.3-2.5-.3-.8-.3-1.5-.5-2.3-.3-.8-.5-1.5-1-2s-1-1-1.5-1.3c-.8-.3-1.5-.5-2.8-.5h-11.1v14.7h-4.6V470h16.2c3.3 0 5.8.8 7.6 2.3 1.8 1.5 2.8 3.8 2.8 6.6 0 2-.5 3.8-1.5 5.6-1 1.5-2.5 2.5-4.6 3.3 1 .3 1.8.5 2.5 1l1.5 1.5c.3.5.8 1.3.8 2 .3.8.3 1.5.5 2.3 0 .8 0 1.8.3 2.5 0 .8 0 1.8.3 2.5.3.8.3 1.5.5 2.3.3.8.5 1.5 1 2h-5.1c-.4 0-.7-.5-.7-1.3zm-.7-20c.5-.8.8-1.8.8-3 0-1.8-.5-3-1.5-4.3-1-1-2.5-1.5-4.6-1.5H904v11.9h9.4c1 0 2 0 3-.3s1.8-.5 2.5-1c.8-.3 1.3-1 1.8-1.8zm-36.8 21.6h-4.6v-30.4H868V470h27.4v3.8H884v30.4zm-37-1.6c0-.5-.3-1.3-.3-2v-2.5c0-.8-.3-1.8-.3-2.5-.3-.8-.3-1.5-.5-2.3-.3-.8-.5-1.5-1-2s-1-1-1.5-1.3c-.8-.3-1.5-.5-2.8-.5h-11.1v14.7h-4.6V470H841c3.3 0 5.8.8 7.6 2.3s2.8 3.8 2.8 6.6c0 2-.5 3.8-1.5 5.6-1 1.5-2.5 2.5-4.6 3.3 1 .3 1.8.5 2.5 1l1.5 1.5c.3.5.8 1.3.8 2 .3.8.3 1.5.5 2.3 0 .8 0 1.8.3 2.5 0 .8 0 1.8.3 2.5.3.8.3 1.5.5 2.3.3.8.5 1.5 1 2h-5.1c-.1 0-.4-.5-.7-1.3zm-.5-20c.5-.8.8-1.8.8-3 0-1.8-.5-3-1.5-4.3-1-1-2.5-1.5-4.6-1.5h-11.4v11.9h9.4c1 0 2 0 3-.3s1.8-.5 2.5-1c.8-.3 1.3-1 1.8-1.8zM812.5 470h4.6v34.2h-4.6V470zm-12.4 23.8h-14.4l-3.8 10.4h-4.6l13.4-34.2h5.1l13.4 34.2h-5.1l-4-10.4zM793 474l-5.8 16h11.7l-5.9-16zm-55-4h23.6v3.8h-19v10.9h17.7v3.8h-17.7v11.9h19.3v3.8H738V470zm-21 34.2L705.1 470h4.8l9.9 29.6 9.9-29.6h4.8l-12.2 34.2H717zM696.2 470h4.6v34.2h-4.6V470zm-27.1 0h4.6v30.4h18v3.8h-22.5l-.1-34.2zM361.6 369.6H373V383h-11.4v66.9h-15.5V383h-11.4v-13.4h11.4v-21.3h.3c.3-3 1-6.1 2.3-8.6 1.3-2.8 3-5.1 5.1-7.1 2-2 4.6-3.5 7.3-4.8 2.8-1 5.6-1.8 8.9-1.8h1.5c.5 0 1 .3 1.5.3v14.4c-.5-.3-1-.3-1.5-.5-.5 0-1-.3-1.5-.3-2.3 0-4.1.8-5.8 2.5-1.5 1.8-2.3 3.5-2.3 5.8v1h-.3v20.4zm27.4 80.3V326.6h15.5v123.6H389v-.3zm40.5-97.2c-2.5 0-4.6-.8-6.1-2.5-1.5-1.8-2.3-3.5-2.3-6.1 0-2.3.8-4.3 2.3-6.1 1.5-1.8 3.5-2.5 5.8-2.5s4.3.8 6.1 2.5c1.8 1.8 2.5 3.5 2.5 6.1 0 2.3-.8 4.3-2.5 6.1-1.5 1.5-3.5 2.5-5.8 2.5zm-7.9 13.1h15.5l-.3 84.4h-15.5l.3-84.4zm80.3.3v99.3c-.3 3-1 5.8-2.3 8.4-1.3 2.5-3 4.8-5.1 6.8-2 2-4.3 3.5-7.1 4.6-2.8 1-5.6 1.8-8.6 1.8h-3v-14.4c.8.5 1.8.8 3 .8 2.3 0 4.1-.8 5.6-2.3 1.5-1.5 2.3-3.5 2.3-5.8v-1h.3v-17.2c-3.5 1.8-7.3 2.8-11.1 2.8-3 0-6.1-.5-8.6-1.8-2.8-1-5.1-2.5-7.1-4.6-2-2-3.5-4.3-4.8-6.8-1.3-2.5-1.8-5.3-1.8-8.4h-.3V387h.3c0-2.8.5-5.6 1.8-8.1s2.8-4.8 4.8-6.8 4.3-3.3 7.1-4.6c2.8-1 5.6-1.5 8.6-1.5 3.8 0 7.3.8 11.1 2.5v-2.3l14.9-.1zm-16.4 20.3c0-1-.3-2-.8-3s-1.3-1.8-2.3-2.3c-1-.8-2-1.3-3.3-1.8-1.3-.5-2.3-.8-3.3-.8-2 0-4.1.8-5.6 2.3-1.5 1.5-2.3 3.3-2.3 5.3v41c0 2 .8 3.8 2.3 5.3 1.5 1.5 3.3 2.3 5.6 2.3 1 0 2.3-.3 3.3-.5 1.3-.3 2.3-1 3.3-1.5 1-.8 1.8-1.5 2.3-2.3.5-1 .8-1.8.8-3v-41zm81-13.5c1.3 1.5 2.8 3.3 3.8 5.1 1 1.8 1.8 3.8 2.5 6.1s1.3 5.1 1.3 8.1V450h-15.7v-58.8c0-1.3-.3-2.3-1-3.3-.8-1-1.5-2-2.5-2.8-1-.8-2-1.5-3.3-1.8-1.3-.5-2.5-.8-3.5-.8-1.3 0-2.5.3-3.8.8-1.5.5-2.8 1-4.1 1.8s-2.3 1.8-3 2.8c-.8 1-1.3 2.3-1.3 3.3V450h-15.5V326.6h15.5v44.3c2-1.3 4.6-2.5 6.8-3.3 2.5-.8 5.1-1 7.6-1 3.3 0 6.3.5 9.1 1.8 2.6 1 5.1 2.5 7.1 4.5zm50.2 34.2v19.8h.3v1c0 2.3.8 4.3 2.3 5.8 1.5 1.8 3.5 2.5 5.8 2.5.5 0 1 0 1.5-.3.5 0 1-.3 1.5-.5v14.7h-3c-3.3 0-6.1-.5-8.9-1.8-2.8-1-5.3-2.8-7.3-4.8s-3.8-4.3-5.1-7.1c-1.3-2.8-2-5.6-2.3-8.6h-.3v-45.1H590V369h11.4v-42.6h15.5v43.3h11.4v13.7h-11.4V407l-.2.1zm55-28.1c-.5 0-1-.3-2-.3-2 0-3.8.5-5.8 1.8-2 1-3.3 2.5-3.8 4.3v65.4h-15.7v-84.1H660v2c3.5-1.8 7.3-2.8 11.4-2.8V379h.3zm13.1 7.9c0-3 .8-5.8 2-8.4 1.3-2.5 2.8-4.8 4.8-6.8s4.3-3.5 7.1-4.6c2.8-1 5.6-1.8 8.9-1.8 4.1 0 7.9 1 11.4 2.8v-2h15.2v84.4H719v-2c-3.8 1.8-7.6 2.5-11.4 2.5-3 0-6.1-.5-8.9-1.8-2.8-1-5.3-2.8-7.3-4.6-2-2-3.8-4.3-5.1-6.8-1.3-2.8-1.8-5.6-1.8-8.4v-42.6l.3.1zm14.7 41.3c0 2 .8 4.1 2.3 5.6 1.5 1.5 3.5 2.3 5.8 2.3 1 0 2.3-.3 3.3-.8 1.3-.5 2.3-1 3.3-1.8s1.8-1.5 2.3-2.5c.8-1 1-2 1-3v-41.8c0-1-.3-2-1-3-.8-1-1.5-1.8-2.3-2.5-1-.8-2-1.3-3.3-1.5-1.3-.3-2.3-.5-3.3-.5-2.3 0-4.1.8-5.8 2.3-1.5 1.5-2.3 3.3-2.3 5.3v41.9zm49.9-4.3v-36.7c0-3 .5-5.8 1.8-8.4 1.3-2.8 2.8-5.1 5.1-7.1 2-2 4.6-3.5 7.3-4.8 2.8-1 5.8-1.8 8.9-1.8 4 0 7.6 1 11.4 2.8v-41.3h15.5v123.6h-15.5v-2c-3.5 1.8-7.3 2.8-11.4 2.8-3 0-6.1-.5-8.9-1.8-2.8-1-5.3-2.8-7.3-4.6-2-2-3.8-4.3-5.1-6.8-1.3-2.5-1.8-5.3-2-8.4v-5.6l.2.1zm14.7 5.8c0 2 .8 4.1 2.3 5.3 1.5 1.5 3.5 2.3 5.8 2.3 1 0 2.3-.3 3.5-.5 1.3-.3 2.3-1 3.3-1.5 1-.8 1.8-1.5 2.3-2.5.8-1 1-2 1-3v-42.1c0-1-.3-2-1-3-.8-1-1.5-1.8-2.3-2.5-1-.8-2-1.3-3.3-1.8-1.3-.5-2.3-.8-3.5-.8-2.3 0-4.1.8-5.8 2.3-1.5 1.5-2.3 3.3-2.3 5.6v42.2zm51.4-42.8c0-3 .8-5.8 2-8.4 1.3-2.5 2.8-4.8 4.8-6.8s4.3-3.5 7.1-4.6c2.8-1 5.8-1.8 8.9-1.8 4.1 0 7.9 1 11.4 2.8v-2h15.2v84.4h-15.2v-2c-3.8 1.8-7.6 2.5-11.4 2.5-3 0-6.1-.5-8.9-1.8-2.8-1-5.3-2.8-7.3-4.6-2-2-3.8-4.3-5.1-6.8-1.3-2.8-1.8-5.6-1.8-8.4v-42.6l.3.1zm14.7 41.3c0 2 .8 4.1 2.3 5.6 1.5 1.5 3.5 2.3 5.8 2.3 1 0 2.3-.3 3.3-.8 1.3-.5 2.3-1 3.3-1.8s1.8-1.5 2.3-2.5c.8-1 1-2 1-3v-41.8c0-1-.3-2-1-3s-1.5-1.8-2.3-2.5c-1-.8-2-1.3-3.3-1.5-1.3-.3-2.3-.5-3.3-.5-2.3 0-4.1.8-5.8 2.3-1.5 1.5-2.3 3.3-2.3 5.3v41.9zm79.3-49.2c-.5 0-1-.3-2-.3-2 0-3.8.5-5.8 1.8-2 1-3.3 2.5-3.8 4.3v65.4h-15.7v-84.1h15.7v2c3.5-1.8 7.3-2.8 11.4-2.8V379h.2z" class="st0"/><path d="M982.5 434.5v14.7h-63.6v-10.9l11.1-10.1c22-20.5 32.4-31.7 32.4-44.1 0-8.4-4.6-15.7-16.7-15.7-8.1 0-15.2 4.1-20 7.9l-5.1-12.4c6.8-5.6 17-9.6 28.9-9.6 20.8 0 30.9 13.2 30.9 28.4 0 16.5-11.9 29.6-28.1 44.8l-8.1 7.1v.3h38.3v-.4zm69.4-8.9v23.8h-16.7v-23.8h-42.3v-11.4l38.2-58.3h20.8v56.5h12.2v13.4h-12.2v-.2zm-16.7-55.2c-2.8 5.8-5.3 10.6-8.1 16l-17.2 25.6-.3.3h25.6v-25.6c0-5.3.3-10.9.5-16.2l-.5-.1z" style="fill:#f8c024"/><path d="M231.9 300.5c-50.2 0-90.9 40.8-90.9 90.9s40.8 90.9 90.9 90.9 90.9-40.8 90.9-90.9c0-50.1-40.7-90.9-90.9-90.9zm0 168.2c-4.6 0-8.9-.5-13.4-1.3l3.8-23.1c3 .5 6.1.8 9.4.8 29.9 0 54.2-24.3 54.2-54.2 0-29.9-24.3-54.2-54.2-54.2-29.9 0-54.2 24.3-54.2 54.2 0 17.5 8.4 32.9 21 42.8l-14.9 18c-18-14.2-29.6-36.2-29.6-60.8 0-42.8 34.7-77.5 77.5-77.5s77.5 34.7 77.5 77.5c-.1 42.8-34.3 77.8-77.1 77.8zm-14.2-57.5c-6.3-4.3-10.4-11.7-10.4-19.8 0-13.4 10.9-24.3 24.3-24.3s24.3 10.9 24.3 24.3-10.9 24.3-24.3 24.3c-1.5 0-3-.3-4.3-.5l3.3-20-12.9 16zm14.2 10.4c13.7 0 25.3-9.1 28.9-21.5.5.8 1.5 1.3 2.5 1.3 1.8 0 3.5-1.5 3.5-3.5s-1.5-3.5-3.5-3.5c-.5 0-1 .3-1.5.5.3-1.3.3-2.3.3-3.5 0-16.7-13.7-30.1-30.1-30.1s-30.1 13.7-30.1 30.1c0 10.1 4.8 19 12.4 24.3l-10.4 12.7c-11.1-8.6-18.2-22-18.2-37 0-4.6.8-9.1 2-13.4.5.3 1 .5 1.5.5 1.8 0 3.5-1.5 3.5-3.5 0-1.5-1-2.8-2.5-3.3 7.3-16 23.6-26.9 42.3-26.9 25.6 0 46.6 21 46.6 46.6 0 19-11.4 35.5-27.9 42.8-.3-1.5-1.8-2.8-3.3-2.8-1.8 0-3.5 1.5-3.5 3.5 0 .5.3 1.3.5 1.8-4.1 1-8.1 1.8-12.4 1.8-2.8 0-5.6-.3-8.1-.8l2.8-16.2c1.2-.2 2.9.1 4.7.1z" class="st0"/><circle cx="183.8" cy="441.1" r="3.5" class="st0"/><circle cx="231.9" cy="391.9" r="3.5" class="st0"/><circle cx="259.3" cy="330.4" r="3.5" class="st0"/><circle cx="198.5" cy="373.7" r="3.5" class="st0"/></g></svg>