<svg xmlns="http://www.w3.org/2000/svg" fill-rule="evenodd" stroke-linecap="round" clip-rule="evenodd" viewBox="0 0 80.324 70.203"><path fill="#2d9edf" fill-rule="nonzero" d="M80.32 24.521c.05.232-.408.965-.887 1.425-.703.684-2.658 2.986-10.432 4.666-7.787 1.678-17.64 3.494-18.362 3.61-.717.114-2.056-.16-2.785 2.133-.721 2.288-9.347 33.296-9.347 33.296l-2.59.552-2.962-32.448S14.548 41.4 12.637 41.363l-4.66 12.405-2.404.295.508-12.558s-2.57-.396-2.99-.477c-.198-.04-.348-.04-.387-.223l-.002-.023c-.024-.168.1-.221.269-.343.347-.242 2.543-1.636 2.543-1.636L0 27.514l2.325-.7 9.25 9.487c1.732-.8 20.055-4.86 20.055-4.86L21.3.535 23.897 0s20.352 24.93 21.94 26.736c1.587 1.8 2.699 1.014 3.406.835.705-.19 10.462-2.48 18.261-4.077 7.804-1.585 10.508-.263 11.428.077.626.23 1.333.699 1.384.93z"/></svg>