<svg xmlns="http://www.w3.org/2000/svg" viewBox="0 0 30.68 30.68"><path d="M19.94 4.53a.55.55 0 1 0 .4.17.56.56 0 0 0-.4-.17zM9.67 11.78a.56.56 0 1 0 .56.56.56.56 0 0 0-.56-.56zM7.19 24.26a.56.56 0 1 0-.56-.55.54.54 0 0 0 .56.55zM15.3 0a15.34 15.34 0 1 0 10.87 4.48A15.35 15.35 0 0 0 15.3 0Zm-5.24 21.72a8.14 8.14 0 0 1-2.48-8.84.53.53 0 0 0 .46.23.56.56 0 1 0 0-1.12.2.2 0 0 0-.1.02 8.13 8.13 0 1 1 10.6 10.94.36.36 0 0 0 .02-.13.56.56 0 0 0-1.12 0 .6.6 0 0 0 .23.46 8.2 8.2 0 0 1-2.38.36 8.3 8.3 0 0 1-1.44-.13l.4-3.12a5.57 5.57 0 0 0 1.06.11 5 5 0 0 0 4.84-3.76.55.55 0 0 0 .46.25.56.56 0 0 0 0-1.12.6.6 0 0 0-.33.1 4.62 4.62 0 0 0 .02-.48 5.01 5.01 0 1 0-8.3 3.78zm1.08-6.23a4.13 4.13 0 1 1 3.24 4.04l.5-3.76a.53.53 0 0 0 .47.23.56.56 0 1 0-.56-.56.57.57 0 0 0 .08.3l-2.3 2.88a4.07 4.07 0 0 1-1.43-3.13zm4.18 12.95a14.96 14.96 0 0 1-2.12-.17l.52-3.92a9.88 9.88 0 0 0 1.58.13 9.02 9.02 0 1 0-5.78-2.09l-2.47 3.09a13 13 0 1 1 8.27 2.96z"/></svg>