<svg xmlns="http://www.w3.org/2000/svg" viewBox="0 0 80.32 70.2"><path fill="#2d9edf" d="M80.32 24.52c.05.23-.4.97-.89 1.43-.7.68-2.66 2.98-10.43 4.66a629.87 629.87 0 0 1-18.36 3.61c-.72.12-2.06-.16-2.79 2.14-.72 2.28-9.34 33.3-9.34 33.3l-2.6.54-2.95-32.44s-18.41 3.64-20.32 3.6l-4.66 12.4-2.4.3.5-12.55s-2.57-.4-2.99-.48c-.2-.04-.35-.04-.39-.22v-.03c-.02-.17.1-.22.27-.34.35-.24 2.54-1.64 2.54-1.64L0 27.51l2.33-.7 9.25 9.5c1.73-.8 20.05-4.87 20.05-4.87L21.3.54 23.9 0s20.35 24.93 21.94 26.74c1.58 1.8 2.7 1.01 3.4.83.7-.19 10.46-2.48 18.26-4.08 7.8-1.58 10.51-.26 11.43.08.63.23 1.33.7 1.39.93z"/></svg>