<svg height="24" viewBox="0 0 72 28" xmlns="http://www.w3.org/2000/svg" fill="none" class="navbar__logo"><path d="M53.6916 9.0644C53.0678 9.0644 52.5571 8.87966 52.1594 8.50925C51.7618 8.13979 51.5625 7.68514 51.5625 7.14818C51.5625 6.61122 51.7618 6.14317 52.1594 5.79285C52.5571 5.44253 53.0678 5.26737 53.6916 5.26737C54.3153 5.26737 54.8356 5.44253 55.2294 5.79285C55.6233 6.14317 55.8206 6.59494 55.8206 7.14818C55.8206 7.70141 55.6233 8.1685 55.2294 8.52648C54.8356 8.88445 54.323 9.0644 53.6916 9.0644Z" fill="var(--fk-color__foreground-1)"></path><path d="M55.2448 22.3681H52.0923C51.9419 22.3681 51.8212 22.2465 51.8212 22.0972V10.6755C51.8212 10.5252 51.9429 10.4046 52.0923 10.4046H55.2448C55.3952 10.4046 55.5159 10.5262 55.5159 10.6755V22.0972C55.5159 22.2475 55.3943 22.3681 55.2448 22.3681Z" fill="var(--fk-color__foreground-1)"></path><path d="M46.2416 22.369H49.394C49.5435 22.369 49.6652 22.2474 49.6652 22.0971V5.88489C49.6652 5.73557 49.5444 5.61401 49.394 5.61401H46.2416C46.0921 5.61401 45.9704 5.73461 45.9704 5.88489V22.0981C45.9704 22.2474 46.0911 22.369 46.2416 22.369Z" fill="var(--fk-color__foreground-1)"></path><path d="M38.6111 8.68846H44.2577C44.4072 8.68846 44.5289 8.56786 44.5289 8.41759V5.88688C44.5289 5.73757 44.4082 5.61601 44.2577 5.61601H35.1042C34.9547 5.61601 34.833 5.73661 34.833 5.88688V22.0982C34.833 22.2475 34.9537 22.369 35.1042 22.369H38.34C38.4894 22.369 38.6111 22.2484 38.6111 22.0982V15.8614H43.5285C43.678 15.8614 43.7997 15.7408 43.7997 15.5905V13.0722C43.7997 12.9229 43.679 12.8013 43.5285 12.8013H38.6111V8.68846Z" fill="var(--fk-color__foreground-1)"></path><path fill-rule="evenodd" clip-rule="evenodd" d="M61.3631 20.9786H61.4101C62.1661 22.1004 63.2651 22.6603 64.7082 22.6603C66.3457 22.6603 67.6575 22.0573 68.6444 20.8494C69.6304 19.6424 70.1238 18.0411 70.1238 16.0474C70.1238 14.2173 69.7013 12.7701 68.8552 11.7067C68.0091 10.6433 66.8095 10.1121 65.2582 10.1121C63.6053 10.1121 62.3223 10.8089 61.4101 12.2034H61.3631V10.6758C61.3631 10.5265 61.2424 10.4049 61.092 10.4049H57.9396C57.7901 10.4049 57.6684 10.5255 57.6684 10.6758V27.6011C57.6684 27.7504 57.7891 27.872 57.9396 27.872H61.092C61.2415 27.872 61.3631 27.7514 61.3631 27.6011V20.9786ZM61.3047 17.0294V16.0713C61.3047 15.1294 61.5442 14.3714 62.0243 13.799C62.5043 13.2266 63.1224 12.9404 63.8784 12.9404C65.5159 12.9404 66.3342 13.9924 66.3342 16.0952C66.3342 17.2869 66.1033 18.2086 65.6386 18.8585C65.1738 19.5084 64.5213 19.8338 63.6791 19.8338C62.97 19.8338 62.397 19.5725 61.9601 19.0509C61.5232 18.5293 61.3047 17.8554 61.3047 17.0294Z" fill="var(--fk-color__foreground-1)"></path><path d="M24.6478 11.885C24.2541 8.89553 22.6886 6.18491 20.2958 4.34938C17.9028 2.51384 14.8786 1.70374 11.8882 2.09731C8.8978 2.49087 6.1863 4.05585 4.35015 6.44798C2.51401 8.84012 1.70365 11.8634 2.09734 14.8528L3.04197 22.0256C3.12993 22.7942 3.07326 23.5724 2.87489 24.3202C2.82261 24.535 2.82334 24.7593 2.87702 24.9738C2.9307 25.1883 3.03571 25.3865 3.18303 25.5514C3.33218 25.715 3.51864 25.8401 3.72655 25.9162C3.93446 25.9923 4.15768 26.0171 4.37723 25.9884L14.8324 24.6124C17.8228 24.2189 20.5343 22.6539 22.3705 20.2617C24.2066 17.8696 25.017 14.8463 24.6233 11.8569L24.6478 11.885Z" fill="url(#paint0_radial_13_47)"></path><path d="M24.6478 11.885C24.2541 8.89553 22.6886 6.18491 20.2958 4.34938C17.9028 2.51384 14.8786 1.70374 11.8882 2.09731C8.8978 2.49087 6.1863 4.05585 4.35015 6.44798C2.51401 8.84012 1.70365 11.8634 2.09734 14.8528L3.04197 22.0256C3.12993 22.7942 3.07326 23.5724 2.87489 24.3202C2.82261 24.535 2.82334 24.7593 2.87702 24.9738C2.9307 25.1883 3.03571 25.3865 3.18303 25.5514C3.33218 25.715 3.51864 25.8401 3.72655 25.9162C3.93446 25.9923 4.15768 26.0171 4.37723 25.9884L14.8324 24.6124C17.8228 24.2189 20.5343 22.6539 22.3705 20.2617C24.2066 17.8696 25.017 14.8463 24.6233 11.8569L24.6478 11.885Z" fill="url(#paint1_radial_13_47)"></path><path d="M24.6478 11.885C24.2541 8.89553 22.6886 6.18491 20.2958 4.34938C17.9028 2.51384 14.8786 1.70374 11.8882 2.09731C8.8978 2.49087 6.1863 4.05585 4.35015 6.44798C2.51401 8.84012 1.70365 11.8634 2.09734 14.8528L3.04197 22.0256C3.12993 22.7942 3.07326 23.5724 2.87489 24.3202C2.82261 24.535 2.82334 24.7593 2.87702 24.9738C2.9307 25.1883 3.03571 25.3865 3.18303 25.5514C3.33218 25.715 3.51864 25.8401 3.72655 25.9162C3.93446 25.9923 4.15768 26.0171 4.37723 25.9884L14.8324 24.6124C17.8228 24.2189 20.5343 22.6539 22.3705 20.2617C24.2066 17.8696 25.017 14.8463 24.6233 11.8569L24.6478 11.885Z" fill="url(#paint2_radial_13_47)"></path><path d="M20.4661 13.0712C20.5312 13.0626 20.5972 13.0673 20.6605 13.0849C20.7236 13.1025 20.7826 13.1327 20.8338 13.1736C20.885 13.2146 20.9273 13.2656 20.9583 13.3233C20.9893 13.3812 21.0082 13.4446 21.014 13.5099C21.0823 15.0552 20.5704 16.5701 19.5789 17.7575C18.5873 18.9449 17.1877 19.719 15.6547 19.9279C14.1197 20.1228 12.5674 19.7372 11.3022 18.8468C10.037 17.9564 9.15039 16.6255 8.81627 15.1153C8.80493 15.0507 8.80679 14.9845 8.82177 14.9207C8.83671 14.8568 8.86447 14.7967 8.90331 14.7438C8.94211 14.691 8.99128 14.6466 9.04773 14.6132C9.10422 14.5798 9.16685 14.5583 9.23188 14.5498L20.4661 13.0712Z" fill="white"></path><defs><radialGradient id="paint0_radial_13_47" cx="0" cy="0" r="1" gradientUnits="userSpaceOnUse" gradientTransform="translate(13.1318 6.57048) rotate(98.9351) scale(19.8027 20.3219)"><stop stop-color="#FD8A7B"></stop><stop offset="0.489583" stop-color="#FF554A"></stop><stop offset="1" stop-color="#D1329E"></stop></radialGradient><radialGradient id="paint1_radial_13_47" cx="0" cy="0" r="1" gradientUnits="userSpaceOnUse" gradientTransform="translate(9.28722 6.41236) rotate(26.5948) scale(12.3988 12.7174)"><stop stop-color="#FED771" stop-opacity="0.75"></stop><stop offset="1" stop-color="#FED771" stop-opacity="0"></stop></radialGradient><radialGradient id="paint2_radial_13_47" cx="0" cy="0" r="1" gradientUnits="userSpaceOnUse" gradientTransform="translate(23.0215 21.1242) rotate(-146.564) scale(19.7668 20.2762)"><stop stop-color="#FC9EE7"></stop><stop offset="1" stop-color="#FC9EE7" stop-opacity="0"></stop></radialGradient></defs></svg>