<svg xmlns="http://www.w3.org/2000/svg" width="117" height="117" xmlns:v="https://vecta.io/nano"><g fill-rule="evenodd"><path d="M116 20.5l-.164-.49-116 .016c-.097.113-.164.228-.18.374l-.016 90c.245 1.6 1.13 3.05 2.3 4.15.048.016.164.025.22.04.602.644 1.46.953 2.28 1.25.61-.032 1.2.228 1.8.164l103.5-.097c1.03.032 2.08-.212 2.97-.715.544-.196.87-.676 1.34-.937.457-.26.586-.798.976-1.14.43-.75.87-1.54.904-2.42a1.44 1.44 0 0 0 .244-.032l-.035-90.2z" fill="#f9d00d"/><path d="M15.4 1.02L9.1 3.4c-.277.048-.422.293-.57.505a4.92 4.92 0 0 1 .032.496l-.016 5.88c.016.49-.05.985.13 1.42-.212.212-.438.422-.7.586l-7.03 4.72c-.406.244-.863.57-.73 1.1-.08.293.065.538.374.457l15.4-.048h22.9l.113-.05c.34.08.683.05 1.04.05l76.2.032c.212-.05.268-.196.196-.457-.025-.26.074-.627-.196-.79-1.15-.538-2.13-1.37-3.22-2.03-.4-.325-.895-.505-1.2-.943-1.12-.634-2.17-1.42-3.28-2.12-.212-.13-.374-.34-.554-.52.097-.342.13-.715.13-1.08l-.016-6.22c.048-.334.032-.708-.26-.92L102 1.298c-.604-.293-1.28-.454-1.93-.554h-83.5c-.358.016-.7.196-1.06.277zm-.1-.277C16.69.305 18.14.598 19.57.5h80c1.6-.065 2.97.83 4.44 1.28l3.58 1.36c.244.097.422.31.602.49v6.5c.016.57-.08 1.16.113 1.72.34.05.52.31.75.52 1.08.49 2 1.3 2.98 1.94l4.48 3.04a2.75 2.75 0 0 1-.113 1.26c-.145.457-.048.943-.097 1.4l-116 .016c-.08-.544.065-1.08-.164-1.6-.032-.422-.18-.985.228-1.28l4.96-3.38 2.93-1.94c.196-.325.13-.73.13-1.1l.016-7.1c.554-.715 1.5-.798 2.3-1.16l4.66-1.75z" fill="#f6f4b6"/><path d="M8.53 4.38c1.44.602 2.97.944 4.43 1.54.782.3 1.03 1.16 1.38 1.85-.35.34-.76.618-1.16.88l-4.52 3.03c-.18-.438-.115-.927-.132-1.4l.016-5.88zM104 5.92l4.43-1.54.016 6.23a4.08 4.08 0 0 1-.129 1.08l-3.84-2.6c-.618-.457-1.3-.798-1.86-1.35.348-.683.6-1.52 1.4-1.83z" fill="#f3b21c"/><path d="M33.5 6.6c1.8-.422 3.8 1.18 3.66 3.05.016 1.85-1.93 3.35-3.7 2.93-.715-.245-1.4-.628-1.85-1.26-.57-.863-.7-2.03-.244-2.97.33-.918 1.22-1.54 2.14-1.75zm46.6 1.02c.747-.83 1.94-1.3 3.05-1 .837.244 1.65.78 2 1.6.724 1.4.164 3.3-1.24 4.04-1.25.683-2.82.358-3.76-.634-.96-1.1-1.02-2.9-.065-4z" fill="#bca531"/><path d="M13.2 8.65c.406-.26.814-.538 1.16-.88l.115.113c.113.847.032 1.7.065 2.56l-.065 7.66c-4.76 0-9.5-.032-14.3 0-.13-.538.325-.863.73-1.1 2.38-1.52 4.66-3.2 7.03-4.72.26-.164.5-.383.7-.595 1.5-1.04 3.02-2.03 4.53-3.03zm88.8-.33c0-.212.05-.392.164-.57.554.554 1.25.895 1.86 1.35l3.84 2.6c.178.18.34.392.554.52l3.28 2.12c.302.438.807.618 1.2.943 1.1.65 2.08 1.5 3.2 2.03.286.164.18.52.196.782-4.75.016-9.5-.016-14.2.016-.08-.65-.032-1.3-.048-1.94l-.016-7.84z" fill="#f7e400"/></g><path d="M80.1 7.62c.747-.83 1.94-1.3 3.05-1 .837.244 1.65.78 2 1.6.724 1.4.164 3.3-1.24 4.04-1.25.683-2.82.358-3.76-.634-.96-1.1-1.02-2.9-.065-4zm-48.7.717c.325-.91 1.2-1.53 2.14-1.74 1.8-.43 3.8 1.17 3.66 3.05.016 1.85-1.93 3.34-3.7 2.92-.715-.244-1.4-.618-1.85-1.25-.57-.87-.7-2.03-.244-2.98zm85 9.76c-4.75.016-9.5-.018-14.2.016-.08-.66-.032-1.3-.048-1.95l-.016-7.85a1 1 0 0 1 .164-.57c.34-.683.602-1.52 1.4-1.83 1.45-.57 2.97-.96 4.43-1.53.048-.332.032-.706-.27-.918l-5.84-2.17c-.61-.293-1.28-.454-1.93-.554h-83.5c-.358.016-.7.196-1.06.277l-6.3 2.37c-.274.048-.422.293-.568.505a4.92 4.92 0 0 1 .032.496c1.43.602 2.97.944 4.43 1.53.78.31 1.02 1.16 1.37 1.85l.113.113c.113.847.032 1.72.065 2.56-.048 2.55.05 5.12-.065 7.67-4.75 0-9.5-.032-14.3 0-.08.293.065.538.374.457l15.4-.048h22.9l.113-.05c.35.08.692.05 1.05.05l76.2.032c.212-.05.277-.196.196-.457z" fill="#fc0" stroke="#f9d00d" stroke-width=".008"/><g fill-rule="evenodd"><path d="M82.5 35.7c1.48-.537-.583 2.08-.813 2.96-2.14 4.06-4.75 8.12-8.74 10.6-3.9 2.9-8.76 4.25-13.5 4.55-3.3.092-6.58-.677-9.56-2.1-6.1-2.8-11.6-7.8-13.5-14.5-.1-.583-.338-2.33.203-.895 2.82 6.35 8.23 11.7 14.9 13.7 2.7.91 5.54 1.08 8.37 1 2.14-.015 4.3-.254 6.4-.76 4.4-1.1 8.44-3.52 11.4-6.98 2.06-2.23 3.54-4.88 4.87-7.58z" fill="#bca531"/><path d="M79.5 50.3c4.85-2.84 10.5-4.2 16.1-4.48 1.82-.164 3.64-.113 5.44.113 1.17.277 2.4.602 3.3 1.4-20.6 1.1-19.4 38-37.1 38.2-12.9.77-26.3-1.7-38.6-1.8l.13-.05 14.6-1.55h18.5c.196-.032.537.064.57-.212l1.5-7.94c.7-3.68 1.82-7.3 3.53-10.7a31.55 31.55 0 0 1 12.1-13zm4 31.3l9.34.016c1.25 0 2.5.683 3.03 1.86l-1.5.738c-3.08-.032-8.84.058-11.9.01.113-.634.875-2.03 1.07-2.63z" fill="#0664ae"/><path d="M84.5 25.7c.186-2.1-3.66-3.45-3.93-.637.116 2.1-.012 4.2-.644 6.22-1.55 5.34-5.84 9.57-11 11.6-8.13 3.17-17.8 2.7-25.3-2-4.8-3-8.82-8.08-8.9-14 .656-1.93-1.2-4.5-3.13-2.9-.98 1.45-.526 3.32-.393 4.97.924 6.06 4.94 11.2 9.9 14.6 5.36 3.6 11.9 5.24 18.4 4.9 5.4-.253 10.9-1.54 15.4-4.66 1.58-.956 3.23-2.46 4.52-3.94 1.28-1.5 2.47-3.26 3.26-5.14.833-1.9 1.36-3.86 1.66-5.84.044-1.05.235-2.1.15-3.16z" fill="#fff"/><path d="M87 48.2c3.8-1.08 7.77-1.4 11.7-1.4 1.36.032 2.74-.065 4.1.194.473.067.927.286 1.4.254.764.618 1.22 1.53 1.56 2.45.757 2.17 1.18 4.43 1.54 6.7.016.91.178 1.94-.31 2.78-.457.814-1.38 1.2-2.24 1.46-3.15.814-6.45.05-9.6.814-2.6.554-5.02 2-6.66 4.07-1.94 2.42-2.98 5.42-3.55 8.43l-1.44 8.05c-.196.61-.31 1.26-.422 1.9l9.26.032c1.18-.032 2.35.032 3.53-.048.648 1.5.503 3.2.29 4.78-.26 1.78-.683 3.55-1.5 5.18-.67 1.38-1.78 2.66-3.3 3.15-.782.31-1.64.242-2.47.242h-8.24c-.438 2-.73 4.07-1.12 6.1l-2.14 11.9a6.14 6.14 0 0 0-.032.561v.016h-21.4l3.3-18.6c-4.44-.016-8.9 0-13.3-.016l-36.7-1.35.032-.106 34-1.8c-.145-.61-.26-1.2-.4-1.82-.113-.374-.57-.293-.863-.342l-10.6-1.5c.228-.18.538-.097.798-.13l8.22-.65c.618-.032 1.23-.145 1.85-.164-.277-.854-.438-1.78-.82-2.57l-17.6-2.66c1.5-.244 3.05-.358 4.57-.52l19.6.016c5.4.072 10.6.305 15.5.13.505-3.26 1.14-6.5 1.7-9.75 1.16-6.06 3.56-12 7.65-16.7 2.3-2.74 5.1-5.03 8.24-6.76 1.8-1.03 3.8-1.74 5.8-2.34z" fill="#1f74ba"/></g><path d="M30.5 25.2c1.33.415 4.37-.627 5.22.325m-4.46 3.7c1.27-.438 4-1.5 5.12-.87m-3.82 4.9c1.78-.564 3.5-1.9 5.23-2.17m-3.27 6.42c1.35-1.62 4.9-4.85 6.75-4.03m-4.9 7.08c1.2-2.2 2.97-2.55 5-3.48m-1.93 5.74c.212-1.58 1.82-3.5 3.34-3.35m-.976 5.56c1.54-1.6 2.72-3.4 4.8-4.04m-.115 6c-.048-1.14 1.13-4.42 2.5-4.24m.976 5.33c-.058-1.35.644-5.4 2.3-5.55m1.3 7.73c-.31-1.9-.293-4.62 1.2-6m3.27 6.43c-.17-1.58-1.73-4.76 0-6m4.8 4.9c-.75-.87-1.2-4.28-.87-5.23m5.44 4.47c-1.3-1.92-1.55-3.38-1.53-5.56m5.34 3.92c-1.25-.814-1.6-3.82-1.2-5.12m4.9 3.5c-.888-1.9-1.84-3.4-1.85-5.56m5.45 2.07c-1.38-.927-3.15-2.6-2.95-4.46m6.75 1.52c-2.1-.464-4.6-2.34-5.88-4.03m7.63.43c-1.5-.325-6.5-2.27-6.2-4.25m7.85.438c-2.1-.773-5.18-1.46-6.86-2.94m7.95-.544c-1.33.113-3.23-.53-4.58-.766-1.5-.26-2.9-.766-4.36-1.1m7.63-1.52c-2.56.155-4.96-.724-7.3-1.53" fill="none" stroke="#cfd1d0" stroke-width=".174"/><path d="M59.5 97.6c.457-.08.91-.08 1.36.016l-3.3 18.1c-.113.644-.91.406-1.35.358l-.048-.49 3.12-17.3.212-.683z" fill="#0664ae" fill-rule="evenodd"/></svg>