<svg xmlns="http://www.w3.org/2000/svg" width="220.1" height="220.1"><g fill="#00aeef"><path class="st0" d="M164.6 184.9c-16.6 14-37.4 21.7-59.3 21.7-24.6 0-47.6-9.6-65-26.9-17.4-17.4-26.9-40.5-26.9-65 0-22 7.7-42.8 21.7-59.3l-8.4-10.7C10.1 63.3 0 87.9 0 114.8 0 173 47.1 220.1 105.3 220.1c26.9 0 51.5-10.1 70.1-26.7zM76.4 27.4a93 93 0 0128.9-4.6c24.6 0 47.6 9.6 65 26.9 17.4 17.4 26.9 40.5 26.9 65a93 93 0 01-4.6 28.9L203 154c4.9-12.1 7.6-25.4 7.6-39.3 0-58.2-47.1-105.3-105.3-105.3-13.9 0-27.2 2.7-39.3 7.6z"/><path class="st0" d="M88.8 59.1L31.6 0l-8.9 13.9c-.8 1.3-.7 3 .3 4.2l49.6 63.7zm-18.6 78.1l-23-17.3L43 127c-.5.8-.4 1.8.3 2.5l19.4 21zm41.3-54.6l-5.3-5.5 1.4-5.6c.6-2.5.8-4.5.6-5.7-.8-3.6-2.5-6.3-2.5-6.3l-50.2 53.8s3.4 3.3 8.3-.5C66 111.1 74.7 104 84 96.3l8.5 10.9zm49 48.2l1.4-5.6c.5-1.9.8-3.5.6-4.6-.6-3.6-2-6.3-2-6.3l-53.8 50.2s3.3 3.4 8.4 0c2.5-1.7 13.1-9.1 23.7-16.7L202 197c1.2 1 2.9 1.1 4.2.3l13.9-8.9zm-77.4 19.5c8.1-6.2 19.4-14.9 29.5-22.7l11.4 8.9 18.7-22.7-6.2-6 2-7.1c1-3.6 1.4-6.4 1.1-8.1-1-5.2-3.3-9-3.3-9l-74 74s2.3 1.9 7.1 0l20.9 19.3c.7.6 1.7.7 2.5.3l7.1-4.2z"/></g></svg>