<svg xmlns="http://www.w3.org/2000/svg" viewBox="0 0 25.9 25.83"><path fill="#c11f1f" d="m19.29 12.9 6.61 1.97-.22 1.2-6.9-.74 5.36 4.38-.64.97-6.05-3.3 3.23 6.08-.94.65-4.36-5.34.72 6.84-1.16.22-2.03-6.6-1.95 6.6-1.2-.22.7-6.84-4.3 5.34-.99-.65 3.26-6.08-6.06 3.3-.65-.97 5.41-4.38-6.91.75L0 14.87l6.53-1.96L0 10.96l.22-1.2 6.91.75-5.4-4.39.64-.97 6.06 3.3-3.26-6.08.99-.65 4.3 5.34-.7-6.84 1.2-.22 1.95 6.6L14.94 0l1.16.22-.72 6.84 4.36-5.34.94.65-3.23 6.08 6.05-3.3.64.97-5.37 4.39 6.91-.76.22 1.21z"/></svg>