<svg xmlns="http://www.w3.org/2000/svg" id="Layer_1" data-name="Layer 1" version="1.1" width="100" height="100"><defs id="defs10141"><clipPath id="clip-path"><path d="M39 23.06v-.13c0-2.52.73-13.73 11.32-20.33.46-.28.93-.54 1.4-.8l.57-.29.83-.4c.64-.29 1.29-.56 2-.81A48.68 48.68 0 0049.8 0 49.81 49.81 0 0039 98.43z" id="path10138" fill="none"/></clipPath><style id="style10136">.cls-2{fill:#38374d}</style></defs><g id="g10172" transform="translate(7.994)"><path class="cls-2" d="M68.82 18.61c5.19 0 7.37 2.56 7.37 2.56L84 11.4c-4.13-5.51-12.31-8-12.31-8S61.49.37 52.45 6C43.67 11.46 43 23.06 43 23.06v75.88l-.08.55a50.44 50.44 0 0018.27-.73V46.67h15V30.14h-15s-.18-6.22.74-8.06c.35-.47 1.7-3.47 6.89-3.47z" id="path10143"/><path class="cls-2" d="M68.82 18.61c5.19 0 7.37 2.56 7.37 2.56L84 11.4c-4.13-5.51-12.31-8-12.31-8S61.49.37 52.45 6C43.67 11.46 43 20.87 43 23.06v75.88l-.08.55a50.44 50.44 0 0018.27-.73V46.67h15V30.14h-15s-.18-6.22.74-8.06c.35-.47 1.7-3.47 6.89-3.47z" id="path10145"/><g clip-path="url(#clip-path)" id="g10157"><path id="rect10147" style="isolation:isolate" fill="#dffb6c" d="M-28.34 7.21H86.01v58.65H-28.34z"/><path d="M-18.51 76s12.12-21 56.36-25.56c44.24-4.56 79.29 1.31 79.29 1.31l-4.59 72.09L-8 119.27z" id="path10149" style="isolation:isolate" fill="#00a1fc"/><path d="M-16.55 56.36S-14.91 68.81 27 70.77c41.91 1.96 77.66 0 77.66 0l22.64-44.56L-4.75-18l-12.12 75.67z" id="path10151" style="isolation:isolate" fill="#73fcff"/><path d="M-6.06 66.19s22.94-19.66 68.81-17c45.87 2.66 36.37-31.5 36.37-31.5L-12.29 8.85z" id="path10153" fill="#dffb6c"/><path d="M-20.15 12.12S7.37 41.28 129.59 32.77C251.81 24.26 137.13-20 137.13-20l-117-52.1z" id="path10155" style="isolation:isolate" fill="#fc4188"/></g></g></svg>