<svg xmlns="http://www.w3.org/2000/svg" viewBox="0 0 89 30"><path fill="#007cc2" d="m36.3 0-4 .9V14c0 4 3 7.2 6.8 7.2s6.8-3.2 6.8-7.2-3-7-6.9-7c-1 0-2 .2-2.8.6V0zm-.1 14.1c0-1.8 1.2-3.3 2.9-3.3S42 12.3 42 14s-1.2 3.4-3 3.4-2.8-1.5-2.8-3.4M15.9 0 12 .9v20.3h3.9zM7.7 0C2.4 0 0 3.2 0 7v14.2h3.9V10.6h4.8V7.1H4c0-2 1.2-3.6 3.8-3.6h3.1V0zm68.9 11.3c0 1.7 1.3 3 3.9 3.6h.2c2.6.8 3.7 1.2 3.7 2.2l-.4.8c-.3.3-1 .5-1.6.5-.2 0-2 0-2.1-1.5v-.2l-3.9 1c.7 2.5 3.4 3.6 6 3.6 2 0 3.7-.6 4.8-1.7a4 4 0 0 0 1.2-3c0-2.9-2.9-3.5-5.3-4.1-1.7-.4-2.5-1-2.5-1.5 0-.6.5-1.2 1.6-1.2 1.4 0 1.7.7 1.8 1.3v.1l3.8-.9C87 7.8 84.6 7 82.3 7c-3.3 0-5.7 1.9-5.7 4.4zM71 8v6.6c0 1.8-.9 2.9-2.6 2.9s-2.5-1-2.5-2.9V7.1l-4 .9v6.6c0 4 2.7 6.7 6.5 6.7 1 0 1.8-.2 2.6-.5v2.4c0 2.3-1.3 3-2.5 3h-1V30h1.1c3.9 0 6.3-2.6 6.3-6.8V7.1l-4 .9zM56.2 8v6.6c0 1.8-.8 2.9-2.5 2.9s-2.6-1-2.6-2.9V7.1l-3.9.9v6.6c0 4 2.6 6.7 6.5 6.7s6.4-2.7 6.4-6.7V7.1zM26.6 8v6.6c0 1.8-.8 2.9-2.5 2.9s-2.6-1-2.6-2.9V7.1l-3.9.9v6.6c0 4 2.6 6.7 6.5 6.7 1 0 1.8-.2 2.5-.5v2.4c0 2.3-1.3 3-2.4 3h-1V30h1c4 0 6.3-2.6 6.3-6.8V7.1z"/></svg>