<svg xmlns="http://www.w3.org/2000/svg" xmlns:xlink="http://www.w3.org/1999/xlink" width="28.56" height="28.56"><defs><path id="a" d="M423.46 22.44h-19.03c-2.22 0-3.31 1.01-4.07 3.94l-.92 3.44c-.03.1.07.17.17.1 0 0 1.1-.74 2.98-.74h16.12c2.02 0 3.52-1.75 3.93-3.27l.92-3.37c0-.03-.03-.1-.1-.1z"/><path id="b" d="M420.28 30.97h-18.17c-2.19 0-3.15.84-4.07 3.94l-.92 3.41c-.04.1.07.17.17.1 0 0 1.16-.74 3.04-.74h14.8c2.32 0 3.92-1.79 4.64-4.42l.62-2.22c.03-.04-.04-.07-.1-.07z"/><path id="c" d="M408.09 39.5h-8.3c-2.16 0-3.25.94-4 3.7l-.79 2.94c0 .07.03.1.1.1h7.93c2.02 0 3.69-1.24 4.44-3.98l.72-2.66c0-.03-.04-.1-.1-.1z"/></defs><g transform="translate(-395 -20.06)" fill="#006643"><use xlink:href="#a" width="100%" height="100%"/><use xlink:href="#b" width="100%" height="100%"/><use xlink:href="#c" width="100%" height="100%"/></g></svg>