<svg xmlns="http://www.w3.org/2000/svg" width="147.402" height="147.402"><path d="M118.72 11.04c-14.56 0-19.6 5.76-25.2 12.64l-1.2 1.52h48.879l3.84-14.16z" fill="#005a96"/><path d="m15.44 119.76-1.12 1.36C10.4 126 7.12 131.198 0 134.078h111.68l3.92-14.32z" fill="#a7a9ac"/><path d="m26.48 106.16-11.6 14.24h100.56l3.84-14.24z" fill="#0097ba"/><path d="m37.52 92.56-11.6 14.24h93.2l3.84-14.24z" fill="#8dc63f"/><path d="M48.56 78.96 37.04 93.2h85.76l3.84-14.24z" fill="#5087c7"/><path d="M59.68 65.36 48.08 79.6h78.4l3.839-14.24z" fill="#f7941e"/><path d="M70.72 51.76 59.12 66h71.039l3.84-14.24z" fill="#00b5de"/><path d="M81.76 38.16 70.16 52.4h63.679l3.84-14.24z" fill="#9e0040"/><path d="M92.8 24.56 81.28 38.8h56.239l3.84-14.24z" fill="#ffd400"/></svg>