<svg xmlns="http://www.w3.org/2000/svg" viewBox="0 0 180 180"><rect width="180" height="180" fill="#0800b9" rx="25.6" ry="25.6"/><path fill="#fff" d="M35.63 135.45v-31.98h35.84V90.88H35.63V76.34A20.87 20.87 0 0 1 56.47 55.5c8.08 0 13.09 3.73 18.11 9.32l.44.49 7.45-9.99-.49-.59C75.73 47.37 66.5 44.44 66.4 44.41a33.47 33.47 0 0 0-43.37 31.91v59.15h12.59Zm87.76 1.66c18.51 0 33.57-15.06 33.57-33.57s-15.06-33.57-33.57-33.57c-3.68 0-7.21.62-10.52 1.72a19.7 19.7 0 0 0-10.44 8.57V44.55h-12.6v58.98a33.6 33.6 0 0 0 33.57 33.57Zm0-54.54c11.56 0 20.97 9.41 20.97 20.97s-9.41 20.97-20.97 20.97-20.97-9.41-20.97-20.97 9.41-20.97 20.97-20.97"/></svg>