<svg xmlns="http://www.w3.org/2000/svg" viewBox="0 0 208 185"><path fill="#0800ba" d="M0 0v185h188.94v-73.33l19.07-19.17-19.07-19.17V0H0z"/><path fill="#fff" d="M70.2 63.2H56.23V40.77h-5.39V68.2H70.2zm-38.86-5.86h13.39v-5.01h-13.4v-6.55h15.1v-5.01H25.95V68.2h5.39zm25.6 47.29a9.53 9.53 0 0 0-6.78-9.16 9.47 9.47 0 0 0 4.72-8.55 9.2 9.2 0 0 0-2.55-6.58 13.92 13.92 0 0 0-10.08-3.51H25.98v38.75h16.98c8.62 0 13.98-4.2 13.98-10.95zm-25.48-22.7h10.43c4.73 0 7.4 1.98 7.4 5.4 0 3.75-2.88 5.98-7.73 5.98h-10.1Zm0 16.62H42.3c4.13 0 9.04.98 9.04 5.7 0 3.75-3.12 5.99-8.31 5.99H31.46Zm82.47-48.65 14.1 18.31h4.44V40.77h-5.31v17.78l-13.68-17.78h-4.86V68.2h5.31zm-36.7 18.31h5.43v-10.9L93.5 40.77h-6.2l-7.33 11.51-7.23-11.51h-6.37L77.23 57.4Zm24.99-27.44h-5.38V68.2h5.38zM63.74 76.71v38.87h26.2v-5.34H69.28V76.7Zm62.71 22.15V76.71h-5.55V99.2c0 7.5-3.66 11.63-10.32 11.63s-10.51-4.35-10.51-11.87V76.7h-5.6v22.5c0 10.47 6.12 16.97 15.94 16.97 9.83 0 16.04-6.48 16.04-17.3zm25.11-30.2c4.19.03 8.25-1.48 11.4-4.25h.12V52.57h-12.11v4.74h6.8v4.51a10.73 10.73 0 0 1-6.07 1.86 8.48 8.48 0 0 1-8.2-5.69 8.62 8.62 0 0 1-.47-3.5 8.75 8.75 0 0 1 2.28-6.24 8.65 8.65 0 0 1 5.99-2.8 10 10 0 0 1 7.08 2.75l.26.23 3.43-4.1-.26-.22a14.69 14.69 0 0 0-10.44-3.72 13.87 13.87 0 0 0-13.16 8.75 14.09 14.09 0 0 0-1.01 5.5 13.6 13.6 0 0 0 8.8 13.21c1.77.66 3.66.93 5.55.8zm-11.17 41.62V98.63h20v-5.3h-20V81.98h22.34v-5.27H134.8v38.87H163v-5.3zM25.98 124.7h8.12c4.72 0 7.63 2.82 7.63 6.9 0 4.75-3.59 7.13-8.05 7.13h-3.45v5.96h-4.25zm7.84 10.08a3.08 3.08 0 0 0 3.47-3.03c0-1.97-1.37-3.04-3.54-3.04h-3.52v6.12zm15.78-10.23h4.01l8.55 20.14h-4.49l-1.82-4.5h-8.4l-1.85 4.5h-4.46zm4.6 11.87-2.64-6.5-2.65 6.5zm11.13-11.72h9.1a7.88 7.88 0 0 1 5.78 2.01 6.27 6.27 0 0 1 1.7 4.58 6.22 6.22 0 0 1-4.25 6.2l4.86 7.12H77.4l-4.18-6.31H69.7v6.39h-4.37zm8.8 9.7c2.13 0 3.36-1.13 3.36-2.82 0-1.9-1.32-2.87-3.45-2.87H69.7v5.74zm16.37-5.65h-6.05v-4.06H101v4.06h-6.12v15.93H90.5zm13.8-4.05h4.04l9.3 12.32v-12.33h4.32v20h-3.7l-9.62-12.7v12.7h-4.34zm22.46 0h14.95v3.91h-10.6v3.97h9.44v3.91h-9.45v4.2h10.8v4h-15.14zm19.03 0h9.1a7.98 7.98 0 0 1 5.8 2.01 6.28 6.28 0 0 1 1.7 4.58 6.22 6.22 0 0 1-4.15 6.25l4.86 7.12h-5.22l-4.37-6.36h-3.35v6.39h-4.37zm8.8 9.7c2.13 0 3.36-1.13 3.36-2.82 0-1.9-1.3-2.87-3.45-2.87h-4.34v5.74z"/></svg>
