<svg xmlns="http://www.w3.org/2000/svg" width="346.082" height="346.082" viewBox="0 0 91.568 91.568"><path d="M59.984 30.063H50.76c-.473 0-.71.229-.71.229L24.627 60.933c-.118.229-.118.343.118.343h3.784c.355 0 .473-.114.473-.229l5.44-6.745s.118-.115.237-.115h9.105s.118 0 .118.115c0 .114-1.3 6.631-1.3 6.631 0 .114 0 .343.354.343h10.998c.118 0 .237 0 .237-.229l6.149-30.641c-.118 0 0-.343-.355-.343zM44.374 51.1H37.28h-.118v-.114l9.46-11.776.119-.115c.118 0 0 .115 0 .115L44.374 51.1c.119-.114.119-.114 0 0zM.03 57.39s.828-2.744.946-2.63c0-.457.237-.572.473-.343 1.064 1.029 4.376 4.116 8.987 4.116 5.085 0 4.73-4.002 4.73-4.573 0-1.601-2.128-9.49-2.72-11.548-1.655-6.631 2.484-12.691 12.3-12.691 5.202 0 7.804 1.372 8.75 1.83.591.342.473.8.473.8s-.591 2.4-.591 2.63c-.118.228-.355.228-.591 0-1.538-.915-3.312-1.944-6.031-1.944-3.193 0-4.849 2.286-4.021 5.602.355 1.143 2.365 9.032 2.72 10.633 1.419 5.717-2.602 12.577-13.481 12.577-6.031 0-9.815-2.173-11.116-3.202-.71-.571-.946-.914-.828-1.257zm57.826.114s.592-2.973.592-2.744c.118-.343.473-.457.71-.229 1.182 1.03 4.256 4.002 8.868 4.002 5.085 0 4.73-4.002 4.73-4.573 0-1.601-2.128-9.49-2.72-11.548-1.655-6.631 2.484-12.691 12.3-12.691 5.202 0 7.804 1.372 8.75 1.83.591.342.473.8.473.8s-.591 2.4-.591 2.63c-.119.228-.355.228-.592 0-1.537-.915-3.31-1.944-6.03-1.944-3.193 0-4.849 2.286-4.021 5.602.355 1.143 2.365 9.032 2.72 10.633 1.419 5.717-2.602 12.577-13.481 12.577-6.031 0-9.579-2.058-10.88-3.087-.71-.572-.946-.915-.828-1.258z" fill-rule="nonzero" fill="#009"/></svg>