<svg xmlns="http://www.w3.org/2000/svg" width="180.684" height="180.684"><g fill="none" fill-rule="evenodd"><path d="M59.34 82.482l.09-.06 46.56-32.14-12.39.02-39.14 27.02-.16.11-.05-.04-15.23-15.22c-9.9-9.7-17.73-12.13-28.28-11.89l33.86 33.85L0 114.912l12.32.03 37.32-25.76.06.05 29.1 29.15c9.1 8.75 18.89 13.3 29.46 13.08z" fill="#d8353b"/><path d="M164.73 85.752c-5.59 19.3-20.75 24.65-38.46 24.06-21.18-.71-27.12-11.11-21.35-29.84 5.87-19.02 21.4-24.6 38.32-24.78 13.57-.15 20.53 5.6 23.03 11.23 1.96 4.57.47 12.42-1.54 19.33m-18.88-36.53c-24.77-.27-46.49 6.37-54.37 29.83-7.31 21.75.83 35.86 30.78 36.72 25.04.73 47.07-4.37 55.6-29.05 2.92-8.44 3.98-18.28 1.22-23.87-3.54-6.9-12-13.4-33.23-13.63z" fill="#646771"/></g></svg>