<svg xmlns="http://www.w3.org/2000/svg" width="126.001" height="126.001"><path fill="#ac8559" d="M84.875 61.238s24.167-3.332 24.167-25.833-24.167-22.498-26.249-22.498-12.914 2.5-18.332 10.417S53.63 37.489 46.546 38.74 19.463 47.905 16.13 60.404s-3.042 18.939-3.042 18.939-8.205 8.143-7.372 13.141 23.331 13.336 23.331 13.336 2.541 6.834 10.228 8.209c5.621 1.002 14.682-1.998 20.656-9.565 0 0 17.533 5.704 22.233 1.792 7.64-6.362 2.712-16.27 2.712-16.27l-3.332-5.001s1.25-7.914 1.67-12.083c.411-4.164 1.661-11.664 1.661-11.664z"/><path fill="#f58220" d="M82.237 102.901s-1.11 3.332 4.444 5.557c1.322.502 1.77 1.349 1.82 2.08 0 0 .048 1.312 1.99 2.421s6.943 1.941 7.225-1.668c.275-3.608-4.41-7.207-4.41-7.207l-3.29-2.015c.001 0-6.666-2.778-7.779.832z"/><path d="M79.98 82.092c1.204-2.859 1.928-5.867 2.051-8.94.197-4.941.338-8.186 1.664-12.165 1.31.476 1.407-.019 2.985.334-.662 3.312-1.565 7.355-1.565 11.83 0 4.267-.453 5.901-1.75 9.383-1.324 2.651 6.962 5.307 4.307 18.231h-1.986s1.656-7.622-2.984-11.602c-3.939-3.373-4.127-4.526-2.723-7.071zm-61.913 18.269c-3.634-1.786-10.94-4.326-10.946-8.881 0-5.631 5.967-12.138 5.967-12.138l-.33-2.37S2.15 87.035 3.473 92.07c1.33 5.045 8.474 8.7 13.193 10.784 4.1 1.813 8.46 3.141 12.914 4.004-.515-1.004-.87-2.053-1.009-3.199-3.63-.531-6.643-1.392-10.505-3.298zm52.491-4.316A138.159 138.159 0 0165 99.414c-.043 1.221.072 2.424.095 3.573 2.55-1.565 5.222-3.465 7.205-5.532 3.573-3.711 2.91-4.373-1.742-1.41z"/><path d="M100.553 53.213c-4.89 3.246-11.307 6.45-15.45 6.45-3.703 0-6.22-.192-10.44-2.237-8.205-3.98-9.696-3.235-1.99 1.49.67.411 1.684.9 2.895 1.383a34.39 34.39 0 004.45 1.424c1.648.403 3.337.673 4.841.673 4.885 0 12.77-2.666 18.346-6.2l-2.652-2.983zm3.947-34.077c-4.694-5.237-12.323-8.452-19.893-8.452-5.798 0-11.377 2.296-15.915 5.824-2.31 1.795-4.596 3.984-6.22 6.433-1.303 1.965-3.536 5.328-4.962 7.218-7.623 10.071-21.48 6.466-31.162 13.925-9.523 7.336-14.454 18.783-14.454 30.529 0 4.466 1.223 13.597 2.203 12.745s.881-9.428.881-12.745c0-11.793 5.375-22.395 15.757-28.782 6.696-4.118 14.063-4.884 21.355-7.031 9.772-2.879 9.867-11.574 16.617-17.567 3.994-3.545 10.794-6.571 16.151-6.571 12.198 0 22.126 9.925 22.126 22.127 0 4.231-1.172 8.279-3.199 11.761l2.126 3.241c3.157-4.219 5.05-9.403 5.05-15.002 0-6.552-2.4-13.119-6.462-17.653zm-23.818 83.642c-.549 2.192-5.173 3.984 6.687 6.654.89 2.074.89 4.447 5.934 6.229s8.881-4.812 5.56-7.786c-2.597-1.927-4.374-2.296-4.374-2.296s-.732-3.005-4.909-4.285-2.887.306-.298 1.187c2.776.942 4.91 3.688 7.28 5.766s-.887 5.932-3.855 4.747c-2.963-1.188-4.149-2.968-3.854-4.449-4.449-1.483-6.392-1.467-5.8-4.432s3.26-2.818 6.228-1.632l.298-1.187s-7.71-3.263-8.897 1.484zm-52.678-3.999c0 .994 2.322 11.933 10.94 13.592l.33 1.658s-10.606 2.316-12.263-14.586c-.165-2.487.993-1.493.993-.664z"/><path fill="#f58220" d="M42.736 107.527l8.89 8.333s4.163 2.498 3.885 4.723-1.665 4.164-4.165 4.442-6.387-3.055-6.387-5.833c-3.613-2.498-7.222-5.832-7.222-7.22s-1.113-7.5 5-4.445z"/><path d="M55.603 117.918c-1.223-.913-2.514-2.188-3.275-2.53l-1.324.827c.626.32 1.594 1.452 2.302 2.072 2.371 2.074-.663 6.573-3.627 5.387s-4.379-3.61-4.085-5.089c-4.446-1.484-7.792-6.187-7.255-9.059.454-2.429 4.675-1.169 6.84-.113l-.46-1.376c-2.146-.923-7.844-3.104-8.524-.209-.495 2.109-1.434 5.242 7.92 11.643.887 2.077.887 4.447 5.93 6.229s8.88-4.809 5.558-7.782zm28.16-10.838l-2.018-1.238c-7.38 2.99-19.034-2.508-21.813-4.634-1.345 1.149.03 2.338-1.792 2.388 15.046 7.88 23.413 5.406 25.623 3.484zM40.95 45.354s-11.562 2.444-9.066 5.437c1.511 1.813 3.626.908 3.626.908-5.89 1.814-14.502 6.797-8.159 7.25-5.89 2.267-6.48 5.474-2.894 5.031-4.336 2.215-4.673 3.544-2.86 3.544-3.056 1.333-2.537-1.772.974-3.102-1.966 0-3.626-2.613 1.51-5.181-2.568-.453-2.317-3.768 7.501-7.243-2.116-1.208-4.53-5.133 9.367-6.644zm52.487-6.26a4.536 4.536 0 11-8.397-3.445 4.54 4.54 0 015.921-2.479 4.535 4.535 0 012.476 5.924z"/><path fill="#fff" d="M92.578 37.627a1.791 1.791 0 11-3.316-1.36 1.791 1.791 0 013.316 1.36z"/><path d="M103.027 38.133a3.267 3.267 0 01-4.268 1.783 3.269 3.269 0 112.481-6.055 3.275 3.275 0 011.787 4.272z"/><path fill="#fff" d="M102.407 37.073a1.286 1.286 0 01-1.684.705 1.288 1.288 0 01-.706-1.682 1.29 1.29 0 112.39.977z"/><path d="M50.651 104.609c-2.745 6.128 7.7 10.215 9.087 3.787 2.727-12.622 2.163-15.009-.206-16.082-2.41-1.092-3.564.428-8.88 12.295z"/><path d="M49.823 116.225a4.73 4.73 0 00-1.478 3.325 4.719 4.719 0 001.312 3.396 4.706 4.706 0 003.322 1.479 4.723 4.723 0 003.397-1.31c.13-.123 12.99-13.1 13.074-16.48l.042-1.593-.74-.258-1.816-.79c-3.38-.086-16.984 12.108-17.113 12.231zm6.553 6.89z"/><path d="M46.273 97.359c-2.594.455-2.768 2.924-2.054 11.803.36 4.518 4.668 12.201 5.708 12.93s-.378 1.454.874 1.232a4.727 4.727 0 003.074-1.954c.731-1.038.016-2.133-.203-3.386-.13-.756-.006-4.376-1.218-8.832-2.335-8.596-3.597-12.238-6.18-11.793zm-.977 22.099z"/><g fill="#f58220"><path d="M47.852 119.353c.595-1.807 10.167-25.889 11.974-25.291s-4.84 25.646-5.438 27.449a3.445 3.445 0 01-4.346 2.192 3.446 3.446 0 01-2.19-4.35z"/><path d="M53.554 122.926c.955-.908 14.386-15.553 13.478-16.508s-14.619 10.616-15.573 11.524a2.38 2.38 0 00-.085 3.369c.906.956 1.228 2.52 2.18 1.615z"/><path d="M47.634 119.053c-.227-1.302-2.255-19.127-.958-19.355s5.43 17.236 5.654 18.533a2.383 2.383 0 11-4.696.822z"/></g><path d="M99.281 96.646c-4.237 4.388 3.421 11.106 6.596 6.044 6.23-9.947 6.487-12.157 4.791-13.808-1.725-1.682-3.177-.738-11.387 7.764z"/><path d="M94.985 106.317a4.268 4.268 0 00-2.289 2.387 4.304 4.304 0 00.068 3.305 4.282 4.282 0 002.388 2.289 4.298 4.298 0 003.308-.066c.147-.066 15.146-7.186 16.262-10.046 0 0 .394-.642-.027-1.799s-1.304-1.237-1.304-1.237c-2.863-1.121-18.258 5.101-18.406 5.167zm3.475 7.914z"/><path d="M97.778 89.098c-2.355-.413-3.266 1.642-5.402 9.45-1.082 3.975.222 11.871.887 12.816s-.773 1.122.366 1.321a4.297 4.297 0 003.231-.721c.944-.659.672-1.821.871-2.955.123-.688 1.344-3.741 1.686-7.925.662-8.068.71-11.567-1.639-11.986zm-7.66 18.585h.002z"/><g fill="#f58220"><path d="M92.332 108.379c1.068-1.358 16.688-18.98 18.05-17.915 1.354 1.068-12.063 20.421-13.128 21.779a3.13 3.13 0 01-4.393.529 3.131 3.131 0 01-.529-4.393z"/><path d="M96.107 113.195c1.095-.479 17.093-8.847 16.616-9.944s-15.775 4.558-16.872 5.04a2.163 2.163 0 00-1.112 2.852c.48 1.092.271 2.53 1.368 2.052z"/><path d="M92.241 108.055c.21-1.182 3.98-17.042 5.16-16.835s-.684 16.406-.896 17.585A2.162 2.162 0 0194 110.563a2.168 2.168 0 01-1.759-2.508z"/></g><path d="M84.22 30.69s4.352-2.417 5.8-.241h1.448s-1.449-3.865-4.348-3.383-2.9 3.624-2.9 3.624zm14.018-1.93s.241-3.385 2.173-1.935 1.69 5.075 1.69 5.075l.727.242s2.178-6.526-1.935-7.251c-4.107-.726-3.866 3.869-2.655 3.869zM86.876 12.808s-1.208-7.25 5.077-7.734c0 0-5.315-2.658-7.009 6.286z"/><path d="M85.668 12.808s.243-6.765-3.382-8.457-5.8-1.693-5.8-1.693 10.39 3.385 6.282 10.15z"/><path d="M83.251 11.117s-1.932-4.106-4.833-3.381c0 0 4.351 3.381 2.176 4.347l3.143.243z"/><path d="M83.492 0s4.352 9.425 2.176 12.808l-1.932-.482S84.703 3.144 83.492 0zm37.148 80.487l-.415-.97c-.069-.152-6.729-15.462-15.603-21.238-8.997-5.854-10.213-6.844-10.32-6.938l-.393-.333.1-.502c.4-2.045 2.172-5.912 6.036-5.912.361 0 .738.034 1.117.1l.275.097c.482.27 11.832 6.658 15.708 14.707.086.177 8.458 17.682 4.373 20.403z"/><path d="M95.871 50.324c.847.61 3.258 2.282 9.711 6.482 7.432 4.838 13.171 15.543 15.331 20.015-.078-2.857-1.75-9.081-5.35-16.558-3.426-7.114-13.58-13.128-14.852-13.859a4.683 4.683 0 00-.667-.052c-2.687 0-3.816 2.79-4.173 3.972z" fill="#f58220"/></svg>