<svg xmlns="http://www.w3.org/2000/svg" data-name="Layer 1" viewBox="0 0 105.27 152.66"><defs><linearGradient id="a" x1="49.88" x2="49.88" y1="149.38" y2="80.97" gradientTransform="translate(.04)" gradientUnits="userSpaceOnUse"><stop offset="0" stop-color="#fada11"/><stop offset="1" stop-color="#f68c1e"/></linearGradient><linearGradient id="b" x1="52.59" x2="52.59" y1="151.42" y2="10.02" gradientTransform="translate(.04)" gradientUnits="userSpaceOnUse"><stop offset="0" stop-color="#362769"/><stop offset="1" stop-color="#00539e"/></linearGradient></defs><path fill="url(#a)" d="M48.66 151.83c-2.5-1.24-27.3-10.91-22.4-45 3-20.59 27-32.72 27-32.72s-6.31 15.26 6.9 28.49c13.23 13.23 15.52 24.23 13.4 33.61-2.12 9.38-11.13 14.6-13 15.6-1.87 1-9.4 1.26-11.9.02z"/><path fill="url(#b)" d="M52.63 152.61s-31.27-11.69-26.37-45.76c3-20.59 27-32.72 27-32.72s-6.32 15.26 6.9 28.49c13.24 13.23 15.5 24.23 13.39 33.61-2.12 9.38-16.23 16.31-16.23 16.31a14.09 14.09 0 0 0 2.28-.36c7-1.63 29-9 40.88-38 15.6-38.16-11.87-70-11.87-70s.62 3.17-4.52 10.31a33.51 33.51 0 0 1-7.53 6.88 59 59 0 0 0-5.53-38.61A43.26 43.26 0 0 0 40.53 0s11.12 13.22 2.66 29.09C34.73 44.96 16.59 57.13 7.04 73c-9.56 15.87-13.1 47.87 14 67.76 16.34 11.99 31.59 11.85 31.59 11.85z"/></svg>