<svg xmlns="http://www.w3.org/2000/svg" xmlns:xlink="http://www.w3.org/1999/xlink" xml:space="preserve" width="511.347" height="511.347"><g transform="translate(-60.016 10.59)"><defs><path id="a" d="m282.94 62.11-16.65-24.25c-.36-.72-1.09-.72-1.45-.72-.72 0-1.45.36-1.81 1.45l-79.63 219.3z"/></defs><clipPath id="b"><use height="100%" width="100%" xlink:href="#a" overflow="visible"/></clipPath><g clip-path="url(#b)"><defs><path id="c" d="M-716-128h2889v2363H-716z"/></defs><clipPath id="d"><use height="100%" width="100%" xlink:href="#c" overflow="visible"/></clipPath><path clip-path="url(#d)" fill="#48c5da" d="M178.41 32.14h109.53v230.75H178.41z"/></g></g><g transform="translate(-60.016 10.59)"><defs><path id="e" d="m327.8 61.75-13.03-22.8c-.36-1.09-1.45-1.09-1.81-1.09-.36 0-1.09 0-1.81 1.09l-117.64 216.4z"/></defs><clipPath id="f"><use height="100%" width="100%" xlink:href="#e" overflow="visible"/></clipPath><g clip-path="url(#f)"><defs><path id="g" d="M-716-128h2889v2363H-716z"/></defs><clipPath id="h"><use height="100%" width="100%" xlink:href="#g" overflow="visible"/></clipPath><path clip-path="url(#h)" fill="#48c5da" d="M188.51 32.86h144.28v227.49H188.51z"/></g></g><g transform="translate(-60.016 10.59)"><defs><path id="i" d="M367.26 39.31c-.36-1.09-1.45-1.09-1.81-1.09-.36 0-1.09 0-1.81 1.09L230.95 222.47 380.8 64.61z"/></defs><clipPath id="j"><use height="100%" width="100%" xlink:href="#i" overflow="visible"/></clipPath><g clip-path="url(#j)"><defs><path id="k" d="M-716-128h2889v2363H-716z"/></defs><clipPath id="l"><use height="100%" width="100%" xlink:href="#k" overflow="visible"/></clipPath><path clip-path="url(#l)" fill="#48c5da" d="M225.95 33.22H385.8v194.25H225.95z"/></g></g><g transform="translate(-60.016 10.59)"><defs><path id="m" d="m162.94 294.13 67.87-230.21c-18.46-17.37-42.35-26.78-67.68-26.78-9.77 0-19.18 1.45-28.59 4.34-.72.36-3.62 1.09-3.62 1.09-2.17.72-4.34 1.45-6.15 2.53-.36.36-1.09.36-1.45.72-2.53 1.09-4.34 2.17-6.15 2.9l-.72.36c-1.81 1.09-3.62 1.81-5.07 2.89l-.72.36c-3.62 2.17-7.24 4.7-10.5 7.6l-1.45 1.09c-1.09 1.09-2.53 2.17-3.62 3.26l-1.45 1.09c-1.45 1.45-3.26 2.89-4.7 4.7-39.45 42.34-38.37 111.46 2.17 154.16l69.4 72.95c.5-.83 1.09-1.63 1.79-2.36z"/></defs><clipPath id="n"><use height="100%" width="100%" xlink:href="#m" overflow="visible"/></clipPath><g clip-path="url(#n)"><defs><path id="o" d="M-716-128h2889v2363H-716z"/></defs><clipPath id="p"><use height="100%" width="100%" xlink:href="#o" overflow="visible"/></clipPath><path clip-path="url(#p)" fill="#48c5da" d="M55 32.14h180.8v270.04H55z"/></g></g><path d="M407.847 49.975c-28.23 0-55.02 11.58-74.92 32.57l-222.6 234.5 134.64 141.5c3.26 3.26 7.24 5.07 11.94 5.07 4.35 0 8.7-1.8 11.94-5.07l212.1-223.28c19.54-20.63 30.4-48.5 30.4-77.8-.72-28.95-11.94-56.45-31.85-77.08-19.17-19.55-44.5-30.4-71.65-30.4" fill="#48c5da"/></svg>