<svg xmlns="http://www.w3.org/2000/svg" viewBox="0 0 73.5 73.5"><path fill="#212e39" d="m39 38.5-.2 6.2 4 3.3-.6 1.4-3.7-1.1-.6 2.4-1.2.2-1.3-.2-.5-2.4-3.7 1-.5-1.4 4-3.3-.3-6.2-11.5 1.5-1-1.9 12.4-5.3v-5.4c.2-1.2.5-4.8 2.5-4.8s2.3 3.6 2.3 4.8v5.4L51.5 38l-1 2zM68.6 55l-18.8-5.4 5.4 18.8-13.7-14-4.7 19-4.8-19-13.5 14 5.4-18.8L5 55.1l14-13.6-19-4.7L19 32 5 18.4l18.8 5.4L18.3 5 32 19l4.8-19 4.7 19L55 5l-5.4 18.8 18.8-5.5-14 13.7 19 4.8-19 4.7zM54.8 36.8c0-10-8-18.2-18.1-18.2a18 18 0 0 0-18.2 18.2 18 18 0 0 0 18.2 18.1c10 0 18.1-8.1 18.1-18.1"/></svg>