<svg id="Layer_1" data-name="Layer 1" xmlns="http://www.w3.org/2000/svg" viewBox="0 0 1090.47 227.92"><path d="M1022.12,16.43a7.08,7.08,0,0,0-10,0l-21.7,21.7L963.68,64.85l-.54.54-.55-.54L935.88,38.13l-21.71-21.7a7.07,7.07,0,0,0-10,0l-16.7,16.7a7.09,7.09,0,0,0,0,10l21.71,21.71,26.71,26.71,21.7,21.7a8.55,8.55,0,0,0,11.11,0l21.71-21.7,26.71-26.71,21.7-21.71a7.07,7.07,0,0,0,0-10Z"/><path d="M866.5,1.1H842.89c-3.91,0-7.08,9.51-7.08,21.25V206.51c0,11.73,3.17,21.25,7.08,21.25H866.5c3.91,0,7.08-9.52,7.08-21.25V22.35C873.58,10.61,870.41,1.1,866.5,1.1Z"/><path d="M1083.39,1.1h-23.61c-3.92,0-7.09,9.51-7.09,21.25V206.51c0,11.73,3.17,21.25,7.09,21.25h23.61c3.91,0,7.08-9.52,7.08-21.25V22.35C1090.47,10.61,1087.3,1.1,1083.39,1.1Z"/><rect y="1.26" width="151.11" height="37.78" rx="7.08"/><rect y="76.82" width="151.11" height="37.78" rx="7.08"/><path d="M7.08,152.37A7.08,7.08,0,0,0,0,159.45v61.39a7.08,7.08,0,0,0,7.08,7.08H30.69a7.08,7.08,0,0,0,7.09-7.08V159.45a7.08,7.08,0,0,0-7.09-7.08Z"/><rect x="637.92" y="1.26" width="151.11" height="37.78" rx="7.08"/><rect x="637.92" y="95.7" width="151.11" height="37.78" rx="7.08"/><rect x="637.92" y="190.15" width="151.11" height="37.78" rx="7.08"/><path d="M347.72,94.44a7,7,0,0,1-7-6.19,56.54,56.54,0,0,0-112.39,0,7,7,0,0,1-7,6.19H197.43a7,7,0,0,1-7.07-7.51,94.44,94.44,0,0,1,188.29,0,7,7,0,0,1-7.07,7.51Z"/><path d="M528.29,140.87a87.35,87.35,0,0,1,80.1,80.1,6.51,6.51,0,0,1-6.54,6.95H579.79a6.49,6.49,0,0,1-6.49-5.72A52.3,52.3,0,0,0,527.06,176a6.49,6.49,0,0,1-5.72-6.49V147.41A6.51,6.51,0,0,1,528.29,140.87Z"/><path d="M221.29,133.48a7,7,0,0,1,7,6.19,56.54,56.54,0,0,0,112.39,0,7,7,0,0,1,7-6.19h23.86a7,7,0,0,1,7.07,7.52,94.45,94.45,0,0,1-188.29,0,7,7,0,0,1,7.07-7.52Z"/><path d="M491.12,91H465.87a7.08,7.08,0,0,1-7.08-7.08V46.12A7.08,7.08,0,0,1,465.87,39h25.25A7.08,7.08,0,0,0,498.2,32V8.35a7.08,7.08,0,0,0-7.08-7.09h-63A7.08,7.08,0,0,0,421,8.35V220.84a7.08,7.08,0,0,0,7.08,7.08h23.62a7.08,7.08,0,0,0,7.08-7.08V133.48a4.72,4.72,0,0,1,4.72-4.72h27.61a7.08,7.08,0,0,0,7.08-7.08V98.06A7.08,7.08,0,0,0,491.12,91Z"/><path d="M521.34,97.29a7,7,0,0,1,5.43-6.88,26,26,0,0,0,0-50.8,7,7,0,0,1-5.43-6.88V8.8a7.11,7.11,0,0,1,8-7,63.75,63.75,0,0,1,0,126.5,7.11,7.11,0,0,1-8-7Z"/></svg>