<svg xmlns="http://www.w3.org/2000/svg" width="39.104" height="39.104" fill="none"><path d="M5.305 3.68H38.63c.416 0 .569.337.416.833l-3.491 5.766c-.093.432-.492.753-.908.753H21.56a.966.966 0 00-.877.768l-1.23 4.74c-.077.433.154.77.569.77h8.689c.415 0 .66.336.569.753l-1.292 5.253c-.077.416-.492.769-.892.769h-8.704a.964.964 0 00-.892.752l-2.445 9.818c-.077.433-.477.769-.892.769H.583c-.415 0-.645-.336-.568-.77l.815-3.042c.076-.336.338-.672.645-.77.213-.055.466-.108.747-.166C4 30.31 6.91 29.71 7.827 26.199l.246-1.105 2.845-11.083.23-1.122c.882-3.315-3.644-4.036-6.034-4.416-.53-.085-.956-.153-1.193-.228-.246-.176-.4-.417-.323-.77l.815-3.042a.963.963 0 01.892-.753z" clip-rule="evenodd" fill="#19b69b" fill-rule="evenodd"/></svg>