<svg xmlns="http://www.w3.org/2000/svg" fill="none" viewBox="0 0 32 36"><path d="M0 3a3 3 0 0 1 3-3h26a3 3 0 0 1 3 3v4.286a3 3 0 0 1-3 3H3a3 3 0 0 1-3-3zm0 12.857a3 3 0 0 1 3-3h26a3 3 0 0 1 3 3v4.286a3 3 0 0 1-3 3H3a3 3 0 0 1-3-3zm3 9.857a3 3 0 0 0-3 3V33a3 3 0 0 0 3 3h12a3 3 0 0 0 3-3v-4.286a3 3 0 0 0-3-3z" clip-rule="evenodd" fill="url(#a)" fill-rule="evenodd"/><defs><linearGradient id="a" x2="36" y2="36" gradientUnits="userSpaceOnUse"><stop stop-color="#EA1330" offset="0"/><stop stop-color="#AF041A" offset="1"/></linearGradient></defs></svg>