<svg xmlns="http://www.w3.org/2000/svg" width="32.101" height="32.101"><path d="M22.486 2.675c.878 0 1.59.712 1.59 1.59v23.57a1.59 1.59 0 01-1.59 1.59H1.59A1.59 1.59 0 010 27.836V4.266c0-.878.712-1.59 1.59-1.59zm4.8 2.675c.443 0 .802.36.802.803v19.795c0 .443-.359.803-.802.803h-1.873V5.35zm4.012 2.675c.444 0 .803.36.803.803v14.445c0 .443-.36.803-.803.803h-1.872V8.026z" fill="#21b573"/><path d="M9.582 22.028a.268.268 0 01.048.153v2.718c0 .148-.12.268-.267.268H5.608a.258.258 0 01-.258-.258v-.119c0-.087.043-.17.115-.22l3.745-2.609a.268.268 0 01.372.067zm6.171-6.245a.268.268 0 01.152.488L5.769 23.238a.268.268 0 01-.419-.22v-4.144c0-.082.038-.16.102-.21L9.05 15.84a.268.268 0 01.165-.057zm2.21-8.828a.268.268 0 01.167.477L5.785 17.308a.268.268 0 01-.435-.21V7.224c0-.148.12-.268.268-.268z" fill="#fff"/></svg>