<svg xmlns="http://www.w3.org/2000/svg" width="98.9" height="98.9"><path d="M30.2 47c0 4.2-1.5 7.7-4.4 10.7-3 3-6.5 4.4-10.7 4.4-4.2 0-7.7-1.5-10.7-4.4-3-3-4.4-6.5-4.4-10.7 0-4.2 1.5-7.7 4.4-10.7 3-3 6.5-4.4 10.7-4.4 4.2 0 7.7 1.5 10.7 4.4 2.9 3 4.4 6.5 4.4 10.7zm41.3-12.3c-1.6 7.8-3 14.6-4.1 20.3-1.2 5.7-2.5 11.7-4.1 18-.8 3.1-2.1 6.1-3.9 9-1.8 3-4 5.5-6.4 7.6-2.6 2.3-5.4 4-8.4 5.3-3 1.3-6.1 1.9-9.3 1.9-2.9 0-5.2-.3-7-.9-1.8-.6-3.2-1.3-4.2-2.2-1-.9-1.6-1.9-2-2.9-.4-1-.5-2.1-.5-3.2 0-1.8.7-3.4 2-4.9 1.3-1.4 3.1-2.1 5.3-2.1 1.7 0 3.2.5 4.4 1.3 1.2.9 2.3 2 3.2 3.2.9 1.2 1.7 2.6 2.3 4.1.7 1.5 1.2 2.7 1.6 3.6 1.3-1.5 2.6-3.6 3.7-6.6 1.2-2.9 2.3-6.8 3.3-11.7l8.5-40.1h-9.2l1.1-4.9h9.1l.8-3.6c.7-3 1.9-5.9 3.6-8.7 1.8-2.9 3.9-5.4 6.4-7.6 2.4-2.2 5.2-4 8.3-5.4 3.1-1.4 6.3-2.1 9.4-2.1 2.7 0 5 .3 6.8.8 1.8.5 3.2 1.2 4.3 2.2.9.9 1.6 1.8 1.9 2.9.3 1.1.5 2.1.5 3.1 0 .7-.1 1.5-.4 2.3-.3.9-.7 1.6-1.3 2.3-.7.8-1.4 1.4-2.2 1.8-.8.4-1.9.7-3.4.7-1.7 0-3.2-.4-4.4-1.3-1.2-.9-2.3-2-3.1-3.2-.9-1.3-1.7-2.7-2.3-4.2-.6-1.5-1.1-2.7-1.6-3.6-1.3 1.5-2.5 3.6-3.5 6.5-1 2.8-2.1 6.8-3.2 11.7l-1.2 5.4h11.9l-1.1 4.9H71.5z" fill="#00e6bf"/></svg>