<svg xmlns="http://www.w3.org/2000/svg" viewBox="0 0 39.63 42.51"><path fill="#88C648" d="M13.3 20.93c-.17-.22-.55-.16-.55.1L8.6 42.43c-.05.32.38.53.54.21l9.65-13.31c.16-.21.16-.53 0-.8l-5.5-7.6zM39.75 12H27.63c-.22 0-.33.15-.33.37l.92 4.75c.05.21.27.32.43.21l11.21-4.75c.32-.1.22-.58-.1-.58zM25.8 12.26c-.06-.16-.17-.26-.33-.26H.3c-.32 0-.43.47-.1.58l12.71 5.44c.33.16.6.37.81.63l17.36 24c.21.26.64.1.59-.27l-5.88-30.12zM14.42 8.5 25.7 4.98c.75-.27.75-.48-.06-.58l-2.26-.21L20.73.16c-.11-.16-.33-.21-.54-.1l-4.8 3.06c-.1.1-.21.21-.16.37l.65 3.12-1.67 1.32c-.65.58-.54.79.21.58z"/></svg>