<svg xmlns="http://www.w3.org/2000/svg" viewBox="0 0 67 81"><path d="M.7 0h24.77v4.06H4.8v11.38h18.36v4.07H4.81v16.45H.71V0zM0 68.04l4.02-.9c.72 4.97 4.16 7.93 9.75 7.93 5.02 0 9-2.34 9-6.17 0-2.72-2.01-5.01-9.86-7.36-8.9-2.53-11.86-5.78-11.86-10.56 0-6.17 4.97-9.46 12.2-9.46 8.07 0 11.66 4.1 12.9 9.75l-4.01.9c-1-4.63-4.16-6.59-9.04-6.59-4.59 0-7.84 1.72-7.84 5.02 0 2.68 2.1 4.73 9.37 7.03 8.66 2.68 12.39 5.6 12.39 11.14 0 6.89-5.8 10.47-13.15 10.47C6.17 79.24.9 75.21 0 68.04zm31.13-7.55c0-10.66 6.98-18.98 17.69-18.98 10.66 0 17.55 8.36 17.55 18.98 0 5.3-1.77 9.9-4.74 13.24a122.02 122.02 0 0 1 4.21 4.4L62.87 81a192.91 192.91 0 0 0-4.4-4.54 17.48 17.48 0 0 1-9.65 2.77c-10.33 0-17.7-7.94-17.7-18.74zm24.23 12.9a105.44 105.44 0 0 0-4.2-3.87l2.86-2.91a123.31 123.31 0 0 1 4.5 4.1c2.15-2.57 3.44-6.1 3.44-10.27 0-8.41-5.12-14.82-13.15-14.82s-13.2 6.4-13.2 14.82c0 8.66 5.6 14.73 13.2 14.73 2.44 0 4.64-.63 6.55-1.77z"/></svg>