<svg xmlns="http://www.w3.org/2000/svg" width="146.12" height="146.12"><path d="M112.53 0h-77.9c-10.7 0-13.9 8.1-13.9 13.2V137c0 6.1 3.1 7.9 4.8 8.6 1.7.7 6.2 1.2 9.4-2l37.6-43.8c.6-.7.9-.7 1.3-.7h23.4c10 0 11.9-6.9 13-11.1.9-3.5 11.2-53.5 14.4-69.3 2.4-12.2-.7-18.7-12.1-18.7" fill="#fa4778"/><path d="M107.93 21.1l-3.5 16.9c-.4 1.8-2.1 3.4-4.2 3.4h-30.4c-3.4 0-6.2 2.8-6.2 6.2v3.7c0 3.4 2.8 6.2 6.2 6.2h25.7c2.4 0 4.4 2.3 3.9 4.8-.5 2.6-3.2 15.8-3.5 17.2-.2 1.5-1.8 3.4-4.2 3.4h-21c-4.4.1-5.3.2-7.9 3.4-2.6 3.2-25.6 32-25.6 32-.2.3-.4.2-.4-.1V20.3c0-2.3 1.9-4.2 4.2-4.2h63.1c2.2 0 4.4 2.2 3.8 5" fill="#fff"/></svg>