<svg xmlns="http://www.w3.org/2000/svg" fill="none" viewBox="0 0 67 81"><path fill="currentColor" d="M.703 0h24.764v4.064H4.814v11.379h18.358v4.064H4.814v16.449H.704V0zM0 68.043l4.018-.908c.717 4.972 4.157 7.938 9.754 7.938 5.018 0 8.99-2.342 8.99-6.169 0-2.723-2.007-5.019-9.852-7.36C4.018 59.01 1.052 55.757 1.052 50.98c0-6.17 4.972-9.465 12.194-9.465 8.077 0 11.667 4.11 12.91 9.753l-4.018.908C21.132 47.54 17.98 45.58 13.1 45.58c-4.59 0-7.84 1.723-7.84 5.019 0 2.677 2.104 4.735 9.372 7.03 8.655 2.677 12.384 5.596 12.384 11.141 0 6.886-5.787 10.47-13.148 10.47C6.17 79.232.908 75.214 0 68.044zm31.128-7.556c0-10.662 6.979-18.982 17.692-18.982 10.661 0 17.547 8.367 17.547 18.982 0 5.307-1.77 9.898-4.735 13.245a122.024 122.024 0 0 1 4.209 4.4L62.875 81a192.912 192.912 0 0 0-4.4-4.544c-2.723 1.769-5.977 2.775-9.655 2.775-10.331 0-17.692-7.938-17.692-18.744zm24.237 12.91a105.44 105.44 0 0 0-4.208-3.874l2.868-2.914a123.314 123.314 0 0 1 4.492 4.11c2.151-2.578 3.441-6.117 3.441-10.279 0-8.413-5.117-14.819-13.148-14.819-8.03 0-13.194 6.406-13.194 14.82 0 8.654 5.592 14.725 13.194 14.725 2.445 0 4.642-.624 6.555-1.769z"/></svg>