<svg xmlns="http://www.w3.org/2000/svg" width="48.477" height="48.477" viewBox="0 0 12.826 12.826"><defs><clipPath clipPathUnits="userSpaceOnUse" id="a"><path d="M45 702.753h56.661v49.263H45z"/></clipPath></defs><g clip-path="url(#a)" transform="matrix(.35278 0 0 -.35278 -15.875 265.295)"><path d="M45.025 732.868c-.017.321-.025.644-.025.97 0 10.04 8.139 18.179 18.179 18.179 6.954 0 12.997-3.906 16.054-9.643l-.044-.012-.134-.135c.04-.087-.108-.113-.067-.201h-.268c-.187-.154-.35-.345-.6-.4-.097-.043-.063-.128-.068-.202l-.135-.133h-.333c-.182-.231-.463-.334-.669-.535h-.134c-.166-.04-.214-.258-.4-.267l-.334-.334h-.134c-.495-.456-1.118-.738-1.604-1.204a1.124 1.124 0 01-.402-.2c-.333-.319-.759-.523-1.07-.869-.544-.255-.944-.722-1.469-1.003-.226-.369-.702-.444-.937-.802-.087.039-.113-.106-.2-.067-.136-.177-.356-.268-.469-.467-1.542-.968-2.849-2.246-4.344-3.277l-.536-.534c-.087.039-.112-.106-.2-.067a685.635 685.635 0 01-4.947-4.077c-.148-.02-.024.099-.066.133.494.902 1.33 1.557 1.804 2.474.114.136.254.238.402.334.064.189.194.332.334.467.113-.023.13.096.2.134-.04.161.127.255.134.402l.334.333h.2l.136.134v.267c.14.103.208.293.4.335.121.086.182.22.268.334.112-.024.128.097.2.133v.135c.39.253.664.627 1.002.935a35.8 35.8 0 001.539 1.872c.277.091.356.406.601.535.76.909 1.513 1.824 2.34 2.673.01.107.071.187.132.268.194.061.292.253.469.334.01.107.071.187.133.267.114-.022.13.097.2.134.062.193.256.291.337.468.141-.006.168.145.265.2.068.313.28.509.536.669.057.139.13.269.2.401v.201c.046.044.09.089.134.133-.088.58-.02 1.184-.267 1.739-.015.135.058.235.133.334-.127.103-.086.29-.2.401v.268c-.087.12-.22.182-.335.267-.085.039-.112-.106-.2-.068-.193-.231-.445-.4-.668-.601a17.408 17.408 0 01-1.538-1.136c-.158-.019-.235-.2-.402-.2-.579-.476-1.155-.956-1.805-1.338-.12-.146-.264-.269-.4-.401-.088.039-.114-.106-.2-.066-.24-.257-.564-.412-.803-.669-1.44-1.096-2.853-2.227-4.279-3.342-.889-.738-1.775-1.478-2.673-2.207v.135c.177.135.27.354.467.467-.035.13.168.138.134.267 1.115 1.249 2.202 2.52 3.343 3.744-.04.088.106.114.067.2.298.282.563.596.87.87.06.192.253.289.333.467.191.043.26.233.401.335.02.167.187.215.267.334.112-.024.13.096.201.134-.036.128.168.138.133.267.12.06.137.22.268.268a.553.553 0 01.133.268c.951.991 1.797 2.075 2.741 3.074.023.111-.058.243.067.334-.105.027-.029.174-.134.201.023.112-.057.243.067.334-.153.201-.135.436-.134.668.048.034.086.069.067.134-.16.28-.02.581-.067.869-.205.351-.353.719-.333 1.137l-.135.133c-.404-.045-.647-.462-1.069-.468-.6-.437-1.213-.855-1.87-1.203-.19-.193-.426-.331-.603-.535-.087.04-.113-.105-.2-.067l-.134-.133c-.088.039-.113-.106-.2-.067-.33-.374-.818-.551-1.137-.936h-.134c-.292-.198-.52-.487-.87-.602-.22-.201-.473-.369-.667-.601-.395-.133-.608-.536-1.004-.669-.29-.291-.637-.519-.935-.801-.087.039-.113-.106-.2-.068l-.335-.334a2.534 2.534 0 01-.602-.4c-.743-.788-1.725-1.29-2.473-2.073-.087.038-.113-.106-.2-.068-.472-.539-1.113-.885-1.605-1.403-.107-.01-.187-.072-.267-.134-.444-.543-1.08-.875-1.538-1.403-.087.039-.113-.107-.2-.067-.694-.741-1.547-1.301-2.273-2.006-.087.039-.113-.105-.2-.067-1.01-.972-2.08-1.868-3.182-2.733z" fill="#2f97da"/><path d="M80.574 739.232c.528-1.705.784-3.516.784-5.394 0-10.04-8.14-18.18-18.18-18.18-8.778 0-16.08 6.14-17.781 14.414l.153.147c.114.155.212.245.349.377.8.715 1.619 1.409 2.406 2.138 1.968 1.62 3.897 3.283 5.883 4.88 2.479 1.838 4.88 3.77 7.353 5.616h.133c.23.17.46.339.669.535.28.07.429.379.735.4l.2.2c.15.037.28.11.4.2-.018-.164-.185-.213-.265-.332.039-.088-.106-.114-.067-.201-1.381-1.54-2.772-3.066-4.145-4.612.04-.088-.105-.114-.066-.201-.644-.696-1.208-1.46-1.872-2.14.036-.128-.168-.138-.134-.267-.14-.171-.315-.307-.468-.467.039-.088-.106-.113-.067-.202a5.032 5.032 0 00-.468-.467c.036-.13-.168-.138-.133-.267-.118-.06-.136-.221-.268-.268l-1.07-1.603c.012-.241.087-.46.2-.67.04-.294-.052-.578-.066-.868.207-.153.194-.451.4-.602.02-.258.185-.477.202-.735.07-.038.088-.158.2-.134.346.369.78.647 1.07 1.069.26.102.452.305.668.468-.022.114.096.13.135.2.087-.038.113.107.2.069.26.298.608.502.868.8.42.266.73.682 1.204.87.169.145.294.33.468.468.199.159.433.27.6.467.166.077.32.169.47.268v.134c.044.044.089.088.133.134.107-.046.172.075.267.067.047.032.086.069.068.133.159.05.28.157.4.267.057.183.274-.036.335.135-.033.046-.07.084-.134.065.032.202.28.22.334.403h.335l.4.4a4.139 4.139 0 00-.066.067.843.843 0 00.468.133c.2.112.357.268.468.469h.2c.12.128.298.185.4.334a8.529 8.529 0 00-.132.135c.067.065.133.132.2.2.073-.006.159.026.2-.067.146-.047.26.087.402.067.045.043.089.088.134.134v.133c.269.102.387.37.602.534-.04.088.105.113.067.2l.133.135h.267l.134.133c-.04.088.106.114.066.2.059.109.189.12.269.2.056.15.182.029.267.068-.184-.24-.35-.492-.602-.668.038-.087-.106-.113-.068-.202-1.451-1.473-2.682-3.144-4.144-4.612.039-.087-.105-.112-.067-.2-.348-.3-.597-.693-.936-1.002.04-.088-.106-.113-.066-.201-.345-.328-.591-.742-.936-1.07-1.364-1.616-2.507-3.401-3.877-5.013v-.134c-.303-.391-.663-.741-.87-1.202l-.333-.335-.468-.801a2.53 2.53 0 01.267-.536v-.535c.08-.08.093-.21.2-.267v-.134c.08-.08.094-.21.2-.268-.008-.192.144-.341.135-.533.08-.08.092-.211.2-.268.637.522 1.2 1.116 1.739 1.737.135.026.216.145.333.2.043.193.232.26.334.402.32.13.49.459.803.6.364.375.789.68 1.136 1.07.088-.038.114.107.2.068.492.548 1.164.878 1.672 1.404.087-.038.114.106.2.067.17.213.417.339.602.534.106.01.187.073.268.134-.018.065.02.102.067.134.087-.04.113.106.199.067.247.222.517.417.737.668.185.037.265.259.467.267.109.058.12.189.2.268.173-.007.244.183.402.2.64.529 1.294 1.04 2.006 1.47-.024.113.095.13.133.202.162-.04.255.126.402.133.094.043.06.128.066.2.149.073.26-.085.4-.066.106.027.03.174.135.2-.045.107.075.17.066.268h.536a.567.567 0 01.133.267c.065-.018.102.02.134.068-.018.064.019.1.066.132h.2l.202.2v.135c.128.12.187.298.334.4h.2c.002-.178-.225-.13-.267-.266-.018-.065.02-.101.067-.134.144-.007.17.145.268.2h.133l.334.335h.202c.107.058.119.188.199.267.019.064-.02.102-.066.134-.066.018-.101-.02-.133-.067-.067-.021-.085.005-.068.067.027.104.174.028.2.133.208.04.395-.105.602-.066.122.146.265.27.4.4.218.019.379.203.602.202l.202.2h.133c.097.056.124.207.267.2.122.087.182.22.268.335-.043.095-.128.062-.2.067.209.153.447.025.669.067.126.048.006.219.133.266.032-.046.068-.084.134-.066.089.103.243.097.333.2-.046.034-.084.069-.066.135l.134.134c.162.039.254-.128.4-.134.073.124.153.243.267.333-.066.112-.176.053-.266.068l-.134-.134h-.201c-.018.065.02.1.068.134.129.049.259.089.4.067.079.08.209.092.268.2-.024-.113.095-.13.133-.2h.135l.2.2c.01.106.07.187.134.267h.2l.2.2c.067-.111.177-.052.267-.067.028.106.175.03.202.135v.133h.266c.047.033.086.069.067.134.159.05.282.157.4.267h.269c.127.08.253.163.4.2.095.043.064.129.068.202.09.124.223.044.334.067.105.026.03.173.134.2h.134l.2.2c.072.005.159-.027.2.067v.133c.066-.018.1.02.134.068.033-.047.069-.086.134-.068l.2.2c.073.006.158-.026.2.067l.084.003z" fill="#2f97da"/></g></svg>