<svg xmlns="http://www.w3.org/2000/svg" viewBox="0 0 460.4 526"><path fill="#5b53ff" d="M2 483A600 600 0 0 0 2 43L0 31C0 15 13 0 30 0c12 0 22 7 27 18a674 674 0 0 1 0 490c-5 11-16 18-27 18a31 31 0 0 1-28-43m142-55a742 742 0 0 0 0-331l-1-7c0-16 13-30 30-30 13 0 25 9 28 22a773 773 0 0 1 0 362c-3 13-15 22-28 22-17 0-30-14-30-31zm137-165c0-27-1-54-4-80-1-18 13-34 30-34 16 0 28 11 29 26a851 851 0 0 1 0 176c-1 15-14 26-29 26-17 0-31-16-30-34 3-26 4-53 4-80m179 0c0 7-3 15-9 21l-17 17a20 20 0 0 1-34-14v-48a20 20 0 0 1 34-14l17 17c6 5 9 13 9 21"/></svg>