<svg xmlns="http://www.w3.org/2000/svg" viewBox="0 0 19.671 19.975"><defs><linearGradient id="a" x1="9.911" x2="9.911" y1="19.847" y2=".025" gradientTransform="matrix(.99235 0 0 1.0077 0 -.025)" gradientUnits="userSpaceOnUse"><stop stop-color="#8A85FF" offset="0"/><stop stop-color="#5950FF" offset="1"/></linearGradient></defs><path d="M.88 0a.886.886 0 0 0-.41.102.872.872 0 0 0-.367 1.184 18.434 18.434 0 0 1 0 17.403.872.872 0 0 0 .368 1.184.887.887 0 0 0 .41.102h.006c.316 0 .621-.17.78-.466a20.17 20.17 0 0 0 2.39-9.512v-.019A20.17 20.17 0 0 0 1.666.466.886.886 0 0 0 .887 0zm4.654 2.169a.873.873 0 0 0-.478 1.144 17.2 17.2 0 0 1 1.34 6.665.658.658 0 0 0 0 .019 17.2 17.2 0 0 1-1.34 6.665.873.873 0 0 0 .478 1.144.888.888 0 0 0 1.156-.474 18.93 18.93 0 0 0 1.475-7.341v-.006A18.93 18.93 0 0 0 6.69 2.643a.885.885 0 0 0-1.156-.474zm4.98 2.41a.875.875 0 0 0-.654 1.056c.345 1.424.517 2.888.517 4.352a18.48 18.48 0 0 1-.517 4.353.875.875 0 0 0 .653 1.056.885.885 0 0 0 1.067-.647c.377-1.554.565-3.153.566-4.752v-.019c0-1.599-.19-3.198-.566-4.752a.883.883 0 0 0-1.067-.647zm4.215 2.556c-.458.086-.775.552-.707 1.008.09.61.133 1.223.128 1.835v.019c.005.613-.037 1.226-.128 1.835a.884.884 0 1 0 1.747.277c.105-.701.156-1.407.15-2.112v-.019c.005-.705-.045-1.41-.15-2.112a.882.882 0 0 0-1.04-.73zm2.926 2.862c0 .55.451.998 1.008.998.556 0 1.007-.447 1.007-.998 0-.551-.45-.998-1.007-.998-.557 0-1.008.447-1.008.998z" fill="url(#a)"/></svg>