<svg xmlns="http://www.w3.org/2000/svg" data-name="Layer 1" viewBox="0 0 154.7 120.6"><path d="M142.8 0H83.3c-11 0-22.2.8-33.1 2.7-4.9.2-9.6 2-13.5 4.9a12.8 12.8 0 0 0-3.5 8.7 20 20 0 0 0 5.6 11.6c1.6 2 3.4 3.8 5.5 5.2 1 .6 2.3.6 3.3 0 1-.5 1-1 0-1.4a10 10 0 0 1-6.2-10C41.4 11.3 55 5.2 82.2 3.4c10.3-.7 18.3-1 24.1-1A33.9 33.9 0 0 0 88 18.1L75.6 43.7c-8 19-18.1 37-30 53.9A38.1 38.1 0 0 1 19 112.4c-4.6.3-9.1-1.5-12.3-4.8a21.1 21.1 0 0 1-4.7-15v-4.9C.8 87.7.1 88.8.1 91v3.3c-.8 8.8 3 17.3 10 22.6 3.7 2.4 8.1 3.7 12.6 3.7 14.7 0 27.8-10.4 39.3-31.1l14.7-30.6a3 3 0 0 1 3.3-1.3h32.1a2.7 2.7 0 0 1 2.9 3.3c-.3 3.3-1.2 6.5-2.7 9.5a3 3 0 0 0 2.8-1.7c.7-1.7 1.6-3.4 2.7-4.9 1.5-2 2.8-4 4.1-6.2a3 3 0 0 0-.6-4.3 20 20 0 0 0-8.7-1.2h-29c-1.6 0-2.2-.8-1.6-2.3 6.8-13.7 14-32.9 23.9-42.2A41.7 41.7 0 0 1 139 3.9a10 10 0 0 1 6.6 10c0 3-.5 6-1.4 8.8 0 1 0 1.4.8 1.2a3.9 3.9 0 0 0 3.3-2.5l1.4-2.6 3.1-5.8c1.1-2 1.7-4.2 1.9-6.4 0-4-4-6.2-11.9-6.6z"/></svg>