<svg xmlns="http://www.w3.org/2000/svg" viewBox="0 0 100 100"><rect width="100" height="100" fill="#2864f0" ry="21"/><path fill="#fff" d="M75.22 10 36.41 39.87c-2.17 1.67-2.74 1.1-4.8 1.1-3.2 0-6.29 1.24-8.6 3.46-.86.83-.97 1.06-2.3 1.38l-2.71.66 5.16 1.13c4.12.9 5.06 1.58 7.33 4.52L59.66 90a42.87 42.87 0 0 0-10.23-31.1 28.3 28.3 0 0 0 9.03-1.58c2.37-.82 2.96-1 5.96-1h15.46c.2-1.03-.18-1.34-1.7-1.55L66.2 53.1c.53-.37 1.26-1.02 1.81-1.48 1.18-.97 1.51-1.27 3.28-1.68 3.34-.8 5.97-1.62 9.33-2.8 1.3-.45 1.1-.93 1.37-1.73a94.64 94.64 0 0 1-34.59-.59A51.48 51.48 0 0 0 75.22 10ZM30.4 43.62h.01a1.92 1.92 0 0 1 0 3.85h-.02a1.92 1.92 0 1 1 0-3.85Zm10.44 4.87a80.95 80.95 0 0 1 9.44.7l.32.04a347.92 347.92 0 0 1 5.3.68l1.35.17a120.58 120.58 0 0 0 4.1.4 62.33 62.33 0 0 0 4.16.18 25.54 25.54 0 0 1-4.39 2.92 25.53 25.53 0 0 1-9.72 2.86 25.55 25.55 0 0 1-7.63-.47l-.3-.07a25.54 25.54 0 0 1-9.98-4.71 25.6 25.6 0 0 1-1.87-1.58 20.64 20.64 0 0 1 2.45-.6c2-.37 4.24-.54 6.77-.52"/></svg>