<svg xmlns="http://www.w3.org/2000/svg" viewBox="0 0 90 90"><path fill="#F7618B" d="M83.16 64.04l-10.3-5.9a3.32 3.32 0 00-3.32 0l-7.03 4.05a13.9 13.9 0 00-6.97 12.03v6.71c0 1.2.63 2.31 1.68 2.9l10.3 5.95A1.66 1.66 0 0070 88.35v-7.38c0-3.99 2.13-7.63 5.56-9.62l7.6-4.37a1.7 1.7 0 000-2.94zM51.94 18.58V9.07c0-1.2-.63-2.31-1.68-2.9L39.96.21a1.66 1.66 0 00-2.48 1.43V11.8c0 4-2.13 7.63-5.56 9.62L11.93 32.95A14.13 14.13 0 005 45.05v6.72c0 1.19.63 2.3 1.68 2.9l10.3 5.94a1.66 1.66 0 002.48-1.43V51.8c0-3.98 2.13-7.62 5.56-9.62l19.99-11.54c4.3-2.51 6.93-7.1 6.93-12.06zm22.78 21.16l-10.29-5.95a3.32 3.32 0 00-3.32 0L37.24 47.57a13.9 13.9 0 00-6.97 12.03v6.72c0 1.18.63 2.3 1.68 2.9l10.3 5.94a1.66 1.66 0 002.48-1.43v-7.38c0-3.99 2.13-7.62 5.56-9.62l24.43-14.1a1.67 1.67 0 000-2.9z"/></svg>