<svg xmlns="http://www.w3.org/2000/svg" width="145.81" height="145.81"><path d="M56.802 37.263c-4.632-1.005-9.658-2.946-26.042-11.452C9.067 14.557 4.226 13.847 1.396 18.41c-3.74 6.02-.324 21.282 14.628 49.389 9.793 18.421 25.111 42.052 27.841 45.212.63.723 1.339.775 1.961.456.677-.35.886-.939.413-1.824-2.252-4.252-10.328-20.79-13.898-29.357-8.593-20.616-10.527-27.595-7.592-29.174.76-.405 1.873-.124 4.254 1.14C37.3 58.65 55.433 72.665 58.58 82.327c1.37 4.234 2.086 9.25 2.36 26.701.363 23.098 2.124 27.354 7.781 27.354 7.486 0 19.982-10.383 38.686-36.483 12.254-17.096 26.606-41.246 28.18-45.026.358-.866.05-1.468-.559-1.807-.664-.37-1.31-.24-1.9.579-2.839 3.942-14.197 18.716-20.392 25.873-14.899 17.228-20.435 22.275-23.375 20.704-.754-.412-1.045-1.447-1.058-3.996-.056-8.886 3.929-30.496 11.352-37.86 3.252-3.232 7.572-6.305 23.681-15.253 21.335-11.846 24.413-15.386 21.583-19.947-3.74-6.024-19.658-10.897-53.312-12.913-22.047-1.32-51.714-.804-56.024-.183-.98.147-1.392.693-1.401 1.353-.011.716.435 1.176 1.49 1.243 5.093.312 24.528 2.076 34.288 3.483 23.493 3.388 30.961 5.324 30.961 8.474 0 .814-.817 1.571-3.184 2.858-8.245 4.482-30.362 12.077-40.936 9.782" fill="#66c430"/></svg>