<svg viewBox="0 0 80 80" style="height:100%;width:auto;min-width:5rem;min-height:2rem" display="block"><path d="M22.064.575C20.708 6.505 16.694 11.42 11.34 14c2.36.482 4.804.735 7.307.735 2.254 0 3.74-.147 6.03-.508-.104.31-.025.495-.527.67-1.298.456-2.31.77-3.6 1.077-.68.16-.807.275-1.264.65-.212.175-.493.427-.697.572l4.613.642c.588.082.738.201.658.6h-5.963c-1.154 0-1.383.069-2.297.384-1.102.38-2.244.598-3.481.606 2.939 3.42 4.234 7.695 3.945 11.994L4.814 16.817c-.874-1.135-1.236-1.394-2.823-1.742L0 14.638l1.046-.254c.51-.124.553-.213.884-.533a4.794 4.794 0 013.317-1.335c.795 0 1.015.22 1.851-.424zm-10.506 15.01c-2.677-.284-4.717-.221-6.305.265a9.856 9.856 0 006.762 2.673 9.85 9.85 0 006.305-2.27c-2.3-.006-4.301-.408-6.762-.669zM4.781 13.54a.742.742 0 100 1.484.742.742 0 000-1.484z" fill="#2864F0"/><path d="M4.78 15.023a.742.742 0 110-1.483.742.742 0 010 1.483m7.235 3.5a9.856 9.856 0 01-6.762-2.673c1.588-.486 3.628-.549 6.305-.266 2.46.26 4.462.663 6.762.669a9.85 9.85 0 01-6.305 2.27" fill="#FFF"/></svg>