<svg xmlns="http://www.w3.org/2000/svg" width="769.5" height="769.5"><path d="M180.86 267.166c-26.684-3.64-51.412-14.01-72.765-30.512-4.901-3.788-25.183-22.768-45.07-42.177l-36.159-35.29 301.817-.272c276.048-.25 302.457-.133 309.317 1.36 9.92 2.158 17.34 5.237 25.66 10.646 5.631 3.66 62.112 55.633 98.336 90.486l7.504 7.22-289.5-.073c-233.387-.058-291.368-.327-299.14-1.388z" fill="#797979"/><path d="M181 610.166c0-1.955 64.84-160.114 67.06-163.572 4.06-6.326 11.525-13.155 17.926-16.4 9.858-4.995 14.99-5.47 59.264-5.489 23.296-.01 40.75.366 40.75.877 0 .492-9.831 25.242-21.847 55l-21.847 54.106h108.387c104.572 0 108.517-.067 112.097-1.903 2.04-1.046 4.786-3.056 6.102-4.465 1.43-1.533 11.807-25.78 25.825-60.347 22.65-55.854 23.421-57.978 23.044-63.54-.476-7.029-4.293-13.04-10.261-16.156-3.94-2.058-5.139-2.093-79.25-2.358-58.835-.21-75.234-.537-75.175-1.5.041-.677 6.679-17.431 14.75-37.231l14.675-36h107c100.675 0 107.384.108 113.5 1.83 11.397 3.211 18.962 7.455 26.25 14.728 14.091 14.06 18.984 34.323 13.084 54.188-2.253 7.589-58.992 148.187-63.312 156.888-17.35 34.945-57.851 65.153-93.522 69.755-7.14.922-384.5 2.481-384.5 1.59z" fill="#2c86c7"/><path d="M0 609.67c0-1.62 81.69-201.595 86.068-210.693 7.103-14.76 17.276-28.773 30.363-41.826 23.448-23.385 50.058-37.381 83.055-43.684 10.645-2.034 14.39-2.117 111.895-2.499 100.222-.391 100.879-.381 100.363 1.59-.285 1.092-6.961 17.97-14.835 37.508l-14.317 35.523-61.046.347c-68.758.39-66.162.132-83.046 8.28-14.661 7.077-26.63 18.534-33.897 32.447-1.874 3.589-18.585 44.1-37.134 90.025-18.55 45.925-34.77 85.862-36.043 88.75l-2.316 5.25H64.555C21.416 610.688 0 610.35 0 609.67z" fill="#797979"/></svg>