<svg xmlns="http://www.w3.org/2000/svg" viewBox="0 0 34.1 34.1"><path d="M.2 19.6c.5 3.6 2.2 6.9 4.8 9.5l5.8-5.8c0-6.1 3.2-11.7 8.5-14.8z" fill="#9b65c3"/><path d="M10.8 23.3c-3 0-5.9-.8-8.5-2.3-.7-.4-1.4-.9-2.1-1.4.5 3.6 2.2 6.9 4.8 9.5z" fill="#9b65c3"/><path d="M10.8 23.3 5 29.1c2.6 2.6 5.9 4.3 9.5 4.8l11-19.1c-3 5.2-8.6 8.5-14.7 8.5z" fill="#be63c5"/><path d="M13.1 31.8c-1.5-2.6-2.3-5.5-2.3-8.5L5 29.1c2.6 2.6 5.9 4.3 9.5 4.8-.5-.7-1-1.4-1.4-2.1z" fill="#bf63c6"/><path d="M32.5.9 19.3 8.5c-5.3 3-11.7 3-17 0C.8 11.1 0 14.1 0 17.1c0 .8.1 1.7.2 2.5.7.5 1.4 1 2.1 1.4 2.6 1.5 5.5 2.3 8.5 2.3l22-22c-.1-.1-.2-.2-.3-.4z" fill="#3278b1"/><path d="M2.3 21c2.6 1.5 5.5 2.3 8.5 2.3 0-6.1 3.2-11.7 8.5-14.8L.2 19.5c.7.6 1.4 1.1 2.1 1.5z" fill="#3278b2"/><path d="M2.3 8.5C.8 11.1 0 14.1 0 17.1c0 .8.1 1.7.2 2.5L19.3 8.5c-5.2 3.1-11.7 3.1-17 0z" fill="#45a4ec"/><path d="M32.8 1.3c-.3-.3-.5-.5-.8-.7-.6-.4-1.4-.6-2.1-.6H17C10.9 0 5.3 3.3 2.3 8.5c5.3 3 11.7 3 17 0-5.3 3-8.5 8.7-8.5 14.8 6.1 0 11.7-3.2 14.8-8.5l7.6-13.2c-.2-.1-.3-.2-.4-.3z" fill="#19bb7d"/><path d="M19.3 8.5 32.5.9c-.2-.1-.3-.3-.5-.4l-29.7 8c5.3 3.1 11.8 3.1 17 0z" fill="#08c7fb"/><path d="M29.8 0H17C10.9 0 5.3 3.3 2.3 8.5L32 .5c-.7-.3-1.4-.5-2.2-.5z" fill="#59f2f6"/><path d="m25.6 14.8 7.6-13.2c-.1-.1-.2-.2-.3-.4l-22 22c0 3 .8 5.9 2.3 8.5.4.7.9 1.4 1.4 2.1.8.1 1.6.2 2.4.2 3 0 5.9-.8 8.5-2.3-3-5.2-3-11.7.1-16.9z" fill="#da3757"/><path d="M10.8 23.3c0 3 .8 5.9 2.3 8.5.4.7.9 1.4 1.4 2.1l11-19.1c-3 5.2-8.6 8.5-14.7 8.5z" fill="#d33c4e"/><path d="m25.6 14.8-11 19.1c.8.1 1.6.2 2.5.2 3 0 5.9-.8 8.5-2.3-3.1-5.3-3.1-11.8 0-17z" fill="#ee5a24"/><path d="M33.5 2.1c-.3-.5-.6-.9-1-1.2L19.3 8.5c-5.3 3-8.5 8.7-8.5 14.8 6.1 0 11.7-3.2 14.8-8.5-3 5.3-3 11.7 0 17 5.2-3 8.5-8.6 8.5-14.6V4.3c0-.8-.2-1.5-.6-2.2z" fill="#8bdf55"/><path d="M32.5.9 19.3 8.5c-5.3 3-8.5 8.7-8.5 14.8l22-22c-.1-.1-.2-.3-.3-.4z" fill="#25c16f"/><path d="M10.8 23.3c6.1 0 11.7-3.2 14.8-8.5l7.6-13.2c-.1-.1-.2-.2-.3-.4z" fill="#8bdf55"/><path d="m33.2 1.6-7.6 13.2c-3 5.3-3 11.7 0 17l8-29.7c-.2-.2-.3-.3-.4-.5z" fill="#fb0"/><path d="M25.6 31.8c5.3-3 8.5-8.6 8.5-14.7V4.3c0-.8-.2-1.5-.6-2.2z" fill="#ffa800"/></svg>