<svg xmlns="http://www.w3.org/2000/svg" viewBox="0 0 10 10"><path fill="#ed1c24" d="M2.761 7.35a2.37 2.37 0 0 1 2.97-3.69 2.37 2.37 0 0 1-2.97 3.69Zm4.976-4.265-1.308.141a.384.384 0 0 1-.423-.34l-.141-1.31A4.245 4.245 0 0 0 .939 2.84a4.25 4.25 0 0 0-.183 5.085l1.308-.141a.385.385 0 0 1 .423.34l.142 1.309a4.248 4.248 0 0 0 5.108-6.348"/><path fill="#80cc28" d="M7.032.25 6.66.29a.412.412 0 0 0-.366.453l.171 1.573a.414.414 0 0 0 .452.364c.924-.097 1.89-.203 2.717-.292a.412.412 0 0 0 .364-.453l-.04-.376a.412.412 0 0 0-.453-.364l-1.933.21c-.916.096-.867.103 0 0l-.086-.79A.412.412 0 0 0 7.032.25Z"/></svg>