<svg xmlns="http://www.w3.org/2000/svg" width="31.011" height="29.473" viewBox="0 0 8.205 7.798"><path d="M82.924 86.574a1.944 1.944 0 0 1 2.437-3.028 1.944 1.944 0 0 1-2.437 3.028zm4.082-3.499-1.073.116a.315.315 0 0 1-.347-.28l-.116-1.074a3.483 3.483 0 0 0-4.041 1.037 3.487 3.487 0 0 0-.15 4.172l1.073-.116a.316.316 0 0 1 .347.28l.116 1.073a3.485 3.485 0 0 0 4.191-5.208" style="fill:#ed1c24;fill-opacity:1;fill-rule:evenodd;stroke:none;stroke-width:.35277778" transform="translate(-80.658 -80.747)"/><path d="m86.333 82.743.241-.026.066-.006a.338.338 0 0 0 .3-.373l-.07-.642-.642.07a.338.338 0 0 0-.299.37l.033.308a.34.34 0 0 0 .371.3" style="fill:#80cc28;fill-opacity:1;fill-rule:nonzero;stroke:none;stroke-width:.35277778" transform="translate(-80.658 -80.747)"/><path d="m88.861 82.13-.033-.306a.338.338 0 0 0-.372-.3l-1.586.172.07.642a.338.338 0 0 1-.3.373l-.066.006 1.988-.214a.338.338 0 0 0 .3-.372" style="fill:#80cc28;fill-opacity:1;fill-rule:nonzero;stroke:none;stroke-width:.35277778" transform="translate(-80.658 -80.747)"/><path d="m86.87 81.696-.07-.648a.338.338 0 0 0-.372-.299l-.306.033a.338.338 0 0 0-.3.372l.107.983a.338.338 0 0 1 .299-.372l.642-.069" style="fill:#80cc28;fill-opacity:1;fill-rule:nonzero;stroke:none;stroke-width:.35277778" transform="translate(-80.658 -80.747)"/></svg>