<svg xmlns="http://www.w3.org/2000/svg" viewBox="0 0 72 72"><defs><linearGradient id="a" x1="36" x2="36" y2="71.8" gradientUnits="userSpaceOnUse"><stop offset="0" stop-color="#fbb034"/><stop offset=".4" stop-color="#939266"/><stop offset="1" stop-color="#0067ac"/></linearGradient></defs><path fill="url(#a)" d="M72 36A36 36 0 1 1 36 0a36 36 0 0 1 36 36Z"/><path fill="#fff" d="M36 2.8A33.2 33.2 0 1 0 69.2 36 33.2 33.2 0 0 0 36 2.8Z"/><path fill="#ffd497" d="M60.1 46.2a.3.3 0 0 0 0-.5l-13.6-10L63.2 34a.3.3 0 0 0 0-.6l-16.8-1.8 13.6-10a.3.3 0 0 0 0-.4.3.3 0 0 0-.3-.2l-15.4 6.8 6.8-15.4a.3.3 0 0 0-.2-.4.3.3 0 0 0-.4 0l-10 13.7-1.8-16.8a.3.3 0 0 0-.3-.3.3.3 0 0 0-.3.3l-1.9 16.8-2.5-3.5V29l11.8 11 14.2 6.3a.3.3 0 0 0 .4-.1z"/><path fill="#fbb034" d="m25.8 38.4-1.4-1.3v-1.9l-1.7-1.6V32l-2.9-2.7V25l-2.2-2.1v-1.8l1.1-1.1v-3.9l-.5-.5v-1.2h15.5V29l19.7 18.4v1.2l1.8 1.8-2.2 2.1v3.1h.9v1.9H43.6v-1.7l-4.4-4.1h-2.1l-2.1-2h-3.6V47l-.9-.9v-.9l-4-3.7v-1.4h.5v-1.7z"/><path fill="#0067ac" d="m21.7 49 3 2.7-.5.5-2.3-2-1.3 1.5 2.2 2-.5.5-2.2-2-1.4 1.5 2.4 2.1-.6.6-3-2.7zm2.1 7.4c-.2.4-.5 1.1.8 1.8 1.3.6 1.7 0 1.8-.3.3-.7-.1-1-.8-1.6a5.6 5.6 0 0 1-1.2-1.3 1.4 1.4 0 0 1 0-1.4c.6-1.1 1.9-1 3-.5a2.5 2.5 0 0 1 1.2 1.3 1.6 1.6 0 0 1-.1 1.2l-.8-.5c.3-.7-.2-1.1-.8-1.4-.7-.4-1.4-.3-1.7.3-.3.5 0 .8.6 1.3 1.1 1 1.3 1.1 1.5 1.5a1.4 1.4 0 0 1 0 1.4c-.5 1-1.7 1.3-3 .6a2.5 2.5 0 0 1-1.5-1.5A2 2 0 0 1 23 56Zm6 4.4 1.3-5.4-2-.5.1-.7 5 1.1-.2.8-2-.5-1.4 5.4zm8.4-4.4a7.8 7.8 0 0 1-1.3 1l-.1-.9a9.3 9.3 0 0 0 1.3-1.1h.8l.6 6h-.8zm3.8 3a.8.8 0 0 0 1.2.5c1.3-.4.8-1.9.5-2.7a1.5 1.5 0 0 1-1 1 1.8 1.8 0 0 1-2.4-1.2 1.8 1.8 0 0 1 1.3-2.4 1.9 1.9 0 0 1 2.3.8 5.8 5.8 0 0 1 .6 1.5c.3.9 1 3-1.1 3.7a1.6 1.6 0 0 1-2.2-1zm-.2-4.2a1.1 1.1 0 0 0-.6 1.6 1.1 1.1 0 0 0 1.4.8 1 1 0 0 0 .7-1.5 1.2 1.2 0 0 0-1.5-.9zm4.8 3.3.6-2.2a9 9 0 0 0 .3-1.3 1.7 1.7 0 0 0-.2-1.1.9.9 0 0 0-1.3-.4 1 1 0 0 0-.3 1.4l-.8.4a1.7 1.7 0 0 1-.2-1.4 2 2 0 0 1 1-1 1.7 1.7 0 0 1 2.4.6c.2.3.3.6.2 1.6l-.4 1.6-.4 1.4 2.4-1.4.4.6L47 59zm4.8-3.9a.8.8 0 0 0 1.3 0c1-1 0-2-.7-2.7a1.4 1.4 0 0 1-.5 1.4 1.8 1.8 0 0 1-2.6-.1 1.8 1.8 0 0 1 .1-2.8 1.9 1.9 0 0 1 2.4-.2 5.3 5.3 0 0 1 1.2 1.1c.6.7 2.1 2.4.5 3.8a1.6 1.6 0 0 1-2.4 0zm-2-3.7a1.1 1.1 0 0 0 0 1.7 1.1 1.1 0 0 0 1.7.1 1.1 1.1 0 0 0 0-1.6 1.2 1.2 0 0 0-1.7-.2zm-31.5-6.2h-3.1V27.3h10.6V30h-7.5v4.4H25v2.7h-7.1zm19.1 0h-3V30h-5.6v-2.7h14.1V30H37Zm15 0h-6.5V27.3h6.3c2 0 3.3.2 4.5 1.3a4.3 4.3 0 0 1 1.3 3.3 3.9 3.9 0 0 1-2.2 3.7 4.1 4.1 0 0 1 2.7 4.1 4.9 4.9 0 0 1-2.2 4.1 6.8 6.8 0 0 1-3.9.9zM48.5 42h3.6c1.4 0 2.8-.7 2.8-2.5 0-1.5-1-2.5-2.7-2.5h-3.7zm0-7.7h2.9c2 0 3-.7 3-2.2 0-2-1.3-2.2-3-2.2h-2.9z"/></svg>