<svg xmlns="http://www.w3.org/2000/svg" viewBox="0 0 1105 1105"><path d="m318 73-3.5.5v254h790l.1-127.3c.1-91.3-.2-127.2-1-127.3-7.6-.3-783.1-.3-785.6.1z" fill="#03a6c2"/><path d="M.9 426.2V679c.1 1.3 14.7 1.5 127.4 1.5h127.2l.1-127.8.1-127.7H128.3C27.2 425 1 425.3.9 426.2zM314.6 552.2c.1 70 .2 127.5.3 127.8 0 .3 128 .5 284.4.5l284.2-.1V425.5l-284.5-.3-284.5-.2.1 127.2z" fill="#5fcade"/><path d="M314.7 778.5c-.2.5-.3 57.9-.3 127.5l.1 126.5 127.6.2 127.6.2V905.4c0-70.1-.3-127.5-.6-127.5-.3-.1-57.6-.2-127.3-.3-84-.1-126.9.2-127.1.9z" fill="#abebf4"/></svg>