<svg xmlns="http://www.w3.org/2000/svg" xml:space="preserve" fill="#FA4516" version="1.0" viewBox="0 0 880 604.3"><path d="m66.1 282.6 9.2-43.7 25.5.6c7.7-47.6 39.9-65.8 94.7-58.7l-8.4 43.5-20.6-.4c-10.2.4-15.6 5.9-17.1 15.5l26.7-.2-8.4 43.2-27.2.4-27.6 137.9-47.9.2 27.2-138.5-26.1.2zm125.6-45.2H242l-19.2 97.2C219 355.2 215 378 240 382.3c7.1 1 14.3-.1 20.8-3.1 20.3-9.3 25.3-29.1 29.4-48.9l19.2-92.6 48.2-.2-37 182.2-44.2.6 1.9-9c-29.4 19-65.1 16.5-86.5 2.7-20.7-14.3-25.4-39.4-20.2-71.2l20.1-105.4zm145.2 182.8L384.1 181l47.4.2-12.8 64.3c24.1-14.6 58.9-13.7 83.6-1.2 11.9 6.1 22 15.1 29.5 26.2 10 15.5 12.2 34.7 12.6 61.4 1.6 26.7 19 52.4 51.5 47.5 18.5-2.8 33.1-12 41.1-29 10.3-21.9 6.5-49.8-7.3-61.7-16.1-14-50.4-16.7-68.2 6.4-3.4-15.8-8.3-30.8-19-43.9 42.8-32.2 112.1-21.1 137.6 24.4 15.4 27.5 14.4 64-.3 93.7-12.4 25.2-34.9 44-61.9 51.9-23.2 6.6-48.2 4.9-68.7-3.7-17-7.2-33-21.3-41.1-37.8-13.6-27.8 2-53.7-17.4-84.8-11.6-15-35.1-20-54.8-12.2-16.6 6.5-28 21.6-31.7 38.6-4.1 18.8 0 40.5 15.6 51.4 16.6 12.6 48.9 10 65.3-11 2.1 16.3 7.5 31.5 20.2 44.3-23.1 20.2-89.5 30.4-118.5-.4l-2.9 14.8-47-.2zm346.5-240.9 80.2.2 4.5 49.7 27.1-49.7H815l-43.6 72.9-16.8.1-8.4-58.1-27 .2-14.7 57.8-18.5.1 14.1-57.7-21.1.4z"/></svg>