<svg xmlns="http://www.w3.org/2000/svg" width="32.735" height="32.735" viewBox="0 0 41.901 42.01" version="1.1" id="svg3746"><defs id="defs3644"><clipPath id="clip-path"><path id="rect3641" fill="none" d="M38.09 17.48h130.92v42.03H38.09z"/></clipPath><style id="style3639">.cls-3,.cls-4{fill:#8f4188;fill-rule:evenodd}.cls-4{fill:#74237c}</style></defs><g id="g4417" transform="translate(-41.947 -125.42)"><g clip-path="url(#clip-path)" id="g3652" transform="translate(3.853 107.92)"><path class="cls-3" d="M57.66 18.67a1.2 1.2 0 00-1.2-1.17h-.24a19.6 19.6 0 00-18.13 18.3v.07a1.2 1.2 0 001.2 1.2h17.17a1.19 1.19 0 001.2-1.19V18.69" id="path3648"/><path class="cls-4" d="M80 18.67a1.2 1.2 0 00-1.2-1.17h-.24a19.6 19.6 0 00-18.1 18.3v.07a1.2 1.2 0 001.2 1.2h17.17A1.19 1.19 0 0080 35.88V18.69" id="path3650"/></g><path class="cls-3" d="M41.943 166.26a1.2 1.2 0 001.2 1.17h.24a19.61 19.61 0 0018.13-18.31v-.07a1.2 1.2 0 00-1.2-1.2h-17.17a1.21 1.21 0 00-1.2 1.19v17.19" id="path3654"/><path class="cls-4" d="M83.853 166.26a1.2 1.2 0 01-1.2 1.17h-.24a19.62 19.62 0 01-18.1-18.31v-.07a1.2 1.2 0 011.2-1.2h17.17a1.2 1.2 0 011.17 1.19v17.19" id="path3656"/></g></svg>