<svg xmlns="http://www.w3.org/2000/svg" fill="none" viewBox="0 0 106.66 20"><path fill="url(#a)" d="M0 0h13.09v3.66H4.25V8.3h7.26v3.49H4.25v8.04H0Zm14 19.84h4.73l4.3-6.8 4.17 6.8h5.07L25.8 9.64 31.95 0H27.2l-4 6.28L19.37.01h-5.03l6.14 9.68z"/><path fill="#000" d="M48.13 11.76v8.07h-4V12.1c0-2.38-.96-3.71-2.94-3.71-2.04 0-3.26 1.47-3.26 3.96v7.48h-4V0h4v7.07a5.2 5.2 0 0 1 4.3-1.96c3.24 0 5.9 1.72 5.9 6.65zm1.9.79c0-4.47 3.03-7.45 7.67-7.45 4.65 0 7.68 2.98 7.68 7.45 0 4.48-3.03 7.45-7.66 7.45-4.64 0-7.7-2.97-7.7-7.45zm11.3 0c0-2.46-1.4-4.19-3.63-4.19s-3.6 1.73-3.6 4.19c0 2.46 1.36 4.19 3.6 4.19s3.63-1.72 3.63-4.19zm29.07-1.19v8.47h-4V11.6c0-2.1-.8-3.2-2.51-3.2-1.72 0-2.89 1.22-2.89 3.37v8.07h-4V11.6c0-2.1-.8-3.2-2.56-3.2s-2.86 1.27-2.86 3.4v8.04h-4V5.27h3.49l.37 1.81A5.09 5.09 0 0 1 75.7 5.1c1.73-.03 3.4.6 4.34 2.38.96-1.5 2.58-2.38 4.75-2.38 3.13.01 5.6 1.67 5.6 6.26zm1.9 1.22c0-4.53 2.94-7.48 7.33-7.48 4.25 0 7.03 2.92 7.03 7.17v1.05h-10.2v.14c0 2.26 1.33 3.45 3.23 3.45 1.75 0 2.58-.6 2.92-1.67h3.88c-.43 2.63-2.95 4.75-6.77 4.75-4.62.01-7.43-2.82-7.43-7.4zm10.42-1.62c-.2-1.8-1.22-2.88-3.03-2.88a3.03 3.03 0 0 0-3.08 2.88z"/><defs><linearGradient id="a" x1="3.11" x2="29" y1="22.94" y2="-2.96" gradientUnits="userSpaceOnUse"><stop stop-color="#E50093"/><stop offset=".8" stop-color="#F73400"/><stop offset="1" stop-color="#ED8000"/></linearGradient></defs></svg>