<svg xmlns="http://www.w3.org/2000/svg" viewBox="0 0 29 29"><path fill="url(#a)" d="M21.32 12.5 30 .15h-4.04l-7.24 10.3-.21.32-4.09 5.82a4.5 4.5 0 0 0-.34 4.69l3.68 6.87h3.73l-4.5-8.4c-.21-.38-.16-.88.13-1.3l1.72-2.44 6.54 12.14h3.74L21.29 13.6c-.17-.33-.15-.74.03-1.11Z"/><path fill="url(#b)" d="M16.95 5.56 14.05.15h-3.73l3.72 6.93c.21.39.16.89-.13 1.3l-1.72 2.45L6.43.15H2.69L9.72 13.2c.21.39.16.89-.13 1.3L0 28.15h4.03l12.58-17.91a4.48 4.48 0 0 0 .34-4.68Z"/><defs><linearGradient id="a" x1="21.79" x2="21.79" y1="29.92" y2="-12.63" gradientUnits="userSpaceOnUse"><stop stop-color="#FF2C00"/><stop offset="1" stop-color="#FF8100"/></linearGradient><linearGradient id="b" x1="8.73" x2="8.73" y1="29.92" y2="-12.63" gradientUnits="userSpaceOnUse"><stop stop-color="#FF2C00"/><stop offset="1" stop-color="#FF8100"/></linearGradient></defs></svg>
