<svg xmlns="http://www.w3.org/2000/svg" viewBox="0 0 29 29"><path d="M21.32 12.498L30 0.147949H25.96L18.72 10.4479C18.65 10.5479 18.58 10.6579 18.51 10.7679L14.42 16.588C13.43 17.998 13.3 19.798 14.08 21.278L17.76 28.1479H21.49L16.99 19.7579C16.78 19.3679 16.83 18.8679 17.12 18.4579L18.84 16.0079L25.38 28.1479H29.12L21.29 13.6079C21.12 13.2779 21.14 12.868 21.32 12.498Z" fill="url(#paint0_linear)"/><path d="M16.95 5.55795L14.05 0.147949H10.32L14.04 7.07794C14.25 7.46794 14.2 7.96796 13.91 8.37796L12.19 10.8279L6.42999 0.147949H2.69L9.72 13.1979C9.93 13.5879 9.88 14.088 9.59 14.498L0 28.1479H4.03L16.61 10.2379C17.6 8.82795 17.73 7.03795 16.95 5.55795Z" fill="url(#paint1_linear)"/><defs><linearGradient id="paint0_linear" x1="21.7903" y1="29.9185" x2="21.7903" y2="-12.6286" gradientUnits="userSpaceOnUse"><stop stop-color="#FF2C00"/><stop offset="0.9999" stop-color="#FF8100"/></linearGradient><linearGradient id="paint1_linear" x1="8.7281" y1="29.9185" x2="8.7281" y2="-12.6286" gradientUnits="userSpaceOnUse"><stop stop-color="#FF2C00"/><stop offset="0.9999" stop-color="#FF8100"/></linearGradient></defs></svg>