<svg xmlns="http://www.w3.org/2000/svg" xmlns:xlink="http://www.w3.org/1999/xlink" viewBox="0 0 23.1 23.1"><defs><path id="m" d="M8.4 13.9h8.7v5.2H8.4z"/><path id="q" d="M15.3 15.6h1.6v.6h-1.6z"/><path id="u" d="M13.2 19h3.1v1.2h-3.1z"/></defs><g transform="translate(2.88)"><path fill="#ec671c" d="M15.9 14.7q.6.6.9 1.2c.7 1.4.4 2.9-.9 4.2-1.5 1.5-4.1 2.4-7.2 2.4-3 0-5.6-.9-7.2-2.4-1.3-1.3-1.6-2.8-.9-4.2q.3-.6.9-1.2c-.4.4-.8.8-1.1 1.4-.7 1.3-.4 3.2.9 4.5 1.6 1.5 4 2.5 7.4 2.5s5.8-1 7.3-2.5 1.5-3.4.9-4.6c-.2-.4-.6-.9-1-1.3"/><g opacity=".85"><defs><path id="a" d="M0 14.7h17.3v8.4H0z"/></defs><clipPath id="b"><use xlink:href="#a"/></clipPath><g clip-path="url(#b)"><defs><path id="c" d="M.4 16.1c-.7 1.3-.4 3.2.9 4.5 1.6 1.5 4 2.5 7.4 2.5s5.8-1 7.3-2.5c.9-.9 1.3-2 1.3-3v-.1c0-.6-.1-1.1-.4-1.5-.3-.5-.6-.9-1.1-1.4q.6.6.9 1.2c.7 1.4.4 2.9-.9 4.2-1.5 1.5-4.1 2.4-7.2 2.4-3 0-5.6-.9-7.2-2.4-1.3-1.3-1.6-2.8-.9-4.2q.3-.6.9-1.2c-.4.5-.7.9-1 1.5"/></defs><clipPath id="e"><use xlink:href="#c"/></clipPath><linearGradient id="d" x1="-16.39" x2="-15.39" y1="37.47" y2="37.47" gradientTransform="matrix(12.0229 4.312 4.312 -12.0229 36.68 537.46)" gradientUnits="userSpaceOnUse"><stop offset="0" stop-color="#ec671c"/><stop offset=".06" stop-color="#e1631f"/><stop offset=".52" stop-color="#884739"/><stop offset=".84" stop-color="#513549"/><stop offset="1" stop-color="#3b2e4f"/></linearGradient><path fill="url(#d)" d="M15.4 28.7-3 22.2 1.7 9.1l18.4 6.6z" clip-path="url(#e)"/></g></g><path fill="#f60" d="M13.4 13.1c-1.4-.6-3.1-.9-4.7-.9s-3.3.3-4.7.9c-1.6.6-2.8 1.6-3.3 2.8-.7 1.4-.4 2.9.9 4.2 1.5 1.5 4.1 2.4 7.2 2.4 3 0 5.6-.9 7.2-2.4 1.3-1.3 1.6-2.8.9-4.2-.8-1.2-2-2.1-3.5-2.8"/><defs><path id="g" d="M8.6 12.2q-2.55 0-4.8.9c-1.6.6-2.8 1.6-3.3 2.8-.7 1.4-.4 2.9.9 4.2l.3.3c5.6-.3 8.6-3.6 7.2-6.6-.3-.6-.2-1.1-.2-1.5h-.1z"/></defs><clipPath id="i"><use xlink:href="#g"/></clipPath><linearGradient id="h" x1=".21" x2="9.29" y1="16.3" y2="16.3" gradientUnits="userSpaceOnUse"><stop offset="0" stop-color="#f93"/><stop offset="1" stop-color="#f60"/></linearGradient><path fill="url(#h)" d="M-.1 12.2h10.5v8.1H-.1z" clip-path="url(#i)"/><path fill="#fff" fill-rule="evenodd" d="m5 13.9 3.1 1 .7-1.8.7 1.8q1.5-.6 3-.9l-2.1 1.5 4 .7-4 .1c1 .8 1.8 1.6 2.7 2.5l-3.6-1.9-.8 3.1-.7-3.1-3.7 1.8L7 16.2l-4.1-.1 4.1-.7c-.6-.5-1.2-1-2-1.5m3.7 1.9v-2.3l-.6 2q.3 0 .6.3m-3.1-1.6 2.5 1.2c-.2 0-.4 0-.6.1-.6-.5-1.2-.9-1.9-1.3m3.1 1.6 4.8.2q-2.1-.45-4.2-.6c-.1.1-.4.2-.6.4m3.1-1.6-2.5 1.2c0-.1-.1-.2-.1-.3.9-.4 1.8-.7 2.6-.9m-3.2 1.6.1 3.4.7-3c-.2-.2-.5-.3-.8-.4m3.7 2.3c-.9-.7-1.9-1.3-2.9-1.9h.6c.8.5 1.6 1.2 2.3 1.9m-3.6-2.3-4.5.2c1.4 0 2.4.1 3.8.2.3-.2.5-.3.7-.4m-3.5 2.3c.9-.7 1.9-1.3 2.9-1.9 0 .1.1.3.1.4q-1.65.6-3 1.5m3.7 4.1s-.1.1-.2.1c0 0-.1-.1-.2-.1v-1.3s.1-.1.2-.1c0 0 .1.1.2.1zM1.1 19c-.1.1-.1.1-.1.2 0 0 .1.1.2.1.5-.2.9-.5 1.4-.7v-.2h-.1c-.5.1-1 .4-1.4.6m-.4-2.7-.1.1s0 .1.1.1c.4-.1.9-.1 1.3-.2l.1-.1-.1-.1c-.4.1-.9.1-1.3.2m1.7-2.2s-.1 0-.1.1v.1c.3 0 .6.1.9.2l.1-.1v-.1c-.3-.1-.6-.1-.9-.2m9.7-1.3h.1c-.2.1-.3.2-.5.3h-.1V13c.1 0 .3-.1.5-.2m-3.5-.5h.2v.4h-.2zm-3.5.5c.1-.1.1-.1.2-.1.2.1.3.2.5.3v.1h-.1zm-1 8.6h-.2s0-.1-.1-.1c.3-.4.6-.8 1-1.1H5s0 .1.1.1zM16.3 19c0 .1.1.1.1.1s-.1.1-.2.1c-.5-.2-.9-.5-1.4-.7v-.2h.1c.5.2.9.5 1.4.7m.3-2.7.1.1s0 .1-.1.1c-.4-.1-.9-.1-1.3-.2l-.1-.1.1-.1zM15 14.1s.1 0 .1.1v.1c-.3 0-.6.1-.9.2l-.1-.1v-.1c.2-.1.6-.1.9-.2m-1.8 7.3h.2s0-.1.1-.1c-.3-.4-.6-.8-1-1.1h-.2s0 .1-.1.1c.4.3.7.7 1 1.1"/><defs><path id="j" d="M8.6 20.9v1.3zh.2l.1.1v1.3V21s-.1-.1-.2-.1c0-.1-.1-.1-.1 0m-3.8-.8c-.3.4-.7.8-1 1.1v.1c.3-.2.7-.7 1-1.2H5s0 .1.1.1c0 0 0-.1-.1-.1zm7.4.1c.1-.1.2-.1.2-.1.3.4.8.9 1 1.2v-.1c-.3-.4-.6-.8-1-1.1h-.2c.1 0 .1.1 0 .1M1.1 19l-.1.1zl1.4-.6h.1v-.1h-.1c-.5.2-1 .5-1.4.7m13.7-.7q0 .15 0 0c.1.1.1.1.2 0 .5.2.9.5 1.4.7v.1l-.1-.1c-.5-.2-.9-.5-1.4-.7zm-9.6-.2 3-1.5v-.1c-1.1.5-2.1 1-3 1.6m-.8.6.1-.1L7 16.3v-.1zm6-2.4 2.5 2.3.1.1c-.8-.9-1.6-1.7-2.6-2.4m-1.7 2.9.7-3c.7.4 1.7 1.1 2.9 2v-.1c-.9-.7-1.9-1.3-2.9-1.9zm-8-2.9-.1.1s.1 0 .1-.1c.4 0 .9-.1 1.3-.1 0 0 0-.1-.1-.1-.3.1-.8.1-1.2.2m14.6-.1c.5 0 .9.1 1.3.1l.1.1-.1-.1c-.4-.1-.8-.1-1.3-.1M4.2 16c1.3 0 2.5.1 3.8.2h.1C6.9 16 5.7 16 4.5 16zm4.5-.2q2.55 0 4.8.3c-1.5-.3-3.2-.3-4.8-.3m-1.6-.4-4.1.7h.2zm3.3 0 3.8.6h.2zm-1.1-.3c0 .1.1.2.1.3-.1-.1-.1-.2-.1-.3m-3.7-.9 1.9 1.3c.2 0 .4 0 .6-.1l.6.3h.1c-.2.1-.4.2-.6.4.2-.1.4-.3.7-.4-.2-.1-.4-.2-.6-.4h-.1c-.2 0-.4 0-.5.1-.8-.4-1.4-.8-2.1-1.2m3.8 1.2 2.5-1.2c-.9.3-1.7.7-2.5 1.2m-7.2-1.2c0 .1.1 0 .1 0 .3 0 1 .2 1 .2v-.1c-.3-.1-.6-.1-.9-.2-.1 0-.1.1-.2.1m11.8.1c0 .1.6 0 .9-.1 0 0 .1 0 .1.1v-.1s-.1 0-.1-.1c-.2.1-.6.1-.9.2m-5.9.6c-1-.4-2-.7-3.1-1 0 0 .1 0 .1.1q1.5.3 3 .9l.7-1.8.7 1.8c1-.4 1.9-.7 2.9-.9 0 0 .1 0 .1-.1l-3 .9-.7-1.8c-.3.6-.5 1.2-.7 1.9m-5.5 1.2c.5-2.5 4-3.2 6.1-3.2s5.6.7 6.1 3.2c.7 3.1-3.9 4.2-6.1 4.2s-6.8-1.1-6.1-4.2m-.3.1c-.7 3.2 4 4.4 6.4 4.4 2.3 0 7.1-1.2 6.4-4.4-.6-2.6-4.1-3.3-6.4-3.3s-5.8.7-6.4 3.3m9.3-3.1c.2-.1.3-.2.5-.3-.2.1-.4.2-.5.3m-6.4-.3c0 .1 0 0 0 0 0 .1.1.1.1.1.2.1.3.2.5.3-.2-.1-.3-.2-.5-.3 0-.1-.1-.1-.1-.1m3.4-.5c0 .1.1.1 0 0 .1 0 .2.1.2.1v-.1z"/></defs><clipPath id="l"><use xlink:href="#j"/></clipPath><linearGradient id="k" x1=".6" x2="16.77" y1="17.24" y2="17.24" gradientUnits="userSpaceOnUse"><stop offset="0" stop-color="#ca6615"/><stop offset="1" stop-color="#7b170f"/></linearGradient><path fill="url(#k)" d="M.6 12.3h16.2v9.9H.6z" clip-path="url(#l)"/><path fill="#fff" fill-rule="evenodd" d="M2.4 16.2c.6-2.6 4-3.3 6.4-3.3s5.8.8 6.4 3.3c.7 3.2-4 4.4-6.4 4.4s-7.2-1.2-6.4-4.4m.2 0c.5-2.5 4-3.2 6.1-3.2s5.6.7 6.1 3.2c.7 3.1-3.9 4.2-6.1 4.2s-6.8-1.1-6.1-4.2"/><g opacity=".66"><clipPath id="n"><use xlink:href="#m"/></clipPath><g clip-path="url(#n)"><defs><use xlink:href="#m" id="o"/></defs><clipPath id="p"><use xlink:href="#o"/></clipPath><path fill="#3b2e4f" d="m16.3 16.8-1-.2h-.1c-.2 0-.5-.2-.7-.5-.1-.2-.5-.6-.7-.9-.3-.3-.9-.6-1-.8-.1-.1-.2-.4-.3-.5 0-.1-.1-.2-.3-.2s-.2.1-.3.1h-.5c-.1.1-.2.2-.5.2h-.1c0 .1.3.1.4.1 0 0 .3.1.4.1s.1 0 .3.1c.3.2.8.7.9 1.2.1.3.5.7.5.9-.5 0-1.3-.4-1.3-.4h-.1s-.3-.2-.9-.2c-1-.1-1.4-.2-1.5-.3-.2-.1-.2-.1-.3-.1h-.1s0 .1-.1.1c-.2.2-.3.3-.5.6 0 .1-.1.1-.2.1.2 0 .6-.1.6-.1.4 0 .9.1.9.1.2 0 .5.2.5.2s1.4.4 1.8.7c.2.2 1.4.6 1.7.7s1.1.5 1.1.5c.2.2 1.3.7 1.7.8.4-.7.5-1.4.4-2.1z" clip-path="url(#p)"/></g></g><g opacity=".66"><clipPath id="r"><use xlink:href="#q"/></clipPath><g clip-path="url(#r)"><defs><use xlink:href="#q" id="s"/></defs><clipPath id="t"><use xlink:href="#s"/></clipPath><path fill="#3b2e4f" d="M15.8 15.6h-.2l-.3.2c0 .1.1.1.1.1s.4 0 .4.1c.3.1.8.2 1.1.2 0-.1-.1-.2-.1-.3s-.1-.2-.1-.3z" clip-path="url(#t)"/></g></g><g opacity=".66"><clipPath id="v"><use xlink:href="#u"/></clipPath><g clip-path="url(#v)"><defs><use xlink:href="#u" id="w"/></defs><clipPath id="x"><use xlink:href="#w"/></clipPath><path fill="#3b2e4f" d="M13.7 19.1s-.1-.1-.4-.1c-.2 0 .1.5.1.5.2.1 1 .4 1.1.4.2 0 .7.2.7.2s.3 0 .6.1l.1-.1c.2-.2.3-.3.4-.5-.6 0-1.5 0-2.2-.4-.1-.2-.4-.1-.4-.1" clip-path="url(#x)"/></g></g><path fill="#f93" d="m11.7 9.1-.2-.2c0-.1.1-.2.1-.3h-.1c-.1-.2-.1-.5 0-.7 0-.1.1-.2.1-.3-.2-.6-.5-1.1-.8-1.7-.1-.2-.1-.3-.1-.4-.2-.2-.4-.7-.5-1.1-.1.6-.3 1.2-.3 1.3 0 .6.6.9.4 2 0 .2-.1.5-.2.8.1.7.1 1.2.3 2.1.3.3.5.6.6 1 .1.3.3.9.6 1 .2.1-.6.2-.8-.1s-.6-.5-.8-.8l-.5-.9-.2.9c.2.9.1 1.2-.1 1.9-.1.3-.8-1.2-.8-1.3 0-.3 0-.5-.1-.8s-.1-.7-.1-1c0-.5 0-1.4.1-1.7-.1-.4-.5-1.1-.6-1.5-.1-.7 0-1.3 0-2-.1.3-.2.7-.5 1L6.1 7.5c-.1.2 0 .3-.2.5-.2.3-.1.2-.1.4v.1c-.2.1-.3.2-.4.1-.3-.1-.3-.3-.3-.6 0-.5.3-.5.6-.8.3-.7.6-1.7 1-2.1 0-.1.1-.5.3-.9 0-.6.2-1.1.8-1.4.3-.1.6-.1.6-.5v-.2c-.1-.1-.2-.1-.2-.2-.1-.1-.2-.9-.2-1 .1-.7.5-.9.9-.9.5 0 .9.3.9 1 0 .5-.6 1.3.3 1.5.3.1.4 0 .7.3s.4.9.4 1.4l.3.7c.6 1 .4 1.3.6 2.3.1.3.2.5.2 1.1 0 .2-.3.8-.6.8"/><path fill="#009" d="M5.7 8.4c0-.3 0-.2.2-.5.1-.2 0-.3.1-.5.3-.4.7-.8 1-1.2.3-.3.7-1.2.7-1.5 0 0 0-.1 0 0 .1.6.1 1.1.1 1.6 0 1.2 0 1.1.5 2.2 0-.4.1-1.1.4-1.3-.2 1.2-.2 2.8-.2 3.3 0 .3-.1.7 0 .9V14l-.1 1c-.1.3-.4.7-.6.8-.1 0-.3.1-.3.2s.9.4 1.1.1c.2-.2.3-.4.5-.6.3-.3 0-.6 0-.9.1-.6.3-1.2.4-1.8.1-.4 0-.7-.1-1.1l.1-1.2c.1.2.3.5.4.8.2.5.2.5.6.9l.4.4q.3.45.3.9c-.2.3-.2.3-.4.5 0 0 0 .1.1.1.6 0 .5-.3.7-.7.1-.3.6-.7.1-.8-.1 0-.3-.1-.4-.3-.3-.5-.3-.5-.5-1-.1-.3-.3-.5-.5-.7l-.3-.9c.1-.5 0-.8-.1-1.3.2-.9.4-1.1 0-2-.1-.2-.2-.4-.2-.7s.2-1 .3-1.3c.1-.1.1-.3.2-.3.1.4.4 1.1.6 1.3 0 .1 0 .3.1.4.2.6.6 1.1.8 1.7.1.2 0 .3-.1.5v.5h.1c0 .1-.1.2-.1.3s.1.1.1.1c.1 0 .3-.5.3-.7 0-.6-.1-.8-.2-1-.2-1-.1-1.3-.6-2.2l-.2-.8c0-.4-.2-1.3-.7-1.5-.1 0-.2 0-.3-.1-.7-.1-.7-.7-.5-1.2S9.7.3 8.9.2c-.4 0-.6.3-.7.8 0 0 0 .7.1.9.2.1.4 0 .3.4 0 .3-.2.5-.5.6s-.6.2-.7.6c0 .1-.1.3-.1.6-.1.4-.3.7-.4 1.1-.5.5-.8 1.7-1.3 2.2-.3.3-.5.4-.3.9 0 .1.2.2.2.2z"/></g></svg>