<svg xmlns="http://www.w3.org/2000/svg" viewBox="0 0 34.26 13.38"><defs><linearGradient id="a" x1="14.079" y1="1.349" x2="14.079" y2="13.379" gradientUnits="userSpaceOnUse"><stop offset="0" stop-color="#e98300"/><stop offset=".1" stop-color="#ef9f00"/><stop offset=".22" stop-color="#f5b900"/><stop offset=".36" stop-color="#f9cd00"/><stop offset=".51" stop-color="#fddb00"/><stop offset=".69" stop-color="#fee300"/><stop offset="1" stop-color="#ffe600"/></linearGradient><linearGradient id="b" x1="27.887" y1="12.582" x2="27.887" y2="1.812" href="#a"/></defs><path d="M23.74 11.42c-4.23 1.75-6.98-.56-8.78-2.66L9.89 2.71A6.8 6.8 0 0 0 4.43 0h2.24c2.15-.02 4.17.99 5.46 2.71l5.07 6.05a6.9 6.9 0 0 0 6.54 2.66" fill="url(#a)"/><path d="m25.38 9.72 5.43-6.47A16.3 16.3 0 0 1 34.26.02h-6.67c-2.15-.02-4.17.99-5.46 2.71l-4.51 5.38c2.02 2.35 5.91 3.79 7.75 1.61z" fill="url(#b)"/><path d="M23.74 11.42c-4.23 1.75-6.98-.56-8.78-2.66L9.88 2.71A6.77 6.77 0 0 0 4.43 0H0l1.85 1.49 1.97 1.73c.73.74 1.13 1.32 1.67 2.06 1.52 2.07 2.69 3.63 4.31 5.15 1.27 1.19 1.96 1.6 2.4 1.84 2.04 1.09 3.93 1.11 4.95 1.11 3.12 0 5.48-1.25 6.6-1.96z" fill="#003478"/></svg>