<svg xmlns="http://www.w3.org/2000/svg" viewBox="0 0 34.26 13.38"><defs><linearGradient id="a" x1="14.08" x2="14.08" y1="1.35" y2="13.38" gradientUnits="userSpaceOnUse"><stop offset="0" stop-color="#e98300"/><stop offset=".1" stop-color="#ef9f00"/><stop offset=".22" stop-color="#f5b900"/><stop offset=".36" stop-color="#f9cd00"/><stop offset=".51" stop-color="#fddb00"/><stop offset=".69" stop-color="#fee300"/><stop offset="1" stop-color="#ffe600"/></linearGradient><linearGradient id="b" x1="27.89" x2="27.89" y1="12.58" y2="1.81" href="#a"/></defs><path fill="url(#a)" d="M23.74 11.42c-4.23 1.75-6.98-.56-8.78-2.66L9.89 2.71A6.8 6.8 0 0 0 4.43 0h2.24a6.75 6.75 0 0 1 5.46 2.71l5.07 6.05a6.9 6.9 0 0 0 6.54 2.66z"/><path fill="url(#b)" d="m25.38 9.72 5.43-6.47A16.27 16.27 0 0 1 34.26.02h-6.67a6.75 6.75 0 0 0-5.46 2.71l-4.51 5.38c2.02 2.35 5.91 3.79 7.75 1.61z"/><path fill="#003478" d="M23.74 11.42c-4.23 1.75-6.98-.56-8.78-2.66L9.88 2.71A6.77 6.77 0 0 0 4.43 0H0l1.85 1.49 1.97 1.73c.73.74 1.13 1.32 1.67 2.06a35.01 35.01 0 0 0 4.31 5.15 11.15 11.15 0 0 0 2.4 1.84 10.04 10.04 0 0 0 4.95 1.11c3.12 0 5.48-1.25 6.6-1.96z"/></svg>