<svg xmlns="http://www.w3.org/2000/svg" width="229.723" height="229.723"><circle cx="114.862" cy="114.862" r="114.862" fill="#fff" fill-rule="evenodd" paint-order="markers fill stroke"/><path d="M92.59 128.48v44.46H76.9v-44.5l-76 .05a114.82 114.82 0 00176.73 82.59l-52.18-82.6zm46.3-16.04a21 21 0 006.72-5.67 27.42 27.42 0 004.39-8.28 30.55 30.55 0 001.57-9.76 26.49 26.49 0 00-1.83-9.85 28.85 28.85 0 00-4.88-8.2 22.13 22.13 0 00-7.15-5.58 19.47 19.47 0 00-8.63-2H92.59v51.43h37.5a18.47 18.47 0 008.8-2.09zM114.85 0A114.86 114.86 0 000 114.52h76.86V49.2h53A33.55 33.55 0 01145 52.55a37.66 37.66 0 0111.86 9.07 43.29 43.29 0 017.76 12.72 38.85 38.85 0 012.79 14.39 42.6 42.6 0 01-1.83 12.46 38.32 38.32 0 01-5.24 10.9 34.82 34.82 0 01-8.19 8.37 31.76 31.76 0 01-10.72 5.05l48.2 76.5A114.83 114.83 0 00114.85 0z" fill="#9de857"/></svg>
