<svg xmlns="http://www.w3.org/2000/svg" viewBox="0 0 38 30"><path fill="#0b7ed0" d="M28.2 3.7a12.4 12.4 0 0 1-.5 18.3L19 30l-8.7-8a12.4 12.4 0 0 1-.5-18.3c5-5 13.3-5 18.4 0z"/><path fill="#2cd4ed" d="M9.5 11a9.5 9.5 0 0 1 9.5 9.4V30H9.5a9.5 9.5 0 0 1 0-19z"/><path fill="#0db4e2" d="M9.5 11a9.5 9.5 0 0 0-3.42.66c-.24 3.52 1 7.12 3.72 9.84l.5.5 8.7 8v-9.6A9.5 9.5 0 0 0 9.5 11Z"/><path fill="#3169ff" d="M19 30V20a9.5 9.5 0 1 1 9.5 10z"/><path fill="#3153ff" d="M30.15 11.15A9.5 9.5 0 0 0 19 20v10l8.7-8a12.86 12.86 0 0 0 4.24-10.35c-.63-.34-1.8-.5-1.8-.5Z"/></svg>
