<svg xmlns="http://www.w3.org/2000/svg" width="134" height="134"><linearGradient id="a" gradientUnits="userSpaceOnUse" x1="0" y1="20.355" x2="134" y2="20.355" gradientTransform="translate(0 46.645)"><stop offset="0" stop-color="#5a5cc1"/><stop offset=".506" stop-color="#763aaf"/><stop offset="1" stop-color="#92199e"/></linearGradient><path d="M26.8 80.522h81.071L33.258 87zm2.806-3.593c-5.68 0-9.994-5.192-9.994-11.574 0-6.38 4.315-11.576 9.994-11.576 1.849 0 3.199.56 4.704 1.522v-.98h4.993v22.066H34.31v-.978c-1.505.963-2.855 1.52-4.704 1.52zm0-5.313c2.804 0 4.78-2.767 4.78-6.26s-1.976-6.26-4.78-6.26c-2.8 0-4.85 2.767-4.85 6.26s2.05 6.26 4.85 6.26zm40.455 5.313c2.456 0 4.244-1.362 4.244-1.362v.82h4.992V54.321h-4.992v12.963c0 2.431-1.666 4.485-4.091 4.485-2.424 0-4.09-2.054-4.09-4.485V54.32H61.13v12.963c0 5.319 3.627 9.645 8.93 9.645zm55.009-23.15c-2.456 0-4.244 1.363-4.244 1.363v-.82h-4.993v22.065h4.993V63.425c0-2.432 1.665-4.485 4.091-4.485 2.424 0 4.09 2.053 4.09 4.485v12.962H134V63.425c0-5.319-3.627-9.646-8.93-9.646zM14.12 66.072l7.726 10.315h-6.537L8.915 67.84H5.222v8.548H0V48.823h8.63c5.227 0 9.478 4.259 9.478 9.503 0 3.193-1.581 6.012-3.989 7.746zm-1.228-7.746a4.273 4.273 0 00-4.263-4.27H5.222v8.545h3.407a4.273 4.273 0 004.263-4.275zm70.846 10.752c-.001 4.927 3.7 7.87 7.423 7.87 1.387 0 3.312-.455 4.883-1.388l-3.29-4.394c-.449.305-1.015.543-1.67.543-.815 0-2.353-.625-2.353-2.708V59.56H93V54.32h-4.27v-5.499h-4.993v5.499h-2.641v5.238h2.64v9.519zM47.29 67.323l7.363 9.064h6.996l-9.935-11.722L60.28 54.32h-6.998l-5.99 7.687V47h-5.142v29.387h5.142zm66.555-.424l-14.382-.003c.656 5.042 6.34 7.602 9.75 2.56l4.41 2.554c-2.834 4.033-6.208 4.94-8.842 4.94-5.217 0-10.42-4.762-10.42-11.596 0-6.499 4.146-11.593 9.924-11.593 5.681 0 10.79 5.213 9.56 13.138zm-5.201-4.393c-.973-5.465-7.942-5.168-8.993 0z" fill="url(#a)"/></svg>