<svg xmlns="http://www.w3.org/2000/svg" width="29.088" height="29.088"><g transform="translate(36.675 2.585)"><rect width="10.684" height="10.675" x="-37.764" y="17.869" transform="matrix(.99757 .06965 .0521 .99864 0 0)" ry="1.729" rx="1.727" fill="#f9a507" fill-rule="evenodd"/><rect width="8.377" height="8.381" x="9.31" y="14.405" transform="matrix(-.9994 .03485 -.08685 .99622 0 0)" ry="1.193" rx="1.193" fill="#f9a507" fill-rule="evenodd"/><rect width="8.377" height="8.381" x="24.544" y="-.206" transform="matrix(-.9994 .03485 -.08685 .99622 0 0)" ry="1.193" rx="1.193" fill="#f9a507" fill-rule="evenodd"/><rect width="10.684" height="10.675" x="-18.707" y="-1.4" transform="matrix(.99757 .06965 .0521 .99864 0 0)" ry="1.729" rx="1.727" fill="#f9a507" fill-rule="evenodd"/><path d="M-23.104 2.78h2.679l.15 5.805c.308.909.827 1.304 1.464 1.415l6.372.498-.337 2.85-6.45.233c-.905-.066-1.189.442-1.367 1.047l-.466 6.364-2.88.29-.044-5.71c-.126-.537-.055-1.09-1.492-1.526l-5.449-.542.178-2.83 5.898-.217c.868-.086 1.174-.628 1.23-1.374z" fill="#bababa"/></g></svg>