<svg xmlns="http://www.w3.org/2000/svg" viewBox="0 0 88.93 88.93"><path d="M0 44.465a44.465 44.465 0 1 0 88.93 0 44.465 44.465 0 0 0-88.93 0z" fill="#1d4371"/><path d="m74.26 64.425-8.85.72a3.7 3.7 0 0 1-2.6-1l-3.2-3.08-3.18-2.98a1.85 1.85 0 0 0-3.05 1.29c-.03.42.1.84.34 1.2l5.61 6.7 2 2.19a2.96 2.96 0 1 1-4.1 4.26l-2.28-1.9-8.46-7.22-.4-.34a1.8 1.8 0 0 0-2.5.05l-.39.36-8.2 7.52-2.19 1.98a2.96 2.96 0 1 1-4.26-4.1l1.91-2.26 5.33-6.85c.26-.37.37-.82.33-1.27a1.84 1.84 0 0 0-1.74-1.66c-.5-.03-.99.15-1.36.48l-3.06 3.1-3.09 3.2a3.7 3.7 0 0 1-2.56 1.1l-8.86-.39-2.96-.15a2.96 2.96 0 0 1-.11-5.92l2.95-.24 6.6-.82c1.75-.36 3-1.92 2.97-3.71l-.38-20.45a19.76 19.76 0 1 1 39.5-.74l.39 20.45a3.72 3.72 0 0 0 3.1 3.6l6.63.57 2.95.13a2.96 2.96 0 1 1 .12 5.92z" fill="#fff"/><path d="M57.9 32.585a136.85 136.85 0 0 0-7.18-4.64c-1.28-.77-2.77.27-2.75 1.77.01.8.42 1.31 1.07 1.72l3.93 2.56c-1.5.9-2.87 1.67-4.2 2.53a1.87 1.87 0 0 0-.61 2.63 1.86 1.86 0 0 0 2.53.71c2.4-1.35 4.77-2.76 7.1-4.21a1.82 1.82 0 0 0 .11-3.07m-18.53 3.71-3.86-2.3 3.82-2.48c1.25-.82 1.57-1.92.88-2.95-.67-.98-1.78-1.1-3-.32-2.05 1.32-4.1 2.64-6.13 3.97-1.71 1.11-1.68 2.7.08 3.75a840.4 840.4 0 0 0 6.2 3.67c1.22.72 2.36.53 2.97-.48.61-1 .25-2.13-.96-2.86" fill="#1d4371"/></svg>
