<svg xmlns="http://www.w3.org/2000/svg" viewBox="0 0 99 128"><path d="M99 73c0-6-3-11-7-14a17 17 0 0 0-3-6 19 19 0 0 0-7-13 7 7 0 0 0 2-2c4-2 7-6 8-9a13 13 0 0 0 4-9 8 8 0 0 0-1-3 7 7 0 0 0 2-8c-1-3-6-6-13-6a10 10 0 0 0-7-3 16 16 0 0 0-3 1 9 9 0 0 0-4-1 15 15 0 0 0-7 2 7 7 0 0 0-1 0c-3 0-7 2-8 3a24 24 0 0 0-4 5 24 24 0 0 0-5-5c-1-1-4-3-8-3a15 15 0 0 0-8-2 9 9 0 0 0-3 1 16 16 0 0 0-4-1 10 10 0 0 0-7 3C9 3 4 6 2 9a7 7 0 0 0 2 8 8 8 0 0 0 0 3 13 13 0 0 0 3 9c1 3 4 7 9 9a7 7 0 0 0 1 2 19 19 0 0 0-7 13 17 17 0 0 0-3 6c-4 3-6 8-7 14 0 6 1 12 4 15a21 21 0 0 0 4 8 21 21 0 0 0 5 13 22 22 0 0 0 12 7 29 29 0 0 0 10 6 21 21 0 0 0 15 6 21 21 0 0 0 15-6 29 29 0 0 0 9-6 22 22 0 0 0 12-7 21 21 0 0 0 5-13 21 21 0 0 0 4-8c3-3 5-9 4-15z"/><path fill="#46af4b" d="M62 9c0 2 1 1 1 1 3-3 5-3 7-3a1 1 0 0 1 1 1v1c4-2 7-2 9-1-2 1-1 2 0 2 3-1 9 0 10 1a1 1 0 0 1 0 1 10 10 0 0 0-4 7h2a1 1 0 0 1 1 1c0 2-2 4-5 6l1 1a1 1 0 0 1 0 1c-1 2-2 4-7 5a1 1 0 0 0 0 1v1c-5 4-18 3-19-5a48 48 0 0 1 20-16v-1a34 34 0 0 0-22 14 1 1 0 0 1-1 0c-8-4-2-16 6-18zM14 28a1 1 0 0 1 1-1v-1c-3-2-5-4-5-6a1 1 0 0 1 1-1h2a10 10 0 0 0-4-7 1 1 0 0 1 0-1c2-1 7-2 11-1 0 0 1-1-1-2a1 1 0 0 1 1 0c1-1 4-1 8 1V8a1 1 0 0 1 1-1c2 0 5 0 7 3 0 0 1 1 1-1a1 1 0 0 1 1 0c7 2 13 14 5 18a34 34 0 0 0-23-14v1a48 48 0 0 1 21 16c-2 8-14 9-19 5v-1a1 1 0 0 0 0-1c-5-1-7-3-8-5z"/><path fill="#cd2355" d="M81 50c3 6 1 8-4 5a35 35 0 0 1-10-8c-4-5-2-7 4-6a16 16 0 0 1 10 9zm-22-6c7 6-1 10-9 10-9 0-17-4-10-10a16 16 0 0 1 19 0zm-41 6a16 16 0 0 1 10-9c6-1 8 1 5 6a35 35 0 0 1-11 8c-5 3-6 1-4-5zM8 81a16 16 0 0 1 1-14c2-4 5-4 6 0a23 23 0 0 1-1 15c-2 4-5 3-6-1zm18 28a16 16 0 0 1-11-14c1-22 33 18 11 14zm1-28c-5-3-7-11-3-17 3-7 11-9 16-6 6 3 7 11 4 17-4 7-11 9-17 6zm32 37a16 16 0 0 1-19 0c-5-4 1-8 10-8s14 4 9 8z"/><ellipse cx="49.6" cy="93.3" fill="#cd2355" rx="12.7" ry="10.9"/><path fill="#cd2355" d="M56 75c-4-6-3-14 3-17 5-3 13-1 16 6 4 6 3 14-3 17-5 3-13 1-16-6zm17 34c-22 4 11-36 12-14a16 16 0 0 1-12 14Zm19-28c-2 4-4 5-6 1a23 23 0 0 1-2-15c1-4 4-4 6 0a16 16 0 0 1 2 14z"/></svg>
