<svg xmlns="http://www.w3.org/2000/svg" width="65" height="37"><g fill="none" fill-rule="evenodd"><path fill="#000" d="m4.611 36.774 17.234-9.318-15.163-1.981z"/><path fill="#000" d="M0 0v30.792h27.942L38.866 0z"/><path fill="#010202" d="M38.215 0 27.817 30.792H65L64.869 0z"/><path fill="#FEFEFE" d="M14.223 11.68h-1.556v2.838h1.386c.94 0 2.12-.24 2.12-1.48 0-1.136-1.078-1.359-1.95-1.359zm2.069 9.808-2.616-4.836h-.99v4.836H9.811V9.304h4.617c2.324 0 4.632.895 4.632 3.683 0 1.634-.957 2.804-2.513 3.287l3.164 5.214h-3.42zm20.133 0 .069-8.621h-.051l-3.146 8.62h-2.052l-3.06-8.62h-.051l.069 8.62h-2.754V9.306h4.155l2.753 7.812h.068l2.633-7.812h4.222v12.183zm14.61-9.808h-1.283v2.873h1.232c1.094 0 2.103-.327 2.103-1.48 0-1.17-1.009-1.394-2.052-1.394m.17 5.214h-1.453v4.595h-2.923V9.304h4.445c2.65 0 4.735.964 4.735 3.752 0 2.822-2.273 3.837-4.803 3.837"/></g></svg>