<svg xmlns="http://www.w3.org/2000/svg" class="logo__img navbar__logo" data-name="Ravelin logo" width="42.166" height="42.166"><g fill="#2a4afc"><path d="M28.769 16.849l-7.69-5.506-7.689 5.506 2.949 8.947h9.477zm-10.846 6.748l-1.954-5.916 5.11-3.648 5.11 3.66-1.949 5.906z"/><path d="M35.954 17.572l2.9-4-4.711-1.544V1.4L23.992 4.64 21.077.65 18.154 4.66 8.01 1.38v10.64l-4.7 1.538 2.911 4.035L0 26.186l10.077 3.323v4.969l4.738-1.534 6.276 8.57 6.25-8.583 4.742 1.547v-5.01l10.083-3.28zm-4.754 5.88l.483-1.5.89.29 2.033-2.8 4.034 5.59-6.56 2.136v-3.431zM17 32.225l3.3-1.062v-.933h1.565v.933l3.288 1.063-4.068 5.573zm1.1-4.177v1.529l-5.846 1.9v-6.15l1.455-.472-1.836-5.65-1.452.473-3.589-4.97 5.823-1.913.9 1.237 4.8-3.487-.9-1.238 3.622-4.945 3.615 4.944-.9 1.243 4.812 3.487.9-1.243 5.822 1.907-3.591 4.965-1.455-.472-1.84 5.659 1.455.472v6.136l-5.849-1.892v-1.516zm13.851-16.74l-3.283-1.063-.543.744-1.27-.923.551-.758-2.048-2.8 6.593-2.116zm-17.189-2l.4.559.15.2-1.271.924-.551-.758-3.3 1.076V4.387l6.6 2.132zm-3.804 14.144l-.881.282v3.47l-6.551-2.152L7.57 19.46l2.019 2.792.891-.29z"/></g></svg>