<svg width="228" height="228" viewBox="0 0 228 228" fill="none" xmlns="http://www.w3.org/2000/svg">
<g clip-path="url(#clip0_1218_17)">
<path fill-rule="evenodd" clip-rule="evenodd" d="M57 147.207V171L-0.0518799 113.948L11.9031 102.084L57 147.207ZM80.7932 171H57L114.052 228.052L125.955 216.149L80.7932 171ZM216.11 125.89L228 114L114 0L102.11 11.8901L147.155 57H119.926L88.4822 25.5826L76.5792 37.4727L96.1583 57.0519H82.5307V145.521H171V131.907L190.579 151.486L202.469 139.583L171 108.048V80.8192L216.11 125.89ZM62.9515 51.0485L51.0614 62.9516L63.8203 75.7104L75.7104 63.8073L62.9515 51.0485ZM164.193 152.29L152.341 164.18L165.1 176.939L177.003 165.048L164.193 152.29ZM37.4208 76.5792L25.5307 88.4693L57 119.952V96.1454L37.4208 76.5792ZM131.842 171H108.048L139.531 202.469L151.421 190.579L131.842 171Z" fill="#FF6363"/>
</g>
<defs>
<clipPath id="clip0_1218_17">
<rect width="228" height="228" fill="white"/>
</clipPath>
</defs>
</svg>
