<svg xmlns="http://www.w3.org/2000/svg" width="39" height="39" fill="none"><path d="M22.085 5.815S14.722 1.938 5.07 5.517L7.557 8.2 5.17 9.493l3.085 3.579zM28.95 13.072v6.959s1.99-2.585 5.97-2.585v-1.79c-3.98 0-5.97-2.584-5.97-2.584z" fill="#f4db12"/><path d="M13.03 25.796s4.875 1.989 2.487 7.754c-.398.995 2.388 2.088 4.776.995.1-.1-1.194-.796-1.194-1.79 0-.596 1.194-4.87 1.194-4.87z" fill="#df282b"/><path d="M20.194 34.445s-3.98-1.889-1.293-7.058c2.587-4.871 4.08.994 4.08.994s-4.08 3.082-2.787 6.064z" fill="#d3d2d3"/><path d="M36.513 18.937a2.486 2.486 0 10-2.488-2.485 2.486 2.486 0 002.488 2.485z" fill="#c02123"/><path d="M27.259 5.12c-.597 0-1.194-.1-1.791-.1-10.448 0-17.91 4.175-17.91 11.929 0 7.754 7.462 11.93 17.91 11.93.597 0 1.194 0 1.79-.1z" fill="#df282b"/><path d="M7.557 16.949c0 7.754 7.463 11.93 17.811 11.93.597 0 1.194 0 1.791-.1v-11.73" fill="#c02123"/><path d="M18.01 23.013c3.297 0 5.97-2.67 5.97-5.965a5.967 5.967 0 00-5.97-5.964 5.967 5.967 0 00-5.97 5.964 5.967 5.967 0 005.97 5.965z" fill="#df282b"/><path d="M18.508 11.283c2.985 0 5.472 2.584 5.472 5.666 0 3.082-2.487 5.666-5.472 5.666-2.985 0-5.473-2.485-5.473-5.666 0-3.181 2.487-5.666 5.473-5.666zm0-1.989c-4.08 0-7.463 3.48-7.463 7.655 0 4.275 3.383 7.655 7.463 7.655s7.462-3.38 7.462-7.655c0-4.175-3.383-7.655-7.462-7.655z" fill="#f4db12"/><path d="M21.647 16.493l-2.49-.408.975-5.1-4.112 6.528 2.489.408-1.082 5.407z" fill="#fff"/><path d="M12.935 13.072s-6.467 1.093-9.651 4.473l3.184 1.094S2.189 19.732 0 22.019c0 0 7.463-3.38 13.93 0l-2.388-3.181.398-.796-.597-.994z" fill="#f4db12"/><path d="M27.259 28.779c1.094-.1 2.09-.2 3.084-.298V5.517a16.214 16.214 0 00-3.084-.298z" fill="#d3d2d3"/><path d="M38.9 15.756c-.298-.994-1.293-1.79-2.387-1.79a2.462 2.462 0 00-2.488 2.486c0 .298.1.596.199.895.497.397 1.194.695 1.89.695 1.294 0 2.389-.994 2.787-2.286z" fill="#df282b"/></svg>