<svg xmlns="http://www.w3.org/2000/svg" width="44.663" height="44.663"><path d="M39.32 39.192c0 1.476-.606 2.333-1.787 2.787-4.592 1.77-10.03 2.684-15.202 2.684-5.172 0-10.609-.913-15.202-2.684-1.18-.454-1.786-1.31-1.786-2.787V0H39.32v39.192" fill="#0059b3"/><path d="M14.455 23.883c-4.703-2.936-6.258-4.236-6.39-6.162-.021-.392.067-1.052.231-1.523l-.443-.295a3.9 3.9 0 00-.58 1.992c0 1.114.356 1.956.792 2.63.662 1.017 1.357 1.656 3.07 2.94 1.846 1.385 3.104 3.002 3.829 4.693h.262v-1.92c2.495 1.415 4.694 2.748 5.775 5.128h.262c-.424-2.467-1.818-4.368-6.808-7.483m13.806-6.421c-1.03.462-1.738 1.087-2.371 1.987l2.102-.11c.076-.934.198-1.554.27-1.877zm7.578 7.505a4.826 4.826 0 00.385-1.632l-3.073-.174a10.59 10.59 0 01-.611 2.221zm-3.325-7.624c.22.592.386 1.166.508 1.718l1.807-.1a5.814 5.814 0 00-2.315-1.618zm-.82 1.792a10.56 10.56 0 00-.871-2.16 6.815 6.815 0 00-.375-.01c-.207 0-.416.027-.618.05-.3.745-.542 1.5-.74 2.264zm1.507.968c.096.77.106 1.492.057 2.159l2.956-.157a5.704 5.704 0 00-.553-1.89zm-1.005 2.214a13.225 13.225 0 00-.275-2.274l-2.984-.135c-.206.908-.34 1.795-.404 2.603zm.459-6.385l.35-.49-.542-.723.09-.16 1.524.822-.332 1.007c.244.117.47.267.773.467l.983-1.618-2.548-1.332h-5.632l-4.57 2.75c.858.596 1.648 1.24 2.21 1.89 1.224-1.782 3.376-2.92 5.507-2.92.696 0 1.508.075 2.187.307zm-11.27-.16l2.524-1.512a3.818 3.818 0 00-1.693-.412c-.87-.013-2.337.387-3.048.495.318.218 1.445.938 2.218 1.429zm.518-5.697c-.895-.196-1.395-.086-1.91.405.253.12.568.186.917.161.503-.035.816-.337.993-.566zm14.22 21.294h-.319c0-1.755-1.609-2.233-3.295-2.233h-5.268c.17.865.25 1.878.117 2.834h-.262c-.488-3.944-2.717-5.899-5.833-7.99v1.795h-.262c-.828-1.852-2.65-3.591-4.372-4.824l-1.403-1.001v1.936h-.262c-.73-1.92-2.057-3.354-3.949-5.06-2.042-1.838-2.867-2.939-3.344-4.205-.29-.766-.372-1.385-.383-2.227-.018-1.505.743-2.865 1.69-3.374v.73c-.47.623-.713 1.41-.714 2.212-.002.738.174 1.56.543 2.261 1.15 2.19 5.024 4.878 7.485 6.528 7.652 5.131 9.179 6.027 10.45 8.75.14.304.282.713.4 1.185 1.105-.17 5.115-.78 5.854-.898a8.29 8.29 0 01.59-.069c.69-.437 1.23-.993 1.704-1.687l-2.933-.228c-.15.337-.3.62-.433.846h-.239c.08-.298.15-.591.21-.881l-.75-.055v-.16l.813-.1c.154-.83.228-1.615.244-2.349l-3.694-.208c-.02.378-.024.735-.011 1.066h-.237a14.87 14.87 0 01-.188-1.092l-.81-.046v-.247l.77-.042a16.837 16.837 0 01-.075-2.673l-2.16-.1c.102.19.207.384.282.592.466 1.304.355 2.832.2 3.534h-.26c-.039-.814-.312-1.81-.571-2.418-.598-1.408-1.939-2.652-4.185-4.096v1.8h-.262c-.748-2.365-2.608-3.68-5.374-5.1-2.281-1.172-2.99-2.583-2.862-4.768l.77.457c.198 2.043 1.768 3.222 3.411 3.21.967-.007 1.873-.136 2.75-.311 1.264-.256 2.433-.474 3.41-.127v-1.207h-.767c-.274.237-.83.513-1.65.525-.9.017-2.604-.502-2.604-2.405 0-1.654 1.4-1.917 2.54-1.917.608 0 1.622-.023 1.965-.043.255-.014.446-.053.57-.176.129-.127.168-.258.198-.426.036-.206.036-.416.036-.77V4.91h-5.28V7l-1.997-.76v-.5h.956v-.83h-3.56V3.174h-1.217c-.65 0-1.397.454-1.449 1.336-.05.845.33 1.556 1.2 1.556h.156v1.012h-.157c-1.524 0-2.673-1.145-2.673-2.665 0-1.583 1.35-2.789 2.98-2.789h2.575v1.737h10.013v2.565c0 .433-.023 1.013-.065 1.38-.03.267-.125.748-.63 1.134-.305.233-.765.326-1.513.33a31.86 31.86 0 01-1.805-.064c-1.14-.071-1.464.368-1.51.777-.01.086-.009.17 0 .251.534-.414 1.29-.706 2.15-.436 1.51.475 1.941.518 2.728-.1l.08.176c-.085.132-.237.32-.457.487h.73v3.954l2.272-1.361h6.377l3.14 1.64c.39.206.545.455.606.82.05.305-.028.692-.179.94-.093.154-.826 1.355-1.213 1.996a6.864 6.864 0 011.815 4.642c0 1.656-.612 3.793-2.602 5.381a3.499 3.499 0 011.875 1.391l-.618 2.105" fill="#ffdf01"/><path d="M22.53 39.85h-1.206v-3.454h1.151c1.582 0 2.19.471 2.19 1.658 0 1.283-.793 1.797-2.135 1.797zm-.096-6.856c.957 0 1.606.207 1.606 1.23 0 1.088-.87 1.389-1.862 1.389h-.854v-2.62h1.11zm1.925 2.914c.856-.14 1.676-.806 1.676-1.814 0-.908-.386-1.907-3.061-1.907h-4.513v.073c.137.042.352.153.493.293.307.3.408.747.423 1.34v6.757h3.74c2.057 0 3.546-.784 3.546-2.582 0-1.462-1.137-2.084-2.304-2.16m-12.703-2.914h1.317c1.096 0 1.668.32 1.668 1.486 0 1.039-.749 1.654-1.949 1.654h-1.036zm3.474 7.656h2.437l-3.113-3.98c1.248-.333 2.183-1.016 2.183-2.256 0-1.457-.872-2.227-3.15-2.227h-4.71v.073c.174.062.368.174.495.299.33.325.427.821.427 1.492v6.6h1.956v-3.752h.713l2.761 3.751m19.439-7.303c.523.297.682.684.685.688.025.028.082.019.082.019l.425-1.448s-.764-.548-2.582-.548c-2.751 0-4.811 1.386-4.811 4.418 0 3.418 2.454 4.305 4.617 4.305 2.012 0 2.802-.64 2.802-.64v-.993s-.71.664-2.235.664c-1.26 0-3.106-.574-3.146-3.384-.037-2.593 1.094-3.44 2.61-3.44.844 0 1.266.198 1.553.359" fill="#fff"/></svg>