<svg xmlns="http://www.w3.org/2000/svg" version="1.1" id="Layer_1" x="0" y="0" xml:space="preserve" width="164.465" height="164.465"><style type="text/css" id="style5102">.st1{fill:#fff}</style><g id="g43" transform="translate(8.082 50.182)"><path id="rect5153" fill="#2859a6" fill-opacity="1" fill-rule="evenodd" stroke-width="1.044" d="M-8.082-11.986h164.465v88.072H-8.082z"/><g id="g5783"><g id="g5112"><path id="polygon5104" fill="#9ab1dc" d="M148.3 33.6v-6.9L74.1 6.9 0 26.7v6.9l74.1-19.9z"/><g id="g5110"><path class="st1" id="polygon5106" d="M148.3 26.7v-6.8L74.1 0 0 19.9v6.8L74.1 6.9z"/><path class="st1" id="polygon5108" d="M141.2 2.7v11.7l-14-3.7v-8z"/></g></g><g id="g5204" transform="translate(.25)"><path class="st1" d="M19 46.4l.4-.1c3-.5 5-2.9 5-6.2 0-4.3-3.1-6.7-8.1-6.7H7.9v22.2h5.4v-8.7c0-.2.2-.3.4 0l5.7 8.7h6.9zm-4.3-2.8h-1.4v-6.1h1.4c1.9 0 4.2.3 4.2 3s-2.3 3.1-4.2 3.1z" id="path5122"/><path class="st1" d="M38.6 50.9c-3.9 0-6.7-2.6-6.7-6.4 0-3.8 2.8-6.5 6.6-6.5 1.8 0 4 .6 5.4 1.7h.1v-5.9c-1.9-.7-3.9-1.1-5.7-1.1-7.1 0-12.2 5.3-12.2 11.7 0 7 5.2 11.7 12.4 11.7 1.8 0 3.5-.4 5.5-1V49h-.1c-1.4 1.3-3.6 1.9-5.3 1.9z" id="path5124"/><g id="g5140"><path class="st1" id="polygon5126" d="M130.8 48.3l-4.2-9.2h-5.2l7 14.4-4.4 10.6h4.9l11-25H135z"/><path class="st1" d="M83.9 39.1v16.5h-4.8V39.1zm-4.8-5.7v3.2h4.8v-3.2z" id="path5128"/><path class="st1" id="rect5130" d="M88 33.4h4.8v22.2H88z"/><path class="st1" id="rect5132" d="M96.6 33.4h4.8v22.2h-4.8z"/><g id="g5136"><path class="st1" d="M121.7 47.4c0-5.4-3.3-8.8-8.5-8.8-5.1 0-8.7 3.5-8.7 8.8 0 5.3 3.8 8.8 9.2 8.8 2.1 0 4.6-.4 7-1.5v-4.1h-.1c-1.7 1.1-3.7 1.9-6.6 1.9-3.4 0-4.6-2.4-4.8-4h12.4zm-12.2-2.3c.1-1.2 1.3-3.2 3.7-3.2 2.5 0 3.6 1.9 3.7 3.2z" id="path5134"/></g><path class="st1" d="M72.2 33.4c-.1.3-3.6 14.7-3.6 14.7h-.2s-4-14.4-4.1-14.7h-4L56 48.1h-.2l-3.3-14.7H47l5.9 22.2h5.2l4.1-13.7h.2L66 55.6h5.2l6.3-22.2h-5.3z" id="path5138"/></g></g></g></g></svg>