<svg xmlns="http://www.w3.org/2000/svg" width="316.967" height="316.967" viewBox="0 0 83.864 83.864"><path d="M37.753 40.416a2.011 2.011 0 00-.273 3.932s4.899 1.621 13.238 2.298c6.697.542 14.29-.468 14.29-.468a2.011 2.011 0 10-.506-3.971s-7.428.918-13.472.428c-7.96-.645-12.304-2.102-12.304-2.102a2.011 2.011 0 00-.973-.117zm0-9.968a2.011 2.011 0 00-.273 3.933s4.899 1.62 13.238 2.297c6.697.543 14.29-.467 14.29-.467a2.011 2.011 0 10-.506-3.972s-7.428.919-13.472.429c-7.96-.646-12.304-2.103-12.304-2.103a2.011 2.011 0 00-.973-.117zm0-9.967a2.011 2.011 0 00-.273 3.932s4.899 1.621 13.238 2.297c6.697.543 14.29-.467 14.29-.467a2.011 2.011 0 10-.506-3.971s-7.428.918-13.472.428c-7.96-.645-12.304-2.103-12.304-2.103a2.011 2.011 0 00-.973-.116zm0-9.968a2.011 2.011 0 00-.273 3.932s4.899 1.622 13.238 2.298c6.697.543 14.29-.468 14.29-.468a2.011 2.011 0 10-.506-3.971s-7.428.918-13.472.428c-7.96-.645-12.304-2.102-12.304-2.102a2.011 2.011 0 00-.973-.117zM23.788 0C13.313.07 9.411 3.296 9.411 3.296v78.226s3.81-3.291 16.08-2.789 14.799 4.804 29.877 5.107 18.868-2.318 18.868-2.318l.218-79.747s-6.786 1.92-19.991 2.028S38.083.444 25.96.037a54.088 54.088 0 00-2.173-.036zm8.764 5.106s6.348 2.098 18.072 2.68c9.909.492 19.846-.978 19.846-.978v70.874s-5.03 2.636-17.6 1.738c-9.743-.695-20.463-4.382-20.463-4.382zm-6.12 1.847a2.028 2.028 0 010 4.056s-3.283.017-5.288.218c-3.365.336-5.65 1.557-5.65 1.557A2.025 2.025 0 1113.613 9.2s2.98-1.577 7.134-1.992c2.4-.24 5.686-.254 5.686-.254zm-1.956 9.996a35.86 35.86 0 011.956 0 2.025 2.025 0 010 4.02s-3.283.016-5.288.217c-3.365.336-5.65 1.557-5.65 1.557a2.025 2.025 0 01-1.882-3.585s2.98-1.577 7.134-1.992c1.2-.12 2.61-.189 3.73-.217zm1.956 9.959a2.028 2.028 0 010 4.056s-3.283-.02-5.288.181c-3.365.337-5.65 1.557-5.65 1.557a2.025 2.025 0 01-1.882-3.585s2.98-1.576 7.134-1.992c2.4-.24 5.686-.217 5.686-.217z" fill="#32322a"/></svg>