<svg xmlns="http://www.w3.org/2000/svg" width="547.981" height="547.981"><g clip-path="url(#a)" transform="matrix(6.0741 0 0 -6.0741 -258.27 513.044)"><path d="M107.862 46.198h-2.56l-4.254-11.228-4.255 11.228h-2.56l4.637-12.234a2.368 2.368 0 0 1 4.455.262zm24.874-11.125h-4.83a4.282 4.282 0 1 0 .001 8.566h4.827v2.56h-4.828a6.843 6.843 0 0 1 .001-13.685h4.829zM113.56 46.198a6.155 6.155 0 0 1-6.155-6.15v-7.534h2.56v7.566a3.603 3.603 0 0 0 3.602 3.603 3.578 3.578 0 0 0 3.588-3.589l.001-.046v-7.534h2.558v7.534a6.154 6.154 0 0 1-6.154 6.15" fill="#94a1b5"/><path d="M48.886 38.161h-3.807v5.501h3.807c1.508-.001 2.749-1.211 2.749-2.719 0-1.508-1.241-2.781-2.75-2.782m5.309 2.75c0 2.92-2.388 5.308-5.308 5.309H42.52V32.536h2.559v3.066h3.128l2.433-3.066 3.307-.001-2.818 3.569c1.806.849 3.065 2.688 3.065 4.807m40.529-5.816h-3.07c-2.365.005-4.282 1.876-4.282 4.243v.04h-.001v6.842h-2.56v-6.854h.002a6.842 6.842 0 0 1 6.842-6.83h3.069c.003-.003 0 2.559 0 2.559M73.71 37.692v2.41a3.603 3.603 0 0 0 3.603 3.603 3.578 3.578 0 0 0 3.588-3.588v-2.425zm3.596 8.528a6.155 6.155 0 0 1-6.155-6.15v-7.535h2.56v2.598h7.19v-2.597h2.56v7.534a6.155 6.155 0 0 1-6.155 6.15m-14.535-2.13a4.668 4.668 0 0 0 3.506-1.58l-8.183-2.758a4.69 4.69 0 0 0 4.677 4.338m7.03-3.132a7.218 7.218 0 0 1-14.257-1.602 7.218 7.218 0 0 1 14.166-1.958h-2.7a4.689 4.689 0 0 0-8.381-.203L69.8 40.958z" fill="#288cf4"/></g></svg>