<svg xmlns="http://www.w3.org/2000/svg" viewBox="0 0 64 64"><path fill="#e4002b" d="M0 31.83A32.03 32.03 0 0 0 31.83 64c17.65.14 32.1-14.18 32.17-31.83S49.82.14 32.17 0h-.21A32.08 32.08 0 0 0 0 31.83"/><path fill="#fff" d="M51.54 28.63 34.45 11.54c-.63-.69-1.53-1.04-2.43-1.04s-1.81.35-2.43 1.04l-17.1 17.09c-.97.97-1.32 2.43-.76 3.75s1.81 2.15 3.2 2.15h2.43v12.92a3.48 3.48 0 0 0 3.47 3.47h22.38a3.48 3.48 0 0 0 3.47-3.47V34.53h2.43c1.39 0 2.64-.83 3.2-2.15a3.59 3.59 0 0 0-.76-3.75Zm-8.2 4.31v14.52c0 .07-.07.21-.21.21H20.82c-.07 0-.21-.07-.21-.21V32.94c0-.9-.69-1.6-1.6-1.6h-4.1c-.07 0-.14-.07-.14-.14s0-.14.07-.21l17.11-17.16c.07 0 .07-.07.14-.07s.07 0 .14.07l17.09 17.16c.07.07.07.14.07.21s-.07.14-.14.14h-4.1c-1.04-.07-1.81.69-1.81 1.6"/></svg>