<svg xmlns="http://www.w3.org/2000/svg" width="101.234" height="101.234"><g fill-rule="evenodd"><path d="M100.703 67.753l.26 2.077-27.488 8.05.782 1.17c1.042 1.298 2.866 2.985 5.471 3.375 1.303.13 2.736 0 4.3-.39 2.605-.779 4.429-2.077 5.471-3.895.261-.519.521-1.168.652-1.818l11.073-3.246c.261 8.7-4.69 16.101-12.767 19.087l-.651.26-.261.13c-3.127.908-6.123 1.168-9.119.65-6.644-1.17-12.116-5.454-15.112-12.076v11.296H50.938V70.61c0-6.492-1.824-9.088-6.254-9.088-4.429 0-6.774 2.856-6.774 8.57v22.461H25.534V70.09c0-5.713-2.084-8.569-6.253-8.569-4.56 0-6.905 2.986-6.905 8.57v22.461H0V51.393h11.595v4.415c2.605-3.896 6.253-5.713 11.463-5.713 5.472 0 9.38 2.337 11.986 7.271 3.127-4.804 7.556-7.27 13.158-7.27 4.299 0 7.816 1.427 10.683 4.024 2.214 2.077 3.387 4.025 4.038 7.271 2.215-4.934 6.514-8.57 12.376-10.258 5.342-1.558 10.552-1.038 14.982 1.558 5.081 2.987 8.859 8.44 10.422 15.062zm-13.418-4.025c-1.434-1.558-3.388-2.727-5.342-3.116-1.302-.13-2.475-.13-3.648.26-3.257 1.038-5.862 4.025-6.513 7.401z" fill="#eb2027"/><path d="M77.253 46.2h4.56V7.767h-4.56zm-7.816 0h4.56V22.18h-4.56v3.115c-2.085-2.337-4.951-3.765-7.947-3.765-7.686 0-11.595 6.362-11.595 12.724 0 6.103 4.039 12.595 11.595 12.595 3.257 0 5.993-1.169 8.077-3.636V46.2zm.26-12.205c0 4.284-2.345 8.7-7.686 8.7-4.951 0-7.556-4.416-7.556-8.7 0-4.025 2.736-8.31 7.426-8.31 4.559 0 7.816 3.375 7.816 8.31zM47.42 35.553v-.26c.26-4.025-1.042-7.79-3.387-10.257-2.084-2.208-4.82-3.376-8.077-3.376-8.077 0-11.725 6.492-11.725 12.984 0 7.141 4.95 12.335 11.855 12.335 4.82 0 8.859-2.338 11.204-6.752l.13-.26-3.777-2.207-.131.26c-1.824 3.246-4.038 4.804-7.035 4.804-4.3 0-7.426-3.117-7.556-7.4H47.42zm-4.69-3.895H29.05c.653-3.117 3.649-5.713 6.906-5.713 3.257 0 6.123 2.467 6.774 5.713zm-18.5-9.089V21.27c0-10.647-8.337-12.984-17.325-12.984H.13V46.33h5.21V35.683h1.565c.78 0 1.563 0 2.344-.13l6.514 10.776h5.863L14.59 34.904c5.602-1.558 9.64-4.934 9.64-12.335zm-5.21-.52v.13c0 7.791-5.732 8.57-12.115 8.57H5.34V13.22h1.564c6.383 0 12.115.78 12.115 8.57z"/></g></svg>