<svg xmlns="http://www.w3.org/2000/svg" width="24.146" height="24.146"><path d="M22.508 18.17c-.055.018-3.13 3.13-4.251 3.195-1.344-.105-1.47-3.333-3.225-5.576 2.556-.2 4.504-1.067 5.873-2.285 1.85-1.54 2.744-3.683 2.744-5.763C23.65 3.265 20.006 0 14.43 0h-.008C5.867 0 .742 3.88.532 5.287c-.169 1.145.29 1.995.796 2.562a4.03 4.03 0 001.287 1.13s.471-.695.75-.988c.933-.984 2.093-2.088 3.564-3.066.405-.246 3.226-1.9 6.311-2.409.599-.074 1.33-.136 2.093-.138 1.176.053 2.317.358 3.308 1.053.262.215 1.502 1.306 1.59 2.823l.001.011c.01.158.015.315.015.47 0 1.718-.52 3.41-1.476 4.823a8.14 8.14 0 01-4.778 3.196c-.194-.13-.426-.29-.66-.39.106-.31.213-.619.322-.925l.93-2.524c.563-1.49 1.124-2.946 1.622-4.4.188-.54.37-1.078.54-1.617.276-.885-.612-1.084-1.297-1.138a3.061 3.061 0 00-.327-.005c-.789.022-1.747.294-1.747.294-1.35 3.838-2.72 7-3.635 9.878-.755.198-1.113.628-1.113 1.058 0 .15.041.301.127.439.065.16.186.307.37.427-.604 2.136-1.835 6.186-1.835 6.97 0 .894.835 1.325 1.59 1.325.325 0 1.14-.068 1.14-.068l.018-.055.02-.002s1.554-4.625 2.41-7.151c1.282 3.015 1.535 5.654 3.239 6.49.389.21.853.325 1.425.325 2.217 0 5.258-2.894 5.565-3.815.306-.92.015-1.766-.19-1.7z" fill="#2281c2" fill-rule="evenodd"/></svg>