<svg xmlns="http://www.w3.org/2000/svg" width="192" height="192"><defs><clipPath clipPathUnits="userSpaceOnUse" id="a"><path d="M0 162h162V0H0z"/></clipPath></defs><g clip-path="url(#a)" transform="matrix(1.33333 0 0 -1.33333 -12 204)"><path d="M80.564 126.756h.508-.509" fill="#fff"/><path d="M81 153c-39.765 0-72-32.236-72-72C9 41.235 41.235 9 81 9s72 32.235 72 72c0 39.764-32.235 72-72 72" fill="#723080"/><path d="M80.564 126.756h.508-.509M91.235 75.537c10.393 2.63 20.666 11.332 20.666 25.524 0 17.39-11.929 25.688-30.81 25.695h-.02c-16.664-.006-26.293-7.87-28.543-21.5h-8.267l16.523-14.048 17.463 14.048h-9.382s.075 9.76 12.426 9.76c10.54 0 14.141-7.681 14.141-14.072 0-9.311-4.923-16.362-16.72-16.362H52.505l-.01-45.306h16.53v34.099h.052c3.638 0 7.173-1.35 13.275-10.384L97.07 39.276h18.394l-15.185 24.319c-3.994 6.214-6.97 10.314-9.043 11.942" fill="#fff"/></g></svg>