<svg xmlns="http://www.w3.org/2000/svg" version="1.1" id="Layer_1" x="0" y="0" xml:space="preserve" width="94.2" height="94.2"><style type="text/css" id="style40249"/><path d="M35.9 65.571c.7 6.6-3.7 11.3-9.1 11.9-2.8.3-5.4-.6-7.6-2.4-2.2-1.8-3.3-4.2-3.6-7.1-1.6.2-3.2.3-4.7.5-1.4.2-2.8.3-4.2.5-1 .2-1.3-.2-1.5-1.1-1.2-5-2.5-9.9-3.6-15-1-4.8-1.6-9.6-1.6-14.4 0-1.8.3-3.7.7-5.5.5-2.7 2.2-4.7 4.6-6 3.4-1.9 7-3.2 10.7-4.1 5.6-1.4 11.3-2.7 17-3.6 5.3-.9 10.7-1.4 16.1-1.9 5.2-.4 10.4-.7 15.6-.7 5.6 0 11.1.4 16.7.7 2 .1 3.6 1.3 5 2.8 2.7 2.9 4.2 6.4 5.4 10.2 1.9 6 2.7 12.3 2.3 18.6-.2 3.3-.7 6.6-2.1 9.7-.2.5-.5.7-1.1.8l-8.4.9c-.4.1-.9.1-1.4.2.933 4.286.706 6.296-1.7 9.9-1.7 2.2-4 3.4-6.7 3.7-5.8.7-11.9-3.8-11.4-11.5-8.5 1-16.9 2-25.4 2.9z" id="path40253" fill="#fff" fill-opacity="1"/><path d="M2.421 39.371c-.064 3.32.48 6.6 1.08 9.9 1 5.4 2.4 10.6 3.6 16 .2 1.1.7 1.1 1.6 1 1.9-.3 3.9-.5 5.8-.7.8-.1 1.2-.3 1.3-1.1.9-3.9 4.7-7.2 8.6-7.5 4.7-.4 8.1 1.6 10.4 5.6.3.5.5.7 1.1.6 2-.2 4-.4 6-.7 3.1-.4 6.1-.7 9.2-1.1 3.3-.4 6.6-.8 10-1.1.6-.1.8-.3 1.1-.8 3.3-6.9 12.4-7.9 17.2-1.9.4.5.7.6 1.3.6 2.9-.3 5.7-.7 8.6-1 .6-.1 1-.3 1.1-.9.5-2.5 1.2-4.9 1.3-7.5.4-6.4-.5-12.6-2.5-18.6-1-2.9-2.2-5.6-4.3-7.9-1.1-1.2-2.3-2.2-3.9-2.4-4.1-.3-8.2-.7-12.3-.7-6.4 0-12.8.3-19.1.7-5 .3-10 .9-14.9 1.6-6.9 1-13.8 2.4-20.4 4.5-2.9.9-5.9 2-8.5 3.7-1.2.8-2.1 1.7-2.4 3.1-.5 2.1-.937 4.377-.98 6.6z" id="path40863" fill="#c9323e" fill-opacity="1"/><path d="M78.1 48.171v-3.1c1.6.3 3.2.6 4.8.8.4.1.9 0 1.2-.2.4-.3 1-.8 1.1-1.2 0-.4-.5-1.1-1-1.2-1-.3-2.1-.4-3.1-.6-2.8-.6-3.8-4-1.9-6.1 1.1-1.3 2.5-1.8 4.2-1.8 1.2 0 2.4.2 3.6.4.2 0 .5.4.5.6.1.9 0 1.7 0 2.6l-3.9-.6c-.4 0-.8 0-1.1.2-.4.2-.9.7-.8 1 0 .3.5.9.9 1 .8.3 1.7.3 2.6.5 1.7.3 2.9 1.1 3.4 2.8.5 1.7-.3 3.6-1.7 4.7s-3.1 1.2-4.8 1c-1.4-.2-2.7-.6-4-.8z" id="path40263" fill="#fff" fill-opacity="1"/><path d="M72 48.771c-.1-.5-.1-.9-.1-1.4-.5.3-1 .5-1.4.7-1.2.6-2.5 1.1-3.9.8-1.9-.4-3.1-1.5-3.2-3.5-.1-3.2 0-6.4 0-9.7h3.5v7.5c0 1.9 1.1 2.8 3 2.4 1.6-.3 2.1-1 2.1-2.7v-7.2h3.5c0 .3.1.7.1 1v11c0 .8-.2 1.1-1.1 1.1-.9-.1-1.7 0-2.5 0z" id="path40261" fill="#fff" fill-opacity="1"/><path d="M47.2 30.071c3.2 0 6.3-.3 9.4.1 3.7.5 4.1 4.6 2.9 6.8-.5.8-1.5 1.3-2.1 1.9.4.2.9.4 1.4.7 1.7 1.1 2.5 2.7 2 5-.4 2.1-1.7 3.7-3.8 4-3.2.4-6.5.3-9.7.4-.1-6.6-.1-12.8-.1-18.9z" id="path40255" fill="#fff" fill-opacity="1"/><path d="M43.9 48.671c-1.3-.1-2.8.7-3.5-1.2-.5.2-.8.4-1.2.6-3 1.6-6.2.6-7.5-2.5-1.1-2.5-1.1-5 .2-7.4 1.6-2.8 4.5-3.4 7.5-2.8.3.1.5.2 1 .3v-5.7h3.5z" id="path40257" fill="#fff" fill-opacity="1"/><path d="M29.6 42.771h-9.7c.1 1.7 1.3 3.1 3.1 3 1.6-.1 3.2-.4 4.9-.7v2.4c0 .2-.2.5-.3.6-2.9 1.4-8.3 1.6-10.6-2.3-1.4-2.5-1.2-6.2.5-8.4 1.8-2.3 4.8-3.2 7.7-2.3 2.2.7 3.4 2.4 4 4.6.2 1 .2 1.9.4 3.1z" id="path40259" fill="#fff" fill-opacity="1"/><path d="M6.3 35.571l3.6-.3c0 .4.1.7.1 1.2.5-.3.9-.4 1.2-.7 1.1-.7 2.2-.9 3.5-.7.3 0 .6.4.6.7.1 1.1 0 2.2 0 3.1-1.2-.1-2.4-.3-3.6-.1-1.5.2-1.9.8-1.9 2.3v7.6H6.7c-.2 0-.5-.6-.5-.8v-10.4c.1-.6.1-1.2.1-1.9z" id="path40265" fill="#fff" fill-opacity="1"/><path d="M33.5 67.471c0-4.1-2.7-7.6-7.1-7.9-4.2-.3-8 3-8.2 7.1-.2 4.4 3 8 7.3 8.3 4.2.3 8-3.2 8-7.5z" id="path40867" fill="#c9323e" fill-opacity="1"/><path d="M71.5 71.771c4.3 0 7.7-3.4 7.7-7.6 0-4.3-3.5-7.7-7.8-7.7s-7.6 3.4-7.6 7.7c0 4.2 3.4 7.6 7.7 7.6z" id="path40865" fill="#c9323e" fill-opacity="1"/><path d="M51.2 32.971v5.2h2.6c1.4 0 2.1-.9 2.2-2.2.1-1.7-.7-2.8-2-2.9-1-.2-1.8-.1-2.8-.1z" id="path40873" fill="#c9323e" fill-opacity="1"/><path d="M51.2 45.671c1.1 0 2.2.1 3.3 0 1.5-.2 2.2-1.1 2.2-2.7s-.7-2.8-2.1-3c-1.1-.1-2.3 0-3.4 0z" id="path40871" fill="#c9323e" fill-opacity="1"/><path d="M40.3 41.771v-2.3c0-.3-.1-.6-.2-.8-1.4-1.2-4.6-1.2-5.1 1.2-.2.9-.3 1.9-.2 2.9.2 2.6 2.4 3.8 4.7 2.6.6-.3.861-.565.844-1.329-.05-1.05-.044-1.57-.044-2.27z" id="path40877" fill="#c9323e" fill-opacity="1"/><path d="M25.9 40.971c.2-1.5-1.3-3.1-2.9-3.1-1.9-.1-3.2 1.1-3.2 3.1z" id="path40881" fill="#c9323e" fill-opacity="1"/></svg>