<svg xmlns="http://www.w3.org/2000/svg" viewBox="0 0 216 216"><defs><radialGradient id="a" cx="169.8" cy="92.2" r="51" fx="169.8" fy="92.2" gradientTransform="matrix(1 0 0 .87 0 11.6)" gradientUnits="userSpaceOnUse"><stop offset="0" stop-color="#feffff"/><stop offset=".4" stop-color="#feffff"/><stop offset=".5" stop-color="#f9fcfc"/><stop offset=".6" stop-color="#edf3f5"/><stop offset=".7" stop-color="#dee9ec"/><stop offset=".7" stop-color="#d8e4e8"/><stop offset=".8" stop-color="#ccd8df"/><stop offset=".8" stop-color="#c8d5dd"/><stop offset=".8" stop-color="#ccd6de"/><stop offset=".8" stop-color="#d8dbe2"/><stop offset=".9" stop-color="#ede3e9"/><stop offset=".9" stop-color="#ffebef"/></radialGradient><radialGradient id="c" cx="47.3" r="51" fx="47.3" href="#a"/><radialGradient id="d" cx="109.6" cy="85.6" r="153.8" fx="109.6" fy="85.6" gradientTransform="matrix(1 0 0 .7 0 25.6)" href="#a"/><radialGradient id="b" cx="-6" cy="64.7" r="12.8" fx="-6" fy="64.7" gradientTransform="matrix(1.07 0 0 1.55 81 27.3)" gradientUnits="userSpaceOnUse"><stop offset="0" stop-color="#f60"/><stop offset=".5" stop-color="#ff4500"/><stop offset=".7" stop-color="#fc4301"/><stop offset=".8" stop-color="#f43f07"/><stop offset=".9" stop-color="#e53812"/><stop offset="1" stop-color="#d4301f"/></radialGradient><radialGradient id="e" cx="-73.5" cy="64.7" r="12.8" fx="-73.5" fy="64.7" gradientTransform="matrix(-1.07 0 0 1.55 62.9 27.3)" href="#b"/><radialGradient id="f" cx="107.9" cy="167" r="45.3" fx="107.9" fy="167" gradientTransform="matrix(1 0 0 .66 0 57.4)" gradientUnits="userSpaceOnUse"><stop offset="0" stop-color="#172e35"/><stop offset=".3" stop-color="#0e1c21"/><stop offset=".7" stop-color="#030708"/><stop offset="1"/></radialGradient><radialGradient id="g" cx="147.9" cy="32.9" r="39.8" fx="147.9" fy="32.9" gradientTransform="matrix(1 0 0 .98 0 .5)" href="#a"/><radialGradient id="h" cx="131.3" cy="73.1" r="32.6" fx="131.3" fy="73.1" gradientUnits="userSpaceOnUse"><stop offset=".5" stop-color="#7a9299"/><stop offset=".7" stop-color="#172e35"/><stop offset=".8"/><stop offset=".8" stop-color="#172e35"/></radialGradient></defs><path fill="#ff4500" d="M108 0a108 108 0 0 0-76.4 184.4l-20.5 20.5C7 209 9.9 216 15.6 216H108a108 108 0 1 0 0-216"/><circle cx="169.2" cy="107" r="25.2" fill="url(#a)"/><circle cx="46.8" cy="107" r="25.2" fill="url(#c)"/><ellipse cx="108.1" cy="128.6" fill="url(#d)" rx="72" ry="54"/><path fill="url(#b)" d="M86.8 123.5c-.4 9-6.5 12.4-13.6 12.4s-12.4-5-12-14 6.5-15 13.5-15 12.5 7.5 12 16.6Z"/><path fill="url(#e)" d="M129.3 123.5c.5 9 6.5 12.4 13.6 12.4s12.5-5 12-14-6.4-15-13.5-15-12.5 7.5-12 16.6Z"/><ellipse cx="79.6" cy="116.4" fill="#FFC49C" rx="2.8" ry="3"/><ellipse cx="146.2" cy="116.4" fill="#FFC49C" rx="2.8" ry="3"/><path fill="url(#f)" d="M108 143c-8.7 0-17.1.3-24.9 1.1a2 2 0 0 0-1.6 2.8 28.8 28.8 0 0 0 53.1 0 2 2 0 0 0-1.6-2.8c-7.8-.8-16.2-1.2-25-1.2"/><circle cx="147.5" cy="49.4" r="17.9" fill="url(#g)"/><path fill="url(#h)" d="M107.8 77c-2.1 0-3.9-1-3.9-2.3 0-16 13-29 29-29a3.9 3.9 0 1 1 0 7.6 21.3 21.3 0 0 0-21.2 21.3c0 1.4-1.7 2.3-3.9 2.3Z"/><path fill="#842123" d="M62.8 122.7c.4-8.6 6.1-14.2 12.7-14.2 6.3 0 11.1 6.4 11.3 14.3.2-8.9-5.1-16-12-16s-13.2 6-13.6 15.2 5 13.9 12 13.9h.5c-6.4-.2-11.3-4.8-10.9-13.2m90.5 0c-.4-8.6-6-14.2-12.7-14.2-6.2 0-11 6.4-11.3 14.3-.1-8.9 5.2-16 12-16 7.2 0 13.2 6 13.6 15.2s-5 13.9-12 13.9h-.5c6.4-.2 11.3-4.8 10.9-13.2"/></svg>