<svg xmlns="http://www.w3.org/2000/svg" aria-hidden="true" class="rh-logo" viewBox="0 0 190.4 144"><g data-name="Hat icon"><path fill="#e00" d="M127 82.9c12.5 0 30.6-2.5 30.6-17.4a14 14 0 0 0-.3-3.4l-7.5-32.4c-1.7-7.1-3.2-10.3-15.7-16.6-9.7-5-30.8-13.2-37-13.2-6 0-7.6 7.6-14.5 7.6-6.7 0-11.7-5.6-18-5.6-6 0-9.9 4-12.9 12.5l-9.5 27.1a6.4 6.4 0 0 0-.2 2c0 9.2 36.3 39.4 85 39.4zm32.5-11.4a50 50 0 0 1 1.8 10.1c0 14-15.8 21.8-36.5 21.8-46.7 0-87.7-27.4-87.7-45.5a18.3 18.3 0 0 1 1.5-7.3C21.8 51.5 0 54.5 0 73.7 0 105.2 74.6 144 133.7 144c45.2 0 56.7-20.5 56.7-36.7 0-12.7-11-27.2-30.9-35.8z" data-name="Red hat"/><path d="M159.5 71.5a50 50 0 0 1 1.7 10.1c0 14-15.7 21.8-36.4 21.8-46.8 0-87.7-27.4-87.7-45.5a18.3 18.3 0 0 1 1.5-7.3l3.6-9a6.4 6.4 0 0 0-.2 1.9c0 9.2 36.3 39.4 85 39.4 12.5 0 30.6-2.5 30.6-17.4a14 14 0 0 0-.3-3.4z" class="rh-logo-band" data-name="Black band"/></g></svg>