<svg xmlns="http://www.w3.org/2000/svg" viewBox="0 0 100 100"><style>.st1{fill:#a32422}.st2{fill:#dc382c}.st3{fill:#fff}</style><path class="st1" d="M94.287 72.316c-5.1 2.7-31.7 13.6-37.4 16.6s-8.8 2.9-13.3.8-32.7-13.6-37.8-16.1c-2.6-1.2-3.9-2.2-3.9-3.2v-9.7s36.8-8 42.8-10.2 8-2.2 13.1-.4 35.3 7.3 40.3 9.2v9.6c0 1-1.2 2-3.8 3.4z"/><path class="st2" d="M94.287 62.616c-5.1 2.6-31.7 13.6-37.4 16.5s-8.8 2.9-13.3.8-32.7-13.6-37.8-16c-5.1-2.4-5.2-4.1-.2-6.1s33.2-13 39.1-15.1 8-2.2 13.1-.3 31.5 12.4 36.5 14.2 5.2 3.3 0 6z"/><path class="st1" d="M94.287 56.416c-5.1 2.7-31.7 13.6-37.4 16.6s-8.8 2.9-13.3.8-32.7-13.6-37.8-16c-2.6-1.2-3.9-2.3-3.9-3.2v-9.7s36.8-8 42.8-10.2 8-2.2 13.1-.4 35.3 7.3 40.3 9.1v9.6c0 1.1-1.2 2.1-3.8 3.4z"/><path class="st2" d="M94.287 46.716c-5.1 2.7-31.7 13.6-37.4 16.6s-8.8 2.9-13.3.8-32.7-13.6-37.8-16.1c-5.1-2.5-5.2-4.1-.2-6.1s33.2-13 39.1-15.1 8-2.2 13.1-.4 31.5 12.5 36.5 14.3 5.2 3.3 0 6z"/><path class="st1" d="M94.287 40.016c-5.1 2.7-31.7 13.6-37.4 16.6s-8.8 2.9-13.3.8-32.7-13.6-37.8-16.1c-2.6-1.2-3.9-2.2-3.9-3.2v-9.7s36.8-8 42.8-10.1 8-2.2 13.1-.4 35.3 7.3 40.3 9.2v9.6c0 .9-1.2 1.9-3.8 3.3z"/><path class="st2" d="M94.287 30.316c-5.1 2.6-31.7 13.6-37.4 16.5s-8.8 2.9-13.3.8-32.7-13.6-37.8-16c-5.1-2.4-5.2-4.1-.2-6.1s33.2-13 39.1-15.1c5.9-2.1 8-2.2 13.1-.3 5.1 1.9 31.5 12.4 36.5 14.2s5.2 3.3 0 6z"/><path class="st3" d="m51.487 16.416 6.4-2-1.8 4.1 6.5 2.4-8.3.9-1.9 4.5-3-5.1-9.6-.8 7.1-2.6-2.1-4zM36.387 36.216l22.2-3.4-6.7 9.9zM30.287 23.416c6.6 0 11.9 2.1 11.9 4.6s-5.3 4.6-11.9 4.6-11.9-2.1-11.9-4.6 5.4-4.6 11.9-4.6z"/><path transform="translate(1.887 2.916)" style="fill:#741113" d="m83.8 24.4-13.2 5.2V19.2z"/><path transform="translate(1.887 2.916)" style="fill:#ac2724" d="M69.1 30.2 56 25l14.6-5.8v10.4z"/></svg>