<svg xmlns="http://www.w3.org/2000/svg" viewBox="0 0 85.88 100" xml:space="preserve"><path fill="#FFF" d="M7.94 8h70v84h-70z"/><path fill="#4D5C6A" d="M14.62 8.3c-3.49.01-6.32 2.84-6.31 6.33V85.39a6.33 6.33 0 0 0 6.31 6.31h56.65c3.48-.01 6.3-2.83 6.3-6.31V14.65c0-3.48-2.82-6.3-6.3-6.31L14.62 8.3zM71.28 100H14.62C6.56 99.99.02 93.46 0 85.4V14.65C-.01 6.57 6.53.01 14.61 0h56.66c8.08.01 14.62 6.57 14.61 14.65v70.74c0 8.06-6.54 14.6-14.6 14.61"/><path fill="#6A98D0" d="M67.76 28.38c0-2.18-2.1-4-4.75-4.09H23.2c-2.79 0-5.06 1.84-5.06 4.11s2.27 4.11 5.06 4.11h39.82c2.64-.13 4.74-1.91 4.74-4.1"/><path fill="#45A77B" d="M67.76 71.15c0-2.18-2.1-4-4.75-4.09H23.2c-2.79 0-5.06 1.84-5.06 4.11s2.27 4.11 5.06 4.11h39.82c2.64-.14 4.74-1.92 4.74-4.1"/><path fill="#E82037" d="M67.76 50c0-2.18-2.1-4-4.75-4.09H23.2c-2.79 0-5.06 1.84-5.06 4.11s2.27 4.11 5.06 4.11h39.82c2.64-.14 4.74-1.92 4.74-4.1"/></svg>