<svg xmlns="http://www.w3.org/2000/svg" fill="none" viewBox="0 0 41.03 40"><path fill="#54df62" d="M30.78 2.12A20.51 20.51 0 0 0 25.5 0l-5.03 9.54L15.46.02a20.49 20.49 0 0 0-9.62 5.56l5.12 8.1-7.17-.27-2.7-.1a20.23 20.23 0 0 0-.05 13l2.67-.1 6.08-.23-3.26 5.17-1.44 2.28A20.2 20.2 0 0 0 16.34 40l1.26-2.4 2.87-5.46 2.89 5.49L24.61 40a20.68 20.68 0 0 0 11.3-6.5l-1.46-2.3-3.92-6.2 9.76.38c1-3.64 1-7.49-.05-11.12l-10.88.43 5.78-9.16a20.5 20.5 0 0 0-4.36-3.4z"/><path fill="#07192d" d="M32.88 32.93a17.96 17.96 0 0 1-7.26 4.17l-4.01-7.62-1.14-2.16-1.13 2.16-4 7.6c-2.73-.8-5.2-2.24-7.24-4.22l4.57-7.23 1.3-2.06-2.44.1-8.48.32a17.9 17.9 0 0 1 .03-8.36l15.08.59a8.16 8.16 0 0 1 6.58 3.8z"/></svg>