<svg xmlns="http://www.w3.org/2000/svg" viewBox="0 0 22.747 21.33"><path d="m22.748 7.088-5.332 3.24 3.172 2.16c.45.315.821.64 1.114.978s.439.732.439 1.181c0-.18-.034-.135-.102.135-.067.27-.123.473-.168.608a18.07 18.07 0 0 0-.102.54 2.12 2.12 0 0 0-.033.337c-.18.18-.495.27-.945.27-1.755 0-3.398-.675-4.928-2.025l-.135 1.553c0 .675.675 1.89 2.025 3.645v.675c-1.26.63-1.98.945-2.16.945-.765 0-1.597-.72-2.497-2.16v.067c-.36-.675-.754-1.383-1.182-2.126s-.843-1.406-1.248-1.991l-3.24 2.97c-1.17 1.035-2.16 1.553-2.97 1.553-.225 0-.518-.057-.878-.17a10.7 10.7 0 0 1-1.147-.438v-1.35c0-.045 1.485-1.53 4.455-4.455-.315-.36-.788-.72-1.418-1.08s-1.44-.585-2.43-.675c-.765-.135-1.406-.27-1.924-.405S.226 10.778 0 10.598c.405-1.575 1.35-2.565 2.835-2.97.27-.09.81-.147 1.62-.17.81-.022 1.89-.01 3.24.035a2.638 2.638 0 0 0-.202-.54c-.09-.135-.18-.293-.27-.473s-.203-.36-.338-.54-.258-.394-.37-.641-.282-.484-.507-.709C5.243 3.6 4.86 2.925 4.86 2.565c0-.585.315-1.159.945-1.721C6.435.28 7.02 0 7.56 0c.72 0 1.598 1.08 2.633 3.24l2.43 4.995 8.168-5.332c.315 0 .596.135.843.405.248.27.462.596.642.978s.303.81.37 1.283.102.911.102 1.316z" fill="#7cde08"/></svg>