<svg xmlns="http://www.w3.org/2000/svg" width="269.115" height="269.115" viewBox="0 0 71.203 71.203"><path d="M31.144 22.168c.938.06 1.797.403 2.348.954.734.734 1.1 1.468 1.1 2.57v33.4c0 1.1-.366 1.832-1.1 2.566-.918.917-2.02 1.1-3.305.917-1.284-.183-2.566-1.1-3.484-2.752v-35.05c1.101-1.468 2.383-2.386 3.484-2.57.321-.046.645-.056.957-.036zM18.26 0v49c0 1.468-.55 2.75-2.2 3.118-4.405.734-7.893 4.587-7.893 9.358 0 5.322 4.225 9.545 9.362 9.545 2.385 0 4.402-.92 6.054-2.205l.734-.734c.367-.367.734-.55 1.1-.55.551 0 .92.183 1.47.55 1.835 2.018 4.22 3.12 6.971 3.12h.37c2.018 0 3.668-.551 4.953-1.468 1.468-.918 2.385-2.016 2.935-3.301.55-1.285.918-3.305.918-6.057V24.774c0-2.936-.367-4.956-.918-6.24-.55-1.285-1.65-2.384-2.935-3.301-1.468-.918-3.12-1.47-5.323-1.47-2.936 0-5.319 1.102-7.154 3.488V0z" fill="#95c11f"/><path d="M17.528 56.523c2.753 0 4.77 2.2 4.77 4.953s-2.2 4.957-4.77 4.957c-2.57 0-4.774-2.204-4.774-4.957 0-2.753 2.205-4.953 4.774-4.953z" fill="#feeb17"/><path d="M63.036 13.58c-2.936 0-5.505 1.102-7.34 3.488v-2.936h-8.258v56.52h8.258v-46.06c1.284-1.47 2.386-2.387 3.67-2.57 1.468-.184 2.57.182 3.67 1.1z" fill="#95c11f"/></svg>