<svg xmlns="http://www.w3.org/2000/svg" viewBox="0 0 90 90"><defs><linearGradient id="a" x1="95.92%" x2="0%" y1="50.3%" y2="51.33%"><stop offset="0%" stop-color="#FFF" stop-opacity="0"/><stop offset="31.08%" stop-color="#FFF" stop-opacity=".88"/><stop offset="100%" stop-color="#FFF"/></linearGradient></defs><path fill="#2E6DE3" d="M33 0h57v57a33 33 0 01-33 33H0V33A33 33 0 0133 0z"/><path fill="url(#a)" d="M3.47 49.08L41.5 44.5 46 53H0c0-2 1.5-3.68 3.47-3.92z" transform="translate(17 16)"/><path fill="#FFF" d="M55.85 16A11.28 11.28 0 0167 29a15.32 15.32 0 01-7.7 11.07l10.05 18.78a4 4 0 01-.23 4.16L65 69 51.83 43.1a2 2 0 00-1.79-1.1h-4.03a2 2 0 00-1.97 1.65l-1.45 8.06A4 4 0 0138.65 55H33l7.19-37.38A2 2 0 0142.15 16h13.7zm0 8h-8.29l-1.8 10h6.09a7.33 7.33 0 007.28-6.72 3.28 3.28 0 00-3.1-3.27l-.18-.01z"/></svg>