<svg xmlns="http://www.w3.org/2000/svg" width="348.491" height="348.491"><path d="M174.748 348.491c-37.398-2.03-46.518-2.748-56.409-4.44-21.95-3.752-36.47-9.756-46.862-19.378-18.117-16.773-19.79-42.918-6.244-97.551 1.568-6.325 4.72-20.5 7.004-31.5s6.12-27.875 8.522-37.5c2.403-9.625 4.64-19.975 4.972-23 .332-3.025.837-7.413 1.122-9.75.612-5.024-.11-5.249-7.153-2.23-18.205 7.804-43.503 9.578-56.273 3.947-20.882-9.208-25.241-41.841-8.076-60.463 7.487-8.122 15.631-11.823 29.814-13.548 13.654-1.66 34.261 1.61 47.754 7.577 3.068 1.357 5.904 2.467 6.303 2.467.398 0 1.013-4.163 1.365-9.25 1.263-18.242 5.99-29.004 18.216-41.463C128.006 3.03 133.193.176 141.097.144 151.634.1 157.179 5.43 155.845 14.322c-.4 2.664-3.14 8.784-6.88 15.364-6.105 10.74-6.223 11.088-6.541 19.436-.201 5.28.177 9.96 1 12.354l1.324 3.855 16.5.281c16.43.28 23.335 1.389 41.79 6.708 4.183 1.206 4.348 1.163 6.7-1.731 3.951-4.86 8.524-14.979 9.644-21.339.874-4.96.7-7.772-1.043-16.882-1.15-6.012-2.091-12.921-2.091-15.354 0-5.93 2.805-10.967 7.38-13.249 3.23-1.612 4.338-1.702 8.42-.69 24.724 6.137 35.541 24.248 29.33 49.106-1.16 4.643-3.954 12.189-6.208 16.77-2.253 4.58-3.84 8.586-3.526 8.9.314.314 3.841-.383 7.838-1.55 20.799-6.073 46.89-5.554 62.134 1.236 13.925 6.204 22.132 17.722 22.132 31.064 0 6-.45 7.82-3.099 12.52-3.991 7.085-10.95 12.425-19.901 15.273-5.656 1.8-9.304 2.223-19 2.202-13.373-.028-21.188-1.663-30.728-6.43-3.634-1.817-5.994-2.495-6.399-1.84-1.394 2.257 1.925 51.605 6.745 100.296 4.523 45.69 3.687 58.203-5.078 76-10.655 21.633-30.753 35.473-58.04 39.97-9.434 1.554-24.314 2.398-33.5 1.899z" fill="#2a2a30"/><path d="M209.248 338.663c29.58-4.503 49.145-19.728 56.665-44.094 2.673-8.662 2.313-31.554-.99-62.947-3.772-35.856-5.53-58.581-6.696-86.5-.562-13.475-1.29-25.737-1.617-27.249-.377-1.744.008-3.668 1.057-5.268 1.526-2.33 1.527-2.567.015-3.147-1.856-.712-3.396 1.17-3.419 4.182-.024 3.164-4.547 9.032-8.355 10.839-6.703 3.18-17.596 1.28-28.16-4.91l-4.597-2.694-3.598 4.203c-13.306 15.545-36.378 14.95-38.929-1.005-.351-2.197-.976-4.204-1.388-4.459-.412-.255-2.49.941-4.619 2.658-7.197 5.805-13.99 8.316-22.55 8.334-7.104.014-7.908-.2-10.678-2.852-1.648-1.577-3.533-4.164-4.19-5.75-.656-1.585-1.543-2.882-1.97-2.882-.428 0-3.344 1.35-6.481 3-7.118 3.744-16.412 4.197-20.5 1-1.375-1.076-2.998-1.966-3.606-1.978-.667-.014-1.38 3.256-1.793 8.228-.378 4.537-3.107 18.375-6.064 30.75-2.958 12.375-6.127 26.325-7.041 31-.915 4.675-4.284 19.75-7.488 33.5-7.974 34.233-9.346 42.686-9.412 58-.084 19.516 3.259 28.59 14.232 38.632 10.798 9.882 28.168 16.127 53.716 19.314 26.848 3.35 63.746 4.335 78.456 2.095z" fill="#fff"/><path d="M182.814 293.779c-2.275-2.275-2.566-3.376-2.566-9.694 0-6.74.2-7.372 3.707-11.65l3.706-4.524 5.833.422c7.27.526 10.209 2.992 10.209 8.568 0 7.368-8.115 17.403-15.222 18.824-2.486.497-3.61.111-5.667-1.946z" fill="#2a2a30"/><path d="M192.63 287.166c3.05-1.159 5.878-5.203 5.086-7.268-1.383-3.604-10.88-5.204-11.896-2.003-.719 2.264 1.002 8.339 2.66 9.391 1.572.998 1.181 1.01 4.15-.12z" fill="#fff"/><path d="M114.883 288.05c-5.768-4.538-1.999-18.115 6.33-22.804l4.22-2.376 2.657 1.983c1.461 1.09 3.3 3.672 4.085 5.737 3.058 8.034-3.41 19.532-10.988 19.532-2.198 0-4.726-.832-6.304-2.073z" fill="#2a2a30"/><path d="M127.042 279.563c.374-2.613-3.363-7.441-5.76-7.441-3.285 0-4.31 7.14-1.284 8.943 2.817 1.68 6.708.85 7.044-1.502z" fill="#fff"/><path d="M184.447 193.093c-4.03-3.756-5.545-8.1-6.004-17.223-.571-11.37 1.921-21.827 6.027-25.282 6.77-5.696 17.726-3.484 22.996 4.643 5.049 7.787 5.126 20.55.174 28.596-5.908 9.6-17.754 14.333-23.193 9.266z" fill="#2a2a30"/><path d="M204.999 170.603c-.66-5.512-3.892-10.744-8.678-13.605-2.555-1.516-5.888-2.19-8.65-.821-1.812 1-2.391 3.177-2.867 5.041-.718 3.398-1.047 6.893-.877 10.363.084.798.08 2.597 1.358 2.057 1.85-.578 3.207-2.08 4.998-2.789 2.178-.99 4.57-1.745 6.985-1.525 1.942.344 3.127 2.08 4.447 3.372.822.763 1.58 1.735 2.685 2.08 1.072-.135.708-1.677.753-2.45a32.01 32.01 0 00-.154-1.723z" fill="#fff"/><path d="M137.655 189.591c-3.892-4.126-5.394-8.761-5.401-16.67-.006-5.729 1.927-14.937 3.914-18.65 4.583-8.564 15.35-7.78 21.49 1.562 5.88 8.948 5.69 18.783-.553 28.51-6.181 9.634-13.461 11.598-19.45 5.248z" fill="#2a2a30"/><path d="M147.248 170.741c2.028.014 4.095.103 6.048.69.604.349 1.83.766 1.892-.335.323-2.377-.803-4.65-1.997-6.626-1.876-2.923-4.297-5.582-7.308-7.356-1.4-.8-3.185-1.398-4.736-.668-1.13.698-1.43 2.107-1.807 3.286-.705 2.69-1.03 5.478-1.086 8.256.044 1.166-.105 2.384.276 3.506.445.79 1.44.215 2.09.039 2.151-.577 4.409-.732 6.628-.792zM322.66 128.076c11.774-3.637 16.64-10.295 14.501-19.842-4.506-20.107-32.421-31.668-64.581-26.746-11.482 1.758-25.436 6.04-28.671 8.8l-2.161 1.844 4 3.48c2.2 1.914 4.5 3.487 5.112 3.495.611.008 3.986-1.28 7.5-2.864 8.923-4.021 19.206-6.121 29.97-6.121 10.786 0 15.868 1.294 19.35 4.93 5.193 5.419 3.558 12.924-3.638 16.702-4.118 2.162-15.965 2.15-30.282-.033-5.792-.883-10.36-1.151-10.873-.638-2.212 2.212 7.21 10.821 15.884 14.516 11.369 4.841 32.392 6.028 43.889 2.477zM59.248 121.061c8.399-1.35 25.718-7.139 33.048-11.046 5.168-2.754 5.949-3.61 7.866-8.62 1.171-3.06 1.91-5.782 1.643-6.05-.267-.266-2.864.456-5.771 1.606-24.256 9.597-51.32 11.958-56.257 4.91-4.035-5.763-.076-15.558 7.956-19.68 4.716-2.422 5.792-2.556 20-2.496 18.058.077 32.168 2.88 36.157 7.185 2.008 2.166 2.409 2.282 2.956.856.348-.907-.232-3.757-1.289-6.333-1.682-4.098-2.79-5.158-8.866-8.48-14.58-7.969-35.322-12.558-52.176-11.543-14.94.9-26.002 6.511-30.384 15.412-2.008 4.079-2.38 6.333-2.368 14.34.013 8.324.341 10.118 2.657 14.5 7.26 13.74 22.581 19.016 44.828 15.44z" fill="#fff"/><path d="M302.748 103.73c0-2.436-5.618-4.884-12.309-5.363-11.367-.813-24.147 1.132-21.94 3.34 2.275 2.274 34.249 4.163 34.249 2.023zM77.045 95.095c5.113-1.06 10.063-2.355 11-2.88 1.494-.836 1.38-1.076-.929-1.953-1.448-.55-6.093-1.482-10.322-2.07-19.505-2.714-35.385.156-31.892 5.763 2.818 4.525 13.91 4.918 32.143 1.14zM241.572 81.547c5.922-7.275 13.113-21.88 14.713-29.88 3.143-15.725-3.153-28.532-17.886-36.384-6.406-3.414-14.437-5.126-15.556-3.315-.368.595.303 6.161 1.491 12.368 3.379 17.652 1.367 29.9-7.159 43.593-2.16 3.47-3.927 6.923-3.927 7.675 0 1.428 20.758 12.637 22.5 12.149.55-.154 3.17-2.947 5.824-6.206zM120.096 75.724c2.776-1.868 7.21-4.196 9.85-5.172 7.113-2.629 7.125-2.647 6.074-9.178-.974-6.051-.335-15.613 1.343-20.096.547-1.46 3.476-7.014 6.508-12.34 6.258-10.993 6.734-14.739 2.29-18.04-11.154-8.29-30.702 5.14-37.085 25.476-2.316 7.379-2.686 20.988-.786 28.958 1.59 6.665 4.597 13.79 5.822 13.79.514 0 3.207-1.53 5.984-3.398z" fill="#fff"/></svg>