<svg xmlns="http://www.w3.org/2000/svg" width="40" height="47"><path fill="#212e61" fill-rule="evenodd" d="M37.21 26.1 21.63 14.89a2.26 2.26 0 0 0-2.63 0l-6.94 5a1.88 1.88 0 0 1-2.95-1.8c.07-.48.34-.92.74-1.2l4.93-3.55 4.28-3.08a6.18 6.18 0 0 1 7.84.5c.47.46 1.21.48 1.74.1L37.2 4.7v21.4zm-.2 4.38-.02.15a2.1 2.1 0 0 1-.5 1.01c-.64.6-1.56.65-2.23.16l-7.6-5.48-.06-.03c-.46-.34-1.22-.33-1.63.05a1.25 1.25 0 0 0 .1 1.95l.1.06 6.97 5.02a1.7 1.7 0 0 1 .04 2.8l-.16.12c-.6.44-1.43.44-2.03 0l-8.65-6.22c-.46-.33-1.22-.33-1.63.05a1.25 1.25 0 0 0 .1 1.95l7.07 5.09a1.7 1.7 0 0 1 .05 2.8l-.17.12c-.6.43-1.43.43-2.03 0l-1.58-1.14-7.07-5.09c-.46-.33-1.22-.32-1.63.06a1.25 1.25 0 0 0 .1 1.95l7.07 5.08c.39.28.67.7.74 1.17a1.7 1.7 0 0 1-.7 1.64l-.15.1c-.54.4-1.25.44-1.83.13L2.76 31.81V4.7l7.35 5.3 2.32 1.66-4.2 3.02a4.55 4.55 0 0 0-1.02 6.41 4.61 4.61 0 0 0 3.76 1.9c.97 0 1.91-.3 2.71-.88l5.87-4.23a1.3 1.3 0 0 1 1.53 0l15.4 11.1c.43.38.63.95.54 1.5zM35.24 2.74l-6.98 5.02a.65.65 0 0 1-.72.02 8.98 8.98 0 0 0-9.74 0l-3.01 2.18L4.74 2.74h30.5ZM39.57.4c-.26-.26-.61-.4-.98-.4H1.4A1.36 1.36 0 0 0 0 1.37V32.5c0 .44.21.85.57 1.1l17.9 12.89c.9.65 2.13.65 3.03 0l17.9-12.88c.36-.26.57-.67.57-1.1V1.36c0-.36-.14-.71-.4-.97z"/></svg>