<svg xmlns="http://www.w3.org/2000/svg" width="160.589" height="160.589" viewBox="0 0 42.489 42.489"><path d="M7.019 1.327h21.064c5.567 0 13.17 4.375 12.988 12.248-.138 5.978-4.046 8.26-7.704 11.099l9.122 16.457h-9.802c-2.995 0-5.157-3.397-6.676-6.605-1.947-4.113-3.144-6.063-4.05-6.96-1.526-1.516-3.01-2.236-4.357-2.236H2.786l1.43-8.106h19.17v2.71l6.358-6.359-6.359-6.359v2.31H5.573z" fill="#8754a1"/><path d="M1.393 33.23H9.12c1.84 0 4.076.806 5.332 3.935 1.095 2.73 2.215 4.238 3.153 3.966H0z" fill="#40225d"/></svg>