<svg xmlns="http://www.w3.org/2000/svg" width="176.614527117346" height="176.609368062084" viewBox="0 0 46.729259 46.727894" xmlns:v="https://vecta.io/nano"><defs><filter  x="0" y="0" width="1" height="1"><feColorMatrix in="SourceGraphic" values="0 0 0 0 1 0 0 0 0 1 0 0 0 0 1 0 0 0 1 0"/></filter><clipPath ><path d="M0 0h1920v1080H0z"/></clipPath><clipPath id="C"><circle cx="1217.2305" cy="657.23047" r="66.230446" fill="#fff" fill-rule="evenodd" stroke-width="1.67244" stroke-linecap="round" stroke-linejoin="round"/></clipPath></defs><circle cx="23.36463373645" cy="23.364631528931" r="23.36463" fill="#fff" fill-rule="evenodd"/><g clip-path="url(#C)" transform="matrix(.352778 0 0 .352778 -406.047213 -208.49166)"><path d="M1259.1602 708.48828c14.8281-12.14453 24.3007-30.59766 24.3007-51.25781 0-36.57813-29.6523-66.23047-66.2304-66.23047S1151 620.65234 1151 657.23047s29.6484 66.22656 66.2305 66.22656c11.1289 0 21.6289-2.75 30.8398-7.60547 8.3008 4.32031 16.711 6.64453 24.3399 6.51172l1.4179-11.46875c-5.0664.12109-9.9883-.77344-14.6679-2.40625zm0 0c-18.6993-6.52734-33.4883-24.85547-38.6407-37.11719 33.9922-8.625 43.2618-56.65234 9.9102-56.65234-8.75 0-17.6406 5.64844-23.5703 16.97656-1.5391-11.57422-9.2696-17.23828-22.7891-16.97656l-1.2812 10.81641c10.6797-.26172 14.5507 4.63281 14.5507 13.38281-.1679 4.5625-.8085 9.09375-1.9296 13.51953l-10.1797 45.71094h13.0078l5.543-25.87891 4.2382.38281c8.8321 19.51172 24.2422 34.97657 40.0508 43.19922 3.9492-2.08203 7.668-4.55469 11.0899-7.36328zm-48.5899-46.00391c-1.6406-.0547-3.2812-.22656-4.8906-.51171h.031c3.9883-16.60547 13.2696-36.1875 24.918-36.1875 18.5195 0 5.0508 36.69921-20.0586 36.69921" fill="#0073de" fill-rule="evenodd"/></g></svg>