<svg xmlns="http://www.w3.org/2000/svg" viewBox="0 0 77.79 20.18"><path fill="#232a55" d="M7.08 7.9a7.34 7.34 0 0 0-3.62.95v10.56a.55.55 0 0 1-.52.55H.53a.55.55 0 0 1-.53-.55V5.68a.53.53 0 0 1 .53-.53H2.8a.53.53 0 0 1 .53.53v.55A6.19 6.19 0 0 1 7.1 4.97a.53.53 0 0 1 .52.52v1.89a.56.56 0 0 1-.54.52zm13.84 5.87h-8.56v.08c0 1.52.62 3.34 3.15 3.34 1.62-.02 3.22-.1 4.83-.27h.08c.27 0 .47.12.47.4v1.73c0 .42-.09.6-.55.68a23.52 23.52 0 0 1-5.1.44c-2.62 0-6.36-1.42-6.36-6.59v-1.94c0-4.1 2.29-6.67 6.3-6.67 4.05 0 6.25 2.75 6.25 6.67v1.48c.01.42-.15.65-.51.65zm-2.97-2.57c0-2.04-1.13-3.24-2.75-3.24s-2.81 1.15-2.81 3.24v.1h5.56zM36 19.95h-2.41a.55.55 0 0 1-.53-.55v-8.54c0-2.29-.21-2.94-2.23-2.94a6.65 6.65 0 0 0-2.96.95v10.56a.55.55 0 0 1-.53.55h-2.4a.55.55 0 0 1-.53-.55V5.69a.53.53 0 0 1 .52-.53h2.29a.53.53 0 0 1 .52.53v.55A6.85 6.85 0 0 1 32 4.98c3.77 0 4.54 2.54 4.54 5.87v8.56a.57.57 0 0 1-.54.54zm14.97-.45a22.16 22.16 0 0 1-5.28.68c-4.23 0-6.27-2.5-6.27-6.58v-2.03c0-4.1 2.04-6.59 6.27-6.59a21.37 21.37 0 0 1 2.53.19V.53a.53.53 0 0 1 .52-.53h2.41a.53.53 0 0 1 .53.53V18.8c0 .37-.12.54-.71.7zM48.22 7.99a21.39 21.39 0 0 0-2.53-.18c-2.25 0-2.8 1.6-2.8 3.76v2.01c0 2.16.55 3.76 2.8 3.76a16.68 16.68 0 0 0 2.53-.18zm18.44 5.78h-8.55v.08c0 1.52.62 3.34 3.15 3.34a51.7 51.7 0 0 0 4.82-.27h.09c.25 0 .46.12.46.4v1.73c0 .42-.08.6-.55.68a23.52 23.52 0 0 1-5.1.44c-2.62 0-6.35-1.42-6.35-6.59v-1.94c0-4.1 2.29-6.67 6.3-6.67 4.04 0 6.24 2.75 6.24 6.67v1.48c.02.42-.14.65-.5.65zM63.7 11.2c0-2.04-1.14-3.24-2.76-3.24s-2.8 1.15-2.8 3.24v.1h5.56zm13.55-3.3a7.34 7.34 0 0 0-3.62.95v10.56a.55.55 0 0 1-.52.55h-2.42a.55.55 0 0 1-.52-.55V5.68a.53.53 0 0 1 .52-.53h2.29a.53.53 0 0 1 .52.53v.55a6.19 6.19 0 0 1 3.76-1.26.53.53 0 0 1 .53.52v1.89a.55.55 0 0 1-.54.52z"/></svg>
