<svg xmlns="http://www.w3.org/2000/svg" width="171" height="171" fill="#46e3b7"><path d="M111.3 0v22.6h22.6V0h-20.6zM53.5 0c-7.2 0-14.2 1.4-20.8 4.2-6.4 2.7-12.1 6.6-17 11.5s-8.8 10.6-11.5 17C1.4 39.3 0 46.3 0 53.5v80.4h22.6V53.2c.4-8.1 3.8-15.7 9.5-21.3 5.8-5.7 13.4-9 21.5-9.3h43.2V0h-2zm94.9 74.2v22.6H171V74.2h-20.6zm0-37.1v22.6H171V37.1h-20.6zm2-37.1h-2v22.6H171V0h-2zm-2 111.3v22.6H171v-22.6h-20.6zm0 37.1V171H171v-22.6h-20.6zm-37.1 0V171h22.6v-22.6h-20.6zm-37.1 0V171h22.6v-22.6H76.2zm-37.1 0V171h22.6v-22.6H39.1zm-37.1 0V171h22.6v-22.6H2z"/></svg>