<svg xmlns="http://www.w3.org/2000/svg" width="106.033" height="106.033"><path d="M40.612 40.128c0-7.059-5.83-10.435-15.14-10.435h-6.24v21.584c1.228.103 2.864.206 6.547.206 8.696 0 14.833-4.298 14.833-11.355M0 76.341h7.673V29.693H0V19.36h26.087c15.446 0 26.494 6.65 26.494 20.357 0 8.696-5.32 15.347-12.685 18.312l10.332 18.312h7.673v10.332H42.352L28.848 61.1c-1.432.101-2.761.204-4.092.204-2.147 0-4.092 0-5.524-.103v15.141h8.39v10.332H0z" fill="#231f20"/><path d="M64.194 74.5c0-2.865 1.637-4.705 3.785-4.705 1.842 0 3.478 1.533 3.478 3.476 0 1.639-.92 3.07-2.25 3.888 2.046 3.581 7.978 6.855 16.06 6.855 10.23 0 16.674-5.832 16.674-14.219 0-8.49-7.775-12.175-16.163-15.55-10.127-3.991-19.13-8.185-19.13-19.026 0-9.823 8.08-16.881 19.54-16.881 10.33 0 18.617 6.344 18.617 12.48 0 2.66-1.739 4.296-3.683 4.296-1.944 0-3.579-1.532-3.579-3.58 0-1.534.818-2.76 1.943-3.682-1.74-3.273-7.876-5.83-13.503-5.83-9.002 0-15.244 5.524-15.244 12.89 0 8.591 7.674 11.968 16.675 15.548 9.82 3.888 18.619 8.286 18.619 19.026 0 11.048-8.9 18.21-20.972 18.21-12.683 0-20.867-7.366-20.867-13.196"/></svg>