<svg xmlns="http://www.w3.org/2000/svg" width="60" height="60"><path d="M.798 30C.798 13.544 13.872.204 30 .204S59.202 13.544 59.202 30 46.128 59.796 30 59.796.798 46.456.798 30" fill="#007ac9"/><path d="M32.068 29.894c3.835 0 6.276-2.005 6.276-5.099v-.087c0-3.268-2.354-5.055-6.32-5.055h-7.801v10.241h7.845zM18.863 14.771h13.596c3.836 0 6.843 1.134 8.805 3.05 1.611 1.657 2.527 3.923 2.527 6.582v.087c0 4.882-2.833 7.846-6.93 9.108l8.219 12.197h-6.693l-7.409-11.151h-6.755v11.151h-5.36z" fill="#fff"/></svg>
