<svg xmlns="http://www.w3.org/2000/svg" viewBox="0 0 133 133"><path d="M132.199 60.176c.182 2.006.307 4.03.307 6.084 0-2.055-.125-4.077-.307-6.084z"/><path d="M33.909 59.826s-18.425 67.886 55.424 68.477c23.17-8.625 40.244-29.772 42.831-55.267.179-1.764.232-3.563.272-5.365.008-.474.071-.934.071-1.412 0-2.052-.125-4.077-.307-6.083-19.511 76.806-105.823 46.722-98.291-.35z"/><path d="M72.094 34.627S3.335 15.427 4.392 90.4a66.435 66.435 0 0 0 16.023 23.951c.296.28.602.544.9.819a66.407 66.407 0 0 0 6.283 5.12c.341.244.662.513 1.004.751a66.035 66.035 0 0 0 7.253 4.306c.729.375 1.477.718 2.216 1.068a65.545 65.545 0 0 0 6.624 2.688c.554.189 1.083.426 1.644.601a65.67 65.67 0 0 0 8.246 1.95c.843.148 1.695.272 2.549.39 2.892.417 5.808.644 8.73.678.112 0 .22.017.332.017 2.204 0 4.38-.118 6.526-.329-77.147-18.398-47.824-104.664-.63-97.781l.002-.002z"/><path d="M98.894 70.182s16.267-68.58-56.957-65.517C17.382 14.364 0 38.255 0 66.254c.023 3.015.25 6.025.681 9.009 15.41-77.59 103.205-52.461 98.213-5.08v-.001z"/><path d="M62.735 99.695s68.878 8.991 64.566-56.495C117.927 17.993 93.723 0 65.253 0a66.506 66.506 0 0 0-12.015 1.142c76.749 9.422 56.801 99.223 9.497 98.553z"/><path d="M85.376 66.261a18.558 18.558 0 1 1-37.117 0 18.558 18.558 0 0 1 37.117 0z"/></svg>