<svg xmlns="http://www.w3.org/2000/svg" viewBox="0 0 251 162"><path d="M219.2 66.1c-2.8-1.2-5.7-2.1-8.6-2.7-.7-9-3.1-17.5-7-25.2-2.4 5.8-5.7 11.3-9.4 16.5-9.7 13.1-22.2 23.8-35.4 33-26.8 18.3-57.1 31-88.6 39.5-20.3 5.4-41.2 9.1-62.6 10.3 9 14.7 25.2 24.5 43.7 24.5h8.3c29.3-.1 58.6-.2 87.9-.2 15.6 0 31.3.2 46.9.1 10-.1 18.4.1 27.4-4.9 8.5-4.7 15.5-11.8 21-19.7 5.4-7.8 8.2-17 8.2-26.5.1-20.5-12.7-38.2-31.8-44.7z" fill="#e4411f"/><path d="M66.6 111c30.5-5.4 60.6-15 87.7-30.4 13.5-7.7 26.3-17 36.6-28.6 4.4-5.1 8.2-10.6 11.1-16.7C190.4 14.3 167.8 0 142.1 0c-24.5 0-46.5 12.8-58.8 33-5.1-2.7-10.8-4.1-16.8-4.1-19.5 0-35.4 15.5-36.1 34.8C12.3 71.9 0 90.2 0 110.6c0 1.6.1 3.2.2 4.8 22 1.2 44.4-.5 66.4-4.4z" fill="#7c858e"/></svg>