<svg xmlns="http://www.w3.org/2000/svg" width="36" height="36"><path d="M6.613 0c-1.2 0-2.3.4-3.3 1.2-2.3 1.8-2.7 5.2-.8 7.4 3 3.8 6.7 7 10.8 9.4.3-.2.6-.4.9-.5 4.5-2.5 9.5-4.1 14.6-4.7h1.1c-3.8-.5-7.4-1.7-10.7-3.5-3.1-1.9-6.1-4.3-8.5-7.3-1-1.3-2.5-2-4.1-2" fill="#67cad6"/><path d="M13.313 18c-4.1 2.4-7.8 5.6-10.9 9.4-1.8 2.3-1.4 5.6.9 7.4 1 .8 2.1 1.2 3.3 1.2 1.5 0 3.1-.7 4.1-2 2.4-3 5.4-5.4 8.7-7.3 3.3-1.8 6.9-3 10.6-3.5h-1.1c-5.2-.5-10.1-2.2-14.6-4.7-.3-.1-.6-.3-1-.5" fill="#b61f71"/><path d="M29.513 12.7h-.6c-5.2.7-10.1 2.3-14.6 4.8-.3.2-.6.3-.9.5.3.2.6.4.9.5 4.5 2.5 9.5 4.1 14.6 4.7H30.113c.6-.1 1.1-.2 1.6-.5.4-.2.8-.4 1.1-.7.8-.6 1.4-1.5 1.7-2.5.1-.3.2-.6.2-1v-.6-.6c0-.4-.1-.7-.2-1.1-.3-.8-.7-1.5-1.4-2.1-.5-.5-1.1-.8-1.7-1.1-.4-.2-.8-.3-1.3-.3h-.6" fill="#392364"/></svg>