<svg id="Layer_1" data-name="Layer 1" xmlns="http://www.w3.org/2000/svg" viewBox="0 0 570.87 231.85"><defs><style>.cls-1{fill:#3fa946;}.cls-2{fill:#00a5ac;}.cls-3{fill:#0063af;}.cls-4{fill:#009fd9;}.cls-5{fill:#214491;}.cls-6{fill:#00837a;}</style></defs><title>Artboard 2</title><path class="cls-1" d="M567.34,195.38a16.51,16.51,0,0,0-23.17-2.76,28.84,28.84,0,0,1-18,6.23A29.2,29.2,0,0,1,497,169.68V106.17h36.47a16.5,16.5,0,0,0,0-33H497V61.33A61.22,61.22,0,1,0,375.7,73.18c.32,0,47.14,13.37,47.14,13.37-3.75-2.38-15.72-11.11-15.3-25.22.46-15.55,12.66-28.22,28.22-28.22A28.25,28.25,0,0,1,464,61.33V169.68a62.17,62.17,0,0,0,100.6,48.87A16.5,16.5,0,0,0,567.34,195.38Z"/><path class="cls-2" d="M427,152c-10.52-10.63-25.93-16.27-45.78-16.76-13.49-.32-23.58-3.64-27.7-9.1-2.77-3.67-2.46-6.72-1.82-8.89,2-6.78,13.66-11.33,25-11,12.14.32,28.49,8.34,29.82,9-1.1-1.84-24.2-33.89-30.79-42-27.64.34-50.58,14.93-56,35.73A43.16,43.16,0,0,0,327.14,146c7.33,9.73,22.52,21.48,53.23,22.22,16.95.42,26.67,6,26.67,15.43,0,12.89-15.48,15.08-24.71,15.24-30.43.55-55.52-19.85-62.3-31.06,0,0-10.77,27.5-14.12,33.67,16.54,15.33,43.22,30.39,75.24,30.39,19.67,0,34.39-5.34,44.64-14.93A45.47,45.47,0,0,0,427,152Z"/><path class="cls-3" d="M172.15,196.19c-24.77-4-44.94-13.38-62.16-26.86-12.15-9.51-20.85-18.78-25.49-30.19h0c37.87,0,68.68-31.21,68.68-69.56S122.37,0,84.5,0V0h-68A16.5,16.5,0,0,0,0,16.5V215.35a16.5,16.5,0,0,0,33,0V33H84.5v0c19.71,0,35.68,16.37,35.68,36.56s-16,36.56-35.68,36.56H64.17a16.52,16.52,0,0,0-11.92,5.09,16.3,16.3,0,0,0-4.56,12.13c1.6,28.93,16.81,52.26,42,72,24.52,19.19,54.5,31.66,89.87,35.09,10.46,1,20.2,1.45,29.27,1.45,22.52,0,40.88-2.91,55.85-7.64C257.29,222.29,181.29,199.29,172.15,196.19Z"/><path class="cls-4" d="M253.09,193.13c-17.16,4.15-33.05,1.6-45.11-7.35a44.62,44.62,0,0,1-16.11-22.64c16.93,4.25,40.84,7.44,65,1.3,27.9-7.1,38-29.18,35.67-47.91A47.06,47.06,0,0,0,275,85.78c-10.23-8.25-23.48-12.61-38.32-12.61-38.26,0-78.34,30.12-79.36,79.35-.32,15.62,5.36,30.94,14.88,43.67,3.14,1.1,24.14,4.1,38.14,4.1C223.29,200.29,240.29,197.29,253.09,193.13Zm-16.46-87c14.65,0,22.27,7.49,23.14,14.46,1,7.6-6.53,10.67-11.07,11.83-19.43,4.95-39.61,1.31-52.63-2.38A46.4,46.4,0,0,1,236.63,106.17Z"/><path class="cls-5" d="M314.48,162a16.45,16.45,0,0,0-9.44-2.48c-5.25.23-9.66,2.7-13.29,7.74-13.16,18.29-29,23.17-38.66,25.88-36.45,10.18-77.48,3.62-80.94,3.06a78.55,78.55,0,0,0,16.17,16.09,81.07,81.07,0,0,0,49,15.84,101,101,0,0,0,27.31-3.91c.76-.21,35.83-8.42,55.11-39.48A16.64,16.64,0,0,0,314.48,162Z"/><path class="cls-6" d="M422.84,86.55c-9.34-5.34-28.55-13.67-47.14-13.37,5.84,29.94,30.79,42,30.79,42,9.26,4.28,17.85,2.46,22.7-5.24S432.2,91.9,422.84,86.55Z"/></svg>