<svg xmlns="http://www.w3.org/2000/svg" style="background:#080808" viewBox="0 0 720 720"><path fill="#fff" d="m302.39 534.15 18.59-124.09c.89-5.97 4.32-8.96 10.3-8.96h92.74l15.41 35.01 19.47 44.22a423.44 423.44 0 0 0 53.97-36.04l-13.67-31.68-7.02-16.25c14.28-3.86 26.71-9.48 37.3-16.86a120.67 120.67 0 0 0 27.01-25.56 132.28 132.28 0 0 0 17.83-31.09 148.09 148.09 0 0 0 9.23-33.46c2.1-14.04 1.93-27.57-.51-40.57-2.45-12.99-7.6-24.32-15.46-33.99-7.86-9.66-18.56-17.39-32.09-23.19-12.98-5.56-29.02-8.38-47.96-8.61-.81-.01-1.55-.09-2.37-.09H292.31l-5.64 37.62c37.62-21.05 64.82-30.91 64.82-30.91a600.25 600.25 0 0 0-66.78 44.03L283 245.11h194.96c17.21 0 29.07 4.66 35.58 13.96 6.51 9.31 8.82 20.29 6.92 32.93a65.96 65.96 0 0 1-5.66 18.44 56.43 56.43 0 0 1-11.06 15.81c-4.55 4.57-10.19 8.26-16.94 11.07-6.74 2.82-14.51 4.22-23.29 4.22H324.93c-19.68 0-34.56 4.4-44.65 13.17-10.1 8.79-16.65 23.18-19.65 43.21l-11.82 78.89-7.64 51.02c20.54 6.9 43.46 7.46 61.23 6.3Zm223.95-58.63a643.17 643.17 0 0 1-52.39 39.02l2.34 5.32 8.26 18.77h69.03l-21.44-49.67-5.8-13.44"/><path fill="#4f46e5" d="M123.8 362.41c-83.23 119.62-10.38 202.18 84.69 209.56 0 0-91.88-30.44-68.76-136.32 17.55-80.46 76.5-149.86 144.97-201.94l1.97-13.12c-48.89 27.35-115.41 73.62-162.87 141.83Zm509.22-87.9c-4.61 17.23-30.51 99.22-120.15 169.78a422.73 422.73 0 0 1-53.97 36.04c-34.98 19.73-76.69 37.11-126.43 49.88 0 0-12.52 2.8-30.08 3.94-17.77 1.15-40.69.6-61.23-6.3-27.64-9.29-50.87-30.05-51.03-73.64-.25-67.83 55.75-139.2 125.85-191.95h-35.44c-128.36 109.5-160.44 264.19-52.91 292.65 64.94 17.18 157.2-6.93 237.99-59.28a459.02 459.02 0 0 0 52.34-39.51c55.09-48.17 98.82-110.5 115.06-181.59ZM482.57 170.5c37.56-6.39 93.78-8.85 126.09 23.57 0 0-43.07-84.83-195.46-23.66h67.16c.77 0 1.45.07 2.21.08"/></svg>
