<?xml version="1.0" standalone="no"?>
<!DOCTYPE svg PUBLIC "-//W3C//DTD SVG 20010904//EN"
 "http://www.w3.org/TR/2001/REC-SVG-20010904/DTD/svg10.dtd">
<svg version="1.0" xmlns="http://www.w3.org/2000/svg"
 width="256.000000pt" height="256.000000pt" viewBox="0 0 256.000000 256.000000"
 preserveAspectRatio="xMidYMid meet">

<g transform="translate(0.000000,256.000000) scale(0.100000,-0.100000)"
fill="#000000" stroke="none">
<path d="M353 2539 c-150 -29 -280 -145 -323 -288 -20 -64 -20 -90 -18 -996
l3 -930 31 -66 c53 -111 137 -188 252 -232 57 -22 62 -22 922 -25 564 -2 893
1 945 7 186 25 325 143 369 316 14 51 16 177 16 955 0 726 -3 905 -14 946 -42
160 -175 283 -336 314 -64 12 -1785 12 -1847 -1z m1639 -659 c92 -26 130 -98
104 -198 -19 -73 -316 -767 -351 -821 -51 -76 -167 -133 -202 -98 -8 8 -90
106 -182 218 l-167 204 -58 3 c-70 4 -83 -6 -111 -78 -33 -86 -53 -103 -123
-108 -80 -6 -112 3 -112 29 0 37 231 579 254 594 32 23 648 22 670 -1 26 -25
19 -65 -35 -193 -57 -134 -94 -178 -191 -224 l-49 -23 83 -101 c46 -56 86
-102 89 -102 13 -2 280 614 293 676 10 43 -7 70 -52 83 -51 14 -745 13 -812
-1 -61 -13 -107 -50 -137 -111 -12 -23 -78 -176 -148 -337 -88 -207 -125 -304
-123 -325 5 -52 38 -61 233 -61 l170 0 9 43 c5 23 12 42 15 42 4 0 49 -43 101
-95 l94 -94 -100 -47 c-54 -25 -119 -55 -143 -65 l-43 -19 6 22 c3 13 9 33 12
46 l6 22 -196 0 c-210 0 -244 6 -294 53 -38 35 -52 72 -52 132 0 51 14 91 126
353 185 435 211 480 308 537 87 51 116 54 611 54 288 1 474 -3 497 -9z"/>
<path d="M1178 1463 c-13 -16 -48 -94 -48 -108 0 -10 272 -5 292 6 22 12 62
94 53 109 -4 6 -64 10 -144 10 -119 0 -140 -2 -153 -17z"/>
</g>
</svg>
