<?xml version="1.0" encoding="UTF-8"?><svg xmlns="http://www.w3.org/2000/svg" viewBox="0 0 720.21 720.21"><g id="a"><rect width="720.21" height="720.21" style="fill:#080808; stroke-width:0px;"/></g><g id="b"><path d="M286.67,220.58l-1.97,13.12c21.65-16.47,44.24-31.22,66.78-44.03,0,0-27.19,9.86-64.82,30.91Z" style="fill:none; stroke-width:0px;"/><path d="M424.02,401.11h-92.74c-5.98,0-9.4,2.99-10.3,8.96l-18.59,124.09c17.56-1.14,30.08-3.94,30.08-3.94,49.74-12.77,91.45-30.15,126.43-49.88l-19.47-44.22-15.41-35.01Z" style="fill:none; stroke-width:0px;"/><path d="M302.39,534.15l18.59-124.09c.89-5.97,4.32-8.96,10.3-8.96h92.74l15.41,35.01,19.47,44.22c20.15-11.37,38.07-23.52,53.97-36.04l-13.67-31.68-7.02-16.25c14.28-3.86,26.71-9.48,37.3-16.86,10.59-7.38,19.59-15.89,27.01-25.56,7.41-9.66,13.36-20.02,17.83-31.09,4.46-11.06,7.54-22.21,9.23-33.46,2.1-14.04,1.93-27.57-.51-40.57-2.45-12.99-7.6-24.32-15.46-33.99-7.86-9.66-18.56-17.39-32.09-23.19-12.98-5.56-29.02-8.38-47.96-8.61-.81-.01-1.55-.09-2.37-.09h-192.85l-5.64,37.62c37.62-21.05,64.82-30.91,64.82-30.91-22.55,12.81-45.14,27.56-66.78,44.03l-1.71,11.43h194.96c17.21,0,29.07,4.66,35.58,13.96,6.51,9.31,8.82,20.29,6.92,32.93-.95,6.32-2.84,12.47-5.66,18.44-2.83,5.98-6.52,11.25-11.06,15.81-4.55,4.57-10.19,8.26-16.94,11.07-6.74,2.82-14.51,4.22-23.29,4.22h-138.58c-19.68,0-34.56,4.4-44.65,13.17-10.1,8.79-16.65,23.18-19.65,43.21l-11.82,78.89-7.64,51.02c20.54,6.9,43.46,7.46,61.23,6.3Z" style="fill:#fff; stroke-width:0px;"/><path d="M123.8,362.41c-83.23,119.62-10.38,202.18,84.69,209.56,0,0-91.88-30.44-68.76-136.32,17.55-80.46,76.5-149.86,144.97-201.94l1.97-13.12c-48.89,27.35-115.41,73.62-162.87,141.83Z" style="fill:#4f46e5; stroke-width:0px;"/><path d="M526.34,475.52c-19.08,15.81-37.32,28.94-52.39,39.02l2.34,5.32,8.26,18.77h69.03l-21.44-49.67-5.8-13.44Z" style="fill:#fff; stroke-width:0px;"/><path d="M633.02,274.51c-4.61,17.23-30.51,99.22-120.15,169.78-15.9,12.52-33.81,24.67-53.97,36.04-34.98,19.73-76.69,37.11-126.43,49.88,0,0-12.52,2.8-30.08,3.94-17.77,1.15-40.69.6-61.23-6.3-27.64-9.29-50.87-30.05-51.03-73.64-.25-67.83,55.75-139.2,125.85-191.95h-35.44c-128.36,109.5-160.44,264.19-52.91,292.65,64.94,17.18,157.2-6.93,237.99-59.28,18.18-11.78,35.76-25.02,52.34-39.51,55.09-48.17,98.82-110.5,115.06-181.59Z" style="fill:#4f46e5; stroke-width:0px;"/><path d="M482.57,170.5c37.56-6.39,93.78-8.85,126.09,23.57,0,0-43.07-84.83-195.46-23.66h67.16c.77,0,1.45.07,2.21.08Z" style="fill:#4f46e5; stroke-width:0px;"/></g></svg>
