<?xml version="1.0" encoding="UTF-8" standalone="no"?>
<svg
   width="264.00009"
   height="305"
   viewBox="0 0 264.00009 305"
   version="1.1"
   xml:space="preserve"
   style="clip-rule:evenodd;fill-rule:evenodd;stroke-linejoin:round;stroke-miterlimit:2"
   id="svg10"
   xmlns="http://www.w3.org/2000/svg"
   xmlns:svg="http://www.w3.org/2000/svg"><defs
     id="defs10" /><g
     id="g10"
     transform="translate(-1372.7749,-3.255)"><path
       d="m 1501.6209,126.90656 c -10.621,-10.621 -18.933,-15.708 -35.096,-15.708 -25.404,0 -46.646,20.321 -46.646,52.65 v 142.242 h -47.104 v -234.142 h 46.183 v 25.4 c 12.004,-16.625 36.017,-28.171 62.342,-28.171 22.629,0 39.717,6 55.883,22.167 z"
       style="fill:#7c8081;fill-rule:nonzero"
       id="path1" /><path
       d="m 1636.775,35.463 c 0,17.787 -14.421,32.208 -32.208,32.208 -17.788,0 -32.213,-14.421 -32.213,-32.208 0,-17.788 14.425,-32.208 32.213,-32.208 17.787,0 32.208,14.421 32.208,32.208 z"
       style="fill:#ee2625;fill-rule:nonzero"
       id="path7" /><path
       d="m 1636.775,155.754 c 0,17.792 -14.421,32.208 -32.208,32.208 -17.788,0 -32.213,-14.417 -32.213,-32.208 0,-17.788 14.425,-32.208 32.213,-32.208 17.787,0 32.208,14.421 32.208,32.208 z"
       style="fill:#ee2625;fill-rule:nonzero"
       id="path8" /><path
       d="m 1636.775,276.042 c 0,17.792 -14.421,32.213 -32.208,32.213 -17.788,0 -32.213,-14.421 -32.213,-32.213 0,-17.788 14.425,-32.204 32.213,-32.204 17.787,0 32.208,14.417 32.208,32.204 z"
       style="fill:#ee2625;fill-rule:nonzero"
       id="path9" /></g><style
     id="style1">@media (prefers-color-scheme: light) { :root { filter: none; } }
@media (prefers-color-scheme: dark) { :root { filter: none; } }
</style></svg>
