<svg xmlns="http://www.w3.org/2000/svg" viewBox="0 0 19.81 11.52"><defs><linearGradient id="b" x1="4.68" x2="4.66" y1="4.03" y2="-1.69" gradientUnits="userSpaceOnUse"><stop offset="0" stop-color="#16d"/><stop offset="1" stop-color="#8bb5ee" stop-opacity="0"/></linearGradient><linearGradient id="a" x1="14.22" x2="14.22" y1="4.13" y2="-1.03" gradientUnits="userSpaceOnUse"><stop offset="0" stop-color="#c90"/><stop offset="1" stop-color="#c90" stop-opacity="0"/></linearGradient></defs><path fill="url(#a)" d="M12.86 10.14h4.96l-3.04-8.27q-.04-.12-.21-.21-.18-.1-.35-.1-.2 0-.36.1-.15.09-.2.2l-3.45 9.66H8.62l3.7-10.24q.08-.25.24-.47.15-.24.38-.41.24-.19.55-.3.32-.1.73-.1.4 0 .72.1.3.11.53.3.24.17.4.41.15.22.25.47l3.7 10.24h-6.96zm0-.42v-.45l-.77 2.25h-1.45l3.3-9.36q.02-.07.1-.12.1-.06.18-.06.08 0 .18.06.1.05.12.12l2.72 7.56zm1.36-4.36-.96 2.96h1.95Z"/><path fill="url(#b)" d="M0 2h4.67q.76 0 1.25.45.5.45.5 1.35 0 .4-.13.73-.14.33-.37.58-.23.24-.55.38-.33.14-.7.14h-.39l3.4 5.89h-1.7L3.6 7.49v4.03H2.02v-7.5h2.6q.09 0 .14-.07.06-.08.06-.16t-.06-.14q-.05-.07-.15-.07H1.6v7.94H0Zm5.04 4.02q.35-.02.67-.2.34-.17.59-.47.25-.29.4-.68.16-.4.16-.87 0-.48-.16-.89-.15-.4-.44-.7-.28-.3-.69-.46-.4-.17-.9-.17H0V0h4.67q.8 0 1.49.3.69.29 1.2.8.52.52.8 1.21.3.7.3 1.5 0 1-.35 1.74-.34.73-.94 1.18l2.73 4.79H8.27Z"/></svg>