<svg xmlns="http://www.w3.org/2000/svg" viewBox="0 0 341.333 341.333"><path d="M0 170.667V0h341.333v341.333H0z" fill="#f1545b"/><path d="m92.333 143.097-5.666-.584v-42.392l4.785-.898c7.696-1.444 22.51.15 28.033 3.016 8.167 4.238 10.515 8.503 10.515 19.094 0 10.509-2.48 15.167-10.086 18.939-4.88 2.42-18.236 3.788-27.58 2.825zm-8.666 73.396c2.974-.797 3-1.017 3-25.49v-24.685l5 .826c2.75.455 8.112.833 11.916.841l6.917.015 12.879 22.61c7.083 12.436 13.813 23.386 14.955 24.334 2.242 1.86 28.642 2.524 30.402.764.527-.527-6.023-12.674-14.555-26.993-8.533-14.32-15.51-26.488-15.505-27.042.005-.553 2.082-2.418 4.615-4.143 11.495-7.828 18.41-28.264 15.508-45.835-4.018-24.33-18.653-35.057-51.466-37.722-9.935-.807-38.876 1.001-45.666 2.853l-3 .818v137.109l3 1.205c3.444 1.385 17.55 1.728 22 .535z" fill="#fff"/><path d="M130.294 285.306c7.032-4.51 7.074-13.86.087-19.062-3.547-2.64-3.87-2.65-16.077-.47-25.005 4.467-35.637 2.18-35.637-7.664 0-2.59 1.027-5.293 2.527-6.65 7.747-7.012 49.744-4.796 115.473 6.09 32.502 5.383 50.894 5.732 62.666 1.188 10.477-4.044 19.623-13.182 21.785-21.767 1.984-7.882 1.884-24.536-.214-35.638-1.512-7.998-1.892-8.649-4.938-8.438-30.72 2.128-34.812 2.119-42.96-.097-12.2-3.318-19.843-9.441-25.091-20.102-3.752-7.621-4.409-10.528-4.958-21.937-.902-18.731 2.493-29.716 12.179-39.402 9.34-9.34 17.073-11.987 34.864-11.931 10.311.032 15.112.697 21.18 2.936l7.846 2.896-.688-8.568c-1.402-17.471-8.845-22.347-34.338-22.496-35.797-.209-60.24 17.94-68.876 51.14-2.777 10.675-3.102 35.003-.605 45.333 4.866 20.133 16.276 35.123 32.522 42.725 10.635 4.977 19.456 6.608 35.732 6.608 11.8 0 13.268.275 15.05 2.82 2.25 3.21 1.66 5.805-2.355 10.356-7.974 9.04-23.751 10.32-58.801 4.775-44.266-7.005-93.008-10.979-107.828-8.792-20.329 3-29.184 11.292-29.377 27.508-.175 14.676 8.486 24.478 25.871 29.28 9.582 2.648 40.522 2.206 44.961-.64z" fill="#fff"/></svg>
