<svg xmlns="http://www.w3.org/2000/svg" viewBox="0 0 306.5 356.4"><path fill="#fff" d="M298.8 298.6a32 32 0 0 1-14.6 41.1c-8.3 4.4-17.8 8.4-27.3 10.6a238.8 238.8 0 0 1-47.7 6c-25.8 0-51.6-14.1-62.7-31.3a53.5 53.5 0 0 1-31.4 23.4 158 158 0 0 1-54.3 7.9A60 60 0 0 1 .7 288c10.5-68.7 27.9-144.3 33.7-211.4.5-6 .9-12.1 1-18.2 0-5.7-.6-11.4-.5-17.1 0-5.4 1-10.9 3.6-15.6A36.6 36.6 0 0 1 58.9 9.2c9-3 18.6-4.1 28-5.1C100.4 2.6 114 1.4 127.7.6c8-.4 15.9-.6 23.8-.6 20.3 0 40.8.3 60.8 4.3 20.4 4 41 11.7 57 25.2 11 9.2 19.8 20.9 26.3 33.7a128.8 128.8 0 0 1 7.6 80.9c-3 11.7-8 22.8-14.7 32.8-8.3 12-18.4 22.7-30 31.6 7.6 21.2 27.4 62.6 40.3 90z"/><path d="M136.5 36.2c-12 .3-24 1.2-36 2.6-2.6.4-29.8 2.6-29.6 4.7h-.1c1 16 .5 31.9-1.7 47.7l-3.6 26.6c-7.3 52.4-16 104-24.6 152.5-2.2 12.1-7 27.7-.4 39.2 5.9 10.3 21 11.6 31.5 10.5 38.3-3.7 44.4-11.9 44.4-11.9-7.7-8-1-45 6.7-94.8h27.2l28.5 82.6s8.4 25.6 31.7 24.4c30-1.6 52-8.1 55-11.8-9.1-4.9-35.4-68-49.8-114.4 7-4 13.7-8.4 20-13.4 8.8-6.7 16.6-14.7 23-23.8a68.8 68.8 0 0 0 11.6-34c1.3-14.7-1-29.5-6.6-43.2-5.8-12-15-22-26.4-28.7-19.7-11.1-42.5-13.3-64.6-14.4a397 397 0 0 0-36.2-.4zm17.9 39c24.3.1 48.6 8.5 42.2 48.9-9 55.4-49.5 48.6-67.3 49 6.6-40.6 10.3-66.7 14.8-97.6 3.3-.2 6.8-.4 10.3-.3z"/></svg>