<svg width="79" height="139" viewBox="0 0 79 139" fill="none" xmlns="http://www.w3.org/2000/svg">
<path d="M70.8616 120.044C70.8616 120.044 44.8191 90.5928 37.4947 72.5088C31.7075 58.3002 28.5426 42.8859 28.3618 26.8687C-10.521 64.5866 -9.52635 71.5618 31.9788 111.174C77.3723 154.317 88.856 137.094 70.8616 120.044Z" fill="#F7C20F"/>
<path d="M79 6.88819C79 -1.29261 61.1862 -1.72317 45.9043 10.3328C43.0107 12.5717 35.7767 19.633 35.7767 19.633C35.6863 21.5276 35.5958 23.5082 35.5958 25.4026C35.5958 38.0614 37.5852 50.2897 41.383 61.8287C48.0744 45.8117 58.0212 31.4306 70.4998 19.3747C76.8299 13.3467 79 11.1939 79 6.88819Z" fill="#F7C20F"/>
</svg>
