<svg xmlns="http://www.w3.org/2000/svg" xmlns:xlink="http://www.w3.org/1999/xlink" width="58.626" height="58.626" viewBox="0 0 15.511 15.511"><defs><radialGradient fx="0" fy="0" cx="0" cy="0" r="1" gradientTransform="matrix(47.01656 0 0 -47.01656 442.06 772.76)" spreadMethod="pad" id="A" xlink:href="#G"><stop offset="0" stop-color="#c1dc2e"/><stop offset=".191" stop-color="#c1dc2e"/><stop offset=".77" stop-color="#4a881e"/></radialGradient><radialGradient fx="0" fy="0" cx="0" cy="0" r="1" gradientTransform="matrix(47.01715 0 0 -47.01715 453.986 772.768)" spreadMethod="pad" id="B" xlink:href="#G"><stop offset="0" stop-color="#dfe9f7"/><stop offset=".885" stop-color="#1477c6"/></radialGradient><radialGradient fx="0" fy="0" cx="0" cy="0" r="1" gradientTransform="matrix(47.01656 0 0 -47.01656 454.005 772.749)" spreadMethod="pad" id="C" xlink:href="#G"><stop offset="0" stop-color="#fff"/><stop offset=".382" stop-color="#b2caec"/><stop offset=".8" stop-color="#1477c6"/></radialGradient><radialGradient fx="0" fy="0" cx="0" cy="0" r="1" gradientTransform="matrix(47.01656 0 0 -47.01656 466.062 772.768)" spreadMethod="pad" id="D" xlink:href="#G"><stop offset="0" stop-color="#fff200"/><stop offset=".135" stop-color="#fff200"/><stop offset=".5" stop-color="#fbc508"/><stop offset=".95" stop-color="#f46b17"/></radialGradient><radialGradient fx="0" fy="0" cx="0" cy="0" r="1" gradientTransform="matrix(47.01836 0 0 -47.01836 466.06 772.767)" spreadMethod="pad" id="E" xlink:href="#G"><stop offset="0" stop-color="#fff200"/><stop offset=".45" stop-color="#fab40a"/><stop offset=".85" stop-color="#f46b17"/></radialGradient><linearGradient x1="0" y1="0" x2="1" y2="0" gradientTransform="scale(29.9243 -29.9243) rotate(56.913 30.909 1.197)" spreadMethod="pad" id="F" xlink:href="#G"><stop offset="0" stop-color="#bed30f"/><stop offset=".034" stop-color="#bed30f"/><stop offset=".8" stop-color="#4a881e"/></linearGradient><linearGradient id="G" gradientUnits="userSpaceOnUse"/></defs><g transform="matrix(.35278 0 0 -.35278 -157.657 272.045)"><path d="M463.404 767.403c-.979-12.399-16.288-11.555-16.5-23.364-.032-1.726.699-4.131 2.648-6.078a9.03 9.03 0 012.228-1.62c-.515-2.635-.709-5.654-.349-9.158l1.863.1c-.683 3.23-.748 6.06-.419 8.569 7.811-2.918 20.013 3.806 10.529 31.551" fill="url(#F)"/><path d="M453.544 742.05c-1.261 1.993-2.575 5.871-2.506 8.565l.002.001c.54-2.313 1.777-5.406 2.984-7.5.955 2.003 2.084 3.785 3.229 5.521-1.278 1.923-1.605 5.083-1.584 5.703 0 .01.013.01.021.016.336-1.097.971-2.976 2.142-4.844 1.083 1.636 2.145 3.242 3.036 4.97-.575 1.179-.954 3.024-.915 3.622h.002c.243-.814.907-1.877 1.44-2.536 1.178 2.328 1.771 4.258 2.031 5.492.29 1.917.317 4.004-.022 6.343-.979-12.399-16.288-11.555-16.5-23.364-.032-1.726.699-4.131 2.648-6.078a9.03 9.03 0 012.228-1.62 28.033 28.033 0 001.764 5.709" fill="url(#A)"/><path d="M475.339 767.403c-.978-12.399-16.286-11.555-16.498-23.364-.03-1.726.699-4.131 2.647-6.078 6.648-6.649 24.862-2.766 13.851 29.442" fill="url(#B)"/><path d="M458.841 744.039c-.03-1.726.699-4.131 2.647-6.078.232-.231.479-.449.736-.654 3.364 2.738 5.59 8.364 4.23 17.945-3.851-2.73-7.511-5.482-7.613-11.213" fill="url(#C)"/><path d="M487.413 767.403c-.979-12.399-16.287-11.555-16.497-23.364-.032-1.726.699-4.131 2.647-6.078 6.647-6.649 24.863-2.766 13.85 29.442" fill="url(#D)"/><path d="M470.916 744.039c-.032-1.726.699-4.131 2.647-6.078l.665-.601c3.318 2.752 5.502 8.339 4.176 17.806-3.804-2.705-7.388-5.457-7.488-11.127" fill="url(#E)"/></g></svg>
