<svg xmlns="http://www.w3.org/2000/svg" fill="none" viewBox="0 0 65.1 60"><path fill="#5070e6" d="M65 21.7 56 0 34.4 11.4l3.3 6.2L48 12l-4.6 13.6a94 94 0 0 1-3.2 8 42.3 42.3 0 0 1-3 5.7c-1.7 2-2.3.1-2.3.1a23.5 23.5 0 0 1-.2-1c-1.7-6.2-4.7-14.7-10.9-15-7-.4-11.5 9.5-15.7 19.7l-1 2.4c-3 6.2-5.5 8-5.5 8s-2.9 2-1 4.8c2 2.8 4.7 1.1 4.7 1.1.7-.4 4.2-2.8 8-10.8l1.3-2.9c1-2.7 2.7-6.7 4.6-10.1l2.2-3.5c.3-.2 2-2.1 3.7.4.8 1.5 1.8 3.9 2.8 7.8.6 2 2.2 8.2 7.3 8.3h.2c3.7 0 7-3.4 10.6-11.1 2.3-4.8 3.9-9.5 4-9.7l4.5-13.4 4.2 10z"/></svg>