<svg xmlns="http://www.w3.org/2000/svg" viewBox="0 0 751.52 643.95"><path d="M.003 350.06c0-78.006 58.349-125.46 115.3-157.32 63.772-35.665 139.09-56.536 210.34-66.27 74.798-10.21 155.1-9.251 224.29 1.602 44.753 7.028 83.57 15.671 126.36 33.538 25.05 10.453 56.639 28.907 69.925 56.073 4.239 8.692 4.845 14.098 5.245 20.325l.055 22.43s-.07 26.546-.042 47.326c0 8.678-2.53 15.582-4.348 20.746 0 0 2.626-33.739-11.784-51.088-17.731-21.32-35.456-33.532-58.86-46.98-36.143-20.767-85.561-32.11-128.82-39.38-74.474-12.517-146.67-13.531-221.29-3.21-70.945 9.796-145.08 33.318-209.58 70.288-57.88 33.165-117.53 89.294-111.27 165.1 0 0-2.066-7.035-4.292-26.082-1.344-11.385-1.227-26.85-1.227-47.105" fill="#2a36b1"/><path d="M375.5 582.6c-181.33 0-332.61-83.66-368.04-194.94-3.467-10.915-6.271-26.214-7.457-37.605v23.397c0 15.534 1.675 29.914 4.459 45.2 24.547 134.12 184.23 225.29 371.04 225.29v-61.348" fill="#2a36b1"/><path d="M.003 312.02c0 78 58.349 125.46 115.3 157.3 63.772 35.659 139.09 56.543 210.34 66.263 74.798 10.211 155.1 9.258 224.29-1.601 44.753-7.015 83.57-15.665 126.36-33.518 25.05-10.467 56.639-28.907 69.925-56.073 4.239-8.685 4.845-14.091 5.245-20.332l.054-22.424s-.07-26.552-.042-47.325c0-8.685-2.53-15.59-4.348-20.746 0 0 2.626 33.746-11.784 51.081-17.731 21.326-35.456 33.539-58.86 46.98-36.143 20.774-85.561 32.103-128.82 39.366-74.474 12.53-146.67 13.545-221.29 3.224-70.945-9.81-145.08-33.318-209.58-70.28-57.878-33.168-117.53-89.289-111.27-165.12 0 0-2.066 7.056-4.292 26.097C-.113 276.29.004 291.754.004 312.024" fill="#2cd9aa"/><path d="M375.5 221.82c207.66 0 375.98 54.526 375.98 133.61 0 10.244.083 53.994 0 69.03-.82-19.15-9.689-30.618-11.611-33.607-41.39-61.962-188.83-107.78-364.36-107.78v-61.257" fill="#2cd9aa"/><path d="M751.48 237.62c-.82 19.15-9.69 30.611-11.612 33.614-41.39 61.934-188.83 107.76-364.36 107.76v-18.123l-96.533 48.762 96.533 48.734v-18.116c207.66 0 375.98-54.512 375.98-133.6 0-10.26.083-54.002 0-69.039" fill="#2c3bae"/><path d="M472.04 48.748 375.507 0v18.116c-186.81 0-346.49 91.178-371.04 225.29C1.683 258.705.008 273.078.008 288.619v23.404c1.186-11.405 3.99-26.683 7.457-37.605 35.428-111.3 186.71-194.96 368.04-194.96v18.04l96.533-48.755" fill="#2cd9aa"/></svg>