<svg xmlns="http://www.w3.org/2000/svg" width="150" height="150"><path d="M31.42 149.9c-.94-.06-1.17-.1-.8-.16.5-.08.49-.09-.15-.11A33.14 33.14 0 0 1 .42 119.58c-.02-.65-.02-.66-.12-.15-.25 1.35-.3-6.2-.3-44.39l.3-44.39c.1.5.1.5.12-.14A33.08 33.08 0 0 1 30.47.46c.65-.02.65-.02.15-.12C29.26.1 36.82.04 75 .04l44.4.3c-.51.1-.51.1.14.12a33.14 33.14 0 0 1 30.05 30.05c.02.64.02.65.11.14.26-1.35.3 6.2.3 44.39l-.3 44.39c-.1-.5-.1-.5-.11.14a33.14 33.14 0 0 1-30.05 30.05c-.65.02-.65.03-.15.12.35.06-.1.13-1.39.2-2.24.12-84.65.09-86.58-.04z" fill="#fe7900"/><path d="M120.74 137.04c6.48-1.5 11.59-5.42 14.44-11.1a23.2 23.2 0 0 0 1.83-5.24l.33-1.5V30.88l-.33-1.49a20.97 20.97 0 0 0-16.35-16.34l-1.49-.33H30.84l-1.5.33A20.97 20.97 0 0 0 13 29.38l-.33 1.5v88.33l.33 1.5c1.99 8.96 8.97 15.42 17.9 16.58.53.07 20.64.11 44.69.1l43.73-.02z" fill="#fff"/><path d="M33.91 117.1c-.16-.08-.46-.3-.66-.52l-.36-.4-.04-35.33c-.05-38.25-.07-36.91.72-39.47 1.48-4.8 5.22-7.7 10.83-8.38 1.01-.12 9.44-.15 31.56-.12 33.48.06 30.7-.02 33.52 1a11.38 11.38 0 0 1 6.96 7.5c.75 2.46.77 2.88.71 20.55l-.3 17.4a20.69 20.69 0 0 1-1.72 4.45 20.59 20.59 0 0 1-4.4 4.42c-.46.26-3.15 1.53-6 2.81s-5.31 2.48-5.5 2.65c-.78.74-.88.54 6.04 11.72l6.46 10.7c.06.3-.02.5-.3.77l-.38.38h-8.99c-10.1 0-9.83.03-11-1.08-.45-.41-2.72-3.85-7.11-10.75L77.07 94.5a16.07 16.07 0 0 1-1.54-5.06c-.18-1.27-.23-3-.23-7.45V76.2l.43-.43.42-.43h9.65c10.65 0 10.24.04 10.95-.92.3-.41.3-.56.34-10.68.04-10.01.04-10.28-.25-10.87-.59-1.21 1.42-1.11-21.86-1.11l-21.17.28a2.2 2.2 0 0 0-.66.63c-.16.27-.2 6.2-.27 31.94l-.07 31.6-.48.48-.48.48-8.82.03c-4.85.01-8.96-.03-9.12-.1z" fill="#0684bc"/></svg>
