<svg xmlns="http://www.w3.org/2000/svg" width="109.633" height="109.633" viewBox="0 0 29.007 29.007"><path d="M9.357 6.601a.987.987 0 01-1 .976c-.55 0-.999-.437-.999-.976a.99.99 0 011-.977c.551 0 .999.438.999.977" fill="#1f97d4"/><path d="M6.02 10.294a.544.544 0 01-.174.4.59.59 0 01-.43.17.61.61 0 01-.409-.17l-.02-.019a.171.171 0 00-.037-.029.11.11 0 01-.04-.028 2.33 2.33 0 00-1.5-.514c-.7 0-1.25.235-1.646.704-.396.47-.594 1.136-.594 2v6.194c0 .19-.062.333-.185.428a.648.648 0 01-.4.143.642.642 0 01-.399-.143C.063 19.335 0 19.193 0 19.002v-6.194c0-.534.073-1.032.216-1.495.143-.463.356-.87.642-1.218.285-.35.64-.627 1.062-.829.421-.203.918-.304 1.49-.304.401 0 .831.083 1.286.247.455.165.83.393 1.13.686.13.127.195.26.195.399M8.942 19.002c0 .19-.062.333-.184.43a.656.656 0 01-.4.142.654.654 0 01-.4-.143c-.123-.096-.185-.238-.185-.429v-9.28c0-.19.062-.332.185-.428a.652.652 0 01.4-.143c.142 0 .275.05.4.143.122.096.184.239.184.428zM19.072 19.002c0 .19-.062.333-.185.43a.648.648 0 01-.398.142.65.65 0 01-.4-.143c-.124-.096-.186-.238-.186-.429v-6.328c0-.355-.068-.689-.205-1a2.633 2.633 0 00-2.425-1.57 2.63 2.63 0 00-2.425 1.57 2.458 2.458 0 00-.204 1v6.328c0 .19-.062.333-.185.43a.653.653 0 01-.4.142.652.652 0 01-.4-.143c-.122-.096-.185-.238-.185-.429v-6.328c0-.507.1-.99.303-1.446.2-.458.47-.852.809-1.183a3.859 3.859 0 014.168-.788c.468.196.87.46 1.209.788.336.331.606.725.807 1.183.201.456.302.939.302 1.446zM23.007 21.344c.292.4.678.593 1.062.713.383.122.762.182 1.139.182a2.628 2.628 0 002.425-1.572c.138-.311.205-.643.205-1v-1.313a3.806 3.806 0 01-1.189.753 3.81 3.81 0 01-1.441.274 3.729 3.729 0 01-1.49-.294 3.744 3.744 0 01-2.007-1.96 3.537 3.537 0 01-.302-1.457v-2.996c0-.507.101-.99.302-1.446.2-.458.47-.851.809-1.182a3.845 3.845 0 011.198-.789 3.73 3.73 0 011.49-.296c.519 0 1.013.099 1.481.296.466.196.869.46 1.207.789.337.33.607.724.81 1.182.2.456.301.94.301 1.446v6.994c0 .521-.101 1.007-.302 1.457a3.79 3.79 0 01-.81 1.171 3.87 3.87 0 01-1.206.79 3.792 3.792 0 01-1.481.297c-.273 0-.558-.03-.858-.087a5.067 5.067 0 01-.886-.257 3.893 3.893 0 01-.817-.438 2.425 2.425 0 01-.615-.609.534.534 0 01-.096-.326c0-.164.06-.302.183-.408a.623.623 0 01.664-.115c.084.032.158.1.224.2m4.831-8.669c0-.356-.067-.689-.205-1a2.57 2.57 0 00-.565-.819 2.659 2.659 0 00-.837-.552 2.646 2.646 0 00-1.023-.199 2.64 2.64 0 00-1.86.751 2.57 2.57 0 00-.565.82c-.136.31-.205.643-.205 1v2.995c0 .355.069.688.205 1 .135.312.325.584.565.819.24.234.518.419.837.553.318.131.659.198 1.023.198.363 0 .705-.067 1.023-.198.318-.134.597-.319.837-.553.24-.235.43-.507.565-.82.138-.31.205-.644.205-1z" fill="#686868"/></svg>