<svg xmlns="http://www.w3.org/2000/svg" width="99.485" height="99.485" viewBox="0 0 26.322 26.322"><defs><linearGradient x1="0" y1="0" x2="1" y2="0" gradientUnits="userSpaceOnUse" gradientTransform="scale(76.81905 -76.81905) rotate(-45 -6.405 -5.95)" spreadMethod="pad" id="b"><stop offset="0" stop-color="#263068"/><stop offset=".241" stop-color="#263068"/><stop offset=".485" stop-color="#f1621a"/><stop offset="1" stop-color="#a9a8a8"/></linearGradient><clipPath clipPathUnits="userSpaceOnUse" id="a"><path d="M234.116 526.875l-18.77-10.836V495.514l-17.319-9.999V463.01l18.619-10.749 17.754 10.25 17.754-10.25 19.054 11.001v22.002l-17.755 10.25v20.524l-18.77 10.837zm-16.169-12.338l16.453 9.5 16.453-9.5v-17.498l-16.453 9.5-16.453-9.5zm1.3-19.749l15.153 8.748 15.153-8.748-15.153-8.748zm17.733-30.763l16.473 9.512v18.974l15.154-8.748v-18.999l-16.453-9.5zm-1.28 19.738l15.153 8.748v-17.473L235.7 466.29zm-17.753-8.725v17.473l15.153-8.748V466.29zm-17.754-10.274v18.999l15.153 8.748v-18.974l16.474-9.512-15.174-8.761z"/></clipPath></defs><g clip-path="url(#a)" transform="matrix(.35278 0 0 -.35278 -69.607 185.87)"><path d="M234.116 526.875l-18.77-10.836V495.514l-17.319-9.999V463.01l18.619-10.749 17.754 10.25 17.754-10.25 19.054 11.001v22.002l-17.755 10.25v20.524l-18.77 10.837zm-16.169-12.338l16.453 9.5 16.453-9.5v-17.498l-16.453 9.5-16.453-9.5zm1.3-19.749l15.153 8.748 15.153-8.748-15.153-8.748zm17.733-30.763l16.473 9.512v18.974l15.154-8.748v-18.999l-16.453-9.5zm-1.28 19.738l15.153 8.748v-17.473L235.7 466.29zm-17.753-8.725v17.473l15.153-8.748V466.29zm-17.754-10.274v18.999l15.153 8.748v-18.974l16.474-9.512-15.174-8.761z" fill="url(#b)"/></g></svg>