<svg xmlns="http://www.w3.org/2000/svg" width="31.765" height="31.765" viewBox="0 0 8.405 8.405"><defs><radialGradient fx="0" fy="0" cx="0" cy="0" r="1" gradientUnits="userSpaceOnUse" gradientTransform="matrix(17.3352 0 0 -17.33591 456.654 205.25)" spreadMethod="pad" id="b"><stop offset="0" stop-color="#fde5dc"/><stop offset=".249" stop-color="#e31b22"/><stop offset=".424" stop-color="#e31b22"/><stop offset="1" stop-color="#ba151b"/></radialGradient><radialGradient fx="0" fy="0" cx="0" cy="0" r="1" gradientUnits="userSpaceOnUse" gradientTransform="matrix(34.57712 0 0 -42.10396 456.272 204.684)" spreadMethod="pad" id="d"><stop offset="0" stop-color="#fde5dc"/><stop offset=".6" stop-color="#e31b22"/><stop offset="1" stop-color="#ba151b"/></radialGradient><clipPath id="a"><path d="M441.418 196.102c0-6.58 5.332-11.913 11.911-11.913s11.912 5.333 11.912 11.913-5.332 11.911-11.912 11.911-11.911-5.333-11.911-11.911"/></clipPath><clipPath id="c"><path d="M448.147 206.832c1.976.429 4.253.292 6.674-1.079-3.934 1.192-7.243.561-9.698-1.016a11.87 11.87 0 01-3.193-5.187c2.087 4.302 6.675 7.164 12.763 5.787-8.561.274-12.359-5.574-13.141-11 .284-1.892.984-3.6 2.049-5.117-1.903 6.091 1.004 15.19 11.206 15.697-10.958-2.232-11.869-13.789-8.491-18.449a11.95 11.95 0 013.303-1.685c-4.939 3.398-4.534 16.835 5.493 19.829-8.915-4.258-8.635-17.599-2.947-20.368.373-.033.748-.053 1.13-.053.736 0 1.452.045 2.168.195-5.921 2.035-8.507 15.796.777 20.292l.298-.241c1.221-.891 3.521-3.332 3.639-3.259.102.065-2.04 2.303-2.91 3.154 1.143-.507 3.445-1.804 3.542-1.707.073.072-2.276 1.473-3.491 2.111 1.249-.201 3.537-.693 3.552-.612.024.116-2.094.628-3.496.911.061.027 2.706.182 2.685.27.013.097-1.895.032-2.693-.005.304.107 1.639.557 1.629.683-.01.114-2.256-.648-2.559-.688-2.017 1.671-3.943 2.326-5.662 2.448a11.938 11.938 0 01-2.627-.911"/></clipPath></defs><g clip-path="url(#a)" transform="matrix(.35278 0 0 -.35278 -155.722 73.382)"><path d="M441.418 196.102c0-6.58 5.332-11.913 11.911-11.913s11.912 5.333 11.912 11.913-5.332 11.911-11.912 11.911-11.911-5.333-11.911-11.911" fill="url(#b)"/></g><g clip-path="url(#c)" transform="matrix(.35278 0 0 -.35278 -155.722 73.382)"><path d="M448.147 206.832c1.976.429 4.253.292 6.674-1.079-3.934 1.192-7.243.561-9.698-1.016a11.87 11.87 0 01-3.193-5.187c2.087 4.302 6.675 7.164 12.763 5.787-8.561.274-12.359-5.574-13.141-11 .284-1.892.984-3.6 2.049-5.117-1.903 6.091 1.004 15.19 11.206 15.697-10.958-2.232-11.869-13.789-8.491-18.449a11.95 11.95 0 013.303-1.685c-4.939 3.398-4.534 16.835 5.493 19.829-8.915-4.258-8.635-17.599-2.947-20.368.373-.033.748-.053 1.13-.053.736 0 1.452.045 2.168.195-5.921 2.035-8.507 15.796.777 20.292l.298-.241c1.221-.891 3.521-3.332 3.639-3.259.102.065-2.04 2.303-2.91 3.154 1.143-.507 3.445-1.804 3.542-1.707.073.072-2.276 1.473-3.491 2.111 1.249-.201 3.537-.693 3.552-.612.024.116-2.094.628-3.496.911.061.027 2.706.182 2.685.27.013.097-1.895.032-2.693-.005.304.107 1.639.557 1.629.683-.01.114-2.256-.648-2.559-.688-2.017 1.671-3.943 2.326-5.662 2.448a11.938 11.938 0 01-2.627-.911" fill="url(#d)"/></g></svg>