<svg xmlns="http://www.w3.org/2000/svg" fill="#151515" viewBox="0 0 24.08 23.35"><path d="M24.03 10.77c-1.36-1.4-8.73-9-10.11-10.1-.48-.39-1.1-.67-1.88-.67s-1.4.28-1.88.67C8.78 1.77 1.41 9.37.05 10.77c-.11.13-.01.33.16.33h3.21c.33 0 .43-.06.64-.28l1.26-1.35a99 99 0 0 1 5.77-5.61c.45-.37.95-.36.96-.36s.51-.01.96.36c1.19 1 4.44 4.17 5.77 5.61l1.26 1.35c.21.23.31.28.64.28h3.21c.17 0 .27-.2.16-.33m-24 1.81c1.36 1.4 8.73 9 10.11 10.1.48.39 1.1.67 1.88.67s1.4-.28 1.88-.67c1.38-1.1 8.75-8.7 10.11-10.1.11-.13.01-.33-.16-.33h-3.21c-.33 0-.43.06-.64.28l-1.26 1.35a99 99 0 0 1-5.77 5.61c-.45.38-.95.36-.96.36 0 0-.51.01-.96-.36-1.19-1-4.44-4.17-5.77-5.61l-1.26-1.35c-.21-.23-.31-.28-.64-.28H.19c-.16 0-.27.2-.15.33m11.11 1.61-2.08-2.06c-.18-.21-.17-.46-.17-.46s-.01-.26.17-.46a34 34 0 0 1 2.08-2.06c.25-.23.31-.38.31-.66V5.33c0-.13-.15-.21-.26-.1l-5.38 5.4c-.48.51-.44 1.04-.44 1.04s-.04.52.44 1.04c1.01 1.16 4.03 4.15 5.38 5.4.12.11.26.04.26-.11v-3.15c0-.29-.06-.43-.31-.66m1.78 0 2.08-2.06c.18-.21.17-.46.17-.46s.01-.26-.17-.46a34 34 0 0 0-2.08-2.06c-.25-.23-.31-.38-.31-.66V5.34c0-.15.14-.22.26-.11l5.38 5.4c.48.51.44 1.04.44 1.04s.04.52-.44 1.04a109 109 0 0 1-5.38 5.4c-.12.11-.26.04-.26-.11v-3.15c0-.29.06-.43.31-.66"/></svg>