<?xml version="1.0" encoding="utf-8"?>
<!-- Generator: Adobe Illustrator 25.4.1, SVG Export Plug-In . SVG Version: 6.00 Build 0)  -->
<svg version="1.1" baseProfile="tiny" id="Layer_1" xmlns="http://www.w3.org/2000/svg" xmlns:xlink="http://www.w3.org/1999/xlink"
	 x="0px" y="0px" viewBox="0 0 160 56" overflow="visible" xml:space="preserve">
<path fill="#000053" d="M127.3,4h4.2V2.4h-14.6V4h4.2v29.5h-4.2V35h14.6v-1.5h-4.2L127.3,4L127.3,4z M153.9,35v-1.5h-4.5V3.7
	c6.9-0.3,8,1.1,8.9,7.3h1.5l-0.5-8.6h-26.1l-0.5,8.6h1.5c0.9-6.2,2-7.7,8.9-7.3v29.8h-4.5V35L153.9,35 M55.8,16.4V3.9H60
	c4.3,0,5.9,1.1,5.9,6.6c0,4.4-1.8,5.9-6.2,5.9L55.8,16.4 M114.1,3.9V2.4h-12L95,24.7L88.2,2.4h-12v1.5h4.2v29.5l-4.5,0
	c-4.2,0.1-4.3-3.5-4.3-4.2c0.1-7.9-1.7-10.8-9.3-12v-0.1c4.5-0.5,10.3-1.8,10.3-7.3c0-6.8-6.3-7.4-11.6-7.4H45.3v1.5h4.2v29.5h-4.2
	V35H60v-1.5h-4.2V17.9c2.7-0.1,5.7,0.6,7.1,1.8c1.3,1.1,2,4.4,2,8.4c0,5,2.6,6.9,7.5,6.9h14.1v-1.5h-4.1v-29h0.1l9.7,30.5h1.6
	l9.7-30.5h0.2v29h-4.2v1.5h14.6v-1.5h-4.2V3.9L114.1,3.9L114.1,3.9z"/>
<path fill="#DC291E" d="M19.1,0.5h-4.9v3.9H6.1v8.2H0v12.2h6.2v8h8v4.1h4.3c10,0,18.8-8.1,18.8-18.2C37.3,8.7,29.1,0.5,19.1,0.5"/>
<path fill="#000053" d="M49.5,44.7c0-0.3-0.1-0.4-0.4-0.4h-0.8v-1.6h1.8c0.8,0,1.2,0.3,1.2,1.2v7.1c0,1.9,1.2,3.1,3.1,3.1
	s3.1-1.2,3.1-3.1v-7.1c0-0.8,0.4-1.2,1.2-1.2h1.8v1.6h-0.8c-0.3,0-0.4,0.1-0.4,0.4v6.4c0,2.8-2,4.7-4.9,4.7c-3,0-4.9-1.9-4.9-4.7
	L49.5,44.7L49.5,44.7z M61.8,54.1h0.8c0.3,0,0.4-0.1,0.4-0.4V42.8h1.7l5.7,8.2c0.5,0.7,1.1,1.8,1.1,1.8h0c0,0-0.1-1-0.1-1.8v-7
	c0-0.8,0.3-1.2,1.2-1.2h1.8v1.6h-0.8c-0.3,0-0.4,0.1-0.4,0.4v10.9h-1.6l-5.8-8.2c-0.5-0.7-1.1-1.8-1.1-1.8h0c0,0,0.1,1,0.1,1.8v7
	c0,0.8-0.3,1.2-1.2,1.2h-1.8V54.1L61.8,54.1z M76,54.1h1.3v-9.8H76v-1.6h4.3v1.6H79v9.8h1.3v1.6H76V54.1L76,54.1z M82.2,44.7
	c-0.1-0.3-0.3-0.4-0.6-0.4h-0.3v-1.6h1c0.9,0,1.2,0.2,1.5,1.1l2.8,7.9c0.2,0.7,0.5,1.8,0.5,1.8h0c0,0,0.2-1.1,0.5-1.8l2.8-7.9
	c0.3-0.9,0.6-1.1,1.5-1.1h1v1.6h-0.3c-0.3,0-0.5,0.1-0.6,0.4l-4.1,10.9h-1.9L82.2,44.7L82.2,44.7z M95.4,44.3h-1.2v-1.6h7.6
	c0.8,0,1.2,0.3,1.2,1.2v1.6h-1.7v-0.8c0-0.3-0.1-0.4-0.4-0.4h-3.7v4h4.5v1.6h-4.5v3.7c0,0.3,0.1,0.4,0.4,0.4h3.8
	c0.3,0,0.4-0.1,0.4-0.4v-0.8h1.7v1.6c0,0.8-0.3,1.2-1.2,1.2h-5.7c-0.8,0-1.2-0.3-1.2-1.2L95.4,44.3L95.4,44.3z M105.9,44.3h-1.2
	v-1.6h5.6c2.3,0,3.9,1.4,3.9,3.8c0,2.2-1.4,3.2-2.3,3.4v0c0,0,0.3,0.2,0.5,0.6l1.6,3.1c0.2,0.4,0.5,0.4,0.9,0.4h0.2v1.6h-0.9
	c-1,0-1.4-0.1-1.8-1l-1.8-3.5c-0.3-0.6-0.6-0.7-1.3-0.7h-1.7v5.1h-1.8L105.9,44.3L105.9,44.3L105.9,44.3z M110.1,48.9
	c1.4,0,2.2-0.9,2.2-2.3c0-1.4-0.8-2.3-2.2-2.3h-2.4v4.6H110.1L110.1,48.9z M117.2,52.6c0,0,1.3,1.5,3.2,1.5c1.2,0,2.2-0.7,2.2-1.9
	c0-2.7-6.2-2.3-6.2-6.3c0-1.9,1.7-3.5,4.1-3.5c1.4,0,3.7,0.6,3.7,2.4V46h-1.7v-0.6c0-0.7-1-1.2-2-1.2c-1.4,0-2.3,0.8-2.3,1.7
	c0,2.6,6.2,2,6.2,6.3c0,2-1.5,3.7-4.1,3.7c-2.7,0-4.3-1.9-4.3-1.9L117.2,52.6L117.2,52.6z M126.1,54.1h1.3v-9.8h-1.3v-1.6h4.3v1.6
	h-1.3v9.8h1.3v1.6h-4.3L126.1,54.1L126.1,54.1z M136.2,44.3h-2.6c-0.3,0-0.4,0.1-0.4,0.4v0.8h-1.6v-1.7c0-0.8,0.3-1.1,1.1-1.1h8.9
	c0.8,0,1.1,0.3,1.1,1.1v1.7H141v-0.8c0-0.3-0.1-0.4-0.4-0.4H138v11.3h-1.8L136.2,44.3L136.2,44.3z M147.8,50l-3.3-5.2
	c-0.2-0.4-0.4-0.5-0.8-0.5h-0.4v-1.6h0.8c0.9,0,1.2,0.1,1.7,1l2,3.3c0.4,0.7,0.8,1.4,0.8,1.4h0c0,0,0.3-0.7,0.8-1.4l1.9-3.3
	c0.5-0.9,0.9-1,1.7-1h0.8v1.6h-0.3c-0.4,0-0.6,0.1-0.8,0.5l-3.2,5.2v5.6h-1.8L147.8,50L147.8,50z"/>
</svg>
