<svg xmlns="http://www.w3.org/2000/svg" xmlns:xlink="http://www.w3.org/1999/xlink" width="559.131" height="559.131" viewBox="0 0 147.937 147.937"><g transform="translate(198.637 .928)"><path d="M-65.43 41.611h13.42l-15.999 62.762h-13.42zM-181.328 41.611l-15.998 62.762h13.42l3.817-15.368 12.213-6.084 4.068 16.833c.997 2.31 2.35 4.332 5.83 4.619h11.759l3.258-12.784h-5.986c-2.685-.173-4.076-1.744-4.42-4.448l-2.453-10.269 13.78-6.994c1.456-1.145 2.812-1.51 4.684-5.879l4.077-15.992c1.435-5.11-2.356-6.35-5.177-6.396h-29.453zm10.03 12.904h18.985c5.45-.076 2.826 5.13.878 6.18l-24.547 12.2z" fill="#949599" stroke="#4c4d4f" stroke-width="2.037"/><path style="line-height:normal;font-variant-ligatures:normal;font-variant-position:normal;font-variant-caps:normal;font-variant-numeric:normal;font-variant-alternates:normal;font-variant-east-asian:normal;font-feature-settings:normal;font-variation-settings:normal;text-indent:0;text-align:start;text-decoration-line:none;text-decoration-style:solid;text-decoration-color:#000;text-transform:none;text-orientation:mixed;white-space:normal;shape-padding:0;shape-margin:0;inline-size:0;isolation:auto;mix-blend-mode:normal;solid-color:#000;solid-opacity:1" d="M-134.002 90.365l-3.866 15.165h2.665l3.866-15.165z" id="a" color="#000" font-style="normal" font-variant="normal" font-weight="400" font-stretch="normal" font-size="medium" font-family="sans-serif" text-decoration="none" letter-spacing="normal" word-spacing="normal" writing-mode="lr-tb" direction="ltr" dominant-baseline="auto" baseline-shift="baseline" text-anchor="start" clip-rule="nonzero" display="inline" overflow="visible" visibility="visible" opacity="1" color-interpolation="sRGB" color-interpolation-filters="linearRGB" vector-effect="none" fill="#f7941d" fill-opacity="1" fill-rule="nonzero" stroke="none" stroke-width="2.397" stroke-linecap="butt" stroke-linejoin="miter" stroke-miterlimit="4" stroke-dasharray="none" stroke-dashoffset="0" stroke-opacity="1" color-rendering="auto" image-rendering="auto" shape-rendering="auto" text-rendering="auto" stop-color="#000" stop-opacity="1"/><path style="line-height:normal;font-variant-ligatures:normal;font-variant-position:normal;font-variant-caps:normal;font-variant-numeric:normal;font-variant-alternates:normal;font-variant-east-asian:normal;font-feature-settings:normal;font-variation-settings:normal;text-indent:0;text-align:start;text-decoration-line:none;text-decoration-style:solid;text-decoration-color:#000;text-transform:none;text-orientation:mixed;white-space:normal;shape-padding:0;shape-margin:0;inline-size:0;isolation:auto;mix-blend-mode:normal;solid-color:#000;solid-opacity:1" d="M-128.81 90.365l-3.866 15.165h2.665l3.866-15.165z" id="b" color="#000" font-style="normal" font-variant="normal" font-weight="400" font-stretch="normal" font-size="medium" font-family="sans-serif" text-decoration="none" letter-spacing="normal" word-spacing="normal" writing-mode="lr-tb" direction="ltr" dominant-baseline="auto" baseline-shift="baseline" text-anchor="start" clip-rule="nonzero" display="inline" overflow="visible" visibility="visible" opacity="1" color-interpolation="sRGB" color-interpolation-filters="linearRGB" vector-effect="none" fill="#f7941d" fill-opacity="1" fill-rule="nonzero" stroke="none" stroke-width="2.397" stroke-linecap="butt" stroke-linejoin="miter" stroke-miterlimit="4" stroke-dasharray="none" stroke-dashoffset="0" stroke-opacity="1" color-rendering="auto" image-rendering="auto" shape-rendering="auto" text-rendering="auto" stop-color="#000" stop-opacity="1"/><path style="line-height:normal;font-variant-ligatures:normal;font-variant-position:normal;font-variant-caps:normal;font-variant-numeric:normal;font-variant-alternates:normal;font-variant-east-asian:normal;font-feature-settings:normal;font-variation-settings:normal;text-indent:0;text-align:start;text-decoration-line:none;text-decoration-style:solid;text-decoration-color:#000;text-transform:none;text-orientation:mixed;white-space:normal;shape-padding:0;shape-margin:0;inline-size:0;isolation:auto;mix-blend-mode:normal;solid-color:#000;solid-opacity:1" d="M-139.194 90.365l-3.866 15.165h2.665l3.866-15.165z" id="c" color="#000" font-style="normal" font-variant="normal" font-weight="400" font-stretch="normal" font-size="medium" font-family="sans-serif" text-decoration="none" letter-spacing="normal" word-spacing="normal" writing-mode="lr-tb" direction="ltr" dominant-baseline="auto" baseline-shift="baseline" text-anchor="start" clip-rule="nonzero" display="inline" overflow="visible" visibility="visible" opacity="1" color-interpolation="sRGB" color-interpolation-filters="linearRGB" vector-effect="none" fill="#f7941d" fill-opacity="1" fill-rule="nonzero" stroke="none" stroke-width="2.397" stroke-linecap="butt" stroke-linejoin="miter" stroke-miterlimit="4" stroke-dasharray="none" stroke-dashoffset="0" stroke-opacity="1" color-rendering="auto" image-rendering="auto" shape-rendering="auto" text-rendering="auto" stop-color="#000" stop-opacity="1"/><use xlink:href="#a" width="100%" height="100%" transform="translate(57.137 -49.815)"/><use xlink:href="#b" width="100%" height="100%" transform="translate(57.137 -49.815)"/><use xlink:href="#c" width="100%" height="100%" transform="translate(57.137 -49.815)"/><path d="M-119.472 41.611h33.434l-3.29 12.904h-23.761c-3.828 1.273-4.222 5.475-.127 7.722l22.555 14.842c1.99 1.577 5.074 2.569 4.625 8.467l-3.668 14.392c-1.146 3.159-3.461 4.329-6.402 4.435h-29.692l3.259-12.784h17.85c1.984-.211 3.685-.752 4.195-2.688.362-1.73.274-3.223-2.908-5.089l-24.605-16.36c-2.411-2.26-2.892-5-2.277-7.412l3.569-14.002c1.302-2.668 2.815-4.427 7.243-4.427z" fill="#949599" stroke="#4c4d4f" stroke-width="2.037"/></g></svg>