<svg xmlns="http://www.w3.org/2000/svg" height="27.534" viewBox="0 0 1099.276 891.986" width="27.534" class="css-7l14s4-RobinhoodLogotype"><path d="M483.562 758.78l-7.27 2.44c-47.01 15.62-116.52 39.67-178.92 68.35-3.34 1.57-5.54 5.95-5.54 5.95-1.16 2.67-2.6 5.98-4.24 9.72l-.24.48c-6.99 15.91-16.63 39.85-20.76 49.59l-3.21 7.67c-.5 1.22-.21 2.62.76 3.54.58.55 1.28.86 2.14.89.44 0 .95-.09 1.41-.33l7.54-3.58c17.07-8.12 38.69-20.44 61.35-31.21l.79-.37c43.09-20.44 91.74-43.52 121.04-57.48 0-.02 4.7-2.53 7.08-7.24l21.93-43.98c.58-1.15.4-2.54-.4-3.52-.89-.96-2.24-1.32-3.46-.92zM308.352 690.61c3.05-6.01 17.31-33.37 20.52-39.49l.58-1.05c95.18-179.55 211.18-348.89 344.71-503.33l3.69-4.26a4.33 4.33 0 00.52-4.8c-.88-1.56-2.63-2.41-4.33-2.18l-5.59.76c-87.64 12.07-176.31 28.79-263.67 49.67-8.66 2.42-14.26 8.07-15.48 9.38-65.38 78.3-127.3 160.73-184.1 245.18-2.84 4.27-3.15 14.47-3.15 14.47s14.31 109.97 35.15 191.01c-51.64 148.51-97.74 344.23-97.74 344.23a4.31 4.31 0 00.64 3.7c.78 1.07 2.02 1.69 3.36 1.73h29.38c1.86.03 3.5-1.08 4.15-2.79l2-5.5c30-81.83 64.23-162.65 102.03-241.38 8.8-18.34 27.33-55.35 27.33-55.35z"/><path d="M717.282 178.84l-.06-5.6c-.06-1.76-1.16-3.34-2.78-3.93-1.65-.62-3.54-.15-4.67 1.2l-3.66 4.24c-155.7 180.07-286.56 379.94-388.96 594.04l-2.38 5c-.78 1.58-.46 3.49.72 4.76.81.84 1.88 1.3 3.04 1.31.52.02 1.15-.09 1.68-.31l5.13-2.13c87.45-36.23 176.77-67.62 265.5-93.26 5.31-1.54 9.8-5.25 12.31-10.16 38.9-75.81 129.2-222.57 129.2-222.57 2.32-3.31 1.74-8.21 1.74-8.21s-15.83-175.55-16.81-264.38z"/><path d="M918.602-74.33c-22.11-19.17-54.17-28.18-104-29.25-45.19-.97-98.93 8.76-159.79 28.83-9.13 3.2-16.37 8.25-22.87 14.65a2936.15 2936.15 0 00-179 183.44l-4.38 4.85c-1.21 1.37-1.39 3.37-.5 4.95.92 1.6 2.78 2.42 4.58 2.02l6.38-1.35c91.73-19.61 184.34-34.6 275.18-44.54 5.98-.66 12.15 1.34 16.61 5.41 4.46 4.11 7.02 9.96 6.9 16.05-1.5 90.16 1.77 180.77 9.8 269.34l.52 5.78c.18 1.77 1.4 3.24 3.18 3.71.3.09.61.15 1.01.16 1.34.02 2.75-.63 3.57-1.81l3.33-4.75c51.18-73.03 106.9-144.02 165.47-211.16l-.03-.02c6.56-7.47 8.3-12.2 9.53-18.98 18.44-118.02-10.03-205.25-35.49-227.33z"/></svg>