<svg xmlns="http://www.w3.org/2000/svg" width="34" height="34"><defs><linearGradient id="a" x1="17" y1="34" x2="17" gradientUnits="userSpaceOnUse"><stop offset="0" stop-color="#259a16"/><stop offset=".234" stop-color="#5ecc56"/><stop offset=".279" stop-color="#46a83f"/><stop offset=".478" stop-color="#46a83f"/><stop offset=".873" stop-color="#53bb4c"/><stop offset="1" stop-color="#78ec6f"/></linearGradient><linearGradient id="b" x1="17" y1="16" x2="17" y2="8" gradientUnits="userSpaceOnUse"><stop offset="0" stop-color="#282a33"/><stop offset="1" stop-color="#4f5254"/></linearGradient></defs><path d="M4 0h26a4 4 0 0 1 4 4v16a4 4 0 0 1-4 4H4a4 4 0 0 1-4-4V4a4 4 0 0 1 4-4zm0 26h26a4 4 0 0 1 0 8H4a4 4 0 0 1 0-8z" fill="url(#a)" fill-rule="evenodd"/><rect x="3" y="3" width="28" height="18" rx="2.5" ry="2.5" fill="#eee"/><path data-name="Rectangle 2 copy" d="M5.5 3h23A2.5 2.5 0 0 1 31 5.5v13a2.5 2.5 0 0 1-2.5 2.5h-23A2.5 2.5 0 0 1 3 18.5v-13A2.5 2.5 0 0 1 5.5 3z" opacity=".1" fill="none" stroke="#000"/><path d="M11 8a4 4 0 1 1-4 4 4 4 0 0 1 4-4zm12 0a4 4 0 1 1-4 4 4 4 0 0 1 4-4z" fill="url(#b)" fill-rule="evenodd"/></svg>