<svg xmlns="http://www.w3.org/2000/svg" id="logo-ps" width="34" height="34" version="1.1"><defs id="defs36779"><linearGradient id="linear-gradient" x1="17" y1="34" x2="17" gradientUnits="userSpaceOnUse"><stop offset="0" stop-color="#259a16" id="stop36761"/><stop offset=".234" stop-color="#5ecc56" id="stop36763"/><stop offset=".279" stop-color="#46a83f" id="stop36765"/><stop offset=".478" stop-color="#46a83f" id="stop36767"/><stop offset=".873" stop-color="#53bb4c" id="stop36769"/><stop offset="1" stop-color="#78ec6f" id="stop36771"/></linearGradient><linearGradient id="linear-gradient-2" x1="17" y1="16" x2="17" y2="8" gradientUnits="userSpaceOnUse"><stop offset="0" stop-color="#282a33" id="stop36774"/><stop offset="1" stop-color="#4f5254" id="stop36776"/></linearGradient><style id="style36759"></style></defs><path d="M4 0h26a4 4 0 014 4v16a4 4 0 01-4 4H4a4 4 0 01-4-4V4a4 4 0 014-4zm0 26h26a4 4 0 010 8H4a4 4 0 010-8z" id="path36783" fill="url(#linear-gradient)" fill-rule="evenodd"/><rect x="3" y="3" width="28" height="18" rx="2.5" ry="2.5" id="rect36785" fill="#eee"/><path id="Rectangle_2_copy" data-name="Rectangle 2 copy" d="M5.5 3h23A2.5 2.5 0 0131 5.5v13a2.5 2.5 0 01-2.5 2.5h-23A2.5 2.5 0 013 18.5v-13A2.5 2.5 0 015.5 3z" opacity=".1" fill="none" fill-rule="evenodd" stroke="#000" stroke-width="1"/><path d="M11 8a4 4 0 11-4 4 4 4 0 014-4zm12 0a4 4 0 11-4 4 4 4 0 014-4z" id="path36788" fill="url(#linear-gradient-2)" fill-rule="evenodd"/></svg>