<svg xmlns="http://www.w3.org/2000/svg" viewBox="0 0 216.51 216.51"><path fill="#ea0029" d="M109.91.01C50.13-.9.93 46.81.01 106.59s46.8 108.98 106.58 109.9 108.98-46.79 109.9-106.57C217.42 50.14 169.7.94 109.92.01z"/><path fill="#fff" d="M165.41 162.96H51.09a6.7 6.7 0 0 1-6.71-6.68c0-1.8.72-3.52 2-4.78l2.05-2.02 83.82-82.83H62.42a.54.54 0 0 1-.54-.54c0-.14.06-.28.16-.38l12.23-12.15h74.08a6.7 6.7 0 0 1 4.71 11.45l-1.64 1.61-83.92 82.84h81.61l-31.91-31.89 9.53-9.53 41.38 41.42 2.06 2.06a6.7 6.7 0 0 1-.01 9.47 6.72 6.72 0 0 1-4.73 1.95"/></svg>