<svg id="svg13786" width="51.721" height="51.721" version="1.1" xmlns="http://www.w3.org/2000/svg"><defs id="defs13720"><filter id="luminosity-invert-noclip-2" x="49.81" y="34" width="88.92" height="59.72" color-interpolation-filters="sRGB" filterUnits="userSpaceOnUse"><feColorMatrix id="feColorMatrix13704" result="invert" values="-1 0 0 0 1 0 -1 0 0 1 0 0 -1 0 1 0 0 0 1 0"/><feFlood id="feFlood13706" flood-color="#fff" result="bg"/><feBlend id="feBlend13708" in="invert" in2="bg"/></filter><filter id="luminosity-invert-noclip" x="20.41" y="34" width="89.12" height="59.72" color-interpolation-filters="sRGB" filterUnits="userSpaceOnUse"><feColorMatrix id="feColorMatrix13691" result="invert" values="-1 0 0 0 1 0 -1 0 0 1 0 0 -1 0 1 0 0 0 1 0"/><feFlood id="feFlood13693" flood-color="#fff" result="bg"/><feBlend id="feBlend13695" in="invert" in2="bg"/></filter><style id="style13689">.cls-7{fill:#fff}</style><style id="style14833">.cls-7{fill:#fff}</style><clipPath id="clip-path-3"><circle id="circle13717" cx="79.67" cy="63.86" r="25.86" fill="none"/></clipPath></defs><g id="g14997" transform="translate(-12.418 -23.667)"><path id="path14449" d="M60.874 62.1l3.262-12.896c-.177-14.155-11.702-25.537-25.857-25.537a25.86 25.86 0 00-20.717 10.385L12.43 50.294c.414 13.977 11.864 25.093 25.848 25.094 9.978 0 18.31-4.277 22.595-13.288" fill="#e60007"/><g id="g14425" transform="translate(-41.391 -14.334)" clip-path="url(#clip-path-3)"><path id="path14413" d="M58.45 48.11L80 59.89s-7.69 20-26.38 4.58 4.83-16.36 4.83-16.36z"/><path id="path14415" d="M106.08 63.6l-18.72-2.11s-2.87 19.52 16 14.7c19.18-4.9 2.72-12.59 2.72-12.59z"/><path id="path14417" class="cls-7" d="M55.52 53.64l20.67 9.57s-8.28 12-22.38-1.53 1.71-8.04 1.71-8.04z"/><path id="path14419" class="cls-7" d="M105.85 68.1l-16.45-.95s.86 11.89 14.7 7 1.75-6.05 1.75-6.05z"/><circle id="circle14421" cx="97.07" cy="67.93" r="3.07"/><circle id="circle14423" cx="65.14" cy="59.6" r="3.07"/></g></g></svg>