<svg xmlns="http://www.w3.org/2000/svg" width="110.103" height="110.103" overflow="visible"><g fill="#e1233d"><path d="M21.391 52.767c-4.835-8.235-6.636-15.109-6.636-21.286 0-7.362 4.515-16.661 6.481-18.6C30.4 3.852 40.598 0 55.053 0 68.828 0 81.538 5.775 91 14.34 66.732 2.698 38.29 29.188 25.74 45.923c-2.118 2.861-2.982 4.432-4.348 6.844"/><path d="M52.768 88.71c-8.238 4.832-15.117 6.64-21.289 6.64-7.362 0-16.66-4.518-18.597-6.492C3.85 79.698.002 69.5.002 55.048c0-13.772 5.775-26.49 14.336-35.955C2.7 43.361 29.202 71.803 45.931 84.358c2.856 2.118 4.422 2.979 6.837 4.352"/><path d="M88.708 57.333c4.828 8.234 6.645 15.113 6.645 21.285 0 7.366-4.519 16.664-6.497 18.597-9.16 9.028-19.359 12.888-33.798 12.888-13.784 0-26.502-5.783-35.963-14.348 24.277 11.643 52.711-14.848 65.262-31.579 2.121-2.861 2.983-4.427 4.351-6.843"/><path d="M57.34 21.385c8.23-4.823 15.101-6.637 21.272-6.637 7.375 0 16.665 4.522 18.608 6.486 9.021 9.163 12.88 19.365 12.88 33.813 0 13.784-5.788 26.49-14.34 35.96 11.646-24.273-14.852-52.711-31.583-65.267-2.86-2.117-4.426-2.987-6.838-4.355"/></g></svg>