<svg xmlns="http://www.w3.org/2000/svg" width="208.75" height="208.75"><path d="M208.75 22.436a5.54 5.54 0 0 0-.1-1c0-.1-.05-.19-.08-.29-.03-.1-.13-.45-.21-.67l-.15-.32a4.306 4.306 0 0 0-.32-.55c-.07-.11-.14-.22-.22-.33l-.14-.19c-.08-.09-.17-.16-.25-.24l-.2-.24-.16-.11a5.07 5.07 0 0 0-.46-.35l-.39-.25a5.05 5.05 0 0 0-.53-.24l-.42-.17c-.19-.06-.39-.09-.58-.13l-.43-.09a5.58 5.58 0 0 0-.71 0h-.4c-2.68.24-38.09 3.62-77.89 21.37-23.9 10.63-42.4 26.95-54.04 46.76l-3 1.3C25.46 105.716 0 142.686 0 185.596v.72a5.186 5.186 0 0 0 3 4.7c.687.315 1.434.48 2.19.48h141.45c.275 0 .55-.022.82-.07l.36-.09c.17-.05.34-.08.51-.14.17-.06.25-.12.38-.18s.3-.12.44-.2a5.7 5.7 0 0 0 .75-.53l57-48.06a5.16 5.16 0 0 0 1.84-4V22.436zm-51.54 148.11-5.47 4.61V72.906l46.64-39.31v102.25zm-93.12-27.11h77.28v37.69h-122zm65.23-95.32a267.23 267.23 0 0 1 56.81-17.77l-41.69 35.15A264.47 264.47 0 0 0 88 78.786c10.32-12.6 24.24-23.05 41.32-30.67zm-51.23 45.58a267.64 267.64 0 0 1 63.28-17.35v56.72H67.49a91.66 91.66 0 0 1 10.6-39.37zm-14.23 6.62a102.7 102.7 0 0 0-6.86 35.51l-46 38.82c3.48-31.54 22.21-57.92 52.86-74.33z" fill="#3c72ff" fill-rule="evenodd"/></svg>