<svg xmlns="http://www.w3.org/2000/svg" width="360" height="360" data-name="Layer 1"><g class="layer"><path fill="#4078fa" d="M352.58.5H6.42A6.92 6.92 0 0 0-.5 7.42v346.16a6.92 6.92 0 0 0 6.92 6.92h13.85a6.92 6.92 0 0 0 6.92-6.92V28.19h304.62v289.57l-81.88-81.88h33.42a6.92 6.92 0 0 0 6.92-6.92V76.65a6.92 6.92 0 0 0-6.92-6.92H75.65a6.92 6.92 0 0 0-6.92 6.92v276.93a6.92 6.92 0 0 0 6.92 6.92H89.5a6.92 6.92 0 0 0 6.92-6.92V97.42h166.16v110.77h-48.46a6.93 6.93 0 0 0-6.93 6.93v13.84c0 3.35 1.74 5.08 3.58 6.92l117.66 117.67c2.87 2.86 6.79 6.95 10.25 6.95h13.9a6.92 6.92 0 0 0 6.92-6.92V7.42A6.92 6.92 0 0 0 352.58.5zM165.65 252.39v-85.74h17.58a27.69 27.69 0 1 0 0-27.69h-38.35a6.92 6.92 0 0 0-6.92 6.92v110.94c0 7.19 1.09 8.12 3.38 10.41l91.25 91.27a6.88 6.88 0 0 0 4.5 2h23.76a5.19 5.19 0 0 0 5.19-5.19c0-2.45-1.67-4.12-3.42-5.87l-96.97-97.05z"/></g></svg>