<svg xmlns="http://www.w3.org/2000/svg" width="66" height="66" version="1.2"><path fill="#363948" d="M10 17h4v4h-4zm16 0v8h4v4h4v4h-4v4h-4v4h4v4h-4v4h40V17h-8v8h-8v-8h-8v8h-8v-8zm8 20h4v4h-4zM14 25h4v4h-4zm8 0h4v4h-4zm-12 4h4v4h-4zm8 8h4v4h-4zm-8 4h4v4h-4zm4 4h4v4h-4z"/><path d="M14 17h4v4h-4zm12 8h4v8h-4zm-12 4h4v8h-4zm8 4h4v4h-4zm0 8v8h4v-4h4v-4z" fill="#0098d7"/><path d="M14 21h4v4h-4zm4 4h4v4h-4zm4 4h4v4h-4zm8 0h4v4h-4zm-12 4h4v4h-4zm8 0h4v4h-4zm-16 4h4v4h-4zm12 0h4v4h-4zm12 0h4v4h-4zm-20 4h4v4h-4zm4 4h4v4h-4z" fill="#51c1d5"/><path fill="#9eac48" d="M0 25h4v4H0z"/><path fill="#bc006f" d="M10 25h4v4h-4z"/><path fill="#63c2a5" d="M6 33h4v4H6z"/><path fill="#d8643a" d="M0 41h4v4H0z"/><path fill="#756ab1" d="M6 45h4v4H6z"/></svg>