<?xml version="1.0" encoding="UTF-8" standalone="no"?>
<svg
   width="100.33pt"
   height="88.92pt"
   viewBox="0 0 100.33 88.92"
   version="1.2"
   id="svg23"
   xmlns="http://www.w3.org/2000/svg"
   xmlns:svg="http://www.w3.org/2000/svg">
  <defs
     id="defs8">
    <clipPath
       id="clip1">
      <path
         d="M 0 73 L 82 73 L 82 88.921875 L 0 88.921875 Z M 0 73 "
         id="path2" />
    </clipPath>
    <clipPath
       id="clip2">
      <path
         d="M 0 57 L 100.328125 57 L 100.328125 73 L 0 73 Z M 0 57 "
         id="path5" />
    </clipPath>
  </defs>
  <g
     id="surface4182">
    <g
       clip-path="url(#clip1)"
       clip-rule="nonzero"
       id="g12">
      <path
         style=" stroke:none;fill-rule:nonzero;fill:rgb(92.861938%,8.792114%,22.244263%);fill-opacity:1;"
         d="M 71.421875 78.179688 L 72.023438 78.179688 C 72.667969 78.179688 72.746094 78.324219 72.746094 79.40625 L 72.746094 83.347656 C 72.746094 84.089844 72.667969 84.367188 71.84375 84.367188 L 71.328125 84.367188 L 71.328125 85.15625 L 75.847656 85.15625 L 75.847656 84.367188 L 75.621094 84.367188 C 74.800781 84.367188 74.71875 84.089844 74.71875 83.347656 L 74.71875 80.699219 C 74.71875 79.179688 75.527344 78.34375 76.707031 78.34375 C 77.578125 78.34375 78.128906 78.859375 78.128906 80.003906 L 78.128906 83.347656 C 78.128906 84.089844 78.046875 84.367188 77.222656 84.367188 L 76.996094 84.367188 L 76.996094 85.15625 L 81.421875 85.15625 L 81.421875 84.367188 L 81.003906 84.367188 C 80.175781 84.367188 80.097656 84.089844 80.097656 83.347656 L 80.097656 79.539062 C 80.097656 77.792969 78.867188 77.082031 77.285156 77.082031 C 75.976562 77.082031 75.058594 77.632812 74.511719 78.9375 L 74.476562 78.9375 L 74.476562 77.144531 C 73.683594 77.242188 72.246094 77.339844 71.421875 77.339844 Z M 70.148438 81.378906 L 70.148438 81.007812 C 70.148438 78.292969 69.066406 77.082031 66.46875 77.082031 C 63.753906 77.082031 62.589844 78.859375 62.589844 81.25 C 62.589844 83.640625 63.753906 85.414062 66.46875 85.414062 C 69.164062 85.414062 69.972656 84.027344 69.988281 82.636719 L 68.339844 82.636719 C 68.324219 83.847656 67.839844 84.480469 66.660156 84.480469 C 64.671875 84.480469 64.65625 82.476562 64.65625 81.378906 Z M 64.65625 80.441406 C 64.65625 79.085938 65.0625 77.96875 66.453125 77.96875 C 67.839844 77.96875 68.179688 79.117188 68.179688 80.441406 Z M 58.503906 79.890625 C 58.503906 81.296875 58.101562 81.976562 57.226562 81.976562 C 56.371094 81.976562 55.824219 81.363281 55.824219 79.910156 C 55.824219 78.503906 56.308594 77.96875 57.214844 77.96875 C 57.988281 77.96875 58.503906 78.421875 58.503906 79.890625 M 59.183594 86.511719 C 59.183594 87.257812 58.683594 88.03125 57.148438 88.03125 C 55.789062 88.03125 55.257812 87.386719 55.257812 86.59375 C 55.257812 85.738281 55.742188 85.027344 57.195312 85.027344 C 58.601562 85.027344 59.183594 85.691406 59.183594 86.511719 M 61.523438 77.210938 L 59.136719 77.421875 C 58.683594 77.292969 57.941406 77.082031 57.261719 77.082031 C 55.144531 77.082031 53.757812 78.292969 53.757812 79.859375 C 53.757812 81.328125 54.675781 82.054688 55.890625 82.445312 L 55.890625 82.476562 C 54.773438 82.574219 54.304688 82.976562 54.304688 83.492188 C 54.304688 84.042969 54.675781 84.316406 55.761719 84.527344 L 55.761719 84.558594 C 54.628906 84.671875 53.289062 85.269531 53.289062 86.578125 C 53.289062 87.886719 54.402344 88.921875 56.957031 88.921875 C 59.667969 88.921875 61.152344 88.03125 61.152344 86.53125 C 61.152344 84.625 59.636719 84.398438 58.117188 84.285156 C 56.339844 84.15625 56.046875 83.996094 56.046875 83.542969 C 56.046875 83.007812 56.777344 82.929688 57.308594 82.847656 L 57.699219 82.785156 C 59.960938 82.410156 60.667969 81.199219 60.667969 79.910156 C 60.667969 79.214844 60.359375 78.585938 59.960938 78.277344 L 59.960938 78.246094 L 61.523438 78.246094 Z M 42.453125 78.179688 L 43.050781 78.179688 C 43.695312 78.179688 43.777344 78.324219 43.777344 79.40625 L 43.777344 83.347656 C 43.777344 84.089844 43.695312 84.367188 42.871094 84.367188 L 42.355469 84.367188 L 42.355469 85.15625 L 46.875 85.15625 L 46.875 84.367188 L 46.652344 84.367188 C 45.828125 84.367188 45.746094 84.089844 45.746094 83.347656 L 45.746094 80.699219 C 45.746094 79.179688 46.554688 78.34375 47.730469 78.34375 C 48.605469 78.34375 49.152344 78.859375 49.152344 80.003906 L 49.152344 83.347656 C 49.152344 84.089844 49.074219 84.367188 48.25 84.367188 L 48.023438 84.367188 L 48.023438 85.15625 L 52.449219 85.15625 L 52.449219 84.367188 L 52.027344 84.367188 C 51.207031 84.367188 51.125 84.089844 51.125 83.347656 L 51.125 79.539062 C 51.125 77.792969 49.898438 77.082031 48.316406 77.082031 C 47.003906 77.082031 46.085938 77.632812 45.535156 78.9375 L 45.503906 78.9375 L 45.503906 77.144531 C 44.710938 77.242188 43.277344 77.339844 42.453125 77.339844 Z M 38.074219 74.578125 C 38.074219 75.273438 38.496094 75.789062 39.253906 75.789062 C 40.015625 75.789062 40.433594 75.273438 40.433594 74.578125 C 40.433594 73.882812 40.015625 73.367188 39.253906 73.367188 C 38.496094 73.367188 38.074219 73.882812 38.074219 74.578125 M 36.976562 78.179688 L 37.574219 78.179688 C 38.21875 78.179688 38.300781 78.324219 38.300781 79.40625 L 38.300781 83.347656 C 38.300781 84.089844 38.21875 84.367188 37.398438 84.367188 L 36.878906 84.367188 L 36.878906 85.15625 L 41.59375 85.15625 L 41.59375 84.367188 L 41.175781 84.367188 C 40.351562 84.367188 40.273438 84.089844 40.273438 83.347656 L 40.273438 77.144531 C 39.238281 77.242188 37.800781 77.339844 36.976562 77.339844 Z M 26.125 78.179688 L 26.722656 78.179688 C 27.367188 78.179688 27.449219 78.324219 27.449219 79.40625 L 27.449219 83.347656 C 27.449219 84.089844 27.367188 84.367188 26.542969 84.367188 L 26.027344 84.367188 L 26.027344 85.15625 L 30.550781 85.15625 L 30.550781 84.367188 L 30.324219 84.367188 C 29.5 84.367188 29.417969 84.089844 29.417969 83.347656 L 29.417969 80.699219 C 29.417969 79.179688 30.226562 78.34375 31.40625 78.34375 C 32.277344 78.34375 32.828125 78.859375 32.828125 80.003906 L 32.828125 83.347656 C 32.828125 84.089844 32.746094 84.367188 31.921875 84.367188 L 31.695312 84.367188 L 31.695312 85.15625 L 36.121094 85.15625 L 36.121094 84.367188 L 35.703125 84.367188 C 34.878906 84.367188 34.796875 84.089844 34.796875 83.347656 L 34.796875 79.539062 C 34.796875 77.792969 33.570312 77.082031 31.984375 77.082031 C 30.679688 77.082031 29.757812 77.632812 29.207031 78.9375 L 29.175781 78.9375 L 29.175781 77.144531 C 28.386719 77.242188 26.949219 77.339844 26.125 77.339844 Z M 17.289062 81.25 C 17.289062 83.640625 18.453125 85.414062 21.167969 85.414062 C 23.878906 85.414062 25.042969 83.640625 25.042969 81.25 C 25.042969 78.859375 23.878906 77.082031 21.167969 77.082031 C 18.453125 77.082031 17.289062 78.859375 17.289062 81.25 M 19.355469 81.25 C 19.355469 79.050781 19.839844 78.019531 21.167969 78.019531 C 22.492188 78.019531 22.972656 79.050781 22.972656 81.25 C 22.972656 83.445312 22.492188 84.480469 21.167969 84.480469 C 19.839844 84.480469 19.355469 83.445312 19.355469 81.25 M 9.292969 78.179688 L 9.988281 78.179688 C 10.632812 78.179688 10.714844 78.324219 10.714844 79.40625 L 10.714844 83.347656 C 10.714844 84.089844 10.632812 84.367188 9.808594 84.367188 L 9.292969 84.367188 L 9.292969 85.15625 L 14.445312 85.15625 L 14.445312 84.367188 L 13.589844 84.367188 C 12.765625 84.367188 12.683594 84.089844 12.683594 83.347656 L 12.683594 80.699219 C 12.683594 79.34375 13.425781 78.34375 14.167969 78.34375 C 14.800781 78.34375 14.976562 78.792969 14.992188 79.601562 L 16.542969 79.601562 L 16.542969 77.277344 C 16.171875 77.144531 15.71875 77.082031 15.25 77.082031 C 13.945312 77.082031 13.023438 77.632812 12.472656 78.9375 L 12.441406 78.9375 L 12.441406 77.144531 C 11.652344 77.242188 10.210938 77.339844 9.292969 77.339844 Z M 5.53125 79.890625 C 5.53125 81.296875 5.125 81.976562 4.253906 81.976562 C 3.398438 81.976562 2.847656 81.363281 2.847656 79.910156 C 2.847656 78.503906 3.332031 77.96875 4.238281 77.96875 C 5.011719 77.96875 5.53125 78.421875 5.53125 79.890625 M 6.207031 86.511719 C 6.207031 87.257812 5.707031 88.03125 4.171875 88.03125 C 2.816406 88.03125 2.285156 87.386719 2.285156 86.59375 C 2.285156 85.738281 2.769531 85.027344 4.222656 85.027344 C 5.625 85.027344 6.207031 85.691406 6.207031 86.511719 M 8.550781 77.210938 L 6.160156 77.421875 C 5.707031 77.292969 4.964844 77.082031 4.285156 77.082031 C 2.171875 77.082031 0.78125 78.292969 0.78125 79.859375 C 0.78125 81.328125 1.703125 82.054688 2.914062 82.445312 L 2.914062 82.476562 C 1.796875 82.574219 1.332031 82.976562 1.332031 83.492188 C 1.332031 84.042969 1.703125 84.316406 2.785156 84.527344 L 2.785156 84.558594 C 1.652344 84.671875 0.3125 85.269531 0.3125 86.578125 C 0.3125 87.886719 1.425781 88.921875 3.980469 88.921875 C 6.691406 88.921875 8.179688 88.03125 8.179688 86.53125 C 8.179688 84.625 6.660156 84.398438 5.140625 84.285156 C 3.367188 84.15625 3.074219 83.996094 3.074219 83.542969 C 3.074219 83.007812 3.800781 82.929688 4.335938 82.847656 L 4.722656 82.785156 C 6.980469 82.410156 7.695312 81.199219 7.695312 79.910156 C 7.695312 79.214844 7.386719 78.585938 6.980469 78.277344 L 6.980469 78.246094 L 8.550781 78.246094 L 8.550781 77.210938 "
         id="path10" />
    </g>
    <g
       clip-path="url(#clip2)"
       clip-rule="nonzero"
       id="g16">
      <path
         style=" stroke:none;fill-rule:nonzero;fill:rgb(92.861938%,8.792114%,22.244263%);fill-opacity:1;"
         d="M 93.730469 62.128906 L 95.152344 62.128906 L 95.152344 67.199219 C 95.152344 67.941406 95.070312 68.214844 94.246094 68.214844 L 93.730469 68.214844 L 93.730469 69.007812 L 98.882812 69.007812 L 98.882812 68.214844 L 98.027344 68.214844 C 97.203125 68.214844 97.121094 67.941406 97.121094 67.199219 L 97.121094 62.128906 L 99.234375 62.128906 L 99.234375 61.191406 L 97.121094 61.191406 L 97.121094 59.59375 C 97.121094 58.625 97.507812 58.152344 98.171875 58.152344 C 98.769531 58.152344 98.976562 58.511719 98.976562 59.574219 L 100.335938 59.574219 L 100.335938 57.445312 C 99.6875 57.3125 98.976562 57.21875 98.1875 57.21875 C 95.246094 57.21875 95.152344 58.996094 95.152344 61.191406 L 93.730469 61.191406 Z M 84.992188 65.097656 C 84.992188 67.488281 86.15625 69.265625 88.867188 69.265625 C 91.582031 69.265625 92.742188 67.488281 92.742188 65.097656 C 92.742188 62.710938 91.582031 60.933594 88.867188 60.933594 C 86.15625 60.933594 84.992188 62.710938 84.992188 65.097656 M 87.058594 65.097656 C 87.058594 62.902344 87.542969 61.871094 88.867188 61.871094 C 90.195312 61.871094 90.675781 62.902344 90.675781 65.097656 C 90.675781 67.296875 90.195312 68.328125 88.867188 68.328125 C 87.542969 68.328125 87.058594 67.296875 87.058594 65.097656 M 77.078125 68.8125 L 76.304688 70.785156 C 76.09375 71.347656 75.882812 71.6875 75.269531 71.6875 L 74.542969 71.6875 L 74.542969 72.480469 L 78.871094 72.480469 L 78.871094 71.6875 L 78.339844 71.6875 C 77.710938 71.6875 77.53125 71.542969 77.53125 71.203125 C 77.53125 70.945312 77.695312 70.574219 77.789062 70.347656 L 80.957031 62.773438 C 81.179688 62.238281 81.328125 61.980469 81.664062 61.980469 L 82.019531 61.980469 L 82.019531 61.191406 L 78.597656 61.191406 L 78.597656 61.980469 L 79.277344 61.980469 C 79.550781 61.980469 79.660156 62.03125 79.660156 62.257812 C 79.660156 62.402344 79.582031 62.59375 79.484375 62.820312 L 78.015625 66.585938 L 76.691406 63 C 76.59375 62.742188 76.480469 62.515625 76.480469 62.273438 C 76.480469 62.046875 76.644531 61.980469 76.917969 61.980469 L 77.515625 61.980469 L 77.515625 61.191406 L 73.511719 61.191406 L 73.511719 61.980469 L 73.753906 61.980469 C 74.140625 61.980469 74.335938 62.222656 74.65625 63 Z M 66.257812 62.128906 L 67.679688 62.128906 L 67.679688 66.761719 C 67.679688 68.765625 68.585938 69.296875 70.214844 69.296875 C 71.78125 69.296875 72.683594 68.523438 72.683594 66.792969 L 72.683594 66.4375 L 71.332031 66.4375 L 71.332031 67.261719 C 71.332031 67.957031 71.070312 68.265625 70.488281 68.265625 C 69.90625 68.265625 69.652344 67.957031 69.652344 67.261719 L 69.652344 62.128906 L 72.234375 62.128906 L 72.234375 61.191406 L 69.652344 61.191406 L 69.652344 58.914062 L 68.242188 58.914062 C 68.113281 60.542969 67.761719 61.011719 66.257812 61.191406 Z M 61.976562 58.429688 C 61.976562 59.125 62.398438 59.640625 63.15625 59.640625 C 63.914062 59.640625 64.335938 59.125 64.335938 58.429688 C 64.335938 57.734375 63.914062 57.21875 63.15625 57.21875 C 62.398438 57.21875 61.976562 57.734375 61.976562 58.429688 M 60.882812 62.03125 L 61.476562 62.03125 C 62.121094 62.03125 62.207031 62.175781 62.207031 63.257812 L 62.207031 67.199219 C 62.207031 67.941406 62.121094 68.214844 61.300781 68.214844 L 60.78125 68.214844 L 60.78125 69.007812 L 65.5 69.007812 L 65.5 68.214844 L 65.082031 68.214844 C 64.257812 68.214844 64.175781 67.941406 64.175781 67.199219 L 64.175781 60.996094 C 63.140625 61.09375 61.703125 61.191406 60.882812 61.191406 Z M 53.144531 68.75 C 53.613281 68.941406 54.789062 69.265625 56.117188 69.265625 C 57.8125 69.265625 59.605469 68.539062 59.605469 66.648438 C 59.605469 65.421875 58.988281 64.953125 57.601562 64.5 L 56.277344 64.066406 C 55.535156 63.824219 55.113281 63.386719 55.113281 62.773438 C 55.113281 62.128906 55.585938 61.820312 56.328125 61.820312 C 57.488281 61.820312 57.796875 62.335938 57.796875 63.582031 L 59.152344 63.582031 L 59.152344 61.367188 C 58.683594 61.160156 57.601562 60.933594 56.375 60.933594 C 54.46875 60.933594 53.144531 61.820312 53.144531 63.289062 C 53.144531 64.550781 54.046875 65.226562 55.921875 65.792969 C 57.40625 66.246094 57.636719 66.601562 57.636719 67.199219 C 57.636719 67.941406 56.957031 68.378906 55.921875 68.378906 C 54.808594 68.378906 54.503906 67.632812 54.503906 66.488281 L 53.144531 66.488281 Z M 44.761719 62.03125 L 45.453125 62.03125 C 46.101562 62.03125 46.179688 62.175781 46.179688 63.257812 L 46.179688 67.199219 C 46.179688 67.941406 46.101562 68.214844 45.277344 68.214844 L 44.761719 68.214844 L 44.761719 69.007812 L 49.910156 69.007812 L 49.910156 68.214844 L 49.054688 68.214844 C 48.234375 68.214844 48.152344 67.941406 48.152344 67.199219 L 48.152344 64.550781 C 48.152344 63.191406 48.894531 62.191406 49.636719 62.191406 C 50.265625 62.191406 50.445312 62.644531 50.460938 63.453125 L 52.011719 63.453125 L 52.011719 61.125 C 51.640625 60.996094 51.1875 60.933594 50.71875 60.933594 C 49.410156 60.933594 48.492188 61.480469 47.941406 62.789062 L 47.910156 62.789062 L 47.910156 60.996094 C 47.117188 61.09375 45.679688 61.191406 44.761719 61.191406 Z M 43.582031 65.226562 L 43.582031 64.855469 C 43.582031 62.144531 42.5 60.933594 39.898438 60.933594 C 37.183594 60.933594 36.023438 62.710938 36.023438 65.097656 C 36.023438 67.488281 37.183594 69.265625 39.898438 69.265625 C 42.59375 69.265625 43.402344 67.878906 43.417969 66.488281 L 41.773438 66.488281 C 41.757812 67.699219 41.273438 68.328125 40.09375 68.328125 C 38.105469 68.328125 38.089844 66.328125 38.089844 65.226562 Z M 38.089844 64.292969 C 38.089844 62.933594 38.492188 61.820312 39.882812 61.820312 C 41.273438 61.820312 41.609375 62.96875 41.609375 64.292969 Z M 32.113281 61.980469 L 32.792969 61.980469 C 33.164062 61.980469 33.261719 62.078125 33.261719 62.191406 C 33.261719 62.320312 33.226562 62.480469 33.179688 62.59375 L 31.5 67.390625 L 31.46875 67.390625 L 29.917969 62.839844 C 29.867188 62.675781 29.773438 62.480469 29.773438 62.273438 C 29.773438 62.09375 29.933594 61.980469 30.417969 61.980469 L 30.949219 61.980469 L 30.949219 61.191406 L 26.914062 61.191406 L 26.914062 61.980469 L 27.105469 61.980469 C 27.460938 61.980469 27.558594 62.078125 27.769531 62.613281 L 30.273438 69.105469 L 32.175781 69.105469 L 34.679688 62.53125 C 34.84375 62.109375 34.988281 61.980469 35.328125 61.980469 L 35.535156 61.980469 L 35.535156 61.191406 L 32.113281 61.191406 Z M 23.132812 58.429688 C 23.132812 59.125 23.550781 59.640625 24.3125 59.640625 C 25.070312 59.640625 25.492188 59.125 25.492188 58.429688 C 25.492188 57.734375 25.070312 57.21875 24.3125 57.21875 C 23.550781 57.21875 23.132812 57.734375 23.132812 58.429688 M 22.035156 62.03125 L 22.632812 62.03125 C 23.277344 62.03125 23.359375 62.175781 23.359375 63.257812 L 23.359375 67.199219 C 23.359375 67.941406 23.277344 68.214844 22.453125 68.214844 L 21.9375 68.214844 L 21.9375 69.007812 L 26.652344 69.007812 L 26.652344 68.214844 L 26.234375 68.214844 C 25.410156 68.214844 25.328125 67.941406 25.328125 67.199219 L 25.328125 60.996094 C 24.296875 61.09375 22.859375 61.191406 22.035156 61.191406 Z M 11.179688 62.03125 L 11.78125 62.03125 C 12.425781 62.03125 12.507812 62.175781 12.507812 63.257812 L 12.507812 67.199219 C 12.507812 67.941406 12.425781 68.214844 11.601562 68.214844 L 11.085938 68.214844 L 11.085938 69.007812 L 15.605469 69.007812 L 15.605469 68.214844 L 15.382812 68.214844 C 14.558594 68.214844 14.476562 67.941406 14.476562 67.199219 L 14.476562 64.550781 C 14.476562 63.03125 15.285156 62.191406 16.464844 62.191406 C 17.335938 62.191406 17.882812 62.710938 17.882812 63.855469 L 17.882812 67.199219 C 17.882812 67.941406 17.804688 68.214844 16.980469 68.214844 L 16.753906 68.214844 L 16.753906 69.007812 L 21.179688 69.007812 L 21.179688 68.214844 L 20.757812 68.214844 C 19.933594 68.214844 19.855469 67.941406 19.855469 67.199219 L 19.855469 63.386719 C 19.855469 61.644531 18.625 60.933594 17.042969 60.933594 C 15.734375 60.933594 14.816406 61.480469 14.265625 62.789062 L 14.234375 62.789062 L 14.234375 60.996094 C 13.441406 61.09375 12.007812 61.191406 11.179688 61.191406 Z M 7.273438 69.007812 L 10.324219 69.007812 L 10.324219 68.214844 L 9.90625 68.214844 C 9.082031 68.214844 9 67.941406 9 67.199219 L 9 60.996094 C 7.96875 61.09375 6.53125 61.191406 5.707031 61.191406 L 5.707031 62.03125 L 6.304688 62.03125 C 6.949219 62.03125 7.03125 62.175781 7.03125 63.257812 L 7.03125 65.46875 C 7.03125 67.132812 6.433594 68.007812 5.0625 68.007812 C 4.140625 68.007812 3.625 67.539062 3.625 66.585938 L 3.625 60.996094 C 2.589844 61.09375 1.152344 61.191406 0.328125 61.191406 L 0.328125 62.03125 L 0.925781 62.03125 C 1.574219 62.03125 1.652344 62.175781 1.652344 63.257812 L 1.652344 67.039062 C 1.652344 68.539062 2.621094 69.265625 4.222656 69.265625 C 5.851562 69.265625 6.871094 68.554688 7.242188 67.472656 L 7.273438 67.472656 L 7.273438 69.007812 "
         id="path14" />
    </g>
    <path
       style=" stroke:none;fill-rule:nonzero;fill:rgb(92.861938%,8.792114%,22.244263%);fill-opacity:1;"
       d="M 69.199219 14.007812 L 40.519531 49.40625 L 38.238281 49.402344 L 66.914062 14.007812 L 69.199219 14.007812 "
       id="path18" />
    <path
       style=" stroke:none;fill-rule:nonzero;fill:rgb(92.861938%,8.792114%,22.244263%);fill-opacity:1;"
       d="M 13.851562 7.113281 C 13.644531 7.148438 13.351562 7.230469 13.179688 6.859375 C 13.023438 6.519531 13.605469 5.976562 13.800781 5.796875 C 14.050781 5.570312 13.726562 5.324219 13.535156 5.589844 C 13.480469 5.664062 13.023438 6.3125 12.664062 6.3125 C 12.109375 6.3125 12.140625 5.660156 12.140625 5.660156 C 12.140625 5.660156 11.519531 5.265625 11.519531 4.003906 C 11.519531 2.886719 12.257812 2.351562 12.257812 2.351562 C 12.257812 2.351562 12.265625 1.714844 12.761719 1.730469 C 13.257812 1.746094 13.582031 2.433594 13.613281 2.480469 C 13.863281 2.859375 14.179688 2.535156 13.960938 2.265625 C 13.441406 1.632812 13.328125 1.128906 13.898438 0.863281 C 14.105469 0.390625 14.730469 0.0585938 15.414062 0.00390625 L 15.457031 0.00390625 C 16.140625 0.0585938 16.765625 0.390625 16.972656 0.863281 C 17.542969 1.128906 17.433594 1.632812 16.910156 2.265625 C 16.691406 2.535156 17.007812 2.859375 17.257812 2.480469 C 17.289062 2.433594 17.613281 1.746094 18.109375 1.730469 C 18.605469 1.714844 18.613281 2.351562 18.613281 2.351562 C 18.613281 2.351562 19.351562 2.886719 19.351562 4.003906 C 19.351562 5.265625 18.730469 5.660156 18.730469 5.660156 C 18.730469 5.660156 18.761719 6.3125 18.207031 6.3125 C 17.847656 6.3125 17.390625 5.664062 17.335938 5.589844 C 17.148438 5.324219 16.820312 5.570312 17.070312 5.796875 C 17.265625 5.976562 17.847656 6.519531 17.691406 6.859375 C 17.523438 7.230469 17.226562 7.148438 17.019531 7.113281 C 17.019531 7.113281 16.828125 7.445312 16.539062 7.449219 C 17.980469 8.527344 20.25 7.914062 20.554688 7.125 C 20.554688 7.125 20.167969 7.203125 20.171875 6.800781 C 20.175781 6.554688 20.425781 6.421875 20.757812 6.375 C 20.691406 6.222656 20.65625 6.035156 20.667969 5.835938 C 20.699219 5.269531 21.089844 4.792969 21.539062 4.773438 C 21.988281 4.753906 22.324219 5.195312 22.292969 5.761719 C 22.277344 6.046875 22.167969 6.308594 22.007812 6.503906 C 22.335938 6.613281 22.570312 6.785156 22.539062 6.980469 C 22.457031 7.5 21.976562 7.371094 21.976562 7.371094 C 21.917969 8.558594 23.730469 8.785156 24.191406 8.480469 C 24.007812 7.792969 24.28125 7.589844 24.492188 7.402344 C 24.640625 7.273438 25.082031 7 25.144531 6.960938 C 25.28125 6.871094 25.355469 6.675781 25.269531 6.605469 C 25.1875 6.539062 25.003906 6.65625 24.917969 6.75 C 24.796875 6.890625 24.582031 7.214844 24.246094 7.125 C 23.839844 7.019531 24.015625 6.550781 23.945312 6.300781 C 23.511719 4.71875 23.882812 3.613281 25.464844 2.953125 C 25.464844 2.953125 26.066406 2.316406 26.605469 2.605469 C 27.125 2.878906 26.804688 3.722656 26.804688 3.722656 L 26.964844 3.796875 C 27.542969 2.75 28.378906 1.988281 29.578125 1.957031 C 30.425781 1.9375 30.835938 2.4375 30.871094 3.125 C 30.945312 4.652344 29.382812 4.082031 29.503906 3.511719 C 29.503906 3.511719 29.125 3.550781 28.917969 3.882812 C 28.917969 3.785156 28.929688 2.878906 28.121094 3.359375 C 27.890625 3.496094 27.480469 4.183594 27.449219 4.269531 C 27.347656 4.570312 27.496094 4.617188 27.339844 4.910156 C 27.214844 5.140625 27.042969 5.195312 26.96875 5.355469 C 26.894531 5.515625 27 5.832031 26.898438 6.035156 C 26.777344 6.28125 26.605469 6.300781 26.492188 6.527344 C 26.402344 6.703125 25.273438 9.585938 25.273438 9.585938 C 25.273438 9.585938 25.722656 9.875 25.636719 10.304688 C 25.523438 10.878906 25.15625 10.753906 24.964844 11.128906 C 18.820312 9.550781 12.464844 9.542969 5.894531 11.105469 C 5.699219 10.757812 5.347656 10.863281 5.234375 10.304688 C 5.148438 9.875 5.601562 9.585938 5.601562 9.585938 C 5.601562 9.585938 4.46875 6.703125 4.378906 6.527344 C 4.269531 6.300781 4.097656 6.28125 3.972656 6.035156 C 3.871094 5.832031 3.976562 5.515625 3.902344 5.355469 C 3.828125 5.195312 3.65625 5.140625 3.535156 4.910156 C 3.378906 4.617188 3.523438 4.570312 3.421875 4.269531 C 3.394531 4.183594 2.984375 3.496094 2.753906 3.359375 C 1.945312 2.878906 1.957031 3.785156 1.953125 3.882812 C 1.746094 3.550781 1.367188 3.511719 1.367188 3.511719 C 1.492188 4.082031 -0.0703125 4.652344 0.00390625 3.125 C 0.0351562 2.4375 0.445312 1.9375 1.296875 1.957031 C 2.496094 1.988281 3.332031 2.75 3.910156 3.796875 L 4.070312 3.722656 C 4.070312 3.722656 3.75 2.878906 4.265625 2.605469 C 4.804688 2.316406 5.40625 2.953125 5.40625 2.953125 C 6.988281 3.613281 7.359375 4.71875 6.925781 6.300781 C 6.855469 6.550781 7.035156 7.019531 6.625 7.125 C 6.289062 7.214844 6.074219 6.890625 5.953125 6.75 C 5.867188 6.65625 5.6875 6.539062 5.605469 6.605469 C 5.519531 6.675781 5.589844 6.871094 5.726562 6.960938 C 5.789062 7 6.230469 7.273438 6.378906 7.402344 C 6.589844 7.589844 6.863281 7.792969 6.679688 8.480469 C 7.144531 8.785156 8.953125 8.558594 8.894531 7.371094 C 8.894531 7.371094 8.414062 7.5 8.332031 6.980469 C 8.304688 6.785156 8.535156 6.613281 8.863281 6.503906 C 8.703125 6.308594 8.597656 6.046875 8.578125 5.761719 C 8.546875 5.195312 8.882812 4.753906 9.332031 4.773438 C 9.78125 4.792969 10.171875 5.269531 10.207031 5.835938 C 10.21875 6.035156 10.183594 6.222656 10.113281 6.375 C 10.449219 6.421875 10.695312 6.554688 10.699219 6.800781 C 10.703125 7.203125 10.320312 7.125 10.320312 7.125 C 10.621094 7.914062 12.890625 8.527344 14.335938 7.449219 C 14.042969 7.445312 13.851562 7.113281 13.851562 7.113281 M 14.375 4.160156 C 14.375 4.746094 14.847656 5.222656 15.433594 5.222656 C 16.023438 5.222656 16.496094 4.746094 16.496094 4.160156 C 16.496094 3.574219 16.023438 3.097656 15.433594 3.097656 C 14.847656 3.097656 14.375 3.574219 14.375 4.160156 M 20.230469 8.761719 C 20.691406 8.75 21.582031 8.9375 21.582031 8.9375 C 21.582031 8.9375 21.203125 8.511719 21.03125 8.222656 C 21.03125 8.222656 20.828125 8.414062 20.703125 8.5 C 20.605469 8.570312 20.230469 8.761719 20.230469 8.761719 M 15.4375 7.832031 C 15.257812 8.03125 14.910156 8.371094 14.535156 8.5 C 14.535156 8.5 15.15625 8.484375 15.421875 8.480469 L 15.449219 8.480469 C 15.71875 8.484375 16.335938 8.5 16.335938 8.5 C 15.960938 8.371094 15.613281 8.03125 15.4375 7.832031 M 10.640625 8.761719 C 10.640625 8.761719 10.265625 8.570312 10.167969 8.5 C 10.046875 8.414062 9.84375 8.222656 9.84375 8.222656 C 9.667969 8.511719 9.289062 8.9375 9.289062 8.9375 C 9.289062 8.9375 10.183594 8.75 10.640625 8.761719 M 24.691406 11.628906 C 24.984375 11.710938 25.402344 12 25.285156 12.425781 C 25.171875 12.851562 24.667969 12.894531 24.375 12.816406 C 24.078125 12.738281 23.667969 12.445312 23.78125 12.023438 C 23.894531 11.597656 24.398438 11.550781 24.691406 11.628906 M 20.832031 11.515625 L 19.9375 12.269531 L 19.1875 11.371094 L 20.082031 10.621094 Z M 6.601562 12.816406 C 6.304688 12.894531 5.800781 12.851562 5.6875 12.425781 C 5.574219 12 5.988281 11.710938 6.28125 11.628906 C 6.578125 11.550781 7.082031 11.597656 7.195312 12.023438 C 7.308594 12.445312 6.894531 12.738281 6.601562 12.816406 M 14.554688 11.234375 C 14.554688 10.894531 14.972656 10.621094 15.488281 10.621094 C 16.003906 10.621094 16.421875 10.894531 16.421875 11.234375 C 16.421875 11.570312 16.003906 11.84375 15.488281 11.84375 C 14.972656 11.84375 14.554688 11.570312 14.554688 11.234375 M 10.140625 11.515625 L 10.894531 10.621094 L 11.789062 11.371094 L 11.035156 12.269531 Z M 2.484375 38.539062 C 2.585938 38.132812 3.019531 38.222656 3.019531 38.222656 C 3.019531 38.222656 2.917969 37.847656 3.296875 37.675781 C 3.722656 37.484375 3.933594 37.953125 3.933594 37.953125 L 4.113281 39.160156 L 2.828125 39.117188 C 2.828125 39.117188 2.371094 38.988281 2.484375 38.539062 M 4.304688 36.542969 C 4.40625 36.136719 4.839844 36.230469 4.839844 36.230469 C 4.839844 36.230469 4.738281 35.855469 5.117188 35.683594 C 5.542969 35.492188 5.753906 35.957031 5.753906 35.957031 L 5.929688 37.164062 L 4.644531 37.121094 C 4.644531 37.121094 4.191406 36.996094 4.304688 36.542969 M 6.125 34.546875 C 6.226562 34.144531 6.660156 34.234375 6.660156 34.234375 C 6.660156 34.234375 6.554688 33.859375 6.9375 33.6875 C 7.363281 33.496094 7.574219 33.964844 7.574219 33.964844 L 7.75 35.167969 L 6.464844 35.125 C 6.464844 35.125 6.011719 35 6.125 34.546875 M 15.449219 16.078125 C 15.550781 15.667969 15.980469 15.761719 15.980469 15.761719 C 15.980469 15.761719 15.878906 15.386719 16.261719 15.214844 C 16.683594 15.023438 16.894531 15.492188 16.894531 15.492188 L 17.074219 16.695312 L 15.789062 16.652344 C 15.789062 16.652344 15.335938 16.527344 15.449219 16.078125 M 17.226562 22.878906 C 17.328125 22.472656 17.761719 22.5625 17.761719 22.5625 C 17.761719 22.5625 17.65625 22.1875 18.039062 22.019531 C 18.464844 21.828125 18.671875 22.292969 18.671875 22.292969 L 18.851562 23.5 L 17.566406 23.457031 C 17.566406 23.457031 17.113281 23.332031 17.226562 22.878906 M 19.359375 20.617188 C 19.460938 20.210938 19.894531 20.304688 19.894531 20.304688 C 19.894531 20.304688 19.792969 19.925781 20.175781 19.757812 C 20.597656 19.566406 20.808594 20.035156 20.808594 20.035156 L 20.988281 21.238281 L 19.703125 21.195312 C 19.703125 21.195312 19.25 21.070312 19.359375 20.617188 M 21.496094 18.359375 C 21.597656 17.953125 22.03125 18.042969 22.03125 18.042969 C 22.03125 18.042969 21.929688 17.667969 22.3125 17.496094 C 22.734375 17.304688 22.945312 17.773438 22.945312 17.773438 L 23.125 18.980469 L 21.839844 18.9375 C 21.839844 18.9375 21.382812 18.808594 21.496094 18.359375 M 23.632812 16.097656 C 23.734375 15.691406 24.167969 15.78125 24.167969 15.78125 C 24.167969 15.78125 24.066406 15.40625 24.445312 15.234375 C 24.871094 15.042969 25.082031 15.511719 25.082031 15.511719 L 25.257812 16.71875 L 23.972656 16.675781 C 23.972656 16.675781 23.519531 16.546875 23.632812 16.097656 M 1.273438 31.316406 C 1.378906 30.910156 1.8125 31 1.8125 31 C 1.8125 31 1.707031 30.625 2.089844 30.453125 C 2.511719 30.265625 2.726562 30.730469 2.726562 30.730469 L 2.902344 31.9375 L 1.617188 31.894531 C 1.617188 31.894531 1.164062 31.769531 1.273438 31.316406 M 6.234375 43.417969 C 6.335938 43.011719 6.769531 43.105469 6.769531 43.105469 C 6.769531 43.105469 6.667969 42.730469 7.046875 42.558594 C 7.472656 42.367188 7.683594 42.835938 7.683594 42.835938 L 7.863281 44.039062 L 6.578125 43.996094 C 6.578125 43.996094 6.121094 43.871094 6.234375 43.417969 M 8.34375 41.121094 C 8.449219 40.714844 8.878906 40.808594 8.878906 40.808594 C 8.878906 40.808594 8.777344 40.433594 9.160156 40.261719 C 9.582031 40.070312 9.792969 40.539062 9.792969 40.539062 L 9.972656 41.742188 L 8.6875 41.699219 C 8.6875 41.699219 8.230469 41.574219 8.34375 41.121094 M 10.457031 38.828125 C 10.558594 38.421875 10.992188 38.511719 10.992188 38.511719 C 10.992188 38.511719 10.890625 38.136719 11.273438 37.964844 C 11.695312 37.773438 11.90625 38.242188 11.90625 38.242188 L 12.085938 39.449219 L 10.800781 39.40625 C 10.800781 39.40625 10.34375 39.277344 10.457031 38.828125 M 12.570312 36.53125 C 12.671875 36.125 13.101562 36.214844 13.101562 36.214844 C 13.101562 36.214844 13 35.839844 13.382812 35.667969 C 13.804688 35.476562 14.019531 35.945312 14.019531 35.945312 L 14.195312 37.152344 L 12.910156 37.109375 C 12.910156 37.109375 12.457031 36.980469 12.570312 36.53125 M 21.867188 26.769531 C 21.96875 26.363281 22.402344 26.453125 22.402344 26.453125 C 22.402344 26.453125 22.300781 26.078125 22.683594 25.90625 C 23.105469 25.714844 23.316406 26.183594 23.316406 26.183594 L 23.496094 27.390625 L 22.210938 27.347656 C 22.210938 27.347656 21.753906 27.21875 21.867188 26.769531 M 23.773438 24.691406 C 23.875 24.285156 24.304688 24.375 24.304688 24.375 C 24.304688 24.375 24.203125 24 24.585938 23.828125 C 25.007812 23.640625 25.21875 24.105469 25.21875 24.105469 L 25.398438 25.3125 L 24.113281 25.269531 C 24.113281 25.269531 23.660156 25.144531 23.773438 24.691406 M 25.675781 22.613281 C 25.777344 22.207031 26.210938 22.300781 26.210938 22.300781 C 26.210938 22.300781 26.105469 21.925781 26.488281 21.753906 C 26.914062 21.5625 27.125 22.03125 27.125 22.03125 L 27.300781 23.234375 L 26.019531 23.191406 C 26.019531 23.191406 25.5625 23.066406 25.675781 22.613281 M 27.578125 20.539062 C 27.679688 20.132812 28.113281 20.222656 28.113281 20.222656 C 28.113281 20.222656 28.011719 19.847656 28.394531 19.675781 C 28.816406 19.484375 29.027344 19.953125 29.027344 19.953125 L 29.207031 21.160156 L 27.921875 21.117188 C 27.921875 21.117188 27.464844 20.988281 27.578125 20.539062 M 12.800781 45.457031 C 12.902344 45.050781 13.335938 45.140625 13.335938 45.140625 C 13.335938 45.140625 13.234375 44.765625 13.617188 44.59375 C 14.039062 44.402344 14.25 44.871094 14.25 44.871094 L 14.429688 46.078125 L 13.144531 46.035156 C 13.144531 46.035156 12.6875 45.90625 12.800781 45.457031 M 27.589844 29.089844 C 27.691406 28.683594 28.125 28.773438 28.125 28.773438 C 28.125 28.773438 28.023438 28.398438 28.40625 28.226562 C 28.828125 28.035156 29.039062 28.503906 29.039062 28.503906 L 29.21875 29.710938 L 27.933594 29.667969 C 27.933594 29.667969 27.476562 29.539062 27.589844 29.089844 M 13.285156 30.734375 C 13.285156 30.667969 13.386719 30.679688 13.578125 30.648438 C 13.769531 30.617188 13.941406 30.550781 13.941406 30.617188 C 13.941406 30.710938 13.808594 30.636719 13.808594 30.792969 L 13.808594 32.292969 C 13.808594 32.367188 13.910156 32.3125 13.910156 32.371094 C 13.910156 32.445312 13.726562 32.414062 13.59375 32.414062 C 13.457031 32.414062 13.28125 32.445312 13.28125 32.386719 C 13.28125 32.285156 13.402344 32.386719 13.402344 32.292969 L 13.402344 30.867188 C 13.402344 30.714844 13.285156 30.855469 13.285156 30.734375 M 11.65625 31.382812 C 11.65625 31.339844 11.710938 31.335938 11.804688 31.285156 C 11.902344 31.238281 11.960938 31.183594 12.046875 31.257812 C 12.132812 31.335938 12.59375 31.867188 12.59375 31.867188 L 12.59375 31.109375 C 12.59375 31.023438 12.445312 31.136719 12.445312 31.050781 C 12.445312 30.988281 12.511719 30.988281 12.617188 30.945312 C 12.722656 30.902344 12.878906 30.785156 12.878906 30.859375 C 12.878906 30.949219 12.765625 30.921875 12.765625 31.039062 L 12.765625 32.503906 C 12.765625 32.625 12.753906 32.625 12.703125 32.625 C 12.671875 32.625 11.929688 31.695312 11.929688 31.695312 L 11.929688 32.6875 C 11.929688 32.777344 12.109375 32.652344 12.109375 32.738281 C 12.109375 32.785156 12.003906 32.8125 11.898438 32.855469 C 11.789062 32.898438 11.640625 32.96875 11.640625 32.914062 C 11.640625 32.824219 11.773438 32.855469 11.773438 32.765625 L 11.773438 31.480469 C 11.773438 31.382812 11.65625 31.457031 11.65625 31.382812 M 11.078125 32.296875 C 11.078125 31.675781 10.683594 31.90625 10.683594 31.90625 L 10.683594 33.179688 C 10.683594 33.179688 11.078125 33.171875 11.078125 32.296875 M 10.15625 32.039062 C 10.15625 31.996094 10.347656 31.925781 10.476562 31.863281 C 10.707031 31.757812 11.449219 31.378906 11.449219 32.292969 C 11.449219 33.128906 10.859375 33.269531 10.671875 33.355469 C 10.484375 33.441406 10.234375 33.5625 10.214844 33.523438 C 10.179688 33.457031 10.316406 33.445312 10.316406 33.296875 L 10.316406 32.253906 C 10.316406 31.992188 10.15625 32.128906 10.15625 32.039062 M 12.742188 28.257812 C 12.734375 28.21875 12.890625 28.191406 12.96875 28.171875 C 13.105469 28.136719 13.191406 28.109375 13.246094 28.164062 C 13.300781 28.222656 13.574219 28.664062 13.574219 28.664062 C 13.574219 28.664062 13.929688 28.164062 13.957031 28.132812 C 13.984375 28.097656 13.996094 28.050781 14.136719 28.046875 C 14.296875 28.046875 14.371094 28.027344 14.371094 28.0625 C 14.371094 28.125 14.269531 28.09375 14.265625 28.222656 C 14.261719 28.324219 14.265625 29.515625 14.265625 29.582031 C 14.265625 29.734375 14.367188 29.683594 14.367188 29.734375 C 14.367188 29.785156 14.300781 29.765625 14.0625 29.765625 C 13.867188 29.761719 13.734375 29.789062 13.734375 29.75 C 13.734375 29.683594 13.839844 29.742188 13.839844 29.605469 L 13.839844 28.691406 C 13.839844 28.691406 13.496094 29.191406 13.480469 29.191406 C 13.460938 29.191406 13.042969 28.554688 13.042969 28.554688 L 13.042969 29.644531 C 13.042969 29.820312 13.214844 29.71875 13.214844 29.785156 C 13.214844 29.820312 13.085938 29.835938 12.988281 29.859375 C 12.875 29.886719 12.777344 29.929688 12.765625 29.898438 C 12.742188 29.828125 12.886719 29.867188 12.886719 29.671875 C 12.886719 29.496094 12.890625 28.496094 12.886719 28.421875 C 12.878906 28.230469 12.746094 28.316406 12.742188 28.257812 M 12.246094 28.449219 C 12.304688 28.421875 12.457031 28.339844 12.476562 28.363281 C 12.503906 28.402344 12.414062 28.410156 12.355469 28.671875 C 12.332031 28.769531 12.042969 30.28125 11.9375 30.332031 C 11.902344 30.351562 11.417969 29.144531 11.371094 29.046875 C 11.292969 28.875 11.207031 28.992188 11.191406 28.929688 C 11.179688 28.890625 11.3125 28.839844 11.425781 28.789062 C 11.484375 28.765625 11.699219 28.632812 11.722656 28.660156 C 11.765625 28.710938 11.601562 28.710938 11.679688 28.898438 C 11.734375 29.023438 12.007812 29.621094 12.007812 29.621094 C 12.007812 29.621094 12.167969 28.945312 12.214844 28.714844 C 12.261719 28.488281 12.085938 28.601562 12.082031 28.550781 C 12.078125 28.523438 12.167969 28.484375 12.242188 28.453125 Z M 10.378906 30.035156 L 10.378906 30.863281 C 10.378906 30.863281 10.804688 30.777344 10.804688 30.257812 C 10.804688 29.816406 10.378906 30.035156 10.378906 30.035156 M 10.371094 29.308594 L 10.371094 29.855469 C 10.371094 29.855469 10.683594 29.742188 10.683594 29.472656 C 10.683594 29.152344 10.371094 29.308594 10.371094 29.308594 M 10.40625 29.164062 C 10.585938 29.09375 11.0625 29 11.0625 29.410156 C 11.0625 29.703125 10.871094 29.773438 10.871094 29.773438 C 10.871094 29.773438 11.214844 29.835938 11.214844 30.125 C 11.214844 30.457031 11.054688 30.6875 10.875 30.78125 C 10.78125 30.832031 10.214844 31.105469 10.160156 31.140625 C 10.105469 31.171875 9.980469 31.238281 9.964844 31.207031 C 9.933594 31.136719 10.058594 31.148438 10.058594 30.9375 L 10.058594 29.605469 C 10.058594 29.320312 9.925781 29.445312 9.925781 29.371094 C 9.925781 29.328125 10.21875 29.234375 10.40625 29.164062 M 13.367188 25.417969 L 13.367188 26.089844 C 13.367188 26.089844 13.683594 26.066406 13.683594 25.703125 C 13.683594 25.273438 13.367188 25.417969 13.367188 25.417969 M 14.203125 26.917969 C 14.296875 26.929688 14.339844 26.890625 14.339844 26.890625 C 14.339844 26.890625 14.308594 27.128906 14.058594 27.128906 C 13.71875 27.128906 13.722656 26.542969 13.625 26.371094 C 13.53125 26.203125 13.371094 26.292969 13.371094 26.292969 L 13.371094 26.890625 C 13.371094 27.082031 13.488281 27 13.488281 27.070312 C 13.488281 27.097656 13.398438 27.113281 13.398438 27.113281 C 13.398438 27.113281 13.136719 27.191406 13.039062 27.210938 C 12.945312 27.230469 12.902344 27.253906 12.902344 27.210938 C 12.902344 27.132812 12.996094 27.183594 12.996094 26.972656 L 12.996094 25.738281 C 12.996094 25.496094 12.859375 25.578125 12.855469 25.511719 C 12.851562 25.472656 12.953125 25.453125 13.046875 25.425781 C 13.207031 25.386719 13.269531 25.335938 13.5 25.285156 C 13.71875 25.234375 14.105469 25.335938 14.105469 25.648438 C 14.105469 25.988281 13.914062 26.058594 13.808594 26.136719 C 14.203125 26.328125 14.027344 26.894531 14.203125 26.917969 M 11.609375 26.039062 C 11.769531 25.984375 12.050781 25.867188 12.355469 25.695312 C 12.398438 25.671875 12.523438 25.59375 12.582031 25.707031 C 12.640625 25.820312 12.6875 25.972656 12.652344 25.988281 C 12.59375 26.011719 12.558594 25.964844 12.492188 25.929688 C 12.429688 25.898438 12.351562 25.859375 12.277344 25.882812 C 12.203125 25.902344 12.097656 25.949219 12.097656 25.949219 L 12.101562 26.472656 C 12.101562 26.472656 12.285156 26.472656 12.308594 26.371094 C 12.324219 26.292969 12.359375 26.1875 12.417969 26.167969 C 12.453125 26.160156 12.441406 26.269531 12.445312 26.417969 C 12.449219 26.472656 12.449219 26.5 12.453125 26.527344 C 12.457031 26.714844 12.445312 26.777344 12.417969 26.78125 C 12.367188 26.789062 12.324219 26.65625 12.3125 26.625 C 12.289062 26.566406 12.101562 26.617188 12.101562 26.648438 L 12.101562 27.40625 C 12.101562 27.40625 12.246094 27.328125 12.308594 27.289062 C 12.394531 27.238281 12.542969 27.070312 12.597656 26.972656 C 12.65625 26.871094 12.675781 26.789062 12.730469 26.800781 C 12.761719 26.804688 12.691406 27.128906 12.691406 27.128906 C 12.691406 27.128906 12.6875 27.257812 12.582031 27.3125 C 12.472656 27.367188 11.878906 27.644531 11.824219 27.667969 C 11.722656 27.71875 11.601562 27.804688 11.597656 27.757812 C 11.59375 27.683594 11.699219 27.722656 11.699219 27.5 L 11.695312 26.238281 C 11.695312 26.238281 11.691406 26.132812 11.609375 26.117188 C 11.546875 26.109375 11.488281 26.078125 11.609375 26.039062 M 10.214844 26.617188 C 10.300781 26.589844 10.542969 26.484375 10.554688 26.515625 C 10.589844 26.589844 10.429688 26.574219 10.480469 26.726562 C 10.527344 26.851562 10.808594 27.519531 10.808594 27.519531 L 11.054688 26.558594 C 11.105469 26.351562 10.941406 26.421875 10.925781 26.371094 C 10.917969 26.335938 11.046875 26.296875 11.125 26.265625 C 11.183594 26.238281 11.382812 26.152344 11.394531 26.175781 C 11.417969 26.246094 11.320312 26.246094 11.265625 26.433594 C 11.203125 26.652344 10.828125 28.15625 10.722656 28.214844 C 10.664062 28.246094 10.148438 26.949219 10.109375 26.847656 C 10.070312 26.746094 9.929688 26.785156 9.917969 26.726562 C 9.910156 26.699219 10.128906 26.648438 10.214844 26.617188 M 16.976562 30.785156 C 16.972656 30.742188 17.035156 30.757812 17.125 30.789062 C 17.214844 30.816406 17.324219 30.839844 17.398438 30.964844 C 17.472656 31.085938 18.035156 32.046875 18.035156 32.046875 L 18.03125 31.179688 C 18.03125 31.066406 17.929688 31.0625 17.929688 31.015625 C 17.929688 30.96875 18.007812 31.015625 18.089844 31.042969 C 18.171875 31.070312 18.289062 31.082031 18.289062 31.121094 C 18.289062 31.15625 18.183594 31.101562 18.183594 31.203125 L 18.183594 32.839844 C 18.183594 32.839844 18.183594 32.910156 18.136719 32.847656 C 18.097656 32.792969 17.257812 31.4375 17.257812 31.4375 C 17.257812 31.4375 17.257812 32.289062 17.257812 32.375 C 17.253906 32.476562 17.367188 32.46875 17.367188 32.519531 C 17.367188 32.570312 17.246094 32.542969 17.171875 32.527344 C 17.097656 32.515625 16.984375 32.527344 16.984375 32.460938 C 16.984375 32.398438 17.085938 32.496094 17.085938 32.34375 L 17.085938 30.949219 C 17.085938 30.84375 16.976562 30.835938 16.976562 30.785156 M 17.773438 28.277344 C 17.773438 28.214844 18.039062 28.324219 18.25 28.382812 C 18.460938 28.445312 18.855469 28.511719 18.855469 28.640625 C 18.855469 28.796875 18.898438 28.949219 18.84375 28.949219 C 18.816406 28.949219 18.75 28.746094 18.6875 28.683594 C 18.589844 28.585938 18.390625 28.539062 18.335938 28.53125 C 18.28125 28.519531 18.292969 28.523438 18.292969 28.5625 L 18.292969 29.070312 C 18.292969 29.070312 18.429688 29.136719 18.503906 29.105469 C 18.578125 29.070312 18.589844 28.949219 18.632812 28.960938 C 18.675781 28.972656 18.660156 29.0625 18.652344 29.238281 C 18.644531 29.414062 18.667969 29.574219 18.621094 29.558594 C 18.578125 29.539062 18.574219 29.390625 18.484375 29.300781 C 18.390625 29.214844 18.289062 29.203125 18.289062 29.203125 L 18.289062 30.03125 C 18.289062 30.03125 18.390625 30.144531 18.601562 30.074219 C 18.8125 30.007812 18.960938 29.867188 18.996094 29.898438 C 19.027344 29.933594 19.011719 29.980469 18.910156 30.140625 C 18.808594 30.300781 18.753906 30.402344 18.652344 30.355469 C 18.550781 30.3125 18.320312 30.226562 18.179688 30.160156 C 18.035156 30.097656 17.742188 30.023438 17.742188 29.964844 C 17.742188 29.902344 17.886719 30.015625 17.886719 29.839844 L 17.886719 28.417969 C 17.886719 28.347656 17.773438 28.324219 17.773438 28.277344 M 17.429688 28.035156 C 17.503906 28.035156 17.488281 28.308594 17.5 28.398438 C 17.519531 28.570312 17.570312 28.722656 17.519531 28.726562 C 17.4375 28.730469 17.339844 28.457031 17.207031 28.320312 C 17.085938 28.195312 16.632812 27.960938 16.632812 28.917969 C 16.632812 29.738281 16.988281 29.71875 17.183594 29.660156 C 17.371094 29.597656 17.453125 29.449219 17.472656 29.464844 C 17.496094 29.480469 17.316406 29.867188 16.921875 29.914062 C 16.523438 29.957031 16.136719 29.570312 16.136719 28.960938 C 16.136719 28.351562 16.433594 27.976562 16.8125 27.976562 C 17.117188 27.976562 17.203125 28.1875 17.335938 28.1875 C 17.421875 28.1875 17.34375 28.035156 17.429688 28.035156 M 18.449219 25.863281 C 18.464844 25.789062 18.601562 25.882812 18.824219 25.976562 C 19.046875 26.066406 19.210938 26.113281 19.199219 26.152344 C 19.183594 26.191406 19.027344 26.128906 19.046875 26.234375 C 19.066406 26.339844 19.316406 27.160156 19.316406 27.160156 C 19.316406 27.160156 19.605469 26.472656 19.613281 26.445312 C 19.636719 26.359375 19.535156 26.347656 19.546875 26.304688 C 19.558594 26.261719 19.644531 26.320312 19.714844 26.359375 C 19.789062 26.398438 19.902344 26.4375 19.882812 26.484375 C 19.863281 26.53125 19.777344 26.421875 19.742188 26.503906 C 19.710938 26.585938 19.125 27.894531 19.125 27.894531 L 18.542969 26.015625 C 18.511719 25.90625 18.441406 25.914062 18.449219 25.863281 M 17.117188 25.359375 C 17.117188 25.316406 17.199219 25.351562 17.199219 25.351562 L 17.71875 25.539062 C 17.71875 25.539062 17.808594 25.570312 17.804688 25.609375 C 17.800781 25.652344 17.628906 25.558594 17.628906 25.714844 L 17.628906 27.175781 C 17.628906 27.175781 17.667969 27.273438 17.839844 27.203125 C 18.011719 27.132812 18.269531 26.960938 18.269531 26.960938 C 18.269531 26.960938 18.390625 26.902344 18.359375 26.984375 C 18.332031 27.070312 18.207031 27.339844 18.207031 27.339844 C 18.207031 27.339844 18.179688 27.445312 18.042969 27.421875 C 17.902344 27.398438 17.5625 27.292969 17.464844 27.265625 C 17.371094 27.238281 17.105469 27.160156 17.105469 27.160156 C 17.105469 27.160156 17.054688 27.148438 17.054688 27.109375 C 17.054688 27.066406 17.21875 27.109375 17.21875 26.980469 L 17.21875 25.550781 C 17.21875 25.421875 17.117188 25.421875 17.117188 25.359375 M 19.125 30.519531 C 19.125 30.417969 19.265625 30.558594 19.265625 30.398438 L 19.265625 28.988281 C 19.265625 28.8125 19.183594 28.816406 19.183594 28.746094 C 19.183594 28.675781 19.339844 28.777344 19.375 28.796875 C 19.414062 28.8125 19.820312 29.019531 19.863281 29.039062 C 19.90625 29.0625 20.335938 29.238281 20.335938 29.710938 C 20.335938 30.039062 20.066406 29.984375 20.066406 29.984375 C 20.066406 29.984375 20.335938 30.144531 20.351562 30.386719 C 20.371094 30.625 20.402344 30.828125 20.402344 30.859375 C 20.402344 30.894531 20.449219 31.03125 20.597656 30.902344 C 20.597656 30.902344 20.617188 31.191406 20.289062 31.085938 C 20.078125 31.015625 20.015625 30.816406 20 30.683594 C 19.984375 30.550781 19.910156 29.90625 19.621094 29.917969 L 19.621094 30.5625 C 19.621094 30.734375 19.722656 30.6875 19.722656 30.785156 C 19.722656 30.851562 19.574219 30.75 19.441406 30.695312 C 19.242188 30.609375 19.125 30.578125 19.125 30.519531 M 19.621094 29.082031 L 19.621094 29.738281 C 19.664062 29.753906 19.992188 29.964844 19.992188 29.558594 C 19.992188 29.152344 19.621094 29.082031 19.621094 29.082031 M 18.90625 31.542969 C 18.9375 31.441406 18.84375 31.410156 18.859375 31.367188 C 18.875 31.335938 19.007812 31.40625 19.089844 31.445312 C 19.167969 31.484375 19.292969 31.515625 19.324219 31.625 C 19.355469 31.734375 19.773438 33.160156 19.816406 33.292969 C 19.859375 33.445312 19.949219 33.402344 19.921875 33.472656 C 19.910156 33.496094 19.789062 33.4375 19.542969 33.34375 C 19.34375 33.261719 19.242188 33.238281 19.242188 33.203125 C 19.242188 33.140625 19.445312 33.246094 19.398438 33.109375 C 19.367188 33.015625 19.296875 32.769531 19.296875 32.769531 L 18.734375 32.585938 L 18.652344 32.859375 C 18.613281 32.996094 18.742188 32.972656 18.71875 33.023438 C 18.703125 33.050781 18.625 33.015625 18.519531 32.972656 C 18.421875 32.933594 18.378906 32.925781 18.382812 32.898438 C 18.386719 32.847656 18.464844 32.917969 18.503906 32.820312 C 18.542969 32.722656 18.878906 31.628906 18.90625 31.542969 M 18.996094 31.730469 L 18.800781 32.359375 L 19.238281 32.507812 Z M 30.277344 14.050781 L 30.277344 32.785156 C 30.484375 43.976562 21.332031 47.945312 15.292969 47.945312 C 9.25 47.945312 0.0976562 43.976562 0.304688 32.785156 L 0.304688 14.050781 L 5.890625 14.050781 C 5.863281 13.707031 5.957031 13.464844 5.964844 13.453125 C 13.59375 11.925781 17.285156 11.855469 24.910156 13.457031 C 25.074219 13.65625 25.105469 13.867188 25.078125 14.050781 Z M 3.097656 41.203125 L 8.949219 34.976562 L 8.949219 33.15625 L 8.285156 33.132812 C 8.285156 33.132812 7.828125 33.003906 7.941406 32.554688 C 8.042969 32.148438 8.476562 32.238281 8.476562 32.238281 C 8.476562 32.238281 8.375 31.863281 8.757812 31.691406 C 8.828125 31.660156 8.890625 31.648438 8.949219 31.648438 L 8.949219 30.441406 L 1.640625 38.222656 C 2.015625 39.328125 2.511719 40.320312 3.097656 41.203125 M 10.378906 25.285156 C 10.457031 25.25 10.539062 25.210938 10.617188 25.171875 C 10.902344 25.03125 11.410156 24.765625 11.957031 24.53125 C 12.492188 24.304688 13.128906 24.082031 13.640625 24.082031 C 14.152344 24.082031 14.566406 24.238281 14.847656 24.390625 C 14.988281 24.464844 15.101562 24.542969 15.175781 24.601562 L 15.207031 24.625 C 15.214844 24.609375 15.226562 24.59375 15.242188 24.578125 C 15.300781 24.503906 15.386719 24.421875 15.511719 24.34375 C 15.761719 24.1875 16.144531 24.0625 16.71875 24.0625 C 17.328125 24.0625 18.007812 24.304688 18.554688 24.550781 L 18.679688 24.609375 L 28.078125 14.601562 L 23.820312 14.601562 L 15.542969 23.417969 L 15.542969 19.171875 L 19.835938 14.601562 L 0.855469 14.601562 L 0.855469 32.789062 C 0.839844 33.46875 0.863281 34.121094 0.921875 34.746094 L 5.015625 30.382812 L 8.949219 30.382812 L 8.949219 26.910156 C 8.875 27.011719 8.765625 26.992188 8.765625 26.992188 C 8.765625 26.992188 8.863281 26.691406 8.589844 26.648438 C 8.570312 26.644531 8.546875 26.644531 8.523438 26.644531 C 8.367188 26.644531 8.28125 26.722656 8.1875 26.796875 C 8.042969 26.910156 7.613281 27.414062 7.527344 27.496094 C 7.445312 27.414062 7.011719 26.910156 6.867188 26.796875 C 6.773438 26.722656 6.6875 26.644531 6.535156 26.644531 C 6.507812 26.644531 6.484375 26.644531 6.464844 26.648438 C 6.191406 26.691406 6.292969 26.992188 6.292969 26.992188 C 6.292969 26.992188 6.042969 27.03125 6.042969 26.65625 C 6.042969 26.390625 6.253906 26.234375 6.445312 26.183594 C 6.726562 26.117188 7.007812 26.097656 7.0625 25.628906 C 7.0625 25.535156 7.046875 25.515625 7.046875 25.515625 C 7.046875 25.515625 6.945312 25.667969 6.695312 25.789062 C 6.402344 25.941406 5.613281 25.933594 5.632812 26.382812 C 5.628906 26.566406 5.824219 26.546875 5.824219 26.546875 C 5.824219 26.546875 5.816406 26.628906 5.683594 26.648438 C 5.652344 26.652344 5.617188 26.65625 5.578125 26.652344 C 5.394531 26.625 5.332031 26.433594 5.34375 26.191406 C 5.355469 26.035156 5.253906 25.835938 5.054688 25.863281 C 5.023438 25.871094 4.984375 25.882812 4.945312 25.902344 C 4.792969 25.992188 4.847656 26.132812 4.847656 26.132812 C 4.847656 26.132812 4.675781 26.039062 4.703125 25.839844 C 4.726562 25.667969 4.835938 25.589844 4.996094 25.523438 C 5.019531 25.519531 5.035156 25.515625 5.054688 25.515625 C 5.261719 25.484375 5.433594 25.542969 5.433594 25.542969 C 5.433594 25.542969 5.378906 25.386719 5.398438 25.234375 C 5.417969 25.097656 5.488281 24.964844 5.6875 24.925781 C 5.984375 24.871094 6.046875 25.070312 6.003906 25.183594 C 5.988281 25.191406 5.933594 25.113281 5.851562 25.125 C 5.835938 25.128906 5.824219 25.132812 5.8125 25.136719 C 5.761719 25.164062 5.730469 25.195312 5.714844 25.234375 C 5.667969 25.351562 5.765625 25.5 5.78125 25.523438 C 5.839844 25.605469 6.023438 25.660156 6.253906 25.617188 C 6.519531 25.558594 6.710938 25.386719 6.800781 25.234375 C 6.851562 25.152344 6.871094 25.078125 6.863281 25.027344 L 7.007812 23.417969 C 7.007812 23.417969 7.054688 23.003906 6.773438 22.957031 C 6.742188 22.949219 6.707031 22.949219 6.671875 22.953125 C 6.4375 22.992188 6.1875 23.308594 6.265625 23.707031 C 6.324219 24.011719 6.167969 24.242188 6.019531 24.277344 C 5.828125 24.324219 5.710938 24.285156 5.644531 24.144531 C 5.980469 24.125 5.957031 23.855469 5.851562 23.761719 C 5.808594 23.722656 5.742188 23.710938 5.667969 23.722656 C 5.355469 23.769531 4.863281 24.199219 4.785156 24.453125 C 4.714844 24.683594 4.886719 24.625 4.960938 24.820312 C 5.019531 24.976562 4.886719 25.097656 4.886719 25.097656 C 4.882812 25.152344 4.875 25.195312 4.867188 25.234375 C 4.832031 25.367188 4.761719 25.410156 4.695312 25.421875 C 4.644531 25.429688 4.597656 25.414062 4.570312 25.40625 C 4.65625 25.371094 4.679688 25.292969 4.6875 25.234375 C 4.691406 25.1875 4.6875 25.152344 4.6875 25.152344 C 4.6875 25.152344 4.59375 25.164062 4.511719 25.039062 C 4.417969 24.890625 4.535156 24.847656 4.433594 24.6875 C 4.328125 24.53125 4.039062 24.363281 3.8125 24.332031 C 3.796875 24.332031 3.78125 24.332031 3.769531 24.335938 C 3.722656 24.339844 3.679688 24.363281 3.613281 24.375 C 3.59375 24.378906 3.574219 24.378906 3.546875 24.378906 C 3.367188 24.382812 3.417969 24.273438 3.269531 24.285156 C 3.195312 24.300781 3.148438 24.375 3.175781 24.480469 C 3.179688 24.496094 3.167969 24.503906 3.167969 24.503906 C 3.085938 24.449219 3.050781 24.375 3.046875 24.285156 C 3.046875 24.054688 3.195312 23.890625 3.332031 23.878906 C 3.5 23.863281 3.578125 23.964844 3.589844 23.984375 C 3.679688 23.597656 3.378906 23.730469 3.230469 23.542969 C 3.132812 23.414062 3.171875 23.351562 3.1875 23.304688 C 3.207031 23.234375 3.085938 23.226562 2.992188 23.242188 C 2.96875 23.246094 2.945312 23.25 2.925781 23.257812 C 2.910156 23.242188 2.957031 23.0625 3.144531 23.03125 C 3.210938 23.023438 3.292969 23.03125 3.398438 23.070312 C 3.496094 23.039062 3.589844 23.085938 3.625 23.15625 C 3.667969 23.234375 3.632812 23.328125 3.644531 23.425781 C 3.671875 23.683594 3.832031 23.675781 3.855469 23.671875 C 3.714844 23.304688 3.890625 23.195312 3.910156 23.140625 C 3.925781 23.082031 3.90625 23.003906 3.8125 22.972656 C 3.792969 22.964844 3.769531 22.949219 3.796875 22.941406 C 3.796875 22.941406 4.148438 22.925781 4.203125 23.15625 C 4.203125 23.15625 4.355469 23.234375 4.359375 23.425781 C 4.363281 23.660156 4.234375 23.683594 4.1875 23.730469 C 4.222656 23.976562 4.367188 24.019531 4.503906 23.996094 C 4.636719 23.976562 4.761719 23.898438 4.761719 23.898438 C 4.992188 23.804688 5.472656 23.507812 5.34375 23.269531 C 5.285156 23.15625 5.1875 23.109375 5.082031 23.125 C 5.03125 23.132812 4.976562 23.15625 4.925781 23.191406 C 4.789062 23.324219 4.855469 23.5 4.855469 23.5 C 4.644531 23.554688 4.546875 23.1875 4.679688 23.03125 C 4.769531 22.921875 4.882812 22.878906 5.003906 22.859375 C 5.144531 22.835938 5.292969 22.839844 5.433594 22.8125 C 5.601562 22.777344 5.730469 22.671875 5.855469 22.453125 C 5.949219 22.300781 5.953125 22.089844 5.871094 21.921875 C 5.789062 21.738281 5.621094 21.507812 5.382812 21.464844 C 5.339844 21.863281 5.121094 22.175781 4.851562 22.367188 C 4.785156 22.410156 4.699219 22.4375 4.640625 22.445312 C 4.59375 22.453125 4.5625 22.449219 4.574219 22.4375 C 4.921875 22.027344 4.832031 21.601562 4.824219 21.558594 C 4.796875 21.605469 4.523438 22.109375 4.039062 22.320312 C 3.992188 22.339844 3.941406 22.355469 3.894531 22.363281 C 3.628906 22.402344 3.367188 22.28125 3.472656 22.269531 C 3.644531 22.246094 4.34375 21.839844 4.132812 20.980469 C 4.105469 21.027344 3.800781 21.578125 3.421875 21.835938 C 3.261719 21.945312 3.09375 22 2.945312 22.023438 C 2.644531 22.070312 2.417969 21.988281 2.460938 21.949219 C 2.460938 21.949219 3.285156 21.5625 3.292969 21.191406 C 3.265625 21.210938 3.042969 21.382812 2.785156 21.421875 C 2.75 21.425781 2.714844 21.429688 2.679688 21.429688 C 1.980469 21.429688 1.980469 20.925781 1.980469 20.925781 C 2.027344 20.933594 2.683594 20.976562 3.21875 19.839844 C 3.21875 19.839844 2.867188 19.960938 2.464844 20.003906 C 2.230469 20.03125 2.128906 19.882812 2.15625 19.882812 C 2.199219 19.898438 2.246094 19.902344 2.304688 19.894531 C 2.4375 19.871094 2.625 19.789062 2.863281 19.605469 C 2.800781 19.578125 1.941406 19.195312 2.273438 18.609375 C 2.273438 18.609375 2.511719 18.816406 2.800781 18.839844 C 3.019531 18.859375 3.390625 18.820312 3.480469 18.605469 C 3.480469 18.605469 3.019531 18.578125 2.566406 18.289062 C 2.296875 18.125 2.191406 17.726562 2.289062 17.839844 C 2.390625 17.960938 2.492188 17.996094 2.648438 18.035156 C 2.769531 18.066406 2.851562 18.035156 2.851562 18.035156 C 2.851562 18.035156 2.183594 17.402344 2.605469 16.914062 C 2.605469 16.914062 2.828125 17.542969 3.382812 17.542969 C 3.382812 17.542969 3.101562 17.285156 3.046875 16.972656 C 3.007812 16.757812 3.023438 16.476562 3.0625 16.554688 C 3.089844 16.613281 3.148438 16.710938 3.1875 16.785156 C 3.257812 16.910156 3.40625 17.074219 3.523438 17.175781 C 3.523438 17.175781 3.4375 16.847656 3.554688 16.550781 C 3.570312 16.503906 3.726562 16.253906 3.734375 16.316406 C 3.734375 16.316406 3.738281 16.511719 3.75 16.574219 C 3.78125 16.789062 3.863281 17.054688 4.261719 17.460938 C 4.769531 17.976562 5.320312 17.972656 5.324219 18.296875 C 5.304688 18.683594 4.832031 18.632812 4.519531 18.605469 C 4.410156 18.605469 4.425781 18.769531 4.515625 18.886719 C 4.773438 19.234375 5.871094 19.316406 6.214844 18.753906 C 6.339844 18.558594 6.371094 18.324219 6.289062 18.105469 C 6.1875 17.8125 5.949219 17.800781 5.5 17.703125 C 5.183594 17.636719 5.269531 17.492188 5.316406 17.492188 C 5.316406 17.492188 5.414062 17.546875 5.507812 17.546875 C 5.742188 17.550781 5.601562 17.246094 5.574219 17.25 C 5.515625 17.261719 5.261719 17.363281 5.042969 17.382812 C 4.761719 17.40625 4.429688 17.292969 4.429688 17.101562 C 4.429688 16.871094 4.722656 16.804688 4.707031 16.867188 C 4.707031 16.878906 4.535156 17.195312 5.046875 17.175781 C 5.207031 17.171875 5.535156 17.152344 5.535156 17.140625 C 5.523438 17.054688 5.371094 16.929688 5.257812 16.929688 C 5.171875 16.929688 5.089844 16.953125 4.933594 16.9375 C 4.878906 16.796875 5.027344 16.660156 5.132812 16.609375 C 5.234375 16.554688 5.308594 16.578125 5.355469 16.5625 C 5.414062 16.542969 5.449219 16.355469 5.792969 16.347656 C 5.972656 16.347656 6.234375 16.472656 6.355469 16.472656 C 6.476562 16.472656 6.6875 16.394531 6.710938 16.429688 C 6.730469 16.472656 6.625 16.59375 6.644531 16.703125 C 6.636719 16.953125 7.070312 17.945312 7.527344 18.039062 C 7.984375 17.945312 8.421875 16.953125 8.410156 16.703125 C 8.429688 16.59375 8.324219 16.472656 8.34375 16.429688 C 8.367188 16.394531 8.582031 16.472656 8.703125 16.472656 C 8.820312 16.472656 9.082031 16.347656 9.261719 16.347656 C 9.605469 16.355469 9.644531 16.542969 9.703125 16.5625 C 9.746094 16.578125 9.820312 16.554688 9.921875 16.609375 C 10.027344 16.660156 10.175781 16.796875 10.121094 16.9375 C 9.964844 16.953125 9.882812 16.929688 9.796875 16.929688 C 9.683594 16.929688 9.53125 17.054688 9.519531 17.140625 C 9.519531 17.152344 9.847656 17.171875 10.007812 17.175781 C 10.523438 17.195312 10.351562 16.878906 10.347656 16.867188 C 10.332031 16.804688 10.625 16.871094 10.625 17.101562 C 10.625 17.292969 10.292969 17.40625 10.015625 17.382812 C 9.796875 17.363281 9.542969 17.261719 9.480469 17.25 C 9.457031 17.246094 9.3125 17.550781 9.546875 17.546875 C 9.644531 17.546875 9.738281 17.492188 9.738281 17.492188 C 9.785156 17.492188 9.871094 17.636719 9.554688 17.703125 C 9.105469 17.800781 8.871094 17.8125 8.765625 18.105469 C 8.683594 18.324219 8.71875 18.558594 8.839844 18.753906 C 9.183594 19.316406 10.28125 19.234375 10.539062 18.886719 C 10.628906 18.769531 10.644531 18.605469 10.535156 18.605469 C 10.226562 18.632812 9.75 18.683594 9.730469 18.296875 C 9.734375 17.972656 10.285156 17.976562 10.792969 17.460938 C 11.191406 17.054688 11.273438 16.789062 11.308594 16.574219 C 11.316406 16.511719 11.320312 16.316406 11.320312 16.316406 C 11.332031 16.253906 11.484375 16.503906 11.503906 16.550781 C 11.617188 16.847656 11.53125 17.175781 11.53125 17.175781 C 11.652344 17.074219 11.796875 16.910156 11.867188 16.785156 C 11.90625 16.710938 11.964844 16.613281 11.992188 16.554688 C 12.03125 16.476562 12.046875 16.757812 12.007812 16.972656 C 11.953125 17.285156 11.671875 17.542969 11.671875 17.542969 C 12.226562 17.542969 12.449219 16.914062 12.449219 16.914062 C 12.871094 17.402344 12.207031 18.035156 12.207031 18.035156 C 12.207031 18.035156 12.289062 18.066406 12.410156 18.035156 C 12.5625 17.996094 12.664062 17.960938 12.765625 17.839844 C 12.863281 17.726562 12.757812 18.125 12.492188 18.289062 C 12.035156 18.578125 11.574219 18.605469 11.574219 18.605469 C 11.664062 18.820312 12.039062 18.859375 12.253906 18.839844 C 12.542969 18.816406 12.78125 18.609375 12.78125 18.609375 C 13.113281 19.195312 12.253906 19.578125 12.191406 19.605469 C 12.429688 19.789062 12.617188 19.871094 12.75 19.894531 C 12.808594 19.902344 12.855469 19.898438 12.898438 19.882812 C 12.925781 19.882812 12.828125 20.03125 12.589844 20.003906 C 12.1875 19.960938 11.839844 19.839844 11.839844 19.839844 C 12.375 20.976562 13.027344 20.933594 13.078125 20.925781 C 13.078125 20.925781 13.078125 21.429688 12.375 21.429688 C 12.339844 21.429688 12.304688 21.425781 12.269531 21.421875 C 12.011719 21.382812 11.789062 21.210938 11.761719 21.191406 C 11.773438 21.5625 12.59375 21.949219 12.59375 21.949219 C 12.636719 21.988281 12.410156 22.070312 12.113281 22.023438 C 11.960938 22 11.796875 21.945312 11.632812 21.835938 C 11.253906 21.578125 10.949219 21.027344 10.921875 20.980469 C 10.710938 21.839844 11.410156 22.246094 11.582031 22.269531 C 11.6875 22.28125 11.425781 22.402344 11.164062 22.363281 C 11.113281 22.355469 11.066406 22.339844 11.019531 22.320312 C 10.53125 22.109375 10.257812 21.605469 10.230469 21.558594 C 10.222656 21.601562 10.132812 22.027344 10.480469 22.4375 C 10.492188 22.449219 10.460938 22.453125 10.414062 22.445312 C 10.355469 22.4375 10.269531 22.410156 10.203125 22.367188 C 9.9375 22.175781 9.71875 21.863281 9.671875 21.464844 C 9.433594 21.507812 9.265625 21.738281 9.183594 21.921875 C 9.105469 22.089844 9.105469 22.300781 9.199219 22.453125 C 9.324219 22.671875 9.453125 22.777344 9.621094 22.8125 C 9.761719 22.839844 9.914062 22.835938 10.050781 22.859375 C 10.171875 22.878906 10.285156 22.921875 10.378906 23.03125 C 10.507812 23.1875 10.410156 23.554688 10.199219 23.5 C 10.199219 23.5 10.269531 23.324219 10.128906 23.191406 C 10.078125 23.15625 10.027344 23.132812 9.976562 23.125 C 9.867188 23.109375 9.769531 23.15625 9.710938 23.269531 C 9.582031 23.507812 10.0625 23.804688 10.292969 23.898438 C 10.292969 23.898438 10.417969 23.976562 10.550781 23.996094 C 10.6875 24.019531 10.835938 23.976562 10.871094 23.730469 C 10.820312 23.683594 10.691406 23.660156 10.695312 23.425781 C 10.699219 23.234375 10.851562 23.15625 10.851562 23.15625 C 10.90625 22.925781 11.257812 22.941406 11.257812 22.941406 C 11.289062 22.949219 11.261719 22.964844 11.242188 22.972656 C 11.152344 23.003906 11.128906 23.082031 11.148438 23.140625 C 11.164062 23.195312 11.339844 23.304688 11.203125 23.671875 C 11.222656 23.675781 11.382812 23.683594 11.410156 23.425781 C 11.421875 23.328125 11.390625 23.234375 11.429688 23.15625 C 11.464844 23.085938 11.558594 23.039062 11.65625 23.070312 C 11.761719 23.03125 11.84375 23.023438 11.910156 23.03125 C 12.101562 23.0625 12.148438 23.242188 12.148438 23.242188 C 12.148438 23.242188 12.148438 23.261719 12.128906 23.257812 C 12.109375 23.25 12.089844 23.246094 12.0625 23.242188 C 11.96875 23.226562 11.847656 23.234375 11.871094 23.304688 C 11.882812 23.351562 11.921875 23.414062 11.824219 23.542969 C 11.675781 23.730469 11.375 23.597656 11.464844 23.984375 C 11.476562 23.964844 11.554688 23.863281 11.722656 23.878906 C 11.863281 23.890625 12.007812 24.054688 12.007812 24.285156 C 12.003906 24.375 11.96875 24.449219 11.890625 24.503906 C 11.890625 24.503906 11.875 24.496094 11.878906 24.480469 C 11.90625 24.375 11.859375 24.300781 11.785156 24.285156 C 11.640625 24.273438 11.6875 24.382812 11.507812 24.378906 C 11.484375 24.378906 11.460938 24.378906 11.441406 24.375 C 11.375 24.363281 11.332031 24.339844 11.289062 24.335938 C 11.273438 24.332031 11.257812 24.332031 11.246094 24.332031 C 11.019531 24.363281 10.726562 24.53125 10.625 24.6875 C 10.519531 24.847656 10.636719 24.890625 10.542969 25.039062 C 10.460938 25.164062 10.367188 25.152344 10.367188 25.152344 C 10.367188 25.152344 10.363281 25.1875 10.367188 25.234375 C 10.371094 25.25 10.375 25.265625 10.378906 25.285156 M 9.78125 25.511719 C 9.921875 25.46875 10.078125 25.414062 10.238281 25.347656 C 10.21875 25.316406 10.203125 25.28125 10.191406 25.234375 C 10.179688 25.195312 10.171875 25.152344 10.167969 25.097656 C 10.167969 25.097656 10.039062 24.976562 10.097656 24.820312 C 10.167969 24.625 10.339844 24.683594 10.269531 24.453125 C 10.191406 24.199219 9.699219 23.769531 9.386719 23.722656 C 9.3125 23.710938 9.25 23.722656 9.203125 23.761719 C 9.097656 23.855469 9.078125 24.125 9.410156 24.144531 C 9.34375 24.285156 9.226562 24.324219 9.035156 24.277344 C 8.886719 24.242188 8.730469 24.011719 8.789062 23.707031 C 8.867188 23.308594 8.621094 22.992188 8.382812 22.953125 C 8.347656 22.949219 8.3125 22.949219 8.28125 22.957031 C 8 23.003906 8.046875 23.417969 8.046875 23.417969 L 8.191406 25.027344 C 8.183594 25.078125 8.207031 25.152344 8.253906 25.234375 C 8.347656 25.386719 8.535156 25.558594 8.800781 25.617188 C 9.03125 25.660156 9.214844 25.605469 9.273438 25.523438 C 9.289062 25.5 9.390625 25.351562 9.339844 25.234375 C 9.324219 25.195312 9.292969 25.164062 9.246094 25.136719 C 9.230469 25.132812 9.21875 25.128906 9.207031 25.125 C 9.121094 25.113281 9.066406 25.191406 9.050781 25.183594 C 9.007812 25.070312 9.070312 24.871094 9.367188 24.925781 C 9.570312 24.964844 9.640625 25.097656 9.65625 25.234375 C 9.675781 25.386719 9.621094 25.542969 9.621094 25.542969 C 9.621094 25.542969 9.6875 25.523438 9.78125 25.511719 M 8.949219 26.085938 C 8.945312 26.0625 8.945312 26.015625 8.953125 25.957031 C 8.734375 25.894531 8.496094 25.859375 8.359375 25.789062 C 8.109375 25.667969 8.007812 25.515625 8.007812 25.515625 C 8.007812 25.515625 7.992188 25.535156 7.996094 25.628906 C 8.046875 26.097656 8.328125 26.117188 8.613281 26.183594 C 8.738281 26.214844 8.871094 26.296875 8.949219 26.425781 Z M 19.09375 35.144531 C 19.050781 35.234375 19.050781 35.40625 19.117188 35.492188 C 19.351562 35.804688 20.277344 35.902344 20.703125 35.5 C 20.148438 35.414062 19.628906 35.269531 19.09375 35.144531 M 21.667969 34.277344 C 21.804688 34.460938 21.964844 34.609375 22.128906 34.640625 C 22.585938 34.546875 23.019531 33.554688 23.007812 33.304688 C 23.03125 33.199219 22.925781 33.074219 22.945312 33.035156 C 22.96875 32.996094 23.179688 33.074219 23.300781 33.074219 C 23.421875 33.074219 23.683594 32.949219 23.863281 32.953125 C 24.207031 32.957031 24.242188 33.144531 24.300781 33.167969 C 24.347656 33.183594 24.421875 33.160156 24.523438 33.210938 C 24.628906 33.261719 24.777344 33.402344 24.722656 33.539062 C 24.566406 33.554688 24.484375 33.535156 24.398438 33.535156 C 24.285156 33.535156 24.132812 33.65625 24.121094 33.742188 C 24.121094 33.757812 24.449219 33.777344 24.609375 33.78125 C 25.121094 33.796875 24.949219 33.484375 24.945312 33.46875 C 24.933594 33.410156 25.226562 33.472656 25.226562 33.703125 C 25.226562 33.898438 24.890625 34.007812 24.613281 33.984375 C 24.394531 33.964844 24.140625 33.863281 24.082031 33.855469 C 24.054688 33.851562 23.914062 34.152344 24.148438 34.152344 C 24.242188 34.152344 24.339844 34.097656 24.339844 34.097656 C 24.386719 34.097656 24.472656 34.238281 24.15625 34.308594 C 23.707031 34.40625 23.46875 34.414062 23.367188 34.707031 C 23.285156 34.925781 23.316406 35.160156 23.4375 35.359375 C 23.78125 35.921875 24.882812 35.835938 25.140625 35.492188 C 25.230469 35.371094 25.246094 35.207031 25.136719 35.207031 C 24.824219 35.234375 24.351562 35.285156 24.332031 34.898438 C 24.335938 34.578125 24.886719 34.582031 25.394531 34.0625 C 25.792969 33.65625 25.875 33.390625 25.90625 33.179688 C 25.917969 33.117188 25.921875 32.917969 25.921875 32.917969 C 25.929688 32.855469 26.085938 33.105469 26.101562 33.152344 C 26.214844 33.453125 26.132812 33.78125 26.132812 33.78125 C 26.25 33.679688 26.398438 33.511719 26.46875 33.390625 C 26.507812 33.316406 26.566406 33.214844 26.59375 33.160156 C 26.632812 33.078125 26.648438 33.363281 26.609375 33.574219 C 26.554688 33.886719 26.273438 34.148438 26.273438 34.148438 C 26.828125 34.144531 27.050781 33.515625 27.050781 33.515625 C 27.472656 34.007812 26.804688 34.640625 26.804688 34.640625 C 26.804688 34.640625 26.890625 34.667969 27.007812 34.636719 C 27.164062 34.597656 27.265625 34.5625 27.367188 34.445312 C 27.464844 34.328125 27.359375 34.726562 27.089844 34.894531 C 26.636719 35.179688 26.171875 35.207031 26.171875 35.207031 C 26.265625 35.421875 26.640625 35.460938 26.851562 35.445312 C 27.144531 35.417969 27.382812 35.210938 27.382812 35.210938 C 27.714844 35.800781 26.855469 36.179688 26.792969 36.210938 C 27.03125 36.394531 27.21875 36.476562 27.351562 36.496094 C 27.410156 36.503906 27.457031 36.5 27.5 36.488281 C 27.527344 36.484375 27.425781 36.636719 27.1875 36.609375 C 26.789062 36.566406 26.4375 36.441406 26.4375 36.441406 C 26.972656 37.578125 27.628906 37.535156 27.675781 37.53125 C 27.675781 37.53125 27.675781 38.035156 26.976562 38.035156 C 26.941406 38.035156 26.90625 38.03125 26.871094 38.027344 C 26.609375 37.984375 26.390625 37.8125 26.359375 37.792969 C 26.371094 38.164062 27.195312 38.550781 27.195312 38.550781 C 27.234375 38.589844 27.007812 38.675781 26.710938 38.628906 C 26.5625 38.605469 26.394531 38.550781 26.234375 38.4375 C 25.855469 38.179688 25.550781 37.632812 25.523438 37.582031 C 25.3125 38.441406 26.007812 38.847656 26.183594 38.871094 C 26.289062 38.882812 26.027344 39.007812 25.765625 38.964844 C 25.714844 38.957031 25.664062 38.945312 25.617188 38.925781 C 25.128906 38.710938 24.855469 38.210938 24.832031 38.164062 C 24.824219 38.203125 24.730469 38.632812 25.082031 39.039062 C 25.09375 39.054688 25.0625 39.058594 25.015625 39.050781 C 24.957031 39.039062 24.871094 39.015625 24.804688 38.96875 C 24.535156 38.777344 24.316406 38.464844 24.273438 38.066406 C 24.035156 38.109375 23.867188 38.339844 23.785156 38.523438 C 23.703125 38.691406 23.707031 38.902344 23.800781 39.058594 C 23.925781 39.277344 24.054688 39.378906 24.222656 39.414062 C 24.363281 39.445312 24.511719 39.4375 24.652344 39.460938 C 24.773438 39.484375 24.886719 39.527344 24.976562 39.636719 C 25.109375 39.792969 25.011719 40.15625 24.796875 40.101562 C 24.796875 40.101562 24.867188 39.925781 24.730469 39.796875 C 24.679688 39.757812 24.625 39.738281 24.574219 39.730469 C 24.46875 39.710938 24.371094 39.757812 24.3125 39.871094 C 24.183594 40.113281 24.664062 40.410156 24.894531 40.5 C 24.894531 40.5 25.019531 40.578125 25.152344 40.601562 C 25.289062 40.621094 25.433594 40.582031 25.46875 40.332031 C 25.421875 40.285156 25.292969 40.265625 25.296875 40.027344 C 25.300781 39.839844 25.453125 39.757812 25.453125 39.757812 C 25.507812 39.53125 25.855469 39.542969 25.855469 39.542969 C 25.886719 39.550781 25.859375 39.570312 25.839844 39.574219 C 25.75 39.609375 25.730469 39.683594 25.746094 39.742188 C 25.765625 39.800781 25.941406 39.910156 25.800781 40.273438 C 25.824219 40.277344 25.980469 40.285156 26.011719 40.027344 C 26.023438 39.929688 25.988281 39.835938 26.03125 39.757812 C 26.066406 39.691406 26.160156 39.644531 26.257812 39.671875 C 26.363281 39.632812 26.445312 39.625 26.511719 39.636719 C 26.699219 39.664062 26.746094 39.84375 26.746094 39.84375 C 26.746094 39.84375 26.75 39.867188 26.730469 39.863281 C 26.710938 39.855469 26.6875 39.847656 26.664062 39.84375 C 26.570312 39.832031 26.449219 39.839844 26.46875 39.910156 C 26.480469 39.953125 26.523438 40.019531 26.421875 40.148438 C 26.277344 40.332031 25.976562 40.203125 26.066406 40.585938 C 26.078125 40.566406 26.15625 40.464844 26.324219 40.480469 C 26.460938 40.492188 26.609375 40.65625 26.609375 40.890625 C 26.601562 40.976562 26.570312 41.050781 26.488281 41.109375 C 26.488281 41.109375 26.476562 41.097656 26.480469 41.082031 C 26.503906 40.976562 26.460938 40.90625 26.382812 40.890625 C 26.238281 40.878906 26.289062 40.988281 26.105469 40.984375 C 26.082031 40.984375 26.0625 40.980469 26.042969 40.976562 C 25.972656 40.964844 25.933594 40.945312 25.886719 40.9375 C 25.875 40.9375 25.859375 40.933594 25.84375 40.9375 C 25.617188 40.964844 25.328125 41.132812 25.222656 41.292969 C 25.121094 41.449219 25.234375 41.496094 25.140625 41.640625 C 25.0625 41.765625 24.96875 41.757812 24.96875 41.757812 C 24.96875 41.757812 24.964844 41.792969 24.96875 41.835938 C 24.976562 41.898438 25 41.976562 25.082031 41.992188 C 25.082031 41.992188 25.105469 42.003906 25.085938 42.011719 C 25.058594 42.019531 25.011719 42.03125 24.960938 42.023438 C 24.894531 42.015625 24.824219 41.972656 24.789062 41.835938 C 24.78125 41.796875 24.773438 41.753906 24.769531 41.703125 C 24.769531 41.703125 24.636719 41.578125 24.695312 41.421875 C 24.769531 41.226562 24.941406 41.285156 24.871094 41.058594 C 24.792969 40.800781 24.296875 40.371094 23.988281 40.324219 C 23.914062 40.3125 23.847656 40.324219 23.804688 40.363281 C 23.699219 40.460938 23.675781 40.726562 24.011719 40.75 C 23.945312 40.886719 23.828125 40.925781 23.636719 40.882812 C 23.484375 40.847656 23.328125 40.613281 23.390625 40.308594 C 23.46875 39.910156 23.21875 39.59375 22.980469 39.558594 C 22.949219 39.550781 22.914062 39.550781 22.882812 39.558594 C 22.601562 39.605469 22.648438 40.019531 22.648438 40.019531 L 22.792969 41.628906 C 22.785156 41.679688 22.804688 41.753906 22.851562 41.835938 C 22.945312 41.988281 23.136719 42.164062 23.402344 42.21875 C 23.628906 42.261719 23.816406 42.207031 23.875 42.128906 C 23.890625 42.101562 23.988281 41.953125 23.941406 41.835938 C 23.921875 41.800781 23.894531 41.765625 23.84375 41.742188 C 23.832031 41.734375 23.820312 41.730469 23.804688 41.730469 C 23.722656 41.714844 23.667969 41.792969 23.652344 41.785156 C 23.605469 41.675781 23.671875 41.476562 23.96875 41.53125 C 24.167969 41.570312 24.238281 41.703125 24.257812 41.835938 C 24.277344 41.992188 24.222656 42.148438 24.222656 42.148438 C 24.222656 42.148438 24.394531 42.085938 24.601562 42.117188 C 24.621094 42.121094 24.640625 42.125 24.660156 42.128906 C 24.820312 42.195312 24.929688 42.273438 24.953125 42.441406 C 24.980469 42.640625 24.808594 42.738281 24.808594 42.738281 C 24.808594 42.738281 24.863281 42.59375 24.710938 42.507812 C 24.671875 42.484375 24.632812 42.472656 24.597656 42.46875 C 24.402344 42.4375 24.300781 42.640625 24.308594 42.792969 C 24.324219 43.035156 24.261719 43.230469 24.078125 43.253906 C 24.039062 43.257812 24.003906 43.257812 23.972656 43.253906 C 23.839844 43.234375 23.832031 43.152344 23.832031 43.152344 C 23.832031 43.152344 24.027344 43.167969 24.023438 42.988281 C 24.042969 42.535156 23.253906 42.542969 22.960938 42.394531 C 22.710938 42.273438 22.605469 42.117188 22.605469 42.117188 C 22.605469 42.117188 22.589844 42.136719 22.59375 42.230469 C 22.648438 42.699219 22.929688 42.722656 23.210938 42.785156 C 23.398438 42.835938 23.613281 42.992188 23.613281 43.257812 C 23.613281 43.636719 23.363281 43.59375 23.363281 43.59375 C 23.363281 43.59375 23.464844 43.292969 23.191406 43.25 C 23.171875 43.25 23.148438 43.246094 23.121094 43.246094 C 22.96875 43.246094 22.878906 43.324219 22.789062 43.398438 C 22.644531 43.515625 22.210938 44.019531 22.128906 44.101562 C 22.042969 44.019531 21.613281 43.515625 21.46875 43.398438 C 21.375 43.324219 21.289062 43.246094 21.132812 43.246094 C 21.109375 43.246094 21.085938 43.25 21.066406 43.25 C 20.792969 43.292969 20.890625 43.59375 20.890625 43.59375 C 20.890625 43.59375 20.644531 43.636719 20.644531 43.257812 C 20.644531 42.992188 20.855469 42.835938 21.042969 42.785156 C 21.328125 42.722656 21.609375 42.699219 21.660156 42.230469 C 21.664062 42.136719 21.648438 42.117188 21.648438 42.117188 C 21.648438 42.117188 21.546875 42.273438 21.296875 42.394531 C 21.003906 42.542969 20.214844 42.535156 20.234375 42.988281 C 20.226562 43.167969 20.425781 43.152344 20.425781 43.152344 C 20.425781 43.152344 20.414062 43.234375 20.28125 43.253906 C 20.253906 43.257812 20.21875 43.257812 20.175781 43.253906 C 19.992188 43.230469 19.933594 43.035156 19.945312 42.792969 C 19.957031 42.640625 19.855469 42.4375 19.65625 42.46875 C 19.621094 42.472656 19.585938 42.484375 19.542969 42.507812 C 19.394531 42.59375 19.445312 42.738281 19.445312 42.738281 C 19.445312 42.738281 19.277344 42.640625 19.300781 42.441406 C 19.324219 42.273438 19.4375 42.195312 19.597656 42.128906 C 19.617188 42.125 19.636719 42.121094 19.65625 42.117188 C 19.859375 42.085938 20.035156 42.148438 20.035156 42.148438 C 20.035156 42.148438 19.980469 41.992188 20 41.835938 C 20.015625 41.703125 20.085938 41.570312 20.289062 41.53125 C 20.585938 41.476562 20.648438 41.675781 20.605469 41.785156 C 20.585938 41.792969 20.535156 41.714844 20.449219 41.730469 C 20.4375 41.730469 20.425781 41.734375 20.410156 41.742188 C 20.359375 41.765625 20.332031 41.800781 20.316406 41.835938 C 20.265625 41.953125 20.367188 42.101562 20.382812 42.128906 C 20.441406 42.207031 20.625 42.261719 20.855469 42.21875 C 21.121094 42.164062 21.308594 41.988281 21.402344 41.835938 C 21.449219 41.753906 21.472656 41.679688 21.464844 41.628906 L 21.609375 40.019531 C 21.609375 40.019531 21.65625 39.605469 21.375 39.558594 C 21.339844 39.550781 21.308594 39.550781 21.273438 39.558594 C 21.035156 39.59375 20.789062 39.910156 20.867188 40.308594 C 20.925781 40.613281 20.769531 40.847656 20.621094 40.882812 C 20.429688 40.925781 20.3125 40.886719 20.246094 40.75 C 20.578125 40.726562 20.558594 40.460938 20.453125 40.363281 C 20.40625 40.324219 20.34375 40.3125 20.269531 40.324219 C 19.957031 40.371094 19.464844 40.800781 19.386719 41.058594 C 19.316406 41.285156 19.484375 41.226562 19.558594 41.421875 C 19.617188 41.578125 19.484375 41.703125 19.484375 41.703125 C 19.484375 41.753906 19.476562 41.796875 19.464844 41.835938 C 19.429688 41.972656 19.359375 42.015625 19.296875 42.023438 C 19.246094 42.03125 19.195312 42.019531 19.171875 42.011719 C 19.253906 41.976562 19.28125 41.898438 19.289062 41.835938 C 19.292969 41.792969 19.289062 41.757812 19.289062 41.757812 C 19.289062 41.757812 19.195312 41.765625 19.113281 41.640625 C 19.019531 41.496094 19.136719 41.449219 19.03125 41.292969 C 18.925781 41.132812 18.636719 40.964844 18.410156 40.9375 C 18.394531 40.933594 18.382812 40.9375 18.367188 40.9375 C 18.324219 40.945312 18.28125 40.964844 18.214844 40.976562 C 18.195312 40.980469 18.171875 40.984375 18.148438 40.984375 C 17.96875 40.988281 18.019531 40.878906 17.871094 40.890625 C 17.792969 40.90625 17.75 40.976562 17.777344 41.082031 C 17.78125 41.097656 17.769531 41.109375 17.769531 41.109375 C 17.6875 41.050781 17.652344 40.976562 17.648438 40.890625 C 17.644531 40.65625 17.792969 40.492188 17.933594 40.480469 C 18.101562 40.464844 18.175781 40.566406 18.191406 40.585938 C 18.28125 40.203125 17.976562 40.332031 17.832031 40.148438 C 17.734375 40.019531 17.773438 39.953125 17.785156 39.910156 C 17.804688 39.839844 17.683594 39.832031 17.59375 39.84375 C 17.566406 39.847656 17.542969 39.855469 17.527344 39.863281 C 17.507812 39.84375 17.554688 39.664062 17.746094 39.636719 C 17.8125 39.625 17.894531 39.632812 18 39.671875 C 18.097656 39.644531 18.191406 39.691406 18.226562 39.757812 C 18.269531 39.835938 18.230469 39.929688 18.246094 40.027344 C 18.273438 40.285156 18.429688 40.277344 18.453125 40.273438 C 18.316406 39.910156 18.492188 39.800781 18.507812 39.742188 C 18.527344 39.683594 18.503906 39.609375 18.414062 39.574219 C 18.394531 39.570312 18.367188 39.550781 18.398438 39.542969 C 18.398438 39.542969 18.75 39.53125 18.804688 39.757812 C 18.804688 39.757812 18.957031 39.839844 18.957031 40.027344 C 18.964844 40.265625 18.835938 40.285156 18.785156 40.332031 C 18.820312 40.582031 18.96875 40.621094 19.105469 40.601562 C 19.238281 40.578125 19.363281 40.5 19.363281 40.5 C 19.59375 40.410156 20.074219 40.113281 19.945312 39.871094 C 19.882812 39.757812 19.789062 39.710938 19.679688 39.730469 C 19.628906 39.738281 19.578125 39.757812 19.527344 39.796875 C 19.386719 39.925781 19.457031 40.101562 19.457031 40.101562 C 19.246094 40.15625 19.148438 39.792969 19.277344 39.636719 C 19.371094 39.527344 19.484375 39.484375 19.605469 39.460938 C 19.742188 39.4375 19.894531 39.445312 20.035156 39.414062 C 20.203125 39.378906 20.332031 39.277344 20.457031 39.058594 C 20.546875 38.902344 20.550781 38.691406 20.472656 38.523438 C 20.390625 38.339844 20.222656 38.109375 19.984375 38.066406 C 19.9375 38.464844 19.71875 38.777344 19.453125 38.96875 C 19.386719 39.015625 19.296875 39.039062 19.242188 39.050781 C 19.195312 39.058594 19.164062 39.054688 19.175781 39.039062 C 19.523438 38.632812 19.433594 38.203125 19.421875 38.164062 C 19.398438 38.210938 19.125 38.710938 18.640625 38.925781 C 18.589844 38.945312 18.542969 38.957031 18.492188 38.964844 C 18.230469 39.007812 17.96875 38.882812 18.074219 38.871094 C 18.246094 38.847656 18.945312 38.441406 18.734375 37.582031 C 18.707031 37.632812 18.402344 38.179688 18.023438 38.4375 C 17.859375 38.550781 17.695312 38.605469 17.542969 38.628906 C 17.246094 38.675781 17.019531 38.589844 17.0625 38.550781 C 17.0625 38.550781 17.882812 38.164062 17.894531 37.792969 C 17.867188 37.8125 17.644531 37.984375 17.386719 38.027344 C 17.351562 38.03125 17.316406 38.035156 17.28125 38.035156 C 16.578125 38.035156 16.578125 37.53125 16.578125 37.53125 C 16.628906 37.535156 17.28125 37.578125 17.816406 36.441406 C 17.816406 36.441406 17.46875 36.566406 17.066406 36.609375 C 16.828125 36.636719 16.726562 36.484375 16.757812 36.488281 C 16.796875 36.5 16.847656 36.503906 16.90625 36.496094 C 17.039062 36.476562 17.226562 36.394531 17.464844 36.210938 C 17.402344 36.179688 16.542969 35.800781 16.875 35.210938 C 16.875 35.210938 17.109375 35.417969 17.402344 35.445312 C 17.617188 35.460938 17.992188 35.421875 18.082031 35.207031 C 18.082031 35.207031 17.621094 35.179688 17.164062 34.894531 C 17.152344 34.882812 17.136719 34.875 17.125 34.867188 C 16.917969 34.863281 16.703125 34.875 16.480469 34.898438 C 16.335938 35.472656 15.855469 35.894531 15.292969 35.894531 C 14.730469 35.894531 14.253906 35.476562 14.105469 34.90625 C 13.738281 34.839844 13.386719 34.832031 13.039062 34.859375 L 4.992188 43.433594 C 5.769531 44.160156 6.617188 44.777344 7.503906 45.289062 L 15.03125 37.277344 L 15.03125 41.519531 L 10.304688 46.550781 C 12.023438 47.132812 13.757812 47.398438 15.292969 47.398438 C 21.160156 47.398438 29.929688 43.550781 29.726562 32.789062 L 29.726562 25.867188 L 25.96875 29.875 L 21.980469 29.875 L 29.726562 21.625 L 29.726562 17.089844 L 21.605469 25.738281 C 21.644531 25.769531 21.667969 25.804688 21.667969 25.839844 Z M 20.792969 36.871094 L 23.464844 36.871094 L 23.464844 35.796875 L 20.792969 35.796875 Z M 22.128906 38.96875 C 23.328125 38.96875 23.433594 37.832031 23.433594 37.832031 L 20.8125 37.832031 C 20.8125 37.832031 20.925781 38.96875 22.128906 38.96875 M 6.191406 20.269531 L 8.863281 20.269531 L 8.863281 19.195312 L 6.191406 19.195312 Z M 7.527344 22.363281 C 8.730469 22.363281 8.835938 21.230469 8.835938 21.230469 L 6.214844 21.230469 C 6.214844 21.230469 6.328125 22.363281 7.527344 22.363281 M 14.734375 34.71875 C 14.734375 35.035156 14.996094 35.292969 15.3125 35.292969 C 15.628906 35.292969 15.886719 35.035156 15.886719 34.71875 C 15.886719 34.402344 15.628906 34.144531 15.3125 34.144531 C 14.996094 34.144531 14.734375 34.402344 14.734375 34.71875 M 9.316406 26.058594 L 9.316406 34.871094 C 9.316406 34.871094 9.410156 34.992188 10 34.828125 C 10.679688 34.644531 11.519531 33.78125 12.699219 33.523438 C 13.582031 33.332031 14.773438 33.609375 15.050781 33.800781 L 15.050781 24.972656 C 15.050781 24.972656 14.519531 24.449219 13.640625 24.449219 C 12.78125 24.449219 11.335938 25.21875 10.78125 25.5 C 10.296875 25.738281 9.789062 25.921875 9.417969 25.957031 C 9.304688 25.96875 9.316406 26.058594 9.316406 26.058594 M 17.042969 33.503906 C 18.574219 33.503906 19.371094 34.453125 19.890625 34.660156 C 21.097656 35.140625 21.300781 34.894531 21.300781 34.894531 L 21.300781 26.035156 C 21.300781 25.949219 21.171875 25.949219 21.171875 25.949219 C 21.171875 25.949219 19.992188 25.765625 19.589844 25.519531 C 19.203125 25.285156 17.769531 24.425781 16.71875 24.425781 C 15.667969 24.425781 15.480469 24.878906 15.480469 24.878906 L 15.480469 33.824219 C 15.480469 33.824219 15.972656 33.503906 17.042969 33.503906 "
       id="path20" />
  </g>
</svg>
