<svg xmlns="http://www.w3.org/2000/svg" viewBox="0 0 100 155.5"><path fill="#ed1639" d="M45.1 23c-1 0-1.6.4-2.2-.6-.7-1.3 1.3-3.2 2-3.6.9-.6 0-1.6-1-.6 0 0-1.7 2.3-2.7 2.3-1.9 0-1.9-2-1.9-2s-2-1.3-2-5.5c0-2 1-4 2.6-5.2 0 0 0-2.3 1.7-2.3 1.6 0 2.6 2.3 2.6 2.6 1 1.3 2 0 1.3-.6-2-2.3-2.3-4-.4-4.6.7-1.6 2.6-2.6 5-2.9 2.2 0 4.5 1.3 5.1 3 1.6.6 1.3 2.2 0 4.5-1 .6 0 2 1 .6 0 0 1-2.6 2.6-2.6s1.6 2.3 1.6 2.3S63 9.4 63 13c0 4.2-2.3 5.5-2.3 5.5s0 2-1.6 2c-1.3 0-2.6-2-3-2.3-.6-1-1.5 0-.6.6.7.7 2.3 2.3 2 3.3-.7 1.3-1.6 1-2.3 1 0 0-.6 1-1.6 1 4.8 3.5 12.3 1.5 13-1 0 0-1 .3-1-1 0-.7.6-1.3 2-1.3l-.4-2c0-1.6 1.3-3.2 2.6-3.2 1.6 0 2.6 1.3 2.6 3.2 0 .7-.3 1.7-1 2.3 1 .3 2 1 1.7 1.6 0 1.6-1.7 1.3-1.7 1.3 0 4 5.6 4.6 7.2 3.3-.7-2 0-2.6 1-3.3l1.6-1.3c.6-.3 1-1 .6-1.3-.3 0-1 0-1.3.7-.3 0-1 1.3-2.2 1-1.3 0-.7-1.7-1-2.6-1.3-5.2 0-8.8 5.2-10.8 0 0 2-2.2 3.5-1.3 1.7 1 .7 3.6.7 3.6l.6.3C89 9.1 92 6.5 95.8 6.5c2.6 0 3.9 1.3 4.2 3.6 0 5.2-4.9 3.2-4.5 1.3 0 0-1.3 0-2 1.3 0-.4 0-3.3-2.6-1.7l-2.3 3v2c-.6.6-1.3.9-1.3 1.5l-.3 2c-.3 1-1 1-1.3 1.6l-3.9 9.7s1.3 1.3 1 2.6c0 2-1.3 1.7-2 2.6a127.3 127.3 0 0 0-62 0c-.6-1-1.9-.6-2.2-2.6 0-1.3 1.3-2.2 1.3-2.2l-4-9.8-.9-2-.3-1.9c0-.6-.7-1-1.3-1.6v-2L9 10.8c-3-1-2.6 2-2.6 2.3l-2-1.3c0 2-4.8 3.9-4.5-1.3 0-2.6 1.3-4 4.2-4 4 0 6.5 2.7 8.5 6h.6s-1-3.3.7-4c1.6-1 3.5 1.3 3.5 1.3 5.2 2 6.5 5.6 5 10.8 0 1 .2 2.2-1 2.5-1 .4-1.7-.6-2-1-.3-.3-1-.9-1.3-.6l.3 1.3 2.3 1.3c.6.7 1.6 1.3 1 3.3 1.3 1.3 7.4.6 7.1-3.3 0 0-1.6.3-2-1.3 0-.6.7-1.3 2-1.6-.6-.6-1-1.4-1-2.3 0-2 1-3.2 2.3-3.2 1.6 0 3 1.6 3.3 3.2l-.7 2c1 0 2 .6 2 1.3 0 1.3-1.3 1-1.3 1 1 2.5 8.4 4.5 13 1-1 0-1.4-1-1.4-1m1.7-9.8c0 4.6 6.8 4.6 6.8 0 0-4.5-6.8-4.5-6.8 0m18.8 15.3 4.5.3-2-2.3-.9 1-1.6 1M50 25.3a5 5 0 0 1-3 2.3h6c-1-.3-2.3-1.6-3-2.3m-15.6 3.3-1.3-1c-.6 0-1.3-1-1.3-1L30.2 29s3-.7 4.2-.3m45.5 9c1.3.4 2.6 1.4 2.2 2.7-.3 1.6-1.9 1.6-3.2 1.3-.6 0-2-1.3-1.6-2.6 0-1.3 2-1.3 2.9-1.3m-12.7 0L64.6 40l-2.3-3.2 3-2.3zm-46 3.5c-1 0-2.7 0-3.3-1.3 0-1.3 1.3-2.2 2.3-2.6 1 0 2.6 0 2.9 1.3.3 1.3-1 2.3-2 2.6m26-5.2c0-1 1.3-2 3-2 1.6 0 3.2 1 3.2 2 0 1.3-1.6 2-3.3 2-1.6 0-3.2-.7-3.2-2m-14.3 1 2.6-3 3 2.7-2.7 2.9zM8.1 124.7c0-1.3 1.7-1 1.7-1s0-1.3 1-1.6c1.2-.7 1.9 1 1.9 1l.6 3.8H9.1s-1.3-.6-1-2.2m5.9-6.5c.3-1.3 1.6-1 1.6-1s0-1 1-1.6c1.3-.7 2.2 1 2.2 1l.4 3.8h-4.3s-1.3-.6-1-2.2m6-6.5c.2-1.3 1.9-1 1.9-1s-.4-1 .6-1.6c1.6-.7 2.3 1 2.3 1l.6 3.8h-4.2s-1.6-.3-1.6-2.2m30.2-59.8c.6-1.3 2-1 2-1s-.4-1.2.9-1.9c1.3-.6 2 1 2 1l.6 3.9H51s-1.6-.7-1.3-2M55.5 74c.4-1.3 2-1 2-1s-.4-1.3.6-2c1.6-.6 2.3 1 2.3 1l.6 4h-4.2s-1.6-.7-1.3-2m7.2-7.5c0-1.3 1.6-1 1.6-1s-.3-1.2 1-1.5c1.3-.7 2 .6 2 .6l.6 3.9h-4.3s-1.3-.3-1-2m6.9-7C69.8 58 71 58 71 58s0-1 1-1.6c1.3-.7 2 1 2 1l.6 3.9h-4.2s-1.3-.7-1-2m6.8-7.5c.3-1.3 2-1 2-1s-.4-1.2.6-1.9c1.6-.6 2.3 1 2.3 1l.6 3.9H78s-1.6-.7-1.3-2M4.2 101.6c0-1.3 1.7-1 1.7-1s0-1.3 1-1.6c1.2-.6 1.9.7 1.9.7l1 4.2H5.2s-1.3-.3-1-2m16.3 39.3c0-1.3 1.6-1 1.6-1s-.3-1.3.6-1.6c1.7-.6 2.3.7 2.3.7l.7 3.9h-4.3s-1.6-.4-1.3-2m6.9-7.5c.3-1.3 2-1 2-1s-.4-1.2.9-1.6c1.3-.6 2 .7 2 .7l.6 3.9h-4.2s-1.7-.3-1.3-2m7.1-7.4c0-1.3 1.6-1 1.6-1s-.3-1.3 1-1.6c1.3-.7 2 .6 2 .6l.6 4h-4.2s-1.6-.4-1-2m6.5-7.5c.6-1.3 2-1 2-1s-.4-1.3 1-1.6c1.2-.6 1.9.7 1.9.7l.6 4.2H42s-1.3-.7-1-2.3m30.2-31.5c0-1.3 1.6-1 1.6-1s-.3-1.2 1-1.9c1.3-.6 2 1 2 1l.6 3.9h-4.2s-1.3-.7-1-2m6.2-6.8c0-1.3 1.6-1 1.6-1s-.3-1.3 1-2c1.3-.6 2 1 2 1l.6 4h-4.2s-1.3-.7-1-2m6.1-6.5c0-1.6 1.7-1.3 1.7-1.3s0-1.3 1-1.6c1.2-.7 1.9.6 1.9.6l.6 4h-4.2s-1.3-.4-1-2m6.2-6.5c0-1.6 1.6-1.3 1.6-1.3s0-1.3 1-1.6c1.3-.7 2 1 2 1l.6 3.8H91s-1.3-.6-1-2.2M42 148c.3-1.3 1.6-1.3 1.6-1.3s0-1 1-1.6c1.3-.6 2.3 1 2.3 1l.3 3.9H43s-1.3-.7-1-2m47.7-53.9c0-1.3 1.6-1 1.6-1s0-1.2 1-1.9c1.3-.6 2 1 2 1l.6 3.9H91s-1.3-.7-1-2m-46.4 5.2h2v5.2l-1 .4h-1l.3-.4V100l-.3-.7m-5.2 2.3.3-.3c.4 0 .7-.3.7 0l2 2v-2.7h-.7l.6-.6h1l-.3.3v4.9l-.3.3-2.6-3v3.3h.6l-.6.7h-1l.6-.3v-4.3l-.3-.3m-2 3c0-2-1.2-1.4-1.2-1.4v4.3s1.3 0 1.3-3m-3.3-1 1.3-.3c.7-.3 3.3-1.6 3.3 1.3 0 2.6-2 3.3-2.6 3.3l-1.6.6.3-.6v-3.3l-.3-1m8-12 1-.3h.7l1.3 1.6 1.3-2H47l-.3.4v4.9h-2 .3v-3.3l-1 1.7-1.6-2v3.3c0 .6.7.3.7.6h-1l-.6.3v-5.2m-2 .4h1l-.3 1-1.7 5.1-1.6-4.2c-.3-.3-.6 0-.6 0l.6-.6 1-.4s-.3 0 0 .7l1 2.3.6-3c0-.6-.3-.3-.3-.3l.3-.3zm-5.8 5.5v3s1.3-.4 1.3-2c0-1.7-1.3-1-1.3-1m0-2.3v2s1-.7 1-1.3c0-1-1-.7-1-.7m0-.3c.6-.3 2.2-.7 2.2.6 0 1-.6 1.3-.6 1.3s1 0 1 1c0 1.3-.4 2-1 2.3l-2.3 1-.6.3v-5.9l1.3-.6m9.7-12.3v2.2s1 0 1-1.3-1-1-1-1m2.6 5h.3s0 .6-.6.6c-1.3 0-1.3-2-1.6-2.3 0-.6-.7-.3-.7-.3V88l-1.3.3.3-.7v-4.2l-.3-.6h.3l1.7-.7c.6 0 2 0 2 1 0 1.3-.7 1.6-1 1.6 1.2.7.6 2.6 1.2 2.6M38 84.4l2.6-1s.3-.3.6 0v1H41l-.6-.3H39v2l.6-.4.3-.6V87v-.6h-1v2.5l.7-.3 1-1 .3-.6v1l-.3.6L38 90s-.7.3-.7 0l.4-.6V85c-.7 0-.7-.4 0-.7m-4.9 2c.3 0 1-.4 1.3 0 0 0-.6 0-.3.3l1 2.6 1-3.3-.7-.3.6-.3 1-.3-.3.6-2 5.8-2-4.5 1-.6M55.6 100h.4l3.2 4.2V101h-.7c0-.4.4 0 .7 0h.6l-.3.3v5.2s0 .3 0 0l-3.2-4.6v3.3l.6.3h-1.6V100m2.6-8.1h1.3l2.3 1v1l-.7-.7a2 2 0 0 0-1.3-.7v2h.7s0-.7.3-.4v2l-.3-1-.7-.3v2.6h1l1.3-.3v.6l-1 1-1.6-.7-1.6-.6c0-.3.6 0 .6-.7v-4.5l-.3-.3m-1.3-1 .3 1.3v1l-1-1.3c-.3-.4-1.9-1-1.9 2 0 2.5 1.3 2.5 2 2.5l1-.6s-.7 1.3-2 1.3-2.6-1-2.6-3.3c0-1.6 1-3.2 2.3-3.2 1 0 1.3 1 1.6 1l.3-.7m3.2-6.8c0-.3.7 0 1.3 0l1.3 1h-.6l1 3.2 1-2.6v-.3h.3l.6.6H64l-2 4.6-2-6.2m-4.5-1.6h.4l1.6.3.3.3-.7.4v4.8h.7l1.6-.6s0-.4 0 0v1l-1 .3-1.6-.4-1.3-.3.4-.6v-5.5M62.3 99v-5.8l.7.3 1.6.6s1.3.7 1.3 2.3c0 1-.6 1-.6 1s.6.3 1 1.3v1.6s0 .3.6 0c0 0 0 1-1 .7-.6 0-1-1-1-1.3 0-.4 0-2.6-1.3-2.6v2.2l.4.7-1-.3c-.7 0-1-.4-1-.7m1.6-4.5v2s1.3.9 1.3-.4-1.3-1.6-1.3-1.6m-2.2 7.8v-.4h.6l.7.7 1.6 5.5.3.6-1.3-.6-1-.3h.7l-.3-1.3-2-.7v1.3h-.6l-.4-.3h.4l1.3-4.5m.3.6-.7 2.3 1.3.3zm36.7-57.1v60.7c.6 36.3-29.2 49-48.7 49-19.5 0-49.7-12.7-48.7-49v-61h18.2v-2a126 126 0 0 1 61.6 0c.7.6.7 1.3.7 2zm-88.6 88 19.1-20.2v-5.8h-2s-1.6-.7-1.2-2c.3-1.6 2-1.3 2-1.3s-.4-1 .9-1.6h.3v-4.2L5.2 124c1.3 3.6 3.3 6.8 4.9 9.7m23.7-51.9h.6l4.6-2.3a16 16 0 0 1 5.2-1.3c1.8 0 3.7.5 5.2 1.7l1-1 3.8-.7c2 0 4.2.7 6.2 1.7l30.8-32.5h-14L50.4 76V62.3l14-14.9H2.6v59L3 113l13.3-14.6h13V87c-.3.3-.6 0-.6 0s0-.6-.7-1l-1.3.7-2.2 2.2-2-2.2-1.3-.7c-1 0-.6 1.3-.6 1.3s-1 0-1-1 1-1.6 1.3-1.6c1 0 2-.3 2.3-2l-1.3.7c-1 .4-3.3.4-3.3 2 0 .6.3.3.3.3l-.3.3h-.3c-.7 0-1-.6-1-1.3 0-.6 0-1.3-.6-1H16c-.3 0 0 .7 0 .7s-.6 0-.6-1l1-1h1.2v-1c0-.2 0-.6 1-.9 1 0 1 .7 1 1h-1v1c.3.3 1 .6 2 .3.6 0 1.3-.7 1.6-1.3v-.3l.6-5.2s0-1.3-.6-1.3h-.3c-1 0-1.7 1-1.3 2.2 0 1-.4 1.7-1 2-.7 0-1 0-1.3-.7 1.3 0 1.3-.6 1-1h-.7c-1 0-2.6 1.4-3.2 2.3 0 .7.6.4 1 1l-.4 1v.3c0 .7-.3.7-.6.7H15v-1.3c-.6-.4 0-.7-.6-1a3.2 3.2 0 0 0-2-1.3h-1.6c-.3 0-.6 0-.3.6l-.6-.6c0-.7.6-1.3 1-1.3h.9c0-1-.6-.7-1.3-1.3v-.7h-.6v-1h1c.3 0 .6 0 .6.7v.7c0 1 .6 1 1 1-.7-1.4 0-1.7 0-2v-.3H12s1 0 1.3.6c0 0 .7 0 .7.7 0 1-.7 1-.7 1 0 1 .7 1 1 1l1-.4c.6-.3 2.2-1.3 1.6-2l-.7-.6h-.6c-.3.6 0 1.3 0 1.3-1 0-1.3-1-.7-1.6h2.6l1.7-1.3v-2c-.4-.6-1-1.3-1.7-1.3 0 1.3-1 2.3-1.6 3h-1c1-1.4.7-2.7.7-2.7s-1 1.7-2.6 2.3c-1 .3-1.6 0-1.3 0 .3 0 2.6-1.6 2-4.2 0 0-1 2-2.3 2.6l-1.6.3H8.5s2.6-1.3 2.6-2.6l-1.7.7h-.3c-2.6 0-2.6-1.3-2.6-1.3s2.3 0 3.9-3.3l-2.3.3-1-.3h.4l2-1c-.4 0-3.3-1.2-2-3.2 0 0 .6.7 1.6.7.7 0 2 0 2.3-.7 0 0-1.6 0-3.3-1-.6-.6-1-2-.6-1.6 0 .7.6.7 1 .7h1.3s-2.3-2-1-3.3c0 0 .6 1.6 2.6 1.6 0 0-1-.6-1.3-1.6v-1.3l.6.7 1 1.3v-2l.7-1v1c0 .7.6 1.6 1.9 3 1.6 1.6 3.2 1.6 3.2 2.5 0 1.3-1.6 1-2.6 1v1c1 1 4.6 1.3 5.6-.3.3-.7.6-1.7 0-2.3 0-1-1-1-2.3-1.3-1 0-.7-.7-.7-.7h.7c.6 0 .3-1 0-1 0 0-.7.7-1.6.7-.7 0-2-.3-2-1 0-.6 1-1 1-.6 0 0-.7 1 1 1h1.6l-.7-1h-1.3l.7-1h1s0-.6 1.3-1l2 .7h.9v.6c0 1 1.3 4 2.6 4.3 1.6 0 3.2-3.3 3.2-4.3l-.6-1h3.2c1 0 1 .4 1.3.7h.7c.3 0 1 .7.6 1h-1l-1 .6h1.7c1.6.4 1.3-.6 1-.6 0-.3 1 0 1 .6 0 .7-1 1-2 1l-1.6-.3s-.7 1 0 .6h.6s.7.4-.3.7c-1.6.3-2.3.3-2.6 1.3v2.3c1.3 1.6 4.9 1.3 5.5 0 .4 0 .4-.7 0-.7-1 0-2.6 0-2.6-1s2-1 3.3-2.6c1.6-1.3 2-2.2 2-3.2v-.7l.6 1v2l1.3-1.3v-.7c.3-.3.3.7.3 1.3 0 1-1 1.6-1 1.6 1.6 0 2.3-2 2.3-2 1.6 1.7-.7 3.7-.7 3.7h.7c.6 0 1 0 1.3-.7 0 0 0 1-1 1.6-1.6 1-3.2 1-3.2 1 .6.7 1.6 1 2.6.7l1.6-.7c1 2-1.6 3.3-2 3.3l2 1h.3l-1 .2-2.6-.6c1.7 3.6 3.6 3.6 4 3.6 0 0 0 1.6-2.3 1.6h-.4c-1 0-1.6-.7-1.6-.7 0 1.3 2.6 2.3 2.6 2.3s-.6.7-1.6.3c-.3 0-1 0-1.6-.6l-2-3c-.6 1.9.4 3.8 2.3 4.3 0 0-.7.3-1.3 0h-1c-1.6-.7-2.2-2.3-2.6-2.3 0 0 0 1.3 1 2.6h-1c-1-.6-1.6-1.6-1.6-3.2-1 .3-1.3 1-1.6 1.6v2c.3.6 1 1 1.3 1h1.6l1 .6c.3.6 0 2-.7 1.6v-1h-1.6c-.3 1 1.3 2 2 2.3l1 .3s.6 0 .9-1c0 0-.6 0-.6-1 0-.6.6-.6.6-.6 0-1 1.3-1 1.3-1l-.7.7c0 .3.7.6.4 2 0 0 .6 0 .6-1v-.7c0-.3.7-.6 1-.3h.6l.7.3c-.3 0-1 0-.7.3v.7c-.6.6-1.6.3-1.3 1.6l.7-.3c.6 0 1 .6 1 1.3l-.4.6-.3-.6h-1.6c-1 0-1.7.5-2.3 1.3v1l-.6.6m-2 1c.4 0 1 0 1.3-.7v-1s-.6-.3-.3-1c0-.6.7-.2.7-.9-.4-1-2-2.3-3.3-2.6H30c-.3.7-.3 1.3.6 1.3 0 .7-.6.7-1.3.7-.3 0-1-1-.6-2 0-1.3-.7-2.3-1.3-2.3H27c-1 0-1 1.3-1 1.3l.6 5.2v.7c.4.6 1 1.3 2 1.3h1.6v-1.3h-1c0-.3 0-1 1-1 .7 0 .7.7 1 1v1m-2.6 1.9-1.6-.6-1.3-1v.3c0 1.6 1 1.6 2 2l.9.6zm33 29.2v1.3c1 1 4 1.3 5.3 0-2 0-3.3-.6-5.2-1.3M70 111c.4.7 1 1 1.3 1 1.7 0 3.3-3.3 3.3-4.2l-.7-1h3.3c1 0 1 .3 1.3.7h.6c.3 0 1 .6.7 1h-1l-1 .6h1.6c1.7.3 1-.7 1-.7s1 0 1 .7c0 .6-1 1-2 1l-1.6-.4s-.6 1 0 1l.7-.3s.6.3-.3.6c-1.7.3-2.3.3-2.6 1.3v2.3c1.3 1.6 4.8 1.3 5.5 0 .3 0 .3-.7 0-.7-1 0-2.3 0-2.6-1 0-.9 2-.9 3.2-2.5 1.6-1.3 2-2.3 2-3.3l.6 1v2l1.3-1.4v-.6c.3-.3.3.6.3 1.3 0 1-1 1.6-1 1.6 1.7 0 2.7-2 2.7-2 1.3 1.7-1 3.6-1 3.6h.6c.7 0 1 0 1.3-.6 0 0 0 1-1 1.6-1.6 1-3.2 1-3.2 1 .7.6 1.6 1 2.6.6l1.6-.6c1 2-1.6 3.2-2 3.2l2 1h.4l-1 .3-2.6-.6c2 3.9 3.9 3.6 4.2 3.6 0 0 0 1.6-2.3 1.6H87c-1 0-1.6-.7-1.6-.7 0 1.3 2.6 2.6 2.6 2.6h-1.6c-.4 0-1 0-1.7-.6l-2.2-2.6c-.7 1.8.4 3.7 2.2 4.2 0 0-.6.3-1.3 0h-.6c-1.6-.6-2.3-2.3-2.6-2.3 0 0 0 1.3 1 2.6h-1c-1-.6-1.6-1.6-1.6-3.2-1 .3-1.3 1-1.6 1.6v2c.3.6 1 1 1.3 1h1.6l1 .6c.3.6 0 2-.7 1.6v-1h-1.6c-.3 1 1.3 2 2 2.3l.9.3s.6 0 1-1c0 0-.7 0-.7-1 0-.6.7-.6.7-.6 0-1 1.3-1 1.3-1l-.7.7c0 .3.7.6.3 2 0 0 .7 0 .7-1v-.7c0-.3.6-.6 1-.3h.6l.7.3c-.4 0-1 0-.7.3v.7c-.6.6-1.6.3-1.3 1.6l.7-.3c.6 0 1 .6 1 1.3l-.4.6-.3-.6h-1.6c-1 0-1.8.6-2.3 1.3v1l-.7.6v.7s.4 0 0 0c-.3 0-.6 0-.6-.7v-.3s-.7-.3-.3-1c0-.6.6-.3.6-1-.3-1-2-2.2-3.2-2.6H77c-.4.7-.4 1.3.6 1.7 0 0-.6.3-1.3 0-.3 0-1-.7-.6-1.7 0-1.3-.7-2.2-1.3-2.2H74c-1 0-1 1.3-1 1.3l.7 5.2v.6c.3.7 1 1.3 2 1.3h1.6V136h-.7c0-.3 0-1 1-1 .7 0 .7.7 1 1v1h1l1.2 1c0 .6-.6 1-.6 1v-.7h-.7c-.6 0-1 .3-1 1 0 .6 0 1.3-.6 1.6l-.6-.3s.6 0 .6-.7c0-1.6-2.2-1.6-3.2-2l-1.3-1v.4c0 1.6 1 1.6 2 2 .6 0 1.2.6 1.2 1.6s-.6 1-.6 1 0-1-.7-1.3l-1.3.6-2.2 2.3-2-2.3-1.3-.6c-1 0-.6 1.3-.6 1.3s-1 0-1-1 1-1.6 1.3-1.6c1 0 2-.4 2.3-2l-1.3.7c-1 .3-3.3.3-3.3 2l.3.6h-.6c-.7 0-1-.7-1-1.3 0-.7 0-1.3-.6-1h-.7c-.3 0 0 .6 0 .6s-.6 0-.6-1l1-1h1.2v-.9c0-.3 0-.6 1-1 1 0 1 .7 1 1h-.7v1c0 .3.7.6 1.7.3.6 0 1.3-.6 1.6-1.3v-.6l.6-5.2s0-1.3-.6-1.3h-.3c-1 0-1.7 1-1.3 2.2 0 1-.4 1.7-1 2l-1.3-.3c1.3 0 1.3-1 1-1.3h-.7c-1 0-2.6 1.3-3.2 2.2 0 .7.6.4 1 1l-.4 1v.3c0 .7-.3.7-.6.7h-.4v-1.3c-.6-.4 0-.7-.6-1a3.2 3.2 0 0 0-2-1.3h-1.6l-.3.6-.7-.6c0-.7.7-1.3 1-1.3h1c0-1-.7-.7-1.3-1.3v-.7h-.7l.4-1h1c.3 0 .6 0 .6.7v.7c0 1 .6 1 1 1-.7-1.4 0-1.7 0-2v-.3h-.4s1.3 0 1.3.6c0 0 .7 0 .7.7 0 1-.7 1-.7 1 0 1 .7 1 1 1l1-.4c.6 0 2.3-1.3 1.6-2l-.6-.6-.7.3v1c-1 0-1.3-1-.6-1.6l1-.3h1.2l1.7-1.3v-2c-.4-.6-1-1.3-1.7-1.3 0 1.3-1 2.3-1.6 3h-1c1-1.4.7-2.7.7-2.7s-1 1.7-2.6 2.3h-.3c-1 .3-1.7 0-1.3 0 .3 0 2.6-1.6 2-4.2 0 0-1 2-2.4 2.6-.3.6-1 .6-1.6.6h-1.3s2.6-1.3 2.6-2.6l-1.6.7h-.3c-2.3 0-2.3-1.6-2.3-1.6s2.3 0 3.9-3.3l-2.3.3-1-.3h.4l2-1c-.4 0-3.3-1.3-2-3.2 0 0 .6.6 1.6.6.6 0 2 0 2.3-.6 0 0-1.7 0-3.3-1h-2c-.6 2-1.9 3.3-3.8 3.3-2 0-3.3-1.3-4-3.3h-3.2L16.2 141c2.4 2.4 5.2 4.5 8.2 6.2l24.3-26v13.6L33.5 151a51.4 51.4 0 0 0 16.2 2.9c19.1 0 47.4-12.4 46.7-47.4V83.8l-12 13h-13l25-26.7V55.5l-26 28v.3zm-3.2 8.5h9v-3.6h-8.7zm4.5 6.5c4 0 4.3-3.3 4.3-3.3h-8.5s.3 3.3 4.2 3.3m-52-60.4h9.8V62h-9zM24 72c4 0 4.3-3.3 4.3-3.3H20s.4 3.3 4.3 3.3m23.3 40.2c0 1 1 2 2 2 3 0-2-5-2-2M30.2 84.4V113h2.3c2.3-1 4.8-3.6 8.7-4.6 3-.6 6.5.3 7.8 1V81.2s-2-2-4.8-2c-2.6 0-7.5 2.6-9.1 3.6l-4.6 1.6c-.3 0 0 0 0 0m24.7 24.3c5.2 0 7.8 3.3 9.4 4 4 1.2 4.6.6 4.6.6V84.4h-.4s-3.9-.6-5.2-1.6c-1.3-.7-5.8-3.3-9.4-3.3-3.2 0-3.9 1.3-3.9 1.3V110s1.7-1.3 4.9-1.3"/></svg>
