<svg xmlns="http://www.w3.org/2000/svg" viewBox="55.621 35.582 90 90"><path fill="#006CEB" d="M55.621 35.582h90v90h-90z"/><path fill="#fff" d="M114.622 69.976h21.213c0 13.788-7.071 21.213-21.213 21.213V69.976ZM86.62 91.189H65.407c0-13.789 7.071-21.213 21.213-21.213v21.213Zm24.608 3.394v21.213c-13.789 0-21.213-7.071-21.213-21.213h21.213Zm3.393-28.002V45.368c13.789 0 21.214 7.071 21.214 21.213h-21.214ZM90.015 45.368h21.213v21.213H90.015V45.368Zm-24.607.001h21.213v21.213H65.408V45.369Zm-.001 49.214H86.62v21.213H65.407V94.583Zm49.214 0h21.214v21.213h-21.214V94.583Z"/></svg>