<svg xmlns="http://www.w3.org/2000/svg" width="3889.189" height="3889.189"><g fill="#01579b"><path d="M2777.04 1873.246c83.54-1.538 167.18.784 250.672-.225 38.143 4.62 42.967 47.009 38.179 77.55-1.156 54.423 2.765 109.227-1.848 163.405-13.09 38.092-59.87 32.045-91.677 31.032-66.163-.985-132.614 1.065-198.593-.971-41.821-9.63-39.324-57.497-36.581-90.9 1.361-49.884-3.446-100.433 2.838-149.881 5.358-15.756 19.556-29.866 37.01-30.01zm-4-126.865c-61.488 5.113-122.963 40.558-146.382 99.576-27.49 69.708-12.342 145.944-15.857 218.711-1.85 55.787 7.038 117.608 50.303 157.272 50.836 49.63 126.685 52.11 193.446 50.326 57.094-3.781 114.259 2.357 171.31-1.009 64.416-4.212 130.856-41.222 153.155-104.543 24.69-68.485 11.233-142.407 14.009-213.43 1.249-60.015-11.38-126.515-59.735-166.895-53.65-45.688-128.603-43.469-194.892-41.47-55.126 4.156-110.395-4.684-165.356 1.462zM3258.04 1745.957c25.003 35.056 58.984 62.499 86.484 95.565 45.549 48.434 89.256 98.645 134.905 146.918-5.362 25.945-37.608 43.797-53.327 66.761-66.059 69.635-129.615 141.67-194.653 212.205-2.667 7.54 19.872 1.72 27.976 3.55 47.305-.123 94.676.248 141.936-.186 23.945-15.826 38.264-42.555 59.392-61.854 35.99-38.521 71.26-77.791 106.854-116.613 24.115 8.667 40.129 40.852 60.683 59.207 34.691 36.487 67.976 74.277 101.903 111.421 16.026 17.386 41.305 5.523 62.04 8.026h95.808c8.83-39.39-35.59-59.008-54.849-87.077-55.82-56.84-106.668-118.319-162.01-175.558-27.379-22.282 20.528-42.96 31.45-63.024 56.286-61.063 111.482-123.179 169.213-182.854 19.124-16.104 7.628-18.437-9.749-16.487-48 .513-96.158-1.027-144.06.773-14.68-.463-20.624 15.545-30.68 23.802-37.211 39.403-73.128 80.145-110.988 118.859-7.496 11.598-15.798-4.236-22.32-9.656-40.26-43.89-80.61-87.697-121.007-131.46-31.676-4.798-63.995-1.206-95.953-2.318h-79.047zM1239.04 2270.957h127v-398c76.267.325 152.57-.69 228.807.59 45.328.603 87.962 34.18 95.592 79.534 7.923 47.162 3.413 95.268 4.602 142.886v174.99h127c-.386-96.549.834-193.124-.73-289.65-1.743-64.979-21.41-133.904-73.371-176.666-52.287-45.146-122.952-63.02-190.99-60.35-85.406 3.11-170.901.545-256.311 2.308-34.256-.57-63.016 29.928-61.397 63.88-.464 153.486-.072 306.987-.201 460.478zM537.04 1745.957c.183 100.056-.332 200.13.173 300.17.394 66.388 29.947 132.698 83.351 173.14 52.809 42.64 122.608 56.76 189.153 53.52 84.672-3.788 169.503-.125 254.157-2.847 32.56-1.088 57.133-31.581 55.916-63.209.576-153.584.09-307.184.25-460.774h-127v399c-76.26-.452-152.574.986-228.794-.894-45.532-1.077-88.558-34.698-95.945-80.494-7.422-46.607-3.115-94.066-4.26-141.082v-176.53h-127zM.04 2270.957h127c.224-117.986-.45-235.99.347-353.965-.54-24.86 21.838-44.79 46.211-44.33 90.963.762 182.015-.192 272.993.572 26.622 6.337 15.35-26.842 16.45-42.286v-84.991c-93.7.39-187.426-.87-281.106.82-53.64 1.215-110.036 19.056-144.404 62.466C-1.395 1856.362-.12 1920.825.04 1978.563v292.394zM1930.04 1523.957c.218 189.55-.443 379.108.348 568.653-1.474 59.296 25.488 120.416 78.163 150.637 49.082 32.946 109.858 28.982 166.08 27.71 64.906-1.096 130.094 2.945 194.732-3.937 67.104-6.497 123.09-60.926 135.88-126.407 12.461-61.767 6.259-125.23 8.961-187.813 1.267-61.803-12.522-131.244-65.778-169.349-49.545-40.179-115.95-39.564-176.283-37.494H2108.04v127c74.815-.371 149.689 1.041 224.444-1.372 37.87-2.532 59.47 35.6 54.556 69.575.792 52.707-1.068 105.477-1.34 158.14-.92 30.808-32.22 49.099-60.67 45.81-74.486-.906-149.092 1.147-223.49-1.216-37.912-2.232-49.83-43.669-44.5-75.63v-544.307h-127z"/></g></svg>