<svg xmlns="http://www.w3.org/2000/svg" height="222.286" width="222.286"><path d="M189.562 95.764h-.07a5.157 5.157 0 100 10.312h.07a5.157 5.157 0 000-10.3zm9.918-15.48a5.156 5.156 0 01-5.157 5.168h-17.97a5.157 5.157 0 110-10.312h17.97a5.157 5.157 0 015.157 5.133zm17.62 15.492h-6.372a5.158 5.158 0 00-4.466 7.734 5.158 5.158 0 004.466 2.577h6.395a5.162 5.162 0 100-10.323zm.513 25.78a5.155 5.155 0 01-5.158 5.155H157.93a5.162 5.162 0 100 10.324h37.502a5.158 5.158 0 014.467 7.733 5.158 5.158 0 01-4.467 2.578h-22.87a27.878 27.878 0 01-1.843 2.403 29.64 29.64 0 01-19.218 10.312H25.482C11.677 160.15.345 149.165.008 135.367c-.338-13.798 10.444-25.323 24.238-25.908 0-11.48 5.949-22.141 15.72-28.171a33.123 33.123 0 0132.236-1.423 45.28 45.28 0 0167.594-4.666h16.255a5.158 5.158 0 014.466 7.734 5.158 5.158 0 01-4.466 2.577h-16.616a5.158 5.158 0 00-4.67 7.799 5.158 5.158 0 004.67 2.502h29.777a5.157 5.157 0 110 10.311H144.71a5.162 5.162 0 100 10.324h67.676a5.157 5.157 0 015.204 5.086z" fill="#204666"/></svg>