<svg xmlns="http://www.w3.org/2000/svg" viewBox="0 0 72 72"><path fill="#0784c6" d="M36 4.3v64.3L47.6 66l7-14.5 13-9.3-2.1-17.4L72 13.3 70.7 7l-5.1-2.6-9 6.4z"/><path fill="#20a5d9" d="M36 4.3 15.7 9.6 6.4 4.3 1.3 7v6.4l5.2 11.5-1.4 16.8 12.9 9L24.4 66 36 67.3z"/><path fill="#2572b5" d="M36 68.6V67l9.7-1.4a2.7 2.7 0 0 0 2-1.6l5.6-12.9c.1-.4.4-.7.8-1L66 42a.7.7 0 0 0 .3-.6l-2.1-15.9a2.4 2.4 0 0 1 .2-1.5l6-10.8a.3.3 0 0 0 0-.2l-.3-5a.5.5 0 0 0 0-.3l-.2-.2a.5.5 0 0 0-.2-.1L66 5.5a.9.9 0 0 0-.8 0l-8 5a2.3 2.3 0 0 1-2 .2L36 5V3.4l19.7 6c.2 0 .5 0 .7-.2l8-5a2.4 2.4 0 0 1 2.2 0l3.8 1.7c.4.2.6.4.8.7l.2.2c.2.3.3.6.3 1l.3 5c0 .4 0 .7-.2 1l-6 10.8a1 1 0 0 0 0 .6l2.1 15.9a2.1 2.1 0 0 1-.9 2l-12 8.3a1 1 0 0 0-.4.4l-5.5 12.8a4.1 4.1 0 0 1-1.7 2 3 3 0 0 1-1.5.5z"/><path fill="#3a92cd" d="M36 68.6 26.1 67a4.2 4.2 0 0 1-1.5-.5 4.2 4.2 0 0 1-1.7-2l-5.5-12.8a1 1 0 0 0-.3-.4L5 43.1a2.1 2.1 0 0 1-.9-2l2.2-15.9a1 1 0 0 0-.1-.6l-6-10.8-.2-1 .3-5c0-.4.1-.7.3-1l.2-.2c.2-.3.4-.5.8-.7l3.8-1.7a2.4 2.4 0 0 1 2.2 0l8 5a.8.8 0 0 0 .7.1L36 3.4V5l-19.3 5.8a2.3 2.3 0 0 1-1.8-.2l-8-5a.9.9 0 0 0-.9 0L2.2 7.3a.5.5 0 0 0-.2.1l-.1.2a.5.5 0 0 0-.1.2L1.5 13a.3.3 0 0 0 0 .2l6 10.8c.2.5.3 1 .2 1.5L5.6 41.3a.7.7 0 0 0 .2.6L18 50.2c.4.3.7.6.8 1l5.5 12.9a2.7 2.7 0 0 0 2.1 1.6L36 67z"/></svg>
