<svg xmlns="http://www.w3.org/2000/svg" width="72" height="72"><g fill-rule="evenodd"><path fill="#0784c6" d="M36 4.306v64.286l11.571-2.571 7.045-14.514 13.038-9.306-2.187-17.447L72 13.306l-1.286-6.428-5.143-2.572-9 6.429z"/><path fill="#20a5d9" d="m36 4.306-20.298 5.28-9.273-5.28-5.143 2.572v6.428l5.246 11.448-1.39 16.838 12.858 9 6.429 15.429L36 67.306z"/><path d="M36 68.592v-1.46l9.66-1.443a2.726 2.726 0 0 0 2.097-1.61l5.518-12.87c.17-.394.444-.737.794-.989l.013-.01 12.072-8.309a.654.654 0 0 0 .28-.619l-2.178-15.859a2.388 2.388 0 0 1 .274-1.485l5.95-10.83a.35.35 0 0 0 .043-.189l-.311-5.07a.452.452 0 0 0-.075-.221L70 7.419a.461.461 0 0 0-.188-.162L66 5.484a.87.87 0 0 0-.827.049l-8.028 4.949a2.33 2.33 0 0 1-1.897.247L36 4.93V3.408l19.679 5.923c.232.07.481.038.687-.089l8.027-4.948a2.356 2.356 0 0 1 2.236-.132l3.811 1.774c.324.15.6.387.794.684l.139.208c.184.278.291.6.312.931l.312 5.071c.02.34-.056.677-.22.976l-5.95 10.83a.941.941 0 0 0-.109.59l2.18 15.873a2.11 2.11 0 0 1-.901 2l-12.064 8.305a.91.91 0 0 0-.3.376l-5.517 12.87a4.144 4.144 0 0 1-1.693 1.932 4.206 4.206 0 0 1-1.543.551z" fill="#2572b5"/><path d="m36 68.592-9.88-1.459a4.207 4.207 0 0 1-1.543-.551 4.151 4.151 0 0 1-1.694-1.932l-5.516-12.87a.91.91 0 0 0-.3-.376L5.003 43.1a2.109 2.109 0 0 1-.904-1.99l2.183-15.885a.94.94 0 0 0-.11-.59l-5.95-10.83a1.796 1.796 0 0 1-.219-.976l.312-5.071a1.91 1.91 0 0 1 .312-.93l.139-.21c.195-.296.47-.532.795-.683l3.81-1.774a2.354 2.354 0 0 1 2.235.132l8.028 4.948a.847.847 0 0 0 .687.09L36 3.407V4.93l-19.25 5.798a2.33 2.33 0 0 1-1.896-.247L6.826 5.533a.874.874 0 0 0-.828-.049l-3.81 1.773A.461.461 0 0 0 2 7.42l-.137.209a.451.451 0 0 0-.074.22l-.312 5.071a.35.35 0 0 0 .042.19l5.95 10.83c.251.457.346.97.275 1.484l-2.18 15.872a.65.65 0 0 0 .282.606l12.085 8.32c.35.251.625.593.794.989l5.518 12.87a2.725 2.725 0 0 0 2.097 1.61L36 67.13z" fill="#3a92cd"/></g></svg>