<svg xmlns="http://www.w3.org/2000/svg" width="180" height="180"><defs><clipPath clipPathUnits="userSpaceOnUse" id="a"><path d="M0 137.1h137.5V0H0z"/></clipPath><clipPath clipPathUnits="userSpaceOnUse" id="b"><path d="M39.3 101.4h58.5V1.1H39.3z"/></clipPath><clipPath clipPathUnits="userSpaceOnUse" id="c"><path d="M39.545 101.034h58.35V1.052h-58.35z"/></clipPath></defs><g clip-path="url(#a)" transform="matrix(1.33333 0 0 -1.33333 -1.626 181.066)"><path d="M69.9 69.8c4.7 5.8 11.3 8.7 20 8.7h7.9v22.9h-7.9c-15.3 0-27.5-4.9-36.7-14.6-9.3-9.7-13.9-24.2-13.9-43.5V7.5C46.5 4 54.5 1.8 62.9 1.1v42.2c0 11.9 2.3 20.8 7 26.5" fill="#00ac65"/><g clip-path="url(#b)" opacity=".7"><path d="M69.9 69.8c4.7 5.8 11.3 8.7 20 8.7h7.9v22.9h-7.9c-15.3 0-27.5-4.9-36.7-14.6-9.3-9.7-13.9-24.2-13.9-43.5V7.5C46.5 4 54.5 1.8 62.9 1.1v42.2c0 11.9 2.3 20.8 7 26.5" fill="#fff"/></g><path d="M68.72 135.8c-37.28 0-67.5-30.222-67.5-67.5 0-26.83 15.653-50 38.325-60.885v35.736c0 19.213 4.6 33.663 13.81 43.351 9.205 9.687 21.413 14.531 36.627 14.531h7.912V78.216h-7.912c-8.646 0-15.292-2.882-19.934-8.646-4.646-5.765-6.965-14.572-6.965-26.419V1.052A68.195 68.195 0 0168.72.8c37.28 0 67.5 30.221 67.5 67.5 0 37.28-30.22 67.5-67.5 67.5" fill="#ee509c"/><path d="M70.048 69.57c4.643 5.764 11.288 8.646 19.935 8.646h7.912v22.817h-7.912c-15.214 0-27.422-4.844-36.628-14.53-9.21-9.689-13.81-24.139-13.81-43.352V7.415c7.225-3.469 15.167-5.67 23.538-6.363v42.1c0 11.846 2.319 20.653 6.965 26.418" fill="#ee509c"/><g><g clip-path="url(#c)" opacity=".7"><path d="M70.048 69.57c4.643 5.764 11.288 8.646 19.935 8.646h7.912v22.817h-7.912c-15.214 0-27.422-4.844-36.628-14.53-9.21-9.689-13.81-24.139-13.81-43.352V7.415c7.225-3.469 15.167-5.67 23.538-6.363v42.1c0 11.846 2.319 20.653 6.965 26.418" fill="#fff"/></g></g></g></svg>