<svg xmlns="http://www.w3.org/2000/svg" viewBox="0 0 40.7 41.13"><path fill="#ef509c" d="M20.59 0a20.56 20.56 0 0 0-1.72 41.05c.57.05 1.14.08 1.72.08a20.57 20.57 0 0 0 0-41.13"/><path fill="#fff" d="M24.29 31.1a.93.93 0 0 1-.8-.46l-3.14-5.55a1.58 1.58 0 0 0-1.37-.8h-.32a1.58 1.58 0 0 0-1.58 1.58v4.32a.92.92 0 0 1-.92.91h-2.9a.91.91 0 0 1-.9-.91V10.94a.91.91 0 0 1 .9-.91h7.57c7 0 8 4.46 8 7.11A6.55 6.55 0 0 1 26.02 23a1.6 1.6 0 0 0-.48 2.19l2.9 4.51a.89.89 0 0 1 0 .93.92.92 0 0 1-.8.48zm-5.63-16.75a1.58 1.58 0 0 0-1.58 1.58v2.46A1.58 1.58 0 0 0 18.66 20h2.24c2.12 0 3.12-1 3.12-2.86 0-1.86-1-2.79-3.12-2.79z"/></svg>