<svg xmlns="http://www.w3.org/2000/svg" viewBox="0 0 299.991 299.993" height="299.991" width="299.991"><g clip-path="url(#d)" transform="matrix(21.955 0 0 -21.955 -2044.078 10528.63)"><path d="M105.72 468.11c-.639 0-1.018.327-1.047.798h.611c0-.157.087-.366.465-.379.262 0 .407.157.407.275-.029.183-.262.196-.494.236a2.389 2.389 0 00-.611.156.626.626 0 00-.32.563c0 .419.35.746.96.746.582 0 .96-.301.988-.759h-.581c0 .117-.029.314-.378.314-.233 0-.378-.039-.407-.209 0-.236.494-.223.872-.314.349-.092.582-.314.582-.629 0-.576-.465-.798-1.047-.798"/></g><path d="M32.56 166.43L76.6 140.853l23.624 40.528H40.858"/><path d="M125.172 249.75v-51.155" stroke="#000" stroke-width="12.887584999999998"/><g clip-path="url(#c)" transform="matrix(21.955 0 0 -21.955 -2044.078 10528.63)"><path d="M93.655 469.31c0-.366.32-.667.668-.667.379 0 .669.301.669.667 0 .353-.29.667-.669.667a.692.692 0 01-.668-.667m.639-1.204c-.639 0-1.191.537-1.191 1.204 0 .667.552 1.191 1.191 1.191.262 0 .495-.066.698-.209v.183h.582v-2.316h-.582v.144c-.174-.131-.436-.197-.698-.197"/></g><path d="M196.612 181.37L135.336 74.493l44.042-25.863 76.6 132.74"/><g clip-path="url(#b)" transform="matrix(21.955 0 0 -21.955 -2044.078 10528.63)"><path d="M96.33 469.31c0-.366.291-.667.669-.667.348 0 .669.301.669.667a.693.693 0 01-.669.667.672.672 0 01-.669-.667m.64-1.204a1.19 1.19 0 00-1.192 1.204c0 .667.523 1.191 1.192 1.191.261 0 .494-.066.698-.209v.981h.581v-3.114h-.581v.144a1.265 1.265 0 00-.698-.197"/></g><path d="M84.27 120.75l44.678-25.271 49.157 85.888h-46.61v12.646h-12.756v-12.646M207.408 224.93c0 8.035 6.389 14.643 14.688 14.643 7.662 0 14.666-6.608 14.666-14.644 0-7.75-7.004-14.644-14.666-14.644-8.3 0-14.688 6.894-14.688 14.644m14.029 26.434c-14.666 0-26.148-11.79-26.148-26.434 0-14.644 11.482-26.148 26.148-26.148 5.752 0 10.868 1.449 15.325 4.588v-4.017h12.14v50.847h-12.14v-3.161c-4.457 2.876-9.573 4.325-15.325 4.325M148.722 224.93c0 8.035 7.026 14.643 14.688 14.643 8.299 0 14.688-6.608 14.688-14.644 0-7.75-6.39-14.644-14.688-14.644-7.662 0-14.688 6.894-14.688 14.644m29.376-43.098h12.756V250.2h-12.756v-3.161c-3.842 2.876-8.958 4.325-14.688 4.325-14.688 0-26.807-11.79-26.807-26.434 0-14.644 12.119-26.148 26.807-26.148 5.73 0 10.846 1.449 14.688 4.588z"/></svg>