<svg xmlns="http://www.w3.org/2000/svg" viewBox="0 0 41.4 42.6"><path fill="#091925" d="M28.8 37.7a9.6 9.6 0 0 0 4.5-1.5A9.8 9.8 0 0 0 36 33a8.4 8.4 0 0 0 1.1-4.2v-3.1l-7.1.6v2.6a1.2 1.2 0 0 1-.4.8 1.2 1.2 0 0 1-.8.5l-2.6.2v7.5l2.5-.2Zm-17.5-6-2.6.3a1 1 0 0 1-.8-.3 1.7 1.7 0 0 1-.4-1v-20a1.2 1.2 0 0 1 .3-.9 1.2 1.2 0 0 1 .9-.4l19.9-1.8a2 2 0 0 1 1.1.2 1.7 1.7 0 0 1 .4 1.1v2.3l7.1-.6V7.2a6.7 6.7 0 0 0-1-3.8 7.5 7.5 0 0 0-3-2.6 7 7 0 0 0-4-.8L8.4 1.9A9.3 9.3 0 0 0 4 3.3a10 10 0 0 0-2.9 3.3 7.5 7.5 0 0 0-1.1 4V32a7.2 7.2 0 0 0 .8 4A8.5 8.5 0 0 0 4 38.7a8.2 8.2 0 0 0 4.4.8l2.9-.3v-7.5Z"/><path fill="#008099" d="m41.4 14.1-18.7 1.7a7.7 7.7 0 0 0-3.9 1.4 9.8 9.8 0 0 0-2.7 3 7.9 7.9 0 0 0-1 4v18.4l7.5-.6V24.2a1.2 1.2 0 0 1 1-1.2l17.8-1.6Z"/></svg>