<svg xmlns="http://www.w3.org/2000/svg" height="13.589" width="13.589"><path fill="#2b4779" fill-rule="evenodd" d="M0 0h13.589v13.589H0z"/><g fill="#f1c931"><path d="M8.642 1.963c.7.2 1.4.4 2.1.5h.5c.3 0 .5-.1.8-.2h.1c0 .1 0 .1-.1.2-.4.3-.8.5-1.2.6-.1 0-.3.1-.4.1-.5.2-1.1.2-1.6.2-1-.1-1.9-.4-2.9-.4-.9-.1-1.8.3-2.3 1-.1.4-.3.8-.3 1.2 0 .4.6.5.8.8l.3.6c.1.4.3.8.6 1.2.2.2.4.5.7.6.4.3.7.6.9 1 .2.4.4.7.5 1.1.1.2.2.4.2.7v.1c.1.2.1.4.2.5v.1c0 .1.1.3 0 .3-.2-.2-.3-.4-.4-.6-.1-.4-.4-.8-.7-1.2-.2-.2-.4-.5-.6-.7-.8-.9-2-1.5-2.9-2.3 0 0 0-.1-.1-.2-.1-.2-.2-.3-.3-.5-.2-.4-.5-.8-.7-1.3 0-.2-.1-.4-.1-.6v-.1c0-.2-.5-.3-.2-.7.2-.2.8-.4 1-.8v-.2s0-.1-.1-.1-.4.2-.4-.1v-.3c.1-.2.1-.4.1-.6 0-.1.1-.1.2-.1s.3-.1.4-.1c.3 0 .7 0 .9.2.1.2 0 .4 0 .6 0 .2-.2.3-.1.4h.2c.4-.3.8-.7 1.2-1.1.3-.3.8-.4 1.2-.3.9 0 1.6.3 2.5.5z"/><path d="M6.342 3.563c.1.2 0 .3-.1.5-.5.7-.7 1.6-1 2.4h-.1c-.1 0-.1-.1-.1-.2 0-.9.3-1.7.7-2.5.1-.1.2-.3.4-.2.1-.1.1 0 .2 0zm1.4.2c.1.3-.1.5-.2.8-.5 1-1.1 2-1.4 3.1 0 0 0 .1-.1.1h-.1c-.1-.4 0-.9.1-1.3.3-.9.6-1.8 1.1-2.7.1 0 .1-.1.1-.1.2 0 .4 0 .5.1zm1.4.1c.1.1.1.3 0 .4-.6 1.3-1.5 2.4-1.9 3.8l-.3.9c0 .1-.1.1-.1 0-.1-.1 0-.3 0-.4.1-1.1.4-2.2.9-3.1.2-.5.5-.9.7-1.4.1-.1.2-.3.4-.3.1 0 .2 0 .3.1zm1.6.1c.1.2 0 .3 0 .5-.4 1-1.1 1.9-1.6 2.9-.5.8-.8 1.7-1.1 2.5-.1.3-.2.5-.3.8h-.1c-.1-.1-.1-.2-.1-.3.1-1.1.5-2 .9-3 .5-1.1 1.1-2.1 1.6-3.2.1-.1.2-.3.4-.4.1 0 .2 0 .3.2z"/></g></svg>