<svg xmlns="http://www.w3.org/2000/svg" width="219.512" height="219.512" viewBox="0 0 58.079 58.079"><path fill="#004c9a" fill-rule="evenodd" d="M.327 9.545H51.28V58.08H.327z"/><path fill="#fedc00" fill-rule="evenodd" d="M41.472 0h16.281v48.875h-16.28z"/><path d="M24.25 31.745H15.9l-.343-.336v-7.277l.328-.357h8.365c3.052 0 4.413 1.229 4.413 3.985s-1.361 3.985-4.413 3.985zm3.665 4.486c3.047-.737 6.473-3.415 6.473-8.471 0-5.544-3.79-8.854-10.138-8.854H10.182l-.35.349v28.992l.35.35h5.025l.35-.35V37.024l.364-.41 4.648.014.75.41 8.58 11.159.802.4h2.48l.35-.35v-4.179l-5.616-7.336v-.5" fill="#fff"/></svg>