<svg xmlns="http://www.w3.org/2000/svg" version="1.1" id="Layer_1" x="0" y="0" xml:space="preserve" width="59.9" height="59.9"><style type="text/css" id="style1743"></style><g id="g1838" transform="translate(-14 -18.1)"><path id="path1595" d="M19.4 18.1c-3 0-5.4 2.4-5.4 5.4v49.1c0 3 2.4 5.4 5.4 5.4h49.1c3 0 5.4-2.4 5.4-5.4V23.5c0-3-2.4-5.4-5.4-5.4z" fill="#4fc3f7" fill-opacity="1"/><path d="M43.4 56c.5-11.3 20.5-19.8 20.5-27.6 0-6.3-12.4-9.3-17.6-10.3h-3.4C68.7 26 54 32 45.8 35.8c-8.2 3.9-20.9 9.1-24.6 20.5-3.5 11 2.2 18.4 5.8 21.7h41c-16.9-4.9-25.1-12.2-24.6-22z" id="path1766" fill="#01579b"/></g></svg>