<svg xmlns="http://www.w3.org/2000/svg" width="460.73" height="460.73" fill="none"><path d="M25.1 175.895v-63.488h53.748V90.403L147.025-.5h33.187v112.907h65.291v63.488h-65.291v160.884c0 20.682 2.164 34.269 6.493 40.762 4.569 6.493 13.948 9.74 28.136 9.74 7.936 0 16.955-1.684 27.055-5.05v72.506c-20.922 4.328-41.243 6.493-60.963 6.493-11.784 0-22.966-.842-33.547-2.525-31.023-5.051-51.103-19.72-60.242-44.009-3.607-9.86-5.891-19.479-6.853-28.858-.962-9.379-1.443-26.934-1.443-52.666V175.895z" fill="#000"/><path fill="#e40074" d="M312.502 329.084H435.63v123.128H312.502z"/></svg>