<svg xmlns="http://www.w3.org/2000/svg" viewBox="0 0 77.7 76.6"><path fill="#e96421" d="M51.7 40.2H41v11.6h-4.2V40.2H26v-4.1h10.7V24.5H41V36h10.7Z"/><path fill="#c81b34" d="M30.2 55h-9.6V44.6H17V55H7.4v3.2H17v10.4h3.6V58.2h9.6Z"/><path fill="#598499" d="M70.3 17.9h-9.5V7.4h-3.6V18h-9.6v3h9.6v10.4h3.6V21h9.5Z"/><path fill="#545d94" d="M47 66.6h-6.5v-7.3h-3.1v7.3h-6.5v2.8h6.5v7.2h3.1v-7.2H47Z"/><path fill="#eb851d" d="M30.2 17.9h-9.7V7.4h-3.4V18H7.4v3h9.7v10.5h3.4V20.9h9.7Z"/><path fill="#545d94" d="M77.7 36.8h-6.5v-7.3h-3v7.3h-6.6v2.8h6.5v7.2h3.1v-7.2h6.5Z"/><path fill="#274181" d="M70.3 55h-9.5V44.6h-3.6V55h-9.6v3.2h9.6v10.4h3.6V58.2h9.5Z"/><path fill="#6c98a5" d="M46.5 7.1h-6.4V0h-2.3v7.1h-6.4v2.2h6.4v7H40v-7h6.4ZM15.2 37H8.7v-7H6.4v7H0v2.3h6.4v7h2.3v-7l6.5-.1Z"/></svg>