<svg xmlns="http://www.w3.org/2000/svg" viewBox="0 0 90 70"><path d="m82.87 46.15-.08 14.65c-12.21 6.02-25.46 9.27-38.65 9.2-14.39-.09-24.75-3.02-37.9-9.2l.08-14.65c11.97 5.32 24.38 7.68 37.91 7.76 14.22.08 25-2.59 38.64-7.76ZM66.04 0C82.64.1 90.07 10.98 90 23.17c-.07 12.2-7.63 23.07-24.23 22.98C55.4 46.09 48.61 41.78 45 35.58c-3.66 6.29-10.54 10.63-21.05 10.57C7.35 46.05-.08 35.09 0 22.89.07 10.7 7.62-.09 24.22.01 34.6.07 41.38 4.33 45 10.5 48.65 4.23 55.54-.07 66.04 0ZM24.15 12.2c-6.38-.04-7.27 6.14-7.3 10.79-.02 4.66.79 10.93 7.17 10.97 6.38.03 7.27-6.23 7.3-10.89.03-4.65-.79-10.84-7.17-10.87Zm41.83 0c-5.89-.04-7.1 5.2-7.28 9.67v.46l-.02.66c-.03 4.66.79 10.93 7.17 10.96 6.38.04 7.27-6.22 7.3-10.88.02-4.65-.8-10.84-7.17-10.88Z" fill="#0E459E" fill-rule="nonzero"/></svg>