<svg xmlns="http://www.w3.org/2000/svg" version="1.1" id="Layer_1" x="0" y="0" xml:space="preserve" width="115.6" height="115.6"><style type="text/css" id="style4370">.tacobell-logo-st0{fill:#fff}.tacobell-logo-st1{fill:#1d191a}</style><g id="g4386" transform="translate(-43.9 -3.05)"><path id="path4374" d="M159.4 66.3c0-31.9-25.9-57.7-57.7-57.7C69.8 8.6 44 34.5 44 66.3v45c0 1 .8 1.9 1.9 1.9h111.7c1 0 1.9-.8 1.9-1.9v-45z" class="tacobell-logo-st0" fill="#fff"/><path id="path4376" d="M147.5 64.2c-2-4.9-18.8-1.2-42.2 11.4-22.9 12.2-36.4 26.4-34.4 30.7 2.1 4.5 25.7 1.3 44.5-9.1 25.7-14.2 34.6-27 32.1-33" class="tacobell-logo-st1" fill="#1d191a"/><path id="path4378" d="M92.5 99.6c-4 .1-7.7-1.5-10.4-4.1 5.3-5.3 13.4-11.2 23-16.5.9 1.8 1.4 3.8 1.4 6 .1 7.9-6.1 14.4-14 14.6" class="tacobell-logo-st0" fill="#fff"/><path id="path4380" d="M56.3 110.1c1.1 1.1 2 1.9 4.6 2.8.1 0 .6.2.6.2H45.8c-1 0-1.9-.8-1.9-1.9V66.3v-.1c0-19.3 9.5-36.4 24.1-46.9l-.7.8c-1.5 2-1.3 3.8-.4 6.3.6 1.7-1.2 3.6-2.2 4.7-4.2 4.6-8.3 10.8-8.8 21.6-.4 9.9 2.5 18.6 3.5 23.2 1 4.9 1.2 6.5 1.3 7.4 3.7-3.1 7.7-6.2 11.7-9 6.5-4.3 11.7-7.4 16.3-9.9 10.3-5.6 13-5 4.8-.2-8.2 4.9-16.1 10.4-21.5 15.2-21.1 19.1-17.9 28.5-15.7 30.7" class="tacobell-logo-st1" fill="#1d191a"/><path id="path4382" d="M159.4 111.3c0 1-.8 1.9-1.9 1.9H84.4l1-.2c9.6-2 20.8-6 32.2-12.4 22.6-11.7 37.4-26.8 41.3-37.7l.2-.5v.5c.1.9.1 2.3.1 3.5v44.9" class="tacobell-logo-st1" fill="#1d191a"/><path id="path4384" d="M76.4 14.3c7.6-3.7 16.2-5.8 25.2-5.8 26.7 0 49.2 18.2 55.8 42.8 0 0-.9-.8-2.9-1.7-1.4-.6-3.5-1.2-6.3-1.7-3.6-.7-7.2-.9-11.3-3.1-7.4-4-17.2-21.3-32.9-25.8-7.5-2.2-13.3-1.3-15.7-.9-1.3.2-3.9.5-4.8-.7-1.9-2.4-3.3-3.9-6.2-3.4-.2.1-.9.3-.9.3" class="tacobell-logo-st1" fill="#1d191a"/></g></svg>