<svg xmlns="http://www.w3.org/2000/svg" width="267.245" height="267.245"><path d="m228.276 39.167-11.755 82.74-82.74 11.756 11.756-82.74z" fill="#a295ae" opacity=".8"/><path d="m39.21 228.134 11.755-82.74 82.74-11.756-11.755 82.74z" fill="#5d6f6d" opacity=".8"/><path d="m39.21 39.277 82.74 11.755 11.756 82.74-82.74-11.755z" fill="#8cd592" opacity=".8"/><path d="m228.18 228.144-82.74-11.755-11.756-82.742 82.74 11.756z" fill="#665e74" opacity=".8"/><path d="m133.758 267.245-50.194-66.82 50.194-66.817 50.194 66.818z" fill="#3c3647" opacity=".8"/><path d="m267.224 133.48-66.82 50.195-66.817-50.194 66.818-50.193z" fill="#837193" opacity=".8"/><path d="m133.636 0 50.194 66.82-50.194 66.817L83.442 66.82z" fill="#a2f4ac" opacity=".8"/><path d="m.02 133.706 66.82-50.194 66.817 50.194L66.84 183.9z" fill="#7ea685" opacity=".8"/><path d="m133.622 101.85 31.772 31.772-31.772 31.772-31.772-31.772z" fill="#3c3647"/></svg>