<svg xmlns="http://www.w3.org/2000/svg" viewBox="0 0 90 90"><path fill="#fff" d="M0 0h90v90H0z"/><g fill-rule="nonzero"><path fill="#994ffa" d="M30.345 45.381c2.953 0 5.344 2.392 5.344 5.342s-2.391 5.344-5.344 5.344-5.344-2.392-5.344-5.344 2.394-5.342 5.344-5.342"/><path fill="#bf91fc" d="M30.345 60.264c2.953 0 5.344 2.392 5.344 5.344s-2.391 5.342-5.344 5.342-5.344-2.392-5.344-5.342 2.394-5.344 5.344-5.344"/><path fill="#5405bd" d="M30.344 30.497c-2.951 0-5.344 2.392-5.344 5.344s2.394 5.342 5.344 5.342 5.347-2.392 5.347-5.342-2.394-5.344-5.347-5.344h0zM56.805 17H46.313v42.002c0 11.139 5.285 15.285 19.687 13.658v-9.511c-6.022.323-9.195.245-9.195-4.147V41.29H66V31.206h-9.195V17z"/></g></svg>