<svg xmlns="http://www.w3.org/2000/svg" viewBox="0 0 630 635"><path fill="#500000" d="M0 0h630v635H0z"/><path fill="#fff" d="M379 252h-5v33h12v101h-12v33h59v-33h-13v-72l38 78 4 8 4-8 38-78v72h-13v33h60v-33h-13V285h13v-33h-54l-1 3-34 70-34-70-1-3h-3zM251 386h-13l-44-101h8v-33h-70v33h10L98 386H79v33h64v-33h-9l7-17h53l7 17h-9v33h64v-33h-5zm-71-49h-24l12-29 12 29z"/><path fill="#fff" d="M203 230v-40h76v251h-40v71h152v-71h-41V190h76v40h72V125H132v105h66z"/><path fill="#b1b3b6" d="m361 470 15-15v42l-15-14zM336 456l-15 15V160l15 15zM162 155l-16-15h329l-19 15zM483 216l-15-14v-39l15-15z"/></svg>