<svg xmlns="http://www.w3.org/2000/svg" fill="#ff7500" viewBox="0 0 117.2 117.2"><path d="M58.6 0a58.7 58.7 0 1 0 .2 117.4A58.7 58.7 0 0 0 58.6 0m0 110.8a52.2 52.2 0 1 1 0-104.5 52.2 52.2 0 0 1 0 104.5m44.8-56.3c-1.3-2.9-4-5-7.1-5.5a11 11 0 0 0-4.4.1c-2.4.4-4.8 1.3-7 1.9l-22.5 6a55 55 0 0 0 4.5-2.8c7-4.6 14.5-8.5 21.6-12.9 3.1-1.9 5.1-4.5 5.1-8.3 0-2.6-1-5.2-2.9-7-1-1-2.1-1.7-3.2-2.2-3-1.2-6.3-.7-8.9 1.1-1.2.8-2.2 1.9-3 3.2-1.4 2-2.5 4.4-3.6 6.4L60.3 54.8l1.2-5.3c1.8-8.2 4.3-16.2 6.2-24.4.8-3.6.4-6.8-2.2-9.5a9.7 9.7 0 0 0-10.8-2.1c-2.9 1.3-5 4-5.5 7.1a11 11 0 0 0 .1 4.4c.4 2.4 1.3 4.8 1.9 7l6.1 22.8-2.8-4.6c-4.6-7-8.5-14.5-12.9-21.6-1.9-3.1-4.5-5.1-8.3-5.1-2.6 0-5.2 1-7 2.9-1 1-1.7 2.1-2.2 3.2-1.2 3-.7 6.3 1.1 8.9.8 1.2 1.9 2.2 3.2 3 2 1.4 4.4 2.5 6.4 3.6l17.3 10 3 1.7-3.4-.8-1.8-.4c-8.2-1.8-16.2-4.3-24.4-6.2-3.6-.8-6.8-.4-9.5 2.2a9.7 9.7 0 0 0-2.1 10.8c1.3 2.9 4 5 7.1 5.5 1.4.3 2.9.2 4.4-.1 2.4-.4 4.8-1.3 7-1.9l21-5.6 1.1-.3-2.8 1.7-1.3.8c-7 4.6-14.5 8.5-21.6 12.9-3.1 1.9-5.1 4.5-5.1 8.3 0 2.6 1 5.2 2.9 7 1 1 2.1 1.7 3.2 2.2 3 1.2 6.3.7 8.9-1.1 1.2-.8 2.2-1.9 3-3.2 1.4-2 2.5-4.4 3.6-6.4l11.5-19.9c-.4 1.2-1.1 4.8-1.2 5.1-1.8 8.2-4.3 16.2-6.2 24.4-.8 3.6-.4 6.8 2.2 9.5a9.7 9.7 0 0 0 10.8 2.1c2.9-1.3 5-4 5.5-7.1a11 11 0 0 0-.1-4.4c-.4-2.4-1.3-4.8-1.9-7l-.3-1.1-.3-1.1-.3-1.1-.3-1.1-.3-1.1-.3-1.1-.3-1.1-.3-1.1-.3-1.1-.3-1.1-.3-1.1-.3-1.1-.3-1.1-.3-1.1-.3-1.1-.3-1.1-.3-1.1-.3-1.1-.3-1.1-.3-1.1-.2-.9.4.7.4.6.4.6.4.6.4.6.3.5.3.4.1.2c4.6 7 8.5 14.5 12.9 21.6 1.9 3.1 4.5 5.1 8.3 5.1 2.6 0 5.2-1 7-2.9 1-1 1.7-2.1 2.2-3.2 1.2-3 .7-6.3-1.1-8.9-.8-1.2-1.9-2.2-3.2-3-2-1.4-4.4-2.5-6.4-3.6l-20-11.5 5 1.2c8.2 1.8 16.2 4.3 24.4 6.2 3.6.8 6.8.4 9.5-2.2a9.7 9.7 0 0 0 2.9-7c.3-1 0-2.3-.5-3.5"/></svg>