<svg xmlns="http://www.w3.org/2000/svg" width="40.44" height="40.44"><path d="M15.136 5.253a5.08 5.08 0 014.91-5.25 5.09 5.09 0 015.252 4.914 5.083 5.083 0 11-10.162.337z" fill="#c20831"/><path d="M17.82 21.634c-1.254 1.26-3.094 1.315-4.248.16l-8.66-8.66c-1.13-1.153-1.08-3.012.158-4.25s3.122-1.308 4.25-.158l8.66 8.66c1.153 1.152 1.08 3.003-.16 4.248zm4.797-.007c1.254 1.26 3.094 1.314 4.248.162l8.66-8.66c1.13-1.153 1.08-3.013-.158-4.252s-3.123-1.308-4.252-.158l-8.66 8.66c-1.153 1.153-1.08 3.003.162 4.248z" fill="#7599bd"/><path d="M4.784 39.467c1.254 1.26 3.114 1.296 4.292.117l8.85-8.85c1.156-1.177 1.127-3.057-.113-4.296s-3.14-1.288-4.295-.112l-8.85 8.848c-1.177 1.178-1.125 3.048.117 4.293zm30.874 0c-1.254 1.26-3.115 1.296-4.293.117l-8.85-8.85c-1.156-1.177-1.127-3.057.113-4.296s3.143-1.288 4.297-.112l8.848 8.848c1.178 1.178 1.125 3.048-.115 4.293z" fill="#002c57"/></svg>