<svg xmlns="http://www.w3.org/2000/svg" viewBox="0 0 35.709 40"><path d="M7.488 14.846h-.186v2.389h3.023v7.924h2.554v-7.924h3.023v-2.389h-.186zM18.898 14.846h4.058c3.165 0 5.462 2.167 5.462 5.155 0 2.988-2.297 5.158-5.462 5.158h-4.058zm2.554 7.971h1.504v-.006c1.678 0 2.805-1.116 2.805-2.796 0-1.68-1.127-2.807-2.805-2.807h-1.504zM27.102 7.784a2.18 2.18 0 0 0 2.18-2.182 2.18 2.18 0 1 0-2.18 2.182z" fill="#004392"/><path d="m33.63 8.477-1.737-1.004c-.181.464-.43.9-.737 1.29l1.73 1.001a2.684 2.684 0 0 1 1.337 2.315v15.843a2.681 2.681 0 0 1-1.336 2.315l-13.705 7.921a2.675 2.675 0 0 1-2.672 0L2.805 30.237a2.681 2.681 0 0 1-1.348-2.315V12.08a2.684 2.684 0 0 1 1.336-2.315l13.705-7.92a2.675 2.675 0 0 1 2.672 0l3.209 1.844c.186-.46.439-.892.752-1.278L19.925.556a4.16 4.16 0 0 0-4.155 0L2.065 8.477A4.17 4.17 0 0 0 0 12.08v15.843a4.17 4.17 0 0 0 2.08 3.602l13.704 7.921c1.287.74 2.87.74 4.156 0l13.705-7.921a4.172 4.172 0 0 0 2.064-3.602V12.08a4.172 4.172 0 0 0-2.079-3.602z" fill="#1976d3"/></svg>
