<svg xmlns="http://www.w3.org/2000/svg" xml:space="preserve" width="175.133" height="175.133" version="1.1" viewBox="0 0 1945.222 1945.445" id="svg145" clip-rule="evenodd" fill-rule="evenodd" image-rendering="optimizeQuality" shape-rendering="geometricPrecision" text-rendering="geometricPrecision"><defs id="defs121"><style type="text/css" id="style119">.fil1{fill:#00a3e0;fill-rule:nonzero}</style></defs><g id="g164" transform="translate(-.297 105.137)" fill="#00a3e0" fill-opacity="1"><path class="fil1" d="M862 961c8 81 12 124-54 194-69 73-242 207-419 309-75 43-176 95-252 123-57 20-104 29-128-12-15-27-8-51 0-72 62-167 239-479 355-682 12-20 24-42 36-63C578 451 814 75 861 14c6-8 19-18 30-12 9 5 9 16 8 24 0 1-3 12-4 17-77 310-68 614-33 918z" id="path138" fill="#00a3e0" fill-opacity="1" fill-rule="nonzero"/><path class="fil1" d="M1122 1056c-75-34-114-52-141-144-29-96-58-313-58-517 0-86 5-200 19-280 11-59 27-105 75-105 30 0 47 19 62 37 114 136 295 446 413 647 12 21 24 42 36 64 177 308 385 700 414 770 4 10 7 26-4 33-10 5-19-1-25-5-1-1-9-9-13-12-230-222-498-367-778-488z" id="path140" fill="#00a3e0" fill-opacity="1" fill-rule="nonzero"/><path class="fil1" d="M909 1234c67-48 102-73 196-51 97 24 299 107 477 209 74 43 170 104 232 156 46 39 77 76 54 117-16 27-40 32-63 36-175 30-534 32-767 34h-74c-355-1-798-17-874-27-11-2-26-7-25-20 0-11 9-16 16-19 2-1 12-4 17-5 307-89 566-248 811-430z" id="path142" fill="#00a3e0" fill-opacity="1" fill-rule="nonzero"/></g></svg>