<svg xmlns="http://www.w3.org/2000/svg" fill="none" viewBox="0 0 133.95 22"><g fill="#222" clip-path="url(#a)"><path d="M6.086 0v6.42h4.534v2.556H6.086v7.668c0 1.644.882 2.557 2.373 2.557h2.16v2.556H8.217c-3.104 0-5.082-1.887-5.082-5.021v-7.76H0V6.42h3.134V0h2.952ZM26.23 16.767C25.681 19.93 22.913 22 19.14 22c-4.747 0-7.699-3.742-7.699-8.003 0-4.29 2.678-7.82 7.394-7.82 4.747 0 7.273 3.378 7.273 7.273 0 .395-.03.882-.061 1.156H14.332c.243 2.89 2.13 4.869 4.808 4.869 2.251 0 3.712-.974 4.138-2.709h2.952Zm-11.807-4.321h8.703c-.183-2.343-1.765-3.895-4.29-3.895-2.404 0-3.956 1.339-4.413 3.895ZM41.14 11.867v9.89h-2.952v-2.495C37.458 20.905 35.51 22 33.198 22c-3.134 0-5.204-1.886-5.204-4.625 0-2.952 2.344-4.777 5.965-4.777h3.195c.7 0 1.034-.365 1.034-.913 0-1.856-1.339-3.134-3.712-3.134-2.13 0-3.682 1.339-3.773 2.89h-2.739c.244-3.012 2.982-5.264 6.603-5.264 3.956 0 6.573 2.282 6.573 5.69Zm-2.952 3.165v-.365h-3.956c-2.008 0-3.316 1.034-3.316 2.647 0 1.4 1.156 2.343 2.86 2.343 2.8 0 4.412-1.795 4.412-4.625ZM43.209 14.089c0-4.23 2.769-7.912 7.607-7.912 3.59 0 6.694 2.13 7.12 5.6h-2.951c-.274-1.735-2.04-3.013-4.108-3.013-3.074 0-4.593 2.373-4.593 5.325 0 2.951 1.551 5.325 4.593 5.325 2.1 0 3.651-1.096 4.138-2.83h2.921C57.45 19.809 54.711 22 50.816 22c-4.838 0-7.607-3.682-7.607-7.911ZM59.822 0h2.951v9.129c.823-1.917 2.649-2.952 4.931-2.952 3.469 0 5.72 2.495 5.72 6.147v9.433h-2.95v-8.855c0-2.434-1.431-4.078-3.592-4.078-2.403 0-4.107 1.948-4.107 4.626v8.307h-2.952L59.821 0ZM94.329 11.867v9.89h-2.952v-2.495C90.647 20.905 88.7 22 86.387 22c-3.134 0-5.203-1.886-5.203-4.625 0-2.952 2.343-4.777 5.964-4.777h3.195c.7 0 1.034-.365 1.034-.913 0-1.856-1.338-3.134-3.712-3.134-2.13 0-3.682 1.339-3.773 2.89h-2.739c.244-3.012 2.982-5.264 6.603-5.264 3.955 0 6.573 2.282 6.573 5.69Zm-2.952 3.165v-.365h-3.955c-2.009 0-3.317 1.034-3.317 2.647 0 1.4 1.156 2.343 2.86 2.343 2.8 0 4.41-1.795 4.41-4.625h.002ZM99.926 19.474v2.283h-2.951V0h2.951v8.672c.883-1.49 2.739-2.495 4.839-2.495 4.686 0 7.333 3.347 7.333 7.912 0 4.564-2.647 7.911-7.364 7.911-2.037 0-3.925-1.004-4.808-2.526Zm9.19-5.386c0-3.194-1.887-5.325-4.717-5.325-2.86 0-4.716 2.13-4.716 5.325 0 3.196 1.856 5.325 4.716 5.325 2.83 0 4.717-2.13 4.717-5.325ZM114.108 0h2.951v21.757h-2.951V0ZM133.944 16.767c-.547 3.164-3.316 5.233-7.088 5.233-4.747 0-7.699-3.742-7.699-8.003 0-4.29 2.678-7.82 7.395-7.82 4.745 0 7.271 3.378 7.271 7.273 0 .395-.031.882-.061 1.156h-11.715c.243 2.89 2.13 4.869 4.807 4.869 2.251 0 3.711-.974 4.137-2.709h2.953Zm-11.805-4.321h8.705c-.181-2.343-1.765-3.895-4.289-3.895-2.406 0-3.959 1.339-4.416 3.895ZM78.9 8.132v3.317h-3.256V8.132H78.9Zm0 10.346v3.278h-3.256V18.47l3.256.008Z"/></g><defs><clipPath id="a"><path fill="#fff" d="M0 0h134v22H0z"/></clipPath></defs></svg>