<svg xmlns="http://www.w3.org/2000/svg" xmlns:xlink="http://www.w3.org/1999/xlink" viewBox="0 0 200 189.87"><g transform="translate(-13.95 -15.99) scale(1.93218)"><circle cx="27.37" cy="60" r="20.15" fill="url(#a)"/><path fill="url(#b)" d="M27.37 39.85a20.16 20.16 0 0 1 0 40.3 20.16 20.16 0 0 1 0-40.3zm0 1.26a18.9 18.9 0 0 1 0 37.78 18.9 18.9 0 0 1 0-37.78z"/><circle cx="27.37" cy="60" r="15.11" fill="#4dcaed"/><circle cx="27.37" cy="60" r="13.85" fill="url(#c)"/><circle cx="27.37" cy="60" r="10.39" fill="#b7bdd2"/><path fill="url(#d)" d="M51.5 23.14a9.56 9.56 0 0 1 1.49 1.11c5.34 4.96 7.98 9.82 9.46 16.6 1.3 5.97 1.94 8.86-1.2 11.04-4.25 2.95 4.52 15.52 6.24 19.16-2.26 2.9-5.21 2.84-6.77 3.64-.86.45-.5 2.1-.37 3.37.14 1.24 1.28 2.02.66 2.98-.57.87-2.7.93-3.62 1.52.9.98 2.87 1.96 2.6 3.24-.2.98-2.41.8-3.26 3.04-.46 1.2-.23 3.43-1.17 4.55a6.86 6.86 0 0 1-5.03 2.67 8.1 8.1 0 0 1-3.37-.35 37.13 37.13 0 0 1-9.75-4.9c1.2.2 2.53.4 3.91.55 4.03.44 6.05.06 7.98-2.24.83-.98.63-2.94 1.03-4 .75-1.96 2.7-1.8 2.88-2.67.22-1.12-1.51-1.99-2.3-2.85.82-.52 2.69-.57 3.18-1.33.55-.85-.45-1.54-.57-2.63-.13-1.12-.44-2.57.32-2.96 1.37-.7 3.96-.65 5.95-3.2-1.5-3.2-9.22-14.25-5.49-16.84 2.76-1.92 2.21-4.46 1.06-9.72a25.86 25.86 0 0 0-8.32-14.59 12.04 12.04 0 0 0-4.19-2.3 37.4 37.4 0 0 1 8.64-2.9z"/></g><path fill="#d1d1e0" d="m101.98 27.29 4.64.27a72.72 72.72 0 0 1 65.81 78.96 72.74 72.74 0 0 1-69.75 66.07 14.85 14.85 0 0 0 1.47-1.32c3.08-3.17 3.67-6.99 4.2-10.88.28-1.97 1.77-2.12 3.04-2.85 5.5-3.17 3.16-10.5 3.16-10.5a8.17 8.17 0 0 0 3.1-5c.5-2.77-1.39-5.16-1.79-8.35.77-.22 1.53-.44 2.29-.69 6.18-2.02 14.65-6.94 11.45-13.59-3.56-7.38-8.5-14.35-11.74-22.01-1.26-3-2.7-6.02-2.21-8.79 6.02-4.34 7.28-11.38 6.4-17.75-2.28-16.87-8.72-32.13-20.07-43.57z"/><path fill="url(#e)" d="M118.73 38a70.33 70.33 0 0 1 25.95 16.73c13.78 14.22 21.97 34.91 17.99 54.18-3.77 18.26-19.6 33.46-30.1 38.14-5.03 2.26-9.08 1.93-9.08 1.31 0-.62.67-1.9 3.82-5.68 11.27-13.58 17.9-33.43 8-48.9a33.7 33.7 0 0 0-7.25-8.06 22.84 22.84 0 0 0 2-13.76A90.1 90.1 0 0 0 118.7 38z"/><path fill="url(#f)" d="M98.3 0a113.79 113.79 0 0 0-57.6 119.94 20.1 20.1 0 0 1-21.84-20c0-33.3 12.17-63.76 32.34-87.2A99.4 99.4 0 0 1 98.3.01Z"/><path fill="#94a2c1" d="M51.2 12.74A99.44 99.44 0 0 1 100.05 0C155.21 0 200 44.78 200 99.95c0 53.42-48.51 102.7-120.64 86.93l-.17-.14c43.16 4.59 74.97-12.99 92.21-38.67l.11-.16a85.63 85.63 0 0 0 14.6-47.96v-.01c0-47.5-38.57-86.06-86.06-86.06a86.05 86.05 0 0 0-73.5 41.28 133.82 133.82 0 0 1 24.64-42.42z"/><path fill="#b7bdd2" d="M100.05 0C155.21 0 200 44.78 200 99.95a89.3 89.3 0 0 1-21.78 58.32 97.08 97.08 0 0 0 19.37-58.32c0-53.84-43.7-97.54-97.54-97.54a97.03 97.03 0 0 0-53.4 15.92 134.24 134.24 0 0 1 4.54-5.59 99.6 99.6 0 0 1 19.38-8.31h.03l.73-.23h.01l.76-.23.75-.21.02-.01.71-.2.08-.02.73-.2.77-.2.72-.18.1-.03.66-.16.1-.02.74-.17.74-.17.1-.02.64-.14.14-.03.68-.14.05-.02.76-.15.06-.01.67-.13.17-.03.59-.11.16-.03.73-.13.74-.12.17-.03.57-.1.2-.02.61-.1.13-.02.74-.1.13-.02.6-.08.22-.03.55-.07.2-.02.74-.1.74-.07.21-.03.54-.05.23-.02.59-.06.16-.01.74-.07.16-.01.58-.04.24-.02.54-.04.22-.01.75-.05.74-.04.23-.01.53-.02.25-.01.58-.02.17-.01.75-.02h.18l.58-.02h.78l.23-.01z"/><defs><linearGradient xlink:href="#g" id="a" x1="27.37" x2="27.37" y1="80.15" y2="39.85"><stop offset="0" stop-color="#384e8b"/><stop offset="1" stop-color="#26355d"/></linearGradient><linearGradient xlink:href="#g" id="b" x1="27.37" x2="27.37" y1="80.15" y2="39.85"><stop offset="0" stop-color="#4864b2"/><stop offset="1" stop-color="#2b3c6a"/></linearGradient><linearGradient xlink:href="#g" id="c" x1="27.37" x2="27.37" y1="73.85" y2="46.15"><stop offset="0" stop-color="#22b2e7"/><stop offset="1" stop-color="#177a9e"/></linearGradient><linearGradient xlink:href="#g" id="d" x1="53.98" x2="53.98" y1="94.87" y2="22.39"><stop offset="0" stop-color="#364b85"/><stop offset="1" stop-color="#293965"/></linearGradient><linearGradient xlink:href="#g" id="e" x1="74.66" x2="74.66" y1="85.29" y2="30.78" gradientTransform="translate(-13.95 -15.99) scale(1.93218)"><stop offset="0" stop-color="#a7b1cd"/><stop offset=".46" stop-color="#c8cbdc"/><stop offset="1" stop-color="#d1d2e0"/></linearGradient><linearGradient xlink:href="#g" id="f" x1="28.32" x2="47.8" y1="70.36" y2="9.51" gradientTransform="translate(-13.95 -15.99) scale(1.93218)"><stop offset="0" stop-color="#b7bdd2"/><stop offset="1" stop-color="#607bb6"/></linearGradient><linearGradient id="g" gradientUnits="userSpaceOnUse"/></defs></svg>