<svg xmlns="http://www.w3.org/2000/svg" viewBox="0 0 229.6 229.6"><defs><radialGradient id="a" cx="115" cy="70" r="115" fx="115" fy="70" gradientUnits="userSpaceOnUse" spreadMethod="pad"><stop offset="0" style="stop-opacity:1;stop-color:#f7970f"/><stop offset="1" style="stop-opacity:1;stop-color:#f1481d"/></radialGradient></defs><path d="M230 115a115 115 0 1 1-230 0 115 115 0 0 1 230 0" style="fill:url(#a);stroke-width:1.00174"/><path d="m86.9 185.6-30.2-23.1a504.4 504.4 0 0 1 29.9-31.2l7.8-7.6A556.7 556.7 0 0 1 43.2 111l12.4-35.5A312.6 312.6 0 0 1 102 99a388 388 0 0 1-4.7-54h35.5c0 10-1.8 28.2-5.4 54.4 2.6-1 8.4-3.6 17.3-7.8a598.8 598.8 0 0 1 33.8-14l10.3 36.3a949.3 949.3 0 0 1-51.8 9.8l24 27.3a487.3 487.3 0 0 1 11.5 13.6l-31 20.4-26.8-45.2A904.4 904.4 0 0 1 87 185.6" style="fill:#fff"/></svg>
