<svg xmlns="http://www.w3.org/2000/svg" x="0px" y="0px" viewBox="0 0 119.1 119.1"><path fill="#FFFFFF" d="M59.5,0L59.5,0c32.9,0,59.5,26.6,59.5,59.5v0c0,32.9-26.6,59.5-59.5,59.5h0C26.6,119.1,0,92.4,0,59.5v0 C0,26.6,26.6,0,59.5,0z"/><path fill="#1D1C39" d="M58.7,52.1c3.3,0,5.2-1.8,5.2-4.9c0.1-2.6-1.9-4.8-4.5-4.9c-0.2,0-0.4,0-0.5,0h-7.5v-5.5c0.2-3.1-2.2-5.9-5.4-6 c-3.1-0.2-5.9,2.2-6,5.4c0,0.2,0,0.5,0,0.7v38.2c0,9.2,3.7,13.3,11.9,13.3c3.1,0.1,6.2-0.7,8.9-2.2c1.3-0.8,2.1-2.3,2-3.8 c0-2.5-1.7-5.2-4-5.2c-0.3,0-0.7,0.1-1,0.2l-0.4,0.2c-0.8,0.4-1.8,0.7-2.7,0.7c-1.5,0-3.2-0.5-3.2-4.6V52.1H58.7z"/><path fill="#FF22B1" d="M83.2,68.2c-5.5,0-10,4.5-10,10s4.5,10,10,10s10-4.5,10-10S88.7,68.2,83.2,68.2"/></svg>