<svg xmlns="http://www.w3.org/2000/svg" width="2663.685" height="2663.685"><path d="M.026 1390.893c2.505-41.593-3.707-90.154 4.16-138.482 13.234-81.26 56.364-140.452 129.49-177.386 18.005-9.106 29.069-18.51 33.171-40.958 31.81-174.484 101.88-333.043 205.396-476.777 11.892-16.498 21.358-27.85 6.114-49.26-19.405-27.235-5.542-52.31 14.67-74.97C539.007 269.525 714.72 148.324 923.744 83.795c498.612-153.878 938.131-48.603 1313.55 315.423 34.625 33.588 80.877 67.43 36.658 126.474-7.391 9.87 5.676 18.425 11.33 26.155 107.605 146.7 178.657 309.197 210.36 488.404 3.494 19.801 15.799 26.07 30.242 33.376 90.175 45.681 134.48 121.201 134.882 220.208.339 89.485 9.19 179.55-5.697 268.497-21.453 127.999-151.718 217.226-277.896 191.107-38.184-7.908-48.328-37.307-48.137-73.28.699-146.828 3.621-293.747.127-440.497-9.51-394.629-187.742-691.818-532.74-881.508C1219.03 40.677 478.442 392.59 351.339 1039.764c-22.087 112.497-18.283 225.46-17.021 338.835 1.165 105.466-.098 211-2.681 316.425-.907 37-22.68 57.907-62.18 59.734C108.55 1762.266.341 1660.038.026 1499.146c-.06-33.828 0-67.653 0-108.253" fill="#4180ca"/><path d="M1630.706 1937.501c67.32 8.867 134.454 19.733 202.254 23.68 91.013 5.28 159.84-23.907 210.76-78.747 63.96-68.866 93.28-148.96 88.32-238.76-5-90.266-84.2-143.653-191.48-125.093-95.747 16.587-180.6 53.933-266.507 88.253-75.973 30.347-147.187 66.814-202.96 118.574-78.427 72.8-33.92 169.226 91.28 199.52 22.413 5.426 45.533 8.44 68.333 12.573M1256.89 1749.389h.019c-.02-.041-.04-.055-.06-.096-7.02-21.407-18.971-40.92-33.348-59.262-49.5-77.168-118.327-146.76-187.982-205.122-36.563-31.764-75.471-60.72-115.742-87.865-89.613-61.838-159.841-97.812-159.841-97.812l-.236.122c-106.574-53.266-203.779-1.199-229.416 120.42-28.774 136.43-5.719 267.082 68.313 386.125 50.96 81.95 129.687 120.8 223.893 129.644 58.91 5.518 118.052 8.693 177.098 12.904 48.06 1.131 96.003 4.524 142.722-11.35 61.549-20.89 109.037-58.432 119.627-124.671 3.67-22.948 1.282-43.742-5.048-63.037M2397.8 2063.732c-1.03-53.427-24.695-140.083-59.853-167.766-15.056-11.832-37.293-5.15-43.062 13.128-7.447 23.62-19.72 57.425-38.397 97.145h.06c-41.59 98.412-102.696 179.012-174.146 245.091-93.276 86.321-204.183 147.788-312.588 191.534-.044.026-.059.026-.103.04-26.961 10.867-53.76 20.653-80.09 29.44-.206.08-.456.16-.662.226a1515.353 1515.353 0 01-51.789 16.227c-.117.04-.235.08-.368.093a1412.316 1412.316 0 01-24.415 6.96c-.442.12-.898.267-1.325.388a1675.837 1675.837 0 01-48.006 12.399c-.648.16-1.266.293-1.913.453a1300.139 1300.139 0 01-21.296 4.986c-.618.134-1.221.294-1.84.44a1750.45 1750.45 0 01-43.208 9.16c-.957.188-1.87.36-2.811.56-6.137 1.202-12.156 2.348-18.043 3.455-.765.132-1.516.266-2.27.413a1849.09 1849.09 0 01-37.453 6.467c-1.025.159-2.04.32-3.039.466-5.174.826-10.213 1.6-15.107 2.333-.627.094-1.28.2-1.907.293a2593.68 2593.68 0 01-16.414 2.347h-.038c-5.107.707-9.96 1.347-14.695 1.947-.773.106-1.519.2-2.293.28-4.546.574-8.973 1.12-13.173 1.613h-.08c-34.939 4.093-56.711 5.333-60.142 5.507-.316.026-.513.026-.513.026l.04.04c-454.02 47.548 115.255 147.053 543.337 71.707l-.015.04c.986-.16 1.899-.387 2.885-.561a1475.294 1475.294 0 0029.934-5.653 1114.912 1114.912 0 0026.049-5.547c6.637-1.479 13.23-3.012 19.765-4.599 4.047-1 8.197-1.947 12.156-2.974 57.043-14.493 109.406-32.892 153.969-55.786 264.904-128.186 290.541-342.305 290.541-342.305 8.816-40.6 13.378-86.733 12.318-140.013" fill="#4180ca"/></svg>