<svg xmlns="http://www.w3.org/2000/svg" viewBox="0 0 119.1 119.1"><path fill="#FFF" d="M59.5 0C92.4 0 119 26.6 119 59.5S92.4 119 59.5 119C26.6 119.1 0 92.4 0 59.5S26.6 0 59.5 0z"/><path fill="#1D1C39" d="M58.7 52.1c3.3 0 5.2-1.8 5.2-4.9.1-2.6-1.9-4.8-4.5-4.9h-8v-5.5c.2-3.1-2.2-5.9-5.4-6-3.1-.2-5.9 2.2-6 5.4V75.1c0 9.2 3.7 13.3 11.9 13.3 3.1.1 6.2-.7 8.9-2.2 1.3-.8 2.1-2.3 2-3.8 0-2.5-1.7-5.2-4-5.2-.3 0-.7.1-1 .2l-.4.2c-.8.4-1.8.7-2.7.7-1.5 0-3.2-.5-3.2-4.6V52.1h7.2z"/><path fill="#FF22B1" d="M83.2 68.2c-5.5 0-10 4.5-10 10s4.5 10 10 10 10-4.5 10-10-4.5-10-10-10"/></svg>