<svg xmlns="http://www.w3.org/2000/svg"><defs><radialGradient id="b" cx="0" cy="0" r="1" fx="0" fy="0" gradientTransform="matrix(861.131 0 0 -861.131 891.874 1229.38)" gradientUnits="userSpaceOnUse" spreadMethod="pad"><stop offset="0" style="stop-opacity:1;stop-color:#f7970f"/><stop offset="1" style="stop-opacity:1;stop-color:#f1481d"/></radialGradient><clipPath id="a" clipPathUnits="userSpaceOnUse"><path d="M1753 891.902c0-475.613-385.52-861.152-861.129-861.152-475.578 0-861.125 385.539-861.125 861.152 0 475.578 385.547 861.118 861.125 861.118 475.609 0 861.129-385.54 861.129-861.118z"/></clipPath></defs><g clip-path="url(#a)" transform="matrix(.13333 0 0 -.13333 0 237.84)"><path d="M1753 891.902c0-475.613-385.52-861.152-861.129-861.152-475.578 0-861.125 385.539-861.125 861.152 0 475.578 385.547 861.118 861.125 861.118 475.609 0 861.129-385.54 861.129-861.118" style="fill:url(#b);fill-opacity:1;fill-rule:nonzero;stroke:none"/></g><path d="m682.352 361.301-226.262 173c71.73 81.508 146.484 159.461 224.195 233.84 30.856 30.191 50.324 49.339 58.324 57.437-25.129 3.887-96.851 20.184-215.14 48.813-85.375 20.652-141.531 35.941-168.559 45.777l93.188 266.292c128.84-53.29 244.656-111.91 347.332-176.12-23.953 165.43-35.871 300.45-35.871 405.04h266.181c0-75.03-13.42-211.06-40.369-408.17 19.929 8.06 63.319 27.46 130.349 58.45 91.57 40.91 176.04 75.86 253.38 104.82l77.2-271.562c-112.04-24.934-241.7-49.406-389.07-73.34l180.8-205.418c36.1-41.539 64.69-75.519 85.84-101.801l-231.57-151.75L891.188 705.66c-60.735-107.762-130.29-222.578-208.836-344.359" style="fill:#fff;fill-opacity:1;fill-rule:nonzero;stroke:none" transform="matrix(.13333 0 0 -.13333 0 237.84)"/></svg>