<svg xmlns="http://www.w3.org/2000/svg" xmlns:xlink="http://www.w3.org/1999/xlink" width="200" height="200" fill-rule="evenodd" stroke-linejoin="round" stroke-miterlimit="2"><g transform="translate(-13.952 -10.92) scale(1.93218)"><circle cx="27.371" cy="59.999" r="20.15" fill="url(#a)"/><path d="M27.371 39.849c11.121 0 20.15 9.029 20.15 20.15s-9.029 20.15-20.15 20.15-20.15-9.029-20.15-20.15 9.029-20.15 20.15-20.15zm0 1.259c10.426 0 18.891 8.465 18.891 18.891s-8.465 18.89-18.891 18.89-18.89-8.464-18.89-18.89 8.464-18.891 18.89-18.891z" fill="url(#b)"/><circle cx="27.371" cy="59.999" r="15.112" fill="#4dcaed"/><circle cx="27.371" cy="59.999" r="13.853" fill="url(#c)"/><circle cx="27.371" cy="59.999" r="10.39" fill="#b7bdd2"/><path d="M51.492 23.136a9.562 9.562 0 0 1 1.496 1.116c5.34 4.957 7.981 9.823 9.462 16.589 1.308 5.978 1.936 8.873-1.206 11.053-4.241 2.943 4.531 15.518 6.242 19.157-2.261 2.9-5.209 2.837-6.767 3.641-.864.445-.507 2.094-.367 3.364.137 1.243 1.282 2.025.654 2.988-.563.863-2.69.925-3.614 1.519.889.979 2.866 1.961 2.606 3.234-.2.983-2.418.81-3.272 3.048-.458 1.199-.222 3.423-1.168 4.546-1.432 1.698-2.908 2.476-5.028 2.671a8.1 8.1 0 0 1-3.366-.351 37.132 37.132 0 0 1-9.757-4.903c1.211.203 2.528.393 3.916.547 4.024.447 6.046.061 7.978-2.231.832-.987.624-2.942 1.027-3.997.751-1.967 2.701-1.815 2.877-2.68.229-1.119-1.509-1.982-2.291-2.844.812-.521 2.683-.576 3.178-1.335.552-.847-.455-1.534-.575-2.628-.123-1.116-.438-2.566.322-2.957 1.37-.707 3.962-.651 5.95-3.201-1.504-3.2-9.217-14.257-5.488-16.845 2.763-1.916 2.21-4.462 1.06-9.718-1.302-5.949-3.625-10.228-8.32-14.587-1.013-.94-2.515-1.726-4.189-2.303a37.404 37.404 0 0 1 8.64-2.893z" fill="url(#d)"/></g><path d="m101.979 32.359 4.64.274c39.953 3.629 69.442 39.011 65.813 78.96-3.347 36.851-33.709 64.802-69.756 66.07a14.851 14.851 0 0 0 1.475-1.324c3.081-3.17 3.669-6.985 4.202-10.878.278-1.973 1.764-2.122 3.032-2.852 5.499-3.173 3.165-10.497 3.165-10.497 1.605-1.227 2.755-3.024 3.103-4.995.49-2.78-1.393-5.165-1.79-8.359.766-.216 1.53-.436 2.286-.684 6.183-2.027 14.654-6.944 11.45-13.59-3.557-7.38-8.495-14.351-11.734-22.018-1.265-2.995-2.707-6.019-2.218-8.784 6.027-4.337 7.279-11.382 6.411-17.756-2.29-16.864-8.724-32.13-20.08-43.567z" fill="#d1d1e0"/><path d="M68.669 27.944c5.063 1.898 9.705 4.789 13.444 8.653 7.124 7.364 11.362 18.068 9.307 28.046-1.945 9.446-10.145 17.317-15.578 19.741-2.601 1.161-4.71.991-4.696.675s.344-.979 1.973-2.942c5.828-7.028 9.26-17.292 4.138-25.307-1.038-1.626-2.311-3-3.748-4.172 1.153-2.171 1.351-4.726 1.027-7.116-.868-6.387-2.779-12.37-5.867-17.578z" fill="url(#e)" transform="translate(-13.952 -10.92) scale(1.93218)"/><path d="M58.106 8.281c-18.303 9.986-30.735 29.412-30.735 51.718 0 3.532.312 6.992.909 10.35-.299.026-.602.04-.909.04-5.734 0-10.39-4.656-10.39-10.39 0-17.232 6.306-33.002 16.736-45.128a51.44 51.44 0 0 1 24.389-6.59z" fill="url(#f)" transform="translate(-13.952 -10.92) scale(1.93218)"/><path d="M51.193 17.813a99.436 99.436 0 0 1 48.854-12.748C155.212 5.065 200 49.853 200 105.02c0 53.42-48.513 102.702-120.641 86.93l-.164-.14c43.155 4.587 74.964-12.99 92.21-38.672l.105-.157a85.628 85.628 0 0 0 14.608-47.96v-.012c-.008-47.5-38.573-86.061-86.071-86.061-31.105 0-58.377 16.533-73.5 41.285a133.823 133.823 0 0 1 24.646-42.42z" fill="#94a2c1"/><path d="M100.047 5.065C155.212 5.065 200 49.853 200 105.02c0 21.41-7.792 42.157-21.78 58.318a97.08 97.08 0 0 0 19.369-58.318c0-53.836-43.708-97.544-97.542-97.544A97.03 97.03 0 0 0 46.645 23.4a134.238 134.238 0 0 1 4.548-5.586A99.604 99.604 0 0 1 70.567 9.49l.03-.008.734-.224.01-.002.755-.224.755-.217.023-.006.708-.197.075-.02.732-.198.77-.2.724-.183.106-.027.655-.16.089-.021.746-.176.744-.168.106-.023.63-.137.145-.031.672-.141.058-.014.76-.153.057-.011.667-.13.17-.03.591-.11.157-.028.738-.131.738-.124.168-.027.574-.093.199-.03.612-.093.124-.02.744-.106.128-.017.608-.081.215-.03.55-.069.201-.025.738-.087.738-.081.21-.023.542-.054.232-.024.581-.054.163-.015.74-.064.164-.013.582-.045.24-.017.534-.037.223-.015.744-.047.745-.038.226-.012.536-.023.245-.01.578-.021.178-.008.745-.021.178-.004.58-.012.247-.003.537-.006.232-.002z" fill="#b7bdd2"/><defs><linearGradient id="a" x1="27.371" y1="80.149" x2="27.371" y2="39.849" xlink:href="#g"><stop offset="0" stop-color="#384e8b"/><stop offset="1" stop-color="#26355d"/></linearGradient><linearGradient id="b" x1="27.371" y1="80.149" x2="27.371" y2="39.849" xlink:href="#g"><stop offset="0" stop-color="#4864b2"/><stop offset="1" stop-color="#2b3c6a"/></linearGradient><linearGradient id="c" x1="27.372" y1="73.852" x2="27.372" y2="46.146" xlink:href="#g"><stop offset="0" stop-color="#22b2e7"/><stop offset="1" stop-color="#177a9e"/></linearGradient><linearGradient id="d" x1="53.978" y1="94.874" x2="53.978" y2="22.385" xlink:href="#g"><stop offset="0" stop-color="#364b85"/><stop offset="1" stop-color="#293965"/></linearGradient><linearGradient id="e" x1="74.658" y1="85.292" x2="74.658" y2="30.782" xlink:href="#g"><stop offset="0" stop-color="#a7b1cd"/><stop offset=".46" stop-color="#c8cbdc"/><stop offset="1" stop-color="#d1d2e0"/></linearGradient><linearGradient id="f" x1="28.316" y1="70.359" x2="47.796" y2="9.509" xlink:href="#g"><stop offset="0" stop-color="#b7bdd2"/><stop offset="1" stop-color="#607bb6"/></linearGradient><linearGradient id="g" gradientUnits="userSpaceOnUse"/></defs></svg>