<svg xmlns="http://www.w3.org/2000/svg" xmlns:xlink="http://www.w3.org/1999/xlink" fill="none" viewBox="4 4 36 38"><path fill="url(#a)" d="M22 20h12a6 6 0 0 1 6 6v10a6 6 0 1 1-12 0V26a6 6 0 0 0-6-6"/><use fill="url(#c)" href="#b"/><use fill="url(#d)" fill-opacity=".7" href="#b"/><use fill="url(#e)" fill-opacity=".7" href="#b"/><use fill="url(#g)" href="#f"/><use fill="url(#h)" fill-opacity=".46" href="#f"/><use fill="url(#i)" fill-opacity=".4" href="#f"/><use fill="url(#k)" href="#j"/><use fill="url(#l)" fill-opacity=".6" href="#j"/><use fill="url(#m)" fill-opacity=".5" href="#j"/><rect width="16" height="16" x="4" y="23" fill="url(#n)" rx="3.25"/><rect width="16" height="16" x="4" y="23" fill="url(#o)" fill-opacity=".7" rx="3.25"/><path fill="#fff" d="M15.479 28.105h-2.447v7.466h-2.065v-7.466H8.52v-1.677h6.959z"/><defs><radialGradient id="a" cx="0" cy="0" r="1" gradientTransform="matrix(13.4784 0 0 33.2694 39.797 22.174)" href="#p"><stop stop-color="#a98aff"/><stop offset=".14" stop-color="#8c75ff"/><stop offset=".565" stop-color="#5f50e2"/><stop offset=".9" stop-color="#3c2cb8"/></radialGradient><radialGradient id="c" cx="0" cy="0" r="1" gradientTransform="rotate(68.154 -7.716 14.714)scale(32.752 33.1231)" href="#p"><stop stop-color="#85c2ff"/><stop offset=".69" stop-color="#7588ff"/><stop offset="1" stop-color="#6459fe"/></radialGradient><radialGradient id="e" cx="0" cy="0" r="1" gradientTransform="rotate(113.326 8.093 17.645)scale(19.2186 15.4273)" href="#p"><stop stop-color="#bd96ff"/><stop offset=".687" stop-color="#bd96ff" stop-opacity="0"/></radialGradient><radialGradient id="g" cx="0" cy="0" r="1" gradientTransform="matrix(0 -10 12.6216 0 33 11.571)" href="#p"><stop offset=".268" stop-color="#6868f7"/><stop offset="1" stop-color="#3923b1"/></radialGradient><radialGradient id="h" cx="0" cy="0" r="1" gradientTransform="rotate(40.052 -.03 44.873)scale(7.14629 10.3363)" href="#p"><stop offset=".271" stop-color="#a1d3ff"/><stop offset=".813" stop-color="#a1d3ff" stop-opacity="0"/></radialGradient><radialGradient id="i" cx="0" cy="0" r="1" gradientTransform="rotate(-41.658 32.118 -43.42)scale(8.51275 20.8824)" href="#p"><stop stop-color="#e3acfd"/><stop offset=".816" stop-color="#9fa2ff" stop-opacity="0"/></radialGradient><radialGradient id="k" cx="0" cy="0" r="1" gradientTransform="matrix(0 -12 15.146 0 18 8.286)" href="#p"><stop offset=".268" stop-color="#8282ff"/><stop offset="1" stop-color="#3923b1"/></radialGradient><radialGradient id="l" cx="0" cy="0" r="1" gradientTransform="rotate(40.052 -3.155 21.416)scale(8.57554 12.4035)" href="#p"><stop offset=".271" stop-color="#a1d3ff"/><stop offset=".813" stop-color="#a1d3ff" stop-opacity="0"/></radialGradient><radialGradient id="m" cx="0" cy="0" r="1" gradientTransform="rotate(-41.658 20.382 -26.516)scale(10.2153 25.0589)" href="#p"><stop stop-color="#e3acfd"/><stop offset=".816" stop-color="#9fa2ff" stop-opacity="0"/></radialGradient><radialGradient id="n" cx="0" cy="0" r="1" gradientTransform="rotate(45 -25.763 16.328)scale(22.6274)" href="#p"><stop offset=".047" stop-color="#688eff"/><stop offset=".947" stop-color="#230f94"/></radialGradient><radialGradient id="o" cx="0" cy="0" r="1" gradientTransform="matrix(0 11.2 -13.0702 0 12 32.6)" href="#p"><stop offset=".571" stop-color="#6965f6" stop-opacity="0"/><stop offset="1" stop-color="#8f8fff"/></radialGradient><path id="b" d="M8 24a6 6 0 0 1 6-6h8a6 6 0 0 1 6 6v12a6 6 0 0 0 6 6H18c-5.523 0-10-4.477-10-10z"/><path id="f" d="M33 18a5 5 0 1 0 0-10 5 5 0 1 0 0 10"/><path id="j" d="M18 16a6 6 0 1 0 0-12 6 6 0 1 0 0 12"/><linearGradient id="d" x1="20.594" x2="20.594" y1="18" y2="42" href="#p"><stop offset=".801" stop-color="#6864f6" stop-opacity="0"/><stop offset="1" stop-color="#5149de"/></linearGradient><linearGradient id="p" gradientUnits="userSpaceOnUse"/></defs></svg>