<svg xmlns="http://www.w3.org/2000/svg" width="1024" height="1024"><defs><linearGradient x1="511.61" y1="1026.9" x2="511.61" gradientUnits="userSpaceOnUse" y2="-.324" id="a"><stop offset="0" stop-color="#096fd2"/><stop offset="1" stop-color="#0e8ee9"/></linearGradient><linearGradient x1="412.95" y1="648.08" x2="412.86" gradientUnits="userSpaceOnUse" y2="376.45" id="b"><stop offset="0" stop-color="#096fd2"/><stop offset="1" stop-color="#0e8ee9"/></linearGradient></defs><path class="cls-1" d="M917 0H105.8A107.2 105.8 0 000 106.3v811.4A107.2 105.8 0 00106.4 1024h811.2A107.2 105.8 0 001024 917.7V106.3A107.2 105.8 0 00917 0zM511.6 935.4A426.2 420.6 0 0188.7 512 426.2 420.6 0 01511.6 88.6 426.2 420.6 0 01934.8 512a426.2 420.6 0 01-423.2 423.4z" fill="url(#a)" transform="translate(.001)"/><path class="cls-1" d="M904.2 512L610.7 376.3l23.58 86.95h-245.2l23.58-86.95-293.5 135.8 293.7 135.7-23.58-86.95h245.2L610.9 647.8l293.3-135.7" fill="url(#b)" transform="translate(.001)"/></svg>