<svg xmlns="http://www.w3.org/2000/svg" viewBox="0 0 90 90"><path fill="#fff" opacity="0" d="M0 0h90v90H0z"/><path fill="#1389d2" fill-rule="nonzero" d="M39.62.322c9.776-1.183 19.926.915 28.393 5.997a45.16 45.16 0 0 1 19.27 23.238c3.833 10.42 3.604 22.292-.641 32.551-3.915 9.577-11.234 17.665-20.297 22.523-9.202 5.002-20.151 6.56-30.384 4.461-10.601-2.125-20.346-8.276-26.874-16.965A44.85 44.85 0 0 1 .004 44.62c.034-10.409 3.877-20.735 10.593-28.633C17.853 7.324 28.446 1.607 39.62.322M32.203 11.57A35.98 35.98 0 0 0 13.24 28.49c-3.727 7.097-4.92 15.49-3.375 23.366 1.541 8.069 6 15.506 12.303 20.701 6.255 5.221 14.317 8.174 22.439 8.228l-.064-7.029c-.049-1.947-1.897-3.331-3.671-3.63-.056 1.754.007 3.898-1.523 5.089-1.459 1.009-3.42.987-5.07.544-1.669-.473-2.595-2.219-2.644-3.876-.101-2.514-.015-5.032-.045-7.551l-2.01-.004v-6.586l2.014-.008-.004-2.238c-.863-.287-1.86-.631-2.209-1.573-.863-2.057.21-4.367-.626-6.439-.855-2.182-1.706-4.594-.911-6.934.491-1.648 2.092-2.7 3.75-2.832l-.004-14.277c-.026-2.526 1.001-5.127 3.007-6.704 2.287-1.83 5.321-2.299 8.163-2.28 6.326.004 12.52 3.028 16.608 7.864l-.008 3.418c-5.666.004-11.332-.004-16.998 0-.615-.113-1.2.465-1.091 1.089l-.019 10.938c1.046.004 2.096.019 3.142-.03.176-.73.371-1.452.581-2.17l13.818 3.429-.454 1.607-1.215.465-.409 37.776c10.833-3.724 19.656-12.942 22.727-24.092 2.423-8.492 1.553-17.888-2.43-25.764-3.911-7.849-10.792-14.129-18.914-17.298-8.223-3.263-17.646-3.305-25.899-.121m8.651 44.045l.004 2.121 1.867.004v6.591l-1.871.004v2.004l3.682-.004-.079-10.719h-3.604 0z"/></svg>