<svg xmlns="http://www.w3.org/2000/svg" viewBox="0 0 90 90"><path fill="#fff" opacity="0" d="M0 0h90v90H0z"/><path fill="#f4215c" fill-rule="nonzero" d="M58.859 29.286c-2.823 0-5.118 2.223-5.118 4.957 0 3.891 1.488 7.447 3.941 10.178 1.016 1.129 2.196 2.114 3.507 2.922a18.35 18.35 0 0 0 1.951-3.734 17.88 17.88 0 0 0 1.178-6.394c0-1.334-.149-2.635-.429-3.891-.021-.105-.049-.21-.074-.315-.568-2.14-2.572-3.723-4.953-3.723h-.002zM27.281 43.609c.506 1.322 1.165 2.574 1.956 3.734a16.1 16.1 0 0 0 3.503-2.922c2.455-2.727 3.945-6.287 3.945-10.178 0-2.733-2.296-4.957-5.123-4.957-2.381 0-4.383 1.586-4.953 3.721-.021.105-.051.21-.074.315-.276 1.259-.425 2.559-.425 3.893a17.89 17.89 0 0 0 1.175 6.394h-.004zm56.839-2.425L89 43.55c-3.529 6.817-10.809 11.503-19.224 11.503a22.11 22.11 0 0 1-7.061-1.154C58.257 58.279 52.066 61 45.21 61s-13.051-2.723-17.506-7.105c-2.211.747-4.591 1.154-7.063 1.154-8.757 0-16.293-5.076-19.641-12.355l4.995-2.15c2.5 5.427 8.12 9.221 14.645 9.221a16.56 16.56 0 0 0 3.469-.369c-2.2-3.566-3.465-7.73-3.465-12.183 0-1.695.185-3.35.531-4.944.051-.231.106-.453.164-.68C22.545 27.218 26.662 24 31.558 24c.098 0 .191.004.289.006.298.008.595.027.889.059 5.293.566 9.404 4.908 9.404 10.18 0 7.086-3.66 13.341-9.246 17.096 3.329 2.727 7.627 4.376 12.318 4.376s8.987-1.651 12.316-4.376c-5.586-3.755-9.246-10.012-9.246-17.096 0-5.273 4.111-9.616 9.399-10.182.293-.029.589-.048.889-.057.098 0 .191-.006.291-.006 4.897 0 9.013 3.22 10.22 7.593l.164.678c.349 1.594.531 3.251.531 4.944 0 4.453-1.265 8.621-3.465 12.183 1.118.239 2.274.369 3.465.369 6.271 0 11.704-3.499 14.341-8.583h.004z"/></svg>