<svg xmlns="http://www.w3.org/2000/svg" viewBox="0 0 378 208"><path d="m0 50 54-8v20l-18 2v77H18V66L0 68Zm63-9 54-8v20l-34 4v22l29-2v19l-30 2v24l35-1v20H63Zm87 79 40-1v22h-63V32l23-3Zm50-98 72-10v24l-46 5v25l39-2v23l-39 2v29l46-2v25h-72zm177 91v28h-94v-25a871 871 0 0 0 50-52c7-8 10-15 10-22 0-8-5-13-14-13-11 0-17 8-17 22v4l-28 3c-2-36 18-58 51-58 24 0 40 15 40 36 0 23-11 37-37 64l-14 14z"/><circle id="a" cx="25.3" cy="195.5" r="12.1"/><use fill="#f7c500" href="#a"/><use x="68" fill="#00c24f" href="#a"/><use x="136" fill="#00b2e6" href="#a"/><use x="204" fill="#0065ff" href="#a"/><use x="272" fill="#bc00ff" href="#a"/><use x="340" fill="#c8024c" href="#a"/></svg>
