<svg xmlns="http://www.w3.org/2000/svg" width="100" height="100"><path d="M17.85 19.36H5.3v11.51H0v10.9h5.29v21.34c0 10.42 5.21 13.52 12.9 13.52a18.27 18.27 0 0 0 9.91-2.6V63.78a12.66 12.66 0 0 1-6.2 1.6c-2.8 0-4.06-1.43-4.06-4.37V41.78h10.43V30.87H17.86zm67.19 10.67a18.16 18.16 0 0 0-14.56 7.14 13.24 13.24 0 0 0-12.5-7.15c-6.36 0-10.16 3.45-13.06 7.23v-6.38H32.36v45h12.57v-25.1c0-6.05 2.9-9.16 7.61-9.16 4.71 0 7.35 3.11 7.35 9.16v25.1h12.58v-25.1c0-6.05 2.89-9.16 7.6-9.16 4.71 0 7.36 3.11 7.36 9.16v25.1H100v-29.3c0-10.83-5.62-16.54-14.96-16.54"/></svg>