<svg xmlns="http://www.w3.org/2000/svg" viewBox="0 0 140 130"><path fill="#01acfb" d="M70.9 40c2 .3 2.4-.1 2.6-2 .7-4.4 2-8.7 4-12.8A39.3 39.3 0 0 1 90 10a62.9 62.9 0 0 1 19.2-8.3 47 47 0 0 1 14-.9c8.4.8 13 3.2 15.4 6.3.8 1 1.3 2.2 1.4 3.5 0 1.5-.6 3.5-2.8 5.5-2.3 2-6.8 4.4-13 6.5-6.6 2.1-15.5 4.4-24.4 6.5-5.2 1.1-10.3 2.6-15.3 4.3-5.8 2-7.6 7.9-4 9.7A101 101 0 0 1 125 97.8c3.7 13.7 1.4 26.8-6.3 30.4-7.7 3.6-17.8-1.6-25-9a72 72 0 0 1-16-28c-3.8-11-5.4-26.9-5.4-35.2l.1-5.8c.3-2.2-5.6-4-12 0a94.9 94.9 0 0 0-18.3 18c-1.8 2-4.3 5.2-6.9 8.4A64.4 64.4 0 0 1 24.6 88c-5.2 3.8-13.6 5.3-19.4 1.2-3.3-2.3-5-6.7-5-11.2 0-3 .7-6 2.3-8.7 2-3.5 5.2-7.2 10.3-11.4a90.7 90.7 0 0 1 22.1-12.6C48 40 61.7 38.3 71 40Z"/></svg>
