<svg xmlns="http://www.w3.org/2000/svg" width="2716" height="2716"><path d="M.004 1573.332v-269.331h269.333v269.331zm825.331 0v-269.331h273.333v269.331zm810.664 0v-269.331h273.33v269.331zm810.664 0v-269.331h269.333v269.331zM1080.001 690.668H14.67L.003 1160.002l72 10.665C86.225 1032.89 121.78 930.224 178.668 862.67c64.89-71.111 152.444-108 262.667-110.668v986.665c0 88.89-11.556 144.89-34.667 168-23.11 23.11-59.555 36.444-109.333 40l-20 1.333c-22.222 1.777-41.778 2.666-58.667 2.666v74.667h661.333v-74.667c-40.89 0-67.112-1.333-78.667-4-49.778-3.555-86.222-16.889-109.333-40-23.111-23.11-34.667-79.109-34.667-167.999V754.67c111.111 4.444 198.223 41.776 261.332 111.999 61.333 68.444 97.335 171.11 108 308l72-10.667-18.666-473.333" fill="#e20074"/></svg>