<svg xmlns="http://www.w3.org/2000/svg" class="header-logo__img" viewBox="1 1 38.927 38.927" width="38.927" height="38.927"><path d="M27.672 29.961c5.106-2.928 8.758-6.6 10.443-10.516a37.85 37.85 0 001.09-9.05c0-.448-.02-.876-.062-1.286-.301 4.736-6.491 10.688-14.681 14.578-9.876 4.69-17.287 5.953-20.594 2.375 1.148 2.242 2.686 4.505 4.435 6.534 4.07 3.572 10.774 2.292 19.37-2.636" fill="#9909e3"/><path d="M23.312 20.333C32.629 15.89 39.118 9.57 37.987 5.38 36.127 2.208 32.369 1 28.337 1 16.387 1 1.722 8.787 1.722 18.72c0 1.276.285 2.704.795 4.2 2.726 3.574 11.058 2.055 20.794-2.586m-.789 14.078c-6.552 2.626-10.303 1.79-12.376.15l-.03-.023c3.212 3.163 6.868 5.388 10.074 5.388 5.616 0 13.305-6.735 16.943-17.177-2.05 3.77-6.45 8.402-14.607 11.662" fill="#9909e3"/><path d="M22.524 34.412c8.16-3.26 12.558-7.89 14.61-11.662.37-1.064.698-2.167.98-3.304-1.686 3.913-5.338 7.586-10.444 10.514-8.595 4.928-15.3 6.208-19.367 2.634a33.603 33.603 0 001.817 1.942l.03.024c2.073 1.638 5.824 2.475 12.376-.15m1.936-10.723c8.19-3.89 14.38-9.842 14.677-14.575-.147-1.468-.55-2.703-1.152-3.732 1.13 4.19-5.358 10.51-14.676 14.953-9.738 4.64-18.07 6.16-20.796 2.586.35 1.024.807 2.082 1.35 3.143 3.308 3.578 10.72 2.316 20.596-2.375" fill="#fff"/></svg>