<?xml version="1.0" standalone="no"?>
<!DOCTYPE svg PUBLIC "-//W3C//DTD SVG 20010904//EN"
 "http://www.w3.org/TR/2001/REC-SVG-20010904/DTD/svg10.dtd">
<svg version="1.0" xmlns="http://www.w3.org/2000/svg"
 width="96.000000pt" height="96.000000pt" viewBox="0 0 96.000000 96.000000"
 preserveAspectRatio="xMidYMid meet">
<metadata>
Created by potrace 1.11, written by Peter Selinger 2001-2013
</metadata>
<g transform="translate(0.000000,96.000000) scale(0.100000,-0.100000)"
fill="#0C84D9" stroke="none">
<path d="M131 925 c-48 -22 -86 -64 -109 -117 -7 -17 -11 -127 -12 -325 -1
-318 1 -334 50 -396 81 -103 285 -93 305 16 6 27 -31 110 -61 138 -32 30 -30
39 5 29 82 -23 143 -71 239 -187 50 -62 93 -78 189 -70 80 7 137 38 178 95
l30 44 3 313 c3 303 2 314 -19 359 -22 48 -64 90 -108 109 -17 7 -138 11 -334
12 -299 2 -309 1 -356 -20z"/>
</g>
</svg>
