<svg xmlns="http://www.w3.org/2000/svg" viewBox="0 0 56 56" style="background:#ff229d;fill:#fff"><path d="m12.3 45.2 1.5-2 2.5-2.7v-.1c-1.3-.5-1.5-1.5-1.6-2.8-.1-2-.5-3.9-.6-5.9l-.2-9.1.2-11.9V10h27.6v2.5l.3 11.4c0 4.3-.1 8.6-.7 12.8l-.2 1.7c0 .9-.4 1.5-1.2 1.8l-.3.2 4.1 4.8-.9.7c-1.4-1.5-2.6-3-4.1-4.3-.8-.7-1.9-1.2-2.9-1.7-.2-.1-.5 0-.7.1l-1.7 1.2c-.2.1-.6.1-.8 0L31 40.1c-.4-.3-.7-.3-1 0-.6.5-1.3 1.2-2 1.2-.6 0-1.3-.7-1.9-1.2-.4-.3-.7-.3-1.1 0-.6.5-1.3 1.2-1.9 1.2-.6 0-1.3-.7-1.9-1.2-.4-.3-.7-.3-1.2-.1-2.7 1-4.4 3-6 5.2l-.6.8-1-.7zM16 11.9v.2a171 171 0 0 0 .5 25.8c.1.9 1.5 1.7 2.2 1.2 1.1-.8 2.1-.9 3.2 0 .8.6 1.6.7 2.4 0 1-.9 2-.7 2.9.2.5.5 1 .6 1.6.1 1.1-.9 2.2-1 3.4-.1.6.4 1.2.4 1.7-.2.8-.8 1.7-.9 2.7-.4l.2.1c.9.5 1.7.1 2.4-.3.2-.1.3-.3.3-.5l.8-7.5a138.4 138.4 0 0 0-.5-18.5ZM23.1 33.9c3.2 1.4 6.4 1.4 9.6 0-2.8 3.6-7.4 3.2-9.6 0zm11.7-8.4c1 0 1.8.8 1.9 1.8 0 1-.8 1.8-1.8 1.8s-1.8-.8-1.8-1.8c-.1-1 .7-1.8 1.7-1.8zm-13.7 0c1 0 1.8.8 1.8 1.8s-.8 1.8-1.9 1.8c-1 0-1.8-.8-1.7-1.8-.1-1 .8-1.8 1.8-1.8z"/></svg>