<svg xmlns="http://www.w3.org/2000/svg" viewBox="0 0 90 80"><path fill="#00E3AA" d="M88.45 73.75a12.19 12.19 0 0 0 1.2-8.85 13.17 13.17 0 0 0-.87-2.4 6.72 6.72 0 0 0-.4-.75L76.44 39.53H64.2l12.5 23.3a4.43 4.43 0 0 1 0 4.44 4.3 4.3 0 0 1-1.57 1.52 4.37 4.37 0 0 1-2.13.55H58.73a13.44 13.44 0 0 1-2 6.13A13.7 13.7 0 0 1 52.1 80h26.23a12.16 12.16 0 0 0 4.99-1.44 11.76 11.76 0 0 0 5.13-4.81ZM21.38 24.99h12.24l6.1-11.16a6.02 6.02 0 0 1 2.23-2.34 6.15 6.15 0 0 1 3.14-.86 6.15 6.15 0 0 1 3.14.86 6.02 6.02 0 0 1 2.24 2.34l5.92 11.16h12.23L59.94 8.84a16.76 16.76 0 0 0-6.23-6.46A17.12 17.12 0 0 0 45 0c-3.07 0-6.08.82-8.71 2.38a16.75 16.75 0 0 0-6.23 6.46l-8.68 16.15Zm9.87 12.6a13.25 13.25 0 0 1 1.91-6.12 13.52 13.52 0 0 1 4.58-4.54H14.06v10.66h17.19Z"/><path d="M33.2 38.36v29.12h5.56a5.36 5.36 0 0 0 3.2-1.1 5.22 5.22 0 0 0 1.88-2.78c.12-.42.18-.86.17-1.3V44.83a7.14 7.14 0 0 1 2.13-5.06 7.38 7.38 0 0 1 5.13-2.12h24.77V26.93H44.8a11.72 11.72 0 0 0-8.2 3.35 11.34 11.34 0 0 0-3.4 8.08Z"/><path d="M1.22 62.49a13.17 13.17 0 0 0-.87 2.4 12.25 12.25 0 0 0 1.2 8.88 11.76 11.76 0 0 0 5.13 4.8 12.16 12.16 0 0 0 5 1.43H45c3.14 0 6.15-1.23 8.37-3.41a11.55 11.55 0 0 0 3.47-8.24V39.51h-5.65a5.39 5.39 0 0 0-3.67 1.57 5.22 5.22 0 0 0-1.53 3.65V62.2a7.1 7.1 0 0 1-2.14 5.05 7.34 7.34 0 0 1-5.14 2.1H17.1a4.37 4.37 0 0 1-2.13-.56 4.29 4.29 0 0 1-1.58-1.52 4.47 4.47 0 0 1 0-4.47L25.9 39.5H13.57L1.6 61.74l-.4.76Z"/></svg>