<svg viewBox="0 0 90 80" xmlns="http://www.w3.org/2000/svg"><g fill="#00E3AA"><path d="M88.447 73.75a12.19 12.19 0 0 0 1.203-8.852 13.174 13.174 0 0 0-.868-2.407 6.718 6.718 0 0 0-.395-.738L76.431 39.527H64.198l12.51 23.294a4.43 4.43 0 0 1 0 4.445 4.291 4.291 0 0 1-1.577 1.52 4.373 4.373 0 0 1-2.133.557H58.732a13.436 13.436 0 0 1-1.995 6.123A13.706 13.706 0 0 1 52.103 80h26.222a12.161 12.161 0 0 0 4.992-1.437 11.758 11.758 0 0 0 5.13-4.814ZM21.383 24.988h12.233l6.096-11.162a6.023 6.023 0 0 1 2.237-2.332 6.154 6.154 0 0 1 3.14-.86 6.15 6.15 0 0 1 3.14.86 6.018 6.018 0 0 1 2.236 2.332l5.92 11.162h12.232l-8.68-16.15a16.756 16.756 0 0 0-6.223-6.459A17.118 17.118 0 0 0 45 0c-3.07 0-6.083.823-8.714 2.38a16.754 16.754 0 0 0-6.222 6.457l-8.681 16.15Zm9.865 12.598a13.25 13.25 0 0 1 1.916-6.113 13.522 13.522 0 0 1 4.575-4.544H14.063v10.657h17.185Z"/><path d="M33.2 38.362V67.48h5.564a5.361 5.361 0 0 0 3.2-1.1 5.218 5.218 0 0 0 1.871-2.782c.12-.423.18-.86.178-1.3v-17.47a7.144 7.144 0 0 1 2.13-5.06 7.379 7.379 0 0 1 5.13-2.123h24.763V26.929H44.802a11.718 11.718 0 0 0-8.205 3.355 11.34 11.34 0 0 0-3.396 8.078Z"/><path d="M1.218 62.49a13.17 13.17 0 0 0-.869 2.408 12.246 12.246 0 0 0 1.204 8.87 11.757 11.757 0 0 0 5.13 4.795A12.16 12.16 0 0 0 11.675 80H45c3.14 0 6.15-1.227 8.37-3.411a11.553 11.553 0 0 0 3.468-8.236V39.507h-5.643a5.388 5.388 0 0 0-3.678 1.574 5.216 5.216 0 0 0-1.53 3.648V62.2a7.105 7.105 0 0 1-2.14 5.053 7.342 7.342 0 0 1-5.141 2.09H17.1a4.374 4.374 0 0 1-2.134-.556 4.288 4.288 0 0 1-1.576-1.52 4.467 4.467 0 0 1 0-4.465L25.9 39.508H13.568L1.612 61.734c-.138.271-.276.504-.394.757Z"/></g></svg>