<svg xmlns="http://www.w3.org/2000/svg" width="127" height="144" viewBox="-1.1 -0.8 127 144"><path fill="#0058A9" d="M101.7.1c3.5-.2 7-.1 10.5-.1h12.6c-1.2 6.5-2.4 13.1-3.6 19.6-.5 2.4-2 4.8-4.2 6-1.6.9-3.6 1.1-5.4 1H89.8c-2.1 12-4.1 24.1-6.2 36.1-1.7 9.9-3.4 19.7-5 29.6-.4 1.9-.5 3.9-1.3 5.7-.8 1.7-2.1 3.3-3.8 4-1.6.7-3.4.9-5.1.8H42.3c4-19.9 8.1-39.9 12.1-59.8 1.1-5.5 2.2-10.9 3.3-16.4H25.5c1.3-6.5 2.5-13 3.8-19.5.5-2.1 1.6-4 3.3-5.3C34.2.7 36.1.1 38.1.2h44.8C89.2.1 95.4.1 101.7.1z"/><path fill="#00BAF2" d="M20 35.4c1.8-.1 3.5-.3 5.3-.2 10.1.4 20 3.5 29 7.9C50.2 63 46.2 83 42.2 102.9h26.1c1.7.1 3.5-.1 5.1-.8 1.7-.8 3.1-2.3 3.8-4 .8-1.8 1-3.8 1.3-5.7 1.7-9.9 3.4-19.7 5-29.6 11.3 10.1 21.5 21.7 28.4 35.3 2.3 4.5 4.2 9.2 5.4 14.1.9 3.8 1.4 7.8 1 11.7-.4 3.7-1.6 7.3-3.7 10.4-1 1.7-2.7 2.9-4.2 4-5.4 3.8-12.2 5-18.6 4.5-6.7-.5-13.2-2.5-19.5-4.8-15-5.6-28.8-14.5-40.5-25.4C21.4 103.1 12.2 92 6 79.3 3.2 73.3.8 67 .2 60.4c-.3-3.1-.2-6.2.5-9.2.9-3.6 2.6-7.1 5.3-9.6 3.7-3.7 8.9-5.7 14-6.2z"/></svg>