<svg xmlns="http://www.w3.org/2000/svg" viewBox="-1.1 -.8 127 144"><path fill="#0058A9" d="M101.7.1c3.5-.2 7-.1 10.5-.1h12.6l-3.6 19.6a9 9 0 0 1-4.2 6 10 10 0 0 1-5.4 1H89.8l-6.2 36.1-5 29.6c-.4 1.9-.5 3.9-1.3 5.7a7.8 7.8 0 0 1-3.8 4c-1.6.7-3.4.9-5.1.8H42.3L54.4 43l3.3-16.4H25.5l3.8-19.5c.5-2.1 1.6-4 3.3-5.3A8.9 8.9 0 0 1 38.1.2h44.8l18.8-.1z"/><path fill="#00BAF2" d="M20 35.4c1.8-.1 3.5-.3 5.3-.2 10.1.4 20 3.5 29 7.9l-12.1 59.8h26.1c1.7.1 3.5-.1 5.1-.8a7.8 7.8 0 0 0 3.8-4c.8-1.8 1-3.8 1.3-5.7l5-29.6a122.8 122.8 0 0 1 28.4 35.3c2.3 4.5 4.2 9.2 5.4 14.1.9 3.8 1.4 7.8 1 11.7-.4 3.7-1.6 7.3-3.7 10.4-1 1.7-2.7 2.9-4.2 4-5.4 3.8-12.2 5-18.6 4.5a73.3 73.3 0 0 1-19.5-4.8c-15-5.6-28.8-14.5-40.5-25.4A113 113 0 0 1 6 79.3C3.2 73.3.8 67 .2 60.4c-.3-3.1-.2-6.2.5-9.2.9-3.6 2.6-7.1 5.3-9.6a23 23 0 0 1 14-6.2z"/></svg>
