<svg xmlns="http://www.w3.org/2000/svg" width="56.187" height="56.187"><path fill="#3d2557" d="M56.01 15.254l-24.4 4.85v1.7h.1c16.1-3.93 24.3-6.28 24.37-6.3.1-.02.12-.1.1-.15 0-.07-.07-.1-.17-.1"/><path fill="#6c0" d="M35.54 16.604c.38-.23.5-.08.38.2-.18.43-1 3.07-7.15 8.1-1.6 1.32-2.75 2.05-5.06 3.42 3.78-5.3 9.3-10.07 11.82-11.7m.65-1.84c-1.2.06-3.38 1.8-4.58 2.85-4.8 4.15-8.37 7.97-10.97 11.96-5.4 2.9-12.3 5.88-19.15 8.2l-.16.06L0 41.404l.75-.28c4.36-1.66 11.63-4.78 18.23-8.24-.4 1-.57 1.9-.57 2.73 0 .63.1 1.2.3 1.72.42 1.04 1.24 1.83 2.37 2.3 1.7.66 4 .67 6.6-.12 6.72-2.04 14.68-8.27 16.4-9.5l.08-.06c.06-.05.07-.12.04-.17-.04-.06-.12-.07-.18-.03l-.1.05c-1.85 1.1-10.88 6.46-16.75 8.03-3 .8-5.28.37-6.14-.83-.3-.4-.44-.93-.44-1.54 0-1.18.55-2.7 1.63-4.36 1-.56 1.9-1.1 2.74-1.63 5.72-3.22 12.3-9.47 12.6-13.3v-.07c0-.33-.15-.67-.4-.92-.26-.28-.62-.42-1-.4"/><path fill="#3d2557" d="M31.54 20.124l-25.66 5.5-1 2.68 26.74-6.5h.04v-1.7l-.12.02"/></svg>