<svg xmlns="http://www.w3.org/2000/svg" viewBox="0 0 56.19 56.19"><path fill="#3d2557" d="m56.01 15.25-24.47 4.87.07 1.68c16.1-3.93 24.4-6.28 24.47-6.3.1-.02.12-.1.1-.15 0-.07-.07-.1-.17-.1"/><path fill="#6c0" d="M35.54 16.6c.38-.23.5-.08.38.2-.18.43-1 3.07-7.15 8.1a34.78 34.78 0 0 1-5.06 3.42c3.78-5.3 9.31-10.09 11.83-11.72m.64-1.82c-1.2.06-3.38 1.8-4.58 2.85-4.8 4.15-8.37 7.97-10.97 11.96-5.4 2.9-12.46 5.94-19.31 8.26L0 41.4a199 199 0 0 0 18.98-8.52c-.4 1-.57 1.9-.57 2.73 0 .63.1 1.2.3 1.72a4.2 4.2 0 0 0 2.37 2.3c1.7.66 4 .67 6.6-.12 6.72-2.04 14.76-8.33 16.48-9.56.06-.05.07-.12.04-.17-.04-.06-.12-.07-.18-.03-1.85 1.1-10.98 6.51-16.85 8.08-3 .8-5.28.37-6.14-.83-.3-.4-.44-.93-.44-1.54 0-1.18.55-2.7 1.63-4.36 1-.56 1.9-1.1 2.74-1.63 5.72-3.22 12.3-9.47 12.6-13.3v-.07c0-.33-.15-.67-.4-.92a1.26 1.26 0 0 0-1-.4"/><path fill="#3d2557" d="m31.54 20.12-25.66 5.5-1 2.68 26.74-6.5-.08-1.68"/></svg>
