<svg xmlns="http://www.w3.org/2000/svg" version="1.1" id="Layer_1" x="0" y="0" xml:space="preserve" width="222.122" height="222.122"><style type="text/css" id="style25670">.st0{fill:#0b3f63}</style><g id="g26303" transform="translate(1.477 -3.061)"><path d="M164.784 90.783c-1.9-10.6-9.7-18.4-19-18.4-6 0-11.4 3.2-15 8.4-6.9-1-14-1.6-21.3-1.6-5.3 0-10.5.3-15.6.8l-10.8-42.1c2.5-1.1 4.2-3.2 4.2-5.6 0-3.5-3.6-6.4-8-6.4s-8 2.9-8 6.4c0 3.2 2.9 5.8 6.7 6.3l3.2 43.5c-9.7 2-18.7 4.9-27 8.7-3-8.1-9.8-13.7-17.7-13.7-10.7 0-19.4 10.4-19.4 23.3 0 5.5 1.6 10.6 4.3 14.6-9 10.9-14.2 23.7-14.2 37.2 0 40.3 45.8 73 102.4 73 56.5 0 102.4-32.7 102.4-73 0-25.8-18.8-48.4-47.2-61.4z" id="path25678" fill="#0b3f63" fill-opacity="1"/><path d="M124.984 214.583c-41.9 0-75.8-25.6-75.8-57.3 0-31.6 34-57.3 75.8-57.3 41.9 0 75.9 25.6 75.9 57.3 0 31.7-34 57.3-75.9 57.3z" id="path26294" fill="#fff" fill-opacity="1"/><path id="path25672" d="M61.484 30.183c.386-1.748.771-3.534 1.68-5.095.75-1.506 1.65-2.947 2.85-4.138 1.346-1.577 3.05-2.785 4.739-3.962 2.232-1.328 4.65-2.592 7.3-2.68 1.687-.028 3.357.386 4.943.937.912.425 1.822.864 2.565 1.553.445.296 1.15.9.517 1.317-2.132.522-4.322.764-6.463 1.248-1.573.275-3.13.642-4.731.72-1.578.286-3.145.723-4.533 1.55-.96.536-1.919 1.098-2.813 1.732a20.65 20.65 0 00-3.706 3.855c-.677.984-1.242 2.034-1.848 3.063l-.5-.1z" fill="#0b3f63" fill-opacity="1"/><path id="path25674" d="M52.084 25.783c.617-2.612 1.527-5.157 2.906-7.468 1.351-2.917 3.533-5.352 5.835-7.561 3.332-2.952 7.287-5.16 11.437-6.735 3.012-.985 6.28-1.2 9.397-.692 1.775.329 3.514.833 5.125 1.663.884.61 2.926 1.145 2.968 2.221-1.008.56-2.607.098-3.813.314-2.472.15-4.944.302-7.384.732-2.874.507-5.8.792-8.609 1.613-3.262 1.084-6.201 2.932-8.933 4.98-1.837 1.473-3.452 3.196-4.858 5.083-1.46 1.828-2.468 3.95-3.471 6.05l-.6-.2z" fill="#0b3f63" fill-opacity="1"/><path class="st0" d="M131.184 178.683c-5.3 0-9.6-4.5-9.6-10.1s4.3-14.9 9.6-14.9 9.6 9.4 9.6 14.9c0 5.6-4.3 10.1-9.6 10.1zm-1.8-20.6c-1 0-1.8 1-1.8 2.3 0 1.2.8 2.3 1.8 2.3s1.8-1 1.8-2.3c0-1.3-.8-2.3-1.8-2.3z" id="path25676" fill="#0b3f63" fill-opacity="1"/><path d="M76.984 32.383c-1 0-1.8-1-1.8-2.3 0-1.2.8-2.3 1.8-2.3s1.8 1 1.8 2.3c0 1.3-.8 2.3-1.8 2.3z" id="path26292" fill="#fff" fill-opacity="1"/><path class="st0" d="M158.184 173.783c-4.5 0-8.2-3.8-8.2-8.5s3.7-12.7 8.2-12.7c4.5 0 8.2 8 8.2 12.7 0 4.7-3.7 8.5-8.2 8.5zm-.6-17.4c-.7 0-1.2.7-1.2 1.6 0 .9.5 1.6 1.2 1.6s1.2-.7 1.2-1.6c0-.9-.5-1.6-1.2-1.6z" id="path25680" fill="#0b3f63" fill-opacity="1"/></g></svg>