<svg xmlns="http://www.w3.org/2000/svg" viewBox="0 0 40.95 35"><path d="M30.391 30.094c-.142 0-.284-.003-.427-.009A10.912 10.912 0 0 1 20.84 35v-2.786a8.129 8.129 0 0 0 7.153-4.254l.456-.837.945.122c.33.042.666.064.997.064 4.285 0 7.773-3.488 7.773-7.773a7.87 7.87 0 0 0-2.848-6.013l-.55-.451.044-.71c.009-.148.013-.297.013-.446 0-4.112-3.347-7.459-7.46-7.459a7.42 7.42 0 0 0-4.138 1.254l-1.037.692-.802-.954a7.432 7.432 0 0 0-5.712-2.662c-4.112 0-7.46 3.347-7.46 7.46 0 .114.003.23.009.345l.044.947-.864.389a7.833 7.833 0 0 0-4.616 7.138c0 4.314 3.511 7.825 7.824 7.825.459 0 .919-.04 1.367-.119l1.046-.184.455.96a8.175 8.175 0 0 0 7.361 4.666V35a10.964 10.964 0 0 1-9.398-5.356c-.276.022-.553.033-.83.033C4.758 29.677 0 24.917 0 19.066A10.62 10.62 0 0 1 5.438 9.8C5.672 4.355 10.172 0 15.674 0c2.637 0 5.137 1.004 7.03 2.79a10.203 10.203 0 0 1 4.66-1.12c5.622 0 10.2 4.55 10.245 10.16 2.107 1.985 3.34 4.806 3.34 7.705 0 5.824-4.735 10.559-10.558 10.559zm-4.258-9.028c-.946.362-1.878.545-2.774.545a6.67 6.67 0 0 1-2.634-.547l-.068-.029c-.313-.134-.447-.296-.447-.651v-.474c0-.418.24-.686.632-.686l.088.012.023.009c.776.306 1.585.46 2.405.46.823 0 1.685-.155 2.561-.464l.079-.017h.022c.392 0 .632.268.632.686v.474c0 .377-.13.514-.492.67zm-11.617-4.548 2.561-.672-2.567-.674c-.266-.07-.458-.28-.458-.648v-.807c0-.353.212-.505.454-.505.078 0 .16.017.24.048l4.572 1.479c.347.115.538.394.538.776v.66c0 .383-.19.662-.538.778l-4.581 1.482a.746.746 0 0 1-.214.034c-.287 0-.471-.207-.471-.507v-.795c0-.382.198-.593.464-.649z" fill="#5a5e73"/></svg>