<svg xmlns="http://www.w3.org/2000/svg" viewBox="0 0 40.95 35"><path d="m30.391 30.094c-0.14201 0-0.28444-0.0029-0.42698-0.0087-2.0125 3.0552-5.424 4.9142-9.1238 4.9142v-2.7864c2.9892 0 5.722-1.6256 7.1528-4.2537l0.45565-0.83698 0.94523 0.12123c0.33086 0.04244 0.66626 0.06393 0.99718 0.06393 4.2846 0 7.7726-3.488 7.7726-7.7726 0-2.2978-1.066-4.5484-2.848-6.0128l-0.54954-0.45159 0.04347-0.70995c9e-3 -0.14725 0.01358-0.29708 0.01358-0.44544 0-4.1117-3.3475-7.4592-7.4593-7.4592-1.4811 0-2.9078 0.43237-4.1385 1.2538l-1.0373 0.69237-0.80256-0.95464c-1.4249-1.6949-3.4988-2.6615-5.7118-2.6615-4.1117 0-7.4591 3.3474-7.4591 7.4592 0 0.11483 0.00272 0.23099 0.0081 0.34594l0.044349 0.9464-0.86385 0.38911c-2.8083 1.2649-4.6164 4.0599-4.6164 7.1386 0 4.3134 3.5114 7.8249 7.8246 7.8249 0.45855 0 0.91818-0.04002 1.3667-0.11899l1.0462-0.18419 0.45458 0.96012c1.3435 2.8377 4.2272 4.6661 7.3613 4.6661v2.7864c-3.8683 0-7.4429-2.0664-9.398-5.3553-0.27632 0.021505-0.55368 0.032305-0.83083 0.032305-5.8522 0-10.611-4.759-10.611-10.611 0-3.8668 2.1024-7.4024 5.4373-9.2659 0.23408-5.4446 4.7346-9.7998 10.236-9.7998 2.6372 0 5.1373 1.0038 7.0294 2.7909 1.438-0.73624 3.0278-1.1209 4.6608-1.1209 5.6226 0 10.2 4.5494 10.245 10.161 2.1071 1.9842 3.3409 4.8047 3.3409 7.7041 0 5.8235-4.7355 10.559-10.559 10.559zm-4.258-9.0282c-0.94624 0.36196-1.8779 0.54528-2.7741 0.54528-0.89921 0-1.7863-0.18436-2.634-0.5469-0.03419-0.01423-0.03419-0.01423-0.06833-0.02876-0.31242-0.13446-0.44621-0.29635-0.44621-0.65156v-0.47434c0-0.41712 0.24032-0.6856 0.63192-0.6856l0.08778 0.01189 0.02337 0.0091c0.77542 0.30581 1.5842 0.46078 2.4041 0.46078 0.82324 0 1.6852-0.1561 2.5616-0.46448l0.07879-0.0173h0.02196c0.39171 0 0.63205 0.26845 0.63205 0.6856v0.47434c0 0.37753-0.12956 0.51442-0.49158 0.67019zm-11.617-4.5478 2.5613-0.67236-2.5673-0.67388c-0.26622-0.06969-0.45826-0.27979-0.45826-0.64744v-0.80742c0-0.35287 0.21186-0.5048 0.45421-0.5048 0.07834 0 0.15956 0.01702 0.24069 0.04762l4.5712 1.4788c0.34725 0.11575 0.53833 0.3946 0.53833 0.77669v0.66066c0 0.38198-0.19086 0.661-0.53864 0.77692l-4.5808 1.4819c-0.07741 0.02286-0.14638 0.0341-0.21356 0.0341-0.28699 0-0.47142-0.20634-0.47142-0.50673v-0.79523c0-0.38231 0.19832-0.59299 0.46431-0.64882z" fill="#5a5e73"/></svg>