<svg xmlns="http://www.w3.org/2000/svg" viewBox="0 0 230.6 242.5"><path d="M131.4 84.7a33.4 33.4 0 0 1 9.7-9.6c2.7-1.7 8.1-5.1 15.8-5.2A31 31 0 0 1 182 84.7l9.9-10.6a42.9 42.9 0 0 0-58-11.4 42.7 42.7 0 0 0-12.2 11.7l9.6 10.3zm-39-41.8a92.5 92.5 0 0 1 24.3-18.5c6-3.2 20.3-10.5 40.2-10.6A86.7 86.7 0 0 1 221.1 43l9.5-10.1A95.8 95.8 0 0 0 156.9 0a95.7 95.7 0 0 0-73.7 33l9.3 10zM112.2 64A55.3 55.3 0 0 1 157 42a53.3 53.3 0 0 1 44.4 22l10-10.7A72 72 0 0 0 122.5 37a70.9 70.9 0 0 0-20.1 16.7l9.7 10.4"/><circle cx="156.9" cy="98.7" r="14"/><path d="M170.3 122.5v120h-28v-120z"/><path fill="#020000" d="M76.2 95.5h59v18h-28v38.9h25v18h-25v72.1h-31z"/><path fill="#e31937" d="M69 95.5H0v18h19v129h31v-129h19z"/></svg>