<svg xmlns="http://www.w3.org/2000/svg" viewBox="0 0 64.3 64.3"><path fill="#fff" d="M64.3 48.3V16c0-5.5-3.3-16-16.2-16H16.2C10.6 0 0 3.3 0 16v32.3c0 5.5 3.4 16 16.2 16h32c5.6 0 16.1-3.3 16.1-16"/><rect width="59.7" height="59.7" x="2.3" y="2.3" fill="#ff1944" rx="13.5"/><path fill="#fff" d="M50.6 31.9c-.1-.9-1.1-1.5-1.4-2.4-.4-1.6 0-3 0-4.8a1 1 0 0 0-.8-.8c-1-.1-1.5-1-2.6-1.2-2-.4-9.6-.5-10.1-.6a12 12 0 0 1-3.4-1.5L32 20v-5.4a1 1 0 0 0-.8-.8h-8v13.8a1 1 0 0 1-.8.8H12.2q-.5 0-.2.4c.8 1.1 1.7 3 2.9 3.7q1.6.8 2.7 1.8c.7 1.1.6 2.8 1.6 3.8a7 7 0 0 0 3.1 1.6 1 1 0 0 0 1-.3c.5-.9.7-2 1.7-2.3 3.6-1 4.2 2 5.4 4 .8 1.7 2.6 2.6 3.1 4 .3.7 0 1.7.3 2.3.6 2 2.8 2.1 4.7 2.7a.8.8 0 0 0 1-.9c-.3-2.6-.4-4.5 1-6.3l.9-.8 3-1.6c1.8-1 2.6-2.6 4.3-3a1 1 0 0 0 .8-.9c.3-1.7 1.3-3.2 1-4.7"/></svg>