<svg xmlns="http://www.w3.org/2000/svg" xmlns:xlink="http://www.w3.org/1999/xlink" width="128" height="128"><use xlink:href="#B" fill="#fff" opacity=".5"/><path fill="#06038d" d="M114.447 48.647c-1.2-25.6-14.4-45.2-46.8-30.6-32.8 14.9-73.3 24.4-66.8 50.4 6.5 26.1 53.3 43.9 88.6 37 5-1 9.4-2 13.1-3.1 4.1 4.5 12.1 12.5 16.5 12.6h.3c-.1-.1-6.2-9.6-8-15.9 24.8-11.1 4.1-28.1 3.1-50.4z"/><use xlink:href="#B" fill="#00a3e0" opacity=".5"/><path d="M28.247 87.947v-21.4c0-.3.1-.6.3-.7.2-.2.4-.3.7-.3h3.6c.3 0 .6.1.7.3.2.2.3.4.3.7v21.4c0 .3-.1.6-.3.7-.2.2-.4.3-.7.3h-3.6c-.3 0-.6-.1-.7-.3-.2-.1-.3-.4-.3-.7zm11.1-1c-1.7-1.6-2.5-3.9-2.5-6.9s.8-5.4 2.5-6.9c1.7-1.6 4.1-2.4 7.3-2.4s5.6.8 7.3 2.4 2.5 3.9 2.5 6.9-.8 5.4-2.5 6.9c-1.7 1.6-4.1 2.4-7.3 2.4s-5.5-.9-7.3-2.4zm4.2-11.2c-.7.9-1 2.3-1 4.2 0 2 .3 3.4 1 4.3s1.7 1.3 3.2 1.3 2.5-.4 3.2-1.3 1-2.3 1-4.3-.3-3.4-1-4.2c-.7-.9-1.7-1.3-3.2-1.3s-2.5.4-3.2 1.3zm15 4.3c0-3.1.8-5.4 2.5-6.9 1.7-1.6 4.1-2.4 7.2-2.4 2.9 0 5.2.5 6.8 1.5s2.4 2.4 2.4 4.3c0 .3-.1.6-.3.7-.2.2-.4.3-.7.3h-2.5c-.7 0-1.4-.4-1.9-1.2-.7-1-1.8-1.5-3.5-1.5-1.6 0-2.7.4-3.4 1.2s-1 2.2-1 4.1c0 1.8.3 3.2 1 4s1.8 1.2 3.5 1.2 2.9-.5 3.5-1.5c.5-.8 1.2-1.2 1.9-1.2h2.5c.3 0 .6.1.7.3.2.2.3.4.3.7 0 1.8-.8 3.3-2.4 4.3s-3.9 1.5-6.8 1.5c-3.2 0-5.6-.8-7.3-2.4-1.7-1.7-2.5-4-2.5-7zm22.9 7.7c-1.5-1-2.2-2.4-2.2-4.3 0-1.8.7-3.2 2.2-4.2s3.3-1.5 5.5-1.5h5.4c0-1.3-.3-2.2-.8-2.6-.6-.5-1.4-.7-2.5-.7-1.5 0-2.6.4-3.2 1.1-.4.6-1.1.8-1.8.8h-2.4c-.3 0-.6-.1-.7-.3-.2-.2-.3-.4-.3-.7 0-3.1 3-4.7 8.9-4.7 2.6 0 4.6.6 6.2 1.7s2.4 3 2.4 5.4v10.1c0 .3-.1.6-.3.7-.2.2-.4.3-.7.3h-3.1c-.3 0-.6-.1-.7-.3-.2-.2-.3-.4-.3-.7v-.5c-1.7 1.2-3.7 1.8-5.9 1.8-2.4.1-4.3-.4-5.7-1.4zm3.5-4.2c0 .6.2 1.1.7 1.5.4.4 1.1.6 2 .6 1.7 0 3.3-.5 4.9-1.5v-2.5h-5c-.8 0-1.3.2-1.8.6-.6.2-.8.7-.8 1.3zm17.1 4.4v-21.4c0-.3.1-.6.3-.7.2-.2.4-.3.7-.3h3.6c.3 0 .6.1.7.3.2.2.3.4.3.7v21.4c0 .3-.1.6-.3.7-.2.2-.4.3-.7.3h-3.6c-.3 0-.6-.1-.7-.3-.2-.2-.3-.4-.3-.7zm-67.4-36.8v-15.3c0-.3.1-.6.3-.7.2-.2.4-.3.7-.3h3.6c.3 0 .6.1.7.3.2.2.3.4.3.7v5.4h4.5c.3 0 .6.1.7.3s.3.4.3.7v2c0 .3-.1.6-.3.7-.2.2-.4.3-.7.3h-4.5v6c0 1.1.3 2 .8 2.6s1.2.9 2.1.9c.3 0 .7-.1 1.2-.1.5-.1.8-.1 1.1-.1h.6c.3 0 .6.1.7.3.2.2.3.4.3.7v1.7c0 .2-.1.4-.3.6s-.4.3-.7.3c-1.1.2-2.6.3-4.3.3-4.7.1-7.1-2.3-7.1-7.3zm16.3 5c-1.7-1.6-2.5-3.9-2.5-6.8s.8-5.3 2.5-6.9 4-2.4 7-2.4 5.3.8 7 2.4 2.5 3.9 2.5 6.9v1c0 .3-.1.6-.3.7-.2.2-.4.3-.7.3h-12.3c.1 1.2.5 2.1 1.2 2.7s1.7.8 3 .8c1.5 0 2.6-.4 3.2-1.1.4-.6 1.1-.9 1.8-.9h2.4c.3 0 .6.1.7.3.2.2.3.4.3.8 0 3.1-3 4.6-8.9 4.6-3 0-5.2-.8-6.9-2.4zm3.2-8.6h7.6c-.1-2.6-1.3-3.9-3.7-3.9-2.5.1-3.8 1.4-3.9 3.9zm14.2 10.2c-.1-.1-.1-.2-.1-.3 0-.2.1-.4.3-.7l5.7-7.5-5.3-7.5c-.2-.2-.2-.4-.3-.7s.1-.4.2-.6.3-.2.6-.2h3.5c1.1 0 1.9.5 2.5 1.5l2.7 4.1 2.7-4.1c.6-1 1.5-1.5 2.5-1.5h3.5c.2 0 .4.1.6.2.1.2.2.3.2.6s-.1.4-.3.7l-5.3 7.5 5.7 7.5c.2.2.3.4.3.7 0 .1 0 .2-.1.3-.1.3-.3.5-.7.5h-3.5c-1 0-1.8-.5-2.5-1.5l-3.1-4.3-3.1 4.3c-.7 1-1.5 1.5-2.5 1.5h-3.5c-.4 0-.6-.2-.7-.5zm22-6.6v-15.3c0-.3.1-.6.3-.7.2-.2.4-.3.7-.3h3.6c.3 0 .6.1.7.3.2.2.3.4.3.7v5.4h4.5c.3 0 .6.1.7.3.2.2.3.4.3.7v2c0 .3-.1.6-.3.7-.2.2-.4.3-.7.3h-4.5v6c0 1.1.3 2 .8 2.6s1.2.9 2.1.9c.3 0 .7-.1 1.2-.1.5-.1.8-.1 1.1-.1h.6c.3 0 .6.1.7.3.2.2.3.4.3.7v1.7c0 .2-.1.4-.3.6s-.4.3-.7.3c-1.1.2-2.6.3-4.3.3-4.8.1-7.1-2.3-7.1-7.3z" fill="#fff"/><defs><path id="B" d="M127.847 59.647c0-29.2-26.4-45.3-66.3-39.8-60.2 8.2-63.3-1.1-54.2 43.8 3.7 18.2 10.5 35.9 24.1 44.5-1.6 2.4-4.3 5.5-7.6 5.5 0 0 9.7 0 15.8-1.7 6.2 1.9 13.5 2.3 22.2.6 35.8-7 66-23.7 66-52.9"/></defs></svg>