<svg xmlns="http://www.w3.org/2000/svg" viewBox="0 0 400 400" style="background-color: #1c74a4"><path d="M300.03 125.53c-3.656 1.315-9.144 7.591-5.7 6.519 20.171-6.276 50.66 24.558 44.189 44.687-.731 2.275-.431 2.586 1.345 1.389 5.211-3.512 6.301-9.357 3.634-19.489-1.678-6.375-7.268-16.028-12.054-20.814-8.624-8.624-24.421-14.805-31.414-12.292m-2.4 16.901c-3.298 1.549-6.067 6.867-3.1 5.953 12.129-3.738 32.226 17.046 28.054 29.013-.532 1.525-.329 1.82 1.02 1.481 9.415-2.363 5.112-22.099-6.774-31.069-6.244-4.711-15.249-7.234-19.2-5.378m-242.42 20.71c-.106.278-.146 5.723-.087 12.1l.106 11.595 19.9.104 19.9.103v87.993h28v-43.367c0-23.852.109-43.652.243-44 .215-.562 1.925-.633 15.147-.633h14.905l2.303-5.7c1.267-3.135 2.623-6.42 3.014-7.3 1.218-2.742 4.388-10.749 4.388-11.083 0-.579-107.6-.391-107.82.188m118.62 55.695v56.2h13.957c12.358 0 13.985-.072 14.2-.633.134-.348.249-14.523.257-31.5l.015-30.867.885 1.045c4.685 5.528 11.469 14.244 15.688 20.155 2.826 3.96 5.801 8.1 6.611 9.2s3.951 5.469 6.981 9.709l5.507 7.71 6.643-.11 6.643-.109 2.006-3.122a720.185 720.185 0 0 0 4.181-6.6c1.195-1.913 3.197-5.098 4.448-7.078a1773.074 1773.074 0 0 0 8.606-13.779c.676-1.098 3.376-5.229 6-9.181l4.772-7.184.206 31.072c.114 17.09.249 31.117.3 31.172.052.055 6.394.1 14.094.1h14v-112.4h-26.694l-1.053 1.591c-.579.876-1.053 1.688-1.053 1.805 0 .118-.783 1.426-1.74 2.909-1.965 3.044-3.168 4.979-9.261 14.895-2.366 3.85-5.088 8.213-6.05 9.695-.962 1.483-1.749 2.8-1.749 2.928s-.521.99-1.157 1.915a80.763 80.763 0 0 0-2.344 3.672c-3.458 5.801-5.598 9.034-8.923 13.479-2.021 2.701-3.957 5.499-4.303 6.218-.694 1.444-1.244 1.485-1.919.143-.245-.487-1.962-2.723-3.816-4.968-3.459-4.19-7.259-9.295-10.335-13.882-.959-1.43-1.855-2.69-1.992-2.8s-.677-.83-1.2-1.6c-1.194-1.758-12.003-17.03-14.186-20.043-.894-1.234-3.785-5.321-6.425-9.084l-4.8-6.84-13.5-.017-13.5-.016v56.2" fill-rule="evenodd" fill="#fff"/></svg>
