<svg id="svg" version="1.1" xmlns="http://www.w3.org/2000/svg" xmlns:xlink="http://www.w3.org/1999/xlink" width="400" height="400" viewBox="0, 0, 400,400"><g id="svgg"><path id="path0" d="M306.600 112.894 C 302.944 114.209,297.456 120.485,300.900 119.413 C 321.071 113.137,351.560 143.971,345.089 164.100 C 344.358 166.375,344.658 166.686,346.434 165.489 C 351.645 161.977,352.735 156.132,350.068 146.000 C 348.390 139.625,342.800 129.972,338.014 125.186 C 329.390 116.562,313.593 110.381,306.600 112.894 M304.200 129.795 C 300.902 131.344,298.133 136.662,301.100 135.748 C 313.229 132.010,333.326 152.794,329.154 164.761 C 328.622 166.286,328.825 166.581,330.174 166.242 C 339.589 163.879,335.286 144.143,323.400 135.173 C 317.156 130.462,308.151 127.939,304.200 129.795 M61.781 150.505 C 61.675 150.783,61.635 156.228,61.694 162.605 L 61.800 174.200 81.700 174.304 L 101.600 174.407 101.600 218.404 L 101.600 262.400 115.600 262.400 L 129.600 262.400 129.600 219.033 C 129.600 195.181,129.709 175.381,129.843 175.033 C 130.058 174.471,131.768 174.400,144.990 174.400 L 159.895 174.400 162.198 168.700 C 163.465 165.565,164.821 162.280,165.212 161.400 C 166.430 158.658,169.600 150.651,169.600 150.317 C 169.600 149.738,62.003 149.926,61.781 150.505 M180.400 206.200 L 180.400 262.400 194.357 262.400 C 206.715 262.400,208.342 262.328,208.557 261.767 C 208.691 261.419,208.806 247.244,208.814 230.267 L 208.829 199.400 209.714 200.445 C 214.399 205.973,221.183 214.689,225.402 220.600 C 228.228 224.560,231.203 228.700,232.013 229.800 C 232.823 230.900,235.964 235.269,238.994 239.509 L 244.501 247.219 251.144 247.109 L 257.787 247.000 259.793 243.878 C 260.897 242.162,262.778 239.192,263.974 237.278 C 265.169 235.365,267.171 232.180,268.422 230.200 C 270.927 226.236,275.116 219.529,277.028 216.421 C 277.704 215.323,280.404 211.192,283.028 207.240 L 287.800 200.056 288.006 231.128 C 288.120 248.218,288.255 262.245,288.306 262.300 C 288.358 262.355,294.700 262.400,302.400 262.400 L 316.400 262.400 316.400 206.200 L 316.400 150.000 303.053 150.000 L 289.706 150.000 288.653 151.591 C 288.074 152.467,287.600 153.279,287.600 153.396 C 287.600 153.514,286.817 154.822,285.860 156.305 C 283.895 159.349,282.692 161.284,276.599 171.200 C 274.233 175.050,271.511 179.413,270.549 180.895 C 269.587 182.378,268.800 183.695,268.800 183.823 C 268.800 183.951,268.279 184.813,267.643 185.738 C 267.006 186.663,265.951 188.316,265.299 189.410 C 261.841 195.211,259.701 198.444,256.376 202.889 C 254.355 205.590,252.419 208.388,252.073 209.107 C 251.379 210.551,250.829 210.592,250.154 209.250 C 249.909 208.763,248.192 206.527,246.338 204.282 C 242.879 200.092,239.079 194.987,236.003 190.400 C 235.044 188.970,234.148 187.710,234.011 187.600 C 233.874 187.490,233.334 186.770,232.811 186.000 C 231.617 184.242,220.808 168.970,218.625 165.957 C 217.731 164.723,214.840 160.636,212.200 156.873 L 207.400 150.033 193.900 150.016 L 180.400 150.000 180.400 206.200 " stroke="none" fill="#fbfbfb" fill-rule="evenodd"></path><path id="path1" d="M0.000 200.000 L 0.000 400.000 200.000 400.000 L 400.000 400.000 400.000 200.000 L 400.000 0.000 200.000 0.000 L 0.000 0.000 0.000 200.000 M316.080 112.961 C 332.650 117.349,345.923 130.251,350.068 146.000 C 352.735 156.132,351.645 161.977,346.434 165.489 C 344.658 166.686,344.358 166.375,345.089 164.100 C 351.560 143.971,321.071 113.137,300.900 119.413 C 299.654 119.801,299.746 119.113,301.228 116.959 C 304.020 112.901,309.887 111.321,316.080 112.961 M312.616 129.819 C 319.087 131.500,325.980 136.290,329.567 141.600 C 336.971 152.557,337.264 164.463,330.174 166.242 C 328.825 166.581,328.622 166.286,329.154 164.761 C 333.326 152.794,313.229 132.010,301.100 135.748 C 299.685 136.184,299.577 134.899,300.852 132.807 C 302.956 129.357,306.939 128.345,312.616 129.819 M169.600 150.317 C 169.600 150.651,166.430 158.658,165.212 161.400 C 164.821 162.280,163.465 165.565,162.198 168.700 L 159.895 174.400 144.990 174.400 C 131.768 174.400,130.058 174.471,129.843 175.033 C 129.709 175.381,129.600 195.181,129.600 219.033 L 129.600 262.400 115.600 262.400 L 101.600 262.400 101.600 218.404 L 101.600 174.407 81.700 174.304 L 61.800 174.200 61.694 162.605 C 61.635 156.228,61.675 150.783,61.781 150.505 C 62.003 149.926,169.600 149.738,169.600 150.317 M212.200 156.873 C 214.840 160.636,217.731 164.723,218.625 165.957 C 220.808 168.970,231.617 184.242,232.811 186.000 C 233.334 186.770,233.874 187.490,234.011 187.600 C 234.148 187.710,235.044 188.970,236.003 190.400 C 239.079 194.987,242.879 200.092,246.338 204.282 C 248.192 206.527,249.909 208.763,250.154 209.250 C 250.829 210.592,251.379 210.551,252.073 209.107 C 252.419 208.388,254.355 205.590,256.376 202.889 C 259.701 198.444,261.841 195.211,265.299 189.410 C 265.951 188.316,267.006 186.663,267.643 185.738 C 268.279 184.813,268.800 183.951,268.800 183.823 C 268.800 183.695,269.587 182.378,270.549 180.895 C 271.511 179.413,274.233 175.050,276.599 171.200 C 282.692 161.284,283.895 159.349,285.860 156.305 C 286.817 154.822,287.600 153.514,287.600 153.396 C 287.600 153.279,288.074 152.467,288.653 151.591 L 289.706 150.000 303.053 150.000 L 316.400 150.000 316.400 206.200 L 316.400 262.400 302.400 262.400 C 294.700 262.400,288.358 262.355,288.306 262.300 C 288.255 262.245,288.120 248.218,288.006 231.128 L 287.800 200.056 283.028 207.240 C 280.404 211.192,277.704 215.323,277.028 216.421 C 275.116 219.529,270.927 226.236,268.422 230.200 C 267.171 232.180,265.169 235.365,263.974 237.278 C 262.778 239.192,260.897 242.162,259.793 243.878 L 257.787 247.000 251.144 247.109 L 244.501 247.219 238.994 239.509 C 235.964 235.269,232.823 230.900,232.013 229.800 C 231.203 228.700,228.228 224.560,225.402 220.600 C 221.183 214.689,214.399 205.973,209.714 200.445 L 208.829 199.400 208.814 230.267 C 208.806 247.244,208.691 261.419,208.557 261.767 C 208.342 262.328,206.715 262.400,194.357 262.400 L 180.400 262.400 180.400 206.200 L 180.400 150.000 193.900 150.016 L 207.400 150.033 212.200 156.873 " stroke="none" fill="#1c74a4" fill-rule="evenodd"></path></g></svg>