<svg xmlns="http://www.w3.org/2000/svg" width="62.499" height="62.499"><path d="M13.747 27.353c4.5.4 11.4-.4 19.1-3.4 1.5-.6 3.2-1.3 5.3-1.9 5.9-1.8 7-1.3 7-1.3-.5-1.5-2.4-1.4-6.3-.6-3.9.7-5.9 1.9-9.9 2.4s-7.9-3-7.3-6.9c0 0 5.3 1.9 11.6-1-2.2 0-4.1-.9-3.3-4.1 4.2 4.3 9.2-1.5 13.5-5 .5-.4 1-.8 1.6-1.1.6-.4 1.2-.7 1.8-.9.1-.1.3-.1.5-.2s2.7-1.1 6-1c.9 0 1.7.2 2.5.8.4.4.3.7.3 1 2.1.3 3.7 3.1 3.7 5 .8.7 1.6 1.3 2.5 1.8.1.1.1.1.1.3 0 .5-.4 1.1-.8 1.4-.1 0-.1.1 0 .2l.1.1c.8.3.5.9.1 1.1.4.2.5.6.2.9-.1.1-.2.3-.2.4 0 .3.5.4.6 1 .1.5.1.9-.4 1.4-.3.3-.8.4-1.3.4-1.3.1-2.6.1-4.4 1.3-.9.7-1.4 1.4-1.7 2.1-.1.3-.2.6-.2 1-.3 2 .2 3.3.3 3.5v.1c1.2 3.8-.7 8.9-6.2 13.7-3 2.6-12.3 10.2-10.4 20.3 0 0-20.9-7.1-15-15.3 1.7-2.4 5.3-3.9 9.5-5.8l.3-.1c4.4-2 7.4-5.8 5.8-8.2-.4-.5-.9-.6-1.4-.5-4.5 1-16.7.8-23.6.1-.7-.1-1.4-.1-2-.2h-.9c-1.3 0-2.7-.2-3.8-.8-.8-.6-1.7-1-3.1-1.3-.7-.1-1.6-.2-1.6-.7.1-1.2 2.2-.2 3.6-.3.1 0 .1-.2-.1-.3-2.7-1.1-4.2-2.4-5.8-4.5-.2-.4.3-.6.4-.5 3.1 2.7 6.5 4.2 10.6 5.1.5.2 1.9.4 2.7.5z" fill="#00a04b"/></svg>