<svg xmlns="http://www.w3.org/2000/svg" width="168" height="20"><path fill="#FFF" d="M66.1.3h3.6v19.5h-3.6zm76.3 0h3.6v19.5h-3.6zM0 .3v1.3h5.5v18.2h3.6V1.6h5.5V.3zm32.8 0v9h-9.7v-9h-3.6v19.5h3.6v-9.1h9.7v9h3.6V.4zm9.7 0v19.5h13.3v-1.4H46v-7.7h7.2V9.3h-7.2V1.6h9.7V.3zm92 0v14.9L122.2.2h-2.8v19.6h1.6v-15l12.6 15h2.3V.3zM107.3 18a5.1 5.1 0 0 1-3.7 0c-2-.8-4-3-4-8.1 0-5.2 2.1-7.3 4-8.1a5 5 0 0 1 3.7 0c2 .8 4.1 3 4.1 8.1 0 5.2-2.2 7.4-4.1 8.1M105.5 0c-5.9 0-9.8 4.3-9.8 10s4 10 9.8 10c5.8 0 9.8-4.3 9.8-10s-4-10-9.8-10M92 17.3a10 10 0 0 1-7 2.7c-6 0-10-3.3-10-10 0-5.7 4-10 10-10a10 10 0 0 1 6.9 2.6l-1.1 2.3a6 6 0 0 0-5.3-3.3c-4 0-6.6 3.6-6.6 8.4 0 5.7 3 8.5 6.6 8.5a9.1 9.1 0 0 0 6-2.3zm76 0a10 10 0 0 1-7 2.7c-6 0-10-3.3-10-10 0-5.7 4.1-10 10-10a10 10 0 0 1 6.9 2.6l-1.1 2.3a6 6 0 0 0-5.4-3.3c-3.8 0-6.5 3.6-6.5 8.4 0 5.7 3 8.5 6.5 8.5a9.1 9.1 0 0 0 6.1-2.3z"/></svg>