<svg xmlns="http://www.w3.org/2000/svg" viewBox="0 0 79.09 39.27"><path fill="#8d53a0" d="M39.49.07c29.31 1.27 38.98 23.8 39.6 36.44.02.68-.51 1.26-1.2 1.28H74.7C73.27 17.59 59.29 1.59 39.5.08Zm-22.2 22.16c-.66.4-1.27.89-1.8 1.45l.6-1.45h1.2Zm20.82-18.1c.91.55 1.73 1.25 2.42 2.06-3.55-1.61-8.71.58-13.28 5.7-1.46-.2-3 .18-4.13 1.1-.24.2-.47.43-.68.66-.16-.26-.36-.51-.58-.72 5.16-6.03 11.46-9.04 16.26-8.81Z"/><path fill="#ed1c24" d="m15.7 7.34-.4.27c-.64-.09-1.29.09-1.8.49-.38.31-.47.96-.47.96v.27c-.42.35-.84.7-1.24 1.07-.98-.72-2.62-.62-3.37.39-.27.4-.43.87-.45 1.35-.89.3-1.32 1.18-1.31 2.08 0 .47.18.91.46 1.26-.32.42-.63.85-.93 1.28-.75-.18-1.51-.26-2.28-.24-.66.01-1.33.14-1.91.43l-.2.3A37.348 37.348 0 0 1 17.24 4.11l.08-.04.13-.07c.64-.3 2.28-1.06 4.75-1.83 19.14-5.18 37.55 11.12 39.08 35.62h-3.16c-.73 0-1.34-.55-1.4-1.28-1.88-21.02-14.84-34.38-30.03-34.2a36.94 36.94 0 0 0-11 5.03h.01Z"/><path fill="#50b748" d="M34.93.05c19.23.44 33.9 16.94 35.33 37.74h-4.52C64.23 16.04 48.37-.49 30.22.44c1.56-.21 3.13-.34 4.71-.4ZM8.87 21.24a3.7 3.7 0 0 0 3 1.12c-1.23 2.7-2.18 5.53-2.83 8.43h-.17v-9.55Zm24.4-19.03c.86.2 1.7.45 2.51.76-5.9.59-11.91 3.72-16.84 8.86-.39 0-.78.06-1.16.17l-.08.02v-1.41c0-.51-.07-1.03-.27-1.5a31.72 31.72 0 0 1 15.84-6.9Z"/><path fill="#fd0" d="M31.7.34c4.47 0 8.94 1.1 12.95 3.09 5.98 2.95 10.93 7.77 14.48 13.42 3.89 6.3 6.18 13.47 6.65 20.86v.08h-4.54c-.49-7.69-2.68-15.23-6.8-21.65A33.875 33.875 0 0 0 42.41 4.65c-3.69-2.04-7.79-3.2-12-3.39-2.76-.1-5.52.21-8.18.94h-.04s-.02-.02-.02-.03C24.99 1.3 27.89.69 30.83.35h.87ZM7.1 15.44c.23.28.53.49.88.6v1.8c-.48-.55-1.13-.93-1.84-1.1l.88-1.21.08-.09Zm5.93-6.17v2.75c-.14-.02-.28-.02-.42-.02-.02-.27-.08-.54-.18-.8-.14-.33-.37-.62-.67-.83.41-.38.84-.74 1.27-1.1Zm16.38-7.65c1.3.08 2.6.26 3.87.54l.03.04-.02.05-.1.02h-.12c-5.73.85-11.13 3.23-15.62 6.89-.07-.18-.17-.35-.28-.51-.47-.61-1.17-1-1.94-1.05 1.01-.71 2.07-1.37 3.15-1.97 3.45-1.9 7.18-3.25 11.04-4.01Z"/><path fill="#0099d9" d="M36.85 0c1.32 0 2.6.04 3.84.12 4.86.53 9.73 2.01 14.1 4.44 5.2 2.94 9.64 7.07 12.93 12.05a43.69 43.69 0 0 1 7.02 21.1v.08h-4.53a45.081 45.081 0 0 0-5.72-19.3C60.45 11.46 54.26 5.61 46.74 2.53A33.406 33.406 0 0 0 34.99.08h-.08l-.02-.04C35.55.01 36.2 0 36.86 0h-.01ZM13.83 21.79c.5.37 1.1.44 1.7.43h.6c-.19.45-.38.9-.56 1.35a9.462 9.462 0 0 0-2.53 7.22H9c.64-2.9 1.58-5.72 2.8-8.43.54 0 1.07-.11 1.57-.32.22-.1.46-.25.46-.25ZM35.79 2.92l.16.07c.74.29 1.45.64 2.12 1.05l.07.04c.1.08-.03.09-.03.09-2.46-.11-4.9.58-7.12 1.63a27.513 27.513 0 0 0-9.1 7.17c-.81-.77-1.9-1.19-3.02-1.14a34.13 34.13 0 0 1 3.8-3.41c3.78-3 8.31-4.9 13.1-5.5h.02Z"/><path fill="#9e6faf" d="M59.47 7.73A36.758 36.758 0 0 0 39.5.06c11.27.49 19.63 4.12 25.7 9.12l.05.04c-1.86-.73-3.8-1.24-5.78-1.5Z"/><path fill="#79c266" d="M51.15 7.72C45.19 2.78 37.91.03 30.22.42c1.56-.2 3.14-.32 4.71-.37 7.38.16 14.5 2.77 20.25 7.41-1.35 0-2.69.1-4.03.27Z"/><path fill="#f05b40" d="M44.43 9.19C37.06 2.54 27.21.35 17.19 4.14c.15-.08 1.94-1.02 5.04-1.98 9.3-2.52 18.43.04 25.53 6.15-1.1.24-2.2.54-3.31.88h-.02Z"/><path fill="#14a7df" d="M55.08 7.45a34.172 34.172 0 0 0-8.34-4.92A33.406 33.406 0 0 0 34.99.08h-.08l-.02-.04C35.55.01 36.2 0 36.86 0c1.31 0 2.59.04 3.83.12 4.86.53 9.74 2.01 14.1 4.44 1.67.93 3.26 2 4.76 3.18-.78-.11-1.56-.19-2.35-.24-.68-.04-1.35-.06-2.03-.05h-.09Z"/><path fill="#fff" d="M17.17 8.64c.4.57.53 1.27.53 1.97v1.4l.08-.02c.41-.11.84-.17 1.27-.16 1.34.02 2.66.64 3.38 1.82 0 0 .33-.37.68-.65 2-1.64 5.28-1.57 7.1.34.89.97 1.38 2.25 1.36 3.57v.18c-.03.52-.2 1.04-.57 1.38l.04.1c.45-.66 1.1-1.15 1.85-1.4.64-.2 1.32-.21 2-.2 1.52.02 3.04.71 3.63 2.33.21.6.29 1.23.29 1.86h.68v-.08c.02-1.37.56-2.78 1.72-3.51.96-.6 2.2-.68 3.26-.59 1.39.12 2.7.9 3.22 2.32.21.6.29 1.23.3 1.86h.2c.38.08.76.11 1.15.11 1.12.22 2.04 1.01 2.42 2.09.5 1.56.14 3.37-1.1 4.29-.7.5-1.59.7-2.46.7h-.34v3.53s.45-.32.88-.43c1.05-.23 2.13.22 2.7 1.14.9 1.46.7 3.52-.52 4.86-1.27 1.4-3.39 1.88-5.28 1.8a6.65 6.65 0 0 1-4.16-1.48l-.03-.03c-1.27 1.16-3.12 1.56-4.87 1.5-1.73-.05-3.5-.59-4.67-1.85-.55-.62-.96-1.34-1.2-2.13l-.02-.02s-.03.05-.05.08a9.014 9.014 0 0 1-5.86 3.73c-2.8.53-5.85.1-8.14-1.5 0 0 0-.04-.08.06-.8.86-2 1.22-3.2 1.23H4.48c-1.56.06-3.03-.73-3.86-2.05-.42-.81-.64-1.72-.62-2.63V20.68c0-1.4.52-2.84 1.73-3.6.65-.4 1.42-.57 2.2-.58 1.49 0 3.08.17 4.06 1.33v-1.8h-.06a1.983 1.983 0 0 1-1.26-1.83c0-.9.42-1.77 1.31-2.08 0 0 .03-.79.45-1.35.96-1.3 3.39-1.1 4.01.41.1.26.16.54.18.81.14 0 .28 0 .42.02V9.05s.1-.64.48-.96c1.1-.9 2.92-.5 3.66.56h-.01Zm5.39 19.44c-.52 0-1.03.2-1.35.59-.35.47-.51 1.05-.43 1.63.06.61.36 1.24.94 1.52.76.37 1.76.17 2.26-.48.3-.4.42-.94.4-1.44-.04-.67-.35-1.37-1-1.66-.26-.12-.54-.17-.82-.17Zm16.93.27h-.8v3.56s.1-.04.16-.09l.1-.07c.17-.11.35-.2.54-.26v-3.14Zm-30.62-7.1v9.54h4.18c-.22-3.37 1.25-6.78 4.25-8.57h-1.78c-.6 0-1.2-.06-1.69-.43 0 0-.24.15-.46.25-.6.26-1.26.35-1.92.32-.97-.02-1.9-.42-2.58-1.12Z"/><path fill="#111c4e" d="M4.83 17.94c1.71 0 2.61.92 2.61 2.78v10.59c0 .32.06.5.23.68.17.17.36.22.68.22h4.82c.41-.02 1.32-.16 1.35-1.02-.04-.39-.06-.77-.06-1.16 0-4.62 3.26-7.73 8.17-7.73 2.8 0 5.05 1.03 6.45 2.8v-.44c0-1.35.78-2.06 2.34-2.06h.33v-1.44c0-1.82.92-2.77 2.57-2.77h.48c1.53 0 2.58.65 2.58 2.77v1.44h3.54v-1.44c0-1.82.93-2.77 2.57-2.77h.48c1.53 0 2.58.65 2.58 2.77v1.44h1.7c1.54 0 2.25.65 2.25 1.97v.3c0 1.34-.78 2.06-2.3 2.06h-1.77v4.96c0 .98.4 1.49 1.26 1.49.45 0 .74-.13 1.01-.35.43-.35 1.07-.29 1.42.14.02.03.05.06.07.1.22.34.4.78.4 1.3 0 1.91-1.73 3.26-4.46 3.26-2.5 0-4.06-.9-4.77-2.67-.32 1.6-1.96 2.67-4.4 2.67-3.54 0-5.21-1.8-5.21-5.32v-5.58h-.33c-.57 0-1.04-.1-1.4-.28.43 1 .67 2.15.67 3.41 0 4.72-3.23 7.77-8.15 7.77-2.82 0-5.05-1-6.45-2.73-.11 1.5-1 2.3-2.75 2.3H4.5c-1.97 0-3.08-1.1-3.08-3.27V20.72c0-1.85.9-2.78 2.54-2.78h.87Zm17.74 8.72c-1.88 0-3.23 1.4-3.23 3.37s1.32 3.4 3.23 3.4 3.24-1.43 3.24-3.37-1.35-3.4-3.24-3.4Zm18.35.27h-3.66v4.96c0 .98.39 1.49 1.26 1.49.53 0 .84-.15 1.16-.4.3-.23.7-.26 1.03-.07.09.04.16.09.23.16l-.02-.56v-5.58ZM10.4 11.16c.6 0 1 .25 1 1.07v.99h1.35c.64 0 .9.27.9.79v.13c0 .53-.28.82-.93.82h-1.37v3.3c0 .76.26 1.14.86 1.14s.77-.34 1.01-.38c.26-.05.53.27.53.73 0 .77-.78 1.4-2.05 1.4-1.71 0-2.51-.9-2.51-2.64v-3.55h-.38c-.64 0-.94-.27-.94-.78v-.14c0-.54.3-.82.94-.82h.38v-.99c0-.73.38-1.07 1.02-1.07h.19Zm16.09 1.88c2.22 0 3.76 1.5 3.86 3.66v.37c-.01.36-.1.57-.43.61h-5.45c.16 1.16 1.03 1.84 2.24 1.84 1.54 0 1.95-.91 2.26-1.01.47-.09.92.22 1.01.68.01.07.02.14.01.21 0 .82-1.2 1.76-3.36 1.76-2.53 0-4.2-1.57-4.2-4.01s1.7-4.1 4.06-4.1Zm-11.4-4.23c.67 0 1.4.35 1.4 1.79v3.83c.51-.89 1.47-1.43 2.5-1.4 2.03 0 2.89 1.46 2.89 3.27v3.64c0 .81-.42 1.06-.99 1.06h-.24c-.6 0-1.01-.23-1.01-1.06v-3.33c0-1.07-.54-1.7-1.43-1.7-1.05 0-1.72.69-1.72 1.8v3.23c0 .81-.42 1.06-.99 1.06h-.24c-.6 0-1.01-.23-1.01-1.06V9.08c0-.08.4-.25.84-.25Zm11.37 5.76c-1.05 0-1.85.75-1.99 1.8h3.8c-.05-1.08-.73-1.8-1.81-1.8Z"/></svg>