<svg xmlns="http://www.w3.org/2000/svg" viewBox="0 0 26.427 21.651"><path d="M14.818 1.984c2.652-2.645 6.968-2.645 9.62 0a6.781 6.781 0 0 1 0 9.596l-9.3 9.276a2.726 2.726 0 0 1-3.847 0L22.514 9.661c.77-.769 1.195-1.79 1.195-2.878s-.424-2.11-1.195-2.88a4.093 4.093 0 0 0-5.772 0l-7.375 7.358L5.84 7.742a1.355 1.355 0 0 1 0-1.919 1.363 1.363 0 0 1 1.924 0l1.603 1.6zm-12.826 0c2.544-2.538 6.62-2.64 9.288-.309L9.349 3.601a4.094 4.094 0 0 0-5.433.302 4.069 4.069 0 0 0 0 5.758l5.45 5.438 9.3-9.276c.53-.53 1.392-.53 1.924 0s.53 1.389 0 1.919L9.367 18.937 1.992 11.58C.707 10.298-.001 8.594-.001 6.782s.708-3.517 1.993-4.798z" fill="#00a88f" fill-rule="evenodd"/></svg>