<svg xmlns="http://www.w3.org/2000/svg" xml:space="preserve" id="layer" x="0" y="0" style="enable-background:new 0 0 652 652" version="1.1" viewBox="0 0 652 652"><style>.st0{fill:#1f3d73}</style><path d="M206.4 271.5v49.3h-11.7v-49.3h-15.6V261h43v10.4h-15.7v.1zM252.4 320.8v-26.7c0-5.8-3.7-7.7-7.1-7.7s-7.1 1.9-7.1 7.7v26.7h-10.9V261h10.9v20.1c2.7-2.9 6.5-4.5 10.5-4.5 9.6 0 14.6 6.7 14.6 16v28.3h-10.9v-.1zM279.4 302.3c-.4 5 3.3 9.3 8.3 9.7h1.4c3.7.3 7.4-1.2 9.9-4l6.6 6.5c-4.2 4.7-10.3 7.2-16.6 6.9-10.3 0-20.2-4.7-20.2-22.4 0-14.3 7.7-22.3 19.1-22.3 12.2 0 19.1 8.9 19.1 20.9v4.7h-27.6zm15.6-12.2c-2-4-6.9-5.7-10.9-3.7-1.6.8-2.9 2.1-3.7 3.7-.6 1.5-1 3.1-1 4.7H296c0-1.6-.4-3.2-1-4.7zM381.4 320.8h-9.7l-11-36.3-11 36.3H340L324 261h12.2l9.2 37.7 10.9-37.7h8.7l10.9 37.7 9.3-37.7h12.2l-16 59.8zM406.5 302.3c-.4 5 3.3 9.3 8.3 9.7h1.3c3.7.3 7.4-1.2 9.9-4l6.6 6.5c-4.2 4.7-10.3 7.2-16.6 6.9-10.3 0-20.2-4.7-20.2-22.4 0-14.3 7.7-22.3 19.1-22.3 12.2 0 19.1 8.9 19.1 20.9v4.7h-27.5zm15.7-12.1c-2-4-6.9-5.7-10.9-3.7-1.6.8-2.9 2.1-3.7 3.7-.6 1.5-1 3.1-1 4.7h16.6c0-1.6-.4-3.2-1-4.7zM463.4 320.8V317c-2.8 3-6.7 4.5-10.7 4.2-4.1.3-8.1-1.1-11.2-3.8-2.4-2.7-3.7-6.2-3.6-9.8 0-7 4.8-12.7 14.9-12.7h10.3v-2.2c0-4.8-2.3-6.9-8.1-6.9-3.2-.3-6.4 1-8.4 3.6l-7-6.8c4.3-4.7 8.5-6 15.8-6 12.3 0 18.6 5.2 18.6 15.4v28.9c0-.1-10.6-.1-10.6-.1zm-.3-18.5h-8.6c-3.8 0-6.1 1.9-6.1 4.9s1.9 5 6.3 5c3 0 4.9-.3 6.9-2.1 1.3-1.5 1.9-3.6 1.6-5.5l-.1-2.3zM496.1 320.8c-6.5.5-12.2-4.4-12.7-11v-23.1h-4.6v-8.3h4.6v-12.9h10.9v12.9h7.7v8.3h-7.7v21c-.3 1.9 1 3.6 2.8 3.9.3.1.7.1 1 0h3.9v9.2h-5.9zM217.3 389.1l-23.7-36.8v36.8H182v-59.8h10.4l23.7 36.6v-36.6h11.7v59.8h-10.5zM245.2 370.6c-.4 5 3.3 9.3 8.3 9.7h1.4c3.8.2 7.4-1.3 9.9-4.1l6.6 6.5c-4.2 4.7-10.3 7.2-16.6 6.9-10.3 0-20.2-4.7-20.2-22.4 0-14.3 7.7-22.3 19.1-22.3 12.2 0 19.1 8.9 19.1 20.9v4.8h-27.6zm15.7-12.2c-2-4-6.9-5.7-10.9-3.7-1.6.8-2.9 2.1-3.7 3.7-.6 1.5-1 3.1-1 4.7h16.6c-.1-1.6-.4-3.2-1-4.7zM293.4 389.1c-6.5.5-12.2-4.4-12.7-11V355h-4.6v-8.4h4.6v-12.9h10.9v12.9h7.7v8.3h-7.7v21c-.3 1.9 1.1 3.6 2.9 3.8h4.7v9.2l-5.8.2zM351.4 389.1h-9l-9.1-27.5-9.2 27.5h-9l-13.5-43.7h11.5l7.1 26.9 8.9-26.9h8l9 26.9 7-26.9h11.5l-13.2 43.7zM398.1 384.2c-3.6 3.6-8.5 5.6-13.6 5.4-5 .2-9.9-1.8-13.5-5.4-3.9-4.1-5-9.1-5-17s1-12.9 5-17c3.5-3.6 8.4-5.6 13.5-5.4 5.1-.2 10 1.8 13.6 5.4 3.8 4.1 4.9 9.1 4.9 17s-1 12.9-4.9 17zm-8.5-27.6c-1.4-1.3-3.2-2-5.1-1.9-1.9-.1-3.7.6-5 1.9-2.3 2.3-2.5 6-2.5 10.6 0 4.5.3 8.4 2.5 10.7 1.3 1.3 3.2 2 5 1.9 1.9.1 3.7-.6 5.1-1.9 2.3-2.3 2.5-6.1 2.5-10.7s-.2-8.3-2.5-10.6zM469.3 389.1l-10.7-18.2-4.6 5.2v13h-11v-55.4h10.9v29.6l14.4-17.9h13.2L465.9 363l16.8 26.1h-13.4zM432.4 357.3c-1.4-1.7-3.6-2.7-5.8-2.6-3.3 0-7 2.5-7 8.1v26.3h-10.9v-43.7h10.7v4.2c2.8-3 6.8-4.7 11-4.7 3.9-.2 7.7 1.3 10.3 4.1l-8.3 8.3zM533.4 320.8v-26.7c0-5.8-3.7-7.7-7.1-7.7s-7 1.9-7 7.7v26.7h-10.9V261h10.9v20.1c2.7-2.9 6.5-4.5 10.5-4.5 9.6 0 14.6 6.7 14.6 16v28.3h-11zM560.8 302.3c-.4 5 3.3 9.3 8.3 9.7h1.3c3.7.3 7.4-1.2 9.9-4l6.6 6.5c-4.2 4.7-10.3 7.1-16.6 6.8-10.3 0-20.2-4.7-20.2-22.4 0-14.3 7.7-22.3 19.1-22.3 12.2 0 19.1 8.9 19.1 20.9v4.8h-27.5zm15.6-12.2c-2-4-6.9-5.7-10.9-3.7-1.6.8-2.9 2.1-3.7 3.7-.6 1.5-1 3.1-1 4.7h16.6c0-1.6-.3-3.2-1-4.7zM618.3 289c-1.4-1.7-3.6-2.7-5.8-2.6-3.3 0-7 2.5-7 8.1v26.4h-10.9v-43.8h10.7v4.2c2.8-3 6.8-4.7 11-4.7 3.9-.2 7.6 1.3 10.3 4.1l-8.3 8.3z" class="st0"/><path d="M41.9 253.9h110c8.5 0 15.4 6.9 15.4 15.4v112.5c0 8.5-6.9 15.4-15.4 15.4h-110c-8.5 0-15.4-6.9-15.4-15.4V269.3c0-8.5 6.9-15.4 15.4-15.4z" style="fill:#fee953"/><path d="M110.4 384.7c-1.1 0-2.3-.1-3.4-.5 24.4-11.8 54-40.3 54-53.7.1-2.3-1.3-4.3-3.5-5-.9-.3-1.8-.5-2.7-.5 2.4-3.5 3.9-7.5 4.3-11.7.4-3.7-2.3-7-6-7.4-.5-.1-.9-.1-1.4 0-.6 0-1.3.1-1.9.2 1.3-2.6 2.1-5.5 2.2-8.5 0-5.4-3.6-7.7-8.4-7.7-1.9 0-3.7.3-5.5.7 1.2-2.3 1.8-4.9 1.9-7.5 0-4.1-2.2-7.5-9-7.5-2.3 0-4.5.4-6.7 1 .5-1.2.7-2.5.7-3.8 0-4.5-2.9-6.7-7.7-6.7-3.6.2-7.1 1-10.4 2.4.1-.5.1-.9.1-1.4 0-3.6-1.9-5.5-6.4-5.5-14.9 0-45.4 23.3-60.1 44.5 0-.6 0-1.1.1-1.7 0-8.1 10.3-26.7 36.3-38.7l-.7-1.4c-27.5 11.4-40.7 33.2-40.7 42.3 0 1.9.5 3.9 1.5 5.5-2.5 4.1-4.1 8.8-4.5 13.6v.5c-.1 3.7 1.9 7.1 5.2 8.8-1.3 3-2 6.1-2.1 9.4.2 5.6 4.5 10.2 10.1 10.9-.3 1.4-.4 2.8-.4 4.2-.2 6.4 4.8 11.7 11.1 11.9H59v.5c0 7.7 5.3 11.2 12.2 11.2 2.1 0 4.2-.3 6.2-.7 1.6 5.2 7.2 7.4 11.2 7.4 3.8-.1 7.6-.9 11.2-2.3 2.2 1.7 4.9 2.5 7.7 2.3 12 0 35.6-14.6 46.2-33.4l-1-1c-12.9 19.5-33.2 29.3-42.3 29.3zm33.4-93.6c3.5-.4 6.6 2.2 7 5.7v.9c-.2 3.1-1.1 6.1-2.7 8.8-8 1.9-20.5 9.3-32.7 19.1-12.3 9.8-24 21.8-31.3 33.5-5.8 2.7-11.9 4.7-18.3 5.8 1.3-5.8 3.7-11.3 7-16.3 12.6-6.1 24.5-13.9 35.2-23 13.5-11.2 24.6-23.6 29.5-33.3 2-.8 4.2-1.1 6.3-1.2zm3.2 17.1c-4.1 6.4-9 12.2-14.5 17.3-12.4 11.8-26.3 21.8-41.3 29.9 8-11.2 17.4-21.3 28.1-30 10.1-8.3 20.3-14.8 27.7-17.2zm-69.6 33.5c4.3-5.7 8.9-11.1 13.9-16.2 14.1-14.6 31.3-27.7 43.8-32.4-5.8 9.7-18.2 21.9-32.1 32.4-8 6.1-16.6 11.6-25.6 16.2zm54.4-64.7c4.8 0 6.9 2.4 6.9 6-.2 2.9-1.1 5.7-2.5 8.2-14 4.2-33.4 18.2-49.3 34.3-6 6-11.6 12.6-16.5 19.5-5.4 2.5-11.2 3.9-17.2 4.3 1.9-6 4.7-11.6 8.2-16.8 4.7-2 9.2-4.4 13.5-7.1 21.1-12.8 43.3-33.9 49.1-47.1 2.4-.8 5.1-1.2 7.8-1.3zm-66.2 49.3.6-.8c14.9-19.8 38.5-40.1 55.8-46.5-7.1 13.1-32.7 36.1-54.6 46.5l-1.8.8zm52-58.9c4.8 0 6.2 1.2 6.2 5.8-.1 1.3-.4 2.6-.9 3.8-18.2 5.6-44.6 27.2-61.4 48.4-.9 1.1-1.7 2.2-2.6 3.4-3.4 1.2-7 1.8-10.5 1.9-1.1 0-2.2-.1-3.3-.3.7-1.6 1.6-3.2 2.5-4.9 2.2-3.8 4.7-7.4 7.3-10.9 20.4-6.6 47.3-31.6 51.8-44.4 3.5-1.6 7.2-2.6 10.9-2.8zm-58.3 41.8c13.1-15.6 31.4-31.3 45.7-38.2-5.1 12.4-29.4 31.7-45.7 38.2zm42-46.4c3.1 0 4.7 1.7 4.7 4.1 0 .7-.1 1.5-.3 2.2-16.1 6.9-37.6 24.4-52.6 42-1 .2-2 .3-3 .3-2.3.2-4.7-.4-6.7-1.5 11.5-20 43.9-47.1 57.9-47.1zm-61.8 62.7c-.3-1.1-.5-2.2-.4-3.3.1-2.4.7-4.8 1.7-7.1 1.6.8 3.5 1.2 5.3 1.1 1 0 2.1-.1 3.1-.2-2.4 3.1-4.6 6.3-6.6 9.6-.5.9-1.1 1.8-1.5 2.7-.8-.9-1.3-1.8-1.6-2.8zm8.1 23.1c-4.5-1.5-5.2-5.2-5.2-8.1 0-1.4.2-2.8.6-4.2.8.1 1.7.2 2.5.2 3.1-.1 6.2-.6 9.2-1.5-2.8 4.2-5.2 8.8-7.1 13.6zM60.1 365c-5.6-.4-8.1-3.8-8.1-8.6v-1.7c4.9-.6 9.6-1.9 14.2-3.7-2.7 4.5-4.7 9.2-6.1 14zm17 12.3h-1.8c-5.9 0-8.8-2.9-9.6-7.2 5.1-1.1 10.1-2.7 14.9-4.8-1.9 3.8-3.1 7.8-3.5 12zm20.5 5.8c-1.6.4-3.2.6-4.8.6-3.1.1-6.1-1.1-8.2-3.4 4.8-1.7 9.4-3.8 13.8-6.2-.7 2-1 4.1-1 6.3 0 .9.1 1.8.3 2.6v.1zM83 376.3v-.5c.3-4.7 1.7-9.4 4.1-13.5 18.2-9.5 34.7-21.9 48.8-36.8 5.2-5.3 9.6-11.3 13.2-17.8.9-.2 1.9-.3 2.9-.3 5 0 5.8 3.6 5.8 6 0 3.3-1.8 7.4-4.8 11.8-.6.1-1.3.2-1.9.4-14.8 3.4-41.5 24.9-50.6 43.3-5.5 3.1-11.4 5.6-17.5 7.4zm68.8-49.5c-9.2 12.6-27.6 27.9-45 38.4 8.9-15.9 31.9-35.2 45-38.4zm-48.7 49.8c0-2 .4-4.1 1.2-6 19.8-11.8 40.4-29.9 49.8-44.3h1.1c2.3-.2 4.3 1.4 4.5 3.6v.2c0 13.1-33.3 42.2-55.8 50.8-.6-1.3-.8-2.8-.8-4.3z" class="st0"/></svg>