<svg xmlns="http://www.w3.org/2000/svg" width="767.8" height="767.8" viewBox="0 0 7998.1 7998.1" fill-rule="evenodd" image-rendering="optimizeQuality" shape-rendering="geometricPrecision"><style>.J{fill-rule:nonzero}</style><g stroke-miterlimit="2.6" class="J"><path d="M7970.3 3999c0 2193.3-1778 3971.3-3971.3 3971.3S27.8 6192.3 27.8 3999C27.8 1805.9 1805.8 27.9 3999 27.9s3971.2 1778 3971.2 3971.3z" stroke="#231f1f" stroke-width="55.6" fill="#f2f2f2"/><path d="M7560.6 3970.3C7560.6 5937.3 5966 7532 3999 7532S437.5 5937.3 437.5 3970.3 2032 408.7 3999 408.7s3561.5 1594.6 3561.5 3561.6z" stroke="#7e7e7e" stroke-width="41.7" fill="#fff"/></g><path d="M5590.4 5576c-1565.7-43.5-2786.1 236-4004.2 395.8-82.2-1046.6-41.1-2197.7-56.4-3043.4 1354.3-18.8 2439.6-304.2 3721.1-397 47 1080.6 434.6 1821.8 339.5 3044.5zm-2482-788.2c-35.2 650.7 1118.3 442.8 1015-114-350.1 25.9-641.4 111.6-1015 114zm-902-846.9c202 135 561.4 20 563.8-224.3-144.5-190.3-601.4-97.5-563.8 224.3zm1974.5-168c173.8 119.9 576.7 78.7 507.4-225.5-135-17.6-213.8-90.4-397-56.4-23.5 107-119.8 142.2-110.4 282zm-1353.2-563.8c-273.6-151.5-935 15.3-790.5 282 272.5-28.2 438.2-164.5 790.5-112.8V3209zm1182.8 225.6c273.7-209.1 768.2-47 902.1-282-304.2-118.6-869.2-55.1-902 282z" fill="#e4ebaa" class="J"/><path d="M6265.8 4618.6c-89.3 357.1-425.2 459.3-507.4 733-30.6-1060.7-371.2-1810-282-2988.2 168-131.5 277.3-563.8 507.5-451 102.2 667.1 485 1895.7 281.9 2706.2z" fill="#758a38" class="J"/><path d="M4123.3 4673.8c103.4 556.8-1050 764.7-1014.8 114 373.5-2.4 664.8-88.1 1014.8-114zm-1353.1-957.3c-2.4 244.4-361.8 359.5-563.8 224.4-37.6-321.8 419.3-414.6 563.8-224.3zm1918-169c69.4 304.1-333.5 345.2-507.3 225.4-9.4-139.7 86.9-175 110.4-281.9 183.2-34 262 38.8 397 56.4zm-2651-56.5c-144.4-266.6 516.9-433.4 790.5-281.9v169.2c-352.3-51.7-518 84.5-790.5 112.7zm2875.4-338.2c-133.9 234.9-628.4 72.8-902 281.8 32.8-337 597.8-400.5 902-281.8z" fill="#f06721" class="J"/><path d="M5251 2419.8c-1264 44.6-2472.6 406.4-3664.8 338.3 229-541.5 640.2-901 1522.3-789.3-121 104.5 2046.1-90.5 2593.5-112.8-142.2 196.2-242 433.4-451 563.8z" fill="#758a38" class="J"/><path d="M2376.7 6367.6c40-173.8-98.7-166.8-57.5-339.5-457-44.6-616.7 112.8-902.1 56.4-89.3-687.1 41-1415.4 0-2311.6-16.5-363-144.5-755.2-112.8-903.2 111.6-506.3 708.3-655.5 902-1013.7 438.2 24.7 728.3-99.9 1184-56.4 379.5 0 1886.5 82.2 2593.6-169.1 494.5 886.8 334.7 1971 451 3100.9-287.8 313.6-581.4 621.4-789.3 1013.7-280.7-125.7-484 12.9-789.3-55.2-156.2 123.3 9.4 401.7 0 563.8 402.9-69.3 876.2 38.7 1409.5 0" stroke="#f06721" stroke-width="97.2" fill="none"/></svg>