<svg xmlns="http://www.w3.org/2000/svg" data-name="Layer 1" width="280.15" height="280.15"><path d="M213.1 117.11a69.07 69.07 0 01-6.21-4.88c.65-1.13 1.81-2.87 2.85-4.34 6.05-8.78 17.4-25.36 17.4-49a54.29 54.29 0 00-16.94-39.68C198.2 7.87 179.3-.01 151.55 0c-26.34 0-56 8.65-81.62 23.8-11.49 6.81-20.95 14.16-27.58 21.21-6.63 7.05-10.43 13.79-10.45 19.6a10.26 10.26 0 003.13 7.43c3.74 3.68 10.38 5.39 18.85 6.3 8.47.91 18.8.91 29.92.91h2c17.14 0 29.24.47 37 1.59a29.22 29.22 0 018.37 2.18c1.75.9 2.3 1.76 2.31 2.74a4.23 4.23 0 01-1.5 2.35c-3.7 3.71-13.42 9.22-22.16 15.27a75.46 75.46 0 00-11.62 9.47c-3.07 3.24-5.15 6.57-5.18 10v.17c0 4.35 2.34 7.85 5.86 10.55 10.63 8.15 32.65 10.29 44.16 12.38 7.11 1.3 10.88 3.82 12.91 6.57a13.74 13.74 0 012.41 8.46c0 9.87-3.66 18.59-10.24 24.55-5.84 5.37-12.88 8.85-23.15 8.86h-1.23a45.56 45.56 0 00.36-5.76c0-11.62-4.56-21.31-12.32-28-7.76-6.69-18.66-10.51-31.31-10.51-15.61 0-28.13 6.47-36.71 16.08a52.94 52.94 0 00-13.26 34.86c0 19.71 9.1 39.52 26.82 54.36 17.72 14.84 44.08 24.73 78.57 24.73 27.35 0 54.93-9 75.81-24.71 17.29-13 38-36.76 37.95-75.71 0-35.64-23.92-53.25-36.53-62.53zm-108.84 2.52c3.82-3.81 11.71-9.22 17.6-12.95 5.89-3.73 11-7 14.76-10.35 3.76-3.35 6.26-6.7 6.27-10.61a11.31 11.31 0 00-3.42-8.13c-4-4-11.16-5.82-20-6.81-8.84-.99-19.57-1-30.65-1h-3c-9.13 0-16.41-.14-22.22-.37 8.07-3.13 17.4-8.12 27.57-13.55 16.5-8.82 34.78-18.62 52-23-4 4.5-6.55 9.63-6.57 14.05a4.65 4.65 0 001.17 3.15 5.2 5.2 0 003.95 1.49c3.07 0 6.5-1.18 10.47-2.45 5.38-1.77 11.61-3.8 18.45-3.8a33.84 33.84 0 0119.2 6.19c-4.56.3-8.3 1.63-10.64 3.48a7.17 7.17 0 00-3.15 5.72c0 2.53 1.79 4.44 4 7 3.54 4 8.18 9.22 8.18 17.65a31.73 31.73 0 01-5.86 17.66v-1.08c0-4.28-.95-9.11-3.3-11.85a7 7 0 00-5.42-2.5c-3.61 0-6.72 2.78-11.36 6.6a117.18 117.18 0 01-12.51 9.32c-21.72 13.68-33.37 19-41.63 19.66-3.05.27-7.62.22-3.89-3.52zm19.91 83.78c12.23 0 22.43-3.73 30.32-11 8.43-7.67 13.22-19.15 13.22-31.5a21.13 21.13 0 00-5.24-14.61c18.23 4.35 37.16 13.72 47.69 27.81a34.63 34.63 0 00-11.38-1.95c-3.4.05-6.1 3.59-6.12 7.65 0 2.12.81 4.53 1.78 7.54 1.52 4.67 3.47 10.7 3.47 17.9 0 6.64-1.65 14.27-6.88 22.8-.15-6.88-2-12.37-4.39-15.32a6.33 6.33 0 00-10.49-.11 39.07 39.07 0 00-4 6.41c-5 9-12.91 23.35-37.62 30.78a22.91 22.91 0 003.4-11 8.75 8.75 0 00-.58-3.35 4.56 4.56 0 00-4.27-3h-.06a42.55 42.55 0 00-9.49 2c-5.69 1.58-12.59 3.52-20.17 3.52a40.63 40.63 0 01-25.27-8.73 15.26 15.26 0 007.74-3.23 6.9 6.9 0 002.65-5.1c0-2.89-2.31-4.87-4.9-7.25-3.78-3.56-8.29-7.75-8.28-14.8a21.22 21.22 0 011.27-6.94 18.37 18.37 0 003.48 6c2.31 2.49 5.07 4 7.77 4 2.7 0 4.52-1.32 5.23-3a13.24 13.24 0 00.72-5.19 6.54 6.54 0 012.1-4.66 7.13 7.13 0 014.89-2c4.16 0 7.3 2.31 9.5 5.76a24 24 0 013.33 12.36 19.48 19.48 0 01-1.32 7.34l-.94 2.29 1.95-1.52a28.3 28.3 0 008-10c.93.07 1.92.1 2.89.1zm-80.79-136c-1.28-.75-2.09-1.56-2.09-2.79 0-3.37 3.19-8.74 9.1-14.63C68.09 32.25 109.08 9.4 151.55 9.43c21.46 0 38.94 5.31 50.55 15.22a44.22 44.22 0 0115.59 34.25c0 20.77-9.78 35.08-15.73 43.74-3 4.39-4.85 7-4.88 9.89a8.7 8.7 0 002.92 6.13 63 63 0 007.49 6.06c12.36 9.15 32.68 24.1 32.69 55 0 35.08-18.54 56.39-34.14 68.16-19.24 14.51-44.84 22.84-70.17 22.84-63.26 0-96-35.2-96-69.67a43.49 43.49 0 0110.8-28.54 39 39 0 0129.8-13.17c7.1 0 16.06 1.67 23.17 6.42 7.11 4.75 12.44 12.54 12.46 25.15v1.1a19.7 19.7 0 00-2.75-4.49 15.82 15.82 0 00-12.62-6.03 12.6 12.6 0 00-12.58 12.24 6.72 6.72 0 01-.31 2.39 1.24 1.24 0 01-.14.27c-1.66 0-3.63-1.19-5.2-3.44a17.51 17.51 0 01-2.75-10 25.19 25.19 0 01.14-2.7l.22-2-1.36 1.51c-6.4 7.12-8.71 13.56-8.71 19.1 0 9.07 6.12 15.54 9.74 18.93.66.6 1.48 1.35 2.12 2 .31.33.59.64.78.88l.2.31v.06c0 .33-.72 1.2-2.41 1.87a23.53 23.53 0 01-8.88 1.37c-1.44 0-3-.07-4.79-.24l-1.58-.14 1 1.23c12.17 14.46 25.55 18.36 37.14 18.36 8.56 0 16.16-2.13 21.64-3.66 2.31-.66 4.92-1.64 6.36-1.62.6 0 .85.14 1 .32a1.91 1.91 0 01.25 1.09c0 1.68-1 4.73-2.64 7.86a33.7 33.7 0 01-6.52 8.74l-1.55 1.41 2.07-.27c35.39-4.55 47.2-25.06 53-35.64a51.35 51.35 0 012.66-4.53c.8-1.19 1.59-1.76 1.78-1.69.19.07.87.3 1.45 1.17 1.74 2.58 3.2 9 3.19 15.77a41.47 41.47 0 01-.87 8.67l-.44 2.05 1.53-1.43c13.36-12.37 17-25.38 17-36.2a63 63 0 00-3.62-19.87 26.07 26.07 0 01-1.49-5.82 2.57 2.57 0 01.34-1.6 1.76 1.76 0 011-.54c5.64 0 12.34 2 20.38 5.85l1.57.75-.68-1.6c-10.84-25.51-35.14-36.47-58.78-42.45-11.84-3-23.55-4.75-33.41-6.45-7.17-1.24-13.38-2.47-17.89-4.08l-2.22-1c13.52-1.7 29.84-11.23 44.32-20.53a126.1 126.1 0 0013-9.84c1.77-1.46 3.4-2.82 4.79-3.79a6.87 6.87 0 013.06-1.52 1.78 1.78 0 011.34.68c1.33 1.43 2.12 5.39 2.09 9.71a39 39 0 01-1.3 10.2l-.46 1.68 1.46-.94c11.5-7.41 17-18.6 17-29.11 0-10.51-5.84-17.11-9.6-21.32a68.14 68.14 0 01-1.79-2.08 9 9 0 01-.88-1.28 2.76 2.76 0 011-1.27c2.41-1.8 6.52-2.92 11.29-2.92a34.19 34.19 0 017.66.9l1.81.41-1.14-1.46c-9.89-12.72-21.26-16.38-31.4-16.36-8 0-15.2 2.23-20.47 4-2.56.84-6.12 1.94-7.64 1.92a1.44 1.44 0 01-.41 0c0-1.85 1.36-5 3.9-8.29a40.79 40.79 0 0111.34-10l1.79-1.07-2.08-.15c-.91-.06-1.84-.1-2.78-.1-20.35 0-46.62 14.81-66 24.81-11.99 6.19-37.36 20.9-44.99 16.36z" fill="#1d1d1b"/></svg>