<svg xmlns="http://www.w3.org/2000/svg" xmlns:xlink="http://www.w3.org/1999/xlink" viewBox="0 0 86.12 48"><defs><linearGradient xlink:href="#a" id="f" x1="16.86" x2="16.86" y1="15.99" y2=".01"><stop offset="0" stop-color="#ff7a4f"/><stop offset=".27" stop-color="#f9744a"/><stop offset=".59" stop-color="#eb663b"/><stop offset=".94" stop-color="#d24d24"/><stop offset="1" stop-color="#ce4920"/></linearGradient><linearGradient xlink:href="#a" id="g" x1="0" x2="19.66" y1="8" y2="8"><stop offset=".2" stop-color="#ce4920" stop-opacity="0"/><stop offset=".29" stop-color="#ce4920" stop-opacity=".02"/><stop offset=".41" stop-color="#ce4920" stop-opacity=".1"/><stop offset=".53" stop-color="#ce4920" stop-opacity=".22"/><stop offset=".66" stop-color="#ce4920" stop-opacity=".38"/><stop offset=".79" stop-color="#ce4920" stop-opacity=".6"/><stop offset=".93" stop-color="#ce4920" stop-opacity=".85"/><stop offset="1" stop-color="#ce4920"/></linearGradient><linearGradient xlink:href="#a" id="b"><stop offset="0" stop-color="#001c25"/><stop offset=".5" stop-color="#335d7f"/><stop offset="1" stop-color="#8bb7ee"/></linearGradient><linearGradient xlink:href="#a" id="c"><stop offset="0" stop-color="#001c25" stop-opacity=".5"/><stop offset="1" stop-color="#001c25" stop-opacity="0"/></linearGradient><linearGradient xlink:href="#b" id="l" x1="44.25" x2="84.59" y1="40" y2="40"/><linearGradient xlink:href="#c" id="m" x1="76.67" x2="105.63" y1="602.86" y2="584.56" gradientTransform="matrix(1.8 0 0 .55 -104.98 -287.17)"/><linearGradient xlink:href="#a" id="d"><stop offset="0" stop-color="#ff7a4f"/><stop offset=".5" stop-color="#fbd27e"/><stop offset="1" stop-color="#ff7a4f"/></linearGradient><linearGradient xlink:href="#d" id="o" x1="-125.14" x2="-125.14" y1="-297.54" y2="-297.54"/><linearGradient xlink:href="#d" id="p" x1="33.72" x2="33.72" y1="2.06" y2="45.94"/><linearGradient xlink:href="#b" id="i" x1="44.04" x2="84.81" y1="8.01" y2="8.01"/><linearGradient xlink:href="#c" id="j" x1="59.92" x2="59.92" y1=".45" y2="15.61"/><linearGradient xlink:href="#d" id="n" x1="-125.14" x2="-125.14" y1="-266.46" y2="-266.46"/><linearGradient id="a" gradientUnits="userSpaceOnUse"/><path id="e" d="M0 2.53v10.94a2.52 2.52 0 0 0 2.52 2.52H31.2a2.52 2.52 0 0 0 2.52-2.52V2.53A2.52 2.52 0 0 0 31.2.01H2.52A2.52 2.52 0 0 0 0 2.53z"/><path id="h" d="M85.8 12.27A23.99 23.99 0 0 0 64.84 0q-.98 0-1.95.08a2.55 2.55 0 0 0-.57-.07H36.24a2.52 2.52 0 0 0-2.53 2.53v10.94A2.52 2.52 0 0 0 36.25 16h5.98v.01H83.6a2.51 2.51 0 0 0 2.2-3.74z"/><path id="k" d="M85.8 35.73A23.99 23.99 0 0 1 64.84 48q-.98 0-1.95-.08a2.55 2.55 0 0 1-.57.07H36.24a2.52 2.52 0 0 1-2.52-2.52V34.53A2.52 2.52 0 0 1 36.24 32h47.37a2.51 2.51 0 0 1 2.18 3.73z"/></defs><use xlink:href="#e" fill="url(#f)"/><use xlink:href="#e" fill="url(#g)"/><use xlink:href="#h" fill="url(#i)"/><use xlink:href="#h" fill="url(#j)"/><use xlink:href="#k" fill="url(#l)"/><use xlink:href="#k" fill="url(#m)"/><path fill="url(#n)" d="M64.86 0z"/><path fill="url(#o)" d="M64.86 48z"/><path fill="url(#p)" d="M64.85 0h-39.6v.01H2.6A24.02 24.02 0 0 1 25.25 24v21.5a2.5 2.5 0 0 0 2.5 2.5h37.1a24 24 0 0 1 0-48z"/></svg>