<?xml version="1.0" standalone="no"?>
<!DOCTYPE svg PUBLIC "-//W3C//DTD SVG 20010904//EN"
 "http://www.w3.org/TR/2001/REC-SVG-20010904/DTD/svg10.dtd">
<svg version="1.0" xmlns="http://www.w3.org/2000/svg"
 width="40.000000pt" height="40.000000pt" viewBox="0 0 40.000000 40.000000"
 preserveAspectRatio="xMidYMid meet">

<g transform="translate(0.000000,40.000000) scale(0.100000,-0.100000)"
fill="#000000" stroke="none">
<path d="M35 365 c-24 -23 -25 -29 -25 -168 0 -193 -6 -187 192 -187 146 0
147 0 167 26 19 24 21 40 21 166 0 134 -1 140 -25 163 -23 24 -29 25 -165 25
-136 0 -142 -1 -165 -25z m120 -62 c-4 -21 -13 -45 -21 -54 -16 -18 -19 -72
-4 -98 16 -31 65 -46 100 -31 17 7 35 21 40 31 15 26 12 80 -4 98 -18 20 -32
91 -18 91 17 0 72 -50 87 -81 35 -66 2 -154 -70 -189 -50 -24 -86 -25 -131 -4
-96 46 -110 171 -28 244 47 40 58 39 49 -7z m85 -35 c7 -40 15 -79 17 -85 4
-10 -11 -13 -57 -13 -46 0 -61 3 -57 13 2 6 10 45 17 85 13 68 15 72 40 72 25
0 27 -4 40 -72z"/>
<path d="M186 243 c7 -39 11 -49 18 -42 2 2 6 21 10 42 6 33 5 37 -14 37 -19
0 -20 -4 -14 -37z"/>
</g>
</svg>
