<svg xmlns="http://www.w3.org/2000/svg" viewBox="0 0 317.9 310.6"><path fill="#666" d="M272.7 43.8a151 151 0 0 0-69.5-39.2l14.8 76a102 102 0 0 1 7.9 6.8 93 93 0 0 1 26.5 67.6 97 97 0 0 1-11 46.4c0 .4-.4.4-.4.8a94 94 0 0 1-15.3 21 94.7 94.7 0 0 1-133.2 0 97 97 0 0 1-15.2-21c-.4 0-.4-.8-.8-1.2A100 100 0 0 1 66 155.2a93 93 0 0 1 26.5-67.6q3.7-3.7 7.3-6.8L114.7 5A150 150 0 0 0 46.3 45 150 150 0 0 0 0 156.3a150 150 0 0 0 45 110 154 154 0 0 0 112.7 44.3c42.5.8 83.6-15.6 113.8-45.5 30.3-28.9 47-69 46.3-110.8 1-41.3-15.4-81.2-45-110"/><path fill="#036" d="M158.9 60a22.9 22.9 0 0 1 10 43.5l9.3 47.1H139l9.3-47.1a23 23 0 0 1-13-20c.3-12.7 10.8-22.9 23.5-22.9m60.4 123.6L183.4 0h-49.1L98.5 183.8z"/></svg>
