<svg xmlns="http://www.w3.org/2000/svg" xmlns:xlink="http://www.w3.org/1999/xlink" version="1.1" id="svg5326" width="62.407" height="62.409"><defs id="defs5298"><linearGradient id="a" x1="-19.48" y1="41.55" x2="31.46" y2="-9.85" gradientUnits="userSpaceOnUse"><stop offset="0" stop-color="#f77e08" id="stop5288"/><stop offset=".29" stop-color="#f87807" id="stop5290"/><stop offset=".69" stop-color="#fc6603" id="stop5292"/><stop offset=".99" stop-color="#ff5400" id="stop5294"/></linearGradient><linearGradient id="b" x1="13.73" y1="74.46" x2="64.66" y2="23.06" xlink:href="#a"/><linearGradient xlink:href="#a" id="linearGradient5336" gradientUnits="userSpaceOnUse" x1="-19.48" y1="41.55" x2="31.46" y2="-9.85"/><style id="style5286">.c{fill:#58595b}</style></defs><g id="g5334" transform="translate(-.02 .027)"><path id="path5302" transform="translate(-.61 -4.81)" d="M14.63 18.78a8.2 8.2 0 1 0-11.6 0 8.21 8.21 0 0 0 11.6 0z" style="fill:url(#linearGradient5336)"/><path id="path5304" transform="translate(-.61 -4.81)" d="M58.74 51.81a7 7 0 0 0-.87-.42c-7.39-3.65-12.91-9-13.13-15v-.38a10.41 10.41 0 0 1 .21-2.08c1.09-5.31 6.25-10 12.93-13.31a7.85 7.85 0 0 0 .88-.42A8.2 8.2 0 1 0 49 7.24a8.14 8.14 0 0 0-1.8 2.64 2.85 2.85 0 0 1-.12.31 21.41 21.41 0 0 1-15.53 13l-.62.11A15.13 15.13 0 0 0 19 35c-.07.36-.14.72-.18 1.09a21.46 21.46 0 0 1-12.61 15.1l-.21.08A8.2 8.2 0 1 0 16 63c.14-.32.29-.63.45-.94 3.72-7.53 9.23-13.11 15.37-13.11 6.14 0 11.66 5.59 15.39 13.12a6.57 6.57 0 0 0 .44.93A8.59 8.59 0 0 0 49 64.81a8.202 8.202 0 0 0 11.56-11.64 8.39 8.39 0 0 0-1.82-1.36ZM31.79 40.32A4.32 4.32 0 1 1 36.11 36a4.32 4.32 0 0 1-4.32 4.32Z" style="fill:url(#b)"/></g></svg>