<svg xmlns="http://www.w3.org/2000/svg" viewBox="0 0 100 85.8"><path d="M90.7,67H81.3a.8.8,0,0,1-.8-.7h0L89.3,8.1a.9.9,0,0,1,.8-.8h9.3a.9.9,0,0,1,.8.8h0L91.4,66.3A.7.7,0,0,1,90.7,67Z" transform="translate(-0.2 -7.3)" style="fill:#00c8c8"/><path d="M70.5,67H61.2a.8.8,0,0,1-.8-.7h0l6.5-40.9a.8.8,0,0,1,.8-.7H77a.8.8,0,0,1,.8.7h0L71.3,66.3A.7.7,0,0,1,70.5,67Z" transform="translate(-0.2 -7.3)" style="fill:#00b4b4"/><path d="M50.5,67H41.1a.7.7,0,0,1-.7-.7h0l4-22.1a.8.8,0,0,1,.7-.8h9.4a.8.8,0,0,1,.8.8h0l-4,22.1a.8.8,0,0,1-.8.7Z" transform="translate(-0.2 -7.3)" style="fill:#00a0a0"/><path d="M23.1,20.3a.8.8,0,0,0-.8-.8H1a.8.8,0,0,0-.8.8l2.2,8.4a.7.7,0,0,0,.7.7H15.8l6.4,36.9a.7.7,0,0,0,.7.7h7.3a.7.7,0,0,0,.8-.7h0Z" transform="translate(-0.2 -7.3)" style="fill:#00a0a0"/><circle cx="28.5" cy="78.9" r="6.9" style="fill:#00a0a0"/><circle cx="84.1" cy="78.9" r="6.9" style="fill:#00a0a0"/></svg>