<svg xmlns="http://www.w3.org/2000/svg" width="74.661" height="74.661"><path transform="translate(0 11.131)" style="fill:#fa476f;fill-rule:evenodd" d="M26.811 26.908 37.33 16.39 25.394 4.454c-5.81-5.81-15.228-5.81-21.037 0-5.81 5.81-5.81 15.228 0 21.037L26.81 47.945c-5.809-5.809-5.809-15.227 0-21.037"/><path transform="translate(0 11.131)" style="fill:#45d0eb;fill-rule:evenodd" d="M70.303 4.454c-5.81-5.81-15.228-5.81-21.037 0L37.33 16.39l10.519 10.518c5.809 5.81 5.809 15.228 0 21.037l22.454-22.454c5.81-5.81 5.81-15.228 0-21.037"/><path transform="translate(0 11.131)" style="fill:#664277;fill-rule:evenodd" d="M47.849 26.908 37.33 16.39 26.811 26.908c-5.809 5.81-5.809 15.228 0 21.037 5.81 5.81 15.228 5.81 21.038 0 5.809-5.809 5.809-15.227 0-21.037"/></svg>