<svg xmlns="http://www.w3.org/2000/svg" viewBox="0 0 100 85.8"><path d="M90.7 67h-9.4a.8.8 0 0 1-.8-.7l8.8-58.2a.9.9 0 0 1 .8-.8h9.3a.9.9 0 0 1 .8.8l-8.8 58.2a.7.7 0 0 1-.7.7Z" transform="translate(-.2 -7.3)" style="fill:#00c8c8"/><path d="M70.5 67h-9.3a.8.8 0 0 1-.8-.7l6.5-40.9a.8.8 0 0 1 .8-.7H77a.8.8 0 0 1 .8.7l-6.5 40.9a.7.7 0 0 1-.8.7Z" transform="translate(-.2 -7.3)" style="fill:#00b4b4"/><path d="M50.5 67h-9.4a.7.7 0 0 1-.7-.7l4-22.1a.8.8 0 0 1 .7-.8h9.4a.8.8 0 0 1 .8.8l-4 22.1a.8.8 0 0 1-.8.7ZM23.1 20.3a.8.8 0 0 0-.8-.8H1a.8.8 0 0 0-.8.8l2.2 8.4a.7.7 0 0 0 .7.7h12.7l6.4 36.9a.7.7 0 0 0 .7.7h7.3a.7.7 0 0 0 .8-.7Z" transform="translate(-.2 -7.3)" style="fill:#00a0a0"/><circle cx="28.5" cy="78.9" r="6.9" style="fill:#00a0a0"/><circle cx="84.1" cy="78.9" r="6.9" style="fill:#00a0a0"/></svg>