<svg xmlns="http://www.w3.org/2000/svg" viewBox="0 0 36 36"><linearGradient id="a" x1="2.33" x2="35.54" y1="7.63" y2="7.63" gradientTransform="matrix(1 0 0 -1 -2.3 39)" gradientUnits="userSpaceOnUse"><stop stop-color="#14b1e7" offset="0"/><stop stop-color="#13abe2" offset=".16"/><stop stop-color="#0f9bd3" offset=".37"/><stop stop-color="#0980bc" offset=".61"/><stop stop-color="#015a9b" offset=".86"/><stop stop-color="#005495" offset=".9"/></linearGradient><linearGradient id="b" x1="6.955" x2="6.955" y1="3" y2="36.2" gradientTransform="matrix(1 0 0 -1 -2.3 39)" gradientUnits="userSpaceOnUse"><stop stop-color="#0082bd" offset="0"/><stop stop-color="#0070ad" offset=".39"/><stop stop-color="#005495" offset=".85"/></linearGradient><linearGradient id="c" x1="20.31" x2="38.325" y1="20.99" y2="39.005" gradientTransform="matrix(1 0 0 -1 -2.3 39)" gradientUnits="userSpaceOnUse"><stop stop-color="#9ddcf9" offset=".1"/><stop stop-color="#00c3ff" offset=".9"/></linearGradient><path d="M33 26.7c-1.4.8-3 1.2-4.6 1.2H8.1L0 36h21c2 0 4-.8 5.4-2.3l6.8-6.8z" fill="url(#a)"/><path d="M9.3 3c-.8 1.4-1.2 3-1.2 4.6v20.3L0 36V15c0-2 .8-4 2.3-5.4l6.8-6.8z" fill="url(#b)"/><path d="M33 26.7c-1.4.8-3 1.2-4.6 1.2H8.1L0 36h21c2 0 4-.8 5.4-2.3l6.8-6.8z" fill="url(#a)"/><path d="M17.7 0c-4.2 0-7.6 3.4-7.6 7.6v2.6h15.8V26h2.5c4.2 0 7.6-3.4 7.6-7.6V0z" fill="url(#c)"/></svg>