<svg xmlns="http://www.w3.org/2000/svg" viewBox="0 0 401 566.9"><path fill="#001828" d="M374.5 121.1c-.6.1-120.6 16-120.6 16s-45.8-110.5-50.3-115c-4.6-4.6-7.2.8-7.2.8l-37.5 113.4s-131 7.2-139 7.2c-7.9.2-4.7 5.4-3.2 7.2.9.7 82.8 97.8 87.1 100.6 3.4 2.9 3.2 5.6 3.2 5.6s15.6 269 16 282.7c1.1 17.3 11.2 2.4 11.2 2.4L206 441.1l18.5-26.9c1.6-2.4 3.2-2.4 3.2-2.4l134.2 14.4s8.3 1.8 4.8-5.6c-20-43.1-73.7-161.3-73.7-161.3l85.5-129.4c6.2-10 3.7-9.8-4-8.8zM268.2 222.4h-37.3v148.7h-44.3V222.4h-37.3v-40.6h119v40.6z"/></svg>