<svg xmlns="http://www.w3.org/2000/svg" width="1000" height="1000"><path d="M0 492V292h1000v416H0z" fill="#3a4046"/><g fill="#fff"><path d="M580.237 612.639c28.358-5.734 50.433-19.876 67.992-43.558 6.664-8.988 7.467-12.313 3.787-15.676-2.267-2.07-47.335-27.834-51.176-29.255-3.405-1.259-6.849.762-11.074 6.5-7.448 10.113-16.445 15.66-28.413 17.517-22.782 3.534-41.431-10.607-46.502-35.263-2.792-13.574-1.375-26.295 4.257-38.204 8.98-18.99 29.897-27.883 49.399-21.003 6.24 2.202 16.381 9.99 20.802 15.975 3.406 4.61 4.507 5.44 7.209 5.44 2.296 0 10.194-4.085 28.218-14.596 13.766-8.028 25.667-15.206 26.446-15.952 4.072-3.899-1.533-14.124-15.372-28.042-21.8-21.923-50.214-32.375-84.544-31.098-20.482.761-34.145 4.197-51.168 12.866-44.358 22.59-68.05 69.994-60.388 120.826 7.506 49.79 45.077 86.922 96.076 94.952 8.183 1.289 35.326.416 44.451-1.43zM237.866 609.347c3.285-2.193 3.4-4.868 3.4-79.098 0-65.934.17-74.165 1.571-75.565 1.355-1.355 5.49-1.572 30-1.572 27.095 0 28.522-.094 30.429-2 1.902-1.903 2-3.333 2-29.428 0-23.602-.22-27.648-1.572-29-1.407-1.408-11.848-1.572-99.943-1.572h-98.372l-1.557 2.223c-1.313 1.875-1.556 6.34-1.556 28.545v26.323l2.454 2.455 2.455 2.454h28.216c24.853 0 28.435.198 30.046 1.655 1.74 1.576 1.829 5.267 1.829 76.672 0 68.4.145 75.177 1.655 76.845 1.54 1.702 3.946 1.827 34.75 1.813 18.202-.008 33.59-.346 34.195-.75zM405.694 608.54c1.409-1.408 1.572-12.54 1.572-107.565 0-71.152-.34-106.63-1.036-107.928-.992-1.854-2.442-1.935-34.928-1.935-29.48 0-34.098.205-35.465 1.572-1.409 1.409-1.571 12.55-1.571 107.67 0 97.325.136 106.252 1.655 107.93 1.54 1.701 3.963 1.828 34.928 1.828 28.915 0 33.48-.206 34.845-1.571zM749.266 608.112c1.866-1.867 2-3.333 2-22.032 0-23.18-.042-23.024 8.984-33.968 6.66-8.076 8.112-9.286 10.18-8.485.734.285 10.093 14.723 20.796 32.085 13.796 22.379 20.258 31.979 22.2 32.983 2.23 1.153 10.162 1.417 42.59 1.417 42.103 0 43.295-.128 41.06-4.403-.603-1.153-17.232-27.791-36.953-59.196-26.543-42.266-35.857-57.88-35.857-60.107 0-2.458 6.586-11.215 36.008-47.874 19.805-24.676 35.855-45.328 35.667-45.893-.515-1.548-78.304-1.916-82.003-.388-1.96.81-11.574 12.701-31.338 38.765-15.68 20.678-29.145 37.742-29.922 37.92-1.197.274-1.412-5.303-1.412-36.528 0-31.734-.217-37.16-1.557-39.073-1.556-2.222-1.569-2.223-35.171-2.223-29.876 0-33.818.184-35.444 1.655-1.75 1.584-1.828 6.222-1.828 107.278 0 93.978.171 105.867 1.556 107.845 1.556 2.221 1.575 2.222 35 2.222 32.11 0 33.523-.08 35.444-2z"/></g></svg>