<svg xmlns="http://www.w3.org/2000/svg" viewBox="0 0 209.8 220.6"><path fill="#0063bc" d="M129.2 80.5h58.9a2.6 2.6 0 0 1 2.5 1.3 110.5 110.5 0 0 1 16.5 39.4 126 126 0 0 1 2.7 24.5c.3 24.5-5.1 47.4-18.6 68-1.4 2.1-3 4-4.4 6a2 2 0 0 1-1.9 1h-35.7c-1 0-1.3-.3-1.2-1.4.6-6.2-4.4-10.5-10.2-11a18.1 18.1 0 0 0-16.2 6.8 10.7 10.7 0 0 0-2.3 4.3c-.2 1.1-.7 1.2-1.7 1.2H57l2.8-3.6a108 108 0 0 0 18.1-41.3 138.4 138.4 0 0 0 3-32.5c0-1.6-.5-2.1-2.2-2.1H26.9c-.7 0-1.5.3-2-.3-.2-.5-.3-1 .4-1a4.7 4.7 0 0 0 2.5.5h50.4c2 0 2 0 1.8-2a121.2 121.2 0 0 0-9.4-39.1 110.4 110.4 0 0 0-9.7-17.5c-.5-1.1 0-1.6 1-1.7a17.4 17.4 0 0 1 1.9 0h62.5c1 0 2-.2 3 .5"/><path fill="#2e8ffe" d="M129.2 80.5H63.1a7.8 7.8 0 0 1-1 0c-1.3-.2-1.3.4-.7 1.2-3 1.5-5.2 4.2-7.4 6.6A127.3 127.3 0 0 0 40.2 106a110 110 0 0 0-14.1 31.9c-.2.7-.2 1.5-1 2l-.3 1c-.8.6-1.3 0-1.8-.6A103.4 103.4 0 0 1 6.5 109 122.3 122.3 0 0 1 .7 81.2a126 126 0 0 1 12.3-70 105.4 105.4 0 0 1 5.8-10 2 2 0 0 1 2-1.2H64c.7 0 1.4-.1 1.2 1-1 6 3.4 10.3 8.7 11.5 7.4 1.7 16.5-2.5 19.3-9.6C94.2.3 95.5 0 97.9 0h50.3c.3.6-.2 1-.4 1.3A113.5 113.5 0 0 0 131.5 42a147.3 147.3 0 0 0-2.5 33.4l.2 5"/><path fill="#002a68" d="M25.2 139.9A106 106 0 0 1 38.5 108 129.4 129.4 0 0 1 59 82.7a2.8 2.8 0 0 1 2.4-1 93.4 93.4 0 0 1 10 18.3 118.3 118.3 0 0 1 8 28.6c.6 3.8.9 7.6 1.3 11.3 0 .7-.2 1-.9 1H27c-.8 0-1.7.3-1.7-1"/></svg>