<svg xmlns="http://www.w3.org/2000/svg" xml:space="preserve" width="1080" height="1080"><rect width="100%" height="100%" fill="transparent"/><g clip-path="url(#a)" transform="matrix(1.33 0 0 -1.33 572.61 570.46)"><clipPath id="a"><path stroke-linecap="round" d="M-169 320.556h841.89V-274.72H-169Z"/></clipPath><path d="M0 0c26.948 0 48.795 21.846 48.795 48.795 0 26.948-21.847 48.794-48.795 48.794s-48.795-21.846-48.795-48.794C-48.795 21.846-26.948 0 0 0" style="stroke:none;stroke-width:1;stroke-dasharray:none;stroke-linecap:butt;stroke-dashoffset:0;stroke-linejoin:miter;stroke-miterlimit:4;fill:#dfa726;fill-rule:nonzero;opacity:1" transform="translate(0 -48.79)" vector-effect="non-scaling-stroke"/></g><g clip-path="url(#b)" transform="matrix(1.33 0 0 -1.33 475.17 570.46)"><clipPath id="b"><path stroke-linecap="round" d="M-95.93 320.556h841.89V-274.72H-95.93Z"/></clipPath><path d="M0 0c0 26.871 21.721 48.667 48.563 48.792v-97.584C21.721-48.667 0-26.871 0 0" style="stroke:none;stroke-width:1;stroke-dasharray:none;stroke-linecap:butt;stroke-dashoffset:0;stroke-linejoin:miter;stroke-miterlimit:4;fill:#dfa726;fill-rule:nonzero;opacity:1" transform="translate(-24.28)" vector-effect="non-scaling-stroke"/></g><g clip-path="url(#c)" transform="matrix(1.33 0 0 -1.33 475.18 473.03)"><clipPath id="c"><path stroke-linecap="round" d="M-95.93 247.476h841.89V-347.8H-95.93Z"/></clipPath><path d="M0 0v48.563C-26.765 48.438-48.437 26.766-48.56 0Z" style="stroke:none;stroke-width:1;stroke-dasharray:none;stroke-linecap:butt;stroke-dashoffset:0;stroke-linejoin:miter;stroke-miterlimit:4;fill:#dfa726;fill-rule:nonzero;opacity:1" transform="translate(24.28 -24.28)" vector-effect="non-scaling-stroke"/></g><g clip-path="url(#d)" transform="matrix(1.33 0 0 -1.33 572.61 473.03)"><clipPath id="d"><path stroke-linecap="round" d="M-169.01 247.476h841.89V-347.8h-841.89Z"/></clipPath><path d="M0 0c26.871 0 48.667-21.721 48.792-48.563h-97.584C-48.667-21.721-26.871 0 0 0" style="stroke:none;stroke-width:1;stroke-dasharray:none;stroke-linecap:butt;stroke-dashoffset:0;stroke-linejoin:miter;stroke-miterlimit:4;fill:#dfa726;fill-rule:nonzero;opacity:1" transform="translate(0 24.28)" vector-effect="non-scaling-stroke"/></g></svg>