<svg xmlns="http://www.w3.org/2000/svg" viewBox="0 0 25.372 28.737"><g fill="#25f4ee"><path d="M9.875 11.316v-1.119a8.836 8.836 0 0 0-1.175-.083c-4.797-.006-8.7 3.9-8.7 8.707a8.706 8.706 0 0 0 3.718 7.135 8.675 8.675 0 0 1-2.338-5.933c0-4.737 3.794-8.598 8.495-8.707z"/><path d="M10.086 24c2.14 0 3.89-1.707 3.967-3.83l.006-18.967h3.462A6.78 6.78 0 0 1 17.413 0h-4.727l-.007 18.968a3.978 3.978 0 0 1-3.966 3.83 3.93 3.93 0 0 1-1.846-.461A3.949 3.949 0 0 0 10.087 24zM23.992 7.64V6.585a6.506 6.506 0 0 1-3.583-1.068 6.571 6.571 0 0 0 3.583 2.123z"/></g><g fill="#fe2c55"><path d="M20.409 5.517a6.54 6.54 0 0 1-1.616-4.315h-1.265a6.557 6.557 0 0 0 2.881 4.315zM8.706 14.838a3.98 3.98 0 0 0-3.973 3.977c0 1.527.869 2.857 2.134 3.522a3.936 3.936 0 0 1-.754-2.32 3.98 3.98 0 0 1 3.973-3.977c.41 0 .805.07 1.176.185v-4.833a8.837 8.837 0 0 0-1.176-.083c-.07 0-.134.006-.204.006v3.708a3.999 3.999 0 0 0-1.175-.185z"/><path d="M23.992 7.64v3.676c-2.453 0-4.727-.787-6.58-2.116v9.621c0 4.801-3.902 8.714-8.706 8.714a8.669 8.669 0 0 1-4.989-1.58 8.69 8.69 0 0 0 6.369 2.782c4.797 0 8.706-3.906 8.706-8.714v-9.622a11.25 11.25 0 0 0 6.58 2.117V7.787c-.48 0-.94-.051-1.38-.147z"/></g><path d="M17.413 18.821V9.199a11.251 11.251 0 0 0 6.58 2.117V7.639a6.571 6.571 0 0 1-3.584-2.122 6.61 6.61 0 0 1-2.887-4.315H14.06l-.007 18.968A3.978 3.978 0 0 1 10.086 24a3.99 3.99 0 0 1-3.225-1.657 3.991 3.991 0 0 1-2.134-3.522A3.98 3.98 0 0 1 8.7 14.844c.409 0 .805.07 1.176.186v-3.708c-4.702.102-8.496 3.963-8.496 8.7 0 2.29.888 4.374 2.338 5.934a8.669 8.669 0 0 0 4.989 1.579c4.797 0 8.706-3.913 8.706-8.714z"/></svg>