<svg xmlns="http://www.w3.org/2000/svg" width="419.4" height="419.4"><path d="M167.8 309.95H20.2c-5.6 0-10.6 2.3-14.3 5.9-3.6 3.7-5.9 8.7-5.9 14.3v34.6c0 5.6 2.2 10.6 5.9 14.2 3.6 3.7 8.7 5.9 14.3 5.9h147.6zm245.8 6c-3.6-3.7-8.7-6-14.3-6H251.7v74.9h147.6c5.6 0 10.7-2.3 14.3-6 3.6-3.6 5.8-8.7 5.8-14.2v-34.6c0-5.5-2.2-10.5-5.8-14.1m0-137.7c-3.6-3.7-8.7-6-14.3-6H251.7v74.9h147.6c5.6 0 10.7-2.3 14.3-6 3.6-3.6 5.8-8.7 5.8-14.2v-34.7c0-5.4-2.2-10.4-5.8-14m-245.8-6H20.2c-5.6 0-10.6 2.2-14.3 5.9-3.6 3.6-5.9 8.7-5.9 14.2v34.7c0 5.5 2.2 10.5 5.9 14.2 3.6 3.7 8.7 6 14.3 6h147.6zm231.5-62.8H20.2c-5.6 0-10.6-2.3-14.3-5.9-3.7-3.7-5.9-8.7-5.9-14.3v-34.6c0-5.5 2.3-10.6 5.9-14.2 3.6-3.7 8.7-5.9 14.3-5.9h379.1c5.6 0 10.7 2.3 14.3 6 3.6 3.6 5.8 8.7 5.8 14.2v34.6c0 5.5-2.2 10.5-5.8 14.2-3.6 3.6-8.7 5.9-14.3 5.9" fill="#e40d2c"/></svg>