<svg xmlns="http://www.w3.org/2000/svg" viewBox="0 0 90 90"><path fill="#ED1C24" d="M57.77 43.44c-.25-2.12-1.1-8.74-6.49-13.49-1.53-1.35-5.3-4.66-9.22-3.81-4.35.93-6.23 6.36-7.6 10.26-1.96 5.6-5.63 15.94.51 22.64 3.85 4.16 10.93 6.36 16.31 3.82 8.29-4.07 6.75-17.3 6.5-19.42zm32.2.68c-.43-6.03-3.85-13.91-10.68-16.8-6.66-2.8-13.24.68-16.31 5.35-6.15 9.5-.17 27.81 8.45 30.87 8.2 2.8 19.3-7.47 18.53-19.42zm-60.12-7.55c-.08-.68-.68-5.77-3.24-8.06-4.79-4.24-18.45-1.19-23.91 8.06-3.93 6.61-4.01 17.04 2.73 22.64 4.44 3.65 11.53 4.92 16.3 2.12 3.6-2.12 4.96-7.55 7.6-18.32.35-1.44.86-3.64.52-6.44z"/><path fill="#FFF" d="M21.57 37.33c-.68 0-1.2.34-1.45 1.1l-5.38 11.62-5.38-11.7a1.66 1.66 0 00-1.45-1.02c-.94 0-1.63.68-1.63 1.61 0 .26.09.51.18.85l6.31 13.48c.43.85 1.11 1.36 1.97 1.36.85 0 1.53-.5 1.88-1.36l6.31-13.48c.18-.34.18-.6.18-.93.08-.85-.6-1.53-1.54-1.53zm25.53-.08h-7.26c-1.02 0-1.7.67-1.7 1.7V52.6c0 1.1.6 1.7 1.62 1.7s1.62-.69 1.62-1.7v-4.41h5.72c3.76 0 5.8-1.95 5.8-5.52 0-3.47-2.04-5.42-5.8-5.42zm2.56 5.5c0 1.7-.94 2.55-2.82 2.55h-5.46v-5h5.38c1.88-.09 2.9.85 2.9 2.46zm25.36 1.53c-2.82 0-4.18-.33-4.18-1.7 0-1.43 1.53-2.45 3.84-2.45 1.8 0 3.16.5 4.44 1.44a2 2 0 001.2.34c.76 0 1.36-.6 1.36-1.44 0-.51-.17-.93-.51-1.27-1.54-1.36-3.67-2.04-6.24-2.04-4.44 0-7.34 2.2-7.34 5.51 0 3.31 1.97 4.67 7.17 4.75 2.82.09 4.36.34 4.36 1.87 0 1.52-1.45 2.46-3.93 2.46-2.22 0-4.01-.6-5.3-1.87-.25-.25-.6-.34-1.02-.34-.94 0-1.53.6-1.53 1.53 0 .42.17.85.42 1.19 1.37 1.6 3.93 2.54 7.17 2.54 4.79 0 7.43-2.03 7.43-5.51 0-3.56-2.05-4.92-7.34-5z"/></svg>