<svg xmlns="http://www.w3.org/2000/svg" viewBox="0 0 512 512"><path fill="#1f2b4a" d="M0 0h512v512H0z"/><path fill="#fff" d="M175.91 116.15c68.77 0 127.29-1.71 175.13-4.69 5.56 4.69 8.12 13.23 8.12 26 0 6.84-1.28 10.25-3.41 10.25-30.76-.43-57.25-.85-79.89-.85q-33.31 130.66-49.12 240.41c-1.28 7.68-1.28 9-3.42 11.95a16.21 16.21 0 01-6.41 1.28c-13.24 0-25.2-3.84-36.73-11.1 6.41-35.44 23.92-116.57 51.68-243h-66.63c-5.13-3-12.39-18.36-12.39-25.62 0-3 1.28-4.7 3.42-4.7z"/><path fill="#c40866" d="M330.93 396.16c-7.69 8.11-15.81 12.38-24.35 12.37-11.54 0-18.8-7.68-18.8-20.92 0-9 3.42-17.94 9.84-26.48s14.1-12.8 23.06-12.8c13.68 0 21.79 10.25 21.78 22.63 0 8.54-3.84 17.04-11.53 25.2z"/></svg>