<svg xmlns="http://www.w3.org/2000/svg" viewBox="0 0 512 512"><linearGradient id="a" x1="112.73" x2="409.08" y1="416.46" y2="120.11" gradientUnits="userSpaceOnUse"><stop offset="0" stop-color="#e5007e"/><stop offset=".15" stop-color="#e5007e"/><stop offset=".5" stop-color="#995ac4"/><stop offset=".55" stop-color="#8a5dc4"/><stop offset=".65" stop-color="#6265c6"/><stop offset=".78" stop-color="#2373c8"/><stop offset=".85" stop-color="#007ac9"/><stop offset="1" stop-color="#007ac9"/></linearGradient><path fill="url(#a)" d="M250.1 46.2a5.65 5.65 0 0 0 1 11.1c102.2 3.8 200.2 97.6 185.6 210.6-7 54.2-31 97-86.5 125.8-19.1 9.9-57.7 19.6-96.5 11.1-20.3-4.5-40.7-13.9-58.4-30.9-24.2-23.4-38.4-54.3-39.6-87.8-.7-19.8 3.9-39.6 14.2-56.6 19.1-31.7 51.4-50.2 87-51.1 47.2-1.1 86.6 36.2 87.8 83.4 1.1 39.3-30.1 72.2-69.5 73.2a60.3 60.3 0 0 1-61.9-58.7c-.2-8.8 1.7-17.3 5.7-24.9v-.1c1.1-2.4.4-5.3-1.8-6.9a5.64 5.64 0 0 0-8 1.2c-.1.1-.1.2-.2.3-8 11-12.1 24.2-11.7 38 .6 22.8 10.1 44.2 26.7 59.9a84.84 84.84 0 0 0 61.2 23.5c35.8-.9 67.6-18.2 88.1-44.4 16-20.4 25.3-46.3 24.5-74.2-1.1-41.1-18.1-79.2-47.9-107.7-67.1-63.8-159.7-36-159.7-36-27.4 7.3-52.8 20.1-74.7 37.6-51.3 44.3-69.5 110.7-58 171.9 10.8 57.8 48.1 110.9 108.8 136.1 0 0 66.2 27.6 135.3 8.8 47.2-12.9 84-39.3 110.1-72 35.2-44.4 50.7-100.6 45.1-151.3-8.7-80-54.4-136-111-165.6-29.7-15.5-62.3-23.7-94.1-24.4h-.1c-.5-.1-1-.1-1.5.1"/></svg>