<svg xmlns="http://www.w3.org/2000/svg" width="16" height="16"><path class="t" d="M4.66 4.63c-.5 0-.86-.41-.86-.91s.36-.91.86-.91.86.41.86.91-.36.91-.86.91zM10.23 10.82h-.88c-.17 0-.31-.14-.31-.31V6.82c0-.28-.12-.49-.48-.49-.5 0-.86.48-.86 1.15v3.02c0 .17-.14.31-.31.31h-.88c-.17 0-.31-.14-.31-.31V5.46c0-.17.14-.31.31-.31h.67c.19 0 .29.12.32.28l.08.37c.44-.48.93-.73 1.53-.73.87 0 1.43.58 1.43 1.46v3.98c.01.17-.13.31-.31.31zM13.52 13.19c-1.24 0-2.43-.41-2.47-1.76 0-.17.14-.34.31-.33l.83.03c.19.01.24.12.29.29.12.47.59.59 1.07.59.75 0 1.1-.3 1.1-.68 0-.4-.15-.51-.72-.51h-1.21c-.61 0-1.38-.19-1.38-1.06 0-.37.2-.68.46-.92-.48-.36-.77-.93-.77-1.65 0-1.35.88-2.11 2.24-2.11.25 0 .48.05.72.05h1.38c.27 0 .36.12.36.33v.37c0 .26-.06.3-.22.34l-.3.07c.17.29.32.58.32.96 0 1.29-.85 2.12-2.25 2.12-.19 0-.37-.02-.54-.06-.04.08-.07.12-.07.22 0 .2.19.22.37.22h1.09c1.14 0 1.87.51 1.87 1.56 0 1.48-1.41 1.93-2.48 1.93zm-.22-6.98c-.44 0-.78.13-.78.97 0 .89.35 1.02.78 1.02.39 0 .79-.17.79-1.02-.01-.85-.37-.97-.79-.97z" fill="#0ae"/><path class="t" d="M5.12 5.15H2.41V3.49c0-.18-.14-.31-.31-.31h-.88c-.18 0-.32.14-.32.31v1.65H.31c-.17.01-.31.15-.31.32v.51c0 .17.14.31.31.31H.9v3.17c0 .89.38 1.44 1.35 1.44.41 0 .85-.07 1.12-.16.15-.05.22-.16.2-.31l-.14-.73c-.03-.19-.15-.26-.33-.21-.09.02-.24.03-.34.03-.21 0-.35-.14-.35-.45V6.29h1.52v4.22c0 .17.14.31.31.31h.88c.17 0 .31-.14.31-.31V5.46c.01-.17-.13-.31-.31-.31z" fill="#0ae"/></svg>