<svg xmlns="http://www.w3.org/2000/svg" class="mr-2" viewBox="0 0 30.96 31"><path fill="#1c3068" d="m9.73 6.15 2.88-2.88A10 10 0 0 1 24.05.86a11.54 11.54 0 0 1 6.05 6.06 10 10 0 0 1-2.4 11.44l-2.88 2.89.07-6.15a5.88 5.88 0 0 0 1.28-6.5 7.48 7.48 0 0 0-3.8-3.8 5.86 5.86 0 0 0-6.49 1.28zm-6.5 6.5 2.53-2.54a3.76 3.76 0 0 0 1.08 2.4l1.31 1.3-1.9 1.9a5.91 5.91 0 0 0-1.5 6.7 7.48 7.48 0 0 0 3.81 3.8 5.91 5.91 0 0 0 6.71-1.5l1.91-1.9 1.28 1.3a3.53 3.53 0 0 0 1 .7 3.92 3.92 0 0 0 1.16.36h.24l-2.55 2.55a10 10 0 0 1-11.44 2.44 11.54 11.54 0 0 1-6-6.06 10 10 0 0 1 2.35-11.44z" class="a"/><path fill="#91b33e" d="m16.46 18.72-3.84 3.9c-2.5 2.54-6.7-1.9-4.27-4.35l3.83-3.9-3.5-3.56a1.07 1.07 0 0 1 0-1.5A1 1 0 0 1 9.35 9l11.35-.12a1 1 0 0 1 1.17 1.2l-.13 11.59a1 1 0 0 1-1.17.9 1.09 1.09 0 0 1-.6-.3z" class="b"/></svg>