<?xml version="1.0" encoding="UTF-8"?>
<svg width="147.75" height="48.645" version="1.1" viewBox="0 0 147.75 48.645" xmlns="http://www.w3.org/2000/svg">
 <path d="m94.783 39.311c-7.4058 0-7.9624-5.7115-6.9995-9.856l1.3692-6.0657c1.6744-7.0271 5.0231-10.313 11.972-10.313h14.203c0.50599 0 0.86325 0.40479 0.70992 0.91078l-1.4198 5.8112c-0.1012 0.50599-0.60872 0.91078-1.1668 0.91078h-11.92c-2.5376 0-4.6152 0.25299-5.2761 2.6296l-1.1653 5.4079c-0.35572 1.567-0.30666 2.9317 1.5716 2.9317h14.557c0.50752 0 0.86325 0.40479 0.71145 0.91078l-1.2174 5.7621c-0.10273 0.50599-0.60872 0.90924-1.1668 0.90924l-14.761 0.0506zm-43.319 0h9.8913c6.9489 0 9.5877-2.8305 11.26-9.856l1.3708-6.0657c0.96291-4.146 0.55812-10.313-6.8477-10.313h-9.8928c-6.9489 0-10.296 3.3364-11.97 10.313l-5.1243 22.949c-0.10273 0.50599 0.20239 0.90924 0.70991 0.90924h6.1378c0.50599 0 1.0135-0.40479 1.1162-0.90924l1.5716-7.1283c0.55812 0.0506 1.1162 0.1012 1.7756 0.1012zm1.1162-15.972c0.70991-2.3766 2.7385-2.6802 5.2745-2.6802h7.1022c1.6744 0 2.2831 1.012 1.9273 2.579l-1.1653 5.0031c-0.65932 2.7293-1.7265 3.4882-4.3637 3.4882h-8.3702c-1.8767 0-1.9779-1.3646-1.5716-2.9317l1.1653-5.4585zm71.574 0c0.70992-2.3766 2.8397-2.6802 5.3757-2.6802h7.0516c1.6728 0 2.2815 1.012 1.9273 2.579l-1.1668 5.0031c-0.65932 2.7293-1.725 3.4882-4.3622 3.4882h-8.4208c-1.8768 0-1.978-1.3646-1.5716-2.9317l1.1653-5.4585zm8.8256 15.972c6.9489 0 9.5877-2.8305 11.26-9.856l1.3692-6.0657c0.96444-4.146 0.55811-10.313-6.8477-10.313h-9.8897c-6.9504 0-10.299 3.3364-11.972 10.313l-1.3708 6.0657c-0.96291 4.1445-0.40479 9.856 7.001 9.856zm-103.23-0.90924c-0.10273 0.50599 0.20239 0.90924 0.70991 0.90924h6.1378c0.50599 0 1.0135-0.40479 1.1162-0.90924l5.4279-24.517c0.1012-0.50445-0.20393-0.90924-0.71145-0.90924h-6.1378a1.1883 1.1883 0 0 0-1.1162 0.91078l-5.4279 24.516zm44.281 0c-0.09966 0.50599 0.20393 0.90924 0.71145 0.90924h6.1378c0.50599 0 1.015-0.40479 1.1162-0.90924l5.4279-24.517c0.1012-0.50445-0.20393-0.90924-0.71145-0.90924h-6.1378a1.1883 1.1883 0 0 0-1.1147 0.91078l-5.4279 24.516zm-71.773-18.652c-0.1012 0.50599 0.20239 0.90924 0.70991 0.90924h6.2405l-1.9289 8.7965c-0.96444 4.1445 0.15333 9.856 7.507 9.856l9.2825 0.0506c0.45692 0 0.96444-0.40479 1.0656-0.85864l1.1162-4.9035c0.1012-0.45539-0.20239-0.90924-0.70991-0.90924h-8.5236c-2.0285 0-2.1313-1.518-1.725-3.2352l1.9779-8.7965h10.957c0.50599 0 1.015-0.40326 1.1162-0.90924l1.3186-5.8633c0.1012-0.50599-0.20239-0.91078-0.70991-0.91078h-25.261a1.1883 1.1883 0 0 0-1.1162 0.91078l-1.3186 5.8633zm18.413-13.597a4.5385 4.5385 0 0 0-4.5677-4.5493 4.5385 4.5385 0 0 0-4.5646 4.5493 4.5385 4.5385 0 0 0 4.5646 4.5493c2.4855 0 4.5661-2.0224 4.5661-4.5493z" fill="#dc0233" fill-rule="evenodd"/>
</svg>
