<svg xmlns="http://www.w3.org/2000/svg" width="240.98" height="240.98"><path d="M94.34 61.16c-12.82.03-27.65 2.38-39.68 6.9-5.12 1.93-10.34 4.2-13.98 8.46-6.52 7.62-7.69 17.92-8.1 27.52-.92 20.72 1.68 42.61 6.93 62.72 2.3 8.86 5.98 19.25 13.24 25.25 12.19 10.1 29.98 8.35 44.8 8.35 0 5.45 2.02 15.85-2.03 20.06-8.52 8.84-25.8 2.22-32.82 12.9-1.38 2.1-1.82 4.61-2.28 7.04 4 1.18 9.28.32 13.44.32h37.44c.96 0 2.84.34 3.51-.52 1.46-1.84-.12-8.8-.44-11-1.44-9.75-1.79-18.94-1.79-28.8h16l-.05 17.6-2.5 22.72h54.4c-.06-18.07-23.91-11.46-33.92-19.37-5.34-4.23-3.2-14.9-3.2-20.95 14.88 0 32.93 1.8 45.11-8.46 6.97-5.87 10.37-15.69 12.8-24.18 5.72-19.94 7.36-41.45 7.36-62.08 0-9.64-1.48-21.26-8.04-28.8-4.2-4.83-10-7.4-15.95-9.39a125.61 125.61 0 00-37.76-6.3c1.21-8.27 5.51-17.06 9.5-24.31 1.66-3.02 3.3-6.57 5.86-8.93 5-4.62 15.55 1.88 16.86-8.03 1.17-8.86-9.44-16.9-16.86-18.97-3.81-1.05-9.3-1.12-11.65 2.66-3.34 5.36 2.3 9.53 1.67 14.7-.49 3.92-4.08 7.8-5.93 11.2a138.62 138.62 0 00-9.37 21.13c-.74 2.17-1.9 9.56-4.5 9.86-5.75.67-12.37-.26-18.22-.26-1.64 0-4.93.85-6.32-.01-2.38-1.48-3.32-8.6-4.26-11.2a126.43 126.43 0 00-7.94-17.91c-2-3.63-5.32-7.57-6.5-11.52-1.75-5.81 6.45-12.8-.27-17.72-7.93-5.8-20.59 3.4-24.57 10.04-2.1 3.48-3.62 8.65-.54 12.06 4 4.43 9.93.16 14.23 3.18 2.78 1.95 4.4 5.56 6.04 8.44 4.44 7.78 8.46 16.77 10.28 25.6m11.2 11.29c5.73-.68 11.84-.1 17.6-.1 14.77 0 29.63.7 44.16 3.6 7.5 1.48 16.57 2.97 22.4 8.3 7.24 6.63 6.83 17.57 6.73 26.5-.12 10.13.05 21.22-4.9 30.4-8.7 16.14-32.65 19.96-49.19 22-20.1 2.47-41.39 1.78-61.12-3.15-8.49-2.13-18.05-4.96-24.96-10.55-13.05-10.58-13.1-32.97-11.57-48.3.72-7.16 2.44-14.12 8.7-18.54 4.65-3.29 10.82-4.66 16.31-5.84 11.93-2.58 23.82-2.9 35.84-4.32M88.9 100.33c-2.76.4-5.35 1.2-7.68 2.78-14.33 9.72-4.06 31.33 12.16 29 19.78-2.86 15.22-34.6-4.48-31.78m59.84 0a16.99 16.99 0 00-7.04 2.46c-14.4 9.51-5.14 31.7 11.52 29.31 20.07-2.87 15.46-34.62-4.48-31.77" fill="#020202"/></svg>