<svg xmlns="http://www.w3.org/2000/svg" viewBox="0 0 115.98 116.08"><path fill="#f17ed6" d="m112.4 76.88-36.8 35.7-42.2-42.4-29.8-29.8 35.8-36.9 35 27.8 3.7 4.5z"/><path fill="#f7582a" d="M75.7 96.38a11.28 11.28 0 0 1 .13 15.97l-.13.13a11.28 11.28 0 0 1-15.97.13l-.13-.13-19.9-19.9-19.9 19.9a11.46 11.46 0 1 1-16.2-16.2l19.9-19.9-19.9-19.9a11.47 11.47 0 0 1 16.2-16.2l19.9 19.9 19.9-19.9a11.46 11.46 0 1 1 16.2 16.2l-19.9 19.9z"/><path fill="#ffc802" d="m93.1 40.28 19.3-19.4a12.23 12.23 0 1 0-17.3-17.3l-19.3 19.4-19.4-19.4a12.23 12.23 0 1 0-17.3 17.3l19.4 19.4-19.4 19.4a12.07 12.07 0 0 0-.13 17.07l.13.13a12.2 12.2 0 0 0 17.24.06l.06-.06 19.4-19.4 19.3 19.4a12.07 12.07 0 0 0 17.07.13l.13-.13a12.38 12.38 0 0 0 0-17.3z"/></svg>