<svg xmlns="http://www.w3.org/2000/svg" fill="#02a1ae" viewBox="0 0 403.6 489.5"><path d="M245 .1c20.3-2.3 30.4 23.5 19.6 38.7L155.8 253c-3 4.1-.7 9.7 4.8 9.1l121.7.3c13.4 3.2 23 21.2 14.3 33.3-4 8.4-13.2 12.1-22.1 11.7-54-.2-108 .5-161.9-.4-17 0-23.7-20.8-17-34.3l125.7-248C226 14.1 232 1.2 245 0M30.5 80c-10-19.7 5-46 27.4-46.6h.5c10.4 0 20 6.6 25.7 15C94.6 64 88 88.8 69.9 95.1 55.4 102.7 37 93.8 30.4 80M339 34.2c23.2-6.3 45.8 21.6 35.2 43-5.8 19.7-33.1 27.3-48 13-19.6-15.3-11.7-50.7 12.8-56M17 333.1c15-4.5 25.7 8.5 30 21.2 23.6 49 74.2 83.9 128.6 87.5 68.5 8.6 144.3-22.2 179.4-83.6 5.2-9 8-21.7 19.4-24.7 11-4 25 2 27.8 13.8 4.7 12.3-4 24.3-9.2 34.9-40.4 70.6-123.6 110-203.4 107.2a206.5 206.5 0 0 1-186-121.8C-4.7 355.3 2 336 17 333"/></svg>