<svg xmlns="http://www.w3.org/2000/svg" xmlns:xlink="http://www.w3.org/1999/xlink" version="1.1" id="svg357" width="1007.922" height="1007.922"><defs id="defs333"><radialGradient xlink:href="#c" id="radialGradient377" gradientUnits="userSpaceOnUse" gradientTransform="rotate(45 546.823 785.354)" cx="410.201" cy="853.349" r="85"/><radialGradient id="c" cx="410.201" cy="853.349" r="85" gradientTransform="rotate(45 546.823 785.354)" gradientUnits="userSpaceOnUse"><stop offset=".5" stop-opacity=".13" id="stop310"/><stop offset=".994" stop-opacity="0" id="stop312"/></radialGradient><radialGradient id="e" cx="1051.126" cy="1265.852" r="85" gradientTransform="rotate(-135 769.601 767.5)" xlink:href="#c"/><radialGradient id="h" cx="27.608" cy="2001.37" r="85" gradientTransform="scale(1 -1) rotate(45 2979.231 860.248)" xlink:href="#c"/><linearGradient id="i" x1="308.378" y1="811.629" x2="919.318" y2="200.689" gradientTransform="rotate(-45 613.848 506.16)" gradientUnits="userSpaceOnUse"><stop offset="0" stop-color="#2987e6" id="stop328"/><stop offset=".994" stop-color="#58c1f5" id="stop330"/></linearGradient><linearGradient xlink:href="#a" id="linearGradient375" gradientUnits="userSpaceOnUse" gradientTransform="matrix(.867 0 0 1.307 86.603 -142.296)" x1="700.766" y1="597.024" x2="749.765" y2="597.024"/><linearGradient id="a" x1="700.766" y1="597.024" x2="749.765" y2="597.024" gradientTransform="matrix(.867 0 0 1.307 86.603 -142.296)" gradientUnits="userSpaceOnUse"><stop offset="0" stop-opacity=".13" id="stop300"/><stop offset=".994" stop-opacity="0" id="stop302"/></linearGradient><linearGradient id="f" x1="1880.8" y1="34.286" x2="1929.799" y2="34.286" gradientTransform="matrix(.867 0 0 -.796 -1446.031 767.147)" xlink:href="#a"/><mask id="g" x="-35.208" y="299.482" width="205.208" height="205.208" maskUnits="userSpaceOnUse"><g transform="translate(-8.064 -116.521)" id="g324"><path class="a" transform="rotate(-45 63.012 506.16)" id="rect322" fill="#fff" d="M-21.988 463.659h170v85h-170z"/></g></mask><mask id="d" x="837.922" y="95.835" width="205.208" height="205.208" maskUnits="userSpaceOnUse"><g transform="translate(-8.064 -116.521)" id="g317"><path class="a" transform="rotate(-135 961.037 302.512)" id="rect315" fill="#fff" d="M876.038 260.012h170v85h-170z"/></g></mask><mask id="b" x="317.137" y="651.827" width="170" height="205.208" maskUnits="userSpaceOnUse"><g transform="translate(-8.064 -116.521)" id="g307"><path class="a" transform="rotate(45 410.201 913.453)" id="rect305" fill="#fff" d="M367.701 870.953h85v85h-85z"/></g></mask><style id="style298">.a{fill:#fff}</style></defs><g id="g373" transform="translate(0 93.093)"><path id="rect337" transform="rotate(45 852.293 570.04)" fill="url(#linearGradient375)" d="M694.422 269.785h42.5v736.5h-42.5z"/><g id="g341" mask="url(#b)"><circle id="circle339" r="85" cy="736.827" cx="402.137" fill="url(#radialGradient377)"/></g><g id="g345" mask="url(#d)"><circle id="circle343" r="85" cy="216.043" cx="922.922" fill="url(#e)"/></g><path id="rect347" transform="rotate(135 226.655 679.927)" fill="url(#f)" d="M185.305 515.608h42.5v448.5h-42.5z"/><g id="g351" mask="url(#g)"><circle id="circle349" r="85" cy="419.69" cx="85" fill="url(#h)"/></g><rect id="rect353" transform="rotate(-45 163.692 559.456)" rx="42.5" height="576" width="288" y="319.982" x="164.378" ry="42.5" fill="#195abd"/><rect id="rect355" transform="rotate(45 750.47 438.164)" rx="42.5" height="864" width="288" y="74.159" x="469.848" ry="42.5" fill="url(#i)"/></g></svg>