<svg xmlns="http://www.w3.org/2000/svg" width="43" height="43"><g fill-rule="evenodd"><path d="M4.423 0h34.154c2.358 0 4.27 1.925 4.27 4.3v34.4c0 2.375-1.912 4.3-4.27 4.3H4.423c-2.358 0-4.27-1.925-4.27-4.3V4.3c0-2.375 1.912-4.3 4.27-4.3z" fill="#da167b"/><path d="M29.532 10.437H7.52a2.16 2.16 0 000 4.319h5.033V30.22a2.315 2.315 0 002.325 2.342 2.315 2.315 0 002.325-2.342V16.235l-1.127-.996c-.273-.2-.24-.486.13-.486H29.14c2.325 0 3.774 1.036 3.774 3.135v.06c0 1.825-1.359 3.213-3.684 3.213h-4.159c-2.048 0-3.386 1.357-3.386 3.063v5.997a2.315 2.315 0 002.325 2.342 2.315 2.315 0 002.324-2.342v-3.407l-1.209-1.076c-.165-.152-.092-.4.146-.4h3.808c4.74 0 8.545-2.554 8.545-7.48v-.061c0-4.35-3.05-7.36-8.092-7.36" fill="#fff"/></g></svg>