<svg xmlns="http://www.w3.org/2000/svg" width="465.153" height="465.145"><path d="M232.579 0C104.123 0 0 104.107 0 232.575c0 128.465 104.123 232.57 232.579 232.57 128.456 0 232.574-104.105 232.574-232.57C465.153 104.107 361.035 0 232.58 0" fill="#e57cd8"/><path d="M215.476 83.777h34.212v169.707h-34.212z" fill="#fff"/><path d="M232.579 357.528c-65.74 0-119.068-53.339-119.068-119.09 0-54.875 37.112-101.043 87.616-114.873v34.602c-32.075 12.577-54.762 43.766-54.762 80.272 0 47.609 38.611 86.226 86.214 86.226 47.609 0 86.222-38.617 86.222-86.226 0-36.506-22.702-67.695-54.741-80.272v-34.602c50.468 13.83 87.593 59.998 87.593 114.874 0 65.75-53.32 119.089-119.074 119.089" fill="#fff"/></svg>