<svg xmlns="http://www.w3.org/2000/svg" width="388.454" height="388.454"><g fill-rule="evenodd" clip-rule="evenodd"><path fill="#454342" d="M194.302 89.772c18.263-9.127 40.417-14.105 60.688-15.861l22.783-1.983c24.953-2.147 49.925-.831 74.906-.831h13.703V274.3c0 62.801-51.354 114.154-114.177 114.154H22.072V71.097h13.692c25.012 0 49.89-1.641 74.896.297l22.778 1.724c21.637 1.625 41.447 6.873 60.864 16.654z"/><path fill="#5bb647" d="M35.764 84.796v289.969h216.442c55.266 0 100.474-45.22 100.474-100.465v-6.992V84.796c-24.011 0-49.37-.588-73.721.788l-22.788 1.965c-22.299 2.712-44.856 7.916-61.948 17.779-18.451-10.662-38.576-15.961-61.818-18.567l-22.781-1.729c-24.846-1.158-50.317-.236-73.86-.236z"/><path fill="#87c359" d="M64.178 374.764h188.028c24.485 0 46.979-8.879 64.445-23.553-20.403-47.416-67.548-80.603-122.435-80.603-63.597.001-116.774 44.55-130.038 104.156z"/><path fill="#439c43" d="M194.223 374.764l59.155-.874c24.156 0 46.15-8.52 63.277-22.672 22.055-18.225 36.024-45.824 36.024-76.919v-6.992V84.795c-24.011 0-49.37-.588-73.721.788l-22.788 1.965c-22.299 2.712-44.856 7.916-61.948 17.779v269.437z"/><path fill="#5bb647" d="M194.223 374.764h58.352c24.485 0 46.616-8.872 64.081-23.546-20.176-46.884-68.331-79.859-122.433-80.585z"/><path fill="#454342" d="M278.96 76.093C274.606 33.323 238.463 0 194.582 0c-43.863 0-79.987 33.037-84.959 75.56l22.781 1.737c4.026-30.71 30.203-54.455 62.09-54.455 31.874 0 58.278 24.148 61.677 55.213zM231.28 283.98c-9.927 10.496-19.843 21-29.765 31.514l-7.299 7.735-7.29-7.735c-9.924-10.495-19.84-21.018-29.762-31.514l-5.14-5.456 3.753-6.478c7.961-13.726 22.849-21.109 38.438-21.109 15.605 0 30.479 7.384 38.444 21.109l3.76 6.478z"/><path fill="#fef8b3" d="M223.972 277.094c-9.902 10.507-19.84 21-29.755 31.512-9.916-10.512-19.839-21.005-29.761-31.512 6.267-10.803 18.029-16.14 29.761-16.121 11.734-.019 23.495 5.319 29.755 16.121z"/><path fill="#fcd061" d="M223.972 277.094c-9.902 10.507-19.84 21-29.755 31.512v-47.633c11.734-.019 23.495 5.319 29.755 16.121z"/><path fill="#454342" d="M119.856 124.317c44.453 0 80.504 36.074 80.504 80.504.001 44.451-36.052 80.508-80.504 80.508-44.457 0-80.492-36.057-80.492-80.508.001-44.431 36.035-80.504 80.492-80.504z"/><path fill="#eee" d="M119.856 138.013c36.896 0 66.813 29.922 66.813 66.808 0 36.889-29.918 66.81-66.813 66.81-36.906 0-66.808-29.921-66.808-66.81.001-36.885 29.903-66.808 66.808-66.808z"/><path fill="#fff" d="M119.856 138.013c30.448 0 56.145 20.386 64.195 48.243-8.05 27.849-33.747 48.233-64.195 48.233-30.46 0-56.131-20.384-64.18-48.233 8.05-27.857 33.72-48.243 64.18-48.243z"/><path fill="#454342" d="M268.582 124.317c44.463 0 80.496 36.074 80.496 80.504.001 44.451-36.033 80.508-80.497 80.508-44.453 0-80.506-36.039-80.506-80.508 0-44.431 36.053-80.504 80.507-80.504z"/><path fill="#eee" d="M268.582 138.013c36.894 0 66.813 29.922 66.813 66.808.001 36.889-29.919 66.81-66.813 66.81-36.893 0-66.803-29.921-66.803-66.81-.001-36.885 29.909-66.808 66.803-66.808z"/><path fill="#fff" d="M268.582 138.013c30.442 0 56.144 20.386 64.179 48.243-8.035 27.849-33.736 48.233-64.18 48.233-30.456 0-56.145-20.384-64.196-48.233 8.051-27.857 33.74-48.243 64.197-48.243z"/><path fill="#454342" d="M128.253 163.276c23.828 0 43.157 19.318 43.157 43.121 0 23.842-19.329 43.158-43.157 43.158-23.842 0-43.153-19.316-43.153-43.158 0-7.941 2.161-15.38 5.911-21.777a20.746 20.746 0 0019.27 12.964c11.472 0 20.788-9.283 20.788-20.763 0-5.166-1.886-9.88-4.988-13.5.715-.045 1.451-.045 2.172-.045zM260.171 163.276c23.849 0 43.166 19.318 43.166 43.121 0 23.842-19.317 43.158-43.166 43.158-23.818 0-43.136-19.316-43.136-43.158 0-7.941 2.149-15.38 5.892-21.777 3.095 7.618 10.561 12.964 19.287 12.964 11.475 0 20.775-9.283 20.775-20.763.001-5.166-1.865-9.88-4.979-13.5.727-.045 1.439-.045 2.161-.045z"/></g></svg>