<svg xmlns="http://www.w3.org/2000/svg" fill="#822b55" viewBox="0 0 147 193"><path d="M70.7 3.7a17 17 0 0 0-2 24.4 16.4 16.4 0 0 0 5 3.9 3.2 3.2 0 0 1-2.8 5.7 23.1 23.1 0 0 1-11.5-13 73.8 73.8 0 0 0-33 18.2C-1.1 67.2-8 104.7 9.9 128.2c-4.5 5.8-8 12.2-8.9 18.7a20.9 20.9 0 0 0 5.7 18c9.1 9.6 21.4 7 31.2 5.1 6.6-1.3 12.8-2.6 16.5-.2 3.2 2 3.5 3.8 3.6 4.4 2.1 9.3-5.8 14-7.6 16.3a1.5 1.5 0 0 0 1 2.4c3.6 0 9-1.2 12.4-4a16.8 16.8 0 0 0 5.6-18c-.9-3.3-3.1-7.6-8.6-11-7.7-5-17-3.2-25.2-1.5-9.8 2-16 2.9-20.4-1.7a9.1 9.1 0 0 1-2.5-8.2c.6-3.8 2.7-7.9 5.7-11.9 21.7 17 56.8 13.5 82.6-9.3a75.3 75.3 0 0 0 20.8-28.1 23.1 23.1 0 0 1-13.5-13.8 3.2 3.2 0 0 1 6-2.2 16.4 16.4 0 0 0 3.3 5.4 16.9 16.9 0 1 0 11.5-28 3.2 3.2 0 0 1-.5-6.4 23.4 23.4 0 0 1 12.8 2.7c2.6-14.1 3.4-31.5-2-37.6-4.1-4.6-20.7-8-35.2-7.7a23.5 23.5 0 0 1 .1 9.8 3.2 3.2 0 0 1-6.3-1.3A17 17 0 0 0 70.7 3.7zm63.2 21a5.3 5.3 0 0 1-.6 6.2c-1.3 1.1-2.7-.5-4-2.1-1.3-1.6-3.2-3.4-1.9-4.6a5.7 5.7 0 0 1 6.5.5z"/></svg>