<svg xmlns="http://www.w3.org/2000/svg" viewBox="0 0 24 24"><path fill="#0072F5" d="M20 6A11.58 11.58 0 0 1 4 6c.45-.6.96-1.14 1.53-1.62a9.37 9.37 0 0 0 12.94 0A10.06 10.06 0 0 1 20 5.99zm-3.63-3a9.9 9.9 0 0 0-2.63-.85 4.9 4.9 0 0 1-3.48 0A9.92 9.92 0 0 0 7.63 3 6.96 6.96 0 0 0 12 4.54 6.96 6.96 0 0 0 16.37 3zM2.8 8.08a9.93 9.93 0 0 0-.64 2.13 9.37 9.37 0 0 1 5.47 4.31 9.37 9.37 0 0 1 1 6.9 9.95 9.95 0 0 0 2.16.5c.67-2.78.31-5.83-1.23-8.5A11.58 11.58 0 0 0 2.8 8.07zm-.77 4.63c.06.94.26 1.85.57 2.7a4.9 4.9 0 0 1 1.74 3.02 10.06 10.06 0 0 0 2.06 1.85 6.96 6.96 0 0 0-.86-4.55 6.96 6.96 0 0 0-3.51-3.02zm19.8-2.5a9.91 9.91 0 0 0-.63-2.13 11.59 11.59 0 0 0-6.76 5.33 11.58 11.58 0 0 0-1.23 8.52 9.94 9.94 0 0 0 2.16-.51 9.37 9.37 0 0 1 1-6.9 9.37 9.37 0 0 1 5.47-4.32zm-3.37 5.52a6.96 6.96 0 0 0-.86 4.55 10.05 10.05 0 0 0 2.06-1.85 4.91 4.91 0 0 1 1.74-3.02c.31-.85.5-1.75.57-2.7a6.96 6.96 0 0 0-3.51 3.02z"/></svg>