<svg xmlns="http://www.w3.org/2000/svg" fill="none" viewBox="0 0 30 30"><path fill="#6064FF" fill-rule="evenodd" d="M14.52 29.03a14.52 14.52 0 1 0 0-29.04 14.52 14.52 0 0 0 0 29.04Z" clip-rule="evenodd"/><path fill="#fff" fill-rule="evenodd" d="M21.84 19.1c-.22.36-.6.56-1.05.56-.68 0-1.24-.56-1.24-1.24 0-.18.08-.34.17-.51l.08-.18a5.8 5.8 0 1 0-10.47.03c.1.25.22.48.22.73 0 .68-.56 1.24-1.24 1.24-.48 0-.87-.22-1.05-.57l-.03-.05a8.25 8.25 0 1 1 14.6-.01Zm-5.17-2.14a2.05 2.05 0 1 1-4.1 0 2.05 2.05 0 0 1 4.1 0Z" clip-rule="evenodd"/></svg>