<svg xmlns="http://www.w3.org/2000/svg" width="139.2" height="139.2"><switch transform="translate(-2.6 -3.8)"><g><circle cy="74.2" cx="72.8" r="57.1" fill="#f9f9f9"/><linearGradient id="a" y2="73.434" gradientUnits="userSpaceOnUse" x2="141.86" y1="73.434" x1="2.587"><stop stop-color="#1E5DAA" offset="0"/><stop stop-color="#228BC8" offset="1"/></linearGradient><path d="M72.2 3.8C33.8 3.8 2.6 35 2.6 73.4c0 38.4 31.2 69.6 69.6 69.6 38.4 0 69.6-31.2 69.6-69.6 0-38.4-31.1-69.6-69.6-69.6zm0 126.1c-30.9 0-55.9-25-55.9-55.9s25-55.9 55.9-55.9 55.9 25 55.9 55.9-25 55.9-55.9 55.9z" fill="url(#a)"/><linearGradient id="b" y2="75.486" gradientUnits="userSpaceOnUse" x2="112.08" y1="75.486" x1="46.168"><stop stop-color="#B37B2B" offset="0"/><stop stop-color="#D29128" offset=".664"/><stop stop-color="#E49D26" offset="1"/></linearGradient><path d="M59.5 107.7c-1 1-2.7 1-3.8 0l-8.8-8.8c-1-1-1-2.7 0-3.8l51.8-51.8c1-1 2.7-1 3.8 0l8.8 8.8c1 1 1 2.7 0 3.8z" fill="url(#b)"/><path d="M68.4 95c1 1 1 2.7 0 3.8l-8.8 8.8c-1 1-2.7 1-3.8 0L31.7 83.5c-1-1-1-2.7 0-3.8l8.8-8.8c1-1 2.7-1 3.8 0z" fill="#e49d26"/></g></switch></svg>