<svg xmlns="http://www.w3.org/2000/svg" xmlns:xlink="http://www.w3.org/1999/xlink" viewBox="0 0 74.45 62.4"><defs><linearGradient id="c" x1="2403.74" x2="2419.78" y1="353.5" y2="391.87" gradientTransform="matrix(0.98, 0.19, -0.19, 0.98, -2261.55, -761.83)" gradientUnits="userSpaceOnUse"><stop offset="0" stop-color="#1dfc51"/><stop offset=".2" stop-color="#25d24e"/><stop offset=".54" stop-color="#338148"/><stop offset="1" stop-color="#015942"/></linearGradient><linearGradient id="a" x1="-3683" x2="-3658.46" y1="950.39" y2="927.5" gradientTransform="matrix(-1, 0, 0, 1, -3641.21, -927.94)" gradientUnits="userSpaceOnUse"><stop offset="0" stop-color="#e83a95"/><stop offset=".08" stop-color="#ed64ac"/><stop offset=".25" stop-color="#f9cee5"/><stop offset=".33" stop-color="#fff"/></linearGradient><linearGradient xlink:href="#a" id="d" x1="-3682.94" x2="-3658.39" y1="950.46" y2="927.57"/><linearGradient id="b" x1="17.44" x2="13.49" y1="936.82" y2="949.41" gradientTransform="translate(0 -927.94)" gradientUnits="userSpaceOnUse"><stop offset=".49" stop-color="#1dfc51"/><stop offset=".63" stop-color="#16d24d"/><stop offset=".93" stop-color="#046844"/><stop offset=".97" stop-color="#015942"/></linearGradient><linearGradient xlink:href="#b" id="e" x1="22.09" x2="12.94" y1="939.03" y2="948.71"/><linearGradient xlink:href="#b" id="f" x1="19.77" x2="12.09" y1="941.48" y2="949.61"/><linearGradient id="g" x1="29.84" x2="36.19" y1="945.91" y2="994.48" gradientTransform="translate(0 -927.94)" gradientUnits="userSpaceOnUse"><stop offset="0" stop-color="#015942"/><stop offset=".26" stop-color="#01462d"/><stop offset=".81" stop-color="#002103"/></linearGradient><linearGradient id="h" x1="10.42" x2="23.38" y1="951.93" y2="936.16" gradientTransform="translate(0 -927.94)" gradientUnits="userSpaceOnUse"><stop offset="0" stop-color="#015942"/><stop offset=".28" stop-color="#379145"/><stop offset=".51" stop-color="#60bb47"/></linearGradient><linearGradient id="i" x1="10.42" x2="23.38" y1="951.93" y2="936.16" gradientTransform="translate(0 -927.94)" gradientUnits="userSpaceOnUse"><stop offset="0" stop-color="#015942"/><stop offset=".04" stop-color="#046844"/><stop offset=".37" stop-color="#16d24d"/><stop offset=".51" stop-color="#1dfc51"/></linearGradient><linearGradient id="j" x1="12.81" x2="23.1" y1="949.03" y2="936.49" gradientTransform="translate(0 -927.94)" gradientUnits="userSpaceOnUse"><stop offset="0" stop-color="#015942"/><stop offset="1" stop-color="#60bb47" stop-opacity="0"/></linearGradient><linearGradient id="k" x1="52.31" x2="44.4" y1="911.47" y2="949.68" gradientTransform="translate(0 -927.94)" gradientUnits="userSpaceOnUse"><stop offset="0" stop-color="#60bb47"/><stop offset=".45" stop-color="#379145"/><stop offset="1" stop-color="#015942"/></linearGradient><linearGradient id="l" x1="26" x2="26" y1="927.97" y2="955.01" gradientTransform="translate(0 -927.94)" gradientUnits="userSpaceOnUse"><stop offset="0" stop-color="#1dfc51"/><stop offset=".19" stop-color="#16d24d"/><stop offset=".63" stop-color="#046844"/><stop offset=".68" stop-color="#015942"/></linearGradient><linearGradient id="m" x1="26" x2="26" y1="925.48" y2="952.52" gradientTransform="translate(0 -927.94)" gradientUnits="userSpaceOnUse"><stop offset="0" stop-color="#1dfc51"/><stop offset=".28" stop-color="#16d24d"/><stop offset=".92" stop-color="#046844"/><stop offset="1" stop-color="#015942"/></linearGradient><linearGradient id="n" x1="43.59" x2="25.81" y1="964.57" y2="981.08" gradientTransform="translate(0 -927.94)" gradientUnits="userSpaceOnUse"><stop offset="0" stop-color="#015942"/><stop offset=".08" stop-color="#046844"/><stop offset=".72" stop-color="#16d24d"/><stop offset="1" stop-color="#1dfc51"/></linearGradient></defs><path fill="#ed1b5b" d="m29.72 31.07.3-1.2a4.88 4.88 0 0 0 .3-.7c8-10.4 19.1-10.5 31.2-8.2a58.28 58.28 0 0 1 12.8 4.1c.2.1.2.6-.2.5-10.9-3.5-19.3-2.1-25.5.5a25.89 25.89 0 0 0-10.5 7.6c-4.3 1.9-8.5.3-8.4-2.6Z"/><path fill="#1dfc51" d="M15.72.77c-.2-.8 1.2-1.2 2.4-.1 6.4 5.4 12.4 18.2 17.9 16.2-1.4 1.2-2.8 2-4.3 1.7-3.3-.9-8-3.4-13-6.1a88.49 88.49 0 0 1-3-11.7Z"/><path fill="url(#c)" d="M31.62 62.07c-6.3-7.6-9-17.8-4.2-28.5a24.73 24.73 0 0 0-1.1 3.6c-1.6 8.3 5.2 16.5 11.2 18.2.3.1.3.4 0 .6a7 7 0 0 0-4.8 4.8 4.87 4.87 0 0 0-.1 1.2c0 .5-.6.6-1 .1Z"/><path fill="url(#a)" d="m30.02 29.77.3-.6c8-10.5 19.1-10.6 31.2-8.2.3.1.7.1 1 .2s.5.1.8.2c-10.3-1.2-23.6 1-28.7 13.1-3.3 0-5.7-2-4.6-4.7Z"/><path fill="url(#d)" d="M29.82 29.87c.1-.2.4-.5.4-.7 8-10.5 19.1-10.6 31.2-8.2.3.1.7.1 1 .2s.5.1.8.2c-10.3-1.2-23.6 1-28.7 13.1-3.2 0-5.8-1.9-4.7-4.6Z"/><path fill="url(#b)" d="M26.22 32.57c-3.5-2-14-9-25.8-26.5 4.9 1.9 33.7 15.7 27.1 27.2h-.3a.1.1 0 0 1-.1-.1h-.1a.1.1 0 0 1-.1-.1c-.1-.1-.2-.1-.3-.2-.2-.2-.3-.2-.4-.3Z" opacity=".3" style="isolation:isolate"/><path fill="url(#e)" d="M26.22 32.57c-3.5-2-14-9-25.8-26.5 4.9 1.9 33.7 15.7 27.1 27.2h-.3a.1.1 0 0 1-.1-.1h-.1a.1.1 0 0 1-.1-.1c-.1-.1-.2-.1-.3-.2-.2-.2-.3-.2-.4-.3Z" opacity=".3" style="isolation:isolate"/><path fill="url(#f)" d="M26.22 32.57c-3.5-2-14-9-25.8-26.5 4.9 1.9 33.7 15.7 27.1 27.2h-.3a.1.1 0 0 1-.1-.1h-.1a.1.1 0 0 1-.1-.1c-.1-.1-.2-.1-.3-.2-.2-.2-.3-.2-.4-.3Z" opacity=".3" style="isolation:isolate"/><path fill="url(#g)" d="M32.92 52.97c-.1-.1-.2-.2-.3-.2s-.2-.1-.2-.2-.2-.2-.3-.2-.2-.1-.2-.2l-.3-.3-.3-.3-.4-.4c-.1-.1-.1-.2-.2-.2l-.3-.3c-.1-.1-.1-.2-.2-.3s-.2-.2-.2-.3-.1-.2-.2-.3-.1-.2-.2-.3-.1-.2-.2-.3-.1-.2-.2-.3-.1-.2-.2-.3-.1-.2-.2-.3-.1-.2-.2-.3-.1-.2-.2-.3-.1-.2-.2-.3-.1-.2-.2-.3-.1-.2-.2-.3a.37.37 0 0 1-.1-.3c-.1-.1-.1-.2-.2-.4s-.1-.2-.1-.3-.1-.3-.2-.4a.35.35 0 0 0-.1-.2 8.8 8.8 0 0 1-.5-1.5.37.37 0 0 0-.1-.3c0-.1-.1-.3-.1-.4a.37.37 0 0 0-.1-.3c0-.1-.1-.3-.1-.4a.37.37 0 0 0-.1-.3.6.6 0 0 0-.1-.4v-2.1a18 18 0 0 1 .2-2.2 20.14 20.14 0 0 1 1-3.5c.1-.1.1-.3.2-.4s-12.7-5.7-27.3-27.5c-.6-1 1.2-1.4 2.1-1.1 8.8 2.3 22.3 11.9 29.5 13.7 6.5 1.7 10.2-18.4 24.6-1.7.7.8 1.2 1.4 1.7 1.9s.2.6-.3.5a33.08 33.08 0 0 0-5.9-1.2c-.4 0-.4-.1-.5-.4a2.34 2.34 0 0 0-2.2-1 2.46 2.46 0 0 0-2.2 1c-.1.3-.2.3-.4.4-6.2.5-13 3.3-16.5 11.8-1.5 3.6 3.6 5.5 8.9 2.9a26.43 26.43 0 0 0-5.5 10.3 16.15 16.15 0 0 0-.6 3.3 26.42 26.42 0 0 0-.2 2.9 23.4 23.4 0 0 0 .3 3.8Z"/><path fill="url(#h)" d="M26.22 32.57c-3.5-2-14-9-25.8-26.5 4.9 1.9 33.7 15.7 27.1 27.2h-.3a.1.1 0 0 1-.1-.1h-.1a.1.1 0 0 1-.1-.1c-.1-.1-.2-.1-.3-.2-.2-.2-.3-.2-.4-.3Z" opacity=".3" style="isolation:isolate"/><path fill="url(#i)" d="M26.22 32.57c-3.5-2-14-9-25.8-26.5 4.9 1.9 33.7 15.7 27.1 27.2h-.3a.1.1 0 0 1-.1-.1h-.1a.1.1 0 0 1-.1-.1c-.1-.1-.2-.1-.3-.2-.2-.2-.3-.2-.4-.3Z" opacity=".3" style="isolation:isolate"/><path fill="url(#j)" d="M26.22 32.57c-3.5-2-14-9-25.8-26.5 4.9 1.9 30.2 18.5 27.1 27.2h-.3a.1.1 0 0 1-.1-.1h-.1a.1.1 0 0 1-.1-.1c-.1-.1-.2-.1-.3-.2-.2-.2-.3-.2-.4-.3Z" opacity=".3" style="isolation:isolate"/><path fill="url(#k)" d="M32.12 18.57Zm.1 0Zm-.4 0Zm26.2.2c-.5-.5-1.1-1.2-1.8-1.9-10.2-12-15-5.2-19.3-.9l-.3.3a8.94 8.94 0 0 1-2.8 2.1.1.1 0 0 0-.1.1c-.1 0-.1 0-.2.1h-1.6c6.3.7 10.2-14.2 25.5.6h.3c.6.1.6-.1.3-.4Zm-25.8-.2Z"/><path fill="#fff" d="M57.82 19.27a4.17 4.17 0 0 1-.6-.2h-.2a26.17 26.17 0 0 0-5.4-1c-.5 0-.3-.1-.5-.4a2.34 2.34 0 0 0-2.2-1 2.58 2.58 0 0 0-2.2 1c-.1.3-.2.3-.4.4-6.1.5-12.7 3.2-16.2 11.2 8-10.4 19.1-10.5 31.2-8.2.8.2 1.7.4 2.8.6Z"/><path fill="url(#l)" d="M16.12 3.07c0-.3-.1-.6-.1-.8 10.1 8.1 13.2 19.1 20 14.6-1.4 1.2-2.7 2-4.3 1.6-3.3-.9-8-3.4-13-6.1a84.65 84.65 0 0 1-2.6-9.3Z" opacity=".8" style="isolation:isolate"/><path fill="url(#m)" d="M16.12 3.07c0-.3-.1-.6-.1-.8 10.1 8.1 13.2 19.1 20 14.6-1.4 1.2-2.7 2-4.3 1.6-3.3-.9-8-3.4-13-6.1a84.65 84.65 0 0 1-2.6-9.3Z" opacity=".8" style="isolation:isolate"/><path fill="url(#n)" d="M37.42 55.97a7.78 7.78 0 0 0-4.1 3.1 25.9 25.9 0 0 1-7.3-19.8c-.3 7.6 5.9 14.6 11.5 16.1.3.1.3.4-.1.6Z"/></svg>