<svg xmlns="http://www.w3.org/2000/svg" width="20.722" height="20.723"><path d="M10.361 0C6.82 0 3.947 2.708 3.947 6.048v7.366h2.385V6.048c0-2.098 1.804-3.8 4.03-3.8s4.029 1.702 4.029 3.8v4.459h2.384V6.048c0-3.34-2.871-6.048-6.414-6.048z"/><path d="M18.612 13.475c-.046-1.396-.631-2.728-1.645-3.746s-2.386-1.653-3.86-1.785-2.95.247-4.149 1.067-2.04 2.023-2.364 3.386a4.86 4.86 0 0 0-3.776-.084c-.6.238-1.14.594-1.583 1.043s-.781.982-.99 1.564a4.115 4.115 0 0 0 .359 3.545c.322.533.76.996 1.286 1.358s1.127.615 1.764.742a20.019 20.019 0 0 1 5.038-6.281 17.998 17.998 0 0 1 6.042-3.28c.49-.158.685.432.226.615a17.334 17.334 0 0 0-5.782 4.069 17.258 17.258 0 0 0-1.354 1.647 18.42 18.42 0 0 0-2.012 3.388h1.936a17.31 17.31 0 0 1 1.5-2.192 16.875 16.875 0 0 1 2.756-2.721l1.079-.753c.53-.352 1.085-.67 1.661-.951.421-.209.69.295.302.508a15.48 15.48 0 0 0-4.547 4.44c-.355.527-.68 1.072-.97 1.633h2.195c.277-.441.577-.87.9-1.282a14.279 14.279 0 0 1 2.212-2.293.31.31 0 0 1 .23-.107.33.33 0 0 1 .236.09.293.293 0 0 1 .087.227.297.297 0 0 1-.121.212 12.985 12.985 0 0 0-1.317 1.704c-.303.463-.579.941-.825 1.434h3.522c.904.001 1.782-.281 2.497-.802s1.224-1.253 1.45-2.078.152-1.697-.207-2.478-.984-1.429-1.776-1.839z"/></svg>