<svg xmlns="http://www.w3.org/2000/svg" viewBox="0 0 20.73 20.73"><path d="M10.36 0c-3.54 0-6.4 2.7-6.4 6.05v7.36h2.37V6.05c0-2.1 1.8-3.8 4.03-3.8 2.23 0 4.03 1.7 4.03 3.8v4.46h2.38V6.05C16.77 2.7 13.9 0 10.37 0zm8.25 13.47a5.54 5.54 0 0 0-1.64-3.74 6.33 6.33 0 0 0-8.01-.72A5.74 5.74 0 0 0 6.6 12.4a4.86 4.86 0 0 0-3.77-.09c-.6.24-1.14.6-1.59 1.05-.45.45-.78.98-.99 1.56a4.12 4.12 0 0 0 .36 3.54 4.72 4.72 0 0 0 3.05 2.1 20.02 20.02 0 0 1 5.04-6.28A18 18 0 0 1 14.73 11c.5-.15.7.44.23.62a17.33 17.33 0 0 0-5.78 4.07 17.26 17.26 0 0 0-1.36 1.64 18.42 18.42 0 0 0-2 3.4h1.93a17.31 17.31 0 0 1 1.5-2.2A16.88 16.88 0 0 1 12 15.81l1.08-.75c.53-.36 1.1-.67 1.66-.95.43-.21.7.3.3.5a15.48 15.48 0 0 0-4.54 4.44c-.36.53-.68 1.08-.97 1.64h2.2c.27-.44.57-.87.9-1.29a14.28 14.28 0 0 1 2.2-2.29.31.31 0 0 1 .24-.1.33.33 0 0 1 .23.08.3.3 0 0 1 .1.23.3.3 0 0 1-.13.21 12.98 12.98 0 0 0-1.32 1.7c-.3.47-.58.95-.82 1.44h3.52c.9 0 1.78-.28 2.5-.8a3.8 3.8 0 0 0 1.45-2.08 3.6 3.6 0 0 0-.2-2.48 3.94 3.94 0 0 0-1.79-1.83z"/></svg>