<svg xmlns="http://www.w3.org/2000/svg" width="468.003" height="423.112" viewBox="0 0 123.826 111.948"><g clip-rule="evenodd" fill-rule="evenodd" image-rendering="optimizeQuality" shape-rendering="geometricPrecision" text-rendering="geometricPrecision"><path d="M23.126 62.935V38.607C23.126 16.91 40.274 0 61.98 0c23.021 0 38.72 17.883 38.72 38.607v22.647c-4.134-3.186-8.03-5.323-11.535-5.734V38.607c0-16.584-14.064-26.881-27.185-26.881-15.54 0-27.454 13.374-27.454 26.88v11.642c-5.386 3.974-9.071 8.222-11.4 12.687z" fill="#acabac"/><path d="M98.137 38.607H25.554C27.462 22.067 40.753 5.27 61.98 5.285 81.885 5.27 96.34 21.07 98.137 38.607zm0 0H25.554c0-9.476 4.08-18.563 10.86-25.263C43.194 6.644 52.39 2.88 61.98 2.88c9.59 0 19.072 3.894 25.853 10.594 6.78 6.7 10.304 15.657 10.304 25.133z" fill="#fff"/><path d="M20.09 71.392c2.7-9.332 5.976-16.367 12.546-20.955 4.822-2.86 9.546-5.019 19.293-5.212 12.134-.019 19.625 5.277 25.431 12.501 14.93-7.908 31.025 5.533 29.276 18.445 9.72 0 16.19 9.02 16.19 17.343 0 10.874-9.137 17.526-16.19 17.526H20.09C7.936 111.04 1 100.65 1 91.185c0-9.768 7.847-19.793 19.09-19.793z" fill="#fff" stroke="#000" stroke-width="1.906"/><path d="M59.383 107.853c1.08-4.746 4.094-8.89 7.246-12.711 5.412-6.324 12.074-11.897 19.915-15.633 1.818-.796 3.736-1.591 5.786-1.648-4.685 2.526-9.459 4.998-13.517 8.343-7.28 5.787-12.549 13.447-15.889 21.65h-3.541z" fill="#96eb00"/><path d="M62.924 107.853c2.266-5.822 5.617-11.62 10.125-16.274 2.34-2.514 4.703-4.714 7.491-6.82 3.912-2.799 7.449-5.235 11.79-6.898-7.085 3.66-13.105 8.702-18.314 14.37-6.013 6.301-9.59 15.622-9.59 15.622z"/><path d="M44.203 107.853c.216-2.647 1.302-6.499 5.27-14.34 3.143-4.889 6.408-9.2 9.91-12.378 2.583-2.378 4.345-4.13 8.263-6.71 5.447-3.346 9.671-5.26 12.33-5.339-8.148 4.235-10.573 6.441-13.577 8.775-7.008 5.721-9.219 9.534-11.906 13.324-2.736 3.718-4.978 9.273-6.725 16.668z" fill="#96eb00"/><path d="M47.768 107.853c1.107-4.349 1.98-8.54 5.235-14.34 2.01-3.337 5.584-8.794 9.564-12.326 3-2.794 6.554-5.43 8.871-7.107 2.054-1.287 2.749-1.928 8.539-4.994-5.739 2.925-11.266 7.272-13.916 9.805-1.148.976-4.482 4.499-6.56 7.105-4.94 6.994-8.808 13.945-10.028 21.857z"/><path d="M30.56 107.853c-.121-5.831 1.37-11.325 3.578-16.668 2.697-6.073 5.814-11.085 9.36-15.014 3.593-3.661 5.861-6.89 15.885-12.654 3.64-1.85 6.508-3.028 8.263-3.238-3.022 1.7-5.687 3.335-8.263 4.954-2.727 1.666-5.176 3.635-7.454 5.79-4.211 3.594-5.806 5.933-7.726 8.427-3.336 5.056-5.799 9.823-7.249 14.064-1.53 4.16-2.455 8.953-2.816 14.34z" fill="#96eb00"/><path d="M34.138 107.853c.357-4.813 1.031-9.608 2.816-14.34 2.73-7.231 6.358-13.451 10.033-17.6 2.642-3.144 4.776-4.803 7.067-6.827 5.543-4.57 10.448-7.2 13.592-8.807-2.502 1.463-4.665 2.763-7.662 4.837-2.478 1.852-4.177 2.866-8.055 6.827-7.31 7.535-11.04 15.87-12.01 18.756-1.72 4.821-3.696 12.531-3.808 17.154z"/></g></svg>