<svg xmlns="http://www.w3.org/2000/svg" viewBox="-153 -46 652 652" xmlns:v="https://vecta.io/nano"><path d="M468.1 163.7c-.2 19.2-15.9 34.6-35.1 34.5s-34.7-15.7-34.7-34.9 15.6-34.8 34.8-34.8c9.3-.1 18.3 3.6 24.9 10.3 6.6 6.5 10.2 15.5 10.1 24.9h0zM138 222.8c-58.4 0-101.4 42.3-101.4 99s43 99 101.4 99c58.6 0 101.8-42.3 101.8-99s-43.2-99-101.8-99h0zm0 47.2c28.5 0 50 21.4 50 51.8 0 30.5-21.5 51.8-50 51.8s-49.8-21.4-49.8-51.8c0-30.5 21.3-51.8 49.8-51.8h0zm222-47.2c-23.1 0-41.1 8-52.9 25.6v-20.6H258V416h50.6V313.5c0-28 21.8-40.6 47.9-40.6 21.8 0 29.9 4.3 29.9 4.3v-49.3c-8.4-3.5-17.4-5.2-26.4-5.1h0zm98.7 5h-50.6V416h50.6V227.8zm-435.7 0h-68v-50.7h-50.6v50.7h-36.3v45h36.3v72.8c0 48.7 23.9 75.1 70.4 75.1a106.31 106.31 0 0 0 63.4-20.6L17 362.2c-10.3 6.2-21.8 11.4-33.8 11.4-15.7 0-28.1-8.5-28.1-32v-68.8H23v-45zm0 0" fill="#f94f55"/></svg>