<svg version="1.1" id="TMU" xmlns="http://www.w3.org/2000/svg" x="0" y="0" viewBox="0 0 400 400" style="enable-background:new 0 0 400 400" xml:space="preserve">
  <style>
    .st2{fill:#fff}
  </style>
  <path style="fill:#ffdc00" d="M236.65 122.75H350v128.73H236.65z"/>
  <path style="fill:#004c9b" d="M50 148.52h274.3v128.73H50z"/>
  <path class="st2" d="M134.42 187.53h-22.05l-1.1 1.1v61.74l-1.1 1.1H96.93l-1.1-1.1v-61.74l-1.1-1.1H72.67l-1.1-1.1V175.4l1.1-1.1h61.74l1.1 1.1v11.03l-1.09 1.1zM221.55 251.48h-13.23l-1.11-1.11v-42.02h-1.1l-14.83 42.02-1.1 1.11h-12.13l-1.1-1.11-14.94-42.02h-1.1v42.02l-1.11 1.11h-13.23l-1.1-1.11V175.4l1.1-1.1h16.54l1.1 1.1 19.42 54.03h1.1l19.18-54.03 1.1-1.1h16.54l1.1 1.1v74.97zM298.6 221.87c0 19.92-11.06 30.98-30.98 30.98s-30.98-11.06-30.98-30.98V175.4l1.11-1.11h13.28l1.11 1.11v46.47c0 11.06 4.43 17.7 15.49 17.7s15.49-6.64 15.49-17.7V175.4l1.11-1.11h13.28l1.11 1.11v46.47z"/>
</svg>
