<svg xmlns="http://www.w3.org/2000/svg" viewBox="0 0 300 154.5"><path fill="#ffdc00" d="M186.7 0H300v128.7H186.7Z"/><path fill="#004c9b" d="M0 25.7h274.3v128.8H0Z"/><path fill="#fff" d="M84.4 64.7h-22l-1.1 1.1v61.8l-1.1 1H46.9l-1-1V65.8l-1.2-1h-22l-1.1-1.2v-11l1-1.1h61.8l1.1 1.1v11l-1 1.1zm87.2 64h-13.3l-1-1.1v-42H156l-14.8 42-1.1 1H128l-1.1-1-15-42h-1v42l-1.2 1H96.5l-1.1-1v-75l1-1.1H113l1.1 1.1 19.4 54h1.1l19.2-54 1.1-1.1h16.5l1.1 1.1v75zm77-29.6c0 19.9-11 31-31 31s-31-11.1-31-31V52.6l1.2-1.1H201l1.1 1.1v46.5c0 11 4.5 17.7 15.5 17.7s15.5-6.7 15.5-17.7V52.6l1.1-1.1h13.3l1.1 1.1z"/></svg>
