<svg xmlns="http://www.w3.org/2000/svg" width="22" height="44"><circle cx="11.001" cy="22" r="10.195" fill="#FFF"/><path fill="#CC2954" d="M13.035 11.191C7.066 10.068 1.316 13.996.192 19.962c-1.123 5.973 2.805 11.721 8.773 12.846 5.97 1.123 11.72-2.807 12.843-8.773 1.125-5.971-2.803-11.719-8.773-12.844zm7.791 12.659c-1.021 5.426-6.248 8.998-11.675 7.979a10.005 10.005 0 01-7.993-8.061 9.734 9.734 0 00.535 1.527 9.62 9.62 0 004.477 4.69 9.148 9.148 0 002.588.833c.296.049.593.082.89.102s.592.023.887.012c.293-.01.58-.035.865-.074s.569-.09.851-.154c.278-.064.558-.146.828-.24a7.919 7.919 0 001.549-.709c.244-.145.479-.297.704-.459a8.458 8.458 0 001.751-1.722 8.24 8.24 0 001.143-2.099 7.938 7.938 0 00.386-1.518c.039-.258.063-.514.078-.77a7.249 7.249 0 000-.766 8.494 8.494 0 00-.074-.768 8.686 8.686 0 00-.149-.745 7.58 7.58 0 00-.504-1.386 7.743 7.743 0 00-.752-1.233 7.014 7.014 0 00-.457-.543 6.936 6.936 0 00-1.043-.922 6.862 6.862 0 00-2.443-1.118 7.46 7.46 0 00-.647-.117 6.853 6.853 0 00-.647-.049 5.722 5.722 0 00-.643.016 7.484 7.484 0 00-.626.074 7.095 7.095 0 00-1.197.33 6.22 6.22 0 00-1.085.55 5.868 5.868 0 00-.928.738 5.687 5.687 0 00-1.284 1.861 5.36 5.36 0 00-.409 2.62 5.133 5.133 0 00.584 1.905 4.675 4.675 0 00.861 1.132 4.48 4.48 0 001.504.958c.27.104.547.178.822.224a3.924 3.924 0 001.217.012 3.668 3.668 0 001.105-.336c.225-.106.434-.235.623-.383.188-.146.359-.31.51-.481a3.42 3.42 0 00.386-.556c.104-.19.188-.392.251-.593a2.793 2.793 0 00-.02-1.735 2.571 2.571 0 00-.228-.481 2.192 2.192 0 00-.306-.392 2.098 2.098 0 00-.75-.502 1.875 1.875 0 00-.398-.104 1.646 1.646 0 00-.382-.012l-.069.008a.915.915 0 00-.511 1.603c.01.01.021.018.029.025h-.004a.914.914 0 01-.498 1.573 1.363 1.363 0 01-.488.002 1.745 1.745 0 01-.398-.104 2.065 2.065 0 01-.751-.502 2.18 2.18 0 01-.303-.393 2.684 2.684 0 01-.365-1.604c.018-.199.056-.4.116-.602a3.25 3.25 0 01.634-1.151c.148-.176.318-.338.508-.483.188-.146.397-.274.623-.386a3.991 3.991 0 011.103-.338c.131-.017.265-.03.397-.037.27-.016.545.002.819.047.276.044.554.117.823.223.271.102.535.232.789.395a4.566 4.566 0 011.326 1.279 4.86 4.86 0 01.842 2.342c.018.172.023.346.023.521s-.011.352-.027.527c-.02.177-.047.354-.082.531a5.573 5.573 0 01-.872 2.021 6.004 6.004 0 01-1.188 1.264 5.993 5.993 0 01-.486.348c-.17.105-.346.207-.526.299-.181.094-.368.176-.56.248s-.389.139-.588.189a5.877 5.877 0 01-1.235.211 5.49 5.49 0 01-.642.014 6.562 6.562 0 01-1.296-.17 6.884 6.884 0 01-3.48-2.048 7.197 7.197 0 01-1.489-2.46 7.46 7.46 0 01-.438-2.182 7.483 7.483 0 01-.002-.764c.013-.258.038-.514.075-.771a8.176 8.176 0 01.384-1.52 8.076 8.076 0 011.138-2.099 8.05 8.05 0 011.75-1.726 8.554 8.554 0 011.455-.858c.259-.119.524-.227.796-.318.271-.093.548-.176.826-.24a9.019 9.019 0 013.493-.126 9.45 9.45 0 011.748.464 9.272 9.272 0 012.408 1.338c4.033 3.129 3.675 7.615 3.438 8.875z"/></svg>