<svg xmlns="http://www.w3.org/2000/svg" viewBox="0 0 22 22"><circle cx="11.001" cy="11.001" r="10.195" fill="#fff"/><path d="M13.035.192C7.066-.931 1.316 2.997.192 8.962-.931 14.937 2.997 20.685 8.965 21.81c5.97 1.123 11.72-2.807 12.843-8.773 1.125-5.971-2.803-11.72-8.773-12.844zm7.791 12.659c-1.021 5.426-6.248 8.998-11.675 7.979a10.005 10.005 0 0 1-7.993-8.061 9.734 9.734 0 0 0 .535 1.527 9.62 9.62 0 0 0 4.477 4.69 9.148 9.148 0 0 0 2.588.833c.296.049.593.082.89.102s.592.023.887.012c.293-.01.58-.035.865-.074s.569-.09.851-.154c.278-.064.558-.146.828-.24a7.919 7.919 0 0 0 1.549-.71c.244-.144.479-.296.704-.458a8.458 8.458 0 0 0 1.751-1.722 8.24 8.24 0 0 0 1.143-2.1 7.938 7.938 0 0 0 .386-1.517c.039-.258.063-.514.078-.77a7.249 7.249 0 0 0 0-.766 8.494 8.494 0 0 0-.074-.768 8.686 8.686 0 0 0-.149-.745 7.58 7.58 0 0 0-.504-1.386 7.743 7.743 0 0 0-.752-1.233 7.014 7.014 0 0 0-.457-.543 6.936 6.936 0 0 0-1.043-.922 6.862 6.862 0 0 0-2.443-1.118 7.46 7.46 0 0 0-.647-.117 6.853 6.853 0 0 0-.647-.05 5.722 5.722 0 0 0-.643.017 7.484 7.484 0 0 0-.626.074 7.095 7.095 0 0 0-1.197.33 6.22 6.22 0 0 0-1.085.55 5.868 5.868 0 0 0-.928.738 5.687 5.687 0 0 0-1.284 1.86 5.36 5.36 0 0 0-.409 2.62 5.133 5.133 0 0 0 .584 1.906 4.675 4.675 0 0 0 .861 1.132 4.48 4.48 0 0 0 1.504.958c.27.104.547.178.822.224a3.924 3.924 0 0 0 1.217.012 3.668 3.668 0 0 0 1.105-.336c.225-.106.434-.235.623-.383.188-.146.359-.31.51-.481a3.42 3.42 0 0 0 .386-.556c.104-.19.188-.392.251-.593a2.793 2.793 0 0 0-.02-1.735 2.571 2.571 0 0 0-.228-.481 2.192 2.192 0 0 0-.306-.392 2.098 2.098 0 0 0-.75-.502 1.875 1.875 0 0 0-.398-.104 1.646 1.646 0 0 0-.382-.012l-.069.008a.915.915 0 0 0-.511 1.603c.01.01.021.018.029.025h-.004a.914.914 0 0 1-.498 1.573 1.363 1.363 0 0 1-.488.002 1.745 1.745 0 0 1-.398-.104 2.065 2.065 0 0 1-.751-.502 2.18 2.18 0 0 1-.303-.393 2.684 2.684 0 0 1-.365-1.604c.018-.2.056-.4.116-.602a3.25 3.25 0 0 1 .634-1.151c.148-.176.318-.338.508-.483.188-.146.397-.274.623-.386a3.991 3.991 0 0 1 1.103-.338c.131-.017.265-.03.397-.037.27-.016.545.002.819.047.276.044.554.117.823.223.271.102.535.232.789.395a4.566 4.566 0 0 1 1.326 1.279 4.86 4.86 0 0 1 .842 2.342c.018.172.023.346.023.52s-.011.353-.027.528c-.02.177-.047.354-.082.53a5.573 5.573 0 0 1-.872 2.022 6.004 6.004 0 0 1-1.188 1.264 5.993 5.993 0 0 1-.486.348c-.17.105-.346.207-.526.299-.181.094-.368.176-.56.248s-.389.139-.588.189a5.877 5.877 0 0 1-1.235.21 5.49 5.49 0 0 1-.642.015 6.562 6.562 0 0 1-1.296-.17 6.884 6.884 0 0 1-3.48-2.048 7.197 7.197 0 0 1-1.489-2.46 7.46 7.46 0 0 1-.438-2.182 7.483 7.483 0 0 1-.002-.764c.013-.258.038-.514.075-.771a8.176 8.176 0 0 1 .384-1.52 8.076 8.076 0 0 1 1.138-2.1 8.05 8.05 0 0 1 1.75-1.725 8.554 8.554 0 0 1 1.455-.858c.259-.12.524-.227.796-.318.271-.093.548-.176.826-.24a9.019 9.019 0 0 1 3.493-.126 9.45 9.45 0 0 1 1.748.464 9.272 9.272 0 0 1 2.408 1.338c4.033 3.129 3.675 7.615 3.438 8.875z" fill="#cc2954"/></svg>
