<svg xmlns="http://www.w3.org/2000/svg" width="57" height="57"><path d="M56.357 7.084H34s-4.374.097-4.374 4.373v38.699" fill="none" stroke="#1a4a34" stroke-width=".47999879999999995"/><path d="M56.762 22.928h-9.445s-1.944-.049-1.944 1.944v25.09M.416 7.274h22.357s4.374.096 4.374 4.374v38.508" fill="none" stroke="#1a4a34" stroke-width=".47999879999999995"/><path d="M.19 22.9H9.48s1.944-.05 1.944 1.943v25.119" fill="none" stroke="#1a4a34" stroke-width=".47999879999999995"/><path d="M56.81 21.275V8.882H35.231s-3.888.05-3.888 3.888v37.325h12.345V23.657s.097-2.378 2.382-2.382h10.74M.19 8.877h21.579s3.888.05 3.888 3.888V50.09H13.312V23.652s-.097-2.382-2.381-2.382H.19V8.877" fill="#1a4a34"/></svg>