<svg xmlns="http://www.w3.org/2000/svg" viewBox="0 0 64 64" aria-hidden="true"><g transform="translate(3.964 2.475)"><path d="M21.06 35.87c5.63 4.46 6.58 12.62 2.12 18.25-4.45 5.63-12.63 6.58-18.25 2.12C-.7 51.77-1.65 43.6 2.81 37.99c4.45-5.64 12.61-6.59 18.25-2.12" fill="#009ddf" clip-rule="evenodd"/><path d="M51.14 21.8c5.63 4.46 6.58 12.63 2.12 18.26-4.44 5.62-12.63 6.57-18.26 2.12-5.62-4.46-6.57-12.63-2.12-18.25 4.47-5.64 12.64-6.58 18.26-2.13" fill="#f39200" clip-rule="evenodd"/><path d="M23.57 2.81c5.62 4.45 6.57 12.63 2.12 18.26-4.46 5.62-12.63 6.56-18.26 2.11C1.81 18.72.86 10.56 5.31 4.94 9.77-.7 17.94-1.65 23.57 2.81" fill="#95c11f" clip-rule="evenodd"/></g></svg>
