<svg xmlns="http://www.w3.org/2000/svg" viewBox="0 0 1186 705"><path fill="#8725ee" d="M561 130.5a194 194 0 0 0-106.2 33.8 65 65 0 0 0-57-33.8H262.1v-65a65 65 0 0 0-129.8 0v65h-67a64.9 64.9 0 0 0 0 129.7h67v150.4c0 61.1 49.6 110.7 110.7 110.7h24.5c34.5 0 68.2-6.9 99.5-20v138.3a65 65 0 0 0 129.8-.2V507.8A194.7 194.7 0 0 0 759 320.5a193.4 193.4 0 0 0-198.1-190M262.2 260.3h104.9V339c0 28-22.6 50.5-50.5 50.5h-54.4zm302.3 129.2a64.9 64.9 0 1 1 0-129.8 64.9 64.9 0 0 1 0 129.8"/><path fill="#ffa704" d="M1185.4 172a64.9 64.9 0 1 1-129.8 0 64.9 64.9 0 0 1 129.8 0"/><path fill="#8725ee" d="M1009.8 142.2c10.3 3.8 15.4 15 15.4 26a95.7 95.7 0 0 0 95.7 95.7c8.5 0 16.3 6.5 16.3 15V506a198 198 0 0 1-8.6 57.9 198 198 0 0 1-189.7 140.4h-13.6A217 217 0 0 1 772 640.8l-11.6-11.6a64.2 64.2 0 0 1 90.7-90.7l11.6 11.6a88 88 0 0 0 62.6 25.9h13.6a70 70 0 0 0 67-49.6 70 70 0 0 0 3-19.2q-31.7 11.8-67.4 12a194.7 194.7 0 1 1 68.3-377M942 389.5a64.9 64.9 0 1 0 0-129.8 64.9 64.9 0 0 0 0 129.8"/></svg>