<svg xmlns="http://www.w3.org/2000/svg" width="311.839" height="311.839" viewBox="0 0 82.507 82.507"><g fill-rule="evenodd"><path d="M49.703 51.868c-1.283 0-2.568.092-3.853.275h-.146c-2.57.44-5.064 1.321-7.413 2.569-3.46 1.544-1.98 5.115.5 5.115.467 0 .97-.128 1.481-.418 3.514-2.162 7.463-3.33 11.56-3.33.355 0 .709.01 1.064.025.085.005.166.01.247.01 2.77 0 2.84-3.616.414-3.972a27.232 27.232 0 00-3.854-.275zM7.289 41.341c-1.247 0-2.511.9-2.614 2.655C4.528 48.4 3.133 52.73.565 56.4-.786 58.183.53 59.807 1.96 59.807c.514 0 1.041-.207 1.467-.691l.074-.074c1.688-1.908 3.156-4.11 4.184-6.459l.073-.073a27.235 27.235 0 001.982-7.633c.35-2.378-1.04-3.535-2.45-3.535z" fill="#148fe2"/><path d="M65.375 32.88c-.54 0-1.078.034-1.615.034h-.147c.366 1.102.44 2.35.294 3.523h.072c.734 0 1.468-.072 2.202-.072.27-.024.53-.034.789-.034.516 0 1.022.034 1.56.034h2.35c.733.072 1.54.146 2.274.146.734.073 1.468.147 2.128.22.66.074 1.322.147 1.91.221 1.173.146 2.128.293 2.788.367l1.101.22c.056.005.112.01.166.01.59 0 1.094-.358 1.228-.963.147-.66-.22-1.248-.88-1.468l.073-.074h-.146l-1.028-.293c-.734-.146-1.689-.367-2.936-.587-.587-.073-1.248-.22-1.908-.367-.734-.074-1.468-.22-2.202-.293-.808-.147-1.542-.22-2.35-.294-.806-.074-1.687-.147-2.494-.22-.808 0-1.615-.074-2.423-.074a8.948 8.948 0 00-.806-.034z" fill="#f9af2c"/><path d="M38.121 24.178c-6.48 0-12.765.996-17.739 3.23-4.33 1.836-7.706 5.505-9.029 10.056-2.421 8.293 2.35 16.955 10.643 19.303 1.472.448 2.976.666 4.466.666 3.639 0 7.204-1.302 10.067-3.748 4.918-4.331 8.955-9.028 19.23-9.91 4.184-.367 6.826-2.568 7.854-6.164.073-.368.22-.808.22-1.175.22-1.174.074-2.422-.22-3.596-.881-2.789-3.156-4.917-5.946-5.725-5.901-1.868-12.83-2.937-19.546-2.937z" fill="#148fe2"/><path d="M55.713 30.586c-3.393 0-5.882 3.705-4.064 6.951.892 1.652 2.499 2.442 4.103 2.442 1.958 0 3.913-1.177 4.558-3.396.734-2.495-.734-5.065-3.23-5.799a4.912 4.912 0 00-1.367-.198z" fill="#fff"/><path d="M56.87 32.881c-2.14 0-3.332 2.832-1.478 4.289.489.387 1.011.554 1.512.554 1.68 0 3.103-1.883 2.085-3.636v.147c0 .708-.595 1.208-1.204 1.208-.274 0-.551-.101-.779-.328-.806-.734-.366-2.056.734-2.056l-.146-.073a2.652 2.652 0 00-.725-.105z" fill="#333"/><path d="M58.286 22.682c-.186 0-.368.01-.546.029-.22 0-.513.073-.734.147l-.366.073h-.22c-.148 0-.294.146-.22.367 0 .073.072.147.145.22h.441c.147 0 .22 0 .367-.073h1.468c.734 0 1.394.22 2.055.44.367.147.734.367 1.101.514.367.22.661.44.954.734a7.021 7.021 0 011.468 1.835c.147.294.22.66.294 1.027.074.294.074.588.074.88 0 .295-.074.514-.147.808 0 .147-.074.368-.147.587 0 .074-.074.147-.074.221l-.074.147-.073.146v.367a.705.705 0 00.66.514h.221c5.578-1.688 4.257-7.56 1.102-8.955v.147a.429.429 0 00-.178-.048.2.2 0 00-.19.121c-.147.146-.074.293.074.367 2.495 1.542 3.01 5.431 0 6.826v-.146c.074-.294.074-.66.074-1.028 0-.367-.074-.808-.147-1.174a8.878 8.878 0 00-.514-1.248c-.44-.807-1.028-1.541-1.835-2.128-.293-.294-.661-.515-1.1-.734a6.479 6.479 0 00-1.248-.588c-.368-.073-.734-.22-1.102-.22a8.155 8.155 0 00-1.583-.176z" fill="#148fe2"/></g></svg>