<svg xmlns="http://www.w3.org/2000/svg" viewBox="0 0 104.06 104.06"><path fill="#2a9db2" d="M0 0h104.06v104.06H0z"/><path fill="#fff" d="M75.55 42.24a14 14 0 01-6.45-1.6v30.14a14.83 14.83 0 01-1.92 7.28 13.77 13.77 0 01-5.45 5.45 14.58 14.58 0 01-14.68 0A13.39 13.39 0 0144 81.2l-9.1 9.11a27.32 27.32 0 005.74 4.28 27.89 27.89 0 0027.58 0 25.65 25.65 0 0010.21-10.23 28 28 0 003.63-13.72v-30a13.89 13.89 0 01-6.51 1.6z"/><path fill="#fff" d="M53.54 61.52a10.73 10.73 0 01-10.59 0 10 10 0 01-4-4 11 11 0 01-1.46-5.43V35h26a13.83 13.83 0 01-1.63-6.44 13.69 13.69 0 011.68-6.51H37.47V5.83h-13v16.25h-5.01V35h5.06v17.22a24.2 24.2 0 003.19 12 21.73 21.73 0 008.86 8.76 23.82 23.82 0 0023.35 0A22.66 22.66 0 0066 68.09l-9.3-9.3a10.06 10.06 0 01-3.16 2.73zM80 20.65A8.31 8.31 0 0183.39 24a9.3 9.3 0 011.22 4.58 9.18 9.18 0 01-1.2 4.5 8.37 8.37 0 01-3.36 3.36 9.2 9.2 0 01-9.06 0 8.38 8.38 0 01-3.36-3.36 9.23 9.23 0 01-1.19-4.5A9.13 9.13 0 0167.69 24a8.45 8.45 0 013.41-3.36 9.07 9.07 0 018.9.01z"/></svg>