<svg xmlns="http://www.w3.org/2000/svg" viewBox="0 0 122.8 124.5"><g fill="#008635"><path d="M38.77 51.71c1.5-19.14 9.57-37.7 14.83-51.22C28.45 3.72 8.06 22.4 1.9 46.85c4.14 1.46 17.78 5.62 36.86 4.87M53.1 51c31.28-3.67 53.65-23.92 59.64-29.91A60.75 60.75 0 0 0 61.94.17C58.1 10.3 51.09 31.55 51.14 51.22L53.1 51M46.18 58.55c1.06 10.05 4.43 19.2 11.66 25.54 17.4 15.26 41.08 16.54 52.14 16.2a62.37 62.37 0 0 0 12.8-38.03c0-8.37-1.71-16.37-4.65-23.67-5.28 3.13-29.6 16.46-64.83 19.54-2.47.2-4.83.34-7.12.42"/><path d="M49.23 92.1C41.57 81.53 38.7 70.04 38.54 58.57c-20.88-.55-33.6-6.32-37.37-8.3a64.57 64.57 0 0 0-1.17 12c0 34.4 27.5 62.24 61.39 62.24a59.56 59.56 0 0 0 24.98-5.35c-12.45-5.44-27.86-14.25-37.14-27.08"/></g></svg>
