<svg xmlns="http://www.w3.org/2000/svg" viewBox="206 369.5 35 35" width="35" height="35"><path fill="#00a6ca" d="M223.5 369.5c-6.5 0-12.2 3.5-15.2 8.8-1.1 2.1-1.3 3.9-.4 5.4 1 1.8 3.3 2 4.5 2h2.2l-.8 2.5c-.5 1.5-.3 3.2.5 4.3.8 1.1 2 1.7 3.5 1.7 1 0 2.1-.2 3.1-.6-.3-.4-.5-.8-.7-1.3-.1-.4-.3-.8-.3-1.3-.6.3-1.3.4-2 .4-.4 0-1-.1-1.3-.6-.3-.4-.4-1-.2-1.7l1.1-3.4h3.5l.9-2.9h-3.4l1.5-4.7h-3l-1.5 4.7h-3.2c-1 0-1.6-.3-1.9-.8-.3-.6 0-1.8.8-3.2v-.1c2.7-3.9 7.1-6.5 12.2-6.5 8.1 0 14.7 6.6 14.7 14.7s-6.6 14.7-14.7 14.7c-7.2 0-13.2-5.2-14.5-12l-2.8.6c1.6 8.1 8.7 14.3 17.3 14.3 9.7 0 17.6-7.9 17.6-17.6.1-9.5-7.8-17.4-17.5-17.4z"/><path fill="#00a6ca" d="M234.7 391.9c-.7 0-1.6-.1-2.2-.5-.2-.2-.5-.4-.6-.9 0-.2 0-.5.1-.8l2.2-6.7h-3l-1.9 5.8c-.5 1.5-2.1 2.7-3.5 2.7-.4 0-.9-.1-1.1-.5-.2-.3-.4-.7-.1-1.4l2.2-6.7h-3l-1.9 5.8c-.5 1.4-.3 2.9.5 4 .8 1 1.9 1.6 3.4 1.6 1.4 0 2.9-.6 4.1-1.6.4.6.9 1 1.6 1.3 1 .3 1.6.3 2.3.3.3 0 .7-.1.8-.1.1-.1.1-.2.2-.3l.3-.6.3-.6.3-.6c.1-.1.1-.3.2-.4-.3.2-.7.2-1.2.2z"/></svg>