<svg xmlns="http://www.w3.org/2000/svg" class="svg-illustration svg-illustration--transip-logo" width="41.2" height="41.2"><path d="M12.7 22.3c-.1 2.5-.3 2.8-3.2 2.898h-.8c-2.4-.1-3.1-.6-3.1-2.7V16.6h9v-2.1h-9v-2.8H2.9v2.9H0v2.1h2.9v6.6c0 1 .3 2.1 1.1 2.8.8.8 2.2 1.2 4.3 1.2h1.2c2.5 0 3.8-.5 4.6-1.3.7-.802.8-2 .8-3.2v-1.5h-2.3v1z"/><path fill="#187dc1" d="M17.6 9.9h2.7v2.2h-2.7zm0 4.6h2.7V27h-2.7zm20.8 7.6c0 2.7-1.3 3.1-4 3.1h-4c-2.4 0-4.1-.4-4.2-3.2v-2.3c0-2 1-3.3 3.9-3.3h4.5c3.1.1 3.8 1 3.8 3.3zm.7-6.7c-1.2-.8-2.8-1-4.4-1h-4.3c-1.8 0-3.4.5-4.3 1.6v-1.5h-2.5v16.8h2.7V26c.6.9 1.8 1.3 3.8 1.3h4.3c2.3 0 4-.3 5.2-1.2 1.1-.9 1.6-2.3 1.6-4.3v-2.1c-.1-2.2-.9-3.5-2.1-4.3z"/></svg>