<svg xmlns="http://www.w3.org/2000/svg" xml:space="preserve" style="fill-rule:evenodd;clip-rule:evenodd;stroke-linejoin:round;stroke-miterlimit:1.41421" viewBox="0 0 85 17"><path d="M5.922 5.121H4.776a.324.324 0 0 1-.331-.317V1.857a.326.326 0 0 0-.332-.318h-1.79a.326.326 0 0 0-.332.318v2.947a.324.324 0 0 1-.332.317H.332A.325.325 0 0 0 0 5.438v1.405c0 .176.149.318.332.318h1.327c.184 0 .332.142.332.317v6.489c0 1.874 1.264 2.894 2.974 2.894h.957a.326.326 0 0 0 .332-.318v-1.57a.303.303 0 0 0-.303-.295h-.614c-.62 0-.892-.498-.892-1.138V7.478c0-.175.148-.317.331-.317h1.146a.325.325 0 0 0 .332-.318V5.438a.325.325 0 0 0-.332-.317Zm79.01 11.188-3.687-5.252a.34.34 0 0 1 0-.394l3.515-5.015c.165-.235-.011-.551-.307-.551h-2.025a.373.373 0 0 0-.315.168l-2.055 3.186a.378.378 0 0 1-.629 0l-2.056-3.186a.371.371 0 0 0-.314-.168h-2.025c-.296 0-.472.316-.307.551l3.515 5.015a.34.34 0 0 1 0 .394l-3.688 5.252c-.165.236.011.552.307.552h2.028a.377.377 0 0 0 .312-.163l2.231-3.333a.378.378 0 0 1 .623 0l2.231 3.333a.375.375 0 0 0 .311.163h2.028c.296 0 .472-.316.307-.552Zm-13.999-6.35h-4.476c-.216 0-.396-.18-.369-.385.203-1.578 1.241-2.413 2.619-2.413 1.379 0 2.396.836 2.596 2.413.026.205-.154.385-.37.385Zm-2.226-4.981c-2.379 0-5.105 1.471-5.105 6.048 0 4.815 2.949 5.977 5.477 5.977 1.471 0 2.836-.429 3.975-1.418a.348.348 0 0 0 .021-.5l-1.073-1.14a.38.38 0 0 0-.518-.023c-.723.583-1.598.899-2.455.899-1.065 0-2.031-.427-2.552-1.257-.244-.408-.371-.816-.409-1.367a.364.364 0 0 1 .368-.388h6.983a.361.361 0 0 0 .369-.353v-1.307c0-3.226-2.354-5.171-5.081-5.171ZM62.383.354h-1.224c-1.909 0-3.346.996-3.346 3.177v1.243a.354.354 0 0 1-.362.347h-1.267c-.2 0-.362.155-.362.346v1.347c0 .192.162.347.362.347h1.267c.2 0 .362.155.362.346v9.007c0 .191.163.347.362.347h1.729c.2 0 .362-.156.362-.347V7.507c0-.191.163-.346.363-.346h1.754c.2 0 .362-.155.362-.347V5.467a.354.354 0 0 0-.362-.346h-1.754a.355.355 0 0 1-.363-.347V3.769c0-.735.273-1.234 1.091-1.234h1.026c.2 0 .362-.155.362-.346V.7a.354.354 0 0 0-.362-.346ZM53.214 0h-.032c-.874 0-1.583.679-1.583 1.516s.709 1.515 1.583 1.515h.032c.875 0 1.584-.678 1.584-1.515C54.798.679 54.089 0 53.214 0Zm.734 5.121h-1.499a.466.466 0 0 0-.477.456v10.827c0 .252.213.457.477.457h1.499a.468.468 0 0 0 .477-.457V5.577a.467.467 0 0 0-.477-.456Zm-6.745 4.957c-.471-.119-.966-.167-1.536-.238-.521-.071-1.041-.071-1.611-.094-1.264-.071-1.661-.593-1.661-1.139 0-.83.545-1.446 2.157-1.446 1.209 0 2.107.336 2.987.876a.425.425 0 0 0 .564-.1l.881-1.203a.38.38 0 0 0-.086-.539c-1.122-.781-2.445-1.217-4.346-1.217-2.578 0-4.61 1.21-4.61 3.606 0 1.802 1.214 2.893 2.998 3.248.893.167 1.81.048 2.702.191.867.141 1.586.379 1.586 1.256 0 1.02-1.041 1.542-2.454 1.542-1.519 0-2.615-.405-3.597-1.231a.427.427 0 0 0-.596.035l-.973 1.13a.387.387 0 0 0 .054.559c1.482 1.151 3.133 1.689 4.914 1.689 2.875 0 5.106-1.352 5.106-3.605 0-2.087-1.066-2.941-2.479-3.32Zm-13.25-5.1c-1.363 0-2.44.439-3.222 1.376-.033.04-.074.052-.074 0v-.831a.436.436 0 0 0-.444-.426h-1.565a.436.436 0 0 0-.444.426v10.912c0 .235.199.426.444.426h1.565a.436.436 0 0 0 .444-.426V9.864c0-1.636 1.066-2.561 2.479-2.561 1.412 0 2.478.925 2.478 2.561v6.571c0 .235.199.426.444.426h1.564a.436.436 0 0 0 .445-.426V9.034c0-2.657-2.206-4.056-4.114-4.056Zm-10.065 7.756c0 .688-.149 1.186-.471 1.494-.397.403-1.19.593-2.355.593-1.685 0-2.379-.688-2.379-1.518 0-.877.694-1.447 2.181-1.447h3.024v.878Zm1.016-6.925c-.892-.593-2.156-.831-3.717-.831-1.589 0-2.813.406-3.693 1.217a.372.372 0 0 0 .01.544l1.05.989a.414.414 0 0 0 .557.003c.446-.393 1.138-.57 2.199-.57 1.785 0 2.578.379 2.578 1.518v1.28h-3.495c-2.651 0-3.99 1.565-3.99 3.463 0 1.209.546 2.229 1.562 2.869.718.451 1.66.712 2.775.712 1.685 0 2.707-.615 3.049-1.186.045-.075.099-.045.099 0v.658c0 .213.18.386.403.386h1.622a.395.395 0 0 0 .403-.386V8.797c0-1.423-.52-2.348-1.412-2.988Zm-8.71-.291a3.98 3.98 0 0 0-2.047-.54c-1.363 0-2.429.451-3.222 1.376h-.074v-.917a.348.348 0 0 0-.356-.34H8.753a.348.348 0 0 0-.356.34v11.084c0 .187.159.34.356.34h1.742a.349.349 0 0 0 .356-.34V9.793c0-1.779 1.214-2.49 2.429-2.49.557 0 .925.082 1.362.37a.36.36 0 0 0 .484-.088l1.164-1.583a.332.332 0 0 0-.096-.484Z" style="fill:#223657"/></svg>