<svg xmlns="http://www.w3.org/2000/svg" viewBox="0 0 22.43 19.65"><path fill="#223657" d="M3.97 0C3.3 0 2.68.04 2.62.07c-.1.06-.12.42-.15 2.18-.03 1.98-.04 2.12-.18 2.22-.1.08-.4.1-1.09.1-1.25 0-1.2-.06-1.2 1.38 0 1.38-.05 1.33 1.25 1.33.73 0 .94.02 1.03.11l.14.13.05 4.7c.04 4.7.04 4.7.22 5.12.35.88 1.07 1.6 1.94 1.94.36.15.6.18 1.6.2 1.01.03 1.19.01 1.3-.1.1-.1.12-.3.12-1.26 0-.83-.02-1.17-.09-1.22a2.2 2.2 0 0 0-.69-.12c-.68-.06-.9-.17-1.13-.63-.14-.27-.15-.46-.18-4.37L5.54 7.7l.21-.22c.2-.2.23-.2.98-.2.73 0 .8-.02.96-.2.18-.16.18-.21.18-1.2 0-1.34.03-1.3-1.19-1.3-.84 0-.9-.01-1.01-.17-.1-.14-.12-.48-.12-2.18 0-1.98 0-2-.17-2.11-.13-.1-.4-.12-1.4-.12zm7.64 4.65c-1.25 0-1.34 0-1.5.16a.4.4 0 0 0-.12.35c.02.11 1 1.66 2.18 3.45a49.44 49.44 0 0 1 2.16 3.41c0 .1-1.02 1.68-2.25 3.54-2.4 3.6-2.46 3.71-2.09 3.97.14.1.41.12 1.43.12.76 0 1.32-.03 1.44-.08.12-.06.62-.8 1.51-2.22.73-1.18 1.4-2.2 1.5-2.25.37-.24.45-.15 1.9 2.18a16.51 16.51 0 0 0 1.56 2.29c.1.05.71.08 1.45.08 1.26 0 1.28 0 1.46-.19.1-.1.19-.23.19-.29 0-.07-.78-1.29-1.74-2.72-2.3-3.45-2.84-4.3-2.84-4.46 0-.07.98-1.6 2.18-3.4 2.29-3.44 2.36-3.57 2-3.82a9.25 9.25 0 0 0-2.94-.02c-.08.06-.72 1.03-1.42 2.16a14.45 14.45 0 0 1-1.42 2.07c-.37.08-.46-.03-1.74-2.08a22.79 22.79 0 0 0-1.41-2.14c-.12-.09-.44-.11-1.5-.11z"/></svg>
