<svg xmlns="http://www.w3.org/2000/svg" fill="#1a1818" viewBox="0 0 51.28 51.28"><path d="m12.85 35.86-4.4-21.74h4.65l4.23 20.9c.03.14.06.2.16.2s.12-.07.15-.2l3.41-17.01a4.73 4.73 0 0 1 5.62-3.64 4.73 4.73 0 0 1 3.64 3.64l3.29 17.01c.03.14.06.2.16.2s.12-.07.15-.2l4.23-20.9h4.66l-4.42 21.74a4.76 4.76 0 0 1-4.65 3.74 4.71 4.71 0 0 1-4.61-3.74l-3.29-17.01c-.03-.14-.05-.2-.15-.2s-.13.07-.16.2l-3.41 17.01a4.73 4.73 0 0 1-5.62 3.64 4.73 4.73 0 0 1-3.64-3.64m12.79 15.42a25.64 25.64 0 1 1 0-51.28 25.64 25.64 0 0 1 0 51.28m0-47.9a22.26 22.26 0 1 0 .01 44.53 22.26 22.26 0 0 0-.01-44.53"/></svg>