<svg viewBox="441.3 404.5 118.2 104.1" xmlns="http://www.w3.org/2000/svg"><g fill="#cb2d2f"><path d="m441.8 443.7h-.2c-.2 0-.4-.2-.4-.4 0-.1 0-.1 0-.2 14.3-32.6 52.4-47.5 85-33.2 14.8 6.5 26.7 18.4 33.2 33.2.1.2 0 .4-.2.5h-.1-.2c-5.5-3-11.8-4.5-18-4.4-7.1-.2-14.1 1.7-20 5.7-.1 0-.2 0-.2 0h-.2c-12.3-7.6-27.8-7.6-40.1 0-.1 0-.2 0-.2 0h-.2c-5.9-3.9-12.9-5.9-20-5.7-6.4-0-12.6 1.5-18.2 4.5z"/><path d="m503.8 444.1c0-.2-.1-.3-.3-.3-1.1-.1-2.1-.2-3.2-.2-.9 0-1.8 0-2.7 0-.2 0-.3.1-.3.3v52.8c0 3-2.4 5.4-5.4 5.4-2.3 0-4.4-1.5-5.1-3.6-.7-1.7-2.6-2.4-4.2-1.8-1.4.6-2.3 2.1-1.9 3.7 2 6.2 8.7 9.7 14.9 7.7 4.9-1.6 8.3-6.2 8.2-11.4z"/></g></svg>
