<svg xmlns="http://www.w3.org/2000/svg" viewBox="0 0 709 900"><path d="M683 605a274 274 0 0 1-155 223c-55 30-121 49-205 46-83-2-145-22-197-56-49-33-92-81-99-153-5-41 7-74 24-98 18-26 41-44 74-53 39-10 80-1 105 12 34 18 54 51 49 103-5-28-40-53-70-38-8 4-17 13-20 25-1 6 1 14-4 19-23-4-30-27-29-54-12 15-27 32-27 59s14 43 28 57c3 4 14 11 14 15 0 8-15 10-23 11a127 127 0 0 1-31 1c10 14 23 25 37 34 28 19 71 30 119 21l30-7c6-2 23-10 28-5 4 3 0 14-1 18-6 17-17 31-26 42a208 208 0 0 0 169-113c3-6 11-22 17-22 9-1 13 19 15 27a153 153 0 0 1 0 56c2 1 4-1 4-2 33-30 61-81 47-147l-8-28c-3-7-8-21-3-27 7-6 31 3 38 5l33 12c-39-95-143-129-261-149-38-7-78-11-110-27 49-6 84-26 121-48a646 646 0 0 0 74-52c6-5 18-17 26-16 10 1 11 20 12 31a121 121 0 0 1-3 38c26-17 48-41 52-80 3-22-2-39-10-54-9-14-20-24-29-38 11-16 44-17 67-12-18-24-44-46-82-51-21-3-41 0-60 5-18 4-34 13-53 12 5-32 29-46 50-62-41-1-74 10-104 22-58 23-111 55-168 83l-43 20c-14 5-35 13-52 9s-13-21-5-35c12-20 33-37 50-51a463 463 0 0 1 82-51c62-31 127-52 213-56 103-5 184 32 215 100 17 38 15 91 1 131-10 29-25 52-42 76-7 9-16 21-13 34 4 13 22 23 33 31 60 43 116 99 106 207m-277 8c31-31 58-114 12-146 73 15 134 46 171 98-14-3-29-12-47-7-24 6-8 42-3 59a131 131 0 0 1-21 124c1-19-2-37-9-49-5-7-13-16-25-13-4 2-8 5-11 9-10 12-16 27-25 41-25 38-66 67-116 79 7-9 25-49 5-56-12-4-39 7-50 10a219 219 0 0 1-53 7c-40 0-63-14-86-32 17-3 40-8 36-29-1-7-11-15-16-20-6-6-12-11-18-19-11-17-11-36-2-57 5 13 13 30 28 34 8 3 19 2 23-5s1-12 3-20c1-12 13-23 30-21 32 3 46 48 35 84 10-7 19-20 26-32 49 3 85-12 113-39M257 365c22-16 47-30 70-46 15-11 43-28 32-56-12-32-71-37-115-37-51 0-103 1-150-1 96-39 170-97 276-125-2 6-13 15-18 26-5 9-11 29 0 35 12 5 33-4 44-8 14-4 27-8 44-10 39-4 63 8 83 23-22 1-50 7-48 29 0 11 17 25 23 33 8 10 15 22 16 39 2 28-10 53-24 69 2-25-3-56-29-53-10 1-20 10-27 17-41 32-86 63-136 84a196 196 0 0 1-32 12c-10 2-25 6-37 0 4-15 17-23 28-31m312-5c23-32 45-65 58-107 14-47 11-100-7-139C586 40 509 5 405 0h-23A545 545 0 0 0 28 156c-14 16-35 50-15 72 27 28 109 23 170 23 41 0 87 0 125 7 12 2 27 7 27 16 2 11-23 25-31 30-25 17-49 29-73 50-14 12-34 28-25 53 10 30 56 41 91 48 44 9 105 8 117 46 6 18 1 39-3 54-16 46-51 74-113 73 6-51-10-86-37-109-26-23-67-37-116-33A160 160 0 0 0 0 640v15c6 86 50 140 104 179 56 40 131 62 221 66h29c103-6 184-39 244-89 60-49 106-117 111-221v-22c-3-55-21-94-47-126-26-33-61-55-92-82"/></svg>
