<svg xmlns="http://www.w3.org/2000/svg" viewBox="0 0 62.42 62.38"><defs><linearGradient id="a" x1="-361.2" x2="-361.2" y1="426.05" y2="427.05" gradientTransform="matrix(62.42 0 0 -62.38 22577.38 26639.17)" gradientUnits="userSpaceOnUse"><stop offset="0" stop-color="#0052cc"/><stop offset="1" stop-color="#2684ff"/></linearGradient></defs><path fill="url(#a)" d="M55 0H7.42A7.43 7.43 0 0 0 0 7.41v47.52a7.42 7.42 0 0 0 7.39 7.45H55A7.42 7.42 0 0 0 62.42 55V7.41A7.43 7.43 0 0 0 55 0ZM26.92 44.93a2.48 2.48 0 0 1-2.49 2.47H14a2.47 2.47 0 0 1-2.46-2.47V14A2.47 2.47 0 0 1 14 11.51h10.4A2.49 2.49 0 0 1 26.89 14Zm24-14.21a2.48 2.48 0 0 1-2.47 2.47H38a2.49 2.49 0 0 1-2.47-2.47V14A2.49 2.49 0 0 1 38 11.51h10.4A2.47 2.47 0 0 1 50.88 14Z"/></svg>