<svg xmlns="http://www.w3.org/2000/svg" class="d-block" width="29.379" height="29.379" viewBox="0 0 200 199.774"><path d="M25-.154c-13.807 0-25 11.2-25 25v150c0 13.806 11.2 25 25 25h150c13.806 0 25-11.2 25-25v-150c0-13.807-11.2-25-25-25zm99.997 26c-6.627 0-11.997 5.372-11.997 12.006v63.988c0 6.63 5.373 12.006 11.997 12.006h37.006c6.626 0 11.997-5.372 11.997-12.006V37.852c0-6.63-5.373-12.006-11.997-12.006zm-87 0C31.37 25.846 26 31.213 26 37.851v113.99c0 6.63 5.373 12.005 11.997 12.005h37.006c6.626 0 11.997-5.367 11.997-12.005V37.851c0-6.63-5.373-12.005-11.997-12.005z" fill="#0079bf" fill-rule="evenodd"/></svg>