<svg xmlns="http://www.w3.org/2000/svg" viewBox="0 0 90 90"><circle cx="45" cy="45" r="45" fill="#d71920"/><path fill="#fff" d="M65.26 11.36c-8.89.21-19.48 4.04-29.33 10.4 10.53-6.28 21.92-9.07 30-6.57 12.58 3.92 12.33 19.26-.57 34.25-7.84 9.12-18.56 16.01-28.58 19.13-4.3 1.22-8.3 1.45-11.5.46-5.2-1.62-6.13-5.94-5.18-11.73 1.23-5.19 4.86-12.44 4.86-12.44l7.73-.02 1.43-3.08-7.75.02 4.82-10.33h-3.73l-.2.01A42.32 42.32 0 0 1 8.3 42.03L6.99 44.9l5.4-.01c-1.29 2.54-2.76 5.15-3.7 7.42l-.5 1.27c-2.26 6.19-2.5 11.83-.73 16.22a45.6 45.6 0 0 0 4.74 5.98c1.35.96 2.93 1.74 4.76 2.3C31.76 82.7 56.4 71.74 72 53.6c10.38-12.07 14.15-24.25 11.16-32.43a45.16 45.16 0 0 0-4.83-6.4 16.87 16.87 0 0 0-4.85-2.36 26.1 26.1 0 0 0-8.22-1.04z"/></svg>
