<?xml version="1.0" encoding="UTF-8" standalone="no"?>
<svg
   version="1.1"
   id="svg2"
   width="288"
   height="61.226665"
   viewBox="0 0 288 61.226665"

   xmlns="http://www.w3.org/2000/svg"
   xmlns:svg="http://www.w3.org/2000/svg">
  <defs
     id="defs6" />
  <sodipodi:namedview
     id="namedview4"
     pagecolor="#ffffff"
     bordercolor="#000000"
     borderopacity="0.25"
     inkscape:showpageshadow="2"
     inkscape:pageopacity="0.0"
     inkscape:pagecheckerboard="0"
     inkscape:deskcolor="#d1d1d1" />
  <g
     id="g8"
     inkscape:groupmode="layer"
     inkscape:label="ink_ext_XXXXXX"
     transform="matrix(1.3333333,0,0,-1.3333333,0,61.226667)">
    <g
       id="g10"
       transform="scale(0.1)">
      <path
         d="m 2037.17,117.254 -13.27,1.434 v -0.579 l 10.69,-4.105 24.93,-14.2306 v -4.1992 l -25.02,-14.9961 -10.6,-4.1992 v -0.4805 l 13.17,1.9102 h 34.77 V 65.3945 h -66.85 v 11.9414 l 30.56,17.8555 7.64,3.1524 v 0.3789 l -7.83,2.8673 -30.37,16.902 v 11.844 h 66.85 v -13.082 h -34.67"
         style="fill:#231f20;fill-opacity:1;fill-rule:nonzero;stroke:none"
         id="path12" />
      <path
         d="m 2004.99,150.637 v 13.082 h 66.85 v -13.082 h -66.85"
         style="fill:#231f20;fill-opacity:1;fill-rule:nonzero;stroke:none"
         id="path14" />
      <path
         d="m 2069.1,228.172 c 1.46,-2.039 2.5,-4.633 3.13,-7.785 0.63,-3.149 0.94,-6.383 0.94,-9.692 0,-4.011 -0.61,-7.816 -1.86,-11.414 -1.24,-3.597 -3.24,-6.765 -6.01,-9.504 -2.77,-2.738 -6.37,-4.918 -10.79,-6.539 -4.43,-1.625 -9.79,-2.437 -16.1,-2.437 -6.56,0 -12.04,0.91 -16.47,2.722 -4.43,1.817 -7.99,4.168 -10.7,7.071 -2.7,2.894 -4.64,6.125 -5.82,9.687 -1.18,3.571 -1.77,7.133 -1.77,10.699 0,3.821 0.26,7.051 0.76,9.696 0.51,2.64 1.12,4.82 1.82,6.539 l 11.08,-2.578 c -0.7,-1.465 -1.21,-3.199 -1.53,-5.203 -0.32,-2.008 -0.48,-4.442 -0.48,-7.309 0,-5.281 1.88,-9.531 5.65,-12.746 3.76,-3.219 9.6,-4.824 17.51,-4.824 3.45,0 6.59,0.379 9.43,1.144 2.84,0.766 5.26,1.926 7.27,3.489 2.01,1.558 3.57,3.5 4.69,5.824 1.12,2.32 1.67,5.015 1.67,8.07 0,2.863 -0.28,5.281 -0.86,7.258 -0.57,1.973 -1.3,3.691 -2.19,5.156 l 10.63,2.676"
         style="fill:#231f20;fill-opacity:1;fill-rule:nonzero;stroke:none"
         id="path16" />
      <path
         d="m 2016.27,265.719 c 0,-1.336 0.03,-2.656 0.09,-3.961 0.07,-1.309 0.19,-2.309 0.38,-3.008 h 19.39 v 5.539 c 0,3.625 -0.82,6.524 -2.48,8.688 -1.66,2.164 -4.39,3.25 -8.21,3.25 -2.87,0 -5.11,-0.891 -6.74,-2.676 -1.62,-1.785 -2.43,-4.395 -2.43,-7.832 z m -10.03,-20.055 c -0.25,1.465 -0.49,3.039 -0.72,4.727 -0.22,1.687 -0.4,3.371 -0.52,5.062 -0.13,1.684 -0.23,3.324 -0.29,4.918 -0.06,1.594 -0.1,3.055 -0.1,4.395 0,3.117 0.29,6.187 0.87,9.214 0.57,3.024 1.56,5.731 2.95,8.118 1.41,2.386 3.33,4.297 5.78,5.73 2.46,1.434 5.53,2.149 9.22,2.149 5.48,0 9.93,-1.274 13.37,-3.821 3.44,-2.547 5.82,-5.953 7.16,-10.218 l 2.96,4.679 25.5,15.281 v -15.089 l -26.16,-15.188 -1.25,-6.871 h 27.41 v -13.086 h -66.18"
         style="fill:#231f20;fill-opacity:1;fill-rule:nonzero;stroke:none"
         id="path18" />
      <path
         d="m 2038.41,317.48 c 3.38,0 6.48,0.29 9.31,0.86 2.84,0.574 5.27,1.449 7.31,2.625 2.04,1.18 3.63,2.691 4.78,4.535 1.14,1.848 1.71,4.043 1.71,6.594 0,4.644 -1.81,8.242 -5.44,10.789 -3.63,2.547 -9.52,3.82 -17.67,3.82 -3.25,0 -6.27,-0.269 -9.07,-0.808 -2.8,-0.543 -5.25,-1.387 -7.35,-2.536 -2.1,-1.144 -3.74,-2.64 -4.92,-4.488 -1.18,-1.844 -1.77,-4.105 -1.77,-6.777 0,-4.649 1.86,-8.246 5.59,-10.793 3.72,-2.547 9.57,-3.821 17.52,-3.821 z m 0,-13.753 c -11.14,0 -19.72,2.453 -25.73,7.355 -6.02,4.902 -9.03,11.902 -9.03,21.012 0,4.773 0.83,8.941 2.48,12.508 1.66,3.562 4.01,6.527 7.07,8.882 3.06,2.356 6.72,4.11 10.98,5.254 4.27,1.145 9.01,1.719 14.23,1.719 11.15,0 19.72,-2.469 25.74,-7.402 6.02,-4.934 9.02,-11.922 9.02,-20.961 0,-4.844 -0.82,-9.043 -2.48,-12.61 -1.65,-3.566 -4.01,-6.507 -7.06,-8.832 -3.06,-2.324 -6.72,-4.058 -10.99,-5.207 -4.26,-1.144 -9.01,-1.718 -14.23,-1.718"
         style="fill:#231f20;fill-opacity:1;fill-rule:nonzero;stroke:none"
         id="path20" />
      <path
         d="M 517.895,358.863 H 754.191 V 310.367 H 667.32 V 67.043 h -62.558 v 243.324 h -86.867 v 48.496"
         style="fill:#231f20;fill-opacity:1;fill-rule:nonzero;stroke:none"
         id="path22" />
      <path
         d="m 1116.1,358.863 h 209.26 v -48.496 h -146.63 v -68.609 h 134.93 v -48.461 h -134.93 v -77.758 h 151.04 V 67.043 H 1116.1 v 291.82"
         style="fill:#231f20;fill-opacity:1;fill-rule:nonzero;stroke:none"
         id="path24" />
      <path
         d="m 1560.09,67.043 -107.15,194.055 -0.81,-0.875 V 67.043 h -58.55 v 291.82 h 77.56 l 106.54,-190.691 0.81,0.805 v 189.886 h 58.55 V 67.043 h -76.95"
         style="fill:#231f20;fill-opacity:1;fill-rule:nonzero;stroke:none"
         id="path26" />
      <path
         d="m 1798.55,115.566 h -32.42 v 192.497 h 32.42 c 74.28,0.828 85.22,-48.633 85.22,-95.106 0,-46.508 -10.94,-98.285 -85.22,-97.391 z m 4.3,243.247 h -99.31 V 67.0703 h 99.31 c 91,-0.832 147.55,44.4527 147.55,145.8867 0,101.434 -56.55,146.715 -147.55,145.856"
         style="fill:#231f20;fill-opacity:1;fill-rule:nonzero;stroke:none"
         id="path28" />
      <path
         d="m 2125.12,356.645 h -10.66 v -28.286 h -4.22 v 28.286 h -10.56 v 3.789 h 25.44 v -3.789"
         style="fill:#231f20;fill-opacity:1;fill-rule:nonzero;stroke:none"
         id="path30" />
      <path
         d="m 2160,328.359 h -4.04 v 26.852 l -9.32,-26.852 h -3.81 l -9.17,27.301 -0.1,-27.301 h -4.1 v 32.098 h 6.36 l 7.56,-22.711 c 0.06,-0.082 0.33,-0.941 0.86,-2.664 0.35,-1.004 0.57,-1.699 0.63,-2.09 l 1.83,5.145 7.64,22.32 h 5.66 v -32.098"
         style="fill:#231f20;fill-opacity:1;fill-rule:nonzero;stroke:none"
         id="path32" />
      <path
         d="m 865.465,308.883 h 73.953 c 24.805,-0.352 40.395,-9.293 43.105,-30.082 0,-0.125 0.02,-0.246 0.043,-0.352 0.082,-0.722 0.122,-1.429 0.164,-2.133 0.063,-0.722 0.083,-1.449 0.125,-2.152 0.02,-0.414 0.04,-0.871 0.04,-1.285 0.023,-0.516 0.043,-1.035 0.023,-1.551 -0.25,-25.32 -16.355,-38.777 -43.5,-39.152 H 865.465 Z M 993.434,190.086 c 32.486,11.926 55.696,43.394 55.696,80.352 0,4.41 -0.33,8.714 -0.98,12.941 -4.04,27.004 -18.5,47.66 -42.78,61.851 -3.41,1.809 -21.198,13.153 -75.432,13.153 h -0.063 c -1.059,-0.02 -2.094,0.047 -3.129,0.004 H 802.898 V 66.5898 h 62.586 V 182.426 h 66.168 c 0,0 40.914,-89.8947 46.172,-115.8362 h 77.016 L 993.434,190.086"
         style="fill:#231f20;fill-opacity:1;fill-rule:nonzero;stroke:none"
         id="path34" />
      <path
         d="M 459.191,229.598 C 459.191,102.793 356.398,0 229.598,0 102.793,0 0,102.793 0,229.598 c 0,126.8 102.793,229.593 229.598,229.593 126.8,0 229.593,-102.793 229.593,-229.593"
         style="fill:#d91920;fill-opacity:1;fill-rule:nonzero;stroke:none"
         id="path36" />
      <path
         d="M 128.457,230.699 C 95.1484,165.473 99.5586,144.758 105.301,128.605 c 15.465,-43.4644 99.027,-31.273 181.359,33.043 82.332,64.325 120.031,153.629 84.211,199.485 -31.172,39.883 -108.789,32.805 -182.023,-11.813 91.414,58.496 187.578,69.336 224.933,21.535 C 455.777,317.129 408.004,209.648 307.086,130.809 206.164,51.9609 90.3164,31.6055 48.3242,85.332 21.9141,119.129 28.3125,173.941 63.8125,229.762 H 36.9688 l 6.3476,14.82 c 0,0 48.1328,9.703 96.6486,53.77 0.105,0.097 19.515,0.136 19.515,0.136 l -24.183,-52.234 h 39.687 l -7.519,-15.742 -39.008,0.187"
         style="fill:#ffffff;fill-opacity:1;fill-rule:nonzero;stroke:none"
         id="path38" />
    </g>
  </g>
</svg>
