<svg xmlns="http://www.w3.org/2000/svg" viewBox="0 0 92.8 100"><path fill="#0063a3" d="M6.2 76.4V100l20.5-11.8A39.1 39.1 0 0 1 6.2 76.4Zm20.4-64.7L6.2 0v23.4a39.3 39.3 0 0 1 20.4-11.7ZM92.8 50 72.3 38.2a39.3 39.3 0 0 1 0 23.7zM19.7 18c3-.7 9 0 12.3.8a18.7 18.7 0 0 1 10.4-3.4 41.1 41.1 0 0 0-22.7 2.5zm39.1 42.8a53 53 0 0 0-3.2-13c-7 3-15.7 1-21.5-4a96 96 0 0 0-11.5 14.5c9.9 8 26 10.2 36.2 2.5zM17.3 59a34.3 34.3 0 0 1-9-31.8 35 35 0 0 0 2 47.5 63.4 63.4 0 0 1 7-15.6ZM54 44a47.2 47.2 0 0 0-7-10.8 80.7 80.7 0 0 0-10 7.7 16.6 16.6 0 0 0 17 3zm-6.5-16.3a36.3 36.3 0 0 1 7.6-4.2c-5.6-5.6-14.5-5.5-18.4-3a37.2 37.2 0 0 1 10.8 7.2zM20.4 62c-4.3 7.5-5.9 13-6.5 15.9a35 35 0 0 0 43.2-.9 30 30 0 0 0 2-11.3A36 36 0 0 1 20.4 62Zm37-20.5c3.9-4 3-10.9.2-14.8a29.6 29.6 0 0 0-7.2 4.2 52.7 52.7 0 0 1 7 10.6zm6.6-8.6a14.1 14.1 0 0 1-4.8 12.5 57.4 57.4 0 0 1 3.3 11.8c5.3-6.8 5.1-16.6 1.5-24.4Zm-29.8 5a83.1 83.1 0 0 1 9.8-7.8 33.2 33.2 0 0 0-10.8-6.6c-3.3 4.4-2.3 10 1 14.4zm28.9 24.8a49.4 49.4 0 0 1-.4 8.9A35.4 35.4 0 0 0 70 47a26.8 26.8 0 0 1-6.9 15.6zm-34-40.4a28.4 28.4 0 0 0-13.9 0c-6.9 9.8-3.7 24.1 4.4 33a100.8 100.8 0 0 1 11.6-14.5c-4-5-5.7-13-2-18.5Z"/></svg>
