<svg viewBox="0 0 555 555" xmlns="http://www.w3.org/2000/svg">
<path fill="#005A9C" d="m 295,358.9 c 23.4,-3.3 44.1,-11.5 60.9,-23.6 -4.2,-20 -12.1,-41.4 -23.3,-62.8 -10.7,6 -22.9,10.2 -36.3,12 -45.2,6.3 -93,-14.8 -121,-49.9 -21.3,14.9 -40.9,31.3 -57.6,48.2 39.5,53 110.4,85.4 177.3,76.1 M 82.1,279.6 C 76.6,270 71.9,259.9 68.2,249.5 57.9,220.2 56.3,190.8 63,163.7 57.8,171 53.2,178.6 49.1,186.6 v 0 c -2.2,4.3 -4.2,8.8 -6.1,13.2 v 140.8 c 8,-19.8 21.4,-40.6 39.1,-61 m 313.5,57.6 c -2.9,3.3 -5.9,6.4 -9.2,9.4 0.4,3.5 0.7,6.9 0.9,10.4 3.1,-6.5 5.9,-13.1 8.3,-19.8 M 52.3,414.9 C 49.1,411.1 46,407.2 43.1,403.2 V 555 L 171,485.7 c -4.8,-1 -9.5,-2.2 -14.2,-3.5 C 99.4,465.7 64.6,429.6 52.3,414.9 M 364.7,242 c -2.7,4.4 -5.9,8.5 -9.3,12.3 10.6,19.5 18.7,39 24.2,58 2.1,-2.9 4.3,-5.8 6.2,-8.9 17.1,-28.1 20.1,-62.4 8.7,-96.9 -0.8,-1.1 -1.5,-2.3 -1.9,-3.6 -1,-2.9 -2.3,-5.7 -3.5,-8.6 -1.3,-1.3 -2.4,-2.8 -3.1,-4.5 -1.1,-2.4 -2.5,-4.7 -4.3,-6.6 l -6.5,-3.5 c 4.2,22.2 0.7,43.9 -10.5,62.3 M 194.2,85.6 c -0.6,0.1 -1.3,0.1 -2,0.1 -9.4,1.4 -18.4,3.5 -26.8,6.4 7.6,1.8 15,4.1 22.3,6.9 5.9,-4.1 12.4,-7.4 19.3,-10.1 l -6.9,-3.7 c -1.9,0.1 -3.9,0.1 -5.9,0.4 m 226.4,264.9 134.8,-73 -131.2,-71.1 c 18.5,57.7 10.3,107.5 -3.6,144.1 M 235.2,110.2 c -5.5,0.8 -10.7,2 -15.5,3.7 18.3,10.3 36.8,23.6 54.9,39.6 12.6,-3.9 24.6,-6.7 36,-8.6 L 245,109.4 c -3.3,0.1 -6.5,0.3 -9.8,0.8 m 63.7,276.5 C 224.1,397.1 144.7,362 98.6,303.9 c -17.4,21 -29.4,42 -33.8,60.6 -1.7,7.3 -2,13.8 -1.1,19.4 3.2,4.5 6.6,8.8 10.2,13 10.7,12.8 40.8,44 90.7,58.4 15.9,4.6 32.4,7.1 49,7.5 l 144,-78 c 1.1,-5.7 1.8,-11.8 1.8,-18.1 -17.8,10 -38.1,16.9 -60.5,20 M 102.4,258 c 17.1,-16.7 36.7,-32.8 57.9,-47.5 -1.4,-3.1 -2.7,-6.2 -3.8,-9.4 0,0 0,0 0,0 -9.4,-26.8 -7.1,-53.9 6.6,-76.3 0.8,-1.3 1.8,-2.5 2.7,-3.8 -15.6,-4.5 -30.1,-6 -42.8,-4.2 -7.9,7.1 -14.8,15 -20.3,24.1 -10.3,16.9 -15.6,36.2 -15.6,56.3 0,14.1 2.5,28.5 7.6,43 2.2,6.1 4.8,12 7.7,17.8 M 183,191.9 c 0.4,1.1 0.9,2.1 1.3,3.1 19.2,-11.6 39.4,-21.9 60,-30.5 -17.2,-13.9 -34.6,-24.9 -51.4,-33 -2.1,2.5 -4.2,5 -5.9,7.8 -9.2,15.2 -10.6,33.8 -4,52.6 z m 109.5,64.7 c 9.7,-1.3 18.5,-4.3 26.2,-8.6 -14.5,-22.8 -31.6,-43.8 -50.9,-62.6 -3.3,1.2 -6.7,2.5 -10.1,3.9 -20,8.1 -39.9,18.3 -58.9,29.9 22,26.5 58.8,42.3 93.7,37.4 M 106.1,86.6 c 14.9,-8.3 29.1,-16.1 54.5,-23 L 43.1,0 v 143.5 c 27,-36.1 58.6,-54.5 63,-56.9 m 234.6,140.8 c 9.2,-15.1 10.7,-33.7 4.1,-52.5 v 0 c -0.6,-1.6 -1.3,-3.2 -1.9,-4.8 -12.9,-0.2 -28.1,1.8 -44.8,5.9 15.8,16.7 29.8,34.4 41.8,52.5 0.2,-0.3 0.6,-0.7 0.8,-1.1 m 16.8,157.3 c -1.3,6.6 -3.3,12.8 -6.1,18.2 -0.9,1.8 -1.4,3.8 -1.5,5.9 -4.2,4.1 -7.2,6.7 -8,7.4 -23,19.2 -40.9,29.3 -68.8,38.3 -10.3,3.3 -31.8,8.8 -59.5,8.2 l -42.6,23 c 51.7,11.3 94.1,0.9 110.7,-4.5 31.3,-10.1 52.5,-21.9 78.2,-43.5 5.2,-4.3 32.2,-27.9 50.9,-64.9 3.6,-7.3 6.9,-14.7 9.8,-22.4 z M 208.4,84.3 c 1.5,-0.1 3.1,-0.1 4.6,-0.1 2.8,-0.1 5.6,-0.1 8.5,0 -5,1.2 -9.8,2.8 -14.4,4.6 l 38,20.6 c 29.8,-0.9 59.8,12.3 79.9,33.7 -4.6,0.4 -9.4,1.1 -14.3,1.9 l 64.4,34.9 c -0.1,-0.7 -0.2,-1.4 -0.4,-2.1 2.5,1.5 4.8,3.5 6.8,5.7 l 42.8,23.2 c -0.5,-1.6 -0.9,-3.2 -1.5,-4.9 -0.3,-0.9 -0.7,-1.8 -1.2,-2.7 -0.5,-1.4 -0.9,-2.8 -1.3,-4.1 -12.3,-35.2 -36,-66 -65.9,-89.7 -0.8,-1.2 -1.7,-2.2 -2.8,-3.1 -46,-35.7 -92.3,-43.8 -115.8,-45.4 -1.3,-0.1 -2.4,-0.1 -3.7,-0.2 -14.1,-1.1 -28.4,-0.8 -42.4,1.2 l -2.5,0.4 c -5.2,0.7 -10.4,1.6 -15.6,2.8 -3.9,0.9 -7.4,1.8 -10.8,2.7 l 39.6,21.4 c 2.5,-0.3 5.2,-0.6 8,-0.8 M 41.7,344 c -6.1,-15.1 -10.5,-34 -11.4,-41.3 -2,-17.5 -2,-17.5 -2.2,-34.7 -0.1,-5.4 0.5,-13.3 1.5,-19.2 2.2,-13.5 4.8,-28.5 13.5,-49 v -56.4 c -7.2,9.6 -13.6,19.8 -19,30.5 -15.8,31.5 -19.5,54 -22.2,70.4 -1.2,7.6 -2,17 -1.9,24 0.2,18.6 0.2,18.9 2.4,37.7 1.3,11.3 7.6,36.6 15.9,54.6 6.5,14.1 12.4,24.9 19.7,35.6 0.6,1.1 1.3,2.1 2.2,3.1 0.9,1.3 1.9,2.6 2.9,3.9 v -62.5 c -0.5,1.1 -1,2.2 -1.4,3.3" />
</svg>
