<svg xmlns="http://www.w3.org/2000/svg" width="137.25" height="137.25" viewBox="0 0 36.314 36.314"><path d="M18.133 4.18c-7.934 0-14.428 6.494-14.428 14.428 0 1.446.216 3.056.616 4.376.464-.9 2.654-3.484 5.446-6.48 1.246-3.707 3.378-5.34 6.1-6.196 2.444-2.337 4.8-4.383 6.483-5.494-1.335-.4-2.75-.632-4.216-.632zm8.913 3.103a46.476 46.476 0 00-5.207 3.54 8.56 8.56 0 014.901 7.782 8.56 8.56 0 01-8.607 8.607 8.563 8.563 0 01-7.72-4.767c-.436.386-2.645 3.195-3.517 5.052-.4.165 5.603 5.864 11.235 5.536 8.253-.48 14.456-6.483 14.428-14.428a14.474 14.474 0 00-5.514-11.324z" paint-order="markers fill stroke"/><path d="M8.466 30.66c.585.487 1.382 1.032 2.614 1.7-2.967 2.113-5.922 3.862-8.876 3.953-1.99.062-2.21-1.23-2.206-2.4.716-6.08 9.104-15.587 13.842-20.23C26.103 1.666 32.316.047 34.168.001c1.745-.043 2.284.904 2.12 2.493.112 2.556-3.07 7.243-4.262 8.977C31.354 10.294 30.82 9.6 30.4 9.04c.637-1.103.948-1.87.95-2.6.002-1.327-1.237-1.53-1.48-1.457-6.555 1.97-12.845 8.573-14.873 10.597C10.64 19.92 5.683 25.673 5.1 29.954c-.125.858.582 1.304 1.262 1.335.75.034 1.42-.36 2.103-.63z" fill="#da2633"/></svg>