<svg xmlns="http://www.w3.org/2000/svg" width="96.258" height="96.258"><g fill-rule="evenodd"><path d="M65.508 40.63c0-.24.02-.476.054-.707l-22.873.173c-.283-1.402-1.66-2.467-3.319-2.467-1.864 0-3.375 1.343-3.375 3s1.511 3 3.375 3c1.66 0 3.036-1.065 3.32-2.467l22.872.174a4.83 4.83 0 01-.054-.707M76.319 38.135l7.352-4.935a2 2 0 10-.579-.887l-7.595 4.769a5.3 5.3 0 01.822 1.053M66.215 43.151l-3.555 2.417a2 2 0 10.591.906l3.745-2.321a5.311 5.311 0 01-.781-1.002M71.258 25.63a3 3 0 00-.561 5.945l-.08 3.837a6.39 6.39 0 011.283 0l-.08-3.837a3 3 0 00-.562-5.946M93.258 37.63a2.999 2.999 0 00-2.95 2.466l-13.35-.152c.032.224.05.453.05.685 0 .233-.018.461-.05.685l13.35-.151a2.999 2.999 0 102.95-3.534M62.032 32.58a1.75 1.75 0 10-.72 1.413l5.066 3.86c.244-.356.534-.685.862-.977l-5.3-3.74a1.74 1.74 0 00.092-.557M77.315 43.821c-.214 0-.416.054-.592.15l-.633-.498a5.38 5.38 0 01-.75.854l.748.511a1.25 1.25 0 101.227-1.017" fill="#107ac5"/><path d="M89.178 51.63l1.072-4H87l1.34-5H85.33c-.55 1.896-2.502 3.422-4.409 3.422l-.422 1.577h-3.25l-1.072 4h3.25l-2.948 11c-.592 2.21.72 4 2.928 4h4.5l.804-3c-1.156 0-1.748-.94-1.464-2l2.68-10zM65.5 47.63l2.196 3-4.287 15.999h6.5l5.09-19zM75.758 40.63c0-2.21-2.014-4-4.5-4-2.485 0-4.5 1.79-4.5 4 0 2.208 2.015 3.999 4.5 3.999 2.486 0 4.5-1.79 4.5-4" fill="#f7971c"/><path d="M54.24 61.657c-.412 1.447-2.683 2.006-3.382.875a2.604 2.604 0 01-.382-1.398c.002-.267.03-.542.106-.828 0-.004.002-.006.003-.01l1.16-4.334c.078-.286.198-.561.34-.828a4.92 4.92 0 011.13-1.398c1.305-1.131 3.276-.572 2.914.875zm3.229-12.028h-.005c-1.579 0-3.258.972-4.676 2.52l.676-2.52h-9l2.196 3-4.823 18h6l1.747-6.52c.588 1.548 1.747 2.52 3.325 2.52h.004c3.314 0 6.72-2.686 7.608-6l1.34-5c.888-3.314-1.078-6-4.392-6zM33.464 49.63l2.196 3-3.751 14h6l4.555-17zM28.749 49.63h-.004c-1.272 0-2.649.836-3.869 2.19l.588-2.19h-9l2.196 3-3.751 14h6l2.931-10.942c.07-.188.149-.374.244-.554.276-.52.666-.995 1.13-1.398 1.306-1.13 3.277-.572 2.915.875l-.542 2.023h4.5c.152-.568.266-.994.27-1.005.887-3.313-.728-6-3.608-6" fill="#107ac5"/><path fill="#107ac5" d="M6 47.63l-5.091 19h6l5.091-19h6l1.34-5h-18l-1.34 5z"/></g></svg>