<?xml version="1.0" encoding="utf-8"?>
<svg version="1.2" baseProfile="tiny-ps" xmlns="http://www.w3.org/2000/svg" xmlns:xlink="http://www.w3.org/1999/xlink" viewBox="0 0 170 170"  xml:space="preserve">
<title>Trovi</title>
<g id="Layer_13">
	<rect fill="#FFFFFF" width="170" height="170"/>
</g>
<g id="Layer_1">
	<g id="Layer_12">
		<g id="Layer_7">
		</g>
	</g>
	<g id="Layer_11">
		<g id="Layer_6">
		</g>
	</g>
	<g id="Layer_10">
		<g id="Layer_5">
		</g>
	</g>
	<g id="Layer_9">
		<g id="Layer_4">
			<g id="Layer_3">
				<g>
					<linearGradient id="SVGID_1_" gradientUnits="userSpaceOnUse" x1="139.3199" y1="113.3893" x2="82.4938" y2="53.8879">
						<stop  offset="9.986119e-09" style="stop-color:#F5F5FC"/>
						<stop  offset="0.6628" style="stop-color:#8AC4FE"/>
						<stop  offset="1" style="stop-color:#58ADFF"/>
					</linearGradient>
					<path fill="url(#SVGID_1_)" d="M84.9,57.2L57.2,84.9c0,0,0,0-0.1,0.1c15.3-15.3,40.4-15.2,55.8,0.1
						c15.3,15.3,15.4,40.4,0.1,55.8c0,0,0,0,0.1-0.1l27.8-27.8c15.3-15.3,15.3-40.5,0-55.8C125.4,41.8,100.3,41.8,84.9,57.2z"/>
					<linearGradient id="SVGID_2_" gradientUnits="userSpaceOnUse" x1="63.3711" y1="137.3905" x2="124.2368" y2="108.9483">
						<stop  offset="0" style="stop-color:#E7E6F6"/>
						<stop  offset="0.1445" style="stop-color:#E2E3F4"/>
						<stop  offset="0.318" style="stop-color:#D3DAEF"/>
						<stop  offset="0.5064" style="stop-color:#BBCCE7"/>
						<stop  offset="0.7055" style="stop-color:#99B8DC"/>
						<stop  offset="0.9108" style="stop-color:#6E9ECE"/>
						<stop  offset="1" style="stop-color:#5992C7"/>
					</linearGradient>
					<path fill="url(#SVGID_2_)" d="M112.8,85.1l-55.7,55.7c15.3,15.3,40.4,15.4,55.8,0.1C128.2,125.5,128.2,100.4,112.8,85.1z"/>
					<linearGradient id="SVGID_3_" gradientUnits="userSpaceOnUse" x1="73.2491" y1="108.3715" x2="50.4004" y2="52.0634">
						<stop  offset="0" style="stop-color:#FED349"/>
						<stop  offset="1" style="stop-color:#F9885A"/>
					</linearGradient>
					<path fill="url(#SVGID_3_)" d="M57.2,84.9C41.8,69.6,41.8,44.5,57,29.2c0,0,0,0-0.1,0.1L29.2,57c-15.3,15.3-15.3,40.5,0,55.8
						c15.4,15.4,40.5,15.4,55.8,0l27.8-27.8c0,0,0,0,0.1-0.1C97.6,100.3,72.5,100.3,57.2,84.9z"/>
					<linearGradient id="SVGID_4_" gradientUnits="userSpaceOnUse" x1="105.8133" y1="40.2767" x2="49.8418" y2="56.6867">
						<stop  offset="0" style="stop-color:#FF9F24"/>
						<stop  offset="6.345140e-02" style="stop-color:#FE9B24"/>
						<stop  offset="0.9933" style="stop-color:#F46A2A"/>
					</linearGradient>
					<path fill="url(#SVGID_4_)" d="M57,29.2c-15.3,15.3-15.2,40.4,0.1,55.8l55.7-55.7C97.5,13.9,72.4,13.9,57,29.2z"/>
				</g>
			</g>
		</g>
	</g>
</g>
</svg>
