<?xml version="1.0" encoding="UTF-8"?>
<svg width="375px" height="136px" viewBox="0 0 375 136" version="1.1" xmlns="http://www.w3.org/2000/svg" xmlns:xlink="http://www.w3.org/1999/xlink">
    <!-- Generator: Sketch 59 (86127) - https://sketch.com -->
    <title>white</title>
    <desc>Created with Sketch.</desc>
    <defs>
        <linearGradient x1="0%" y1="44.4428411%" x2="100%" y2="50%" id="linearGradient-1">
            <stop stop-color="#52ABFF" offset="0%"></stop>
            <stop stop-color="#F8F6FC" offset="100%"></stop>
        </linearGradient>
        <linearGradient x1="50%" y1="0%" x2="50%" y2="100%" id="linearGradient-2">
            <stop stop-color="#FC967C" offset="0%"></stop>
            <stop stop-color="#BE1E6F" offset="100%"></stop>
        </linearGradient>
        <linearGradient x1="50%" y1="0%" x2="50%" y2="100%" id="linearGradient-3">
            <stop stop-color="#FE8102" offset="0%"></stop>
            <stop stop-color="#FE026B" offset="100%"></stop>
        </linearGradient>
        <linearGradient x1="37.1815414%" y1="50%" x2="54.3576674%" y2="19.5377398%" id="linearGradient-4">
            <stop stop-color="#FF9F24" offset="0%"></stop>
            <stop stop-color="#F46A2A" offset="100%"></stop>
        </linearGradient>
        <linearGradient x1="50%" y1="0%" x2="37.1815414%" y2="100%" id="linearGradient-5">
            <stop stop-color="#5992C7" offset="0%"></stop>
            <stop stop-color="#EFEAF8" offset="100%"></stop>
        </linearGradient>
        <linearGradient x1="50%" y1="0%" x2="37.4059019%" y2="100%" id="linearGradient-6">
            <stop stop-color="#5992C7" offset="0%"></stop>
            <stop stop-color="#EFEAF8" offset="100%"></stop>
        </linearGradient>
        <path d="M0.00532980518,0.179692278 L0.00532980518,0.179692278 L0.00532980518,78.8812513 C21.6997783,78.8812513 39.454216,61.181455 39.5039449,39.5292838 C39.4532642,17.8780631 21.6990645,0.179692278 0.00532980518,0.179692278" id="path-7"></path>
        <linearGradient x1="50%" y1="0.265348325%" x2="100%" y2="99.7346517%" id="linearGradient-9">
            <stop stop-color="#FED54A" offset="0%"></stop>
            <stop stop-color="#F66262" offset="100%"></stop>
        </linearGradient>
        <linearGradient x1="37.4059019%" y1="50%" x2="54.2813955%" y2="19.5377398%" id="linearGradient-10">
            <stop stop-color="#FF9F24" offset="0%"></stop>
            <stop stop-color="#F46A2A" offset="100%"></stop>
        </linearGradient>
        <path d="M0.00532980518,0.179692278 L0.00532980518,0.179692278 L0.00532980518,78.8812513 C21.6997783,78.8812513 39.454216,61.181455 39.5039449,39.5292838 C39.4532642,17.8780631 21.6990645,0.179692278 0.00532980518,0.179692278" id="path-11"></path>
    </defs>
    <g id="5-rebranding-a-podklady-k-ppt" stroke="none" stroke-width="1" fill="none" fill-rule="evenodd">
        <g id="trovi-logo-white">
            <g id="white" transform="translate(-17.000000, -17.000000)">
                <g id="Group">
                    <g id="Group-3">
                        <g id="Group-11-Copy-6" transform="translate(85.084679, 84.941918) rotate(-315.000000) translate(-85.084679, -84.941918) translate(24.584679, 25.441918)">
                            <path d="M40.5906339,40.0673504 L40.5906339,79.3223796 C40.5906339,79.3530292 40.5918236,79.3834412 40.5918236,79.4143284 C40.6422664,57.7626325 58.3964661,40.0635489 80.0906767,40.0635489 C101.784649,40.0635489 119.539087,57.7626325 119.589292,79.4143284 C119.58953,79.3834412 119.590482,79.3530292 119.590482,79.3223796 L119.590482,40.0673504 C119.590482,18.373838 101.815581,0.624384479 80.0906767,0.624384479 C58.3655342,0.624384479 40.5906339,18.373838 40.5906339,40.0673504 Z" id="Fill-1" fill="url(#linearGradient-1)"></path>
                            <g id="Group-5" transform="translate(80.085918, 39.883928)">
                                <mask id="mask-8" fill="white">
                                    <use xlink:href="#path-7"></use>
                                </mask>
                                <use id="Fill-3" fill="url(#linearGradient-6)" xlink:href="#path-7"></use>
                            </g>
                            <path d="M1.08607036,79.4181299 L1.08607036,118.673159 C1.08607036,118.703809 1.08726005,118.734221 1.08726005,118.765108 C1.13770284,97.113412 18.8919025,79.4143284 40.5861131,79.4143284 C62.2800858,79.4143284 80.0345234,97.113412 80.0847283,118.765108 C80.0849662,118.734221 80.085918,118.703809 80.085918,118.673159 L80.085918,79.4181299 C80.085918,57.7246175 62.3110177,39.975164 40.5861131,39.975164 C18.8609706,39.975164 1.08607036,57.7246175 1.08607036,79.4181299 Z" id="Fill-1" fill="url(#linearGradient-9)" transform="translate(40.585994, 79.370136) rotate(-180.000000) translate(-40.585994, -79.370136) "></path>
                            <g id="Group-5" transform="translate(20.590634, 40.005565) rotate(-180.000000) translate(-20.590634, -40.005565) translate(0.590634, 0.505565)">
                                <mask id="mask-12" fill="white">
                                    <use xlink:href="#path-11"></use>
                                </mask>
                                <use id="Fill-3" fill="url(#linearGradient-10)" xlink:href="#path-11"></use>
                            </g>
                        </g>
                    </g>
                    <g id="Group-4" transform="translate(187.000000, 47.000000)" fill="#FFFFFF">
                        <g id="Group-2">
                            <path d="M104.705291,25.663075 C111.647608,25.7908866 117.855733,27.8518287 122.883384,32.8753248 C126.867266,36.8560199 129.0034,41.753155 129.5977,47.3568803 C130.143723,52.5064151 129.524408,57.4842987 127.225917,62.1559502 C123.972084,68.7694356 118.713087,72.9524051 111.683935,74.7859296 C104.549148,76.6468539 97.6670581,75.8949734 91.279209,72.067072 C85.0749078,68.3492529 81.4525455,62.74311 80.1865112,55.5962971 C79.0753454,49.3238575 79.7875495,43.2798026 82.9472181,37.6978359 C86.5069638,31.4091177 92.013082,27.794934 98.9380317,26.2700592 C100.837561,25.8518106 102.768479,25.7249661 104.705291,25.663075 Z M178.975302,28.4072532 C180.534981,30.58682 181.054237,32.880015 179.975255,35.4320567 L165.461588,69.7785672 L165.461588,69.7785672 C164.306766,72.5090294 162.537727,74.5457953 159.490386,75.1335998 C155.059266,75.9884709 151.388308,74.2037824 149.473961,70.0424103 C147.911414,66.6456515 146.529228,63.1636311 145.079965,59.7138458 C141.694844,51.6555894 138.320081,43.592659 134.935757,35.5339192 C132.997192,30.9177118 136.05712,26.1546742 141.000167,26.1064829 C144.417949,26.0732809 146.684415,27.6653656 147.910777,30.9534926 L157.132943,55.6712595 L157.132943,55.6712595 C157.212449,55.8841714 157.296575,56.0951492 157.442521,56.4726206 C157.966716,55.078781 158.437535,53.837735 158.900707,52.5939491 C161.615049,45.3046577 164.406984,38.0435719 167.015691,30.715921 C169.10769,24.8394879 176.624391,25.1223496 178.975302,28.4072532 Z M72.9941424,26.4692391 C75.8185812,27.5204211 76.8911892,29.8129714 76.6212846,32.7324917 C76.2664572,36.5697412 73.8111854,38.765909 69.9555643,38.8482694 C68.4701329,38.8800208 66.9821522,38.7945981 65.4968801,38.8278002 C61.4052916,38.9190251 58.5953518,40.9266184 57.0863396,44.7811136 C55.889295,47.8389219 55.5131174,51.0527473 55.3443872,54.2997748 C55.1057112,58.8879378 55.1847388,63.4822254 55.2470367,68.0716777 C55.2871878,71.0213377 54.1694895,73.1878493 51.5711396,74.4643537 C48.8183992,75.8164491 46.1007113,75.6074053 43.6116617,73.7727526 C41.8359314,72.4636909 40.961689,70.6646578 40.9669469,68.3829062 C40.9943516,56.7557564 41.1578239,45.1242548 40.8984351,33.5029072 C40.782443,28.3109835 46.1752777,24.4128098 51.3550885,26.8136696 C53.8481214,27.9691317 55.2707769,29.9385266 55.2242526,32.8309695 C55.2006718,34.2983048 55.22011,35.7664461 55.22011,37.2342649 C56.0717276,35.1227139 56.9195213,33.079501 58.1677107,31.2332437 C60.0331437,28.47377 62.4398198,26.4573121 65.7830364,25.8820793 C68.2198258,25.4630248 70.6590053,25.6001846 72.9941424,26.4692391 Z M21.8459247,10.0381293 C23.0023401,11.270633 23.4317339,12.7890607 23.4293439,14.4609269 C23.4239267,18.2203291 23.4492602,21.9798924 23.409109,25.738811 C23.4013019,26.4698999 23.6119358,26.6407452 24.2986471,26.6123784 C25.6500822,26.5564507 27.0058193,26.6135066 28.3593256,26.5920704 C30.6699259,26.5551613 32.365832,27.5852295 33.320536,29.6825971 C34.320171,31.8782814 34.110015,34.0272249 32.6177324,35.9606778 C31.574919,37.311645 30.1651692,37.9652088 28.4641646,37.9624688 C27.0572828,37.9603735 25.6491263,37.9988943 24.243997,37.9474795 C23.5633403,37.9226586 23.412933,38.1595856 23.4143669,38.812827 C23.4338052,48.5871114 23.380589,58.3617182 23.4505348,68.135519 C23.4790548,72.1168589 21.0820978,74.1447602 18.6709604,74.9250074 C15.5181429,75.9450827 12.0422047,74.8034816 10.2459209,72.1880981 C9.49866424,71.1000071 9.1264699,69.9019948 9.12933784,68.5692404 C9.14017226,63.655182 9.13363974,58.7412848 9.13363974,53.8272264 C9.13363974,48.8058256 9.12296465,43.7844248 9.14718277,38.763024 C9.15005071,38.1413728 9.00075872,37.9120211 8.36104969,37.949736 C7.46163315,38.0026013 6.55664006,37.9735898 5.65419625,37.9603735 C2.90352712,37.920241 0.697447138,36.0810754 0.257856305,33.3361074 C-0.0641491576,31.3249683 0.421806638,29.4967626 1.8987936,28.0237861 C2.82800481,27.0971922 3.96322941,26.6310747 5.26144837,26.601902 C6.32274396,26.5780482 7.3864295,26.5628977 8.44613179,26.6093161 C9.01701035,26.6342982 9.14941339,26.4436284 9.14590813,25.8878977 C9.12232733,22.1019017 9.13284309,18.3155834 9.13379907,14.5294262 C9.13475505,11.0859267 11.6542367,8.1899379 15.0438182,7.73639202 C17.6810445,7.38374157 19.9881396,8.05809692 21.8459247,10.0381293 Z M200.558941,27.8672209 C202.069706,29.1524287 202.780316,30.7975399 202.770119,32.8167377 C202.740165,38.7798829 202.759444,44.7431892 202.759603,50.7064955 C202.759763,56.5892145 202.668308,62.4738675 202.791629,68.3538464 C202.875118,72.3348639 199.848967,74.8723999 196.577608,75.2443914 C192.776319,75.6766622 189.377496,73.3554227 188.624504,69.8550285 C188.518868,69.3637677 188.523329,68.8423672 188.523011,68.3348278 C188.517753,56.5695511 188.575749,44.8037909 188.484612,33.039159 C188.457048,29.4902511 191.332472,26.3968232 195.08676,26.1197637 C197.122994,25.9695488 198.980939,26.5246348 200.558941,27.8672209 Z M104.694298,39.6351504 C98.5704579,39.6414428 93.9975342,44.3388822 94.0281307,50.5913361 C94.0595135,56.9706346 98.6534687,61.7644566 104.726323,61.7551221 C110.843789,61.7455992 115.50291,56.9158352 115.527859,50.5582953 C115.551984,44.354355 110.86514,39.62871 104.694298,39.6351504 Z M195.592903,0.43 C200.656084,0.457399716 204.434908,4.23517579 204.30601,9.06558446 C204.205314,12.8399759 201.530645,16.0299474 197.669766,16.9807176 C193.556828,17.9937012 189.064365,15.7996287 187.430439,11.9802695 C185.382414,7.19289449 188.292572,1.79966343 193.535796,0.643556606 C194.242742,0.487700577 194.954628,0.468681951 195.592903,0.43 Z" id="Combined-Shape"></path>
                        </g>
                    </g>
                </g>
            </g>
        </g>
    </g>
</svg>