<svg xmlns="http://www.w3.org/2000/svg" class="trovo-logo svg-icon svg-fill" width="36.891" height="36.452"><path d="M25.209.001c.586 0 1.02.546.888 1.117l-1.194 5.16c-.068.287.15.56.445.56h10.689c.504 0 .854.408.854.911 0 .075-.01.15-.028.222l-2.5 10.195a.912.912 0 0 1-.923.69l-5.846-.257c-1.748 0-3.801.56-5.388 2.08-2.002 1.92-2.23 5.058-1.392 7.07.837 2.013 3.2 3.263 5.542 2.768 1.85-.391 2.898-2.117 2.704-3.711-.164-1.351-.933-2.004-1.847-2.004-.913 0-1.3.507-1.376 1.014-.077.507.085.79.433 1.125.54.52-.433 1.922-1.821 1.099-.755-.448-1.275-1.542-1.13-2.904.195-1.849 1.65-3.516 4.275-3.536 2.68-.02 4.582 1.675 5.216 4.216.795 3.183-.845 6.967-4.572 9.02-4.637 2.556-12.474 2.289-16.72-2.31-2.494-2.703-3.323-6.164-3.103-9.325a25.93 25.93 0 0 1 .434-3.227.684.684 0 0 0-.67-.816H.913a.912.912 0 0 1-.89-1.112l2.28-10.14a1.368 1.368 0 0 1 1.335-1.068h7.086a.912.912 0 0 0 .88-.675l1.22-5.15A1.368 1.368 0 0 1 14.146 0h11.063z" style="fill:#19d66b;fill-opacity:1;fill-rule:evenodd"/></svg>