<svg version="1.0" xmlns="http://www.w3.org/2000/svg"
  viewBox="0 0 700.000000 700.000000"
 preserveAspectRatio="xMidYMid meet">
<metadata>
Created by potrace 1.14, written by Peter Selinger 2001-2017
</metadata>
<g transform="translate(0.000000,700.000000) scale(0.100000,-0.100000)" stroke="none">
<path d="M1507 6994 c-1 -1 -42 -4 -90 -8 -48 -4 -93 -9 -100 -11 -7 -2 -25
-6 -42 -9 -67 -10 -202 -46 -250 -66 -11 -5 -45 -19 -75 -31 -106 -43 -274
-143 -352 -207 -11 -9 -29 -25 -41 -35 -121 -100 -280 -292 -355 -428 -41 -74
-111 -230 -117 -260 -2 -9 -12 -45 -23 -80 -48 -156 -69 -397 -50 -580 75
-712 625 -1279 1338 -1379 47 -7 193 -13 325 -15 132 -1 256 -5 275 -10 128
-29 234 -124 280 -252 30 -85 26 -203 -12 -283 -31 -69 -102 -148 -159 -179
-83 -44 -119 -49 -347 -51 -287 -2 -332 -6 -524 -45 -71 -14 -224 -71 -323
-121 -467 -232 -790 -691 -851 -1209 -10 -85 -11 -280 -2 -345 5 -30 10 -68
13 -85 29 -202 121 -433 245 -616 77 -115 80 -119 195 -234 233 -232 518 -378
855 -436 127 -22 394 -19 510 6 14 3 41 8 60 11 19 3 87 23 150 44 234 76 440
202 614 376 259 258 412 584 451 959 2 22 4 335 5 695 1 616 2 660 20 719 33
111 102 192 205 241 217 104 478 -17 538 -250 12 -46 15 -174 15 -716 0 -363
3 -680 7 -705 19 -136 38 -228 69 -323 177 -540 616 -928 1186 -1047 153 -32
418 -32 580 0 535 105 958 458 1160 967 34 85 74 233 84 309 4 28 9 65 12 84
9 58 10 219 2 310 -15 164 -64 350 -129 489 -21 46 -39 86 -39 87 0 10 -91
149 -139 215 -245 329 -600 538 -1023 604 -50 7 -186 14 -320 15 -202 2 -240
5 -292 22 -173 59 -278 219 -263 401 11 126 91 250 196 302 90 45 116 49 361
51 319 3 470 28 676 111 647 259 1040 911 971 1607 -50 503 -362 963 -818
1210 -132 71 -355 145 -484 161 -27 4 -66 9 -85 12 -42 6 -287 6 -315 0 -11
-2 -45 -7 -75 -11 -491 -66 -943 -398 -1164 -858 -49 -101 -100 -242 -112
-307 -3 -14 -9 -41 -14 -60 -9 -35 -13 -64 -25 -169 -4 -29 -7 -345 -7 -703 0
-482 -3 -662 -13 -696 -84 -320 -487 -401 -686 -138 -69 91 -73 113 -76 466
-12 1282 -6 1132 -53 1317 -37 143 -76 242 -146 367 -250 449 -699 743 -1209
792 -61 6 -194 11 -198 8z"/>
</g>
</svg>
