<svg xmlns="http://www.w3.org/2000/svg" viewBox="0 0 36.89 36.45"><path d="M25.2 0c.6 0 1.03.55.9 1.12l-1.2 5.16c-.06.29.15.56.45.56h10.69c.5 0 .85.4.85.9 0 .08 0 .16-.03.23l-2.5 10.2a.91.91 0 0 1-.92.69l-5.85-.26a7.8 7.8 0 0 0-5.38 2.08c-2 1.92-2.23 5.06-1.4 7.07a4.93 4.93 0 0 0 5.55 2.77 3.42 3.42 0 0 0 2.7-3.71c-.16-1.35-.93-2-1.85-2-.91 0-1.3.5-1.37 1-.08.51.08.8.43 1.13.54.52-.43 1.92-1.82 1.1-.76-.45-1.28-1.54-1.13-2.9.2-1.85 1.65-3.52 4.27-3.54 2.68-.02 4.59 1.68 5.22 4.22.8 3.18-.84 6.96-4.57 9.02-4.64 2.55-12.48 2.28-16.72-2.31a12.34 12.34 0 0 1-3.1-9.33 25.93 25.93 0 0 1 .43-3.23.68.68 0 0 0-.67-.81H.9a.91.91 0 0 1-.89-1.11L2.3 7.9a1.37 1.37 0 0 1 1.34-1.07h7.08a.91.91 0 0 0 .88-.68L12.82 1a1.37 1.37 0 0 1 1.33-1H25.2z" fill="#19D66B"/></svg>
