<svg xmlns="http://www.w3.org/2000/svg" viewBox="0 0 26.37 26.371"><defs><linearGradient id="a" x1="26.37" x2="0" y1="13.185" y2="13.185" gradientUnits="userSpaceOnUse"><stop stop-color="#f43e98"/><stop offset="1" stop-color="#7050ed"/></linearGradient></defs><path fill="url(#a)" d="m22.582 17.553-1.278 1.278c.006-.087 0-.174.004-.262.006-.153.01-.306.008-.46-.002-.122-.01-.244-.018-.366a8.647 8.647 0 0 0-.04-.453 9.165 9.165 0 0 0-.14-.813 8.45 8.45 0 0 0-.222-.801c-.04-.115-.077-.23-.121-.343a7.372 7.372 0 0 0-.187-.441c-.05-.108-.096-.216-.15-.322-.075-.15-.161-.295-.246-.441-.057-.097-.111-.196-.173-.291a7.207 7.207 0 0 0-.33-.462c-.056-.077-.108-.156-.17-.232a8.247 8.247 0 0 0-.581-.65l-.754-.66A8.145 8.145 0 0 0 12.6 10.13l1.278-1.28c2.394-2.393 6.295-2.39 8.695.009a6.114 6.114 0 0 1 1.796 4.35 6.091 6.091 0 0 1-1.788 4.345M9.624 23.222l8.536-8.535c.024.033.056.063.079.097.088.127.156.262.233.395.117.2.23.403.323.614.064.146.114.296.166.446.073.209.139.419.188.633a6.238 6.238 0 0 1 .15 1.12c.007.157.01.313.006.47a6.512 6.512 0 0 1-.063.667c-.021.149-.04.299-.072.446-.05.232-.123.458-.2.684-.046.132-.083.266-.137.395a6.144 6.144 0 0 1-.378.723c-.057.096-.101.198-.163.292a6.16 6.16 0 0 1-.751.924c-2.156 2.142-5.52 2.349-7.917.629m.098-10.048a6.155 6.155 0 0 1 6.932.024 6.155 6.155 0 0 1-6.932-.024M3.8 17.514c-2.4-2.4-2.403-6.3-.008-8.696l1.279-1.28c-.005.079-.001.157-.004.235a7.58 7.58 0 0 0-.008.5c.002.112.009.222.016.333a8.033 8.033 0 0 0 .522 2.428c.058.153.125.302.192.452.048.105.094.21.146.314.077.15.163.298.25.446.056.096.109.193.169.287.103.158.216.31.33.463.058.077.11.157.17.232.182.224.374.44.582.649l.754.66a8.13 8.13 0 0 0 5.583 1.706l-1.278 1.278c-2.396 2.395-6.297 2.39-8.695-.007M16.75 3.149l-8.535 8.536c-.024-.034-.056-.063-.08-.097-.086-.127-.156-.263-.232-.395a6.034 6.034 0 0 1-.324-.616c-.063-.144-.113-.292-.164-.44a5.527 5.527 0 0 1-.275-1.1 5.94 5.94 0 0 1-.065-.665 6.305 6.305 0 0 1-.006-.456c.008-.23.032-.456.064-.683.02-.144.039-.29.07-.432.05-.237.125-.468.205-.7.044-.126.079-.256.132-.381.106-.252.24-.493.382-.732.056-.094.098-.193.16-.285.217-.325.464-.637.75-.924a6.122 6.122 0 0 1 4.328-1.781 6.15 6.15 0 0 1 3.59 1.15m.893 1.937 1.993-1.993-.707-.707c-3.171-3.173-8.335-3.18-11.514-.018l-.01.01-5.027 5.027c-3.175 3.176-3.171 8.345.008 11.524a8.13 8.13 0 0 0 5.768 2.386c.193 0 .385-.014.576-.027L6.738 23.28l.707.707a8.133 8.133 0 0 0 5.768 2.384c2.08 0 4.16-.788 5.746-2.367l.01-.01 5.027-5.027a8.075 8.075 0 0 0 2.374-5.761 8.132 8.132 0 0 0-8.726-8.121"/></svg>