<svg xmlns="http://www.w3.org/2000/svg" width="45" height="45" viewBox="0 0 640 640"><path d="M623.368 640v-8.412c3.637-70.817-23.976-116.338-104.582-143.257l85.546-46.702V20.469H15.156v504.807l123.831-14.618s-25.754 15.729 30.929 89.844A97.012 97.012 0 0 1 184.482 640" fill="#fff"/><path d="m0 0 .009 640h184.473a97.013 97.013 0 0 0-14.566-39.497c-30.494-34.914-23.281-84.289-16.779-76.824a45.215 45.215 0 0 0 27.074 17.717 217.774 217.774 0 0 1-24.825-83.134c0-120.21 44.573-165.245 44.573-165.245s3.62-48.504-2.577-49.733c-14.254-2.812-32.517-14.986-32.517-30.851a49.529 49.529 0 0 0-51.537 56.056 18.81 18.81 0 0 0 17.951 19.232c11.051 0 15.096-7.066 15.096-16.889a10.853 10.853 0 0 1 12.005-11.705c3.672 0 10.824 1.527 10.824 22.804a47.656 47.656 0 0 1-13.225 37.904 47.66 47.66 0 0 1-37.495 14.345c-29.123 0-67.516-21.563-67.516-93.826a129.537 129.537 0 0 1 124.66-125.852 39.847 39.847 0 0 0-15.434 6.879 122.484 122.484 0 0 0-21.615 20.955 88.76 88.76 0 0 1 10.104 1.129 15.98 15.98 0 0 0 14.306-4.787 134.097 134.097 0 0 1 12.136-11.858 53.436 53.436 0 0 1 41.822-9.844c4.193.725 8.255 1.606 12.24 2.682a67.437 67.437 0 0 0-31.06 12.079 150.08 150.08 0 0 0-22.707 20.96s4.079 2.253 6.51 3.646a14.517 14.517 0 0 0 15.399-3.351 120.593 120.593 0 0 1 13.472-11.719 47.222 47.222 0 0 1 25.596-11.176 47.222 47.222 0 0 1 27.433 5.243c1.364.898 2.717 1.862 4.063 2.825a93.282 93.282 0 0 0-33.515 10.894 139.195 139.195 0 0 0-28.603 23.838l6.059 4.818a12.855 12.855 0 0 0 15.722-2.343 123.593 123.593 0 0 1 15.677-12.935 77.27 77.27 0 0 1 38.888-12.778c4.367 4.241 5.972 7.934 10.165 7.934 4.566 0 7.752-3.502 11.484-8.32a49.877 49.877 0 0 1 28.967 9.25 81.151 81.151 0 0 1 12.422 8.915c5.729 4.787 10.061 3.801 12.621 1.267 1.936-1.927 4.922-5.365 4.922-5.365a78.008 78.008 0 0 0-23.012-18.437 52.037 52.037 0 0 0-26.232-6.833 63.26 63.26 0 0 1 5.468-4.539 36.603 36.603 0 0 1 37.447 3.446 45.894 45.894 0 0 1 11.623 8.793 9.604 9.604 0 0 0 11.606 1.828 24.911 24.911 0 0 1 6.389-3.742 63.053 63.053 0 0 0-22.083-18.364 47.472 47.472 0 0 0-16.658-4.679 71.847 71.847 0 0 1 25.2-1.259c36.9 4.974 47.95 45.861 45.65 81.56-3.863 59.775-1.814 74.211 12.595 74.284a13.906 13.906 0 0 0 13.186-13.303c1.172-7.587 3.394-13.563 8.29-13.563 10.087 0 12.439 9.683 12.439 16.007 0 39.884-25.685 47.93-47.725 47.93-22.049 0-38.967-17.118-44.905-46.663-1.883-9.415-3.341-18.816-3.341-18.816a36.474 36.474 0 0 0-9.149 3.437c-5.678 2.848-11.459 6.537-11.459 6.537s6.242 14.618 7.587 18.807c.292 7.97-.249 15.949-1.614 23.806a237.729 237.729 0 0 1 35.936 129.004c0 74.567-27.655 142.754-46.605 168.11a43.423 43.423 0 0 0 15.625-6.988c17.76-17.37 22.274-20.72 40.963-22.379 11.893-31.093 16.059-69.453 4.115-156.417 67.916 47.605 69.973 87.449 60.329 130.983 42.612-21.78 18.742-64.671 18.742-64.671a199.404 199.404 0 0 0 32.803 17.7c79.018 32.361 107.456 74.949 107.456 136.668V640H640V0H0z" fill="#05C3DE"/><path d="M334.412 298.711c-3.612-.391-3.707-.564-3.716-9.54-.009-7.023 3.741-7.145 10.348-5.234.737-4.437 2.916-17.432-2.397-17.432-3.993 0-7.057 3.117-12.3 3.117-6.146 0-18.142-4.166-22.283-4.166-7.803 0-3.793 13.684-3.793 19.106 15.529-2.031 21.988-4.315 21.988 2.942 0 12.144 1.996 10.217-17.579 11.919-10.129.868-15.893 1.398-21.944 1.536 0 0-5.72-22.856-2.708-27.426a189.652 189.652 0 0 1 17.058-22.197c3.654-4.101 3.654-4.101 1.796-9.757-2.535-7.631-12.422-37.804-12.422-37.804a27.465 27.465 0 0 1 6.38-23.147c1.754-2.418.496-3.416-1.319-2.539-9.739 4.7-25.234 14.766-24.635 28.281.468 10.752-4.106 9.097-12.248 7.218a55.35 55.35 0 0 0-21.311-1.619c-10.807 1.866-17.413 9.692-15.972 17.218 1.277 6.689 7.102 12.744 24.133 12.744 16.484 0 18.264-10.035 25.641 3.202 6.294 11.238 11.546 14.624 2.648 23.513-22.093 22.105-22.865 14.917-22.865 37.383 0 23.69 25.078 42.309 38.732 37.987a207.365 207.365 0 0 0 33.49-10.564c.755-.556.608-2.388-.434-2.405-4.835-.052-23.472.035-24.922-6.719-1.458-6.762-2.543-11.771-2.543-11.771a164.191 164.191 0 0 1 32.907-2.803c6.177.046 12.347.435 18.481 1.162a33.65 33.65 0 0 0 1.65-10.625 81.946 81.946 0 0 0-9.861-1.58zm2.751-63.495a22.742 22.742 0 0 0 19.393.998c12.231-4.161 13.663-18.22.243-20.533-10.452-1.802-13.802 3.636-20.182-2.314-4.453-4.141-7.308-6.971-10.417-9.979-1.37-1.31-2.725-2.347-3.402-2.096-.695.247-.99 1.077-.104 3.181a157.843 157.843 0 0 0 14.469 30.743z" fill="#05C3DE"/><path d="M537.162 391.689a30.498 30.498 0 0 1 28.009 19.026 30.494 30.494 0 0 1-53.695 28.276 30.497 30.497 0 0 1-5.052-16.954 30.318 30.318 0 0 1 9.021-21.604 30.339 30.339 0 0 1 21.717-8.744z" fill="#fff"/><path d="M537.843 396.186a26.019 26.019 0 0 0-19.691 44.102 26.018 26.018 0 0 0 40.337-3.649 26.019 26.019 0 0 0 4.38-14.602 25.11 25.11 0 0 0-25.026-25.851zm9.219 43.767-9.722-15.32h-5.86v15.321h-5.547v-35.635h13.794c8.472 0 12.456 3.351 12.456 10.2a9.145 9.145 0 0 1-2.552 6.914 9.142 9.142 0 0 1-6.823 2.782l10.2 15.738h-5.946z" fill="#05C3DE"/><path d="M546.654 414.277c0-4.732-4.08-5.47-7.839-5.47h-7.336v11.355h5.773c4.914 0 9.402-.269 9.402-5.885z" fill="#05C3DE"/></svg>