<svg xmlns="http://www.w3.org/2000/svg" viewBox="0 0 48 48"><path fill="#0A0066" d="M24 48H0V23.93A23.96 23.96 0 0 1 24 0c13.25 0 24 10.71 24 23.93v.14A23.96 23.96 0 0 1 24 48Z"/><path fill="#fff" d="M18.37 30.38v-8.86h-.09a2.26 2.26 0 0 1-2.24-1.8 2.25 2.25 0 0 1 2.16-2.73h.17v-2.24c0-1.36.95-2.57 2.26-2.73a2.6 2.6 0 0 1 2.9 2.63V17h2.19c1.06 0 2.03.73 2.24 1.8a2.25 2.25 0 0 1-2.16 2.73h-2.27v8c0 1.21.5 1.8 1.66 1.8l.6-.03a2.18 2.18 0 0 1 .82 4.19c-.95.38-1.83.52-2.95.52-3.15 0-5.29-1.3-5.29-5.62Z"/></svg>
