<svg xmlns="http://www.w3.org/2000/svg" height="230.45" width="225.8"><path d="M127.41 208.05c-.03-1.16-.07-2.43-.75-3.42-.44-.74-1.62-.77-2.1-.06-.75 1.01-.79 2.34-.81 3.56.04 1.2.08 2.56.9 3.54.54.64 1.65.5 2.05-.22.64-1 .68-2.25.71-3.4zm3 0c-.02 1.78-.3 3.7-1.5 5.1a4.23 4.23 0 0 1-3.4 1.44 4.24 4.24 0 0 1-3.34-1.53c-1.15-1.42-1.41-3.32-1.42-5.09.03-1.7.3-3.53 1.42-4.88a4.28 4.28 0 0 1 3.43-1.51 4.22 4.22 0 0 1 3.48 1.6c1.06 1.38 1.31 3.19 1.33 4.87zm5.04 6.21v-9.07l-2.3 1.78-1.51-2.08 4.06-2.98h2.67v12.35h-2.92m72.78-29.7c-.04-1.68-.1-3.5-1.08-4.94-.65-1.1-2.42-1.08-3.08 0-1.03 1.46-1.08 3.33-1.12 5.05.06 1.72.12 3.63 1.24 5.04.74.99 2.43.84 3.02-.24.93-1.43.98-3.25 1.02-4.9zm4.33 0c-.02 2.6-.44 5.41-2.21 7.44a6.01 6.01 0 0 1-4.73 2 6.11 6.11 0 0 1-4.76-2c-1.77-1.98-2.2-4.76-2.24-7.32.02-2.47.36-5.13 1.93-7.13a6.14 6.14 0 0 1 4.95-2.33 6.1 6.1 0 0 1 4.79 1.9c1.83 1.99 2.24 4.85 2.27 7.44zm7.28 8.96v-13.08l-3.32 2.56-2.2-2.99 5.87-4.3h3.86v17.81h-4.2m-24.69-39.86c-.07-2.31-.14-4.82-1.5-6.8-.86-1.46-3.2-1.52-4.15-.1-1.48 1.96-1.56 4.54-1.63 6.9.07 2.38.14 5 1.63 6.99.94 1.4 3.29 1.35 4.16-.11 1.36-1.99 1.42-4.56 1.5-6.88zm5.97 0c-.04 3.54-.6 7.36-2.97 10.15a8.3 8.3 0 0 1-6.6 2.85 8.42 8.42 0 0 1-6.47-2.66c-2.47-2.68-3.1-6.5-3.17-10.01 0-3.5.48-7.28 2.74-10.09a8.44 8.44 0 0 1 6.74-3.1c2.43-.09 4.93.78 6.59 2.62 2.52 2.74 3.1 6.66 3.14 10.24zm-30.8 12.35v-18.03l-4.58 3.54-3.01-4.13 8.07-5.93h5.31V166h-5.8m-20.3 0v-18.03l-4.59 3.54-3.01-4.13 8.07-5.93h5.31V166h-5.79m-20.4 0v-18.03l-4.58 3.54-3.02-4.13 8.08-5.93h5.3V166h-5.79"/><path d="M213.35 85.27a43.53 43.53 0 0 0-42.51-34.65c-3.13 0-6.2.35-9.2 1C156.67 22.35 131.15 0 100.47 0 70.08 0 44.75 21.94 39.43 50.8A43.45 43.45 0 0 0 0 94.03a43.44 43.44 0 0 0 43.4 43.39h64.92a6 6 0 1 0 0-12H43.4a31.43 31.43 0 1 1 17.54-57.46 6 6 0 0 0 6.72-9.94 43.08 43.08 0 0 0-16.12-6.62A50.15 50.15 0 0 1 100.46 12a50.14 50.14 0 0 1 49.69 43.9c-1.61.87-3.19 1.82-4.7 2.91a6 6 0 1 0 7.03 9.73 31.16 31.16 0 0 1 18.36-5.92 31.47 31.47 0 0 1 30.75 25.06 6 6 0 0 0 11.76-2.4m8.12 120.28c-.05-1.68-.1-3.5-1.09-4.94-.63-1.06-2.33-1.1-3.01-.08-1.07 1.42-1.14 3.3-1.18 5.02.04 1.73.1 3.63 1.18 5.07.68 1.01 2.38.98 3.01-.08 1-1.44 1.04-3.3 1.09-5zm4.33 0c-.03 2.57-.44 5.34-2.15 7.37a6.02 6.02 0 0 1-4.8 2.06 6.12 6.12 0 0 1-4.7-1.93c-1.76-1.91-2.22-4.63-2.3-7.15 0-2.46.3-5.09 1.77-7.14a6.11 6.11 0 0 1 4.88-2.54c1.78-.11 3.64.44 4.9 1.76 1.93 1.98 2.37 4.91 2.4 7.57zm-62.14 18.35c-.04-1.18-.07-2.48-.8-3.48-.47-.71-1.64-.67-2.09.06-.71 1-.74 2.3-.77 3.5.04 1.2.08 2.51.86 3.49.51.68 1.69.58 2.09-.17.64-1 .67-2.25.71-3.4zm3 0c-.02 1.76-.3 3.65-1.45 5.06a4.12 4.12 0 0 1-3.2 1.48 4.28 4.28 0 0 1-3.28-1.2c-1.28-1.26-1.65-3.13-1.73-4.85-.04-1.66.13-3.41 1-4.86a4.24 4.24 0 0 1 3.52-2.09c1.22-.08 2.5.25 3.38 1.13 1.42 1.36 1.74 3.46 1.76 5.33zm5.04 6.21v-9.07l-2.3 1.78-1.51-2.08 4.06-2.98h2.66v12.35h-2.9m20.35-24.56c-.04-1.68-.1-3.5-1.08-4.94-.63-1.06-2.33-1.1-3.02-.08-1.07 1.43-1.13 3.3-1.18 5.02.05 1.73.1 3.63 1.18 5.07.68 1.02 2.39.98 3.02-.08.99-1.44 1.03-3.3 1.08-5zm4.33 0c-.03 2.57-.43 5.34-2.15 7.37a6.03 6.03 0 0 1-4.8 2.06 6.12 6.12 0 0 1-4.76-2c-1.74-1.94-2.17-4.67-2.23-7.2 0-2.48.33-5.14 1.87-7.17a6.15 6.15 0 0 1 5.01-2.4c1.83-.07 3.71.62 4.91 2.04 1.73 1.98 2.12 4.76 2.15 7.3zm7.28 8.96v-13.09l-3.32 2.57-2.2-3 5.87-4.3h3.85v17.82h-4.2m-44.48-29.96c-.05-1.68-.1-3.5-1.09-4.94-.63-1.06-2.33-1.1-3.02-.08-1.07 1.43-1.13 3.31-1.18 5.02.06 1.73.1 3.63 1.18 5.07.69 1.02 2.4.98 3.02-.08 1-1.44 1.04-3.3 1.09-4.99zm4.33 0c-.03 2.57-.44 5.34-2.16 7.37a6 6 0 0 1-4.79 2.07 6.11 6.11 0 0 1-4.76-2c-1.76-1.98-2.2-4.76-2.24-7.32.02-2.47.37-5.13 1.94-7.13a6.14 6.14 0 0 1 4.95-2.33 6.1 6.1 0 0 1 4.78 1.9c1.83 1.99 2.25 4.85 2.28 7.44zm-33.96 0c-.05-1.68-.1-3.5-1.09-4.94-.63-1.06-2.33-1.1-3.02-.08-1.07 1.43-1.13 3.31-1.18 5.02.05 1.73.1 3.63 1.18 5.07.69 1.02 2.4.99 3.02-.08 1-1.44 1.04-3.3 1.09-4.99zm4.33 0c-.03 2.57-.44 5.34-2.16 7.37a6.01 6.01 0 0 1-4.79 2.07 6.11 6.11 0 0 1-4.76-2c-1.76-1.98-2.2-4.76-2.24-7.32.02-2.47.37-5.13 1.93-7.13a6.14 6.14 0 0 1 4.96-2.33 6.11 6.11 0 0 1 4.78 1.9c1.84 1.99 2.24 4.85 2.28 7.44zm36.9 8.96v-13.08l-3.32 2.56-2.19-2.99 5.87-4.3H175v17.81h-4.2m-29.47 0v-13.08l-3.32 2.56-2.19-2.99 5.87-4.3h3.85v17.81h-4.2m74.86-78.5c-.07-2.35-.14-4.93-1.57-6.91-.95-1.42-3.28-1.33-4.16.11-1.42 2-1.5 4.59-1.55 6.95.09 2.38.16 5 1.72 6.95.98 1.31 3.23 1.2 4.07-.22 1.36-1.99 1.42-4.55 1.5-6.87zm5.97 0c-.04 3.55-.6 7.36-2.97 10.15a8.3 8.3 0 0 1-6.6 2.86 8.43 8.43 0 0 1-6.56-2.76c-2.43-2.73-3.02-6.55-3.08-10.08.02-3.49.52-7.26 2.83-10.03a8.44 8.44 0 0 1 6.65-3 8.4 8.4 0 0 1 6.59 2.62c2.53 2.73 3.1 6.67 3.14 10.25zm-29.75 12.35v-18.03l-4.57 3.53-3.02-4.12 8.08-5.93h5.3v24.55h-5.79m-38.5-12.34c-.07-2.36-.14-4.94-1.58-6.92-.94-1.43-3.27-1.33-4.16.11-1.41 2-1.48 4.59-1.54 6.95.09 2.38.16 5 1.72 6.95.98 1.31 3.23 1.2 4.07-.22 1.36-1.99 1.42-4.55 1.5-6.87zm5.97 0c-.04 3.54-.6 7.35-2.97 10.14a8.3 8.3 0 0 1-6.6 2.86 8.43 8.43 0 0 1-6.56-2.76c-2.43-2.73-3.02-6.55-3.08-10.08.02-3.49.52-7.25 2.82-10.03a8.44 8.44 0 0 1 6.66-3 8.4 8.4 0 0 1 6.59 2.62c2.52 2.73 3.1 6.67 3.14 10.25zm-29.75 12.34v-18.03l-4.57 3.53-3.02-4.12 8.08-5.93h5.3v24.55h-5.79" fill="#c11111"/></svg>