<svg xmlns="http://www.w3.org/2000/svg" width="43.995" height="43.995"><path d="M21.118 15.453a1.75 1.75 0 01-.87-1.51v-5l-3.49 2v12.05l4.36-2.52a1.74 1.74 0 011.74 0l11.34 6.52v-4zm-5.13 12a.94.94 0 01-.22.12l-4.24 2.48 10.46 6 10.47-6-10.47-6.06zm5.13-12a1.75 1.75 0 01-.87-1.51v-5l-3.49 2v12.05l4.36-2.52a1.74 1.74 0 011.74 0l11.34 6.52v-4zm18.63-5.75L23.758.473a3.55 3.55 0 00-3.54 0l-16 9.23a3.54 3.54 0 00-1.76 3.06v18.46a3.55 3.55 0 001.77 3.07l16 9.23a3.55 3.55 0 003.54 0l16-9.23a3.55 3.55 0 001.77-3.07v-18.46a3.54 3.54 0 00-1.79-3.06zm-2.08 20.35a1.61 1.61 0 01-.06.44c0 .1-.07.2-.11.3a1.13 1.13 0 01-.15.23 1.47 1.47 0 01-.53.49l-13.93 8a1.76 1.76 0 01-1.74 0l-13.94-8-.15-.11a1.08 1.08 0 01-.16-.14 1.28 1.28 0 01-.16-.17 1.74 1.74 0 00-.11-.18 2 2 0 01-.1-.21.42.42 0 010-.1v-.12a.9.9 0 010-.16 2.11 2.11 0 010-.24 2 2 0 010-.25.75.75 0 010-.16.38.38 0 010-.1l-.07-.23a1 1 0 01.07-.15 1.52 1.52 0 01.26-.35.87.87 0 01.14-.13 2.1 2.1 0 01.27-.18l6.08-3.54v-12.06l-4.36 2.52a1.74 1.74 0 01-1.74-3l6.87-4 7.07-4.06a.66.66 0 01.19-.09 1.74 1.74 0 011.32 0 .66.66 0 01.19.09l13.92 8a1.74 1.74 0 01-1.73 3l-11.28-6.49v4l13.07 7.59a1.73 1.73 0 01.87 1.5zm-21.68-2.59a.94.94 0 01-.22.12l-4.24 2.47 10.46 6 10.47-6-10.47-6.06zm4.26-13.52v-5l-3.49 2v12.05l4.36-2.52a1.74 1.74 0 011.74 0l11.34 6.52v-4l-13.08-7.54a1.75 1.75 0 01-.87-1.51zm.87 1.51a1.75 1.75 0 01-.87-1.51v-5l-3.49 2v12.05l4.36-2.52a1.74 1.74 0 011.74 0l11.34 6.52v-4z"/><path d="M22.053 21.883v.08a.72.72 0 01-.11.15 1.13 1.13 0 00.11-.23z"/><path d="M21.668 22.063a1.69 1.69 0 01.66-.13 1.85 1.85 0 00-.66.13z"/><path d="M22.328 22.063a1.85 1.85 0 00-.66-.13 1.69 1.69 0 01.66.13z"/></svg>