<svg xmlns="http://www.w3.org/2000/svg" width="720" height="720"><path d="M690.996 496.43s-6.21-31.078-51.273-24.867c0 0-20.358-36.375-61.108-26.039-4.21-1.492-7.25-1.922-7.25-1.922-10.884-34.18-63.712-27.969-63.712-27.969-31.062-23.305-34.173-45.062-34.173-45.062-10.875-41.945 37.29-57.484 37.29-57.484 34.181-23.297 15.538-48.164 15.538-48.164l-51.272-59.04c-20.194-13.984-49.728-6.211-49.728-6.211-12.422-93.229-100.996-91.673-100.996-91.673l-9.318 9.312c52.828-4.656 55.945 21.766 55.945 21.766-1.562 20.188-29.523 32.617-29.523 32.617-76.142 41.953-66.812 96.329-66.812 96.329 7.766 99.445 139.837 113.422 139.837 113.422 71.47-4.648 87 41.954 87 41.954 45.062 0 35.741 34.18 35.741 34.18-155.376-4.656-181.79 155.375-181.79 155.375h99.446c23.297-144.501 149.148-133.618 149.148-133.618 0-14.232-6.845-22.914-14.267-28.147 9.866-1.133 27.672.945 42.233 25.04 0 0 29.915.383 29.531 24.858 0 0-113.432-3.108-136.734 110.32h82.345s7.772-102.557 111.867-88.57c.004 0 9.324-24.86-27.965-26.407M447.064 263.366c-71.47 32.625-40.398 108.759-40.398 108.759-85.453-23.305-48.164-71.47-48.164-71.47 63.711-57.484 66.806-93.219 66.806-93.219 48.173-9.328 54.392 17.086 54.392 17.086 1.545 23.305-32.636 38.844-32.636 38.844" fill="#19398a"/><path d="M436.964 418.734l2.327-4.656h30.306c9.312 0 9.312 10.883 9.312 10.883-10.478-1.562-19.797 6.977-19.797 6.977l5.04-13.203-27.188-.001M284.658 118.577l-14.446 10.491 5.523 16.978-14.444-10.493-14.437 10.493 5.515-16.978-14.43-10.491h17.843l5.51-16.969 5.521 16.969zm-73.024 43.508l-14.445 10.492 5.523 16.969-14.453-10.485-14.43 10.485 5.516-16.969-14.438-10.492h17.852l5.5-16.977 5.523 16.977zm-59.031 49.718l-14.454 10.493 5.524 16.968-14.445-10.484-14.446 10.484 5.516-16.968-14.43-10.493h17.844l5.516-16.984 5.515 16.984zm-48.172 63.703L89.984 286l5.516 16.968-14.438-10.485-14.445 10.485L72.133 286l-14.43-10.494h17.844l5.515-16.983 5.517 16.983zm-35.736 69.915L54.25 355.906l5.516 16.984-14.438-10.5-14.437 10.5 5.507-16.984-14.429-10.485h17.843l5.516-16.976 5.516 16.976zM46.734 507.954l-14.453 10.491 5.524 16.977-14.446-10.484-14.437 10.484 5.516-16.977L0 507.954h17.852l5.507-16.977 5.516 16.977zm17.571 82.976l-14.453 10.492 5.523 16.97-14.437-10.485-14.446 10.485 5.516-16.97-14.43-10.492h17.844l5.516-16.984 5.507 16.984zm-14.25-164.712l-14.453 10.485 5.523 16.976-14.445-10.491-14.438 10.491 5.508-16.976-14.43-10.485h17.844l5.516-16.976 5.515 16.976z" fill="#19398a"/></svg>