<svg version="1.1" viewBox="0 0 128 128" xmlns="http://www.w3.org/2000/svg"><defs><style>.cls-1{fill:#000;stroke-width:0}</style></defs><path class="cls-1" transform="translate(-27.741 -22.772) scale(2.7838)" d="M34.21 40.62c-.66 0-1.19.54-1.19 1.19 0 .65.54 1.19 1.19 1.19a1.2 1.2 0 0 0 1.19-1.19 1.2 1.2 0 0 0-1.19-1.19zm.74 1.19c0 .41-.33.74-.74.74s-.74-.33-.74-.74.33-.74.74-.74.74.33.74.74z"/><path class="cls-1" transform="translate(-27.741 -22.772) scale(2.7838)" d="M51.31 32.78c-.87-2.3-3.65-10.63-4.21-12.31.05-.03.11-.08.19-.12.11-.07.14-.15.1-.28-.11-.33-1.97-5.77-2.02-5.92-.04-.11-.1-.17-.17-.19-.07-.02-.15 0-.23.05a24.49 24.49 0 0 0-3.07 2.92c-1.04-.35-2.08-.62-3.1-.8.45-.41 1.06-.48 2.08-.31.21.04.3.01.39-.14.51-.85 3.49-5.79 3.49-5.79.08-.16.01-.28-.12-.33-2.43-.84-5.1-1.38-7.94-1.38-6.57 0-12.57 2.92-16.79 7.58-2.53 2.79-4.51 6.26-5.5 10.18-.45 1.76-.69 3.52-.69 5.56 0 2.93.63 5.83 1.79 8.53 1.04 2.41 2.54 4.67 4.4 6.71.09.1.25.1.34 0 .45-.55 3.26-3.9 3.26-3.9.06-.07.09-.19.02-.29-.31-.44-.47-.87-.47-1.27 0-.35.1-.71.26-1.14.15.22.66.89 1.01 1.33.45.56.91 1.17 1.25 1.72-1.76 1.18-2.54 2.54-2.54 3.78 0 1.24.62 2.23 1.42 3.06.82.85 1.95 1.63 3.41 2.3 1.96.9 5.06 1.83 9.06 1.83 2.09 0 3.8-.26 5.05-.51 1.25-.26 3.3-.78 5.59-1.89.13-.06.16-.13.16-.23 0-.05-.02-.11-.11-.18-.58-.49-2.81-1.18-4.59-1.68.09-1.1.32-2.21.67-3.33h.49c.88 0 1.73-.08 2.45-.24 1.22-.26 2.26-.76 2.83-1.4.27-.3.48-.74.48-1.18 0-.64-.4-1.24-.91-1.77.27-.37.45-.51.9-.53.1 0 .19-.1.24-.26.09-.27.02-.65-.08-.84-.11-.19-.17-.28-.32-.41.41-.33.71-.61.71-.96 0-.28-.18-.55-.32-.75-.28-.39-.24-.56.34-1.12 1.17-.09 1.68-.47 1.68-1.26 0-.73-.56-1.94-.91-2.86zm-8.3 18.77c.73.19 1.71.47 2.28.7-.68.25-1.38.47-2.1.66a9.32 9.32 0 0 1-.18-1.36zm4.04-.04c-.39.18-.79.35-1.19.52-.4-.24-1.34-.55-2.87-.95 0-.31 0-.62.02-.94 1.16.32 3.19.93 4.05 1.38zm3.42-15.06c-.88-.21-1.97-.17-2.74.46-.19-.18-.34-.42-.34-.7 0-.27.17-.59.5-.89.06-.06.09-.13.07-.21a.262.262 0 0 0-.16-.18c-.07-.02-.15 0-.21.05-.49.46-.64.87-.64 1.22 0 .16.05.36.11.51.1.23.35.57.6.68.1.04.18.04.25-.04.05-.05.25-.21.31-.25.61-.38 1.45-.33 1.77-.29-.42.45-.57.86-.16 1.43.18.24.25.34.25.42 0 .2-.17.44-.71.83h-.21c-.7 0-1.48.2-2.34.42-.21.05-.38.09-.59.15.03-.1.08-.21.12-.3.06-.14-.01-.27-.15-.29-.11-.02-.19.05-.26.2-.08.18-.29.59-.19.87.03.1.11.16.2.16.09 0 .18-.06.22-.16.22-.05.47-.11.73-.18.72-.19 1.52-.39 2.16-.41h.32c.33.17.46.47.41.83-.27.04-.52.16-.71.3-.26.19-.44.42-.49.58-.04.11-.02.21.05.27.58.54.89 1.09.89 1.59 0 .36-.18.68-.36.9-.45.54-1.36.98-2.58 1.23-1.42.3-3.15.31-4.87.01-1.96-.33-3.89-1.05-5.58-2.07.47-.49.73-1.14.73-1.82 0-.34-.06-.67-.19-.98.57-.68.75-1.67.45-2.57-.29-.87-.94-1.49-1.79-1.7l.06-.47c2.63-.33 4.8-2.43 5.29-5.1.98-.66 1.7-1.36 2.21-2.16 1.7-.76 4.39-1.36 6.36-.59.82 2.39 1.36 3.93 1.65 4.7.09.24.52 1.33.62 1.61.22.64.38 1.15.17 1.47-.16.25-.55.38-1.21.43zm-7.86 13.01c-.11 1.06-.11 2.4.14 3.57-.29.07-.56.13-.83.19-2.14-.76-7.71-2.51-10.32-3.17 1.66-1.81 2.24-4.09 2.22-5.62a2.607 2.607 0 0 0 1.93-.47c2.86 1.76 5.65 2.27 7.49 2.39-.22.84-.49 1.77-.64 3.13zm-1.58 3.92c-.88.15-1.77.25-2.67.3-1.47-.68-5.59-2.03-7.98-2.56.3-.22.59-.46.86-.71 2.25.54 7.27 2.11 9.79 2.97zm1.04-42.91c.03-.07.04-.13.02-.19a.22.22 0 0 0-.28-.15c-.05.02-.11.07-.15.14-.05.09-2.36 4.56-2.36 4.56-.3-.08-.61-.14-.92-.2l2.41-5.62c1.15.21 2.3.51 3.44.89l-3.29 5.45c-.4-.15-.8-.28-1.2-.4l2.32-4.48zm-1.73-1.54-2.41 5.62c-.33-.05-.68-.09-1.02-.12 0 0 1.3-4.16 1.38-4.42a.29.29 0 0 0-.02-.21c-.04-.07-.12-.1-.19-.1a.21.21 0 0 0-.21.16c-.12.38-1.42 4.54-1.42 4.54-.37-.02-.75-.03-1.12-.02l1.48-5.74c1.17 0 2.36.1 3.54.29zM21.8 30.66c-.34.32-.6.62-.76.83 0-.62.03-1.25.1-1.88zm2.78-5.18c.4.67 1.01 1.2 1.51 1.58-.21.15-.43.3-.64.47-.8-.62-1.88-1.47-2.05-2.54-.02-.13-.09-.22-.2-.23-.12 0-.19.07-.23.18-.25.68-.3 1.35-.17 2.05-.36.09-.83.29-1.26.54.45-1.7 1.18-3.31 2.16-4.77.12.91.37 1.86.88 2.71zm13.07-4.51s-.06.05-.07.15c-.03.23-.01.46.05.67.04.15.11.3.2.43-.38.55-.76 1.13-1.16 1.75-.56-.19-1.12-.33-1.72-.44 0 0 1.34-1.44 1.35-1.46l1.64-1.77s.06-.08.06-.12a.228.228 0 0 0-.07-.19.213.213 0 0 0-.15-.07c-.05 0-.1.01-.15.05-.25-.38-.27-.79-.05-1.08.22-.29.62-.39 1.04-.26-.03.25-.01.52.06.8.02.06.05.1.08.13.04.03.1.04.16.04.07 0 .14-.04.17-.09.03-.05.05-.11.03-.19-.18-.73.09-1.16.41-1.32.37-.19.84-.06 1.17.33-.42.51-.99 1.26-1.27 1.63-.28.37-.7.96-1.08 1.5-.25-.1-.36-.17-.46-.28-.05-.06-.1-.12-.15-.17-.03-.04-.06-.05-.1-.04zm-6.58 9.08c.48-.09 1-.17 1.51-.21.08.05.15.1.22.15-.31.47-.6.89-.88 1.31-.19-.44-.47-.87-.85-1.26zm-5.38 2.75c0-1.88 1.72-3.3 4.07-4.09.64.2 1.57.5 2.1.75-1.95.25-3.22.76-4.17 1.54-.6.5-.95 1.08-.95 1.73 0 .85.5 1.5 1.3 1.5s1.28-.58 1.28-1.25c0-.81-.66-1.39-1.45-1.54.23-.21.61-.48.98-.68.49.24.95.66 1.18 1.09.32.58.34 1.2.22 1.75-.31.41-.6.79-.9 1.17-.45.26-.9.37-1.24.37-1.53 0-2.41-1.01-2.41-2.36zm2.42 2.81c.22 0 .46-.04.64-.09-.3.36-.58.69-.89 1.02-1.56-.15-2.44-.75-3.01-1.54-.29-.41-.55-.96-.6-1.74-.14-2.18 1.3-4.2 3.56-5.23.37.15.74.3 1.24.47-1.09.43-1.93.95-2.54 1.54-.68.67-1.28 1.62-1.28 2.76 0 1.57 1.05 2.82 2.87 2.82zm-4.73-7.09c.12.22.25.44.4.68-.11.14-.21.28-.32.42-.15.04-.31.11-.47.18l-.44-.89.82-.4zm-.16-2.69c.4.79 1.12 1.39 1.89 1.99-.39.33-.72.68-1.02 1.02-.37-.56-.66-1.17-.79-1.71-.1-.44-.13-.82-.08-1.29zm5.65 7.15c0 .52-.4.81-.8.81-.51 0-.87-.39-.87-1.05 0-.31.12-.61.31-.88.63 0 1.37.42 1.37 1.12zm1.67-2.81c.53.46.98 1.2 1.06 1.6-.3.43-.56.8-.83 1.16-.01-.56-.18-1.03-.41-1.4-.3-.47-.7-.8-1.01-.99.53-.21.95-.33 1.19-.38zm-1.09-2.03c.23 0 .5-.01.76-.02 1.24-.04 2.79-.1 3.73.11-.29.46-.59.92-.9 1.39-.08-.06-.19-.13-.3-.2-.42-.26-1.1-.56-1.88-.82-.28-.09-1.13-.37-1.42-.46zm1.04-.47c-.68.02-1.87.08-2.37 0-.99-.42-1.67-.84-2.25-1.36 1.45.36 3.51.27 4.34.26h.45c1.28-.02 3.01-.07 4.17.29l-.63.99c-.58-.16-1.38-.2-2.25-.2-.58 0-1.23.02-1.46.03zm-8.03.78c-.22.11-.35.21-.38.31-.03.09 0 .22.08.39l.44.88c-.15.1-.3.21-.46.33l-.9-1.44c.04-.25.09-.5.15-.75.55-.39 1.17-.65 1.52-.74.07.22.16.45.26.68 0 0-.41.2-.72.34zm1.84.83c.54-.65 1.44-1.46 2.2-1.95.24.15.53.31.8.44-2.41 1.24-3.95 3.67-3.37 6.26-.49.49-.75.75-1.53.8.48-.7.43-1.94.5-2.5.19-1.45.7-2.19 1.41-3.06zm-.97 5.81c.24-.12.53-.32.77-.55.53 1.26 1.72 2.18 3.38 2.41-.3.33-.61.64-.9.93-.92-.47-1.55-.78-2.07-1.23-.5-.44-.81-.86-1.18-1.56zm8.69-8.99c-.92 0-3 .07-4.17 0-1.13-.07-1.93-.19-2.62-.48-.36-.47-.61-1.04-.81-1.6.64.56 1.6.88 2.64 1.04.77.12 1.61.15 2.47.15.04 0 .79 0 1.16-.02 1.6-.04 3.6-.08 4.93.42l-.54.84c-.88-.27-1.8-.35-3.06-.35zm-2.55-1.35c-.84 0-1.62-.04-2.32-.14-1.28-.19-2.27-.6-2.92-1.43-.06-.31-.1-.63-.13-.97.05-.07.11-.15.16-.21.54.71 1.24 1.15 1.94 1.38.63.21 1.45.36 3.14.35 1.7-.01 3.55-.08 5.1.16.78.12 1.36.26 1.98.46-.19.29-.37.58-.56.86-1.04-.42-2.44-.51-3.76-.51-.47 0-2.27.04-2.63.04zm-2.52-5.46c.28.49.63.88 1.17 1.24.44.29 1.03.46 1.48.46.19 0 .39-.02.59-.07.32.34.72.61 1.16.78-.36.17-.95.28-1.61.28-1.02 0-2.22-.29-2.86-1a.874.874 0 0 0-.1-.08.598.598 0 0 0-.16-.08c-.16-.04-1.09-.29-1.09-.29.47-.46.99-.9 1.4-1.24zm10.2-.85c0 .46-.33.75-.78.8 0-.05 0-.1-.03-.13a.223.223 0 0 0-.18-.1c-.05 0-.09 0-.13.03-.05.03-.1.09-.11.17 0 .05-.1.71-.12.93-.1.03-.19.05-.31.05-.07 0-.22-.01-.33-.03-.06-.01-.11-.02-.14.02-.03.03-.02.09 0 .13.12.29.41.41.74.49-.01.42.02.77.1 1.1l-1.45 1.56-.49-.06s1.01-4.08 1.04-4.23c.01-.06 0-.11-.01-.16a.255.255 0 0 0-.15-.12c-.05-.01-.11 0-.16.02s-.09.07-.11.15v.02c-.33-.12-.57-.54-.54-.92.03-.32.25-.54.6-.6.1.23.29.46.55.68.07.06.14.07.21.05.08-.03.14-.1.16-.18a.22.22 0 0 0-.08-.21c-.19-.15-.31-.34-.38-.47a.665.665 0 0 1-.03-.61c.15-.33.6-.53 1-.45.4.08.65.4.7.88-.23-.06-.48-.07-.75-.02-.07.01-.11.04-.14.07-.04.04-.05.09-.05.15 0 .08.04.16.1.2.04.03.1.04.17.03.09-.02.17-.02.27-.02.47 0 .83.36.83.82zm-7.27 2.08c-1.12.15-2.17-.7-2.57-1.5.8-.58 1.66-1.08 2.56-1.48-.61.99-.61 2.07 0 2.98zm.02-1.22c-.09-.86.32-1.58.79-2.09.51-.19 1.04-.35 1.57-.48l.15 1.64s-.69-.49-.82-.58a.224.224 0 0 0-.29.01c-.07.06-.11.17-.05.27-.29.28-.45.66-.45 1.06 0 .81.66 1.48 1.48 1.48.11 0 .22-.01.33-.04l.08.89c-1.42.12-2.67-.96-2.79-2.16Zm3.03-.23c-.02-.27-.22-2.45-.22-2.45.67-.14 1.37-.24 2.08-.28-.2.22-.31.48-.3.75-.51.08-.95.45-.95 1.1 0 .65.44 1.18.87 1.3l-.95 3.84c-.3-.02-.61-.04-.93-.05-.53-.5-.68-1.05-.73-1.33.04-.03.08-.06.11-.09.36.07.71.08 1.06.02.05 0 .11-.04.15-.09.03-.04.04-.09.04-.16-.02-.24-.15-1.61-.15-1.61 0-.05-.02-.1-.05-.13a.228.228 0 0 0-.19-.07c-.05 0-.11.03-.15.07-.04.04-.06.1-.06.18v.06a1.029 1.029 0 0 1-1.31-.99c0-.3.13-.58.35-.78l.85.6v.16c.02.05.04.1.06.13.04.05.11.08.18.08.07 0 .13-.03.18-.08.03-.04.05-.09.04-.16zm-6.39 2.19c.76.84 2.09 1.17 3.26 1.17.61 0 1.17-.1 1.59-.26.06.28.2.69.52 1.1-.59-.01-2.25.02-2.57.02-1.04 0-1.98-.04-2.85-.28-.11-.45-.13-1.33.01-1.76h.03zm9.77-1.57c.26 0 .5-.07.69-.18.03.27.14.54.32.79l-1.09 1.17c-.08-.58 0-1.19.07-1.78zm-10.23 1.44c-.15.48-.14 1.21-.07 1.7-.6-.26-1.08-.65-1.47-1.19.21-.26.43-.51.65-.74l.89.24zm-1.2 16.33c-.37.37-.62.55-1.26.6.07-.54.04-1.03-.01-1.7.36.45.79.8 1.27 1.1zm-2.38-5.57c-.37.12-.96.51-1.4.82-.01-.14-.02-.3-.03-.48.12-.22.35-.52.62-.83.39-.43.88-.88 1.38-1.14-.36.68-.49 1.19-.58 1.63zm17.38-14.41c-.56 0-.96.34-1.13.71-.42-.14-.83-.1-1.16.09-.04-.32-.19-.61-.42-.81.02-.46-.07-.84-.25-1.11.36.03.9.08 1.41.15 1.19.18 2.3.48 3.24.79-.19.22-.39.45-.59.69-.31-.32-.71-.51-1.11-.51zM22.43 32.41c-.14 1.7-.2 2.02-.68 2.5-.08.08-.12.18-.09.26.03.08.12.13.24.13.46 0 .76-.02 1-.07.07.15.15.29.23.42 0 .19.02.44.04.7.04.66.09 1.48-.03 1.88-.02.08-.02.15.02.2.04.05.11.09.19.09.88 0 1.29-.17 1.93-.82.26.15.77.4.97.51-.74.72-1.52 1.39-2.32 2-1.57-2.1-2.46-4.15-2.77-6.97.29-.21.91-.64 1.27-.83zm22.84-14.92c.13.38.54.59.92.46l.17.49c-.25.19-.5.39-.73.58l-1.29-.27.23-1.97c.31-.3.62-.59.94-.86l.22.63c-.38.14-.58.55-.45.93zm-1.53 7.92c1.4-1.07 1.97-2.22 1.82-3.74.33-.28.66-.55.98-.79.1 1.23-.09 2.4-.55 3.38a4.802 4.802 0 0 1-2.3 2.34c.04-.26.07-.78.05-1.18zm-9.53 18.58a2.181 2.181 0 0 1-1.45-3.81c.39-.34.89-.55 1.45-.55 1.18 0 2.18.93 2.18 2.18s-.99 2.18-2.18 2.18zm-6.19 6.33c-.46-.15-.89-.35-1.3-.6 1.92-.62 3.26-1.77 3.88-3.31.65-1.61.47-3.51-.52-5.35.25-.23.5-.47.74-.71 1.34 2.35 1.35 5.09.35 6.99-.57 1.09-1.5 2.11-3.15 2.98zm8.78-11.14c0 .41-.13.86-.38 1.21-.18-.27-.4-.51-.67-.71.07-.22.1-.36.1-.58 0-.34-.12-.66-.33-.9-.21-.24-.53-.38-.93-.38-.32 0-.64.12-.91.34-.06-.3-.1-.61-.11-.91.28-.34.57-.71.88-1.13h.46l-.05.36h-.1a.26.26 0 0 0-.15.04c-.07.04-.1.1-.1.18 0 .07.02.14.07.18.04.03.08.05.14.05.6.02 1.11.26 1.49.69.38.43.57 1 .57 1.57zm-2-3.5c.26-.35.52-.71.78-1.06 1.52-.47 2.59-1.28 3.23-2.4.53-.92.72-2.04.52-3.05.27-.4.51-.74.74-1.06.25.87.34 1.77.17 2.75-.21 1.24-.83 2.4-1.77 3.29-.93.87-2.22 1.5-3.66 1.54zm3.52-3.53c-.47.78-1.27 1.39-2.29 1.83.5-.7.98-1.41 1.4-2.02.27-.4 1.28-1.9 1.52-2.24.06.91-.23 1.77-.63 2.43zm-4.51 6.53c.2-.23.47-.4.79-.4.25 0 .47.1.62.27.12.14.19.34.19.58 0 .11-.02.21-.05.32-.36-.17-.74-.26-1.15-.26-.07 0-.15 0-.23.01-.06-.16-.12-.33-.17-.51zm-.28.59c-.29.08-.57.21-.82.38-.12-.29-.21-.61-.28-1.02.24-.27.49-.57.74-.87.06.52.18 1.03.36 1.51zm-2.39.75c.29-.3.6-.63.91-.97.07.34.17.63.3.89-.31.31-.54.7-.67 1.12-.16-.4-.35-.76-.54-1.05zm-1.99 6.07c.69-1.29.64-2.74-.14-4.1.24-.19.48-.4.73-.62.9 1.73 1.05 3.54.39 4.99-.68 1.52-1.96 2.46-3.88 3.03-.36-.28-.65-.58-.88-.9 1.6-.12 3.05-1.04 3.78-2.4zm-1.27-.43c.49-.97.23-2.01-.12-2.73.29-.21.59-.43.89-.66.68 1.23.69 2.58.03 3.73-.71 1.24-2.08 2.02-3.57 2.05-.12-.26-.2-.52-.23-.77 1.7-.22 2.6-.82 3.01-1.62zM26.4 43.8c.33-.19.66-.4.98-.61.35.66.68 2.11-.56 2.99.03-.56-.01-1.14-.18-1.69-.07-.25-.15-.46-.24-.68zm-1.53 3.03c.08-.7.54-1.34 1.41-1.9.1.49.12.99.06 1.52-.4.18-.9.31-1.47.38zm20.26-24.78c.02 1.11-.42 1.98-1.43 2.82-.04-.37-.1-.76-.19-1.17.54-.6 1.09-1.16 1.63-1.65zm-4.4 7.13c1.24-1.15 1.75-2.46 1.63-4.16.26-.32.51-.62.76-.91.33 1.73.16 3.04-.46 4.17-.47.86-1.15 1.52-1.92 2.09.03-.37.03-.85-.01-1.2zm-.34-1.54c.3-.44 1.31-1.77 1.55-2.08-.04 1.26-.43 2.19-1.29 3.07a7.23 7.23 0 0 0-.26-.99zm2.83.56c.16-.34.28-.7.37-1.08 2.2-.92 3.37-2.94 3.42-5.49.43 1.29 1.24 3.7 2.04 6.06-1.58-.48-3.76-.3-5.83.5zm-.15-4.68c-1.1 1.21-2.27 2.82-3.13 4-.47.65-1.84 2.65-2.22 3.21-.79 1.16-1.92 2.8-2.49 3.59-1.69 2.36-3.25 4.26-4.73 5.7-.9.88-2.15 2.09-4.29 3.36-.13-.26-.34-.6-.47-.79 5.05-3.31 8.67-8.9 11.08-12.36 2.66-3.82 5.57-8.16 9.69-11.34l.4 1.16c-.23.15-.92.63-1.81 1.41-.83.73-1.54 1.51-2.04 2.05zM31.1 35.66c1.83-2.35 3.52-5.04 5.16-7.64 2.37-3.77 4.83-7.68 7.79-10.72l-.18 1.56c-.01.13-.02.19.02.23.03.04.07.05.18.08l1.12.23c-3.47 2.98-6.11 6.81-8.67 10.52-3.11 4.5-6.33 9.16-11.04 12.32-.18-.25-.37-.5-.54-.71 2.1-1.32 4.11-3.23 6.16-5.86zm4.79-7.92c-.28.44-.55.88-.83 1.32-3.09 4.89-6.21 9.49-10.4 12.11l-.46-.59c1.56-1.2 2.84-2.48 3.83-3.56 1.03-1.13 2.57-3 3.98-5.07 1.47-2.15 2.44-3.67 3.57-5.45 1.91-3.01 3.69-5.75 5.6-8.05 1.08-1.3 2.43-2.75 3.85-3.9l.31.92c-3.98 3.43-6.98 8.34-9.46 12.27zm-1.03-13.35c-.28.01-.57.04-.87.07 0 0 .61-3.96.67-4.37.01-.08 0-.16-.03-.21a.225.225 0 0 0-.33-.05c-.05.05-.07.12-.09.25-.05.34-.68 4.43-.68 4.43-.37.05-.74.12-1.11.2l.39-5.73c1.16-.21 2.35-.33 3.53-.35l-1.48 5.75zm4.58.94c-.48.09-.87.33-1.17.71-.72-.11-1.57-.18-2.56-.18-3.69 0-6.74 1.31-8.95 3.01-2.08 1.6-3.51 3.52-4.49 5.46-1.15 2.31-1.69 4.74-1.69 6.9 0 2.89.63 5.85 2.42 8.46-.21.49-.37 1.04-.39 1.53-1.61-2.48-2.49-4.94-2.89-7.26-.7-4.07.22-8.1 2.25-11.31 2.45-3.89 5.66-5.71 7.62-6.56 1.97-.86 4.07-1.26 6.05-1.26 1.46 0 2.74.22 3.79.5zM21.72 40.61c.18.3.36.6.54.89l-2.9 2.87c-.05.05-.07.1-.08.16 0 .07.01.13.06.18.04.04.1.06.16.06s.13-.03.18-.08l2.84-2.81c.18.26.36.53.56.79l-2.99 3.58c-.8-.89-1.53-1.83-2.17-2.79l3.81-2.85zm-1.28-2.58c.12.28.24.55.36.81 0 0-3.06 1.87-3.21 1.96-.07.04-.11.09-.13.15-.02.06-.02.13.02.19s.1.1.17.1c.05 0 .11-.01.17-.05.15-.09 3.17-1.93 3.17-1.93.16.32.33.65.51.96l-3.83 2.86c-.62-.97-1.17-1.98-1.62-3l4.4-2.04zm-.92-2.84c.09.38.19.77.31 1.15 0 0-3.44 1.01-3.58 1.05-.06.02-.11.05-.14.09-.04.05-.06.12-.03.2.02.07.07.12.13.14.05.02.12.02.18 0 .18-.05 3.58-1.05 3.58-1.05.09.28.19.56.3.84l-4.41 2.05c-.47-1.12-.85-2.28-1.12-3.45zm.93-10.58s-3.11-1.91-3.26-2a.329.329 0 0 0-.18-.05c-.07 0-.12.05-.16.11-.03.05-.04.11-.02.16.02.06.06.12.13.16.09.05 3.32 2.04 3.32 2.04-.12.3-.24.61-.34.91l-4.36-2.18c.39-1.06.87-2.11 1.41-3.1l3.93 2.99c-.16.31-.32.63-.46.96zm11.51-9.79c-.31.08-.63.17-.95.27 0 0-.14-4.31-.14-4.42 0-.08-.02-.15-.06-.2a.241.241 0 0 0-.17-.07c-.07 0-.13.03-.16.08-.04.05-.06.1-.05.19 0 .26.15 4.57.15 4.57-.32.11-.64.23-.95.36l-.74-5.49c1.13-.44 2.3-.78 3.48-1.02l-.39 5.74zm-3.67 1.39-.98-4.12a.294.294 0 0 0-.1-.16.21.21 0 0 0-.19-.03c-.07.02-.11.05-.14.11-.03.05-.03.13-.01.2l1.01 4.21c-.27.15-.54.31-.8.48l-1.71-5.08c.98-.6 2.02-1.12 3.07-1.55l.74 5.5c-.3.13-.6.28-.89.43zm-2.5 1.6s-1.61-3.71-1.67-3.84c-.03-.07-.07-.11-.13-.13a.248.248 0 0 0-.17 0c-.05.02-.09.06-.12.11-.03.06-.03.13 0 .2l1.71 3.95c-.23.19-.46.38-.67.58l-2.6-4.48c.89-.78 1.84-1.49 2.83-2.12l1.71 5.09c-.31.2-.61.42-.9.64zm-2.11 1.92-2.39-3.28a.252.252 0 0 0-.15-.1.24.24 0 0 0-.18.04c-.05.04-.08.09-.09.15 0 .06 0 .13.05.19l2.44 3.35c-.22.25-.43.5-.63.75l-3.3-3.81c.73-.89 1.52-1.73 2.37-2.5L24.4 19c-.26.24-.5.49-.74.74zm-1.87 2.37s-2.48-2.37-2.79-2.68a.302.302 0 0 0-.15-.09.221.221 0 0 0-.19.06.21.21 0 0 0-.06.18c.01.06.04.12.09.16.22.21 2.86 2.75 2.86 2.75-.15.25-.3.5-.44.75l-3.92-2.99c.57-1 1.23-1.98 1.95-2.89l3.3 3.82c-.23.31-.45.62-.65.93zm-2.27 5.18s-3.42-1.08-3.57-1.12a.34.34 0 0 0-.2 0 .21.21 0 0 0-.13.13c-.02.06-.01.12.01.18s.08.1.15.12c.26.08 3.62 1.14 3.62 1.14-.07.32-.13.63-.18.94l-4.75-.98c.21-1.18.51-2.36.91-3.5l4.38 2.18c-.1.31-.18.62-.26.91zm-.46 4.92c.02.37.05.74.1 1.11l-3.76.35a.241.241 0 0 0-.24.25c0 .06.03.11.08.15.05.04.12.06.2.05.24-.02 3.78-.35 3.78-.35.05.33.11.67.18.99l-4.78 1.02c-.25-1.2-.4-2.44-.44-3.67zm0-1.87s-3.59-.4-3.71-.41c-.07 0-.14 0-.19.04-.06.03-.1.09-.1.15 0 .07 0 .12.05.17.04.05.11.08.19.09.13.02 3.75.41 3.75.41v.97l-4.87-.1c-.01-1.17.07-2.36.25-3.53l4.76.98c-.05.41-.09.82-.11 1.22zm4.44 16.94c-.11-1.31.68-2.59 2.29-3.68.15.3.27.59.37.88-1.29.78-1.8 1.65-1.8 2.53 0 1.04.74 2.04 1.66 2.75.66.51 1.29.81 1.9 1.01.07.02.11.02.13.02.03 0 .05-.01.1-.04 1.51-.77 2.64-1.73 3.43-3.24.51-.96.83-2.36.7-3.9.3.32.67.56 1.08.7.04 1.37-.39 2.9-1.14 4.14a7.667 7.667 0 0 1-2.55 2.61c-.68.43-1.43.72-1.74.83-2.68-1.25-4.29-2.93-4.43-4.61zm6.33 4.2c1.83.35 5.41 1.46 7.44 2.25h-.33c-3.01 0-5.99-.56-8.43-1.58.61-.26.89-.41 1.32-.67zm19.08-9.23z"/><path class="cls-1" transform="translate(-27.741 -22.772) scale(2.7838)" d="M42.89 20.56c.25 0 .45-.2.45-.45s-.2-.45-.45-.45-.45.2-.45.45.2.45.45.45z"/><path class="cls-1" transform="translate(-27.741 -22.772) scale(2.7838)" d="M40.75 23.17c.2 0 .36-.16.36-.36 0-.2-.16-.36-.36-.36-.2 0-.36.16-.36.36 0 .2.16.36.36.36z"/><path class="cls-1" transform="translate(-27.741 -22.772) scale(2.7838)" d="M41.8 21.82c.23 0 .41-.18.41-.41 0-.23-.18-.41-.41-.41-.23 0-.41.18-.41.41 0 .23.18.41.41.41z"/><path class="cls-1" transform="translate(-27.741 -22.772) scale(2.7838)" d="M28.65 19.47c.24 0 .44-.2.44-.44s-.2-.44-.44-.44-.44.2-.44.44.2.44.44.44z"/><path class="cls-1" transform="translate(-27.741 -22.772) scale(2.7838)" d="M46.63 29.71c-1.02.01-1.92.13-2.68.37-.41.13-.89.33-1.25.54-.45.26-.81.55-1.05.82-.1.12-.06.25.01.32.08.07.24.09.34-.04.66.27 1.52.43 2.48.46.63.02 1.42-.04 1.74-.11.39-.08.64-.61.59-1.23-.01-.13-.04-.26-.08-.38.28-.09.58-.23.58-.48a.22.22 0 0 0-.11-.2c-.08-.04-.27-.06-.56-.06zm-2.08.67c.27-.06.54-.11.82-.14-.09.21-.13.47-.11.73.02.27.11.52.25.72-.24.02-.52.03-.81.03-.15-.39-.19-.8-.14-1.35zm-2.17.99c.48-.37 1.06-.66 1.72-.86-.03.46.01.85.12 1.21-.63-.04-1.26-.16-1.84-.35z"/></svg>
