<svg xmlns="http://www.w3.org/2000/svg" width="174" height="174"><path d="M124.055 151.663c10.389 0 17.853-3.084 23.65-6.967 5.405-3.622 9.595-7.908 12.809-13.437 4.155-7.146 5.434-13.788 5.785-17.641 0-.032 7.632-80.322 7.632-80.322l-38.51-.002s-11.377 118.37-11.366 118.37M87.62 60.203l-5.214 54.158c-.96 12.96 3.9 19.62 6.924 23.128 5.523 6.407 15.68 11.445 27.408 13.546.325-3.444 10.428-108.277 10.428-108.296.351-5.381-1.217-10.087-4.806-14.189-4.187-4.781-10.383-6.214-12.94-6.214l-92.08.01C10.414 22.346 0 29.376 0 40.969c0 14.325 12.73 19.236 17.11 19.236l70.51-.001" fill="#c50e1f"/><path d="m34.002 140.778 34.289-.002 7.016-72.867-34.29.001S34.889 131.341 34 140.778" fill="#c50e1f"/><path d="M148.858 97.978c-.21 2.152 2.158 3.31 4.397 3.313l4.101.003c.243-.591.388-1.263.47-2.097.218-2.286-1.016-3.847-4.586-3.85-2.663-.002-4.21.831-4.382 2.631zm11.21 1.435c-.18 1.883-.503 3.308-1.02 4.76l-19.1-.016.28-2.878 6.1.005c.772.002 1.83.083 2.507.246l.005-.055c-1.585-.7-2.472-2.288-2.28-4.252.304-3.172 2.711-4.918 6.705-4.915 4.584.003 7.232 2.668 6.803 7.105m-10.106-15.398c-.155 1.612.934 2.743 2.75 2.989l.545-5.675c-1.86-.056-3.133.991-3.295 2.686zm5.532-5.455-.817 8.498c3.004.084 4.459-1.206 4.723-3.95a9.706 9.706 0 0 0-.402-3.846l2.248-.373c.397 1.397.556 3.065.396 4.733-.396 4.114-2.748 6.398-7.41 6.394-3.97-.004-6.759-2.291-6.388-6.163.368-3.82 3.024-5.405 6.036-5.402.426 0 1.063.029 1.614.109m-3.338-10.15c-.762 2.661.952 3.953 4.92 3.957l5.382.004-.278 2.878-13.239-.011.264-2.744c.744.001 1.91.083 2.904.271l.005-.053c-1.729-.594-3.25-1.94-2.742-4.44l2.784.138m10.933-2.597-19.447-.017.277-2.877 19.447.017-.277 2.877m.655-6.813-13.24-.011.278-2.877 13.241.012zm-15.445-1.464c-.097 1.023-.95 1.855-1.963 1.854-.986 0-1.703-.835-1.607-1.858.096-.995.977-1.826 1.963-1.826.984 0 1.703.835 1.607 1.83m16.905-13.693-8.498-.008c-1.651-.001-2.682.456-2.829 1.988-.194 2.02 1.767 3.498 4.433 3.5l6.365.005-.276 2.879-13.239-.012.264-2.743c.719 0 1.859.056 2.59.19l.002-.027c-1.63-.78-2.645-2.395-2.427-4.655.293-3.038 2.301-3.977 4.62-3.975l9.27.008-.275 2.85" fill="#fff"/></svg>