<svg xmlns="http://www.w3.org/2000/svg" viewBox="0 0 174 174"><defs/><path fill="#c50e1f" d="M124 151.7c10.4 0 18-3.1 23.7-7 5.4-3.6 9.6-8 12.8-13.4a43.6 43.6 0 005.8-17.7l7.6-80.3h-38.5l-11.3 118.4M87.6 60.2l-5.2 54.2c-1 13 4 19.6 7 23a48 48 0 0027.3 13.6l10.5-108.3a18.8 18.8 0 00-17.8-20.4h-92c-7 0-17.4 7-17.4 18.7a19 19 0 0017.1 19.2h70.5"/><path fill="#c50e1f" d="M34 140.8h34.3l7-72.9H41l-7 72.9"/><path fill="#fff" d="M148.9 98c-.3 2.1 2.1 3.3 4.4 3.3h4c.3-.6.4-1.3.5-2.1.2-2.3-1-3.9-4.6-3.9-2.6 0-4.2.9-4.3 2.7zm11.2 1.4c-.2 1.9-.5 3.3-1 4.8h-19.2l.3-3h6.1l2.5.3c-1.5-.7-2.4-2.3-2.2-4.3.3-3.1 2.7-4.9 6.7-4.9 4.5 0 7.2 2.7 6.8 7.1M150 84c-.2 1.6.9 2.8 2.7 3l.6-5.7c-1.9 0-3.2 1-3.3 2.7zm5.5-5.4l-.8 8.5c3 0 4.4-1.2 4.7-4a9.7 9.7 0 00-.4-3.8l2.2-.4c.4 1.4.6 3 .4 4.7-.4 4.1-2.7 6.4-7.4 6.4-4 0-6.7-2.3-6.4-6.1.4-3.9 3-5.5 6-5.4h1.7m-3.3-10c-.8 2.6 1 3.9 4.9 3.9h5.4l-.3 2.8h-13.3l.3-2.7c.7 0 2 0 3 .3-1.8-.7-3.3-2-2.8-4.5l2.8.1m10.9-2.6h-19.5l.3-2.9h19.5l-.3 3m.6-6.9h-13.2l.3-2.9H164zm-15.4-1.5a2 2 0 01-2 1.9c-1 0-1.7-.8-1.6-1.9a2 2 0 012-1.8c1 0 1.7.8 1.6 1.8m16.9-13.7h-8.5c-1.6 0-2.7.5-2.8 2-.2 2 1.7 3.5 4.4 3.5h6.4l-.3 3-13.2-.1.2-2.7 2.6.1c-1.6-.8-2.6-2.4-2.4-4.6.3-3 2.3-4 4.6-4h9.3l-.3 2.8"/></svg>
