<svg xmlns="http://www.w3.org/2000/svg" width="81.73" height="81.73"><path fill="#56bc8a" stroke="#fff" stroke-width="2.6" stroke-linecap="round" stroke-linejoin="round" stroke-miterlimit="10" d="M64.03 75.54c-2.68 2.86-8.89 4.8-14.45 4.89h-.61c-18.67 0-22.73-13.73-22.73-21.74V36.44h-7.35a1.54 1.54 0 01-1.54-1.54V24.39a2.62 2.62 0 011.74-2.47c9.59-3.38 12.59-11.74 13-18.1.12-1.7 1-2.52 2.48-2.52h11a1.54 1.54 0 011.57 1.54v17.81h12.84a1.54 1.54 0 011.54 1.54v12.63a1.54 1.54 0 01-1.54 1.54h-12.9v20.59c0 5.17 3.41 6.6 5.51 6.6a15.49 15.49 0 005-1.06 3.32 3.32 0 012-.35 1.63 1.63 0 011.14 1.22l3.4 9.94c.23.78.47 1.64-.1 2.24z"/></svg>