<svg xmlns="http://www.w3.org/2000/svg" viewBox="0 0 325 325" style="background:#000;fill:#fff"><path d="M196.3 174.6a17.4 17.4 0 0 1-1.9 3.4 15.7 15.7 0 0 1-8 6 16.6 16.6 0 0 1-5.2.6 15.9 15.9 0 0 1-6.5-1.3 17 17 0 0 1-5.5-3.9 18.2 18.2 0 0 1-4.8-12.5 18 18 0 0 1 1.3-7 18.2 18.2 0 0 1 3.5-5.6 17 17 0 0 1 5.5-3.7 15.7 15.7 0 0 1 6.6-1.5 17 17 0 0 1 5.5.9 15.4 15.4 0 0 1 7.9 5.9 18.6 18.6 0 0 1 1.8 3.3h3.7a21.9 21.9 0 0 0-2.7-5.6 18.6 18.6 0 0 0-9.4-7 20.5 20.5 0 0 0-6.7-1.1 19 19 0 0 0-7.9 1.7 20.5 20.5 0 0 0-6.5 4.5 22.1 22.1 0 0 0 0 30.3 20.5 20.5 0 0 0 6.5 4.6 19 19 0 0 0 8 1.7 19.8 19.8 0 0 0 6.2-1 19 19 0 0 0 9.6-7 21 21 0 0 0 3-5.7zm45.3-16.4a21.3 21.3 0 0 0-4.2-6.7 20.1 20.1 0 0 0-14.7-6.2 19.4 19.4 0 0 0-8 1.7 20.1 20.1 0 0 0-6.4 4.6 22.5 22.5 0 0 0 0 30.5 20.1 20.1 0 0 0 6.5 4.7 20 20 0 0 0 16 0 20.1 20.1 0 0 0 6.5-4.7 21.9 21.9 0 0 0 4.3-6.8 22.1 22.1 0 0 0 1.7-8.4 22.8 22.8 0 0 0-1.7-8.7zm-3.3 15.7a18 18 0 0 1-3.5 5.6 16.7 16.7 0 0 1-5.5 3.8 16.6 16.6 0 0 1-13.2 0 16.6 16.6 0 0 1-5.3-3.8 18.1 18.1 0 0 1-3.7-5.6 18.3 18.3 0 0 1-1.3-7.1 18.2 18.2 0 0 1 5-12.6 16.6 16.6 0 0 1 5.4-3.8 16 16 0 0 1 6.5-1.4 16.6 16.6 0 0 1 12 5.1 17.5 17.5 0 0 1 3.6 5.7 18.8 18.8 0 0 1 1.3 7 18.2 18.2 0 0 1-1.1 7zm39 12.7h-3.8v-10a6.2 6.2 0 0 0-1.7-4.8 7.1 7.1 0 0 0-5.2-1.4h-15.8v16.2H247v-41.4h15.6a34.5 34.5 0 0 1 8.3.9 12.3 12.3 0 0 1 4.1 2.6 10.6 10.6 0 0 1 2.7 4 15 15 0 0 1 .7 5.2 10.9 10.9 0 0 1-1.4 5.7 11.2 11.2 0 0 1-4.1 4.1q4.4 2.6 4.4 8.8zm-12.4-19.8a12 12 0 0 0 6.6-1.8c1.8-1.2 3.3-2.9 3.3-7.1 0-4.3-1.6-6-3.5-7.1a14 14 0 0 0-6.8-1.8h-13.9v17.8h14.2zm47.6-21.6v3.7h-25.8v15h23.4v3.6h-23.4V183h25.8v3.7h-29.6v-41.5h29.6ZM30.8 179.7a7.1 7.1 0 0 1-2.8-1.2 6.4 6.4 0 0 1-1.9-2.6 11 11 0 0 1-.8-4.3v-19.3h9.3v-7h-9.2v-8.7H18v8.6h-5.6v7.1H18v19a18.7 18.7 0 0 0 1.1 7.2 13.6 13.6 0 0 0 3.4 5 12.2 12.2 0 0 0 5.2 2.7 16.6 16.6 0 0 0 4.2.6 21.3 21.3 0 0 0 2.4-.2h.3v-6.8h-.4a12 12 0 0 1-3.6-.2zm34.8-9a10.3 10.3 0 0 1-3 7.3 9.8 9.8 0 0 1-3.3 2.1 10.6 10.6 0 0 1-4 .9 9.1 9.1 0 0 1-7-2.9 11.1 11.1 0 0 1-2.6-7.6v-25.3h-7.4v24.9a22.5 22.5 0 0 0 1.2 7 15.7 15.7 0 0 0 3 5.5 14.2 14.2 0 0 0 5 3.6 17 17 0 0 0 6.8 1.3 16 16 0 0 0 7-1.5 14.8 14.8 0 0 0 4.5-3.3v4H73v-41.5h-7.3zm41.9-21.3a14.2 14.2 0 0 0-5-3.8 17 17 0 0 0-6.7-1.2 15.7 15.7 0 0 0-6.9 1.4 15.1 15.1 0 0 0-4.7 3.4v-4H77v41.4h7.4v-25a10.8 10.8 0 0 1 .9-4.2 9.8 9.8 0 0 1 2.1-3.3 10.2 10.2 0 0 1 3.2-2.1 10.6 10.6 0 0 1 4.1-.9 8.9 8.9 0 0 1 7.2 3 11.5 11.5 0 0 1 2.4 7.6v25h7.3v-25a22.8 22.8 0 0 0-.9-7 15.7 15.7 0 0 0-3.3-5.6zm49.2 18.3a26.5 26.5 0 0 0-1.8-9.8 22.6 22.6 0 0 0-4.7-7.4 20.3 20.3 0 0 0-6.6-4.7 19.9 19.9 0 0 0-7.8-1.6 19.4 19.4 0 0 0-8 1.7 21.4 21.4 0 0 0-6.7 4.8 22.2 22.2 0 0 0-6 15.4 21.9 21.9 0 0 0 1.6 8.3 21 21 0 0 0 11.1 11.5 22.4 22.4 0 0 0 20.7-1.9 19.5 19.5 0 0 0 7.3-10.3v-.4h-7.7v.2a12.7 12.7 0 0 1-4.8 5.4 13 13 0 0 1-7 2 13.4 13.4 0 0 1-9-3.6 14.6 14.6 0 0 1-3.3-4 14.9 14.9 0 0 1-1.5-5.2h34.3v-.4zm-33.7-6.3a13.8 13.8 0 0 1 1.9-4.1 15.3 15.3 0 0 1 3-3.3 13.1 13.1 0 0 1 3.8-2.2 11.8 11.8 0 0 1 8.3 0 12.9 12.9 0 0 1 3.7 2.3 14.9 14.9 0 0 1 3 3.4 15.4 15.4 0 0 1 1.8 4z"/></svg>
