<svg xmlns="http://www.w3.org/2000/svg" xmlns:xlink="http://www.w3.org/1999/xlink" width="256" height="256"><defs><path id="a" d="M239.13 95.307c4.925 13.041 7.62 27.178 7.62 41.943C246.75 202.834 193.584 256 128 256S9.25 202.834 9.25 137.25c0-14.765 2.695-28.901 7.62-41.943-.08-1.842-.12-3.694-.12-5.557C16.75 24.166 66.559-29 128-29c61.442 0 111.25 53.166 111.25 118.75 0 1.863-.04 3.715-.12 5.557z"/><path id="c" d="M239.1 62.112V.062H.22l-.123 62.05h239.001z"/><path id="e" d="M.471.067L.198 137.2h.003c0 .083-.003.166-.003.25.115 28.066 53.633 50.83 119.536 50.899 8.397.009 16.594-.35 24.505-1.044V.067H.471z"/><path id="g" d="M256.124 63.423v-31.34h-.002l.002-.066C256.232 14.441 198.95.147 128.161.095h-.375C57.193.094.084 14.283.143 31.818l.003.09H.142v31.515h255.981z"/><path id="i" d="M185.157 0c61.262.055 53.856 106.571 53.79 119.843-.064 13.254-49.696 23.955-110.842 23.904-61.148-.035-110.753-10.82-110.791-24.085C17.28 106.398 7.167-.042 68.422 0h116.735z"/><path id="k" d="M96.355.328c-31.769 2.683-62.297 12.135-75.22 51.857-6.296 17.092-10.452 34.67-13.05 51.065-1.051 6.642-4.142 14.93-8.027 23.474 20.19 5.917 52.565 9.764 89.047 9.786 36.025.03 68.055-3.672 88.304-9.43-2.019-10.472-2.43-20.302-2.833-33.266 3.767-39.995-7.375-83.286-37.281-87.537-10.425-1.482-24.235-6.11-36.98-6.11-1.334 0-2.655.05-3.96.161z"/></defs><g fill="none" fill-rule="evenodd"><mask id="b" fill="#fff"><use xlink:href="#a"/></mask><path fill="#CCE08B" d="M128 18.5c65.584 0 118.75 53.166 118.75 118.75S193.584 256 128 256 9.25 202.834 9.25 137.25 62.416 18.5 128 18.5" mask="url(#b)"/><g mask="url(#b)"><path fill="#ECAB25" d="M249.595 284.687h.004V147.55H10.722l-.274 137.138h.003c0 .084-.003.167-.003.25.115 28.067 53.633 50.83 119.536 50.9 65.903.07 119.456-22.578 119.615-50.645.001-.168-.001-.337-.004-.505"/><g transform="translate(10.5 147.488)"><mask id="d" fill="#fff"><use xlink:href="#c"/></mask><path fill="#CF9427" d="M115.825-27.21c89.364 1.998 161.244 23.58 160.546 48.205-.697 24.625-73.706 42.967-163.071 40.968-89.365-1.998-161.243-23.58-160.546-48.205.697-24.625 73.706-42.967 163.07-40.969" mask="url(#d)"/></g><g transform="translate(10.25 147.488)"><mask id="f" fill="#fff"><use xlink:href="#e"/></mask><path fill="#CF9427" d="M26.205 33.074s-1.21 47.74 39.521 80.016c61.126 48.438 63.513 159.41 63.513 159.41L-86 132.257-41.691.067l67.896 33.007z" mask="url(#f)"/></g></g><g mask="url(#b)"><path fill="#231F20" d="M128.16 95.709c61.263.055 110.853 10.862 110.786 24.134-.063 13.254-49.695 23.955-110.841 23.904-61.148-.035-110.753-10.82-110.791-24.085-.034-13.264 49.592-23.995 110.847-23.953"/><path fill="#AA712A" d="M172.659 25.899s10.896-.4 25.35-.575c13.066-.158 16.85 9.81 16.098 16.1-1.815 15.175-7.02 17.995-21.097 32.099-8.525-2.09-16.238-14.127-19.704-27.557-2.334-9.054-.647-20.067-.647-20.067"/><path fill="#B2762C" d="M107.071 25.394S88.21 18.363 70.783 13.85c-15.815-4.096-24.931 9.48-25.836 16.913-2.392 19.644 11.354 30.182 25.544 37.37 10.91.086 14.9-7.71 22.876-22.041 5.366-9.65 13.704-20.697 13.704-20.697"/><path fill="#E9A824" d="M256.124 120.755c.108-17.577-57.174-31.87-127.963-31.922C57.401 88.783.084 102.99.143 120.555l.003.091H.143v41.702h.003c.25 16.597 57.575 30.067 127.948 30.12 70.398.036 127.74-13.336 128.028-29.935h.002V120.82h-.002l.002-.066"/><g transform="translate(0 88.737)"><mask id="h" fill="#fff"><use xlink:href="#g"/></mask><path fill="#FFD04B" d="M128.152-.163c70.833.052 128.15 14.355 128.043 31.942-.132 17.54-57.48 31.697-128.11 31.644C57.458 63.373.137 49.133.054 31.579-.006 14.004 57.347-.213 128.151-.163" mask="url(#h)"/></g><mask id="j" fill="#fff"><use xlink:href="#i"/></mask><path fill="#5C401B" d="M128.16 95.709c61.263.055 110.853 10.862 110.786 24.134-.063 13.254-49.695 23.955-110.841 23.904-61.148-.035-110.753-10.82-110.791-24.085-.034-13.264 49.592-23.995 110.847-23.953" mask="url(#j)"/><g fill="#D48C36" mask="url(#j)"><path d="M217.192 138.051c-2.705-11.934-3.165-22.508-3.616-37 3.767-39.995-7.375-83.285-37.281-87.537-11.516-1.637-27.161-7.112-40.94-5.949-31.769 2.684-62.297 12.135-75.22 51.858-6.295 17.092-10.452 34.67-13.05 51.065-3.553 22.454-30.41 63.721-32.528 70.066-1.643 4.922 213.823 14.093 213.496 10.654-.775-8.17-7.993-40.504-10.861-53.157"/></g><g mask="url(#j)"><g transform="translate(39 7.237)"><mask id="l" fill="#fff"><use xlink:href="#k"/></mask><path fill="#C3822E" d="M252.607 136.014s-83.273 43.46-141.743 22.874c-47.6-16.76-82.196-58.922-78.288-96.817C35.8 30.788 48.66 12.292 73.748 1.707 98.316-8.658 12.403-9.921 12.403-9.921l-30.06 32.357-21.106 160.801 193.5 99.395 97.87-146.618z" mask="url(#l)"/></g></g><g mask="url(#j)"><path fill="#C07F30" d="M189.66 71.384c-.653 8.81 7.84 33.483 3.194 42.13-4.244 7.896-20.749 8.967-28.303.874-7.572-8.113-6.869-29.016-7.786-41.437-1.127-15.25 33.804-13.807 32.896-1.567"/><path fill="#FDCB83" d="M188.769 1.014c-8.876-1.848-15.051 2.084-19.256 5.302-6.717 5.14-11.207 8.989-12.561 13.013-1.26 3.747-3.816 18.687-4.192 26.128-.524 10.342 1.884 18.177 4.349 30.474 1.524 7.604 2.76 24.977 11.274 30.89 8.495 5.899 24.78 3.767 28.187-2.994 3.73-7.404-3.663-27.533-4.076-33.327-.573-8.05 10.49-11.754 14.662-30.344 1.197-5.333 1.79-10.414 1.707-15.128-.142-7.969-2.46-14.588-5.43-17.531-4.355-4.315-9.15-5.334-14.664-6.483"/><path fill="#231F20" d="M192.916 18.178c-3.026-.713-7.71-2.959-10.687-7.427-2.417-3.63-7.655-10.535 2.54-10.413 7.135.094 10.715.981 15.847 3.752 3.697 1.991 4.443 3.834 3.357 6.86-1.99 5.504-7.752 8.01-11.057 7.228m1.09 79.758c-.994 3.965-10.819 6.04-15.552 5.066-7.159-1.475-14.834-2.916-16.793-20.165-2.026-17.848-2.208-25.97 3.812-39.041 3.584-7.823 5.284-17.245 23.62-13.793 27.421 5.154 7.527 23.978 2.596 31.677-3.223 5.044-3.698 6.766-2.599 11.321 1.153 4.802 6.524 18.518 4.916 24.935"/><path fill="#FEEDDA" d="M171.109 37.031c-.515.831-.043 9.908 1.128 12.792 2.07 5.03 5.201-9.76 7.376-10.338 2.169-.571 13.86 1.361 16.216 2.881 2.298 1.593-.202 11.34 2.125 11.816 2.326.475 5.037-10.585 4.106-13.819-1.035-3.6-5.349-5.702-11.405-7.004-5.936-1.277-15.672-2.585-19.546 3.672"/><path fill="#630716" d="M169.1 83.778c2.152 8.563 6.783 11.916 11.39 10.7 4.612-1.217 7.786-9.08 5.634-17.643-2.152-8.564-9.253-11.093-17.705-9.734-2.436.392-5.142 3.14-5.17 5.947-.036 3.699 4.298 4.549 5.851 10.73"/><path fill="#FEEDDA" d="M193.695 80.837c1.267.721.347 12.064-1.96 13.826-2.312 1.753-4.686 2.586-11.245 2.183-6.748-.425-9.63-2.021-11.516-3.79-1.473-1.4-1.079-14.261 1.108-14.455 2.181-.194 4.9 10.583 4.9 10.583s10.13 1.275 13.808.183c1.78-3.24 3.392-9.396 4.905-8.53"/><path fill="#BD7E2F" d="M145.942 25.19c-4.393.155-9.387.636-9.743-.003-1.203-2.155 2.872-7.271 7.025-8.344 5.481-1.417 10.558 3.406 10.183 6.143-.261 1.898-3.742 2.074-7.465 2.204"/><path fill="#231F20" d="M139.943 23.72c-.454 3.302 1.95 5.395 6.35 5.237 3.746-.139 5.47-1.3 5.597-4.644.089-2.347-2.16-5.116-6.039-5.337-3.533-.202-5.576 2.316-5.908 4.743"/><path fill="#FEFEFE" d="M147.282 20.536c.683.157 1.121.901.98 1.663-.142.762-.81 1.253-1.493 1.096-.683-.157-1.121-.901-.98-1.663.142-.762.81-1.253 1.493-1.096" opacity=".762"/></g></g></g></svg>