<svg xmlns="http://www.w3.org/2000/svg" width="40.625" height="40.625" fill="none"><g fill-rule="evenodd" clip-rule="evenodd"><path d="M.033 20.313C.033 9.093 9.113 0 20.313 0c11.2 0 20.28 9.094 20.28 20.313s-9.08 20.312-20.28 20.312c-11.2 0-20.28-9.092-20.28-20.312z" fill="#d42d27"/><path d="M15.786 27.761a86.38 86.38 0 01-6.714-5.384 62.218 62.218 0 00-2.123 5.32c3.42 2.908 7.992 6.236 11.132 8.11 4.07-10.554 10.417-17.437 16.497-22.241a15.798 15.798 0 00-3.117-4.428 56.871 56.871 0 00-15.675 18.623" fill="#fff"/></g><defs id="defs6380"><clipPath id="clip0"><path fill="#fff" id="rect6377" d="M0 0h195v44H0z"/></clipPath></defs></svg>