<svg xmlns="http://www.w3.org/2000/svg" width="1364" height="1364" viewBox="0 0 1023 1023"  fill="#f37f39" xmlns:v="https://vecta.io/nano"><path d="M294 3l-11 1a397 397 0 0 0-70 13l12 5 6 1-4 1c-7 1-17 0-28-4-14-5-15-4-28 2a167 167 0 0 1-69 21c-4-1-1 1 4 2a177 177 0 0 0 59-1l21-3a438 438 0 0 1 280 57c-17-18-27-36-35-58-6-17-9-21-19-26-8-5-14-6-48-9l-70-2zM74 48c-3 2 0 7 6 14 17 16 35 25 79 41a340 340 0 0 1 181 129c38 50 49 58 93 83a359 359 0 0 1 60 37l6-10c15-31 15-52 2-78-15-29-42-55-89-87a538 538 0 0 0-162-76 506 506 0 0 1 238 125c14 15 23 27 28 37 6 12 7 18 7 33-1 16-4 29-11 47-6 17-8 28-4 33 1 2 1 2 3-1 3-4 8-14 15-31l10-22c18-36 45-53 76-48 14 3 17 1 9-6-6-6-14-10-31-15-30-8-52-20-93-49a655 655 0 0 0-157-86 542 542 0 0 1 107 46c28 16 40 23 81 49a241 241 0 0 0 85 35 642 642 0 0 0-86-89A473 473 0 0 0 243 46a292 292 0 0 0-64 5 270 270 0 0 1-42 4c-23 0-26 0-45-5-15-4-17-4-18-3z"/><path d="M85 83l5 11 35 69c3 6 10 13 15 16 7 4 18 3 36-1 20-5 37-5 55 1 7 3 7 3 3 2-15-2-35 0-45 4l-3 1 7 5c17 11 38 35 55 63 18 29 22 33 31 39 11 7 27 9 47 6a413 413 0 0 1 29-4l-2-7c-7-23-23-54-40-74a334 334 0 0 0-154-101 298 298 0 0 1-76-36l2 6zm542 199h-17c-16 0-17 0-25 2l-13 7c-14 9-29 32-42 61l-15 30c-6 9-7 15-6 26 0 9 2 16 6 25a169 169 0 0 0 25 34c3 2 18 26 17 26l-6-7c-2-4-8-10-12-14l-7-7 4 7c5 12 7 21 7 38 0 37-24 85-51 104-12 8-26 8-37 0-8-6-12-11-16-22-2-8-2-10-2-22v-18l7-25c6-12 12-19 19-20 4-1 7 2 7 6 1 4 0 11-3 15v-2c1-8 0-12-5-12-4 1-6 3-8 9-3 8-2 19 1 22 2 3 6 4 9 4 9 0 21-13 25-27 7-22-5-42-23-42-15 0-29 14-39 39a204 204 0 0 0-10 37c-2 2-3 32-1 42 4 42 24 70 53 77 12 2 24 1 36-6a217 217 0 0 0 79-98l-3 9a1442 1442 0 0 1-24 49c-1 1-2 6-3 19l-1 10-1 8a549 549 0 0 1-36 134c-12 25-31 48-49 60-22 14-37 9-46-14-3-8-4-23-1-34 6-19 21-42 39-62l10-10a185 185 0 0 0-49 54 98 98 0 0 0-12 62v3l2 6c7 21 23 32 48 33 28 0 52-11 73-33a274 274 0 0 0 56-93 501 501 0 0 0 23-74l1-8 2-7 2-8c1-8 1-6 1 4l-1 10a119 119 0 0 0-3 18l-2 14-1 5c-2 10-2 18 0 24 2 13 15 40 38 85 12 23 19 40 24 53 11 34 11 77 0 85-8 6-24-5-33-22-9-16-12-36-12-66l-1-14-4 17c-3 18-1 46 4 63 10 31 30 50 49 47 15-3 23-19 23-48 0-17-1-31-4-46a332 332 0 0 0-31-81 809 809 0 0 0-13-28l12 18c39 67 55 131 40 169-2 6-7 15-11 20l-3 3h2c4 0 12-3 20-6 8-4 20-16 25-25 7-13 10-30 9-48l-4-27-2-12-13-42-8-19a486 486 0 0 0-19-43l11 11c19 21 42 43 55 53 9 7 31 18 44 22s27 4 35 1c11-5 17-15 17-28 0-8-2-14-10-25-4-6-20-23-36-38-15-14-23-25-23-34 0-5 2-8 6-10 7-4 20-2 34 6l22 13-1-2c-9-14-24-24-40-28-8-3-20-2-26 1s-9 6-11 10c-5 9-3 21 5 34 4 7 8 12 26 30 23 22 27 28 31 34 7 14-2 21-18 16-10-4-22-14-34-30-5-5-18-24-18-25a641 641 0 0 0-38-61c-4-4-9-7-13-8-12-2-35-12-46-20-7-5-7-6-1-3 4 3 19 9 27 11 12 3 37 4 51 2 20-2 38-9 69-27 28-15 36-19 50-24 24-8 44-7 55 1 13 9 14 24 2 32-11 8-29 5-42-8l-4-3c2 12 10 20 24 24 20 6 40-2 44-20 3-11 0-20-8-28-9-9-19-13-35-17h-44l-7 1c-12 2-23 6-47 15-31 12-41 15-60 16-25 1-43-6-59-23-9-9-15-20-19-34-3-9-4-14-1-7 8 23 24 43 40 51 13 7 19 8 36 8 14 0 23-2 38-7a164 164 0 0 0 26-14 179 179 0 0 1-62 9c-32-6-56-38-66-86l-2-8-2-14a378 378 0 0 1 1-78l2-17c5-40 4-64-3-83-5-12-10-19-28-38-13-13-19-22-23-28l-2-5 4 5 20 20 13 11 9 8 4 4v-4c-2-8-9-20-19-33l-6-6c-6-8-14-22-14-26 0-1-2-2-3 0zm-51 49c8 2 19 7 27 12 20 14 35 40 38 65a313 313 0 0 1-5 81 269 269 0 0 0-5 40v4l-1-4a501 501 0 0 1 3-73v-49a92 92 0 0 0-62-75c-7-2-3-2 5 0zm-3 27c10 3 17 7 24 15 13 13 19 31 19 51 0 32-20 53-46 46-6-1-15-6-18-10-2-2-2-2 0-1l7 4c7 3 21 4 28 0 14-6 22-23 22-41-1-7-3-22-5-25l-2-4c-3-7-9-16-15-22s-20-13-27-14l-4-2 17 3zm-5 13c18 10 28 29 27 50-2 19-12 28-29 28-7 0-9 0-15-3-9-4-18-13-22-21-5-8-6-16-6-27 1-16 7-26 18-29 5-2 12-2 15 0 1 1 1 1-2 1-4-1-11 1-15 5-2 1-5 4-6 7-3 5-3 6-3 17 0 10 0 11 3 17 12 26 44 33 52 11 6-20-4-46-18-48-7-1-11 0-17 5-7 7-8 21-2 31 3 8 12 14 22 15 4 1 3 2-2 1-11-1-19-5-25-13-7-11-7-26-1-35 5-7 14-11 23-8l4 1-7-7-3-2c-2-1-2-1 0 0l9 4zm17 198v-1l1-2-1 3zm32 99h-1l1-2v2zm166-318c-16 5-23 18-18 32 3 9 8 15 33 39 30 31 37 41 44 62 2 7 2 10 2 23 0 19-1 26-9 42a96 96 0 0 1-109 52c-9-2-26-9-35-14-3-2-3-2-3 0 7 23 11 34 17 42 5 8 10 12 17 14 7 1 40 1 49-1 47-8 85-41 96-83 15-51-10-111-65-154-22-17-28-28-23-38 4-11 20-13 38-6l5 2c1-1-9-7-15-10-7-2-19-4-24-2zm9 13c-4 1-6 3-8 6-3 6 2 15 14 24a489 489 0 0 1 42 36c-5-8-11-16-25-30-16-16-20-22-18-26 2-3 8-6 16-6h8l-6-2c-8-2-18-3-23-2zm-665 40c1 19 4 33 12 49 10 22 26 39 60 63a147 147 0 0 1 45 48l2 4v-14l-3-22c-9-34-27-56-66-79-19-12-28-19-35-30a124 124 0 0 1-15-32v13zm-7 20c1 25 8 47 22 66 5 7 10 12 40 42 31 30 42 50 47 87l2 10 10 2 11 3c3 1-2-27-7-42-6-18-16-34-30-49-10-11-19-19-40-34a125 125 0 0 1-55-91v6zm320 48c-4 0-10 3-15 5-30 16-49 57-49 107 0 16 1 25 6 40 5 17 16 35 27 45 14 13 31 20 47 19l16-2-5-2c-36-7-63-53-62-104 2-39 14-76 32-94 7-6 16-12 23-13l5-2c0-2-18-1-25 0zm240 71c1 19 4 31 10 37 6 5 21 11 39 15 17 4 39 2 55-4 8-4 21-13 28-19l5-5-7 5c-8 6-16 10-25 13l-20 1c-12 0-15 0-22-2a100 100 0 0 1-59-44l-4-8v11zm-476 93c-32 4-54 20-65 49-5 14-7 22-6 44 0 17 0 21 2 32a244 244 0 0 0 71 126l-1-8-2-29c-1-7-1-7-7-15-23-30-38-65-43-98-1-10 0-30 2-39 6-25 19-40 44-46 11-3 36-3 48 0 32 8 59 24 90 54a273 273 0 0 1 26 28c-5-11-21-30-35-45-28-28-58-45-88-51-9-2-27-3-36-2zm338 16l-8 10-5 5v13a371 371 0 0 1-3 50l-1 6a501 501 0 0 1-8 43c13-31 23-72 28-118l2-10v-5l-5 6z"/><path d="M203 659c-4 0-7 1-7 2-1 1 5 8 12 13a157 157 0 0 0 55 23 322 322 0 0 1 87 34l-39-37c-24-19-47-31-70-35-10-2-29-2-38 0zm706 13c0 5-1 6-3 9-3 4-7 7-12 7-4 0-4 1 2 4 14 6 27 1 27-10 0-5-9-15-14-15v5zm-679 24l-3 19a408 408 0 0 1-6 35l-3 17a279 279 0 0 0-6 106c3 28 15 56 33 78 35 45 92 70 155 70 34 0 59-5 87-18 54-26 99-80 126-152a215 215 0 0 0 11-39c2 0 1-6-3-14-6-11-16-35-18-41l-1-4-2 5c-17 47-38 84-67 117-13 15-36 33-55 42a188 188 0 0 1-114 16l-9-2a293 293 0 0 1-92-35 160 160 0 0 0 42 54c11 8 48 18 75 21h51c55-6 106-33 143-75l13-17a242 242 0 0 1-122 105c-41 12-94 8-135-11-23-11-41-25-56-46-18-24-28-50-31-88a761 761 0 0 1 1-70l3-21 2-21 2-20c0-6 0-7-2-7l-10-3-9-4v3zm258 21c-7 2-22 7-33 13-55 26-87 73-86 123 1 29 14 49 37 58a124 124 0 0 0 87-9c-11 3-36 4-47 2-12-2-24-8-31-15-23-22-20-72 5-109 5-7 5-8 12-15 13-16 34-33 59-48h-3zm-17 22c-1 1-1 1 0 0l2-2-2 2zm329-1c-7 2-8 7-3 16l6 9 4 5-1-5c-2-5-2-13 1-17l6-5 4-2h-3c-6-2-12-2-15-1zm61 79c5 11 7 29 4 39-6 18-21 27-41 26-21 0-44-10-65-27a510 510 0 0 1-41-39 281 281 0 0 0 24 31c22 26 44 42 68 47 7 2 23 2 29 1l12-5c11-5 19-15 22-29 2-13-1-28-8-40-4-7-7-11-4-4zM637 936c3 9 8 18 13 24 4 5 10 9 13 9 6 0 11-6 12-16v-6l-2 3c-4 5-8 8-12 7-7-1-16-10-22-22l-3-5 1 6z"/></svg>