<svg xmlns="http://www.w3.org/2000/svg" viewBox="0 0 88 32"><path fill="#121214" d="m77.42 2.85-.53-.66a5.83 5.83 0 0 0-.56-.62A5.83 5.83 0 0 0 72.31 0H0v32h72.32a5.86 5.86 0 0 0 4.03-1.57c.2-.19.38-.39.55-.6l.03-.04L87.74 16 77.43 2.85Z"/><path fill="#fff" d="M65.51 22.93a7.3 7.3 0 0 1-7.43-7.34c0-3.86 3.35-7.01 7.46-7.01 2 0 3.85.75 5.25 2.08a7.06 7.06 0 0 1 2.18 5.13c0 3.94-3.35 7.14-7.46 7.14Zm0-11.87c-1.37 0-2.63.48-3.53 1.33a4.64 4.64 0 0 0-1.43 3.43c0 1.27.53 2.44 1.5 3.3a5.29 5.29 0 0 0 3.5 1.33 5 5 0 0 0 3.5-1.38 4.65 4.65 0 0 0 1.47-3.38c0-1.3-.53-2.48-1.48-3.34a5.26 5.26 0 0 0-3.53-1.29ZM31.76 22.87c-3.32 0-4.77-1.58-5.25-2.28a5.2 5.2 0 0 1-.8-3.22v-8.4h2.48v8.4c0 .88.06 1.54.67 2.16.6.6 1.65.88 3.2.88 1.26 0 2.08-.2 2.64-.63.58-.47.87-1.25.87-2.41v-8.4h2.45v8.4c0 1.3-.06 2.32-1 3.5-1.33 1.74-3.86 2-5.26 2Zm20.48-.26-2.79-4.94h-4.53v4.94h-2.5V8.97h8.17c2.63 0 4.47 1.8 4.47 4.37 0 2.01-1.12 3.6-2.94 4.16l2.94 5.1h-2.82Zm-1.64-7.39c.6 0 2-.19 2-1.97 0-1.14-.77-1.84-2-1.84h-5.66v3.81h5.66Zm-35.96 7.39V11.42H9.89V8.97h11.93v2.45h-4.74v11.19h-2.44Z"/></svg>
