<svg xmlns="http://www.w3.org/2000/svg" xmlns:xlink="http://www.w3.org/1999/xlink" viewBox="0 0 90 90"><defs><circle id="a" cx="45" cy="45" r="45"/></defs><mask id="b" fill="#fff"><use xlink:href="#a"/></mask><g mask="url(#b)"><g transform="translate(-4.91 -3.07)"><circle cx="49.91" cy="48.07" r="47.1" fill="#FFF"/><path fill="#387FE1" d="M69.92 50.07a15.16 15.16 0 00-20.68-5.51l-3.33 1.92 4.83 8.33a9.48 9.48 0 01-12.95-3.48l-2.46-4.29-6.6-11.35-10 5.78A9.49 9.49 0 0122.2 28.5l1.8-1.03-6.28-10.86C1.28 9.99-5.38 54.72 4.92 72.58 9.94 81.31 24.2 92.2 32.1 89.4l11.5-6.65 20.77-12a15.15 15.15 0 005.54-20.68z"/><path fill="#FFB300" d="M73.12 93.96c21.5-12.4 32.97-50.58 20.56-72.07C81.28.39 46.06-6.18 24.56 6.24c-.78.44-.18 2.82.61 4.25l7.06 12.26 20.53-11.89a9.49 9.49 0 01-3.47 12.96l-12.34 7.12 4.2 7.26v.04l3.34-1.93a24.63 24.63 0 1124.63 42.65L45.15 92.81c2.83 5.37 19.4 6.13 27.97 1.15z"/></g></g></svg>