<svg xmlns="http://www.w3.org/2000/svg" xmlns:xlink="http://www.w3.org/1999/xlink" viewBox="0 0 227.2 227.2"><g transform="translate(0 -1.4)"><defs><path id="a" d="m71 83.7.5.6 45.7 59.8 22.8-29.8-13.5-17.6-.7-.5c-15.2-10.8-40.2-13-55.3-13.2h-1.6a3.4 3.4 0 0 1 2 .7"/></defs><clipPath id="c"><use xlink:href="#a"/></clipPath><linearGradient id="b" x1="0" x2="1" y1="230" y2="230" gradientTransform="scale(-268 268) rotate(-50 -246.4 116.3)" gradientUnits="userSpaceOnUse"><stop offset="0" stop-color="#54beff"/><stop offset="1" stop-color="#1849fe"/></linearGradient><path fill="url(#b)" d="m98.3 179.1-59.5-70.8 71.8-60.4 59.5 70.9z" clip-path="url(#c)"/><defs><path id="d" d="m140 174 41.7 54.6h45.5l-41.7-54.7z"/></defs><clipPath id="f"><use xlink:href="#d"/></clipPath><linearGradient id="e" x1="0" x2="1" y1="230" y2="230" gradientTransform="scale(-268 268) rotate(-50 -246.4 116.3)" gradientUnits="userSpaceOnUse"><stop offset="0" stop-color="#54beff"/><stop offset="1" stop-color="#1849fe"/></linearGradient><path fill="url(#e)" d="m176 271.6-63-75 78-65.7 63.1 75z" clip-path="url(#f)"/><defs><path id="g" d="M143.5 46.7V83H164l-24 31.4-22.8 29.8-.1.2-.4.5h-.1l-.9 1.2-3.8 5-4.2 5.5-7.6 10-5 6.4-2 2.8-2.5 3.3-2.1 2.7-.7.9-1.2 1.6-2.2 2.9-1 1.2-.3.5-.7 1-1 1.3c-12.3 16.5-26 33.7-46 37 1 .2 2.2.5 3.3.5h50.5c6.2-.3 10.7-2.6 14.7-7.6l6.6-8.7 1.7-2.2L140 174l51-66.7v23.2h36.3V46.7z"/></defs><clipPath id="i"><use xlink:href="#g"/></clipPath><linearGradient id="h" x1="0" x2="1" y1="230.1" y2="230.1" gradientTransform="scale(304 -304) rotate(55 220.6 114.8)" gradientUnits="userSpaceOnUse"><stop offset="0" stop-color="#54beff"/><stop offset="1" stop-color="#1849fe"/></linearGradient><path fill="url(#h)" d="M-49.8 169.5 97.7-43l214.6 148.9L165 318.4z" clip-path="url(#i)"/><defs><path id="j" d="M21.8 46.7H0V83h21.8v127.6c0 8.5 5.8 15.5 13.6 17.6 20-3.3 33.7-20.5 46-37a4 4 0 0 1-2.9 1.3h-17a3.5 3.5 0 0 1-2-.6 3 3 0 0 1-.6-.5l-.2-.3a3.3 3.3 0 0 1-.7-2V83h12.5c15 .3 40.1 2.4 55.3 13.2l.7.5-32-42a26.3 26.3 0 0 0-.8-.9 18.4 18.4 0 0 0-14.3-7 28.4 28.4 0 0 0-1.2 0H58V1.3z"/></defs><clipPath id="l"><use xlink:href="#j"/></clipPath><linearGradient id="k" x1="0" x2="1" y1="230" y2="230" gradientTransform="matrix(-6 286 286 6 -65712 -1409.2)" gradientUnits="userSpaceOnUse"><stop offset="0" stop-color="#54beff"/><stop offset="1" stop-color="#1849fe"/></linearGradient><path fill="url(#k)" d="m131.4 1.5-5 229.3-131.3-2.9L0-1.3z" clip-path="url(#l)"/></g></svg>