<svg xmlns="http://www.w3.org/2000/svg" viewBox="0 0 986 986"><path fill="#232323" d="M292 0h404l7 181v8h71c18 0 35 16 36 35 0 8 1 16-2 24a39 39 0 0 1-25 23c-6 2-12 2-18 2h-59v9l1 4-9-1-10-274H300l-10 274-8 1v-13h-67c-19 0-36-16-37-34-1-9-1-19 3-28a39 39 0 0 1 26-21c6-2 11-1 17-1h61v-8l7-181z"/><path fill="#232323" d="M476 278a132 132 0 0 1 72 7c5 2 9 5 14 6h125c15-1 31 2 44 11a49 49 0 0 1 20 29l9 40c14 3 29 9 38 21 5 6 6 14 9 21l38 113a111 111 0 0 1 5 44c-2 15-8 29-20 39a83 83 0 0 1-51 16H222c-20 0-40-1-57-11-13-8-22-21-26-36-4-20-1-41 6-60l40-118c8-17 26-25 42-29l10-39a51 51 0 0 1 6-17c12-17 34-25 54-24h140c5-1 9-4 14-6 8-3 16-6 25-7m-48 33a116 116 0 0 0-41 62h91l21-36 21 36h91a116 116 0 0 0-114-87 115 115 0 0 0-69 25m-139-3-3 65h89a129 129 0 0 1 47-72H317a64 64 0 0 0-28 7m287-7a129 129 0 0 1 48 72h77l-2-68a69 69 0 0 0-26-4h-97m132 8 2 64h19l1-29c-1-15-10-28-22-35m-443 40v24h13l2-59c-10 9-16 22-15 35m223 24h23l-12-20-11 20m-244 29c-15 4-30 10-38 23-5 7-4 15-4 23 2 11 10 19 19 24 16 9 35 12 53 11 5-7 12-12 19-16l11-5c-10 4-21 10-26 21-4 6-3 13-3 20 1 6 4 11 7 15-21-4-44-2-63 7-11 5-21 14-23 26-1 8-1 16 3 23 7 11 20 18 32 21a105 105 0 0 0 65-1c12-5 23-12 28-23 3-5 3-11 3-17a27 27 0 0 0-6-15c-7-9-17-14-27-18a66 66 0 0 1 29 17 108 108 0 0 0 28 1 60 60 0 0 1 28-17c-11 4-22 11-28 21-3 6-3 14-2 21 1 10 9 18 17 24 16 9 35 12 54 12 16-1 32-5 45-15 8-5 14-13 15-22 0-7 0-13-3-19-5-11-17-18-27-22a65 65 0 0 1 25 15l4 1a108 108 0 0 0 26 1 60 60 0 0 1 27-17c-13 5-26 13-30 27-1 9-2 18 4 26 8 12 21 18 34 21 21 6 43 5 63-3 11-4 22-11 28-22 2-6 2-11 2-17a27 27 0 0 0-6-15c-6-8-15-13-24-17a66 66 0 0 1 26 16 98 98 0 0 0 28 1 61 61 0 0 1 28-17c-13 5-27 13-30 28-1 8-2 17 3 24 7 11 19 17 31 21a106 106 0 0 0 63 0c12-4 24-11 30-22 4-7 4-15 3-22-2-12-11-20-21-25-17-9-38-11-57-9 3-5 6-11 6-17s-1-13-4-18c-6-11-17-17-28-21 12 4 24 11 32 22 20 2 42 0 59-10 9-6 18-14 20-24 1-8 1-17-4-24-7-11-20-18-33-21a109 109 0 0 0-62 1c-12 4-24 11-29 23-4 6-3 12-3 19l3 10a118 118 0 0 0-27-1c2-5 3-11 2-16 1-7-2-14-7-19a67 67 0 0 0-37-19c-20-4-40-3-59 4-10 5-21 12-26 23-3 5-2 11-2 17 0 4 1 7 3 11a118 118 0 0 0-27-1c3-7 3-14 2-21-2-10-9-18-17-23-15-9-32-12-49-12-18 0-36 4-50 14-9 6-16 15-15 26 0 6 0 12 3 17a117 117 0 0 0-27-1c3-7 3-14 2-21-2-13-13-21-24-27-20-9-44-10-65-6z"/><path fill="#232323" d="M202 283h60a52 52 0 0 1 10 0l-2 1-20-1-23 1c-19 1-37 9-50 22a77 77 0 0 0-20 39l-10 52-2 8c-18 5-35 13-46 27-6 8-10 18-12 28L38 624l-7 27c-4 21-5 44-2 65 3 17 10 33 21 46 11 12 25 20 41 24a140 140 0 0 0 35 4h736c19 0 39-3 55-12a75 75 0 0 0 31-32c9-17 12-36 12-55a209 209 0 0 0-4-43l-7-23-48-166c-3-13-9-25-19-34a89 89 0 0 0-38-20c-2 0-2-2-2-4l-10-50c-3-16-9-32-20-43a78 78 0 0 0-44-24l-28-1-22 1h-2a55 55 0 0 1 7-1h63a80 80 0 0 1 33 22c8 10 14 22 17 35l12 60c16 5 32 13 43 25 9 9 14 21 16 33l48 163c3 10 7 20 8 31 5 24 6 49 0 72a87 87 0 0 1-81 71c-13 2-25 1-37 1H129c-21 1-43-3-62-13a82 82 0 0 1-34-35c-10-19-13-40-13-60a204 204 0 0 1 10-60l51-170a68 68 0 0 1 19-37c11-10 25-17 39-21l10-49c2-16 8-32 19-44 8-11 21-19 34-24z"/><path fill="#232323" d="M375 461c12 4 24 11 32 22a120 120 0 0 0 20 0c5-7 11-12 19-16l11-5c-10 5-21 10-26 21-3 6-3 13-3 20 1 6 4 11 7 15a117 117 0 0 0-35-1c3-4 6-9 6-14 1-7 1-14-2-20-6-11-18-18-29-22zm153 0c12 4 24 11 32 22a120 120 0 0 0 20 0c5-7 11-12 19-16l11-5c-9 4-19 9-24 18-4 5-5 12-5 19s3 14 7 19a117 117 0 0 0-34-1c3-4 5-9 5-14 1-7 1-14-2-20-6-11-18-18-29-22z"/><path fill="#fff" d="m290 285 10-274h388l10 274H548a132 132 0 0 0-72-7c-9 1-17 4-25 7H290z"/><path fill="#fff" d="m272 283 9-1v4a83 83 0 0 0-23 7 55 55 0 0 0-25 28c-3 6-4 14-6 21l-6 24a88 88 0 0 0-22 9c-11 6-20 17-23 29l-35 102-9 33c-4 20-3 42 8 60 9 14 24 24 41 28 18 6 38 4 57 4h538c19 0 38-3 54-14a61 61 0 0 0 25-36c5-18 3-38-2-56l-41-121c-3-12-12-23-23-29-7-4-15-7-22-9l-9-36a55 55 0 0 0-14-26 69 69 0 0 0-37-18l-1-4 10 1 2 1 8 2c13 5 26 15 32 28 5 8 6 18 9 28l5 22c15 4 30 11 39 25 5 6 7 15 9 23l35 100c2 8 6 16 7 24 4 18 4 38-2 56a61 61 0 0 1-29 31c-15 9-33 12-51 12H215c-20 0-41-2-58-11a62 62 0 0 1-30-36c-6-20-5-41 1-61l44-131c8-17 26-27 44-32l9-39c5-19 20-33 37-39l8-2z"/><path fill="#fff" d="M289 308a64 64 0 0 1 28-7h105a129 129 0 0 0-47 72h-89l3-65zm287-7h97a69 69 0 0 1 26 4l3 68h-78a129 129 0 0 0-48-72zm-128 38a81 81 0 0 1 102 0 82 82 0 0 1 25 34h-54l-22-36-21 36h-54a81 81 0 0 1 24-34zm429 323c11-15 16-33 18-51 2 20 2 41-6 60-5 13-14 23-27 28s-26 4-39 4H148c-15 0-30-5-40-16a78 78 0 0 1-17-48 144 144 0 0 1 2-28c2 19 7 38 19 53 9 12 23 21 38 22h678c5 0 11 1 17-1 13-3 24-12 32-23z"/><path fill="#9e9e9e" d="M156 213c5-19 24-33 44-32h85v8h-61c-6 0-11-1-16 1a39 39 0 0 0-27 21c-4 9-4 18-3 28 1 18 18 34 37 34h67v12h8l111-1 50 1c-5 2-9 5-14 6H297c-20-1-42 7-54 24a51 51 0 0 0-6 16l-9 40c-17 4-35 12-42 28l-41 119c-7 19-10 40-5 60 3 15 12 28 25 36 17 10 38 11 57 11h557c18-1 37-4 51-16 12-10 18-24 20-39a111 111 0 0 0-5-44l-38-113c-3-7-4-15-9-21-9-12-24-18-38-21l-9-40a49 49 0 0 0-20-29c-13-9-29-12-44-11H562c-5-1-9-5-14-6l60-1 90 1 9 1c13 2 27 8 37 18a55 55 0 0 1 14 26l9 36c7 2 15 5 22 9 11 6 19 17 22 29l42 121c5 18 6 38 2 56a61 61 0 0 1-25 36 98 98 0 0 1-54 14H238c-19 0-39 2-57-4-17-4-32-14-41-28a87 87 0 0 1-8-60l9-33 35-101c3-13 12-24 23-30a88 88 0 0 1 22-9l6-24c2-7 3-15 6-21a55 55 0 0 1 25-28 83 83 0 0 1 23-7v-4l-9 1a52 52 0 0 0-10 0h-60c-13 0-25-4-34-12a44 44 0 0 1-14-33c0-8-1-17 2-25zm547-32h88c18 0 35 13 40 30 3 9 2 19 3 28a44 44 0 0 1-19 35c-8 7-19 9-29 9h-63a55 55 0 0 0-7 0l-10-1v-9h59c6 0 12 0 18-2a39 39 0 0 0 25-23c3-8 2-16 2-24-1-19-18-35-36-35h-71v-8z"/><path fill="#9e9e9e" d="M429 311a116 116 0 0 1 152 9 116 116 0 0 1 30 53h-36a82 82 0 0 0-25-34 81 81 0 0 0-126 34h-37a116 116 0 0 1 42-62zm279-2c12 7 21 20 22 35l-1 29h-19l-2-64zm-443 40c-1-13 5-26 15-35l-2 59h-13v-24z"/><path fill="#9e9e9e" d="m488 373 11-20 12 20h-23z"/><path fill="#002baf" d="M177 306c13-13 31-21 50-22l23-1 20 1-8 2c-18 0-36 6-49 19-5 4-8 10-13 13a67 67 0 0 0-22 39l-8 35c0 2-2 3-4 3-10 5-20 12-26 22a17 17 0 0 1-5 5 54 54 0 0 0-19 23l-5 13-44 140c-3 9-6 18-7 27-4 19-5 38-1 57 3 16 10 31 22 42 13 12 30 18 47 20 13 2 25 1 38 1l669 1c17 0 34-2 49-8 13-5 24-14 32-25 10-13 14-30 15-47a162 162 0 0 0-6-53l-48-154-5-14a53 53 0 0 0-17-22 18 18 0 0 1-5-5c-7-12-19-20-32-25l-8-37a68 68 0 0 0-15-31c-3-4-8-6-10-10-8-13-21-21-34-25-8-3-17-4-25-4l-8-2 22-1 28 1a77 77 0 0 1 64 67l10 50c0 1 0 4 2 4 14 4 28 10 38 20 10 9 16 21 19 34l48 165 7 24a209 209 0 0 1 4 43c0 19-3 38-12 55a75 75 0 0 1-30 31c-17 10-37 13-56 13H126a140 140 0 0 1-35-4c-16-4-30-12-41-24a91 91 0 0 1-21-46c-3-21-2-44 2-65l7-27 49-164c2-10 6-20 12-28 11-14 28-22 46-27l2-8 10-52c3-15 10-28 20-39M42 681c-2 21-2 42 7 62 5 13 16 24 30 29 10 4 20 5 31 4h774c14 0 28-3 39-12 10-8 17-21 20-34 4-16 4-33 2-49-3 20-9 40-23 56a61 61 0 0 1-41 22H107c-9-1-17-4-25-8-14-8-24-21-30-35-5-11-7-23-10-35z"/><path fill="#2ab4eb" d="M213 305c13-13 31-19 49-19-17 6-32 20-37 39l-9 39c-18 5-36 15-44 32l-44 131c-6 20-7 41-1 61a62 62 0 0 0 30 36c18 9 38 11 58 11h565c18 0 36-3 51-12a61 61 0 0 0 29-31c6-18 6-37 2-56-1-8-4-16-7-24l-35-100c-2-8-4-17-9-23-9-14-24-21-39-25l-5-22c-3-10-4-20-9-28-6-13-19-23-32-28a73 73 0 0 1 59 29l10 10a68 68 0 0 1 15 31l8 37c13 5 25 13 32 25a18 18 0 0 0 5 5 53 53 0 0 1 17 22l5 14 48 154a162 162 0 0 1 6 53c-1 17-5 34-15 47-8 11-19 20-32 25-15 6-32 8-49 8H166c-13-1-25 0-38-2-17-2-34-8-47-20a75 75 0 0 1-22-42c-4-19-3-38 1-57 1-9 4-18 7-27l44-140 5-13a54 54 0 0 1 19-23 17 17 0 0 0 5-5c6-10 16-17 26-22 2 0 4-1 4-3l8-35c3-15 10-29 22-39 5-3 8-9 12-13m665 357c-8 11-19 20-32 23-6 2-12 1-17 1H150c-15-1-29-10-38-22-12-15-17-34-19-53a144 144 0 0 0-2 28c1 17 5 35 17 48 10 11 25 16 40 16h675c13 0 27 1 39-4 13-5 22-15 27-28 8-19 9-40 6-60-2 18-7 36-18 51z"/><path fill="#e27a0a" d="M244 402c21-4 45-3 65 6 11 6 22 14 24 27 1 7 1 15-2 21a117 117 0 0 1 27 1c-3-5-3-11-3-17-1-11 6-20 15-26 14-10 32-14 50-14 17 0 34 3 49 12 8 5 15 13 17 23 1 7 1 15-2 21a118 118 0 0 1 27 1c-2-4-3-7-3-11 0-6-1-12 2-17 5-11 16-18 27-22 18-8 39-9 58-5 14 3 27 8 37 19 5 5 8 12 7 19 1 5 0 11-2 16a118 118 0 0 1 27 1c-1-3-3-6-3-10 0-6-1-13 3-19 6-12 17-19 29-23a109 109 0 0 1 62-1c13 3 26 10 33 21 5 7 5 16 4 24-2 11-10 18-19 24a99 99 0 0 1-60 10c-8-11-20-18-32-22 11 4 22 10 28 21 3 5 4 12 4 18s-3 12-6 17c19-2 40 0 58 9 9 5 18 14 20 25 1 7 2 16-3 22-6 11-18 18-30 22a106 106 0 0 1-63 0c-12-4-24-10-31-21-5-7-4-16-3-24 3-15 17-23 30-28a61 61 0 0 0-28 17 98 98 0 0 1-28-1 66 66 0 0 0-26-16c9 4 18 9 24 17a27 27 0 0 1 6 15c0 6 0 11-2 17-6 11-17 18-28 22-20 8-42 9-63 3-13-3-26-9-34-21-6-8-5-17-4-26 4-14 17-22 30-27a60 60 0 0 0-27 17 108 108 0 0 1-26-1l-4-1a65 65 0 0 0-25-15c10 4 21 11 27 22 3 6 3 12 3 19-1 9-7 17-15 22a81 81 0 0 1-45 15c-19 0-38-3-54-12-8-6-16-14-18-24 0-7 0-15 3-21 6-10 17-17 28-21a60 60 0 0 0-28 17 108 108 0 0 1-28-1 66 66 0 0 0-29-17c10 4 20 9 27 18a27 27 0 0 1 6 15c0 6 0 12-3 17-5 11-16 18-27 23a105 105 0 0 1-66 1c-12-3-25-10-32-21-4-7-4-15-3-23 2-12 12-21 23-26 19-9 42-11 63-7-3-4-6-9-7-15 0-7 0-14 3-20 5-11 16-17 26-21 9-3 17-9 21-17a20 20 0 0 0-1-20c-5-8-13-13-22-16-17-6-35-7-53-5-12 3-25 7-34 16-6 6-9 14-6 22 3 10 12 16 21 20 20 9 42 9 63 5-7 4-14 9-19 16-18 2-37-1-53-11-9-5-17-13-19-24 0-8-1-16 4-23 8-13 23-19 38-22m127 14c-6 5-12 13-10 22 1 9 9 16 17 20 15 9 33 11 50 10l18-2c-7 4-14 10-19 17a120 120 0 0 1-20-1c-8-11-20-18-32-22 11 4 23 11 29 22 3 6 3 13 2 20 0 5-3 10-6 14a117 117 0 0 1 35 1c-3-4-6-9-7-15 0-7 0-14 3-20 5-10 16-16 26-21 4-2 9-3 12-6 7-6 13-14 11-23-1-9-9-16-17-20-16-9-34-11-52-10-14 2-29 5-40 14m191-14c-13 2-27 6-38 15-7 5-12 13-10 22s10 16 18 20c15 8 33 10 50 9l16-2c-7 4-13 10-18 17a120 120 0 0 1-20-1c-8-11-20-18-32-22 11 4 23 11 29 22 3 6 3 13 2 20 0 5-3 10-5 14a117 117 0 0 1 34 1c-4-5-7-12-7-19s1-14 5-19c5-9 15-14 24-18 8-3 16-8 21-16a20 20 0 0 0 1-19c-4-8-12-13-20-16-15-7-33-9-50-8m154 0c-14 2-29 6-40 15-6 5-11 14-9 22 2 10 11 16 19 21 17 8 36 10 55 8 13-2 27-6 37-16 6-5 10-13 8-21-2-10-10-16-18-20-16-8-34-10-52-9m-389 56c-13 2-27 6-37 15-6 5-11 14-9 22 2 9 10 15 18 20 16 8 35 10 53 8 14-1 28-5 39-14 6-5 11-13 9-22-2-10-10-16-19-21-16-8-36-10-54-8m153 0c-14 2-28 6-38 16-6 5-10 14-7 22 3 10 12 17 21 21 18 7 37 9 56 6 12-3 25-7 34-16 6-5 10-14 7-21-3-10-11-16-19-20-17-8-36-10-54-8m153 0c-14 2-29 7-39 17-6 6-9 15-6 23 4 9 13 15 22 19 18 7 37 9 55 5 13-2 26-7 35-16 6-5 9-14 6-21-3-9-12-15-20-19-16-8-35-10-53-8m-384 61c-14 1-28 5-39 15-6 5-11 14-8 22 2 10 11 16 19 20 17 8 37 10 55 7 13-2 26-6 36-15 6-5 10-13 9-21-3-9-11-16-19-20-16-8-35-10-53-8m153 0c-14 1-28 5-39 14-6 6-11 14-9 22 3 10 11 17 20 21 17 8 36 10 55 7 13-2 26-6 36-15 6-5 11-13 9-21-3-9-10-16-18-20-17-8-36-10-54-8m155-1c-13 2-27 5-38 14-7 5-13 12-12 21s8 16 16 21c15 8 32 11 49 10 15 0 31-4 43-13 7-5 13-13 12-22-1-10-9-17-17-21-16-9-35-11-53-10m153 0c-14 2-28 6-39 14-7 5-12 13-11 22 2 10 10 17 18 21 18 9 38 11 57 9 13-2 26-7 36-15 6-6 11-14 9-22-3-9-11-16-18-20-16-8-34-10-52-9z"/><path fill="#e5c507" d="M249 404c18-3 36-2 53 5 9 3 17 8 22 16a20 20 0 0 1 1 20c-4 8-12 14-21 17l-11 5c-21 4-44 4-63-5-9-4-18-10-21-20-3-8 0-16 6-22 9-9 22-13 34-16zm122 13c11-9 26-12 40-14 18-1 36 1 52 10 8 4 16 11 17 20 2 9-4 17-11 23-3 3-8 4-12 6l-11 5-18 2c-17 1-35-1-51-10-7-4-15-11-16-20-2-9 4-17 10-22zm192-14c16-1 34 1 49 8 8 3 16 8 20 16a20 20 0 0 1-1 19c-5 8-12 13-21 16l-11 5-17 2c-17 1-35-1-50-9-8-4-16-11-18-20s3-17 10-22c11-9 25-13 39-15zm153 0c18-1 36 1 52 9 8 4 16 10 18 20 2 8-2 16-8 21-10 9-24 14-37 15-19 3-38 1-55-7-8-5-17-11-19-21-2-8 3-17 9-22 11-9 26-13 40-15zm-389 56c18-2 38 0 54 8 9 5 17 11 19 21 2 9-3 17-9 22-11 9-25 13-39 15-18 1-37-1-53-9-8-4-16-11-18-20-2-8 3-17 9-22 10-9 24-13 37-15zm153 0c18-2 37 0 54 8 8 4 16 10 19 20 2 7-1 16-7 21-9 9-22 13-34 16-19 3-38 1-56-6-9-4-18-11-21-21-3-8 1-17 7-22 10-10 24-14 38-16zm153 0c18-2 37 0 53 8 8 4 17 10 20 19 3 7 0 16-6 21-9 10-22 14-34 16-19 4-38 2-55-5-10-4-19-10-23-19-3-8 0-17 6-23 10-10 25-15 39-17zm-384 61c18-2 37 0 53 8 8 4 16 11 19 20 1 8-3 16-9 21-10 9-23 13-36 15-18 3-38 1-55-7-8-4-17-10-19-20-3-8 2-17 8-22 11-10 25-14 39-15zm153 0c18-2 37 0 54 8 8 4 15 11 18 20 2 8-3 16-9 21-10 9-23 14-36 15-19 3-38 1-55-7-9-4-17-11-20-21-2-8 3-16 9-22 11-9 25-13 39-14zm155-1c18-1 37 1 53 10 8 4 16 11 17 21 1 9-5 17-12 22-12 9-28 13-43 13-17 1-34-2-49-10-8-5-15-12-16-21s5-16 11-21c12-9 26-12 39-14zm153 0c18-1 36 1 52 9 8 4 15 11 18 20 2 8-3 16-9 21-10 9-23 14-36 15-19 3-39 1-57-8-8-4-16-11-18-21-1-9 4-17 11-22 11-9 25-12 39-14z"/><path fill="#2371e2" d="M42 681c3 12 5 24 10 35 6 14 16 27 30 35 8 4 16 7 25 8h774c16-1 31-10 41-22 14-16 20-36 23-56 2 16 2 33-2 49-3 13-9 26-20 34-11 9-25 12-39 12H110c-11 1-21 0-31-4-14-5-25-16-30-29-9-20-9-41-7-62z"/><path fill="#002baf" d="M76 947a92 92 0 0 1-11 3 113 113 0 0 1-14 0q-19 0-28-7t-10-27v-47H0v-22h13v-29h33v29h30v22H46v45a19 19 0 0 0 1 8 10 10 0 0 0 5 5l9 1a27 27 0 0 0 7-1 28 28 0 0 0 5-2h3zm65-34 23-66h34l-57 138h-35l16-37-39-101h34zm180-17a65 65 0 0 1-4 23 50 50 0 0 1-10 17 44 44 0 0 1-14 11 43 43 0 0 1-18 3 51 51 0 0 1-15-1 71 71 0 0 1-12-6v42h-32V847h32v11a79 79 0 0 1 15-10 41 41 0 0 1 18-4q19 0 30 14t10 38zm-33 1q0-15-5-21t-16-7a34 34 0 0 0-10 1 40 40 0 0 0-9 4v51a26 26 0 0 0 7 2h7q13 0 19-7t7-23zm156 7h-74q1 12 9 18t24 6a55 55 0 0 0 20-3 62 62 0 0 0 16-8h3v26a121 121 0 0 1-20 6 108 108 0 0 1-22 2q-30 0-47-14t-16-39q0-25 15-39t43-15q24 0 37 13t12 35zm-32-19q0-10-5-16t-15-5q-9 0-15 5t-7 16zm128-7h-3a29 29 0 0 0-6-1h-8a74 74 0 0 0-12 1 69 69 0 0 0-12 3v67h-32V847h32v15q11-9 19-12a41 41 0 0 1 15-3h7zm80 60-7 4a47 47 0 0 1-7 5 46 46 0 0 1-10 3 57 57 0 0 1-11 1q-14 0-24-9t-10-23q0-11 5-18a33 33 0 0 1 14-11q9-4 22-6t28-2v-1q0-8-7-11t-20-3a58 58 0 0 0-17 2l-13 5h-3v-25l17-3a147 147 0 0 1 23-2q27 0 40 9t12 27v68h-32zm0-16v-21l-14 1a69 69 0 0 0-12 3 16 16 0 0 0-7 4 11 11 0 0 0-3 8 20 20 0 0 0 1 5 8 8 0 0 0 2 4 13 13 0 0 0 5 2 34 34 0 0 0 9 1 27 27 0 0 0 10-2 31 31 0 0 0 9-5zm115 29a87 87 0 0 1-25-3 54 54 0 0 1-19-10 44 44 0 0 1-12-16q-4-10-4-24t4-24a46 46 0 0 1 13-17 54 54 0 0 1 19-10 83 83 0 0 1 23-3 77 77 0 0 1 19 3 91 91 0 0 1 16 6v27h-5l-4-4a40 40 0 0 0-7-4 44 44 0 0 0-8-3 36 36 0 0 0-10-1q-13 0-20 8t-7 22q0 15 7 22t20 8a40 40 0 0 0 11-1 36 36 0 0 0 9-4 39 39 0 0 0 5-4l4-3h5v27a89 89 0 0 1-16 6 75 75 0 0 1-18 2zm155-47h-74q1 12 9 18t24 6a55 55 0 0 0 20-3 62 62 0 0 0 15-8h4v26a121 121 0 0 1-21 6 108 108 0 0 1-21 2q-31 0-47-14t-16-39q0-25 15-39t42-15q25 0 38 13t12 35zm-32-19q-1-10-5-16t-15-5q-10 0-16 5t-6 16zm128-7h-3a29 29 0 0 0-6-1h-8a74 74 0 0 0-12 1 69 69 0 0 0-12 3v67h-32V847h32v15q11-9 19-12a41 41 0 0 1 15-3h7z"/></svg>