<svg xmlns="http://www.w3.org/2000/svg" xmlns:xlink="http://www.w3.org/1999/xlink" width="99" height="99"><defs><linearGradient id="a"><stop offset="0" stop-color="#406718"/><stop offset="1" stop-color="#8cc43f" stop-opacity=".973"/></linearGradient><linearGradient xlink:href="#a" id="b" x1="-71.628" y1="93.798" x2="-37.625" y2="4.027" gradientUnits="userSpaceOnUse" gradientTransform="translate(7.04)"/></defs><path d="M-75.521 4.389l2 19c10.037-3.741 20.69-5.693 31-1.755 12.59 4.808 15.246 18.884 6.787 28.75-4.431 5.17-10.011 8.586-15.787 12.005l18 4-2 12-40-6c3.16-16.702 25.881-16.467 29.383-32 1.468-6.508-5.176-8.89-10.383-8.98-9.81-.172-19.393 4.745-25.815 11.984-13.45 15.16-12.08 40.926 8.815 48.612 12.806 4.71 23.457 1.456 35-4.616v9l25 4c.02-31.19 25.675-85.063-19-96.622-6.373-1.649-12.432-2.378-19-2.378-8.385 0-15.9.722-24 3z" fill="url(#b)" transform="translate(98.132 -1.389)"/></svg>