<svg xmlns="http://www.w3.org/2000/svg" width="97.872" height="97.872"><defs><linearGradient x1="0" y1="0" x2="1" y2="0" gradientUnits="userSpaceOnUse" gradientTransform="matrix(0 -467.462 -467.462 0 1850.06 491.365)" spreadMethod="pad" id="b"><stop offset="0" stop-color="#ed1c24"/><stop offset=".393" stop-color="#ed1c24"/><stop offset=".81" stop-color="#751317"/><stop offset="1" stop-color="#751317"/></linearGradient><linearGradient x1="0" y1="0" x2="1" y2="0" gradientUnits="userSpaceOnUse" gradientTransform="matrix(170.606 0 0 -170.606 1637.2 452.471)" spreadMethod="pad" id="d"><stop offset="0" stop-color="#641f1f"/><stop offset=".737" stop-color="#d32828"/><stop offset="1" stop-color="#d32828"/></linearGradient><linearGradient x1="0" y1="0" x2="1" y2="0" gradientUnits="userSpaceOnUse" gradientTransform="scale(221.784 -221.784) rotate(-31 -.232 -14.233)" spreadMethod="pad" id="f"><stop offset="0" stop-color="#f2f6f7"/><stop offset=".1" stop-color="#f2f6f7"/><stop offset=".224" stop-color="#f2f6f7"/><stop offset="1" stop-color="#97a7ad"/></linearGradient><linearGradient x1="0" y1="0" x2="1" y2="0" gradientUnits="userSpaceOnUse" gradientTransform="matrix(0 322.964 322.964 0 1513.66 573.594)" spreadMethod="pad" id="h"><stop offset="0" stop-color="#202f6e"/><stop offset=".567" stop-color="#25b3ed"/><stop offset="1" stop-color="#25b3ed"/></linearGradient><clipPath clipPathUnits="userSpaceOnUse" id="a"><path d="M1721.31 246.426C1762.53 178.652 1828.37 180 1845.89 180h211.8l-249.88 303.379c-115.27-4.766-176.29-78.691-163.77-109.707z"/></clipPath><clipPath clipPathUnits="userSpaceOnUse" id="c"><path d="M1644.04 373.672c-.3.527-6.84 15.82-6.84 34.316 0 69.258 61.38 108.946 131.15 123.282l39.46-47.891c-115.27-4.766-176.29-78.691-163.77-109.707z"/></clipPath><clipPath clipPathUnits="userSpaceOnUse" id="e"><path d="M1740.41 598.832c-105.34 0-184-17.348-184-58.582 0-15.152 4.75-28.316 17.62-51.48l70.01-115.098c-.3.527-6.84 15.82-6.84 34.316 0 69.258 61.38 108.946 131.15 123.282 20.26 4.16 41.03 6.152 61.36 6.152 17.12 0 33.15-.899 45.49-5.371-7.28 26.512-26.53 66.781-134.79 66.781z"/></clipPath><clipPath clipPathUnits="userSpaceOnUse" id="g"><path d="M1463.29 670.629c28.97-47.488 39.69-59.34 108.65-59.43h131.74l-181.62 229.387c-40.1 49.559-63.19 58.648-99.99 59.414h-98.42z"/></clipPath></defs><g clip-path="url(#a)" transform="matrix(.13333 0 0 -.13333 -176.487 120.936)"><path d="M1721.31 246.426C1762.53 178.652 1828.37 180 1845.89 180h211.8l-249.88 303.379c-115.27-4.766-176.29-78.691-163.77-109.707l77.27-127.246" fill="url(#b)"/></g><g clip-path="url(#c)" transform="matrix(.13333 0 0 -.13333 -176.487 120.936)"><path d="M1644.04 373.672c-.3.527-6.84 15.82-6.84 34.316 0 69.258 61.38 108.946 131.15 123.282l39.46-47.891c-115.27-4.766-176.29-78.691-163.77-109.707" fill="url(#d)"/></g><g clip-path="url(#e)" transform="matrix(.13333 0 0 -.13333 -176.487 120.936)"><path d="M1740.41 598.832c-105.34 0-184-17.348-184-58.582 0-15.152 4.75-28.316 17.62-51.48l70.01-115.098c-.3.527-6.84 15.82-6.84 34.316 0 69.258 61.38 108.946 131.15 123.282 20.26 4.16 41.03 6.152 61.36 6.152 17.12 0 33.15-.899 45.49-5.371-7.28 26.512-26.53 66.781-134.79 66.781" fill="url(#f)"/></g><g clip-path="url(#g)" transform="matrix(.13333 0 0 -.13333 -176.487 120.936)"><path d="M1463.29 670.629c28.97-47.488 39.69-59.34 108.65-59.43h131.74l-181.62 229.387c-40.1 49.559-63.19 58.648-99.99 59.414h-98.42l139.64-229.371" fill="url(#h)"/></g></svg>