<svg xmlns="http://www.w3.org/2000/svg" viewBox="0 0 90 90"><path fill="#000" opacity="0" d="M0 0h90v90H0z"/><path fill="#fff" d="M44.773 1C20.598 1 1 20.598 1 44.773s19.598 43.773 43.773 43.773 43.773-19.598 43.773-43.773S68.948 1 44.773 1z"/><path fill="#06067b" fill-rule="nonzero" d="M45 1C20.7 1 1 20.7 1 45s19.7 44 44 44 44-19.7 44-44S69.3 1 45 1zm0 .872c23.819 0 43.128 19.309 43.128 43.128S68.819 88.13 45 88.13 1.872 68.819 1.872 45 21.181 1.872 45 1.872zm0 3.05C22.865 4.921 4.92 22.865 4.92 45S22.865 85.08 45 85.08 85.079 67.135 85.079 45 67.135 4.921 45 4.921zM24.324 25.197c4.961 0 9.486 1.867 12.913 4.935v-4.505h6.456v37.874l-6.456-3.013v-1.492c-3.427 3.068-7.951 4.936-12.913 4.936-10.697 0-19.368-8.672-19.368-19.368s8.672-19.368 19.368-19.368h0zm41.32 0c10.697 0 19.368 8.672 19.368 19.368s-8.672 19.368-19.368 19.368c-4.962 0-9.486-1.869-12.913-4.938v1.493l-6.456 3.013V25.628h6.456v4.506a19.29 19.29 0 0 1 12.913-4.936h0zm-41.32 6.456c-7.131 0-12.911 5.781-12.911 12.913s5.78 12.911 12.911 12.911 12.913-5.78 12.913-12.911-5.781-12.913-12.913-12.913h0zm41.32 0c-7.131 0-12.913 5.781-12.913 12.913s5.781 12.911 12.913 12.911 12.911-5.78 12.911-12.911-5.78-12.913-12.911-12.913h0z"/></svg>