<svg xmlns="http://www.w3.org/2000/svg" viewBox="0 0 90 90"><path fill="#fff" d="M44.77 1a43.77 43.77 0 100 87.55 43.77 43.77 0 000-87.55z"/><path fill="#06067b" d="M45 1a44 44 0 100 88 44 44 0 000-88zm0 .87a43.13 43.13 0 110 86.26 43.13 43.13 0 010-86.26zm0 3.05a40.08 40.08 0 100 80.16 40.08 40.08 0 000-80.16zM24.32 25.2a19.3 19.3 0 0112.92 4.93v-4.5h6.45V63.5l-6.45-3.01v-1.5a19.37 19.37 0 11-12.91-33.8zm41.32 0A19.37 19.37 0 1152.74 59v1.49l-6.46 3.01V25.63h6.45v4.5a19.29 19.29 0 0112.91-4.93zm-41.32 6.45a12.91 12.91 0 100 25.83 12.91 12.91 0 000-25.83zm41.32 0a12.91 12.91 0 100 25.83 12.91 12.91 0 000-25.83z"/></svg>
