<svg xmlns="http://www.w3.org/2000/svg" width="343.646" height="343.646" viewBox="0 0 90.923 90.923"><defs><clipPath clipPathUnits="userSpaceOnUse" id="a"><path d="M91.563 552.756h280.338V399.515H91.563z"/></clipPath></defs><g stroke="#747476"><g clip-path="url(#a)" transform="matrix(.35278 0 0 -.35278 -41.366 219.916)" fill="#8f9cac" stroke-width="2.835"><path d="M201.909 538.849l22.355-47.97c1.887-4.051.638-8.633-2.788-10.231-3.427-1.598-7.736.391-9.625 4.444l-13.194 28.314-17.493-30.288h14.778c4.469 0 8.092-3.067 8.092-6.849s-3.623-6.848-8.092-6.848h-22.686l-12.988-22.489c-6.364-11.018-20.119-14.986-30.723-8.863-10.607 6.123-14.045 20.019-7.683 31.037l40.61 70.316c6.361 11.019 20.117 14.986 30.723 8.863a21.446 21.446 0 008.237-8.54c.173-.286.333-.585.477-.896"/></g><path d="M51.536 49.482h5.542c1.577 0 2.855 1.082 2.855 2.417 0 1.334-1.278 2.415-2.855 2.415h-8.332l-4.582 7.934c-2.245 3.887-7.097 5.287-10.839 3.127-3.741-2.16-4.954-7.062-2.71-10.95L44.942 29.62c2.245-3.888 7.098-5.287 10.838-3.127a7.568 7.568 0 012.907 3.013c.061.1.117.206.169.316l7.885 16.923c.666 1.429.226 3.045-.983 3.609-1.209.564-2.73-.138-3.395-1.568l-4.655-9.988z" stroke-width=".8784222" stroke-miterlimit="3.864" fill="#adb7c0"/><path d="M73.478 62.268c-2.246 3.887-7.098 5.287-10.84 3.127h0c-3.741-2.16-4.954-7.062-2.71-10.95L74.254 29.64c2.245-3.888 7.098-5.287 10.84-3.128v.001c3.74 2.16 4.954 7.062 2.71 10.948z" stroke-width=".8784222" stroke-miterlimit="3.864" fill="#ceced3" stroke-opacity=".769"/><g fill="#8f9cac" stroke-opacity=".769"><path d="M73.425 33.15a8.652 8.652 0 01.16-2.765c1.842-.08 3.616.274 5.228 1.112 3.206 1.664 5.215 4.954 5.93 9.028l-.057.018a8.706 8.706 0 01-2.162.395c-.958-2.993-2.748-5.38-5.317-6.714a9.878 9.878 0 00-3.782-1.074zM79.392 40.527A8.688 8.688 0 0174.5 36.53c.469.145.927.33 1.37.56 1.48.77 2.658 1.953 3.522 3.437z" stroke-width=".3386688" stroke-miterlimit="3.864"/><path d="M74.948 27.287a8.643 8.643 0 012.996-2.67c1.392.17 2.734.573 3.993 1.227 4.04 2.098 6.458 6.379 7.1 11.6a8.652 8.652 0 01-2.227 2.096c-.443-5.003-2.633-9.123-6.416-11.087-1.68-.873-3.529-1.244-5.446-1.166zM85.273 24.192a8.667 8.667 0 015.074 5.451c.414 1.308.501 2.642.31 3.912-.794-3.88-2.615-7.181-5.384-9.363z" stroke-width=".3386688" stroke-miterlimit="3.864"/></g></g></svg>