<svg xmlns="http://www.w3.org/2000/svg" width="687.333" height="687.333"><path d="M87.798 3.038C42.88 9.473 9.46 42.94 3.036 87.801c-6.119 42.725-.571 90.144-.571 133.333v266.667c0 48.976-12.26 115.333 17.904 157.333 35.921 50.017 97.591 40 151.429 40H554.465c16.02 0 33.533 1.972 49.333-.82 42.703-7.545 76.877-42.137 81.107-85.847 4.218-43.59.226-89.522.226-133.333V199.801c0-51.482 12.287-118.051-21.184-161.334-36.177-46.782-100.194-36-152.15-36H229.132c-45.765 0-96.062-5.914-141.333.571" fill="#3089cf"/><path d="M522.465 327.8v-33.333h21.333v33.334h14.667v-33.334l25.862 1.371 2.138 17.296v52h-88c10.86 17.616 20.346 35.045 22.733 56 1.693 14.87 1.447 29.287-1.681 44-2.507 11.795-6.928 22.964-13.072 33.333-44.472 75.054-142.162 60-215.98 60H229.13V365.134c-6.998 0-18.862-2.273-25.05 1.37-10.456 6.16-16.38 23.315-26.951 31.278-21.304 16.047-52.708 20.615-77.332 9.603C30.81 376.53 39.97 264.275 121.13 258.587c29.112-2.041 56.65 8.658 73.635 33.214 5.019 7.256 9.483 33.404 17.177 35.576 8.974 2.532 21.216.424 30.522.424h280" fill="#fff"/><path d="M290.465 365.134v140c43.116 0 100.333 9.85 138.666-13.957 46.103-28.631 37.534-101.587-10.666-122.212-14.048-6.012-30.368-3.831-45.334-3.831z" fill="#3089cf"/><path d="M390.465 310.467v-1.333c54.592-12.636 76.984-85.125 29.332-120.696-34.438-25.705-88.914-16.637-129.332-16.637v138.666H229.13v-192h121.334c38.24 0 76.314-.136 109.333 22.328 39.877 27.131 56.761 77.979 45.795 124.339-3.298 13.939-11.336 36.545-24.69 43.963-6.668 3.705-18.994 1.37-26.438 1.37h-64" fill="#fff"/><path d="M118.465 280.42c-72.398 13.053-49.128 123.706 22.666 110.76 72.708-13.107 49.366-123.747-22.666-110.76" fill="#3089cf"/></svg>