<svg width="256" height="256" xmlns="http://www.w3.org/2000/svg"><g fill="none" fill-rule="evenodd"><path fill="#333" d="M0 0h256v256H0z"/><path d="M36.437 137.604V134.6c-2.043 2.382-5.275 3.686-8.905 3.686-4.424-.002-9.47-3.064-9.47-9.073 0-6.35 4.992-8.96 9.47-8.96 3.743 0 6.862 1.193 8.905 3.517v-4.084c0-3.174-2.665-5.103-6.41-5.103-3.06 0-5.783 1.135-8.108 3.517l-2.496-4.14c3.176-3.061 7.146-4.422 11.513-4.422 6.124 0 11.454 2.552 11.454 9.867v18.2h-5.953zm0-6.238v-4.192c-1.42-1.873-3.971-2.836-6.523-2.836-3.345 0-5.897 1.983-5.897 4.932 0 3.005 2.551 4.935 5.897 4.935 2.552-.002 5.103-.968 6.523-2.839zm10.536 6.238v-37.82h5.954v14.234c2.211-2.95 5.387-4.48 8.79-4.48 7.088 0 12.192 5.5 12.192 14.346 0 9.072-5.16 14.401-12.192 14.401-3.517 0-6.692-1.7-8.79-4.42v3.74h-5.954zm13.043-4.594c4.706 0 7.712-3.8 7.712-9.127 0-5.273-3.005-9.072-7.712-9.072-2.836 0-5.727 1.645-7.09 3.686v10.887c1.363 2.04 4.254 3.626 7.09 3.626zm16.803-9.127c0-7.882 5.332-14.346 14.064-14.346 8.733 0 14.063 6.464 14.063 14.346 0 7.824-5.331 14.402-14.063 14.402-8.731-.001-14.064-6.578-14.064-14.402zm21.947 0c0-4.82-2.778-9.072-7.883-9.072-5.047 0-7.883 4.252-7.883 9.072 0 4.874 2.836 9.128 7.883 9.128 5.105 0 7.883-4.254 7.883-9.128zm27.99 13.721v-3.63c-1.93 2.16-5.332 4.31-9.64 4.31-5.898 0-8.848-3.119-8.848-8.675v-19.391h5.955v17.18c0 4.252 2.153 5.614 5.557 5.614 3.005 0 5.615-1.76 6.975-3.576v-19.218h5.954v27.387h-5.954zm14.365-6.407v-15.819h-4.535v-5.161h4.535v-7.484h5.955v7.485h5.557v5.16h-5.557v14.345c0 1.87.907 3.29 2.608 3.29 1.134 0 2.155-.511 2.608-1.023l1.421 4.537c-1.08.963-2.837 1.756-5.56 1.756-4.65.001-7.032-2.495-7.032-7.086zm15.44 3.006c0-2.1 1.815-3.914 3.97-3.914 2.155 0 3.97 1.815 3.97 3.914 0 2.153-1.816 4.025-3.97 4.025-2.155.001-3.97-1.872-3.97-4.025zm44.581 3.401v-17.86c0-2.95-1.308-4.935-4.536-4.935-2.665 0-5.16 1.814-6.352 3.63v19.164h-5.953v-17.86c0-2.949-1.245-4.934-4.482-4.934-2.665 0-5.103 1.871-6.353 3.63v19.164h-5.952v-27.385h5.952v3.686c1.193-1.645 4.764-4.366 8.962-4.366 4.08 0 6.577 2.04 7.484 4.99 1.531-2.439 5.162-4.99 9.299-4.99 4.993 0 7.885 2.72 7.885 8.278v19.788h-5.954zm9.277-13.721c0-7.94 5.785-14.346 13.894-14.346 8.222 0 13.44 6.237 13.44 14.856v1.473h-21.097c.456 4.084 3.512 7.543 8.673 7.543 2.727 0 5.84-1.08 7.826-3.063l2.721 3.914c-2.778 2.609-6.804 4.027-11.115 4.027-8.275-.003-14.342-5.73-14.342-14.404zm13.837-9.468c-5.047 0-7.429 3.913-7.655 7.199h15.424c-.17-3.231-2.382-7.2-7.769-7.2z" fill="#FFF"/></g></svg>