<svg xmlns="http://www.w3.org/2000/svg" width="201.163" height="201.163" viewBox="0 0 53.224 53.224"><g paint-order="markers fill stroke"><path d="M22.34 28.798a22.022 22.022 0 0019.42 19.694 26.612 26.612 0 0011.375-19.694z" fill="#ffb700"/><path d="M.09 28.798c1.112 13.675 12.56 24.427 26.522 24.427 2.969 0 5.916-.497 8.72-1.47a26.612 26.612 0 01-17.755-22.957z" fill="#00b4cc"/><path d="M41.76 4.733a22.022 22.022 0 00-19.42 19.702h30.795A26.612 26.612 0 0041.761 4.733z" fill="#ffb700"/><path d="M26.536 0C12.6.04 1.195 10.785.089 24.435h17.49A26.613 26.613 0 0135.367 1.49h.026A26.612 26.612 0 0026.536 0z" fill="#00b4cc"/></g></svg>