<svg xmlns="http://www.w3.org/2000/svg" viewBox="0 0 116.3 84.2"><path d="m87.6 60.9c0 2.5-2 4.5-4.5 4.5h-64.1c-2.5 0-4.5-2-4.5-4.5s2-4.5 4.5-4.5h64.1c2.5 0 4.5 2 4.5 4.5z" fill="#FFA216"/><path d="m57 4.5c0 2.5-2 4.5-4.5 4.5h-48c-2.5 0-4.5-2-4.5-4.5s2-4.5 4.5-4.5h48c2.5 0 4.5 2 4.5 4.5z" fill="#6556C4"/><path d="m87.6 23.3c0 2.5-2 4.5-4.5 4.5h-64.1c-2.5 0-4.5-2-4.5-4.5s2-4.5 4.5-4.5h64.1c2.5 0 4.5 2 4.5 4.5z" fill="#2D96CB"/><path d="m116.3 42.1c0 2.5-2 4.5-4.5 4.5h-78c-2.5 0-4.5-2-4.5-4.5s2-4.5 4.5-4.5h78c2.5 0 4.5 2 4.5 4.5z" fill="#45AE3D"/><path d="m57 79.7c0 2.5-2 4.5-4.5 4.5h-48c-2.5 0-4.5-2-4.5-4.5s2-4.5 4.5-4.5h48c2.5 0 4.5 2 4.5 4.5z" fill="#F74E0A"/></svg>