<svg xmlns="http://www.w3.org/2000/svg" viewBox="0 0 116.3 84.2"><path d="M87.6 60.9c0 2.5-2 4.5-4.5 4.5H19c-2.5 0-4.5-2-4.5-4.5s2-4.5 4.5-4.5h64.1c2.5 0 4.5 2 4.5 4.5z" fill="#FFA216"/><path d="M57 4.5C57 7 55 9 52.5 9h-48C2 9 0 7 0 4.5S2 0 4.5 0h48C55 0 57 2 57 4.5z" fill="#6556C4"/><path d="M87.6 23.3c0 2.5-2 4.5-4.5 4.5H19c-2.5 0-4.5-2-4.5-4.5s2-4.5 4.5-4.5h64.1c2.5 0 4.5 2 4.5 4.5z" fill="#2D96CB"/><path d="M116.3 42.1c0 2.5-2 4.5-4.5 4.5h-78c-2.5 0-4.5-2-4.5-4.5s2-4.5 4.5-4.5h78c2.5 0 4.5 2 4.5 4.5z" fill="#45AE3D"/><path d="M57 79.7c0 2.5-2 4.5-4.5 4.5h-48c-2.5 0-4.5-2-4.5-4.5s2-4.5 4.5-4.5h48c2.5 0 4.5 2 4.5 4.5z" fill="#F74E0A"/></svg>