<svg xmlns="http://www.w3.org/2000/svg" width="128" height="128"><path fill="#e60012" d="M12.7 56.4h4.6l6.4 10.5V56.4h4.6v15.1h-4.6L17.3 61v10.5h-4.6zM53.3 58h4.5v2h2.4v1.5h-2.4v10h-4.5v-10h-2.4V60h2.4zm-22.4 3.5h4.5v10h-4.5zm-.1-5.1h4.5v3.1h-4.5zm80.1 10v2.1c0 1.6-.9 2.3-1.8 2.3s-1.8-.7-1.8-2.3V64.2c0-1.6.9-2.2 1.8-2.2s1.8.7 1.8 2.2zm-1.8-5.6c-3.6 0-6.5 2.5-6.5 5.6 0 3.1 2.9 5.6 6.5 5.6s6.5-2.5 6.5-5.6c0-3.1-2.9-5.6-6.5-5.6zm-12.4-4.4h4.4v15.1h-4.4v-.6c-2.4 1.6-5.7.9-7.3-1.5-.6-.9-.9-2-.9-3.1.1-3 2.6-5.3 5.5-5.3h.1c.9.1 1.8.4 2.5.9zm0 10v-1.8c.1-1-.6-1.8-1.6-1.9-1-.1-1.8.6-1.9 1.6v4c-.1 1 .6 1.8 1.6 1.9 1 .1 1.8-.6 1.9-1.6v-.4zM45.8 61c2.7-.1 4.9 2 5 4.7v5.9h-4.4V65c-.1-1.1-1-1.9-2-1.8-1.1 0-2 .8-2.1 1.8v6.6h-4.4v-10h4.4v1.1c.9-1.1 2.1-1.6 3.5-1.7zm36.3 0c2.7-.1 4.9 2 5 4.7v5.9h-4.4V65c-.1-1.1-1-1.9-2-1.8-1.1 0-2 .8-2.1 1.8v6.6h-4.4v-10h4.4v1.1c.8-1.1 2.1-1.6 3.5-1.7zm-17.8 4c-.1-.7 0-1.3.3-2 .3-.6.9-.9 1.6-.9.6 0 1.2.4 1.6.9.3.6.4 1.3.3 2zm3.7 3v.6c0 1.8-1.2 2.2-1.8 2.2-1.1 0-1.9-.9-1.9-2v-2.4h8.4c0-3.1-3-5.7-6.6-5.7-3.6 0-6.6 2.5-6.6 5.6 0 3.1 2.9 5.6 6.6 5.6 2.8.1 5.3-1.5 6.3-4.1H68zM16.7 80C6.7 80 0 72.8 0 64s6.7-16 16.7-16h94.6c10 0 16.7 7.3 16.7 16s-6.7 16-16.7 16zm.1-28.1C8.8 52 3.9 57.3 3.9 64c0 6.7 4.8 12.1 12.8 12.1h94.5c8 0 12.8-5.4 12.8-12.1 0-6.7-4.8-12-12.8-12.1z"/></svg>