<svg xmlns="http://www.w3.org/2000/svg" viewBox="0 0 100 100" fill="#28004b"><path d="M72.44 76.1a26.13 26.13 0 0 1-11.2 9.5 34.9 34.9 0 0 1-14.79 3.26 36.49 36.49 0 0 1-15.28-3.13 34.87 34.87 0 0 1-11.43-8.42 38.58 38.58 0 0 1-7.21-12.4A44.34 44.34 0 0 1 10 49.89c0-5.3.84-10.35 2.65-15.04a37.6 37.6 0 0 1 7.33-12.39 34.54 34.54 0 0 1 11.43-8.3c4.45-2.04 9.5-3 14.92-3 5.53 0 10.35 1.08 14.68 3.36a30.64 30.64 0 0 1 10.34 8.66h.36V12.95H90v74.1H72.8V76.23h-.36ZM28.29 49.89c0 3.13.48 6.14 1.44 9.14.96 2.89 2.4 5.42 4.21 7.58a19.97 19.97 0 0 0 6.98 5.17 21.47 21.47 0 0 0 9.38 1.93c3.37 0 6.38-.6 9.14-1.93 2.77-1.32 5.06-3 7.1-5.17a24.08 24.08 0 0 0 4.57-7.58 26.3 26.3 0 0 0 1.57-9.26c0-3.13-.48-6.14-1.57-9.14a24.08 24.08 0 0 0-4.57-7.58 20.43 20.43 0 0 0-7.1-5.18 20.76 20.76 0 0 0-9.14-1.92c-3.6 0-6.74.6-9.38 1.92a21.54 21.54 0 0 0-6.98 5.18 21.24 21.24 0 0 0-4.21 7.58 30.98 30.98 0 0 0-1.44 9.26"/></svg>
