<svg xmlns="http://www.w3.org/2000/svg" width="526" height="261" style="shape-rendering:geometricPrecision;text-rendering:geometricPrecision;image-rendering:optimizeQuality;fill-rule:evenodd;clip-rule:evenodd"><path fill="#fe6500" d="M319.5-.5h34c.521 50.312.521 100.646 0 151h17v29h-63v-29h12v-13a120.655 120.655 0 0 0 0-31v-64c-12.684.332-25.351 0-38-1a1120.221 1120.221 0 0 0 38-42Z" style="opacity:.973"/><path fill="#0555a2" d="M319.5 106.5a120.655 120.655 0 0 1 0 31c-27.002-.167-54.002 0-81 .5l-37 41c-16 .667-32 .667-48 0a11635.66 11635.66 0 0 1 124-133 400.23 400.23 0 0 1 40 0 6813.97 6813.97 0 0 0-51 59.5c17.654 1 35.321 1.333 53 1Z" style="opacity:.968"/><path fill="#0254a3" d="M88.5 260.5h-8c-19.159-4.952-26.659-17.285-22.5-37 4.297-12.572 13.13-18.906 26.5-19 8.058-.13 14.725 2.703 20 8.5-1.5 2.833-3.667 5-6.5 6.5-7.58-5.542-15.414-6.042-23.5-1.5-9.322 9.721-9.322 19.388 0 29 8.526 3.937 16.526 3.104 24-2.5 3.243 2.048 5.41 4.715 6.5 8-4.795 4.31-10.295 6.977-16.5 8Z" style="opacity:.897"/><path fill="#0254a3" d="M138.5 260.5h-8c-19.007-4.283-26.84-16.283-23.5-36 7.552-18.188 20.719-24.022 39.5-17.5a27.816 27.816 0 0 1 8 6 34.517 34.517 0 0 1-7.5 6.5c-10.537-6.959-19.87-5.625-28 4-3.567 8.234-2.4 15.734 3.5 22.5 8.674 5.014 17.007 4.514 25-1.5 3.691 2.149 5.858 5.149 6.5 9-4.703 3.606-9.87 5.939-15.5 7Z" style="opacity:.904"/><path fill="#0254a3" d="M188.5 260.5h-8c-18.793-4.533-26.293-16.533-22.5-36 6.239-17.328 18.405-23.495 36.5-18.5 8.832 3.145 14.332 9.312 16.5 18.5 2.535 11.221.035 21.054-7.5 29.5-4.642 3.26-9.642 5.427-15 6.5Zm-8-46c12.277-.56 19.277 5.274 21 17.5-.637 10.804-6.304 16.97-17 18.5-10.696-1.53-16.363-7.696-17-18.5.799-8.611 5.132-14.445 13-17.5Z" style="opacity:.913"/><path fill="#fe6500" d="M402.5 260.5h-8c-15.414-2.76-23.414-12.094-24-28 3.698-24.161 17.365-32.661 41-25.5 12.084 7.886 16.584 19.052 13.5 33.5-3.602 11.194-11.102 17.861-22.5 20Zm-8-46c12.279-.557 19.279 5.276 21 17.5-2.424 15.543-11.09 20.877-26 16-8.455-7.652-9.955-16.485-4.5-26.5 2.505-3.353 5.671-5.686 9.5-7Z" style="opacity:.911"/><path fill="#0254a3" d="M-.5 258.5v-3a1121.37 1121.37 0 0 0 23-49.5 24.551 24.551 0 0 1 12 .5 1745.257 1745.257 0 0 1 23 51c-4 1.333-8 1.333-12 0-1.576-2.479-2.576-5.146-3-8-9.357-.332-18.69.002-28 1a45.817 45.817 0 0 0-3 7 36.877 36.877 0 0 1-12 1Zm28-39c3.741 5.51 6.741 11.51 9 18a64.875 64.875 0 0 1-16 1 324.897 324.897 0 0 1 7-19Z" style="opacity:.91"/><path fill="#0254a3" d="M245.5 260.5h-7c-10.188-1.356-16.688-7.023-19.5-17a721.824 721.824 0 0 1-.5-38h10a262.66 262.66 0 0 0 1.5 37c4.898 7.516 11.398 9.349 19.5 5.5a36.078 36.078 0 0 0 3.5-4.5 261.867 261.867 0 0 0 1.5-38h11c.167 11.671 0 23.338-.5 35-2.013 11.179-8.513 17.845-19.5 20Z" style="opacity:.923"/><path fill="#0254a3" d="M274.5 205.5a40.914 40.914 0 0 1 9 .5 1690.957 1690.957 0 0 1 24.5 30.5c.5-10.328.666-20.661.5-31h11v53a15.418 15.418 0 0 0-7 1 1298.356 1298.356 0 0 1-26.5-34 544.417 544.417 0 0 0-.5 33h-11v-53Z" style="opacity:.907"/><path fill="#0254a3" d="M324.5 205.5h44v10h-17v43h-11v-43h-16v-10Z" style="opacity:.915"/><path fill="#fe6500" d="M432.5 205.5c3.398-.32 6.732.013 10 1a802.289 802.289 0 0 1 23.5 30c.5-10.328.666-20.661.5-31h11v53c-2.292-.256-4.459.077-6.5 1l-27-34a544.417 544.417 0 0 0-.5 33h-11v-53Z" style="opacity:.909"/><path fill="#fe6500" d="M525.5 205.5v11h-29v11h28v10h-28v11h29v10h-40v-53h40Z" style="opacity:.936"/></svg>
