<svg xmlns="http://www.w3.org/2000/svg" viewBox="0 0 1961 2500"><path fill="#4688f1" d="M42.99 270.9C355.36 180.76 667.68 90.43 980.07.41c24.09 6.4 47.98 13.77 71.99 20.55 302.98 87.51 605.97 174.97 908.94 262.52v661.39c-1.34 45.42-3.45 90.83-7.87 136.07a2009.73 2009.73 0 0 1-87.96 426.18c-33.19 102.47-75 202.2-125.96 297.12-43.9 81.49-94.45 159.46-151.7 232.22a1505.4 1505.4 0 0 1-321.35 303.81c-51.9 36.57-106.38 69.38-162.19 99.6-17.88 9.18-35.53 18.8-53.74 27.32a1838.37 1838.37 0 0 1-69.68 32.27l.12.54h-.34l.11-.51c-121.05-52.37-236.12-118.87-340.8-199.18a1499.37 1499.37 0 0 1-253.12-246.81c-97.07-119.56-175.51-253.81-235.29-395.62-34.39-81.09-62.53-164.78-85.26-249.85a2025.99 2025.99 0 0 1-52.71-272.19C5.79 1075.08 1.08 1013.96 0 952.75V283.43c14.27-4.39 28.67-8.32 42.99-12.53m778.96 197.89c-39.48 10.63-78.06 24.96-114.37 43.83a521.61 521.61 0 0 0-45.6 25.53c-31.92 20.27-62.26 43.12-89.81 69.04-19.2 17.5-36.67 36.79-53.39 56.65a598.43 598.43 0 0 0-56.05 80.89c-34.35 59.27-57.9 124.71-69.62 192.19-5.67 34.37-9.24 69.25-8.1 104.12a583.53 583.53 0 0 0 20.24 151.93 587.34 587.34 0 0 0 108.14 212.64c3.83 4.65 7.37 9.79 11.97 13.63.58 2.64 3.39 4.31 4.93 6.52 72.92 83.72 170.1 146.01 276.69 177.15 91.75 27.31 190.2 31.21 283.98 12.3a596.14 596.14 0 0 0 127.63-41.64 588.23 588.23 0 0 0 191.55-140.37c3.86-4.69 8.52-8.88 11.8-13.95a16.37 16.37 0 0 0 3.62-3.67c24.39-29.42 46.23-61.01 64.54-94.57 43.35-78.59 68.01-167.32 71.81-256.98.13-11.34 1.34-22.69.18-34-.62-24.32-2.06-48.65-5.55-72.74-5.96-46.22-18.08-91.55-35-134.94-14.42-36.92-32.95-72.16-54.38-105.48a594.99 594.99 0 0 0-156.4-161.64c-70.66-49.78-152.61-83.37-237.82-97.79-83.21-13.87-169.4-10.25-250.99 11.35z"/><path fill="#3566b8" d="M821.95 468.79c81.59-21.6 167.78-25.22 250.99-11.35 85.21 14.42 167.16 48.01 237.82 97.79a594.99 594.99 0 0 1 156.4 161.64c21.43 33.32 39.96 68.56 54.38 105.48 16.92 43.39 29.04 88.72 35 134.94 3.49 24.09 4.93 48.42 5.55 72.74 1.16 11.31-.05 22.66-.18 34-3.8 89.66-28.46 178.39-71.81 256.98-18.31 33.56-40.15 65.15-64.54 94.57a16.37 16.37 0 0 1-3.62 3.67 129.4 129.4 0 0 0-21.65-56.5c-18.69-27.44-44.94-48.78-72.71-66.52-30.98-19.58-64.49-34.86-98.72-47.79a836.75 836.75 0 0 0-136.88-37.55c-41.86-7.68-84.37-12.94-127.01-12.2-47.13 1.11-93.91 8.36-139.92 18.35-43.66 9.92-86.77 22.71-128.2 39.78-33.2 13.78-65.63 29.99-94.85 51.07-23.43 16.87-45.15 37.04-60.04 62.01-8.87 15.02-15.3 31.84-16.6 49.34-4.6-3.84-8.14-8.98-11.97-13.63a587.34 587.34 0 0 1-108.14-212.64 583.53 583.53 0 0 1-20.24-151.93c-1.14-34.87 2.43-69.75 8.1-104.12 11.72-67.48 35.27-132.92 69.62-192.19a598.43 598.43 0 0 1 56.05-80.89c16.72-19.86 34.19-39.15 53.39-56.65 27.55-25.92 57.89-48.77 89.81-69.04a521.61 521.61 0 0 1 45.6-25.53c36.31-18.87 74.89-33.2 114.37-43.83m142.5 138.78c-57.15 1.97-112.96 27.14-152.54 68.37-37.1 38.16-59.93 89.87-62.74 143.06-.96 24.57 1.36 49.39 7.98 73.12 14.09 51.45 47.41 97.27 91.83 126.76a223.02 223.02 0 0 0 121.98 37.57c43.6.63 87.24-12 123.86-35.65a226.35 226.35 0 0 0 73.91-78.07c19.86-34.98 30.38-75.47 28.98-115.73-.83-38.62-11.67-77.04-31.59-110.17a225.45 225.45 0 0 0-81.17-79.81 223.5 223.5 0 0 0-120.5-29.45z"/><path fill="#fff" d="M964.45 607.57a223.5 223.5 0 0 1 120.5 29.45 225.45 225.45 0 0 1 81.17 79.81c19.92 33.13 30.76 71.55 31.59 110.17 1.4 40.26-9.12 80.75-28.98 115.73a226.35 226.35 0 0 1-73.91 78.07 223.92 223.92 0 0 1-123.86 35.65 223.02 223.02 0 0 1-121.98-37.57c-44.42-29.49-77.74-75.31-91.83-126.76-6.62-23.73-8.94-48.55-7.98-73.12 2.81-53.19 25.64-104.9 62.74-143.06 39.58-41.23 95.39-66.4 152.54-68.37zm-139.4 609.47c46.01-9.99 92.79-17.24 139.92-18.35 42.64-.74 85.15 4.52 127.01 12.2a836.75 836.75 0 0 1 136.88 37.55c34.23 12.93 67.74 28.21 98.72 47.79 27.77 17.74 54.02 39.08 72.71 66.52a129.4 129.4 0 0 1 21.65 56.5c-3.28 5.07-7.94 9.26-11.8 13.95a588.23 588.23 0 0 1-191.55 140.37 596.14 596.14 0 0 1-127.63 41.64c-93.78 18.91-192.23 15.01-283.98-12.3-106.59-31.14-203.77-93.43-276.69-177.15-1.54-2.21-4.35-3.88-4.93-6.52 1.3-17.5 7.73-34.32 16.6-49.34 14.89-24.97 36.61-45.14 60.04-62.01 29.22-21.08 61.65-37.29 94.85-51.07 41.43-17.07 84.54-29.86 128.2-39.78z"/></svg>