<?xml version="1.0" standalone="no"?>
<!DOCTYPE svg PUBLIC "-//W3C//DTD SVG 20010904//EN"
 "http://www.w3.org/TR/2001/REC-SVG-20010904/DTD/svg10.dtd">
<svg version="1.0" xmlns="http://www.w3.org/2000/svg"
 width="1024.000000pt" height="1024.000000pt" viewBox="0 0 1024.000000 1024.000000"
 preserveAspectRatio="xMidYMid meet">

<g transform="translate(0.000000,1024.000000) scale(0.100000,-0.100000)"
fill="#000000" stroke="none">
<path d="M281 10073 c-59 -21 -124 -87 -144 -148 -16 -45 -17 -404 -17 -4805
0 -4303 2 -4761 16 -4803 21 -63 83 -130 152 -164 l57 -28 4775 0 4775 0 57
28 c64 32 111 80 142 146 l21 46 0 4760 0 4760 -28 57 c-34 69 -101 131 -164
152 -42 15 -501 16 -4822 15 -4299 -1 -4780 -2 -4820 -16z m6879 -922 c0 -5
-30 -62 -66 -127 -37 -66 -231 -414 -432 -774 -201 -360 -464 -833 -585 -1050
-121 -217 -250 -449 -287 -515 l-67 -120 944 -3 c656 -1 943 -5 943 -13 0 -9
-214 -399 -550 -999 -75 -135 -316 -567 -535 -960 -219 -393 -462 -830 -540
-970 -78 -140 -295 -529 -482 -865 -187 -335 -438 -785 -558 -1000 -120 -214
-268 -480 -329 -590 l-111 -200 -6 795 c-3 437 -7 1316 -8 1952 l-1 1158 -522
2 -523 3 -3 2130 c-1 1172 0 2136 3 2143 3 9 385 12 1860 12 1070 0 1855 -4
1855 -9z"/>
</g>
</svg>
