<svg xmlns="http://www.w3.org/2000/svg" xmlns:xlink="http://www.w3.org/1999/xlink" viewBox="0 0 80 80" xmlns:v="https://vecta.io/nano"><radialGradient id="A" cx="71.531" cy="16.385" gradientUnits="userSpaceOnUse" r="90.78"><stop offset="0" stop-color="#fff36e"/><stop offset=".5" stop-color="#fc4055"/><stop offset="1" stop-color="#e31587"/></radialGradient><radialGradient id="B" cx="6.629" cy="20.14" gradientUnits="userSpaceOnUse" r="53.726"><stop offset=".001" stop-color="#c60084"/><stop offset="1" stop-color="#fc4055" stop-opacity="0"/></radialGradient><radialGradient id="C" cx="79.291" cy="11.219" gradientUnits="userSpaceOnUse" r="106.599"><stop offset="0" stop-color="#ffde67" stop-opacity=".6"/><stop offset=".093" stop-color="#ffd966" stop-opacity=".581"/><stop offset=".203" stop-color="#ffca65" stop-opacity=".525"/><stop offset=".321" stop-color="#feb262" stop-opacity=".432"/><stop offset=".446" stop-color="#fe8f5e" stop-opacity=".302"/><stop offset=".573" stop-color="#fd6459" stop-opacity=".137"/><stop offset=".664" stop-color="#fc4055" stop-opacity="0"/></radialGradient><radialGradient id="D" cx="42.285" cy="44.404" gradientUnits="userSpaceOnUse" r="137.521"><stop offset=".153" stop-color="#810220"/><stop offset=".167" stop-color="#920b27" stop-opacity=".861"/><stop offset=".216" stop-color="#cb2740" stop-opacity=".398"/><stop offset=".253" stop-color="#ef394f" stop-opacity=".11"/><stop offset=".272" stop-color="#fc4055" stop-opacity="0"/></radialGradient><radialGradient id="E" cx="31.878" cy="42.675" gradientUnits="userSpaceOnUse" r="137.521"><stop offset=".113" stop-color="#810220"/><stop offset=".133" stop-color="#920b27" stop-opacity=".861"/><stop offset=".204" stop-color="#cb2740" stop-opacity=".398"/><stop offset=".257" stop-color="#ef394f" stop-opacity=".11"/><stop offset=".284" stop-color="#fc4055" stop-opacity="0"/></radialGradient><linearGradient id="F" gradientUnits="userSpaceOnUse" x1="45.831" x2="69.389" y1="7.787" y2="48.591"><stop offset="0" stop-color="#ffbd4f"/><stop offset=".508" stop-color="#ff9640" stop-opacity="0"/></linearGradient><radialGradient id="G" cx="-1255.933" cy="-77.395" gradientTransform="matrix(.959 0 0 .961 1273.896 86.468)" gradientUnits="userSpaceOnUse" r="88.863"><stop offset="0" stop-color="#ff9640"/><stop offset=".8" stop-color="#fc4055"/></radialGradient><radialGradient id="H" cx="-1255.933" cy="-77.395" gradientTransform="matrix(0.959,0,0,0.961,1273.896,86.468)" gradientUnits="userSpaceOnUse" r="88.863"><stop offset=".084" stop-color="#ffde67"/><stop offset=".147" stop-color="#ffdc66" stop-opacity=".968"/><stop offset=".246" stop-color="#ffd562" stop-opacity=".879"/><stop offset=".369" stop-color="#ffcb5d" stop-opacity=".734"/><stop offset=".511" stop-color="#ffbc55" stop-opacity=".533"/><stop offset=".667" stop-color="#ffaa4b" stop-opacity=".28"/><stop offset=".822" stop-color="#ff9640" stop-opacity="0"/></radialGradient><radialGradient id="I" cx="49.941" cy="38.654" gradientTransform="matrix(0.247,0.971,-1.011,0.259,76.681,-19.851)" gradientUnits="userSpaceOnUse" r="41.79"><stop offset=".363" stop-color="#fc4055"/><stop offset=".443" stop-color="#fd604d" stop-opacity=".633"/><stop offset=".545" stop-color="#fe8644" stop-opacity=".181"/><stop offset=".59" stop-color="#ff9640" stop-opacity="0"/></radialGradient><radialGradient id="J" cx="42.737" cy="42.098" gradientUnits="userSpaceOnUse" r="41.79"><stop offset=".216" stop-color="#fc4055" stop-opacity=".8"/><stop offset=".267" stop-color="#fd5251" stop-opacity=".633"/><stop offset=".41" stop-color="#fe8345" stop-opacity=".181"/><stop offset=".474" stop-color="#ff9640" stop-opacity="0"/></radialGradient><radialGradient id="K" cx="-1238.198" cy="-87.433" gradientTransform="matrix(.959 0 0 .961 1273.896 86.468)" gradientUnits="userSpaceOnUse" r="150.195"><stop offset=".054" stop-color="#fff36e"/><stop offset=".457" stop-color="#ff9640"/></radialGradient><linearGradient id="L" gradientUnits="userSpaceOnUse" x1="59.052" x2="18.155" y1="7.083" y2="77.92"><stop offset="0" stop-color="#fff36e" stop-opacity=".8"/><stop offset=".094" stop-color="#fff36e" stop-opacity=".699"/><stop offset=".752" stop-color="#fff36e" stop-opacity="0"/></linearGradient><linearGradient id="M" gradientUnits="userSpaceOnUse" x1="40.585" x2="62.3" y1="-.67" y2="62.203"><stop offset="0" stop-color="#b833e1"/><stop offset=".371" stop-color="#9059ff"/><stop offset=".614" stop-color="#5b6df8"/><stop offset="1" stop-color="#0090ed"/></linearGradient><linearGradient id="N" gradientUnits="userSpaceOnUse" x1="27.71" x2="68.071" y1="0.324" y2="40.685"><stop offset=".805" stop-color="#722291" stop-opacity="0"/><stop offset="1" stop-color="#592acb" stop-opacity=".5"/></linearGradient><use xlink:href="#P" fill="url(#A)"/><use xlink:href="#P" fill="url(#B)" opacity=".67"/><use xlink:href="#P" fill="url(#C)"/><use xlink:href="#P" fill="url(#D)"/><use xlink:href="#P" fill="url(#E)"/><path d="M75.651 30.935a41.01 41.01 0 01.3 7.247q1.99-.3 3.987-.53A40.01 40.01 0 0071.944 15.7 39.47 39.47 0 0041.588.009C32.3-.177 25.884 2.614 22.254 4.858 27.111 2.041 34.14.443 40.294.522 56.124.724 73.126 11.5 75.651 30.935z" fill="url(#F)"/><use xlink:href="#Q" fill="url(#G)"/><use xlink:href="#Q" fill="url(#H)"/><use xlink:href="#Q" fill="url(#I)" opacity=".53"/><use xlink:href="#Q" fill="url(#J)" opacity=".53"/><path d="M49.188 57.84c17.1-1.04 24.42-15.2 24.879-25.245C74.783 16.9 65.472-.02 40.84 1.5a43.5 43.5 0 00-13.183 1.546 28.855 28.855 0 00-7.692 3.572l-.056.038-.063.043q-.574.4-1.123.842A33.482 33.482 0 0139.7 3.605c14.142 1.856 27.072 12.857 27.072 27.373 0 11.169-8.631 19.7-18.738 19.087-15.015-.9-18.8-16.3-10.989-22.954-2.106-.453-6.064.435-8.82 4.555-2.473 3.7-2.333 9.41-.807 13.461a22.118 22.118 0 0021.77 12.713z" fill="url(#K)"/><path d="M71.944 15.7a39.958 39.958 0 0 0-3.482-3.982 31.342 31.342 0 0 0-3.177-2.926 24.393 24.393 0 0 1 1.849 1.79 22.466 22.466 0 0 1 4.882 8.144c2.089 6.329 1.953 14.25-2.036 20.471a23.539 23.539 0 0 1-20.855 10.895c-.361 0-.725 0-1.091-.027-15.015-.9-18.8-16.3-10.988-22.954-2.107-.453-6.065.435-8.821 4.555-2.473 3.7-2.333 9.41-.807 13.461a21.679 21.679 0 0 1-1.963-6.333c-1.977-13.35 6.988-24.735 15.209-27.554-4.435-3.874-15.548-3.611-23.819 2.474a27.845 27.845 0 0 0-10.087 14.6 38.5 38.5 0 0 1 4.159-13.553c-2.769 1.433-6.295 5.965-8.035 10.163A41.355 41.355 0 0 0 .284 45.1l.182 1.549A40.062 40.062 0 1 0 71.944 15.7z" fill="url(#L)"/><use xlink:href="#R" fill="url(#M)"/><use xlink:href="#R" fill="url(#N)"/><defs ><path id="P" d="M71.944 15.7A39.47 39.47 0 0 0 41.588.009C32.3-.177 25.884 2.614 22.254 4.858 27.111 2.041 34.14.443 40.294.522c15.83.2 32.832 10.981 35.357 30.413 2.9 22.306-12.637 40.923-34.493 40.98-24.045.061-38.67-21.229-34.847-40.352a19.735 19.735 0 0 1 .413-2.787 37.815 37.815 0 0 1 4.193-14.018c-2.769 1.433-6.295 5.965-8.035 10.163A41.355 41.355 0 0 0 .284 45.1l.182 1.549A40.062 40.062 0 1 0 71.944 15.7z"/><path id="Q" d="M76.625 29.826C74.374 9.518 56.263.39 40.294.522c-6.155.05-13.183 1.519-18.04 4.336a19.7 19.7 0 00-3.56 2.7c.129-.107.514-.424 1.152-.862l.063-.043.056-.038a26.655 26.655 0 017.692-3.572A43.5 43.5 0 0140.84 1.5a33.254 33.254 0 0131.25 31.993C72.457 46.7 61.648 57.23 49.188 57.84c-9.062.444-17.6-3.941-21.77-12.713a21.68 21.68 0 01-1.964-6.333c-1.976-13.35 6.989-24.735 15.21-27.554-4.435-3.874-15.548-3.611-23.819 2.474-5.956 4.382-9.82 11.049-11.1 19a32.945 32.945 0 002.34 18 35.3 35.3 0 0030.089 21.443q1.489.114 2.984.113c26.462 0 37.942-20.087 35.467-42.444z"/><path id="R" d="M72.016 18.726a22.458 22.458 0 00-4.882-8.144 30.224 30.224 0 00-9.094-6.493A40.518 40.518 0 0049.1.92a39.834 39.834 0 00-16.565-.1c-5.683 1.2-10.68 3.659-13.841 6.733a32.1 32.1 0 018.031-3.2 33.565 33.565 0 0131.173 8.1 27.01 27.01 0 014.329 5.3c4.895 7.959 4.432 17.965.615 23.866-2.835 4.384-8.907 8.5-14.572 8.452A23.629 23.629 0 0069.98 39.2c3.989-6.224 4.125-14.145 2.036-20.474z"/></defs></svg>