<svg xmlns="http://www.w3.org/2000/svg" width="44.234" height="44.234"><g fill="#74c947" fill-rule="evenodd"><path d="M38.876 21.048l-33.516.003c-2.955-.23-2.859-14.624 14.29-15.86.163-.075.198-.092.293-.404.159-.577.25-1.139.266-1.671a4.751 4.751 0 00-.264-1.771A4.414 4.414 0 0019.158 0a4.115 4.115 0 011.557.314c.65.26 1.309.708 1.903 1.299a9.739 9.739 0 011.515 1.974c.217.368.414.741.599 1.142.088.195.174.396.254.608 16.739 1.444 16.822 15.481 13.89 15.711M38.086 22.566s2.65 16.492-13.579 19.607c-.736.628-1.958 2.067-2.403 2.061-.446.006-1.668-1.433-2.405-2.061-16.32-2.797-13.58-19.607-13.58-19.607h31.967"/></g></svg>