<svg xmlns="http://www.w3.org/2000/svg" xmlns:xlink="http://www.w3.org/1999/xlink" viewBox="0 0 26.904 24.05"><defs><path id="a" d="M11.825 24.818c.742 0 1.489-.295 2.267-.885.87-.63 1.654-1.17 1.657-1.172l.535-.37-.529-.379c-.48-.344-11.76-8.44-12.958-9.235-.623-.469-1.345-.564-1.93-.257-.551.291-.868.881-.868 1.62v2.955l.189.135c.08.058 8.08 5.813 9.643 6.89.675.465 1.333.698 1.994.698zm16.598-4.655C27.723 19.62 2.754 1.623 1.692.857L1.002.36v4.855c0 1.521.79 2.112 1.704 2.796l.14.106c1.202.911 17.882 12.885 21.13 15.216-3.207 2.3-20.184 14.472-21.287 15.205-1.446.996-1.597 1.681-1.597 3.004l-.039 5.096 27.362-20.127.009-.007C29.727 25.492 30 24.271 30 23.424v-.453c0-1.09-.549-2.064-1.576-2.809z"/></defs><g transform="matrix(.89678 0 0 .51968 0 -.188)" fill="none" fill-rule="evenodd"><mask id="b" fill="#fff"><use width="100%" height="100%" xlink:href="#a"/></mask><use width="100%" height="100%" fill="#fff" xlink:href="#a"/><g fill="#356ae6" mask="url(#b)"><path d="M0-1h30v49H0z"/></g></g></svg>