<svg xmlns="http://www.w3.org/2000/svg" xmlns:xlink="http://www.w3.org/1999/xlink" width="107.066" height="107.066"><g transform="translate(147.521 27.88)"><g id="a" transform="translate(-147.17 -26.865)" opacity="1" fill="#8dc9e8" fill-opacity=".989" fill-rule="evenodd"><circle cx="53.493" cy="8.244" r="7.12" stroke-width="6.04" stroke-linecap="square" stroke-linejoin="round" stroke-dashoffset="1.8" paint-order="markers fill stroke"/><path d="M44.977 11.621c-3.735-.055-7.477.454-12.196 3.358-8.803 5.416-9.597 15.052-9.58 14.964 4.103-3.101 7.417-8.19 15.682-7.746 3.44.185 5.241-.896 12.185 4.686 2.024 1.626 4.283 3.61 5.32 9.576.546 3.139 2.796 6.667 6.605 6.616 4.068-.054 8.33-1.352 8.589-7.627.265-6.43-1.743-12.605-8.289-18.024-1.416-1.172-2.636-2.076-3.764-2.797a8.786 8.786 0 01-14.14-2.992c-.137-.004-.275-.012-.412-.014z"/></g><use xlink:href="#a" width="100%" height="100%" transform="rotate(-72 -94.127 30.18)"/><use xlink:href="#a" width="100%" height="100%" transform="rotate(-144 -94.127 30.18)"/><use xlink:href="#a" width="100%" height="100%" transform="rotate(144 -94.127 30.18)"/><use xlink:href="#a" width="100%" height="100%" transform="rotate(72 -94.127 30.18)"/></g></svg>