<svg xmlns="http://www.w3.org/2000/svg" class="c-branding__logo" width="52.43" height="52.43"><path d="M16.218 14.13l-2.68 5.296c2.151 1.434 4.05 3.182 5.656 4.93l2.906-5.763c.238-.49.728-.8 1.265-.8h1.169c.537 0 1.028.31 1.266.8l2.838 5.624a32.937 32.937 0 015.735-4.759l-2.697-5.327c-1.85-3.655-3.567-4.54-6.086-4.895a13.6 13.6 0 00-1.643-.108c-.51 0-1.2.045-1.642.108-3.266.46-4.66 2.075-6.087 4.895zm7.685 16.37a33.243 33.243 0 012.71-3.97l-2.663-5.478-2.75 5.656a46.334 46.334 0 012.703 3.792zm-12.925-9.31l-.58-.34a.727.727 0 01-.275-.953l3.585-7.08c1.724-3.404 3.78-5.8 8.21-6.424.57-.08 1.386-.135 2.029-.135s1.459.054 2.03.135c4.43.624 6.485 3.02 8.209 6.424l2.629 5.192a32.216 32.216 0 0114.155-3.831c.867-.03 1.586.75 1.44 1.676-.11.69-.73 1.17-1.416 1.195-10.735.39-20.485 6.653-25.458 16.36-.01.021-.023.04-.035.06l.002.002c-.012.02-.027.04-.04.06a1.793 1.793 0 01-1.513.848h-.006c-.535 0-1.042-.25-1.374-.677l-.18-.232c-1.133-1.972-5.306-8.688-11.412-12.28zm39.971 3.307c.876-.044 1.6.73 1.464 1.659-.1.691-.714 1.174-1.4 1.211-2.832.151-5.626.971-8.183 2.31l.17.32c.798 1.507 2.183 4.143 4.116 7.833 1.024 1.956 1.038 3.965.038 5.658-.947 1.604-2.732 2.682-4.44 2.682l-2.791.001c-2.087 0-5.047-.192-6.833-4.63l-.46-1.141a67.5 67.5 0 01-2.025 2.86c-2.112 2.847-4.54 2.911-6.52 2.911h-.278c-1.978 0-4.406-.063-6.517-2.911a56.552 56.552 0 01-1.957-2.855l-.543 1.172c-1.787 4.403-4.738 4.594-6.818 4.594l-2.793-.001c-1.707 0-3.492-1.078-4.439-2.682-1-1.693-.986-3.702.038-5.658l2.597-4.956 2.623-5.007a.7.7 0 01.963-.296c2.635 1.488 6.594 4.678 10.19 10.421a53.497 53.497 0 002.394 3.54c1.313 1.772 2.608 1.771 4.401 1.77 1.794 0 3.09.002 4.404-1.77 1.046-1.412 2.227-3.055 3.043-4.535 3.974-7.203 11.65-12.11 19.556-12.5zm-6.326 14.682a2066.484 2066.484 0 00-4.217-8.026 21.851 21.851 0 00-5.942 6.225l1.24 3.076c1.15 2.862 2.557 2.856 4.503 2.846h2.508c.61 0 1.524-.453 2.019-1.29.483-.817.445-1.77-.11-2.831zm-32.432 1.276c.007-.019.939-2.03 1.318-2.847-1.61-2.397-3.357-4.644-5.988-6.543l-1.654 3.157-2.596 4.957c-.556 1.061-.593 2.014-.11 2.831.494.837 1.409 1.29 2.018 1.29h2.508c1.948.01 3.352.016 4.504-2.845z" class="st0" fill="#5d2bff" fill-rule="evenodd"/></svg>