<svg xmlns="http://www.w3.org/2000/svg" width="20.317" height="31.002" fill="#356ae6"><path d="M19.263 13.382c.698.49 1.054 1.096 1.054 1.799v.349c-.008.543-.203 1.307-1.054 1.946l-.003.002-9.001 6.246-9.787 6.791v.487l-.289-.486c-.014-.025-.027-.046-.012-.08H.162v-2.542c0-.867.096-1.284 1.061-1.927.806-.518 13.564-9.365 15.257-10.537L1.343 4.888l-.102-.074C.603 4.352.101 3.988.101 3.026V0l.242.17 18.92 13.212zM8.216 16.804c-.437 0-.87-.152-1.326-.455L.066 11.634 0 11.588V9.646c0-.446.192-.799.529-.97.361-.184.812-.124 1.206.162.852.548 9.092 6.266 9.175 6.325l.187.129-.19.127-1.175.803c-.529.388-1.024.582-1.516.582z"/></svg>