<svg xmlns="http://www.w3.org/2000/svg" width="193.309" height="193.309"><g fill-rule="nonzero" fill="none"><path d="M6.75 131.123c-8.9-3.8-9-10.4-.3-14.6l178.2-86.1c8.7-4.2 11.3-1.2 5.7 6.8l-83 118.5c-5.5 7.9-17.4 11.3-26.2 7.5z" fill="#eb2136"/><g fill="#eb2136"><path d="M150.75 122.223c-.4 1.8-4 3.3-8.1 3.3-1.4 0-2.6.7-2.8 1.7l-.3 1.7h10l-.3 1.7h-14.9l.6-3.3c.4-1.8 4-3.3 8.1-3.3 1.4 0 2.6-.7 2.8-1.7l.7-3.3c.2-.9-.8-1.7-2.2-1.7-1.4 0-2.6.8-2.8 1.7l-.3 1.7h-5l.3-1.7c.4-1.8 4-3.3 8.1-3.3s7.2 1.5 6.8 3.3zM166.85 130.523h-5l1-5h-2.5c-4.1 0-7.2-1.5-6.8-3.3l1.3-6.6h5l-1.3 6.6c-.2.9.8 1.7 2.2 1.7h2.5l1.6-8.3h5z"/></g><path d="M46.45 115.823c-5.2 0-9.9 1.9-10.3 4.2l-1.2 6.3c-.5 2.3 3.4 4.2 8.7 4.2 5.2 0 9.8-1.9 10.3-4.2h-6.3c-.2 1.2-1.8 2.1-3.5 2.1-1.8 0-3-.9-2.8-2.1l1.2-6.3c.2-1.2 1.8-2.1 3.6-2.1s3 .9 2.7 2.1h6.3c.4-2.3-3.5-4.2-8.7-4.2zM65.65 112.623h-6.3l-2.7 13.7c-.5 2.3 3.4 4.2 8.7 4.2l.4-2.1c-1.8 0-3-.9-2.8-2.1l1.7-8.4h3.2l.4-2.1h-3.2zM75.15 113.123c2 0 3.8-.7 4-1.6.2-.9-1.3-1.6-3.4-1.6-2 0-3.8.7-4 1.6-.1.9 1.4 1.6 3.4 1.6zM74.95 130.523l2.9-14.7h-6.3l-2.9 14.7zM92.25 126.323c-.2 1.2-1.8 2.1-3.5 2.1h-3.2l2.5-12.6h-6.3l-2.9 14.8h9.5c5.2 0 9.8-1.9 10.3-4.2l2.1-10.5h-6.3zM113.65 115.823c-5.2 0-9.9 1.9-10.3 4.2l-1.2 6.3c-.5 2.3 3.4 4.2 8.7 4.2 5.2 0 9.8-1.9 10.3-4.2h-6.3c-.2 1.2-1.8 2.1-3.6 2.1s-3-.9-2.8-2.1l.4-2.1h12.7l.8-4.2c.4-2.3-3.4-4.2-8.7-4.2zm2.4 4.2l-.4 2.1h-6.3l.4-2.1c.2-1.2 1.8-2.1 3.6-2.1s2.9.9 2.7 2.1zM24.25 115.823c-5.2 0-9.9 1.9-10.3 4.2l-1.2 6.3c-.5 2.3 3.4 4.2 8.7 4.2h1l2.5-1.9-.4 1.9h6.3l2.9-14.8h-9.5zm.7 12.6h-3.2c-1.8 0-3-.9-2.8-2.1l1.2-6.3c.2-1.2 1.8-2.1 3.6-2.1h3.2z" fill="#fff"/></g></svg>