<svg viewBox="0 0 90 90" xmlns="http://www.w3.org/2000/svg"><g fill="none"><path d="M35.19 44.22 19.135 1.06C18.506-.632 16-.18 16 1.626v86.317c0 1.806 2.505 2.26 3.136.566l16.056-43.16a1.615 1.615 0 0 0-.003-1.13Z" fill="#FD570D"/><path d="M54.469 44.217 38.412 1.057c-.63-1.694-3.135-1.24-3.135.566V87.94c0 1.806 2.505 2.26 3.135.566l16.057-43.16a1.609 1.609 0 0 0 0-1.13Z" fill="#CC70EB"/><path d="M73.748 44.217 57.69 1.057c-.63-1.694-3.135-1.24-3.135.566V87.94c0 1.806 2.505 2.26 3.135.566l16.057-43.16a1.632 1.632 0 0 0 0-1.13Z" fill="#1781FA"/></g></svg>