<svg xmlns="http://www.w3.org/2000/svg" viewBox="0 0 181.08 181.08"><path d="M126.94 180.93c-12.566-.264-27.701.432-42.824-.425-21.203-1.201-39.481-9.155-54.982-23.585-10.798-10.052-19.061-21.812-23.92-35.798-5.78-16.636-6.831-33.74-2.785-50.75C9.986 38.604 29.55 16.396 60.185 5.573 94.961-6.713 133.31 1.641 159.77 32.646c9.834 11.523 16.447 24.548 19.42 39.374 1.212 6.049 1.855 12.196 1.864 18.371.041 28.468.024 56.937.02 85.405 0 4.464-.654 5.122-5.248 5.127-15.44.018-30.882.007-48.885.007zm8.542-71.503h-.032c0-6.779.098-13.561-.018-20.338-.445-26.047-26.252-47.019-51.964-42.83-20.639 3.362-38.271 23.194-37.762 44.912.553 23.59 19.56 43.688 43.156 44.155 14.09.279 28.19.077 42.285.049 3.638-.007 4.324-.756 4.331-4.377.014-7.19.004-14.381.004-21.571z" fill="#93be55"/></svg>