<svg xmlns="http://www.w3.org/2000/svg" viewBox="0 0 609 610"><path fill="#ffcf00" d="M0 0h609v610H0Z"/><path fill="#231f1f" d="M29 217h37l8-39h41l7 39h45L130 32H71ZM95 70h1l13 76H80l15-76"/><path fill="#231e1f" d="M180 217h55c55 0 76-45 76-97 0-54-26-88-82-88h-49Zm45-153h4c30 0 33 34 33 54 0 24 0 65-32 65h-5V64m81 153h38l8-39h43l7 39h46L409 32h-60l-43 185Zm68-147h1l13 76h-29l15-76m164 26c0-12-3-34-20-34-19 0-22 28-22 62 0 38 2 61 23 61 17 0 21-15 22-37l40 4c0 41-24 67-64 67-55 0-70-47-70-95 0-46 15-96 70-96 44 0 64 30 64 68h-43"/></svg>