<svg xmlns="http://www.w3.org/2000/svg" width="608.9" height="609.7" version="1.0"><g font-family="fnt0,&quot;Futura&quot;,Arial" font-size="3.153" letter-spacing="-.063" word-spacing="0"><path fill="#ffcf00" d="M0 0h608.9v609.7H0V0z" class="ps0318 ps161 ps20"/><path fill="#231f1f" d="M29.28 216.604h36.906l7.822-38.106h41.113l6.82 38.106h45.325L129.563 32.089H70.798L29.28 216.604zM95.468 70.196h.4l13.037 76.212h-28.68l15.243-76.212" class="ps010 ps161 ps20"/><path fill="#231e1f" d="M179.502 216.604h55.155c55.351 0 76.814-44.123 76.814-96.269 0-54.15-26.275-88.246-82.43-88.246h-49.539v184.515zM225.23 64.179h3.81c30.283 0 33.292 34.095 33.292 54.151 0 24.067 0 64.18-32.09 64.18h-5.012V64.178M306.055 216.604h38.107l8.021-38.106h42.318l7.221 38.106h46.73L409.342 32.089h-60.37l-42.918 184.515zm68.188-146.408h.604l13.237 76.212H358.6l15.643-76.212M538.102 96.268c0-12.033-3.21-34.095-19.654-34.095-19.253 0-22.063 28.078-22.063 62.174 0 38.106 1.805 60.168 23.064 60.168 16.848 0 20.659-14.04 21.66-36.101l39.511 4.011c0 40.112-23.665 66.185-63.176 66.185-55.355 0-70.398-46.13-70.398-94.263 0-46.129 14.843-96.269 70.398-96.269 43.722 0 63.176 30.084 63.176 68.19h-42.518" class="ps07 ps162 ps20"/></g></svg>