<svg xmlns="http://www.w3.org/2000/svg" fill-rule="evenodd" clip-rule="evenodd" stroke-linejoin="round" stroke-miterlimit="2" width="195.601" height="195.601"><path d="M117.352 104.27c-7.533 1.204-14.03-.304-14.517-3.358-.487-3.054 5.225-6.504 12.759-7.7 7.529-1.196 14.025.304 14.512 3.354.488 3.054-5.22 6.508-12.754 7.704m-7.154 31.459c-2.759 1.404-7.804-2.96-11.267-9.746-3.467-6.796-4.046-13.45-1.283-14.854 2.75-1.4 7.787 2.962 11.258 9.754 3.467 6.787 4.05 13.437 1.292 14.846m-29.675-12.646c-5.388 5.396-11.525 7.996-13.713 5.808-2.191-2.183.404-8.33 5.792-13.725 5.383-5.404 11.52-8.004 13.717-5.817 2.187 2.184-.405 8.334-5.796 13.734M59.902 85.508c1.396-2.76 8.046-2.184 14.833 1.27 6.8 3.455 11.18 8.496 9.775 11.25-1.404 2.75-8.046 2.188-14.841-1.266-6.796-3.454-11.171-8.496-9.767-11.254m39.117-19.971c3.058.475 4.57 6.979 3.375 14.512-1.18 7.534-4.613 13.246-7.675 12.767-3.05-.483-4.567-6.98-3.384-14.508 1.188-7.534 4.625-13.25 7.684-12.771m96.454 20.617c-.633-4.005-2.808-5.15-8.054-6.825-3.984-1.28-30.667-9.78-30.667-9.78s-18.6-7.03-32.383 2.909c-1.859 1.34-3.784 2.866-5.713 4.49 1.621-1.932 3.146-3.853 4.484-5.711 9.908-13.804 2.85-32.396 2.85-32.396s-8.546-26.663-9.834-30.654c-1.687-5.234-2.833-7.41-6.842-8.03-4.016-.637-5.766 1.076-8.983 5.542a31870.96 31870.96 0 00-18.783 26.146S69.13 47.362 74.31 63.549a100.271 100.271 0 002.513 6.817c-1.342-2.142-2.7-4.187-4.054-6.03-10.071-13.681-29.921-12.727-29.921-12.727s-28.004-.11-32.188-.113c-5.508-.02-7.925.409-9.766 4.02-1.842 3.614-.755 5.82 2.5 10.255 2.47 3.38 19.07 25.938 19.07 25.938s10.917 16.616 27.905 16.683c2.283.013 4.729-.092 7.241-.275a100.38 100.38 0 00-6.97 1.988c-16.13 5.35-21.342 24.533-21.342 24.533s-8.759 26.6-10.067 30.583c-1.708 5.225-2.054 7.654.813 10.517 2.87 2.875 5.304 2.52 10.529.796 3.979-1.304 30.566-10.117 30.566-10.117s19.163-5.254 24.475-21.392c.721-2.166 1.375-4.525 1.984-6.958-.18 2.508-.275 4.95-.254 7.233.087 16.992 16.725 27.88 16.725 27.88s22.583 16.54 25.966 19.016c4.45 3.238 6.65 4.325 10.267 2.48 3.608-1.842 4.03-4.26 4.004-9.767-.016-4.184-.183-32.188-.183-32.188s.933-19.854-12.771-29.9c-1.842-1.35-3.88-2.704-6.02-4.037 2.337.94 4.628 1.796 6.812 2.479 16.187 5.162 31.687-7.288 31.687-7.288s22.717-16.37 26.113-18.82c4.458-3.225 6.162-4.996 5.529-9" fill-rule="nonzero"/></svg>