<svg xmlns="http://www.w3.org/2000/svg" xml:space="preserve" style="fill-rule:evenodd;clip-rule:evenodd;stroke-linejoin:round;stroke-miterlimit:2" viewBox="0 0 406 112"><path d="M116.9 109.5c0 5.2-2.8 9.7-7 12.1v8.9c0 3.9-3.1 7-7 7 4.9 0 9.5-1.3 13.5-3.5.3-1.1.5-2.3.5-3.5z" style="fill:#2d7aae;fill-rule:nonzero" transform="translate(-47 -46.5)"/><path d="M102.9 95.5H75c-3.9 0-7 3.1-7 7v28c0 3.9 3.1 7 7 7h28c3.9 0 7-3.1 7-7v-28c-.1-3.9-3.2-7-7.1-7m-7 28H82v-14h14z" style="fill:url(#a);fill-rule:nonzero" transform="translate(-47 -46.5)"/><path d="M76.9 67.5c2.4-4.2 6.9-7 12.1-7s9.7 2.8 12.1 7h1.9c4.7 0 9.3 1 13.6 2.8-2-13.4-13.6-23.8-27.6-23.8S63.4 56.8 61.4 70.3c4.3-1.8 8.9-2.8 13.6-2.8z" style="fill:url(#b);fill-rule:nonzero" transform="translate(-47 -46.5)"/><path d="M61 78.3c4.1-2.4 8.9-3.8 14-3.8 0-2.5.7-4.9 1.9-7H75c-4.7 0-9.3 1-13.6 2.8q-.3 2.1-.3 4.2v3.8zM101 67.5c1.2 2.1 1.9 4.4 1.9 7 5.1 0 9.9 1.4 14 3.8v-3.8q0-2.1-.3-4.2c-4.3-1.8-8.9-2.8-13.6-2.8z" style="fill:#2d7aae;fill-rule:nonzero" transform="translate(-47 -46.5)"/><path d="M116.9 130.5c0 1.2-.2 2.4-.5 3.5 8.6-4.8 14.4-13.9 14.4-24.5v-7c0-10.3-5.6-19.4-14-24.2-4.1-2.4-8.9-3.8-14-3.8H75c-5.1 0-9.9 1.4-14 3.8-8.4 4.8-14 13.8-14 24.2v28c0 15.4 12.5 28 28 28h28c0-7.7-6.3-14-14-14H75c-7.7 0-14-6.3-14-14v-28c0-7.7 6.3-14 14-14h28c7.7 0 14 6.3 14 14v7z" style="fill:url(#c);fill-rule:nonzero" transform="translate(-47 -46.5)"/><path d="M194.6 97.2c-1.3-1.3-2.8-2.2-4.5-2.9-1.7-.6-3.4-1.1-5.2-1.4s-3.5-.4-5.1-.4c-3.8 0-7.4.4-10.7 1.2-3.3.7-5.8 1.7-7.5 2.8v10.6c1.8-1.4 4-2.6 6.8-3.5 2.7-.8 5.4-1.3 8.1-1.3q5.25 0 8.1 2.1c1.9 1.4 2.9 3.6 2.9 6.6v3.9c-.6-.4-1.3-.7-2-1.1-1.6-.7-3.3-1.3-5.2-1.7s-4-.6-6.2-.6c-3.6 0-6.7.6-9.2 1.7s-4.4 2.8-5.7 5-1.9 4.9-1.9 8.1c0 3 .5 5.5 1.6 7.5s2.5 3.6 4.4 4.8 4 2 6.3 2.5 4.8.7 7.5.7c4.4 0 8.3-.4 11.4-1.1 3.3-.7 5.9-1.9 7.7-3.5s2.7-3.9 2.7-6.7l.1-22.1q0-3.9-1.2-6.6c-.8-1.8-1.8-3.4-3.2-4.6m-9.4 35.2c-1.6.5-4 .7-7.4.7-1.5 0-2.9-.2-4.3-.7-1.3-.5-2.4-1.2-3.3-2.3s-1.3-2.3-1.3-3.8c0-2.2.8-3.8 2.4-4.9s4-1.6 7.3-1.6c2.3 0 4.5.3 6.5.8.9.2 1.7.5 2.4.8v8c0 1.5-.8 2.5-2.3 3M240.1 94.9c-.6-.3-1.3-.6-2-.9-1.7-.7-3.4-1.1-5.1-1.3s-3.1-.3-4.1-.3c-7.4 0-13 2.2-16.6 6.5-3.7 4.3-5.5 10.2-5.5 17.7 0 5 .6 9.1 1.9 12.4 1.2 3.3 3 5.8 5.2 7.7 2.2 1.8 4.8 3.1 7.7 3.9s6 1.2 9.2 1.2q3.9 0 7.5-.9c2.5-.6 4.7-1.3 6.7-2.3 2-.9 3.7-2.2 4.9-3.8 1.3-1.6 1.9-3.4 1.9-5.5v-55h-11.7zm0 33.3c0 1.1-.8 2-2.5 2.6-1.7.7-3.8 1-6.3 1-3.2 0-5.7-.7-7.6-2-1.8-1.3-3.1-3.1-3.8-5.3s-1.1-4.8-1.1-7.7c0-3.4.4-6.2 1.3-8.4q1.35-3.3 4.2-4.8c1.9-1 4.2-1.5 7-1.5 1.4 0 2.9.2 4.4.6 1.6.4 3 1 4.4 1.8zM292.7 94.9c-.6-.3-1.3-.6-2-.9-1.7-.7-3.4-1.1-5.1-1.3s-3.1-.3-4.1-.3c-7.4 0-13 2.2-16.6 6.5-3.7 4.3-5.5 10.2-5.5 17.7 0 5 .6 9.1 1.9 12.4 1.2 3.3 3 5.8 5.2 7.7 2.2 1.8 4.8 3.1 7.7 3.9s6 1.2 9.2 1.2q3.9 0 7.5-.9c2.5-.6 4.7-1.3 6.7-2.3 2-.9 3.7-2.2 4.9-3.8 1.3-1.6 1.9-3.4 1.9-5.5v-55h-11.7zm0 33.3c0 1.1-.8 2-2.5 2.6-1.7.7-3.8 1-6.3 1-3.2 0-5.7-.7-7.6-2-1.8-1.3-3.1-3.1-3.8-5.3s-1.1-4.8-1.1-7.7c0-3.4.4-6.2 1.3-8.4q1.35-3.3 4.2-4.8c1.9-1 4.2-1.5 7-1.5 1.4 0 2.9.2 4.4.6 1.6.4 3 1 4.4 1.8zM346.6 93.7l-11.2 32.7-11.3-32.7h-13.4l18.8 46.3c-.3 1.1-.7 2.1-1 3q-1.2 2.55-3 3.9c-1.2.9-2.6 1.3-4.3 1.3-.9 0-1.8-.1-2.6-.3-.8-.1-1.6-.4-2.5-.7v9.8c.9.4 2 .7 3.3 1 1.2.3 2.5.4 3.9.4q3 0 6-1.5c2-.9 3.9-2.6 5.8-5 1.8-2.4 3.6-5.7 5.2-9.8l18.8-48.4z" style="fill:#19216c;fill-rule:nonzero" transform="translate(-47 -46.5)"/><path d="M360.3 128.5h12.2v11.9h-12.2z" style="fill:url(#d);fill-rule:nonzero" transform="translate(-47 -46.5)"/><path d="M386.8 86.7V77h12.3v9.7zm.3 53.7V94.2h11.8l.1 46.2zM429.8 141.8c-7.7 0-13.5-2.1-17.3-6.4s-5.7-10.4-5.7-18.4c0-8.6 2-14.9 5.9-18.8s9.6-5.8 17.1-5.8q7.8 0 12.9 2.7c3.4 1.8 6 4.6 7.7 8.2s2.6 8.2 2.6 13.7c0 8-2 14.2-6 18.4s-9.7 6.4-17.2 6.4m0-9.7c2.7 0 4.9-.6 6.6-1.9 1.7-1.2 2.9-3 3.7-5.3q1.2-3.45 1.2-8.1c0-3.5-.4-6.4-1.2-8.6s-2.1-3.9-3.8-4.9-3.9-1.6-6.5-1.6c-2.7 0-4.9.6-6.6 1.7s-2.9 2.8-3.6 5-1.1 5-1.1 8.4c0 4.9.9 8.6 2.6 11.3 1.8 2.7 4.6 4 8.7 4" style="fill:#19216c;fill-rule:nonzero" transform="translate(-47 -46.5)"/><defs><linearGradient id="a" x1="0" x2="1" y1="0" y2="0" gradientTransform="rotate(45 -63.447 86.678)scale(124.4128)" gradientUnits="userSpaceOnUse"><stop offset="0" style="stop-color:#3ae7e1;stop-opacity:1"/><stop offset=".95" style="stop-color:#1993d2;stop-opacity:1"/><stop offset="1" style="stop-color:#1993d2;stop-opacity:1"/></linearGradient><linearGradient id="b" x1="0" x2="1" y1="0" y2="0" gradientTransform="rotate(45 -20.682 104.392)scale(124.4128)" gradientUnits="userSpaceOnUse"><stop offset="0" style="stop-color:#3ae7e1;stop-opacity:1"/><stop offset=".95" style="stop-color:#1993d2;stop-opacity:1"/><stop offset="1" style="stop-color:#1993d2;stop-opacity:1"/></linearGradient><linearGradient id="c" x1="0" x2="1" y1="0" y2="0" gradientTransform="rotate(45 -63.5 86.656)scale(124.4128)" gradientUnits="userSpaceOnUse"><stop offset="0" style="stop-color:#3ae7e1;stop-opacity:1"/><stop offset=".95" style="stop-color:#1993d2;stop-opacity:1"/><stop offset="1" style="stop-color:#1993d2;stop-opacity:1"/></linearGradient><linearGradient id="d" x1="0" x2="1" y1="0" y2="0" gradientTransform="rotate(90 119.106 247.294)scale(12.8889)" gradientUnits="userSpaceOnUse"><stop offset="0" style="stop-color:#3ae7e1;stop-opacity:1"/><stop offset=".95" style="stop-color:#1993d2;stop-opacity:1"/><stop offset="1" style="stop-color:#1993d2;stop-opacity:1"/></linearGradient></defs></svg>