<svg xmlns="http://www.w3.org/2000/svg" viewBox="0 0 500 500"><path fill="#c20060" d="m446.7 358 1.4-2c.2-.3.6-.5 1-.5h42c.5 0 1 .4 1.2.9a136 136 0 0 1 7.7 37.7 1.5 1.5 0 0 1 0 .5c-4.1 11.4-16.8 51.2-71.1 78.7a187 187 0 0 1-95.2 18 312.4 312.4 0 0 1-121.9-34.6 418.2 418.2 0 0 1-114.6-85c-32-33.6-57-70.8-73.6-108.5A262.8 262.8 0 0 1 0 157.6C0 18.2 130.2 8.6 156.8 8.4c124.4-1.2 195.1 74 195.1 74a1.3 1.3 0 0 1-1.9 1.9S262.5 3.5 142.8 20c-29 4-54.4 15-73.3 33.6-24.7 24.3-34.4 58-30.7 95.2 5.5 56 41.6 120 102.7 172 61 52 133.5 80.2 195.2 81.2 40.8.7 77-10.6 101.8-35a104.1 104.1 0 0 0 8-9h.2z"/><path fill="#0045a0" d="m139 287 82-174a53.7 53.7 0 0 1 49.2-30.8h4.8c23.4.4 40 12.6 46 39.5l47.2 209.6h-69.3l-8.4-47.7h-84l-16.3 39c-34-18.8-51.1-35.5-51.1-35.5zm126.8-142.3-36.3 85.7h51.1z"/></svg>