<svg xmlns="http://www.w3.org/2000/svg" width="500" height="500" fill-rule="evenodd" stroke-linejoin="round" stroke-miterlimit="2"><path d="m446.68 358.01 1.37-1.92c.24-.36.65-.58 1.1-.58h41.87c.57 0 1.08.35 1.26.89 4.06 11.14 7.41 26.54 7.72 37.68a1.5 1.5 0 0 1-.08.49c-4.05 11.45-16.7 51.22-71.03 78.76-26.48 13.42-58.77 19.9-95.19 17.92-37.82-2.06-79.34-13.19-121.9-34.5-43.22-21.64-82.11-51.05-114.6-85.1-32.03-33.59-56.97-70.77-73.61-108.45C7.55 226.88 0 190.84 0 157.55 0 18.23 130.18 8.68 156.84 8.42 281.21 7.17 351.9 82.38 351.9 82.38c.49.52.49 1.35-.02 1.86s-1.35.53-1.87.04c0 0-87.55-80.83-207.17-64.17-29.07 4.04-54.47 15.08-73.3 33.6-24.75 24.33-34.47 58.01-30.77 95.16 5.55 56.1 41.6 120.04 102.69 171.99 61.12 51.98 133.56 80.21 195.2 81.23 40.88.67 77-10.63 101.8-35.01a104.11 104.11 0 0 0 8.06-8.9l.16-.17z" fill="#c20060"/><path d="m139.09 287.07 81.82-174a53.69 53.69 0 0 1 49.27-30.84l4.83.03c23.4.3 40.04 12.57 46.08 39.47l47.07 209.6h-69.28l-8.41-47.69h-83.9l-16.33 39.05c-34.06-18.85-51.15-35.62-51.15-35.62zm126.66-142.33-36.27 85.64h51.17z" fill="#0045a0" fill-rule="nonzero"/></svg>