<svg xmlns="http://www.w3.org/2000/svg" version="1.1" id="Layer_1" x="0" y="0" width="73.041" height="73.041" xml:space="preserve"><style type="text/css" id="style966">.st0{fill:#2350a0}</style><g id="XMLID_1553_" transform="translate(-.06 1.246)"><path id="XMLID_1560_" d="M48.5 53.9c-.5 1.9-1.6 3.5-3.1 4.8-1.6 1.3-3.7 2.4-6.2 2.9-2.6.6-5.4.6-8.3.3-2.9-.4-5.9-1.2-8.7-2.4-2.9-1.2-5.6-2.8-8-4.6-2.4-1.8-4.5-4-6.1-6.3-1.6-2.3-2.6-4.6-3-6.8-.4-2.1-.2-4.2.5-5.9.7-1.8 1.9-3.3 3.6-4.5 1.7-1.2 3.8-2 6.3-2.5 1.3-.2 2.7-.3 4.1-.3-.3-.5-.5-.9-.6-1.3-1.8 0-3.6.1-5.3.4-3.2.5-5.9 1.6-8.1 3.1-2.2 1.5-3.7 3.5-4.6 5.7-.9 2.3-1.2 4.9-.7 7.6C.7 47 1.9 50 4 53s4.8 5.8 7.9 8.2c3.1 2.4 6.6 4.4 10.3 6 3.7 1.5 7.5 2.6 11.3 3.1 3.7.5 7.4.3 10.7-.5 3.3-.8 5.9-2.1 7.9-3.9 1.9-1.8 3.2-3.9 3.8-6.3.6-2.3.5-4.8-.2-7.4h-6.8c-.1.5-.2 1.1-.4 1.7z" fill="#c03"/><g id="XMLID_1554_"><path id="XMLID_1559_" class="st0" d="M22 16.6c.6-2.7 1.7-11.6 7.3-15.1-9-4.8-15.1 2-12.5 16.8.3 2 4.5 1.2 5.2-1.7z"/><path id="XMLID_1558_" class="st0" d="M43.4 20.6c.4 1.6.5 3 .5 3 1.6.1 4.5.2 5.4.3 0-.1 0-.2.1-.2.1-.2.2-.5.4-.7-.3-.3-.6-.8-.8-1.1-.1-.1 0-.7.3-1.5-1.5-.1-4.3.1-5.9.2z"/><path id="XMLID_1557_" class="st0" d="M73.1 18.8s-9.5.6-12.6.8l-1.4.5.4-.7c-.5-.3-1.5-.7-2.8-1-.2 0-.3 0-.6.2-.4-.2-1-.3-1.3-.3-.3 0-.4.1-.6.4-.3-.1-.7-.2-1-.2-.2 0-.4.1-.6.4-.3-.1-.6-.2-.9-.2h-.1c-.4.2-.9.7-1.3 1.6-.3.7-.4 1.1-.3 1.3.3.9.5 1.2.5 1.2l-.3.3c-.1.5-.1 1.3.1 2.4.5.8 1.4 1.8 3.1 2.7H52s.9 7.6.3 11.4c-4 0-7.5-.5-9.7-1 .6-3.1 1.8-8.6 1.8-8.6l-3.4-.4.3-1.7.3-1.4c.2 0 1.7-.5 1.7-.7 0-.5-.4-2.7-.9-5.1l.6-.6.1-1.8.7.2v-.1c.7-4 1.6-15.1 1.3-17.3-.1-1-5.2-1-5.3-1C32.9.1 26.1 5 23.4 16.6c-.4 1.4-1.3 3.1-4.4 3.1-1.4 0-1.7-.4-1.7-.4s3.6 4.2 13.5-.5c6.5-3 10.2-.4 10.2-.4s.2.4.3 1l-1 .9s1.1 1.8 1.7 5.1c-.2.1-2.2.2-2.2.2s.2.4.6.8c0 .2-.2 1.8-.2 1.8l-.4 1.3s.8.7.7 1.5c-.2.9-.8 2-1.5 2-2.4 0-6.3-1.3-8-2-.2-.1-1.7 2.7-3.4 12.4.3-9.1-1.3-17.5-1.3-17.5s-2.6.2-3.1-3.8c-.9 0-2.2-.3-3.6-.9 0 1.9.5 5.6 3.1 8l-5.3 1.1.8 7.6S14 39.2 6.6 40.5c0 .1 0 .2.1.4.3 1.9 1.2 3.8 2.6 5.8 1.4 2 3.2 3.8 5.3 5.4 2.1 1.6 4.4 2.9 6.9 4 2.5 1 5 1.7 7.5 2.1 2.5.3 4.9.3 7.2-.2 2.2-.5 4-1.4 5.4-2.5 1.3-1.1 2.2-2.5 2.6-4 .1-.6.2-1.1.3-1.2h14.1c4.7 0 4.8-22 4.8-22h-2c-.3-2.5-.4-3.3-.4-3.3l10 .6z"/><path id="XMLID_1556_" class="st0" d="M38.2 21.8c.3-.3.4-.9.3-1.5l.5-.1.2-.7c-2.4-1.6-4.1 1.2-4.1 1.2l1.6-.3c-.3 1.2.9 2.1 1.5 1.4z"/><path id="XMLID_1555_" class="st0" d="M40.4 27.4l-2.7.3s1.4 1.5 2.6.6c.7-.5.7-.4.7-.4z"/></g></g></svg>