<svg xmlns="http://www.w3.org/2000/svg" viewBox="0 0 70 70"><path fill="#d0271d" d="M44 35a9.1 9.1 0 0 1-9.1 9.1h-3.5v-4h3.5a5.1 5.1 0 1 0 0-10.2h-3.5v-4h3.5A9.1 9.1 0 0 1 44 35m-19.4-9.1v7.4h-6.3l-2.3 4h12.6V25.9zM70 31.6a12.5 12.5 0 0 1-12.5 12.5v6.8H46.7v-5.3a15.6 15.6 0 0 1-11.9 5.3H24.6v-6.8h-8l-4 6.8H0l18.5-31.8h16.4a16.3 16.3 0 0 1 11.9 5.3v-5.3h10.8A12.5 12.5 0 0 1 70 31.6M34.9 46.9a12 12 0 0 0 10.8-6.8h5.1v6.8h2.8v-6.8h4a8.5 8.5 0 0 0 8.5-8.5 8.6 8.6 0 0 0-8.6-8.5h-6.8v10.2h-4a12 12 0 0 0-11.8-10.2h-14L7 46.9h3.3l4-6.8h14.3v6.8zm22.6-21h-4v4h4a1.7 1.7 0 0 1 1.7 1.7 1.8 1.8 0 0 1-1.7 1.7h-4v4h4a5.7 5.7 0 0 0 5.7-5.7 5.8 5.8 0 0 0-5.7-5.7"/></svg>
