<svg xmlns="http://www.w3.org/2000/svg" viewBox="0 0 70 31.8"><path fill="#d0271d" d="M44 15.9a9.1 9.1 0 0 1-9.1 9.1h-3.5v-4h3.5a5.1 5.1 0 1 0 0-10.2h-3.5v-4h3.5a9.1 9.1 0 0 1 9.1 9.1M24.6 6.8v7.4h-6.3l-2.3 4h12.6V6.8ZM70 12.5A12.5 12.5 0 0 1 57.5 25v6.8H46.7v-5.3a15.6 15.6 0 0 1-11.9 5.3H24.6V25h-8l-4 6.8H0L18.5 0h16.4a16.3 16.3 0 0 1 11.9 5.3V0h10.8A12.5 12.5 0 0 1 70 12.5M34.9 27.8A12 12 0 0 0 45.7 21h5.1v6.8h2.8V21h4a8.5 8.5 0 0 0 8.5-8.5A8.6 8.6 0 0 0 57.5 4h-6.8v10.2h-4A12 12 0 0 0 34.9 4h-14L7 27.8h3.3l4-6.8h14.3v6.8zm22.6-21h-4v4h4a1.7 1.7 0 0 1 1.7 1.7 1.8 1.8 0 0 1-1.7 1.7h-4v4h4a5.7 5.7 0 0 0 5.7-5.7 5.8 5.8 0 0 0-5.7-5.7"/></svg>
