<svg xmlns="http://www.w3.org/2000/svg" data-name="Layer 1" width="70" height="70"><path d="M44 35a9.13 9.13 0 01-9.1 9.1h-3.5v-4h3.5a5.1 5.1 0 100-10.2h-3.5v-4h3.5A9.13 9.13 0 0144 35m-19.4-9.1v7.4h-6.3l-2.3 4h12.6V25.9zM70 31.6a12.5 12.5 0 01-12.5 12.5v6.8H46.7v-5.3a15.64 15.64 0 01-11.9 5.3H24.6v-6.8h-8l-4 6.8H0l18.5-31.8h16.4a16.32 16.32 0 0111.9 5.3v-5.3h10.8A12.48 12.48 0 0170 31.6M34.9 46.9a11.93 11.93 0 0010.8-6.8h5.1v6.8h2.8v-6.8h4a8.49 8.49 0 008.5-8.5 8.58 8.58 0 00-8.6-8.5h-6.8v10.2h-4a12 12 0 00-11.8-10.2h-14L7 46.9h3.3l4-6.8h14.3v6.8zm22.6-21h-4v4h4a1.69 1.69 0 011.7 1.7 1.75 1.75 0 01-1.7 1.7h-4v4h4a5.7 5.7 0 005.7-5.7 5.76 5.76 0 00-5.7-5.7" fill="#d0271d"/></svg>