<svg xmlns="http://www.w3.org/2000/svg" width="575.8" height="575.8"><path class="st0" d="M140 246.45h-22.3l28-58.1H169l12.9 58.1h-22.3l-1-7.2h-15.9zm16.8-21l-1.1-10.2c-.3-2.5-.3-5-.4-7.5h-.8l-6.2 17.7z" fill="#da392a"/><path class="st0" d="M198.1 188.35h21.7l3.9 30.5h.5c.7-2.6 1.5-5.2 2.5-7.7l9.6-22.8h21.5l1.7 58.1H239l1.4-31.8h-.4c-.6 2-1.3 3.9-2.2 5.8l-11.9 26h-12.1l-4.2-24.6c-.3-2.4-.4-4.8-.3-7.2h-.7c-.5 2.3-.9 4.7-1.5 7l-5.8 24.8h-20.4zM272.9 188.35h39l-2.1 15.9H292l-.7 5.6h16.2l-2 15.1h-16.3l-.8 5.7h18.4l-2.1 15.9H265zM318.7 188.35h25.5c13.1 0 23.4 5.5 21.5 20.2-1.2 8.8-5.1 12.5-13.3 15.1l-.1.5c1.2.9 2.3 2.1 3.1 3.5l10.1 18.9h-24.3l-6.7-18.6h-.4l-2.5 18.6H311zm17.2 25.8h1.5c3.5 0 7-.5 7.6-4.9.6-4.5-2.5-5-6.1-5h-1.6zM377.1 188.35h21.1l-7.8 58.1h-21.1zM445.1 211.95c-3-3.1-6.8-5.9-11.6-5.9-6.5.1-12 4.9-13 11.3-.9 6.4 3.9 11.3 10.3 11.3 4.8 0 9-2.1 12.8-5.4l-3.5 21.7c-3.6 1.6-11.6 2.3-15.3 2.3-16.6 0-27.8-12.9-25.5-29.4 2.3-16.9 17.4-30.5 34.5-30.5 4.7 0 9.4.8 13.8 2.4zM464.3 246.45H442l28-58.1h23.3l12.9 58.1h-22.3l-1-7.2H467zm16.8-21l-1.1-10.2c-.3-2.5-.3-5-.4-7.5h-.8l-6.2 17.7zM517.5 188.35h20.3l14.6 32.2h.6c-.4-4.9-.3-9.9.2-14.8l2.3-17.4h20.3l-7.8 58.1h-20.2l-14.5-30.5h-.6c.2 3.9.2 7.8-.3 11.6l-2.6 18.9h-20.1zM118.3 258.85h39.1l-2.1 15.9h-17.8l-.8 5.5H153l-2 15.1h-16.3l-.8 5.7h18.4l-2.1 15.9h-39.7zM163.7 258.85h21.1l-5.3 39.4h17.7l-2.5 18.6h-38.8zM208.1 258.85h39.1l-2.1 15.9h-17.8l-.8 5.5h16.3l-2 15.1h-16.3l-.8 5.7h18.4l-2.1 15.9h-39.7zM292.5 282.45c-3-3.2-6.8-5.9-11.6-5.9-6.5.1-12 4.9-13 11.3-.9 6.4 4 11.3 10.3 11.3 4.9 0 9-2.1 12.8-5.4l-3.5 21.7c-3.6 1.6-11.6 2.3-15.3 2.3-16.6 0-27.8-12.9-25.5-29.4 2.3-16.9 17.4-30.5 34.5-30.5 4.7 0 9.4.8 13.9 2.4zM299.9 258.85h44.4l-2.5 18.9-11.6-.5-5.4 39.7h-21.1l5.4-39.7-11.7.5zM348.9 258.85h25.5c13.1 0 23.4 5.6 21.5 20.2-1.2 8.8-5.1 12.5-13.3 15.1l-.1.5c1.2.9 2.3 2.1 3.1 3.5l10.1 18.9h-24.3l-6.7-18.6h-.4l-2.5 18.6h-20.6zm17.2 25.7h1.5c3.5 0 7-.5 7.6-4.9.6-4.4-2.5-5-6.1-5h-1.6zM407.2 258.85h21.1l-7.8 58.1h-21.1zM475.3 282.45c-3-3.2-6.8-5.9-11.6-5.9-6.5.1-12 4.9-13 11.3-.8 6.4 4 11.3 10.3 11.3 4.9 0 9-2.1 12.8-5.4l-3.5 21.7c-3.6 1.6-11.5 2.3-15.3 2.3-16.6 0-27.8-12.9-25.5-29.4 2.3-16.9 17.4-30.5 34.5-30.5 4.7 0 9.4.8 13.8 2.4zM108.9 329.35h26.7c13.6 0 22.6 6.9 20.7 21.3-1.6 11.9-10 19.2-21.8 19.2h-10.8l-2.4 17.5H101zm16.8 26h2.1c3.7 0 7.8-.6 8.4-5.3.6-4.5-3.7-4.8-7.1-4.8h-2zM221.6 358.55c-2.5 18.6-18.4 29.8-36.1 29.8-17.7 0-30.6-11.1-28.1-29.8 2.5-18.2 18.5-30.1 36.2-30.1 17.7 0 30.5 11.9 28 30.1zm-43 .3c-.9 6.6 3 11.2 9.4 11.2s11.5-4.5 12.4-11.2c.8-6.2-2.6-11.3-9.3-11.3-6.7 0-11.7 5.2-12.5 11.3zM243.2 329.35l2.7 34.6h.5c.8-3.6 1.9-7.2 3.2-10.7l9.3-23.9h16.2l3.3 34.6h.5c.7-3.5 1.7-6.9 2.8-10.2l9.1-24.4h22l-28.3 58.1h-18.4l-2.4-31.6h-.7c-.5 3-1.3 5.9-2.3 8.8l-8.9 22.8h-17.9l-12.5-58.1zM316.2 329.35h39l-2.1 15.9h-17.8l-.8 5.5h16.3l-2 15.1h-16.3l-.8 5.7h18.4l-2.1 15.9h-39.7zM362.1 329.35h25.5c13.1 0 23.4 5.5 21.5 20.2-1.2 8.8-5.1 12.5-13.3 15.1l-.1.5c1.2.9 2.3 2.1 3.1 3.5l10.1 18.9h-24.3l-6.7-18.6h-.4l-2.5 18.6h-20.6zm17.2 25.8h1.5c3.5 0 7-.5 7.6-4.9.6-4.4-2.5-5-6.1-5h-1.6z" fill="#da392a"/><path class="st0" fill="#da392a" d="M308.1 402.65h-15.2l-2.4 17.8H17.2l35.7-265h273.3l-2.4 17.7h15.1l4.4-32.8H39.7L0 435.45h303.7z"/></svg>