<svg xmlns="http://www.w3.org/2000/svg" viewBox="-5 -15 110 110"><path fill="#3f3f46" d="M77.785 42A3 3 0 1 1 77.783 48 3 3 0 0 1 77.785 42m-12 0A3 3 0 1 1 65.783 48 3 3 0 0 1 65.785 42m30.7 4.008-6.22-9.329A14.98 14.98 0 0 0 77.785 30H70.06L42.625 1.583A15.07 15.07 0 0 0 31.832-3h-9.899a2.998 2.998 0 0 0-2.5 4.664L38.324 30H35.93a8.99 8.99 0 0 1-7.488-4.008L18.004 10.336A3 3 0 0 0 15.504 9h-10.5a3 3 0 0 0-3 3v21c.015 14.906 12.094 26.984 27 27h9.32L19.433 88.336A3 3 0 0 0 21.929 93h9.898a15.08 15.08 0 0 0 10.793-4.582L70.058 60h18.938a9 9 0 0 0 7.489-13.992zM27.534 3h4.301a9.04 9.04 0 0 1 6.477 2.75L61.719 30H45.535zM8.005 15h5.898l9.546 14.32c.157.23.317.46.48.68H8.005zM91.64 52.414a2.95 2.95 0 0 1-2.644 1.585H68.786c-.813 0-1.594.332-2.157.915L38.31 84.25A9.05 9.05 0 0 1 31.833 87h-4.3l18.89-28.336a3 3 0 0 0-2.492-4.665H29.005C18.57 53.984 9.728 46.324 8.224 36h69.562a8.98 8.98 0 0 1 7.488 4.008l6.219 9.328c.629.918.687 2.11.148 3.078z"/></svg>