<svg xmlns="http://www.w3.org/2000/svg" version="1.1" id="Capa_1" x="0" y="0" xml:space="preserve" width="24.943" height="24.943"><style type="text/css" id="style898"></style><path d="M11.813 13.607c-3.48.6-8.21 1.05-11.78 2.12-.05.02-.04.04.01.04 8.6-.26 17.9-.21 24.86.02l.04-.05c-.17-.82-.8-1.75-2.73-1.74h-1.11l-.02.03c.31.79-.57 1.31-1.13.83-.24-.2-.48-.7.13-1.13a42.3 42.3 0 011.57-1.04c1.47-.93 1.27-2.27-.69-2.42-4.72-.36-13.16-.84-16.49-1.11-.08-.01-.12.05-.07.08 2.76 1.49 5.27 1.63 8.02 2.66 1.57.58 1.26 1.38-.61 1.71" id="path914" fill="#007ac2"/></svg>