<svg xmlns="http://www.w3.org/2000/svg" viewBox="0 0 28.19 28.19" style="background:#000;fill:#fff"><path d="M4.02 9.03.31 17.79h7.55zM-.4 19.58c-.71 1.63-2.12 4.79-3.29 9.27-.42-.07-.77-.2-1.46-.2s-1.1.13-1.57.2c3.17-6.87 8.4-18.41 10.91-24.79.29.04.51.11.88.11.31 0 .51-.04.77-.11 2.71 7.44 10.55 24.65 10.62 24.79-.6-.11-1.21-.2-2.1-.2-.93 0-1.59.11-2.27.2-1.24-4.24-2.69-7.33-3.58-9.27zm31.74-.82c0-1.17 0-5.87-4.24-5.87-3.09 0-4.57 2.34-4.9 5.87zm-9.16 1.48c0 .99 0 3 .95 4.64a5.39 5.39 0 0 0 4.97 2.76c3.47 0 5.1-2.12 5.63-2.87l.42.09c-.22.99-.22 1.57-.24 2.12-1.57 1.48-3.71 2.32-6.58 2.32-5.39 0-8.67-3.4-8.67-8.85 0-4.88 2.69-8.98 8.5-8.98 7.9 0 7.79 6.86 7.75 8.78H22.2Zm.2-13.2h9.78v1.1h-9.78"/></svg>
