<svg xmlns="http://www.w3.org/2000/svg" viewBox="0 0 36 36"><path fill="#E1E1E1" d="M.31 10.44v14.19c0 2.1 0 3.16.18 4.03a8.9 8.9 0 0 0 6.95 6.95c.87.18 1.93.18 4.03.18H24.5c3.16 0 4.74 0 6-.44a8 8 0 0 0 4.96-4.95c.44-1.27.44-2.85.44-6V10.44c0-1.24 0-1.86-.06-2.38a8.9 8.9 0 0 0-7.8-7.79C27.52.21 26.9.21 25.66.21H10.48c-3.05 0-4.58 0-5.79.47A6.9 6.9 0 0 0 .8 4.6C.3 5.8.3 7.34.3 10.43Z"/><rect width="31.13" height="31.13" x="1.2" y="1.1" fill="#fff" rx="6.67"/><path d="M17.28 28.1c3.9 0 6.53-1.9 7.14-4.83L20.38 23c-.44 1.2-1.57 1.83-3.03 1.83-2.18 0-3.57-1.45-3.57-3.8v-.01h10.74v-1.2c0-5.36-3.25-8-7.41-8-4.64 0-7.65 3.29-7.65 8.15 0 5 2.97 8.12 7.82 8.12Zm-3.5-9.79a3.33 3.33 0 0 1 3.4-3.23 3.1 3.1 0 0 1 3.22 3.23h-6.62Zm1.65-8.32h3.1l3.12-4.68h-4.04l-2.18 4.67Z"/></svg>