<svg xmlns="http://www.w3.org/2000/svg" width="118.577" height="118.577" viewBox="0 0 88.933 88.933"><defs><clipPath id="a"><path d="M0 0h89v85.352H0zm0 0"/></clipPath></defs><g clip-path="url(#a)" transform="translate(0 1.79)"><path d="M45.582 80.316c-.16.383-.875.407-1.09.407H4.711L38.836 5.836c.348-.715.738-.957 1.539-.957h17.453c.356 0 .836.207 1.043.644l9.375 21.512.192.442c.128.304.183.5.183.699 0 .215-.074.472-.219.797l-.058.12C67.46 31.11 52.207 65.423 47.195 76.7zm38.824-16.421c0 .71-.168 1.28-.52 1.765-.472.695-1.288 1.14-2.073 1.14l-25.254.013 14.707-33.094 7.058 15.625c3.528 7.812 5.696 12.61 5.719 12.656.242.66.363 1.3.363 1.895M72.367 25.133L62.973 3.578c-1.008-2.14-3.075-3.582-5.145-3.582H40.375c-2.441 0-4.434 1.363-5.605 3.848L.45 79.137c-.657 1.597-.59 3.148.175 4.36.738 1.179 2.043 1.855 3.586 1.855h40.281c2.395 0 4.352-1.172 5.23-3.137l4.778-10.77 27.105-.03c.102.003.211.007.317.007 2.164 0 4.332-1.18 5.652-3.074 1.524-2.16 1.778-4.989.703-7.996" fill="#0075a8"/></g></svg>