<svg xmlns="http://www.w3.org/2000/svg" viewBox="0 0 108.92 94.84"><defs><clipPath id="a" clipPathUnits="userSpaceOnUse"><path d="M45.77 794.27H29.84c-.26-.59-.37-.56-.66-1.19l-.9-1.62h.9c1.16 0 1.99-.2 2.5-.6.5-.39.75-1.03.75-1.9 0-.86-.21-1.48-.63-1.9-1.87.42-3.4 1.11-4.7 2.28a8.34 8.34 0 0 0-2.61 3.85l5.47 11.86c1.75.97 3.5 1.06 4.88 1.12l.5-.01-2.04-4.26a7 7 0 0 1-2.14-.7c-1.1-.54-2.1-2.67-2.1-2.67h2.7l2.46.02 3.18-.02h4.1a7 7 0 0 1-2.66 2.67c-.4.2-.93.57-1.4.7l-2.09 4.26a9.34 9.34 0 0 0 3.84-.76c1.22-.55 1.09-.47 2.08-1.22l3.9-8.6.6-1.3" clip-rule="evenodd"/></clipPath><clipPath id="b" clipPathUnits="userSpaceOnUse"><path d="M0 841.89h595.28V0H0Z"/></clipPath><clipPath id="c" clipPathUnits="userSpaceOnUse"><path d="M.06 841.98h595.32V.06H.06Z"/></clipPath><clipPath id="d" clipPathUnits="userSpaceOnUse"><path d="M23.49 807.17h23.28v-21.1H23.5Z"/></clipPath><linearGradient id="e" x1="0" x2="23.29" y1="10.55" y2="10.55" gradientTransform="matrix(1 0 0 -1 23.49 807.17)" gradientUnits="userSpaceOnUse" spreadMethod="pad"><stop offset="0" stop-color="#fff"/><stop offset="1" stop-color="#404c82"/></linearGradient></defs><path fill="#f3681f" fill-rule="evenodd" d="M24.31 0c-2.06.03-3.01.2-4.3 1.26-1.71 1.42-2.57 2.86-2.57 6.06 0 3.13.86 5.4 2.6 6.81 1.73 1.41 4.59 1.26 8.57 1.26l11.14-.17-4.3 9.26a45.73 45.73 0 0 1 17.51-3.33c6.57 0 12.59 1.08 18.05 3.26a27.8 27.8 0 0 1 4.24 2.13l-7.44-16.8L63.2.08 59.54 0H24.3zm24.7 36.5c-2.55.26-4.92.76-7.1 1.5h6.4zm12.16.51.51 1h3.2a30.4 30.4 0 0 0-3.7-1zm-30.5 30.66c.29.63.54 1.2.79 1.7l.36-1.7zm46.25 0 3.02 8.43-3.16.48c-4.11 1.44-5.25 1.78-5.78 2.06 2.3-.23 4.75-.63 7.4-1.31 4.08-1.06 6.9-1.58 8.47-1.58 2.15 0 3.96-.95 5.43.58 1.48 1.53 2.39 2.6 2.39 4.91 0 2.1-.28 3.9-1.85 5.36-2.08 1.96-7.2 3.82-15.33 5.59-2.11.45-4.2.85-6.27 1.2l.5.15H97.9c3.93 0 6.76-.7 8.46-2.12 1.71-1.42 2.56-3.23 2.56-6.46 0-2.9-.98-4.59-2.6-6.09-1.63-1.5-2.29-.71-5.42-.71l-3.03-.52-4.41-9.97zm-63.19 3.56-3.05 6.58-1.48.35c-3.12 0-5.49.06-7.1 1.57-1.63 1.5-2.1 3.7-2.1 6.6 0 3.23.5 4.18 2.2 5.6 1.7 1.42 4.58 1.61 8.63 1.61H33.5c2.42 0 4.42-.07 6-.45a39.05 39.05 0 0 1-16.37-8.62 34.23 34.23 0 0 1-9.4-13.24z"/><path fill="#103d6b" fill-rule="evenodd" d="m91.83 60.09-.1 5.75H30.4a18.68 18.68 0 0 0 8.38 8.78c4.01 2.14 9.45 3.21 16.3 3.21 5.62 0 13-1.17 22.14-3.53 3.77-.97 6.37-1.46 7.82-1.46 1.98 0 3.65.7 5 2.12a7.38 7.38 0 0 1 2.04 5.32c0 1.94-.72 3.58-2.17 4.93-1.93 1.8-6.64 3.52-14.13 5.15-7.5 1.63-14.7 2.45-21.6 2.45-11.9 0-21.4-3.19-28.52-9.56-7.12-6.36-10.68-14.2-10.68-23.5 0-9.9 3.2-18.03 11.55-25.54 8.35-7.5 18.29-10 28.34-10 6.05 0 9.88 1.85 14.92 3.85 5.04 2 8.8 5.37 11.26 7.7a40.5 40.5 0 0 1 8.62 12.47c1.55 3.46 2.16 11.86 2.16 11.86Zm-62.46-8.93H77c-2.4-3.9-5.51-8.35-9.37-10.28-3.85-1.94-6.17-2.56-12.73-2.56-5.84 0-11.74.97-15.6 2.9-3.85 1.93-9.93 9.94-9.93 9.94"/><g clip-path="url(#a)" transform="matrix(3.52778 0 0 -3.52778 -70 2868.08)"><g clip-path="url(#b)"><g clip-path="url(#c)"><g clip-path="url(#d)"><path fill="url(#e)" d="M.06 841.98h595.32V.06H.06Z"/><path fill="#00f" fill-rule="evenodd" d="M13.31 815.66h1.37v-4.78h-1.37z"/></g></g></g></g></svg>