<svg xmlns="http://www.w3.org/2000/svg" xmlns:xlink="http://www.w3.org/1999/xlink" viewBox="0 0 288.9 239.6"><defs><linearGradient id="a" x1="79.7" x2="17.9" y1="685.6" y2="750.9" gradientTransform="matrix(1.43 0 0 -1.69 4 1331.1)" gradientUnits="userSpaceOnUse"><stop offset="0" stop-color="#72cdde"/><stop offset=".6" stop-color="#54c6da"/><stop offset=".6" stop-color="#49c5dc"/><stop offset=".7" stop-color="#03bfe4"/><stop offset=".8" stop-color="#1096d4"/><stop offset=".9" stop-color="#2d62ae"/><stop offset="1" stop-color="#263d98"/></linearGradient><linearGradient xlink:href="#a" id="b" x1="37.9" x2="-4.7" y1="541.3" y2="560.6" gradientTransform="matrix(2.56 0 0 -.95 12.2 740.4)"/><linearGradient xlink:href="#a" id="c" x1="183.8" x2="164.1" y1="741" y2="789" gradientTransform="matrix(.83 0 0 -2.93 -.5 2308.5)"/><linearGradient xlink:href="#a" id="d" x1="169.9" x2="206.2" y1="722.7" y2="774" gradientTransform="matrix(1.12 0 0 -2.17 1.6 1710.6)"/><linearGradient xlink:href="#a" id="e" x1="149.3" x2="185.1" y1="686.8" y2="724.2" gradientTransform="matrix(1.51 0 0 -1.6 4.5 1261)"/></defs><path fill="url(#a)" d="M29.7 61a13.4 13.4 0 0 1 18.7 2l71.9 89.6a13.3 13.3 0 0 1-20.8 16.7L27.6 79.7a13.3 13.3 0 0 1 2-18.7Z"/><path fill="url(#b)" d="M.2 210.3a13.3 13.3 0 0 1 15.3-11l83.2 13.9a13.3 13.3 0 1 1-4.4 26.3l-83.2-14a13.3 13.3 0 0 1-11-15.3Z"/><path fill="url(#c)" d="M135.5 0a13.4 13.4 0 0 1 14.8 11.8l13.2 114a13.3 13.3 0 1 1-26.4 3.1L123.8 15A13.3 13.3 0 0 1 135.5 0Z"/><path fill="url(#d)" d="M232 30.5a13.3 13.3 0 0 1 8 17l-31.5 86.3a13.3 13.3 0 1 1-25-9.1L215 38.4a13.4 13.4 0 0 1 17-8Z"/><path fill="url(#e)" d="M284.6 100.2a13.3 13.3 0 0 1 .9 18.8L249 159a13.3 13.3 0 0 1-19.7-17.8l36.4-40.1a13.3 13.3 0 0 1 18.8-1Z"/></svg>