<svg xmlns="http://www.w3.org/2000/svg" width="85.4" height="85.4" aria-label="Aha!"><path d="M9.5 51.2L8 57.9c0 .2-.2.3-.4.3H.4c-.1 0-.3-.1-.3-.2-.1-.1-.1-.2-.1-.3l9.5-28.8s.2-.5.8-.7c2.1-.4 5.4-.9 7.7-1.3.5-.1.7.4.7.4L28 57.9c0 .1 0 .2-.1.3-.1.1-.2.1-.3.1h-4.2c-1.1 0-3.3.1-4.1.1-.2 0-.4-.1-.4-.3l-1.5-6.8zm6.7-5.9c-.6-2.4-1.5-6.7-2.4-10.4-.6 2.6-2 7.9-2.7 10.4zm21.3-7.1c5.1-3.5 9.4-2.7 11.5-.6 2.5 2.6 1.1 6 1.9 20.3 0 .1 0 .2-.1.3-.1.1-.2.1-.3.1-.8 0-2.3-.1-3-.1-1.2 0-3.7.1-4.7.1-.1 0-.2 0-.3-.1-.1-.1-.1-.2-.1-.3.1-14 .2-15.9-2.3-15.9-.9 0-1.6.4-2.4.7 0 7.2.1 9.3.4 15.1 0 .1 0 .2-.1.2-.1.1-.2.1-.2.1l-8 .1c-.1 0-.2 0-.2-.1-.1-.1-.1-.2-.1-.2.2-20.9 0-25.2-.6-29.6-.3-.2.1-.2.1-.2 3.6-.5 3.9-.6 8-1.4 0 0 .4 0 .4.5.1 3.1.1 11 .1 11zm27.4 17.9c-1.5 1.1-4.4 2.6-6.8 2.6-3.7 0-6-2.7-6-6.7 0-6.2 7.3-8 12.5-8.7.1-1 .1-2.1-2.5-2.1s-4.8.8-7.1 1.7c-.1.1-.3 0-.4 0-.1-.1-.2-.2-.2-.4l.2-4.8c0-.2.1-.3.3-.4 4.7-1.4 12.7-2.5 16 .6 2.1 1.9 2 4.3 1.9 8.3-.1 5.8 0 7.4.3 11.7 0 .1 0 .2-.1.3-.1.1-.2.1-.3.1l-7.4.1c-.1 0-.2 0-.3-.1-.1-.1-.1-.2-.1-.3zm-.2-8.3c-1.9.2-4.8.4-4.8 2.9 0 2.2 2.4 2.9 4.8 1.4zm13.4.1c-.2 0-.4-.2-.4-.4-.5-10.9-.6-12.1-1.2-18.9 0-.2.1-.4.4-.5l8-1.3c.1 0 .3 0 .4.1.1.1.1.2.1.4-.5 4.9-1 14.2-1.1 20.1 0 .2-.2.4-.4.4zm-1.396 9.284c-.004-.034-.004-.067-.004-.1 0-1.357.034-2.748.043-3.953A21.755 21.755 0 0076.7 51.8c0-.069 0-.138.032-.206a16.278 16.278 0 00-.032-.688c0-.1 0-.202.101-.303.102-.102.203-.102.304-.102 2.025.203 5.57.102 7.19-.101.101 0 .202 0 .304.101.101.102.101.203.101.304 0 .268-.001.534-.004.796a.914.914 0 01.004.099v6.2c0 .1 0 .2-.1.3-.1.1-.2.1-.3.1-2.9-.1-4.7-.1-7.2.1-.1 0-.2 0-.3-.1-.1-.1-.1-.2-.1-.3 0-.27.001-.543.004-.816z" fill="#0073cf"/></svg>