<svg xmlns="http://www.w3.org/2000/svg" width="554.667" height="320" version="1.0" viewBox="0 0 520 300"><path d="M0 0h520v300H0z" style="opacity:1;fill:#df1d25;fill-opacity:1;stroke:none;stroke-width:.354331;stroke-linecap:round;stroke-linejoin:round;stop-color:#000"/><path d="M378.34 127.63c5.26-1.46 11.07-1.32 16.13.84 3.26 1.51 6.3 4.72 5.94 8.56-.5 3.61-2.49 6.87-4.97 9.47-1.41 1.57-3.81 1.46-5.67.92-2.35-2.68-3.61-6.98-7.62-7.6-3.68.09-7.61 1.87-9.1 5.42-1.98 4.55-1.72 10.23 1.34 14.25 3.31 4.75 7.93 9.09 8.68 15.12.88 9.83-3.24 20.37-11.64 25.91-6.81 4.55-15.28 7.26-23.49 5.89-5.59-1.12-11.39-4.15-13.69-9.65-2.16-4.41.85-9.01 2.58-13.02 1-2.14 2.79-5.92 5.72-4.06 3.77 3.72 7.53 7.94 12.91 9.23 3.15 1.08 7.65-.48 8.33-4.01.13-3.88-3.19-6.54-5.1-9.57-5.09-6.86-5.31-16.22-2.52-24.04 3.67-10.44 11.47-20.02 22.17-23.66zm92.88-15.67c4.03-1.95 9.52-2.53 12.98.86 2.4 1.94 2.8 5.19 4.44 7.64 3.02 2.42 7.51 2.91 9.67 6.42.59 2.43-.44 4.81-1.57 6.91-4.73 8.1-9.43 16.3-12.84 25.07-.62 2.12-1.52 5.25.9 6.59 2.68.51 4.56-1.73 6.34-3.32 4.38-4.13 7.4-9.36 10.69-14.33 1.22-2.08 3.8-2.83 6.06-2.16 1.5.99 1.73 2.85 1.02 4.42-2.86 8.03-8.1 14.89-13.51 21.37-4.89 5.46-10.46 10.78-17.6 13.06-3.43 1.13-7.49 1.45-10.57-.76-2.77-1.9-3.24-5.48-4.21-8.43-5.3 4.85-9.73 10.98-16.47 13.98-5.17 2.53-12.47 2.25-16.15-2.69-3.08-3.78-3.21-8.85-3-13.49-5.68 8.21-11.98 16.21-20.04 22.21-3.71 2.84-8.81 4.48-13.33 2.74-4.45-2.09-5.67-7.54-5.3-12.03.62-10.26 5.31-19.66 9.57-28.82 5.05-11.12 12.06-21.36 15.72-33.1 3.94-4.67 12.19-6.56 17-2.08 2.39 2.06 2.12 5.7 1.2 8.41-6.64 13.17-14.75 25.58-20.86 39.02-.92 1.97-1.07 4.15-1.25 6.28 4-.28 6.63-3.8 9.11-6.55 10.94-13.74 20.63-28.49 32.34-41.6 5.76-6.09 12.05-11.95 19.66-15.62m.76 16.99c-9.95 8.97-16.7 20.86-22.38 32.84-1.52 3.81-4.31 8.18-1.86 12.2 6.06-1.53 9.79-6.99 13.51-11.58 6.79-9.33 12.45-19.52 16.79-30.21.51-1.93 1.95-4.73-.07-6.2-2.39-.23-4.29 1.55-5.99 2.95zM179.4 95.6c4.3-2.04 10.78-1.29 12.86 3.51 3.22 8.2-4.22 17.17-12.31 18.35-4.37.88-9.28-1.77-10.24-6.26-1.18-6.69 3.65-13.18 9.69-15.6zm253.99-8.86c4.65-2.19 11.46-.72 12.99 4.7 2.41 9.55-7.85 19.22-17.26 17.05-3.25-.91-5.83-4.04-5.82-7.47-.36-6.33 4.39-12.06 10.09-14.28zm-94.02-35.33c2.73-2.3 5.82-5.41 9.7-4.78 2.51.95 3.12 3.75 4.26 5.88 1.14 2.73 3.28 4.83 4.82 7.31 1.93 3.4.75 7.4-.26 10.9-3.4 10.34-8.08 20.2-11.65 30.48-3.57 11.18-5.86 22.73-8.92 34.05 5.87-.55 12.45-2.42 17.89.72 1.42 3.93.08 9.66-4.34 11.05-5.59 2.07-11.64 2.42-17.24 4.46-3.26 16-5.15 32.22-7.03 48.43-.32 3.47-.29 7.03-1.44 10.36-1.68 4.94-8.36 6.6-12.67 4.23-3.64-2.21-5.25-6.48-5.89-10.48-.73-5.4-.34-10.88.32-16.27 1.52-10.65 3.87-21.16 6.36-31.62-9.59 2.63-19.19 5.25-28.6 8.46-12.83 24.97-25 50.43-33.91 77.1-1.81 5.22-1.89 12.65-7.78 15.08-8.93 1.69-17.11-8.5-14.11-17.03 7.53-22.58 17.82-44.13 28.5-65.36-7.59 3.13-14.99 6.75-22.11 10.87-2.37 1.57-5.73 1.54-7.9-.37-4.2-3.26-3.41-9.35-2.82-13.99 2.3-5 8.09-6.34 12.65-8.49 10.9-4.94 22.37-8.49 33.66-12.31 12.93-21.88 26.1-43.66 40.71-64.47 8.56-11.94 17.09-24.07 27.8-34.21m-43.2 92.05c7.09-1.59 14.18-3.19 21.33-4.5 5.2-19.75 11.15-39.3 18.29-58.44-14.49 20.14-27.39 41.37-39.62 62.94ZM135.54 50.67c2.46-1.95 5.17-4.51 8.56-4.1 2.89.91 3.59 4.16 4.88 6.51 1.85 3.97 6.32 7 5.57 11.88-1.3 8.83-5.77 16.77-8.69 25.13-6.29 14.44-9.25 29.97-13.13 45.16 11.68-1.9 23.4-3.75 35.19-4.82 5.51-.75 10.56 5.25 7.95 10.46-6.15 12.14-12.94 24.03-18.07 36.67-1.01 2.38-1.43 4.94-1.6 7.51 4.24-.06 6.53-4.13 9.23-6.77 11.07-12.72 20.33-27.16 26.81-42.75 1.47-2.81.64-6.92 3.78-8.66 4.2-2.57 10.16-4.8 14.62-1.58 3.42 2.62 1.29 7.1.57 10.5 3.47-4.37 7.23-8.63 11.84-11.84 5.51-4.12 13.82-.46 16.51 5.31 1.42 3.12-.91 6.18-3.25 8.04-5.15 4.29-12.26 4.22-18.2 6.82-6.47 2.3-10.83 7.92-14.7 13.31-7.77 10.76-13.88 23.22-14.87 36.63-.17 1.65-.06 3.76-1.72 4.73-3.21 2.12-6.81 4.22-10.79 4.14-2.95-.05-5.29-2.61-5.72-5.41-1.18-4 .1-8.14.64-12.11-4.45 7.44-10.02 14.35-16.75 19.85-3.62 3.17-8.75 4.38-13.39 3.01-3.36-1.75-5.02-5.61-5.29-9.23-.63-7.43 1.66-14.69 4.02-21.63 4.07-10.64 8.82-21.02 13.84-31.25-8.17 1.62-16.31 3.41-24.38 5.47-3.4 15.9-5.15 32.08-6.95 48.23-.56 4.2-.09 8.91-2.68 12.54-3.49 4.3-11.16 4.24-14.35-.42-3.55-5.2-3.76-11.88-3.38-17.96 1.08-12.69 4-25.13 6.88-37.51-9.52 2.68-19.01 5.48-28.49 8.32-7.04 13.03-13.33 26.46-19.41 39.97-6.09 14.33-12.62 28.6-16.3 43.8-1.06 3.59-3.06 8.04-7.33 8.41-8.4.19-15.28-8.98-12.77-17.03 3.23-10.79 7.81-21.11 12.27-31.44 4.95-11.52 10.5-22.76 16.24-33.9-7.62 3.11-15.05 6.65-22.27 10.6-3.19 2.07-7.74 1.32-10.04-1.71-3.52-5.51-2.83-14.49 3.74-17.44 12.62-5.79 25.69-10.65 39.02-14.57 1.19-.46 2.76-.62 3.42-1.88 15.26-26.31 31.33-52.23 49.49-76.65 6.03-7.81 12.04-15.77 19.45-22.34m-44.12 92.98c7.27-1.76 14.77-2.77 21.85-5.12 4.5-19.66 10.97-38.84 17.8-57.79-14.56 20.08-27.38 41.36-39.65 62.91Z" style="fill:#fff;stroke-width:1"/></svg>