<svg xmlns="http://www.w3.org/2000/svg" viewBox="0 0 300 300"><path fill="#E32526" d="M295.3 150.3a145 145 0 1 1-290 0 145 145 0 0 1 290 0"/><path fill="#FFF" d="M109.5 121.3c3.3-.6 5.7 1.4 5.5 4.4-.3 3-3.1 6-6.4 6.6-3.3.6-5.7-1.4-5.5-4.4.3-3 3.1-6 6.4-6.6M74.2 143c2.9-10.5 6.3-21.3 9.7-29.4-6.8 9-14.2 20.4-20.8 31.8l11.1-2.4m58.4-8.2c2.5-.5 8.3 3 5.5 6.2-2.8 3.3-6 2.7-11.1 4.8-2.9 1.2-5 3.8-8.2 8.3a34 34 0 0 0-6.2 15.9c0 1.2 0 1.9-.8 2.3-6.6 4.4-8.7 1.1-8.5-2.9 0-1 .3-2.4 1-4.3-5.2 7.7-9.8 11.6-12.7 12.2-4 .7-6.3-2-5.8-7.2.2-2.3.9-5 2.2-8.5 1.3-3.5 3.5-8.3 5.5-12.3l1.4-2.8a390.4 390.4 0 0 0-12.6 2.8c-2.1 10-2.3 13.9-3.5 22.6-.4 3.9.3 8-4.3 8.6-4.5.7-6-4-6-8-.1-4.1.6-9 3.5-20.9-4.7 1.2-9.7 2.6-14.7 4.1l-.1.2a233 233 0 0 0-17.7 39.7c-1 4.8-3.2 6.3-6.5 5-3.2-1.5-5-4.7-3.9-8.3a236.3 236.3 0 0 1 14.5-31.8 96.4 96.4 0 0 0-11.6 5.3c-2.2 1.2-5 0-5.6-2.5-.4-1.7-1.2-5.3 3.1-7.2 6.6-2.9 13.8-5.3 20.9-7.4 15-25.4 33.9-51.6 39.3-51 2.3.1 2 2.6 4 5 2 2.2 2.4 3.6 0 9.7-5 12.4-4.7 9.5-9.5 28.8 8.8-1.4 16.5-2.3 17.2-2.4 2.4-.3 6.6 1.3 4.4 6l-3.2 6c-1.7 2.8-3.8 7.1-5.1 10-.9 1.8-1.2 3.1-1.3 4 0 .7.2 1 .7 1 .7-.1 1.6-.9 2.8-2.1 1.2-1.4 5.1-4.6 12-16.3l2-3.8c.5-1.2 1.4-3.2 1.5-4.1.2-1.4.3-1.7 1.4-2.4 1.9-1.2 5.2-2.2 7.1-1 1.8 1.3 1.4 3.4-.1 6 6-6.8 7.6-7 9-7.3m119 19.8a60 60 0 0 0 9.1-16.5c.1-1.2-.2-1.7-1.2-1.5-1.1.1-3.8 2.3-6.3 5.3a53 53 0 0 0-9 16.3c-.2 1.2.3 2 1.2 1.9 1.3-.2 3.7-2.2 6.2-5.5m20.6-7c1.4-2.3 4.6-1.5 3.7.6-.7 2-2 5-5.6 9.1-4.3 5.3-8.2 7.9-11.8 8.3-2.9.4-5-.8-5.4-3.4l-.2-.5c0-.5-.3-.7-.5-.7-.3 0-.5.3-1 .7-3.6 3.9-6.4 6.3-9.7 6.7-5 .7-8-3.3-7.3-9-1.3 2-2.7 4-4 5.4-3.9 4.3-7 7.1-10 7.5-4.1.5-6.2-2.3-5.5-7.4.3-2.3 1.1-5 2.6-8.5 1.5-3.4 4-8 6.1-11.9a46 46 0 0 0 3.7-7.9c.2-1 .3-1.1 1-1.6 1-.7 2.8-1.5 4-1.5 2.8-.3 6.6 1.8 4 6l-.9 1.7-2.8 5c-1.8 3-4.1 7.1-5.6 10-.9 1.7-1.3 3-1.4 4-.1.6 0 1 .6.9.7-.1 1.7-.8 3-2 1.2-1.3 2-2.2 4.8-6l1-1.3c.9-1 7.4-9.5 9.3-11.6 5.2-6.2 11.1-10.7 15-11.1 2.4-.4 4.4.7 5.4 3 .7 2 .8 2 2.5 2.8 2.6 1 3.5 2 3.3 3.3 0 1-.4 1.7-2.1 4.4l-3.5 6.2c-2 4-3 6.6-1.1 7.3.7.2 2-.5 3.7-2.3 1.9-2 3.2-3.9 4.7-6.1M237.8 128c3.3-.6 6.2-3.5 6.4-6.6.3-3-2.2-5-5.4-4.4-3.3.6-6.2 3.5-6.4 6.6-.3 3 2.2 5 5.4 4.4m-49.7-14.4c-6.8 9-14 20.3-20.7 31.7 3.9-.9 7.6-1.7 11-2.3 3-10.6 6.4-21.3 9.7-29.4m1.8 27.5c2-.3 8.3-1 8 1.6-.4 4.3-2 4.2-7.7 5.4l-3.4.8c0 .3-.2.4-.2.5-2.2 10-2.3 13.8-3.5 22.5-.5 3.9.2 8-4.3 8.6-4.6.7-6.1-4-6.1-8 0-7.1 3.6-21 3.6-21.1a287 287 0 0 0-14.6 4c-5.9 10-16.6 34.2-18 40.2-1 4.8-3.2 6.3-6.4 4.9a6.6 6.6 0 0 1-3.9-8.2c3-10 14.3-31.6 14.5-32a94.7 94.7 0 0 0-11.5 5.4c-2 1.2-4.8 0-5.3-2.4-.4-1.8-1.2-5.3 2.9-7.2 6.5-3 13.6-5.5 20.7-7.5 15.1-25.4 33.8-51.5 39.2-51 2.4.2 2 2.8 4 5 2.1 2.3 2.4 3.7 0 9.8-5 12.4-4.6 9.5-9.4 28.9l1.4-.2m7.2 35.2c3.7-.4 14.6-2.8 14.7-14.8 0-4.6-4.4-7-5.5-10.3-.7-2-.5-6 2.6-7.3 4-1.6 4.7 1 6 3 .6.7 2.4.5 3-.1.9-1 2.1-2.2 2.7-4.5.4-2-1.8-5.5-8-5.3-2.3 0-5.4.5-9.9 4.7-2 2-8.5 10.8-3.7 18.5 1.3 2 4.4 4.6 2.4 6.6-3.1 3-8.5-1.7-9.5-3.1-.5-.7-1.8-1.4-2.7-.1-.5.7-3 5-2.6 6.6 1.1 5 7.5 6.4 10.5 6"/></svg>