<svg xmlns="http://www.w3.org/2000/svg" width="96.217" height="28.826" viewBox="0 0 138.871 40.356" fill-rule="evenodd"><path d="M5.69 13.704a2.79 2.79 0 0 0 2.88 2.88 3.37 3.37 0 0 0 2.52-1.16c1-1.28 1.12-2.84 1.12-5-3.8-.32-6.52.88-6.52 3.28zm7.26 6.24a15.73 15.73 0 0 1-.19-2.76 6.72 6.72 0 0 1-6 3.24c-2.92 0-4.24-.84-5-1.6A6.26 6.26 0 0 1 0 14.384a6.72 6.72 0 0 1 4.28-6.28c2.5-1.12 6-1.12 8-1.12a7.88 7.88 0 0 0-.28-2.68 2.74 2.74 0 0 0-2.64-1.68 2.7 2.7 0 0 0-2.24 1.12 3 3 0 0 0-.44 1.8H.88A5.65 5.65 0 0 1 3.16.784a10.55 10.55 0 0 1 6.12-1.64c1.68 0 5.2.28 7.2 2.6a8 8 0 0 1 1.4 5v8.12a24.44 24.44 0 0 0 .39 5.12h-5.28zm8.78-20.28h5.92v20.28h-5.92zm15.4 3.88-.12-3.88h-5.56l.28 5v15.3h5.96v-10c0-2.52.36-5.6 6.36-5v-5.32c-4.8-.24-6.12 2.2-6.88 3.92zm27.23 16.22a6.82 6.82 0 0 0-5.72 2.72v-8.86h-5.95v26.63h5.72l.2-2.75a6.57 6.57 0 0 0 6.08 3.15c4 0 8.44-2.64 8.44-10.2 0-6.8-3.88-10.68-8.8-10.68zm-1.35 16.9c-2.68 0-4.64-2.16-4.64-6.67 0-1.25 0-6.12 4.37-6.12s4.36 5.22 4.36 6.78c0 1 0 6-4.08 6zm29.96-9.6a8 8 0 0 0-1.4-5c-2-2.32-5.52-2.6-7.2-2.6a10.55 10.55 0 0 0-6.12 1.64 5.65 5.65 0 0 0-2.28 4.76h5.8a3 3 0 0 1 .44-1.8 2.7 2.7 0 0 1 2.24-1.12 2.74 2.74 0 0 1 2.64 1.68 7.92 7.92 0 0 1 .28 2.68c-2 0-5.52 0-8 1.12a6.72 6.72 0 0 0-4.28 6.28 6.26 6.26 0 0 0 1.76 4.44c.8.76 2.12 1.6 5 1.6a6.73 6.73 0 0 0 6-3.24 15.35 15.35 0 0 0 .16 2.76h5.3a24.39 24.39 0 0 1-.39-5.12zm-6.72 8.72a3.35 3.35 0 0 1-2.52 1.16 2.79 2.79 0 0 1-2.88-2.88c0-2.4 2.72-3.6 6.52-3.28 0 2.16-.08 3.72-1.12 5zm29.05-12.5c-.52-1.4-2.2-3.8-6.16-3.8a7 7 0 0 0-6.57 3.52l-.16-3h-5.72c.12 1.4.12 3.6.12 3.68v16.57h6v-11.67a5.55 5.55 0 0 1 .72-3.08 3.68 3.68 0 0 1 3.08-1.56 3.07 3.07 0 0 1 2.88 1.72 4.76 4.76 0 0 1 .32 2.2v12.4h6v-10.93c0-3.76-.12-4.8-.56-6z"/><path d="m51.08-.346-21.27 40.57h6.16L57.24-.346h-6.16" fill="#9c3"/><path d="M138.4 19.964h-6.7l-6.1 8.4v-14.82h-5.88v26.7h5.88v-11l6.25 11h7l-7.37-11.52 6.9-8.77"/></svg>