<svg xmlns="http://www.w3.org/2000/svg" xmlns:xlink="http://www.w3.org/1999/xlink" width="150.34" height="150.34"><defs><clipPath id="b"><use height="100%" width="100%" overflow="visible" xlink:href="#a"/></clipPath><path id="a" d="M-71.67-70.65h283.46v292.16H-71.67z"/></defs><path d="M137.82 106.7c-.67-1.89-1.46-3.72-2.21-5.42-1.15-2.61-2.36-5.22-3.52-7.75l-.09-.2a1741.925 1741.925 0 00-33.2-68.01l-.49-.96c-1.19-2.3-2.41-4.68-3.67-7.02-1.47-2.73-3.09-5.63-5.4-8.32-4.96-5.81-11.8-9-19.28-9s-14.32 3.2-19.28 9.01c-2.3 2.69-3.92 5.59-5.39 8.32-1.27 2.36-2.51 4.77-3.7 7.09l-.46.89A1719.916 1719.916 0 007.94 93.32l-.15.33c-1.15 2.49-2.33 5.06-3.46 7.62-.75 1.7-1.53 3.53-2.21 5.42-1.97 5.55-2.56 10.85-1.79 16.2 1.6 11.21 9.11 20.81 19.6 25.06 3.89 1.58 8.03 2.38 12.29 2.38 1.31 0 2.64-.08 3.96-.23 5.04-.59 10.13-2.3 15.11-5.11 6.09-3.43 12.11-8.46 18.69-15.64 6.58 7.18 12.59 12.21 18.69 15.64 4.98 2.8 10.06 4.52 15.11 5.11 1.32.15 2.65.23 3.96.23 4.26 0 8.39-.8 12.29-2.38 10.49-4.25 18-13.86 19.6-25.06.74-5.35.16-10.65-1.81-16.19m-67.85 7.83c-8.14-10.34-13.36-19.93-15.19-27.98-.77-3.38-.95-6.48-.52-9.23.37-2.37 1.18-4.49 2.42-6.31 2.81-4.1 7.78-6.54 13.3-6.54 5.51 0 10.49 2.45 13.29 6.55 1.24 1.81 2.06 3.93 2.42 6.31.42 2.75.25 5.85-.52 9.23-1.84 8.04-7.07 17.63-15.2 27.97m60.13 7.01c-1.12 7.84-6.37 14.55-13.71 17.52-3.6 1.46-7.53 1.97-11.52 1.51-3.83-.44-7.59-1.73-11.51-3.94-5.43-3.05-10.92-7.74-17.1-14.62 9.84-12.15 15.98-23.35 18.25-33.33 1.04-4.56 1.26-8.88.65-12.82-.59-3.81-1.93-7.27-3.99-10.28-4.6-6.71-12.53-10.72-21.22-10.72-8.68 0-16.61 4.01-21.21 10.72-2.06 3.01-3.41 6.47-3.99 10.28-.61 3.95-.39 8.26.65 12.82 2.27 9.98 8.42 21.18 18.26 33.34-6.18 6.88-11.67 11.56-17.09 14.62-3.92 2.21-7.68 3.49-11.51 3.94-3.99.46-7.93-.05-11.53-1.51-7.33-2.97-12.58-9.69-13.7-17.52-.55-3.83-.13-7.52 1.33-11.62.54-1.51 1.16-3 1.94-4.76 1.1-2.49 2.27-5.03 3.4-7.48l.15-.33C27 74.91 38.1 52.16 49.66 29.72l.46-.89c1.18-2.29 2.39-4.65 3.62-6.94 1.27-2.37 2.56-4.66 4.24-6.63 3.15-3.69 7.29-5.64 11.97-5.64 4.68 0 8.82 1.95 11.97 5.64 1.69 1.98 2.97 4.26 4.24 6.63 1.22 2.27 2.42 4.61 3.59 6.87l.49.96c11.56 22.43 22.66 45.19 33.01 67.64l.09.2c1.15 2.49 2.34 5.07 3.46 7.6.78 1.77 1.41 3.25 1.94 4.76 1.49 4.09 1.91 7.79 1.36 11.62" clip-path="url(#b)" transform="translate(5.198)" fill="#ff385c"/></svg>