<svg xmlns="http://www.w3.org/2000/svg" viewBox="0 0 22 22"><path d="M11,14.8c0-0.7,0.3-0.8,1-0.4c1.2,0.7,2.4,1.3,2.4,1.3c0-0.4,0.4-0.7,1.1-0.5c0.7,0.2,1.4,0.3,1.4,0.3s-0.4-0.9-0.6-1.3c-0.3-0.7,0-1.1,0.3-1.2c0,0-0.4-0.3-0.7-0.5c-0.6-0.4-0.5-0.9,0.1-1.1c0.8-0.4,1.9-0.8,1.9-0.8c-0.3-0.2-0.7-0.7-0.3-1.4c0.4-0.6,1.1-1.5,1.1-1.5s-1.1,0-1.9,0c-0.7,0-0.9-0.6-0.9-1c0,0-1.1,0.8-1.9,1.3c-0.7,0.5-1.3,0-1.2-0.8c0.2-1.2,0.3-2.6,0.3-2.6C12.7,5,12,4.9,11.6,4.3c-0.5-1-1-2.2-1-2.2s-0.5,1.2-1,2.2C9.3,4.9,8.6,5,8.2,4.7c0,0,0.1,1.4,0.3,2.6C8.6,8,8,8.5,7.3,8C6.5,7.5,5.3,6.7,5.3,6.7c0,0.4-0.2,0.9-0.9,1c-0.8,0-1.9,0-1.9,0s0.7,0.9,1.1,1.5c0.4,0.6,0,1.2-0.3,1.4c0,0,1,0.5,1.9,0.8c0.6,0.3,0.8,0.7,0.1,1.1C5.1,12.7,4.6,13,4.6,13C5,13.1,5.3,13.5,5,14.2c-0.2,0.4-0.6,1.3-0.6,1.3s0.7-0.2,1.4-0.3c0.7-0.2,1,0.2,1.1,0.5c0,0,1.2-0.7,2.4-1.3c0.6-0.4,1-0.2,1,0.4v1.7c0,1-0.2,2-0.5,2.6c-4.5-0.5-8.3-4.1-8.3-8.9c0-4.9,4.1-8.9,9.2-8.9s9.2,4,9.2,8.9c0,4.6-3.6,8.4-8.2,8.9v1.2c5.4-0.5,9.6-4.8,9.6-10.1C21.3,4.5,16.5,0,10.6,0C4.8,0,0,4.5,0,10.1c0,4.9,3.7,9,8.6,9.9c0.8,0.2,1.3,0.3,1.8,0.8c0.5-1,0.6-3,0.6-4.1V14.8z" fill="#F01428"/></svg>