<svg xmlns="http://www.w3.org/2000/svg" xmlns:xlink="http://www.w3.org/1999/xlink" width="75" height="75"><defs><path id="a" d="M56.842 3.021l4.84 4.576-13.388 13.436c-5.83-6.78-14.627-11.08-24.252-11.08-9.624-.034-18.14 4.3-23.97 11.08C8.932 8.405 23.493 0 40.053 0a48.734 48.734 0 0116.698 2.931z"/><path id="e" d="M56.752 2.931A48.734 48.734 0 0040.054 0C23.494 0 8.934 8.405.07 21.033L-13.318 7.598l37.36-37.495z"/><clipPath clipPathUnits="userSpaceOnUse" id="b"><path fill="#0034b3" d="M0 49.529l37.36-37.494 32.8 32.917L75 49.53 61.612 62.965c-5.83-6.78-14.628-11.08-24.252-11.08-9.624-.035-18.141 4.3-23.971 11.08z" fill-rule="evenodd"/></clipPath><filter id="d" width="1.656" height="1.707" x="-.164" y="-.226" filterUnits="objectBoundingBox"><feOffset dx="18" dy="8" in="SourceAlpha" result="shadowOffsetOuter1"/><feGaussianBlur in="shadowOffsetOuter1" result="shadowBlurOuter1" stdDeviation="2.5"/><feColorMatrix in="shadowBlurOuter1" values="0 0 0 0 0 0 0 0 0 0 0 0 0 0 0.501960784 0 0 0 1 0"/></filter><mask id="c" fill="#fff"><use xlink:href="#a" width="100%" height="100%"/></mask></defs><g clip-path="url(#b)" fill-rule="evenodd"><path fill="#0034b3" d="M0 49.529l37.36-37.494 32.8 32.917L75 49.53 61.612 62.965c-5.83-6.78-14.628-11.08-24.252-11.08-9.624-.035-18.141 4.3-23.971 11.08zm41.23-18.4a3.775 3.775 0 00-3.768-3.782 3.774 3.774 0 00-3.768 3.781 3.775 3.775 0 003.768 3.782 3.775 3.775 0 003.768-3.782z"/><path fill="#004bff" d="M70.07 44.863a48.734 48.734 0 00-16.699-2.932c-16.56 0-31.12 8.405-39.982 21.034L-.001 49.529l37.36-37.494zM41.23 31.128a3.775 3.775 0 00-3.768-3.781 3.774 3.774 0 00-3.768 3.781 3.775 3.775 0 003.768 3.782 3.775 3.775 0 003.768-3.782z"/><g mask="url(#c)" opacity=".5" transform="translate(13.318 41.932)"><use filter="url(#d)" xlink:href="#e" width="100%" height="100%"/></g></g></svg>