<svg xmlns="http://www.w3.org/2000/svg" width="42.46" height="42.46" viewBox="0 0 176.916 176.916" class="css-tm3g23" shape-rendering="geometricPrecision"><path d="M78.999 16.326l-65.96 27.293c-3.667 1.518-3.63 6.728.062 8.19l66.235 26.267a24.575 24.575 0 0018.12 0l66.236-26.266c3.69-1.463 3.729-6.673.06-8.191L97.794 16.326a24.578 24.578 0 00-18.795 0" fill="#fcb400"/><path d="M94.272 92.419v65.616c0 3.12 3.147 5.258 6.048 4.108l73.806-28.648a4.418 4.418 0 002.79-4.108V63.77c0-3.121-3.147-5.258-6.048-4.108L97.062 88.31a4.42 4.42 0 00-2.79 4.108" fill="#18bfff"/><path d="M77.038 95.804L55.134 106.38l-2.224 1.075L6.672 129.61C3.741 131.024 0 128.888 0 125.632V64.046c0-1.178.604-2.195 1.414-2.96a5.024 5.024 0 011.119-.84c1.105-.663 2.681-.84 4.021-.31L76.67 87.717c3.564 1.414 3.844 6.408.368 8.087" fill="#f82b60"/><path d="M77.038 95.804L55.134 106.38 1.414 61.085a5.024 5.024 0 011.119-.839c1.105-.663 2.681-.84 4.021-.31L76.67 87.717c3.564 1.414 3.844 6.408.368 8.087" fill="#ba2048"/></svg>