<svg xmlns="http://www.w3.org/2000/svg" viewBox="0 0 96 20" aria-label="Ajax logo"><path d="M74.69.88h-5.3l21.25 19.11h5.3L74.69.88M80.83 14.48l-6.13 5.51h-5.3l6.12-5.51h5.31M89.82 6.39L95.95.88h-5.3l-6.13 5.51h5.3M13.28.88l-2.17 3.11 11.07 16h4.38L13.28.88M7.66 8.97H12L4.38 19.99H0L7.66 8.97M53.24.88l-2.17 3.11 11.07 16h4.38L53.24.88M47.62 8.97h4.34l-7.62 11.02h-4.38l7.66-11.02M35.23.88l.01 11.7c-.01 1.9-.9 4.27-3.89 4.47h-1.09v2.94s.95 0 1.57.01c1.44.02 3.52-.68 4.81-2.06 1.81-1.92 2.03-4.37 2.03-5.55V.88h-3.44"></path></svg>