<svg xmlns="http://www.w3.org/2000/svg" viewBox="0 0 38.682 38.733" fill="#003594"><path d="m19.12 4.2341e-4a19.3 19.3 0 0 0-16.676 9.7988 19.72 19.72 0 0 0 0.16992 19.32 20.25 20.25 0 0 0 6.3691 6.6504c5.93 4 15.55 3.9992 21.33-0.30078a19.38 19.38 0 0 0 7.6602-21.141c-1.59-6.75-8.3297-13-15.18-14a19.3 19.3 0 0 0-3.6738-0.32813zm-0.16602 1.4297h0.16992c-0.1 2-0.51069 3.9395-0.7207 5.9395-0.34 3.43-0.76859 6.8297-0.80859 10.43 0.11 0.15 0.05984 0.48992 0.33984 0.41992 1.16-1.74 1.6402-3.7697 2.4102-5.6797a35.17 35.17 0 0 0 1.5898-10.42c0.75 0.17 0.99969 0.99906 1.4297 1.5391a6 6 0 0 0 0.76953 1.1406c0.57 0 1.0007-0.40953 1.4707-0.51953a6.78 6.78 0 0 1 2.1094-0.25 66 66 0 0 0-8.1504 13.85l0.06055 0.35938c3.84 4.07 3.1395 9.9999 5.5195 14.67a16 16 0 0 0 1.5801 2.8906c0 0.11 0.0013 0.2793-0.13867 0.2793v-0.03906a5.7 5.7 0 0 1-3.0703-1.2402c-0.83 0.46-1.1304 1.7-2.1504 2 0.32-5.05 0.48914-10.47-1.1309-15-0.4-0.72-0.70008-1.63-1.5801-2-0.4-0.17-0.81 0.21031-1 0.57031a16.81 16.81 0 0 0-0.14844 5.1191l1.5996 11.59c0.13 0.288 0.18139 0.60492 0.15039 0.91992-1.34-0.7-1.7002-2.1788-2.6602-3.2188h-0.21094c-0.58 0.62-0.99906 1.3797-1.7891 1.6797l-0.08984-0.15039 1.2402-12.51c0-6.09 0.43898-12.739-1.541-18.189a19.78 19.78 0 0 1-0.81055-2.8105c0.88 0.07 1.5008 1.0004 2.3008 1.4004l0.44922-0.10938zm-7.75 1.9297a8 8 0 0 1-0.35938 1.6289l-0.36133 3.9004-0.14844 10.82c0.25 5.62 1.4194 10.94 2.3594 16.25l-0.21094-0.10938-2.4688-3c-0.77-0.3-1.1098 0.90875-1.8398 0.71875l-0.10156-0.32031c0.76-3.55 0.51039-7.6395 0.40039-11.439-0.42-0.44-1.2091-0.20898-1.7891-0.20898l-0.30078 0.32031c-0.46 2.62-0.95031 5.2194-1.3203 7.8594-0.21 0-0.24836-0.20984-0.31836-0.33984a11.44 11.44 0 0 0-0.95117-3.1699c-0.52 0-1.4106 0.31969-1.6406-0.32031 0.34-0.85 1.1202-1.5406 1.4902-2.3906 2.66-5.54 3.7401-11.71 4.5801-18 0.44-0.13 0.51008 0.49117 0.83008 0.70117h0.15039c0.61-1 0.85-2.2104 2-2.9004zm18.949 2.8887c0.61 0.13 1.1606 0.8118 1.6406 1.3418a24 24 0 0 1 2.541 4.8496c0.28 0.1 0.33836-0.22039 0.56836-0.15039a55.25 55.25 0 0 0-1.1289 5.5605c-0.74-3.49-0.99992-7.1801-3.1699-10.08a0.38 0.38 0 0 0-0.35938 0.16992 73.28 73.28 0 0 0-0.31055 21.859 7.14 7.14 0 0 0 0.61914 2.1504 16 16 0 0 0 4.1504-6.5c0.26-0.36 0.80992-0.19039 1.1699-0.15039a8.48 8.48 0 0 1-1 2.7109v0.0293a20.88 20.88 0 0 1-4.4297 5.3008c-0.68-0.25-0.93031-1.0611-1.3203-1.6211-3.49-6.58-3.2998-16-0.50976-22.85a10.86 10.86 0 0 1 1.5391-2.6211z"/></svg>