<svg xmlns="http://www.w3.org/2000/svg" viewBox="0 0 38.682 38.733" fill="#003594"><path d="M19.12 0A19.3 19.3 0 0 0 2.444 9.8a19.72 19.72 0 0 0 .17 19.32 20.25 20.25 0 0 0 6.369 6.65c5.93 4 15.55 3.999 21.33-.301a19.38 19.38 0 0 0 7.66-21.141c-1.59-6.75-8.33-13-15.18-14A19.3 19.3 0 0 0 19.12 0zm-.166 1.43h.17c-.1 2-.51 3.94-.72 5.94-.34 3.43-.77 6.83-.81 10.43.11.15.06.49.34.42 1.16-1.74 1.64-3.77 2.41-5.68a35.17 35.17 0 0 0 1.59-10.42c.75.17 1 .999 1.43 1.539a6 6 0 0 0 .77 1.14c.57 0 1-.409 1.47-.519a6.78 6.78 0 0 1 2.11-.25 66 66 0 0 0-8.15 13.85l.06.36c3.84 4.07 3.14 10 5.52 14.67a16 16 0 0 0 1.58 2.89c0 .11 0 .28-.14.28v-.04a5.7 5.7 0 0 1-3.07-1.24c-.83.46-1.13 1.7-2.15 2 .32-5.05.49-10.47-1.13-15-.4-.72-.7-1.63-1.58-2-.4-.17-.81.21-1 .57a16.81 16.81 0 0 0-.15 5.12l1.6 11.59c.13.287.182.604.15.92-1.34-.7-1.7-2.18-2.66-3.22h-.21c-.58.62-1 1.38-1.79 1.68l-.09-.15 1.24-12.51c0-6.09.44-12.74-1.54-18.19a19.78 19.78 0 0 1-.81-2.81c.88.07 1.5 1 2.3 1.4l.45-.109zm-7.75 1.93a8 8 0 0 1-.36 1.629l-.36 3.9-.15 10.82c.25 5.62 1.42 10.94 2.36 16.25l-.21-.11-2.47-3c-.77-.3-1.11.91-1.84.72l-.1-.32c.76-3.55.51-7.64.4-11.44-.42-.44-1.21-.209-1.79-.209l-.3.32c-.46 2.62-.95 5.22-1.32 7.86-.21 0-.249-.21-.319-.34a11.44 11.44 0 0 0-.951-3.17c-.52 0-1.41.32-1.64-.32.34-.85 1.12-1.54 1.49-2.39 2.66-5.54 3.74-11.71 4.58-18 .44-.13.51.49.83.7h.15c.61-1 .85-2.21 2-2.9zm18.949 2.889c.61.13 1.16.811 1.64 1.341a24 24 0 0 1 2.542 4.85c.28.1.338-.22.568-.15a55.25 55.25 0 0 0-1.129 5.56c-.74-3.49-1-7.18-3.17-10.08a.38.38 0 0 0-.36.17 73.28 73.28 0 0 0-.31 21.859 7.14 7.14 0 0 0 .62 2.15 16 16 0 0 0 4.15-6.5c.26-.36.81-.19 1.17-.15a8.48 8.48 0 0 1-1 2.71v.03a20.88 20.88 0 0 1-4.43 5.301c-.68-.25-.93-1.061-1.32-1.621-3.49-6.58-3.3-16-.51-22.85a10.86 10.86 0 0 1 1.539-2.621z"/></svg>