<svg width="379.72" height="379.72" xmlns="http://www.w3.org/2000/svg"><path d="M162.3 372c-8.1 1.1-13.7 2.3-19 1.7-22.7-2.7-66-12.5-82.4-39s-45.1-49-50-82.7C6.1 219.1 0 189.6 6.2 164.3L162.3 372M373 126.8c-5.9-47-23.7-46.3-35-63.3-11.3-16.9-64.3-44.2-92.5-55.3-20.8-8.2-37.8-2.7-56.1 1.1l184.5 219.1c1.4-6.3 3.3-14 6.3-23.9 8-27-1.4-30.7-7.2-77.7" clip-path="url(#SVGID_2_)" fill="#b1d78a" transform="translate(-3.574 .957)"/><path d="M372.1 160.6c-2.3-6.3-5.7-12.6-7.1-19.1-1.5-6.9-4.4-13.3-7.4-19.7-1.4-2.9-2.1-6.2-4.1-8.8-1.5-2-3-4-2.3-5.6.7-1 2.3-.6 3.2.3.9.8 1.2-.4 1.2-1.1s0-2.1-2.1-4.2c-6-6.1-11.9-12.2-17.9-18.4-2.2-2.3-4.9-3.7-7.1-5.9-3.1-3.1-6-6.4-9-9.6-13-14.5-23.3-19-37.2-23.5-.2-.1-.5-.1-1-.2L84.8 332.9c.7 1 1.4 2 2 3 21.4 31.3 59.7 34.6 82.1 36.8 10 .9 20.1-1.3 47.9.8s29.4-7.7 73.5-23.4c16.6-5.9 32.2-14.1 41.7-29.5 5.2-8.4 10.4-16.8 15.4-25.4 2.3-3.9 5-7.7 7-11.7 1.9-3.7 5.4-10.1 7-8.9.8.5.4 2.6 1.2 3.1.4.3.9-.2 1.2-.6 6.6-10.2 7.2-20.5 8-32.6 1-14.6 3.2-28.3 5.5-42.6 2.4-14.2-.3-28-5.2-41.3" clip-path="url(#SVGID_2_)" fill="#0f7bb6" transform="translate(-3.574 .957)"/><path d="M286.3 46.4c-.1-.1-.2-.3-.3-.4-3.5-4.6-6.4-8.1-8.4-9.7C263.9 25 208 9.9 181.6 8.6 155.3 7.4 127.5 20 96.1 31.9s-47 44.4-69 65.9C5 119.2 4.8 163 7.1 185.4c1 9.9 5.2 19.4 8.6 47.1 1.7 14 7.4 24.3 15.7 35.4 3.4 4.5 6.9 8.9 9.9 13.7" clip-path="url(#SVGID_2_)" fill="#46a8c6" transform="translate(-3.574 .957)"/><path d="M360 245.9c-1.6 7.4-8.9 13.2-8.9 20.8 0 1.8.4 3.8-.4 5.4s-2.5 2.4-4 3.3c-8.4 5.1-12.3 15.1-19.8 21.5-4.3 3.7-9.7 6-14.3 9.4-5.4 3.9-12.5 15.3-19.3 15.7-2.3.2-4.6-.9-6.9-1.2-3.6-.4-7 1.2-10.2 2.8-6.6 3.2-13.1 4.6-19.7 7.3-7.3 3-14.2 8.8-20.6 13.3-13.3 9.4-26.6 19.2-42.2 24.6-2.3.8-5.7 1-6.5-1.3-.9-2.7 3.3-4.6 3.7-7.5-2.5-.5-4.6 1.5-6.7 3-4.2 3-9.6 3.7-14.8 4-9.6.5-19.9-.1-29.3-2.7-5.6-1.6-10.7-3.1-15.5-6.4-11.5-7.9-24.7-11.3-35-21.1-4.2-4-11.5-8.1-14.5-12.6-1.2-1.8-2-3.9-3.7-5.3-1.5-1.2-3.5-1.6-5.4-2.3-10.3-3.4-18.5-18.6-22.4-28-3.5-8.3-3.1-17.4-6.5-25.8-1.2-3.1-2.8-6-4.3-9-.3-.6-.6-1.2-1-1.9-4.6-9-8.8-18.3-11.3-28-2.8-10.4-3.6-21.5-1.1-32 1.9-7.8 5.6-15 8.4-22.5 4.6-12.6 6.1-26.1 10.1-38.9 1.9-6.2 4.5-9.5 7.4-15 3-5.5 7.1-10.3 11.2-15.2C66.5 88 78.2 77.2 91.2 68c3-2.1 6.1-4.7 9.6-5.9 2.9-1 5.2-.8 8-2.5 6.1-3.7 9.4-10.5 15.6-14 8.2-4.6 17.1-13 26.6-14.6 3.8-.7 7.1-.3 10.9-1.4 5.3-1.6 10.4-3.7 15.8-5.2 2.5-.7 4.8-1.9 7.4-1.9 5.3-.1 10.8 1.2 16.1.7 5.8-.6 11.5-3.2 17.4-4 .6-.1 1.3-.1 1.7.4.4.6 0 1.3-.4 1.8-1.7 2.3-3.3 5.5-1.5 7.6 1 1.3 2.9 1.5 4.5 1.5 6.2-.1 12.6-2.3 18.7-.4 3.2 1 7 1 10.4 1.4 3.8.5 7.7.9 11.5 1.4.7.1 1.5.2 2.2.5.7.4 1.2 1.1 1.1 1.8-.1 1.2-1.7 1.8-1.9 3-.2.9.4 1.8 1.2 2.2 4.2 2.3 10.1 3 14.8 4.3 7.5 2 6.5 5.2 9.8 10.7 3.6 5.9 11.6 11.1 17 15.3 3.4 2.7 6.9 5.3 9.9 8.5 4.7 5 6.9 11.3 10.1 17.2 1.2 2.3 1.5 5.1 3.3 6.9 1.9 1.9 5.2 2.2 6.6 4.5 1.5 2.4-.1 5.5.1 8.4.4 5.7 24.6 21.7 8.5 27.2-.4.1-.8.2-1.1.6s-.3.9-.3 1.4c.5 4.1 3.8 7.3 6.4 10.6 5.1 6.4 7.5 14 8.1 22 .2 2.4-.2 16.2-3 20-.4.6-.2.9.4 1.1 2.4.6 5.2 2.7 5 4.6-.6 5.7-4.2 10.8-4.8 16.4-.9 8.6 5 17.2 3.1 25.8" clip-path="url(#SVGID_2_)" fill="#00416a" transform="translate(-3.574 .957)"/><path d="M231.5 147.3c-12-6.3-22-6.3-33.8-5.3s-20.6 4.8-22.7 8.6-4.1 4.7-4.7 4.6c-.7-.1-1.1.3-1.5-4.3s-.8-5-3.2-6.8c-4.3-3.3-20.1-1-24.8-.6-4.2.4-5.9-.4-6.4-1.8s-.3-4.7 7.1-12 19.4-17 34-23.5c15.5-6.9 26-5.7 30.1-4.3 4.1 1.3 6.3 6.4 9.4 10.7 3 4.3 6.4 8.2 8.2 7.4 1.7-.8-2.4-8 .8-9.7s9 9 12.7 12.7 7.4 5.6 11.1 6.9 3.5-.6 1.5-3.6-4.5-9.9-2.5-11.1 4.9 1.3 7 3.5c2 2.2 7.7 10 10.9 22.6 3.1 12.6 1.2 17.8-2 19.3-6.3 2.7-19.5-7.2-31.2-13.3m-98.1 28.6c3.5-1.2 10-3.2 13.4-4s8-.9 9.9-.6c1.8.2 1.9-1.6.9-2s-7.9-2.2-11-3.2-4.4-.4-5.6-.1-7.1 2.2-9.9 3.1c-2.9 1-3.7 2.4-2.7 5 .4 1.2 1.5 2.9 5 1.8m78.3-6.7c.3 1.4 3.6 1 6.9.3 3.4-.6 8.2-1.4 9.5.7 1.3 2.2 3.5 6.4 7.5 9.6s9 5.8 14.6 5.6c5.7-.2 4.9-1.8 4.8-2.3s-1.3-.7-2.3-.6c-1 0-6.9-1-10.7-4.4-3.7-3.4-7.2-7.8-9.2-10-2-2.1-4.4-4.7-10.3-4.1-5.8.7-11.4 2.5-10.8 5.2m38.6 6.9c0 1.3 3.8 2.4 9.1 1.7 5.2-.7 7.6-1.3 7.4-3.1s-2.8-1.6-5-1.2c-2.1.3-8.4 1.3-9.2 1.3s-2.3.2-2.3 1.3m-114.6 77.5c1.2-.5 1.9-.8 2.9-1.5 1.6-1.1 2.3-1.7 3.5-2.8s1.9-2.2 3.2-4.8.4-4.4-.5-6-2.4-.3-3.4.3-4 2.8-6.2 4.4c-2.1 1.6-2.9 3.7-3.5 5.5s-.6 4.4.8 5.1c.9.6 2.2.2 3.2-.2m69.3 2.9c3.9-.2 8.1-1.7 10.9-2.8 2.8-1.2 3.7-1.8 4.2-2.9s-.2-5.1-.6-6.7c-.5-1.6-2.5-3.3-3.7-4.5-1.3-1.2-3.6-3-4-3.2-1.4-1-3.2-1.2-12.6-.4s-13 2.3-17.9 4.3-5.9 4.3-8.3 6.2c-2.5 1.9-5.9 3-7.4 5-1.2 1.6-.1 1.9.7 2 15.3 2.3 34.8 3.1 38.7 3m-29.9-92.8c-2.3.1-3.6 3.3-4.5 8.2s-1.3 9.4-3.6 10.8c-2.4 1.4-4.8.7-6.1.3s-2.8-1.1-5-.9c-2.2.1-3.6.1-7.6 2.3s-5 3.1-8.6 3.9-4.7.9-5.7 1-1.5-.1-2.1 2.2-1.9 4.8-3.3 5-2.3-.6-3-1c-.7-.5-3.4-2.6-4.9-3.3-1.5-.6-4.5-1.4-7.1 1.1s-6.7 9.4-8.1 19.2c-1.5 9.8-2.5 19.2.1 20.1 2.5.9 6.6-11.1 10.7-9.4 3.6 1.5 1.9 30.6 1.7 36.9-.3 6.3-1.5 15.7 1 22.2s4.8 9.6 14.8 17.8 11.7 9.8 13.9 12 8 6.1 9.5 6.8 4.8 1.3 6.2-2.1 2.2-7 6.4-10.3c4.3-3.3 5.3-6.2 4.2-8.1s-2.9-2-5.8-1.5-7.9 2.2-15.6 1-19.3-4.3-20.3-9.7c-.7-3.8 2.3-7.6 3-10.7.6-2.9 2.5-9-.7-11.6-2.1-1.7-3.9.8-5 2.3s-4 3-3.9-1c.1-3.9.2-8.1.6-11.7.3-2.5-.3-7.9-.7-9.9s.3-5.5 2.5-7c2.3-1.5 7-3.8 8.8-4.9s3.7-2.2 3.8-5.1 2.2-8.4 3.6-11c1.4-2.5 2.2-4.6 2.3-6 .2-1.4 1-2.6 3.3-3s3.2-.3 2.6 1.6-1.9 4.3-1.8 6.1c.1 1.9 1.1 2.9 2.9 3.8 1.7 1 3.5 2 7.9.5s10.4-3.6 14.2-3.3c4.4.3 7.7 2.6 10.8 3.5 2.3.7 2.6.8 6.8 1.9 2.1.6 3.4.1 3.9-.3s1.2-1.3.8-3-2.4-5.4-.6-6.2 3.7 1.7 5.1 5c1.4 3.4 3.8 8.6 5.8 10.8s4.9 3 8.3 4.2 5.6.9 7 6.7 1.6 7.8 1.7 10.5c.1 5.8-1 6.7-1 10.8 0 4.8.5 6.3-1.3 8.4-.6.7-1.3 1.3-2 .7s-.1-1.2.2-2.1c.5-1.3.2-3.2.1-5.6-.1-1.7-.1-1.8-.2-2.2-.1-1-.6-1.5-1.4-1.4-1.8.2-2.9 1.6-5.6 1.8s-8.8.3-12.6.6c-3.7.3-11.7.8-17.9 1-6.1.2-10.6.2-16.8-.4-6.2-.7-7.4-1-8.5-1-1.2 0-6.7.6-7.7 4.4-.5 2-.3 2.8 1.1 3.1s7.5.7 10.4 1.1 9.4 1.3 12.6 1.4c3.2 0 7.3-.2 9.7-.3 2.3 0 7.8.4 8 8.1 0 2.6.2 4.9 2 6.2s8.7 4.6 14.9 7.3 12 3.1 15.2 1.8 4.3-3.3 3.3-6.3c-1.1-3-1.2-5.2.1-6.2s2.7-2.1 8.7-1.8c3.3.2 7.7 1.8 9.7-1.1 2.7-3.9 3-4.6 8-8s7.5-5.7 7.3-14.2c-.2-8.7-1-23.5.2-32.8 1.2-8.9 6.8-13.3 10-19.5 2.8-5.4 4-8.2 0-10.3-4-2.2-5.6-3.3-8.4-3.9-2.6-.6-3.4-.4-4.7-.6-1.2-.2-1.5-.2-1.7.1-.1.3.2.7 1.4 1.4s3.5 2 4.9 3.3 2.8 2.7 1.9 4.1c-.8 1.4-3.6.9-5.6-.2s-4.8-3.3-5.9-3.8c-1.1-.4-1.9-.5-1.6.6s.8 2.4 0 3c-.8.7-3.3.7-5.6-1.2-2.2-1.9-2.9-3.2-5.8-5.6-2-1.7-3.9-2.4-5.4-3.5s-2.9-2.4-5-3-8.1-1.8-16.8-.4c-8.7 1.5-10.7 3.1-13.4 2.8-1.6-.2-1.9-.7-2.4-2.3s-.8-1.8-1.7-2.2c-.8-.4-1.8-.2-3.3-.9s-4.9-1.7-8.6-7.1c-2.8-4.1-3.8-6.6-5.1-8.5s-2.2-2.4-3.9-2.3M232 269.8c-.4 0-3 0-1.8-2.8 1.1-2.8 1.7-9 1.5-14.4-.1-5.4-1-8.5-1.5-10.7s-.7-2.6 0-3.3c.6-.7.9-.8 2.1-1 .7-.1.8.8 1.6 3s3 5.6 2.9 13.4-.3 12.2-.7 13.6-.7 2.3-1.7 2.3c-.4-.1-1.9-.1-2.4-.1m-97.3-74.7c1.6 0 3.7-.3 8.8-1.6s7.3-3.2 8.1-3.9 1-.8 1.9-.1c.9.6 1.7.8 3 1.6s1.5 2 .4 3.2c-1.1 1.1-3.8 2.2-6.6 3.4-2.9 1.2-5.7 2.1-9.6 2.5s-7.1-.7-8.1-1.1-1.3-1.5-.6-2.8c.8-1.5 1.8-1.2 2.7-1.2m70.8-3.4c2.1.1 4-.4 7-.3 3.1.1 6.8.9 11.2.1 3.2-.6 4.2-1.8 5-2.4s1.2-.3 1.9 1.3c.7 1.5-1.9 3.2-5.4 5.1s-6.3 2.2-11.3 2.4c-4.9.2-9.3-.6-10.5-.7s-1.7-1.4-1.8-3c-.2-3.2 1.8-2.5 3.9-2.5" clip-path="url(#SVGID_2_)" fill="#fff" transform="translate(-3.574 .957)"/><path d="M55.7 175.5c-.5 3.6-.8 7.2-.9 10.8-.6 13.6-.8 27-.7 40.5 0 2-1.2 2-1.7 1.7-1.5-.9-2.6-2.4-3.1-4.1-1.8-5.6-1.7-12.4-3.3-18.4-1.8-7-3.2-14.2-3.7-21.5-1.1-13.4.2-27.3 6-39.6 2.2-4.7 5.5-8.7 8.9-12.6 4.3-4.9 8.8-9.7 13.4-14.3 2.9-2.8 6.8-9.4 10.7-11.1.8-.4.9 0 1 .2.3 3.5-3 5.5-3.7 8.9-.3 1.6 0 3.2 0 4.8.3 10-11.9 17.4-15.6 26.3-3.8 9.1-6 18.7-7.3 28.4m35.2-78.4c.9 1.2 4.4-.8 5.4-1.3 1.5-.9 2-2.1 2.8-3.4.6-1.1 1.4-2.1 2-3.1.8-1.1 1.5-2.2 2.3-3.3.2-.3.5-.9.3-1.1s-1 .4-1.5.7c-1.5.9-3.2 1.6-4.8 2.4-3.4 1.6-6.3 3.2-6.8 7.2-.1.5-.1 1.1.1 1.6 0 0 .1.2.2.3m239.8 86.4c-.1 2.6.2 5.8 2.7 6.6 2.7.9 2.4-27.5 2-29.9-.8-4-1.5-7.9-2-11.9-.6-4.6-3.3-7.9-5-12-1.6-3.8-3.3-7.5-5.7-10.9-1.7-2.5-3.8-5-3.8-7.9 0-1.1.3-2.3.3-3.4 0-6.5-9.4-9.1-11.4-15-1.1-3.4-1.3-6-3.8-8.9-3.5-4.2-8.4-8.3-12.8-11.5-4.7-3.5-12.6-4-18.2-5-1.8-.3-3.9-.5-5.2.8 2 2.8 5.2 4.5 8.1 6.3 6.2 3.9 11.7 8.8 16.2 14.5 4.6 5.8 7.5 12.7 12.4 18.2 5.7 6.5 10.7 13.4 14.8 21.1 1.3 2.4 2.4 4.9 3.5 7.4 5.5 13.1 8.3 27.3 7.9 41.5m-5.9 74.6c-.6 1.5-1 3-.8 4.6.1 1.2.6 2.4.7 3.7.4 2.8-1.1 4.6-2.1 7.1-1.7 4-3.9 7.7-6.1 11.5.6.3 1.2-.2 1.6-.7 3.8-4.5 7.7-9 11-13.9 1.9-2.9 3.4-6.1 4.6-9.3 1.9-5.1.6-10.9 2.7-15.7.5-1.2.6-2.9-1-2-1.1.6-1.7 2.4-2.5 3.4-1.2 1.6-2.4 3.2-3.4 4.9-1.1 1.8-2.7 3.2-3.8 5-.4.4-.7.9-.9 1.4" clip-path="url(#SVGID_2_)" fill="#7fa9c8" transform="translate(-3.574 .957)"/></svg>