<svg xmlns="http://www.w3.org/2000/svg" fill="#363ff9" viewBox="0 0 57.91 49.35"><path d="M48.17 31.59 29.85.51a1.1 1.1 0 0 0-.37-.37 1.03 1.03 0 0 0-.51-.14 1 1 0 0 0-.51.13.97.97 0 0 0-.38.37l-5.49 9.31a1.95 1.95 0 0 0-.27 1 1.95 1.95 0 0 0 .27 1l11.95 20.28c.18.31.44.56.75.73a2.06 2.06 0 0 0 1.03.27H47.3a1 1 0 0 0 .51-.14.94.94 0 0 0 .37-.37.97.97 0 0 0 0-1zM.14 47.83l18.32-31.08a1.1 1.1 0 0 1 .37-.37 1 1 0 0 1 .51-.13c.18 0 .36.05.51.13a.94.94 0 0 1 .37.37l5.49 9.3c.18.31.27.65.27 1a1.95 1.95 0 0 1-.27 1L13.76 48.33c-.18.31-.44.56-.75.73a2 2 0 0 1-1.02.27H1.03c-.18 0-.36-.05-.52-.13a1.04 1.04 0 0 1-.38-.37.97.97 0 0 1 .01-.99zm20.1 1.51h36.65c.18 0 .36-.05.51-.13a1 1 0 0 0 .37-.37.97.97 0 0 0 0-1l-5.48-9.31a1.95 1.95 0 0 0-.75-.73 2.06 2.06 0 0 0-1.03-.27h-23.9a2 2 0 0 0-1.02.27 2.1 2.1 0 0 0-.75.73l-5.49 9.31a.97.97 0 0 0 0 1 1.1 1.1 0 0 0 .37.37 1 1 0 0 0 .51.13z"/></svg>