<svg xmlns="http://www.w3.org/2000/svg" fill="#363ff9" viewBox="0 0 57.9 49.4"><path d="M48.2 31.6 29.8.6a1.1 1.1 0 0 0-.3-.5A1 1 0 0 0 29 0a1 1 0 0 0-.5.1 1 1 0 0 0-.4.4l-5.5 9.3a2 2 0 0 0-.3 1 2 2 0 0 0 .3 1l12 20.3c.1.3.4.6.7.7a2 2 0 0 0 1 .3h11a1 1 0 0 0 .5-.1 1 1 0 0 0 .4-.4 1 1 0 0 0 0-1zM.2 47.8l18.3-31a1.1 1.1 0 0 1 .3-.4 1 1 0 0 1 .5-.1h.6a1 1 0 0 1 .3.4l5.5 9.4c.2.3.3.6.3 1a2 2 0 0 1-.3 1l-12 20.2a2 2 0 0 1-.7.8 2 2 0 0 1-1 .2H1l-.5-.1a1 1 0 0 1-.4-.4 1 1 0 0 1 0-1zm20 1.5h37.2a1 1 0 0 0 .4-.5 1 1 0 0 0 0-1l-5.5-9.3a2 2 0 0 0-.8-.7 2 2 0 0 0-1-.3H26.6a2 2 0 0 0-1 .3 2.1 2.1 0 0 0-.8.7l-5.5 9.3a1 1 0 0 0 0 1 1.1 1.1 0 0 0 .4.4 1 1 0 0 0 .5.1z"/></svg>