<svg width="822" height="175" viewBox="0 0 822 175" fill="none" xmlns="http://www.w3.org/2000/svg">
<path d="M257.433 93.1133V91.0622C257.433 85.9082 255.67 81.9637 252.146 79.2289C248.728 76.3889 244.242 74.9689 238.688 74.9689C234.416 74.9689 231.051 75.7052 228.595 77.1778C226.245 78.5452 224.002 80.6489 221.866 83.4889C221.225 84.3304 220.531 84.9089 219.783 85.2244C219.036 85.54 218.021 85.6978 216.739 85.6978H211.933C210.758 85.6978 209.69 85.277 208.729 84.4356C207.874 83.5941 207.501 82.5948 207.607 81.4378C207.928 78.2822 209.476 75.1793 212.253 72.1289C215.137 68.9733 218.929 66.3963 223.628 64.3978C228.328 62.3993 233.348 61.4 238.688 61.4C248.621 61.4 256.631 64.1348 262.719 69.6045C268.914 75.0741 272.012 82.7526 272.012 92.64V140.762C272.012 141.919 271.584 142.919 270.73 143.76C269.875 144.601 268.861 145.022 267.686 145.022H261.758C260.583 145.022 259.569 144.601 258.714 143.76C257.86 142.919 257.433 141.919 257.433 140.762V134.293C255.724 138.08 252.092 141.078 246.538 143.287C240.984 145.496 235.43 146.6 229.876 146.6C224.429 146.6 219.57 145.653 215.297 143.76C211.025 141.761 207.714 139.079 205.364 135.713C203.121 132.347 202 128.561 202 124.353C202 116.464 204.991 110.311 210.972 105.893C216.953 101.37 224.91 98.32 234.843 96.7422L257.433 93.1133ZM257.433 105.736L238.528 108.733C231.585 109.785 226.192 111.521 222.347 113.94C218.502 116.254 216.579 119.199 216.579 122.776C216.579 125.405 217.807 127.772 220.264 129.876C222.72 131.979 226.459 133.031 231.479 133.031C239.169 133.031 245.417 130.875 250.223 126.562C255.029 122.25 257.433 116.622 257.433 109.68V105.736Z" fill="#363FF9"/>
<path d="M309.965 140.762C309.965 141.919 309.538 142.919 308.683 143.76C307.829 144.601 306.814 145.022 305.639 145.022H299.712C298.537 145.022 297.522 144.601 296.668 143.76C295.813 142.919 295.386 141.919 295.386 140.762V37.26C295.386 36.103 295.813 35.1037 296.668 34.2622C297.522 33.4207 298.537 33 299.712 33H305.639C306.814 33 307.829 33.4207 308.683 34.2622C309.538 35.1037 309.965 36.103 309.965 37.26V140.762Z" fill="#363FF9"/>
<path d="M367.674 133.031C378.355 133.031 385.564 128.929 389.303 120.724C390.05 119.147 390.798 118.042 391.546 117.411C392.293 116.78 393.308 116.464 394.59 116.464H399.396C400.571 116.464 401.585 116.885 402.44 117.727C403.294 118.463 403.721 119.357 403.721 120.409C403.721 123.985 402.28 127.824 399.396 131.927C396.512 136.029 392.347 139.5 386.899 142.34C381.452 145.18 375.044 146.6 367.674 146.6C360.091 146.6 353.522 145.022 347.969 141.867C342.415 138.711 338.142 134.399 335.152 128.929C332.161 123.354 330.506 117.148 330.185 110.311C330.078 109.049 330.025 106.63 330.025 103.053C330.025 100.529 330.078 98.7407 330.185 97.6889C331.147 86.96 334.831 78.2296 341.24 71.4978C347.648 64.7659 356.46 61.4 367.674 61.4C375.044 61.4 381.399 62.82 386.739 65.66C392.186 68.3948 396.298 71.8133 399.075 75.9156C401.959 79.9126 403.508 83.6993 403.721 87.2756C403.828 88.4326 403.401 89.4319 402.44 90.2733C401.585 91.1148 400.571 91.5356 399.396 91.5356H394.59C393.308 91.5356 392.293 91.22 391.546 90.5889C390.798 89.9578 390.05 88.8533 389.303 87.2756C385.564 79.0711 378.355 74.9689 367.674 74.9689C361.8 74.9689 356.673 76.9148 352.294 80.8067C347.915 84.6985 345.405 90.5889 344.764 98.4778C344.658 99.6348 344.604 101.528 344.604 104.158C344.604 106.577 344.658 108.365 344.764 109.522C345.512 117.411 348.022 123.301 352.294 127.193C356.673 131.085 361.8 133.031 367.674 133.031Z" fill="#363FF9"/>
<path d="M496.913 140.762C496.913 141.919 496.486 142.919 495.632 143.76C494.777 144.601 493.763 145.022 492.588 145.022H486.66C485.485 145.022 484.47 144.601 483.616 143.76C482.762 142.919 482.334 141.919 482.334 140.762V99.1089C482.334 91.22 480.358 85.2245 476.407 81.1222C472.455 77.02 466.954 74.9689 459.905 74.9689C452.963 74.9689 447.462 77.02 443.403 81.1222C439.452 85.2245 437.476 91.22 437.476 99.1089V140.762C437.476 141.919 437.048 142.919 436.194 143.76C435.34 144.601 434.325 145.022 433.15 145.022H427.222C426.047 145.022 425.033 144.601 424.178 143.76C423.324 142.919 422.897 141.919 422.897 140.762V37.26C422.897 36.103 423.324 35.1037 424.178 34.2622C425.033 33.4207 426.047 33 427.222 33H433.15C434.325 33 435.34 33.4207 436.194 34.2622C437.048 35.1037 437.476 36.103 437.476 37.26V72.1289C439.825 69.0785 443.03 66.5541 447.088 64.5555C451.254 62.4518 456.327 61.4 462.308 61.4C469.037 61.4 475.018 62.82 480.252 65.66C485.485 68.5 489.544 72.6022 492.428 77.9667C495.418 83.2259 496.913 89.4845 496.913 96.7422V140.762Z" fill="#363FF9"/>
<path d="M553.054 61.4C564.483 61.4 573.508 64.9763 580.13 72.1289C586.752 79.2815 590.063 89.0111 590.063 101.318V105.578C590.063 106.735 589.636 107.734 588.781 108.576C587.927 109.417 586.912 109.838 585.737 109.838H530.625V110.784C530.839 117.727 532.975 123.196 537.033 127.193C541.199 131.085 546.539 133.031 553.054 133.031C558.395 133.031 562.507 132.347 565.391 130.98C568.381 129.613 571.051 127.667 573.401 125.142C574.255 124.301 575.003 123.722 575.644 123.407C576.392 123.091 577.353 122.933 578.528 122.933H583.334C584.616 122.933 585.684 123.354 586.538 124.196C587.393 125.037 587.766 126.036 587.66 127.193C587.232 130.033 585.63 132.979 582.853 136.029C580.183 138.974 576.285 141.499 571.158 143.602C566.138 145.601 560.104 146.6 553.054 146.6C546.219 146.6 540.131 145.075 534.79 142.024C529.45 138.869 525.178 134.556 521.974 129.087C518.876 123.617 517.007 117.464 516.366 110.627C516.153 107.471 516.046 105.052 516.046 103.369C516.046 101.686 516.153 99.2667 516.366 96.1111C517.007 89.5896 518.876 83.6993 521.974 78.44C525.178 73.1807 529.397 69.0259 534.63 65.9756C539.971 62.9252 546.112 61.4 553.054 61.4ZM575.644 96.5845V96.1111C575.644 89.6948 573.561 84.5933 569.396 80.8067C565.337 76.9148 559.89 74.9689 553.054 74.9689C546.86 74.9689 541.573 76.9148 537.194 80.8067C532.921 84.6985 530.732 89.8 530.625 96.1111V96.5845H575.644Z" fill="#363FF9"/>
<path d="M623.97 72.1289C626.533 68.8682 629.417 66.2911 632.621 64.3978C635.825 62.3993 640.097 61.4 645.438 61.4C657.934 61.4 666.692 65.9756 671.712 75.1267C674.81 70.7089 678.334 67.343 682.286 65.0289C686.238 62.6096 691.418 61.4 697.826 61.4C708.293 61.4 716.037 64.503 721.057 70.7089C726.183 76.9148 728.747 85.6978 728.747 97.0578V140.762C728.747 141.919 728.32 142.919 727.465 143.76C726.611 144.601 725.596 145.022 724.421 145.022H718.493C717.318 145.022 716.304 144.601 715.449 143.76C714.595 142.919 714.168 141.919 714.168 140.762V98.6356C714.168 82.8578 707.866 74.9689 695.263 74.9689C689.495 74.9689 684.903 76.8622 681.485 80.6489C678.067 84.4356 676.358 90.063 676.358 97.5311V140.762C676.358 141.919 675.931 142.919 675.077 143.76C674.222 144.601 673.207 145.022 672.033 145.022H666.105C664.93 145.022 663.915 144.601 663.061 143.76C662.206 142.919 661.779 141.919 661.779 140.762V98.6356C661.779 82.8578 655.478 74.9689 642.874 74.9689C637.107 74.9689 632.514 76.8622 629.096 80.6489C625.679 84.4356 623.97 90.063 623.97 97.5311V140.762C623.97 141.919 623.542 142.919 622.688 143.76C621.833 144.601 620.819 145.022 619.644 145.022H613.716C612.541 145.022 611.527 144.601 610.672 143.76C609.818 142.919 609.391 141.919 609.391 140.762V67.2378C609.391 66.0807 609.818 65.0815 610.672 64.24C611.527 63.3985 612.541 62.9778 613.716 62.9778H619.644C620.819 62.9778 621.833 63.3985 622.688 64.24C623.542 65.0815 623.97 66.0807 623.97 67.2378V72.1289Z" fill="#363FF9"/>
<path d="M773.617 171.213C772.656 173.738 771.107 175 768.971 175H762.402C761.334 175 760.426 174.632 759.679 173.896C758.931 173.159 758.557 172.265 758.557 171.213C758.557 170.793 758.61 170.424 758.717 170.109L774.097 137.133L742.376 67.8689C742.269 67.5533 742.216 67.1852 742.216 66.7645C742.216 65.7126 742.589 64.8185 743.337 64.0822C744.085 63.3459 744.993 62.9778 746.061 62.9778H752.629C754.765 62.9778 756.314 64.24 757.275 66.7645L781.948 120.409L806.94 66.7645C807.902 64.24 809.45 62.9778 811.586 62.9778H818.155C819.223 62.9778 820.131 63.3459 820.878 64.0822C821.626 64.8185 822 65.7126 822 66.7645C822 67.1852 821.947 67.5533 821.84 67.8689L773.617 171.213Z" fill="#363FF9"/>
<path d="M141.427 92.8265L87.6313 1.49484C87.3709 1.04386 86.9936 0.668194 86.5377 0.405752C86.0818 0.143309 85.5633 0.00337153 85.0347 6.01651e-05C84.506 -0.0032512 83.9858 0.13018 83.5266 0.38689C83.0673 0.6436 82.6854 1.01451 82.4191 1.46219L66.3079 28.8291C65.7803 29.7249 65.5025 30.7411 65.5025 31.7755C65.5025 32.8099 65.7803 33.8261 66.3079 34.7219L101.386 94.3039C101.914 95.2006 102.674 95.945 103.589 96.4623C104.504 96.9796 105.542 97.2513 106.598 97.2503H138.821C139.348 97.2488 139.866 97.1116 140.322 96.8524C140.779 96.5932 141.158 96.2211 141.422 95.7733C141.685 95.3255 141.825 94.8177 141.826 94.3006C141.826 93.7835 141.689 93.2752 141.427 92.8265Z" fill="url(#paint0_radial)"/>
<path d="M0.414818 140.56L54.2102 49.2282C54.4741 48.7808 54.8536 48.4093 55.3103 48.1511C55.767 47.8928 56.2848 47.7569 56.8121 47.7569C57.3393 47.7569 57.8574 47.8928 58.3141 48.1511C58.7708 48.4093 59.1501 48.7808 59.414 49.2282L75.5336 76.5706C76.0611 77.4679 76.3387 78.4854 76.3387 79.5211C76.3387 80.5568 76.0611 81.5743 75.5336 82.4716L40.4553 142.054C39.9292 142.95 39.171 143.695 38.2573 144.212C37.3436 144.729 36.3067 145.001 35.2515 145H3.02091C2.48997 145.003 1.96782 144.867 1.50753 144.608C1.04723 144.348 0.665279 143.974 0.400487 143.523C0.135695 143.072 -0.00249281 142.56 3.40419e-05 142.04C0.0025609 141.519 0.145658 141.009 0.414818 140.56Z" fill="url(#paint1_radial)"/>
<path d="M59.4063 144.98H166.997C167.525 144.98 168.043 144.843 168.5 144.584C168.957 144.325 169.336 143.952 169.599 143.504C169.862 143.056 170.001 142.547 170 142.03C169.999 141.512 169.86 141.004 169.595 140.557L153.5 113.198C152.972 112.301 152.212 111.557 151.297 111.04C150.382 110.522 149.344 110.251 148.288 110.252H78.1319C77.0756 110.251 76.0378 110.522 75.1228 111.04C74.2078 111.557 73.4478 112.301 72.9197 113.198L56.8087 140.557C56.544 141.004 56.4043 141.512 56.4035 142.03C56.4028 142.547 56.5409 143.056 56.8042 143.504C57.0675 143.952 57.4467 144.325 57.9035 144.584C58.3603 144.843 58.8785 144.98 59.4063 144.98Z" fill="url(#paint2_radial)"/>
<defs>
<radialGradient id="paint0_radial" cx="0" cy="0" r="1" gradientUnits="userSpaceOnUse" gradientTransform="translate(90.0665) rotate(95.3323) scale(139.991 189.013)">
<stop stop-color="#05D5FF"/>
<stop offset="0.770833" stop-color="#363FF9"/>
<stop offset="1" stop-color="#5533FF"/>
</radialGradient>
<radialGradient id="paint1_radial" cx="0" cy="0" r="1" gradientUnits="userSpaceOnUse" gradientTransform="translate(90.0665) rotate(95.3323) scale(139.991 189.013)">
<stop stop-color="#05D5FF"/>
<stop offset="0.770833" stop-color="#363FF9"/>
<stop offset="1" stop-color="#5533FF"/>
</radialGradient>
<radialGradient id="paint2_radial" cx="0" cy="0" r="1" gradientUnits="userSpaceOnUse" gradientTransform="translate(90.0665) rotate(95.3323) scale(139.991 189.013)">
<stop stop-color="#05D5FF"/>
<stop offset="0.770833" stop-color="#363FF9"/>
<stop offset="1" stop-color="#5533FF"/>
</radialGradient>
</defs>
</svg>
