<svg xmlns="http://www.w3.org/2000/svg" viewBox="0 0 49.6 49"><path fill="#d70000" d="m0 25.9 3.8-.2c1.4 0 9 0 14.6 5.7A23 23 0 0 1 24 47.3V49h3.6v-1.7c0-9.5-3.6-15.2-6.7-18.4-1.6-1.6-3.5-3-3.6-3a22 22 0 0 0-10-3.7Q4.9 22 3.8 22l-3 .1-.8.1z"/><path fill="#ff7800" d="m0 22.2 3.8-.2c1.7 0 10.6.1 17.2 7 6.4 6.4 6.6 14.8 6.7 18.3V49h3.7v-1.7a36 36 0 0 0-1.1-8.9 27 27 0 0 0-3-7.3 25 25 0 0 0-9.2-9c-.7-.3-2.6-1.4-5.4-2.3 0 0-4.3-1.5-9-1.4H.2z"/><path fill="#ffc800" d="m0 18.5 3.7-.1c3.2 0 12.6.6 19.9 8a30 30 0 0 1 7.7 20.9V49H35v-1.7c0-12-4.8-19.3-8.8-23.5 0 0-8.8-9-22.5-9.1l-3 .1H0z"/><path fill="#d70000" d="m0 11.1 3.8-.1c2.4 0 15.3.2 25 10.2 9.5 9.7 9.8 22 9.9 26V49h3.6v-1.8c0-3.6-.3-17.9-10.8-28.6a38 38 0 0 0-11.4-7.8A42 42 0 0 0 .8 7.4H0z"/><path fill="#ff7800" d="M0 7.4h3.8c3 0 12.5.4 21.8 6.5a36 36 0 0 1 6 4.8 43 43 0 0 1 10.7 29.1V49H46v-1.7c0-3.9-.2-19.3-11.8-31.1 0 0-7.1-7.2-18-10.5a49 49 0 0 0-12.4-2h-3l-.8.1z"/><path fill="#ffc800" d="m0 3.8 3.8-.1s4 0 8.2 1c13.5 2.7 22.1 11.5 22.1 11.5 11.5 11.6 11.9 26.8 12 31v1.7h3.5v-1.7c0-16.8-7-27.5-12.8-33.6 0 0-13.3-13.6-33-13.6L.3.1H0z"/></svg>