<svg xmlns="http://www.w3.org/2000/svg" viewBox="0 0 49.64 48.96"><path fill="#d70000" d="m0 25.85 3.8-.19c1.37 0 8.94.06 14.58 5.78 5.37 5.45 5.6 12.6 5.7 15.82q.02 1.06 0 1.69h3.61c0-.59.05-1.16.05-1.69 0-9.44-3.65-15.18-6.71-18.35-1.6-1.66-3.5-2.93-3.61-3.01A22 22 0 0 0 7.4 22.23c-1.64-.21-2.93-.22-3.56-.23-1.6 0-2.78.09-3.05.13l-.78.09z"/><path fill="#ff7800" d="M0 22.22 3.8 22c1.71 0 10.55.14 17.19 6.91 6.36 6.49 6.61 14.92 6.71 18.35a32 32 0 0 1 0 1.7h3.65v-1.7a36 36 0 0 0-1.07-8.82 26.9 26.9 0 0 0-3.05-7.35 25 25 0 0 0-9.11-8.93c-.7-.41-2.65-1.5-5.38-2.4 0 0-4.39-1.43-8.98-1.41-1.24 0-2.65.07-2.65.07l-1.08.05-.02 3.74z"/><path fill="#ffc800" d="m.02 18.48 3.71-.12c3.21 0 12.58.65 19.84 8.03 7.57 7.7 7.72 17.54 7.77 20.88q.01 1.08-.02 1.7h3.65v-1.69c0-11.89-4.78-19.32-8.76-23.45 0 0-8.82-9.02-22.49-9.16-.29 0-2.37.05-3.07.13l-.67.07.02 3.61z"/><path fill="#d70000" d="m.02 11.13 3.77-.16c2.36 0 15.26.18 25.1 10.24 9.44 9.65 9.71 21.9 9.8 25.98.02.71 0 1.38 0 1.78h3.66v-1.78c0-3.55-.36-17.89-10.84-28.55a38 38 0 0 0-11.4-7.8A42 42 0 0 0 .76 7.39l-.75.04v3.7z"/><path fill="#ff7800" d="m.02 7.43 3.77-.08c3.04.07 12.53.41 21.85 6.56a36 36 0 0 1 5.9 4.81C42.11 29.55 42.3 44.49 42.34 47.8v1.17h3.69v-1.7c0-3.84-.26-19.3-11.85-31.08 0 0-7.11-7.23-17.92-10.53A49 49 0 0 0 3.78 3.7c-1.36 0-2.92.07-2.92.07l-.88.04L0 7.43z"/><path fill="#ffc800" d="m0 3.82 3.8-.12s4.09.05 8.23.91C25.5 7.39 34.14 16.15 34.14 16.15c11.49 11.66 11.81 26.84 11.9 31.03q.02 1.14 0 1.77h3.6v-1.72c0-16.79-7.03-27.55-12.89-33.65 0 0-13.25-13.6-33.01-13.57C3.38 0 .76.1.37.13L0 .16z"/></svg>