<svg xmlns="http://www.w3.org/2000/svg" viewBox="0 0 30.79 30.79" fill="#1b334b"><path d="M18.51 15.11a11 11 0 0 0-4.95 1.77c-.86.58-1.58 1.15-1.58 2.19 0 .68.3 1.3.82 1.72.47.38.97.41 1.57.41a5.02 5.02 0 0 0 2.7-1.21l.08-.09c.8-.8 1.38-1.37 1.42-3.01V15.1zm2.88 7.32a2.5 2.5 0 0 1-1.6-.52 4.21 4.21 0 0 1-1.15-1.83l-.03-.08-.06.06c-.9.95-1.7 1.58-2.37 1.9a5.8 5.8 0 0 1-2.44.47c-1.36 0-2.4-.3-3.1-.87a2.77 2.77 0 0 1-1.05-2.23c0-1.36.82-2.51 2.42-3.42 1.62-.9 3.8-1.52 6.5-1.82h.05V12c0-.74-.3-1.38-.9-1.9a3.28 3.28 0 0 0-2.24-.78 4.3 4.3 0 0 0-2.17.52c-.45.27-.67.53-.67.8 0 .16.12.39.36.7.26.37.4.7.4.99 0 .4-.13.75-.4 1-.26.27-.6.4-1.05.4-.46 0-.84-.16-1.15-.47-.3-.31-.46-.72-.46-1.2 0-.93.53-1.78 1.57-2.55A6.85 6.85 0 0 1 16 8.35c1.57 0 2.78.34 3.6 1.02a3.14 3.14 0 0 1 1.24 2.48v7.31c0 .66.11 1.15.33 1.46.22.33.5.5.85.5a2 2 0 0 0 1.16-.44l.46.72a3.11 3.11 0 0 1-2.24 1.02"/><path d="M15.8 28.09a12.7 12.7 0 1 1 0-25.39 12.7 12.7 0 0 1 0 25.39M15.8 0a15.4 15.4 0 1 0-.02 30.79 15.4 15.4 0 0 0 0-30.79"/></svg>