<svg viewBox="0 0 90 90" xmlns="http://www.w3.org/2000/svg"><path d="M44.999.005C20.407.005.359 19.821.005 44.313c-.36 24.875 19.834 45.485 44.727 45.629 7.688.045 15.093-1.835 21.668-5.405.641-.347.74-1.229.195-1.713l-4.21-3.73a2.969 2.969 0 0 0-3.127-.526 36.386 36.386 0 0 1-14.716 2.886C24.427 81.207 8.175 64.482 8.495 44.38 8.812 24.535 25.065 8.487 45 8.487h36.509v64.847L60.794 54.942a1.529 1.529 0 0 0-2.238.235c-3.324 4.4-8.74 7.136-14.756 6.72-8.345-.575-15.105-7.288-15.732-15.624-.747-9.943 7.137-18.272 16.933-18.272 8.857 0 16.153 6.814 16.914 15.472a3.02 3.02 0 0 0 .995 2.002l5.395 4.779c.612.541 1.584.21 1.733-.594a25.55 25.55 0 0 0 .373-6.466c-.87-12.662-11.131-22.846-23.807-23.627-14.53-.896-26.68 10.465-27.066 24.706-.376 13.878 11.002 25.841 24.89 26.147a25.344 25.344 0 0 0 15.516-4.851l27.064 23.975C88.17 90.572 90 89.75 90 88.2V1.707C90 .764 89.235 0 88.292 0H45l-.002.005Z" fill="#003DFF"/></svg>