<svg xmlns="http://www.w3.org/2000/svg" fill="#fff" height="26.197" width="26.197"><path d="M24.464 10.47c0-3.41-.76-6-2.4-7.79s-4.94-2.68-8-2.68a17.34 17.34 0 00-8.75 2.33.55.55 0 00-.27.48l.23 3.76a.67.67 0 001.1.39c3.75-2.31 8.25-2.74 10.54-1.58a4 4 0 012 3.61v.55h-6.25c-2.69 0-10.93 1-10.93 8.57v.08a7.34 7.34 0 002.67 6.08 10.56 10.56 0 006.68 1.91h12.65a.74.74 0 00.74-.74v-15zm-5.55 11.09h-7.47a4.62 4.62 0 01-2.65-.93 2.94 2.94 0 01-1.25-2.46c0-1.35.91-4.05 5.46-4.05h5.91z" fill="#ff5a00"/></svg>