<svg xmlns="http://www.w3.org/2000/svg" width="42.803" height="21.47"><g fill="none" fill-rule="evenodd"><path d="M-5-6h140v60H-5Z"/><path fill="#ff9800" d="m42.556 20.875-9.618-1.484 8.8-4.452a.29.29 0 0 0-.174-.543l-9.772 1.522 7.018-6.946a.289.289 0 0 0-.336-.462l-8.76 4.492 4.414-8.723a.29.29 0 0 0-.463-.334l-6.932 7.01 1.63-9.755a.292.292 0 0 0-.195-.323.294.294 0 0 0-.35.142l-4.533 8.857L21.792.245A.29.29 0 0 0 21.507 0a.29.29 0 0 0-.286.245l-1.512 9.626-4.49-8.89a.287.287 0 0 0-.347-.145.29.29 0 0 0-.196.321l1.62 9.883-7.02-7.183a.29.29 0 0 0-.465.334l4.57 8.916-8.948-4.626a.288.288 0 0 0-.368.087.293.293 0 0 0 .031.376l7.187 7.016-9.943-1.615a.287.287 0 0 0-.32.196.288.288 0 0 0 .144.347l8.936 4.484-9.855 1.503a.286.286 0 0 0-.244.307c.01.152.138.267.287.267h42.224a.288.288 0 0 0 .044-.573"/><path fill="#fbce20" d="M30.753 21.47c.006-.114-.05-.185-.127-.197l-4.116-.635 3.766-1.904a.154.154 0 0 0 .077-.18.154.154 0 0 0-.168-.105l-4.183.653 3.005-2.976a.151.151 0 0 0 .015-.195.148.148 0 0 0-.19-.046l-3.753 1.923 1.89-3.733a.149.149 0 0 0-.048-.19.149.149 0 0 0-.194.016l-2.966 3 .699-4.176a.153.153 0 0 0-.102-.167.149.149 0 0 0-.182.074l-1.94 3.793-.641-4.124a.15.15 0 0 0-.298 0l-.646 4.121-1.922-3.807a.155.155 0 0 0-.183-.076.154.154 0 0 0-.103.168l.694 4.23-3.003-3.077a.15.15 0 0 0-.196-.015.147.147 0 0 0-.047.189l1.956 3.82-3.83-1.982a.153.153 0 0 0-.194.046.153.153 0 0 0 .017.196l3.077 3.004-4.257-.69a.15.15 0 0 0-.168.101.154.154 0 0 0 .076.182l3.824 1.918-4.217.644c-.078.012-.136.082-.128.197h18.706"/></g></svg>