<svg xmlns="http://www.w3.org/2000/svg" viewBox="0 0 42.8 21.5"><path fill="#ff9800" d="m42.6 20.9-9.7-1.5 8.8-4.5a.3.3 0 0 0-.1-.5l-9.8 1.5 7-7a.3.3 0 0 0-.3-.4L29.7 13l4.4-8.7a.3.3 0 0 0-.4-.4l-7 7 1.7-9.7a.3.3 0 0 0-.2-.3.3.3 0 0 0-.4.1l-4.5 9L21.8.2a.3.3 0 0 0-.3-.2.3.3 0 0 0-.3.2L19.7 10l-4.5-9a.3.3 0 0 0-.3 0 .3.3 0 0 0-.2.3l1.6 9.8-7-7.1a.3.3 0 0 0-.5.3l4.6 9-9-4.7a.3.3 0 0 0-.3 0A.3.3 0 0 0 4 9l7.2 7-10-1.6a.3.3 0 0 0-.3.2.3.3 0 0 0 .2.4l8.9 4.5L.1 21a.3.3 0 0 0-.2.3c0 .1.1.2.3.2h42.2a.3.3 0 0 0 0-.5"/><path fill="#fbce20" d="m30.8 21.5-.2-.2-4-.7 3.7-1.9a.2.2 0 0 0 0-.1.2.2 0 0 0-.1-.2l-4.2.7 3-3a.2.2 0 0 0 0-.2.1.1 0 0 0-.2 0l-3.7 2L27 14a.1.1 0 0 0 0-.2.1.1 0 0 0-.3 0l-3 3 .8-4.2a.2.2 0 0 0-.1-.1.1.1 0 0 0-.2 0l-2 3.8-.6-4.1a.1.1 0 0 0-.3 0l-.6 4.1-2-3.8a.2.2 0 0 0-.2 0 .2.2 0 0 0 0 .1L19 17l-3-3a.1.1 0 0 0-.2 0 .1.1 0 0 0 0 .1l2 3.9-3.9-2a.2.2 0 0 0-.2 0 .2.2 0 0 0 0 .2l3.1 3-4.2-.7a.1.1 0 0 0-.2.1.2.2 0 0 0 0 .2l3.9 2-4.2.6c-.1 0-.2 0-.2.2h18.8"/></svg>
