<svg xmlns="http://www.w3.org/2000/svg" width="111.473" height="111.473"><g transform="translate(0 14.468)"><circle cy="54.669" cx="83.605" fill="#0ba5e0" r="27.868"/><circle r="27.868" cy="54.669" cx="27.868" fill="#0c528b"/><circle r="27.868" cy="27.868" cx="55.737" fill="#86bd07"/><path d="M83.584 26.8a27.868 27.868 0 00-27.848 27.87 27.868 27.868 0 00.022 1.066 27.868 27.868 0 0027.847-27.869 27.868 27.868 0 00-.021-1.066z" fill="#40bae8"/><path d="M27.89 26.8a27.868 27.868 0 00-.02 1.067 27.868 27.868 0 0027.845 27.87 27.868 27.868 0 00.021-1.067A27.868 27.868 0 0027.891 26.8z" fill="#4078a5"/></g></svg>