<svg xmlns="http://www.w3.org/2000/svg" width="153.249" height="153.249" clip-rule="evenodd" fill-rule="evenodd" stroke-linejoin="round" stroke-miterlimit="1.414"><g transform="matrix(6.78093 0 0 -6.78093 -10319.219 5165.034)"><clipPath id="a"><path d="M1457.1 739.1h87.3v22.6h-87.3z"/></clipPath><g clip-path="url(#a)"><path d="M1534.6 744.49v11.78c0 .95-.4 1.26-1.3 1.26h-2.7v-1.3h.3c.5 0 .7-.19.7-.77v-10.97zm1.6 0h2.9v8.89c0 .9-.4 1.26-1.3 1.26h-1.6zm-6.2 0v10.15h-1.6c-.9 0-1.3-.36-1.3-1.26v-8.89zm12.5 5.92c0-5.51-4-9.53-9.4-9.53s-9.4 4.02-9.4 9.53 4 9.53 9.4 9.53 9.4-4.02 9.4-9.53m1.9 0c0 6.45-4.8 11.29-11.3 11.29-6.4 0-11.3-4.84-11.3-11.29 0-6.47 4.9-11.31 11.3-11.31 6.5 0 11.3 4.84 11.3 11.31" fill="#003781"/></g></g></svg>