<svg xmlns="http://www.w3.org/2000/svg" viewBox="0 0 100 77.3"><path fill="#64f67b" d="M81 23.9c-2.7-5.2-4.8-7.8-7.6-7.8s-4.3 1.6-6.2 4.5c-1.5 2-2.7 4.7-5.3 4.4S58 18.8 56 13.8C53.4 7.1 52 0 47.6 0c-2.5 0-4.6 2.3-8 7.3l-34.5 53c-4 6.6-7.4 11.3-3.3 15.6 5 4.8 16.6-3.6 24.5-8.6s16.1-9.9 27.6-9.6c15.5.3 23 15.8 32.2 18.8 6.5 2 12.2-.3 13.4-7a17.2 17.2 0 0 0-2.2-10.8ZM80 55c-3.3 2.3-7.6-1.4-10.4-3a29.4 29.4 0 0 0-17.2-5.6 25.8 25.8 0 0 0-15.8 5.9c-9.7 6.4-18.3 14.1-20.7 10.2-1.6-2.5 2.6-7.6 12.8-23.2 7-11.2 12.1-20 15.7-20s4.2 3.9 4.7 7.9c1.2 6.4 4.3 9.7 8.3 10.1 4.5.6 8.4-3.2 11.5-3.2s4.8 4.2 7.2 8.6c3 5.4 6.1 10.6 3.8 12.3Z"/></svg>