<svg xmlns="http://www.w3.org/2000/svg" viewBox="0 0 100 77.345" width="100" height="77.345"><path fill="#64f67b" d="M80.986 23.88c-2.707-5.188-4.802-7.767-7.541-7.767s-4.383 1.611-6.22 4.512c-1.482 1.934-2.772 4.673-5.317 4.415s-3.9-6.22-5.865-11.215C53.432 7.058 51.917 0 47.599 0c-2.481 0-4.608 2.256-7.96 7.283L5.06 60.296c-3.996 6.639-7.316 11.279-3.223 15.63 4.931 4.77 16.565-3.577 24.492-8.605s16.113-9.894 27.554-9.668c15.469.354 22.978 15.856 32.227 18.82 6.445 2.03 12.214-.322 13.439-6.897a17.209 17.209 0 0 0-2.288-10.828Zm-1.063 31.131c-3.223 2.32-7.509-1.418-10.313-2.997a29.391 29.391 0 0 0-17.177-5.575 25.782 25.782 0 0 0-15.856 5.865c-9.668 6.445-18.24 14.115-20.722 10.184-1.579-2.514 2.675-7.541 12.891-23.236 7.026-11.15 12.053-19.916 15.63-19.916s4.189 3.867 4.77 7.863c1.128 6.445 4.222 9.668 8.25 10.119 4.512.612 8.379-3.223 11.473-3.223s4.802 4.254 7.187 8.605c3.029 5.382 6.155 10.57 3.867 12.311Z"/></svg>