<svg xmlns="http://www.w3.org/2000/svg" width="505mm" height="505mm" viewBox="0 0 505 505"><path d="M66.68 171.184c-11.76 2.352-22.52 7.233-32.28 14.64-9.76 7.41-17.639 16.522-23.636 27.341-5.997 10.819-9.466 22.813-10.407 35.983-.94 13.17 1.647 26.694 7.761 40.57 7.526 15.757 17.933 27.517 31.221 35.278 13.288 7.761 25.342 11.995 36.16 12.7 4.469-4.703 11.936-12.7 22.401-23.989 10.467-11.289 17.934-19.285 22.402-23.989-18.11 0-30.28-.059-36.512-.176-6.233-.118-11.348-1.235-15.347-3.351-13.875-7.527-20.637-19.11-20.284-34.749.353-15.64 8.878-26.518 25.576-32.632 9.643-2.823 19.873-1.235 30.692 4.762 10.819 5.998 16.228 16.875 16.228 32.632v8.467c0-.235-.118 8.114-.353 25.047v44.451h48.684v-81.845c0-11.525-2.529-22.754-7.586-33.69-5.056-10.937-12.111-20.403-21.166-28.4-9.055-7.996-19.873-13.875-32.455-17.639-12.583-3.763-26.282-4.233-41.1-1.41zm199.672-62.794h50.8v226.484h-50.8zm-74.789 0h50.447v226.484h-50.447zm-71.261 181.328v-.352zM451.914 171.89l-32.808 99.836-34.573-99.836h-52.916l61.736 162.984-25.4 61.736h52.21l84.668-224.72z" fill="#650360"/></svg>