<svg xmlns="http://www.w3.org/2000/svg" viewBox="0 0 90 90"><path fill="#1E282E" d="M0 0h90v90H0z"/><path fill="#FFF" d="M22.73 61.1l.5-5.83h3.02l.42 5.82h8.63l-4.82-32.4h-12.2L14 61.08h8.73zM26 49.51h-2.88c.21-2.87.75-7.4 1.6-13.6.43 5.4.85 9.93 1.28 13.6z"/><path fill="#6C777D" d="M46.57 61.77c2.38 0 4.38-.52 6-1.58 1.62-1.05 2.67-2.28 3.14-3.68.47-1.4.71-3.78.71-7.13v-1.26H48v4.06c0 1.78-.1 2.9-.29 3.39-.2.48-.6.72-1.23.72-.65 0-1.07-.24-1.26-.72a10.5 10.5 0 01-.28-3.09V37.43c0-1.64.1-2.71.28-3.2.19-.5.63-.74 1.32-.74.62 0 1.01.2 1.2.6.17.41.26 1.44.26 3.08v5.64h8.43v-3.08c0-3.03-.25-5.26-.76-6.7a6.91 6.91 0 00-3.18-3.59C50.86 28.48 48.8 28 46.33 28c-1.83 0-3.45.31-4.85.93a7.98 7.98 0 00-3.3 2.55 7.36 7.36 0 00-1.44 3.38 42.1 42.1 0 00-.24 5.25v9.47c0 3.18.26 5.56.78 7.14a6.52 6.52 0 003.19 3.71c1.6.9 3.63 1.34 6.1 1.34z"/><path fill="#FFF" d="M71.42 61.09V35.17h5v-6.49H58v6.49h4.99v25.92z"/></svg>