<svg xmlns="http://www.w3.org/2000/svg" viewBox="0 0 90 90"><path fill="#00AEFF" d="M81.25 21.94L45.25.22c-.45-.3-.97-.3-1.5 0l-36 21.72c-.45.3-.75.75-.75 1.35V66.7c0 .53.3 1.05.75 1.35l36 21.72c.23.14.45.22.75.22.22 0 .52-.08.75-.22l36-21.72c.45-.3.75-.75.75-1.35v-43.5c0-.52-.3-1.05-.75-1.27zm-8.59 7.79l6.35-3.82v18.72l-4.78 2.77-1.5-1.58v-16.1h-.07zM44.5 3.29l33.1 19.92-6.36 3.82-5.15-3.14c.15-.3.15-.6.15-.9 0-.9-.6-1.8-1.57-2.4a6.3 6.3 0 00-5.98 0c-.97.6-1.5 1.42-1.5 2.4 0 .9.6 1.8 1.58 2.4a6.3 6.3 0 002.99.74c.6 0 1.2-.07 1.79-.22l4.78 2.92L44.5 43.2l-6.57-3.97 4.85-3.07a6.35 6.35 0 004.7-.52c.98-.6 1.58-1.42 1.58-2.4 0-.9-.6-1.8-1.57-2.4a5.55 5.55 0 00-2.99-.74 6.3 6.3 0 00-2.99.75c-.97.6-1.57 1.42-1.57 2.4 0 .37.08.67.23.97L35 37.44l-5.6-3.37 15.84-9.51c.45-.3.74-.75.74-1.35V15.8a4.9 4.9 0 001.57-.6c.97-.6 1.57-1.42 1.57-2.32 0-.9-.52-1.8-1.57-2.4a6.3 6.3 0 00-2.99-.75c-1.12 0-2.16.23-2.98.75-.97.6-1.57 1.43-1.57 2.32 0 .9.52 1.8 1.57 2.4.44.3.97.45 1.57.6v6.59L26.5 32.35l-7.47-4.5-7.62-4.64 6.65-3.97 4.85 2.85c-.07.3-.15.52-.15.82 0 .9.52 1.8 1.5 2.4.82.52 1.86.75 2.98.75a6.3 6.3 0 003-.75c.96-.6 1.56-1.42 1.56-2.4 0-.9-.52-1.8-1.5-2.4a5.54 5.54 0 00-2.98-.74c-.67 0-1.27.07-1.87.3l-4.4-2.62L44.5 3.29zM9.91 25.83l7.62 4.57L25 34.9v6.36l-7.99 8.46c-.3.3-.45.67-.45 1.05v6.14c-1.04.14-2.02 1.04-2.02 2.84 0 2.02 1.27 4.42 3 5.4.52.3 1.04.52 1.56.52 1.2 0 2.4-.9 2.4-2.92 0-1.65-.83-3.45-2.02-4.65v-6.74l7.99-8.38c.3-.3.45-.68.45-1.05v-5.24l5.6 3.37v6.29c-1.05.15-2.02 1.05-2.02 2.84 0 2.02 1.27 4.42 2.99 5.4.52.3 1.05.52 1.57.52 1.2 0 2.39-.9 2.39-2.92 0-1.65-.82-3.45-2.02-4.64v-5.77l6.58 3.97v39.9l-9.04-5.46V68.21c0-.22-.08-.45-.15-.67L29.63 59c.23-.45.3-.97.3-1.57 0-2.02-1.27-4.42-2.98-5.4a3.26 3.26 0 00-1.57-.52c-1.2 0-2.4.9-2.4 2.92 0 2.03 1.28 4.42 3 5.4.3.22.67.3.97.37l4.1 8.31v9.8L9.91 65.6V25.83zM54.14 80.8V66.34l2.46-5.1 3.06-1.79c.45.67 1.12.97 1.8.97.52 0 1.04-.15 1.57-.52A7.01 7.01 0 0066 54.43c0-2.02-1.2-2.92-2.39-2.92-.52 0-1.04.15-1.57.53a7.03 7.03 0 00-2.76 4.12l-4.48 2.62c-.23.15-.45.37-.6.6l-2.84 5.84c-.07.22-.15.45-.15.67v16.55L46 85.58V45.82l23.76-14.37v14.97c0 .38.15.83.45 1.05l2.76 2.85c.3.3.67.45 1.05.45.22 0 .52-.08.74-.23l4.41-2.62v17.67L54.14 80.8z"/></svg>