<svg xmlns="http://www.w3.org/2000/svg" width="326" height="326" viewBox="17.25 93.46 326 326"><path d="M314.5 415.195c0 2.78-1.27 4.17-3.93 4.17h-89.83c-2.66 0-3.93-1.39-3.93-4.17 0-2.54 1.27-3.7 3.93-3.7h23.62l-68.99-237.85L113 362.895s-13.08 37.6-13.08 48.6h24.3c2.67 0 4.06 1.27 4.06 3.7 0 2.78-1.4 4.17-4.05 4.17H49.57c-2.43 0-3.58-1.39-3.58-4.17 0-2.54 1.15-3.7 3.58-3.7h17.37a469.4 469.4 0 0018.64-40.28c5.67-13.77 21.64-56.6 26.39-71.64l74.77-200.93c1.15-3.35 2.89-5.09 5.32-5.09 1.74 0 3.13 1.74 3.94 5.1l58.68 202.3 32.06 110.54h23.84c2.66 0 3.93 1.27 3.93 3.7z"/><path d="M88.58 361.615l1.04-2.55c-7.87-2.9-14.35-5.9-15.28-10.65-3.12-15.16 40.63-36.92 97.8-48.6 57.18-11.81 105.9-9.04 109.03 6 1.28 6.14-4.86 14.24-16.09 22.35-.46.34-1.85 1.04-2.31 1.39 17.48-10.42 28.36-22.34 26.27-32.18-4.16-20.37-57.87-26.5-120.02-13.77-62.04 12.73-108.91 39.7-104.75 60.07 1.74 8.1 11 14.7 24.3 17.94z" fill="#d0202e" stroke="#d0202e" stroke-width="1.61"/><path d="M262.42 330.365l-.58-1.16.7-1.16 1.04 3.94"/></svg>