<svg xmlns="http://www.w3.org/2000/svg" version="1.1" id="Layer_1" x="0" y="0" width="44.901" height="44.9" xml:space="preserve"><style id="style1194"></style><g id="g2012" transform="translate(.142)" fill-opacity="1" stroke-width="1"><path d="M44.758 24.3V0h-44.9v44.9h44.9V31.8c-.1 0 0-7.5 0-7.5" id="path1197" fill="#016fd0"/><path d="M44.759 7.422h-6.367l-1.708 3.838-1.71-3.838h-8.251v5.604l-2.496-5.604h-6.739L10.272 23.63h5.68v14.267h17.884l2.848-3.054 2.847 3.054h5.228z" id="path1925" fill="#fff" stroke="none" stroke-linecap="butt" stroke-linejoin="miter" stroke-opacity="1"/><path d="M44.759 26.184l-3.282 3.519 3.282 3.519z" id="path1933" fill="#016fd0" stroke="none" stroke-linecap="butt" stroke-linejoin="miter" stroke-opacity="1"/><path id="path1957" d="M18.799 9.264l-5.516 12.392h3.485l1.115-2.504h5.84l1.115 2.504h3.754L23.074 9.264zm9.793 12.392h3.318v-8.431l3.043 8.431h3.375l3.07-8.431v8.431h3.36V9.264h-5.295l-2.78 7.636-2.779-7.636h-5.312zm-7.79-9.062l1.698 3.81h-3.395z" fill="#016fd0" stroke="none" stroke-linecap="butt" stroke-linejoin="miter" stroke-opacity="1"/><path d="M18.043 23.63H28.66v2.76h-7.306v2.16h6.997v2.576h-6.997v2.111h7.306v2.806H18.043z" id="path1986" fill="#016fd0" stroke="none" stroke-linecap="butt" stroke-linejoin="miter" stroke-opacity="1"/><path d="M28.66 23.63h4.524l3.5 3.808 3.55-3.808h4.525l-5.788 6.206 5.788 6.207h-4.524l-3.526-3.78-3.525 3.78H28.66l5.787-6.207z" id="path1988" fill="#016fd0" stroke="none" stroke-linecap="butt" stroke-linejoin="miter" stroke-opacity="1"/></g></svg>