<svg xmlns="http://www.w3.org/2000/svg" width="1741.3" height="1741.3"><path d="M0 796.5s36.8 17.4 112.1 17.4h449.3s46.3 2.1 70.5 41.7c24.2 39.5-1.1 85.7-4.2 92.1-3.2 6.3-10.5 30 3.7 33.7 14.2 3.7 18.4.4 23.7-7.7 5.2-8.1 154.8-220.9 157.8-224.6 3-3.7 8.3-24.7-16.3-55.2 0 0 36.8 18.9 71.6 18.9h149.4s69.4-2.8 62.6 66.3c-3.7 34.7-21 134.1-21 134.1s-6.3-18.9-40-18.9c0 0-5.8 23.9-4.2 42.2 1.6 18.3 15.8 46.2 48.9 46.2 33.1 0 36.3-24.1 36.3-27.8v-65.3c0-7.9 11.1-74.2 77.3-74.2h458.6s77.8-4.4 105.2-17.7c0 0-21.7 79.3-110.8 79.3h-446.9s-16.8.7-16.8 16.8v68c0 9.5-14.7 85.6-104.5 85.6S946.5 961 946.5 936.5s11.9-98.5 13.7-101c1.7-2.5 24.5-9.8 47.7 2.5 0 0 5.9-29.1 4.6-46-1.3-16.9-17.2-20.5-24.2-20.5H877.2l-167.7 236s-25 39.7-72.2 39.7-82.1-42.1-82.1-79.6c-.7-10.5 9.1-43.5 20-68.2 0-5.1 3.2-22.2-15.8-22.2H117S31.4 880 0 796.5z" fill="#044c86"/><path d="M898.9 788.8h57.6s.8 22.9-13.9 24.5c-14.6 1.5-43.7-24.5-43.7-24.5z" fill="#044c86"/><path d="M1681 899.5s-18.4 10.5-48.4 10.5h-425.1c-4 .4-7.1 3.9-6.8 7.9 0 7.4 1.7 49.5-1.2 55.5h371.3c-.1.1 81.8 4.5 110.2-73.9zM171.4 973.3s-81.8 4.6-110.2-73.8c0 0 18.4 10.5 48.4 10.5h415s6.6-.5 6.6 7.4-10.5 21-10.5 56z" fill="#6b83b1"/></svg>