<svg xmlns="http://www.w3.org/2000/svg" fill="none" viewBox="0 0 41.97 41.97"><g fill="#008061"><path d="m30.32 32.7 1.15.76a8.56 8.56 0 0 1 3.9-3.15l-.15-1.46a9.8 9.8 0 0 0-4.9 3.85zm-2.34-.94 1.32.48a11.75 11.75 0 0 1 7.67-5.55l-.27-1.41a12.8 12.8 0 0 0-8.72 6.49zm-4.7.39 1.33-.33c-2.9-9.3-9.79-16.35-19.18-19.13l-.34 1.39c9.21 2.63 15.65 9.88 18.2 18.07zm-7.57.08 1.35-.39a16.26 16.26 0 0 0-11.85-9.3L5 23.91a14.88 14.88 0 0 1 10.7 8.31z"/><path d="m5.15 25.59-.2 1.4a11.3 11.3 0 0 1 7.92 5.25l1.26-.6c-1.99-3.29-5.24-5.49-8.98-6.05zm1.06 3.25-.17 1.4a8.9 8.9 0 0 1 4.82 3.35l1.16-.69a10.25 10.25 0 0 0-5.81-4.06zm20.21.6-.49-1.28A18.05 18.05 0 0 1 38.67 20l-.34-1.4a19.4 19.4 0 0 0-13.06 8.02l-.57-1.18c3.23-4.55 8-7.64 13.28-8.66l-.34-1.37a22.67 22.67 0 0 0-13.68 8.69l-.76-1.28a25.89 25.89 0 0 1 13.26-9.01l-.45-1.36a27.23 27.23 0 0 0-13.63 9.14l-.73-1a31.02 31.02 0 0 1 13.67-9.8l-.48-1.35a31.94 31.94 0 0 0-4.68 2.14c.82-1.76 1.8-3.47 2.97-4.91l-1.07-.91a27.62 27.62 0 0 0-3.93 7.05c-.6.4-1.2.82-1.77 1.25.95-3.5 2.54-6.94 4.67-9.7l-1.15-.8a30.23 30.23 0 0 0-5.28 11.94c-.54.46-1.06.94-1.56 1.45A35.8 35.8 0 0 1 27.7 3.67l-1.2-.73a36.99 36.99 0 0 0-5 15.67c-.25.28-.5.57-.73.87a33.4 33.4 0 0 0-.42-.5A35.03 35.03 0 0 1 25.65 1.4l-1.21-.7a36.46 36.46 0 0 0-5.4 16.84l-1.15-1.13A38.83 38.83 0 0 1 22.52.7l-1.2-.7a40.1 40.1 0 0 0-4.7 15.3 33.7 33.7 0 0 0-1.07-.84c.55-4.73 1.63-9 3.26-12.74l-1.16-.8a39.42 39.42 0 0 0-1.7 4.62 21.85 21.85 0 0 0-1.94-3.26l-1.03.98a20.46 20.46 0 0 1 2.4 4.41 48.56 48.56 0 0 0-.58 2.61 19 19 0 0 0-3.4-6.27l-1.02.96a21.06 21.06 0 0 1 3.94 8.28l-.03.28a33.5 33.5 0 0 0-1.5-.98A22.01 22.01 0 0 0 9 5.72l-.94 1.07a20.36 20.36 0 0 1 2.82 4.67 31.48 31.48 0 0 0-4.52-1.93L6 10.92a31.1 31.1 0 0 1 19.68 20.72l1.14-.05a14.83 14.83 0 0 1 10.32-8.06l-.26-1.41c-4.65.96-8.27 3.8-10.47 7.31z"/><path d="M22.68 37.53c-.07-.75-.11-3.2-.13-3.99-2.34-8.77-8.8-15.75-18.41-17.76l-.26 1.4a22.3 22.3 0 0 1 17 15.54l-.8.29A20.38 20.38 0 0 0 3.53 19l-.24 1.4c8.94 1.14 15.03 8.77 15.65 14.33.05.4.07 2.28 0 2.98-.16 1.45-.66 1.67-.97 1.85-1.28.77-4.86 1.17-4.86 1.17v1.24c1.8 0 4.6-.3 8-.3 3.4 0 6.13.3 7.7.3v-1.24s-2.85-.52-4.86-1.17c-1.1-.47-1.18-.86-1.28-2.03z"/></g></svg>
