<svg xmlns="http://www.w3.org/2000/svg" width="41.968" height="41.968" fill="none"><g fill="#008061"><path d="m30.324 32.705 1.147.753c.883-1.371 2.583-2.704 3.901-3.144l-.156-1.46c-1.856.582-3.817 2.16-4.892 3.851zM27.979 31.765l1.32.477c1.714-2.86 4.545-4.954 7.67-5.556l-.265-1.41c-3.688.74-6.839 3.062-8.725 6.49zM23.287 32.15l1.32-.325c-2.896-9.312-9.786-16.35-19.172-19.13l-.341 1.38c9.207 2.64 15.65 9.889 18.193 18.075zM15.71 32.233l1.347-.391a16.263 16.263 0 0 0-11.852-9.309l-.193 1.387a14.876 14.876 0 0 1 10.698 8.313z"/><path d="m5.151 25.59-.2 1.4c3.279.49 6.137 2.392 7.923 5.246l1.26-.59C12.14 28.352 8.89 26.153 5.15 25.59zM6.206 28.842l-.169 1.401c1.913.516 3.611 1.7 4.825 3.349l1.157-.689c-1.43-2.027-3.491-3.468-5.813-4.061zM26.422 29.435l-.489-1.276c2.914-4.503 7.583-7.468 12.738-8.149l-.345-1.402c-5.202.736-9.933 3.632-13.056 8.026l-.573-1.18c3.236-4.551 7.996-7.645 13.281-8.667l-.336-1.371c-5.393 1.067-10.27 4.152-13.68 8.69l-.764-1.274c3.417-4.384 8.06-7.519 13.265-9.013l-.45-1.362c-5.322 1.546-10.078 4.722-13.631 9.148l-.728-.998c3.583-4.483 8.356-7.896 13.667-9.806l-.482-1.347a31.94 31.94 0 0 0-4.677 2.136c.816-1.759 1.807-3.471 2.964-4.912l-1.063-.908c-1.634 2.04-2.956 4.566-3.933 7.052-.606.396-1.195.815-1.772 1.251.952-3.509 2.542-6.94 4.676-9.696l-1.156-.798c-2.575 3.376-4.387 7.657-5.282 11.928-.533.465-1.052.948-1.554 1.449.594-4.818 2.553-9.81 4.647-13.285l-1.19-.728c-2.229 3.725-4.553 9.445-5.006 15.667-.25.284-.494.574-.734.869-.139-.17-.281-.338-.424-.506.21-6.227 2.046-12.475 5.318-17.563L24.44.703c-3.13 4.923-4.981 10.853-5.404 16.85-.108-.11-1.142-1.138-1.142-1.138.468-5.679 2.06-11.141 4.629-15.712L21.32 0c-2.51 4.486-4.122 9.779-4.701 15.306a33.705 33.705 0 0 0-1.064-.85c.55-4.722 1.63-8.998 3.256-12.737L17.646.925a39.424 39.424 0 0 0-1.693 4.615 21.85 21.85 0 0 0-1.946-3.258l-1.031.974a20.46 20.46 0 0 1 2.397 4.415 48.556 48.556 0 0 0-.57 2.612c-.739-2.274-1.886-4.47-3.398-6.278l-1.023.964c1.883 2.31 3.34 5.53 3.94 8.276l-.036.283c-.49-.338-.988-.665-1.493-.975-.797-2.45-2.316-5.06-3.804-6.833l-.937 1.07c1.092 1.325 2.034 2.92 2.813 4.673a31.477 31.477 0 0 0-4.52-1.93l-.339 1.382c8.756 2.99 16.496 10.145 19.686 20.723l1.138-.049c2.074-4.223 5.888-7.152 10.32-8.062l-.263-1.41c-4.642.959-8.267 3.809-10.465 7.318z"/><path d="M22.68 37.527c-.067-.751-.11-3.203-.128-3.986-2.337-8.767-8.794-15.749-18.415-17.758l-.256 1.388c6.394 1.261 13.95 5.887 16.998 15.545l-.806.29c-2.43-7.514-8.918-13.005-16.53-14.01l-.246 1.4c8.94 1.141 15.034 8.77 15.658 14.338.045.4.066 2.271-.009 2.973-.155 1.452-.654 1.669-.964 1.854-1.283.771-4.861 1.168-4.861 1.168v1.24c1.796-.008 4.6-.3 8.005-.3 3.394 0 6.127.296 7.7.296v-1.236s-2.851-.518-4.861-1.166c-1.112-.478-1.18-.864-1.285-2.036z"/></g></svg>