<svg xmlns="http://www.w3.org/2000/svg" width="44.901" height="44.9" xml:space="preserve"><path d="M44.9 24.3V0H0v44.9h44.9V31.8c-.1 0 0-7.5 0-7.5" fill="#016fd0"/><path d="M44.901 7.422h-6.367l-1.708 3.838-1.71-3.838h-8.251v5.604l-2.496-5.604H17.63L10.414 23.63h5.68v14.267h17.884l2.848-3.054 2.847 3.054h5.228z" fill="#fff"/><path d="m44.901 26.184-3.282 3.519 3.282 3.519zM18.941 9.264l-5.516 12.392h3.485l1.115-2.504h5.84l1.115 2.504h3.754L23.216 9.264zm9.793 12.392h3.318v-8.431l3.043 8.431h3.375l3.07-8.431v8.431h3.36V9.264h-5.295l-2.78 7.636-2.779-7.636h-5.312zm-7.79-9.062 1.698 3.81h-3.395zM18.185 23.63h10.617v2.76h-7.306v2.16h6.997v2.576h-6.997v2.111h7.306v2.806H18.185z" fill="#016fd0"/><path d="M28.802 23.63h4.524l3.5 3.808 3.55-3.808h4.525l-5.788 6.206 5.788 6.207h-4.524l-3.526-3.78-3.525 3.78h-4.524l5.787-6.207z" fill="#016fd0"/></svg>