<svg xmlns="http://www.w3.org/2000/svg" xmlns:xlink="http://www.w3.org/1999/xlink" width="39.563" height="39.563"><defs><path id="a" d="M.06 39.6V.037h39.5V39.6z"/><path id="b" d="M.586 31.94V.623h26.263V31.94z"/><mask id="c" fill="#fff"><use xlink:href="#a" width="100%" height="100%"/></mask><mask id="d" fill="#fff"><use xlink:href="#b" width="100%" height="100%"/></mask></defs><g fill-rule="evenodd"><path d="M39.561 19.816c0 10.927-8.856 19.784-19.781 19.784C8.858 39.6 0 30.743 0 19.816 0 8.893 8.858.037 19.78.037c10.925 0 19.781 8.856 19.781 19.779" fill="#003456" mask="url(#c)" transform="translate(-.029 -.037)"/><path fill="#fffffe" d="M36.686 19.761l-8.467-3.509 3.5-8.456-8.498 3.519.042-.022-3.512-8.457-3.505 8.457-8.46-3.497 3.512 8.456-8.472 3.509 8.472 3.509-3.512 8.457 8.46-3.498 3.505 8.469 3.512-8.469 8.455 3.498-3.5-8.457 8.468-3.509"/><path fill="#003456" mask="url(#d)" transform="translate(11.971 8.963)" d="M17.959.623L.586 7.818l7.194 2.98 2.981 7.189L17.959.623"/></g></svg>