<svg xmlns="http://www.w3.org/2000/svg" width="82.849" height="82.849" viewBox="0 0 21.921 21.921"><path d="M5.957 3.976H4.23L0 14.121h2.39l.828-1.974h3.75l.828 1.974h2.39zm-2.076 6.245l1.212-3.165 1.213 3.165zM12.581 6.694h-2.085v7.427h2.27V8.983c.177-.167.382-.312.6-.417.253-.122.88-.343 1.335.037.351.295.365.99.365 1.188v4.33h2.254V9.673c0-.272-.031-.538-.074-.807.207-.14.438-.24.666-.34.516-.23 1.106-.116 1.298.018.416.29.457.947.457 1.247v4.33h2.254V9.704c0-.812-.115-1.834-.844-2.494-.734-.665-1.865-.682-2.102-.69-1.395.022-2.45.769-2.45.769-.503-.513-1.736-.991-2.75-.635-.11.04-.657.213-1.101.649zM.087 16.032h21.834v1.912H.087z" fill="#00154e"/></svg>