<svg xmlns="http://www.w3.org/2000/svg" width="225.119" height="225.119"><path d="M150.82 57.632c-17.654-19.168-35.307-16.14-38.334-15.637 1.513.504 3.027 33.796 21.69 51.45 12.61 11.6 38.335 7.565 38.335 7.565s-4.54-24.715-21.69-43.378m21.187 65.07c-5.55 0-28.248 2.018-43.38 20.68-15.637 19.673-15.133 35.31-18.664 38.84 3.027 1.01 34.805 4.035 48.424-16.645 13.114-19.17 13.62-39.85 13.62-42.876m-138.211-13.62c3.53.505 15.637 16.142 37.327 18.16 23.707 2.523 31.777-9.583 32.283-9.583 0-1.514-19.168-22.194-40.353-22.194-14.63.503-29.257 13.617-29.257 13.617m86.254 10.594c-.504.504-20.175 26.734-66.582 19.672C16.142 133.294 2.523 112.612 0 112.108c3.027-4.036 31.275-26.734 64.06-26.23 32.284 1.01 55.99 19.168 55.99 19.168h20.68c-16.644-5.044-36.82-14.123-45.9-34.3-8.07-18.662-6.557-29.76-10.088-45.396 0 0 37.326-3.027 66.078 15.636 26.23 17.15 40.857 62.547 41.362 64.06h16.14l-3.529-80.706 20.176.504c-3.53 21.186 1.01 172.51 0 172.51-2.017.503-19.168 1.51-20.68-2.524 0 0 4.035-74.148 4.54-75.662H193.19c0 1.01-1.513 42.875-33.29 65.07-31.78 22.194-77.68 15.636-77.68 15.636 5.55-8.575 0-17.654 16.14-42.37 18.664-28.247 43.38-38.336 42.877-38.336-1.513.506-20.68.506-21.186.506" fill="#9cbe30" fill-rule="evenodd"/></svg>