<svg xmlns="http://www.w3.org/2000/svg" width="31.4" height="31.4"><path d="M23.1 13.4c1.3.2 2.2.8 2.7 1.6s.8 2.2.8 4c0 3.6-1.1 6.6-3.3 8.9-2.2 2.3-5 3.5-8.4 3.5-1.3 0-2.6-.2-3.9-.7-1.3-.5-2.3-1.2-3.2-2-1-.9-1.8-2-2.3-3-.4-1.1-.7-2.2-.7-3.3 0-1.2.3-2.2.8-2.9.5-.7 1.4-1.1 2.5-1.4-.2-.5-.4-.9-.5-1.3-.1-.3-.2-.6-.2-.8 0-.6.3-1.3 1-2s1.3-1 1.9-1c.3 0 .5 0 .8.1.3.1.6.2 1 .5-.9-3-1.8-5.5-2.3-7.2-.5-1.7-.7-2.8-.7-3.5 0-.9.2-1.6.7-2.1.4-.5 1.1-.8 1.9-.8 1.3 0 3 3 5.1 9.1.4 1 .6 1.8.8 2.4.2-.4.4-1.1.7-1.9 2.1-6 3.9-9 5.3-9 .7 0 1.3.2 1.8.7.4.5.7 1.2.7 2 0 .6-.2 1.8-.7 3.5-.6 1.7-1.3 3.9-2.3 6.6zM7.7 22.2c.2.2.5.6.8 1.1.9 1.3 1.8 2 2.6 2 .3 0 .5-.1.7-.3.2-.2.3-.4.3-.5 0-.2-.1-.6-.4-1.1-.3-.5-.7-1.1-1.2-1.7-.6-.7-1.1-1.3-1.4-1.6-.4-.3-.7-.5-.9-.5-.5 0-1 .3-1.4.8-.4.5-.6 1.2-.6 1.9 0 .6.1 1.2.4 2 .3.7.7 1.5 1.3 2.2.9 1 1.9 1.9 3.2 2.5 1.3.6 2.6.9 4.2.9 2.8 0 5.1-1 7-3.1 1.9-2.1 2.8-4.7 2.8-7.9 0-1-.1-1.7-.2-2.3-.1-.6-.4-1-.7-1.2-.6-.5-1.7-.9-3.4-1.3s-3.5-.6-5.3-.6c-.5 0-.9.1-1.1.3-.2.2-.3.5-.3.9 0 1 .5 1.7 1.6 2.1 1.1.4 2.9.7 5.3.7h.9c.2 0 .4.1.5.2.1.2.2.4.2.7-.2.2-.7.5-1.5.8-.8.3-1.3.6-1.7.9-.9.6-1.6 1.4-2.1 2.3-.5.9-.8 1.7-.8 2.5 0 .5.1 1 .3 1.7.2.7.3 1.1.3 1.2v.4c-.6 0-1.1-.4-1.5-1.1-.4-.7-.5-1.6-.5-2.8v-.2c-.1.1-.2.2-.3.2-.1 0-.2.1-.4.1H14c-.1 0-.2-.1-.4-.1 0 .2.1.3.1.5v.4c0 .5-.2 1-.6 1.4-.4.4-.9.6-1.5.6-.9 0-1.8-.4-2.8-1.3-.9-.9-1.4-1.7-1.4-2.6 0-.2 0-.3.1-.4 0-.5.1-.6.2-.7zm6.5.5c.2 0 .5-.1.7-.3.2-.2.3-.5.3-.7 0-.3-.2-.9-.6-1.9-.4-1-.9-2-1.5-2.9-.4-.7-.9-1.3-1.3-1.6-.4-.4-.8-.5-1.2-.5-.3 0-.6.2-1 .6-.4.4-.5.7-.5 1.1 0 .3.2.9.5 1.6.4.7.8 1.4 1.4 2.2.6.8 1.2 1.5 1.8 2 .6.2 1 .4 1.4.4zm2.1-10.4l-2.4-6.7c-.6-1.7-1-2.9-1.4-3.4-.3-.5-.6-.8-1-.8-.3 0-.5.1-.7.3-.3.3-.4.6-.4 1 0 .7.3 1.8.8 3.4.5 1.6 1.3 3.8 2.3 6.4.1-.2.2-.3.4-.3.2-.1.4-.1.6-.1h.5c.3.1.7.1 1.3.2zm2.4 6.5c-.6 0-1.2-.1-1.8-.2-.6-.1-1.1-.2-1.6-.4.2.5.4.9.6 1.4.2.5.3.9.4 1.4.3-.4.7-.8 1.1-1.2.5-.4.9-.7 1.3-1zm2.9-5.8c1-2.6 1.7-4.8 2.3-6.5.5-1.7.8-2.7.8-3.1 0-.4-.1-.7-.3-1-.2-.2-.4-.3-.7-.3-.4 0-.8.3-1.2 1-.4.7-.9 1.7-1.4 3.2l-2.2 6.2z"/></svg>