<?xml version="1.0" encoding="UTF-8"?>
        <!-- Generator: Adobe Illustrator 19.0.0, SVG Export Plug-In . SVG Version: 6.00 Build 0)  -->
<svg width="295.33" height="50" version="1.1" viewBox="0 0 295.33 50" xml:space="preserve" xmlns="http://www.w3.org/2000/svg" xmlns:cc="http://creativecommons.org/ns#" xmlns:dc="http://purl.org/dc/elements/1.1/" xmlns:rdf="http://www.w3.org/1999/02/22-rdf-syntax-ns#"><metadata><rdf:RDF><cc:Work rdf:about=""><dc:format>image/svg+xml</dc:format><dc:type rdf:resource="http://purl.org/dc/dcmitype/StillImage"/><dc:title/></cc:Work></rdf:RDF></metadata>
    <style type="text/css">
	.st0{fill:#3AE7E1;}
	.st1{fill:#F5F7FA;}
</style>
    <g id="XMLID_1_" transform="matrix(.15571 0 0 .15571 -8.0487 -6.2909)">
	<g id="XMLID_29_">
		<path id="XMLID_41_" class="st0" d="m107.8 179.5c-4.6 0.7-9.5-1-12.6-5-4.5-5.8-3.5-14.1 2.3-18.7l37-28.9c5.8-4.5 14.1-3.5 18.7 2.3 4.5 5.8 3.5 14.1-2.3 18.7l-37 28.9c-1.8 1.5-3.9 2.4-6.1 2.7z" style="fill:#3ae7e1"/>
	</g>
        <g id="XMLID_30_">
		<path id="XMLID_40_" class="st1" d="m71.9 207.7c-4.6 0.7-9.5-1-12.6-4.9-4.5-5.8-3.5-14.1 2.3-18.7l3.5-2.7c5.8-4.5 14.1-3.5 18.7 2.3 4.5 5.8 3.5 14.1-2.3 18.7l-3.5 2.7c-1.8 1.4-3.9 2.3-6.1 2.6z" style="fill:#f5f7fa"/>
	</g>
        <g id="XMLID_31_">
		<path id="XMLID_39_" class="st0" d="m67.1 283.6c-4.6 0.7-9.5-1-12.6-5-4.5-5.8-3.5-14.1 2.3-18.7l81.2-63.4c5.8-4.5 14.2-3.5 18.7 2.3s3.5 14.1-2.3 18.7l-81.2 63.5c-1.9 1.4-4 2.3-6.1 2.6z" style="fill:#3ae7e1"/>
	</g>
        <g id="XMLID_34_">
		<path id="XMLID_38_" class="st1" d="m182.8 193.6c-4.6 0.7-9.5-1-12.6-5-4.5-5.8-3.5-14.1 2.3-18.7l12.9-10.1c5.8-4.5 14.1-3.5 18.7 2.3 4.5 5.8 3.5 14.1-2.3 18.7l-12.9 10.1c-1.9 1.4-4 2.3-6.1 2.7z" style="fill:#f5f7fa"/>
	</g>
        <g id="XMLID_32_">
		<path id="XMLID_37_" class="st0" d="m175.7 271.1c-4.6 0.7-9.5-1-12.6-5-4.5-5.8-3.5-14.1 2.3-18.7l66.6-52c5.8-4.5 14.2-3.5 18.7 2.3s3.5 14.1-2.3 18.7l-66.6 52c-1.8 1.5-3.9 2.4-6.1 2.7z" style="fill:#3ae7e1"/>
	</g>
        <path id="XMLID_36_" class="st1" d="m139.3 300c-4.6 0.7-9.5-1-12.6-5-4.5-5.8-3.5-14.2 2.3-18.7l4.7-3.7c5.8-4.5 14.2-3.5 18.7 2.3s3.5 14.2-2.3 18.7l-4.7 3.7c-1.9 1.5-4 2.4-6.1 2.7z" style="fill:#f5f7fa"/>
        <path id="XMLID_44_" class="st0" d="m475 40.4h-308.8c-11.5 0-22.2 7.1-25.6 18.1-1.6 5.1-1.5 10.3 0 15 1.5 4.8 4.5 9.2 8.7 12.5 0 0 118.3 91.9 147.3 111.9 10.4 6.7 20.5 4.4 26.5-0.2l150.1-116.8v201.9c0 19.7-16 35.7-35.7 35.7h-283.7c-7.3 0-13.2 5.9-13.2 13.2 0 7.4 6 13.4 13.4 13.4h283.4c34.4 0 62.3-27.9 62.3-62.3v-217.7c0.1-13.6-11-24.7-24.7-24.7zm-213.6 110.1 0.1-0.7 0.4 0.6zm48.3 24-137.5-107.5h275.5z" style="fill:#3ae7e1"/>
        <g id="XMLID_81_">
		<g id="XMLID_4_">
			<path id="XMLID_25_" class="st0" d="m791.7 281.8c2.4 6.5 0 9.8-6.8 9.8h-15.5c-12.2 0-16.1-1.8-18.4-8.9l-13.7-38.4h-82.1l-14 38.4c-2.4 7.1-6.2 8.9-18.4 8.9h-13.7c-6.8 0-9.2-3.3-6.8-9.8l74.3-193.3c2.7-6.8 5.4-8.3 12.5-8.3h15.8c7.1 0 10.1 1.8 12.5 8zm-87.4-130.8c-3.6-10.7-5.9-24.4-6.8-31.2l-0.3-5.1h-2.1c0 11.3-2.1 23.2-6.5 36l-22.9 63h61.3z" style="fill:#3ae7e1"/>
            <path id="XMLID_28_" class="st0" d="m881.8 133.2c41.6 0 61.8 21.4 61.8 59.8v89.5c0 6.8-2.4 9.2-9.2 9.2h-16.4c-6.8 0-8.9-2.4-8.9-9.2v-88.6c0-19.3-10.7-29.1-32.4-29.1-9.5 0-19 1.2-28.5 3.9-1.5 0.6-2.1 1.5-2.1 3v110.9c0 6.8-2.1 9.2-8.9 9.2h-16.4c-6.8 0-9.2-2.4-9.2-9.2v-122.4c0-9.5 2.1-13.1 11.6-16.9 17-6.9 36.3-10.1 58.6-10.1z" style="fill:#3ae7e1"/>
            <path id="XMLID_65_" class="st0" d="m971.6 192.6c0-37.2 24.7-59.5 68.4-59.5 44 0 68.7 22.3 68.7 59.5v44c0 37.2-24.7 59.5-68.7 59.5-43.7 0-68.4-22.3-68.4-59.5zm102.6 0c0-18.1-12.5-28.2-34.2-28.2s-33.9 10.1-33.9 28.2v44c0 17.8 12.2 28.2 33.9 28.2s34.2-10.4 34.2-28.2z" style="fill:#3ae7e1"/>
            <path id="XMLID_68_" class="st0" d="m1207.7 133.2c41.6 0 61.8 21.4 61.8 59.8v89.5c0 6.8-2.4 9.2-9.2 9.2h-16.4c-6.8 0-8.9-2.4-8.9-9.2v-88.6c0-19.3-10.7-29.1-32.4-29.1-9.5 0-19 1.2-28.5 3.9-1.5 0.6-2.1 1.5-2.1 3v110.9c0 6.8-2.1 9.2-8.9 9.2h-16.4c-6.8 0-9.2-2.4-9.2-9.2v-122.4c0-9.5 2.1-13.1 11.6-16.9 16.9-6.9 36.3-10.1 58.6-10.1z" style="fill:#3ae7e1"/>
		</g>
            <g id="XMLID_24_">
			<path id="XMLID_70_" class="st1" d="m1477.7 281.8c2.4 6.5 0 9.8-6.8 9.8h-15.5c-12.2 0-16.1-1.8-18.4-8.9l-13.7-38.4h-82.1l-14 38.4c-2.4 7.1-6.2 8.9-18.4 8.9h-13.7c-6.8 0-9.2-3.3-6.8-9.8l74.3-193.3c2.7-6.8 5.4-8.3 12.5-8.3h15.8c7.1 0 10.1 1.8 12.5 8zm-87.5-130.8c-3.6-10.7-5.9-24.4-6.8-31.2l-0.3-5.1h-2.1c0 11.3-2.1 23.2-6.5 36l-22.9 63h61.3z" style="fill:#f5f7fa"/>
                <path id="XMLID_73_" class="st1" d="m1490.7 195.3c0-40.4 20.8-62.1 62.1-62.1 9.2 0 20.8 1.2 35.4 3.9v-56.3c0-6.8 2.1-9.2 8.9-9.2h16.4c6.8 0 9.2 2.4 9.2 9.2v189.4c0 9.5-2.4 12.5-11.9 16.4-16.9 6.2-35.4 9.5-55.6 9.5-43.1 0-64.5-19.9-64.5-60.1zm97.6-26.7c-11.9-2.7-21.4-3.9-28.8-3.9-22.9 0-34.2 10.4-34.2 31.5v38.7c0 19.9 11 29.7 33.3 29.7 10.4 0 19.6-1.2 27.4-3.3 1.5-0.6 2.4-1.8 2.4-3.3v-89.4z" style="fill:#f5f7fa"/>
                <path id="XMLID_76_" class="st1" d="m1651.9 195.3c0-40.4 20.8-62.1 62.1-62.1 9.2 0 20.8 1.2 35.4 3.9v-56.3c0-6.8 2.1-9.2 8.9-9.2h16.4c6.8 0 9.2 2.4 9.2 9.2v189.4c0 9.5-2.4 12.5-11.9 16.4-16.9 6.2-35.4 9.5-55.6 9.5-43.1 0-64.5-19.9-64.5-60.1zm97.5-26.7c-11.9-2.7-21.4-3.9-28.8-3.9-22.9 0-34.2 10.4-34.2 31.5v38.7c0 19.9 11 29.7 33.3 29.7 10.4 0 19.6-1.2 27.4-3.3 1.5-0.6 2.4-1.8 2.4-3.3v-89.4z" style="fill:#f5f7fa"/>
                <path id="XMLID_79_" class="st1" d="m1939.1 137.6c6.8 0 9.2 2.1 9.2 8.9v150.2c0 40.7-20.5 64.8-65.4 64.8-29.4 0-50.3-9.5-61.8-28.5-4.2-6.5-3-11.6 3.9-14.9l11.3-6.2c7.1-3.6 10.4-2.7 14.9 3.6 6.2 10.1 16.6 15.2 31.2 15.2 21.1 0 31.5-10.7 31.5-32.1v-14c-12.2 2.7-24.1 4.2-35.4 4.2-41.6 0-62.1-21.4-62.1-59.8v-82.4c0-6.8 2.4-8.9 9.2-8.9h16.4c6.8 0 8.9 2.1 8.9 8.9v81.2c0 19.6 10.7 29.4 32.4 29.4 9.8 0 19.9-1.5 30.6-4.2v-106.5c0-6.8 2.4-8.9 9.2-8.9z" style="fill:#f5f7fa"/>
		</g>
	</g>
</g>
</svg>