<svg xmlns="http://www.w3.org/2000/svg" viewBox="0 0 69.77 47.45"><path fill="#3ae7e1" d="M8.75 21.66a2.08 2.08 0 0 1-1.6-3.69l5.75-4.5a2.08 2.08 0 0 1 2.56 3.27l-5.76 4.5c-.28.23-.61.37-.95.42zM2.4 37.87a2.08 2.08 0 0 1-1.6-3.7l12.65-9.86A2.08 2.08 0 0 1 16 27.58L3.36 37.46c-.3.22-.62.36-.95.4zm16.9-1.95a2.08 2.08 0 0 1-1.6-3.69l10.38-8.1a2.08 2.08 0 0 1 2.56 3.28l-10.37 8.1c-.28.23-.6.37-.95.41zM65.92.01H17.84c-1.8 0-3.46 1.1-4 2.8a4 4 0 0 0 1.36 4.3s18.43 14.3 22.94 17.42a3.5 3.5 0 0 0 4.13-.04L65.64 6.31v31.43a5.56 5.56 0 0 1-5.56 5.56H15.9c-1.14 0-2.06.92-2.06 2.06a2.1 2.1 0 0 0 2.09 2.09h44.13a9.7 9.7 0 0 0 9.7-9.7V3.84A3.83 3.83 0 0 0 65.9 0zM40.18 20.87 18.78 4.14h42.9z"/><path fill="#f5f7fa" d="M3.16 26.05a2.1 2.1 0 0 1-1.97-.76c-.7-.9-.54-2.2.36-2.91l.55-.42a2.08 2.08 0 0 1 2.55 3.27l-.54.42a2.1 2.1 0 0 1-.95.4zm17.26-2.19a2.08 2.08 0 0 1-1.6-3.7l2-1.57a2.08 2.08 0 0 1 2.56 3.27l-2 1.58c-.3.21-.63.35-.96.42zm-6.77 16.56a2.08 2.08 0 0 1-1.6-3.69l.73-.57a2.08 2.08 0 0 1 2.55 3.27l-.73.57a2 2 0 0 1-.95.42z"/></svg>