<svg xmlns="http://www.w3.org/2000/svg" version="1.1" id="layer" x="0" y="0" xml:space="preserve" width="130.933" height="130.933"><style type="text/css" id="style87"></style><path d="M53.33 78.436c-28.8-25.9-27-41.9 0-66.1 2.8-2.6 6-5.3 9.4-8 .2-.2.4-.2.5-.1.1.1.2.3 0 .5-3.6 4.7-7 9-9.9 13.2-13.3 18.5-18.5 33.3 0 57.4 2 2.6 4.4 5.4 7 8.3.4.7-.6.5-.5.4-2.3-1.9-4.5-3.8-6.5-5.6m16.9-69.3c-1.7 2.1-3.3 4.1-4.8 6-4.2 5.4-7.6 10.5-9.9 15.8-3.9 8.8-4.6 18 0 28.8 2.1 5 5.4 10.3 9.9 15.9.8 1 1.6 2 2.5 3 .2.2.1.7-.4.4-.7-.6-1.4-1.2-2.1-1.7-3.8-3.4-7.2-6.7-9.9-9.8-13.3-15.6-13.8-30.3 0-45.9 2.7-3.1 6-6.3 9.9-9.5 1.3-1.1 2.7-2.2 4.2-3.4.6-.6.8 0 .6.4m-9.7 112.7c1.7-2 3.4-4 4.8-6 4.1-5.3 7.6-10.5 9.9-15.7 3.9-8.8 4.7-18.1 0-28.8-2.1-4.9-5.3-10.2-9.9-15.9-.8-1-1.7-2-2.6-3-.2-.1-.1-.6.5-.3.7.5 1.4 1.1 2.1 1.8 3.8 3.3 7.2 6.6 9.9 9.8 13.3 15.5 13.8 30.2 0 45.9-2.7 3.1-6.1 6.2-9.9 9.5-1.3 1-2.7 2.2-4.2 3.3-.6.4-.8-.2-.6-.6m16.9-69.3c28.8 25.9 27 42 0 66.2-2.8 2.6-6 5.3-9.4 8-.2.1-.4.1-.5.1-.1-.1-.2-.4 0-.5 3.6-4.7 7-9 9.9-13.2 13.3-18.6 18.6-33.3 0-57.5-2-2.6-4.4-5.4-7-8.3-.4-.6.7-.5.5-.4 2.4 1.9 4.6 3.8 6.5 5.6m-3.4 77.9c1.9-2.1 3.9-4.2 5.6-6.2 27.4-31 32.9-46.3 0-78.8-.8-.7-1.6-1.5-2.4-2.3-.3-.4.1-.6.3-.4.7.4 1.4.9 2.1 1.4 49.9 33.9 35.3 54.9 0 82.7-1.5 1.2-3 2.4-4.7 3.6l-.5.4c-.3.2-.7.1-.4-.4m-17.3-130c-1.9 2.2-3.9 4.3-5.6 6.2-27.4 31-32.9 46.2 0 78.9.8.7 1.6 1.5 2.5 2.3.3.4 0 .6-.3.4-.7-.5-1.4-.9-2.1-1.4-49.8-34-35.2-55 0-82.7 1.6-1.2 3.1-2.4 4.8-3.7l.5-.4c.2-.1.5 0 .2.4" id="path89" fill="#95cb5b" fill-opacity="1"/></svg>