<svg xmlns="http://www.w3.org/2000/svg" width="41.662" height="41.662"><path fill="#010101" d="M20.326 21.938h4.677l-.712-7.714z"/><path fill="#010101" d="M35.572 6.112a20.83 20.83 0 106.09 14.723 20.73 20.73 0 00-6.09-14.723zm-9.555 26.544l-.607-6.212H17.99l-3.15 6.212H7.623l3.455-6.212H7.115l2.642-4.506h3.76l7.725-13.923h8.232l3.049 24.641z"/><path fill="#fff" d="M21.242 7.914l-7.724 13.927H9.757l-2.642 4.505h3.963L7.623 32.55h7.216l3.15-6.21h7.421l.61 6.21h6.402l-3.05-24.637zm-.916 14.024l3.965-7.613.712 7.613z"/></svg>