<svg xmlns="http://www.w3.org/2000/svg" viewBox="0 0 50 50"><g fill="none"><path fill="#009DE1" d="M38.487 47.876h.443v-.936h.357c.167-.009.334.016.492.074a.641.641 0 0 1 .233.591v.333h.419a.312.312 0 0 1 0-.136v-.382a.697.697 0 0 0-.148-.393.606.606 0 0 0-.43-.247.855.855 0 0 0 .356-.123.529.529 0 0 0 .258-.492.627.627 0 0 0-.393-.64 1.898 1.898 0 0 0-.689-.099h-.886l-.012 2.45zm1.23-1.367a1.195 1.195 0 0 1-.43 0h-.394v-.8h.381a1.04 1.04 0 0 1 .541.099c.12.082.182.226.16.37a.394.394 0 0 1-.258.393m1.292-1.514a2.3 2.3 0 1 0 .676 1.625 2.218 2.218 0 0 0-.676-1.625m-.234.221c.382.365.592.875.578 1.404a1.981 1.981 0 1 1-3.949 0 1.972 1.972 0 0 1 1.213-1.84 1.966 1.966 0 0 1 2.158.436"/><path fill="#FFF" d="M27.638 20.903a1.908 1.908 0 0 0-1.414 2.82l6.15 11.436a13.277 13.277 0 0 0 4.219-15.105l-8.955.85zm5.142 11.265-4.711-9.012c-.11-.283-.074-.492.418-.517l6.716-.628c.228.906.34 1.837.332 2.77a11.386 11.386 0 0 1-2.755 7.387zm-16.827 2.979 6.089-11.437a1.909 1.909 0 0 0-1.427-2.818l-8.893-.85a13.39 13.39 0 0 0-.849 4.678 13.228 13.228 0 0 0 5.08 10.427zM13.05 21.999l6.729.628c.492 0 .516.234.406.517l-4.711 9.024a11.43 11.43 0 0 1-2.743-7.387 11.64 11.64 0 0 1 .32-2.782zm18.365 13.788h-.013.013zm5.104-15.758h.012zm-13.21 6.106-6.458 9.652a13.237 13.237 0 0 0 14.551 0l-6.445-9.652a.946.946 0 0 0-1.648 0zm5.461 9.012a11.448 11.448 0 0 1-9.287 0l4.453-6.82a.26.26 0 0 1 .197-.111.235.235 0 0 1 .184.11l4.453 6.82zm-5.252-17.506c0-.75-.086-.997-.714-1.81a1.673 1.673 0 1 1 2.645 0c-.615.813-.738 1.06-.701 1.81.037.751.615 1.44 1.956 1.465h9.421a13.246 13.246 0 0 0-11.998-7.64 13.25 13.25 0 0 0-12 7.64h9.435c1.329-.025 1.931-.812 1.956-1.465zm3.272-.628a2.907 2.907 0 0 0 .504-3.311 11.294 11.294 0 0 1 5.498 3.545H26.84c-.11.012-.16-.11-.05-.234zm-5.375.283h-6.003a11.304 11.304 0 0 1 5.547-3.594 2.958 2.958 0 0 0 .505 3.262.168.168 0 0 1-.049.332z"/><path fill="#009DE1" d="M48.18 13.948H34.772V.529H13.42v13.419H0v21.457h13.42v13.419h21.352V35.405H48.18V13.948zm-24.047-2.462c5.142 0 9.818 2.981 11.992 7.645h-9.421c-1.341 0-1.932-.813-1.956-1.465-.025-.653.086-.997.701-1.81.532-.688.45-1.67-.19-2.258a1.671 1.671 0 0 0-2.264 0 1.675 1.675 0 0 0-.19 2.258c.627.813.75 1.059.713 1.81-.037.75-.627 1.44-1.956 1.465h-9.434a13.247 13.247 0 0 1 12.005-7.67v.025zm7.27 24.3a13.235 13.235 0 0 1-14.552 0l6.458-9.65a.945.945 0 0 1 1.648-.001l6.445 9.652zM10.885 24.782a13.37 13.37 0 0 1 .848-4.678l8.881.862a1.91 1.91 0 0 1 1.427 2.82L15.953 35.22a13.226 13.226 0 0 1-5.067-10.44zM32.3 35.208l-6.15-11.436a1.906 1.906 0 0 1 1.415-2.819l8.88-.862a13.277 13.277 0 0 1-4.219 15.105l.074.012z"/><path fill="#009DE1" d="M20.185 23.144c.11-.283.086-.492-.406-.517l-6.729-.628a11.737 11.737 0 0 0-.32 2.782 11.43 11.43 0 0 0 2.744 7.387l4.71-9.024zm.775-9.442a11.302 11.302 0 0 0-5.548 3.594h5.953a.16.16 0 0 0 0-.283 2.957 2.957 0 0 1-.406-3.311zm7.527 8.925c-.492 0-.529.234-.418.517l4.71 9.024a11.377 11.377 0 0 0 2.756-7.387 10.986 10.986 0 0 0-.332-2.72l-6.716.566zm4.305-5.331a11.302 11.302 0 0 0-5.498-3.594 2.908 2.908 0 0 1-.504 3.262c-.111.123 0 .246 0 .283l6.002.05zm-8.856 11.031-4.453 6.82a11.448 11.448 0 0 0 9.287 0l-4.453-6.82a.233.233 0 0 0-.184-.111.26.26 0 0 0-.197.11z"/></g></svg>