<svg xmlns="http://www.w3.org/2000/svg" viewBox="0 0 48.18 48.28"><path fill="#009de1" d="M48.18 13.42h-13.4V0H13.41v13.42H0v21.45h13.42v13.41h21.35v-13.4h13.41z"/><path fill="#fff" d="M27.58 20.32a1.9 1.9 0 0 0-1.42 2.82l6.15 11.44a13.28 13.28 0 0 0 4.22-15.1zm5.14 11.27-4.71-9c-.11-.3-.07-.5.42-.53l6.7-.64c.24.9.35 1.84.35 2.77a11.39 11.39 0 0 1-2.76 7.4zm-16.83 2.98 6.1-11.44a1.9 1.9 0 0 0-1.43-2.82l-8.9-.85a13.39 13.39 0 0 0-.85 4.68 13.23 13.23 0 0 0 5.08 10.43zm-2.9-13.15 6.73.63c.5 0 .5.23.4.51l-4.7 9.03a11.43 11.43 0 0 1-2.75-7.39 11.64 11.64 0 0 1 .32-2.78zm18.36 13.8zm5.1-15.77h.02zm-13.2 6.1-6.46 9.66a13.24 13.24 0 0 0 14.55 0l-6.44-9.65a.95.95 0 0 0-1.65 0zm5.46 9.02a11.45 11.45 0 0 1-9.3 0l4.47-6.82a.26.26 0 0 1 .2-.1.23.23 0 0 1 .18.1zm-5.25-17.5c0-.76-.1-1-.72-1.82a1.67 1.67 0 1 1 2.65 0c-.62.81-.74 1.06-.7 1.81.03.75.6 1.44 1.95 1.47h9.42a13.25 13.25 0 0 0-12-7.64 13.25 13.25 0 0 0-12 7.64h9.44c1.33-.03 1.93-.82 1.96-1.47zm3.27-.64a2.9 2.9 0 0 0 .5-3.3 11.3 11.3 0 0 1 5.5 3.54h-5.95c-.11 0-.16-.1-.05-.24zm-5.38.3h-6a11.3 11.3 0 0 1 5.55-3.6 2.96 2.96 0 0 0 .5 3.25.17.17 0 0 1-.05.34z"/></svg>