<svg width="1237" height="1237" xmlns="http://www.w3.org/2000/svg"><path d="M1234.373 253.77c0-62.244-50.407-112.651-112.651-112.651s-112.651 50.407-112.651 112.651 50.407 112.651 112.651 112.651 112.651-50.407 112.651-112.651" fill="#4362b7"/><path d="M478.667 915.312c-163.191 0-295.526-132.335-295.526-295.526S315.476 324.26 478.667 324.26s295.526 132.335 295.526 295.526-132.335 295.526-295.526 295.526zm0-774.193C214.396 141.119 0 355.382 0 619.786s214.263 478.667 478.667 478.667c111.587 0 214.263-38.171 295.526-102.144v102.144h183.008V619.786c0-264.271-214.263-478.667-478.667-478.667" fill="#040606"/></svg>