<?xml version="1.0" encoding="UTF-8"?><svg width="1237" height="1237" version="1.1" viewBox="0 0 1237 1237" xmlns="http://www.w3.org/2000/svg"><g transform="matrix(1.33 0 0 -1.33 0 960)"><g transform="matrix(.1 0 0 .1 1.47e-5 -104)"><path d="m9281 6350c0 468-379 847-847 847s-847-379-847-847 379-847 847-847 847 379 847 847" fill="#4362b7"/><path d="m3599 1376c-1227 0-2222 995-2222 2222s995 2222 2222 2222 2222-995 2222-2222-995-2222-2222-2222zm0 5821c-1987 0-3599-1611-3599-3599s1611-3599 3599-3599c839 0 1611 287 2222 768v-768h1376v3599c0 1987-1611 3599-3599 3599" fill="#040606"/></g></g></svg>