<svg xmlns="http://www.w3.org/2000/svg" width="114" height="114"><g fill="#4296d8"><path d="M26.031 64.812c-3.384-1.335-8.994-2.808-15.252-1.863-4.516.676-6.724 2.186-7.976 3.223-2.037 1.688-3.485 4.659-1.27 7.741 2.246 3.12 23.02 27.516 28.504 33.822.808.928 2.492 2.16 4.653 1.713 2.73-.581 5.81-3.773 7.019-6.085.88-1.688 1.492-3.03 2.054-5.467 1.982-8.561-.097-16.79-4.066-22.24-3.775-5.168-9.247-9.108-13.666-10.844M111.2 66.172c-1.245-1.037-3.466-2.547-7.975-3.223-6.264-.946-11.876.527-15.251 1.862-4.421 1.737-9.9 5.677-13.667 10.845-3.97 5.45-6.046 13.679-4.065 22.24.568 2.437 1.161 3.779 2.053 5.467 1.206 2.312 4.288 5.504 7.012 6.085 2.167.448 3.847-.785 4.654-1.713 5.492-6.306 26.258-30.702 28.508-33.822 2.21-3.084.768-6.053-1.268-7.741M57.002 35.188c5.005 0 10.652 4.293 10.66 10.221 0 3.33-1.079 5.906-2.65 8.235-1.022 1.532-1.8 3.257-2.106 4.508-.33 1.42-1.09 4.833 3.137 4.905 2.732.047 9.475-2.305 14.928-8.826a30.517 30.517 0 006.691-19.12c0-16.935-13.724-30.654-30.66-30.654-16.943 0-30.661 13.719-30.661 30.654 0 7.233 2.504 13.88 6.69 19.12 5.45 6.52 12.198 8.873 14.922 8.826 4.234-.072 3.474-3.485 3.144-4.905-.311-1.25-1.09-2.976-2.114-4.508-1.568-2.33-2.646-4.905-2.646-8.235.005-5.928 5.653-10.221 10.665-10.221"/></g></svg>