<svg xmlns="http://www.w3.org/2000/svg" viewBox="0 0 113.2 105.1"><path fill="#4296d8" d="M25.6 60.4a31 31 0 0 0-15.2-1.9c-4.5.7-6.7 2.2-8 3.3-2 1.7-3.5 4.6-1.3 7.7 2.3 3.1 23 27.5 28.5 33.8a5 5 0 0 0 4.7 1.7c2.7-.5 5.8-3.7 7-6a27.7 27.7 0 0 0-2-27.7 33.3 33.3 0 0 0-13.7-10.9m85.2 1.4c-1.2-1-3.5-2.6-8-3.3a30.1 30.1 0 0 0-29 12.8 27.7 27.7 0 0 0-2 27.7c1.3 2.3 4.4 5.5 7 6a5 5 0 0 0 4.8-1.7C89 97 109.8 72.6 112 69.5c2.2-3 .7-6-1.3-7.7m-54.2-31c5 0 10.7 4.3 10.7 10.2 0 3.3-1.1 6-2.7 8.2-1 1.6-1.8 3.3-2 4.6-.4 1.4-1.2 4.8 3 5 2.8 0 9.5-2.4 15-9a30.5 30.5 0 0 0 6.7-19 30.7 30.7 0 0 0-61.4-.2 30.7 30.7 0 0 0 6.7 19.2c5.5 6.6 12.2 9 15 9 4.2-.2 3.4-3.6 3-5-.2-1.3-1-3-2-4.6a13.9 13.9 0 0 1-2.7-8.2c0-6 5.7-10.2 10.7-10.2"/></svg>