<svg xmlns="http://www.w3.org/2000/svg" version="1.1" x="0" y="0" width="998" height="998" xml:space="preserve" id="svg1027"><style type="text/css" id="style1004">.st0{fill:none}.st1{fill:#fff}</style><path d="M699.564 390.726c-18.76.001-35.517 4.212-53.098 14.362-47.415 27.376-65.858 81.746-52.308 129.835l-67.843 39.17v-163.46c48.748-12.075 86.869-55.64 86.869-110.647 0-58.038-38.655-85.907-114.11-161.362-75.746 75.748-114.091 103.176-114.091 161.362 0 52.074 35.84 98.22 86.672 110.687V574.07l-67.81-39.152c13.542-48.086-4.9-102.448-52.31-129.82-17.582-10.15-34.34-14.362-53.099-14.362-34.87 0-76.676 14.538-143.696 32.495 27.725 103.472 32.304 150.402 82.694 179.494 17.73 10.237 37.447 15.234 57.05 15.234 29.842 0 59.337-11.686 81.226-34l95.945 55.397V719H237v55h524v-55H526.315v-79.647l95.973-55.407c21.89 22.316 51.386 34.003 81.23 34.003 19.6 0 39.32-4.997 57.048-15.233 50.391-29.093 54.969-76.023 82.694-179.494-67.02-17.958-108.826-32.498-143.696-32.496zM345.877 533.63c-10.724 18.574-29.965 29.663-51.471 29.663-10.478 0-20.755-2.735-29.717-7.909-20.102-11.606-26.534-27.706-43.601-93.802 34.205-9.543 59.456-16.178 77.27-16.178 9.769 0 16.992 1.974 25.765 7.039 28.38 16.385 38.14 52.806 21.754 81.187zM499.004 359.42c-32.771 0-59.433-26.662-59.433-59.434 0-23.21 10.729-36.834 59.427-84.655 48.7 47.856 59.44 61.529 59.44 84.655 0 32.772-26.662 59.434-59.434 59.434zm234.151 195.953c-8.963 5.176-19.239 7.91-29.716 7.91-21.508 0-40.75-11.09-51.473-29.664-7.688-13.315-9.885-29.615-6.028-44.722 3.946-15.45 13.813-28.401 27.782-36.466 8.771-5.064 15.998-7.038 25.776-7.038 17.81 0 43.06 6.635 77.26 16.178-17.067 66.097-23.5 82.197-43.6 93.802zM499 0C223.419 0 0 223.446 0 498.999 0 774.58 223.419 998 499 998c275.554 0 499-223.42 499-499.001C998 223.446 774.554 0 499 0Zm0 943C254.177 943 55 743.822 55 498.999 55 254.177 254.177 55 499 55s444 199.177 444 443.999C943 743.822 743.823 943 499 943Z" id="path1023" style="fill:#005e3f"/></svg>