<svg xmlns="http://www.w3.org/2000/svg" width="33.305" height="33.305"><path d="M16.651 33.304C7.454 33.304 0 25.845 0 16.651 0 7.456 7.454 0 16.651 0c9.196 0 16.654 7.455 16.654 16.65 0 9.194-7.458 16.653-16.654 16.653z" fill="#008a34"/><path d="M30.77 12.8l-1.483 4.826a4.58 4.58 0 01-2.093 2.533 4.611 4.611 0 01-5.874-1.123l-4.107 2.347v5.488h10.425l-.96 1.134H6.624l-.958-1.134h10.422v-5.488l-4.08-2.332c-1.4 1.724-3.87 2.243-5.863 1.108a4.592 4.592 0 01-2.093-2.533L2.572 12.8l4.895-1.178a4.624 4.624 0 013.249.505c2.108 1.198 2.892 3.8 1.886 5.96l3.487 1.996v-6.134c-2.255-.308-3.999-2.223-3.999-4.562 0-1.18.442-2.255 1.168-3.073l3.46-3.671 3.45 3.671a4.617 4.617 0 011.164 3.073c0 2.38-1.806 4.319-4.119 4.574v6.122l3.52-2.014c-.994-2.157-.212-4.747 1.894-5.942a4.621 4.621 0 013.248-.505z" fill="#fff"/><path d="M29.26 13.662l-3.512-.845a3.417 3.417 0 00-2.533.345 3.43 3.43 0 104.983 3.96zM16.712 12.816a3.431 3.431 0 003.01-5.074 3.31 3.31 0 00-.536-.727L16.719 4.38l-2.483 2.635a3.424 3.424 0 00-.953 2.372 3.43 3.43 0 003.429 3.429zM10.127 13.162a3.414 3.414 0 00-2.532-.345l-3.512.845 1.059 3.461c.086.288.209.564.37.822a3.432 3.432 0 005.9-.105 3.433 3.433 0 00-1.285-4.678z" fill="#008a34"/></svg>