<svg xmlns="http://www.w3.org/2000/svg" viewBox="0 0 998 998"><path fill="#005e3f" d="M699.56 390.73c-18.76 0-35.51 4.2-53.1 14.36-47.4 27.37-65.85 81.74-52.3 129.83l-67.84 39.17V410.63C575.06 398.56 613.18 355 613.18 300c0-58.04-38.65-85.91-114.1-161.37-75.75 75.75-114.1 103.18-114.1 161.37 0 52.07 35.84 98.22 86.68 110.68v163.4l-67.81-39.15c13.54-48.09-4.9-102.45-52.31-129.82-17.59-10.15-34.34-14.36-53.1-14.36-34.87 0-76.68 14.53-143.7 32.5 27.73 103.46 32.3 150.4 82.7 179.48a113.97 113.97 0 0 0 57.04 15.24 113.7 113.7 0 0 0 81.23-34l95.95 55.4V719H237v55h524v-55H526.32v-79.65l95.97-55.4a113.69 113.69 0 0 0 81.23 34c19.6 0 39.32-5 57.05-15.23 50.39-29.1 54.96-76.03 82.69-179.5-67.02-17.96-108.83-32.5-143.7-32.5zm-353.68 142.9a58.8 58.8 0 0 1-51.47 29.66 59.5 59.5 0 0 1-29.72-7.9c-20.1-11.61-26.53-27.71-43.6-93.8 34.2-9.55 59.45-16.19 77.27-16.19 9.77 0 16.99 1.98 25.76 7.04a59.5 59.5 0 0 1 21.76 81.19zM499 359.42a59.5 59.5 0 0 1-59.43-59.43c0-23.21 10.73-36.84 59.43-84.66 48.7 47.86 59.44 61.53 59.44 84.66A59.5 59.5 0 0 1 499 359.42zm234.16 195.95a59.48 59.48 0 0 1-29.72 7.91 58.8 58.8 0 0 1-51.47-29.66 60.3 60.3 0 0 1-6.03-44.72 58.6 58.6 0 0 1 27.78-36.47c8.77-5.06 16-7.04 25.78-7.04 17.8 0 43.06 6.64 77.26 16.18-17.07 66.1-23.5 82.2-43.6 93.8zM499 0C223.42 0 0 223.45 0 499c0 275.58 223.42 499 499 499 275.55 0 499-223.42 499-499C998 223.45 774.55 0 499 0Zm0 943C254.18 943 55 743.82 55 499S254.18 55 499 55s444 199.18 444 444-199.18 444-444 444Z"/></svg>