<svg xmlns="http://www.w3.org/2000/svg" version="1.1" id="layer" x="0" y="0" xml:space="preserve" width="566.3" height="566.3"><style type="text/css" id="style1659"></style><path d="M513.3 258.9l-19.6-28.6H370v79.1h-6.2v-79.1h-33l-33 62-32.8-62h-33.2v19.8c-.5-1.2-1.4-2.5-2.1-3.7-7.2-10.4-18.7-15.7-34.4-15.7h-66.2v98.9l-43.2-98.9h-43L0 336h33l5.3-13.1h54.9l5.7 13.1h63.4v-39.5h33c5.7 0 11-.7 15.9-2.1 7.2-2.5 13.1-6.2 16.9-11.5 1.6-1.9 2.8-3.9 3.7-6v59H265v-56.8l32.8 56.8 33-56.8v56.8h162.9l19.6-28.8 20 28.8h33l-36.4-52.8 18.2-26.5H566v-26.3h-32.8zm-351.1-2h26.3c3.4-.2 6.7.4 9.9 1.2 4.4 1.4 6.5 3.5 6.5 6.4-.2 2.6-.9 4.4-2.1 5.6-2.1 2.1-6.9 3.2-14.3 3.2h-26.3zM64.8 258l13.9 31.9H51.9zm401.4-1.3v-19.5l29.6 46-29.8 46v-19.7h-63.2v-13.2h29.1V270h-29.1v-13.3z" id="path1661" fill-rule="evenodd" clip-rule="evenodd" fill="#012639"/></svg>