<svg xmlns="http://www.w3.org/2000/svg" viewBox="0 0 113 31"><path d="m18.558 0 .084.27.14.438 8.821 28.029.243.765L28 30h-8.114l-.086-.278-.123-.454-1.154-4.196H9.655L8.33 29.288 8.109 30H0l.404-1.266L9.357.703l.136-.434L9.585 0zM11.44 19.08h5.354l-2.642-9.26-.04.032-2.263 7.712zM29.989 0h10.086c3.358 0 6.004.74 7.86 2.203C49.935 3.78 51 6.467 51 9.678c0 3.276-1.12 6.186-3.066 7.721-1.855 1.461-4.501 2.204-7.859 2.204h-3.532V30H29V0zm6.554 13.088h3.493c3.43 0 3.917-1.39 3.917-3.41 0-1.99-.486-3.359-3.917-3.359h-3.493zm17.57 17.855V1.046h4.377l9.954 15.126c2.304 3.503 4.102 6.653 5.576 9.714l.093-.044c-.369-3.992-.461-7.63-.461-12.287V1.045h3.779v29.898h-4.056l-9.862-15.17c-2.166-3.327-4.24-6.742-5.807-9.98l-.138.044c.23 3.77.322 7.362.322 12.33v12.776zM86.902 1.046v29.897h-4.01V1.046zm25.297 25.382c-2.037.8-3.796 1.132-6.02 1.132-6.82 0-11.264-4.933-11.264-12.446 0-6.833 4.4-11.721 10.56-11.721 2.507 0 4.456.54 6.406 1.776l.993-3.349c-.574-.34-1.087-.568-1.813-.825C109.345.316 107.498 0 105.606 0 97.291 0 91 6.606 91 15.34 91 24.529 97.204 31 105.958 31a15.61 15.61 0 0 0 4.004-.5c1.183-.294 1.87-.53 3.038-1.048z"/></svg>