<svg xmlns="http://www.w3.org/2000/svg" fill="none" viewBox="0 0 85.4 85"><path fill="#00a1e4" d="M54.1 35.7c2 0 3.7-.8 4.9-2 1.2-1.3 2-3.1 2-5a7 7 0 0 0-6.9-7 7 7 0 0 0-7 7c0 4 3.2 7 7 7zm0 13.9a7 7 0 0 0-7 7A7 7 0 0 0 59 61.5a7 7 0 0 0-5-11.9zM33.2 35.7c2 0 3.6-.8 4.8-2 1.2-1.3 2-3.1 2-5a7 7 0 0 0-6.9-7 7 7 0 0 0-7 7c0 4 3.2 7 7 7zm-.1 13.9a7 7 0 0 0-7 7c0 4 3.2 7 7 7 2 0 3.7-.9 5-2.1 1.1-1.3 2-3 2-5a7 7 0 0 0-7-6.9z"/><path fill="#000" d="M36 3.7C21.7 8 18.3 20.1 14.2 32.7 10 46.4 7 58.5 15.5 68l-2.4 2C.3 57.3-2.5 43.3 2 29.1A40.5 40.5 0 0 1 35 0ZM72.9 15A40.3 40.3 0 0 1 83 57.9c-4.5 14.2-15 24-32.8 27.1l-.7-3.2c12.4-3 17-14.4 21.4-28 4-12.6 8.2-24.5-1-36.3z"/></svg>