<svg xmlns="http://www.w3.org/2000/svg" xmlns:xlink="http://www.w3.org/1999/xlink" width="54" height="54"><defs><path d="M0 0h51.142v53.378H0z" transform="translate(0 .331)" id="a"/><path d="M0 53.942h220V0H0z" transform="translate(0 1.058)" id="b"/><clipPath id="c"><use xlink:href="#a" width="100%" height="100%"/></clipPath></defs><path d="M1.429.31H52.57v53.38H1.43z" fill="none"/><g clip-path="url(#c)" transform="translate(1.429 -.02)"><path d="M33.562 53.71V40.566H25.91c-7.348 0-13.053-5.75-13.053-13.552 0-7.907 5.789-13.54 12.846-13.54s12.654 4.647 12.654 12.759V53.71h12.785V25.858C51.142 10.455 40.688.33 25.703.33 10.623.331 0 12.023 0 27.014 0 42.322 10.44 53.71 24.362 53.71z" fill="#003669"/></g></svg>