<svg xmlns="http://www.w3.org/2000/svg" width="432.54" height="432.54"><path d="M173.597 432.35c-25.717-3.635-42.27-6.762-50.312-9.504-24.035-8.194-43.108-19.928-52.596-32.358-10.054-13.172-13.744-29.702-10.278-46.052 2.473-11.672 12.981-25.498 23.488-30.906 13.419-6.907 29.38-10.61 45.607-10.58 10.687.02 12.548 1.058 14.66 8.17 2.504 8.437 5.243 12.133 12.491 16.855 16.826 10.962 50.879 12.947 68.38 3.985 10.777-5.519 21.918-16.957 26.214-26.912 4.918-11.396 7.217-22.252 7.224-34.112.008-12.56-1.443-19.131-6.417-29.044-3.478-6.933-7.465-10.867-15.315-15.112-5.79-3.132-6.724-3.325-16.166-3.334-9.465-.01-10.406.184-17 3.49-8.006 4.014-12.112 8.717-15.468 17.717-3.994 10.71-2.74 10.283-30.114 10.283-33.217 0-41.924-1.476-54.898-9.304-7.847-4.735-10.826-9.761-14.048-23.696-1.482-6.414-1.463-35.152.03-44.442.536-3.332 1.674-16.408 2.529-29.058.855-12.65 2.212-29.3 3.016-37 .803-7.7 2.157-23.45 3.008-35 .852-11.55 1.986-23.475 2.521-26.5.535-3.025 2.104-14.05 3.487-24.5 2.658-20.096 3.766-23.29 8.548-24.627C113.513.44 170.974.09 239.88.035 376.114-.073 370.924-.28 373.072 5.368c1.265 3.327-1.382 40.049-3.592 49.835-2.381 10.544-6.44 17.941-12.45 22.691-9.758 7.714-13.022 7.998-92.183 8.022-57.643.017-66.75.218-66.75 1.47 0 3.053-9.018 82.163-9.61 84.3-.772 2.788-.006 2.825 3.711.178 4.49-3.197 17.287-7.51 30.977-10.44 25.796-5.521 56.473-2.359 78.177 8.059 28.847 13.846 46.461 35.488 56.117 68.953 3.586 12.43 4.586 20.6 4.609 37.677.025 19.012-1.105 26.908-6.602 46.106-4.806 16.79-6.725 21.569-13.706 34.13-9.212 16.58-29.526 38.656-42.673 46.377-2.475 1.453-5.167 3.293-5.982 4.087-2.216 2.16-26.56 13.57-34.018 15.944-19.848 6.32-38.481 9.194-62.5 9.643-11 .205-21.35.183-23-.05z" fill="#4fb95a"/></svg>