<svg xmlns="http://www.w3.org/2000/svg" class="logo" width="67.53" height="67.53"><path class="front" d="M57.521 0L42.678 8.693l-.006-.005v5.937l-8.91 20.78-8.909-20.794.004-5.916L10.007 0 1.104 5.194v6.372L21.152 60.25l12.61 7.28 12.727-7.353 19.93-48.814.006-6.17" fill="#1563ff"/><path class="shadow" d="M66.42 11.363L46.49 60.177l-12.728 7.34V48.751l5.938-4.092 11.876-25.624v-5.217l14.843-8.64v6.184zm-32.658 24.03v7.455l-5.94 2.937-11.875-26.748v-5.218l8.846-5.117.06.035v5.874l8.905 20.78z" fill="#104eb2"/></svg>