<svg xmlns="http://www.w3.org/2000/svg" width="28" height="28"><g fill-rule="evenodd"><rect width="28" height="28" rx="2.435" ry="2.435" fill="#42afe3"/><path d="M23.998 23.3H24v-9.43C23.93 8.407 19.48 4 14 4 8.477 4 4 8.477 4 14s4.477 10 10 10a9.963 9.963 0 006.71-2.585l2.17 2.395.008-.004a.649.649 0 001.113-.456c0-.016 0-.033-.002-.05zm-11.51-7.9l-1.42-1.383a1.237 1.237 0 00-1.714 0 1.16 1.16 0 000 1.67l2.193 2.133c.28.272.66.384 1.02.336.268-.02.53-.13.734-.328l5.36-5.22A1.117 1.117 0 0018.658 11a1.19 1.19 0 00-1.65-.002z" fill="#fff"/></g></svg>