<svg xmlns="http://www.w3.org/2000/svg" width="270.67" height="270.67"><defs><radialGradient id="a" cx="328.74" cy="272.74" r="119.85" gradientUnits="userSpaceOnUse" gradientTransform="translate(-193.4 -104.12)"><stop offset="0" stop-color="#fcb813"/><stop offset=".26" stop-color="#fcb813"/><stop offset="1" stop-color="#f48120"/></radialGradient><radialGradient id="b" cx="857.93" cy="271.6" r="98.5" gradientTransform="rotate(-11.5 -23.108 3751.235)" gradientUnits="userSpaceOnUse"><stop offset="0" stop-color="#f05a22"/><stop offset=".21" stop-color="#f05a22"/><stop offset="1" stop-color="#c3161c"/></radialGradient><radialGradient id="c" cx="367.43" cy="180.78" r="93.62" gradientTransform="matrix(1 -.01 -.01 .97 -226.98 -9.63)" gradientUnits="userSpaceOnUse"><stop offset="0" stop-color="#fff"/><stop offset=".26" stop-color="#fff"/><stop offset="1" stop-color="#e2e3e4"/></radialGradient></defs><path style="fill:url(#a);fill-rule:evenodd" d="m268.25 127.94-.24-1.06c3.17-9.16 3.51-19.49 1-30.75l-6.58-29.55-20.41 22.37c-7 7.66-8.31 8.38-13.88 11.42-1.33.73-13 7.6-15.95 9.3l-.24.14c-9.51 5.42-26.91 13.45-25.94-.7v-.07a23.15 23.15 0 0 1 .91-6.36c3.38-12.61-.58-14.3-8.82-3.74s-15.53 8.52-16.2-4.52c-.67-13.04-5-13.41-9.54-.83-4.54 12.58-12.13 12.9-16.81.71-4.68-12.19-8.88-11.23-9.33 2.16-.45 13.39-7.55 16-15.76 5.86s-11.91-7.94-8.21 4.93c3.7 12.87-2.24 17.57-13.18 10.45-10.94-7.12-13.77-3.87-6.28 7.23a26.57 26.57 0 0 1 2.87 5.35c10.59 17.12-34.06 8.76-34.06 8.76l-1.57-.17c-1.63-.18-3.07-.31-4.37-.44l-.79-.07c-6.32-.57-7.82-.71-17.28-5L0 120.98l5.71 29.74c2.17 11.32 6.59 20.66 13.14 27.81l.2 1.07a42.76 42.76 0 0 0 15.34 26l.09.36c5.58 23.46 27.56 34.1 45.62 34a46.52 46.52 0 0 0 5.73-.37l1.06-.14c-4.77 8.6-1.2 10.34 8.89 3.53 11.09-7.5 17.4-3.31 14 9.3-3.4 12.61.58 14.3 8.81 3.74s15.53-8.52 16.21 4.53c.68 13.05 5 13.42 9.54.83 4.54-12.59 12.13-12.9 16.81-.71 4.68 12.19 8.87 11.23 9.33-2.16.46-13.39 7.55-16 15.76-5.86s11.91 7.93 8.2-4.93c-3.71-12.86 2.24-17.57 13.18-10.46 10.94 7.11 13.78 3.88 6.28-7.22-7.5-11.1-3.3-17.4 9.31-14 11.22 3 13.77.2 6.76-6.26l.88-.25c20-5.8 38.12-26.58 33.73-51.32l-.06-.37a42.76 42.76 0 0 0 3.73-29.9z" transform="translate(0 -33.248)"/><path style="fill:url(#b)" d="m262.95 100.33-3.43-15.57-11 11.57c-7.89 8.32-9.91 9.39-15.9 12.57-1.31.7-2.77 1.47-4.45 2.4l-1.33.73c-8.68 4.77-22.12 12.16-31 24.39l-1.2-5.89-106.19 21.61 1.22 6c-13-7.8-28.28-9.32-38.14-10.3l-1.5-.15c-1.9-.19-3.54-.33-5-.46-6.76-.57-9-.77-19.57-5.33l-14.63-6.34 3 15.67c2.27 12 7.33 19.84 12.5 24.88l.56 3a33.7 33.7 0 0 0 14.46 22.55l.62 2.65c4.63 19.98 25.53 29.57 43.02 27.37l19.15-2.44.62 3 106.21-21.61-.63-3.11 18.64-5.29c17-4.81 32.42-21.85 28.92-42l-.46-2.67a33.71 33.71 0 0 0 4.46-26.43l-.68-3c2.77-6.68 4.38-15.85 1.73-27.8z" transform="translate(0 -33.248)"/><path style="fill:url(#c)" d="m200.7 199.81-33.1-21.93 22-33.17 11.2 55.15zm-85 22.71 22-33.15 1.41.89a17 17 0 0 0 23.11-4.69l.94-1.42 33.33 22zm-17.22-59.38 33.11 22-22 33.17zm84.64-22.66-27 40.74a9.75 9.75 0 0 1-13.18 2.54l-40.49-26.88zm58.77-2.36s18.65-9.23 12.77-36c-10.58 11.16-12.46 11.07-22.41 16.56-9.39 5.19-27 14.25-33.91 30.17l10.29 50.37 18-5.1c12.76-3.62 25.63-16.67 22.9-32.46-11.62 7.55-19.53 6.88-19.53 6.88s29.3-10.32 23.62-35.57c-6.84 5.32-11.7 5.14-11.7 5.14zm-149.7 32.44c-12.63-11.93-32.34-13.38-43-14.46-11.31-1.15-13-.33-27.11-6.44 5.07 26.9 25.85 28.07 25.85 28.07s-4.39 2.07-12.78-.11c4.67 25.45 35.67 23.45 35.67 23.45s-7 3.72-20.67 1.34c3.67 15.59 20.63 22.55 33.79 20.88l18.54-2.41z" transform="translate(0 -33.248)"/></svg>