<svg width="64" height="64" viewBox="0 0 64 64" fill="none" xmlns="http://www.w3.org/2000/svg">
<g clip-path="url(#clip0_3994_1726)">
<g filter="url(#filter0_d_3994_1726)">
<path fill-rule="evenodd" clip-rule="evenodd" d="M24.8167 42.9971C28.7735 46.2449 29.448 49.673 26.8176 53.3266C23.5801 57.702 17.6 59.3033 12.5191 56.845H12.4741C12.4741 56.845 12.4515 56.8223 12.4291 56.7999C6.74107 54.0032 4.38047 47.1019 7.16823 41.3959L13.4858 28.4727L17.0379 21.2105L21.3095 12.4822C23.3778 8.2422 27.7169 5.82899 32.1458 6.00945C36.4175 6.00945 40.5317 8.37752 42.5551 12.4822L56.6966 41.3959C59.4847 47.1019 57.124 54.0032 51.4352 56.7999C51.4352 56.7999 51.4133 56.7999 51.3906 56.7999H51.3458C45.68 59.574 38.868 57.2735 36.0353 51.6576C34.5739 48.5678 35.5407 45.6359 38.9804 42.8844C41.5658 40.7869 43.207 37.6068 43.207 34.0209C43.207 27.7284 38.1261 22.6313 31.8311 22.6313C25.5361 22.6313 20.4552 27.7284 20.4552 34.0209C20.4552 37.6745 22.1638 40.9222 24.8167 42.9971ZM31.8311 39.9975C28.5262 39.9975 25.8508 37.3137 25.8508 33.9983C25.8508 30.683 28.5262 27.9991 31.8311 27.9991C35.1359 27.9991 37.8113 30.683 37.8113 33.9983C37.8113 37.3137 35.1359 39.9975 31.8311 39.9975Z" fill="url(#paint0_linear_3994_1726)"/>
</g>
</g>
<defs>
<filter id="filter0_d_3994_1726" x="1.99707" y="6" width="59.8711" height="60" filterUnits="userSpaceOnUse" color-interpolation-filters="sRGB">
<feFlood flood-opacity="0" result="BackgroundImageFix"/>
<feColorMatrix in="SourceAlpha" type="matrix" values="0 0 0 0 0 0 0 0 0 0 0 0 0 0 0 0 0 0 127 0" result="hardAlpha"/>
<feOffset dy="4"/>
<feGaussianBlur stdDeviation="2"/>
<feComposite in2="hardAlpha" operator="out"/>
<feColorMatrix type="matrix" values="0 0 0 0 0 0 0 0 0 0 0 0 0 0 0 0 0 0 0.25 0"/>
<feBlend mode="normal" in2="BackgroundImageFix" result="effect1_dropShadow_3994_1726"/>
<feBlend mode="normal" in="SourceGraphic" in2="effect1_dropShadow_3994_1726" result="shape"/>
</filter>
<linearGradient id="paint0_linear_3994_1726" x1="31.9211" y1="5.98686" x2="31.9211" y2="57.9952" gradientUnits="userSpaceOnUse">
<stop stop-color="#FFBD59"/>
<stop offset="1" stop-color="#FF780B"/>
</linearGradient>
<clipPath id="clip0_3994_1726">
<rect width="64" height="64" fill="white"/>
</clipPath>
</defs>
</svg>
