<svg xmlns="http://www.w3.org/2000/svg" version="1.0" viewBox="0 0 160 160"><path fill="#ff4600" d="m33.2.2-2 .3A38.5 38.5 0 0 0 7.6 14.4a36.4 36.4 0 0 0-7 15.2l-.5 2.6C.2 32.6 0 54 0 79.5c0 44.4 0 46.8.4 49a42.1 42.1 0 0 0 5.3 14.2 37.5 37.5 0 0 0 27 17.1c1.5.2 92 .3 94.2 0 .8 0 2-.2 2.7-.4l2-.4c2.5-.4 8-2.8 11.2-4.7a38 38 0 0 0 16.7-25l.3-2.3c.1-1 .2-20 .2-47 0-48.5 0-47.1-1.1-51.8a37.6 37.6 0 0 0-31.5-28c-.6-.3-92.9-.3-94.2 0z"/><path fill="#fff" d="M76.2 88.1a115 115 0 0 1-9 .5l-2.7.2a45 45 0 0 0-4.2.4l-1.8.3c-2 .2-6.8 1.4-8.7 2.1-3.8 1.4-6.9 3.6-8 6-1.8 3-1.9 7.3-.3 10.5 1.3 2.6 4.8 5 8.5 5.7 4 .9 9.2.6 13.3-.6 5.1-1.5 10-5.2 12.6-9.4 1.2-2 2.3-5.2 2.5-7.2.3-2 .3-8.4 0-8.4h-2.2Zm51.2-56.4c3.6 1.2 5.8 3 6 5.5 0 1.6-1 3.5-2 3l-.4-.5a13.8 13.8 0 0 0-9.3-3.3c-3.8 0-6.5 1.5-8.2 4.5-.8 1.3-1.7 3.8-1.8 5.3l-.3 1.6c0 .1-.2 2.6-.2 5.4l-.1 5h7.2c7.5 0 8.3.2 8.8 1 .6 1.4.4 3.4-.6 4-.6.4-1.4.4-7.8.5l-7.3.1-.1 26.6c0 25.5-.1 26.6-.5 27.2-.5.7-1.5 1-3 1-1.1-.1-2-.6-2.2-1.4-.2-.4-.3-9-.3-27 0-19.3 0-26.4-.2-26.5h-5.7c-5.8 0-6.4-.2-6.8-1.3a5.1 5.1 0 0 1 .3-3.3 2.2 2.2 0 0 1 1-.7h11.4v-4.9l.2-5.6.3-1.9.4-2.4c1.3-5.4 4.4-9.4 8.7-11.2 1.2-.5 1.8-.7 4.3-1.2a37.7 37.7 0 0 1 8.2.5zM64.7 57.2c6.8 1 11.8 3.5 15.4 8 2.3 3 3.9 7 4.4 11.4 0 .8.2 10.4.2 21.3 0 19.8 0 20-.5 20.3-1 .6-2.8.5-3.8-.4-1.4-1.1-1.7-2.5-1.7-7.2v-4l-1.2 1.7c-1.3 2-4.5 5.2-6.6 6.6a28.8 28.8 0 0 1-21.2 4.2 24.4 24.4 0 0 1-8.9-3.3 15 15 0 0 1-6.5-10.1c-.2-1-.2-4.6 0-5.3l.3-1.4c.4-2.3 1.6-4.5 3.5-6.5 3.8-4 10.4-6.5 20.6-8l7.7-.8 10.4-.4h2v-2c0-7.8-2.7-13.2-7.7-16a24.3 24.3 0 0 0-17.7-1.9 27 27 0 0 0-7.4 3.4 22.8 22.8 0 0 0-5.7 6.5c-.3.6-.8.7-2 0a3.2 3.2 0 0 1-1.7-3.3c.4-2.3 3.4-6 6.4-8l2-1.2a32.5 32.5 0 0 1 19.7-3.6z"/></svg>