<svg xmlns="http://www.w3.org/2000/svg" version="1.0" viewBox="0 0 16 16"><g fill="#ff4600"><path d="m3.33.02-.21.03A3.85 3.85 0 0 0 .78 1.44a3.64 3.64 0 0 0-.7 1.52l-.05.26c0 .04-.02 2.18-.02 4.73 0 4.43 0 4.67.04 4.9a4.21 4.21 0 0 0 .53 1.41 3.75 3.75 0 0 0 2.69 1.71c.16.02 9.21.03 9.42 0 .08 0 .2-.02.27-.04l.2-.04c.25-.04.8-.28 1.12-.47a3.8 3.8 0 0 0 1.67-2.5l.03-.23c.01-.1.02-2 .02-4.7 0-4.84 0-4.7-.11-5.17a3.76 3.76 0 0 0-3.15-2.8C12.68 0 3.46 0 3.33.02zm9.41 3.15c.36.12.58.31.6.55.01.16-.1.35-.2.3l-.04-.05a1.38 1.38 0 0 0-.93-.33c-.38 0-.65.15-.82.45-.08.13-.17.38-.18.53l-.03.16c0 .01-.02.26-.02.54l-.01.5h.72c.75 0 .83.02.88.1.06.14.04.34-.06.4-.06.04-.14.04-.78.05l-.73.01-.01 2.66c0 2.54-.01 2.65-.05 2.71-.05.07-.15.1-.3.1-.11-.01-.19-.06-.22-.14-.02-.04-.03-.9-.03-2.7 0-1.92 0-2.63-.02-2.64h-.57c-.58 0-.64-.02-.68-.13a.51.51 0 0 1 .03-.33.22.22 0 0 1 .1-.07l.6-.01h.54v-.48l.02-.56.03-.19.04-.24c.13-.54.44-.94.87-1.12.12-.05.18-.07.43-.12a3.77 3.77 0 0 1 .82.05zM6.48 5.72c.68.1 1.18.35 1.53.8.23.29.39.7.44 1.14 0 .08.02 1.04.02 2.13 0 1.97 0 1.99-.05 2.02-.1.06-.28.05-.38-.04-.13-.11-.16-.25-.16-.72v-.4l-.12.17c-.13.2-.45.52-.66.66a2.88 2.88 0 0 1-2.12.42 2.44 2.44 0 0 1-.89-.33 1.5 1.5 0 0 1-.65-1.01c-.02-.1-.02-.46 0-.53l.03-.13c.04-.23.16-.45.35-.65.38-.4 1.04-.65 2.06-.8l.77-.08 1.04-.04h.19v-.2c0-.78-.26-1.32-.76-1.61a2.43 2.43 0 0 0-1.77-.18 2.7 2.7 0 0 0-.74.34c-.23.18-.46.44-.57.65-.03.06-.08.07-.2 0A.32.32 0 0 1 3.67 7c.04-.23.34-.6.64-.8l.2-.12a3.25 3.25 0 0 1 1.97-.36z"/><path d="M7.63 8.81a11.49 11.49 0 0 1-.9.05l-.27.02a4.5 4.5 0 0 0-.42.04l-.18.03c-.2.02-.68.14-.87.21-.38.14-.69.36-.81.6-.17.3-.18.72-.02 1.04.13.26.48.5.85.57.39.09.92.06 1.33-.06.51-.15 1-.52 1.26-.94.12-.2.23-.51.25-.71.03-.2.03-.84 0-.84h-.22z"/></g></svg>