<svg xmlns="http://www.w3.org/2000/svg" viewBox="0 0 64 64"><g data-name="Layer 2"><g fill="#008fbe" data-name="Layer 1"><path d="M42.4 30.83c-2.73.53-6.71 1.22-9.13 1.59-8.53 1.31-15.58 2.9-15.58 9.85 0 6.1 7 9.35 13.08 9.35 5.23 0 16.1-3.14 16.1-14.91v-8.13h-.19c-.4.73-2.32 1.87-4.28 2.25z"/><path d="M32 0a32 32 0 1032 32A32 32 0 0032 0zm19.09 44.14a19.22 19.22 0 01-11.55 11.57c-3.63 1.55-7.83 1.45-9.78 1.4C22.38 56.91 12 52.24 12 44c0-4.13 1.21-12.06 17.52-14 11.8-1.39 14.16-1.37 15.89-2.78a5.85 5.85 0 001.93-4.58 9.82 9.82 0 00-2-6.55c-2.31-2.87-6.4-3.76-11.19-3.76-10.23 0-13 5-14.15 10.16a2.46 2.46 0 01-2.73 2.14 2.76 2.76 0 01-2.88-2.44c.31-3.1 2-15.11 20.55-15.11C40.1 7.06 52 8.73 52 22.87c0 6.46.62 17.13-.91 21.27z"/></g></g></svg>