<svg xmlns="http://www.w3.org/2000/svg" fill="#008fbe" viewBox="0 0 64 64"><path d="M32 0a32 32 0 1 0 32 32A32 32 0 0 0 32 0zm3 7c5.1 0 17 1.7 17 15.9 0 6.4.6 17.1-1 21.2a19.2 19.2 0 0 1-11.5 11.6 24 24 0 0 1-9.7 1.4C22.4 57 12 52.2 12 44c0-4.1 1.2-12 17.5-14 11.8-1.4 14.2-1.4 16-2.8a5.8 5.8 0 0 0 1.8-4.6 9.8 9.8 0 0 0-2-6.5c-2.3-2.9-6.4-3.8-11.2-3.8-10.2 0-13 5-14.1 10.2a2.5 2.5 0 0 1-2.7 2.1 2.8 2.8 0 0 1-3-2.4C14.8 19 16.4 7 35 7zm11.8 21.6c-.4.7-2.3 1.9-4.3 2.2h-.1a274 274 0 0 1-9.1 1.6c-8.6 1.3-15.6 3-15.6 9.9 0 6 7 9.3 13 9.3C36 51.6 47 48.5 47 36.7v-8.1h-.2z"/></svg>
