<svg xmlns="http://www.w3.org/2000/svg" width="14.85" height="14.85"><path d="M4.38 14.57c-.25-.16-.51-.39-.77-.71-.18-.21-.4-.51-.66-.9-.45-.65-.82-1.4-1.1-2.25a8.45 8.45 0 01-.46-2.69c0-.97.21-1.82.62-2.53.32-.57.75-1.02 1.3-1.35.55-.34 1.13-.51 1.76-.52.22 0 .45.03.7.09.18.05.4.13.66.23.34.13.53.21.59.23.2.07.37.1.5.1.1 0 .24-.03.4-.08.09-.03.26-.09.5-.19.24-.09.43-.16.58-.22.23-.07.45-.13.65-.16.24-.04.48-.05.71-.03.44.03.84.12 1.2.26.63.25 1.14.65 1.52 1.21-.16.1-.31.21-.45.34-.31.28-.57.59-.76.93-.27.48-.4 1.01-.4 1.56.01.67.18 1.26.52 1.77.24.37.56.69.95.95.19.13.36.22.52.28-.08.26-.17.49-.25.68-.22.52-.48.99-.77 1.43-.27.39-.48.68-.64.87-.25.3-.49.52-.73.68-.28.18-.58.27-.9.27-.22.01-.43-.02-.64-.08-.12-.04-.3-.1-.53-.2-.23-.1-.42-.17-.56-.21-.23-.06-.47-.09-.72-.09s-.49.03-.72.09c-.16.04-.34.11-.56.2-.26.11-.43.18-.53.21-.2.06-.41.1-.61.11-.32 0-.62-.09-.92-.28zM8.62 3.15c-.42.21-.82.3-1.22.27-.06-.4 0-.81.17-1.26.15-.38.35-.73.62-1.04.27-.31.6-.57 1.01-.78.41-.21.8-.32 1.17-.34.05.42 0 .84-.15 1.28-.14.4-.35.76-.62 1.09-.27.33-.6.59-.98.78z" fill="#555"/></svg>