<svg xmlns="http://www.w3.org/2000/svg" viewBox="0 0 29.56 29.55"><path fill="#e83f39" d="M0 4.96A4.97 4.97 0 0 1 4.97 0h19.61a4.97 4.97 0 0 1 4.97 4.96v19.63a4.97 4.97 0 0 1-4.97 4.96H4.97A4.97 4.97 0 0 1 0 24.59z"/><path fill="#fff" d="M16.26 9.13c.43.76.92 1.57 1.67 2.1.72.51 1.63.69 2.5.85 2.98.54 3.06.77 1.05 2.83-.67.6-1.19 1.34-1.54 2.17-.21.85-.22 1.73-.04 2.59.39 2.91.19 3.06-2.46 1.84-.81-.43-1.7-.69-2.61-.74-.89.07-1.76.32-2.54.75-2.72 1.26-2.95 1.12-2.56-1.68.12-.86.21-1.79-.07-2.62-.27-.83-.93-1.5-1.53-2.12-2.06-2.12-2-2.36.87-2.89.9-.12 1.77-.41 2.55-.87.72-.5 1.17-1.31 1.6-2.07 1.43-2.59 1.71-2.6 3.1-.12Z"/></svg>