<svg xmlns="http://www.w3.org/2000/svg" width="73.29" height="73.29"><path d="M64.14 22.38c-5.44 0-9.33 4.79-13.34 10.13-2.49-11.34-5.25-22.67-14.05-22.67s-11.57 11.33-14.1 22.68c-4-5.35-7.89-10.14-13.33-10.14C5.86 22.38 0 24.73 0 33.55v16c0 8.65 4.62 10.77 7.39 11.5 4.78 1.24 16.29 2.4 29.25 2.4s24.47-1.16 29.25-2.4c2.77-.73 7.4-2.85 7.4-11.5v-16c0-8.82-5.86-11.17-9.32-11.17m-27.22-7.54c5.27 0 7.28 10.4 10.08 22.88-3.07 3.78-6.33 6.83-10.08 6.83s-7-3.05-10.08-6.83c2.62-11.67 4.64-22.88 10.08-22.88M5.08 49.6v-16c0-5.57 3-6.17 4.32-6.17 3.84 0 8 6.4 11.89 11.54-2.78 11.66-5.72 18.76-12.66 17.3-1.81-.49-3.51-1.64-3.51-6.62m13.62 8.11c3.07-3.34 5-8.55 6.53-14.07 3.21 3.37 6.92 5.91 11.52 5.91s8.3-2.54 11.52-5.91c1.49 5.52 3.45 10.73 6.52 14.07-5.37.49-11.83.79-18 .79s-12.68-.3-18.05-.79m49.72-8.11c0 5-1.7 6.13-3.51 6.62-6.95 1.47-9.88-5.64-12.66-17.3 3.93-5.14 8-11.54 11.89-11.54 1.3 0 4.32.6 4.32 6.17z" fill="#0a1530"/></svg>