<svg xmlns="http://www.w3.org/2000/svg" width="68.22" height="68.22"><path d="M34.11 0A34.11 34.11 0 110 34.11C0 15.272 15.272 0 34.11 0zm8.37 40.74c3.8-4.594 3.14-11.4-1.47-15.18-4.787-3.609-11.583-2.72-15.28 2-3.827 4.6-3.167 11.438 1.47 15.22 4.787 3.609 11.583 2.72 15.28-2zM24.26 62.88a29.57 29.57 0 008.77 1.67l14.84-21.44c4.927-7.088 3.558-16.775-3.14-22.22a16.69 16.69 0 00-20.3-.06l-20.63 16a30 30 0 002 8.34L17.58 32.3c-1.72 11.335 8.61 20.791 19.75 18.08z" fill="#00aad7" fill-rule="evenodd"/></svg>