<svg xmlns="http://www.w3.org/2000/svg" viewBox="0 0 320 213.2"><path fill="#f02e65" d="M109.5 69.7c-.1.4-1.8 6.8-3.5 14.3l-6.4 26.7c-3.1 13-5 21.5-5 22.7 0 .3 2 .5 4.3.5h4.4l2-8.6 5.6-24 5.4-22.9c.9-4.1 1.8-7.9 2-8.3.2-.6-.8-.8-4.1-.8a14 14 0 0 0-4.7.4zM75.8 97l-5.8 6.3 1.7 2 5.7 6.3 4 4.2H93l-5.4-5.8a40 40 0 0 1-5.4-6.5c0-.5 2.2-3.3 5-6.3 2.7-3 5-5.7 5-6 0-.3-2.4-.5-5.3-.5h-5.2zm44-5.9c0 .2 1 1.4 2.3 2.7a36 36 0 0 1 8.2 9.9c-.2.4-2.6 3.3-5.4 6.4l-5.2 5.7h11.6l5.3-5.9a40 40 0 0 0 5.4-6.5c0-.3-2.5-3.3-5.7-6.6l-5.6-6h-5.5c-3 0-5.5.1-5.5.3zm93.6 122.1a106 106 0 0 1-53.4-14.3 106.6 106.6 0 0 1-117.6-7.2A106.6 106.6 0 0 1 1 121.4a106.6 106.6 0 0 1 159-107 106.6 106.6 0 1 1 53.4 198.8ZM142.2 27.4a86.9 86.9 0 0 0-88 148.6A86.9 86.9 0 0 0 182.9 64.8a87.2 87.2 0 0 0-40.6-37.4Z"/></svg>