<svg xmlns="http://www.w3.org/2000/svg" viewBox="0 0 320 213.19"><path fill="#f02e65" fill-rule="evenodd" d="M213.428 213.188c-19.465 0-37.711-5.218-53.415-14.332a106.573 106.573 0 0 1-117.576-7.17 106.59 106.59 0 0 1-41.405-70.317A106.574 106.574 0 0 1 160.02 14.372C175.723 5.262 193.966.044 213.428.044 272.287.044 320 47.757 320 106.616s-47.713 106.572-106.572 106.572zM142.175 27.363l.032-.028a86.899 86.899 0 0 0-87.92 148.645A86.897 86.897 0 0 0 182.83 64.843c-9.083-16.5-23.372-29.73-40.654-37.48z" clip-rule="evenodd"/><path fill="#f02e65" d="M109.487 69.744c-.128.315-1.757 6.715-3.512 14.306-1.821 7.591-4.707 19.573-6.335 26.662-3.14 12.986-5.022 21.518-5.022 22.648 0 .311 1.946.565 4.328.565h4.331l1.942-8.66c1.132-4.704 3.642-15.495 5.649-23.964 2.008-8.47 4.453-18.758 5.396-22.9.939-4.141 1.88-7.902 2.07-8.342.189-.564-.88-.751-4.141-.751-2.448 0-4.583.187-4.706.436zM75.796 96.909l-5.772 6.275 1.696 2.006c.938 1.128 3.513 3.953 5.709 6.275l4.015 4.264h11.418l-5.394-5.835c-2.951-3.133-5.398-6.146-5.398-6.522 0-.439 2.26-3.261 5.021-6.273 2.759-3.072 5.018-5.711 5.018-6.024 0-.251-2.384-.439-5.269-.439h-5.207zm43.916-5.898c0 .191 1.067 1.381 2.382 2.699 4.897 4.893 8.347 9.036 8.158 9.849-.124.441-2.51 3.387-5.394 6.462l-5.205 5.708h5.832l5.835-.062 5.33-5.833c2.951-3.26 5.334-6.15 5.334-6.526 0-.311-2.509-3.261-5.647-6.584l-5.644-6.088h-5.461c-3.074 0-5.52.188-5.52.375z"/></svg>