<svg xmlns="http://www.w3.org/2000/svg" fill="#004037" viewBox="0 0 21.67 23.64"><path d="M12.5 0H9.16a.11.11 0 0 0-.1.07L0 23.48a.11.11 0 0 0 .1.16h2.93a.11.11 0 0 0 .1-.07l2.35-6.15 1.05-2.77 4.12-10.82c.04-.1.17-.1.21 0l4.19 10.82 1.05 2.76 2.38 6.16a.11.11 0 0 0 .1.07h2.97a.11.11 0 0 0 .1-.16L12.61.09a.12.12 0 0 0-.1-.08zm.3 17.1a1.5 1.5 0 0 1-.44-1.07v-.63c0-.4.16-.78.44-1.06l.18-.19a.18.18 0 0 0 0-.25l-.32-.33a.18.18 0 0 0-.26 0l-.18.19c-.29.28-.67.44-1.07.44h-.63c-.4 0-.79-.16-1.07-.44l-.18-.19a.18.18 0 0 0-.26 0l-.32.33a.18.18 0 0 0 0 .25l.18.19c.28.28.44.66.44 1.06v.63c0 .4-.16.79-.44 1.07l-.18.18a.18.18 0 0 0 0 .26l.32.32c.07.07.19.07.26 0l.18-.18c.28-.28.67-.44 1.07-.44h.63c.4 0 .78.16 1.06.44l.19.18c.07.07.18.07.26 0l.32-.32a.18.18 0 0 0 0-.26z"/></svg>