<svg xmlns="http://www.w3.org/2000/svg" width="48.444" height="48.444" fill="none" class="injected-svg" data-src="/assets/icons/ArcadiaLogo.svg"><g fill="#1da590"><path d="M24.223 0C10.88 0 .06 10.845.06 24.22c0 7.818 3.701 14.774 9.442 19.204.24.184.585.09.706-.187l11.317-26.2a.471.471 0 01.434-.286h4.589c.19 0 .359.113.433.285L38.266 43.22a.46.46 0 00.706.187 24.425 24.425 0 003.084-2.838 24.22 24.22 0 006.33-16.349C48.387 10.845 37.565 0 24.222 0zm15.59 33.534a.454.454 0 01-.81-.063c-.568-1.315-1.194-2.766-1.854-4.3a.985.985 0 01-.026-.697c.44-1.338.695-2.768.695-4.256 0-7.524-6.085-13.623-13.592-13.623-7.506 0-13.597 6.102-13.597 13.625 0 1.512.261 2.962.715 4.323a.979.979 0 01-.026.7c-.66 1.528-1.28 2.976-1.846 4.286-.15.342-.615.385-.807.063a18.155 18.155 0 01-2.587-9.372c0-10.045 8.123-18.187 18.145-18.187S42.37 14.175 42.37 24.22c0 3.405-.933 6.592-2.555 9.314z"/><path d="M32.253 40.866a.284.284 0 00-.385-.144 17.958 17.958 0 01-7.639 1.69c-2.72 0-5.298-.605-7.615-1.682a.286.286 0 00-.385.144l-2.094 4.847a.47.47 0 00.233.613 23.955 23.955 0 009.861 2.11c3.524 0 6.858-.76 9.876-2.118.232-.104.336-.377.232-.613l-2.084-4.847zM24.222 37.843c2.097 0 4.072-.498 5.847-1.35a.282.282 0 00.135-.362l-5.795-13.433a.19.19 0 00-.348 0l-5.8 13.438c-.06.139-.003.3.135.363a13.382 13.382 0 005.826 1.344z"/></g></svg>