<svg xmlns="http://www.w3.org/2000/svg" width="21.668" height="23.639" fill="#004037"><path d="M12.504 0H9.162a.11.11 0 0 0-.105.073L.007 23.485a.113.113 0 0 0 .105.154h2.925a.11.11 0 0 0 .105-.073l2.347-6.149 1.055-2.764 4.118-10.82c.037-.097.172-.097.211 0l4.184 10.818 1.055 2.763 2.38 6.152a.11.11 0 0 0 .105.073h2.959a.112.112 0 0 0 .104-.154L12.61.073A.116.116 0 0 0 12.505 0zm.292 17.098a1.506 1.506 0 0 1-.44-1.064v-.632c0-.397.159-.782.44-1.063l.185-.185a.18.18 0 0 0 0-.254l-.325-.325a.181.181 0 0 0-.256 0l-.185.184c-.281.281-.667.44-1.065.44h-.633c-.399 0-.784-.159-1.066-.44l-.185-.184a.181.181 0 0 0-.255 0l-.325.325a.18.18 0 0 0 0 .254l.185.185c.28.28.44.666.44 1.063v.632c0 .398-.16.783-.44 1.063l-.185.185a.18.18 0 0 0 0 .255l.325.325c.07.07.185.07.255 0l.185-.185c.284-.28.667-.44 1.066-.44h.633c.398 0 .784.16 1.065.44l.185.185c.07.07.185.07.256 0l.325-.325a.18.18 0 0 0 0-.255z"/></svg>