<svg xmlns="http://www.w3.org/2000/svg" fill="none" viewBox="0 0 146.1 135.1"><path fill="#000" d="M100.6 135.1c-5.6 0-7.5-5.5-7.5-5.6l-2.3-8.9s-.3-2.1-2.6-2.1H57.4c-2.3 0-2.6 1.8-2.6 2l-2 9c0 .1-1.5 5.6-7.2 5.6H5.2c-1.8 0-3.1-.5-4-1.5-1.4-1.6-1.2-3.8-1.2-4L43.2 5.9S44.8 0 50.6 0h43.6c6 0 7.6 5.6 7.6 5.7L146 129.3c0 .2.4 2.6-1 4.3-.8 1-2.1 1.5-4 1.5z"/><g fill-rule="evenodd"><path fill="#fff" d="M73 80.5a13.3 13.3 0 1 0 0 5.7 13.3 13.3 0 1 0 0-5.7z"/><path fill="#ffd500" d="M59.3 48.4a9.1 9.1 0 1 1-15.1 10.2 9.1 9.1 0 0 1 15.1-10.2zm-7.8-2.2c.9 0 1.5 3.2 1.5 7.2s-.6 7.1-1.5 7.1c-.8 0-1.5-3.2-1.5-7.1 0-4 .7-7.2 1.5-7.2zm49 2.2a9.1 9.1 0 1 1-15.2 10.2 9.1 9.1 0 0 1 15.2-10.2zm-7.8-2.2c.8 0 1.5 3.2 1.5 7.2s-.7 7.1-1.5 7.1c-.9 0-1.6-3.2-1.6-7.1 0-4 .7-7.2 1.6-7.2z"/><path fill="#000" d="M63.2 75.2c3 5 9.3 11.3 9.6 11.7a53.8 53.8 0 0 0 9.5-11.7c0-.1-.4-1.3-9.6-1.3-8.3 0-9.3 1-9.5 1.3zm9.6 3.2v3-3z"/></g></svg>