<svg width="426" height="426" viewBox="0 0 113 113" xmlns="http://www.w3.org/2000/svg" xmlns:xlink="http://www.w3.org/1999/xlink"><defs><radialGradient id="b" cx="0" cy="0" r="1" gradientTransform="matrix(5.91 0 0 -11.8 80 926)" gradientUnits="userSpaceOnUse"><stop stop-color="#fffcf4" offset="0"/><stop stop-color="#ffd600" offset=".215"/><stop stop-color="#a88e00" offset="1"/></radialGradient><radialGradient id="a" cx="0" cy="0" r="1" gradientTransform="matrix(6.21 0 0 -6.32 67 911)" gradientUnits="userSpaceOnUse"><stop stop-color="#fff" offset="0"/><stop stop-color="#fff" offset=".209"/><stop stop-color="#94959a" offset=".908"/><stop stop-color="#94959a" offset="1"/></radialGradient><radialGradient id="c" cx="0" cy="0" r="1" gradientTransform="matrix(10.7 0 0 10.9 65.8 67.7)" gradientUnits="userSpaceOnUse" xlink:href="#a"/><radialGradient id="g" cx="189" cy="41.9" r="7.09" gradientTransform="matrix(0 1.84 -1.6 0 104 -304)" gradientUnits="userSpaceOnUse" xlink:href="#b"/><radialGradient id="d" cx="0" cy="0" r="1" gradientTransform="matrix(10.7 0 0 10.9 45.3 67.7)" gradientUnits="userSpaceOnUse" xlink:href="#a"/><filter id="f" x="-.413" y="-.133" width="1.83" height="1.27" color-interpolation-filters="sRGB"><feGaussianBlur stdDeviation="4.123"/></filter><filter id="e" x="-.513" y="-.21" width="2.03" height="1.42" color-interpolation-filters="sRGB"><feGaussianBlur stdDeviation="7.015"/></filter></defs><g stroke-width="1.72"><path d="M77.7 109c-4.37 0-5.77-4.29-5.78-4.33l-1.79-6.85c-.017-.102-.265-1.67-2.04-1.67h-23.8c-1.77 0-1.97 1.43-1.97 1.5l-1.61 7.06c-.012.048-1.12 4.29-5.54 4.29H3.97c-1.35 0-2.38-.391-3.08-1.17-1.1-1.24-.907-2.96-.901-3.04l33.3-95.7c.005-.024 1.24-4.5 5.72-4.5h33.7c4.56 0 5.81 4.32 5.82 4.37l34.2 95.5c.028.126.34 1.97-.743 3.27-.664.795-1.69 1.19-3.06 1.19z" fill="#0c0c0c"/><path d="M77.1 68.7c0 5.66-4.59 10.2-10.2 10.2-5.66 0-10.2-4.59-10.2-10.2 0-5.66 4.59-10.2 10.2-10.2 5.66 0 10.2 4.59 10.2 10.2z" fill="url(#c)"/><path d="M56.6 68.7c0 5.66-4.59 10.2-10.2 10.2-5.66 0-10.2-4.59-10.2-10.2 0-5.66 4.59-10.2 10.2-10.2 5.66 0 10.2 4.59 10.2 10.2z" fill="url(#d)"/><path d="M56.6 71.3s5.08-3.71 7.44-6.48c0 0-1.35-1.49-3.99-1.49z" fill="#94959a"/><path d="M56.6 61.3c-6.45 0-7.23.811-7.3 1.01l-.014.04c2.38 3.85 7.42 8.98 7.42 8.98v-.02c5.26-5.12 7.29-8.95 7.31-8.99l.016-.008v-.001c-.007-.06-.197-.728-4.5-.938-.82-.04-1.78-.065-2.93-.065zm.09 10l.002.002V71.3zm.002.002v.006l.003-.003z"/><path d="M49.3 62.4c2.38 3.85 7.4 8.95 7.4 8.95v-.009l-.003-3.28-.005-3.24-.093.002c-2.52 0-6.93-2.23-7.3-2.42" fill="#313132"/></g><path transform="matrix(1 0 0 .974 -137 2.69)" d="M174 9.72l-26.1 80.1c-.05.05 12.6-21.2 16.2-31.7 7.28-35.8 26.8-42.9 9.92-48.4z" fill="#fff" filter="url(#e)" stroke="#fff" stroke-width=".265"/><path d="M76.7 11.5l24 74.2S89.4 56.9 85.9 48.5c-3.54-8.44-9.15-37-9.15-37z" fill="#fff" filter="url(#f)"/><g transform="translate(.313 -.218)" fill-rule="evenodd" paint-order="markers fill stroke"><circle cx="39.7" cy="45.8" r="7.09" fill="url(#g)" style="mix-blend-mode:normal"/><ellipse cx="39.7" cy="45.8" rx="1.19" ry="5.54"/></g><g transform="translate(32.1 -.218)" fill-rule="evenodd" paint-order="markers fill stroke"><circle cx="39.7" cy="45.8" r="7.09" fill="url(#g)" style="mix-blend-mode:normal"/><ellipse cx="39.7" cy="45.8" rx="1.19" ry="5.54"/></g></svg>