<svg xmlns="http://www.w3.org/2000/svg" viewBox="0 0 600 415"><path fill="#900" d="M370.2 10.8c-54 0-97.9 42.7-97.9 95.3 0 52.6 43.8 95.2 97.9 95.2s97.8-42.6 97.8-95.2a96.6 96.6 0 0 0-97.8-95.3zM14.9 15.4c-3 .1-4 1-4.8 1.7 0 0-1.3 5 8 6.7 9.2 1.7 62.1 17.3 134.8 74.4 72.7 57.1 112.2 108 140.3 137.8 0 0-85.7 30.2-186 96.6 0 0 35.2-42.4 49-147.9 2-15.4 5.8-34.6 7.6-53 0 0 2.1-14.6-3.3-14.6-5.5 0-14.3 73.5-29.4 119.3-8.3 25-18.5 55.9-48 96.2-18.1 25-36.3 43.7-32.3 52 8.8 18.6 27.3.5 27.3.5s117.7-77.7 241.2-116c0 0 30 33 35.4 39.3 16.1 19 27.7 40.1 41.4 39.7 11.2-.3 15.1-6.3 21-38.6 6-32.4 19-64.3 19-64.3s74-3.5 77.7 20.2c2.4 15.8-8.6 24-17.4 27-4.2 1.3-17.4 5.2-22.9 6.7-10.2 3-12.8 18.5 4.1 26 27.7 12.1 56 18.2 53.4 39.4-2.5 20.6-36.6 30.9-60.5 25.6-44.1-9.6-46.2-30.2-53.8-27.3-5.5 2.1 10 19 18.5 24.4 8.4 5.5 70.2 36.6 102.5-2.1 36.5-43.7-33.6-71-33.6-71s43.2-19.3 35.3-55.9c-8-36.5-55-42-90-45 0 0 15.2-38.1 50-78a468.6 468.6 0 0 1 64-57.2c16.7-12.6 29.7-14.8 26-22.2-4.2-8.4-72.3 40.7-85.3 52.5a430.6 430.6 0 0 0-82.4 105s-50.8 2.5-89.4 11.7c0 0-55-59.6-119.3-109.6-64.3-50-124.4-80.2-161-91.6C29.9 17 19.9 15.2 15 15.4zM370.2 36a71 71 0 0 1 71.9 70c0 38.7-32.2 70.1-72 70.1s-71.8-31.4-71.8-70a71 71 0 0 1 71.9-70zm34.1 212.8s-10.7 21.1-15.7 42C379.8 279.6 359 257 359 257s15.8-4 45.3-8.2z"/></svg>