<svg xmlns="http://www.w3.org/2000/svg" width="65" height="65"><path fill-rule="evenodd" d="M65 32.5c0-8.748-7.195-15.854-16.013-15.854-.812 0-1.647.046-2.459.185-6.856.995-11.457 6.064-14.028 9.952-2.571-3.888-7.172-8.957-14.028-9.952a17.545 17.545 0 00-2.459-.185C7.172 16.646 0 23.751 0 32.5s7.195 15.854 16.013 15.854c.812 0 1.647-.046 2.481-.185 6.856-1.018 11.457-6.087 14.029-9.975 2.571 3.888 7.172 8.957 14.028 9.975.812.116 1.646.185 2.481.185C57.805 48.354 65 41.249 65 32.5zM17.682 42.614c-.564.093-1.128.116-1.691.116-5.819 0-10.533-4.606-10.533-10.23 0-5.647 4.736-10.23 10.555-10.23a13.86 13.86 0 011.692.116c6.473.949 10.419 7.499 11.773 10.114-1.376 2.638-5.346 9.165-11.796 10.114zm29.613-20.228c-6.473.949-10.442 7.499-11.773 10.114 1.331 2.615 5.3 9.165 11.773 10.114a13.86 13.86 0 001.692.116c5.796 0 10.532-4.582 10.532-10.23 0-5.624-4.713-10.23-10.532-10.23a13.86 13.86 0 00-1.692.116zm-35.799 8.416h9.685v3.048h-9.685zm41.96 3.07H50.19v3.204h-3.13v-3.204h-3.266v-3.07h3.266v-3.204h3.13v3.204h3.266z" fill="#00979d"/></svg>