<svg xmlns="http://www.w3.org/2000/svg" version="1.1" id="Capa_1" x="0" y="0" xml:space="preserve" width="220.871" height="220.871"><style type="text/css" id="style1111">.st5{fill:#fff}</style><g id="g1155" transform="translate(-6.469 32.931)"><path id="path1145" d="M94.7.9l122.4 35c7.6 2.2 11.8 10 9.7 17.5l-26 91c-2.2 7.6-10 11.9-17.5 9.7l-48.8-13.9-17.4 13.7-7.6-20.8-48.7-13.9c-7.6-2.2-11.9-10-9.7-17.5l26-91c2.2-7.6 10.1-12 17.6-9.8z" fill="#a3cfe0"/><path id="path1147" d="M139.3.9l-122.5 35C9.2 38 4.9 45.8 7 53.4l26 91c2.2 7.6 10 11.9 17.5 9.7l48.8-13.9 17.4 13.7 7.6-20.8 48.8-13.9c7.6-2.2 11.9-10 9.7-17.5l-26-91.1c-2.2-7.5-10.1-11.9-17.5-9.7z" fill="#60bbe1"/><path id="path1149" d="M180.3 13H52.9c-7.8 0-14.1 6.4-14.1 14.2v94.6c0 7.8 6.3 14.1 14.1 14.2h50.7l13 17.9 12.9-17.9h50.7c7.8 0 14.2-6.4 14.2-14.2V27.1c.1-7.8-6.2-14.2-14.1-14.1 0-.1 0-.1 0 0z" fill="#0060ad"/><path id="path1151" d="M116.3 71.9c-11.8 0-21.5-9.7-21.4-21.5.1-11.8 9.7-21.4 21.5-21.4s21.4 9.7 21.4 21.5c0 9.9-6.9 18.6-16.6 20.9-1.6.4-3.3.5-4.9.5zm0-34.2c-7-.2-12.8 5.5-13 12.5-.2 7 5.5 12.8 12.5 13 1.2 0 2.3-.1 3.4-.4 6.8-1.7 10.9-8.7 9.2-15.5-1.3-5.6-6.4-9.5-12.1-9.6z" class="st5" fill="#fff"/><path id="path1153" d="M116.7 121.2c-12.8 0-25.3-4.3-35.4-12.4-1.2-.9-1.8-2.5-1.6-3.9.7-6.6 2.8-12.8 6-18.5 1.2-2.1 3.9-2.8 6-1.6 2.1 1.2 2.8 3.9 1.6 6-2.3 3.9-3.8 8.3-4.6 12.7 16.7 11.9 39.2 11.9 55.8 0-1.5-8.7-5.8-16.5-11.9-21.6-1.9-1.5-2.1-4.3-.5-6.2 1.5-1.9 4.3-2.1 6.2-.5 8.4 7 14 17.8 15.4 29.8.2 1.5-.5 3-1.6 3.9-10.1 8-22.6 12.3-35.4 12.3z" class="st5" fill="#fff"/></g></svg>