<svg xmlns="http://www.w3.org/2000/svg" viewBox="0 0 78.4 74.33"><path fill="#009bc2" d="M18.34 48.53C9.09 47.71 0 45.3 0 43.61s13.78-3.43 21.61-3.49Z" class="cls-1"/><path d="m21.71 48.7 2.87-8.7h.08c2.41-7.51 9-25.79 9.58-25.79h.21L43.79 40c3.5-.06 7.07-.1 10.69-.15-6.91-18-14-37.54-14.48-38.64C39.52.11 39.16 0 38.24 0 37 0 36.6 0 36.29.92A1387.2 1387.2 0 0 0 12.21 66c-1.34 4-3.28 5.23-5.21 5.23-2.77 0-3.79.51-3.79 1.33 0 1.23.2 1.75.71 1.75.82 0 1.85-.21 8.1-.21 12.2 0 13.53.21 14.35.21 1 0 1.23-.41 1.23-1.64 0-1-.41-1.44-6.56-1.44-5.33 0-5.33-2.36-5.33-3.69 0-1.74 1.33-6.46 5.64-17.72" class="cls-2"/><path d="M72.78 71.23c-4 0-6.15-1.13-7.79-4.92a547.82 547.82 0 0 1-7.28-17.92l-10.85-.13C49 53.71 54.43 66.74 54.43 69c0 1.74-1.33 2.25-5.43 2.25-2 0-4.3.2-4.3 1.23s.1 1.85.51 1.85c.71 0 1.43-.21 15.27-.21 12.4 0 13.21.21 14.25.21 1.04 0 1.12-1.23 1.12-2s-2.16-1.1-3.07-1.1z" class="cls-2"/><path fill="#009bc2" d="M57.83 48.61c-17.62-.16-12.86.54-36.12.09l2.87-8.7 29.77-.45" class="cls-1"/><path fill="#009bc2" d="M57.81 48.64c11-.88 20.59-3.55 20.59-5.24 0-1.69-16.29-3.76-24.12-3.83z" class="cls-1"/></svg>