<svg xmlns="http://www.w3.org/2000/svg" viewBox="0 0 300 110.36"><defs><style>.e{fill:#042d37}</style></defs><g id="c"><path d="m232.44 81.81-10.96 11.31-.07 16.94c6.43-7.22 19.66-21.85 26.22-29.02a7.91 7.91 0 0 0 .02-10.63c-6.67-7.26-19.96-22.19-26.35-29.62l.04 16.63 11.07 11.99h-18.04l-196.55.14 30.74-50.38 10.53 19.82H44.2l-7.02 13.18H66.1l5.12 9.48h18.02L57.74 4.56C56.04 1.53 53.57.01 50.35.01h-3.79c-3.22 0-5.69 1.52-7.4 4.55L1.52 66.26c-4.18 6.84.75 15.62 8.77 15.62 4.97.06 225.09-.11 222.15-.07" class="e"/><path d="M111.89 15.85h25.98c2.28 0 4.14.71 5.59 2.13 2.91 2.62 2.91 8.86 0 11.47-1.45 1.42-3.32 2.13-5.59 2.13h-21.24v14.41h14.6l12.33 15.65h21.62l-15.55-18.11c7.96-3.78 12.71-11.43 12.61-20.48.17-9.64-5.55-18.19-14.6-21.38-2.97-1.11-6.23-1.66-9.77-1.66H95.39v61.63h16.5zM170.96.01h16.59v61.63h-16.59zM214.1 22.11c2.55 2.43 34.02 37.53 36.03 38.31 1.26.82 3 1.23 5.21 1.23 5.16.15 9.42.15 9.48-6.35V.02H248.8v35.94L219.69 4.57c-.7-.76-1.37-1.42-2.04-1.99a10.5 10.5 0 0 0-2.13-1.42c-2.7-1.46-6.77-1.1-9.86-1.14q-7.68 0-7.68 7.02v54.62h16.12z" class="e"/><path d="m282.78 81.81-10.96 11.31-.07 16.94c6.42-7.21 19.63-21.82 26.18-28.98a7.985 7.985 0 0 0 .02-10.72c-6.66-7.25-19.93-22.15-26.31-29.58l.04 16.63 16.47 18.47-5.36 5.91Z" style="fill:#0e7b9b"/><path d="M266.33 64.07c-2.26 2.6-9.6 2.41-10.96 2.15s-2.57-.94-2.57-.94l10.21 10.91c-3.29 3.84-12.68 13.49-16.32 17.23l-.07 16.94c6.4-7.19 19.54-21.72 26.07-28.86a7.96 7.96 0 0 0-.11-10.84l-5.82-6.16-.42-.43Z" style="fill:#06576d"/></g></svg>
