<svg xmlns="http://www.w3.org/2000/svg" viewBox="0 0 265.04 104"><defs><style>.a{fill:#009ac7;}.b{fill:#131010;}.c{fill:none;}</style></defs><path class="a" d="M215.15,46.26c1.49,1.62,3,3.27,4.64,5l5.91-.14c.05-1.48.1-3,.15-4.61Q220.77,46.37,215.15,46.26Z"/><path class="a" d="M227.68,46.54c-.05,1.5-.09,3-.13,4.52C250.81,50.47,265,49.67,265,48.8S250.86,47.12,227.68,46.54Z"/><path class="a" d="M45.46,51.36C14.79,50.77.37,49.84.37,48.82s15.6-2,47.17-2.62Z"/><path class="a" d="M98.48,48.7l0-3.09c-17,.1-35.35.28-49.11.54L47.6,51.41c14.14.28,40.17.26,50.88.36Z"/><path class="a" d="M116,46a35.48,35.48,0,0,0,3.6,6.06H131.2c28.43,0,58.36-.41,79.92-.77l-4.41-5c-20.58-.31-49.23-.73-75.51-.73H116.46C116.2,45.66,116,45.78,116,46Z"/><path class="b" d="M43.1,82.33H41.56L41,80.55H38.11l-.59,1.78H36l2.75-7.87h1.51Zm-2.62-3.11-1-2.92-1,2.92Z"/><path class="b" d="M43.87,76.63h1.25v.78a1.93,1.93,0,0,1,1.6-.92,1.6,1.6,0,0,1,.86.22,1.62,1.62,0,0,1,.59.69,2.38,2.38,0,0,1,.74-.69,1.64,1.64,0,0,1,.83-.22,1.72,1.72,0,0,1,1,.25,1.55,1.55,0,0,1,.59.75,3.75,3.75,0,0,1,.14,1.19v3.65H50.07V79.06A2.7,2.7,0,0,0,49.93,78a.63.63,0,0,0-.58-.33.88.88,0,0,0-.54.2,1.05,1.05,0,0,0-.36.56,4.36,4.36,0,0,0-.11,1.19v2.74H47V79.2a4.57,4.57,0,0,0-.08-1.08.59.59,0,0,0-.64-.48,1,1,0,0,0-.57.19,1.17,1.17,0,0,0-.36.54,4.71,4.71,0,0,0-.1,1.18v2.78H43.87Z"/><path class="b" d="M55.83,80.53l1.36.25A2.42,2.42,0,0,1,56.37,82a2.25,2.25,0,0,1-1.41.43,2.21,2.21,0,0,1-2-1,3.57,3.57,0,0,1-.51-2,3.37,3.37,0,0,1,.67-2.23,2.09,2.09,0,0,1,1.68-.8,2.17,2.17,0,0,1,1.81.84,4,4,0,0,1,.64,2.59H53.86a1.65,1.65,0,0,0,.33,1,1,1,0,0,0,.78.38.8.8,0,0,0,.54-.2A1.17,1.17,0,0,0,55.83,80.53ZM55.92,79a1.62,1.62,0,0,0-.3-1,.91.91,0,0,0-1.45,0,1.55,1.55,0,0,0-.28,1Z"/><path class="b" d="M59.78,82.33H58.42v-5.7h1.27v.81a2.44,2.44,0,0,1,.57-.77,1,1,0,0,1,.59-.18,1.55,1.55,0,0,1,.88.28l-.41,1.32a1.14,1.14,0,0,0-.64-.24.67.67,0,0,0-.48.17,1.32,1.32,0,0,0-.31.63,10.65,10.65,0,0,0-.11,1.92Z"/><path class="b" d="M62.42,75.85V74.46h1.36v1.39Zm0,6.48v-5.7h1.36v5.7Z"/><path class="b" d="M69.75,78.3l-1.34.26a1.14,1.14,0,0,0-.31-.66.88.88,0,0,0-.62-.23,1,1,0,0,0-.81.4,2.09,2.09,0,0,0-.31,1.3,2.54,2.54,0,0,0,.31,1.45,1,1,0,0,0,.83.42.89.89,0,0,0,.63-.25,1.61,1.61,0,0,0,.34-.85l1.35.25A2.72,2.72,0,0,1,69,82a2.27,2.27,0,0,1-1.57.52,2.22,2.22,0,0,1-1.8-.79,3.29,3.29,0,0,1-.67-2.2,3.32,3.32,0,0,1,.67-2.2,2.27,2.27,0,0,1,1.82-.79,2.37,2.37,0,0,1,1.5.44A2.52,2.52,0,0,1,69.75,78.3Z"/><path class="b" d="M71.87,78.36l-1.22-.25a2.2,2.2,0,0,1,.72-1.23,2.44,2.44,0,0,1,1.5-.39,3,3,0,0,1,1.35.24,1.41,1.41,0,0,1,.63.6A3.5,3.5,0,0,1,75,78.69l0,1.76a7,7,0,0,0,.07,1.11,3.27,3.27,0,0,0,.25.77H74c0-.1-.08-.24-.13-.44a1.47,1.47,0,0,0,0-.17,2.41,2.41,0,0,1-.75.56,1.85,1.85,0,0,1-.84.19A1.63,1.63,0,0,1,71,82a1.7,1.7,0,0,1-.46-1.21,1.74,1.74,0,0,1,.21-.86,1.35,1.35,0,0,1,.58-.58A4,4,0,0,1,72.37,79a6.29,6.29,0,0,0,1.32-.37v-.15a.86.86,0,0,0-.2-.63,1.08,1.08,0,0,0-.73-.19.93.93,0,0,0-.56.16A1.14,1.14,0,0,0,71.87,78.36Zm1.82,1.24c-.17.06-.45.14-.82.23a2.44,2.44,0,0,0-.73.26.65.65,0,0,0-.27.54.81.81,0,0,0,.21.55.71.71,0,0,0,.54.23,1.08,1.08,0,0,0,.69-.27.91.91,0,0,0,.32-.5,3,3,0,0,0,.06-.74Z"/><path class="b" d="M81.15,82.33H79.79V79.41a5.61,5.61,0,0,0-.08-1.19.85.85,0,0,0-.29-.43.73.73,0,0,0-.46-.15,1,1,0,0,0-.64.22,1.09,1.09,0,0,0-.38.57,5.47,5.47,0,0,0-.1,1.31v2.59H76.48v-5.7h1.26v.83a2,2,0,0,1,1.69-1,1.86,1.86,0,0,1,.82.18,1.37,1.37,0,0,1,.56.46,1.63,1.63,0,0,1,.27.63,5.38,5.38,0,0,1,.07,1Z"/><path class="b" d="M85.5,82.33V74.46h3a4.66,4.66,0,0,1,1.64.21,1.67,1.67,0,0,1,.83.75,2.57,2.57,0,0,1,.31,1.25,2.24,2.24,0,0,1-.47,1.46,2.12,2.12,0,0,1-1.39.73,3.38,3.38,0,0,1,.77.66A10.62,10.62,0,0,1,91,80.8l.86,1.53H90.17l-1-1.72a10.44,10.44,0,0,0-.76-1.15,1.05,1.05,0,0,0-.43-.32,2.09,2.09,0,0,0-.72-.09h-.29v3.28Zm1.44-4.53H88a4.61,4.61,0,0,0,1.28-.1.79.79,0,0,0,.39-.33,1.11,1.11,0,0,0,.15-.6,1.09,1.09,0,0,0-.19-.65.87.87,0,0,0-.54-.31,9.53,9.53,0,0,0-1,0H86.94Z"/><path class="b" d="M95.69,80.53l1.36.25A2.42,2.42,0,0,1,96.23,82a2.25,2.25,0,0,1-1.41.43,2.21,2.21,0,0,1-2-1,3.57,3.57,0,0,1-.51-2A3.37,3.37,0,0,1,93,77.29a2.09,2.09,0,0,1,1.68-.8,2.2,2.2,0,0,1,1.82.84,4.08,4.08,0,0,1,.63,2.59H93.72a1.65,1.65,0,0,0,.33,1,1,1,0,0,0,.78.38.8.8,0,0,0,.54-.2A1.17,1.17,0,0,0,95.69,80.53Zm.1-1.53a1.68,1.68,0,0,0-.31-1,.91.91,0,0,0-.71-.35A.87.87,0,0,0,94,78a1.5,1.5,0,0,0-.29,1Z"/><path class="b" d="M98.2,82.71l1.55.18a.67.67,0,0,0,.18.44.93.93,0,0,0,.61.17,1.4,1.4,0,0,0,.79-.18.63.63,0,0,0,.28-.38,2.63,2.63,0,0,0,.06-.69v-.84a1.81,1.81,0,0,1-1.54.92,1.85,1.85,0,0,1-1.64-1A3.69,3.69,0,0,1,98,79.44a3.38,3.38,0,0,1,.62-2.19,1.9,1.9,0,0,1,1.54-.76,1.82,1.82,0,0,1,1.57.93v-.79H103v5.12a5.59,5.59,0,0,1-.15,1.51,1.91,1.91,0,0,1-.42.79,1.85,1.85,0,0,1-.72.45,3.63,3.63,0,0,1-1.14.16,2.73,2.73,0,0,1-1.85-.5,1.64,1.64,0,0,1-.55-1.27Zm1.22-3.35a2.24,2.24,0,0,0,.32,1.33.94.94,0,0,0,.77.42,1,1,0,0,0,.84-.43,2.11,2.11,0,0,0,.34-1.29,2.17,2.17,0,0,0-.33-1.32,1,1,0,0,0-.82-.43.94.94,0,0,0-.8.43A2.15,2.15,0,0,0,99.42,79.36Z"/><path class="b" d="M104.47,75.85V74.46h1.36v1.39Zm0,6.48v-5.7h1.36v5.7Z"/><path class="b" d="M106.85,80.72l1.36-.23a1,1,0,0,0,1.1.89,1.21,1.21,0,0,0,.78-.22.48.48,0,0,0,.19-.4.44.44,0,0,0-.1-.29,1,1,0,0,0-.46-.2,7.11,7.11,0,0,1-2.09-.74,1.54,1.54,0,0,1-.6-1.29,1.68,1.68,0,0,1,.52-1.25,2.35,2.35,0,0,1,1.64-.5,2.62,2.62,0,0,1,1.57.38,1.88,1.88,0,0,1,.7,1.12l-1.28.26a.89.89,0,0,0-.31-.51,1,1,0,0,0-.65-.18,1.41,1.41,0,0,0-.78.17.37.37,0,0,0-.15.31.37.37,0,0,0,.14.28,4.6,4.6,0,0,0,1.27.42,3.62,3.62,0,0,1,1.51.68,1.51,1.51,0,0,1,.43,1.13,1.81,1.81,0,0,1-.59,1.35,2.4,2.4,0,0,1-1.74.57,2.68,2.68,0,0,1-1.66-.47A2.23,2.23,0,0,1,106.85,80.72Z"/><path class="b" d="M115.29,76.63v1.2h-.92v2.31a6.44,6.44,0,0,0,0,.81.41.41,0,0,0,.12.2.32.32,0,0,0,.22.07,1.6,1.6,0,0,0,.53-.14l.12,1.17a2.39,2.39,0,0,1-1.06.22,1.51,1.51,0,0,1-.65-.14,1,1,0,0,1-.43-.35,1.64,1.64,0,0,1-.19-.59,8.25,8.25,0,0,1,0-1.07V77.83h-.63v-1.2H113V75.49l1.36-.89v2Z"/><path class="b" d="M117.64,82.33h-1.36v-5.7h1.26v.81a2.59,2.59,0,0,1,.58-.77,1,1,0,0,1,.59-.18,1.55,1.55,0,0,1,.88.28l-.41,1.32a1.14,1.14,0,0,0-.64-.24.67.67,0,0,0-.48.17,1.23,1.23,0,0,0-.31.63,9.76,9.76,0,0,0-.11,1.92Z"/><path class="b" d="M119.63,76.63h1.46l1.22,4.05,1.2-4.05h1.41l-1.81,5.49-.33,1a4,4,0,0,1-.34.76,1.46,1.46,0,0,1-.89.69,2.4,2.4,0,0,1-.69.09,3.31,3.31,0,0,1-.77-.09L120,83.38a2.67,2.67,0,0,0,.58.08.8.8,0,0,0,.7-.32,2.3,2.3,0,0,0,.35-.79Z"/><path class="b" d="M128.14,76.63h.75V76.2a2.92,2.92,0,0,1,.14-1.08,1.14,1.14,0,0,1,.51-.58,1.77,1.77,0,0,1,.94-.23,3.42,3.42,0,0,1,1.14.2l-.18,1a2.39,2.39,0,0,0-.63-.09.5.5,0,0,0-.43.16.93.93,0,0,0-.13.59v.41h1v1.18h-1v4.52h-1.36V77.81h-.75Z"/><path class="b" d="M131.8,79.4a3.38,3.38,0,0,1,.33-1.46,2.45,2.45,0,0,1,1-1.08,2.58,2.58,0,0,1,1.37-.37,2.44,2.44,0,0,1,1.91.84,3.08,3.08,0,0,1,.75,2.13,3.16,3.16,0,0,1-.75,2.16,2.44,2.44,0,0,1-1.9.85,2.83,2.83,0,0,1-1.35-.35,2.32,2.32,0,0,1-1-1.05A3.82,3.82,0,0,1,131.8,79.4Zm1.39.08a2,2,0,0,0,.36,1.3,1.12,1.12,0,0,0,.9.46,1.09,1.09,0,0,0,.9-.46,2.49,2.49,0,0,0,0-2.61,1.11,1.11,0,0,0-.9-.45,1.14,1.14,0,0,0-.9.45A2.08,2.08,0,0,0,133.19,79.48Z"/><path class="b" d="M139.58,82.33h-1.36v-5.7h1.27v.81a2.43,2.43,0,0,1,.58-.77,1,1,0,0,1,.58-.18,1.58,1.58,0,0,1,.89.28l-.42,1.32a1.11,1.11,0,0,0-.63-.24A.67.67,0,0,0,140,78a1.23,1.23,0,0,0-.31.63,9.49,9.49,0,0,0-.12,1.92Z"/><path class="b" d="M145,82.33V74.46h1.44v7.87Z"/><path class="b" d="M152.59,82.33h-1.35V79.41a4.8,4.8,0,0,0-.09-1.19.83.83,0,0,0-.28-.43.75.75,0,0,0-.47-.15,1,1,0,0,0-.63.22,1,1,0,0,0-.38.57,5.32,5.32,0,0,0-.11,1.31v2.59h-1.36v-5.7h1.27v.83a2,2,0,0,1,1.69-1,1.82,1.82,0,0,1,.81.18,1.3,1.3,0,0,1,.56.46,1.63,1.63,0,0,1,.27.63,5.38,5.38,0,0,1,.07,1Z"/><path class="b" d="M156.43,76.63v1.2h-.92v2.31a6.44,6.44,0,0,0,0,.81.41.41,0,0,0,.12.2.34.34,0,0,0,.22.07,1.7,1.7,0,0,0,.54-.14l.11,1.17a2.39,2.39,0,0,1-1.06.22,1.51,1.51,0,0,1-.65-.14,1,1,0,0,1-.43-.35,1.64,1.64,0,0,1-.19-.59,8.25,8.25,0,0,1,0-1.07V77.83h-.63v-1.2h.63V75.49l1.36-.89v2Z"/><path class="b" d="M160.43,80.53l1.36.25A2.42,2.42,0,0,1,161,82a2.51,2.51,0,0,1-3.39-.54,3.57,3.57,0,0,1-.51-2,3.43,3.43,0,0,1,.67-2.23,2.11,2.11,0,0,1,1.69-.8,2.18,2.18,0,0,1,1.81.84,4.08,4.08,0,0,1,.63,2.59h-3.41a1.77,1.77,0,0,0,.33,1,1,1,0,0,0,.78.38.78.78,0,0,0,.54-.2A1.17,1.17,0,0,0,160.43,80.53Zm.1-1.53a1.62,1.62,0,0,0-.31-1,.89.89,0,0,0-.71-.35.88.88,0,0,0-.73.37,1.5,1.5,0,0,0-.29,1Z"/><path class="b" d="M164.38,82.33H163v-5.7h1.27v.81a2.44,2.44,0,0,1,.57-.77,1,1,0,0,1,.59-.18,1.58,1.58,0,0,1,.89.28l-.42,1.32a1.13,1.13,0,0,0-.63-.24.72.72,0,0,0-.49.17,1.32,1.32,0,0,0-.31.63,10.65,10.65,0,0,0-.11,1.92Z"/><path class="b" d="M171.69,82.33h-1.36V79.41a5,5,0,0,0-.08-1.19.83.83,0,0,0-.28-.43.75.75,0,0,0-.47-.15,1,1,0,0,0-.63.22,1,1,0,0,0-.38.57,5.32,5.32,0,0,0-.11,1.31v2.59H167v-5.7h1.27v.83a2,2,0,0,1,1.68-1,1.83,1.83,0,0,1,.82.18,1.3,1.3,0,0,1,.56.46,1.63,1.63,0,0,1,.27.63,5.38,5.38,0,0,1,.07,1Z"/><path class="b" d="M176.14,80.53l1.36.25a2.5,2.5,0,0,1-.83,1.26,2.51,2.51,0,0,1-3.39-.54,3.66,3.66,0,0,1-.5-2,3.43,3.43,0,0,1,.66-2.23,2.13,2.13,0,0,1,1.69-.8,2.17,2.17,0,0,1,1.81.84,4.08,4.08,0,0,1,.63,2.59h-3.4a1.65,1.65,0,0,0,.33,1,1,1,0,0,0,.78.38.76.76,0,0,0,.53-.2A1.11,1.11,0,0,0,176.14,80.53Zm.09-1.53a1.56,1.56,0,0,0-.31-1,.9.9,0,0,0-1.44,0,1.56,1.56,0,0,0-.29,1Z"/><path class="b" d="M181.13,76.63v1.2h-.92v2.31a5.55,5.55,0,0,0,0,.81.33.33,0,0,0,.11.2.37.37,0,0,0,.23.07,1.66,1.66,0,0,0,.53-.14l.12,1.17a2.42,2.42,0,0,1-1.06.22,1.56,1.56,0,0,1-.66-.14,1.09,1.09,0,0,1-.43-.35,1.47,1.47,0,0,1-.18-.59,7.67,7.67,0,0,1-.05-1.07V77.83h-.62v-1.2h.62V75.49l1.36-.89v2Z"/><path class="b" d="M185.05,82.33V74.46h1.39l2.91,5.26V74.46h1.32v7.87h-1.43l-2.86-5.15v5.15Z"/><path class="b" d="M195.66,82.33v-.85a2.21,2.21,0,0,1-.74.72,1.9,1.9,0,0,1-1,.27,1.71,1.71,0,0,1-.93-.25,1.44,1.44,0,0,1-.6-.71,3.6,3.6,0,0,1-.18-1.27V76.63h1.35v2.62a8,8,0,0,0,.08,1.48.79.79,0,0,0,.28.43.8.8,0,0,0,.5.15,1,1,0,0,0,.63-.21,1.09,1.09,0,0,0,.38-.52,6.72,6.72,0,0,0,.1-1.54V76.63h1.36v5.7Z"/><path class="b" d="M198.32,76.63h1.25v.78a1.93,1.93,0,0,1,1.6-.92,1.6,1.6,0,0,1,.86.22,1.71,1.71,0,0,1,.6.69,2.36,2.36,0,0,1,.73-.69,1.64,1.64,0,0,1,.83-.22,1.77,1.77,0,0,1,1,.25,1.53,1.53,0,0,1,.58.75,3.47,3.47,0,0,1,.14,1.19v3.65h-1.36V79.06a2.53,2.53,0,0,0-.14-1.09.62.62,0,0,0-.58-.33.88.88,0,0,0-.54.2,1.05,1.05,0,0,0-.36.56,4.36,4.36,0,0,0-.11,1.19v2.74h-1.36V79.2a5.5,5.5,0,0,0-.07-1.08.73.73,0,0,0-.23-.36.66.66,0,0,0-.42-.12,1,1,0,0,0-.56.19,1,1,0,0,0-.36.54,4.18,4.18,0,0,0-.11,1.18v2.78h-1.36Z"/><path class="b" d="M207.27,82.33V74.46h1.36v2.82a1.84,1.84,0,0,1,1.49-.79,1.93,1.93,0,0,1,1.55.75,3.39,3.39,0,0,1,.61,2.18,3.62,3.62,0,0,1-.62,2.26,1.88,1.88,0,0,1-1.52.79,1.7,1.7,0,0,1-.87-.25,2.24,2.24,0,0,1-.74-.73v.84Zm1.34-3a2.8,2.8,0,0,0,.25,1.32,1.08,1.08,0,0,0,.94.6.93.93,0,0,0,.77-.43,2.22,2.22,0,0,0,.32-1.35,2.38,2.38,0,0,0-.32-1.42,1,1,0,0,0-.82-.44,1,1,0,0,0-.81.43A2.08,2.08,0,0,0,208.61,79.36Z"/><path class="b" d="M216.43,80.53l1.36.25A2.49,2.49,0,0,1,217,82a2.25,2.25,0,0,1-1.41.43,2.19,2.19,0,0,1-2-1,3.57,3.57,0,0,1-.51-2,3.37,3.37,0,0,1,.67-2.23,2.09,2.09,0,0,1,1.68-.8,2.17,2.17,0,0,1,1.81.84,4.14,4.14,0,0,1,.64,2.59h-3.41a1.65,1.65,0,0,0,.33,1,1,1,0,0,0,.78.38.8.8,0,0,0,.54-.2A1.17,1.17,0,0,0,216.43,80.53Zm.09-1.53a1.62,1.62,0,0,0-.3-1,.91.91,0,0,0-1.45,0,1.5,1.5,0,0,0-.28,1Z"/><path class="b" d="M220.38,82.33H219v-5.7h1.26v.81a2.59,2.59,0,0,1,.58-.77,1,1,0,0,1,.59-.18,1.55,1.55,0,0,1,.88.28l-.41,1.32a1.14,1.14,0,0,0-.64-.24.67.67,0,0,0-.48.17,1.23,1.23,0,0,0-.31.63,10.65,10.65,0,0,0-.11,1.92Z"/><path class="b" d="M222.55,80.72l1.36-.23a1.17,1.17,0,0,0,.35.66,1.13,1.13,0,0,0,.74.23,1.26,1.26,0,0,0,.79-.22.5.5,0,0,0,.18-.4.39.39,0,0,0-.1-.29,1,1,0,0,0-.45-.2,6.88,6.88,0,0,1-2.09-.74,1.52,1.52,0,0,1-.61-1.29,1.69,1.69,0,0,1,.53-1.25,2.3,2.3,0,0,1,1.63-.5,2.58,2.58,0,0,1,1.57.38,1.94,1.94,0,0,1,.71,1.12l-1.28.26a1,1,0,0,0-.32-.51,1,1,0,0,0-.65-.18,1.35,1.35,0,0,0-.77.17A.37.37,0,0,0,224,78a.35.35,0,0,0,.13.28,4.74,4.74,0,0,0,1.27.42,3.67,3.67,0,0,1,1.52.68,1.5,1.5,0,0,1,.42,1.13,1.81,1.81,0,0,1-.59,1.35,2.4,2.4,0,0,1-1.74.57,2.68,2.68,0,0,1-1.66-.47A2.17,2.17,0,0,1,222.55,80.72Z"/><path class="b" d="M47.18,65.11c-3.24,0-3.24-1.43-3.24-2.24,0-1.06.81-3.93,3.43-10.78a4,4,0,0,1,.31-.68H47.6l1.75-5.26h0c1.47-4.56,5.47-15.68,5.83-15.68h.12L61,46l6.49-.08c-4.2-11-8.46-22.65-8.73-23.32s-.5-.75-1.06-.75c-.75,0-1,0-1.19.56-6,15.08-10.84,28.54-14.64,39.56-.81,2.44-2,3.18-3.18,3.18-1.68,0-2.3.31-2.3.81,0,.75.12,1.06.44,1.06.49,0,1.12-.12,4.92-.12,7.41,0,8.22.12,8.72.12s.75-.25.75-1S50.92,65.11,47.18,65.11Z"/><path class="b" d="M78.65,65.11c-2.43,0-3.74-.68-4.74-3-1.1-2.52-2.59-6.22-4.21-10.37l-6.6-.09c1.32,3.32,4.39,10.72,4.39,12.08,0,1.06-.81,1.37-3.3,1.37-1.25,0-2.62.13-2.62.75s.07,1.12.32,1.12c.43,0,.87-.12,9.28-.12,7.54,0,8,.12,8.66.12s.69-.75.69-1.18S79.21,65.11,78.65,65.11Z"/><path class="b" d="M104.62,45.24V28.72c0-4.11.87-4.42,4.67-4.42,7.17,0,10.66,4.61,10.66,10.34s-2.74,10.6-10.22,10.6ZM98.27,62.37c-.07,1.68-.44,2.74-4.43,2.74-1.74,0-1.74.38-1.74,1.06s0,.81.5.81.68-.12,8.9-.12c9.23,0,9.48.12,9.91.12s.5-.25.5-.81,0-1.06-1.74-1.06c-4.93,0-5.3-1.06-5.36-2.74-.13-3.11-.19-15.26-.19-15.26,2.56-.07,4-.07,6.54,2.49,2.25,2.24,6.36,10.15,11.53,16.88.37.5.56.5,1.12.5.31,0,.63-.12,4.42-.12,4.55,0,4.8.12,5.11.12.57,0,.75-.25.75-.93,0-.38,0-.75-.43-.75-3.74-.06-4.3-.81-8.79-6.23C119.08,52.09,116,46.36,116,46s.38-.37.69-.49c6.85-2.75,10-5.67,10-11.66,0-9-8.85-11.4-16.08-11.4-3.67,0-7.47.25-9.1.25-3.92,0-8.41-.25-8.9-.25s-.56.44-.56.81c0,.56,0,1.06.68,1.06,4.49,0,5.55.5,5.61,4.17C98.39,31.34,98.39,59.26,98.27,62.37Z"/><path class="b" d="M147.8,24.3c5.42,0,6.48.5,6.54,4.17.07,2.87.13,17.12.13,17.12l6.17,0s.06-14.28.12-17.15c.07-3.67,1.13-4.17,6.55-4.17.68,0,.68-.5.68-1.06,0-.37-.12-.81-.56-.81s-5.92.25-9.91.25-9.34-.25-9.84-.25-.56.44-.56.81C147.12,23.8,147.12,24.3,147.8,24.3Z"/><path class="b" d="M166.18,65.11c-4.92,0-5.29-1.06-5.35-2.74-.13-3.11-.19-7.16-.19-9.84V52l-6.17,0v.53c0,2.68-.06,6.73-.19,9.84-.06,1.68-.43,2.74-5.35,2.74-1.75,0-1.75.38-1.75,1.06s0,.81.5.81.68-.12,9.84-.12,9.47.12,9.91.12.5-.25.5-.81S167.93,65.11,166.18,65.11Z"/><path class="b" d="M196.66,65.11c-3.43,0-4.86-1-4.86-3,0-1-.17-4.6-.24-10.47l-2,0c-.19,6.21-.43,10.09-.47,10.73-.24,2.43-2.74,2.74-4.23,2.74-.75,0-2.81.13-2.81.69,0,.75,0,1.18.63,1.18.43,0,1-.12,8-.12,7.67,0,8,.12,8.54.12s.62-.18.62-.93S199.83,65.11,196.66,65.11Z"/><path class="b" d="M235.35,22.43c-.38,0-6.79.25-8.16.25-1.75,0-8-.25-9-.25-.5,0-.68.37-.68,1s.12.87.81.87c5.42,0,7.79.37,7.79,9.91,0,6.1-.32,17.13-.63,22.93C211.49,42.81,201.64,31,194.35,22.8c-.19-.18-.31-.37-.5-.37-1,0-4.61.25-5.54.25-1.13,0-5.55-.25-5.92-.25s-.69.13-.69.87,0,1,.56,1h2.31c1.31,0,4.67,3.24,5.11,4.36a14.62,14.62,0,0,1,.12,2.68c0,5.46-.07,10.48-.16,14.67.64,0,1.29.06,1.92.06,0-5.24.11-10.67.17-15.91,28.79,31,34,37.57,34.58,37.57s.94-.06.94-.87c0-5.92.75-35.21,1.12-37.39.81-4.55,1.87-5.17,6.92-5.17.31,0,.56-.19.56-1.06C235.85,22.87,235.72,22.43,235.35,22.43Z"/><rect class="c" width="265" height="104"/></svg>