<svg xmlns="http://www.w3.org/2000/svg" viewBox="0 0 22.22 23.32"><path fill="#d7eff7" d="m16.34 18.93-1.7 1.76v2.63l1.89-2.12 2.16-2.37c.43-.47.43-1.19 0-1.66l-2.18-2.42-1.9-2.17v2.58l2.56 2.87-.83.92z"/><path fill="#032d37" d="M8.78 12.33h6.83l1.21 2.24h4.26L13.64 1.08A1.9 1.9 0 0 0 11.89 0h-.9Q9.85 0 9.24 1.08L.36 15.66a2.43 2.43 0 0 0 2.07 3.69h10.31l-1.3 1.33v2.63l1.89-2.12 2.16-2.37a1.23 1.23 0 0 0 0-1.66l-2.18-2.42-1.9-2.17v2.58l1.14 1.27-8.33.03 7.26-11.9 2.49 4.68h-3.52l-1.66 3.11z"/><path fill="#99daf2" d="m19.55 18.93-1.7 1.76v2.63l1.89-2.12 2.16-2.37a1.23 1.23 0 0 0 0-1.66l-2.18-2.42-1.9-2.17v2.58l2.56 2.87-.83.92z"/></svg>
