<?xml version="1.0" encoding="UTF-8"?><svg id="b" xmlns="http://www.w3.org/2000/svg" viewBox="0 0 300 110.36"><defs><style>.d{fill:#06576d;}.e{fill:#042d37;}.f{fill:#0e7b9b;}</style></defs><g id="c"><path class="e" d="M232.44,81.81l-10.96,11.31-.07,16.94c6.43-7.22,19.66-21.85,26.22-29.02,2.74-3.01,2.75-7.61.02-10.63-6.67-7.26-19.96-22.19-26.35-29.62l.04,16.63,11.07,11.99h-18.04s-196.55.14-196.55.14l30.74-50.38,10.53,19.82h-14.89l-7.02,13.18h28.92l5.12,9.48h18.02L57.74,4.56C56.04,1.53,53.57.01,50.35.01c0,0-3.79,0-3.79,0-3.22,0-5.69,1.52-7.4,4.55L1.52,66.26c-4.18,6.84.75,15.62,8.77,15.62,4.97.06,225.09-.11,222.15-.07h0Z"/><path class="e" d="M111.89,15.85h25.98c2.28,0,4.14.71,5.59,2.13,2.91,2.62,2.91,8.86,0,11.47-1.45,1.42-3.32,2.13-5.59,2.13h-21.24v14.41h14.6l12.33,15.65h21.62l-15.55-18.11c7.96-3.78,12.71-11.43,12.61-20.48.17-9.64-5.55-18.19-14.6-21.38-2.97-1.11-6.23-1.66-9.77-1.66h-42.48v61.63h16.5V15.85h0Z"/><rect class="e" x="170.96" y=".01" width="16.59" height="61.63"/><path class="e" d="M214.1,22.11c2.55,2.43,34.02,37.53,36.03,38.31,1.26.82,3,1.23,5.21,1.23,5.16.15,9.42.15,9.48-6.35,0,0,0-55.28,0-55.28h-16.02v35.94l-29.11-31.39c-.7-.76-1.37-1.42-2.04-1.99-.67-.57-1.37-1.04-2.13-1.42-2.7-1.46-6.77-1.1-9.86-1.14-5.12,0-7.68,2.34-7.68,7.02v54.62h16.12V22.11h0Z"/><path class="f" d="M282.78,81.81l-10.96,11.31-.07,16.94c6.42-7.21,19.63-21.82,26.18-28.98,2.76-3.04,2.77-7.67.02-10.72-6.66-7.25-19.93-22.15-26.31-29.58l.04,16.63,16.47,18.47-5.36,5.91Z"/><path class="d" d="M266.33,64.07c-2.26,2.6-9.6,2.41-10.96,2.15s-2.57-.94-2.57-.94l10.21,10.91c-3.29,3.84-12.68,13.49-16.32,17.23l-.07,16.94c6.4-7.19,19.54-21.72,26.07-28.86,2.81-3.09,2.76-7.81-.11-10.84l-5.82-6.16-.42-.43Z"/></g></svg>
