<svg xmlns="http://www.w3.org/2000/svg" viewBox="0 0 9 7.94"><path fill="#49b48a" d="m6.08 3.66 1.86-2.18C8.29 1 8.5.8 8.34 0L5.58 3.23a2.98 2.98 0 0 0-.72 1.94v.12l-1.2-1.37a2.16 2.16 0 0 0-.35-.31 3.73 3.73 0 0 0-.69-.37l.25-.08c.14-.03.29-.05.44-.05a1.18 1.18 0 0 1 .94.41l.08.1.5-.43-.09-.1v-.01a1.91 1.91 0 0 0-1.43-.63h-.17c-.55.1-.88.42-1.4.48H.04c-.04 0-.04.05 0 .06l1.8.45a4.38 4.38 0 0 1 1.34.92l1.6 1.83c.23.18.53.28 1.15.28a2.32 2.32 0 0 1 .16-2.81zM9 7.94c-.65-.01-.94-.12-1.17-.34l-.36-.4-.07-.1v.01l-.64-.72a1.8 1.8 0 0 1-.01-2.37l1.57-1.84c.17.82-.07 1-.45 1.54l-.62.73a1.14 1.14 0 0 0-.2 1.14c.04.13.11.25.2.36z"/></svg>