<svg xmlns="http://www.w3.org/2000/svg" id="Layer_1" viewBox="0 0 131 130.982" width="2500" height="2500" version="1.1"><style id="style4286">.st0{fill:#08a64e}</style><g id="g4851" transform="translate(1.318 32.353)" fill="#3c9" fill-opacity="1"><path id="path4290" d="M114.9 54.4c-3.1-2.3-11.1-8.3-20-14.8H84.1C94.9 46.4 105.3 53 105.3 53s-12.5-4.7-15.4-1.6c-14.9 15.5-30.4 7-39.1-3-7-7.9-15.7-17.6-6.8-23 8.1-5 13.5-1.6 16.5-.4.8.4 4.8 2.7 10.1 6v-8.9c-2.4-1.6-4.3-2.8-5.5-3.3-8.2-3.9-18.3-5.3-29.7 7.3-5.8 6.3-32.9 6.7-35.4 8.5 0 0 31.5-.3 34.9 4.5 10.3 14.7 30.6 36.7 52.8 22.7 5.7-3.6 20.2-6.3 40.6 4.2.8.4-6-6.1-13.4-11.6" class="st0" fill="#3c9" fill-opacity="1"/><path id="path4292" d="M55.1 32.3c0 2.3-1.9 4.2-4.2 4.2-2.3 0-4.2-1.9-4.2-4.2 0-2.3 1.9-4.2 4.2-4.2 2.3 0 4.2 1.9 4.2 4.2m36.6-13.8c-4.2-4.2-9.8-6.3-15.3-6.4v5.8c4.1 0 8.1 1.6 11.2 4.7 3.1 3.1 4.7 7.3 4.7 11.4h5.8c0-5.6-2.1-11.2-6.4-15.5" class="st0" fill="#3c9" fill-opacity="1"/><path id="path4294" d="M100.7 10.4C94 3.6 85.2.1 76.4 0v6.4c7.1.1 14.3 2.9 19.8 8.4 5.3 5.3 8.1 12.2 8.4 19.2h6.4c-.2-8.5-3.7-17.1-10.3-23.6M83.5 26.7c-2-2-4.5-3-7.1-3V34h10.1c0-2.6-1-5.3-3-7.3" class="st0" fill="#3c9" fill-opacity="1"/></g></svg>