<svg xmlns="http://www.w3.org/2000/svg" width="34" height="30" viewBox="0 0 8.996 7.938"><path d="m6.076 3.657 1.86-2.176C8.29.995 8.496.794 8.337 0l-2.76 3.232a2.978 2.978 0 0 0-.715 1.934l.003.128L3.66 3.92l-.002-.002a2.158 2.158 0 0 0-.353-.31 3.73 3.73 0 0 0-.681-.372l.243-.073c.142-.034.293-.055.441-.055.167 0 .33.026.487.09s.307.161.455.321l.08.095.501-.424-.09-.106-.003-.004c-.211-.231-.451-.392-.697-.491s-.497-.137-.733-.137l-.167.006c-.548.09-.886.415-1.393.467v.001H.03c-.037 0-.043.054-.006.061l1.815.457c.429.199.84.452 1.165.76.063.05.118.101.164.152l1.606 1.83c.228.188.522.284 1.149.288a2.319 2.319 0 0 1 .152-2.817zm2.92 4.28c-.65-.008-.933-.118-1.166-.333l-.36-.411-.074-.088.004.009-.64-.729a1.801 1.801 0 0 1-.012-2.363l1.577-1.838c.161.819-.072 1.002-.453 1.536l-.625.729a1.142 1.142 0 0 0-.206 1.146c.048.128.119.25.214.358z" fill="#49b48a"/></svg>