<svg xmlns="http://www.w3.org/2000/svg" id="Layer_1" data-name="Layer 1" viewBox="0 0 853 208"><defs><style>.cls-2{fill:#417598}.cls-3{fill:none}</style></defs><path d="M171.542 47.635 109.437 12.2a24.223 24.223 0 0 0-24.149-.002L23.125 47.689a24.18 24.18 0 0 0-12.091 20.907v70.981a24.394 24.394 0 0 0 12.146 20.96l62.105 35.489a24.159 24.159 0 0 0 24.15 0l62.162-35.49a24.251 24.251 0 0 0 12.091-20.908V68.596a24.396 24.396 0 0 0-12.146-20.96Zm-79.86 137.212-62.047-35.485a11.379 11.379 0 0 1-5.654-9.785v-70.98a11.349 11.349 0 0 1 5.592-9.781L91.744 23.37a11.322 11.322 0 0 1 5.624-1.51 10.783 10.783 0 0 1 5.675 1.466l62.095 35.483a11.379 11.379 0 0 1 5.654 9.786v70.981a11.348 11.348 0 0 1-5.592 9.78l-62.17 35.496a11.432 11.432 0 0 1-5.687 1.516 11.225 11.225 0 0 1-5.661-1.522Z" style="fill:#fff"/><path d="M186.268 68.589a26.987 26.987 0 0 0-13.444-23.192L110.723 9.963a26.806 26.806 0 0 0-26.717-.004L21.842 45.451A26.768 26.768 0 0 0 8.455 68.596v70.988a26.986 26.986 0 0 0 13.442 23.191l62.107 35.49a26.738 26.738 0 0 0 26.712 0l62.167-35.493a26.842 26.842 0 0 0 13.385-23.144Zm-2.58 71.04a24.251 24.251 0 0 1-12.09 20.906l-62.163 35.492a24.159 24.159 0 0 1-24.15-.001L23.18 160.537a24.394 24.394 0 0 1-12.146-20.96v-70.98a24.18 24.18 0 0 1 12.091-20.908l62.163-35.492a24.223 24.223 0 0 1 24.15.002l62.104 35.436a24.396 24.396 0 0 1 12.146 20.961Z" class="cls-2"/><path d="M165.2 149.357a11.348 11.348 0 0 0 5.592-9.78v-70.98a11.379 11.379 0 0 0-5.654-9.787l-62.095-35.483a10.783 10.783 0 0 0-5.675-1.467 11.322 11.322 0 0 0-5.624 1.51l-62.17 35.446a11.349 11.349 0 0 0-5.593 9.78v70.981a11.379 11.379 0 0 0 5.654 9.786l62.047 35.484a11.225 11.225 0 0 0 5.66 1.522 11.432 11.432 0 0 0 5.688-1.516Z" class="cls-2"/><path d="M817.34 96.226a5.73 5.73 0 0 0 1.518-4.097v-1.062a5.374 5.374 0 0 0-1.518-3.946 5.172 5.172 0 0 0-3.794-1.67H797.46v12.444h16.086a4.932 4.932 0 0 0 3.794-1.669ZM257.065 75.74c-.304 1.517-.759 2.73-1.063 3.945s-.758 2.276-1.062 3.187l-12.14 30.806h28.378L259.34 82.872a55.802 55.802 0 0 1-2.276-7.133ZM456.773 120.81a9.426 9.426 0 0 0-4.098 3.187 6.658 6.658 0 0 0-1.365 4.098 7.495 7.495 0 0 0 .759 3.642 9.968 9.968 0 0 0 1.82 2.58 9.664 9.664 0 0 0 2.732 1.517 27.08 27.08 0 0 0 3.49.303 23.165 23.165 0 0 0 4.553-.455 20.308 20.308 0 0 0 3.946-1.366 17.228 17.228 0 0 0 3.49-2.276 20.278 20.278 0 0 0 3.187-3.035v-11.078a67.976 67.976 0 0 0-11.078.759 31.999 31.999 0 0 0-7.436 2.124ZM815.215 112.767H797.46v12.596h17.755a4.932 4.932 0 0 0 3.794-1.67 5.73 5.73 0 0 0 1.518-4.097v-1.062a5.73 5.73 0 0 0-1.518-4.097 5.434 5.434 0 0 0-3.794-1.67Z" class="cls-3"/><path d="M422.477 66.179a18.132 18.132 0 0 0-5.767 3.794 15.487 15.487 0 0 0-3.642 6.07 25.781 25.781 0 0 0-1.366 8.195v5.16h-8.498v3.793a2.437 2.437 0 0 0 .759 1.67 9.281 9.281 0 0 0 1.82.758l5.919.759v45.526l9.56-.152V96.074h15.176v-6.828h-15.48v-4.857a18.257 18.257 0 0 1 .76-5.766 7.291 7.291 0 0 1 2.124-3.794 7.858 7.858 0 0 1 3.339-2.125 14.031 14.031 0 0 1 4.4-.607h1.67a6.363 6.363 0 0 0 2.428-.151 1.154 1.154 0 0 0 .91-1.214l.152-4.705a19.852 19.852 0 0 0-6.677-1.062 18.547 18.547 0 0 0-7.587 1.214ZM479.536 93.191a15.99 15.99 0 0 0-5.919-4.097 21.031 21.031 0 0 0-8.042-1.518 29.166 29.166 0 0 0-11.382 2.125 31.021 31.021 0 0 0-9.56 6.373l1.669 3.036a4.62 4.62 0 0 0 1.214 1.213 3.06 3.06 0 0 0 1.67.456 3.721 3.721 0 0 0 2.427-.91c.759-.608 1.821-1.215 2.883-1.974a25.241 25.241 0 0 1 4.098-1.972 18.343 18.343 0 0 1 5.766-.91 9.177 9.177 0 0 1 7.892 3.186c1.82 2.125 2.731 5.16 2.731 9.409v4.249a73.96 73.96 0 0 0-15.327 1.517 35.849 35.849 0 0 0-10.167 3.794 15.307 15.307 0 0 0-5.615 5.16 12.166 12.166 0 0 0-1.67 6.07 17.638 17.638 0 0 0 1.214 6.374 13.114 13.114 0 0 0 3.187 4.4 14.277 14.277 0 0 0 4.705 2.58 20.033 20.033 0 0 0 5.918.91 33.477 33.477 0 0 0 5.615-.606 17.063 17.063 0 0 0 4.704-1.518 24.42 24.42 0 0 0 4.25-2.58 39.597 39.597 0 0 0 4.097-3.338l1.062 5.008a2.314 2.314 0 0 0 1.062 1.82 6.09 6.09 0 0 0 2.277.456h4.097v-34.145a30.615 30.615 0 0 0-1.214-8.194 17.863 17.863 0 0 0-3.642-6.374Zm-4.25 35.814a20.278 20.278 0 0 1-3.186 3.035 17.228 17.228 0 0 1-3.49 2.276 20.308 20.308 0 0 1-3.946 1.366 23.165 23.165 0 0 1-4.552.455 27.08 27.08 0 0 1-3.49-.303 9.663 9.663 0 0 1-2.732-1.518 9.967 9.967 0 0 1-1.821-2.58 7.495 7.495 0 0 1-.76-3.641 6.658 6.658 0 0 1 1.367-4.098 9.426 9.426 0 0 1 4.097-3.187 32 32 0 0 1 7.436-2.124 67.976 67.976 0 0 1 11.078-.759ZM393.036 66.786a6.803 6.803 0 0 0-4.704-2.125 7.148 7.148 0 0 0-2.58.607 6.6 6.6 0 0 0-3.642 3.642 4.988 4.988 0 0 0-.607 2.58 7.157 7.157 0 0 0 4.249 6.222 4.988 4.988 0 0 0 2.58.607 7.148 7.148 0 0 0 2.58-.607 10.776 10.776 0 0 0 2.124-1.517 6.842 6.842 0 0 0 1.518-2.125 4.988 4.988 0 0 0 .607-2.58 7.149 7.149 0 0 0-.607-2.58 6.84 6.84 0 0 0-1.518-2.124ZM830.543 104.724v-.455c8.043-2.276 12.14-7.891 12.14-16.844a16.545 16.545 0 0 0-2.732-9.257 17.433 17.433 0 0 0-7.284-6.374 23.679 23.679 0 0 0-10.167-2.276h-48.41v72.69h49.168a23.67 23.67 0 0 0 10.623-2.428 19.352 19.352 0 0 0 7.588-6.83 17.933 17.933 0 0 0 2.883-10.015c0-10.016-4.553-16.086-13.81-18.21ZM797.46 85.452h16.086a5.172 5.172 0 0 1 3.794 1.669 5.374 5.374 0 0 1 1.517 3.946v1.062a5.73 5.73 0 0 1-1.517 4.097 4.932 4.932 0 0 1-3.794 1.67H797.46Zm23.067 34.144a5.73 5.73 0 0 1-1.518 4.098 4.932 4.932 0 0 1-3.794 1.669H797.46v-12.596h17.755a5.434 5.434 0 0 1 3.794 1.67 5.73 5.73 0 0 1 1.518 4.097ZM368.3 132.495l-.91.456a10.652 10.652 0 0 1-1.366.91 10.203 10.203 0 0 1-1.821.91 7.707 7.707 0 0 1-2.58.456 6.23 6.23 0 0 1-4.249-1.67 6.722 6.722 0 0 1-1.67-5.007V96.378h15.328v-6.829h-15.327V71.035H351a2.564 2.564 0 0 0-1.517.455 2.727 2.727 0 0 0-.607 1.366l-2.125 16.541-8.801 1.062v3.794a1.948 1.948 0 0 0 .607 1.518 2.119 2.119 0 0 0 1.365.455h6.374v32.779c0 4.4 1.062 7.74 3.339 10.168a12.667 12.667 0 0 0 9.712 3.49 18.954 18.954 0 0 0 7.132-1.062 19.422 19.422 0 0 0 5.919-3.642l-2.732-4.553a1.744 1.744 0 0 0-1.366-.91ZM251.753 66.179l-30.35 75.725h7.89a3.728 3.728 0 0 0 2.277-.759 6.74 6.74 0 0 0 1.214-1.669l7.133-18.21h33.992l7.133 18.21a3.182 3.182 0 0 0 1.214 1.67 3.43 3.43 0 0 0 2.276.758h7.891L262.224 66.18Zm-8.953 47.499 12.14-30.806c.304-.91.759-1.973 1.062-3.187s.76-2.428 1.063-3.946a55.797 55.797 0 0 0 2.276 7.133l11.837 30.806ZM316.249 90.46a25.573 25.573 0 0 0-6.83 8.801l-.606-8.346a3.196 3.196 0 0 0-.759-1.973 2.72 2.72 0 0 0-2.125-.607h-5.463v53.57h9.56v-34.146a20.515 20.515 0 0 1 5.464-8.346 11.574 11.574 0 0 1 8.195-2.883 10.197 10.197 0 0 1 4.249.455 6.09 6.09 0 0 0 2.276.455 1.778 1.778 0 0 0 1.67-1.366l1.213-6.98a12.881 12.881 0 0 0-3.338-1.366 16.395 16.395 0 0 0-13.506 2.732ZM573.32 132.495l-.91.456a10.647 10.647 0 0 1-1.367.91 10.2 10.2 0 0 1-1.82.91 7.707 7.707 0 0 1-2.58.456 5.96 5.96 0 0 1-4.25-1.67 6.721 6.721 0 0 1-1.669-5.007V96.378h15.327v-6.829h-15.327V71.035h-4.704a1.834 1.834 0 0 0-1.518.455 2.098 2.098 0 0 0-.758 1.366l-2.125 16.541-8.802 1.062v3.794a1.948 1.948 0 0 0 .607 1.518 2.119 2.119 0 0 0 1.366.455h6.526v32.779c0 4.4 1.062 7.74 3.338 10.168a12.667 12.667 0 0 0 9.712 3.49 18.954 18.954 0 0 0 7.133-1.062 19.424 19.424 0 0 0 5.918-3.642l-2.731-4.553a1.744 1.744 0 0 0-1.366-.91ZM383.627 88.335h9.409v53.569h-9.409zM533.712 130.22a2.8 2.8 0 0 0-1.821.758c-.759.607-1.518 1.214-2.428 1.821a13.64 13.64 0 0 1-3.642 1.821 17.324 17.324 0 0 1-5.615.759 15.715 15.715 0 0 1-6.526-1.366 15.059 15.059 0 0 1-4.856-3.946 17.989 17.989 0 0 1-3.186-6.373 33.756 33.756 0 0 1-1.063-8.65 31.489 31.489 0 0 1 1.063-8.347 20.519 20.519 0 0 1 3.035-6.373 13.016 13.016 0 0 1 5.007-4.098 18.45 18.45 0 0 1 6.981-1.366 14.19 14.19 0 0 1 5.008.607 24.21 24.21 0 0 1 3.49 1.518 23.927 23.927 0 0 1 2.428 1.517 3.183 3.183 0 0 0 1.67.607 1.635 1.635 0 0 0 1.214-.303 5.148 5.148 0 0 0 .91-.91l2.277-3.339a23.856 23.856 0 0 0-7.74-5.16 27.087 27.087 0 0 0-9.864-1.82A29.613 29.613 0 0 0 509.28 89.7a23.085 23.085 0 0 0-7.892 5.766 27.762 27.762 0 0 0-4.856 8.802 38.003 38.003 0 0 0 .152 22.763 24.834 24.834 0 0 0 5.008 8.65 20.232 20.232 0 0 0 7.436 5.312 23.974 23.974 0 0 0 9.257 1.82 30.456 30.456 0 0 0 11.078-1.972 19.152 19.152 0 0 0 8.802-6.222l-2.732-3.49a2.164 2.164 0 0 0-1.821-.91ZM647.072 96.074h-25.646V69.518h-23.37v72.69h23.37v-27.62h25.646v27.62h23.37v-72.69h-23.37v26.556zM735.241 112.616a14.303 14.303 0 0 1-3.338 9.712 14.37 14.37 0 0 1-19.121 0 14.303 14.303 0 0 1-3.34-9.712V69.517h-23.37v43.402c0 10.016 3.036 17.604 9.41 22.763 6.373 5.312 15.327 7.891 26.86 7.891s20.487-2.731 26.709-7.89 9.408-12.748 9.56-22.916V69.366h-23.37Z" class="cls-2"/></svg>