<svg viewBox="0 0 90 90" xmlns="http://www.w3.org/2000/svg"><g fill="none"><path d="M0 45c0 24.854 20.148 45 45 45 24.854 0 45-20.146 45-45S69.854 0 45 0C20.148 0 0 20.147 0 45Z" fill="#4100F6"/><path d="M64.708 60.37a2.757 2.757 0 0 1 .93 3.815 2.82 2.82 0 0 1-3.857.922c-10.567-6.386-23.867-7.828-39.532-4.29-1.51.342-3.013-.593-3.357-2.085-.347-1.493.596-2.981 2.108-3.322 17.143-3.875 31.846-2.207 43.708 4.96Zm5.281-13.073c1.65 1.005 2.17 3.141 1.155 4.77a3.534 3.534 0 0 1-4.826 1.143c-12.092-7.351-30.533-9.48-44.84-5.186-1.856.554-3.815-.48-4.379-2.311-.558-1.835.487-3.769 2.34-4.326 16.344-4.906 36.662-2.53 50.55 5.91Zm5.926-15.006a4.136 4.136 0 0 1 1.471 5.704c-1.186 1.978-3.772 2.63-5.767 1.455-14.506-8.518-38.431-9.301-52.279-5.146-2.223.668-4.575-.574-5.248-2.773-.674-2.2.58-4.523 2.805-5.192 15.895-4.772 42.32-3.85 59.018 5.952Z" fill="#FFF"/></g></svg>