<svg xmlns="http://www.w3.org/2000/svg" viewBox="0 0 177.8 195.4"><path fill="#fff" d="M163 41.2 101 5.8a24.2 24.2 0 0 0-24.2 0L14.7 41.3A24.2 24.2 0 0 0 2.6 62.2v71a24.4 24.4 0 0 0 12.1 21l62.1 35.4a24.2 24.2 0 0 0 24.2 0l62.1-35.5a24.3 24.3 0 0 0 12.1-20.9v-71a24.4 24.4 0 0 0-12.1-21zM83.3 178.5l-62-35.5a11.4 11.4 0 0 1-5.7-9.8v-71a11.3 11.3 0 0 1 5.6-9.8L83.3 17a11.3 11.3 0 0 1 5.6-1.5 10.8 10.8 0 0 1 5.7 1.4l62 35.5a11.4 11.4 0 0 1 5.7 9.8v71a11.3 11.3 0 0 1-5.6 9.8l-62.1 35.5a11.4 11.4 0 0 1-5.7 1.5 11.2 11.2 0 0 1-5.7-1.5z"/><path fill="#417598" d="M177.8 62.2A27 27 0 0 0 164.4 39L102.3 3.6a26.8 26.8 0 0 0-26.7 0L13.4 39A26.8 26.8 0 0 0 0 62.2v71a27 27 0 0 0 13.4 23.2l62.1 35.5a26.7 26.7 0 0 0 26.8 0l62.1-35.5a26.8 26.8 0 0 0 13.4-23.2zm-2.6 71a24.3 24.3 0 0 1-12 21L101 189.5a24.2 24.2 0 0 1-24.2 0l-62-35.5a24.4 24.4 0 0 1-12.2-21V62.3a24.2 24.2 0 0 1 12-21L76.9 5.9a24.2 24.2 0 0 1 24.2 0l62 35.4a24.4 24.4 0 0 1 12.2 21zm-18.5 9.8a11.3 11.3 0 0 0 5.6-9.8v-71a11.4 11.4 0 0 0-5.6-9.8L94.6 17a10.8 10.8 0 0 0-5.7-1.4 11.3 11.3 0 0 0-5.6 1.5L21 52.4a11.3 11.3 0 0 0-5.6 9.8v71a11.4 11.4 0 0 0 5.7 9.8l62 35.5A11.2 11.2 0 0 0 89 180a11.4 11.4 0 0 0 5.7-1.5z"/></svg>