<svg xmlns="http://www.w3.org/2000/svg" class="brand-logo-svg" width="284.6" height="284.6"><path class="st0" fill="#009bde" d="M75 199.7h31.1v9.8H65.3v-61.1H75zM137.2 209.4c-17 0-30.9-13.9-30.9-30.9s13.9-30.9 30.9-30.9 30.9 13.9 30.9 30.9-13.8 30.9-30.9 30.9zm0-52.1c-11.7 0-21.1 9.5-21.1 21.1 0 11.7 9.5 21.1 21.1 21.1 11.6 0 21.1-9.5 21.1-21.1.1-11.6-9.4-21.1-21.1-21.1zM216 148.4v34.7c0 9.2-7.4 16.6-16.6 16.6-9.2 0-16.6-7.4-16.6-16.6v-34.7H173v34.7c0 14.5 11.8 26.4 26.4 26.4 14.5 0 26.4-11.8 26.4-26.4v-34.7z"/><path d="M155.1 128.7c0-3-.1-5.1-.2-6.1-.1-1.5-.3-2-.4-2.3-.3-.7-.9-.8-1.2-.8h-.2c-.5.1-1 .4-1.2.9-.1.4-.2.8-.2 1.4v.4c-.2-.1-.4-.3-.6-.4-.6-.3-1.3-.5-2.3-.8-.9-.2-1.7-.4-2.3-.4-.6 0-1.3.1-2.1.3-.6.2-1.2.4-1.7.6-.5.2-1 .5-1.3.8-.4.3-.8.9-1.1 1.7-.3.7-.5 1.3-.7 1.9-.2.6-.4 1.3-.5 2.2-.1.8-.1 1.5-.2 2.1v2c0 .8.3 1.4.6 2l.9 1.4c.4.5.9 1 1.7 1.5.8.5 1.4.8 1.9.9.5.1 1.1.2 1.9.3.8.1 1.5.2 2.1.1.6 0 1.2-.2 1.8-.6.6-.3 1.2-.8 1.7-1.3l.9-1c0 1.5.2 1.9.3 2.2.4.7.9.8 1.1.8.3 0 .9-.1 1.1-1.1.1-.4.1-1.2.1-2.4.2-1.2.1-3.3.1-6.3zm-11-4.4c.5-.2.9-.4 1.2-.6.1 0 .2-.1.7-.1h1.4c.5 0 .9 0 1.4.1.4.1.7.2 1.1.5l.9.9c.1.2.4.6.8 1.6.3.8.5 1.5.6 2.2 0 .7 0 1.4-.2 2-.2.7-.5 1.3-.9 2s-.9 1.2-1.3 1.5c-.5.4-1 .6-1.5.8-.3.1-.6.1-.9.1-.2 0-.5 0-.7-.1-.6-.1-1.2-.3-1.8-.5-.5-.2-1-.4-1.3-.7l-1.2-.9c-.2-.2-.4-.5-.4-.9-.1-.6-.1-1.5-.1-2.6s.2-2.1.5-3c.2-.8.8-1.6 1.7-2.3zM168.2 122.2c-.3-.2-.6-.4-1.1-.8-.5-.4-1.1-.7-1.8-.9-.6-.2-1.3-.3-2.1-.3s-1.6 0-2.5.2c-.9.2-1.6.6-2.1 1.2l-.1.1c-.1-.1-.1-.2-.2-.3-.3-.3-.6-.5-1.1-.5-.4 0-.9.3-1.3.8l-.1.2v.2c.4 9.1.6 13.9.6 14.4 0 .3.1 1.2.8 1.6.2.1.3.1.5.1s.6-.1.9-.5c.2-.3.4-.8.4-3.5 0-1.8-.1-3.8-.1-5.8v-3.1c0-.1.1-.3.3-.6.3-.5.7-.9 1.2-1.3.4-.3 1-.6 1.7-.7.7-.1 1.2-.2 1.7-.1s.8.3 1.2.6c.5.4.8.7 1 .8.2.1.4.2.6.4.4.3.7.4 1.1.4.3 0 .7-.1 1-.5.3-.3.4-.7.3-1.2 0-.1-.2-.5-.8-.9zM181.6 119.3c-.5-.2-1-.1-1.6.2-.3.2-1 .7-.4 2 .3.6.6 1.3 1 2.1.3.7.5 1.5.5 2.3 0 .9-.1 1.7-.2 2.4-.1.6-.3 1.1-.5 1.4-.2.3-.5.7-1 1.1-.4.4-.9.6-1.5.8-1.2.3-2.3.3-3.4 0-.5-.2-1-.4-1.4-.7-.4-.3-.7-.7-.9-1-.1-.2-.3-.7-.4-1.8-.1-.9 0-1.8.2-2.6s.5-1.7.9-2.6c.4-1.1.7-1.6.8-1.7.3-.4.5-.8.5-1.2.1-.4 0-.8-.2-1.1-.4-.7-1.3-.9-2.2-.2l-.1.1-.1.1c-1.1 2.3-1.8 3.9-2 4.8-.2.9-.3 1.8-.5 2.7-.1 1-.1 1.8-.1 2.6s.3 1.6.8 2.4c.5.7 1 1.3 1.6 1.7.6.4 1.1.7 1.7.9.6.3 1.3.4 1.9.4h2.1c.9 0 1.6-.1 2.1-.2s1.2-.5 2-1c.9-.6 1.6-1.3 1.9-2.1.3-.7.6-1.5.7-2.2.2-.8.2-1.7.2-2.8 0-1.1-.3-2.4-.9-4-.6-2.1-1.1-2.6-1.5-2.8zM200.6 127.9c-.1-.8-.2-1.5-.5-2.2-.2-.6-.5-1.2-.7-1.9-.3-.8-.7-1.4-1.1-1.7-.4-.3-.8-.6-1.3-.8-.5-.2-1-.4-1.7-.6-.7-.3-1.4-.4-2.1-.3-.6 0-1.4.2-2.3.4-1 .2-1.7.5-2.3.8-.3.2-.7.4-.9.6 0-1.1 0-3.5.1-7.2.1-5.3.2-6.9.2-7.3.2-1.2-.4-1.7-.8-1.8-.6-.3-1.1-.2-1.5.1-.3.3-.5.4-.6 7.8 0 4.7-.1 7.6-.2 8.6-.1 1.1-.1 3.1-.2 6.1 0 3-.1 5.1-.1 6.1 0 1.2 0 1.9.1 2.4.2 1 .8 1.1 1.1 1.1.3 0 .8-.1 1.1-.8.1-.2.2-.7.3-2.2l.9 1c.5.5 1.1 1 1.7 1.3.6.3 1.3.5 1.8.6.5 0 1.2 0 2.1-.1.8-.1 1.4-.2 1.9-.3.5-.1 1.2-.4 2-.9s1.3-1 1.7-1.5l.9-1.4c.4-.5.6-1.2.6-2v-2c0-.4-.1-1.1-.2-1.9zm-2.6 4.4c-.1.4-.2.7-.4.9l-1.2.9c-.3.3-.8.5-1.3.7-.6.2-1.2.4-1.8.5-.5.1-1.1.1-1.6 0-.6-.2-1.1-.4-1.5-.8-.5-.4-.9-.9-1.3-1.5-.4-.7-.7-1.3-.9-2-.2-.7-.2-1.3-.2-2s.2-1.4.6-2.2c.4-1 .7-1.4.8-1.6.2-.3.5-.6.9-.9.3-.3.7-.5 1.1-.5.5-.1 1-.1 1.4-.1h1.4c.4 0 .6.1.7.1.2.2.6.4 1.2.6.9.7 1.5 1.5 1.8 2.4.3.9.5 1.9.5 3-.1 1-.2 1.9-.2 2.5zM218 134.8c0-1.1-.1-3.1-.1-6.1 0-3-.1-5.1-.2-6.1-.1-1.5-.3-2-.4-2.3-.3-.7-.9-.8-1.2-.8h-.2c-.5.1-1 .4-1.2.9-.1.4-.2.8-.2 1.4v.4c-.2-.1-.4-.3-.6-.4-.6-.3-1.3-.5-2.3-.8-.9-.2-1.7-.4-2.3-.4-.6 0-1.3.1-2.1.3-.6.2-1.2.4-1.7.6-.5.2-1 .5-1.3.8-.4.3-.8.9-1.1 1.7-.3.7-.5 1.3-.7 1.9-.2.6-.4 1.3-.5 2.2-.1.8-.1 1.5-.2 2.1v2c0 .8.3 1.4.6 2l.9 1.4c.4.5.9 1 1.7 1.5.8.5 1.4.8 1.9.9.5.1 1.1.2 1.9.3.8.1 1.5.2 2.1.1.6 0 1.2-.2 1.8-.6.6-.3 1.2-.8 1.7-1.3l.9-1c0 1.5.2 1.9.3 2.2.4.7.9.8 1.1.8.3 0 .9-.1 1.1-1.1.3-.7.3-1.4.3-2.6zm-11.1-10.5c.5-.2.9-.4 1.2-.6.1 0 .2-.1.7-.1h1.4c.5 0 .9 0 1.4.1.4.1.8.2 1.1.5l.9.9c.1.2.4.6.8 1.6.3.8.5 1.5.6 2.2 0 .7 0 1.4-.2 2-.2.7-.5 1.3-.9 2s-.9 1.2-1.3 1.5c-.5.4-1 .6-1.5.8-.3.1-.6.1-.9.1-.2 0-.5 0-.7-.1-.6-.1-1.2-.3-1.8-.5-.5-.2-1-.4-1.3-.7l-1.2-.9c-.2-.2-.4-.5-.4-.9-.1-.6-.1-1.5-.1-2.6s.2-2.1.5-3c.1-.8.8-1.6 1.7-2.3z" class="st1" fill="#f3774a"/><path d="M253.7 146.6c-6.3 0-11.6 1-16.5 4.3l-3.4 2.2v51.3l.5.3c7.8 3 13 3.8 19.4 3.8 17 0 30.9-13.9 30.9-30.9 0-17.1-13.9-31-30.9-31zm0 52.1c-3.6 0-7-.6-10.1-1.7v-38c3-1.7 6.4-2.6 10.1-2.6 11.7 0 21.1 9.5 21.1 21.1 0 11.7-9.5 21.2-21.1 21.2zM243.9 123.7s-2.9-10.7-7.2-17.6C225.1 87.5 204.4 75 180.9 75c-21.3 0-40.2 10.2-52.2 25.9-8.9-7.2-20.3-11.5-32.6-11.5-21.1 0-39.2 12.5-47.5 30.5-2.2 4.9-3.2 10.3-3.3 12.4v.6c0 4.6 3.6 5.2 4.4 5.2 2.4.2 5.1-1.3 5.4-4.4l.2-1.2c.2-1.7.5-3 1.2-5.2 1-2.8 2.2-5.4 3.5-7.9 7.5-12.1 20.8-20.2 36-20.2 14 0 26.5 6.9 34.2 17.4.5-1.2 1.2-2.5 1.9-3.7l.1.1c9.6-16.9 27.8-28.2 48.6-28.2 26.7 0 49.1 18.9 54.6 44 .4 2.3.6 3.6.6 5.3l.1 1.2c0 3.2 2.3 4.9 4.6 5 .8.1 4.2-.1 4.6-4.7v-.6c.2-2.1.2-6.2-1.4-11.3zM36.1 149.5s4.7 0 8.6 1.9c3.5 1.5 6.6 3.8 8.9 6.7l5.8-7.5s-1.9-1.8-3.5-3.3c-4-3.4-9.5-6.3-16.6-7.2-1.6-.2-2.8-.1-3.4-.1C16.1 140 0 156.2 0 176.1c0 9.6 3.8 18.3 10.8 24.4 6.6 5.8 15.6 9.1 25.3 9.1h.5c2.7 0 13.7-.5 20.8-7.6l-6.9-6.9c-5 5-14.1 4.8-14.2 4.8h-.2c-15.3 0-26.4-10-26.4-23.8.1-14.6 11.9-26.6 26.4-26.6z" class="st0" fill="#009bde"/></svg>