<svg xmlns="http://www.w3.org/2000/svg" viewBox="0 0 21.9 22"><path fill="#ff8300" d="M11.009 0c1.06 0 1.92.86 1.92 1.92v5.99a1.92 1.92 0 0 1-3.84 0V1.92c0-1.06.86-1.92 1.92-1.92zm0 22h-1.4l-.6-.22-.43-.09-.57-.13-.48-.14-.32-.12h-.06a11 11 0 0 1-2.8-1.51 10.55 10.55 0 0 1-1.57-15.67 2.4 2.4 0 0 1 3.55 3.23 5.75 5.75 0 0 0 .88 8.57 6.1 6.1 0 0 0 1.59.86h.07l.14.05.28.08.29.08h.24l.38.05h.19c.393.03.787.03 1.18 0h.18l.38-.05h.23l.31-.08.26-.07.15-.06h.07a6.1 6.1 0 0 0 1.59-.86 5.79 5.79 0 0 0 2.4-4.68c.01-.2.01-.4 0-.6 0-.2-.05-.39-.09-.59a5.86 5.86 0 0 0-1.44-2.71 2.4 2.4 0 0 1 3.54-3.24 10.7 10.7 0 0 1 2.57 5c.074.353.127.71.16 1.07a10 10 0 0 1 .06 1.1 10.56 10.56 0 0 1-4.34 8.53 11 11 0 0 1-2.8 1.51h-.06l-.32.11-.48.14-.53.13-.42.09-.65.1h-.34c-.36.12-.7.12-.99.12z"/></svg>