<svg xmlns="http://www.w3.org/2000/svg" width="23.71" height="23.71"><defs><radialGradient cx="11.391" cy="12.354" fx="11.391" fy="12.354" r="12.704" gradientTransform="matrix(1.04053 0 0 .96105 .002 .908)" id="a" gradientUnits="userSpaceOnUse"><stop stop-color="#FFB900" offset="0%"/><stop stop-color="#FA5C86" offset="74.709%"/><stop stop-color="#F95353" offset="100%"/></radialGradient></defs><path d="M17.01 6.06a5.154 5.154 0 01-5.155 5.151A5.154 5.154 0 016.7 6.06 5.154 5.154 0 0111.855.908a5.154 5.154 0 015.155 5.151zM5.158 12.5a5.153 5.153 0 00-5.156 5.15 5.154 5.154 0 005.156 5.152 5.154 5.154 0 005.156-5.151 5.153 5.153 0 00-5.156-5.152zm13.394-.001a5.154 5.154 0 00-5.155 5.152 5.154 5.154 0 005.155 5.151 5.154 5.154 0 005.156-5.151 5.154 5.154 0 00-5.156-5.152z" fill="url(#a)"/></svg>