<svg xmlns="http://www.w3.org/2000/svg" viewBox="0 0 1031.7 239.1" fill="#ffb800"><path d="M0 131V9.5C0 6 2.4.2 9.6.2H63c14.1 0 9 7.3 7.6 9.6L4.6 131c-3.1 5.4-4.6 1.5-4.6 0M135 .3c-4.9 0-7.2 2.9-10.5 8.6L4 231.5c-1.6 2.7-1.6 7.1 4.6 7.1l73.3.5 21.7-42.6H251l23.3 42.6h73c3.7 0 7.3-3.7 4.1-9.2L229.3 8.4c-3.9-6-4-8.1-13.9-8.1h-80.3zm4.8 81.2h121.7c1.5 0 5.4 1.5 0 4.6l-121.3 66c-2.3 1.4-9.6 6.6-9.6-7.6V91c0-7.2 5.8-9.6 9.2-9.6zm444-14.7H659c6 0 8.4-4.7 8.4-8.4 0-36.8-38.7-58.4-68.7-58.4h-155C405.5 0 374 27.4 374 55.4v29.4c0 38.9 43.4 61.3 76.2 61.3H569c25 0 25.8 13.1 25.8 19.2 0 5.6-1.3 19.8-26.7 19.8h-88.7c-21.2 0-24.7-12.8-24.7-19.2h-75c-2.5-.7-7.3 2.2-7.3 7.6 0 20.3 13 65.1 83.6 65.1h150.2c38.9 0 70.5-27 70.5-59.4v-34.5c0-37.8-44.9-57.5-70.2-57.5H476.6c-7.6 0-17.7-6.6-17.7-18.2s7.7-18 19.6-18H564c9 0 19.8 3 19.8 15.8M733.9.4c-3.1 0-7.6 5.8-7.6 8l.3 222.9c0 2.5 4.2 7.5 7 7.3H966c59.8 0 65.7-42.6 65.7-63.5 0-59.2-32.9-51.6-41.5-58 25-8.8 33.3-26 33.3-53.3 0-59.3-45-63.4-81.4-63.4zm74.7 50h113.7c6 0 19.3 4.8 19.3 18.5 0 6.2-4.6 19.4-16.7 19.4H808.6V50.5zm0 93.7h117c6 0 22.2 4.2 22.2 21.5 0 9.7-8.5 20-20.8 19.7H808.6z"/></svg>