<svg xmlns="http://www.w3.org/2000/svg" viewBox="0 0 595.3 184.4"><path fill="#e14" d="M226.3 156.6a102.8 102.8 0 0 1-38.3-7.7c-6.3-2.9-11.5-6.4-15.8-10.4s-7.3-8.7-9.2-13.8c-1.5-4.6-1.5-9 .1-13.1s4.4-7 8.4-8.8c4-1.8 7.6-2.6 10.6-2.5 3.1.1 5.6.8 7.7 2.2 2.1 1.4 3.9 2.9 5.4 4.5a40.2 40.2 0 0 0 31.5 14.7 46 46 0 0 0 14-1.7c4.5-1.3 6.8-4 7.1-8.3 0-3.5-1.3-6.1-4-7.9a46 46 0 0 0-12.1-5.1l-18.1-6.2c-22.5-7.7-36.1-16-41-25.1a40.6 40.6 0 0 1-5.8-24.6v-.2c.5-11.7 6.6-21.6 18.3-29.7A73.6 73.6 0 0 1 227.6 0c13.4 0 25 2.1 34.8 6.4s17.1 10.4 22 18.3c3.3 5.1 4.4 9.7 3.4 13.7-.6 2.1-1.7 3.9-3.1 5.3a22.3 22.3 0 0 1-4.2 3.2c-5.5 2.8-10 4.1-13.6 4.1-2.6 0-5.1-.6-7.3-1.9a73.3 73.3 0 0 1-7.3-4.7l-1.5-1.1c-6.4-4.6-12.9-7-19.4-7-5.6 0-10.1.9-13.3 2.6-3.2 1.8-4.8 4.1-4.8 7.1s1.3 5.3 3.9 7a37 37 0 0 0 10.3 4.4l24.3 7.7c16.7 5.1 28.6 12.9 35.8 23.3a37.3 37.3 0 0 1 1.4 41.3c-3.6 6-9 11.1-16 15.3a98.9 98.9 0 0 1-46.7 11.6zm183.5 19c-.1-3.4.6-5.9 2.1-7.6 1.5-1.7 3.1-2.8 4.9-3.3 3-1.1 5.7-2.7 8-4.7s4.1-4.4 5.4-7.2c1.3-3.1 2.3-6.8 3-11.1.4-1.8.6-3.5.8-5.1.3-1 .4-2 .4-3l.6-3 1.1-8.7.6-3c0-1 .1-2 .4-3l.6-3.8c0-.8.1-1.5.4-2.3l.2-1.9 2.1-14.7.6-4.9 1.3-8.7c.3-.4.3-.6 0-.6.1-.1-.1-.2-.6-.2h-5.8c-2.1 0-3.6-.9-4.5-2.8-.3-.6-.4-1.3-.4-2.1.3-2.6.6-5.3 1.1-7.9a5.7 5.7 0 0 1 2.4-3.4 8.6 8.6 0 0 1 4-1.3h6.2a152.4 152.4 0 0 1 1.3-7c.9-4.4 2.4-8.3 4.7-11.9 2.9-4.5 6.6-7.9 11.1-10.2l3.4-1.5a55.3 55.3 0 0 1 19.1-3.2h1.7c2.3.1 4.5.4 6.6.8 1.1.1 2.1.7 3 1.7.9 1 1.3 2.3 1.2 3.9-.1 1.6-.3 3.2-.7 5-.1 1.1-.3 2.3-.6 3.4l-.2.9c-.1.9-.6 1.6-1.3 2.3a4 4 0 0 1-2.4.9h-6.4l-3-.2H480c-1.6.1-3.3.6-5.1 1.5-2.4 1.1-4.2 3-5.5 5.6-1 2-1.7 4.6-2.1 7.9H498v.2h.2v-.2h.2c1.6.1 3 .8 4 1.9a5.9 5.9 0 0 1 1.6 4.3l-.2 1.9v.7c.3-.3.4-.4.6-.4l2.1-1.9 4.1-3a31 31 0 0 1 11.9-4.1 44.5 44.5 0 0 1 9.8-.2c2.4.1 4.9.9 7.5 2.3A18 18 0 0 1 547 70l.8 1.9 1.1-1.1a34.8 34.8 0 0 1 18.6-10.3 36.9 36.9 0 0 1 18.8 2.4c2.8 1.5 4.9 3.7 6.3 6.6 1.4 2.9 2.3 6.1 2.5 9.8.1 3.1-.1 6.3-.6 9.6v.6l-.8 6.6-.6 3.2-.1 2.7c-.3 1-.4 2-.6 3.1s-.2 2.1-.2 3.1l-.8 4.1-.4 3-.4 1.9-.2 2.1-1.1 7.9-.8 6.4-.8 4.1-1.3 10.5-.2.4c-.1 1.5-.4 2.9-.9 4.3-.8 1.8-2 2.9-3.8 3.4-1 .3-2.1.4-3.4.4h-10c-2.3 0-3.8-.9-4.7-2.8a7 7 0 0 1-.6-2.3l.6-4.3.4-1.7v-.6c.3-.9.4-1.7.4-2.4.3-1.1.4-2.3.4-3.4.4-1.9.6-3.7.8-5.5.4-2.3.7-4.5.9-6.8l.6-3.4 1.3-10 .4-2.3c.1-1.9.4-3.6.8-5.3.3-1.1.4-2.2.4-3.2.4-1.8.6-3.5.8-5.1l.2-.4c.4-3.3.7-6.6.9-10 .3-2.1-.1-4-1.1-5.5s-2.3-2.4-3.8-2.6a11.5 11.5 0 0 0-7.1.4l-1.1.6a23.5 23.5 0 0 0-8.1 5.8c-.1.3-.4.5-.8.8-.4.5-.6 1.1-.8 1.7l-.9 8.7-1.9 12.6-.2 3.1c-.1 1.1-.3 2.1-.6 3.1l-.6 4.1-.4 2.1c0 1.1-.1 2.1-.4 3l-.4 2.8a101 101 0 0 0-.9 7.2l-.6 4.3c-.1 1.5-.4 3.1-.8 4.7l-.2 1.7c-.1 1.6-.4 3.3-.8 5.1-.9 3.6-3.1 5.5-6.6 5.6H523c-2.8 0-4.5-1.2-5.1-3.6-.3-.9-.3-1.9-.2-3v-.4c.3-.8.4-1.5.4-2.3l.4-1.5 1.1-8.8.9-6.4.4-3.4 1.5-9.8 1.3-10.2L525 99a48.4 48.4 0 0 0 1-13.7c-.1-2.9-1.3-4.8-3.4-5.6-1.4-.6-2.8-.9-4.1-.9l-1.7.2c-2.9.5-5.4 1.5-7.5 3.1a39 39 0 0 0-5.6 5c-.4.4-.6.9-.8 1.5l-.2 2.4c-.3 1-.4 2-.4 3l-1.1 6.4v.8l-.4 2.1-.4 3.4c-.1 1.8-.4 3.5-.8 5.3l-.9 6.8-.4 3.2-3.2 22.4c-.3 2.3-.6 4.6-1.1 7-.3 1.3-.8 2.3-1.6 3.2s-1.8 1.4-2.9 1.7c-.8.3-1.6.4-2.6.4h-10.7c-2.4 0-3.9-1.1-4.5-3.2-.3-1.1-.3-2.4-.2-3.8 0-.9.1-1.7.4-2.4l.2-1.3 1.3-9.8c.3-1 .4-2 .4-3l.6-3.4c0-1.1.1-2.2.4-3.2.3-1 .4-1.9.4-2.8l.6-3.2c0-.9.1-1.9.4-3l2.4-18.1.8-4.7.6-4.3c.3-1 .4-2.1.4-3.2.3-.9.4-1.9.4-3l.9-5.3h-15.6c-.4 0-.6.3-.8.8l-.8 4.7-.2 1.9-.2.9-.4 1.9c0 1.1-.1 2.2-.4 3.2-.1 1.8-.4 3.6-.8 5.5l-1.1 8.5-.6 3.2c0 1.1-.1 2.2-.4 3.2s-.4 2.1-.4 3.2l-.6 3-1.7 11.9-1.5 11.9c-3.3 18.4-8.4 30-15.4 34.7-7 4.7-12.9 7-17.7 6.9-2.6.4-5.1.1-7.5-.9a9.3 9.3 0 0 1-3.7-2.6 9.8 9.8 0 0 1-2.1-5.3zM131.8 1.7c-10.8.5-17.4 3.4-19.7 8.6a27 27 0 0 0-2.7 14v3.2l-1.1-3-1.9-3a34.6 34.6 0 0 0-6.4-6.6c-2.8-2.4-6.9-4.6-12.4-6.6a65.5 65.5 0 0 0-68.5 18.3A78 78 0 0 0 0 79.2c.4 22.1 6.4 40.1 18.2 54.1s26.9 21.2 45.5 21.7h2.4c9.8-.5 18.6-2.8 26.5-7a39.3 39.3 0 0 0 15.6-14.3l1.1-2.1v4c-.3 4.8 1 9.4 3.8 13.8 2.8 4.5 9 6.8 18.6 7.1 9.5 0 16-3.5 19.4-10.4 1.4-2.9 2.2-5.7 2.4-8.6.3-2.8.4-5.1.4-6.7V32.9c.5-6.8-.4-13.6-2.7-20.3-2.3-6.8-8.8-10.4-19.4-10.9zm-58 112.9c-8.7-.1-15.3-3.2-20-9.2s-7.1-13.9-7.1-23.7c0-11.4 2.4-19.8 7.1-25s11.4-7.8 20-7.7a23 23 0 0 1 18.4 7.4c4.5 5.1 6.8 13.5 7 25.3-.1 9.9-2.4 17.9-7 23.8s-10.6 9-18.4 9.1zm251.5 42c-10.3-.5-16.7-3.8-19.1-10a46 46 0 0 1-3.3-18.4v-99a45 45 0 0 1 3.3-18.9C308.6 4 315 .5 325.3 0c7.8 0 13.5 1.9 17.1 5.6a18 18 0 0 1 4.7 9.7c.5 3.6.7 6.8.6 9.7l-.2 2.1v19.6l28-31.8c1.9-2.1 3.6-3.9 5.3-5.3 5.1-4.5 10-6.8 14.7-6.8a20 20 0 0 1 11.5 4c1.6 1.1 3 2.3 4.1 3.4 4.5 5.1 6.4 10.1 5.6 15-.7 4.8-2.7 8.8-6.1 12.1l-30.7 32.9 38 54.8c3.1 4.4 4.4 9.1 3.8 14.2s-3.1 9.4-7.3 13.1a19.8 19.8 0 0 1-12.8 4.3h-.8c-3.4-.1-6.6-1-9.5-2.7-2.9-1.7-5.4-4-7.4-6.9l-36.3-53.5v34.3c.4 7.3-.8 13.8-3.4 19.6s-9 8.8-18.9 9.2z"/></svg>