<svg xmlns="http://www.w3.org/2000/svg" id="Layer_1" version="1.1" width="494.408" height="494.408"><style id="style3990"></style><defs id="defs3993"><defs id="defs4009"><path id="SVGID_5_" d="M109.4 1.4c-18.5 0-18.5 12.7-18.5 18.8v2.6l-1-2.4s-1.7-4-6.8-8C78.4 8.6 69.7 4.2 55 4.2 24.2 4.2 0 31.3 0 65.9c0 35.9 22.7 63 52.9 63H55c8-.3 15.4-2.3 22-5.8 5.4-2.9 9.8-7 12.9-11.9l1-1.6v3.2c0 7.5 2 17.4 18.5 17.4 7.9 0 13.4-2.9 16.2-8.6 2.3-4.7 2.3-10.1 2.3-12.7V27.3c0-10.3 0-25.9-18.5-25.9zM61.3 95.2C47 95.2 38.8 83.9 38.8 68c0-19.1 8.2-27.2 22.5-27.2 12.9 0 21.2 7.2 21.2 27.2-.1 16.2-8.3 27.2-21.2 27.2zm0 0"/></defs><defs id="defs4019"><path id="SVGID_7_" d="M270.2 130.2c-17.9 0-18.3-14.3-18.5-23.7V24.3c.3-9.7.6-24.3 18.5-24.3 6.5 0 11.3 1.6 14.3 4.7 4.5 4.6 4.3 11.5 4.2 16.1v18L312 12.3c1.5-1.7 3-3.2 4.4-4.4 4.4-3.8 8.2-5.5 12.2-5.5 3.1 0 6.2 1.1 9.5 3.2 1.3.9 2.4 1.8 3.4 2.8 8 8.3 4.7 17.3-.6 22.5l-25.5 27.4 31.7 45.4c5.3 7.1 4 17-3 22.7-3 2.4-6.6 3.7-10.6 3.7h-.7c-5.5-.2-10.7-3.2-14-8.1l-30.1-44.4V106c.1 11.7-1.4 24.2-18.5 24.2"/></defs><path id="SVGID_1_" d="M188 130.2c-11.3 0-22.5-2.3-31.7-6.4-10.5-4.8-17.7-11.7-20.8-20.1-2.7-7.3.4-15.5 6.8-18.2 3.4-1.4 6.4-2.1 9-2.1 5.2 0 8.3 2.9 10.8 5.7 1.5 1.6 3 3.1 4.5 4.3 6.4 5.2 13.7 7.8 21.6 7.8 7.5 0 17.5-.9 17.5-8.3 0-6-4.3-7.9-13.4-10.7l-15-5.1c-39-12.5-39-29.8-39-41.3v-.2C138.3 16.5 162 0 189.1 0c22.1 0 39.3 7.5 47.1 20.5 2.7 4.3 3.7 8.1 2.9 11.4-.9 3.6-3.8 5.8-6.1 7-4.6 2.4-8.2 3.5-11.3 3.5-4.5 0-7.7-2.3-12.1-5.6l-1.2-.9c-5.5-3.9-10.6-5.8-16.2-5.8-9.2 0-15 3.1-15 8.1 0 4.8 4.7 7.2 11.7 9.4l20.1 6.5c13.8 4.3 23.8 10.8 29.7 19.4 5.1 7.4 5.9 14.3 5.9 17.9 0 12.1-6.2 22.2-18 29.2-10.1 6.1-24.2 9.6-38.6 9.6"/></defs><defs id="defs4001"><path id="SVGID_3_" d="M340.5 145.9c-.3-5.8 2.9-8.1 5.8-9.1 5-1.8 9.1-5.3 11-9.8 1.2-2.7 1.8-5.7 2.6-9.3l.6-4.2c.1-.8.2-1.7.3-2.6.1-.8.2-1.7.3-2.5.2-1.2.4-2.4.5-3.6.2-1.2.4-2.4.5-3.5.1-.8.2-1.7.3-2.5.1-.8.2-1.6.3-2.5.2-1 .3-2.1.5-3.1.1-.7.2-1.3.3-2 .1-.5.1-1 .2-1.4l.3-.8.4-2.6c.3-1.9.5-3.8.8-5.6.1-1.1.3-2.2.4-3.2.2-1.3.3-2.7.5-4 .3-2.4.7-4.9 1.1-7.2.1-.4 0-.5 0-.5s-.1-.1-.5-.1h-4.9c-1.8 0-3.1-.8-3.8-2.4-.2-.5-.4-1.1-.3-1.8.3-2.1.5-4.3 1-6.5.5-2.5 3-3.8 5.3-3.9h5.3c.1-.6.2-1.2.3-1.7.2-1.4.4-2.8.7-4.1.8-3.7 2.1-6.9 3.9-9.8 2.3-3.7 5.5-6.6 9.4-8.5 1.6-.8 3.7-1.8 5.9-2.3 1.6-.4 3.3-.7 5.6-1 2.5-.3 4.8-.5 7-.5h1.5c1.9.1 3.7.2 5.4.5 1.9.3 3.8 2.1 3.6 4.5-.1 1.5-.3 3-.6 4.3-.1.9-.3 1.9-.5 2.8l-.1.7c-.3 1.5-1.8 2.7-3.3 2.7h-9.4c-1.4.1-2.8.5-4.2 1.1-2 1-3.5 2.6-4.5 4.7-.9 1.8-1.4 3.9-1.7 6.7h25.5v.2-.2h.1c1.4 0 2.6.6 3.5 1.5.9.9 1.3 2.2 1.2 3.6v1.9c.1-.1.3-.2.4-.4.6-.5 1.2-1.1 1.8-1.5 2-1.7 4.5-3.5 7.4-4.5 4-1.4 8-1.7 10.7-1.7 1.9 0 3.2.2 3.2.2 2.1.2 4.2.8 6.3 1.9 2.6 1.3 4.6 3.3 5.9 6.1.2.4.4.8.5 1.3 0 .1.1.2.1.3l.1-.1c.3-.3.5-.5.8-.7.4-.4.9-.8 1.3-1.2 5-4.3 9.6-6.6 14.2-7.4 1.3-.2 2.7-.3 4.3-.3 1.4 0 2.9.1 4.6.3 2.5.3 4.8 1 6.9 2.1 2.3 1.2 4.1 3 5.3 5.5 1.2 2.4 1.6 5 1.9 8.1.3 2.7-.1 5.4-.3 8l-.1.5c-.2 1.7-.4 3.6-.7 5.4-.1.9-.3 1.8-.4 2.7-.1.8-.2 1.5-.3 2.3-.1.9-.2 1.8-.4 2.7-.1.8-.2 1.7-.3 2.5-.2 1.2-.3 2.3-.5 3.5l-.4 2.4c-.1.5-.2 1.1-.2 1.6l-.2 1.8-.9 6.6-.3 2.4c-.1 1-.2 2-.4 3-.2 1.1-.3 2.3-.5 3.4-.2 1.2-.4 2.3-.5 3.5-.1.8-.2 1.5-.3 2.3-.1 1-.2 2-.4 3v.3c-.2 1.2-.4 2.4-.8 3.6-.6 1.4-1.7 2.5-3.2 2.8-.8.2-1.7.3-2.7.3h-8.4c-1.9 0-3.2-.8-3.9-2.3-.3-.7-.5-1.4-.4-1.9.1-1.2.3-2.4.5-3.6.1-.5.1-.9.2-1.4l.1-.6c.1-.7.2-1.3.3-2 .1-.9.2-1.9.4-2.8l.6-4.5c.3-1.9.5-3.8.8-5.7l.4-2.8 1.2-8.3.3-1.9c.2-1.5.4-3 .6-4.4.1-.9.3-1.7.4-2.6.2-1.4.5-2.9.6-4.3v-.2c.3-2.7.7-5.5.8-8.3.1-1.9-.2-3.4-1-4.7-.8-1.3-2-1.8-3.1-2.1-.8-.2-1.6-.3-2.5-.3-1.2 0-2.3.2-3.5.6-.3.1-.6.2-1 .4-2.3 1-4.5 2.6-6.7 4.9-.2.2-.4.5-.6.7-.4.4-.6.9-.7 1.5l-.9 7.1-1.4 10.4-.3 2.7c-.1.8-.2 1.7-.3 2.5-.2 1.2-.3 2.3-.5 3.5l-.3 1.8-.3 2.4-.3 2.4c-.3 2-.6 4-.8 6-.2 1.2-.3 2.3-.4 3.5-.2 1.3-.3 2.7-.5 4-.1.4-.1.8-.2 1.3-.2 1.4-.4 2.9-.7 4.3-.7 2.9-2.7 4.6-5.5 4.6h-9.2c-2.2 0-3.6-.9-4.2-2.9-.3-.8-.2-1.7-.1-2.6v-.3c0-.6.2-1.2.3-1.8.1-.4.1-.8.2-1.2.2-1.2.3-2.5.5-3.7.2-1.2.3-2.4.5-3.7.3-1.8.5-3.6.8-5.4l.4-2.7 1.2-8.3.4-2.6c.3-2 .5-3.9.8-5.8.1-.9.3-1.7.4-2.6.2-1.3.4-2.7.6-4.1.1-.8.2-1.7.3-2.5.4-2.9.9-5.9.6-8.9-.2-2.5-1.1-3.9-2.9-4.7-1.2-.5-2.3-.7-3.5-.7-.5 0-.9 0-1.4.1-4.9.8-8.2 3.8-10.9 6.7-.3.4-.6.8-.6 1.3-.1.6-.2 1.3-.3 1.9-.1.9-.2 1.7-.3 2.6-.2 1.2-.3 2.3-.5 3.5l-.3 1.8-.1.5-.3 1.8c-.1.9-.2 1.8-.4 2.8-.2 1.5-.4 2.9-.6 4.4-.3 1.9-.5 3.8-.8 5.7l-.4 2.6-1.6 11.1c-.3 1.8-.5 3.7-.8 5.5-.1.7-.2 1.4-.3 2-.3 1.9-.5 3.9-.9 5.8-.3 1.9-1.9 3.6-3.8 4-.7.2-1.5.3-2.2.3h-8.9c-2 0-3.4-.9-3.8-2.6-.3-1-.2-2.1-.1-3.2v-.1c0-.7.2-1.3.3-2 .1-.4.1-.7.2-1.1.4-2.7.8-5.4 1.1-8 .1-.8.2-1.7.3-2.5.1-.9.2-1.9.4-2.8.1-.9.3-1.7.4-2.6.1-.8.3-1.6.4-2.4l.3-2.7c.1-.8.2-1.7.3-2.5.2-1.1.3-2.2.5-3.3.1-.7.2-1.4.3-2 .1-.7.2-1.4.3-2.2v-.3l.3-2.4c.2-1.6.4-3.3.6-4.9l.6-3.9c.2-1.2.3-2.3.5-3.5.1-.9.2-1.7.3-2.6.1-.8.2-1.7.3-2.5.2-1.5.4-3 .7-4.5h-12.9c-.4 0-.7.3-.7.6-.1 1.3-.3 2.6-.5 3.9-.1.5-.2 1-.2 1.5 0 .3-.1.6-.1.9-.1.5-.2 1-.2 1.5-.1.9-.2 1.8-.4 2.8-.2 1.5-.4 3-.6 4.4-.2 1.2-.4 2.5-.6 3.7-.2 1.1-.4 2.3-.5 3.4-.1.9-.2 1.8-.3 2.6-.1.9-.2 1.7-.3 2.6-.1.9-.3 1.8-.4 2.7-.1.8-.3 1.6-.4 2.4l-.3 2.4-.3 2.4c-.2 1.1-.3 2.1-.5 3.2-.1.7-.2 1.3-.3 2l-.3 2.4c-.1.8-.2 1.7-.3 2.5-.2 1.6-.4 3.2-.7 4.9-4.7 32-20.5 33.7-27.6 34.6-2.1.3-4.2.1-6.2-.8-1.8-1.4-4.1-3.2-4.3-6.8"/></defs><path d="M188 300.589c-11.3 0-22.5-2.3-31.7-6.4-10.5-4.8-17.7-11.7-20.8-20.1-2.7-7.3.4-15.5 6.8-18.2 3.4-1.4 6.4-2.1 9-2.1 5.2 0 8.3 2.9 10.8 5.7 1.5 1.6 3 3.1 4.5 4.3 6.4 5.2 13.7 7.8 21.6 7.8 7.5 0 17.5-.9 17.5-8.3 0-6-4.3-7.9-13.4-10.7l-15-5.1c-39-12.5-39-29.8-39-41.3v-.2c0-19.1 23.7-35.6 50.8-35.6 22.1 0 39.3 7.5 47.1 20.5 2.7 4.3 3.7 8.1 2.9 11.4-.9 3.6-3.8 5.8-6.1 7-4.6 2.4-8.2 3.5-11.3 3.5-4.5 0-7.7-2.3-12.1-5.6l-1.2-.9c-5.5-3.9-10.6-5.8-16.2-5.8-9.2 0-15 3.1-15 8.1 0 4.8 4.7 7.2 11.7 9.4l20.1 6.5c13.8 4.3 23.8 10.8 29.7 19.4 5.1 7.4 5.9 14.3 5.9 17.9 0 12.1-6.2 22.2-18 29.2-10.1 6.1-24.2 9.6-38.6 9.6" id="use3995" fill="#ce3552" fill-opacity="1"/><path d="M340.5 316.289c-.3-5.8 2.9-8.1 5.8-9.1 5-1.8 9.1-5.3 11-9.8 1.2-2.7 1.8-5.7 2.6-9.3 2.489-17.053 4.422-34.692 7.3-51.3.1-.4 0-.5 0-.5s-.1-.1-.5-.1h-4.9c-1.8 0-3.1-.8-3.8-2.4-.2-.5-.4-1.1-.3-1.8.3-2.1.5-4.3 1-6.5.5-2.5 3-3.8 5.3-3.9h5.3c.1-.6.2-1.2.3-1.7.2-1.4.4-2.8.7-4.1.8-3.7 2.1-6.9 3.9-9.8 2.3-3.7 5.5-6.6 9.4-8.5 1.6-.8 3.7-1.8 5.9-2.3 1.6-.4 3.3-.7 5.6-1 2.5-.3 4.8-.5 7-.5h1.5c1.9.1 3.7.2 5.4.5 1.9.3 3.8 2.1 3.6 4.5-.316 2.613-.755 5.206-1.2 7.8-.3 1.5-1.8 2.7-3.3 2.7h-9.4c-1.4.1-2.8.5-4.2 1.1-2 1-3.5 2.6-4.5 4.7-.9 1.8-1.4 3.9-1.7 6.7h25.5c1.4.142 2.749.67 3.6 1.5.9.9 1.3 2.2 1.2 3.6v1.9c.1-.1.3-.2.4-.4.6-.5 1.2-1.1 1.8-1.5 2-1.7 4.5-3.5 7.4-4.5 4-1.4 8-1.7 10.7-1.7 1.9 0 3.2.2 3.2.2 2.1.2 4.2.8 6.3 1.9 2.6 1.3 4.6 3.3 5.9 6.1.2.4.4.8.5 1.3 0 .1.1.2.1.3l.1-.1c.3-.3.5-.5.8-.7.4-.4.9-.8 1.3-1.2 5-4.3 9.6-6.6 14.2-7.4 1.3-.2 2.7-.3 4.3-.3 1.4 0 2.9.1 4.6.3 2.5.3 4.8 1 6.9 2.1 2.3 1.2 4.1 3 5.3 5.5 1.2 2.4 1.6 5 1.9 8.1.3 2.7-.1 5.4-.3 8l-6.8 49.9c-.2 1.2-.4 2.4-.8 3.6-.6 1.4-1.7 2.5-3.2 2.8-.8.2-1.7.3-2.7.3h-8.4c-1.9 0-3.2-.8-3.9-2.3-.3-.7-.5-1.4-.4-1.9.1-1.2.3-2.4.5-3.6l5.9-41.5c.3-2.7.7-5.5.8-8.3.1-1.9-.2-3.4-1-4.7-.8-1.3-2-1.8-3.1-2.1-.8-.2-1.6-.3-2.5-.3-1.2 0-2.3.2-3.5.6-.3.1-.6.2-1 .4-2.3 1-4.5 2.6-6.7 4.9-.2.2-.4.5-.6.7-.4.4-.6.9-.7 1.5l-6.9 51.9c-.7 2.9-2.7 4.6-5.5 4.6h-9.2c-2.2 0-3.6-.9-4.2-2.9-.3-.8-.2-1.7-.1-2.6v-.3l6.4-44.4c.4-2.9.9-5.9.6-8.9-.2-2.5-1.1-3.9-2.9-4.7-1.2-.5-2.3-.7-3.5-.7-.5 0-.9 0-1.4.1-4.9.8-8.2 3.8-10.9 6.7-.3.4-.6.8-.6 1.3l-7.6 52c-.3 1.9-1.9 3.6-3.8 4-.7.2-1.5.3-2.2.3h-8.9c-2 0-3.4-.9-3.8-2.6-.3-1-.2-2.1-.1-3.2v-.1c0-.7.2-1.3.3-2l7.8-56.7h-12.9c-.4 0-.7.3-.7.6-.1 1.3-.3 2.6-.5 3.9-.1.5-.2 1-.2 1.5 0 .3-.1.6-.1.9-1.78 13.632-4.048 27.19-5.7 41-.2 1.6-.4 3.2-.7 4.9-4.7 32-20.5 33.7-27.6 34.6-2.1.3-4.2.1-6.2-.8-1.8-1.4-4.1-3.2-4.3-6.8" id="use4003" fill="#ce3552" fill-opacity="1"/><path id="use4011" d="M109.4 171.789c-18.5 0-18.5 12.7-18.5 18.8v2.6l-1-2.4s-1.7-4-6.8-8c-4.7-3.8-13.4-8.2-28.1-8.2-30.8 0-55 27.1-55 61.7 0 35.9 22.7 63 52.9 63H55c8-.3 15.4-2.3 22-5.8 5.4-2.9 9.8-7 12.9-11.9l1-1.6v3.2c0 7.5 2 17.4 18.5 17.4 7.9 0 13.4-2.9 16.2-8.6 2.3-4.7 2.3-10.1 2.3-12.7v-81.6c0-10.3 0-25.9-18.5-25.9zm-48.1 93.8c-14.3 0-22.5-11.3-22.5-27.2 0-19.1 8.2-27.2 22.5-27.2 12.9 0 21.2 7.2 21.2 27.2-.1 16.2-8.3 27.2-21.2 27.2zm0 0" fill="#ce3552" fill-opacity="1"/><path d="M270.2 300.589c-17.9 0-18.3-14.3-18.5-23.7v-82.2c.3-9.7.6-24.3 18.5-24.3 6.5 0 11.3 1.6 14.3 4.7 4.5 4.6 4.3 11.5 4.2 16.1v18l23.3-26.5c1.5-1.7 3-3.2 4.4-4.4 4.4-3.8 8.2-5.5 12.2-5.5 3.1 0 6.2 1.1 9.5 3.2 1.3.9 2.4 1.8 3.4 2.8 8 8.3 4.7 17.3-.6 22.5l-25.5 27.4 31.7 45.4c5.3 7.1 4 17-3 22.7-3 2.4-6.6 3.7-10.6 3.7h-.7c-5.5-.2-10.7-3.2-14-8.1l-30.1-44.4v28.4c.1 11.7-1.4 24.2-18.5 24.2" id="use4021" fill="#ce3552" fill-opacity="1"/></svg>