<svg xmlns="http://www.w3.org/2000/svg" fill="#263238" viewBox="0 0 35.37 39.228"><path d="M32.06 7.324 20.89.814a6.42 6.42 0 0 0-3.35-.81 6.72 6.72 0 0 0-3.37.81l-11 6.51A7.2 7.2 0 0 0 0 13.114v13a7.2 7.2 0 0 0 3.19 5.79l11.08 6.51a6.36 6.36 0 0 0 3.28.81 6.17 6.17 0 0 0 3.28-.81L32 31.924a7.77 7.77 0 0 0 3.37-5.79v-13a7.06 7.06 0 0 0-3.31-5.81zm-6.46 18.81a.54.54 0 0 1-.35.09.93.93 0 0 1-.72-.44l-4.43-8.93-4.43 8.91a.87.87 0 0 1-.72.44c-.09 0-.28 0-.35-.09a.82.82 0 0 1-.33-1.11l5-9.9-1.69-3.37-7 14.08a.792.792 0 1 1-1.41-.72l7.68-15.46a.68.68 0 0 1 .72-.44.83.83 0 0 1 .72.44l1.82 3.76.89 1.68 5 10a.82.82 0 0 1-.4 1.06z"/></svg>