<svg xmlns="http://www.w3.org/2000/svg" viewBox="0 0 178.1 130.2"><path fill="#412c91" d="m97.3 36-6.9 25.4c-.1.6 0 1.2.6 1.5.4.3.9.3 1.3.1L135 42.3zm-6.5 46.7 49.8 31.6 19.9-14.6-68.9-18.8c-1-.3-1.7 1.2-.8 1.8M57 59.2 46.6 31.9l-23.4 7.5 32.5 20.9a.9.9 0 0 0 1.3-1.1M42.9 86.3l-17.7-6c-2 5-4.2 10-6.3 14.9L43 88a.9.9 0 0 0 0-1.7"/><path fill="#40b93c" d="M109 118 92 98.6a.9.9 0 0 0-1.6.7l1 31c5.9-4.2 11.7-8.3 17.6-12.3M0 55.8l45.8 12.5c.9.3 1.5-1 .7-1.5C33.7 56.6 16.4 44.9 4.4 35L0 55.8m73 16.3c.2 1 1.5 1 1.7 0 4.6-16.2 9.2-37.3 13.7-53L58.1 0c5 22 10 49.6 15 72.1m105 1.5L103 71.7c-1 0-1.2-1.5-.2-1.7 21.7-5.7 43.3-13.9 65-19.6 3.5 7 7 16.3 10.3 23.2"/></svg>