<svg xmlns="http://www.w3.org/2000/svg" viewBox="0 0 288.4 123.3"><path fill="#a61941" d="M216 0v85.5c0 6 3.6 9.5 9.8 9.7 4.4.2 12.3-1.9 12.8-10V0h40.3v106.8c0 1 .3 5 4 9l5.3 5.8c.5.7.2 1-.8 1h-37.7c-4 0-6.7-2.2-8-5.2l-1.6-5c-3.3 6-11.2 9.8-19.2 10.5-23 2-36.1-3.5-42.2-15-8.1 12.7-24.6 14.7-44.8 14.7H84.6L79 100H42.8l-5.4 22.6H0l25.7-103s2-7.3-2.9-12.8c-3.5-4-5.4-5.7-5.4-5.7-.5-.8-.1-1 .9-1h70.2c3.4 0 6.8 2.1 7.8 5.3l4 15.8C107.2 3.3 127.5 0 149 0h27.6zM61 27.3 48.3 77.7h25L61 27.3Z"/><path fill="#fcc507" d="m182.3 100.2-1.2 3.5 5.8 5c.7.7 1.7-.2 1.1-1zm2-11.2-.6 5.3 11.6 7c.8.6 1.6-.5 1-1.1zm-.4-10c.5 2.4.5 6.5.5 6.5l17.8 7.2c.9.4 1.5-.8.7-1.3zM77.4 50.4c-1 0-1.1 1.2-.3 1.4l24.8 6.4c.2 0 .2.3 0 .3L76.2 61c-.9.1-.9 1.4 0 1.5l25.6 2.4c.3 0 .3.3 0 .4l-24.7 6.3c-.8.2-.6 1.5.3 1.4l25.7-1.6c.2 0 .3.3 0 .4l-23 10c-.9.4-.5 1.7.4 1.5l25-5.7c.2 0 .4.3.2.4L85 91.4c-.8.5-.2 1.7.7 1.3l23.4-9.4c.3-.1.5.2.3.4l-17.8 16.5c-.6.6.2 1.6 1 1.2l21.2-13c.2-.1.5.2.3.4L100 107.7c-.6.8.4 1.7 1.1 1l18.4-16c.2-.1.5.1.4.4l-10.4 20.8c-.4.8.8 1.6 1.4.8l15-18.7s4.4 2.1 8.5 2.5c7.2.7 13.8-.9 17.4-4.2a8 8 0 0 0 2.8-6c0-8.9-9.7-12.3-21.1-16.2-11.7-4-25-8.6-31.4-20.2zM80.5 40c-.9-.2-1.3 1-.4 1.4l21.4 9.4a29 29 0 0 1-2.3-6.5L80.5 40Zm4.6-9.5c-.5.2-.7 1-.1 1.3l13.6 8.9a45 45 0 0 1-.3-5.1l-12.6-5.1H85zm6.9-8.7c-.5 0-.9.8-.4 1.3l7 6.5.7-3.6-6.7-4.1a.7.7 0 0 0-.6-.1zm85.6-13.6c-.2 0-.4.1-.5.3l-15.4 19s-7.7-3.3-15-3.3c-6.8 0-11.8 1.1-14.5 3.8a8 8 0 0 0-2.4 6c0 3.3 1.8 6 5.8 8.6 11.4 6.3 24.9 9.3 35 16.1 12.2 8.4 13.1 19 13.1 19l23.7 5.4c.8.2 1.2-1 .4-1.4l-23-10.1c-.3-.1-.2-.4 0-.4l25.7 1.6c.9.1 1-1.2.2-1.4L186 65.2c-.2 0-.2-.4 0-.4l25.6-2.4c1-.1 1-1.4 0-1.5L186 58.5c-.2 0-.2-.3 0-.4l24.7-6.3c.9-.2.7-1.5-.2-1.4L184.8 52c-.2 0-.3-.3 0-.4l23-10c.8-.4.4-1.7-.4-1.5l-25 5.7c-.3 0-.4-.2-.3-.4L203 32c.8-.5.2-1.7-.7-1.3L178.6 40c-.2 0-.3-.2-.2-.4l17.8-16.5c.7-.6-.1-1.7-1-1.2L174 35c-.2 0-.4-.1-.2-.3L188 15.6c.6-.8-.4-1.7-1.1-1l-18.6 16.1c-.2.2-.4 0-.3-.2l10.4-21c.4-.7-.2-1.3-.8-1.2z"/></svg>
