<svg xmlns="http://www.w3.org/2000/svg" viewBox="0 0 90 90"><path fill="#1A1A1A" d="m60.9 64.5 9.6 16.7H55.4L48 68.6a5 5 0 0 1 0-4.9L56.6 49a5 5 0 0 1 1.8-1.8 4.9 4.9 0 0 1 2.5-.6h14.5l7.6 13H63.7a3.3 3.3 0 0 0-1.6.5 3.3 3.3 0 0 0-1.2 4.4ZM42 68.6l-7.2 12.6h-15l9.5-16.7a3.3 3.3 0 0 0-1.2-4.4 3.3 3.3 0 0 0-1.6-.5H7.2l7.6-13.1h14.5a4.9 4.9 0 0 1 2.5.6 5 5 0 0 1 1.8 1.8L42 63.7a5 5 0 0 1 0 5ZM32.7 15l9.6 16.7c.3.5.7 1 1.2 1.2a3.3 3.3 0 0 0 4.4-1.2L57.5 15l7.6 13.1-7.3 12.6a4.9 4.9 0 0 1-1.8 1.8 4.9 4.9 0 0 1-2.4.7h-17a4.9 4.9 0 0 1-2.4-.7 4.9 4.9 0 0 1-1.8-1.8l-7.3-12.6L32.7 15ZM87 55 63.4 13.7a21 21 0 0 0-7.8-7.9A21 21 0 0 0 45 3a21 21 0 0 0-10.6 2.8 21 21 0 0 0-7.8 7.9L3 55a21.2 21.2 0 0 0-3 10.7c0 3.7 1 7.4 2.9 10.6a21 21 0 0 0 7.7 7.9A21 21 0 0 0 21.3 87h47.4c3.8 0 7.4-1 10.7-2.8a21 21 0 0 0 7.7-7.9A21.2 21.2 0 0 0 90 65.7c0-3.8-1-7.5-2.9-10.7Z"/></svg>