<svg viewBox="0 0 90 90" xmlns="http://www.w3.org/2000/svg"><path d="m60.873 64.542 9.593 16.704H55.388l-7.24-12.607a4.928 4.928 0 0 1 0-4.923l8.48-14.768a4.91 4.91 0 0 1 1.786-1.8 4.876 4.876 0 0 1 2.44-.664h14.557l7.536 13.126H63.695a3.273 3.273 0 0 0-1.622.455 3.317 3.317 0 0 0-1.195 4.477h-.005Zm-18.83 4.097-7.24 12.607H19.716l9.598-16.704a3.317 3.317 0 0 0-1.195-4.477 3.273 3.273 0 0 0-1.623-.455H7.244l7.541-13.126h14.557a4.884 4.884 0 0 1 2.44.665 4.915 4.915 0 0 1 1.786 1.799l8.48 14.768a4.927 4.927 0 0 1 0 4.923h-.004Zm-9.386-53.683 9.621 16.755c.29.497.705.908 1.202 1.194a3.275 3.275 0 0 0 4.466-1.194l9.593-16.703 7.541 13.126-7.245 12.606a4.902 4.902 0 0 1-1.786 1.797 4.874 4.874 0 0 1-2.44.662H36.644a4.868 4.868 0 0 1-2.44-.66 4.901 4.901 0 0 1-1.786-1.799l-7.302-12.658 7.541-13.126Zm54.47 40.048L63.375 13.663a21.044 21.044 0 0 0-7.748-7.836A20.91 20.91 0 0 0 45.002 3a20.925 20.925 0 0 0-10.628 2.827 21.058 21.058 0 0 0-7.75 7.836L2.876 55.003A21.2 21.2 0 0 0 0 65.67c0 3.75.993 7.431 2.877 10.667a21.063 21.063 0 0 0 7.754 7.836A20.934 20.934 0 0 0 21.261 87h47.487c3.73.022 7.397-.953 10.627-2.827a21.056 21.056 0 0 0 7.751-7.836A21.221 21.221 0 0 0 90 65.67c0-3.748-.992-7.43-2.874-10.666Z" fill="#1A1A1A"/></svg>