<svg xmlns="http://www.w3.org/2000/svg" shape-rendering="geometricPrecision" text-rendering="geometricPrecision" image-rendering="optimizeQuality" fill-rule="evenodd" viewBox="0 0 594.918 594.918" width="224.851" height="224.851"><path fill="#2b87d3" d="M336.49 112.051l-.68.138-.557.375-.375.556-.137.681v70.797l.137.68.375.557.556.375.682.138h71.965l.475.475v71.546l.137.682.375.556.556.375.682.137h70.585l.682-.137.556-.375.375-.556.137-.682V113.801l-.137-.681-.375-.556-.556-.375-.682-.138zm-222.917.017l-.681.137-.557.375-.375.556-.137.682v144.596l.137.681.375.557.557.375.68.137h71.155l.682-.137.556-.375.375-.557.137-.681v-71.943l.475-.475h71.26l.68-.138.557-.375.375-.556.137-.681v-70.428l-.137-.682-.375-.556-.556-.375-.682-.137zm111.555 111.24l-.681.138-.557.375-.375.556-.137.681V369.86l.137.68.375.557.557.375.68.138h144.54l.681-.138.557-.375.375-.556.137-.681V225.058l-.137-.681-.375-.556-.557-.375-.68-.138zM113.74 334.772l-.681.138-.556.375-.375.556-.138.681v144.776l.138.681.375.557.556.375.681.137h144.481l.682-.137.556-.375.375-.557.137-.68v-71.142l-.137-.68-.375-.557-.556-.375-.682-.138h-71.784l-.475-.474v-71.41l-.137-.682-.375-.556-.557-.375-.68-.138zm296.535.022l-.681.137-.556.375-.375.557-.138.68V408.5l-.475.475h-71.573l-.681.137-.556.375-.375.557-.138.681v70.594l.138.682.375.556.556.375.681.137h144.586l.681-.137.557-.375.375-.556.137-.682V336.544l-.137-.682-.375-.556-.557-.375-.68-.137zM519.03 75.156l.475.474v443.526l-.475.475H75.509l-.476-.475V75.63l.475-.474zM1.812 0L1.13.137.574.512.2 1.07l-.137.681v591.418l.137.682.375.556.557.375.68.137h591.295l.682-.137.556-.375.375-.556.137-.682V1.75l-.137-.681-.375-.557-.556-.375-.682-.137z"/></svg>