<svg xmlns="http://www.w3.org/2000/svg" viewBox="0 0 90 90"><path fill="#065740" stroke="#ffcf00" stroke-width="1.631" d="M24.863 26.815l17.63 35.572V35.544h-8.464l-4.326-8.729H67.44v21.731c0 1.739.699 3.313 1.829 4.452s2.696 1.848 4.423 1.848 3.291-.706 4.423-1.848 1.829-2.713 1.829-4.452h0V26.815h9.242v21.731a15.66 15.66 0 0 1-4.54 11.06c-2.803 2.828-6.675 4.578-10.953 4.578s-8.15-1.75-10.953-4.578a15.66 15.66 0 0 1-4.54-11.06h0V35.544h-6.463v28.641H33.123L30.405 58.7H19.133l4.326-8.729h2.62l-3.73-7.527-10.774 21.74H1.314l18.521-37.369h5.028z"/></svg>