<svg xmlns="http://www.w3.org/2000/svg" xml:space="preserve" viewBox="0 0 595.3 595.3"><linearGradient id="a" x1="297.65" x2="297.65" y1="0" y2="595.3" gradientUnits="userSpaceOnUse"><stop offset="0" style="stop-color:#003c76"/><stop offset="1" style="stop-color:#001844"/></linearGradient><path d="M0 0h595.3v595.3H0z" style="fill:url(#a)"/><path d="M556.8 164.9c-6.8-3.3-18.4-7.7-33.2-5.1-14.8 2.4-31.2 12.4-44.7 28-13.7 15.4-25.5 35.6-35.3 58.5-5 11.1-9.4 22.9-13.6 35.2-2.9.4-5.7.8-8.3 1.4-8.9 1.7-14.9 3.9-14.9 3.9s6 2.3 14.9 3.9c1.6.3 3.2.6 5 .9-1.1 3.5-2.2 7.1-3.3 10.6-1.9 6.3-4.1 12.8-6.4 19.5-9.5 26-21.1 53.4-37.7 77.4-8.3 11.6-19 22.8-30.1 25.1-5.4 1-10.6 0-16-3.3-5.3-3.1-10.4-8.3-15-13.9-9.2-11.6-16.4-25.6-22.9-40.1-6.4-14.3-12.2-30-16.9-44.7-9.6-32-21.4-63.1-36.2-92.9-7.4-14.8-15.7-29.2-26-42.5-5.1-6.6-10.7-12.9-17.2-18.7-6.5-5.7-13.9-10.8-22.8-13.9-8.8-3.2-19.1-3.5-28-.6-9 2.8-16.3 7.9-22.3 13.4-12 11.3-20.1 24.3-27.2 37.1-13.8 25.7-22.6 51.3-29.9 75-.1.4-.2.6-.3 1-9.5.3-18.8 1.3-26.1 2.8-8.6 1.7-14.4 3.9-14.4 3.9s5.8 2.3 14.4 3.9c6.2 1.3 13.9 2.2 22.1 2.7-5.2 18.4-9.4 35.5-12.8 51.1-4.4 19.6-7.8 36.8-10.5 50.9-2.8 14.1-4.4 25.3-5.7 32.9C34.7 436 34 440 34 440s4.1-15.9 11.4-43.7C52 370.6 62 335 76.4 293.5c10.9-.1 21.7-1.2 29.8-2.9 8.6-1.7 14.4-3.9 14.4-3.9s-5.8-2.3-14.4-3.9c-7-1.5-15.8-2.5-25-2.8 8.3-22.1 17.9-45.7 31.1-68.4 7-11.7 15-23.3 25-31.9 5-4.3 10.5-7.7 16.1-9.3s11.3-1.3 17 .8c11.5 4.3 21.9 15.1 30.7 27.1 8.8 12.1 16.5 25.7 23.5 39.8 13.9 28.3 25 59 34.3 89.8 5.4 16.5 11.1 31.7 18.2 47.2 7.1 15.3 14.8 30.4 25.9 44.2 5.6 6.8 11.9 13.5 20.6 18.4 8.3 5 19.7 7.4 29.9 5 10.1-2.5 18.1-8.1 24.4-14 6.4-6.1 11.6-12.7 16.2-19.4 18.1-27.1 28.4-55.7 37.4-82.9 2.2-6.9 4.1-13.6 6-20.5 1.2-4.4 2.4-8.6 3.5-12.9 4.4.3 9 .5 13.6.5 11.8 0 23.8-1.1 32.7-2.9 8.9-1.7 14.9-3.9 14.9-3.9s-6-2.3-14.9-3.9c-8.9-1.8-20.7-2.9-32.7-2.9q-4.95 0-9.9.3c3.1-10.3 6.2-20.1 9.9-29.5 8.6-22.7 18.5-42.7 30.4-58.1 11.7-15.5 26.1-25.7 39.6-28.9 13.6-3.2 25-.5 31.9 2.3 7.2 2.8 10.4 5.4 10.4 5.4s-3.2-3-10.1-6.5" style="fill:#fff"/></svg>