<svg xmlns="http://www.w3.org/2000/svg" viewBox="0 0 158.12 130.56"><path fill="#fff" d="M64.32 46.74a103.29 103.29 0 0 1 55.82-26c7-.95 12.1 6.19 2.72 9.18A94 94 0 0 0 67 57.38C52.76 71.86 72.66 90 90.86 74a65.39 65.39 0 0 1 15.22-10 66.39 66.39 0 0 1 10.29-3.86 65.71 65.71 0 0 1 17.85-2.45 66.74 66.74 0 0 1 10.75.87c4.4.64 8.41 8.91-.26 9.56a56.54 56.54 0 0 0-8.8-1h-1.69a55.86 55.86 0 0 0-24.3 5.52c-21.2 10.21-11.7 37.1 13.26 25.17a27.37 27.37 0 0 1 19.13-1.11c6.05 1.89 10.75-4.79 4.37-8.51a16.56 16.56 0 0 0-5.13-1.44 37.13 37.13 0 0 0-24.66 3.6c-7.56 4.06-11.66-4.68-3.8-8.7a46.2 46.2 0 0 1 21.13-5.08 46.67 46.67 0 0 1 8.07.7c23.2 2 17.9-26 3.25-28.21a76.31 76.31 0 0 0-9.66-.83c-2.18 0-4.36 0-6.53.14a74.62 74.62 0 0 0-45.48 19.11C77.57 73.18 68 69.39 76 61.8a84.35 84.35 0 0 1 48.2-22.53c22.57-5.54 13.37-24.86 1.6-27.92-3.86-1-10.46.47-14.38 1.26-2.69.54-5.36 1.19-8 1.93a112.73 112.73 0 0 0-67.85 53.19c-6.31 10.33-12.78 2.65-8.49-4.35A122.41 122.41 0 0 1 52.28 32Q56 28.69 60 25.67A122.5 122.5 0 0 1 89.58 9.19c7.3-2.95 3.7-11.87-4.51-8.4-2.18.92-4.36 1.8-6.5 2.78A132.63 132.63 0 0 0 36.83 33.9a130.21 130.21 0 0 0-12.65 16c-.59.88-1.18 1.78-1.75 2.68-1.83 2.89-3.5 5.89-5.17 8.89C9.41 75.62 29.89 95.49 43 74a102.41 102.41 0 0 1 14.5-20.44q3.26-3.57 6.82-6.82m-42.2-21.47c-1.72.93-4 3.07-6.6 5.64-1.65 1.64-5.94 7.07-7.67 9.4a82.24 82.24 0 0 0-6.44 10.5A14.54 14.54 0 0 0 0 56.64c.45 6.6 7.54 5.4 9.74.3a71.11 71.11 0 0 1 6.9-11.43 151.08 151.08 0 0 1 10.7-12.4c4.94-5.07.93-11.15-5.22-7.83M132.41 115a7.81 7.81 0 0 1 7.85 7.77 7.86 7.86 0 0 1-15.71 0 7.81 7.81 0 0 1 7.85-7.77"/></svg>