<svg xmlns="http://www.w3.org/2000/svg" viewBox="0 0 158.1 130.6"><path fill="#67b230" d="M64.3 46.7a103.3 103.3 0 0 1 55.8-26c7-1 12.1 6.2 2.8 9.2A94 94 0 0 0 67 57.4C52.8 71.9 72.7 90 90.9 74A65.4 65.4 0 0 1 106 64a66.4 66.4 0 0 1 10.3-3.9 65.7 65.7 0 0 1 17.8-2.4 66.7 66.7 0 0 1 10.8.9c4.4.6 8.4 8.9-.3 9.5a56.5 56.5 0 0 0-8.8-1h-1.7a55.9 55.9 0 0 0-24.3 5.5c-21.2 10.2-11.7 37.1 13.3 25.2a27.4 27.4 0 0 1 19.1-1.1c6 1.9 10.8-4.8 4.4-8.5a16.6 16.6 0 0 0-5.1-1.5 37.1 37.1 0 0 0-24.7 3.6c-7.6 4.1-11.7-4.6-3.8-8.7a46.2 46.2 0 0 1 21.1-5 46.7 46.7 0 0 1 8 .7c23.3 2 18-26 3.3-28.2a76.3 76.3 0 0 0-9.6-.9c-2.2 0-4.4 0-6.5.2a74.6 74.6 0 0 0-45.5 19c-6.3 5.8-15.9 2-7.9-5.6a84.3 84.3 0 0 1 48.2-22.5c22.6-5.6 13.4-24.9 1.6-28-3.9-1-10.5.5-14.4 1.3-2.7.5-5.3 1.2-8 2a112.7 112.7 0 0 0-67.8 53.1c-6.3 10.4-12.8 2.7-8.5-4.3A122.4 122.4 0 0 1 52.3 32q3.7-3.3 7.7-6.3A122.5 122.5 0 0 1 89.6 9.2c7.3-3 3.7-11.9-4.5-8.4l-6.5 2.8a132.6 132.6 0 0 0-41.8 30.3 130.2 130.2 0 0 0-12.6 16l-1.8 2.7c-1.8 2.9-3.5 5.9-5.1 8.9C9.4 75.6 29.9 95.5 43 74a102.4 102.4 0 0 1 14.5-20.4q3.3-3.6 6.8-6.9M22.1 25.3c-1.7.9-4 3-6.6 5.6-1.6 1.7-6 7-7.7 9.4a82.2 82.2 0 0 0-6.4 10.5A14.5 14.5 0 0 0 0 56.6c.5 6.6 7.5 5.4 9.7.3a71.1 71.1 0 0 1 7-11.4 151 151 0 0 1 10.6-12.4c5-5 1-11.1-5.2-7.8M132.4 115a7.8 7.8 0 0 1 7.9 7.8 7.9 7.9 0 0 1-15.8 0 7.8 7.8 0 0 1 7.9-7.8"/></svg>