<svg xmlns="http://www.w3.org/2000/svg" viewBox="0 0 32.86 41.71"><path fill="#0051ff" d="M11.81 36.27a4.63 4.63 0 0 1 4.59-4.66 4.63 4.63 0 0 1 4.66 4.59 4.63 4.63 0 0 1-4.59 4.66h-.03a4.61 4.61 0 0 1-4.63-4.59m11.73-12.19L16.43 13.7l-.03-.05a4.765 4.765 0 0 0-6.39-1.43 4.604 4.604 0 0 0-1.48 6.34c.03.05.07.11.1.16l1.02 1.49c.27.38.42.83.43 1.3 0 2.55-2.08 4.61-4.62 4.6h-.02c-.11 0-.23 0-.35-.02-.08 0-.15-.02-.23-.02l-.13-.02a4.6 4.6 0 0 1-3.88-4.12v-.07c-.01-.11-.02-.22-.02-.33v-.02c0-.15 0-.31.03-.46v-.02c.08-.76.34-1.49.78-2.12L12.53 2.99l.02-.03a4.636 4.636 0 0 1 7.77 0l.02.03 10.89 15.9c1.43 2.09.9 4.95-1.19 6.38-.01 0-.02.02-.04.02-2.12 1.43-5 .89-6.45-1.22Z"/></svg>