<svg viewBox="0 0 232 38" fill="none" xmlns="http://www.w3.org/2000/svg">
<path d="M231.583 0.00195312H203.268V37.9985H231.583V0.00195312Z" fill="#0087AE"/>
<path d="M225.688 12.0273L217.473 20.2268L214.135 16.8951H209.258L217.473 25.0709L228.103 14.4376L225.688 12.0273Z" fill="#EEDC00"/>
<path d="M209.238 16.8758L206.824 14.442L217.477 3.80859L225.693 12.0081L220.863 12.0317L217.477 8.65268L209.238 16.8758ZM207.936 32.4005C207.108 32.1879 206.966 32.1642 206.966 31.9043C206.966 31.6444 207.25 31.5262 207.463 31.5262C207.818 31.5262 208.078 31.6207 208.102 32.0225H208.812C208.812 31.2663 208.173 30.9591 207.486 30.9591C206.895 30.9591 206.255 31.2899 206.255 31.9516C206.255 32.5659 206.752 32.755 207.226 32.8731C207.723 32.9913 208.197 33.0622 208.197 33.4166C208.197 33.7711 207.818 33.8183 207.557 33.8183C207.179 33.8183 206.824 33.6529 206.824 33.2039H206.113C206.113 34.0073 206.776 34.3618 207.51 34.3618C208.41 34.3618 208.883 33.9128 208.883 33.3221C208.931 32.6132 208.173 32.4714 207.936 32.4005ZM210.659 33.2039C210.659 33.6765 210.517 33.8892 210.162 33.8892C209.854 33.8892 209.736 33.7002 209.736 33.2985V31.9516H209.096V33.4166C209.096 34.0073 209.262 34.3854 209.972 34.3854C210.256 34.3854 210.541 34.2436 210.706 33.9837V34.3145H211.322V31.9516H210.683V33.2039H210.659ZM213.973 33.1803C213.973 33.8183 213.618 34.4091 212.932 34.4091C212.648 34.4091 212.387 34.2909 212.221 34.0546V35.1652H211.582V31.9516H212.221V32.2587C212.363 32.0225 212.648 31.8807 212.932 31.9043C213.666 31.9043 213.973 32.5423 213.973 33.1803ZM213.334 33.1567C213.334 32.7786 213.192 32.4005 212.766 32.4005C212.34 32.4005 212.198 32.7786 212.198 33.1567C212.198 33.5348 212.34 33.9128 212.766 33.9128C213.192 33.9128 213.334 33.5348 213.334 33.1567ZM216.483 33.2985H214.778C214.802 33.7002 214.991 33.8892 215.37 33.8892C215.583 33.8892 215.796 33.7711 215.891 33.582H216.483C216.365 34.0782 215.891 34.4327 215.37 34.3854C215.323 34.3854 215.276 34.3854 215.228 34.3854C214.589 34.3382 214.115 33.7711 214.163 33.1331C214.163 33.1094 214.163 33.0858 214.163 33.0385C214.186 32.3769 214.731 31.857 215.37 31.8807C216.128 31.9043 216.53 32.5659 216.483 33.2985ZM215.82 32.8968C215.749 32.5659 215.607 32.4005 215.299 32.4005C215.015 32.4005 214.778 32.6132 214.755 32.8968H215.82ZM217.264 32.4005V31.9516H216.649V34.3145H217.312V33.2512C217.312 32.8259 217.477 32.495 217.951 32.495C218.045 32.495 218.14 32.5187 218.235 32.5423V31.9279C218.164 31.9043 218.117 31.9043 218.045 31.9043C217.69 31.9043 217.383 32.0933 217.264 32.4005ZM219.087 31.6444H220.579V31.03H218.353V34.3618H219.087V32.9913H220.579V32.4005H219.087V31.6444ZM222.449 33.2039C222.449 33.7002 222.283 33.8892 221.928 33.8892C221.62 33.8892 221.502 33.7002 221.502 33.2985V31.9279H220.839V33.4166C220.839 34.0073 221.005 34.4091 221.715 34.4091C222.023 34.4091 222.283 34.2673 222.449 34.0073V34.3618H223.088V31.9516H222.449V33.2039V33.2039ZM224.769 31.8807C224.461 31.8807 224.201 32.0225 224.035 32.2824V31.9279H223.396V34.3382H224.059V33.0858C224.059 32.5896 224.225 32.4005 224.58 32.4005C224.888 32.4005 225.006 32.5896 225.006 32.9913V34.3618H225.669V32.8731C225.645 32.2824 225.479 31.8807 224.769 31.8807ZM227.61 31.03H228.273V34.3618H227.634V34.0546C227.468 34.3145 227.184 34.4563 226.9 34.4327C226.166 34.4327 225.811 33.7947 225.811 33.1331C225.811 32.4714 226.166 31.8807 226.876 31.8807C227.16 31.8807 227.421 31.9988 227.587 32.2351V31.03H227.61ZM227.61 33.1331C227.61 32.7313 227.492 32.3769 227.042 32.3769C226.616 32.3769 226.45 32.7786 226.45 33.1567C226.45 33.5348 226.616 33.9365 227.042 33.9365C227.492 33.9128 227.61 33.5348 227.61 33.1331ZM213.429 29.9194V26.6349H212.719V29.9194H213.429ZM215.891 29.9194V28.4544C215.891 27.8636 215.725 27.4856 215.015 27.4856C214.731 27.4856 214.447 27.6273 214.281 27.8873V27.5564H213.642V29.9194H214.305V28.667C214.305 28.1944 214.447 27.9818 214.802 27.9818C215.11 27.9818 215.228 28.1708 215.228 28.5725V29.9194H215.891V29.9194ZM217.856 29.9194V29.6122C217.714 29.8485 217.43 29.9903 217.146 29.9903C216.436 29.9903 216.08 29.3523 216.08 28.7143C216.08 28.0763 216.436 27.4856 217.122 27.4856C217.406 27.4856 217.667 27.6037 217.832 27.84V26.6585H218.495V29.9194H217.856ZM217.856 28.7143C217.856 28.3362 217.714 27.9581 217.288 27.9581C216.862 27.9581 216.72 28.3126 216.72 28.7143C216.72 29.0924 216.862 29.4704 217.288 29.4704C217.714 29.4704 217.856 29.116 217.856 28.7143ZM220.91 29.9194V27.5564H220.271V28.8088C220.271 29.2814 220.129 29.4941 219.774 29.4941C219.466 29.4941 219.348 29.305 219.348 28.9033V27.5564H218.685V29.0215C218.685 29.6122 218.85 29.9903 219.561 29.9903C219.845 29.9903 220.129 29.8485 220.295 29.5886V29.9194H220.91V29.9194ZM222.496 28.478C222.118 28.3835 221.762 28.3598 221.762 28.1236C221.762 27.8873 221.976 27.9109 222.118 27.9109C222.354 27.9109 222.544 27.9818 222.567 28.2417H223.183C223.136 27.651 222.662 27.4856 222.141 27.4856C221.62 27.4856 221.1 27.651 221.1 28.2417C221.1 28.667 221.478 28.8088 221.857 28.8797C222.331 28.9742 222.591 29.0451 222.591 29.2342C222.591 29.4232 222.354 29.5413 222.165 29.5413C221.905 29.5413 221.668 29.4232 221.668 29.1396H221.052C221.076 29.7776 221.62 29.9667 222.165 29.9667C222.733 29.9667 223.254 29.754 223.254 29.1396C223.254 28.7143 222.875 28.5725 222.496 28.478ZM224.367 29.943C224.485 29.943 224.627 29.943 224.746 29.9194V29.3996C224.674 29.4232 224.603 29.4232 224.532 29.4232C224.319 29.4232 224.248 29.3759 224.248 29.1396V27.9581H224.722V27.5328H224.248V26.8239H223.585V27.5328H223.183V27.9581H223.585V29.3523C223.609 29.8485 223.964 29.943 224.367 29.943ZM226.379 28.0999L226.995 29.7776C227.042 29.9667 226.947 30.1557 226.758 30.2266C226.711 30.2266 226.687 30.2502 226.64 30.2502H226.616V30.8646H226.687C227.089 30.8882 227.468 30.6519 227.61 30.2739L228.605 27.5564H227.918L227.397 29.1869L226.853 27.5328H226.142C225.858 27.5564 225.621 27.7455 225.527 28.0054V27.5564H224.888V29.9194H225.55V28.8561C225.55 28.4307 225.716 28.0999 226.19 28.0999C226.261 28.0763 226.308 28.0763 226.379 28.0999ZM206.989 29.9194H206.255L207.51 26.6349H208.244L209.475 29.9194H208.718L208.457 29.1869H207.226L206.989 29.9194ZM207.463 28.6434H208.291L207.865 27.4383L207.463 28.6434ZM211.724 29.9194V28.4544C211.724 27.8636 211.559 27.4856 210.848 27.4856C210.564 27.4856 210.28 27.6273 210.114 27.8873V27.5564H209.475V29.943H210.138V28.6907C210.138 28.2181 210.28 28.0054 210.635 28.0054C210.943 28.0054 211.061 28.1944 211.061 28.5961V29.943H211.724V29.9194Z" fill="white"/>
<path d="M9.96186 16.9448L13.0633 24.1046H6.83676L9.96186 16.9448ZM8.58871 12.6678L0.136719 32.0206H3.45123L5.62933 26.9638H14.3181L16.5199 32.0206H19.858L11.406 12.6678H8.58871ZM32.7609 18.3862H29.7542V27.4128C29.186 28.6888 28.0259 29.5631 26.6528 29.5631C24.7588 29.5631 23.6934 28.1926 23.6934 26.0423V18.3862H20.6867V26.5385C20.6867 30.0593 22.7701 32.2805 25.9899 32.2805C27.363 32.2805 28.8545 31.737 29.7542 30.6028V32.0206H32.7609V18.3862V18.3862ZM57.9512 31.9969H60.9579V23.254C61.5498 21.8362 62.9703 21.1509 64.1777 21.1509C64.6512 21.1509 65.0774 21.1982 65.3615 21.3163L65.7876 18.4099C65.4562 18.339 64.959 18.2445 64.3908 18.2445C62.8519 18.2445 61.4788 19.166 60.9579 20.2057V18.3862H57.9512V31.9969V31.9969ZM72.7244 32.2805C68.676 32.2805 65.9297 29.0432 65.9297 25.1916C65.9297 21.3399 68.676 18.1027 72.7244 18.1027C74.3343 18.1027 75.7548 18.6462 76.7018 19.6386V18.3862H79.7085V32.0206H76.7018V30.7446C75.7548 31.737 74.3343 32.2805 72.7244 32.2805ZM73.0795 29.5631C74.8315 29.5631 75.9916 28.736 76.7018 27.6491V22.7105C75.9916 21.6471 74.8078 20.8201 73.0795 20.8201C70.6884 20.8201 69.0074 22.7814 69.0074 25.168C69.0074 27.6018 70.6647 29.5631 73.0795 29.5631ZM82.4312 31.9969H85.4379V10.2812L82.4312 13.2113V31.9969ZM89.6521 16.3305C88.563 16.3305 87.6634 15.4325 87.6634 14.3219C87.6634 13.235 88.563 12.337 89.6521 12.337C90.7648 12.337 91.6644 13.235 91.6644 14.3219C91.6644 15.4325 90.7648 16.3305 89.6521 16.3305ZM88.1369 18.3862H91.1436V32.0206H88.1369V18.3862ZM100.14 32.2805C96.0917 32.2805 93.3454 29.0432 93.3454 25.1916C93.3454 21.3399 96.0917 18.1027 100.14 18.1027C101.75 18.1027 103.171 18.6462 104.118 19.6386V18.3862H107.124V32.0206H104.118V30.7446C103.171 31.737 101.75 32.2805 100.14 32.2805ZM100.495 29.5631C102.247 29.5631 103.407 28.736 104.118 27.6491V22.7105C103.407 21.6471 102.224 20.8201 100.495 20.8201C98.1041 20.8201 96.4231 22.7814 96.4231 25.168C96.4468 27.6018 98.1041 29.5631 100.495 29.5631ZM109.657 31.9969H112.664V22.9704C113.232 21.718 114.416 20.8201 116.026 20.8201C117.944 20.8201 119.033 22.1906 119.033 24.3409V31.9969H122.04V23.8447C122.04 20.3239 119.956 18.1027 116.689 18.1027C115.079 18.1027 113.611 18.6698 112.688 19.8276V18.3862H109.681V31.9969H109.657ZM124.857 28.8542C126.041 30.9336 128.645 32.3514 131.794 32.3514C135.582 32.3514 138.233 30.1538 138.257 26.7748C138.257 23.892 136.529 22.167 133.688 21.1036L131.723 20.3711C129.71 19.6386 128.763 19.0006 128.763 17.5828C128.763 16.1887 130.184 15.338 131.817 15.338C133.309 15.338 134.516 15.9996 135.487 17.1339L137.689 14.9836C136.268 13.3059 134.232 12.337 131.817 12.337C128.219 12.337 125.543 14.4164 125.543 17.7955C125.543 20.442 127.035 22.1197 130.113 23.254L132.243 24.0101C134.09 24.6954 134.99 25.5933 134.99 26.9638C134.99 28.4052 133.688 29.3504 131.841 29.3504C129.947 29.3504 128.337 28.4289 127.343 26.8693L124.857 28.8542ZM152.225 18.3862H149.218V27.4128C148.65 28.6888 147.49 29.5631 146.117 29.5631C144.223 29.5631 143.158 28.1926 143.158 26.0423V18.3862H140.151V26.5385C140.151 30.0593 142.234 32.2805 145.454 32.2805C146.827 32.2805 148.319 31.737 149.218 30.6028V32.0206H152.225V18.3862V18.3862ZM154.758 18.3862H157.765V19.6386C158.712 18.6462 160.133 18.1027 161.743 18.1027C165.815 18.1027 168.561 21.3399 168.561 25.1916C168.561 29.0432 165.815 32.2805 161.743 32.2805C160.133 32.2805 158.712 31.737 157.765 30.7209V37.9989H154.758V18.3862ZM161.411 29.5631C163.826 29.5631 165.483 27.5782 165.483 25.168C165.46 22.4269 162.926 20.3475 160.251 20.9619C159.115 21.2218 158.286 21.9071 157.765 22.7105V27.6491C158.452 28.736 159.635 29.5631 161.411 29.5631ZM185.725 31.9969H188.732V23.254C189.324 21.8362 190.744 21.1509 191.952 21.1509C192.425 21.1509 192.852 21.1982 193.136 21.3163L193.562 18.4099C193.23 18.339 192.733 18.2445 192.165 18.2445C190.626 18.2445 189.253 19.166 188.732 20.2057V18.3862H185.725V31.9969ZM40.9998 23.9156L39.603 23.5139C38.2535 23.1358 37.9694 22.5687 37.9694 21.9071C37.9694 21.08 38.8928 20.6311 39.7924 20.6311C40.9051 20.6311 41.7811 21.1745 42.3967 22.0252L44.2907 20.1821C43.32 18.8588 41.7811 18.1263 39.8634 18.1263C37.1408 18.1263 35.0101 19.5913 34.9864 22.0252C34.9627 24.0337 36.1938 25.546 38.5613 26.184L39.7687 26.5148C41.4023 27.0111 41.8758 27.46 41.8758 28.2634C41.8758 29.2086 40.9762 29.7049 39.9108 29.7049C38.514 29.7049 37.1882 29.0196 36.6436 27.8145L34.6313 29.7757C35.673 31.4535 37.638 32.3041 39.9108 32.3041C42.7281 32.3041 44.8589 30.6973 44.8589 28.0744C44.8115 25.8296 43.391 24.6245 40.9998 23.9156ZM55.4653 29.2323C54.8734 29.4686 54.3762 29.5631 53.5239 29.5631C52.2455 29.5631 51.3932 28.9251 51.3932 27.2474V21.0564H55.4653V18.3862H51.3932V13.235H48.3865V18.3862H45.7112V21.0564H48.3865V27.7672C48.3865 30.8391 50.4935 32.2805 53.1451 32.2805C54.0211 32.2805 54.8261 32.1151 55.4653 31.926V29.2323ZM180.683 27.9326C179.925 28.9014 178.741 29.5631 177.084 29.5631C174.811 29.5631 173.012 28.098 172.87 25.8532H183.595C183.618 25.4279 183.618 25.168 183.618 24.8844C183.618 20.4893 180.612 18.1263 177.037 18.1263C172.846 18.1263 169.839 21.2691 169.91 25.357C169.981 29.5158 173.604 32.5877 177.747 32.2805C180.043 32.1151 181.819 31.099 182.955 29.5867L180.683 27.9326ZM176.966 20.6547C178.718 20.6547 180.304 21.718 180.635 23.6793H173.036C173.438 21.6471 175.214 20.6547 176.966 20.6547Z" fill="#260046"/>
<path d="M110.155 2.12798C109.54 2.17524 109.493 3.04954 110.084 3.19132L123.484 6.28681C124.526 3.78206 124.55 1.56087 122.774 1.04102L110.155 2.12798Z" fill="url(#paint0_linear_93_3237)"/>
<path d="M134.567 0.00257538C135.064 -0.044684 135.348 0.569688 134.993 0.924134L120.575 14.9602C120.149 15.3855 119.462 14.8893 119.699 14.3458L123.463 6.28807C124.505 3.78333 124.528 1.58577 122.753 1.04228L134.567 0.00257538Z" fill="url(#paint1_linear_93_3237)"/>
<defs>
<linearGradient id="paint0_linear_93_3237" x1="114.434" y1="6.9189" x2="120.882" y2="-0.779952" gradientUnits="userSpaceOnUse">
<stop offset="0.1155" stop-color="#EA4403"/>
<stop offset="0.2632" stop-color="#EA4A03"/>
<stop offset="0.4566" stop-color="#EC5A03"/>
<stop offset="0.65" stop-color="#EE7203"/>
<stop offset="0.7747" stop-color="#F18402"/>
<stop offset="1" stop-color="#F8AE00"/>
</linearGradient>
<linearGradient id="paint1_linear_93_3237" x1="120.338" y1="6.93574" x2="134.5" y2="8.17714" gradientUnits="userSpaceOnUse">
<stop offset="0.1155" stop-color="#EA4403"/>
<stop offset="0.2356" stop-color="#EA4A03"/>
<stop offset="0.3928" stop-color="#EC5A03"/>
<stop offset="0.55" stop-color="#EE7203"/>
<stop offset="0.6535" stop-color="#F18402"/>
<stop offset="0.8604" stop-color="#F9B301"/>
<stop offset="0.9959" stop-color="#FFD500"/>
<stop offset="1" stop-color="#FFD500"/>
</linearGradient>
</defs>
</svg>
