<svg xmlns="http://www.w3.org/2000/svg" viewBox="5.5 5.5 100.756 100.756" width="100.756" height="100.756"><linearGradient id="a" x2="1" gradientTransform="rotate(90 20.1 31.5) scale(97.39658)" gradientUnits="userSpaceOnUse"><stop offset="0" stop-color="#ff1b2d"/><stop offset=".3" stop-color="#ff1b2d"/><stop offset=".6" stop-color="#ff1b2d"/><stop offset="1" stop-color="#a70014"/></linearGradient><linearGradient id="b" x2="1" gradientTransform="rotate(90 29.9 47) scale(86.1425)" gradientUnits="userSpaceOnUse"><stop offset="0" stop-color="#9c0000"/><stop offset=".7" stop-color="#ff4b4b"/><stop offset="1" stop-color="#ff4b4b"/></linearGradient><path fill="url(#a)" d="M60 9.8a50.3 50.3 0 1033.5 87.7c-5.9 3.9-12.8 6.1-20.1 6.1-12 0-22.7-6-30-15.3a43.8 43.8 0 01-9.3-27.1v-2.4a43.8 43.8 0 019.4-27.1c7.2-9.4 17.9-15.3 29.9-15.3 7.3 0 14.2 2.2 20 6.1A50 50 0 0060.3 9.8z" transform="translate(-4.065 -4.222)"/><path fill="url(#b)" d="M43.5 31.7a22.5 22.5 0 0117-8.8C75.2 23 87 39.5 87 60S75.2 97 60.5 97c-6.5 0-12.4-3.2-17-8.7a36.3 36.3 0 0050 9.1 50.1 50.1 0 000-74.9c-5.9-3.9-12.8-6.1-20.2-6.1-12 0-22.6 6-29.8 15.3" transform="translate(-4.065 -4.222)"/></svg>