<?xml version="1.0" standalone="no"?>
<!DOCTYPE svg PUBLIC "-//W3C//DTD SVG 20010904//EN"
 "http://www.w3.org/TR/2001/REC-SVG-20010904/DTD/svg10.dtd">
<svg version="1.0" xmlns="http://www.w3.org/2000/svg"
 width="800.000000pt" height="800.000000pt" viewBox="0 0 800.000000 800.000000"
 preserveAspectRatio="xMidYMid meet">

<g transform="translate(0.000000,800.000000) scale(0.100000,-0.100000)"
fill="#000000" stroke="none">
<path d="M0 4000 l0 -4000 4000 0 4000 0 0 4000 0 4000 -4000 0 -4000 0 0
-4000z m4375 2230 c365 -27 732 -108 1077 -236 130 -49 431 -192 510 -242 l47
-31 -256 -538 c-141 -296 -258 -540 -259 -541 -1 -2 -107 48 -236 111 -302
149 -577 257 -813 317 -49 13 -91 24 -93 25 -1 1 16 77 38 170 22 92 39 170
36 172 -6 6 -1226 -397 -1226 -405 1 -8 952 -754 956 -750 1 2 19 73 39 158
20 85 39 158 41 161 4 8 396 -104 589 -168 175 -57 391 -141 475 -183 175 -88
393 -277 493 -427 98 -147 154 -310 176 -506 58 -513 -130 -954 -526 -1236
-211 -151 -514 -260 -873 -316 -140 -22 -527 -31 -695 -16 -629 55 -1262 268
-1735 583 -58 39 -115 79 -126 90 l-22 19 260 527 c143 290 264 531 268 536 5
5 32 -11 62 -36 263 -224 746 -461 1149 -564 79 -21 145 -38 146 -39 1 -1 -12
-60 -29 -133 -17 -72 -29 -134 -27 -137 6 -5 1209 393 1221 404 6 6 -922 739
-943 743 -7 2 -26 -59 -49 -155 -20 -87 -39 -160 -42 -162 -6 -7 -422 104
-607 161 -378 118 -573 213 -749 366 -270 235 -372 473 -372 869 0 226 32 383
116 567 82 180 261 387 439 508 384 261 927 379 1540 334z"/>
</g>
</svg>
