<svg xmlns="http://www.w3.org/2000/svg" width="328.85" height="328.85"><path d="M164.36 255.36L152 276.86c-22.27 38.78-72.45 52.18-111.32 29.61-38.87-22.2-52.3-72.26-29.68-111.04L94.04 51.94A78.23 78.23 0 01120.9 24.1c13.07-8.46 28.27-12.69 43.82-12.69a83.44 83.44 0 0143.82 12.7c12.01 7.75 20.14 15.86 25.09 25.02a89.16 89.16 0 00-25.1-25.03c5.3 3.53 10.6 7.4 14.85 12.34a71.47 71.47 0 0111.66 15.51l83.05 143.49c22.26 38.78 8.83 88.84-29.69 111.04-38.87 22.21-89.05 8.82-111.31-29.6zm80.58-149.12l-25.8-44.78c-17.32-29.96-56.19-40.19-85.87-22.91-29.69 17.27-40.29 55.7-22.97 85.66l65.02 112.46 17.67 30.67c17.31 29.62 56.19 40.2 85.87 22.92 29.68-17.28 40.29-55.7 22.97-85.67zM91.2 56.88c0 .35 0 .35 0 0zm-4.6 12.7v.34c-.34 0 0-.35 0-.35z" fill="#5f84e1"/></svg>