<svg xmlns="http://www.w3.org/2000/svg" version="1.0" width="223.16" height="223.16" viewBox="0 0 167.37 167.37"><g fill="#305095"><path d="M.354 1.07c-.3.7-.4 38.4-.3 83.8l.3 82.5h167V.37l-83.3-.3c-66.1-.2-83.4 0-83.7 1zm128 46.3l.5 36.6c.4 29 .8 36.9 1.9 38.2.9 1.1 2.9 1.7 5.7 1.7h4.4v17.9l-5.3 1.1c-2.9.7-8.7 1.1-12.9.9-6.3-.4-8.1-.9-11.1-3.2-2-1.5-4.1-4.2-4.8-6.1l-1.2-3.4-6.1 4c-9.8 6.3-17.8 8.3-33.1 8.3-11.3 0-13.8-.3-18.9-2.4-6.9-2.8-14.8-9.7-17.9-15.6-1.5-2.9-2.2-6.5-2.5-13.1-.5-11 1.2-17.1 6.4-23.2 6.8-8 14.8-11.2 35.7-14.2 23.3-3.3 27-4 30.3-6.1 6.7-4.1 7.2-14 1-19.6-4.6-4.2-10.2-5.6-21.1-5.1-7.6.3-9.8.8-13.7 3-5 3-7.2 5.8-8.5 10.9l-.9 3.4c-8.567.198-17.134.399-25.7.6l.6-5.1c2.1-17.6 16-29.7 38.2-32.9 19.425-3.912 52.456.222 59 23.4z"/><path d="M98.354 86.37c-1.6.7-5.7 1.6-9 2-19 2-29 5-33.1 9.6-2.9 3.3-4.7 9.3-4 13.3.7 3.8 5.6 8.7 10.6 10.7 5.5 2.2 20.5 1.8 26-.7 6-2.8 11-7.1 12.6-11.1 1.5-3.4 2-25.4.7-25.2-.5 0-2.1.7-3.8 1.4z"/></g></svg>