<svg xmlns="http://www.w3.org/2000/svg" viewBox="0 0 100 88.6"><path fill="#111" d="M96.5 29.9c-1-1.4-2.3-2.5-3.7-3.7L66 5.2c-2.4-1.8-5-3.2-7.9-4a28.5 28.5 0 0 0-18.7.9c-2 .8-3.8 1.9-5.4 3.1l-26.8 21c-1 .7-2 1.9-2.9 2.8-.8.9-1.5 1.9-2.1 2.9v.1L.8 35.2c-.6 1.6-.8 3.4-.8 4.9v9c1.1 8 10 16.1 10 16.1a6 6 0 0 0 4 1.6 6 6 0 0 0 1.8 2.4l18 14.2A26 26 0 0 0 50 88.6a26 26 0 0 0 16-5.2l4-3a6 6 0 0 0 2.3-4.8v-7.1c0-.9-.3-1.7-.6-2.5-.4-.9-1-1.6-1.7-2.3L45 44.3l5-3.8 31.8 24.9a6.2 6.2 0 0 0 7.4 0l3.6-2.9a18 18 0 0 0 7.2-13.9v-8.5a16 16 0 0 0-.8-4.9 19 19 0 0 0-2.7-5.3z"/><path fill="#fff" d="M48.7 5.5c-1.3 0-2.6.3-3.8.6l-1.7.4c-2.1.6-4.1 1.7-5.9 3l-27.9 22a12 12 0 0 0-3.9 8.7 12 12 0 0 0 5.1 9.5l3.9 3 35-27.3c.4-.3.7-.4 1.1 0l35 27.3 3.8-3c3-2.2 5-5.7 5.1-9.4 0-3.4-1.5-6.6-4-8.8l-27.8-22-2.8-1.7a22.6 22.6 0 0 0-11.2-2.3ZM35.5 44.2l-16 12.5 17.8 13.8c3.6 2.7 8 4 12.6 4 4.6.1 9-1.3 12.7-4l3.5-2.7-30-23.5c-.2-.2-.4-.2-.6-.1z"/></svg>
