<svg xmlns="http://www.w3.org/2000/svg" width="24.203" height="24.203"><linearGradient id="a" gradientUnits="userSpaceOnUse" x1="1.87" y1="19.5" x2="14.31" y2="14.81"><stop offset="0" stop-color="#269c90"/><stop offset=".09" stop-color="#43aea4"/><stop offset=".18" stop-color="#58bbb2"/><stop offset=".27" stop-color="#65c3bb"/><stop offset=".35" stop-color="#69c6be"/></linearGradient><linearGradient id="b" gradientUnits="userSpaceOnUse" x1="2.26" y1="17.59" x2="9.61" y2=".94"><stop offset="0" stop-color="#d6de23"/><stop offset="0" stop-color="#d5de23"/><stop offset=".4" stop-color="#7fb842"/><stop offset=".51" stop-color="#7bb742"/><stop offset=".61" stop-color="#70b343"/><stop offset=".71" stop-color="#5cae44"/><stop offset=".81" stop-color="#41a645"/><stop offset=".91" stop-color="#1e9c47"/><stop offset=".98" stop-color="#009348"/></linearGradient><linearGradient id="c" gradientUnits="userSpaceOnUse" x1="10.52" y1=".02" x2="19.95" y2="23.1"><stop offset="0" stop-color="#4dbeed"/><stop offset=".4" stop-color="#289fd9"/><stop offset=".78" stop-color="#0b86ca"/><stop offset="1" stop-color="#007dc4"/></linearGradient><path d="M5.9 17.1H1.8c-1.5 0-1.9-1-1.6-1.8v.1c-.2.7.1 1 .3 1.5.7 1.4 2.9 5.4 2.9 5.4.2.5.6.7 1.2.7 1.2 0 3.2-1.3 3.2-1.3l7.4-4.6H5.9z" fill="url(#a)" transform="translate(-.097 .602)"/><path d="M7.4.1c-.8 0-1 .5-1.1.6L.2 15.2c-.3.8 0 1.9 1.6 1.9h4.1L10.6 6C9.3 3 8.4.8 8.4.8c-.1-.1-.3-.7-1-.7z" fill="url(#b)" transform="translate(-.097 .602)"/><path d="M14.8.6c-.1-.1-.3-.6-1-.6H7.4c-.7 0-.9.4-1 .5 0 0 .2-.5 1-.5.7 0 1 .6 1 .7 0 0 .9 2.2 2.2 5.2 2.8 6.6 7.2 17.1 7.2 17.1h6.5S14.9.8 14.8.6z" fill="url(#c)" transform="translate(-.097 .602)"/></svg>