<svg xmlns="http://www.w3.org/2000/svg" viewBox="14.671 3.8 132.458 123.6"><linearGradient id="a" x1="14.693" x2="147.145" y1="65.636" y2="65.636" gradientUnits="userSpaceOnUse"><stop offset="0" stop-color="#ff671f"/><stop offset="1" stop-color="#ffd300"/></linearGradient><path fill="url(#a)" d="M68.9 60 60 71.8l-6.7 8.8c-3.1 4.1-7.3 6.3-11.9 6.3h-8.9c-7.3 0-13.2-2.8-16-7.8-2.8-4.9-2.4-11.4 1.3-17.7l27.5-47.6c3.7-6.3 9-10 14.7-10 5.7 0 11.1 3.6 14.7 10l25.4 43.9-5.9 7.8-27.3-47.2c-2-3.5-4.5-5.5-6.9-5.5-2.4 0-4.9 2-6.9 5.5L25.6 65.9c-2 3.5-2.5 6.7-1.3 8.8 1.2 2.1 4.2 3.3 8.2 3.3h8.9c1.7 0 3.3-.9 4.7-2.8l4.9-6.5 12.4-16.5 3.8-5H52.7l5.7 7.6-5.6 7.5-9.4-12.4-.1-.2c-1.5-2.7-1.7-5.5-.3-7.8 1.3-2.3 3.9-3.6 6.9-3.6h20.2c3.1 0 5.6 1.3 6.9 3.6 1.3 2.3 1.2 5.2-.3 7.8l-.1.2L68.9 60zm76.4-7.9c-2.9-4.9-8.7-7.8-16-7.8h-8.9c-4.6 0-8.8 2.2-11.9 6.3l-6.7 8.8-8.9 11.8-7.6 10.1-.1.2c-1.5 2.7-1.7 5.5-.3 7.8 1.3 2.3 3.9 3.6 6.9 3.6H112c3.1 0 5.6-1.3 6.9-3.6 1.3-2.3 1.2-5.1-.3-7.8l-.1-.3-9.5-12.1-5.6 7.5 5.7 7.6H94.5l3.8-5 12.4-16.5 4.9-6.5c1.4-1.8 3-2.8 4.7-2.8h8.9c4 0 7 1.2 8.2 3.3 1.2 2.1.7 5.3-1.3 8.7L108.6 113c-2 3.5-4.5 5.5-6.9 5.5-2.4 0-4.9-2-6.9-5.5L67.6 65.7l-5.9 7.8 25.4 43.9c3.7 6.3 9 10 14.7 10 5.7 0 11.1-3.6 14.7-10L144 69.9c3.7-6.4 4.1-12.8 1.3-17.8z"/></svg>