<svg xmlns="http://www.w3.org/2000/svg" viewBox="0 0 36 36"><path fill="#fff" d="M32.62 28.5c0-9.62-.85-26.92-14.34-27.1C5.23 1.25 2.42 18.66 3.33 28.44a18.2 18.2 0 0 0 1.73 2.08c3.24 3.35 12.82 2.96 12.82 2.96s10.68 0 14.01-4.03c.25-.3.5-.62.73-.94z"/><path fill="#ff7800" d="M15.44 4.49a4.54 4.54 0 0 1 6.68 1.8l10.5 22.21A17.9 17.9 0 0 0 36 18.13a18 18 0 1 0-36-.25 17.9 17.9 0 0 0 3.33 10.55l.42-.1 6.86-1.5c.2-.05.3.21.12.31L5.06 30.5A17.93 17.93 0 0 0 17.88 36a17.96 17.96 0 0 0 14.01-6.56L14.71 11.36a4.54 4.54 0 0 1 .73-6.87zm3.23 20.41-11.06.96a1.95 1.95 0 1 1 .28-3.85l10.8 2.55c.2.04.17.32-.02.34zm-5.12-9.73 13.4 10.85c.16.13.02.37-.16.3l-16.13-6.11a2.94 2.94 0 1 1 2.89-5.04z"/></svg>