<svg xmlns="http://www.w3.org/2000/svg" width="34.573" height="34.573"><path fill="#ff7800" d="M32.52 23.233c-1.129-1.062-1.876-1.21-2.79-1.88-2.799-2.049-3.474-6.343-1.326-9.143.614-.801 1.378-1.365 2.238-1.937.893-.593 1.708-1.455 2.13-2.35.848-1.797.646-4.07-.669-5.766-1.252-1.614-3.22-2.456-5.37-2.06-1.014.187-1.868.607-2.728 1.375-.885.79-1.11 1.6-2.122 2.592-1.596 1.564-3.51 2.33-5.776 2.176-1.11-.076-2.048-.34-3.164-.97-1.2-.677-1.67-1.488-2.594-1.7-.96-.219-2.03.05-2.67.785-.874 1.004-.759 1.939-.379 3.138.36 1.135.666 2.235.726 3.434a10.51 10.51 0 01-.414 3.498c-.613 2.068-2.12 4.01-3.566 5.288-1.19 1.055-2.033 1.223-2.797 1.96-.742.716-1.225 1.7-1.225 2.814a3.938 3.938 0 003.208 3.873c1.43.265 2.792-.386 3.217-.52 2.967-.935 6.692-.82 9.384-.035 2.226.649 4.152 1.799 5.948 3.254.864.7 1.52 1.642 2.428 2.29 2.337 1.667 6.371 1.991 8.951-1.335 1.747-2.251 2.167-6.138-.64-8.781" fill-rule="evenodd"/><path fill="#fff" d="M21.399 11.087c-.87 0-1.205.687-1.205 1.186v.923c-.898-1.208-2.112-2.012-3.77-2.012-1.353 0-2.507.544-3.462 1.634-.955 1.09-1.432 2.405-1.432 3.946 0 1.534.477 2.847 1.432 3.937.955 1.095 2.11 1.642 3.462 1.642 1.777 0 3.007-.967 3.77-2.02v.992c0 .445.358 1.152 1.195 1.152.828 0 1.178-.721 1.178-1.187v-9.007c0-.764-.655-1.186-1.167-1.186m-4.325 9.076c-1.813 0-3.12-1.654-3.12-3.436 0-1.881 1.346-3.427 3.12-3.427 1.916 0 3.12 1.716 3.12 3.427 0 1.81-1.285 3.436-3.12 3.436" fill-rule="evenodd"/></svg>