<svg xmlns="http://www.w3.org/2000/svg" width="188.264" height="188.264"><defs><clipPath clipPathUnits="userSpaceOnUse" id="a"><path d="M0 288.849h487.063V0H0z"/></clipPath><clipPath clipPathUnits="userSpaceOnUse" id="b"><path d="M0 288.849h487.063V0H0z"/></clipPath></defs><path d="M92.481 94.587l18.815 75.948c.575 3.505-2.459 5.353-5.49 5.353h-6.049l.478 6.13c.22 2.827 2.518 5.05 5.318 5.05h5.438c2.756 0 5.026-2.15 5.314-4.908l2.016-25.708.003-.02.019-.179a.633.633 0 01.618-.474c.354 0 .639.273.639.62v.033l2.024 25.57c.21 2.833 2.51 5.066 5.319 5.066h5.437c2.804 0 5.1-2.213 5.319-5.04l2.006-25.576.004-.02.018-.179a.643.643 0 01.621-.474c.35 0 .633.273.633.62v.033h.007l2.037 25.75c.29 2.746 2.558 4.886 5.306 4.886h5.433c2.82 0 5.125-2.241 5.328-5.088l1.921-25.727a.611.611 0 01.586-.474c.326 0 .596.273.596.62v.033h.006l1.863 25.579c.22 2.834 2.519 5.057 5.323 5.057h2.344c2.948 0 5.34-2.457 5.34-5.5V80.364c0-3.037-2.392-5.501-5.34-5.501zm-10.56 81.301v5.68c0 3.043 2.394 5.5 5.342 5.5h2.34c2.752 0 5.024-2.15 5.309-4.908.019.01.03.023.03.023l.497-6.295z" fill="#bd1d1e"/><path d="M92.481 94.587L16.533 113.4c-3.505.575-5.353-2.458-5.353-5.489v-6.05l-6.13.478c-2.827.22-5.05 2.519-5.05 5.319v5.437c0 2.756 2.15 5.027 4.908 5.315l25.708 2.016.02.002.179.019a.633.633 0 01.474.619.626.626 0 01-.62.638h-.033l-25.57 2.024C2.232 123.94 0 126.24 0 129.048v5.437c0 2.804 2.213 5.1 5.04 5.319l25.576 2.007.02.004.179.017c.268.07.474.32.474.621 0 .351-.273.634-.62.634h-.033v.006l-25.75 2.038C2.14 145.42 0 147.688 0 150.436v5.433c0 2.82 2.241 5.126 5.088 5.328l25.727 1.922c.268.069.474.296.474.585a.607.607 0 01-.62.596h-.033v.007l-25.579 1.862C2.223 166.39 0 168.688 0 171.492v2.344c0 2.948 2.457 5.34 5.5 5.34h101.204c3.037 0 5.501-2.392 5.501-5.34zM11.18 84.027H5.5c-3.043 0-5.5 2.393-5.5 5.341v2.34c0 2.752 2.15 5.024 4.908 5.31a.126.126 0 01-.023.029l6.295.497z" fill="#408333"/><path d="M95.783 93.677L76.968 17.73c-.575-3.505 2.459-5.353 5.49-5.353h6.049l-.478-6.13c-.22-2.827-2.518-5.05-5.318-5.05h-5.438c-2.756 0-5.026 2.15-5.314 4.908l-2.016 25.708-.003.02-.019.179a.633.633 0 01-.618.474.626.626 0 01-.639-.62v-.033L66.64 6.262c-.21-2.833-2.51-5.066-5.319-5.066h-5.437c-2.804 0-5.1 2.213-5.319 5.04L48.56 31.812l-.004.02-.018.179a.643.643 0 01-.621.474.624.624 0 01-.633-.62v-.033h-.007l-2.037-25.75c-.29-2.746-2.558-4.886-5.306-4.886H34.5c-2.82 0-5.125 2.241-5.328 5.088l-1.921 25.727a.611.611 0 01-.586.474.607.607 0 01-.596-.62v-.033h-.006L24.2 6.253c-.22-2.834-2.519-5.057-5.323-5.057h-2.344c-2.948 0-5.34 2.457-5.34 5.5V107.9c0 3.037 2.392 5.501 5.34 5.501zm10.56-81.301v-5.68c0-3.043-2.394-5.5-5.342-5.5h-2.34c-2.752 0-5.024 2.15-5.309 4.908a.126.126 0 01-.03-.023l-.497 6.295z" fill="#e89a34"/><path d="M95.783 93.677l75.948-18.814c3.505-.575 5.353 2.458 5.353 5.489v6.05l6.13-.478c2.827-.22 5.05-2.519 5.05-5.319v-5.437c0-2.756-2.15-5.027-4.908-5.315l-25.708-2.016-.02-.002-.179-.019a.633.633 0 01-.474-.619c0-.353.273-.638.62-.638h.033l25.57-2.024c2.833-.211 5.066-2.511 5.066-5.319v-5.437c0-2.804-2.213-5.1-5.04-5.319l-25.576-2.007-.02-.004-.179-.017a.643.643 0 01-.474-.621c0-.351.273-.634.62-.634h.033v-.006l25.75-2.038c2.746-.289 4.886-2.557 4.886-5.305v-5.433c0-2.82-2.241-5.126-5.088-5.328l-25.727-1.922a.611.611 0 01-.474-.585c0-.327.273-.596.62-.596h.033v-.007l25.579-1.862c2.834-.22 5.057-2.519 5.057-5.323v-2.344c0-2.948-2.457-5.34-5.5-5.34H81.56c-3.037 0-5.501 2.392-5.501 5.34zm81.301 10.56h5.68c3.043 0 5.5-2.393 5.5-5.341v-2.34c0-2.752-2.15-5.024-4.908-5.31.01-.018.023-.029.023-.029l-6.295-.497z" fill="#0974a1"/></svg>