<svg xmlns="http://www.w3.org/2000/svg" viewBox="0 0 42.85 48.25"><path fill="#851f83" fill-rule="evenodd" d="M23.871 33.707h-4.879c-.8 0-1.453.653-1.453 1.452v5.664c0 .456.373.831.83.831h.173v6.599h2.514v-6.258h.75v6.258h2.514v-6.599h.172c.457 0 .83-.375.83-.831v-5.664c0-.799-.652-1.452-1.45-1.452m-4.333-1.755c.498.463 1.16.753 1.892.753h.002c.709 0 1.374-.272 1.891-.753.026-.024.055-.042.08-.066a2.768 2.768 0 0 0 .815-1.972 2.792 2.792 0 0 0-2.79-2.787c-.745 0-1.446.29-1.972.817a2.774 2.774 0 0 0 .082 4.008"/><path fill="#ed1d24" fill-rule="evenodd" d="M19.62 10.842h3.635c.597 0 1.083-.488 1.083-1.083V5.537a.619.619 0 0 0-.618-.618h-.13v-4.92h-1.872v4.665h-.559V-.001h-1.873v4.92h-.13a.62.62 0 0 0-.618.618V9.76c0 .595.487 1.083 1.082 1.083m3.23 1.307a2.07 2.07 0 0 0-1.41-.562h-.003c-.528 0-1.025.202-1.41.562-.017.017-.04.03-.06.05a2.08 2.08 0 0 0 1.474 3.546 2.06 2.06 0 0 0 1.469-.61 2.065 2.065 0 0 0-.06-2.986"/><path fill="#0063a5" fill-rule="evenodd" d="M10.842 23.232v-3.637c0-.596-.486-1.083-1.082-1.083H5.538a.621.621 0 0 0-.619.62v.128H0v1.874h4.664v.559H0v1.874h4.92v.13a.62.62 0 0 0 .618.617H9.76c.596 0 1.082-.486 1.082-1.082m1.309-3.229a2.06 2.06 0 0 0-.561 1.41v.003c0 .528.202 1.023.56 1.41.017.018.032.04.05.059a2.081 2.081 0 0 0 3.548-1.474c0-.554-.218-1.076-.61-1.468a2.065 2.065 0 0 0-2.987.06"/><path fill="#00843c" fill-rule="evenodd" d="M32.011 19.594v3.637c0 .597.487 1.084 1.083 1.084h4.222a.62.62 0 0 0 .618-.62v-.128h4.92v-1.874h-4.665v-.559h4.665V19.26h-4.92v-.129c0-.34-.28-.618-.618-.618h-4.222c-.596 0-1.083.487-1.083 1.081m-1.307 3.229c.345-.371.56-.864.56-1.41v-.002c0-.528-.201-1.025-.56-1.41-.018-.019-.032-.042-.05-.06a2.073 2.073 0 0 0-1.47-.607 2.083 2.083 0 0 0-2.078 2.081c0 .554.217 1.076.61 1.469a2.067 2.067 0 0 0 2.987-.061"/><path fill="#ec008c" fill-rule="evenodd" d="m27.632 12.646.018.018 2.534 2.534.019.02c.421.42 1.11.42 1.532 0l.632-.632 1.065-1.065 1.287-1.288a.622.622 0 0 0 0-.875l-.091-.092 3.479-3.478-1.326-1.325-3.297 3.297-.395-.395 3.3-3.298-1.326-1.326-3.479 3.479-.092-.09a.618.618 0 0 0-.875 0L29.33 9.417l-1.066 1.065-.631.632a1.084 1.084 0 0 0 0 1.53m1.357 3.21a2.073 2.073 0 0 0-.6-1.394l-.003-.001a2.052 2.052 0 0 0-1.392-.6c-.027-.001-.052-.008-.078-.008a2.082 2.082 0 0 0-1.468 3.55c.393.392.917.61 1.471.608a2.072 2.072 0 0 0 2.07-2.155"/><path fill="#a5cf4d" fill-rule="evenodd" d="m15.236 12.657-.018.019-2.536 2.534-.018.02c-.42.42-1.11.42-1.531 0l-.633-.632-1.064-1.066-1.289-1.288a.62.62 0 0 1 .001-.875l.091-.091-3.478-3.479 1.325-1.325 3.298 3.298.395-.394-3.299-3.3 1.325-1.324 3.48 3.478.09-.09a.62.62 0 0 1 .876 0l1.287 1.287 1.066 1.066.632.632c.42.42.421 1.11 0 1.53m-1.359 3.209c.016-.524.23-1.022.6-1.394l.002-.002c.373-.373.868-.58 1.394-.6.026 0 .051-.007.077-.007a2.08 2.08 0 0 1-.003 4.157 2.07 2.07 0 0 1-2.07-2.154"/><path fill="#00bce2" fill-rule="evenodd" d="m27.632 30.205.018-.019 2.534-2.534.019-.02c.421-.42 1.11-.42 1.532 0l.632.632 1.065 1.066 1.287 1.288c.24.24.24.634 0 .875l-.091.091 3.479 3.479-1.326 1.325-3.297-3.298-.395.395 3.3 3.299-1.326 1.324-3.479-3.478-.092.09a.622.622 0 0 1-.875 0l-1.287-1.287-1.066-1.066-.631-.632a1.084 1.084 0 0 1 0-1.53m1.357-3.209a2.07 2.07 0 0 1-.6 1.394l-.003.002a2.06 2.06 0 0 1-1.392.6c-.027 0-.052.007-.078.007a2.082 2.082 0 0 1-1.468-3.55c.39-.39.92-.61 1.471-.607a2.07 2.07 0 0 1 2.07 2.154"/><path fill="#faa61a" fill-rule="evenodd" d="m15.236 30.205-.018-.019-2.536-2.534-.018-.02c-.42-.42-1.11-.42-1.531 0l-.633.632-1.064 1.066-1.289 1.288a.62.62 0 0 0 .001.875l.091.091-3.478 3.479 1.325 1.325 3.298-3.298.395.395-3.299 3.299 1.325 1.324 3.48-3.478.09.09c.242.24.636.24.876 0l1.287-1.287 1.066-1.066.632-.632c.42-.42.421-1.11 0-1.53m-1.359-3.209c.018.507.215 1.008.6 1.394l.002.002c.373.373.868.58 1.394.6.026 0 .051.007.077.007a2.08 2.08 0 0 0-.003-4.157 2.07 2.07 0 0 0-2.07 2.154"/></svg>