<svg xmlns="http://www.w3.org/2000/svg" width="474.473" height="474.473"><path d="M31.413 423.707c-5.863-.67-10.863-4.205-13.56-9.585-1.11-2.212-1.72-4.479-1.963-7.28L0 151.618c.973-10.675 8.859-20.331 18.728-22.932 3.305-.87 340.563-78.801 341.57-78.927 4.325-.54 8.551.426 12.043 2.75 4.003 2.665 6.772 7.023 7.676 12.079.24 1.342 16.19 253.259 16.19 255.69-.004 6.471-2.864 13.057-7.856 18.085-2.9 2.922-6.508 5.14-10.097 6.206-1.18.35-339.948 78.68-341.44 78.947-1.408.252-4.052.346-5.401.191z" fill="#515766"/><path d="M169.603 424.806c77.538-19.562 155.171-34.968 217.052-50.485 18.875-5.585 34.136-21.819 38.947-41.43 1.168-4.757 1.552-7.99 1.544-12.967l-11.688-188.807c.181-.181 14.973-.108 16.451.082 7.568.971 14.183 5.567 18.119 12.584 1.01 1.8 2.218 4.948 2.402 7.064l6.68 76.772c.013.142-1.981.17-9.025.17-5.136 0-9.483.06-10.182.139-1.885.212-3.241.612-5.013 1.48-4.108 2.011-6.96 5.638-8.022 10.198-.169.725-.228 1.58-.223 3.222.006 1.995.046 2.381.373 3.586.89 3.275 2.85 6.208 5.491 8.216 1.228.933 3.604 2.08 5.227 2.522l1.354.37 11.269.071c6.198.04 11.31.114 11.362.165l12.752 148.474c-.066 9.82-9.966 17.31-16.685 18.627z" fill="#a1a6b3"/></svg>