<svg xmlns="http://www.w3.org/2000/svg" viewBox="0 0 8.88 10"><g id="a"><path d="M2.25 4.8v-.74c0-.12-.1-.22-.23-.22h-.87c-.07-.01-.13.05-.13.12v.03H0v.39h.96v.12H0v.38h1.02v.03c-.01.07.05.13.12.13h.88c.12 0 .23-.1.23-.23"/><circle cx="2.83" cy="4.43" r=".43"/></g><use fill="#0063a5" href="#a"/><use fill="#a5cf4d" href="#a" transform="rotate(45 4.44 4.44)"/><use fill="#ed1d24" href="#a" transform="rotate(90 4.44 4.44)"/><use fill="#ec008c" href="#a" transform="rotate(135 4.44 4.44)"/><use fill="#00843c" href="#a" transform="rotate(180 4.44 4.44)"/><use fill="#00bce2" href="#a" transform="rotate(-135 4.44 4.44)"/><use fill="#851f83" href="#a" transform="rotate(-90 4.26 5.74) scale(1.3394)"/><use fill="#faa61a" href="#a" transform="rotate(-45 4.44 4.44)"/></svg>