<svg version="1.2" xmlns="http://www.w3.org/2000/svg" viewBox="0 0 1107 1100" width="1100" height="1100"><defs><clipPath clipPathUnits="userSpaceOnUse" id="cp1"><path d="M260.14 1.87h599.82v1099.3H260.14z"/></clipPath><clipPath clipPathUnits="userSpaceOnUse" id="cp2"><path d="M1333.45 438.13h1355.16v498.98H1333.45z"/></clipPath></defs><style>.s0{fill:#f08231}.s1{fill:#231f20}</style><g id="surface1"><g id="Clip-Path" clip-path="url(#cp1)"><path class="s0" d="M848 418.9 668.6 722.6l-70.4 372.7c-1.3 6.9-12.4 8.2-15.1 1.3l-321.5-726c-2.8-8.3 5.5-15.2 12.4-11.1l183.5 107.7-75.9-303.7c-1.4-8.3 8.3-13.8 13.8-8.3l190.4 162.9-22.1-307.8c0-8.3 9.7-11.1 15.2-5.6l262.2 317.5c22.1 27.6 24.8 66.3 6.9 96.7z" id="Layer"/></g><path class="s1" d="M667.2 718.4v2.8l-1.4 2.7M1891.2 266.2v2.8l-1.4 2.8"/><path d="m599.6 552.8-144.9-85.6-75.8-303.7c-1.4-8.3 8.2-13.8 13.8-8.3l191.7 162.9z" style="fill:#df6451"/><path d="m664.5 722.6 1.3-1.4-70.3 372.7c-1.4 6.9-12.4 8.3-15.2 1.4L258.8 369.2c-2.7-8.3 5.5-15.2 12.4-11.1l184.9 109.1L572 933.7c1.4 8.3 12.4 9.7 15.2 1.4z" style="fill:#f4b933"/><path d="M572 933.7 456.1 467.2 601 552.8l15.2 225c0 8.2 11 11 15.2 4.1l35.8-59.3-80 212.5c-2.8 8.3-13.8 6.9-15.2-1.4z" style="fill:#d73752"/><path class="s0" d="M846.6 417.5 667.2 721.2v-2.8l73.2-193.2c12.4-33.2 2.7-70.4-23.5-92.5L584.4 318.1l-22-307.8c0-6.9 9.6-11.1 13.8-5.6l262.1 317.5c22.1 27.6 26.2 66.3 8.3 95.3z"/><path d="m601 554.1-16.6-234.6L716.9 434c26.2 23.5 35.9 59.4 23.5 92.5l-73.2 193.3 11.1-56.6c5.5-34.5-9.7-69-40-87z" style="fill:#d73753"/><path d="m676.9 662.7-11.1 56.6-1.3 4.2-34.5 59.3c-4.2 6.9-15.2 4.2-15.2-4.1l-15.2-225 38.7 23.5c30.3 17.9 46.9 52.4 38.6 85.5z" style="fill:#c94361"/></g></svg>