<svg width="36" height="36" fill="none" xmlns="http://www.w3.org/2000/svg"><path d="M3.6.61a1.563 1.563 0 00-2.21 0l-.916.908a1.53 1.53 0 000 2.191L14.874 18 .474 32.29a1.53 1.53 0 000 2.191l.915.908c.616.61 1.595.61 2.211 0L21.11 18 3.6.61z" fill="#FAA74A"/><path fill-rule="evenodd" clip-rule="evenodd" d="M34.595.61l.915.908a1.53 1.53 0 010 2.191L23.305 15.824l-3.126-3.099L32.384.61a1.563 1.563 0 012.21 0zm0 34.78l.915-.909a1.53 1.53 0 000-2.19L23.305 20.174l-3.126 3.1 12.205 12.114c.616.61 1.595.61 2.21 0z" fill="#1E3860"/></svg>