<svg xmlns="http://www.w3.org/2000/svg" version="1.1" id="Layer_1" x="0" y="0" xml:space="preserve" width="63.85" height="63.85"><style type="text/css" id="style2373">.st1{fill:#394554}</style><g id="g3011" transform="translate(-84.531 -2.075)"><path id="Shape_1_" d="M90.8 2.9c-1.1-1.1-2.9-1.1-3.9 0l-1.6 1.6c-1.1 1.1-1.1 2.9 0 3.9L110.9 34 85.3 59.6c-1.1 1.1-1.1 2.9 0 3.9l1.6 1.6c1.1 1.1 2.9 1.1 3.9 0L121.9 34z" fill="#4ba9d6"/><path class="st1" d="M147.6 4.5L146 2.9c-1.1-1.1-2.9-1.1-3.9 0l-21.7 21.7 5.6 5.6 21.7-21.7c1-1.2 1-3-.1-4z" id="path2376"/><path class="st1" d="M147.6 63.5l-1.6 1.6c-1.1 1.1-2.9 1.1-3.9 0l-21.7-21.7 5.6-5.6 21.7 21.7c1 1.2 1 2.9-.1 4z" id="path2380"/></g></svg>