<svg xmlns="http://www.w3.org/2000/svg" viewBox="0 0 137.49 129.55"><defs><linearGradient id="a" x1="-396.15" x2="-423.19" y1="313.13" y2="233.24" gradientTransform="matrix(1.56 0 0 -1.56 679.64 498.86)" gradientUnits="userSpaceOnUse"><stop offset="0" stop-color="#114a8b"/><stop offset="1" stop-color="#0669bc"/></linearGradient><linearGradient id="b" x1="-387.7" x2="-393.96" y1="275.9" y2="273.79" gradientTransform="matrix(1.56 0 0 -1.56 679.64 498.86)" gradientUnits="userSpaceOnUse"><stop offset="0" stop-opacity=".3"/><stop offset=".07" stop-opacity=".2"/><stop offset=".32" stop-opacity=".1"/><stop offset=".62" stop-opacity=".05"/><stop offset="1" stop-opacity="0"/></linearGradient><linearGradient id="c" x1="-390.95" x2="-361.26" y1="315.53" y2="236.45" gradientTransform="matrix(1.56 0 0 -1.56 679.64 498.86)" gradientUnits="userSpaceOnUse"><stop offset="0" stop-color="#3ccbf4"/><stop offset="1" stop-color="#2892df"/></linearGradient></defs><path fill="url(#a)" d="M45.84 0h40.68L44.29 125.14a6.5 6.5 0 0 1-6.15 4.41H6.48A6.48 6.48 0 0 1 .34 121L39.69 4.41A6.5 6.5 0 0 1 45.84 0"/><path fill="#0078d4" d="M104.96 83.93H40.44a2.98 2.98 0 0 0-2.04 5.17l41.46 38.69a6.5 6.5 0 0 0 4.45 1.75h36.53z"/><path fill="url(#b)" d="M45.84 0a6.4 6.4 0 0 0-6.16 4.5L.39 120.9a6.46 6.46 0 0 0 6.1 8.65h32.48a7 7 0 0 0 5.33-4.53l7.83-23.09 27.98 26.1a6.6 6.6 0 0 0 4.17 1.52h36.4l-15.96-45.62H58.19L86.67 0z"/><path fill="url(#c)" d="M97.8 4.41A6.5 6.5 0 0 0 91.66 0H46.32a6.5 6.5 0 0 1 6.14 4.41L91.81 121a6.48 6.48 0 0 1-6.14 8.55h45.34a6.48 6.48 0 0 0 6.14-8.55z"/></svg>