<svg xmlns="http://www.w3.org/2000/svg" width="104.39" height="104.39" viewBox="0 0 27.62 27.62" xmlns:v="https://vecta.io/nano"><path d="M0 25.7h27.62V1.92H0z" fill="#f48da1"/><path d="M17.96 16.57l-3.12.22c-.46.08-.9.2-1.38.16-.82-.02-1.66.07-2.45-.2-1 .01-1.96-.3-2.94-.5-.72-.18-1.41-.09-1.61-.92L5.85 13c.08-.63-.36-1.14-.44-1.65l.02-4.08c.15-.66.3-1.32.67-1.9.24-.76.66-1.59 1.24-2.02.28-.12.9-.26 1.33-.28h1.57c.83.32 1.75.14 2.62.19l6.89-.03c.4-.12.78-.2 1.21-.16.38 0 .77-.07 1.09.2.8.35-.05 1.57.36 2.27.02.7.24 1.39.2 2.1l.34 2.12c-.07.61.51 1.05.42 1.66.01.55-.04 1.1.08 1.64-.04.81.06 1.7-.44 2.4-.4.35-1.27.43-1.51.54-.6-.04-1.17.04-1.75.15-.6.04-1.39.07-1.79.42" fill="#293896"/><path d="M8.3 4.2c.23-.54.87-.34 1.33-.37.38-.04.74.04 1.07.19.57-.03 1.15.02 1.7.22.6.13 1.22.31 1.85.35.64 0 1.28-.06 1.9.18.54 0 1.06-.24 1.6-.18.5.01 1-.02 1.48-.19.6-.24 1.4-.14 1.87.32.26.3.1.73.15 1.1.17.42-.04.89 0 1.34l.04 2.51c.13.31.18.62.15.95l.02 3.07c-.33.6-1.03.75-1.64.9-.54.31-1.18.25-1.74.46-.64.1-1.28.17-1.9.38-.71.01-1.43-.04-2.15.03l-1.57.35c-.52.08-1-.15-1.48-.2-.49 0-.99.05-1.45-.15-.72 0-1.57-.15-2-.8-.3-.29-.15-.8-.19-1.2V9.64c.24-.63.14-1.32.39-1.93 0-.52-.06-1.05.16-1.54.1-.49-.1-1.02.14-1.48.08-.15.07-.44.28-.48z" fill="#fff"/><path d="M25.11 22.65c-1.04.57-2.27.33-3.4.38-1.34.03-2.68-.1-4 .18-.88.04-1.75 0-2.63-.07-1.07.23-2.21-.12-3.25.33-.86.33-1.83-.06-2.69.31-.92.3-1.9.27-2.85.53-.93-.01-1.66.65-2.6.66-.82.34-2.16.1-2.34-.91a3.28 3.28 0 0 1-.2-1.4c-.48-.95.04-1.9.96-2.3.79-.37 1.46-1 2.36-1.13l2.61-.7 2.68-.66c.93-.32 1.89-.33 2.83-.48.65-.11 1.36-.06 2-.25.64 0 1.27.01 1.9-.1.65.03 1.27-.15 1.92-.1.66.06 1.26-.28 1.92-.18l4.07.04c.93.02 1.22.97 1.1 1.74-.08.88.22 1.72.19 2.6.08.6-.05 1.14-.58 1.51" fill="#293896"/><path d="M5.22 21.51c.19 0 .38-.19.38-.57 0-.19-.2-.38-.38-.38-.4 0-.58.2-.58.38 0 .38.19.57.58.57zm2.7 1.33c.2 0 .58-.19.58-.38 0-.38-.39-.57-.58-.57-.2 0-.39.2-.39.57 0 .57.2.38.39.38zm-1.55.38c.2 0 .39-.19.39-.57 0-.19-.2-.38-.39-.38s-.38.2-.38.38c0 .38.2.57.38.57zm6.19-2.09c.19 0 .38-.19.38-.38s-.2-.38-.38-.38c-.4 0-.58 0-.58.38.19.2.19.38.58.38zm-2.71.57c.2 0 .39-.19.39-.38s-.2-.38-.39-.38c-.2 0-.39.2-.39.38 0 .2.2.38.4.38zm-1.35-.19c.38 0 .58-.38.58-.57s-.2-.38-.58-.38c-.2 0-.39.2-.39.38 0 .2 0 .38.39.57zm2.9-1.71c.19 0 .38 0 .38-.38 0-.19-.19-.38-.38-.38-.39 0-.58.2-.58.38 0 .38.38.38.58.38zm1.35-.76c.2 0 .38-.19.38-.38s-.19-.38-.38-.38c-.39 0-.58.19-.58.38s.2.38.58.38z" fill="#fff"/><path d="M4.64 23.22c.19 0 .38-.19.38-.38s-.2-.38-.38-.38c-.2 0-.2.2-.2.38 0 .2 0 .38.2.38zm4.06-3.61c.18 0 .38-.19.38-.38s-.2-.38-.39-.38c-.2 0-.2.19-.2.38 0 .2 0 .38.2.38zm-1.55 1.52c.19 0 .38 0 .38-.19s-.19-.38-.38-.38c-.2 0-.39.2-.39.38 0 .2.2.2.39.2zm4.25.77c.19 0 .19 0 .19-.2 0-.19 0-.38-.2-.38-.19 0-.38.2-.38.38 0 .2.2.2.39.2zm6.56.18c.39 0 .78-.19.78-.57s-.39-.76-.78-.76c-.38 0-.58.38-.58.76s.39.57.58.57zM17.2 20c.38 0 .76-.39.76-.77s-.38-.57-.77-.57c-.2 0-.58.19-.58.57s.39.76.58.76zm3.85 0c.39 0 .78-.2.78-.58s-.39-.57-.78-.57c-.19 0-.58.19-.58.57s.4.57.58.57zm-1.35 1.32c.39 0 .77-.38.77-.76 0-.19-.38-.57-.77-.57-.38 0-.58.38-.58.57 0 .38.2.76.58.76z" fill="#fff203"/><g fill="none" stroke="#293896" stroke-width=".1777974" stroke-miterlimit="10"><path d="M10.62 7.44h.97V6.3h-.97zm7.73-.95h.97v-.95h-.97zm1.35 4.75h1.16v-.95H19.7zm-4.63.96h1.16v-.96h-1.16zm-2.13-.2h.97v-.95h-.97zm-3.67 1.33l.39-.95-.97-.38-.38.95z"/><path d="M10.82 8.2l-1.36 3.23 4.06-1.33 5.22-3.04v-.57"/><path d="M11.2 8.01l3.67.57 3.87-1.33 1.54 1.9-2.12.38m-.2-.19l-2.5 1.33-.59-1.7m-1.35 1.33l1.93.18"/><path d="M15.45 10.48l-4.44-2.47v-.57m7.73-.38l-.58 1.9m2.12.76v.38M9.27 11.81l-.2.38m4.26-1.52v.38m2.32 0v.2"/></g><path d="M18.74 7.82c.38 0 .58-.19.58-.38 0-.2-.2-.57-.58-.57-.2 0-.39.38-.39.57s.2.38.39.38zm-5.41 2.85c.38 0 .58-.19.58-.38 0-.38-.2-.57-.58-.57-.2 0-.39.2-.39.57 0 .2.2.38.39.38zm1.54-1.52c.2 0 .58-.19.58-.38 0-.38-.38-.57-.58-.57-.19 0-.38.19-.38.57 0 .2.19.38.38.38z" fill="#ef4056"/><path d="M9.66 12c.2 0 .38-.19.38-.38 0-.38-.19-.57-.38-.57-.39 0-.58.2-.58.57 0 .2.2.38.58.38zm8.5-2.09c.19 0 .38-.19.38-.57 0-.19-.19-.38-.38-.38-.2 0-.58.2-.58.38 0 .38.38.57.58.57z" fill="#f386a7"/><path d="M11.01 8.58c.39 0 .58-.19.58-.38 0-.38-.2-.57-.58-.57-.2 0-.39.19-.39.57 0 .19.2.38.39.38zm9.08 1.33c.38 0 .58-.19.58-.57 0-.19-.2-.38-.58-.38-.2 0-.39.2-.39.38 0 .38.2.57.39.57zm-4.44 1.14c.19 0 .38-.19.38-.57 0-.19-.2-.38-.38-.38-.2 0-.58.2-.58.38 0 .38.38.57.58.57z" fill="#fff203"/></svg>