<svg xmlns="http://www.w3.org/2000/svg" viewBox="0 0 114.02 64.98" fill="none"><path d="M99.7315 40.3368C99.7803 39.7492 99.8096 39.1521 99.8096 38.5456C99.8096 26.5089 89.7544 16.7469 77.3563 16.7469C64.9582 16.7469 54.903 26.5089 54.903 38.5456C54.903 38.6403 54.903 38.7446 54.903 38.8394L46.7905 38.9531C46.8589 38.4129 46.8881 37.8632 46.8881 37.304C46.8881 29.6839 40.5231 23.5045 32.6742 23.5045C24.8253 23.5045 18.4603 29.6839 18.4603 37.304C18.4603 39.2469 18.8801 41.095 19.622 42.7726C8.97136 43.2465 0.487915 51.7764 0.487915 62.2397C0.487915 72.9968 9.46923 81.7257 20.5592 81.7257H92.605C104.701 81.7257 114.512 72.2007 114.512 60.4579C114.531 51.1224 108.342 43.1991 99.7315 40.3368Z" fill="white"/><path fill-rule="evenodd" clip-rule="evenodd" d="M54.4158 38.3724C54.5117 26.1538 64.7484 16.2732 77.3565 16.2732C90.0242 16.2732 100.298 26.2473 100.298 38.5457C100.298 39.0412 100.279 39.5295 100.246 40.0103C108.862 43.034 115.02 51.0432 115 60.459C114.999 72.4631 104.97 82.1997 92.6052 82.1997H20.5594C9.1997 82.1997 0 73.2585 0 62.2398C0 51.7466 8.32943 43.1517 18.9171 42.3406C18.3106 40.7745 17.9724 39.0776 17.9724 37.3041C17.9724 29.4224 24.556 23.0308 32.6744 23.0308C40.7929 23.0308 47.3765 29.4224 47.3765 37.3041C47.3765 37.6961 47.3625 38.0854 47.331 38.4717L54.4158 38.3724ZM77.3565 17.221C65.228 17.221 55.3913 26.7708 55.3913 38.5457V39.3066L46.238 39.4349L46.3063 38.8955C46.3718 38.3775 46.4002 37.8474 46.4002 37.3041C46.4002 29.9458 40.2538 23.9785 32.6744 23.9785C25.0951 23.9785 18.9486 29.9458 18.9486 37.3041C18.9486 39.1801 19.3539 40.9648 20.0708 42.5857L20.3489 43.2148L19.6446 43.2461C9.25336 43.7084 0.976231 52.0309 0.976231 62.2398C0.976231 72.7354 9.73917 81.252 20.5594 81.252H92.6052C104.431 81.252 114.024 71.9391 114.024 60.458V60.457C114.043 51.331 107.993 43.5839 99.5736 40.7853L99.2147 40.666L99.2452 40.2989C99.2931 39.7217 99.3217 39.1375 99.3217 38.5457C99.3217 26.7708 89.4851 17.221 77.3565 17.221Z" fill="#D8D9D9"/><path d="M82.4233 38.6973L83.6729 52.3641L86.9238 51.132L83.9072 38.4698L82.4233 38.6973Z" fill="#EEEEEE"/><path d="M32.6255 38.7447L31.3662 55.3969L27.7542 54.3165L31.1319 38.4698L32.6255 38.7447Z" fill="#EEEEEE"/><path d="M29.9507 61.4815H85.0882L82.4524 9.80937L84.4243 0.00947765L72.3093 0V9.80937H63.0254V0H52.0135V9.80937H42.7198V0L30.6145 0.00947765L32.5865 9.80937L29.9507 61.4815Z" fill="#F69073"/><path d="M39.6544 24.6798C39.6544 24.803 39.6544 24.9168 39.6544 25.04C39.6544 34.6219 47.6497 42.3841 57.5194 42.3841C67.3891 42.3841 75.3844 34.6219 75.3844 25.04C75.3844 24.9168 75.3844 24.7935 75.3844 24.6798H39.6544Z" fill="white"/><path d="M57.5194 39.825C61.5092 39.825 64.7435 36.685 64.7435 32.8116C64.7435 28.9381 61.5092 25.7981 57.5194 25.7981C53.5296 25.7981 50.2953 28.9381 50.2953 32.8116C50.2953 36.685 53.5296 39.825 57.5194 39.825Z" fill="#383938"/><path d="M60.3602 75.802C66.4041 75.802 71.3037 71.0453 71.3037 65.1775C71.3037 59.3098 66.4041 54.5531 60.3602 54.5531C54.3162 54.5531 49.4166 59.3098 49.4166 65.1775C49.4166 71.0453 54.3162 75.802 60.3602 75.802Z" fill="white"/><path d="M76.7705 78.0104C82.9708 78.0104 87.9971 73.1306 87.9971 67.1111C87.9971 61.0916 82.9708 56.2118 76.7705 56.2118C70.5702 56.2118 65.5438 61.0916 65.5438 67.1111C65.5438 73.1306 70.5702 78.0104 76.7705 78.0104Z" fill="white"/><path d="M91.492 69.907C98.0265 69.907 103.324 64.7642 103.324 58.4201C103.324 52.0761 98.0265 46.9332 91.492 46.9332C84.9574 46.9332 79.66 52.0761 79.66 58.4201C79.66 64.7642 84.9574 69.907 91.492 69.907Z" fill="white"/><path d="M44.2326 74.8732C50.0178 74.8732 54.7076 70.3202 54.7076 64.7037C54.7076 59.0872 50.0178 54.5342 44.2326 54.5342C38.4475 54.5342 33.7577 59.0872 33.7577 64.7037C33.7577 70.3202 38.4475 74.8732 44.2326 74.8732Z" fill="white"/><path d="M33.1232 72.9493C39.3559 72.9493 44.4085 68.0441 44.4085 61.9932C44.4085 55.9422 39.3559 51.037 33.1232 51.037C26.8906 51.037 21.838 55.9422 21.838 61.9932C21.838 68.0441 26.8906 72.9493 33.1232 72.9493Z" fill="white"/></svg>