<svg xmlns="http://www.w3.org/2000/svg" viewBox="0 0 601.54 618.65"><path d="M323.53 378.97c-1.173.057-2.337.128-3.53.128H29.29v45.724h246.37c15.79-13.978 31.81-29.26 47.866-45.853M34.269 270.72c10.676 8.189 22.936 14.541 36.746 19.049 13.819 4.519 28.83 6.773 45.048 6.773h203.94c15.109 0 27.913 4.023 38.413 12.066 6.36 4.876 10.765 10.407 13.274 16.574 12.539-15.14 23.993-29.967 34.408-44.401-1.75-1.548-3.497-3.1-5.401-4.558-10.323-7.9-22.382-14.11-36.201-18.628-13.819-4.512-28.653-6.773-44.493-6.773h-203.38c-15.472-.845-28.002-5.357-37.584-13.546-4.791-3.952-8.563-8.396-11.333-13.34-2.756-4.932-4.14-10.225-4.14-15.874 0-5.924 1.384-11.356 4.14-16.3 2.77-4.935 6.542-9.38 11.333-13.331 9.955-8.186 22.475-12.701 37.584-13.55h287.95v-45.724h-288.5c-16.217 0-31.228 2.329-45.048 6.983-13.81 4.658-26.069 10.946-36.746 18.842-10.695 8.186-19.067 17.641-25.152 28.365C3.051 184.075.01 195.647.01 208.061c0 12.137 3.04 23.568 9.117 34.29 6.085 10.732 14.457 20.187 25.152 28.37" fill="#9e9e9e"/><path d="M359.98 66.128c54.066-30.452 100.97-41.983 129.39-27.716 61.116 30.68 13.707 168.88-105.89 308.69-119.6 139.8-266.1 228.27-327.21 197.59-28.425-14.267-33.347-51.809-18.48-101.94-33.142 81.662-31.429 145.52 12.8 167.72 77.398 38.851 255.48-64.485 397.76-230.81 142.28-166.32 194.88-332.65 117.48-371.5-44.223-22.199-121.34 2.083-205.85 57.961" fill="#2b98f0"/></svg>