<svg xmlns="http://www.w3.org/2000/svg" viewBox="0 0 32 32"><g data-name="STYLE = COLOR"><path d="M11.55 9.717a.416.416 0 01-.057-.494.41.41 0 01.064-.083L20.085.6a.834.834 0 011.203.023 22.62 22.62 0 015.252 9.546L21.378 16l-7.677-2.404a9.259 9.259 0 00-2.15-3.88z" fill="#28a8ea"/><path d="M30.627 9.962a.832.832 0 00-1.026-.612L13.7 13.597a9.379 9.379 0 01.003 4.835l5.303 6.607 7.549-3.152 3.042.817a.832.832 0 001.027-.61 26.868 26.868 0 00.003-12.132z" fill="#0078d4"/><path d="M13.703 18.432a9.262 9.262 0 01-2.13 3.874.417.417 0 00.006.584l8.525 8.512a.834.834 0 001.2-.023 22.55 22.55 0 005.251-9.493z" fill="#0358a7"/><path d="M18 24.667V8.333A1.337 1.337 0 0016.667 7h-2.994l-2.116 2.12a.408.408 0 00-.064.082.416.416 0 00.057.494 9.259 9.259 0 012.151 3.879h.003l-.004.001a9.382 9.382 0 01.003 4.835 9.22 9.22 0 01-.415 1.209 9.277 9.277 0 01-1.715 2.665.417.417 0 00.006.584L14.715 26h1.952A1.337 1.337 0 0018 24.667z" opacity=".1"/><path d="M17 25.667V9.333A1.337 1.337 0 0015.667 8h-2.993l-1.117 1.12a.408.408 0 00-.064.082.416.416 0 00.057.494 9.259 9.259 0 012.151 3.879h.003l-.004.001a9.382 9.382 0 01.003 4.835 9.22 9.22 0 01-.415 1.209 9.277 9.277 0 01-1.715 2.665.417.417 0 00.006.584l4.137 4.13A1.337 1.337 0 0017 25.667z" opacity=".2"/><path d="M17 23.667V9.333A1.337 1.337 0 0015.667 8h-2.993l-1.117 1.12a.408.408 0 00-.064.082.416.416 0 00.057.494 9.259 9.259 0 012.151 3.879h.003l-.004.001a9.382 9.382 0 01.003 4.835 9.22 9.22 0 01-.415 1.209 9.277 9.277 0 01-1.715 2.665.417.417 0 00.006.584L13.714 25h1.953A1.337 1.337 0 0017 23.667z" opacity=".2"/><path d="M16 23.667V9.333A1.337 1.337 0 0014.667 8h-1.993l-1.117 1.12a.408.408 0 00-.064.082.416.416 0 00.057.494 9.259 9.259 0 012.151 3.879h.003l-.004.001a9.382 9.382 0 01.003 4.835 9.22 9.22 0 01-.415 1.209 9.277 9.277 0 01-1.715 2.665.417.417 0 00.006.584L13.714 25h.953A1.337 1.337 0 0016 23.667z" opacity=".2"/><path data-name="Back Plate" d="M1.333 8h13.334A1.333 1.333 0 0116 9.333v13.334A1.333 1.333 0 0114.667 24H1.333A1.333 1.333 0 010 22.667V9.333A1.333 1.333 0 011.333 8z" fill="#0078d4"/><path d="M7.826 15.268a3.361 3.361 0 01.223.6h.021a2.844 2.844 0 01.216-.586l2.023-3.81a.89.89 0 01.785-.472.89.89 0 01.771 1.332l-2.798 4.87a.89.89 0 00-.118.444v2.465a.89.89 0 01-.89.889h-.18a.89.89 0 01-.89-.89v-2.435a.89.89 0 00-.113-.434L4.13 12.323A.89.89 0 014.906 11h.175a.89.89 0 01.79.481z" fill="#fff"/><path fill="none" d="M0 0h32v32H0z"/></g></svg>