<svg xmlns="http://www.w3.org/2000/svg" viewBox="0 0 17 17"><g clip-path="url(#a)"><path fill="url(#b)" d="M4.25 0A4.25 4.25 0 0 1 8.5 4.25v5.313H0V4.25A4.25 4.25 0 0 1 4.25 0"/><path fill="url(#c)" d="M12.75 0A4.25 4.25 0 0 0 8.5 4.25v5.313H17V4.25A4.25 4.25 0 0 0 12.75 0"/><path fill="url(#d)" d="M12.75 6.906a4.25 4.25 0 1 0-8.5 0 4.25 4.25 0 0 0 8.5 0"/><path fill="url(#e)" d="M17 4.25v-.083h-.004c-.103 2.477-2.3 4.471-5.043 4.593v.006c-2.347 0-4.25 1.843-4.25 4.117S9.606 17 11.953 17h.026C16.206 16.983 17 12.824 17 10.89z"/><path fill="url(#f)" d="M0 10.89c0 1.934.794 6.093 5.021 6.11h.026c2.347 0 4.25-1.843 4.25-4.117s-1.903-4.117-4.25-4.117V8.76C2.303 8.638.107 6.644.004 4.167H0v.083z"/></g><defs><linearGradient id="b" x1="1.594" x2="3.465" y1="8.323" y2="-.546" gradientUnits="userSpaceOnUse"><stop stop-color="#053377"/><stop offset="1" stop-color="#2F91F2"/></linearGradient><linearGradient id="c" x1="14.174" x2="9.917" y1="1.316" y2="7.703" gradientUnits="userSpaceOnUse"><stop stop-color="#4AC1FF"/><stop offset=".927" stop-color="#155EB5"/></linearGradient><linearGradient id="d" x1="7.349" x2="11.51" y1="3.807" y2="12.042" gradientUnits="userSpaceOnUse"><stop stop-color="#96DFFF"/><stop offset=".413" stop-color="#53ADEE"/><stop offset="1" stop-color="#006BB9"/></linearGradient><linearGradient id="e" x1="10.685" x2="15.173" y1="10.32" y2="17.783" gradientUnits="userSpaceOnUse"><stop offset=".08" stop-color="#4AC1FF"/><stop offset="1" stop-color="#155EB5"/></linearGradient><linearGradient id="f" x1="1.764" x2="5.98" y1="7.376" y2="17.521" gradientUnits="userSpaceOnUse"><stop stop-color="#2F91F2"/><stop offset="1" stop-color="#053377"/></linearGradient><clipPath id="a"><path fill="#fff" d="M0 0h17v17H0z"/></clipPath></defs></svg>