<svg xmlns="http://www.w3.org/2000/svg" viewBox="0 0 176 220.3"><path fill="#ff1a1a" d="M57.7 139.1c4.2-1 8.6-1.8 12.7-3.1a11.3 11.3 0 0 0 5-16.4c-3.7-5-10.2-6.5-15.7-8.7-12.5-4.5-24.9-9.2-37.5-13.2-4.7-1.5-10.7-2.7-14.7 1.1-5 4.7-6 11.7-7 18-.7 7.2-.8 14.5.9 21.5 1.1 4.7 4.6 9.4 9.8 9.8 6.8 1 13.3-1.6 19.8-2.8l26.7-6.2zM171 85.2a53 53 0 0 0-13.4-17.7c-3.7-2.9-9.2-3.7-13.2-.9-6.8 4.6-12.1 11.1-18 16.8-6.9 7.2-13.9 14.3-20.7 21.6-3.2 3.5-5.9 8.2-4.4 13 1.5 6 8.3 9.6 14.1 7.8l48.2-11.2c5-1.5 10.8-4.2 12-9.7 1.5-6.9-2-13.7-4.6-19.7zm-78.6 18.5c4.3-6.1 3-14 3.8-21 1.1-18.8 2.3-37.6 3.1-56.5-.3-7 .5-14.8-4.2-20.5-6-6.5-15.9-6-24-5.2a69 69 0 0 0-31.7 11.1 14.9 14.9 0 0 0-5.5 17c3.9 12.3 11.4 23 17.3 34.5 7.1 12.6 14 25.3 21.3 37.8 3 5.3 9.6 8.8 15.4 6.1 1.8-.7 3.3-2 4.5-3.3zm-3.8 43.5a10.3 10.3 0 0 0-15-1.7c-4.6 3.9-7.7 9.2-11.3 14-7.3 10-14.7 19.8-21.4 30.1-2.7 4.1-5 9.4-2.6 14.2 3.1 6 9.7 9 15.6 11.7a53 53 0 0 0 22.6 4.8c4.8-.2 9.7-3 11-7.9 2.2-7.5 1.8-15.5 2.3-23.3.5-11 1-21.9 1.2-32.9-.1-3-.7-6.6-2.4-9zm79.7 18.8c-5-5-11.8-8-18-11.4-10.3-5.6-20.6-11.3-31.1-16.6-4.4-2.2-10.1-3.4-14.2 0-3.9 2.8-4.8 8.2-3.1 12.5 2 5.7 5.2 10.8 8 16 5.5 10.4 10.9 21 16.9 31 2.5 4.1 6.2 8.7 11.6 8.5 6.6-.2 12-4.6 17-8.6a56.4 56.4 0 0 0 14.6-18.6c1.7-4.2 1.7-9.4-1.7-12.8z"/></svg>