<svg xmlns="http://www.w3.org/2000/svg" width="93.956" height="93.956"><g fill="#cb3023"><path d="M55.867 59.96c-1.586 1.597-.244 4.506-.244 4.506l11.936 19.931s1.958 2.628 3.657 2.628c1.705 0 3.39-1.401 3.39-1.401l9.437-13.489s.95-1.701.972-3.192c.034-2.12-3.162-2.7-3.162-2.7l-22.34-7.176s-2.189-.58-3.646.892M54.735 49.913c1.142 1.938 4.296 1.374 4.296 1.374l22.29-6.515s3.038-1.236 3.472-2.883c.426-1.648-.5-3.636-.5-3.636L73.638 25.705s-.923-1.586-2.838-1.745c-2.112-.18-3.412 2.376-3.412 2.376l-12.596 19.82s-1.112 1.973-.058 3.757M44.203 42.186c2.625-.647 3.041-4.46 3.041-4.46L47.067 5.99s-.396-3.915-2.156-4.976c-2.759-1.674-3.576-.8-4.367-.683L22.037 7.208s-1.812.6-2.756 2.113c-1.348 2.142 1.37 5.28 1.37 5.28L39.887 40.82s1.897 1.963 4.316 1.366M39.632 55.03c.067-2.45-2.939-3.92-2.939-3.92L16.801 41.062s-2.948-1.215-4.378-.368c-1.096.647-2.067 1.82-2.163 2.856L8.965 59.497s-.194 2.764.522 4.021c1.014 1.783 4.352.543 4.352.543l23.222-5.133c.902-.607 2.484-.663 2.571-3.899M45.407 63.635c-1.994-1.023-4.379 1.097-4.379 1.097L25.478 81.85s-1.94 2.617-1.446 4.226c.465 1.506 1.235 2.255 2.324 2.782l15.615 4.93s1.893.393 3.328-.022c2.034-.59 1.66-3.777 1.66-3.777l.352-23.177s-.079-2.233-1.904-3.177"/></g></svg>