<svg xmlns="http://www.w3.org/2000/svg" width="300" height="300"><path d="M-1003.267 296.362h434.757a20.576 20.576 0 0 1 20.621 20.621v434.758a20.576 20.576 0 0 1-20.62 20.621h-434.758a20.576 20.576 0 0 1-20.622-20.621V316.983a20.576 20.576 0 0 1 20.622-20.62z" style="fill:#00b8cd;fill-opacity:1;fill-rule:nonzero;stroke:none" transform="translate(643.657 -185.66) scale(.62815)"/><g style="fill:#fff;stroke:none"><path d="M37.964 641.294c0-8.087 5.797-8.218 8.554-8.218 7.809 0 14.417 1.875 24.821 1.875 21.744 0 22.293-10.908 27.679-35.625h-10.09c-25.155 0-26.952-20.405-30.714-33.571l-21.339-76.518s-1.964-6.99-1.964-11.696c0-8.49 5.881-10.179 11.25-10.179h6.428c7.611 0 9.286 2.381 13.125 15.625l20.447 78.125c2.747 9.265 1.393 13.75 17.678 13.75l22.679-98.036c1.289-5.428 4.17-9.464 11.16-9.464h7.947c6.357 0 9.643 3.72 9.643 10 0 5.059-3.125 17.857-3.125 17.857l-34.107 137.947c-1.537 3.97-7.422 27.678-44.018 27.678-21.468 0-36.054-1.704-36.054-11.535zM188.52 589.775V425.69h-6.44c-6.355 0-12.122-2.579-12.122-8.965v-9.976c0-4.968 3.888-8.396 10.48-8.396h23.423c12.544 0 12.817 12.45 12.817 21.781v169.58c0 4.223-.932 10.922-10.923 10.922h-6.629c-6.517 0-10.606-2.525-10.606-10.86z" style="fill:#fff;stroke:none" transform="translate(25.626 -185.66) scale(.62815)"/></g><path d="M-675.781 463.688c-33.754 0-59.094 14.934-59.094 66.375v11.468c0 46.227 23.746 60.938 55.688 60.938h14.937c22.932 0 37.375-5.418 37.375-12.25v-8.094c0-4.597-2.949-8.188-7.75-8.188-6.63 0-13.77 3.47-32.406 3.47-27.84 0-39.125-3.295-39.125-34.532h66.718c8.479 0 18.25-3.368 18.25-16.5v-6.125c0-36.879-18.578-56.563-54.593-56.563zm.437 21.593c21.465 0 28.407 15.407 28.407 34.594h-58.657c0-18.426 7.183-34.594 30.25-34.594z" style="fill:#fff;stroke:none" transform="translate(643.657 -185.66) scale(.62815)"/></svg>