<svg xmlns="http://www.w3.org/2000/svg" viewBox="0 0 4206.4 3177"><path fill="#f03" d="M16 0 0 146c82 19 428 54 479 73 180 139 881 1020 909 1109v491c0 83-60 118-142 140-105 25-209 35-314 28l-19 149c146 7 574-9 713-9 276 0 720-3 786 3l16-158-475-32s-13-564 0-618c54-152 893-808 982-834 83-16 327-73 384-76l101-152H2041l29 152c44 0 336 41 425 60-19 133-631 561-694 657-118-172-479-609-707-948 88-23 428-29 497-48l22-133Zm3595 203-422 1379 263 79 637-1087 117-190zm-581 1601-126 294 183 48 165 54 127-288-171-45zm-965 672v689h145v-66a195 195 0 0 0 158 77c120 0 231-94 231-263v-1c0-171-113-263-231-263a186 186 0 0 0-158 82v-255zm614 0v127h152v-127zm249 0v690h144v-690ZM868 2649c-73 0-117 39-150 82v-72H574v507h144v-283c0-68 33-103 87-103 53 0 84 35 84 103v283h144v-283c0-68 33-103 87-103 53 0 84 35 84 103v283h144v-331c0-121-64-186-171-186a209 209 0 0 0-166 81c-27-52-77-81-143-81zm840 0a266 266 0 0 0-276 264v1c0 146 116 263 274 263s275-118 275-264v-1c0-146-115-263-273-263zm1699 0c-148 0-251 120-251 264v1c0 155 113 262 265 262 92 0 160-37 207-94l-82-72c-40 37-75 52-123 52-64 0-109-35-124-100h353l2-37c0-145-78-276-247-276zm-724 10v507h145v-507zm724 105c61 0 98 44 107 107h-217c12-65 50-107 110-107zm-1076 8c67 0 124 54 124 140v1h-1c0 85-57 140-124 140s-123-56-123-140v-1c0-86 57-140 124-140zm-625 1c79 0 133 65 133 140v1c0 75-49 139-131 139-80 0-134-65-134-140v-1c0-76 49-139 132-139z" class="cls-1"/></svg>