<!DOCTYPE svg PUBLIC "-//W3C//DTD SVG 20010904//EN" "http://www.w3.org/TR/2001/REC-SVG-20010904/DTD/svg10.dtd">
<svg version="1.0" xmlns="http://www.w3.org/2000/svg" width="471px" height="356px" viewBox="0 0 4710 3560" preserveAspectRatio="xMidYMid meet">
<g id="layer1" fill="#ed1d41" stroke="none">
 <path d="M1828 3380 c-151 -45 -229 -230 -157 -371 40 -80 153 -149 244 -149 103 0 213 74 255 172 57 133 -18 295 -159 343 -48 16 -138 19 -183 5z m162 -149 c14 -10 31 -36 38 -58 37 -115 -72 -213 -177 -158 -65 33 -73 156 -14 211 41 38 105 40 153 5z"/>
 <path d="M2491 3379 c-13 -5 -36 -18 -51 -29 l-29 -20 -3 22 c-3 21 -8 23 -73 23 l-70 0 0 -340 0 -340 70 0 70 0 3 118 3 118 30 -25 c99 -84 255 -39 325 94 28 53 27 201 -3 255 -57 106 -178 162 -272 124z m96 -145 c62 -40 58 -189 -6 -224 -11 -5 -38 -10 -61 -10 -114 0 -149 171 -50 238 38 26 75 24 117 -4z"/>
 <path d="M3496 3380 c-138 -42 -211 -206 -156 -353 65 -172 279 -220 402 -89 52 55 71 103 72 182 l1 55 -167 3 c-184 3 -196 7 -142 57 36 33 110 34 165 3 l39 -22 41 40 40 39 -40 36 c-22 19 -57 41 -79 47 -45 14 -133 14 -176 2z m164 -315 c0 -53 -72 -89 -129 -65 -24 10 -35 24 -59 73 -2 4 40 7 92 7 80 0 96 -3 96 -15z"/>
 <path d="M815 3368 c-3 -7 -4 -121 -3 -253 l3 -240 70 0 c69 0 70 0 75 28 l5 29 24 -26 c52 -55 156 -57 216 -5 l33 29 50 -31 c27 -17 68 -33 91 -36 57 -8 124 20 159 65 l27 35 0 206 0 206 -70 0 -70 0 -5 -167 c-6 -188 -10 -200 -75 -200 -65 0 -69 12 -75 200 l-5 167 -75 0 -75 0 -5 -166 c-4 -120 -9 -171 -19 -183 -17 -21 -84 -21 -105 0 -23 22 -26 43 -29 204 l-2 145 -68 3 c-49 2 -69 -1 -72 -10z"/>
 <path d="M2865 3368 c-3 -7 -4 -121 -3 -253 l3 -240 70 0 70 0 0 250 0 250 -68 3 c-49 2 -69 -1 -72 -10z"/>
 <path d="M3105 3368 c-3 -7 -4 -162 -3 -343 l3 -330 70 0 70 0 0 340 0 340 -68 3 c-48 2 -69 -1 -72 -10z"/>
 <path d="M2862 2818 c-17 -17 -16 -103 2 -117 9 -7 41 -11 83 -9 l68 3 0 65 0 65 -70 3 c-46 2 -74 -1 -83 -10z"/>
 <path d="M3420 2398 c-30 -10 -107 -33 -170 -49 -63 -17 -118 -34 -122 -38 -8 -7 103 -274 124 -298 7 -9 31 -5 102 21 51 18 125 41 164 51 39 9 77 23 83 31 10 12 0 41 -46 147 -32 73 -63 137 -69 143 -8 9 -25 7 -66 -8z"/>
 <path d="M1104 2345 c-4 -9 -3 -47 2 -83 l9 -67 50 -2 c238 -12 380 -55 404 -125 7 -19 11 -129 11 -290 l0 -259 -42 -62 c-214 -318 -818 -1040 -890 -1062 -10 -4 -121 -21 -246 -39 l-227 -32 1 -65 c0 -36 3 -73 7 -82 6 -16 65 -17 816 -17 445 0 812 4 815 9 3 4 1 36 -5 70 -9 49 -16 64 -33 71 -12 4 -122 15 -245 24 -123 9 -226 18 -229 21 -7 7 164 242 443 608 l256 336 267 -223 c254 -212 376 -327 417 -389 10 -15 16 -30 13 -32 -3 -3 -96 -19 -208 -35 -112 -16 -209 -35 -214 -40 -14 -14 -35 -139 -25 -145 10 -7 1390 -7 1396 -1 6 6 -72 129 -92 146 -8 7 -76 25 -152 40 -292 61 -282 56 -579 287 -367 286 -633 535 -655 615 -8 30 -10 127 -6 326 2 156 6 285 8 287 3 2 108 11 234 20 126 9 233 19 238 22 9 5 -1 144 -12 155 -4 4 -303 10 -666 12 -363 3 -704 8 -757 12 -87 6 -98 5 -104 -11z"/>
 <path d="M3548 1826 c-70 -22 -129 -44 -133 -47 -4 -4 212 -724 400 -1329 14 -45 29 -76 38 -78 8 -2 120 29 249 68 128 39 257 79 287 88 29 9 55 22 58 29 3 6 -38 83 -90 170 -52 87 -219 372 -372 633 -153 261 -285 482 -294 491 -15 15 -26 13 -143 -25z"/>
 </g>
<g id="layer2" fill="#ffffff" stroke="none">
 <path d="M0 1780 l0 -1780 2355 0 2355 0 0 1780 0 1780 -2355 0 -2355 0 0 -1780z m2009 1575 c97 -34 150 -104 158 -208 7 -78 -21 -151 -78 -201 -39 -36 -119 -66 -174 -66 -52 0 -128 27 -168 61 -143 118 -96 366 81 419 44 14 136 11 181 -5z m629 0 c78 -33 122 -103 130 -205 8 -112 -29 -195 -103 -237 -78 -43 -163 -38 -224 13 -17 14 -35 23 -41 19 -6 -4 -10 -54 -10 -121 l0 -114 -55 0 -55 0 0 325 0 325 55 0 c51 0 55 -2 55 -23 0 -36 10 -38 44 -12 62 47 136 58 204 30z m1033 4 c19 -7 49 -23 68 -37 l33 -25 -31 -30 -30 -31 -40 22 c-26 15 -56 22 -89 22 -44 0 -55 -5 -87 -34 -26 -25 -36 -42 -33 -58 3 -23 4 -23 172 -26 l169 -2 -7 -56 c-13 -115 -64 -184 -155 -211 -123 -35 -238 20 -281 134 -52 139 4 285 127 329 47 16 139 18 184 3z m-2731 -144 c0 -189 16 -225 103 -225 27 0 41 7 61 31 26 30 26 33 26 185 l0 154 60 0 60 0 0 -155 0 -155 28 -31 c37 -41 92 -43 131 -5 26 26 26 29 29 186 l3 160 55 0 54 0 0 -186 c0 -218 -7 -245 -74 -275 -70 -32 -138 -20 -212 36 l-31 24 -22 -29 c-43 -59 -154 -63 -217 -8 -37 32 -54 30 -54 -8 0 -23 -3 -24 -55 -24 l-55 0 0 235 0 235 55 0 55 0 0 -145z m2050 -90 l0 -235 -55 0 -55 0 0 235 0 235 55 0 55 0 0 -235z m240 -90 l0 -325 -55 0 -55 0 0 325 0 325 55 0 55 0 0 -325z m-230 -275 l0 -50 -65 0 -65 0 0 50 0 50 65 0 65 0 0 -50z m590 -630 c0 -4 -32 -16 -72 -25 -39 -10 -113 -33 -163 -51 l-92 -33 -60 140 -61 139 42 10 c75 20 210 59 251 73 l40 14 57 -130 c32 -71 58 -133 58 -137z m-1585 196 l613 -1 6 -64 c3 -36 4 -66 3 -67 -2 -2 -106 -10 -232 -19 -127 -9 -234 -20 -239 -25 -14 -14 -20 -578 -7 -628 22 -81 306 -348 675 -635 294 -229 290 -227 561 -283 66 -13 129 -27 141 -29 20 -4 100 -112 91 -121 -7 -7 -7 -7 -701 -5 l-648 1 7 57 c4 32 8 59 9 61 2 1 97 16 212 33 115 17 213 34 218 39 31 31 -110 175 -448 458 l-269 225 -21 -29 c-12 -16 -130 -172 -264 -348 -133 -175 -286 -379 -339 -453 -83 -116 -94 -136 -82 -149 11 -10 73 -18 229 -29 118 -8 225 -17 237 -20 16 -4 24 -15 28 -43 4 -20 9 -45 12 -54 4 -17 -39 -18 -795 -18 l-800 0 -6 31 c-3 17 -6 46 -6 64 l0 32 226 31 c124 18 233 36 243 41 89 48 694 772 899 1078 l42 62 0 261 c0 294 -3 312 -67 354 -64 43 -217 76 -347 76 l-53 0 -7 38 c-3 20 -6 50 -6 65 l0 28 136 -7 c75 -4 412 -7 749 -8z m1960 -966 c153 -261 320 -545 371 -632 52 -86 94 -159 94 -162 0 -3 -46 -19 -102 -36 -57 -17 -182 -56 -279 -86 -97 -30 -180 -54 -186 -54 -5 0 -26 53 -46 117 -20 65 -113 370 -207 678 -94 308 -173 566 -175 572 -4 13 235 95 246 84 3 -3 131 -220 284 -481z"/>
 <path d="M1885 3273 c-61 -16 -108 -81 -107 -149 1 -84 59 -144 139 -144 35 0 50 7 83 36 69 63 75 157 13 216 -42 40 -81 53 -128 41z"/>
 <path d="M2474 3261 c-97 -59 -110 -178 -29 -250 86 -75 207 -9 207 113 -1 72 -33 122 -95 145 -38 15 -47 14 -83 -8z"/>
 <path d="M3462 3088 c-8 -10 -6 -22 6 -47 37 -78 132 -93 185 -29 18 21 27 42 25 58 -3 25 -5 25 -104 28 -74 2 -104 -1 -112 -10z"/>
 </g>

</svg>