<svg xmlns="http://www.w3.org/2000/svg" fill="#5a61ff" viewBox="0 0 576 568"><path d="M465 260H359c-2 0-5 1-6 3l-63 103c-1 2-3 2-4 0l-62-103c-2-2-4-3-7-3H112c-3 0-3 1-2 3l125 183 2 8v110c0 2 2 4 4 4h94c3 0 4-2 4-4V454l3-8 124-183c2-2 1-3-1-3M281 101l7 3 7-3c59-37 10-84-7-101-17 17-67 64-7 101m-63 137 8-1 5-7c30-69-43-81-68-87-5 26-21 97 55 95m-97-15 6-5 1-7c-6-76-76-53-102-46 8 24 28 95 95 58m12 127 2-8-4-7c-50-57-93 2-109 23 21 15 79 60 111-8m155-230c-13 15-52 54-6 85l6 3 5-3c47-31 8-70-5-85M159 382l-4-1c-47 0-39 44-37 60 16-4 60-12 44-55zm123-76 6 2c1 0 3 0 5-2 47-32 8-70-5-85-13 15-52 53-6 85M86 282l2-5-1-5c-28-49-71-14-87-2 14 14 50 55 86 12m48-133 5-2 3-4c20-53-34-63-53-67-2 19-12 73 45 73m76-17h7l4-4c36-52-20-77-40-87-7 20-32 76 29 91m140 105 8 1c76 2 60-69 55-95-26 6-98 18-68 87 2 4 3 6 5 7m98-27 1 8 6 5c67 37 86-34 94-58-25-7-95-30-101 45m-3 125-4 7 2 8c32 68 90 23 111 8-16-21-59-80-109-23m-24 46-5 1-2 4c-17 43 28 51 44 55 2-16 10-60-37-60m68-109-2 5 3 5c36 43 72 2 86-12-16-12-59-47-87 2m-53-125 6 2c57 0 47-54 45-73-19 4-74 14-54 67zm-77-15h7c61-15 36-71 28-91-19 10-76 35-40 87z"/></svg>