<svg xmlns="http://www.w3.org/2000/svg" viewBox="0 0 30 33"><defs><linearGradient x1="0%" y1="100%" x2="0%" y2="0%" id="a"><stop stop-color="#40C4FF" offset="0%"/><stop stop-color="#2979FF" offset="100%"/></linearGradient><linearGradient x1="15.243%" y1="100%" x2="84.757%" y2="50%" id="b"><stop stop-color="#40C4FF" offset="0%"/><stop stop-color="#80D8FF" offset="100%"/></linearGradient><linearGradient x1="0%" y1="0%" x2="0%" y2="100%" id="c"><stop stop-color="#2979FF" offset="0%"/><stop stop-color="#304FFE" offset="100%"/></linearGradient><linearGradient x1="100%" y1="100%" x2="100%" y2="0%" id="d"><stop stop-color="#2979FF" offset="0%"/><stop stop-color="#304FFE" offset="100%"/></linearGradient><linearGradient x1="100%" y1="100%" x2="100%" y2="0%" id="e"><stop stop-color="#2979FF" offset="0%"/><stop stop-color="#40C4FF" offset="100%"/></linearGradient><linearGradient x1="84.756%" y1="100%" x2="15.244%" y2="50%" id="f"><stop stop-color="#2979FF" offset="0%"/><stop stop-color="#40C4FF" offset="100%"/></linearGradient></defs><path fill="#40C4FF" d="m25 9 5-3v12l-5 3z"/><path fill="#80D8FF" d="m25 9 5-3-10-6-5 3z"/><path fill="#304FFE" d="M15 33v-6L5 21v6z"/><path fill="#40C4FF" d="M15 33v-6l10-6v6z"/><path fill="url(#a)" d="M21.67 7 15 11V3z"/><path fill="url(#b)" d="M11.67 17 5 21v-8z"/><path fill="url(#c)" d="m25 21-6.67 4v-8z"/><path fill="url(#d)" d="M8.33 7 15 11V3z"/><path fill="url(#e)" d="m5 21 6.67 4v-8z"/><path fill="url(#f)" d="M18.33 17 25 21v-8z"/><path fill="#80D8FF" d="M5 9 0 6l10-6 5 3z"/><path fill="#304FFE" d="M5 9 0 6v12l5 3z"/></svg>