<svg xmlns="http://www.w3.org/2000/svg" version="1.1" id="layer" x="0" y="0" xml:space="preserve" width="153.607" height="153.607"><style type="text/css" id="style936">.st0{fill:#c41230}</style><g id="g1568" transform="translate(-20.6 -207.632)"><path class="st0" d="M43.9 234.4c-9 1.4-16.9 5.3-23.3 10.7 3.1-1 6.2-1.8 9.5-2.4 31.8-5.1 61.8 15.7 67.1 46.5.1.4.1.7.2 1 1.5-5.8 1.8-12 .7-18.3-4.3-24.8-28.6-41.6-54.2-37.5" id="path938"/><path class="st0" d="M98.7 228.8c-8.4-6.7-18.2-10.6-28.3-11.8 3.4 1.8 6.6 4 9.7 6.4 29.8 23.6 34.2 66.1 9.8 95-.3.3-.6.6-.8 1 6.5-3.3 12.5-7.9 17.5-13.8 19.7-23.4 16.2-57.7-7.9-76.8" id="path940"/><path class="st0" d="M120.9 207.7c4 8.4 7 17.5 8.6 27.1 6.9 40.5-11 79.5-42.9 102.2 41-6.8 68.6-44.4 61.8-84.1-3.2-18.5-13.4-34.3-27.5-45.2" id="path942"/><path class="st0" d="M167.7 242.9c.9 52.3-37.8 98.7-92.7 107.5-10.5 1.7-20.8 1.9-30.9.8 16.6 8.5 36.1 12 56 8.8 48.3-7.8 80.9-52 72.9-98.8-1.1-6.4-2.9-12.5-5.3-18.3" id="path944"/></g></svg>