<svg xmlns="http://www.w3.org/2000/svg" viewBox="0 0 160 126"><path d="M0 126V28.67A28.7 28.7 0 0 1 28.59 0H131.4A28.7 28.7 0 0 1 160 28.67v68.66A28.7 28.7 0 0 1 131.41 126z"/><path fill="#fff" fill-rule="evenodd" d="M130.87 119.47a22.55 22.55 0 0 0 22.58-22.59V29.12a22.55 22.55 0 0 0-22.58-22.59H29.13A22.55 22.55 0 0 0 6.55 29.12v90.35zm16.99-90.35a17 17 0 0 0-17-17H29.25a17 17 0 0 0-16.99 17v84.75h118.62a17 17 0 0 0 16.99-16.99V29.12zm-19.84 7.02c2.4 0 4.27-1.98 4.27-4.28s-1.86-4.16-4.27-4.27a4.28 4.28 0 0 0 0 8.55m-70.1 9.98.04-.11v.1h-.04zm-6.1 0h6.1L35.38 96.88h-6.14l9.87-22.26L26.39 46h6.14l9.65 21.71 9.64-21.6zM121 46v19.73c0 4.6-2.2 8.77-5.7 11.3a14.23 14.23 0 0 1-8.44 2.85 13.98 13.98 0 0 1-8.44-2.86 14.17 14.17 0 0 1-5.7-11.29V46.01h5.7v19.73a8.45 8.45 0 0 0 16.88 0V46.01h5.7zm4.17 34h5.7V46h-5.7zM83.95 63a11.28 11.28 0 1 1-22.59 0 11.28 11.28 0 1 1 22.59 0m-28.29 0a17 17 0 1 1 17 17 16.94 16.94 0 0 1-17-17"/></svg>
