<svg xmlns="http://www.w3.org/2000/svg" width="749.333" height="749.333"><path d="M373.333 0c-20.886 29.652-59.945 60.133-39.636 101.333 3.115 6.319 7.302 11.91 12.207 16.952 5.981 6.148 12.692 11.988 20.763 15.048.04-14.741 2.144-31.721 8-45.333l8 45.333c7.264-2.794 13.156-7.918 18.661-13.353 37.739-37.255 9.45-93.603-27.995-119.98M236 54.667c-22.66 42.993-23.423 110.478 37.333 118.666l-8-42.666h1.334l20 37.333h2.666c7.036-13.372 14.764-26.988 14.322-42.667C302.7 91.597 266.028 63.317 236 54.667M460 168h2.667l20-37.333H484l-8 42.666c60.667-8.209 59.973-75.697 37.333-118.666-30.026 8.649-66.706 36.93-67.653 70.666-.44 15.679 7.28 29.295 14.32 42.667m-344-68c-6.83 28.61-6.437 72.315 22.667 88.628 10.886 6.103 23.782 7.37 36 7.372l-17.334-36 28 28c22.523-52.347-25.193-78.89-69.333-88m448 88l28-28-17.333 36c12.173-.001 25.173-1.228 36-7.376 29.066-16.495 29.52-59.916 22.666-88.624-43.773 9.036-92.413 35.865-69.333 88m-190.667-29.333c-20.734 29.55-52.39 62.89-22.232 98.661 4.696 5.57 10.403 10.103 16.899 13.339L373.333 232h1.334l6.666 38.667c47.614-24.667 27.848-86.538-8-112m-89.333 156L264 268l36 36c22.035-47.117 1.621-87.543-46.667-103.996-7.794-2.656-33.054-14.141-40.533-9.18-6.943 4.605-5.69 29.516-6.699 37.176-3.446 26.17 2.508 58.953 25.899 74.527 15.363 10.229 34.033 12.14 52 12.14M449.333 304l36-36-20 46.667c17.974 0 36.64-1.911 52-12.14 23.387-15.574 29.347-48.358 25.894-74.527-1-7.66-6.694-37.176-6.694-37.176s-32.733 6.524-40.533 9.18c-48.227 16.433-68.687 56.91-46.667 103.996M34.667 217.333C39.137 247.61 58.8 290.28 88 303.313c22.47 10.03 48.985 3.228 69.333-8.646l-40-32 48 14.666c-.025-9.045-1.292-18.024-4.038-26.666-17.916-56.374-81.855-47.651-126.628-33.334m549.333 60l48-14.666-40 32c16.947 9.89 39 16.909 58.667 12.133 36-8.744 58.96-55.364 64-89.467-44.814-14.328-108.707-23.046-126.627 33.334-2.787 8.774-4.04 17.492-4.04 26.666M368 404l5.333-38.667h1.334L381.333 404c5.926-3.707 11.13-8.188 15.876-13.335 31.284-33.913.255-70.47-21.209-98.665-8.441 4.113-14.907 13.817-20.34 21.333C333.516 343.968 331.515 382.91 368 404M0 354.667C25.85 392.47 80.01 417.415 112 372l-38.667-9.333v-1.334L112 358.667c-2.572-6.786-6.94-12.183-12.02-17.328C67.561 308.5 30.812 335.648 0 354.667m637.333 4L676 361.333v1.334L637.333 372c31.987 45.415 86.147 20.47 112-17.333-30.813-19.019-67.56-46.166-99.986-13.328-5.08 5.145-9.44 10.542-12.014 17.328m-497.333-16l167.32 252 .68 154.666h133.333l1.12-154.666 166.88-252-145.2.804L376 486.667l-88.28-142.63-147.72-1.37m-112 128V472c36.357 31.008 98.393 59.845 133.055 10.667 4.596-6.52 8.733-13.654 10.945-21.334L122.667 460c11.433-11.457 32.106-11.84 46.666-17.333-4.21-8.116-11.428-13.712-18.666-19.112C100.555 386.17 59.665 436.264 28 470.667m552-28c14.467 5.46 35.32 5.969 46.667 17.333l-49.334 1.333c2.36 8.202 6.72 15.875 11.867 22.667 35.64 47.073 95.853 18.943 132.133-12-26.613-40.23-76.693-83.74-124-47.43-6.773 5.203-13.346 10.423-17.333 18.097M153.333 581.333c37.246-4.809 75.335-30.161 57.334-72L188 532l13.333-29.333c-44.962.029-57.129 40.321-48 78.666M548 502.667L561.333 532l-22.666-22.667c-18.04 41.915 20.133 66.991 57.333 72 9.133-38.382-3.08-78.637-48-78.666z" fill="#86c3e9"/></svg>