<svg xmlns="http://www.w3.org/2000/svg" width="267.581" height="267.581"><g fill="#26689a"><path d="M139.005 111.15c-3-2.73-7.59-2.73-10.58 0L21.435 211.51c-3.18 3.3-5.05 7.63-5.29 12.2v40.03c0 3.99 2.38 5.04 5.29 2.31l107.05-100.42a7.815 7.815 0 0110.58 0l107.08 100.43c2.92 2.73 5.29 1.68 5.29-2.31v-40.03c-.24-4.57-2.12-8.9-5.29-12.2z"/><path d="M139.005 2.07c-2.99-2.76-7.6-2.76-10.58 0L21.435 102.5c-3.18 3.3-5.05 7.63-5.29 12.2v40.03c0 3.99 2.38 5.04 5.29 2.31l107.05-100.46c3-2.73 7.59-2.73 10.58 0l107.08 100.46c2.92 2.73 5.29 1.68 5.29-2.31V114.7c-.24-4.57-2.12-8.9-5.29-12.2z"/></g></svg>