<svg xmlns="http://www.w3.org/2000/svg" class="style-scope ytd-topbar-logo-renderer" width="62.86" height="62.86" display="block"><path fill="red" d="M61.55 16.3a7.885 7.885 0 00-5.56-5.56c-4.9-1.31-24.56-1.31-24.56-1.31s-19.65 0-24.56 1.31c-2.7.72-4.83 2.85-5.56 5.56C0 21.2 0 31.43 0 31.43s0 10.23 1.31 15.13c.72 2.7 2.85 4.83 5.56 5.56 4.91 1.31 24.56 1.31 24.56 1.31s19.66 0 24.56-1.31c2.7-.72 4.83-2.85 5.56-5.56 1.31-4.9 1.31-15.13 1.31-15.13s0-10.23-1.31-15.13z" class="style-scope ytd-topbar-logo-renderer"/><path fill="#fff" class="style-scope ytd-topbar-logo-renderer" d="M41.48 31.43L25.15 22v18.86z"/></svg>