<svg xmlns="http://www.w3.org/2000/svg" width="503.996" height="503.996"><path d="M89.45 114.453c-2.14-3.797-4.963-6.328-8.371-7.496h.001c-1.655-.68-3.504-.973-5.45-.973H0l75.435 130.73 42.242-73.591c-15.476-26.574-24.82-42.732-28.226-48.67zm339.21 152.923l-42.243 73.493c15.379 26.574 24.723 42.734 28.13 48.671 3.213 5.646 7.786 8.468 13.822 8.468h75.627zM210.436 324.03l-41.561-71.936h.001l84.29-146.109h-84.973l-83.998 146.11c42.729 73.98 65.797 113.986 69.204 120.02 5.548 9.832 12.166 16.84 19.856 20.831 6.618 3.408 15.086 5.162 25.308 5.063 7.494 0 19.077 0 34.649-.098l42.73-73.88zm140.163-192.056c-5.55-9.928-12.167-16.84-19.858-20.83-3.796-2.044-8.176-3.407-13.14-4.186-3.796-.68-7.786-.973-12.166-.973-7.495 0-19.078.097-34.651.195l-42.73 73.882h65.506l41.66 71.838-84.39 146.109h84.974c27.935-48.67 55.967-97.341 83.999-146.11-42.827-73.98-65.896-113.986-69.204-119.925" fill="#82cd36"/></svg>