<?xml version="1.0" encoding="UTF-8"?>
<!-- Generator: Adobe Illustrator 22.0.0, SVG Export Plug-In . SVG Version: 6.00 Build 0)  -->
<svg version="1.1" id="Lager_1" xmlns="http://www.w3.org/2000/svg" xmlns:xlink="http://www.w3.org/1999/xlink" x="0px" y="0px" viewBox="0 0 16 16" style="enable-background:new 0 0 16 16;" xml:space="preserve">
<style type="text/css">
	.st0{fill:#03A0D7;}
	.st1{fill:#FFFFFF;}
</style>
<g>
	<rect class="st0" width="16" height="16"/>
	<g>
		<path class="st1" d="M8,7.9C8,9.6,6.9,11,5.1,11c-1.1,0-1.6-0.5-1.6-0.5v2H1.3V5h2.1v0.6c0,0,0.6-0.8,1.8-0.8C7,4.8,8,6.2,8,7.9z     M5.8,7.9c0-0.7-0.5-1.2-1.2-1.2c-0.7,0-1.2,0.5-1.2,1.2c0,0.7,0.5,1.2,1.2,1.2C5.3,9.1,5.8,8.6,5.8,7.9z M12.5,4.8    c-1.2,0-1.7,0.8-1.7,0.8V5H8.7v5.8h2.1v-3c0-0.7,0.3-1.1,0.9-1.1c0.7,0,0.8,0.5,0.8,1.2v2.8h2.2V7.2C14.7,5.7,13.9,4.8,12.5,4.8z"/>
	</g>
</g>
</svg>