<svg xmlns="http://www.w3.org/2000/svg" xmlns:xlink="http://www.w3.org/1999/xlink" style="background-color:#333" viewBox="0 0 279.93 88.339"><defs><path id="a" d="M279.93 88.339V0H0v88.34z"/><mask id="b" fill="#fff"><use width="100%" height="100%" xlink:href="#a"/></mask></defs><path d="M101.82 33.28c6.934 0 10.223-1.19 10.223-3.612V17.64c0-2.421-3.289-3.611-10.223-3.611H86.927c-6.933 0-10.221 1.19-10.221 3.611v12.028c0 2.422 3.288 3.612 10.221 3.612zm0 5.695H86.927c-12.4 0-18.597-3.204-18.597-9.757V18.092c0-6.554 6.197-9.764 18.597-9.764h14.893c12.4 0 18.599 3.21 18.599 9.764v11.126c0 6.553-6.199 9.757-18.599 9.757zm159.51-5.695h-14.892c-6.932 0-10.221-1.19-10.221-3.611V17.64c0-2.42 3.289-3.61 10.221-3.61h14.892c6.934 0 10.223 1.19 10.223 3.61v12.028c0 2.422-3.289 3.612-10.223 3.612zm0 5.696c12.4 0 18.599-3.204 18.599-9.756V18.093c0-6.553-6.199-9.762-18.599-9.762h-14.892c-12.399 0-18.597 3.209-18.597 9.762V29.22c0 6.552 6.198 9.756 18.597 9.756zm-201.583-9.9v-7.694c0-1.667-1.027-2.426-3.096-2.426H38.495c-1.64 0-2.979 1.404-2.979 3.116 0 1.717 1.339 3.119 2.979 3.119h12.419v4.137c0 1.241-1.613 2.441-4.318 3.17-2.148.578-3.94.634-5.842.634H20.781c-7.96 0-11.948-1.317-11.948-3.96V9.631c0-2.635 4.76-3.858 14.263-3.858h5.616c2.147 0 3.225-.968 3.225-2.897C31.937.957 30.859 0 28.712 0h-7.969c-4.809 0-9.236.528-13.184 1.885C3.067 3.428 0 6.142 0 9.647v19.564c0 3.642 2.476 6.289 7.409 7.943 3.589 1.213 8.004 1.821 13.265 1.821H40.74c4.897 0 9.043-.674 12.445-2.019 4.378-1.719 6.562-4.345 6.562-7.88M180.82 15.19c0 3.144-3.924 4.055-11.607 4.055h-31.224V5.773h31.224c7.683 0 11.607.912 11.607 4.055zm1.146-13.551C178.456.59 174.202 0 169.213 0h-37.535a2.52 2.52 0 0 0-2.52 2.519v33.902c0 1.706 1.061 2.554 3.102 2.554h2.626c2.042 0 3.103-.848 3.103-2.554V25.019h31.224c5.314 0 9.4-.583 13.161-1.826 4.827-1.773 7.279-4.592 7.279-8.454V8.648c0-3.083-2.534-5.439-7.687-7.009zM218.88 8.33c-7.702 0-10.962-.14-15.524 1.731-4.291 1.761-6.119 4.856-6.119 7.704v18.778c0 1.624 1.011 2.432 2.956 2.432h2.5c1.944 0 2.954-.808 2.954-2.432V17.765c0-2.623 3.251-3.735 9.693-3.735h3.6c2.103 0 3.101-.96 3.101-2.85 0-1.882-1.057-2.85-3.161-2.85" fill="#fff"/><path fill="#009fdf" mask="url(#b)" d="M60.739 48.576H0v39.763h60.739zm73.061 0H73.063v39.763H133.8z"/><path fill="#005dac" mask="url(#b)" d="M206.86 48.576h-60.74v39.763h60.74z"/><path fill="#fff" mask="url(#b)" d="M279.93 48.576h-60.74v39.763h60.74z"/></svg>