<svg xmlns="http://www.w3.org/2000/svg" version="1.1" id="Layer_1" x="0" y="0" xml:space="preserve" width="54.194" height="54.194"><style type="text/css" id="style7400">.st4{fill:#0f2648}.st5{fill:#7d9ebd}</style><g id="g8075" transform="translate(-181.135 .003)"><path class="st4" d="M214.44 15.16a2.414 2.414 0 00-3.27-.99l-13.51 7.25v5.49l15.79-8.47c1.17-.64 1.62-2.1.99-3.28" id="path7402"/><path class="st4" d="M227.4 8.76c-.84-3.36-3.13-6.04-6.43-7.55-3.75-1.72-8.24-1.61-12.07.32l-11.24 6.04v5.49l13.48-7.24c2.47-1.24 5.39-1.32 7.83-.21 1.94.88 3.27 2.43 3.75 4.33 1.6 6.37.17 11.62-11.93 18.08l-13.12 7.05v5.48l15.4-8.27c12.5-6.68 16.79-13.72 14.33-23.52" id="path7404"/><path class="st4" d="M208.97 48.11l-11.31 6.08V48.7l9.03-4.85c1.61-.87 3.56.3 3.56 2.13-.01.9-.49 1.71-1.28 2.13" id="path7406"/><path class="st5" d="M188.4 43.77v5.45l9.26 4.97V48.7l-9.03-4.85c-.07-.03-.15-.05-.23-.08" id="path7408"/><path class="st5" d="M188.4 30.13v5.45l9.26 4.97v-5.48l-9.03-4.85c-.07-.05-.15-.06-.23-.09" id="path7410"/><path class="st5" d="M188.63 2.72c-.08-.04-.16-.05-.23-.09v5.45l9.26 4.97V7.57z" id="path7412"/><path class="st5" d="M188.4 16.48v5.45l9.26 4.97v-5.49l-9.03-4.85c-.07-.03-.15-.05-.23-.08" id="path7414"/></g></svg>