<svg xmlns="http://www.w3.org/2000/svg" width="100.15" height="100.15"><path d="M91.64 42.855a29.05 29.05 0 00-20.58-8.54 29.07 29.07 0 00-20.59 8.54l-6.64 6.57 6.21 6.21 6.6-6.61a20.36 20.36 0 0134.75 14.4c0 11.242-9.108 20.359-20.35 20.37a20.27 20.27 0 01-11.81-3.81l-.19.19-6 6.12a29 29 0 0018 6.28c16.078-.017 29.104-13.052 29.11-29.13a29 29 0 00-8.51-20.59z" fill="#00aaeb"/><path d="M43.53 77.865a20.28 20.28 0 01-14.4 6 20.37 20.37 0 01-20.35-20.44c.017-11.227 9.123-20.32 20.35-20.32a20.26 20.26 0 0111.76 3.77l.17-.18 6.11-6.11a29.08 29.08 0 00-18-6.27A29.14 29.14 0 000 63.425c0 16.079 13.031 29.114 29.11 29.12a29.07 29.07 0 0020.59-8.47c.41-.4 6.51-6.6 6.51-6.6L50 71.265z" fill="#ffb400"/><path d="M27.95 30.425a20.26 20.26 0 0119.33-14.06 20.25 20.25 0 0114.39 6 20 20 0 015 8.39 31.85 31.85 0 013.65-.28h1.38a34.69 34.69 0 014.07.32C73.018 17.264 61.108 7.55 47.3 7.575c-14.321-.02-26.512 10.417-28.7 24.57a32.88 32.88 0 019.35-1.72z" fill="#00aaeb"/></svg>