<svg xmlns="http://www.w3.org/2000/svg" viewBox="0 0 200 200"><path d="M139.94,84.43a29.05,29.05,0,0,0-20.58-8.54h0a29.07,29.07,0,0,0-20.59,8.54L92.13,91l6.21,6.21,6.6-6.61A20.36,20.36,0,0,1,139.69,105h0a20.37,20.37,0,0,1-20.35,20.37h0a20.27,20.27,0,0,1-11.81-3.81l-.19.19s-4.5,4.57-6,6.12a29,29,0,0,0,18,6.28h0a29.14,29.14,0,0,0,29.11-29.13v0A29,29,0,0,0,139.94,84.43Z" fill="#00AAEB"/><path d="M91.83,119.44a20.28,20.28,0,0,1-14.4,6h0A20.37,20.37,0,0,1,57.08,105h0A20.35,20.35,0,0,1,77.43,84.68h0a20.26,20.26,0,0,1,11.76,3.77l.17-.18,6.11-6.11a29.08,29.08,0,0,0-18-6.27h0A29.14,29.14,0,0,0,48.3,105v0h0v0a29.12,29.12,0,0,0,29.11,29.12h0A29.07,29.07,0,0,0,98,125.65c.41-.4,6.51-6.6,6.51-6.6l-6.21-6.21Z" fill="#FFB400"/><path d="M76.25,72A20.26,20.26,0,0,1,95.58,57.94h0a20.25,20.25,0,0,1,14.39,6,20,20,0,0,1,5,8.39,31.85,31.85,0,0,1,3.65-.28H120a34.69,34.69,0,0,1,4.07.32A29,29,0,0,0,95.6,49.15h0a29,29,0,0,0-28.7,24.57A32.88,32.88,0,0,1,76.25,72Z" fill="#00AAEB"/></svg>