<svg xmlns="http://www.w3.org/2000/svg" viewBox="0 0 88 90"><path fill="#499ed9" fill-rule="evenodd" d="M85.632 16.968a4.14 4.14 0 0 1-1.5 2.494c-.727.658-1.668 1.03-2.65 1.048h-66.14a2.8 2.8 0 0 1-2.3-1.048 2.94 2.94 0 0 1-.6-2.494l2.35-13.42a4.19 4.19 0 0 1 1.5-2.494c.727-.658 1.668-1.03 2.65-1.048h66.09a2.85 2.85 0 0 1 2.3 1.048 2.94 2.94 0 0 1 .6 2.494l-2.3 13.42zM54.337 48.446H38.439a2.8 2.8 0 0 1-2.3-1.048 2.94 2.94 0 0 1-.6-2.494l2.35-13.37a4.19 4.19 0 0 1 1.5-2.494c.727-.658 1.668-1.03 2.65-1.048h29.995a2.8 2.8 0 0 1 2.3 1.048 2.94 2.94 0 0 1 .6 2.494l-2.15 13.37a4.14 4.14 0 0 1-1.5 2.494c-.724.662-1.667 1.035-2.65 1.048H54.337h0zM13.943 27.993h13.498a2.85 2.85 0 0 1 2.3 1.048 2.89 2.89 0 0 1 .6 2.444L26.041 55.78h32.945a2.85 2.85 0 0 1 2.3 1.048 2.94 2.94 0 0 1 .6 2.494l-2.35 13.37a4.14 4.14 0 0 1-1.5 2.494c-.727.658-1.668 1.03-2.65 1.048H22.442l-1.8 10.277a4.09 4.09 0 0 1-1.45 2.444c-.727.658-1.668 1.03-2.65 1.048H3.045a2.8 2.8 0 0 1-2.3-1.048 2.89 2.89 0 0 1-.7-2.444l2.6-14.966.4-1.696 6.999-38.363a4.09 4.09 0 0 1 1.45-2.444c.675-.615 1.538-.984 2.45-1.048z"/></svg>