<svg xmlns="http://www.w3.org/2000/svg" width="198.25px" height="66px" viewBox="0 0 198.25 66"><g><path fill="#C32127" d="M11.319,9.693c3.669-2.039,8.22-2.775,12.019-2.981c-0.026-1.968,0.035-3.455,0.087-4.298C18.851,3.937,14.731,6.449,11.319,9.693z"/><path fill="#C32127" d="M10.218,33.949c0-0.589,0.18-1.136,0.489-1.59c-2.652-3.519-5.679-8.575-6.058-13.679C2.477,23.017,1.25,27.907,1.25,33.086c0,6.622,2,12.776,5.424,17.901c0.279-2.013,1.315-7.897,4.496-14.937C10.59,35.533,10.218,34.787,10.218,33.949z"/><path fill="#C32127" d="M43.162,51.591c-0.043,0.101-0.101,0.191-0.155,0.283c4.689,4.506,8.708,6.737,9.65,7.23c3.782-2.928,6.897-6.675,9.081-10.972C59.389,49.472,52.667,52.619,43.162,51.591z"/><path fill="#C32127" d="M42.005,52.896c-0.426,0.255-0.923,0.412-1.458,0.412c-1.531,0-2.773-1.212-2.832-2.727c-6.741-1.771-14.518-5.726-22.916-13.484c0,0-0.217-0.215-0.563-0.576c-0.36,0.164-0.756,0.26-1.176,0.26c-0.103,0-0.201-0.017-0.301-0.03c-2.088,4.589-3.811,9.813-4.978,15.795c5.926,7.826,15.333,12.882,25.928,12.882c6.542,0,12.626-1.934,17.724-5.25C47.856,57.964,44.736,55.506,42.005,52.896z"/><path fill="#C32127" d="M49.309,5.739c-1.482,0.331-4.15,1.046-7.464,2.396c0.072,0.252,0.125,0.511,0.125,0.787c0,0.197-0.02,0.388-0.059,0.574c11.84,3.852,18.5,10.099,22.224,15.757C61.936,16.979,56.521,10.008,49.309,5.739z"/><path fill="#C32127" d="M27.028,15.119c2.741-2.106,5.815-4.072,9.292-5.807c-0.013-0.09-0.022-0.178-0.027-0.27c-4.146-1.037-7.915-1.343-11.234-1.207c0.045,2.358,0.215,4.596,0.448,6.767C26.071,14.627,26.595,14.812,27.028,15.119z"/><path fill="#C32127" d="M64.916,29.125c-3.864-7.318-10.74-11.701-10.74-11.701c-4.528-3.107-8.805-5.288-12.803-6.787c-0.519,0.675-1.329,1.118-2.249,1.118c-0.98,0-1.846-0.497-2.357-1.25c-2.789,1.474-5.789,3.363-8.792,5.762c0.159,0.353,0.25,0.743,0.25,1.155c0,1.244-0.81,2.29-1.93,2.669c2.359,12.605,7.714,21.649,13.006,27.85	c0.377-0.186,0.797-0.302,1.246-0.302c1.417,0,2.583,1.037,2.8,2.388c5.344,0.718,13.317,0.624,19.538-4.407c1.503-3.729,2.333-7.796,2.333-12.058C65.218,32.055,65.117,30.572,64.916,29.125z"/><path fill="#C32127" d="M39.124,6.085c0.874,0,1.646,0.402,2.168,1.02c2.061-0.809,4.227-1.55,6.533-2.193C43.322,2.557,38.2,1.217,32.76,1.217c-2.627,0-5.178,0.319-7.625,0.906c-0.073,1.547-0.099,3.055-0.09,4.529c3.43-0.057,5.905,0.27,5.905,0.27c1.935,0.3,3.764,0.654,5.503,1.058C36.844,6.88,37.887,6.085,39.124,6.085z"/><path fill="#C32127" d="M23.926,15.002c-0.337-2.667-0.496-5.057-0.561-7.057c-9.17,0.812-14.534,4.852-14.534,4.852s-0.28,0.152-0.666,0.346c-0.881,1.119-1.691,2.296-2.417,3.527c0.149,1.782,1.01,8.04,5.842,14.866c0.428-0.261,0.93-0.419,1.47-0.419c0.2,0,0.394,0.021,0.581,0.06c2.307-4.053,5.356-8.267,9.362-12.212c-0.292-0.444-0.463-0.974-0.463-1.543C22.54,16.39,23.099,15.497,23.926,15.002z"/><path fill="#C32127" d="M38.203,48.876c-7.932-9.27-11.695-19.874-13.436-28.692c-0.188-0.041-0.367-0.101-0.539-0.178c-3.252,3.273-6.372,7.241-9.079,12.035c0.463,0.504,0.754,1.17,0.754,1.908c0,0.731-0.285,1.39-0.74,1.893c4.704,4.895,11.742,9.66,22.303,12.904c0,0,0.255,0.079,0.688,0.208C38.171,48.928,38.186,48.901,38.203,48.876z"/></g></svg>