<svg xmlns="http://www.w3.org/2000/svg" viewBox="0 0 63.968 64.211"><g transform="translate(-1.25,-1.217)" fill="#c32127"><path d="m11.319 9.693c3.669-2.039 8.22-2.775 12.019-2.981-0.026-1.968 0.035-3.455 0.087-4.298-4.574 1.523-8.694 4.035-12.106 7.279z"/><path d="m10.218 33.949c0-0.589 0.18-1.136 0.489-1.59-2.652-3.519-5.679-8.575-6.058-13.679-2.172 4.337-3.399 9.227-3.399 14.406 0 6.622 2 12.776 5.424 17.901 0.279-2.013 1.315-7.897 4.496-14.937-0.58-0.517-0.952-1.263-0.952-2.101z"/><path d="m43.162 51.591c-0.043 0.101-0.101 0.191-0.155 0.283 4.689 4.506 8.708 6.737 9.65 7.23 3.782-2.928 6.897-6.675 9.081-10.972-2.349 1.34-9.071 4.487-18.576 3.459z"/><path d="m42.005 52.896c-0.426 0.255-0.923 0.412-1.458 0.412-1.531 0-2.773-1.212-2.832-2.727-6.741-1.771-14.518-5.726-22.916-13.484 0 0-0.217-0.215-0.563-0.576-0.36 0.164-0.756 0.26-1.176 0.26-0.103 0-0.201-0.017-0.301-0.03-2.088 4.589-3.811 9.813-4.978 15.795 5.926 7.826 15.333 12.882 25.928 12.882 6.542 0 12.626-1.934 17.724-5.25-3.577-2.214-6.697-4.672-9.428-7.282z"/><path d="m49.309 5.739c-1.482 0.331-4.15 1.046-7.464 2.396 0.072 0.252 0.125 0.511 0.125 0.787 0 0.197-0.02 0.388-0.059 0.574 11.84 3.852 18.5 10.099 22.224 15.757-2.199-8.274-7.614-15.245-14.826-19.514z"/><path d="m27.028 15.119c2.741-2.106 5.815-4.072 9.292-5.807-0.013-0.09-0.022-0.178-0.027-0.27-4.146-1.037-7.915-1.343-11.234-1.207 0.045 2.358 0.215 4.596 0.448 6.767 0.564 0.025 1.088 0.21 1.521 0.517z"/><path d="m64.916 29.125c-3.864-7.318-10.74-11.701-10.74-11.701-4.528-3.107-8.805-5.288-12.803-6.787-0.519 0.675-1.329 1.118-2.249 1.118-0.98 0-1.846-0.497-2.357-1.25-2.789 1.474-5.789 3.363-8.792 5.762 0.159 0.353 0.25 0.743 0.25 1.155 0 1.244-0.81 2.29-1.93 2.669 2.359 12.605 7.714 21.649 13.006 27.85 0.377-0.186 0.797-0.302 1.246-0.302 1.417 0 2.583 1.037 2.8 2.388 5.344 0.718 13.317 0.624 19.538-4.407 1.503-3.729 2.333-7.796 2.333-12.058 0-1.507-0.101-2.99-0.302-4.437z"/><path d="m39.124 6.085c0.874 0 1.646 0.402 2.168 1.02 2.061-0.809 4.227-1.55 6.533-2.193-4.503-2.355-9.625-3.695-15.065-3.695-2.627 0-5.178 0.319-7.625 0.906-0.073 1.547-0.099 3.055-0.09 4.529 3.43-0.057 5.905 0.27 5.905 0.27 1.935 0.3 3.764 0.654 5.503 1.058 0.391-1.1 1.434-1.895 2.671-1.895z"/><path d="m23.926 15.002c-0.337-2.667-0.496-5.057-0.561-7.057-9.17 0.812-14.534 4.852-14.534 4.852s-0.28 0.152-0.666 0.346c-0.881 1.119-1.691 2.296-2.417 3.527 0.149 1.782 1.01 8.04 5.842 14.866 0.428-0.261 0.93-0.419 1.47-0.419 0.2 0 0.394 0.021 0.581 0.06 2.307-4.053 5.356-8.267 9.362-12.212-0.292-0.444-0.463-0.974-0.463-1.543 0-1.032 0.559-1.925 1.386-2.42z"/><path d="m38.203 48.876c-7.932-9.27-11.695-19.874-13.436-28.692-0.188-0.041-0.367-0.101-0.539-0.178-3.252 3.273-6.372 7.241-9.079 12.035 0.463 0.504 0.754 1.17 0.754 1.908 0 0.731-0.285 1.39-0.74 1.893 4.704 4.895 11.742 9.66 22.303 12.904 0 0 0.255 0.079 0.688 0.208 0.017-0.026 0.032-0.053 0.049-0.078z"/></g></svg>