<svg xmlns="http://www.w3.org/2000/svg" xmlns:xlink="http://www.w3.org/1999/xlink" xml:space="preserve" viewBox="0 0 261.5 181.5"><g transform="translate(-.9 -41.4)"><defs><path id="a" d="M-28.4-21.6h352.7v306.8H-28.4z"/></defs><clipPath id="b"><use xlink:href="#a" width="100%" height="100%" overflow="visible"/></clipPath><path fill="#39a8e5" d="m59.1 44.5 56 25.5h85.8l7.1-12.3c4.3-7.4-.9-16.3-8.7-16.3H59.7c-1.9 0-2.3 2.3-.6 3.1M63 155.3l73.2-1.4a30 30 0 0 0 24.1-13.5l11-19.1-112 30.3c2.3 1 3.3 2.3 3.7 3.7m191.8-74.4H115.1L1.5 152.8c-1.4 1.1-.2 3.2 1.4 2.8l252.8-68.5A3 3 0 0 0 258 84c0-1.9-1.6-3.1-3.2-3.1" clip-path="url(#b)"/><path fill="#164194" d="m118.2 158.5 19.8 22h6.1v-31.3h-6.4v21.5l-19.4-21.5h-6.4v31.3h6.4v-22zm80.1-19.8H217l3.7-6h-18v-25.2H196v29c0 1.3.8 2.2 2.3 2.2m-152.4 52-11.3.2v31.3h6.6v-9.3h5.1c10 0 17.2-2.5 17.2-11.3.1-7.8-6.1-10.9-17.6-10.9m9.5 14.3c-1.9 1.9-5.6 1.9-9.5 1.9h-4.7v-10h4.7c5.1 0 7.9.2 9.7 2 .6.6 1.1 1.8 1.1 2.8 0 1.4-.4 2.4-1.3 3.3m155-23.9c9.1 0 15.4-4.7 15.4-14.2v-17.7h-6.6v17.2c0 5.6-2.8 8.8-8.8 8.8-5.9 0-8.8-3.2-8.8-8.8v-17.2H195v17.7c0 9.4 6.3 14.2 15.4 14.2m-41-.6a20 20 0 0 0 10.9-3.1l1.2 1.6c.8 1.2 2.4 1.5 4.1 1.5h5.4l-6.1-7.1a13 13 0 0 0 3.4-8.8c0-8.9-7.3-15.9-18.9-15.9-11.5 0-18.9 7.1-18.9 15.9s7.4 15.9 18.9 15.9m0-26c6.9 0 12.1 4.1 12.1 10s-5.2 10-12.1 10c-6.8 0-12-4.1-12-10s5.1-10 12-10m-91.7 20.3h19.2l1.9 3.7c.9 1.9 1.8 2 4.2 2h3.9l-16.4-31.6h-6.4l-16.4 31.6h7.1zm9.6-19.1 6.6 13.1H80.7Zm-2.2 34.6c-11.8 0-18.9 7.3-18.9 16.3s7.1 16.3 18.9 16.3c11.8 0 18.9-7.3 18.9-16.3s-7-16.3-18.9-16.3m0 26.6c-7.1 0-12.1-4.1-12.1-10.3 0-6.3 5-10.3 12.1-10.3 7 0 12 4.1 12 10.3 0 6.2-5 10.3-12 10.3m-26.5-52.5c3.7-1.1 5.9-3.5 5.9-7.2 0-5.7-4.9-8.2-14.4-8.2-4.6 0-11.4 0-15.6.2v31.3c5 .2 10.5.2 15.1.2 9.3 0 15.8-2.1 15.8-8.9.1-3.7-2.7-6.5-6.8-7.4m-17.4-9.8h10c4 0 6.5.9 6.5 3.4 0 3.2-2.6 3.8-7.5 3.8h-9.1v-7.2zm9.5 20.4h-9.5v-7.5H52c3.7 0 6.5.8 6.5 3.7.1 3.2-3.2 3.8-7.8 3.8m161 15.9h-6.6v29c0 1.3.8 2.2 2.3 2.2h22.4v-6h-18v-25.2zm21.9 29.1c0 1.3.8 2.2 2.3 2.2h25.5v-6h-21.1v-6.9h18.9v-6h-18.9V197h21.1v-6h-27.7v29zm0-41.8c0 1.3.8 2.2 2.3 2.2h25.5v-6h-21.1v-6.9h18.9v-6h-18.9v-6.3h21.1v-6h-27.7v29zm20.7-41.5c.9 1.9 1.8 2 4.2 2h3.9L246 107.1h-6.4l-16.4 31.6h7.1l2.9-5.7h19.2zm-18.1-9.5 6.6-13.1 6.6 13.1zm-121 72.1c0-2.3 3-3.4 7.1-3.4 3.2 0 7.6 1.6 8.6 2.3l3.4-5c-2-1.3-7.5-2.8-11.8-2.8-8 0-14.1 4.2-14.1 10 0 10.9 21.2 7.1 21.2 13.4 0 2.6-3.8 3.5-7 3.5-4.4 0-9.4-1.5-12.5-3.9l-3.4 5a29.5 29.5 0 0 0 15.3 4.5c7.9 0 14.5-3.7 14.5-9.8-.1-11.2-21.3-8-21.3-13.8m52.8-8.4h-30.5v6h11.9v25.2h6.6v-25.2h12zm11.1-.3-16.4 31.6h7.1l2.9-5.7h19.2l1.9 3.7c.9 1.9 1.8 2 4.2 2h3.9l-16.4-31.6zm-3.4 20 6.6-13.1 6.6 13.1z" clip-path="url(#b)"/></g></svg>