<svg xmlns="http://www.w3.org/2000/svg" viewBox="0 90 612 612"><radialGradient id="a" cx="29.148" cy="762.726" r="279.103" gradientTransform="matrix(2.1587 0 0 -2.1587 0 1799.714)" gradientUnits="userSpaceOnUse"><stop offset="0" stop-color="#006cb5"/><stop offset="1" stop-color="#1f3460"/></radialGradient><path fill="url(#a)" d="M0 90h612v612H0z"/><g><radialGradient id="b" cx="149.399" cy="722.651" r="133.909" fx="132.103" fy="722.722" gradientTransform="matrix(2.1587 0 0 -1.2128 0 1116.111)" gradientUnits="userSpaceOnUse"><stop offset=".064" stop-opacity=".5"/><stop offset="1" stop-opacity="0"/></radialGradient><path fill="url(#b)" d="M0 90h612v336.5H0z"/><g fill="#FFF"><path d="M103.4 482c0-6.3-4.1-10.6-11-10.6h-25v21.2h25.3c6.6 0 10.7-4.3 10.7-10.6zm3.5 32.6c0-6.3-4.3-11-11.4-11H67.4v22h28.3c6.8 0 11.2-4.3 11.2-11zM55 460.2h39.1c13.6 0 21.8 8.9 21.8 20.1 0 8.6-5 14.7-11.2 16.8 8.2 1.7 14.7 9.1 14.7 18.8 0 12.3-8.6 20.7-22 20.7H55v-76.4zM170.3 473.4l-14.9 36.3h30l-15.1-36.3zm25.7 63.2l-6.5-15.8h-38.4l-6.5 15.8H131l32.6-76.4H177l32.6 76.4H196zM281.1 536.6l-43.8-56.8v56.8H225v-76.4h11.9l43.4 55.9v-55.9h12.3v76.4h-11.5zM411.2 506.2v-46h12.3V506c0 13.6 8.2 20.7 21.2 20.7 13.2 0 21.2-7.1 21.2-20.7v-45.8h12.3v46c0 20.9-13.4 31.7-33.5 31.7-19.9 0-33.5-11-33.5-31.7zM500.6 536.6v-76.4h55.9v11.2h-43.6v20.9h34.5v11.2h-34.5v22h44v11.2h-56.3v-.1zM88.5 570.3H55V647h12.3v-28.1h19.2c.6 0 3.5 0 4.1-.2 13.6-.9 22.9-11.2 22.9-24.2 0-13.4-9.9-24.2-25-24.2zm-1.1 37.4h-20v-26.1h20.1c7.8 0 13.8 5.4 13.8 13.2-.1 7.5-6.1 12.9-13.9 12.9zM351.9 581.5v-11.2h-59.2v11.2h23.6V647h12v-65.5zM454 570.3h-12.1V647h47.3v-11.3H454zM252.4 601.8c-13.4-2.4-20.1-4.3-19.9-10.6.2-5.8 5-10.1 13.4-11 1.9-.2 3.9-.2 6 0 6.9.4 14 3 18.6 6.9.4.2 1.1.6 1.3 1.1l6.7-9.7c-6.3-5.6-17.3-9.5-28.3-9.5-17.9 0-30 9.7-30.2 23.1-.4 15.8 14 19 27.4 21.4 15.1 2.8 22 4.3 21.8 11-.2 6.3-5.6 11.4-16.6 12.1h-4.3c-9.9-.6-17.7-3.9-23.1-9.1-.4-.4-.9-.6-1.3-1.1l-6.9 9.9c8 7.6 19 11.7 32.6 11.7 19.6 0 31.5-9.7 31.9-24 .6-17-14.7-19.6-29.1-22.2zM166.2 568.8c-23.3 0-39.7 17.1-39.7 39.5 0 22.2 16.4 39.5 39.7 39.5s39.7-17.1 39.7-39.5c.3-22.4-16.4-39.5-39.7-39.5zm0 67.6c-16.6 0-27.4-12.3-27.4-28.3s10.6-28.3 27.4-28.3c16.6 0 27.4 12.3 27.4 28.3s-10.5 28.3-27.4 28.3zM381 570.3L348.4 647H362l6.5-15.8h38.4l6.5 15.8H427l-32.6-76.4H381v-.3zm-8.2 49.7l14.9-36.3 14.9 36.3h-29.8zM514.9 635.7v-22h32.6v-11.2h-32.6v-21h41.6v-11.2h-53.9V647H557v-11.3zM392.2 498.4c0-22.2-16.4-39.5-39.7-39.5-23.3 0-39.7 17.1-39.7 39.5 0 22.5 16.4 39.5 39.7 39.5 3.5 0 6.7-.4 9.7-1.1l5.6 13.6h13.6l-8-17.9c11.7-6.9 18.8-19.4 18.8-34.1zm-39.7 28.3c-16.6 0-27.4-12.3-27.4-28.3s10.6-28.3 27.4-28.3c16.6 0 27.4 12.3 27.4 28.3 0 9.7-4.1 18.1-11 23.3l-3-7.1h-13l5 11.7c-1.9.2-3.7.4-5.4.4z"/></g><g fill="#FC0"><path d="M55 426.5v-76.4h12.3v65.4h40.2v11.2H55v-.2zM161.3 363.3l-14.9 36.3h30l-15.1-36.3zm25.9 63.2l-6.5-15.8H142l-6.5 15.8H122l32.6-76.4H168l32.8 76.4h-13.6z"/></g><path fill="#FFF" d="M176.6 147.6c23.3 8.2 61.5 23.1 81.6 41.2l146.8-1.5c4.1-5.2 5.6-7.3 10.1-13.2 10.6-14.2 11.2-28.7-11.4-28.9-12.1-.2-203.1.6-225.4.9-3.4-.2-6-.2-1.7 1.5zm340.8 46.2l-255.2 4.7c1.1 10.4-10.1 25.5-33.2 39.7-11.9 7.3-38.9 21.8-134.7 58.1-1.3.4-.6 1.9.2 1.7 165.6-42 275.5-73.3 422.9-101.4 4.6-.8 7.4-2.8 0-2.8zm-153.9 45.4L134.7 297c-.4.2-.9.9.4.9l177.2-5.6c10.8-.4 18.6-9.1 22.7-14.5l28.9-37.6c.7-.6.7-1.5-.4-1z"/></g></svg>