<svg xmlns="http://www.w3.org/2000/svg" width="704.328" height="704.328"><path d="M207.142 542.739c36.922-4.835 75.335-15.822 103.618-41.022-8.422-22.427-16.86-44.849-25.263-67.283-26.025 20.328-55.394 39.365-89.182 43.41-42.645 8.17-86.353-19.107-100.21-59.785-16.273-45.45-14.653-98.108 5.023-142.249 15.94-34.035 53.642-55.742 91.142-50.987 42.415-1.714 77.257 30.878 91.526 68.676 23.778 55.504 33.629 116.979 65.043 169.094 37.539 60.866 113.445 83.258 181.461 81.076 52.418 1.012 112.735-3.418 151.195-43.6 28.882-32.918 28.62-84.656 8.958-122.002-27.593-46.474-85.007-54.955-133.244-65.459-28.67-2.634-64.3-20.766-56.113-55.2 5.934-31.948 43.436-37.334 70.287-34.15 25.806.396 46.927 21.302 49.034 46.718a1614.959 1614.959 0 0080.739-9.04c-1.919-41.439-29.843-80.368-70.517-91.48-48.308-13.63-102.13-13.416-149.17 5.03-41.908 15.501-66.475 60.25-63.265 103.824-.822 42.688 29.974 80.762 70.527 92.097 36.831 13.85 78.27 14.294 113.061 33.367 25.91 13.476 26.332 57.545-3.33 66.8-32.455 11.929-68.78 10.388-102.369 4.55-47.68-9.414-80.474-51.854-92.924-96.723-23.204-60.215-34.148-129.846-83.385-175.844-48.139-43.6-118.33-46.206-179.53-39.417-57.495 8.401-109.105 49.088-126.446 105.235-16.084 45.41-16.25 95.093-9.758 142.307 8.785 56.193 47.529 108.346 103.606 124.144 32.001 10.713 66.227 10.413 99.486 7.913z" fill="#e31b23"/></svg>