<svg xmlns="http://www.w3.org/2000/svg" width="158.423" height="158.423" viewBox="0 0 41.916 41.916"><path d="M9.826 10.39l8.045 2.916c2.107-.765 4.32-1.565 6.36-2.303a3823.475 3823.475 0 01-15.349-5.57c-.555-.205-1-.432-1 .162v2.318c0 1.311.693 2.006 1.944 2.477m-1.93 5.762c.029.562.262.633.862.453l1.25-.453.421-.154.002.002c.906-.33 2.061-.749 3.362-1.218-2.124-.775-4.092-1.48-5.168-1.88-.48-.18-.73-.048-.73.503v2.193zm20.412.93l3.935-1.427c1.532-.555 1.79-1.097 1.117-1.343l.095.036a2.23 2.23 0 00-.208-.087 516.64 516.64 0 00-2.66-.96c-1.672.602-3.986 1.442-6.36 2.303zm-.012-7.553l-12.25-4.351c-1.25-.471-1.94-1.168-1.94-2.48V.381c0-.594.444-.367.998-.16 4.07 1.503 17.053 6.098 18.143 6.494.14.048.257.107.352.168.362.278-.042.741-1.356 1.219l-3.947 1.427" fill="#ed154e"/><path d="M33.36 6.76c.71.247.412.786-1.116 1.342-.804.29-16.142 5.845-21.815 7.898l-.004-.002c-.147.054-.284.107-.419.154l-1.25.454c-.598.18-.832.106-.861-.454 0 .35-.012 1.057.6 1.275l4.997 1.815s.358.116.697-.004c.45-.16 18.889-6.842 18.889-6.842.905-.33.956-1.09.956-3.273 0-2.038 0-2.126-.674-2.362M24.194 27.88c0-.962.104-1.78-.753-1.475l-9.414 3.408v4.566l9.203-3.314c.905-.33.964-.964.964-1.926zm-5.738 9.608c0-.962.105-1.783-.754-1.48l-3.675 1.343v4.566l3.471-1.246c.903-.328.958-.962.958-1.924zm14.622-17.535L14.02 26.858v-4.601s17.238-6.242 18.223-6.6c1.529-.555 1.79-1.099 1.116-1.345.686.25.674.33.674 2.366 0 2.185-.048 2.943-.956 3.274" fill="#29397b"/></svg>