<svg xmlns="http://www.w3.org/2000/svg" viewBox="0 0 89 78"><path d="M84 20a3 3 0 0 1-1 1.1c1.5 0 1-1 1-1"/><path d="M55.4 62.7a2.6 2.6 0 0 0 .9 1 11.8 11.8 0 0 1 2 1.3c.3.2.5.5.4.6s-.4 0-1-.6-1-.2-1 .2a19 19 0 0 1 0 1.9c-.1.6-.5.7-.4 0s-.4-2.4-1.1-2.3a1.3 1.3 0 0 0-1 .9c-.2.3-.4.6-.4.4a3.3 3.3 0 0 0-.3-1.6c-.4-.8-.5-.9-1-1s-.4-.4.4-.8a2.7 2.7 0 0 1 2.4 0m33-41.2c-.2-2.2-1.4-2.4-2.5-2.8s-3.2-1-4-1.5a6.8 6.8 0 0 0-2.4-.7c-.9-.2-3.1 0-4.2-.2s-2.6-.5-3-.2a4.3 4.3 0 0 1-2.9 2.2l-5 1.4c0-.7.1-3 2-6.3 2.4-4 3-5.3 2-6.4s-5.9 1.4-5.9 1.4a9.4 9.4 0 0 0 .2-1.2c1.4-.8 6.6-3.7 8.8-2.5 2.5 1.4-.6 5.2-.9 5.6s-3.6 5.4-4.3 7.5l1.4-.4s3.2-5 4.3-6.4 3.6-5.2 1.5-7-5.2-1-10.8 2.6c0-1.8-.3-4.6-2.8-5.5C55.6-.5 41.5.6 25.4 13.4A96.3 96.3 0 0 0 13 24.1C7.4 30 2.1 36 3.8 37c1.9 1 6.7-4.4 7.3-5 0 0 5 .3 11.4-5.1a11 11 0 0 0 8.2.9s-1.8 4.7 3.8 4.3c0 0-.5 2.3 1.4 2 0 0-11.1 6.5-11 6.7s5.8-2.1 8.5-3.5c1.6-.8 2.6-1.6 3.9-1.8a32 32 0 0 0 12.3-4c6.5-3.6 8.6-8.1 8.9-11.4 0 0-1.7 1.5-2 1.4s.2-1.7.4-2.8 1.4-5.3.2-4.8-5 4.2-6.4 1.8c-1-1.8 1.8-5.1 1.8-5.1s-8.8 4.8-10.4 2.3c-1.4-2.2 1-4 1-4a112.7 112.7 0 0 0-19.6 10.6c-9.8 6.7-15.8 15-17.7 15.3S21.3 14.2 40 6.8c10.2-4.1 17-4.6 19.8-3.4 1.6.8 1.4 2.8 1.4 3.3 0 0-1.5 13.5 1 16.9 0 0 2-1.2 3.7-2 0 0-.8 0-.4-.6.2-.4.9-.7 1.8-1 1.2-.3 3.4-.5 4.6-1.4s1-1.1 1.6-1.3a17.9 17.9 0 0 0 3.6.2 9 9 0 0 1 3 0 34.8 34.8 0 0 0 4.8 1.9c1.5.3 1.7.4 2.2 1.3a4.9 4.9 0 0 1 .6 2 8.3 8.3 0 0 0-3.2-.4c.5 0 1.1.3.3.5l-3.4 1a6 6 0 0 1 2.2-1.5h-3a3.8 3.8 0 0 0 1.1-2.1 4.8 4.8 0 0 0 .8-.2c.9-.3 0-.5-1.8-.6a25 25 0 0 1-3.2-.3l-.5.8a3.3 3.3 0 0 1 1.7-.2 1.2 1.2 0 0 0 1 1.2 1.6 1.6 0 0 0 1-.2 2 2 0 0 1-2.5 1.3 2.5 2.5 0 0 1-1.5-1.2s-1 2.2-2 2.7-6.2 3-8.4 5.6-3 3.5-4.6 4-1.9.5-2 .7-2 3-7.6 6c-1.8 1-2.6 1-2.9.6-.5-.5.2-1.3-.2-1.2a7 7 0 0 0-2.3.7c-1.9.8-3 1.5-4.4 1.6s-2.5-.3-2.6-2.2l-1 .3c-1 .3-6.2 2.7-8.1 2.8-1 0 .9-2.4.9-2.4s-5 3-6.1 3.5-4.1 1.7-3-1.4a83 83 0 0 1-17.8 7.7C1.3 51 .5 50.4.5 51.3c0 .4.4.5 1 .6a17 17 0 0 0 3.2-.1 68.8 68.8 0 0 0 9.8-2.3c5-1.6 6.4-3.3 9.9-2.3 4.3 1.2 6.5-.6 6.5-.6s.6 1.2 3.3 1.1c0 0 2.5 1.9 7 1.2a10 10 0 0 0 4.3.8 18 18 0 0 1 .3 3.9c-.1 2.2 0 2.8 1.2 1.7a39.8 39.8 0 0 1 1.4 4.7c.1 1 0 1.5.6 1.6a3.2 3.2 0 0 0 .8 0 2.3 2.3 0 0 0 1.6 1.2s0 .3-1.8 1c-1 .4-1.8 1.3-1.5 1.7h1.6a2.1 2.1 0 0 1 2.5-.3 1.1 1.1 0 0 1 .6 1.3 1.4 1.4 0 0 1-.2.5l-.4.5c-.2.3-.5 1-.4 1.1s.9 1.2-1 1.5c0 0 .1.3.7.3s2-1 2-1.4a6.9 6.9 0 0 0 1-1.8c.5-1 .6-1.2.7-1a2.9 2.9 0 0 1 .2 2.2c-.3.7-.5.8-.3 1.1a3 3 0 0 0 .4.3c.2.1.2.4-.3.8-.7.8 1.3-.1 1.6-.8 0 0 .7-.8.4-3.7 0 0 0-.3.4 0a2 2 0 0 1 1 1.3c0 .6-.3 1 0 1.2s.5.8.3 1.1-1 .5-.7.5a1.7 1.7 0 0 0 1.9-1.6 4.8 4.8 0 0 0-2.5-4.9c-2-1.2-2.6-1.8-2.9-9a26.8 26.8 0 0 1 1.2-7.5c.6-2.4 1.4-3.7 1.5-3.4l-.7 3.2a68 68 0 0 0 7.6-4.5 17.1 17.1 0 0 0 2.7-2.7c0-.1 1.5-1.5 2-5.3l2.3-4.4s.8 1.5 1.6.6 2.2-3.4 2.5-3.4c0 0 .3 1.1.9.8s.7-1.6 2-2.2a33.4 33.4 0 0 1 3.8-1.4s5.4-1.3 5.6-1a5 5 0 0 1 .2 1.4 5.5 5.5 0 0 0 .5-3.4"/><path d="M24.4 48.3c-1.5-.5-3.6 0-5.7 1S6.5 53.5.8 53.2c0 0 .9 1.2 4.4 1.8 0 0-.3 2 3.1 1.2s15.9-6.3 18.5-7.8a3.6 3.6 0 0 1-2.4-.2m8.9.5a4.5 4.5 0 0 1-3.1-1L17.9 54s-5.6 2.6-4.5 3.3c0 0 1.7 1 5.6-.5s15-7.7 15-7.7l-.7-.4m5.2 1a6 6 0 0 1-2.8-.4s-6.6 4.2-7.9 4.9-3.2 1.5-1 1.8 4.5.1 8.3-3a43.2 43.2 0 0 0 3.5-3.2m23.4 13c1.3 0 4.2 1.9 4.2 2.1s-1.1-.2-1.4-.4-.8-.1-.4.3a5.3 5.3 0 0 1 .8 2h-.3a4.2 4.2 0 0 0-2-2.4c-.5-.2-.6 0-.7.3s.2 1.2-.2.1a5.7 5.7 0 0 0-1.8-2.1c-.3-.3-.1-.5-.1-.5a.8.8 0 0 1 .6-.1 2.8 2.8 0 0 1 1.3.6m-2.4-16-3 1.4a26 26 0 0 0-.4 6.6c.2 5.6.8 7.1 2.6 8.1a5.5 5.5 0 0 1 3 4.5c0 .7 0 .9.2 1.1s.2.4-.1 1-1 .5-.7.6a1.5 1.5 0 0 0 1.6-1c.4-1 1-1.4.1-3.5 0 0 1-.2 1.3 1.6.3 1.2-.1 1.6.8 1.9 0 0 .2.4-.4 1s.2.3.6.2a2.2 2.2 0 0 0 1-2.2 6.8 6.8 0 0 0-1-2.7 1.7 1.7 0 0 1 1 .8c.3.7.3 1 1.2 1a1.3 1.3 0 0 1 .4 1c0 .6-.7 1-.5 1s2-.7.7-2.9a2.5 2.5 0 0 0-1.2-1.6c-1-.5-2.3-2-4.6-2.4a7.2 7.2 0 0 1-1.3-1.8 3.7 3.7 0 0 0 .2-.5c0-.3-1.5-8.2 2.3-15.4l-3.9 2.2m-24 21.4 2.7 1.2a3 3 0 0 0 1.3 2.6 2.6 2.6 0 0 1-1 1.3l-.3.2h.3c2.7-1 3-3.6 2.8-5.3a3.7 3.7 0 0 0-1.3-2.5s4.5.6 6.2.3 0-.4 0-.4c-3.4 0-7.2-1.3-9.1-.7a4 4 0 0 0-2.7 3.8 4.3 4.3 0 0 0 1.6 4.1l.2.2-.1-.3a5.5 5.5 0 0 1-.6-4.5"/><path d="M82.2 71.6a24.6 24.6 0 0 1-5.6-.4l-.4.3a13.8 13.8 0 0 0 4.8.8c.6.1 0 .3 0 .3-2.9 2.3-7.6 1.6-14.5 1.6s-14 2-16.5 2.4c-1 .2-1.7-.7-2.4-1a12.7 12.7 0 0 0-1.6-.7 131.4 131.4 0 0 1 21.4-2.8c5.3-.4 9.7.4 10.2-3.6a4.4 4.4 0 0 0-.5-3 6 6 0 0 0-2.8-2.4 1.3 1.3 0 0 0-.6 0 29.7 29.7 0 0 1-6 1.3c-.6 0-.3.2-.3.2a16.1 16.1 0 0 0 6-.8.9.9 0 0 1 .5 0 4 4 0 0 1 2.5 2.6c1.1 3.1-1.3 3.8-3.4 4l-14 1.1c-3.3.1-12 1.4-15.3 1.9-2.4.4-5.5.6-5.5.6-.9 0 .5.4 3.8.9s4.2 1.8 5.6 2.6a5 5 0 0 0 2.8.3c1.4-.1 4.3-1 6.2-1.3a92.6 92.6 0 0 1 18.5-1c4.8.2 6.4-1.2 8-3.2.8-1-1-.6-1-.6"/></svg>