<svg xmlns="http://www.w3.org/2000/svg" width="89" height="78"><path d="M83.94 20.09a2.92 2.92 0 01-1 1.06c1.57 0 1-1.06 1-1.06"/><path d="M55.41 62.66a2.64 2.64 0 00.88 1 11.81 11.81 0 012.07 1.35c.2.2.41.51.3.59s-.39 0-1-.57-.93-.23-1 .12a19 19 0 010 1.92c-.1.64-.42.73-.39 0s-.37-2.36-1.08-2.3a1.32 1.32 0 00-1 .88c-.17.35-.43.69-.35.4a3.27 3.27 0 00-.31-1.54c-.38-.82-.5-.91-.94-1s-.48-.44.28-.77a2.69 2.69 0 012.41-.12m33-41.16c-.22-2.15-1.37-2.32-2.5-2.78s-3.16-1-3.91-1.49a6.82 6.82 0 00-2.43-.74c-.9-.14-3.17 0-4.21-.16s-2.64-.47-3-.24a4.28 4.28 0 01-2.91 2.25c-1.57.49-3.56 1-5 1.41 0-.75.08-3 2-6.29 2.4-4 3.07-5.36 2-6.41s-5.9 1.36-5.9 1.36a9.43 9.43 0 00.15-1.16c1.39-.82 6.66-3.75 8.81-2.55 2.49 1.39-.56 5.25-.84 5.61s-3.67 5.43-4.35 7.49l1.42-.39s3.15-5.06 4.24-6.4 3.61-5.19 1.59-6.89-5.28-1-10.83 2.54c.06-1.84-.3-4.6-2.84-5.56C55.61-.53 41.46.6 25.36 13.43a96.27 96.27 0 00-12.23 10.63c-5.69 5.9-11 12-9.3 12.94 1.86 1 6.68-4.4 7.25-5 0 0 5.06.31 11.39-5.11a11 11 0 008.28.91s-1.9 4.72 3.73 4.33c0 0-.48 2.3 1.43 1.91 0 0-11.13 6.52-10.94 6.78s5.7-2.17 8.4-3.54c1.62-.82 2.59-1.61 3.89-1.82a32.09 32.09 0 0012.38-4c6.47-3.54 8.54-8.11 8.84-11.39 0 0-1.65 1.49-2.06 1.44s.26-1.74.43-2.83 1.47-5.33.26-4.82-5 4.29-6.43 1.87c-1-1.79 1.79-5.15 1.79-5.15s-8.75 4.86-10.36 2.36c-1.43-2.22 1-4 1-4a112.71 112.71 0 00-19.56 10.59C13.66 26.22 7.7 34.44 5.77 34.76s15.53-20.51 34.36-28c10.16-4.06 17-4.59 19.73-3.31 1.6.74 1.41 2.79 1.41 3.29 0 0-1.42 13.45 1 16.82 0 0 2-1.13 3.73-1.87 0 0-.8 0-.4-.73.21-.4.86-.61 1.79-.9 1.26-.4 3.43-.57 4.59-1.41s1-1.18 1.61-1.38a17.88 17.88 0 003.58.28 9 9 0 013.1 0 34.81 34.81 0 004.76 1.85c1.5.28 1.67.39 2.17 1.27a4.88 4.88 0 01.6 2.11h-.06a8.25 8.25 0 00-3.18-.46c.57.06 1.14.3.3.5s-3.32 1-3.32 1a6 6 0 012.17-1.49h-3a3.76 3.76 0 001.13-2.13 4.8 4.8 0 00.79-.2c.82-.28-.09-.5-1.86-.57a25 25 0 01-3.17-.33l-.45.78a3.33 3.33 0 011.61-.23 1.21 1.21 0 001.08 1.2 1.65 1.65 0 00.9-.14 2 2 0 01-2.4 1.31 2.48 2.48 0 01-1.52-1.19s-1.06 2.18-2.06 2.71-6.2 2.91-8.34 5.54-3 3.52-4.64 4-1.84.49-2.05.72-2 3-7.57 6c-1.79 1-2.53.93-2.83.63-.5-.5.14-1.3-.21-1.28a7 7 0 00-2.34.8c-1.83.78-3 1.44-4.38 1.56s-2.54-.29-2.63-2.19c0 0-.06 0-1 .29s-6.17 2.74-8.07 2.76c-1 0 .86-2.36.86-2.36s-5 3-6.06 3.47-4.14 1.77-2.92-1.41a83 83 0 01-17.83 7.77C1.3 50.9.47 50.44.5 51.29c0 .4.39.55.91.58a16.94 16.94 0 003.31-.11 68.75 68.75 0 009.82-2.26c4.93-1.58 6.4-3.27 9.82-2.32 4.35 1.2 6.51-.6 6.51-.6s.66 1.18 3.34 1.13c0 0 2.45 1.86 6.92 1.15a10 10 0 004.39.87 18 18 0 01.31 3.87c-.16 2.17 0 2.78 1.21 1.71a39.75 39.75 0 011.38 4.68c.08.94.06 1.52.56 1.58a3.19 3.19 0 00.84 0 2.27 2.27 0 001.54 1.19s.11.36-1.77 1.1c-.94.37-1.8 1.25-1.47 1.68h1.62a2.14 2.14 0 012.43-.32 1.13 1.13 0 01.64 1.27 1.4 1.4 0 01-.23.48c-.06.1-.2.28-.36.55s-.48.91-.39 1.09.82 1.21-1 1.44c0 0 .09.36.65.33s2-.92 2-1.37a6.87 6.87 0 001.1-1.82c.42-1.07.47-1.23.61-1.07a2.86 2.86 0 01.24 2.25c-.29.71-.54.85-.31 1.16a3 3 0 00.39.29c.15.11.17.38-.27.81-.76.77 1.31-.14 1.6-.86 0 0 .66-.76.39-3.63 0 0 0-.31.33-.08a2 2 0 011 1.37c0 .53-.23 1 .13 1.18s.38.74.24 1.09-.94.45-.75.51a1.71 1.71 0 001.9-1.64 4.82 4.82 0 00-2.45-4.85c-2-1.21-2.62-1.81-2.93-9.06a26.8 26.8 0 011.16-7.44c.66-2.4 1.46-3.74 1.5-3.47.08.48-.57 2.3-.62 3.21a67.92 67.92 0 007.55-4.51 17.14 17.14 0 002.66-2.7c.07-.09 1.51-1.5 2.08-5.29l2.22-4.35s.88 1.46 1.62.58 2.28-3.4 2.52-3.43c0 0 .36 1.14.89.81s.74-1.55 2.1-2.2a33.4 33.4 0 013.73-1.36s5.37-1.33 5.56-.93a4.93 4.93 0 01.2 1.34 5.46 5.46 0 00.58-3.38"/><path d="M24.36 48.31c-1.46-.55-3.58 0-5.67.92s-12.14 4.32-17.88 4c0 0 .85 1.3 4.36 1.86 0 0-.29 2 3.17 1.21s15.86-6.32 18.47-7.8a3.6 3.6 0 01-2.45-.19M33.29 48.76a4.48 4.48 0 01-3.1-1l-12.3 6.36s-5.62 2.62-4.53 3.29c0 0 1.75 1 5.68-.53s15-7.67 15-7.67-.65-.45-.69-.45M38.51 49.89a6 6 0 01-2.8-.49s-6.64 4.22-7.89 4.9-3.23 1.48-1 1.83 4.52.12 8.24-3.09a43.16 43.16 0 003.5-3.15M62 62.76c1.3 0 4.22 1.94 4.17 2.17s-1.09-.27-1.39-.39-.74-.17-.4.31a5.27 5.27 0 01.79 1.86c0 .23-.24 0-.24 0a4.22 4.22 0 00-1.94-2.27c-.55-.21-.72-.08-.75.3s.17 1.13-.26.06a5.65 5.65 0 00-1.75-2.15c-.31-.2-.17-.42-.17-.42a.79.79 0 01.64-.15 2.81 2.81 0 011.3.64m-2.4-16c-1.31.7-2.94 1.42-2.94 1.42a26 26 0 00-.44 6.6c.2 5.53.8 7.07 2.6 8.11a5.53 5.53 0 013 4.44c0 .71-.09.89.14 1.14s.21.41-.06.89-1 .61-.73.65a1.48 1.48 0 001.63-.91c.43-1 .92-1.51.1-3.6 0 0 1-.16 1.33 1.64.23 1.15-.13 1.57.79 1.9 0 0 .14.41-.38 1s.16.33.52.15a2.16 2.16 0 001-2.11 6.78 6.78 0 00-1-2.72 1.74 1.74 0 011 .82c.37.66.32 1 1.24 1a1.32 1.32 0 01.42.94c0 .64-.76 1.09-.5 1s2-.7.68-2.88a2.55 2.55 0 00-1.23-1.58c-1-.53-2.27-2-4.59-2.41a7.16 7.16 0 01-1.27-1.78 3.68 3.68 0 00.19-.54c.05-.26-1.51-8.22 2.27-15.35 0 0-2.54 1.48-3.85 2.17M35.45 68.11l2.79 1.14a3 3 0 001.27 2.66 2.64 2.64 0 01-1 1.28c-.17.13-.31.16-.27.21s.15 0 .26-.06c2.66-1 2.92-3.49 2.8-5.19a3.73 3.73 0 00-1.25-2.55s4.48.62 6.11.29 0-.4 0-.4c-3.39 0-7.17-1.33-9.09-.7a4.06 4.06 0 00-2.71 3.81 4.32 4.32 0 001.61 4.12c.11.09.26.22.28.2s-.1-.21-.15-.29a5.5 5.5 0 01-.6-4.5"/><path d="M82.17 71.59a24.61 24.61 0 01-5.56-.35l-.4.24a13.79 13.79 0 004.84.83c.53.09-.1.31-.1.31-2.82 2.31-7.51 1.62-14.41 1.62s-14.13 2-16.5 2.35c-1 .16-1.75-.67-2.42-1a12.68 12.68 0 00-1.58-.69 131.41 131.41 0 0121.4-2.82c5.23-.36 9.65.38 10.2-3.57a4.41 4.41 0 00-.56-3 6.09 6.09 0 00-2.76-2.37 1.32 1.32 0 00-.65 0 29.71 29.71 0 01-6.06 1.22c-.55.07-.25.23-.25.23a16.14 16.14 0 006-.75.88.88 0 01.53 0 3.94 3.94 0 012.51 2.56c1.13 3.1-1.29 3.82-3.36 3.92s-10.8 1-14.11 1.2-12 1.39-15.21 1.86c-2.43.37-5.54.59-5.54.59-.84 0 .54.4 3.85.89s4.19 1.8 5.55 2.66a5.07 5.07 0 002.86.28c1.37-.14 4.28-1 6.14-1.28a92.63 92.63 0 0118.51-1c4.77.15 6.45-1.22 8.06-3.22.76-.94-1-.65-1-.65"/></svg>
