<?xml version="1.0" encoding="UTF-8" standalone="no" ?>
<!DOCTYPE svg PUBLIC "-//W3C//DTD SVG 1.1//EN" "http://www.w3.org/Graphics/SVG/1.1/DTD/svg11.dtd">
<svg xmlns="http://www.w3.org/2000/svg" xmlns:xlink="http://www.w3.org/1999/xlink" version="1.1" width="89" height="78" viewBox="0 0 89 78" xml:space="preserve">
<desc>Created with Fabric.js 3.6.6</desc>
<defs>
</defs>
<g transform="matrix(1 0 0 1 83.49 20.62)" id="Layer_1"  >
<path style="stroke: none; stroke-width: 1; stroke-dasharray: none; stroke-linecap: butt; stroke-dashoffset: 0; stroke-linejoin: miter; stroke-miterlimit: 4; fill: rgb(0,0,0); fill-rule: nonzero; opacity: 1;"  transform=" translate(-121.13, -59.02)" d="M 121.58 58.49 a 2.92 2.92 0 0 1 -1 1.06 c 1.57 0 1 -1.06 1 -1.06" stroke-linecap="round" />
</g>
<g transform="matrix(1 0 0 1 44.51 35.71)" id="Layer_1"  >
<path style="stroke: none; stroke-width: 1; stroke-dasharray: none; stroke-linecap: butt; stroke-dashoffset: 0; stroke-linejoin: miter; stroke-miterlimit: 4; fill: rgb(0,0,0); fill-rule: nonzero; opacity: 1;"  transform=" translate(-82.15, -74.11)" d="M 93.05 101.06 a 2.64 2.64 0 0 0 0.88 1 A 11.81 11.81 0 0 1 96 103.41 c 0.2 0.2 0.41 0.51 0.3 0.59 s -0.39 0 -1 -0.57 s -0.93 -0.23 -1 0.12 a 19 19 0 0 1 0 1.92 c -0.1 0.64 -0.42 0.73 -0.39 0 s -0.37 -2.36 -1.08 -2.3 a 1.32 1.32 0 0 0 -1 0.88 c -0.17 0.35 -0.43 0.69 -0.35 0.4 a 3.27 3.27 0 0 0 -0.31 -1.54 c -0.38 -0.82 -0.5 -0.91 -0.94 -1 s -0.48 -0.44 0.28 -0.77 a 2.69 2.69 0 0 1 2.41 -0.12 m 33 -41.16 c -0.22 -2.15 -1.37 -2.32 -2.5 -2.78 s -3.16 -1 -3.91 -1.49 a 6.82 6.82 0 0 0 -2.43 -0.74 c -0.9 -0.14 -3.17 0 -4.21 -0.16 s -2.64 -0.47 -3 -0.24 a 4.28 4.28 0 0 1 -2.91 2.25 c -1.57 0.49 -3.56 1 -5 1.41 c 0 -0.75 0.08 -3 2 -6.29 c 2.4 -4 3.07 -5.36 2 -6.41 s -5.9 1.36 -5.9 1.36 a 9.43 9.43 0 0 0 0.15 -1.16 c 1.39 -0.82 6.66 -3.75 8.81 -2.55 c 2.49 1.39 -0.56 5.25 -0.84 5.61 s -3.67 5.43 -4.35 7.49 l 1.42 -0.39 s 3.15 -5.06 4.24 -6.4 s 3.61 -5.19 1.59 -6.89 s -5.28 -1 -10.83 2.54 c 0.06 -1.84 -0.3 -4.6 -2.84 -5.56 C 93.25 37.87 79.1 39 63 51.83 A 96.27 96.27 0 0 0 50.77 62.46 c -5.69 5.9 -11 12 -9.3 12.94 c 1.86 1 6.68 -4.4 7.25 -5 c 0 0 5.06 0.31 11.39 -5.11 a 11 11 0 0 0 8.28 0.91 s -1.9 4.72 3.73 4.33 c 0 0 -0.48 2.3 1.43 1.91 c 0 0 -11.13 6.52 -10.94 6.78 s 5.7 -2.17 8.4 -3.54 c 1.62 -0.82 2.59 -1.61 3.89 -1.82 a 32.09 32.09 0 0 0 12.38 -4 c 6.47 -3.54 8.54 -8.11 8.84 -11.39 c 0 0 -1.65 1.49 -2.06 1.44 s 0.26 -1.74 0.43 -2.83 s 1.47 -5.33 0.26 -4.82 s -5 4.29 -6.43 1.87 c -1 -1.79 1.79 -5.15 1.79 -5.15 s -8.75 4.86 -10.36 2.36 c -1.43 -2.22 1 -4 1 -4 A 112.71 112.71 0 0 0 61.19 57.93 C 51.3 64.62 45.34 72.84 43.41 73.16 s 15.53 -20.51 34.36 -28 c 10.16 -4.06 17 -4.59 19.73 -3.31 c 1.6 0.74 1.41 2.79 1.41 3.29 c 0 0 -1.42 13.45 1 16.82 c 0 0 2 -1.13 3.73 -1.87 c 0 0 -0.8 0 -0.4 -0.73 c 0.21 -0.4 0.86 -0.61 1.79 -0.9 c 1.26 -0.4 3.43 -0.57 4.59 -1.41 s 1 -1.18 1.61 -1.38 a 17.88 17.88 0 0 0 3.58 0.28 a 9 9 0 0 1 3.1 0 a 34.81 34.81 0 0 0 4.76 1.85 c 1.5 0.28 1.67 0.39 2.17 1.27 a 4.88 4.88 0 0 1 0.6 2.11 l -0.06 0 a 8.25 8.25 0 0 0 -3.18 -0.46 c 0.57 0.06 1.14 0.3 0.3 0.5 s -3.32 1 -3.32 1 a 6 6 0 0 1 2.17 -1.49 c 0.06 0 -3 0 -3 0 a 3.76 3.76 0 0 0 1.13 -2.13 a 4.8 4.8 0 0 0 0.79 -0.2 c 0.82 -0.28 -0.09 -0.5 -1.86 -0.57 a 25 25 0 0 1 -3.17 -0.33 l -0.45 0.78 a 3.33 3.33 0 0 1 1.61 -0.23 a 1.21 1.21 0 0 0 1.08 1.2 a 1.65 1.65 0 0 0 0.9 -0.14 a 2 2 0 0 1 -2.4 1.31 a 2.48 2.48 0 0 1 -1.52 -1.19 s -1.06 2.18 -2.06 2.71 s -6.2 2.91 -8.34 5.54 s -3 3.52 -4.64 4 s -1.84 0.49 -2.05 0.72 s -2 3 -7.57 6 c -1.79 1 -2.53 0.93 -2.83 0.63 c -0.5 -0.5 0.14 -1.3 -0.21 -1.28 a 7 7 0 0 0 -2.34 0.8 c -1.83 0.78 -3 1.44 -4.38 1.56 s -2.54 -0.29 -2.63 -2.19 c 0 0 -0.06 0 -1 0.29 s -6.17 2.74 -8.07 2.76 c -1 0 0.86 -2.36 0.86 -2.36 s -5 3 -6.06 3.47 S 59 83.65 60.22 80.47 a 83 83 0 0 1 -17.83 7.77 c -3.45 1.06 -4.28 0.6 -4.25 1.45 c 0 0.4 0.39 0.55 0.91 0.58 a 16.94 16.94 0 0 0 3.31 -0.11 a 68.75 68.75 0 0 0 9.82 -2.26 c 4.93 -1.58 6.4 -3.27 9.82 -2.32 c 4.35 1.2 6.51 -0.6 6.51 -0.6 s 0.66 1.18 3.34 1.13 c 0 0 2.45 1.86 6.92 1.15 a 10 10 0 0 0 4.39 0.87 A 18 18 0 0 1 83.47 92 c -0.16 2.17 0 2.78 1.21 1.71 a 39.75 39.75 0 0 1 1.38 4.68 c 0.08 0.94 0.06 1.52 0.56 1.58 a 3.19 3.19 0 0 0 0.84 0 A 2.27 2.27 0 0 0 89 101.16 s 0.11 0.36 -1.77 1.1 c -0.94 0.37 -1.8 1.25 -1.47 1.68 c 0 0 0.78 0 1.62 0 a 2.14 2.14 0 0 1 2.43 -0.32 a 1.13 1.13 0 0 1 0.64 1.27 a 1.4 1.4 0 0 1 -0.23 0.48 c -0.06 0.1 -0.2 0.28 -0.36 0.55 s -0.48 0.91 -0.39 1.09 s 0.82 1.21 -1 1.44 c 0 0 0.09 0.36 0.65 0.33 s 2 -0.92 2 -1.37 a 6.87 6.87 0 0 0 1.1 -1.82 c 0.42 -1.07 0.47 -1.23 0.61 -1.07 a 2.86 2.86 0 0 1 0.24 2.25 c -0.29 0.71 -0.54 0.85 -0.31 1.16 a 3 3 0 0 0 0.39 0.29 c 0.15 0.11 0.17 0.38 -0.27 0.81 c -0.76 0.77 1.31 -0.14 1.6 -0.86 c 0 0 0.66 -0.76 0.39 -3.63 c 0 0 0 -0.31 0.33 -0.08 a 2 2 0 0 1 1 1.37 c 0 0.53 -0.23 1 0.13 1.18 s 0.38 0.74 0.24 1.09 s -0.94 0.45 -0.75 0.51 a 1.71 1.71 0 0 0 1.9 -1.64 a 4.82 4.82 0 0 0 -2.45 -4.85 c -2 -1.21 -2.62 -1.81 -2.93 -9.06 a 26.8 26.8 0 0 1 1.16 -7.44 h 0 c 0.66 -2.4 1.46 -3.74 1.5 -3.47 c 0.08 0.48 -0.57 2.3 -0.62 3.21 a 67.92 67.92 0 0 0 7.55 -4.51 a 17.14 17.14 0 0 0 2.66 -2.7 c 0.07 -0.09 1.51 -1.5 2.08 -5.29 l 2.22 -4.35 s 0.88 1.46 1.62 0.58 s 2.28 -3.4 2.52 -3.43 c 0 0 0.36 1.14 0.89 0.81 s 0.74 -1.55 2.1 -2.2 a 33.4 33.4 0 0 1 3.73 -1.36 s 5.37 -1.33 5.56 -0.93 a 4.93 4.93 0 0 1 0.2 1.34 a 5.46 5.46 0 0 0 0.58 -3.38" stroke-linecap="round" />
</g>
<g transform="matrix(1 0 0 1 13.81 52.29)" id="Layer_1"  >
<path style="stroke: none; stroke-width: 1; stroke-dasharray: none; stroke-linecap: butt; stroke-dashoffset: 0; stroke-linejoin: miter; stroke-miterlimit: 4; fill: rgb(0,0,0); fill-rule: nonzero; opacity: 1;"  transform=" translate(-51.45, -90.69)" d="M 62 86.71 c -1.46 -0.55 -3.58 0 -5.67 0.92 s -12.14 4.32 -17.88 4 c 0 0 0.85 1.3 4.36 1.86 c 0 0 -0.29 2 3.17 1.21 s 15.86 -6.32 18.47 -7.8 A 3.6 3.6 0 0 1 62 86.71" stroke-linecap="round" />
</g>
<g transform="matrix(1 0 0 1 23.63 52.75)" id="Layer_1"  >
<path style="stroke: none; stroke-width: 1; stroke-dasharray: none; stroke-linecap: butt; stroke-dashoffset: 0; stroke-linejoin: miter; stroke-miterlimit: 4; fill: rgb(0,0,0); fill-rule: nonzero; opacity: 1;"  transform=" translate(-61.27, -91.16)" d="M 70.93 87.17 a 4.48 4.48 0 0 1 -3.1 -1 l -12.3 6.36 S 49.91 95.15 51 95.82 c 0 0 1.75 1 5.68 -0.53 s 15 -7.67 15 -7.67 s -0.65 -0.45 -0.69 -0.45" stroke-linecap="round" />
</g>
<g transform="matrix(1 0 0 1 32.19 52.83)" id="Layer_1"  >
<path style="stroke: none; stroke-width: 1; stroke-dasharray: none; stroke-linecap: butt; stroke-dashoffset: 0; stroke-linejoin: miter; stroke-miterlimit: 4; fill: rgb(0,0,0); fill-rule: nonzero; opacity: 1;"  transform=" translate(-69.83, -91.24)" d="M 76.15 88.3 a 6 6 0 0 1 -2.8 -0.49 s -6.64 4.22 -7.89 4.9 s -3.23 1.48 -1 1.83 s 4.52 0.12 8.24 -3.09 a 43.16 43.16 0 0 0 3.5 -3.15" stroke-linecap="round" />
</g>
<g transform="matrix(1 0 0 1 62.33 57.45)" id="Layer_1"  >
<path style="stroke: none; stroke-width: 1; stroke-dasharray: none; stroke-linecap: butt; stroke-dashoffset: 0; stroke-linejoin: miter; stroke-miterlimit: 4; fill: rgb(0,0,0); fill-rule: nonzero; opacity: 1;"  transform=" translate(-99.97, -95.85)" d="M 99.64 101.16 c 1.3 0 4.22 1.94 4.17 2.17 s -1.09 -0.27 -1.39 -0.39 s -0.74 -0.17 -0.4 0.31 a 5.27 5.27 0 0 1 0.79 1.86 c 0 0.23 -0.24 0 -0.24 0 a 4.22 4.22 0 0 0 -1.94 -2.27 c -0.55 -0.21 -0.72 -0.08 -0.75 0.3 s 0.17 1.13 -0.26 0.06 a 5.65 5.65 0 0 0 -1.75 -2.15 c -0.31 -0.2 -0.17 -0.42 -0.17 -0.42 a 0.79 0.79 0 0 1 0.64 -0.15 a 2.81 2.81 0 0 1 1.3 0.64 m -2.4 -16 c -1.31 0.7 -2.94 1.42 -2.94 1.42 a 26 26 0 0 0 -0.44 6.6 c 0.2 5.53 0.8 7.07 2.6 8.11 a 5.53 5.53 0 0 1 3 4.44 c 0 0.71 -0.09 0.89 0.14 1.14 s 0.21 0.41 -0.06 0.89 s -1 0.61 -0.73 0.65 a 1.48 1.48 0 0 0 1.63 -0.91 c 0.43 -1 0.92 -1.51 0.1 -3.6 c 0 0 1 -0.16 1.33 1.64 c 0.23 1.15 -0.13 1.57 0.79 1.9 c 0 0 0.14 0.41 -0.38 1 s 0.16 0.33 0.52 0.15 a 2.16 2.16 0 0 0 1 -2.11 a 6.78 6.78 0 0 0 -1 -2.72 a 1.74 1.74 0 0 1 1 0.82 c 0.37 0.66 0.32 1 1.24 1 a 1.32 1.32 0 0 1 0.42 0.94 c 0 0.64 -0.76 1.09 -0.5 1 s 2 -0.7 0.68 -2.88 a 2.55 2.55 0 0 0 -1.23 -1.58 c -1 -0.53 -2.27 -2 -4.59 -2.41 a 7.16 7.16 0 0 1 -1.27 -1.78 a 3.68 3.68 0 0 0 0.19 -0.54 c 0.05 -0.26 -1.51 -8.22 2.27 -15.35 c 0 0 -2.54 1.48 -3.85 2.17" stroke-linecap="round" />
</g>
<g transform="matrix(1 0 0 1 40.59 69.02)" id="Layer_1"  >
<path style="stroke: none; stroke-width: 1; stroke-dasharray: none; stroke-linecap: butt; stroke-dashoffset: 0; stroke-linejoin: miter; stroke-miterlimit: 4; fill: rgb(0,0,0); fill-rule: nonzero; opacity: 1;"  transform=" translate(-78.23, -107.42)" d="M 73.09 106.51 l 2.79 1.14 a 3 3 0 0 0 1.27 2.66 a 2.64 2.64 0 0 1 -1 1.28 c -0.17 0.13 -0.31 0.16 -0.27 0.21 s 0.15 0 0.26 -0.06 c 2.66 -1 2.92 -3.49 2.8 -5.19 A 3.73 3.73 0 0 0 77.69 104 s 4.48 0.62 6.11 0.29 s 0 -0.4 0 -0.4 c -3.39 0 -7.17 -1.33 -9.09 -0.7 A 4.06 4.06 0 0 0 72 107 a 4.32 4.32 0 0 0 1.61 4.12 c 0.11 0.09 0.26 0.22 0.28 0.2 s -0.1 -0.21 -0.15 -0.29 a 5.5 5.5 0 0 1 -0.6 -4.5" stroke-linecap="round" />
</g>
<g transform="matrix(1 0 0 1 60.64 70.5)" id="Layer_1"  >
<path style="stroke: none; stroke-width: 1; stroke-dasharray: none; stroke-linecap: butt; stroke-dashoffset: 0; stroke-linejoin: miter; stroke-miterlimit: 4; fill: rgb(0,0,0); fill-rule: nonzero; opacity: 1;"  transform=" translate(-98.28, -108.91)" d="M 119.81 110 a 24.61 24.61 0 0 1 -5.56 -0.35 s -0.4 0.24 -0.4 0.24 a 13.79 13.79 0 0 0 4.84 0.83 c 0.53 0.09 -0.1 0.31 -0.1 0.31 c -2.82 2.31 -7.51 1.62 -14.41 1.62 s -14.13 2 -16.5 2.35 c -1 0.16 -1.75 -0.67 -2.42 -1 a 12.68 12.68 0 0 0 -1.58 -0.69 a 131.41 131.41 0 0 1 21.4 -2.82 c 5.23 -0.36 9.65 0.38 10.2 -3.57 a 4.41 4.41 0 0 0 -0.56 -3 a 6.09 6.09 0 0 0 -2.76 -2.37 a 1.32 1.32 0 0 0 -0.65 0 a 29.71 29.71 0 0 1 -6.06 1.22 c -0.55 0.07 -0.25 0.23 -0.25 0.23 a 16.14 16.14 0 0 0 6 -0.75 a 0.88 0.88 0 0 1 0.53 0 a 3.94 3.94 0 0 1 2.51 2.56 c 1.13 3.1 -1.29 3.82 -3.36 3.92 s -10.8 1 -14.11 1.2 s -12 1.39 -15.21 1.86 c -2.43 0.37 -5.54 0.59 -5.54 0.59 c -0.84 0 0.54 0.4 3.85 0.89 s 4.19 1.8 5.55 2.66 a 5.07 5.07 0 0 0 2.86 0.28 c 1.37 -0.14 4.28 -1 6.14 -1.28 a 92.63 92.63 0 0 1 18.51 -1 c 4.77 0.15 6.45 -1.22 8.06 -3.22 c 0.76 -0.94 -1 -0.65 -1 -0.65" stroke-linecap="round" />
</g>
</svg>