<svg xmlns="http://www.w3.org/2000/svg" width="56.216" height="56.216" fill="none"><path d="M28.602 55.966c-.433 0-.865-.246-1.112-.677-.186-.431-.186-.862.123-1.232L40.771 36.02l-23.042 9.358c-.185.061-.309.123-.494.123-.556 0-1.05-.37-1.174-.862-.185-.492.062-1.047.494-1.354l20.263-11.882L1.174 29.37C.432 29.308 0 28.754 0 28.139c0-.554.37-1.17 1.174-1.232l35.644-2.031-20.262-11.882c-.433-.308-.68-.862-.495-1.355s.618-.861 1.174-.861c.185 0 .309.061.494.123l23.042 9.358-13.158-18.1c-.247-.37-.309-.862-.123-1.232.185-.43.617-.677 1.112-.677.308 0 .617.123.864.37L55.66 26.66c.37.37.556.924.556 1.416s-.186.985-.556 1.416L29.466 55.597a1.222 1.222 0 0 1-.864.369z" fill="#000"/></svg>