<svg xmlns="http://www.w3.org/2000/svg" version="1.0" viewBox="0 0 700 700"><path fill="#e9500e" d="M0 350v350h700V0H0Z"/><path fill="#fff" d="M207 357c59 8 117 46 151 97 22 33 33 68 35 106 0 16-1 33-3 34-2 2-50-1-52-2-1-1-2-6-2-21-1-34-7-57-21-82-18-31-52-58-87-70a187 187 0 0 0-93-1l-11 2c-1-1-16-45-16-49 0-3 2-5 14-8 27-8 56-10 85-6zm164-56c20 5 35 26 31 46-3 14-11 25-23 30-6 3-7 4-17 4s-11-1-17-4c-17-7-26-25-23-43 4-23 26-38 49-33zm192-118 24 45a416 416 0 0 0-22 16c-48 32-71 73-73 129a163 163 0 0 0 49 117c5 5 8 10 8 11l-31 38c-3 3-4 3-11-3a201 201 0 0 1-69-181 212 212 0 0 1 123-173l2 1zM429 94l25 6c4 1 4 3 1 16a203 203 0 0 1-78 122c-28 21-62 35-98 42-11 2-16 2-36 3-25 0-33-1-51-6s-41-14-55-23c-9-6-12-9-12-11s28-44 29-44l15 7a154 154 0 0 0 146 5c44-21 73-58 86-110l5-12 23 5z"/></svg>