<svg xmlns="http://www.w3.org/2000/svg" style="background:#e9500e;fill:#fff" viewBox="0 0 700 700"><path d="m406 89-5 12c-13 52-42 89-86 110a154 154 0 0 1-146-5l-15-7c-1 0-29 42-29 44s3 5 12 11c14 9 37 18 55 23s26 6 51 6c20-1 25-1 36-3 36-7 70-21 98-42a203 203 0 0 0 78-122c3-13 3-15-1-16l-25-6-23-5zm155 93a212 212 0 0 0-123 173 201 201 0 0 0 69 181c7 6 8 6 11 3l31-38c0-1-3-6-8-11a163 163 0 0 1-49-117c2-56 25-97 73-129a416 416 0 0 1 22-16l-24-45-2-1zM362 300.5a40 40 0 0 0-40 40 40 40 0 0 0 40 40 40 40 0 0 0 40-40 40 40 0 0 0-40-40zM174.5 355c-18 .3-35.6 3-52.5 8-12 3-14 5-14 8 0 4 15 48 16 49l11-2a187 187 0 0 1 93 1c35 12 69 39 87 70 14 25 20 48 21 82 0 15 1 20 2 21 2 1 50 4 52 2 2-1 3-18 3-34-2-38-13-73-35-106-34-51-92-89-151-97a211.1 211.1 0 0 0-32.5-2z"/></svg>