<svg xmlns="http://www.w3.org/2000/svg" viewBox="0 0 37.79 31.87"><path fill="#786dff" d="M22.31 2.77 18.9 6.33c-.25.25-.58 0-.58 0l-4.38-4.64a3.52 3.52 0 0 0-5-.13 1.59 1.59 0 0 0-.13.13A3.89 3.89 0 0 0 8.83 7l7.26 7.56a3.52 3.52 0 0 0 5 .13l.13-.13 6.07-6.33 1.07-1.13A1.81 1.81 0 0 1 30.9 7l.08.08a1.91 1.91 0 0 1 0 2.68l-1.09 1.15-11 11.5a.44.44 0 0 1-.66 0l-12-12.5a3.52 3.52 0 0 0-5-.13l-.13.13a3.89 3.89 0 0 0 0 5.32L16 30.85l-.08-.08a3.51 3.51 0 0 0 5 .13 1.59 1.59 0 0 0 .13-.13L35 16.27l.15-.16a9.7 9.7 0 0 0 0-13.34 8.82 8.82 0 0 0-12.83 0"/></svg>