<svg xmlns="http://www.w3.org/2000/svg" width="34.029" height="34.029"><defs><linearGradient x1="0" y1="15.324" x2="30.69" y2="15.324" id="a" gradientTransform="scale(1.1097 .90115)" gradientUnits="userSpaceOnUse"><stop stop-color="#FF9200" offset="0%"/><stop stop-color="#F36D00" offset="29%"/><stop stop-color="#F4680B" offset="32%"/><stop stop-color="#F83C72" offset="57%"/><stop stop-color="#FC1CBE" offset="78%"/><stop stop-color="#FE08ED" offset="93%"/><stop stop-color="#F0F" offset="100%"/></linearGradient></defs><path d="M17.028 27.618a1.38 1.38 0 01-.69-.18C14.54 26.398 1.214 18.042.71 17.787a1.207 1.207 0 01-.69-.966V5.101a1.27 1.27 0 01.573-1.089l.096-.055C1.98 3.157 6.294.524 6.977.145c.156-.093.335-.143.517-.145.17.002.338.044.49.124 0 0 6.038 3.937 6.962 4.288a4.764 4.764 0 002.068.435 4.633 4.633 0 002.317-.566c.903-.475 6.673-4.136 6.735-4.136a.91.91 0 01.483-.131c.182 0 .36.05.517.145.786.434 6.136 3.709 6.363 3.853.376.227.605.636.6 1.076v11.72a1.193 1.193 0 01-.69.965c-.503.276-13.788 8.631-15.621 9.651a1.38 1.38 0 01-.69.194z" fill="url(#a)" transform="translate(0 3.206)"/><path d="M16.96 30.823h.068c.242.002.48-.06.69-.179 1.799-1.041 15.118-9.397 15.622-9.652.384-.176.647-.543.69-.965V8.307a1.256 1.256 0 00-.132-.572l-16.939 9.3z" fill="#f624a0" style="mix-blend-mode:multiply"/><path d="M0 20.007c.052.427.327.795.724.965.503.275 13.83 8.631 15.629 9.651.185.106.393.168.606.18V17.015L.076 7.852c-.049.14-.074.287-.076.435z" fill="#f58000" opacity=".41" style="mix-blend-mode:multiply"/></svg>