<svg xmlns="http://www.w3.org/2000/svg" width="56.01" height="56.01" version="1.1" id="svg10750"><defs id="defs10738"><style id="style10736">.b{fill:#fffdfe}</style></defs><g id="g11321" transform="translate(0 .005)"><path d="M52.81 0H3.2A3.2 3.2 0 000 3.2v49.59A3.2 3.2 0 003.2 56h49.61a3.2 3.2 0 003.2-3.2V3.2a3.2 3.2 0 00-3.2-3.2z" id="path10742" fill="#ba005a"/><path class="b" d="M6.93 33.14a1.35 1.35 0 012.69 0v11.71h6.93a1.23 1.23 0 110 2.46H8.29A1.34 1.34 0 016.93 46z" id="path10744"/><path class="b" d="M18.69 39.65a7.78 7.78 0 017.9-8 8 8 0 015.25 1.74 1.37 1.37 0 01.52 1.08A1.31 1.31 0 0131 35.78a1.24 1.24 0 01-.81-.27 5.57 5.57 0 00-3.65-1.38 5.17 5.17 0 00-5.05 5.43 5.17 5.17 0 005.05 5.45 5.44 5.44 0 003.82-1.47 1.21 1.21 0 01.81-.31 1.28 1.28 0 011.27 1.26 1.27 1.27 0 01-.44 1 7.76 7.76 0 01-5.55 2.07 7.72 7.72 0 01-7.76-7.91z" id="path10746"/><path class="b" d="M35.51 33.19a1.36 1.36 0 011.35-1.37h.29a1.68 1.68 0 011.39.79l7.66 10v-9.49a1.32 1.32 0 112.64 0v12.94a1.31 1.31 0 01-1.31 1.34h-.11a1.7 1.7 0 01-1.4-.81l-7.87-10.26v9.77a1.33 1.33 0 01-2.65 0V33.19z" id="path10748"/></g></svg>