<svg xmlns="http://www.w3.org/2000/svg" width="32.177" height="32.177"><g fill-rule="evenodd"><path d="M31.387 11.929a.85.85 0 01-.118-.009l-11.754-1.713c-.59-.09-1.07-.692-1.07-1.342v-4.71c0-.508.288-.849.716-.849a.9.9 0 01.284.049l11.802 3.791c.504.165.93.813.93 1.415v2.429c0 .535-.34.939-.79.939m-12.019 7.55c-.542 0-.923-.425-.923-1.024v-4.682c0-.6.425-1.069.968-1.069.027 0 .055.001.084.004l11.744.992c.516.046.935.573.935 1.175v2.427c0 .603-.419 1.13-.935 1.175l-11.79.998a.968.968 0 01-.083.004m-.206 9.392c-.43 0-.717-.34-.717-.847v-4.717c0-.652.48-1.254 1.07-1.342l11.755-1.708a.753.753 0 01.116-.008c.45 0 .79.403.79.94v2.427c0 .611-.417 1.246-.929 1.416l-11.802 3.792a.892.892 0 01-.283.047" fill="#f28700"/><path d="M.806 13.495c-.467 0-.806-.396-.806-.942v-.395c0-.652.454-1.42.992-1.676l14.83-7.09a.796.796 0 01.34-.086c.344 0 .567.3.567.761v4.732c0 .653-.467 1.289-1.041 1.416L1 13.473a.88.88 0 01-.194.022m15.016 5.99a.901.901 0 01-.115-.008l-14.66-1.88C.47 17.525 0 16.937 0 16.287v-.397c0-.65.47-1.237 1.048-1.31l14.659-1.878a.839.839 0 01.117-.008c.516 0 .905.442.905 1.03v4.731a1.1 1.1 0 01-.266.74.853.853 0 01-.64.29m.339 9.386a.793.793 0 01-.341-.086L.992 21.696C.454 21.439 0 20.673 0 20.021v-.398c0-.544.34-.94.805-.94a.87.87 0 01.195.022l14.687 3.257c.574.129 1.042.764 1.042 1.418v4.732c0 .235-.058.43-.165.566a.498.498 0 01-.402.193" fill="#26338c"/></g></svg>