<svg xmlns="http://www.w3.org/2000/svg" width="164" height="30" fill="none" style="cursor:default"><path fill="#FF6E14" fill-rule="evenodd" d="M41.1935 25.077c2.5712-.0042 4.1593-2.0432 4.1593-5.0725 0-3.032-1.5838-5.0653-4.1521-5.0653-2.5684 0-4.1451 2.0261-4.1451 5.0653 0 3.0364 1.5739 5.0683 4.1379 5.0725Zm1.9263-15.0534c4.9013 0 8.1331 4.2236 8.2044 9.9096 0 5.7788-3.3816 10.0594-8.34 10.0594a7.1343 7.1343 0 0 1-6.1783-3.3032h-.0785v2.9322h-5.3792V3.881c0-1.962 1.3056-3.189 2.8537-3.189 1.5481 0 2.8537 1.227 2.8537 3.189v9.1747h.0785a7.286 7.286 0 0 1 5.9857-3.0321ZM62.9246 25.077c2.5755 0 4.1451-2.0404 4.1451-5.0725 0-3.032-1.5696-5.0653-4.1451-5.0653-2.5754 0-4.145 2.0261-4.145 5.0653 0 3.0393 1.5696 5.0725 4.145 5.0725Zm0-15.0534c6.0642 0 9.9881 4.1451 9.9881 9.9881 0 5.843-3.9168 9.988-9.9881 9.988-6.0713 0-9.988-4.145-9.988-9.988s3.9167-9.9881 9.988-9.9881Zm76.2304.0003c1.569 0 2.875 1.2271 2.903 3.1891v16.4089h-5.757V13.213c0-1.962 1.278-3.1891 2.854-3.1891Zm0-10.0239c1.931 0 3.495 1.5653 3.495 3.4958 0 1.9306-1.564 3.4958-3.495 3.4958h-.002c-1.93-.0007-3.495-1.566-3.494-3.4965 0-1.9305 1.566-3.4951 3.496-3.4951Zm18.007 10.0239c3.996 0 6.142 2.8388 6.142 7.1415v12.4565h-5.757V18.7777c0-2.5327-1.192-3.3745-2.689-3.3745-2.227 0-3.917 1.8763-3.917 5.8715v8.3472h-5.758V13.0346c0-1.8835 1.234-2.9964 2.69-2.9964s2.682 1.1129 2.682 2.9964v.7134h.079a7.591 7.591 0 0 1 6.528-3.7241ZM123.866 25.077c2.575 0 4.152-2.0404 4.152-5.0725 0-3.032-1.583-5.0653-4.152-5.0653-2.568 0-4.145 2.0261-4.145 5.0653 0 3.0393 1.577 5.0725 4.145 5.0725Zm0-15.0534c6.072 0 9.988 4.1451 9.988 9.9881 0 5.843-3.916 9.988-9.988 9.988-6.071 0-9.988-4.145-9.988-9.988s3.924-9.9881 9.988-9.9881Zm-18.506 4.9943c-2.497 0-4.031 1.8407-4.031 4.9941 0 3.1533 1.534 4.994 4.031 4.994a3.858 3.858 0 0 0 3.495-1.9191h.072l4.188 2.6896C111.659 28.6159 108.619 30 105.166 30c-5.9916 0-9.6801-4.1457-9.6801-9.988 0-5.843 3.6885-9.9881 9.6801-9.9881 3.453 0 6.522 1.3698 7.949 4.2235l-4.188 2.689h-.072a3.8573 3.8573 0 0 0-3.495-1.9185Zm-18.1641-4.994c3.9952 0 6.142 2.8388 6.1569 7.1415v12.4565h-5.7574V18.7777c0-2.5327-1.1914-3.3745-2.6896-3.3745-2.2259 0-3.9167 1.8763-3.9167 5.8715v8.3472h-5.7645V13.0203c0-1.8834 1.2128-2.9821 2.6753-2.9821 1.4626 0 2.6897 1.1129 2.6897 2.9964v.7134h.0784a7.582 7.582 0 0 1 6.5279-3.7241ZM15.6884 18.87a7.1092 7.1092 0 0 0 .3852 2.1482l6.4209-4.7593a3.1959 3.1959 0 0 0-2.9393-1.6694c-1.8193 0-3.8668 1.3697-3.8668 4.2805Zm5.579 6.4209a5.935 5.935 0 0 0 4.9155-3.1669l3.7884 2.7389c-1.4483 2.9464-4.4019 5.1295-9.3959 5.1295a9.7592 9.7592 0 0 1-6.4209-2.4256c-2.5113 1.6694-4.6516 2.3828-6.7919 2.3828C3.0464 29.9496 0 27.0602 0 22.7226V3.8309C0 1.8761 1.2984.649 2.8537.649s2.8537 1.2271 2.8537 3.182v18.4136c0 1.8549.8134 2.8537 2.5185 2.8537.9274 0 1.9334-.5351 3.2389-1.2485a11.8771 11.8771 0 0 1-.9274-4.6872c0-4.0737 2.9036-9.1384 9.0035-9.1384 5.2865 0 8.126 3.0742 9.3103 6.9338l-10.1807 7.3063a3.6962 3.6962 0 0 0 2.5969 1.0266Z" clip-rule="evenodd"/></svg>
