<svg xmlns="http://www.w3.org/2000/svg" width="512pt" height="512pt" viewBox="0 0 512 512"><path fill="#fff" d="M58.49 0h395.99c15.58.77 30.8 7.62 41.38 19.12 9.97 10.58 15.7 24.86 16.14 39.36v142.44c-79 .18-158 .03-236.99.08-9.69.08-19.59-.6-29.02 2.08-18.02 4.71-33.4 18.24-40.41 35.48-3.1 7.4-4.54 15.42-4.56 23.43-.11 83.34.11 166.67-.11 250.01H57.52c-15.82-.77-31.26-7.84-41.86-19.65C6.18 482.08.73 468.41 0 454.49V58.48c.45-16.15 7.61-32 19.65-42.82C30.16 5.98 44.22.44 58.49 0Z"/><path fill="#ff6e14" d="M245.99 203.08c9.43-2.68 19.33-2 29.02-2.08 78.99-.05 157.99.1 236.99-.08v.72c-12.39 11.38-23.87 23.7-35.9 35.46-82.84 82.83-165.67 165.67-248.5 248.5-8.6 8.85-17.73 17.19-25.95 26.4h-.74c.22-83.34 0-166.67.11-250.01.02-8.01 1.46-16.03 4.56-23.43 7.01-17.24 22.39-30.77 40.41-35.48Z"/><path fill="#96410a" d="M476.1 237.1c12.03-11.76 23.51-24.08 35.9-35.46v257.69c-2.3 14.3-8.98 28.05-20.02 37.62-9.01 8.27-20.68 13-32.63 15.05h-257.7c8.22-9.21 17.35-17.55 25.95-26.4 82.83-82.83 165.66-165.67 248.5-248.5Z"/></svg>
