<svg xmlns="http://www.w3.org/2000/svg" viewBox="0 0 94 110.92"><g fill="none" fill-rule="evenodd"><path fill="#FFA116" fill-rule="nonzero" d="M67.5 83.07a6.37 6.37 0 0 1 9.02.01 6.4 6.4 0 0 1-.01 9.03l-11.07 11.06a26.7 26.7 0 0 1-37.27.34L8.23 83.96C-1.92 74-2.94 58.07 6.62 47.85l17.8-19.08c9.49-10.15 26.97-11.26 37.8-2.5l16.19 13.1a6.4 6.4 0 0 1-8.01 9.93L54.22 36.22c-5.67-4.59-15.59-3.96-20.48 1.28L15.93 56.57c-4.65 4.98-4.14 13 1.22 18.26L37 94.29a13.96 13.96 0 0 0 19.43-.17l11.08-11.05Z"/><path fill="#B3B3B3" d="M40.6 72a6.38 6.38 0 0 1 0-12.77h47.02a6.38 6.38 0 0 1 0 12.77H40.61Z"/><path fill="#000" d="M49.41 2.02a6.37 6.37 0 0 1 9.01-.3 6.4 6.4 0 0 1 .3 9.03l-42.8 45.82c-4.64 4.98-4.13 13 1.23 18.26L36.9 94.2a6.4 6.4 0 0 1 .1 9.03 6.37 6.37 0 0 1-9.02.1L8.23 83.96C-1.92 74-2.94 58.07 6.62 47.85l42.8-45.83Z"/></g></svg>