<svg xmlns="http://www.w3.org/2000/svg" fill="none" stroke-linecap="round" stroke-width="12.5" viewBox="0 0 94 112"><path stroke="#b3b3b3" d="m40.46 66.52 47.39-.03"/><path stroke="#ffa116" d="M72.35 88.07c-5.09 5.45-9.1 9.15-12.63 12.49a18.47 18.47 0 0 1-11.92 4.94c-4.54.26-9.63-1.1-14.8-5.23-.9-.73-1.82-1.91-2.77-2.79m44.19-52.33S60.6 34 56.83 31.05c-3.76-2.94-16.29-7.28-30.18 5.57"/><path stroke="#000" d="m54.97 6.25-43.98 47.2a18.7 18.7 0 0 0-4.7 13.07c.27 3.35 2.4 9.26 5.47 12.34 0 0 11.7 11.92 20.38 20.6"/></svg>