<svg xmlns="http://www.w3.org/2000/svg" width="427.354" height="427.354"><path d="M74.271 426.62c-30.412-2.58-52.949-16.615-64.639-40.256-5.033-10.18-7.65-20.88-8.865-36.235-1.49-18.86-.615-276.928.967-285C7.82 34.086 24.21 14.54 52.13 5.037 66.606.11 65.949.13 215.854.13c139.684 0 140.555.012 150.049 2.129 33.49 7.467 51.854 25.83 59.321 59.322 2.118 9.497 2.13 10.324 2.13 152.049s-.012 142.552-2.13 152.05c-7.42 33.279-25.667 51.665-58.813 59.26-8.908 2.042-11.316 2.08-146.057 2.263-75.35.103-141.087-.159-146.083-.582z" fill="#1d74a5"/><path d="M193.854 365.49c14.566-3.677 29.651-12.449 39.536-22.99 7.463-7.958 9.286-10.64 20.918-30.768 5.847-10.118 11.54-19.552 12.652-20.965 3.404-4.328 11.282-9.656 21.574-14.592 21.309-10.217 37.566-24.066 49.77-42.397 27.326-41.048 26.66-92.82-1.724-133.94-6.713-9.725-23.417-25.42-34.207-32.141-21.64-13.479-48.402-19.814-72.857-17.247-51.9 5.448-92.216 40.42-104.914 91.007-1.834 7.306-2.177 11.507-2.177 26.672 0 18.871 1.356 27.592 6.21 39.948l1.926 4.904 15.396.168c10.07.11 18.028.745 23.004 1.835 26.637 5.836 49.605 19.358 66.831 39.347 6.326 7.34 13.054 17.228 13.058 19.193.004 1.55-19.28 35.482-25.066 44.105-11.55 17.213-29.76 27.15-49.93 27.246-17.411.083-31.405-5.62-43.516-17.73-12.165-12.166-17.836-26.067-17.755-43.526.037-7.86.555-10.982 2.987-18 1.618-4.67 3.275-9.232 3.68-10.138.59-1.314-1.25-2.783-9.079-7.251l-9.817-5.603-3.233 6.75c-9.905 20.69-10.187 47.356-.727 68.746 14.18 32.066 46.724 51.957 81.46 49.791 4.675-.292 11.875-1.382 16-2.424z" fill="#fff"/><path d="M243.062 164.961c-6.274-3.092-9.718-10.139-8.214-16.805 1.611-7.147 6-11.314 12.885-12.238l3.956-.53 10.659-22.63c5.862-12.446 11.001-22.984 11.421-23.418.658-.681 18.085 8.749 18.085 9.786 0 .21-6.54 9.844-14.53 21.41l-14.531 21.031c2.094 5.153 4.115 8.475 1.66 14.44-3.54 9.268-12.848 13.164-21.391 8.954z" fill="#1d74a5"/></svg>