<svg xmlns="http://www.w3.org/2000/svg" width="119.5" height="119.5" fill="#ea4224"><rect x="96.77" width="22.73" height="22.73" rx="1.11"/><rect x="96.77" y="32.26" width="22.73" height="22.73" rx="1.11"/><rect x="96.77" y="64.51" width="22.73" height="22.73" rx="1.11"/><rect x="64.51" width="22.73" height="22.73" rx="1.11"/><rect x="64.51" y="32.26" width="22.73" height="22.73" rx="1.11"/><rect x="64.51" y="64.51" width="22.73" height="22.73" rx="1.11"/><rect x="32.26" width="22.73" height="22.73" rx="1.11"/><rect x="32.26" y="64.51" width="22.73" height="22.73" rx="1.11"/><rect width="22.73" height="22.73" rx="1.11"/><rect y="32.26" width="22.73" height="22.73" rx="1.11"/><rect y="64.51" width="22.73" height="22.73" rx="1.11"/><rect x="96.77" y="96.77" width="22.73" height="22.73" rx="1.11"/><rect y="96.77" width="22.73" height="22.73" rx="1.11"/><rect x="32.26" y="96.77" width="22.73" height="22.73" rx="1.11"/><rect x="64.51" y="96.77" width="22.73" height="22.73" rx="1.11"/></svg>