<svg xmlns="http://www.w3.org/2000/svg" width="42.137" height="42.137"><path d="M32.916 20.251c-.402-6.01-5.364-10.82-11.384-11.049-6.77-.257-12.338 5.154-12.338 11.866 0 4.75 2.79 8.847 6.82 10.746l1.905-3.3c.4-.692.204-1.583-.46-2.027a6.502 6.502 0 01-2.89-5.812c.19-3.252 2.832-5.904 6.083-6.106A6.513 6.513 0 0124.69 26.48a1.528 1.528 0 00-.47 2.034l1.904 3.3a11.874 11.874 0 006.793-11.563zM20.56.006C9.22.274.04 9.648 0 20.991c-.03 8.186 4.613 15.285 11.41 18.8l1.898-3.29c.414-.717.198-1.643-.505-2.079-4.595-2.85-7.612-8.004-7.432-13.85.25-8.143 6.816-14.817 14.955-15.192 9.011-.415 16.448 6.768 16.448 15.688 0 5.634-2.968 10.572-7.423 13.343a1.536 1.536 0 00-.53 2.073l1.907 3.306c6.775-3.503 11.41-10.569 11.41-18.722 0-11.805-9.71-21.343-21.579-21.062z" fill="#00b1c2" fill-rule="evenodd"/></svg>