<?xml version="1.0" encoding="UTF-8"?>
<svg version="1.1" viewBox="0 0 420.84 61.933" xmlns="http://www.w3.org/2000/svg">
<g transform="matrix(1.3333 0 0 -1.3333 0 61.933)">
<g transform="scale(.1)">
<path d="m597.14 111.88c-31.707-78.938-107.54-111.88-207.61-111.88-131.77 0-220.05 53.438-220.05 179 0 125.57 88.274 179.03 220.05 179.03 144.21 0 213.82-72.738 213.82-198.28v-9.961h-320.74v-1.242c0-31.7 32.324-80.188 106.91-80.188 44.129 0 75.203 14.914 90.746 43.508zm-106.92 102.56v1.246c0 18.027-22.992 73.972-103.17 73.972-86.399 0-104.43-65.894-104.43-73.972v-1.246h207.6" fill="#f47218"/>
<path d="m1320.9 358.03c131.77 0 220.03-53.453 220.03-179 0-125.55-88.26-179.02-220.03-179.02-131.78 0-220.05 53.469-220.05 179.02 0 125.55 88.27 179 220.05 179m0-280.97c67.74 0 106.91 36.671 106.91 101.96 0 65.258-39.17 101.93-106.91 101.93-67.76 0-106.93-36.676-106.93-101.93 0-65.293 39.17-101.96 106.93-101.96" fill="#47484b"/>
<path d="m1724.1 272.25v-259.82h-109.39v259.82h-69.01v73.359h69.01v12.633c0 89.512 27.35 106.29 129.29 106.29 14.92 0 42.27-0.625 68.99-1.234v-68.383c-18.64 0.621-36.68 1.242-55.32 1.242-19.28 0-33.57-3.097-33.57-34.183v-16.364h138.82v12.633c0 89.512 27.35 106.29 129.31 106.29 14.91 0 42.25-0.625 68.98-1.234v-68.383c-18.65 0.621-36.66 1.242-55.32 1.242-19.27 0-33.56-3.097-33.56-34.183v-16.364h87.65v-73.359h-87.65v-259.82h-109.41v259.82h-138.82" fill="#47484b"/>
<path d="m0 12.422h109.4v451.28h-109.4v-451.28" fill="#f47218"/>
<path d="m2108.9 386.62h109.38v77.078h-109.38v-77.078" fill="#47484b"/>
<path d="m2108.9 345.6h109.38v-333.16h-109.38v333.16" fill="#47484b"/>
<path d="m2575.7 222.54c-13.05 44.121-46.61 58.422-90.74 58.422-67.77 0-106.91-36.676-106.91-101.93 0-65.293 39.14-101.96 106.91-101.96 48.48 0 85.15 26.105 90.74 67.754h113.14c-19.88-118.09-104.44-144.81-213.22-144.81-125.56 0-210.72 53.469-210.72 179.02 0 125.55 88.28 179 220.06 179 84.53 0 183.36-25.476 203.88-135.49h-113.14" fill="#47484b"/>
<path d="m3150.1 111.88c-31.71-78.938-107.54-111.88-207.62-111.88-131.76 0-220.03 53.438-220.03 179 0 125.57 88.27 179.03 220.03 179.03 144.21 0 213.83-72.738 213.83-198.28v-9.961h-320.73v-1.242c0-31.7 32.31-80.188 106.9-80.188 44.14 0 75.21 14.914 90.75 43.508zm-106.92 102.56v1.246c0 18.027-23 73.972-103.18 73.972-86.39 0-104.42-65.894-104.42-73.972v-1.246h207.6" fill="#47484b"/>
<path d="m851.5 95.156 83.476-83.438h167.93l-167.93 166.93-83.476-83.496" fill="#47484b"/>
<path d="m600.1 345.6 167.93-166.95-167.93-166.96h167.93l83.469 83.496 83.484 83.468-166.95 166.95h-167.93" fill="#f47218"/>
<path d="m934.98 178.65 167.94 166.94h-167.94l-83.472-83.465 83.472-83.473" fill="#47484b"/>
</g>
</g>
</svg>
