<svg xmlns="http://www.w3.org/2000/svg" width="198mm" height="198mm" viewBox="0 0 198 198"><path d="M168.69 74.328c7.912 0 18.177.74 23.337 2.249 4.445 1.296 5.635 4.603 5.556 7.54-.08 2.91-2.381 9.155-13.335 17.119-10.61 7.726-20.161 11.985-33.073 16.616-8.15 2.936-19.711 5.662-27.41 6.72 18.414-5.662 23.335-7.858 34.474-13.705 6.933-3.652 12.198-7.78 18.363-13.785 8.122-7.911 9.472-13.018 9.551-14.685.159-2.884-.291-4.656-3.89-6.032-2.99-1.138-13.573-2.037-13.573-2.037z" class="st20" fill="#14377d"/><path d="M168.69 74.328c7.912 0 18.177.74 23.337 2.249 4.445 1.296 5.635 4.603 5.556 7.54-.08 2.91-2.381 9.155-13.335 17.119-10.61 7.726-20.161 11.985-33.073 16.616-8.15 2.936-19.711 5.662-27.41 6.72 17.859-4.128 24.87-6.773 36.247-11.483 8.07-3.334 21.458-10.9 26.3-15.346 8.281-7.593 9.657-11.906 9.551-13.546-.159-2.223-1.376-5.53-5-6.668-9.843-3.122-22.173-3.201-22.173-3.201zM77.78 74.724c-3.255.715-12.621 3.387-16.616 4.763-5.16 1.773-13.309 5.318-18.706 8.176-5.398 2.857-10.372 5.715-14.87 9.154-4.604 3.52-8.916 7.25-12.091 11.219-1.667 2.063-3.969 5.9-3.81 9.34.185 4.206 3.466 5.82 7.064 7.037 0 0-9.075-.08-11.403-6.323-2.329-6.27 12.33-22.463 18.415-25.268 6.085-2.805 30.744-13.6 30.744-13.6z" class="st20" fill="#14377d"/><path d="M77.833 74.566c-13.918 1.772-18.839 2.672-33.259 7.99-14.949 5.503-22.33 9.843-29.157 14.526C6.342 103.299.283 110.02.415 115.206c.133 5.98 6.324 9.313 18.31 9.366-8.044-1.72-9.763-6.27-8.864-10.451.926-4.313 6.747-11.88 16.087-18.15 9.869-6.615 15.16-9.42 24.712-13.309 14.234-5.794 27.173-8.096 27.173-8.096z" class="st20" fill="#14377d"/><path class="st20" d="M36.372 119.386V74.46h13.6v34.422h16.907v10.504zM97.28 102.85v-9.42h26.722c.027.318.027.636.053 1.006 0 .37.027.9.027 1.614 0 7.726-2.276 13.732-6.8 17.992-4.524 4.26-10.927 6.402-19.156 6.402-4.048 0-7.646-.555-10.795-1.64-3.148-1.085-5.953-2.778-8.44-5.027a22.513 22.513 0 01-5.503-7.62c-1.297-2.937-1.958-6.006-1.958-9.208 0-3.36.635-6.429 1.905-9.26 1.27-2.805 3.175-5.345 5.688-7.593 2.487-2.197 5.371-3.837 8.6-4.975 3.227-1.137 6.72-1.693 10.477-1.693 4.894 0 9.207.873 12.964 2.62 3.757 1.746 6.932 4.339 9.499 7.752l-11.8 5.106c-1.403-1.746-2.99-3.043-4.763-3.89-1.773-.846-3.73-1.27-5.927-1.27-4.074 0-7.276 1.218-9.604 3.678-2.329 2.435-3.52 5.795-3.52 10.028 0 4.286 1.165 7.647 3.52 10.107 2.328 2.46 5.556 3.678 9.604 3.678 3.466 0 6.324-.767 8.652-2.275 2.302-1.535 3.651-3.546 4.048-6.086H97.28zM132.39 119.386V74.46h30.585v9.842h-17.33v7.806h16.325v9.63h-16.325v7.568h17.33v10.054H132.39z" fill="#14377d"/></svg>