<svg xmlns="http://www.w3.org/2000/svg" width="64.548" height="64.548"><defs><linearGradient id="a" x1="3.814" x2="42.09" y1="23.498" y2="37.535" gradientTransform="scale(1.17067 .85421)" gradientUnits="userSpaceOnUse"><stop offset="0%" stop-color="#F0E63C"/><stop offset="100%" stop-color="#E6AF32"/></linearGradient></defs><path d="M21.848 47.055c-7.633-.325-15.89-3.235-19.86-9.882-3.721-6.279-1.811-14.198 2.38-19.803C11.013 8.3 21.917 2.626 33.15.646 41.773-.818 51.482-.02 58.526 5.393c4.78 3.602 6.94 9.82 5.66 15.48-1.892 8.745-9.03 15.554-16.815 19.952-7.668 4.282-16.63 6.631-25.523 6.23z" fill="url(#a)" transform="translate(0 8.724)"/><path d="M18.522 23.89c1.434.493 6.098 2.065 8.7 3.758.086.055.251.168.251.168l19.383-.29a59.01 59.01 0 001.17-2.025c.463-.85.494-1.58-.03-2.064-.57-.526-1.494-.61-3.36-.61h-26.01c-.208 0-.735-.034-.82.375a.43.43 0 00.115.38c.174.145.38.25.601.308zM57.5 28.554c-.43.01-28.81.427-29.25.443-.236.01-.305.06-.306.305-.01 1.973-2.737 3.87-6.447 5.565-3.913 1.79-8.826 3.57-11.38 4.47-.608.214-1.699.583-2.05.755-.28.137-.475.348-.386.594.09.245.372.37 1.344.124.434-.11.923-.225 1.461-.36 4.902-1.223 13.88-3.376 22.625-5.47 9.055-2.166 17.982-4.04 24.526-5.172.514-.088.938-.354.917-.73-.02-.35-.446-.54-1.053-.525zm-23.33 12.16c.002 0 1.277.033 2.208-.502 1.5-.86 3.47-2.426 6.261-6.188L12.72 41.07l21.45-.354z" fill="#003da5"/></svg>