<svg xmlns="http://www.w3.org/2000/svg" viewBox="0 0 60.53 60.53"><path fill="#0050aa" stroke="#fff" stroke-width=".52" d="M.53.53 60.27.26v60h-60"/><circle cx="30.26" cy="30.26" r="27.66" fill="#fff000" stroke="#e60a14" stroke-width="1.79"/><path fill="#e60a14" d="M23.6 20.15a2.92 2.92 0 0 0-2.92 2.91v.02a2.93 2.93 0 1 0 2.93-2.93h-.01Zm.69 6.5-5.33 5.33v1.79l1.34-1.35 3.72 3.72-1.37 1.37.89.9 7.43-7.44v-1.78l-2.07 2.07-4.61-4.62"/><path fill="#0050aa" d="M29.61 25.67v1.78h1.37v6.16H29.6v1.78h7.82c5.81 0 5.89-9.72.02-9.72Zm6.34 3.03h.33c1.71 0 1.71 3.65.06 3.65h-.4Zm-28.6-3.03h8.22v1.78H14.2v5.74l4.76-2.65v4.85H7.35v-1.78h1.38v-6.16H7.35Zm34.67 0v1.78h1.38v6.16h-1.38v1.78h11.62v-4.85l-4.77 2.65v-5.74h1.38v-1.78h-8.23"/></svg>
