<svg xmlns="http://www.w3.org/2000/svg" width="345.921" height="348" viewBox="0 0 91.525 92.075"><path d="M42.813.987c1.644-1.316 3.946-1.316 5.919 0 4.604 2.96 8.879 5.919 12.825 9.207 0 0 .986.658 1.315-.658 0 0-.329-3.946.329-5.261.329-.987 1.315-1.644 2.302-1.644 0 0 4.932.329 8.22.657 1.316.33 2.631 1.316 2.631 2.96 0 0 1.973 13.811 2.631 18.744 0 0 .329 2.63 3.946 6.905 0 0 7.564 10.523 8.221 12.496 0 0 1.644 3.618-1.973 3.946 0 0-6.905.658-7.563.658-.987 0-1.644.987-1.644 1.973 0 0-.33 24.005-1.973 35.844 0 0-.33 4.603-2.96 4.603 0 0-6.906-.329-8.55-.329 0 0-.657 0-.657-.986 0 0 3.617-37.817.986-56.56 0 0 0-2.302-1.973-2.96 0 0-1.644-.658-3.288 1.644 0 0-11.18 14.14-11.18 33.87 0 0-.33 5.92.657 7.564 0 0 .658.987 3.617 1.315l3.617.658s.658 0 .658.987c0 0-.658 11.18-.987 13.153 0 .329 0 .987-.328 1.315 0 0 0 .33-1.316.33H38.21s-.658 0-.986-.33c-.33-.328-.987-14.14-.987-16.113 0-.328.329-.657.658-.986 2.63-1.644 4.275-4.275 4.603-7.235 0 0 .33-.986 0-6.248 0 0 .658-21.045.658-24.663 0 0 0-.986-1.315-1.315-.658 0-1.316.329-1.644.987 0 0-.987 13.81-.658 19.401 0 0 .329 3.617-2.302 3.617 0 0-2.302.33-2.63-2.63 0 0 .328-13.483.657-20.388 0-.658-.658-1.316-1.644-1.316-.658 0-1.644.33-1.644 1.316 0 0-.987 13.153-.658 19.73 0 0 .329 3.288-2.302 3.288 0 0-2.302.33-2.302-2.63 0 0 .658-18.744.658-20.06 0-.986-.658-1.644-1.315-1.644-.658 0-1.645.33-1.645 1.316 0 0-.986 22.36-.657 28.938 0 0 0 6.576 4.932 9.536 0 0 .658.329.658.986 0 0 .658 11.839.986 15.456 0 0 .33.986-.657.986l-12.167.658s-1.973 0-2.631-2.302c-.329-2.302-2.63-22.032-2.302-37.816 0-.987-.658-1.973-1.644-1.973 0 0-6.248-.658-7.892-.987C.72 48.668-.265 47.024.064 45.71c0-.33 0-.33.329-.658 0 0 13.81-26.307 42.42-44.064z" class="st3" fill="#ff8000"/></svg>