<svg xmlns="http://www.w3.org/2000/svg" viewBox="0 0 55.64 55.17"><path fill="#240047" d="M27.65 22.26c-.67 0-1.3.28-1.81.8-1.66 1.67-1.98 5.48-1.96 8.39.03 6.09 1.99 8.75 3.3 9.06l.1.02.21.02c2.5 0 3.13-6.63 3.26-8.66.26-3.95.26-9.25-2.8-9.6l-.3-.03Zm.17-9.05c-3.88 0-7.42 1.48-9.97 4.17-3.11 3.27-4.6 8.15-4.3 14.11.35 7.08 2.96 12.93 7.35 16.48l.43.36c1.67-.6 3.39-2 4.55-3.6l.54-.74-.74-.55a12.02 12.02 0 0 1-3.97-5.55c-1.06-2.79-2.02-11.57.97-15.93a6 6 0 0 1 5.13-2.73h.16c4.05.09 6.05 3.29 5.95 9.52-.08 5.08-.63 8.25-2.03 11.68l-.53 1.29s.77.23 2.76-.32c4.4-1.28 7.66-7 7.57-13.3-.08-5.68-3.86-14.76-13.66-14.9Zm1.39 32.64a15.53 15.53 0 0 1-3.04 3.52l-1.23 1.03s.8.4 1.58.6c1.85.58 3.56.8 5.47.8.97 0 1.96-.08 2.93-.22 8.08-1.2 16.76-9.77 17.31-22.02.32-7.11-2-13.7-6.53-18.55A24.2 24.2 0 0 0 28.36 3.4h-.54A24.34 24.34 0 0 0 3.38 27.41c-.15 7 2.05 13.34 6.03 17.4a16 16 0 0 0 3.96 2.95c2.32 1.1 3.65 1.13 3.65 1.13S15.9 47.77 15 46.6c-2.82-3.84-4.53-9.13-4.82-14.94-.44-8.73 2.6-13.85 5.22-16.61a16.9 16.9 0 0 1 12.42-5.23h.26a16 16 0 0 1 12.99 6.57 20.67 20.67 0 0 1 4 11.67c.1 7.88-4.1 14.86-10 16.59a13.38 13.38 0 0 1-4.75.53l-.6-.06-.51.73Zm2.77 9.32c-3.94 0-7.74-1.03-10.97-3l-.3-.18-.35.06a13.82 13.82 0 0 1-2.34.22c-3.91 0-7.83-1.8-11.03-5.08C2.4 42.5-.16 35.25.01 27.35A27.7 27.7 0 0 1 28.43.01a27.56 27.56 0 0 1 19.74 8.7c5.15 5.5 7.8 12.97 7.43 21-.65 14.52-10.89 23.83-20.19 25.2a23.7 23.7 0 0 1-3.43.26Z"/></svg>