<?xml version="1.0" encoding="utf-8"?><!-- Uploaded to: SVG Repo, www.svgrepo.com, Generator: SVG Repo Mixer Tools -->
<svg fill="#000000" width="800px" height="800px" viewBox="0 0 24 24" xmlns="http://www.w3.org/2000/svg" data-name="Layer 1"><path d="M12 2a9.82 9.82 0 0 0-9.66 9.91 10.24 10.24 0 0 0 2.43 7.2A5.34 5.34 0 0 0 8.6 21h.32a3.86 3.86 0 0 0 .49-.06h.12l.11.06a7.11 7.11 0 0 0 3.81 1 8 8 0 0 0 1.19-.09c3.23-.5 6.78-3.87 7-9.14a10.61 10.61 0 0 0-2.58-7.62A9.41 9.41 0 0 0 12.21 2Zm0 1.23h.19a8.24 8.24 0 0 1 6 2.76 9.37 9.37 0 0 1 2.27 6.73c-.19 4.44-3.21 7.54-6 8a7 7 0 0 1-1 .07 5.88 5.88 0 0 1-1.9-.28 2.92 2.92 0 0 1-.55-.22l.43-.37a5.57 5.57 0 0 0 1.05-1.28l.18-.26h.55a4.42 4.42 0 0 0 1.31-.21c2.05-.62 3.51-3.15 3.47-6a7.74 7.74 0 0 0-1.4-4.23 5.51 5.51 0 0 0-4.51-2.38H12a5.75 5.75 0 0 0-4.31 1.89 8 8 0 0 0-1.82 6 10.44 10.44 0 0 0 1.68 5.41 9.33 9.33 0 0 0 .7.84A3.68 3.68 0 0 1 7 19.32a5.76 5.76 0 0 1-1.37-1.07 8.94 8.94 0 0 1-2.1-6.31A8.63 8.63 0 0 1 12 3.23Zm0 3.56h.07c3.41 0 4.72 3.33 4.75 5.4 0 2.28-1.1 4.35-2.63 4.82a2 2 0 0 1-1 .11l.19-.46a11.41 11.41 0 0 0 .7-4.24c0-2.26-.66-3.42-2.06-3.45H12a2 2 0 0 0-1.78 1c-1 1.58-.71 4.76-.34 5.77a4.41 4.41 0 0 0 1.38 2l.26.19-.19.27a3.65 3.65 0 0 1-1.58 1.31l-.15-.13a8.17 8.17 0 0 1-2.55-6A6.89 6.89 0 0 1 8.54 8.3 4.58 4.58 0 0 1 12 6.79Zm-.06 3.28H12c1.07.13 1.07 2.05 1 3.48 0 .74-.27 3.14-1.13 3.14h-.11c-.46-.11-1.14-1.07-1.15-3.28a5 5 0 0 1 .68-3 .86.86 0 0 1 .65-.34Z"/></svg>