<svg xmlns="http://www.w3.org/2000/svg" viewBox="0 0 1024 1024" xmlns:v="https://vecta.io/nano"><circle cx="512" cy="512" r="512"/><radialGradient id="A" cx="374.02" cy="1309.089" r="635.35" gradientTransform="matrix(1 0 0 1 0 -950.6)" gradientUnits="userSpaceOnUse"><stop offset="0" stop-color="#fef000"/><stop offset=".332" stop-color="#fef000"/><stop offset=".458" stop-color="#fce701"/><stop offset=".664" stop-color="#f8cf02"/><stop offset=".922" stop-color="#f0a704"/><stop offset="1" stop-color="#ee9a05"/></radialGradient><circle cx="512" cy="512" r="430.7" fill="url(#A)"/><radialGradient id="B" cx="512" cy="1462.6" r="430.73" gradientTransform="matrix(1 0 0 1 0 -950.6)" gradientUnits="userSpaceOnUse"><stop offset="0" stop-color="#fef000" stop-opacity="0"/><stop offset=".7" stop-color="#fef000" stop-opacity="0"/><stop offset="1" stop-color="#cc4300" stop-opacity=".2"/></radialGradient><circle cx="512" cy="512" r="430.7" fill="url(#B)"/><path d="M770.4 528.7c-22.7 0-41.1 18.4-41.1 41.1 0 94.1-85.1 170.7-189.9 170.7s-189.9-76.6-189.9-170.7c0-22.7-18.4-41.1-41.1-41.1s-41.1 18.4-41.1 41.1c0 139.4 121.9 252.8 272 252.8s272-113.4 272-252.8c.1-22.7-18.3-41.1-40.9-41.1zm-370.9-92c38.1 0 68.9-32.5 68.9-72.3 0-40.2-30.8-72.3-68.9-72.3s-68.9 32.5-68.9 72.3c.5 40.2 31.3 72.3 68.9 72.3zm278.9 0c38.1 0 68.9-32.5 68.9-72.3 0-40.2-30.8-72.3-68.9-72.3s-68.9 32.5-68.9 72.3c0 40.2 30.8 72.3 68.9 72.3z"/></svg>