<svg xmlns="http://www.w3.org/2000/svg" width="160" height="160"><defs><clipPath clipPathUnits="userSpaceOnUse" id="a"><path d="M0 612.288h858.898V0H0z"/></clipPath></defs><g clip-path="url(#a)" transform="matrix(1.33333 0 0 -1.33333 -492.598 488.195)"><path d="M463.448 246.146h-68c-14.359 0-26 11.641-26 26v68c0 14.36 11.641 26 26 26h68c14.36 0 26-11.64 26-26v-68c0-14.359-11.64-26-26-26" fill="#00b900"/><path d="M472.944 311.423c0 19.55-19.599 35.456-43.69 35.456-24.09 0-43.69-15.906-43.69-35.456 0-17.527 15.542-32.206 36.538-34.98 1.423-.308 3.36-.938 3.85-2.155.44-1.105.287-2.835.14-3.95 0 0-.512-3.083-.623-3.74-.19-1.105-.878-4.32 3.784-2.356 4.664 1.965 25.162 14.815 34.33 25.366h-.003c6.331 6.944 9.364 13.99 9.364 21.815" fill="#fff"/><path d="M420.377 320.87h-3.065a.851.851 0 01-.851-.85v-19.037a.85.85 0 01.85-.849h3.066c.47 0 .85.38.85.85v19.036a.85.85 0 01-.85.85M441.47 320.87h-3.063a.85.85 0 01-.851-.85v-11.31l-8.725 11.782a.932.932 0 01-.066.086l-.005.006a1.275 1.275 0 01-.052.052l-.015.015c-.015.012-.03.026-.046.037l-.022.018-.044.03c-.008.006-.017.01-.026.015a1.04 1.04 0 01-.045.026c-.01.004-.018.01-.027.013-.016.007-.032.015-.05.02a.313.313 0 01-.027.01c-.016.007-.033.012-.05.017l-.03.008a.707.707 0 01-.05.01l-.034.005-.045.006-.044.003-.03.001h-3.065a.851.851 0 01-.851-.85v-19.037a.85.85 0 01.85-.849h3.066c.47 0 .85.38.85.85v11.305l8.736-11.796a.86.86 0 01.216-.21l.009-.007a.564.564 0 01.053-.03c.007-.006.015-.01.024-.015a.497.497 0 01.04-.02l.042-.017.025-.01.058-.019.013-.002a.809.809 0 01.218-.029h3.064c.47 0 .85.38.85.85v19.036a.85.85 0 01-.85.85M412.99 304.901h-8.328v15.12a.85.85 0 01-.85.85h-3.066a.85.85 0 01-.85-.85v-19.038c0-.228.091-.435.238-.587l.011-.014c.004-.003.01-.006.012-.01a.848.848 0 01.588-.239h12.244c.47 0 .85.382.85.852v3.064c0 .47-.38.852-.85.852M458.394 316.103c.47 0 .85.381.85.851v3.065a.85.85 0 01-.85.851H446.15a.845.845 0 01-.59-.24l-.01-.009a.843.843 0 01-.25-.601v-19.037c0-.228.091-.435.24-.587.001-.005.006-.01.01-.014a.841.841 0 01.6-.249H458.394c.47 0 .85.382.85.852v3.064c0 .47-.38.852-.85.852h-8.326v3.218h8.326c.47 0 .85.38.85.851v3.064c0 .47-.38.852-.85.852h-8.326v3.217z" fill="#00b900"/></g></svg>