<svg xmlns="http://www.w3.org/2000/svg" width="18.247" height="18.247"><path d="M6.786 1.854a.81.81 0 0 0-1.416 0l-5.292 9.6c-.246.493.123 1.047.677 1.047h3.57v3.63c0 .37.307.678.676.678h2.092c.37 0 .677-.308.677-.677v-3.63h-.984a.8.8 0 0 1-.8-.678c0-.123 0-.246.06-.37L9.002 6.1z" fill="#39e09b"/><path d="M11.463 1.854a.81.81 0 0 1 1.415 0l5.292 9.6c.246.493-.123 1.047-.677 1.047h-3.507v3.63c0 .37-.308.678-.678.678h-2.215a.683.683 0 0 1-.677-.677v-3.63h.985a.8.8 0 0 0 .8-.678c0-.123 0-.246-.062-.37L9.186 6.101z" fill="#28bf7b"/></svg>