<svg xmlns="http://www.w3.org/2000/svg" data-name="Group 1282" width="64.791" height="64.791"><path d="M59.991.006H4.781A4.728 4.728 0 000 4.676v55.439a4.731 4.731 0 004.781 4.675h55.21a4.741 4.741 0 004.8-4.675V4.672a4.738 4.738 0 00-4.8-4.67" fill="#0a66c2"/><path d="M19.215 55.206h-9.61V24.289h9.61zM14.415 20.063a5.571 5.571 0 115.57-5.572 5.571 5.571 0 01-5.57 5.572M55.205 55.206h-9.6V40.172c0-3.585-.064-8.2-4.993-8.2-5 0-5.765 3.906-5.765 7.939v15.294h-9.6V24.289h9.216v4.225h.129a10.1 10.1 0 019.093-4.994c9.73 0 11.524 6.4 11.524 14.726z" fill="#fff"/></svg>