<svg xmlns="http://www.w3.org/2000/svg" xmlns:xlink="http://www.w3.org/1999/xlink" viewBox="0 0 129 50"><defs><linearGradient id="a" x1="50%" x2="50%" y1="18%" y2="100%"><stop stop-color="#14A248"/><stop offset="33%" stop-color="#139A47"/><stop offset="56%" stop-color="#118446"/><stop offset="83%" stop-color="#0D6144"/><stop offset="100%" stop-color="#0A4842"/></linearGradient><path id="b" d="M30.24 44.45c0 3.36-1.6 4.95-4.98 4.95H5.66C1.84 49.4 0 47.32 0 43.35V6.72c0-3.36 1.66-4.95 4.85-4.95 3.39 0 4.98 1.6 4.98 4.96v32.89h15.43c3.38 0 4.98 1.65 4.98 4.83Zm93.97-30.39h-5.9V6.6c0-3.11-1.67-4.83-4.8-4.83-3.14 0-4.73 1.71-4.73 4.83v7.46h-8.2a4.9 4.9 0 0 0-3.2 1.16L85.4 25.32V6.53c0-3.19-1.53-4.77-4.73-4.77S76 3.37 76 6.54V44.7c0 3.12 1.53 4.71 4.67 4.71 3.26 0 4.73-1.6 4.73-4.7v-7.83a94.2 94.2 0 0 1 3.93-3.3l.06.03L97.23 47a4.85 4.85 0 0 0 2.6 2.15c1.26.44 2.7.25 3.88-.39a4.83 4.83 0 0 0 2.26-3.16 4.81 4.81 0 0 0-.6-3.32l-8.43-14.43 5.2-4.32h6.64v21.1c0 3.23 1.53 4.76 4.8 4.76 3.2 0 4.72-1.53 4.72-4.77v-21.1h5.9c3.26 0 4.8-1.52 4.8-4.76 0-3.18-1.54-4.7-4.8-4.7Zm-61.31-.24c-3.7 0-6.4 1.95-8.55 4.4 0-1.9-1.54-4.22-4.8-4.22-3.07 0-4.6 2.33-4.6 4.9v25.8c0 3.11 1.54 4.7 4.6 4.7 3.26 0 4.8-1.6 4.8-4.7V27.62c0-3.6 2.4-5.44 4.85-5.44 2.22 0 4.55 1.77 4.55 5.44V44.7c0 3.12 1.66 4.71 4.74 4.71 3.2 0 4.79-1.6 4.79-4.7V25.91c0-8.99-5.65-12.1-10.38-12.1ZM37.4 0a5.46 5.46 0 0 0-5.36 5.44 5.46 5.46 0 0 0 10.9 0A5.4 5.4 0 0 0 37.4 0Zm.04 14.3c-3.14 0-4.8 1.54-4.8 4.78v25.55c0 3.24 1.66 4.77 4.8 4.77 3.13 0 4.8-1.53 4.8-4.77V19.07c0-3.24-1.67-4.76-4.8-4.76Z"/></defs><g fill="url(#a)"><use xlink:href="#b"/><use xlink:href="#b"/></g></svg>