<svg xmlns="http://www.w3.org/2000/svg" width="178.3" height="178.3"><path d="m163.4 78.9-24.7-13.6L117.9 78l-.3 13-10.1-6.7-13.8 8.4c-.2-3.9-.4-8.6-.6-14.2L78.9 69c3.9-2 8.4-4.3 13.5-7-.1 0 .1 1.4-2-46.5L58.4.1 14.8 13.7l9.7 46.9L39.1 72 28 77.3l7.3 35.3 10.2 9.6-7.3 4.5 5.7 27.3 22.9 24.3c.1-.1 2.4-1.9 29.5-23.5l-.8-18.6 11.7 9.9c.2-.2 2.4-1.9 23.7-18.8l.8-13.7 8.8 6.1c.1-.2 2.1-1.7 19.3-15.3z"/><path d="m142.9 93.5 20.5-14.6-24.7-13.6L117.9 78z" fill="#141414"/><path d="m140.6 119.5 2.3-26-25-15.5-.5 25.4zM107.4 146l-.3-27L82 99.9l1.9 26.4z" fill="#004b16"/><path d="m107.1 119 25.5-18.2-25.1-16.5L82 99.9z" fill="#141414"/><path d="m66.9 178.2-4.1-27.6-24.6-24.1 5.7 27.4z" fill="#004b16"/><path d="m62.8 150.6 32.4-23.1-25.1-20.4-31.9 19.4z" fill="#141414"/><path d="m60.7 136.3-5.3-36.4L28 77.1l7.3 35.4z" fill="#004b16"/><path d="m55.4 99.9 37.7-21.4-28.2-18.9L28 77.1z" fill="#141414"/><path d="m52.8 82.5-7.3-49.9-30.7-19 9.7 46.9z" fill="#004b16"/><path d="m45.5 32.6 44.9-17.2L58.4 0 14.8 13.6z" fill="#141414"/><path d="M160 104.2c-19 15.1-19.4 15.4-19.3 15.4 2.4-27.2 2.2-26 2.3-26C164.8 78.1 163.4 79 163.5 79zm-29 23c-23.5 18.7-23.8 18.8-23.7 18.8-.2-28.2-.3-27-.2-27 27.1-19.4 25.4-18.2 25.5-18.2zm-34.6 27.5C67 178 66.8 178.2 66.9 178.2c-4.2-28.4-4.1-27.5-4-27.5 34.5-24.6 32.3-23.1 32.4-23.1zm-6-139.3c2.1 47.9 1.9 46.5 2 46.5-38.8 20.2-39.7 20.6-39.6 20.6-7.5-51-7.4-49.9-7.3-49.9zm2.7 63.1c1.6 36.3 1.4 35.1 1.5 35.1-33.6 22.6-34 22.8-33.9 22.8C55.2 99 55.3 100 55.4 100z" fill="#1cb35c"/></svg>