<svg version="1.1" id="RVB" x="0" y="0" xml:space="preserve" width="102.1" height="102.1" xmlns:xlink="http://www.w3.org/1999/xlink" xmlns="http://www.w3.org/2000/svg"><style type="text/css" id="style1018"></style><g id="g1165" transform="translate(-1437.1 -19.8)"><g id="g1151"><defs id="defs1144"><path id="SVGID_2_" d="M1518.3 47.1L1488.5 77c-4.8 4.9-4.8 12.6 0 17.4 4.8 4.9 12.5 4.9 17.4 0l29.7-29.9c4.8-4.9 4.8-12.6 0-17.4-4.7-4.7-12.5-4.7-17.3 0z"/></defs><use xlink:href="#SVGID_2_" id="use1146" x="0" y="0" width="100%" height="100%" clip-rule="evenodd" overflow="visible" fill="#55efc4" fill-rule="evenodd"/><clipPath id="SVGID_15_"><use xlink:href="#SVGID_2_" id="use1148" x="0" y="0" width="100%" height="100%" overflow="visible"/></clipPath></g><path d="M1505.9 77.1l-29.8-29.9c-4.8-4.9-12.5-4.9-17.4 0-4.8 4.9-4.8 12.6 0 17.4l29.8 29.9c4.8 4.9 12.5 4.9 17.4 0 4.8-4.8 4.8-12.6 0-17.4z" id="path1153" opacity=".75" fill-rule="evenodd" clip-rule="evenodd" fill="#34a597"/><g id="g1163"><defs id="defs1156"><path id="SVGID_1_" d="M1458.8 47.2l-18.1 18.1c-4.8 4.9-4.8 12.6 0 17.4 4.8 4.9 12.5 4.9 17.4 0l18.1-18.1c4.8-4.9 4.8-12.6 0-17.4-4.9-4.8-12.7-4.8-17.4 0z"/></defs><use xlink:href="#SVGID_1_" id="use1158" x="0" y="0" width="100%" height="100%" clip-rule="evenodd" overflow="visible" fill="#55efc4" fill-rule="evenodd"/><clipPath id="SVGID_16_"><use xlink:href="#SVGID_1_" id="use1160" x="0" y="0" width="100%" height="100%" overflow="visible"/></clipPath></g></g></svg>