<svg xmlns="http://www.w3.org/2000/svg" class="site-logo__img" height="40.477" width="40.477"><defs><linearGradient id="a" x1="10.898" x2=".237" y1="-.845" y2="28.698" gradientTransform="scale(.95514 1.04696)" gradientUnits="userSpaceOnUse"><stop offset="0%" stop-color="#2AC4F3"/><stop offset="50%" stop-color="#00B2E2"/><stop offset="100%" stop-color="#0095DA"/></linearGradient><linearGradient id="b" x1="16.341" x2="5.503" y1="3.939" y2="25.439" gradientTransform="scale(1.1289 .88582)" gradientUnits="userSpaceOnUse"><stop offset="0%" stop-color="#2AC4F3"/><stop offset="50%" stop-color="#00B2E2"/><stop offset="100%" stop-color="#0095DA"/></linearGradient><linearGradient id="c" x1="29.435" x2="19.124" y1="5.533" y2="34.75" gradientTransform="scale(.94457 1.05868)" gradientUnits="userSpaceOnUse"><stop offset="0%" stop-color="#2AC4F3"/><stop offset="50%" stop-color="#00B2E2"/><stop offset="100%" stop-color="#0095DA"/></linearGradient><linearGradient id="d" x1="19.43" x2="9.317" y1="22.082" y2="39.552" gradientTransform="scale(1.20976 .8266)" gradientUnits="userSpaceOnUse"><stop offset="0%" stop-color="#2AC4F3"/><stop offset="50%" stop-color="#00B2E2"/><stop offset="100%" stop-color="#0095DA"/></linearGradient><linearGradient id="e" x1="12.91" x2="6.534" y1="57.687" y2="62.066" gradientTransform="scale(1.9187 .52119)" gradientUnits="userSpaceOnUse"><stop offset="0%" stop-color="#2AC4F3"/><stop offset="50%" stop-color="#00B2E2"/><stop offset="100%" stop-color="#0095DA"/></linearGradient></defs><g fill="none"><path d="M11.436 26.652c-.16-2.252.56-5.308 1.68-8.484-2.04 1.005-3.88 2.131-5.48 3.337-1.96 5.589 0 12.062 4.8 15.56.6.442 1.24.844 1.92 1.166 1.92.965 4 1.407 6.04 1.407-.04-.04-8.4-5.307-8.96-12.986zm4.16-14.756c2.48-5.589 5.12-10.253 5.12-10.253l-.36-.563c-2.24 3.458-4.52 6.916-6.76 10.333zm-3.24 1.488c-1 1.568-2 3.095-2.96 4.663l4.68-2.492c.24-.563.44-1.166.68-1.73-.8-.2-1.64-.32-2.4-.441z" fill="#e6e7e8"/><path fill="url(#a)" d="M7.17 13.868c-.444-.08-.887-.161-1.29-.201-.08 0-.12 0-.2-.04-1.129 1.768-2.256 3.497-3.344 5.265-.04.04-.04.08-.08.12l2.416-1.286c.846-1.246 1.652-2.572 2.497-3.858z" transform="translate(5.756 -.16)"/><path fill="url(#b)" d="M8.418 11.938l2.78-4.22C12.284 6.07 13.411 4.38 14.5 2.653c1.087 1.688 2.215 3.376 3.303 5.024l2.9 4.462 1.45-.321c-1.088-1.648-2.135-3.296-3.182-4.904-1.249-1.93-2.538-3.9-3.827-5.869L14.5.161l-.564.884a754.449 754.449 0 01-3.907 5.909c-1.047 1.568-2.094 3.175-3.141 4.783h.805z" transform="translate(5.756 -.16)"/><path fill="url(#c)" d="M24.408 17.887l2.618 1.608c-.12-.2-.201-.362-.322-.563-1.128-1.768-2.255-3.537-3.423-5.306-.202.04-.444.04-.645.08l-.846.121c.846 1.327 1.732 2.653 2.618 4.06z" transform="translate(5.756 -.16)"/><path fill="url(#d)" d="M28.356 22.831c-.605-.482-1.25-.924-1.934-1.406 1.45 3.416 1.37 7.396-.322 10.772a12.706 12.706 0 01-4.068 4.703c-2.175 1.527-4.874 2.412-7.532 2.412a13.01 13.01 0 01-5.76-1.327A13.5 13.5 0 016.928 36.9a12.965 12.965 0 01-5.035-7.919c-.564-2.693-.242-5.386.846-7.838-.685.482-1.37.965-1.974 1.487a14.56 14.56 0 00-.201 6.593c.725 3.537 2.699 6.672 5.558 8.762.645.442 1.33.885 2.014 1.206a13.954 13.954 0 006.243 1.447h.121c2.94-.04 5.92-.964 8.338-2.693 1.893-1.326 3.463-3.135 4.47-5.185 1.571-3.095 1.893-6.673 1.048-9.929z" transform="translate(5.756 -.16)"/><path fill="url(#e)" d="M7.693 30.268s2.054 3.698 6.807 3.698c4.511 0 6.807-3.698 6.807-3.698-7.492 4.863-13.614 0-13.614 0z" transform="translate(5.756 -.16)"/><g><path fill="#404041" d="M1.548 27.214c-.319 1.498.12 2.287.358 2.721.677 1.144 1.91 1.854 3.662 2.09h.04s.318.079.796.079c.2.473.438.907.677 1.34h-.359c-.716 0-1.273-.078-1.353-.117-2.19-.316-3.781-1.262-4.657-2.761-.438-.75-.916-2.208-.438-4.023.04.08.597.474 1.274.67zm16.599-12.62a26.856 26.856 0 00-2.23-.591c-.517.197-1.034.394-1.552.63-4.299 1.775-7.921 4.063-10.469 6.547a2.45 2.45 0 00-1.194-.315 2.57 2.57 0 00-2.587 2.563 2.57 2.57 0 002.587 2.563 2.57 2.57 0 002.587-2.563c0-.473-.159-.947-.398-1.34 2.429-2.328 5.971-4.576 10.031-6.271 1.035-.395 2.15-.828 3.225-1.223zM2.662 24.848c-.756 0-1.393-.631-1.393-1.38 0-.75.637-1.38 1.393-1.38.757 0 1.393.63 1.393 1.38 0 .788-.636 1.38-1.393 1.38zm19.863-11.595c1.95-.512 3.782-.907 5.454-1.143 4.02-.552 5.891.04 6.29.788.357.67-.08 2.051-1.235 3.707l1.115.75c1.512-2.17 1.95-3.905 1.313-5.088-1.433-2.681-8.12-1.971-15.245.198"/><path fill="#4b4a4b" d="M20.256 12.543c-7.085-2.169-13.772-2.878-15.245-.197-.637 1.183-.2 2.919 1.313 5.088l1.115-.75c-1.154-1.656-1.632-2.997-1.234-3.707.398-.75 2.269-1.34 6.29-.828 3.78.473 8.438 1.814 13.135 3.786 6.727 2.8 11.862 6.98 13.136 10.727.438 1.262.358 2.405-.16 3.352-.676 1.144-1.91 1.853-3.701 2.09 0 0-.12 0-.318.04-.08.236-.2.433-.319.63-.12.237-.239.474-.398.75.717 0 1.194-.08 1.234-.08.279-.039.517-.078.796-.157.239-.04.518-.118.717-.197l.358-.118c1.234-.474 2.19-1.262 2.786-2.288.757-1.262.836-2.8.279-4.456-1.393-4.14-6.727-8.558-13.892-11.516a40.95 40.95 0 00-3.662-1.38zM11.3 8.008c-.279 0-.557-.118-.756-.315a1.072 1.072 0 01-.319-.75c0-.276.12-.552.319-.749.199-.197.477-.315.756-.315s.557.118.756.315c.2.197.319.473.319.75 0 .275-.12.552-.319.749a1.093 1.093 0 01-.756.315z"/><path fill="#404041" d="M38.328 18.932c-.278 0-.557-.118-.756-.315a1.072 1.072 0 01-.318-.75c0-.276.119-.552.318-.749.199-.197.478-.315.756-.315.279 0 .558.118.757.315.199.197.318.473.318.75 0 .275-.12.551-.318.749-.2.236-.438.315-.757.315z"/></g></g></svg>