<svg xmlns="http://www.w3.org/2000/svg" width="31.098" height="31.098"><path d="M9.88 0c-.572 0-1.06.493-1.06 1.067v4.595a1.64 1.64 0 001.63 1.641h3.263a1.64 1.64 0 011.631 1.641v5.087c0 .903.735 1.641 1.632 1.641h4.976c.898 0 1.632.739 1.632 1.641v3.282a1.64 1.64 0 001.631 1.641h4.57c.57 0 1.06-.492 1.06-1.066V1.067c0-.574-.49-1.067-1.06-1.067zM8.817 21.252v-10.42c0-.903-.734-1.642-1.63-1.642H1.312c-.57 0-1.06.493-1.06 1.067v19.774c0 .575.49 1.067 1.06 1.067h20.069c.57 0 1.06-.492 1.06-1.067v-5.415a1.64 1.64 0 00-1.63-1.641h-10.28c-.98 0-1.714-.739-1.714-1.723z" fill="#0157ff"/></svg>