<svg xmlns="http://www.w3.org/2000/svg" viewBox="0 0 90 90"><path fill="#0b1c40" d="M88.47 33.48c-6.34-4.43-17.08-6.54-27.25-7.5 13.62-9.24 19.38-8.09 19.38-8.09C73.7 9.62 68.32 7.12 68.32 7.12c-7.86.58-18.03 7.5-25.7 13.85 3.26-16.74 8.63-20 8.63-20a47.44 47.44 0 00-16.5.57c-3.07 3.27-5.18 8.66-6.52 14.43l-8.06-7.89A43.48 43.48 0 007.7 20.01l8.44 8.27C4.05 31.17 1.18 35.02 1.18 35.02A38.33 38.33 0 00.6 51.18c3.07-4.43 11.9-7.12 19.95-8.47-14.39 17.32-14.2 25.4-14.2 25.4A46.8 46.8 0 0017.3 80.23c0-5.38 3.65-12.5 8.25-19.04 1.92 19.24 7.67 26.74 7.67 26.74 5.38 1.35 10.94 1.92 16.5 1.35-6.71-7.5-8.63-25.79-9.2-36.37l29.35 28.86a46.06 46.06 0 0012.27-12.12L53.36 40.8c29.16 1.15 36.26 9.04 36.26 9.04.76-5.38.38-10.96-1.15-16.35z"/></svg>
