<svg xmlns="http://www.w3.org/2000/svg" width="58.816" height="58.816" viewBox="0 0 15.562 15.562"><path d="M2.233 2.985a.979.979 0 00-.205.023c-.89.534-1.946 1.572-.89 2.403a.894.894 0 00.396.095c.696 0 1.308-.841 1.382-1.5.108-.625-.202-1.02-.683-1.02M6.487 0a8.067 8.067 0 00-1.562.42c-.418.25-.665.583-.196 1.044.231.228.575.344.938.347h.022c.623-.004 1.295-.347 1.535-1.046C7.237.402 6.931.11 6.487 0M3.494 1.133c-.57.358-1.09.785-1.548 1.269.032.003.065.004.098.004.717 0 1.423-.663 1.448-1.263l.002-.01" fill="#3f7fca"/><path d="M9.233.016c-.697.116-.702.466-.702.818V.84c.119.584.838.97 1.484.97.503 0 .962-.234 1.056-.793a1.115 1.115 0 00-.36-.595A8.053 8.053 0 009.234.015" fill="#f39e0f"/><path d="M5.858 2.408h-.035c-.048 0-.097.003-.146.008C4.814 2.48 4.009 3.302 4 4.06v.024a.981.981 0 00.305.704c.25.184.591.278.951.281h.044c.847-.008 1.775-.51 1.83-1.497V3.53c-.004-.662-.564-1.115-1.273-1.122" fill="#3f7fca"/><path d="M12.118 1.122c.002.02.006.04.01.062.11.54.723 1.105 1.314 1.225a1 1 0 00.192.021h.021c.018 0 .035 0 .053-.002-.47-.5-1.004-.939-1.59-1.306M9.82 2.436c-.69 0-1.23.437-1.23 1.089v.056c.034.741.827 1.458 1.701 1.523.046.004.09.005.133.005.797 0 1.29-.559 1.182-1.243-.115-.721-.81-1.334-1.604-1.42a1.619 1.619 0 00-.183-.01M13.39 3.033h-.031c-.397.007-.669.296-.673.764v.021c0 .074.008.151.022.233.123.705.708 1.4 1.263 1.483.04.006.078.008.116.008.428 0 .709-.372.71-.882v-.007c0-.067-.005-.138-.016-.21-.095-.665-.626-1.266-1.209-1.389a.985.985 0 00-.182-.021" fill="#f39e0f"/><path d="M1.613 6.314a.546.546 0 00-.07.004C.897 6.493.53 7.188.527 7.847v.011c.002.613.322 1.193 1.033 1.293h.01c.628-.01 1.046-.834 1.021-1.394 0-.824-.442-1.443-.978-1.443M5.437 6.028c-.024 0-.047 0-.07.002-2.117.212-2.117 3.328-.005 3.536.845 0 1.69-.83 1.71-1.81 0-.972-.751-1.727-1.635-1.727" fill="#3f7fca"/><path d="M10.275 6.044c-.857 0-1.589.746-1.588 1.712 0 .966.732 1.713 1.59 1.713.024 0 .05 0 .074-.002.89-.045 1.566-.808 1.566-1.71 0-.903-.677-1.666-1.567-1.711l-.075-.002" fill="#f39e0f"/><path d="M14.045 6.339" fill="#fff"/><path d="M14.045 6.339c-1.29.319-1.5 2.604-.022 2.811.597 0 1.007-.738 1.012-1.293v-.018a.709.709 0 00-.004-.08c0-.735-.437-1.364-.986-1.42" fill="#f39e0f"/><path d="M1.497 10.006c-.435 0-.718.365-.724.87v.03c.001.066.006.135.017.205.1.67.64 1.275 1.235 1.4.07.015.14.022.205.022.416 0 .705-.297.705-.782v-.005c0-.074-.007-.152-.02-.235-.122-.71-.726-1.413-1.297-1.497a.838.838 0 00-.12-.009M5.371 10.432c-1.286 0-1.688 1.429-.853 2.25.273.27.823.461 1.348.466h.038c.637-.006 1.228-.292 1.233-1.055v-.02c0-.041-.002-.084-.006-.127-.022-.743-.816-1.455-1.713-1.514H5.37" fill="#3f7fca"/><path d="M10.444 10.404h-.041c-.036 0-.072.002-.11.005-.874.066-1.668.784-1.702 1.526a.678.678 0 000 .038v.035c.01.639.536 1.068 1.211 1.076h.04c.053-.001.107-.004.162-.01.794-.087 1.49-.701 1.605-1.423.107-.68-.378-1.237-1.165-1.246M14.088 9.974a.768.768 0 00-.116.01c-.833.14-1.294.965-1.298 1.604v.015c.002.287.097.535.293.664.199.147.398.213.588.215h.02c.607-.007 1.113-.663 1.208-1.407.088-.618-.208-1.1-.695-1.1M13.662 13.09h-.03c-.06 0-.123.007-.187.02-.605.172-1.33.673-1.356 1.354a8.041 8.041 0 001.66-1.369.624.624 0 00-.087-.006" fill="#f39e0f"/><path d="M5.426 13.671c-.478 0-.897.361-.908.86v.022c.035.207.123.386.246.533.508.205 1.041.361 1.595.46.395-.1.733-.359.865-.79-.017-.492-.69-.954-1.47-1.027a.976.976 0 00-.328-.058M1.85 13.065a8.03 8.03 0 001.648 1.374l-.008-.061c-.11-.536-.732-1.1-1.333-1.222a.959.959 0 00-.306-.09" fill="#3f7fca"/><path d="M10.127 13.688c-.068 0-.139.004-.212.012-1.173.229-1.595.852-1.173 1.475a.77.77 0 00.445.387 8.08 8.08 0 001.382-.363c.213-.181.394-.416.504-.696.091-.472-.301-.815-.946-.815" fill="#f39e0f"/></svg>