<svg viewBox="0 0 107.8 107.8" xmlns="http://www.w3.org/2000/svg"><path d="M42.3 72.7 23.6 98.5c8.2 5.6 18.1 9 28.7 9.3V76c-3.7-.3-7.1-1.4-10-3.3z" fill="#48555c"/><path d="M52.2 31.8V0C41.6.3 31.7 3.7 23.5 9.3L42.2 35c3-1.8 6.4-2.9 10-3.2z" fill="#b2ad4b"/><path d="M84.2 9.3C76 3.7 66.1.3 55.5 0v31.8c3.6.3 7 1.4 10 3.2z" fill="#e3b23a"/><path d="M33.4 62.3 3.2 72.1c3.5 9.7 9.7 18.2 17.8 24.4l18.7-25.7c-2.8-2.3-4.9-5.2-6.3-8.5z" fill="#4e5c5a"/><path d="M39.6 37 20.9 11.3C12.8 17.5 6.6 26 3.1 35.7l30.2 9.8c1.4-3.3 3.6-6.2 6.3-8.5z" fill="#9e9540"/><path d="M31.8 53.9c0-1.8.2-3.5.6-5.2L2.1 38.8C.7 43.6 0 48.7 0 53.9S.8 64.2 2.2 69l30.2-9.8c-.4-1.7-.6-3.5-.6-5.3z" fill="#6a7b53"/><path d="M68.3 70.7 87 96.4c8-6.2 14.2-14.7 17.7-24.4l-30.2-9.8c-1.4 3.4-3.6 6.3-6.2 8.5z" fill="#d45741"/><path d="M55.6 76v31.8c10.6-.3 20.5-3.7 28.7-9.3L65.6 72.7c-3 1.8-6.4 3-10 3.3z" fill="#983428"/><path d="m105.7 38.8-30.2 9.8c.4 1.7.6 3.5.6 5.3s-.2 3.5-.6 5.2l30.2 9.8c1.4-4.8 2.1-9.8 2.1-15 0-5.3-.7-10.3-2.1-15.1z" fill="#e7703d"/><path d="m74.4 45.4 30.2-9.8c-3.5-9.7-9.7-18.2-17.8-24.4L68.2 37c2.7 2.2 4.8 5.1 6.2 8.4z" fill="#f2a738"/></svg>