<svg xmlns="http://www.w3.org/2000/svg" width="29.866" height="29.866"><path fill="#00b0ea" d="M15.877 1.919c-1.972 0-3.846.411-5.547 1.146L7.261 0h-.007A14.02 14.02 0 00.016 7.28l3.074 3.071-.002.003c-.742 1.704-1.184 3.56-1.184 5.538 0 7.72 6.255 13.974 13.973 13.974 7.715 0 13.972-6.256 13.972-13.974 0-7.716-6.256-13.973-13.972-13.973"/><path fill="#15374c" d="M14.453 21.696a14.025 14.025 0 017.238-7.281h.002L10.333 3.071l-.006-.001a14.011 14.011 0 00-7.239 7.282zM22.505 18.29a8.157 8.157 0 00-4.205 4.229l5.306 1.097z"/><path d="M22.505 18.29l-.812-3.876-.004.001a14.029 14.029 0 00-7.237 7.28l3.848.822a8.193 8.193 0 014.205-4.227" fill="#fff"/></svg>