<svg xmlns="http://www.w3.org/2000/svg" width="1587" height="1184" version="1.2"><path d="M1586.4 607.5c.1 12.5-3.5 24.8-10.3 35.3-6.7 10.5-16.4 18.8-27.8 23.9-11.3 5.2-24 6.9-36.3 5-12.4-1.9-23.9-7.4-33.2-15.7-.2 8.3-2 16.5-5.3 24.1-3.3 7.6-8 14.5-14 20.3-5.9 5.7-12.9 10.3-20.6 13.4-7.7 3.1-15.9 4.7-24.2 4.7-8 0-16-1.6-23.5-4.6-7.5-3-14.4-7.3-20.3-12.8-5.9-5.5-10.7-12.1-14.1-19.4-3.5-7.3-5.6-15.1-6.1-23.2-10.7 0-21.4 0-30.4-.8-22.2-1.6-46-14-70.7-27.9q.7 1.9 1.1 4 .5 2 .8 4.1.3 2 .5 4.1.1 2.1.1 4.2c0 17.2-6.8 33.7-19 45.9-12.2 12.2-28.7 19-45.9 19s-33.7-6.8-45.9-19c-12.2-12.2-19-28.7-19-45.9 0-5.9.7-11.8 2.3-17.5 1.5-5.6 3.8-11.1 6.8-16.1 3.1-5.1 6.8-9.7 11.1-13.7 4.3-4.1 9.1-7.5 14.3-10.2-36.1-6.6-56.6.8-86.2 14.8q-1.7.4-3.3 1-1.6.6-3.1 1.3-1.6.7-3 1.6-1.5.8-2.9 1.8c-4.1 2.5-8.2 4.9-11.5 7.4C987.6 656 897.3 757.9 880 803.9q-2.4 7.4-4.1 14.9-1.8 7.5-2.8 15.1-1 7.7-1.4 15.4-.3 7.7.1 15.4v19.8c.8 14.8.8 33.7.8 50.1-2.4 145.4 38.6 206.2 71.5 235 1.3 1 2.2 2.4 2.6 3.9.5 1.6.4 3.3-.1 4.8s-1.5 2.9-2.9 3.8c-1.3.9-2.9 1.4-4.5 1.4H664c-1.5 0-3-.4-4.3-1.2-1.2-.9-2.2-2.1-2.9-3.5-.6-1.4-.8-2.9-.5-4.4.2-1.5.9-2.9 2-4 24.6-26.3 57.5-51 65.7-91.2 26.2-126.5 4.1-272.8-5.8-308.1-6.6-25.5-40.2-55.1-148.7-124.9l-.8-.8c-23-18.1-125.6-7.4-181.5-1.7-4.1.9-7.4.9-10.7 1.7q1.5 2.9 2.6 6 1.2 3.1 1.9 6.3.7 3.3 1 6.6.4 3.2.3 6.5c0 17.3-6.9 33.8-19 45.9-12.2 12.2-28.7 19.1-45.9 19.1s-33.7-6.9-45.9-19.1c-12.2-12.1-19-28.6-19-45.9q0-2.5.1-5 .2-2.5.6-5 .5-2.4 1.1-4.9.6-2.4 1.5-4.8c-2.5 0-4.1-.8-6.6-.8-4.1-.8-9-1.6-14-2.5-.8 7.9-3 15.5-6.6 22.5-3.6 7.1-8.5 13.4-14.3 18.6-5.9 5.3-12.7 9.4-20.1 12.2-7.3 2.9-15.1 4.3-23 4.3-8.5-.1-17-1.8-24.8-5-7.9-3.3-15-8.1-21.1-14.1-6-6-10.8-13.2-14-21-3.3-7.9-5-16.3-5-24.9q-.1-1.1 0-2.2 0-1.2.1-2.3.1-1.1.3-2.3.1-1.1.4-2.2-4.3 3.8-9.2 6.8-4.9 3-10.3 5-5.3 2-11 2.9-5.7 1-11.4.9c-26.2 0-49.9-15.8-59.9-40-10.1-24.3-4.5-52.2 14-70.8 18.6-18.5 46.5-24.1 70.7-14.1 24.3 10.1 40.1 33.8 40.1 60q.1 1.2 0 2.3 0 1.1-.1 2.3-.1 1.1-.3 2.2-.2 1.1-.4 2.3 4.3-3.9 9.2-6.8 4.9-3 10.3-5 5.3-2 11-3 5.6-1 11.4-.9c7.1 0 14.1 1.2 20.9 3.5 6.7 2.3 13 5.7 18.6 10.1 5.6 4.3 10.5 9.6 14.4 15.5 3.9 6 6.8 12.5 8.5 19.4 12.4 0 26.3-.8 41.1-.8q4.3-4 9.3-7.1 5-3.1 10.5-5.2t11.2-3.2q5.8-1 11.7-.9 5.3 0 10.5.8 5.3.8 10.3 2.5 5 1.7 9.7 4.2 4.7 2.4 8.9 5.6c4.1 0 9.1-.8 12.4-.8a65.03 65.03 0 0 1-32.9-56c-.1-23.2 12.1-44.8 32.1-56.5 20.1-11.7 44.8-11.8 65-.3 20.1 11.5 32.6 32.9 32.7 56.1 0 4.5-.5 9-1.4 13.4-.9 4.4-2.3 8.6-4.2 12.7-1.8 4.1-4.1 8-6.7 11.6-2.7 3.7-5.7 7-9.1 10q2.1-.3 4.1-.4 2.1-.2 4.1-.3 2.1-.1 4.1-.1 2.1-.1 4.1-.1 5.3-.9 10.3-2.7 5-1.7 9.7-4.2 4.8-2.6 9-5.8 4.3-3.2 8-7c4.1-7.4-2.5-34.5-8.2-50.1l-.8-2.5q-2.5-6.2-4.7-12.5t-4.1-12.7q-2-6.3-3.7-12.8-1.7-6.4-3.2-12.9c-2.4-15.7-79.6-33.7-103.4-36.2q-9.8-.6-19.5-1.8-9.6-1.2-19.2-3.1-9.6-1.8-19-4.3-9.5-2.5-18.7-5.6c-4.6 10.6-11.8 19.8-21.1 26.7-9.2 6.8-20.1 11.1-31.6 12.4-11.4 1.2-23-.6-33.5-5.3-10.6-4.7-19.6-12.1-26.4-21.5-6.5 29.9-33.1 51.2-63.7 51-30.6-.2-56.9-21.8-63.1-51.8-6.2-29.9 9.4-60.2 37.5-72.5 28-12.3 60.8-3.3 78.7 21.6 3.4-15.5 12.3-29.2 25.1-38.6 12.8-9.3 28.6-13.6 44.4-12.1 15.8 1.5 30.4 8.8 41.2 20.4 10.8 11.6 17 26.7 17.4 42.6 77.2 14.8 156.1 27.9 165.9 24.6q.2-7.4.2-14.8-.1-7.4-.4-14.8-.3-7.4-.9-14.8-.5-7.4-1.3-14.7-2.7.7-5.3 1.3-2.7.6-5.3 1-2.7.4-5.4.6-2.7.3-5.4.4c-17.2 0-33.7-6.9-45.9-19-12.2-12.2-19-28.7-19-45.9 0-17.3 6.8-33.8 19-45.9 12.2-12.2 28.7-19.1 45.9-19.1 2.5 0 5.7.9 8.2.9q-.4-2.1-.9-4.2t-1.1-4.2q-.6-2-1.3-4.1l-1.6-4q-3.2-6.6-6.9-12.9-3.7-6.3-8-12.3-4.2-6-8.9-11.6t-9.9-10.8c-2.6 5.5-5.9 10.6-10 15.2-4 4.5-8.6 8.5-13.8 11.8-5.1 3.2-10.7 5.7-16.5 7.4-5.9 1.7-11.9 2.6-18 2.5-26.3 0-49.9-15.8-60-40-10-24.3-4.5-52.2 14.1-70.8 18.6-18.5 46.5-24.1 70.7-14 24.3 10 40.1 33.7 40.1 59.9v2.7q0 1.4-.1 2.7-.1 1.3-.3 2.7l-.4 2.6q5.9 4.4 11.6 9 5.8 4.6 11.5 9.3 5.6 4.7 11.1 9.6 5.5 4.9 10.9 9.9c1.8-6.9 4.7-13.4 8.6-19.4 3.9-5.9 8.7-11.2 14.3-15.6 5.7-4.3 12-7.7 18.7-10 6.7-2.3 13.8-3.5 20.9-3.5 17.2 0 33.7 6.9 45.9 19 12.1 12.2 19 28.7 19 45.9 0 17.3-6.9 33.8-19 45.9-12.2 12.2-28.7 19.1-45.9 19.1q-3.4-.1-6.8-.5-3.3-.5-6.6-1.2t-6.6-1.7q-3.2-1.1-6.3-2.4 2 3.7 3.5 7.6 1.5 3.9 2.5 7.9 1 4.1 1.6 8.2.6 4.2.6 8.3 0 4.7-.7 9.4-.7 4.6-2 9.1-1.4 4.5-3.4 8.7-2 4.3-4.6 8.2c12.4 70.6 18.9 79.7 21.4 80.5 9.9-3.3 27.9-37 33.7-53.4.8-2.5 1.6-5.8 3.3-9.9 5.7-18 15.6-51.7 38.6-78 18.9-22.2 45.1-35.4 64-45.2q2.6-1.2 5.2-2.6 2.5-1.3 5-2.7l4.8-3q2.4-1.6 4.7-3.2c5.8-4.9-3.2-47.7-12.3-83.8h-4.1c-33 .6-61.1-24.2-64.5-57.1-3.5-32.9 18.8-63 51.3-69.2 32.5-6.3 64.4 13.4 73.4 45.2 9 31.8-7.9 65.3-38.8 77 5.7 16.4 12.3 33.7 17.2 47.6q.5 1.3 1.3 2.4.7 1.1 1.7 2.1.9.9 2 1.7 1.2.7 2.4 1.2 1.3.5 2.7.7 1.4.2 2.8.1 1.3-.1 2.7-.5 1.3-.4 2.5-1.1 2-1.1 4-2.3 2-1.2 3.9-2.4 2-1.2 3.9-2.5t3.8-2.7c4.9-3.2 9-5.7 13.2-8.2 18-9.8 21.3-24.6 27.1-46 0-.8.8-2.5.8-3.3-5.1-2.7-9.9-6.1-14.1-10.1-4.2-3.9-7.8-8.5-10.8-13.5-2.9-4.9-5.2-10.3-6.7-15.9s-2.2-11.4-2.1-17.2c0-26.2 15.8-49.9 40.1-59.9 24.2-10.1 52.1-4.5 70.7 14 18.5 18.6 24.1 46.5 14 70.8-10 24.2-33.7 40-59.9 40q-1.4.1-2.7.1-1.3-.1-2.7-.2l-2.6-.2q-1.4-.2-2.7-.5 0 1.7-.2 3.3-.1 1.7-.3 3.3-.2 1.7-.5 3.3-.3 1.7-.6 3.3-.5 1.6-.5 3.2-.1 1.6.2 3.2.4 1.6 1 3.1.7 1.5 1.7 2.8c2.5 2.5 6.6 2.5 11.5 0l1.8-.6 1.6-.8q.9-.4 1.7-.9.7-.5 1.5-1 6.2-3.3 12.2-7 6.1-3.6 11.9-7.5 5.9-3.9 11.6-8.1 5.6-4.2 11.1-8.6c28.8-24.7 49.3-34.5 67.4-38.6-14.2-27.9-4.8-62.1 21.7-78.7 26.5-16.7 61.3-10.4 80.3 14.5 19 25 15.8 60.2-7.3 81.4-23.1 21.1-58.5 21.1-81.6 0q-7.4 3.1-14.6 6.9-7.1 3.8-13.8 8.2-6.7 4.5-13 9.5-6.2 5.1-12 10.8-1.4 1.4-2.9 2.8-1.5 1.3-3.1 2.7-1.5 1.3-3.1 2.6t-3.2 2.5Q860 161.1 846 170q-13.9 8.9-28.2 17.2-14.3 8.4-28.9 16.1-14.6 7.7-29.6 14.8c7 1.6 13.7 4.4 19.8 8.2 6 3.9 11.4 8.7 15.9 14.4 4.4 5.6 7.9 12 10.2 18.8 2.3 6.8 3.5 13.9 3.4 21.1 0 17.2-6.8 33.7-19 45.9-12.2 12.1-28.7 19-45.9 19s-33.7-6.9-45.9-19c-12.1-12.2-19-28.7-19-45.9q0-2.6.1-5.2.2-2.7.6-5.2.4-2.6 1.1-5.2.6-2.5 1.5-5c-16.4 9.9-32.9 19.8-42.7 27.2-23 17.2-36.1 44.3-46.8 73.1q3.2-1.4 6.5-2.4 3.3-1.1 6.7-1.8 3.5-.7 6.9-1.1 3.5-.4 7-.5c24.2-.1 46.4 13.4 57.6 34.8 11.1 21.5 9.4 47.4-4.5 67.2-14 19.8-37.8 30.1-61.8 26.8-23.9-3.3-44-19.7-52.1-42.5-2.5 4.9-5.8 9.8-8.2 15.6-3.6 6.9-6.2 14.3-7.7 21.9-1.5 7.7-1.9 15.5-1.2 23.2.7 7.8 2.6 15.4 5.5 22.6 2.9 7.3 6.8 14.1 11.6 20.2q.6 1 1.3 1.9.7 1 1.4 1.9.7 1 1.5 1.8.7.9 1.6 1.8c3.2 4.1 8.2 9.8 12.3 15.6q4.5 5.7 9.4 11.1 4.9 5.4 10.2 10.4 5.2 5.1 10.8 9.7 5.6 4.7 11.5 9-1.5-3-2.6-6.2t-1.9-6.6q-.7-3.3-1-6.7-.4-3.3-.3-6.7c0-17.3 6.8-33.8 19-45.9 12.2-12.2 28.7-19.1 45.9-19.1s33.7 6.9 45.9 19.1c12.1 12.1 19 28.6 19 45.9.1 8.4-1.5 16.8-4.7 24.7-3.2 7.8-7.9 15-13.9 21-5.9 6.1-13 10.9-20.8 14.1-7.8 3.3-16.2 5-24.7 5.1 36.2 20.5 69.8 33.6 83.8 32.8 32.9-1.6 63.3-57.5 74.8-78.8l2.4-5c2.5-4.1 5-9 7.4-13.1l-2.4.4q-1.2.2-2.5.3-1.2.1-2.5.1h-2.4c-17.2 0-33.7-6.8-45.9-19-12.2-12.2-19-28.7-19-45.9s6.8-33.7 19-45.9c12.2-12.2 28.7-19 45.9-19 5.7-.1 11.4.6 17 2.1 5.5 1.4 10.8 3.6 15.8 6.5s9.5 6.4 13.5 10.5c4.1 4.1 7.5 8.8 10.3 13.8 9-19.7 16.4-37 23.8-53.4l-2 .4q-1 .2-2.1.3-1 .1-2 .1h-2.1c-17.2 0-33.7-6.9-45.9-19-12.2-12.2-19-28.7-19-45.9s6.8-33.7 19-45.9c12.2-12.2 28.7-19 45.9-19 5.4-.1 10.7.6 16 1.9 5.2 1.3 10.2 3.2 14.9 5.8 4.8 2.6 9.1 5.8 13.1 9.4 3.9 3.7 7.3 7.9 10.2 12.4q4.5-10.1 8.8-20.4 4.3-10.3 8.3-20.6 4-10.4 7.7-20.9 3.8-10.5 7.2-21c-31.4-10-50.4-42-43.9-74.4 6.5-32.4 36.3-54.7 69.1-51.8 32.9 2.9 58.3 30.1 59 63.1.7 33-23.5 61.2-56.2 65.5-.9 17.3-1.7 32.9-2.5 41.9-1.7 23 0 23.9 4.9 25.5 5.5 1.7 11.1 2.8 16.7 3.4 5.7.7 11.4.8 17 .4 5.7-.5 11.3-1.4 16.9-2.9 5.5-1.4 10.8-3.4 16-5.8q-2.6-3.9-4.6-8.2-2-4.2-3.4-8.7-1.3-4.5-2-9.1-.7-4.7-.7-9.4c0-26.2 15.8-49.9 40-59.9 24.3-10.1 52.2-4.5 70.7 14 18.6 18.6 24.2 46.5 14.1 70.8-10 24.2-33.7 40.1-59.9 40.1q-4.9-.1-9.6-.8-4.8-.8-9.4-2.2-4.6-1.5-8.9-3.6-4.3-2.2-8.3-5c-22.1 14.8-49.2 15.7-73.9 14.8-34.5-.8-44.3 24.7-50.9 42.8q-.3.7-.5 1.4-.3.8-.6 1.5t-.7 1.4-.7 1.4c-4.9 12.3-50.1 127.4-85.4 193.9q-4.5 8.5-8.7 17.1-4.3 8.6-8.3 17.4-4 8.7-7.7 17.6-3.8 8.8-7.3 17.8c-3.3 9.8-1.7 17.2 1.6 19.7 3.3 3.3 9.1.8 11.5-.8 35.3-19.7 76.4-47.7 108.4-69.9-6.3-2.1-12.2-5.2-17.6-9.2-5.3-3.9-10.1-8.7-13.9-14.2-3.9-5.4-6.9-11.4-9-17.7-2-6.4-3-13-3-19.7 0-17.2 6.8-33.7 19-45.9 12.2-12.1 28.7-19 45.9-19s33.7 6.9 45.9 19c12.2 12.2 19 28.7 19 45.9 0 2.5-.8 4.9-.8 7.4q3.7-1.9 7.6-3.4 4-1.6 8-2.8 4-1.3 8.1-2.2 4.1-.9 8.3-1.4c-3.5-3-6.7-6.3-9.5-10-2.8-3.6-5.2-7.6-7.1-11.8-1.9-4.1-3.3-8.5-4.3-13-.9-4.5-1.4-9.1-1.3-13.7 0-24.2 13.4-46.4 34.8-57.6 21.4-11.2 47.3-9.5 67.1 4.3 19.8 13.9 30.3 37.6 27.2 61.5-3.1 24-19.3 44.3-42 52.6q1.4.5 2.8.8 1.4.4 2.9.6 1.4.2 2.9.3 1.5 0 2.9-.1c12.3-.8 27.1-16.4 40.3-29.6q2.1-2.3 4.2-4.5 2.2-2.3 4.5-4.4 2.2-2.2 4.6-4.2 2.3-2.1 4.7-4.1 5-3.5 10.1-6.7 5.1-3.3 10.3-6.2 5.3-3 10.6-5.7 5.4-2.8 10.9-5.2-1.8-3.5-3.2-7.2-1.4-3.7-2.4-7.6-.9-3.8-1.3-7.8-.5-3.9-.5-7.8c0-4.8.4-9.6 1.5-14.3 1-4.7 2.5-9.3 4.6-13.6 2.1-4.3 4.6-8.4 7.6-12.2 3-3.7 6.4-7.1 10.2-10.1-8-.7-15.7-2.8-22.9-6.4-7.1-3.5-13.5-8.3-18.9-14.2-5.3-5.9-9.5-12.7-12.4-20.2-2.8-7.4-4.2-15.3-4.2-23.3 0-17.2 6.9-33.7 19-45.9 12.2-12.2 28.7-19 45.9-19s33.7 6.8 45.9 19c12.2 12.2 19 28.7 19 45.9.1 4.8-.4 9.6-1.4 14.3-1 4.7-2.6 9.2-4.6 13.6-2.1 4.3-4.6 8.4-7.6 12.1-3 3.8-6.4 7.2-10.2 10.2 5.9.5 11.7 1.9 17.2 4s10.8 5 15.5 8.5c4.8 3.6 9 7.7 12.7 12.4 3.6 4.7 6.6 9.8 8.8 15.3q4.5-3.9 9.6-6.9 5.2-3 10.7-5.1 5.6-2.1 11.4-3.2 5.9-1.1 11.8-1.2c24 0 46 13.2 57.3 34.3 11.3 21.1 10 46.8-3.3 66.7-13.4 19.9-36.6 30.8-60.4 28.4-23.8-2.4-44.4-17.7-53.5-39.8q-4.5 3.8-9.7 6.9-5.1 3-10.6 5.1-5.6 2.1-11.5 3.2-5.8 1.1-11.8 1.2c-4.2 0-8.5-.4-12.7-1.3-4.3-.8-8.4-2.1-12.3-3.8-4-1.7-7.7-3.8-11.2-6.2-3.6-2.5-6.8-5.3-9.8-8.4q-7.1 5.6-13.9 11.6-6.8 6.1-13.3 12.4-6.5 6.4-12.6 13.1-6.1 6.8-11.9 13.8c-1.4 1.5-2.5 3.3-3.2 5.2-.8 1.9-1.1 4-1 6.1.1 2 .5 4.1 1.4 5.9.9 1.9 2.1 3.6 3.6 5q5.5 4.9 11.2 9.6 5.6 4.6 11.5 9 5.8 4.5 11.9 8.6 6 4.2 12.2 8.1 8.1 4.5 16.6 8.2 8.4 3.6 17.2 6.4 8.8 2.8 17.8 4.7 9.1 1.9 18.3 2.9c3-10.5 8.6-20.1 16.3-27.8 7.7-7.8 17.3-13.5 27.8-16.5s21.6-3.3 32.3-.9c10.7 2.4 20.5 7.5 28.7 14.8.2-8.3 2-16.5 5.3-24.1 3.3-7.6 8-14.5 13.9-20.3 6-5.7 13-10.3 20.7-13.4 7.7-3.1 15.9-4.7 24.2-4.7 36.1 0 57.5 28.8 57.4 64.9z" style="fill:#1ecd7d"/></svg>