<svg xmlns="http://www.w3.org/2000/svg" aria-hidden="true" height="37.4" width="37.4"><g fill-rule="nonzero" fill="none"><path d="M35.932 19.536c.705.526 1.44.897 1.44 1.733 0 .247-.306.495-.98.495-.521 0-1.072-.155-1.348-.526-.215-.279.092-.681-.092-.96-.153-.247-.46-.123-.674-.247-.245-.155-.276-.248-.46-.62-.183-.432-.827-1.144-1.593-1.918-.643-.65-1.317-.99-1.623-.96-.215.032-.276.032-.49.032-.552 0-1.011.526-1.808.866-.551.248-.858.372-1.195.433l-.122.155.704-.03c.674 0 1.532-.094 2.206-.094.674 0 1.011.62 1.287 1.27.52 1.299 1.287 3.187 2.236 4.765.46.743.827 1.207.827 2.136 0 .278-.03.68-.398.68-.52 0-1.838-.557-1.838-1.145 0-.464.368-.65.368-1.114 0-.278-.43-.247-.521-.495-.337-1.393-.735-2.785-1.501-3.62-.399-.434-.46-.62-.858-.62-.215 0-.429.062-.613.124-1.072.402-2.512 1.64-4.32 2.166-.673.217-.796-.185-1.5-.062h.06c-.581.124-1.01.465-1.807.681-1.072.31-2.94.465-4.442.248-1.072-.155-2.45-.371-3.033-.34-.46 1.3-1.409 3.032-2.849 3.713-.766.34-.98.805-.766 1.671.276 1.084 1.226 1.857 1.716 2.786.46.773 1.195 2.042 1.96 2.445.766.402 1.257.99 1.257 1.516 0 .248-.092.371-.337.371h-1.563c-.245 0-.367-.154-.398-.247-.214-.403-.061-.774-.368-1.145-.214-.248-.367-.186-.643-.403-.46-.464-.123-.711-.46-1.3-.98-1.578-1.409-1.95-2.236-3.094-.46-.588-1.041-.898-1.041-1.671 0-.96.95-1.114.919-2.074-.613.464-1.318.805-2.42.96-.154.03-.521.309-.675.495-.367.371-.52.773-.582 1.33-.122 1.3-.367 2.6-.214 3.9.214.835.368 1.114 1.042 1.578.428.279.919.681.98 1.3 0 .155-.061.371-.276.371H5.205c-.153 0-.306-.123-.367-.216-.184-.34-.062-.557-.154-.96-.153-.773-1.041-.742-1.041-1.547 0-.248.153-.557.153-1.052.061-1.083.368-2.878.061-5.014-.153-1.238 1.134-1.3 1.808-2.383.398-.619.275-.371.52-.804.246-.465.184-.805.154-1.084 0-.371-.368-1.114-.123-2.661.092-.68.43-1.393.889-1.98 0-.032 0-.125-.154-.125-.674.062-.674-.123-1.102-.123-.43 0-.766.371-.828.557-.214-.093-.306-.34-.306-.464 0-.248.061-.465.276-.681.092-.093 0-.155-.123-.155-.52 0-1.01.65-1.133 1.083-.307-.062-.337-.464-.46-.464-.153 0-.245.217-.245.433 0 1.517 2.45 1.857 2.45 3.869 0 2.32-2.756 1.826-2.756 2.661 0 .155.122.31.337.402-.092.217-.337.31-.582.31-.613 0-1.073-.464-1.073-1.083 0-1.27 1.685-1.3 1.685-2.26 0-.464-.275-.587-.551-.804C.947 19.38.028 18.236.028 16.348c0-2.043 1.41-3.59 3.217-3.59 2.634 0 2.726 3.095 5.116 3.342.888-.619 1.96-.99 3.002-.99 1.562 0 2.236.402 3.89.402.675 0 1.777-.185 3.095-1.114.49-.34.704-.402 1.164-.804 1.041-.898 2.022-2.662 2.022-3.93v.061c0-.402-.092-.65-.276-.65-.551 0-1.072.526-1.624 1.083-.367.372.184.557-.612.99-.276.155-.613-.123-.92-.123-.643 0-.918-.774-.918-1.424 0-.34.245-.433.398-.742.337-.65.306-.898.613-1.517.183-.433.52-.712.49-1.021 0-.124-.092-.186-.092-.31 0-.65.858-1.083.858-1.733 0-.371-.399-.526-.49-.804-.092-.279-.031-.372-.031-.372.03-.062.061-.062.122-.062.337 0 .46.372.766.557.03-.433-.122-.526-.122-.835 0-.155-.03-.433.153-.433.214 0 .184.278.368.433.245.186.459.155.704.34.337.217.52.588.643.588.337.062.43-.371.246-.588.367-.03.765.279 1.256.279.765 0 1.041.216 1.194.34.49.434.582.774 1.134.774.276 0 .429-.248.49-.34.368.278.398.99 0 1.609.153.495.858.557 1.195.804.337.248.276.372.52.496a.408.408 0 00.49 0c.154.68-.397 1.268-1.102 1.361.03.867.919 1.393 1.317 1.61-.245.526-.674.68-1.041.773.122.526.674 1.3.398 1.981-.245-.124-.643 0-.643.371 0 .434.551.65-.031.96-.245.154-.306.526.153.897.613-.155 1.195-.155 1.9-.155.428 0 .98-.123 1.378-.123.705 0 1.134.278 1.654.866 1.318 1.393 2.512 2.91 3.86 3.93" fill="#231f20"/><path d="M.855 15.729c.276 0 .796-1.578 1.869-1.578.306 0 .367.123.367.247 0 .217-.367.403-.367.681 0 .062.03.124.122.124.245 0 .46-.588 1.501-.588.276 0 .521.03.766.093.123.03.368.154.245-.186-.245-.743-1.072-1.424-2.205-1.424-1.134 0-2.329 1.022-2.451 2.26.03.216.03.371.153.371M20.461 5.888c-.306-.124-.367-.279-.245-.681.062-.403.092-.588-.091-.62-.154-.061-.368.063-.583.28-.183.247-.49.587-.582.835-.092.34.307.278.031.836-.49.897-.613 1.114-.858 1.733-.214.68-.367.773-.49.99-.153.186.184.217.551.093.399-.155.43.34.276.68-.122.248-.03.341.307.063.306-.248-.154-.434-.062-1.207.123-.681.245-1.084.674-1.764.368-.588.674-1.022 1.287-.805.245.124.122-.279-.215-.433M33.604 26.158c.123 0 .153-.154.153-.31 0-.34-.184-.835-.46-1.051-.06.495-.306.835-.306 1.052 0 .155.46.31.613.31M36.545 21.362c.184 0 .46-.062.46-.217 0-.279-.43-.774-.797-.898.245.496 0 1.115.337 1.115M23.556 14.832c2.665 1.237 2.512 3.497 2.726 2.94a2.38 2.38 0 00-.49-2.445c-.735-.867-1.01-.65-.735-1.362 1.164-2.847 1.9-7.149-1.593-8.634-.399-.155-.736-.155-.736-.093s.368.185.828.495c2.328 1.547 1.593 5.787-.521 7.83-.674.711-.337.866.52 1.269M14.426 34.638c.184 0 .092-.278.031-.402-.153-.279-.46-.464-.735-.588.061.278.092.99.367.99h.337M6.37 34.638c.183 0 .06-.278-.031-.402-.153-.279-.49-.464-.766-.588.061.278.122.99.398.99h.398M16.142 18.452c1.47-.154 1.715-.495 1.96-1.609.123-.526.49-1.083.828-1.423.214-.248.429-.434.643-.774.061-.155.123-.248 0-.217-.153.124-.674.464-.888.62-1.042.742-2.635 1.082-3.248 1.082-1.348 0-2.512-.402-3.737-.402-3.676 0-5.055 2.91-4.871 4.611.03.279.061.279.153.279.245 0 .49-.99 1.41-1.888 1.347-1.3 2.818-2.043 4.9-2.043 1.502 0 2.145.496 2.145.681 0 .372-.643.403-.582.774-.03.155.307.433 1.287.31" fill="#6d6e70"/></g></svg>