<svg xmlns="http://www.w3.org/2000/svg" version="1.1" id="Layer_1" x="0" y="0" xml:space="preserve" width="942" height="942"><style type="text/css" id="style3620">.st0{fill:#0066a4}</style><g id="g4257" transform="translate(-384.787 .4)"><path class="st0" d="M1053.7 841.2c-6.99 5.1-15.07 8.19-23.3 10.87-20.69 6.75-42 10.02-63.66 11.67-20.31 1.55-40.63 1.47-60.82-.51-20.93-2.06-41.75-5.33-62.58-8.35-27.33-3.97-54.58-8.47-81.93-12.26-25.49-3.53-51.15-5.23-76.91-4.47-27.42.81-54.38 4.5-79.47 16.32-9.56 4.5-18.4 10.54-27.53 15.94-1.8 1.06-3.44 2.4-5.71 4.01-1.47-2.8-2.89-5.24-4.05-7.79-13.06-28.8-22.09-58.91-29.07-89.68-6.94-30.58-11.37-61.55-13.67-92.79-2.45-33.19-2.56-66.43-.65-99.68 6.27-109.01 33.84-212.9 75.33-313.44 34.4-83.35 77.78-161.89 127.37-237.08 6.6-10 13.39-19.88 20.1-29.81 1.05-1.56 2.15-3.08 4.01-4.16-.71 1.26-1.39 2.53-2.12 3.77-60.37 102.17-104.4 211.02-133.33 326.04-9.62 38.24-17.24 76.88-22.83 115.9-4.8 33.48-8.08 67.12-9.8 100.92-1.61 31.5-2.04 63.01-.66 94.49 1.07 24.31 2.85 48.63 5.5 72.81 2.72 24.75 6.88 49.33 10.45 73.98.24 1.65.81 3.26 1.31 5.22 5.36-.83 10.27-1.65 15.19-2.35 22.27-3.18 44.63-3.77 67.09-2.56 49.24 2.65 96.59 13.76 142.81 30.58 30.14 10.96 60.68 20.67 92.09 27.43 25.26 5.44 50.76 8.08 76.59 6.19 18.35-1.34 36.32-5.07 54.12-9.66 2.04-.5 4.08-1.03 6.13-1.55z" id="path3630" fill="#0066a4"/><path class="st0" d="M1181.39 941.21c-.75-14.47-1.35-28.95-2.28-43.4-1.31-20.44-2.71-40.88-4.36-61.29-1.46-18.1-3.05-36.2-5.07-54.24-2.52-22.46-5.11-44.92-8.44-67.27-4.07-27.31-8.45-54.59-13.57-81.71-12.77-67.67-29.6-134.25-55.44-198.29-12.97-32.15-28.22-63.14-47.74-91.89-15.95-23.5-34.32-44.8-57.13-61.98-2.62-1.98-5.34-3.83-8.04-5.7-.61-.42-1.35-.67-2.69-1.31-21.77 22.7-41.44 47.22-60.16 72.53-18.59 25.15-35.74 51.28-52.48 79.11-32.56-61.68-64.59-122.34-96.61-182.99.27-.17.53-.34.8-.51 11.1 13.58 22.2 27.17 33.32 40.74 11.02 13.46 22.03 26.94 33.11 40.36 11.14 13.5 22.11 27.15 34.14 40.86 37.36-53.85 79.38-102.68 121.92-151.74 2.73 2.04 4.93 3.56 6.99 5.24 19.9 16.22 36.94 35.16 52.48 55.5 31.09 40.68 54.78 85.5 73.76 132.89 20.1 50.19 34.69 102 44.2 155.19 4.86 27.17 9.18 54.49 12.3 81.9 3.08 27.05 4.64 54.28 6.32 81.47 2.42 39.2 2.13 78.46.89 117.69-.8 25.49-2.69 50.95-4.15 76.42-.43 7.48-1.07 14.94-1.61 22.41-.18.01-.32.01-.46.01z" id="path3632" fill="#0066a4"/></g></svg>