<svg xmlns="http://www.w3.org/2000/svg" viewBox="0 0 512 512"><rect width="512" height="512" fill="#b996f7" ry="88.48"/><path fill="#ffffff66" d="m138.4 254.1 20.6-20.6c5.5-5.5 14.9-1.9 15.2 5.9.4 10 2.1 19.8 5.4 29.3 1.1 3.2.3 6.8-2.1 9.2l-7.3 7.3c-15.6 15.6-16.1 41-.6 56.7a40.1 40.1 0 0 0 56.7.5l37.5-37.6a40.08 40.08 0 0 0-5.8-61.4 8.74 8.74 0 0 1-3.9-7c-.2-6.2 2.1-12.2 6.5-16.6l11.7-11.7c3.1-3.1 7.9-3.5 11.4-1 38.3 26.7 47.6 79.5 20.9 117.7-2.8 4-5.9 7.7-7.7 9.5l-39.1 39.1c-33 33-86.6 33-119.6 0s-32.8-86.3.2-119.3z"/><path fill="#fff" d="M341.7 226.8c15.6-15.6 16.1-41 .6-56.7a40.1 40.1 0 0 0-56.7-.5l-.2.2-37.3 37.3a40.08 40.08 0 0 0 5.8 61.4c2.4 1.6 3.8 4.2 3.9 7 .2 6.2-2.1 12.2-6.5 16.6l-11.8 11.7a8.83 8.83 0 0 1-11.4 1c-38.3-26.7-47.7-79.5-20.9-117.7 2.8-4 5.9-7.7 9.4-11.1l.2-.2 37.3-37.3c33-33 86.6-33 119.6 0s33 86.6 0 119.6L353 278.6c-5.5 5.5-14.9 1.9-15.2-5.9-.4-10-2.1-19.8-5.4-29.3-1.1-3.2-.3-6.8 2.1-9.2l7.2-7.4z"/></svg>