<svg xmlns="http://www.w3.org/2000/svg" class="MuiSvgIcon-root" aria-hidden="true" width="528.169" height="528.169"><path fill="#1565c0" d="M140.574 495.33c-5.5 0-12.25-3.896-15-8.66L2.063 272.744c-2.75-4.763-2.75-12.557 0-17.32l123.51-213.928c2.75-4.763 9.5-8.66 15-8.66h247.022c5.5 0 12.25 3.897 15 8.66l123.512 213.928c2.75 4.763 2.75 12.558 0 17.32L402.596 486.67c-2.75 4.763-9.5 8.66-15 8.66z"/><path fill="#0d47a1" d="M387.96 495.335h-67.624l-144.25-144.251-3.177-8.881 101.343 39.38 74.5-39.166 26-77.667-3.5-35.167L351.17 179.5l145.036 145.035-.896 1.55-62.737 108.664-29.78 51.58s-.694 1.373-2.145 2.94c-2.094 2.265-7.42 6.065-12.688 6.065z"/><path fill="#e3f2fd" d="M264.085 388.583c-67.822 0-123-55.178-123-123s55.178-123 123-123 123 55.178 123 123-55.178 123-123 123zm0-224c-55.691 0-101 45.309-101 101 0 55.69 45.309 101 101 101 55.69 0 101-45.31 101-101 0-55.691-45.31-101-101-101z"/><path fill="#e3f2fd" d="M172.918 326.086h49v-52l42.167 42.996 41.973-43.877v52.75l47.91.13 14.392-14.391v-5.274l-40.637.132v-86.1l-63.638 66.63-63.875-66.5v86.002l-32.792.002z"/></svg>