<svg xmlns="http://www.w3.org/2000/svg" viewBox="0 0 319.977 319.977" width="426.636" height="426.636"><path d="M161.654.015a160.076 160.076 0 00-16.188.63c-27.25 2.46-53.741 12-76.231 27.59-26.87 18.42-47.799 45.23-59.149 75.77-10.6 28.08-12.83 59.27-6.76 88.64 6.07 29.4 20.68 56.89 41.54 78.45 19.05 19.75 43.27 34.53 69.59 42.29 23.35 6.94 48.25 8.41 72.26 4.35 32.09-5.31 62.23-20.82 85.4-43.62 21.26-20.83 36.51-47.67 43.44-76.62 6.41-26.68 5.85-55.03-1.68-81.42-8.24-29-24.9-55.5-47.43-75.52-21.86-19.5-49.06-32.87-77.92-38a163.69 163.69 0 00-26.873-2.54zm-3.41 54.981c20.002-.35 40.005 5.164 56.992 15.749 18.82 11.67 33.8 29.36 42.09 49.91 11.97 29.16 9.79 63.42-5.86 90.8-10.82 19.26-27.86 34.89-47.95 44.06-28.47 13.15-62.461 12.55-90.441-1.62-20.64-10.32-37.64-27.55-47.67-48.34-13.74-28.16-13.88-62.21-.31-90.46 8.81-18.63 23.23-34.49 40.89-45.11 14.56-8.78 31.27-13.93 48.26-14.84 1.333-.075 2.666-.126 4-.149z" fill="#3997bd"/></svg>