<svg xmlns="http://www.w3.org/2000/svg" width="40" height="40" fill="none"><path d="M6.54.092c1.696 0 2.545.453 2.545 1.358v22.868h9.46c.849 0 1.273.708 1.273 2.122v1.315c0 1.414-.424 2.122-1.273 2.122H4.25c-1.132 0-1.697-.566-1.697-1.698V1.45C2.552.545 3.4.092 5.097.092z" fill="#ad87ff"/><path d="M36.367 22.608c.315 1.268-5.496 2.21-5.652 1.124-.21-1.244-.974-2.18-1.716-2.81-.741-.63-1.704-.944-2.889-.944-1.573 0-2.828.543-3.765 1.63-.937 1.086-1.405 2.904-1.405 5.452 0 2.832.475 4.833 1.427 6.002.952 1.17 2.23 1.754 3.833 1.754 1.2 0 2.181-.341 2.946-1.023.764-.682 1.304-1.855 1.618-3.518 0-1.085 6.202-.778 5.774 1.056-.645 2.848-1.45 4.999-3.278 6.453-1.829 1.453-4.28 2.18-7.352 2.18-3.492 0-6.276-1.101-8.352-3.305-2.076-2.203-3.114-5.253-3.114-9.15 0-3.942 1.042-7.01 3.125-9.206 2.084-2.196 4.901-3.294 8.454-3.294 2.907 0 5.22.626 6.935 1.877 1.716 1.252 2.661 3.16 3.41 5.722z" fill="#85f"/></svg>