<svg xmlns="http://www.w3.org/2000/svg" width="424.027" height="424.027"><path d="M198.613 52.5c27.87-3.24 56.91 3.77 79.92 19.86 31.19 21.22 51.24 58.16 50.61 96 .9 37.12-18.07 73.71-48.09 95.28a116.11 116.11 0 01-48.19 20.5c-9.71 2.07-19.59 1.71-29.3 1.53-35.42-2.34-69-22.12-88.64-51.6a116.54 116.54 0 01-4.82-122.6c18-32.18 51.84-54.84 88.51-58.97z" fill="#196bbf"/><path d="M212.013 0a175.4 175.4 0 0135.24 3.69l-9.15 34.06a136.64 136.64 0 00-52.14 0l-9.19-34.06A175.33 175.33 0 01212.013 0zm52.14 8.27a168.12 168.12 0 0160.95 35.24l-24.9 24.9a133.5 133.5 0 00-45.21-26.16zm73.35 47.64a167.56 167.56 0 0135.24 61l-34 9.08a135.07 135.07 0 00-26.14-45.18zm39.73 77.85a170.12 170.12 0 010 70.48l-34-9.17a136.58 136.58 0 000-52.23zm-4.49 87.38a168.26 168.26 0 01-35.24 60.94l-24.9-24.9a133.61 133.61 0 0026.07-45.18zm-47.64 73.35a170.88 170.88 0 01-60.94 35.24l-9.17-34.07a132.35 132.35 0 0045.21-26.16zm-77.84 39.73a170.12 170.12 0 01-70.48 0l9.17-34.07a131.51 131.51 0 0052.14 0zm-87.38-4.49a169.6 169.6 0 01-60.95-35.24l24.9-25a132.49 132.49 0 0045.22 26.16zm-73.36-47.65a168.12 168.12 0 01-35.24-60.94l34-9.17a135 135 0 0026.16 45.21zm-39.73-77.84a170.12 170.12 0 010-70.48l34 9.08a137.11 137.11 0 000 52.23zm4.49-87.38a168.53 168.53 0 0135.24-61l24.9 25a133 133 0 00-26.07 45.13zm47.64-73.35a168.16 168.16 0 0161-35.24l9.17 34a133.64 133.64 0 00-45.27 26.14z" fill="#f47116"/><path d="M122.833 327.75c18.16 9.71 37.76 17.08 58.17 20.49A182.24 182.24 0 00284.463 336c5.48-2.16 10.52-5.31 16-7.37-4.22 6.47-9.62 12-14.47 18.07-18.43 21.75-36.95 43.5-56.81 64-4.86 4.49-9.44 9.53-15.19 12.85-2.43 1.44-4.77-.72-6.66-2a172.53 172.53 0 01-15.64-14.55c-24.09-25.41-46.83-52.1-68.86-79.25z" fill="#196bbf"/><path d="M204.613 131.24c6.56.27 13.57-1 19.86 1.53 8.09 3.42 6.92 16.18.09 20.32-6 3.5-13.3 2.33-20 2.6.08-8.18.08-16.36-.01-24.45zm.09 47.934c7.91 0 16.27-.9 23.73 2.42 9.17 4.23 8.63 19.51-.36 23.56-7.37 3.32-15.64 1.88-23.37 2.15zm-1.09-91.794c-.09 7.1-.54 14.11-.36 21.12-13.75 0-27.51 0-41.26.09.09 7.55 0 15.1.09 22.65h16.02c.09 25.08 0 50.16.09 75.33h-16.16c-.09 7.55 0 15 0 22.57 13.75.18 27.5.09 41.17.09.9 7-.45 14.11.36 21.12h17.26c.09-7 0-14.11.18-21.12 12.22-.54 24.81-4.86 33.17-14.21 8-8.54 9.89-21.48 6.74-32.45-2.34-8.45-9.17-14.83-16.9-18.43 4.58-3.86 9-8.27 11.15-14 3.77-9.8 2.78-22-4.77-29.84-7.46-8.18-18.79-11.15-29.39-11.87-.18-7-.09-14-.09-21z" fill="#fff"/></svg>