<svg xmlns="http://www.w3.org/2000/svg" viewBox="0 0 319.98 319.97"><path d="M145.47.64c14.33-1.29 28.9-.62 43.06 1.91 28.86 5.13 56.06 18.5 77.92 38 22.53 20.02 39.19 46.52 47.43 75.52 7.53 26.39 8.09 54.74 1.68 81.42-6.93 28.95-22.18 55.79-43.44 76.62-23.17 22.8-53.31 38.31-85.4 43.62-24.01 4.06-48.91 2.59-72.26-4.35-26.32-7.76-50.54-22.54-69.59-42.29-20.86-21.56-35.47-49.05-41.54-78.45-6.07-29.37-3.84-60.56 6.76-88.64 11.35-30.54 32.28-57.35 59.15-75.77C91.73 12.64 118.22 3.1 145.47.64z" fill="#3997bd"/><path d="M154.25 55.14c21.32-1.21 42.87 4.31 60.99 15.6 18.82 11.67 33.8 29.36 42.09 49.91 11.97 29.16 9.79 63.42-5.86 90.8-10.82 19.26-27.86 34.89-47.95 44.06-28.47 13.15-62.46 12.55-90.44-1.62-20.64-10.32-37.64-27.55-47.67-48.34-13.74-28.16-13.88-62.21-.31-90.46 8.81-18.63 23.23-34.49 40.89-45.11 14.56-8.78 31.27-13.93 48.26-14.84z" fill="#fff"/></svg>