<svg xmlns="http://www.w3.org/2000/svg" viewBox="0 0 134.7 81"><path fill="#000050" d="m.852 35.43 45.52-33.778A9.306 9.306 0 0 1 51.329 0h47.24s2.754 0 .551 1.618L82.25 14.151s-2.206 1.618.55 1.618h47.342s2.753 0 .55 1.652v-.138L106.316 35.22a9.154 9.154 0 0 1-4.96 1.652H83.557a17.158 17.158 0 0 1-8.367-1.652 6.26 6.26 0 0 1-2.548-3.443 233.012 233.012 0 0 1-5.06-26.268 233.511 233.511 0 0 1-5.233 26.546 6.182 6.182 0 0 1-2.513 3.442 17.256 17.256 0 0 1-8.368 1.584H1.406s-2.753 0-.554-1.652zm133.041 10.19v-.068L88.237 79.36a9.185 9.185 0 0 1-4.955 1.655h-47.17s-2.756 0-.55-1.655l16.904-12.496s2.203-1.618-.55-1.618H4.606s-2.753 0-.516-1.656l24.343-18.04a9.327 9.327 0 0 1 4.959-1.617h17.833a17.154 17.154 0 0 1 8.364 1.584 6.147 6.147 0 0 1 2.517 3.442 232.583 232.583 0 0 1 5.233 26.546 232.205 232.205 0 0 1 5.371-26.512 6.262 6.262 0 0 1 2.547-3.442 17.186 17.186 0 0 1 8.33-1.585h49.755s2.753 0 .55 1.652z"/></svg>