<svg width="128" height="128" viewBox="0 0 128 128" fill="none" xmlns="http://www.w3.org/2000/svg">
<path d="M85.7669 72.1324C83.5986 72.1344 81.4792 71.4883 79.6811 70.2771C77.883 69.0659 76.4885 67.3451 75.6768 65.3357C75.0616 63.8366 74.7845 62.2205 74.8651 60.6022C74.9457 58.984 75.382 57.4034 76.143 55.9727C76.904 54.5421 77.9711 53.2965 79.2683 52.3246C80.5655 51.3527 82.061 50.6784 83.6486 50.3494C85.7702 49.9266 87.9699 50.1461 89.966 50.9798C91.9622 51.8135 93.664 53.2234 94.8537 55.0292C95.8707 56.5355 96.4995 58.2697 96.6843 60.0775C96.869 61.8852 96.6041 63.7106 95.9129 65.3914C95.0889 67.3992 93.6821 69.1144 91.8737 70.3158C90.0654 71.5173 87.9384 72.15 85.7669 72.1324ZM105.836 49.7366V42.1599H92.5681C90.3829 41.391 88.0836 40.9955 85.7669 40.99C83.0894 40.9379 80.4285 41.4219 77.941 42.4135C75.4536 43.405 73.1898 44.8841 71.2832 46.7635C69.3766 48.6429 67.8657 50.8847 66.8394 53.3567C65.8132 55.8288 65.2924 58.4811 65.3078 61.1573C65.2924 63.8336 65.8132 66.4859 66.8394 68.9579C67.8657 71.43 69.3766 73.6717 71.2832 75.5512C73.1898 77.4306 75.4536 78.9097 77.941 79.9012C80.4285 80.8928 83.0894 81.3768 85.7669 81.3247C89.3695 81.3771 92.9198 80.4594 96.0451 78.6679C99.1704 76.8763 101.755 74.2769 103.529 71.1427C105.302 68.0084 106.199 64.4549 106.124 60.855C106.049 57.2551 105.006 53.7418 103.104 50.6837L105.836 49.7366ZM41.6154 72.1324C39.4281 72.1568 37.2843 71.5211 35.4642 70.3085C33.6441 69.0959 32.2325 67.3628 31.4137 65.3357C30.7986 63.8366 30.5215 62.2205 30.602 60.6022C30.6826 58.984 31.1189 57.4034 31.88 55.9727C32.641 54.5421 33.708 53.2965 35.0052 52.3246C36.3025 51.3527 37.798 50.6784 39.3855 50.3494C41.5156 49.9147 43.7271 50.1283 45.7345 50.9625C47.7419 51.7967 49.4528 53.2132 50.6464 55.0292C51.7378 56.683 52.3635 58.6 52.4575 60.5789C52.5516 62.5577 52.1107 64.5254 51.1811 66.2752C50.2514 68.025 48.8674 69.4922 47.1744 70.5229C45.4814 71.5535 43.5419 72.1095 41.5596 72.1324H41.6154ZM41.6154 40.9343C38.9284 40.8819 36.2582 41.3694 33.7633 42.3678C31.2684 43.3663 28.9995 44.8553 27.0914 46.7466C25.1832 48.638 23.6747 50.893 22.6551 53.3781C21.6356 55.8631 21.1259 58.5274 21.1563 61.2131C21.1409 63.8893 21.6616 66.5416 22.6879 69.0137C23.7141 71.4857 25.225 73.7275 27.1316 75.6069C29.0383 77.4863 31.302 78.9654 33.7895 79.9569C36.2769 80.9485 38.9378 81.4325 41.6154 81.3804C44.2929 81.4325 46.9538 80.9485 49.4413 79.9569C51.9288 78.9654 54.1925 77.4863 56.0991 75.6069C58.0058 73.7275 59.5167 71.4857 60.5429 69.0137C61.5691 66.5416 62.0899 63.8893 62.0745 61.2131C62.0899 58.5368 61.5691 55.8845 60.5429 53.4125C59.5167 50.9404 58.0058 48.6987 56.0991 46.8192C54.1925 44.9398 51.9288 43.4608 49.4413 42.4692C46.9538 41.4776 44.2929 40.9936 41.6154 41.0457V40.9343ZM8 80.2662H17.477V26.1152H8V80.2662ZM110.017 80.2662H119.438V42.1599H109.961L110.017 80.2662ZM85.7669 93.8039C83.6158 93.8264 81.5078 93.2005 79.7179 92.008C77.9279 90.8155 76.5391 89.1116 75.7325 87.1186C75.175 85.7258 74.8963 84.3331 74.8963 82.8846H65.3078C65.2999 85.5562 65.8262 88.2024 66.8557 90.668C67.8853 93.1335 69.3974 95.3687 71.3032 97.2422C73.2091 99.1156 75.4703 100.59 77.954 101.578C80.4378 102.566 83.0941 103.048 85.7669 102.996C88.4445 103.048 91.1054 102.564 93.5929 101.573C96.0803 100.581 98.3441 99.1021 100.251 97.2227C102.157 95.3433 103.668 93.1015 104.694 90.6295C105.721 88.1574 106.241 85.5052 106.226 82.8289H96.6376C96.6449 84.2602 96.3692 85.6788 95.8262 87.0033C95.2832 88.3278 94.4836 89.532 93.4734 90.5466C92.4633 91.5613 91.2624 92.3665 89.9399 92.916C88.6173 93.4654 87.1992 93.7482 85.7669 93.7482V93.8039ZM114.644 25.001C113.815 24.9902 112.992 25.1475 112.225 25.4635C111.459 25.7795 110.764 26.2476 110.184 26.8395C109.069 28.0094 108.4 29.625 108.456 31.2963C108.456 32.9616 109.11 34.5604 110.278 35.7482C111.446 36.9361 113.034 37.6181 114.7 37.6474C115.534 37.6549 116.361 37.4954 117.132 37.1782C117.904 36.861 118.603 36.3926 119.191 35.8006C119.778 35.2086 120.24 34.505 120.551 33.7314C120.862 32.9577 121.014 32.1298 120.999 31.2963C121.007 30.4628 120.847 29.6362 120.53 28.8653C120.212 28.0945 119.743 27.395 119.151 26.8081C118.559 26.2213 117.855 25.7591 117.08 25.4487C116.306 25.1383 115.478 24.9861 114.644 25.001Z" fill="#00B8FC"/>
</svg>
