<svg xmlns="http://www.w3.org/2000/svg" width="39.5" height="39.5"><g fill-rule="evenodd"><path fill="#fff" d="M11.66 6.88h17.2v22.06h-17.2z"/><path d="M15.6 25.36l1.45-8.28a4.39 4.39 0 012.71-7.86V.03H8.56a4.34 4.34 0 00-4.34 4.34v21.28a2.62 2.62 0 00.26 1.16c.94 1.9 4.65 8 15.27 12.69V25.7a24.301 24.301 0 01-4.15-.34z" fill="#e21d3e"/><path d="M30.93 0H19.75v9.19a4.39 4.39 0 012.75 7.83l1.45 8.32a24.29 24.29 0 01-4.2.36v13.78c10.61-4.67 14.33-10.79 15.27-12.69a2.62 2.62 0 00.26-1.16V4.36A4.34 4.34 0 0030.93 0z" fill="#b51e23"/></g></svg>