<svg xmlns="http://www.w3.org/2000/svg" fill="#3385e8" viewBox="0 0 30.556 28.209"><path d="m20.45 10.968 2.356 7.04h.527v.009h7.018c-.143 1.23-.361 2.317-.657 3.257-.576 1.832-1.475 3.263-2.695 4.293-1.222 1.027-2.783 1.726-4.682 2.092-1.903.366-4.16.55-6.777.55-2.791 0-5.163-.175-7.115-.525-1.955-.349-3.56-1.026-4.814-2.04-1.256-1.01-2.172-2.432-2.749-4.263-.3-.961-.52-2.085-.664-3.364h7.026v-.01h.527l2.357-7.039 4.318 12.897h1.705l4.318-12.897zM15.592 0c2.65 0 4.919.15 6.8.443 1.885.298 3.429.945 4.632 1.938 1.205.992 2.093 2.415 2.67 4.263.575 1.853.862 4.344.862 7.488 0 .309-.005.608-.011.904h-5.668l-3.58-10.692H19.6l-4.323 12.909-4.322-12.91H9.26L5.68 15.036H.01a44.74 44.74 0 0 1-.01-.904c0-3.037.305-5.477.916-7.33.609-1.849 1.552-3.28 2.825-4.29C5.014 1.5 6.636.832 8.608.499c1.97-.332 4.299-.498 6.985-.498z"/></svg>