<svg xmlns="http://www.w3.org/2000/svg" fill="#3385e8" viewBox="0 0 30.556 28.209"><path d="m20.45 10.968 2.356 7.04h0.527v9e-3h7.018c-0.143 1.23-0.361 2.317-0.657 3.257-0.576 1.832-1.475 3.263-2.695 4.293-1.222 1.027-2.783 1.726-4.682 2.092-1.903 0.366-4.16 0.55-6.777 0.55-2.791 0-5.163-0.175-7.115-0.525-1.955-0.349-3.56-1.026-4.814-2.04-1.256-1.01-2.172-2.432-2.749-4.263-0.3-0.961-0.52-2.085-0.664-3.364h7.026v-0.01h0.527l2.357-7.039 4.318 12.897h1.705l4.318-12.897zm-4.858-10.968c2.65 0 4.919 0.15 6.8 0.443 1.885 0.298 3.429 0.945 4.632 1.938 1.205 0.992 2.093 2.415 2.67 4.263 0.575 1.853 0.862 4.344 0.862 7.488 0 0.309-5e-3 0.608-0.011 0.904h-5.668l-3.58-10.692h-1.697l-4.323 12.909-4.322-12.91h-1.695l-3.58 10.693h-5.67a44.74 44.74 0 0 1-0.01-0.904c0-3.037 0.305-5.477 0.916-7.33 0.609-1.849 1.552-3.28 2.825-4.29 1.273-1.012 2.895-1.68 4.867-2.013 1.97-0.332 4.299-0.498 6.985-0.498z"/></svg>