<svg xmlns="http://www.w3.org/2000/svg" id="Layer_1" data-name="Layer 1" version="1.1" width="48" height="48"><defs id="defs9202"><style id="style9200"></style></defs><g id="g9842" transform="translate(-119.28)" fill-opacity="1"><path id="path9837" d="M167.28 24a24 24 0 10-24 24 24 24 0 0024-24z" fill="#265565"/><path id="path9835" d="M135 37.94a1.06 1.06 0 01-.82.44h-4.38a1.19 1.19 0 01-.62-.24.92.92 0 01-.24-.61 8.08 8.08 0 01-.05-.85V11.13a2.08 2.08 0 01.19-1.1 1 1 0 01.74-.42h4.52a.76.76 0 01.61.3 1.36 1.36 0 01.22.73V37a1.79 1.79 0 01-.17.94z" fill="#fffff9"/><path id="path9782" d="M158.71 37.39a.87.87 0 01-.59.91 38 38 0 01-4.27 0 .81.81 0 01-.58-.35 1.25 1.25 0 01-.19-.62v-9.7a20.27 20.27 0 00-.12-2.77 3.51 3.51 0 00-3.5-3.52h-.22a4 4 0 00-4.09 3.53 29.73 29.73 0 00-.25 4v8.27a1.24 1.24 0 01-.12.6.86.86 0 01-.65.53 31.39 31.39 0 01-4 0 .9.9 0 01-.65-.28 1.66 1.66 0 01-.27-1.06V18.36a1 1 0 01.23-.61c.16-.22.51-.32 1.15-.32h2.3c.65 0 1.45 0 1.55.62 0 .15.17 1.39.7 1.4a.51.51 0 00.4-.2A9.8 9.8 0 01147 18a9.65 9.65 0 018.07-.39 5.73 5.73 0 012.55 2.27 9.76 9.76 0 011.09 4.65z" fill="#fffff9"/></g></svg>