<svg xmlns="http://www.w3.org/2000/svg" width="443pt" height="127pt" viewBox="0 0 1852 532"><g fill="#231f20"><path d="M1574.81 0h21.66c39.57 1.7 78.81 12.05 113.77 30.73 30.77 16.34 58.34 38.72 80.5 65.62 24.07 28.98 41.81 63.17 51.68 99.52 12.5 45.97 12.39 95.3-.34 141.21-18.05 66.17-63.09 124.31-122.4 158.67-33.07 19.37-70.41 31.37-108.57 34.92-5.9.61-11.84.73-17.72 1.33h-17.32c-3.68-.53-7.37-.69-11.04-.93-41.13-3.06-81.48-15.98-116.74-37.36-56.39-33.84-99.38-89.3-117.79-152.46-14.41-48.9-14.4-101.96.03-150.85 9.68-32.87 25.84-63.8 47.27-90.54 23.37-29.26 52.96-53.56 86.29-70.66 34.18-17.71 72.29-27.51 110.72-29.2m-140.45 106.43c-4.08 1.39-7 5.29-7.24 9.59-.8 7.94-.16 15.96-.37 23.93.48 23.03.16 46.08.25 69.11v178.88c.16 9.05-.43 18.14.54 27.17.27 3.12 1.72 6.39 4.78 7.68 5.26 2.23 11.16 1.21 16.72 1.46 10.67.49 21.36.14 32.04.27 4.66.33 10.09-.35 13.04-4.44 3.15-5.08 2.22-11.37 2.39-17.06-.44-14.99-.22-29.98-.26-44.97 0-54.02-.01-108.05.01-162.07-.58-26.36-.06-52.74-.32-79.11-.04-4.98-3.13-10.77-8.71-10.83-11.09-.12-22.18 0-33.26-.04-6.53.25-13.16-.55-19.61.43m226.13 82.36c-12.41 1.72-24.84 5.33-35.27 12.47-5.47 3.72-9.81 8.77-14.7 13.16-1.84 1.82-5.15 1.92-6.76-.23-3.75-4.32-3.7-10.37-5.2-15.59-1.76-3.99-6.72-4.7-10.55-5.04-10.01-.15-20.02-.03-30.02-.05-4.08.21-8.46.01-12.13 2.05-3.17 1.95-4.44 5.89-4.36 9.45-.01 10.01 0 20.03 0 30.04-.45 54.99-.18 110-.26 165-.09 5.87-.96 11.98.96 17.67 1.1 3.37 4.23 5.97 7.82 6.17 7.3.72 14.66.2 21.99.36 7.85-.15 15.78.46 23.56-.76 5.21-1.03 8.23-6.47 8.16-11.48.05-21.02 0-42.04.02-63.06.11-25.15-.82-50.46 3.01-75.42 2.17-10.87 8.02-21.14 16.76-28.05 7.44-5.94 16.96-8.85 26.41-9.14 10.45-.34 21.61 1.87 29.68 8.94 7.28 6.17 11.29 15.37 12.89 24.63 1.41 9.3 1.62 18.73 1.98 28.12.06 27.99-.02 55.97.04 83.95.53 10.64.01 21.3.31 31.95 0 4.99 3.83 9.76 9 9.93 14.01.61 28.05.67 42.07.22 3.43.05 7.3-.86 9.17-4.04 2.69-4.53 1.37-10.03 1.68-15.01.41-44.67.2-89.35.25-134.02-.24-13.9-2.47-27.87-7.43-40.89-5.77-15.43-18.14-27.98-33.02-34.82-17.49-7.74-37.28-8.87-56.06-6.51ZM1810.42 16.66c14.11-3.91 30.11 4.46 34.98 18.23 5.28 13.24-.71 29.67-13.32 36.32-9.9 5.66-23.1 4.77-32.12-2.2-7.72-5.73-12.38-15.37-11.74-25 .22-12.72 9.86-24.44 22.2-27.35m.93 4.91c-9.05 2.4-16.35 10.34-17.89 19.58-1.58 8.43 1.85 17.52 8.43 22.99 4.41 3.81 10.24 5.84 16.06 5.86 7.74-.13 15.36-4.07 19.81-10.43 4.94-6.75 5.93-16.16 2.59-23.81-4.45-11.01-17.56-17.55-29-14.19Z"/><path d="M1808.27 30.8c4.23-.5 8.51-.3 12.78-.29 2.91-.03 6.09.95 7.82 3.46 1.87 3.11 1.82 7.47-.55 10.32-1.39 1.54-3.42 2.24-5.18 3.2 1.69 4.16 4.94 7.44 6.74 11.54-.61 1.95-3.22 1.43-4.42.51-2.93-3.63-4.8-8.01-7.83-11.56-1.38-.94-3.08-.21-4.53-.1-.15 4.03.05 8.08-.42 12.1-1.47.07-2.91.09-4.32.05-.29-9.74-.05-19.49-.09-29.23m4.72 4.07c-.21 2.74-.27 5.5.12 8.23 3.2.47 6.65.91 9.76-.32 3.11-1.19 3.24-6.35.12-7.63-3.19-1.15-6.79-1.33-10-.28ZM14.99 102.47c14.08.26 28.16-.62 42.24-.09 2.68.2 5.63-.12 7.99 1.4 3.3 2.2 4.36 6.45 4.29 10.21-.03 61.66 0 123.32-.01 184.98.04 13.66-.2 27.33.42 40.98.33 5.62-.54 11.49 1.36 16.92 1.93 4.42 7.19 5.93 11.63 6.07 8.37.16 16.76.1 25.13-.18 24.31-.02 48.61.01 72.92-.02 4.49.1 9.08.48 13.32 2.04 3.67 1.37 4.85 5.67 4.73 9.23.02 12-.15 24.01.26 36.01.6 6.24-5.25 11.56-11.3 11.43-14.98.04-29.98.23-44.96-.21-29.01 0-58.01.03-87.02-.01-15.64-.65-31.3.23-46.94-.52-4.75.03-8.42-4.1-9.05-8.59V113.81c.26-3.28.94-6.96 3.77-9.04 3.1-2.64 7.42-2.26 11.22-2.3ZM758.26 102.36c13.57-.29 27.16-.02 40.74-.14 4.55-.11 9.48.71 12.94 3.92 3.15 2.79 3.83 7.16 5.22 10.93 21.15 62.11 42.26 124.23 63.6 186.27 1.52 3.31 2.41 7.92 6.32 9.19 3.49-.74 4.85-4.44 5.86-7.43 20.66-62.52 40.81-125.2 61.17-187.81 1.53-3.72 2.25-8.02 5.18-10.99 2.3-2.28 5.34-4.1 8.68-4.05 26.38-.01 52.76-.03 79.14.01 5.6.04 10.47 5.13 10.13 10.76.02 94.98 0 189.95.01 284.93.01 5.39.02 10.8-.47 16.17-.72 4.55-5.49 7.25-9.81 7.11-13.99-.14-27.97.44-41.95.26-4.03-.04-8.63-1.18-10.9-4.82-1.98-2.81-1.61-6.41-1.63-9.66.23-32.67-.32-65.32-.24-97.98.15-27.68-.45-55.35-.24-83.02-.08-3.42.35-6.98-.9-10.24-1.43-1.88-3.94-.04-5.46.83-4.04 5.29-5.69 11.9-8.17 17.97-16.18 44.88-30.89 90.28-46.41 135.39-5.09 14.77-10.04 29.59-15.66 44.17-1.31 3.51-4.14 7.43-8.34 7.13-13.37.46-26.75.19-40.11.2-5.99-.05-9.92-5.48-11.75-10.6-21.47-60.31-42.65-120.72-64.1-181.04-1.76-4.15-3.13-9.17-7.24-11.61-2.2-1.07-4.19.79-4.45 2.93-.84 4.9-.26 9.91-.42 14.86.18 57.69-.43 115.38-.23 173.07.26 4.06-1.09 8.66-4.86 10.73-3.11 1.36-6.56 1.97-9.94 1.93-10.33-.56-20.68.09-31-.49-5.27-.28-11.27 1.15-15.8-2.33-3.74-3.13-3.38-8.44-3.65-12.84-.04-94.36 0-188.71-.02-283.06-.04-4.51-.15-9.07.87-13.49.81-4.35 5.44-6.83 9.55-6.99 11.44-.17 22.9.18 34.34-.17ZM545.6 184.83c16.99-1.59 34.92-.71 50.45 7.05 8.27 3.96 15.12 10.17 21.86 16.26 2.02 2.03 5.5 2.6 7.71.52 3.45-3.32 3.38-8.41 4.45-12.74 1.34-4.6 6.8-5.32 10.88-5.29 12.36-.17 24.74-.31 37.1.1 5.15-.17 10.24 3.93 10.12 9.3.19 26.65.03 53.32.08 79.97.52 40.32.12 80.65.26 120.97.01 19.69-2.83 39.88-11.89 57.58-7.5 15.08-19.83 27.58-34.6 35.61-18.93 10.34-40.68 14.17-62.02 14.94-24.63 1.07-50.16-2.19-72.1-14.06-17.89-9.59-33.13-25.65-38.5-45.57-.86-3.51-1.57-7.98 1.41-10.71 2.82-3.06 7.24-3.58 11.18-3.53 10.64.08 21.29-.17 31.92.27 5.29-.07 11.85-.7 15.43 4.09 3.04 4.86 6.01 9.86 10.22 13.84 8.43 8.73 20.53 13.25 32.54 13.65 12.39.46 25.46-1.82 35.65-9.29 8.43-5.91 14.19-15.06 17.27-24.77 2.33-7.08 2.63-14.58 3.39-21.94.4-5 1.15-10.02.74-15.04-.16-3.47-3.52-6.59-7.05-5.65-4.97.84-7.35 5.88-11.4 8.34-13.74 9.36-30.09 14.89-46.65 16.26-21.08 1.15-42.87-3.73-60.55-15.55-14.45-9.52-25.57-23.59-32.62-39.31-8.48-18.82-11.75-39.63-11.95-60.16-.49-26.08 6.5-52.38 20.67-74.35 8.51-12.91 19.98-24.08 33.79-31.19 10-5.21 21.03-8.33 32.21-9.6m17.95 47.85c-16.34 3.22-29.83 15.71-35.84 31.04-7.04 17.51-6.41 37.06-3.3 55.37 2.79 14.79 9.13 29.84 21.48 39.14 13.2 9.91 31.59 11.33 46.8 5.5 12.55-4.86 22.25-15.42 27.68-27.57 6.77-15 8.67-31.82 7.75-48.12-1.17-18.26-10.14-36.31-25.42-46.74-11.19-7.97-25.62-11.54-39.15-8.62ZM1177.56 184.87c24.99-2.65 51.37 1.21 73 14.59 26.75 16.15 44.32 44.66 51.29 74.7 2.83 12.32 4.04 25.14 2.58 37.73-.36 3.75-3.01 6.96-6.7 7.83-9.38 2.41-19.16 1.25-28.73 1.53-36.97-.1-73.96.23-110.92-.25-4.56.18-9.46-.73-13.68 1.41-3.81 1.98-6.18 6.33-5.88 10.6.69 16.29 10.56 31.75 24.91 39.44 12.72 6.84 27.8 8.7 42 6.8 14.36-1.95 27.1-10.48 35.92-21.77 2.95-4.11 7.29-7.98 12.69-7.74 12.32.06 24.65-.07 36.97.06 2.72-.04 4.34 2.67 4.77 5.06 1.28 4.12-.55 8.24-2.14 11.98-8.46 19.57-23.44 36.29-42.1 46.62-17.74 9.91-38.31 14-58.51 13.8-20.77.2-41.93-3.44-60.52-12.99-15.53-7.87-28.73-20.11-38.02-34.8-8.47-13.38-14.1-28.43-17.29-43.9-2.87-14.33-4.17-29.1-2.35-43.65 3.3-26.88 14.49-53.04 32.97-73 17.91-19.61 43.42-31.51 69.74-34.05m3.98 46.94c-15.64 2.44-29.91 12.34-37.53 26.23-2.81 5.28-5.42 11.51-3.54 17.54 1.6 4.76 7.24 5.64 11.6 5.83 7.98.18 15.97.17 23.96-.16 16.66-.01 33.33-.01 50 0 3.73-.09 8.19-.31 10.68-3.54 2.57-3.19 2.11-7.69.83-11.31-4.57-12.86-13.14-25.02-25.73-31.03-9.3-4.69-20.14-5.23-30.27-3.56ZM300.6 185.77c26.45-2.98 54.35-.85 78.5 11.13 21.05 10.12 38.05 27.76 48.61 48.48 7.9 15.34 12.8 32.28 13.98 49.51.67 17.59-.54 35.43-5.48 52.4-5.11 17.74-14.35 34.43-27.53 47.44-15.21 15.34-35.27 25.34-56.27 29.95-22.17 4.81-45.52 4.46-67.48-1.29-23.76-6.2-45.29-20.7-59.69-40.64-16.31-21.58-23.86-48.93-23.72-75.77.05-22.14 4.91-44.4 15.15-64.08 9.45-18.56 24.3-34.54 42.73-44.39 12.72-6.91 26.87-10.96 41.2-12.74m13.96 47.09c-14.34 1.89-27.82 9.68-36.19 21.53-10.65 14.9-13.68 33.73-13.89 51.66.03 18.19 3.29 37.22 13.96 52.36 8.72 12.65 23.19 21.38 38.64 22.15 15.27.7 31.27-4.27 42.13-15.34 10.71-10.44 15.92-25.22 18.03-39.74 2.26-16.87 1.78-34.34-3.1-50.73-4.37-14.63-13.12-28.65-26.62-36.39-9.85-5.88-21.77-7.22-32.96-5.5Z"/></g></svg>