<svg xmlns="http://www.w3.org/2000/svg" xml:space="preserve" viewBox="0 0 190 190"><path fill="none" d="M0 0h190v190H0z"/><path fill="#625df5" d="M189.6 84.3h-55.4l48-27.7-10.5-18.3-48 27.7 27.7-48-18.3-10.6-27.7 48V0H84.3v55.4l-27.7-48L38.3 18 66 66 18 38.3 7.4 56.5l48 27.7H0v21.1h55.4L7.4 133 18 151.3l48-27.7-27.7 48 18.3 10.5 27.7-48v55.4h21.1v-55.4l27.7 48 18.3-10.5-27.7-48 48 27.7 10.5-18.3-48-27.7h55.4v-21zm-94.8 39.2c-15.9 0-28.8-12.9-28.8-28.8s12.9-28.8 28.8-28.8 28.8 12.9 28.8 28.8-12.9 28.8-28.8 28.8z"/></svg>