<svg xmlns="http://www.w3.org/2000/svg" version="1.1" id="Layer_1" x="0" y="0" xml:space="preserve" width="35.4" height="35.4"><style type="text/css" id="style23771"></style><path d="M32.33 35.4h-22.1c-2.1 0-3.9-.7-5.2-2-1.4-1.3-2.1-3.1-2.1-5.2 0-.6.1-1.1.2-1.7L7.73 0c2.1 0 3.9.7 5.2 2 1.4 1.3 2.1 3 2.1 5.1 0 .6 0 1.1-.1 1.7l-2.4 13.1c-.2 1.2 0 2.3.7 3.3s1.6 1.5 2.8 1.5h9.1c2.2 0 3.9.7 5.3 2s2 3 2 5.2c.1.4 0 1-.1 1.5z" id="path23773" fill="#a70014" fill-opacity="1"/><linearGradient id="SVGID_1_" gradientUnits="userSpaceOnUse" x1="236.48" y1="38.595" x2="247.167" y2="-1.289"><stop offset="0" id="stop23785" stop-color="#cb8e35"/><stop offset=".525" id="stop23787" stop-color="#fbe99b"/><stop offset="1" id="stop23789" stop-color="#c27f2a"/></linearGradient><linearGradient id="SVGID_2_" gradientUnits="userSpaceOnUse" x1="273.637" y1="38.461" x2="284.348" y2="-1.512"><stop offset="0" id="stop23794" stop-color="#cb8e35"/><stop offset=".525" id="stop23796" stop-color="#fbe99b"/><stop offset="1" id="stop23798" stop-color="#c27f2a"/></linearGradient></svg>