<svg xmlns="http://www.w3.org/2000/svg" viewBox="0 0 37.57 24.34"><path fill="#ff7dfa" d="m37.35 11.05-2.7-6.53a2.93 2.93 0 0 0-1.6-1.6L26.53.23a2.9 2.9 0 0 0-2.24 0l-6.54 2.7c-.71.3-1.28.88-1.58 1.6l-2.7 6.53a2.9 2.9 0 0 0 0 2.24l2.7 6.54c.3.72.87 1.29 1.58 1.58l6.54 2.71c.72.3 1.52.3 2.24 0l6.54-2.7c.71-.3 1.29-.88 1.58-1.6l2.7-6.53c.3-.71.3-1.52 0-2.24z"/><path fill="#ff2d2d" d="M20.04 14.82v-5.9c0-.7-.38-1.35-.98-1.7l-5.11-2.95a1.96 1.96 0 0 0-1.96 0L6.88 7.22c-.6.35-.98 1-.98 1.7v5.9c0 .7.37 1.35.98 1.7l5.1 2.95c.61.35 1.36.35 1.97 0l5.1-2.95c.61-.35.99-1 .99-1.7z"/><path fill="#820500" d="m7.73 11.35-2.9-2.9a1.13 1.13 0 0 0-1.6 0l-2.9 2.9a1.13 1.13 0 0 0 0 1.6l2.9 2.9c.44.44 1.16.44 1.6 0l2.9-2.9c.44-.45.44-1.16 0-1.6z"/></svg>