<svg xmlns="http://www.w3.org/2000/svg" fill="none" viewBox="0 0 156 156"><path fill="#00ddb3" d="M116.5 0h-77A39.5 39.5 0 0 0 0 39.5v77A39.5 39.5 0 0 0 39.5 156h77a39.5 39.5 0 0 0 39.5-39.5v-77A39.5 39.5 0 0 0 116.5 0Z"/><path fill="#fff" d="M118.5 35C91.7 35 81.7 54 73.7 69.4l-5.2 9.9c-8.5 16.3-14.8 26.2-31 26.2A7.7 7.7 0 0 0 32 108a7.7 7.7 0 0 0 0 10.9 7.7 7.7 0 0 0 5.4 2.2c26.9 0 36.8-19.1 44.8-34.5l5.2-9.9c8.5-16.3 14.8-26.2 31.1-26.2A7.7 7.7 0 0 0 124 48a7.7 7.7 0 0 0 2.3-5.5 7.7 7.7 0 0 0-7.8-7.7z"/></svg>