<svg xmlns="http://www.w3.org/2000/svg" class="styles__StyledSVG-sc-1o7nvm8-0 dnlKle icon icon-lowes-logo-filled" color="brand" aria-hidden="true" width="24" height="24"><path d="M12.001 5.485L18.2 8.136h3.865v1.081H24v7.268H0V9.217h1.937v-1.08h3.866z" fill="#004990"/><path d="M8.61 10.946H6.49a.521.521 0 00-.52.521v3.039c0 .287.233.52.52.52h2.12a.522.522 0 00.522-.52v-3.039a.521.521 0 00-.522-.52zM18.645 10.07h-.92v1.174l.76.001z" fill="#fff"/><path d="M8.033 11.905v2.163h-.965v-2.163h.965z" fill="#004990"/><path d="M10.855 10.946H9.757v3.56c0 .287.233.52.522.52h1.299c.219 0 .422-.15.422-.369 0 .219.204.37.423.37h1.3a.522.522 0 00.52-.522v-3.559h-1.098v3.127h-.662v-3.127h-.965v3.127h-.663zM17.482 10.946h-2.61v4.08h2.61v-.954h-1.509v-.622h1.51v-.92h-1.51v-.625h1.51zM3.828 10.069H2.731v4.958h2.795v-.954H3.828zM19.9 10.795c-.557 0-.98.202-1.255.601-.23.328-.256.846-.06 1.233.253.438.657.62 1.05.797.16.072.327.148.484.24l.001.002c.177.106.267.268.23.412-.039.15-.21.25-.426.25a.65.65 0 01-.089-.006l-.01-.001c-.416-.058-1.26-.371-1.267-.375l-.027-.01v.977l.014.005c.007.002.824.272 1.548.272.396 0 .694-.08.887-.236a1.37 1.37 0 00.467-.963 1.1 1.1 0 00-.113-.508l-.006-.014-.007-.013-.013-.026c-.174-.348-.563-.639-1.19-.89l-.022-.008c-.124-.048-.502-.196-.544-.435a.276.276 0 01.091-.237c.08-.08.2-.121.36-.121.255 0 .546.104.696.166.317.131.595.248.598.25l.028.011v-.89l-.01-.006c-.005-.004-.605-.381-1.21-.468a2.411 2.411 0 00-.205-.009z" fill="#fff"/></svg>