<svg xmlns="http://www.w3.org/2000/svg" width="165" height="60" fill="none"><g fill="#000" clip-path="url(#a)"><path d="M164.516 14.514c-7.987 0-14.462-6.498-14.462-14.514 0 8.016-6.475 14.514-14.463 14.514 7.988 0 14.463 6.497 14.463 14.513-.002-8.016 6.475-14.513 14.462-14.513ZM8.668 59.37H0V6.22h8.668v53.15ZM28.335 60c-9.612 0-15.124-5.242-15.124-14.384V20.253h8.668v24.722c0 5.39 1.98 7.395 7.307 7.395 6.905 0 9.721-3.32 9.721-11.454V20.253h8.668V59.37h-8.313V52.54C38.13 57.79 33.095 60 28.335 60ZM107.327 59.37h-8.598V34.075c0-5.137-1.595-7.048-5.888-7.048-5.523 0-8.442 3.3-8.442 9.541v22.8h-8.597V34.075c0-5.007-1.645-7.048-5.674-7.048-7.187 0-8.657 7.526-8.657 9.541v22.8h-8.668V20.253h8.313v6.84c1.477-4.799 6.147-7.696 10.857-7.696 4.707 0 8.665 1.804 10.383 7.697 2.305-6.11 6.45-7.697 11.41-7.697 8.617 0 13.561 4.31 13.561 11.829V59.37ZM124.765 60c-11.972 0-14.003-7.637-14.003-11.534 0-4.59 2.009-8.724 6.354-10.4a37.16 37.16 0 0 1 5.651-1.62c1.668-.336 4.241-.693 6.122-.953l.621-.087c3.272-.456 6.75-2.102 6.75-4.25 0-3.654-4.666-4.2-7.448-4.2-3.156 0-5.378.816-6.263 2.295-.794 1.475-.849 1.82-1.051 3.105l-.141 1.012h-8.668l.154-1.281c.308-2.544.776-4.345 1.475-5.67 2.398-4.654 7.227-7.02 14.351-7.02 5.94 0 10.153 1.88 12.116 3.64 1.208 1.05 2.071 2.246 2.705 3.758 1.329 2.821 1.438 4.71 1.438 6.712V53.24c0 1.842.178 3.417.526 4.68l.4 1.45h-8.852l-.159-.957c-.114-.675-.153-4.509-.2-5.988-2.048 5.39-6.432 7.575-11.878 7.575Zm11.493-21.397c-1.813 1.395-4.657 2.191-8.786 3.02-7.114 1.32-8.313 2.982-8.313 6.215 0 2.854 2.418 4.626 6.313 4.626 7.56 0 10.786-3.535 10.786-11.82v-2.041Z"/></g><defs><clipPath id="a"><path fill="#fff" d="M0 0h164.516v60H0z"/></clipPath></defs></svg>
