<svg xmlns="http://www.w3.org/2000/svg" viewBox="0 0 23 27"><path fill="#f96b13" d="M8.63 1.68v3.38l8.62 5.06v10.14l2.88 1.68V8.44L8.63 1.68zM0 6.75v13.5L11.5 27v-3.37l-8.63-5.07V8.44L0 6.75z"/><path fill="#cc4e00" d="M5.75 6.75 2.87 8.44v10.12l2.88-1.68V6.75zm17.25 0-2.88 1.69v13.5L23 20.26V6.76z"/><path fill="#ffca73" d="M11.5 0 8.62 1.68l11.5 6.76L23 6.75 11.5 0zM2.87 5.06 0 6.76l2.88 1.68 2.87-1.69-2.88-1.69zm2.88 11.82-2.88 1.68 8.63 5.07 2.88-1.7-8.63-5.05z"/><path fill="#cc4e00" d="M11.5 23.63V27l2.88-1.68v-3.38z"/></svg>
