<svg xmlns="http://www.w3.org/2000/svg" width="38" height="38"><path d="M38 19C38 8.474 29.526 0 19 0 8.512 0 0 8.474 0 19c0 10.488 8.512 19 19 19 10.526 0 19-8.512 19-19z" fill="#05164d"/><path d="M36.632 19c0 9.69-7.904 17.632-17.632 17.632-9.69 0-17.632-7.941-17.632-17.632C1.368 9.272 9.31 1.368 19 1.368c9.728 0 17.632 7.904 17.632 17.632z" fill="#fff"/><path d="M25.726 17.86c-.418 0-.95 0-1.634.038l.494-.836h.798c2.85 0 4.978.152 6.916.494l.874-.836c-2.166-.38-4.788-.608-7.448-.608h-.646l.418-.798h.722c2.774 0 5.282.228 7.714.684l.912-.874c-2.736-.532-5.662-.797-8.816-.797a45.9 45.9 0 00-4.028.19c-1.52 3.267-3.952 5.168-6.688 5.13-1.064-.039-2.395-.494-4.104-1.407l-1.596-.912.494-.456 3.686 1.596.798-.608-7.448-3.382-1.14.874-2.66-1.102.038 1.102c3.572 1.634 5.054 2.546 8.816 5.244 4.902 3.496 9.272 5.396 15.352 6.612l1.596-1.52h-.38c-4.028 0-7.638-1.33-9.728-3.572 1.748-1.064 3.913-1.557 6.916-1.557.798 0 1.938.075 3.002.189l.912-.874a36.194 36.194 0 00-4.294-.266 35.23 35.23 0 00-2.888.114l.684-.836a43.437 43.437 0 012.432-.076c2.014 0 3.344.076 4.864.304l.874-.836c-1.596-.265-3.8-.418-5.814-.418z" fill="#05164d"/></svg>