<svg xmlns="http://www.w3.org/2000/svg" width="119.588" height="119.588" viewBox="0 0 119.588 120"><path d="M49.194 46.4c-1.1 0-1.9.9-1.9 2v14c0 4.9-3.5 8.3-8.5 8.3s-8.4-3.4-8.5-8.3v-14c0-1.1-.9-2-1.9-2-1 0-1.9.9-1.9 2v14.2c0 3.7 1.2 6.8 3.6 8.9 2.1 1.9 5.1 3 8.4 3.1h.8c3.2-.1 6.1-1.2 8.2-3.1 2.3-2.1 3.5-5.2 3.5-8.9V48.4c.1-1.1-.8-2-1.8-2zm-31.1 24h-6c-4.9 0-8.4-3.4-8.5-8.3v-14c0-1.1-.9-2-1.9-2-1 0-1.9.9-1.9 2v14.2c0 3.7 1.2 6.8 3.6 8.9 2.1 1.9 5.1 3 8.4 3.1h6.3c1.1 0 1.9-.9 1.9-2s-.9-1.9-1.9-1.9zm63.8 3.1c-1.1 0-1.9-.9-1.9-2v-14c0-4.9-3.5-8.3-8.5-8.3s-8.4 3.4-8.5 7.9v14c0 1.5-.9 2.4-1.9 2.4-1 0-1.9-.9-1.9-2V57.4c0-3.7 1.2-6.8 3.6-8.9 2-2 5-3 8.3-3.1h.9c3.2.1 6.1 1.2 8.2 3.1 2.4 2.2 3.6 5.3 3.6 8.9v14.2c0 1-.9 1.9-1.9 1.9zm23.8.9c-4 0-7.6-1.5-10.2-4.2-2.5-2.6-3.9-6.1-3.9-9.9v-.1c0-3.8 1.4-7.3 3.9-9.9 2.6-2.8 6.3-4.3 10.2-4.3 4 0 7.6 1.5 10.2 4.2 2.5 2.6 3.9 6.1 3.9 9.9v.1c0 3.8-1.4 7.3-3.9 9.9-2.6 2.8-6.3 4.3-10.2 4.3zm0-24.8c-5.7 0-10.1 4.5-10.1 10.5v.1c0 2.9 1 5.5 2.9 7.5s4.5 3.1 7.3 3.1c5.7 0 10.1-4.5 10.1-10.5v-.1c0-2.9-1-5.5-2.9-7.5s-4.5-3.1-7.3-3.1z" fill="#12326b"/></svg>