<svg xmlns="http://www.w3.org/2000/svg" fill="currentColor" viewBox="0 0 57.486 71.858" aria-labelledby="lyft-logo" height="57.486" width="57.486"><g fill="#ff00bf"><path d="M-7.185 11.864H3.727V40.58c0 4.544 2.12 7.251 3.796 8.411-1.775 1.547-7.198 2.901-11.24-.386-2.385-1.939-3.469-5.125-3.469-8.122V11.864zM61.01 35.718V32.7h3.328V22.113h-3.656c-1.402-6.356-7.173-11.119-14.075-11.119-7.95 0-14.396 6.32-14.396 14.116v24.724c2.265.312 4.964-.04 7.26-1.906 2.384-1.938 3.467-5.124 3.467-8.122v-.91h5.45V28.309h-5.45V25.11h.013c0-1.98 1.637-3.585 3.656-3.585 2.02 0 3.662 1.605 3.662 3.585v10.608c0 7.796 6.453 14.116 14.403 14.116V39.302c-2.019 0-3.662-1.605-3.662-3.584"/><path d="M19.682 22.113V37.65c0 .883-.746 1.597-1.667 1.597-.92 0-1.667-.714-1.667-1.597V22.113H5.551v18.273c0 3.288 1.137 7.445 6.31 8.799 5.18 1.355 8.185-1.45 8.185-1.45-.274 1.848-2.049 3.201-4.909 3.491-2.164.22-4.93-.483-6.31-1.063v9.681c3.517 1.017 7.236 1.345 10.877.653 6.606-1.257 10.775-6.671 10.775-13.874v-24.51H19.683z"/></g></svg>