<svg xmlns="http://www.w3.org/2000/svg" width="28.98" height="28.98"><g fill-rule="evenodd" paint-order="markers fill stroke"><path style="font-variation-settings:normal" d="M14.49 22.695a8.205 8.205 0 0 1-7.106-4.102 8.205 8.205 0 0 1 0-8.205 8.205 8.205 0 0 1 7.106-4.103v8.205zM14.49 0A14.49 14.49 0 0 0 0 14.49a14.49 14.49 0 0 0 14.49 14.49V14.49z" fill="#ff153d"/><path style="font-variation-settings:normal" d="M14.49 22.695a8.205 8.205 0 0 0 7.106-4.102 8.205 8.205 0 0 0 0-8.205 8.205 8.205 0 0 0-7.106-4.103v8.205zM14.49 0a14.49 14.49 0 0 1 14.49 14.49 14.49 14.49 0 0 1-14.49 14.49V14.49z" fill="#1e3979"/></g></svg>