<svg xmlns="http://www.w3.org/2000/svg" width="28.98" height="28.98"><g fill-rule="evenodd" paint-order="markers fill stroke"><path style="font-variation-settings:normal" d="M14.49 22.695a8.205 8.205 0 01-7.106-4.102 8.205 8.205 0 010-8.205 8.205 8.205 0 017.106-4.103v8.205zM14.49 0A14.49 14.49 0 000 14.49a14.49 14.49 0 0014.49 14.49V14.49z" fill="#ff153d"/><path style="font-variation-settings:normal" d="M14.49 22.695a8.205 8.205 0 007.106-4.102 8.205 8.205 0 000-8.205 8.205 8.205 0 00-7.106-4.103v8.205zM14.49 0a14.49 14.49 0 0114.49 14.49 14.49 14.49 0 01-14.49 14.49V14.49z" fill="#1e3979"/></g></svg>