<svg xmlns="http://www.w3.org/2000/svg" width="72" height="72"><rect width="72" height="72" fill="#4c7ebf" rx="14.4" fill-rule="evenodd"/><path fill="#fff" d="M44.35 52.068c-3.097 0-5.042-.14-8.552-1.022-4.998-1.255-9.11-3.929-11.579-7.53-3.646-5.317-3.574-11.313.198-16.454 2.527-3.442 6.683-5.905 11.7-6.938 3.374-.695 5.277-.68 8.142-.661.518.004 1.075.009 1.691.009v7.723c-.635 0-1.212-.004-1.746-.007-2.635-.02-3.955-.029-6.529.5-3.141.647-5.639 2.049-7.032 3.945-1.811 2.469-1.829 4.927-.055 7.515 1.403 2.046 3.922 3.612 7.093 4.408 3.263.82 4.59.806 8.134.78l.064 7.723c-.544.004-1.05.009-1.528.009" fill-rule="evenodd"/></svg>