<svg xmlns="http://www.w3.org/2000/svg" width="512" height="512" viewBox="0 0 135.46666 135.46667"><defs><linearGradient id="f" x1="319.84" x2="437.01001" y1="269.20999" y2="269.20999" gradientTransform="matrix(.26458 0 0 .26458 0 0)" gradientUnits="userSpaceOnUse" href="#a"/><linearGradient id="a" x1="319.84" x2="437.01001" y1="269.20999" y2="269.20999" gradientUnits="userSpaceOnUse"><stop offset="0.43" stop-color="#ececec"/><stop offset="0.51" stop-color="#f6f6f6"/><stop offset="0.64" stop-color="#fdfdfd"/><stop offset="1" stop-color="#fff"/></linearGradient><linearGradient id="g" x1="241" x2="241" y1="188" y2="252" gradientTransform="matrix(.26458 0 0 .26458 0 0)" gradientUnits="userSpaceOnUse" href="#b"/><linearGradient id="b" x1="241" x2="241" y1="188" y2="252" gradientUnits="userSpaceOnUse"><stop offset="0.33" stop-color="#9a5728"/><stop offset="0.54" stop-color="#944f2d"/><stop offset="1" stop-color="#8a4334"/></linearGradient><linearGradient id="h" x1="135.34" x2="337.98001" y1="209.73" y2="209.73" gradientTransform="matrix(.26458 0 0 .26458 0 0)" gradientUnits="userSpaceOnUse" href="#c"/><linearGradient id="c" x1="135.34" x2="337.98001" y1="209.73" y2="209.73" gradientUnits="userSpaceOnUse"><stop offset="0" stop-color="#83452a"/><stop offset="0.27" stop-color="#83452a" stop-opacity="0.84"/><stop offset="0.74" stop-color="#83452a" stop-opacity="0.59"/><stop offset="1" stop-color="#83452a" stop-opacity="0.5"/></linearGradient><linearGradient id="i" x1="222.00999" x2="297.88" y1="248.00999" y2="172.14999" gradientTransform="matrix(.26458 0 0 .26458 0 0)" gradientUnits="userSpaceOnUse" href="#d"/><linearGradient id="d" x1="222.00999" x2="297.88" y1="248.00999" y2="172.14999" gradientUnits="userSpaceOnUse"><stop offset="0" stop-color="#6d3821"/><stop offset="0.77" stop-color="#6d3821" stop-opacity="0"/><stop offset="1" stop-color="#6d3821" stop-opacity="0"/></linearGradient><linearGradient id="j" x1="194" x2="334" y1="150" y2="150" gradientTransform="matrix(.26458 0 0 .26458 0 0)" gradientUnits="userSpaceOnUse" href="#e"/><linearGradient id="e" x1="194" x2="334" y1="150" y2="150" gradientUnits="userSpaceOnUse"><stop offset="0" stop-color="#00a43c"/><stop offset="0.22" stop-color="#00aa3b"/><stop offset="0.52" stop-color="#00ba38"/><stop offset="0.85" stop-color="#00d534"/><stop offset="0.99" stop-color="#00e431"/></linearGradient></defs><path fill="#00c73c" d="M-.01 0v135.475h135.482V0Z"/><path fill="url(#f)" d="M91.599 52.962a15.346 15.346 0 0 0-3.969 21.333l5.89-4.04a8.202 8.202 0 1 1 11.403 2.116L84.633 86.29l4.04 5.89 20.29-13.918a15.346 15.346 0 1 0-17.356-25.31Z"/><path fill="#fff" d="M63.765 42.069c-19.289 0-34.925 6.927-34.925 14.816V73.29a34.925 34.925 0 0 0 69.85 0V56.885c0-7.89-15.637-14.816-34.925-14.816z"/><ellipse cx="63.764576" cy="56.356255" fill="#ccc" rx="29.104166" ry="10.318749"/><path fill="url(#g)" d="M63.765 66.675c13.258 0 24.442-3.143 27.955-7.443-1.145-5.31-13.223-9.49-27.955-9.49-14.732 0-26.81 4.18-27.956 9.49 3.513 4.3 14.697 7.443 27.956 7.443z"/><path fill="url(#h)" d="M66.146 51.33c9.694 0 18.243 1.809 23.283 4.56-4.358-3.622-14.208-6.148-25.664-6.148-14.732 0-26.81 4.18-27.956 9.49a10.268 10.268 0 0 0 2.315 2.006c.585-5.509 12.906-9.909 28.022-9.909z"/><path fill="url(#i)" d="M51.33 58.208s7.937 3.97 18.52 3.97c10.583 0 18.52-3.97 18.52-3.97v-3.1c-4.762-3.2-13.996-5.366-24.605-5.366A70.009 70.009 0 0 0 51.329 50.8z"/><path fill="#26f749" d="M80.433 21.167A29.104 29.104 0 0 0 51.33 50.27v7.937h7.938A29.104 29.104 0 0 0 88.37 29.104v-7.937z"/><path fill="url(#j)" d="M59.267 58.208A29.104 29.104 0 0 0 88.37 29.104v-7.937L51.329 58.208z"/></svg>