<svg xmlns="http://www.w3.org/2000/svg" width="31.17" height="27.12" viewBox="0 0 37.01 28.81"><path stroke="#000" stroke-width=".2" d="m27.93 19.85 7.28-4.2-7.28 12.61zm-6.54 3.77 5.09 5.88H11.22zM9.07 16.51v11.75L1.44 15.04l7.63 1.47zm0-7.55-7.28 4.2L9.07.56v8.41ZM15.6 5.2 10.52-.7h15.26zm12.32 7.11V.55l7.64 13.22-7.63-1.47zm0 6.5v-5.57l7.25 1.39-7.24 4.18zm-.9 1.57v8.37l-4.83-5.58zm-10.08-2.35 9.25 1.78-4.92 2.85-10.5 6.06zm-6.96-1.89v-5.69l6.17 7.13-6.17 10.69zm-.9-6.12v5.57L1.82 14.2zm.9-1.57V.07l4.83 5.58Zm10.08 2.35-9.25-1.78 4.93-2.85L26.24.1zm6.96 1.89v5.7l-6.17-7.14L27.02.55zM16.95 17.1l-6.22-7.18 9.33 1.8 6.22 7.18-9.33-1.8zm19.89-2.92L27.86-1.37a.46.46 0 0 0-.38-.23H9.5a.45.45 0 0 0-.38.23L.16 14.18a.45.45 0 0 0 0 .45l8.97 15.55a.46.46 0 0 0 .39.23h17.96a.45.45 0 0 0 .39-.23l8.96-15.54c.08-.15.11-.27 0-.46z"/></svg>