<svg xmlns="http://www.w3.org/2000/svg" width="1901.601" height="1901.575" viewBox="0 0 146.618 146.616"><path d="M207.023 48.105h192.756V240.86H207.023z" clip-rule="evenodd" fill="#fff" fill-rule="evenodd"/><g clip-rule="evenodd" fill-rule="evenodd"><path d="M146.618 146.616V0H0v146.616z" fill="#cc2131"/><path d="M81.842 96.583h34.299l-4.363 6.983H77.479zm-24.81 29.742h61.002l-4.366 6.983H52.667zm41.961-63.927l4.556-2.845 10.735 17.198-14.565 9.1-2.828-4.542 10.022-6.271zm-88.335 12.22h46.81L53.104 81.6H6.294z" fill="#fff"/><path d="M94.547 74.377a4.397 4.397 0 100-8.795 4.397 4.397 0 100 8.795zm-76.13-12.173h46.81l-4.365 6.983H14.053zm7.759-12.543h46.809l-4.364 6.983H21.812z" fill="#fff"/><path d="M124.774 4.031C83.911 24.311 24.559 47.791 24.559 95.678c0 17.836 10.258 30.881 20.56 35.785l52.758-84.405-4.105-6.53-50.496 80.818c-5.216-3.844-11.864-13.85-11.864-27.221 0-36.902 46.691-61.263 86.992-79.847z" fill="#fff"/></g></svg>