<svg xmlns="http://www.w3.org/2000/svg" viewBox="0 0 100.23 20.85"><path fill="#292929" d="M10.06 20.82A9.99 9.99 0 0 1 0 10.67C0 5.05 4.1.47 10.06.47c3.16 0 5.35.97 7.06 3.2l-2.76 2.3a5.61 5.61 0 0 0-4.3-1.86c-3.88 0-6.01 2.97-6.01 6.56 0 3.59 2.33 6.5 6 6.5 1.74 0 3.2-.61 4.37-1.85l2.72 2.4c-1.64 2.13-3.88 3.1-7.08 3.1zM29.02 5.89h3.71v14.57h-3.71v-2.13c-.78 1.51-2.06 2.52-4.53 2.52-3.93 0-7.08-3.42-7.08-7.62s3.15-7.62 7.08-7.62c2.45 0 3.75 1 4.53 2.52zm.1 7.34c0-2.28-1.56-4.17-4.02-4.17-2.37 0-3.92 1.9-3.92 4.17 0 2.2 1.55 4.17 3.92 4.17 2.45 0 4.03-1.9 4.03-4.17zM35.36 0h3.71v20.44h-3.71zm5.37 18.52c0-1.2.96-2.2 2.26-2.2 1.3 0 2.23 1 2.23 2.2a2.2 2.2 0 0 1-2.23 2.24c-1.29 0-2.26-1-2.26-2.24zm18.7-.42a7.58 7.58 0 0 1-5.96 2.75 7.54 7.54 0 0 1-7.68-7.62c0-4.2 3.25-7.62 7.68-7.62 2.4 0 4.47 1 5.85 2.6l-2.87 2.4a3.71 3.71 0 0 0-2.98-1.57c-2.37 0-3.91 1.91-3.91 4.17s1.54 4.17 3.91 4.17c1.44 0 2.43-.75 3.16-1.76zm.31-4.87c0-4.2 3.26-7.62 7.69-7.62a7.54 7.54 0 0 1 7.68 7.62c0 4.2-3.25 7.62-7.68 7.62a7.55 7.55 0 0 1-7.69-7.62zm11.6 0c0-2.28-1.54-4.17-3.91-4.17-2.37-.02-3.92 1.89-3.92 4.17 0 2.26 1.55 4.17 3.92 4.17s3.91-1.9 3.91-4.17zm28.89-1.68v8.9h-3.71v-7.99c0-2.52-1.18-3.6-2.94-3.6-1.66 0-2.84.82-2.84 3.6v7.98h-3.71v-7.98c0-2.52-1.2-3.6-2.94-3.6-1.66 0-3.11.82-3.11 3.6v7.98h-3.71V5.87h3.71v2.02c.77-1.57 2.17-2.36 4.32-2.36a5.21 5.21 0 0 1 4.69 2.71c.94-1.74 2.32-2.7 4.82-2.7 3.05.01 5.42 2.33 5.42 6z"/></svg>