<svg xmlns="http://www.w3.org/2000/svg" viewBox="0 0 337.8 344.3"><path fill="#006bff" d="M174.2 0a172.1 172.1 0 1 0 162.4 222.8c1.5-4.8 3.4-13-6.4-20.3a83.7 83.7 0 0 0-34.5-14.8v.3c-1 6-2.7 11.8-5 17.4 10.3 1.6 20 5.6 28.5 11.8v.2a153.6 153.6 0 1 1 0-90.6v.3a62.3 62.3 0 0 1-28.5 11.7c2.3 5.6 4 11.5 5 17.5v.3a83.5 83.5 0 0 0 34.5-14.8c9.8-7.3 8-15.5 6.4-20.4A172.1 172.1 0 0 0 174.2 0Zm-19.1 52.3c-32 0-61.6 17-77.6 44.8L60 127.3c-16 27.7-16 62 0 89.6l17.5 30.3A89.6 89.6 0 0 0 155 292h35c32 0 61.5-17 77.5-44.8L285 217c2-3.6 4-7.4 5.5-11.3v-.2l5.1-17.8c1.9-10.3 0-31.1 0-31.1s-5-9.8-5-17.8c-1.8-4-3.7-8.2-5.6-11.5l-17.5-30.2A89.7 89.7 0 0 0 190 52.3Z"/><path fill="#0ae8f0" d="M290.7 138.8a74 74 0 0 1-12 1c-26 0-35.8-8.7-47.1-18.7-11-9.7-24.6-21.8-49.4-21.8h-14.8c-18 0-34.2 6.5-45.9 18.3a62.6 62.6 0 0 0-17.6 44.5v20.2c0 17.1 6.3 33 17.6 44.4a63.7 63.7 0 0 0 46 18.3h14.7c24.8 0 38.4-12 49.4-21.7 11.3-10 21-18.8 47.2-18.8a75.1 75.1 0 0 1 11.9 1 89 89 0 0 0 5-17.5 2.7 2.7 0 0 0 0-.3 92.5 92.5 0 0 0-17-1.5c-60 0-56.8 40.5-96.5 40.5h-14.8a43.2 43.2 0 0 1-45.2-44.4V162c0-25 17.9-44.4 45.2-44.4h14.8c39.7 0 36.6 40.5 96.5 40.5a91.6 91.6 0 0 0 17-1.6v-.2a90.3 90.3 0 0 0-5-17.5"/></svg>