<svg xmlns="http://www.w3.org/2000/svg" xmlns:xlink="http://www.w3.org/1999/xlink" width="28.348" height="28.348" viewBox="0 0 7.5 7.5"><defs><radialGradient xlink:href="#a" id="b" cx="28.353" cy="74.416" fx="28.353" fy="74.416" r="5.191" gradientTransform="matrix(3.98105 0 0 1.89435 -14.722 -105.654)" gradientUnits="userSpaceOnUse"/><linearGradient id="a"><stop offset="0" stop-color="#c03131"/><stop offset="1" stop-color="#c03131" stop-opacity="0"/></linearGradient></defs><g transform="translate(-21.631 -5.622) scale(.26458)" fill-rule="evenodd" paint-order="markers fill stroke"><path d="M97.986 21.951a16.328 13.471 0 0 0-16.23 13.47 16.328 13.471 0 0 0 16.328 13.472 16.328 13.471 0 0 0 .121 0h.002l3.108-5.9a8.708 8.152 0 0 1-3.231.581 8.708 8.152 0 0 1-8.709-8.152 8.708 8.152 0 0 1 8.709-8.152 8.708 8.152 0 0 1 8.38 5.945l3.64-6.908a16.328 13.471 0 0 0-12.02-4.356 16.328 13.471 0 0 0-.098 0z"/><ellipse cx="98.081" cy="35.433" rx="5.191" ry="4.763" fill="url(#b)"/></g></svg>