<svg xmlns="http://www.w3.org/2000/svg" width="54.207" height="54.207"  xmlns:v="https://vecta.io/nano"><path d="M52.302 13.573a7.49 7.49 0 0 0-3.67-1.8 51 51 0 0 0-9.25-.54h-7.07v31.63h11.91a29.78 29.78 0 0 0 5.07-.32 7.11 7.11 0 0 0 2.83-1.14 4.24 4.24 0 0 0 1.6-2.24 22.39 22.39 0 0 0 .46-5.7v-11.08a36.93 36.93 0 0 0-.31-6 5.48 5.48 0 0 0-1.57-2.81zm-7.56 19.29c0 2.11-.16 3.4-.47 3.88s-1.15.71-2.52.71v-20.81a5.24 5.24 0 0 1 2.11.28 1.31 1.31 0 0 1 .72.89 13.85 13.85 0 0 1 .16 2.76zm-14.885-11.22a2.49 2.49 0 0 0-1.06-.86 3.69 3.69 0 0 0-1.48-.28 3.58 3.58 0 0 0-1.52.3 2.46 2.46 0 0 0-1 .87 2.64 2.64 0 0 0-.46 1.24l-.07 2.33v1.86l.07 2.35a2.86 2.86 0 0 0 .48 1.25 2.46 2.46 0 0 0 1.06.85 3.69 3.69 0 0 0 1.48.29 3.58 3.58 0 0 0 1.52-.3 2.41 2.41 0 0 0 1-.87 2.67 2.67 0 0 0 .46-1.25l.07-2.32v-1.84l-.07-2.36a2.6 2.6 0 0 0-.48-1.26zm-2.12 6.89a5.57 5.57 0 0 1-.08 1.21.33.33 0 0 1-.35.26.33.33 0 0 1-.34-.22 6.07 6.07 0 0 1-.11-1.14v-5.1a2.67 2.67 0 0 1 .11-1 .37.37 0 0 1 .32-.17.31.31 0 0 1 .33.21 3.7 3.7 0 0 1 .08 1zm-9.855-16.49a15 15 0 0 0-6.85-1.4 15 15 0 0 0-5.44.91 8.84 8.84 0 0 0-3.7 2.48 6.69 6.69 0 0 0-1.6 3.29 35.43 35.43 0 0 0-.27 5.11v9.21a20.92 20.92 0 0 0 .87 7 6.72 6.72 0 0 0 3.57 3.61 15.65 15.65 0 0 0 6.84 1.31 13.53 13.53 0 0 0 6.71-1.54 7.44 7.44 0 0 0 3.51-3.63 21.2 21.2 0 0 0 .8-6.95v-1.23h-9.43v4a9.86 9.86 0 0 1-.33 3.3 1.35 1.35 0 0 1-1.38.71 1.39 1.39 0 0 1-1.41-.7 9 9 0 0 1-.31-3v-14.7a9.62 9.62 0 0 1 .31-3.12c.21-.48.7-.72 1.48-.72a1.38 1.38 0 0 1 1.34.59 8.74 8.74 0 0 1 .3 3v5.49h9.44v-3a18.31 18.31 0 0 0-.81-6.52 7.08 7.08 0 0 0-3.61-3.5z"/></svg>