<svg xmlns="http://www.w3.org/2000/svg" viewBox="0 0 128 128"><path fill="url(#prefix__a)" d="M99.5 0h-71A28.5 28.5 0 000 28.5v71A28.5 28.5 0 0028.5 128h71A28.5 28.5 0 00128 99.5v-71A28.5 28.5 0 0099.5 0z"/><path fill="#fff" d="M14.8 48.8a34 34 0 00-4.4 7.1 33 33 0 00-2.6 8.3c-2.2 16 7.5 18.5 9.1 18.9 8.5 1 14.8-3.7 17.8-6.5 1 5.3 6.3 5.4 8.7 3a8 8 0 001.4-2.2c1.4 5 5.8 3.3 6.4 3.1 2.4-1 5-4.4 6.8-7.3 1.2 4 3.4 8.2 7.7 7.8 2.6 0 9.1-7 9.7-6 .6.7.8 2 .8 4 0 2.1 1.5 2.2 2.3 2 1.1-.3 1.8-2.5 3-4.5 1-1.5 1.6-2.4 2.6-3.4.4-.5 2.5-2.7 4-2 1.5.8 1.7 2.3 1.8 3.2L90 77c0 3.4 1.6 3.9 2 4 3.7 1 4-6 6.6-8.5.3-.3 2.6-2.7 4 1.3 2 7.2 8 9.8 16 5.8 1.5-.7 1.8-1 2.6-1.6a.8.8 0 00.3-.6.8.8 0 00-1.2-.7l-4.4 1.7c-3.3.5-7.2.4-9.2-4.4-.6-1.4-1.2-2.7-2.2-4-1.1-1.6-4.9-3.4-8.4-.1a12.8 12.8 0 00-2.8 3.8v-.2c-.3-1-1.3-5-5.4-5.6-.6 0-2.9-.3-6 3.2a30 30 0 00-3 3.7 6 6 0 00-.4-1.6c-2.7-4.1-6.8-.8-8.6.4-3.9 2.8-5.7 6.5-8.1-2a35.4 35.4 0 01-.7-3.6c2.3-4 7.2-16.4 4.4-24.7-.2-.5-1.1-3.2-3.5-3-.3 0-3-.2-4.4 7.2-1.4 7.2-1 16.5-.8 19.5l.3 1.8c-2.3 4-5.3 8.4-7.2 8.6-2.4.3-1.7-1.9-3.2-6.8-.2-.6-1-3.7-4.6-3.5-1.8 0-3.7.5-6.3 3.3C31.7 75 22.2 82 15.4 77.5c-.8-.5-4.4-3.5-3-12.5a29 29 0 012.1-7.2 31.8 31.8 0 013.7-6.3c7-8.6 13-9.6 14.2-9.5 3.1 0 3.9 4 3.9 3.9a1.3 1.3 0 102.5-.3s0-1.3-.5-2.5c-.5-1.5-1.9-3-2.7-3.5-1-.7-2.3-1-3.8-1-4.4 0-10.8 3-17 10.2zm45.7 12.5c0-14 1.7-17.2 1.9-17 .6 1.3 2.1 9.2-1.9 17.8v-.8zM37.5 75c0-3.7 4.6-6 5.9-3.4l.2.7c-.2.6-.3 1.7-1 3.2-.8 1.6-2 2.4-3 2.4-1.2 0-2.2-1-2.1-2.9z"/><defs><linearGradient id="prefix__a" x1="0" x2="0" y1="0" y2="128" gradientUnits="userSpaceOnUse"><stop stop-color="#60B4E7"/><stop offset="1" stop-color="#6461E0"/></linearGradient></defs></svg>