<svg xmlns="http://www.w3.org/2000/svg" fill="#104735" viewBox="0 0 109.24 135.69"><path fill="#fff" d="M4 9c-.02 20.6-.3 35.4 0 56a59.37 59.37 0 0 0 6 26.77C20.74 110.67 53.73 130 53.73 130S90.96 108.39 100 91.31c4.15-8.08 5-26.31 5-26.31V9"/><path d="M52.21 0c-5.53 0-11 .24-16.3.49h-.96c-2 .1-3.91.21-5.79.33h-.99C12.17 1.82 0 3.35 0 3.35v14.43l.17 11.36v1.07l.09 5.73v1l.42 28.2A59 59 0 0 0 6.9 91.77c11.13 22.68 34.11 37 43 41.92l3.81 2 3.62-2c9.27-4.94 33.25-19.45 44.77-42.38a57.58 57.58 0 0 0 6.37-26.1L109 29.7l.25-13.23V3.4s-13-1.7-30.2-2.72h-.8A422.3 422.3 0 0 0 59.75 0Zm3.4 9.03h1.94l.72 1.85.66 1.79h.05c.22-.62.46-1.17.68-1.77l.7-1.84h1.91c-.8 1.74-1.6 3.46-2.41 5.17v2.87h-1.82l-.01-2.89zm-6.93.04h2.76c1.67 0 3 .45 3 2 .02.74-.4 1.42-1.06 1.74v.05c.88.19 1.5.99 1.45 1.89 0 1.63-1.38 2.36-3.13 2.38h-3zm-5.65.12v8l-1.87.06-2.1-3.94-.79-1.72h-.05c.08.89.23 2 .23 2.9v2.86l-1.68.12v-8l1.86-.08 2.1 3.92.8 1.74c-.1-.85-.24-2-.24-2.9v-2.9zm23.56 0 2.27.08c2.46.09 4 1.39 4 4.15 0 2.76-1.59 4-3.94 3.9l-2.38-.08.05-8.04Zm11.55.34c2.16.12 3.66 1.74 3.66 4.36s-1.49 4.1-3.66 4c-2.17-.1-3.65-1.77-3.65-4.42 0-2.62 1.5-4.06 3.65-3.94zm-45.77.14c1.42.06 2.49.67 2.49 2.34 0 1.24-.6 2-1.47 2.42l1.8 3.1-2 .1-1.53-2.8-.98.05v2.89l-1.82.11V9.85l2.89-.18h.63zm51.31.38 1.82.14v8l-1.82-.13v-8zm-58.97.08L27.23 18l-1.92.13-.5-1.88-2.44.18-.5 1.94-1.85.15 2.52-8.24v.02l2.17-.16zm63.5.27 1.86.16c.67 1.4 1.36 2.79 2.09 4.18l.8 1.84h.05c-.09-.85-.24-2-.24-2.94V10.8l1.73.16v8l-1.86-.18c-.67-1.4-1.36-2.8-2.09-4.19l-.79-1.83h-.05c.08.89.23 2 .23 2.93v2.85l-1.73-.07Zm-37.71.07v1.8h.85v-.03c.89 0 1.28-.38 1.28-1s-.42-.77-1.26-.77zm-32.02.16v1.52l-3.21.3v1.61l2.73-.25v1.52l-2.73.26v1.88l3.33-.31v1.52c-1.71.15-3.43.32-5.15.49l.03-8.07zm49.93.1v5.11h.34c1.37.05 2.29-.58 2.29-2.5s-.92-2.56-2.29-2.61zm-36.81.35-.93.05v2.34l.93-.06v-.05c.95-.05 1.47-.48 1.47-1.28s-.52-1-1.47-1zm46.54.04c-1.1-.06-1.78.85-1.78 2.46 0 1.61.7 2.67 1.78 2.74 1.1.07 1.79-.92 1.79-2.53 0-1.61-.69-2.61-1.79-2.67zm21.35.3a3.93 3.93 0 0 1 3.31 1.33l-1 1.06a2.28 2.28 0 0 0-1.51-.81c-1.23-.14-2.11.74-2.11 2.35s.75 2.7 2.25 2.86c.3.05.6 0 .85-.15v-1.38c-.44-.06-.88-.1-1.33-.15v-1.5l2.94.35v3.7a3.5 3.5 0 0 1-2.64.67 4.27 4.27 0 0 1-3.93-4.54h.04c0-2.33 1.36-3.64 3.13-3.8zm-75.93.15c-.2.86-.41 1.82-.63 2.64l-.2.78 1.73-.13-.2-.74c-.22-.8-.44-1.72-.65-2.55Zm-15.29.09v6.52l3.17-.35v1.52c-1.66.18-3.32.36-5 .56l.02-8.04zm42.25 1.92v2.08h1v.02c1 0 1.5-.36 1.5-1.1 0-.74-.5-1-1.5-1zm4.77 12.69c2.67 0 5.33 0 8 .09l-8.36 14.38.42.24.41.24.68.46.38.28.35.27.25-.33 13-15.33c5.15.21 10.08.5 14.6.82L59.86 44.98l.28.39.26.39.22.34.21.36.23.42.22.42 35.5-18.9c2 .17 3.78.36 5.36.52l.62.07.68 22.06-.04.01-.08-.06-.28-.17-.07-.05c-.37-.39-1.03-.8-2.23-1.77l-4.37-3.73-3.12-2.73c-.32-.29-.89-.8-1.38-1.1-.2-.2-.43-.36-.67-.49l-1.9.69-.48.17L85.56 43l-16.02 5.81-3.95 1.43-.56.21-.68.25a3.5 3.5 0 0 1-.65.09l-1.32-.32-5-1.15-.7-.16-.7-.17h-.24l-.63-.15-.62-.14-1.83-.42-.51-.12-.87-.2-.42-.14-1.15-.27-.5-.08-.77-.18-.47-.1-.29-.07-.83.43-.43.23-.67.35-.43.22-.88.46-.43.23-.68.36-.44.23-1.21.63-.52.21-.94.5h-7.04c-11.68 0-25.21.74-27.51.89l.48-12.73 27.5 10.1.15-.46.17-.45.33-.75.21-.43.22-.42L6.39 32.3l.12-3.18c3.36-.35 7.89-.81 13.23-1.25l17.2 15.77.34-.35.35-.33.61-.54.38-.3.38-.28-11.4-14.56c2.69-.18 5.52-.35 8.44-.5L42.32 40l.44-.16.45-.16.79-.23.46-.12.47-.09-3-12.71 2.28-.05c1.87 0 3.75-.1 5.64-.13l-1.14 12.63h.47l.48.05c.27 0 .54.08.81.12l.47.1.46.1 3.89-13.07zm33.18 19.91c-3.15 2.1-6.51 4.44-9.36 6.11-2.09-.12-4.17-.3-6.25-.45 5.22-1.84 10.41-3.76 15.61-5.65zM52.5 57.81c3.4 0 6.66.08 9.75.23 1.1.05 2.15.12 3.21.18l6.8.56c.86.09 1.73.17 2.56.27a150.56 150.56 0 0 1 8.33 1.22c1.66.28 3.3.59 4.95.92l1.03.21c2.29.5 4.57 1.04 6.83 1.64l.6.17 5.85 1.86.56.2.27.12c.04 1.29 0 2.58-.13 3.86h.03a58.88 58.88 0 0 1-5.91 20.52 62.57 62.57 0 0 1-11.87 16.35C68.5 123 53.6 126.9 53.6 126.9s-13.9-4.36-30.15-20.59a64.57 64.57 0 0 1-12-16.32 58.65 58.65 0 0 1-5.81-18.52 33.23 33.23 0 0 1-.33-5.21l.33-.18A58.36 58.36 0 0 1 16.85 62a115.81 115.81 0 0 1 16.89-3.19c6.23-.7 12.5-1.03 18.76-1zm-22.37 6.56-.33 10.5a5.42 5.42 0 0 0 .87 3.6l.24.3c.85 1.1 2 1.93 3.29 2.41 2.14.78 4.38 1.25 6.66 1.39l1.59.08-1.4.77-.21.1a8.8 8.8 0 0 1-3.58.56 22.56 22.56 0 0 1-4.35-.6c.27.3.61.64 1 1l.27.25a10.09 10.09 0 0 0 5.68 2.63c2.13.4 6.12 1 6.15 1l1.38.2-1.11.58-.12.06a8.2 8.2 0 0 1-3.85.66c-1.35-.04-2.7-.24-4-.57l.75.82.29.31a9.64 9.64 0 0 0 4.43 2.3c2 .53 4.02.92 6.07 1.16l1.44.15-.85.46-.42.23c-1.3.6-2.72.82-4.13.67a15 15 0 0 1-2.25-.32l-10 9.37 3.34 3.55 10.2-9.58a20.15 20.15 0 0 0 8.14 2.26l4.41.15 7.48 7.77h3.92l-16.15-17.5 7.09-6.62 1-.93.24-.23.19-.17 5.29 5.69 2.68.08 5.89-5.23.07-2.51-.19-.26-5.31-5.74 3.12-2.94-3.33-3.56-2 1.86.29 2.88-7.06-7.54-2.67-.1-5.9 5.25-.07 2.5L60 79.7l-.3.27-1.07 1-6.88 6.61L31.6 65.84Z"/></svg>