<svg xmlns="http://www.w3.org/2000/svg" width="295.635" height="295.635"><path d="M258.864 229.265c-7.084 4.037-13.355 9.539-20.48 13.624-13.674 7.839-28.807 12.343-44.48 13.842-13.75 1.315-27.922-1.253-40.96-5.6-12.84-4.279-24.81-10.858-35.2-19.547-11.473-9.594-21.057-21.566-27.754-34.959-20.532-41.066-11.386-92.378 21.034-124.8 7.637-7.638 15.776-14.398 25.28-19.618a101.249 101.249 0 0139.04-12.007c18.245-1.74 36.58 1.646 53.44 8.72 6.6 2.77 12.448 6.779 18.88 9.785 0-11.103-.64-22.184-.64-33.28 0-3.12-.079-6.175-.291-9.28-.074-1.082.301-2.738-.358-3.677-1.038-1.479-5.036-2.164-6.71-2.723-6.138-2.047-12.283-3.913-18.56-5.48-28.729-7.173-60.662-5.226-88.32 5.296-54.066 20.566-95.304 76.43-96 134.904-.211 17.767 1.83 35.552 7.473 52.48 11.933 35.801 38.925 65.734 72.846 82.157 32.888 15.923 70.329 21.1 105.92 12.202 8.115-2.03 16.005-4.877 23.68-8.19 2.056-.886 6.763-2.137 7.991-4.054.775-1.21.613-3.6.654-4.995.087-2.977.459-5.985.664-8.96.823-11.953 1.908-23.895 2.851-35.84m-77.12-163.84c4.377 16.917-4.19 30.744-13.021 44.48-5.086 7.91-11.298 16.785-11.299 26.56h-.32c-5.704-20.25 14.707-37.157 14.72-57.28h-.32c-7.294 21.422-34.138 35.662-31.131 60.8.38 3.187.828 6.233 1.913 9.28 1.51 4.243 3.753 8.252 6.465 11.84 3.83 5.067 8.532 9.417 13.473 13.376 3.988 3.195 8.2 6.033 12.48 8.814 2.144 1.393 4.488 3.27 7.04 3.73-1.433-6.047-3.288-11.228-2.851-17.6.993-14.502 8.552-26.716 12.763-40.32 3.415-11.033 3.83-22.91 1.954-34.24-1.26-7.603-3.86-14.729-6.93-21.76-1.06-2.428-2.494-6.431-4.936-7.68m14.4 15.04c1.402 4.903 3.813 9.341 4.908 14.4 2.618 12.09 1.23 25.248-3.005 36.8-5.025 13.706-14.451 26.155-16.036 40.96-.474 4.427-.751 10.22 1.013 14.4 5.509-1.506 11.243-5.005 16-8.11 4.853-3.168 9.49-6.777 13.386-11.09 15.934-17.641 10.36-39.821 1.79-59.52-3.218-7.396-7.412-14.486-11.984-21.12-1.53-2.219-3.353-5.95-6.072-6.72m-24.32 155.2h20.8c0-4.808-.638-9.598-.64-14.4 0-1.22-.61-3.977.434-4.82 1.025-.826 3.107-.846 4.366-1.124a89.73 89.73 0 009.28-2.59c9.69-3.258 19.378-7.41 28.16-12.65 3.306-1.973 10.966-5.273 11.2-9.536H125.744c-1.144 0-6.846-.682-6.8 1.003.036 1.27 1.736 2.204 2.64 2.83a124.918 124.918 0 008.96 5.632c9.393 5.385 19.335 9.034 29.44 12.8 3.34 1.244 9.314 1.468 12.054 3.635 1.093.865.426 3.563.426 4.82 0 4.803-.64 9.593-.64 14.4z" fill="#ff6d1d"/></svg>