<svg id="svg2" xmlns="http://www.w3.org/2000/svg" viewBox="0 0 1181 1483.5" enable-background="new 0 0 1181 1483.5" width="1990" height="2500"><style>.st0{fill:#ee3c35;stroke:#000;stroke-width:20}.st1{fill:#fff}.st2,.st3{stroke:#000;stroke-width:3.7;stroke-linejoin:round}.st3{fill:#fbed24;stroke-width:5.5}.st4,.st5,.st6,.st7{fill:none;stroke:#000;stroke-width:2.4}.st5,.st6,.st7{stroke-linecap:round}.st6,.st7{stroke-width:3.6}.st7{stroke-width:2.4;stroke-linejoin:round}.st8{filter:url(#filter6113)}.st9{stroke:#000;stroke-width:14}.st10,.st11{stroke:#000;stroke-width:6}.st11{stroke-width:8}.st12,.st13{fill:#ee3c35;stroke:#000;stroke-width:14}.st13{fill:#f9ed23;stroke-width:8}.st14,.st15{fill:none;stroke:#000;stroke-width:9.5}.st15{stroke-width:10}.st16{filter:url(#filter5402)}.st17,.st18{fill:none;stroke:#000;stroke-width:22;stroke-linecap:round;stroke-linejoin:round}.st18{stroke:#f6eb14;stroke-width:11}.st19{filter:url(#filter6185)}.st20{fill:none;stroke:#f6eb14;stroke-width:22;stroke-linecap:round}.st21{filter:url(#filter6189)}.st22{filter:url(#filter6197)}.st23{filter:url(#filter5386)}.st24,.st25{fill:none;stroke:#000;stroke-width:20}.st25{stroke:#f6eb14;stroke-width:8}.st26{fill:#f6eb14}.st27{filter:url(#filter5442)}.st28{fill:none;stroke:#000}.st29{filter:url(#filter5436)}.st30{fill:none;stroke:#fff;stroke-width:4}.st31{filter:url(#filter5456)}.st32,.st33{fill:none;stroke:#fff}.st33{stroke:#000;stroke-width:6}.st34{filter:url(#filter5448)}.st35{filter:url(#filter5554)}.st36{filter:url(#filter5560)}.st37{filter:url(#filter5566)}.st38{filter:url(#filter5572)}.st39{filter:url(#filter5586)}.st40{filter:url(#filter5592)}.st41{filter:url(#filter5598)}.st42{filter:url(#filter5608)}.st43{filter:url(#filter5624)}.st44{filter:url(#filter5630)}.st45{filter:url(#filter5636)}.st46{filter:url(#filter5642)}</style><filter id="filter6197"><feGaussianBlur id="feGaussianBlur6199" stdDeviation=".728"/></filter><filter id="filter6189"><feGaussianBlur id="feGaussianBlur6191" stdDeviation=".728"/></filter><filter id="filter6185"><feGaussianBlur id="feGaussianBlur6187" stdDeviation=".728"/></filter><filter id="filter6113"><feGaussianBlur id="feGaussianBlur6115" stdDeviation="7.664"/></filter><filter id="filter5642"><feGaussianBlur id="feGaussianBlur5644" stdDeviation=".98"/></filter><filter id="filter5636"><feGaussianBlur id="feGaussianBlur5638" stdDeviation="1.64"/></filter><filter id="filter5630"><feGaussianBlur id="feGaussianBlur5632" stdDeviation="1.66"/></filter><filter id="filter5624"><feGaussianBlur id="feGaussianBlur5626" stdDeviation=".98"/></filter><filter height="1.138" id="filter5608" width="1.315" x="-.157" y="-.069"><feGaussianBlur id="feGaussianBlur5610" stdDeviation="1.18"/></filter><filter height="1.227" id="filter5598" width="1.166" x="-.083" y="-.114"><feGaussianBlur id="feGaussianBlur5600" stdDeviation=".9"/></filter><filter height="1.111" id="filter5592" width="1.72" x="-.36" y="-.055"><feGaussianBlur id="feGaussianBlur5594" stdDeviation=".6"/></filter><filter height="1.436" id="filter5586" width="1.123" x="-.062" y="-.218"><feGaussianBlur id="feGaussianBlur5588" stdDeviation="1"/></filter><filter height="1.274" id="filter5572" width="1.148" x="-.074" y="-.137"><feGaussianBlur id="feGaussianBlur5574" stdDeviation="1.6"/></filter><filter height="1.16" id="filter5566" width="1.24" x="-.12" y="-.08"><feGaussianBlur id="feGaussianBlur5568" stdDeviation="1.4"/></filter><filter height="1.419" id="filter5560" width="1.125" x="-.062" y="-.209"><feGaussianBlur id="feGaussianBlur5562" stdDeviation=".96"/></filter><filter height="1.146" id="filter5554" width="1.282" x="-.141" y="-.073"><feGaussianBlur id="feGaussianBlur5556" stdDeviation=".88"/></filter><filter height="1.229" id="filter5456" width="1.165" x="-.083" y="-.114"><feGaussianBlur id="feGaussianBlur5458" stdDeviation="1.24"/></filter><filter height="1.217" id="filter5448" width="1.172" x="-.086" y="-.109"><feGaussianBlur id="feGaussianBlur5450" stdDeviation="1.9"/></filter><filter height="1.228" id="filter5442" width="1.166" x="-.083" y="-.114"><feGaussianBlur id="feGaussianBlur5444" stdDeviation="1.28"/></filter><filter height="1.212" id="filter5436" width="1.175" x="-.088" y="-.106"><feGaussianBlur id="feGaussianBlur5438" stdDeviation="2.12"/></filter><filter height="1.279" id="filter5402" width="1.176" x="-.088" y="-.14"><feGaussianBlur id="feGaussianBlur5404" stdDeviation="3.375"/></filter><filter id="filter5386"><feGaussianBlur id="feGaussianBlur5388" stdDeviation="5.28"/></filter><g id="layer2"><path id="path2399" class="st0" d="M10 10v824c0 240 140 380 240 440 140 81 145 85 340 198 195-112 200-116 340-198 115-70 240-205 241-440V10H10z"/></g><g id="layer3"><path id="path3172" class="st1" d="M467 20v457H20v285h447v627l123 72 124-72V762h447V477H714V20H467z"/></g><g id="layer4"><g id="g3183"><path id="path3175" d="M73 537.5c0 3-2.9 5.5-6.5 5.5s-6.5-2.5-6.5-5.5 2.9-5.5 6.5-5.5 6.5 2.5 6.5 5.5z"/><path id="path3177" d="M90 520.5c0 3.6-3.1 6.5-7 6.5s-7-2.9-7-6.5 3.1-6.5 7-6.5 7 2.9 7 6.5z"/><path id="path3179" d="M105 537.5c0 3-2.7 5.5-6 5.5s-6-2.5-6-5.5 2.7-5.5 6-5.5 6 2.5 6 5.5z"/><path id="path3181" class="st2" d="M58 614c11-16 23-51 25-78 3 27 11 62 22 78-6-5-9-9-15-16-7 11-3 17-8 23-5-6 0-12-7-23-5.7 5-10 10-17 16z"/></g><g id="g3189" transform="translate(145 -.5)"><path id="path3191" d="M73 537.5c0 3-2.9 5.5-6.5 5.5s-6.5-2.5-6.5-5.5 2.9-5.5 6.5-5.5 6.5 2.5 6.5 5.5z"/><path id="path3193" d="M90 520.5c0 3.6-3.1 6.5-7 6.5s-7-2.9-7-6.5 3.1-6.5 7-6.5 7 2.9 7 6.5z"/><path id="path3195" d="M105 537.5c0 3-2.7 5.5-6 5.5s-6-2.5-6-5.5 2.7-5.5 6-5.5 6 2.5 6 5.5z"/><path id="path3197" class="st2" d="M58 614c11-16 23-51 25-78 3 27 11 62 22 78-6-5-9-9-15-16-7 11-3 17-8 23-5-6 0-12-7-23-5.7 5-10 10-17 16z"/></g><g id="g3199" transform="translate(73 116)"><path id="path3201" d="M73 537.5c0 3-2.9 5.5-6.5 5.5s-6.5-2.5-6.5-5.5 2.9-5.5 6.5-5.5 6.5 2.5 6.5 5.5z"/><path id="path3203" d="M90 520.5c0 3.6-3.1 6.5-7 6.5s-7-2.9-7-6.5 3.1-6.5 7-6.5 7 2.9 7 6.5z"/><path id="path3205" d="M105 537.5c0 3-2.7 5.5-6 5.5s-6-2.5-6-5.5 2.7-5.5 6-5.5 6 2.5 6 5.5z"/><path id="path3207" class="st2" d="M58 614c11-16 23-51 25-78 3 27 11 62 22 78-6-5-9-9-15-16-7 11-3 17-8 23-5-6 0-12-7-23-5.7 5-10 10-17 16z"/></g><g id="g3209" transform="translate(218 116)"><path id="path3211" d="M73 537.5c0 3-2.9 5.5-6.5 5.5s-6.5-2.5-6.5-5.5 2.9-5.5 6.5-5.5 6.5 2.5 6.5 5.5z"/><path id="path3213" d="M90 520.5c0 3.6-3.1 6.5-7 6.5s-7-2.9-7-6.5 3.1-6.5 7-6.5 7 2.9 7 6.5z"/><path id="path3215" d="M105 537.5c0 3-2.7 5.5-6 5.5s-6-2.5-6-5.5 2.7-5.5 6-5.5 6 2.5 6 5.5z"/><path id="path3217" class="st2" d="M58 614c11-16 23-51 25-78 3 27 11 62 22 78-6-5-9-9-15-16-7 11-3 17-8 23-5-6 0-12-7-23-5.7 5-10 10-17 16z"/></g><g id="g3219" transform="translate(290 -.5)"><path id="path3221" d="M73 537.5c0 3-2.9 5.5-6.5 5.5s-6.5-2.5-6.5-5.5 2.9-5.5 6.5-5.5 6.5 2.5 6.5 5.5z"/><path id="path3223" d="M90 520.5c0 3.6-3.1 6.5-7 6.5s-7-2.9-7-6.5 3.1-6.5 7-6.5 7 2.9 7 6.5z"/><path id="path3225" d="M105 537.5c0 3-2.7 5.5-6 5.5s-6-2.5-6-5.5 2.7-5.5 6-5.5 6 2.5 6 5.5z"/><path id="path3227" class="st2" d="M58 614c11-16 23-51 25-78 3 27 11 62 22 78-6-5-9-9-15-16-7 11-3 17-8 23-5-6 0-12-7-23-5.7 5-10 10-17 16z"/></g><g id="g3229" transform="translate(447 -447.5)"><path id="path3231" d="M73 537.5c0 3-2.9 5.5-6.5 5.5s-6.5-2.5-6.5-5.5 2.9-5.5 6.5-5.5 6.5 2.5 6.5 5.5z"/><path id="path3233" d="M90 520.5c0 3.6-3.1 6.5-7 6.5s-7-2.9-7-6.5 3.1-6.5 7-6.5 7 2.9 7 6.5z"/><path id="path3235" d="M105 537.5c0 3-2.7 5.5-6 5.5s-6-2.5-6-5.5 2.7-5.5 6-5.5 6 2.5 6 5.5z"/><path id="path3237" class="st2" d="M58 614c11-16 23-51 25-78 3 27 11 62 22 78-6-5-9-9-15-16-7 11-3 17-8 23-5-6 0-12-7-23-5.7 5-10 10-17 16z"/></g><g id="g3239" transform="translate(569 -450)"><path id="path3241" d="M73 537.5c0 3-2.9 5.5-6.5 5.5s-6.5-2.5-6.5-5.5 2.9-5.5 6.5-5.5 6.5 2.5 6.5 5.5z"/><path id="path3243" d="M90 520.5c0 3.6-3.1 6.5-7 6.5s-7-2.9-7-6.5 3.1-6.5 7-6.5 7 2.9 7 6.5z"/><path id="path3245" d="M105 537.5c0 3-2.7 5.5-6 5.5s-6-2.5-6-5.5 2.7-5.5 6-5.5 6 2.5 6 5.5z"/><path id="path3247" class="st2" d="M58 614c11-16 23-51 25-78 3 27 11 62 22 78-6-5-9-9-15-16-7 11-3 17-8 23-5-6 0-12-7-23-5.7 5-10 10-17 16z"/></g><g id="g3249" transform="translate(507.5 -316)"><path id="path3251" d="M73 537.5c0 3-2.9 5.5-6.5 5.5s-6.5-2.5-6.5-5.5 2.9-5.5 6.5-5.5 6.5 2.5 6.5 5.5z"/><path id="path3253" d="M90 520.5c0 3.6-3.1 6.5-7 6.5s-7-2.9-7-6.5 3.1-6.5 7-6.5 7 2.9 7 6.5z"/><path id="path3255" d="M105 537.5c0 3-2.7 5.5-6 5.5s-6-2.5-6-5.5 2.7-5.5 6-5.5 6 2.5 6 5.5z"/><path id="path3257" class="st2" d="M58 614c11-16 23-51 25-78 3 27 11 62 22 78-6-5-9-9-15-16-7 11-3 17-8 23-5-6 0-12-7-23-5.7 5-10 10-17 16z"/></g><g id="g3259" transform="translate(447 -176)"><path id="path3261" d="M73 537.5c0 3-2.9 5.5-6.5 5.5s-6.5-2.5-6.5-5.5 2.9-5.5 6.5-5.5 6.5 2.5 6.5 5.5z"/><path id="path3263" d="M90 520.5c0 3.6-3.1 6.5-7 6.5s-7-2.9-7-6.5 3.1-6.5 7-6.5 7 2.9 7 6.5z"/><path id="path3265" d="M105 537.5c0 3-2.7 5.5-6 5.5s-6-2.5-6-5.5 2.7-5.5 6-5.5 6 2.5 6 5.5z"/><path id="path3267" class="st2" d="M58 614c11-16 23-51 25-78 3 27 11 62 22 78-6-5-9-9-15-16-7 11-3 17-8 23-5-6 0-12-7-23-5.7 5-10 10-17 16z"/></g><g id="g3269" transform="translate(569 -176)"><path id="path3271" d="M73 537.5c0 3-2.9 5.5-6.5 5.5s-6.5-2.5-6.5-5.5 2.9-5.5 6.5-5.5 6.5 2.5 6.5 5.5z"/><path id="path3273" d="M90 520.5c0 3.6-3.1 6.5-7 6.5s-7-2.9-7-6.5 3.1-6.5 7-6.5 7 2.9 7 6.5z"/><path id="path3275" d="M105 537.5c0 3-2.7 5.5-6 5.5s-6-2.5-6-5.5 2.7-5.5 6-5.5 6 2.5 6 5.5z"/><path id="path3277" class="st2" d="M58 614c11-16 23-51 25-78 3 27 11 62 22 78-6-5-9-9-15-16-7 11-3 17-8 23-5-6 0-12-7-23-5.7 5-10 10-17 16z"/></g><g id="g3279" transform="translate(730 -1.5)"><path id="path3281" d="M73 537.5c0 3-2.9 5.5-6.5 5.5s-6.5-2.5-6.5-5.5 2.9-5.5 6.5-5.5 6.5 2.5 6.5 5.5z"/><path id="path3283" d="M90 520.5c0 3.6-3.1 6.5-7 6.5s-7-2.9-7-6.5 3.1-6.5 7-6.5 7 2.9 7 6.5z"/><path id="path3285" d="M105 537.5c0 3-2.7 5.5-6 5.5s-6-2.5-6-5.5 2.7-5.5 6-5.5 6 2.5 6 5.5z"/><path id="path3287" class="st2" d="M58 614c11-16 23-51 25-78 3 27 11 62 22 78-6-5-9-9-15-16-7 11-3 17-8 23-5-6 0-12-7-23-5.7 5-10 10-17 16z"/></g><g id="g3289" transform="translate(874.5 -2)"><path id="path3291" d="M73 537.5c0 3-2.9 5.5-6.5 5.5s-6.5-2.5-6.5-5.5 2.9-5.5 6.5-5.5 6.5 2.5 6.5 5.5z"/><path id="path3293" d="M90 520.5c0 3.6-3.1 6.5-7 6.5s-7-2.9-7-6.5 3.1-6.5 7-6.5 7 2.9 7 6.5z"/><path id="path3295" d="M105 537.5c0 3-2.7 5.5-6 5.5s-6-2.5-6-5.5 2.7-5.5 6-5.5 6 2.5 6 5.5z"/><path id="path3297" class="st2" d="M58 614c11-16 23-51 25-78 3 27 11 62 22 78-6-5-9-9-15-16-7 11-3 17-8 23-5-6 0-12-7-23-5.7 5-10 10-17 16z"/></g><g id="g3299" transform="translate(802.5 115)"><path id="path3301" d="M73 537.5c0 3-2.9 5.5-6.5 5.5s-6.5-2.5-6.5-5.5 2.9-5.5 6.5-5.5 6.5 2.5 6.5 5.5z"/><path id="path3303" d="M90 520.5c0 3.6-3.1 6.5-7 6.5s-7-2.9-7-6.5 3.1-6.5 7-6.5 7 2.9 7 6.5z"/><path id="path3305" d="M105 537.5c0 3-2.7 5.5-6 5.5s-6-2.5-6-5.5 2.7-5.5 6-5.5 6 2.5 6 5.5z"/><path id="path3307" class="st2" d="M58 614c11-16 23-51 25-78 3 27 11 62 22 78-6-5-9-9-15-16-7 11-3 17-8 23-5-6 0-12-7-23-5.7 5-10 10-17 16z"/></g><g id="g3309" transform="translate(947.5 115)"><path id="path3311" d="M73 537.5c0 3-2.9 5.5-6.5 5.5s-6.5-2.5-6.5-5.5 2.9-5.5 6.5-5.5 6.5 2.5 6.5 5.5z"/><path id="path3313" d="M90 520.5c0 3.6-3.1 6.5-7 6.5s-7-2.9-7-6.5 3.1-6.5 7-6.5 7 2.9 7 6.5z"/><path id="path3315" d="M105 537.5c0 3-2.7 5.5-6 5.5s-6-2.5-6-5.5 2.7-5.5 6-5.5 6 2.5 6 5.5z"/><path id="path3317" class="st2" d="M58 614c11-16 23-51 25-78 3 27 11 62 22 78-6-5-9-9-15-16-7 11-3 17-8 23-5-6 0-12-7-23-5.7 5-10 10-17 16z"/></g><g id="g3319" transform="translate(1019.5 -2)"><path id="path3321" d="M73 537.5c0 3-2.9 5.5-6.5 5.5s-6.5-2.5-6.5-5.5 2.9-5.5 6.5-5.5 6.5 2.5 6.5 5.5z"/><path id="path3323" d="M90 520.5c0 3.6-3.1 6.5-7 6.5s-7-2.9-7-6.5 3.1-6.5 7-6.5 7 2.9 7 6.5z"/><path id="path3325" d="M105 537.5c0 3-2.7 5.5-6 5.5s-6-2.5-6-5.5 2.7-5.5 6-5.5 6 2.5 6 5.5z"/><path id="path3327" class="st2" d="M58 614c11-16 23-51 25-78 3 27 11 62 22 78-6-5-9-9-15-16-7 11-3 17-8 23-5-6 0-12-7-23-5.7 5-10 10-17 16z"/></g><g id="g3329" transform="translate(571 719.5)"><path id="path3331" d="M73 537.5c0 3-2.9 5.5-6.5 5.5s-6.5-2.5-6.5-5.5 2.9-5.5 6.5-5.5 6.5 2.5 6.5 5.5z"/><path id="path3333" d="M90 520.5c0 3.6-3.1 6.5-7 6.5s-7-2.9-7-6.5 3.1-6.5 7-6.5 7 2.9 7 6.5z"/><path id="path3335" d="M105 537.5c0 3-2.7 5.5-6 5.5s-6-2.5-6-5.5 2.7-5.5 6-5.5 6 2.5 6 5.5z"/><path id="path3337" class="st2" d="M58 614c11-16 23-51 25-78 3 27 11 62 22 78-6-5-9-9-15-16-7 11-3 17-8 23-5-6 0-12-7-23-5.7 5-10 10-17 16z"/></g><g id="g3339" transform="translate(447.5 719)"><path id="path3341" d="M73 537.5c0 3-2.9 5.5-6.5 5.5s-6.5-2.5-6.5-5.5 2.9-5.5 6.5-5.5 6.5 2.5 6.5 5.5z"/><path id="path3343" d="M90 520.5c0 3.6-3.1 6.5-7 6.5s-7-2.9-7-6.5 3.1-6.5 7-6.5 7 2.9 7 6.5z"/><path id="path3345" d="M105 537.5c0 3-2.7 5.5-6 5.5s-6-2.5-6-5.5 2.7-5.5 6-5.5 6 2.5 6 5.5z"/><path id="path3347" class="st2" d="M58 614c11-16 23-51 25-78 3 27 11 62 22 78-6-5-9-9-15-16-7 11-3 17-8 23-5-6 0-12-7-23-5.7 5-10 10-17 16z"/></g><g id="g3349" transform="translate(508 566)"><path id="path3351" d="M73 537.5c0 3-2.9 5.5-6.5 5.5s-6.5-2.5-6.5-5.5 2.9-5.5 6.5-5.5 6.5 2.5 6.5 5.5z"/><path id="path3353" d="M90 520.5c0 3.6-3.1 6.5-7 6.5s-7-2.9-7-6.5 3.1-6.5 7-6.5 7 2.9 7 6.5z"/><path id="path3355" d="M105 537.5c0 3-2.7 5.5-6 5.5s-6-2.5-6-5.5 2.7-5.5 6-5.5 6 2.5 6 5.5z"/><path id="path3357" class="st2" d="M58 614c11-16 23-51 25-78 3 27 11 62 22 78-6-5-9-9-15-16-7 11-3 17-8 23-5-6 0-12-7-23-5.7 5-10 10-17 16z"/></g><g id="g3359" transform="translate(446.5 449)"><path id="path3361" d="M73 537.5c0 3-2.9 5.5-6.5 5.5s-6.5-2.5-6.5-5.5 2.9-5.5 6.5-5.5 6.5 2.5 6.5 5.5z"/><path id="path3363" d="M90 520.5c0 3.6-3.1 6.5-7 6.5s-7-2.9-7-6.5 3.1-6.5 7-6.5 7 2.9 7 6.5z"/><path id="path3365" d="M105 537.5c0 3-2.7 5.5-6 5.5s-6-2.5-6-5.5 2.7-5.5 6-5.5 6 2.5 6 5.5z"/><path id="path3367" class="st2" d="M58 614c11-16 23-51 25-78 3 27 11 62 22 78-6-5-9-9-15-16-7 11-3 17-8 23-5-6 0-12-7-23-5.7 5-10 10-17 16z"/></g><g id="g3369" transform="translate(570.5 446)"><path id="path3371" d="M73 537.5c0 3-2.9 5.5-6.5 5.5s-6.5-2.5-6.5-5.5 2.9-5.5 6.5-5.5 6.5 2.5 6.5 5.5z"/><path id="path3373" d="M90 520.5c0 3.6-3.1 6.5-7 6.5s-7-2.9-7-6.5 3.1-6.5 7-6.5 7 2.9 7 6.5z"/><path id="path3375" d="M105 537.5c0 3-2.7 5.5-6 5.5s-6-2.5-6-5.5 2.7-5.5 6-5.5 6 2.5 6 5.5z"/><path id="path3377" class="st2" d="M58 614c11-16 23-51 25-78 3 27 11 62 22 78-6-5-9-9-15-16-7 11-3 17-8 23-5-6 0-12-7-23-5.7 5-10 10-17 16z"/></g><g id="g3379" transform="translate(510 313)"><path id="path3381" d="M73 537.5c0 3-2.9 5.5-6.5 5.5s-6.5-2.5-6.5-5.5 2.9-5.5 6.5-5.5 6.5 2.5 6.5 5.5z"/><path id="path3383" d="M90 520.5c0 3.6-3.1 6.5-7 6.5s-7-2.9-7-6.5 3.1-6.5 7-6.5 7 2.9 7 6.5z"/><path id="path3385" d="M105 537.5c0 3-2.7 5.5-6 5.5s-6-2.5-6-5.5 2.7-5.5 6-5.5 6 2.5 6 5.5z"/><path id="path3387" class="st2" d="M58 614c11-16 23-51 25-78 3 27 11 62 22 78-6-5-9-9-15-16-7 11-3 17-8 23-5-6 0-12-7-23-5.7 5-10 10-17 16z"/></g></g><g id="layer5"><g id="g3794"><path id="path3390" class="st3" d="M144 144c-4 2-2.2 12.1-4 15s-3.2 2.1-5 5-.3 15-5 15-2.3-11.3-3-15-14.9-19.4-21-20c-4.2.4-5 2.9-6 5 0 3.2 7 4 9 10-1 9-1 18-1 26-10.5-8.7-36.2-9.8-34 4 1 6 8.3-2 12 0 3.7 2 3.2 12.8 8 15 4 3.1 15.6-1.7 16 4 .2 2.9-9 4-11 6-3.6 3.4-6 8.6-9 9-3 0-7.4-1.9-8 0 0 2 9.5 12.5 16 13 9 1 12.3-11.8 18-8s-8.8 12.4-6 16 5.8-1.2 9 2c1.6 4.1-1.4 16.4 4 18 5.7 2.4 6-11 8-10 .6 2.4-1.1 9 3 10 2.7.4 3-4.1 7-3 .1 3.3.1 18.7 5 19 5 .6 4.1-12 6-12 2.3 2.7.9 16.8 5 17 4.6.7 2.5-8.4 5-10 2.3 3 3.5 12.1 10 11 8-.2.8-14.1 6-15 8 0 10 4 9 8-2.6 13.6-21.3 64-37 70-4 1-23.9-2.5-30 0-6.1 2.6-7.5 9.2-8 12 3.2.7 10.2-1.7 11 4-4 7-14.5 24.8-8 33 6.6 4.8 6.3-10.9 13-8 .1 5.6-2.7 26.9 8 28 2.7-2.1 4.9-24.9 14-24 6.6.3 6 16.5 12 16 4.2.1 6-7 7-11 1.5-5 1.3-12.8-1-17 4.5 1.4 5.3 5 8 3 1.9-3.2.2-8 2-10 2.4-.7 5.4 2 8-1 2-3.7-9.3-6.3-8-12 3.6-2.1 12.7 6.1 15 3 1-2.9-7.5-13.6-4-17 3.4-3.4 7.9 6.6 12 4 1.9-4.1-1.1-15.8 2-21 4 3.7 5.8 7.7 9 7 2.9-3.3-.8-12.1 3-13 3.7-.6 2.4 9.3 8 5 4-3 1.9-7.2 3-11 1.1-5.2 20.2 3.8 32 1 14-1.2 38.4-23.8 42-24 .9 10-12.2 18.1-13 23-1 2-1 3 0 4 2.1 1.3 6.3-2.6 8-3 2 1.9-8.1 6.5-7 11 4.2 4.2 8.3-5.5 10-4-.4 3.8-3.9 3.9-3 8 3.6 0 3.7-3.7 9-2 3.2 3.5 7.7 9.1 11 10-8.2 2.2-14 12.3-18 16-6.3 4.7-15.9 4.4-22 3-5.1-1.9-10.2-4.3-15-4-4 .3-9 2.6-9 6 .5 3.1 8.9 1.2 9 6 .5 3.8-13.1 8.3-10 14 2.6 3.2 11.4-1.8 13 3-.6 4-9.9 13.3-4 20 3.6 3 9.5-7.2 14-7 7.8.6 9.4 9.6 15 8 4.4-1-1.3-14.2 2-15s2.9 3.3 6 2c3.2-1.2-2.7-7.4 0-10 2.3-.1 1.5 12.5 7 10 3.6-4.8.1-9.8-1-14 3.3 3.3 7.2 12.1 12 9 2.5-3.1-3.7-7-3-11 2.5 1.1 8.3 6.4 11 3 1-2.1-2-3.7-1-8 1.6-6.3 6.9.6 9 0 2.4-1 1.7-3.2 5-4 3.3-1 8.2 5.1 12 3 1.4-3.4-1.3-4.1-1-13 2.8-10.2 32.8-24.3 39-26-9.8 6.6-20 14-23 21-4 9-1.7 20-7 24-3 3-5 4-9 2-9.6-2.3-26.8 5.4-25 13 5.3 0 11.7-.7 15 1-1.8 2.5-11.1 18.4-6 21 5 2.3 5.7-8.8 11-8 .9 3.8-.9 17 5 19 6.2.7 5.5-16.6 12-16 5.7.4.3 13.6 6 14 5.9.5 5.1-19.4 9-21 3.5-2.2 3 0 5-1 .8-5-.5-13.9-1-17 4-2.5 4 5.5 8 3 4.5-2.5-.1-15.3 1-17 2.9.8 6 6 10 5 4 0 6.4-.3 7-4 .4-1.9-5.9-3.2-7-9 0-3-1-5 0-7 2.6.2 11.5 6.8 17 6 5.2-1.1 7.2-6.6 6-12-6.2 1.9-13-5.7-12-13 4.2-3.3 8.5 7.8 11 6 2.2-3.5 2.7-8.3-1-15-5.3-7.4-21.9-17.4-31-26 7.3-15.1 20.9-44.9 6-62 9-10.8 18-18 19-31-1.1-8.6-15.6-18.4-19-28-2.6-9.4 9-17 3-19-13-4.5-13.7 4.2-17 10-11.5 0-37.7.3-50 0-16.3.6-31.5-4.6-34-11-2.6-5.6 6-15.4 1-18-3.6-2.6-10.5 3.2-11 6-.3-2.4 2.1-13.3 7-15 2.5.3 8.5 8.6 16 9 9.6.7 21.8-9.5 25-20 6.7-21.2-14.2-28.9-27-28-1.4 6.2 9.2 12.7 8 18-.9 5.3-2.2 8.8-8 10-2.4-3.7 2.8-22.1-12-26-7.1.3-2.9 3.9-5 11-5.6 8-23.1 21.1-23 30-3.3 19.9 24 50 40 57 21.4-4.1 64-14 79-5-9.4 7.5-9.4 11.6-5 19 3.7 5.4 5.4-6.3 10-4 2 4 4.2 12.8-1 16-9 2.3-13.6-7.1-37-7-16.2-.7-29.9 4-48 14-3.8-3.1-10.5-8-41-14-1.8-7 .4-8-2-11-5.8-5.7-5.2 3.3-7-1-1.7-2.1-2.2-10.1-2-14 2.1-1.3 3 1 8-1 9.9-2.4 19.6-28.4 11-37 3.4 5-7 32.2-18 24 1 2.8 13.1-6.4 8-16-3.1-2.7-4.8 3.1-8 2s-3.9.8-3-5c2.8-4.2 15.4-11.4 16-18-2.2-5.3-3.3-2-7-4 .2-3.3-7.4-11.9-13-17 3.9-3.6 6.2-9.5 6.6-16 .5-5.9-.6-11.2-2.6-14-6.1-.5-8.2 10.7-13 10-1.7-2.4 2.4-16.8-3-19-4.7-2-4 2-5 6 1.3-2.4-2.5-23.5-17-19-3.9 3.3 6.8 11.7 2 19-4.5 2.6-4.9-10.4-11-8-8.2.5-4.2 25.1-10 27-7 1.2-5.4-11.4-12-11-7.7 5.1 1.5 22 3 25-2.8 3.5-10.6 5.3-11 20-3 7-9.2 11.5-9 14 1.1 5.3 4.4 7.9 7 9 2.7 1.1 3.4-2.6 5-1 .8 3.1 1.3 6.1-2 8-2 1.7-6.8-3.8-9 0-1.9 5.9 13.9 12.1 12 16-3.5 3.3-7.9 3.2-11 2-3.4-1.4-5.3-9.7-9-10-7.6 19.3 9.6 35 19 34-.8 6.1-2.2 5.1 1 7 2.7 1.7 10-3 10-3 4.2 2.9-3.4 12.3-20 11-18.3 3.9-25-7-24-20-1.7-10.1 10.5-31.4 12-40-.5-9.7-4.3-20.4-10-20z"/><path id="path3652" class="st4" d="M135 165c6.1 4.7 11.4 7 16 5"/><path id="path3654" class="st4" d="M109 167c10.3 1.5 12.9-2.1 15-6"/><path id="path3656" class="st4" d="M90 195c5.6-3.6 8.4-8.1 10-13"/><path id="path3658" class="st4" d="M96 219c3.4 1.8 6.2 4.9 6 15"/><path id="path3660" class="st5" d="M132 232c-9.4 2.3-12.1 7.7-12 13"/><path id="path3662" class="st5" d="M131 253c2.4-6.1 4.5-12.6 11-12"/><path id="path3664" class="st5" d="M157 251c-7.5-1-12.3 2.4-15 9"/><path id="path3666" class="st5" d="M160 259c-6.3 1.5-6.9 4.8-8 8"/><path id="path3668" class="st5" d="M169 259c-5.7 3-5.9 9.3-7 15"/><path id="path3672" class="st5" d="M156 398c2.6-3.2 5.5-6 12-5"/><path id="path3674" class="st5" d="M129 395c4.7.1 8.8 1.5 12 5"/><path id="path3676" class="st5" d="M121 372c8 3 6 11 6 16"/><path id="path3678" class="st5" d="M124 363c4.3-3.8 3.6-9.1 4-14"/><path id="path3680" class="st6" d="M124 365c6.7-1.9 15.3-.7 23-1"/><path id="path3682" class="st6" d="M128 388c5.6-5.7 11.9-10.4 19-14"/><path id="path3684" class="st6" d="M150 392c2.1-7.8 6-14.3 11-20"/><path id="path3686" class="st5" d="M176 375c-3.5-4.6-5.6-10.1-7-16"/><path id="path3688" class="st5" d="M177 362c-3-2.1-3.4-8.9-2-16"/><path id="path3690" class="st5" d="M188 348c-1.1-2.5-.7-11.3-1-17"/><path id="path3692" class="st5" d="M203 330c-.6-1.9-2-7.3-3-11"/><path id="path3694" class="st5" d="M214 324c1.4-5.7-.4-11.3 1-16"/><path id="path3696" class="st5" d="M227 317c-.7-10.8-.6-21.9-4-32"/><path id="path3698" class="st5" d="M268 360c.6 5.4-2.2 8.8-7 11"/><path id="path3700" class="st5" d="M260 373c4.2 3.1 4 7.6 4 12"/><path id="path3702" class="st5" d="M264 388c4.1 3.5 6.8 7.2 9 11"/><path id="path3704" class="st5" d="M280 402c2.1-2.2 3.9-4.6 7-6"/><path id="path3706" class="st6" d="M276 399c-1.9-9.9 2.5-10.6 5-14"/><path id="path3708" class="st6" d="M264 387c5.8-3.7 10.9-8.1 19-9"/><path id="path3710" class="st6" d="M261 372h22"/><path id="path3712" class="st5" d="M335 383c.5 3.3.6 6.7 0 10"/><path id="path3716" class="st4" d="M336 397c4-.2 5.6 3.2 5 10"/><path id="path3718" class="st5" d="M354 412c-4.9-5.6-8.5-5.4-12-5"/><path id="path3720" class="st5" d="M359 410c3.4-1.4 6.8-2.5 10-1"/><path id="path3722" class="st5" d="M373 403c-3.1-3.3-4.9-7.3-4-13"/><path id="path3724" class="st6" d="M355 410c-.3-3.8 1.4-7 4-10"/><path id="path3726" class="st6" d="M341 407c5.1-5.2 10.4-10.6 15-14"/><path id="path3728" class="st6" d="M336 394c3.1-3.1 8.4-3.6 13-5"/><path id="path3730" class="st7" d="M372 338h-10c-9.1.4-13.9-15.9-15-23-4.7 2.8-3.8 7.3-6 9-1.6-1.4-1.1-7.9-3-8-2.9.7-1.7 9.1-3 10-3.4-2.5-.7-20.3-1-23-2.5-3-2.5 2.2-4 1-.4-2.1 0-6 0-9-.8-3-4-6.5-6-10-1.4-2.3-1.5-11.8-1-18 .4-8.6 15.9-20.2 16-20"/><path id="path3732" class="st5" d="M322 272c-1.8-.1-19 10-20 16 0 2 0 4 1 6 1 1 6.4 3.3 9 3 5.3-.9 7-11 11-12"/><path id="path3734" class="st5" d="M212 85c-1.7 4.1-3.4 8.2-4 12 .1 1.5-.5 3 3 5"/><path id="path3736" class="st5" d="M228 85c-2.5 3-5.1 6-6 9-.1 2-1.6 5.2 1 5"/><path id="path3738" class="st5" d="M200 122l9 6"/><path id="path3740" class="st5" d="M217 129l9-7"/><path id="path3742" class="st7" d="M241 128c3.7 2.9 5.8 6.7 7 11-2.5-2.2-5.1-3-7-3-4.7 2.1-4.8 5.1-5 8 2.6-.2 5.2-.6 7 1 3.4 2.4 4.4 5.8 6 9"/><path id="path3744" class="st7" d="M237 154c3.4 1.3 4.7 4 6 6-2.3 4.3-6.1.5-7 5 5.8 7.6 9.2 16.2 15 23"/><path id="path3746" class="st5" d="M232 183c5.5-6.4 9-3.4 13-3"/><path id="path3748" class="st7" d="M250 199c-3.8.7-7.4-3.3-11-7 .2 7.3-1.4 15.3 6 20 6.3.1 10.8-3.7 15-7"/><path id="path3750" class="st7" d="M235 212v8c5.8 2.4 10.6 5 14 8 3.2 5 2.9 10 3 15 .7 14.3-8.3 12.1-15 14 1.2-2.7 3.7-6.8 3-11-2.2-9.4-6.2-10.6-10-10"/><path id="path3752" class="st5" d="M248 227c4.9-3.8 9.8-7.6 12-14"/><path id="path3754" class="st7" d="M230 198c.5 8.5-3.3 15.3-4 24 2.6 11.8 5.2 18 5 29 .4 12.4-5.1 10.6-9 10 .2-4.5.6-9-2-14-4.3.7-6.9-7.5-7-10-.5-4.4 7.2-9.4 7-18"/><path id="path3756" class="st7" d="M208 235c-2.1 2.7-1.4 5.3 0 8 4.7 4.6 2.1 11.9 3 18 3.9-.6 5.5-4.3 7-8v-6"/><path id="path3758" class="st7" d="M204 232c-6.2 6-11.8 12.4-17 19-2.2 20.4 4.8 27.5 15 30 3.6-1.4 7.4-1.5 10-8-4 .4-7.8-.1-11-3-2.1-3.6-1.6-8.3-1-13 1 2.4 1.5 5.6 4 6 1.7-.6 3.8-.6 4-3-1.7-2.8-1.4-6.4-2-10 .3-2.9.4-5.9 2-8"/><path id="path3760" class="st7" d="M199 204c-.1 8.1-.8 15.7-2 23-1.7 9.1-7 12.1-13 14-2.3 1.2-3.3 3.4-4 6 0 5.5-1.5 11.9 1 16 0-3.8.7-6.8 2-9 1.6-2.1 3.2-3.8 5-4"/><path id="path3762" class="st7" d="M165 226c4.1 4.1 7.8 8.8 15 9 7.5-2.9 8.7-4.5 12-7-3 4.7-7.6 5.6-13 8-8.9.3-15.5 2.6-15 11-.2 6.2 2.3 10.3 7 13 .1-5 .4-8.7 1-10 .8-3.8 2.9-3.9 5-4 1.3 0 3-.3 3 1"/><path id="path3764" class="st7" d="M187 212c2.1-5.2-.8-12.8 9-13"/><path id="path3766" class="st7" d="M190 125c-4.8 2.1-7.6 6.3-10 11 3 .9 6 2.4 9 6v11c-2.2 2.2-5.3 4.3-5 7 2.5 1.8 5.8 3.2 6 6-3.9 5.6-7.5 7-8 11 .3 1.8.2 4.2 2 4 1.6-1.6 2.4-4.2 6-3 2.1 1.7 3.8 3.3 4 5-4.3 3.9-8.5 7.8-12 12-.7 3.7-.9 7.3-1 11-.7 3.3-2.3 6.2-4 9"/><path id="path3768" class="st7" d="M189 148c-4.5.4-8.9.8-11 3"/><path id="path3770" class="st7" d="M190 131l3-3 16 13"/><path id="path3772" class="st7" d="M237 129l-2-2-16 12"/><path id="path3774" class="st7" d="M211 136c-1.3.7-1.8 2.2-2 4v12c-1.7.8-2.9 1.9-3 4 .1 2.2 1 3 3 4-3.6.2-5.6 1.6-6 4"/><path id="path3776" class="st7" d="M216 136c1.1.9 2.2 1.8 2 4v11c1.8 1.4 3.3 2.4 3 4-.7 4.2-2.6 3.8-4 5 2 .4 5.7.1 6 2"/><path id="path3778" class="st7" d="M198 133c-.1 3.5.1 6.6 1 9 2.5 6.2 5.7 6.6 9 7"/><path id="path3780" class="st7" d="M229 132c.6 3.9-.2 7.6-2 11-1.7 3.3-5.1 3.7-8 5"/><path id="path3782" class="st7" d="M209 165c2.5 4.4 4.9 8.9 9 12 6.4 0 9-4 12-9 .2-3.3.4-6.5-2-9"/><path id="path3784" class="st7" d="M219 165l-10 11c-6.6 1.9-8-1-10-4-.8-2.8-1.5-7.7 0-12"/><path id="path3786" class="st7" d="M228 171c-3 34.7-8.2 33.4-13 38-6.7 2.4-8.8-2.1-12-5"/><path id="path3788" class="st7" d="M209 176v28c-3.4 0-3.6-7.5-5-12-.5-5-.3-10 0-15"/><path id="path3790" class="st7" d="M218 177v24c2.5-1.2 3.5-5.1 5-8 1.4-4.6 1.2-10.8 1-17"/><path id="path3792" class="st7" d="M202 175c-2.7 26.3 3 23 6 29"/></g><g id="g3866" transform="translate(661 -7)"><path id="path3868" class="st3" d="M144 144c-4 2-2.2 12.1-4 15s-3.2 2.1-5 5-.3 15-5 15-2.3-11.3-3-15-14.9-19.4-21-20c-4.2.4-5 2.9-6 5 0 3.2 7 4 9 10-1 9-1 18-1 26-10.5-8.7-36.2-9.8-34 4 1 6 8.3-2 12 0 3.7 2 3.2 12.8 8 15 4 3.1 15.6-1.7 16 4 .2 2.9-9 4-11 6-3.6 3.4-6 8.6-9 9-3 0-7.4-1.9-8 0 0 2 9.5 12.5 16 13 9 1 12.3-11.8 18-8s-8.8 12.4-6 16 5.8-1.2 9 2c1.6 4.1-1.4 16.4 4 18 5.7 2.4 6-11 8-10 .6 2.4-1.1 9 3 10 2.7.4 3-4.1 7-3 .1 3.3.1 18.7 5 19 5 .6 4.1-12 6-12 2.3 2.7.9 16.8 5 17 4.6.7 2.5-8.4 5-10 2.3 3 3.5 12.1 10 11 8-.2.8-14.1 6-15 8 0 10 4 9 8-2.6 13.6-21.3 64-37 70-4 1-23.9-2.5-30 0-6.1 2.6-7.5 9.2-8 12 3.2.7 10.2-1.7 11 4-4 7-14.5 24.8-8 33 6.6 4.8 6.3-10.9 13-8 .1 5.6-2.7 26.9 8 28 2.7-2.1 4.9-24.9 14-24 6.6.3 6 16.5 12 16 4.2.1 6-7 7-11 1.5-5 1.3-12.8-1-17 4.5 1.4 5.3 5 8 3 1.9-3.2.2-8 2-10 2.4-.7 5.4 2 8-1 2-3.7-9.3-6.3-8-12 3.6-2.1 12.7 6.1 15 3 1-2.9-7.5-13.6-4-17 3.4-3.4 7.9 6.6 12 4 1.9-4.1-1.1-15.8 2-21 4 3.7 5.8 7.7 9 7 2.9-3.3-.8-12.1 3-13 3.7-.6 2.4 9.3 8 5 4-3 1.9-7.2 3-11 1.1-5.2 20.2 3.8 32 1 14-1.2 38.4-23.8 42-24 .9 10-12.2 18.1-13 23-1 2-1 3 0 4 2.1 1.3 6.3-2.6 8-3 2 1.9-8.1 6.5-7 11 4.2 4.2 8.3-5.5 10-4-.4 3.8-3.9 3.9-3 8 3.6 0 3.7-3.7 9-2 3.2 3.5 7.7 9.1 11 10-8.2 2.2-14 12.3-18 16-6.3 4.7-15.9 4.4-22 3-5.1-1.9-10.2-4.3-15-4-4 .3-9 2.6-9 6 .5 3.1 8.9 1.2 9 6 .5 3.8-13.1 8.3-10 14 2.6 3.2 11.4-1.8 13 3-.6 4-9.9 13.3-4 20 3.6 3 9.5-7.2 14-7 7.8.6 9.4 9.6 15 8 4.4-1-1.3-14.2 2-15s2.9 3.3 6 2c3.2-1.2-2.7-7.4 0-10 2.3-.1 1.5 12.5 7 10 3.6-4.8.1-9.8-1-14 3.3 3.3 7.2 12.1 12 9 2.5-3.1-3.7-7-3-11 2.5 1.1 8.3 6.4 11 3 1-2.1-2-3.7-1-8 1.6-6.3 6.9.6 9 0 2.4-1 1.7-3.2 5-4 3.3-1 8.2 5.1 12 3 1.4-3.4-1.3-4.1-1-13 2.8-10.2 32.8-24.3 39-26-9.8 6.6-20 14-23 21-4 9-1.7 20-7 24-3 3-5 4-9 2-9.6-2.3-26.8 5.4-25 13 5.3 0 11.7-.7 15 1-1.8 2.5-11.1 18.4-6 21 5 2.3 5.7-8.8 11-8 .9 3.8-.9 17 5 19 6.2.7 5.5-16.6 12-16 5.7.4.3 13.6 6 14 5.9.5 5.1-19.4 9-21 3.5-2.2 3 0 5-1 .8-5-.5-13.9-1-17 4-2.5 4 5.5 8 3 4.5-2.5-.1-15.3 1-17 2.9.8 6 6 10 5 4 0 6.4-.3 7-4 .4-1.9-5.9-3.2-7-9 0-3-1-5 0-7 2.6.2 11.5 6.8 17 6 5.2-1.1 7.2-6.6 6-12-6.2 1.9-13-5.7-12-13 4.2-3.3 8.5 7.8 11 6 2.2-3.5 2.7-8.3-1-15-5.3-7.4-21.9-17.4-31-26 7.3-15.1 20.9-44.9 6-62 9-10.8 18-18 19-31-1.1-8.6-15.6-18.4-19-28-2.6-9.4 9-17 3-19-13-4.5-13.7 4.2-17 10-11.5 0-37.7.3-50 0-16.3.6-31.5-4.6-34-11-2.6-5.6 6-15.4 1-18-3.6-2.6-10.5 3.2-11 6-.3-2.4 2.1-13.3 7-15 2.5.3 8.5 8.6 16 9 9.6.7 21.8-9.5 25-20 6.7-21.2-14.2-28.9-27-28-1.4 6.2 9.2 12.7 8 18-.9 5.3-2.2 8.8-8 10-2.4-3.7 2.8-22.1-12-26-7.1.3-2.9 3.9-5 11-5.6 8-23.1 21.1-23 30-3.3 19.9 24 50 40 57 21.4-4.1 64-14 79-5-9.4 7.5-9.4 11.6-5 19 3.7 5.4 5.4-6.3 10-4 2 4 4.2 12.8-1 16-9 2.3-13.6-7.1-37-7-16.2-.7-29.9 4-48 14-3.8-3.1-10.5-8-41-14-1.8-7 .4-8-2-11-5.8-5.7-5.2 3.3-7-1-1.7-2.1-2.2-10.1-2-14 2.1-1.3 3 1 8-1 9.9-2.4 19.6-28.4 11-37 3.4 5-7 32.2-18 24 1 2.8 13.1-6.4 8-16-3.1-2.7-4.8 3.1-8 2s-3.9.8-3-5c2.8-4.2 15.4-11.4 16-18-2.2-5.3-3.3-2-7-4 .2-3.3-7.4-11.9-13-17 3.9-3.6 6.2-9.5 6.6-16 .5-5.9-.6-11.2-2.6-14-6.1-.5-8.2 10.7-13 10-1.7-2.4 2.4-16.8-3-19-4.7-2-4 2-5 6 1.3-2.4-2.5-23.5-17-19-3.9 3.3 6.8 11.7 2 19-4.5 2.6-4.9-10.4-11-8-8.2.5-4.2 25.1-10 27-7 1.2-5.4-11.4-12-11-7.7 5.1 1.5 22 3 25-2.8 3.5-10.6 5.3-11 20-3 7-9.2 11.5-9 14 1.1 5.3 4.4 7.9 7 9 2.7 1.1 3.4-2.6 5-1 .8 3.1 1.3 6.1-2 8-2 1.7-6.8-3.8-9 0-1.9 5.9 13.9 12.1 12 16-3.5 3.3-7.9 3.2-11 2-3.4-1.4-5.3-9.7-9-10-7.6 19.3 9.6 35 19 34-.8 6.1-2.2 5.1 1 7 2.7 1.7 10-3 10-3 4.2 2.9-3.4 12.3-20 11-18.3 3.9-25-7-24-20-1.7-10.1 10.5-31.4 12-40-.5-9.7-4.3-20.4-10-20z"/><path id="path3870" class="st4" d="M135 165c6.1 4.7 11.4 7 16 5"/><path id="path3872" class="st4" d="M109 167c10.3 1.5 12.9-2.1 15-6"/><path id="path3874" class="st4" d="M90 195c5.6-3.6 8.4-8.1 10-13"/><path id="path3876" class="st4" d="M96 219c3.4 1.8 6.2 4.9 6 15"/><path id="path3878" class="st5" d="M132 232c-9.4 2.3-12.1 7.7-12 13"/><path id="path3880" class="st5" d="M131 253c2.4-6.1 4.5-12.6 11-12"/><path id="path3882" class="st5" d="M157 251c-7.5-1-12.3 2.4-15 9"/><path id="path3884" class="st5" d="M160 259c-6.3 1.5-6.9 4.8-8 8"/><path id="path3886" class="st5" d="M169 259c-5.7 3-5.9 9.3-7 15"/><path id="path3888" class="st5" d="M156 398c2.6-3.2 5.5-6 12-5"/><path id="path3890" class="st5" d="M129 395c4.7.1 8.8 1.5 12 5"/><path id="path3892" class="st5" d="M121 372c8 3 6 11 6 16"/><path id="path3894" class="st5" d="M124 363c4.3-3.8 3.6-9.1 4-14"/><path id="path3896" class="st6" d="M124 365c6.7-1.9 15.3-.7 23-1"/><path id="path3898" class="st6" d="M128 388c5.6-5.7 11.9-10.4 19-14"/><path id="path3900" class="st6" d="M150 392c2.1-7.8 6-14.3 11-20"/><path id="path3902" class="st5" d="M176 375c-3.5-4.6-5.6-10.1-7-16"/><path id="path3904" class="st5" d="M177 362c-3-2.1-3.4-8.9-2-16"/><path id="path3906" class="st5" d="M188 348c-1.1-2.5-.7-11.3-1-17"/><path id="path3908" class="st5" d="M203 330c-.6-1.9-2-7.3-3-11"/><path id="path3910" class="st5" d="M214 324c1.4-5.7-.4-11.3 1-16"/><path id="path3912" class="st5" d="M227 317c-.7-10.8-.6-21.9-4-32"/><path id="path3914" class="st5" d="M268 360c.6 5.4-2.2 8.8-7 11"/><path id="path3916" class="st5" d="M260 373c4.2 3.1 4 7.6 4 12"/><path id="path3918" class="st5" d="M264 388c4.1 3.5 6.8 7.2 9 11"/><path id="path3920" class="st5" d="M280 402c2.1-2.2 3.9-4.6 7-6"/><path id="path3922" class="st6" d="M276 399c-1.9-9.9 2.5-10.6 5-14"/><path id="path3924" class="st6" d="M264 387c5.8-3.7 10.9-8.1 19-9"/><path id="path3926" class="st6" d="M261 372h22"/><path id="path3928" class="st5" d="M335 383c.5 3.3.6 6.7 0 10"/><path id="path3930" class="st4" d="M336 397c4-.2 5.6 3.2 5 10"/><path id="path3932" class="st5" d="M354 412c-4.9-5.6-8.5-5.4-12-5"/><path id="path3934" class="st5" d="M359 410c3.4-1.4 6.8-2.5 10-1"/><path id="path3936" class="st5" d="M373 403c-3.1-3.3-4.9-7.3-4-13"/><path id="path3938" class="st6" d="M355 410c-.3-3.8 1.4-7 4-10"/><path id="path3940" class="st6" d="M341 407c5.1-5.2 10.4-10.6 15-14"/><path id="path3942" class="st6" d="M336 394c3.1-3.1 8.4-3.6 13-5"/><path id="path3944" class="st7" d="M372 338h-10c-9.1.4-13.9-15.9-15-23-4.7 2.8-3.8 7.3-6 9-1.6-1.4-1.1-7.9-3-8-2.9.7-1.7 9.1-3 10-3.4-2.5-.7-20.3-1-23-2.5-3-2.5 2.2-4 1-.4-2.1 0-6 0-9-.8-3-4-6.5-6-10-1.4-2.3-1.5-11.8-1-18 .4-8.6 15.9-20.2 16-20"/><path id="path3946" class="st5" d="M322 272c-1.8-.1-19 10-20 16 0 2 0 4 1 6 1 1 6.4 3.3 9 3 5.3-.9 7-11 11-12"/><path id="path3948" class="st5" d="M212 85c-1.7 4.1-3.4 8.2-4 12 .1 1.5-.5 3 3 5"/><path id="path3950" class="st5" d="M228 85c-2.5 3-5.1 6-6 9-.1 2-1.6 5.2 1 5"/><path id="path3952" class="st5" d="M200 122l9 6"/><path id="path3954" class="st5" d="M217 129l9-7"/><path id="path3956" class="st7" d="M241 128c3.7 2.9 5.8 6.7 7 11-2.5-2.2-5.1-3-7-3-4.7 2.1-4.8 5.1-5 8 2.6-.2 5.2-.6 7 1 3.4 2.4 4.4 5.8 6 9"/><path id="path3958" class="st7" d="M237 154c3.4 1.3 4.7 4 6 6-2.3 4.3-6.1.5-7 5 5.8 7.6 9.2 16.2 15 23"/><path id="path3960" class="st5" d="M232 183c5.5-6.4 9-3.4 13-3"/><path id="path3962" class="st7" d="M250 199c-3.8.7-7.4-3.3-11-7 .2 7.3-1.4 15.3 6 20 6.3.1 10.8-3.7 15-7"/><path id="path3964" class="st7" d="M235 212v8c5.8 2.4 10.6 5 14 8 3.2 5 2.9 10 3 15 .7 14.3-8.3 12.1-15 14 1.2-2.7 3.7-6.8 3-11-2.2-9.4-6.2-10.6-10-10"/><path id="path3966" class="st5" d="M248 227c4.9-3.8 9.8-7.6 12-14"/><path id="path3968" class="st7" d="M230 198c.5 8.5-3.3 15.3-4 24 2.6 11.8 5.2 18 5 29 .4 12.4-5.1 10.6-9 10 .2-4.5.6-9-2-14-4.3.7-6.9-7.5-7-10-.5-4.4 7.2-9.4 7-18"/><path id="path3970" class="st7" d="M208 235c-2.1 2.7-1.4 5.3 0 8 4.7 4.6 2.1 11.9 3 18 3.9-.6 5.5-4.3 7-8v-6"/><path id="path3972" class="st7" d="M204 232c-6.2 6-11.8 12.4-17 19-2.2 20.4 4.8 27.5 15 30 3.6-1.4 7.4-1.5 10-8-4 .4-7.8-.1-11-3-2.1-3.6-1.6-8.3-1-13 1 2.4 1.5 5.6 4 6 1.7-.6 3.8-.6 4-3-1.7-2.8-1.4-6.4-2-10 .3-2.9.4-5.9 2-8"/><path id="path3974" class="st7" d="M199 204c-.1 8.1-.8 15.7-2 23-1.7 9.1-7 12.1-13 14-2.3 1.2-3.3 3.4-4 6 0 5.5-1.5 11.9 1 16 0-3.8.7-6.8 2-9 1.6-2.1 3.2-3.8 5-4"/><path id="path3976" class="st7" d="M165 226c4.1 4.1 7.8 8.8 15 9 7.5-2.9 8.7-4.5 12-7-3 4.7-7.6 5.6-13 8-8.9.3-15.5 2.6-15 11-.2 6.2 2.3 10.3 7 13 .1-5 .4-8.7 1-10 .8-3.8 2.9-3.9 5-4 1.3 0 3-.3 3 1"/><path id="path3978" class="st7" d="M187 212c2.1-5.2-.8-12.8 9-13"/><path id="path3980" class="st7" d="M190 125c-4.8 2.1-7.6 6.3-10 11 3 .9 6 2.4 9 6v11c-2.2 2.2-5.3 4.3-5 7 2.5 1.8 5.8 3.2 6 6-3.9 5.6-7.5 7-8 11 .3 1.8.2 4.2 2 4 1.6-1.6 2.4-4.2 6-3 2.1 1.7 3.8 3.3 4 5-4.3 3.9-8.5 7.8-12 12-.7 3.7-.9 7.3-1 11-.7 3.3-2.3 6.2-4 9"/><path id="path3982" class="st7" d="M189 148c-4.5.4-8.9.8-11 3"/><path id="path3984" class="st7" d="M190 131l3-3 16 13"/><path id="path3986" class="st7" d="M237 129l-2-2-16 12"/><path id="path3988" class="st7" d="M211 136c-1.3.7-1.8 2.2-2 4v12c-1.7.8-2.9 1.9-3 4 .1 2.2 1 3 3 4-3.6.2-5.6 1.6-6 4"/><path id="path3990" class="st7" d="M216 136c1.1.9 2.2 1.8 2 4v11c1.8 1.4 3.3 2.4 3 4-.7 4.2-2.6 3.8-4 5 2 .4 5.7.1 6 2"/><path id="path3992" class="st7" d="M198 133c-.1 3.5.1 6.6 1 9 2.5 6.2 5.7 6.6 9 7"/><path id="path3994" class="st7" d="M229 132c.6 3.9-.2 7.6-2 11-1.7 3.3-5.1 3.7-8 5"/><path id="path3996" class="st7" d="M209 165c2.5 4.4 4.9 8.9 9 12 6.4 0 9-4 12-9 .2-3.3.4-6.5-2-9"/><path id="path3998" class="st7" d="M219 165l-10 11c-6.6 1.9-8-1-10-4-.8-2.8-1.5-7.7 0-12"/><path id="path4000" class="st7" d="M228 171c-3 34.7-8.2 33.4-13 38-6.7 2.4-8.8-2.1-12-5"/><path id="path4002" class="st7" d="M209 176v28c-3.4 0-3.6-7.5-5-12-.5-5-.3-10 0-15"/><path id="path4004" class="st7" d="M218 177v24c2.5-1.2 3.5-5.1 5-8 1.4-4.6 1.2-10.8 1-17"/><path id="path4006" class="st7" d="M202 175c-2.7 26.3 3 23 6 29"/></g><g id="g4008" transform="translate(660 715)"><path id="path4010" class="st3" d="M144 144c-4 2-2.2 12.1-4 15s-3.2 2.1-5 5-.3 15-5 15-2.3-11.3-3-15-14.9-19.4-21-20c-4.2.4-5 2.9-6 5 0 3.2 7 4 9 10-1 9-1 18-1 26-10.5-8.7-36.2-9.8-34 4 1 6 8.3-2 12 0 3.7 2 3.2 12.8 8 15 4 3.1 15.6-1.7 16 4 .2 2.9-9 4-11 6-3.6 3.4-6 8.6-9 9-3 0-7.4-1.9-8 0 0 2 9.5 12.5 16 13 9 1 12.3-11.8 18-8s-8.8 12.4-6 16 5.8-1.2 9 2c1.6 4.1-1.4 16.4 4 18 5.7 2.4 6-11 8-10 .6 2.4-1.1 9 3 10 2.7.4 3-4.1 7-3 .1 3.3.1 18.7 5 19 5 .6 4.1-12 6-12 2.3 2.7.9 16.8 5 17 4.6.7 2.5-8.4 5-10 2.3 3 3.5 12.1 10 11 8-.2.8-14.1 6-15 8 0 10 4 9 8-2.6 13.6-21.3 64-37 70-4 1-23.9-2.5-30 0-6.1 2.6-7.5 9.2-8 12 3.2.7 10.2-1.7 11 4-4 7-14.5 24.8-8 33 6.6 4.8 6.3-10.9 13-8 .1 5.6-2.7 26.9 8 28 2.7-2.1 4.9-24.9 14-24 6.6.3 6 16.5 12 16 4.2.1 6-7 7-11 1.5-5 1.3-12.8-1-17 4.5 1.4 5.3 5 8 3 1.9-3.2.2-8 2-10 2.4-.7 5.4 2 8-1 2-3.7-9.3-6.3-8-12 3.6-2.1 12.7 6.1 15 3 1-2.9-7.5-13.6-4-17 3.4-3.4 7.9 6.6 12 4 1.9-4.1-1.1-15.8 2-21 4 3.7 5.8 7.7 9 7 2.9-3.3-.8-12.1 3-13 3.7-.6 2.4 9.3 8 5 4-3 1.9-7.2 3-11 1.1-5.2 20.2 3.8 32 1 14-1.2 38.4-23.8 42-24 .9 10-12.2 18.1-13 23-1 2-1 3 0 4 2.1 1.3 6.3-2.6 8-3 2 1.9-8.1 6.5-7 11 4.2 4.2 8.3-5.5 10-4-.4 3.8-3.9 3.9-3 8 3.6 0 3.7-3.7 9-2 3.2 3.5 7.7 9.1 11 10-8.2 2.2-14 12.3-18 16-6.3 4.7-15.9 4.4-22 3-5.1-1.9-10.2-4.3-15-4-4 .3-9 2.6-9 6 .5 3.1 8.9 1.2 9 6 .5 3.8-13.1 8.3-10 14 2.6 3.2 11.4-1.8 13 3-.6 4-9.9 13.3-4 20 3.6 3 9.5-7.2 14-7 7.8.6 9.4 9.6 15 8 4.4-1-1.3-14.2 2-15s2.9 3.3 6 2c3.2-1.2-2.7-7.4 0-10 2.3-.1 1.5 12.5 7 10 3.6-4.8.1-9.8-1-14 3.3 3.3 7.2 12.1 12 9 2.5-3.1-3.7-7-3-11 2.5 1.1 8.3 6.4 11 3 1-2.1-2-3.7-1-8 1.6-6.3 6.9.6 9 0 2.4-1 1.7-3.2 5-4 3.3-1 8.2 5.1 12 3 1.4-3.4-1.3-4.1-1-13 2.8-10.2 32.8-24.3 39-26-9.8 6.6-20 14-23 21-4 9-1.7 20-7 24-3 3-5 4-9 2-9.6-2.3-26.8 5.4-25 13 5.3 0 11.7-.7 15 1-1.8 2.5-11.1 18.4-6 21 5 2.3 5.7-8.8 11-8 .9 3.8-.9 17 5 19 6.2.7 5.5-16.6 12-16 5.7.4.3 13.6 6 14 5.9.5 5.1-19.4 9-21 3.5-2.2 3 0 5-1 .8-5-.5-13.9-1-17 4-2.5 4 5.5 8 3 4.5-2.5-.1-15.3 1-17 2.9.8 6 6 10 5 4 0 6.4-.3 7-4 .4-1.9-5.9-3.2-7-9 0-3-1-5 0-7 2.6.2 11.5 6.8 17 6 5.2-1.1 7.2-6.6 6-12-6.2 1.9-13-5.7-12-13 4.2-3.3 8.5 7.8 11 6 2.2-3.5 2.7-8.3-1-15-5.3-7.4-21.9-17.4-31-26 7.3-15.1 20.9-44.9 6-62 9-10.8 18-18 19-31-1.1-8.6-15.6-18.4-19-28-2.6-9.4 9-17 3-19-13-4.5-13.7 4.2-17 10-11.5 0-37.7.3-50 0-16.3.6-31.5-4.6-34-11-2.6-5.6 6-15.4 1-18-3.6-2.6-10.5 3.2-11 6-.3-2.4 2.1-13.3 7-15 2.5.3 8.5 8.6 16 9 9.6.7 21.8-9.5 25-20 6.7-21.2-14.2-28.9-27-28-1.4 6.2 9.2 12.7 8 18-.9 5.3-2.2 8.8-8 10-2.4-3.7 2.8-22.1-12-26-7.1.3-2.9 3.9-5 11-5.6 8-23.1 21.1-23 30-3.3 19.9 24 50 40 57 21.4-4.1 64-14 79-5-9.4 7.5-9.4 11.6-5 19 3.7 5.4 5.4-6.3 10-4 2 4 4.2 12.8-1 16-9 2.3-13.6-7.1-37-7-16.2-.7-29.9 4-48 14-3.8-3.1-10.5-8-41-14-1.8-7 .4-8-2-11-5.8-5.7-5.2 3.3-7-1-1.7-2.1-2.2-10.1-2-14 2.1-1.3 3 1 8-1 9.9-2.4 19.6-28.4 11-37 3.4 5-7 32.2-18 24 1 2.8 13.1-6.4 8-16-3.1-2.7-4.8 3.1-8 2s-3.9.8-3-5c2.8-4.2 15.4-11.4 16-18-2.2-5.3-3.3-2-7-4 .2-3.3-7.4-11.9-13-17 3.9-3.6 6.2-9.5 6.6-16 .5-5.9-.6-11.2-2.6-14-6.1-.5-8.2 10.7-13 10-1.7-2.4 2.4-16.8-3-19-4.7-2-4 2-5 6 1.3-2.4-2.5-23.5-17-19-3.9 3.3 6.8 11.7 2 19-4.5 2.6-4.9-10.4-11-8-8.2.5-4.2 25.1-10 27-7 1.2-5.4-11.4-12-11-7.7 5.1 1.5 22 3 25-2.8 3.5-10.6 5.3-11 20-3 7-9.2 11.5-9 14 1.1 5.3 4.4 7.9 7 9 2.7 1.1 3.4-2.6 5-1 .8 3.1 1.3 6.1-2 8-2 1.7-6.8-3.8-9 0-1.9 5.9 13.9 12.1 12 16-3.5 3.3-7.9 3.2-11 2-3.4-1.4-5.3-9.7-9-10-7.6 19.3 9.6 35 19 34-.8 6.1-2.2 5.1 1 7 2.7 1.7 10-3 10-3 4.2 2.9-3.4 12.3-20 11-18.3 3.9-25-7-24-20-1.7-10.1 10.5-31.4 12-40-.5-9.7-4.3-20.4-10-20z"/><path id="path4012" class="st4" d="M135 165c6.1 4.7 11.4 7 16 5"/><path id="path4014" class="st4" d="M109 167c10.3 1.5 12.9-2.1 15-6"/><path id="path4016" class="st4" d="M90 195c5.6-3.6 8.4-8.1 10-13"/><path id="path4018" class="st4" d="M96 219c3.4 1.8 6.2 4.9 6 15"/><path id="path4020" class="st5" d="M132 232c-9.4 2.3-12.1 7.7-12 13"/><path id="path4022" class="st5" d="M131 253c2.4-6.1 4.5-12.6 11-12"/><path id="path4024" class="st5" d="M157 251c-7.5-1-12.3 2.4-15 9"/><path id="path4026" class="st5" d="M160 259c-6.3 1.5-6.9 4.8-8 8"/><path id="path4028" class="st5" d="M169 259c-5.7 3-5.9 9.3-7 15"/><path id="path4030" class="st5" d="M156 398c2.6-3.2 5.5-6 12-5"/><path id="path4032" class="st5" d="M129 395c4.7.1 8.8 1.5 12 5"/><path id="path4034" class="st5" d="M121 372c8 3 6 11 6 16"/><path id="path4036" class="st5" d="M124 363c4.3-3.8 3.6-9.1 4-14"/><path id="path4038" class="st6" d="M124 365c6.7-1.9 15.3-.7 23-1"/><path id="path4040" class="st6" d="M128 388c5.6-5.7 11.9-10.4 19-14"/><path id="path4042" class="st6" d="M150 392c2.1-7.8 6-14.3 11-20"/><path id="path4044" class="st5" d="M176 375c-3.5-4.6-5.6-10.1-7-16"/><path id="path4046" class="st5" d="M177 362c-3-2.1-3.4-8.9-2-16"/><path id="path4048" class="st5" d="M188 348c-1.1-2.5-.7-11.3-1-17"/><path id="path4050" class="st5" d="M203 330c-.6-1.9-2-7.3-3-11"/><path id="path4052" class="st5" d="M214 324c1.4-5.7-.4-11.3 1-16"/><path id="path4054" class="st5" d="M227 317c-.7-10.8-.6-21.9-4-32"/><path id="path4056" class="st5" d="M268 360c.6 5.4-2.2 8.8-7 11"/><path id="path4058" class="st5" d="M260 373c4.2 3.1 4 7.6 4 12"/><path id="path4060" class="st5" d="M264 388c4.1 3.5 6.8 7.2 9 11"/><path id="path4062" class="st5" d="M280 402c2.1-2.2 3.9-4.6 7-6"/><path id="path4064" class="st6" d="M276 399c-1.9-9.9 2.5-10.6 5-14"/><path id="path4066" class="st6" d="M264 387c5.8-3.7 10.9-8.1 19-9"/><path id="path4068" class="st6" d="M261 372h22"/><path id="path4070" class="st5" d="M335 383c.5 3.3.6 6.7 0 10"/><path id="path4072" class="st4" d="M336 397c4-.2 5.6 3.2 5 10"/><path id="path4074" class="st5" d="M354 412c-4.9-5.6-8.5-5.4-12-5"/><path id="path4076" class="st5" d="M359 410c3.4-1.4 6.8-2.5 10-1"/><path id="path4078" class="st5" d="M373 403c-3.1-3.3-4.9-7.3-4-13"/><path id="path4080" class="st6" d="M355 410c-.3-3.8 1.4-7 4-10"/><path id="path4082" class="st6" d="M341 407c5.1-5.2 10.4-10.6 15-14"/><path id="path4084" class="st6" d="M336 394c3.1-3.1 8.4-3.6 13-5"/><path id="path4086" class="st7" d="M372 338h-10c-9.1.4-13.9-15.9-15-23-4.7 2.8-3.8 7.3-6 9-1.6-1.4-1.1-7.9-3-8-2.9.7-1.7 9.1-3 10-3.4-2.5-.7-20.3-1-23-2.5-3-2.5 2.2-4 1-.4-2.1 0-6 0-9-.8-3-4-6.5-6-10-1.4-2.3-1.5-11.8-1-18 .4-8.6 15.9-20.2 16-20"/><path id="path4088" class="st5" d="M322 272c-1.8-.1-19 10-20 16 0 2 0 4 1 6 1 1 6.4 3.3 9 3 5.3-.9 7-11 11-12"/><path id="path4090" class="st5" d="M212 85c-1.7 4.1-3.4 8.2-4 12 .1 1.5-.5 3 3 5"/><path id="path4092" class="st5" d="M228 85c-2.5 3-5.1 6-6 9-.1 2-1.6 5.2 1 5"/><path id="path4094" class="st5" d="M200 122l9 6"/><path id="path4096" class="st5" d="M217 129l9-7"/><path id="path4098" class="st7" d="M241 128c3.7 2.9 5.8 6.7 7 11-2.5-2.2-5.1-3-7-3-4.7 2.1-4.8 5.1-5 8 2.6-.2 5.2-.6 7 1 3.4 2.4 4.4 5.8 6 9"/><path id="path4100" class="st7" d="M237 154c3.4 1.3 4.7 4 6 6-2.3 4.3-6.1.5-7 5 5.8 7.6 9.2 16.2 15 23"/><path id="path4102" class="st5" d="M232 183c5.5-6.4 9-3.4 13-3"/><path id="path4104" class="st7" d="M250 199c-3.8.7-7.4-3.3-11-7 .2 7.3-1.4 15.3 6 20 6.3.1 10.8-3.7 15-7"/><path id="path4106" class="st7" d="M235 212v8c5.8 2.4 10.6 5 14 8 3.2 5 2.9 10 3 15 .7 14.3-8.3 12.1-15 14 1.2-2.7 3.7-6.8 3-11-2.2-9.4-6.2-10.6-10-10"/><path id="path4108" class="st5" d="M248 227c4.9-3.8 9.8-7.6 12-14"/><path id="path4110" class="st7" d="M230 198c.5 8.5-3.3 15.3-4 24 2.6 11.8 5.2 18 5 29 .4 12.4-5.1 10.6-9 10 .2-4.5.6-9-2-14-4.3.7-6.9-7.5-7-10-.5-4.4 7.2-9.4 7-18"/><path id="path4112" class="st7" d="M208 235c-2.1 2.7-1.4 5.3 0 8 4.7 4.6 2.1 11.9 3 18 3.9-.6 5.5-4.3 7-8v-6"/><path id="path4114" class="st7" d="M204 232c-6.2 6-11.8 12.4-17 19-2.2 20.4 4.8 27.5 15 30 3.6-1.4 7.4-1.5 10-8-4 .4-7.8-.1-11-3-2.1-3.6-1.6-8.3-1-13 1 2.4 1.5 5.6 4 6 1.7-.6 3.8-.6 4-3-1.7-2.8-1.4-6.4-2-10 .3-2.9.4-5.9 2-8"/><path id="path4116" class="st7" d="M199 204c-.1 8.1-.8 15.7-2 23-1.7 9.1-7 12.1-13 14-2.3 1.2-3.3 3.4-4 6 0 5.5-1.5 11.9 1 16 0-3.8.7-6.8 2-9 1.6-2.1 3.2-3.8 5-4"/><path id="path4118" class="st7" d="M165 226c4.1 4.1 7.8 8.8 15 9 7.5-2.9 8.7-4.5 12-7-3 4.7-7.6 5.6-13 8-8.9.3-15.5 2.6-15 11-.2 6.2 2.3 10.3 7 13 .1-5 .4-8.7 1-10 .8-3.8 2.9-3.9 5-4 1.3 0 3-.3 3 1"/><path id="path4120" class="st7" d="M187 212c2.1-5.2-.8-12.8 9-13"/><path id="path4122" class="st7" d="M190 125c-4.8 2.1-7.6 6.3-10 11 3 .9 6 2.4 9 6v11c-2.2 2.2-5.3 4.3-5 7 2.5 1.8 5.8 3.2 6 6-3.9 5.6-7.5 7-8 11 .3 1.8.2 4.2 2 4 1.6-1.6 2.4-4.2 6-3 2.1 1.7 3.8 3.3 4 5-4.3 3.9-8.5 7.8-12 12-.7 3.7-.9 7.3-1 11-.7 3.3-2.3 6.2-4 9"/><path id="path4124" class="st7" d="M189 148c-4.5.4-8.9.8-11 3"/><path id="path4126" class="st7" d="M190 131l3-3 16 13"/><path id="path4128" class="st7" d="M237 129l-2-2-16 12"/><path id="path4130" class="st7" d="M211 136c-1.3.7-1.8 2.2-2 4v12c-1.7.8-2.9 1.9-3 4 .1 2.2 1 3 3 4-3.6.2-5.6 1.6-6 4"/><path id="path4132" class="st7" d="M216 136c1.1.9 2.2 1.8 2 4v11c1.8 1.4 3.3 2.4 3 4-.7 4.2-2.6 3.8-4 5 2 .4 5.7.1 6 2"/><path id="path4134" class="st7" d="M198 133c-.1 3.5.1 6.6 1 9 2.5 6.2 5.7 6.6 9 7"/><path id="path4136" class="st7" d="M229 132c.6 3.9-.2 7.6-2 11-1.7 3.3-5.1 3.7-8 5"/><path id="path4138" class="st7" d="M209 165c2.5 4.4 4.9 8.9 9 12 6.4 0 9-4 12-9 .2-3.3.4-6.5-2-9"/><path id="path4140" class="st7" d="M219 165l-10 11c-6.6 1.9-8-1-10-4-.8-2.8-1.5-7.7 0-12"/><path id="path4142" class="st7" d="M228 171c-3 34.7-8.2 33.4-13 38-6.7 2.4-8.8-2.1-12-5"/><path id="path4144" class="st7" d="M209 176v28c-3.4 0-3.6-7.5-5-12-.5-5-.3-10 0-15"/><path id="path4146" class="st7" d="M218 177v24c2.5-1.2 3.5-5.1 5-8 1.4-4.6 1.2-10.8 1-17"/><path id="path4148" class="st7" d="M202 175c-2.7 26.3 3 23 6 29"/></g><g id="g4150" transform="translate(6 725)"><path id="path4152" class="st3" d="M144 144c-4 2-2.2 12.1-4 15s-3.2 2.1-5 5-.3 15-5 15-2.3-11.3-3-15-14.9-19.4-21-20c-4.2.4-5 2.9-6 5 0 3.2 7 4 9 10-1 9-1 18-1 26-10.5-8.7-36.2-9.8-34 4 1 6 8.3-2 12 0 3.7 2 3.2 12.8 8 15 4 3.1 15.6-1.7 16 4 .2 2.9-9 4-11 6-3.6 3.4-6 8.6-9 9-3 0-7.4-1.9-8 0 0 2 9.5 12.5 16 13 9 1 12.3-11.8 18-8s-8.8 12.4-6 16 5.8-1.2 9 2c1.6 4.1-1.4 16.4 4 18 5.7 2.4 6-11 8-10 .6 2.4-1.1 9 3 10 2.7.4 3-4.1 7-3 .1 3.3.1 18.7 5 19 5 .6 4.1-12 6-12 2.3 2.7.9 16.8 5 17 4.6.7 2.5-8.4 5-10 2.3 3 3.5 12.1 10 11 8-.2.8-14.1 6-15 8 0 10 4 9 8-2.6 13.6-21.3 64-37 70-4 1-23.9-2.5-30 0-6.1 2.6-7.5 9.2-8 12 3.2.7 10.2-1.7 11 4-4 7-14.5 24.8-8 33 6.6 4.8 6.3-10.9 13-8 .1 5.6-2.7 26.9 8 28 2.7-2.1 4.9-24.9 14-24 6.6.3 6 16.5 12 16 4.2.1 6-7 7-11 1.5-5 1.3-12.8-1-17 4.5 1.4 5.3 5 8 3 1.9-3.2.2-8 2-10 2.4-.7 5.4 2 8-1 2-3.7-9.3-6.3-8-12 3.6-2.1 12.7 6.1 15 3 1-2.9-7.5-13.6-4-17 3.4-3.4 7.9 6.6 12 4 1.9-4.1-1.1-15.8 2-21 4 3.7 5.8 7.7 9 7 2.9-3.3-.8-12.1 3-13 3.7-.6 2.4 9.3 8 5 4-3 1.9-7.2 3-11 1.1-5.2 20.2 3.8 32 1 14-1.2 38.4-23.8 42-24 .9 10-12.2 18.1-13 23-1 2-1 3 0 4 2.1 1.3 6.3-2.6 8-3 2 1.9-8.1 6.5-7 11 4.2 4.2 8.3-5.5 10-4-.4 3.8-3.9 3.9-3 8 3.6 0 3.7-3.7 9-2 3.2 3.5 7.7 9.1 11 10-8.2 2.2-14 12.3-18 16-6.3 4.7-15.9 4.4-22 3-5.1-1.9-10.2-4.3-15-4-4 .3-9 2.6-9 6 .5 3.1 8.9 1.2 9 6 .5 3.8-13.1 8.3-10 14 2.6 3.2 11.4-1.8 13 3-.6 4-9.9 13.3-4 20 3.6 3 9.5-7.2 14-7 7.8.6 9.4 9.6 15 8 4.4-1-1.3-14.2 2-15s2.9 3.3 6 2c3.2-1.2-2.7-7.4 0-10 2.3-.1 1.5 12.5 7 10 3.6-4.8.1-9.8-1-14 3.3 3.3 7.2 12.1 12 9 2.5-3.1-3.7-7-3-11 2.5 1.1 8.3 6.4 11 3 1-2.1-2-3.7-1-8 1.6-6.3 6.9.6 9 0 2.4-1 1.7-3.2 5-4 3.3-1 8.2 5.1 12 3 1.4-3.4-1.3-4.1-1-13 2.8-10.2 32.8-24.3 39-26-9.8 6.6-20 14-23 21-4 9-1.7 20-7 24-3 3-5 4-9 2-9.6-2.3-26.8 5.4-25 13 5.3 0 11.7-.7 15 1-1.8 2.5-11.1 18.4-6 21 5 2.3 5.7-8.8 11-8 .9 3.8-.9 17 5 19 6.2.7 5.5-16.6 12-16 5.7.4.3 13.6 6 14 5.9.5 5.1-19.4 9-21 3.5-2.2 3 0 5-1 .8-5-.5-13.9-1-17 4-2.5 4 5.5 8 3 4.5-2.5-.1-15.3 1-17 2.9.8 6 6 10 5 4 0 6.4-.3 7-4 .4-1.9-5.9-3.2-7-9 0-3-1-5 0-7 2.6.2 11.5 6.8 17 6 5.2-1.1 7.2-6.6 6-12-6.2 1.9-13-5.7-12-13 4.2-3.3 8.5 7.8 11 6 2.2-3.5 2.7-8.3-1-15-5.3-7.4-21.9-17.4-31-26 7.3-15.1 20.9-44.9 6-62 9-10.8 18-18 19-31-1.1-8.6-15.6-18.4-19-28-2.6-9.4 9-17 3-19-13-4.5-13.7 4.2-17 10-11.5 0-37.7.3-50 0-16.3.6-31.5-4.6-34-11-2.6-5.6 6-15.4 1-18-3.6-2.6-10.5 3.2-11 6-.3-2.4 2.1-13.3 7-15 2.5.3 8.5 8.6 16 9 9.6.7 21.8-9.5 25-20 6.7-21.2-14.2-28.9-27-28-1.4 6.2 9.2 12.7 8 18-.9 5.3-2.2 8.8-8 10-2.4-3.7 2.8-22.1-12-26-7.1.3-2.9 3.9-5 11-5.6 8-23.1 21.1-23 30-3.3 19.9 24 50 40 57 21.4-4.1 64-14 79-5-9.4 7.5-9.4 11.6-5 19 3.7 5.4 5.4-6.3 10-4 2 4 4.2 12.8-1 16-9 2.3-13.6-7.1-37-7-16.2-.7-29.9 4-48 14-3.8-3.1-10.5-8-41-14-1.8-7 .4-8-2-11-5.8-5.7-5.2 3.3-7-1-1.7-2.1-2.2-10.1-2-14 2.1-1.3 3 1 8-1 9.9-2.4 19.6-28.4 11-37 3.4 5-7 32.2-18 24 1 2.8 13.1-6.4 8-16-3.1-2.7-4.8 3.1-8 2s-3.9.8-3-5c2.8-4.2 15.4-11.4 16-18-2.2-5.3-3.3-2-7-4 .2-3.3-7.4-11.9-13-17 3.9-3.6 6.2-9.5 6.6-16 .5-5.9-.6-11.2-2.6-14-6.1-.5-8.2 10.7-13 10-1.7-2.4 2.4-16.8-3-19-4.7-2-4 2-5 6 1.3-2.4-2.5-23.5-17-19-3.9 3.3 6.8 11.7 2 19-4.5 2.6-4.9-10.4-11-8-8.2.5-4.2 25.1-10 27-7 1.2-5.4-11.4-12-11-7.7 5.1 1.5 22 3 25-2.8 3.5-10.6 5.3-11 20-3 7-9.2 11.5-9 14 1.1 5.3 4.4 7.9 7 9 2.7 1.1 3.4-2.6 5-1 .8 3.1 1.3 6.1-2 8-2 1.7-6.8-3.8-9 0-1.9 5.9 13.9 12.1 12 16-3.5 3.3-7.9 3.2-11 2-3.4-1.4-5.3-9.7-9-10-7.6 19.3 9.6 35 19 34-.8 6.1-2.2 5.1 1 7 2.7 1.7 10-3 10-3 4.2 2.9-3.4 12.3-20 11-18.3 3.9-25-7-24-20-1.7-10.1 10.5-31.4 12-40-.5-9.7-4.3-20.4-10-20z"/><path id="path4154" class="st4" d="M135 165c6.1 4.7 11.4 7 16 5"/><path id="path4156" class="st4" d="M109 167c10.3 1.5 12.9-2.1 15-6"/><path id="path4158" class="st4" d="M90 195c5.6-3.6 8.4-8.1 10-13"/><path id="path4160" class="st4" d="M96 219c3.4 1.8 6.2 4.9 6 15"/><path id="path4162" class="st5" d="M132 232c-9.4 2.3-12.1 7.7-12 13"/><path id="path4164" class="st5" d="M131 253c2.4-6.1 4.5-12.6 11-12"/><path id="path4166" class="st5" d="M157 251c-7.5-1-12.3 2.4-15 9"/><path id="path4168" class="st5" d="M160 259c-6.3 1.5-6.9 4.8-8 8"/><path id="path4170" class="st5" d="M169 259c-5.7 3-5.9 9.3-7 15"/><path id="path4172" class="st5" d="M156 398c2.6-3.2 5.5-6 12-5"/><path id="path4174" class="st5" d="M129 395c4.7.1 8.8 1.5 12 5"/><path id="path4176" class="st5" d="M121 372c8 3 6 11 6 16"/><path id="path4178" class="st5" d="M124 363c4.3-3.8 3.6-9.1 4-14"/><path id="path4180" class="st6" d="M124 365c6.7-1.9 15.3-.7 23-1"/><path id="path4182" class="st6" d="M128 388c5.6-5.7 11.9-10.4 19-14"/><path id="path4184" class="st6" d="M150 392c2.1-7.8 6-14.3 11-20"/><path id="path4186" class="st5" d="M176 375c-3.5-4.6-5.6-10.1-7-16"/><path id="path4188" class="st5" d="M177 362c-3-2.1-3.4-8.9-2-16"/><path id="path4190" class="st5" d="M188 348c-1.1-2.5-.7-11.3-1-17"/><path id="path4192" class="st5" d="M203 330c-.6-1.9-2-7.3-3-11"/><path id="path4194" class="st5" d="M214 324c1.4-5.7-.4-11.3 1-16"/><path id="path4196" class="st5" d="M227 317c-.7-10.8-.6-21.9-4-32"/><path id="path4198" class="st5" d="M268 360c.6 5.4-2.2 8.8-7 11"/><path id="path4200" class="st5" d="M260 373c4.2 3.1 4 7.6 4 12"/><path id="path4202" class="st5" d="M264 388c4.1 3.5 6.8 7.2 9 11"/><path id="path4204" class="st5" d="M280 402c2.1-2.2 3.9-4.6 7-6"/><path id="path4206" class="st6" d="M276 399c-1.9-9.9 2.5-10.6 5-14"/><path id="path4208" class="st6" d="M264 387c5.8-3.7 10.9-8.1 19-9"/><path id="path4210" class="st6" d="M261 372h22"/><path id="path4212" class="st5" d="M335 383c.5 3.3.6 6.7 0 10"/><path id="path4214" class="st4" d="M336 397c4-.2 5.6 3.2 5 10"/><path id="path4216" class="st5" d="M354 412c-4.9-5.6-8.5-5.4-12-5"/><path id="path4218" class="st5" d="M359 410c3.4-1.4 6.8-2.5 10-1"/><path id="path4220" class="st5" d="M373 403c-3.1-3.3-4.9-7.3-4-13"/><path id="path4222" class="st6" d="M355 410c-.3-3.8 1.4-7 4-10"/><path id="path4224" class="st6" d="M341 407c5.1-5.2 10.4-10.6 15-14"/><path id="path4226" class="st6" d="M336 394c3.1-3.1 8.4-3.6 13-5"/><path id="path4228" class="st7" d="M372 338h-10c-9.1.4-13.9-15.9-15-23-4.7 2.8-3.8 7.3-6 9-1.6-1.4-1.1-7.9-3-8-2.9.7-1.7 9.1-3 10-3.4-2.5-.7-20.3-1-23-2.5-3-2.5 2.2-4 1-.4-2.1 0-6 0-9-.8-3-4-6.5-6-10-1.4-2.3-1.5-11.8-1-18 .4-8.6 15.9-20.2 16-20"/><path id="path4230" class="st5" d="M322 272c-1.8-.1-19 10-20 16 0 2 0 4 1 6 1 1 6.4 3.3 9 3 5.3-.9 7-11 11-12"/><path id="path4232" class="st5" d="M212 85c-1.7 4.1-3.4 8.2-4 12 .1 1.5-.5 3 3 5"/><path id="path4234" class="st5" d="M228 85c-2.5 3-5.1 6-6 9-.1 2-1.6 5.2 1 5"/><path id="path4236" class="st5" d="M200 122l9 6"/><path id="path4238" class="st5" d="M217 129l9-7"/><path id="path4240" class="st7" d="M241 128c3.7 2.9 5.8 6.7 7 11-2.5-2.2-5.1-3-7-3-4.7 2.1-4.8 5.1-5 8 2.6-.2 5.2-.6 7 1 3.4 2.4 4.4 5.8 6 9"/><path id="path4242" class="st7" d="M237 154c3.4 1.3 4.7 4 6 6-2.3 4.3-6.1.5-7 5 5.8 7.6 9.2 16.2 15 23"/><path id="path4244" class="st5" d="M232 183c5.5-6.4 9-3.4 13-3"/><path id="path4246" class="st7" d="M250 199c-3.8.7-7.4-3.3-11-7 .2 7.3-1.4 15.3 6 20 6.3.1 10.8-3.7 15-7"/><path id="path4248" class="st7" d="M235 212v8c5.8 2.4 10.6 5 14 8 3.2 5 2.9 10 3 15 .7 14.3-8.3 12.1-15 14 1.2-2.7 3.7-6.8 3-11-2.2-9.4-6.2-10.6-10-10"/><path id="path4250" class="st5" d="M248 227c4.9-3.8 9.8-7.6 12-14"/><path id="path4252" class="st7" d="M230 198c.5 8.5-3.3 15.3-4 24 2.6 11.8 5.2 18 5 29 .4 12.4-5.1 10.6-9 10 .2-4.5.6-9-2-14-4.3.7-6.9-7.5-7-10-.5-4.4 7.2-9.4 7-18"/><path id="path4254" class="st7" d="M208 235c-2.1 2.7-1.4 5.3 0 8 4.7 4.6 2.1 11.9 3 18 3.9-.6 5.5-4.3 7-8v-6"/><path id="path4256" class="st7" d="M204 232c-6.2 6-11.8 12.4-17 19-2.2 20.4 4.8 27.5 15 30 3.6-1.4 7.4-1.5 10-8-4 .4-7.8-.1-11-3-2.1-3.6-1.6-8.3-1-13 1 2.4 1.5 5.6 4 6 1.7-.6 3.8-.6 4-3-1.7-2.8-1.4-6.4-2-10 .3-2.9.4-5.9 2-8"/><path id="path4258" class="st7" d="M199 204c-.1 8.1-.8 15.7-2 23-1.7 9.1-7 12.1-13 14-2.3 1.2-3.3 3.4-4 6 0 5.5-1.5 11.9 1 16 0-3.8.7-6.8 2-9 1.6-2.1 3.2-3.8 5-4"/><path id="path4260" class="st7" d="M165 226c4.1 4.1 7.8 8.8 15 9 7.5-2.9 8.7-4.5 12-7-3 4.7-7.6 5.6-13 8-8.9.3-15.5 2.6-15 11-.2 6.2 2.3 10.3 7 13 .1-5 .4-8.7 1-10 .8-3.8 2.9-3.9 5-4 1.3 0 3-.3 3 1"/><path id="path4262" class="st7" d="M187 212c2.1-5.2-.8-12.8 9-13"/><path id="path4264" class="st7" d="M190 125c-4.8 2.1-7.6 6.3-10 11 3 .9 6 2.4 9 6v11c-2.2 2.2-5.3 4.3-5 7 2.5 1.8 5.8 3.2 6 6-3.9 5.6-7.5 7-8 11 .3 1.8.2 4.2 2 4 1.6-1.6 2.4-4.2 6-3 2.1 1.7 3.8 3.3 4 5-4.3 3.9-8.5 7.8-12 12-.7 3.7-.9 7.3-1 11-.7 3.3-2.3 6.2-4 9"/><path id="path4266" class="st7" d="M189 148c-4.5.4-8.9.8-11 3"/><path id="path4268" class="st7" d="M190 131l3-3 16 13"/><path id="path4270" class="st7" d="M237 129l-2-2-16 12"/><path id="path4272" class="st7" d="M211 136c-1.3.7-1.8 2.2-2 4v12c-1.7.8-2.9 1.9-3 4 .1 2.2 1 3 3 4-3.6.2-5.6 1.6-6 4"/><path id="path4274" class="st7" d="M216 136c1.1.9 2.2 1.8 2 4v11c1.8 1.4 3.3 2.4 3 4-.7 4.2-2.6 3.8-4 5 2 .4 5.7.1 6 2"/><path id="path4276" class="st7" d="M198 133c-.1 3.5.1 6.6 1 9 2.5 6.2 5.7 6.6 9 7"/><path id="path4278" class="st7" d="M229 132c.6 3.9-.2 7.6-2 11-1.7 3.3-5.1 3.7-8 5"/><path id="path4280" class="st7" d="M209 165c2.5 4.4 4.9 8.9 9 12 6.4 0 9-4 12-9 .2-3.3.4-6.5-2-9"/><path id="path4282" class="st7" d="M219 165l-10 11c-6.6 1.9-8-1-10-4-.8-2.8-1.5-7.7 0-12"/><path id="path4284" class="st7" d="M228 171c-3 34.7-8.2 33.4-13 38-6.7 2.4-8.8-2.1-12-5"/><path id="path4286" class="st7" d="M209 176v28c-3.4 0-3.6-7.5-5-12-.5-5-.3-10 0-15"/><path id="path4288" class="st7" d="M218 177v24c2.5-1.2 3.5-5.1 5-8 1.4-4.6 1.2-10.8 1-17"/><path id="path4290" class="st7" d="M202 175c-2.7 26.3 3 23 6 29"/></g></g><g id="layer8"><g id="g6096" transform="translate(-323 -3.5)" class="st8"><path id="path5890_1_" class="st9" d="M786 745V522h277v223H786z"/><path id="path5988_1_" class="st10" d="M778.4 516v49.4l9.1-3.9c14.7-6.3 30.3-16.1 34.8-37.6l1.6-7.8h-45.5zm13 13H807c-3.4 7.7-8.7 12.4-15.6 16.2V529z"/><path id="path5944_1_" class="st10" d="M1069.5 701.8l-7.9 1.8c-10 2.3-20.5 5.4-29.7 11.4s-16.8 15.2-20.2 28.3l-2.1 8.1h59.9V701.8zm-13 16.8v19.9h-29c2.8-5.5 6.7-9.4 11.5-12.6 4.9-3.2 11.1-5.4 17.5-7.3z"/><path id="path5974_1_" class="st10" d="M1023.4 515.5l1.8 7.9c4.2 19.3 20 33.1 36.6 37.8l8.3 2.3v-48h-46.7zm17.4 13h16.2v16.7c-6.6-3.8-12.6-9.7-16.2-16.7z"/><path id="path5894_1_" class="st11" d="M830 746v76h39v-76h-39z"/><path id="path5900_1_" class="st11" d="M983 748v76h39v-76h-39z"/><path id="path5958_1_" class="st10" d="M779.3 701.4v50.1h59.4L836 743c-7.4-23.2-26.5-36.9-49.2-40.4l-7.5-1.2zm13 15.7c12.2 3.4 21.7 10.4 27.7 21.4h-27.7v-21.4z"/></g></g><g id="layer7"><path id="path5243" class="st12" d="M452 734V511h277v223H452z"/><g id="g4297"><path id="path4293" class="st13" d="M496 735v76h39v-76h-39z"/><path id="path4295" class="st14" d="M495 784h40"/></g><g id="g4301" transform="translate(153 2)"><path id="path4303" class="st13" d="M496 735v76h39v-76h-39z"/><path id="path4305" class="st14" d="M495 784h40"/></g><path id="path5341" class="st15" d="M452 536h278"/><ellipse class="st16 st17" cx="590" cy="644" rx="35" ry="18" id="path5392"/><path id="path5245" class="st18" d="M625 644c0 9.9-15.7 18-35 18s-35-8.1-35-18 15.7-18 35-18 35 8.1 35 18z"/><path d="M526.2 489.2c-11.3.1-20.4 6.8-20.2 14.8v43.8c-.1 5.3 3.8 10.2 10.2 12.8 6.4 2.7 14.3 2.7 20.7 0 6.4-2.7 10.3-7.6 10.2-12.8V504c.1-3.9-2.1-7.7-6-10.5-4-2.8-9.4-4.4-14.9-4.3z" id="path5295" class="st19"/><path id="path5293" class="st20" d="M526 507v33"/><path d="M594.2 488.3c-11.3.1-20.4 6.7-20.2 14.8V547c-.1 5.3 3.8 10.2 10.2 12.8 6.4 2.7 14.3 2.7 20.7 0 6.4-2.7 10.3-7.6 10.2-12.8v-43.8c.1-3.9-2.1-7.7-6-10.5-4-2.9-9.4-4.4-14.9-4.4z" id="path5331" class="st21"/><path id="path5333" class="st20" d="M594 506.2v33"/><path d="M657 490c-11.3.1-20.4 6.7-20.2 14.8v43.8c-.1 5.3 3.8 10.2 10.2 12.8 6.4 2.7 14.3 2.7 20.7 0 6.4-2.7 10.3-7.6 10.2-12.8v-43.8c.1-3.9-2.1-7.7-6-10.5-4-2.8-9.4-4.4-14.9-4.3z" id="path5337" class="st22"/><path id="path5339" class="st20" d="M656.8 507.8v33"/><path class="st23 st24" d="M494 616v54c19.7 3.9 33.5 14.1 40 32h112c6.5-18.7 20-30.8 42-35v-50c-19.1-3.8-34.1-14.1-42-33H535c-8.5 19.1-23 28.5-41 32z" id="path5368"/><path id="path5343" class="st25" d="M494 616v54c19.7 3.9 33.5 14.1 40 32h112c6.5-18.7 20-30.8 42-35v-50c-19.1-3.8-34.1-14.1-42-33H535c-8.5 19.1-23 28.5-41 32z"/><g id="g5678"><g id="g5646"><path id="path5424" class="st26" d="M736 690.8l-7.9 1.8c-10 2.3-20.5 5.4-29.7 11.4s-16.8 15.2-20.2 28.3l-2.1 8.1H736V690.8zm-13 16.8v19.9h-29c2.8-5.5 6.7-9.4 11.5-12.6 4.9-3.2 11.1-5.4 17.5-7.3z"/><path class="st27 st28" d="M689 730c7.7-14.6 20-22.9 36-26" id="path5440"/><path class="st29 st30" d="M679 738c4.2-18.2 20.9-38.2 54-44" id="path5426"/><path class="st31 st32" d="M726 704v27h-36" id="path5454"/><path id="path5406" class="st33" d="M735.5 690.8l-7.9 1.8c-10 2.3-20.5 5.4-29.7 11.4s-16.8 15.2-20.2 28.3l-2.1 8.1h59.9V690.8zm-13 16.8v19.9h-29c2.8-5.5 6.7-9.4 11.5-12.6 4.9-3.2 11.1-5.4 17.5-7.3z"/><path class="st34 st28" d="M680 737h52v-41" id="path5446"/></g><g id="g5670"><path id="path5460" class="st26" d="M445.5 690.4v50.1h59.4l-2.7-8.5c-7.4-23.2-26.5-36.9-49.2-40.4l-7.5-1.2zm13 15.7c12.2 3.4 21.7 10.4 27.7 21.4h-27.7v-21.4z"/><path class="st35 st28" d="M455 730v-28c5.3.9 9.7 2.9 14 5" id="path5552"/><path class="st36 st32" d="M456 731h36l-6-10" id="path5558"/><path class="st37 st32" d="M449 736v-41c11.2.5 19.2 4.6 27 9" id="path5564"/><path id="path5468" class="st33" d="M445.3 690.4v50.1h59.4L502 732c-7.4-23.2-26.5-36.9-49.2-40.4l-7.5-1.2zm13 15.7c12.2 3.4 21.7 10.4 27.7 21.4h-27.7v-21.4z"/><path class="st38 st28" d="M449 737h51c-1.8-9.5-7.7-18.4-15-27" id="path5570"/></g><g id="g5654"><path id="path5576" class="st26" d="M688.9 504.5l1.8 7.9c4.2 19.3 20 33.1 36.6 37.8l8.3 2.3v-48h-46.7zm17.4 13h16.2v16.7c-6.6-3.8-12.6-9.7-16.2-16.7z"/><path class="st39 st32" d="M732 508h-38l2 10" id="path5584"/><path class="st40 st32" d="M726 515v25l-3-2" id="path5590"/><path class="st41 st28" d="M726 514h-25c4.2 6.9 8.3 14 14 18" id="path5596"/><path class="st42 st28" d="M733 509v40c-5.9-1.4-11.4-4.4-17-7" id="path5602"/><path id="path5582" class="st33" d="M689.4 504.5l1.8 7.9c4.2 19.3 20 33.1 36.6 37.8l8.3 2.3v-48h-46.7zm17.4 13H723v16.7c-6.6-3.8-12.6-9.7-16.2-16.7z"/></g><g id="g5662"><path id="path5612" class="st26" d="M444.5 505v49.4l9.1-3.9c14.7-6.3 30.3-16.1 34.8-37.6l1.6-7.8h-45.5zm13 13h15.6c-3.4 7.7-8.7 12.4-15.6 16.2V518z"/><path class="st43 st32" d="M454 539v-24h23" id="path5622"/><path class="st44 st32" d="M486 508c-1.9 22.3-18.8 33.4-39 42" id="path5628"/><path class="st45 st28" d="M447 549v-41h39" id="path5634"/><path class="st46 st28" d="M478 515c-4.3 12.2-13.2 18.6-23 24" id="path5640"/><path id="path5620" class="st33" d="M444.4 505v49.4l9.1-3.9c14.7-6.3 30.3-16.1 34.8-37.6l1.6-7.8h-45.5zm13 13H473c-3.4 7.7-8.7 12.4-15.6 16.2V518z"/></g></g></g></svg>