<svg xmlns="http://www.w3.org/2000/svg" viewBox="0 0 78.1 70.1" fill="#fd0"><path d="M60.9 52.4a30 30 0 0 1-8.1 9 17 17 0 0 1-14.6 2.1c2.6-2.6 5.1-6 7.3-10.2h-1.9c-2.5 4-5.2 7.1-8.1 9-1.5-.9-2.9-1.9-4.1-3.4-3-3.6-4.5-8.6-4.5-14.7S28 32 30.1 26.1A38.5 38.5 0 0 1 40.9 9.4l2.6-1.9.5.5c1 1.1 1.7 2.4 2.2 3.9s.8 3.2.9 5.2l.2 5.3h1.5l3.4-17.5 1-.1c1.2 0 2.3.1 3.4.4l3.3 1.5L61.4 8c.9 1 1.6 2.3 2.1 3.7l.9 5 .2 6.1h3L72.1 0h-2.9l-2.5 2.9-1.3.3a8 8 0 0 1-2.9-.9A23.9 23.9 0 0 0 53.1 0c-3.8 0-7.6.8-11.3 2.5-2.4-.9-4.6-1.3-6.6-1.3A30 30 0 0 0 18.1 7 40 40 0 0 0 4.8 22.9 48.4 48.4 0 0 0 0 43.8c0 4.7.9 9 2.7 13.1a21 21 0 0 0 19.9 12.8c3.1 0 5.8-.5 8.4-1.5 2.9 1.3 6.1 1.9 9.6 1.9A23 23 0 0 0 54.2 66c3.7-2.7 7.1-7 10.2-12.7l.6-1.2h-3.7zm-35.8 13a15 15 0 0 1-12.3-5.7 22.7 22.7 0 0 1-4.7-15.2c0-6.2 1.1-12.3 3.3-18.4 2.7-7.3 6.3-13 11-17a19.5 19.5 0 0 1 15.1-4.5l-2 1.3a41 41 0 0 0-13.6 16.2c-3.3 6.8-4.9 14-4.9 21.2 0 4.8.9 9.3 2.8 13.4 1.6 3.5 3.8 6.3 6.6 8.5-.4.2-.8.2-1.3.2zm35.5-36.9 1.4 7-.8.3-2.8-3.5-1 1.8-4.1-.4 1.4 4.1-2 1.1 6.7 4.9-.6 2.3 6.3-.6-.3 3.4h1.5l-.2-3.4 6.1.6-.8-2.3 6.7-4.9-1.8-1.2 1.5-4-4.3.4-.9-1.9-2.9 3.7-.8-.4 1.4-6.9-2 1.5-2.9-5-2.7 4.8z"/></svg>