<svg xmlns="http://www.w3.org/2000/svg" xml:space="preserve" viewBox="0 0 180 160"><path fill="#fff" d="M174.4 34.6a9.8 9.8 0 0 0-8.7-5.3H114l1.8-6.9c.1-.4-.1-.9-.5-1-.2-.1-.4-.1-.5 0l-7 1.9c-.1 0-.2 0-.3-.1l-2.3-4.4c-.2-.4-.7-.5-1-.3-.1 0-.2.1-.2.2l-2.3 2.7c-.1.1-.3.1-.4 0s-.1-.1-.1-.2l2.2-10.5c.1-.4-.2-.8-.6-.9-.2 0-.4 0-.6.1l-6.3 3.7c-.1.1-.3 0-.4-.1l-4.9-9.2c-.2-.4-.7-.5-1.1-.3-.1.1-.3.2-.3.3l-4.9 9.2c-.1.1-.2.2-.4.1l-6.3-3.7c-.4-.2-.8-.1-1.1.3-.1.2-.1.4-.1.6l2.2 10.5c0 .1 0 .3-.2.3-.1 0-.2 0-.3-.1l-2.3-2.7c-.3-.3-.8-.4-1.1-.1l-.2.2-2.3 4.4c-.1.1-.2.2-.3.1l-7.1-1.8c-.4-.1-.9.1-1 .5-.1.2-.1.4 0 .5l1.8 6.9H14.4c-5.4 0-9.8 4.4-9.8 9.8 0 2 .6 4 1.8 5.7L82 152c3.2 4.4 9.3 5.4 13.7 2.3.9-.6 1.6-1.4 2.3-2.3l75.7-107.2c2.1-3 2.4-6.9.7-10.2zm-106.5-3c.7-.4 1-1.1.8-1.9l-1.3-5 5 1.3c.7.2 1.5-.2 1.9-.8l1.5-2.9 5.9 6.8c.3.3.8.4 1.1.1.2-.2.3-.5.3-.7L80 14l3.9 2.3c.7.4 1.7.2 2.2-.5v-.1L90 8.3l3.9 7.4c.4.8 1.4 1.1 2.1.7h.1l3.9-2.3-3.1 14.4c-.1.4.1.8.6.9.3.1.6 0 .8-.3l5.9-6.8 1.5 2.9c.4.7 1.2 1 1.9.8l5-1.3-1.3 5c-.2.7.1 1.5.8 1.9l2.9 1.5-12.5 10.7c-.5.5-.7 1.3-.3 1.9l1.8 3.2-12.1-2.1V52h-3.6v-5.2l-12.2 2.1 1.7-3.2c.3-.6.2-1.4-.3-1.9L65 33.1l2.9-1.5zm102.7 11L94.9 149.8c-1.9 2.7-5.6 3.4-8.4 1.5-.6-.4-1.1-.9-1.5-1.5L9.4 42.6c-1.9-2.7-1.3-6.4 1.4-8.4 1.1-.8 2.3-1.2 3.6-1.1h46.7l14 12c.1.1.1.2.1.3l-3.3 6c-.1.3 0 .6.2.7.1.1.2.1.3.1l13-2.3c.1 0 .3.1.3.2v4.1c0 .1.1.3.2.3h8.2c.1 0 .3-.1.3-.3V50c0-.1.1-.3.3-.3l13 2.3c.3 0 .5-.1.6-.4 0-.1 0-.2-.1-.3l-3.3-6c-.1-.1 0-.2.1-.3l13.9-12h46.7c3.3 0 6 2.6 6.1 5.9.1 1.4-.3 2.7-1.1 3.7z"/><path fill="#009e49" d="M67.9 31.6 65 33.1l12.5 10.8c.5.5.7 1.3.3 1.9l-1.7 3.1 12.1-2.1V52h3.6v-5.2l12.1 2.1-1.8-3.2c-.4-.6-.2-1.4.3-1.9L115 33.1l-2.9-1.5c-.7-.4-1-1.1-.8-1.9l1.3-5-5 1.3c-.7.2-1.5-.2-1.9-.8l-1.5-2.9-5.9 6.8c-.3.3-.7.4-1.1.1-.2-.2-.3-.5-.3-.8l3-14.5-3.9 2.3c-.7.4-1.7.2-2.2-.5v-.1L90 8.3l-3.9 7.4c-.4.8-1.4 1.1-2.1.7h-.1L80 14l3.1 14.4c.1.4-.2.8-.6.9-.3.1-.6 0-.7-.3l-5.9-6.8-1.5 2.9c-.4.7-1.1 1-1.9.8l-5-1.3 1.3 5c.2.8-.2 1.6-.9 2z"/><path fill="#d81e05" d="M165.6 33.1h-46.7l-13.9 12c-.1.1-.1.2-.1.3l3.3 6c.1.2.1.6-.2.7-.1.1-.2.1-.3.1l-13-2.3c-.1 0-.3.1-.3.2v4.1c0 .1-.1.3-.3.3h-8.2c-.1 0-.3-.1-.3-.3V50c0-.1-.1-.3-.3-.3l-13 2.3c-.3 0-.6-.1-.6-.4 0-.1 0-.2.1-.3l3.3-6c.1-.1 0-.2-.1-.3L61 33H14.4c-3.3-.1-6.1 2.6-6.1 5.9 0 1.3.4 2.6 1.1 3.6L85 149.7c1.9 2.7 5.6 3.4 8.4 1.5.6-.4 1.1-.9 1.5-1.5l75.7-107.1c1.9-2.7 1.3-6.4-1.4-8.4-1-.7-2.3-1.1-3.6-1.1z"/></svg>