<svg xmlns="http://www.w3.org/2000/svg" viewBox="0 0 170.9 152.2"><path fill="#fff" d="M169.8 30.7a9.8 9.8 0 0 0-8.7-5.3h-51.7l1.8-6.9c.1-.4-.1-.9-.5-1h-.5l-7 1.9-.3-.1-2.3-4.4c-.2-.4-.7-.5-1-.3l-.2.2-2.3 2.7c-.1.1-.3.1-.4 0l-.1-.2 2.2-10.5c.1-.4-.2-.8-.6-.9l-.6.1-6.3 3.7c-.1.1-.3 0-.4-.1L86 .4c-.2-.4-.7-.5-1.1-.3l-.3.3-4.9 9.2c-.1.1-.2.2-.4.1L73 6c-.4-.2-.8-.1-1.1.3l-.1.6L74 17.4c0 .1 0 .3-.2.3l-.3-.1-2.3-2.7c-.3-.3-.8-.4-1.1-.1l-.2.2-2.3 4.4c-.1.1-.2.2-.3.1l-7.1-1.8c-.4-.1-.9.1-1 .5v.5l1.8 6.9H9.8a9.8 9.8 0 0 0-8 15.5l75.6 107a9.9 9.9 0 0 0 16 0l75.7-107.2c2.1-3 2.4-6.9.7-10.2z"/><path fill="#009e49" d="m63.3 27.7-2.9 1.5L72.9 40c.5.5.7 1.3.3 1.9L71.5 45l12.1-2.1v5.2h3.6v-5.2L99.3 45l-1.8-3.2c-.4-.6-.2-1.4.3-1.9l12.6-10.7-2.9-1.5c-.7-.4-1-1.1-.8-1.9l1.3-5-5 1.3c-.7.2-1.5-.2-1.9-.8l-1.5-2.9-5.9 6.8c-.3.3-.7.4-1.1.1-.2-.2-.3-.5-.3-.8l3-14.5-3.9 2.3c-.7.4-1.7.2-2.2-.5v-.1l-3.8-7.3-3.9 7.4c-.4.8-1.4 1.1-2.1.7h-.1l-3.9-2.4 3.1 14.4c.1.4-.2.8-.6.9-.3.1-.6 0-.7-.3l-5.9-6.8-1.5 2.9c-.4.7-1.1 1-1.9.8l-5-1.3 1.3 5c.2.8-.2 1.6-.9 2z"/><path fill="#d81e05" d="M161 29.2h-46.7l-13.9 12-.1.3 3.3 6c.1.2.1.6-.2.7l-.3.1-13-2.3-.3.2v4.1c0 .1-.1.3-.3.3h-8.2c-.1 0-.3-.1-.3-.3v-4.2c0-.1-.1-.3-.3-.3l-13 2.3c-.3 0-.6-.1-.6-.4l.1-.3 3.3-6c.1-.1 0-.2-.1-.3l-14-12H9.8A6 6 0 0 0 3.7 35c0 1.3.4 2.6 1.1 3.6l75.6 107.2a6 6 0 0 0 9.9 0L166 38.7a6 6 0 0 0-1.4-8.4c-1-.7-2.3-1.1-3.6-1.1z"/></svg>