<svg xmlns="http://www.w3.org/2000/svg" viewBox="0 0 1179 1179"><radialGradient id="a" cx="-778.4" cy="1215.95" r="1" fx="-778.4" fy="1215.95" gradientTransform="rotate(130.58 609847.182 391699.22)scale(-911.86 911.86)" gradientUnits="userSpaceOnUse"><stop offset="0" stop-color="#6420ff"/><stop offset="1" stop-color="#6420ff" stop-opacity="0"/></radialGradient><radialGradient id="c" cx="-778.48" cy="1216.09" r="1" fx="-778.48" fy="1216.09" gradientTransform="rotate(54.7 -1609034.73 148836.71)scale(1028.29 -1028.29)" gradientUnits="userSpaceOnUse"><stop offset="0" stop-color="#00c4cc"/><stop offset="1" stop-color="#00c4cc" stop-opacity="0"/></radialGradient><radialGradient id="d" cy="1215.91" fy="1215.91" gradientTransform="rotate(134.8 455332.05 106541.008)scale(-900.82 414.3)" href="#a"/><radialGradient id="e" cx="-778.5" cy="1216.06" r="1" fx="-778.5" fy="1216.06" gradientTransform="rotate(66.52 -1802730.914 -394143.467)scale(928.22 -1554.98)" gradientUnits="userSpaceOnUse"><stop offset="0" stop-color="#00c4cc" stop-opacity=".73"/><stop offset="0" stop-color="#00c4cc"/><stop offset="1" stop-color="#00c4cc" stop-opacity="0"/></radialGradient><path id="b" d="M589.5 1179c325.57 0 589.5-263.93 589.5-589.5S915.07 0 589.5 0 0 263.93 0 589.5 263.93 1179 589.5 1179"/><use fill="#7d2ae7" href="#b"/><use fill="url(#a)" href="#b"/><use fill="url(#c)" href="#b"/><use fill="url(#d)" href="#b"/><use fill="url(#e)" href="#b"/><path fill="#fff" d="M844 710.42c-4.86 0-9.14 4.11-13.6 13.1-50.31 102-137.21 174.2-237.77 174.2-116.28 0-188.27-104.97-188.27-249.97 0-245.62 136.84-387.63 257.06-387.63 56.17 0 90.47 35.3 90.47 91.46 0 66.67-37.88 101.97-37.88 125.47 0 10.56 6.56 16.95 19.58 16.95 52.3 0 113.68-60.09 113.68-145s-71.64-142.84-191.85-142.84c-198.66 0-375.22 184.18-375.22 439.01 0 197.24 112.65 327.6 286.44 327.6 184.46 0 291.12-183.54 291.12-243.1 0-13.21-6.74-19.25-13.78-19.25Z"/></svg>