<svg xmlns="http://www.w3.org/2000/svg" viewBox="0 0 80 30"><defs><radialGradient id="a" cx="0" cy="0" r="1" gradientTransform="matrix(17 -17 11 11 40.96 29)" gradientUnits="userSpaceOnUse"><stop stop-color="#6420FF"/><stop offset="1" stop-color="#6420FF" stop-opacity="0"/></radialGradient><radialGradient id="b" cx="0" cy="0" r="1" gradientTransform="matrix(47 4 -3 37 1.92 17.64)" gradientUnits="userSpaceOnUse"><stop offset=".25" stop-color="#00C4CC"/><stop offset="1" stop-color="#00C4CC" stop-opacity="0"/></radialGradient><radialGradient id="c" cx="0" cy="0" r="1" gradientTransform="matrix(24 -19 13 16 34.14 26.2)" gradientUnits="userSpaceOnUse"><stop stop-color="#6420FF"/><stop offset="1" stop-color="#6420FF" stop-opacity="0"/></radialGradient><radialGradient id="d" cx="0" cy="0" r="1" gradientTransform="matrix(31 -15 11 21 2.28 26.2)" gradientUnits="userSpaceOnUse"><stop stop-color="#6420FF"/><stop offset="1" stop-color="#6420FF" stop-opacity="0"/></radialGradient><radialGradient id="e" cx="0" cy="0" r="1" gradientTransform="matrix(68 15 -18 83 7.68 2.92)" gradientUnits="userSpaceOnUse"><stop stop-color="#00C4CC"/><stop offset="1" stop-color="#00C4CC" stop-opacity="0"/></radialGradient><pattern id="f" width="1" height="1"><path fill="#7D2AE7" d="M0 0h100v100H0z"/><path fill="url(#a)" d="M0 0h100v100H0z"/><path fill="url(#b)" d="M0 0h100v100H0z"/><path fill="url(#c)" d="M0 0h100v100H0z"/><path fill="url(#d)" d="M0 0h100v100H0z"/><path fill="url(#e)" d="M0 0h100v100H0z"/></pattern></defs><path fill="url(#f)" d="M79.44 18.1c-.13 0-.26.08-.32.27-.82 2.34-1.93 3.73-2.84 3.73-.52 0-.74-.58-.74-1.5 0-2.3 1.38-7.15 2.07-9.37.08-.27.13-.5.13-.71 0-.64-.35-.96-1.22-.96-.94 0-1.96.37-2.94 2.1-.34-1.53-1.37-2.2-2.8-2.2-1.66 0-3.27 1.08-4.59 2.8-1.32 1.74-2.87 2.3-4.04 2.03.84-2.06 1.15-3.6 1.15-4.73 0-1.8-.88-2.87-2.3-2.87-2.18 0-3.43 2.07-3.43 4.25 0 1.68.76 3.42 2.44 4.26-1.4 3.18-3.46 6.06-4.24 6.06-1.01 0-1.3-4.93-1.25-8.46.04-2.02.2-2.13.2-2.74 0-.35-.22-.6-1.14-.6-2.14 0-2.8 1.82-2.9 3.9a10.23 10.23 0 0 1-.36 2.32c-.9 3.19-2.74 5.6-3.94 5.6-.55 0-.7-.55-.7-1.28 0-2.3 1.28-5.16 1.28-7.6 0-1.8-.79-2.93-2.27-2.93-1.75 0-4.06 2.08-6.25 5.97.72-2.98 1.02-5.87-1.12-5.87a2.89 2.89 0 0 0-1.32.35.75.75 0 0 0-.43.72c.2 3.18-2.56 11.32-5.18 11.32-.48 0-.71-.52-.71-1.35 0-2.3 1.37-7.15 2.06-9.37.08-.28.13-.53.13-.75 0-.6-.37-.92-1.23-.92-.93 0-1.95.36-2.93 2.08-.34-1.52-1.37-2.18-2.8-2.18-2.36 0-5 2.49-6.15 5.74-1.55 4.33-4.67 8.52-8.87 8.52-3.81 0-5.82-3.17-5.82-8.18C4.07 8.3 9.38 2.4 13.32 2.4c1.88 0 2.78 1.2 2.78 3.04 0 2.23-1.24 3.26-1.24 4.11 0 .26.22.52.64.52 1.72 0 3.73-2.01 3.73-4.76S17 .56 13.06.56C6.56.56 0 7.11 0 15.51c0 6.68 3.3 10.7 9 10.7 3.88 0 7.28-3.02 9.11-6.55.21 2.93 1.54 4.46 3.56 4.46 1.8 0 3.26-1.08 4.37-2.96.43 1.97 1.56 2.94 3.04 2.94 1.7 0 3.1-1.08 4.46-3.07-.02 1.57.33 3.04 1.69 3.04.64 0 1.4-.15 1.54-.71 1.43-5.9 4.95-10.72 6.03-10.72.32 0 .41.3.41.67 0 1.6-1.13 4.89-1.13 6.99 0 2.27.96 3.77 2.96 3.77 2.2 0 4.45-2.7 5.94-6.66.47 3.7 1.48 6.67 3.07 6.67 1.94 0 5.4-4.09 7.49-8.42.82.1 2.05.08 3.23-.76-.5 1.28-.8 2.67-.8 4.07 0 4.02 1.92 5.15 3.57 5.15 1.8 0 3.26-1.08 4.37-2.96.37 1.7 1.31 2.93 3.04 2.93 2.7 0 5.05-2.76 5.05-5.03 0-.6-.26-.96-.56-.96zm-56.12 3.79c-1.1 0-1.52-1.1-1.52-2.74 0-2.85 1.95-7.6 4-7.6.9 0 1.25 1.05 1.25 2.35 0 2.9-1.85 7.99-3.73 7.99zm37.4-8.5a4.33 4.33 0 0 1-.88-2.77c0-1.16.42-2.14.93-2.14s.66.5.66 1.2c0 1.16-.41 2.86-.7 3.7zm8.47 8.5c-1.09 0-1.52-1.27-1.52-2.74 0-2.75 1.95-7.6 4.03-7.6.9 0 1.22 1.05 1.22 2.35 0 2.9-1.82 7.99-3.73 7.99z"/></svg>