<svg xmlns="http://www.w3.org/2000/svg" width="35.983" height="35.983" viewBox="0 0 9.52 9.52"><defs><linearGradient x1="0" y1="0" x2="1" y2="0" gradientUnits="userSpaceOnUse" gradientTransform="scale(-25.27637 25.27637) rotate(-67 20.633 15.65)" spreadMethod="pad" id="b"><stop offset="0" stop-color="#155ba0"/><stop offset=".862" stop-color="#239de0"/><stop offset="1" stop-color="#239de0"/></linearGradient><linearGradient x1="0" y1="0" x2="1" y2="0" gradientUnits="userSpaceOnUse" gradientTransform="scale(-25.27637 25.27637) rotate(-67 20.71 16.033)" spreadMethod="pad" id="d"><stop offset="0" stop-color="#a6cdda"/><stop offset="1" stop-color="#617a89"/></linearGradient><clipPath clipPathUnits="userSpaceOnUse" id="a"><path d="M31.804 699.803h19.277v19.276H31.804zm3.697 15.58h11.885v-11.884H35.501z"/></clipPath><clipPath clipPathUnits="userSpaceOnUse" id="c"><path d="M39.515 707.513h19.276v19.277H39.515zm3.697 15.581h11.884V711.21H43.212z"/></clipPath></defs><g clip-path="url(#a)" transform="matrix(.35278 0 0 -.35278 -11.22 256.395)"><path d="M31.804 699.803h19.277v19.276H31.804zm3.697 15.58h11.885v-11.884H35.501z" fill="url(#b)"/></g><g clip-path="url(#c)" transform="matrix(.35278 0 0 -.35278 -11.22 256.395)"><path d="M39.515 707.513h19.276v19.277H39.515zm3.697 15.581h11.884V711.21H43.212z" fill="url(#d)"/></g></svg>