<svg xmlns="http://www.w3.org/2000/svg" fill="none" height="47.869" width="47.869"><g fill="#1f2e5c"><path d="M.023 38.284h5.981v-3.736h7.631v3.736h5.981V9.554H.023zM30.081 1.546c-.904 0-1.64.733-1.64 1.633s.736 1.633 1.64 1.633c.904 0 1.64-.733 1.64-1.633s-.736-1.633-1.64-1.633zM30.081 9.072c-.904 0-1.64.732-1.64 1.633 0 .9.736 1.632 1.64 1.632.904 0 1.64-.732 1.64-1.632 0-.9-.736-1.633-1.64-1.633zM30.081 16.597c-.904 0-1.64.733-1.64 1.633s.736 1.633 1.64 1.633c.904 0 1.64-.733 1.64-1.633s-.736-1.633-1.64-1.633zM37.787 1.546c-.904 0-1.64.733-1.64 1.633s.736 1.633 1.64 1.633c.904 0 1.64-.733 1.64-1.633s-.736-1.633-1.64-1.633zM37.788 9.072c-.904 0-1.64.732-1.64 1.633 0 .9.736 1.632 1.64 1.632.904 0 1.64-.732 1.64-1.632 0-.9-.736-1.633-1.64-1.633zM37.788 16.597c-.904 0-1.64.733-1.64 1.633s.736 1.633 1.64 1.633c.904 0 1.64-.733 1.64-1.633s-.736-1.633-1.64-1.633zM45.357 1.546c-.903 0-1.64.733-1.64 1.633s.737 1.633 1.64 1.633c.904 0 1.64-.733 1.64-1.633.01-.9-.725-1.633-1.64-1.633zM45.358 9.072c-.904 0-1.64.732-1.64 1.633 0 .9.736 1.632 1.64 1.632.904 0 1.64-.732 1.64-1.632.01-.9-.725-1.633-1.64-1.633zM45.358 16.597c-.904 0-1.64.733-1.64 1.633s.736 1.633 1.64 1.633c.904 0 1.64-.733 1.64-1.633s-.725-1.633-1.64-1.633z"/></g><path clip-rule="evenodd" d="M.003 37.823c.126-5.39 4.625-9.66 10.038-9.535 5.424.126 9.712 4.606 9.576 9.996-.127 5.39-4.625 9.66-10.039 9.535-5.413-.125-9.701-4.605-9.575-9.996zm6.532 3.727h6.56v-6.531h-6.56z" fill="#e02179" fill-rule="evenodd"/><path d="M19.52 10.134C19.645 4.691 15.4.176 10.036.05 4.674-.076.223 4.234.097 9.677c-.127 5.443 4.118 9.958 9.482 10.084 5.363.126 9.814-4.184 9.94-9.627z" fill="#42bb9c"/><path clip-rule="evenodd" d="M27.656 26.436v20.127H47.87V26.436zm16.107 14.6H31.769v-2.49h11.994zm-11.994-6.593h11.994v-2.491H31.769z" fill="#42bb9c" fill-rule="evenodd"/></svg>