<svg xmlns="http://www.w3.org/2000/svg" fill="none" viewBox="0 0 200 191.67"><path fill="#111" d="M126.52 1.48a6.82 6.82 0 0 0-6.78 6.85 6.82 6.82 0 0 0 6.78 6.84 6.82 6.82 0 0 0 6.77-6.85 6.82 6.82 0 0 0-6.77-6.84zm0 31.54a6.82 6.82 0 0 0-6.78 6.84 6.82 6.82 0 0 0 6.78 6.84 6.82 6.82 0 0 0 6.77-6.84 6.82 6.82 0 0 0-6.77-6.84zm0 31.52a6.82 6.82 0 0 0-6.78 6.85 6.82 6.82 0 0 0 6.78 6.84 6.82 6.82 0 0 0 6.77-6.84 6.82 6.82 0 0 0-6.77-6.85zm31.83-63.06a6.82 6.82 0 0 0-6.78 6.85 6.82 6.82 0 0 0 6.78 6.84 6.82 6.82 0 0 0 6.77-6.84 6.82 6.82 0 0 0-6.77-6.85zm0 31.54a6.82 6.82 0 0 0-6.77 6.84 6.82 6.82 0 0 0 6.77 6.84 6.82 6.82 0 0 0 6.78-6.84 6.82 6.82 0 0 0-6.78-6.84zm0 31.52a6.82 6.82 0 0 0-6.77 6.85 6.82 6.82 0 0 0 6.77 6.84 6.82 6.82 0 0 0 6.78-6.84 6.82 6.82 0 0 0-6.78-6.85zm31.27-63.06a6.82 6.82 0 0 0-6.77 6.85c0 3.77 3.04 6.84 6.77 6.84s6.78-3.07 6.78-6.84a6.76 6.76 0 0 0-6.78-6.85zm0 31.54a6.82 6.82 0 0 0-6.77 6.84c0 3.77 3.04 6.84 6.78 6.84s6.77-3.07 6.77-6.84a6.76 6.76 0 0 0-6.78-6.84zm0 31.52a6.82 6.82 0 0 0-6.77 6.85c0 3.77 3.04 6.84 6.78 6.84s6.77-3.07 6.77-6.84c0-3.78-3-6.85-6.78-6.85z"/><path fill="#111" fill-rule="evenodd" d="M0 39.66a39.66 39.66 0 0 1 79.32 0v110.31a39.66 39.66 0 0 1-79.32 0Zm11.34 109.07c.36-15.86 13.36-28.42 28.99-28.05 15.66.37 28.04 13.55 27.65 29.4-.36 15.86-13.36 28.42-28.99 28.05-15.63-.37-28.01-13.55-27.65-29.4zm18.87 10.96h18.94v-19.21H30.2Zm10.72-147.5c15.64.38 28.04 13.55 27.68 29.42-.35 15.86-13.32 28.41-28.96 28.03-15.64-.39-28.03-13.56-27.68-29.42.35-15.87 13.32-28.42 28.96-28.03zm75.57 95.14v84.34H200v-84.34zm66.53 61.18H133.5v-10.44h49.54zm-49.54-27.63h49.54v-10.43H133.5z" clip-rule="evenodd"/></svg>