<svg xmlns="http://www.w3.org/2000/svg" fill="none" viewBox="0 0 190.4 145.6"><path fill="#1a6aff" d="m182.2 105.9-26.4-23.1c-6-5.3-6-14.7 0-20l26.4-23.1s8.2-6 8.2-17.3A22.4 22.4 0 0 0 152.5 6L95.8 59.7s-6.2 5-6.2 13c0 8.1 6.2 13.1 6.2 13.1l56.7 53.6a22.4 22.4 0 0 0 37.9-16.2c0-11.3-8.2-17.3-8.2-17.3z"/><path fill="#1a6aff" d="M82.8 17.4a22.7 22.7 0 0 0-31.2.1l-46.3 43a16.8 16.8 0 0 0 0 24.5l46.3 43a22.7 22.7 0 0 0 31.2 0c9.2-9 9-23.8-.3-32.5L65.8 80.1a10 10 0 0 1 0-14.7L82.5 50c9.2-8.7 9.5-23.6.3-32.6z"/></svg>