<svg xmlns="http://www.w3.org/2000/svg" xmlns:xlink="http://www.w3.org/1999/xlink" width="251" height="251"><g transform="translate(-125 -1.76)"><g id="a"><use xlink:href="#D"/><use xlink:href="#E"/></g><use xlink:href="#a" x="34.1"/><use xlink:href="#a" x="68.8"/><use xlink:href="#a" x="103"/><g transform="translate(0 34.1)"><use xlink:href="#D"/><use xlink:href="#E"/><use xlink:href="#a" x="34.1"/><use xlink:href="#a" x="68.8"/><use xlink:href="#a" x="103"/></g><g transform="translate(0 68.7)"><use xlink:href="#D"/><use xlink:href="#E"/><use xlink:href="#a" x="34.1"/><use xlink:href="#a" x="68.8"/><use xlink:href="#a" x="103"/></g><g transform="translate(0 103)"><use xlink:href="#D"/><use xlink:href="#E"/><use xlink:href="#a" x="34.1"/><use xlink:href="#a" x="68.8"/><use xlink:href="#a" x="103"/></g><g transform="translate(-138 137)"><use xlink:href="#D"/><use xlink:href="#E"/><use xlink:href="#a" x="34.1"/><use xlink:href="#a" x="68.8"/><use xlink:href="#a" x="103"/><g transform="translate(0 34.1)"><use xlink:href="#D"/><use xlink:href="#E"/><use xlink:href="#a" x="34.1"/><use xlink:href="#a" x="68.8"/><use xlink:href="#a" x="103"/></g><g transform="translate(0 68.7)"><use xlink:href="#D"/><use xlink:href="#E"/><use xlink:href="#a" x="34.1"/><use xlink:href="#a" x="68.8"/><use xlink:href="#a" x="103"/></g><g transform="translate(0 103)"><use xlink:href="#D"/><use xlink:href="#E"/><use xlink:href="#a" x="34.1"/><use xlink:href="#a" x="68.8"/><use xlink:href="#a" x="103"/></g></g><g id="b"><use xlink:href="#a" x="-34.7" y="34.1"/><use xlink:href="#a" x="-68.8" y="68.7"/><use xlink:href="#a" x="-34.7" y="68.7"/><use xlink:href="#a" x="-104" y="103"/><use xlink:href="#a" x="-68.8" y="103"/><use xlink:href="#a" x="-34.7" y="103"/></g><use transform="rotate(180 250 127)" xlink:href="#b"/><path d="M249 83.1c16.6-19.4 66.2-11.5 80.7-5.62v-48.5c-22.6-4-55.1-6.06-79-1.41-32 6.23-60.6 25.8-72.7 60.3a125 125 0 00-6.32 41.7c-.31 16.7 2.84 31.8 6.32 41.4 12.8 36.2 35.1 54.2 72.7 60.3 24 4.14 56.4 2.56 79-1.41v-48.6c-15.4 6.64-60.5 10-78.5-5.87-12.7-11.2-16.2-35.4-15.9-46-.38-10.5-.47-29.8 13.6-46.3" fill="#96c93d"/></g><defs><path id="D" d="M262 6.88h10.5v.69H262z"/><path id="E" d="M267 1.97h.69v10.5H267z"/></defs></svg>