<svg xmlns="http://www.w3.org/2000/svg" viewBox="0 0 180.87 189.16"><path fill="#012169" d="m21.42 31.19 30.73 138.7c.73 2.56 2.3 6.4 6.14 8.92 4.8 3.18 8.43 3.03 9.23 3H78.4l-18.9 7s-2.2.86-4.6-.1a7.28 7.28 0 0 1-3.33-2.93L.34 45.75s-.9-1.88.22-4.78a6.1 6.1 0 0 1 3.35-3.4zM51.07 6.01v121.82L27.85 17.35s-.5-2.5.94-4.65c1.8-2.74 4.56-3.22 4.56-3.22zm59.52 100.48c-1.88 0-3.66-.7-5-2l-29.97-28.8c-2.67-3.08-2.77-7.38-.12-10.11l44.67-44.95a.95.95 0 0 0-.02-1.36l-11.6-11.15c-2.45-2.35-1.93-4.53-1.6-5.36.33-.83 1.47-2.76 4.86-2.76l61.9.04c3.95 0 7.16 3.2 7.16 7.16l-.04 60.7c0 3.57-2.26 5.2-4.35 5.2-.9 0-2.3-.3-3.8-1.73l-11.6-11.14c-.43-.4-1.1-.4-1.54 0l-43.82 44.1a7.05 7.05 0 0 1-5.1 2.13m27.57 62.8-67.22-.06a7.47 7.47 0 0 1-7.49-7.49l.05-66.27c0-2.65 1.27-4.76 3.4-5.63 2.13-.87 4.5-.27 6.36 1.6l24.1 24.3c4.18 4.22-2.15 10.49-6.33 6.27l-18.64-18.77-.04 57.08 57.8.05-8.17-7.88a7.46 7.46 0 0 1-.12-10.6l50.6-51.14c4.17-3.84 10.13 2.04 6.34 6.26l-49.58 50.1 12.88 12.42c1.92 1.85 2.55 4.23 1.68 6.36-.86 2.13-2.96 3.4-5.63 3.4"/></svg>