<svg xmlns="http://www.w3.org/2000/svg" width="109.1" height="109.1"><path d="M28.2 57.75c3.9-2 9.8-4.2 13.8-5.2 3.9-1 4.9-1.2 9-1.8 4.2-.6 11.4-1.3 17.6-1.3h3.8c12.7.4 25.9 3.3 36.5 8v-2.3c-12.5-5.9-28.4-9.5-45.2-10-1.5 0-2.9-.1-4.3-.1-4.2 0-8.3.2-12.2.5 0 0-6.4.6-10.1 1.3-3.8.7-7.5 1.5-10.9 2.5-2.4.7-4.6 1.4-7.7 2.7-2.6 1.1-5.1 2.2-7.6 3.7-6.7 4-10.7 9-10.9 14.4v.5c0 3.5 1.5 7 4.6 10.3 9.4 10.2 31.7 17.2 56.7 18 1.6 0 3.1.1 4.7.1 16.8 0 32.1-2.7 43-7.5v-2.3h-.1c-10.2 3.8-23.3 6-35.5 6h-2.9c-21.6-.6-40.9-6.7-49-15.4-2.6-2.8-3.9-5.7-3.9-8.6v-.4c.1-1.7.5-3.5 1.6-5.1 1.1-1.5 1.9-2.6 3.8-4.3 1.5-1.5 2.2-2.2 5.2-3.7" fill="#004483"/><path d="M36.7 38.35c-2.6.9-5.1 2.3-5.5 2.6-3.3 2.2-5.2 5-5.6 8.2-.1.5-.1 1-.1 1.6 0 12.3 20.2 27 46.5 33.4 7.4 1.8 15.2 2.8 22.5 2.8 4.6 0 9-.4 13.1-1.1l.4-.1c.4-.1.8-.1 1-.2v2.1c-.2.1-.3.1-.6.2-4.8 1.3-10.6 2-16.8 2-8.7 0-18.5-1.3-28.5-3.7-30.5-7.5-53.9-24.7-53.9-39.1 0-.6.1-1.2.1-1.8.6-3.9 2.9-7.2 6.8-9.8 3.1-2.1 7.1-3.7 11.8-4.7 0 0 3.7-.8 6.9-1.2 3.2-.3 6.9-.3 6.9-.3h1.7c8.5 0 17.9 1.2 27.6 3.6 14.3 3.5 27.6 9.5 38.1 16.9v2.8c-6.5-4.4-17-10.4-30.6-13.7-8.4-2.1-16.6-3.1-23.9-3.1-4.3 0-8.3.4-11.8 1.1-.1-.1-3.5.7-6.1 1.5" fill="#5ea2d7"/><path d="M82.4 22.25c-13.6-7.9-27.2-12.2-37.5-12.2-3.6 0-6.8.5-9.4 1.6-4 1.6-6.5 4.2-7.5 8.1a16 16 0 00-.5 3.9c0 2 .5 4.4 1 6.3.8 2.7 2 5.6 5 10.6 5.3 8.7 19.6 22.8 34.9 31.7 13.9 8 27.2 12.3 38.6 12.3h2v-2l-2.3-.1c-9.6-.7-20.7-4.3-30.5-10-16.9-9.8-30-23.6-34.1-34.8-.6-1.8-1.1-3.6-1.3-5.1-.1-.6-.3-3 .3-5.1.9-3.1 3-5.4 6.2-6.7 2.2-.9 5-1.4 8-1.4 8.9 0 20.6 3.7 32.4 10.5 7.5 4.3 14.8 10.3 21.1 17.1v-3.5c-7.2-8.1-16.4-15.4-26.4-21.2" fill="#bbdbf3"/></svg>