<svg xmlns="http://www.w3.org/2000/svg" xmlns:xlink="http://www.w3.org/1999/xlink" width="525.994" height="525.994"><defs><linearGradient id="a"><stop offset="0" stop-color="#294381"/><stop offset="1" stop-color="#71476f"/></linearGradient><linearGradient xlink:href="#a" id="b" gradientUnits="userSpaceOnUse" x1="446.84" y1="14.818" x2="32.966" y2="539.392" gradientTransform="translate(23.13 -14.006)"/></defs><path d="M469.23 69.294c-1.2-.7-2.6-.8-3.9-.2l-130.7 62.7L60.83.394c-1.2-.6-2.7-.5-3.9.2-1.2.7-1.9 2-1.9 3.4v324.5c0 1.6 1 3.1 2.5 3.7l143.8 60.2c.5.2 1 .3 1.5.3v129.3c0 1.4.7 2.7 1.9 3.4.6.4 1.4.6 2.1.6.6 0 1.2-.1 1.7-.4l260.1-124.8c1.4-.7 2.3-2.1 2.3-3.6v-324.6c.2-1.3-.5-2.6-1.7-3.3zm-406.1 256.5v-315.4l262.3 125.8-78.2 37.5c-.4-.6-.9-1.1-1.6-1.4l-122.4-55.7c-2-.9-4.4 0-5.3 2-.9 2 0 4.4 2 5.3l118.6 54-33.3 16c-1.4.7-2.3 2.1-2.3 3.6v26.2l-80-32.2c-2.1-.8-4.4.2-5.2 2.2-.8 2 .2 4.4 2.2 5.2l83 33.4v66.3l-80-32.2c-2.1-.8-4.4.2-5.2 2.2-.8 2 .2 4.4 2.2 5.2l83 33.4v77.2zm400 68.8l-252.1 121v-315.6l252.1-121zm-197.3-135.3c-1-2-.1-4.4 1.9-5.3l135.3-65.4c2-1 4.4-.1 5.3 1.9 1 2 .1 4.4-1.9 5.3l-135.3 65.4c-.6.3-1.2.4-1.7.4-1.5 0-3-.8-3.6-2.3zm0 74.9c-1-2-.1-4.4 1.9-5.3l135.3-65.4c2-1 4.4-.1 5.3 1.9 1 2 .1 4.4-1.9 5.3l-135.3 65.4c-.6.3-1.2.4-1.7.4-1.5 0-3-.9-3.6-2.3zm0 74.9c-1-2-.1-4.4 1.9-5.3l135.3-65.4c2-1 4.4-.1 5.3 1.9 1 2 .1 4.4-1.9 5.3l-135.3 65.4c-.6.3-1.2.4-1.7.4-1.5 0-3-.9-3.6-2.3z" fill="url(#b)"/></svg>