<svg xmlns="http://www.w3.org/2000/svg" version="1.1" id="svg5078" width="113.28" height="113.28"><defs id="defs5062"><style id="style5060"></style></defs><g id="g5647" transform="translate(0 39.579)"><path d="M113.28 23.53h-2.54c-3.34 0-7.29.18-11.92 0h-.74c-1 0-3.12-.19-3.15-.19l-1.48-.13c-2-.17-4.06-.43-6.25-.8l-1.62-.28-.88-.13c-.56-.11-2.92-.63-3.45-.76-.53-.13-.92-.22-1.39-.34-.84-.21-1.69-.45-2.56-.7l-1.2-.36c-.81-.23-1.63-.5-2.47-.78l-1.5-.51c-.73-.25-1.46-.52-2.21-.8l16.49-12z" id="path5064" fill="#c6ebf4"/><path d="M110.91 25.42C47.11 45 0 25.42 0 25.42L35.1 0C48.42 9.77 60 15.83 69.92 19.57c.75.28 1.48.55 2.21.8l1.5.51c.84.28 1.66.55 2.47.78l1.2.36c.87.25 1.72.49 2.56.7.47.12.93.24 1.39.34.46.1 4.07.88 4.38.94l1.62.28c2.19.37 4.27.63 6.25.8l1.48.13s2.15.15 3.15.19h.74c4.63.17 8.58 0 11.92 0z" id="path5076" fill="#1b98ed"/></g></svg>