<svg xmlns="http://www.w3.org/2000/svg" width="113.28" height="113.28"><path d="M113.28 63.109h-2.54c-3.34 0-7.29.18-11.92 0h-.74c-1 0-3.12-.19-3.15-.19l-1.48-.13c-2-.17-4.06-.43-6.25-.8l-1.62-.28-.88-.13c-.56-.11-2.92-.63-3.45-.76-.53-.13-.92-.22-1.39-.34-.84-.21-1.69-.45-2.56-.7l-1.2-.36c-.81-.23-1.63-.5-2.47-.78l-1.5-.51c-.73-.25-1.46-.52-2.21-.8l16.49-12z" fill="#c6ebf4"/><path d="M110.91 64.999c-63.8 19.58-110.91 0-110.91 0l35.1-25.42c13.32 9.77 24.9 15.83 34.82 19.57.75.28 1.48.55 2.21.8l1.5.51c.84.28 1.66.55 2.47.78l1.2.36c.87.25 1.72.49 2.56.7.47.12.93.24 1.39.34.46.1 4.07.88 4.38.94l1.62.28c2.19.37 4.27.63 6.25.8l1.48.13s2.15.15 3.15.19h.74c4.63.17 8.58 0 11.92 0z" fill="#1b98ed"/></svg>