<svg xmlns="http://www.w3.org/2000/svg" viewBox="0 0 301.1 131.3"><path d="M0 0v131.3h301V0Zm293 123.3H8V8h285ZM43.7 68.9a23.6 23.6 0 0 1 23.6-23.6c8 0 15.5 3 19.5 10l-7.5 4.4a14 14 0 0 0-11.8-6.3c-6.6 0-14.5 5.1-14.5 15.4 0 10 7.5 15.5 15 15.5 5.3 0 9.7-3 12.3-7.5l7.6 3.5a23 23 0 0 1-21 12A23.1 23.1 0 0 1 43.6 69zm71 23.4a19 19 0 0 0 15-6.7V91h9.3V46.5h-9.2V52c-3-4-9-6.7-15.2-6.7-13.6 0-23 10-23 23.5 0 13.3 9.5 23.5 23 23.5zm.8-38.5c8.6 0 14.4 6.4 14.4 15 0 8.7-5.8 15-14.4 15-8.7 0-14.6-6.4-14.6-15.1 0-8.6 6-14.9 14.6-14.9zm70.2 1.3h-7.1v-8.9h7.2V33h9.5v13.2h9.9v9h-9.9V91h-9.6zm45.8 37.2c6.2 0 12.1-2.7 15.1-6.7V91h9.3V46.5h-9.3V52c-2.8-4-8.9-6.7-15-6.7-13.7 0-23.2 10-23.2 23.5 0 13.3 9.6 23.5 23.1 23.5zm1-38.5c8.4 0 14.3 6.4 14.3 15 0 8.7-5.9 15-14.4 15-8.7 0-14.6-6.4-14.6-15.1 0-8.6 6-14.9 14.6-14.9zM158 91h-9.6V46.4h8.8v7.8c1.9-5 5.7-8.5 10.8-8.5 1.1 0 2.2.1 3.3.4v8.6c-7.2-.8-13.3 4.2-13.3 15.7z"/></svg>