<svg xmlns="http://www.w3.org/2000/svg" viewBox="0 0 39.326 39.326"><path d="M39.326 19.86C39.326 8.892 30.523 0 19.663 0S.001 8.89 0 19.859c0 10.968 8.852 19.466 19.712 19.467 10.859 0 19.614-8.498 19.614-19.466zm-9.146 8.643c-2.446 2.724-5.164 4.421-9.751 4.421-7 0-12.198-5.623-12.198-12.733v-.07c0-7.04 5.096-12.805 12.402-12.805 4.485 0 7.169 1.557 9.378 3.82l-3.33 3.997c-1.835-1.733-3.703-2.794-6.082-2.794-4.01 0-6.898 3.466-6.898 7.71v.071c0 4.245 2.82 7.782 6.898 7.782 2.718 0 4.383-1.132 6.252-2.9z" fill="#8700d7"/></svg>