<svg xmlns="http://www.w3.org/2000/svg" width="44.03" height="44.03"><path fill="#00d54b" d="M32.43 13.805a1.27 1.27 0 001.8 0l2.5-2.6a1.36 1.36 0 00-.06-1.94 19.75 19.75 0 00-6.75-3.84l.79-3.8a1.33 1.33 0 00-1.25-1.61h-4.84a1.32 1.32 0 00-1.28 1.06l-.7 3.38c-6.44.33-11.9 3.56-11.9 10.3 0 5.8 4.51 8.29 9.28 10 4.51 1.72 6.9 2.36 6.9 4.78 0 2.42-2.38 3.95-5.9 3.95a12.76 12.76 0 01-9.16-3.68 1.3 1.3 0 00-1.84 0l-2.7 2.7a1.36 1.36 0 000 1.92 17.64 17.64 0 007.79 4.4l-.74 3.57a1.33 1.33 0 001.27 1.62h4.85a1.33 1.33 0 001.3-1l.7-3.39c7.75-.52 12.47-4.79 12.47-11 0-5.74-4.7-8.16-10.4-10.13-3.26-1.21-6.08-2-6.08-4.53 0-2.53 2.63-3.38 5.27-3.38a13.39 13.39 0 018.7 3.29z"/></svg>