<svg xmlns="http://www.w3.org/2000/svg" viewBox="0 0 46 90"><path fill="#b2d0e1" d="M18.772 18.918c-.256.775-1.281 1.291-2.05 1.033l-12.299-4.39c-.769-.258-1.281-1.291-1.025-2.066L7.754 1.1C8.01.325 9.035-.191 9.804.067l12.299 4.39c.769.258 1.281 1.291 1.025 2.066l-4.356 12.395"/><path fill="#72aac9" d="M41.577 40.61c-.256.775-1.281 1.291-2.05 1.033l-12.299-4.39c-.769-.258-1.281-1.291-1.025-2.066l4.356-12.395c.256-.775 1.281-1.291 2.05-1.033l12.299 4.39c.769.258 1.281 1.291 1.025 2.066L41.577 40.61M16.978 52.231c-.256.775-1.281 1.291-2.05 1.033l-12.299-4.39c-.769-.258-1.281-1.291-1.025-2.066L5.96 34.412c.256-.775 1.281-1.291 2.05-1.033l12.299 4.39c.769.258 1.281 1.291 1.025 2.066l-4.356 12.395"/><path fill="#3383b1" d="M39.784 70.823c-.256.775-1.281 1.291-2.05 1.033l-12.299-4.39c-.769-.258-1.281-1.291-1.025-2.066l4.356-12.395c.256-.775 1.281-1.291 2.05-1.033l12.299 4.39c.769.258 1.281 1.291 1.025 2.066l-4.356 12.395"/><path fill="#00649e" d="M33.634 88.9c-.256.775-1.281 1.291-2.05 1.033l-12.299-4.39c-.769-.258-1.281-1.291-1.025-2.066l4.356-12.395c.256-.775 1.281-1.291 2.05-1.033l12.299 4.39c.769.258 1.281 1.291 1.025 2.066L33.634 88.9"/><path fill="#3383b1" d="M15.441 82.444c-.256.775-1.281 1.291-2.05 1.033l-12.299-4.39C.323 78.829-.19 77.796.067 77.021l4.356-12.395c.256-.775 1.281-1.291 2.05-1.033l12.299 4.39c.769.258 1.281 1.291 1.025 2.066l-4.356 12.395"/></svg>