<svg xmlns="http://www.w3.org/2000/svg" width="139" height="139"><path d="M92.792.35h5.798c3.682.331 7.3 1.212 10.774 2.466-3.885.766-7.818 1.581-11.394 3.345-9.723 4.547-17.063 13.804-19.231 24.316-2.228 10.033.424 20.968 6.868 28.961 5.797 7.4 14.727 12.127 24.067 13.036-10.97 4.344-23.952 3.272-33.904-3.13-9.414-5.879-15.96-16.16-17.151-27.21-1.299-10.29 1.993-21.024 8.773-28.862C73.73 5.832 83.082 1.185 92.792.35M26.176 29.904c9.212-4.484 20.08-4.43 29.642-1.057-2.998.66-6.04 1.192-8.922 2.29-9.354 3.474-17.05 11.151-20.485 20.523-3.932 10.478-2.457 22.848 4.035 31.992 5.73 8.458 15.332 13.864 25.418 15.016-11.44 4.384-24.981 3.078-35.054-4.026-9.252-6.29-15.332-16.895-16.148-28.052v-5.927c1.112-13.096 9.501-25.324 21.514-30.759" fill="#a40348"/><path d="M83.25 40.26c7.98-3.05 16.983-3.426 25.123-.76 10.02 3.138 18.464 10.767 22.727 20.342 3.736 8.33 4.256 18.027 1.474 26.72-3.306 10.436-11.42 19.19-21.588 23.257-8.788 3.603-18.894 3.583-27.749.19 7.19-1.046 14.215-3.826 19.655-8.735 7.764-6.793 12.248-17.17 11.79-27.493-.356-11.224-6.578-22.047-16.08-28.026-4.598-3.044-9.952-4.633-15.352-5.494M29.462 66.394c8.404-3.292 18-3.441 26.484-.343 9.405 3.367 17.304 10.706 21.352 19.838 4.605 10.113 4.343 22.314-.721 32.213-4.774 9.575-13.878 16.875-24.275 19.427-7.521 1.932-15.581 1.306-22.827-1.415 9.69-1.252 18.976-6.235 24.7-14.255 6.147-8.249 8.315-19.305 5.69-29.258-2.708-10.915-11.09-20.174-21.623-24.066-2.82-1.104-5.824-1.576-8.78-2.141" fill="#a40348"/></svg>