<svg xmlns="http://www.w3.org/2000/svg" class="logo" width="33.883" height="33.883"><g fill="#ffbc00"><path d="M7.617 19.676c3.85-.34 6.71-3.74 6.37-7.59-.34-3.85-3.74-6.7-7.59-6.37-3.85.34-6.71 3.74-6.37 7.59.34 3.85 3.74 6.71 7.59 6.37M11.597 21.356a5.24 5.24 0 00-5.23 5.23c0 2.88 2.34 5.23 5.23 5.23a5.24 5.24 0 005.23-5.23 5.24 5.24 0 00-5.23-5.23M13.897 5.826a1.89 1.89 0 001.72-2.04 1.88 1.88 0 00-2.05-1.71c-1.04.09-1.8 1.01-1.71 2.04a1.89 1.89 0 002.04 1.71M33.857 24.196c-.33-3.85-3.74-6.71-7.59-6.37-3.85.33-6.71 3.74-6.37 7.59.34 3.85 3.74 6.71 7.59 6.37 3.85-.34 6.7-3.74 6.37-7.59M27.517 10.926c0-2.88-2.34-5.23-5.23-5.23-2.88 0-5.23 2.34-5.23 5.23a5.24 5.24 0 005.23 5.23c2.88-.01 5.23-2.35 5.23-5.23M28.347 5.826a1.89 1.89 0 001.72-2.04 1.88 1.88 0 00-2.05-1.71 1.882 1.882 0 00.33 3.75"/></g></svg>