<svg xmlns="http://www.w3.org/2000/svg" data-name="CD Baby logo Blue" viewBox="0 0 82.91 54.23"><path fill="#40bcd0" d="M17.03 18.02a18.07 18.07 0 0 0 0 36.08.9.9 0 0 0 1-.9V18.92a.91.91 0 0 0-.91-.91m19.12 0a18.07 18.07 0 0 0 0 36.08.9.9 0 0 0 1-.9V18.92a.91.91 0 0 0-.91-.91m22.25 1v34.68a.53.53 0 0 0 .54.54 18.07 18.07 0 0 0 .4-36.11.9.9 0 0 0-.9.91M38.6.88v34.94a2.3 2.3 0 0 0 0 .37c1.47 16.43 14.73 17.91 17.63 18a.52.52 0 0 0 .56-.53V17.79C55.62 2.57 43.18.33 39.58 0h-.1a.89.89 0 0 0-.88.89m44.3 49.32a3.91 3.91 0 1 1-3.9-3.9 3.91 3.91 0 0 1 3.9 3.9" class="logo-blue"/></svg>