<svg xmlns="http://www.w3.org/2000/svg" width="1650.533" height="1650.533"><g fill="#211d1d"><path d="M936.319 400.04l-4.766-2.633L229.95 13.947 220.53 8.72C209.545 3.307 197.236 0 183.913 0c-43.676 0-79.138 33.2-80.27 74.627 0 .626-.19 1.2-.19 2.066 0 .694.19 1.374.19 2V847.88c0 .668-.19 1.412-.19 2.08 0 .624.19 1.321.19 2.037 1.132 41.247 36.594 74.467 80.27 74.467 11.243 0 21.884-2.127 31.691-6.179l15.037-8.144L930.631 529.5l5.784-3.331c21.025-13.673 34.906-36.736 34.906-62.95 0-26.233-13.905-49.249-35.002-63.178M1246.42 1209.45l-4.023-2.22L654.65 886.046l-7.84-4.326c-9.277-4.557-19.548-7.353-30.72-7.353-36.597 0-66.345 27.83-67.274 62.435 0 .624-.162 1.16-.162 1.828 0 .488.162 1.065.162 1.71v644.379c0 .6-.162 1.093-.162 1.64 0 .6.162 1.226.162 1.76.929 34.56 30.677 62.413 67.274 62.413 9.438 0 18.322-1.826 26.442-5.226l12.673-6.827 586.473-320.579 4.791-2.686c17.7-11.518 29.193-30.88 29.193-52.883 0-21.907-11.612-41.221-29.241-52.881M1528.227 704.57l-2.52-1.46-377.21-206.14-5.041-2.73c-5.899-2.913-12.493-4.743-19.685-4.743-23.438 0-42.522 17.862-43.099 40.024 0 .508-.137.787-.137 1.223 0 .327.137.696.137 1.09v413.505c0 .302-.137.601-.137.994 0 .442.137.763.137 1.156.577 22.187 19.661 40.02 43.099 40.02 6.13 0 11.844-1.18 17.004-3.308l8.162-4.372 376.21-205.744 3.08-1.714c11.333-7.4 18.853-19.847 18.853-33.936 0-13.995-7.52-26.442-18.853-33.866"/></g></svg>