<svg xmlns="http://www.w3.org/2000/svg" width="175.026" height="175.026"><path d="M139.043 95.929l-6.304 14.593h-7.32l6.83-15.861c-.767-.136-1.388-.384-1.874-.746-.764-.565-1.378-1.472-1.826-2.691l-8.256-20.995h7.205l7.177 17.983c.033.096.063.166.085.216.04.004.089.007.152.01l7.747-18.209h7.278l-7.98 18.825h-6.802zM3.613 68.434c2.418-2.608 5.904-3.93 10.358-3.93h12.133v7.509H13.971c-2.337 0-4.021.588-5.007 1.744-1.032 1.21-1.556 3.332-1.556 6.306 0 2.948.517 5.057 1.539 6.268.971 1.153 2.66 1.738 5.024 1.738h12.133l-5.601 7.51h-6.532c-4.455 0-7.94-1.322-10.357-3.932C1.216 89.064 0 85.166 0 80.063c0-5.132 1.216-9.045 3.614-11.63m96.62 18.091v.348c0 .587.148 1.038.45 1.379.26.291.86.452 1.688.452h14.72l-5.737 6.877h-8.983c-1.537 0-2.87-.214-3.964-.632-1.13-.431-2.085-1.055-2.838-1.852a7.185 7.185 0 01-1.643-2.816c-.316-1.007-.476-2.125-.476-3.323v-7.614c0-1.166.16-2.274.474-3.294a7.176 7.176 0 011.645-2.842c.753-.798 1.709-1.42 2.838-1.853 1.096-.42 2.43-.63 3.964-.63h7.137c2.946 0 5.153.73 6.558 2.17 1.401 1.439 2.112 3.437 2.112 5.943 0 2.402-.704 4.309-2.092 5.664-1.395 1.363-3.56 2.023-6.62 2.023zm9.107-6.028c1.199 0 1.573-.278 1.659-.363.153-.15.355-.42.355-1.044 0-.67-.222-.972-.387-1.14-.25-.254-.784-.393-1.501-.393h-7.095c-.822 0-1.418.164-1.676.462-.315.363-.462.797-.462 1.368v1.11zm65.3 4.243c.256.877.385 1.823.385 2.81 0 1.114-.153 2.162-.456 3.117a6.553 6.553 0 01-1.577 2.641c-.71.72-1.622 1.288-2.707 1.689-1.05.386-2.302.582-3.721.582h-14.053v-6.875h14.053c1.037 0 1.358-.228 1.411-.273.142-.123.226-.467.226-.921 0-.222-.024-.755-.246-.929-.094-.073-.486-.309-1.641-.309h-5.217c-1.691 0-3.056-.197-4.174-.602-1.154-.417-2.095-1.008-2.798-1.757a6.248 6.248 0 01-1.483-2.615 10.291 10.291 0 01-.381-2.8c0-2.33.678-4.225 2.016-5.633 1.35-1.42 3.505-2.14 6.402-2.14h13.47v6.833h-13.428c-.977 0-1.29.224-1.362.292-.184.173-.275.506-.275.986 0 .424.085.72.252.879.003.003.305.274 1.636.274h5.174c1.682 0 3.048.188 4.175.575 1.16.397 2.105.95 2.806 1.645a5.821 5.821 0 011.513 2.531M70.7 76.549h-7.409V64.504H70.7zm21.158 19.03h-8.3l-4.645-9.145c-.348-.679-.68-1.218-.987-1.601-.24-.3-.541-.53-.923-.704-.424-.193-.99-.32-1.679-.38-.801-.066-1.862-.1-3.153-.1h-1.47v11.93h-7.409V83.684l7.644-7.08h1.235c1.156 0 2.107-.034 2.83-.1.607-.057 1.096-.176 1.455-.36.332-.166.606-.401.841-.714.298-.399.629-.967.985-1.685l4.647-9.241h8.078l-5.333 10.71c-.687 1.361-1.43 2.514-2.215 3.43a8.19 8.19 0 01-1.058 1.03 8.3 8.3 0 011.31 1.085c.491.496.96 1.092 1.395 1.768.411.642.84 1.398 1.272 2.245zM55.722 68.415c2.367 2.572 3.568 6.491 3.568 11.648 0 5.129-1.2 9.033-3.568 11.604-2.39 2.595-5.876 3.911-10.36 3.911H33.936c-1.151 0-2.084-.947-2.084-2.114V78.963l7.407-6.863v15.97h6.103c2.332 0 4.006-.59 4.978-1.755 1.023-1.226 1.542-3.344 1.542-6.293 0-2.95-.512-5.062-1.522-6.276-.958-1.148-2.64-1.732-4.998-1.732h-6.103v.086h-7.406v-7.595h13.51c4.483 0 7.968 1.315 10.36 3.91"/></svg>