<svg xmlns="http://www.w3.org/2000/svg" width="63.725" height="63.725"><path d="M31.862 0C16.87 0 4.717 12.228 4.717 27.31c0 15.084 27.145 36.415 27.145 36.415s27.146-21.33 27.146-36.414C59.007 12.228 46.854 0 31.862 0" fill="#04151f"/><path d="M31.862 9.753c-9.139 0-16.547 7.453-16.547 16.648S22.723 43.05 31.862 43.05c9.14 0 16.548-7.454 16.548-16.649S41.001 9.753 31.862 9.753" fill="#ffe115"/><path d="M31.861 18.89c-4.122 0-7.464 3.364-7.464 7.511 0 4.148 3.342 7.51 7.464 7.51 4.123 0 7.466-3.362 7.466-7.51 0-4.147-3.343-7.51-7.466-7.51" fill="#04151f"/></svg>