<svg xmlns="http://www.w3.org/2000/svg" width="133.001" height="133.001"><path d="M.18 12.53c2.074 0 12.376 3.288 18.049 5.972 8.464 4.004 14.587 4.01 22.17.022 6.794-3.574 7.29-2.255 1.59 4.222-5.692 6.466-11.518 9.071-19.066 8.525-6.613-.478-7.451.785-1.863 2.804 5.798 2.095 13.028 1.6 23.44-1.605 16.653-5.126 27.89-3.662 36.279 4.727 2.428 2.427 4.19 4.638 3.916 4.911-.274.274-2.874-.207-5.778-1.07-10.511-3.121-15.952-1.751-25.73 6.48-3.96 3.332-8.884 6.767-10.943 7.633L38.5 56.724l2.5.99c4.316 1.71 13.148 1.137 23-1.49 13.726-3.66 17.076-4.036 23.915-2.69 7.91 1.555 15.429 6.13 20.66 12.566 4.103 5.05 8.28 13.85 7.122 15.007-.326.326-2.529-.338-4.895-1.475-14.517-6.976-29.89-3.68-51.711 11.087-9.86 6.673-16.498 8.916-26.568 8.978l-8.023.05 5.5 1.976c3.672 1.319 9.17 2.143 16.542 2.48 9.266.422 12.301.157 18.883-1.648 4.313-1.184 8.07-1.923 8.35-1.643 1.207 1.207-12.276 10.563-20.398 14.155-9.874 4.367-16.524 5.373-35.627 5.388L0 120.47zm130.403 90.19c-.413-.412-5.775-.759-11.917-.77-9.487-.017-11.777-.345-15.233-2.177-8.39-4.45-8.063-7.347 1.06-9.388 8.46-1.894 16.56.803 25.203 8.392 3.197 2.807 4.19 4.693 2.47 4.693-.458 0-1.17-.337-1.583-.75z" fill="#f59824"/></svg>