<svg xmlns="http://www.w3.org/2000/svg" viewBox="0 0 42.557 42.558"><path d="M21.278 0a21.279 21.279 0 1 0 .003 42.558A21.278 21.278 0 0 0 21.278.001zm9.678 30.18a13.29 13.29 0 0 1-9.797 4.371h-.025a13.293 13.293 0 0 1-9.877-4.417 13.152 13.152 0 0 1-3.317-10.33A13.32 13.32 0 0 1 19.576 8.097c.515-.06 1.034-.09 1.553-.09a13.13 13.13 0 0 1 8.082 2.762.625.625 0 0 1 .195.745.631.631 0 0 1-.16.224L27.837 13a.808.808 0 0 1-.538.205.829.829 0 0 1-.475-.15 9.923 9.923 0 0 0-9.781-.91 10.037 10.037 0 0 0-3.378 2.476 9.921 9.921 0 0 0-2.477 7.814 10.047 10.047 0 0 0 8.804 8.795c.38.041.763.063 1.146.063a9.93 9.93 0 0 0 7.1-2.975.83.83 0 0 1 .588-.247.81.81 0 0 1 .447.134l1.564 1.026a.64.64 0 0 1 .28.448.63.63 0 0 1-.16.503zm.965-10.342a3.212 3.212 0 1 1 0-6.425 3.212 3.212 0 0 1 0 6.425z" fill="url(#a)"/><defs><linearGradient id="a" x1="10.538" x2="116.38" y1="46.585" y2="-5.031" gradientTransform="translate(0 -.722)" gradientUnits="userSpaceOnUse"><stop stop-color="#382BC6" offset="0"/><stop stop-color="#FF3CAC" offset="1"/></linearGradient></defs></svg>