<svg xmlns="http://www.w3.org/2000/svg" width="443.794" height="444.936"><defs><linearGradient id="a" gradientUnits="userSpaceOnUse" x1="2.853" y1="728.804" x2="332.548" y2="728.804" gradientTransform="matrix(1.1118 0 0 -1.1118 -3.082 1041.392)"><stop offset="0" stop-color="#bad8e7"/><stop offset=".096" stop-color="#9ac1d9"/><stop offset=".253" stop-color="#6ba0c4"/><stop offset=".41" stop-color="#4584b3"/><stop offset=".564" stop-color="#276fa6"/><stop offset=".716" stop-color="#115f9d"/><stop offset=".863" stop-color="#045697"/><stop offset="1" stop-color="#005395"/></linearGradient><linearGradient id="b" gradientUnits="userSpaceOnUse" x1="230.033" y1="936.651" x2="230.033" y2="536.473" gradientTransform="matrix(1.1118 0 0 -1.1118 -3.082 1041.392)"><stop offset="0" stop-color="#0080af" stop-opacity=".7"/><stop offset=".206" stop-color="#0073aa" stop-opacity=".846"/><stop offset=".425" stop-color="#006aa6"/><stop offset=".694" stop-color="#004374"/></linearGradient></defs><path d="M412.705 168.485l-248.6-157.9c-22.3-14.1-48-13.2-68.3-2.1-25.1-6.1-50.6 6.4-62.2 28-22.2 8.6-37.8 32.2-32.6 58.8l57.9 291.7c.9 4.7 2.4 9 4.3 13 3.1 8.4 8 15.6 14.2 21.3 20.2 23.5 55.9 31.8 85.9 13.5l248.6-153.1c42.2-25.8 42.5-86.7.8-113.2z" fill="#fff"/><path d="M58.905 387.085l-57.8-291.8c-8-40.2 31.6-73.4 69.8-58.6l262.5 102c35.8 13.9 44.7 60.5 16.6 86.6l-204.7 189.8c-29.9 27.7-78.5 11.9-86.4-28z" opacity=".84" fill="url(#a)"/><path d="M60.205 386.285l-32.6-317.8c-4.4-43.8 41.1-75.4 80.6-55.7l270.5 135.3c36.9 18.5 41.8 69.2 9 94.3l-237.9 182.5c-34.8 26.7-85.2 5-89.6-38.6z" fill="#9ebe17"/><path d="M61.505 377.985v-311c0-52.7 58.1-84.7 102.7-56.5l248.6 157.9c41.7 26.5 41.2 87.5-.8 113.4l-248.7 153.1c-44.4 27.5-101.8-4.7-101.8-56.9z" fill="url(#b)"/><path d="M89.205 190.285c.9-2.6 1.6-5.1 2.6-7.6 3.2-8.3 9.3-13.3 18.1-15 8.2-1.6 16.1-.3 24.6 2.8-.8 4.9-1.6 9.6-2.4 14.8-1.8-.6-2.9-1.1-4-1.3-3.6-.8-7-1.9-10.6-2.1-5.3-.3-8.2 1.8-9.6 7.1-1.7 6.4-1.8 13.1 0 19.6 1.6 5.8 5.9 8.5 11.8 7.2 3.2-.7 6.3-2 9.5-3.1 1.1-.3 2-1 3.8-1.9 1 5.2 1.9 9.9 2.8 14.3-.8.8-1 1.1-1.3 1.2-10.9 4.9-21.9 6.1-32.8.2-6.7-3.7-9.8-9.9-11.5-17.1-.2-1-.4-2-.8-3-.2-5.4-.2-10.8-.2-16.1zm114.3 38.8h-15.2v-47c4.8-.2 9.6-.4 14.6-.8.4 1.4.7 2.6 1.1 4 7.3-5.1 14.8-7.4 21.6-.8 4.3-1.3 8.1-3 12-3.7 7.9-1.1 14 4.1 14.1 12.1.2 11.2.1 22.3 0 33.6 0 .8-.2 1.4-.4 2.4h-14.3c-.1-1.3-.3-2.6-.3-3.8v-24.9c0-2 .4-4.2-1.8-5.3-2.3-1.2-4.7-.2-7.2 1.2v32.9h-15.1c-.1-1.3-.4-2.7-.4-3.9 0-8.3.1-16.7-.1-24.9 0-1.8-.3-4.2-1.4-5.1-2-1.6-4.6-.3-7 1.2-.2 10.7-.2 21.5-.2 32.8zm56.2-5.6v-60.9c4.9-.4 9.6-.8 14.9-1.2v24c.9-.4 1.3-.4 1.6-.7 9.8-7.4 21.5-3.8 24.9 8 2.3 8 2.2 16.1-.8 23.9-3.2 8.4-10.1 13.1-19.2 13.3-7 .1-13.6-1-19.5-4.7-.4-.2-.8-.6-1.1-.9-.2-.1-.3-.3-.8-.8zm15.2-7.6c6 3.3 10.5.4 10.9-3.9.4-4.1.7-8.4.2-12.5-.8-6.1-6.1-7.7-11.1-3.7v20.1zm90.1 10.4c-.7.4-1.9 1.2-3.1 1.9-4.7 2.4-9.5 2.9-14.5 1.2-4.6-1.6-7.1-4.7-7.9-9.3-.3-2-.6-4-.4-6 .7-7.2 3.7-11.1 14.9-12.3 2.8-.3 5.7 0 8.8 0v-5.9c-5.9-1.9-11.6-1-17.5.7-1.9-4.2-1.9-8.7-2.4-13.5 3.1-.7 5.7-1.4 8.5-1.7 7.8-.8 15.5-.4 22.8 2.9 2.8 1.2 4 3 4 6.2-.2 6.9-.1 13.8 0 20.7 0 1.2.2 2.4.3 4 2.3.2 4.4.4 6.4.7 1.8 4.4.9 10-2 12.3-2.7 2.2-5.8 2.8-8.9 2-3.1-.7-5.6-2.3-9-3.9zm-2.3-15.4c-4-1-7.3-.6-7.8 1.3-.4 2-.3 4.3.6 6.2.8 1.7 4.1 1.2 7.2-.7v-6.8zm-182.2 15.5c-6.3 3-12.3 4.1-18.7 3.8-3-.1-6.1-.7-9-1.6-6.3-2-10.6-6.4-12.5-12.8-2.4-8.6-2.2-17 2-25 3.9-7.4 12-10.6 20.1-10 1.8.1 3.7.3 5.3.9 6.2 1.9 10.3 6 12 12.3 1.3 5.2.7 10.6.7 16.5h-24.1c-.6 3.6.7 5.3 3.8 5.6 4.4.3 9 .4 13.2-1.6 1-.4 2.1-.8 3.8-1.3 1.1 4.4 2.3 8.7 3.4 13.2zm-15-26.1c-.7-3.1.4-6.4-2.8-8-1.1-.6-3.2-.4-4.2.2-2.4 1.8-2.7 4.6-2.3 7.7 2.9.1 5.8.1 9.3.1zm143.8-18.1c4.7-.2 9.3-.4 14.3-.7.2 2 .4 3.6.7 5.6 3.9-3.7 7.4-7.8 14-5.2-.4 4.8-.8 9.8-1.2 14.8-4.3.4-8.7-1.1-13 1.6v30.8h-14.7c-.1-15.7-.1-31-.1-46.9zm-145.4 95.9c-1.6-.2-2.6-.3-4.3-.6 1-10.1 1.9-20 2.9-30.1h5.6c2.4 7.4 4.8 14.9 7.2 22.2.2 0 .3 0 .6.1 2.3-7.3 4.8-14.8 7.2-22.3h5.6c.9 10.1 1.8 19.9 2.8 30-1.8.2-3 .4-4.7.7-.7-7.3-1.2-14.3-1.8-21.2-.1 0-.2-.1-.3-.1-2.2 7-4.6 14-6.8 21.1h-4.3c-2.2-6.9-4.4-13.6-6.7-20.3-.2 0-.4.1-.7.1-1 6.5-1.6 13.2-2.3 20.4zm129.3-.6v-29.6c4.7-1.1 9.1-1.6 13.5-.1 4.9 1.6 6.6 7.7 3.6 11.8-.6.8-1.2 1.4-1.9 2.3 2.8 1.9 4.7 4.1 4.4 7.6-.2 4.2-2.1 7.2-6.1 8.2-4.5 1.1-8.8.8-13.5-.2zm4.7-3.6c3.4 0 6.8 1.3 9-2 1.3-2 1.3-4.2-.3-6.1-1.6-1.8-5.6-2.1-8.7-.7v8.8zm.1-14.2c3.9 1.2 6.7.8 8-1.3 1.2-2 1.2-4-.2-5.9-1.2-1.7-4.9-1.9-7.8-.6v7.8zm70-15.3c1.4-.1 2.6-.1 4.1-.2v19.1c.2 0 .4.1.7.1 2.2-2.7 4.6-5.3 6.8-8 1.7-1.9 3.4-2.1 6-.7-2.6 2.9-4.9 5.7-7.4 8.7 2.6 4.6 5 9 7.6 13.3-2.8 1.9-4.1 1.7-5.4-.6-1.7-2.9-3.3-5.8-5-8.7-4.7 2.3-1.8 6.8-3.6 10.2-1 .1-2.1.1-3.7.2-.1-11.1-.1-22-.1-33.4zm-101.1 38.3c3.1.4 6 1 7.1-2.3.6-1.6.7-3.6.2-5.1-1.9-6-4-11.9-6.1-17.9-.2-.8-.3-1.7-.6-2.9 1.4-.2 2.7-.4 4.1-.7 1.9 5.9 3.7 11.6 5.6 17.1.2 0 .4.1.7.1 1.9-5.6 3.7-11.2 5.6-16.9h4.1c-.2 1.1-.2 2-.6 2.8-2.4 7.2-4.9 14.5-7.4 21.7-.7 2-1.8 3.8-3 5.6-2.4 3.4-6.2 4.2-10.6 2.1.3-1.1.6-2.3.9-3.6zm52.3-28c5.4-1.3 10.2-1.7 15.2 1.6v17.1c1.3.4 2.2.7 3.8 1.1-.3 1.1-.4 2.4-1.1 3-2.3 1.8-4.6.4-6.6-.8-8.6 2.4-12.1 1.8-13.1-2.9-.4-1.9-.2-4.3.8-6 .9-1.6 3-2.6 4.8-3.1 1.9-.7 4.1-.6 6.4-.8v-5c-3-2.4-6.2-.7-9.6-.7-.1-1.1-.2-2.1-.6-3.5zm10.3 13.6c-3.8-1-6.7-.6-7.2 1.3-.3 1.2-.1 3.7.4 3.8 1.7.6 3.8.8 5.3.2 2.6-.8 1.8-3.1 1.5-5.3zm-133.8-2.5c.4-1.8.7-4.1 1.6-6.1 1.8-4.4 5.7-6.3 10.9-5.8 4.2.6 7.3 3.4 7.9 8.1.3 2.6.3 5.3 0 7.9-.8 5-4.3 8.2-9 8.3-5.9.2-9-2-10.6-7.4-.5-1.5-.6-3-.8-5zm5.3.2c.1 1.6 0 2.9.3 4.2.3 2.1 1.6 3.7 3.9 3.9 2.4.2 5.1-.1 5.4-2.9.4-3.4.4-7 0-10.5-.3-2.3-2.6-3.3-4.9-3.1-2.3.2-3.9 1.6-4.4 3.9-.3 1.5-.2 3.1-.3 4.5zm50 1.2c-.9 6 1 6.9 11.6 5.9.3 1 .7 2.1 1 3.2-6.9 4.9-16.1 1.4-17.8-6.3-.8-3.9-.4-7.7 1.2-11.2 1.9-4.1 6-5.9 10.8-4.9 3.8.8 6.1 3.9 6.1 8.6 0 1.4-.1 2.8-.2 4.8-4.4-.1-8.5-.1-12.7-.1zm8.3-3.9c.4-2.4 0-4.4-1.8-5.2-1.3-.6-3.4-.6-4.8.1-1.8.9-2.4 2.8-1.7 5.1h8.3zm-33.5-3.9v18.2c-1.6.1-2.7.2-4.2.3v-24.1c1.8.3 3.3.6 5.3 1 1.8-.3 4.1-1 6.6-1.1 3.2 0 5.6 1.8 5.8 4.9.3 6.1.1 12.3.1 19-1.3.1-2.6.1-4.4.2v-15.2c0-4.2-1.2-5.3-5.4-4.6-1.2.3-2.3.9-3.8 1.4zm117.3-5.4c1.8.2 3.3.3 4.9.6 0 .1 0 .3-.1.4 1.8-.4 3.4-1.2 5.2-1.4 4.3-.7 7.6 2.1 7.7 6.4.1 5.8 0 11.6 0 17.7h-4.3v-13.9c-.1-1.9.6-4.3-1.7-5.3-2.2-1-4.7-.6-7.3 1.2v18.1c-1.7.1-2.9.1-4.3.2-.1-8-.1-15.7-.1-24z" fill="#fff"/></svg>