<svg xmlns="http://www.w3.org/2000/svg" viewBox="0 0 70.1 69.1"><path fill="#003660" d="m15.7 12.5 10.6 3.6-1.7 8.5-14.7-5 3.6-6.3c.6-.9 1.3-1.1 2.2-.8z"/><path fill="#005b88" d="m.7 39.5 9.3-8.1 7.2 6.3L4.3 48.9.3 42c-.6-1-.4-1.8.4-2.5z"/><path fill="#0098d8" d="M17.3 67.3 14.6 54l10-3.4 3.7 18.5h-8.8c-1.2 0-1.9-.6-2.2-1.8z"/><path fill="#00b4ef" d="M51.5 66.8 37.3 62l2.3-11.4 19.6 6.7-4.8 8.4c-.7 1.2-1.6 1.5-2.9 1.1z"/><path fill="#67ccf2" d="M69.1 35.2 56.7 46l-9.6-8.4 17.1-15 5.3 9.2c1 1.3.7 2.4-.4 3.4z"/><path fill="#87d5f7" d="M49.4 2.4 53 20.1l-13.3 4.5-5-24.6h11.7c1.8 0 2.7.9 3 2.4z"/></svg>