<svg xmlns="http://www.w3.org/2000/svg" width="26.25" height="26.25"><path d="M2.352 20.714a13.273 13.273 0 003.184 3.184l4.349-7.534-7.533 4.35M5.536 2.351a13.192 13.192 0 00-3.184 3.185l7.533 4.347-4.35-7.532M18.661 1.164A13.043 13.043 0 0014.311 0v8.698l4.35-7.534M7.589 25.085a13.093 13.093 0 004.35 1.165v-8.7l-4.35 7.535M23.9 5.536a13.19 13.19 0 00-3.184-3.185l-4.35 7.532L23.9 5.536M20.715 23.898a13.242 13.242 0 003.184-3.184l-7.533-4.35 4.349 7.534M26.25 11.938a13.168 13.168 0 00-1.162-4.35l-7.536 4.35h8.698M0 14.31a13.083 13.083 0 001.163 4.348L8.7 14.31H0M1.163 7.588A13.108 13.108 0 000 11.938h8.7l-7.537-4.35M17.552 14.31l7.536 4.348a13.06 13.06 0 001.162-4.348h-8.698M11.94 0a13.024 13.024 0 00-4.351 1.164l4.35 7.534V0M14.312 26.25a13.088 13.088 0 004.35-1.165l-4.35-7.535v8.7"/></svg>