<svg xmlns="http://www.w3.org/2000/svg" data-name="Centrify Logo" width="62.871" height="62.871"><path class="symbol" d="M24.313 43.484a3.16 3.16 0 01-1.51-.38 22.34 22.34 0 1125.85-35.92 3.232 3.232 0 01-4.46 4.68 15.87 15.87 0 10-21.86 23 16 16 0 003.5 2.52 3.24 3.24 0 01-1.52 6.1zm21.32 18.38a3.24 3.24 0 01-.88-6.35 15.87 15.87 0 10-8.62-30.51 16.09 16.09 0 00-4.07 1.8 3.233 3.233 0 11-3.4-5.5 22.34 22.34 0 1117.89 40.44 3.57 3.57 0 01-.92.12zm-23.28-1.79a22.35 22.35 0 01-21.74-27.55 3.23 3.23 0 116.29 1.48 15.88 15.88 0 1031.3 3 3.233 3.233 0 016.46-.26 22.37 22.37 0 01-21.45 23.26h-.84z" fill="#ae0000"/></svg>