<svg xmlns="http://www.w3.org/2000/svg" width="39.714" height="39.714" fill="none" class="cex-ui-icon cex-ui-icon-product cex-ui-icon-left"><g fill="#0cc"><path d="M19.857 22.227h14.937l2.372-2.37-2.372-2.37H19.857a2.37 2.37 0 100 4.74z"/><path d="M19.857 8.754c-6.132 0-11.115 4.977-11.115 11.102S13.725 30.96 19.857 30.96h6.194l4.746-4.74h-10.94c-3.51 0-6.37-2.857-6.37-6.363 0-3.505 2.86-6.362 6.37-6.362h10.94l-4.746-4.74zM39.714 30.96v-4.74h-3.572l-4.746 4.74z"/><path d="M5.82 5.835C2.06 9.577 0 14.555 0 19.856c0 5.302 2.06 10.28 5.82 14.022a19.757 19.757 0 0014.037 5.813h19.857v-4.74H19.857a15.07 15.07 0 01-10.69-4.416 15.036 15.036 0 01-4.421-10.679c0-4.029 1.573-7.82 4.42-10.678a15.07 15.07 0 0110.69-4.416h19.858V.022H19.857C14.549.022 9.567 2.08 5.82 5.835z"/><path d="M36.142 13.494h3.572v-4.74h-8.317z"/></g><defs id="defs1062"><clipPath id="cex-full-logo_svg__clip0"><path d="M0 0h138.998v40H0z" fill="#fff" id="path1059"/></clipPath></defs></svg>