<svg xmlns="http://www.w3.org/2000/svg" width="127" height="127"><path d="M125.025 78.03c1.967 3.367 1.982 5.611.016 8.978l-15.732 26.939c-1.966 3.374-3.94 4.496-7.873 4.496H71.675l7.866-13.473c1.966-3.375 3.932-4.481 7.865-4.481h4.858c2.62 0 4.594-1.122 5.907-3.367l6.56-11.237c1.314-2.244 1.96-3.374 0-6.733l-6.56-11.229c-1.313-2.244-3.28-3.358-5.907-3.366H69.055c-4.05.008-5.899-1.122-7.865-4.489l-7.858-13.466h48.104c3.933 0 5.9 1.123 7.866 4.489zM48.233 90.151l7.866-13.466c1.966-3.366 1.958-5.61-.008-8.977L44.486 47.832c-1.305-2.244-1.313-4.488-.007-6.74l6.552-11.23c1.959-3.358 3.28-3.366 5.9-3.366h13.12c2.626 0 4.585 1.13 5.899 3.374l2.432 4.158c1.967 3.367 3.926 4.496 7.858 4.489h15.732L87.088 13.046c-1.967-3.367-3.941-4.497-7.874-4.489H47.76c-3.933 0-5.892 1.13-7.858 4.496L24.177 39.985c-1.967 3.366-1.967 5.61 0 8.977zM73.19 72.758c-3.925 0-5.891 1.122-7.858 4.488L53.728 97.122c-1.314 2.245-3.272 3.374-5.9 3.374H34.717c-3.925 0-4.585-1.122-5.899-3.366l-6.56-11.237c-1.306-2.244-1.306-4.496.008-6.74l2.433-4.159c1.966-3.366 1.974-5.61.007-8.977L16.84 52.544 1.963 78.03c-1.959 3.367-1.967 5.626.008 8.993l15.723 26.94c1.967 3.366 3.933 4.48 7.866 4.48h31.448c3.933 0 5.9-1.122 7.866-4.489L88.93 72.758z" fill="#0071ce"/></svg>