<svg xmlns="http://www.w3.org/2000/svg" class="logo-svg" width="39" height="39" fill="none"><g fill="#10d078"><path d="M37.705 1.845c-.147 0-3.413.147-7.473 1.118-5.503 1.294-9.622 3.442-12.152 6.355a65.797 65.797 0 00-1.56 1.854c-1 .265-3.766 1.03-5.031 1.265a2.87 2.87 0 00-1.795 1.177c-.912 1.324-2.501 4.031-2.56 4.149L5.31 20.882l3.325-1.442c1.442-.647 3.472-1.089 4.06-.736.03.03.059.03.088.206 0 .942.236 1.854.677 2.766a3.533 3.533 0 00-1.353 2.972v4.06h4.06c1.148.06 2.236-.47 2.972-1.353a6.713 6.713 0 002.766.677c.147.029.176.058.176.088.353.588-.088 2.619-.735 4.06l-1.442 3.296 3.119-1.825c.118-.058 2.825-1.647 4.149-2.56a2.796 2.796 0 001.177-1.794c.264-1.265 1-4.031 1.265-5.032.588-.47 1.206-1 1.853-1.56 6.827-6.031 7.445-19.095 7.474-19.654L39 1.786l-1.295.058zM13.255 16.41c-.766-.236-1.648-.206-2.502-.06.324-.529.648-1.03.912-1.412.06-.117.177-.176.324-.206.589-.117 1.5-.353 2.413-.559-.53.795-.883 1.53-1.148 2.237zm4 9.445a1.19 1.19 0 01-1.029.47h-.382l2.442-3.825-3.825 2.472v-.412c-.03-.412.147-.795.47-1.03l4.679-3.707c.235-.206.559-.353.853-.412l1.236-.294-.294 1.235c-.089.324-.206.618-.412.854zm8.769 2.971a.56.56 0 01-.206.324c-.382.265-.883.588-1.412.912.147-.853.176-1.736-.06-2.501a12.172 12.172 0 002.237-1.118c-.206.883-.441 1.765-.559 2.383zm3.884-7.885c-4.06 3.59-6.297 4.649-7.915 4.708h-.059c-.5 0-.912-.089-1.324-.236l2.177-2.766c.412-.53.707-1.118.883-1.765l1.177-4.943-4.943 1.177a4.293 4.293 0 00-1.765.853l-2.766 2.177a3.787 3.787 0 01-.236-1.324v-.059c.03-1.588 1.118-3.854 4.708-7.915 4.325-4.913 13.27-6.237 16.624-6.561-.324 3.384-1.648 12.328-6.561 16.654z"/><path d="M11.622 34.522c-1.5.294-3.03.382-4.56.412-.883 0-1.766-.03-2.678-.118.353-.589.677-1.177.971-1.795.56-1.265.971-2.53 1.295-3.825a32.365 32.365 0 011.088-3.649 45.9 45.9 0 011.413-3.619c-.471.471-.883.971-1.265 1.501-.383.53-.766 1.089-1.119 1.648-.676 1.118-1.265 2.354-1.765 3.56-.47 1.177-.971 2.354-1.56 3.413a16.95 16.95 0 01-2.088 2.972L0 36.61l2.09.294c1.647.235 3.324.353 5.001.294.853-.03 1.677-.088 2.53-.235a17.67 17.67 0 002.472-.56 15.582 15.582 0 004.56-2.206c.678-.5 1.325-1.06 1.854-1.707.53-.647 1.03-1.324 1.354-2.089-1.118 1.177-2.472 2.03-3.855 2.707-1.412.677-2.883 1.118-4.384 1.413zM29.055 15.85c1.06 0 2.119-.411 2.943-1.206a4.138 4.138 0 000-5.855 4.09 4.09 0 00-2.943-1.206c-1.118 0-2.148.44-2.942 1.206a4.138 4.138 0 000 5.855 4.14 4.14 0 002.942 1.207zm-1.294-5.413c.353-.353.794-.53 1.265-.53.47 0 .941.177 1.265.53a1.776 1.776 0 010 2.53 1.776 1.776 0 01-2.53 0c-.677-.677-.677-1.824 0-2.53z"/></g></svg>