<svg xmlns="http://www.w3.org/2000/svg" version="1.2" viewBox="-244 134.7 200.055 200.055" width="200.055" height="200.055"><g fill="#ff6c36"><path d="M-63.433 276.643c-1.9-1.3-4.4-1.2-6.3.1-1.9 1.3-2.7 3.8-2 6 .7 2.2 2.7 3.8 5 3.9 2.3.1 4.4-1.2 5.3-3.3 1-2.4.2-5.3-2-6.7-2.4-1.7 2.5 1.7 0 0z"/><path d="M-133.233 327.543c1.2 0 2.5 0 3.7-.1 2.5-.1 5-.3 7.4-.6 2-.2-4.1.5 0 0 2.5-.3 4.5 2 4 4.5-.3 1.1-1.1 2-2.1 2.5-.7.3-1.4.3-2.1.4-.8.1-1.7.2-2.5.2-6.6.5-13.2.4-19.8-.3-6-.7-11.8-1.8-17.6-3.6-5.6-1.7-11-3.9-16.2-6.6-5.3-2.7-10.2-5.9-14.9-9.5-5.4-4-10.3-8.6-14.7-13.7-4.4-5-8.3-10.5-11.6-16.2-3.4-5.9-6.2-12.1-8.3-18.6-2.2-6.6-3.6-13.4-4.4-20.3-.8-7-.8-14.1-.1-21.1.7-6.9 2.1-13.8 4.3-20.4 2.1-6.5 4.8-12.7 8.2-18.7 3.3-5.9 7.3-11.4 11.7-16.5 4.4-5 9.3-9.6 14.6-13.7 5.4-4.1 11.2-7.7 17.2-10.6 6.2-3 12.7-5.3 19.4-7 6.8-1.7 13.8-2.6 20.8-2.9 7-.2 14.1.3 21 1.5 6.7 1.2 13.3 3.1 19.7 5.6 6.3 2.5 12.3 5.7 17.9 9.4 5.6 3.7 10.8 8 15.6 12.8 2 2 3.8 4 5.1 6.6 1.1 2.2 1.7 4.7 1.9 7.1.3 5-1.4 10.1-4.8 13.8-3.9 4.4-9.8 6.8-15.6 6.4-2.8-.2-5.6-1-8.1-2.4-1.3-.7-2.5-1.6-3.5-2.6-1.2-1.1-2.3-2.4-3.5-3.5-4.9-4.6-10.5-8.3-16.6-11.1-6.3-2.8-13-4.6-19.8-5.2-7-.6-14.1-.1-20.9 1.6-6.6 1.7-12.9 4.5-18.7 8.2-5.6 3.7-10.6 8.3-14.7 13.5-4.2 5.3-7.5 11.3-9.8 17.7-2.3 6.5-3.5 13.4-3.5 20.3 0 7 1.1 13.9 3.4 20.5 2.2 6.4 5.5 12.3 9.6 17.6 4.1 5.3 9.1 9.9 14.7 13.6 5.7 3.8 12 6.6 18.7 8.3 6.8 1.8 13.9 2.3 20.9 1.7 6.8-.6 13.5-2.3 19.8-5.1.7-.3 1.3-.7 2-.8.6-.1 1.2-.1 1.8.1 1.2.4 2.1 1.3 2.4 2.5.3 1.1.1 2.4-.7 3.3-.4.5-1 .8-1.6 1.1-.8.3-1.5.7-2.3 1-6.4 2.7-13.1 4.4-20 5-7 .7-14.1.3-20.9-1.1.9 1 1.7 2.1 2.5 3.2s1.6 2.3 2.3 3.4c.1.2.4.6.4.6h.3c.4 0 .7.1 1.1.1.7.1 1.4.1 2.1.2 2.9.2 5.8.2 8.7.1 5.7-.3 11.4-1.1 16.9-2.7 5.3-1.5 10.5-3.6 15.4-6.2 4.8-2.6 9.3-5.6 13.4-9.2l3-2.7c.9-.8 1.6-1.8 2.7-2.3 1.9-1 4.2-.7 5.8.6 1.7 1.3 2.4 3.5 1.9 5.6-.3 1.1-.8 2-1.6 2.7-1 .9-1.9 1.9-2.9 2.8-4 3.6-8.3 6.9-12.9 9.7-4.7 2.9-9.6 5.3-14.8 7.2-5.3 2-10.7 3.4-16.3 4.3-5.7.9-11.5 1.3-17.3 1.1.5 1.3.9 2.6 1.3 3.9.2.6.3 1.2.5 1.8 0 .2.2.7.2.7z"/><path d="M-77.433 309.143c-5.6 4.2-11.7 7.8-18.1 10.6-3.2 1.4-6.5 2.6-9.9 3.7-1.7.5-3.4 1-5.1 1.4-.7.2-1.5.3-2.2.7-.6.3-1 .8-1.3 1.4-.7 1.3-.5 2.8.4 3.9 1 1.3 2.5 1.5 4 1.2 3.4-.8 6.8-1.8 10.1-3 6.6-2.3 13-5.4 19-9.1 1.5-.9 3-1.9 4.4-2.9.7-.5 1.5-1 2.2-1.5.6-.5 1.3-.9 1.8-1.6.8-1.1.8-2.7.1-3.9-.7-1.2-2.1-1.9-3.4-1.8-.8.2-1.5.5-2 .9-10.3 7.6 1.6-1.2 0 0zM-65.433 298.343c-.9 1-1.9 2-2.9 3-.8.8-1.7 1.5-2.1 2.6-.6 2.1.8 4.3 2.9 4.6 1.3.2 2.4-.3 3.3-1.1 1-.9 2-1.9 2.9-2.9.8-.8 1.7-1.6 2-2.8.2-.9.1-2-.4-2.8-1.2-2-4.1-2.3-5.7-.6-1.3 1.4 1.4-1.5 0 0zM-88.133 277.343c-2.3 2.4-4.7 4.6-7.3 6.6-.7.5-1.5 1.1-2.2 1.6-.6.4-1.1 1-1.4 1.7-.6 1.4-.2 3.1 1 4.1 1.4 1.2 3.2 1.1 4.7 0 1.4-1 2.8-2 4.1-3 1.2-1 2.4-2.1 3.6-3.2.7-.6 1.3-1.3 2-2 .6-.6 1.2-1.2 1.6-2 .6-1.6 0-3.5-1.5-4.4-1.5-.8-3.4-.6-4.6.6-3.5 3.7 1.4-1.4 0 0zM-132.833 211.143c-4.9 0-9.7 1.5-13.7 4.4-3.9 2.8-6.9 6.7-8.5 11.2-1.7 4.6-1.9 9.8-.5 14.6 1.3 4.6 4 8.7 7.7 11.7 3.7 3.1 8.4 5 13.2 5.3 4.9.4 9.9-.8 14.1-3.4 4.1-2.5 7.3-6.1 9.3-10.5 2-4.5 2.6-9.6 1.6-14.5-.9-4.7-3.4-9.1-6.8-12.4-3.5-3.3-8-5.5-12.7-6.3-1.3 0-2.5-.1-3.7-.1z"/></g></svg>