<svg xmlns="http://www.w3.org/2000/svg" width="39.826" height="39.826" viewBox="0 0 10.537 10.537"><path d="m3.969 3.334-2.444-1.59-.002.004 2.023 2.645z" fill="#26b2e3"/><path d="M5.298.003a5.255 5.255 0 0 0-3.773 1.742L3.97 3.334z" fill="#2b9ee3"/><path d="M10.365 7.134 6.59 5.907c-.21.378-.595.643-1.048.678l4.813.569.009-.02" fill="#247dbf"/><path d="M5.27 3.96a1.308 1.308 0 0 1 1.227.523l-.33-1.412z" fill="#2191c9"/><path d="m3.546 4.393.58.759c.047-.53.407-.97.895-1.134l-1.052-.684z" fill="#1c82d1"/><path d="m5.193 6.565-.026-.005-.61.42.853 3.557h.015z" fill="#247dbf"/><path d="M10.365 3.404A5.296 5.296 0 0 0 8.367.89l-2.2 2.181.33 1.413c.034.046.065.095.094.146l3.774-1.226" fill="#1f73d1"/><path d="M5.45 0h-.008c-.049 0-.096.002-.145.004L3.97 3.334l1.052.684a1.32 1.32 0 0 1 .249-.057l.897-.89z" fill="#1f73d1"/><path d="M8.367.89A5.225 5.225 0 0 0 5.45 0l.717 3.071z" fill="#1f57d6"/><path d="M3.546 4.393 1.523 1.748A5.246 5.246 0 0 0 .175 5.204l3.025.057z" fill="#33c2de"/><path d="M5.167 6.56a1.32 1.32 0 0 1-.86-.618l.25 1.039z" fill="#29b0bf"/><path d="m3.2 5.261.922.017v-.01a1.5 1.5 0 0 1 .005-.116l-.58-.76z" fill="#269cc9"/><path d="m5.193 6.565.232 3.972h.017a5.265 5.265 0 0 0 4.914-3.383l-4.813-.569a1.316 1.316 0 0 1-.35-.02M1.74 8.92l-.028.07a5.251 5.251 0 0 0 3.698 1.547L4.557 6.98z" fill="#30b0d6"/><path d="m.175 5.204-.002.065a5.25 5.25 0 0 0 1.51 3.69l.029.03.028-.07L3.2 5.262z" fill="#3de3e8"/><path d="m4.556 6.98-.249-1.038a1.314 1.314 0 0 1-.185-.663L3.2 5.26 1.74 8.92z" fill="#33d1d9"/></svg>