<svg xmlns="http://www.w3.org/2000/svg" width="32.798" height="32.798"><path d="M15.966 8.471c-.774.053-2.136-.11-3.802-1.397-2.626-2.03-2.343-4.116-2.283-4.456.06-.332 2.516-.818 5.076 1.045a5 5 0 0 0-.316 2.57c.074-1.205.607-2.76 2.444-4.157C20.756-.716 24.349-.039 24.432.425s.468 3.32-3.203 6.112c-2.297 1.746-4.177 1.993-5.263 1.933zm4.818 9.825a6.033 6.033 0 0 0 3.812 1.853 4.13 4.13 0 0 1 .575 2.11c0 2.298-1.872 4.163-4.181 4.163s-4.181-1.865-4.181-4.164c0-.798.225-1.544.617-2.178a6.015 6.015 0 0 0 1.81-.636 6.058 6.058 0 0 0 1.548-1.148zm.67-7.565a5.107 5.107 0 0 1 3.827-1.715c2.822 0 5.11 2.278 5.11 5.088s-2.288 5.089-5.11 5.089a5.107 5.107 0 0 1-3.826-1.715c.267-.393.49-.82.66-1.271a3.668 3.668 0 0 0 6.651-.671 4.572 4.572 0 0 1-3.467 1.584 4.566 4.566 0 0 1-3.087-1.196 5.987 5.987 0 0 0 .281-1.82c0-1.25-.383-2.41-1.038-3.373zm-10.11 6.747a5.107 5.107 0 0 1-3.827 1.715c-2.822 0-5.11-2.278-5.11-5.089s2.288-5.088 5.11-5.088a5.11 5.11 0 0 1 3.827 1.715 5.994 5.994 0 0 0-.75 5.219 4.566 4.566 0 0 1-3.058 1.17 4.573 4.573 0 0 1-3.503-1.628 3.668 3.668 0 0 0 6.657.73c.168.446.389.867.654 1.256zm3.919 2.602a4.13 4.13 0 0 1 .617 2.178c0 2.3-1.872 4.164-4.182 4.164s-4.18-1.865-4.18-4.164c0-.77.209-1.49.574-2.109a6.033 6.033 0 0 0 3.839-1.881 6.036 6.036 0 0 0 3.332 1.812zm5.087 7.36c.114.378.175.78.175 1.195 0 2.3-1.872 4.164-4.18 4.164s-4.182-1.864-4.182-4.164c0-.416.061-.817.175-1.196a5.113 5.113 0 0 0 4.006-2.926 5.113 5.113 0 0 0 4.006 2.926zm-6.858 2.314c.379 1.208 1.486 2.082 2.793 2.082 1.294 0 2.392-.857 2.781-2.047a3.624 3.624 0 0 1-2.772 1.297 3.626 3.626 0 0 1-2.802-1.332zm-4.581-6.34c.38 1.208 1.486 2.082 2.793 2.082 1.294 0 2.392-.857 2.782-2.046a3.624 3.624 0 0 1-2.773 1.296 3.626 3.626 0 0 1-2.802-1.331zm9.292 0c.379 1.208 1.486 2.082 2.793 2.082 1.294 0 2.392-.857 2.781-2.046a3.624 3.624 0 0 1-2.772 1.296 3.626 3.626 0 0 1-2.802-1.331zm-1.859-4.221c-2.822 0-5.11-2.278-5.11-5.089s2.288-5.088 5.11-5.088 5.11 2.278 5.11 5.088-2.287 5.089-5.11 5.089zm-3.484-3.7a3.668 3.668 0 0 0 6.969.042 4.572 4.572 0 0 1-3.466 1.585 4.573 4.573 0 0 1-3.503-1.628z" fill="#098dec"/></svg>