<svg xmlns="http://www.w3.org/2000/svg" viewBox="0 0 176 149"><defs><linearGradient id="c" x1="88" x2="88" y1="0" y2="96" gradientUnits="userSpaceOnUse"><stop offset=".1" stop-color="#94d4ff"/><stop offset=".3" stop-color="#78c9ff"/><stop offset=".9" stop-color="#01ae58" stop-opacity="0"/></linearGradient><path id="a" d="M56 0h64a48 48 0 1 1 0 96H56a48 48 0 1 1 0-96"/><mask id="b" width="176" height="148.9" x="0" y="0" maskUnits="userSpaceOnUse"><path fill="#0ebc5f" stroke-width="0" d="M125 20a51 51 0 1 1 0 102H88.7l-39.4 25.9a6 6 0 0 1-9.3-5v-22A51 51 0 0 1 51 20z"/></mask></defs><use fill="#00af57" href="#a"/><path fill="#0ebc5f" d="M125 20a51 51 0 1 1 0 102H88.6l-34.8 23c-3.9 2.6-5.8 3.9-7.4 4a6 6 0 0 1-5.6-3c-.8-1.4-.8-3.7-.8-8.4v-16.8A51 51 0 0 1 51 20z"/><g mask="url(#b)"><use fill="#0ebc5f" href="#a"/><use fill="url(#c)" href="#a"/><path fill="none" stroke="#fff" stroke-linecap="round" stroke-width="12" d="M54 66s8.8 18 34 18 34-17.2 34-17.2"/></g></svg>