<svg xmlns="http://www.w3.org/2000/svg" viewBox="0 0 28.5 28.48"><path fill="#ea4335" d="M28.5 6.64h-6.64V0z"/><path fill="#34a853" d="M21.86 6.64v10.2H10.05l-3.41 3.41v7.16c0 .94 1.16 1.43 1.84.75l4.69-4.69h13.39c1.09 0 1.95-.86 1.95-1.95V6.64h-6.64Z"/><path fill="#4285f4" d="M6.64 16.84H0V6.64h6.64z"/><path fill="#1967d2" d="M6.64 6.64H0V1.95C0 .86.86 0 1.95 0h4.69z"/><path fill="#188038" d="M6.64 16.84v6.64H1.95A1.93 1.93 0 0 1 0 21.53v-4.69z"/><path fill="#fbbc04" d="M21.86 0H6.64v6.64h15.22z"/></svg>