<svg xmlns="http://www.w3.org/2000/svg" viewBox="0 0 170.13 170.12"><path d="M133.88 10.095a34.43 34.43 0 0 0-58.76 23v32.65a3.08 3.08 0 0 0 3.07 3.08h29.82c10.49 0 18.77-2.94 25.87-10.05a34.49 34.49 0 0 0 0-48.68z" fill="#13202f"/><path d="M10.108 36.355a34.42 34.42 0 0 0 23 58.76h32.66a3.06 3.06 0 0 0 3.07-3.07v-29.82c0-10.48-2.93-18.77-10-25.87a34.5 34.5 0 0 0-48.73 0zm26.24 123.66a34.42 34.42 0 0 0 58.76-23v-32.68a3.07 3.07 0 0 0-3.07-3.07h-29.82c-10.48 0-18.77 2.93-25.87 10a34.5 34.5 0 0 0 0 48.75zm123.67-26.24a34.42 34.42 0 0 0-23-58.76h-32.68a3.06 3.06 0 0 0-3.07 3.07v29.82c0 10.48 2.93 18.77 10 25.87a34.5 34.5 0 0 0 48.75 0z" fill="#f03748"/></svg>
