<svg xmlns="http://www.w3.org/2000/svg" width="314.034" height="314.034"><path d="M232.72 226.434c-52.8-40.2-46.9-75.2-47.6-89.5h32.2c3.8-6.6 5.7-14 5.7-21.5l-36.5-24c22.6-16.3 27.8-47.9 11.5-70.5-5.6-7.7-13.2-13.8-22.1-17.3-5.9-2.4-47.2 133.4-47.2 133.4-.1 3.1-.2 7.2-.2 12.1 0 13.5 33.1 11.4 31.4 23.4-2.6 17.8-3.2 31.3-18.5 74.1-10.4 28.9-79.4 0-84.3 14.2-3.6 10.6-5.3 21.7-5.2 32.8 0 1.3 2.7 20.4 105.1 20.4s105.1-19.1 105.1-20.4c-.1-29.2-10.9-53.1-29.4-67.2z" fill="#4e7838"/><path d="M155.02 244.434c5.7-25.9 10.7-53.5 13.8-70 3.8-20.6-27.5-24.3-40.3-26.2-.6 17.6-5.5 46.2-47.4 78.2-11.3 8.6-19.7 20.9-24.6 35.8 11.3 5.5 26.4 8.8 49.7 8.8 14.9 0 42.6 1.8 48.8-26.6zm22-107.5c5-12.9 4.3-21.5 4.3-21.5l-20.7-24c22-9.4 35.2-27 35.2-47.5 0-15.8-7.4-30.6-19.9-40.2-25.8-10.5-55.3 1.9-65.9 27.7-8.8 21.6-1.7 46.4 17.2 60l-36.5 24c0 7.6 1.9 15 5.7 21.5z" fill="#6c9d41"/><path d="M154.02 10.134c29.1 4.5-13.4 38.4-26.9 36.8-12.7-1.6-.4-41 26.9-36.8z" fill="#94bb48"/></svg>