<svg xmlns="http://www.w3.org/2000/svg" version="1.0" width="31.7" height="31.7"><path fill="#924716" d="M5.7 28.85V2.65h21.9V28.85z"/><path fill="#793812" d="M25.7 28.85V4.25l1.9-1.6v26.2z"/><path fill="#9f5326" d="M3.5 2.65h23.8l-1.9 1.6H3.5z"/><g fill="#80b5e3"><path d="M19.1 7.35l4.7-.8 1.9 5.8 1.9 7.4 2.9 3-1.5 2.5 2.7 4.8-4.1-1.2H3.7V2.65h4.8l4.1 3.2 4-1.6zM0 15.75l1.9 3.2-1.9 3.3 1.9 3.3-1.9 4.5 3.7-1.2V2.65l-3.7-1 1.9 4.2L0 9.15l1.9 3.3z"/></g><path opacity=".2" fill="#fff" d="M3.5 2.65h4.8l2.1 1.6h-5z"/><g fill="#924716" transform="translate(0 1.65)"><path d="M18.3 13.7c-.7.6-2.5 1.9-4.4 2.3-2.3.5-3.6-1.4-3.1-3.2.5-2.1 2.8-3.7 4.8-3 .9.3.6 1.5.3 2.1-.8 1.5.3 1.7.8 1.2 1.5-1.6 2.4-4.3-.2-5.3-4-1.5-7.3 2.2-8.4 5.2-1.7 4.8 2.4 9 7.1 5.8 1.2-.8 2.6-2.2 3.5-3.4.8-1.2.3-2.3-.4-1.7z"/><ellipse transform="rotate(-45.009 22.435 11.483)" cx="22.4" cy="11.5" rx="1.6" ry="1.1"/><ellipse transform="rotate(-45.009 21.873 15.833)" cx="21.9" cy="15.8" rx="1.6" ry="1.1"/></g><path opacity=".2" fill="#fff" d="M3.7 2.65l2 1.6v22.9l-2 1.7z"/><g opacity=".2" fill="#342565"><path d="M5.7 27.15h20l1.9 1.7H3.7z"/><path d="M25.7 12.35l1.9 7.4v9.1l-1.9-1.7z"/></g></svg>