<svg width="512" height="512" xmlns="http://www.w3.org/2000/svg"><path style="fill:#00fda1" d="M0 256V0h512v512H0Z"/><path style="fill:#000" d="M0 256V0h512v512H0Zm385 103v-39h-58.607c-46.476 0-58.507-.259-58.125-1.25.266-.688 29.114-40.745 64.107-89.016C367.37 181.463 396 141.754 396 141.493c0-.261-23.402-.592-52.005-.734l-52.005-.259 15.505-21.397C316.023 107.335 323 97.548 323 97.353c0-.194-23.53-.353-52.29-.353h-52.29l-43.283 59.75-43.284 59.75 52.162.5 52.162.5-65.089 89.802C135.29 356.692 106 397.305 106 397.552c0 .246 62.775.448 139.5.448H385Z"/></svg>