<svg xmlns="http://www.w3.org/2000/svg" width="50" height="50" fill-rule="evenodd"><path d="M35.443 5.252a3.991 3.991 0 0 0-3.39-1.637h-14.1A3.99 3.99 0 0 1 21.377 5.3l14.53 19.703-14.53 19.704a3.991 3.991 0 0 1-3.426 1.679H32.05a3.991 3.991 0 0 0 3.392-1.632L50 25.003z" fill="#c41f3e"/><path d="m25.004 10.19-3.626-4.892a3.991 3.991 0 0 0-3.422-1.684 3.997 3.997 0 0 0-3.4 1.64L0 25.003l14.557 19.744a3.995 3.995 0 0 0 3.399 1.633 3.989 3.989 0 0 0 3.422-1.679l3.626-4.898-10.912-14.8z" fill="#8b1d41"/></svg>