<svg xmlns="http://www.w3.org/2000/svg" width="300" height="300"><path fill="#b00b1c" d="M0 13.363h300v273.273H0z"/><path d="M14.008 204.585v29.62c47.355-26.756 137.197-66.76 272.951-77.882v-6.395c-99.78 5.467-194.033 24.1-272.951 54.657" fill="#ffd401"/><path d="M14.008 245.1v20.333c67.575-50.125 166.536-84.62 272.951-96.02v-6.17c-105.151 9.51-197.568 37.91-272.951 81.856" fill="#fff"/><path d="M165.006 82.312c-2.836 0-4.586-.215-5.458-.39V62.11c0-3.654.136-7.064.479-9.408 1.093-.355 4.124-.846 6.379-.846 10.818 0 15.58 4.574 15.58 14.547 0 13.852-10.462 15.816-16.98 15.91m19.638 26.367c0 13.614-7.594 19.174-19.035 19.174-2.328 0-4.636-.27-6.061-.69V88.855h5.038c14.432 0 20.058 7.33 20.058 19.824m-4.583-24.302C190.347 81.495 198.999 74.15 198.999 63c0-10.694-6.957-17.884-21.199-17.884-6.803 0-15.342.693-21.504.693-6.053 0-12.493-.068-19.87-.457l-.467-.063v4.968l.434.034c6.174.466 6.629 1.656 6.629 11.636v59.01c0 5.28-.688 7.854-5.518 8.237l-1.423.114v4.884c4.686-.287 13.361-.499 17.134-.499 3.788 0 6.688.211 11.449.404 28.46 1.258 37.724-14.917 37.724-27.916 0-15.534-11.417-19.44-22.313-21.658zM91.062 122.182c-5.642 3.506-12.214 4.98-19.643 4.98-20.087 0-30.071-15.473-30.071-40.01 0-21.614 9.568-35.896 27.895-35.896 6.246 0 11.296 2.218 14.631 5.371.552 2.017 1.291 12.555 1.291 12.555l5.123.017v-.383c.047-4.564 1.32-15.176 2.281-20.515l.039-.41-.377-.02c-7.195-1.915-14.528-3.535-24.289-3.535-22.103 0-44.656 13.372-44.656 44.334 0 32.47 19.804 46.552 43.688 46.552 6.545 0 15.23-.998 22.243-4.84l.11-.047 3.399-6.459-1.381-1.868-.283.174M275.814 122.182c-5.629 3.506-12.193 4.98-19.647 4.98-20.075 0-30.054-15.473-30.054-40.01 0-21.614 9.569-35.896 27.891-35.896 6.253 0 11.301 2.218 14.634 5.371.539 2.017 1.281 12.555 1.281 12.555l5.146.017-.027-.383c.056-4.564 1.319-15.176 2.283-20.515l.052-.41-.375-.02c-7.216-1.915-14.547-3.535-24.312-3.535-22.088 0-44.639 13.372-44.639 44.334 0 32.47 19.803 46.552 43.7 46.552 6.523 0 15.23-.998 22.239-4.84l.099-.047 3.402-6.459-1.379-1.868-.294.174M114.179 45.81c-5.166 0-10.978-.069-15.91-.482l-.391-.039v4.923l.343.018c6.461.408 7.306 1.466 7.306 12.647v56.031c0 8.562-.417 9.882-6.995 10.303l-.354.037v4.922l.394-.043c4.965-.434 10.225-.513 15.373-.513 5.063 0 9.908.08 15.265.513l.391.043v-4.922l-.333-.037c-6.564-.42-6.934-1.742-6.934-10.303v-56.03c0-11.366.41-12.24 6.909-12.648l.336-.018V45.29l-.394.04c-5.331.412-9.93.48-15.006.48" fill="#ffd401"/></svg>