<svg xmlns="http://www.w3.org/2000/svg" version="1.2" viewBox="0 0 1530 1530"><path fill="#d00" d="M765 1529.3A763.5 763.5 0 0 1 .7 765 763.5 763.5 0 0 1 765 .7 763.5 763.5 0 0 1 1529.3 765 763.5 763.5 0 0 1 765 1529.3z"/><path fill="#fff" d="M616.7 1158.3a435.7 435.7 0 0 1-135.3-91.8 391.3 391.3 0 0 1-91.7-136.4 408.8 408.8 0 0 1-34.4-165.9c0-235 192.6-426.1 427.3-426.1 66.1 0 132.6 16.1 191.1 45.9a420.3 420.3 0 0 1 150.2 126.1l18.3 22.9-122.7 90.6-17.2-22.9a269.5 269.5 0 0 0-219.7-110.1 274.6 274.6 0 0 0-274.8 273.6c0 152.1 123.4 276 274.8 276 86.7 0 167-40.2 219.7-110.1l17.2-21.8 121.6 89.4-18.4 23a419.4 419.4 0 0 1-150.2 126.1 416 416 0 0 1-189.9 44.7 433.2 433.2 0 0 1-165.9-33.2z"/></svg>