<svg xmlns="http://www.w3.org/2000/svg" id="Layer_1" viewBox="0 0 369.4 99.63"><style>.st0{fill:#00599d}.st1{fill:#ffcb05}</style><path d="M367.2 59.5c-.1 0-.3.1-.5.1h-.5v-1h.4c.3 0 .5 0 .6.1.1.1.2.2.2.4s-.1.4-.2.4m.5.5c-.1-.2-.3-.2-.5-.3.2 0 .3-.1.4-.1.2-.1.3-.3.3-.6 0-.4-.2-.6-.5-.7-.2-.1-.4-.1-.8-.1h-1v2.9h.5V60h.4c.3 0 .5 0 .6.1.2.1.3.3.3.7v.3h.5v-.6c0-.2-.1-.3-.2-.5m1.3-.3c0 .6-.2 1.2-.7 1.6-.4.4-1 .7-1.6.7-.6 0-1.2-.2-1.6-.7-.4-.4-.7-1-.7-1.6 0-.6.2-1.2.7-1.6.4-.4 1-.7 1.6-.7.6 0 1.2.2 1.6.7.5.4.7.9.7 1.6m.4 0c0-.7-.3-1.3-.8-1.9-.5-.5-1.1-.8-1.9-.8-.7 0-1.3.3-1.8.8s-.8 1.1-.8 1.9c0 .7.3 1.4.8 1.9s1.1.8 1.9.8c.7 0 1.4-.3 1.9-.8.4-.6.7-1.2.7-1.9M52.3 99.2h9.4V57h-9.4v42.2zm69.9 0H162v-7.1h-30.5V81.7h20.1v-7.1h-20.1V64.1H161V57h-38.9v42.2zm80.6-29.7c0 2.1-.7 3.4-2.1 4.1-1.4.7-3.1 1-5.2 1h-17V64.2h17c2 0 3.8.4 5.2 1.2 1.4.8 2.1 2.2 2.1 4.1m9.4 0c0-4.6-1.4-7.8-4.3-9.7-2.9-1.9-7.2-2.8-12.9-2.8h-25.8v42h9.4V81.6H195c5.7 0 10-.9 12.9-2.6 2.9-1.7 4.3-4.9 4.3-9.5m5.6 29.7H259v-7.1h-32V57h-9.3v42.2zm48.3 0H306v-7.1h-30.5V81.7h20.1v-7.1h-20.1V64.1H305V57h-38.9v42.2zm-219-37.6c-1.3-.8-3.3-1.9-6.4-2.9-1.7-.6-3.6-1.2-5.9-1.5-2.2-.4-4.7-.7-7.4-.7-3.5 0-6.8.5-10.1 1.3-3.3.9-6.2 2.3-8.8 4.1C6 63.7 3.9 66 2.3 68.6.8 71.3 0 74.4 0 78c0 3.6.8 6.7 2.3 9.4 1.6 2.7 3.6 5 6.1 6.8 2.5 1.8 5.3 3.1 8.5 4 3.2.8 6.4 1.4 9.6 1.4 3.2 0 5.9-.2 8.5-.7 2.6-.5 5.1-1.3 7.1-2 0 0 2.4-1 5.3-2.5l-5.6-5.6c-1.1.6-2.3 1.2-3.7 1.7-1.6.6-3.4 1.1-5.4 1.6-2 .4-4.8.7-6.7.7-2.1 0-4.1-.3-6.1-1s-3.8-1.7-5.3-3c-1.6-1.3-2.8-2.9-3.8-4.7-1-1.8-1.4-3.9-1.4-6.2 0-2.3.4-4.3 1.3-6.1.8-1.8 2.1-3.3 3.6-4.5 1.6-1.2 3.4-2.1 5.5-2.7 2.1-.6 4.4-.9 7-.9 2.1 0 4.9.2 6.7.5 1 .2 1.9.4 2.7.6 0 0 2.4.6 5.4 2.5l5.5-5.7zM310.3 57l41.3 42h11.5l-41.4-42z" class="st0"/><path d="m363.1 57-41.4 42h-11.4l41.4-42zM115 99.1V56.9h-8.1v30.5L77 56.9h-8.1v42.2H77V68.7l29.9 30.4z" class="st0"/><path d="M263.1 22.1c0-11.7-33.7-21.3-76.3-22.1l-.4 3.2c35.2.8 62.9 9.3 62.9 19.6 0 10.6-29 19.2-65.4 19.7l.3 1.6c43.8-.4 78.9-10.1 78.9-22" class="st1"/><path d="M232.5 24.7c0 7.9-21.8 14.4-49.2 14.8l.3 1.6c31.9-.4 57.3-8 57.3-17.3 0-9-24.1-16.4-54.9-17.2l-.4 3.2c26.3.9 46.9 7.2 46.9 14.9" class="st1"/><path d="M224.2 25.7c0-6.4-17-11.7-38.9-12.3l-.4 3.2c17.4.6 30.9 4.8 30.9 9.9 0 5.3-14.6 9.6-33.1 9.9l.3 1.6c23-.2 41.2-5.6 41.2-12.3M98.3 22.1C98.3 10.4 132 .8 174.7 0l.4 3.2c-35.2.8-62.9 9.3-62.9 19.6 0 10.6 29 19.2 65.4 19.7l-.3 1.6c-43.9-.4-79-10.1-79-22" class="st1"/><path d="M128.9 24.7c0 7.9 21.8 14.4 49.2 14.8l-.3 1.6c-31.9-.4-57.3-8-57.3-17.3 0-9 24.1-16.4 54.9-17.2l.4 3.2c-26.3.9-46.9 7.2-46.9 14.9" class="st1"/><path d="M137.2 25.7c0-6.4 17-11.7 38.9-12.3l.4 3.2c-17.4.6-30.9 4.8-30.9 9.9 0 5.3 14.6 9.6 33.1 9.9l-.3 1.6c-23-.2-41.2-5.6-41.2-12.3" class="st1"/></svg>