<svg xmlns="http://www.w3.org/2000/svg" viewBox="0 0 759 759"><path fill="url(#a)" d="M624.8 184c28 9.2 52.3 19.1 72.5 34C666.5 95.5 566.7 20.5 439.7 15.1h-8.1c72 27.4 142.7 90 193.2 168.8z"/><path fill="url(#b)" d="M326.4 38.8c38.8-15 75.3-23.3 105.4-23.6C409.8 7 387.6 1.8 366.1.4c-51.2-3-93.4 9.9-128.6 32.3 29.4-6.5 59.7-5.1 88.9 6z"/><path fill="url(#c)" d="M332 735.7c-104.2-27.8-193.2-77-253-147 35.3 91.2 113.6 156.5 240.4 168.4 55.6 5.1 107.7-.7 155-17.3a309.7 309.7 0 0 1-142.4-4"/><path fill="url(#d)" d="M370.3 64.4a163.7 163.7 0 0 0-44-25.6 598.4 598.4 0 0 0-198 128.6c-34 71.9-50.1 148.8-59.6 192.2-8 37.5-11.9 74.5-11.4 109.7 73.4 119 254.5 219.3 361.7 225 96.5 5.1 199.3-79.5 251.1-213a610 610 0 0 0 27-89c-4.5-73-32-145.6-72-208.5-68.3-22.2-157-41.3-254.8-119.4m9 527.5c-115.8 0-212.3-93.8-212.3-211s96.5-214.1 212.3-214.1 212.5 96.7 212.5 214.1c0 117.2-96.7 211-212.5 211"/><path fill="url(#e)" d="M68.5 359.6C78 316.2 94.1 239 128 167.4 74 220.6 34 284 25.7 350.8c-5 39.7 7.6 80.1 31.1 118.5a494 494 0 0 1 11.7-109.7"/><path fill="url(#f)" d="M326.3 38.8c15 5.8 29.9 14.1 44 25.6 97.9 78.1 186.5 97.2 254.5 119.6-50.3-78.5-121-141.4-193.2-168.8-29.9.3-66.4 8.6-105.3 23.6"/><path fill="url(#g)" d="M696.6 392.3c14-65 13.2-123.9.5-174.6-20-14.8-44.5-24.7-72.5-34 40.4 63 67.5 135.7 72 208.6"/><path fill="url(#h)" d="M678.4 521.9a312.2 312.2 0 0 0 18.4-129.6 559 559 0 0 1-26.9 89c-52 133.7-154.8 218.1-251.1 213-107.3-5.7-288.4-106-361.7-225 .6 42.7 8 83 22 119.4 59.7 70 148.7 119 252.9 147 48 12.9 96.2 13.5 142.4 4.1 89.1-31.6 160.7-102.8 204-218z"/><path fill="url(#i)" d="M128 167.4A604.2 604.2 0 0 1 326 38.8a155.1 155.1 0 0 0-89-6.3c-49 31.4-84 81.7-109.1 135"/><path fill="url(#j)" d="M758 363.6c-4.2-79.3-26-120.1-61-146 12.8 50.8 13.5 109.4-.4 174.7 2.7 43.8-2.7 87.8-18.4 129.5-43.3 115.2-114.9 186.3-204 218 161-33 293.8-188.3 283.9-376.2"/><path fill="url(#k)" d="M25.9 350.8c8.3-67.1 48.5-130.2 102.3-183.4C153.3 114.2 188.3 64 237.5 32.7 109.8 60.6-9 233.4.5 391.4a326 326 0 0 0 78.8 197.3 344.3 344.3 0 0 1-22-119.4c-24-38.4-36.4-78.8-31.4-118.5"/><defs><linearGradient id="a" x1="226.8" x2="691.6" y1="116.5" y2="116.5" href="#l"><stop stop-color="#6400ff"/><stop offset="1" stop-color="#aa0aff"/></linearGradient><linearGradient id="b" x1="117.4" x2="734.2" y1="19.4" y2="19.4" href="#l"><stop stop-color="#8700dc"/><stop offset="1" stop-color="#0ff"/></linearGradient><linearGradient id="c" x1="30.6" x2="424.6" y1="673.8" y2="673.8" href="#l"><stop stop-color="#6400ff"/><stop offset="1" stop-color="#aa0aff"/></linearGradient><linearGradient id="d" x1="74.9" x2="736.5" y1="366.7" y2="366.7" href="#l"><stop offset=".1" stop-color="#8700dc"/><stop offset=".1" stop-color="#820add"/><stop offset=".3" stop-color="#7425e1"/><stop offset=".4" stop-color="#5d50e7"/><stop offset=".7" stop-color="#3d8cef"/><stop offset=".9" stop-color="#15d8fa"/><stop offset="1" stop-color="#0ff"/></linearGradient><linearGradient id="e" x1="-120.7" x2="312.5" y1="318.4" y2="318.4" href="#l"><stop offset=".1" stop-color="#8700dc"/><stop offset=".4" stop-color="#5c51e7"/><stop offset=".8" stop-color="#1acdf8"/><stop offset="1" stop-color="#0ff"/></linearGradient><linearGradient id="f" x1="107.1" x2="1320" y1="99.5" y2="99.5" href="#l"><stop stop-color="#8700dc"/><stop offset="1" stop-color="#0ff"/></linearGradient><linearGradient id="g" x1="635.4" x2="1078" y1="288.1" y2="288.1" href="#l"><stop stop-color="#41af55"/><stop stop-color="#3eb25c"/><stop offset=".4" stop-color="#24d3a1"/><stop offset=".7" stop-color="#10ebd4"/><stop offset=".9" stop-color="#04f9f3"/><stop offset="1" stop-color="#0ff"/></linearGradient><linearGradient id="h" x1="-588.6" x2="1163" y1="569.3" y2="569.3" href="#l"><stop stop-color="#8700dc"/><stop offset="1" stop-color="#0ff"/></linearGradient><linearGradient id="i" x1="45.6" x2="505.9" y1="98.1" y2="98.1" href="#l"><stop stop-color="#8700dc"/><stop offset="1" stop-color="#0ff"/></linearGradient><linearGradient id="j" x1="970.4" x2="377.3" y1="-135.5" y2="1037" href="#l"><stop stop-color="#41af55"/><stop stop-color="#3eb25c"/><stop offset=".4" stop-color="#24d3a1"/><stop offset=".7" stop-color="#10ebd4"/><stop offset=".9" stop-color="#04f9f3"/><stop offset="1" stop-color="#0ff"/></linearGradient><linearGradient id="k" x1="277.5" x2="-111.4" y1="-207.8" y2="869.3" href="#l"><stop stop-color="#41af55"/><stop stop-color="#3eb25c"/><stop offset=".4" stop-color="#24d3a1"/><stop offset=".7" stop-color="#10ebd4"/><stop offset=".9" stop-color="#04f9f3"/><stop offset="1" stop-color="#0ff"/></linearGradient><linearGradient id="l" gradientUnits="userSpaceOnUse"/></defs></svg>
