<svg xmlns="http://www.w3.org/2000/svg" class="white-mode" id="Layer_2" data-name="Layer 2" version="1.1" width="231.831" height="231.831"><defs id="defs1159"><linearGradient id="linear-gradient" x1="177.86" y1="291.18" x2="341.06" y2="127.98" gradientUnits="userSpaceOnUse"><stop offset="0" stop-color="#b090f5" id="stop1149"/><stop offset="1" stop-color="#5fbfff" id="stop1151"/></linearGradient><linearGradient id="linear-gradient-2" x1="96.43" y1="207.75" x2="259.64" y2="44.55" gradientUnits="userSpaceOnUse"><stop offset="0" stop-color="#68d7fa" id="stop1154"/><stop offset="1" stop-color="#4ee498" id="stop1156"/></linearGradient><style id="style1147"></style></defs><g id="g1186" transform="translate(-102.815 -51.93)"><path d="M319.43 110.37l-5-8.78a5.14 5.14 0 00-8.11-1.08L294.82 112a5.17 5.17 0 00-.64 6.51 90.22 90.22 0 0110 20.58 90.2 90.2 0 01-85.45 119 89.38 89.38 0 01-42.26-10.49l19.45-19.46a64.41 64.41 0 0080.77-88.29 5.15 5.15 0 00-8.29-1.41L256.76 150a5.14 5.14 0 00-1.37 4.82l1 4.18a38.63 38.63 0 01-56.75 42.39l-5.13-2.94a5.13 5.13 0 00-6.2.83l-47.51 47.5a5.15 5.15 0 00.51 7.73l7 5.37a114.86 114.86 0 0070.46 23.88 116 116 0 00100.66-173.39z" id="path1161" fill="url(#linear-gradient)"/><path d="M289.21 75.82a114.83 114.83 0 00-70.46-23.89 116 116 0 00-100.69 173.44l5 8.77a5.16 5.16 0 008.12 1.09l11.48-11.48a5.19 5.19 0 00.64-6.5 89.81 89.81 0 01-10-20.58 90.2 90.2 0 0185.45-119A89.29 89.29 0 01261 88.19l-19.46 19.45a64.39 64.39 0 00-87.21 60.23c0 1.07.29 5.95.38 6.79a64.76 64.76 0 006.07 21.27 5.16 5.16 0 008.3 1.41l11.64-11.65a5.15 5.15 0 001.38-4.81l-1-4.19a38.62 38.62 0 0156.75-42.38l5.13 2.94a5.16 5.16 0 006.2-.83l47.5-47.5a5.16 5.16 0 00-.5-7.74z" id="path1163" fill="url(#linear-gradient-2)"/></g></svg>