<svg xmlns="http://www.w3.org/2000/svg" class="white-mode" data-name="Layer 2" width="231.831" height="231.831"><defs><linearGradient id="a" x1="177.86" y1="291.18" x2="341.06" y2="127.98" gradientUnits="userSpaceOnUse"><stop offset="0" stop-color="#b090f5"/><stop offset="1" stop-color="#5fbfff"/></linearGradient><linearGradient id="b" x1="96.43" y1="207.75" x2="259.64" y2="44.55" gradientUnits="userSpaceOnUse"><stop offset="0" stop-color="#68d7fa"/><stop offset="1" stop-color="#4ee498"/></linearGradient></defs><path d="m319.43 110.37-5-8.78a5.14 5.14 0 0 0-8.11-1.08L294.82 112a5.17 5.17 0 0 0-.64 6.51 90.22 90.22 0 0 1 10 20.58 90.2 90.2 0 0 1-85.45 119 89.38 89.38 0 0 1-42.26-10.49l19.45-19.46a64.41 64.41 0 0 0 80.77-88.29 5.15 5.15 0 0 0-8.29-1.41L256.76 150a5.14 5.14 0 0 0-1.37 4.82l1 4.18a38.63 38.63 0 0 1-56.75 42.39l-5.13-2.94a5.13 5.13 0 0 0-6.2.83l-47.51 47.5a5.15 5.15 0 0 0 .51 7.73l7 5.37a114.86 114.86 0 0 0 70.46 23.88 116 116 0 0 0 100.66-173.39z" fill="url(#a)" transform="translate(-102.815 -51.93)"/><path d="M289.21 75.82a114.83 114.83 0 0 0-70.46-23.89 116 116 0 0 0-100.69 173.44l5 8.77a5.16 5.16 0 0 0 8.12 1.09l11.48-11.48a5.19 5.19 0 0 0 .64-6.5 89.81 89.81 0 0 1-10-20.58 90.2 90.2 0 0 1 85.45-119A89.29 89.29 0 0 1 261 88.19l-19.46 19.45a64.39 64.39 0 0 0-87.21 60.23c0 1.07.29 5.95.38 6.79a64.76 64.76 0 0 0 6.07 21.27 5.16 5.16 0 0 0 8.3 1.41l11.64-11.65a5.15 5.15 0 0 0 1.38-4.81l-1-4.19a38.62 38.62 0 0 1 56.75-42.38l5.13 2.94a5.16 5.16 0 0 0 6.2-.83l47.5-47.5a5.16 5.16 0 0 0-.5-7.74z" fill="url(#b)" transform="translate(-102.815 -51.93)"/></svg>