<svg xmlns="http://www.w3.org/2000/svg" viewBox="0 0 90 90"><path fill="#07BEEB" d="M1.95 35.42A1.98 1.98 0 000 37.32v4.39a1.95 1.95 0 003.9 0v-4.39c-.01-.5-.23-1-.6-1.34a1.94 1.94 0 00-1.35-.56zm10.77-5.44c-.51 0-1 .2-1.36.55-.36.35-.58.83-.6 1.34v9.84a1.95 1.95 0 003.9 0v-9.84a1.94 1.94 0 00-1.95-1.9zm10.76-7.48c-.5 0-1 .2-1.36.55-.36.36-.58.84-.6 1.35v21.27a1.99 1.99 0 001.96 1.83 1.99 1.99 0 001.95-1.83V24.4c-.02-.51-.23-1-.6-1.35a1.95 1.95 0 00-1.35-.55zm10.76 7.48c-.5 0-1 .2-1.36.55-.36.35-.58.83-.6 1.34v9.84c.04.5.26.96.63 1.3a1.95 1.95 0 003.28-1.3v-9.84c-.02-.5-.23-.99-.6-1.34a1.95 1.95 0 00-1.35-.55zM45 35.42a1.98 1.98 0 00-1.95 1.9v4.39a1.95 1.95 0 003.9 0v-4.39c-.02-.5-.23-1-.6-1.34a1.94 1.94 0 00-1.35-.56zm10.76-5.44c-.5 0-.99.2-1.35.55-.37.35-.58.83-.6 1.34v9.84a1.95 1.95 0 003.9 0v-9.84c-.01-.5-.23-.99-.6-1.34a1.94 1.94 0 00-1.35-.55zm10.76-7.48c-.5 0-.99.2-1.35.55-.37.36-.58.84-.6 1.35v21.27a1.98 1.98 0 001.95 1.83 1.99 1.99 0 001.95-1.83V24.4c-.01-.51-.23-1-.6-1.35a1.95 1.95 0 00-1.35-.55zm10.76 7.48c-.5 0-.99.2-1.35.55-.36.35-.58.83-.6 1.34v9.84a1.99 1.99 0 001.95 1.83 1.99 1.99 0 001.95-1.83v-9.84a1.95 1.95 0 00-1.95-1.9zm12.12 6a1.95 1.95 0 00-3.3 1.34v4.39a1.99 1.99 0 001.95 1.83A1.95 1.95 0 0090 41.71v-4.39c-.02-.5-.23-1-.6-1.34zM44 61.77a4.64 4.64 0 00-1.65-.96l-2.7-1a1.45 1.45 0 01-.74-.71.93.93 0 01.03-.83c.05-.09.1-.17.18-.24a1.46 1.46 0 01.4-.3c.3-.14.63-.24.96-.27a5.6 5.6 0 011.73.02c.67.07 1.34.19 2 .35l.14.04v-3.33l-.26-.05c-.67-.16-1.35-.28-2.03-.37-.9-.11-1.8-.12-2.68 0-1.13.1-2.2.53-3.08 1.24a4.1 4.1 0 00-1.32 1.82c-.4 1.1-.4 2.29 0 3.38.2.55.52 1.04.94 1.43.37.36.78.66 1.23.9.59.31 1.21.56 1.86.73l.64.2.32.12.1.04c.3.11.6.29.84.52.17.16.3.36.38.57.05.2.05.4 0 .6-.1.33-.32.6-.62.75-.32.17-.67.28-1.03.33-.53.08-1.07.1-1.6.08a18.24 18.24 0 01-3.17-.54l-.13-.03-.01 3.6.26.05a22.12 22.12 0 004.7.36 9.2 9.2 0 002.06-.39 5.71 5.71 0 002.14-1.15c.56-.48 1-1.1 1.25-1.8a4.95 4.95 0 00-.02-3.6A4.05 4.05 0 0044 61.76zm-27.96-7.71c-1.17.03-2.32.3-3.39.78a7.74 7.74 0 00-2.77 2.15 8.39 8.39 0 00-.16 10.18A7.95 7.95 0 0014.13 70c1.85.45 3.78.38 5.59-.2l.3-.08v-4.18l-.08.04a7.7 7.7 0 01-3 .76 4.4 4.4 0 01-3.03-.9 3.88 3.88 0 01-1.32-1.87 4.52 4.52 0 01-.08-2.5 4.01 4.01 0 013.45-3.06c1.36-.15 2.75.1 3.97.75l.1.04v-4.2l-.2-.05c-1.22-.4-2.5-.57-3.8-.5zm9.41 15.95h3.95V54.33h-3.95V70zm31.78-15.95c-1.17.03-2.32.3-3.39.78a7.75 7.75 0 00-2.77 2.15 8.39 8.39 0 00-.16 10.18A7.95 7.95 0 0055.32 70c1.85.45 3.78.38 5.59-.2l.3-.08v-4.18l-.08.04c-.94.45-1.96.71-3 .76a4.4 4.4 0 01-3.03-.9 3.88 3.88 0 01-1.32-1.87 4.52 4.52 0 01-.08-2.5 4.01 4.01 0 013.45-3.06c1.36-.15 2.75.1 3.97.75l.1.04v-4.2l-.2-.05c-1.22-.4-2.5-.57-3.8-.5zM78 55.28a8.26 8.26 0 00-12.64 6.9 8.26 8.26 0 0010 7.92A8.04 8.04 0 0078 55.28zm-.26 7.36a4.13 4.13 0 01-4.54 3.64 4.1 4.1 0 01-3.63-4.56 4.13 4.13 0 014.54-3.64 4.1 4.1 0 013.63 4.56z"/></svg>