<svg xmlns="http://www.w3.org/2000/svg" viewBox="0 0 92.5 102.1"><path fill="#3ac1cc" d="M92.5 32.7c0-1.9-1.9-3.2-3.7-2.6C84.9 31.6 46 71.7 46 71.7l18.1 10.5a24 24 0 0 0 19.3.8l.8-.3.4-.2.3-.2.4-.2a14 14 0 0 0 7.1-12.2l.1-23.7V45ZM28.4 49.5l-.1 1.4a23 23 0 0 1-10.8 16.8L2.1 76.6l-.1-.1c-1-1.8-1.8-4-2-6.1V33.2L.2 31c.3-1.9.9-3.7 1.8-5.3l.5-.8c1.3-2 3.1-3.7 5.2-4.9L38.6 2.2l-1.3 1a23.4 23.4 0 0 0-8.8 16.9z"/><path fill="#185a7d" d="M64.1 82.2a24 24 0 0 0 19.3.8l.8-.3.4-.2-30.7 17.6-1 .5-1.6.7c-1.4.5-2.8.8-4.3.8h-1c-2.3 0-4.6-.6-6.7-1.7l-.7-.4c-9-5.2-22.3-12.8-31.1-18.1l-.9-.6c-1.8-1.2-3.4-3-4.5-4.8l15.3-8.8c3.4-1.9 7.1-2.8 10.7-2.9 3.6 0 7.3 1 10.5 2.6l2.6 1.5 22.9 13.3m21.4-61.7L53.4 1.9a14.2 14.2 0 0 0-14.1 0l-.4.2-.2.1-1.3 1a23.4 23.4 0 0 0-8.8 16.9L28.5 41c.8-.2 54.3-13.4 57.5-16 1.3-1.2 1.1-3.5-.5-4.5"/></svg>
