<svg xmlns="http://www.w3.org/2000/svg" width="190" height="190"><path d="M190 95.24c0 5.89-1.67 10.185-5.012 12.89-3.342 2.707-7.64 4.057-12.89 4.057-3.504 0-11.899-1.71-25.184-5.133-13.286-3.417-28.206-6.086-44.753-7.994 7.162 9.865 13.844 18.1 20.05 24.705a4702.264 4702.264 0 0115.517 16.587c4.295 4.618 7.637 8.674 10.024 12.175 2.386 3.5 3.578 7.243 3.578 11.218 0 4.298-1.909 8.038-5.726 11.219-3.82 3.183-7.876 4.772-12.174 4.772-2.865 0-5.57-.834-8.115-2.507-2.545-1.67-4.698-4.017-6.446-7.039-2.548-4.615-5.052-12.016-7.516-22.198-2.47-10.185-7.92-25.143-16.352-44.877-7.637 18.94-12.971 33.934-15.994 44.995-3.023 11.06-5.65 18.42-7.876 22.08-2.07 3.183-4.177 5.57-6.325 7.16-2.147 1.591-4.894 2.385-8.236 2.385-4.453 0-8.553-1.51-12.292-4.534-3.74-3.022-5.608-6.842-5.608-11.457 0-3.82 1.111-7.398 3.342-10.74 2.226-3.343 5.646-7.56 10.263-12.653 3.976-4.136 9.267-9.787 15.874-16.947 6.6-7.16 13.164-15.274 19.69-24.345-15.594 1.592-30.114 4.177-43.561 7.755-13.447 3.581-22.238 5.372-26.375 5.372-5.25 0-9.549-1.313-12.891-3.938C1.672 105.622 0 101.286 0 95.238c0-5.408 1.673-9.585 5.012-12.53 3.342-2.942 7.64-4.416 12.89-4.416 4.774 0 13.168 1.67 25.184 5.011 12.013 3.344 26.93 5.89 44.753 7.64a305.588 305.588 0 00-19.572-23.986c-6.843-7.557-12.175-13.33-15.992-17.304-4.46-4.776-7.839-8.873-10.145-12.295-2.308-3.42-3.46-7.12-3.46-11.098 0-4.298 1.909-8.034 5.729-11.218 3.817-3.184 7.876-4.776 12.171-4.776 2.867 0 5.527.797 7.997 2.39 2.465 1.588 4.655 3.978 6.564 7.159 2.225 3.817 5.17 12.372 8.832 25.658C83.622 58.76 88.633 72.563 95 86.885c7.16-16.23 12.37-30.435 15.635-42.605 3.259-12.174 6.005-20.327 8.233-24.466 1.748-3.023 3.858-5.372 6.325-7.042 2.467-1.672 5.213-2.507 8.236-2.507 4.453 0 8.55 1.514 12.292 4.537 3.74 3.022 5.608 6.842 5.608 11.457 0 6.526-4.416 14.164-13.245 22.915-8.835 8.75-20.808 22.676-35.924 41.77 17.186-1.912 32.107-4.497 44.753-7.759 12.652-3.26 21.046-4.893 25.183-4.893 5.25 0 9.549 1.433 12.891 4.295C188.33 85.456 190 89.672 190 95.24" fill-rule="evenodd"/></svg>