<svg xmlns="http://www.w3.org/2000/svg" width="92" height="92"><g fill-rule="evenodd"><path d="M28.07 64.153l-.166.161c-2.653 2.704-5.725 4.137-8.888 4.137-6.603 0-11.397-4.956-11.397-11.793 0-6.824 4.794-11.784 11.397-11.784 3.163 0 6.235 1.435 8.888 4.145l.165.166 4.247-5.138-.113-.138c-3.53-4.176-7.771-6.204-12.982-6.204-5.225 0-10.008 1.76-13.452 4.932C2.025 46.074.051 50.92.051 56.658c0 5.736 1.974 10.596 5.718 14.033 3.444 3.188 8.227 4.935 13.452 4.935 5.211 0 9.452-2.03 12.982-6.205l.113-.128-4.247-5.14M36.608 74.926h7.504V38.298h-7.504v36.628M73.507 66.963c-2.007 1.218-3.868 1.834-5.543 1.834-2.424 0-3.52-1.28-3.52-4.13V45.23h7.644v-6.897h-7.644V26.934l-7.353 3.937v7.462h-6.346v6.897h6.346v20.677c0 5.63 3.336 9.479 8.32 9.583 3.38.064 5.418-.943 6.657-1.681l.076-.052 1.803-7.064-.44.27M79.717 74.926h7.511V38.298h-7.51v36.628" fill="#154281"/><path d="M91.603 31.875c-6.855-9.709-18.238-15.501-29.819-15.501-11.579 0-22.965 5.792-29.808 15.501l-.352.499h8.633l.092-.104c5.879-6.06 13.548-9.268 21.435-9.268 7.885 0 15.552 3.208 21.44 9.268l.1.104h8.625l-.346-.499" fill="#ed192d"/></g></svg>