<svg xmlns="http://www.w3.org/2000/svg" version="1.1" id="Layer_1" x="0" y="0" xml:space="preserve" width="149.725" height="149.725"><style type="text/css" id="style12155">.st0{fill:#00a677}</style><g id="g12177" transform="translate(-382.537 -153.837)"><g id="g12175"><path class="st0" d="M528.7 300c-4.7 4.7-12.4 4.8-17.1 0l-27.9-27.9.2 19.4c.2 7.6-5.1 12-11.8 12-6.8 0-12.1-5.3-12.1-12v-24.1c0-5.3 3.2-9.5 7.6-11.2 8-3.1 14.2-9.4 17.3-17.3 1.6-4.3 5.9-7.6 11.2-7.6h24.1c6.6 0 12 5.3 12 12.2 0 6.6-4.4 12-12 11.8l-19.4-.2 27.9 27.9c4.8 4.6 4.7 12.3 0 17z" id="path12167" fill="#00a677"/><path class="st0" d="M528.7 157.4c4.7 4.7 4.8 12.4 0 17.1l-27.9 27.9 19.4-.2c7.6-.2 12 5.1 12 11.8 0 6.8-5.3 12.1-12 12.1h-24.1c-5.3 0-9.5-3.2-11.2-7.6-3.1-8-9.3-14.2-17.3-17.3-4.3-1.6-7.6-5.9-7.6-11.2v-24.1c0-6.6 5.3-12 12.2-12 6.6 0 12 4.4 11.8 12l-.2 19.4 27.9-27.9c4.6-4.8 12.3-4.7 17 0z" id="path12169" fill="#00a677"/><path class="st0" d="M386.1 157.4c4.7-4.7 12.4-4.8 17.1 0l27.9 27.9-.2-19.4c-.2-7.6 5.1-12 11.8-12 6.8 0 12.1 5.3 12.1 12V190c0 5.3-3.2 9.5-7.6 11.2-8 3.1-14.2 9.4-17.3 17.3-1.6 4.3-5.9 7.6-11.2 7.6h-24.1c-6.6 0-12-5.3-12-12.1 0-6.7 4.4-12 12-11.8l19.4.2-27.9-27.9c-4.8-4.8-4.7-12.5 0-17.1z" id="path12171" fill="#00a677"/><path class="st0" d="M386.1 300c-4.7-4.7-4.8-12.4 0-17.1L414 255l-19.4.2c-7.6.2-12-5.1-12-11.8 0-6.8 5.3-12.1 12-12.1h24.1c5.3 0 9.5 3.2 11.2 7.6 3.1 8 9.4 14.2 17.3 17.3 4.3 1.6 7.6 5.9 7.6 11.2v24.1c0 6.6-5.3 12-12.1 12-6.6 0-12-4.4-11.8-12l.2-19.4-27.9 27.9c-4.8 4.7-12.5 4.7-17.1 0z" id="path12173" fill="#00a677"/></g></g></svg>