<svg xmlns="http://www.w3.org/2000/svg" viewBox="0 0 117.7 84.1"><path fill="#0a4d7f" d="M34.2 49.8c-4.6 5.2 0 7.7 0 7.7l.5.2c-.7-2.8-.8-5.4-.5-7.9zm29.9 6.7a37.3 37.3 0 0 0-7.8 10.6h-2.2c1.4-3.1 2.3-5.7 2.8-7.8l-.9.3a42 42 0 0 1-12.6 2.3A18.5 18.5 0 0 0 55 69.1a27.5 27.5 0 0 0 22.7-8.5c-8.7-4.8-13.6-4.1-13.6-4.1z"/><path fill="#0a4d7f" d="M98 34s6.9-17.2-8.9-29c0 0-25.3-16.7-39.5 11.2 0 0-10.1-10.1-22.6-2.3-10.7 6.7-8.9 15.8-7.9 20.3 0 0-20.2 5.9-19.1 27.4.8 16 16.2 20.8 22.2 22.1 1.3.3 2.7.4 4 .4h66.2c1.3 0 2.6-.1 3.9-.4 6-1.2 21.7-6 21.4-23C117.3 39.7 98 34 98 34ZM54.6 72.5c-13.4-.2-18.2-10.2-18.2-10.2l-.7-1.6c-3.7-1.4-5.9-4-5.3-7.8.5-3.9 4.9-7.7 4.9-7.7a35.8 35.8 0 0 1 8.3-13.3s4.8-5.1 10.1-7.8l9.1 1.4c-20.7 8.4-21.7 25.8-21.7 25.8-.1 2.6.2 4.9.8 6.8l2.7-.3c5.1-.8 9.5-2.2 13.2-3.8-.1-3.4-1.7-4.3-1.7-4.3s-1.9-2.1-9.6-3.4l.7-1s3.8.8 8.1 0c4.7-.9 9-4.1 13.8-10.7l2.3-.1c-4.7 6.2-5 10.9-4.2 14 4.7-3.5 6.9-6.5 6.9-6.5 8.4-11.8-3.3-10-3.3-10l3.5-4.2c17.9 3.9 1.5 20 1.5 20-1.9 1.9-4 3.6-6.1 5.1.3.3 3.4 3.5 9.3 6.4a25 25 0 0 0 2.4-2.9l2.3.4c-14 17-29.1 15.7-29.1 15.7zM60.9 39a3.8 3.8 0 1 1-3.8-3.9 3.6 3.6 0 0 1 3.8 3.9z"/></svg>