<svg xmlns="http://www.w3.org/2000/svg" viewBox="0 0 96 91"><path fill="#041A55" d="M31.955 6.73a3.732 3.732 0 0 1-.706-5.258 3.798 3.798 0 0 1 5.298-.7 3.694 3.694 0 0 1 1.532 2.425c.349 2.04-1.033 3.975-3.088 4.324a3.776 3.776 0 0 1-2.82-.639 3.73 3.73 0 0 1-.216-.152Zm27.994.444a3.848 3.848 0 0 0 1.694.4 3.89 3.89 0 0 0 1.205-.203c1.999-.67 3.072-2.821 2.396-4.805A3.8 3.8 0 0 0 63.354.4c-1.885-.933-4.176-.173-5.116 1.698a3.772 3.772 0 0 0 1.711 5.077Zm24.933 8.954c-2.01-.627-4.15.482-4.782 2.476-.631 1.994.486 4.119 2.495 4.745.37.113.756.172 1.144.174a3.76 3.76 0 0 0 1.763-.437 3.767 3.767 0 0 0 1.625-5.098 3.802 3.802 0 0 0-2.227-1.86h-.018ZM95.24 43.182a3.835 3.835 0 0 0-5.34-.767 3.768 3.768 0 0 0-.773 5.3 3.835 3.835 0 0 0 5.34.767 3.783 3.783 0 0 0 1.492-2.484 3.75 3.75 0 0 0-.719-2.816ZM83.726 67.378h-.043c-2.17.097-3.851 1.92-3.754 4.075.093 2.035 1.746 3.657 3.797 3.727h.075c2.17-.097 3.85-1.921 3.753-4.076-.093-2.035-1.746-3.657-3.797-3.726h-.031ZM63.847 84.123a3.834 3.834 0 0 0-5.32.9 3.769 3.769 0 0 0 .908 5.28 3.834 3.834 0 0 0 5.32-.9 3.765 3.765 0 0 0-.907-5.28Zm-30.715-.449c-1.96.664-3.007 2.78-2.338 4.725a3.748 3.748 0 0 0 3.52 2.52 3.84 3.84 0 0 0 1.184-.194c1.993-.562 3.149-2.62 2.583-4.598-.567-1.977-2.64-3.124-4.633-2.563a3.702 3.702 0 0 0-.346.116l.03-.006Zm-19.74-16.018c-2.015-.626-4.16.489-4.791 2.49-.63 2 .493 4.13 2.51 4.756a4 4 0 0 0 1.135.174c2.114-.01 3.82-1.718 3.812-3.816a3.803 3.803 0 0 0-2.665-3.604ZM1.543 42.407a3.769 3.769 0 0 0-.79 5.298 3.835 3.835 0 0 0 5.338.785 3.769 3.769 0 0 0 .79-5.299l-.005-.007a3.835 3.835 0 0 0-5.333-.777Zm10.722-18.882h.042c2.107-.094 3.739-1.865 3.644-3.956-.09-1.976-1.694-3.552-3.686-3.619h-.042c-2.107.094-3.739 1.866-3.644 3.957.09 1.976 1.694 3.551 3.686 3.618Zm12.288-3.796a3.818 3.818 0 0 0 2.851.646c2.078-.355 3.472-2.314 3.114-4.375-.358-2.061-2.331-3.445-4.408-3.09a3.82 3.82 0 0 0-2.462 1.536 3.775 3.775 0 0 0 .905 5.283Zm21.677-6.763c.522.26 1.099.398 1.683.4a3.908 3.908 0 0 0 1.202-.203c1.998-.656 3.082-2.795 2.421-4.777-.66-1.982-2.815-3.058-4.813-2.403-1.998.656-3.082 2.794-2.421 4.777a3.734 3.734 0 0 0 1.929 2.206Zm21.481 7.127c.37.113.753.172 1.14.174 2.107 0 3.817-1.694 3.818-3.785.001-2.092-1.706-3.789-3.814-3.79-2.107-.001-3.817 1.693-3.818 3.785a3.79 3.79 0 0 0 2.674 3.616Zm13.772 17.928c.187.028.376.042.564.041 2.108 0 3.817-1.695 3.817-3.786 0-2.092-1.708-3.788-3.816-3.788-2.107 0-3.816 1.695-3.816 3.787a3.796 3.796 0 0 0 3.251 3.746Zm.607 22.366c2.107-.094 3.739-1.865 3.644-3.956-.09-1.976-1.695-3.551-3.686-3.618h-.042c-2.107.093-3.739 1.865-3.644 3.956.09 1.976 1.694 3.551 3.686 3.618h.042ZM71.061 71.428a3.835 3.835 0 0 0-5.322.9 3.77 3.77 0 0 0 .907 5.281 3.835 3.835 0 0 0 5.32-.896 3.776 3.776 0 0 0-.905-5.285Zm-24.276 6.24c-2.011.682-3.086 2.853-2.399 4.85A3.846 3.846 0 0 0 48 85.102a3.95 3.95 0 0 0 1.215-.199 3.81 3.81 0 0 0 2.176-4.95 3.857 3.857 0 0 0-4.635-2.28l.03-.005Zm-16.359-4.742a3.764 3.764 0 0 0-2.24-1.853c-2.011-.624-4.151.488-4.78 2.484-.628 1.995.492 4.119 2.503 4.742a3.816 3.816 0 0 0 4.776-2.487 3.71 3.71 0 0 0-.259-2.886ZM14.543 52.914c-2.047-.36-4.001.994-4.365 3.025-.363 2.031 1.002 3.97 3.048 4.331.074.013.15.024.224.033a3.734 3.734 0 0 0 2.79-.701 3.717 3.717 0 0 0 .763-5.229 3.768 3.768 0 0 0-2.46-1.459Zm-.607-22.426h-.042c-2.107.094-3.739 1.865-3.644 3.956.089 1.976 1.694 3.551 3.686 3.618h.042c2.107-.093 3.739-1.865 3.644-3.956-.09-1.976-1.694-3.551-3.686-3.618ZM36.54 17.34a3.769 3.769 0 0 0 .929 5.276 3.835 3.835 0 0 0 5.316-.921 3.77 3.77 0 0 0-.929-5.276 3.84 3.84 0 0 0-2.838-.634 3.807 3.807 0 0 0-2.478 1.555Zm15.956 3.3a3.947 3.947 0 0 0 4.983 2.461c2.06-.687 3.175-2.898 2.492-4.946-.832-2-3.142-2.953-5.158-2.127a3.912 3.912 0 0 0-2.317 4.6v.012ZM73.35 30.725c.631-1.993-.485-4.117-2.493-4.744-2.009-.627-4.15.481-4.78 2.475-.632 1.993.484 4.117 2.493 4.744l.006.002a3.78 3.78 0 0 0 1.142.179 3.82 3.82 0 0 0 3.608-2.656h.024Zm-.52 11.757a3.725 3.725 0 0 0-.785 5.236 3.777 3.777 0 0 0 2.488 1.476 3.755 3.755 0 0 0 2.8-.698 3.731 3.731 0 0 0 .965-5.215 3.796 3.796 0 0 0-5.469-.799Zm-5.81 16.264a3.881 3.881 0 0 0 .057 5.518 3.948 3.948 0 0 0 2.757 1.115h.043c2.17-.157 3.8-2.029 3.641-4.182a3.923 3.923 0 0 0-3.672-3.616h-.044a3.926 3.926 0 0 0-2.782 1.165Zm-7.64 14.86a3.775 3.775 0 0 0-.895-5.291 3.842 3.842 0 0 0-5.331.888 3.774 3.774 0 0 0 .914 5.286 3.841 3.841 0 0 0 2.835.642c.998-.16 1.89-.71 2.477-1.525Zm-16.098-3.55c-.671-1.983-2.835-3.05-4.832-2.384-1.998.667-3.073 2.814-2.401 4.796a3.813 3.813 0 0 0 3.622 2.58c.41 0 .816-.066 1.204-.197 1.99-.664 3.066-2.799 2.407-4.778v-.018ZM27.394 57.833a3.84 3.84 0 0 0-2.905.257 3.77 3.77 0 0 0-1.6 5.111 3.807 3.807 0 0 0 3.368 2.023c2.103.01 3.815-1.675 3.825-3.762a3.782 3.782 0 0 0-2.688-3.629Zm-2.66-11.842c.302-2.07-1.143-3.991-3.229-4.291-2.085-.3-4.021 1.134-4.324 3.203-.145.99.11 1.996.71 2.8a3.835 3.835 0 0 0 5.339.787c.816-.6 1.358-1.5 1.504-2.499Zm1.608-20.445H26.3c-2.107.011-3.806 1.716-3.795 3.808.012 2.091 1.73 3.777 3.837 3.766h.043c2.103-.094 3.732-1.862 3.638-3.95-.09-1.973-1.692-3.546-3.68-3.613v-.011Z"/></svg>