<svg xmlns="http://www.w3.org/2000/svg" class="cu-logo" data-name="Clemson Logo" width="41.925" height="41.925"><path d="M3.339 34.157c.552.327-.195.945 0 0zm-.38 0c.334.353-.228.048 0 0zm21.9-1.74c.3 1.048.576-.45 0 0zm.39-3.32c.79.868.405-.725 0 0zm-1-3.53c.488 1.17.836-.88 0 0zm-.75-4.08c-.312.844.973.355 0 0zm.46-.55c-.629.49.685.663 0 0zm14-.89c-.48.467-.427 1.467-1.422.84-1.115-.761-.809 1.621-1.06-.016-1.394-.306.205 1.238-.383.977-.573-.271-1.442-.206-1.269-.76-.056.607-1.601 1.325-1.532 1.163-.19-.61-1.363.236-1.83.382-.234 1.746-.42-1.122-.694.714-.422.032.399 1.378-.534.305-.905-.536-1.326 1.268-1.837 1.368.736.191-.286.597 0 1.107-1.044-.89.135 1.293-.89.91.468.993-.577 1.777.622 2.572.798.477-.426 1.642.635 1.59-.31.603.194 1.025.323 1.451-.027 1.233 1.4.864 1.24 1.75.677-.737.515-.09.744.368.896-.225-.153.904.706.563.178-.564 1.512-.72.656-.165-.147.741 1.956-.168 1.052-.642.43-.799.38.871 1.153.453-.223-.877 1.122-.524 1.1-1.45.355-.272 1.465-.575 1.382-1.136.038-1.105 1.836-.332 1.038-1.274.96-.343.658-1.788 1.897-1.475-.032-.575-.21-.664-.228-1.287.44.418 1.304-.313 1.24-.878.985.036.397-.625.408-1.187.273.096.696.642.981.081.184-.606-.966-.964-.166-1.422 1.121-.267.237-1.285.634-1.585-.987-.1-.143-.845-.512-1.179.399-.122-.02-1.444-.391-1.092-.096.725-.01.286-.613.684-.163-.777-.275-.13-1.297-.067-.548.667-.375-.013-.154-.403-.346-.662 1.46-.172.26-1.08-.332.834-.67-.154-1.093-.226l-.136.076zm-17.88-2c.091 1.222-.48.849-.89.4-.653.23-1.243-.337-1.89.058.092 1.324-1.491.618-1.9.602.194.84-1.03.257-1.44.81.213-.477-.406-.549-.466.085.05 1.062-1.167-.35-1.207.753-.31 1.159-.493-.145-.955.201.078.393-.812.702-1.238.354-.27.617-.287-.405-.926-.153-.991-.306-.322.797-.313.783-.546-.727-1.22.715-1.445.107-.22.033-1.557.391-1.4 1 .486.675-.715-1.06-.882.003-.085 1.3-.493-.287-.932.319-.973.663-.42.333-.146-.312-.65-.058-1.048.555-1.424.777-.013.704.72.764-.555 1.067-.674.523-.755 1.516.01 2.006-.843.566-.856 1.162 0 .98-.116.458-.941.535-.67 1.28-.727-.193 1.393.876.83 1.603.569.52-.044 1.907 1.11 1.837.694.766.503 1.678 1.302 1.58-.516-.198-.668 1.124.207.58.826.024-1.048 1.642.368.633.74-.33.739 1.082 1.222 1.307.631-.387 1.4.086 1.737.54.038.72 1.545.208 1.463.59.237 1.032.955.693 1.587 1.498.428.55 1.505-.268 1.813.222.79.354 1.51.68 2.137 1.293.594.288 1.898.386 1.833-.393.548.502 3.508.852 2.984-.58 1.102.355-.209-.591.868-1.1.772-.459 1.104.412 1.588-.25.11 1.226-.389.822-1.135.722-.646.498.017.998-.505 1.638.652.404.787-.6 1.21.188.463-.475.173-.962 1.018-.568.615-.628 1.478.02 1.542-.82.757.788.82-.46.41-.685.186.552 1.18.158.757-.272.044-1.235.191-.535 1.204-1.11.497-.763-.673-1.007.408-.974-.212-.796.393-1.862-.166-2.331-1.492 1.281.706-2.37-.9-1.438-.084-1.042-.399-.755-.94-.007-.728.681-.48-1.128-.093-1.043 1.136.651.126-.43.01-.708-.454-1.034-.67 1.998-.817.468.355-.862.195-1.02.801-1.353.56-.793-.686-2.705-1.034-1.077-.861-.176.53-.947-.462-1.233-.214-.839 1.507.043.854-1.012-.099-.633-.794-.88-.547-1.562-.768-.07 1.16-.587-.118-.638-.694.084-.018-.445.453-.275-.431-.784-.9-.098-.26-.9-.587-.695.072-1.363.082-.317.413-.15.24-1.026.3-1.358-1.225-.422.932-.286.1-.906-.334-.209-.913-1.667-1.037-.572-.77 1.134.201-1.89-.533-.66-.233.03-1.299-.734-.942.083-.665.84.023-1.35-.517-1.017-.693 1.033.083-1.075-.903-.203-.026-.434-.318-.632-.62-.54zm13.9-5.91c-1.195.238.63.634 0 0zm2.01-5.45c-.206.52-1.715.691-2.04.56-.227.995-.609.27-.59-.24-.099.378-.89 1.362-1.368.643-1.312-.265.373 1.057-.407.733-.723-.074-.983.121-1.511-.342-.35.695-1.143 1.185-1.724.936-.224.776-.773.73-.927 1.015-.46.25-.407 1.081-1.19 1.278.103.594 1.533 1.053.238 1.112-.023-1.385-1.164.746-.997 1.007-.037.056-.827 1.414-.698 2.009-.53.485-.61 1.265-.536 1.96.352.507-.04.996.48 1.242-.375.914.828.779.728 1.495.677.281.521-.266 1.088.374.337-.046.03.906 1.048.472.38-.032.875.808 1.218-.144.822-.222 1.487 1.09 2.268.47.919-.23 2.026-.788 2.67-1.33-.652-.167 1.126-.26.68-1.02.75.297 1.027-.73.217-.447-1.08.292 1.469-.607.143-1.033-.06-.49 1.426.047.797-.836-1.026-.004.35-1.514.253-1.264-.423.734.05.86.47.38 1.15.297.316-1.57.659-1.81-.434-1.2 1.18-1.26 1.518-.997-.334-.575.975-1.237.124-1.349-.344-.265-.354-1.599.094-2.183.168-1.143-.932-.89-1.435-1.37-.352-1.18-.628-.304-1.067-.267-.585-.663-.553-1.265.417-.652.374-.248-.663-1.067-.62-.402zm-26.38-.33c.084.988-.83-.17-.98.337-.264.724.415 1.119-.714.235-.802-.258-.73.315-1.272.267-.25.986-.647-.107-1.013.51-.22.724-1.004.8-1.448 1.214-.893.046-1.134 1.35-2.17 1.269.158.801-.803.202-.623 1.098.672.196-.553.723-.46 1.07-.52.092-.72 1.358-.799 1.885.054.697.253 1.331.004 1.864-.514 1.129.6 1.08.825 1.061.498.77-1.048.801.1 1.32.976-1.007.207 1.007 1.27.8-1.267.929.776.66.94.667-1.26.417.943 1.426 1.631.834.889.008.998-.17 1.056-.713.898-.183 1.718.013 2.308-.859.352.818.878-.407 1.215.371.787-.727 1.471-.89 2.11-1.92.527-1.324-1.251-.444.03-1.36 1.22-.096-.347-.812.76-.98.688-.674-.116-1.373.87-1.55-.294-.668-.267-1.804.186-2.38-.843-.497.125-1.205-.03-1.87.82-.264-.674-.86-.325-.996-.418-.534-.747.43-.571-.574-.775.332-1.508.086-.777-.633-.444-.606-1.282.004-.66.52-.256.605-.95-.983-.143-.987-.377-.16-1.06-.359-1.32-.5zm12.64-5.47c-.138.75-1.683.352-1.78 1.36-.63-.502-1.135.739-.84-.38-.667.173-.816.982-.682 1.565.282 1.123-.774-.952-1.241-.121-.479.446-.601 1.305-.072 1.083-.157.56-1.132.404-.685-.287-1.068-.253-.2 1.292-.97 1.32.616.773-.865.33-.543 1.494-.664.703-1 1.373-.435 1.884-.273.977 1.343.837.018 1.402-.61-.719-.845-.16-.855.334-.755.523-.223.59-.04.89-.45.718.359 1.25.04 1.732 1.377.336-.487.715.745 1.284-.131 1.43.358 1.254 1.302 1.378-.415.5.801 1.063.908.512.173.124.578 1.187 1.14.605.79.676 1.488.58.57-.101.314-.291.783.495 1.489.116.904-.068 1.387-1.002 2.313-.885 1.061-.073.187-1.204 1.021-1.165.665-.205.723-.947.873-1.434-.01-.658.224-.836.654-1.376-1.612-.526.834-.698-.39-1.61-.21-.624.575-.861.412-1.41.559-.985-1.116.435-.258-.566.115-.309 1.418.433.806-.494-.295-.925 1.261-1.823.55-2.797-.336-.809.587.326.195-.811.542-.806.044-2.314-.748-1.482-.083-.76-.985-.71-1.007-.59-.31-.582-.392-1.968-1.46-1.01-.123 2.402-.615-.858-1.03-.44z" fill="#f56600"/></svg>