<svg xmlns="http://www.w3.org/2000/svg" viewBox="0 0 60 63"><path fill="#f04444" d="M19.564 1.276a2.72 2.72 0 0 1 .337 2.045A2.702 2.702 0 0 1 18.7 5.005C5.465 13.31 1.409 30.827 9.634 44.162a28.073 28.073 0 0 0 17.58 12.671 27.92 27.92 0 0 0 21.335-3.548 2.685 2.685 0 0 1 3.704.869 2.72 2.72 0 0 1-.862 3.729A33.27 33.27 0 0 1 33.689 63a33.692 33.692 0 0 1-7.696-.896A33.428 33.428 0 0 1 5.065 47.02C-4.725 31.145.104 10.293 15.859.407a2.685 2.685 0 0 1 3.705.869zm37.618 47.336c1.556 0 2.818 1.269 2.818 2.835s-1.262 2.835-2.818 2.835-2.818-1.269-2.818-2.835 1.262-2.835 2.818-2.835z"/></svg>