<svg xmlns="http://www.w3.org/2000/svg" viewBox="0 0 60 63"><path fill="#f04444" d="M19.564 1.276a2.72 2.72 0 0 1 .337 2.045c-.162.7-.594 1.305-1.201 1.684C5.465 13.31 1.409 30.827 9.634 44.162c3.943 6.417 10.273 10.98 17.58 12.671a27.92 27.92 0 0 0 21.335-3.548c1.262-.786 2.918-.397 3.704.869a2.72 2.72 0 0 1-.862 3.729A33.27 33.27 0 0 1 33.689 63c-2.591-.002-5.173-.302-7.696-.896C17.295 60.09 9.759 54.658 5.065 47.02-4.725 31.145.104 10.293 15.859.407c1.262-.787 2.919-.398 3.705.869zm37.618 47.336c1.556 0 2.818 1.269 2.818 2.835s-1.262 2.835-2.818 2.835-2.818-1.269-2.818-2.835 1.262-2.835 2.818-2.835z"/></svg>