<svg xmlns="http://www.w3.org/2000/svg" xmlns:xlink="http://www.w3.org/1999/xlink" id="Layer_1" version="1.1" width="21.1" height="21.1"><style id="style150811"></style><defs id="defs150814"><path id="SVGID_1_" d="M116.7 57.8c0-2.1 1.6-4.8 3.8-4.8.3 0 .7 0 .9.1l-.5 2.7c-.5 2.8-1.8 4-2.8 4-1-.1-1.4-.9-1.4-2"/></defs><clipPath id="SVGID_2_"><use xlink:href="#SVGID_1_" overflow="visible" id="use150816" x="0" y="0" width="100%" height="100%"/></clipPath><g id="g151435" transform="translate(1.45)" fill-opacity="1"><path d="M17.4 0H.8C.4 0 0 .3 0 .8v5.1c3.8.1 7.4 1.6 10.1 4.3 2.8 2.7 4.3 6.4 4.3 10.3v.6h3c.4 0 .8-.3.8-.8V.7c0-.4-.4-.7-.8-.7z" id="path151426" fill="#2c8e44"/><path d="M0 8.2v8.5c2.4.1 4.3 2 4.3 4.4H12v-.6C12 13.8 6.7 8.3 0 8.2z" id="path151416" fill="#6d6d70"/></g></svg>