<svg xmlns="http://www.w3.org/2000/svg" width="24.946" height="24.946"><defs><clipPath id="a"><path data-name="Rechteck 10" transform="translate(604.21 323.651)" fill="none" d="M0 0h194.817v40H0z"/></clipPath></defs><g data-name="Gruppe 10"><g data-name="Gruppe 9" clip-path="url(#a)" transform="translate(-736.1 -323.654)" fill="#ed704c"><path d="M745.556 334.664c.414-1.733-.134-3.474-.592-5.137-.15-1.032-1.18-1.002-1.87-1.414-.219-.534-.927-.184-1.22-.598-.598-.63.175-1.135.25-1.764.105-.588.105-1.24-.322-1.713-.494-.68-1.465-.307-2.077-.018-.617.339-.454 1.072-.397 1.647.008.593.1 1.203.515 1.656.489.772-1.051.913-1.452 1.306-1.015.355-1.119 1.574-1.461 2.44-.326.77-.49 1.586-.601 2.411-.157.95.386 2.047.997 2.812.37.452.687 1.004.532 1.612-.003 1.326-.052 2.665.275 3.96.162.714.166 1.478.071 2.185-.193.664.113 1.313.102 1.988l.066 1.289c.822-.245 2.401.167 1.854-1.154-.105-1.13-.355-2.294-.032-3.414.113-1.114.253-2.226.333-3.344.596 1.293.793 2.718 1.11 4.096.264.42 1.493.988.408 1.227-.576.16-.243.744-.215 1.144.105.556.188 1.138.307 1.678a4.524 4.524 0 011.694-2.78c-.533-.696-.375-1.574-.331-2.4v-3.837c.455-.582-.473-1.627.413-1.822.603-.638 1.327-1.225 1.65-2.066m-7.257-1.42c-.012.452-.227.855-.208 1.309-.175.088-.417-.577-.043-.667.145-.36-.112-.742.142-1.048.067-.485.08.361.106.406"/></g></g><path d="M12.173 8.562c.043-.722.23-1.448.036-2.165-.485-.727-1.354-.996-1.961-1.585.229-.529.84-.882.739-1.537.015-.398.216-.57.516-.77.136-.758-.487-1.803-1.326-1.84-.4-.038-.737.003-1.118.19-.678.438-.823 1.057-.657 1.775-.277.456.271.76.119 1.191-.122.972-1.226.358-1.856.908-1.071.093-1.786 1.098-2.008 2.078-.198.964-.63 1.876-.644 2.87-.088.517-.072 1.069.28 1.496-.12.769.458 1.416.944 1.927-.56.601.933 1.018.312 1.763-.177 1.617-.075 3.25-.09 4.871.056.949.027 1.905.278 2.829.1.446.166.937.29 1.356.477-2.218 2.551-3.95 4.819-4.024.167-1.224.598-2.392.83-3.599.173-.88-.315-1.742-.152-2.604.182-1.28-.16-2.613.294-3.861.113-.422.227-.844.349-1.263" fill="#f6a500"/><path d="M17.064 11.341c.173-.833.06-1.693.092-2.539.04-.648-.173-1.28-.365-1.887-.22-.351-.892-.133-.956-.61.677-.298-.295-1.347-.2-1.941-.155-.826-.79-1.441-1.451-1.897-.938-.435-1.797.342-2.17 1.156-.155.38-.17.803-.187 1.21.006.74-.05 1.495.166 2.214-.364.603-.868 1.413-.73 2.13.27.232.088.71.129 1.027-.11.638-.324 1.354.12 1.92.284.441.836.207.61.844.198.83-.354 1.605-.293 2.44-.005.675 0 1.349-.002 2.023.263.275.654.46.724.868.404.43.066 1.444.447 1.66.588-.067 1.676.892 1.386-.228-.065-.645-.317-1.296-.097-1.935.287.11.315.53.333.822.096.677.064 1.373.243 2.035a4.473 4.473 0 011.87 2.517c.023-1.042-.354-2.034-.566-3.04-.21-1.032.12-2.014.385-2.99.275-1.047.462-2.153.115-3.211-.082-.487-.145-.984-.354-1.424-.012-.278-.245-.595-.115-.849.415.434.673.127.868-.312" fill="#74cbf3"/><path d="M21.313 22.873c-.022-.948-.218-1.911-.006-2.844l-.13-1.243c-.134 1.022-.502 1.996-.511 3.038-.173.743.023 1.49.084 2.232l-1.85.89c-.24-1.655-.35-3.346-.016-4.998.059-.587.28-1.18.028-1.747-.013-.375-.52-.19-.77-.296-.223-.11-.819.066-.764-.259l.18-1.48c-1.252-.24-.232-1.618-.28-2.407-.08-.892-.261-1.781-.401-2.669-.423-.804.314-1.912.12-2.85.258-1.107.326-2.71 1.582-3.138.525-.2 1.364-.163 1.477-.885.395-.698-.419-.936-.654-1.402-.031-.919.323-2.011 1.25-2.363.826-.228 1.628.557 1.603 1.375.111.766.015 1.573-.436 2.214-.49.526.345.859.778 1.035.474.15 1.093.24 1.196.837.298.83.24 1.717.6 2.527.098.767.084 1.555.082 2.32-.362.776.104 1.932.11 2.868.191.758.27 1.598-.11 2.324-.272.487-.187 1.037-.2 1.567l-1.225.408c-.424 1.773-.354 3.624-.354 5.432-.07.316-.596.317-.863.497-.609.487-.372-.67-.52-.988" fill="#d66986"/></svg>