<svg xmlns="http://www.w3.org/2000/svg" viewBox="0 0 68.25 58.185"><path d="M30.344 24.203a1 1 0 1 1 1.31-1.511c1.77 1.532 4.1 1.378 5.646.007a1 1 0 1 1 1.326 1.498c-2.287 2.028-5.75 2.203-8.282.006z" fill="#00a6ce"/><path d="M17.993 4.827c.294-.302.14-.645.764-1.148 1.948-1.57 8.492-1.39 9.144.925.19.677.4.317 3.713 1.08.195.045.867.284.923-.047.04-.24-.712-1.205-.863-1.394C27.35-1.18 19.119-1.48 14.428 3.782c-.218.244-1.573 1.717-1.114 1.965.286.155.495-.05 4.148-.661.227-.04.4-.123.531-.258z" fill="#63cfe3"/><path d="M22.996 9.053c1.35.003 3.074-3.027 2.995-3.589-.236-1.685-5.784-1.714-5.899-.004-.038.56 1.562 3.591 2.904 3.593z" fill="#00a6ce"/><path d="M33.751 8.3c-.123-.429-.196-.572-.632-.728-.426-.152-2.068-.67-4.517-.928-.629-.066-1.166-.263-1.549.312-.388.583-.725 1.184-1.168 1.733-2.255 2.796-3.992 3.008-6.63-1.301-.776-1.267-1.973-.787-3.222-.562-.844.152-3.338.735-3.66.923-.403.234-.521.899-.65 1.66a11.283 11.283 0 0 0 6.326 12.11c.28.133.702.262.645.647-.082.554-1.162.933-1.592 1.15-3.753 1.899-7.404 4.98-10.289 9.14C1.967 39.44.37 47.505.002 56.032a2.037 2.037 0 0 0 2.033 2.15h4.541c.972 0 1.78-.68 1.989-1.586.491-4.731 1.538-10.18 3.664-14.431 3.344-6.687 8.355-11.396 13.215-13.742.92-.444 2-.784 1.125-1.881-5.162-6.472-1.114-15.211 6.203-16.295 1.213-.18 1.466-.25.979-1.947z" fill="#63cfe3"/><path d="M53.807 27.044c-.314-.218-.857-.481-.869-.867-.011-.363.521-.531.807-.708 8.71-5.406 4.759-18.749-5.332-18.749-2.697 0-5.256 1.145-6.853 2.683-.545.525-2.116 1.854-1.363 2.689.283.314.696.553 1.005.85a9.993 9.993 0 0 1 3.062 7.198c0 2.089-.63 3.8-1.697 5.578-.348.579-1.013 1.099-.328 1.682 1.466 1.247 7.609 4.227 12.355 11.771 2.441 3.879 4.377 8.55 5.303 17.016 0 1 .862 1.993 2.037 1.993h4.286c1.083 0 1.96-.846 2.03-1.909-.252-11.26-5.213-22.833-14.443-29.227z" fill="#00c1de"/><path d="M34.681 52.999c-.018.008-.032.02-.051.027.018-.008.031-.019.051-.027z" fill="#03abd5"/><path d="M56.179 56.186c-.347-2.854-.789-5.405-1.685-8.285-2.093-6.734-6.26-13.454-12.638-16.387-1.266-.582-5.098-1.919-5.963-.923-.477.55-.268 1.387.097 5.113 1.164 11.898 1.32 13.125 1.323 13.694.007 1.092-2.164 3.113-2.586 3.498-.308.328-.946.327-1.282-.037-.335-.362-2.535-2.428-2.537-3.44-.004-2.408 1.698-17.52 1.706-18.034.03-1.872-2.209-1.123-3.21-.9-7.922 1.763-13.245 9.613-15.667 17.423-.953 3.072-1.602 6.941-1.667 8.141a2.039 2.039 0 0 0 2.032 2.136h40.045c1.144-.001 2.032-.949 2.032-1.999z" fill="#00a6ce"/></svg>