<svg xmlns="http://www.w3.org/2000/svg" width="121.344" height="121.344" viewBox="0 0 32.106 32.106"><g fill="#4891dc"><path d="M27.222 21.357a5.868 5.868 0 0 1-5.868 5.867H10.75a5.87 5.87 0 0 1-5.868-5.867V10.75a5.868 5.868 0 0 1 5.868-5.867h10.605a5.866 5.866 0 0 1 5.868 5.867zM16.052 0C7.185 0 0 7.188 0 16.054s7.185 16.052 16.052 16.052c8.866 0 16.054-7.186 16.054-16.052S24.918 0 16.052 0"/><path d="m18.092 20.783.185-.255 13.49-18.883L15.99 16.219l-6.66-5.018 4.822 9.286.109.146.055.076.144.19.15.132.005.004.005.003a2.4 2.4 0 0 0 2.195.549l.02-.005.401-.141.063-.03.33-.197.098-.077.16-.12.102-.114.05-.048z"/><path d="M31.767 1.646 14.814 16.778l-.382.343a2.425 2.425 0 0 0 .18 3.424 2.422 2.422 0 0 0 3.426-.178z"/><path d="m9.33 11.202 4.82 8.797.309.41a2.42 2.42 0 0 0 3.427.118 2.421 2.421 0 0 0 .118-3.427z"/></g></svg>