<svg xmlns="http://www.w3.org/2000/svg" viewBox="0 0 32.11 32.11"><path fill="#0070e0" d="M27.22 21.36a5.87 5.87 0 0 1-5.87 5.86h-10.6a5.87 5.87 0 0 1-5.87-5.86V10.75a5.87 5.87 0 0 1 5.87-5.87h10.6a5.87 5.87 0 0 1 5.87 5.87zM16.05 0a16.05 16.05 0 1 0 0 32.1 16.05 16.05 0 0 0 0-32.1m2.04 20.78.19-.25L31.77 1.65 15.99 16.22 9.33 11.2l4.82 9.29.11.14.06.08.14.19.15.13h.01a2.4 2.4 0 0 0 2.2.56h.02l.4-.15.06-.03.33-.2.1-.07.16-.12.1-.12.05-.04zM31.77 1.65 14.8 16.78l-.38.34a2.42 2.42 0 0 0 .18 3.42 2.42 2.42 0 0 0 3.43-.17zM9.33 11.2l4.82 8.8.3.4a2.42 2.42 0 0 0 3.44.13A2.42 2.42 0 0 0 18 17.1"/></svg>
