<svg xmlns="http://www.w3.org/2000/svg" fill="#006298" viewBox="0 0 306.8 420"><path d="M49 30.2c-.7-1.5.7-3.3 1-3.8L67.4 5.8c1-1.2 1.6-1.7 3-1.7 1.6 0 2.4 1.1 2.9 1.7l17.2 20.6s1.8 2.2 1 3.8c-.9 2-3.7 2-3.7 2h-35s-2.8 0-3.7-2M38.2 77.8c-1.1-2.3 1-5.1 1.6-5.7l26-31.2c1.5-1.8 2.4-2.6 4.5-2.6 2.5 0 3.6 1.8 4.4 2.6.8.8 26 31.2 26 31.2s2.8 3.2 1.6 5.6c-1.5 3-5.7 3-5.7 3H43.8s-4.2 0-5.6-3M26 141.4c-1.5-3.1 1.5-7 2.2-7.9l35.9-43c2-2.5 3.4-3.6 6.3-3.6 3.4 0 5 2.5 6 3.6l35.8 43s3.9 4.6 2.3 7.9c-2 4-7.9 4-7.9 4H33.8s-5.8 0-7.8-4M.6 160c-2.3 5 2.4 11 3.6 12.4l56.2 67.5c3.2 3.9 5.2 5.6 9.8 5.6 5.4 0 7.9-3.8 9.5-5.6 1.7-1.8 56.2-67.5 56.2-67.5s6-7 3.5-12.3c-3-6.3-12.3-6.3-12.3-6.3H12.9s-9.1-.1-12.2 6.3M148.3 45.5c-1.2-2.6 1.3-5.8 2-6.6L180.1 3c1.7-2 2.8-3 5.2-3 2.9 0 4.2 2 5 3 1 1 30 36 30 36s3.2 3.7 1.8 6.5c-1.6 3.4-6.5 3.3-6.5 3.3h-60.8s-4.9 0-6.6-3.3m-18.8 82.7c-1.8-4 2-8.8 2.9-9.9 6-7.4 38.3-46 45.1-54.2 2.7-3.2 4.3-4.6 8-4.6 4.3 0 6.3 3.1 7.6 4.5l45 54.3s5 5.7 3 9.9c-2.5 5.1-10 5-10 5h-91.7s-7.4.2-9.9-5m-21.2 110.5c-2.5-5.4 2.7-12.2 4-13.7l62.3-74.8c3.6-4.3 5.8-6.3 11-6.3 6 0 8.6 4.2 10.5 6.3 1.8 2 62.2 74.8 62.2 74.8s6.8 7.9 4 13.6c-3.5 7-13.7 7-13.7 7H122s-10.2.1-13.7-7m-44 32.8c-4 8.5 4.2 19 6.1 21.4 13.2 16 83 99.7 97.8 117.3 5.7 6.8 9.2 10 17.2 10 9.3 0 13.6-6.7 16.5-9.9 2.8-3.1 97.6-117.4 97.6-117.4s10.6-12.3 6.2-21.4c-5.5-11-21.4-10.8-21.4-10.8H85.6s-16-.2-21.3 10.8"/><text x="223" y="420" font-family="sans-serif" font-size="15">®</text></svg>
