<svg xmlns="http://www.w3.org/2000/svg" version="1.1" id="Layer_1" x="0" y="0" xml:space="preserve" width="44.1" height="44.1"><style type="text/css" id="style8618">.st0{fill:#006298}</style><g id="g9229" transform="translate(5.961 -.007)"><path id="Path_8" class="st0" d="M5.147 3.207c-.1-.2.1-.4.1-.4.2-.3 1.5-1.8 1.8-2.2.1-.1.2-.2.3-.2.2 0 .3.1.3.2.1.1 1.8 2.2 1.8 2.2s.2.2.1.4-.4.2-.4.2h-3.6s-.3 0-.4-.2z"/><path id="Path_9" class="st0" d="M4.047 8.207c-.1-.2.1-.5.2-.6.4-.4 2.3-2.8 2.7-3.3.2-.2.3-.3.5-.3s.4.1.5.3c.1.1 2.7 3.3 2.7 3.3s.3.3.2.6c-.1.2-.4.3-.6.3h-5.5c-.1 0-.6 0-.7-.3z"/><path id="Path_10" class="st0" d="M2.747 14.907c-.2-.3.2-.7.2-.8.5-.6 3.2-3.8 3.8-4.5.1-.3.4-.4.7-.4.4 0 .5.3.6.4.1.1 3.8 4.5 3.8 4.5s.4.5.2.8c-.2.4-.8.4-.8.4h-7.7s-.6 0-.8-.4z"/><path id="Path_11" class="st0" d="M.047 16.907c-.2.5.3 1.1.4 1.3.8 1 5 6 5.9 7.1.2.4.6.6 1 .6s.8-.2 1-.6c.2-.2 5.9-7.1 5.9-7.1s.6-.7.4-1.3c-.3-.7-1.3-.7-1.3-.7h-12s-1 0-1.3.7z"/><path id="Path_12" class="st0" d="M15.547 4.807c-.1-.3 0-.5.2-.7.4-.5 2.7-3.2 3.1-3.8.1-.2.4-.3.6-.3.2 0 .4.1.5.3.1.1 3.1 3.8 3.1 3.8s.3.4.2.7c-.1.2-.4.4-.7.3h-6.4c.1.1-.4.1-.6-.3z"/><path id="Path_13" class="st0" d="M13.647 13.507c-.2-.4.2-.9.3-1 .6-.8 4-4.8 4.7-5.7.3-.3.4-.5.8-.5.3 0 .7.2.8.5.1.2 4.7 5.7 4.7 5.7s.5.6.3 1c-.2.3-.6.5-1 .5h-9.6s-.8.1-1-.5z"/><path id="Path_14" class="st0" d="M11.347 25.107c-.3-.6.3-1.3.4-1.4.9-1.1 5.6-6.7 6.6-7.9.4-.5.6-.7 1.2-.7.5 0 .9.3 1.1.7.2.2 6.5 7.9 6.5 7.9s.7.8.4 1.4c-.3.4-.8.7-1.4.7h-13.3c-.6.1-1.2-.2-1.5-.7z"/><path id="Path_15" class="st0" d="M6.747 28.607c-.2.8 0 1.6.6 2.2 1.4 1.7 8.7 10.5 10.3 12.3.4.6 1.1 1 1.8 1s1.3-.4 1.7-1c.3-.3 10.3-12.3 10.3-12.3s1.1-1.3.6-2.2c-.6-1.2-2.3-1.1-2.3-1.1h-20.9c-.9-.1-1.7.3-2.1 1.1z"/></g></svg>