<svg xmlns="http://www.w3.org/2000/svg" viewBox="0 0 32 29.08"><path fill="#4ec375" d="M16.02 23.03C7.05 23.05 0 19.33 0 14.56s7.01-8.51 15.98-8.53S31.99 9.73 32 14.5s-7.01 8.51-15.98 8.53m-.03-14.5c-6.38.01-13.5 2.49-13.49 6.03s7.13 5.99 13.51 5.97 13.5-2.49 13.49-6.03-7.13-5.99-13.51-5.97"/><path fill="#1463FF" d="M21.44 29.04c-4.01 0-9.15-3.95-12.8-10.25-2.07-3.57-3.33-7.34-3.56-10.63-.25-3.6.78-6.25 2.89-7.48 2.11-1.22 4.92-.79 7.92 1.21 2.74 1.83 5.38 4.8 7.46 8.37 4.5 7.76 4.79 15.72.67 18.1a5.1 5.1 0 0 1-2.58.67ZM10.6 2.51c-.52 0-.98.11-1.37.34-1.22.71-1.83 2.58-1.65 5.14.2 2.91 1.35 6.3 3.23 9.55 3.2 5.52 8.9 10.44 11.96 8.67 3.06-1.78 1.62-9.16-1.58-14.69-1.88-3.25-4.26-5.93-6.68-7.54-1.45-.97-2.8-1.46-3.91-1.46Z"/><path fill="#ffbc00" d="M10.65 29.08a5.1 5.1 0 0 1-2.62-.68c-2.11-1.22-3.15-3.86-2.91-7.46.21-3.29 1.46-7.06 3.52-10.64C13.1 2.52 19.84-1.71 23.97.66c4.13 2.38 3.86 10.33-.61 18.11-2.06 3.58-4.69 6.56-7.42 8.4-1.88 1.26-3.69 1.91-5.3 1.91ZM21.29 2.46c-3.18 0-7.76 4.32-10.49 9.07-1.87 3.25-3 6.65-3.19 9.56-.17 2.56.44 4.43 1.67 5.14 1.23.7 3.15.29 5.28-1.14 2.42-1.63 4.78-4.32 6.65-7.57 3.18-5.54 4.59-12.93 1.53-14.69a2.83 2.83 0 0 0-1.44-.36Z"/><path fill="#4ec375" d="M16.01 20.53c-6.38.01-13.5-2.44-13.51-5.97H0c0 4.77 7.05 8.49 16.02 8.47v-2.5Z"/><path fill="#1463ff" d="M16.56 5.61a16.6 16.6 0 0 0-2.05-1.63c-.68-.45-1.34-.81-1.96-1.05l.83-2.36c.82.31 1.67.76 2.53 1.34.91.61 1.81 1.34 2.68 2.17l-2.02 1.53Zm2.04 20.16a15.7 15.7 0 0 1-3.3-2.48l-1.91 1.67a18.5 18.5 0 0 0 3.41 2.64l1.8-1.82Z"/><path fill="#4ec375" d="M27.51 11.45c-2.56-1.82-7.21-2.93-11.53-2.92v-2.5c5.02 0 9.44 1.15 12.36 3.02l-.83 2.41Z"/></svg>