<svg xmlns="http://www.w3.org/2000/svg" xmlns:xlink="http://www.w3.org/1999/xlink" width="63.998" height="63.998"><g transform="translate(-108.094 -.818)"><path id="a" d="M137.35 15.543a61.752 61.752 0 00-6.813.666c-1.005.158-1.988.34-2.95.543-.98.208-1.937.441-2.864.695-2.182.6-4.21 1.321-6.045 2.149.15.844.36 1.726.636 2.64a31.45 31.45 0 00.8 2.305 37.7 37.7 0 013.37-1.28 43.445 43.445 0 012.801-.81 48.607 48.607 0 014.346-.894 56.416 56.416 0 014.572-.547 61.774 61.774 0 019.781 0 57.146 57.146 0 00-4.89-3.739 48.515 48.515 0 00-2.436-1.546l-.308-.182zm9.763.33a62.212 62.212 0 013.254 2.79c-.22-.84-.46-1.657-.72-2.452-.83-.13-1.675-.242-2.534-.338zm8.348 1.57c.255.928.487 1.883.695 2.864.204.96.386 1.945.543 2.95 1.176.386 2.302.813 3.371 1.28.497.218.985.446 1.457.682.253.126.497.253.739.383.84.451 1.614.926 2.316 1.418 2.55 1.778 4.172 3.78 4.674 5.792-.502 2.014-2.124 4.016-4.674 5.795.274.723.517 1.436.727 2.137.287.956.516 1.889.685 2.797 1.347-.927 2.502-1.93 3.432-2.992 1.714-1.96 2.666-4.127 2.666-6.403V31.48c0-2.276-.952-4.442-2.666-6.402-.93-1.063-2.085-2.065-3.432-2.992a26.915 26.915 0 00-2.463-1.496 32.076 32.076 0 00-2.023-.996 41.395 41.395 0 00-6.047-2.15zm-41.268 4.641c-1.347.927-2.503 1.931-3.433 2.994-1.714 1.96-2.666 4.124-2.666 6.4v2.668c0 2.276.952 4.44 2.666 6.4.93 1.064 2.086 2.068 3.433 2.995.761.523 1.582 1.021 2.461 1.494.644.348 1.32.679 2.024.996a41.564 41.564 0 006.045 2.15 50.99 50.99 0 01-.694-2.863 56.952 56.952 0 01-.545-2.95 37.336 37.336 0 01-3.369-1.28 31.936 31.936 0 01-1.457-.68 29.527 29.527 0 01-.738-.385 23.464 23.464 0 01-2.316-1.416c-2.55-1.779-4.172-3.781-4.674-5.794.502-2.014 2.124-4.017 4.674-5.795a31.291 31.291 0 01-.727-2.137 26.168 26.168 0 01-.684-2.797zm45.877 19.01c-1.07.468-2.195.895-3.37 1.279-.795.26-1.614.5-2.452.719l-.348.092a48.535 48.535 0 01-4.345.896c-1.485.24-3.01.422-4.57.545a61.41 61.41 0 01-4.891.193c-1.657 0-3.29-.065-4.89-.193a56.318 56.318 0 004.89 3.738 48.683 48.683 0 002.742 1.729 61.64 61.64 0 006.81-.666 55.863 55.863 0 002.954-.543c.98-.208 1.933-.442 2.86-.695 2.184-.6 4.213-1.322 6.048-2.149a23.342 23.342 0 00-.637-2.64 31.899 31.899 0 00-.8-2.305zm-30.25 5.88c.22.838.458 1.655.717 2.45.831.13 1.677.242 2.535.338a61.293 61.293 0 01-3.252-2.787z" fill-opacity="1" fill-rule="nonzero"/><use xlink:href="#a" width="100%" height="100%" fill="#2f577e"/><use xlink:href="#a" transform="rotate(-90 140.093 32.817)" width="100%" height="100%" fill="#47b178"/><use xlink:href="#a" transform="rotate(-45 140.093 32.817)" width="100%" height="100%" style="mix-blend-mode:normal" fill="#f4b563"/><use xlink:href="#a" transform="rotate(-135 140.093 32.817)" width="100%" height="100%" fill="#5cafcd"/></g></svg>