<svg xmlns="http://www.w3.org/2000/svg" width="57.902" height="57.902" fill="none"><g fill="#2e39bf"><path d="M38.4 37.85c-6.8 0-12.2-5.4-12.2-12s5.5-12 12.2-12c6.8 0 12.2 5.4 12.2 12s-5.5 12-12.2 12z"/><path d="M47.3 43.95c-5.9 0-10.6-4.7-10.6-10.5s4.8-10.5 10.6-10.5c5.9 0 10.6 4.7 10.6 10.5.1 5.9-4.7 10.5-10.6 10.5z"/><path d="M29.5 43.95c-5.9 0-10.6-4.7-10.6-10.5s4.8-10.5 10.6-10.5c5.9 0 10.6 4.7 10.6 10.5.1 5.9-4.7 10.5-10.6 10.5z"/><path d="M29.5 44.05v-8.4h17.8v8.4zM14.5 37.45h-10c-.5 0-.8-.3-.8-.8v-1.1c0-.4.3-.8.8-.8h10c.5 0 .8.3.8.8v1.1c0 .4-.3.8-.8.8zM27.8 37.65H17.5c-.5 0-.8-.3-.8-.8v-1.2c0-.5.3-.8.8-.8h10.3c.5 0 .8.3.8.8v1.2c0 .4-.4.8-.8.8z"/><path d="M38.8 44.05H10.2c-.8 0-1.4-.6-1.4-1.4 0-.8.7-1.4 1.4-1.4h28.6c.8 0 1.4.6 1.4 1.4 0 .7-.6 1.4-1.4 1.4zM30 31.25H1.4c-.8 0-1.4-.6-1.4-1.4 0-.8.7-1.4 1.4-1.4H30c.8 0 1.4.6 1.4 1.4 0 .8-.7 1.4-1.4 1.4zM37.6 24.85H9.1c-.8 0-1.4-.6-1.4-1.4 0-.8.7-1.4 1.4-1.4h28.6c.8 0 1.4.6 1.4 1.4 0 .8-.7 1.4-1.5 1.4zM40.4 18.45H11.8c-.8 0-1.4-.6-1.4-1.4 0-.7.6-1.4 1.4-1.4h28.6c.7 0 1.4.7 1.4 1.4 0 .8-.7 1.4-1.4 1.4z"/></g></svg>