<svg xmlns="http://www.w3.org/2000/svg" viewBox="0 0 65.628 29.998"><path fill="#fbad41" d="M52.034 13.043c-.193 0-.313.187-.338.279l-.93 3.249c-.401 1.397-.252 2.687.422 3.634.618.876 1.646 1.39 2.894 1.45l5.045.306c.15.008.28.08.359.199a.49.49 0 0 1 .051.434.64.64 0 0 1-.547.426l-5.242.306c-2.848.132-5.912 2.456-6.987 5.29l-.378 1a.28.28 0 0 0 .248.382h18.054a.48.48 0 0 0 .464-.35 13.12 13.12 0 0 0 .48-3.54c0-7.22-5.797-13.08-12.941-13.08-.22 0-.437.008-.654.015"/><path fill="#f6821f" d="m44.808 29.578.334-1.175c.402-1.397.253-2.687-.42-3.634-.62-.876-1.647-1.39-2.896-1.45l-23.665-.306a.467.467 0 0 1-.374-.199.492.492 0 0 1-.052-.434.64.64 0 0 1 .552-.426l23.886-.306c2.836-.131 5.9-2.456 6.975-5.29l1.362-3.6a.914.914 0 0 0 .04-.477C48.998 5.259 42.79 0 35.368 0c-6.842 0-12.647 4.462-14.73 10.665a6.92 6.92 0 0 0-4.911-1.374c-3.28.33-5.92 3.002-6.246 6.318a7.148 7.148 0 0 0 .18 2.472c-5.36.16-9.66 4.598-9.66 10.052 0 .493.035.979.106 1.453a.46.46 0 0 0 .457.402h43.704a.57.57 0 0 0 .54-.418"/></svg>
