<svg viewBox="0 0 25 28" xmlns="http://www.w3.org/2000/svg"><path d="M12.4 6.25c.145 0 .269.02.372.063l5.344 3.138a.992.992 0 00.788-.018l4.955-2.785L12.364 0 .851 6.648 5.88 9.47a.88.88 0 00.362.073.804.804 0 00.362-.073l5.417-3.147c.127-.048.254-.073.38-.073" fill="#5BCA87"/><path d="M19.601 11.329a1.012 1.012 0 00-.29.68v5.887a.848.848 0 01-.298.644l-.136.127-4.964 2.966a1.03 1.03 0 00-.308.217.94.94 0 00-.28.662V28L24.7 21.406V8.426l-4.782 2.676a1.2 1.2 0 00-.318.227" fill="#EC5D3E"/><path d="M5.68 18.567a.894.894 0 01-.29-.635V12.01a.972.972 0 00-.29-.68 1.63 1.63 0 00-.317-.227L0 8.435v13.007l11.377 6.54v-5.488a.894.894 0 00-.281-.662.926.926 0 00-.317-.217l-4.955-2.921-.145-.127z" fill="#2464F5"/></svg>