<svg xmlns="http://www.w3.org/2000/svg" viewBox="0 0 35.07 32"><path d="M1.9 0A2 2 0 0 0 .06 1.14c-.1.73-.09 1.21.05 1.45.05.18.11.33.2.43l.51.57 2.22 2.54c.18.34.1 1.16.03 1.83a8.2 8.2 0 0 0-.06 1.12c.05.8 1.41 3.3 1.63 3.69A11.62 11.62 0 0 0 3.1 19c0 .16.08 3.98 2.66 5.15l.27.1.36.71a3.6 3.6 0 0 0-2.55 1.57c-.52.84-.4 1.72.34 2.48.56.72 1.86.85 2.02.86a3.73 3.73 0 0 0 3.4-.36c.03.91.74 1.52.82 1.59.34.47 1.4.6 1.78.62.37.19 1 .28 1.64.28.38 0 .76-.03 1.13-.1 1.06-.21 1.79-.76 1.99-1.5h.25c1.59-.07 4.5-.19 4.86-2.71a9.46 9.46 0 0 0 4.69-1.05c.42.68 1.25 1.05 2.38 1.05 1.04 0 4.1-1.82 4.45-2.4.33-.54-.03-1.2-.23-1.48.37-.8 1.98-4.5 1.66-7.9a10.44 10.44 0 0 0-5.94-8.56 13.63 13.63 0 0 0-6.81-1.19c-.04-1.81-.58-3.61-1.8-4.35-.55-.34-1.25-.39-2.08-.15-1.99.6-4.19 2.77-4.99 4.43-.32.73-.57 1.48-.75 2.25a48.06 48.06 0 0 0-2.8 1.04c-.23.02-.44.05-.65.09-.18-1.98-2.67-6.56-3.34-7.35C5.22 1.35 3.24-.05 1.89 0z"/><path fill="#fff" d="M1.91.53c1.1-.04 2.94 1.24 3.53 1.95.64.75 3.13 5.2 3.22 7.1a6.04 6.04 0 0 0-2.73 1.51C5.6 10.4 5.04 9.15 5 8.6l-.06-.97a24.34 24.34 0 0 0-.25-2.89c-.13-.57-2.29-3.49-2.96-3.66-.39-.1-.72-.08-1 .05.17-.24.52-.57 1.18-.6z"/><path fill="#f8a693" d="M1.13 1.54c.15-.02.31 0 .44.04.35.17 2.44 2.54 2.6 3.26.12.57.19 1.86.24 2.81l.06.98c.07.82.93 2.6 1.07 2.89-.2.22-.39.46-.57.72-.6-1.1-1.4-2.72-1.42-3.2 0-.35.02-.7.06-1.04.08-.81.15-1.68-.1-2.13a21.74 21.74 0 0 0-2.3-2.65 12.4 12.4 0 0 1-.49-.53c-.1-.14-.21-.65 0-.93a.6.6 0 0 1 .41-.22z"/><path d="M33.12 25c-.27.45-3.15 2.14-3.97 2.14l-.32-.01c-.08-.36-.07-.74.05-1.1l-.33-.1c1.13-.26 2.24-.66 3.27-1.2l-.26-.48c-.05.02-4.7 2.5-5.93.48-1.27-2.07.2-4 .26-4.08l-.44-.34c-.02.02-1.77 2.3-.3 4.71.3.47.76.8 1.3.93a.8.8 0 0 0 .09.21 8.96 8.96 0 0 1-4.44 1.06c0-.02-.01-2.03-.55-3.01l-.48.31c.47.87.47 2.7.47 2.7h.02l-.02.22c-.14 2.1-2.23 2.33-4.36 2.42l-.47.02-.24.01-.02.23c-.09.7-.88 1.1-1.59 1.24-.9.18-2.11.07-2.43-.14 0 0-.03-.04-.04-.1-.05-.4.27-1.15.56-1.48l-.42-.37a3.04 3.04 0 0 0-.68 1.85c-.48-.08-.92-.21-1-.35-.2-.42-.03-1.02.48-1.6l-.42-.36c-.3.33-.52.73-.63 1.17a1.32 1.32 0 0 1 .02-1.08l.02-.04v-.02a2.2 2.2 0 0 1 1.61-1.24c.25-.06.66 0 1.1.04.57.06 1.23.14 1.75 0 .97-.27 1.17-.78 1.22-1.73l-.56-.03c-.04.8-.15 1.04-.81 1.22-.41.12-1.02.05-1.55-.01-.48-.06-.93-.1-1.26-.04a2.9 2.9 0 0 0-1.67 1c-.09-.27-.2-.52-.33-.77l-.48.27c.19.36.32.75.4 1.15a3.15 3.15 0 0 1-3.27.68c-.23-.51-.23-1 .37-1.8l-.45-.33c-.64.87-.7 1.5-.56 2-.42-.09-.96-.27-1.2-.6-.37-.5.35-1.76.59-1.96l-.35-.43a3.3 3.3 0 0 0-.75 1.26c0-.24.07-.49.2-.7.56-.91 1.88-1.47 2.52-1.27l.88.27-.57-.7c-.14-.2-.27-.42-.38-.64.84.2 1.7.3 2.57.28 2.12 0 4.3-.44 5.33-.89 1.9-.8 4.66-3.74 4.66-6.91 0-1.28-.36-2.53-1.04-3.6a11.14 11.14 0 0 0 3.29-3.5c.41-.8.67-1.95.7-3.15a13.1 13.1 0 0 1 6.58 1.14 9.9 9.9 0 0 1 5.63 8.1c.33 3.6-1.67 7.73-1.69 7.77l-.08.17.12.14c.12.16.46.69.29.97zM3.66 18.97a11.3 11.3 0 0 1 .86-4.73c1.27-2.98 3.25-4.36 6.23-4.36.52 0 1.04.06 1.55.17l-.44 3.22.56.05c0-.05.41-4.75 1.5-6.99.73-1.52 2.83-3.6 4.64-4.14.67-.2 1.22-.16 1.63.1 1.7 1.02 1.97 5.24.88 7.32-1.08 2.05-4.02 4.23-5.96 4.8l.16.54c.9-.3 1.76-.73 2.54-1.27.63.98.96 2.12.96 3.29 0 3.04-2.78 5.74-4.32 6.4-1.65.7-6.1 1.34-8.44.28-2.27-1.03-2.35-4.63-2.35-4.68z" fill="#fff"/><path fill="#f8a693" fill-rule="evenodd" d="M13.07 14s.08-5.1 1.78-7.72c1.06-1.61 2.55-2.73 4.58-1.67 2.06 1.44 1.66 4.25 0 5.74-2.36 2.12-6.36 3.65-6.36 3.65z"/><path d="m13.09 14-.02-.34c0-.18-.12-4.46 1.5-7.24 1.04-1.78 3.1-3.16 5.16-1.98l.03.03c.78.6 1.26 1.53 1.3 2.54a5.2 5.2 0 0 1-1.51 3.85c-2.22 2.25-5.99 3.04-6.15 3.07zm5.06-9.42c-1.27 0-2.43.97-3.1 2.14-1.29 2.19-1.42 5.5-1.43 6.58.96-.25 3.8-1.09 5.55-2.85a4.68 4.68 0 0 0 1.35-3.4 2.83 2.83 0 0 0-1.07-2.11 2.6 2.6 0 0 0-1.3-.36zM13.27 17c-.5 0-1.2.52-1.2 1.12s.48.88.99.88c.26 0 .51-.1.7-.28a1 1 0 0 0 .3-.73c0-.6-.27-.99-.79-.99zm.29.78a.68.68 0 0 0-.57-.22l-.01-.13s.56-.18.76.12z"/><path fill-rule="evenodd" d="M4.14 21.01c.13-.08.36.36.71.5s1.06-.07 1.18.1c.13.16-.08 1.61-.9 1.36-.8-.25-1.02-1.25-1.02-1.25s-.1-.63.03-.7z"/><path fill="#fff" d="m12.51 8.98-.1.52a9.6 9.6 0 0 0-.97-.14l1.07-.38zm15.74 18.05c-.46-.12-.91-.37-1.12-.87l-.02-.05c0-.02 0-.04.02-.07l.23.02c.32 0 .64-.03.96-.1-.1.35-.12.72-.07 1.07z"/></svg>