<svg xmlns="http://www.w3.org/2000/svg" version="1.0" width="1013.085" height="1013.085" viewBox="0 0 10130.849 10130.849"><path d="M4700 8171.847l-3165-6-195-50c-230-60-319-99-477-210-228-161-327-262-490-501-151-222-219-385-297-714-64-271-76-363-76-569s12-300 76-570c54-226 97-357 161-484 71-142 213-347 328-474 147-161 449-363 605-403 43-11 50-16 56-43 33-159 120-493 150-572 46-126 129-288 200-395 182-272 322-422 537-574 225-159 297-191 607-265 200-48 352-61 486-41 62 9 318 69 449 105 16 5 35-15 105-110 147-202 307-348 569-520 137-89 253-138 439-185 264-67 341-80 483-80 148 0 185 6 436 66 267 65 373 112 597 270 143 100 249 189 332 278 68 74 201 247 269 350 21 31 42 57 47 57s46-10 91-22c66-18 110-22 227-22 134-1 157 2 300 37 279 68 358 102 555 238 257 179 493 460 653 779 67 134 102 224 164 428 13 42 16 44 96 76 123 50 350 206 469 323 186 184 386 500 472 746 53 151 138 519 161 696 16 122 14 426-4 554-25 171-110 523-165 682-78 223-321 588-489 733-99 86-284 213-368 254-90 43-381 121-518 138-44 5-222 9-396 8-173-2-1739-5-3480-8z" fill="#464646"/><path d="M1600 7610.847c-228-28-420-127-600-308-331-333-502-887-435-1408 50-384 187-691 413-925 198-205 402-305 645-315l117-6v-76c1-783 415-1481 994-1675 362-122 770-28 1073 247 61 55 83 68 83 47 0-22 97-234 152-332 170-300 438-562 700-682 394-183 826-148 1195 95 292 193 535 507 679 876 21 54 39 100 40 102 2 1 41-23 88-54 170-113 326-160 521-158 148 1 239 23 380 91 256 124 471 358 630 685 92 187 140 343 201 645 4 19 11 22 48 22 55 0 177 31 265 68 105 44 206 116 311 222 235 235 385 555 457 975 24 145 24 491 0 640-80 481-272 841-567 1062-71 54-195 115-290 145l-75 23-3480 1c-1914 1-3509-2-3545-7z" fill="#dbd5d5"/><path d="M6638 4725.847c-67-384-123-701-124-703-2-1-71 58-154 133s-154 136-158 136-38-25-77-56c-382-308-857-467-1267-425-145 14-242 35-380 81-158 52-265 105-406 199-314 210-559 537-665 889-14 45-24 82-23 82 3 0 630 160 647 165 13 4 23-14 48-84 106-295 364-538 660-620 247-69 450-46 706 79 100 48 245 143 245 159 0 5-72 74-159 152-88 79-157 145-153 146 21 8 1377 370 1379 369 1-1-52-317-119-702zM5445 7171.847c161-32 283-73 430-146 174-85 294-173 446-324 191-190 323-404 405-655 30-91 31-101 16-107-9-4-152-41-317-83s-307-78-317-81c-13-4-21 10-38 63-93 282-323 518-600 617-270 97-501 81-773-55-104-52-238-137-244-156-2-6 68-75 157-154 89-80 155-146 148-148-30-10-1373-368-1375-367-3 3 239 1400 243 1405 2 2 62-50 135-115 72-66 142-127 155-137l24-19 77 63c269 216 588 361 912 414 124 21 374 13 516-15z" fill="#be3e3c"/></svg>