<svg xmlns="http://www.w3.org/2000/svg" xmlns:xlink="http://www.w3.org/1999/xlink" width="54.187" height="54.187"><defs><path id="a" d="M60.358 13.207s-7.686 4.444-16.83-.207c-9.198 4.64-16.886.196-16.886.196-19.22 32.871 16.83 43.62 16.83 43.62.056.01 36.107-10.738 16.886-43.609z"/><path id="b" d="M60.438 13.212s-7.723 4.296-16.91-.2L43.472 13c-9.185 4.498-16.91.2-16.91.2-3.488 5.743-5.157 10.784-5.562 15.195h45c-.406-4.409-2.076-9.445-5.562-15.183z"/><path id="c" d="M65.99 30.76H21.01c-.527 19.268 22.463 26.041 22.463 26.041l.055.012s23-6.777 22.464-26.053z"/><path id="d" d="M32.376 25.64c-.282.14-.915.299-1.74.299-2.34 0-3.546-1.452-3.546-3.36 0-2.287 1.648-3.559 3.697-3.559.795 0 1.398.159 1.67.298l-.312 1.203a3.352 3.352 0 00-1.287-.249c-1.216 0-2.16.726-2.16 2.217 0 1.342.803 2.187 2.17 2.187.462 0 .974-.1 1.276-.218z"/><path id="e" d="M34.13 19.13h1.538v5.428h2.692v1.272h-4.23z"/><path id="f" d="M40.948 22.504c0 1.315.621 2.242 1.643 2.242 1.031 0 1.622-.977 1.622-2.281 0-1.206-.58-2.242-1.632-2.242-1.032 0-1.633.976-1.633 2.28zm4.894-.094c0 2.197-1.347 3.529-3.327 3.529-2.01 0-3.185-1.501-3.185-3.41 0-2.008 1.296-3.509 3.296-3.509 2.08 0 3.216 1.54 3.216 3.39z"/><path id="g" d="M49.128 19.13v3.857c0 1.153.441 1.74 1.225 1.74.805 0 1.247-.557 1.247-1.74V19.13h1.528v3.757c0 2.068-1.056 3.053-2.825 3.053-1.708 0-2.713-.935-2.713-3.072V19.13z"/><path id="h" d="M56.737 24.697c.131.03.342.03.533.03 1.387.01 2.291-.748 2.291-2.352.01-1.395-.814-2.132-2.13-2.132-.342 0-.563.03-.694.06zM55.2 19.219c.562-.09 1.296-.139 2.07-.139 1.286 0 2.12.229 2.773.716.704.517 1.146 1.342 1.146 2.525 0 1.282-.472 2.167-1.125 2.714-.714.586-1.799.864-3.125.864-.795 0-1.357-.05-1.739-.099v-6.58z"/><path id="i" d="M37.834 45.812c1.24 0 2.036-1.11 2.036-2.604 0-1.36-.749-2.537-2.27-2.537-.96 0-1.755.566-2.106 1.314-.093.18-.14.453-.14.86.07 1.563.842 2.967 2.457 2.967zm3.978-9.987c-.397 0-.818 0-1.38.045-3.16.25-4.564 1.812-4.961 3.532h.07c.748-.747 1.802-1.177 3.23-1.177 2.55 0 4.703 1.744 4.703 4.801 0 2.922-2.317 5.322-5.617 5.322-4.048 0-6.037-2.921-6.037-6.431 0-2.763 1.053-5.073 2.691-6.546 1.521-1.336 3.487-2.06 5.874-2.173a10.472 10.472 0 011.427-.023z"/><path id="j" d="M50.824 45.812c1.24 0 2.036-1.11 2.036-2.604 0-1.36-.749-2.537-2.27-2.537-.96 0-1.755.566-2.106 1.314-.093.18-.14.453-.14.86.07 1.563.842 2.967 2.457 2.967zm3.978-9.987c-.397 0-.818 0-1.38.045-3.16.25-4.564 1.812-4.961 3.532h.07c.748-.747 1.802-1.177 3.23-1.177 2.55 0 4.702 1.744 4.702 4.801 0 2.922-2.316 5.322-5.615 5.322-4.049 0-6.038-2.921-6.038-6.431 0-2.763 1.053-5.073 2.691-6.546 1.521-1.336 3.487-2.06 5.874-2.173a10.472 10.472 0 011.427-.023z"/></defs><g fill="#fff" transform="translate(-16.407 -7.06)"><use xlink:href="#a" width="100%" height="100%"/><use stroke-miterlimit="50" xlink:href="#a" width="100%" height="100%" fill-opacity="0" stroke="#fff" stroke-width="9"/></g><use xlink:href="#b" width="100%" height="100%" fill="#3c72b9" transform="translate(-16.407 -7.06)"/><use xlink:href="#c" width="100%" height="100%" fill="#57bd5c" transform="translate(-16.407 -7.06)"/><use xlink:href="#d" width="100%" height="100%" fill="#fff" transform="translate(-16.407 -7.06)"/><use xlink:href="#e" width="100%" height="100%" fill="#fff" transform="translate(-16.407 -7.06)"/><use xlink:href="#f" width="100%" height="100%" fill="#fff" transform="translate(-16.407 -7.06)"/><use xlink:href="#g" width="100%" height="100%" fill="#fff" transform="translate(-16.407 -7.06)"/><use xlink:href="#h" width="100%" height="100%" fill="#fff" transform="translate(-16.407 -7.06)"/><g><use xlink:href="#i" width="100%" height="100%" fill="#fff" transform="translate(-16.407 -7.06)"/><use xlink:href="#j" width="100%" height="100%" fill="#fff" transform="translate(-16.407 -7.06)"/></g></svg>