<svg xmlns="http://www.w3.org/2000/svg" id="Layer_2" version="1.1" width="48.2" height="48.2"><style id="style23193"></style><g id="g23774" transform="translate(-54.9 9.6)"><path d="M98.6 14.2L93 12.9l-1-.4-25.7.2v12.4l32.3.1z" id="path23195" fill="#fff"/><path d="M88.1 24c.3-1 .2-2-.3-2.6-.5-.6-1.2-1-2.1-1.1l-17.4-.2c-.1 0-.2-.1-.3-.1-.1-.1-.1-.2 0-.3.1-.2.2-.3.4-.3l17.5-.2c2.1-.1 4.3-1.8 5.1-3.8l1-2.6c0-.1.1-.2 0-.3-1.1-5.1-5.7-8.9-11.1-8.9-5 0-9.3 3.2-10.8 7.7-1-.7-2.2-1.1-3.6-1-2.4.2-4.3 2.2-4.6 4.6-.1.6 0 1.2.1 1.8-3.9.1-7.1 3.3-7.1 7.3 0 .4 0 .7.1 1.1 0 .2.2.3.3.3h32.1c.2 0 .4-.1.4-.3z" id="path23197" fill="#f48120"/><path d="M93.6 12.8h-.5c-.1 0-.2.1-.3.2l-.7 2.4c-.3 1-.2 2 .3 2.6.5.6 1.2 1 2.1 1.1l3.7.2c.1 0 .2.1.3.1.1.1.1.2 0 .3-.1.2-.2.3-.4.3l-3.8.2c-2.1.1-4.3 1.8-5.1 3.8l-.2.9c-.1.1 0 .3.2.3h13.2c.2 0 .3-.1.3-.3.2-.8.4-1.7.4-2.6 0-5.2-4.3-9.5-9.5-9.5" id="path23199" fill="#faad3f"/></g></svg>