<svg xmlns="http://www.w3.org/2000/svg" width="87.099" height="95.309" viewBox="0 0 23.045 25.217"><path d="m3.64 159.925-6.548 3.982v-4.862a1.161 1.161 0 1 0-2.323 0v4.878l-6.613-3.962a1.23 1.23 0 1 0-1.264 2.11l9.043 5.419 8.983-5.464a1.23 1.23 0 1 0-1.278-2.101m-16.89-2.3v-7.234l4.708 2.809a1.16 1.16 0 1 0 1.19-1.995l-4.76-2.84 6.63-3.795a1.23 1.23 0 1 0-1.222-2.135l-9.007 5.156v10.033a1.23 1.23 0 0 0 2.46 0m10.085-14.743a1.23 1.23 0 0 0 .441 1.684l6.502 3.803-4.587 2.814a1.161 1.161 0 1 0 1.214 1.98l4.47-2.74v7.043a1.23 1.23 0 1 0 2.46 0v-9.866l-8.817-5.158a1.23 1.23 0 0 0-1.683.44" style="fill:#000;fill-opacity:1;fill-rule:nonzero;stroke:none;stroke-width:.35277775" transform="translate(15.711 -142.272)"/><path d="M-4.07 152.53a1.998 1.998 0 1 0 0 3.995 1.998 1.998 0 0 0 0-3.995" style="fill:#ee3425;fill-opacity:1;fill-rule:nonzero;stroke:none;stroke-width:.35277775" transform="translate(15.711 -142.272)"/></svg>