<svg xmlns="http://www.w3.org/2000/svg" viewBox="0 0 23.045 25.217"><path d="m19.351 17.653-6.548 3.982v-4.862a1.161 1.161 0 1 0-2.323 0v4.878l-6.613-3.962a1.23 1.23 0 1 0-1.264 2.11l9.043 5.419 8.983-5.464a1.23 1.23 0 1 0-1.278-2.101m-16.89-2.3V8.119l4.708 2.809a1.161 1.161 0 1 0 1.19-1.995l-4.76-2.84 6.63-3.795A1.23 1.23 0 1 0 9.007.163L0 5.319v10.033a1.23 1.23 0 0 0 2.46 0M12.545.609a1.23 1.23 0 0 0 .441 1.684l6.502 3.803-4.587 2.814a1.161 1.161 0 1 0 1.214 1.98l4.47-2.74v7.043a1.23 1.23 0 1 0 2.46 0V5.327L14.228.169a1.23 1.23 0 0 0-1.683.44"/><path fill="#ee3425" d="M11.641 10.258a1.998 1.998 0 1 0 0 3.995 1.998 1.998 0 0 0 0-3.995"/></svg>