<svg xmlns="http://www.w3.org/2000/svg" width="239.221" height="239.221"><path d="M239.221 61.43V14.272C239.221 6.425 232.795 0 224.953 0H116.348s0 61.41.012 61.404c.013-.007.013 0 0 .007-.012.006 122.861.018 122.861.018" fill="#e21d25"/><path d="M116.348 0H7.755C-.1 0-1.974 4.539 3.572 10.09l112.776 112.758V0" fill="#f9b113"/><path d="M239.221 122.848V61.429H116.348v61.419l.038-.026-.038.039H239.22l-.854-.854-.076-.078.076.07.854.849M54.904 184.305l51.345 51.332c5.547 5.56 10.099 3.674 10.099-4.18v-47.152H54.904" fill="#f3711c"/><path d="M7.755 122.866c-7.854 0-9.729 4.545-4.183 10.095l51.345 51.344h61.43v-61.457l-108.592.018" fill="#f9b113"/><path d="M239.221 122.866H116.335l112.788 112.771c5.558 5.56 10.098 3.674 10.098-4.18V122.867" fill="#5ac8d1"/><path d="M54.904 231.801c0 7.853-4.539 9.727-10.084 4.169L3.19 194.353c-5.56-5.546-3.66-10.099 4.195-10.099l47.52.051v47.496" fill="#a41e4a"/></svg>