<svg xmlns="http://www.w3.org/2000/svg" viewBox="0 0 155.45 128.02"><path fill="#1f1f1a" d="M38.95 51.32c2 7 4.6 13.4 7.3 19.7 4.8 11.2 8 17.2 12.4 24.5 5.3 8.8 11.3 18.9 21 25.3a44.5 44.5 0 0 0 24.3 7.2c11.8 0 21.9-5.2 28.4-11.2 6.4-6 14.6-17.4 14.6-39.8 0-7.7 3.5-14.3 6-19.6 0 0 0-.3.3-.7 1-2.2 2.2-5 2.2-8 0-2-.5-4.5-2-6.6-2.2-3.7-6.1-5-9.8-5-8.4 0-14.3 6-17.3 12l-1 2-3.3-5.3a70.4 70.4 0 0 1-9.3-24.9c-1.9-10.8-5-14.3-10-15.6-3.7-1-8.1-.2-11.3 1.8a11 11 0 0 0-11-7.1c-7 0-13.4 4.6-13.4 12.4l.3 3.2c-.98-.23-1.99-.33-3-.3-7.5 0-13.1 5.3-13.1 12.4 0 1.7.2 3.6.8 5.8l-2-.1a13 13 0 0 0-9.6 4.6c-2.4 2.8-3.4 7.2-1.5 13.3"/><path fill="#ffe450" d="M45.15 49.32c-1-3.2-.8-5.6.4-7.1s2.8-2.1 4.8-2.2c3.4-.1 4.7 2.3 6.7 8.5a130.6 130.6 0 0 0 10.8 23.7c1 1.6 1.9 2 2.9 2 1.7 0 3-1 3-2.8 0-1-1-2.6-1.5-3.6-1-1.9-3-5.6-4.5-8.8a204 204 0 0 1-4.8-11.9l-2.8-8.9c-1.6-5-2.3-8.1-2.3-10.4 0-3.6 2.6-5.9 6.6-5.9 2.8 0 4.7 1.5 6 6.6a110 110 0 0 0 10.6 30.5c.9 1.5 1.9 2.9 1.9 3.4 0 .8-1.5 2-2.7 3.6-.7 1-1 1.7-1 2.5 0 .6.4 1.3 1 2.2s1.3 1.7 2.1 1.7c.6 0 .9-.2 1.2-.6a38 38 0 0 1 11.6-9.8c5-2.9 10.2-4.3 14.3-5.2 2-.4 2.5-.9 2.5-2 0-1.3-1-2-2.3-2.2l-3.4.1c-1.1.1-1.7-.4-2.3-1.8-2-4.2-5.8-11.3-8.2-20.3-1-3.8-1.8-8-2.4-13.2-.3-2.4.1-3.3 1.3-4.4 1.6-1.3 4.3-1.9 6.4-1.3 2.6.6 3.9 2.6 5.2 10.3 1.61 9.55 5 18.71 10 27 1.8 3.2 4 6.4 6.3 9.5-.5 1.3-1.2 2.2-3.8 4.3s-5 4.3-7.3 8.3c-1.7 3-2.5 6.3-2.5 8.5 0 2 .5 2.5 1.8 2.5 2.3 0 4.2-.4 4.3-1.4.5-4 1.2-6.5 3.4-9.5 1.3-1.6 3.6-3.7 5.5-5.4 3.5-2.8 4.7-4.5 6-8.5.5-2 1.2-3.7 2-5.3 2.1-3.9 5.9-8.3 11.7-8.3 1.9 0 3.4.6 4.4 2.1.6.9.8 2.1.8 3 0 2-1.5 4.7-2.1 6-2.4 5.2-6.4 13.1-6.4 22.3 0 19.9-7 29.8-12.5 34.9-5.4 5-14 9.4-24 9.4a38 38 0 0 1-20.5-6c-8.5-5.6-13.8-14.4-19.2-23.2a222.7 222.7 0 0 1-19-42.8m28.3-37c0-4.1 3.9-5.8 7-5.8 3.5 0 4.7 1.7 5.6 5.2.7 2.8 1 5.5 1.4 8.6.4 3 2 10 2.4 11.9 1.7 6 5 13.2 9 21.7-2.4.8-5.5 2.1-7.6 3.2-2.6 1.5-3.2 1.5-4.3-.6a92.3 92.3 0 0 1-8.8-22c-1.6-6.9-1.8-8.8-3.1-12-.8-3.3-1.6-7.4-1.6-10.2"/><path fill="#1f1f1a" d="M34.05 86.12c-2.3 1.5-14.7 8-17.4 9-2 .7-4.2.5-5.5-3.2-1.5-4.7.7-5.8 3.8-7l16.9-6c1.8-.4 3.1.2 4 2.4 1 2.5.3 3.5-1.8 4.8m-10.2-26.1c-3.3.1-17-.5-20.2-.8-2.8-.3-3.9-1.5-3.6-5.5.3-4.2 2-4.5 4.7-4.2 3.1.3 17.6 2.6 19.9 3.3 2.4.8 2.7 1.9 2.4 4-.4 2.6-1.6 3.2-3.2 3.2m1.7-28c-3.7-1.1-15-8-18-9.7-2.6-1.6-3-3-1.1-6.6 1.6-3 3.4-3.6 6.1-2.2 3.2 1.5 14.2 10.1 16.3 11.9 2 1.6 1.8 2.4.7 4.5s-2 2.7-4 2"/></svg>