<svg xmlns="http://www.w3.org/2000/svg" width="137" height="137"><path d="M68.5 0C30.7 0 0 30.7 0 68.5S30.7 137 68.5 137 137 106.3 137 68.5 106.3 0 68.5 0" fill="#101e1e"/><path d="M113.4 83.2c0-3 2.4-5.5 5.5-5.5 3 0 5.5 2.4 5.5 5.5 0 3-2.4 5.5-5.5 5.5-3.1-.1-5.5-2.5-5.5-5.5" fill="#1657ea"/><path d="M40 91.4c-12.6 0-22.9-10.3-22.9-22.9 0-12.6 10.2-22.9 22.9-22.9 2.4 0 4.9.4 7.2 1.1 2.5.8 3.9 3.6 3.1 6.1-.8 2.5-3.6 3.9-6.1 3.1-1.3-.4-2.7-.7-4.1-.7-7.3 0-13.2 5.9-13.2 13.2 0 7.3 5.9 13.2 13.2 13.2 6.8 0 10.6-3.6 13.9-12.7l7.2-20.2c.7-1.9 2.5-3.2 4.5-3.2s3.8 1.2 4.6 3.1l8.3 21.5L87 48.6c.7-1.9 2.5-3.1 4.5-3.1h.1c2 0 3.8 1.3 4.5 3.2l12 33.4c.9 2.5-.4 5.3-2.9 6.2-2.5.9-5.3-.4-6.2-2.9l-7.6-21.2-8.2 21c-.7 1.9-2.5 3.1-4.5 3.1s-3.8-1.2-4.5-3.1l-8.1-21-2.8 7.9C60 80.5 54.5 91.4 40 91.4" fill="#fff"/></svg>