<svg xmlns="http://www.w3.org/2000/svg" viewBox="0 0 1000 196.9"><path fill="#af3ce8" d="M382.23 118.39c-4.43 6.4-7.63 11.32-16.74 11.32h-4.67c-9.1 0-12.3-4.93-16.74-11.33L314.3 74.33v96.97c0 8.86-5.17 14.28-14.77 14.28h-4.92c-9.85 0-14.77-5.42-14.77-14.28V25.35c0-9.1 4.93-14.28 14.77-14.28h6.15c8.37 0 12.06 2.47 16.5 8.86l45.77 67.2 46.03-67.2c4.18-6.4 7.87-8.86 16.49-8.86h6.15c9.85 0 14.77 5.17 14.77 14.28V171.3c0 8.86-4.92 14.28-14.77 14.28h-4.92c-9.85 0-14.77-5.42-14.77-14.28V74.33Zm521.29 67.19c-9.6 0-14.77-5.42-14.77-14.28V25.35c0-9.6 5.66-14.28 14.77-14.28h80.73c9.1 0 14.76 4.68 14.76 14.28v3.94c0 9.6-5.65 14.27-14.76 14.27H923.2v38.89h50.7c9.1 0 14.77 4.68 14.77 14.28v4.18c0 9.35-5.66 14.03-14.77 14.03h-50.7v38.15h62.02c9.35 0 14.77 4.92 14.77 14.27v4.19c0 9.35-5.42 14.03-14.77 14.03ZM489.79 98.45c0-49.47 40.6-89.83 90.32-89.83s90.33 40.36 90.33 89.83-40.61 89.59-90.33 89.59-90.32-40.12-90.32-89.59Zm35.2 0c0 31.26 24.6 56.6 55.12 56.6 30.28 0 55.13-25.34 55.13-56.6 0-31.01-24.85-56.61-55.13-56.61-30.52 0-55.13 25.6-55.13 56.61Zm223.23 72.85c0 8.86-4.93 14.28-14.53 14.28h-5.17c-9.6 0-14.76-5.42-14.76-14.28V25.35c0-9.1 5.17-14.28 14.76-14.28h55.38c30.77 0 55.63 25.36 55.63 55.38 0 17.97-10.59 34.21-25.6 43.81 8.62 7.38 14.03 16.25 17.48 27.57l8.12 28.06a32 32 0 0 1 1.72 8.61c0 6.4-5.9 11.08-13.54 11.08h-7.38c-7.63 0-12.06-3.7-14.03-10.59l-8.12-28.8c-3.45-12.05-14.03-24.6-31.5-24.6h-18.46Zm0-127.74V89.1h33.96c12.55 0 22.15-9.85 22.15-22.65 0-12.55-9.84-22.89-22.15-22.89ZM55.62 98.45c0 23.63 19.45 43.56 44.06 43.56 11.57 0 19.94-4.43 29.78-11.56 5.17-3.7 10.1-7.88 18.95-7.88a28.56 28.56 0 0 1 17.48 5.9c6.4 4.93 9.84 11.82 9.84 20.43 0 9.11-3.93 15.26-8.12 19.94-13.04 14.77-39.87 28.06-69.9 28.06C42.33 196.9 0 151.12 0 98.45S42.58 0 97.71 0c29.78 0 55.87 13.3 68.92 28.06 4.18 4.67 8.12 10.83 8.12 19.93a24.97 24.97 0 0 1-9.85 20.43 28.27 28.27 0 0 1-17.47 5.9c-8.86 0-13.79-4.17-18.95-7.87-8.86-6.4-16.99-11.57-29.3-11.57a43.8 43.8 0 0 0-43.56 43.57Z"/></svg>