<svg xmlns="http://www.w3.org/2000/svg" width="1000" height="196.899"><defs><style>.a{fill:#af3ce8}</style></defs><path d="M382.23 118.385c-4.43 6.4-7.63 11.322-16.737 11.322h-4.676c-9.106 0-12.306-4.923-16.736-11.322L314.3 74.329v96.973c0 8.86-5.169 14.276-14.768 14.276h-4.922c-9.845 0-14.767-5.415-14.767-14.276V25.35c0-9.107 4.922-14.276 14.767-14.276h6.153c8.368 0 12.06 2.462 16.49 8.861l45.779 67.192 46.026-67.192c4.184-6.4 7.875-8.86 16.49-8.86h6.153c9.845 0 14.767 5.168 14.767 14.275V171.3c0 8.862-4.922 14.277-14.767 14.277h-4.923c-9.845 0-14.767-5.415-14.767-14.276V74.329ZM903.52 185.578c-9.6 0-14.767-5.415-14.767-14.276V25.35c0-9.599 5.66-14.276 14.766-14.276h80.73c9.107 0 14.766 4.677 14.766 14.276v3.938c0 9.599-5.659 14.276-14.766 14.276H923.21V82.45h50.7c9.108 0 14.769 4.677 14.769 14.276v4.184c0 9.352-5.661 14.029-14.769 14.029h-50.7v38.15h62.023c9.351 0 14.767 4.921 14.767 14.274v4.184c0 9.353-5.416 14.03-14.767 14.03ZM489.786 98.45c0-49.472 40.61-89.835 90.327-89.835S670.44 48.979 670.44 98.45c0 49.47-40.61 89.588-90.327 89.588s-90.327-40.118-90.327-89.588Zm35.195 0c0 31.257 24.613 56.607 55.132 56.607 30.274 0 55.132-25.35 55.132-56.607 0-31.012-24.858-56.61-55.132-56.61-30.52 0-55.132 25.598-55.132 56.61ZM748.216 171.302c0 8.86-4.923 14.276-14.522 14.276h-5.169c-9.598 0-14.767-5.415-14.767-14.276V25.35c0-9.107 5.169-14.276 14.767-14.276h55.379c30.765 0 55.623 25.352 55.623 55.378 0 17.967-10.583 34.211-25.596 43.81 8.614 7.383 14.028 16.245 17.474 27.567l8.122 28.058a32 32 0 0 1 1.723 8.614c0 6.398-5.906 11.076-13.538 11.076h-7.382c-7.63 0-12.06-3.693-14.03-10.585l-8.122-28.795c-3.444-12.06-14.028-24.613-31.503-24.613h-18.459Zm0-127.737v45.532h33.965c12.553 0 22.15-9.845 22.15-22.644 0-12.552-9.844-22.888-22.15-22.888ZM55.624 98.45c0 23.627 19.444 43.563 44.056 43.563 11.568 0 19.936-4.43 29.78-11.567 5.17-3.693 10.092-7.876 18.952-7.876a28.557 28.557 0 0 1 17.475 5.906c6.4 4.924 9.845 11.815 9.845 20.429 0 9.106-3.937 15.26-8.122 19.936-13.044 14.767-39.872 28.058-69.899 28.058C42.333 196.899 0 151.12 0 98.449S42.58 0 97.711 0c29.78 0 55.87 13.291 68.914 28.058 4.185 4.676 8.123 10.83 8.123 19.936a24.967 24.967 0 0 1-9.845 20.428 28.272 28.272 0 0 1-17.475 5.907c-8.86 0-13.783-4.183-18.951-7.876-8.861-6.4-16.983-11.568-29.29-11.568A43.804 43.804 0 0 0 55.625 98.45Z" class="a"/></svg>