<svg xmlns="http://www.w3.org/2000/svg" width="48.102" height="48.102"><g fill="#c4122e"><path d="M12.695 16.166h-.556c-.022.476-.271.68-.745.68-.949 0-2.336-1.156-3.962-1.156C2.8 15.69 0 20.272 0 24.312c0 4.063 2.665 8.079 7.138 8.079 2.711 0 3.727-1.294 4.45-1.294.475 0 .563.42.563.93h.612v-5.56h-.612l-.136.772c-.317 1.838-1.737 4.554-4.65 4.554-2.576 0-3.57-2.239-3.57-7.753 0-5.786 1.354-7.733 3.637-7.733 2.575 0 4.346 2.9 4.707 5.214h.556v-5.355"/><path d="M12.695 16.166h-.556c-.022.476-.271.68-.745.68-.949 0-2.336-1.156-3.962-1.156C2.8 15.69 0 20.272 0 24.312c0 4.063 2.665 8.079 7.138 8.079 2.711 0 3.727-1.294 4.45-1.294.475 0 .563.42.563.93h.612v-5.56h-.612l-.136.772c-.317 1.838-1.737 4.554-4.65 4.554-2.576 0-3.57-2.239-3.57-7.753 0-5.786 1.354-7.733 3.637-7.733 2.575 0 4.346 2.9 4.707 5.214h.556v-5.355M31.975 16.925l.014-.633h-5.093L23.205 26.9l-3.593-10.62h-5.59v.646h1.508v12.78c0 .963-.236 1.71-1.508 1.71v.618h3.853v-.619h-.068c-1.202 0-1.67-.097-1.67-1.91v-12.69h.044l5.325 15.22h.602l5.19-14.95h.046v14.33h-1.487v.62h6.118v-.62h-1.457v-14.49h1.457M33.037 16.898h1.559v9.941c0 3.47 2.383 5.574 6.015 5.574 4.1 0 5.882-2.172 5.882-5.461v-8.5c0-1.298.356-1.554 1.159-1.554h.45v-.6h-3.918v.6h.281c1.137 0 1.293.345 1.293 1.643v8.633c0 3.045-1.88 4.433-3.789 4.433-3.25 0-3.898-2.194-4.092-5.06v-9.65h1.46V16.3h-6.3v.599"/></g></svg>