<svg xmlns="http://www.w3.org/2000/svg" width="1200" height="800" viewBox="-1350 -1050 11700 6300"><path fill="#c00" d="M2800 1200h-700a900 900 0 0 0 0 1800h783a117 117 0 0 0 117-117V817a817 817 0 0 1 1526-405l874 1529V817a817 817 0 0 1 1526-405l874 1529V0h500l100 100L8500 0h500v3383a817 817 0 0 1-1526 405l-874-1529v1124a817 817 0 0 1-1526 405l-874-1529v1124a817 817 0 0 1-817 817H2100a2100 2100 0 0 1 0-4200h700v500l-100 100 100 100z"/><path fill="none" stroke="#fff" stroke-width="200" d="M2800 600h-700a1500 1500 0 0 0 0 3000h1283a217 217 0 0 0 217-217V817a217 217 0 0 1 405-108l1590 2782a217 217 0 0 0 405-108V817a217 217 0 0 1 405-108l1590 2782a217 217 0 0 0 405-108V0"/></svg>