<svg xmlns="http://www.w3.org/2000/svg" viewBox="0 0 923.08 430.77"><path fill="#c00" d="M287.14 123.14h-71.79a92.3 92.36 0 0 0 0 184.72h80.3a12 12 0 0 0 12-12V83.83a83.79 83.84 0 0 1 156.5-41.56l89.64 156.9V83.84a83.79 83.84 0 0 1 156.5-41.56l89.63 156.9V0h51.28l10.25 10.26L871.71 0h51.28v347.16a83.79 83.84 0 0 1-156.5 41.56l-89.64-156.9v115.34a83.79 83.84 0 0 1-156.5 41.56l-89.63-156.9v115.34A83.79 83.84 0 0 1 346.93 431H215.35a215.37 215.5 0 0 1 0-431h71.8v51.31l-10.26 10.26 10.25 10.26z"/><path fill="none" stroke="#fff" stroke-width="20.52" d="M287.14 61.57h-71.79a153.83 153.93 0 0 0 0 307.86h131.58a22.25 22.27 0 0 0 22.26-22.27V83.84a22.25 22.27 0 0 1 41.53-11.08l163.06 285.48a22.25 22.27 0 0 0 41.54-11.08V83.84a22.25 22.27 0 0 1 41.53-11.08l163.07 285.48a22.25 22.27 0 0 0 41.53-11.08V0"/></svg>