<svg xmlns="http://www.w3.org/2000/svg" aria-labelledby="title-bank-retail desc-bank-retail" viewBox="0 0 247.06 27.608"><path d="M5.593 2.006H0V.365h13.125v1.641H7.53v20.256H5.592zm8.684-1.64H16.1V8.38h.063c.457-1.638 2.03-2.613 3.947-2.613 2.462 0 4.131 1.278 4.131 4.313v12.185h-1.824V10.596c0-2.22-.912-3.313-2.762-3.313-2.131 0-3.558 1.64-3.558 4.135v10.844h-1.822V.364zm20.58 12.39c-.062-4.013-1.184-5.47-3.437-5.47-2.244 0-3.368 1.458-3.429 5.47h6.865zm1.792 4.158c-.275 3.434-2.158 5.716-5.193 5.716-3.402 0-5.406-2.371-5.406-8.452 0-5.585 2.004-8.413 5.558-8.413 3.583 0 5.195 2.463 5.195 7.84v.67h-8.81v.756c0 4.65 1.637 6.08 3.428 6.08 1.917 0 3.103-1.367 3.405-4.197zm15.446-4.891c0-2.4-.548-3.4-1.856-3.4-1.638 0-1.854 2.067-1.854 5.44 0 3.707.215 5.405 1.854 5.405 1.46 0 1.797-1 1.856-3.888h4.555c-.032 5.072-2.035 7.113-6.5 7.113-6.198 0-6.684-4.35-6.684-9.238 0-4.618 1.335-8.055 6.684-8.055 5.162 0 6.5 2.704 6.5 6.625h-4.558zm12.439-3.4c-1.458 0-1.885 1.425-1.885 5.407 0 4.013.427 5.438 1.885 5.438 1.516 0 1.822-1.363 1.822-5.406 0-4.073-.305-5.438-1.821-5.438m-6.805 5.469c0-4.923 1.09-8.693 6.775-8.693 6.013 0 6.771 3.68 6.771 8.6 0 4.925-1.094 8.693-6.772 8.693-6.02 0-6.775-3.679-6.775-8.6m26.835-5.47c-1.456 0-1.883 1.425-1.883 5.407 0 4.013.428 5.438 1.884 5.438 1.523 0 1.825-1.363 1.825-5.406 0-4.073-.302-5.438-1.825-5.438m-6.802 5.469c0-4.923 1.092-8.693 6.775-8.693 6.015 0 6.775 3.68 6.775 8.6 0 4.925-1.095 8.693-6.775 8.693-6.018 0-6.775-3.679-6.775-8.6m21.152 5.014c1.787 0 1.88-1.978 1.88-4.955 0-2.641-.058-5.165-1.912-5.165-1.457 0-1.762 1.762-1.762 4.955 0 2.912.122 5.166 1.792 5.166m-6.62-13.279h4.738v2.007h.058c.368-1.127 1.37-2.435 3.555-2.435 3.315 0 5.08 2.372 5.08 8.51 0 5.102-.73 8.78-4.772 8.78-1.37 0-2.856-.458-3.675-2.218h-.062v7.135h-4.923V5.828zm22.815 6.166c0-2.312-.302-3.555-1.669-3.555-1.612 0-1.883 1.338-1.883 3.555h3.553zm-3.552 2.854v1.002c0 2.557.366 3.8 1.794 3.8 1.275 0 1.67-.942 1.79-3.01h4.56c-.09 4.075-2.313 6.05-6.383 6.05-6.196 0-6.685-4.347-6.685-9.237 0-4.616 1.338-8.054 6.684-8.054 6.109 0 6.531 3.863 6.531 9.45h-8.292zm9.274-9.021h4.74v2.309h.06c.64-1.457 1.885-2.735 3.95-2.735.24 0 .483 0 .793.062v4.616a7.063 7.063 0 0 0-1.371-.121c-1.975 0-3.247.825-3.247 2.979v9.329h-4.925V5.829zm25.409 3.404h-2.033V5.828h2.034V.353h4.922v5.475h2.278v3.404h-2.278v8.292c0 1.155.428 1.52 1.575 1.52.213 0 .488-.03.7-.062v3.283a21.85 21.85 0 0 1-2.82.185c-3.406 0-4.378-.612-4.378-4.435v-8.78zm8.532-3.404h4.923v16.438h-4.922V5.828zm0-5.496h4.923v3.762h-4.922V.332zm5.951 5.496h5.104l1.913 12.125h.062l1.945-12.125h4.923l-4.073 16.438h-5.83l-4.042-16.438zm22.072 6.167c0-2.312-.302-3.555-1.67-3.555-1.607 0-1.88 1.338-1.88 3.555zm-3.55 2.854v1.003c0 2.556.363 3.8 1.788 3.8 1.28 0 1.67-.943 1.794-3.01h4.556c-.088 4.075-2.306 6.05-6.378 6.05-6.2 0-6.681-4.348-6.681-9.238 0-4.616 1.334-8.054 6.681-8.054 6.106 0 6.533 3.863 6.533 9.45h-8.293zM71.994 16h4.92v-4.012h-4.92zm66.732 1.035c0 1.643-.944 2.25-1.975 2.25-.912 0-1.427-.787-1.427-2.095 0-.912.243-1.429.758-1.825.455-.365 1.125-.392 2.675-1.212 0 .667-.03 1.517-.03 2.882m4.587 1.675v-8.447c0-3.463-1.793-4.863-5.831-4.863-2.038 0-3.435.28-4.588 1.065-1.009.688-1.647 1.82-1.812 3.59h4.406c.162-.917.635-1.432 1.717-1.432 1.093 0 1.55.64 1.55 1.64 0 1.25-.272 1.491-1.762 1.885-1.369.362-3.188.669-4.406 1.337-1.215.667-2.007 2.275-2.007 4.193 0 3.554 1.613 5.012 4.378 5.012 1.637 0 3.187-.853 3.857-2.309h.06c.03.638.09 1.305.274 1.883h4.738c-.575-.729-.575-2.309-.575-3.555" fill="#243d72"/><path d="M200.01 21.079c1.871 0 3.615-.968 3.615-7.112 0-6.11-1.744-7.076-3.615-7.076-1.9 0-3.616.967-3.616 7.075 0 6.146 1.712 7.113 3.615 7.113M194.52 0h1.872v8.2h.06c.404-1.746 1.81-2.87 3.866-2.87 3.65 0 5.302 2.934 5.302 8.637 0 5.738-1.654 8.672-5.3 8.672-1.965 0-3.555-1.218-4.054-3.12h-.062v2.745h-1.688V.002zm21.606 12.91h-.062c-.188.559-1.245.902-1.994 1.091l-1.559.404c-1.87.5-2.837 1.465-2.837 3.431 0 1.931 1 3.244 2.618 3.244 2.278 0 3.835-1.716 3.835-4.679V12.91zm-7.917-2.279c0-3.396 1.62-5.3 5.112-5.3 3.432 0 4.678 1.78 4.678 4.398v9.79c0 .935.312 1.375.965 1.375h.532v1.37c-.343.125-.625.185-.875.185-1.462 0-2.4-.342-2.4-2.055v-.563h-.062c-.746 2.184-2.431 2.809-4.273 2.809-2.9 0-4.208-1.81-4.208-4.679 0-2.182 1-3.927 3.337-4.584l3.523-.997c1.308-.375 1.587-.685 1.587-2.619 0-2.12-1.181-2.869-2.866-2.869-2.213 0-3.18 1.342-3.18 3.74h-1.87zm13.625-4.926h1.685v2.308h.062c.935-1.84 2.558-2.683 4.242-2.683 2.524 0 4.24 1.31 4.24 4.43v12.504h-1.872V10.289c0-2.275-.937-3.4-2.837-3.4-2.183 0-3.65 1.687-3.65 4.241v11.134h-1.87zM235.49 0h1.872v13.938h.063l6.421-8.232h2.308l-4.99 6.142 5.893 10.416h-2.303l-4.928-8.73-2.462 2.929v5.8h-1.873V0z" fill="#0d9ad2"/></svg>