<svg xmlns="http://www.w3.org/2000/svg" width="854.601" height="854.601"><g fill-rule="nonzero" fill="none"><path d="M655.707 698.777a6.981 6.981 0 01-2.55 9.531l-14.002 8.095a6.843 6.843 0 01-9.355-2.507l-27.184-47.135a6.773 6.773 0 00-8.789-2.734c-27.838 13.284-58.356 21.832-90.565 24.482a6.828 6.828 0 00-6.277 6.804v54.196c0 3.795-3.074 6.872-6.864 6.872h-16.135c-3.862 0-6.99-3.133-6.99-7v-54.074a6.777 6.777 0 00-6.25-6.755 259.58 259.58 0 01-90.686-24.182 6.891 6.891 0 00-8.924 2.789l-26.885 46.626a6.97 6.97 0 01-9.527 2.556l-13.99-8.09a6.868 6.868 0 01-2.508-9.377l26.937-46.72a6.898 6.898 0 00-2.047-9.117 263.05 263.05 0 01-66.482-66.456 6.8 6.8 0 00-8.992-2.015l-46.573 26.923a6.925 6.925 0 01-9.468-2.54l-7.993-13.86a7.084 7.084 0 012.59-9.671l46.42-26.836a6.8 6.8 0 002.736-8.807 260.395 260.395 0 01-24.365-90.92c-.287-3.559-3.24-6.304-6.805-6.304h-53.622c-3.861 0-6.99-3.135-6.99-7v-16.175a6.85 6.85 0 016.845-6.855h53.668c3.621 0 6.62-2.789 6.912-6.402a260.384 260.384 0 0124.33-90.776 6.859 6.859 0 00-2.759-8.883l-46.435-26.851a7.013 7.013 0 01-2.562-9.573l8.018-13.902a6.952 6.952 0 019.501-2.549l46.56 26.924a6.782 6.782 0 008.973-2.012 263.073 263.073 0 0166.54-66.504 6.833 6.833 0 002.028-9.035l-26.96-46.76a6.88 6.88 0 012.512-9.393l13.993-8.09a6.953 6.953 0 019.508 2.551l26.93 46.703a6.808 6.808 0 008.819 2.757 259.534 259.534 0 0190.699-24.21 6.837 6.837 0 006.304-6.812v-53.95c0-3.907 3.16-7.073 7.061-7.073h16.034c3.807 0 6.894 3.091 6.894 6.902v54.168a6.828 6.828 0 006.277 6.803c32.173 2.648 62.663 11.18 90.475 24.438a6.882 6.882 0 008.927-2.774l27.12-47.023a6.876 6.876 0 019.399-2.52l13.947 8.063a7.013 7.013 0 012.561 9.575l-27.106 47a6.905 6.905 0 002.043 9.119 264.38 264.38 0 0137.342 31.427c8.402 8.522 21.871 9.291 31.045 1.608l92.514-77.484c9.629-8.064 10.31-22.91 1.964-32.36C703.95 40.699 582.63-6.67 456.483.757 249.213 12.532 73.999 175.524 56.346 394.692c-17.071 254.5 179.812 457.815 425.286 459.91 123.951-1.415 233.407-52.925 308.775-132.544 10.31-10.835 9.246-28.174-2.22-37.775l-91.224-76.405c-8.016-6.714-19.858-6.112-27.123 1.41a264.287 264.287 0 01-39.286 33.396 6.802 6.802 0 00-2.013 8.987z" fill="#248bd2"/><path d="M484.07 467.685c-24.567 1.243-44.747-18.962-43.504-43.561 1.064-21.066 18.157-38.183 39.194-39.252 24.57-1.25 44.757 18.964 43.509 43.568-1.068 21.064-18.162 38.179-39.2 39.245m30.988-163.982c-68.76-17.471-131.645 21.396-152.47 80.2-1.138 3.214.227 6.785 3.176 8.49l48.295 27.92c4.587 2.65 4.587 9.28 0 11.93l-48.348 27.952c-2.915 1.684-4.27 5.211-3.146 8.39 17.396 49.213 64.244 84.479 119.353 84.479 81.004 0 144.241-76.162 122.186-160.87-10.065-38.654-50.377-78.666-89.046-88.491" fill="#423b3d"/></g></svg>