<svg xmlns="http://www.w3.org/2000/svg" fill="none" viewBox=".8 0 79.4 80"><ellipse cx="40.5" cy="40" fill="#004AE1" rx="39.7" ry="40"/><g fill-rule="evenodd" clip-path="url(#a)" clip-rule="evenodd"><path fill="#fff" d="m40.2 29.7-.6-3.1-28.7-4 9.2 14 1.9.3 4.8 7.9 4.4.5L40.4 67l9-21.7 4.5-.3 4.8-8.1 1.7-.3 9.3-14-28.7 4-.8 3.1Z"/><path fill="#004AE1" d="m35.8 30.5-16.4-3 3.3 5.2 9.7 1.3 1 3.4-6.5-.6 2.5 4.1 5.2.5L40.5 59l5.8-17.6 5.2-.5 2.5-4.1-6.4.6 1-3.4 9.6-1.3 3.4-5.1-16.6 3-4.6 17.6-4.6-17.7Z"/></g><defs><clipPath id="a"><path fill="#fff" d="M0 0h58.8v44.5H0z" transform="translate(10.9 22.5)"/></clipPath></defs></svg>
