<svg viewBox="0.8125 0 79.38400268554688 80" fill="none" xmlns="http://www.w3.org/2000/svg">
  <ellipse cx="40.5045" cy="40" rx="39.692" ry="40" fill="#004AE1"></ellipse>
  <g clip-path="url(#clip0)">
    <path fill-rule="evenodd" clip-rule="evenodd" d="M40.226 29.699L39.5767 26.5973L10.8906 22.5411L20.0985 36.6182L21.9873 36.8568L26.8273 44.7901L31.1952 45.3269L40.403 67.0391L49.3748 45.3269L53.8607 44.9691L58.7007 36.8568L60.3534 36.6182L69.7384 22.5411L40.9933 26.5973L40.226 29.699Z" fill="white"></path>
    <path fill-rule="evenodd" clip-rule="evenodd" d="M35.7982 30.5397L19.3828 27.5516L22.6895 32.6912L32.3734 34.0059L33.3182 37.3526L26.941 36.755L29.421 40.9383L34.5582 41.3566L40.463 59.0462L46.3088 41.3566L51.505 40.9383L53.985 36.755L47.6078 37.3526L48.5526 34.0059L58.2365 32.6912L61.6022 27.5516L45.0097 30.5397L40.4039 48.2293L35.7982 30.5397Z" fill="#004AE1"></path>
  </g>
  <defs>
    <clipPath id="clip0">
      <rect width="58.8477" height="44.4979" fill="white" transform="translate(10.8906 22.5411)"></rect>
    </clipPath>
  </defs>
</svg>
