<svg xmlns="http://www.w3.org/2000/svg" width="228.939" height="228.939"><g fill="#204056"><path d="M34.881 149.048c-1.603-4.859-2.397-10.994-2.397-19.241 0-8.25.794-14.394 2.397-19.244 4.475-13.907 16.333-21.505 31.856-21.505 11.53 0 20.66 4.691 26.747 12.129.47.643.631 1.611-.162 2.256l-10.085 8.895c-.804.651-1.6.488-2.245-.319-3.849-4.363-7.849-6.794-14.255-6.794-6.88 0-12.163 3.398-14.408 10.189-1.272 3.887-1.597 8.412-1.597 14.394 0 5.983.325 10.669 1.597 14.552 2.245 6.623 7.527 10.019 14.408 10.019 6.406 0 10.406-2.426 14.255-6.782.644-.818 1.441-.818 2.245-.169l10.085 8.895c.793.644.632 1.452.162 2.265-6.088 7.277-15.218 11.963-26.747 11.963-15.523-.003-27.38-7.604-31.856-21.503M171.12 189.637v14.729c0 .967.643 1.61 1.607 1.61h54.592c.977 0 1.62-.644 1.62-1.61v-14.73c0-.958-.644-1.601-1.62-1.601h-54.591c-.964 0-1.607.643-1.607 1.602"/><path d="M156.837 23.482c-.024-.024-.039-.055-.062-.078 0-.002-.01-.004-.01-.004-.279-.277-.677-.438-1.152-.438H1.608c-.121 0-.236.012-.348.032-.033.005-.06.017-.094.024-.073.018-.149.034-.216.061-.013.004-.023.011-.032.016-.569.234-.918.766-.918 1.471v179.787c0 .562.218 1.002.588 1.284.027.025.052.051.089.072v.001c.254.164.568.253.931.253h154.004c.541 0 .981-.211 1.258-.566.219-.271.346-.621.346-1.044V24.566c0-.439-.142-.808-.381-1.084M19.531 188.023a2.27 2.27 0 01-.329-.027c-.032-.007-.065-.02-.097-.028-.074-.017-.15-.033-.217-.059-.012-.005-.02-.013-.031-.017-.566-.231-.913-.759-.916-1.457V42.504c0-.707.35-1.235.916-1.47.014-.004.024-.012.034-.016.067-.026.279-.08.312-.088.106-.017.22-.027.333-.027h118.141c.117 0 .226.011.333.027.034.008.064.02.095.029.075.016.15.032.217.059.015.004.022.012.034.016.569.234.916.763.916 1.47v143.931c0 .698-.353 1.226-.915 1.457-.013.004-.02.012-.034.017-.064.025-.143.042-.217.059-.032.009-.06.021-.096.028-.105.018-.21.025-.326.027z"/></g></svg>