<svg xmlns="http://www.w3.org/2000/svg" height="40.002" width="40.002"><g fill="none" fill-rule="evenodd"><path d="M14.644.924L0 10.674v18.657l16.75-11.156c1.166-.773 2.11-2.538 2.11-3.935V3.181c0-2.797-1.887-3.81-4.217-2.257" fill="#bca1cc"/><path d="M14.01 20.001L0 29.331l14.642 9.748c.741.493 1.437.727 2.042.727 1.297 0 2.175-1.077 2.175-2.983V25.764c0-1.4-.943-3.16-2.11-3.938l-2.739-1.825" fill="#7f3f98"/><path d="M.001 10.674V29.33l15.002-8.668z" fill="#7f3f98"/><path d="M25.359.924l14.643 9.75v18.657l-16.75-11.156c-1.165-.773-2.11-2.538-2.11-3.935V3.181c0-2.797 1.888-3.81 4.216-2.257" fill="#bca1cc"/><path d="M25.993 20.001l-2.742 1.826c-1.164.776-2.109 2.537-2.109 3.938v11.058c0 1.906.878 2.983 2.175 2.983.605 0 1.301-.233 2.041-.727l14.643-9.749-14.008-9.329" fill="#7f3f98"/><path d="M40.001 10.674L24.96 20.688l15.041 8.642z" fill="#7f3f98"/></g></svg>