<svg xmlns="http://www.w3.org/2000/svg" viewBox="0 0 639.8 635.7"><path fill="#d85326" d="M290.9.5a66 66 0 0 0-12.7 1.7c-.4.4-4.6 17.1-9.3 37.2-4.7 20.1-9 37.1-9.3 38-.5.7-4.7 2.4-9.5 3.7-12.5 3.3-30 10.3-45.3 18.2l-13.2 6.8-18-11-33-20.4a189 189 0 0 0-16.1-9.3c-1.3 0-18.4 14.6-29.4 25.1A487.5 487.5 0 0 0 76 110.8l-11.4 13 5 8 21 33.5 16 25.4-2.7 4.6a295.8 295.8 0 0 0-24 57.3c-1.4 5.1-1.8 5.7-4.8 6.3l-34.7 8L5.2 275c-3.6.7-3.7.8-4.5 6.4-1.1 7.7-.8 72 .4 75.5l.9 3 37.8 8.7c20.7 4.8 38 9 38.3 9.3.4.4 1.7 4.3 3 8.7 4.9 17.1 15 41 22.4 53l3 5-2.5 4.2c-1.3 2.3-8.6 14-16 25.7l-18 28.8c-2.5 4-4.6 7.7-4.6 8.2 0 3.4 36 40.5 51.7 53.3 6.5 5.3 7.4 5.7 9.5 4.6 1.3-.6 16.4-9.9 33.6-20.5a1167 1167 0 0 1 31.6-19.4 267.7 267.7 0 0 0 61.4 26c4.7 1.4 7.2 2.6 7.2 3.6 0 3.6 17.2 74 18.3 74.6.7.4 2.6.8 4.2.8l19.5 1A451 451 0 0 0 360 634c1.8-.4 3-4.7 11-38.5l8.9-38 7-2a277 277 0 0 0 61-26c.2 0 15.3 9.2 33.5 20.5s33.4 20.5 33.7 20.5c4 0 59.3-54.8 59.3-58.9 0-.4-9.3-15.6-20.6-33.7L533.2 445l3.7-6.5a255.8 255.8 0 0 0 21.8-52c2.9-10-.8-8.3 35.2-16.6 13.8-3 29.3-6.7 34.5-7.9l9.5-2.2.9-3.9a800 800 0 0 0 .3-74.5c-.8-5.6-1-5.7-4.5-6.4-6-1-72.6-16.7-73.4-17.2-.5-.2-.8-1.2-.8-2a284 284 0 0 0-24-59.3l-3.2-5.8 20-32A1342 1342 0 0 0 574 125c1.8-4.5-54.6-60.6-59.5-59.2a756 756 0 0 0-34 20.4l-32.3 20-13.1-6.8c-17.6-9-35-15.7-51.2-19.8l-4-1-7.4-31.8a2952 2952 0 0 0-9-38.3L361.9 2l-5.5-.7C346.4 0 303-.5 290.9.5Z"/><path fill="#fff" d="M344.4 139a173.4 173.4 0 0 1 102 53c11.6 12 18 20.6 25.9 34.4 5.3 9.2 13.7 27.8 12.9 28.5l-18.3 4.8a10088.5 10088.5 0 0 0-72 18.4c-1.5.3-2.4-.4-3.3-2.7a88.3 88.3 0 0 0-29.5-31.9 75.9 75.9 0 0 0-42.7-11.4c-15 .1-24 2.2-37.5 8.7-42.5 20.8-57.1 72.3-32.3 114.4 5 8.5 18.9 22 28.3 27.6a82.6 82.6 0 0 0 71.7 5.4c18-6.9 31.6-19.2 44.4-40.4 1-1.7 4-1 46 10.1a1182 1182 0 0 1 45.8 12.6c2.4 2.1-12.3 30.7-24 46.5-7.8 10.8-28 30.5-39.4 38.6a190.5 190.5 0 0 1-71.7 30 204.7 204.7 0 0 1-62.5 0 175.9 175.9 0 0 1-143-203.2c12.7-71.9 72-129.9 145.8-142.4 19.8-3.4 34-3.6 53.5-.9"/></svg>