<svg xmlns="http://www.w3.org/2000/svg" viewBox="0 0 250 182.8"><path fill="#ffab5c" d="M149.7 173.6a202 202 0 0 1-64.2 9.1c-20.2-.6-37.6-5.4-52-14.3a69 69 0 0 1-30-40.8 69 69 0 0 1 2.6-50.7 102.8 102.8 0 0 1 35.7-40.2 205.3 205.3 0 0 1 58.8-27.4c22.5-6.8 43.8-9.8 64-9.2a104 104 0 0 1 52 14.1A68.5 68.5 0 0 1 246.4 55a68.8 68.8 0 0 1-2.7 50.6 104.3 104.3 0 0 1-35.6 40.5 200.7 200.7 0 0 1-58.5 27.5z"/><path fill="#83254f" fill-rule="evenodd" d="M179.2 134a145 145 0 0 1-38.4 16c-16 4.3-31.3 6-45.6 5.1a73.3 73.3 0 0 1-36.4-11 48.8 48.8 0 0 1-20.4-29.6 48.7 48.7 0 0 1 2.8-35.7 72 72 0 0 1 26-27.7A150 150 0 0 1 109.4 33c16-4.3 31.2-6 45.4-5.2 9.6.6 18.2 2.4 25.8 5.5a48.4 48.4 0 0 1 31 35 48.6 48.6 0 0 1-5.4 40 16 16 0 0 0-3.8-7.3l-3-2.9a30.8 30.8 0 0 0-8.3-4.2 50.2 50.2 0 0 0-16-2.4 51 51 0 0 0-15.9 2.4 25.7 25.7 0 0 0-11.4 7 17.1 17.1 0 0 0-4.2 12 17 17 0 0 0 4.2 11.7 26 26 0 0 0 11.4 7.2 50.3 50.3 0 0 0 20 2.2zm-50.8-8.6a18 18 0 0 1-5.9 3.8 56.3 56.3 0 0 1-45 0 20.6 20.6 0 0 1-7.5-6.6c-1.8-2.7-2.7-6-2.7-10 0-3.9 1-7.2 2.7-9.9 2-2.7 4.3-4.9 7.4-6.6 3.1-1.6 6.6-2.8 10.4-3.6a61.2 61.2 0 0 1 34.6 3.3 19 19 0 0 1 6 4.3L118 107a15 15 0 0 0-7-4 43.4 43.4 0 0 0-17.9-1 24 24 0 0 0-6 1.8c-1.8.8-3.3 2-4.5 3.4a8.9 8.9 0 0 0-1.6 5.6c0 2.2.5 4 1.6 5.5a13 13 0 0 0 4.5 3.5 23 23 0 0 0 6 1.8 41.7 41.7 0 0 0 18-1c3.2-1.2 5.4-2.5 6.7-3.9l10.6 7zm46.8-1.5c5.6 0 10-1 13.2-3 3-2 4.6-4.8 4.6-8.2 0-3.5-1.5-6.2-4.7-8-3-2-7.5-3-13-3a25 25 0 0 0-13.4 3 9.1 9.1 0 0 0-4.7 8c0 3.4 1.5 6.1 4.7 8.1s7.6 3 13.3 3z"/></svg>
