<svg xmlns="http://www.w3.org/2000/svg" width="50" height="50" style="fill:none"><g transform="translate(-30 -30)"><circle r="25" cy="55" cx="55" style="fill:#0b1621"/><path d="M62.587 60.786c.68 0 1.565.348 2.186 1.827.089.203.148.436.148.639 0 2.436-5.644 4.64-8.923 4.814-.236 0-.502.03-.739.03-4.875 0-9.395-2.553-11.73-6.672a12.715 12.715 0 0 1-1.624-6.265c0-2.523.738-5.046 2.186-7.221 1.123-1.74 3.31-4.032 7.15-5.28.975-.318 2.689-.753 4.639-.753 1.89 0 3.988.406 5.82 1.769 2.57 1.885 3.102 3.944 3.102 5.279 0 .58-.088 1.015-.177 1.276-.59 2.117-2.57 3.741-4.875 4.06-.532.058-.975.116-1.388.116-2.098 0-2.807-.87-2.807-1.856 0-1.334 1.27-2.9 2.186-2.9.118 0 .237.029.325.087.237.145.532.203.798.203.089 0 .148 0 .236-.03.739-.086 1.123-.58 1.123-1.188 0-1.132-1.36-2.669-4.314-2.669-.945 0-2.038.145-3.28.522-2.6.783-4.047 2.61-4.786 3.742a8.584 8.584 0 0 0-1.447 4.785 8.48 8.48 0 0 0 1.063 4.12c1.537 2.696 4.55 4.379 7.8 4.379h.503c4.225-.232 5.2-2.32 6.145-2.727.148-.029.414-.087.68-.087z" style="fill:#fff"/></g></svg>