<svg xmlns="http://www.w3.org/2000/svg" viewBox="0 0 50 50"><circle cx="25" cy="25" r="25" fill="#0b1621"/><path fill="#fff" d="M34.2 30.8c1.28 0 2.18 1.29 2.33 2.45-.16 1.61-1.78 2.48-3.06 3.18-3.24 1.61-7.09 2.21-10.59 1.09-4.63-1.35-8.45-5.35-9.19-10.19-1.44-7.18 4.22-14.23 11.27-15.2 3.1-.57 6.62-.14 9.02 2.08 1.72 1.42 2.9 3.78 2.25 6.02-.9 3.2-4.54 4.67-7.58 4.03-1.67-.25-1.83-2.34-.89-3.44.6-1.3 1.84-1.15 2.95-.9 1.66-.18 1.2-2.36.07-2.96-1.9-1.32-4.43-1-6.54-.39-6.57 1.76-8.59 11.65-2.64 15.38 2.97 2.05 7.4 2.32 10.4.13.7-.48 1.24-1.4 2.2-1.29z"/></svg>