<svg xmlns="http://www.w3.org/2000/svg" width="192" height="40" fill="none"><path d="m28.84 27.62 4.82 4.18a15.78 15.78 0 0 1-3.3 3.39 20.05 20.05 0 0 1-5.21 2.96 17.11 17.11 0 0 1-6.53 1.22c-3.64 0-6.84-.82-9.65-2.47a17.57 17.57 0 0 1-6.59-6.78A19.83 19.83 0 0 1 0 20.4c-.03-2.56.46-5.13 1.37-7.54A18.82 18.82 0 0 1 5.25 6.7a17.69 17.69 0 0 1 5.95-4.2A18.7 18.7 0 0 1 18.83 1c3.63 0 6.62.7 9.03 2.14a18.6 18.6 0 0 1 5.8 5.22l-4.88 4.33a14.79 14.79 0 0 0-4.1-4.06c-1.55-1-3.5-1.53-5.85-1.53a10.5 10.5 0 0 0-6.16 1.8 11.95 11.95 0 0 0-4 4.8 15.03 15.03 0 0 0-1.4 6.5 14.41 14.41 0 0 0 1.4 6.37 11.34 11.34 0 0 0 3.94 4.55 10.47 10.47 0 0 0 5.92 1.71c2.13 0 3.84-.3 5.12-.95a10.57 10.57 0 0 0 3.12-2.16l2.07-2.1zm6.68-2.04c-.03-2.41.58-4.76 1.77-6.87a13.63 13.63 0 0 1 4.86-5 13.73 13.73 0 0 1 7.23-1.86c2.74 0 5.15.6 7.23 1.86a13.17 13.17 0 0 1 4.85 5 14.26 14.26 0 0 1 0 13.73 13.72 13.72 0 0 1-4.85 5.04 13.75 13.75 0 0 1-7.23 1.9c-2.75 0-5.16-.65-7.24-1.9a13.47 13.47 0 0 1-4.85-5.04 13.55 13.55 0 0 1-1.77-6.86zm13.86 8.18c1.64 0 3.02-.43 4.09-1.26a7.74 7.74 0 0 0 2.4-3.17 9.42 9.42 0 0 0 .8-3.75 9.16 9.16 0 0 0-.8-3.73 7.85 7.85 0 0 0-2.4-3.14 6.53 6.53 0 0 0-4.1-1.25c-1.64 0-3.01.43-4.08 1.25a7.65 7.65 0 0 0-2.41 3.14 9.27 9.27 0 0 0-.8 3.73c0 1.28.28 2.56.8 3.75a7.94 7.94 0 0 0 2.4 3.17 6.53 6.53 0 0 0 4.1 1.26zM64.5 8.67v-6.8H71v6.8zm0 29.82V12.73H71V38.5zm9 0V12.73h6.2l.15 2.9c.86-.89 1.8-1.65 2.87-2.29a8.97 8.97 0 0 1 4.89-1.19c3.17 0 5.61.95 7.32 2.9 1.7 1.92 2.56 4.52 2.56 7.78V38.5h-6.47V22.9a5.2 5.2 0 0 0-1.34-3.78 4.67 4.67 0 0 0-3.48-1.37 5.7 5.7 0 0 0-4.45 1.98 7.04 7.04 0 0 0-1.77 4.82V38.5z" fill="#1c2951"/><path d="m177.36 18.83 11.36-16.96h-10.8l-5.9 9.49-6.1-9.5h-11.96l.55.77a2.12 2.12 0 0 0-.4-.15 24.13 24.13 0 0 0-8.82-1.59c-3.78 0-7.08.85-9.95 2.53a17.56 17.56 0 0 0-5.49 5 15.63 15.63 0 0 0-5.95-4.57 24.6 24.6 0 0 0-10.07-1.95H99.76v36.62h14c3.73 0 7.09-.68 10.08-2.02a15.78 15.78 0 0 0 5.95-4.51 17.89 17.89 0 0 0 5.58 5 19.53 19.53 0 0 0 9.92 2.47c3.27.06 6.5-.67 9.43-2.07l-.76 1.16h10.65l7.1-11.26 7.3 11.26h12.15zm-56.54 8.37c-1.77 1.8-4.21 2.71-7.36 2.71h-3.96V10.35h3.96c3.45 0 5.95.89 7.57 2.69s2.41 4.15 2.41 7.08c0 2.92-.88 5.27-2.62 7.08zm38.88 2.68-4.64-4.36a14.28 14.28 0 0 1-3.91 3.5 10.34 10.34 0 0 1-5.22 1.17 9.84 9.84 0 0 1-5.1-1.32 8.73 8.73 0 0 1-3.38-3.66 11.52 11.52 0 0 1-1.2-5.25 11.07 11.07 0 0 1 1.17-5.12 8.87 8.87 0 0 1 3.32-3.64A9.86 9.86 0 0 1 146 9.86a9.48 9.48 0 0 1 4.89 1.25c1.43.86 2.68 2.02 3.69 3.36l4.82-4.85 7.05 10.13z" fill="#f94a29"/></svg>
