<svg xmlns="http://www.w3.org/2000/svg" width="28" height="28" fill="none"><path fill-rule="evenodd" clip-rule="evenodd" d="M6.366 16.713l15.236 6.651v3.1c0 .85-.687 1.536-1.537 1.536a1.64 1.64 0 01-.596-.117L8.237 22.976a3.035 3.035 0 01-1.87-2.675zm0-8.835c0 1.168.65 2.177 1.604 2.69l.04.021 1.546.696 6.235 2.72h.01v.009l4.924 2.15c.514.24.863.748.876 1.346v4.483l-15.235-6.65zm15.268-1.916v4.446c0 .575-.32 1.08-.792 1.339l-.03.016-3.423 1.498-1.555-.68v-.009h-.01l-4.667-2.036zM20.094 0c.839 0 1.519.669 1.537 1.503v3.142L9.585 9.899l-1.543-.695a3.049 3.049 0 01-1.57-2.032 3.053 3.053 0 011.75-2.12l.044-.019L19.58.09c.162-.063.334-.09.515-.09z" fill="#0182ff"/></svg>