<svg xmlns="http://www.w3.org/2000/svg" width="59.42" height="59.42"><defs><linearGradient id="a" x1="14.91" y1="-5063.79" x2="43.91" y2="-5063.79" gradientTransform="matrix(1 0 0 -1 0 -5034.96)" gradientUnits="userSpaceOnUse"><stop offset="0" stop-color="#20479d"/><stop offset=".03" stop-color="#0044bc"/><stop offset="1" stop-color="#00aad1"/></linearGradient></defs><path d="M57.795 42.73l-37.56 16.46a2.7 2.7 0 01-3.56-1.38L.235 20.23a2.7 2.7 0 011.38-3.56L39.175.23a2.7 2.7 0 013.56 1.38l16.46 37.56a2.72 2.72 0 01-1.4 3.56z" fill="#fff"/><path d="M29.69 38.15a8 8 0 01-8-8v-2.64a8 8 0 018-8h11.76a2.46 2.46 0 002.46-2.45V15a2.46 2.46 0 00-2.46-2.45h-13a13.58 13.58 0 00-13.54 13.52v5.53a13.58 13.58 0 0013.57 13.57h13a2.46 2.46 0 002.46-2.45v-2.13a2.46 2.46 0 00-2.46-2.45z" fill="url(#a)" transform="translate(.005)"/></svg>