<svg xmlns="http://www.w3.org/2000/svg" viewBox="0 0 21.7 21.7"><path fill="none" stroke="#75bda7" stroke-miterlimit="10" stroke-width="2.05" d="M5.79 2.3c-5.7 6.4-.5 14.2 4.9 14.7" class="st3"/><path fill="none" stroke="#75bda7" stroke-miterlimit="10" stroke-width=".51" d="M6.99 3.3c-4.6 5.2-.5 11.6 3.9 12"/><path fill="none" stroke="#75bda7" stroke-miterlimit="10" stroke-width="2.05" d="M14.29 16.9c1.2-.1 2.4-.6 3-1.2" class="st3"/><path fill="none" stroke="#75bda7" stroke-miterlimit="10" stroke-width=".51" d="M14.09 15.3c.2 0 1.3-.1 1.9-.7"/><path fill="#ea7c39" d="m4.99.9.8-.9c1.1 2.1 2.7 2.4 2.7 2.4l-.2.4 3.2 2.6s1.6-.5 2.5.4c.8 1 .3 2 .3 2.1l5 5.5.1.2-.2.1v1.4l-.7.8h-.1l-2.2-2v-.1l.2-.2c.5-.6.4-.5.4-.5l1.4-.1-4.6-4.2c-.2.1-.4.1-.5.2.2 3.3.5 6.6.7 9.9l2.8 2.8h-1.9l-.7-.9.1.9h-3.1l.1-.9-.7.9h-1.9c.9-.9 1.8-1.9 2.7-2.8.3-3.3.5-6.7.8-10-.4-.2-1-.5-1.2-1.1-.2-.6 0-1.2.1-1.4zm7.5 5.6c-.3 0-.6.3-.6.6s.3.6.6.6.6-.3.6-.6-.3-.6-.6-.6z"/></svg>