<?xml version="1.0" encoding="utf-8"?>
<!-- Generator: Adobe Illustrator 19.2.1, SVG Export Plug-In . SVG Version: 6.00 Build 0)  -->
<svg version="1.1" id="layer" xmlns="http://www.w3.org/2000/svg" xmlns:xlink="http://www.w3.org/1999/xlink" x="0px" y="0px"
	 viewBox="0 0 652 652" style="enable-background:new 0 0 652 652;" xml:space="preserve">
<style type="text/css">
	.st0{fill:#595959;}
	.st1{fill:#8DC63F;}
	.st2{fill:#F9E988;}
	.st3{fill:#FFFFFF;}
	.st4{fill:#8BC53F;}
	.st5{fill:#009345;}
	.st6{fill:#58595B;}
</style>
<path class="st0" d="M273.2,300.2c-1.6-6.4-5.7-11-13.8-11c-11.9,0-16.8,10.5-16.8,21.1c0,10.6,5,21.1,16.8,21.1
	c8.6,0,13.3-6.4,14.1-14.5h9.5c-0.8,13.3-10.2,22.4-23.6,22.4c-16.6,0-26.5-13.2-26.5-29c0-15.8,9.9-29,26.5-29
	c12.5,0.1,22.3,7,23.5,18.9L273.2,300.2z M273.2,300.2 M288.8,317.9c0-12.3,7.4-21.1,20.2-21.1s20.2,8.8,20.2,21.1
	c0,12.3-7.4,21.2-20.2,21.2S288.8,330.2,288.8,317.9L288.8,317.9z M320.4,317.9c0-6.9-3.5-14.1-11.4-14.1c-7.9,0-11.4,7.2-11.4,14.1
	c0,6.9,3.5,14.2,11.4,14.2C316.9,332.1,320.4,324.9,320.4,317.9L320.4,317.9z M320.4,317.9 M336.8,282.6h8.8v8.4h-8.8V282.6z
	 M336.8,297.9h8.8V338h-8.8V297.9z M336.8,297.9 M355.3,297.9h8.4v5.9l0.2,0.2c2.6-4.4,7.3-7.2,12.5-7.1c8.7,0,14.2,4.7,14.2,13.6
	V338h-8.8v-25.2c-0.2-6.3-2.6-9-7.8-9c-5.9,0-9.7,4.6-9.7,10.5V338h-8.8V297.9z M355.3,297.9 M449.4,338h-6.2l-1.5-6.5
	c-5.2,5.9-9.9,7.8-16.7,7.8c-16.6,0-26.5-13.2-26.5-29c0-15.8,9.9-29,26.5-29c12.1,0,22.3,6.4,23.7,18.9h-9.5
	c-0.9-7.3-7.3-11-14.3-11c-11.9,0-16.8,10.5-16.8,21.1c0,10.6,5,21.1,16.8,21.1c9.9,0.2,15.4-5.8,15.5-15.2h-14.7v-7.4h23.6
	L449.4,338z M449.4,338 M465.6,320.2c0,6.3,3.4,11.9,10.8,11.9c5.1,0,8.2-2.2,9.8-6.7h8.4c-1.9,8.8-9.4,13.7-18.2,13.7
	c-12.6,0-19.6-8.8-19.6-21.1c0-11.4,7.5-21.2,19.4-21.2c12.6,0,20.4,11.4,18.9,23.4H465.6z M486.2,314.4
	c-0.3-5.6-4.1-10.6-10.1-10.6c-6.1,0-10.3,4.6-10.6,10.6H486.2z M486.2,314.4 M528.9,311.3c-0.7-4.9-4.3-7.5-9.2-7.5
	c-4.6,0-11,2.4-11,14.6c0,6.7,2.9,13.7,10.6,13.7c5.1,0,8.7-3.4,9.5-9.2h8.8c-1.6,10.4-8,16.1-18.4,16.1c-12.6,0-19.5-8.9-19.5-20.7
	c0-12.1,6.6-21.6,19.8-21.6c9.3,0,17.2,4.7,18.1,14.5H528.9z M528.9,311.3 M545.2,282.6h8.8v31.5l16-16.2h10.9l-15.4,14.7l16.8,25.4
	h-10.8l-12.3-19.5l-5.3,5.1V338h-8.8V282.6z M545.2,282.6 M584.7,317.9c0-12.3,7.4-21.1,20.2-21.1c12.9,0,20.2,8.8,20.2,21.1
	c0,12.3-7.4,21.2-20.2,21.2C592.1,339.1,584.7,330.2,584.7,317.9L584.7,317.9z M616.4,317.9c0-6.9-3.5-14.1-11.4-14.1
	c-7.9,0-11.4,7.2-11.4,14.1c0,6.9,3.5,14.2,11.4,14.2C612.9,332.1,616.4,324.9,616.4,317.9L616.4,317.9z M616.4,317.9"/>
<path class="st1" d="M183.8,316.9c0.1,32.1-19,61.1-48.6,73.5c-29.6,12.4-63.7,5.8-86.5-16.8C25.9,351,19,316.9,31.1,287.2
	c12.1-29.7,41-49.1,73-49.3C148,237.8,183.6,273.1,183.8,316.9L183.8,316.9z M183.8,316.9"/>
<path class="st2" d="M177.9,316.9c0.1,29.7-17.6,56.5-45,68c-27.4,11.5-58.9,5.3-80-15.5c-21.1-20.9-27.5-52.4-16.3-79.8
	c11.2-27.5,37.9-45.4,67.5-45.6C144.7,243.8,177.7,276.4,177.9,316.9L177.9,316.9z M177.9,316.9"/>
<path class="st3" d="M105.9,248.7c4.7-0.8,9.4-0.8,14.1,0c4.7,0.7,9.3,2.3,13.5,4.5c4.2,2.3,7.8,5.4,11.4,8.3
	c3.6,2.9,7.2,5.9,10.6,9.2c3.5,3.2,6.5,6.9,9,10.9c2.6,4,4.7,8.3,6.3,12.7c3.1,9,4.1,18.7,2.6,27.9h-0.5c-1.5-9.2-3.6-17.9-6.9-26.2
	c-1.5-4.2-3.4-8.3-5.4-12.2c-2.2-3.9-4.5-7.8-7.1-11.4c-2.6-3.7-5.9-7-9.6-9.7c-3.7-2.7-8-4.4-12.1-6c-4.1-1.6-8.3-3.3-12.6-4.6
	c-4.3-1.2-8.7-2.2-13.3-3.1L105.9,248.7z M105.9,248.7"/>
<path class="st4" d="M141.7,291c-5.3-1.5-10.8-3.7-16.4-5.9c-0.3-1.4-1.6-3.1-4.1-5.3c-3.6-3.2-10.5-3.1-16.4-1.7
	c-6.5-1.5-13-2.1-19.2-0.6c-50.7,14-22,48-40.6,82.3c2.6,5.6,31.2,38.4,72.5,29.6c0,0-14.1-33.9,17.8-50.2
	C161.2,326,179.8,301.4,141.7,291L141.7,291z M141.7,291"/>
<path class="st5" d="M104.8,278.1c3.7,0.3,17.1,4.6,20.5,7C122.4,276.8,112.8,275.7,104.8,278.1L104.8,278.1z M104.8,278.1"/>
<path class="st3" d="M148,313.3c0,2.7-3.3,4.1-5.2,2.2c-1.9-1.9-0.6-5.2,2.1-5.3C146.6,310.3,148,311.6,148,313.3L148,313.3z
	 M148,313.3 M108.3,299.2c0,5.7-3.5,10.9-8.8,13.1c-5.3,2.2-11.4,1-15.5-3.1c-4.1-4.1-5.3-10.2-3.1-15.5c2.2-5.3,7.4-8.8,13.1-8.8
	c3.8,0,7.4,1.5,10,4.1C106.8,291.8,108.3,295.4,108.3,299.2L108.3,299.2z M108.3,299.2"/>
<path class="st6" d="M104.1,299.3c0,4-2.4,7.7-6.2,9.2c-3.7,1.5-8,0.7-10.9-2.2c-2.9-2.9-3.7-7.1-2.2-10.9c1.5-3.7,5.2-6.2,9.2-6.2
	C99.6,289.3,104.1,293.8,104.1,299.3L104.1,299.3z M104.1,299.3"/>
<path class="st4" d="M159.5,319.6c-11.5,8.1-24.6,14.2-43.1,14.2c-8.7,0-10.4-9.2-16.2-4.7c-3,2.3-13.4,7.5-21.7,7.2
	c-8.3-0.4-21.7-5.3-25.4-22.9c-1.5,17.7-2.2,30.7-8.9,45.6c13.2,21.2,44.7,37.5,73.3,30.5c-3.1-21.5,15.7-42.5,26.2-53.2
	C147.8,332.1,155.5,325.5,159.5,319.6L159.5,319.6z M159.5,319.6"/>
<path class="st6" d="M159,320.1c-3.6,3.3-7.8,5.7-12.1,7.8c-4.4,2.1-8.9,3.7-13.6,5c-4.7,1.2-9.6,2.1-14.5,1.7
	c-5-0.4-10-2.1-13.3-5.8l0.2-0.2c4,2.6,8.7,3.5,13.3,3.7c4.7,0.1,9.4-0.2,14-1.1c4.6-1,9.2-2.4,13.6-4.2c4.4-1.8,8.7-3.9,12.5-6.9
	L159,320.1z M159,320.1"/>
</svg>
