<svg xmlns="http://www.w3.org/2000/svg" version="1.1" id="Layer_1" x="0" y="0" xml:space="preserve" width="238" height="238"><style type="text/css" id="style6517">.st0{fill:#222}</style><g id="g6527" transform="translate(-1 -1)"><path class="st0" d="M166.8 49.4L120 1 73.1 49.4c13.3-9.5 29.4-15.1 46.8-15.1 17.5.1 33.6 5.7 46.9 15.1z" id="path6519"/><path class="st0" d="M235.1 120l-46.9-48.5c6.5 9.8 11.1 21.1 13.2 33.2l-55.5 4.4C141.8 98.5 131.7 91 120 91c-15.4 0-28 12.9-28 28.9 0 15.9 12.5 28.9 28 28.9 11.8 0 21.8-7.5 25.9-18.1l55.5 4.4c-2.1 12.2-6.7 23.4-13.2 33.2z" id="path6521"/><path class="st0" d="M4.9 120l46.8 48.4C42.6 154.6 37.2 138 37.2 120s5.4-34.7 14.5-48.5z" id="path6523"/><path class="st0" d="M73.1 190.6l46.8 48.4 46.8-48.4c-13.3 9.5-29.4 15-46.8 15-17.3 0-33.4-5.5-46.8-15z" id="path6525"/></g></svg>