<svg xmlns="http://www.w3.org/2000/svg" viewBox="0 0 90 90"><defs><linearGradient id="a" x1="55.9%" x2="49.54%" y1="22.06%" y2="76.35%"><stop offset="0%" stop-color="#EA8632"/><stop offset="100%" stop-color="#D6721E"/></linearGradient><linearGradient id="b" x1="-182168.56%" x2="-182154.78%" y1="-.27%" y2="73.58%"><stop offset="0%" stop-color="#EA8632"/><stop offset="100%" stop-color="#D6721E"/></linearGradient><linearGradient id="c" x1="-112016.14%" x2="-111996.28%" y1="25.45%" y2="89.04%"><stop offset="0%" stop-color="#EA8632"/><stop offset="100%" stop-color="#D6721E"/></linearGradient><linearGradient id="d" x1="44.59%" x2="55.3%" y1="100.93%" y2="3.32%"><stop offset="0%" stop-color="#D69547"/><stop offset="100%" stop-color="#CC6806"/></linearGradient><linearGradient id="e" x1="60.33%" x2="47.79%" y1="23.89%" y2="67.22%"><stop offset="0%" stop-color="#F0CD59"/><stop offset="100%" stop-color="#F7931A"/></linearGradient><linearGradient id="f" x1="-92.99%" x2="-103.48%" y1="337.23%" y2="239.6%"><stop offset="0%" stop-color="#D69547"/><stop offset="100%" stop-color="#CC6806"/></linearGradient></defs><path fill="url(#a)" d="M17.61 47.97c-.05-.65.23-1.29.75-1.7-1.68-.17-2.97-.85-2.93-2.52.05-1.67 1.34-2.25 2.95-2.61a1.98 1.98 0 01-.9-1.74c.13-3.52 7.6-.47 7.6-.47V48.19s-7.22 3.27-7.47-.22z" transform="translate(3)"/><path fill="url(#b)" d="M18.47 65.02c-.04-.45.16-.9.52-1.15-1.15-.14-2.04-.59-2-1.74.05-1.15.91-1.6 2-1.78a1.3 1.3 0 01-.6-1.17c0-2.4 5.18-.32 5.18-.32v6.33s-4.94 2.26-5.1-.17z" transform="translate(3)"/><path fill="url(#c)" d="M16.2 25.3c.26-.75.9-1.31 1.68-1.48-1.77-1.06-2.88-2.48-1.95-4.3.93-1.83 2.68-1.95 4.54-1.45a2.25 2.25 0 01-.12-2.26c1.93-3.83 8.7 3.3 8.7 3.3l-1.33 3.04-.16.38L26 26.07l-.19.45-1.31 2.98s-9.81-.18-8.3-4.2z" transform="translate(3)"/><path fill="#D6753E" d="M32.5 84.61S19.8 90 12.96 84.6l2.1-3.61h14.92c.16 0 3.7.7 3.7.7L32.5 84.6z"/><path fill="url(#d)" d="M53.53 58.05c1.9 1.08 6.62 2.84 4.7 7.42a9.03 9.03 0 01-2.61 2.93c-1.59 1.01-.19 1.5.74 1.4.93-.12 12.08-2.46 6.8-11.82-.95-1.7-5.23-5.48-9.06-4.8-3.83.67-1.57 4.33-.57 4.87z" transform="translate(3)"/><path fill="url(#e)" d="M23.46 60.44v3.63s-.9 12.65-8.48 12.65c0 0-13 1.35-14.98-17.48 0 0-.61 37.98 28.92 24.4L30.05 90l7.57-9.79 12.72 1.36 4.71 7.08.75-36.85s23.07 3.25 27.2 3.7c0 0 8.17-48.05-22.1-50.15C20.83.8 23.84 33.5 23.84 33.5l-.27 19.62-.11 7.33z" transform="translate(3)"/><path fill="#EDEDBB" d="M37.63 42.96c.2-6.87 1.52-9.15 3.13-9.15 1.6 0 3.26 5.93 3.13 13.19l-6.26-4.04z"/><path fill="#D69547" d="M54.1 32.5c0 1.53 2.5 2.77 5.56 2.77 3.06 0 5.55-1.24 5.55-2.77s-2.5-2.75-5.55-2.75c-3.06 0-5.55 1.24-5.55 2.75zm17.41-.56c-.18.76.75 1.62 2.06 1.94 1.32.31 2.52 0 2.7-.82.18-.8-.82-1.69-2.06-1.91-1.25-.23-2.52.04-2.7.79zm-22.84 2.7c-.12.54.54 1.15 1.5 1.38.94.22 1.83 0 1.94-.57.12-.56-.52-1.17-1.47-1.4-.95-.22-1.84.05-1.97.6zm11.06 2.78c-.14.54.52 1.15 1.45 1.37.93.23 1.81 0 1.95-.56.13-.57-.55-1.15-1.48-1.38-.93-.22-1.81.02-1.92.57z"/><path fill="#D6721E" d="M44.63 58.03s-1.27 4.12-3.3 5.25c1.4 1.8 3.85 3.63 6.52-.36A12.12 12.12 0 0145 58.25s4.23 9.02 8.77-.22c0 0-2.27 7.44-5.67 5.07-1.25 2.64-3.85 6.34-7.05.31-1.43.6-3.22-.36-5.19-5.16 0 0 4.24 9.07 8.77-.22z"/><path fill="#D6753E" d="M61.86 14.5a8.67 8.67 0 00-4.02-7.06 8.76 8.76 0 00-8.13-.67 9.18 9.18 0 00-5.37 7.8 8.17 8.17 0 003.92 7.29 9.33 9.33 0 0012.8-4.02 8.4 8.4 0 00.8-3.33z"/><path fill="#EDEDBB" d="M61.27 13.58a8.2 8.2 0 00-3.8-6.67 8.29 8.29 0 00-7.7-.63 8.61 8.61 0 00-5.07 7.37 7.61 7.61 0 003.7 6.9 8.83 8.83 0 0012.23-3.83c.42-1 .64-2.06.64-3.14z"/><path fill="#9E512B" d="M49.48 15.23a3.23 3.23 0 003.22 3.22 3.23 3.23 0 10-2.25-5.53c-.62.61-.97 1.44-.97 2.3z"/><path fill="#542713" d="M50.64 14.78a2.08 2.08 0 004.17.04 2.08 2.08 0 00-3.54-1.53c-.4.39-.63.92-.63 1.49z"/><path fill="#FFF" d="M49.69 12.39c0 .83.68 1.5 1.52 1.5.83 0 1.51-.67 1.51-1.5a1.51 1.51 0 00-3.04 0z"/><path fill="#D69547" d="M51.16 25.01c3.66.02 7.2-1.31 9.93-3.74a12.33 12.33 0 01-19.81 0 14.8 14.8 0 009.88 3.74z"/><path fill="#D69547" d="M52.43 23.5c3-.1 5.86-1.32 8.02-3.4a10.1 10.1 0 01-16.22.52 12.2 12.2 0 008.2 2.88z"/><path fill="#D6753E" d="M53.1 50.67c4.17 1.17 8.39 2.1 12.65 2.78a155.87 155.87 0 0020.13 2.03s-3.67-.43-9.59-1.36c-2.94-.47-6.46-1.08-10.33-1.84-3.88-.77-8.1-1.74-12.44-2.87-4.1-1.1-8.1-2.62-11.9-4.5a25.58 25.58 0 01-4.53-2.98 11.87 11.87 0 01-3.06-3.8 7.84 7.84 0 01-.84-3.74v-.42a2.47 2.47 0 010-.41 4.17 4.17 0 010-.77c0-.24.11-.47.18-.7l.2-.6c.2-.6.46-1.2.75-1.76l.32-.61-.36.58c-.36.54-.67 1.1-.93 1.7 0 .2-.16.4-.25.6-.1.2-.14.48-.23.7a4.5 4.5 0 00-.18.8v.87c-.13 1.39.1 2.79.66 4.06.69 1.6 1.72 3.04 3.01 4.22a24.93 24.93 0 004.67 3.31 56.15 56.15 0 0012.08 4.71z"/><g transform="translate(65.05 5.78)"><path fill="#D6753E" d="M0 8.82a8.2 8.2 0 003.81 6.69 8.29 8.29 0 007.7.62 8.6 8.6 0 005.08-7.35 8.76 8.76 0 00-3.7-6.93A8.83 8.83 0 00.67 5.7 8.5 8.5 0 000 8.82z"/><path fill="#EDEDBB" d="M.25 7.9a7.95 7.95 0 003.69 6.5 8.04 8.04 0 007.48.6 8.37 8.37 0 004.94-7.15 8.51 8.51 0 00-3.6-6.76A8.56 8.56 0 00.88 4.85c-.41.96-.63 2-.63 3.05z"/><ellipse cx="8.73" cy="9.45" fill="#9E512B" rx="3.24" ry="3.22"/><path fill="#542713" d="M6.64 9c0 1.15.93 2.08 2.09 2.08a2.08 2.08 0 100-4.15c-1.16 0-2.09.93-2.09 2.07z"/><path fill="#D69547" d="M9.95 18.83A13.1 13.1 0 0019 16.46 10.86 10.86 0 011.7 14.64a13.14 13.14 0 008.25 4.2z"/><path fill="#FFF" d="M5.58 6.61c0 .84.69 1.52 1.54 1.53.84 0 1.51-.7 1.51-1.53 0-.83-.68-1.51-1.51-1.51-.85 0-1.53.67-1.54 1.51z"/><path fill="#D69547" d="M10.7 17.32a10.85 10.85 0 006.8-3.72 9.07 9.07 0 01-14.3 2.03 11.04 11.04 0 007.5 1.7z"/></g><path fill="#D69547" d="M81.46 3.55A14.98 14.98 0 0165.21 12c.16.07 11.63-2.75 16.25-8.45zM61.09 4.9c-2.8-1.35-13.99-6.76-18.52.72a7.51 7.51 0 016-5.25c4.72-1.2 9.69.6 12.52 4.53z"/><path fill="url(#f)" d="M27.13 58.05c-1.9 1.08-6.62 2.84-4.67 7.42a8.74 8.74 0 002.4 2.93c1.59 1.01.18 1.5-.75 1.4-.92-.12-11.98-2.35-6.77-11.82.95-1.7 5.23-5.48 9.06-4.8 3.83.67 1.64 4.33.73 4.87z" transform="translate(3)"/></svg>