<svg xmlns="http://www.w3.org/2000/svg" version="1.1" id="レイヤー_1" x="0" y="0" xml:space="preserve" width="34.6" height="34.6"><style type="text/css" id="style3268"></style><linearGradient id="SVGID_1_" gradientUnits="userSpaceOnUse" x1="28.099" y1="8.215" x2="6.552" y2="26.295"><stop offset="0" id="stop3272" stop-color="#50febe"/><stop offset="1" id="stop3274" stop-color="#0adcdc"/></linearGradient><path d="M18.4.7c0-.3.1-.6.2-.7l16 16c-.1.1-.2.2-.4.2h-5.8c-.9-.1-2-.6-2.6-1.2l-6.2-6.2c-.7-.7-1.2-2-1.2-2.9zm10.3 17.8c-.9 0-2.3.5-2.9 1.2l-6.2 6.2c-.7.7-1.2 2-1.2 2.9V34c0 .3.1.4.2.6l16-16c-.1-.1-.4-.1-.6-.1zM5.8 16.2c.9 0 2.3-.5 2.9-1.2L15 8.8c.7-.7 1.2-2 1.2-2.9V.7c0-.3-.1-.6-.2-.7L0 16c.1.1.4.2.7.2zm10.3 12.6c0-.9-.5-2.3-1.2-2.9l-6.2-6.2c-.7-.7-2-1.2-2.9-1.2H.6c-.3 0-.5 0-.6.1l16 16c.1-.1.1-.3.1-.6zm8.1-12.2L18 10.4c-.4-.4-1-.4-1.4 0l-6.2 6.2c-.4.4-.4 1 0 1.4l6.2 6.2c.4.4 1 .4 1.4 0l6.2-6.2c.4-.3.4-1 0-1.4z" id="path3277" fill="url(#SVGID_1_)"/></svg>