<svg xmlns="http://www.w3.org/2000/svg" viewBox="1.955 2.729 185.778 186.111" xmlns:v="https://vecta.io/nano"><linearGradient id="A" gradientUnits="userSpaceOnUse" x1="125.255" y1="49.412" x2="33.105" y2="191.372"><stop offset="0" stop-color="#18191d"/><stop offset="1" stop-color="#232956"/></linearGradient><linearGradient id="B" gradientUnits="userSpaceOnUse" x1="34.815" y1="131.208" x2="79.645" y2="195.959"><stop offset="0" stop-color="#efefef"/><stop offset="1" stop-color="#b7b8be"/></linearGradient><linearGradient id="C" gradientUnits="userSpaceOnUse" x1="121.687" y1="46.52" x2="141.607" y2="76.41"><stop offset="0" stop-color="#e5e5e4"/><stop offset="1" stop-color="#b7b8c2"/></linearGradient><linearGradient id="D" gradientUnits="userSpaceOnUse" x1="143.141" y1="104.67" x2="118.241" y2="107.16"><stop offset="0" stop-color="#ea5051"/><stop offset="1" stop-color="#aa191b"/></linearGradient><linearGradient id="E" gradientUnits="userSpaceOnUse" x1="108.755" y1="72.806" x2="72.435" y2="79.776"><stop offset="0" stop-color="#ea5051"/><stop offset="1" stop-color="#aa191b"/></linearGradient><linearGradient id="F" gradientUnits="userSpaceOnUse" x1="96.767" y1="100.056" x2="61.897" y2="147.376"><stop offset="0" stop-color="#f3a61a"/><stop offset="1" stop-color="#f4e241"/></linearGradient><linearGradient id="G" gradientUnits="userSpaceOnUse" x1="131.587" y1="30.543" x2="136.567" y2="47.983"><stop offset="0" stop-color="#ced1eb"/><stop offset="1" stop-color="#fff"/></linearGradient><linearGradient id="H" gradientUnits="userSpaceOnUse" x1="92.29" y1="89.4" x2="104.74" y2="99.36"><stop offset="0" stop-color="#b62020"/><stop offset=".44" stop-color="#e03131"/><stop offset="1" stop-color="#c6201e"/></linearGradient><circle cx="95.132" cy="95.69" r="92.2" fill="url(#A)"/><path d="M131.232 143.69l.4 2.5c.4 2.9 2.6 5.1 5.5 5.5.9.2 1.7.3 2.6.4l-2.8.4c-3.3.8-5 2.7-5.5 6.5-.1.5-.1 1-.2 1.5-.1.1 0 .4-.2.3l-.4-2.9c-.4-2.8-2.6-5-5.4-5.4-.9-.2-1.8-.2-2.9-.4 1.1-.1 2.3-.2 3.4-.5 2.9-.7 4.6-2.6 5.1-5.8l.3-2.4c.1 0 0 .3.1.3zm-8.1-57.3c.1.4.1.8.2 1.1.2 1.3 1.2 2.4 2.5 2.5.4.1.8.1 1.2.2l-1.3.2c-1.4.3-2.5 1.5-2.5 3 0 .2 0 .5-.1.7 0 0 0 .2-.1.1 0-.4-.1-.9-.2-1.3a2.97 2.97 0 0 0-2.5-2.5c-.4-.1-.8-.1-1.3-.2.5 0 1-.1 1.5-.2 1.3-.3 2.2-1.4 2.3-2.6.1-.4.1-.7.1-1.1.2-.1.1 0 .2.1zm-79.6 29.9c-.1-1.2-.2-2.3-.6-3.5-.6-2.3-2.5-4.1-4.8-4.5-1.1-.3-2.2-.4-3.2-.5-.1 0-.1-.1 0-.1.3-.2.6 0 .9-.1l2.1-.3c2.8-.4 5-2.7 5.4-5.5a12.65 12.65 0 0 0 .3-2.8l.1-.1.1.1c.2.3 0 .7.1 1 .1.9.2 1.8.5 2.7.8 2.9 2.9 4.3 5.8 4.7.4.1.9.1 1.3.2.3.2.7-.2.8.2-1.2.1-2.4.3-3.6.6-3 .8-4.3 3-4.7 5.8l-.3 2.1c-.1.1-.2.1-.2 0zm24.7-88.9c0 .9.2 1.8.4 2.7.5 1.9 2.1 3.3 4.1 3.5.6.1 1.2.2 1.8.2.1.1.1.1 0 .2-.9.1-1.8.2-2.7.5-1.8.5-3 2-3.3 3.9l-.3 1.7c-.3 0-.1-.2-.2-.3l-.4-2.2c-.5-1.7-1.9-2.9-3.6-3.2-.7-.2-1.4-.3-2.1-.3-.1-.1-.1-.1 0-.2.8-.1 1.7-.2 2.5-.5 1.5-.4 2.7-1.6 3.2-3.1.3-.8.4-1.6.4-2.5.1 0-.1-.3.2-.4zm55.6 11.1c0 .9.2 1.8.4 2.7.5 1.9 2.1 3.3 4.1 3.5.6.1 1.2.2 1.8.2.1 0 .1.1 0 .2-.9.1-1.8.2-2.7.5-1.8.5-3 2-3.3 3.8l-.3 1.7c-.3 0-.1-.2-.2-.3l-.4-2.2c-.5-1.7-1.9-2.9-3.6-3.2-.7-.2-1.4-.3-2.1-.3-.1-.1-.1-.1 0-.2.8-.1 1.7-.2 2.5-.5 1.5-.4 2.7-1.6 3.2-3.1.3-.8.4-1.6.4-2.5.1.1-.1-.2.2-.3z" fill="#fff"/><path d="M89.432 187.69h-.4c-.3-.1-.7-.1-1 0l-.4-.1c-.2-.1-.5-.1-.7 0-.1 0-.2-.1-.3-.1h-.7l-.3-.1h-.6c-.1 0-.2 0-.2-.1-.2-.1-.4-.1-.6 0l-.3-.1c-.1-.1-.3-.1-.4 0l-.2-.1h-.5c-.1 0-.1-.1-.2-.1-.1-.1-.3-.1-.4 0l-.2-.1c-.1-.1-.3-.1-.4 0l-.2-.1c-.1-.1-.3-.1-.4 0l-4.2-.8c-2.2-.4-4.3-1-6.4-1.5-4-1.1-8-2.5-11.8-4.2-7.6-3.3-14.8-7.7-21.2-12.9-3-2.4-5.9-5.1-8.6-7.9-2.2-2.3-4.3-4.7-6.2-7.2-2.2-2.9-4.3-5.9-6.2-9-1.8-2.9-3.4-5.9-4.8-9-1-2.1-1.8-4.1-2.6-6.3-.1-.2-.1-.4-.1-.6 2.8-.1 5.6-.1 8.4.1 4.1.2 8.2.7 12.2 1.5 31.5 6.2 57.5 28.2 68.7 58.3v.2c.1.3-.1.2-.2.2h-.9-1.1-2c-.9-.1-1.8-.1-2.7 0h-.3c-.1-.1-.2-.1-.4-.1-.4.1-.8.1-1.2.1z" fill="url(#B)"/><path d="M91.532 187.89c.3-.1.7-.2 1.1-.1.5-.1 1.1 0 1.6.1h-2.7z" fill="#c6c8ca"/><path d="M96.832 187.79h.9c.1 0 .3 0 .3-.2.1.1.2.2.4.2v.1h0l-1.6-.1c-.1.1-.1 0 0 0z" fill="#9da4a8"/><path d="M96.832 187.79s0 .1 0 0l-1 .1c.3-.1.7-.1 1-.1z" fill="#b8bbbd"/><path d="M98.432 187.89s0-.1 0 0l.6-.1v.1h-.6z" fill="#cccfd1"/><path d="M132.032 11.29c.2.1.4-.1.6-.2 1.7-1.1 3.5-2.2 5.4-3.1.2.1.3.3.4.5 1.1 1.7 2.3 3.3 3.7 4.8 3 3.2 6.5 5.8 10.5 7.7 3 1.4 6.1 2.4 9.4 2.9.2 0 .5.1.7.2-.1 1.7-.2 3.4-.5 5.1-.1.9-.3 1.8-.5 2.6v.4c-.2.2-.2.5-.2.7-1.5 6.8-4 13.4-7.5 19.5-3.1 5.3-6.5 10.3-10.2 15.2-3.9 5.2-8 10.2-12.2 15l-.3.4a.55.55 0 0 1-.3.5 44.04 44.04 0 0 1-2.9 3.2c-2.4 2.6-4.7 5.1-7.2 7.5-1 1-2 2-3.1 2.9-.1.2-.3.2-.5.2l-1.7 1.4c-.3.2-.4 0-.6-.1-1.3-.8-2.6-1.7-3.9-2.5-.6-.4-1.2-.7-1.7-1.1s-1.4-.9-2-1.3c-8.4-5.6 4 2.6-9.4-6.1l-1.8-1.2c-1.3-.8-2.6-1.7-3.9-2.5-1-.6-1.9-1.2-2.9-1.9-.2-.1-.4-.2-.4-.5.2-.7.3-1.4.5-2.1-.1-.3 0-.6.1-.9.4-1.4 1-2.8 1.5-4.2 1.6-4.3 3.4-8.5 5.2-12.7.1-.3.2-.7.6-.9 1.2-2.6 2.5-5.2 3.8-7.8 4-8 8.5-15.8 13.5-23.3 4.7-7 10.7-13.1 17.7-17.9 0-.1.2-.1.1-.4z" fill="url(#C)"/><path d="M117.332 97.29l4.4-4.1c3.2-3.2 6.2-6.5 9.2-9.8l.4-.4c1.3 1.2 2.2 2.7 2.6 4.4.6 2.5.9 5.1.8 7.6-.1 2.3-.3 4.6-.7 6.9-.5 2.3-1.3 4.4-2.5 6.4-3.7 6.8-8.1 13.3-13.2 19.2-.7.8-1.5 1.6-2.3 2.3a2.09 2.09 0 0 1-3 .1l-.3-.3c-1-1.1-1.6-2.5-2-3.9-.2-.7-.3-1.3-.4-2-.1-.6 0-1.3.2-1.9.8-2.2 1.8-4.2 3-6.2 1.7-3 3.5-5.9 5.4-8.8.5-.7.6-1.5.4-2.3-.3-1.9-1-3.6-1.5-5.4-.1-.6-.3-1.2-.5-1.8z" fill="url(#D)"/><path d="M96.932 60.59l-2.9 6.6c-1.7 3.9-3.2 7.9-4.5 12 0 0 0 .1-.1.1-2.5.4-5.1.6-7.6 1.2-.7.1-1.3.6-1.6 1.2-2.5 4-5.3 7.9-8.2 11.6-.5.6-1 1.2-1.6 1.8-.7.8-1.6 1.4-2.7 1.6-1.7.4-3.6.5-5.3.2-.4-.1-.7-.2-1-.4-.9-.4-1.4-1.4-1.1-2.4.3-1.1.6-2.1 1.1-3.1 3.4-7.3 7.6-14.2 12.5-20.5 2.5-3.1 5.6-5.6 9.2-7.3 2.5-1.4 5.3-2.4 8.1-3 2-.5 4-.3 5.7.4z" fill="url(#E)"/><path d="M50.832 108.69c.2-.1.4-.1.7 0h-.7z" fill="#61624a"/><path d="M38.632 108.69h-.7.7z" fill="#62644b"/><path d="M44.732 115.39c-.1-.1 0-.3-.1-.5.2.2.1.4.1.5z" fill="#5d5f4a"/><path d="M44.732 102.79h0v-.7c.1.3.1.5 0 .7z" fill="#827a50"/><path d="M38.632 108.69h0l.4-.1v.1h-.4z" fill="#c9ad5c"/><path d="M162.732 24.09a20.21 20.21 0 0 1-3.4-.6c-8.8-2.1-16.4-7.5-21.2-15.1-.1-.1-.2-.2-.2-.4 2.6-1.3 5.4-2.4 8.3-3.2 2.7-.8 5.5-1.2 8.3-1.1.7 0 1.4.1 2.1.3.9.2 1.6.7 2.1 1.4 1 1.4 1.7 3 2.2 4.7 1.2 4 1.8 8.1 1.7 12.3.2.5.1 1.1.1 1.7z" fill="#e03131"/><path d="M89.632 187.69c.4-.1.8-.1 1.2 0h-1.2z" fill="#c6c8ca"/><path d="M88.232 187.69c.3-.1.7-.1 1 0h-1z" fill="#bbbfc2"/><path d="M86.132 187.49c.2-.1.5-.1.7 0h-.7z" fill="#cacdce"/><path d="M87.132 187.59c.2-.1.5-.1.7 0h-.7z" fill="#c0c4c6"/><path d="M84.432 187.29c.2-.1.4-.1.6 0h-.6z" fill="#bcc0c1"/><path d="M85.232 187.39c.2-.1.4-.1.6 0h-.6zm-2.3-.3c.2-.1.4-.1.5 0h-.5z" fill="#bec1c4"/><path d="M81.032 186.89c.1-.1.3-.1.4 0h-.4z" fill="#b8bcbf"/><path d="M82.232 187.09c.1-.1.3-.1.4 0h-.4z" fill="#c5c7ca"/><path d="M83.632 187.19c.1-.1.3-.1.4 0h-.4z" fill="#c8cacc"/><path d="M81.632 186.99c.1-.1.3-.1.4 0h-.4z" fill="#c2c5c7"/><path d="M54.432 157.99c-.2.1-.4.1-.7.1.3-.1.5-.1.7-.1z" fill="#cccccb"/><path d="M148.832 40.59c0 8-6.5 14.4-14.4 14.4-8 0-14.4-6.5-14.4-14.4 0-8 6.5-14.4 14.4-14.4h.1c7.9.1 14.3 6.5 14.3 14.4z" fill="#18191d"/><path d="M92.432 126.89c5.8-5.9 11-12.4 15.6-19.3a.55.55 0 0 0-.3-.5h0l-.9-.6-.6-.4c-.1-.1-.3-.2-.5-.2h-.1c-4.3-2.9-8.6-5.7-13-8.5l-5-3.2v-.1h0s0-.1-.1-.1c-.6-.5-1.2-.9-1.9-1.2l-.1-.1c-.1-.1-.2-.1-.3 0-3.6 5.8-6.8 11.8-9.5 18.1-2.6 5.7-4.7 11.7-6.3 17.8-.7 2.5-1 5-1.1 7.5-.1 1.2.1 2.4.6 3.6.4 1.2 1.6 2.1 2.9 2 .7 0 1.4-.1 2-.3 2.3-.8 4.4-2 6.2-3.4 4.5-3.3 8.6-7 12.4-11.1z" fill="url(#F)"/><path d="M134.132 31.99c4.8-.2 8.8 3.6 8.9 8.3s-3.6 8.8-8.3 8.9c-4.6.2-8.5-3.3-8.9-7.9-.4-4.7 3-8.9 7.8-9.3h.5z" fill="url(#G)"/><path d="M98.732 87.69c.2-.1.3-.3.5-.5 2.4-3.3 5.1-6.5 8-9.3 1.1-1.1 2.2-2 3.5-2.8.4-.3.9-.4 1.4-.5.7-.2 1.4.2 1.5.9v.2c.1.8.1 1.5-.1 2.3-.5 2.6-1.4 5.1-2.6 7.4-1.1 2.5-2.4 4.9-3.8 7.3-.1.1-.2.3-.2.5s-.1.4-.2.6c-1.7 2.9-3.5 5.7-5.4 8.4-.2.2-.3.5-.5.8-.8 1-1.5 2-2.3 3-2 2.6-4.2 5.1-6.6 7.4-1 1-2.2 1.9-3.5 2.5a1.93 1.93 0 0 1-1 .3c-.8.2-1.6-.2-1.8-1v-.2c-.1-.7-.1-1.4 0-2.1.3-1.6.7-3.1 1.3-4.6 1.4-3.6 3.1-7 5-10.3.1-.2.2-.4.4-.5.6-1.1 1.3-2.2 2-3.3 1.2-2 2.5-4 3.9-5.9.2-.3.3-.5.5-.6z" fill="url(#H)"/><path d="M85.132 92.69l2.4 1.5.1.1c.1.1.1.2.2.2l.9.6.9.6c.1.1.3.2.5.1 0 .2.1.3.2.4l1 .7c.3.2.4.3.7.4.1.1.3.1.4 0 .2-.3.3-.6.5-.9l4.9-7.6c.1-.1.1-.2.2-.3.2-.2.4-.5.5-.9l-.5-.4c-.6-.4-1.3-.9-2-1.2h0 0l-.3-.2-2.1-1.3-3.3-2.2-.5-.3c-.4-.2-.7-.5-1-.7h-.1-.1a2.95 2.95 0 0 0-3.9 1.2l-1.9 3-.9 1.4c-1 1.3-.7 3.1.6 4.1.1.1.2.2.3.2l.7.4 1.6 1.1zm16 9.6c-.2.1-.3.3-.2.5 0 .2.1.3.2.4l.8.5.8.5c.1.1.2.1.4.1a1.38 1.38 0 0 0 .3.4h.1c.2.1.4.3.6.4s.6.4.8.5c.2.2.5.3.8.3l.7.4c.6.3 1.1.7 1.6 1.1.3.1.6.3.8.5l.3.2c1.3.9 3.1.6 4-.6 0-.1.1-.1.1-.2l3.1-4.8c.7-1.1.6-2.5-.3-3.5l-.4-.4-.1-.1-.2-.1-.3-.2-2.8-1.8-2.8-1.8h0l-2.4-1.6h0l-.1.1c-1.8 3-3.7 5.9-5.7 8.8 0 .3-.1.4-.1.4z" fill="#e03131"/></svg>