<svg xmlns="http://www.w3.org/2000/svg" viewBox="0 0 12.33 12.33"><path d="M8.264 3.948c-.43 0-.854-.008-1.285 0a.983.983 0 00-1.051 1.07c-.008.77-.008 1.535 0 2.306a.972.972 0 001.059 1.06c.83.007 1.663 0 2.495 0a.74.74 0 01.831.808c.008.772.008 1.536 0 2.307a.75.75 0 01-.817.825c-.755.008-1.512.008-2.268 0a.763.763 0 01-.832-.855c-.008-.757 0-1.512 0-2.269A.952.952 0 005.345 8.15c-.794-.008-1.588 0-2.383 0-.672 0-.953-.272-.953-.93V5.064a.789.789 0 01.885-.885c.757-.007 1.513 0 2.27 0 .93 0 1.232-.31 1.232-1.255V.884a.778.778 0 01.885-.876c.733 0 1.459-.007 2.193 0a.764.764 0 01.847.84c.008.756.008 1.512 0 2.268a.752.752 0 01-.847.832c-.4.008-.805 0-1.21 0z" fill="#01abef"/></svg>
