<svg xmlns="http://www.w3.org/2000/svg" viewBox="0 0 90 79"><defs><linearGradient id="a" x1="-48.67%" x2="154.297%" y1="-95.687%" y2="148.248%"><stop offset="0%" stop-color="#ea3671"/><stop offset="4%" stop-color="#e03a75"/><stop offset="39%" stop-color="#82619b"/><stop offset="69%" stop-color="#3c7eb8"/><stop offset="89%" stop-color="#1190c9"/><stop offset="100%" stop-color="#0197d0"/></linearGradient><linearGradient id="b" x1="-87.801%" x2="146.189%" y1="14.598%" y2="100.327%"><stop offset="0%" stop-color="#ea3671"/><stop offset="4%" stop-color="#e03a75"/><stop offset="39%" stop-color="#82619b"/><stop offset="69%" stop-color="#3c7eb8"/><stop offset="89%" stop-color="#1190c9"/><stop offset="100%" stop-color="#0197d0"/></linearGradient><linearGradient id="c" x1="-95.211%" x2="106.732%" y1="-107.692%" y2="84.628%"><stop offset="0%" stop-color="#ea3671"/><stop offset="4%" stop-color="#e03a75"/><stop offset="39%" stop-color="#82619b"/><stop offset="69%" stop-color="#3c7eb8"/><stop offset="89%" stop-color="#1190c9"/><stop offset="100%" stop-color="#0197d0"/></linearGradient><linearGradient id="d" x1="-93.453%" x2="65.885%" y1="-27.925%" y2="58.936%"><stop offset="0%" stop-color="#ea3671"/><stop offset="4%" stop-color="#e03a75"/><stop offset="39%" stop-color="#82619b"/><stop offset="69%" stop-color="#3c7eb8"/><stop offset="89%" stop-color="#1190c9"/><stop offset="100%" stop-color="#0197d0"/></linearGradient><linearGradient id="e" x1="75.472%" x2="280.821%" y1="69.527%" y2="316%"><stop offset="0%" stop-color="#ea3671"/><stop offset="4%" stop-color="#e03a75"/><stop offset="39%" stop-color="#82619b"/><stop offset="69%" stop-color="#3c7eb8"/><stop offset="89%" stop-color="#1190c9"/><stop offset="100%" stop-color="#0197d0"/></linearGradient><linearGradient id="f" x1="22.058%" x2="256.351%" y1="51.45%" y2="138.156%"><stop offset="0%" stop-color="#ea3671"/><stop offset="4%" stop-color="#e03a75"/><stop offset="39%" stop-color="#82619b"/><stop offset="69%" stop-color="#3c7eb8"/><stop offset="89%" stop-color="#1190c9"/><stop offset="100%" stop-color="#0197d0"/></linearGradient><linearGradient id="g" x1="-9.04%" x2="194.145%" y1="-5.121%" y2="187.002%"><stop offset="0%" stop-color="#ea3671"/><stop offset="4%" stop-color="#e03a75"/><stop offset="39%" stop-color="#82619b"/><stop offset="69%" stop-color="#3c7eb8"/><stop offset="89%" stop-color="#1190c9"/><stop offset="100%" stop-color="#0197d0"/></linearGradient><linearGradient id="h" x1="-32.089%" x2="128.71%" y1="-3.431%" y2="83.335%"><stop offset="0%" stop-color="#ea3671"/><stop offset="4%" stop-color="#e03a75"/><stop offset="39%" stop-color="#82619b"/><stop offset="69%" stop-color="#3c7eb8"/><stop offset="89%" stop-color="#1190c9"/><stop offset="100%" stop-color="#0197d0"/></linearGradient><linearGradient id="i" x1="-238.232%" x2="106.586%" y1="-108.46%" y2="91.362%"><stop offset="0%" stop-color="#ea3671"/><stop offset="4%" stop-color="#e03a75"/><stop offset="39%" stop-color="#82619b"/><stop offset="69%" stop-color="#3c7eb8"/><stop offset="89%" stop-color="#1190c9"/><stop offset="100%" stop-color="#0197d0"/></linearGradient><linearGradient id="j" x1="33.82%" x2="74.284%" y1="7.744%" y2="110.077%"><stop offset="0%" stop-color="#ea3671"/><stop offset="4%" stop-color="#e03a75"/><stop offset="39%" stop-color="#82619b"/><stop offset="69%" stop-color="#3c7eb8"/><stop offset="89%" stop-color="#1190c9"/><stop offset="100%" stop-color="#0197d0"/></linearGradient></defs><path fill="url(#a)" d="M83.25 22.26A11.58 11.58 0 1 0 69 4.68a41.31 41.31 0 0 1 14.4 17.58h-.15z"/><path fill="url(#b)" d="M57.24 23.64a26.07 26.07 0 0 1 9.57-16.62A39.51 39.51 0 0 1 80.4 23.64H57.24z"/><path fill="url(#c)" d="M57 26.76h24.45a38.04 38.04 0 0 1 1.65 17.49h-.21a17.13 17.13 0 0 1-12-5.01 28.77 28.77 0 0 1-1.5 2.82 20.19 20.19 0 0 0 13.29 5.25A38.25 38.25 0 0 1 81 52.89c-13.44-.91-23.905-12.03-24-25.5v-.63z"/><path fill="url(#d)" d="M45.96 56.1a29.07 29.07 0 0 0 17.64-7.17 29.1 29.1 0 0 0 16.14 7.26 39.36 39.36 0 0 1-23.76 20.34A25.92 25.92 0 0 1 45.96 56.1z"/><path fill="url(#e)" d="M6 22.26A11.58 11.58 0 1 1 20.49 4.68 41.28 41.28 0 0 0 6 22.26z"/><path fill="url(#f)" d="M32.13 23.64a26.07 26.07 0 0 0-9.6-16.62A39.51 39.51 0 0 0 9 23.64h23.13z"/><path fill="url(#g)" d="M32.28 26.76H7.83a38.04 38.04 0 0 0-1.68 17.49h.21a17.13 17.13 0 0 0 12-5.01 28.74 28.74 0 0 0 1.5 2.82 20.19 20.19 0 0 1-13.29 5.25 38.25 38.25 0 0 0 1.68 5.61c13.44-.91 23.905-12.03 24-25.5.06-.24.03-.42.03-.66z"/><path fill="url(#h)" d="M43.38 56.1a29.07 29.07 0 0 1-17.64-7.17A29.1 29.1 0 0 1 9.6 56.16 39.36 39.36 0 0 0 33.36 76.5a25.92 25.92 0 0 0 10.02-20.43v.03z"/><path fill="url(#i)" d="M37.02 77.25a36.84 36.84 0 0 0 15.42 0 29.31 29.31 0 0 1-7.71-12 29.31 29.31 0 0 1-7.71 12z"/><path fill="url(#j)" d="M64.26 5.22A38.7 38.7 0 0 0 46.41 0v15h-3V0a38.7 38.7 0 0 0-18 5.22 29.01 29.01 0 0 1 2.7 41.37c9.617 8.391 23.953 8.391 33.57 0a29.01 29.01 0 0 1 2.7-41.37h-.12z"/></svg>