<svg xmlns="http://www.w3.org/2000/svg" width="476.859" height="476.859" viewBox="0 0 357.644 357.644" version="1.2"><path d="M283.129 280.465c9.035 19.777 20.695 37.64 34.613 53.293-30.687 16.52-62.851 23.886-97.91 23.886-104.266 0-179.93-68.734-179.93-178.433C39.902 68.73 119.43 0 219.832 0c35.73 0 63.906 7.758 92.297 22.941-13.238 16.258-24.16 34.707-32.457 55.016-17.13-6.86-34.754-9.984-52.91-9.984-61.774 0-109.657 39.402-109.657 111.238 0 67.976 46.344 111.238 112.762 111.238 19.028 0 36.598-3.445 53.262-9.984z" fill="#0063d1"/></svg>