<svg xmlns="http://www.w3.org/2000/svg" viewBox="2 2.7 185.8 186.1"><linearGradient id="a" x1="125.3" x2="33.1" y1="49.4" y2="191.4" gradientUnits="userSpaceOnUse"><stop offset="0" stop-color="#18191d"/><stop offset="1" stop-color="#232956"/></linearGradient><linearGradient id="b" x1="34.8" x2="79.6" y1="131.2" y2="196" gradientUnits="userSpaceOnUse"><stop offset="0" stop-color="#efefef"/><stop offset="1" stop-color="#b7b8be"/></linearGradient><linearGradient id="c" x1="121.7" x2="141.6" y1="46.5" y2="76.4" gradientUnits="userSpaceOnUse"><stop offset="0" stop-color="#e5e5e4"/><stop offset="1" stop-color="#b7b8c2"/></linearGradient><linearGradient id="d" x1="143.1" x2="118.2" y1="104.7" y2="107.2" gradientUnits="userSpaceOnUse"><stop offset="0" stop-color="#ea5051"/><stop offset="1" stop-color="#aa191b"/></linearGradient><linearGradient id="e" x1="108.8" x2="72.4" y1="72.8" y2="79.8" gradientUnits="userSpaceOnUse"><stop offset="0" stop-color="#ea5051"/><stop offset="1" stop-color="#aa191b"/></linearGradient><linearGradient id="f" x1="96.8" x2="61.9" y1="100.1" y2="147.4" gradientUnits="userSpaceOnUse"><stop offset="0" stop-color="#f3a61a"/><stop offset="1" stop-color="#f4e241"/></linearGradient><linearGradient id="g" x1="131.6" x2="136.6" y1="30.5" y2="48" gradientUnits="userSpaceOnUse"><stop offset="0" stop-color="#ced1eb"/><stop offset="1" stop-color="#fff"/></linearGradient><linearGradient id="h" x1="92.3" x2="104.7" y1="89.4" y2="99.4" gradientUnits="userSpaceOnUse"><stop offset="0" stop-color="#b62020"/><stop offset=".4" stop-color="#e03131"/><stop offset="1" stop-color="#c6201e"/></linearGradient><circle cx="95.1" cy="95.7" r="92.2" fill="url(#a)"/><path fill="#fff" d="m131.2 143.7.4 2.5a6.4 6.4 0 0 0 5.5 5.5l2.6.4-2.8.4c-3.3.8-5 2.7-5.5 6.5 0 .5 0 1-.2 1.5 0 0 0 .4-.2.3l-.4-3c-.4-2.7-2.6-5-5.4-5.3l-2.9-.4c1.1-.1 2.3-.2 3.4-.5 3-.7 4.6-2.6 5.1-5.8l.3-2.4.1.3zm-8-57.3.1 1c.2 1.4 1.2 2.5 2.5 2.6.4 0 .8 0 1.2.2l-1.3.2a3.1 3.1 0 0 0-2.5 3v.7s0 .2-.2 0c0-.3 0-.8-.2-1.2a3 3 0 0 0-2.5-2.5l-1.3-.2 1.5-.2a3 3 0 0 0 2.3-2.6l.1-1.1c.2-.1.1 0 .2 0zm-79.7 29.9c0-1.2-.2-2.3-.6-3.5a6.1 6.1 0 0 0-4.8-4.5c-1-.3-2.2-.4-3.2-.5v-.1c.3-.2.6 0 1-.1l2-.3c2.8-.4 5-2.7 5.4-5.5a12.7 12.7 0 0 0 .3-2.8l.1-.1h.1c.2.4 0 .8.1 1 .1 1 .2 1.9.5 2.8.8 2.9 3 4.3 5.8 4.7.4 0 1 0 1.3.2.3.2.7-.2.8.2-1.2 0-2.4.3-3.6.6-3 .8-4.3 3-4.7 5.8l-.3 2c0 .2-.2.2-.2 0zm24.7-89c0 1 .2 1.9.4 2.8a4.7 4.7 0 0 0 4.1 3.5l1.8.2c.1 0 .1 0 0 .2-.9 0-1.8.2-2.7.5-1.8.5-3 2-3.3 3.9l-.3 1.7c-.3 0 0-.2-.2-.3l-.4-2.2a4.5 4.5 0 0 0-3.6-3.2l-2-.3c-.2-.1-.2-.1 0-.2.7-.1 1.6-.2 2.4-.5a4.7 4.7 0 0 0 3.2-3.1c.3-.8.4-1.6.4-2.5.1 0 0-.3.2-.4zm55.6 11.2c0 .9.2 1.8.4 2.7a4.7 4.7 0 0 0 4.1 3.5l1.8.2c.1 0 .1 0 0 .2-.9 0-1.8.2-2.7.5-1.8.5-3 2-3.3 3.8l-.3 1.7c-.3 0 0-.2-.2-.3l-.4-2.2a4.5 4.5 0 0 0-3.6-3.2l-2-.3c-.2-.1-.2-.1 0-.2.7-.1 1.6-.2 2.4-.5a4.7 4.7 0 0 0 3.2-3.1c.3-.8.4-1.6.4-2.5.1 0 0-.2.2-.3z"/><path fill="url(#b)" d="M89.4 187.7H88l-.4-.1a.9.9 0 0 0-.7 0l-.3-.1H86l-.3-.1H85l-.2-.1a.6.6 0 0 0-.6 0l-.3-.1a.3.3 0 0 0-.4 0l-.2-.1h-.5l-.2-.1a.3.3 0 0 0-.4 0l-.2-.1a.3.3 0 0 0-.4 0l-.2-.1a.3.3 0 0 0-.4 0l-4.2-.8c-2.2-.4-4.3-1-6.4-1.5A91.8 91.8 0 0 1 9 128v-.6h8.3a92.2 92.2 0 0 1 80.9 59.8v.3c.1.3 0 .2-.2.2h-7l-.4-.1h-1.2z"/><path fill="#c6c8ca" d="M91.5 187.9a2 2 0 0 1 1.1-.1c.5-.1 1.1 0 1.6 0h-2.7z"/><path fill="#9da4a8" d="M96.8 187.8h1s.2 0 .2-.2l.4.2h-1.6z"/><path fill="#b8bbbd" d="M96.8 187.8h-1 1z"/><path fill="#cccfd1" d="M98.4 187.9s0-.1 0 0l.6-.1h-.6z"/><path fill="url(#c)" d="m132 11.3.6-.2c1.7-1.1 3.5-2.2 5.4-3.1.2 0 .3.3.4.5A34.1 34.1 0 0 0 162.7 24c0 1.7-.2 3.4-.5 5a20 20 0 0 1-.5 2.7v.4c-.2.2-.2.5-.2.7a69 69 0 0 1-7.5 19.5 155 155 0 0 1-10.2 15.2 257 257 0 0 1-12.2 15l-.3.4a.6.6 0 0 1-.3.5 44 44 0 0 1-2.9 3.2l-7.2 7.5-3 2.9c-.2.2-.4.2-.6.2l-1.7 1.4c-.3.2-.4 0-.6-.1l-3.9-2.5-1.7-1.1-2-1.3c-8.4-5.6 4 2.6-9.4-6.1l-1.8-1.2-3.9-2.5a48 48 0 0 1-2.9-2c-.2 0-.4-.1-.4-.4l.5-2.1.1-1 1.5-4.1c1.6-4.3 3.4-8.5 5.2-12.7.1-.3.2-.7.6-1l3.8-7.7c4-8 8.5-15.8 13.5-23.3a67 67 0 0 1 17.7-18s.2 0 .1-.3z"/><path fill="url(#d)" d="m117.3 97.3 4.4-4.1c3.2-3.2 6.2-6.5 9.2-9.8l.4-.4a8.7 8.7 0 0 1 2.6 4.4 40.4 40.4 0 0 1 .1 14.5c-.5 2.3-1.3 4.4-2.5 6.4a109 109 0 0 1-15.5 21.5 2 2 0 0 1-3 0l-.3-.2a9.7 9.7 0 0 1-2-4l-.4-2c0-.5 0-1.2.2-1.8a129.2 129.2 0 0 1 8.4-15c.5-.7.6-1.5.4-2.3-.3-2-1-3.6-1.5-5.4 0-.6-.3-1.2-.5-1.8z"/><path fill="url(#e)" d="m97 60.6-3 6.6c-1.7 3.9-3.2 7.9-4.5 12-2.6.5-5.2.7-7.7 1.3-.7 0-1.3.6-1.6 1.2-2.5 4-5.3 7.9-8.2 11.6L70.4 95c-.7.8-1.6 1.4-2.7 1.6-1.7.4-3.6.5-5.3.2a3 3 0 0 1-1-.4 2 2 0 0 1-1-2.4c.2-1.1.5-2.1 1-3.1A107 107 0 0 1 74 70.5c2.5-3.1 5.6-5.6 9.2-7.3 2.5-1.4 5.3-2.4 8.1-3 2-.5 4-.3 5.7.4z"/><path fill="#61624a" d="M50.8 108.7h.7-.7z"/><path fill="#62644b" d="M38.6 108.7H38h.7z"/><path fill="#5d5f4a" d="M44.7 115.4v-.5.5z"/><path fill="#827a50" d="M44.7 102.8v-.7.7z"/><path fill="#c9ad5c" d="m38.6 108.7.4-.1h-.4z"/><path fill="#e03131" d="M162.7 24a20.2 20.2 0 0 1-3.4-.5 34.5 34.5 0 0 1-21.2-15.1L138 8a46 46 0 0 1 8.3-3.2 26 26 0 0 1 8.3-1.1c.7 0 1.4 0 2.1.3 1 .2 1.6.7 2.1 1.4 1 1.4 1.7 3 2.2 4.7 1.2 4 1.8 8 1.7 12.3.2.5.1 1 .1 1.7z"/><path fill="#c6c8ca" d="M89.6 187.7h1.2-1.2z"/><path fill="#bbbfc2" d="M88.2 187.7h1-1z"/><path fill="#cacdce" d="M86.1 187.5h.7-.7z"/><path fill="#c0c4c6" d="M87.1 187.6h.7-.7z"/><path fill="#bcc0c1" d="M84.4 187.3h.6-.6z"/><path fill="#bec1c4" d="M85.2 187.4h.6-.6zM83 187h.5-.5z"/><path fill="#b8bcbf" d="M81 186.9c.1-.1.3-.1.4 0H81z"/><path fill="#c5c7ca" d="M82.2 187h.4-.4z"/><path fill="#c8cacc" d="M83.6 187.2c.1-.1.3-.1.4 0h-.4z"/><path fill="#c2c5c7" d="M81.6 187c.1-.1.3-.1.4 0h-.4z"/><path fill="#cccccb" d="M54.4 158h-.7.7z"/><path fill="#18191d" d="M148.8 40.6a14.4 14.4 0 1 1-14.4-14.4h.1c8 0 14.3 6.5 14.3 14.4z"/><path fill="url(#f)" d="M92.4 126.9c5.8-6 11-12.4 15.6-19.3a.6.6 0 0 0-.3-.5l-.9-.6-.6-.4a581 581 0 0 0-13.6-8.7l-5-3.2V94c-.7-.5-1.3-1-2-1.2v-.1c-.2-.1-.3-.1-.4 0a135.5 135.5 0 0 0-15.8 35.9c-.7 2.5-1 5-1 7.5-.2 1.2 0 2.4.5 3.6a3 3 0 0 0 3 2l2-.3c2.2-.8 4.3-2 6.1-3.4a87 87 0 0 0 12.4-11.1z"/><path fill="url(#g)" d="M134.1 32a8.6 8.6 0 1 1-8.3 9.3c-.4-4.7 3-9 7.8-9.3h.5z"/><path fill="url(#h)" d="m98.7 87.7.5-.5c2.4-3.3 5.1-6.5 8-9.3 1.1-1.1 2.2-2 3.5-2.8.4-.3 1-.4 1.4-.5.7-.2 1.4.2 1.5.9v.2a6 6 0 0 1 0 2.3 72.4 72.4 0 0 1-6.8 15.8 174 174 0 0 1-5.5 8.4l-.5.8-2.3 3a76 76 0 0 1-6.6 7.4c-1 1-2.2 1.9-3.5 2.5a2 2 0 0 1-1 .3c-.8.2-1.6-.2-1.8-1v-2.3c.3-1.6.7-3.1 1.3-4.6 1.4-3.6 3.1-7 5-10.3l.4-.5 2-3.3c1.2-2 2.5-4 4-6l.4-.5z"/><path fill="#e03131" d="m85.1 92.7 2.4 1.5h.1l.2.3 1 .6.8.6c.1 0 .3.2.5 0 0 .3.1.4.2.5l1 .7.7.4h.4l.5-1 5-7.5.1-.3c.2-.2.4-.5.5-1l-.5-.3c-.6-.4-1.3-1-2-1.2l-.3-.2-2-1.3-3.4-2.2-.5-.3-1-.7h-.2a3 3 0 0 0-3.9 1.2l-1.9 3-.9 1.4c-1 1.3-.7 3 .6 4l.3.3.7.4 1.6 1zm16 9.6c-.2 0-.3.3-.2.5l.2.4.8.5.8.5h.4a1.4 1.4 0 0 0 .3.5h.1c.2 0 .4.3.6.4l.8.5c.2.2.5.3.8.3l.7.4a9 9 0 0 1 1.6 1l.8.6.3.2a3 3 0 0 0 4-.6l.1-.2 3.1-4.8c.7-1.1.6-2.5-.3-3.5l-.4-.4v-.1l-.3-.1-.3-.2-2.8-1.8-2.8-1.8L107 93a165 165 0 0 1-5.9 9.3z"/></svg>
