<svg xmlns="http://www.w3.org/2000/svg" version="1.1" id="Layer_1" x="0" y="0" xml:space="preserve" width="21.7" height="21.7"><style type="text/css" id="style2395">.st3{fill:none;stroke:#75bda7;stroke-width:2.049;stroke-miterlimit:10}</style><g id="g3015" transform="translate(-7.67 -7.2)"><path style="fill:none;stroke:#75bda7;stroke-width:2.04900002;stroke-miterlimit:10" id="path2415" d="M13.462 9.5c-5.7 6.4-.5 14.2 4.9 14.7" class="st3"/><path style="fill:none;stroke:#75bda7;stroke-width:.51380002;stroke-miterlimit:10" id="path2417" d="M14.662 10.5c-4.6 5.2-.5 11.6 3.9 12"/><path style="fill:none;stroke:#75bda7;stroke-width:2.04900002;stroke-miterlimit:10" id="path2421" d="M21.962 24.1c1.2-.1 2.4-.6 3-1.2" class="st3"/><path style="fill:none;stroke:#75bda7;stroke-width:.514;stroke-miterlimit:10" id="path2423" d="M21.762 22.5c.2 0 1.3-.1 1.9-.7"/><path style="fill:#ea7c39" id="path2425" d="m12.662 8.1.8-.9c1.1 2.1 2.7 2.4 2.7 2.4l-.2.4 3.2 2.6s1.6-.5 2.5.4c.8 1 .3 2 .3 2.1l5 5.5.1.2-.2.1v1.4l-.7.8h-.1l-2.2-2V21l.2-.2c.5-.6.4-.5.4-.5l1.4-.1-4.6-4.2c-.2.1-.4.1-.5.2.2 3.3.5 6.6.7 9.9l2.8 2.8h-1.9l-.7-.9.1.9h-3.1l.1-.9-.7.9h-1.9c.9-.9 1.8-1.9 2.7-2.8.3-3.3.5-6.7.8-10-.4-.2-1-.5-1.2-1.1-.2-.6 0-1.2.1-1.4zm7.5 5.6c-.3 0-.6.3-.6.6s.3.6.6.6.6-.3.6-.6-.3-.6-.6-.6z"/></g></svg>