<svg xmlns="http://www.w3.org/2000/svg" width="200" height="200" fill="none"><path d="m30.18 107.79 5.04 4.37a16.51 16.51 0 0 1-3.45 3.55 20.98 20.98 0 0 1-5.46 3.1 17.9 17.9 0 0 1-6.83 1.27c-3.8 0-7.15-.86-10.1-2.59a18.38 18.38 0 0 1-6.89-7.09A20.75 20.75 0 0 1 0 100.23a21.7 21.7 0 0 1 1.44-7.89c.92-2.39 2.3-4.58 4.05-6.44a18.5 18.5 0 0 1 6.23-4.4 19.56 19.56 0 0 1 7.98-1.56c3.8 0 6.93.73 9.45 2.23a19.46 19.46 0 0 1 6.07 5.47l-5.1 4.53a15.47 15.47 0 0 0-4.3-4.25 11.09 11.09 0 0 0-6.12-1.6c-2.29-.06-4.54.6-6.44 1.88a12.5 12.5 0 0 0-4.19 5.02 15.72 15.72 0 0 0-1.46 6.8c-.03 2.3.47 4.59 1.46 6.67a11.86 11.86 0 0 0 4.13 4.76c1.83 1.2 4 1.83 6.19 1.79 2.23 0 4.02-.32 5.36-1a11.06 11.06 0 0 0 3.26-2.26zm6.98-2.14c-.03-2.52.61-4.98 1.86-7.19a14.26 14.26 0 0 1 5.08-5.23c2.3-1.33 4.91-2 7.56-1.94 2.87 0 5.4.62 7.57 1.94a13.78 13.78 0 0 1 5.07 5.23 14.92 14.92 0 0 1 0 14.37 14.35 14.35 0 0 1-5.07 5.27 14.39 14.39 0 0 1-7.57 1.99c-2.87 0-5.4-.68-7.57-1.99a14.1 14.1 0 0 1-5.07-5.27 14.18 14.18 0 0 1-1.86-7.18zm14.5 8.56c1.72 0 3.16-.45 4.28-1.32a8.1 8.1 0 0 0 2.51-3.32 9.58 9.58 0 0 0 0-7.83 8.21 8.21 0 0 0-2.5-3.28 6.83 6.83 0 0 0-4.3-1.3c-1.71 0-3.14.45-4.26 1.3a8 8 0 0 0-2.53 3.29 9.7 9.7 0 0 0 0 7.82 8.3 8.3 0 0 0 2.52 3.32 6.83 6.83 0 0 0 4.28 1.32zm15.82-26.25v-7.11h6.8v7.11zm0 31.2V92.2h6.8v26.96zm9.42 0V92.2h6.49l.15 3.03c.9-.93 1.89-1.72 3-2.4a9.38 9.38 0 0 1 5.12-1.24c3.32 0 5.87 1 7.66 3.03 1.78 2.01 2.68 4.73 2.68 8.14v16.4h-6.77v-16.32a5.44 5.44 0 0 0-1.4-3.96 4.89 4.89 0 0 0-3.64-1.43 5.96 5.96 0 0 0-4.66 2.07 7.37 7.37 0 0 0-1.85 5.04v14.6z" fill="#1c2951"/><path d="m185.56 98.59 11.89-17.74h-11.3l-6.18 9.92-6.38-9.94h-12.51l.58.81a25.25 25.25 0 0 0-9.65-1.82c-3.96 0-7.4.89-10.41 2.65a18.37 18.37 0 0 0-5.74 5.23 16.35 16.35 0 0 0-6.23-4.78 25.74 25.74 0 0 0-10.54-2.04h-14.72v38.31h14.65c3.9 0 7.42-.71 10.55-2.11a16.51 16.51 0 0 0 6.22-4.72 18.72 18.72 0 0 0 5.84 5.23 20.43 20.43 0 0 0 10.38 2.58c3.42.07 6.8-.7 9.86-2.16l-.79 1.21h11.14l7.43-11.78 7.64 11.78h12.7zm-59.15 8.76c-1.85 1.88-4.4 2.83-7.7 2.83h-4.15V89.72h4.15c3.6 0 6.22.93 7.92 2.81s2.52 4.34 2.52 7.4c0 3.06-.92 5.52-2.74 7.42zm40.68 2.8-4.86-4.56a14.94 14.94 0 0 1-4.09 3.66c-1.68.88-3.57 1.3-5.46 1.22a10.3 10.3 0 0 1-5.34-1.38 9.13 9.13 0 0 1-3.53-3.83 12.05 12.05 0 0 1-1.26-5.49c-.03-1.86.4-3.7 1.23-5.36a9.28 9.28 0 0 1 3.47-3.8 10.32 10.32 0 0 1 5.5-1.4c1.8-.04 3.56.41 5.12 1.3 1.5.9 2.8 2.12 3.86 3.52l5.04-5.08 7.38 10.6z" fill="#f94a29"/></svg>