<svg xmlns="http://www.w3.org/2000/svg" xml:space="preserve" viewBox="0 0 32 32"><circle cx="16" cy="16" r="16" fill="#fff"/><path d="M10.5 20.9c.4-1.1 1.2-2 2.2-2.5l1.8 1c.7.4.6 1.5-.1 1.9l-3.6 2.1c-.2.1-.5 0-.6-.2V23c-.1-.7 0-1.4.3-2.1z"/><path d="M16.1 16.1c0-.6-.3-1.2-.8-1.5L5.4 8.9a9.6 9.6 0 0 0 4.7 7.9l4.4 2.6c.7.4.6 1.5-.1 1.9l1.1-.6c.3-.2.6-.6.6-1v-3.6z"/><path d="m14.5 19.4-1.8-1 1.5 1.4c.4.5.1 1.5.1 1.5.7-.4.9-1.5.2-1.9zm7.8-7.2c-.4 1.1-1.2 2-2.2 2.5l-1.8-1c-.7-.4-.6-1.5.1-1.9l3.6-2c.2-.1.5 0 .6.2v.2a7 7 0 0 1-.3 2z"/><path d="M16.7 17c0 .6.3 1.2.8 1.5l9.9 5.7a9.6 9.6 0 0 0-4.7-7.9l-4.4-2.6c-.7-.4-.6-1.5.1-1.9l-1.1.6c-.3.2-.6.6-.6 1V17z"/><path d="m18.3 13.8 1.8 1-1.5-1.4c-.4-.5-.1-1.5-.1-1.5-.8.3-.9 1.4-.2 1.9z"/></svg>
