<svg xmlns="http://www.w3.org/2000/svg" viewBox="0 0 28.34 46"><path fill="#1c60dd" d="m.16 18.98 1.28-4.9 9.02-5.21v6.54L.16 21.9Z" opacity=".5"/><path fill="#1c60dd" d="m4.43 19.16 10.15-6.31v5.18s-.16 1.71-.9 2.03c-.55.22-9.25 5.37-9.25 5.37z" opacity=".7"/><path fill="#1c60dd" d="m9.96 22.22 9.02-5.32v5.18s0 1.44-.9 1.94c-.58.31-8.12 4.7-8.12 4.7z" opacity=".9"/><path fill="#1c60dd" d="m13.7 7.02 4.96-3.2v6.53L13.7 13.4Z" opacity=".5"/><path fill="#1c60dd" d="m17.73 10.91 4.99-2.94v6.76l-4.99 2.9V10.9Z" opacity=".7"/><path fill="#1c60dd" d="M21.56 2.08 24.96 0v4.5s0 2.26-.9 2.71l-2.48 1.44z" opacity=".5"/><path fill="#1c60dd" d="m21.65 15.27 3.38-2.03-.08 5.18s.08 1.37-.9 2.03c-.22.2-2.52 1.32-2.48 1.34.04.03.06-6.7.08-6.52z" opacity=".9"/><path fill="#1c60dd" d="m25.63 6.3 2.7-1.78s.03 2.68 0 4.5A4.2 4.2 0 0 1 27 11.95s-1.4.88-1.36.9c.05.02 0-6.54 0-6.54z" opacity=".7"/><path fill="#fff" d="M10.46 8.86c-.05.1-8.28 4.18-9.53 5.58.64-.54-.54.53-.67 2.14l.39 15.1s-.63 2.62 2.46 4.4c2.2 1.27 14.96 8.51 16.53 9.25 1.56.73 1.97-.43 1.97-.43V30.23c-.04-.04.46-2.32-2.22-4.03-.52-.45-17.04-7.98-17.74-10.35-.76-2.54 8.8-6.33 8.8-6.99Z"/><path fill="#c0c9d7" d="m20.84 30.1.8-.58v15.63s-.39.78-.8.85c-.05-.02 0-15.9 0-15.9z"/><path fill="#1c60dd" d="M1.08 16.36c.11.19.24.36.39.51-.17-.18-.3-.38-.41-.6-.98-2.52 6.09-5.34 9.03-7.23 0 0-7.14 3.55-8.56 4.78C.28 14.92.19 15.58.19 15.58l-.15.92c.03-.45.04-.85.15-.92-.02.08.88.67.89.78zm17.56 10.46c-.58-.5-7.99-3.88-13.11-6.94l.79.5 12.13 24.4c.25.13.45.24.6.3l1.79.9V30.31c-.02-.01.18-2.18-2.2-3.5z"/><path fill="url(#a)" d="M.55 33.72a6.12 6.12 0 0 1-.55-1.8c.03.63.22 1.26.55 1.8z" opacity=".3"/><path fill="#1c60dd" d="M5.53 19.88c-1.81-1.07-3.32-2.13-4.06-3a3.43 3.43 0 0 1-.4-.51c0-.12-.87-.8-.85-.88-.1.08-.18.55-.2 1l.02 15.42c.08 1.14.17 1.18.47 1.81.45.69.67.95 1.46 1.65 1.85 1.14 13.34 7.7 16.5 9.4L6.32 20.37l-.8-.5Z"/><path fill="url(#b)" d="M5.5 19.87c-1.8-1.07-3.3-2.13-4.05-3a3.32 3.32 0 0 1-.37-.51c-.01-.12-.88-.8-.86-.87-.05.05-.15.65-.18 1.1L0 31.95c.05.96.23 1.23.5 1.8.4.66.91 1.15 1.49 1.61 1.85 1.14 13.29 7.7 16.45 9.4L6.3 20.37Z" opacity=".2"/><path fill="#b0b5be" d="M18.23 33.17 15.7 31.6c-.44-.26-.88-.09-.65.37v4.19c.1.15.32.65.22.9-.36-.01 1.43 1.5 2.45 2.06.3.17.85.24.8-.45V33.7c0-.1-.02-.22-.08-.31a.63.63 0 0 0-.21-.23z"/><path fill="#fff" d="M18.12 33.42c-.4-.5-1.7-1.24-2.6-1.88-.22-.17-.6-.05-.6.22.05 3.17.06 4.63.25 5.25.13.47 1.62 1.47 2.46 2.03.25.17.6.2.6-.1.05-1.33 0-4.42 0-5.21a.52.52 0 0 0-.11-.31z"/><defs><linearGradient id="a" x1="8.34" x2=".37" y1="23.54" y2="32.71" gradientUnits="userSpaceOnUse"><stop/><stop offset="1" stop-color="#1C60DD" stop-opacity="0"/></linearGradient><linearGradient id="b" x1="12.17" x2="4.2" y1="26.87" y2="36.04" gradientUnits="userSpaceOnUse"><stop offset=".19"/><stop offset="1" stop-color="#1C60DD" stop-opacity="0"/></linearGradient></defs></svg>
