<svg xmlns="http://www.w3.org/2000/svg" version="1.1" id="svg5830" width="110.009" height="110.009"><defs id="defs5803"><style id="style5801">.cls-1{fill:#5022ed}</style></defs><g id="g6460" transform="translate(.01 25.765)"><path id="Path_3283" data-name="Path 3283" class="cls-1" d="M94.77 4.66l-6 8.71a17 17 0 00-6.29-1.21 16.36 16.36 0 00-3.76.42 4.56 4.56 0 00-.53.13 14.92 14.92 0 00-5.25 2.36 5.22 5.22 0 00-.54.38 17 17 0 00-3.66 3.67c-3.95 4.95-6.94 12-12.12 19.44-.51.75-1 1.51-1.63 2.27A41.82 41.82 0 0139.41 54l-1 .49c-.89.38-1.79.71-2.7 1-.6.18-1.2.34-1.81.48a26.46 26.46 0 01-5.24.73h-1.12a27.49 27.49 0 1119-47.3l-6 8.76a17.07 17.07 0 10-13 28.14 10.39 10.39 0 001.12 0 16.67 16.67 0 006.59-1.81h.1C41.17 41.7 45.91 35.67 54 21.8c.35-.59.69-1.18 1-1.79A40.2 40.2 0 0165.78 7.44l.5-.37c.21-.16.44-.31.66-.47.53-.35 1.06-.68 1.57-1 .51-.32 1.31-.73 1.95-1.05l.63-.31.91-.4 1.22-.48a27.58 27.58 0 0121.54 1.3z"/><path id="Path_3284" data-name="Path 3284" class="cls-1" d="M110 24v5.24a26.45 26.45 0 01-.15 2.81 22.73 22.73 0 01-.35 2.36A27.46 27.46 0 0163.92 49.5l6-8.72a17 17 0 0028.84-6.36H81.69L88.85 24z"/></g></svg>