<svg xmlns="http://www.w3.org/2000/svg" viewBox="0 0 72 90"><path fill="#ea9ccb" d="M62.972 26.117c-6.733 0-8.995 5.692-17.479 3.094-.772-.238-1.426.635-.705 1.242 5.141 4.324 13.106 10.496 22.299 9.865 7.387-.504 6.781-14.201-4.115-14.201"/><path d="M71.594 45.585c-.424 2.293-1.176 5.173-1.834 6.886-.162.417-.618.532-1.018.337-16.916-8.183-36.221 10.948-56.491 4.796-16.453-4.998-17.387-37.414 3.664-37.878 17.015-.373 30.489 28.429 54.879 24.855.487-.071.951.21.8 1.004m-51.374 28.6c8.864 1.091 21.245 8.31 28.695 8.691.634.036.871.857.38 1.269C44.931 87.795 40.483 90 36.474 90c-6.365 0-13.981-5.676-20.782-14.252-1.141-1.44 2.642-1.793 4.527-1.563m-7.275-3.705c4.979-3.146 15.308.381 25.697 4.601 9.823 4.002 14.999 4.177 18.9.258 4.476-4.494 13.474-17.62 6.975-19.278-15.003-3.82-35.559 14.125-56.424 4.919-.626-.278-1.208.242-.958.948.364 1.008 2.567 5.748 4.59 8.278.337.42.634.643 1.22.274M28.395 0c5.553 0 6.361 7.62 12.227 14.415.483.655-.087 1.182-.455 1.17C21.495 14.871 20.576-.004 28.395 0m17.273 12.939a11.21 11.21 0 0 1-2.986-2.975.67.67 0 0 1-.032-.734c1.703-2.745 3.184-6.271 5.398-7.723 3.41-2.582 9.886.536 7.248 5.799-1.018 2.023-3.323 4.213-5.763 5.672-1.184.749-2.697.734-3.866-.04" fill="#ff006d"/></svg>