<svg xmlns="http://www.w3.org/2000/svg" width="1181.161" height="1181.161" viewBox="0 0 312.515 312.515"><path d="M86.408 69.875a86.397 86.397 0 00-61.158 25.36 86.397 86.397 0 00.023 122.097 86.397 86.397 0 00122.097.152l-60.972-61.211 42.658 42.84a60.457 60.457 0 01-85.435-.119 60.457 60.457 0 01-.01-85.434 60.457 60.457 0 0185.435-.138l-42.648 42.85 60.948-61.235a86.397 86.397 0 00-60.938-25.162z" fill="#0d243d" paint-order="markers fill stroke"/><path d="M156.073 69.86v24.402h64.691v148.393h26.672V94.262h64.947V69.86z" fill="#0088f9" stroke="#000" stroke-width=".265"/></svg>