<?xml version="1.0" encoding="utf-8"?>
<!-- Generator: Adobe Illustrator 24.1.2, SVG Export Plug-In . SVG Version: 6.00 Build 0)  -->
<svg version="1.1" id="Layer_1" xmlns="http://www.w3.org/2000/svg" xmlns:xlink="http://www.w3.org/1999/xlink" x="0px" y="0px"
	 width="32px" height="32px" viewBox="0 0 32 32" style="enable-background:new 0 0 32 32;" xml:space="preserve">
<style type="text/css">
	.st0{fill:#FFFFFF;}
	.st1{fill:#FA4B29;}
	.st2{fill:#FA9F29;}
	.st3{opacity:0.2;enable-background:new    ;}
</style>
<circle class="st0" cx="16" cy="16" r="16"/>
<g>
	<path class="st1" d="M10.5,20.9c0.4-1.1,1.2-2,2.2-2.5l1.8,1c0.7,0.4,0.6,1.5-0.1,1.9l-3.6,2.1c-0.2,0.1-0.5,0-0.6-0.2
		c0,0,0-0.1,0-0.2C10.1,22.3,10.2,21.6,10.5,20.9z"/>
	<path class="st2" d="M16.1,16.1c0-0.6-0.3-1.2-0.8-1.5L5.4,8.9c0.1,3.3,1.9,6.2,4.7,7.9l4.4,2.6c0.7,0.4,0.6,1.5-0.1,1.9l1.1-0.6
		c0.3-0.2,0.6-0.6,0.6-1v-1.3C16,18.3,16.1,16.1,16.1,16.1z"/>
	<path class="st3" d="M14.5,19.4l-1.8-1c0,0,1.1,1,1.5,1.4c0.4,0.5,0.1,1.5,0.1,1.5C15,20.9,15.2,19.8,14.5,19.4z"/>
	<path class="st1" d="M22.3,12.2c-0.4,1.1-1.2,2-2.2,2.5l-1.8-1c-0.7-0.4-0.6-1.5,0.1-1.9L22,9.8c0.2-0.1,0.5,0,0.6,0.2c0,0,0,0,0,0
		c0,0,0,0.1,0,0.2C22.6,10.8,22.5,11.6,22.3,12.2z"/>
	<path class="st2" d="M16.7,17c0,0.6,0.3,1.2,0.8,1.5l9.9,5.7c-0.1-3.3-1.9-6.2-4.7-7.9l-4.4-2.6c-0.7-0.4-0.6-1.5,0.1-1.9l-1.1,0.6
		c-0.3,0.2-0.6,0.6-0.6,1v1.3C16.7,14.8,16.7,17,16.7,17z"/>
	<path class="st3" d="M18.3,13.8l1.8,1c0,0-1.1-1-1.5-1.4c-0.4-0.5-0.1-1.5-0.1-1.5C17.7,12.2,17.6,13.3,18.3,13.8z"/>
</g>
</svg>
