<svg xmlns="http://www.w3.org/2000/svg" xmlns:xlink="http://www.w3.org/1999/xlink" width="2000" height="2000" xmlns:v="https://vecta.io/nano"><g transform="translate(.002)"><circle cx="1000" cy="1000" r="1000" fill="#25363f" paint-order="markers fill stroke"/><path id="A" d="M946 189s40.1-3.1 53.2-16.2c13.2-13.1 16.3-53.4 16.3-53.4s3.22 40 16.3 53.1c13.1 13.1 53.2 16.4 53.2 16.4s-41 2.15-54.2 15.5c-13.2 13.3-15.3 54.1-15.3 54.1s-2.13-40.9-15.4-54.2C986.8 191 946 189 946 189z" fill="#fed364" fill-rule="evenodd"/><use id="B" xlink:href="#A" x="-265" y="328"/><use id="C" xlink:href="#B" x="-313" y="-110"/><use id="D" xlink:href="#C" x="-204" y="453"/><use id="E" xlink:href="#D" x="219" y="281"/><use id="F" xlink:href="#E" x="828" y="516"/><use id="G" xlink:href="#F" x="564" y="-360"/><use fill="#ff0" xlink:href="#G" x="-46.7" y="-546"/><path d="M1140.034 1127.1c-49.54 75.507-106.882 147.7-169.408 213.382-41.558 43.592-84.832 84.667-134.367 120.68-20.957 15.1-42.687 28.996-67.575 36.964-7.2 2.33-14.515 3.8-22.116 3.805-15.39-.042-25.895-7.19-32.046-21.164-5.45-12.287-6.48-25.362-6.444-38.623.02-27.74 5.208-55.032 11.738-81.824 16.18-66.656 40.454-130.76 67.374-193.056 29.495-68.01 64.55-136.74 104.34-199.133 86.195 45.054 169.085 97.524 247.855 159.986z" fill="#fed364"/><path d="M1113.897 1110.422c-20.97 31.104-44.39 64.084-64.762 89.164a711.03 711.03 0 0 1-32.445 37.188c-7.183 7.636-14.247 15.347-21.843 22.72-23.992 23.245-49.153 45.27-77.984 62.584-15.386 9.284-31.34 16.782-49.045 20.553-15.58 3.23-30.58 2.202-43.525-8.187-10.4-8.442-15.632-20.122-18.09-33.005-4.517-24.348-2.6-48.743 2.157-72.752 7.932-41.08 22.26-80.096 39.26-118.474l68.27-128.438z" fill="#f1b155"/><path d="M1017.05 616.94l-.06.04c-19.436-8.766-39.614-8.185-60.065-4.385-31.26 5.683-60.048 18.28-88.217 32.694-38.63 19.842-72.967 44.674-99.883 79.813-53.225 69.362-97.76 144.028-135.162 223.36-4.96 10.715-9.736 21.664-12.19 33.265-2.36 11.422 1.83 20.38 12.23 25.828 3.404 1.786 6.908 3.172 10.745 3.982 19.536 4.144 38.737 1.932 57.877-2.23 11.786-2.54 21.27-8.615 29.192-17.32 5.873-6.42 11.657-12.847 17.124-19.56 32.345-40.1 61.15-83.166 88.85-125.99 4.473-6.813 10.08-10.768 17.674-12.686 26.935-6.9 54.754-8.49 82.04-13.15l-5.245 22.83c-.774-.167-1.625-.092-2.304-.478-13.296-7.234-32.147-3.897-42.648 13.127-9.85 16.253-20.498 31.997-30.717 47.897-11.132 17.333-7.243 35.35 9.933 46.542 8.023 5.273 16.548 9.946 24.064 16.015a3598.453 3598.453 0 0 0 25.731 16.189c1.208 1.398 1.813 3.1 3.418 4.09 6.717 4.177 13.263 8.773 19.972 12.945l29.165 18.617a101.588 101.588 0 0 0-2.645 4.208c-20.468 36.167-39.434 72.937-53.827 111.556-6.238 16.422-11.776 32.934-14.345 50.39-1.07 7.5-1.763 15.243.047 22.802 2.436 10.4 9.664 14.975 20.04 13.024 3.695-.716 7.1-1.925 10.393-3.537 14.18-6.968 26.484-16.794 37.807-27.482 26.123-24.615 49.635-51.607 71.582-80.07l23.72-31.485 29.435 18.936c5.216 3.483 10.598 6.444 15.72 10.13a18.583 18.583 0 0 0 8.408 3.572c8.386 5.447 17.245 10.34 25.162 16.7 4.61 1.68 8.417 4.768 12.56 7.274 16.058 10.156 34.062 6.66 44.615-9.145 11.437-17.14 22.45-34.547 33.52-52.04 7.854-12.426 6.378-27.482-3.1-37.914-1.782-1.966-3.656-3.732-5.54-5.597l18.46-14.44c.087.007.168-.002.255 0l5.434 19.003c5.557 19.556 12.602 38.637 16.256 58.758 1.73 8.895.85 16.9-4.51 25.114-20.495 31.287-39.882 63.163-58.097 95.786-12.217 21.742-24.445 43.594-32.65 67.302-2.282 6.6-3.142 13.296-2.138 20.222a144.62 144.62 0 0 0 4.772 21.901c4.778 15.383 10.547 30.33 21.856 42.166s23.113 12.297 35.823 1.853c9.178-7.55 17.13-16.354 24.71-25.396 54.442-64.9 102.98-133.582 142.775-209.018 11.74-22.165 22.426-44.763 26.742-69.645 4.327-24.64 6.706-49.57 7.336-74.55.595-28.085-1.134-55.874-8.954-83.04-5.25-18.175-12.973-35.078-28.147-47.365z" fill="#cb584c"/><path d="M1395.916 80.5c2.7.787 4.5-1.016 6.294-2.32 18.65-12.657 38.333-23.47 58.23-34.027l268.934 173.428c-1.146 18.72-2.322 37.303-5.11 55.808l-4.72 28.42c-.197 1.404-.294 2.6.318 3.796-2.597 2.01-1.977 5.11-2.473 7.7-15.734 74.886-43.935 145.144-81.175 211.534-32.605 57.84-70.662 111.494-109.954 164.716-41.686 56.438-86.07 111.156-131.94 163.74-1.196 1.408-2.288 2.906-3.387 4.317-.186 2.3-1.588 3.91-2.977 5.608-10.072 11.96-20.632 23.6-31.19 35.143-25.612 27.906-51.164 55.494-78.15 81.813-10.937 10.697-22.023 21.18-33.34 31.635-1.596 1.508-3.3 2.908-5.684 2.72l-18.722 14.628c-2.792 2.015-4.705-.38-6.607-1.58l-42.038-27.072c-6.113-4.176-12.727-7.754-18.715-12.313l-22.064-14.128c-1.802-1.19-3.706-2.185-4.712-4.18-.816-3.295 1.28-5.8 2.667-8.3 11.115-19.716 21.98-39.7 31.672-60.096 12.717-26.88 24.627-54.034 32.078-82.847 2.567-9.81 4.742-19.748 4.578-30.053-.004-1-.008-1.998-.114-3.002-1.227-13.83-9.147-18.762-22.037-13.613-13.99 5.666-25.578 15-36.586 24.822-35.88 32.27-65.52 69.822-94.06 108.434-1.988 2.705-3.48 6.214-7.476 6.83-3.3-.182-5.71-2.48-8.312-4.168-6.616-4.077-13.163-8.373-19.57-12.645-14.116-8.738-28.077-17.905-42-26.947l-31.475-20.387c-2.102-1.4-4.906-2.48-4.72-5.88a7144.805 7144.805 0 0 1 5.34-23.043c-1.613-3.6.175-6.898 1.26-10.107 4.757-15.232 10.202-30.26 15.614-45.313 17.026-46.783 36.153-92.583 56.614-138.244 1.6-3.4 2.576-7.312 6.187-9.456l40.532-84.572c43.726-87.162 90.823-172.172 145.878-253.294 52-76.067 114.724-142.697 190.866-194.953 1.095-.7 3.5-.912 2.285-3.405z" fill="#e5e5e5"/><path d="M1036.02 912.343c-1.258 5.01-5.03 8.542-7.796 12.565-18.778 26.956-35.948 54.9-52.917 83.04-1.973 3.216-3.745 6.63-5.517 10.046-1.693.814-3.197.326-4.705-.56-6.233-4.05-12.664-7.696-18.7-11.946-1.508-.988-3.017-2.076-2.735-4.278 2.443-6.92 6.894-12.857 10.542-19.188 11.836-19.898 24.074-39.5 37.017-58.607l15.217-22.227c1.186-1.7 2.672-3.422 2.452-5.82 9.442 5.022 18.193 11.15 27.14 16.976zm24.345 162.805c-.73-3.494 2.256-5.32 3.838-7.532 21.643-31.18 41.78-63.247 60.9-96.006.394-.703.99-1.308 1.484-1.912 9.243 5.224 18.192 11.05 26.942 17.078-2.888 1.524-3.863 4.532-5.342 7.044-15.187 25.926-31.278 51.26-47.973 76.2-4.84 7.14-9.884 14.082-14.826 21.123-1.7 1.114-3.197.326-4.605-.562l-17.592-11.055c-1.41-1.09-2.92-2.276-2.836-4.377z" fill="#be5347"/><path d="M1729.643 217.43c-12.515-.46-24.7-3.298-36.8-6.27-98.194-24.194-175.252-78.555-230.506-163.014-.902-1.394-2.213-2.593-2.014-4.392 28.813-14.122 58.468-26.403 89.56-34.802 29.713-8.093 59.7-13.64 90.59-12.796 7.802.17 15.582 1.23 23.275 2.745 9.6 1.966 17.1 6.832 22.982 14.735 11.366 15.467 18.674 33.02 24.478 51.073 14 43.324 19.043 88.05 18.93 133.048l-.326 19.48z" fill="#cb584c"/><path d="M1584.105 390.07c.417 86.6-68.863 156.82-155.157 157.833-86.4.515-156.822-69.062-157.834-155.156-.418-86.7 69.063-156.822 156.157-157.845 85.9-.4 156.825 69.262 156.834 155.168z" fill="#263740"/><path d="M1424.01 297.945c48.88-2.074 92.9 33.41 97.51 85.46 4.62 52.75-34.254 97.8-87.008 102.03-49.66 3.783-95.72-35.278-99.498-84.437-4.246-54.954 33.444-98.6 88.995-103.053z" fill="#c1e1f1"/><path d="M962 2000c3.8-2 7.9-1 11.8-.9 5.7.2 11.6-1.2 17.2.9h-29z" fill="#c5c8ca"/><path d="M1019 2000l9.3-.2c1.6 0 3.4.3 3.7-2.1.9 1.6 2.2 2.3 4 2.3.4.2.5.4.3.6-.1.2-.3.2-.4.2h-17c-.7-.3-.6-.6.1-.8z" fill="#9da4a8"/><path d="M1019 2000c0 .3-.1.6-.1.8h-11c3.6-1.8 7.4-.8 11.1-.8z" fill="#b7bbbd"/><path d="M1036 2000c0-.3 0-.5.1-.8h7c0 .3-.1.6 0 .9l-7.1-.1z" fill="#cbcfd1"/><path d="M941 2000c4.2-1.5 8.5-1.5 12.7 0H941z" fill="#c5c8ca"/><path d="M926 2000c3.6-1.5 7.1-1.5 10.7 0H926z" fill="#bbbfc2"/><path d="M903 2000c2.6-1.4 5.1-1.4 7.7 0H903z" fill="#cacdce"/><path d="M914 2000c2.6-1.5 5.1-1.4 7.7 0H914z" fill="#bfc3c5"/><path d="M884 1995c2.2-1.5 4.5-1.3 6.8-.1l-6.8.1z" fill="#bcc0c2"/><path d="M893 2000c2.2-1.4 4.4-1.4 6.6 0H893zm-25-7c1.9-1.4 3.7-1.3 5.6 0H868z" fill="#bdc1c4"/><path d="M847 1990c1.6-1.3 3.1-1.3 4.7 0H847z" fill="#b8bcbf"/><path d="M861 1992c1.6-1.4 3.2-1.3 4.8-.1l-4.8.1z" fill="#c4c7c9"/><path d="M876 1994c1.6-1.3 3.2-1.3 4.7 0H876z" fill="#c7cacc"/><path d="M854 1991c1.6-1.3 3.2-1.2 4.8 0H854z" fill="#c1c5c7"/><path d="M1033 2000c-431 14.2-823-250-972-655 425-13.3 822 246 972 655z" fill="#e5e5e5" paint-order="markers fill stroke"/><path d="M356 1436l34.9 146c-22.6 2.9-44.1-1.2-64.5-11-25.5-12.3-45.7-30.2-54.6-57.9-11-34.4 7.6-64.7 43.7-74.8 13.3-3.7 26.8-4.1 40.5-2.1z" fill="#b2b2b2"/><path d="M356 1436c12.7.5 24.5 4.7 35.8 10 19.3 9.1 35.7 22 47 40.4 11.5 18.6 15.8 38.4 6.4 59.3-8 17.8-22.7 27.6-40.8 33.2-4.4 1.4-9.1 2.1-13.6 3.1-9.2-.5-18-2.3-26.5-5.9-24-9.9-43.6-25-56.6-47.7-8.9-15.5-12.7-32.2-7.4-49.9 7-23.4 24.1-35.8 46.8-41.8 2.9-.8 6.08-.968 8.9-.7z" fill="#cbcbcb"/><path d="M624 1531l-18.8 96.9c-28-11.1-46.1-30.7-49.9-61.2-3.7-29.1 17.1-47.7 46.3-43.6 7.9 1.3 15.3 4.1 22.4 7.9z" fill="#b2b2b2"/><path d="M624 1531c16.9 10.7 30.1 24.6 36.3 44.1 3.8 12.1 4.2 23.9-1.1 36-7 16-26.2 23-41.7 20.4-4.2-.7-8.6-1.1-12.4-3.4-3.7-3.3-8-5.7-11.6-9.2-13-13-20.4-28.5-22.1-46.7-2.7-27.6 23.2-49.2 49.7-41.5 1 .2 1.9.4 2.9.3z" fill="#cbcbcb"/><path d="M564 1678l49.9 141c-37.4 7.8-71.1-.4-101-24-17.2-13.7-28.4-31.4-29.8-53.9-.8-13.6 3.7-26 12.7-36.4 13.9-16.1 32.2-23.5 53-25.7 2.2-1.1 4.8.3 7.1-.9 2.6.1 5.3.1 7.9.1z" fill="#b2b2b2"/><path d="M566 1677c38.2 2 70.3 15.8 92 48.5 16.3 24.4 13.6 54.6-7 73.9-9.9 9.3-22.1 14.7-35 18.4-19.4.9-37-4.9-53.6-14.2-18.7-10.5-34-24.5-42.5-44.8-16.9-40 10.6-75 43.3-81.1.9-.1 1.9-.2 2.8-.7z" fill="#cbcbcb"/></g></svg>