<svg xmlns="http://www.w3.org/2000/svg" viewBox="0 0 40.4 41"><path fill="#17181b" fill-rule="evenodd" d="M35.1 24.5c-.7.5-1.5.5-2.2.1-.8-.4-1.2-1.5-1.2-3v-4.5c0-2.1-.9-3.7-2.3-4-2.4-.8-4.3 2.2-5 3.3l-4.2 7v-8.5c0-2-.7-3.1-1.9-3.5-.8-.2-2-.1-3.1 1.6L5.6 28.4A16.9 16.9 0 0 1 20.2 3.7c9.1 0 16.5 7.6 16.5 16.8.1 1.9-.5 3.3-1.6 4zm5.3-4C40.4 9 31.3 0 20.2 0S0 9.2 0 20.5 9 41 20.2 41c5.1 0 10-2 13.7-5.5.8-.7.8-1.8.1-2.6-.7-.8-1.8-.8-2.6-.1A16.3 16.3 0 0 1 8 31.7l8.6-13.9v6.4c0 3 1.2 4 2.2 4.4s2.5 0 4.1-2.5l4.8-7.7.4-.7v4c0 2.8 1.1 5 3.1 6.2 1.8 1 4.1 1 6-.2 2.2-1.4 3.4-4 3.3-7.2z"/></svg>