<svg xmlns="http://www.w3.org/2000/svg" width="162.806" height="162.806" viewBox="0 0 254.674 256.121"><path fill="#1b5cc4" d="M115.548 15.734c21.78-2.09 44.2 1.86 63.6 12.1 30.4 15.53 52.84 45.6 58.94 79.2 3.71 20.73 2.04 42.59-5.76 62.23-10.76 27.76-33.04 50.77-60.41 62.48-21.67 9.41-46.33 11.51-69.37 6.5-29.72-6.47-56.33-25.68-71.97-51.75-10.78-17.82-16.6-38.67-16.2-59.52-.04-29.95 12.84-59.58 34.51-80.2 17.87-17.49 41.82-28.46 66.66-31.04"/><path fill="#eba231" d="M113.528.614c8.15-.63 16.35-.51 24.52-.21 30.52 2.35 59.91 16.44 81.1 38.49 18.97 19.34 31.47 44.95 35 71.81 4.18 28.85-2.25 59.07-17.44 83.92-20.42 33.83-57.2 57.41-96.66 60.89-12.28.71-24.73.82-36.85-1.54-29.59-5.49-56.87-22.01-75.73-45.42-15.94-19.74-26.01-44.28-27.96-69.62-.31-7.31-.31-14.63.01-21.94 2.37-29.8 15.88-58.47 37.05-79.54 20.46-20.57 48.09-33.86 76.96-36.84m2.02 15.12c-24.84 2.58-48.79 13.55-66.66 31.04-21.67 20.62-34.55 50.25-34.51 80.2-.4 20.85 5.42 41.7 16.2 59.52 15.64 26.07 42.25 45.28 71.97 51.75 23.04 5.01 47.7 2.91 69.37-6.5 27.37-11.71 49.65-34.72 60.41-62.48 7.8-19.64 9.47-41.5 5.76-62.23-6.1-33.6-28.54-63.67-58.94-79.2-19.4-10.24-41.82-14.19-63.6-12.1z"/><path d="M69.378 87.304c11.25-16.74 29.78-28.35 49.81-30.91 25.68-3.99 53.27 7.05 68.59 28.14-5.9 5.46-11.97 10.72-17.92 16.11-6.92-9.37-16.08-17.62-27.53-20.79-15.82-4.38-34.13-.2-45.74 11.62-8.91 9.08-14.69 21.61-14.25 34.48-.44 13.93 4.57 28.28 14.7 38.05 8.41 8.39 20.02 13.92 32.02 13.8 11.68.37 23.21-4.32 32.03-11.85 4.51-3.79 7.74-8.76 10.98-13.61 6.3 4.73 12.88 9.16 18.75 14.43-10.83 16.69-28.54 28.81-48.15 32.43-30.96 6.25-64.94-10.95-78.38-39.5-11.1-22.82-9.48-51.46 5.09-72.4z" fill="#fff"/></svg>