<svg xmlns="http://www.w3.org/2000/svg" viewBox="0 0 90 90"><path fill="#FF7A34" d="M15.7.96a448.12 448.12 0 0158.6 0 15.8 15.8 0 0114.74 14.73 448.12 448.12 0 010 58.62 15.8 15.8 0 01-14.73 14.73 448.12 448.12 0 01-58.62 0A15.8 15.8 0 01.96 74.31a448.12 448.12 0 010-58.62A15.8 15.8 0 0115.69.96zm39.88 35.46l.52 1.17c.13.29.41.47.72.47L70.47 38a.78.78 0 00.76-.97c-.32-1.3-.64-2.42-.96-3.36-3.62-11.07-12.52-17.75-25.01-17.75-16.74 0-26.81 12.04-26.81 29.21s10.07 29.2 26.8 29.2c12.54 0 21.46-6.72 25.05-17.85a35.91 35.91 0 001.02-3.7.78.78 0 00-.79-.78H56.9c-.3 0-.6.2-.72.48l-.51 1.19-.34.73c-1.98 3.95-5.29 6.08-9.88 6.08-3.8 0-6.7-1.46-8.74-4.18-2-2.7-3.1-6.62-3.1-11.17s1.1-8.46 3.1-11.17c2.03-2.72 4.94-4.18 8.74-4.18 4.56 0 7.85 2.1 9.83 6l.3.63z"/></svg>