<svg xmlns="http://www.w3.org/2000/svg" viewBox="0 0 84.501 129.7"><path d="M65.001 90.601c10.7 0 19.5 8.8 19.5 19.5 0 10.8-8.7 19.5-19.6 19.5-10.8 0-19.5-8.8-19.5-19.5s8.7-19.5 19.6-19.5M64.901 45.201c10.7 0 19.5 8.8 19.5 19.5 0 10.8-8.6 19.6-19.6 19.5-11 0-19.5-8.8-19.5-19.6.1-10.7 8.9-19.4 19.6-19.4M64.901 0c10.7 0 19.5 8.8 19.5 19.5 0 10.8-8.6 19.5-19.6 19.5-10.7 0-19.5-8.8-19.5-19.5S54.101 0 64.901 0M39.101 110.2c.1 10-8 19.5-19.5 19.5-11.6 0-19.6-9.5-19.5-19.6 0-10.4 8.5-19.5 19.6-19.5 11 .1 19.5 9.1 19.4 19.6M39.101 64.801c.1 10-8.1 19.4-19.6 19.4-11.5 0-19.6-9.6-19.5-19.6.1-10.8 8.8-19.5 19.7-19.4 11 .1 19.5 9.2 19.4 19.6M39.101 19.601c.1 10-8 19.5-19.5 19.4-11.5 0-19.6-9.5-19.5-19.6 0-10.4 8.6-19.5 19.7-19.4 10.9.1 19.4 9.2 19.3 19.6" fill="#202321"/></svg>