<svg xmlns="http://www.w3.org/2000/svg" viewBox="0 0 192 40"><g clip-path="url(#a)"><path fill="#1C2951" d="m28.8 27.6 4.9 4.2a20 20 0 0 1-15 7.6 18 18 0 0 1-16.3-9.3A19.8 19.8 0 0 1 0 20.4c0-2.6.5-5.1 1.4-7.5a18.8 18.8 0 0 1 9.8-10.4c2.4-1 5-1.5 7.6-1.5a17.4 17.4 0 0 1 14.9 7.4l-5 4.3c-1-1.6-2.4-3-4-4S21.2 7 18.8 7c-2.2 0-4.3.6-6.1 1.8a12 12 0 0 0-4 4.8 15 15 0 0 0-1.4 6.5c0 2.2.4 4.4 1.4 6.4.9 1.8 2.2 3.4 4 4.5a9.2 9.2 0 0 0 5.8 1.7 11 11 0 0 0 5.2-1 8.8 8.8 0 0 0 3-2l2.1-2.2zm6.7-2a13.6 13.6 0 0 1 13.9-13.8c2.7 0 5.1.7 7.2 2 2 1.1 3.7 2.8 4.9 5 2.3 4.2 2.3 9.4 0 13.6a13.7 13.7 0 0 1-12 7 13.6 13.6 0 0 1-12.2-7 13.6 13.6 0 0 1-1.8-6.8zm13.9 8.2c1.6 0 3-.5 4-1.3 1.1-.8 2-2 2.5-3.2a9.4 9.4 0 0 0 0-7.4 7.8 7.8 0 0 0-2.4-3.2c-1.1-.8-2.5-1.2-4.1-1.2s-3 .4-4.1 1.2a9.3 9.3 0 0 0-2.4 10.6 8 8 0 0 0 2.4 3.2c1 .8 2.4 1.3 4 1.3zM64.5 8.7V1.9H71v6.8h-6.5zm0 29.8V12.7H71v25.8h-6.5zm9 0V12.7h6.2l.2 3a14 14 0 0 1 2.8-2.4 9 9 0 0 1 5-1.1c3 0 5.5.9 7.2 2.8 1.7 2 2.6 4.6 2.6 7.8v15.7H91V22.9c0-1.6-.4-2.9-1.3-3.8-1-1-2.2-1.4-3.5-1.4-1.7 0-3.3.7-4.4 2a7 7 0 0 0-1.8 4.8v14h-6.5z"/><path fill="#F94A29" d="m177.4 18.8 11.3-17H178l-5.9 9.6-6-9.5h-12l.5.7-.4-.1c-2.8-1-5.8-1.6-8.8-1.6-3.8 0-7 .8-10 2.5-2.1 1.3-4 3-5.5 5-1.5-2-3.6-3.5-5.9-4.5-3-1.4-6.3-2-10-2H99.7v36.6h14c3.7 0 7-.7 10-2 2.4-1 4.4-2.6 6-4.5 1.5 2 3.4 3.7 5.6 5 2.8 1.6 6.1 2.5 9.9 2.5a21 21 0 0 0 9.4-2.1l-.7 1.1h10.6l7.1-11.2 7.3 11.2h12.2l-13.8-19.7zm-56.6 8.4a9.8 9.8 0 0 1-7.3 2.7h-4V10.4h4c3.4 0 6 .8 7.5 2.6 1.6 1.8 2.4 4.2 2.4 7.1s-.8 5.3-2.6 7.1zm38.9 2.7-4.6-4.4a14.8 14.8 0 0 1-4 3.5c-1.3.8-3 1.2-5.2 1.2-1.8 0-3.5-.4-5-1.3a8.7 8.7 0 0 1-3.5-3.7c-.7-1.6-1.2-3.4-1.1-5.2 0-1.8.3-3.6 1.1-5.2.7-1.5 2-2.7 3.3-3.6s3.2-1.3 5.3-1.3c1.7 0 3.4.4 4.9 1.2 1.4.9 2.7 2 3.7 3.4l4.8-4.9 7 10.1-6.7 10.2z"/></g><defs><clipPath id="a"><path fill="#fff" d="M0 0h191.1v40H0z"/></clipPath></defs></svg>
