<svg data-name="Layer 1" xmlns="http://www.w3.org/2000/svg" viewBox="0 0 418.477 418.477"><defs><linearGradient id="a" x1="242.573" y1="309.716" x2="420.146" y2="487.29" gradientUnits="userSpaceOnUse"><stop offset="0" stop-color="#99d4e2"/><stop offset="1" stop-color="#72c9e3"/></linearGradient></defs><circle cx="209.238" cy="209.238" r="209.238" fill="#111e2e"/><path d="M451.572 455.864l-57.426-57.426 57.426-57.426L509 398.438zM384.2 447.21a70.982 70.982 0 01-53.088 24.045c-39.526 0-71.679-32.607-71.679-72.687s32.153-72.687 71.679-72.687a71.02 71.02 0 0153.106 24.026l37.695-37.695a123.405 123.405 0 00-90.8-40.007c-68.714 0-124.614 56.687-124.614 126.363S262.4 524.93 331.11 524.93a123.4 123.4 0 0090.8-40.009z" transform="translate(-124.244 -190.992)" fill="url(#a)"/></svg>