<svg xmlns="http://www.w3.org/2000/svg" viewBox="0 0 400 125"><path fill="#E01A22" d="m371.202 67.945-11.36-2.552c-9.136-2.092-14.796-4.696-14.796-11.236 0-5.873 5.721-9.525 14.924-9.525 11.7 0 18.153 4.649 18.658 13.451l.01.16h18.818v-.17c0-8.637-3.41-15.936-9.857-21.102-6.53-5.228-15.846-7.991-26.95-7.991-10.721 0-19.656 2.676-25.841 7.738-6.061 4.959-9.265 11.99-9.265 20.332 0 7.284 2.215 12.605 6.968 16.737 4.326 3.76 10.99 6.659 20.975 9.118l13.4 3.404c9.136 2.293 13.781 4.577 13.781 10.724 0 7.242-6.828 11.736-17.813 11.736-13.204 0-20.028-5.29-20.862-16.179l-.01-.397h-18.983v.408c0 20.435 13.91 32.161 38.16 32.161 12.093 0 22.027-2.784 28.727-8.058C396.503 111.507 400 103.877 400 94.65c0-16.814-10.12-22.357-28.798-26.706Zm-72.48-3.053c-4.18-13.844-16.103-18.819-24.852-18.824h-.011c-8.75.005-20.671 4.98-24.858 18.824h49.722ZM319.447 76.4a56.572 56.572 0 0 1-.196 4.804h-19.312v-.015h-52.147c2.008 15.683 13.369 25.529 26.073 25.523 9.389 0 18.04-5.387 22.727-14.52h20.646c-6.067 20.368-23.793 32.812-43.367 32.802h-.011c-24.225.015-45.633-19.051-45.576-48.594-.051-35.643 26.934-47.654 45.576-47.664h.011c18.647.01 45.627 12.02 45.576 47.664ZM201.025.005l-.016 122.64 21.032.005L222.036 0l-21.011.005ZM175.6 76.871c0-15.952-12.89-28.876-28.788-28.876-15.897 0-28.793 12.924-28.793 28.876 0 15.941 12.896 28.871 28.793 28.871 15.898 0 28.788-12.93 28.788-28.871Zm19.193 0c0 26.583-21.48 48.129-47.98 48.129-26.502 0-47.987-21.546-47.987-48.129s21.485-48.129 47.986-48.129c26.501 0 47.981 21.546 47.981 48.129Zm-175.6.005c0 15.942 12.89 28.871 28.793 28.871 11.711 0 21.78-7.02 26.275-17.083h20.25C89.267 109.54 70.428 125 47.985 125 21.486 125 0 103.449 0 76.876c0-26.588 21.485-48.134 47.986-48.134 22.443 0 41.282 15.456 46.524 36.336H74.261C69.765 55.01 59.697 47.99 47.986 47.99c-15.902 0-28.792 12.93-28.792 28.886Z"/></svg>