<svg xmlns="http://www.w3.org/2000/svg" width="1714.743" height="1714.743"><path d="M822.011 1.9c-15.134 1.987-30.768 1.295-46 2.746-38.165 3.634-76.587 8.908-114 17.481-163.778 37.533-315.933 120.92-430.91 244.35-73.633 79.045-130.814 170.812-170.89 271-128.178 320.43-48.092 708.41 205.8 944.91 67.738 63.1 144.772 116.11 229 154.78 151.418 69.52 322.453 90.66 487 69.03 227.19-29.88 439.41-158.47 572.57-344.72 109.48-153.12 167.64-343.62 159.39-532-5.28-120.525-32.06-238.583-83.74-348-110.79-234.556-329.92-406.346-583.22-460.212-50.19-10.673-100.85-16.588-152-18.828-23.64-1.036-49.43-3.63-73-.537m31 101.862c20.48-2.416 43.47 1.217 64 2.625 59.05 4.048 117.62 15.661 174 33.745 60.68 19.462 119.37 46.512 173 81.036 226.99 146.127 359.74 408.214 347.96 677.308-4.66 106.51-32.92 213.58-82.74 308-115.18 218.29-338.95 377.09-586.22 401.83-115.468 11.55-232.324-.49-342-39.52-82.499-29.36-159.309-73.44-227-128.92-53.842-44.14-100.459-96.4-140.28-153.39-181.484-259.75-171.41-619.172 13.025-874C352.337 266.6 510.435 164.747 685.011 123.36c38.937-9.23 79.117-15.063 119-17.795 16.245-1.112 32.85.103 49-1.803m657 902.714c-23.47 13.07-44.5 30.97-67 45.66-27.08 17.67-56.1 32.54-85 46.99-132.61 66.31-276.14 114.68-424 130.52-82.93 8.88-166.002 9.08-248-8.38-67.267-14.33-136.407-41.54-190-85.4-93.161-76.25-138.147-199.37-103.279-316.39 10.205-34.25 26.55-66.737 46.999-96 57.061-81.653 138.343-137.279 226.28-181.247 89.304-44.652 183.86-78.019 282-96.95 66.56-12.84 134.33-18.803 202-18.803h60c5.33 0 18.07 2.341 22.4-1.028 4.43-3.443 3.99-18.648 4.73-23.972 3.19-22.935 5.64-46.236 9.87-69-43.64 3.444-87.74 11.867-131 18.576-125.08 19.4-251.38 47.268-370 92.232-116.97 44.337-236.511 94.428-337 170.423-119.912 90.685-237.137 225.35-226.09 385.77 1.683 24.44 5.677 48.68 13.423 72 8.523 25.66 19.634 50.44 34.667 73 20.431 30.66 45.236 57.59 74 80.6 38.45 30.76 82.839 54.42 129 71.35 70.168 25.72 142.17 31.86 216 35.09 175.619 7.69 351.52-27.24 517-84.7 77.91-27.05 152.46-62.06 226-99.09 31.26-15.74 72.93-31.69 95.54-59.25 18.57-22.65 21.46-53.83 21.46-82z" fill="#034382"/></svg>