<svg xmlns="http://www.w3.org/2000/svg" version="1.1" id="Layer_1" x="0" y="0" xml:space="preserve" width="16.563" height="16.563"><style type="text/css" id="style23867"></style><path id="path23893" d="M14.943 5.601c-.265-1.322-1.61-1.995-2.813-2.25-1.05-.251-2.137-.323-3.205-.437.376-.576.862-1.197.81-1.955.129-.61-.244-1.284-.846-.722-.946.505-1.9 1.393-1.85 2.551-.489.385-1.324.186-1.935.408-1.245.246-2.705.64-3.305 1.884-.575 1.216.063 2.589.83 3.56.41.648.237 1.561.612 2.268.67 1.956 2.032 3.61 3.665 4.85.54.485 1.345 1.16 2.053.562 1.902-1.39 3.696-3.151 4.415-5.458.37-.726.1-1.687.627-2.304.62-.835 1.145-1.89.942-2.957zm-6.942-3.13c.067-.577.62-1.565 1.125-1.514-.153.653-.477 1.372-1.089 1.694-.06-.037-.031-.127-.036-.18zm5.41 4.297c-.407.736-1 1.553-.705 2.435.202 1.26-.47 2.438-1.056 3.503-.784 1.262-1.782 2.464-3.14 3.13-.814.126-1.308-.75-1.775-1.276-1.162-1.53-1.913-3.573-1.302-5.479.493-1.08 1.799-1.444 2.894-1.512.935-.047 1.886-.05 2.8.18.656-.25-.605-.705-.919-.718-1.6-.257-3.222-.023-4.825.047-.667.002-1.486-.351-1.516-1.116-.124-.964.778-1.631 1.612-1.85 2.252-.648 4.733-.544 6.91.326.735.29 1.418 1.038 1.176 1.88a2.359 2.359 0 01-.154.45z" fill="#0077c7" fill-opacity="1"/></svg>