<svg xmlns="http://www.w3.org/2000/svg" xml:space="preserve" viewBox="0 0 46.82 45.199"><defs><clipPath id="a" clipPathUnits="userSpaceOnUse"><path d="m 0,350 h 612 v 92 H 0 Z" /></clipPath></defs><g clip-path="url(#a)" transform="matrix(1.25 0 0 -1.25 -232.19 517.68)"><path fill="#cfb87c" d="M212.812 405.031v4.153l-4.948 4.96h-17.147l-4.965-4.957v-17.118l4.965-4.954h5.446v-4.166l5.004-4.964h14.469l5.017 4.956v13.26h2.555v8.829h-10.395"/><path d="m207.652 413.63 4.645-4.658v-4.455h10.395v-7.802h-2.555V383.16l-4.712-4.656h-14.048l-4.7 4.657v4.467h-5.749l-4.662 4.657v16.688l4.662 4.659h16.724"/><path fill="#fff" d="M191.461 388.912h6.502v-5.217l3.943-3.908h12.991l3.954 3.908v14.307h2.557v5.228h-7.842v-18.22H203.19v3.904h3.927l3.897 3.903v5.186h-5.227v-3.875h-2.597v9.103h-7.82v-5.228h2.593v-3.875h-5.196v13.039h13.02v-3.936h5.227v5.207l-3.897 3.907H191.46l-3.91-3.905v-15.623l3.91-3.903"/><path fill="#cfb87c" d="M202.545 389.556h4.305l3.52 3.524v4.278h-3.94v-3.873h-3.885v9.1h-6.532v-3.941h2.594v-5.159h-6.482v14.323h14.306v-3.935h3.939v4.3l-3.52 3.527h-15.122l-3.534-3.528V393.08l3.533-3.524h6.88v-5.592l3.565-3.536h12.46l3.577 3.538v14.677h2.554v3.942h-6.554v-18.217h-11.664v5.188"/></g></svg>