<svg xmlns="http://www.w3.org/2000/svg" viewBox="0 0 33.3 29.02"><path fill="#1D4F91" d="M33.2 11.98a4.38 4.38 0 0 0-4.04-3.64c-3.62-.3-6.75 1.65-10.27 2.27-.28.05-.66-.55-1-.9 1.63-1.22 1.41-3.63-.48-4.67a4.2 4.2 0 0 1 0-1.6c.15-.13 1.35.1 1.52-.05.18-.15.14-1.6.03-1.73-.1-.14-1.47 0-1.54-.08-.08-.1.04-1.4-.1-1.5-.08-.07-.46-.08-.67-.08-.21 0-.59 0-.68.08-.13.1-.01 1.4-.09 1.5-.07.09-1.43-.06-1.54.08-.11.14-.14 1.58.03 1.73.17.15 1.37-.08 1.53.05.07.06.12 1.45-.01 1.6-1.9 1.04-2.11 3.45-.48 4.68-.34.34-.72.94-1 .89-3.52-.62-6.65-2.56-10.27-2.27A4.38 4.38 0 0 0 .1 11.98c-.64 3.7 2.02 6.54 3.3 9.67.41 1 .77 2.33.7 3.47H29.2c-.06-1.14.3-2.48.7-3.47 1.3-3.13 3.95-5.97 3.31-9.67m-18.05 8.18c-.33 1.86-1.36 3.04-2.21 3.04-.57 0-1.02-.2-1.43-.57-.56-.49-1.02-1.3-.87-1.78.12-.16 1.64.07 1.75-.08.1-.15-.19-1.34-.36-1.5-.17-.14-1.54.06-1.73-.1-.18-.14-.35-1.61-.54-1.7 0 0-1.45-.22-1.56-.01-.1.2.5 1.43.4 1.64-.11.21-2.03-.18-2.07.03-.03.22.11 1.3.3 1.46.18.16 1.98.17 1.98.17.37.29.47.86.47 1.46 0 .75-.58 1.14-1.51.88-1.74-.5-3.9-4.26-5.18-6.87-.94-1.92-1.5-5.06.97-6 1.5-.58 3.08-.25 4.7.23 1.69.5 3.93 1.18 5.24 2 .33.2-.38.04.79 2.63.54 1.21 1.09 3.78.86 5.07m10.38 2.94c-.93.26-1.51-.13-1.51-.88 0-.6.1-1.17.47-1.46 0 0 1.8-.01 1.98-.17.19-.16.33-1.24.3-1.46-.04-.21-1.96.18-2.06-.03-.1-.2.5-1.43.39-1.64-.11-.2-1.56 0-1.56 0-.19.1-.36 1.57-.54 1.72-.19.15-1.56-.06-1.73.1-.17.15-.47 1.34-.36 1.49.1.15 1.63-.08 1.76.08.14.48-.32 1.29-.88 1.78-.41.36-.86.58-1.43.57-.85 0-1.88-1.18-2.21-3.04-.23-1.3.32-3.86.86-5.07 1.17-2.59.46-2.43.79-2.63 1.31-.82 3.55-1.5 5.25-2 1.61-.48 3.2-.8 4.7-.23 2.46.94 1.9 4.08.96 6-1.28 2.6-3.44 6.38-5.18 6.87M16.51 29.02H29.5v-2.18H3.81v2.18z"/></svg>
