<svg xmlns="http://www.w3.org/2000/svg" fill-rule="evenodd" stroke-linejoin="round" stroke-miterlimit="2" clip-rule="evenodd" viewBox="0 0 858 983"><path fill="#06f" d="M844.3 235.609 442.51 3.636a27.144 27.144 0 0 0-27.142 0l-81.059 46.8c-12.982 7.495-17.429 24.094-9.935 37.076l255.436 442.43a27.145 27.145 0 0 0 23.506 13.571H830.73c14.99 0 27.141-12.152 27.141-27.142V259.115a27.146 27.146 0 0 0-13.571-23.506M830.73 602.32H319.855a27.145 27.145 0 0 0-23.506 13.57L182.644 812.836c-7.497 12.982-3.048 29.581 9.934 37.076l222.79 128.628a27.14 27.14 0 0 0 27.142 0L844.3 746.567a27.145 27.145 0 0 0 13.571-23.506v-93.599c0-14.991-12.151-27.142-27.141-27.142M387.15 313.861 273.444 116.917c-7.494-12.982-24.094-17.431-37.075-9.936L13.578 235.609a27.145 27.145 0 0 0-13.57 23.506v463.947a27.144 27.144 0 0 0 13.57 23.506l81.059 46.799c12.982 7.495 29.582 3.047 37.077-9.935L387.15 341.003a27.14 27.14 0 0 0 0-27.142"/></svg>
