<svg xmlns="http://www.w3.org/2000/svg" fill-rule="evenodd" stroke-miterlimit="10" clip-rule="evenodd" width="149.877" height="149.877"><g fill-rule="nonzero"><path fill="#ed1c24" stroke="#fff" stroke-width="11" d="M123.901 130.167V6.29L25.975 19.466v124.107z"/><path fill="#ed1c24" d="M123.901 130.167V6.29L25.975 19.466v124.107z"/><path fill="#fff" d="M116.787 114.277H95.965l-.043-40.4c.09-2.197-.394-4.336-2.787-5.665-2.374-1.164-5.404-.594-6.675.786-.75.914-1.11 1.997-1.104 2.99l-.023 42.29h.044-20.96v-40.38c.1-2.34-.412-4.328-2.813-5.67-2.356-1.16-5.505-.722-6.765.65-.999 1.102-1.009 2.132-1.009 3.124l-.008 42.275c-.28.01-20.489 0-20.76 0V52.459h20.73s0 4.586.005 4.844c.803-.727.912-.706 1.67-1.358 1.305-1.118 2.388-1.786 3.836-2.64 1.038-.62 1.937-.82 2.955-1.178 5.823-1.84 12.782-1.58 17.716 2.166 1.087 1.085 2.228 2.283 3.016 3.4.827-.79.928-1.035 1.44-1.35 3.772-3.13 8.624-5.208 13.97-5.345 6.45-.588 13.621 1.682 16.541 7.54 1.246 2.55 2.03 4.874 1.82 8.493zM42.587 26.05c.175 1.457.243 2.705-.469 4.06-.79 1.507-2.186 2.306-3.84 2.533-3.133.43-5.617-1.404-6.036-4.535-.447-3.245 1.446-5.658 4.663-6.105 2.042-.282 3.763.43 4.88 2.18l-2.322 1.36c-.487-.907-1.322-1.436-2.372-1.29-1.698.236-2.367 1.985-2.154 3.502.21 1.54 1.352 2.993 3.055 2.753 1.12-.152 1.903-.85 1.856-2.013l-2.129.29-.269-2.041zm9.076-1.194l.25-.04c.838-.11 1.776-.405 1.63-1.485-.143-1.076-1.124-1.108-1.968-.99l-.265.033zm6.457 4.71l-3.228.452-2.984-3.503h-.01l.525 3.84-2.598.354-1.367-9.965 3.87-.524c1.972-.277 3.592.45 3.902 2.583.16 1.375-.424 2.672-1.808 3.113zM71.372 17.59l.771 5.61c.174 1.28.3 2.552-.563 3.66-.714.932-1.972 1.39-3.157 1.559-1.16.17-2.506.05-3.455-.658-1.106-.824-1.34-2.08-1.53-3.373l-.77-5.59 2.594-.368.723 5.25c.186 1.292.468 2.696 2.126 2.46 1.676-.224 1.563-1.653 1.39-2.945l-.718-5.242zm10.135 3.265l.443-.057c.94-.14 1.864-.256 1.695-1.48-.163-1.26-1.034-1.153-2.04-1.014l-.427.065zm-3.214-4.218l3.972-.542c2.141-.304 3.75.488 4.064 2.77.324 2.366-.806 3.556-3.053 3.878l-1.478.19.467 3.313-2.595.36zm15.4 8.03l2.583-.352-.454-3.3 1.463-.208c2.262-.315 3.381-1.524 3.06-3.87-.303-2.29-1.914-3.067-4.065-2.778l-3.96.55zm1.502-8.242l.435-.054c1.008-.13 1.874-.246 2.031 1.004.177 1.23-.742 1.358-1.69 1.496l-.422.055zM111.3 11.76c-2.859.386-5.209 2.864-4.814 5.888.454 3.21 3.081 5.162 6.274 4.737 3.201-.448 5.202-3.043 4.755-6.264-.41-3.016-3.344-4.765-6.215-4.36m.342 2.506c1.548-.22 2.994.866 3.187 2.24.234 1.713-.862 3.154-2.407 3.348-1.548.225-2.992-.86-3.238-2.585-.175-1.362.907-2.802 2.458-3.003"/></g></svg>