<svg xmlns="http://www.w3.org/2000/svg" version="1.0" width="346.667" height="346.667" viewBox="0 0 260 260"><g fill="#ce1141"><path d="M0 34.2v34.3l6.3 4c3.4 2.2 23.5 15.2 44.7 29 42.8 27.9 46 29.9 46.5 29.4.3-.4 3.5-116.6 3.5-126.7V0H0zM104 9.5c0 11.8 3 107.9 3.4 108.2.2.2 10.9-17.3 23.9-38.9 13-21.6 29-48.2 35.6-59.1L179 0h-75zM179.1 1.7c-1.4 2.8-38.6 82-51.1 109.1-6.2 13.4-11 24.6-10.6 24.9.4.4 108.3-15.4 138.9-20.4l3.7-.6V0h-40c-37 0-40 .1-40.9 1.7zM0 165.9V260h100.1l-.7-27.8c-.3-15.2-.9-35.1-1.3-44.2l-.6-16.5-18.6 29c-10.2 15.9-22.3 34.9-27 42.2-4.6 7.3-8.5 13.1-8.7 12.9-.1-.2 9.2-21.2 20.8-46.6 11.6-25.5 20.8-46.5 20.6-46.8-.5-.5-47.2 3.3-53.3 4.4-8.1 1.3-1.3-1.8 23-10.5 14.4-5.1 27.2-9.7 28.5-10.2 2.1-.8-1.6-4.2-38.5-36.1C21.8 90.4 2.7 73.9 1.7 73.1.1 71.8 0 76.8 0 165.9zM190 135.4c-37.1 8.9-68.1 16.5-68.8 16.7-.7.2 10.2 10.9 24.5 23.9 29.4 26.9 71.5 65.4 81.8 74.9 8.9 8.3 5.8 6.3-20-12.8-11.5-8.5-36.1-26.5-54.5-39.9-18.4-13.5-36.1-26.5-39.3-29-3.2-2.4-6-4.2-6.2-4-.2.2-1.1 18.3-1.9 40.3-.9 22-1.8 43.3-2 47.2l-.4 7.3H260v-70.5c0-55.8-.3-70.5-1.2-70.4-.7 0-31.7 7.3-68.8 16.3z"/></g></svg>