<svg xmlns="http://www.w3.org/2000/svg" fill="#ce1141" viewBox="0 0 100 98.9"><path d="M33.4 0a5 5 0 0 0-2.3.4c-1.7.8-2.8 2.6-3.5 5.5a106.7 106.7 0 0 1-4.7 15 18 18 0 0 1-6.8 8.7c-6.6 4.2-17.5 13-16 25A21.1 21.1 0 0 0 14.4 71a16 16 0 0 0 4 2.3l1.9 1c2.7 2.5 4.7 6.2 6 11.1 2 7 6.1 11.6 11.7 13.1 1.3.4 2.6.5 3.9.5 5.7 0 12-3 17.9-9a34 34 0 0 1 6-4.8l.8-.4.4-.2 4.2-1.7a48 48 0 0 1 3.6-1l4-.3c3.5-.3 7-.5 11.1-2.1 5-2 8.3-4.7 9.5-8.4 2.4-6.6-1.8-14.6-6.8-23V48c-.5-1.1-1-2.3-1.7-3.5a22 22 0 0 1-.8-11.2c1.3-8.6-1-16.5-6-21-3.3-3-9.4-6-19.5-3.4-8.3 2.1-16-2-22-5.2a25.2 25.2 0 0 0-9-3.6Zm-.8 1.5c2.2-.2 5.5 1.5 9.1 3.4 3.8 2 8.1 4.3 12.9 5.4a46 46 0 0 1-12.3-2.5c-5.5-1.6-10.5-3-13.7.2l.4-1.7c.6-2.5 1.5-4 2.7-4.5l.9-.3zm1.1 6c2.3 0 5 .8 8.1 1.8 2.5.7 5 1.5 7.8 2-2 0-4 0-6-.2-7-.2-13-.5-17 4.5l1-3.1c1.4-3.8 3.4-5 6.1-5zm39 1.8a16 16 0 0 1 10.3 4c4.7 4.2 6.7 11.6 5.5 19.7-.3 2-.4 3.8-.3 5.5a35 35 0 0 1-2.3-9c-.9-7.3-4-13.3-9-16.8-2.3-1.7-5-2.8-7.9-3.2 1.3-.2 2.6-.3 3.7-.2zm-8.2 1.4A18 18 0 0 1 76 13.9a22 22 0 0 1 8.4 15.8l.2 1.5-1-1.8-1.9-3.6a25.4 25.4 0 0 0-19-15l1.8-.1zM59 12c8 0 14.7 4 19.4 11l-1-1c-6-5.6-13.5-8.8-21.1-9.8l2.7-.1zm-20.9.4a84.7 84.7 0 0 1 5.9.2A37.8 37.8 0 0 0 23.7 24l-.4.4 3-5.7c2.6-5 6.7-6 11.8-6.2zm13.4.9a36.4 36.4 0 0 1 18 68.1 36.7 36.7 0 0 1-42.8-5 36.4 36.4 0 0 1 24.8-63.1ZM18.6 29.6c-1 1.7-2 3-3.1 4-7.7 7.7-11.2 16.2-9.8 24a20 20 0 0 0 4.8 9.9c-4.8-3-8.2-7.8-8.9-13C.6 46.2 6 37.8 17 30.9l1.7-1.3zm-2 5.1-1.7 3c-6.7 11.3-6.2 23.5.8 32.1l-.6-.2a19 19 0 0 1-8-12.2C5.8 50 9.1 42 16.5 34.7zm-2.3 7.5a38 38 0 0 0 7.5 31.3A24 24 0 0 1 12 59a27 27 0 0 1 2.2-16.8zm75 3.4c2.6 8.2 4.4 21.6-7.4 30.1a33.8 33.8 0 0 1-6.7 3.8 38.2 38.2 0 0 0 14-34zM92 51c5 12.7 2.9 21-6.5 25.9a28 28 0 0 1-6.6 2.4 32 32 0 0 0 3.8-2.3c10-7.3 10.8-17.7 9.3-26zm3.4 5.6c2.5 5.1 3.8 10 2.4 14-1.1 3.2-4 5.6-8.6 7.4-2.1.8-4 1.2-6 1.5l3-1.3c6.6-3.5 10-8.7 10-15.5 0-2-.3-4-.8-6.1zM25.2 78.5c1.6 1.8 3 4 4.3 6.5a17.1 17.1 0 0 0 15.3 10.2 21 21 0 0 0 8.8-2c-5.3 3.7-10.6 5-15.3 3.8-5-1.4-8.8-5.6-10.6-12-.7-2.5-1.5-4.7-2.5-6.5zm3.7 2.4a57 57 0 0 1 3.8 3.9A20 20 0 0 0 48 91.5c2.7 0 5.5-.5 8.3-1.5-5 3.2-10 4.4-14.7 3.4-4.6-1-8.4-4.2-10.7-9-.6-1.3-1.2-2.4-2-3.5zm4.3 2.2A38 38 0 0 0 59 87c-9 5-18.9 3.7-25-3.3l-.7-.7z"/></svg>
