<svg xmlns="http://www.w3.org/2000/svg" viewBox="0 0 85.945 85.031" fill="#ce1141" fill-opacity=".941" fill-rule="evenodd"><path d="M12.968 59.829c5.337 1.696 8.887 6.003 10.853 13.165 1.516 5.522 4.744 9.2 9.089 10.359 5.313 1.416 11.519-1.053 17.475-6.953 7.001-6.935 11.961-7.284 17.213-7.655 2.825-.2 5.747-.405 9.14-1.7 4.02-1.536 6.447-3.635 7.423-6.417 1.816-5.18-1.674-11.786-5.729-18.667-2.461-4.176-3.166-8.247-2.357-13.613 1.053-6.987-.727-13.327-4.763-16.958-3.742-3.367-9.124-4.268-15.563-2.605-7.608 1.965-14.42-1.65-19.895-4.555-3.597-1.91-6.705-3.558-8.6-2.702-1.047.474-1.801 1.738-2.303 3.865C21.569 19.715 18.564 24 14.514 26.563 5.142 32.495.488 39.69 1.41 46.82c.753 5.822 5.399 11.05 11.559 13.009m22.96 25.201c-1.143 0-2.263-.143-3.352-.433-4.807-1.281-8.36-5.281-10.001-11.264-1.842-6.707-5.113-10.724-10-12.277C5.946 58.948.944 53.294.129 46.985c-1.335-10.33 8.007-17.91 13.694-21.51 3.673-2.325 6.605-6.544 9.87-20.378.601-2.542 1.59-4.093 3.028-4.743 2.475-1.118 5.68.583 9.74 2.737 5.276 2.8 11.843 6.286 18.965 4.446 8.69-2.244 13.906.336 16.75 2.896 4.36 3.922 6.294 10.691 5.176 18.108-.762 5.049-.105 8.866 2.193 12.767 4.215 7.152 7.834 14.045 5.835 19.746-1.094 3.118-3.846 5.538-8.181 7.194-3.572 1.365-6.59 1.577-9.51 1.783-5.006.352-9.734.686-16.395 7.284-5.107 5.06-10.447 7.716-15.365 7.716"/><path d="M28.994 6.457c-2.361 0-4.098 1.062-5.22 4.265-3.891 11.095-6.302 15.922-9.555 19.132-6.326 6.243-9.197 13.159-8.085 19.475.948 5.389 4.643 9.928 10.136 12.453 4.402 2.024 7.745 5.537 10.22 10.74 1.964 4.131 5.232 6.884 9.2 7.75 4.827 1.05 10.294-.717 15.395-4.982 5.527-4.62 9.859-5.559 14.047-6.466 2.788-.604 5.422-1.174 8.45-2.76 9.224-4.832 10.277-13.517 3.312-27.331-1.905-3.804-3.75-8.035-4.358-13.218-.698-5.942-3.25-10.766-7.187-13.583-3.702-2.649-8.357-3.4-13.838-2.232-5.708 1.217-10.944-.35-15.565-1.733-2.73-.817-5.045-1.51-6.952-1.51m9.489 75.4a14.34 14.34 0 0 1-3.068-.326c-4.368-.954-7.952-3.957-10.092-8.456-2.34-4.92-5.477-8.23-9.594-10.123-5.796-2.664-9.859-7.674-10.867-13.4-1.187-6.745 1.813-14.066 8.45-20.614 3.093-3.053 5.426-7.758 9.243-18.641 2.438-6.954 7.685-5.384 13.761-3.565 4.473 1.338 9.542 2.856 14.925 1.707 5.769-1.23 10.907-.384 14.86 2.445 4.236 3.031 6.976 8.174 7.717 14.482.584 4.984 2.379 9.092 4.23 12.789 3.153 6.252 4.681 11.393 4.673 15.716-.01 5.885-2.883 10.372-8.54 13.334-3.182 1.667-6.025 2.284-8.775 2.879-4.222.914-8.21 1.778-13.492 6.194-4.376 3.66-9.043 5.58-13.431 5.58"/><path d="M22.573 16.08c-1.976 3.657-3.473 6.77-4.794 9.517-1.373 2.855-2.56 5.322-3.862 7.506-3.48 5.831-4.685 11.91-3.487 17.577 1.125 5.32 4.375 9.962 9.15 13.072 3.422 2.229 6.624 5.005 9.517 8.253 5.644 6.334 14.565 7.18 22.724 2.157 3.488-2.148 6.512-3.321 9.435-4.455 3.134-1.216 6.093-2.363 9.158-4.604 12.097-8.844 7.489-23.646 4.945-29.6-1.232-2.904-2.641-5.633-4.133-8.524a262.72 262.72 0 0 1-2.166-4.257c-4.477-9.074-12.424-13.485-21.8-12.107-3.433.506-6.7.377-9.861.252-6.57-.26-11.758-.463-14.826 5.213m18.573 62.57c-4.956 0-9.602-1.96-13.014-5.79-2.817-3.162-5.931-5.863-9.258-8.03C8.108 57.818 5.613 44.5 12.807 32.442c1.274-2.134 2.448-4.576 3.808-7.404 1.327-2.76 2.831-5.887 4.822-9.571 3.45-6.384 9.272-6.155 16.013-5.89 3.101.124 6.308.25 9.622-.238 9.968-1.469 18.404 3.203 23.147 12.812l2.154 4.237c1.438 2.784 2.924 5.663 4.175 8.61 2.663 6.236 7.473 21.755-5.37 31.144-3.202 2.34-6.24 3.518-9.454 4.766-2.87 1.113-5.837 2.264-9.225 4.35-3.694 2.274-7.612 3.392-11.353 3.392"/><path d="M44.289 11.518c-8.411 0-16.8 3.345-22.97 9.96-11.791 12.637-11.085 32.496 1.575 44.266 6.034 5.61 13.714 8.387 21.373 8.387 8.412.001 16.8-3.345 22.97-9.96 11.792-12.637 11.086-32.496-1.574-44.266-6.034-5.61-13.715-8.387-21.374-8.387m-.022 63.902c-7.975 0-15.97-2.89-22.253-8.732-13.181-12.255-13.916-32.931-1.64-46.09s32.988-13.892 46.168-1.636 13.917 32.93 1.64 46.088c-6.424 6.886-15.159 10.37-23.915 10.37"/></svg>