<svg xmlns="http://www.w3.org/2000/svg" xmlns:xlink="http://www.w3.org/1999/xlink" version="1.1" id="Layer_1" x="0" y="0" xml:space="preserve" width="40" height="40"><style type="text/css" id="style16173">.st0{clip-path:url(#SVGID_2_)}.st6{fill:#a1cee6}.st7{opacity:.1}</style><g id="g16254" transform="translate(-.8)"><defs id="defs16176"><circle id="SVGID_1_" cx="20.8" cy="20" r="20"/></defs><clipPath id="SVGID_2_"><use xlink:href="#SVGID_1_" id="use16178" x="0" y="0" width="100%" height="100%" overflow="visible"/></clipPath><g class="st0" clip-path="url(#SVGID_2_)" id="g16210"><g id="g16198"><linearGradient id="SVGID_3_" gradientUnits="userSpaceOnUse" x1="20.923" y1="40.754" x2="20.923" y2="-2.197"><stop offset="0" id="stop16181" stop-color="#29b386"/><stop offset=".272" id="stop16183" stop-color="#2bae8c"/><stop offset=".632" id="stop16185" stop-color="#30a09d"/><stop offset="1" id="stop16187" stop-color="#378bb5"/></linearGradient><path id="rect16190" fill="url(#SVGID_3_)" d="M-.6-2.2h43v43h-43z"/><radialGradient id="White_Radial_gradient_3_" cx="20.753" cy="19.334" r="21.476" gradientUnits="userSpaceOnUse"><stop offset="0" id="stop16192" stop-color="#fff" stop-opacity=".38"/><stop offset="1" id="stop16194" stop-color="#fff" stop-opacity="0"/></radialGradient><path id="White_Radial_gradient_1_" fill="url(#White_Radial_gradient_3_)" d="M-.7-2.1h43v43h-43z"/></g><g id="g16208"><g id="g16206"><defs id="defs16201"><path id="SVGID_4_" d="M7.5-2.2h27.1c4.4 0 7.9 3.5 7.9 7.9v27.1c0 4.4-3.5 7.9-7.9 7.9H7.5c-4.4 0-7.9-3.5-7.9-7.9V5.7c0-4.4 3.6-7.9 7.9-7.9z"/></defs><clipPath id="SVGID_5_"><use xlink:href="#SVGID_4_" id="use16203" x="0" y="0" width="100%" height="100%" overflow="visible"/></clipPath></g></g></g><g class="st0" clip-path="url(#SVGID_2_)" id="g16252"><defs id="defs16213"><path id="White_Radial_gradient_2_" d="M-.6-2.2h43v43h-43z"/></defs><clipPath id="White_Radial_gradient_4_"><use xlink:href="#White_Radial_gradient_2_" id="use16215" x="0" y="0" width="100%" height="100%" overflow="visible"/></clipPath><g clip-path="url(#White_Radial_gradient_4_)" id="g16250"><path d="M30.2 2.2c-.3.4-7 9-7 9L23 9.6c-.1-.9-.6-4.9-.8-6.5-1.1.1-9.1 1-10.3 1.2.3 1.3 3.2 13.7 3.2 13.7l-.3.3s-18 18.1-20.7 20.8c3.2-.6 14.2-2.5 14.6-2.6.4-.5 8.9-10.5 8.9-10.5s1.4 7.4 1.6 8.5c1.1-.2 8.7-1.6 9.8-1.8-.2-1.2-2.8-14.2-2.8-14.2l18-18c-3 .4-13.5 1.6-14 1.7z" id="path16218" opacity=".26" fill="#fff"/><g id="g16226" opacity=".26"><path class="st6" d="M23.7 7.7l.2 1.6s.5-.6 1.1-1.5c-.2-1.5-.2-1.9-.3-3.2-.2 0-.7.1-1.3.2.2 1.8.2 2.1.3 2.9z" id="path16220"/><path class="st6" d="M17.3 28.1s-7.2 8.6-7.5 8.9c-.3.1-7.3 1.3-11.8 2.1l-1.4 1.4c3.2-.6 14.2-2.5 14.6-2.6.2-.3 4.1-5 6.4-7.7-.1-1.2-.3-2.1-.3-2.1z" id="path16222"/><path class="st6" d="M46.7 2.1c-.7 0-1.6.1-2.7.3L27.2 19.2s2.6 13 2.8 14.2c-.9.2-6 1.1-8.6 1.5.1.5.2.9.2 1.1 1.1-.2 8.7-1.6 9.8-1.8-.2-1.1-2.7-14.2-2.7-14.2s15.6-15.6 18-17.9z" id="path16224"/></g><g class="st7" id="g16234"><path d="M23 9.6l.2 1.6.1-.1-.3-1.5c0-.8-.5-4.8-.7-6.4h-.1c.3 1.7.7 5.5.8 6.4z" id="path16228"/><path d="M44.3.7h-.2c-2.8 2.8-17.9 17.8-17.9 17.8s2.6 13 2.8 14.2c-1.1.2-8.4 1.5-9.7 1.7v.1c1.1-.2 8.7-1.6 9.8-1.8-.2-1.2-2.8-14.2-2.8-14.2S41.9 3 44.3.7z" id="path16230"/><path d="M17.6 26S9.1 36 8.8 36.4c-.4.1-10.9 2-14.4 2.6l-.1.1c3.2-.6 14.2-2.5 14.6-2.6.3-.3 7.9-9.4 8.7-10.3V26z" id="path16232"/></g><g class="st7" id="g16242"><path d="M24.8 4.7c.1 1.3 0 1.7.2 3.1-.5.7-.9 1.2-1 1.4v.2s.5-.6 1.1-1.5C25 6.4 25 6 24.8 4.7z" id="path16236"/><path d="M17.4 28.1s0 .1 0 0c0 .4.1 1.1.3 2.1-2.3 2.7-6.2 7.4-6.4 7.7-.4.1-11 2-14.4 2.6l-.1.1C0 40 11 38 11.4 38c.2-.3 4.1-5 6.4-7.7-.2-1.3-.4-2.2-.4-2.2z" id="path16238"/><path d="M46.8 2.1h-.2C44 4.8 28.7 20 28.7 20s2.6 13 2.8 14.2c-1.1.2-8.4 1.5-9.7 1.7v.1c1.1-.2 8.7-1.6 9.8-1.8C31.4 33 28.8 20 28.8 20s15.6-15.5 18-17.9z" id="path16240"/></g><g id="g16248" opacity=".6"><g id="g16246"><path d="M30.3 2.3c-.3.4-7 9-7 9l-.2-1.6c-.1-.9-.6-4.9-.8-6.5-1.1.1-9.1 1-10.3 1.2.3 1.3 3.2 13.7 3.2 13.7l-.3.3s-18 18.1-20.7 20.8c3.2-.6 14.2-2.5 14.6-2.6.3-.4 8.8-10.4 8.8-10.4s1.4 7.4 1.6 8.5c1.1-.2 8.7-1.6 9.8-1.8-.2-1.2-2.8-14.2-2.8-14.2l18-18c-2.9.3-13.5 1.5-13.9 1.6z" id="path16244" fill="#fff"/></g></g></g></g></g></svg>