<svg xmlns="http://www.w3.org/2000/svg" xml:space="preserve" style="enable-background:new 0 0 792 612" viewBox="0 0 792 612"><path d="M276.1 297.9c-1.4 5.5-6.3 9.7-12.7 9.7-7.8 0-13.2-6.1-13.2-13.1 0-7.3 5.6-13.1 13-13.1 6.2 0 11.4 3.9 12.9 9.9h-6c-1-2.6-3.4-4.4-6.6-4.4-2.2 0-3.8.7-5.3 2.1-1.3 1.3-2 3.3-2 5.5 0 4.4 3.1 7.6 7.3 7.6 3.7 0 5.7-2.2 6.6-4.2h6zm3.1-3.4c0-6.3 4.6-13 13.2-13s13.2 6.7 13.2 13c0 6.4-4.6 13.1-13.2 13.1s-13.2-6.7-13.2-13.1zm5.9.1c0 4.3 3.3 7.5 7.3 7.5s7.3-3.2 7.3-7.5-3.2-7.5-7.3-7.5c-4.1-.1-7.3 3.1-7.3 7.5zm24.5-12.3h5.5v3.1c.5-1.1 2.9-3.9 7.2-3.9 2 0 4.3.6 6.1 2.5.5.6 1.2 1.6 1.5 2.2.4-.8 1-1.6 1.8-2.3 1.5-1.4 3.7-2.4 6.3-2.4 2.1 0 4.7.5 6.6 2.5 2.2 2.3 2.7 4.4 2.7 9.4v13.5h-5.9v-13.3c0-1.6-.1-3.3-1-4.6-.6-1.2-1.8-2-3.9-2s-3.5.9-4.3 2.2-.9 2.6-.9 4.1v13.5h-5.9v-13.5c0-1.4-.1-2.8-.8-4.1-.7-1.3-1.9-2.2-4-2.3-2.2 0-3.5 1-4.2 2.3-.7 1.3-.9 2.8-.9 4.3v13.3h-5.9v-24.5zm42.3 0h5.5v3.1c.5-1.1 2.9-3.9 7.2-3.9 2 0 4.3.6 6.1 2.5.5.6 1.2 1.6 1.5 2.2.4-.8 1-1.6 1.8-2.3 1.5-1.4 3.7-2.4 6.3-2.4 2.1 0 4.7.5 6.6 2.5 2.2 2.3 2.7 4.4 2.7 9.4v13.5h-5.9v-13.3c0-1.6-.1-3.3-1-4.6-.6-1.2-1.8-2-3.9-2s-3.5.9-4.3 2.2-.9 2.6-.9 4.1v13.5h-5.9v-13.5c0-1.4-.1-2.8-.8-4.1-.7-1.3-1.9-2.2-4-2.3-2.2 0-3.5 1-4.2 2.3-.7 1.3-.9 2.8-.9 4.3v13.3h-5.9v-24.5zm41.9 12.2c0-6.3 4.6-13 13.2-13s13.2 6.7 13.2 13c0 6.4-4.6 13.1-13.2 13.1s-13.2-6.7-13.2-13.1zm5.8.1c0 4.3 3.3 7.5 7.3 7.5s7.3-3.2 7.3-7.5-3.2-7.6-7.2-7.6c-4.1 0-7.4 3.2-7.4 7.6zm24.7-12.3h5.5v3.3c1.1-1.9 3.3-4.1 7.7-4 8 0 9.6 6.2 9.6 10.5V307h-5.9v-13.4c0-3.7-1.2-6.5-5.3-6.5-4.2 0-5.6 2.8-5.6 6.3V307h-5.9v-24.7zm-34.8 60.2h-5.9V339c-1.6 2.9-4.8 4.3-8.3 4.3-7.9 0-12.5-6.1-12.5-13.1 0-7.8 5.6-13.1 12.5-13.1 4.5 0 7.2 2.4 8.3 4.4v-3.6h5.9v24.6zm-20.8-12.2c0 3.1 2.2 7.5 7.5 7.5 3.3 0 5.4-1.7 6.6-3.9.6-1.1.9-2.2.9-3.5 0-1.2-.2-2.4-.7-3.5-1-2.3-3.3-4.4-6.9-4.4-4.7 0-7.4 3.9-7.4 7.8zm25.6-12.5h5.5v3.6c1.8-2.5 4.6-4.4 8.7-4.4 8.6 0 12.3 7.3 12.3 13.3 0 7-5 12.9-12.2 12.9-4.8 0-7.4-2.5-8.4-4v16.2h-5.9v-37.6zm20.6 12.3c0-3.5-2.6-7.6-7.5-7.6-2.2 0-4 .9-5.3 2.2-1.3 1.3-2.1 3.3-2.1 5.4 0 2.1.8 4 2.2 5.3s3.2 2.2 5.3 2.2c4.4.1 7.4-3.4 7.4-7.5zm9.4-12.3h5.5v3.6c1.8-2.5 4.6-4.4 8.7-4.4 8.6 0 12.3 7.3 12.3 13.3 0 7-5 12.9-12.2 12.9-4.8 0-7.4-2.5-8.4-4v16.2h-5.9v-37.6zm20.6 12.3c0-3.5-2.6-7.6-7.5-7.6-2.2 0-4 .9-5.3 2.2-1.3 1.3-2.1 3.3-2.1 5.4 0 2.1.8 4 2.2 5.3s3.2 2.2 5.3 2.2c4.4.1 7.4-3.4 7.4-7.5z"/><linearGradient id="a" x1="483.17" x2="506.031" y1="379.774" y2="250.119" gradientUnits="userSpaceOnUse"><stop offset=".1" style="stop-color:#338ede"/><stop offset=".235" style="stop-color:#37a3e6"/><stop offset=".514" style="stop-color:#42d9f9"/><stop offset=".523" style="stop-color:#42dbfa"/><stop offset=".622" style="stop-color:#4bddfb"/><stop offset=".788" style="stop-color:#65e1fc"/><stop offset=".998" style="stop-color:#8fe9ff"/><stop offset="1" style="stop-color:#8fe9ff"/></linearGradient><path d="M472.7 336.4c-4.9-2.6-7-6.4-6.8-12.2.1-3.9 3.7-7.1 3.9-7.2l.5-.4 31.5 15.1c2.2 1.1 3.7 3.4 3.7 5.9V352l-32.8-15.6zm-3.2-29.3s-3.7-3.1-3.7-8.3c0-2.8.8-5.1 2.5-7.2 1.5-1.9 3.8-3.6 6.7-5 3.8-1.9 41.2-19.4 58.7-27.6v14.1c0 2.7-1.6 5.2-4 6.4l-59.6 28.1-.6-.5zm2.3-27.1c-8.7 4.3-13.3 10.9-13.3 18.9 0 6.9 3.8 11.5 5.6 13.3-1.8 1.7-5.5 6.1-5.6 11.9-.3 8.5 3.5 15.1 10.9 19l40.6 19.3c.2.1.5.2.8.2.3 0 .7-.1 1-.3.5-.3.8-.9.8-1.6v-23.1c0-5.3-3.1-10.2-7.9-12.5l-27-12.9 55-26c5-2.4 8.2-7.5 8.2-13v-22.4c0-.4 0-1.5-.8-2.1-.3-.2-.5-.2-.8-.2-.4 0-.8.2-1 .3-6.2 2.8-61.9 28.9-66.5 31.2z" style="fill-rule:evenodd;clip-rule:evenodd;fill:url(#a)"/></svg>