<svg xmlns="http://www.w3.org/2000/svg" viewBox="0 0 76.2 76.2"><path fill="#fff" d="M14.7 67.8a42 42 0 0 0-9 3L0 73.2 38.7 2.9l37.5 66.5a556 556 0 0 0-29-1.3c-9.9.2-27.6 2.5-27.9 2.5-1.6.1-3.1.3-3.1-1 0-.5.8-1.3 1-1.8 0-.6-1-.3-2.5 0z"/><path fill="#ed1c2e" d="M48.9 57.7c-12 1.4-25.3 4-25.8 4-.4 0-1.4-.5-.3-1.7.5-.5.7-1 .4-1.3l-.5-.2c-1 0-2.7.2-5.9 1.2-3.2 1.1-8.5 2.3-8.5 2.3l-3.9 7.2c1.7-.9 5-2.2 9.1-3 3.8-.8 6.5-1 6.6 0 0 .3-.3.7-.7 1-.4.5-.7.8-.7 1 0 .4.2.6.7.6.2 0 17.9-2.4 27.7-2.6 9.9-.2 25.7 1.2 25.7 1.2l-5.6-10s-8.8-.8-18.3.3z"/><path fill="#00538e" d="M46.7 46.2c4.1-.5 13.6-1.1 13.6-1.1L38.8 6.5l-24 43.6 12-2.8c6.6-1.7 3.8.6 3.3 1.4-.5.5-1.3 1.8 0 1.6z"/><path fill="#ed1c2e" d="m31.4 52.3-3.5.7c-.5 0-.7-.1-.7-.5 0-.5 2-2 .3-2.4-1-.2-1.7.2-5 1a58 58 0 0 1-9.2 1.8l-3.7 7 9.2-2.4c3.3-.9 5-1.3 6-1.4 3-.2-1.7 4 .4 3.6.2 0 11.6-2.5 22.2-3.8 9-1.2 18.4-1 18.4-1l-4-7.2s-7.2-.1-15.2 1.3z"/><path fill="#fff" d="m47.4 54.5-8.7-6-8.6 6 3.3-9.6-8.7-6h10.7l3.3-9.5L42 39h10.8L44 44.9z"/></svg>
