<svg xmlns="http://www.w3.org/2000/svg" xmlns:xlink="http://www.w3.org/1999/xlink" viewBox="0 0 64.04 64.01"><defs><linearGradient id="b" x1="13.26" x2="50.82" y1="16.24" y2="47.76" xlink:href="#a"><stop offset="0" stop-color="#ff0"/><stop offset=".27" stop-color="#fef10c"/><stop offset=".45" stop-color="#fde516"/><stop offset=".64" stop-color="#fde113"/><stop offset=".82" stop-color="#fed508"/><stop offset=".92" stop-color="#fc0"/></linearGradient><linearGradient id="c" x1="38.97" x2="50.64" y1="40.76" y2="48.06" xlink:href="#a"><stop offset=".1" stop-color="#874400"/><stop offset=".26" stop-color="#d88a00"/><stop offset=".37" stop-color="#e79d00"/><stop offset=".52" stop-color="#f2b400"/><stop offset=".7" stop-color="#fad202"/><stop offset=".9" stop-color="#fedf03"/></linearGradient><linearGradient id="d" x2="64" y1="32.01" y2="32.01" xlink:href="#a"><stop offset=".32" stop-color="#fde516"/><stop offset=".51" stop-color="#fde113"/><stop offset=".7" stop-color="#fed508"/><stop offset=".8" stop-color="#fc0"/></linearGradient><linearGradient id="e" x1="16" x2="61.26" y1="16.01" y2="61.27" xlink:href="#a"><stop offset="0" stop-color="#ff0"/><stop offset=".04" stop-color="#fffd00" stop-opacity=".96"/><stop offset=".09" stop-color="#fff800" stop-opacity=".87"/><stop offset=".17" stop-color="#fff000" stop-opacity=".71"/><stop offset=".26" stop-color="#ffe500" stop-opacity=".5"/><stop offset=".35" stop-color="gold" stop-opacity=".22"/><stop offset=".42" stop-color="#fc0" stop-opacity="0"/></linearGradient><linearGradient id="f" x1="25.52" x2="93.39" y1="43.86" y2="43.86" xlink:href="#a"><stop offset="0" stop-color="#d7851a"/><stop offset=".06" stop-color="#db8a1a"/><stop offset=".13" stop-color="#e5981a"/><stop offset=".2" stop-color="#f5ad1a"/><stop offset=".28" stop-color="#f5b01a" stop-opacity=".99"/><stop offset=".35" stop-color="#f6ba1b" stop-opacity=".94"/><stop offset=".4" stop-color="#f8ca1d" stop-opacity=".87"/><stop offset=".46" stop-color="#fbe020" stop-opacity=".76"/><stop offset=".46" stop-color="#fbe320" stop-opacity=".75"/><stop offset=".61" stop-color="#fdf4a7" stop-opacity=".48"/><stop offset=".7" stop-color="#fff" stop-opacity=".3"/></linearGradient><linearGradient id="g" x1="39.44" x2="49.79" y1="40.97" y2="47.75" xlink:href="#a"><stop offset="0" stop-color="#d7851a"/><stop offset=".29" stop-color="#efaf0b" stop-opacity=".41"/><stop offset=".49" stop-color="#fc0" stop-opacity="0"/></linearGradient><linearGradient id="h" x1="38.96" x2="53.76" y1="40.36" y2="50.95" xlink:href="#a"><stop offset=".02" stop-color="#333224"/><stop offset=".07" stop-color="#594f1d" stop-opacity=".81"/><stop offset=".21" stop-color="#b5940d" stop-opacity=".36"/><stop offset=".35" stop-color="#ecbe03" stop-opacity=".09"/><stop offset=".47" stop-color="#fc0" stop-opacity="0"/></linearGradient><linearGradient id="a" gradientUnits="userSpaceOnUse"/></defs><path fill="url(#b)" d="m32.04 0 32 32-32 32-32-32 32-32"/><path fill="url(#c)" d="M44.19 35.24 32.04 64l32-32-8.31-8.32z"/><path fill="url(#d)" d="m32 .01 32 32-32 32-32-32 32-32"/><path fill="url(#e)" d="m32 .01 32 32-32 32-32-32 32-32"/><path fill="url(#f)" d="M44.15 35.25 32 64.01l32-32-8.31-8.31z"/><path fill="url(#g)" d="M44.15 35.25 32 64.01l32-32-8.31-8.31z" style="mix-blend-mode:multiply"/><path fill="url(#h)" d="M44.15 35.25 32 64.01l32-32-8.31-8.31z" opacity=".7" style="mix-blend-mode:multiply"/></svg>