<svg xmlns="http://www.w3.org/2000/svg" viewBox="0 0 82.42 114.1"><linearGradient id="a" x1="24.69" x2="47.55" y1="131.27" y2="1.62" gradientUnits="userSpaceOnUse"><stop offset=".1" stop-color="#338ede"/><stop offset=".23" stop-color="#37a3e6"/><stop offset=".51" stop-color="#42d9f9"/><stop offset=".52" stop-color="#42dbfa"/><stop offset=".62" stop-color="#4bddfb"/><stop offset=".79" stop-color="#65e1fc"/><stop offset="1" stop-color="#8fe9ff"/><stop offset="1" stop-color="#8fe9ff"/></linearGradient><path fill="url(#a)" d="M14.22 87.9c-4.9-2.6-7-6.4-6.8-12.2.1-3.9 3.7-7.1 3.9-7.2l.5-.4 31.5 15.1c2.2 1.1 3.7 3.4 3.7 5.9v14.4zm-3.2-29.3s-3.7-3.1-3.7-8.3c0-2.8.8-5.1 2.5-7.2 1.5-1.9 3.8-3.6 6.7-5 3.8-1.9 41.2-19.4 58.7-27.6v14.1c0 2.7-1.6 5.2-4 6.4l-59.6 28.1zm2.3-27.1C4.62 35.8.02 42.4.02 50.4a19 19 0 0 0 5.6 13.3c-1.8 1.7-5.5 6.1-5.6 11.9-.3 8.5 3.5 15.1 10.9 19l40.6 19.3c.2.1.5.2.8.2.3 0 .7-.1 1-.3.5-.3.8-.9.8-1.6V89.1c0-5.3-3.1-10.2-7.9-12.5l-27-12.9 55-26c5-2.4 8.2-7.5 8.2-13V2.3c0-.4 0-1.5-.8-2.1-.3-.2-.5-.2-.8-.2-.4 0-.8.2-1 .3-6.2 2.8-61.9 28.9-66.5 31.2z"/></svg>