<svg xmlns="http://www.w3.org/2000/svg" viewBox="0 0 32.47 32.47"><circle cx="16.24" cy="16.24" r="16.24" fill="#cc092f"/><path fill="#fff" d="M30.54 20.62c-1.86-.74-3.56-.49-5.26.54 0 0-.62.38-.81.5-.79.5-1.54.97-2.26.97s-1.36-.18-1.65-1.51c-.45-2.07-1.53-7.17-2.01-9.69-.28-1.48-.43-2.28-.59-2.82-.28-.95-.79-1.47-1.52-1.56 0 0-.11-.02-.21-.02s-.22.02-.22.02c-.72.09-1.23.61-1.51 1.55-.16.54-.31 1.34-.59 2.82-.48 2.52-1.56 7.62-2.01 9.69-.29 1.33-.96 1.51-1.65 1.51s-1.47-.47-2.26-.97c-.19-.12-.81-.5-.81-.5-1.7-1.03-3.4-1.28-5.26-.54-.4.16-.8.34-1.17.52.26.81.58 1.6.95 2.34.41-.2.84-.4 1.28-.53.63-.19 1.28-.2 1.91.01.61.2 1.16.57 1.7.91 1.02.64 2.18 1.37 3.66 1.37 2.19 0 3.72-1.31 4.21-3.58.38-1.76 1.22-5.7 1.76-8.42l1.76 8.42c.49 2.28 2.02 3.58 4.21 3.58 1.48 0 2.63-.73 3.66-1.37.54-.34 1.09-.7 1.7-.91.63-.21 1.28-.2 1.91-.01.44.13.87.33 1.28.53.37-.75.69-1.54.95-2.34-.38-.18-.77-.36-1.17-.52"/></svg>