<svg xmlns="http://www.w3.org/2000/svg" width="41.72" height="41.72"><path d="M5.94 30.985a12.25 12.25 0 0 1-4.33-4.31 11.38 11.38 0 0 1 0-11.67 12.27 12.27 0 0 1 4.33-4.29 11.27 11.27 0 0 1 5.81-1.6 11.55 11.55 0 0 1 4.58.94 11.72 11.72 0 0 1 3.8 2.63l-2.35 2.24a8.6 8.6 0 0 0-2.75-2 7.65 7.65 0 0 0-3.28-.73 7.81 7.81 0 0 0-4.15 1.19 8.88 8.88 0 0 0-3.07 3.17 8.73 8.73 0 0 0 0 8.59 8.78 8.78 0 0 0 3.07 3.19 7.81 7.81 0 0 0 4.15 1.19 7.65 7.65 0 0 0 3.28-.73 8.6 8.6 0 0 0 2.75-2l2.35 2.24a12.06 12.06 0 0 1-3.83 2.63 11.48 11.48 0 0 1-4.55.94 11.27 11.27 0 0 1-5.81-1.62zm17.7-21.47H34.4a7.28 7.28 0 0 1 3.33.73 5.58 5.58 0 0 1 2.28 2 5.27 5.27 0 0 1 .83 2.95 5.09 5.09 0 0 1-.81 2.92 6.81 6.81 0 0 1-2.39 2.1 8.06 8.06 0 0 1 3 2.49 5.61 5.61 0 0 1 1.08 3.35 5.74 5.74 0 0 1-.88 3.14 6 6 0 0 1-2.47 2.2 7.94 7.94 0 0 1-3.53.8h-11.2zm9.9 9.44a4.19 4.19 0 0 0 2.8-.91 2.88 2.88 0 0 0 1.09-2.33 2.94 2.94 0 0 0-1.09-2.34 4.2 4.2 0 0 0-2.8-.92h-6.57v6.5zm.53 10.29a4.51 4.51 0 0 0 3.08-1 3.35 3.35 0 0 0 1.21-2.69 3.36 3.36 0 0 0-1.21-2.68 4.51 4.51 0 0 0-3.08-1h-7.1v7.45z" fill="#717074"/></svg>