<svg xmlns="http://www.w3.org/2000/svg" xmlns:xlink="http://www.w3.org/1999/xlink" width="81" height="81"><defs><clipPath id="b"><use xlink:href="#a"/></clipPath><path id="a" d="M0 0h529v84.095H0z"/></defs><g transform="translate(-448.362 4.357)"><path d="M510.037 70.587h-42.35l-18.593-32.21.56-.978 20.61-35.696h37.198l21.174 36.674-.082.135-18.33 31.75zM488.86 7.245a.328.328 0 00-.25.116c-2.03 2.396-3.475 4.9-3.953 5.725l-18.515 32.066c-.474.824-1.92 3.327-2.98 6.284a.33.33 0 00.025.274.33.33 0 00.225.158c3.095.56 5.98.56 6.933.56h37.03c.95 0 3.844 0 6.935-.56a.34.34 0 00.222-.158.318.318 0 00.023-.274c-1.06-2.957-2.502-5.46-2.98-6.284L493.06 13.086c-1.293-2.24-2.584-4.113-3.95-5.725a.338.338 0 00-.25-.116" clip-path="url(#b)" fill="#fff"/><defs><path id="c" d="M499.597 1.373c-1.455 0-5.783.002-10.8 6.11a8.47 8.47 0 00.193.232c1.293-1.507 2.91-3.05 4.65-4.175 1.61-1.04 3.474-1.727 5.017-1.897 1.122-.126 4.843-.08 9.078-.08.022 0 .033.01.046.024l-.108-.188c-.012-.012-.025-.025-.042-.025h-8.024z"/></defs><clipPath id="d"><use xlink:href="#c"/></clipPath><radialGradient id="e" cx="-27.107" cy="445.029" r="2.509" gradientTransform="matrix(24.9017 0 0 -24.9017 1189.685 11145.443)" gradientUnits="userSpaceOnUse"><stop offset="0" stop-color="#ffdf4f"/><stop offset=".137" stop-color="#ffd137"/><stop offset=".322" stop-color="#ffc31a"/><stop offset=".44" stop-color="#febe10"/><stop offset=".609" stop-color="#fcba12"/><stop offset=".754" stop-color="#f5af15"/><stop offset=".891" stop-color="#ed9f18"/><stop offset=".9" stop-color="#ed9d19"/><stop offset="1" stop-color="#e0861a"/></radialGradient><path clip-path="url(#d)" d="M488.784 1.373h18.987v6.34h-18.987z" fill="url(#e)"/><defs><path id="f" d="M470.102 1.373a.059.059 0 00-.04.025l-21.335 36.956a.05.05 0 00.004.047l15.006 25.987v-.107l-.686-1.347c-.627-1.42-.982-3.382-.9-5.292.253-5.032 2.928-10 4.274-12.328l18.51-32.067c1.344-2.33 4.308-7.125 8.54-9.858 1.605-1.037 3.5-1.71 5.03-1.88 1.126-.125 4.868-.135 9.11-.135z"/></defs><clipPath id="g"><use xlink:href="#f"/></clipPath><radialGradient id="h" cx="-27.497" cy="446.54" r="2.49" gradientTransform="matrix(24.92 0 0 -24.92 1183.682 11129.203)" gradientUnits="userSpaceOnUse"><stop offset="0" stop-color="#ffdf4f"/><stop offset=".137" stop-color="#ffd137"/><stop offset=".322" stop-color="#ffc31a"/><stop offset=".44" stop-color="#febe10"/><stop offset=".609" stop-color="#fcba12"/><stop offset=".754" stop-color="#f5af15"/><stop offset=".891" stop-color="#ed9f18"/><stop offset=".9" stop-color="#ed9d19"/><stop offset="1" stop-color="#e0861a"/></radialGradient><path clip-path="url(#g)" d="M448.72 1.373h58.902v63.015H448.72z" fill="url(#h)"/><defs><path id="i" d="M524.326 46.22c-.92 1.25-2.44 2.542-4.142 3.414-4.486 2.3-10.12 2.464-12.807 2.464H470.35c-2.688 0-8.33-.165-12.81-2.464-1.704-.872-3.228-2.165-4.146-3.414-.584-.793-2.075-3.334-3.84-6.394l3.763 6.526 14.17 24.54c.01.012.025.02.04.02h42.672c.012 0 .028-.01.037-.023l18.593-32.2c-2.048 3.552-3.844 6.644-4.5 7.532m-75.473-7.6l.703 1.216z"/></defs><clipPath id="j"><use xlink:href="#i"/></clipPath><radialGradient id="k" cx="-28.58" cy="445.454" r="2.489" gradientTransform="matrix(24.9101 0 0 -24.9101 1165.155 11142.709)" gradientUnits="userSpaceOnUse"><stop offset="0" stop-color="#ffdf4f"/><stop offset=".137" stop-color="#ffd137"/><stop offset=".322" stop-color="#ffc31a"/><stop offset=".44" stop-color="#febe10"/><stop offset=".609" stop-color="#fcba12"/><stop offset=".754" stop-color="#f5af15"/><stop offset=".891" stop-color="#ed9f18"/><stop offset=".9" stop-color="#ed9d19"/><stop offset="1" stop-color="#e0861a"/></radialGradient><path clip-path="url(#j)" d="M448.853 38.61h79.977v32.303h-79.977z" fill="url(#k)"/><defs><path id="l" d="M498.512 1.508c-1.54.172-3.424.844-5.03 1.88-1.77 1.142-3.32 2.647-4.62 4.184 1.81 2.132 3.138 4.32 3.92 5.675L511.3 45.315c1.34 2.33 4.016 7.296 4.267 12.328.095 1.9-.267 3.873-.887 5.292-.436.995-2.165 4.012-4.173 7.49l18.497-32.056L507.664 1.4c-.012-.012-.025-.023-.042-.025-4.242-.002-7.984.008-9.1.133"/></defs><clipPath id="m"><use xlink:href="#l"/></clipPath><radialGradient id="n" cx="-27.118" cy="445.081" r="2.488" gradientTransform="matrix(24.9799 0 0 -24.9799 1192.03 11181.154)" gradientUnits="userSpaceOnUse"><stop offset="0" stop-color="#ffdf4f"/><stop offset=".137" stop-color="#ffd137"/><stop offset=".322" stop-color="#ffc31a"/><stop offset=".44" stop-color="#febe10"/><stop offset=".609" stop-color="#fcba12"/><stop offset=".754" stop-color="#f5af15"/><stop offset=".891" stop-color="#ed9f18"/><stop offset=".9" stop-color="#ed9d19"/><stop offset="1" stop-color="#e0861a"/></radialGradient><path clip-path="url(#m)" d="M488.86 1.373H529v69.05h-40.14z" fill="url(#n)"/></g></svg>