<svg xmlns="http://www.w3.org/2000/svg" aria-hidden="true" height="76.157" aria-labelledby="home" width="76.157"><path d="M14.723 67.792c-3.222.633-8.08 2.398-9.097 2.918L0 73.269 38.741 2.888l37.416 66.557-.373-.027c-6.177-.473-20.998-1.525-28.625-1.365-9.849.207-27.571 2.559-27.809 2.57-1.664.121-3.168.242-3.168-.967 0-.561.858-1.326.927-1.826.081-.606-.934-.331-2.386-.038z" fill="#fff"/><path d="M48.871 57.71c-11.938 1.365-25.265 4.006-25.747 4.008-.472.002-1.414-.529-.278-1.742.481-.514.614-.91.389-1.232-.134-.191-.535-.256-.521-.256-1.002-.049-2.716.18-5.896 1.242-3.238 1.08-8.49 2.314-8.471 2.307l-3.921 7.158c1.686-.879 4.927-2.195 9.089-3.014 3.822-.748 6.517-1.041 6.61-.063.038.391-.329.797-.742 1.168-.353.4-.729.68-.669 1.002.02.324.19.482.639.48.239-.01 17.901-2.361 27.765-2.57 9.863-.205 25.668 1.16 25.668 1.16l-5.615-10.014c.002.001-8.788-.722-18.3.366z" fill="#ed1c2e"/><path d="M45.55 46.452a19.44 19.44 0 011.168-.219c4.111-.582 13.539-1.182 13.539-1.182L38.752 6.533l-23.86 43.552c-.028-.006 8.84-1.963 11.987-2.781 6.561-1.705 3.733.643 3.191 1.35-.426.555-1.285 1.836-.027 1.648.116-.018.891-.211 2.396-.602z" fill="#00538e"/><path d="M31.374 52.302c-1.791.404-3.069.668-3.494.668-.502.019-.723-.119-.701-.479.026-.443 2.081-1.971.292-2.404-.971-.236-1.695.209-4.937 1.082-3.095.807-8.861 1.785-9.206 1.775l-3.76 6.867s6.334-1.541 9.197-2.281c3.294-.891 5.078-1.358 6.088-1.43 3.019-.215-1.749 3.92.349 3.574.229-.037 11.582-2.445 22.213-3.811 9.029-1.158 18.414-.961 18.414-.961l-4.091-7.193s-7.118-.119-15.17 1.303z" fill="#ed1c2e"/><path fill="#fff" d="M47.398 54.497l-8.673-5.931-8.672 5.931 3.312-9.599-8.672-5.932h10.72l3.312-9.598 3.313 9.598h10.72L44.086 44.9z"/></svg>