<svg xmlns="http://www.w3.org/2000/svg" viewBox="0 0 756 985"><path fill="#c42032" d="M251 470V249a128 128 0 1 1 256 0v219h123V249A253 253 0 0 0 379 0a249 249 0 0 0-250 249v219z"/><path fill="#c42032" d="M342 245a58 58 0 0 1 72 0 96 96 0 0 0 82 17 56 56 0 0 1 65 29c10 23 41 46 67 48 26 3 48 27 48 54 0 26 20 58 42 72 21 14 32 45 21 68-9 23-6 61 8 83a56 56 0 0 1-8 71c-18 18-31 53-26 78 5 26-11 54-35 62-25 7-50 35-56 61a55 55 0 0 1-58 42c-27-2-60 12-76 34a55 55 0 0 1-69 15 98 98 0 0 0-83 0c-23 12-54 6-71-15a96 96 0 0 0-75-34c-26 1-53-17-59-42-6-24-31-52-55-61-25-10-40-37-36-62 5-26-6-62-26-78-15-19-20-50-4-71 15-22 18-59 7-83a58 58 0 0 1 22-68c21-14 41-46 41-72 0-27 22-50 48-54 26-5 56-25 68-48a56 56 0 0 1 65-29c25 7 62 0 81-17z"/><path fill="#fff" d="M379 362a248 248 0 0 0-248 248c0 137 111 246 248 246s246-111 246-248-111-246-246-246z"/><path fill="#c42032" d="M394 447c-15 0-31 1-44 3-80 12-124 55-133 129l-6 55c-5 39 3 68 20 88 22 25 59 45 114 45h97c55 0 63-59 63-59H377c-17 0-34-1-46-6a44 44 0 0 1-29-35c-2-8-2-23 0-34l6-50c2-12 6-26 8-30a70 70 0 0 1 24-33c8-4 25-15 68-15h71c49 0 58-59 58-59H394z"/></svg>