<svg xmlns="http://www.w3.org/2000/svg" viewBox="0 0 1000 1000"><path fill="#c42032" d="M373.1 476.8V256.7c0-70.8 57-127.8 127.8-127.8s127.8 57 127.8 127.8v218.6h123.2V256.7c-1.6-137-114-249.4-251-249.4a249.3 249.3 0 0 0-249.4 249.4v218.6l121.6 1.5z"/><path fill="#c42032" d="M463.9 252.1a58 58 0 0 1 72.4 0 96 96 0 0 0 81.6 16.9 56.2 56.2 0 0 1 64.7 29.2c10.8 23.1 41.6 46.2 67.7 47.7 26.2 3.1 47.7 27.7 47.7 53.9s20 58.5 41.6 72.4c21.6 13.9 32.3 44.6 21.6 67.7-9.2 23.1-6.2 61.6 7.7 83.1a55.8 55.8 0 0 1-7.7 70.8c-18.5 18.5-30.8 53.9-26.2 78.5 4.6 26.2-10.8 53.9-35.4 61.6s-49.3 35.4-55.4 61.6a55.2 55.2 0 0 1-58.5 41.6c-26.2-1.5-60 12.3-75.4 33.9a55.2 55.2 0 0 1-69.3 15.4c-21.6-12.3-60-12.3-83.1 0-23.1 12.3-53.9 6.2-70.8-15.4s-49.3-35.4-75.4-33.9-52.3-16.9-58.5-41.6c-6.2-24.6-30.8-52.3-55.4-61.6s-40-36.9-35.4-61.6c4.6-26.2-6.2-61.6-26.2-78.5-15.4-18.5-20-49.3-4.6-70.8 15.4-21.6 18.5-58.5 7.7-83.1a58.4 58.4 0 0 1 21.6-67.7c21.6-13.9 41.6-46.2 41.6-72.4s21.6-49.3 47.7-53.9 55.4-24.6 67.7-47.7a56 56 0 0 1 64.7-29.2c25.9 7.7 62.9 0 81.3-16.9z"/><path fill="#fff" d="M500.9 369.1C363.9 369.1 253 479.9 253 617s110.8 246.3 247.9 246.3 246.3-110.8 246.3-247.9-110.8-246.3-246.3-246.3z"/><path fill="#c42032" d="M516.3 453.8c-15.4 0-30.8 1.5-44.6 3.1-80.1 12.3-123.2 55.4-132.4 129.3l-6.2 55.4c-4.6 38.5 3.1 67.7 20 87.7C374.6 754 411.6 774 467 774h97c55.4 0 63.1-58.5 63.1-58.5H499.3c-16.9 0-33.9-1.5-46.2-6.2a43.6 43.6 0 0 1-29.2-35.4c-1.5-7.7-1.5-23.1 0-33.9l6.2-49.3c1.5-12.3 6.2-26.2 7.7-30.8a70 70 0 0 1 24.6-32.3c7.7-4.6 24.6-15.4 67.7-15.4h70.8c49.3 0 58.5-58.5 58.5-58.5H516.3z"/></svg>