<svg xmlns="http://www.w3.org/2000/svg" fill="currentColor" width="200" height="200"><path d="M158.1 65.3h-.1l-38.8-22.6L80.9 65 41.6 42.2 0 66.4v44l80.3 46.8 38.4-22.2 39.4 22.8 41.9-24.2v-44zm-.2 45.1L125 91.3l33.2-19.4 32.9 19.3zM80 71.6l33.2 19.2-32.8 19.1-33.1-19.3zm72.2-3l-32.5 18.9-33.1-19.2 32.6-19zM74.7 68L68 71.9 40.9 87.2 8.6 68l33.1-19.2zM5.8 72.8l32.5 19.6V127L5.8 107.2zm39 23l32.5 19.3v34.5l-32.5-19.3zm77.3.4l33.1 19.5v34.2l-33.1-19.7z"/><g opacity=".5"><path d="M44.8 130.4l32.5 19.1v-34.4L44.8 95.8zM5.8 107.1l32.5 19.8V92.4L5.8 72.8zM122.1 130.3l33.1 19.7v-34.3l-33.1-19.5z"/></g></svg>