<svg xmlns="http://www.w3.org/2000/svg" viewBox="0 0 119.75 27.86"><path fill="#e2007a" d="M9.88 0H8.19C3.77 0 0 3.63 0 7.6v12.1a8.24 8.24 0 0 0 8.2 8.15h1.7a8.24 8.24 0 0 0 8.2-8.13v-3.06h-5.63v2.88c0 1.58-1.39 3.23-3.06 3.23h-.73c-1.69 0-3.06-1.67-3.06-3.23V8.35c0-2.01 1.38-3.28 3.06-3.28h.73c1.69 0 3.05 1.26 3.05 3.28v2.84h5.65V7.6C18.1 3.63 14.32 0 9.88 0Zm21.6 0h-1.7c-4.43 0-8.2 3.63-8.2 7.6v12.1a8.24 8.24 0 0 0 8.22 8.15h1.69a8.24 8.24 0 0 0 8.2-8.13V7.6C39.7 3.63 35.93 0 31.48 0Zm2.58 19.55c0 1.58-1.38 3.23-3.06 3.23h-.73c-1.69 0-3.06-1.67-3.06-3.23V8.35c0-2.01 1.38-3.28 3.06-3.28H31c1.69 0 3.05 1.26 3.05 3.28zm19.5-7.28L48.24.43h-4.98v27h5.42V12.78l4.51 9.97h.37l4.62-9.97v14.65h5.46v-27h-4.66Zm23.26 7.38L72.45.43h-5.71l6.55 27h6.63l6.9-27h-5.7ZM89.95.43h5.57v27h-5.57Zm25.55 25.48.98 1.51h3.27l-9.41-14.37h-3.27l4.23 6.47a.95.95 0 0 1 .15.51v.12a3.06 3.06 0 0 1-3.04 2.72h-.9a3.09 3.09 0 0 1-3.1-3.07V8.06c0-1.7 1.38-3.08 3.1-3.1h.9a3.09 3.09 0 0 1 3.06 3.1v4.18l5.44 8.33V7.94A7.95 7.95 0 0 0 108.92 0h-1.9a8.04 8.04 0 0 0-5.69 2.32 7.87 7.87 0 0 0-2.34 5.62v11.98a7.98 7.98 0 0 0 8.03 7.94h2.53a8.04 8.04 0 0 0 5.32-2 .42.42 0 0 1 .63.05z"/></svg>
