<svg xmlns="http://www.w3.org/2000/svg" version="1.1" id="Logo" x="0" y="0" xml:space="preserve" width="43.1" height="43.1"><style type="text/css" id="style6373">.st1{fill:#f0ab00}</style><g id="g6383" transform="translate(-197.6)"><path class="st1" d="M218.1 28.2c-3.6 0-6.6-3-6.6-6.6 0-3.6 2.9-6.6 6.6-6.6 1.8 0 3.5.7 4.6 1.9l3.4-3.4c-2.1-2.1-4.9-3.3-8.1-3.3-6.3 0-11.4 5.1-11.4 11.4 0 6.3 5.1 11.4 11.4 11.4 3.1 0 6-1.3 8.1-3.3l-3.4-3.4c-1.2 1.1-2.8 1.9-4.6 1.9" id="path6377"/><path class="st1" d="M227.7 18.7c-1.6 0-2.9 1.3-2.9 2.9 0 1.6 1.3 2.9 2.9 2.9 1.6 0 2.9-1.3 2.9-2.9 0-1.6-1.3-2.9-2.9-2.9" id="path6379"/><path class="st1" d="M197.6 43.1h43.1V0h-43.1zm4.8-4.9V4.8h33.4v33.4z" id="path6381"/></g></svg>