<svg xmlns="http://www.w3.org/2000/svg" viewBox="0 0 247.8 247.8"><path fill="#ffe600" d="M189.4 87h32.1l6.8-31.2h-57c-50.1 0-77.4 31.9-77.4 90.6 0 33.7 14.4 45.4 56.2 45.4h47.7l7.4-32.8h-27.8c-3.2 0-8.9-.3-11.7-.5a33.4 33.4 0 0 1-.3 0 37 37 0 0 1-5.5-.9l-2.7-.6-3-.9c-8-2.6-11.6-8.4-11.7-20.2.3-31.6 17-49 47-49z"/><path fill="#0098dd" d="M194 205.1h-46.4c-49 0-67.3-16-67.3-59 0-66.7 31.5-103.4 88.6-103.4h61.7L240.3 0H154C104.3 0 74 8.4 52.7 28.2c-28 26-45.3 75.2-45.3 129.7 0 67.1 24.3 90 96.1 90h81z"/></svg>
