<svg xmlns="http://www.w3.org/2000/svg" xmlns:xlink="http://www.w3.org/1999/xlink" viewBox="-153 -46 500 500" width="500" height="500" xmlns:v="https://vecta.io/nano"><g transform="translate(-71.35 -71.999994)"><defs><path d="M-36.1 26.1c-12 0-18.7 8.9-18.7 19.3v390.3c0 10.4 6.7 19.3 18.7 19.3h31.4l61.5 69.6c.6.9 1.6 1.4 2.6 1.4h.3c1.3-.1 2.5-.9 2.5-2.4V455h308.7c12 0 20.8-8.8 20.8-19.3V45.4c0-10.5-8.8-19.3-20.8-19.3z" id="A"/><path id="B" d="M214.04998779297 255.899993896484h12.5v11.199999809265h-12.5z"/><path id="C" d="M250.55 138.2c7.2 6.3 16.4 9.5 24.6 9.5 12.1 0 21.5-6.9 21.5-20.2 0-11.4-9.6-15.6-18-18.5-6.8-2.4-13.1-4.6-13.1-9.200004 0-3.7 3-6.4 8.1-6.4 4.8 0 10.8 2.3 16.4 6l5.3-10.4c-6.2-4.4-14.1-7.2-21.3-7.2-11.5 0-20.7 7.3-20.7 19.400004 0 12.2 9.6 16.2 18.1 18.9 6.8 2.3 13 4 13 8.9 0 4.2-3.3 7.1-9 7.1-5.9 0-12.7-2.7-19-7.8l-5.9 9.9"/><path id="D" d="M87.85 267.1v-36.2c0-11.1-5.5-17.4-15-17.4-9.6 0-15.6 6.9-15.6 17.7v36h-12.5v-63.5h12.5v13.1l2.1-3.4c5-7.5 11.1-11.1 19.1-11.1 13.6 0 21.7 9 21.7 24.1v40.7z"/><path id="E" d="M-42.75 129.6c-4.9 2.7-9.7 4.6-17.1 4.5-14.9-.1-30-10.7-30-31.4 0-16.100004 13.8-29.400004 30-29.400004 7.2 0 12.4 2.3 17.1 5.3l5.4-13.4c-11.5-5.7-16.5-5.7-23.7-5.7-18.7 0-42.3 17-42.3 43.200004 0 31.6 26 45.3 43.4 45.3 11.7 0 15.9-2 22.6-5.3z"/><path id="F" d="M173.15 267.100006h-15.5l-19.1-27.9-9.2 9.7v18.2h-12.9v-86.7h12.9v52l26.6-28.8h16.8l-25.9 27.1z"/><path id="G" d="M250.55 141.6c7.2 6.3 16.4 9.5 24.6 9.5 12.1 0 21.5-6.9 21.5-20.2 0-11.4-9.6-15.6-18-18.5-6.8-2.4-13.1-4.6-13.1-9.2 0-3.700004 3-6.400004 8.1-6.400004 4.8 0 10.8 2.3 16.4 6.000004l5.3-10.300004c-6.2-4.4-14.1-7.2-21.3-7.2-11.5 0-20.7 7.3-20.7 19.400004 0 12.2 9.6 16.2 18.1 18.9 6.8 2.3 13 4 13 8.9 0 4.2-3.3 7.1-9 7.1-5.9 0-12.7-2.6-19-7.8l-5.9 9.8"/></defs><clipPath id="H"><use xlink:href="#A"/></clipPath><linearGradient y2="276.134115785993" x2="391.527138719999" y1="276.134115785993" x1="-54.809448740001" gradientUnits="userSpaceOnUse" id="I"><stop offset="0" stop-color="#5cc1d6"/><stop offset="1" stop-color="#0080aa"/></linearGradient><path clip-path="url(#H)" d="M-54.79999923706 26.10000038147h446.29998779297v500H-54.79999923706z" fill="url(#I)"/><defs><path d="M-38.2 26.2c-10.7 1-16.6 9.4-16.6 19.2v390.3c0 10.4 6.7 19.3 18.7 19.3h31.4l61.5 69.6c.6.9 1.6 1.4 2.6 1.4h.3c1.3-.1 2.5-.9 2.5-2.4V455h308.7c10.5 0 18.5-6.7 20.4-15.4v-398c-1.7-8.1-8.8-14.5-18.2-15.3H-38.2z" id="J"/></defs><clipPath id="K"><use xlink:href="#J"/></clipPath><linearGradient gradientTransform="matrix(0,66.5747,66.5747,0,-46617.988,8150.4883)" y2="702.76172" x2="-115.7122" y1="702.76172" x1="-122.0106" gradientUnits="userSpaceOnUse" id="L"><stop offset="0" stop-color="#5cc1d6"/><stop offset="1" stop-color="#0080aa"/></linearGradient><path clip-path="url(#K)" d="M-54.79999923706 26.20000076294h445.899993896484v499.899993896484H-54.79999923706z" fill="url(#L)"/></g><g fill="#0080aa"><path d="M214.04998779297 180.399993896484h12.5v65.800003051758h-12.5z"/><use xlink:href="#B"/><use xlink:href="#C"/><use xlink:href="#C" x="-156.9"/><path d="M248.25 96.400006c-1.9-1-4.3-.9-6.8-.9-8.9 0-14.7 10.100004-14.7 23.800004v27.3h-12.6V83.100006h12.5v12l1.4-2.2c4.9-7.6 10.9-11.1 18.7-11.1h1.4v14.6zm-253.4-16c-17.4 0-30.3 15-30.3 33.200004v.2c0 18 12.8 32.8 30.1 32.8 17.5 0 30.4-15 30.4-33.1v-.2c0-18.100004-12.8-32.900004-30.2-32.900004M12.05 113.8c0 10.9-6.7 20.2-17.2 20.2-10.1 0-17.3-9.4-17.3-20.5v-.2c0-11.1 6.7-20.200004 17.1-20.200004 10.2 0 17.4 9.300004 17.4 20.500004zm164-33.499994c-17.4 0-30.3 15-30.3 33.200004v.2c0 18 12.8 32.8 30.1 32.8 17.5 0 30.4-15 30.4-33.1v-.2c0-18.100004-12.8-32.900004-30.2-32.900004M193.25 113.7c0 10.9-6.7 20.2-17.2 20.2-10.1 0-17.3-9.4-17.3-20.5v-.2c0-11.1 6.7-20.200004 17.1-20.200004 10.2 0 17.4 9.300004 17.4 20.500004zm-118 32.9v-36.2c0-11.100004-5.5-17.400004-15-17.400004-9.6 0-15.6 6.9-15.6 17.700004v36h-12.5V83.200006h12.5v13.1l2.1-3.4c5-7.6 11.1-11.1 19.1-11.1 13.6 0 21.7 9 21.7 24.100004v40.7z"/><use xlink:href="#D"/><use xlink:href="#E"/><use xlink:href="#F"/><path d="M-1.35 268.4c-11.5 0-22-6.8-22-19.5 0-13.7 9.1-22.1 23.7-22.1 7.2 0 12.1 1.1 16.8 2.7v-1.6c0-8.9-5-13.5-14.9-13.5-6.9 0-12.7 2.1-17 3.9l-3.6-10.5c6.3-2.9 13.1-5.2 22.5-5.2 16.1 0 25.7 10 25.7 26.8V245c0 5.4-1.8 13-10.1 18.9-5.8 4.1-14.2 4.5-22.3 4.5m6-31.9c-8.6 0-15.3 5-15.3 11.5 0 6.9 6.5 10 12.5 10 3.9 0 16.8-1 16.8-14.2v-4.6l-.2-.1c-4-1.7-8.9-2.6-13.8-2.6m-66.7 31.9c-15.2 0-25.2-5.7-32.9-16.7v-71.3h12.7V209l.9-.5c2.5-1.4 9.7-5.8 19.2-5.8 18.3 0 30.6 13.2 30.6 32.8.1 22.7-15.3 32.9-30.5 32.9m-20.2-19.7c5.6 4.9 10.9 7.7 18.9 7.7 12.1 0 19.7-8.2 19.7-20.9 0-12.6-7.3-21.3-19.2-21.3-10.1 0-17 6.6-19.4 8.3z"/></g><g fill="#5cc1d6"><path d="M214.04998779297 183.699996948242h12.5V249.5h-12.5z"/><use xlink:href="#B" y="3.300018310546"/><use xlink:href="#G"/><use xlink:href="#G" x="-156.9"/><path d="M248.25 99.700006c-1.9-1-4.3-.9-6.8-.9-8.9 0-14.7 10.100004-14.7 23.800004v27.3h-12.6V86.400006h12.5v12l1.4-2.2c4.9-7.6 10.9-11.1 18.7-11.1h1.4v14.6zm-253.4-16c-17.4 0-30.3 15-30.3 33.200004v.2c0 18 12.8 32.8 30.1 32.8 17.5 0 30.4-15 30.4-33.1v-.2c0-18.100004-12.8-32.900004-30.2-32.900004M12.05 117.1c0 10.9-6.7 20.2-17.2 20.2-10.1 0-17.3-9.4-17.3-20.5v-.2c0-11.1 6.7-20.200004 17.1-20.200004 10.2 0 17.4 9.300004 17.4 20.500004zm164-33.499994c-17.4 0-30.3 15-30.3 33.200004v.2c0 18.1 12.8 32.8 30.1 32.8 17.5 0 30.4-15 30.4-33.1v-.2c0-18.100004-12.8-32.900004-30.2-32.900004M193.25 117c0 10.9-6.7 20.2-17.2 20.2-10.1 0-17.3-9.4-17.3-20.5v-.2c0-11.1 6.7-20.200004 17.1-20.200004 10.2 0 17.4 9.300004 17.4 20.500004zm-118 32.9v-36.2c0-11.1-5.5-17.400004-15-17.400004-9.6 0-15.6 6.900004-15.6 17.700004v36h-12.5V86.500006h12.5v13.1l2.1-3.4c5-7.5 11.1-11.1 19.1-11.1 13.6 0 21.7 9 21.7 24.100004v40.7zm12.6 120.5v-36.2c0-11.1-5.5-17.4-15-17.4-9.6 0-15.6 6.9-15.6 17.7v36h-12.5V207h12.5v13l2.1-3.4c5-7.5 11.1-11.1 19.1-11.1 13.6 0 21.7 9 21.7 24.1v40.7h-12.3zm-130.6-137.5c-4.9 2.7-9.7 4.6-17.1 4.5-14.9-.2-30-10.8-30-31.4 0-16.100004 13.8-29.400004 30-29.400004 7.2 0 12.4 2.3 17.1 5.3l5.4-13.4c-11.5-5.7-16.5-5.7-23.7-5.7-18.7 0-42.3 17-42.3 43.200004 0 31.6 26 45.3 43.4 45.3 11.7 0 15.9-2 22.6-5.3z"/><use xlink:href="#F" y="3.3"/><path d="M-1.35 271.7c-11.5 0-22-6.8-22-19.5 0-13.7 9.1-22.2 23.7-22.2 7.2 0 12.1 1.2 16.8 2.7v-1.6c0-8.9-5-13.5-14.9-13.5-6.9 0-12.7 2.1-17 3.9l-3.6-10.4c6.3-2.9 13.1-5.2 22.5-5.2 16.1 0 25.7 10 25.7 26.8v15.6c0 5.4-1.8 13-10.1 18.9-5.8 4.1-14.2 4.5-22.3 4.5m6-31.9c-8.6 0-15.3 5-15.3 11.5 0 6.9 6.5 10 12.5 10 3.9 0 16.8-1 16.8-14.3v-4.6l-.2-.1c-4-1.6-8.9-2.5-13.8-2.5m-66.7 31.9c-15.2 0-25.2-5.7-32.9-16.7v-71.3h12.7v28.6l.9-.5c2.5-1.4 9.7-5.8 19.2-5.8 18.3 0 30.6 13.2 30.6 32.7.1 22.8-15.3 33-30.5 33m-20.2-19.7c5.6 4.9 10.9 7.7 18.9 7.7 12.1 0 19.7-8.2 19.7-20.9 0-12.6-7.3-21.3-19.2-21.3-10.1 0-17 6.6-19.4 8.3V252z"/></g><g fill="#fff"><path d="M214.04998779297 182h12.5v65.800003051758h-12.5z"/><use xlink:href="#B" y="1.600006103516"/><use xlink:href="#G" y="-1.7"/><use xlink:href="#G" x="-156.9" y="-1.7"/><path d="M248.25 98.100006c-1.9-1-4.3-.9-6.8-.9-8.9 0-14.7 10.100004-14.7 23.800004v27.3h-12.6V84.800006h12.5v12l1.4-2.2c4.9-7.6 10.9-11.1 18.7-11.1h1.4v14.6zm-253.4-16.1c-17.4 0-30.3 15-30.3 33.200004v.2c0 18 12.8 32.8 30.1 32.8 17.5 0 30.4-15 30.4-33.1v-.1c0-18.200004-12.8-33.000004-30.2-33.000004M12.05 115.5c0 10.9-6.7 20.2-17.2 20.2-10.1 0-17.3-9.4-17.3-20.5v-.2c0-11.1 6.7-20.200004 17.1-20.200004 10.2 0 17.4 9.300004 17.4 20.500004zm164-33.599994c-17.4 0-30.3 15-30.3 33.200004v.2c0 18 12.8 32.8 30.1 32.8 17.5 0 30.4-15 30.4-33.1v-.2c0-18.100004-12.8-32.900004-30.2-32.900004M193.25 115.4c0 10.9-6.7 20.2-17.2 20.2-10.1 0-17.3-9.4-17.3-20.5v-.2c0-11.1 6.7-20.200004 17.1-20.200004 10.2 0 17.4 9.300004 17.4 20.500004zm-118 32.8V112c0-11.1-5.5-17.400004-15-17.400004-9.6 0-15.6 6.900004-15.6 17.700004v36h-12.5V84.800006h12.5v13.1l2.1-3.4c5-7.5 11.1-11.1 19.1-11.1 13.6 0 21.7 9 21.7 24.100004v40.7z"/><use xlink:href="#D" y="1.6"/><use xlink:href="#E" y="1.7"/><path d="M173.15 268.700006h-15.5l-19.1-27.8-9.2 9.7v18.1h-12.9v-86.7h12.9v52.1l26.6-28.9h16.8l-25.9 27.2zM-1.35 270.1c-11.5 0-22-6.8-22-19.5 0-13.7 9.1-22.1 23.7-22.1 7.2 0 12.1 1.1 16.8 2.7v-1.6c0-8.9-5-13.5-14.9-13.5-6.9 0-12.7 2.1-17 3.9l-3.6-10.5c6.3-2.9 13.1-5.2 22.5-5.2 16.1 0 25.7 10 25.7 26.8v15.6c0 5.4-1.8 13-10.1 18.9-5.8 4.1-14.2 4.5-22.3 4.5m6-32c-8.6 0-15.3 5-15.3 11.5 0 6.9 6.5 10 12.5 10 3.9 0 16.8-1 16.8-14.3v-4.6l-.2-.1c-4-1.6-8.9-2.5-13.8-2.5m-66.7 32c-15.2 0-25.2-5.7-32.9-16.7V182h12.7v28.6l.9-.5c2.5-1.4 9.7-5.8 19.2-5.8 18.3 0 30.6 13.2 30.6 32.7.1 22.9-15.3 33.1-30.5 33.1m-20.2-19.8c5.6 4.9 10.9 7.7 18.9 7.7 12.1 0 19.7-8.2 19.7-20.9 0-12.6-7.3-21.3-19.2-21.3-10.1 0-17 6.6-19.4 8.3z"/></g></svg>