<svg xmlns="http://www.w3.org/2000/svg" viewBox="0 0 258 258"><path fill="#0a3a67" d="m62.4 189.4-28.2-16.2a70 70 0 0 1-25.7-22l4.3 7.4 10.7 18.8L54 229.9a28.3 28.3 0 0 0 24.5 14.2h21.3l28.6-16.6z"/><path fill="#1e9cd7" d="m229.5 169-35.4 20.6-65.8 38L99.7 244h78.8a28.3 28.3 0 0 0 24.6-14.2l26.3-45.6L248 152l-.3.5a44 44 0 0 1-18.3 16.7zM29.2 71c4-6.9 10.3-10.7 17.9-12.5a48.4 48.4 0 0 1 10.2-1.2l152.1.1a51 51 0 0 0-5.9-28.6l-.4-.7a28.3 28.3 0 0 0-24.5-14.2H78.4a28.3 28.3 0 0 0-24.5 14.2L37 57.3z"/><path fill="#0075be" d="M82 200.6C65.1 191 61 178.2 59.2 163L47 58.5c-7.6 1.8-14 5.6-18 12.4L3.9 115a28.3 28.3 0 0 0 0 28.3l9 15.4-4.3-7.4a69.2 69.2 0 0 0 25.7 22l28.2 16.2v-.1z"/><path fill="#bbd5f1" d="M253.2 114.8 220 57.3 203.6 29v-.2a50.9 50.9 0 0 1 5.5 32.3L197 164.8c-1.9 14.5-6.3 26.8-22.5 36.1l19.6-11.3 35.4-20.5c9-5.4 14.5-9.7 18.3-16.7l5.4-9.2a28.3 28.3 0 0 0 0-28.4z"/><path d="M257.2 35.8c-1.5-2-5-3-8.8-.7-42.6 26-81.8 64.8-116.7 115.6a.6.6 0 0 1-.4.2 1.3 1.3 0 0 1-1-.3L111 130.9l-13-12.4c-9.8-10-27-4.2-33.2 1.6l-1 .8.9 1c2.2 2.7 53.9 67 61.3 72.3a10.6 10.6 0 0 0 6.2 1.7 16.5 16.5 0 0 0 3.9-.5 21.6 21.6 0 0 0 13.8-11.5l.8-1.6c28.2-56 65.2-105 104.3-138.4 3.6-3.1 3.4-6.3 2.2-8z"/></svg>