<svg xmlns="http://www.w3.org/2000/svg" width="40.913" height="40.913"><path fill="#f2642f" d="M22.031 39.563c-4.279 0-5.015-5.307-5.239-12.347a206.466 206.466 0 01-.111-6.027c0-4.283.169-9.024.391-11.385.28-2.987.904-5.702 2.48-7.268a4.385 4.385 0 012.986-1.24 4.44 4.44 0 013.603 2.082c1.808 2.368 2.374 5.974 2.83 8.957h1.173L30.036.5H28.97l-1.358 2.426A5.985 5.985 0 0022.538 0c-6.755 0-11.944 9.352-11.944 20.731 0 3.833.616 9.128 2.366 12.969 1.354 2.927 4.339 7.213 8.8 7.213a6.56 6.56 0 005.57-3.16l1.467 2.593h1.177l.345-13.297h-1.235c-1.018 5.015-2.436 12.514-7.053 12.514z" class="cci-logo-path"/></svg>