<svg xmlns="http://www.w3.org/2000/svg" viewBox="0 0 90 90"><g transform="translate(0 1)"><ellipse cx="31.97" cy="58.15" fill="#424B93" rx="30.79" ry="30.85"/><path fill="#424B93" d="M85.33 0a5.8 5.8 0 00-1.6.34l-.35.13c-.58.24-1.15.56-1.68.95l-.24.18-.55.38-1.16.82-1.15.82-1.7 1.26-1.12.85-1.66 1.3-1.1.87-1.08.89c-.9.74-1.8 1.5-2.68 2.28l-1.07.94c-.7.63-1.41 1.27-2.11 1.93l-1.06.98-1.05 1.01-2.1 2.07-1.04 1.06a164 164 0 00-.52.54l-1.05 1.1-.53.56-1.05 1.12-1.06 1.16-1.06 1.17-.53.6-1.07 1.2-1.07 1.25-.54.62-1.08 1.28-1.1 1.3-1.1 1.34-1.1 1.36-1.13 1.39-1.13 1.41-1.14 1.45-1.16 1.49-1.17 1.5-1.19 1.56-1.2 1.57-1.21 1.62-1.23 1.65-1.25 1.68-1.27 1.72-1.98 2.7-11.86-10.05a16.59 16.59 0 00-4.56-2.98 8.39 8.39 0 00-5.07-.65 5.36 5.36 0 00-4.28 4.69c-.2 1.66.32 3.34 1.35 5.02l.22.36.1.12 17.21 23.62.58.77.5.65a20.9 20.9 0 002.2 2.47c1.5 1.4 3.08 2.2 5 2.08 1.94-.12 3.4-1.12 4.69-2.7.33-.4.66-.86 1-1.4l.35-.56.18-.3.37-.65.2-.34.4-.75C53.93 51.22 69.5 29.84 88.27 8.06A6.46 6.46 0 0089.65 6c.29-.72.42-1.5.3-2.36a4.22 4.22 0 00-1.81-2.9A4.34 4.34 0 0085.59 0h-.26z"/><path fill="#FFF" d="M29.2 71.13L12.02 47.57c-.7-1.07-1-2-.92-2.71.04-.34.16-.61.37-.83.2-.2.47-.35.81-.43.7-.15 1.62 0 2.66.43a12.8 12.8 0 013.48 2.32l15.2 12.87 2.55-3.51 1.26-1.74 1.25-1.7 1.83-2.47 1.2-1.61 1.78-2.35 1.16-1.53 1.15-1.5 1.13-1.45 1.12-1.44 1.11-1.4 1.1-1.37 1.09-1.34 1.07-1.31 1.07-1.29 1.06-1.26.52-.62 1.05-1.22 1.04-1.2.52-.58 1.03-1.16.51-.57 1.03-1.12.51-.56 1.02-1.09 1.02-1.07 1.01-1.04 1.02-1.03 1.01-1 1.01-1 1.02-.97 1.02-.95 1.02-.94 1.02-.92 1.03-.9 1.03-.9 1.04-.88 1.05-.86 1.05-.85 1.06-.84 1.07-.83 1.07-.82 1.1-.8 1.1-.8.54-.4 1.12-.78.56-.4.12-.08c.38-.3.8-.54 1.18-.68.2-.06.36-.1.5-.1.15-.02.27 0 .35.06.06.04.1.1.1.17.02.08 0 .18-.05.29-.09.23-.3.52-.64.87C66.33 27.42 50.61 49 38.01 70.86l-.35.64-.32.58-.3.51-.28.46-.13.22-.26.38-.12.18-.24.32-.12.15c-.64.8-1.22 1.19-1.83 1.22-.61.04-1.27-.29-2.05-1.01-.3-.28-.61-.6-.96-1l-.35-.43-.38-.47-.2-.26-.42-.55-.5-.67z"/></g></svg>
