<svg xmlns="http://www.w3.org/2000/svg" viewBox="0 0 74.3 62.4" fill="#eb5646"><path d="M57.5 25.4c0 .7-.5 1.1-1.1 1.1H34.8c-.7 0-1.1-.5-1.1-1.1v-2.5c0-.7.5-1.1 1.1-1.1h21.6c.7 0 1.1.5 1.1 1.1zM67.1 32.5c0 .7-.5 1.1-1.1 1.1H39.3c-.7 0-1.1-.5-1.1-1.1V30c0-.7.5-1.1 1.1-1.1h26.4c.7 0 1.1.5 1.1 1.1zM74.3 39.7c0 .7-.5 1.1-1.1 1.1H44.3c-.7 0-1.1-.5-1.1-1.1v-2.5c0-.7.5-1.1 1.1-1.1h28.9c.7 0 1.1.5 1.1 1.1zM74.3 47c0 .7-.5 1.1-1.1 1.1H44.3c-.7 0-1.1-.5-1.1-1.1v-2.5c0-.7.5-1.1 1.1-1.1h28.9c.7 0 1.1.5 1.1 1.1zM67.1 54c0 .7-.5 1.1-1.1 1.1H39.3c-.7 0-1.1-.5-1.1-1.1v-2.5c0-.7.5-1.1 1.1-1.1h26.4c.7 0 1.1.5 1.1 1.1zM57.5 61.3c0 .7-.5 1.1-1.1 1.1H34.8c-.7 0-1.1-.5-1.1-1.1v-2.5c0-.7.5-1.1 1.1-1.1h21.6c.7 0 1.1.5 1.1 1.1zM16.6 3.6c0 .7.4 1.1 1.1 1.1h21.6c.7 0 1.1-.5 1.1-1.1V1.1c0-.7-.5-1.1-1.1-1.1H17.7c-.7 0-1.1.5-1.1 1.1zM7.3 10.9c0 .7.5 1.1 1.1 1.1h26.4c.7 0 1.1-.5 1.1-1.1V8.4c0-.7-.5-1.1-1.1-1.1H8.4c-.7-.1-1.1.4-1.1 1.1zM0 18.1c0 .7.5 1.1 1.1 1.1H30c.7 0 1.1-.5 1.1-1.1v-2.5c0-.7-.5-1.1-1.1-1.1H1.1c-.7 0-1.1.5-1.1 1.1zM0 25.4c0 .7.5 1.1 1.1 1.1H30c.7 0 1.1-.5 1.1-1.1v-2.5c0-.7-.5-1.1-1.1-1.1H1.1c-.7 0-1.1.5-1.1 1.1zM7.3 32.5c0 .7.5 1.1 1.1 1.1h26.4c.7 0 1.1-.5 1.1-1.1V30c0-.7-.5-1.1-1.1-1.1H8.4c-.7 0-1.1.5-1.1 1.1zM16.6 39.7c0 .7.5 1.1 1.1 1.1h21.6c.7 0 1.1-.5 1.1-1.1v-2.5c0-.7-.5-1.1-1.1-1.1H17.7c-.7 0-1.1.5-1.1 1.1z"/></svg>