<svg xmlns="http://www.w3.org/2000/svg" fill="#fb6970" viewBox="0 0 32.256 30"><path d="M15.564 23.684c5.601 0 9.93-4.241 9.93-9.474 0-4.901-4.067-7.894-6.76-7.894-3.752 0-6.759 2.638-7.187 6.555-.08.726-.653 1.334-1.38 1.329-1.21-.009-2.97-.02-4.082-.015-.48.001-.876-.388-.852-.868.168-3.398 1.3-6.574 3.462-9.014C11.096 1.59 14.593 0 18.733 0c6.956 0 13.523 6.335 13.523 14.21 0 8.72-7.208 15.79-16.544 15.79C9.054 30 2.349 25.639.008 19.542a.131.131 0 0 1-.006-.07c.031-.181.093-.346.154-.508.089-.236.175-.467.163-.733l-.04-.849c-.02-.419.216-.809.598-.987l.338-.158c.386-.18.66-.534.736-.951a1.315 1.315 0 0 1 1.296-1.076c.994 0 1.859.663 2.184 1.605 1.563 4.536 4.048 7.869 10.134 7.869z"/></svg>