<svg xmlns="http://www.w3.org/2000/svg" viewBox="300 29 39.408 39.408" width="39.408" height="39.408" fill="#39a8ef"><path d="M325.701 38.623a14.753 14.753 0 0 0-25.7 10.078 14.834 14.834 0 0 0 4.305 10.562 14.84 14.84 0 0 0 10.529 4.386 15.054 15.054 0 0 0 10.984-4.869 12.73 12.73 0 0 1-4.077-3.284 9.223 9.223 0 0 1-6.794 2.944 9.513 9.513 0 0 1-9.16-7.034 9.51 9.51 0 0 1 15.841-9.272 11.073 11.073 0 0 1 4.072-3.511zm4.761 19.138c-8.1.102-12.25-9.663-6.56-15.425s15.506-1.734 15.506 6.366a8.99 8.99 0 0 1-8.946 9.059zm0-4.3c4.237 0 6.359-5.123 3.363-8.119s-8.119-.874-8.119 3.363a4.785 4.785 0 0 0 4.756 4.753z"/></svg>