<svg xmlns="http://www.w3.org/2000/svg" viewBox="300 29 39.408 39.408" width="39.408" height="39.408"  fill="#39a8ef" xmlns:v="https://vecta.io/nano"><path d="M325.701 38.623c-4.114-4.555-10.62-6.087-16.334-3.846s-9.445 7.786-9.366 13.924c-.03 3.954 1.52 7.756 4.305 10.562a14.84 14.84 0 0 0 10.529 4.386c4.178-.028 8.157-1.792 10.984-4.869a12.73 12.73 0 0 1-4.077-3.284c-1.754 1.887-4.218 2.955-6.794 2.944-4.29-.011-8.042-2.892-9.16-7.034a9.51 9.51 0 0 1 15.841-9.272c1.048-1.487 2.447-2.693 4.072-3.511zm4.761 19.138c-8.1.102-12.25-9.663-6.56-15.425s15.506-1.734 15.506 6.366a8.99 8.99 0 0 1-8.946 9.059zm0-4.3c4.237 0 6.359-5.123 3.363-8.119s-8.119-.874-8.119 3.363c.017 2.619 2.137 4.737 4.756 4.753z"/></svg>