<svg xmlns="http://www.w3.org/2000/svg" width="127.296" height="127.296"><g fill="none" fill-rule="evenodd"><path d="M47.982 67.965c-4.481 0-8.093-3.582-8.093-7.994s3.612-7.994 8.093-7.994c4.45 0 8.061 3.582 8.061 7.994s-3.612 7.994-8.061 7.994zm13.642-18.843c-3.776-2.596-8.89-3.7-13.642-3.7-8.9 0-19.314 3.773-19.314 14.454 0 1.407.226 2.717.45 3.836-1.901 2.11-5.03 4.188-8.9 4.188-5.094 0-8.706-3.228-8.706-8.184 0-4.606 3.579-7.994 8.254-7.994 2.354 0 4.096.8 5.064 1.439l3.741-5.882c-1.872-.928-5.515-2.24-10.352-2.24C9.06 45.038 0 49.93 0 59.78c0 9.814 8.158 14.868 17.93 14.868 6.19 0 11.156-3.07 13.96-6.14 3.646 3.933 9.804 5.79 16.092 5.79 4.613 0 9.801-1.046 13.642-3.664z" fill="#ea5b0c"/><path d="M108.4 68.06h-.096c-4.514-.064-8.19-3.55-8.19-8.538 0-4.796 3.772-8.313 8.19-8.346h.097c4.644 0 8.126 3.68 8.126 8.282 0 4.445-3.386 8.602-8.126 8.602m-32.699-.608c-4.45 0-8.061-3.582-8.061-7.994 0-4.443 3.612-8.025 8.061-8.025 4.452 0 8.064 3.582 8.064 8.025 0 4.412-3.612 7.994-8.064 7.994m34.761-21.838c-.741 0-1.45.064-2.158.128-3.321.385-5.935 1.566-7.966 2.974v-2.623h-8.932v4.252c-3.771-3.772-10.447-5.307-15.671-5.307h-.034c-4.751 0-9.91 1.1-13.702 3.73V70.19c3.767 2.61 8.901 3.721 13.702 3.721h.034c5.997 0 11.671-1.885 15.478-5.083v13.43h9.125V70.329c1.42 1.313 4.127 2.942 7.966 3.422.772.096 1.58.16 2.418.16 7.19 0 16.573-4.283 16.573-14.357 0-9.369-7.578-13.94-16.833-13.94" fill="#f59c00"/><path d="M61.612 70.557C58.322 68.319 56 64.833 56 59.814c0-4.989 2.257-8.473 5.612-10.776 3.32 2.303 5.61 5.787 5.61 10.776 0 5.019-2.29 8.474-5.61 10.743" fill="#c9450a"/></g></svg>