<svg xmlns="http://www.w3.org/2000/svg" width="35.144" height="35.144"><g fill-rule="evenodd"><path fill="#fff" d="M0 .153h35.144V34.99H0z"/><path d="M.001 25.987v.884c.424-.24.85-.47 1.249-.683 3.158-1.688 6.312-2.863 9.466-3.58 2.985-.707 5.909-.957 8.582-.72 5.052.45 8.681 2.645 10.43 6.434.015.028 1.263 2.81 1.383 5.435l-.606-1.503c-.16-.75-.367-1.52-.762-2.21-1.294-2.502-3.817-4.297-7.22-5.35-3.091-.97-7.15-1.013-11.36-.194C7.425 25.205 3.62 26.61 0 28.39v6.6h.351c2.172-1.607 4.515-2.784 6.95-3.744 6.385-2.73 12.595-3.557 17.255-2.327 3.422.973 5.658 2.982 6.568 6.07h4.02V19.692c-5.75-.65-21.076-1.705-35.144 6.295z" fill="#006cb3"/><path d="M0 9.605c1.012-.03 2.169.306 3.422.47l-2.202.28c-.375.015-.796.05-1.22.09v.493c1.595-.296 3.34-.488 4.959-.502 14.178-3.363 25.923-.197 25.923-.197C28.362 9.667 14.32 7.763 0 13.356v.848c2.126-.714 4.372-1.266 6.521-1.519 3.186-.39 6.149-.216 8.643.485 10.48-.745 18.074 1.487 18.074 1.487-2.851-.462-18.151-2.55-33.238 4.31v.681c4.177-1.985 8.557-3.13 12.292-3.374 3.785-.202 7.171.334 9.717 1.84 6.003-.093 10.578.68 13.135 1.298V.153H0z" fill="#006cb3"/><path d="M0 15.401v1.1c3.758-1.453 7.548-2.338 11.185-2.862-3.352-.086-7.293.48-11.184 1.762" fill="#006cb3"/><path d="M12.283 11.97c-.923-.346-2.015-.577-3.1-.729.47-.104.93-.193 1.453-.257.76.207 1.765.565 2.724 1.152zm8.257 4.58c-.885-.638-1.814-1.219-3.014-1.708.4-.025.816-.089 1.287-.113.749.493 1.756 1.275 2.353 2.02z" fill="#fff"/><path d="M0 21.054v2.128c6.174-2.984 12.466-4.4 17.949-4.87-5.009-.88-11.429.026-17.948 2.742" fill="#006cb3"/><path d="M26.976 23.59c-1.065-1.563-2.413-2.743-4.284-3.647.56-.066 1.263-.086 1.788-.11.187.137.366.31.534.516.064.092 2.149 2.134 2.848 4.212z" fill="#fff"/><path d="M23.881 31.372c-3.05-.803-6.557-.85-10.447-.135-3.47.63-7.107 1.802-10.605 3.753H29.52c-1.243-1.802-3.222-2.957-5.639-3.618" fill="#006cb3"/></g></svg>