<svg xmlns="http://www.w3.org/2000/svg" viewBox="0 0 90 90"><path fill="#1B212C" d="M0 0h90v90H0z"/><path fill="#FFF" d="M20.44 50.15a.16.16 0 00-.27-.07 4.45 4.45 0 01-3.19 1.22c-2.58 0-4.05-1.71-4.05-4.2 0-2.48 1.47-4.18 4.05-4.18 1.3 0 2.4.43 3.19 1.2l.04.04c.1.1.27.07.32-.06.29-.72.68-1.39 1.15-1.98a.2.2 0 00-.03-.29 7.16 7.16 0 00-4.67-1.6c-4.03 0-6.98 2.84-6.98 6.87s2.95 6.9 6.98 6.9c1.78 0 3.33-.55 4.52-1.5.1-.06.11-.2.04-.28a8.13 8.13 0 01-1.1-2.07z"/><path fill="#FFF" d="M21.61 47.25c0-3.73 2.73-6.36 6.46-6.36 3.77 0 6.47 2.63 6.47 6.36 0 3.72-2.7 6.37-6.47 6.37-3.73 0-6.46-2.65-6.46-6.37zm10.07 0c0-2.38-1.55-3.89-3.61-3.89-2.05 0-3.6 1.51-3.6 3.89 0 2.37 1.55 3.89 3.6 3.89 2.06 0 3.6-1.52 3.6-3.9zm11.27-6.26v2.28c0 .13-.1.24-.23.24h-.03a2.62 2.62 0 00-.4-.03c-2.18 0-3.56 1.32-3.56 3.88v5.86c0 .13-.1.23-.23.23h-2.4a.24.24 0 01-.24-.23V41.14c0-.13.11-.24.24-.24h2.26c.13 0 .23.1.23.24v1.6c.8-1.28 2.2-1.93 4.13-1.98.12 0 .23.1.23.23zm13.16-4.75v16.98c0 .13-.11.24-.24.24h-2.29a.24.24 0 01-.23-.24v-1.38a5 5 0 01-4.06 1.78c-3.56 0-6.2-2.54-6.2-6.45 0-3.9 2.64-6.42 6.2-6.42 1.58 0 2.98.54 3.94 1.7v-6.21c0-.13.1-.24.23-.24h2.41c.13 0 .24.1.24.24zm-2.83 10.94c0-2.4-1.58-3.93-3.65-3.93s-3.65 1.53-3.65 3.93c0 2.4 1.58 3.93 3.65 3.93s3.65-1.53 3.65-3.93zm5.43-6.28h2.4c.13 0 .24.1.24.24v12.08c0 .13-.1.24-.23.24h-2.4a.24.24 0 01-.24-.24V41.14c0-.14.1-.24.23-.24zm18.4-4.66v7.4c-.14 1.98-1.89 2.28-2.86 2.38-.03-3.57-2.07-5.27-5.58-5.27-1.9 0-3.71.48-5.02 1.43-.1.07-.13.2-.07.3l.9 1.72c.06.11.2.16.3.1l.04-.02a6.14 6.14 0 013.5-1.08c2.05 0 3.06 1 3.06 2.72v.2h-3.16c-3.72 0-5.1 1.65-5.1 3.74 0 2.19 1.77 3.76 4.57 3.76 1.84 0 3.17-.6 3.86-1.69v1.3c0 .13.1.24.23.24h2.24c.13 0 .24-.11.24-.24v-4a.1.1 0 00-.1-.1l-2.57-.01c-.05 0-.08.02-.1.07l-.1.35c-.48 1.3-1.7 1.95-3.1 1.95-1.47 0-2.34-.68-2.34-1.74 0-.92.52-1.67 2.48-1.67h5.97c4.56-.07 5.53-3.42 5.6-5.5-.1 3.65-1 5.12-2.71 5.98-.11.05-.14.1-.16.2v4.46c0 .13.1.24.24.24h2.4c.12 0 .23-.1.23-.24v-16.7c0-.41-.1-.52-.23-.52h-2.4c-.14 0-.25.1-.25.24z"/><path fill="#FABC1C" d="M58.31 37.57c0-.87.69-1.55 1.61-1.55.93 0 1.62.64 1.62 1.49 0 .9-.67 1.6-1.62 1.6-.92 0-1.6-.67-1.6-1.54z"/></svg>