<svg xmlns="http://www.w3.org/2000/svg" width="87.105" height="87.105"><g fill="#b31b1b"><path d="M29.533 75.226c6.786 5.349 13.47 8.177 13.753 8.293l.516.219.519-.222c.282-.124 6.944-2.991 13.708-8.282 9.108-7.126 13.923-15.238 13.923-23.465l-.008-37.614-56.35.004-.002 36.96c0 8.569 4.819 16.902 13.941 24.106zm12.986-11.53c-.29-.1-.61-.176-1.009-.176h-.064c-1.37 0-2.397.095-3.485.191a48.86 48.86 0 01-3.82.237c-.749.015-1.423.01-1.933 0V46.259h.233c.68.006 1.513 0 2.556-.02.886-.023 1.856-.128 2.981-.248a92.846 92.846 0 012.016-.2 8.418 8.418 0 012.248.081c.11.026.187.06.277.09v17.733zm26.763-11.927c0 15.397-18.91 25.836-24.478 28.572V66.333c.106-.1.202-.2.279-.29.278-.324.454-.518.988-.521a40.59 40.59 0 013.36.184c1.056.094 2.248.206 3.948.243a38.724 38.724 0 003.037-.037l.949-.05-.001-5.233h2.216v-2.792h-2.218l-.001-5.066h2.218v-2.788h-2.22l-.001-5.692-.975-.023c-.358-.01-.768-.01-1.255-.007-.68-.01-1.486 0-2.51-.025-.796-.017-1.733-.117-2.812-.234-.628-.066-1.306-.137-2.009-.2a9.872 9.872 0 00-2.93.121c-.023.006-.04.014-.064.02v-5.377h24.476l.002 13.204zm-24.48 12.014V46.049c.13-.061.284-.122.495-.17a8.036 8.036 0 012.298-.085c.716.062 1.379.128 1.998.202 1.124.115 2.094.22 2.977.244.89.02 1.629.02 2.252.02h.535l.002 17.687c-.51.01-1.18.02-1.934 0-1.63-.035-2.743-.137-3.817-.234-1.1-.102-2.087-.197-3.545-.194a3.02 3.02 0 00-1.26.263zM18.26 16.829l51.017-.006v19.073H18.26l.001-19.067zm-.002 21.737h24.261v5.324a9.925 9.925 0 00-2.727-.09c-.722.065-1.394.136-2.022.202-1.084.117-2.016.217-2.82.234a92.239 92.239 0 01-2.51.025c-.483 0-.897 0-1.257.007l-.978.023v5.14H27.81v2.792h2.395v5.139H27.81v2.784h2.395v5.716l.944.05c.057.004 1.357.072 3.041.037 1.7-.037 2.894-.149 3.95-.243 1.085-.097 2.024-.184 3.306-.184.503-.006.672.15.943.493.036.046.085.099.13.15v14.054c-5.883-2.893-24.262-13.209-24.262-29.1l.001-12.554z"/><path d="M39.56 18.739H25.321v.997c-.005 3.11-.008 8.368.012 8.609.067 1.077.782 2.053 2.176 2.983 1.72 1.153 4.283 2.653 4.39 2.718l.489.285.492-.27c.117-.064 2.882-1.57 4.61-2.733 2.02-1.347 2.054-2.574 2.068-2.983.017-.223.011-4.804.002-8.61v-.997zm-12.236 1.998h10.238c.002.831.003 1.724.003 2.592H27.321zm10.234 7.551c-.014.498-.651 1.025-1.181 1.376-1.229.827-3.078 1.877-3.955 2.369-.835-.5-2.567-1.542-3.795-2.37-.801-.531-1.275-1.06-1.301-1.45-.004-.145-.006-1.332-.006-2.882h10.246c0 1.56-.002 2.769-.008 2.957zm26.231-9.974H49.233v1c-.003 3.908-.003 8.607.01 8.85.082 1.084.808 2.082 2.23 3.027 1.758 1.181 4.383 2.72 4.495 2.786l.487.287.496-.274c.118-.06 2.957-1.603 4.731-2.799 2.071-1.38 2.1-2.634 2.107-3.049.016-.221.011-4.924.002-8.83zm-2 9.786c-.012.516-.669 1.06-1.218 1.434-1.27.845-3.187 1.928-4.08 2.429-.852-.507-2.636-1.584-3.904-2.43-.39-.262-1.303-.934-1.346-1.52-.002-.054-.003-.24-.004-.525l5.045-3.643 5.513 3.674c-.002.306-.004.51-.007.581zm-5.551-6.694l-5.007 3.617c-.002-1.437-.002-3.172 0-4.707h10.557c.005 1.564.011 3.34.011 4.803zm-8.837 28.605l.952.097a18.95 18.95 0 001.693.14l2.945.085.046-2.006-2.94-.08c-.441-.01-.944-.063-1.53-.126l-.973-.098a4.903 4.903 0 00-.737-.024l.087 1.997c.136-.007.29 0 .457.015zm2.71 3.782c-.42-.012-.902-.066-1.45-.124-.347-.04-.694-.075-1.042-.106-.254-.027-.495-.031-.72-.027l.033 2.002c.142-.005.302 0 .487.018.37.034.71.07 1.03.104.613.065 1.148.12 1.616.133.613.008 1.508.037 2.174.05l.768.02.047-1.995-.767-.025c-.664-.015-1.564-.042-2.176-.05zm.001 5.537a19.676 19.676 0 01-1.476-.128 52.095 52.095 0 00-1.013-.103 5.085 5.085 0 00-.736-.028l.06 1.997c.137 0 .29 0 .472.021.354.033.69.073 1 .1.546.069 1.094.115 1.643.14l.829.021 2.118.053.04-2.004c-.33-.007-1.268-.026-2.103-.051zM37.46 50.225c.49-.009 1.047-.07 1.694-.142.3-.03.619-.062.958-.1.156-.01.315-.022.453-.015l.03-2.005c-.205 0-.435.01-.67.032-.353.03-.681.068-.988.104-.579.058-1.076.12-1.522.123l-2.94.075.047 2.005zm1.496 3.406c-.58.064-1.084.12-1.524.13l-2.942.077.047 2.003 2.94-.076c.492-.013 1.048-.075 1.695-.143l.94-.098c.151-.012.3-.02.437-.013l.092-2a5.502 5.502 0 00-.702.02zm.002 5.534c-.582.066-1.084.124-1.623.132-.931.026-2.406.072-2.84.082l.037 2c.437-.013 1.922-.052 2.948-.08.487-.012 1.045-.074 1.694-.143l.972-.097c.148-.018.296-.02.432-.018l.03-1.998c-.211-.005-.446 0-.667.02z"/><path d="M.004 43.549c0 24.019 19.532 43.556 43.548 43.556 24.016 0 43.549-19.537 43.549-43.557C87.101 19.536 67.567 0 43.551 0S.005 19.536.005 43.549zm43.548-42.04c23.182 0 42.044 18.863 42.044 42.04 0 23.183-18.862 42.044-42.044 42.044-23.185 0-42.043-18.861-42.043-42.045 0-23.176 18.858-42.04 42.043-42.04z"/></g></svg>