<svg width="512" height="512" viewBox="0 0 512 512" fill="none" xmlns="http://www.w3.org/2000/svg"><rect width="512" height="512" rx="89.825" fill="#000C3F"/><g clip-path="url(#clip0_11510_52197)"><path d="M78.8885 376.065C58.3525 365.713 50.1045 340.641 60.4885 320.097L116.056 210.081C126.408 189.537 151.48 181.297 172.016 191.681C192.552 202.033 200.8 227.105 190.416 247.649L134.848 357.665C124.464 378.177 99.4245 386.425 78.8885 376.065Z" fill="white"/><path d="M195.512 376.064C174.976 365.712 166.76 340.64 177.112 320.128L246.608 182.512C256.96 161.968 282.032 153.752 302.544 164.112C323.08 174.464 331.296 199.536 320.944 220.048L251.472 357.664C241.088 378.176 216.048 386.424 195.512 376.064Z" fill="white"/><path d="M312.169 376.063C291.633 365.679 283.385 340.639 293.737 320.095L377.161 154.879C387.513 134.335 412.585 126.119 433.097 136.479H433.129C453.665 146.831 461.881 171.903 451.529 192.415L368.105 357.663C357.753 378.207 332.681 386.447 312.169 376.063Z" fill="white"/><path d="M420.977 368.58V349.71H430.54C431.307 349.71 432.142 349.932 433.045 350.375C433.949 350.801 434.716 351.466 435.347 352.369C435.994 353.256 436.318 354.381 436.318 355.744C436.318 357.125 435.986 358.301 435.321 359.273C434.656 360.227 433.847 360.952 432.892 361.446C431.955 361.94 431.068 362.188 430.233 362.188H423.33V359.119H428.955C429.517 359.119 430.122 358.838 430.77 358.276C431.435 357.713 431.767 356.869 431.767 355.744C431.767 354.585 431.435 353.801 430.77 353.392C430.122 352.983 429.551 352.778 429.057 352.778H425.119V368.58H420.977ZM432.381 359.682L437.085 368.58H432.534L427.932 359.682H432.381ZM428.136 379.83C425.307 379.83 422.656 379.301 420.185 378.244C417.713 377.187 415.54 375.722 413.665 373.847C411.79 371.972 410.324 369.798 409.267 367.327C408.21 364.855 407.682 362.205 407.682 359.375C407.682 356.545 408.21 353.895 409.267 351.423C410.324 348.952 411.79 346.778 413.665 344.903C415.54 343.028 417.713 341.562 420.185 340.506C422.656 339.449 425.307 338.92 428.136 338.92C430.966 338.92 433.616 339.449 436.088 340.506C438.56 341.562 440.733 343.028 442.608 344.903C444.483 346.778 445.949 348.952 447.006 351.423C448.062 353.895 448.591 356.545 448.591 359.375C448.591 362.205 448.062 364.855 447.006 367.327C445.949 369.798 444.483 371.972 442.608 373.847C440.733 375.722 438.56 377.187 436.088 378.244C433.616 379.301 430.966 379.83 428.136 379.83ZM428.136 374.92C431 374.92 433.608 374.222 435.96 372.824C438.313 371.426 440.188 369.551 441.585 367.199C442.983 364.847 443.682 362.239 443.682 359.375C443.682 356.511 442.983 353.903 441.585 351.551C440.188 349.199 438.313 347.324 435.96 345.926C433.608 344.528 431 343.83 428.136 343.83C425.273 343.83 422.665 344.528 420.312 345.926C417.96 347.324 416.085 349.199 414.688 351.551C413.29 353.903 412.591 356.511 412.591 359.375C412.591 362.239 413.29 364.847 414.688 367.199C416.085 369.551 417.96 371.426 420.312 372.824C422.665 374.222 425.273 374.92 428.136 374.92Z" fill="white"/></g><defs><clipPath id="clip0_11510_52197"><rect width="400" height="248.552" fill="white" transform="translate(56 132)"/></clipPath></defs></svg>
