<svg xmlns="http://www.w3.org/2000/svg" viewBox="0 0 512 512"><rect width="512" height="512" fill="#000C3F" rx="90"/><path fill="#fff" d="M78.9 376a41.6 41.6 0 0 1-18.4-55.9l55.6-110a41.6 41.6 0 1 1 74.3 37.5l-55.6 110a41.7 41.7 0 0 1-56 18.5zm116.6 0a41.6 41.6 0 0 1-18.4-55.9l69.5-137.6A41.7 41.7 0 1 1 321 220l-69.4 137.7a41.7 41.7 0 0 1-56 18.4zm116.7 0a41.7 41.7 0 0 1-18.5-55.9l83.5-165.2a41.7 41.7 0 0 1 74.4 37.5L368 357.7a41.6 41.6 0 0 1-56 18.4zm108.8-7.4v-18.9h9.5a5 5 0 0 1 2.5.7 5.8 5.8 0 0 1 3.3 5.3 6 6 0 0 1-1 3.6 6.7 6.7 0 0 1-5 2.9h-7v-3h5.7c.5 0 1.1-.4 1.8-1 .6-.5 1-1.3 1-2.5 0-1.1-.4-1.9-1-2.3-.7-.4-1.2-.6-1.7-.6h-4v15.8zm11.4-9 4.7 9h-4.6l-4.6-9zm-4.3 20.2a20 20 0 0 1-14.4-6 20.6 20.6 0 0 1-4.4-22.4 20.6 20.6 0 0 1 33.3-6.5 20.6 20.6 0 0 1 4.4 22.4 20.6 20.6 0 0 1-18.9 12.5zm0-4.9a15 15 0 0 0 7.9-2 17 17 0 0 0 5.6-5.7 15 15 0 0 0 2-7.8 15 15 0 0 0-2-7.8 15.9 15.9 0 0 0-5.6-5.7 15 15 0 0 0-7.9-2 15 15 0 0 0-7.8 2 15.9 15.9 0 0 0-5.6 5.7 15 15 0 0 0-2.1 7.8c0 2.8.7 5.4 2 7.8a17 17 0 0 0 5.7 5.6 15 15 0 0 0 7.8 2.1z"/></svg>
