<svg xmlns="http://www.w3.org/2000/svg" xmlns:xlink="http://www.w3.org/1999/xlink" width="45.279" height="45.269"><g fill="#fff" stroke="#fff" stroke-width="1.539" stroke-miterlimit="10"><path d="M22.64 34.22a39.454 39.454 0 01-5.52 3.26c1.46 4.32 3.42 7.02 5.2 7.02 1.8 0 3.96-2.76 5.59-7.15-1.69-.82-3.47-1.86-5.27-3.13M22.31.77c-1.82 0-3.82 2.82-5.29 7.3 1.86 1 3.77 2.24 5.61 3.61 1.76-1.31 3.59-2.51 5.37-3.48C26.37 3.64 24.15.77 22.31.77M8.62 29.07c-2.18 4.25-2.77 7.71-1.48 9.01.49.49 1.29.73 2.35.73 1.67 0 3.97-.61 6.56-1.78-.6-1.94-1.1-4.13-1.45-6.47-2.13-.38-4.15-.88-5.98-1.49m27.34-22.6c-1.72 0-4.14.75-6.89 2.15.61 1.82 1.11 3.85 1.48 5.98 2.34.35 4.53.84 6.47 1.45 1.91-4.21 2.32-7.65 1.06-8.91-.46-.45-1.18-.67-2.12-.67M15.5 30.7c.34 2.18.8 4.18 1.34 5.95 1.6-.78 3.31-1.78 5.04-2.97l-3.26-2.61-3.12-.37M28.3 9.03c-1.58.86-3.25 1.92-4.96 3.18l2.33 1.9 3.99.37c-.35-1.97-.82-3.81-1.36-5.45m9.18 8.09c-.96 1.98-2.16 3.99-3.56 5.94 1.23 1.68 2.28 3.35 3.15 4.95 4.56-1.64 7.44-3.86 7.44-5.69 0-1.78-2.71-3.74-7.03-5.2M30.7 15.51l.45 4.06 2.23 2.75c1.33-1.88 2.42-3.73 3.27-5.47-1.77-.55-3.78-1.01-5.95-1.34m-3.97-.46l1.79 1.7 1.68 1.75-.39-3.13-3.08-.32M7.79 17.12C3.47 18.58.77 20.54.77 22.32c0 1.83 2.88 4.05 7.44 5.69.86-1.6 1.92-3.27 3.15-4.95-1.41-1.95-2.62-3.96-3.57-5.94"/><use xlink:href="#B"/><path d="M15.13 27.67l.25 2.14 2.18.29-1.22-1.17-1.21-1.26M9.31 6.47c-.93 0-1.66.22-2.12.68-1.26 1.26-.86 4.69 1.06 8.91 1.91-.6 4.06-1.08 6.37-1.43.33-2.2.79-4.27 1.35-6.11-2.65-1.34-4.99-2.05-6.66-2.05"/><use xlink:href="#C"/><path d="M22.64 12.74L21 14.05h3.28l-1.64-1.31"/><use xlink:href="#D"/><path d="M29.68 30.71l-3.03.36-3.25 2.61c1.65 1.14 3.27 2.09 4.81 2.85.58-1.73 1.09-3.69 1.47-5.82m-9.59.47l2.55 1.98 2.55-1.98-2.55.07c-.86 0-1.71-.03-2.55-.07"/><use xlink:href="#E"/><path d="M30.1 27.71l-2.4 2.39 2.11-.28.29-2.11M18.54 15.05l-3.15.34-.34 3.14 1.7-1.78 1.79-1.7M14.05 21l-1.62 2.06 1.66 2.11-.06-2.53.02-1.64m17.17-.01l-.04 4.19 1.67-2.13-1.63-2.06m-8.58-6.1l-2.71.07-2.56 2.4-2.4 2.56a53.592 53.592 0 00.05 6.32A46.515 46.515 0 0019 30.22l3.64.14 3.64-.14a45.584 45.584 0 003.96-3.96l.14-3.64-.08-2.72-2.39-2.55-2.56-2.4-2.71-.06m0-3.21l-.7.53.7.53.7-.53-.7-.53"/></g><path d="M22.64 34.26c-1.89 1.33-3.76 2.42-5.52 3.26 1.46 4.32 3.42 7.02 5.2 7.02 1.8 0 3.96-2.76 5.59-7.15-1.69-.82-3.47-1.86-5.27-3.13M22.31.81c-1.82 0-3.82 2.82-5.29 7.3 1.86 1 3.77 2.24 5.61 3.61 1.76-1.31 3.59-2.51 5.37-3.48C26.37 3.68 24.15.81 22.31.81" fill="#80c679"/><path d="M8.62 29.11c-2.18 4.25-2.77 7.71-1.48 9.01.49.49 1.29.72 2.35.72 1.67 0 3.97-.61 6.56-1.78-.6-1.94-1.1-4.13-1.45-6.47-2.13-.37-4.15-.87-5.98-1.48m27.34-22.6c-1.72 0-4.14.75-6.89 2.15.61 1.82 1.11 3.85 1.48 5.98 2.34.35 4.53.85 6.47 1.45 1.91-4.21 2.32-7.65 1.06-8.91-.46-.45-1.18-.67-2.12-.67" fill="#f37052"/><path d="M15.5 30.74c.34 2.18.8 4.18 1.34 5.95 1.6-.78 3.31-1.77 5.04-2.97l-3.26-2.61-3.12-.37M28.3 9.07c-1.58.86-3.25 1.92-4.96 3.18l2.33 1.9 3.99.37c-.35-1.97-.82-3.81-1.36-5.45" fill="#ddbe3b"/><path d="M37.48 17.16c-.96 1.98-2.16 3.99-3.56 5.94 1.23 1.68 2.28 3.35 3.15 4.95 4.56-1.64 7.44-3.86 7.44-5.69 0-1.79-2.71-3.74-7.03-5.2" fill="#e2e771"/><path d="M30.7 15.55l.45 4.06 2.23 2.75c1.33-1.88 2.42-3.73 3.27-5.47-1.77-.55-3.78-1.01-5.95-1.34" fill="#f4c633"/><path d="M26.73 15.09l1.79 1.7 1.68 1.75-.39-3.13-3.08-.32" fill="#f1dd1b"/><path d="M7.79 17.16C3.47 18.62.77 20.58.77 22.36c0 1.84 2.88 4.05 7.44 5.69.86-1.6 1.92-3.27 3.15-4.95-1.41-1.95-2.62-3.96-3.57-5.94" fill="#e2e771"/><use xlink:href="#B" y=".04" fill="#f4c633"/><path d="M15.13 27.71l.25 2.14 2.18.29-1.22-1.17-1.21-1.26" fill="#f1dd1b"/><path d="M9.31 6.51c-.93 0-1.66.22-2.12.68-1.26 1.26-.86 4.69 1.06 8.91 1.91-.6 4.06-1.08 6.37-1.43.33-2.2.79-4.27 1.35-6.11-2.65-1.35-4.99-2.05-6.66-2.05" fill="#00c0f3"/><use xlink:href="#C" y=".04" fill="#00bccd"/><path d="M22.64 12.78L21 14.09h3.28l-1.64-1.31" fill="#c9d8c0"/><use xlink:href="#D" y=".04" fill="#00c0f3"/><path d="M29.68 30.75l-3.03.36-3.25 2.61c1.65 1.14 3.27 2.09 4.81 2.85.58-1.73 1.09-3.69 1.47-5.82" fill="#00bccd"/><path d="M20.09 31.22l2.55 1.98 2.55-1.98-2.55.07c-.86 0-1.71-.03-2.55-.07" fill="#c9d8c0"/><use xlink:href="#E" y=".04" fill="#a4dad1"/><path d="M30.1 27.75l-2.4 2.39 2.11-.28.29-2.11M18.54 15.09l-3.15.34-.34 3.14 1.7-1.78 1.79-1.7" fill="#aadac6"/><path d="M14.05 21.04l-1.62 2.06 1.66 2.11-.06-2.53.02-1.64m17.17-.01l-.04 4.19 1.67-2.13-1.63-2.06" fill="#e4e2c1"/><path d="M22.64 14.93l-2.71.07-2.56 2.4-2.4 2.57a53.592 53.592 0 00.05 6.32A46.515 46.515 0 0019 30.27l3.64.14 3.64-.14a45.584 45.584 0 003.96-3.96l.14-3.64-.08-2.72-2.39-2.55-2.56-2.4-2.71-.07" fill="#e7eac0"/><path d="M22.64 11.72l-.7.53.7.53.7-.53-.7-.53" fill="#f1f8ef"/><defs><path id="B" d="M11.89 23.79a41.473 41.473 0 00-2.85 4.51c1.64.54 3.47 1.01 5.45 1.36l-.31-3.05-2.29-2.82"/><path id="C" d="M16.76 8.92c-.5 1.68-.92 3.55-1.24 5.58l4.09-.38 2.33-1.9a43.254 43.254 0 00-5.18-3.3"/><path id="D" d="M36.65 29.07c-1.85.61-3.91 1.12-6.08 1.5-.39 2.28-.93 4.43-1.59 6.35 2.69 1.25 5.07 1.89 6.8 1.89 1.05 0 1.86-.24 2.35-.72 1.29-1.31.69-4.76-1.48-9.02"/><path id="E" d="M33.39 23.79l-2.31 2.85-.36 3.03c2.01-.36 3.87-.83 5.53-1.38a46.04 46.04 0 00-2.86-4.5m-18.9-8.27c-2.15.34-4.12.79-5.87 1.33.85 1.74 1.94 3.6 3.27 5.47l2.22-2.73.38-4.07"/></defs></svg>