<svg xmlns="http://www.w3.org/2000/svg" width="384" height="384"><defs><clipPath clipPathUnits="userSpaceOnUse" id="a"><path transform="scale(1 -1)" fill="#00f" fill-rule="evenodd" stroke-width=".75" d="M-148.408-234.455h288v288h-288z"/></clipPath></defs><g transform="matrix(1.33333 0 0 -1.33333 197.877 305.88)" clip-path="url(#a)"><path d="M0 0c-1.687-6.342-8.7-10.705-18.236-11.82-11.786-1.348-19.396 1.249-23.286 7.983-6.87 11.897 4.956 32.107 19.327 40.863 0 0 .618.345 1.588.866C-10.167 27.801 3.266 12.247 0 0m-37.582 65.56c-15.903 12.693-24.671 21.639-33.71 33.726-4.888 6.538-4.907 8.359-6.889 12.193-1.048 2.032-2.613 5.64-3.446 7.612-6.311 15.201-5.811 27.248 1.252 39.32 11.525 19.706 37.445 28.375 53.448 26.443 19.19-2.378 39.847-23.333 45.655-38.27 9.266-23.835-13.716-62.477-52.367-83.51-.149-.081-.292-.136-.441-.216-2.023 1.565-3.502 2.702-3.502 2.702M-148.39 43.537c27.624-2.281 69.015-.641 85.658 1.844 9.775 1.459 18.755 3.912 26.219 6.724 1.886-1.631 3.784-3.257 5.63-4.897.603-.537 1.454-1.275 2.477-2.171a20.429 20.429 0 01-1.37-.873C-63.232 20.788-51.036-.82-46.963-7.084c8.437-12.955 22.245-14.412 28.009-14.412 1.488 0 2.445.087 2.61.115 11.702 1.342 22.313 9.34 25.212 18.995 2.865 9.565-3.847 27.772-20.504 44.637a22.93 22.93 0 001.945.701c4.033 1.196 10.925 3.368 24.973 4.384 2.924.217 45.62 1.119 53.311.693 6.823-.358 58.562-2.71 70.37-2.977l61.595-1.924c27.564-.779 65.665-1.186 89.889 0 11.553.547 24.33.084 39.12-.462 16.832-.659 35.899-.426 58.442.189 3.508-.078 7.454-.171 11.758-.273 31.075-.765 76.133-2.94 106.578 1.65 7.535 1.134 7.945 1.485 12.088 2.548.397 4.378.615 3.321 1.394 7.212.52 2.579 1.846 5.316 1.846 5.316-3.616-1.184-13.678-3.166-21.431-4.046-5.792-.661-18.662-1.591-27.583-2.231-8.721-.643-16.251-1.171-19.025-1.249-.979-.028-8.405.087-19.613.277-47.374.786-158.296 2.656-205.137.708-14.99-.624-51.047.622-72.592 1.401-6.193.206-11.143.321-13.979.376 0 0-44.108 1.893-60.322 2.34-16.222.426-45.397.268-53.177.063-23.006-.619-38.089-4.22-47.209-7.446-1.808 1.969-3.859 4.086-5.4 5.345-.609.488-1.439 1.14-2.38 1.879.18.096.385.191.562.287 40.447 22.17 63.969 64.152 51.167 93.979-7.749 18.065-24.783 39.073-51.633 40.978-9.412.665-42.355 3.446-61.809-29.864-9.381-16.03-9.331-35.727-1.594-52.413 12.32-26.583 33.272-40.807 40.092-46.596 1.8-1.518 3.577-3.03 5.361-4.543-3.611-1.19-7.327-2.037-11.354-2.613-8.738-1.246-58.031-5.506-93.025-1.961z" fill="#d4490b"/></g></svg>