<svg xmlns="http://www.w3.org/2000/svg" width="29.569" height="29.569"><path d="M29.561 14.545a9.766 9.766 0 00-.022-.344v-.004a7.388 7.388 0 00-1.221-3.468 7.582 7.582 0 00-3.087-2.672c-1.145-.547-2.41-.823-3.76-.823a9.076 9.076 0 00-3.136.547c-.869.314-1.626.729-2.245 1.227-.474.372-.9.873-1.297 1.33l-.001-.002-.004-.004a7.412 7.412 0 00-.617.854c-.109.172-.216.349-.318.526-.547 1.108-1.095 2.213-1.641 3.32-.31.627-.642 1.252-1.013 1.768-.827.907-1.762 1.35-2.964 1.35-.084 0-.17-.003-.258-.008-.724-.03-1.345-.2-1.896-.526a3.164 3.164 0 01-1.224-1.27 3.278 3.278 0 01-.402-1.686l.002-.043c.039-.936.396-1.664 1.115-2.293.202-.193.43-.3.63-.438.534-.291 1.142-.436 1.839-.436l.217.006c1.107.042 1.961.388 2.642 1.063l2.136-3.835a8.417 8.417 0 00-1.724-.875c-.024-.01-.049-.02-.074-.027-.076-.027-.151-.055-.229-.08a9.136 9.136 0 00-2.115-.428l-.056-.007c-.112-.007-.226-.021-.338-.026-.16-.008-.286-.006-.434-.008-1.343.005-2.591.28-3.732.825a7.605 7.605 0 00-3.082 2.669A7.398 7.398 0 000 14.893c-.001 1.926.701 3.62 2.097 5.042 1.457 1.492 3.352 2.296 5.627 2.39.146.007.29.01.434.01 1.287 0 2.478-.228 3.546-.686.549-.223 1.032-.552 1.474-.844.561-.397.886-.794 1.34-1.277 1.067-1.494 1.84-3.2 2.703-4.816v-.007l.11-.212.092-.166c.273-.497.47-.85.731-1.221l.007-.011c.609-.883 1.656-1.512 2.89-1.618 2.07-.178 3.884 1.182 4.051 3.038.166 1.856-1.378 3.505-3.448 3.684-.431.037-.85.008-1.245-.08l-.01.005c-1.519-.316-2.486-1.424-2.963-1.92l-1.992 3.664s.619.624 1.043.936c.425.31.974.617 1.412.807a8.794 8.794 0 003.496.726c.148 0 .118 0 .272-.006 2.273-.095 4.299-.966 5.76-2.458 1.384-1.417 2.135-3.035 2.142-4.95.001-.13-.006-.267-.008-.378z" fill="#2a73cc"/></svg>