<svg xmlns="http://www.w3.org/2000/svg" width="336.912" height="336.912"><circle cx="168.456" cy="168.456" r="168.456" fill="#0056d2" fill-rule="evenodd" paint-order="markers fill stroke"/><path d="M68.496 168.483c0-58.652 47.945-105.759 107.892-105.759a108.638 108.638 0 0 1 91.19 48.43l-44.947 26.072a56.204 56.204 0 0 0-46.243-23.979c-30.825 0-56.086 25.694-56.086 55.236s25.261 55.235 56.086 55.235a55.576 55.576 0 0 0 47.526-26.178l44.502 26.545a108.56 108.56 0 0 1-92.054 50.104c-59.921.052-107.866-47.958-107.866-105.706z" fill="#fff"/></svg>