<svg xmlns="http://www.w3.org/2000/svg" viewBox="0 0 72.7 118.7"><path fill="#003768" d="M0 23.5 72.6 0v15.9L2.7 43.3C1.6 36.8.6 30.2 0 23.5Z"/><path fill="#c1d82f" d="M43.3 17.9A66.7 66.7 0 0 1 62 14.7c3.6 0 7.1.3 10.6 1.2l-.2 53.8-14.6 24.2L7.2 63.3S4 50 2.8 43.3c4.5-4.7 9.4-8.8 14.8-12.5a94 94 0 0 1 25.7-12.9Z"/><path fill="#fff" d="M36.7 34.1c2.1-1.4 4.7-1.9 7.2-1.7a10 10 0 0 1 9.3 8.1c.5 2.9 0 6.1-1.7 8.5a9.8 9.8 0 0 1-5.4 3.7l4.8 4.8c.6.6 1.2 1.1 2 1.3.8.3 1.7.3 2.5.4v.6c-2.7.6-5.6.6-8.1-.7-2-1-3.4-2.8-4.9-4.3-.6-.6-1.1-1.3-1.9-1.7-.8-.5-1.6-.7-2.4-1.1a9.4 9.4 0 0 1-4.5-4.1 11.6 11.6 0 0 1-.6-9.3c.7-1.7 2-3.3 3.7-4.5zm5-.4c-.9.2-1.7.6-2.4 1.2a8.4 8.4 0 0 0-2.1 4.2c-.4 2-.5 4.1-.3 6.2.2 1.9.7 3.9 2 5.3 1.8 2.1 5.4 2.1 7.3.1 1.4-1.5 2-3.6 2.2-5.6.2-2.2.2-4.5-.4-6.6a7 7 0 0 0-2.3-3.9c-1-.9-2.5-1.2-4-.9z"/><path fill="#003768" d="M18.3 33.7c1.6-.9 3.4-1.3 5.2-1.3h7.2v5.7h-1c-.6-1.5-1.6-3-3-3.8a6 6 0 0 0-5.2-.4 5.7 5.7 0 0 0-2.8 3.1c-.9 1.9-1 4.1-.9 6.2.1 2.2.7 4.6 2.3 6.3a6.7 6.7 0 0 0 5.9 1.8 8.6 8.6 0 0 0 4.8-2.9v1.1a9 9 0 0 1-5.6 3.6c-2.8.5-5.9 0-8.2-1.7a9.6 9.6 0 0 1-3.6-5.6c-.5-2.3-.4-4.8.5-7.1.8-2 2.4-3.9 4.4-5zm34.6 16.1h6.8v13.7c0 .8-.1 1.6.2 2.4a3 3 0 0 0 1.7 2.1c1 .5 2.1.5 3.2.2 1.4-.4 2.5-1.5 3.6-2.5V49.9h4.3v19.8h-4.3v-2.6c-1.4 1.3-2.9 2.8-4.9 3-2 .3-4.3 0-5.9-1.4a6.3 6.3 0 0 1-2.1-4.8V53.3c0-.7 0-1.4-.5-1.9-.5-.6-1.3-.8-2-1z"/><path fill="#003768" d="M61.8 79.5c3.8-3 7.4-6.3 10.8-9.9 0 5.8-1.2 11.6-3.5 16.8a52.3 52.3 0 0 1-8.5 13.2 94.7 94.7 0 0 1-24.5 19.1 107.4 107.4 0 0 1-14.4-20.4s29.4-10.5 40.1-18.8z"/><path fill="#6280a7" d="M7.4 63.2a99.7 99.7 0 0 1 54.4 16.3 101.7 101.7 0 0 1-27 15.3 75.8 75.8 0 0 1-13.2 3.6c-6.2-11-10.7-23-14.2-35.2Z"/></svg>
