<svg xmlns="http://www.w3.org/2000/svg" fill="#35b7f4" viewBox="0 0 153.3 169.8"><path d="m102.6 57.7-10 6-9.6 5.7q-1.4 1-3 .3l-19-7.8-1.4-.5v21.8c0 .6-.4 1.4-.8 1.6L40.3 96l-.7.3V54.9q0-1.8-1.5-2.2l-13.4-5.3c-3-1.2-5 .2-5 3.4v64.6c0 4 1 5.2 4.9 6.8l49 19.8 15.2 6.1c2.6 1.2 5-.6 5-3.5q-.2-6.8 0-13.4 0-1.7-1.4-2.1l-32-12.9-10-4 10-5.9 10.3-6.1q.9-.5 1.9-.2l20.5 8.2.6.2V86.6c0-.5.3-1.3.7-1.5l19.1-11.5v2l.2 58.5-.2 17.7a18.7 18.7 0 0 1-20.2 18 24 24 0 0 1-6.9-1.6L14 139.1a21 21 0 0 1-11-8.3 25 25 0 0 1-3-13.1l.1-50.3V43.2C.3 36 6 28.4 14 26.3a20 20 0 0 1 13 .8l30 12 43.6 17.6zM59.5 33.4l-9.7-3.9-9.1-3.7q-.9-.4-1-1c-.1-3.8-.4-7.5.6-11.2 2-7 8.5-12.5 15.7-13.4a21 21 0 0 1 10.8 1.4L139.5 31a22 22 0 0 1 9.6 6.3 19 19 0 0 1 3.8 10.6q.4 4.5.3 9v65.5c0 4.3-.2 8.6-2.5 12.5a19 19 0 0 1-13.8 9.2c-4.4.8-8.4-.2-12.4-2-1.3-.6-3.1-.8-3.8-1.9s-.3-2.7-.3-4.1v-16.7l6.4 2.5q1.5.7 2.8 1a3 3 0 0 0 3.6-2l.3-2-.2-65.6q-.1-3.8-3.7-5.2l-26-10.5-38.2-15.4q-.9-.4-1.9-.6c-2.1-.5-4 .8-4 3z"/></svg>