<svg xmlns="http://www.w3.org/2000/svg" viewBox="0 0 1000 500"><path fill="#ff6b00" d="M992 298a11 11 0 0 0-5-1c-3 0-5 0-8 2-3 1-4 3-5 5l-10 17c-4 8-10 15-16 21l-17 19c-1 1-3 2-5 1l-1-4 5-47 3-21 3-31 10-76c1-5 1-15-6-22a19 19 0 0 0-9-4c-4-1-8 0-11 2-9 7-12 21-15 32-6 25-7 51-20 75a76 76 0 0 1-8 13c-2 3-5 6-8 7a14 14 0 0 1-10 3c-5-1-8-5-10-9a36 36 0 0 1-3-13c-1-23 4-46 10-67l5-15c1-7 1-16-5-22a22 22 0 0 0-21-5c-8 2-13 10-15 16-9 19-11 40-14 60a102 102 0 0 1-37 69c-5 3-9 5-14 4-4 0-9-3-11-8a36 36 0 0 1-4-14l-2-25c0-9 0-18 2-28 3-16 28-80 34-97a509 509 0 0 0 14-52c4-16 6-32 5-48 0-11-3-24-12-30-7-6-17-6-25-3-8 4-15 11-19 18a105 105 0 0 0-9 25 506 506 0 0 0-12 54l-8 52-11 79c-2 11-7 22-12 32-6 11-11 23-18 33l-7 10c-3 2-7 3-11 2-4-2-6-8-7-13-3-18 0-36 3-54l22-119c4-22 10-43 11-66 2-16 4-36-8-49-5-6-13-7-18-6a28 28 0 0 0-16 13 72 72 0 0 0-11 19c-5 12-8 26-11 38l-1 5a454 454 0 0 0-8 49 679 679 0 0 0-3 26l-1 13c0 3 1 7-1 10l-2 3c-3 3-8 2-13 2a66 66 0 0 0-56 31c-8 11-12 23-16 35l-3 6a124 124 0 0 1-22 41l-16 17a47 47 0 0 1-22 11c-7 1-16-2-22-9a39 39 0 0 1-9-22l1-7c2-3 6-3 10-3a68 68 0 0 0 57-42c6-14 8-29 5-44a49 49 0 0 0-8-20 39 39 0 0 0-16-13 55 55 0 0 0-42 0c-24 10-40 31-48 65v4c-5 20-10 41-25 56-5 5-10 7-15 6-2 0-3-2-4-3-4-7 0-22 6-42l4-15c0-8-1-15-4-21-4-5-9-10-16-13-6-3-13-3-19-3h-9a9 9 0 0 1-6-6l1-9 1-3c2-6-1-14-7-17-6-4-13-4-20-2a33 33 0 0 0-15 15c-3 6-5 13-4 20a47 47 0 0 1 2 19 82 82 0 0 1-16 31l-5 7c-9 14-19 25-29 34a116 116 0 0 1-51 28c-32 7-63-2-80-30a120 120 0 0 1-15-53c-2-36 4-72 18-105 14-31 34-63 72-67 14-2 31 4 38 17 4 9 3 21 0 31s-8 20-8 31 5 23 15 26 21-4 27-12c6-9 8-19 10-30 6-23 15-46 28-68 5-9 12-20 10-31-1-8-7-15-15-17-8-3-17 0-23 6-5 6-8 15-16 17-7 3-14-2-21-5a96 96 0 0 0-81-2C79 28 58 48 42 72A244 244 0 0 0 1 230c2 19 4 35 9 50 6 17 13 33 23 45a98 98 0 0 0 39 31 122 122 0 0 0 99-3 174 174 0 0 0 42-28 217 217 0 0 0 61-82c2-5 4-9 8-11 3-2 7-1 9 0 2 2 5 3 6 6 1 5 0 10-1 14l-4 13c-5 18-9 34-6 50a47 47 0 0 0 10 21 35 35 0 0 0 21 11c11 2 21-1 30-5a69 69 0 0 0 24-18c2-3 4-7 8-7l4 3 3 5a61 61 0 0 0 55 35h3c11 0 23-4 33-9 11-6 20-15 29-23l3-2c2 0 3 0 4 2l2 4a46 46 0 0 0 35 27 46 46 0 0 0 41-14l7-8c3-2 6-3 9-2 5 2 6 7 8 12 4 9 15 15 25 15 12 0 23-6 32-14 8-7 15-17 22-25a15 15 0 0 1 4-4c2-1 4-2 6 0l2 4a45 45 0 0 0 42 26 69 69 0 0 0 46-21c4-4 8-8 13-9 6 0 9 5 11 9a32 32 0 0 0 10 14 27 27 0 0 0 23 5 39 39 0 0 0 20-14l8-11c3-4 5 1 5 4l1 15-4 29c0 3 0 5-2 8-3 2-7 3-11 2a129 129 0 0 0-13-1l-6-1-25-1h-8c-17 0-31 2-43 6a71 71 0 0 0-42 43 53 53 0 0 0-2 26 53 53 0 0 0 12 24 67 67 0 0 0 48 23c17 1 35-2 53-11 36-15 62-45 71-81l1-2a125 125 0 0 0 61-44l11-16 8-15 6-13c0-5 0-10-3-14a10 10 0 0 0-5-5m-570-68 2-9a73 73 0 0 1 11-21c2-2 3-4 6-5 2-2 5-3 8-2 4 0 7 5 8 9a43 43 0 0 1-5 24 47 47 0 0 1-13 17l-7 5-5 1h-1c-2 0-4-1-5-4-1-5 0-10 1-15m179-8-1 10-1 12 1 20c1 6 2 12-1 19a45 45 0 0 1-23 26 22 22 0 0 1-10 3l-3-1c-5 0-9-4-11-7l-4-11a90 90 0 0 1 3-47c3-9 8-18 16-25 6-6 15-10 23-10 3 0 7 1 9 3a9 9 0 0 1 2 7v1m268 194-3 6a80 80 0 0 1-20 22 99 99 0 0 1-32 16 84 84 0 0 1-21 3h-1a34 34 0 0 1-22-7c-2-2-6-6-7-11 0-4 0-8 3-12 3-7 8-13 15-16a87 87 0 0 1 43-7l17 1 13 1h7l6 1c2 0 3 1 2 3"/></svg>
