<svg xmlns="http://www.w3.org/2000/svg" version="1.0" width="638.826" height="638.826" viewBox="0 0 479.119 479.119"><path d="M48.06.62c-20.9 4.2-38.5 20-45.7 40.9l-2.3 6.6v383l2.3 6.6c6.3 18.2 19.3 31.5 38 38.8l6.7 2.6h385l6.7-2.6c18.7-7.3 31.7-20.6 38-38.8l2.3-6.6v-383l-2.3-6.6c-6.3-18.2-19.3-31.5-38-38.8l-6.7-2.6-190-.1c-104.5-.1-191.8.2-194 .6z" fill="#005d00"/><path d="M177.06 169.62c29.9 3.4 45.1 14 43.2 29.9-.6 4.7-2.9 10.4-5.9 14.5-1.4 1.8-1.8 1.7-9.9-2.2-11-5.4-20.8-8-34.9-9.4-20.9-2.1-38 2.8-50.5 14.4-14.3 13.3-21.8 36.4-20.1 62.5 1.4 21.1 7.4 36.3 19 47.8 10.8 10.7 21.5 15.5 38.1 17 14.2 1.3 39-4.6 55.7-13.2 4-2.1 7.6-3.9 8.1-4.1.4-.2.7 8 .7 18.1v18.6l-8.1 3.1c-12.1 4.7-24.7 7.7-39.2 9.6-59.5 7.6-101.5-22.3-111.8-79.6-2-11.1-1.8-37.5.4-48 4.6-22 12.1-37.1 25.1-50.9 15.3-16.1 32.8-24.4 59.6-28.5 5.3-.7 21.9-.5 30.5.4zM289.56 188.72v99l8.9-7.6c14.3-12.2 35.9-35 46.1-48.7 14.4-19.2 26.4-40.1 36.1-63.2 2.3-5.5 4.3-9 5.1-8.8 4.4.9 32.8 11.9 32.8 12.6 0 1.7-9.3 22.4-14.7 32.6-10.6 20-28 45.7-42.1 62l-3.9 4.5 30.7 51 30.8 51-4.2 2c-6.1 2.9-21 2.7-28.9-.4-11.1-4.4-15.3-9.5-36.2-44.6-10.3-17.3-19-31.5-19.4-31.5-.3 0-5.3 4.1-11.1 9-5.8 5-14.9 12.3-20.2 16.3l-9.7 7.2-.1 21.3v21.2l-18.7-.2-18.8-.3-.3-141.8-.2-141.7h38z" fill="#fff"/></svg>