<svg xmlns="http://www.w3.org/2000/svg" viewBox="0 0 79.5 76"><path fill="#ff6733" d="M68.7 41.3A2.2 2.2 0 0 0 66 43l-.3 2a52.3 52.3 0 0 1-7.3 17.7c-3.7 5.5-8 8.8-11.6 8.8A14.6 14.6 0 0 1 42 71a21.7 21.7 0 0 0-13 0 14.6 14.6 0 0 1-4.9.7c-3.5 0-7.8-3.3-11.5-8.8A52.3 52.3 0 0 1 5.3 45c-1.5-7-1.2-13.2.8-18a16.3 16.3 0 0 1 22-8.8 18.8 18.8 0 0 0 7.4 1.6 18.8 18.8 0 0 0 7.5-1.5 17.1 17.1 0 0 1 7-1.5 14 14 0 0 1 4.1.6 17.3 17.3 0 0 1 2.2.9 2.2 2.2 0 0 0 3-1 2.2 2.2 0 0 0-1.1-3 21.8 21.8 0 0 0-2.8-1 18.3 18.3 0 0 0-5.3-1 21.4 21.4 0 0 0-8.6 1.8h-.1a18.6 18.6 0 0 1-3.6 1.2 19.6 19.6 0 0 0-.8-3.6C45.5 10.2 45.2 0 45.2 0c-7 1-9.9 3.7-11.1 6.2A16 16 0 0 0 30 2.4a2.6 2.6 0 1 0-3 4.4 12.3 12.3 0 0 1 5.4 8.4 22.9 22.9 0 0 1-2.8-1h-.1a21.4 21.4 0 0 0-8.6-1.7c-6.7 0-15.3 4.5-19 13a36 36 0 0 0-1 20.4 56.8 56.8 0 0 0 8 19.3C13.5 72.2 19 76 24 76a19 19 0 0 0 6.2-1 17.3 17.3 0 0 1 10.5 0 18.9 18.9 0 0 0 6.2 1c5 0 10.6-4 15.2-10.8A56.8 56.8 0 0 0 70 45.9l.4-2.1a2.2 2.2 0 0 0-1.8-2.5"/><path fill="#ff6733" d="m78.6 29.9-6-4.3-.4-.2V25l.2-7.4a2.2 2.2 0 0 0-1-2 2.2 2.2 0 0 0-2.3 0l-6.4 3.2a6.5 6.5 0 0 0-3.4 5l-.6 5.8-4.6 2.5a22.3 22.3 0 0 0-34.3-3.5 22 22 0 0 0 0 31.3 22.2 22.2 0 0 0 38-15.6A21.9 21.9 0 0 0 56 36l4.6-2.5 5 3a6.5 6.5 0 0 0 6 .4l6.6-3.2a2.2 2.2 0 0 0 .3-3.8M53.4 44.3a17.8 17.8 0 0 1-30.5 12.5 17.6 17.6 0 0 1 0-25 17.9 17.9 0 0 1 27.3 2.4l-6 3.2a11 11 0 0 0-16.5-.9 11 11 0 0 0 0 15.5 11 11 0 0 0 18.5-10.7l6-3.2a17.5 17.5 0 0 1 1.2 6.2m-19.3.9a2.2 2.2 0 0 0 2.9 1l5.1-2.8a6.6 6.6 0 1 1-2-3.9l-5 2.8a2.2 2.2 0 0 0-1 2.9m29.4-20c.1-.9.3-1.6 1-2l3.4-1.7-.4 4-4.3 2.2zm6 7.6a2.5 2.5 0 0 1-2.3-.3L65 31.1l4.2-2.1 3.6 2z"/></svg>