<svg xmlns="http://www.w3.org/2000/svg" xmlns:xlink="http://www.w3.org/1999/xlink" width="1021.639" height="1021.639" xmlns:v="https://vecta.io/nano"><defs><clipPath id="A"><path d="M181.664 508.158c-44.168-36.665-63.68-87.084-71.68-142.598-4.142-28.744.268-57.22 6.364-85.34 9.56-44.1 28.098-84.626 50.316-123.385 26.197-45.703 58.032-86.842 100.125-119.17 17.588-13.508 36.858-21.47 59.132-21.456l74.12.004.002.084 75.884.058c18.738.17 36.33 5.155 50.953 17.133 16.398 13.432 33.16 26.793 47.524 42.297 45.62 49.248 78.03 106.905 99.717 170.368 19.063 55.787 24.516 112.356 4.435 169.696-14.86 42.432-37.413 78.843-75.492 103.537-47.992 31.124-97.622 35.367-150.165 10.186-34.996-16.773-71.44-15.167-107.16.198-9.17 3.945-18.21 8.585-27.776 11.13-13.35 3.55-26.317 5.26-38.902 5.26-35.577 0-68.08-13.664-97.398-38.002"/></clipPath><clipPath id="B"><path d="M0 800h800V0H0z"/></clipPath><clipPath id="C"><path d="M608.947 646.814c-13.957-8.496-33.374-28.218-43.69-100.126-6.07-51.884 2.73-61.897 2.73-61.897l88.293 131.985s3.035 16.99-6.37 27.307c-5.158 5.657-12.78 8.485-20.913 8.486-6.7 0-13.744-1.918-20.048-5.755m64.668-45.787L570.66 480.323s12.002-5.783 60.222 14.06c66.314 29.335 80.015 53.37 84.404 69.118s-1.246 32.464-13.704 38.748c-3.677 1.855-7.62 2.51-11.35 2.51-8.912 0-16.617-3.73-16.617-3.73"/></clipPath><clipPath id="D"><path d="M300.473 566.167c78.268-48.315 115.1-36.81 115.1-36.81s-49.108 19.94-92.08 64.42c0 0 81.338-52.918 110.496-50.617 0 0 15.347 71.323-69.06 133.444S265.943 705.747 171.56 782.44c0 0 28.39-151.85 128.912-216.272m178.59 97.07c-48.654-34.855-39.808-74.874-39.808-74.874 16.807-1.3 63.692 28.4 63.692 28.4-24.77-24.958-53.077-36.146-53.077-36.146s21.23-6.455 66.346 20.654c57.942 36.147 74.307 121.347 74.307 121.347-54.403-43.03-62.807-24.528-111.46-59.382"/></clipPath><clipPath id="E"><path d="M252.087 283.815c0-81.45 66.268-147.718 147.72-147.718s147.72 66.267 147.72 147.718-66.266 147.72-147.72 147.72-147.72-66.268-147.72-147.72m44.576 0c0 56.875 46.27 103.143 103.145 103.143S502.952 340.7 502.952 283.815s-46.27-103.143-103.144-103.143-103.145 46.268-103.145 103.143"/></clipPath><clipPath id="F"><path d="M326.036 282.36c0-40.682 33.093-73.775 73.772-73.775s73.772 33.093 73.772 73.775c0 40.676-33.093 73.77-73.772 73.77s-73.772-33.093-73.772-73.77m44.575 0c0 16.096 13.098 29.194 29.197 29.194s29.197-13.098 29.197-29.194c0-16.102-13.098-29.2-29.197-29.2s-29.197 13.098-29.197 29.2"/></clipPath><clipPath id="G"><path d="M399.807 280l77.37-263.8 15.474 1.84c8.553 1.04 13.32 3.675 13.655 3.675L413.46 280z"/></clipPath><clipPath id="H"><path d="M-32768 32767h65535v-65535h-65535z"/></clipPath><clipPath id="I"><path d="M649.114 613.902c-3.96-4.553.972-11.294 6.662-16.24s12.88-3.945 15.474-.91c3.96 4.553 1.025 11.488-4.666 16.435-3 2.61-6.593 3.932-9.9 3.932-2.965 0-5.698-1.063-7.57-3.215"/></clipPath><clipPath id="J"><path d="M399.892 281.706s-1.093-5.28 4.55-9.102c5.097-3.824 9.102 0 9.102 0L669.32 594.826l-20.934 18.205z"/></clipPath><linearGradient x1="0" y1="0" x2="1" y2="0" gradientTransform="scale(584.39502 -584.39502) rotate(45 1.241 -.046)" spreadMethod="pad" id="K" xlink:href="#U"><stop offset="0" stop-color="#ed3237"/><stop offset=".792" stop-color="#ad3234"/></linearGradient><linearGradient x1="171.561" y1="655.299" x2="590.52438" y2="655.299" spreadMethod="pad" id="L" xlink:href="#U"><stop offset="0" stop-color="#12804c"/><stop offset=".18" stop-color="#12804c"/><stop offset=".725" stop-color="#a0cb46"/></linearGradient><linearGradient x1="0" y1="0" x2="1" y2="0" gradientTransform="scale(153.64046 -153.64046) rotate(-51.816 -1.431 -5.448)" spreadMethod="pad" id="M" xlink:href="#U"><stop offset="0" stop-color="#f89830"/><stop offset=".18" stop-color="#f89830"/><stop offset=".725" stop-color="#f16237"/></linearGradient><linearGradient x1="399.807" y1="148.105" x2="506.30459" y2="148.105" spreadMethod="pad" id="N" xlink:href="#U"><stop offset="0" stop-color="#fff"/><stop offset="1" stop-opacity="0" stop-color="#fff"/></linearGradient><linearGradient x1="252.087" y1="283.815" x2="547.52624" y2="283.815" spreadMethod="pad" id="O" xlink:href="#U"><stop offset="0" stop-color="#ed3237"/><stop offset=".943" stop-color="#ad3234"/></linearGradient><linearGradient x1="399.807" y1="148.105" x2="506.30459" y2="148.105" spreadMethod="pad" id="P" xlink:href="#U"><stop offset="0" stop-color="#231f20"/></linearGradient><linearGradient x1="647.685" y1="605.664" x2="673.06883" y2="605.664" spreadMethod="pad" id="Q" xlink:href="#U"><stop offset="0" stop-color="#c2714d"/><stop offset=".182" stop-color="#c2714d"/><stop offset=".724" stop-color="#d89f77"/></linearGradient><linearGradient x1="0" y1="0" x2="1" y2="0" gradientTransform="scale(-16.26809 16.26809) rotate(38.999 -54.087 -33.562)" spreadMethod="pad" id="R" xlink:href="#U"><stop offset="0" stop-color="#c2714d"/><stop offset=".182" stop-color="#c2714d"/><stop offset=".724" stop-color="#d89f77"/></linearGradient><linearGradient x1="326.036" y1="282.357" x2="473.58028" y2="282.357" spreadMethod="pad" id="S" xlink:href="#U"><stop offset="0" stop-color="#ed3237"/><stop offset=".943" stop-color="#ad3234"/></linearGradient><mask maskUnits="userSpaceOnUse" x="0" y="0" width="1" height="1" id="T"><g clip-path="url(#H)"><path d="M-32768 32767h65535v-65535h-65535z" fill="url(#N)"/></g></mask><linearGradient id="U" gradientUnits="userSpaceOnUse"/></defs><g transform="matrix(1.3333299999999997 0 0 -1.3333299999999997 -39.26499999999999 1043.252)"><g clip-path="url(#A)"><path d="M181.664 508.158c-44.168-36.665-63.68-87.084-71.68-142.598-4.142-28.744.268-57.22 6.364-85.34 9.56-44.1 28.098-84.626 50.316-123.385 26.197-45.703 58.032-86.842 100.125-119.17 17.588-13.508 36.858-21.47 59.132-21.456l74.12.004.002.084 75.884.058c18.738.17 36.33 5.155 50.953 17.133 16.398 13.432 33.16 26.793 47.524 42.297 45.62 49.248 78.03 106.905 99.717 170.368 19.063 55.787 24.516 112.356 4.435 169.696-14.86 42.432-37.413 78.843-75.492 103.537-47.992 31.124-97.622 35.367-150.165 10.186-34.996-16.773-71.44-15.167-107.16.198-9.17 3.945-18.21 8.585-27.776 11.13-13.35 3.55-26.317 5.26-38.902 5.26-35.577 0-68.08-13.664-97.398-38.002" fill="url(#K)"/></g><g clip-path="url(#B)"><path d="M400.198 484.98c-111.1 0-201.162-90.063-201.162-201.162S289.1 82.655 400.198 82.655 601.36 172.72 601.36 283.817 511.296 484.98 400.197 484.98" fill="#fff" fill-rule="evenodd"/></g><g clip-path="url(#C)"><path d="M608.947 646.814c-13.957-8.496-33.374-28.218-43.69-100.126-6.07-51.884 2.73-61.897 2.73-61.897l88.293 131.985s3.035 16.99-6.37 27.307c-5.158 5.657-12.78 8.485-20.913 8.486-6.7 0-13.744-1.918-20.048-5.755m64.668-45.787L570.66 480.323s12.002-5.783 60.222 14.06c66.314 29.335 80.015 53.37 84.404 69.118s-1.246 32.464-13.704 38.748c-3.677 1.855-7.62 2.51-11.35 2.51-8.912 0-16.617-3.73-16.617-3.73" fill="url(#M)"/></g><g clip-path="url(#D)"><path d="M300.473 566.167c78.268-48.315 115.1-36.81 115.1-36.81s-49.108 19.94-92.08 64.42c0 0 81.338-52.918 110.496-50.617 0 0 15.347 71.323-69.06 133.444S265.943 705.747 171.56 782.44c0 0 28.39-151.85 128.912-216.272m178.59 97.07c-48.654-34.855-39.808-74.874-39.808-74.874 16.807-1.3 63.692 28.4 63.692 28.4-24.77-24.958-53.077-36.146-53.077-36.146s21.23-6.455 66.346 20.654c57.942 36.147 74.307 121.347 74.307 121.347-54.403-43.03-62.807-24.528-111.46-59.382" fill="url(#L)"/></g><g clip-path="url(#E)"><path d="M252.087 283.815c0-81.45 66.268-147.718 147.72-147.718s147.72 66.267 147.72 147.718-66.266 147.72-147.72 147.72-147.72-66.268-147.72-147.72m44.576 0c0 56.875 46.27 103.143 103.145 103.143S502.952 340.7 502.952 283.815s-46.27-103.143-103.144-103.143-103.145 46.268-103.145 103.143" fill="url(#O)"/></g><g clip-path="url(#F)"><path d="M326.036 282.36c0-40.682 33.093-73.775 73.772-73.775s73.772 33.093 73.772 73.775c0 40.676-33.093 73.77-73.772 73.77s-73.772-33.093-73.772-73.77m44.575 0c0 16.096 13.098 29.194 29.197 29.194s29.197-13.098 29.197-29.194c0-16.102-13.098-29.2-29.197-29.2s-29.197 13.098-29.197 29.2" fill="url(#S)"/></g><g clip-path="url(#G)"><g mask="url(#T)"><path d="M399.807 280l77.37-263.8 15.474 1.84c8.553 1.04 13.32 3.675 13.655 3.675L413.46 280z" fill="url(#P)"/></g></g><g clip-path="url(#J)"><path d="M399.892 281.706s-1.093-5.28 4.55-9.102c5.097-3.824 9.102 0 9.102 0L669.32 594.826l-20.934 18.205z" fill="url(#R)"/></g><g clip-path="url(#I)"><path d="M649.114 613.902c-3.96-4.553.972-11.294 6.662-16.24s12.88-3.945 15.474-.91c3.96 4.553 1.025 11.488-4.666 16.435-3 2.61-6.593 3.932-9.9 3.932-2.965 0-5.698-1.063-7.57-3.215" fill="url(#Q)"/></g></g></svg>