<svg xmlns="http://www.w3.org/2000/svg" width="38" height="38" fill="none"><g clip-path="url(#clip0)" transform="translate(-1 -6.5)" fill="#2e3340"><path d="M34.116 20.902a26.664 26.664 0 00-3.3-.206c-3.454.008-9.355 1.102-9.355 5.692l1.102.214a4.027 4.027 0 000 .597v1.042l-1.102-.078c.293 4.143 2.72 5.288 5.008 5.35 1.094 0 2.124-.118 3.133-.583a.166.166 0 00.079-.08.173.173 0 00-.048-.208.16.16 0 00-.105-.034c-2.109.307-4.267-1.405-4.267-5.037 0-4.596 3.658-6.363 8.9-6.363.118.016.133-.276-.045-.306zM22.631 29.05h1.754c.143 1.233.637 2.667 1.52 3.511a3.598 3.598 0 01-2.164-1.108c-.578-.613-1.032-1.552-1.11-2.403zm1.952-3.874c0 .153-.119.429-.178.705h-.698a8.883 8.883 0 01-1.114-.123.363.363 0 000-.107c.46-2.467 2.821-3.494 5.108-3.923a5.296 5.296 0 00-1.938 1.36 5.51 5.51 0 00-1.18 2.088z"/><path d="M36.5 17.23c-4.626-1.343-24.1-2.97-24.1 8.274.656.096 1.111.244 1.462.292-.047.856 0 1.794 0 2.663l-1.754-.296c0 6.51 4.58 8.562 8.193 8.562a13.364 13.364 0 001.784-.128 11.369 11.369 0 004.254-1.377.183.183 0 00.006-.284.163.163 0 00-.098-.037c-3.049.64-7.226-.224-7.226-7.78 0-10.054 13.575-9.393 17.524-9.554a.17.17 0 00.08-.075.184.184 0 00-.03-.211.165.165 0 00-.096-.05zM20.316 35.875a6.579 6.579 0 01-4.822-1.68c-1.34-1.194-2.185-2.888-2.36-4.724 1.16.16 2.638.289 3.873.353a7.456 7.456 0 001.095 3.551 6.99 6.99 0 002.64 2.5zM17.48 23.725c-.092.352-.229.977-.35 1.52l-1.83-.191-1.845-.24c0-5.88 9.175-7.896 12.683-7.896-4.757 1.169-7.88 3.573-8.658 6.759z"/><path d="M38.879 13.904c-5.635-1.997-12.028-2.979-18.002-2.9-8.636 0-19.585 2.664-19.877 11.837l2.338.592c-.292 1.184-.292 3.551-.292 3.551S1.713 26.575 1 26.392C1 37.242 7.131 40 13.032 40a19.525 19.525 0 006.977-1.267.168.168 0 00-.076-.32c-1.835 0-3.291.61-6.204-1.526-5.658-4.105-4.96-14.788 1.517-19.443 6.674-4.914 21.1-3.387 23.572-3.235a.155.155 0 00.159-.239.157.157 0 00-.098-.066zm-25.787 25.18c-7.008 0-10.59-3.939-10.923-11.508 1.903.496 3.698.992 5.645 1.268a11.672 11.672 0 002.836 8.104 8.605 8.605 0 003.55 2.151zM28.974 12.73c-8.54 0-18.435 1.072-20.374 10.704 0 0-5.262-.888-6.43-1.184 1.46-12.132 21.63-11.217 29.815-9.52z"/></g><defs id="defs16286"><clipPath id="clip0"><path fill="#fff" id="rect16283" d="M1 7h38v38H1z"/></clipPath></defs></svg>