<svg xmlns="http://www.w3.org/2000/svg" viewBox="0 0 139 138" xml:space="preserve"><path fill="#00B2AD" d="M70.8 7.6v120.6l60.3-60.3L70.8 7.6zm19 81.3c-6.6 0-11.8-3.6-14-12l8-1.7c.9 5.1 3.9 7 6.3 7 2.8 0 5-1.9 5-5.1 0-8-18.2-8.2-18.2-20.1 0-7.3 4.4-12 12.8-12 7.3 0 11.7 4.3 13.1 10.4l-7.3 2.1c-1.4-4-3.1-5.7-6-5.7S85 53.6 85 56.5c0 6.4 18.2 6.9 18.2 20.3.2 7.2-4.9 12.1-13.4 12.1z"/><path fill="#4E4E56" d="m7.1 67.9 60.3 60.3V7.6L7.1 67.9zm52.7-6.1h-8.2v-3.6c0-4.7-2.1-6-5.3-6s-5.3 1.3-5.3 6v17.4c0 4.7 2.1 6 5.3 6s5.3-1.3 5.3-6v-3.8h8.2v2.7c0 10.5-5.6 14.3-13.5 14.3S32.8 85 32.8 74.5V59.3c0-10.5 5.6-14.3 13.5-14.3s13.5 3.8 13.5 14.3v2.5z"/></svg>