<svg xmlns="http://www.w3.org/2000/svg" viewBox="0 0 227.3 203.6"><path fill="#263238" d="M152.7 156.6c-6 0-11.3-1.8-15.8-5.3a23.4 23.4 0 0 1-9.6-17.6c0-3.7 4-3.7 4-3.7h9.6c3 0 4 4.4 4.2 5.5 1.2 10 6.8 14.2 11 16.1 2.6 1.2 2 5-3.4 5Zm-54-50c-5.2-.7-13-1.2-18.1-2.5-8.2-2-8-9.4-7.6-11.8 1-7.2 3.6-13.9 7.7-20 5-7.7 12.3-14.4 21.7-19.8 17.5-10.2 42-15.9 69-15.9 19.9 0 40.5 2.6 40.7 2.6 1.9.2 3.2 2 3.2 4-.1 2-1.5 3.6-3.4 3.8h-8.7c-27.5 0-47 3.6-61.6 11.7a68 68 0 0 0-31.2 38c-.7 1.5-3 10.8-11.6 9.8v.1Zm24 74A48.6 48.6 0 0 1 86.7 164a48.9 48.9 0 0 1-14.2-30c-.5-7.8 2.9-10.5 7.5-10 3.2.3 13 .8 18.8 2 4.3.8 7 3.2 7.8 8 3.8 26 20 36.2 29.9 38.4 1.7.4 2.7 1.5 2.7 3.4-.1 2-1.4 3.5-3.1 3.8-4.3.7-9 1-13.2 1Zm-38.8 23c-9.7 0-19.1-1.5-21.8-2A78 78 0 0 1 33 191 74 74 0 0 1 .2 130.7c-.4-6.2-1.2-18 13.5-17 6 .3 15.6 3.2 22.4 5.2 8.4 2.3 12.5 8.8 12.5 15.2 0 36.5 33 60.7 47.5 60.7 6.2 0 4 6.6 1.2 7.4-4.4 1-9 1.5-13.4 1.4ZM33.5 96.3c-5.8-1-11.4-3.4-16.8-4.8-16.8-4.2-14-21-12.4-25.8 15.3-45 64-60 103-64 37-3.9 75.7-1 111.7 9 3 .8 12 3 6.8 8.5-3.3 3.4-16.1-.2-19.6-.4-21-1.6-42-1.9-63 1.4a132.8 132.8 0 0 0-63.5 25.1A80.1 80.1 0 0 0 54.4 81c-1 3-4.4 18-21 15.1v.2Zm94 8.6c3.2-14 17.2-36.4 60.6-34.9 10 .3 5.4 7.1.5 7-24.5-.9-36.2 15-42.2 31-2 5.1-6.5 6-12 5-4-.7-8.3-1.2-6.8-8h-.1Z"/></svg>