<svg xmlns="http://www.w3.org/2000/svg" width="1400" height="1400"><path fill="#FFF" fill-rule="evenodd" d="M701.914 0C1006.659 0 1265.915 194.786 1362 466.662l-399.246-.003C898.674 395.059 805.556 350 701.914 350c-193.276 0-349.957 156.7-349.957 350s156.681 350 349.957 350c103.641 0 196.76-45.059 260.84-116.658L1362 933.34C1265.915 1205.214 1006.659 1400 701.914 1400 315.362 1400 2 1086.6 2 700S315.362 0 701.914 0m347.087 747.002L1400 747a696 696 0 0 1-12.453 93H1023a345.8 345.8 0 0 0 26.001-92.998M1387.547 560A696 696 0 0 1 1400 653l-351-.002A345.8 345.8 0 0 0 1023 560z"/></svg>