<svg xmlns="http://www.w3.org/2000/svg" width="144" height="144" viewBox="0 0 38.1 38.1"><g transform="matrix(.26458 0 0 .26458 52.227 -45.476)" paint-order="markers fill stroke"><circle cx="-125.392" cy="243.877" r="72" fill="#fff"/><path d="M-125.32 178.055a65.78 65.78 0 00-12.21 1.13c-31.088 5.832-53.631 32.951-53.685 64.581-.053 31.63 22.399 58.827 53.467 64.764 31.067 5.936 61.964-11.063 73.578-40.483l-21.154-.006c-10.864 18.014-32.413 26.563-52.672 20.897-20.258-5.666-34.245-24.154-34.187-45.19.058-21.036 14.147-39.448 34.437-45.002 20.29-5.553 41.792 3.116 52.555 21.19l21.103-.022c-9.857-25.22-34.154-41.829-61.232-41.859z" fill="#126ebb"/><path d="M-125.392 215.553c-15.643 0-28.324 12.681-28.324 28.324 0 15.644 12.68 28.325 28.324 28.325 12.242 0 22.669-7.767 26.625-18.641l38.658-.04a65.991 65.991 0 00-.086-19.847l-38.791-.064c-4.112-10.568-14.384-18.057-26.406-18.057zm0 16.358c6.61 0 11.967 5.357 11.967 11.966 0 6.61-5.358 11.967-11.967 11.967-6.61 0-11.967-5.357-11.967-11.967s5.357-11.966 11.967-11.966z" fill="#126ebb"/></g></svg>