<svg xmlns="http://www.w3.org/2000/svg" xmlns:xlink="http://www.w3.org/1999/xlink" width="352" height="352"><defs><linearGradient id="a"><stop offset="0" stop-color="#021348"/><stop offset="1" stop-color="#092d74"/></linearGradient><linearGradient xlink:href="#a" id="b" x1="232.805" y1="953.311" x2="232.805" y2="601.311" gradientUnits="userSpaceOnUse"/></defs><g transform="translate(-56.805 -601.311)"><path id="c" d="M232.805 953.311c-2.226-117.333-3.172-234.667 0-352l152.42 88v176z" opacity="1" fill="url(#b)" fill-opacity="1" stroke="none" stroke-width="13.012" stroke-linecap="round" stroke-linejoin="miter" stroke-miterlimit="4" stroke-dasharray="none" stroke-dashoffset="1.8" stroke-opacity="1" paint-order="markers fill stroke" stop-color="#000"/><use xlink:href="#c" transform="rotate(180 232.805 777.311)" width="100%" height="100%"/></g><g transform="translate(-57.458 -604.246)" fill="#fff"><use xlink:href="#d" transform="matrix(-1 0 0 1 466.916 0)" width="100%" height="100%"/><path d="M156.013 734.5l14.094-62.25H295.57l15.078 63.5zM206.363 781.75l-13.966-36.034 81.25.02-13.166 35.612 4.205 39.902h-62.039z"/><path d="M246.648 864.053v-13.649l27.972-26.654c.01-14.18.018-28.36.027-42.541l36.327-23.751c13.73 10.225 27.389 20.546 41.053 30.86-17.891 33.713-36.915 66.784-55.88 99.897l-23 .028-26.5-24.19z" id="d"/></g></svg>