<?xml version="1.0" encoding="UTF-8" standalone="no"?>
<svg width="1024px" height="1024px" viewBox="0 0 1024 1024" version="1.1" xmlns="http://www.w3.org/2000/svg" xmlns:xlink="http://www.w3.org/1999/xlink">
    <!-- Generator: Sketch 47.1 (45422) - http://www.bohemiancoding.com/sketch -->
    <title>cryptopanic-favicon-transp</title>
    <desc>Created with Sketch.</desc>
    <defs></defs>
    <g id="Page-4" stroke="none" stroke-width="1" fill="none" fill-rule="evenodd">
        <g id="cryptopanic-favicon-transp" fill="#FD9941">
            <path d="M421.299698,1015.991 C450.738052,1021.25353 481.048289,1024 512,1024 C649.138811,1024 773.684608,970.082892 865.595867,882.290199 C789.173087,869.744272 686.232239,851.447661 686.105523,843.899696 C685.923788,833.71976 897.877507,800.266999 939.547806,793.788792 C945.755768,784.388651 951.662037,774.771743 957.252818,764.951861 C882.366327,752.519473 789.103269,735.597766 788.982661,728.413586 C788.841287,720.49451 917.072462,698.492017 993.653317,686.059956 C1013.29328,631.722977 1024,573.111833 1024,512 C1024,229.230208 794.769792,0 512,0 C374.787875,0 250.182234,53.9747702 158.256756,141.85063 C234.984724,154.554478 340.116625,173.273106 339.988609,180.443945 C339.802719,191.516679 118.356831,225.720918 83.953223,230.968208 C77.8929211,240.180139 72.1219924,249.599375 66.6533703,259.212984 C141.994292,271.817607 237.233319,289.104727 237.111471,295.930055 C236.968655,304.437055 106.225,326.597647 30.0401754,338.790409 C10.5953511,392.888344 0,451.206834 0,512 C0,574.068505 11.0445594,633.557415 31.2756026,688.608655 C46.486325,681.557892 63.4236342,671.235966 81.4760651,661.110665 C47.946917,657.100445 30.1507801,650.158759 30.1507801,650.158759 C81.6896156,638.325841 167.296389,605.873794 167.296389,605.873794 C171.636191,602.835271 175.975993,599.796749 179.990556,598.602752 C214.383734,576.139098 242.917687,554.544179 265.592416,533.817993 C293.912819,535.007898 330.587586,531.965283 363.461342,507.331841 C341.218628,514.82109 288.592385,511.247283 288.592385,511.247283 C236.94186,502.139902 213.825289,471.437601 220.009753,468.724343 C289.558276,441.048286 350.53397,408.056861 350.53397,408.056861 C363.985391,385.704357 417.359061,309.53128 484.198893,308.003833 C505.140649,307.892683 523.69404,299.752907 539.533827,285.429029 L634.897785,197.64124 C634.897785,197.64124 687.742492,210.762934 689.596981,275.753621 C691.776709,338.899783 643.713646,374.168052 650.335038,390.550568 C657.28167,405.08856 727.262207,364.175566 727.262207,364.175566 C727.262207,364.175566 743.005046,425.909523 712.626431,447.179179 C682.247816,468.448835 613.471288,578.041565 595.146188,660.394651 C590.592836,686.217998 584.8453,708.027031 579.097765,729.836064 C579.859933,747.087314 574.772704,829.872721 545.156257,868.393627 L540.161062,842.788487 C512.500965,902.574956 479.738899,948.148697 443.937988,989.382862 C435.517215,999.253686 428.029885,1008.07207 421.299657,1015.99103 Z M472.329023,376.001434 L484.693282,338.24013 L507.260928,328.905596 C497.503226,384.244274 472.329023,376.001434 472.329023,376.001434 L472.329023,376.001434 Z" id="Combined-Shape"></path>
        </g>
    </g>
</svg>