<svg xmlns="http://www.w3.org/2000/svg" width="37" height="37"><path d="M18.502.075c1.276 0 2.394.476 3.322 1.424.931.943 1.404 2.094 1.404 3.396 0 1.332-.464 2.468-1.394 3.412-.93.947-2.057 1.421-3.333 1.421-1.301 0-2.423-.474-3.334-1.421-.927-.943-1.392-2.08-1.392-3.412 0-1.301.465-2.441 1.378-3.383C16.079.561 17.2.075 18.502.075zm15.692 19.117V16.26a5.026 5.026 0 00-5.022-5.024H7.828a5.026 5.026 0 00-5.02 5.024V27.3h23.812v1.675H2.806v2.929a5.021 5.021 0 005.021 5.021h21.345a5.022 5.022 0 005.021-5.021V20.865H10.386v-1.673z" fill="#e30613"/></svg>