<svg xmlns="http://www.w3.org/2000/svg" xmlns:xlink="http://www.w3.org/1999/xlink" width="151.377" height="151.377"><defs><path id="a" d="M.82.86v151.336h151.377V.86z"/></defs><g fill="none" fill-rule="evenodd"><g transform="translate(-.82 -.84)"><mask id="b" fill="#fff"><use xlink:href="#a" width="100%" height="100%"/></mask><path fill="#e4022d" mask="url(#b)" d="M.82 152.301L152.26.86v151.441H.82"/></g><path d="M79.2 102.98c-3.472-3.754-8.018-4.88-12.24-4.8-13.569-.08-19.762 8.671-19.68 21.84-.082 11.497 5.321 21.775 18.48 21.84 5.224-.065 10.165-1.722 13.44-6v-11.519c-2.813 3.596-5.843 5.784-10.32 5.76-6.461.024-8.9-4.485-8.88-9.36-.02-6.397 3.011-9.779 9.12-9.84 3.249.061 6.608.99 10.08 4.8v-12.722M109.44 101.78c-2.529-2.745-8.195-4.204-12.72-4.32-8.191.116-15.571 4.56-15.6 13.44.029 17.243 17.291 10.812 17.281 17.28.01 3.014-3.02 3.412-5.04 3.36-3.515.052-9.313-2.534-11.281-5.76v11.52c3.615 2.38 8.622 3.971 13.44 4.081 8.625-.11 14.884-5.214 14.881-13.92.003-14.635-17.261-10.059-17.281-15.36.02-2.59 3.052-3.254 5.041-3.36 3.809.106 8.949 2.163 11.279 5.28v-12.24M111.84 140.66h13.2V119.3c.044-4.757 1.56-8.736 5.76-8.64 3.574-.096 4.498 2.358 4.561 6v24h13.199V110.9c-.084-9.22-4.763-12.8-11.28-12.72-5.87-.08-10.35 2.903-12.96 10.08v-8.88h-12.48v41.28" fill="#fff"/></g></svg>