<svg xmlns="http://www.w3.org/2000/svg" viewBox="0 0 150 150"><path fill="#e4022d" d="M150 0 0 150h150"/><path fill="#fff" d="M79.2 103c-3.5-3.8-8-4.9-12.2-4.8-13.6-.1-19.8 8.7-19.7 21.8-.1 11.5 5.3 21.8 18.5 21.9 5.2-.1 10.1-1.8 13.4-6v-11.6c-2.8 3.6-5.8 5.8-10.3 5.8-6.5 0-9-4.5-8.9-9.4 0-6.4 3-9.7 9.1-9.8 3.3 0 6.6 1 10.1 4.8V103m30.2-1.2c-2.5-2.8-8.2-4.2-12.7-4.3-8.2 0-15.6 4.5-15.6 13.4 0 17.2 17.3 10.8 17.3 17.3 0 3-3 3.4-5 3.3-3.6 0-9.4-2.5-11.3-5.7v11.5c3.6 2.4 8.6 4 13.4 4 8.6 0 14.9-5.1 14.9-13.8 0-14.7-17.3-10.1-17.3-15.4 0-2.6 3-3.3 5-3.4 3.9.1 9 2.2 11.3 5.3v-12.2m2.4 38.9H125v-21.4c0-4.8 1.6-8.7 5.8-8.6 3.6-.1 4.5 2.3 4.6 6v24h13.2v-29.8c-.1-9.2-4.8-12.8-11.3-12.7-5.9-.1-10.4 2.9-13 10v-8.8h-12.5v41.3"/></svg>
