<svg xmlns="http://www.w3.org/2000/svg" width="96.1" height="96.1"><path d="M21.739 68.18c0 6.121 5.022 7.174 8.69 7.941 1.98.416 3.545.744 3.545 1.684 0 .984-1.902 1.334-3.684 1.334-2.704 0-5.575-.566-7.877-1.555l-.441-.191v6.953l.243.059c3.379.801 6.272 1.143 9.676 1.143 3.503 0 11.652-.814 11.652-8.361 0-6.105-5.054-7.105-8.744-7.836-1.951-.387-3.492-.691-3.492-1.582 0-1.115 1.778-1.264 3.518-1.264 2.298 0 4.647.408 6.794 1.184l.425.152v-6.862l-.251-.053c-2.534-.535-5.292-.832-7.768-.832-8.152 0-12.286 2.721-12.286 8.086zm22.538 4.64c0 8.207 4.694 12.727 13.22 12.727 8.589 0 13.319-4.52 13.319-12.727 0-8.088-4.854-12.727-13.319-12.727-8.402.001-13.22 4.64-13.22 12.727zm9.968 0c0-4.191 1.094-6.316 3.251-6.316 2.919 0 3.311 3.607 3.351 6.322-.039 3.049-.334 6.313-3.351 6.313-2.187 0-3.251-2.067-3.251-6.319zm18.457-12.312h-.316v24.627h13.819c5.135 0 9.886-.846 9.886-6.986 0-2.213-1.667-4.707-4.497-5.545 2.757-1.016 4.064-2.896 4.064-5.867 0-4.018-2.955-6.229-8.319-6.229H72.702zM83.505 75.27c2.114 0 3.018.635 3.018 2.123 0 2.002-2.361 2.158-3.085 2.158h-2.017V75.27h2.084zm.033-9.592c1.825 0 2.751.68 2.751 2.021 0 1.641-1.604 1.986-2.951 1.986h-1.917v-4.008l2.117.001zM7.303 56.119l-2.784 2.557.207.176c.072.063 1.631 1.365 4.172 2.059C3.314 62.565.009 66.825.009 72.477c0 8.016 5.433 12.996 14.179 12.996 2.879 0 5.679-.744 6.469-.973l.175-.051v-6.885l-.323.115c-1.744.625-3.254.914-4.754.914-3.836 0-6.126-2.234-6.126-5.98 0-3.561 2.463-5.773 6.427-5.773 1.5 0 2.997.424 4.392.883l.317.104v-6.859l-.672-.127c-1.2-.225-2.209-.41-3.279-.529 1.932-.857 3.212-2.025 3.843-2.703l.183-.197-1.069-.811-.149.162c-.02.023-2.017 2.164-5.721 2.127-3.931-.039-6.224-2.719-6.246-2.746l-.163-.195z" fill="#036"/><path d="M32.265 26.731c0-8.935 7.244-16.179 16.18-16.179s16.18 7.244 16.18 16.179c0 8.935-7.244 16.179-16.18 16.179s-16.18-7.244-16.18-16.179zM60.378 39.82c-3.083 3.342-8.519 6.685-15.493 6.685-5.411 0-10.07-2.104-13.034-4.441-17.664 1.854-30.8 4.481-30.8 4.481v7.153l93.616-.01.009-14.748s-15.974-.099-34.298.88z" fill="#09c"/></svg>