<svg xmlns="http://www.w3.org/2000/svg" width="173" height="173"><path d="M135.769 118.852c-4.922-.632-9.061-2.648-12.055-5.874-2.878-3.1-4.612-7.912-4.612-12.8 0-8.82 4.53-14.69 13.39-17.346 2.264-.678 3.29-.742 13.942-.869 7.947-.094 11.64-.254 11.958-.517.361-.3.427-1.303.31-4.723-.134-3.871-.252-4.57-1.096-6.444-1.75-3.89-4.777-5.722-10.693-6.469-2.451-.31-3.86-.307-6.394.01-3.789.475-5.637 1.268-8.692 3.732-1.16.936-2.285 1.644-2.5 1.574-.56-.182-6.772-5.98-7.048-6.578-.494-1.07 4.917-5.208 8.856-6.773 4.355-1.73 13.065-2.403 19.976-1.541 3.487.434 8.165 1.967 10.692 3.502 2.518 1.53 5.364 4.653 6.589 7.23 1.897 3.993 2.044 5.618 2.044 22.717 0 16.474.315 22.45 1.398 26.511.37 1.387.749 2.858.842 3.271l.17.75h-5.56c-3.059 0-5.84-.149-6.179-.33-.34-.183-.792-.858-1.004-1.5-.212-.644-.578-1.17-.814-1.17-.235 0-1.43.454-2.654 1.01-5.212 2.363-14.154 3.489-20.866 2.627zm12.667-9.667c4.576-.688 7.931-3.174 9.371-6.944.885-2.315 1.352-11.32.633-12.188-.354-.426-1.677-.504-8.462-.498-4.423.004-9.092.156-10.376.34-6.203.885-9.51 4.784-9.085 10.713.514 7.18 6.894 10.234 17.919 8.577zm-127.042 8.834c-6.58-1.414-12.17-5.17-15.758-10.584-4.094-6.18-5.811-13.47-5.431-23.054.214-5.389.845-8.82 2.37-12.892 1.565-4.18 2.993-6.402 6.194-9.642 2.382-2.41 3.338-3.114 6-4.415 10.544-5.151 23.555-3.982 31.5 2.83 1.1.944 2 1.903 2 2.133 0 .615-6.471 7.486-7.05 7.486-.272 0-1.348-.698-2.39-1.55-3.112-2.549-5.582-3.528-9.356-3.71-5.302-.255-8.656.94-12.298 4.38-2.117 2-3.846 5.313-4.635 8.88-.808 3.654-.81 13.201-.003 17 1.526 7.19 5.577 11.656 11.93 13.154 5.472 1.29 10.4.145 14.305-3.323.927-.824 1.888-1.497 2.134-1.497.452 0 6.798 5.697 7.301 6.555.466.793-3.545 4.436-6.646 6.037-4.014 2.072-7.255 2.742-13.125 2.711-2.827-.014-5.75-.221-7.042-.499zm52.264-.014c-6.494-1.393-11.21-4.852-13.875-10.175-2.515-5.026-2.514-5.013-2.514-29.615V56.38l5.734-.09 5.734-.092.1 21.258c.097 20.949.11 21.283.824 23.026 1.144 2.792 2.795 4.543 5.537 5.876 3.135 1.523 6.77 2.043 10.61 1.517 6.12-.838 9.457-3.745 10.79-9.4.408-1.727.495-5.62.5-22.186l.004-20.091 5.75.091 5.75.091.183 26c.192 27.357.27 28.782 1.806 33.136.281.796.511 1.58.511 1.74 0 .16-2.712.291-6.027.291H99.05l-.535-1.362c-.629-1.6-.7-1.6-5.01-.002-6.085 2.255-14.307 3.01-19.846 1.822z" fill="#00b0c1"/></svg>