<svg xmlns="http://www.w3.org/2000/svg" viewBox="0 0 234.4 279.4"><path d="M77 202.5h80V251H77z" fill="#bec2c8"/><path d="M25 45h185v160H25z" fill="#fff"/><path d="M117.4 161.2c-.8 0-2.4-1.3-3.3-2.1l-17.8-16.7-19.8-18.3c-1.1-1.1-.8-1.5-.5-1.7.8-1 9.3-8.5 10-9a282.4 282.4 0 0 1 12.3 9l13.8 11s3.6-4.8 31.5-30.2c18.7-17 29.3-25.4 30.6-26.2a2.2 2.2 0 0 1 1-.4.7.7 0 0 1 .6.3s-.3-.3 0 0l5.6 7.5c.3.6.3.6 0 .9a426.2 426.2 0 0 0-30 33c-21 25.6-30.5 39.4-31.6 40.7 0 0 1.1-1.5 0 0s-1.8 2.2-2.4 2.2z" fill="#2c3b4a"/><path fill="#2274e5" d="M234.3 157.9v7.2l-.1 1.4-6 77h-.1a51 51 0 0 1-1.2 8.3 29 29 0 0 1-9.7 17 45.8 45.8 0 0 1-26.4 10.1c-6 .5-49 .5-49 .5h-49s-43 0-48.9-.4a46 46 0 0 1-26.4-10.3 29 29 0 0 1-9.7-16.9 55.5 55.5 0 0 1-1.3-11L0 165.3v-1.7a.5.5 0 0 0 0-.2v-23.1l.6-22.7 1.4-47 1.4-38.1a33.2 33.2 0 0 1 11-21.8A51 51 0 0 1 41.2.6c8.6-.5 21-.6 27.3-.6h97.2c6.3 0 18.6 0 27.2.6 9 .6 20 4.3 26.9 10.1a33.2 33.2 0 0 1 11 21.8c.5 8 1.1 29.3 1.4 38.1l1.3 47 .6 22.6c.1 3.7.3 11.1.2 17.7zM52.2 181.7a56 56 0 0 1 17 3.8c5.1 2.4 7.8 5.7 8.6 8 1.3 3.8 1.4 21.6 1.5 25.5.2 3 .4 13 .5 15.7.4 7.7.3 9 3.8 11.2 4 2.5 9.8 2.6 11.6 2.7h26.4l19.4-.1c2.9-.2 7.9-1.3 9.9-2.6a7.5 7.5 0 0 0 3.5-4.3c.3-1.4.8-24.2 1-30l.8-16a10.4 10.4 0 0 1 3-5.5 24.2 24.2 0 0 1 9.5-5.5 77.5 77.5 0 0 1 14.1-2.7c3.2-.3 8.7-.7 12-.7 2.9 0 9.9-2 13.4-5l-2.6-121.4c0-4.9-4.8-8.2-9.6-8.2l-157.4-.1c-4.8 0-9.6 3.1-9.7 8.3l-2.6 121.5c3.6 3 10.5 5 13.4 5 1.4 0 8 0 12.5.4z"/></svg>