<svg xmlns="http://www.w3.org/2000/svg" xmlns:xlink="http://www.w3.org/1999/xlink" width="39.577" height="39.577"><defs><path id="a" d="M.038 40V.423h39.565V40z"/><mask id="b" fill="#fff"><use xlink:href="#a" width="100%" height="100%"/></mask></defs><g fill-rule="evenodd"><path d="M19.802.423C8.866.423 0 9.283 0 20.211 0 31.141 8.866 40 19.802 40s19.8-8.86 19.8-19.789c0-10.928-8.864-19.788-19.8-19.788" fill="#fba60b" mask="url(#b)" transform="translate(-.032 -.423)"/><path d="M19.738 32.833a1.891 1.891 0 110-3.784 1.893 1.893 0 110 3.784M24.951 19.905c0 2.069-1.448 3.857-3.465 4.49v3.511h-3.47v-3.512c-2.018-.632-3.428-2.42-3.428-4.489V8.76h3.429v11.146c0 .876.8 1.579 1.753 1.579.953 0 1.716-.703 1.716-1.579V8.76h3.465v11.146" fill="#fffffe"/></g></svg>