<svg xmlns="http://www.w3.org/2000/svg" width="164.394" height="164.394" viewBox="0 0 43.496 43.496"><path d="M31.177 9.9l-3.07 3.075 9.18 9.181-11.86 11.86h6.246L43.496 22.22z" fill="#81bc00"/><path d="M6.272 21.307L18.1 9.48h-6.26L0 21.307l12.375 12.374 3.136-3.135z" fill="#cc1421"/><path d="M20.922 12.3l-2.83-2.815-3.127 3.13 2.821 2.821z" fill="#b62723"/><path d="M24.55 9.495l-11.853 11.77 6.06 6.06 3.135-3.136-2.903-2.904 11.79-11.79z" fill="#ee7d02"/><path d="M19.066 34.017l11.77-11.759-6.008-6.007-3.136 3.135 2.853 2.853L12.8 34.017z" fill="#3eb7ea"/><path d="M28.576 30.88l-2.829-2.815-3.128 3.13 2.821 2.82z" fill="#78932a"/></svg>