<svg xmlns="http://www.w3.org/2000/svg" id="Layer_1" data-name="Layer 1" version="1.1" width="104.53" height="104.53"><defs id="defs1854"><style id="style1852"></style></defs><g id="g2438" transform="translate(0 15.685)"><path d="M52.2 41.81a20.91 20.91 0 10-20.91-20.9 20.9 20.9 0 0020.91 20.9z" id="path1858" fill="#ffcd00"/><path d="M52.33 52.26h-.07a31.38 31.38 0 01-30.4-23.63c-1.05-4.18-4.45-7.72-8.76-7.72H0a52.26 52.26 0 0052.26 52.26h.07z" id="path1860" fill="#00ecbb"/><path d="M52.2 52.26h.06a31.37 31.37 0 0030.4-23.63c1.06-4.18 4.46-7.72 8.77-7.72h13.1a52.27 52.27 0 01-52.27 52.26h-.06z" id="path1862" fill="#af64ff"/><path d="M89.22 57.86a52.26 52.26 0 01-73.91 0l14.78-14.78a31.37 31.37 0 0044.35 0z" id="path1864" fill="#7131ff"/></g></svg>