<svg xmlns="http://www.w3.org/2000/svg" data-name="Layer 1" width="104.53" height="104.53"><path d="M52.2 57.495a20.91 20.91 0 1 0-20.91-20.9 20.9 20.9 0 0 0 20.91 20.9z" fill="#ffcd00"/><path d="M52.33 67.945h-.07a31.38 31.38 0 0 1-30.4-23.63c-1.05-4.18-4.45-7.72-8.76-7.72H0a52.26 52.26 0 0 0 52.26 52.26h.07z" fill="#00ecbb"/><path d="M52.2 67.945h.06a31.37 31.37 0 0 0 30.4-23.63c1.06-4.18 4.46-7.72 8.77-7.72h13.1a52.27 52.27 0 0 1-52.27 52.26h-.06z" fill="#af64ff"/><path d="M89.22 73.545a52.26 52.26 0 0 1-73.91 0l14.78-14.78a31.37 31.37 0 0 0 44.35 0z" fill="#7131ff"/></svg>