<svg xmlns="http://www.w3.org/2000/svg" width="964.855" height="964.855"><path d="M454.874 961.718c-78.95-5.539-150.219-26.801-214.018-63.85C71.635 799.596-20.626 613.787 3.914 420.674c19.974-157.174 119.029-296.03 261.96-367.219 53.53-26.66 106.444-42.032 168-48.804 19.495-2.145 73.349-2.447 92-.517 65.077 6.737 117.075 21.566 172.5 49.194 94.103 46.909 168.314 120.769 215.525 214.503 77.208 153.295 66.05 336.46-29.202 479.375-63.438 95.182-159.038 165.033-268.938 196.5-25.687 7.356-55.445 13.09-83.885 16.166-13.772 1.489-64.683 2.709-77 1.845zm-84.5-192.408c86.23-2.717 150.786-10.124 205.5-23.58 91.684-22.55 144.326-60.812 160.828-116.898 4.608-15.66 5.613-23.98 5.617-46.5.005-29.176-1.93-42.344-14.555-99-9.938-44.601-11.8-56.462-12.908-82.207-1.057-24.583-2.742-37.776-7.128-55.793-20.247-83.18-87.923-151.478-170.956-172.525-19.232-4.875-32.381-6.643-53.605-7.207-31.482-.836-54.347 2.44-82.793 11.864-76.151 25.227-134.762 87.907-155.1 165.868-4.883 18.72-6.432 31.85-7.431 63-1.037 32.317-1.836 45.825-5.505 93-7.553 97.126-8.12 138.21-2.441 177 8.29 56.636 31.436 87.322 70.017 92.831 8.98 1.282 32.846 1.332 70.46.147zm40-231.457c-14.473-3.186-25.497-9.48-37.63-21.483-23.766-23.508-36.94-58.696-37.082-99.038-.062-17.8 1.145-27.978 5.161-43.5 9.863-38.116 32.308-66.365 61.234-77.065 9.62-3.558 25.804-4.45 36.317-2 20.314 4.73 40.347 21.044 53.5 43.564 27.88 47.738 26.032 117.438-4.31 162.501-5.414 8.042-17.834 20.795-25.053 25.725-16.077 10.978-34.976 15.073-52.137 11.296zm205.108-41.043c-19.244-5.283-37.776-23.743-47.307-47.12-7.013-17.204-9.838-34.05-9.03-53.858 1.487-36.41 16.019-66.847 39.373-82.467 40.024-26.77 87.252 4.707 97.908 65.253 1.887 10.723 1.865 34.064-.043 45.004-6.531 37.453-28.196 66.185-55.212 73.221-6.94 1.808-19.042 1.792-25.689-.032z" fill="#fdca00"/><path d="M299.914 769.163c-53.645-7.056-70.672-68.696-72.163-114.758-6.186-90.432 10.228-180.386 11.185-270.736 5.856-126.231 128.288-229.596 253.337-218.002 121.942 4.888 227.306 117.904 222.357 240.112 5.156 78.395 47.3 158.612 17.466 236.449-31.513 69.771-111.3 93.869-180.148 108.853-82.776 16.256-167.911 19.759-252.034 18.082zm137.263-231.452c67.448-20.961 85.809-105.883 68.259-167.195-10.247-45.427-56.536-92.976-106.11-72.44-62.073 29.348-75.86 112.924-54.69 172.649 13.456 37.758 48.162 77.191 92.54 66.986zm203.994-40.868c61.342-22.699 70.902-108.422 40.243-159.191-23.859-50.881-98.425-38.035-112.635 13.302-22.31 51.11-8.47 131.38 52.545 146.886 6.612.623 13.352.503 19.847-.997z" fill="#30302f"/></svg>