<svg xmlns="http://www.w3.org/2000/svg" xmlns:xlink="http://www.w3.org/1999/xlink" width="129.22" height="129.22"><defs><linearGradient id="a"><stop offset="0" stop-color="#f47e20"/><stop offset="1" stop-color="#f9a550"/></linearGradient><linearGradient xlink:href="#a" id="b" gradientUnits="userSpaceOnUse" x1="217.602" y1="223.894" x2="217.602" y2="127.954"/></defs><path d="M156.527 167.452c0-18.905 15.787-39.86 39.03-39.857l90.186.011c-.004 51.954-46.596 95.921-73.373 95.921h-55.847z" fill="url(#b)" fill-rule="evenodd" transform="translate(-156.523 -110.951)"/><path d="M14.664 69.426c2.577-12.222 10.103-18.617 25.103-18.617h17.147v18.617c0 14.295-4.455 24.188-17.147 29.345V69.426z" fill="#fff"/><path d="M42.772 45.738h18.915V67.48c9.587-3.002 13.081-11.275 13.081-16.672V31.772H56.914c-4.471 0-14.142 6.364-14.142 13.966z" fill="#fff"/></svg>