<svg xmlns="http://www.w3.org/2000/svg" width="177.921" height="177.921"><path d="M24.183 175.947c-7.164-3.252-7.212-3.563-7.212-46.01 0-40.233.167-41.627 5.513-45.832 2.721-2.14 3.284-2.17 44.372-2.285 22.888-.065 55.03-.75 55.03-.75s-.429-6.842-.452-17.633c-.043-19.567-1.316-25.118-7.275-31.714-5.43-6.01-12.091-8.94-21.69-9.538-10.476-.654-17.735.942-24.1 5.299-6.473 4.43-9.977 10.697-11.486 20.544-1.606 10.475-2.136 11.447-7.34 13.434-4.038 1.542-4.997 1.584-8.215.36-2.003-.763-4.57-2.628-5.702-4.145-1.94-2.6-1.991-3.236-.876-11C37.847 25.117 53.983 6.84 74.615 1.521c7.865-2.028 20.847-2.028 28.711 0 19.086 4.92 35.054 21.696 39.178 41.158.889 4.193 1.439 12.711 1.45 22.446l.017 15.69 4.511.676c2.482.372 5.686 1.6 7.122 2.729 5.18 4.075 5.369 5.673 5.345 45.434-.02 34.28-.155 37.074-1.968 41.07-3.387 7.463-.988 7.215-69.728 7.19-58.059-.02-60.974-.109-65.07-1.967zm71.022-19.926c5.369-3.635 3.45-10.215 3.597-16.11.273-10.845.673-13.754 2.247-16.334 2.327-3.818 2.5-10.622.373-14.734-4.88-9.439-20.628-9.047-25.417.63-2.236 4.519-1.924 10.769.716 14.34 2.04 2.76 2.253 4.187 2.285 15.333.038 13.168.831 16.043 5.075 18.395 3.892 2.158 7.567 1.656 11.124-1.52z" fill="#606060"/></svg>