<svg xmlns="http://www.w3.org/2000/svg" width="10.069" height="10.069" class="css-16ey1nw-ZapierLogo--red500"><path fill-rule="evenodd" clip-rule="evenodd" d="M9.999 4.198H7.06l2.078-2.073A5.053 5.053 0 007.951.941L5.873 3.014V.083a5.129 5.129 0 00-.836-.07h-.005c-.285 0-.564.024-.836.07v2.93L2.118.942c-.23.163-.445.344-.643.543h-.001c-.199.198-.38.412-.543.641l2.078 2.073H.07s-.07.55-.07.835v.003c0 .284.024.564.07.836H3.01L.93 7.944a5.05 5.05 0 001.187 1.183l2.078-2.072v2.93c.272.046.55.07.835.07h.007c.284 0 .564-.024.835-.07v-2.93l2.079 2.072a5.098 5.098 0 001.186-1.184L7.06 5.873h2.939c.046-.272.07-.55.07-.834V5.03c0-.284-.024-.562-.07-.833z" fill="#ff4a00"/></svg>