<svg xmlns="http://www.w3.org/2000/svg" width="221.696" height="221.696"><g fill="#3473c2"><path d="M130.931 130.378c-1.004 3.098-2.004 6.207-3.201 9.238-.126.326-1.358 3.609-1.547 3.58-.096-.026-.203-.05-.3-.072-1.583-.342-3.177-.677-4.759-1.012-6.324-1.34-12.64-2.703-18.965-4.04a13931.92 13931.92 0 00-16.795-3.576c-.148-3.054-.148-6.097-.269-9.15-.141-3.105.295-6.187.263-9.285 9.901 2.252 19.798 4.516 29.701 6.764 5.663 1.295 11.335 2.595 16.997 3.877-.39 1.214-.766 2.445-1.125 3.676zM87.604 93.145c1.367-6.616 2.412-13.28 3.995-19.848.79-3.297 1.78-6.517 2.825-9.73.232-.744 2.522-8.158 2.758-8.106 4.597 1.038 9.178 2.082 13.778 3.112 5.694 1.286 11.406 2.574 17.106 3.862L87.082 97.08c.169-1.32.346-2.632.522-3.936zm17.099-54.962c3.07-5.27 6.107-10.467 10.515-14.74 3.412-3.296 8.698-6.786 13.232-3.426 3.884 2.872 6.01 8.167 7.513 12.564 2.013 5.838 3.164 12.243 3.719 18.375-12.34-2.953-24.738-5.667-37.106-8.484.71-1.432 1.428-2.861 2.127-4.29zm-6.66 65.835l42.484-38.238c.067 7.793-.17 15.599-1.045 23.337-.879 7.798-2.278 15.562-3.882 23.234-10.354-2.3-20.704-4.59-31.053-6.894-2.167-.472-4.34-.955-6.504-1.44zM128.733.408c-9.373-1.992-17.351 3.585-22.926 10.608-6.428 8.083-10.69 17.933-14.152 27.572-4.596 12.79-7.835 26.117-10.344 39.464-2.585 13.72-4.184 27.63-4.641 41.59-.23 6.886-.219 13.81.173 20.69.2 3.409.521 6.804 1.008 10.186.232 1.615.512 3.224.839 4.823.15.8.32 1.598.513 2.388.173.18.919-.065 1.11-.116 5.966-1.272 12.427-1.568 18.52-1.15 6.542.44 12.594 2.433 18.282 5.685a60.396 60.396 0 014.03 2.505c.675.467 1.34.944 1.989 1.432.601.43 1.074 1.023 1.732 1.352a83.38 83.38 0 004.65-8.472c2.806-5.824 5.048-11.902 7.092-18.03 4.343-12.91 7.655-26.136 9.978-39.56 2.369-13.646 3.89-27.468 4.322-41.307.38-11.755-.014-23.784-2.798-35.25-2.504-10.4-7.875-21.958-19.376-24.41M119.756 199.669c-1.865 13.873-14.312 23.625-27.817 21.81-13.49-1.81-22.908-14.526-21.036-28.363 1.861-13.863 14.303-23.616 27.785-21.796 13.503 1.819 22.924 14.505 21.068 28.35"/></g></svg>