<svg xmlns="http://www.w3.org/2000/svg" width="1333.333" height="1333.333"><path d="M666.667 0c120.889 0 232.444 29.777 334.666 89.333C1103.556 148.89 1184.444 229.777 1244 332c59.556 102.223 89.333 213.777 89.333 334.667 0 120.889-29.777 232.444-89.333 334.666-59.556 102.223-140.444 183.111-242.667 242.667-102.222 59.556-213.777 89.333-334.666 89.333-120.89 0-232.444-29.777-334.667-89.333-102.223-59.556-183.11-140.444-242.667-242.667C29.778 899.111 0 787.556 0 666.667 0 545.777 29.778 434.223 89.333 332 148.89 229.777 229.777 148.89 332 89.333 434.223 29.777 545.777 0 666.667 0z"/><path d="M565.333 853.333H552l566.667-458.666c5.333-3.556 8.666-8.667 10-15.334 1.333-6.666-.667-12.222-6-16.666l-88-102.667c-6.223-7.11-12.444-10.667-18.667-10.667-7.11 0-15.11 3.556-24 10.667-13.333 10.667-23.777 18.667-31.333 24-7.556 5.333-19.111 10.667-34.667 16-15.556 5.333-32.667 8-51.333 8-29.334 0-81.334-10.444-156-31.333C644 255.777 581.777 245.333 532 245.333c-72.89 0-133.11 22-180.667 66-47.556 44-71.333 102-71.333 174 0 31.111 8.667 55.778 26 74 17.333 18.223 40.667 27.334 70 27.334 26.667 0 48-6.89 64-20.667 16-13.777 24-31.777 24-54 0-32 6-56.223 18-72.667 12-16.444 33.556-24.666 64.667-24.666 17.777 0 53.777 6.444 108 19.333 54.222 12.89 92.889 19.333 116 19.333h4L200 908c-5.333 4.444-8.223 10.89-8.667 19.333-.444 8.444 1.111 14.89 4.667 19.334l86.667 112c3.556 5.333 9.333 8 17.333 8 7.11 0 15.11-3.556 24-10.667 40-32 82.667-48 128-48 37.333 0 92.89 12 166.667 36s134.666 36.444 182.666 37.333c97.778 0 168.444-31.556 212-94.666 29.334-43.556 44-91.556 44-144 0-32-8.666-57.556-26-76.667-17.333-19.11-42-28.667-74-28.667-56.889 0-86.666 25.334-89.333 76-2.667 37.334-7.11 60.444-13.333 69.334-10.667 16-29.778 24-57.334 24-20.444 0-56.666-8.89-108.666-26.667s-93.111-26.667-123.334-26.667" fill="#fff"/></svg>