<svg xmlns="http://www.w3.org/2000/svg" viewBox="0 0 60 48"><path fill="#fdbd39" d="M9.25 33.08 6.1 34.23l-.17 9.34 10.87-3.97c-3.73-1.25-6.45-3.45-7.56-6.51"/><path fill="#f69833" d="M10.89 23.2 0 27.2l6.11 7.04 3.14-1.15c-1.1-3.05-.43-6.5 1.64-9.87"/><path fill="#fecf33" d="M29.22 9.73C15.35 14.8 6.4 25.25 9.25 33.08l50.22-18.34c-2.84-7.83-16.38-10.07-30.25-5"/><path fill="#ee6723" d="M39.5 38.09c13.87-5.07 22.82-15.48 19.97-23.35L9.25 33.08c2.85 7.88 16.38 10.07 30.25 5"/><path fill="#f69833" d="M59.47 14.74 9.25 33.08c.98 2.72 4.73 4.05 10 4.05 5.12 0 11.69-1.27 18.53-3.77C51.65 28.3 61.41 20.1 59.47 14.74"/><path fill="#fdbd39" d="M49.47 10.69c-5.13 0-11.7 1.27-18.54 3.77C17.06 19.53 7.31 27.73 9.25 33.08l50.22-18.34c-.98-2.71-4.73-4.05-10-4.05"/><path fill="#ee6723" d="M46.7 44.06c-1.48 0-3.66-1.33-6.48-3.96-3.34-3.12-7.16-7.68-10.77-12.85-3.6-5.16-6.56-10.33-8.34-14.55-1.93-4.59-2.2-7.41-.82-8.39.3-.21.67-.32 1.1-.32 1.12 0 3.33.84 7.4 4.85l.09.09-.02.12a53.15 53.15 0 0 0-.07.87l-.05.56-.4-.4c-4.38-4.42-6.32-4.9-6.94-4.9a.73.73 0 0 0-.43.11c-.6.42-.64 2.5 1.24 6.95 1.74 4.14 4.66 9.23 8.22 14.33 3.56 5.1 7.32 9.6 10.6 12.65 3.54 3.3 5.13 3.66 5.65 3.66.18 0 .33-.04.43-.12.64-.45.64-2.67-1.45-7.46l-.1-.22.21-.11.6-.34.26-.14.12.26c1.48 3.4 2.86 7.71 1.05 8.99-.3.21-.68.32-1.1.32z"/><path fill="#ee6723" d="m39.84 37.95-.02.25c-.36 4.34-1.28 9.56-3.69 9.77a1.8 1.8 0 0 1-.14 0c-1.64 0-3.19-2.34-4.6-6.96-1.34-4.37-2.38-10.24-2.93-16.52-.55-6.29-.54-12.25.02-16.79.62-4.95 1.78-7.53 3.47-7.68h.16c1.18 0 2.97 1.34 4.8 7.6l-1.2.23a24.51 24.51 0 0 0-1.93-4.96c-.61-1.08-1.2-1.68-1.68-1.68h-.04c-.73.07-1.8 1.84-2.4 6.64-.55 4.46-.56 10.33-.02 16.53.55 6.2 1.57 11.99 2.88 16.28.6 1.93 1.24 3.51 1.87 4.58.59 1 1.15 1.54 1.6 1.54h.04c.7-.06 2.02-1.9 2.58-8.41z"/></svg>