<svg xmlns="http://www.w3.org/2000/svg" viewBox="0 0 86.376 86.474"><path fill="#ffb441" d="M0 14.412C0 6.454 6.445 0 14.396 0H71.98c7.95 0 14.396 6.454 14.396 14.412v57.65c0 7.96-6.446 14.412-14.396 14.412H14.396C6.446 86.474 0 80.021 0 72.062Z"/><path d="M74.4 10.214H11.977a2.047 2.047 0 1 0 0 4.095h29.284a2 2 0 0 0-.12.683v6.497c-11.09 1.033-19.774 10.375-19.774 21.75 0 11.373 8.682 20.715 19.775 21.748v9.228a2.049 2.049 0 0 0 4.096 0v-9.228c11.09-1.033 19.775-10.375 19.775-21.749s-8.682-20.716-19.775-21.75v-6.496c0-.24-.043-.47-.119-.682h29.283a2.047 2.047 0 1 0 0-4.096zM25.578 43.238c0-9.043 6.802-16.493 15.564-17.507v35.017C32.38 59.73 25.578 52.283 25.578 43.24Zm35.222 0c0 9.043-6.802 16.493-15.564 17.508V25.728c8.762 1.017 15.564 8.465 15.564 17.51"/></svg>