<svg xmlns="http://www.w3.org/2000/svg" viewBox="0 0 626 429"><path d="M159.346 386.374c-7.7-.49-14.395-1.544-22.511-3.545-2.948-.727-5.36-1.432-5.36-1.568 0-.135 48.816-48.96 108.48-108.5 59.664-59.541 108.48-108.36 108.48-108.488 0-.224-13.51-13.064-19.96-18.971l-3.122-2.86-112.434 112.434-112.433 112.433-1.802-1.092c-1.629-.987-9.494-6.776-11.831-8.709l-.943-.779 120.274-120.364C272.334 170.165 326.61 116 326.795 116c.379 0 37.807 37.274 42.84 42.663l3.234 3.463-73.874 73.875-73.875 73.874 7.994 8.263c4.397 4.544 16.045 16.686 25.885 26.982s22.722 23.741 28.624 29.878c5.903 6.136 10.78 11.284 10.839 11.44.132.35-133.555.29-139.116-.064zm174.689.106c0-.482 190.575-190.8 191.058-190.8.604 0 7.915 4.357 11.02 6.567 16.286 11.59 28.694 27.308 35.992 45.593 5.136 12.868 7.315 25.378 6.958 39.946-.27 11.004-1.648 19.002-5.027 29.174-6.447 19.408-18.219 36.083-34.2 48.449-15.81 12.231-35.105 19.537-55.401 20.976-5.411.384-150.4.475-150.4.095zm-39.6-51.04c-12.54-12.541-22.8-22.945-22.8-23.12 0-.176 33.488-33.807 74.418-74.738l74.418-74.418-3.48-3.822c-16.487-18.107-79.596-80.795-88.443-87.852l-1.167-.931-131.125 131.36C124.138 274.168 65.016 333.28 64.873 333.28c-.306 0-2.749-3.574-5.164-7.557-8.972-14.798-14.788-31.658-17.097-49.563-.828-6.423-.827-24.049 0-30.24 4.483-33.506 20.528-62.14 46.522-83.03 3.946-3.17 11.968-8.587 16.342-11.035 16.177-9.052 34.436-14.584 52.455-15.89l2.936-.213.866-1.956c1.163-2.623 5.217-10.164 7.59-14.116 4.681-7.796 10.363-15.757 16.568-23.217 4.264-5.126 16.28-17.142 21.406-21.406 22.296-18.546 47.916-31.198 75.455-37.26 13.11-2.886 23.985-4.037 38.163-4.037 15.665 0 27.53 1.434 42.56 5.145 46.973 11.595 87.552 42.645 111.414 85.253l2.508 4.478-15.955 16.002c-8.775 8.801-50.38 50.542-92.458 92.757L292.48 314.15l10.055 10.639c5.53 5.851 10.366 11.034 10.745 11.517l.691.878 88.099-88.099c48.454-48.454 88.162-88.032 88.239-87.951.423.441 3.042 11.44 4.02 16.888l.573 3.191-88.514 88.514c-48.682 48.682-88.658 88.513-88.834 88.513-.177 0-10.58-10.26-23.12-22.8z"/><path d="m294.821 335.096-22.551-22.55 74.685-74.691 74.684-74.69-23.058-23.739c-28.179-29.01-69.233-68.846-70.95-68.846-.693 0-60.114 58.854-132.048 130.786C71.19 325.756 64.716 332.049 63.194 330.056c-.88-1.153-3.945-6.633-6.813-12.179-18.448-35.68-18.545-77.098-.264-113.25 18.448-36.482 54.581-61.884 95.843-67.377l9.544-1.271 3.539-7.026C184.6 90.118 223.709 56.91 266.227 43.037c20.473-6.68 29.147-7.937 54.834-7.946 21.905-.008 24.133.176 36.003 2.975 34.365 8.105 60.619 22.062 84.442 44.89 12.199 11.69 25.53 28.309 31.545 39.328l3.399 6.227-63.91 64.169c-35.151 35.293-76.715 77.11-92.364 92.927l-28.452 28.757 10.954 11.667 10.954 11.667 87.9-87.493c48.346-48.122 88.183-87.212 88.528-86.867.344.344 1.444 4.394 2.443 8.999l1.817 8.372-88.474 88.47-88.474 88.469z"/><path fill="green" d="m294.524 334.856-22.273-22.292 74.73-74.736 74.731-74.736-22.2-22.533c-25.841-26.23-61.889-61.85-67.446-66.65-2.12-1.83-4.27-3.329-4.775-3.329-.506 0-59.774 58.854-131.708 130.786C71.19 325.756 64.716 332.049 63.194 330.056c-.88-1.153-3.945-6.633-6.813-12.179-24.969-48.29-15.706-106.587 23.077-145.234 19.092-19.024 45.17-31.754 72.502-35.393l9.544-1.271 3.539-7.026c19.48-38.683 58.23-71.676 100.828-85.847 19.92-6.627 29.47-8.009 55.19-7.985 26.068.023 33.977 1.223 55.452 8.409 38.866 13.005 73.795 41.039 94.913 76.176l5.194 8.642-55.492 55.76c-30.52 30.667-72.11 72.5-92.421 92.96l-36.93 37.202 10.928 11.726 10.927 11.725 87.9-87.505c48.346-48.128 88.183-87.223 88.528-86.878.344.344 1.444 4.394 2.443 8.999l1.817 8.372-88.224 88.22c-48.523 48.52-88.465 88.219-88.761 88.219-.296 0-10.56-10.032-22.811-22.292zM430.381 291.343c51.952-51.953 94.871-94.46 95.378-94.46 1.969 0 15.324 9.693 21.454 15.571 12.69 12.169 22.313 28.048 27.691 45.688 2.556 8.382 2.849 11.031 2.91 26.302.073 18.18-.793 23.246-6.407 37.495-7.716 19.586-24.054 39.02-41.537 49.41-9.66 5.74-25.754 11.647-36.338 13.337-4.294.686-35.35 1.105-82.253 1.11l-75.354.008z"/><path fill="green" d="M148.59 384.642c-2.626-.512-7.353-1.463-10.504-2.114l-5.728-1.184 108.478-108.482L349.314 164.38l-11.874-11.472-11.874-11.472-112.634 112.586L100.3 366.61l-6.752-4.878-6.751-4.877 120.05-120.05 120.05-120.05 22.552 22.551 22.553 22.553-73.628 73.633c-40.496 40.5-73.45 74.12-73.231 74.715.218.594 15.442 16.786 33.83 35.981 18.388 19.196 34.342 35.963 35.455 37.26l2.021 2.357-71.54-.116c-39.348-.064-73.69-.535-76.318-1.046z"/></svg>