<svg xmlns="http://www.w3.org/2000/svg" width="152.731" height="152.731" viewBox="0 0 114.548 114.548"><defs><clipPath id="a"><path d="M57 3h58v72.27H57zm0 0"/></clipPath></defs><path d="M40.517 84.114c.012.402.305.27.523.265 5.27.426 10.5.282 15.645-1.105 7.672-1.52 14.488-4.797 20.027-10.352 7.82-7.84 9.203-18.199 3.543-26.804-5.531-8.41-13.789-12.7-23.39-14.77-5.227-1.336-10.512-1.867-15.887-1.086-5.484.153-10.676 1.574-15.649 3.79-1.777.788-3.324.831-5.066-.09-2.594-1.376-5.289-2.555-8.309-3.993.938 2.934 1.711 5.492 2.575 8.02.5 1.468.242 2.707-.778 3.84a51.197 51.197 0 00-1.797 2.109c-6.41 7.98-6.714 17.715-.605 25.926 5.555 7.457 13.402 11.304 22.223 13.41 2.277.543 4.574 1.219 6.98.855zm17.312 6.324c-5.09.754-10.183 1.469-15.351 1.144-12.336-.777-23.484-4.492-32.762-13.011C-1.799 67.993-3.26 52 6.306 39.747c.813-1.04.867-1.856.465-3.02-1.367-3.984-2.602-8.012-3.95-12.004-.538-1.601-.413-3.023.852-4.168 1.336-1.21 2.809-1.117 4.399-.336 4.488 2.219 9.02 4.34 13.52 6.54.808.398 1.507.554 2.402.198 10.914-4.343 22.144-4.976 33.605-2.8 5.633 1.238 10.91 3.418 15.996 6.101 1.992 1.5 4.063 2.91 5.969 4.512 12.805 10.742 14.734 27.379 4.695 40.137-2.906 3.695-6.558 6.55-10.383 9.21-5.062 2.837-10.445 4.864-16.047 6.32" fill="#f05c26"/><g clip-path="url(#a)" transform="translate(.001 19.641)"><path d="M57.828 70.8c5.602-1.46 10.984-3.491 16.047-6.323.293.113.61.363.879.316 4.933-.797 9.86-1.691 14.398-3.902 1.852-.907 3.453-.786 5.235.16 2.535 1.347 5.168 2.511 8.129 3.93-.707-2.22-1.153-4.145-1.934-5.918-1.266-2.868-.8-5.028 1.344-7.465 7.48-8.504 7.547-19.262.133-27.856-7.442-8.629-17.371-12.234-28.465-13.125-5.086-2.683-10.364-4.863-15.996-6.101 17.46-3.047 33.566-.352 47.09 11.863 11.851 10.707 13.066 26.262 3.382 38.945-.71.93-.754 1.688-.41 2.703 1.32 3.934 2.567 7.891 3.88 11.828.558 1.676.698 3.274-.755 4.551-1.445 1.27-3.027.969-4.613.196-4.266-2.075-8.567-4.075-12.797-6.22-1.223-.616-2.21-.683-3.504-.183-10.152 3.918-20.613 4.719-31.308 2.88-.254-.048-.493-.184-.735-.278" fill="#1985c2"/></g><path d="M40.552 84.13c-2.789-2.079-5.601-4.11-8.062-6.61-12.012-12.2-11.454-30.262 1.296-41.746 2.262-2.035 4.735-3.758 7.192-5.512 5.375-.781 10.66-.25 15.89 1.086-5.292 1.469-10.335 3.469-14.847 6.684-15.04 10.722-14.863 28.324.363 38.808 4.39 3.02 9.274 4.875 14.3 6.434-5.14 1.387-10.374 1.531-15.644 1.105l-.523-.27" fill="#1985c2"/><path d="M56.783 73.36c-5.278-.195-10.477-2.348-14.422-7.145-1.809-2.203-1.79-4.343-.012-5.738 1.742-1.36 3.617-.93 5.418 1.242 5.102 6.172 14.605 6.153 19.742-.039 1.75-2.11 3.75-2.543 5.453-1.183 1.711 1.367 1.68 3.617-.082 5.753-3.742 4.536-9.281 7.118-16.097 7.11" fill="#f58a23"/><path d="M53.158 48.704c-.004 2.886-2.364 5.27-5.247 5.304a5.301 5.301 0 01-5.39-5.347c.015-2.996 2.43-5.344 5.437-5.29a5.299 5.299 0 015.2 5.333M72.693 48.641c.011 3-2.223 5.32-5.172 5.367-2.988.043-5.45-2.406-5.418-5.386a5.305 5.305 0 015.336-5.25c2.976.003 5.242 2.277 5.254 5.27" fill="#1985c2"/></svg>