<svg xmlns="http://www.w3.org/2000/svg" width="96" height="96"><path d="M39.938 0C7.018 0 .207 46.306 23.387 69.517 36.602 82.751 46.584 96 63.11 96 83 96 86.283 79.433 86.283 49.655 86.283 19.933 69.585 0 39.938 0" fill="#f4f23f"/><path d="M25.04 52.965a4.965 4.965 0 100-9.93 4.965 4.965 0 000 9.93M64.766 52.965a4.966 4.966 0 100-9.931 4.966 4.966 0 000 9.931" fill="#182743"/><path d="M66.522 70.55a44.482 44.482 0 01-21.62 5.588c-4.759 0-9.345-.764-13.647-2.144 0 0 34.884-51.623 34.9-51.65.179-.29.26-.547.263-.816 0-.02.003-.07.003-.133v-4.847H23.387v6.62h33.915l-33.65 49.803c-.178.291-.258.548-.263.818l-.002.131v4.118a51.115 51.115 0 0021.515 4.72c9.009 0 17.473-2.32 24.831-6.396l-3.211-5.813" fill="#182743"/></svg>