<svg xmlns="http://www.w3.org/2000/svg" width="1021" height="1021"><path d="M809.6 688.8c-16.5 0-29.9-13.4-29.9-29.9V496.1c0-16.8-13.7-30.5-30.5-30.5H271.8c-16.8 0-30.5 13.7-30.5 30.5v34.1c0 16.5-13.4 29.9-29.9 29.9s-29.9-13.4-29.9-29.9v-34.1c0-49.8 40.5-90.4 90.4-90.4h477.4c49.8 0 90.4 40.5 90.4 90.4v162.7c-.2 16.6-13.5 30-30.1 30z" fill="#f9b21d"/><path d="M930.6 1020.8H90.4c-49.8 0-90.4-40.5-90.4-90.4V691.7c0-16.5 13.4-29.9 29.9-29.9s29.9 13.4 29.9 29.9v238.7c0 16.8 13.7 30.5 30.5 30.5h840.2c16.8 0 30.5-13.7 30.5-30.5V423.9c0-9.4-4.2-18.1-11.6-23.9L529.5 66.7c-11.2-8.9-26.8-8.9-38 0L71.4 399.9c-7.3 5.8-11.6 14.5-11.6 23.9v102.4c0 11.3 6.2 21.6 16.2 27l420.1 223.4c9 4.8 19.7 4.8 28.7 0l270.7-144.2c14.6-7.8 32.7-2.2 40.5 12.3 7.8 14.6 2.2 32.7-12.3 40.5L553 829.4c-26.6 14.2-58.3 14.2-84.9 0L48 606C18.4 590.3.1 559.7.1 526.2V423.8c0-27.7 12.5-53.5 34.2-70.8l420-333.2C470.2 7.2 490.2.2 510.5.2c20.3 0 40.3 7 56.2 19.6l420.1 333.3c21.7 17.2 34.2 43 34.2 70.8v506.5c-.1 49.8-40.6 90.4-90.4 90.4z" fill="#226db4"/></svg>