<svg xmlns="http://www.w3.org/2000/svg" viewBox="0 0 360 124.1"><linearGradient id="d" x1="-83" x2="-71" y1="64" y2="136" gradientUnits="userSpaceOnUse"><stop stop-color="#d92231"/><stop offset="1" stop-color="#ba2234"/></linearGradient><linearGradient id="c" x1="131" x2="131" y1="51" y2="121" gradientUnits="userSpaceOnUse"><stop stop-color="#25a149"/><stop offset="1" stop-color="#008a52"/></linearGradient><linearGradient id="b" x1="99" x2="178" y1="158.8" y2="221" gradientUnits="userSpaceOnUse"><stop stop-color="#168ccc"/><stop offset="1" stop-color="#00649e"/></linearGradient><linearGradient id="a" x1="200" x2="200" y1="41" y2="120" gradientUnits="userSpaceOnUse"><stop stop-color="#ffe500"/><stop offset="1" stop-color="#fcb822"/></linearGradient><path fill="#e79224" d="M360 26.4v85.4l-11.8 11.5V39.8L360 26.4"/><path fill="url(#a)" d="M270.3 39.8h78.1v83.6h-78z"/><path fill="#fef26f" d="m282.6 26.5-12.3 13.3h78.1L360 26.4l-77.4.1"/><path fill="#91c9ed" d="m185.9 30.2 76.8-10.7-6.5 18.4-72.7 11.5.3-13.1z"/><path fill="url(#b)" d="m256.2 37.9 10.7 74.9-75.8 10.6L181 51l4.4-3.4 71-9.7"/><path fill="#0b9ad6" d="M262.7 19.5v.4l10 76.7-5.8 16.2-10.7-74.9"/><path fill="url(#c)" d="m121 23.8 68 30.6-30.7 69.7-68-30.7L121 23.8"/><path fill="#98d0a0" d="m114 0 7 23.8 68 30.6-5.7-22.7z"/><path fill="#68bf6b" d="M114 0 86.6 64.9l3.7 28.5L121 23.8Z"/><path fill="url(#d)" d="m76 37.8 11.2 73.7-75.1 11.8L0 49.4l76-11.6"/><path fill="#ef463d" d="m0 49.4 5.3-26.3L81 11l-5.1 26.8Z"/><path fill="#761116" d="m81.1 11 11.2 74.4-5 26L76 37.8Z"/><path fill="#fff" d="M243.3 52.3a8.5 8.5 0 0 0-2.4-5.3c-1-1-2.3-1.4-3.8-1.4a8 8 0 0 0-1.1 0 6.2 6.2 0 0 0-5.4 6.7l.1 1.8 2.8 19.5-21.8 3.2-2.7-19.5c-.4-2.3-1.2-4-2.4-5.2-1-1-2.3-1.5-3.8-1.5l-1 .1c-2 .3-3.6 1.2-4.6 2.7-.7 1-1 2.4-1 3.9l.1 1.9 7.5 50.6a8.2 8.2 0 0 0 2.5 5.3c1 .9 2.4 1.3 3.9 1.3h1.2a5.5 5.5 0 0 0 4.2-2.7 8 8 0 0 0 1-3.9c0-.6 0-1.2-.2-1.8l-3-20 21.7-3.2 3 20c.4 2.3 1.2 4 2.5 5.2 1.1 1 2.4 1.4 3.9 1.4l1.1-.1c2-.3 3.5-1.2 4.4-2.7.6-1 1-2.3 1-3.8l-.2-1.9zm-88.5 28c-2.6 6-6 10.2-10.1 12.5a14.2 14.2 0 0 1-7 1.8c-2 0-4.1-.5-6.3-1.4-4.8-2-7.8-5.3-9-9.9a18 18 0 0 1-.7-4.9c0-3.3.9-7 2.6-11 2.6-6.2 6-10.5 10.2-12.8 2.2-1.2 4.5-1.8 7-1.8 2 0 4.2.5 6.4 1.4a14.7 14.7 0 0 1 9.5 14.7 29 29 0 0 1-2.6 11.4zm7.4-30.4c-2.6-2.8-5.9-5-9.7-6.6a29 29 0 0 0-11.4-2.4h-.2a31.4 31.4 0 0 0-22 9.9c-3 3-5.3 6.8-7.2 11.2a37.2 37.2 0 0 0-3 14.4c0 3.8.6 7.6 2 11.2a27.9 27.9 0 0 0 16 16.7 28.5 28.5 0 0 0 23-.1 33 33 0 0 0 10.5-7.4c3-3 5.4-6.8 7.2-11.2a36.6 36.6 0 0 0 3-14.2 32.6 32.6 0 0 0-8.2-21.5zM68 99.8a5.3 5.3 0 0 0-2.3-1.6 11 11 0 0 0-3.7-.5c-1.3 0-2.8.1-4.6.4l-19.8 3.4c.2-1.5 1-3.5 2.3-6 1.5-2.7 3.7-6 6.6-9.8a3883.3 3883.3 0 0 1 3.9-5.2c4.5-6 7.3-10.8 8.4-14.6a30.6 30.6 0 0 0 .8-13c-.2-1.3-.6-2.5-1-3.4-.5-.9-1-1.6-1.8-2-.8-.5-2-.7-3.4-.7-1.2 0-2.7.1-4.4.4l-23 4c-2.7.4-4.8 1.2-6 2.4a4.5 4.5 0 0 0-1.6 3.7v1.2c.4 2 1.4 3.4 3 4.1 1 .4 2.2.7 3.5.7l3-.3 19.3-3.3a10.5 10.5 0 0 1-.6 4.6c-.6 1.5-2 3.8-4.3 6.7l-3 3.7a91.6 91.6 0 0 0-11 16 34.7 34.7 0 0 0-3.9 14 18.7 18.7 0 0 0 1.5 7.2 5 5 0 0 0 2 2.2c.7.4 1.8.5 3.3.5 1.9 0 4.5-.2 7.8-.8l20.8-3.6c3.6-.6 6.2-1.5 7.7-2.7 1.2-1 1.8-2.3 1.8-3.9l-.1-1.2c-.2-1-.6-2-1.2-2.6zM50.4 80.5Zm270.1 17a15 15 0 0 1-12.2 5.4c-5.2 0-9.3-1.8-12.3-5.4-3-3.6-4.5-8.6-4.5-15s1.5-11.4 4.5-15c3-3.7 7-5.5 12.3-5.5a15 15 0 0 1 12.2 5.5c3 3.6 4.5 8.6 4.5 15a23 23 0 0 1-4.5 15zm16-27.6A31.2 31.2 0 0 0 320 52.8a30 30 0 0 0-11.7-2.2 28.9 28.9 0 0 0-21.5 9c-3 3-5.3 6.4-6.8 10.3a34.7 34.7 0 0 0-2.3 12.7 31.6 31.6 0 0 0 9 23.2 28.2 28.2 0 0 0 21.6 8.7 30.4 30.4 0 0 0 21.4-8.7 31.6 31.6 0 0 0 9.2-23.2 34 34 0 0 0-2.3-12.7"/></svg>
