<svg xmlns="http://www.w3.org/2000/svg" viewBox="0 0 1010 345"><path fill="#089949" d="M451 345c-8 0-16-2-23-5l-160-71a57 57 0 0 1-29-75l71-160c13-29 47-42 75-29l160 71c29 13 42 47 29 75l-71 160a58 58 0 0 1-52 34zm-10-35c12 5 26 0 32-12l71-160c6-12 0-26-12-32L372 35c-12-6-26 0-32 12l-71 160c-5 12 0 26 12 32z"/><path fill="#f9b21d" d="M953 345H778c-32 0-57-26-57-57V113c0-31 25-57 57-57h175c31 0 57 26 57 57v175c0 31-26 57-57 57zM778 89c-14 0-24 11-24 24v175c0 13 10 24 24 24h175c13 0 24-11 24-24V113c0-13-11-24-24-24z"/><path fill="#e42527" d="m297 145-24 53-1 1 9 57c2 13-6 26-19 28L89 312c-7 1-13-1-18-4s-9-10-10-16L33 119c-1-6 1-13 4-18s10-9 16-10l173-28h4c11 0 21 9 23 20l10 58 24-55-1-8c-5-31-34-52-65-47L48 59c-15 2-28 11-37 23s-13 27-10 42l28 173a56 56 0 0 0 65 47l173-28c31-5 52-34 47-65z"/><path fill="#226db4" d="m504 228 26-57-8-53c-1-6 1-13 5-18s10-8 16-9l174-24h3c5 0 10 2 14 5l3 2c7-8 17-14 29-16-4-5-7-9-12-12-12-9-27-13-42-11L538 58a57 57 0 0 0-48 64zm296 29L777 89c-13 0-23 11-23 24v49l13 99c1 7-1 13-5 18s-9 8-15 9l-174 24c-6 1-13-1-18-5s-8-9-9-16l-8-59-25 57 1 7c2 15 9 28 21 37a56 56 0 0 0 43 11l173-23c15-2 28-10 37-22 10-12 14-27 12-42z"/></svg>