<svg xmlns="http://www.w3.org/2000/svg" width="1009.536" height="344.988" viewBox="0 0 1009.537 344.988"><path fill="#089949" d="M450.836 344.888c-7.7 0-15.5-1.6-23-4.9l-160-71.3c-28.6-12.7-41.5-46.4-28.8-75l71.3-160c12.7-28.6 46.4-41.5 75-28.8l160 71.3c28.6 12.7 41.5 46.4 28.8 75l-71.3 160c-9.5 21.2-30.3 33.7-52 33.7zm-9.7-34.9c12.1 5.4 26.3-.1 31.7-12.1l71.3-160c5.4-12.1-.1-26.3-12.1-31.7l-160.1-71.3c-12.1-5.4-26.3.1-31.7 12.1l-71.3 160c-5.4 12.1.1 26.3 12.1 31.7z"/><path fill="#f9b21d" d="M952.736 344.988h-175.2c-31.3 0-56.8-25.5-56.8-56.8v-175.2c0-31.3 25.5-56.8 56.8-56.8h175.2c31.3 0 56.8 25.5 56.8 56.8v175.2c0 31.3-25.5 56.8-56.8 56.8zm-175.2-256c-13.2 0-24 10.8-24 24v175.2c0 13.2 10.8 24 24 24h175.2c13.2 0 24-10.8 24-24v-175.2c0-13.2-10.8-24-24-24z"/><path fill="#e42527" d="m296.636 145.088-23.6 52.8-.9 1.6 9.2 56.8c2.1 13.1-6.8 25.4-19.8 27.5l-173 28c-6.3 1-12.7-.5-17.9-4.2s-8.6-9.3-9.6-15.6l-28-173c-1-6.3.5-12.7 4.2-17.9s9.3-8.6 15.6-9.6l173-28c1.3-.2 2.6-.3 3.8-.3 11.5 0 21.8 8.4 23.7 20.2l9.3 57.2 24.4-54.7-1.3-7.7c-5-30.9-34.2-52-65.1-47l-173 28c-14.9 2.3-28.1 10.4-36.9 22.7-8.9 12.3-12.4 27.3-10 42.3l28 173c2.4 15 10.5 28.1 22.8 37 9.7 7.1 21.2 10.7 33.1 10.7 3 0 6.1-.2 9.2-.7l173-28c30.9-5 52-34.2 47-65.1z"/><path fill="#226db4" d="m504.136 227.688 25.4-56.9-7.2-52.9c-.9-6.3.8-12.6 4.7-17.7s9.5-8.4 15.9-9.2l173.6-23.6c1.1-.1 2.2-.2 3.3-.2 5.2 0 10.2 1.7 14.5 4.9.8.6 1.5 1.3 2.2 1.9 7.7-8.1 17.8-13.9 29.1-16.4-3.2-4.4-7-8.3-11.5-11.7-12.1-9.2-27-13.1-42-11.1l-173.8 23.6c-15 2-28.4 9.8-37.5 21.9-9.2 12.1-13.1 27-11.1 42zm295.4 29.3-22.8-168c-12.8.4-23.1 11-23.1 23.9v49.3l13.5 99.2c.9 6.3-.8 12.6-4.7 17.7s-9.5 8.4-15.9 9.2l-173.6 23.6c-6.3.9-12.6-.8-17.7-4.7s-8.4-9.5-9.2-15.9l-8-58.9-25.4 56.9.9 6.4c2 15 9.8 28.4 21.9 37.5 10 7.6 21.9 11.6 34.3 11.6 2.6 0 5.2-.2 7.8-.5l173.4-23.4c15-2 28.4-9.8 37.5-21.9 9.2-12.1 13.1-27 11.1-42z"/></svg>