<svg xmlns="http://www.w3.org/2000/svg" width="400" height="400"><g fill-rule="evenodd"><path fill="#54a4bc" d="M116.786 44.032c-.035.03-1.611.137-3.501.237-1.89.101-3.734.22-4.098.265-.363.045-1.471.163-2.46.264-.99.1-2.001.22-2.247.267-.247.046-.984.157-1.638.247-.654.089-1.482.219-1.84.289-.358.07-1.131.198-1.718.284a56.96 56.96 0 0 0-2.919.557c-1.018.221-2.684.579-3.701.797-4.362.933-16.116 4.694-16.907 5.409a1 1 0 0 1-.577.227c-.179 0-1.136.365-2.128.811-.991.447-2.391 1.071-3.11 1.388-2.027.895-6.191 2.989-7.946 3.996-.872.501-1.845 1.03-2.161 1.177-.681.316-5.447 3.232-5.638 3.45-.073.083-.457.318-.855.523a6.72 6.72 0 0 0-1.245.859c-.287.267-.594.486-.683.486-.134 0-.953.572-2.372 1.656-.146.112-.86.643-1.587 1.181-1.676 1.242-1.539 1.135-3.571 2.778-5.891 4.764-11.362 10.091-15.818 15.403a597.301 597.301 0 0 1-2.784 3.305c-.19.218-.632.808-.983 1.312a19.397 19.397 0 0 1-1.118 1.454c-.264.296-.733.955-1.043 1.464-.31.509-.639.984-.732 1.057-.255.2-3.428 4.979-3.428 5.163 0 .088-.285.539-.632 1.002-.348.462-.972 1.467-1.388 2.231-.416.764-1.206 2.192-1.756 3.172-1.822 3.248-4.652 9.27-5.993 12.755a124.577 124.577 0 0 1-1.207 3.04c-.567 1.319-2.982 8.958-3.183 10.067-.103.57-.281 1.219-.396 1.442-.114.223-.287.935-.383 1.581-.097.646-.226 1.258-.289 1.359-.062.1-.227.757-.366 1.459l-.359 1.805c-.058.291-.181.945-.274 1.454a146.1 146.1 0 0 1-.277 1.487c-.125.637-.296 1.749-.565 3.669a58.122 58.122 0 0 1-.283 1.85c-.685 3.69-.682 24.969.003 28.553.056.291.189 1.183.295 1.983.107.799.23 1.647.274 1.883.044.236.152.89.241 1.454.899 5.703 3.822 16.515 5.566 20.589.186.436.644 1.584 1.017 2.551 1.328 3.443 4.539 10.157 6.619 13.84a105.71 105.71 0 0 1 1.446 2.644c.303.581 1.09 1.878 1.749 2.881s1.198 1.874 1.198 1.936c0 .184 5.743 8.618 6.264 9.199.263.293.775.96 1.139 1.482.732 1.052 1.19 1.649 3.71 4.841.95 1.204 1.902 2.372 2.115 2.597.213.224.744.857 1.18 1.406 4.286 5.394 17.824 19.28 24.737 25.372l5.306 4.674c1.537 1.354 7.114 5.946 9.027 7.433.405.314.881.693 1.058.843.177.149.996.804 1.82 1.454.823.65 1.775 1.404 2.115 1.676.339.271 2.52 1.912 4.847 3.645a734.249 734.249 0 0 1 4.759 3.564c.291.227 1.004.728 1.586 1.114.582.385 1.288.909 1.57 1.163.282.255.591.463.687.463.095 0 .454.243.797.541.343.297 1.045.798 1.561 1.114.515.315 1.075.706 1.243.87.169.163.942.701 1.719 1.195.776.493 1.451.988 1.5 1.1.048.112.247.203.44.203.194 0 .393.1.441.222.116.293 8.065 5.594 8.388 5.594.136 0 .288.09.336.199.123.275 3.065 2.181 3.367 2.181.136 0 .286.089.335.198.1.225 2.241 1.652 2.479 1.652.086 0 .546.298 1.022.661.477.364.99.661 1.14.661.15 0 .412.168.582.373.17.204.69.567 1.156.804.466.238 1.158.636 1.537.884 1.357.886 9.22 5.606 9.34 5.606.067 0 .645.353 1.284.784.638.431 1.447.913 1.797 1.071.35.158 1.112.578 1.694.933.582.355 1.414.833 1.851 1.062.436.229 1.269.706 1.85 1.059.582.353 1.534.892 2.115 1.198.582.306 1.653.898 2.38 1.315.727.416 1.857 1.047 2.511 1.4l3.041 1.643a623.251 623.251 0 0 0 19.696 10.182c9.843 4.848 12.51 6.118 20.356 9.695 9.144 4.168 15.028 4.552 22.472 1.467 1.957-.811 2.271-.943 3.041-1.272 4.904-2.098 9.587-4.336 21.414-10.232 9.486-4.73 13.318-6.691 17.317-8.865.945-.514 2.372-1.283 3.172-1.71.8-.426 2.109-1.138 2.908-1.582.8-.444 1.871-1.033 2.38-1.309.509-.276 1.52-.849 2.247-1.275a65.977 65.977 0 0 1 2.115-1.187 41.065 41.065 0 0 0 1.85-1.056 42.52 42.52 0 0 1 1.851-1.055 21.58 21.58 0 0 0 1.586-.939c.437-.289 1.08-.651 1.43-.803.35-.153 1.123-.606 1.718-1.008s1.261-.815 1.479-.919c.218-.104.753-.424 1.19-.711a18.598 18.598 0 0 1 1.321-.794c.291-.15.886-.507 1.322-.794.437-.287.972-.605 1.19-.706.555-.257 3.012-1.747 3.173-1.923.072-.08.548-.376 1.057-.656.509-.281 1.937-1.168 3.173-1.972s2.535-1.619 2.887-1.811c.353-.192 1.215-.762 1.918-1.267.702-.504 1.395-.917 1.54-.917a.265.265 0 0 0 .264-.265c0-.145.122-.264.271-.264.337 0 8.288-5.289 8.409-5.594a.377.377 0 0 1 .322-.222c.299 0 5.642-3.722 5.759-4.012.048-.12.202-.218.342-.218.225 0 3.066-1.973 3.403-2.364.073-.084.608-.467 1.19-.851a27.656 27.656 0 0 0 1.586-1.122c.291-.234 1.838-1.4 3.437-2.592 1.6-1.192 3.027-2.265 3.173-2.385.145-.12 1.457-1.137 2.916-2.26 1.459-1.123 2.827-2.191 3.04-2.374.214-.183 1.221-1 2.239-1.817 1.018-.817 1.91-1.566 1.983-1.666.073-.099.383-.352.689-.562 2.102-1.439 12.029-10.283 18.973-16.903 4.803-4.578 13.236-13.828 18.078-19.828.764-.946 1.548-1.899 1.742-2.117.194-.218.64-.808.991-1.312a19.74 19.74 0 0 1 1.095-1.432c.251-.284.786-1.002 1.189-1.596.403-.594.941-1.31 1.195-1.592.255-.282.463-.601.463-.708 0-.108.149-.353.331-.545.695-.735 1.784-2.309 1.784-2.579 0-.155.119-.282.264-.282a.271.271 0 0 0 .265-.276c0-.151.238-.53.529-.843.29-.312.528-.723.528-.914 0-.19.119-.347.265-.347.145 0 .264-.178.264-.396 0-.218.1-.397.222-.397s.357-.267.523-.594c.165-.328.6-1.071.965-1.653.365-.581.786-1.295.935-1.586.149-.291.504-.886.788-1.322.285-.436.787-1.269 1.115-1.851l1.194-2.115c.753-1.334 4.024-7.9 4.621-9.276 1.39-3.205 1.737-4.029 2.047-4.868a62.64 62.64 0 0 1 .668-1.718c2.227-5.427 5.27-17.207 6.077-23.53.093-.727.214-1.619.27-1.982.495-3.252.786-8.726.787-14.805.001-8.059-.344-12.62-1.441-19.035-.137-.8-.312-1.871-.389-2.38-.306-2.019-1.267-6.114-2.482-10.575-.722-2.648-3.469-10.642-3.767-10.958a.979.979 0 0 1-.236-.577c0-.178-.365-1.136-.811-2.128a489.804 489.804 0 0 1-1.388-3.11c-.882-1.998-2.98-6.175-3.991-7.946a53.548 53.548 0 0 1-1.289-2.379c-.211-.436-.815-1.43-1.343-2.208-.528-.778-.96-1.467-.96-1.53 0-.107-3.009-4.645-3.481-5.251a495.59 495.59 0 0 1-2.17-2.908c-4.702-6.33-11.94-14.029-17.746-18.876-1.6-1.336-3.08-2.572-3.289-2.748-.45-.377-1.582-1.216-2.395-1.773a18.832 18.832 0 0 1-1.281-1c-.386-.331-1.297-.983-2.024-1.449-.727-.466-1.361-.938-1.41-1.05-.048-.111-.257-.203-.463-.203-.206 0-.374-.119-.374-.264 0-.145-.179-.264-.397-.264-.218 0-.396-.119-.396-.265 0-.145-.098-.264-.217-.264s-1.21-.654-2.424-1.452c-1.214-.799-2.692-1.705-3.286-2.013-.594-.309-1.793-.966-2.665-1.462-2.106-1.195-8.734-4.419-10.84-5.271a352.55 352.55 0 0 1-1.586-.649 78.026 78.026 0 0 0-1.388-.557 37.185 37.185 0 0 1-1.19-.486c-2.994-1.295-13.633-4.534-16.854-5.132-.363-.067-1.493-.3-2.511-.517a68.892 68.892 0 0 0-2.842-.549c-1.833-.285-2.906-.461-3.435-.563a40.78 40.78 0 0 0-2.015-.273 42.413 42.413 0 0 1-1.938-.256c-.246-.046-1.453-.162-2.68-.258a203.806 203.806 0 0 1-3.121-.264c-1.178-.12-15.663-.108-17.016.013l-2.908.257c-1.018.089-2.089.21-2.38.269-.29.058-1.199.175-2.018.259-.82.083-1.712.193-1.983.244a86.94 86.94 0 0 1-1.683.276c-2.226.345-8.85 1.728-10.707 2.235-1.018.277-2.51.685-3.316.906-2.57.706-8.297 2.659-9.04 3.084-.252.144-.585.262-.74.262-.154 0-.773.238-1.375.529-.602.291-1.191.528-1.308.528-.484 0-9.198 4.213-11.716 5.663-.872.503-1.824 1.042-2.115 1.199-.291.156-.886.514-1.322.795-.436.281-1.299.776-1.917 1.1-.618.325-1.123.688-1.123.808 0 .119-.126.217-.279.217-.258 0-3.388 2.009-3.687 2.366-.072.087-.486.384-.918.66-.433.275-.909.598-1.058.716-.149.118-1.121.842-2.159 1.607a77.554 77.554 0 0 0-5.394 4.367c-.538.473-1.127.859-1.31.859-.183 0-.775-.386-1.315-.859a127.064 127.064 0 0 0-5.691-4.624c-2.215-1.678-3.328-2.448-3.536-2.448a.394.394 0 0 1-.342-.218c-.087-.217-4.053-2.954-4.279-2.954-.065 0-.754-.432-1.532-.96s-1.772-1.133-2.208-1.343a51.364 51.364 0 0 1-2.379-1.293c-2.556-1.464-11.238-5.658-11.716-5.658-.118 0-.707-.237-1.309-.528-.601-.291-1.22-.529-1.375-.529-.154 0-.487-.118-.739-.262-.744-.425-6.471-2.378-9.041-3.084l-3.315-.906c-1.857-.507-8.481-1.89-10.708-2.235-.654-.102-1.368-.217-1.586-.256-.465-.085-2.14-.294-4.362-.546-.873-.099-1.824-.233-2.115-.298-.291-.064-3.563-.172-7.27-.24-3.708-.067-7.07-.157-7.471-.2-.4-.043-.757-.053-.793-.023M130.601 89.2c.509.08 1.509.218 2.222.307.712.089 1.54.209 1.84.267.299.058 1.024.171 1.612.253.957.133 3.977.857 7.677 1.841 3.572.949 10.12 3.614 14.144 5.755 3.576 1.902 3.495 1.855 4.407 2.509.457.327.914.595 1.016.595.102 0 .636.357 1.187.793.551.436 1.072.793 1.159.793.086 0 .366.173.622.384.257.211 1.18.925 2.052 1.585 2.84 2.152 3.91 3.111 7.809 7.011 4.26 4.26 5.838 6.079 8.513 9.811 1.614 2.251 2.052 2.902 2.052 3.043 0 .088.268.533.595.988.756 1.052 1.158 1.727 1.526 2.558.161.364.638 1.202 1.061 1.862.423.661 1.112 2.029 1.532 3.041.42 1.011 1.007 2.374 1.304 3.029.74 1.629 1.968 5.015 2.685 7.402 1.405 4.678 1.894 5.286 4.252 5.286 2.517 0 2.773-.364 4.882-6.931.827-2.577 1.798-5.296 2.159-6.043.36-.747.887-1.978 1.17-2.736.284-.758.991-2.166 1.572-3.13.581-.963 1.056-1.822 1.056-1.908 0-.087.225-.48.5-.874s1.256-1.906 2.18-3.36c.924-1.454 1.876-2.882 2.116-3.172.239-.291 1.429-1.777 2.644-3.302 3.707-4.653 9.614-10.248 14.391-13.633 1.007-.714 1.87-1.389 1.919-1.501.048-.111.257-.203.463-.203.206 0 .374-.119.374-.264 0-.146.138-.265.306-.265.168 0 .673-.276 1.123-.614.45-.338.997-.697 1.215-.798a25.73 25.73 0 0 0 1.454-.809c13.551-8.001 32.871-11.748 47.94-9.296.388.063 1.181.185 1.763.27.581.086 1.235.206 1.454.267.218.06.813.174 1.321.253 6.922 1.068 19.626 5.773 25.777 9.546.582.357 1.229.731 1.439.831.397.189 5.766 3.842 6.228 4.237a221.6 221.6 0 0 0 2.226 1.805c4.17 3.355 8.894 8.268 12.323 12.815.713.945 1.389 1.758 1.503 1.806.114.049.207.21.207.359 0 .148.357.721.793 1.272.436.55.793 1.084.793 1.186 0 .103.268.56.595 1.016.831 1.16 2.087 3.492 3.798 7.051 2.069 4.301 2.152 4.504 3.379 8.195 1.219 3.669 2.509 8.85 2.963 11.897.076.509.189 1.223.25 1.586.668 3.942.662 17.933-.007 19.027-.047.078-.161.617-.253 1.198-.573 3.631-1.671 7.909-3.055 11.897-1.048 3.017-5.004 11.715-5.713 12.558-.183.219-.463.695-.62 1.058a12 12 0 0 1-.809 1.454c-.287.436-.612.971-.723 1.189-.292.576-4.352 6.631-4.87 7.263-.241.295-1.1 1.429-1.909 2.519-1.665 2.244-2.101 2.8-3.159 4.025-.411.476-1.422 1.691-2.247 2.7-2.887 3.531-14.942 15.904-17.759 18.229-.509.419-1.817 1.567-2.908 2.551-1.09.983-2.875 2.532-3.965 3.442-1.091.909-2.103 1.784-2.25 1.943-.147.159-.801.697-1.454 1.195a49.556 49.556 0 0 0-1.584 1.251 73.204 73.204 0 0 1-2.448 2.004l-3.236 2.505c-1.454 1.124-2.778 2.166-2.942 2.316-.164.149-.565.45-.891.668-.327.218-.728.516-.892.662-.164.146-.977.728-1.808 1.293-.83.565-1.725 1.218-1.987 1.453-.263.234-1.179.899-2.036 1.478-.857.58-1.688 1.179-1.846 1.332-.158.153-.737.554-1.286.89-.549.336-1.144.748-1.322.915-.178.168-1.216.888-2.306 1.601-1.091.713-2.023 1.397-2.071 1.52-.049.123-.257.224-.463.224-.206 0-.375.119-.375.264 0 .146-.178.265-.396.265-.218 0-.397.092-.397.204 0 .112-.535.496-1.189.853-.655.358-1.19.742-1.19.854 0 .112-.179.204-.397.204-.218 0-.396.119-.396.264 0 .146-.179.265-.397.265-.218 0-.396.119-.396.264a.267.267 0 0 1-.268.264c-.316 0-4.055 2.422-4.183 2.71-.048.109-.199.198-.336.198-.305 0-2.45 1.379-2.572 1.653-.048.109-.215.198-.371.198s-.674.297-1.15.661c-.477.364-.94.661-1.029.661-.09 0-.841.442-1.67.982-.83.54-1.757 1.118-2.061 1.284-.64.351-6.67 3.993-7.724 4.665-.391.25-1.069.634-1.505.854-.436.22-.971.515-1.189.657-1.003.649-6.572 3.826-8.328 4.751-.582.306-1.653.904-2.38 1.33a65.137 65.137 0 0 1-2.643 1.448 157.15 157.15 0 0 0-3.305 1.762c-7.078 3.879-27.442 14.061-29.261 14.629-.397.124-1.296-.158-2.908-.914-3.61-1.692-21.051-10.434-24.011-12.034a560.328 560.328 0 0 0-4.098-2.197 157.334 157.334 0 0 1-2.908-1.584c-.8-.449-1.989-1.1-2.644-1.448a80.97 80.97 0 0 1-2.379-1.328 31.518 31.518 0 0 0-1.983-1.069c-.436-.205-.891-.473-1.011-.595-.215-.219-3.124-1.894-4.409-2.539-.363-.183-1.172-.663-1.797-1.068-.625-.404-1.398-.851-1.718-.992-.32-.141-.939-.491-1.375-.778a19.149 19.149 0 0 0-1.322-.793c-.291-.15-.886-.507-1.322-.793a17.388 17.388 0 0 0-1.322-.789c-.676-.342-1.548-.888-1.719-1.075-.275-.303-2.927-1.837-3.176-1.837-.143 0-.26-.092-.26-.205 0-.112-.447-.438-.992-.724-.545-.286-1.051-.582-1.123-.658-.227-.235-2.361-1.586-2.506-1.586-.075 0-.717-.416-1.425-.925-.708-.509-1.422-.925-1.587-.925-.164 0-.299-.119-.299-.265 0-.145-.168-.264-.374-.264s-.414-.089-.463-.198c-.048-.11-1.991-1.448-4.318-2.975-2.326-1.526-4.27-2.865-4.318-2.974-.049-.109-.247-.198-.441-.198s-.392-.097-.44-.216c-.049-.119-1.214-.982-2.59-1.917s-2.737-1.909-3.024-2.163c-.288-.255-.601-.463-.696-.463-.095 0-.519-.302-.942-.671a15.354 15.354 0 0 0-1.693-1.242c-.509-.314-.985-.645-1.058-.736-.072-.092-1.44-1.137-3.04-2.324-1.599-1.187-3.311-2.486-3.803-2.888-.493-.402-1.088-.84-1.322-.973-.235-.133-.486-.316-.559-.406-.073-.09-1.084-.93-2.247-1.865-9.343-7.51-14.014-11.703-22.076-19.813-6.603-6.643-7.314-7.413-11.109-12.043a400.021 400.021 0 0 0-2.733-3.308 25.146 25.146 0 0 1-1.298-1.741c-.403-.592-.943-1.304-1.199-1.583-.256-.278-.741-.955-1.077-1.505-.337-.549-.75-1.146-.917-1.328-.572-.619-2.023-2.843-2.023-3.101 0-.141-.09-.258-.199-.259-.109-.002-.425-.478-.703-1.058-.278-.58-.591-1.054-.696-1.054-.105 0-.264-.208-.354-.463-.089-.254-.43-.914-.758-1.465-4.252-7.157-7.787-16.187-9.18-23.452l-.395-2.065c-.58-3.042-.78-5.762-.79-10.757-.015-7.215.064-8.016 1.612-16.391.719-3.885 5.041-15.247 6.941-18.242.451-.712.82-1.384.82-1.493 0-.11.357-.728.793-1.375.437-.646.794-1.242.794-1.323 0-.13 1.15-1.851 2.579-3.86 4.129-5.805 11.316-12.99 17.267-17.262 1.644-1.18 3.718-2.579 3.822-2.579.064 0 .921-.494 1.905-1.097 2.244-1.376 6.413-3.463 10.514-5.264 2.172-.954 11.26-3.696 14.492-4.372 6.944-1.454 18.941-2.116 23.974-1.323"/><path fill="#58a4bc" d="M118.903 44.083c1.054.05 2.779.05 3.833 0 1.054-.051.192-.092-1.916-.092-2.109 0-2.971.041-1.917.092m158.096 0c1.055.05 2.78.05 3.834 0 1.054-.051.191-.092-1.917-.092s-2.971.041-1.917.092"/><path fill="#58a4bc" d="M118.903 44.083c1.054.05 2.779.05 3.833 0 1.054-.051.192-.092-1.916-.092-2.109 0-2.971.041-1.917.092m158.096 0c1.055.05 2.78.05 3.834 0 1.054-.051.191-.092-1.917-.092s-2.971.041-1.917.092"/><path fill="#58a4bc" d="M118.903 44.083c1.054.05 2.779.05 3.833 0 1.054-.051.192-.092-1.916-.092-2.109 0-2.971.041-1.917.092m158.096 0c1.055.05 2.78.05 3.834 0 1.054-.051.191-.092-1.917-.092s-2.971.041-1.917.092"/><path fill="#58a4bc" d="M118.903 44.083c1.054.05 2.779.05 3.833 0 1.054-.051.192-.092-1.916-.092-2.109 0-2.971.041-1.917.092m158.096 0c1.055.05 2.78.05 3.834 0 1.054-.051.191-.092-1.917-.092s-2.971.041-1.917.092"/></g></svg>