<svg xmlns="http://www.w3.org/2000/svg" viewBox="0 0 399.8 311.8"><path fill="#54a4bc" d="M116.5 0a62.4 62.4 0 0 1-7.6.5 176.9 176.9 0 0 1-6.4.8 42 42 0 0 0-3.5.6 57 57 0 0 0-3 .5l-3.6.8c-4.4 1-16.2 4.7-17 5.4a1 1 0 0 1-.5.3 489.8 489.8 0 0 1-5.2 2.1A118.6 118.6 0 0 0 53 20.1a6.7 6.7 0 0 0-1.2.9l-.7.5a236.5 236.5 0 0 1-4 2.8l-3.4 2.9c-6 4.7-11.4 10-15.8 15.4a597.3 597.3 0 0 1-2.8 3.3l-1 1.3a19.4 19.4 0 0 1-1 1.5l-1 1.4-.9 1a62.9 62.9 0 0 0-5.4 8.5L14 62.7a149 149 0 0 0-6 12.8 124.6 124.6 0 0 1-1.2 3 130 130 0 0 0-4.6 16l-.4 1.8-.2 1.4a146.1 146.1 0 0 1-.3 1.5l-.6 3.7a58.1 58.1 0 0 1-.3 1.8 198.6 198.6 0 0 0 .3 30.5 61.2 61.2 0 0 0 .5 3.4 122.2 122.2 0 0 0 13.2 37 105.7 105.7 0 0 1 1.5 2.6 43.7 43.7 0 0 0 3 4.8 199 199 0 0 0 39 45l5.4 4.6a334.1 334.1 0 0 0 19 15 734.2 734.2 0 0 1 4.6 3.6 33.2 33.2 0 0 0 3.2 2.3l.7.5.8.5 1.5 1.1 1.3.9 1.7 1.2 1.5 1c0 .2.2.3.4.3s.4 0 .5.2a94.6 94.6 0 0 0 8.7 5.8 16.4 16.4 0 0 0 3.7 2.4 9 9 0 0 0 2.5 1.6l1 .7 1.1.6c.2 0 .4.2.6.4.2.2.7.6 1.2.8l1.5.9a318 318 0 0 0 20 11.7 91 91 0 0 1 4.8 2.7l3 1.7a623.3 623.3 0 0 0 19.8 10.2c9.8 4.8 12.5 6 20.3 9.7 9.2 4.1 15 4.5 22.5 1.4a247.7 247.7 0 0 0 24.4-11.5 530 530 0 0 0 28-14.7 66 66 0 0 1 2.2-1.2 41 41 0 0 0 1.8-1 42.5 42.5 0 0 1 2-1.1 21.6 21.6 0 0 0 1.5-1l1.4-.8 1.7-1a19.4 19.4 0 0 1 2.7-1.6 18.6 18.6 0 0 1 1.3-.8l1.3-.8 1.2-.7a33.8 33.8 0 0 0 4.2-2.6 74.5 74.5 0 0 0 6.1-3.8l2-1.2c.6-.5 1.3-1 1.5-1a.3.3 0 0 0 .2-.2 91 91 0 0 0 8.7-5.9.4.4 0 0 1 .3-.2 48 48 0 0 0 6.1-4.2c.3 0 3.1-2 3.4-2.4l1.2-.8a27.7 27.7 0 0 0 1.6-1.2 250.5 250.5 0 0 1 9.5-7.2 173 173 0 0 0 8-6.4 258.2 258.2 0 0 0 39.8-40.2 19.7 19.7 0 0 1 1-1.4l1.3-1.6 1.2-1.6.4-.7.3-.5c.7-.8 1.8-2.4 1.8-2.6 0-.2.1-.3.3-.3a.3.3 0 0 0 .3-.3l.5-.8c.3-.3.5-.7.5-1 0-.1.1-.3.3-.3l.2-.4c0-.2.1-.4.3-.4.2 0 .3-.2.5-.6a27 27 0 0 1 2-3.2l.7-1.3c.3-.5.8-1.3 1-1.9l1.3-2.1a226 226 0 0 0 6.7-14.1 62.6 62.6 0 0 1 .6-1.8 123.4 123.4 0 0 0 6.4-25.5c.5-3.2.8-8.7.8-14.8a99.5 99.5 0 0 0-1.9-21.4 116.5 116.5 0 0 0-6.2-21.5 1 1 0 0 1-.3-.6c0-.2-.3-1.1-.8-2.1a489.8 489.8 0 0 1-1.4-3.1c-.8-2-3-6.2-4-8A53.5 53.5 0 0 1 384 60l-1.4-2.2a111.7 111.7 0 0 0-4.4-6.8 495.6 495.6 0 0 1-2.2-2.9 123.3 123.3 0 0 0-23.4-23.4 18.8 18.8 0 0 1-1.3-1 23 23 0 0 0-2-1.4l-1.4-1c0-.2-.3-.3-.5-.3s-.4 0-.4-.2-.2-.3-.4-.3-.4-.1-.4-.3c0-.1 0-.2-.2-.2s-1.2-.7-2.4-1.5a51 51 0 0 0-6-3.4 157 157 0 0 0-10.8-5.3 352.6 352.6 0 0 1-1.6-.7 78 78 0 0 0-1.4-.5 37.2 37.2 0 0 1-1.2-.5 141.3 141.3 0 0 0-19.3-5.7 68.9 68.9 0 0 0-2.9-.5l-3.4-.6a40.8 40.8 0 0 0-2-.2 42.4 42.4 0 0 1-2-.3l-2.6-.3a203.8 203.8 0 0 1-3.2-.2h-17l-2.9.2a35 35 0 0 0-4.4.6l-2 .2a87 87 0 0 1-1.6.3 170.4 170.4 0 0 0-14 3.1 92 92 0 0 0-12.5 4.4 131.7 131.7 0 0 0-26.3 15.2 77.6 77.6 0 0 0-5.4 4.3c-.6.5-1 .9-1.3.9-.2 0-.8-.4-1.3-.9a127 127 0 0 0-5.7-4.6 20.7 20.7 0 0 0-3.6-2.4.4.4 0 0 1-.3-.3 35 35 0 0 0-5.8-3.9l-2.2-1.3a51.4 51.4 0 0 1-2.4-1.3 133.3 133.3 0 0 0-24.2-10l-3.3-1A170.3 170.3 0 0 0 132.1.5c-.3 0-3.5-.2-7.2-.2a256.9 256.9 0 0 1-8.3-.3m13.8 45.2a87.8 87.8 0 0 0 5.7.8l7.6 2a97 97 0 0 1 14.1 5.7l4.4 2.5 1 .6 1.2.8c.6.5 1 .8 1.2.8l.6.4 2 1.6c3 2.1 4 3 7.8 7a65.8 65.8 0 0 1 15.3 21.3l1.3 3c.8 1.7 2 5 2.7 7.4 1.4 4.7 2 5.3 4.3 5.3 2.5 0 2.7-.4 5-7a73.9 73.9 0 0 1 10.6-21.1l2.6-3.3a79.4 79.4 0 0 1 20-17.4 25.7 25.7 0 0 0 1.4-.8 77.3 77.3 0 0 1 52.5-8.5 90.3 90.3 0 0 1 33.4 14.6 221.6 221.6 0 0 0 2.2 1.8 77.7 77.7 0 0 1 20 25.5c2.1 4.3 2.2 4.5 3.4 8.2a84.6 84.6 0 0 1 3.2 13.5 89.3 89.3 0 0 1-.2 20.2 72.2 72.2 0 0 1-9.4 25.5 12 12 0 0 1-.8 1.5l-.7 1.1a162.8 162.8 0 0 1-12.2 16.6 272.7 272.7 0 0 1-28.4 27.3 49.6 49.6 0 0 0-1.5 1.3 73.2 73.2 0 0 1-2.5 2l-3.2 2.5a128.3 128.3 0 0 0-4.7 3.6l-1.9 1.3-2 1.5c-.2.2-1 .9-2 1.4l-1.8 1.4-1.3.9a33.4 33.4 0 0 1-3.6 2.5l-2 1.5-.6.2c-.2 0-.3.1-.3.3 0 .1-.2.3-.4.3-.3 0-.4 0-.4.2l-1.2.8-1.2.9-.4.2c-.2 0-.4 0-.4.2s-.2.3-.4.3-.4.1-.4.3a.3.3 0 0 1-.3.2 24.1 24.1 0 0 0-4.5 3c-.3 0-2.4 1.3-2.6 1.6l-.3.2-1.2.6-1 .7a48 48 0 0 1-3.7 2.3 446 446 0 0 0-10.5 6.1 228.9 228.9 0 0 1-10.7 6.1 65.1 65.1 0 0 1-2.6 1.5 157.2 157.2 0 0 0-3.3 1.7c-7 4-27.5 14.1-29.3 14.7-.4 0-1.3-.2-2.9-1-3.6-1.6-21-10.4-24-12a560.3 560.3 0 0 0-4-2.2 157.3 157.3 0 0 1-3-1.6l-2.7-1.4a81 81 0 0 1-2.3-1.3 31.5 31.5 0 0 0-2-1.1 51 51 0 0 0-7.2-4.2 17 17 0 0 0-1.7-1 5 5 0 0 1-1.4-.8 19.1 19.1 0 0 0-1.3-.8l-1.4-.8a17.4 17.4 0 0 0-1.3-.8l-1.7-1a18 18 0 0 0-3.4-2c0-.2-.5-.5-1-.8l-1.2-.7a19 19 0 0 0-2.5-1.5l-1.4-1-1.6-.9s-.3-.1-.3-.3c0-.1 0-.2-.4-.2-.3 0-.4-.1-.4-.2l-4.3-3a62.5 62.5 0 0 1-5.2-3.4l-2.6-1.9a35.2 35.2 0 0 1-3.7-2.6l-1-.7a15.4 15.4 0 0 0-1.7-1.2l-1-.8-3-2.3a163.7 163.7 0 0 1-8-6.1 225.4 225.4 0 0 1-33.2-31.9 400 400 0 0 0-2.7-3.3 25.1 25.1 0 0 1-1.3-1.7 18 18 0 0 0-1.2-1.6l-1-1.5-1-1.3a16 16 0 0 1-2.3-3.5s-.5-.5-.7-1l-.7-1.1s-.3-.2-.4-.5l-.7-1.4a78.7 78.7 0 0 1-9.2-23.5l-.4-2c-.6-3.1-.8-5.8-.8-10.8 0-7.2 0-8 1.6-16.4A89.6 89.6 0 0 1 55.7 81c0-.2 1.2-1.9 2.6-3.9a84.2 84.2 0 0 1 23-21c2.4-1.2 6.4-3.3 10.5-5.1 2.2-1 11.3-3.7 14.5-4.4a90 90 0 0 1 24-1.3"/></svg>