<svg xmlns="http://www.w3.org/2000/svg" width="312.813" height="312.813"><path d="M7.714.007h297.382a7.712 7.712 0 017.713 7.713v297.379a7.713 7.713 0 01-7.713 7.714H7.714A7.709 7.709 0 010 305.103V7.72A7.713 7.713 0 017.714.007" fill="#e23844"/><path d="M247.508 171.559l-1.661 10.29c-2.579 1.396-7.398 3.4-12.967 3.4-9.475 0-11.387-5.054-9.89-15.78l2.409-17.265h-4.662l1.322-11.173 5.086-.247 1.912-8.112 14.378-5.405-1.826 13.517h9.89c-.335 1.395-1.495 9.068-1.83 11.42h-9.641l-2.161 15.957c-.58 4.096-.246 5.58 2.577 5.58 2.079-.002 5.153-1.222 7.064-2.182zm-74.66-17.524c1.08-7.415.496-14.127-7.73-14.127-5.985 0-12.467 5.057-17.04 13.513.998-6.976.417-13.513-7.73-13.513-6.15 0-12.8 5.317-17.37 14.127 1.163-5.756.914-12.295.582-13.692-4.737.785-8.893 1.22-14.711 1.394.165 4.011-.085 9.243-.833 14.211l-1.911 13.079c-.748 5.142-1.58 11.077-2.408 14.824h15.459c.08-2.267.662-5.843 1.078-8.983l1.33-8.983c1.08-5.842 5.733-12.73 9.31-12.73 2.077 0 1.995 2.005 1.413 5.757l-1.495 10.112c-.747 5.141-1.58 11.076-2.409 14.824h15.625c.085-2.266.583-5.843.999-8.983l1.329-8.981c1.079-5.844 5.733-12.732 9.308-12.732 2.08 0 1.996 1.917 1.663 4.533l-3.732 26.156h14.257zm120.704 4.666c0 14.666-10.357 26.855-24.081 26.855-12.295 0-18.61-8.393-18.61-19.348 0-14.572 10.442-26.767 24.083-26.767 12.46.004 18.608 8.396 18.608 19.26zm-27.732 7.223c0 5.321 1.745 8.024 4.736 8.024 3.99 0 7.147-6.452 7.147-14.299 0-5.405-1.746-8.02-4.654-8.02-3.986-.004-7.229 6.358-7.229 14.295zm-162.868-6.916c0 14.473-10.223 26.507-23.77 26.507-12.135 0-18.369-8.282-18.369-19.094 0-14.386 10.307-26.42 23.77-26.42 12.3-.002 18.37 8.28 18.37 19.007zm-27.177 6.916c0 5.321 1.746 8.024 4.736 8.024 3.992 0 7.148-6.452 7.148-14.299 0-5.405-1.745-8.02-4.655-8.02-3.988-.004-7.229 6.358-7.229 14.295zM61.064 141.04l-.25 7.937-20.693 22.496c8.643 0 14.13-.089 17.286-.262-.914 4.272-1.66 7.76-2.41 12.99-4.153-.346-10.637-.435-17.119-.435-7.23 0-13.548.089-18.618.435l.165-8.02 20.696-22.41c-9.058 0-12.384.088-16.125.176.832-4.011 1.413-8.459 1.996-12.907 6.565.263 9.143.348 17.701.348 7.896.003 12.385-.085 17.371-.348M188.523 184.427c-7.384.908-12.248-2.025-13.71-8.694-.918-4.194.355-8.972 2.582-11.824 2.976-3.728 7.836-6.124 13.756-6.85 4.768-.584 8.785-.298 12.542.416l.156-.644c.106-1.028.214-2.059.062-3.295-.386-3.156-2.883-5.043-9.034-4.284-4.153.508-8.105 2.01-11.174 3.719l-2.979-9.019c4.152-2.387 9.396-4.204 15.396-4.939 11.459-1.408 19.507 2.248 20.537 10.644.276 2.235.308 4.606.027 6.752-1.473 10.384-2.416 18.199-2.828 23.442-.063.805-.06 2.198.015 4.178l-14.218-.012c.302-.823.574-1.927.815-3.318.159-.917.272-2.075.345-3.474-3.014 4.118-7.14 6.57-12.29 7.202zm4.456-7.974c5.23-.641 8.829-5.686 9.697-10.72l.147-1.348c-2.25-.508-5.496-.889-8.648-.501-3.002.37-5.5 1.615-6.843 3.423-1.01 1.294-1.524 2.845-1.299 4.69.343 2.772 3.407 4.887 6.946 4.456" fill="#fff"/></svg>