<svg xmlns="http://www.w3.org/2000/svg" width="100" height="100" fill="none" shape-rendering="crispEdges"><path d="m56.065 2.008 39.82 29.627c7.85 5.84 3.72 18.31-6.064 18.31H75.21c-2.76 0-3.923 3.515-1.711 5.16l7.767 5.778c5.328 3.965 2.524 12.43-4.117 12.43H23.086c-6.64 0-9.445-8.465-4.116-12.428l7.766-5.779c2.213-1.646 1.048-5.16-1.71-5.16H10.179c-9.783 0-13.913-12.471-6.064-18.311l39.82-29.627a10.16 10.16 0 0 1 12.128 0zm10.349 91.443L52.169 82.853a3.634 3.634 0 0 0-4.338 0L33.586 93.451c-2.807 2.09-1.33 6.55 2.17 6.55h28.489c3.498 0 4.976-4.46 2.169-6.55z" fill="#000" fill-rule="evenodd"/></svg>