<svg xmlns="http://www.w3.org/2000/svg" viewBox="0 0 48 48"><path fill="url(#a)" d="M47.4 16.5A19.2 19.2 0 0 0 31.5.6a47.5 47.5 0 0 0-15 0A19.2 19.2 0 0 0 .6 16.5a47.5 47.5 0 0 0 0 15 19.2 19.2 0 0 0 15.9 15.9 47.5 47.5 0 0 0 15 0 19.2 19.2 0 0 0 15.9-15.9 47.5 47.5 0 0 0 0-15Z"/><path fill="#fff" d="M14.3 27.7h-6a1 1 0 0 1-.6-1.8l4-4.1H8.9c-.8 0-1.5-.7-1.5-1.5h5.5a1 1 0 0 1 .8 1.8l-4.2 4.1H13c.8 0 1.4.7 1.4 1.5ZM40.6 23a2.9 2.9 0 0 0-5-2 2.9 2.9 0 0 0-5 2v4.6c.9 0 1.5-.7 1.5-1.5v-3.1a1.4 1.4 0 0 1 2.8 0v3.1c0 .8.7 1.5 1.5 1.5V23a1.4 1.4 0 0 1 2.8 0v3.1c0 .8.6 1.5 1.4 1.5V23ZM30 24a3.8 3.8 0 1 1-7.6 0 3.8 3.8 0 0 1 7.6 0Zm-1.5 0a2.3 2.3 0 1 0-4.6 0 2.3 2.3 0 0 0 4.6 0Zm-6.6 0a3.8 3.8 0 1 1-7.6 0 3.8 3.8 0 0 1 7.6 0Zm-1.5 0a2.3 2.3 0 1 0-4.6 0 2.3 2.3 0 0 0 4.6 0Z"/><defs><linearGradient id="a" x1="11.4" x2="36.6" y1="45.9" y2="2.1" gradientUnits="userSpaceOnUse"><stop stop-color="#0845BF"/><stop offset=".6" stop-color="#0B5CFF"/><stop offset="1" stop-color="#4F90EE"/></linearGradient></defs></svg>