<svg xmlns="http://www.w3.org/2000/svg" width="32" height="32" fill="none"><path fill="url(#a)" d="M31.6 10.975C30.73 5.56 26.44 1.27 21.024.4a31.665 31.665 0 0 0-10.049 0C5.56 1.27 1.27 5.56.4 10.975a31.665 31.665 0 0 0 0 10.05C1.27 26.44 5.56 30.73 10.975 31.6a31.668 31.668 0 0 0 10.05 0c5.415-.87 9.705-5.16 10.575-10.575a31.67 31.67 0 0 0 0-10.05Z"/><path fill="#fff" d="M13.605 20.888H5.686a1.365 1.365 0 0 1-1.264-.845 1.365 1.365 0 0 1 .296-1.491l5.485-5.485H6.272a1.955 1.955 0 0 1-1.955-1.955h7.302c.556 0 1.052.331 1.265.845a1.365 1.365 0 0 1-.297 1.491l-5.485 5.485h4.547c1.08 0 1.956.875 1.956 1.955Zm14.078-6.11a3.817 3.817 0 0 0-3.813-3.813c-1.124 0-2.136.49-2.835 1.267a3.804 3.804 0 0 0-2.835-1.267 3.817 3.817 0 0 0-3.813 3.813v6.11c1.08 0 1.955-.875 1.955-1.955v-4.155A1.86 1.86 0 0 1 18.2 12.92a1.86 1.86 0 0 1 1.857 1.858v4.155c0 1.08.876 1.955 1.956 1.955v-6.11a1.86 1.86 0 0 1 1.857-1.858 1.86 1.86 0 0 1 1.858 1.858v4.155c0 1.08.875 1.955 1.955 1.955v-6.11Z"/><defs><linearGradient id="a" x1="7.573" x2="24.427" y1="30.596" y2="1.404" gradientUnits="userSpaceOnUse"><stop stop-color="#0845BF"/><stop offset=".6" stop-color="#0B5CFF"/><stop offset="1" stop-color="#4F90EE"/></linearGradient></defs></svg>