<svg xmlns="http://www.w3.org/2000/svg" width="484" height="484"><g fill-rule="evenodd"><path d="M242 2.424c132.314 0 239.576 107.262 239.576 239.576S374.314 481.576 242 481.576 2.424 374.314 2.424 242 109.686 2.424 242 2.424z" fill="#fff" stroke="#e5e5e4" stroke-width="4.848"/><path d="M99.6 173.7v102.4c.1 23.2 19 41.9 42.2 41.8h149.5c4.2 0 7.6-3.4 7.7-7.6V207.8c-.1-23.2-19-41.9-42.2-41.8H107.3c-4.2.1-7.6 3.4-7.7 7.7zm208.8 40l61.7-45.1c5.4-4.4 9.5-3.4 9.5 4.7v137.5c0 9.1-5.1 8.1-9.5 4.7l-61.7-45.1zM242 23.8c120.508 0 218.2 97.691 218.2 218.2 0 120.508-97.692 218.2-218.2 218.2-120.51 0-218.2-97.692-218.2-218.2 0-120.509 97.69-218.2 218.2-218.2z" fill="#4a8cff"/></g></svg>