<svg xmlns="http://www.w3.org/2000/svg" width="80.73" height="80.73"><defs><radialGradient fx="0" fy="0" cx="0" cy="0" r="1" gradientUnits="userSpaceOnUse" gradientTransform="matrix(37.1286 0 0 -37.1286 85.757 53.409)" spreadMethod="pad" id="b"><stop offset="0" stop-color="#f6e14c"/><stop offset=".467" stop-color="#f6e14c"/><stop offset=".501" stop-color="#f6e14c"/><stop offset=".612" stop-color="#e6ab34"/><stop offset=".691" stop-color="#d5862a"/><stop offset=".824" stop-color="#a65527"/><stop offset=".916" stop-color="#a65527"/><stop offset=".958" stop-color="#422b21"/><stop offset="1" stop-color="#422b21"/></radialGradient><clipPath clipPathUnits="userSpaceOnUse" id="a"><rect width="60.677" height="60.677" x="38.862" y="-100.977" ry="1.287" rx="1.287" transform="scale(1 -1)" fill="#0ff" fill-rule="evenodd" stroke-width=".75"/></clipPath><filter id="c" x="-.683" width="2.365" y="-.683" height="2.365" color-interpolation-filters="sRGB"><feGaussianBlur stdDeviation="3.083"/></filter></defs><g clip-path="url(#a)" transform="matrix(1.33333 0 0 -1.33333 -51.816 134.636)"><path fill="#3ea834" fill-rule="evenodd" d="M38.862 100.977h60.677V40.3H38.862z"/><path d="M85.925 17.566c-19.797 0-35.844 16.047-35.844 35.844 0 19.795 16.047 35.842 35.844 35.842 19.795 0 35.842-16.047 35.842-35.842 0-19.797-16.047-35.844-35.842-35.844" fill="url(#b)"/><path d="M104.954 53.41c0-10.512-8.52-19.032-19.03-19.032-10.51 0-19.031 8.52-19.031 19.032 0 10.51 8.52 19.031 19.032 19.031 10.509 0 19.029-8.521 19.029-19.031" fill="#1d191b"/><circle style="mix-blend-mode:normal" cx="91.174" cy="-57.259" r="5.421" transform="matrix(1.2636 0 0 -1.2636 -40.659 -6.66)" fill="#fff" fill-rule="evenodd" filter="url(#c)"/></g></svg>