<?xml version="1.0" encoding="utf-8"?>
<!-- Generator: Adobe Illustrator 26.0.3, SVG Export Plug-In . SVG Version: 6.00 Build 0)  -->
<svg version="1.0" id="katman_1" xmlns="http://www.w3.org/2000/svg" xmlns:xlink="http://www.w3.org/1999/xlink" x="0px" y="0px"
	 viewBox="0 0 600 450" style="enable-background:new 0 0 600 450;" xml:space="preserve">
<style type="text/css">
	.st0{clip-path:url(#SVGID_00000121985515307414708950000011709398409708469383_);fill:#8046F1;}
</style>
<g>
	<g>
		<defs>
			<rect id="SVGID_1_" x="79" y="185.7" width="441" height="79.7"/>
		</defs>
		<clipPath id="SVGID_00000088130307600937522080000004794328972117552060_">
			<use xlink:href="#SVGID_1_"  style="overflow:visible;"/>
		</clipPath>
		<path style="clip-path:url(#SVGID_00000088130307600937522080000004794328972117552060_);fill:#8046F1;" d="M475.7,249
			c-13,0-23.2-9.1-23.2-24.2c0-14.7,9.6-24.3,23.2-24.3c14.3,0,23.8,10.5,23.8,24.4C500.1,238.4,489.1,249.5,475.7,249L475.7,249z
			 M390.7,262.4h45v-14.2h-29.1v-61h-15.9L390.7,262.4L390.7,262.4z M349.2,234.8c-9.8,0.4-17.8-7.6-17.3-17.4
			c-0.4-9.7,7.6-17.7,17.3-17.4c10.2,0,17.6,6.9,17.6,17.4C366.8,227.9,359.4,234.8,349.2,234.8L349.2,234.8z M316,262.5h15.9v-26.9
			c4,8.4,12.6,13.6,21.9,13.4c15.7,0,28.8-12.9,28.8-31.6c0-18.6-13.1-31.7-28.9-31.7c-9.6,0-17.5,4.8-21.9,13.4v-12h-15.9
			L316,262.5L316,262.5z M269,249.2c-13.3,0-23.6-9.5-23.6-24.2c0-14.7,10.4-24.7,23.6-24.7c13.3,0,23.4,10,23.4,24.7
			C292.4,239.7,282.3,249.2,269,249.2L269,249.2z M269.2,264c22.8,0,39.3-15.8,39.3-38.9c0-23.1-16.6-39.3-39.3-39.3
			c-22.8,0-39.6,16.2-39.6,39.3C229.5,248.2,246.4,264,269.2,264L269.2,264z M183.7,249.2c-13.2,0-23.5-9.5-23.5-24.2
			c0-14.7,10.3-24.7,23.5-24.7c13.3,0,23.5,10,23.5,24.7C207.2,239.7,197,249.2,183.7,249.2L183.7,249.2z M183.9,264
			c22.8,0,39.3-15.8,39.3-38.9c0-23.1-16.5-39.3-39.3-39.3c-22.8,0-39.7,16.2-39.7,39.3C144.2,248.2,161.1,264,183.9,264L183.9,264z
			 M79,262.4h61.8v-14.2H96.1c0.4-11.2,8.4-14.2,17.5-17.3c12.5-4.3,26.9-9.7,26.9-38v-5.7H79.2v14.1h44.5
			c-0.4,10.5-8.2,13.3-17.1,16.3c-12.6,4.3-27.5,9.7-27.5,39L79,262.4L79,262.4z M472.8,263.9c10.9,0.4,21.1-5.2,26.7-14.5v13h15.9
			v-75.2h-15.9v12.9c-5.6-9.3-15.8-14.8-26.7-14.4c-19.9,0-36.3,16.3-36.3,39.1C436.4,247.6,452.9,263.9,472.8,263.9L472.8,263.9z
			 M472.8,263.9"/>
	</g>
</g>
</svg>
