<svg xmlns="http://www.w3.org/2000/svg" xmlns:xlink="http://www.w3.org/1999/xlink" xml:space="preserve" id="katman_1" x="0" y="0" style="enable-background:new 0 0 600 450" version="1.0" viewBox="0 0 600 450"><style>.st0{clip-path:url(#SVGID_00000121985515307414708950000011709398409708469383_);fill:#8046f1}</style><defs><path id="SVGID_1_" d="M79 185.7h441v79.7H79z"/></defs><clipPath id="SVGID_00000088130307600937522080000004794328972117552060_"><use xlink:href="#SVGID_1_" style="overflow:visible"/></clipPath><path d="M475.7 249c-13 0-23.2-9.1-23.2-24.2 0-14.7 9.6-24.3 23.2-24.3 14.3 0 23.8 10.5 23.8 24.4.6 13.5-10.4 24.6-23.8 24.1zm-85 13.4h45v-14.2h-29.1v-61h-15.9v75.2zm-41.5-27.6c-9.8.4-17.8-7.6-17.3-17.4-.4-9.7 7.6-17.7 17.3-17.4 10.2 0 17.6 6.9 17.6 17.4 0 10.5-7.4 17.4-17.6 17.4zM316 262.5h15.9v-26.9c4 8.4 12.6 13.6 21.9 13.4 15.7 0 28.8-12.9 28.8-31.6 0-18.6-13.1-31.7-28.9-31.7-9.6 0-17.5 4.8-21.9 13.4v-12h-15.9l.1 75.4zm-47-13.3c-13.3 0-23.6-9.5-23.6-24.2s10.4-24.7 23.6-24.7c13.3 0 23.4 10 23.4 24.7s-10.1 24.2-23.4 24.2zm.2 14.8c22.8 0 39.3-15.8 39.3-38.9 0-23.1-16.6-39.3-39.3-39.3-22.8 0-39.6 16.2-39.6 39.3-.1 23.1 16.8 38.9 39.6 38.9zm-85.5-14.8c-13.2 0-23.5-9.5-23.5-24.2s10.3-24.7 23.5-24.7c13.3 0 23.5 10 23.5 24.7s-10.2 24.2-23.5 24.2zm.2 14.8c22.8 0 39.3-15.8 39.3-38.9 0-23.1-16.5-39.3-39.3-39.3-22.8 0-39.7 16.2-39.7 39.3 0 23.1 16.9 38.9 39.7 38.9zM79 262.4h61.8v-14.2H96.1c.4-11.2 8.4-14.2 17.5-17.3 12.5-4.3 26.9-9.7 26.9-38v-5.7H79.2v14.1h44.5c-.4 10.5-8.2 13.3-17.1 16.3-12.6 4.3-27.5 9.7-27.5 39l-.1 5.8zm393.8 1.5c10.9.4 21.1-5.2 26.7-14.5v13h15.9v-75.2h-15.9v12.9c-5.6-9.3-15.8-14.8-26.7-14.4-19.9 0-36.3 16.3-36.3 39.1-.1 22.8 16.4 39.1 36.3 39.1zm0 0" style="clip-path:url(#SVGID_00000088130307600937522080000004794328972117552060_);fill:#8046f1"/></svg>