<svg id="Layer_1" data-name="Layer 1" xmlns="http://www.w3.org/2000/svg" viewBox="0 0 629 184" preserveAspectRatio="xMinYMid meet" style="max-height: 105px;">
  <defs>
    <style>
      .cls-1 {
        fill: #ff6d00;
      }

      .cls-2 {
        isolation: isolate;
      }

      .cls-3 {
        fill: #303030;
      }

    </style>
  </defs>
  <g id="negative_space_play_button" data-name="negative space play button">
    <path class="cls-1" d="M12.1,128.5A4.05,4.05,0,0,1,8,124.4V114.1c0-3.7,0-4,2.7-7L52,61.3c1-1.3.5-3-1.3-3H12.2a4.05,4.05,0,0,1-4.1-4.1V44.8a4.05,4.05,0,0,1,4.1-4.1H75.9A4.05,4.05,0,0,1,80,44.8v11c0,4-.3,4.4-2.7,7l-41,45.1c-1.4,1.7-.8,3,1.3,3H76.2a4.05,4.05,0,0,1,4.1,4.1v9.4a4.05,4.05,0,0,1-4.1,4.1Z"></path>
    <path class="cls-1" d="M137,139.8a78.3,78.3,0,0,1-3.3,7.3s-9.9,18.3-25.3,18.3H96.2a4.05,4.05,0,0,1-4.1-4.1V151.1a4.05,4.05,0,0,1,4.1-4.1h7.9c4,0,7.5-3.7,7.5-3.7a26.83,26.83,0,0,0,4.4-6.7l2.1-4.6a12,12,0,0,0,0-7.5L86.2,44.6c-.8-2.1.3-3.8,2.5-3.8H104c4.1,0,4.6,1.7,5.6,3.8l20.3,55.6c.6,1.1,2.4,1,2.7,0L152,44.6c.6-2.1,1.4-3.8,5.2-3.8h13.5c2.2,0,3.3,1.7,2.7,3.8Z"></path>
    <path class="cls-1" d="M262,120.6c-9.4,7-20.7,7.9-32.3,7.9H186.2a4.44,4.44,0,0,1-4.4-4.4V13.6a4.44,4.44,0,0,1,4.4-4.4h43.5c9.7,0,19.7,1.4,28,6.7a30.54,30.54,0,0,1,13.8,25.9c0,7.6-2.9,16.2-9.1,21.8a4.47,4.47,0,0,0,.2,7A29,29,0,0,1,274,94.1C274.2,104.4,270.5,114,262,120.6ZM230.5,27.9H207.9a4.44,4.44,0,0,0-4.4,4.4v21a4.44,4.44,0,0,0,4.4,4.4h23c9.9,0,18.3-3.5,18.3-14.8C249.2,31.4,240.3,27.9,230.5,27.9Zm.6,48H207.9a4.44,4.44,0,0,0-4.4,4.4v24.2a4.44,4.44,0,0,0,4.4,4.4h22.6c10.3,0,21.3-3.7,21.3-15.9C251.8,80.4,242.7,75.9,231.1,75.9Z"></path>
    <path class="cls-1" d="M528.6,128.5c-3.5,0-4.4-.6-6.2-3.3L501.9,93.7c-1.3-1.7-3.5-2.1-4.9-.5l-8.6,9.4c-2.4,2.9-2.9,3.5-2.9,7v14.9a4.05,4.05,0,0,1-4.1,4.1H468.2a4.05,4.05,0,0,1-4.1-4.1V11.1A4.05,4.05,0,0,1,468.2,7h13.2a4.05,4.05,0,0,1,4.1,4.1V72.6c0,2.2,1.3,2.7,2.9,1.1l28-29.7c3-3,3.2-3,6.8-3h18.6c2.2,0,2.9,1.3,1.3,3L517,71.8a5.94,5.94,0,0,0-.6,6.4l30.5,47c1.3,1.7.5,3.3-1.7,3.3Z"></path>
    <path class="cls-1" d="M612.2,120.6c-7.2,7-18.3,10.2-30.4,10.2-11.3,0-21.3-3.2-28.6-10.2-4.1-4.1-7.9-9.7-9.1-16.2a3.53,3.53,0,0,1,3.5-4.1h12.9a3.64,3.64,0,0,1,3.5,2.9,14.22,14.22,0,0,0,4.4,7.5c3.3,2.7,7.3,4,13.5,4,7.2,0,18-1.4,18-11.1,0-5.1-3.3-8.4-8.9-9.4-7.9-1.1-16.7-1.7-24.5-3.3-12.1-2.5-20.3-12.2-20.3-23.4a24.6,24.6,0,0,1,9.1-19.7c6.5-5.6,15.9-8.7,26.9-8.7,10.6,0,21.3,3.3,27.7,10.3a27.85,27.85,0,0,1,7.3,13.7,3.68,3.68,0,0,1-3.5,4.4h-13a3.45,3.45,0,0,1-3.5-2.9A13.66,13.66,0,0,0,594,59c-2.5-2.5-7.2-4.1-11.4-4.1-3.2,0-5.9,0-9.1,1.4a10,10,0,0,0-6.8,9.4c0,6.2,5.6,7.9,10.3,8.7,7.9,1,10.3,1.1,18.9,2.5,13.8,2.2,24.2,11,24.2,24.8A26.39,26.39,0,0,1,612.2,120.6Z"></path>
    <path class="cls-1" d="M322.5,130.4c-24.5.3-41.6-19.1-41.2-42.4.6-23,18.4-40.8,42.1-40.8s40.7,17.5,40.7,42.4C364.1,113.1,346.3,130.6,322.5,130.4Zm.2-18.7c12.2,0,21.9-8.4,22.1-22.9a21.91,21.91,0,0,0-21.5-22.6c-13.2-.2-22.7,9.1-22.6,22.7C301.2,102.9,309.5,111.2,322.7,111.7Z"></path>
    <path class="cls-1" d="M414.2,47.1c-23.7,0-41.5,17.6-42.1,40.8-.6,23.5,16.5,42.7,41.2,42.4,23.8.2,41.3-17.3,41.6-40.8C454.9,64.6,438,47.1,414.2,47.1ZM433,95.3l-25.7,14.9c-6,3.5-11.3.5-11.3-6.5V73.8c0-7,4.9-10,11.3-6.5L433,82.2C439,85.9,439,91.8,433,95.3Z"></path>
  </g>
  <g class="cls-2">
    <path class="cls-3" d="M422.63,165.71H412.2l-2.34,6.51h-3.38l9.5-24.89h2.87l9.52,24.89H425ZM413.2,163h8.45l-4.23-11.64Z"></path>
    <path class="cls-3" d="M445.75,164.37l.48,3.28.7-3,4.92-17.37h2.77l4.8,17.37.69,3,.53-3.35,3.86-17h3.3l-6,24.89h-3l-5.12-18.14-.4-1.89-.39,1.89-5.32,18.14h-3l-6-24.89h3.28Z"></path>
    <path class="cls-3" d="M471,148.82a1.92,1.92,0,0,1,.47-1.3,1.77,1.77,0,0,1,1.39-.53,1.79,1.79,0,0,1,1.4.53,1.88,1.88,0,0,1,.48,1.3,1.8,1.8,0,0,1-.48,1.28,1.83,1.83,0,0,1-1.4.52,1.8,1.8,0,0,1-1.39-.52A1.84,1.84,0,0,1,471,148.82Zm3.42,23.4h-3.17V153.73h3.17Z"></path>
    <path class="cls-3" d="M482.87,172.22h-3.16V146h3.16Z"></path>
    <path class="cls-3" d="M495.6,172.56a8.09,8.09,0,0,1-6.12-2.47,9.19,9.19,0,0,1-2.36-6.61v-.58a11.1,11.1,0,0,1,1.06-4.91,8.16,8.16,0,0,1,2.94-3.38,7.35,7.35,0,0,1,4.09-1.23,6.93,6.93,0,0,1,5.6,2.38c1.34,1.58,2,3.85,2,6.8v1.32H490.29a6.57,6.57,0,0,0,1.59,4.41,5,5,0,0,0,3.89,1.69,5.48,5.48,0,0,0,2.84-.69,7.1,7.1,0,0,0,2-1.81l1.93,1.51A7.75,7.75,0,0,1,495.6,172.56ZM495.21,156a4.22,4.22,0,0,0-3.21,1.39,6.72,6.72,0,0,0-1.61,3.91h9.26V161a6,6,0,0,0-1.3-3.73A3.94,3.94,0,0,0,495.21,156Z"></path>
    <path class="cls-3" d="M512.3,167.59l4.31-13.86H520l-7.44,21.34c-1.15,3.08-3,4.62-5.48,4.62l-.6-.06-1.18-.22v-2.56l.86.07a4.22,4.22,0,0,0,2.5-.65,4.76,4.76,0,0,0,1.48-2.38l.7-1.88-6.6-18.28h3.45Z"></path>
    <path class="cls-3" d="M532,172.22V147.33h8.13q4,0,6.1,1.68a6,6,0,0,1,2,5,5,5,0,0,1-1,3.09,6.46,6.46,0,0,1-2.7,2.08,5.75,5.75,0,0,1,3.18,2.14,6.18,6.18,0,0,1,1.18,3.77,6.64,6.64,0,0,1-2.18,5.26,8.94,8.94,0,0,1-6.13,1.92ZM535.25,158h5a5.19,5.19,0,0,0,3.44-1.08,3.63,3.63,0,0,0,1.29-2.93,3.55,3.55,0,0,0-1.2-3,5.87,5.87,0,0,0-3.64-.93h-4.85Zm0,2.63v8.95h5.42a5.22,5.22,0,0,0,3.61-1.18,4.18,4.18,0,0,0,1.33-3.28q0-4.48-4.89-4.49Z"></path>
    <path class="cls-3" d="M562.2,156.56a9.47,9.47,0,0,0-1.55-.12,4.19,4.19,0,0,0-4.23,2.65v13.13h-3.16V153.73h3.08l0,2.13a4.94,4.94,0,0,1,4.41-2.48,3.2,3.2,0,0,1,1.4.24Z"></path>
    <path class="cls-3" d="M575.84,172.22a7,7,0,0,1-.45-1.95,7,7,0,0,1-5.26,2.29,6.55,6.55,0,0,1-4.49-1.55,5,5,0,0,1-1.75-3.92,5.24,5.24,0,0,1,2.2-4.49,10.38,10.38,0,0,1,6.18-1.59h3.07v-1.46a3.57,3.57,0,0,0-1-2.64,4,4,0,0,0-2.92-1,4.57,4.57,0,0,0-2.84.86,2.49,2.49,0,0,0-1.14,2.06h-3.18a4.38,4.38,0,0,1,1-2.67,6.69,6.69,0,0,1,2.67-2,8.81,8.81,0,0,1,3.7-.76,7.3,7.3,0,0,1,5,1.6,5.74,5.74,0,0,1,1.88,4.4v8.51a10.44,10.44,0,0,0,.65,4.05v.28Zm-5.25-2.41a5.59,5.59,0,0,0,2.82-.77,4.64,4.64,0,0,0,1.93-2v-3.8h-2.47q-5.82,0-5.82,3.41a2.85,2.85,0,0,0,1,2.32A3.78,3.78,0,0,0,570.59,169.81Z"></path>
    <path class="cls-3" d="M586.45,153.73l.1,2.32a6.75,6.75,0,0,1,5.54-2.67q5.86,0,5.91,6.62v12.22h-3.16V160a4.26,4.26,0,0,0-.91-3,3.7,3.7,0,0,0-2.8-1,4.56,4.56,0,0,0-2.7.82,5.51,5.51,0,0,0-1.81,2.15v13.18h-3.16V153.73Z"></path>
    <path class="cls-3" d="M602,162.82a10.88,10.88,0,0,1,2-6.85,6.86,6.86,0,0,1,10.43-.36V146h3.16v26.25H614.7l-.15-2a6.45,6.45,0,0,1-5.28,2.33,6.32,6.32,0,0,1-5.24-2.63,11,11,0,0,1-2-6.87Zm3.17.36a8.26,8.26,0,0,0,1.29,4.92,4.23,4.23,0,0,0,3.59,1.78,4.63,4.63,0,0,0,4.4-2.7v-8.5a4.66,4.66,0,0,0-4.36-2.61,4.25,4.25,0,0,0-3.63,1.79A9.1,9.1,0,0,0,605.17,163.18Z"></path>
  </g>
</svg>
