<svg xmlns="http://www.w3.org/2000/svg" viewBox="0 0 612 158"><path d="M460 0a4 4 0 0 0-4 4v114a4 4 0 0 0 4 4h13a4 4 0 0 0 5-4v-15c0-4 0-4 2-7l9-10c1-1 4-1 5 1l20 31c2 3 3 4 7 4h16c2 0 3-2 2-4l-31-47a6 6 0 0 1 1-6l26-28c2-2 1-3-1-3h-19c-3 0-4 0-7 3l-28 30c-1 1-2 1-2-1V4a4 4 0 0 0-5-4h-13zM178 2c-2 0-4 2-4 5v110a4 4 0 0 0 4 5h44c11 0 23-1 32-8a32 32 0 0 0 12-27 29 29 0 0 0-11-23c-3-2-3-5-1-7 7-6 10-15 10-22a31 31 0 0 0-14-26c-9-5-19-7-28-7h-44zm22 19h23c9 0 18 3 18 15 0 11-8 15-18 15h-23c-2 0-4-2-4-5V25a4 4 0 0 1 4-4zm374 11a41 41 0 0 0-27 9 24 24 0 0 0 12 43c7 2 16 2 24 3 6 1 9 5 9 10 0 9-11 11-18 11-6 0-10-2-14-4l-4-8-3-3h-13c-2 0-4 2-4 4a32 32 0 0 0 9 17 40 40 0 0 0 29 10 43 43 0 0 0 30-10 26 26 0 0 0 8-19c0-14-10-23-24-25l-19-3c-5 0-10-2-10-8a10 10 0 0 1 7-10l9-1a17 17 0 0 1 11 4l3 6a3 3 0 0 0 4 3h13a4 4 0 0 0 3-5c-1-5-3-10-7-14-6-7-17-10-28-10zM4 34a4 4 0 0 0-4 4v9a4 4 0 0 0 4 4h39c1 0 2 2 1 3L3 100c-3 3-3 3-3 7v10a4 4 0 0 0 4 5h64a4 4 0 0 0 4-5v-9a4 4 0 0 0-4-4H30c-2 0-3-1-2-3l41-45c3-3 3-3 3-7V38a4 4 0 0 0-4-4H4zm77 0c-3 0-4 2-3 4l32 80a12 12 0 0 1 0 7l-2 5-4 6s-4 4-8 4h-8a4 4 0 0 0-4 4v10a4 4 0 0 0 4 4h12c16 0 26-18 26-18l3-7 36-95c1-2 0-4-2-4h-14c-4 0-4 2-5 4l-19 55h-3l-20-55c-1-2-2-4-6-4H81zm325 6a41 41 0 0 0-42 41 40 40 0 0 0 41 42 40 40 0 0 0 42-40c0-25-17-43-41-43zm-91 0c-23 0-41 18-42 41a40 40 0 0 0 42 42 40 40 0 0 0 41-40c0-25-17-43-41-43zm80 19 4 1 26 15c6 4 6 10 0 13l-26 15c-6 4-11 1-11-6V67c0-5 3-8 7-8zm-80 0a22 22 0 0 1 22 23c0 14-10 23-22 23-13-1-22-9-22-23a21 21 0 0 1 22-23zM200 69h23c12 0 21 4 21 17 0 12-11 16-21 16h-23c-2 0-4-2-4-4V73a4 4 0 0 1 4-4z" fill="#FF6D00"/></svg>
