<svg xmlns="http://www.w3.org/2000/svg" width="141.382" height="141.382" viewBox="58.081 369.478 141.382 141.382"><path fill="#92864f" d="M192.638 390.665h-24.183l-.827 2.48-.62 1.654c-1.24 3.927-1.24 3.927-8.268 5.374l-2.48.62-.62 3.307c-2.274-6.201-15.295-12.815-15.295-12.815l.207.207c-3.721-1.86-7.854-2.687-11.988-2.687-5.374 0-10.748 1.447-15.502 4.134-2.894 1.654-5.167 3.927-7.234 6.408l-6.614-8.681v-.207l-23.977.207-.827 2.274-.62 1.86c-1.24 3.927-1.24 3.927-8.268 5.374l-2.48.62-3.514 21.083 6.614 6.614-7.441 51.054-.62 3.927 7.234 8.061h25.837l3.1-20.256c.62 1.447 1.24 3.1 2.067 4.341.413.62.827 1.24 1.24 1.654 0 .207.207.413.207.413 2.894 3.307 5.994 6.408 9.095 9.301 2.067 1.24 4.134 2.274 6.408 2.894 2.274.827 4.547 1.24 7.028 1.447 4.754.207 9.301-.207 14.055-1.447 7.234-1.86 13.022-7.028 15.709-14.055 1.654-3.721 3.514-16.329 3.514-16.329l3.721-24.803.827-6.201 1.447 1.447-7.854 53.12 8.268 8.268h26.044l13.435-91.152z"/><path fill="#fff" d="M176.516 481.198h-22.53l9.301-61.595h-7.854l2.894-17.156 1.033-.207c8.061-1.86 8.268-2.067 9.921-6.821l.62-1.86.413-1.033h20.049z"/><path fill="#fecd27" d="M172.175 395.833l-.207.827c-1.86 5.581-2.894 6.614-10.955 8.681l-1.86 11.782h7.648l-9.301 61.388h16.536l12.608-82.678z"/><path fill="#fff" d="M83.298 481.198h-22.53l9.095-61.595h-7.648l2.894-17.156 1.033-.207c8.061-1.86 8.268-2.067 9.921-6.821l.62-1.86.413-1.033h20.049zm33.69 1.446a27.815 27.815 0 01-11.575-1.86c-3.1-1.24-5.581-3.307-7.028-6.201-1.447-2.687-2.48-5.374-2.894-8.474-.207-4.547 0-9.095.827-13.642l4.341-29.764c.827-6.201 2.274-12.195 4.547-17.982 1.86-4.134 5.167-7.854 9.095-10.128 4.341-2.48 9.301-3.927 14.262-3.72 3.927 0 7.854.827 11.575 2.687 2.894 1.447 5.374 3.721 7.028 6.614 1.447 2.687 2.274 5.581 2.274 8.681 0 4.754-.413 9.715-1.24 14.469l-4.134 28.524a85.922 85.922 0 01-3.1 14.469c-1.24 3.307-3.1 6.201-5.374 8.681-2.274 2.687-5.167 4.547-8.474 5.994-3.102 1.239-6.409 1.859-10.13 1.652z"/><path fill="#fecd27" d="M146.752 409.061c0-2.48-.827-5.167-1.86-7.234-1.447-2.274-3.514-4.134-5.787-5.374-3.1-1.654-6.614-2.274-10.128-2.274-4.547 0-8.888 1.033-12.815 3.307-3.514 2.067-6.201 5.167-8.061 8.681a63.447 63.447 0 00-4.341 17.156l-4.547 29.764c-.827 4.134-1.033 8.474-.827 12.815.413 2.687 1.24 5.167 2.48 7.441s3.307 3.927 5.581 4.961c3.307 1.24 7.028 1.86 10.541 1.654 3.1 0 6.201-.62 9.095-1.654 2.894-1.034 5.374-2.894 7.441-5.167 2.067-2.274 3.721-4.961 4.754-7.854 1.447-4.547 2.48-9.095 2.894-13.849l4.134-28.524c1.033-4.548 1.446-9.302 1.446-13.849zm-14.882-1.447c-.207 3.1-.62 5.994-1.24 8.888l-6.821 42.372c-.413 2.894-1.033 5.787-1.654 8.474-1.24 3.721-3.514 4.341-4.754 4.341-1.24 0-2.274-.413-3.1-1.24-1.033-1.033-1.447-2.48-1.447-3.927.207-3.1.62-6.408 1.24-9.508l6.821-41.546c.413-2.894 1.033-5.994 1.654-8.888 1.24-3.927 3.514-4.341 4.754-4.341 1.24 0 2.274.413 3.1 1.24 1.24 1.035 1.654 2.482 1.447 4.135zm-52.914-11.781l-.413.62c-1.86 5.581-2.687 6.614-10.955 8.681l-1.86 11.782h7.648l-9.301 61.388h16.536l12.608-82.678z"/><path fill="#92864f" d="M127.736 416.089l-6.821 42.372c-.62 4.134-1.24 6.821-1.654 8.061-.207.62-.62 2.274-2.067 2.274-.413 0-.62-.207-1.033-.413-.207-.413-.413-1.24-.413-1.86.207-3.1.62-5.994 1.24-9.095l6.821-41.752c.413-2.894 1.033-5.787 1.654-8.474.207-.62.62-2.274 2.067-2.274.413 0 .62.207 1.033.413.413.62.62 1.24.413 2.067 0 1.24-.413 4.133-1.24 8.681z"/></svg>