<svg xmlns="http://www.w3.org/2000/svg" width="105.45" height="105.45"><g fill-rule="evenodd"><path d="M37.65 69.725h30.1a1.91 1.91 0 002-1.86v-30.28a1.91 1.91 0 00-2-1.86h-30.1a1.91 1.91 0 00-1.95 1.86v30.28a1.91 1.91 0 001.95 1.86" fill="#1990d0"/><path d="M73.35 69.725h30.1a1.91 1.91 0 002-1.86v-30.28a1.91 1.91 0 00-2-1.86h-30.1a1.91 1.91 0 00-1.95 1.86v30.28a1.91 1.91 0 001.95 1.86" fill="#7eb828"/><path d="M2 69.725h30.1a1.91 1.91 0 002-1.86v-30.28a1.91 1.91 0 00-2-1.86H2a1.91 1.91 0 00-2 1.86v30.28a1.91 1.91 0 002 1.86" fill="#e1144d"/><path d="M16.86 62.925h2.88a.49.49 0 00.48-.5v-19.4a.49.49 0 00-.48-.5h-5.48a.49.49 0 00-.48.5v2.55a.49.49 0 00.48.51h1.63a.49.49 0 01.48.5v15.84a.5.5 0 00.49.5M45.93 62.925h13.54a.48.48 0 00.49-.49v-2.58a.48.48 0 00-.49-.49H52a.49.49 0 01-.33-.85l3.67-3.27c2.44-2.17 4.16-3.9 4.16-6.33 0-3.76-2.88-6.39-7-6.39-3.9 0-6.69 2.41-7 6a.49.49 0 00.49.54h3a.5.5 0 00.49-.43 2.86 2.86 0 013-2.5 2.83 2.83 0 013 2.9c0 1.35-1 2.46-2.41 3.72l-7.52 6.43a.47.47 0 00-.17.37v2.93a.48.48 0 00.49.49" fill="#fefefe"/><path d="M88.4 62.925c-3.17 0-6.16-1.57-6.46-5.39a.49.49 0 01.49-.52h2.76a.49.49 0 01.48.42 2.53 2.53 0 002.73 2.2 2.58 2.58 0 002.75-2.79 2.6 2.6 0 00-2.86-2.76h-.06a.47.47 0 01-.48-.47v-2.23a.47.47 0 01.48-.47h.06a2.34 2.34 0 002.57-2.54 2.501 2.501 0 00-5-.14v.13a.49.49 0 01-.49.48h-2.74a.47.47 0 01-.48-.48v-.13c.08-3.57 2.85-5.71 6.22-5.71 3.6 0 6.2 2.36 6.2 5.74a4.31 4.31 0 01-1.71 3.72.47.47 0 000 .77 4.79 4.79 0 012 4.18c0 4-3 6-6.46 6" fill="#fff"/></g></svg>