<svg xmlns="http://www.w3.org/2000/svg" width="450" height="450"><path d="M266.49 211.06a6 6 0 10-6-6 6 6 0 006 6m-5.03 6.52v33.32h9.93v-27.33a6.13 6.13 0 00-.45-2 6.83 6.83 0 00-1.39-2.08 6.51 6.51 0 00-4.63-1.91zm31.31 7.95v25.37h-9.88v-25.51c0-7.78 4.19-12 12-12h15.08v8.32h-13.4a3.4 3.4 0 00-3.77 2.95 3.84 3.84 0 000 .83m141.53-3.74h14.56v-8.32h-14.56v-7.73h-9.83v33.22c0 7.78 4.19 12 11.95 12h13.42v-2a6.21 6.21 0 00-.5-2.4 6.69 6.69 0 00-1.38-2.08 6.38 6.38 0 00-2.08-1.38 6.57 6.57 0 00-2.42-.49h-5.36a3.84 3.84 0 01-.83 0 3.38 3.38 0 01-2.94-3.77zm-298.02-8.62c0-8.4-5.5-13.52-14.14-13.52H94.55v8.62h25.58c3.8 0 6.05 1.58 6.05 4.5s-2 5.11-5.17 5.9l-18.36 4.19c-8.52 1.76-12.42 6.85-12.42 14.89v13.19h45.29v-2.31a6.33 6.33 0 00-.51-2.54 6.69 6.69 0 00-1.38-2.08 6.36 6.36 0 00-2.08-1.4 6.45 6.45 0 00-2.55-.51h-28.68v-4.34a5.69 5.69 0 014.81-6.13l17.79-4.21c8-1.67 13.44-6.18 13.44-14.25M.37 250.9H23.8v-8.51h-6.47v-42.77H9.39l-9.26 4.83v6.29h7.08v31.65H.37zm347.84-29.57h-20.19a3.39 3.39 0 00-3.77 2.95 2.89 2.89 0 000 .83v3.47h27.74v-3.47a3.39 3.39 0 00-3-3.77 3.66 3.66 0 00-.81 0zm-24 17.88a3.38 3.38 0 003.78 3.75h33.23v7.91h-34.69c-7.79 0-12-4.19-12-12v-13.5c0-7.79 4.19-12 12-12h23.16c7.79 0 12 4.19 12 12v11.12h-37.45v2.71m-251.83-6.64v6.13a3.4 3.4 0 01-3 3.77 2.68 2.68 0 01-.8 0h-24a3.37 3.37 0 01-3.75-3 3.66 3.66 0 010-.81v-6.09a3.37 3.37 0 012.95-3.77 2.89 2.89 0 01.83 0h24a3.38 3.38 0 013.76 2.95 3.75 3.75 0 010 .82zm-1.37-20.71v4.73a3.39 3.39 0 01-3 3.78 3.84 3.84 0 01-.83 0H45.99a3.4 3.4 0 01-3.77-2.95 2.89 2.89 0 010-.83v-4.73a3.39 3.39 0 012.91-3.79 3.75 3.75 0 01.82 0h21.31a3.4 3.4 0 013.78 3 3.84 3.84 0 010 .83m-26.63-12.27c-7.78 0-12 4.19-12 12v5.26a7.67 7.67 0 003 6.83 8 8 0 00-4.58 7.83v7.4c0 7.78 4.19 12 12 12h27.54c7.78 0 12-4.19 12-12v-7.4a8 8 0 00-4.57-7.83 7.62 7.62 0 003-6.83v-5.29c0-7.79-4.19-12-12-12zM421 250.9h-13.52L391.7 233l-10.86 8.23v9.67h-9.72v-51.28h9.72v31.31l22.4-17.5h14.38l-18.26 13.8zm-180.76-29.12h-26.7a3.38 3.38 0 00-3.77 2.95 3.75 3.75 0 000 .82v13.25a3.38 3.38 0 003 3.77 2.82 2.82 0 00.82 0h26.7zm-40.32 17.14V225.4c0-7.78 4.18-12 12-12h28.31v-13.78h9.7v51.28h-38.05c-7.75 0-12-4.19-12-12m-10.59-25.77c0-8.4-5.5-13.52-14.14-13.52h-27.62v8.62h25.54c3.8 0 6.05 1.58 6.05 4.5s-2 5.11-5.17 5.9l-18.36 4.19c-8.5 1.76-12.38 6.85-12.38 14.89v13.19h45.29v-2.31a6.33 6.33 0 00-.51-2.54 6.69 6.69 0 00-1.38-2.08 6.36 6.36 0 00-2.08-1.4 6.45 6.45 0 00-2.55-.51H153.3v-4.34a5.69 5.69 0 014.76-6.13l17.79-4.21c8-1.67 13.44-6.18 13.44-14.25" fill="#00386a"/></svg>