<svg xmlns="http://www.w3.org/2000/svg" viewBox="0 0 32 32"><path fill="#303136" fill-rule="evenodd" d="M32 16a16 16 0 1 0-32 0 16 16 0 0 0 32 0ZM13.06 6.99c-.1.2-.1.46-.1.98v4.1c0 .14 0 .2.02.26a.46.46 0 0 0 .07.15c.04.05.09.1.19.17l1.08.88c.12.1.18.15.2.2.02.06.02.12 0 .17-.02.06-.08.1-.2.2l-1.08.88-.2.18a.46.46 0 0 0-.06.15c-.02.06-.02.12-.02.25v8.47c0 .52 0 .78.1.98a.93.93 0 0 0 .41.4c.2.1.46.1.98.1h3.1c.52 0 .78 0 .98-.1a.93.93 0 0 0 .4-.4c.1-.2.1-.46.1-.98v-4.36a.47.47 0 0 0-.08-.15 1.02 1.02 0 0 0-.19-.17l-1.08-.88c-.12-.1-.18-.15-.2-.2a.23.23 0 0 1 0-.17c.02-.06.08-.1.2-.2l1.08-.88a1 1 0 0 0 .2-.18.47.47 0 0 0 .06-.15c.02-.06.02-.12.02-.25V7.97c0-.52 0-.78-.1-.98a.93.93 0 0 0-.41-.4c-.2-.1-.46-.1-.98-.1h-3.1c-.52 0-.78 0-.98.1a.93.93 0 0 0-.4.4Z"/></svg>
