<svg xmlns="http://www.w3.org/2000/svg" stroke-width="2" viewBox="0 0 116 116"><circle cx="58" cy="58" r="56" fill="#fff" stroke="#00000080" stroke-width="4" paint-order="stroke fill markers"/><path fill-opacity=".05" d="M113.92 55.18a56 57.73 0 1 1-111.84 0 56 57.73 0 0 0 111.8.7zM58 6.72a49 50.52 0 0 1 31.37 89.34 46 47.42 0 1 0-62.74 0A49 50.52 0 0 1 58 6.72Z"/><circle cx="58" cy="58" r="44" fill="#1a8cff" stroke="#1368bd"/><circle cx="58" cy="58" r="35" fill="#f7f7f7" stroke="#1368bd"/><circle cx="58" cy="58" r="14" fill="#eaeaea" stroke="#c7c7c7"/><path fill="#fff" d="M52.42 32C49.95 32 48 34.16 48 36.77v7.52a17 17 0 0 0 0 27.42v7.52c0 2.6 1.95 4.77 4.42 4.77h11.16c2.47 0 4.42-2.17 4.42-4.77v-7.52a17 17 0 0 0 0-27.42v-7.52c0-2.6-1.95-4.77-4.42-4.77H52.42zM48 46.88v.69c0 .98.35 1.92 1 2.64l1.64 1.82c.03.04.03.16 0 .2L49 54.05a3.95 3.95 0 0 0-1 2.64v12.44a15 15 0 0 1 0-22.25zm20 0a15 15 0 0 1 0 22.24v-.69a3.95 3.95 0 0 0-1-2.64l-1.64-1.81c-.03-.05-.03-.17 0-.2L67 61.94a3.95 3.95 0 0 0 1-2.64V46.88z"/><path fill="#0a2d4d" stroke="#061b2e" d="M53.23 35c-.92 0-1.72.7-2.06 1.7-.1.33-.17.7-.17 1.08v10.27a1.81 1.98 0 0 0 .44 1.32l1.4 1.7c.58.74.58 1.9 0 2.64l-1.4 1.72a2.1 2.1 0 0 0-.44 1.31V78.5c.02.28.08.55.16.8a2.59 2.59 0 0 0 1.2 1.48l.2.1c.14.05.29.1.43.1l.23.02h9.55c.07 0 .15 0 .23-.02.52-.07 1-.35 1.35-.8.2-.24.37-.54.48-.87l.08-.25.06-.27.03-.27V67.95c0-.49-.16-.96-.44-1.31l-1.4-1.73a1.86 2.03 0 0 1 0-2.62l1.4-1.73a1.81 1.98 0 0 0 .44-1.31V37.78c0-1.53-1.01-2.78-2.23-2.78z"/></svg>
