<svg xmlns="http://www.w3.org/2000/svg" viewBox="0 0 32 32" fill="#fff"><path d="M0 0h32v32H0z" fill="#00925c" fill-rule="evenodd"/><path d="M18.16 3.54c.88.37 4.4 2.29 4.84 2.89-1.87.25-5.43 1.3-7.23 2.25a48 48 0 0 1 6.92-.8 21.26 21.26 0 0 1-2.44 3.08l4.72-2.53c.74 1.1.93 3.65.96 5.67.65-1.28 1.43-6.11 1.1-6.99 1.2-.78 1.2-1.09 1.5-1.62-1.2.1-1.87.13-2.53.33-1.65-1.02-5.06-2.06-7.84-2.28zm-4.69 6.13c-.53.08-2.05.76-3.05 1.55 0 0-.67-.08-1.78-.05-1.12.05-2.59.33-3.15.56 1.09.05 2.57.33 3.15.9 0 0-1.67 1.5-3.29 4.76 0 0 2.99-2.78 4.27-3.47l1.13 3.38s.42-2.61 1.1-4.11c0 0 .2-.12 1.15-.21s2.29-.15 4.86.3c0 0-2.36-1.5-5.28-1.9.11-.4.52-1.26.89-1.71zm-8.4 8.87a13.4 13.4 0 0 0-.02 4.06c-.74.2-1.26.37-1.86.63l2.49 1.36c.5 1.09 1 1.8 1.85 2.63-.2-.7-.24-1.27-.16-2.02 1.06.31 1.94.48 3.14.52a7.85 7.85 0 0 1-2.86-1.76c.27-.74.58-1.33 1.08-2.06l-2.4.4a12.4 12.4 0 0 1-1.26-3.76zm14.03 5c-.8.57-1.5 1-2.44 1.45l-.1-1.29-1.54 1.88c-.99.27-1.77.37-2.72.38.58.3 1.17.48 1.78.6-.61.56-1.14.96-1.74 1.34 1-.24 2.31-.67 3.29-1.24.5.02 1.01 0 1.36-.07l-.23-.92c.92-.71 1.58-1.36 2.34-2.13z"/></svg>