<svg xmlns="http://www.w3.org/2000/svg" xmlns:xlink="http://www.w3.org/1999/xlink" width="50" height="50" viewBox="0 0 13.23 13.23"><defs><linearGradient x1="49.77" y1="132.15" x2="49.77" y2="124.47" spreadMethod="pad" id="A" xlink:href="#G"><stop offset="0" stop-color="#33b880"/><stop offset="1" stop-color="#00a770"/></linearGradient><linearGradient x1="47.6" y1="132.14" x2="47.6" y2="124.47" spreadMethod="pad" id="B" xlink:href="#G"><stop offset="0" stop-color="#33b880"/><stop offset="1" stop-color="#00a770"/></linearGradient><linearGradient x1="46.93" y1="132.15" x2="46.93" y2="124.47" spreadMethod="pad" id="C" xlink:href="#G"><stop offset="0" stop-color="#33b880"/><stop offset="1" stop-color="#00a770"/></linearGradient><linearGradient x1="50.86" y1="132.15" x2="50.86" y2="124.47" spreadMethod="pad" id="D" xlink:href="#G"><stop offset="0" stop-color="#33b880"/><stop offset="1" stop-color="#00a770"/></linearGradient><linearGradient x1="56.64" y1="120.94" x2="56.64" y2="132.8" spreadMethod="pad" id="E" xlink:href="#G"><stop offset="0" stop-color="#00a770"/><stop offset=".3" stop-color="#80d2a4"/><stop offset=".55" stop-color="#00a770"/><stop offset=".84" stop-color="#007b50"/><stop offset=".88" stop-color="#007b50"/><stop offset="1" stop-color="#1ab07b"/></linearGradient><linearGradient x1="56.85" y1="123.18" x2="56.85" y2="133.73" spreadMethod="pad" id="F" xlink:href="#G"><stop offset="0" stop-color="#007b50"/><stop offset=".6" stop-color="#80d2a4"/><stop offset="1" stop-color="#00a770"/></linearGradient><linearGradient id="G" gradientUnits="userSpaceOnUse"/></defs><g transform="matrix(1.3229400000000002 0 0 1.3229400000000002 -61.4 -163.28)"><path d="M46.4 133.42h10v-10h-10z" fill="url(#F)"/><path d="M47.19 123.6c-.2 0-.32.16-.35.4s-.25 1.3-.25 4.1c0 2.78.25 4.6.25 4.6.02.23.15.4.35.4h8.65c.2 0 .35-.16.35-.4l-.1-4.22.1-4.49c0-.21-.16-.4-.35-.4z" fill="url(#E)"/><path d="M52.05 124.6c.27.12 1.37.7 1.5.9-.55.07-1.63.35-2.22.64l-.03.07c.64-.14 1.54-.22 2.16-.25-.23.34-.38.5-.74.88l-.03.08 1.48-.8c.23.35.29 1.14.3 1.78.2-.4.44-1.91.34-2.18.41-.29.47-.51.47-.51-.38.03-.58.04-.79.1a7.18 7.18 0 0 0-2.41-.78z" fill="url(#D)"/><path d="M47.95 129.29c-.05.5-.08.86 0 1.26-.2.06-.39.07-.55.13l-.03.07a7 7 0 0 0 .77.43c.16.33.32.56.58.82l.04-.07c-.05-.19-.11-.35-.1-.56.34.1.62.15 1 .16l.02-.07c-.32-.13-.65-.23-.92-.48.08-.23.18-.41.34-.64l.03-.07c-.28.04-.54.14-.78.19-.2-.34-.27-.8-.37-1.24z" fill="url(#C)"/><path d="M49.62 127s-.2-.03-.56-.02c-.3.02-.73.04-.95.1l-.03.08c.34.01.81.1.99.28s-.52.47-1.03 1.49.93-.87 1.33-1.09l.36 1.05.03-.07c.04-.22.14-.83.31-1.2s.06-.05.36-.07c.3-.03.72-.05 1.52.1l.03-.08a5.5 5.5 0 0 0-1.68-.52h.03c.1-.31.23-.54.23-.54-.16.02-.62.24-.94.48" fill="url(#B)"/><path d="m51.57 131.3-.03-.4-.47.59c-.2.05-.4.05-.6.04h-.23l-.03.08c.19.09.36.15.56.19-.16.14-.37.25-.51.34l-.03.07c.3-.07.72-.2 1.03-.39.15.01.3 0 .41-.02l.04-.07c-.02-.07-.09-.11-.1-.21.28-.23.49-.43.73-.67l.03-.07c-.23.16-.52.39-.8.52" fill="url(#A)"/></g><path d="M10.32 3.48 8.36 4.53c.52-.56.7-.8 1.02-1.27-.82.05-2.01.14-2.86.33.74-.4 2.2-.83 2.98-.94a10.24 10.24 0 0 0-2-1.18c1.16.09 2.56.52 3.24.93.27-.08.55-.08 1.05-.13-.13.22-.14.35-.62.67.13.36-.2 2.36-.46 2.88-.01-.83-.08-1.88-.4-2.34m-5.97 7.15c-.47-.17-.81-.37-1.18-.72.1-.31.24-.55.44-.86l-.99.16a5.08 5.08 0 0 1-.52-1.54c-.08.66-.1 1.14 0 1.67-.31.08-.52.16-.77.27l1.01.56c.21.44.43.75.78 1.09-.08-.3-.1-.53-.07-.84.43.13.8.2 1.3.21M5.56 4c-.15.19-.32.54-.36.7 1.2.17 2.18.8 2.18.8-1.06-.2-1.62-.17-2.01-.14s-.48.09-.48.09c-.28.62-.45 1.7-.45 1.7-.2-.47-.47-1.4-.47-1.4C3.43 6.04 2.2 7.2 2.2 7.2a7.01 7.01 0 0 1 1.36-1.96c-.24-.24-.86-.36-1.3-.38.23-.1.83-.2 1.29-.23l.74.01c.42-.32 1.04-.6 1.26-.63m1.28 5.8-.63.78c-.4.11-.73.15-1.13.15.24.13.48.2.73.26-.25.23-.47.39-.71.55.41-.1.95-.28 1.36-.52.21.01.4 0 .55-.03a3.17 3.17 0 0 1-.09-.37c.38-.3.66-.57.98-.89-.34.24-.63.41-1.02.6l-.04-.54" fill="#fff"/></svg>