<svg xmlns="http://www.w3.org/2000/svg" version="1.0" viewBox="0 0 798.75 798.749" width="500" height="500"><path d="M798.746 339.109H512.784v120.53h285.962zm-3.11 3.037V456.53H515.822V342.146h279.816M.004 459.64H500.42V339.109H.004z" fill="#03426a"/><path d="M795.637 342.146V456.53H515.82V342.146h279.816M172.81 407.509c0 11.857-6.362 17.714-20.606 17.714H129.79v-44.395h21.69c17.21 0 21.33 8.388 21.33 17.57zm9.183-.362v-7.592c0-24.222-19.088-25.162-31.886-25.162h-29.572v57.41h32.103c25.234 0 29.355-13.666 29.355-24.656M232.028 417.631c0 3.326-.29 6.363-4.122 7.737-2.241.867-5.423 1.156-10.773 1.156s-8.532-.506-10.412-1.735c-1.301-.795-1.807-2.097-1.807-4.844 0-3.47.867-5.423 2.53-6.218 1.663-.796 3.76-.94 10.267-.94h14.317zm8.676 14.172v-22.56c0-4.265 0-7.23-.362-9.399-.433-2.241-1.156-3.832-2.964-5.206-4.194-3.253-14.46-3.326-19.522-3.326-3.832 0-14.244.434-18.076 3.688-1.302 1.084-1.59 2.386-1.59 3.977 0 1.012.144 2.386.216 4.193h8.46c.144-1.012.361-3.47 1.301-4.483 1.157-1.084 3.11-1.518 8.894-1.518 6.652 0 11.279.217 13.231 1.302 1.808 1.012 1.736 3.18 1.736 4.844v3.904h-19.523c-5.278 0-11.351.145-14.677 4.7-1.519 1.952-2.17 4.483-2.17 7.737 0 9.544 5.857 12.725 20.896 12.725 7.81 0 12.943-1.23 16.052-3.904l.795 3.326h7.303M293.052 431.803v-21.98c0-7.593-.361-9.183-2.17-10.557-1.734-1.302-5.205-2.097-10.483-2.097-4.628 0-9.4.578-13.883 1.808v32.826h-8.604v-40.201h7.737l.578 2.892c1.736-.94 3.037-1.663 4.845-2.17 2.892-.867 6.507-1.3 11.351-1.3 5.495 0 9.761.867 13.015 2.313 3.181 1.374 4.917 3.977 5.567 7.013.434 2.097.651 3.905.651 8.46v22.993h-8.604M356.896 429.344c-3.976 2.025-10.484 2.892-18.943 2.892-5.857 0-10.701-.433-14.461-1.446-4.049-.94-6.074-2.82-6.29-6.29-.145-1.808 0-3.398.216-5.567h8.315c.29 2.024.29 2.675.362 3.109.29 1.88.145 2.892 2.386 3.615 2.17.65 5.64.94 10.05.94 5.495 0 9.327-.579 11.858-1.736 1.808-.795 2.675-2.241 2.675-4.989 0-3.18-.65-4.482-3.976-4.988-1.013-.217-2.025-.217-3.11-.29-.578-.072-2.458-.072-5.495-.144-1.446 0-3.109-.145-5.06-.217-8.605-.434-17.715-.796-17.715-10.846 0-9.11 5.567-12.291 20.896-12.291 3.904 0 8.676.289 11.568.65 3.326.434 5.857 1.013 7.664 2.025 2.025 1.157 2.676 2.964 2.676 6.146 0 .867 0 1.735-.145 3.109h-8.387l-.362-1.808c-.434-2.17-.578-2.603-1.301-3.109-1.23-.94-4.917-1.374-10.123-1.374-5.206 0-8.17.217-10.556 1.085-2.242.795-3.254 2.241-3.254 5.133 0 1.953.723 3.399 1.663 4.05 2.242 1.373 14.1 1.229 18.148 1.3 4.339.073 7.159.435 9.617 1.302 4.41 1.519 6.146 4.41 6.146 10.267 0 4.7-1.519 7.665-5.062 9.472M409.968 431.803l-20.752-19.016h-3.036v19.016h-8.677v-57.41h8.677v32.682h3.036l17.209-15.473h10.122l-20.028 17.714 24.945 22.487h-11.496M464.268 407.798h-27.693c.29-5.062 1.374-7.303 3.326-8.75 2.025-1.445 5.712-2.168 11.135-2.168 7.52 0 11.063 1.663 12.364 5.133.506 1.446.868 2.82.868 5.785zm7.953 11.424h-8.532c-.289 1.229-.433 4.338-1.59 5.495-1.302 1.301-3.905 1.88-10.846 1.88-6.869 0-10.629-.94-12.58-2.892-1.447-1.446-2.315-4.483-2.315-9.183v-1.085h36.08c.072-1.952.217-2.458.217-4.049 0-6.652-.94-10.34-3.832-13.159-3.254-3.398-9.544-5.061-18.22-5.061-11.063 0-17.86 2.53-20.68 8.098-1.663 3.181-2.603 7.664-2.603 13.231 0 8.75 2.314 14.244 7.448 16.992 3.181 1.735 8.676 2.747 15.69 2.82 5.856 0 10.556-.29 15.69-1.808 4.989-1.59 6.218-4.41 6.218-6.796 0-.579 0-2.531-.145-4.483" fill="#fff"/><path d="M586.172 388.854c0 8.46-4.772 10.195-14.605 10.195h-21.764v-18.22h22.848c8.75 0 13.521.795 13.521 8.025zm11.352 26.753c0-7.086-4.05-12.292-13.738-13.81v-.145c7.52-1.952 11.569-5.857 11.569-12.003 0-10.122-4.917-15.256-18.871-15.256h-35.936v57.41h37.382c12.58 0 19.594-5.712 19.594-16.196zm-9.255.65c0 8.17-5.784 8.966-14.75 8.966h-23.716v-19.667h24.873c10.629 0 13.593 3.399 13.593 10.701M644.45 417.631c0 3.326-.218 6.363-4.05 7.737-2.241.867-5.423 1.156-10.773 1.156s-8.532-.506-10.412-1.735c-1.301-.795-1.807-2.097-1.807-4.844 0-3.47.867-5.423 2.602-6.218 1.591-.796 3.688-.94 10.268-.94h14.171zm8.748 14.172v-22.56c0-4.265 0-7.23-.362-9.399-.433-2.241-1.156-3.832-2.964-5.206-4.194-3.253-14.46-3.326-19.522-3.326-3.832 0-14.244.434-18.076 3.688-1.302 1.084-1.59 2.386-1.59 3.977 0 1.012.144 2.386.216 4.193h8.46c.217-1.012.361-3.47 1.301-4.483 1.157-1.084 3.11-1.518 8.894-1.518 6.652 0 11.279.217 13.231 1.302 1.808 1.012 1.663 3.18 1.663 4.844v3.904H625c-5.278 0-11.351.145-14.677 4.7-1.446 1.952-2.17 4.483-2.17 7.737 0 9.544 5.857 12.725 20.896 12.725 7.882 0 12.943-1.23 16.052-3.904l.795 3.326h7.303M703.377 431.803v-21.98c0-7.593-.362-9.183-2.17-10.557-1.734-1.302-5.205-2.097-10.483-2.097-4.628 0-9.4.578-13.883 1.808v32.826h-8.604v-40.201h7.737l.65 2.892c1.663-.94 2.965-1.663 4.845-2.17 2.82-.867 6.435-1.3 11.28-1.3 5.494 0 9.76.867 13.014 2.313 3.181 1.374 4.917 3.977 5.64 7.013.434 2.097.578 3.905.578 8.46v22.993h-8.604M759.485 431.803l-20.751-19.016h-3.11v19.016h-8.604v-57.41h8.605v32.682h3.109l17.208-15.473h10.05l-20.028 17.714 24.945 22.487h-11.424" fill="#03426a"/></svg>