<svg xmlns="http://www.w3.org/2000/svg" width="398.856" height="398.856" fill="none"><path d="M348.426 128.28c0-2.473-2.494-4.945-5.993-5.935L300.5 107.021c-6.983-2.968-14.971.494-14.971 5.447v174.209c0 2.473 2.494 5.44 4.988 6.429l42.93 15.325c6.49 2.473 14.978-.989 14.978-6.436zm-78.372-60.874c0-2.48-2.494-4.953-5.992-5.942l-41.926-15.325c-6.99-2.968-14.977.495-14.977 5.447v105.902c0 2.473 2.494 5.441 4.988 6.437l42.93 15.325c6.49 2.479 14.977-.99 14.977-6.43zm0 190.558c0-2.473-2.494-4.946-5.992-5.935l-41.926-15.325c-6.99-2.968-14.977.494-14.977 5.447v105.902c0 2.473 2.494 5.44 4.988 6.43l42.93 15.324c6.49 2.48 14.977-.989 14.977-6.436zm-78.371 21.287c0-2.473-2.494-4.952-5.993-5.942l-41.925-15.324c-7.025-2.968-14.978.494-14.978 5.447v112.847c0 2.473 2.494 5.447 4.988 6.436l42.93 15.325c6.49 2.48 14.978-.989 14.978-6.429zm0-256.893c0-2.473-2.494-4.946-5.993-5.935L143.765 1.098c-7.025-2.968-14.978.494-14.978 5.447v112.847c0 2.48 2.494 5.447 4.988 6.436l42.93 15.325c6.49 2.473 14.978-.989 14.978-6.436zm-78.358 4.458c0-2.473-2.494-4.953-5.992-5.942L65.407 5.549c-6.99-2.968-14.977.495-14.977 5.447v361.312c0 2.473 2.494 5.441 4.995 6.43l42.923 15.325c6.49 2.472 14.977-.99 14.977-6.437z" fill="#0e353d"/></svg>