<svg xmlns="http://www.w3.org/2000/svg" viewBox="0 0 35.7 40.001"><path d="M12.67 24.461H5.95a4.53 4.53 0 0 1-4.56-4.49v-4.75h-.12c-.7 0-1.27-.57-1.27-1.25v-5.33c0-.69.56-1.25 1.27-1.25h.1v-2.89a4.52 4.52 0 0 1 4.59-4.5h23.8a4.53 4.53 0 0 1 4.56 4.49v2.9h.11c.7 0 1.27.56 1.27 1.25v5.33c0 .69-.57 1.25-1.27 1.25h-.11v4.75a4.52 4.52 0 0 1-4.56 4.49h-6.62v1.14h.6l2.16.81v.33h.82v.87c.14 0 1.42.06 2.3 1.03.94 1.03.83 2.12.83 2.12v.92h.26l1.05 1.03v2.77l-1.02 1h-2.12l-.46-.44v-1.38h-.87v-2.4a.6.6 0 0 1 .6-.58h.47v-.97c-.05-.44-.17-.6-.34-.76-.15-.15-.61-.3-.7-.33v1.14h-.88v3.37l-1.21 1.3v1.74h.55s.66 0 1.32.28c.66.27 1.21.81 1.21.81v1.74h-9.25v-3.37h-1.1v3.37H8.1v-1.74s.55-.54 1.21-.81a6.83 6.83 0 0 1 1.33-.38h.55v-1.63l-1.16-1.36v-3.32h-.94v-1.1c-.16.05-.48.17-.6.29-.17.16-.28.32-.33.76v.97h.44c.34 0 .6.27.6.6v2.4h-.86v1.37l-.46.45H5.77l-1.01-1.01v-2.77l1.04-1.04h.28v-.92s-.11-1.09.82-2.12c.78-.86 1.86-1 2.2-1.03v-.87h.83v-.33l2.1-.81h.65v-1.14zM2.54 5.141v13.96c0 1.88 1.55 3.41 3.46 3.41h23.75c1.9 0 3.46-1.52 3.46-3.4V5.131c0-1.87-1.55-3.4-3.46-3.4H6a3.43 3.43 0 0 0-3.46 3.4z" fill-rule="evenodd"/><path d="M11.37 15.141c-.9 0-1.63-1.21-1.63-2.7 0-1.5.73-2.71 1.62-2.71.9 0 1.62 1.21 1.62 2.7 0 1.5-.72 2.7-1.62 2.7m11.89.01c-.9 0-1.62-1.21-1.62-2.7 0-1.5.73-2.71 1.62-2.71.9 0 1.63 1.21 1.63 2.7 0 1.5-.73 2.7-1.63 2.7" fill-rule="evenodd"/></svg>