<svg xmlns="http://www.w3.org/2000/svg" width="2500" height="2500" viewBox="0 0 192.756 192.756"><g fill-rule="evenodd" clip-rule="evenodd"><path fill="#fff" d="M0 0h192.756v192.756H0V0z"/><path fill="#26a895" d="M46.208 176.799h8.112l11.052-30.252 9.33 24.51h-10.73v5.742h20.815l-14.642-37.322h-9.257l-14.68 37.322zM78.686 139.441v6.243h11.807v31.115h8.181V145.65h11.914v-6.209H78.686zM113.422 139.371v37.428h25.732v-6.315h-17.441v-10.193h15.611v-6.281h-15.648v-8.432H138.4v-6.207h-24.978zM140.338 139.586h8.467l10.265 29.857 8.217-23.974h-9.473v-5.883h19.594l-14.031 37.213h-8.828l-14.211-37.213z"/><path fill="#a0c877" d="M15.348 15.815h161.054v115.408H15.348V15.815z"/><path d="M15.384 139.477h11.877c.538.539 20.636-2.512 20.456 18.193.466 20.994-21.531 19.236-21.531 19.236H15.384v-37.429zm10.265 6.459h-2.406v24.654h1.974c4.523.07 14.749-.895 14.32-13.205-.145-11.16-9.368-11.592-13.888-11.449z" fill="#26a895"/></g></svg>