<svg xmlns="http://www.w3.org/2000/svg" viewBox="0 0 192.76 192.76" style="background:#fff"><path fill="#26a895" d="M46.2 176.8h8.12l11.05-30.25 9.33 24.5H63.97v5.75H84.8l-14.65-37.32H60.9L46.2 176.8zm32.49-37.36v6.24h11.8v31.12h8.18v-31.15h11.92v-6.2h-31.9zm34.73-.07v37.43h25.73v-6.32h-17.44V160.3h15.61v-6.28h-15.64v-8.43h16.72v-6.2h-24.98zm26.92.22h8.46l10.27 29.85 8.22-23.97h-9.48v-5.88h19.6l-14.03 37.2h-8.83l-14.21-37.2z"/><path fill="#a0c877" d="M15.35 15.81H176.4v115.41H15.35V15.82z"/><path fill="#26a895" d="M15.38 139.48h11.88c.54.54 20.64-2.51 20.46 18.19.46 21-21.53 19.24-21.53 19.24h-10.8v-37.43zm10.27 6.46h-2.4v24.65h1.97c4.52.07 14.75-.9 14.32-13.2-.15-11.16-9.37-11.6-13.9-11.45z"/></svg>
