<svg xmlns="http://www.w3.org/2000/svg" viewBox="0 0 90 30"><path fill="#199ed9" d="M14.68.02 19.09 0v29h-4.43v-1.6a7.38 7.38 0 0 1-5.3 2.1C3.85 29.5 0 24.94 0 18.48 0 12.06 3.78 7.63 9.23 7.63c2.16 0 3.74.61 5.45 2.06V.02Zm-.5 22.44c.32-.73.44-1.84.44-3.62 0-2.25-.08-3.34-.35-4.13-.47-1.61-2.37-2.84-4.34-2.84-3.25 0-5.27 2.6-5.27 6.76 0 4.01 2 6.6 5.13 6.6 1.99 0 3.78-1.15 4.4-2.77Zm24.54-.47c0 2.85.22 3.29 2.25 4.11l-2.25 3.43c-1.98-.26-3.16-1.14-3.6-2.58a6.86 6.86 0 0 1-5.66 2.58c-4.52 0-7.94-2.99-7.94-6.94 0-3.34 2.1-5.31 6.59-6.19 1.4-.25 2.6-.39 6.15-.74V15c-.04-2.37-1.14-3.34-3.87-3.34-2.02 0-3.48.36-6.41 1.62l-1.85-3.55a19.24 19.24 0 0 1 8.74-2.14c2.9 0 5.24.73 6.5 2.1 1.1 1.15 1.35 2.11 1.35 4.61V22Zm-4.48.39v-3.13c-2.51.26-3.64.38-5 .7-2.06.5-3 1.32-3 2.73 0 1.72 1.78 3.12 3.92 3.12 1.15 0 2.5-.49 3.3-1.2.6-.52.78-1 .78-2.22Zm14.4-.57c0 2.59.53 3.2 2.72 3.2.74 0 1.59.18 2.5 0v3.7a13.9 13.9 0 0 1-3.92.56c-4.13 0-5.75-1.7-5.75-5.98V11.87h-3.22V8.05h3.22V1.6L48.62.02v8.03h5.24v3.82h-5.22v9.94Zm15 0c0 2.59.53 3.2 2.72 3.2.74 0 1.59.18 2.5 0v3.7a13.9 13.9 0 0 1-3.92.56c-4.13 0-5.75-1.7-5.75-5.98V11.87h-3.22V8.05h3.22V1.6L63.62.02v8.03h5.24v3.82h-5.22v9.94ZM79.72 7.52C85.83 7.52 90 12.06 90 18.63c0 6.42-4.08 10.94-9.93 10.94-5.98 0-10.1-4.49-10.1-10.94 0-6.66 3.91-11.1 9.75-11.1Zm.17 17.72c3.17 0 5.33-2.69 5.33-6.68 0-4.08-2.11-6.77-5.27-6.77-3.26 0-5.45 2.76-5.45 6.77s2.14 6.68 5.4 6.68Z"/></svg>
