<svg xmlns="http://www.w3.org/2000/svg" width="27.1" height="27.1"><g fill="none" fill-rule="evenodd"><path fill="#fff" d="M4.608 22.582h17.884V4.518H4.608z"/><path d="M21.908 22.015l-6.49-5.497s-.879-.867-1.865-.867c-.996 0-1.875.867-1.875.867l-6.487 5.497-.021-.02 5.443-6.554s.856-.885.856-1.893c0-.998-.856-1.884-.856-1.884L5.17 5.104l.02-.023 6.488 5.503s.88.869 1.875.869c.986 0 1.865-.87 1.865-.87l6.49-5.502.026.029-5.453 6.554s-.85.886-.85 1.884c0 1.008.85 1.893.85 1.893l5.453 6.553zm3.036-8.467v-.002c0-1.777.071-3.37 1.376-6.168.377-.814 1.212-2-.018-3.384-.999-1.006-2.133-.841-2.897-.396.44-.772.603-1.923-.395-2.933C21.64-.573 20.462.268 19.66.65c-2.773 1.32-4.342 1.394-6.107 1.394-1.772 0-3.343-.073-6.11-1.394-.806-.383-1.99-1.224-3.354.014-.998 1.01-.83 2.16-.39 2.933-.767-.447-1.903-.61-2.903.396-1.229 1.384-.39 2.57-.02 3.384 1.313 2.798 1.385 4.39 1.385 6.17 0 1.784-.072 3.38-1.385 6.177-.37.808-1.209 2.002.02 3.385 1 1.003 2.136.837 2.903.397-.44.774-.608 1.922.39 2.922 1.365 1.247 2.548.404 3.354.02 2.769-1.32 4.338-1.39 6.11-1.39 1.765 0 3.334.07 6.106 1.39.803.384 1.981 1.227 3.35-.02.999-1 .831-2.148.394-2.922.766.44 1.9.612 2.9-.397 1.229-1.383.394-2.577.017-3.385-1.305-2.8-1.376-4.393-1.376-6.177z" fill="#f33"/></g></svg>