<svg xmlns="http://www.w3.org/2000/svg" width="114" height="114"><path d="M12.86 67.529v-1.253L.068 79.034h3.26L14.847 67.53zm5.383-20.663c6.32 0 8.275 4.26 8.803 7.834l.083.561 9.978-9.966-.11-.19a18.953 18.953 0 00-.995-1.553c-2.803-3.872-6.198-6.198-10.683-7.32l-.156-.04-10.675 10.674zm-5.383-.16L23.687 35.88l-.555-.087c-1.845-.29-3.922-.43-6.347-.43H.068v39.015L12.86 61.584zm76.182-11.733h-1.79L76.634 45.442a22.71 22.71 0 00-12.312-9.768L52.871 47.057a9 9 0 014.238-1.076c3.799 0 7.092 2.39 8.748 5.893h10.776l.016 10.548H65.715a10.92 10.92 0 01-2.18 2.948l.1-.032L50.54 78.477c2.108.641 4.346.988 6.667.988 8.86 0 16.517-5.04 20.25-12.376.002.009 11.586-11.482 11.586-11.482zM53.994 67.462l-8.705 8.653A22.68 22.68 0 0047.71 77.4l9.369-9.374a8.944 8.944 0 01-3.086-.565zm59.938-5.653l-.008-26.836h-3.103l-9.3 9.251v16.501c0 5.89-3.184 7.194-6.336 7.18-.343-.001-.684-.019-1.023-.052l-9.224 9.152c2.571 1.47 5.93 2.433 10.343 2.433 18.928 0 18.651-17.629 18.651-17.629zm-24.784.675l-9.515 9.456a15.231 15.231 0 004.588 4.62l8.943-8.87c-1.964-.458-3.605-1.798-4.016-5.206zm12.373-27.511v8.094l8.138-8.094zM89.04 61.019v-3.963L77.745 68.29a18.554 18.554 0 001.445 3.227l9.875-9.812c-.01-.225-.022-.445-.022-.686zm-41.713-2.486c-.062-.5-.105-1.008-.105-1.528 0-2.145.558-4.14 1.508-5.833l-10.49 10.426V60.44l25.197-25.036a22.809 22.809 0 00-6.232-.869 22.71 22.71 0 00-19.961 11.786l-.007-.027c-.01.02-.022.037-.033.056l-9.997 9.983.005.125c.01.274.017.542.017.797 0 6.818-3.043 10.275-9.043 10.275h-2.192L4.472 79.034h13.1c10.004 0 17.033-3.827 20.33-11.07l.86-.86.001-.002zm.808 3.079l-8.972 9a22.726 22.726 0 005.414 5.051l8.6-8.545c-2.23-1.08-4.026-3.05-5.042-5.506zm37.648-26.64l-9.148 9.015.002-9.014z" fill="#006759" fill-rule="evenodd"/></svg>