<svg width="1035" height="1034" xmlns="http://www.w3.org/2000/svg" xmlns:xlink="http://www.w3.org/1999/xlink"><defs><path d="M512.039 1024C230.036 1024 .333 794.548.082 512.461c-.084-136.734 53.053-265.35 149.62-362.169C246.353 53.474 374.887.17 511.62.002c282.506 0 512.209 229.536 512.46 511.539.251 282.338-229.285 512.208-511.54 512.46h-.501z" id="prefix__a"/><path d="M.32.651v127.53c0 51.463 41.674 93.22 93.22 93.22 51.548 0 93.305-41.674 93.305-93.22V.65H.32zm15.147 149.202l11.966-20.334 11.883 20.334H15.467zm38.995 0l-19.497-33.89 9.288-15.481 28.2 49.371h-17.99zm33.472 0L51.617 87.26l9.205-15.48 44.602 78.073h-17.49zm33.222 0L68.269 58.558l8.87-14.979 60.836 106.274h-16.82zm32.551 0L84.671 30.107l9.037-15.314 77.572 135.06h-17.573z" id="prefix__c"/><path d="M32.55 126.104h14.477c23.598 0 26.61-13.974 26.61-50.208 0-36.317-3.012-50.208-26.61-50.208H32.55v100.416zM52.8.416c40.502 0 53.054 21.422 53.054 75.898 0 54.393-12.552 75.899-53.137 75.899H.752V.416H52.8zm69.623 0h82.007v25.69h-49.957v32.468h45.94v26.443h-45.94v40.418h49.957v26.778h-82.007V.416zm169.62 91.63l-15.23-62.76-15.982 62.76h31.212zm6.36 26.443h-44.1l-8.033 33.724h-31.798L257.316.416h40.418l42.175 151.797h-33.305l-8.2-33.724zM349.867.416h31.63v65.94L420.996.416h33.054L410.2 70.206l43.849 82.007h-36.736l-35.815-73.807v73.807h-31.631V.416zm118.24 0h30.71v151.797h-30.71V.416zm78.66 52.384v99.413H519.32V.333h38.158l36.652 93.47V.334h27.782v151.88h-34.728L546.767 52.8z" id="prefix__e"/><path d="M46.102 51.746V3.212c0-.502.335-.837 1.088-1.172.753-.334 1.674-.585 2.762-.753a22.008 22.008 0 013.263-.502c1.088-.167 1.925-.167 2.51-.167 1.005 0 1.758.335 2.344 1.004.585.67.92 1.423.92 2.176v48.618c0 5.272-.586 9.707-1.757 13.222-1.172 3.598-2.929 6.443-5.356 8.702-2.343 2.176-5.355 3.766-8.954 4.686-3.598.92-7.865 1.423-12.719 1.423h-.837c-4.77 0-8.87-.502-12.468-1.423-3.515-.92-6.444-2.51-8.87-4.686-2.343-2.26-4.1-5.104-5.272-8.703C1.584 62.123.999 57.688.999 52.416V3.212c0-.502.334-.837 1.087-1.172.754-.334 1.674-.585 2.678-.753A20.439 20.439 0 018.028.785C9.116.618 9.952.618 10.622.618c.837 0 1.59.335 2.26 1.004.669.67 1.003 1.423 1.003 2.176v47.948c0 3.097.168 5.69.67 7.866.502 2.26 1.255 4.017 2.51 5.356 1.172 1.339 2.762 2.343 4.77 3.013 2.008.669 4.519 1.004 7.531 1.004h.837c3.096 0 5.607-.335 7.699-1.004 2.008-.67 3.681-1.674 4.853-3.013 1.255-1.339 2.092-3.096 2.594-5.356.502-2.175.753-4.77.753-7.866z" id="prefix__g"/><path d="M48.44 56.6V2.626c0-.418.418-.753 1.171-1.004.837-.251 1.758-.419 2.845-.586C53.461.87 54.548.786 55.72.701c1.088-.083 1.925-.083 2.594-.083 1.841 0 2.845 1.088 2.845 3.18v73.89c0 .836-.418 1.506-1.088 2.008-.67.502-1.422.753-2.175.753-.586 0-1.34 0-2.343-.084-.92 0-1.925-.083-2.846-.334-1.004-.168-1.84-.335-2.677-.586-.754-.251-1.34-.586-1.59-1.004L13.545 24.634V77.52c0 .92-.335 1.59-1.004 2.092-.67.586-1.423.837-2.26.837-.669 0-1.506-.084-2.594-.084-1.171-.083-2.175-.167-3.18-.334-1.004-.168-1.924-.419-2.677-.754-.753-.25-1.088-.669-1.088-1.087V2.877c0-.418.335-.837 1.088-1.171.753-.335 1.673-.502 2.678-.67C5.511.87 6.516.786 7.604.701 8.69.618 9.528.618 10.198.618c.753 0 1.422.25 2.008.67.502.501.92 1.003 1.339 1.59L48.44 56.6z" id="prefix__i"/><path d="M13.715 77.52c0 .92-.251 1.59-.92 2.092-.67.586-1.423.837-2.344.837-.669 0-1.506-.084-2.594-.084-1.088-.083-2.175-.167-3.18-.334-1.004-.168-1.924-.419-2.677-.754-.753-.25-1.172-.669-1.172-1.087V2.877c0-.418.419-.837 1.172-1.171.753-.335 1.673-.502 2.678-.67C5.681.87 6.769.786 7.857.701 8.944.618 9.781.618 10.45.618c.921 0 1.674.25 2.343.837.67.585.921 1.255.921 2.092V77.52z" id="prefix__k"/><path d="M32.995 58.525L49.228 2.877c1.005-1.004 2.176-1.673 3.515-1.924C54.082.7 55.588.618 57.345.618c.67 0 1.423 0 2.176.083.753.084 1.423.252 1.925.503.586.25.92.585 1.171 1.087.251.419.251 1.088 0 2.009L37.764 78.692c-.167.585-.502 1.004-1.171 1.339-.586.25-1.172.418-1.841.418-2.343 0-4.352-.167-5.942-.418-1.673-.252-2.594-.586-3.012-1.172L.861 4.299c-.167-.752-.167-1.338 0-1.84.251-.419.586-.837 1.004-1.088.419-.335.92-.502 1.423-.586C3.874.618 4.292.618 4.627.618c1.088 0 2.176 0 3.347.083 1.088.084 2.092.168 3.012.419.921.167 1.758.418 2.427.753.586.418 1.004.837 1.255 1.423l16.57 55.229c.25.836.418 1.757.585 2.761.084.92.167 1.841.335 2.594.083-.753.167-1.673.25-2.594.168-1.004.335-1.925.587-2.761z" id="prefix__m"/><path d="M.764 76.018V3.551c0-.92.334-1.59.92-2.092a4.283 4.283 0 012.343-.67h43.096c.836 0 1.506.335 2.008.92.586.67.837 1.423.837 2.176 0 .586-.084 1.34-.084 2.344-.084.92-.251 1.924-.335 2.761-.167.92-.418 1.674-.67 2.343-.25.67-.669.92-1.087.92H13.65V33.09h29.456c.67 0 1.339.335 1.84.92.587.67.838 1.34.838 2.092 0 .586-.084 1.34-.168 2.344 0 1.004-.167 1.924-.25 2.845-.168.92-.42 1.757-.67 2.343-.335.67-.67 1.004-1.088 1.004H13.65v22.008h33.473c.836 0 1.506.335 2.008.92.586.586.837 1.34.837 2.176 0 .586-.084 1.339-.084 2.26-.084 1.004-.251 1.924-.335 2.845-.167.92-.418 1.673-.67 2.343-.25.669-.669 1.004-1.087 1.004H5.533c-1.004 0-2.008-.251-3.096-.753-1.171-.419-1.673-.92-1.673-1.423z" id="prefix__o"/><path d="M.21 77.19V3.55c0-.752.335-1.422 1.004-1.924C1.8 1.04 2.637.79 3.557.79H27.24c4.937 0 9.121.335 12.636 1.088 3.43.67 6.276 1.925 8.535 3.766 2.176 1.757 3.766 4.184 4.77 7.113 1.004 3.012 1.506 6.778 1.506 11.38v2.343c0 3.347-.251 6.276-.753 8.787-.586 2.51-1.423 4.686-2.594 6.443-1.088 1.841-2.594 3.264-4.519 4.351-1.925 1.005-4.184 1.841-6.778 2.427l14.895 25.774c.753 1.422 1.172 2.427 1.172 3.18 0 .418-.168.753-.586 1.004-.335.335-.753.502-1.172.67a3.468 3.468 0 01-1.339.25c-.418.084-.753.084-1.004.084-.586 0-1.422-.084-2.427-.084-1.004-.083-2.008-.25-3.012-.418-1.088-.168-2.008-.419-2.761-.753-.837-.419-1.423-.92-1.758-1.507L26.235 49.66H13.013v27.029c0 .836-.335 1.506-1.004 2.008-.586.502-1.339.753-2.26.753-.585 0-1.506-.084-2.51-.084-1.088-.083-2.175-.167-3.18-.334-1.088-.168-1.924-.419-2.677-.754C.628 78.027.21 77.608.21 77.19zm27.698-64.936H13.013v25.94h14.895c3.013 0 5.356-.167 7.113-.502 1.674-.334 3.096-.92 4.017-1.757 1.004-.837 1.673-2.092 1.924-3.515.335-1.506.502-3.514.502-5.94v-2.344c0-2.427-.167-4.435-.502-6.025-.25-1.506-.92-2.678-1.924-3.598-.92-.837-2.343-1.423-4.017-1.757-1.757-.335-4.1-.502-7.113-.502z" id="prefix__q"/><path d="M3.677 67.227c.502.168 1.423.335 2.594.67 1.172.25 2.51.586 4.1.837 1.507.25 3.18.502 5.022.753 1.84.25 3.681.335 5.523.335 2.008 0 3.933-.168 5.773-.503 1.841-.334 3.431-.836 4.938-1.59 1.422-.753 2.51-1.757 3.43-3.012.837-1.255 1.256-2.845 1.256-4.686 0-2.594-.837-4.77-2.51-6.527-1.674-1.841-3.766-3.515-6.36-5.105a121.49 121.49 0 00-8.285-4.77c-2.929-1.59-5.69-3.43-8.284-5.606-2.51-2.092-4.603-4.603-6.276-7.448-1.757-2.928-2.594-6.443-2.594-10.627 0-3.515.67-6.444 1.924-8.954 1.256-2.427 3.013-4.351 5.189-5.941 2.259-1.506 4.853-2.678 7.95-3.347C20.161.953 23.592.618 27.274.618c.837 0 2.009 0 3.599.083 1.59.084 3.347.168 5.104.419 1.841.167 3.598.418 5.355.67 1.758.25 3.18.669 4.185 1.17 1.004.42 1.673.921 1.84 1.423.252.503.252 1.34.168 2.427-.168 1.925-.586 3.431-1.255 4.686-.586 1.255-1.507 1.758-2.678 1.59-1.757-.335-3.766-.753-6.109-1.088a52.458 52.458 0 00-7.698-.585c-4.435 0-8.117.669-10.879 2.008-2.761 1.255-4.184 3.43-4.184 6.443 0 2.343.837 4.352 2.51 6.025 1.674 1.674 3.766 3.348 6.36 4.854a288.15 288.15 0 008.285 4.77c2.928 1.59 5.69 3.514 8.284 5.69 2.51 2.175 4.602 4.77 6.276 7.782 1.757 3.096 2.594 6.778 2.594 11.13 0 4.1-.837 7.447-2.343 10.125s-3.598 4.77-6.109 6.192c-2.594 1.507-5.523 2.594-8.786 3.18-3.347.586-6.862.837-10.376.837-1.674 0-3.431-.084-5.189-.167a56.162 56.162 0 01-5.271-.502 39.443 39.443 0 01-4.854-.754 27.596 27.596 0 01-3.933-.92C1.083 77.688.414 77.353.246 76.85c-.25-.502-.25-1.255-.167-2.427.251-2.092.67-3.85 1.172-5.356.585-1.422 1.422-2.092 2.426-1.84z" id="prefix__s"/><path d="M13.157 77.52c0 .92-.335 1.59-.92 2.092-.67.586-1.423.837-2.343.837-.67 0-1.507-.084-2.595-.084-1.087-.083-2.175-.167-3.18-.334-1.087-.168-1.924-.419-2.677-.754C.689 79.027.27 78.608.27 78.19V2.877c0-.418.419-.837 1.172-1.171.753-.335 1.59-.502 2.678-.67C5.124.87 6.212.786 7.3.701 8.386.618 9.223.618 9.893.618c.92 0 1.673.25 2.343.837.585.585.92 1.255.92 2.092V77.52z" id="prefix__u"/><path d="M35.947 12.42v64.1c0 .92-.335 1.59-1.004 2.092-.67.586-1.506.837-2.343.837-.67 0-1.507-.084-2.594-.084-1.172-.083-2.176-.167-3.18-.334-1.004-.168-1.925-.419-2.678-.754-.753-.25-1.088-.669-1.088-1.087V12.42H3.312a2.546 2.546 0 01-2.009-.92c-.585-.67-.836-1.338-.836-2.259 0-.502.083-1.255.083-2.26.084-.92.251-1.84.335-2.76.167-.921.418-1.674.67-2.344.25-.67.669-1.004 1.087-1.004h52.97c.753 0 1.422.335 2.008.92.502.586.753 1.34.753 2.26 0 .502 0 1.339-.083 2.26-.084 1.003-.168 1.924-.335 2.76a6.417 6.417 0 01-.67 2.344c-.25.67-.585 1.004-1.004 1.004H35.947z" id="prefix__w"/><path d="M37.314 50.826V77.52c0 .92-.335 1.59-1.004 2.092-.67.586-1.423.837-2.343.837-.67 0-1.506-.084-2.51-.084-1.088-.083-2.093-.167-3.18-.334-1.005-.168-1.925-.419-2.678-.754-.753-.25-1.088-.669-1.088-1.087V50.826L1.08 5.136C.243 3.546.16 2.375.745 1.706 1.33.953 2.419.618 4.093.618h3.012c1.088.083 2.009.167 2.93.335.92.083 1.673.334 2.342.502.586.25 1.088.502 1.255 1.004l17.239 35.145L48.025 2.543c.251-.418.67-.753 1.339-1.004a7.369 7.369 0 012.26-.586c.92-.167 1.84-.25 2.928-.334h3.013c1.673 0 2.761.335 3.347 1.004.502.67.335 1.84-.419 3.514l-23.179 45.69z" id="prefix__y"/></defs><g fill="none" fill-rule="evenodd"><g transform="translate(5 5)"><mask id="prefix__b" fill="#fff"><use xlink:href="#prefix__a"/></mask><path fill="#FFF" mask="url(#prefix__b)" d="M-4.918 1029h1033.999V-4.998H-4.918z"/></g><path d="M517.039 1029C235.036 1029 5.333 799.548 5.082 517.461c-.084-136.734 53.053-265.35 149.62-362.169C251.353 58.474 379.887 5.17 516.62 5.002c282.506 0 512.209 229.536 512.46 511.539.25 282.338-229.285 512.208-511.54 512.459h-.501 0z" stroke="#000" stroke-width="10"/><g transform="translate(424 201)"><mask id="prefix__d" fill="#fff"><use xlink:href="#prefix__c"/></mask><path fill="#131718" mask="url(#prefix__d)" d="M-4.679 226.4h196.524V-4.349H-4.679z"/></g><g transform="translate(206 466)"><mask id="prefix__f" fill="#fff"><use xlink:href="#prefix__e"/></mask><path fill="#131718" mask="url(#prefix__f)" d="M-4.248 157.213h631.16V-4.668H-4.248z"/></g><g transform="translate(205 655)"><mask id="prefix__h" fill="#fff"><use xlink:href="#prefix__g"/></mask><path fill="#131718" mask="url(#prefix__h)" d="M-4.002 85.449h67.991V-4.382H-4.002z"/></g><g transform="translate(284 655)"><mask id="prefix__j" fill="#fff"><use xlink:href="#prefix__i"/></mask><path fill="#131718" mask="url(#prefix__j)" d="M-4.258 85.449h70.417V-4.382H-4.258z"/></g><g transform="translate(365 655)"><mask id="prefix__l" fill="#fff"><use xlink:href="#prefix__k"/></mask><path fill="#131718" mask="url(#prefix__l)" d="M-4.172 85.449h22.887V-4.382H-4.172z"/></g><g transform="translate(393 655)"><mask id="prefix__n" fill="#fff"><use xlink:href="#prefix__m"/></mask><path fill="#131718" mask="url(#prefix__n)" d="M-4.264 85.449h72.07V-4.382h-72.07z"/></g><g transform="translate(470 656)"><mask id="prefix__p" fill="#fff"><use xlink:href="#prefix__o"/></mask><path fill="#131718" mask="url(#prefix__p)" d="M-4.236 83.194h59.204V-4.211H-4.236z"/></g><g transform="translate(538 656)"><mask id="prefix__r" fill="#fff"><use xlink:href="#prefix__q"/></mask><path fill="#131718" mask="url(#prefix__r)" d="M-4.79 84.449h65.899v-88.66H-4.79z"/></g><g transform="translate(607 655)"><mask id="prefix__t" fill="#fff"><use xlink:href="#prefix__s"/></mask><path fill="#131718" mask="url(#prefix__t)" d="M-4.971 85.449h59.003V-4.382H-4.971z"/></g><g transform="translate(673 655)"><mask id="prefix__v" fill="#fff"><use xlink:href="#prefix__u"/></mask><path fill="#131718" mask="url(#prefix__v)" d="M-4.73 85.449h22.887V-4.382H-4.73z"/></g><g transform="translate(700 656)"><mask id="prefix__x" fill="#fff"><use xlink:href="#prefix__w"/></mask><path fill="#131718" mask="url(#prefix__x)" d="M-4.534 84.449h67.907V-4.127H-4.534z"/></g><g transform="translate(767 655)"><mask id="prefix__z" fill="#fff"><use xlink:href="#prefix__y"/></mask><path fill="#131718" mask="url(#prefix__z)" d="M-4.632 85.449h70.831V-4.382H-4.632z"/></g></g></svg>
