<svg xmlns="http://www.w3.org/2000/svg" viewBox="0 0 1035 1034"><mask id="a" fill="#fff"><path d="M512 1024A513 513 0 0 1 0 513a509 509 0 0 1 150-363A509 509 0 0 1 512 0a513 513 0 0 1 512 512 513 513 0 0 1-511 512z"/></mask><mask id="b" fill="#fff"><path d="M0 1v127a93 93 0 1 0 187 0V1zm16 149 12-21 11 21H16zm39 0-20-34 9-16 28 50zm33 0L52 87l9-15 44 78H88zm33 0L68 59l9-15 61 106zm33 0L85 30l9-15 77 135h-17z"/></mask><mask id="c" fill="#fff"><path d="M33 126h14c24 0 27-14 27-50s-3-50-27-50H32v100zM53 0c40 0 53 22 53 76 0 55-13 76-53 76H1V0h52zm69 0h82v26h-50v33h46v26h-46v40h50v27h-82zm170 92-15-63-16 63zm6 26h-44l-8 34h-32L258 0h41l42 152h-33l-9-34zM350 0h31v66l40-66h33l-44 70 44 82h-37l-35-74v74h-32V0zm118 0h31v152h-31zm79 53v99h-28V0h38l37 94V0h28v152h-35l-40-99z"/></mask><mask id="d" fill="#fff"><path d="M46 52V3l1-1a11 11 0 0 1 3-1 22 22 0 0 1 3 0h3l2 1 1 2v48l-2 14a20 20 0 0 1-5 8 20 20 0 0 1-9 5l-13 1h-1a50 50 0 0 1-12-1 21 21 0 0 1-9-5 21 21 0 0 1-5-8L1 52V3l1-1 3-1a20 20 0 0 1 3 0h3l2 1a3 3 0 0 1 1 2v48l1 8a11 11 0 0 0 2 5l5 3 7 1h1l8-1a11 11 0 0 0 5-3l2-5 1-8z"/></mask><mask id="e" fill="#fff"><path d="M48 57V3l2-1 3-1h5c2 0 3 1 3 3v74l-1 2h-7l-3-1-2-1-34-53v53l-1 2a3 3 0 0 1-3 0H5l-3-1-1-1V3l1-1 3-1h7l2 2 35 54z"/></mask><mask id="f" fill="#fff"><path d="m14 78-1 2H5l-3-1-1-1V3l1-1 3-1h8l1 2v74z"/></mask><mask id="g" fill="#fff"><path d="M33 59 49 3l4-2a25 25 0 0 1 7 0h2l1 1v2L38 79a2 2 0 0 1-1 1 4 4 0 0 1-2 0 34 34 0 0 1-6 0l-3-1L1 4V3l1-2a3 3 0 0 1 1 0h2a46 46 0 0 1 6 0l2 1 2 1 16 56 1 2v3-3l1-2z"/></mask><mask id="h" fill="#fff"><path d="M1 76V4l1-3a4 4 0 0 1 2 0h43l2 1 1 2v2l-1 3v2l-1 1H14v21h29l2 1 1 2-1 2v5l-1 1H14v22h33l2 1 1 3v2l-1 3v2l-1 1H5l-3-1-1-1z"/></mask><mask id="i" fill="#fff"><path d="M0 77V4l1-2 3-1h23l13 1 8 4 5 7 2 11v3l-1 8c-1 3-1 5-3 7l-4 4a28 28 0 0 1-7 2l15 26a8 8 0 0 1 1 3v1l-2 1a4 4 0 0 1-1 0h-3a37 37 0 0 1-6-1 4 4 0 0 1-2-1L26 50H13v27l-1 2H4l-3-1-1-1zm28-65H13v26h22l4-2 2-4 1-6v-2a30 30 0 0 0-1-6 6 6 0 0 0-2-3 8 8 0 0 0-4-2l-7-1z"/></mask><mask id="j" fill="#fff"><path d="m4 67 2 1 4 1 5 1a41 41 0 0 0 12-1 18 18 0 0 0 5-1 10 10 0 0 0 3-3 8 8 0 0 0 1-5 9 9 0 0 0-2-6 29 29 0 0 0-7-6 122 122 0 0 0-8-4l-8-6-6-7c-2-3-3-7-3-11l2-9a17 17 0 0 1 5-6l8-3a43 43 0 0 1 14-1h5l5 1 4 1 2 2v2a12 12 0 0 1-1 5l-2 1-7-1a53 53 0 0 0-7 0c-5 0-8 0-11 2a7 7 0 0 0-4 6l2 6 7 5a288 288 0 0 0 8 5 47 47 0 0 1 8 5l6 8c2 3 3 7 3 11a18 18 0 0 1-8 16 27 27 0 0 1-9 4 60 60 0 0 1-11 0h-5a56 56 0 0 1-5 0 39 39 0 0 1-5-1 28 28 0 0 1-4-1l-2-1v-3l1-5 3-2z"/></mask><mask id="k" fill="#fff"><path d="m13 78-1 2H4l-3-1-1-1V3l1-1 3-1h8l1 2z"/></mask><mask id="l" fill="#fff"><path d="M36 12v65l-1 2h-8l-3-1-1-1V12H3a3 3 0 0 1-2-1 3 3 0 0 1 0-2V4l1-2 1-1h53l2 1 1 2-1 2v3a6 6 0 0 1-1 2l-1 1H36z"/></mask><mask id="m" fill="#fff"><path d="M37 51v26l-1 3h-8l-2-1-1-1V51L1 5V2l3-1h8l2 1 17 36L48 3l1-1a7 7 0 0 1 3-1h6l3 1-1 3z"/></mask><g fill="none"><path fill="#fff" d="M-5 1029h1034V-5H-5z" mask="url(#a)" transform="translate(5 5)"/><path stroke="#000" stroke-width="10" d="M517 1029A513 513 0 0 1 5 518a509 509 0 0 1 150-363A509 509 0 0 1 517 5a513 513 0 0 1 512 512 513 513 0 0 1-511 512z"/><g fill="#131718"><path d="M-5 226h197V-4H-5z" mask="url(#b)" transform="translate(424 201)"/><path d="M-4 157h631V-5H-4z" mask="url(#c)" transform="translate(206 466)"/><path d="M-4 85h68V-4H-4z" mask="url(#d)" transform="translate(205 655)"/><path d="M-4 85h70V-4H-4z" mask="url(#e)" transform="translate(284 655)"/><path d="M-4 85h23V-4H-4z" mask="url(#f)" transform="translate(365 655)"/><path d="M-4 85h72V-4H-4z" mask="url(#g)" transform="translate(393 655)"/><path d="M-4 83h59V-4H-4z" mask="url(#h)" transform="translate(470 656)"/><path d="M-5 84h66V-4H-5z" mask="url(#i)" transform="translate(538 656)"/><path d="M-5 85h59V-4H-5z" mask="url(#j)" transform="translate(607 655)"/><path d="M-5 85h23V-4H-5z" mask="url(#k)" transform="translate(673 655)"/><path d="M-4 84h67V-4H-5z" mask="url(#l)" transform="translate(700 656)"/><path d="M-5 85h71V-4H-5z" mask="url(#m)" transform="translate(767 655)"/></g></g></svg>
