<?xml version="1.0" encoding="UTF-8"?>
<svg width="1035px" height="1034px" viewBox="0 0 1035 1034" version="1.1" xmlns="http://www.w3.org/2000/svg" xmlns:xlink="http://www.w3.org/1999/xlink">
    <!-- Generator: Sketch 39.1 (31720) - http://www.bohemiancoding.com/sketch -->
    <title>deakin</title>
    <desc>Created with Sketch.</desc>
    <defs>
        <path d="M512.0389,1024.00007 C230.0356,1024.00007 0.332712,794.5482 0.08167,512.4613 C-0.00201,375.7274 53.1351,247.1105 149.7024,150.2921 C246.3533,53.4738 374.8866,0.169 511.6205,0.002 C794.1258,0.002 1023.829,229.5376 1024.08,511.5408 C1024.331,793.8787 794.7952,1023.74902 512.5409,1024.00007 L512.0389,1024.00007 L512.0389,1024.00007 Z" id="path-1"></path>
        <path d="M0.3209,0.6511 L0.3209,128.1802 C0.3209,179.6437 41.9938,221.4002 93.5409,221.4002 C145.0881,221.4002 186.8447,179.7274 186.8447,128.1802 L186.8447,0.6511 L0.3209,0.6511 L0.3209,0.6511 Z M15.4671,149.8534 L27.4334,129.5191 L39.316,149.8534 L15.4671,149.8534 L15.4671,149.8534 Z M54.4622,149.8534 L34.9646,115.9628 L44.2531,100.4819 L72.4535,149.8534 L54.4622,149.8534 L54.4622,149.8534 Z M87.9344,149.8534 L51.617,87.2604 L60.8219,71.7795 L105.4236,149.8534 L87.9344,149.8534 L87.9344,149.8534 Z M121.1555,149.8534 L68.2694,58.558 L77.1396,43.5792 L137.9753,149.8534 L121.1555,149.8534 L121.1555,149.8534 Z M153.7072,149.8534 L84.6708,30.1067 L93.7083,14.7931 L171.2801,149.8534 L153.7072,149.8534 L153.7072,149.8534 Z" id="path-3"></path>
        <path d="M32.5502,126.1043 L47.0269,126.1043 C70.6248,126.1043 73.6373,112.1296 73.6373,75.896 C73.6373,39.5786 70.6248,25.6877 47.0269,25.6877 L32.5502,25.6877 L32.5502,126.1043 L32.5502,126.1043 Z M52.8009,0.4162 C93.3022,0.4162 105.8543,21.8384 105.8543,76.3144 C105.8543,130.7067 93.3022,152.2126 52.7172,152.2126 L0.7516,152.2126 L0.7516,0.4162 L52.8009,0.4162 L52.8009,0.4162 Z M122.4231,0.4162 L204.4299,0.4162 L204.4299,26.1061 L154.4727,26.1061 L154.4727,58.5741 L200.4133,58.5741 L200.4133,85.0171 L154.4727,85.0171 L154.4727,125.4348 L204.4299,125.4348 L204.4299,152.2126 L122.4231,152.2126 L122.4231,0.4162 L122.4231,0.4162 Z M292.0434,92.0463 L276.8135,29.2859 L260.8306,92.0463 L292.0434,92.0463 L292.0434,92.0463 Z M298.4031,118.4893 L254.3035,118.4893 L246.2702,152.2126 L214.4716,152.2126 L257.316,0.4162 L297.7337,0.4162 L339.9086,152.2126 L306.6038,152.2126 L298.4031,118.4893 L298.4031,118.4893 Z M349.8666,0.4162 L381.4978,0.4162 L381.4978,66.3564 L420.995,0.4162 L454.0488,0.4162 L410.2002,70.2057 L454.0488,152.2126 L417.3131,152.2126 L381.4978,78.4064 L381.4978,152.2126 L349.8666,152.2126 L349.8666,0.4162 L349.8666,0.4162 Z M468.1071,0.4162 L498.8179,0.4162 L498.8179,152.2126 L468.1071,152.2126 L468.1071,0.4162 L468.1071,0.4162 Z M546.7668,52.8002 L546.7668,152.2126 L519.3196,152.2126 L519.3196,0.3325 L557.4779,0.3325 L594.1299,93.8036 L594.1299,0.3325 L621.9119,0.3325 L621.9119,152.2126 L587.1845,152.2126 L546.7668,52.8002 L546.7668,52.8002 Z" id="path-5"></path>
        <path d="M46.1023,51.7465 L46.1023,3.2118 C46.1023,2.7098 46.437,2.375 47.1901,2.0403 C47.9433,1.7056 48.8637,1.4546 49.9516,1.2872 C51.0394,1.0362 52.1273,0.8688 53.2151,0.7851 C54.303,0.6178 55.1398,0.6178 55.7255,0.6178 C56.7297,0.6178 57.4828,0.9525 58.0686,1.6219 C58.6544,2.2914 58.9891,3.0445 58.9891,3.7976 L58.9891,52.416 C58.9891,57.6878 58.4033,62.1229 57.2318,65.6375 C56.0603,69.2357 54.303,72.0809 51.8762,74.3403 C49.5332,76.5159 46.5207,78.1059 42.9224,79.0264 C39.3242,79.9468 35.0565,80.4489 30.203,80.4489 L29.3662,80.4489 C24.5964,80.4489 20.4961,79.9468 16.8978,79.0264 C13.3832,78.1059 10.4544,76.5159 8.0277,74.3403 C5.6846,72.0809 3.9273,69.2357 2.7558,65.6375 C1.5843,62.1229 0.9985,57.6878 0.9985,52.416 L0.9985,3.2118 C0.9985,2.7098 1.3332,2.375 2.0864,2.0403 C2.8395,1.7056 3.76,1.4546 4.7641,1.2872 C5.852,1.0362 6.8561,0.8688 8.0277,0.7851 C9.1155,0.6178 9.9523,0.6178 10.6218,0.6178 C11.4586,0.6178 12.2117,0.9525 12.8811,1.6219 C13.5506,2.2914 13.8853,3.0445 13.8853,3.7976 L13.8853,51.7465 C13.8853,54.8427 14.0527,57.4368 14.5547,59.6125 C15.0568,61.8719 15.81,63.6292 17.0652,64.968 C18.2367,66.3069 19.8266,67.3111 21.835,67.9805 C23.8433,68.65 26.3537,68.9847 29.3662,68.9847 L30.203,68.9847 C33.2992,68.9847 35.8096,68.65 37.9016,67.9805 C39.9099,67.3111 41.5835,66.3069 42.7551,64.968 C44.0103,63.6292 44.8471,61.8719 45.3492,59.6125 C45.8512,57.4368 46.1023,54.8427 46.1023,51.7465 L46.1023,51.7465 Z" id="path-7"></path>
        <path d="M48.4397,56.6 L48.4397,2.6261 C48.4397,2.2077 48.8581,1.873 49.6112,1.6219 C50.4481,1.3709 51.3685,1.2035 52.4564,1.0362 C53.4605,0.8688 54.5484,0.7851 55.7199,0.7014 C56.8078,0.6178 57.6446,0.6178 58.314,0.6178 C60.155,0.6178 61.1592,1.7056 61.1592,3.7976 L61.1592,77.6875 C61.1592,78.5243 60.7408,79.1937 60.0713,79.6958 C59.4019,80.1979 58.6487,80.4489 57.8956,80.4489 C57.3099,80.4489 56.5567,80.4489 55.5526,80.3653 C54.6321,80.3653 53.6279,80.2816 52.7074,80.0305 C51.7033,79.8632 50.8665,79.6958 50.0296,79.4448 C49.2765,79.1937 48.6908,78.859 48.4397,78.4406 L13.545,24.634 L13.545,77.5201 C13.545,78.4406 13.2102,79.11 12.5408,79.6121 C11.8713,80.1979 11.1182,80.4489 10.2814,80.4489 C9.612,80.4489 8.7752,80.3653 7.6873,80.3653 C6.5158,80.2816 5.5116,80.1979 4.5075,80.0305 C3.5033,79.8632 2.5828,79.6121 1.8297,79.2774 C1.0766,79.0264 0.7418,78.608 0.7418,78.1896 L0.7418,2.8771 C0.7418,2.4587 1.0766,2.0403 1.8297,1.7056 C2.5828,1.3709 3.5033,1.2035 4.5075,1.0362 C5.5116,0.8688 6.5158,0.7851 7.6036,0.7014 C8.6915,0.6178 9.5283,0.6178 10.1977,0.6178 C10.9509,0.6178 11.6203,0.8688 12.2061,1.2872 C12.7082,1.7893 13.1266,2.2914 13.545,2.8771 L48.4397,56.6 L48.4397,56.6 Z" id="path-9"></path>
        <path d="M13.715,77.5201 C13.715,78.4406 13.464,79.11 12.7945,79.6121 C12.1251,80.1979 11.372,80.4489 10.4515,80.4489 C9.782,80.4489 8.9452,80.3653 7.8574,80.3653 C6.7695,80.2816 5.6817,80.1979 4.6775,80.0305 C3.6734,79.8632 2.7529,79.6121 1.9998,79.2774 C1.2466,79.0264 0.8282,78.608 0.8282,78.1896 L0.8282,2.8771 C0.8282,2.4587 1.2466,2.0403 1.9998,1.7056 C2.7529,1.3709 3.6734,1.2035 4.6775,1.0362 C5.6817,0.8688 6.7695,0.7851 7.8574,0.7014 C8.9452,0.6178 9.782,0.6178 10.4515,0.6178 C11.372,0.6178 12.1251,0.8688 12.7945,1.4546 C13.464,2.0403 13.715,2.7098 13.715,3.5466 L13.715,77.5201 L13.715,77.5201 Z" id="path-11"></path>
        <path d="M32.9945,58.5246 L49.2285,2.8771 C50.2327,1.873 51.4042,1.2035 52.7431,0.9525 C54.082,0.7014 55.5882,0.6178 57.3455,0.6178 C58.015,0.6178 58.7681,0.6178 59.5212,0.7014 C60.2743,0.7851 60.9438,0.9525 61.4459,1.2035 C62.0316,1.4546 62.3664,1.7893 62.6174,2.2914 C62.8684,2.7098 62.8684,3.3792 62.6174,4.2997 L37.7643,78.6916 C37.5969,79.2774 37.2622,79.6958 36.5928,80.0305 C36.007,80.2816 35.4212,80.4489 34.7518,80.4489 C32.4087,80.4489 30.4004,80.2816 28.8105,80.0305 C27.1369,79.7795 26.2164,79.4448 25.798,78.859 L0.8612,4.2997 C0.6938,3.5466 0.6938,2.9608 0.8612,2.4587 C1.1122,2.0403 1.447,1.6219 1.8654,1.3709 C2.2838,1.0362 2.7858,0.8688 3.2879,0.7851 C3.8737,0.6178 4.2921,0.6178 4.6268,0.6178 C5.7147,0.6178 6.8025,0.6178 7.974,0.7014 C9.0619,0.7851 10.066,0.8688 10.9865,1.1198 C11.907,1.2872 12.7438,1.5382 13.4133,1.873 C13.999,2.2914 14.4174,2.7098 14.6685,3.2955 L31.2372,58.5246 C31.4883,59.3614 31.6556,60.2819 31.823,61.2861 C31.9067,62.2066 31.9903,63.1271 32.1577,63.8802 C32.2414,63.1271 32.3251,62.2066 32.4087,61.2861 C32.5761,60.2819 32.7435,59.3614 32.9945,58.5246 L32.9945,58.5246 Z" id="path-13"></path>
        <path d="M0.7636,76.018 L0.7636,3.5507 C0.7636,2.6302 1.0983,1.9608 1.684,1.4587 C2.3535,1.0403 3.1066,0.7893 4.0271,0.7893 L47.1225,0.7893 C47.9594,0.7893 48.6288,1.124 49.1309,1.7098 C49.7166,2.3792 49.9677,3.1323 49.9677,3.8855 C49.9677,4.4712 49.884,5.2243 49.884,6.2285 C49.8003,7.149 49.633,8.1532 49.5493,8.99 C49.3819,9.9104 49.1309,10.6636 48.8798,11.333 C48.6288,12.0025 48.2104,12.2535 47.792,12.2535 L13.6504,12.2535 L13.6504,33.0899 L43.1059,33.0899 C43.7753,33.0899 44.4448,33.4247 44.9469,34.0104 C45.5326,34.6799 45.7837,35.3493 45.7837,36.1024 C45.7837,36.6882 45.7,37.4413 45.6163,38.4455 C45.6163,39.4497 45.4489,40.3701 45.3653,41.2906 C45.1979,42.2111 44.9469,43.0479 44.6958,43.6337 C44.3611,44.3031 44.0264,44.6379 43.608,44.6379 L13.6504,44.6379 L13.6504,66.6458 L47.1225,66.6458 C47.9594,66.6458 48.6288,66.9805 49.1309,67.5663 C49.7166,68.1521 49.9677,68.9052 49.9677,69.742 C49.9677,70.3278 49.884,71.0809 49.884,72.0014 C49.8003,73.0055 49.633,73.926 49.5493,74.8465 C49.3819,75.767 49.1309,76.5201 48.8798,77.1896 C48.6288,77.859 48.2104,78.1937 47.792,78.1937 L5.5333,78.1937 C4.5292,78.1937 3.525,77.9427 2.4372,77.4406 C1.2656,77.0222 0.7636,76.5201 0.7636,76.018 L0.7636,76.018 Z" id="path-15"></path>
        <path d="M0.21,77.1896 L0.21,3.5507 C0.21,2.7976 0.5448,2.1282 1.2142,1.6261 C1.8,1.0403 2.6368,0.7893 3.5572,0.7893 L27.2388,0.7893 C32.176,0.7893 36.36,1.124 39.8746,1.8771 C43.3055,2.5466 46.1506,3.8018 48.41,5.6427 C50.5857,7.4 52.1756,9.8268 53.1798,12.7556 C54.1839,15.7681 54.686,19.5337 54.686,24.1361 L54.686,26.4792 C54.686,29.8264 54.435,32.7552 53.9329,35.2656 C53.3471,37.7761 52.5103,39.9517 51.3388,41.709 C50.251,43.55 48.7447,44.9726 46.8201,46.0604 C44.8954,47.0646 42.636,47.9014 40.0419,48.4872 L54.9371,74.2607 C55.6902,75.6833 56.1086,76.6875 56.1086,77.4406 C56.1086,77.859 55.9412,78.1937 55.5228,78.4448 C55.1881,78.7795 54.7697,78.9468 54.3513,79.1142 C53.9329,79.2816 53.5145,79.3653 53.0124,79.3653 C52.594,79.4489 52.2593,79.4489 52.0082,79.4489 C51.4225,79.4489 50.5857,79.3653 49.5815,79.3653 C48.5773,79.2816 47.5732,79.1142 46.569,78.9468 C45.4812,78.7795 44.5607,78.5284 43.8076,78.1937 C42.9708,77.7753 42.385,77.2732 42.0503,76.6875 L26.2347,49.6587 L13.0131,49.6587 L13.0131,76.6875 C13.0131,77.5243 12.6784,78.1937 12.009,78.6958 C11.4232,79.1979 10.6701,79.4489 9.7496,79.4489 C9.1638,79.4489 8.2434,79.3653 7.2392,79.3653 C6.1513,79.2816 5.0635,79.1979 4.0593,79.0305 C2.9715,78.8632 2.1347,78.6121 1.3816,78.2774 C0.6284,78.0264 0.21,77.608 0.21,77.1896 L0.21,77.1896 Z M27.9083,12.2535 L13.0131,12.2535 L13.0131,38.1945 L27.9083,38.1945 C30.9208,38.1945 33.2638,38.0271 35.0211,37.6924 C36.6947,37.3576 38.1173,36.7719 39.0378,35.9351 C40.0419,35.0983 40.7114,33.8431 40.9624,32.4205 C41.2971,30.9143 41.4645,28.9059 41.4645,26.4792 L41.4645,24.1361 C41.4645,21.7094 41.2971,19.7011 40.9624,18.1111 C40.7114,16.6049 40.0419,15.4334 39.0378,14.5129 C38.1173,13.6761 36.6947,13.0903 35.0211,12.7556 C33.2638,12.4209 30.9208,12.2535 27.9083,12.2535 L27.9083,12.2535 Z" id="path-17"></path>
        <path d="M3.6773,67.2274 C4.1794,67.3948 5.0999,67.5621 6.2714,67.8969 C7.4429,68.1479 8.7818,68.4826 10.3718,68.7337 C11.878,68.9847 13.5516,69.2357 15.3926,69.4868 C17.2336,69.7378 19.0745,69.8215 20.9155,69.8215 C22.9238,69.8215 24.8485,69.6541 26.6895,69.3194 C28.5304,68.9847 30.1204,68.4826 31.6266,67.7295 C33.0492,66.9764 34.137,65.9722 35.0575,64.717 C35.8943,63.4618 36.3127,61.8719 36.3127,60.0309 C36.3127,57.4368 35.4759,55.2611 33.8023,53.5038 C32.1287,51.6628 30.0367,49.9892 27.4426,48.3993 C24.9322,46.8094 22.1707,45.2194 19.1582,43.6295 C16.2294,42.0396 13.4679,40.1986 10.8738,38.0229 C8.3634,35.9309 6.2714,33.4205 4.5978,30.5754 C2.8405,27.6465 2.0037,24.132 2.0037,19.9479 C2.0037,16.4334 2.6732,13.5045 3.9284,10.9941 C5.1836,8.5674 6.9409,6.6427 9.1166,5.0528 C11.3759,3.5466 13.97,2.375 17.0662,1.7056 C20.1624,0.9525 23.5933,0.6178 27.2752,0.6178 C28.112,0.6178 29.2836,0.6178 30.8735,0.7014 C32.4634,0.7851 34.2207,0.8688 35.978,1.1198 C37.819,1.2872 39.5763,1.5382 41.3335,1.7893 C43.0908,2.0403 44.5134,2.4587 45.5176,2.9608 C46.5217,3.3792 47.1912,3.8813 47.3585,4.3834 C47.6096,4.8855 47.6096,5.7223 47.5259,6.8101 C47.3585,8.7348 46.9401,10.241 46.2707,11.4962 C45.6849,12.7514 44.7644,13.2535 43.5929,13.0861 C41.8356,12.7514 39.8273,12.333 37.4842,11.9983 C35.2249,11.6636 32.6308,11.4125 29.7856,11.4125 C25.3506,11.4125 21.6686,12.082 18.9072,13.4209 C16.1457,14.6761 14.7232,16.8518 14.7232,19.8643 C14.7232,22.2073 15.56,24.2156 17.2336,25.8893 C18.9072,27.5629 20.9992,29.2365 23.5933,30.7427 C26.1037,32.249 28.8652,33.8389 31.8777,35.5125 C34.8065,37.1024 37.5679,39.0271 40.162,41.2028 C42.6724,43.3785 44.7644,45.9726 46.4381,48.9851 C48.1953,52.0812 49.0321,55.7632 49.0321,60.1146 C49.0321,64.2149 48.1953,67.5621 46.6891,70.2399 C45.1828,72.9177 43.0908,75.0097 40.5804,76.4323 C37.9863,77.9385 35.0575,79.0264 31.794,79.6121 C28.4468,80.1979 24.9322,80.4489 21.4176,80.4489 C19.744,80.4489 17.9867,80.3653 16.2294,80.2816 C14.4721,80.1979 12.7148,80.0305 10.9575,79.7795 C9.2002,79.6121 7.6103,79.3611 6.1041,79.0264 C4.5141,78.7753 3.2589,78.4406 2.1711,78.1059 C1.0832,77.6875 0.4138,77.3528 0.2464,76.8507 C-0.0046,76.3486 -0.0046,75.5955 0.0791,74.4239 C0.3301,72.3319 0.7485,70.5746 1.2506,69.0684 C1.8364,67.6458 2.6732,66.9764 3.6773,67.2274 L3.6773,67.2274 Z" id="path-19"></path>
        <path d="M13.1571,77.5201 C13.1571,78.4406 12.8224,79.11 12.2366,79.6121 C11.5672,80.1979 10.8141,80.4489 9.8936,80.4489 C9.2241,80.4489 8.3873,80.3653 7.2995,80.3653 C6.2116,80.2816 5.1238,80.1979 4.1196,80.0305 C3.0318,79.8632 2.195,79.6121 1.4419,79.2774 C0.6887,79.0264 0.2703,78.608 0.2703,78.1896 L0.2703,2.8771 C0.2703,2.4587 0.6887,2.0403 1.4419,1.7056 C2.195,1.3709 3.0318,1.2035 4.1196,1.0362 C5.1238,0.8688 6.2116,0.7851 7.2995,0.7014 C8.3873,0.6178 9.2241,0.6178 9.8936,0.6178 C10.8141,0.6178 11.5672,0.8688 12.2366,1.4546 C12.8224,2.0403 13.1571,2.7098 13.1571,3.5466 L13.1571,77.5201 L13.1571,77.5201 Z" id="path-21"></path>
        <path d="M35.947,12.4209 L35.947,76.5201 C35.947,77.4406 35.6123,78.11 34.9428,78.6121 C34.2734,79.1979 33.4366,79.4489 32.5998,79.4489 C31.9303,79.4489 31.0935,79.3653 30.0057,79.3653 C28.8342,79.2816 27.83,79.1979 26.8258,79.0305 C25.8217,78.8632 24.9012,78.6121 24.1481,78.2774 C23.3949,78.0264 23.0602,77.608 23.0602,77.1896 L23.0602,12.4209 L3.3116,12.4209 C2.4748,12.4209 1.8054,12.0861 1.3033,11.5004 C0.7175,10.8309 0.4665,10.1615 0.4665,9.241 C0.4665,8.7389 0.5502,7.9858 0.5502,6.9816 C0.6338,6.0611 0.8012,5.1407 0.8849,4.2202 C1.0522,3.2997 1.3033,2.5466 1.5543,1.8771 C1.8054,1.2077 2.2238,0.873 2.6422,0.873 L55.6119,0.873 C56.365,0.873 57.0345,1.2077 57.6203,1.7934 C58.1223,2.3792 58.3734,3.1323 58.3734,4.0528 C58.3734,4.5549 58.3734,5.3917 58.2897,6.3122 C58.206,7.3164 58.1223,8.2368 57.955,9.0736 C57.8713,9.9941 57.6203,10.7473 57.2855,11.4167 C57.0345,12.0861 56.6998,12.4209 56.2814,12.4209 L35.947,12.4209 L35.947,12.4209 Z" id="path-23"></path>
        <path d="M37.314,50.826 L37.314,77.5201 C37.314,78.4406 36.9792,79.11 36.3098,79.6121 C35.6404,80.1979 34.8872,80.4489 33.9667,80.4489 C33.2973,80.4489 32.4605,80.3653 31.4563,80.3653 C30.3685,80.2816 29.3643,80.1979 28.2765,80.0305 C27.2723,79.8632 26.3518,79.6121 25.5987,79.2774 C24.8456,79.0264 24.5109,78.608 24.5109,78.1896 L24.5109,50.826 L1.0803,5.1365 C0.2435,3.5466 0.1598,2.375 0.7456,1.7056 C1.3314,0.9525 2.4192,0.6178 4.0928,0.6178 L7.1053,0.6178 C8.1932,0.7014 9.1136,0.7851 10.0341,0.9525 C10.9546,1.0362 11.7077,1.2872 12.3772,1.4546 C12.9629,1.7056 13.465,1.9566 13.6324,2.4587 L30.8706,37.6045 L48.0251,2.5424 C48.2761,2.124 48.6945,1.7893 49.364,1.5382 C49.9497,1.2872 50.7028,1.0362 51.6233,0.9525 C52.5438,0.7851 53.4643,0.7014 54.5521,0.6178 L57.5646,0.6178 C59.2383,0.6178 60.3261,0.9525 60.9119,1.6219 C61.4139,2.2914 61.2466,3.4629 60.4935,5.1365 L37.314,50.826 L37.314,50.826 Z" id="path-25"></path>
    </defs>
    <g id="Page-1" stroke="none" stroke-width="1" fill="none" fill-rule="evenodd">
        <g id="deakin" transform="translate(5.000000, -5.000000)">
            <g id="Group-3" transform="translate(0.000000, 10.000000)">
                <mask id="mask-2" fill="white">
                    <use xlink:href="#path-1"></use>
                </mask>
                <g id="Clip-2"></g>
                <polygon id="Fill-1" fill="#FFFFFF" mask="url(#mask-2)" points="-4.91842838 1029.00007 1029.08057 1029.00007 1029.08057 -4.99793358 -4.91842838 -4.99793358"></polygon>
            </g>
            <path d="M512.038872,1034 C230.035572,1034 0.3327121,804.5482 0.0816706846,522.4613 C-0.0020098,385.7274 53.135102,257.1105 149.702372,160.2921 C246.353272,63.4738 374.886572,10.169 511.620472,10.002 C794.125772,10.002 1023.82857,239.5376 1024.07957,521.5408 C1024.33057,803.8787 794.795172,1033.749 512.540872,1034 L512.038872,1034 L512.038872,1034 Z" id="Stroke-4" stroke="#000000" stroke-width="10"></path>
            <g id="Group-7" transform="translate(419.000000, 206.000000)">
                <mask id="mask-4" fill="white">
                    <use xlink:href="#path-3"></use>
                </mask>
                <g id="Clip-6"></g>
                <polygon id="Fill-5" fill="#131718" mask="url(#mask-4)" points="-4.6791 226.4002 191.8447 226.4002 191.8447 -4.3489 -4.6791 -4.3489"></polygon>
            </g>
            <g id="Group-10" transform="translate(201.000000, 471.000000)">
                <mask id="mask-6" fill="white">
                    <use xlink:href="#path-5"></use>
                </mask>
                <g id="Clip-9"></g>
                <polygon id="Fill-8" fill="#131718" mask="url(#mask-6)" points="-4.2484 157.2126 626.9119 157.2126 626.9119 -4.6675 -4.2484 -4.6675"></polygon>
            </g>
            <g id="Group-13" transform="translate(200.000000, 660.000000)">
                <mask id="mask-8" fill="white">
                    <use xlink:href="#path-7"></use>
                </mask>
                <g id="Clip-12"></g>
                <polygon id="Fill-11" fill="#131718" mask="url(#mask-8)" points="-4.0015 85.4489 63.9891 85.4489 63.9891 -4.3822 -4.0015 -4.3822"></polygon>
            </g>
            <g id="Group-16" transform="translate(279.000000, 660.000000)">
                <mask id="mask-10" fill="white">
                    <use xlink:href="#path-9"></use>
                </mask>
                <g id="Clip-15"></g>
                <polygon id="Fill-14" fill="#131718" mask="url(#mask-10)" points="-4.2582 85.4489 66.1592 85.4489 66.1592 -4.3822 -4.2582 -4.3822"></polygon>
            </g>
            <g id="Group-19" transform="translate(360.000000, 660.000000)">
                <mask id="mask-12" fill="white">
                    <use xlink:href="#path-11"></use>
                </mask>
                <g id="Clip-18"></g>
                <polygon id="Fill-17" fill="#131718" mask="url(#mask-12)" points="-4.1718 85.4489 18.715 85.4489 18.715 -4.3822 -4.1718 -4.3822"></polygon>
            </g>
            <g id="Group-22" transform="translate(388.000000, 660.000000)">
                <mask id="mask-14" fill="white">
                    <use xlink:href="#path-13"></use>
                </mask>
                <g id="Clip-21"></g>
                <polygon id="Fill-20" fill="#131718" mask="url(#mask-14)" points="-4.2643 85.4489 67.8057 85.4489 67.8057 -4.3822 -4.2643 -4.3822"></polygon>
            </g>
            <g id="Group-25" transform="translate(465.000000, 661.000000)">
                <mask id="mask-16" fill="white">
                    <use xlink:href="#path-15"></use>
                </mask>
                <g id="Clip-24"></g>
                <polygon id="Fill-23" fill="#131718" mask="url(#mask-16)" points="-4.2364 83.1937 54.9677 83.1937 54.9677 -4.2107 -4.2364 -4.2107"></polygon>
            </g>
            <g id="Group-28" transform="translate(533.000000, 661.000000)">
                <mask id="mask-18" fill="white">
                    <use xlink:href="#path-17"></use>
                </mask>
                <g id="Clip-27"></g>
                <polygon id="Fill-26" fill="#131718" mask="url(#mask-18)" points="-4.79 84.4489 61.1086 84.4489 61.1086 -4.2107 -4.79 -4.2107"></polygon>
            </g>
            <g id="Group-31" transform="translate(602.000000, 660.000000)">
                <mask id="mask-20" fill="white">
                    <use xlink:href="#path-19"></use>
                </mask>
                <g id="Clip-30"></g>
                <polygon id="Fill-29" fill="#131718" mask="url(#mask-20)" points="-4.971 85.4489 54.03206 85.4489 54.03206 -4.3822 -4.971 -4.3822"></polygon>
            </g>
            <g id="Group-34" transform="translate(668.000000, 660.000000)">
                <mask id="mask-22" fill="white">
                    <use xlink:href="#path-21"></use>
                </mask>
                <g id="Clip-33"></g>
                <polygon id="Fill-32" fill="#131718" mask="url(#mask-22)" points="-4.7297 85.4489 18.1571 85.4489 18.1571 -4.3822 -4.7297 -4.3822"></polygon>
            </g>
            <g id="Group-37" transform="translate(695.000000, 661.000000)">
                <mask id="mask-24" fill="white">
                    <use xlink:href="#path-23"></use>
                </mask>
                <g id="Clip-36"></g>
                <polygon id="Fill-35" fill="#131718" mask="url(#mask-24)" points="-4.5335 84.4489 63.3734 84.4489 63.3734 -4.127 -4.5335 -4.127"></polygon>
            </g>
            <g id="Group-40" transform="translate(762.000000, 660.000000)">
                <mask id="mask-26" fill="white">
                    <use xlink:href="#path-25"></use>
                </mask>
                <g id="Clip-39"></g>
                <polygon id="Fill-38" fill="#131718" mask="url(#mask-26)" points="-4.6321 85.4489 66.19885 85.4489 66.19885 -4.3822 -4.6321 -4.3822"></polygon>
            </g>
        </g>
    </g>
</svg>