<svg xmlns="http://www.w3.org/2000/svg" viewBox="0 0 551.5 709"><path fill="#042b48" d="M384.6 362.6c-26.3 0-47.5-21.3-47.5-47.5 0-2.7.2-5.4.7-8.1l-113.7-65.5c-20.1 16.9-50.1 14.3-67-5.7s-14.3-50.1 5.7-67c20.1-16.9 50.1-14.3 67 5.7 7.2 8.6 11.2 19.4 11.2 30.6 0 3-.3 5.9-.9 8.9l113.3 65.2c19.8-17.2 49.8-15.1 67.1 4.7 17.2 19.8 15.1 49.8-4.7 67.1-8.6 7.4-19.7 11.6-31.2 11.6m-144.2 63.1c0 26.3-21.2 47.6-47.5 47.7-26.3 0-47.6-21.2-47.7-47.5 0-26.3 21.2-47.6 47.5-47.7 11.4 0 22.3 4 31 11.4l82.9-47.6c3.5 10.1 9 19.5 16.1 27.6l-83 47.7c.5 2.7.8 5.6.7 8.4m285.9-290.1L300.5 6.6c-15.4-8.8-34.2-8.8-49.6 0l-225.7 129C9.6 144.5 0 161 0 179v262.4c0 17.9 9.5 34.4 25 43.3L413.6 709l.1-159.3 112.8-65c15.5-8.9 25-25.5 25-43.3V179c-.1-18-9.7-34.5-25.2-43.4"/></svg>
