<?xml version="1.0" encoding="utf-8"?>
<!-- Generator: Adobe Illustrator 22.0.1, SVG Export Plug-In . SVG Version: 6.00 Build 0)  -->
<svg version="1.1" id="Layer_1" xmlns="http://www.w3.org/2000/svg" xmlns:xlink="http://www.w3.org/1999/xlink" x="0px" y="0px"
	 viewBox="0 0 551.5 709" style="enable-background:new 0 0 551.5 709;" xml:space="preserve">
<style type="text/css">
	.st0{fill:#042B48;}
</style>
<title>deepl-logo-freelogovectors.net</title>
<g id="g4211">
	<path id="path4213" class="st0" d="M384.6,362.6c-26.3,0-47.5-21.3-47.5-47.5c0,0,0,0,0,0c0-2.7,0.2-5.4,0.7-8.1l-113.7-65.5
		c-20.1,16.9-50.1,14.3-67-5.7s-14.3-50.1,5.7-67c20.1-16.9,50.1-14.3,67,5.7c7.2,8.6,11.2,19.4,11.2,30.6c0,3-0.3,5.9-0.9,8.9
		l113.3,65.2c19.8-17.2,49.8-15.1,67.1,4.7c17.2,19.8,15.1,49.8-4.7,67.1C407.2,358.4,396.1,362.6,384.6,362.6 M240.4,425.7
		c0,26.3-21.2,47.6-47.5,47.7c-26.3,0-47.6-21.2-47.7-47.5c0-26.3,21.2-47.6,47.5-47.7c11.4,0,22.3,4,31,11.4l82.9-47.6
		c3.5,10.1,9,19.5,16.1,27.6l-83,47.7C240.2,420,240.5,422.9,240.4,425.7 M526.3,135.6L300.5,6.6c-15.4-8.8-34.2-8.8-49.6,0
		l-225.7,129C9.6,144.5,0,161,0,179v262.4c0,17.9,9.5,34.4,25,43.3L413.6,709l0.1-159.3l112.8-65c15.5-8.9,25-25.5,25-43.3V179
		C551.4,161,541.8,144.5,526.3,135.6"/>
</g>
</svg>
