<svg xmlns="http://www.w3.org/2000/svg" width="114.84" height="114.84" fill="none"><path d="M114.84 19.91H90.01V34.4h24.83z" fill="#29ab70"/><path d="M114.84 20.18H90.01v14.49h24.83z" fill="url(#paint0_linear)" transform="translate(0 19.91)"/><path d="M114.84 40.35H90.01v14.49h24.83z" fill="url(#paint1_linear)" transform="translate(0 19.91)"/><path d="M24.83 60.53H0v14.49h24.83z" fill="url(#paint2_linear)" transform="translate(0 19.91)"/><path d="M54.83 60.53H30v14.49h24.83z" fill="url(#paint3_linear)" transform="translate(0 19.91)"/><path d="M84.84 60.53H60.01v14.49h24.83z" fill="url(#paint4_linear)" transform="translate(0 19.91)"/><path d="M114.84 60.53H90.01v14.49h24.83z" fill="url(#paint5_linear)" transform="translate(0 19.91)"/><path d="M84.84 40.35H60.01v14.49h24.83z" fill="url(#paint6_linear)" transform="translate(0 19.91)"/><path d="M54.83 40.35H30v14.49h24.83z" fill="url(#paint7_linear)" transform="translate(0 19.91)"/><path d="M54.83 20.18H30v14.49h24.83z" fill="url(#paint8_linear)" transform="translate(0 19.91)"/><defs id="defs1748"><linearGradient id="paint0_linear" x1="104.55" y1="37.09" x2="101.32" y2="18.79" gradientUnits="userSpaceOnUse" gradientTransform="translate(-.51 -.52)"><stop stop-color="#2C8C9D" id="stop1697"/><stop offset=".04" stop-color="#298E9A" id="stop1699"/><stop offset=".39" stop-color="#129C83" id="stop1701"/><stop offset=".72" stop-color="#05A475" id="stop1703"/><stop offset="1" stop-color="#00A770" id="stop1705"/></linearGradient><linearGradient id="paint1_linear" x1="90.149" y1="54.63" x2="115.72" y2="41.6" gradientUnits="userSpaceOnUse" gradientTransform="translate(-.51 -.52)"><stop stop-color="#2839BA" id="stop1708"/><stop offset="1" stop-color="#148CB3" id="stop1710"/></linearGradient><linearGradient id="paint2_linear" x1=".51" y1="68.29" x2="25.34" y2="68.29" gradientUnits="userSpaceOnUse" gradientTransform="translate(-.51 -.52)"><stop stop-color="#F6A500" id="stop1713"/><stop offset="1" stop-color="#F29100" id="stop1715"/></linearGradient><linearGradient id="paint3_linear" x1="30.51" y1="68.29" x2="55.34" y2="68.29" gradientUnits="userSpaceOnUse" gradientTransform="translate(-.51 -.52)"><stop stop-color="#F29100" id="stop1718"/><stop offset="1" stop-color="#D12F5F" id="stop1720"/></linearGradient><linearGradient id="paint4_linear" x1="60.52" y1="68.29" x2="85.35" y2="68.29" gradientUnits="userSpaceOnUse" gradientTransform="translate(-.51 -.52)"><stop stop-color="#B4197C" id="stop1723"/><stop offset="1" stop-color="#472EAD" id="stop1725"/></linearGradient><linearGradient id="paint5_linear" x1="90.52" y1="68.29" x2="115.35" y2="68.29" gradientUnits="userSpaceOnUse" gradientTransform="translate(-.51 -.52)"><stop stop-color="#2839BA" id="stop1728"/><stop offset="1" stop-color="#3072B7" id="stop1730"/></linearGradient><linearGradient id="paint6_linear" x1="59.54" y1="52.03" x2="86.32" y2="44.2" gradientUnits="userSpaceOnUse" gradientTransform="translate(-.51 -.52)"><stop stop-color="#B4197C" id="stop1733"/><stop offset="1" stop-color="#373AAC" id="stop1735"/></linearGradient><linearGradient id="paint7_linear" x1="29.64" y1="43.28" x2="56.22" y2="52.95" gradientUnits="userSpaceOnUse" gradientTransform="translate(-.51 -.52)"><stop stop-color="#FFCB00" id="stop1738"/><stop offset="1" stop-color="#D12F5F" id="stop1740"/></linearGradient><linearGradient id="paint8_linear" x1="32.61" y1="18.42" x2="53.24" y2="37.46" gradientUnits="userSpaceOnUse" gradientTransform="translate(-.51 -.52)"><stop stop-color="#FFCF00" id="stop1743"/><stop offset="1" stop-color="#ED743B" id="stop1745"/></linearGradient></defs></svg>