<svg xmlns="http://www.w3.org/2000/svg" width="114.84" height="114.84" fill="none"><path d="M114.84 19.91H90.01V34.4h24.83z" fill="#29ab70"/><path d="M114.84 20.18H90.01v14.49h24.83z" fill="url(#a)" transform="translate(0 19.91)"/><path d="M114.84 40.35H90.01v14.49h24.83z" fill="url(#b)" transform="translate(0 19.91)"/><path d="M24.83 60.53H0v14.49h24.83z" fill="url(#c)" transform="translate(0 19.91)"/><path d="M54.83 60.53H30v14.49h24.83z" fill="url(#d)" transform="translate(0 19.91)"/><path d="M84.84 60.53H60.01v14.49h24.83z" fill="url(#e)" transform="translate(0 19.91)"/><path d="M114.84 60.53H90.01v14.49h24.83z" fill="url(#f)" transform="translate(0 19.91)"/><path d="M84.84 40.35H60.01v14.49h24.83z" fill="url(#g)" transform="translate(0 19.91)"/><path d="M54.83 40.35H30v14.49h24.83z" fill="url(#h)" transform="translate(0 19.91)"/><path d="M54.83 20.18H30v14.49h24.83z" fill="url(#i)" transform="translate(0 19.91)"/><defs><linearGradient id="a" x1="104.55" y1="37.09" x2="101.32" y2="18.79" gradientUnits="userSpaceOnUse" gradientTransform="translate(-.51 -.52)"><stop stop-color="#2C8C9D"/><stop offset=".04" stop-color="#298E9A"/><stop offset=".39" stop-color="#129C83"/><stop offset=".72" stop-color="#05A475"/><stop offset="1" stop-color="#00A770"/></linearGradient><linearGradient id="b" x1="90.149" y1="54.63" x2="115.72" y2="41.6" gradientUnits="userSpaceOnUse" gradientTransform="translate(-.51 -.52)"><stop stop-color="#2839BA"/><stop offset="1" stop-color="#148CB3"/></linearGradient><linearGradient id="c" x1=".51" y1="68.29" x2="25.34" y2="68.29" gradientUnits="userSpaceOnUse" gradientTransform="translate(-.51 -.52)"><stop stop-color="#F6A500"/><stop offset="1" stop-color="#F29100"/></linearGradient><linearGradient id="d" x1="30.51" y1="68.29" x2="55.34" y2="68.29" gradientUnits="userSpaceOnUse" gradientTransform="translate(-.51 -.52)"><stop stop-color="#F29100"/><stop offset="1" stop-color="#D12F5F"/></linearGradient><linearGradient id="e" x1="60.52" y1="68.29" x2="85.35" y2="68.29" gradientUnits="userSpaceOnUse" gradientTransform="translate(-.51 -.52)"><stop stop-color="#B4197C"/><stop offset="1" stop-color="#472EAD"/></linearGradient><linearGradient id="f" x1="90.52" y1="68.29" x2="115.35" y2="68.29" gradientUnits="userSpaceOnUse" gradientTransform="translate(-.51 -.52)"><stop stop-color="#2839BA"/><stop offset="1" stop-color="#3072B7"/></linearGradient><linearGradient id="g" x1="59.54" y1="52.03" x2="86.32" y2="44.2" gradientUnits="userSpaceOnUse" gradientTransform="translate(-.51 -.52)"><stop stop-color="#B4197C"/><stop offset="1" stop-color="#373AAC"/></linearGradient><linearGradient id="h" x1="29.64" y1="43.28" x2="56.22" y2="52.95" gradientUnits="userSpaceOnUse" gradientTransform="translate(-.51 -.52)"><stop stop-color="#FFCB00"/><stop offset="1" stop-color="#D12F5F"/></linearGradient><linearGradient id="i" x1="32.61" y1="18.42" x2="53.24" y2="37.46" gradientUnits="userSpaceOnUse" gradientTransform="translate(-.51 -.52)"><stop stop-color="#FFCF00"/><stop offset="1" stop-color="#ED743B"/></linearGradient></defs></svg>