<svg xmlns="http://www.w3.org/2000/svg" width="297.684" height="297.684" viewBox="0 0 78.762 78.762"><path d="M78.762 37.992v2.155c-.49 4.849-1.847 8.828-4.311 11.703-2.427-1.732-4.873-3.442-7.238-5.236 6.514-9.376-.838-21.59-12.165-20.324-5.837.655-10.394 5.828-10.934 11.086-.818 7.967 3.934 12.456 10.318 14.32-.109-1.174-.404-2.162-.463-3.387 4.59 1.981 9.5 3.64 14.013 5.699-3.762 3.424-7.82 7.37-11.55 10.317-.125-1.261-.308-2.463-.616-3.542-5.496-.213-9.864-2.338-13.242-5.236-.628-.539-2.68-3.109-3.08-3.08-.152.01-1.086 1.358-1.386 1.696-3.228 3.653-8.086 6.8-14.63 7.238C10.549 62.268.88 52.776.075 41.537c-.478-6.66 1.397-10.764 4.159-14.782a248.111 248.111 0 017.238 5.235c-6.262 8.874.517 20.562 10.47 20.48 7.443-.065 12.84-5.92 12.782-12.934-.057-6.703-4.336-10.803-10.318-12.626-.207.755.483 2.676.308 3.388-4.686-1.833-9.253-3.782-14.013-5.543 3.71-3.474 7.758-7.436 11.55-10.318.293 1.042.332 2.338.615 3.388 7.884.38 12.38 4.148 16.477 8.314 4.366-6.967 15.952-11.456 25.868-7.39 7.413 3.035 12.875 10.26 13.552 19.243z" fill="#1976b8"/></svg>