<svg xmlns="http://www.w3.org/2000/svg" xmlns:xlink="http://www.w3.org/1999/xlink" height="310" width="310"><style>.E{clip-path:url(#I)}.F{fill:#1d1d1b}</style><g transform="translate(1.3 101.2)"><defs><path id="A" d="M0 0h307.4v107.6H0z"/></defs><clipPath id="I"><use xlink:href="#A"/></clipPath><path d="M76.6 28.8v18.3s0 1 .9 1.5c.8.6 1.9.6 1.9.6h2.2c6.3-.5 6.9-6.2 6.9-11.4 0-5-.8-10.6-6.2-11.1h-2.5c-.7 0-1.9 0-2.7.5-.3.3-.6.9-.5 1.6m-8.7-3.7h14.6c7.4.5 11.1 6.3 11 12.9-.1 7.4-4.5 13-13.8 13H67.9v-1.3h1.3c.9 0 1.5-.1 2.2-.8.6-.6.7-1.1.7-2.1V28.2s0-1-1.2-1.4c-.6-.2-2.2-.2-2.2-.2h-.8zm156.6 15 3.7-9.5 4 9.5zm-9.7 11.6v-1.3c1.3-.2 3.9-.7 4.8-3.3l9.1-21.6h2l9.3 22.3c1.1 2.7 2.4 2.4 4.2 2.5v1.3h-12.1v-1.2c1.2 0 2.9.1 3.3-1.2.2-.6 0-1.3-.6-2.8l-2.2-5.4H224l-1.9 4.8c-2.1 4.4 2.3 4.3 3.6 4.3v1.4h-10.9zm-82.1 23.1 3.6-9.3 4.1 9.3zM123 86.3V85c1.6-.1 4.3-1.2 5.5-4l8.2-20.7h2.1l9.2 22.2c1.1 2.7 2.5 2.4 4.4 2.5v1.3h-12v-1.2c1.2 0 2.9.1 3.3-1.2.2-.6 0-1.3-.6-2.8l-2.2-5.4h-8.8l-1.9 4.8c-2.1 4.6 3 4.3 4.3 4.3v1.4H123zm-14.3-.3c2.7 0 7.5.2 10.3-.8 2.7-.9 5-2.5 5-5.9.1-4.3-3.8-6.9-7.5-7.2V72c3.7-.6 6.6-1.4 6.6-5.3 0-5.8-6.7-6.4-11.5-6.3H99.8v1.4h2.1s1.2-.1 1.8.3c.5.3.4 1.5.4 1.5v19.1s.1 1.1-.3 1.6c-.5.6-1.9.6-1.9.6h-2V86zm.5-23.7c.7-.7 1.8-.5 2.9-.6 3.4.1 6.3.1 6 5.4-.2 3.4-3.3 3.6-6.2 3.5h-3.4v-5.8c0 .1-.1-1.7.7-2.5m-.7 10.3h3.6c5.4-.1 7.3 2.6 7.3 6.2 0 2.7-.5 5.9-6.1 5.9h-1.6s-1.9.2-2.7-.6c-.7-.7-.5-2.4-.5-2.4z" class="E F" fill-rule="evenodd"/><path d="M93.5 51.2V50h.9c.9 0 3.1-.1 3-2.7V29s.3-2.7-4.3-2.4v-1.1h22.2l.1 9.7h-1c0-.6-.7-5.2-2.8-6.8-1.5-1.2-3.4-1.3-5.3-1.3H104c-.9 0-2.6 0-2.4 1.9v7.9h1.4c1.6 0 2.7-.4 3.8-1.6 1.2-1.3 1.1-2.6 1.2-4.2h1.2v13.5h-1.4V44c-.2-4-1.6-5.6-4.2-5.7h-1.9v10s-.2 1.4 1.8 1.3h3.4c7.8.4 7.7-6.3 8.2-8.5h1.1l-.2 10.2H93.5zm44.3-2.4c-2 1.9-3.8 2.8-6.5 2.8-6.3 0-11.7-6-11.7-13.5s5.1-13.2 11.4-13.5c2.7-.1 4.9.8 6.6 2.5.5.5 1.2 1.6 2.2-1.8h1v10.1h-1c-.7-2.7-3.4-9.4-8.6-9.3-5.8.1-7.2 6.3-7.2 11.7 0 5.8 2.3 12.4 8.4 12.2 2.9-.1 5.1-1.2 5.2-5.1 0-2.7 0-4.6-1.1-5.3-.9-.5-1.6-.6-2.8-.7V38h12.6v1c-1.1.1-4.5.1-4.2 3.1v9.4h-1.5c0-.8.1-3.4-.8-3.7-.9-.2-2 1-2 1m11.2-4.9v-15s-.2-1.6-1.4-2c-.6-.2-2.2-.2-2.2-.2h-.8v-1.2h12.9v1.2c-1.5.1-4.7-.4-4.4 3v13.4c-.6 9.9 12.9 8.8 12.9.9V31.1c.1-1.3-.2-2.4-1.2-3.4-.9-.9-1.9-1-3.1-1v-1.2h10.8v1.2c-1.4-.1-2.5-.1-3.4.9-.9.9-1.1 2-1 3.2v10.3c.4 9.4-5.5 10.7-8.2 10.8-7 .3-11-2.7-10.9-8m28 6c1.4 1.3 4.2 2 7 2 5.1 0 9.2-2.8 9-8-.1-3.6-2.4-6.9-7.8-8.2-.9-.2-2.2-.6-3.2-.9-2.5-.7-5.4-1.1-5.4-4.1 0-2.7 2.3-4 5.1-4.2 5.2-.3 8.3 5.4 8.8 9.2h1l-.3-10.2h-.9s-.1 1.9-1 2.1c-.5.1-1.9-.8-1.9-.8-1.6-1.2-3.5-1.8-5.8-1.8-5.2 0-8.2 2.8-8.2 7 0 3.8 2.6 6 6.8 7.2.8.2 1.4.4 2.2.6 3 1 7.1 1.1 7.2 5.4 0 3.3-2.2 4.9-5.3 4.9-4.7.1-9.3-5.4-10.2-10.6H173v12h1s.2-2 1.1-2.3c.7-.1 1.9.7 1.9.7M199.9 49.9c1.4 1.3 4.2 2 7 2 5.1 0 9.2-2.8 9-8-.1-3.6-2.4-6.9-7.9-8.2-.9-.2-2.2-.6-3.2-.9-2.5-.7-5.4-1.1-5.4-4.1 0-2.7 2.3-4 5.1-4.2 5.2-.3 8.3 5.4 8.8 9.2h1l-.3-10.2h-.9s-.1 1.9-1 2.1c-.5.1-1.9-.8-1.9-.8-1.6-1.2-3.5-1.8-5.8-1.8-5.2 0-8.2 2.8-8.2 7 0 3.8 2.6 6 6.8 7.2.8.2 1.4.4 2.2.6 3 1 7.1 1.1 7.2 5.4 0 3.3-2.2 4.9-5.3 4.9-4.7.1-9.3-5.4-10.2-10.6h-1.1v12h1s.2-2 1.1-2.3c.8-.1 2 .7 2 .7m-47.3 11.6c3.9 0 4.2 1.3 4.2 4.8v14.4c-.4 3.7-2.2 4.2-3.8 4.3v1.4h10.3V85c-3.7.1-4.8-2.6-4.8-4.9v-14l14.6 20.2h1.7V67.2c0-3.8.9-5.1 4.5-5.7v-1.1h-10.9v1.3c3.3.3 4.6 1.8 4.6 5.6V79l-13-18.5h-7.4zm27.5 24.8h12.2v-1.1c-3.1-.1-4-.6-4-3.7v-5.3l3.8-3.8 6.3 10.7c.5 1.4-.4 2-2.9 1.9v1.2h13V85c-1.5-.2-3.1.5-5.4-2.7l-7.9-12.8 4.5-4.6c3.1-3.2 4.9-3.4 7.2-3.6v-1.2h-12.5l.1 1.2c3.5-.2 4.1 2.4 2.1 4.1l-8.3 8.1v-8.8c0-3.4 1.5-3.4 4.3-3.4l.1-1.2h-12.8v1.2c3.2.2 4.6.4 4.4 3.4v16.6c.2 3-1.3 3.4-4.1 3.6v1.4z" class="E F"/><path d="m1048.9 60.5-.1 12.4h-776l-2.8-5.7 6.9-13.9 3.5 7.2z" fill="#e1bb47" class="E"/><path d="M249.9 107.6H57.5L27.4 47h-731.9l.2-12.5H35L65.2 95h177.1l30.1-60.5h776.4V47H280z" fill="#1a2e50" class="E"/><path d="m263 53.4-20.3-40.9H64.9L34.7 72.9h-739V60.4l731.2.1L57.3 0h193.1L270 39.5z" fill="#e1bb47" class="E"/></g></svg>