<svg xmlns="http://www.w3.org/2000/svg" viewBox="0 0 310 310"><path fill-rule="evenodd" d="M77.9 130v18.3s0 1 .9 1.5c.8.6 1.9.6 1.9.6h2.2c6.3-.5 6.9-6.2 6.9-11.4 0-5-.8-10.6-6.2-11.1h-2.5c-.7 0-1.9 0-2.7.5a2 2 0 0 0-.5 1.6m-8.7-3.7h14.6c7.4.5 11.1 6.3 11 12.9-.1 7.4-4.5 13-13.8 13H69.2v-1.3h1.3c.9 0 1.5-.1 2.2-.8.6-.6.7-1.1.7-2.1v-18.6s0-1-1.2-1.4c-.6-.2-2.2-.2-2.2-.2h-.8zm156.6 15 3.7-9.5 4 9.5zm-9.7 11.6v-1.3c1.3-.2 3.9-.7 4.8-3.3l9.1-21.6h2l9.3 22.3c1.1 2.7 2.4 2.4 4.2 2.5v1.3h-12.1v-1.2c1.2 0 2.9.1 3.3-1.2.2-.6 0-1.3-.6-2.8l-2.2-5.4h-8.6l-1.9 4.8c-2.1 4.4 2.3 4.3 3.6 4.3v1.4h-10.9zM134 176l3.6-9.3 4.1 9.3zm-9.7 11.5v-1.3a6.7 6.7 0 0 0 5.5-4l8.2-20.7h2.1l9.2 22.2c1.1 2.7 2.5 2.4 4.4 2.5v1.3h-12v-1.2c1.2 0 2.9.1 3.3-1.2.2-.6 0-1.3-.6-2.8l-2.2-5.4h-8.8l-1.9 4.8c-2.1 4.6 3 4.3 4.3 4.3v1.4h-11.5zm-14.3-.3c2.7 0 7.5.2 10.3-.8 2.7-.9 5-2.5 5-5.9.1-4.3-3.8-6.9-7.5-7.2v-.1c3.7-.6 6.6-1.4 6.6-5.3 0-5.8-6.7-6.4-11.5-6.3h-11.8v1.4h2.1s1.2-.1 1.8.3c.5.3.4 1.5.4 1.5v19.1s.1 1.1-.3 1.6c-.5.6-1.9.6-1.9.6h-2v1.1zm.5-23.7c.7-.7 1.8-.5 2.9-.6 3.4.1 6.3.1 6 5.4-.2 3.4-3.3 3.6-6.2 3.5h-3.4V166c0 .1-.1-1.7.7-2.5m-.7 10.3h3.6c5.4-.1 7.3 2.6 7.3 6.2 0 2.7-.5 5.9-6.1 5.9H113s-1.9.2-2.7-.6c-.7-.7-.5-2.4-.5-2.4zm-15-21.4v-1.2h.9c.9 0 3.1-.1 3-2.7v-18.3s.3-2.7-4.3-2.4v-1.1h22.2l.1 9.7h-1c0-.6-.7-5.2-2.8-6.8-1.5-1.2-3.4-1.3-5.3-1.3h-2.3c-.9 0-2.6 0-2.4 1.9v7.9h1.4c1.6 0 2.7-.4 3.8-1.6 1.2-1.3 1.1-2.6 1.2-4.2h1.2v13.5h-1.4v-.6c-.2-4-1.6-5.6-4.2-5.7H103v10s-.2 1.4 1.8 1.3h3.4c7.8.4 7.7-6.3 8.2-8.5h1.1l-.2 10.2H94.8zm44.3-2.4a8.6 8.6 0 0 1-6.5 2.8c-6.3 0-11.7-6-11.7-13.5s5.1-13.2 11.4-13.5c2.7-.1 4.9.8 6.6 2.5.5.5 1.2 1.6 2.2-1.8h1v10.1h-1c-.7-2.7-3.4-9.4-8.6-9.3-5.8.1-7.2 6.3-7.2 11.7 0 5.8 2.3 12.4 8.4 12.2 2.9-.1 5.1-1.2 5.2-5.1 0-2.7 0-4.6-1.1-5.3-.9-.5-1.6-.6-2.8-.7v-.9h12.6v1c-1.1.1-4.5.1-4.2 3.1v9.4h-1.5c0-.8.1-3.4-.8-3.7-.9-.2-2 1-2 1m11.2-4.9v-15s-.2-1.6-1.4-2c-.6-.2-2.2-.2-2.2-.2h-.8v-1.2h12.9v1.2c-1.5.1-4.7-.4-4.4 3v13.4c-.6 9.9 12.9 8.8 12.9.9v-12.9a4 4 0 0 0-1.2-3.4c-.9-.9-1.9-1-3.1-1v-1.2h10.8v1.2c-1.4-.1-2.5-.1-3.4.9-.9.9-1.1 2-1 3.2v10.3c.4 9.4-5.5 10.7-8.2 10.8-7 .3-11-2.7-10.9-8m28 6c1.4 1.3 4.2 2 7 2 5.1 0 9.2-2.8 9-8-.1-3.6-2.4-6.9-7.8-8.2l-3.2-.9c-2.5-.7-5.4-1.1-5.4-4.1 0-2.7 2.3-4 5.1-4.2 5.2-.3 8.3 5.4 8.8 9.2h1l-.3-10.2h-.9s-.1 1.9-1 2.1c-.5.1-1.9-.8-1.9-.8a9.3 9.3 0 0 0-5.8-1.8c-5.2 0-8.2 2.8-8.2 7 0 3.8 2.6 6 6.8 7.2l2.2.6c3 1 7.1 1.1 7.2 5.4 0 3.3-2.2 4.9-5.3 4.9-4.7.1-9.3-5.4-10.2-10.6h-1.1v12h1s.2-2 1.1-2.3c.7-.1 1.9.7 1.9.7m22.9 0c1.4 1.3 4.2 2 7 2 5.1 0 9.2-2.8 9-8-.1-3.6-2.4-6.9-7.9-8.2l-3.2-.9c-2.5-.7-5.4-1.1-5.4-4.1 0-2.7 2.3-4 5.1-4.2 5.2-.3 8.3 5.4 8.8 9.2h1l-.3-10.2h-.9s-.1 1.9-1 2.1c-.5.1-1.9-.8-1.9-.8a9.3 9.3 0 0 0-5.8-1.8c-5.2 0-8.2 2.8-8.2 7 0 3.8 2.6 6 6.8 7.2l2.2.6c3 1 7.1 1.1 7.2 5.4 0 3.3-2.2 4.9-5.3 4.9-4.7.1-9.3-5.4-10.2-10.6h-1.1v12h1s.2-2 1.1-2.3c.8-.1 2 .7 2 .7m-47.3 11.6c3.9 0 4.2 1.3 4.2 4.8v14.4c-.4 3.7-2.2 4.2-3.8 4.3v1.4h10.3v-1.4c-3.7.1-4.8-2.6-4.8-4.9v-14l14.6 20.2h1.7v-19.1c0-3.8.9-5.1 4.5-5.7v-1.1h-10.9v1.3c3.3.3 4.6 1.8 4.6 5.6v11.7l-13-18.5h-7.4zm27.5 24.8h12.2v-1.1c-3.1-.1-4-.6-4-3.7v-5.3l3.8-3.8 6.3 10.7c.5 1.4-.4 2-2.9 1.9v1.2h13v-1.2c-1.5-.2-3.1.5-5.4-2.7l-7.9-12.8 4.5-4.6c3.1-3.2 4.9-3.4 7.2-3.6v-1.2h-12.5l.1 1.2c3.5-.2 4.1 2.4 2.1 4.1l-8.3 8.1v-8.8c0-3.4 1.5-3.4 4.3-3.4l.1-1.2h-12.8v1.2c3.2.2 4.6.4 4.4 3.4v16.6c.2 3-1.3 3.4-4.1 3.6v1.4z"/><path fill="#e1bb47" d="M310 161.7v12.4h-36l-2.8-5.7 6.9-13.9 3.5 7.2z"/><path fill="#1a2e50" d="M251.2 208.8H58.8l-30.1-60.6L0 148v-12h36l30.5 60.2h177.1l30.1-60.5h36.5l-.2 12.4-28.7.1Z"/><path fill="#e1bb47" d="M264.3 154.6 244 113.7H66.2L36 174.1 0 174v-12h28l30.6-60.8h193.1l19.6 39.5z"/></svg>