<svg xmlns="http://www.w3.org/2000/svg" style="background-color:#245194" viewBox="0 0 280 291"><path fill="#fff" d="M15.8 249.3c.8-2.8-1-3.5-2.1-3.5h-3.2c-.7 0-.8-.2-.7-.6l.4-1.7c.2-.4.3-.5 1.1-.5l5.2-.2 8.3-.2c10 0 19.6 1 25.5 6.8a16.5 16.5 0 0 1 5.3 12.8 26.1 26.1 0 0 1-13 23.2c-9.4 5.3-18.9 5-23.9 5l-8.1-.2c-7.4 0-9.4.2-10 .2s-.7-.2-.6-.7l.4-1.6a.6.6 0 0 1 .7-.5h1.5c1.8 0 4-.9 5.2-5.4zm1.5 33.4a15.8 15.8 0 0 0-.5 3c0 1.2 2.1 2 3.4 2A26 26 0 0 0 37 282a26.4 26.4 0 0 0 8.8-19.6 16.5 16.5 0 0 0-4.7-11.7 14.2 14.2 0 0 0-6-4.2 20.4 20.4 0 0 0-6.4-1c-1.1 0-2.4.2-2.6.9zm62.7.4a.5.5 0 0 1 .2.7c-1.3 2.6-6.6 7-13.5 7-4.8 0-8.2-2.9-8.2-7.8a24.2 24.2 0 0 1 8.5-18c3.5-3 7.6-5 11.8-5 3.8 0 5.4 2.3 5.4 5 0 4-2.3 6.8-6.4 9.1a25.2 25.2 0 0 1-10.3 3 14.3 14.3 0 0 0-.6 4.5c0 2.5 1.4 4.6 3.8 4.6a10.4 10.4 0 0 0 7.6-3.7c.2-.2.4-.3.6-.2zm-5.5-11.3a8.7 8.7 0 0 0 2.2-5.8c0-1-.3-2.3-1.9-2.3-2.7 0-5.7 6.4-6.7 11a10.6 10.6 0 0 0 6.4-2.9zm32.7-29.3c.7 0 .9.4.5 1.2l-14 39.5c-.7 2-.7 3 .7 3 1.7 0 4.1-2.5 5-3.4a.4.4 0 0 1 .7 0l.7.8a.6.6 0 0 1 0 .8c-.2.5-5.7 6.4-13.1 6.4a3.5 3.5 0 0 1-3-3c0-1.1 1.3-4.5 2-6.5l11-32c1-2.6.7-4.4-1.3-4.4h-2.1c-.5 0-.6-.3-.6-.6l.5-1.4c.1-.4.2-.5.7-.5zm27.6 17.3c.5 0 .7.3.6.8-1 3-4.4 12.3-5 14.7-.3 1.1-2.7 9-2.7 10a.8.8 0 0 0 .8 1c1.1 0 3.4-3.3 4-4 .3-.5.4-.5.6-.3l.9.5c.2.2.1.4 0 1-.8 1.3-4.7 7.3-11.2 7.3-2.1 0-2.9-1.1-2.9-2.2 0-1 .4-2.2 2.7-9.2l-.6-.3c-2.7 4.2-7.4 11.7-14 11.7-1.9 0-4.8-2.7-4.8-5.5 0-8.8 8.7-25.2 18.7-25.2a6.4 6.4 0 0 1 5.5 2.4l1.2-2a1.4 1.4 0 0 1 1.2-.7zm-21.6 25.4c2 0 8.5-9.2 9.8-12.1a17 17 0 0 0 1.6-6.8 3.5 3.5 0 0 0-3-3.1c-1.7 0-3.5 1.4-5.3 4.7a32.6 32.6 0 0 0-4.7 15.2c0 1.5.5 2 1.6 2zm41.3-24.4 3.5-.2a29 29 0 0 1 3.4-.2c.9 0 1.4.6.7 1.5a36 36 0 0 0-6.8 17.4c0 2.4 1.5 5 3.6 5a7.7 7.7 0 0 0 6-3 22 22 0 0 0 2.8-9.3c.2-2 0-5.6.8-8.5.5-1.8 2.7-2.4 4.1-2.4 1.6 0 2.8.8 2.8 2 0 2-1.6 4.7-2.6 8.4a44.2 44.2 0 0 0-1.6 7.9c0 2.5 1.1 5 4.3 5 4.6 0 8.3-5 8.3-11 0-3.2-.8-5.9-1.7-6.6a4.9 4.9 0 0 1-1.6-3.2 3.4 3.4 0 0 1 3.4-3.5c3.5 0 5.7 2.5 5.7 7.9s-2.6 11.6-6 16.4c-2.6 3.5-5.4 6.5-10.6 6.5-4.8 0-6.2-4-6.8-7.2-1.9 2.6-6.3 7.2-11.6 7.2-4.6 0-7.1-2.9-7.1-7.7 0-6.2 6.5-15.3 10.2-19.3l-.4-.2c-.8.4-3.4 3.2-7.4 3.2h-5.5c-1.3 0-2.6.4-2.7 1.3 0 1.3 1.7 2 2.5 2.2.5.2 1.5.9 1.5 3a2.9 2.9 0 0 1-3.1 3c-2 0-3.9-2.4-3.9-6.2 0-3.1 1.5-5 3.1-6.9s3.2-2.5 6.8-2.5zm69.1-1c.5 0 .7.3.6.8-1 3-4.5 12.3-5 14.7-.3 1.1-2.8 9-2.8 10a.8.8 0 0 0 .9 1c1 0 3.3-3.3 3.9-4 .3-.5.5-.5.7-.3l.8.5c.3.2.2.4 0 1-.7 1.4-4.6 7.4-11.1 7.4-2.1 0-2.9-1.1-2.9-2.3 0-.9.4-2.1 2.8-9.1l-.7-.4c-2.7 4.3-7.4 11.8-14 11.8-1.9 0-4.8-2.7-4.8-5.5 0-8.9 8.7-25.3 18.8-25.3a6.3 6.3 0 0 1 5.4 2.5l1.2-2a1.4 1.4 0 0 1 1.2-.8zM202 285.2c1.9 0 8.4-9.2 9.8-12.1a17.1 17.1 0 0 0 1.6-6.8 3.5 3.5 0 0 0-3.1-3.1c-1.7 0-3.4 1.4-5.3 4.7a32.6 32.6 0 0 0-4.7 15.2c0 1.5.6 2 1.7 2zm26 5c-.5 0-.8-.3-.6-.7l3.3-11.4c1.2-3.9 3.4-10.9 3.4-12.2a1.3 1.3 0 0 0-1.2-1.3c-1.1 0-3.6 2.3-4.6 3.8-.3.5-.6.5-.9.3l-.7-.5c-.2-.1-.2-.3 0-.8 1.2-2 5.2-7.3 11.3-7.3 2.7 0 3.6 1.5 3.6 2.9s-1.3 4.7-3 9.2l.8.5c1.8-4 6-12.6 11.1-12.6a4 4 0 0 1 4 3.8c0 2.5-1.9 4.6-3.1 4.6a4 4 0 0 1-2.4-.6 3.4 3.4 0 0 0-2-.8c-2.1 0-6 5.6-7.5 9.1-.7 1.7-1.5 3.8-2.3 6.4l-2.3 7a.9.9 0 0 1-.9.6zm47.5-7.1a.5.5 0 0 1 .1.7c-1.2 2.6-6.5 7-13.4 7-4.8 0-8.2-2.9-8.2-7.8a24.2 24.2 0 0 1 8.5-18c3.4-3 7.6-5 11.7-5 3.9 0 5.5 2.3 5.5 5 0 4-2.3 6.8-6.4 9.1a25.2 25.2 0 0 1-10.3 3 14.2 14.2 0 0 0-.6 4.5c0 2.5 1.4 4.6 3.8 4.6a10.4 10.4 0 0 0 7.6-3.7c.1-.2.3-.3.6-.2zm-5.6-11.3a8.6 8.6 0 0 0 2.3-5.8c0-1-.3-2.3-2-2.3-2.6 0-5.6 6.4-6.7 11a10.6 10.6 0 0 0 6.4-2.9zm-22.2-234A98.6 98.6 0 0 1 263.4 66a93.8 93.8 0 0 1 5.1 31.3 117.2 117.2 0 0 1-13.9 55 131.5 131.5 0 0 1-38.4 44.8 129.3 129.3 0 0 1-40.9 20.2q-22.6 6.7-50.8 6.7-6.6 0-19-.3t-18-.3q-2.7 0-13.4 1t-18.1 1q-13.9 0-22-3t-8-7.8q0-3.3 3.8-5t10.7-1.8q10.9 0 27.6 3.9t22.3 3.8q14.8 0 29.9-13.7t31-41.4l9.4-17.6q37-69.1 77.2-107.3A78.5 78.5 0 0 0 210.6 20a107.7 107.7 0 0 0-34.6-5.3q-5.1 0-11 .6c-3.9.4-8 1-12.3 1.8a73.8 73.8 0 0 1 11 20.4 68.9 68.9 0 0 1 3.8 22.6 93.5 93.5 0 0 1-7.7 36.5 105.9 105.9 0 0 1-21.2 32.4 87.7 87.7 0 0 1-25.2 18.3 62.9 62.9 0 0 1-27.2 6.5q-19.6 0-31.6-11.8t-12-31.2q0-32 27-59.6t70.2-38.7a64.7 64.7 0 0 0-15.6-6.2 73.3 73.3 0 0 0-17.7-2 82.5 82.5 0 0 0-50.7 17.2Q33 38.5 19.7 69.2a115.9 115.9 0 0 0-7.4 26.2q-2.2 13.9-3.2 13.8c-.5 0-1-.4-1.4-1.2a6.3 6.3 0 0 1-.7-3q0-10 4.4-24.7a141.5 141.5 0 0 1 11.8-27.9Q37.1 27.8 59.1 14a86.8 86.8 0 0 1 47.1-14A78 78 0 0 1 127 2.7a72.2 72.2 0 0 1 18.8 8.2l13.4-1.6c3.8-.4 7.4-.4 10.5-.4a128.7 128.7 0 0 1 39.8 6 91.6 91.6 0 0 1 31.8 17.3 164.3 164.3 0 0 1 22-14.7q9.8-5.3 14.4-5.3a3.7 3.7 0 0 1 1 .3.7.7 0 0 1 .5.7q0 .4-11 7.6a120.5 120.5 0 0 0-20.5 17zm-100.4-20q-37.1 11.6-62.7 42.7T59 122q0 13.1 7.2 20t21 6.9a60.4 60.4 0 0 0 24.6-5.4 69.8 69.8 0 0 0 22-15.5 106.1 106.1 0 0 0 21.8-32.5 92.2 92.2 0 0 0 7.8-36.7 58.9 58.9 0 0 0-4-21.8 62.9 62.9 0 0 0-12.1-19.1zm-44.8 200.3 13.7 1q6.6.3 12.6.2a158.3 158.3 0 0 0 46.5-6.5 127 127 0 0 0 75.7-62.7q13.4-25.3 13.4-51.7a93.3 93.3 0 0 0-5-30.8 84.1 84.1 0 0 0-14.7-26.1q-15.4 16.2-34.3 52.3t-27.4 49q-21.3 32.2-40.3 49.8t-40.2 25.5z"/></svg>