<svg viewBox="0 0 90 54" xmlns="http://www.w3.org/2000/svg"><path d="M89.015 2.972C87.836 1.077 85.705 0 83.478 0H0l10.223 11.046a17.118 17.118 0 0 0 12.568 5.5h48.755c3.866 0 7.329 2.01 9.258 5.381.202.355.385.723.543 1.09L89.129 9.55c1.198-2.053 1.16-4.537-.114-6.578Zm-17.462 17.96H24.217l9.327 10.076a17.116 17.116 0 0 0 12.569 5.501H59.93c3.866 0 7.328 2.009 9.258 5.38.22.38.41.774.58 1.167l7.177-12.422c1.154-1.996 1.249-4.48.113-6.49-1.141-2.008-3.203-3.212-5.505-3.212ZM59.795 40.118c3.812.213 6.73 3.49 6.52 7.32-.212 3.83-3.473 6.763-7.284 6.551-3.812-.212-6.73-3.49-6.52-7.32.212-3.83 3.472-6.763 7.284-6.55Z" fill="#0D385E" fill-rule="evenodd"/></svg>