<svg xmlns="http://www.w3.org/2000/svg" width="79.694" height="79.694"><path d="M54.645 52.61c-.76 1.304-2.758 1.476-4.722.528-1.324-.64-1.314-2.268-1.17-3.26a3.063 3.063 0 01.642-1.482c.473-.59 1.262-1.36 2.175-1.385 1.484-.04 2.76.617 3.482 1.804.724 1.184.362 2.49-.4 3.795h-.005zm-14.7-1.63c-1.048.946-2.433.86-3.9.377-1.467-.48-2.118-2.23-1.564-4.343.414-1.57 2.363-1.805 3.337-1.82.37-.007.734.066 1.07.216.69.308 1.856.964 2.093 1.965.34 1.444.012 2.657-1.035 3.602h-.002v.002zM55.988 0l-3.744 35.142-6.39-29.628-20.026 4.2 6.384 29.625L3.338 45.39l5.1 23.664 50.777 10.64L70.828 53.98l5.528-51.867z" fill="#00ccbc"/></svg>