<svg xmlns="http://www.w3.org/2000/svg" width="31.4" height="31.4"><path d="M15.7 0C7.1 0 0 7.1 0 15.7s7 15.7 15.7 15.7 15.7-7 15.7-15.7S24.3 0 15.7 0zm0 29.8c-7.8 0-14.1-6.3-14.1-14.1S7.9 1.6 15.7 1.6s14.1 6.3 14.1 14.1-6.3 14.1-14.1 14.1zm12.2-12v1.4h-4.4v-6.9h1.6v5.5zM7.4 19.1c1.6 0 3-1.1 3.3-2.6l3.9 3 3.9-3v2.6h4.4v-1.4H20v-5.5h-1.6v2.6l-3.7 3-.8-.7 1.8-1.4 1.9-1.5-1.1-.9-3.7 2.9-.8-.7 3.7-2.8-1.1-.9-3.9 3c-.4-1.5-1.7-2.6-3.3-2.6H4.6v6.9h2.8zm-1.3-1.3v-4.2h1.2c1 0 1.9.9 1.9 2.1 0 1.1-.8 2.1-1.9 2.1H6.1z" fill="#007db8"/></svg>