<svg xmlns="http://www.w3.org/2000/svg" viewBox="0 0 90 90"><path fill="#00c366" d="M45 0c24.853 0 45 20.147 45 45S69.853 90 45 90H9a9 9 0 0 1-9-9V45C0 20.147 20.147 0 45 0zm24.966 49.584a2.7 2.7 0 0 0-3.283 1.95c-2.022 7.939-8.221 14.138-16.16 16.16a22.38 22.38 0 0 1-27.207-16.16 2.7 2.7 0 1 0-5.233 1.333c3.787 14.866 18.907 23.847 33.773 20.06 9.855-2.51 17.55-10.205 20.06-20.06a2.7 2.7 0 0 0-1.95-3.283zM45 16.2c-8.45 0-15.3 6.85-15.3 15.3h0v12.6c0 8.45 6.85 15.3 15.3 15.3s15.3-6.85 15.3-15.3h0V31.5c0-8.45-6.85-15.3-15.3-15.3zm0 5.4c5.468 0 9.9 4.432 9.9 9.9h0v12.6l-.008.398C54.683 49.781 50.334 54 45 54c-5.468 0-9.9-4.432-9.9-9.9h0V31.5l.008-.398C35.317 25.819 39.666 21.6 45 21.6zm0 9a2.7 2.7 0 0 0-2.7 2.7h0v10.8a2.7 2.7 0 1 0 5.4 0h0V33.3a2.7 2.7 0 0 0-2.7-2.7z"/></svg>