<svg xmlns="http://www.w3.org/2000/svg" viewBox="0 0 61.95 66.38"><g fill="#02bf6f"><path d="M30.97 4.12A13.04 13.04 0 0 1 44 17.15v18.27a13.03 13.03 0 1 1-26.05 0V17.15A13.04 13.04 0 0 1 30.97 4.12m0-4.12a17.15 17.15 0 0 0-17.14 17.15v18.27a17.15 17.15 0 1 0 34.29 0V17.15A17.15 17.15 0 0 0 30.97 0Z"/><path d="M30.97 38.16a2.06 2.06 0 0 1-2.06-2.05V16.78a2.06 2.06 0 0 1 4.12 0v19.33a2.06 2.06 0 0 1-2.06 2.05z"/><path d="M30.97 66.38A31.01 31.01 0 0 1 0 35.4a2.06 2.06 0 0 1 4.12 0 26.85 26.85 0 0 0 53.62 2.2c.06-.73.09-1.46.09-2.2a2.06 2.06 0 0 1 4.12 0c0 .86-.04 1.7-.1 2.53a31.12 31.12 0 0 1-30.88 28.45Z"/></g></svg>