<svg xmlns="http://www.w3.org/2000/svg" xmlns:xlink="http://www.w3.org/1999/xlink" width="412.953" height="412.953" xmlns:v="https://vecta.io/nano"><style><![CDATA[.B{fill:#e7e7e7}.C{clip-path:url(#A)}.D{fill:#acb2b5}.E{fill:#3a3b49}.F{fill:#d3d3d3}.G{stroke-miterlimit:10}.H{fill:#dbdbdb}.I{stroke-width:11.281}.J{stroke-width:3.384}]]></style><defs><clipPath id="A"><use xlink:href="#D"/></clipPath><clipPath id="B"><use xlink:href="#C"/></clipPath><circle id="C" cx="1322.718" cy="234.192" r="93.193"/><path id="D" d="M0 0h1920v821.568H0z"/></defs><path d="M156.636 124.398l-8.748 6.184-15.016-25.378 4.447-3.267z" class="F"/><path d="M130.031 91.907a8.566 8.566 0 116.49 15.855 8.566 8.566 0 01-6.49-15.855z" class="B"/><path d="M263.372 124.398l8.748 6.184 15.016-25.378-4.447-3.267z" class="F"/><path d="M289.977 91.907a8.566 8.566 0 10-6.49 15.854 8.566 8.566 0 006.49-15.854z" class="B"/><path d="M101.85 197.942h216.307v24.144H101.85z" class="D"/><path transform="translate(-1112.714 -36.712)" fill="#9aa2a5" d="M1214.564 246.726h216.307v12.072h-216.307z" class="C"/><use xlink:href="#C" x="-1112.714" y="-36.712" class="F"/><g clip-path="url(#B)" transform="translate(-1112.714 -36.712)"><path d="M1380.311 256.831h-115.186c-23.053 0-41.741-18.688-41.741-41.741V73.116h198.669V215.09c0 23.053-18.689 41.741-41.742 41.741z" fill="#a8aaaf" opacity=".5"/><path d="M1380.311 254.574h-115.186c-23.053 0-41.741-18.688-41.741-41.741V70.859h198.669v141.974c0 23.053-18.689 41.741-41.742 41.741z" fill="#efefef"/></g><path d="M372.35 337.832l-5.67-6.656 20.25-17.247 5.67 6.656zm31.48-40.066l-16.303 10.908-54.352-81.23 16.303-10.907z" class="D"/><circle cx="396.596" cy="311.523" r="16.357" class="B"/><circle cx="396.596" cy="311.523" r="5.077" class="D"/><path d="M344.749 370.085l-15.922-19.405 36.858-30.24 15.922 19.405z" class="B"/><path d="M307.23 391.629a10.287 10.287 0 0 0 10.033-1.386c4.519-3.447 5.388-9.905 1.941-14.424s-9.905-5.388-14.424-1.941a10.283 10.283 0 0 0-3.97 9.45l-13.341 1.459c-.921-8.027 2.282-16.322 9.172-21.578 10.412-7.942 25.29-5.94 33.232 4.471s5.94 25.29-4.471 33.232c-6.932 5.288-15.842 6.162-23.369 3.087z" class="E"/><path d="M333.226 379.334l13.127-10.013-14.686-19.253-13.127 10.013c-4.713 3.595-5.619 10.33-2.024 15.042l1.668 2.187c3.595 4.713 10.329 5.619 15.042 2.024z" class="B"/><g class="D"><path d="M358.372 368.76l-12.294 9.377-22.825-29.923 12.294-9.377z"/><path transform="rotate(40.721 636.664 -1365.228)" d="M1139.231 138.964h8.743v26.6h-8.743z" class="C"/><path transform="rotate(317.349 560.898 1619.918)" d="M1154.581 164.2h19.615v97.737h-19.615z" class="C"/></g><g transform="translate(-1112.714 -36.712)"><circle cx="1129.069" cy="169.056" r="16.355" class="B C"/><circle cx="1129.069" cy="169.056" r="5.077" class="C D"/></g><path transform="rotate(41.772 655.743 -1346.08)" d="M1151.401 107.502h25.101v45.41h-25.101z" class="B C"/><path d="M92.317 39.429a10.287 10.287 0 0 0-9.699 2.915c-3.934 4.102-3.798 10.617.304 14.551s10.617 3.798 14.551-.304a10.284 10.284 0 0 0 2.467-9.949l12.957-3.496c2.147 7.79.259 16.478-5.74 22.733-9.064 9.451-24.073 9.765-33.525.7s-9.765-24.074-.7-33.525c6.035-6.292 14.704-8.529 22.615-6.649z" class="E"/><path d="M68.524 55.581l-11.85 12.356 17.868 17.137 11.85-12.356c4.103-4.278 3.961-11.072-.317-15.174l-2.376-2.279c-4.278-4.104-11.072-3.962-15.175.316z" class="B"/><path d="M45.304 69.932l10.702-11.159 27.161 26.05-10.703 11.16z" class="D"/><g fill="none" class="G"><path d="M91.179 217.862v67.839c0 22.704 18.997 48.165 44.233 36.543 41.764-19.233 48.568-42.23 114-38.173 23.153 1.436 65.066 16.327 65.066 16.327" stroke="#f8c760" class="I"/><path d="M92.307 215.266v67.839c0 22.704 16.783 51.173 44.233 37.671 41.259-20.294 48.568-42.23 114-38.173 23.153 1.436 65.065 17.455 65.065 17.455" opacity=".6" stroke="#ffd892" class="J"/><path d="M329.602 217.862v79.12c0 22.704-24.697 36.831-44.233 25.262-39.563-23.43-65.048-55.18-129.585-43.657-11.204 2-55.206 23.033-55.206 23.033" stroke="#e35069" class="I"/><path d="M328.474 216.734v81.377c0 22.704-24.697 33.447-44.233 21.878-39.563-23.43-69.151-54.469-128.525-42.905-11.171 2.176-56.266 23.409-56.266 23.409" opacity=".3" stroke="#f2839b" class="J"/></g><path d="M97.671 178.426c1.725 0 3.417.144 5.067.41v62.356c-1.65.266-3.342.41-5.067.41-17.445 0-31.588-14.142-31.588-31.588s14.142-31.588 31.588-31.588z" class="B"/><g class="E"><circle cx="74.072" cy="199.891" r="2.256"/><ellipse cx="216.065" cy="365.631" rx="56.438" ry="10.167" opacity=".22"/><ellipse cx="1322.718" cy="233.525" rx="46.442" ry="44.726" opacity=".86" transform="translate(-1112.714 -36.712)" class="C"/></g><circle cx="1322.718" cy="239.166" r="44.726" transform="translate(-1112.714 -36.712)" fill="#fff" class="C"/><circle cx="210.004" cy="202.454" r="20.871" fill="#4bbc9c"/><circle cx="210.004" cy="202.454" r="9.589" class="E"/><circle cx="217.789" cy="195.223" r="3.694" fill="#fdfdfd"/><path d="M1300.159 223.826c0 .846 47.805 26.892 47.805 26.892l2.961-19.228-31.87-19.228z" transform="translate(-1112.714 -36.712)" opacity=".25" fill="#fff" class="C"/><path d="M340.981 322.35l-15.922-5.43 6.901-20.237 15.923 5.43z" class="F"/><g class="D"><path d="M294.375 304.724l-8.731-2.978 6.164-18.074 8.73 2.978z"/><path d="M289.942 300.53l-9.66-3.295 4.672-13.7 9.66 3.296z"/></g><path d="M323.923 320.741l-33.176-11.314 9.473-27.777 33.176 11.315z" class="B"/><g fill="none" stroke-width=".79" class="G"><path stroke="#e35069" d="M330.664 300.599l15.922 5.43"/><path stroke="#62c0a9" d="M329.149 305.042l15.921 5.43"/><path stroke="#6f6482" d="M327.634 309.486l15.921 5.429"/><path stroke="#f8c760" d="M326.118 313.929l15.922 5.429"/></g><path fill="#fff" d="M334.288 311.336l-13.124-4.475 1.567-4.595 13.124 4.476z"/><path fill="none" stroke="#fff" stroke-width=".564" d="M184.625 220.676h49.638m-49.638-3.384h49.638m-49.638-3.384h49.638m-49.638-3.385h49.638m-49.638-3.384h49.638m-49.638-3.385h49.638m-49.638-3.384h49.638m-49.638-3.385h49.638m-49.638-3.384h49.638m-49.638-3.384h49.638m-49.638-3.385h49.638m-49.638-3.384h49.638" class="G"/><path d="M97.754 325.284l-12.918-28.009 16.556-7.635 12.918 28.009z" class="D"/><path d="M86.254 335.794l17.441-17.875-5.191-5.065-15.041 15.414-23.283-2.039-.633 7.226z" class="H"/><circle cx="84.711" cy="331.541" r="5.21" class="E"/><path d="M94.715 296.376l.285 7.247-21.521.846-14.08 18.655-5.789-4.369 16.15-21.4z" class="H"/><circle cx="71.884" cy="301.35" r="5.21" class="E"/><path d="M111.478 322.635l-15.559-33.736 11.765-5.426 15.559 33.736z" class="H"/><ellipse transform="rotate(311.299 772.449 1391.959)" cx="1369.446" cy="181.04" rx="10.717" ry="15.372" fill="#fff"/><path fill="#f0f7f5" stroke="#dbdbdb" stroke-width="2.083" d="M82.953 26.198l33.888-17.609 17.61 33.889-33.89 17.608z" class="G"/><path d="M80.192 46.582a10.179 10.179 0 012.426-4.238 10.287 10.287 0 019.699-2.915l3.231-13.023c-7.911-1.879-16.58.357-22.615 6.649-3.854 4.019-5.995 9.044-6.476 14.189 4.57-.287 9.153-.442 13.735-.662z" class="E"/><path d="M322.594 178.426c-1.725 0-3.417.144-5.067.41v62.356c1.65.266 3.342.41 5.067.41 17.446 0 31.588-14.142 31.588-31.588s-14.142-31.588-31.588-31.588z" class="B"/><circle cx="346.194" cy="199.891" r="2.256" class="E"/><path d="M99.919 30.632q.448-.174 1.027.023.586.18.741.582.147.378-.121.807l-3.857 6.273q-.386.72.398 1.027l7.008 2.038q.541.17.665.49.183.471-.16 1.025-.335.537-.736.692-.33.128-.762-.003l-7.965-2.373q-1.02-.352-1.346-1.23-.32-.894.16-1.69l4.308-7.033q.321-.504.64-.628zm8.743-5.328q1.593-.373 1.936.512.087.224.081.349l-.602 16.567q-.107.774-.65.985-.425.164-1.013.012-.577-.157-.76-.629-.06-.153-.078-.377l.444-16.519q.064-.676.642-.9zm4.55.179q.319-.124.895.033l7.922 2.294q.89.266 1.245 1.147.362.864-.153 1.811l-4.29 7.12q-.229.387-.56.515-.401.156-1.022-.01-.614-.184-.797-.656-.124-.319.162-.81l3.806-6.226q.373-.755-.398-1.027l-7.076-2.038q-.487-.137-.634-.515-.155-.401.144-.925.307-.54.756-.713z" letter-spacing="0" word-spacing="0" fill="#379493"/></svg>