<svg xmlns="http://www.w3.org/2000/svg" width="148.778" height="148.778"><path d="M95.466 15.637c28.58 18.56-.597-.535 36.65 23.653-1.38 21.411-15.34 46.927-41.88 76.55a3.843 3.843 0 01-6.45-1.183 20.527 20.527 0 00-7.318-9.392L55.642 90.567a17.05 17.05 0 00-12.148-2.96 4 4 0 01-4.263-5.44c12.772-32.207 31.517-54.384 56.235-66.53z" fill="#fff"/><path d="M90.34 60.882a8.654 8.654 0 109.426-14.515 8.654 8.654 0 00-9.426 14.515z"/><path fill="#ff563a" d="M95.384 15.603L129.844.26a3 3 0 014.215 2.908l-2.019 36.224z"/><path fill="#f5a623" d="M50.544 93.553c-5.994 9.094-9.744 16.338-11.25 21.732-1.506 5.393-2.104 13.72-1.793 24.98 10.23-4.317 17.51-8.144 21.838-11.48 4.328-3.34 9.847-9.383 16.558-18.13l-3.782-2.552.021-.048 6.263 4.31c-8.252 10.758-15.04 18.19-20.363 22.294-5.323 4.105-14.275 8.811-26.855 14.12-.383-13.847.352-24.087 2.204-30.72 1.852-6.633 6.464-15.54 13.835-26.726z"/><path fill="#f56423" d="M55.082 96.614c-3.756 5.726-6.11 10.297-7.064 13.713-.968 3.465-1.35 8.813-1.15 16.045 6.57-2.772 11.245-5.23 14.025-7.374 2.742-2.115 6.227-5.918 10.456-11.41l4.548 3.066c-6.71 8.748-12.23 14.791-16.558 18.13-4.329 3.337-11.608 7.164-21.838 11.48-.31-11.26.287-19.586 1.793-24.98 1.506-5.393 5.256-12.637 11.25-21.73z"/><path fill="#3290c5" d="M107.794 93.22l1.71 4.345a10 10 0 01-.007 7.343l-13.705 34.618a5.51 5.51 0 01-10.456-.648l-3.152-12.18a10 10 0 011.223-7.84l16.635-26.368a4.365 4.365 0 017.753.73zM53.707 58.382l-4.664.205a10 10 0 00-6.706 2.994l-26.05 26.6a5.51 5.51 0 004.844 9.29l12.41-2.076a10 10 0 006.664-4.306l17.323-25.92a4.365 4.365 0 00-3.82-6.786z"/></svg>