<svg xmlns="http://www.w3.org/2000/svg" viewBox="0 0 25.576 26.709"><path d="m13.735 15.036-.024.042a5.12 5.12 0 0 0-.478 1.113l-3.09 10.518h4.536l2.73-9.29a.747.747 0 0 1 .56-.52.747.747 0 0 1 .722.248l4.477 4.808 2.308-4.007-3.467-3.617a5.097 5.097 0 0 0-8.274.705m-3.021-1.709-.024-.042a5.201 5.201 0 0 0-.726-.97L2.4 4.378.03 8.199l6.783 7.119a.744.744 0 0 1-.405 1.246L.005 18.038l2.316 4.003 4.866-1.194a5.1 5.1 0 0 0 3.527-7.52m2.961-1.699h.048c.405 0 .81-.048 1.203-.143l10.655-2.583-2.123-3.963-9.557 2.316a.744.744 0 0 1-.877-.975L14.95 0l-4.625.005-1.399 4.81a5.102 5.102 0 0 0 .618 4.632 5.1 5.1 0 0 0 4.131 2.182" fill="#f26a60"/></svg>