<svg xmlns="http://www.w3.org/2000/svg" id="Layer_1" data-name="Layer 1" version="1.1" width="51" height="51"><defs id="defs3411"><style id="style3409">.cls-1{fill:#206590}</style></defs><g id="g51861" transform="translate(.365 -21.717)"><path id="path51853" class="cls-1" d="M37.23 42.3a16.72 16.72 0 01.62 4.7h8.39l1.39-4.72z" transform="translate(-.01)" fill="#206590"/><path id="path51855" class="cls-1" d="M15.27 38.28a6.28 6.28 0 002.17 5.81c2 1.64 5.42 2.58 7.78 4.24 2.36 1.66 3.64 4 3.13 6.52a8.66 8.66 0 01-5.91 6.08c-3.11 1-7.05.24-7.2.28a21.56 21.56 0 007.06.49 16.8 16.8 0 009.48-4.19 14.2 14.2 0 004.46-8.61 15.18 15.18 0 00-1.82-9.55 14.41 14.41 0 00-6.59-5.66 12.5 12.5 0 00-6.19-1 6.87 6.87 0 00-3.95 1.5 6.5 6.5 0 00-2.43 4.08z" transform="translate(-.01)" fill="#206590"/><path id="path51857" d="M8.14 33h5.46L5.47 61.4H0z" transform="translate(-.01)" fill="#33c2f2"/><path id="path51859" class="cls-1" d="M29.58 33c2.72 1.43 3.61 2.49 5.58 4.61H49L50.29 33z" transform="translate(-.01)" fill="#206590"/></g></svg>