<svg xmlns="http://www.w3.org/2000/svg" viewBox="0 0 512 512"><path fill="#136936" d="m127 293 27-26c-20-43-37-88-52-133S74 43 61-3h377l-5 17-7 24a1005 1005 0 0 1-37 121l-16 43c-12 29-24 59-40 87l-14 23c7 10 22 18 33 16l11-18c21-37 37-76 52-116A1664 1664 0 0 0 475 2l1-5h39v264c-2 1-4-1-5-1-24-10-47-6-68 8-13 9-23 20-35 31l-16 15-21 18a36 36 0 0 1-42 2c-12-7-21-17-30-26l-28-28a96 96 0 0 0-39-23c-21-6-40-1-58 10-12 7-22 19-33 29l-35 32c-7 6-15 11-25 11-7 1-14-1-21-4a802 802 0 0 1-55-50l-7-7V-3h26c24 95 55 187 93 277 5 6 6 13 11 19ZM515 305v209H-3V330l12 12c12 11 24 21 39 28 23 11 45 8 65-4 15-8 27-20 39-32 10-9 19-20 30-29 5-5 11-8 17-11 14-6 26-3 37 5 12 9 23 21 33 32 13 12 25 25 40 34 20 12 41 16 63 7 12-4 21-11 31-19 14-12 26-25 39-38 7-7 14-14 23-19 12-7 24-7 37 0l13 9Zm-357 40 1 1c11 15 24 30 40 41 12 9 25 15 40 17 28 4 51-6 73-25-12-6-22-14-32-22l-3 2c-18 11-35 13-54 0-11-7-20-17-29-27l-10-14-26 27Z"/></svg>