<svg xmlns="http://www.w3.org/2000/svg" viewBox="0 0 627.2 463.7"><defs><linearGradient id="a" x1="315.4" x2="311.1" y1="374.3" y2="10.8" gradientTransform="translate(-2.5)" gradientUnits="userSpaceOnUse"><stop offset="0" stop-color="#ed6c6d"/><stop offset=".1" stop-color="#f27c6f"/><stop offset=".5" stop-color="#f79875"/><stop offset=".8" stop-color="#f9a775"/><stop offset="1" stop-color="#faad77"/></linearGradient></defs><path fill="#fff" stroke="#d8d9d9" stroke-miterlimit="10" stroke-width="5.3" d="M543.5 227.5c.3-3.3.4-6.7.4-10a123 123 0 0 0-245.9 0v1.6l-44.4.6A77.8 77.8 0 1 0 105 241.3a110 110 0 0 0 5.2 219.7h394.4a120 120 0 0 0 39-233.5z"/><path fill="#eee" d="m455.4 290.6 17.8-7-16.5-71.4-8.2 1.3zm-285.9 17.1-19.8-6 18.4-89.5 8.2 1.6z" style="isolation:isolate"/><path fill="url(#a)" d="m165.1 0 10.7 55.4-14.3 291.4h302L448.8 55.4l11-55.4h-66.4v55.4h-50.9V0h-60.3v55.4h-50.8V0Z"/><path fill="#383938" d="M215 141v2a97.8 97.8 0 1 0 195.6 0v-2z"/><path fill="#fff" d="M214.5 139.2v2a97.8 97.8 0 1 0 195.7 0v-2z"/><circle cx="312.4" cy="185.1" r="39.6" fill="#383938"/><circle cx="327.9" cy="367.6" r="59.9" fill="#fff"/><circle cx="417.8" cy="378.6" r="61.5" fill="#fff"/><circle cx="498.4" cy="329.5" r="64.8" fill="#fff"/><circle cx="239.6" cy="365" r="57.4" fill="#fff"/><circle cx="178.8" cy="349.7" r="61.8" fill="#fff"/></svg>
