<svg xmlns="http://www.w3.org/2000/svg" viewBox="0 0 630.6 630.6"><defs><linearGradient id="a" x1="315.4" x2="311.1" y1="374.3" y2="10.8" gradientUnits="userSpaceOnUse"><stop offset="0" stop-color="#ed6c6d"/><stop offset=".1" stop-color="#f27c6f"/><stop offset=".5" stop-color="#f79875"/><stop offset=".8" stop-color="#f9a775"/><stop offset="1" stop-color="#faad77"/></linearGradient></defs><path fill="#fff" stroke="#d8d9d9" stroke-miterlimit="10" stroke-width="5.3" d="M546 227.5c.3-3.3.4-6.7.4-10a123 123 0 0 0-245.9 0v1.6l-44.4.6a77.8 77.8 0 1 0-148.7 21.6 110 110 0 0 0 5.2 219.7H507a120 120 0 0 0 39-233.5z"/><path fill="#eee" d="m457.9 290.6 17.8-7-16.5-71.4-8.2 1.3zM172 307.7l-19.8-6 18.4-89.5 8.2 1.6z" style="isolation:isolate"/><path fill="url(#a)" d="m167.6 0 10.7 55.4L164 346.8h302L451.3 55.4 462.2 0h-66.3v55.4H345V0h-60.3v55.4h-50.8V0z"/><path fill="#383938" d="M217.4 141v2a97.8 97.8 0 1 0 195.7 0v-2z"/><path fill="#fff" d="M217 139.2v2a97.8 97.8 0 1 0 195.7 0v-2z"/><circle cx="314.9" cy="185.1" r="39.6" fill="#383938"/><circle cx="330.4" cy="367.6" r="59.9" fill="#fff"/><circle cx="420.3" cy="378.6" r="61.5" fill="#fff"/><circle cx="500.9" cy="329.5" r="64.8" fill="#fff"/><circle cx="242.1" cy="365" r="57.4" fill="#fff"/><circle cx="181.3" cy="349.7" r="61.8" fill="#fff"/></svg>
