<svg xmlns="http://www.w3.org/2000/svg" version="1.1" id="svg24579" width="630.563" height="630.563"><defs id="defs24542"><linearGradient id="linear-gradient" x1="315.41" y1="374.31" x2="311.13" y2="10.79" gradientUnits="userSpaceOnUse"><stop offset="0" stop-color="#ed6c6d" id="stop24531"/><stop offset=".15" stop-color="#f27c6f" id="stop24533"/><stop offset=".48" stop-color="#f79875" id="stop24535"/><stop offset=".78" stop-color="#f9a775" id="stop24537"/><stop offset="1" stop-color="#faad77" id="stop24539"/></linearGradient><style id="style24529">.cls-7{fill:#fff}.cls-3{fill:#eee}.cls-6{fill:#383938}</style></defs><g id="g25205" transform="translate(.837 83.443)"><path id="Cloud_bg" data-name="Cloud bg" d="M546 227.5c.27-3.32.41-6.69.41-10.09a123 123 0 00-245.91 0v1.67l-44.42.64a77.81 77.81 0 10-148.7 21.55 109.91 109.91 0 005.2 219.73H507.1A120 120 0 00546 227.5z" style="isolation:isolate" stroke="#d8d9d9" stroke-miterlimit="10" stroke-width="5.35" fill="#fff"/><path class="cls-3" id="polygon24547" style="isolation:isolate" d="M457.88 290.6l17.8-6.97-16.51-71.4-8.17 1.26z"/><path class="cls-3" id="polygon24549" style="isolation:isolate" d="M171.92 307.7l-19.76-6.09 18.47-89.38 8.17 1.54z"/><g id="deccan" style="isolation:isolate"><path id="tower" fill="url(#linear-gradient)" d="M167.55.04l10.79 55.31-14.43 291.42h301.92L451.39 55.35h.01L462.19.04 395.88 0v55.35h-50.84V0H284.7v55.35h-50.84V0z"/><g id="Eye" style="mix-blend-mode:multiply" opacity=".2"><path class="cls-6" d="M217.43 141.06v2a97.83 97.83 0 10195.66 0v-2z" id="path24552"/></g><g id="Eye-2" data-name="Eye"><path class="cls-7" d="M217.06 139.19v2a97.83 97.83 0 10195.66 0v-2z" id="path24555"/><circle class="cls-6" cx="314.87" cy="185.07" r="39.56" id="circle24557"/></g></g><g id="Cloud_front" data-name="Cloud front" style="isolation:isolate"><circle class="cls-7" cx="330.42" cy="367.64" r="59.93" id="circle24561"/><circle class="cls-7" cx="420.29" cy="378.57" r="61.48" id="circle24563"/><circle class="cls-7" cx="500.9" cy="329.54" r="64.8" id="circle24565"/><circle class="cls-7" cx="242.1" cy="364.96" r="57.37" id="circle24567"/><circle class="cls-7" cx="181.28" cy="349.68" r="61.79" id="circle24569"/></g></g></svg>