<svg xmlns="http://www.w3.org/2000/svg" width="80.771" height="80.771" clip-rule="evenodd" fill-rule="evenodd" stroke-linejoin="round" stroke-miterlimit="1.414"><g fill-rule="nonzero"><path d="M16.004.018C5.594.553 2.01 5.143 2.01 13.946v27.99s5.148-4.47 14.902-4.47h44.38c8.745 0 17.494-2.887 17.494-13.154V12.717c0-9.043-3.27-12.699-13.67-12.699H18.207c-.755 0-1.509-.04-2.204 0z" fill="#6982a2"/><path d="M78.79 38.8v28.012c0 9.395-4.15 13.96-16.23 13.96H15.647c-10.402 0-13.667-3.712-13.667-12.754V56.394c0-10.269 8.764-13.155 17.506-13.155H63.84c9.746 0 14.95-4.439 14.95-4.439" fill="#d2db2d"/></g></svg>