<svg xmlns="http://www.w3.org/2000/svg" viewBox="0 0 90 90" fill-rule="evenodd"><path fill="#fff" opacity="0" d="M0 0h90v90H0z"/><path fill="#00ad9f" fill-rule="nonzero" d="M68.806 36.483V16.116a5.86 5.86 0 0 0-.787-2.947 6.07 6.07 0 0 0-2.091-2.158L48.194.853A5.48 5.48 0 0 0 45.251 0a5.35 5.35 0 0 0-2.904.853L24.665 11.011a5.94 5.94 0 0 0-2.091 2.081h-.077a6.08 6.08 0 0 0-.736 2.947v20.445a8.81 8.81 0 0 0 .116 1.163c-.456.123-.891.315-1.291.569L2.943 48.399a6.16 6.16 0 0 0-2.13 2.171A5.63 5.63 0 0 0 0 53.517v20.316a5.63 5.63 0 0 0 .813 2.947v.116a6.07 6.07 0 0 0 2.13 2.107l17.644 10.21a5.84 5.84 0 0 0 2.943.788c1.034.006 2.05-.266 2.943-.788l17.695-10.21c.296-.184.576-.391.839-.62l.903.62 17.644 10.21a5.84 5.84 0 0 0 2.943.788c1.033-.001 2.047-.273 2.943-.788l17.695-10.21c.883-.508 1.603-1.257 2.078-2.158a5.73 5.73 0 0 0 .787-3.011V53.517c.008-1.035-.264-2.053-.787-2.947a6.03 6.03 0 0 0-2.078-2.158L69.438 38.254a2.13 2.13 0 0 0-.787-.388c.102-.454.154-.918.155-1.383m16.908 16.116a1.89 1.89 0 0 1 .22.918v20.316a1.88 1.88 0 0 1-.22.905c-.133.294-.36.535-.645.685L67.399 85.696c-.192.119-.408.194-.632.22V65.38c.052-1.424-.751-2.742-2.039-3.347l-17.566-9.266c.075-.019.125-.091.116-.168.178-.284.405-.533.671-.737.086-.022.169-.057.245-.103l17.398-10.042c.244-.154.525-.239.813-.246.297 0 .589.085.839.246L85.12 51.862c.263.178.483.412.645.685M26.769 14.513L44.386 4.368c.257-.178.554-.289.865-.323a1.42 1.42 0 0 1 .826.246l17.747 10.223c.253.19.468.427.632.698.184.265.279.582.271.905v20.368c.008.323-.087.639-.271.905-.165.271-.379.508-.632.698L46.155 48.231c-.186.122-.385.222-.594.297V27.98a3.62 3.62 0 0 0-.555-1.939c-.337-.611-.85-1.106-1.471-1.422l-17.579-9.24a.44.44 0 0 0 .129-.168 2.92 2.92 0 0 1 .684-.698m-3.24 27.01c.305.001.604.086.865.246l17.734 10.093a2.39 2.39 0 0 1 .62.685 1.89 1.89 0 0 1 .22.918v20.484c-.001.294-.077.583-.22.84-.131.287-.348.526-.62.685L24.458 85.696c-.192.119-.408.194-.632.22V65.38c.002-.677-.167-1.344-.49-1.939-.374-.606-.911-1.094-1.549-1.409L4.195 52.767c.075-.022.127-.09.129-.168a2.65 2.65 0 0 1 .684-.737h.09l17.566-10.145a1.52 1.52 0 0 1 .865-.194h0z"/></svg>