<svg xmlns="http://www.w3.org/2000/svg" viewBox="0 0 92 46" fill="#FC4C02"><path d="m69.38 25.08 5.086-17.75c.12-.416-.296-.81-.854-.81H64.46l-2.187 13.955L60.087 6.52h-9.152c-.559 0-.974.393-.855.81l5.087 17.75-5.323 19.65c-.112.415.302.803.857.803h9.217l2.355-14.701 2.355 14.7h9.218c.554 0 .968-.387.856-.802l-5.322-19.65ZM13.07 8.094c0-1.05-.582-1.574-1.747-1.574H9.921v32.657h1.35c1.19 0 1.799-.525 1.799-1.575V8.095Zm-.82-7.93c6.878 0 10.9 2.825 10.9 8.374V37.3c0 2.704-.98 4.742-2.91 6.135-1.958 1.392-4.63 2.099-7.99 2.099H.874c-.483 0-.875-.3-.875-.668V.83C0 .462.392.163.875.163h11.374ZM35.928 13.22v6.984h2.99V13.22c0-1.049-.477-1.574-1.402-1.574-1.032 0-1.561.525-1.588 1.574Zm12.355 1.211v9.99c0 .368-.391.667-.875.667h-11.48v13.58c0 1.05.556 1.575 1.64 1.575.927 0 1.403-.464 1.403-1.373V27.41h8.438c.483 0 .874.298.874.667V38.79c0 2.24-.926 3.976-2.804 5.247-1.879 1.272-4.524 1.897-7.91 1.897-7.303 0-11.271-2.926-11.271-8.234V15.501c0-6.337 3.73-9.344 11.218-9.344 7.196 0 10.794 2.765 10.767 8.274ZM90.907 6.52h-4.19V.83c0-.368-.392-.667-.876-.667h-7.225l-1.8 6.285a.516.516 0 0 0-.021.143v31.798c0 2.24.926 3.976 2.805 5.247 1.787 1.21 4.271 1.832 7.425 1.89l.283.005h.07l.16.002h3.37c.482 0 .874-.298.874-.667v-5.69h-3.266c-1.19 0-1.799-.524-1.799-1.574V12.855h5.065V7.187c0-.368-.392-.667-.875-.667Z"/></svg>