<svg xmlns="http://www.w3.org/2000/svg" id="Layer_1" version="1.1" width="177.138" height="177.138"><style id="style16713">.st0{fill:#025e43}.st1{fill:#fff}</style><path id="rect18004" fill="#bed747" fill-opacity="1" fill-rule="evenodd" stroke-width=".905" d="M0 0h177.138v177.138H0z"/><path class="st0" d="M92.9 48.569h75.339v80h-75.34z" id="path18006" fill="#fff" stroke-width=".557"/><path class="st0" d="M8.9 48.569h75.339v80H8.899z" id="path16715" fill="#0e5d43" fill-opacity="1" stroke-width=".557"/><g id="g18038"><path class="st1" d="M62.162 88.469c0 6.5.5 12.7-4.3 17.6-2.8 2.8-6.9 4.1-11.4 4.1h-15.5v-24.3h8.4v16.8h6.3c2.9 0 4.8-.9 6.3-2.7 1.6-1.9 1.8-5 1.8-11.5s-.2-9.4-1.8-11.4c-.1-.1-.4-.4-.4-.5v-9c2.3.6 4.6 2 6.3 3.6 4.8 4.9 4.3 10.8 4.3 17.3z" id="path16717" fill="#fff"/><path class="st1" d="M39.262 74.469h5.7v-7.5h-14v12.9h8.3z" id="path16719" fill="#fff"/></g><path class="st0" d="M143.269 85.819v7.9h-17v16.5h-8.4v-24.4zm-3.5-18.9h-21.9v12.9h8.4v-5.4h17v-7.5z" id="path16721" fill="#0e5d43" fill-opacity="1"/></svg>