<svg xmlns="http://www.w3.org/2000/svg" width="177.138" height="177.138"><path fill="#bed747" fill-rule="evenodd" d="M0 0h177.138v177.138H0z"/><path d="M92.9 48.569h75.339v80h-75.34z" fill="#fff"/><path d="M8.9 48.569h75.339v80H8.899z" fill="#025e43"/><path d="M62.162 88.469c0 6.5.5 12.7-4.3 17.6-2.8 2.8-6.9 4.1-11.4 4.1h-15.5v-24.3h8.4v16.8h6.3c2.9 0 4.8-.9 6.3-2.7 1.6-1.9 1.8-5 1.8-11.5s-.2-9.4-1.8-11.4c-.1-.1-.4-.4-.4-.5v-9c2.3.6 4.6 2 6.3 3.6 4.8 4.9 4.3 10.8 4.3 17.3zm-22.9-14h5.7v-7.5h-14v12.9h8.3z" fill="#fff"/><path d="M143.269 85.819v7.9h-17v16.5h-8.4v-24.4zm-3.5-18.9h-21.9v12.9h8.4v-5.4h17v-7.5z" fill="#025e43"/></svg>