<svg xmlns="http://www.w3.org/2000/svg" width="283.5" height="283.5" clip-rule="evenodd" fill-rule="evenodd" stroke-linejoin="round" stroke-miterlimit="1.414"><g fill="#d40511" fill-rule="nonzero"><path d="M0 158.6h34.4l-2 2.8H0zM283.5 161.4h-42.1l2.1-2.8h40zM0 153.4h38.3l-2.1 2.8H0zM0 148.2h42.2l-2.1 2.8H0zM283.5 156.2h-38.2l2.1-2.8h36.1zM251.3 148.2h32.2v2.8h-34.3zM37.1 161.4l18.2-24.3h22.6c2.5 0 2.5.9 1.2 2.6-1.2 1.6-3.3 4.5-4.6 6.2-.6.9-1.8 2.4 2 2.4h30.2c-2.5 3.4-10.7 13.2-25.3 13.2-11.8-.1-44.3-.1-44.3-.1zM141.3 148.2l-9.9 13.2h-26l9.9-13.2zM178.9 148.2l-9.9 13.2h-26l9.9-13.2zM187.4 148.2s-1.9 2.6-2.8 3.8c-3.3 4.3-.4 9.4 10.3 9.4h41.8l9.9-13.2z"/><path d="M49.9 122l-9.1 12.1h49.4c2.5 0 2.5.9 1.2 2.6-1.2 1.6-3.3 4.5-4.6 6.2-.6.8-1.8 2.4 2 2.4H109l6-8c3.7-4.9.3-15.2-12.9-15.2-11.9-.1-52.2-.1-52.2-.1zM181.2 145.2h-63.7l17.4-23.2h26l-9.9 13.3h11.6l10-13.3h26zM234.6 122l-17.4 23.2h-27.6L207 122z"/></g></svg>