<svg xmlns="http://www.w3.org/2000/svg" version="1.1" id="Layer_1" x="0" y="0" viewBox="65.2 173.5 176.475 176.475" xml:space="preserve" width="176.475" height="176.475"><style type="text/css" id="style873">.st0{fill:#0080ff}</style><g id="XMLID_229_" transform="translate(-1.753 -1.725)"><g id="XMLID_690_"><g id="XMLID_691_"><g id="g881"><g id="XMLID_44_"><g id="XMLID_48_"><path id="XMLID_49_" class="st0" d="M155.2 351.7v-34.2c36.2 0 64.3-35.9 50.4-74-5.1-14.1-16.4-25.4-30.5-30.5-38.1-13.8-74 14.2-74 50.4H67c0-57.7 55.8-102.7 116.3-83.8 26.4 8.3 47.5 29.3 55.7 55.7 18.9 60.6-26 116.4-83.8 116.4z" fill="#0080ff"/></g><path id="XMLID_47_" class="st0" fill="#0080ff" d="M121.3 283.6h34v34h-34z"/><path id="XMLID_46_" class="st0" fill="#0080ff" d="M121.3 317.6v26.2H95.1v-26.2z"/><path id="XMLID_45_" class="st0" d="M95.1 317.6H73.2v-21.9h21.9z" fill="#0080ff"/></g></g></g></g></g></svg>