<svg xmlns="http://www.w3.org/2000/svg" version="1.1" id="Layer_1" x="0" y="0" xml:space="preserve" width="45.3" height="45.3"><style type="text/css" id="style6449"></style><g id="g7062" transform="translate(6.212 56.96)" fill-opacity="1"><path d="M.088-21.41h4.4c1.7 0 3.4-.3 5-1 6.6-2.8 9.6-10.3 6.9-16.9-1.3-3.1-3.8-5.6-6.9-6.9-1.6-.7-3.3-1-5-1h-10.7v25.8h3.6v-22.1h7c1.2 0 2.4.2 3.5.7 2.3.9 4.1 2.7 5 5 .9 2.3.9 4.8 0 7.1s-2.7 4.1-5 5c-1.1.5-2.3.7-3.5.7h-3z" id="path6453" fill="#003058"/><path id="path6455" d="M34.288-21.41h4.4l-5.3-8.2.5-.2c.8-.4 1.5-.8 2.1-1.4.6-.6 1.2-1.2 1.6-1.9.5-.7.8-1.5 1.1-2.3.3-.9.4-1.8.4-2.7 0-1.2-.2-2.4-.7-3.5-.9-2.2-2.7-3.9-4.9-4.9-1.1-.5-2.3-.7-3.5-.7h-9.5v25.8h3.6v-22.1h5.9c1.5 0 2.9.6 3.9 1.6 1.6 1.6 2 3.9 1.2 5.9-.3.6-.7 1.2-1.2 1.8-1 1.1-2.4 1.6-3.9 1.6h-2.2l-1.3 3.7h3z" fill="#0da7e0"/></g></svg>