<svg xmlns="http://www.w3.org/2000/svg" width="31.71" height="31.71"><path d="M31.431 18.102c-.5-5.8-4.5-9.7-7.6-13.9 1.3-1.9 4.2-1.3 6.3-.9-2.7-1.9-5.9-3-9.3-3.3-6.5-.1-11.7 3.7-16.5 7.9-2.9-.9-.9-4-.9-6.2-2.5 3.4-3.3 7.2-3.2 11.1.1 3.5 1.6 6.9 3.6 10l4.2 4.8c-1.4 2.3-4.2 1.3-6.3.9 3.4 2.5 7.2 3.3 11.1 3.2 3.5-.1 6.9-1.6 9.9-3.6l4.8-4.2c1.4 1.6 1.7 4.3.9 6.3 2.4-3.4 3.3-7.6 3-12.1zm-4.6.2c-1.2 1.5-2.7 3.3-2.7 3.3-1.5 1.7-2.8 2.5-3.4 3-2 1.5-4.5 2.4-7 2.5h-.6l-.1-.1-2.8-2.8c-.9-1.1-1.7-1.6-2.9-3.3-1.5-2.1-2.4-4.5-2.5-7v-.9l2.8-2.5c3.3-2.9 6.9-5.5 11.4-5.5h.2l2.2 2.9c2.1 2.9 4.9 5.7 5.3 9.7 0 0 .1.6.1.7z" fill="#1974bb"/></svg>