<svg xmlns="http://www.w3.org/2000/svg" width="45" height="45" fill="none" fill-rule="evenodd" xmlns:v="https://vecta.io/nano"><path d="M40.86 45H4.14C1.86 45 0 43.14 0 40.86V4.14C0 1.86 1.86 0 4.14 0h36.72C43.14 0 45 1.86 45 4.14v36.72c0 2.28-1.86 4.14-4.14 4.14z" fill="#000"/><g fill-rule="nonzero"><path d="M4.208 33.58V22.93h3.025c3.56 0 5.517 1.8 5.517 5 0 3.84-2.136 5.64-5.606 5.64H4.208zm1.928-1.62h1.097c2.106 0 3.5-1.14 3.5-3.93 0-2.3-1.364-3.5-3.648-3.5h-.95v7.44zm9.194-9.75c.683 0 1.068.45 1.068 1.05 0 .57-.385 1.05-1.067 1.05s-1.068-.42-1.068-1.05c.03-.54.385-1.05 1.068-1.05zm.92 11.37h-1.8V25.6l1.8-.1v8.07zm4.4-1.56h1.898c1.7 0 2.432.7 2.432 1.98 0 1.53-1.245 2.76-4.123 2.76-2.254 0-3.292-.8-3.292-2.07 0-.75.415-1.38 1.216-1.74v-.06c-.356-.18-.623-.6-.623-1.08 0-.5.297-.96.9-1.2v-.06c-.712-.42-1.127-1.08-1.127-2.13 0-1.95 1.305-3 3.292-3 .445 0 .83.06 1.216.15h2.55v1.23h-1.216v.06c.327.27.623.8.623 1.5 0 1.77-1.186 2.7-3.352 2.7-.356 0-.682-.06-1.008-.12-.208.12-.326.3-.326.5-.06.36.207.57.95.57zm.326 3.36c1.72 0 2.343-.45 2.343-1.08 0-.48-.296-.72-1.067-.75l-2.64-.1c-.297.2-.445.48-.445.84.03.66.593 1.08 1.8 1.08zm1.7-7.14c0-.96-.533-1.5-1.542-1.5-.9 0-1.542.5-1.542 1.6 0 1.05.564 1.47 1.513 1.47.98.03 1.572-.42 1.572-1.56z" fill="#fff"/><path d="M27.047 22.2c.682 0 1.067.45 1.067 1.05 0 .57-.385 1.05-1.067 1.05s-1.068-.42-1.068-1.05c.03-.54.385-1.05 1.068-1.05zm.92 11.37h-1.8V25.6l1.8-.1v8.07zm2.283 0V22.93h3.025c3.56 0 5.517 1.8 5.517 5 0 3.84-2.135 5.64-5.606 5.64H30.25zm1.928-1.62h1.097c2.106 0 3.5-1.14 3.5-3.93 0-2.3-1.364-3.5-3.648-3.5h-.95v7.44z" fill="#e1700d"/></g></svg>