<svg xmlns="http://www.w3.org/2000/svg" viewBox="0 0 191.138 109.036" xmlns:v="https://vecta.io/nano"><defs><linearGradient x1=".055" y1=".472" x2=".97" y2=".529" id="A"><stop offset="0" stop-color="#9166d8"/><stop offset="1" stop-color="#3cced6"/></linearGradient></defs><path d="M188.557 15.418c0-7.399-5.988-13.401-13.372-13.401H15.3c-7.384 0-13.372 6.002-13.372 13.401v78.199c0 7.399 5.988 13.4 13.372 13.4h159.885c7.384 0 13.372-6.001 13.372-13.4V15.418zM47.331 84.049H31.157c-2.508 0-3.035-1.628-3.035-4.141V28.651c0-2.434.527-3.665 3.035-3.665h31.589c9.433 0 16.443 2.96 21.636 7.728 5.799 5.378 9.433 13.105 9.433 21.603a27.11 27.11 0 0 1-.03 1.277c-.003.111-.009.226-.016.338-.02.38-.046.758-.079 1.132l-.009.138c-.04.406-.085.807-.141 1.21l-.053.365-.157.951c-.016.095-.029.19-.049.282a28.97 28.97 0 0 1-.232 1.109c-.033.145-.069.289-.105.43-.062.259-.131.515-.2.768l-.114.413a34.32 34.32 0 0 1-.311 1.001l-.171.496c-.068.203-.144.403-.219.607l-.193.502c-.121.305-.246.603-.373.899-.079.184-.164.361-.246.541-.072.161-.151.322-.226.479-.088.187-.18.368-.272.552-.137.275-.285.547-.432.817-1.093 1.985-2.403 4.032-3.903 5.673-5.363 5.906-13.067 9.752-23.538 9.752H47.331zm112.924-6.274c-3.202 3.731-7.875 6.274-14.799 6.274H84.425c2.311 0 4.43-4.062 6.332-6.153 2.586-2.831 4.659-6.972 6.175-10.254h45.754c2.422 0 3.637-.026 4.413-.981.609-.692.953-1.397.953-2.441 0-1.211-.432-1.703-1.211-2.481-.78-.866-1.903-.659-4.155-.659h-23.801c-7.789 0-12.288-2.599-15.405-5.808s-4.934-7.717-4.934-12.488c0-4.683 1.906-9.158 5.023-12.367s7.53-5.431 15.32-5.431h43.474v16.406h-42.61c-1.902 0-2.94.007-3.634.699-.779.778-1.212 1.605-1.212 2.819 0 1.303.606 1.956 1.47 2.651.691.607 1.559.394 3.376.394h25.706c6.578 0 10.991 2.448 14.108 5.657s5.02 7.829 5.02 12.429c-.004 4.249-1.647 8.607-4.332 11.734zM62.746 41.392c5.278 0 8.565.975 11.077 3.318 2.685 2.517 4.328 5.653 4.328 9.558 0 3.557-1.382 6.714-3.634 9.142-2.511 2.776-6.231 4.232-11.771 4.232H44.139l-.088.001-.052.002.024-.006c.171-.051.423-.193.464-.55l.005-.103V41.747c0-.139-.029-.243-.074-.319l-.026-.036h18.354z" fill="url(#A)" fill-rule="evenodd"/></svg>