<svg xmlns="http://www.w3.org/2000/svg" viewBox="0 0 191.14 109.04"><defs><linearGradient id="a" x1=".06" x2=".97" y1=".47" y2=".53"><stop offset="0" stop-color="#9166d8"/><stop offset="1" stop-color="#3cced6"/></linearGradient></defs><path fill="url(#a)" fill-rule="evenodd" d="M188.56 15.42c0-7.4-6-13.4-13.38-13.4H15.3c-7.38 0-13.37 6-13.37 13.4v78.2c0 7.4 5.99 13.4 13.37 13.4h159.88c7.39 0 13.38-6 13.38-13.4v-78.2zM47.33 84.05H31.16c-2.51 0-3.04-1.63-3.04-4.14V28.65c0-2.43.53-3.66 3.04-3.66h31.59c9.43 0 16.44 2.96 21.63 7.72a29.45 29.45 0 0 1 9.43 21.6 27.11 27.11 0 0 1-.03 1.28l-.01.34-.08 1.13v.14l-.15 1.21-.05.37-.16.95-.05.28a28.97 28.97 0 0 1-.23 1.1 16.9 16.9 0 0 1-.3 1.2l-.12.42a34.32 34.32 0 0 1-.31 1l-.17.5-.22.6-.2.5-.37.9-.24.55-.23.47-.27.56-.43.81a29.9 29.9 0 0 1-3.9 5.68c-5.37 5.9-13.07 9.75-23.54 9.75H47.33zm112.92-6.27c-3.2 3.73-7.87 6.27-14.8 6.27H84.44c2.3 0 4.42-4.06 6.33-6.15 2.58-2.84 4.66-6.98 6.17-10.26h45.76c2.42 0 3.63-.02 4.4-.98.62-.7.96-1.4.96-2.44 0-1.21-.43-1.7-1.2-2.48-.79-.87-1.91-.66-4.16-.66h-23.8c-7.8 0-12.3-2.6-15.41-5.8a17.97 17.97 0 0 1 .09-24.86c3.12-3.21 7.53-5.43 15.32-5.43h43.47v16.4h-42.6c-1.9 0-2.95 0-3.64.7a3.7 3.7 0 0 0-1.21 2.82c0 1.3.6 1.96 1.47 2.65.69.6 1.56.4 3.37.4h25.7c6.59 0 11 2.44 14.12 5.65s5.02 7.83 5.02 12.43c0 4.25-1.65 8.6-4.34 11.73zm-97.5-36.39c5.27 0 8.56.98 11.07 3.32 2.69 2.52 4.33 5.65 4.33 9.56 0 3.55-1.38 6.71-3.63 9.14-2.51 2.78-6.23 4.23-11.77 4.23H44h.02c.17-.05.43-.2.47-.55V41.75a.62.62 0 0 0-.07-.32l-.03-.04h18.36z"/></svg>
