<svg id="Capa_1" data-name="Capa 1" xmlns="http://www.w3.org/2000/svg" viewBox="0 0 51 51.43"><defs><style>.cls-1{fill:#ff6c0e;}</style></defs><title>isotipo</title><path class="cls-1" d="M39.65,32.83,28.76,14a3.75,3.75,0,0,0-6.52,0L11.36,32.83A3.76,3.76,0,0,0,12.74,38a3.87,3.87,0,0,0,1.88.51H36.38a3.77,3.77,0,0,0,3.77-3.77A3.86,3.86,0,0,0,39.65,32.83Zm-6.23,2.52H17.59A2.37,2.37,0,0,1,15.21,33a2.31,2.31,0,0,1,.33-1.2l7.94-13.72a2.35,2.35,0,0,1,3.23-.86,2.32,2.32,0,0,1,.87.86l7.9,13.72a2.38,2.38,0,0,1-2.06,3.55Z"/></svg>