<svg xmlns="http://www.w3.org/2000/svg" fill="none" viewBox="0 0 37.271 37.28"><linearGradient id="a" x1="5.46" x2="31.82" y1="31.82" y2="5.46" gradientTransform="translate(.006 -.005)" gradientUnits="userSpaceOnUse"><stop stop-color="#5AC3FF"/><stop offset="1" stop-color="#0550C8"/></linearGradient><path fill="url(#a)" d="M34.786 27.955a18.64 18.64 0 1 1-1.98-21.43l-10.85 18.8a6.22 6.22 0 0 1-10.76-6.21l5.38-9.32a3.73 3.73 0 0 1 5.31-1.23 3.82 3.82 0 0 1 1.08 5.07l-5.29 9.16c-.3.52-.92.8-1.5.6a1.25 1.25 0 0 1-.68-1.8l5.36-9.29a1.25 1.25 0 0 0-2.15-1.24l-5.36 9.29a3.73 3.73 0 0 0 6.46 3.73l5.38-9.33a6.212 6.212 0 0 0-10.76-6.21l-5.38 9.32a8.64 8.64 0 0 0-.89 6.5 8.64 8.64 0 0 0 10.76 6.22c2.12-.59 4-1.97 5.19-4.02l10.3-17.86a18.63 18.63 0 0 1 .37 19.24z"/></svg>