<svg xmlns="http://www.w3.org/2000/svg" width="141.627" height="141.627"><defs><radialGradient fx="0" fy="0" cx="0" cy="0" r="1" gradientUnits="userSpaceOnUse" gradientTransform="matrix(63.9816 0 0 -63.9816 63.246 59.383)" spreadMethod="pad" id="a"><stop offset="0" stop-color="#00adef"/><stop offset="1" stop-color="#2761a2"/></radialGradient><radialGradient fx="0" fy="0" cx="0" cy="0" r="1" gradientUnits="userSpaceOnUse" gradientTransform="matrix(64.2266 0 0 -64.2266 84.45 72.905)" spreadMethod="pad" id="b"><stop offset="0" stop-color="#00adef"/><stop offset="1" stop-color="#2761a2"/></radialGradient><radialGradient fx="0" fy="0" cx="0" cy="0" r="1" gradientUnits="userSpaceOnUse" gradientTransform="matrix(55.831 0 0 -55.831 13.848 49.67)" spreadMethod="pad" id="c"><stop offset="0" stop-color="#f6812a"/><stop offset="1" stop-color="#f15026"/></radialGradient><radialGradient fx="0" fy="0" cx="0" cy="0" r="1" gradientUnits="userSpaceOnUse" gradientTransform="matrix(22.2805 0 0 -22.2805 55.135 71.2)" spreadMethod="pad" id="d"><stop offset="0" stop-color="#f6812a"/><stop offset="1" stop-color="#f15026"/></radialGradient><radialGradient fx="0" fy="0" cx="0" cy="0" r="1" gradientUnits="userSpaceOnUse" gradientTransform="matrix(42.3427 0 0 -42.3427 31.082 64.93)" spreadMethod="pad" id="e"><stop offset="0" stop-color="#73c82c"/><stop offset="1" stop-color="#1baa51"/></radialGradient><radialGradient fx="0" fy="0" cx="0" cy="0" r="1" gradientUnits="userSpaceOnUse" gradientTransform="matrix(28.403 0 0 -28.403 21.774 44.515)" spreadMethod="pad" id="f"><stop offset="0" stop-color="#73c82c"/><stop offset="1" stop-color="#1baa51"/></radialGradient></defs><g fill-rule="evenodd"><path d="M48.716 100.649c37.102-1.047 70.913-21.232 52.168-61.976C87.898 10.449 55.309-1.257 20.272.106c16.68 3.67 35.84 17.126 45.617 31.542 16.85 24.848 17.433 58.063-17.173 69.001" fill="url(#a)" transform="matrix(1.33333 0 0 -1.33333 0 137.913)"/><path d="M33.215 2.053C53.184 3.22 73.822 9.17 88.008 23.35a55.385 55.385 0 0111.213 16.087c16.197 35.204-8.287 53.894-38.73 58.36 37.766-11.989 40.261-49.128 15-75.084C64.288 11.202 49.018 4.926 33.215 2.053" fill="url(#b)" transform="matrix(1.33333 0 0 -1.33333 0 137.913)"/><path d="M.579 35.072C-2.826 62.342 8.7 97.904 37.344 98.533c21.271.468 43.14-18.607 32.972-45.852 1.513 19.335-12.682 27.594-27.78 26.044C24.877 76.913 4.306 61.685.578 35.072" fill="url(#c)" transform="matrix(1.33333 0 0 -1.33333 0 137.913)"/><path d="M71.006 64.663c.375 8.144-2.321 15.942-8.72 22.243-6.506 6.408-15.784 9.998-24.902 9.798-5.574-.123-10.777-1.655-15.45-4.71-11.821-7.73-17.56-23.25-19.378-36.67a80.13 80.13 0 01-.669-7.674c.858 20.088 17.595 37.727 35.166 40.309 12.823 1.884 30.37-4.308 33.953-23.296" fill="url(#d)" transform="matrix(1.33333 0 0 -1.33333 0 137.913)"/><path d="M52.082 21.624C-15.156-32.482-6.743 65.885 39.685 74.611c-28.742-18.143-27.11-63.726 12.397-52.987" fill="url(#e)" transform="matrix(1.33333 0 0 -1.33333 0 137.913)"/><path d="M44.826 18.394a42.986 42.986 0 00-1.025-.09c-3.644-2.012-7.395-3.658-11.066-4.599-4.828-1.235-10.283-1.387-14.286 2.031-5.285 4.515-5.912 13.191-5.254 19.609.952 9.27 4.803 18.837 10.24 26.377 1.983 2.75 4.242 5.325 6.762 7.606a37.454 37.454 0 01-2.787-1.651c-4.656-3.036-8.632-7.064-11.875-11.56-5.437-7.54-9.287-17.108-10.24-26.379-.658-6.418-.03-15.093 5.255-19.608 4.002-3.42 9.458-3.267 14.285-2.03 6.783 1.735 13.837 5.884 19.99 10.294" fill="url(#f)" transform="matrix(1.33333 0 0 -1.33333 0 137.913)"/></g></svg>