<svg xmlns="http://www.w3.org/2000/svg" class="wcdgn_logo" aria-label="DIRECTV home" width="32" height="32"><path d="M24.184 2.256A15.818 15.818 0 0016 0c-3.023 0-5.89.847-8.298 2.323-.72.445-1.128.8-1.128 1.258 0 1.35 3.154 2.8 8.747 2.8 5.534 0 9.828-1.589 9.828-3.119 0-.365-.319-.62-.965-1.006m2.382 1.778c.067.104.1.218.1.37 0 1.776-5.438 4.921-14.096 4.921-6.36 0-7.551-2.36-7.551-3.862 0-.537.205-1.086.658-1.643.025-.034.004-.046-.025-.02-.826.7-1.585 1.487-2.252 2.34-.318.401-.516.757-.516.971 0 3.111 7.8 5.367 15.09 5.367 7.77 0 11.238-2.536 11.238-4.767 0-.797-.31-1.262-1.103-2.164a18.898 18.898 0 00-1.518-1.535c-.025-.02-.042-.004-.025.022M1.543 9.136c-.47.931-.99 2.504-1.145 3.317-.067.348-.038.515.084.775.981 2.084 5.946 5.418 17.526 5.418 7.065 0 12.554-1.736 13.443-4.906.163-.583.171-1.199-.038-2.03-.235-.926-.675-2.008-1.048-2.767-.013-.025-.034-.02-.03.01.139 4.154-11.446 6.833-17.291 6.833-6.331 0-11.614-2.524-11.614-5.71 0-.306.063-.613.142-.93.009-.03-.016-.035-.03-.01m11.242 13.28c-8.189 0-12.05-3.816-12.75-6.42C.025 15.958 0 15.966 0 16c0 .876.088 2.008.239 2.76.071.364.369.94.805 1.395 1.983 2.067 6.927 4.965 15.488 4.965 11.665 0 14.332-3.887 14.877-5.166.39-.914.591-2.566.591-3.954 0-.336-.008-.604-.021-.868 0-.042-.025-.046-.034-.004-.583 3.128-10.549 7.287-19.161 7.287m4.302 7.04c3.937 0 8.264-1.073 10.85-3.2.71-.578 1.385-1.35 1.988-2.385.348-.596.688-1.304.965-2 .013-.033-.009-.05-.034-.013-2.407 3.544-9.375 5.753-16.57 5.753-5.086 0-10.558-1.627-12.7-4.734-.021-.03-.042-.017-.03.017 1.996 4.243 8.05 6.562 15.531 6.562m-10.898-.818A15.983 15.983 0 0016 32c4.042 0 7.727-1.5 10.54-3.966.034-.03.018-.05-.016-.03-1.262.843-4.86 2.684-10.524 2.684-4.922 0-8.034-1.1-9.79-2.08-.034-.017-.046.008-.022.03" fill="#009fdb" fill-rule="evenodd"/></svg>