<svg xmlns="http://www.w3.org/2000/svg" width="33.711" height="33.711" class="logo-3LF899"><path d="M19.975 14.144c-.969 0-1.734.833-1.734 1.87 0 1.037.782 1.87 1.734 1.87.969 0 1.734-.833 1.734-1.87 0-1.037-.782-1.87-1.734-1.87zm-6.205 0c-.969 0-1.734.833-1.734 1.87 0 1.037.782 1.87 1.734 1.87.969 0 1.734-.833 1.734-1.87.017-1.037-.765-1.87-1.734-1.87z" fill="#7289da"/><path d="M28.237 0H5.457a3.49 3.49 0 00-3.485 3.485v22.78a3.49 3.49 0 003.485 3.485h19.278l-.901-3.111 2.176 2.006 2.057 1.887 3.672 3.179V3.485C31.722 1.564 30.158 0 28.237 0zm-6.562 22.015s-.612-.731-1.122-1.36c2.227-.629 3.077-2.006 3.077-2.006a9.728 9.728 0 01-1.955 1.003 12.19 12.19 0 01-2.465.731 11.909 11.909 0 01-4.403-.017 12.943 12.943 0 01-2.499-.731 9.962 9.962 0 01-1.241-.578c-.051-.034-.102-.051-.153-.085-.034-.017-.051-.034-.068-.034-.306-.17-.476-.289-.476-.289s.816 1.343 2.975 1.989a69.043 69.043 0 01-1.139 1.394c-3.757-.119-5.185-2.567-5.185-2.567 0-5.423 2.448-9.826 2.448-9.826 2.448-1.819 4.76-1.768 4.76-1.768l.17.204c-3.06.867-4.454 2.21-4.454 2.21s.374-.204 1.003-.476c1.819-.799 3.264-1.003 3.859-1.071.102-.017.187-.034.289-.034 1.037-.136 2.21-.17 3.434-.034 1.615.187 3.349.663 5.117 1.615 0 0-1.343-1.275-4.233-2.142l.238-.272s2.329-.051 4.76 1.768c0 0 2.448 4.403 2.448 9.826 0-.017-1.428 2.431-5.185 2.55z" fill="#7289da"/></svg>