<svg xmlns="http://www.w3.org/2000/svg" width="708" height="708"><g fill="#64ab3d"><path d="M707.888 255.7H694.01c-4.872 3.16-7.301 11.684-7.301 24.341v62.297c0 3.014-2.312 5.56-5.231 5.89-.22.022-39.976 0-39.976 0l-.073-58.94c0-18.012 8.523-29.206 15.335-33.588h-61.339V223.81h112.464zM131.221 293.942V260.36c0-26.762-4.624-36.251-22.877-36.251H66.985v31.876h11.677c6.328 0 7.06 2.67 7.06 17.757v24.333c0 12.899-5.846 21.166-17.764 21.166-12.166 0-18.495-7.784-18.495-21.166V224.11H4.696v69.833c0 42.09 25.548 57.666 63.262 57.666 38.44 0 63.263-15.086 63.263-57.666M204.983 316.57v-48.176c0-31.877-3.41-44.285-23.844-44.285h-41.365v31.876h12.408c6.57 0 7.053 6.812 7.053 15.086v33.333c0 11.193-1.215 12.167-4.375 12.167h-21.656v31.869h56.934c9.98 0 14.845-6.321 14.845-31.87M263.629 348.44V248.194c0-14.355-7.294-24.085-24.575-24.085h-27.253v31.876c4.383 0 6.329 2.43 6.329 7.053v85.402zM396.995 276.42c0-43.312-10.462-52.311-34.313-52.311h-91.73v31.876h66.673c10.22 0 12.65 2.67 12.65 25.548 0 24.327-9.973 35.038-24.086 35.038v31.869h13.872c24.326 0 56.934-15.079 56.934-72.02m-80.536.95h-44.526v115.398h44.526zM530.588 294.915V250.63c0-20.924-9.006-26.521-20.2-26.521h-86.374c-11.926 0-20.442 6.08-20.442 26.521v44.285c0 44.036 32.609 56.693 63.995 56.693 32.85 0 63.021-11.684 63.021-56.693m-45.016 3.16c0 13.623-6.08 21.166-18.005 21.166-11.925 0-18.978-7.784-18.978-21.166v-29.198c0-10.221.973-12.892 7.301-12.892h22.63c6.32 0 7.052 2.67 7.052 12.892zM589.008 295.888v-47.694c0-14.355-4.865-24.085-22.139-24.085h-29.44v31.876c4.865 0 6.08 2.43 6.08 7.053v32.85z"/><path d="M346.99 439.094c93.727 0 261.545-13.827 336.323-72.642.659-.534 2.451-1.595 3.797-.885.79.417 1.061.966 1.449 1.763 1.726 3.548 2.356 7.375 2.619 12.255.263 4.814.359 7.74-1.23 12.298-.592 1.705-1.045 2.612-2.033 4.104-.783 1.178-1.749 2.32-2.29 2.817-1.953 1.778-7.411 5.831-7.887 6.19-82.226 60.768-230.18 79.197-330.654 79.197h-2.729c-100.465 0-248.42-18.43-330.646-79.197-.483-.359-5.94-4.412-7.887-6.19-.541-.497-1.514-1.639-2.297-2.817-.98-1.492-1.441-2.4-2.034-4.104-1.58-4.558-1.492-7.484-1.23-12.298.272-4.88.893-8.707 2.627-12.255.388-.797.659-1.346 1.449-1.763 1.339-.71 3.131.351 3.79.885 74.786 58.815 242.604 72.642 336.33 72.642z"/><path d="M346.99 439.094c93.727 0 261.545-13.827 336.323-72.642.659-.534 2.451-1.595 3.797-.885.79.417 1.061.966 1.449 1.763 1.726 3.548 2.356 7.375 2.619 12.255.263 4.814.359 7.74-1.23 12.298-.592 1.705-1.045 2.612-2.033 4.104-.783 1.178-1.749 2.32-2.29 2.817-1.953 1.778-7.411 5.831-7.887 6.19-82.226 60.768-230.18 79.197-330.654 79.197h-2.729c-100.465 0-248.42-18.43-330.646-79.197-.483-.359-5.94-4.412-7.887-6.19-.541-.497-1.514-1.639-2.297-2.817-.98-1.492-1.441-2.4-2.034-4.104-1.58-4.558-1.492-7.484-1.23-12.298.272-4.88.893-8.707 2.627-12.255.388-.797.659-1.346 1.449-1.763 1.339-.71 3.131.351 3.79.885 74.786 58.815 242.604 72.642 336.33 72.642z"/></g></svg>