<svg xmlns="http://www.w3.org/2000/svg" viewBox="0 0 108.4 108.5"><path d="M34.3 54.2c0-11.1 9-20.1 20.1-20.1 3.7 0 7.1 1 10 2.7l4-7.2c-4.1-2.4-8.9-3.7-14-3.7-7.8 0-14.9 3.2-20 8.3-5.1 5.1-8.3 12.2-8.3 20 0 7.8 3.1 14.9 8.3 20l.4.4 5.6-6 .1.1c-3.9-3.7-6.2-8.8-6.2-14.5zm40.1-19.8-5.6 6c3.4 3.6 5.5 8.5 5.5 13.8 0 11.1-9 20.1-20 20.1-3.4 0-6.5-.8-9.3-2.3l-4 7.2c4 2.1 8.5 3.3 13.3 3.3 7.8 0 14.9-3.2 20-8.3 5.1-5.1 8.3-12.2 8.3-20 0-7.7-3.1-14.7-8.2-19.8z"/><path d="M38.9 54.2c0-8.5 6.9-15.4 15.4-15.4s15.4 6.9 15.4 15.4-6.9 15.4-15.4 15.4-15.4-6.9-15.4-15.4zm.7 0c0 8.1 6.6 14.7 14.7 14.7S69 62.3 69 54.2s-6.6-14.7-14.7-14.7-14.7 6.6-14.7 14.7z"/><path d="M56.7 54.2c0 1.3-1.1 2.4-2.4 2.4-1.3 0-2.4-1.1-2.4-2.4 0-1.3 1.1-2.4 2.4-2.4 1.4 0 2.4 1.1 2.4 2.4zM28.8 81.1l5.7-6.2c-5.4-5.2-8.8-12.5-8.8-20.7 0-15.9 12.8-28.7 28.7-28.7 5.2 0 10 1.4 14.2 3.8l4-7.4c-5.4-3-11.6-4.8-18.2-4.8-10.2 0-19.5 4.2-26.2 10.9-6.7 6.7-10.9 16-10.9 26.2s4.1 19.5 10.9 26.2c.1.2.3.5.6.7zM80.5 28s0-.1 0 0l-5.8 6.1c5.1 5.2 8.3 12.3 8.3 20.1C83 70 70.2 82.9 54.3 82.9c-4.9 0-9.5-1.2-13.5-3.4l-4.1 7.3c5.3 2.9 11.3 4.5 17.7 4.5 10.2 0 19.5-4.2 26.2-10.9 6.7-6.7 10.9-16 10.9-26.2-.1-10.2-4.3-19.5-11-26.2z"/><path d="m86.8 21.7-.3-.3-5.7 6.2c6.8 6.8 11.1 16.2 11.1 26.6 0 20.7-16.8 37.5-37.5 37.5-6.5 0-12.6-1.6-17.9-4.5l-4.1 7.3c6.5 3.6 14 5.6 22 5.6 12.7 0 24.2-5.1 32.5-13.5 8.3-8.3 13.4-19.8 13.4-32.5-.1-12.6-5.2-24.1-13.5-32.4zM22.7 87.6l5.7-6.2c-7.2-6.8-11.7-16.5-11.7-27.2 0-20.7 16.8-37.5 37.5-37.5 6.7 0 13 1.8 18.4 4.8l4-7.4C70 10.4 62.3 8.2 54.1 8.2c-12.7 0-24.2 5.1-32.5 13.5C13.5 30 8.4 41.5 8.4 54.2s5.2 24.2 13.5 32.5c.2.3.5.6.8.9z"/><path d="m92 15.5-5.2 5.6c8.6 8.4 13.9 20.1 13.9 33.1 0 25.6-20.8 46.4-46.4 46.4-8.1 0-15.6-2.1-22.2-5.7l-3.9 6.9c7.7 4.2 16.6 6.7 26 6.7 29.9 0 54.2-24.3 54.2-54.2 0-15.2-6.3-29-16.4-38.8zM55.1.1h-.9C24.5.1.3 24.1 0 53.8v.5c0 15.5 6.6 29.5 17.1 39.4l5.4-5.8c-9-8.5-14.6-20.4-14.6-33.7 0-25.6 20.8-46.4 46.4-46.4 8.2 0 16 2.2 22.7 5.9L80.7 7C73.1 2.7 64.4.2 55.1.1z"/></svg>