<svg xmlns="http://www.w3.org/2000/svg" viewBox="0 0 71 54.118"><path d="M60.104 4.486A58.55 58.55 0 0 0 45.652.004a.22.22 0 0 0-.232.11 40.783 40.783 0 0 0-1.8 3.696c-5.457-.817-10.886-.817-16.232 0-.484-1.164-1.2-2.586-1.827-3.696a.228.228 0 0 0-.233-.11 58.39 58.39 0 0 0-14.452 4.482.207.207 0 0 0-.095.082C1.577 18.318-.945 31.733.292 44.98a.244.244 0 0 0 .093.166c6.073 4.46 11.956 7.167 17.729 8.962a.23.23 0 0 0 .249-.082 42.08 42.08 0 0 0 3.627-5.9.225.225 0 0 0-.123-.312 38.772 38.772 0 0 1-5.539-2.64.228.228 0 0 1-.022-.377c.372-.28.744-.57 1.1-.862a.22.22 0 0 1 .23-.032c11.62 5.306 24.198 5.306 35.681 0a.219.219 0 0 1 .232.029c.356.293.728.586 1.103.865a.228.228 0 0 1-.02.377 36.384 36.384 0 0 1-5.54 2.637.227.227 0 0 0-.12.316 47.249 47.249 0 0 0 3.623 5.896.225.225 0 0 0 .25.085c5.8-1.795 11.683-4.502 17.756-8.962a.228.228 0 0 0 .093-.163c1.48-15.315-2.48-28.618-10.498-40.412a.18.18 0 0 0-.093-.085zM23.725 36.913c-3.498 0-6.38-3.212-6.38-7.156s2.826-7.156 6.38-7.156c3.582 0 6.437 3.24 6.38 7.156 0 3.944-2.826 7.156-6.38 7.156zm23.592 0c-3.498 0-6.38-3.212-6.38-7.156s2.826-7.156 6.38-7.156c3.582 0 6.437 3.24 6.38 7.156 0 3.944-2.798 7.156-6.38 7.156z" fill="#5865f2"/></svg>