<svg xmlns="http://www.w3.org/2000/svg" version="1.1" id="Layer_1" x="0" y="0" width="85.843" height="85.843" xml:space="preserve"><style type="text/css" id="style28506">.st0{fill-rule:evenodd;clip-rule:evenodd;fill:#ec1944}</style><g id="g28530" transform="translate(0 26.668)"><g id="g28524"><g id="g28522"><path class="st0" d="M48.729 15.835c0-.981 1.378-1.693 3.491-1.693 2.41 0 4.674.855 6.083 2.057a.55.55 0 00.833-.146l1.72-3.42a.526.526 0 00-.141-.683c-2.125-1.597-4.985-2.744-8.541-2.744-5.833 0-9.093 3.261-9.093 6.981 0 8.686 13.181 5.68 13.181 9.499 0 1.045-1.194 1.93-3.72 1.93-2.51 0-5.476-.99-7.2-2.359a.55.55 0 00-.809.145l-1.953 3.267a.525.525 0 00.108.678c2.353 1.977 5.903 3.144 9.579 3.144 6.154 0 9.599-3.031 9.599-7.118-.003-8.753-13.137-6.049-13.137-9.538z" id="path28514"/><path class="st0" d="M22.154 1.027h-5.131a.374.374 0 00-.374.374v10.83c-1.719-1.878-4.025-3.022-6.62-3.022C4.49 9.209 0 14.421 0 20.85s4.49 11.641 10.028 11.641c2.595 0 4.902-1.144 6.62-3.022v2.097c0 .206.167.374.374.374h5.131a.374.374 0 00.374-.374V1.4a.373.373 0 00-.373-.373zM11.26 27.602c-2.977 0-5.389-3.024-5.389-6.755s2.413-6.755 5.389-6.755c2.963 0 5.367 2.998 5.388 6.705v.099c-.02 3.709-2.424 6.706-5.388 6.706z" id="path28516"/><path class="st0" d="M77.013 9.207c-2.711 0-4.796 1.139-6.165 2.998V1.4a.374.374 0 00-.374-.374h-5.131a.374.374 0 00-.374.374v30.166c0 .206.167.374.374.374h5.131a.374.374 0 00.374-.374v-12.9c.004-2.92 2.09-4.548 4.609-4.548 2.522 0 4.502 1.55 4.502 5.356l.005 12.092c0 .206.167.374.374.374h5.131a.374.374 0 00.374-.374v-12.45c.001-6.845-3.928-9.909-8.83-9.909z" id="path28518"/><path d="M29.194 3.474c0-1.92 1.6-3.474 3.474-3.474a3.472 3.472 0 013.474 3.474 3.472 3.472 0 01-3.474 3.474c-1.874 0-3.474-1.554-3.474-3.474zm10.124 22.821c-2.348 1.364-4.866 1.724-6.6 1.727-1.734-.003-4.253-.362-6.6-1.727-.385-.215-.59.161-.51.489.797 3.275 3.666 5.704 7.089 5.724h.042c3.423-.02 6.292-2.448 7.089-5.724.08-.329-.125-.705-.51-.489zm-1.389-8.271c-1.854 1.077-3.842 1.361-5.211 1.363-1.369-.002-3.358-.286-5.211-1.363-.304-.17-.466.127-.403.386.629 2.586 2.894 4.504 5.597 4.519h.033c2.703-.016 4.968-1.933 5.597-4.519.064-.259-.098-.556-.402-.386zm-1.479-7.049c-1.327.771-2.752.975-3.732.976-.98-.002-2.405-.205-3.732-.976-.218-.122-.333.091-.288.276.451 1.852 2.073 3.225 4.008 3.236h.024c1.936-.011 3.558-1.384 4.008-3.236.045-.185-.071-.397-.288-.276z" id="path28520" fill="#ec1944"/></g></g></g></svg>