<svg xmlns="http://www.w3.org/2000/svg" width="373" height="373"><g fill-rule="nonzero" fill="none"><path d="M64.577 206.826c18.338 38.28 80.013 47.276 137.743 20.096 57.737-27.18 89.675-80.236 71.337-118.516-3.137-6.545 3.702-30.644-4.173-30.127-19.796 1.304-31.488-3.98-46.003-8.578-27.693-8.784-61.975-8.28-93.37 6.503-27.15 12.772-47.31 33.952-59.145 56.782-8.876 17.121-16.337 37.111-27.821 48.474-5.803 5.744 18.18 18.58 21.432 25.366" fill="#000"/><path d="M4.124 279.908C29.43 332.73 394.313 160.974 369 108.15c-16.409-34.242-122.378-46.504-223.138.928C45.102 156.511-15.728 238.476 4.124 279.908" fill="#000"/><path d="M5.079 281.9c16.344 34.114 119.576 40.638 220.328-6.794 100.76-47.425 160.89-130.849 144.547-164.964-16.344-34.115-112.552-25.997-213.311 21.435C55.883 179.01-11.266 247.784 5.079 281.9" fill="#07f"/><path d="M114.17 264.561c7.762 16.2 52.85 11.079 100.703-11.447 47.854-22.526 80.35-53.92 72.588-70.128-7.761-16.2-52.849-11.072-100.702 11.454-47.854 22.526-80.35 53.92-72.588 70.121" fill="#fff"/></g></svg>