<svg xmlns="http://www.w3.org/2000/svg" data-name="Layer 1" width="349.876" height="349.876"><path d="M349.735 211.528c-1.9 24.2-11.2 64.9-77.1 85-43.5 13.1-84.6 6.8-107 1.1-.5 8.9-1.5 12.7-2.9 14.2-1.9 1.9-16.1 10.1-23.9-1.5-3.5-5.5-5.3-15.5-6.3-24.4-50.4-23.2-73.6-56.6-74.5-58.1-1.1-1.1-12.6-13.1-1.1-27.8 10.8-13.3 46.1-26.6 77.9-32 1.1-27.2 4.3-47.7 8.1-57.1 4.6-10.9 10.4-1.1 15.4 6.3 4.2 5.5 6.7 29.2 6.9 48.1 20.8-1 33.1.5 56.3 4.7 30.2 5.5 50.4 20.9 48.6 38.4-1.3 17.2-17.1 24.3-23.1 24.8-6.3.5-16.1-4-16.1-4-6.7-3.2-.5-6 7.6-9.5 8.8-4.3 6.8-8.7 6.8-8.7-3.3-9.6-42.5-16.3-81.5-16.3-.2 21.5.9 57.2 1.4 78 27.3 5.2 47.7 4.2 47.7 4.2s99.6-2.8 102.6-66.4c3-63.6-99.3-124.8-175-144.2-75.6-19.8-118.4-6-122.1-4.1-4 2-.3 2.6-.3 2.6a71.47 71.47 0 0111.2 3c7.5 2.4 1.7 6.3 1.7 6.3-12.9 4.1-27.4 1.5-30.2-4.4-2.8-5.9 1.9-11.2 7.3-18.8 5.4-8 11.3-7.7 11.3-7.7 93.5-32.4 207.4 26.2 207.4 26.2 106.7 54.1 124.9 117.5 122.9 142.1zm-282.2-3.3c-10.6 5.2-3.3 12.7-3.3 12.7 19.9 21.4 44.4 34.8 67.7 43.1 2.7-36.9 2.3-49.9 2.6-68.5-36.4 2.5-57.4 8.3-67 12.7z" fill="#0063e5"/></svg>