<svg xmlns="http://www.w3.org/2000/svg" viewBox="0 0 350 282.9"><path fill="#136878" d="M349.8 178c-2 24.2-11.2 65-77 85a204.4 204.4 0 0 1-107 1.1c-.6 9-1.6 12.7-3 14.2-2 2-16 10.1-24-1.5a65 65 0 0 1-6.2-24.4C82.2 229.2 59 195.8 58 194.5a20.3 20.3 0 0 1-1-27.9c10.7-13.3 46-26.6 77.8-32 1-27.2 4.3-47.7 8-57 4.7-11 10.5-1.2 15.5 6.2 4.2 5.5 6.7 29.2 7 48.1 20.7-1 33 .5 56.2 4.7 30.2 5.5 50.4 21 48.6 38.4a27.8 27.8 0 0 1-23 24.8c-6.4.5-16.2-4-16.2-4-6.7-3.2-.5-6 7.6-9.5 8.8-4.3 6.8-8.7 6.8-8.7-3.3-9.6-42.5-16.3-81.5-16.3-.2 21.5 1 57.2 1.4 78 27.3 5.2 47.8 4.2 47.8 4.2s99.6-2.8 102.6-66.4S216.4 52.3 140.7 33C65 13.1 22.3 27 18.7 29c-4 2-.4 2.5-.4 2.5 3.8.7 7.5 1.7 11.2 3 7.5 2.4 1.7 6.3 1.7 6.3-13 4-27.5 1.4-30.3-4.5s1.5-11.4 7.3-18.7c4.9-5.8 11.3-7.7 11.3-7.7C113-22.7 226.9 36 226.9 36c106.7 54.1 125 117.5 123 142.1zm-282.2-3.3c-10.5 5.2-3.3 12.8-3.3 12.8a169 169 0 0 0 67.8 43c2.7-36.9 2.3-49.9 2.6-68.5-36.4 2.5-57.4 8.3-67 12.7z"/></svg>