<svg xmlns="http://www.w3.org/2000/svg" viewBox="0 0 90 23.79"><path d="M40.58 13.7a.98.98 0 0 0-.14-.43l-.23-.44a9.27 9.27 0 0 0-1.81-1.75c-1.21-.95-3.02-2.18-2.04-3.42 1.29-1.46 3.47.65 2.42 2.47 1.13-.07 2.71-.94 2.63-2.33-.07-1.17-1.73-2.19-3.24-2.34-2.26-.29-5.2 1.03-5.35 3.07-.16 2.48 4.22 3.57 4.52 5.68.38 2.34-2.86 3.07-3.62 1.1.68-1.39.15-3.21-1.2-3.06-1.29.14-1.6 1.9-1.21 3.27 0 0 0 .15.14.3-.52.29-2.86 1.38-2.33-1.46.53-3.2 1.29-7 1.29-7s.67-2.33-1.51-1.75c-.69.15-2.58.8-4.68 1.53a10.26 10.26 0 0 0-1.96-3.06l-.76-.72C18.03.14 12.45-.8 7.47.94 7.47.94.07 3.5 0 9.11c0 4.23 4.3 4.45 6.56 4.23-.07.3-.15.58-.22.8-.45 1.53-.9 2.77-1.21 3.14.38.51 1.96 1.16 2.79 1.16.45 0 1.05-1.96 1.59-4.37.07-.44.22-.95.3-1.39 8.3-2.7 9.05-2.9 11.54-3.79.08.22.08.44.08.66.07.22.07.51.07.73a8.35 8.35 0 0 1-3.25 6.7 10.3 10.3 0 0 1-1.58 1.1c-4.6 2.77-11.39 3.21-13.2 1.03-.08-.16-.3-.6-.38-.89 0-.36-1.28.15-.9 1.46 0 .07 0 .07.07.15.23.88.6 1.67.99 2.19 1.58 2.04 5.65 2.18 9.88 1.1 1.13-.3 10.41-3.22 11.61-10.66a10.39 10.39 0 0 0-.14-3.79v-.06c-.08-.23-.08-.52-.24-.81 1.74-.58 2.65-.73 2.5.15l-1.06 5.9s-.98 4.6 2.94 4.6c1.44 0 2.64-.66 3.47-1.47 1.96 2.34 6.41 1.53 7.92-.8a3.34 3.34 0 0 0 .38-.73c.3-.65.23-1.24.07-1.74zm-26.1-3.35s-2.79.95-4.52 1.46c.38-2.04.52-4.01.45-4.89-.07-.43-.53-.87-1.13-1.09 0 0-2.04-.87-1.89.08l.08.22c.22 1.53-.15 3.93-.6 6.12-1.66 0-4.38-.37-4.31-2.7 0-3.42 4-7.36 10.71-7a8.88 8.88 0 0 1 7.78 4.96c.07.07.07.15.15.29 0 .07.07.15.07.22a297.15 297.15 0 0 0-6.79 2.33Zm56.88 6.78c-.37-.22-.6-.51-.6-.51-2.33-2.11-1.2-6.2-.9-7.07.3-.58.15-1.24-.3-1.3h-1.13c-.45-1.76-1.66-2.93-3.17-2.93-2.5 0-5.06 2.92-5.74 6.56a8.63 8.63 0 0 0-.08 2.77c-.82 1.17-1.65 1.9-2.33 1.9-.9 0-1.06-1.61-.83-3.72l1.06-5.69 1.05-5.83S58.7 0 57.5 0h-2.12l-1.35 7.87-.39 2.04a7.28 7.28 0 0 1-1.5 2.4l.15-.87c.38-2.76-.6-5.17-2.57-5.68-1.13-.3-2.4.15-3.47 1.16v-.07s.3-1.3-.9-1.3h-2.11L40.59 20.7c0 .14-.08.21-.08.36-.07.36-.07.65-.07.87-.08 1.32 2.63 2.04 3.02 1.76-.08-.52.07-1.32.22-2.34v-.15l.75-4.15a3.36 3.36 0 0 0 1.82 1.38c2.1.52 4.45-1.46 5.43-4.45a5.28 5.28 0 0 0 1.43-1.16c-.07.95-.15 1.82-.07 2.26a3.73 3.73 0 0 0 3.92 3.35c1.13 0 2.18-.87 3.02-2.03.6 1.16 1.58 1.96 2.86 1.96 1.36 0 2.8-.95 3.92-2.4 1.14 2.7 2.87 2.62 4 2.1h.08l.15-.06c-.15 0 .83-.59.37-.88zm-25.42-.94c-.75-.22-1.13-1.54-.9-3.22l.08.08a4.24 4.24 0 0 0 1.58 1.24c.52.14.98.22 1.43.29-.75 1.17-1.51 1.83-2.19 1.6zm3.03-3.8a6.21 6.21 0 0 1-.39 1.1 4.28 4.28 0 0 1-.9-.3 4.44 4.44 0 0 1-1.43-.94 3.7 3.7 0 0 1-.53-.58l-.23-.37c.68-2.26 1.96-3.94 2.94-3.64.9.21 1.21 2.33.53 4.73zm17.5-.3c-.53 2.42-1.74 4.24-2.8 4.17-1.06-.07-1.44-2.12-.98-4.45.53-2.4 1.74-4.23 2.8-4.15 1.05.07 1.5 2.03.97 4.44zM89.02 10.35c-.76 2.19-2.94 6.27-5.36 6.27-1.28 0-1.96-1.02-2.1-2.18.97.06 2.1-.52 3.01-1.39a6.1 6.1 0 0 0 1.5-2.04l.23-.44c.83-1.97.6-3.8-.38-4.66a1.35 1.35 0 0 0-.52-.37h-.08c-.15-.08-.37-.15-.53-.22h-.07a3.73 3.73 0 0 0-3.47 1.1c-1.59 1.3-2.79 4.37-2.79 7.07v.58c-.9 1.45-1.96 2.48-2.72 2.48-.9 0-1.05-1.61-.83-3.72l1.06-5.69.07-.36h1.29c.75 0 1.43.07 1.5.14.3-.65.16-1.3-.3-1.38h-2.26l.76-4.23s.3-1.31-.9-1.31H74l-.98 5.54h-2.95c-.45 0-.75-.08-.9-.15-.15.15-.38 1.24.68 1.4h3.02l-.23 1.08-.9 5.03c-.08 1.02-.16 1.83-.08 2.34a3.73 3.73 0 0 0 3.92 3.35c1.28 0 2.5-1.17 3.47-2.55a4.06 4.06 0 0 0 3.85 2.47c5.13 0 7.09-7.5 7.09-7.5-.15-.3-.53-.66-.98-.66zm-7.32.87c.08-.43.23-.87.45-1.38.68-1.46 1.74-2.55 2.42-2.33.68.22.68 1.53 0 3.06a6.55 6.55 0 0 1-1.29 1.9c-.6.65-1.73.65-1.73.65-.15-.87.15-1.9.15-1.9z"/><path d="m27 1.53 1.6-.15.67-1.38.68 1.38 1.58.23-1.13 1.01.23 1.53-1.36-.72-1.43.72.3-1.53Z" fill="#1185ed"/></svg>