<svg xmlns="http://www.w3.org/2000/svg" width="498.2" height="498.2" viewBox="0 0 373.6 373.6"><path d="M186 2.2c-.1.2-5.2.6-11.3 1-6 .3-12 .7-13 1l-6.6 1a225.7 225.7 0 0 0-35 8.2l-9 3a281.1 281.1 0 0 0-45 23.4C33.5 61.6 13 86.3 4.2 114.4L1.8 124 .6 130c-.8 4.7-.7 18.3 0 24.7C4 180.1 21 197.4 50 204.7c10.3 2.6 19.9 3.5 36.5 3.4 12.3 0 13.7.1 13.3 1.6l-3.1 11.5A310 310 0 0 1 81 267.4l-2 4.7c0 .3 2.6 2.2 5.8 4.3 11.9 8 32.3 14.3 35.9 11.3a49 49 0 0 0 7.8-15c5.9-18 9.4-31.9 14.5-57.7 1.7-8.5 3.3-15.7 3.6-16.2.6-1 52.5-18.4 53-17.8 7.2-6 9.8-10.4-4.4-8.7l-16.3 5.3a205.2 205.2 0 0 1-30.4 9c-.2-.3 0-2.7.5-5.4s1.3-7.6 1.6-10.9l1-8c.2-1 .8-4.5 1-7.5l1-8A194 194 0 0 0 155 107c-.5-1.7-2.4-4.7-4.2-6.5a57.9 57.9 0 0 0-19.1-10.2l-4.5-1.2c-.8-.3-4-.7-7.1-1-7.4-.7-8.5.6-7.1 8.4 1 5.6.9 36.4-.2 41l-1.1 8a357.9 357.9 0 0 1-8.5 47.7c-.5.5-3.3.8-6.2.7-21.4-.4-41.6-7-51.3-16.8-7.7-7.6-10.7-15.7-10.6-28 .3-29 18.7-59.8 48.9-81.3a178.4 178.4 0 0 1 50.8-23.5l11-2.4c13.4-3 20.7-3.6 43.4-3.5 18.2 0 22.8.4 34.5 3l4 .8a133.9 133.9 0 0 1 86.8 70.1 100.1 100.1 0 0 1 12.3 52.5c-1 17.7-2.7 27.5-7.6 42.1-13.3 39.8-47.7 73-98 94.1-18 7.7-41.4 15-55.5 17.3l-5 1-6 1-7.5 1.1c-15.3 2.4-41 2.3-56-.2a119.2 119.2 0 0 1-23-6.9 56.6 56.6 0 0 1-15.4-10c-3-3.2-8.6-13.8-8.6-16.7 0-1.2-.6-1.5-2.2-1-5.4 1.2-9.8 8-9.8 15 0 6 4.7 20.8 10 31.7 10.2 20.7 25.5 31 54.5 36.4 8.3 1.6 13.6 2 30.5 1.6 11.3-.2 22-.6 24-1l18-3c30-4.9 71.5-21.3 105.5-41.8a279.8 279.8 0 0 0 59.9-50 165.4 165.4 0 0 0 38-81.7c1.3-8 1.4-41.7.3-46.5-.3-1-.8-4.5-1.2-7.5-3-22.6-12.4-43.7-29.6-66A173.5 173.5 0 0 0 257 13.3c-5.7-1.8-11.4-3.6-12.8-3.8L237.7 8c-4-1-12.2-2.6-19.5-3.7-2-.3-9.3-.8-16.5-1a196.2 196.2 0 0 1-15.7-1z"/><path d="m200.3 178.5-3 18.4c-1.3 8.6-2.6 15.8-2.4 16.2.3.4 7.4-2.8 15.9-7.3 15.2-7.9 18-8.9 19.9-7 1 .8 8.7 5.1 21.9 12l7.8 4-.6-3.3-1-5.3-1-6-2.2-12.8c-1.6-9.4-1.4-10 3.4-14.3 2.9-2.5 21.2-20.5 21.2-20.8 0-.2-2.1-.7-4.7-1l-20.1-3-11.4-1.8-8-16.3c-4.3-9-8.1-16.4-8.4-16.4s-4 7.1-8.2 15.7c-4.2 8.7-8.1 16.1-8.5 16.4-.5.4-3 1-5.6 1.3l-7.1 1c-7.3 1.3-21.4 3-22.2 2.8-2.3-.6.2 2.5 9.3 11.4l10 10z" fill="#009fe3"/></svg>