<svg xmlns="http://www.w3.org/2000/svg" width="140" height="140"><path d="M63.135 72.82c0-.227-.117-.453-.235-.68l-.352-.68c-.704-1.135-2.816-2.722-2.816-2.722-1.878-1.475-4.694-3.403-3.169-5.33 1.995-2.269 5.398 1.02 3.756 3.855 1.76-.113 4.224-1.474 4.107-3.629-.118-1.814-2.7-3.402-5.046-3.629-3.52-.453-8.098 1.588-8.332 4.763-.235 3.856 6.571 5.557 7.04 8.846.588 3.63-4.458 4.763-5.632 1.701 1.056-2.155.235-4.99-1.878-4.763-1.995.227-2.464 2.95-1.877 5.103 0 0 0 .227.234.454-.821.454-4.459 2.155-3.637-2.268.821-4.99 1.995-10.887 1.995-10.887s1.056-3.629-2.347-2.722c-1.057.227-3.99 1.248-7.276 2.382-.587-1.475-1.526-3.062-3.051-4.763l-1.174-1.134c-5.398-4.99-14.082-6.464-21.827-3.743 0 0-11.5 3.97-11.618 12.702 0 6.577 6.689 6.917 10.21 6.577-.118.454-.235.907-.352 1.248-.705 2.381-1.409 4.31-1.878 4.876.587.794 3.051 1.814 4.342 1.814.704 0 1.643-3.06 2.464-6.804.118-.68.352-1.474.47-2.155 12.908-4.196 14.082-4.536 17.954-5.897.118.34.118.68.118 1.021.117.34.117.794.117 1.134 0 2.155-.47 5.444-3.051 8.505-.587.68-1.995 1.928-1.995 1.928a16.031 16.031 0 0 1-2.464 1.701c-7.159 4.31-17.72 4.99-20.537 1.588-.117-.227-.47-.907-.587-1.36 0-.568-1.995.226-1.408 2.267 0 .114 0 .114.118.227.352 1.361.938 2.608 1.525 3.402 2.464 3.176 8.801 3.402 15.373 1.701 1.76-.453 16.195-4.99 18.072-16.557.235-1.474.235-3.062 0-4.763 0-.34-.117-.794-.235-1.134v-.113c-.117-.34-.117-.794-.352-1.248 2.7-.907 4.108-1.134 3.873.227l-1.643 9.186s-1.525 7.144 4.577 7.144c2.23 0 4.107-1.02 5.398-2.268 3.051 3.63 9.975 2.382 12.322-1.247a5.2 5.2 0 0 0 .587-1.134c.469-1.02.352-1.928.117-2.722zm-40.604-5.216s-4.342 1.474-7.04 2.268c.586-3.176.82-6.238.703-7.599-.117-.68-.821-1.36-1.76-1.7 0 0-3.168-1.36-2.934.113l.118.34c.352 2.382-.235 6.124-.939 9.526-2.582 0-6.806-.567-6.69-4.196 0-5.33 6.22-11.454 16.665-10.887 6.924.34 10.444 4.536 12.087 7.712.117.113.117.227.235.453 0 .114.117.227.117.34a462.24 462.24 0 0 0-10.562 3.63zm88.483 10.546c-.587-.34-.939-.794-.939-.794-3.637-3.288-1.877-9.64-1.408-11 .47-.907.235-1.928-.47-2.04h-1.76c-.704-2.723-2.581-4.537-4.928-4.537-3.873 0-7.863 4.536-8.919 10.206-.235 1.588-.352 2.95-.117 4.31-1.291 1.814-2.582 2.948-3.638 2.948-1.408 0-1.643-2.495-1.291-5.784l1.643-8.845 1.643-9.074s.47-2.04-1.408-2.04h-3.286l-2.113 12.248-.586 3.175c-.704 1.588-1.408 2.835-2.347 3.742.117-.793.234-1.36.234-1.36.587-4.31-.938-8.052-3.99-8.846-1.76-.454-3.755.227-5.398 1.814v-.113s.47-2.04-1.408-2.04h-3.286l-4.107 23.587c0 .227-.117.34-.117.567-.118.567-.118 1.02-.118 1.36-.117 2.042 4.108 3.176 4.694 2.723-.117-.794.118-2.042.352-3.63v-.226l1.174-6.464c.704 1.02 1.643 1.814 2.816 2.154 3.286.794 6.924-2.268 8.45-6.917.821-.454 1.525-1.02 2.23-1.815-.118 1.475-.235 2.835-.118 3.516.352 2.722 2.347 5.216 6.102 5.216 1.76 0 3.403-1.36 4.694-3.175.939 1.815 2.465 3.062 4.46 3.062 2.112 0 4.342-1.474 6.102-3.742 1.76 4.196 4.46 4.082 6.22 3.288h.117l.234-.113c-.234 0 1.291-.907.587-1.36zm-39.547-1.474c-1.174-.34-1.76-2.382-1.408-4.99l.117.114c.704.907 1.526 1.474 2.464 1.927.822.227 1.526.34 2.23.454-1.173 1.814-2.347 2.835-3.403 2.495zm4.694-5.897c-.117.567-.352 1.134-.587 1.7-.47-.112-.939-.226-1.408-.453a6.895 6.895 0 0 1-2.23-1.474c-.352-.34-.586-.567-.821-.907l-.352-.567c1.056-3.516 3.05-6.124 4.576-5.67 1.409.34 1.878 3.628.822 7.37zm27.225-.454c-.821 3.743-2.699 6.578-4.342 6.464-1.642-.113-2.23-3.288-1.525-6.917.821-3.743 2.699-6.578 4.342-6.464 1.643.113 2.347 3.175 1.525 6.917z"/><path d="M138.474 67.604c-1.173 3.402-4.576 9.752-8.331 9.752-1.995 0-3.052-1.587-3.286-3.402 1.525.114 3.286-.794 4.694-2.154.939-.794 1.76-1.928 2.347-3.176l.352-.68c1.29-3.062.939-5.897-.587-7.258-.235-.227-.47-.454-.821-.567h-.118c-.234-.114-.587-.227-.821-.34h-.118c-1.173-.227-3.285-.34-5.398 1.7-2.464 2.042-4.342 6.805-4.342 11v.908c-1.408 2.268-3.05 3.856-4.224 3.856-1.409 0-1.643-2.495-1.291-5.784l1.643-8.845.117-.567h1.995c1.174 0 2.23.113 2.347.226.47-1.02.235-2.04-.47-2.154h-3.519l1.174-6.578s.468-2.04-1.41-2.04h-3.285l-1.526 8.618h-4.577c-.704 0-1.173-.114-1.408-.227-.235.227-.587 1.928 1.056 2.155h4.694l-.352 1.7-1.408 7.826c-.117 1.587-.235 2.835-.117 3.63.352 2.72 2.347 5.215 6.102 5.215 1.995 0 3.873-1.814 5.398-3.969 1.056 2.268 3.051 3.856 5.985 3.856 7.98 0 11.031-11.68 11.031-11.68-.235-.454-.821-1.02-1.526-1.02zm-11.383 1.36c.118-.68.352-1.36.704-2.154 1.057-2.268 2.7-3.97 3.756-3.63 1.056.34 1.056 2.382 0 4.764-.587 1.247-1.291 2.268-1.995 2.948-.94 1.02-2.7 1.02-2.7 1.02-.234-1.36.235-2.948.235-2.948z"/><path d="m42.012 2.382 2.464-.227L45.532 0l1.056 2.155 2.465.34-1.76 1.588.352 2.381-2.113-1.134-2.23 1.134.47-2.381z" style="fill:#1185ed" transform="translate(0 51.5)"/></svg>