<svg xmlns="http://www.w3.org/2000/svg" viewBox="-104.5 316.5 284 284" width="284" height="284" fill="#148dea"><path d="M-104.2 405.45H-63c23.6 0 51.6 17.7 51.6 53 0 32.4-28 53-51.6 53h-41.2zm63.3 53c0-22.1-17.7-26.5-33.9-26.5v53c16.2 0 33.9-4.4 33.9-26.5zm41.1-53h29.5v39.8h.3l23.3-39.8h33.9l-30.9 48.6 33.9 57.5H56.3l-26.2-45.7h-.3v45.7H.3v-106.1zm98 0h42.7c19.2 0 32.4 11.5 32.4 26.5 0 10-3.5 18.6-11.5 21.1v.3c6.6 2.5 17.4 11.5 17.4 25.8 0 21.2-16.2 32.4-33.9 32.4H98.2zm38.5 42.4c5 0 9.3-3.2 9.3-9.3 0-5.7-4.3-9.3-9.3-9.3h-9v18.6zm2.6 38.4c5.9 0 9.3-4.7 9.3-10.6a10.54 10.54 0 00-10.6-10.6h-10.3v21.2z"/></svg>