<svg xmlns="http://www.w3.org/2000/svg" width="246.043" height="246.043"><g stroke="#fff" stroke-width="3"><path d="M154.07 200.794l5.374 17.869c-17.48 5.189-35.514 8.985-54.778 8.07-75.638-3.59-102.318-42.135-103.151-84.292C.463 89.244 55.42 55.098 125.334 55.434c33.64-.58 123.452 12.044 119.055 87.424-3.08 52.788-47.225 61.732-59.17 60.257-17.41-2.15-24.172-5.773-28.96-9.682l36.923-21.127c2.834.698 6.792 2.277 9.262 1.678 4.352-1.053 16.161-6.133 17.4-31.41 1.312-26.75-19.164-65.11-106.512-64.705-23.33.211-88.038 5.73-88.145 65.405 1.178 13.661 2.737 62.206 83.834 64.377 19.605.525 29.89-1.744 45.048-6.857z" fill="#989898"/><path d="M168.996 19.174l1.728 79.525c-5.343-3.849-12.963-7.012-21.754-7.012H86.795c-33.886.834-38.153 30.529-38.153 34.278v33.195c0 17.807 13.228 28.02 23.75 32.646 4.45 1.956 9.565 1.627 11.428 1.627h72.44c31.062-5.344 43.177-25.158 43.177-40.71V19.172zM94.623 112.46h54.675c7.603 0 20.893 5.843 21.409 24.127v15.175c0 16.623-16.88 20.662-19.267 21.034-1.473.246-56.364.373-56.364.373-15.247-.581-17.01-13.616-17.01-16.192v-27.806c.63-14.206 12.936-16.833 16.557-16.711z" fill="#39b34a"/></g></svg>