<svg xmlns="http://www.w3.org/2000/svg" width="49.821" height="49.821" viewBox="0 0 13.182 13.182"><defs><clipPath clipPathUnits="userSpaceOnUse" id="a"><path d="M0 0h595.276v841.89H0z"/></clipPath></defs><g clip-path="url(#a)" transform="matrix(.35278 0 0 -.35278 -184.405 43.904)"><path d="M554.844 94.168l1.652-1.656c-7.259-7.18-18.954-7.244-26.287-.138-7.333 7.104-7.599 18.753-.599 26.184 7.002 7.427 18.688 7.897 26.265 1.052l-1.572-1.73a16.436 16.436 0 01-15.216 3.694c-8.761-2.307-13.985-11.255-11.67-19.982 2.316-8.729 11.295-13.937 20.056-11.63a16.34 16.34 0 017.371 4.206" fill="#5391d4"/><path d="M554.862 110.858l2.144.944a14.91 14.91 0 00-4.532-17.842 15.043 15.043 0 00-18.469.061 14.916 14.916 0 00-4.408 17.875l2.138-.957a12.522 12.522 0 01-.69-8.392c1.785-6.734 8.711-10.75 15.47-8.972 6.76 1.78 10.788 8.682 9.002 15.417-.172.647-.39 1.271-.655 1.866" fill="#f03b41"/><path d="M539.544 113.826l-.984 2.119a11.277 11.277 0 0013.53-3.202 11.179 11.179 0 00.073-13.855 11.276 11.276 0 00-13.493-3.344l.96 2.13a8.895 8.895 0 015.926-.485c4.757 1.253 7.593 6.109 6.336 10.849-1.257 4.737-6.13 7.563-10.888 6.31a8.926 8.926 0 01-1.46-.522" fill="#63c66a"/></g></svg>