<svg viewBox="0 0 480 480" xmlns="http://www.w3.org/2000/svg" fill-rule="evenodd" clip-rule="evenodd" stroke-linejoin="round" stroke-miterlimit="1.414"><path fill="none" d="M0 0h480v480H0z"/><clipPath id="a"><path d="M0 0h480v480H0z"/></clipPath><g clip-path="url(#a)"><circle cx="240" cy="240" r="240" fill="#f05751"/><clipPath id="b"><circle cx="240" cy="240" r="240"/></clipPath><g clip-path="url(#b)"><path d="M403.396 148.117H76.617l51.317-56.926a30.001 30.001 0 0 1 22.282-9.913h178.812a30 30 0 0 1 22.133 9.749l52.235 57.09z"/><path d="M408.707 179.288c0-25.178-20.442-45.62-45.62-45.62H116.879c-25.178 0-45.62 20.442-45.62 45.62v308.885c0 25.178 20.442 45.62 45.62 45.62h246.208c25.178 0 45.62-20.442 45.62-45.62V179.288z" fill="#ffdf83"/><path d="M363.415 128.357c25.741.245 49.356 21.705 50.553 48.641.029.653.043 1.307.049 1.961.327 103.181.327 206.362 0 309.542-.197 20.765-14.232 40.885-34.305 47.823-5.23 1.807-10.752 2.727-16.297 2.779-82.287.261-164.576.261-246.864 0-20.726-.197-40.861-14.159-47.823-34.306-1.807-5.229-2.726-10.752-2.779-16.296-.327-103.18-.327-206.361 0-309.542.198-20.845 14.155-40.72 34.011-47.719 5.322-1.876 10.951-2.829 16.591-2.883 82.288-.26 164.577-.26 246.864 0zm-246.527 10.622c-20.409.065-39.329 17.148-40.277 38.49a44.935 44.935 0 0 0-.04 1.558 48943.216 48943.216 0 0 0 0 309.407c.193 20.221 17.146 39.059 38.49 40.007.519.023 1.038.035 1.557.04 82.243.26 164.487.26 246.73 0 20.241-.193 39.059-17.146 40.007-38.489.023-.519.035-1.039.04-1.558.326-103.135.326-206.272 0-309.407-.159-16.663-11.48-32.652-27.621-38.008a40.355 40.355 0 0 0-12.696-2.04h-246.19z" fill-rule="nonzero"/><path d="M240.053 320.279c12.33 0 22.34-2.608 22.34 9.722 0 12.329-10.01 22.339-22.34 22.339-12.329 0-22.339-10.01-22.339-22.339 0-12.33 10.01-9.722 22.339-9.722z" fill="#333"/><path d="M253.434 347.902c0-7.395-5.986-14.263-13.381-14.263-7.395 0-13.557 6.738-13.557 14.133 4.579 3.396 9.319 4.657 13.683 4.58 4.554-.08 8.264-1.051 13.255-4.45z" fill="#f04e50"/><path d="M216.327 353.475c0 13.095 10.631 23.727 23.726 23.727 13.095 0 23.726-10.632 23.726-23.727-5.536 3.929-14.261 7.118-23.726 7.118s-18.19-3.189-23.726-7.118z" fill="#eec34b"/><path d="M328.031 415.93a2.24 2.24 0 0 1 4.207 0l8.379 22.912 24.38.889a2.24 2.24 0 0 1 1.3 4.001l-19.201 15.049 6.688 23.462a2.239 2.239 0 0 1-3.403 2.472l-20.246-13.61-20.247 13.61a2.237 2.237 0 0 1-2.565-.047 2.238 2.238 0 0 1-.838-2.425l6.688-23.462-19.201-15.049a2.24 2.24 0 0 1 1.3-4.001l24.38-.889 8.379-22.912z" fill="#f7903b"/><path fill="#080605" d="M154.78 199.85h176.623v11.416H154.78zM262.696 228.948c-15.172-17.595-30.302-17.357-45.392 0v11.417c15.09-18.589 30.22-18.844 45.392 0v-11.417z"/><path d="M121.172 205.783c38.986.19 111.307-6.162 111.051 37.294-.36 61.092-72.064 120.181-111.051 120.181-38.986 0-70.638-35.281-70.638-78.738 0-43.456 4.882-79.057 70.638-78.737z" fill="#ff9138"/><path d="M151.572 205.56c18.583.064 37.463.369 54.979 6.347 9.89 3.375 19.484 9.406 23.455 19.016 2.737 6.624 2.482 14.073 1.666 21.082-2.838 24.362-15.731 46.838-32.426 65.608-16.878 18.975-37.81 35.387-61.589 42.821-19.113 5.976-40.704 1.335-57.018-11.438-20.018-15.672-30.253-41.554-30.096-67.518.142-23.49.637-49.152 21.591-64.058 17.167-12.212 40.207-11.484 58.736-11.685 6.897-.082 13.813-.185 20.702-.175zm-2.257 12.617c-20.372.043-41.217-1.572-58.521 4.021-7.55 2.441-14.64 6.717-19.15 13.613-6.839 10.456-7.785 23.517-8.273 35.757-.132 3.327-.19 6.657-.21 9.987-.163 26.921 12.507 54.32 38.015 65.037 10.517 4.419 22.218 5.206 33.395 1.583 13.371-4.335 25.499-12.112 36.52-21.055 18.017-14.619 33.368-32.966 42.137-54.368 3.967-9.68 6.654-20.023 6.368-30.592-.272-10.031-10.221-16.671-21.799-19.714-15.624-4.105-32.096-4.275-48.482-4.269z" fill="#080605" fill-rule="nonzero"/><path d="M358.92 205.783c-38.986.19-111.306-6.162-111.05 37.294.36 61.092 72.064 120.181 111.05 120.181 38.986 0 70.638-35.281 70.638-78.738 0-43.456-4.881-79.057-70.638-78.737z" fill="#ff9138"/><path d="M330.794 205.559c29.109.062 59.39-3.325 80.022 14.074 12.234 10.318 16.73 27.805 18.025 43.319 1.378 16.505 1.494 33.071-3.498 48.403-7.775 23.879-26.936 44.443-51.979 50.252-25.527 5.922-52.329-8.178-73.442-25.613-18.847-15.563-34.871-35.022-44.309-57.435-4.875-11.576-8.077-23.933-7.73-36.741.191-7.065 2.767-14.081 7.638-19.228 10.75-11.361 28.28-14.277 44.211-15.829 10.313-1.004 20.712-1.207 31.062-1.202zm-2.243 12.619c-17.869.062-36.317.049-52.801 6.345-5.778 2.206-11.557 5.553-13.913 11.011-1.555 3.6-1.466 7.687-1.191 11.684 1.629 23.715 14.599 45.581 31.037 63.57 14.983 16.397 33.259 30.715 53.839 37.387 16.902 5.48 36.056.433 49.776-12.192 14.31-13.168 21.677-32.915 21.641-52.456-.001-.658-.004-1.315-.008-1.972-.068-11.207-.29-22.473-3.226-33.431-2.024-7.557-5.749-14.864-12.194-19.783-13.253-10.117-31.631-9.894-46.391-9.939-8.866-.044-17.733-.236-26.569-.224z" fill="#080605" fill-rule="nonzero"/><path fill="#080605" d="M39.201 265.644h16.316v18.764H39.201zM424.482 265.644h16.316v18.764h-16.316z"/><path d="M110.234 229.768c7.232.352 10.416 13.758-1.088 14.182-10.701.489-18.592 10.797-19.834 21.87 0 0-.406 2.068-1.377 3.348-3.831 5.056-13.997 2.404-12.382-7.272 2.828-16.938 15.891-31.772 34.072-32.127.305-.004.304-.004.609-.001zM368.238 229.769c16.917.33 31.049 14.013 34.071 32.128 1.039 6.225-4.97 13.569-11.211 8.484-3.532-2.877-2.748-8.394-4.859-13.49-2.986-7.206-9.711-12.867-18.483-12.963 0 0-2.102-.154-3.49-.964-5.222-3.044-4.516-13.288 3.972-13.195z" fill="#fff" fill-rule="nonzero"/><circle cx="344.157" cy="280.148" r="13.356" fill="#080605"/><circle cx="135.949" cy="280.148" r="13.356" fill="#080605"/><path d="M225.082 409.162c1.159.125 1.342.245 1.828.467 1.838.839 3.032 2.794 3.105 4.831v70.208c-.051 1.403-.251 1.816-.65 2.546-1.552 2.842-5.968 3.66-8.418 1.21-.983-.983-1.505-2.352-1.555-3.756V414.46c.041-1.164.148-1.356.335-1.856.793-2.127 3.016-3.525 5.355-3.442zM190.806 409.162c1.158.125 1.342.245 1.827.467 1.838.839 3.032 2.794 3.105 4.831v70.208c-.094 2.631-.79 2.99-1.555 3.756-2.901 2.901-8.901.922-9.068-3.756V414.46c.042-1.164.149-1.356.335-1.856.789-2.115 2.973-3.527 5.356-3.442zM156.529 409.162c1.159.125 1.343.245 1.828.467 1.838.839 3.032 2.794 3.105 4.831v70.208c-.094 2.631-.79 2.99-1.556 3.756-2.895 2.896-8.9.922-9.067-3.756V414.46c.092-2.579 2.019-4.893 4.556-5.257.722-.104.9-.049 1.134-.041zM122.183 409.158c.946.083 1.099.162 1.508.311 1.838.669 3.23 2.416 3.459 4.375.032.273.028.342.036.616v45.563c-.037 1.265-.211 1.679-.565 2.384-2.031 4.043-9.892 3.336-10.058-2.384V414.46c.029-1.005.126-1.284.32-1.816.669-1.839 2.416-3.23 4.375-3.459.593-.07.734-.033.925-.027z" fill="#f7903b" fill-rule="nonzero"/><circle cx="121.874" cy="482.119" r="8.101" fill="#f04e50"/></g></g></svg>