<svg xmlns="http://www.w3.org/2000/svg" version="1.1" id="Layer_1" x="0" y="0" xml:space="preserve" width="196.3" height="196.3"><style type="text/css" id="style15306">.st0{fill:#808285}</style><radialGradient id="SVGID_1_" cx="21.721" cy="-399.233" r="262.806" gradientTransform="matrix(1 0 0 -1 241.086 -296.349)" gradientUnits="userSpaceOnUse"><stop offset="0" id="stop15312" stop-color="#0095da"/><stop offset=".21" id="stop15314" stop-color="#0095da"/><stop offset=".33" id="stop15316" stop-color="#00ace4"/><stop offset=".904" id="stop15318" stop-color="#005093"/><stop offset=".933" id="stop15320" stop-color="#005396"/><stop offset=".954" id="stop15322" stop-color="#005c9f"/><stop offset=".972" id="stop15324" stop-color="#006bae"/><stop offset=".988" id="stop15326" stop-color="#0080c4"/><stop offset="1" id="stop15328" stop-color="#0095da"/></radialGradient><g id="g15932" transform="translate(0 21.601)"><path class="st0" d="M133.3 146.3h52v-17.9c-11.1 10-29.4 16.2-52 17.9z" id="path15308"/><path class="st0" d="M40.3 132.4v13.9H106c-13.3-.9-27.4-3.1-41.9-6.7-8.2-2.1-16.2-4.5-23.8-7.2z" id="path15310"/><path d="M185.3 13h-79.2C71.9 4.9 30.1 5.2 0 11.2c13.4-1.4 28-1.4 43.4.3 3.7.4 7.4.9 11 1.5 16.2 2.6 31.3 6.8 44.8 12.3 1.5.6 2.9 1.2 4.4 1.8h.1c.5.2 1 .4 1.4.6h.1c.5.2.9.4 1.4.6h.1c.4.2.9.4 1.3.6l.2.1 1.2.6.1.1c.4.2.8.4 1.3.6l.2.1c.4.2.9.4 1.3.6h.1l1.2.6.2.1c.4.2.8.4 1.1.6l.2.1c.4.2.8.4 1.1.6l.2.1c.4.2.8.4 1.1.6l.2.1c.4.2.7.4 1.1.6l.2.1c.4.2.7.4 1.1.6l.3.2.9.6.3.2.9.6.3.2.9.6.4.2c.3.2.5.3.8.5l.5.3c.3.2.5.3.8.5l.4.3c.3.2.5.4.8.5l.5.3c.2.2.5.3.7.5 17.5 12.3 28.1 27 28.1 41.8 0 17.4-14.6 31.4-37.7 39.7 15.9-8.4 25.3-20.1 25.3-33.9 0-17.4-15-34.6-38.9-47.9-.3-.2-.6-.4-1-.5-.4-.2-.7-.4-1.1-.6-.3-.2-.6-.3-.9-.5-.3-.2-.7-.4-1-.5-.3-.2-.7-.4-1-.5-.3-.2-.7-.4-1-.5-.4-.2-.8-.4-1.1-.6l-.9-.4c-.4-.2-.9-.4-1.3-.6l-.8-.4-1.2-.6c-.3-.2-.7-.3-1-.5-.4-.2-.8-.4-1.2-.5-.3-.1-.6-.3-1-.4-.4-.2-.8-.4-1.3-.5l-.8-.3c-.5-.2-.9-.4-1.4-.6h-.1l-.9-.3-1.5-.6-.6-.2c-.6-.3-1.3-.5-2-.7h-.2c-.5-.2-1.1-.4-1.6-.6h-.1c-.8-.3-1.7-.6-2.5-.9l-.3-.1c-.8-.3-1.6-.6-2.5-.8H75c-1.5-.5-3-1-4.5-1.4l-.2-.2c-1.5-.5-3.1-.9-4.6-1.4-.9-.3-1.8-.5-2.8-.8l-.2-.1c-4.1-1.1-8.4-2.1-12.7-3-3.2-.6-6.5-1.2-9.7-1.8v106.2c1.1.3 2.2.6 3.3.8 68.7 17.1 128 2.9 132.5-31.7 2.3-18.1-10.8-38.1-33.6-55.6C161 49.1 175.9 61.4 185.4 74c5.7 7.5 9.4 15.2 10.9 22.6-.8-10.5-5-26.4-10.9-38z" id="path15331" fill="url(#SVGID_1_)"/></g></svg>