<svg xmlns="http://www.w3.org/2000/svg" width="60.47" height="55.1"><g fill="none" stroke="#ccc" stroke-miterlimit="10"><path stroke-width="1.54" d="M46.26 49.32c-13.54-7.13-26.64-15.6-40.27-22.71"/><g stroke-width="1.46"><path d="M45.22 3.81H16.15m0 0L3.83 27.94M17.45 51.3 4.09 27.94m54.36-.52H5.38M57.81 26.7 43.27 51.84m.91-47.77L4.46 27.66 44.18 4.24z"/></g></g><circle cx="4.46" cy="27.66" r="4.46" fill="#7e7f7f"/><path fill="none" stroke="#ccc" stroke-miterlimit="10" stroke-width="1.46" d="m44.74 5.55.56 46.19-.41-46.1zM16.62 50.04 44.37 4.81"/><circle cx="46.02" cy="4.46" r="4.46" fill="#2baae2"/><circle cx="56.01" cy="27.35" r="4.46" fill="#4ec3c5"/><path fill="none" stroke="#ccc" stroke-miterlimit="10" stroke-width="1.46" d="M46.26 49.32 15.63 5.98"/><circle cx="46.02" cy="50.64" r="4.46" fill="#ccc"/><circle cx="16.24" cy="4.46" r="4.46" fill="#fed839"/><circle cx="16.24" cy="50.64" r="4.46" fill="#1d4965"/></svg>