<svg xmlns="http://www.w3.org/2000/svg" viewBox="0 0 714.54 512.74" fill="#0091e2"><path d="M707.49 193.56c-1.938-1.54-20.029-15.2-58.181-15.2a185.56 185.56 0 0 0-30.061 2.585c-7.384-50.612-49.228-75.288-51.104-76.395l-10.245-5.908-6.738 9.723a137.32 137.32 0 0 0-18.214 42.582c-6.831 28.89-2.677 56.027 11.999 79.226-17.722 9.876-46.151 12.307-51.904 12.522H22.362c-12.294.017-22.27 9.952-22.337 22.245a338.69 338.69 0 0 0 20.614 120.95c16.214 42.52 40.336 73.842 71.719 93.01 35.167 21.537 92.302 33.844 157.07 33.844a468.88 468.88 0 0 0 87.226-7.907 364.65 364.65 0 0 0 113.84-41.352 312.97 312.97 0 0 0 77.688-63.596c37.29-42.213 59.505-89.226 76.026-131.01h6.584c40.828 0 65.935-16.338 79.78-30.03a87.08 87.08 0 0 0 21.045-31.166l2.923-8.553z"/><path d="M65.995 228.91h63.073a5.507 5.507 0 0 0 5.507-5.507v-56.182a5.507 5.507 0 0 0-5.476-5.538H65.995a5.507 5.507 0 0 0-5.507 5.507v56.211a5.507 5.507 0 0 0 5.507 5.508m86.918.001h63.073a5.507 5.507 0 0 0 5.507-5.507v-56.182a5.507 5.507 0 0 0-5.477-5.538h-63.104a5.537 5.537 0 0 0-5.538 5.538v56.18a5.54 5.54 0 0 0 5.539 5.509m88.24 0h63.073a5.507 5.507 0 0 0 5.507-5.507v-56.182a5.507 5.507 0 0 0-5.477-5.538h-63.104a5.507 5.507 0 0 0-5.507 5.507v56.211a5.51 5.51 0 0 0 5.508 5.508m87.195.001h63.073a5.537 5.537 0 0 0 5.538-5.507v-56.182a5.537 5.537 0 0 0-5.538-5.538h-63.073a5.507 5.507 0 0 0-5.507 5.507v56.211a5.508 5.508 0 0 0 5.507 5.508m-175.44-80.825h63.073a5.539 5.539 0 0 0 5.507-5.538V86.365a5.507 5.507 0 0 0-5.507-5.507h-63.073a5.538 5.538 0 0 0-5.538 5.507v56.18a5.568 5.568 0 0 0 5.538 5.539m88.24 0h63.073a5.539 5.539 0 0 0 5.507-5.538V86.365a5.507 5.507 0 0 0-5.507-5.507h-63.073a5.507 5.507 0 0 0-5.507 5.507v56.18a5.539 5.539 0 0 0 5.507 5.539m87.195 0h63.073a5.568 5.568 0 0 0 5.538-5.538V86.365a5.537 5.537 0 0 0-5.538-5.507h-63.073a5.507 5.507 0 0 0-5.507 5.507v56.18a5.539 5.539 0 0 0 5.507 5.539m0-80.856h63.073a5.538 5.538 0 0 0 5.538-5.507V5.508a5.537 5.537 0 0 0-5.538-5.507h-63.073a5.506 5.506 0 0 0-5.507 5.507V61.72a5.508 5.508 0 0 0 5.507 5.508m87.964 161.68h63.073a5.537 5.537 0 0 0 5.538-5.507v-56.182a5.537 5.537 0 0 0-5.538-5.538h-63.073a5.508 5.508 0 0 0-5.507 5.507v56.211a5.508 5.508 0 0 0 5.507 5.508"/></svg>