<svg xmlns="http://www.w3.org/2000/svg" viewBox="-5.724 -43.601 714.541 714.541" width="714.541" height="714.541"><g fill="#0091e2"><path d="M701.77 250.857c-1.938-1.54-20.029-15.2-58.181-15.2a185.562 185.562 0 00-30.061 2.585c-7.384-50.612-49.228-75.288-51.104-76.395l-10.245-5.908-6.738 9.723a137.318 137.318 0 00-18.214 42.582c-6.831 28.89-2.677 56.027 11.999 79.226-17.722 9.876-46.151 12.307-51.904 12.522H16.643c-12.294.017-22.27 9.952-22.337 22.245A338.69 338.69 0 0014.92 443.183c16.214 42.52 40.336 73.842 71.719 93.01 35.167 21.537 92.302 33.844 157.067 33.844a468.88 468.88 0 0087.226-7.907 364.649 364.649 0 00113.839-41.352 312.969 312.969 0 0077.688-63.596c37.29-42.213 59.505-89.226 76.026-131.007h6.584c40.828 0 65.935-16.338 79.78-30.03a87.08 87.08 0 0021.045-31.166l2.923-8.553z"/><path d="M60.271 286.209h63.073a5.507 5.507 0 005.507-5.507V224.52a5.507 5.507 0 00-5.476-5.538H60.271a5.507 5.507 0 00-5.507 5.507V280.7a5.507 5.507 0 005.507 5.508M147.189 286.209h63.073a5.507 5.507 0 005.507-5.507V224.52a5.507 5.507 0 00-5.477-5.538h-63.104a5.537 5.537 0 00-5.538 5.538v56.18a5.54 5.54 0 005.539 5.509M235.429 286.209h63.073a5.507 5.507 0 005.507-5.507V224.52a5.507 5.507 0 00-5.477-5.538h-63.104a5.507 5.507 0 00-5.507 5.507V280.7a5.51 5.51 0 005.508 5.508M322.624 286.209h63.073a5.537 5.537 0 005.538-5.507V224.52a5.537 5.537 0 00-5.538-5.538h-63.073a5.507 5.507 0 00-5.507 5.507V280.7a5.508 5.508 0 005.507 5.508M147.189 205.383h63.073a5.539 5.539 0 005.507-5.538v-56.181a5.507 5.507 0 00-5.507-5.507h-63.073a5.538 5.538 0 00-5.538 5.507v56.18a5.568 5.568 0 005.538 5.539M235.429 205.383h63.073a5.539 5.539 0 005.507-5.538v-56.181a5.507 5.507 0 00-5.507-5.507h-63.073a5.507 5.507 0 00-5.507 5.507v56.18a5.539 5.539 0 005.507 5.539M322.624 205.383h63.073a5.568 5.568 0 005.538-5.538v-56.181a5.537 5.537 0 00-5.538-5.507h-63.073a5.507 5.507 0 00-5.507 5.507v56.18a5.539 5.539 0 005.507 5.539M322.624 124.527h63.073a5.538 5.538 0 005.538-5.507V62.807a5.537 5.537 0 00-5.538-5.507h-63.073a5.506 5.506 0 00-5.507 5.507v56.212a5.508 5.508 0 005.507 5.508M410.588 286.209h63.073a5.537 5.537 0 005.538-5.507V224.52a5.537 5.537 0 00-5.538-5.538h-63.073a5.508 5.508 0 00-5.507 5.507V280.7a5.508 5.508 0 005.507 5.508"/></g></svg>