<svg xmlns="http://www.w3.org/2000/svg" fill="#0091e2" viewBox="0 0 714.5 512.7"><path d="M619.3 181c-6.6-42.4-42-77.2-61.4-82.4a114.7 114.7 0 0 0-13 131.6c-17.7 9.8-46.1 12.3-51.9 12.5H22.4C10 242.7 0 252.7 0 264.9c0 166.3 73.6 247.8 249.4 247.8 182.8 0 312.7-86.5 354.8-243.8 78.8 0 104.5-48 110.3-69.8-20.8-20.8-58.5-24.3-95.2-18.1Z"/><g id="b"><rect id="a" width="74" height="67.4" x="60.5" y="162.7" rx="5.1" ry="5.1"/><use href="#a" x="86"/><use href="#a" x="172"/></g><use href="#b" x="86" y="-80"/><use href="#b" x="172"/><use href="#a" x="258" y="-160"/></svg>
