<svg xmlns="http://www.w3.org/2000/svg" version="1.1" id="Layer_1" x="0" y="0" width="484.1" height="484.1" xml:space="preserve"><style type="text/css" id="style18141">.st0{fill:#5a5a5a}</style><g id="g18169" transform="translate(4.55)"><g id="g18149"><path class="st0" d="M110.2 293.1c-15.1-22.8-26.6-50.7-33.5-74.8l-59-19.1.5-61.5-18 18-.2 61.5 58.9 19.1c6.8 26.1 19.8 54.8 35.8 78.6z" id="path18143"/><path class="st0" id="polygon18145" d="M112.7 414l20.5-15.1-51.7-52.7-14.7 21.3z"/><path class="st0" d="M279.2 466.2l-19.3-61.9c-25.3-7.2-50.2-18.8-71.5-32.9l-22 15.6c23.4 15.9 49.8 28.5 75.5 35.3l19.3 61.8 61.4-.1 18-17.7z" id="path18147"/></g><path class="st0" d="M475 255.2l-13.9-49-37.1-14c-8.8-20.3-20-39.4-33.7-56.9l12.6-26.6-37.3-37.1-26.3 12.8c-17.5-13.5-36.6-24.9-56.7-33.5l-14.3-37.6L220.1 0l-2.9 34.3c-21-1.6-40.7.7-58.4 6.6L116.5 8.4 76.1 31.9l31.5 42.6c-13 14.9-20.1 33.3-24.7 55.3l-55.4-1.1v61.5l58.6 19.1c7.1 27.2 18.6 54 35.7 78.6l-32.9 47.6 55.1 55.9 46.8-33c24.5 17.2 51 29.5 78.2 36.6l19.3 61.4h61.4l-1.5-58.3c22-4.8 40.6-14.2 55.3-27.5l43.2 32.2 23.1-41.4-33.2-43.1c5.6-18 6.8-38.2 4.9-59.6zm-175.1 84.4c-79.3-5.9-155.1-82.1-161.3-161.8-5.6-72.1 50-112 118.4-96.2 63.1 14.4 122.3 73.4 137.6 137 16.6 69.4-22.6 126.3-94.7 121z" id="path18151"/><g id="g18155"><path class="st0" d="M95 74.2L69 39 55.9 58.1l26.6 36c3.6-7 7.7-13.7 12.5-19.9z" id="path18153"/></g><g id="g18159"><path class="st0" d="M401.4 384.6c-6.2 4.8-16.3 10.5-23.5 14.1l41.8 31 18-18z" id="path18157"/></g><g id="g18167"><g id="g18165"><g id="g18163"><path class="st0" d="M268.9 236.5l-11-72.4 16.7 3.3c4.9 1 9.4 2.7 13.6 5.1 4.1 2.4 7.9 5.3 11.2 8.8 3.3 3.5 6.1 7.5 8.3 11.9 2.2 4.4 3.9 9.3 4.8 14.5 1 5.2 1 9.8.3 13.9s-2.2 7.5-4.4 10.3c-2.3 2.8-5.3 4.8-9 6-3.7 1.2-8.1 1.5-13.2.8l-17.3-2.2m.9-97.8l-47-10.7 18.3 138.6 50.4 5c9.5.9 17.8-.1 24.8-2.7 6.9-2.6 12.5-6.8 16.7-12.2 4.1-5.4 6.8-11.9 8.1-19.5 1.2-7.5 1-15.9-.9-25.1-1.8-9-5-17.6-9.2-25.5-4.2-7.9-9.5-15.1-15.5-21.5-6.1-6.4-13.1-12-20.7-16.5-7.7-4.5-16.1-7.9-25-9.9" id="path18161"/></g></g></g></g></svg>