<svg xmlns="http://www.w3.org/2000/svg" width="133.063" height="133.063"><path d="M128.463 4.53c2.5 0 4.6 2 4.6 4.6 0 .6-.1 1.2-.4 1.8l-46.4 110.9c-1.8 4.1-5.8 6.7-10.2 6.7h-31.7c-2.5.1-4.6-1.9-4.6-4.4 0-.6.1-1.3.3-1.8l3.6-8.7 7.9-46.2 23-28 11.8-28.2c1.8-4.1 5-6.7 9.5-6.7z" fill="#4285f4"/><path d="M74.863 38.93c-17.3-17.1-45.2-16.8-62.2.5s-16.9 45.1.4 62.2c8.1 8 19 12.5 30.4 12.7.1-.3 21.3-33.6 21.3-33.6l10.1-41.8z" fill="#fbbc04"/><path d="M74.863 38.93l-31.4 75.3h1.1c24.2-.2 43.7-20 43.6-44.2-.1-11.7-4.9-22.9-13.3-31.1z" fill="#ea4335"/></svg>