<svg xmlns="http://www.w3.org/2000/svg" xmlns:xlink="http://www.w3.org/1999/xlink" width="58.447" height="58.447"><defs><linearGradient id="a" x1="-1287.3" x2="-1297.6" y1="1780.6" y2="1810.2" gradientTransform="scale(1 -1) rotate(-74.3 -1863.21 -14.673)" gradientUnits="userSpaceOnUse"><stop offset="0" stop-color="#1b1f2a"/><stop offset="1" stop-color="#77839b"/></linearGradient><linearGradient xlink:href="#a" id="c" x1="-1295.6" x2="-1271.1" y1="1792.7" y2="1783.9"/><linearGradient xlink:href="#a" id="d" x1="-1286.2" x2="-1303.3" y1="1797" y2="1772.9"/><linearGradient xlink:href="#a" id="b"/></defs><path fill="#77839b" d="M56.923 34.623c-2-1-3.3-3-3.3-5.4s1.4-4.4 3.3-5.4c1.2-.6 1.8-1.9 1.4-3.2-.6-2.1-1.5-4.1-2.5-6-.6-1.2-2-1.7-3.2-1.2-2.1.7-4.5.2-6.2-1.4-1.7-1.7-2.1-4.1-1.4-6.2.4-1.2 0-2.6-1.2-3.2-1.9-1-3.9-1.9-6-2.5-1.3-.4-2.6.2-3.2 1.4-1 2-3 3.3-5.4 3.3s-4.4-1.4-5.4-3.3c-.6-1.2-1.9-1.8-3.2-1.4-2.1.6-4.1 1.5-6 2.5-1.2.6-1.7 2-1.2 3.2.7 2.1.2 4.5-1.4 6.2s-4.1 2.1-6.2 1.4c-1.2-.4-2.6 0-3.2 1.2-1 1.9-1.9 3.9-2.5 6-.4 1.3.2 2.6 1.4 3.2 2 1 3.3 3 3.3 5.4s-1.4 4.4-3.3 5.4c-1.2.6-1.8 1.9-1.4 3.2.6 2.1 1.5 4.1 2.5 6 .6 1.2 2 1.7 3.2 1.2 2.1-.7 4.5-.2 6.2 1.4 1.7 1.7 2.1 4.1 1.4 6.2-.4 1.2 0 2.6 1.2 3.2 1.9 1 3.9 1.9 6 2.5 1.3.4 2.6-.2 3.2-1.4 1-2 3-3.3 5.4-3.3s4.4 1.4 5.4 3.3c.6 1.2 1.9 1.8 3.2 1.4 2.1-.6 4.1-1.5 6-2.5 1.2-.6 1.7-2 1.2-3.2-.7-2.1-.2-4.5 1.4-6.2s4.1-2.1 6.2-1.4c1.2.4 2.6 0 3.2-1.2 1-1.9 1.9-3.9 2.5-6 .4-1.3-.2-2.6-1.4-3.2zm-27.8 5.9c-6.2 0-11.3-5-11.3-11.3s5-11.3 11.3-11.3 11.3 5 11.3 11.3-5 11.3-11.3 11.3z"/><path fill="url(#b)" d="M39.7 58.9c1.5 1.5 2.7 3.2 3.5 5 2.6 5.5 2.1 12.2-1.4 17.3-.6.8-1.2 1.6-1.9 2.3-2 2-4.4 3.5-7 4.3-.5.2-1 .3-1.6.4-3.3.6-6.8-.3-9.4-2.8s-3.6-6.1-3-9.4c-.6 2.7-.5 5.5.2 8.3.3 1 .6 1.9 1 2.8 2.7 5.7 8.2 9.4 14.3 9.9 2 .2 4 0 6.1-.6 6.1-1.7 10.5-6.4 12.1-12 0-.3.2-.6.2-.8 1.9-8-.3-16.9-6.6-23.1S31 52.2 23 54.3c5.7-1.4 12 0 16.5 4.5z" transform="translate(-.177 -48.777)"/><path fill="url(#c)" d="M10.1 73c-1.1 1.6-2 3.5-2.5 5.6-1.6 6 .2 12 4.1 16.2.2.2.3.4.5.5.2.2.4.4.6.5 9.6 8.8 24.6 8.5 33.8-.8 3-3.1 5-6.7 6.1-10.5-1.6 5.6-6 10.3-12.1 12-2 .6-4.1.7-6.1.6a17.4 17.4 0 0 1-14.3-9.9c-.4-.9-.8-1.8-1-2.8-.8-2.8-.8-5.6-.2-8.3 0-.5.2-1.1.4-1.6.5-1.4 1.3-2.8 2.4-3.9 3.9-4 10.2-4.2 14.3-.6-2-1.9-4.5-3.3-7.4-4-1-.3-2-.4-2.9-.5-6.3-.5-12.2 2.4-15.7 7.4z" transform="translate(-.177 -48.777)"/><path fill="url(#d)" d="M22.3 54.7c-3.8 1.1-7.4 3.2-10.4 6.3-9.3 9.4-9.3 24.4-.3 33.9C7.7 90.7 6 84.6 7.5 78.7c.5-2 1.4-3.9 2.5-5.6 3.5-5 9.5-7.9 15.7-7.4 1 0 2 .2 2.9.5 2.8.7 5.3 2.1 7.4 4 .2.1.3.3.5.4.2.2.3.4.5.5 3.6 4.1 3.5 10.3-.4 14.3-1.1 1.2-2.5 2-3.9 2.5 2.6-.8 5-2.3 7-4.3.7-.7 1.3-1.5 1.9-2.3 3.6-5.2 4.1-11.8 1.4-17.3-.9-1.8-2-3.5-3.5-5-4.5-4.4-10.8-5.9-16.5-4.5-.3 0-.6.2-.9.2z" transform="translate(-.177 -48.777)"/></svg>