<svg xmlns="http://www.w3.org/2000/svg" version="1.1" id="svg16046" width="119.86" height="119.86"><defs id="defs16013"><style id="style16011">.cls-1{fill:#e24747}</style></defs><g id="g16658" transform="translate(-.069 -.186)"><path class="cls-1" d="M41.24 90l.16-60h21.09c16.33 0 26.08 10.42 25.74 30.5C87.9 79.7 77.73 90 62.4 90zm19.87-13.77c4.81-.37 10.85-2.39 10.85-16S64.89 43.73 61 43.63c-.47 0-3 0-3.5.1v32.5z" id="path16037"/><path class="cls-1" d="M88.36 93.12a44.4 44.4 0 11.24-.21h21.56a59.93 59.93 0 10-21.8 20z" id="path16039"/><path class="cls-1" d="M110.23 106.34a8.2 8.2 0 11-8.19-8.2 8.19 8.19 0 018.19 8.2" id="path16041"/></g></svg>