<svg xmlns="http://www.w3.org/2000/svg" width="35.8" height="35.8"><g transform="translate(6.8)"><path d="M13.4 34.4c-1.1-.9-1.7-2.3-1.7-4.1v-.4c-1.4-.2-2.6-.8-3.4-1.8-.9-1.3-1.4-2.9-1.4-5 0-4.4 1.6-6.5 4.8-6.5.7 0 1.4.1 2.1.3.7.2 1.2.4 1.7.7v7.5c.6-.2 1.2-.3 1.8-.3 1.4 0 2.7.5 3.9 1.4.4.4.8.8 1 1.3V0l-6.8 1.1v10.8c-.8-.3-1.5-.6-2.2-.8-.7-.2-1.6-.3-2.5-.3-1.7 0-3.2.3-4.5.9-1.3.6-2.4 1.4-3.3 2.5-.9 1.1-1.6 2.4-2.1 4-.6 1.5-.8 3.3-.8 5.2 0 1.9.3 3.6.8 5.1.6 1.5 1.4 2.8 2.4 3.9 1.1 1.1 2.4 1.9 3.9 2.5 1.5.6 3.3.9 5.3.9.8 0 1.7 0 2.6-.1.2 0 .4 0 .6-.1-.8-.2-1.5-.6-2.2-1.2z" fill="#3498db"/><circle cx="17.2" cy="30.3" r="4.4" fill="#f68b20"/></g></svg>