<svg xmlns="http://www.w3.org/2000/svg" fill="none" viewBox="0 0 101 100"><path fill="url(#a)" d="M64.31.26a7.55 7.55 0 0 0-9.34 5.76l-3.98 19.3a32.23 32.23 0 0 1-25.04 25.05L7.02 54.28a7.55 7.55 0 1 0 3.9 14.56l18.42-6.1a32.32 32.32 0 0 1 34.3 9.19l12.9 14.49A7.55 7.55 0 1 0 87.2 75.76L72.6 62.8a32.39 32.39 0 0 1-9.2-34.39l6.12-18.48A7.55 7.55 0 0 0 64.31.26"/><path fill="url(#b)" fill-opacity=".46" d="M64.31.26a7.55 7.55 0 0 0-9.34 5.76l-3.98 19.3a32.23 32.23 0 0 1-25.04 25.05L7.02 54.28a7.55 7.55 0 1 0 3.9 14.56l18.42-6.1a32.32 32.32 0 0 1 34.3 9.19l12.9 14.49A7.55 7.55 0 1 0 87.2 75.76L72.6 62.8a32.39 32.39 0 0 1-9.2-34.39l6.12-18.48A7.55 7.55 0 0 0 64.31.26"/><path fill="url(#c)" fill-opacity=".66" d="M64.31.26a7.55 7.55 0 0 0-9.34 5.76l-3.98 19.3a32.23 32.23 0 0 1-25.04 25.05L7.02 54.28a7.55 7.55 0 1 0 3.9 14.56l18.42-6.1a32.32 32.32 0 0 1 34.3 9.19l12.9 14.49A7.55 7.55 0 1 0 87.2 75.76L72.6 62.8a32.39 32.39 0 0 1-9.2-34.39l6.12-18.48A7.55 7.55 0 0 0 64.31.26"/><path fill="url(#d)" fill-opacity=".67" d="M64.31.26a7.55 7.55 0 0 0-9.34 5.76l-3.98 19.3a32.23 32.23 0 0 1-25.04 25.05L7.02 54.28a7.55 7.55 0 1 0 3.9 14.56l18.42-6.1a32.32 32.32 0 0 1 34.3 9.19l12.9 14.49A7.55 7.55 0 1 0 87.2 75.76L72.6 62.8a32.39 32.39 0 0 1-9.2-34.39l6.12-18.48A7.55 7.55 0 0 0 64.31.26"/><path fill="url(#e)" d="M64.31.26a7.55 7.55 0 0 0-9.34 5.76l-3.98 19.3a32.23 32.23 0 0 1-25.04 25.05L7.02 54.28a7.55 7.55 0 1 0 3.9 14.56l18.42-6.1a32.32 32.32 0 0 1 34.3 9.19l12.9 14.49A7.55 7.55 0 1 0 87.2 75.76L72.6 62.8a32.39 32.39 0 0 1-9.2-34.39l6.12-18.48A7.55 7.55 0 0 0 64.31.26"/><path fill="url(#f)" fill-opacity=".94" d="M64.31.26a7.55 7.55 0 0 0-9.34 5.76l-3.98 19.3a32.23 32.23 0 0 1-25.04 25.05L7.02 54.28a7.55 7.55 0 1 0 3.9 14.56l18.42-6.1a32.32 32.32 0 0 1 34.3 9.19l12.9 14.49A7.55 7.55 0 1 0 87.2 75.76L72.6 62.8a32.39 32.39 0 0 1-9.2-34.39l6.12-18.48A7.55 7.55 0 0 0 64.31.26"/><path fill="url(#g)" fill-opacity=".1" d="M64.31.26a7.55 7.55 0 0 0-9.34 5.76l-3.98 19.3a32.23 32.23 0 0 1-25.04 25.05L7.02 54.28a7.55 7.55 0 1 0 3.9 14.56l18.42-6.1a32.32 32.32 0 0 1 34.3 9.19l12.9 14.49A7.55 7.55 0 1 0 87.2 75.76L72.6 62.8a32.39 32.39 0 0 1-9.2-34.39l6.12-18.48A7.55 7.55 0 0 0 64.31.26"/><path fill="url(#h)" d="M14.19 24.4A8.09 8.09 0 1 1 25.6 12.96l9.75 10.78a7.36 7.36 0 0 1-10.4 10.4z"/><path fill="url(#i)" fill-opacity=".46" d="M14.19 24.4A8.09 8.09 0 1 1 25.6 12.96l9.75 10.78a7.36 7.36 0 0 1-10.4 10.4z"/><path fill="url(#j)" fill-opacity=".66" d="M14.19 24.4A8.09 8.09 0 1 1 25.6 12.96l9.75 10.78a7.36 7.36 0 0 1-10.4 10.4z"/><path fill="url(#k)" fill-opacity=".67" d="M14.19 24.4A8.09 8.09 0 1 1 25.6 12.96l9.75 10.78a7.36 7.36 0 0 1-10.4 10.4z"/><path fill="url(#l)" d="M14.19 24.4A8.09 8.09 0 1 1 25.6 12.96l9.75 10.78a7.36 7.36 0 0 1-10.4 10.4z"/><path fill="url(#m)" fill-opacity=".94" d="M14.19 24.4A8.09 8.09 0 1 1 25.6 12.96l9.75 10.78a7.36 7.36 0 0 1-10.4 10.4z"/><path fill="url(#n)" fill-opacity=".1" d="M14.19 24.4A8.09 8.09 0 1 1 25.6 12.96l9.75 10.78a7.36 7.36 0 0 1-10.4 10.4z"/><path fill="url(#o)" d="M90.03 30.35a8.09 8.09 0 1 1 4.18 15.6L80 49.01a7.36 7.36 0 0 1-3.81-14.2z"/><path fill="url(#p)" fill-opacity=".46" d="M90.03 30.35a8.09 8.09 0 1 1 4.18 15.6L80 49.01a7.36 7.36 0 0 1-3.81-14.2z"/><path fill="url(#q)" fill-opacity=".66" d="M90.03 30.35a8.09 8.09 0 1 1 4.18 15.6L80 49.01a7.36 7.36 0 0 1-3.81-14.2z"/><path fill="url(#r)" fill-opacity=".67" d="M90.03 30.35a8.09 8.09 0 1 1 4.18 15.6L80 49.01a7.36 7.36 0 0 1-3.81-14.2z"/><path fill="url(#s)" d="M90.03 30.35a8.09 8.09 0 1 1 4.18 15.6L80 49.01a7.36 7.36 0 0 1-3.81-14.2z"/><path fill="url(#t)" fill-opacity=".94" d="M90.03 30.35a8.09 8.09 0 1 1 4.18 15.6L80 49.01a7.36 7.36 0 0 1-3.81-14.2z"/><path fill="url(#u)" fill-opacity=".1" d="M90.03 30.35a8.09 8.09 0 1 1 4.18 15.6L80 49.01a7.36 7.36 0 0 1-3.81-14.2z"/><path fill="url(#v)" d="M46.58 93.34a8.09 8.09 0 1 1-15.6-4.18l4.46-13.83a7.36 7.36 0 0 1 14.2 3.8z"/><path fill="url(#w)" fill-opacity=".46" d="M46.58 93.34a8.09 8.09 0 1 1-15.6-4.18l4.46-13.83a7.36 7.36 0 0 1 14.2 3.8z"/><path fill="url(#x)" fill-opacity=".66" d="M46.58 93.34a8.09 8.09 0 1 1-15.6-4.18l4.46-13.83a7.36 7.36 0 0 1 14.2 3.8z"/><path fill="url(#y)" fill-opacity=".67" d="M46.58 93.34a8.09 8.09 0 1 1-15.6-4.18l4.46-13.83a7.36 7.36 0 0 1 14.2 3.8z"/><path fill="url(#z)" d="M46.58 93.34a8.09 8.09 0 1 1-15.6-4.18l4.46-13.83a7.36 7.36 0 0 1 14.2 3.8z"/><path fill="url(#A)" fill-opacity=".94" d="M46.58 93.34a8.09 8.09 0 1 1-15.6-4.18l4.46-13.83a7.36 7.36 0 0 1 14.2 3.8z"/><path fill="url(#B)" fill-opacity=".1" d="M46.58 93.34a8.09 8.09 0 1 1-15.6-4.18l4.46-13.83a7.36 7.36 0 0 1 14.2 3.8z"/><defs><linearGradient id="a" x1="7.23" x2="48.12" y1="62.33" y2="30.17" gradientUnits="userSpaceOnUse"><stop stop-color="#FF9EFA"/><stop offset=".42" stop-color="#F55C15" stop-opacity=".84"/><stop offset="1" stop-color="#6B13F5"/></linearGradient><linearGradient id="b" x1="55.6" x2="41.14" y1="45.88" y2="94" gradientUnits="userSpaceOnUse"><stop stop-color="#A73394" stop-opacity="0"/><stop offset="1" stop-color="#6B13F5"/></linearGradient><linearGradient id="c" x1="84.03" x2="39.4" y1="87.02" y2="54.6" gradientUnits="userSpaceOnUse"><stop offset=".39" stop-color="#6B13F5"/><stop offset="1" stop-color="#E2606E" stop-opacity="0"/></linearGradient><linearGradient id="d" x1="25.93" x2="29.92" y1="4.74" y2="37.9" gradientUnits="userSpaceOnUse"><stop offset=".18" stop-color="#6B13F5"/><stop offset="1" stop-color="#CB4758" stop-opacity="0"/></linearGradient><linearGradient id="e" x1="64.58" x2="37.65" y1="35.9" y2="52.36" gradientUnits="userSpaceOnUse"><stop stop-color="#6B13F5"/><stop offset="1" stop-color="#E46373" stop-opacity="0"/></linearGradient><linearGradient id="h" x1="7.23" x2="48.12" y1="62.33" y2="30.17" gradientUnits="userSpaceOnUse"><stop stop-color="#FF9EFA"/><stop offset=".42" stop-color="#F55C15" stop-opacity=".84"/><stop offset="1" stop-color="#6B13F5"/></linearGradient><linearGradient id="i" x1="55.6" x2="41.14" y1="45.88" y2="94" gradientUnits="userSpaceOnUse"><stop stop-color="#A73394" stop-opacity="0"/><stop offset="1" stop-color="#6B13F5"/></linearGradient><linearGradient id="j" x1="84.03" x2="39.4" y1="87.02" y2="54.6" gradientUnits="userSpaceOnUse"><stop offset=".39" stop-color="#6B13F5"/><stop offset="1" stop-color="#E2606E" stop-opacity="0"/></linearGradient><linearGradient id="k" x1="25.93" x2="29.92" y1="4.74" y2="37.9" gradientUnits="userSpaceOnUse"><stop offset=".18" stop-color="#6B13F5"/><stop offset="1" stop-color="#CB4758" stop-opacity="0"/></linearGradient><linearGradient id="l" x1="64.58" x2="37.65" y1="35.9" y2="52.36" gradientUnits="userSpaceOnUse"><stop stop-color="#6B13F5"/><stop offset="1" stop-color="#E46373" stop-opacity="0"/></linearGradient><linearGradient id="o" x1="7.23" x2="48.12" y1="62.33" y2="30.17" gradientUnits="userSpaceOnUse"><stop stop-color="#FF9EFA"/><stop offset=".42" stop-color="#F55C15" stop-opacity=".84"/><stop offset="1" stop-color="#6B13F5"/></linearGradient><linearGradient id="p" x1="55.6" x2="41.14" y1="45.88" y2="94" gradientUnits="userSpaceOnUse"><stop stop-color="#A73394" stop-opacity="0"/><stop offset="1" stop-color="#6B13F5"/></linearGradient><linearGradient id="q" x1="84.03" x2="39.4" y1="87.02" y2="54.6" gradientUnits="userSpaceOnUse"><stop offset=".39" stop-color="#6B13F5"/><stop offset="1" stop-color="#E2606E" stop-opacity="0"/></linearGradient><linearGradient id="r" x1="25.93" x2="29.92" y1="4.74" y2="37.9" gradientUnits="userSpaceOnUse"><stop offset=".18" stop-color="#6B13F5"/><stop offset="1" stop-color="#CB4758" stop-opacity="0"/></linearGradient><linearGradient id="s" x1="64.58" x2="37.65" y1="35.9" y2="52.36" gradientUnits="userSpaceOnUse"><stop stop-color="#6B13F5"/><stop offset="1" stop-color="#E46373" stop-opacity="0"/></linearGradient><linearGradient id="v" x1="7.23" x2="48.12" y1="62.33" y2="30.17" gradientUnits="userSpaceOnUse"><stop stop-color="#FF9EFA"/><stop offset=".42" stop-color="#F55C15" stop-opacity=".84"/><stop offset="1" stop-color="#6B13F5"/></linearGradient><linearGradient id="w" x1="55.6" x2="41.14" y1="45.88" y2="94" gradientUnits="userSpaceOnUse"><stop stop-color="#A73394" stop-opacity="0"/><stop offset="1" stop-color="#6B13F5"/></linearGradient><linearGradient id="x" x1="84.03" x2="39.4" y1="87.02" y2="54.6" gradientUnits="userSpaceOnUse"><stop offset=".39" stop-color="#6B13F5"/><stop offset="1" stop-color="#E2606E" stop-opacity="0"/></linearGradient><linearGradient id="y" x1="25.93" x2="29.92" y1="4.74" y2="37.9" gradientUnits="userSpaceOnUse"><stop offset=".18" stop-color="#6B13F5"/><stop offset="1" stop-color="#CB4758" stop-opacity="0"/></linearGradient><linearGradient id="z" x1="64.58" x2="37.65" y1="35.9" y2="52.36" gradientUnits="userSpaceOnUse"><stop stop-color="#6B13F5"/><stop offset="1" stop-color="#E46373" stop-opacity="0"/></linearGradient><radialGradient id="f" cx="0" cy="0" r="1" gradientTransform="matrix(-53 3 -9 -138 38.66 53.12)" gradientUnits="userSpaceOnUse"><stop stop-color="#F55C15" stop-opacity=".46"/><stop offset=".83" stop-color="#EE82C6" stop-opacity="0"/></radialGradient><radialGradient id="g" cx="0" cy="0" r="1" gradientTransform="matrix(35 -12 12 35 -1.5 68.07)" gradientUnits="userSpaceOnUse"><stop stop-color="#FF9EFA"/><stop offset="1" stop-color="#DD5A68" stop-opacity="0"/></radialGradient><radialGradient id="m" cx="0" cy="0" r="1" gradientTransform="matrix(-53 3 -9 -138 38.66 53.12)" gradientUnits="userSpaceOnUse"><stop stop-color="#F55C15" stop-opacity=".46"/><stop offset=".83" stop-color="#EE82C6" stop-opacity="0"/></radialGradient><radialGradient id="n" cx="0" cy="0" r="1" gradientTransform="matrix(35 -12 12 35 -1.5 68.07)" gradientUnits="userSpaceOnUse"><stop stop-color="#FF9EFA"/><stop offset="1" stop-color="#DD5A68" stop-opacity="0"/></radialGradient><radialGradient id="t" cx="0" cy="0" r="1" gradientTransform="matrix(-53 3 -9 -138 38.66 53.12)" gradientUnits="userSpaceOnUse"><stop stop-color="#F55C15" stop-opacity=".46"/><stop offset=".83" stop-color="#EE82C6" stop-opacity="0"/></radialGradient><radialGradient id="u" cx="0" cy="0" r="1" gradientTransform="matrix(35 -12 12 35 -1.5 68.07)" gradientUnits="userSpaceOnUse"><stop stop-color="#FF9EFA"/><stop offset="1" stop-color="#DD5A68" stop-opacity="0"/></radialGradient><radialGradient id="A" cx="0" cy="0" r="1" gradientTransform="matrix(-53 3 -9 -138 38.66 53.12)" gradientUnits="userSpaceOnUse"><stop stop-color="#F55C15" stop-opacity=".46"/><stop offset=".83" stop-color="#EE82C6" stop-opacity="0"/></radialGradient><radialGradient id="B" cx="0" cy="0" r="1" gradientTransform="matrix(35 -12 12 35 -1.5 68.07)" gradientUnits="userSpaceOnUse"><stop stop-color="#FF9EFA"/><stop offset="1" stop-color="#DD5A68" stop-opacity="0"/></radialGradient></defs></svg>