<svg xmlns="http://www.w3.org/2000/svg" viewBox="0 0 50 50"><defs><linearGradient id="a" x1="3.4" x2="47.53" y1="27.1" y2="27.1" gradientTransform="matrix(1 0 0 -1 0 52)" gradientUnits="userSpaceOnUse"><stop offset="0" stop-color="#006746"/><stop offset=".02" stop-color="#046944"/><stop offset=".35" stop-color="#3a8d27"/><stop offset=".64" stop-color="#62a612"/><stop offset=".86" stop-color="#7ab605"/><stop offset="1" stop-color="#83bc00"/></linearGradient><linearGradient id="b" x1="39.85" x2="11.15" y1="27.2" y2="27.2" gradientTransform="matrix(1 0 0 -1 0 52)" gradientUnits="userSpaceOnUse"><stop offset="0" stop-color="#00aed6"/><stop offset=".1" stop-color="#00a7cd"/><stop offset=".25" stop-color="#0093b5"/><stop offset=".45" stop-color="#00738d"/><stop offset=".69" stop-color="#004656"/><stop offset=".94" stop-color="#000d10"/><stop offset="1"/></linearGradient><linearGradient id="c" x1="32.23" x2="18.77" y1="27.2" y2="27.2" gradientTransform="matrix(1 0 0 -1 0 52)" gradientUnits="userSpaceOnUse"><stop offset="0" stop-color="#d30e7c"/><stop offset=".22" stop-color="#ce1076"/><stop offset=".5" stop-color="#bf1666"/><stop offset=".82" stop-color="#a61f4b"/><stop offset="1" stop-color="#952538"/></linearGradient></defs><path d="M25.5 2.8a22.1 22.1 0 1 0 22.1 22 22.11 22.11 0 0 0-22.1-22Zm0 40.3a18.25 18.25 0 1 1 18.2-18.3 18.2 18.2 0 0 1-18.2 18.3Z" style="fill:url(#a)"/><path d="M25.5 10.5a14.3 14.3 0 1 0 14.3 14.3 14.3 14.3 0 0 0-14.3-14.3Zm0 25a10.7 10.7 0 1 1 10.7-10.7 10.71 10.71 0 0 1-10.7 10.7Z" style="fill:url(#b)"/><path d="M25.5 18.1a6.7 6.7 0 1 0 6.7 6.7 6.7 6.7 0 0 0-6.7-6.7Zm0 10.2a3.5 3.5 0 1 1 3.5-3.5 3.54 3.54 0 0 1-3.5 3.5Z" style="fill:url(#c)"/><path d="M43.7 24.8a18.2 18.2 0 0 1-36.4 0 1.9 1.9 0 0 0-1.9-1.9 2 2 0 0 0-1.9 1.9 22.05 22.05 0 1 0 44.1 0h-3.9Z" style="fill:#81bb01"/><path d="M36.2 24.8a10.7 10.7 0 0 1-21.4 0 1.8 1.8 0 1 0-3.6 0 14.3 14.3 0 0 0 28.6 0Z" style="fill:#00abd4"/><path d="M29 24.8a3.5 3.5 0 0 1-7 0 1.6 1.6 0 0 0-3.2 0 6.7 6.7 0 0 0 13.4 0Z" style="fill:#d30e7c"/></svg>