<svg xmlns="http://www.w3.org/2000/svg" width="194.755" height="194.755" viewBox="79.5 293.5 194.755 194.755"><defs><linearGradient id="a" gradientUnits="userSpaceOnUse" x1="366.751" y1="-291.913" x2="736.271" y2="18.151" gradientTransform="matrix(.229 0 0 -.229 10.124 391.926)"><stop offset="0" stop-color="#a90034"/><stop offset=".272" stop-color="#b03"/><stop offset=".723" stop-color="#d30032"/><stop offset="1" stop-color="#dc0032"/></linearGradient></defs><path fill="url(#a)" d="M209.42 380.417c-.787.459-2.021.423-2.79-.052l-4.521-2.688c-.368-.228-.706-.593-.961-1.032l-.045-.077c-.29-.471-.453-.968-.47-1.424l-.115-5.272c-.034-.888.552-1.971 1.342-2.432l54.362-31.67-76.285-41.577c-.84-.466-1.948-.691-3.057-.693-1.11-.002-2.22.229-3.061.693l-76.286 41.578 85.46 49.75c.792.433 1.394 1.461 1.394 2.389v72.576c0 .911-.652 1.958-1.45 2.384l-4.6 2.554c-.381.203-.867.312-1.375.312h-.088c-.552.013-1.065-.096-1.467-.312l-4.614-2.555c-.784-.417-1.425-1.469-1.425-2.383v-64.698c-.04-.474-.387-1.052-.767-1.27l-75.292-43.829v85.848c-.001 1.921 1.354 4.291 3.014 5.262l77.543 45.732c.829.486 1.92.728 3.012.724 1.092-.003 2.184-.231 3.01-.723l77.556-45.733c1.654-.981 3.005-3.338 3.003-5.262V350.69z"/></svg>