<svg viewBox="0 0 60 62" xmlns="http://www.w3.org/2000/svg"><g fill="none"><path d="M58.163 6.381a5.863 5.863 0 0 0-3.454 5.026 5.962 5.962 0 0 0-5.546-.628l.21.733a5.861 5.861 0 0 0 3.662 3.14 11.515 11.515 0 0 1-3.454 3.456 4.178 4.178 0 0 1-1.988.628 4.5 4.5 0 0 1-4.5-2.303 4.499 4.499 0 0 1-5.651 1.99 11.517 11.517 0 0 1-5.233-6.807 5.86 5.86 0 0 0 4.71-3.35 5.963 5.963 0 0 0-5.652-.733c0-2.094-1.57-5.235-3.453-6.282a7.638 7.638 0 0 0-.733-.42h-.314v.105a5.968 5.968 0 0 0-.523.629c-1.046 1.884-.837 5.235.314 7.12a5.86 5.86 0 0 0-4.71 3.35l.524.314a5.962 5.962 0 0 0 5.233.315 11.314 11.314 0 0 1-.628 7.12 10.99 10.99 0 0 1-.837 1.57 4.498 4.498 0 0 1-5.86.942 4.502 4.502 0 0 1-2.827 4.189l-1.15.21a11.716 11.716 0 0 1-5.338-1.362 5.865 5.865 0 0 0 1.675-4.502l-.105-1.047c-2.093.314-3.768 2.094-4.605 3.14-1.046-1.046-3.14-2.722-5.442-2.617-.523 0-1.046.314-1.57.524a76.195 76.195 0 0 1 7.326 6.073 76.42 76.42 0 0 1 4.5 4.816c2.093 2.304 5.547 6.91 5.547 6.91.418.629 2.093 1.362 3.349 1.257a.314.314 0 0 0 .209-.314l-.21-.21c-1.046-.418-1.465-1.047-1.779-1.884-.627-2.094 5.547-5.654 14.547-7.958 8.895-2.199 16.116-1.99 16.535.105.21.942.105 1.57-.523 2.513-.105 0-.314.21-.21.314.09.14.274.186.419.105 1.046-.42 2.198-1.885 2.302-2.618l1.675-8.795a74.683 74.683 0 0 1 5.023-15.183 5.858 5.858 0 0 0-1.465.42" fill="#F7760D"/><path d="M26.453 34.024s7.117-3.142 15.175-4.189c0 0 10.256 1.047 10.256 12.88 0 11.936-8.582 18.637-20.093 18.637C20.279 61.352 14 56.326 14 50.882c0-5.446 3.977-6.283 5.86-6.283 1.78 0 5.024 1.675 5.024 5.968 0 0-3.244-.838-3.244 1.99 0 2.827 3.872 4.502 9.209 4.502 5.232 0 12.767-2.304 12.767-12.565 0-10.89-5.128-11.413-8.686-11.413v18.847s.105 1.57 1.884 1.57c0 0-1.884 1.571-6.488 1.571-4.605 0-5.966-1.465-5.966-1.465s2.093 0 2.093-1.885V34.024" fill="#61B510"/></g></svg>