<svg xmlns="http://www.w3.org/2000/svg" viewBox="0 0 60 62"><path fill="#F7760D" d="M58.16 6.38a5.86 5.86 0 0 0-3.45 5.03 5.96 5.96 0 0 0-5.55-.63l.21.73a5.86 5.86 0 0 0 3.67 3.14 11.52 11.52 0 0 1-3.46 3.46 4.18 4.18 0 0 1-1.99.63 4.5 4.5 0 0 1-4.5-2.3 4.5 4.5 0 0 1-5.65 1.98 11.52 11.52 0 0 1-5.23-6.8 5.86 5.86 0 0 0 4.7-3.35 5.96 5.96 0 0 0-5.64-.74c0-2.1-1.57-5.23-3.46-6.28a7.64 7.64 0 0 0-.73-.42h-.31v.1a5.97 5.97 0 0 0-.53.63c-1.04 1.89-.83 5.24.32 7.12a5.86 5.86 0 0 0-4.71 3.35l.52.32a5.96 5.96 0 0 0 5.23.31 11.31 11.31 0 0 1-.62 7.12 10.99 10.99 0 0 1-.84 1.57 4.5 4.5 0 0 1-5.86.95 4.5 4.5 0 0 1-2.83 4.18l-1.15.21a11.72 11.72 0 0 1-5.34-1.36 5.87 5.87 0 0 0 1.68-4.5l-.1-1.05c-2.1.32-3.77 2.1-4.61 3.14-1.05-1.04-3.14-2.72-5.44-2.61-.53 0-1.05.31-1.57.52a76.2 76.2 0 0 1 7.32 6.07 76.42 76.42 0 0 1 4.5 4.82c2.1 2.3 5.55 6.91 5.55 6.91.42.63 2.1 1.36 3.35 1.26a.31.31 0 0 0 .2-.32l-.2-.2a2.88 2.88 0 0 1-1.78-1.9c-.63-2.09 5.55-5.65 14.55-7.95 8.9-2.2 16.11-1.99 16.53.1.21.95.1 1.58-.52 2.52-.1 0-.32.2-.21.31a.3.3 0 0 0 .42.1c1.04-.41 2.2-1.88 2.3-2.61l1.67-8.8a74.68 74.68 0 0 1 5.03-15.18 5.86 5.86 0 0 0-1.47.42"/><path fill="#61B510" d="M26.45 34.02s7.12-3.14 15.18-4.19c0 0 10.25 1.05 10.25 12.89 0 11.93-8.58 18.63-20.09 18.63S14 56.33 14 50.88c0-5.44 3.98-6.28 5.86-6.28 1.78 0 5.02 1.67 5.02 5.97 0 0-3.24-.84-3.24 1.99 0 2.82 3.87 4.5 9.2 4.5 5.24 0 12.78-2.3 12.78-12.57 0-10.89-5.13-11.4-8.69-11.4v18.84s.1 1.57 1.88 1.57c0 0-1.88 1.57-6.48 1.57-4.6 0-5.97-1.47-5.97-1.47s2.1 0 2.1-1.88v-17.7"/></svg>
