<svg xmlns="http://www.w3.org/2000/svg" width="149.491" height="149.491"><path d="M125.6.002H23.89C10.697.002 0 10.699 0 23.893v101.71c0 13.192 10.697 23.886 23.89 23.886H125.6c13.193 0 23.89-10.694 23.89-23.886V23.893C149.49 10.7 138.794.002 125.6.002" fill="#444446"/><path d="M80.1 116.8c-4.382 2.436-13.273 4.627-22.529 4.627-20.458 0-32.027-12.786-32.027-33.61 0-20.093 10.717-33.978 30.566-33.978 4.02 0 8.404.852 10.596 1.584V24.491H80.1z" fill="#fff"/><path d="M38.94 87.817c0 14.37 6.453 23.014 18.388 23.014 3.532 0 7.794-.853 9.378-1.702v-43.6c-1.707-.728-5.846-1.46-9.378-1.46-12.055 0-18.388 9.986-18.388 23.748" fill="#444446"/><path d="M126.742 64.679c-1.948-.487-4.26-.731-6.696-.731-3.775 0-7.794.608-10.351 1.705v54.436H96.42v-62.35c6.332-2.683 15.709-4.63 25.45-4.63 2.923 0 5.482.12 7.43.486z" fill="#fff"/></svg>