<svg xmlns="http://www.w3.org/2000/svg" width="10.772" height="10.772"><defs><path id="a" d="M0 .073h10.216v16.203H0z"/><path id="b" d="M.027.255H14.49v11.59H.027z"/></defs><path d="M9.656 2.308C7.6-.712 3.166-.17 1.23 2.06.261 3.174-.105 4.726.025 6.146.127 7.25.55 8.276 1.11 8.956c1.508 1.833 4.161 2.053 5.887.864 2.437-1.68 2.264-4.402.953-5.917-2.34-2.707-6.399-.04-4.903 3.039.367.754 1.216 1.139 1.978 1.129 1.09-.015 1.913-1.298 1.428-2.055-.508-.795-1.374-.004-1.017.598.287.483-.339.728-.613.67-.71-.15-1.05-1.145-.805-1.953.212-.693.944-1.19 1.648-1.147.98.06 2.076.825 1.944 2.52-.213 2.735-3.8 3.26-5.22 1.286-2.24-3.112.42-7.347 4.424-6.068 2.074.663 3.594 3.11 2.642 5.683-.358.967-.576 1.33-.618 1.662-.16 1.292 3.802-2.58.82-6.96" fill="#50a846" fill-rule="evenodd"/></svg>