<svg xmlns="http://www.w3.org/2000/svg" viewBox="0 0 800 741.37"><mask id="a" width="168" height="154" x="12" y="18" maskUnits="userSpaceOnUse"><path fill="#fff" d="M63.09 37c14.63-25.33 51.2-25.33 65.82 0l45.03 78c14.63 25.33-3.65 57-32.9 57H50.96c-29.26 0-47.54-31.67-32.91-57Z"/></mask><g mask="url(#a)" transform="translate(-62.15 -86.65)scale(4.81405)"><path fill="url(#b)" d="M206.9 172.02h-91.88L96 139.09l45.95-79.58Z"/><path fill="url(#c)" d="M-14.92 172 50.04 59.5l-19 32.92h38.01L115 172z"/><path fill="url(#d)" d="m96-20.08 45.95 79.58-19 32.93h-91.9Z"/></g><defs><linearGradient id="b" x1="193.6" x2="103.09" y1="165.6" y2="111.21" gradientUnits="userSpaceOnUse"><stop offset=".09" stop-color="#ffe921"/><stop offset="1" stop-color="#fec700"/></linearGradient><linearGradient id="c" x1="114.4" x2="15.53" y1="181.61" y2="121.8" gradientUnits="userSpaceOnUse"><stop offset=".15" stop-color="#a9a8ff"/><stop offset=".33" stop-color="#6d97ff"/><stop offset=".48" stop-color="#3186ff"/></linearGradient><linearGradient id="d" x1="128.88" x2="28.7" y1="37.88" y2="84.64" gradientUnits="userSpaceOnUse"><stop offset=".55" stop-color="#0ebc5f"/><stop offset=".85" stop-color="#78c9ff"/></linearGradient></defs></svg>