<svg xmlns="http://www.w3.org/2000/svg" width="326.456" height="326.456" viewBox="0 0 86.375 86.375" xmlns:v="https://vecta.io/nano"><path d="M4.44 17.195c2-1.196 4.188-1.952 6.428-2.264.394 4.943 2.517 9.674 6.13 13.288L28.7 39.91a4.63 4.63 0 0 1-2.076 7.747 4.63 4.63 0 0 1-4.473-1.199L9.013 33.33A17.2 17.2 0 0 1 4.44 17.196zm14.897 32.072a8.6 8.6 0 0 0 14.386-3.855 8.6 8.6 0 0 0-2.226-8.306L19.804 25.413a17.12 17.12 0 0 1-4.959-10.574 17.13 17.13 0 0 1 10.572 4.96L37.11 31.493a8.6 8.6 0 0 0 14.386-3.855 8.6 8.6 0 0 0-2.226-8.306L36.14 6.2A21.17 21.17 0 0 0 15.693.721c-3.57.956-6.825 2.83-9.445 5.435C3.6 8.79 1.693 12.08.726 15.69a21.17 21.17 0 0 0 5.48 20.447zM46.466 22.14a4.63 4.63 0 0 1-2.076 7.747 4.63 4.63 0 0 1-4.473-1.199L28.223 16.994a21.17 21.17 0 0 0-20.446-5.48c-.352.094-.7.2-1.047.313a17.2 17.2 0 0 1 2.28-2.821c6.716-6.716 17.608-6.713 24.324.003z" fill="#259cd8" style="mix-blend-mode:multiply"/><path d="M69.17 4.445c1.196 2 1.952 4.188 2.264 6.428-4.943.394-9.674 2.517-13.288 6.13L46.454 28.696a4.63 4.63 0 0 1-7.747-2.076 4.63 4.63 0 0 1 1.199-4.473l13.13-13.13a17.2 17.2 0 0 1 16.135-4.573zM37.1 19.34a8.6 8.6 0 0 0 3.855 14.386 8.6 8.6 0 0 0 8.306-2.226l11.693-11.693a17.12 17.12 0 0 1 10.574-4.959 17.13 17.13 0 0 1-4.96 10.572L54.873 37.115a8.6 8.6 0 0 0 3.855 14.386 8.6 8.6 0 0 0 8.306-2.226l13.132-13.132a21.17 21.17 0 0 0 5.48-20.446c-.956-3.57-2.83-6.825-5.435-9.445A21.16 21.16 0 0 0 70.679.73a21.17 21.17 0 0 0-20.447 5.48zM64.23 46.47a4.63 4.63 0 0 1-7.747-2.076 4.63 4.63 0 0 1 1.199-4.473l11.693-11.693a21.17 21.17 0 0 0 5.48-20.446c-.094-.352-.2-.7-.313-1.047a17.2 17.2 0 0 1 2.821 2.28c6.716 6.716 6.713 17.608-.003 24.324z" fill="#d4186f" style="mix-blend-mode:multiply"/><path d="M17.195 81.94c-1.196-2-1.952-4.188-2.264-6.428 4.943-.394 9.674-2.517 13.288-6.13L39.91 57.69a4.63 4.63 0 0 1 7.747 2.076 4.63 4.63 0 0 1-1.199 4.473l-13.13 13.13a17.2 17.2 0 0 1-16.135 4.573zm32.072-14.897a8.6 8.6 0 0 0-3.855-14.386 8.6 8.6 0 0 0-8.306 2.226L25.413 66.576a17.12 17.12 0 0 1-10.574 4.959 17.13 17.13 0 0 1 4.96-10.572L31.493 49.27a8.6 8.6 0 0 0-3.855-14.386 8.6 8.6 0 0 0-8.306 2.226L6.2 50.24a21.17 21.17 0 0 0-5.48 20.446c.956 3.57 2.83 6.825 5.435 9.445a21.16 21.16 0 0 0 9.532 5.522 21.17 21.17 0 0 0 20.447-5.48zM22.14 39.916a4.63 4.63 0 0 1 7.747 2.076 4.63 4.63 0 0 1-1.199 4.473L16.994 58.157a21.17 21.17 0 0 0-5.48 20.446c.094.352.2.7.313 1.047a17.2 17.2 0 0 1-2.821-2.28C2.3 70.653 2.294 59.76 9.01 53.044z" fill="#d54226" style="mix-blend-mode:multiply"/><path d="M81.94 69.178c-2 1.196-4.188 1.952-6.428 2.264-.394-4.943-2.517-9.674-6.13-13.288L57.69 46.46a4.63 4.63 0 0 1 2.076-7.747 4.63 4.63 0 0 1 4.473 1.199l13.13 13.13a17.2 17.2 0 0 1 4.573 16.135zM67.043 37.106a8.6 8.6 0 0 0-14.386 3.855 8.6 8.6 0 0 0 2.226 8.306L66.575 60.96a17.12 17.12 0 0 1 4.959 10.574 17.13 17.13 0 0 1-10.572-4.96L49.27 54.88a8.6 8.6 0 0 0-14.386 3.855 8.6 8.6 0 0 0 2.226 8.306l13.13 13.13a21.17 21.17 0 0 0 20.446 5.48c3.57-.956 6.825-2.83 9.445-5.435a21.16 21.16 0 0 0 5.522-9.532 21.17 21.17 0 0 0-5.48-20.447zM39.915 64.234a4.63 4.63 0 0 1 2.076-7.747 4.63 4.63 0 0 1 4.473 1.199L58.157 69.38a21.17 21.17 0 0 0 20.446 5.48c.352-.094.7-.2 1.047-.313a17.2 17.2 0 0 1-2.28 2.821c-6.716 6.716-17.608 6.713-24.324-.003z" fill="#3655a1" style="mix-blend-mode:multiply"/></svg>