<svg xmlns="http://www.w3.org/2000/svg" viewBox="0 0 128 128"><circle cx="64" cy="64" r="59" fill="#fff"/><path fill="#af2127" d="M111.5 42c-1.2 1.7-2.3 2.6-3.2 2.8a7 7 0 0 1-4.3-.5c-.6-.3-1.5-.1-3.2.3l-.7.1c2 3.2 4.4 6.5 5.6 8.7a31 31 0 0 1 4 14.2c.5 16-11.8 30-29.2 35.6h.1a51.7 51.7 0 0 1-29 1c-17.7-4.4-30.7-17.6-31.2-33.6a33 33 0 0 1 3-14.6c1-2.2 3.3-5.6 5-8.9l-.9-.1c-1.7-.3-2.5-.4-3.1 0a7 7 0 0 1-4.3.8c-.9-.2-2-1-3.4-2.6-.2-.4-2.2-2.5-2-4 .3-1.3 2.2-3.5 3.8-3.3.8.1 1.6.4 2.4.7.8.3 1.6.6 2.6.8l7.4 1.4v-.2c.3-3-.8-6-2.2-8.5-.9-1.6-2-3-2.5-3.6-.9-1-1.7-2.4-.9-3.4.1-.1.3-.3.5-.3 1.3 0 2.6-.1 4.1 1 1.2.3 5.2 7.2 5.9 8.6a33 33 0 0 1 2 11.5c-.4 4-4.6 10.8-6 14.4a32.7 32.7 0 0 0 7.8 36.2l-.9-1.6c-6.1-14.2 7.4-18.8 4.6-31.1 3 2.5 3.6 6.8 2.9 18.5-.3 4.6 2.8 7.3 5.2 7.8-3.4-8.8.1-12.8 4.2-22 2.2-5 5-12 1.5-16.4 1.2.4 4.2 1.7 5.2 6.2.6 2.8.4 6.5 0 9.5-.9 7.8-2.9 13.4 1.7 19a10 10 0 0 0 4.7 2.9c-.8-1-4.6-5.8.2-14.4 2.2-3.8 5-7.3 2.9-12.8 5.4 3 2.9 10 3 15 0 6.6 8.3 8.6 8.3 8.6-2.1-5.2-.8-9.1 3.6-11.6-2 5.8 2 10.4 3.2 12.2 1.3 1.9 1.6 5.1.7 8-.4 1.3-1 2.5-2 3.7a33.3 33.3 0 0 0 9-39.9c-1.6-3.4-6.3-10-6.8-14-.4-2.8.2-9.1 1.2-11.6l1.2-2.5-1.2.6a94 94 0 0 1-24 3.1c-6.2 0-25.3-3.7-25.1-9.1a199 199 0 0 0 23.5 2c15.3.4 27.3-3.4 34.2-4.3h.7c.4 0 .6.2.6.4.9.9.1 2.2-.7 3.2-.4.7-1.4 2.2-2.2 3.8a15.2 15.2 0 0 0-1.7 8.7v.2a266.7 266.7 0 0 0 9.7-2.8c.8-.4 1.5-.7 2.4-.9 1.5-.3 3.6 1.7 4 3 .3 1.6-1.5 3.8-1.8 4.1m15.1-3a67.6 67.6 0 0 0-3-16 27.3 27.3 0 0 0-20.3-19.1h-.2c-4-1.3-8.5-2-13.1-2.4a223 223 0 0 0-51-.1 69 69 0 0 0-15.4 2.8A27.6 27.6 0 0 0 4.2 23.6 69 69 0 0 0 1.4 39c-1.9 16-1.9 35.2 0 51A69.7 69.7 0 0 0 4 103.4a27.4 27.4 0 0 0 19 20.3 67.7 67.7 0 0 0 16 3c16 1.9 35.2 1.9 51 0 4.8-.5 9.4-1.3 13.7-2.6a27.8 27.8 0 0 0 20.4-20.4 69 69 0 0 0 2.6-13.7c1.9-15.8 1.9-35 0-51"/></svg>