<svg xmlns="http://www.w3.org/2000/svg" width="128" height="128" viewBox="0 0 128 128"><g fill="none" fill-rule="evenodd"><circle cx="64" cy="64" r="59" fill="#FFF"/><path fill="#AF2127" d="M111.515142,42.0378254 C110.293181,43.6987037 109.198403,44.6438581 108.273204,44.843363 C106.986404,45.120176 105.674666,44.9630659 104.006315,44.2722802 C103.377877,44.0204053 102.524998,44.1849968 100.834203,44.5515871 C100.582329,44.6064509 100.332949,44.6638086 100.076088,44.7136848 C102.061152,47.9257136 104.520037,51.2100629 105.652222,53.3597282 C108.083675,57.6889844 109.522597,62.5095214 109.679707,67.6093652 C110.210886,83.6545463 97.8566073,97.6548023 80.5122379,103.186075 C80.5521386,103.171113 80.5920394,103.151162 80.6294464,103.131212 C76.4672965,104.620017 71.2203442,105.482876 65.2277461,105.68238 C59.9807938,105.859441 55.3398346,105.265914 51.4395335,104.133724 C51.4943971,104.156168 51.5467669,104.178612 51.5991367,104.20355 C33.9330672,99.8194304 20.9029694,86.617194 20.3792717,70.5645315 C20.2096934,65.4472309 21.341878,60.5419044 23.4940262,56.0405752 C24.4865581,53.8260709 26.703545,50.4145372 28.4616731,47.1127312 C28.1549358,47.0678426 27.8481986,47.022954 27.5439552,46.9755715 C25.8307155,46.7236966 24.9778364,46.6164627 24.3568805,46.9132263 C22.7433928,47.7037644 21.4341486,47.9506517 20.1373733,47.7661097 C19.2021988,47.6289501 18.0575452,46.7536224 16.7283506,45.1825213 C16.4590203,44.8383754 14.493907,42.7385864 14.7333117,41.2048925 C14.9527659,39.8557406 16.9353358,37.6836311 18.4964538,37.9180494 C19.3343701,38.0377523 20.0999663,38.3345158 20.9104508,38.6387608 C21.6984912,38.9355243 22.5089758,39.2472507 23.4890386,39.4268051 C24.8381837,39.7036182 27.2097862,40.1749485 30.8831515,40.8407961 C30.8931267,40.7659817 30.9055957,40.6886736 30.9105833,40.616353 C31.174926,37.5315086 30.0626918,34.6337 28.6561894,32.0526055 C27.8232606,30.5388621 26.7334706,29.1198835 26.2247357,28.4590236 C25.3095116,27.4290795 24.4715953,26.1347915 25.3095116,25.1372671 C25.4416829,24.9751693 25.5962985,24.7607016 25.8257279,24.755714 C27.062652,24.7183068 28.3768839,24.6833934 29.9105701,25.8031147 C31.087643,26.0824215 35.0926836,32.9678342 35.768503,34.3868127 C36.9106628,36.7958343 37.923145,43.060288 37.7261349,45.9206894 C37.4343605,49.8983182 33.2098656,56.7238794 31.8582268,60.2700789 C30.1499747,64.4322498 29.2696638,69.0108871 29.4217855,73.7690788 C29.7185476,82.6719847 33.5664788,90.6422053 39.6189281,96.5201182 C39.2722901,95.9914302 38.9730342,95.4452856 38.7336296,94.8941533 C32.5814284,80.7068615 46.1127797,76.078348 43.347157,63.7514393 C46.2399634,66.3001144 46.8783759,70.5894696 46.1801123,82.2879378 C45.9057944,86.8765504 48.9806481,89.6047798 51.3921514,90.1185049 C47.9706597,81.2904133 51.5367917,77.2903402 55.5717579,68.0682265 C57.761313,63.0830979 60.5668365,56.1677595 57.1229006,51.6913685 C58.3298991,52.1252916 61.3050009,53.3971353 62.2900513,57.8909831 C62.8860692,60.7114835 62.7339475,64.3574355 62.3623715,67.3948975 C61.4197156,75.1830698 59.4221829,80.8140954 64.040698,86.4301582 C65.2252523,87.8765687 67.3549563,88.8740931 68.7140766,89.2506586 C67.8811478,88.2107394 64.0681298,83.4625229 68.9210619,74.8962815 C71.0707163,71.0682813 73.8089072,67.5644766 71.7739675,62.0930549 C77.2328927,65.1404922 74.6842305,72.0608182 74.7116623,77.1856001 C74.7565506,83.7218792 83.1207512,85.719422 83.1207512,85.719422 C80.968603,80.4674557 82.2578969,76.5771102 86.7093274,74.1381629 C84.6669064,79.9163234 88.6544904,84.5298741 89.8639827,86.2530976 C91.2181153,88.1932827 91.482458,91.4227682 90.5622463,94.2432686 C90.2380525,95.5974081 89.6021338,96.839326 88.6943911,97.9615411 C96.4052165,91.4601753 101.225729,81.9238414 100.87161,71.3974644 C100.724476,66.6567294 99.5573779,62.1728569 97.5897708,58.1154261 C96.0161839,54.6839419 91.3203611,48.1252185 90.7792068,44.1575649 C90.3826928,41.3221016 90.9812045,34.9953027 91.9787239,32.5289234 C92.150796,32.0775436 92.609655,31.1174263 93.2056728,29.9827422 C92.7044193,30.2695305 92.2854611,30.4790106 92.0136371,30.5812569 C86.7966104,32.4865286 74.6468235,33.7284466 67.8811478,33.7134837 C61.7264529,33.6885456 42.5815609,29.9503226 42.7586206,24.5711719 C47.3397286,25.3966234 59.1179395,26.471456 66.3025733,26.6210847 C81.64941,26.9527616 93.5847302,23.2020696 100.482577,22.3267419 C100.756895,22.2918285 100.983831,22.2818533 101.170866,22.2918285 C101.175853,22.2893347 101.175853,22.2893347 101.178347,22.2868409 C101.185828,22.2893347 101.190816,22.2918285 101.195804,22.2918285 C101.597305,22.3217543 101.801797,22.4514324 101.839204,22.6609126 C102.65717,23.5886103 101.943943,24.8779107 101.118496,25.9452619 C100.659637,26.6160971 99.6521423,28.1273467 98.9264469,29.720892 C97.6770538,32.3942576 96.7568421,35.3593991 97.2206886,38.4093302 C97.2306638,38.4741692 97.2481204,38.5415021 97.2605894,38.608835 C100.794302,37.7235321 103.081115,37.1075607 104.392853,36.7384767 C105.345485,36.5040584 106.133525,36.1449496 106.901615,35.7883346 C107.707112,35.426732 108.44777,35.0925613 109.283193,34.9080193 C110.816879,34.5663671 112.921645,36.6137861 113.243345,37.9429875 C113.577514,39.4567308 111.762028,41.6812104 111.515142,42.0378254 M126.637537,38.9729315 C126.15374,33.3144739 125.250985,27.8580151 123.582634,22.9826142 C122.29334,18.8628381 120.420497,15.5011807 118.043907,12.7729513 C114.602465,8.6332247 109.834322,5.55087408 103.275632,3.86755154 C103.228249,3.85508248 103.17588,3.84510724 103.128498,3.83014437 C99.0261988,2.61565833 94.5722745,1.88746546 89.9637346,1.45104851 C74.1281134,-0.459210854 54.8710004,-0.479161343 38.9131831,1.36625893 C33.5215905,1.84008305 28.3220203,2.68299123 23.6361727,4.2166851 C18.4341088,5.73042849 14.4165992,8.16189439 11.3217952,11.324047 C8.1596585,14.4163728 5.73069864,18.4339026 4.21446908,23.6359927 C2.68327673,28.3243578 1.837879,33.5239541 1.36655106,38.9155738 C-0.478859918,54.8709777 -0.45890953,74.1256938 1.44884641,89.9638886 C1.88526117,94.5724517 2.61345037,99.0313861 3.8279303,103.126224 C3.84289309,103.1761 3.85536208,103.22847 3.86533728,103.278346 C5.55114514,109.83707 8.63597404,114.602743 12.7706921,118.046696 C15.5014016,120.423298 18.8630422,122.298644 22.9827975,123.582957 C27.8581738,125.251317 33.3121114,126.151583 38.9730342,126.637876 C54.8859632,128.473321 74.0757436,128.458358 89.8764517,126.565555 C94.689483,126.111682 99.3404174,125.346082 103.58985,124.046806 C109.183441,122.558001 113.460305,120.041745 116.712219,116.710013 C120.04144,113.460578 122.557683,109.186185 124.043987,103.590073 C125.345749,99.3381248 126.111346,94.6896608 126.560229,89.879099 C128.45801,74.0758176 128.475467,54.8859406 126.637537,38.9729315"/></g></svg>