<svg xmlns="http://www.w3.org/2000/svg" version="1.1" id="Layer_2" x="0" y="0" xml:space="preserve" width="1484.2" height="1484.2"><style type="text/css" id="style17622">.st0{fill:#fff}</style><g id="g18221" transform="translate(-354.564 -591.485)"><path d="M1095.964 2075.685c-313.2-.8-566.8-254.7-567.2-567.9 0-266.3 177.7-443.6 334-600.3 104.5-104.5 204.3-204 233.9-316 29.5 112.1 129.4 211.5 233.9 316 156.8 156.8 334 334 334 600.3-.3 313.7-254.8 567.9-568.6 567.9z" id="path18204" fill="#0678be" fill-opacity="1"/><path class="st0" d="M1205.564 1031.385c-36-36-74.2-74.6-108.1-113.1-31.7 36-65.2 68.8-98.7 102.3-8.1 8-14.7 17.4-19.5 27.7-7.4 16.2-9.8 34.3-6.8 51.9v5.4c3.1 9.7 7.7 18.8 13.7 27 1 1.4 1.8 2.8 2.5 4.3 22 27.4 74.2 77.8 103.4 105.9l173 180.2 51.9 54.8c42.8 44.4 81.4 92.6 115.3 144.1 4.1 7.1 10.6 12.3 18.4 14.8h3.6c8.4-1.4 15.3-7.4 18-15.5 11.2-36.2 16.9-73.8 16.9-111.7-1-87.7-28.8-172.9-79.6-244.3-59.9-83.7-127.9-161.2-203.2-231.3z" id="path17624" fill="#fff"/><path class="st0" d="M1253.864 1611.585c-42.9-52.3-84.3-100.2-149.5-169.7-55.1 63.1-105.6 111.7-147.4 161.1-73.6 79.7-68.7 203.9 11 277.5s203.9 68.7 277.5-11c62.5-67.6 69.6-169.6 17.1-245.3-2.6-4.5-5.5-8.7-8.7-12.6z" id="path17626" fill="#fff"/><path class="st0" d="M999.464 1356.385c4.8-5.5 4.8-13.6 0-19.1l-127.2-130.1-27.4-25.9c-22 25.6-42.6 52.4-61.6 80.4a470.09 470.09 0 00-67.7 145.9c-15.3 60-13.9 123.1 4.3 182.3l2.5 5.4c3.2 6.4 6.8 12.5 10.8 18.4 0 0 14.8 23.8 27.7 24.9h4.7c4.4-1 8-4.1 9.7-8.3 12-25.2 27-48.7 44.7-70.3l46.5-56.6z" id="path17628" fill="#fff"/></g></svg>