<svg xmlns="http://www.w3.org/2000/svg" width="49.598" height="17" viewBox="0 0 49.598 32" fill="none"><path d="M40.503 7.787H31.53V32H19.884V7.787h-8.99V.018h29.609zm30.84-.125V0H44.94v24.313a7.598 7.598 0 0 0 7.597 7.597H71.48v-7.697H57.926c-.98 0-1.777-.797-1.777-1.777v-3.16h14.584v-7.09H56.149V7.661zM-2.164 31.975h-19.718V.05h19.654a9.403 9.403 0 0 1 9.402 9.403v13.184a9.338 9.338 0 0 1-9.338 9.338zm-1.429-10.092V10.006A2.45 2.45 0 0 0-6.04 7.557h-4.312v16.774h4.312a2.45 2.45 0 0 0 2.448-2.448z" fill="#1e3575"/></svg>