<svg xmlns="http://www.w3.org/2000/svg" class="nav_home_img" width="93.361" height="93.361" fill="none"><path d="M62.384 38.468h-8.972V62.68H41.766V38.468h-8.99v-7.77h29.608zm30.84-.126v-7.661H66.823v24.313a7.598 7.598 0 007.597 7.597H93.36v-7.698H79.808c-.98 0-1.777-.797-1.777-1.777v-3.16h14.583v-7.09H78.031v-4.524zM19.719 62.655H0V30.731h19.653a9.403 9.403 0 019.403 9.403v13.183a9.338 9.338 0 01-9.338 9.338zm-1.43-10.092V40.687a2.45 2.45 0 00-2.448-2.449h-4.312v16.774h4.312a2.45 2.45 0 002.449-2.449z" fill="#1e3575"/></svg>