<svg xmlns="http://www.w3.org/2000/svg" width="149.504" height="149.504" viewBox="0 0 39.556 39.556"><g fill="#1c4f9c"><path d="M3.659 22.678c-.054 1.081.97 1.86 1.965 1.964 1.47.195 2.957-.416 4.09-1.327 1.312-1.057 1.924-2.803 1.758-4.458-.098-1.857-1.234-3.577-2.854-4.47-1.346-.798-2.998-1.135-4.535-.8-.486.063-.43.585-.424.948v8.143zm-1.19 2.49c-.691-.025-1.387.144-2.073.04-.25-.661.856-.486 1.2-.782.51-.498.314-1.265.354-1.907-.006-2.875.012-5.752-.009-8.627-.455-.46-1.23-.19-1.812-.383-.421-.472.538-.584.902-.528 1.282.01 2.563-.004 3.842-.101 2.195-.106 4.581.209 6.32 1.67 1.478 1.228 2.18 3.184 2.158 5.072.076 2.26-1.582 4.286-3.637 5.064-1.1.479-2.31.505-3.488.482H2.468M17.401 25.533c-.772.025-1.654-.238-2.026-.974-.492-.947-.34-2.05-.35-3.079.002-1.023.022-2.046.022-3.07-.186-.422-.813-.262-1.142-.537-.078-.434.622-.222.896-.247.49.07.985-.056 1.474 0 .295.343.064.924.135 1.358 0 1.512-.061 3.026-.02 4.537.055.638.699 1.019 1.29 1.041.777.03 1.668.007 2.27-.555.506-.534.348-1.32.38-1.988.005-1.177.051-2.355.029-3.531-.261-.355-.843-.263-1.22-.469-.312.006-.567-.428-.1-.405.634-.016 1.269.075 1.903.003.476-.128 1.045.113.864.691.008 1.965-.104 3.93-.065 5.894.12.472.73.295 1.091.34.302-.127.676.307.238.386-.805.138-1.614.266-2.418.416-.359.14-.338-.265-.324-.499.024-.22.002-.672-.328-.43-.746.589-1.608 1.149-2.599 1.118M24.934 13.836c.15-.697-.69-.75-.975-1.095.139-.285.547-.287.814-.43.397-.129.776-.345 1.188-.405.387-.063.342.393.336.653.002 2.657-.004 5.314.003 7.97.211.56.919-.219 1.293-.33.712-.449 1.457-.873 2.07-1.454.394-.588-1.13-.672-.518-1.123.9-.023 1.805.067 2.706-.007.398-.16 1.199.19.493.48-.868.239-1.622.743-2.4 1.178-.708.43-1.446.828-2.083 1.361-.078.29.3.444.466.642 1.11 1 2.206 2.017 3.327 3.005.381.363 1.033.376 1.35.766-.376.412-1.1.093-1.613.132-.81-.083-1.627.17-2.428.015-.357-.599 1.1-.202.821-.832-.59-.632-1.252-1.198-1.872-1.802-.469-.437-.925-.887-1.402-1.315-.343-.104-.173.363-.213.56.012.85-.026 1.704.02 2.553-.038.569 1.348.362.845.848-.734.12-1.476-.124-2.215-.015-.369-.034-1.427.313-1.291-.303.456-.244 1.316-.171 1.274-.906.01-3.382.001-6.764.004-10.145"/><path d="M36.22 19.948c.577-.021 1.2.03 1.725-.25.36-.221.347-.729.247-1.089-.25-.684-1.07-.944-1.739-.826-.92.148-1.7.902-1.942 1.793-.15.504.58.306.865.366.282.005.563.007.845.007m-1.904.594c-.074.384-.028.783-.024 1.172.043.855.266 1.8 1 2.329.702.538 1.645.594 2.491.483a1.775 1.775 0 001.103-.676c.326-.26.44.213.188.395-.495.675-1.294 1.107-2.111 1.244-1.057.15-2.246-.05-3.012-.849-.886-.903-1.128-2.24-1.064-3.462.088-1.319.69-2.668 1.831-3.397.818-.55 1.894-.622 2.824-.35 1.14.381 1.994 1.514 2.012 2.72.064.36-.296.425-.566.391h-4.672"/></g></svg>