<svg xmlns="http://www.w3.org/2000/svg" width="39.636" height="39.636"><path fill="#005984" d="M25.517 35.495a5.92 5.92 0 01-3.45 1.8c-2 .12-3.95-1.11-4.54-5.58l-8.08-2.38c3.53 12.57 13.3 12.13 16.66 6.66.23-.36.16-.54 0-.63-.16-.09-.36-.09-.59.13zm0-33c-3.25-6.5-14.77-.08-16.77 16.7a1.77 1.77 0 00.89 1.93 9.76 9.76 0 003.29 1.09 9.41 9.41 0 002.7.23 1.69 1.69 0 001.6-1.45c1.72-18 5.83-22.08 7.74-18.21.22.45.78.21.54-.29z"/><path fill="#54b948" d="M23.527 8.175a2.09 2.09 0 00-2.07.91 7.88 7.88 0 00-.92 2.77 10 10 0 00-.19 3 1.26 1.26 0 001.2.91c3.68.23 14.48 1.77 16 4.91 1 2.16-2 2.71-4.22 3.28a1.8 1.8 0 00-1.45 1.45 4.18 4.18 0 00.6 3.24 1 1 0 001.37.35l.13-.09a12.55 12.55 0 003-2.77c7.22-10.07-7.92-17.85-13.45-17.96z"/><path fill="#26bcd7" d="M27.237 24.665c-18.11 2-32.4-6.28-21.58-8.29 0 0 1.38-.32 1.64-1.1s.34-1 .64-2.15c.19-.71.36-1.11.54-1.66.29-.85-.25-1.36-1.45-.77-9.89 4.83-7 13.85 1.07 18.37a25 25 0 0017.52 2.93 3.57 3.57 0 002.39-1.66 6.2 6.2 0 001-4.15 1.48 1.48 0 00-1.77-1.5z"/></svg>