<svg xmlns="http://www.w3.org/2000/svg" viewBox="0 0 250 189.7"><path fill="#f49000" d="M39.5 163.2a9.7 9.7 0 0 1 13.8-.4l11.3 10.6a9.8 9.8 0 0 1-13.4 14.2L40 177a9.8 9.8 0 0 1-.4-13.8m171 0a9.8 9.8 0 0 1-.5 13.8l-11.3 10.6a9.8 9.8 0 0 1-13.4-14.2l11.3-10.6a9.7 9.7 0 0 1 14 .4"/><path fill="#58cc02" d="M11.2 48.5 121.7 76a9 9 0 0 1 5.4 13.5 68.8 68.8 0 0 1-75 29.8 68.5 68.5 0 0 1-52-61.5 9 9 0 0 1 11.1-9.3"/><path fill="#58cc02" d="M238.8 48.5a9 9 0 0 1 11.2 9.3 68.5 68.5 0 0 1-52 61.5 68.8 68.8 0 0 1-75-29.8 9 9 0 0 1 5.3-13.5l110.5-27.5"/><path fill="#58cc02" d="M175 0a29.6 29.6 0 0 0-10 2c-19.5 8.3-32.5 12.4-40 12.5-7.4-.1-20.4-4.2-39.8-12.5A29.6 29.6 0 0 0 75 0a25.6 25.6 0 0 0-25.5 25.6v78.9a76 76 0 0 0 75.5 75.8 76 76 0 0 0 75.5-75.8v-79A25.6 25.6 0 0 0 175 0z"/><path fill="#89e219" d="M151.2 126.7h-19a1.5 1.5 0 0 0-1.5 2 11.3 11.3 0 0 0 11 7.3c5 0 9.5-3 11-7.4a1.5 1.5 0 0 0-1.5-1.9zm-31.8 2a1.4 1.4 0 0 0-1.5-2H99a1.4 1.4 0 0 0-1.4 2 11.3 11.3 0 0 0 11 7.3c5 0 9.4-3 11-7.4zm15.1 14.2h-19a1.4 1.4 0 0 0-1.4 1.9 11.3 11.3 0 0 0 11 7.4c5 0 9.5-3 11-7.4a1.4 1.4 0 0 0-1.6-2zM91.8 15.6l22.8 24.8a2.7 2.7 0 0 1-.8 4.2A20.3 20.3 0 0 1 88 16c1-1.6 2.7-1.8 3.8-.4"/><path fill="#89e219" d="M80.5 21.5 103 46.4a2.7 2.7 0 0 1-.9 4.2A20.3 20.3 0 0 1 76.3 22a2.6 2.6 0 0 1 4.2-.4"/><path fill="#89e219" d="M87.4 26.9h2.2A28.3 28.3 0 0 1 118 55.2v18.3A28.3 28.3 0 0 1 89.6 102h-2.2a28.3 28.3 0 0 1-28.3-28.4V55.2A28.4 28.4 0 0 1 87.4 27m70.8-11.4c1.1-1.4 2.7-1.2 3.7.4a20.3 20.3 0 0 1-25.7 28.6 2.7 2.7 0 0 1-.8-4.2l22.8-24.9"/><path fill="#89e219" d="M169.5 21.5a2.6 2.6 0 0 1 4.2.5A20.3 20.3 0 0 1 148 50.6a2.7 2.7 0 0 1-.9-4.2l22.4-24.9"/><path fill="#89e219" d="M162.6 26.9A28.4 28.4 0 0 1 191 55.2v18.3a28.3 28.3 0 0 1-28.3 28.4h-2.2a28.3 28.3 0 0 1-28.3-28.4V55.2A28.3 28.3 0 0 1 160.4 27h2.2"/><path fill="#89e219" d="M139.6 35.8a20 20 0 0 1-29.2 0c-.2 18.1-.2 34.4 0 48.6h29.2c.2-14.2.2-30.5 0-48.7z"/><path fill="#fff" d="M87.7 37.5a20.8 20.8 0 0 1 20.8 20.8v12.5a20.8 20.8 0 0 1-41.6 0V58.3a20.7 20.7 0 0 1 20.8-20.8"/><path fill="#122431" d="M90.6 49.4a9.9 9.9 0 0 1 10 9.9v10.8a9.9 9.9 0 0 1-19.9 0V59.3a10 10 0 0 1 10-9.9"/><path fill="#fff" d="M82.4 48.8a6.3 6.3 0 1 1-6.3 6.3 6.2 6.2 0 0 1 6.3-6.3m80-11.3A20.8 20.8 0 0 1 183 58.3v12.5a20.8 20.8 0 0 1-41.6 0V58.3a20.7 20.7 0 0 1 20.8-20.8"/><path fill="#122431" d="M159.4 49.4a9.9 9.9 0 0 1 10 9.9v10.8a9.9 9.9 0 0 1-19.9 0V59.3a10 10 0 0 1 10-9.9"/><path fill="#fff" d="M150 48.8a6.3 6.3 0 1 1-6.3 6.3 6.2 6.2 0 0 1 6.2-6.3"/><path fill="#89e219" d="M142.2 81.1c15.6-6.7 30-11.3 42.4-13.7 0 0 2.6 21.8-13.9 26.9-21 6.5-28.5-13.2-28.5-13.2zM79.4 94.3c-16.5-5.1-14-26.9-14-26.9A207 207 0 0 1 108 81.1s-7.5 19.7-28.5 13.2z"/><path fill="#f49000" d="M125 69a10.7 10.7 0 0 1 10.8 10.8v17.9a10.8 10.8 0 1 1-21.6 0v-18A11 11 0 0 1 125 69"/><path fill="#b66e28" d="M125 73.3a8.3 8.3 0 0 1 8.3 8.2v12a8.3 8.3 0 0 1-8.3 8.2 8.4 8.4 0 0 1-8.3-8.2v-12a8.3 8.3 0 0 1 8.3-8.2"/><path fill="#ffc200" d="m125 81.5 14.4-2.4a.5.5 0 0 0 .4-.6 15 15 0 0 0-29.6 0 .5.5 0 0 0 .4.6z"/><path fill="#ffde00" d="M128.3 72.9a2 2 0 0 1-.6-.1 9.7 9.7 0 0 0-5.4 0 2.2 2.2 0 0 1-1.2-4.2 14 14 0 0 1 7.8 0 2.2 2.2 0 0 1-.6 4.3z"/></svg>
