<svg xmlns="http://www.w3.org/2000/svg" id="Duo" version="1.1" width="250.037" height="250.037"><defs id="defs29501"><style id="style29499">.cls-1{fill:#f49000}.cls-2{fill:#58cc02}.cls-3{fill:#89e219}.cls-4{fill:#fff}.cls-5{fill:#122431}</style></defs><g id="g30144" transform="translate(.018 29.88)"><g id="feet"><path id="left_foot" data-name="left foot" class="cls-1" d="M39.45 163.21a9.7 9.7 0 0113.81-.44l11.34 10.61a9.774 9.774 0 01-13.38 14.25L39.89 177a9.83 9.83 0 01-.44-13.81"/><path id="right_foot" data-name="right foot" class="cls-1" d="M210.55 163.21a9.83 9.83 0 01-.44 13.81l-11.33 10.61a9.774 9.774 0 01-13.38-14.25l11.34-10.61a9.7 9.7 0 0113.81.44"/></g><g id="wings"><path id="left_wing" data-name="left wing" class="cls-2" d="M11.21 48.54L121.67 76a8.91 8.91 0 015.38 13.52c-15.56 24.85-45.78 37.06-75 29.79A68.48 68.48 0 010 57.84a9 9 0 0111.19-9.3"/><path id="right_wing" data-name="right wing" class="cls-2" d="M238.79 48.54a9 9 0 0111.21 9.3 68.48 68.48 0 01-52 61.48c-29.22 7.27-59.44-4.94-75-29.79A8.91 8.91 0 01128.33 76l110.46-27.46"/></g><path id="torso" class="cls-2" d="M175 0a29.64 29.64 0 00-10 2c-19.48 8.31-32.45 12.38-39.92 12.5-7.47-.12-20.44-4.19-39.92-12.5A29.64 29.64 0 0075 0a25.61 25.61 0 00-25.53 25.58v78.91A75.91 75.91 0 00125 180.35a75.91 75.91 0 0075.52-75.86V25.58A25.61 25.61 0 00175 0z"/><path id="belly" class="cls-3" d="M151.19 126.73h-19a1.5 1.5 0 00-1.45 1.89A11.3 11.3 0 00141.6 136c5.09 0 9.59-3.05 11.05-7.41a1.46 1.46 0 00-1.46-1.86zm-31.83 1.89a1.45 1.45 0 00-1.45-1.89h-19a1.38 1.38 0 00-1.45 1.89 11.3 11.3 0 0010.9 7.41c5.04-.03 9.55-3.03 11-7.41zm15.16 14.24h-19a1.45 1.45 0 00-1.45 1.89 11.3 11.3 0 0010.9 7.41c5.08 0 9.59-3 11-7.41a1.45 1.45 0 00-1.45-1.89z"/><g id="face"><g id="mask"><path class="cls-3" d="M91.83 15.55l22.81 24.85a2.72 2.72 0 01-.87 4.22A20.32 20.32 0 0188.05 16c1-1.6 2.61-1.75 3.78-.44" id="path29513"/><path class="cls-3" d="M80.49 21.51l22.38 24.85a2.72 2.72 0 01-.87 4.22A20.32 20.32 0 0176.28 22a2.58 2.58 0 014.21-.44" id="path29515"/><path class="cls-3" d="M87.41 26.89h2.18a28.28 28.28 0 0128.34 28.34v18.31a28.28 28.28 0 01-28.34 28.34h-2.18a28.29 28.29 0 01-28.34-28.34V55.23a28.37 28.37 0 0128.34-28.34" id="path29517"/><path class="cls-3" d="M158.17 15.55c1.17-1.31 2.77-1.16 3.78.44a20.32 20.32 0 01-25.72 28.63 2.72 2.72 0 01-.87-4.22l22.81-24.85" id="path29519"/><path class="cls-3" d="M169.51 21.51a2.58 2.58 0 014.21.44A20.32 20.32 0 01148 50.58a2.72 2.72 0 01-.87-4.22l22.38-24.85" id="path29521"/><path class="cls-3" d="M162.59 26.89a28.37 28.37 0 0128.34 28.34v18.31a28.29 28.29 0 01-28.34 28.34h-2.18a28.28 28.28 0 01-28.34-28.34V55.23a28.28 28.28 0 0128.34-28.34h2.18" id="path29523"/><path class="cls-3" d="M139.62 35.75a20.07 20.07 0 01-29.24 0c-.15 18.17-.15 34.45 0 48.69l14.62-.09 14.62.09c.15-14.24.15-30.52 0-48.69z" id="path29525"/></g><g id="left_eye" data-name="left eye"><path id="eye_ball" data-name="eye ball" class="cls-4" d="M87.72 37.5a20.78 20.78 0 0120.78 20.78v12.5a20.79 20.79 0 01-41.57 0v-12.5A20.7 20.7 0 0187.72 37.5"/><path id="pupil" class="cls-5" d="M90.62 49.41a9.9 9.9 0 019.88 9.89v10.75a9.89 9.89 0 01-19.77 0V59.3a10 10 0 019.89-9.89"/><path id="glare" class="cls-4" d="M82.38 48.83a6.25 6.25 0 11-6.25 6.25 6.2 6.2 0 016.25-6.25"/></g><g id="right_eye" data-name="right eye"><path id="eye_ball-2" data-name="eye ball" class="cls-4" d="M162.28 37.5a20.78 20.78 0 0120.79 20.78v12.5a20.79 20.79 0 01-41.57 0v-12.5a20.69 20.69 0 0120.78-20.78"/><path id="pupil-2" data-name="pupil" class="cls-5" d="M159.38 49.41a9.9 9.9 0 019.89 9.89v10.75a9.89 9.89 0 01-19.77 0V59.3a10 10 0 019.88-9.89"/><path id="glare-2" data-name="glare" class="cls-4" d="M149.94 48.83a6.25 6.25 0 11-6.25 6.25 6.21 6.21 0 016.25-6.25"/></g><path id="eye_puffs" data-name="eye puffs" class="cls-3" d="M142.2 81.1c15.55-6.69 29.94-11.34 42.44-13.67 0 0 2.54 21.73-13.94 26.83-21.05 6.52-28.5-13.16-28.5-13.16zM79.37 94.26c-16.47-5.1-13.94-26.83-13.94-26.83 12.5 2.33 26.89 7 42.44 13.67 0 0-7.45 19.68-28.5 13.16z"/><g id="mouth"><g id="lower_beak" data-name="lower beak"><path id="outside" class="cls-1" d="M125 69a10.73 10.73 0 0110.75 10.76v17.9a10.75 10.75 0 11-21.5 0V79.79A10.92 10.92 0 01125 69"/><path id="inside" d="M125 73.25a8.28 8.28 0 018.28 8.28v11.92a8.27 8.27 0 01-8.28 8.28 8.37 8.37 0 01-8.28-8.28V81.53a8.27 8.27 0 018.28-8.28" fill="#b66e28"/></g><g id="upper_beak" data-name="upper beak"><path id="beak" d="M125 81.55l14.39-2.43a.54.54 0 00.44-.61 15.06 15.06 0 00-29.66 0 .54.54 0 00.44.61z" fill="#ffc200"/><path id="glare-3" data-name="glare" d="M128.3 72.88a2.08 2.08 0 01-.6-.09 9.72 9.72 0 00-5.4 0 2.18 2.18 0 01-1.21-4.18 14.05 14.05 0 017.82 0 2.18 2.18 0 01-.61 4.27z" fill="#ffde00"/></g></g></g></g></svg>