<svg xmlns="http://www.w3.org/2000/svg" xmlns:xlink="http://www.w3.org/1999/xlink" width="397" height="397"><defs><linearGradient x1="0" y1="0" x2="1" y2="0" gradientUnits="userSpaceOnUse" gradientTransform="matrix(284.983 0 0 -284.983 5.067 86.162)" spreadMethod="pad" id="b"><stop offset="0" stop-color="#a3a1a1"/><stop offset=".035" stop-color="#a3a1a1"/><stop offset=".253" stop-color="#fff"/><stop offset=".602" stop-color="#727070"/><stop offset=".677" stop-color="#727070"/><stop offset=".776" stop-color="#727070"/><stop offset="1" stop-color="#f2f2f2"/></linearGradient><linearGradient x1="0" y1="0" x2="1" y2="0" gradientUnits="userSpaceOnUse" gradientTransform="scale(1913.52 -1913.52) rotate(90 .89 -.11)" spreadMethod="pad" id="a"><stop offset="0" stop-color="#c3c2c3"/><stop offset=".037" stop-color="#c3c2c3"/><stop offset=".446" stop-color="#fff"/><stop offset=".968" stop-color="#9b9a9a"/><stop offset="1" stop-color="#9b9a9a"/></linearGradient><linearGradient xlink:href="#a" id="c" x1="0" y1="94.687" x2="297.65" y2="94.687" gradientUnits="userSpaceOnUse" gradientTransform="matrix(1 0 0 .99701 0 .544)"/><clipPath clipPathUnits="userSpaceOnUse" id="d"><path d="M2976.5 948.895c0-481.305-664.93-871.485-1485.1-871.485C671.207 77.41 6.312 467.59 6.312 948.895c0 481.275 664.895 871.455 1485.088 871.455 820.17 0 1485.1-390.18 1485.1-871.455z"/></clipPath></defs><path d="M297.65 86.162C297.65 38.57 231.021 0 148.821 0 66.637 0 0 38.57 0 86.162c0 47.58 66.637 86.161 148.821 86.161 82.2 0 148.829-38.581 148.829-86.161" fill="url(#b)" transform="matrix(1.33333 0 0 -1.33333 .067 319.875)"/><path d="M297.65 94.948c0-48.118-66.629-87.114-148.829-87.114C66.637 7.834 0 46.83 0 94.948c0 48.106 66.637 87.114 148.821 87.114 82.2 0 148.829-39.008 148.829-87.114" fill="url(#c)" transform="matrix(1.33333 0 0 -1.33333 .067 319.875)"/><g transform="matrix(.13333 0 0 -.13333 .067 319.875)" clip-path="url(#d)"><path d="M2976.5 948.895c0-481.305-664.93-871.485-1485.1-871.485C671.207 77.41 6.312 467.59 6.312 948.895c0 481.275 664.895 871.455 1485.088 871.455 820.17 0 1485.1-390.18 1485.1-871.455z" fill="none"/><path d="M1960.32 104.891c-41.25-6.672-79.29-14.493-117.59-18.559-85.12-8.992-170.49-16.402-255.72-23.922-19.15-1.719-38.3-1.691-57.52-1.691-4.11 0-9.18 2.273-12.15 5.062-183.66 172.36-358.18 352.571-500.93 558.731-45.203 65.187-83.906 133.718-113.812 207.019-48.868 120.012-30.379 230.959 43.664 335.919 57.188 81.19 131.198 146.17 211.648 205.05 121.99 89.19 255.13 160.55 392.45 224.89 153.21 71.73 310.93 133.4 472.51 185.9 9.43 3.05 21.05 3.75 30.81 1.66 34.78-7.56 69.16-16.84 103.76-28.03-25.43-9.21-51-18.2-76.31-27.55-182.49-67.73-358.63-147.71-522.18-251.43-87.91-55.62-170.31-117.92-239.14-195.1-52.02-58.19-93.48-121.96-110.83-198.12-14.31-62.7-8.66-123.419 17.68-182.708 35.7-80.164 85.63-151.813 140.41-220.532 102.5-128.589 218.55-245.371 340.94-356.308 79.98-72.5 162.78-142.211 244.34-213.121 1.91-1.653 3.59-3.27 7.97-7.16" fill="#ea1e29" fill-rule="evenodd"/><path d="M1376.49 60.98c-32.06 1.461-60.53 1.758-88.78 4.18-58.11 4.84-116.48 8.512-174.16 16.77-76.05 10.851-151.659 25.601-227.382 38.922-3.27.589-6.832 3.23-9.141 5.796C743.52 282.172 620.098 444.219 530.105 627.59c-34.23 69.781-60.535 142.09-72.828 218.918-13.644 84.926 5.801 162.592 50.266 235.602 47.328 77.85 112.082 141.14 183.328 198.52 108.414 87.21 228.094 157.98 352.539 221.75 246.72 126.46 505.96 224.23 770.74 309.83 38.12 12.33 72.53 4.83 108.67-1.14 16.29-2.76 32.47-6.02 52.21-9.72-28.55-9.99-54.01-18.72-79.21-27.92-210.38-76.25-415.06-164-609.21-273.4-112.08-63.1-219.17-133.03-313.645-219.43-49.598-45.39-94.067-94.8-129.215-151.78-59.289-96.16-69.816-196.101-29.867-301.691 36.879-97.328 89.746-186.297 148.847-272.219 100.49-145.871 215.65-280.738 336.36-411.461 24.54-26.64 49.63-52.898 77.4-82.469" fill="#2a4299" fill-rule="evenodd"/><path d="M2451.27 259.02c-37.2-15.34-71.76-30.27-106.76-43.918-82.14-31.922-166.42-57.704-252.01-79.352-7.7-1.949-13.39-.988-19.78 3.781-177.46 132.949-348.24 272.989-503.46 429.938-83.55 84.64-161.98 173.133-221.93 275.308-23.59 40.028-43.07 81.782-52.13 127.418-14.87 74.625.44 144.695 36.5 211.255 37.6 69.26 90.73 126.72 150.68 178.44 106.84 92.02 227.87 163.52 354.29 227.32 113.99 57.6 231.95 106.59 352.28 150.5 10.2 3.71 19.23 4.18 29.46.62 32.66-11.48 65.53-22.3 100.53-34.01-37.31-14.16-72.31-26.78-106.76-40.72-137.99-55.81-269.99-121.95-388.12-211.17-71.55-54.09-135.17-115.36-180.22-192.44-35.99-61.48-52.75-127.26-48.39-197.89 3.27-53.13 25.24-99.643 53.94-143.854 47.02-72.898 105.84-136.598 169.09-196.605 124.59-118.11 261.91-221.192 404.96-317.391 71.94-48.359 145.83-93.961 218.77-140.879 2.12-1.289 4.18-2.832 9.06-6.351" fill="#2c9c43" fill-rule="evenodd"/></g></svg>