<svg xmlns="http://www.w3.org/2000/svg" width="270.908" height="270.908" viewBox="0 0 71.678 71.678"><path d="M45.097 31.202l2.094-.443-5.72-6.026-.067-.071a42.006 42.006 0 0120.438-13.35 67.591 67.591 0 00-11.31-4.986A67.959 67.959 0 0037.95 21.021l-1.772-1.867-1.77 1.867A42.093 42.093 0 0120.187 0a67.641 67.641 0 00-4.985 11.309 67.998 67.998 0 0015.752 13.353l-5.785 6.097 2.095.443a42.164 42.164 0 01-17.429 10.18 67.53 67.53 0 0011.31 4.984 67.452 67.452 0 004.677-4.268L21.91 70.352l6.488 1.326h15.56l6.488-1.326-3.91-28.248a42.315 42.315 0 014.677 10.586A67.545 67.545 0 0056.2 41.382a67.796 67.796 0 00-11.102-10.18" fill="#295e9d"/></svg>