<svg xmlns="http://www.w3.org/2000/svg" version="1.1" id="svg151507" width="85.317" height="85.317"><style id="style151494"></style><linearGradient id="SVGID_1_" gradientUnits="userSpaceOnUse" x1="2.482" y1="77.792" x2="73.968" y2="6.306" gradientTransform="translate(5.045)"><stop offset="0" stop-color="#f3904a" id="stop151500"/><stop offset=".999" stop-color="#aa437f" id="stop151502"/></linearGradient><path d="M77.77 19.497L45.164.67a5.007 5.007 0 00-5.006 0L7.547 19.497a5.006 5.006 0 00-2.502 4.336v37.652c0 1.789.954 3.442 2.503 4.336l32.608 18.826a5.007 5.007 0 005.006 0L77.77 65.82a5.006 5.006 0 002.503-4.336V23.833a5.003 5.003 0 00-2.502-4.336zM21.284 33.246V55l-11.231 6.484V23.833L42.66 5.007v13.007L23.787 28.91a5.007 5.007 0 00-2.504 4.336zm18.873 5.077a5.006 5.006 0 00-2.503 4.336v21.679l-11.363 6.56V33.246L58.898 14.42v13.083zm35.11 23.162L42.66 80.31V42.659l32.608-18.826z" fill="url(#SVGID_1_)" id="path151505"/></svg>