<svg xmlns="http://www.w3.org/2000/svg" width="864.692" height="864.692"><path d="M757.781 214h-134c20.454-35.044 41.405-73.543 57-111l-78 44.719-59 34.281 7.576-54L569.781 0c-8.125 2.39-15.52 7.821-23 11.745-18.022 9.452-35.553 19.987-53 30.455-60.004 36.001-117.922 75.973-171 121.67C249.634 226.843 182.714 301.514 142.09 390c-21.79 47.462-41.696 105.974-34.733 159 3.472 26.443 4.521 51.923 11.575 78 18.545 68.554 61.117 130.552 117.849 173.105 109.322 81.999 263.257 86.369 377 10.54 35.652-23.768 66.484-55.097 90.329-90.645 24.838-37.028 40.874-79.312 49.06-123 8.722-46.552 4.611-95.817 4.611-143V214m-162 163v113c0 24.617 1.301 49.586-2.13 74-3.191 22.7-11.62 44.672-23.924 64-11.4 17.909-26.598 33.254-43.946 45.411-16.516 11.573-35.377 20.047-55 24.705-97.865 23.226-194.073-49.263-200.91-149.116-1.399-20.422 1.787-41.632 8.243-61 8.087-24.259 21.578-45.933 39.667-64 21.482-21.456 48.516-36.118 78-43.116 25.083-5.953 51.413-3.884 77-3.884h123m-168 85.424c-15.414 2.048-29.387 5.922-42 15.476-8.117 6.148-15.419 14.087-20.218 23.1-30.212 56.738 15.05 123.287 79.218 114.841 10.161-1.337 20.33-5.282 29-10.655 55.182-34.198 43.563-123.061-20-140.031-8.174-2.182-17.565-3.851-26-2.731" fill="#009ddc"/></svg>