<svg xmlns="http://www.w3.org/2000/svg" viewBox="0 0 60 55"><defs><linearGradient id="a" x1="0" x2="60" y1="5" y2="50" gradientUnits="userSpaceOnUse"><stop offset="0" stop-color="#FB7C7E"/><stop offset="1" stop-color="#D75855"/></linearGradient></defs><path fill="url(#a)" d="M32.96 44a2.73 2.73 0 0 1-2.73 2.73A2.73 2.73 0 0 1 27.5 44a2.73 2.73 0 0 1 2.73-2.73A2.73 2.73 0 0 1 32.96 44zm16.1-44c-3.73.07-7.2 2.09-9.1 5.38l-9.98 17.35L20 5.38A10.72 10.72 0 0 0 5.37 1.5 10.79 10.79 0 0 0 1.4 16.15l19.26 33.47A10.67 10.67 0 0 0 29.98 55a10.8 10.8 0 0 0 9.31-5.39l19.27-33.46A10.75 10.75 0 0 0 49.06 0Zm.4 4.6a6.18 6.18 0 0 1 5.12 9.25L35.33 47.32a6.22 6.22 0 0 1-5.18 3.08 6.18 6.18 0 0 1-5.47-9.25L43.94 7.68a6.1 6.1 0 0 1 3.73-2.87c.6-.16 1.2-.23 1.8-.21zm-38.92 0a6.14 6.14 0 0 1 5.5 3.08l11.3 19.64-6.64 11.53c-.16.28-.3.56-.44.85L5.38 13.85a6.19 6.19 0 0 1 5.16-9.25Z"/></svg>
