<svg xmlns="http://www.w3.org/2000/svg" width="151" height="46.492" viewBox="0 0 39.952 12.301"><path d="M-141.495 211.666c.026.804-.159 4.687-1.673 6.585-1.514-1.898-1.698-5.781-1.672-6.585h-1.87c-.027 1.29.237 5.899 2.923 8.124a.324.324 0 0 0 .223.093h.791a.319.319 0 0 0 .224-.093c2.686-2.225 2.949-6.834 2.924-8.124zm30.14 1.806h-3.535v-1.825l-1.962.552v1.273h-.843v1.202h.843v3.438c0 1.092.606 1.91 2.04 1.91.634 0 1.213-.146 1.528-.37l-.395-1.119c-.158.106-.407.158-.593.158-.328 0-.618-.118-.618-.71v-3.307h1.719c.298 2.16 1.272 3.866 2.578 4.802-.407.844-1.237 1.568-2.106 1.884l.552 1.395c3.213-1.329 4.86-5.648 5.123-9.283h-1.91c-.065 2.028-.408 3.49-.948 4.662-.882-.897-1.409-2.647-1.474-4.662m-8.172-2.753c-.593 0-1.107.38-1.107.974 0 .593.514.975 1.107.975.594 0 1.107-.382 1.107-.975s-.513-.974-1.107-.974m-.976 9.183h1.951v-6.43h-1.95zm0 0h1.951v-6.43h-1.95zm-15.125-1.303a.195.195 0 0 1-.118.184c-.12.053-.316.079-.594.079-.765 0-1.12-.356-1.12-.91 0-.725.567-1.16 1.832-1.198zm-.79-5.246a6.846 6.846 0 0 0-2.557.488l.395 1.067c.487-.21 1.12-.395 1.765-.395.713 0 1.187.197 1.187.884v.276c-2.28.132-3.796.684-3.796 2.32 0 1.356 1.042 2.028 3.07 2.028.91 0 2.108-.185 2.518-.435.079-.052.157-.104.157-.29v-3.716c0-1.305-.737-2.227-2.74-2.227m14.017 5.35c-.936 0-1.648-.723-1.648-1.974 0-1.25.672-2.055 1.555-2.055.25 0 .46.04.737.146l.421-1.16c-.408-.209-.855-.302-1.448-.302-1.922 0-3.226 1.304-3.226 3.424s1.382 3.24 3.265 3.24c.645 0 1.094-.093 1.502-.303l-.422-1.159a1.942 1.942 0 0 1-.736.144m-7.379-5.346c-1.014 0-2.041.171-2.62.421-.145.067-.212.119-.212.277v5.846h1.95v-5.188c0-.04.014-.052.079-.079.119-.039.42-.118.764-.118.803 0 1.001.448 1.001.922v4.463h1.949v-4.28c0-.42-.027-.67-.093-.868-.263-.83-1.08-1.396-2.818-1.396" style="fill:#ef2e31;stroke-width:.26458332" transform="translate(146.844 -210.586)"/></svg>