<svg xmlns="http://www.w3.org/2000/svg" width="396" height="396"><path d="M254.861 396c-22.51-8.66-44.569-16.17-65.776-25.587-19.909-8.842-33.729-24.896-44.407-43.653-14.773-25.956-22.237-54.751-32.27-82.546A227598.02 227598.02 0 0153.127 79.776C48.5 66.93 44.677 53.743 39.224 41.26c-6.093-13.949-14.027-26.943-28.15-34.65C10.057 6.055 9.026 5.524 8 4.982l.852-1.82c1.623-.21 3.248-.602 4.873-.603 40.87-.035 81.74.03 122.609-.114 4.375-.015 6.333 1.24 7.8 5.6 16.85 50.059 33.998 100.018 51.025 150.017 13.651 40.089 27.241 80.197 40.886 120.288.123.36.615.597 1.607 1.51 2.28-7.103 4.505-13.83 6.6-20.596 15.28-49.33 30.587-98.653 45.775-148.013 6.088-19.782 12.78-39.438 17.581-59.537 4.411-18.466.335-33.808-18.988-43.813-2.455-1.271-4.102-4.094-6.122-6.198L283.975 0H388L254.861 396" style="mix-blend-mode:multiply" fill="#96141d" fill-rule="evenodd"/></svg>