<svg xmlns="http://www.w3.org/2000/svg" width="97.406" height="97.406"><path d="M66.22 92.283a290.484 290.484 0 01-1.748-3.95c-1.492-3.463-2.876-6.973-4.089-10.545-5.954-17.54-8.365-39.367 6.557-53.242a37.628 37.628 0 0116.914-8.78c1.521-.37 6.336-.914 7.03-1.16 1.678-.6.964-4.956.685-6.2-1.45-6.476-9.885-8.88-15.658-8.33-5.986.57-11.164 4.164-15.138 8.487a47.9 47.9 0 00-8.6 13.562c-8.145 19.013-4.24 50.08 1.041 58.816-1.489-2.38-4.769-4.53-6.815-6.473-1.976-1.877-3.983-3.723-5.912-5.65a57.7 57.7 0 01-10.51-13.53c-3.83-7.212-6.62-15.413-6.673-23.621-.029-4.75.575-10.126 3.241-14.2-4.969-.946-9.68 1.9-13.308 4.998-4.214 3.6-8.278 8.745-7.744 14.56.591 6.424 4.5 12.558 7.563 18.083 5.932 10.71 14.266 19.77 23.636 27.6a111.4 111.4 0 0016.287 11.246c3.855 2.2 8.913 4.79 13.336 2.654.4-.2 1.158-.48 1.277-.95.125-.5-.274-1.135-.468-1.563-.278-.618-.626-1.198-.904-1.812z" fill="#0b95dc"/></svg>