<svg xmlns="http://www.w3.org/2000/svg" viewBox="0 0 33.65 24"><g clip-rule="evenodd" fill-rule="evenodd"><path d="M1.17 1h10.55L6.443 12zm21.099 0h10.55l-5.276 11z" fill="#e9f9fd" fill-opacity=".1"/><g fill="#25c4f2"><path d="M6.445 12h10.549l-5.275 11z" fill-opacity=".22"/><path d="M16.994 12h10.55l-5.275 11z" fill-opacity=".2"/><path d="M16.994 12H6.444l5.275-11z" fill-opacity=".4"/><path d="M27.543 12h-10.55l5.276-11z" fill-opacity=".4"/><path d="M22.269 23h-10.55l5.275-11z" fill-opacity=".5"/><path d="M.154.467A1 1 0 0 1 1 0h10.55a1 1 0 0 1 .902.568l4.373 9.12 4.373-9.12A1 1 0 0 1 22.1 0h10.55a1 1 0 0 1 .902 1.432L23.005 23.424A1.001 1.001 0 0 1 22.1 24H11.55a1 1 0 0 1-.902-.568l-10.55-22A1 1 0 0 1 .154.467zm21.95 2.846L25.79 11h-7.372zM2.594 2 6.28 9.687 9.965 2H2.593zm8.96 1.313L15.24 11H7.868zM23.692 2l3.686 7.687L31.065 2zm-1.588 18.687L18.418 13h7.372zM20.514 22l-3.685-7.687L13.143 22zm-8.96-1.313L7.868 13h7.372z"/></g></g></svg>