<svg xmlns="http://www.w3.org/2000/svg" fill="none" class="w-16" viewBox="0 0 62 44"><path fill="#25C4F2" fill-rule="evenodd" d="M.64.87A1.82 1.82 0 0 1 2.18.02H21.4a1.82 1.82 0 0 1 1.64 1.04L31 17.66l7.96-16.62A1.82 1.82 0 0 1 40.6 0h19.21a1.82 1.82 0 0 1 1.64 2.6l-19.2 40.08a1.82 1.82 0 0 1-1.64 1.04H21.4a1.82 1.82 0 0 1-1.64-1.04L.55 2.62A1.82 1.82 0 0 1 .64.87ZM40.6 6.03l6.74 14.02H33.87l6.7-14.02h.04ZM5.1 3.66l6.7 14.02 6.74-14.02H5.06h.04Zm16.3 2.37 6.73 14.02H14.68l6.7-14.02h.02Zm22.12-2.37 6.7 14.02 6.74-14.02H43.48h.04Zm-2.91 34.05L33.9 23.7h13.42l-6.74 14.02h.02Zm-2.88 2.37L31 26.06l-6.7 14.02h13.44Zm-16.32-2.37L14.68 23.7h13.44l-6.74 14.02h.03Z" clip-rule="evenodd"/></svg>