<svg xmlns="http://www.w3.org/2000/svg" viewBox="0 0 40 40"><g clip-rule="evenodd" fill-rule="evenodd"><path d="M4.345 9h10.55L9.618 20 4.345 9zm21.099 0h10.55l-5.276 11-5.274-11z" fill="#E9F9FD" fill-opacity=".1"/><g fill="#25C4F2"><path d="M9.62 20h10.549l-5.275 11L9.62 20z" fill-opacity=".22"/><path d="M20.169 20h10.55l-5.275 11-5.275-11z" fill-opacity=".2"/><path d="M20.169 20H9.619l5.275-11 5.275 11z" fill-opacity=".4"/><path d="M30.718 20h-10.55l5.276-11 5.274 11z" fill-opacity=".4"/><path d="M25.444 31h-10.55l5.275-11 5.275 11z" fill-opacity=".5"/></g><path d="M3.329 8.467A1 1 0 0 1 4.175 8h10.55a1 1 0 0 1 .902.568L20 17.688l4.373-9.12A1 1 0 0 1 25.275 8h10.55a1 1 0 0 1 .902 1.432L26.18 31.424a1.001 1.001 0 0 1-.905.576h-10.55a1 1 0 0 1-.902-.568l-10.55-22a1 1 0 0 1 .056-.965zm21.95 2.846L28.965 19h-7.372zM5.769 10l3.686 7.687L13.14 10H5.768zm8.96 1.313L18.415 19h-7.372zM26.867 10l3.686 7.687L34.24 10zm-1.588 18.687L21.593 21h7.372zM23.689 30l-3.685-7.687L16.318 30zm-8.96-1.313L11.043 21h7.372l-3.686 7.687z" fill="#25c4f2"/></g></svg>