<svg xmlns="http://www.w3.org/2000/svg" viewBox="0 0 100.8 73.7"><path fill="#0079b4" d="M100.8 20.8a59.6 59.6 0 0 0-35.1 15.6 90.4 90.4 0 0 0-8.8-7.6 67.1 67.1 0 0 0 5.9-23.5S77.5 8.2 84.4 22l4.6-1a36.7 36.7 0 0 0-61.8-7.4C11.2 9.4 0 11.9 0 11.9c49 10 65.5 51 65.5 51a97 97 0 0 1 21.6-33c.5 2.1.7 4.3.8 6.6 0 0 .6 11.7-7.6 20.8a31.7 31.7 0 0 1-24.6 11.4 32 32 0 0 1-25.5-12.5s9-3.7 17.6-13.4l-3.6-3.3a54 54 0 0 1-16.5 12.7 32 32 0 0 1-2-26.8l-4-2.5A36.8 36.8 0 1 0 91 26.6c5.8-4.6 9.8-5.8 9.8-5.8zM31.9 15A32 32 0 0 1 58 4.5c-.3 7.3-2 14.5-5.1 21.3a83.7 83.7 0 0 0-21-10.7Z"/></svg>
