<svg id="svg" version="1.1" xmlns="http://www.w3.org/2000/svg" xmlns:xlink="http://www.w3.org/1999/xlink" width="400" height="400" viewBox="0, 0, 400,400"><g id="svgg"><path id="path0" d="M278.400 139.440 C 274.550 139.730,270.749 140.154,269.954 140.383 C 269.158 140.613,267.970 140.800,267.313 140.800 C 266.657 140.800,265.598 140.963,264.960 141.162 C 264.322 141.361,262.450 141.821,260.800 142.185 C 259.150 142.549,257.350 142.999,256.800 143.186 C 256.250 143.373,254.810 143.820,253.600 144.178 C 252.390 144.537,251.040 144.984,250.600 145.171 C 250.160 145.359,248.360 146.112,246.600 146.846 C 238.926 150.045,231.734 154.494,225.793 159.718 C 198.408 183.799,197.268 228.357,223.400 253.239 C 226.504 256.194,232.787 261.200,233.393 261.200 C 233.528 261.200,234.620 261.828,235.819 262.595 C 238.485 264.300,242.897 266.542,245.707 267.620 C 246.858 268.061,248.160 268.583,248.600 268.780 C 250.795 269.762,257.554 271.806,260.600 272.409 C 266.776 273.631,268.311 273.864,276.227 274.780 C 280.766 275.306,295.789 275.329,299.684 274.816 C 301.288 274.605,304.130 274.241,306.000 274.006 C 309.281 273.594,310.187 273.440,315.400 272.409 C 318.859 271.725,324.514 269.926,330.200 267.701 C 332.461 266.816,341.943 262.199,343.500 261.225 L 344.800 260.412 344.800 242.606 C 344.800 232.023,344.651 224.800,344.432 224.800 C 344.229 224.800,342.654 225.670,340.932 226.732 C 334.935 230.433,329.804 232.512,320.600 234.973 C 309.318 237.989,289.983 237.773,279.200 234.510 C 276.164 233.592,274.484 232.935,270.142 230.971 C 266.610 229.374,262.485 226.017,259.477 222.293 C 257.852 220.281,257.074 218.889,255.624 215.400 C 249.546 200.780,259.933 184.562,278.713 179.348 C 290.457 176.088,309.505 175.836,320.500 178.796 C 321.325 179.018,322.765 179.404,323.700 179.654 C 330.057 181.351,337.983 184.622,342.032 187.221 C 343.043 187.869,343.989 188.400,344.135 188.400 C 344.281 188.400,344.400 180.026,344.400 169.790 L 344.400 151.180 343.500 150.835 C 343.005 150.645,341.380 149.929,339.890 149.245 C 338.399 148.560,337.077 148.000,336.950 148.000 C 336.824 148.000,336.154 147.737,335.460 147.417 C 334.035 146.757,327.018 144.422,323.400 143.403 C 322.080 143.032,320.587 142.564,320.081 142.364 C 319.576 142.164,318.777 142.000,318.307 142.000 C 317.836 142.000,316.360 141.748,315.026 141.440 C 305.431 139.226,291.414 138.461,278.400 139.440 M48.309 143.424 C 48.061 143.673,49.178 146.688,51.359 151.660 C 51.712 152.464,52.000 153.223,52.000 153.349 C 52.000 153.474,52.450 154.560,53.000 155.763 C 53.550 156.965,54.000 158.045,54.000 158.163 C 54.000 158.280,54.428 159.327,54.951 160.488 C 55.475 161.650,56.142 163.320,56.435 164.200 C 56.727 165.080,57.089 165.980,57.239 166.200 C 57.388 166.420,58.272 168.490,59.202 170.800 C 60.132 173.110,61.322 175.950,61.847 177.111 C 62.371 178.272,62.800 179.399,62.800 179.616 C 62.800 179.833,62.971 180.323,63.181 180.705 C 63.390 181.087,63.861 182.120,64.228 183.000 C 64.595 183.880,65.144 185.167,65.447 185.860 C 65.751 186.554,66.000 187.223,66.000 187.349 C 66.000 187.474,66.450 188.560,67.000 189.763 C 67.550 190.965,68.000 192.045,68.000 192.163 C 68.000 192.280,68.422 193.327,68.938 194.488 C 69.453 195.650,70.105 197.230,70.385 198.000 C 70.665 198.770,71.213 200.120,71.602 201.000 C 71.991 201.880,72.892 204.040,73.605 205.800 C 75.206 209.752,75.850 211.320,77.386 215.000 C 78.066 216.629,78.273 217.126,79.299 219.600 C 79.619 220.370,80.116 221.630,80.404 222.400 C 80.692 223.170,81.079 223.971,81.264 224.180 C 81.449 224.389,81.600 224.781,81.600 225.052 C 81.600 225.323,82.113 226.682,82.740 228.072 C 83.366 229.462,84.108 231.230,84.387 232.000 C 84.666 232.770,85.213 234.120,85.602 235.000 C 85.991 235.880,86.892 238.040,87.605 239.800 C 88.318 241.560,89.148 243.567,89.451 244.260 C 89.753 244.954,90.000 245.623,90.000 245.749 C 90.000 245.874,90.460 247.017,91.023 248.288 C 92.488 251.600,92.431 251.463,95.809 259.800 C 97.502 263.980,99.261 268.256,99.717 269.303 L 100.545 271.206 126.362 271.103 L 152.179 271.000 154.251 266.000 C 155.390 263.250,156.629 260.280,157.004 259.400 C 157.379 258.520,158.305 256.270,159.063 254.400 C 159.820 252.530,160.592 250.640,160.779 250.200 C 161.111 249.418,162.125 246.993,162.786 245.400 C 162.969 244.960,163.407 243.943,163.759 243.140 C 164.112 242.336,164.400 241.569,164.400 241.435 C 164.400 241.301,164.747 240.428,165.170 239.496 C 165.594 238.563,168.306 232.040,171.197 225.000 C 174.088 217.960,176.801 211.437,177.227 210.504 C 177.652 209.572,178.000 208.705,178.000 208.579 C 178.000 208.452,178.450 207.365,179.000 206.163 C 179.550 204.960,180.000 203.874,180.000 203.749 C 180.000 203.623,180.270 202.909,180.600 202.160 C 180.930 201.412,181.470 200.188,181.800 199.440 C 182.130 198.691,182.400 197.977,182.400 197.851 C 182.400 197.726,182.850 196.640,183.400 195.437 C 183.950 194.235,184.400 193.148,184.400 193.021 C 184.400 192.895,184.747 192.028,185.172 191.096 C 185.596 190.163,187.855 184.720,190.191 179.000 C 192.526 173.280,194.585 168.240,194.765 167.800 C 195.227 166.673,195.798 165.354,196.977 162.688 C 197.540 161.417,198.000 160.274,198.000 160.149 C 198.000 160.023,198.270 159.309,198.600 158.560 C 199.135 157.347,199.751 155.893,200.786 153.400 C 200.969 152.960,201.407 151.943,201.759 151.140 C 202.112 150.336,202.400 149.569,202.400 149.435 C 202.400 149.301,202.735 148.428,203.143 147.496 C 204.522 144.350,204.747 143.681,204.507 143.440 C 204.191 143.125,157.055 143.127,156.233 143.443 C 155.885 143.576,155.600 143.882,155.600 144.123 C 155.600 144.363,154.982 146.189,154.226 148.180 C 153.471 150.171,152.119 153.870,151.221 156.400 C 150.323 158.930,149.412 161.313,149.195 161.695 C 148.978 162.077,148.800 162.716,148.800 163.115 C 148.800 163.514,148.642 164.011,148.449 164.220 C 148.256 164.429,147.729 165.680,147.277 167.000 C 145.694 171.623,143.599 177.407,143.222 178.200 C 143.012 178.640,142.557 179.900,142.211 181.000 C 141.865 182.100,141.420 183.360,141.223 183.800 C 141.026 184.240,140.384 185.950,139.797 187.600 C 139.210 189.250,138.115 192.229,137.365 194.220 C 136.614 196.211,136.000 197.984,136.000 198.159 C 136.000 198.335,135.747 199.046,135.439 199.740 C 135.130 200.433,134.394 202.350,133.803 204.000 C 133.213 205.650,132.138 208.620,131.416 210.600 C 130.694 212.580,129.524 215.820,128.815 217.800 C 128.106 219.780,127.362 221.713,127.163 222.095 C 126.963 222.477,126.794 223.017,126.787 223.295 C 126.780 223.573,126.521 224.135,126.211 224.544 C 125.548 225.419,125.412 225.157,123.235 218.800 C 122.520 216.710,121.783 214.640,121.599 214.200 C 120.925 212.590,117.330 202.402,115.954 198.200 C 115.521 196.880,115.016 195.440,114.831 195.000 C 114.447 194.086,112.822 189.559,111.817 186.600 C 111.444 185.500,110.985 184.240,110.798 183.800 C 110.610 183.360,110.096 181.920,109.655 180.600 C 109.213 179.280,108.109 176.130,107.200 173.600 C 106.291 171.070,105.184 167.920,104.739 166.600 C 103.774 163.738,102.039 158.920,101.571 157.800 C 101.387 157.360,100.765 155.560,100.190 153.800 C 99.615 152.040,99.041 150.330,98.915 150.000 C 98.788 149.670,98.201 148.050,97.611 146.400 L 96.537 143.400 72.538 143.297 C 59.339 143.240,48.436 143.298,48.309 143.424 " stroke="none" fill="#fbfbfc" fill-rule="evenodd"></path><path id="path1" d="M0.000 200.000 L 0.000 400.000 200.000 400.000 L 400.000 400.000 400.000 200.000 L 400.000 0.000 200.000 0.000 L 0.000 0.000 0.000 200.000 M304.000 139.144 C 308.796 139.655,313.558 140.345,315.200 140.766 C 315.970 140.964,317.950 141.432,319.600 141.806 C 321.250 142.181,323.140 142.649,323.800 142.846 C 326.921 143.779,333.948 146.142,335.200 146.680 C 335.970 147.011,336.960 147.430,337.400 147.612 C 337.840 147.793,339.640 148.576,341.400 149.352 L 344.600 150.762 344.704 169.981 C 344.761 180.552,344.671 189.197,344.504 189.193 C 344.337 189.190,342.903 188.407,341.318 187.453 C 339.733 186.500,336.853 185.044,334.918 184.218 C 332.983 183.391,331.124 182.577,330.787 182.409 C 330.450 182.240,329.550 181.968,328.787 181.805 C 328.024 181.641,327.220 181.373,327.000 181.207 C 326.780 181.042,326.150 180.804,325.600 180.677 C 325.050 180.550,323.430 180.152,322.000 179.792 C 319.286 179.108,316.905 178.664,312.200 177.964 C 308.222 177.372,291.235 177.393,287.800 177.994 C 286.260 178.263,284.280 178.573,283.400 178.683 C 282.520 178.792,281.629 179.044,281.420 179.241 C 281.211 179.438,280.722 179.600,280.334 179.600 C 274.578 179.600,262.663 187.278,258.548 193.638 C 248.815 208.684,257.583 227.137,277.405 233.325 C 285.960 235.996,287.576 236.200,300.200 236.200 C 312.561 236.200,314.272 236.017,322.800 233.782 C 329.644 231.989,336.709 228.894,342.094 225.329 C 343.576 224.348,344.971 223.659,345.194 223.797 C 346.059 224.331,345.716 260.171,344.839 260.965 C 343.779 261.924,333.073 267.298,330.400 268.212 C 329.190 268.626,328.020 269.087,327.800 269.237 C 327.273 269.594,317.343 272.666,315.800 272.949 C 315.140 273.069,313.070 273.453,311.200 273.800 C 295.470 276.721,277.259 276.370,259.800 272.809 C 257.851 272.411,252.500 270.907,251.400 270.447 C 250.960 270.263,249.070 269.520,247.200 268.797 C 230.916 262.500,217.638 251.007,210.843 237.329 C 206.922 229.435,205.422 224.277,204.350 215.000 C 203.882 210.949,204.131 199.545,204.748 196.800 C 204.971 195.810,205.449 193.650,205.811 192.000 C 206.173 190.350,206.609 188.640,206.779 188.200 C 206.950 187.760,207.315 186.680,207.591 185.800 C 211.249 174.126,220.822 161.775,232.200 154.047 C 233.960 152.852,236.030 151.519,236.800 151.084 C 244.814 146.563,251.368 143.916,259.400 141.956 C 261.160 141.527,263.230 141.002,264.000 140.791 C 265.837 140.286,270.346 139.669,275.800 139.174 C 278.220 138.955,280.380 138.696,280.600 138.599 C 281.258 138.308,300.329 138.753,304.000 139.144 M96.720 142.903 C 97.131 143.399,98.256 146.238,98.660 147.800 C 98.774 148.240,99.013 148.960,99.191 149.400 C 99.369 149.840,99.818 151.100,100.189 152.200 C 100.559 153.300,101.009 154.560,101.189 155.000 C 101.368 155.440,101.821 156.700,102.195 157.800 C 103.294 161.033,104.837 165.337,105.208 166.200 C 105.397 166.640,106.096 168.620,106.762 170.600 C 107.428 172.580,108.543 175.730,109.239 177.600 C 109.936 179.470,110.593 181.497,110.699 182.105 C 110.805 182.713,111.051 183.308,111.246 183.429 C 111.441 183.549,111.600 183.924,111.600 184.263 C 111.600 184.602,111.858 185.446,112.174 186.140 C 112.489 186.833,113.227 188.840,113.814 190.600 C 114.400 192.360,115.038 194.160,115.231 194.600 C 115.424 195.040,115.865 196.300,116.211 197.400 C 116.557 198.500,116.997 199.760,117.189 200.200 C 117.381 200.640,117.841 201.900,118.211 203.000 C 118.582 204.100,119.027 205.360,119.200 205.800 C 119.373 206.240,119.818 207.500,120.189 208.600 C 120.559 209.700,121.015 210.960,121.202 211.400 C 121.390 211.840,121.905 213.280,122.349 214.600 C 125.652 224.439,125.701 224.528,126.557 222.132 C 126.937 221.069,127.417 219.887,127.624 219.505 C 127.831 219.123,128.000 218.611,128.000 218.366 C 128.000 218.121,128.254 217.354,128.566 216.660 C 128.877 215.967,129.348 214.680,129.613 213.800 C 129.878 212.920,130.326 211.660,130.609 211.000 C 130.891 210.340,131.606 208.450,132.197 206.800 C 132.787 205.150,133.885 202.171,134.635 200.180 C 135.386 198.189,136.000 196.416,136.000 196.241 C 136.000 196.065,136.253 195.354,136.562 194.660 C 136.872 193.967,137.431 192.500,137.805 191.400 C 138.179 190.300,138.631 189.040,138.810 188.600 C 138.989 188.160,139.614 186.450,140.198 184.800 C 140.782 183.150,141.504 181.170,141.802 180.400 C 142.480 178.648,144.785 172.362,146.202 168.400 C 146.792 166.750,148.141 163.060,149.200 160.200 C 150.874 155.677,151.880 152.901,153.693 147.800 C 154.240 146.262,155.178 143.971,155.577 143.200 C 155.946 142.487,204.628 142.068,205.332 142.772 C 205.571 143.011,205.401 143.811,204.874 144.931 C 204.414 145.911,203.919 147.183,203.774 147.760 C 203.630 148.336,203.351 148.906,203.156 149.027 C 202.960 149.148,202.800 149.502,202.800 149.813 C 202.800 150.124,202.331 151.418,201.759 152.689 C 201.186 153.960,200.568 155.360,200.386 155.800 C 199.925 156.912,198.786 159.639,198.382 160.600 C 198.196 161.040,197.026 163.920,195.781 167.000 C 194.537 170.080,193.170 173.378,192.744 174.329 C 192.318 175.279,191.427 177.439,190.765 179.129 C 190.103 180.818,189.316 182.740,189.015 183.400 C 188.714 184.060,187.814 186.220,187.014 188.200 C 186.215 190.180,185.408 192.160,185.221 192.600 C 185.034 193.040,184.584 194.120,184.221 195.000 C 183.858 195.880,183.390 196.913,183.181 197.295 C 182.971 197.677,182.800 198.167,182.800 198.384 C 182.800 198.601,182.367 199.728,181.838 200.889 C 181.309 202.050,178.325 209.210,175.208 216.800 C 172.090 224.390,169.193 231.363,168.770 232.296 C 168.346 233.228,168.000 234.101,168.000 234.235 C 168.000 234.369,167.730 235.091,167.400 235.840 C 167.070 236.588,166.521 237.875,166.181 238.700 C 165.840 239.525,165.390 240.513,165.181 240.895 C 164.971 241.277,164.800 241.772,164.800 241.997 C 164.800 242.221,164.350 243.337,163.800 244.477 C 163.250 245.617,162.800 246.691,162.800 246.864 C 162.800 247.037,162.331 248.218,161.759 249.489 C 160.318 252.686,160.305 252.717,157.796 259.000 C 156.566 262.080,155.397 264.960,155.199 265.400 C 155.000 265.840,154.300 267.415,153.644 268.900 L 152.450 271.600 126.296 271.600 L 100.143 271.600 99.321 269.700 C 98.869 268.655,97.737 265.910,96.806 263.600 C 95.874 261.290,94.682 258.450,94.156 257.289 C 93.630 256.128,93.200 255.001,93.200 254.784 C 93.200 254.567,93.029 254.077,92.819 253.695 C 92.610 253.313,92.182 252.370,91.867 251.600 C 91.553 250.830,90.824 249.160,90.248 247.889 C 89.672 246.618,89.200 245.324,89.200 245.013 C 89.200 244.702,89.040 244.348,88.844 244.227 C 88.649 244.106,88.374 243.551,88.234 242.993 C 88.094 242.435,87.534 241.005,86.990 239.815 C 86.445 238.625,86.000 237.548,86.000 237.421 C 86.000 237.295,85.659 236.428,85.242 235.496 C 84.825 234.563,83.915 232.360,83.221 230.600 C 81.705 226.759,81.571 226.439,80.241 223.489 C 79.669 222.218,79.200 221.001,79.200 220.784 C 79.200 220.567,79.029 220.077,78.819 219.695 C 78.610 219.313,78.182 218.370,77.867 217.600 C 77.553 216.830,76.824 215.160,76.248 213.889 C 75.672 212.618,75.200 211.324,75.200 211.013 C 75.200 210.702,75.040 210.348,74.844 210.227 C 74.649 210.106,74.374 209.551,74.234 208.993 C 74.094 208.435,73.534 207.005,72.990 205.815 C 72.445 204.625,72.000 203.548,72.000 203.421 C 72.000 203.295,71.659 202.428,71.242 201.496 C 70.825 200.563,69.915 198.360,69.221 196.600 C 67.705 192.759,67.571 192.439,66.241 189.489 C 65.669 188.218,65.200 187.001,65.200 186.784 C 65.200 186.567,65.029 186.077,64.819 185.695 C 64.610 185.313,64.142 184.280,63.779 183.400 C 62.100 179.331,61.281 177.384,60.600 175.840 C 60.270 175.091,60.000 174.377,60.000 174.251 C 60.000 174.126,59.550 173.040,59.000 171.837 C 58.450 170.635,58.000 169.548,58.000 169.421 C 58.000 169.295,57.665 168.428,57.255 167.496 C 56.845 166.563,56.193 164.990,55.807 164.000 C 54.416 160.438,53.517 158.288,52.248 155.489 C 51.672 154.218,51.200 153.001,51.200 152.784 C 51.200 152.567,51.029 152.077,50.819 151.695 C 50.610 151.313,50.160 150.325,49.819 149.500 C 48.425 146.124,47.924 144.955,47.491 144.074 C 47.130 143.337,47.155 143.073,47.618 142.780 C 48.582 142.170,96.210 142.290,96.720 142.903 " stroke="none" fill="#5c64f4" fill-rule="evenodd"></path><path id="path2" d="M282.100 139.087 C 282.705 139.178,283.695 139.178,284.300 139.087 C 284.905 138.995,284.410 138.920,283.200 138.920 C 281.990 138.920,281.495 138.995,282.100 139.087 M293.891 139.089 C 294.601 139.177,295.861 139.179,296.691 139.092 C 297.521 139.005,296.940 138.933,295.400 138.931 C 293.860 138.929,293.181 139.000,293.891 139.089 M276.707 139.490 C 277.426 139.579,278.506 139.577,279.107 139.486 C 279.708 139.395,279.120 139.322,277.800 139.324 C 276.480 139.326,275.988 139.401,276.707 139.490 M299.900 139.489 C 300.615 139.578,301.785 139.578,302.500 139.489 C 303.215 139.401,302.630 139.328,301.200 139.328 C 299.770 139.328,299.185 139.401,299.900 139.489 M268.200 140.400 C 267.111 140.677,267.093 140.707,268.000 140.725 C 268.550 140.735,269.360 140.589,269.800 140.400 C 270.786 139.976,269.866 139.976,268.200 140.400 M48.000 143.100 C 48.000 143.265,58.963 143.400,72.362 143.400 C 85.761 143.400,96.640 143.265,96.538 143.100 C 96.436 142.935,85.473 142.800,72.176 142.800 C 58.879 142.800,48.000 142.935,48.000 143.100 M156.138 143.106 C 155.884 143.268,166.802 143.400,180.400 143.400 C 193.998 143.400,205.040 143.265,204.938 143.100 C 204.698 142.712,156.748 142.718,156.138 143.106 M344.400 170.080 C 344.290 180.354,344.337 188.623,344.504 188.456 C 344.671 188.289,344.761 179.883,344.704 169.776 L 344.600 151.400 344.400 170.080 M149.267 160.780 C 149.033 161.451,148.927 162.000,149.031 162.000 C 149.301 162.000,150.056 159.922,149.857 159.724 C 149.767 159.633,149.501 160.108,149.267 160.780 M220.981 164.100 L 219.400 165.800 221.100 164.219 C 222.681 162.748,222.984 162.400,222.681 162.400 C 222.616 162.400,221.851 163.165,220.981 164.100 M299.100 176.689 C 299.815 176.778,300.985 176.778,301.700 176.689 C 302.415 176.601,301.830 176.528,300.400 176.528 C 298.970 176.528,298.385 176.601,299.100 176.689 M293.300 177.076 C 293.685 177.176,294.315 177.176,294.700 177.076 C 295.085 176.975,294.770 176.893,294.000 176.893 C 293.230 176.893,292.915 176.975,293.300 177.076 M305.700 177.076 C 306.085 177.176,306.715 177.176,307.100 177.076 C 307.485 176.975,307.170 176.893,306.400 176.893 C 305.630 176.893,305.315 176.975,305.700 177.076 M311.300 177.476 C 311.685 177.576,312.315 177.576,312.700 177.476 C 313.085 177.375,312.770 177.293,312.000 177.293 C 311.230 177.293,310.915 177.375,311.300 177.476 M141.267 182.780 C 141.033 183.451,140.927 184.000,141.031 184.000 C 141.301 184.000,142.056 181.922,141.857 181.724 C 141.767 181.633,141.501 182.108,141.267 182.780 M207.244 187.644 C 206.998 188.351,206.866 189.000,206.952 189.085 C 207.038 189.171,207.309 188.662,207.556 187.956 C 207.802 187.249,207.934 186.600,207.848 186.515 C 207.762 186.429,207.491 186.938,207.244 187.644 M262.381 188.115 C 261.380 189.042,260.300 190.170,259.981 190.622 C 259.661 191.074,259.850 190.971,260.400 190.392 C 260.950 189.814,262.120 188.684,263.000 187.881 C 263.880 187.078,264.510 186.424,264.400 186.426 C 264.290 186.429,263.381 187.189,262.381 188.115 M135.267 199.180 C 135.033 199.851,134.927 200.400,135.031 200.400 C 135.301 200.400,136.056 198.322,135.857 198.124 C 135.767 198.033,135.501 198.508,135.267 199.180 M116.229 199.200 C 116.376 199.750,116.664 200.470,116.867 200.800 C 117.125 201.217,117.157 201.095,116.971 200.400 C 116.824 199.850,116.536 199.130,116.333 198.800 C 116.075 198.383,116.043 198.505,116.229 199.200 M204.528 204.400 C 204.528 205.830,204.601 206.415,204.689 205.700 C 204.778 204.985,204.778 203.815,204.689 203.100 C 204.601 202.385,204.528 202.970,204.528 204.400 M254.131 206.600 C 254.133 208.140,254.205 208.721,254.292 207.891 C 254.379 207.061,254.377 205.801,254.289 205.091 C 254.200 204.381,254.129 205.060,254.131 206.600 M72.828 204.600 C 72.828 204.820,73.086 205.450,73.400 206.000 C 73.714 206.550,73.972 206.820,73.972 206.600 C 73.972 206.380,73.714 205.750,73.400 205.200 C 73.086 204.650,72.828 204.380,72.828 204.600 M204.534 210.800 C 204.534 212.450,204.605 213.125,204.691 212.300 C 204.778 211.475,204.778 210.125,204.691 209.300 C 204.605 208.475,204.534 209.150,204.534 210.800 M254.406 211.033 C 254.409 211.675,254.584 212.470,254.795 212.800 C 255.055 213.209,255.099 212.890,254.932 211.800 C 254.629 209.823,254.398 209.486,254.406 211.033 M343.736 224.700 C 343.322 225.085,343.158 225.265,343.372 225.100 C 344.768 224.021,344.800 224.410,344.800 242.520 C 344.800 256.130,344.684 260.370,344.300 260.801 C 343.875 261.278,343.904 261.282,344.500 260.832 C 345.278 260.243,345.616 224.000,344.844 224.000 C 344.649 224.000,344.150 224.315,343.736 224.700 M83.267 230.020 C 83.501 230.692,83.767 231.167,83.857 231.076 C 84.056 230.878,83.301 228.800,83.031 228.800 C 82.927 228.800,83.033 229.349,83.267 230.020 M295.100 237.089 C 295.815 237.178,296.985 237.178,297.700 237.089 C 298.415 237.001,297.830 236.928,296.400 236.928 C 294.970 236.928,294.385 237.001,295.100 237.089 M302.300 237.089 C 303.015 237.178,304.185 237.178,304.900 237.089 C 305.615 237.001,305.030 236.928,303.600 236.928 C 302.170 236.928,301.585 237.001,302.300 237.089 M86.828 238.600 C 86.828 238.820,87.086 239.450,87.400 240.000 C 87.714 240.550,87.972 240.820,87.972 240.600 C 87.972 240.380,87.714 239.750,87.400 239.200 C 87.086 238.650,86.828 238.380,86.828 238.600 M224.400 254.600 C 225.146 255.370,225.847 256.000,225.957 256.000 C 226.067 256.000,225.546 255.370,224.800 254.600 C 224.054 253.830,223.353 253.200,223.243 253.200 C 223.133 253.200,223.654 253.830,224.400 254.600 M156.379 260.655 C 156.158 261.236,156.052 261.785,156.143 261.876 C 156.233 261.967,156.499 261.492,156.733 260.820 C 157.253 259.328,156.939 259.182,156.379 260.655 M246.400 268.134 C 246.400 268.237,246.981 268.524,247.691 268.772 C 248.401 269.019,248.806 269.057,248.591 268.856 C 248.135 268.429,246.400 267.858,246.400 268.134 M272.700 274.682 C 273.195 274.778,274.005 274.778,274.500 274.682 C 274.995 274.587,274.590 274.509,273.600 274.509 C 272.610 274.509,272.205 274.587,272.700 274.682 M301.705 274.687 C 302.314 274.779,303.214 274.777,303.705 274.682 C 304.197 274.587,303.700 274.511,302.600 274.514 C 301.500 274.517,301.097 274.595,301.705 274.687 M276.500 275.076 C 276.885 275.176,277.515 275.176,277.900 275.076 C 278.285 274.975,277.970 274.893,277.200 274.893 C 276.430 274.893,276.115 274.975,276.500 275.076 M286.707 275.490 C 287.426 275.579,288.506 275.577,289.107 275.486 C 289.708 275.395,289.120 275.322,287.800 275.324 C 286.480 275.326,285.988 275.401,286.707 275.490 " stroke="none" fill="#b4bcfc" fill-rule="evenodd"></path><path id="path3" d="M285.100 138.699 C 287.575 138.769,291.625 138.769,294.100 138.699 C 296.575 138.628,294.550 138.571,289.600 138.571 C 284.650 138.571,282.625 138.628,285.100 138.699 M278.305 139.083 C 278.802 139.179,279.522 139.175,279.905 139.075 C 280.287 138.975,279.880 138.896,279.000 138.901 C 278.120 138.905,277.807 138.987,278.305 139.083 M299.300 139.076 C 299.685 139.176,300.315 139.176,300.700 139.076 C 301.085 138.975,300.770 138.893,300.000 138.893 C 299.230 138.893,298.915 138.975,299.300 139.076 M271.400 139.600 C 270.330 139.872,270.308 139.905,271.200 139.905 C 271.750 139.905,272.740 139.768,273.400 139.600 C 274.470 139.328,274.492 139.295,273.600 139.295 C 273.050 139.295,272.060 139.432,271.400 139.600 M305.800 139.623 C 307.826 140.042,309.463 140.023,307.800 139.600 C 307.140 139.432,306.060 139.294,305.400 139.293 C 304.391 139.292,304.455 139.345,305.800 139.623 M264.000 140.795 C 263.591 141.055,263.910 141.099,265.000 140.932 C 266.977 140.629,267.314 140.398,265.767 140.406 C 265.125 140.409,264.330 140.584,264.000 140.795 M312.833 140.543 C 312.925 140.621,313.630 140.801,314.400 140.942 C 315.385 141.123,315.622 141.082,315.200 140.806 C 314.658 140.450,312.437 140.203,312.833 140.543 M260.600 141.600 C 260.096 141.817,260.022 141.944,260.400 141.944 C 260.730 141.944,261.360 141.789,261.800 141.600 C 262.304 141.383,262.378 141.256,262.000 141.256 C 261.670 141.256,261.040 141.411,260.600 141.600 M317.600 141.600 C 318.968 142.038,320.019 142.038,319.000 141.600 C 318.560 141.411,317.840 141.262,317.400 141.268 C 316.757 141.277,316.796 141.343,317.600 141.600 M72.121 142.700 L 96.441 142.806 97.005 144.103 C 97.315 144.816,97.576 145.125,97.584 144.789 C 97.593 144.453,97.320 143.778,96.977 143.289 L 96.355 142.400 72.077 142.497 L 47.800 142.594 72.121 142.700 M155.568 143.100 C 155.118 143.696,155.122 143.725,155.599 143.300 C 156.035 142.912,161.639 142.800,180.727 142.800 L 205.293 142.800 205.069 143.658 C 204.909 144.270,204.968 144.392,205.275 144.085 C 205.512 143.848,205.598 143.372,205.466 143.027 C 205.075 142.008,156.340 142.080,155.568 143.100 M321.633 142.544 C 321.725 142.623,322.340 142.808,323.000 142.956 C 323.876 143.152,324.038 143.115,323.600 142.818 C 323.060 142.453,321.232 142.198,321.633 142.544 M154.379 145.855 C 154.158 146.436,154.052 146.985,154.143 147.076 C 154.233 147.167,154.499 146.692,154.733 146.020 C 155.253 144.528,154.939 144.382,154.379 145.855 M245.600 146.600 C 245.050 146.914,244.780 147.172,245.000 147.172 C 245.220 147.172,245.850 146.914,246.400 146.600 C 246.950 146.286,247.220 146.028,247.000 146.028 C 246.780 146.028,246.150 146.286,245.600 146.600 M203.267 147.980 C 203.033 148.651,202.927 149.200,203.031 149.200 C 203.301 149.200,204.056 147.122,203.857 146.924 C 203.767 146.833,203.501 147.308,203.267 147.980 M232.100 154.046 C 230.737 154.919,230.295 155.506,231.500 154.843 C 232.418 154.339,233.856 153.227,233.600 153.219 C 233.490 153.216,232.815 153.588,232.100 154.046 M222.792 161.900 L 219.000 165.800 222.900 162.008 C 226.522 158.486,226.982 158.000,226.692 158.000 C 226.633 158.000,224.878 159.755,222.792 161.900 M148.444 162.044 C 148.198 162.751,148.066 163.400,148.152 163.485 C 148.238 163.571,148.509 163.062,148.756 162.356 C 149.002 161.649,149.134 161.000,149.048 160.915 C 148.962 160.829,148.691 161.338,148.444 162.044 M58.218 170.100 C 58.368 170.595,58.655 171.176,58.856 171.391 C 59.057 171.606,59.019 171.201,58.772 170.491 C 58.265 169.038,57.797 168.708,58.218 170.100 M213.984 172.423 C 213.505 173.096,213.179 173.713,213.261 173.794 C 213.343 173.876,213.814 173.326,214.308 172.571 C 215.423 170.871,215.171 170.756,213.984 172.423 M60.218 174.900 C 60.368 175.395,60.655 175.976,60.856 176.191 C 61.057 176.406,61.019 176.001,60.772 175.291 C 60.265 173.838,59.797 173.508,60.218 174.900 M298.691 177.089 C 299.401 177.177,300.661 177.179,301.491 177.092 C 302.321 177.005,301.740 176.933,300.200 176.931 C 298.660 176.929,297.981 177.000,298.691 177.089 M291.700 177.491 C 292.525 177.578,293.875 177.578,294.700 177.491 C 295.525 177.405,294.850 177.334,293.200 177.334 C 291.550 177.334,290.875 177.405,291.700 177.491 M304.912 177.495 C 305.964 177.577,307.584 177.576,308.512 177.492 C 309.440 177.408,308.580 177.341,306.600 177.342 C 304.620 177.343,303.860 177.412,304.912 177.495 M311.300 177.876 C 311.685 177.976,312.315 177.976,312.700 177.876 C 313.085 177.775,312.770 177.693,312.000 177.693 C 311.230 177.693,310.915 177.775,311.300 177.876 M209.980 179.639 C 209.520 180.540,209.213 181.346,209.297 181.430 C 209.381 181.514,209.841 180.776,210.319 179.791 C 211.409 177.547,211.115 177.415,209.980 179.639 M284.000 178.400 C 283.196 178.657,283.157 178.723,283.800 178.732 C 284.240 178.738,284.960 178.589,285.400 178.400 C 286.419 177.962,285.368 177.962,284.000 178.400 M315.200 178.394 C 315.530 178.611,316.235 178.791,316.767 178.794 C 318.051 178.802,317.725 178.575,316.000 178.258 C 315.015 178.077,314.778 178.118,315.200 178.394 M319.600 179.152 C 319.930 179.338,320.830 179.602,321.600 179.738 C 322.443 179.888,322.761 179.852,322.400 179.648 C 322.070 179.462,321.170 179.198,320.400 179.062 C 319.557 178.912,319.239 178.948,319.600 179.152 M189.267 181.980 C 189.033 182.651,188.927 183.200,189.031 183.200 C 189.301 183.200,190.056 181.122,189.857 180.924 C 189.767 180.833,189.501 181.308,189.267 181.980 M341.400 187.407 C 341.840 187.766,342.560 188.235,343.000 188.451 L 343.800 188.844 343.000 188.193 C 342.560 187.834,341.840 187.365,341.400 187.149 L 340.600 186.756 341.400 187.407 M113.029 189.200 C 113.176 189.750,113.464 190.470,113.667 190.800 C 113.925 191.217,113.957 191.095,113.771 190.400 C 113.624 189.850,113.336 189.130,113.133 188.800 C 112.875 188.383,112.843 188.505,113.029 189.200 M185.267 191.580 C 185.033 192.251,184.927 192.800,185.031 192.800 C 185.301 192.800,186.056 190.722,185.857 190.524 C 185.767 190.433,185.501 190.908,185.267 191.580 M259.724 191.300 C 258.974 192.127,256.362 196.456,256.888 196.000 C 257.186 195.741,260.759 190.400,260.634 190.400 C 260.582 190.400,260.172 190.805,259.724 191.300 M205.429 193.029 C 205.281 193.615,205.238 194.172,205.332 194.266 C 205.427 194.360,205.624 193.958,205.771 193.371 C 205.919 192.785,205.962 192.228,205.868 192.134 C 205.773 192.040,205.576 192.442,205.429 193.029 M136.379 195.055 C 136.158 195.636,136.052 196.185,136.143 196.276 C 136.233 196.367,136.499 195.892,136.733 195.220 C 137.253 193.728,136.939 193.582,136.379 195.055 M115.267 195.620 C 115.501 196.292,115.767 196.767,115.857 196.676 C 116.056 196.478,115.301 194.400,115.031 194.400 C 114.927 194.400,115.033 194.949,115.267 195.620 M204.656 197.284 C 204.521 197.788,204.431 198.830,204.455 199.600 C 204.489 200.669,204.575 200.480,204.818 198.802 C 205.153 196.492,205.072 195.733,204.656 197.284 M134.444 200.444 C 134.198 201.151,134.066 201.800,134.152 201.885 C 134.238 201.971,134.509 201.462,134.756 200.756 C 135.002 200.049,135.134 199.400,135.048 199.315 C 134.962 199.229,134.691 199.738,134.444 200.444 M204.124 204.200 C 204.126 205.520,204.201 206.012,204.290 205.293 C 204.379 204.574,204.377 203.494,204.286 202.893 C 204.195 202.292,204.122 202.880,204.124 204.200 M72.218 204.100 C 72.368 204.595,72.655 205.176,72.856 205.391 C 73.057 205.606,73.019 205.201,72.772 204.491 C 72.265 203.038,71.797 202.708,72.218 204.100 M254.531 206.600 C 254.533 208.140,254.605 208.721,254.692 207.891 C 254.779 207.061,254.777 205.801,254.689 205.091 C 254.600 204.381,254.529 205.060,254.531 206.600 M74.218 208.900 C 74.368 209.395,74.655 209.976,74.856 210.191 C 75.057 210.406,75.019 210.001,74.772 209.291 C 74.265 207.838,73.797 207.508,74.218 208.900 M204.120 211.600 C 204.120 212.810,204.195 213.305,204.287 212.700 C 204.378 212.095,204.378 211.105,204.287 210.500 C 204.195 209.895,204.120 210.390,204.120 211.600 M130.379 211.455 C 130.158 212.036,130.052 212.585,130.143 212.676 C 130.233 212.767,130.499 212.292,130.733 211.620 C 131.253 210.128,130.939 209.982,130.379 211.455 M255.044 212.600 C 255.373 214.071,255.602 214.390,255.594 213.367 C 255.591 212.945,255.405 212.330,255.182 212.000 C 254.885 211.562,254.848 211.724,255.044 212.600 M175.265 215.817 C 174.595 217.288,174.723 217.602,175.447 216.265 C 175.786 215.640,175.988 215.054,175.896 214.963 C 175.805 214.871,175.521 215.256,175.265 215.817 M204.438 216.400 C 204.424 217.390,204.570 218.449,204.763 218.754 C 204.979 219.095,205.041 218.558,204.924 217.354 C 204.660 214.645,204.468 214.267,204.438 216.400 M128.379 217.055 C 128.158 217.636,128.052 218.185,128.143 218.276 C 128.233 218.367,128.499 217.892,128.733 217.220 C 129.253 215.728,128.939 215.582,128.379 217.055 M258.724 220.800 C 259.374 221.790,260.323 222.960,260.832 223.400 C 261.451 223.935,261.335 223.670,260.483 222.600 C 257.990 219.468,257.556 219.024,258.724 220.800 M205.256 221.600 C 205.256 221.930,205.411 222.560,205.600 223.000 C 205.817 223.504,205.944 223.578,205.944 223.200 C 205.944 222.870,205.789 222.240,205.600 221.800 C 205.383 221.296,205.256 221.222,205.256 221.600 M344.708 223.898 C 345.109 224.181,345.193 228.110,345.108 242.509 C 345.049 252.547,345.137 260.623,345.304 260.456 C 345.949 259.811,345.456 223.882,344.800 223.703 C 344.348 223.579,344.325 223.627,344.708 223.898 M206.406 226.233 C 206.409 226.655,206.595 227.270,206.818 227.600 C 207.115 228.038,207.152 227.876,206.956 227.000 C 206.627 225.529,206.398 225.210,206.406 226.233 M169.267 230.380 C 169.033 231.051,168.927 231.600,169.031 231.600 C 169.301 231.600,170.056 229.522,169.857 229.324 C 169.767 229.233,169.501 229.708,169.267 230.380 M280.433 234.544 C 280.525 234.623,281.140 234.808,281.800 234.956 C 282.676 235.152,282.838 235.115,282.400 234.818 C 281.860 234.453,280.032 234.198,280.433 234.544 M318.800 234.806 C 318.378 235.082,318.615 235.123,319.600 234.942 C 321.325 234.625,321.651 234.398,320.367 234.406 C 319.835 234.409,319.130 234.589,318.800 234.806 M285.000 235.600 C 285.440 235.789,286.160 235.938,286.600 235.932 C 287.243 235.923,287.204 235.857,286.400 235.600 C 285.032 235.162,283.981 235.162,285.000 235.600 M314.400 235.600 C 313.608 235.854,313.567 235.920,314.200 235.920 C 314.640 235.920,315.450 235.776,316.000 235.600 C 316.792 235.346,316.833 235.280,316.200 235.280 C 315.760 235.280,314.950 235.424,314.400 235.600 M296.122 236.699 C 298.499 236.770,302.279 236.769,304.522 236.698 C 306.765 236.627,304.820 236.569,300.200 236.569 C 295.580 236.570,293.745 236.628,296.122 236.699 M88.218 242.900 C 88.368 243.395,88.655 243.976,88.856 244.191 C 89.057 244.406,89.019 244.001,88.772 243.291 C 88.265 241.838,87.797 241.508,88.218 242.900 M214.254 243.300 C 215.009 244.551,216.800 246.890,216.800 246.625 C 216.800 246.289,214.346 242.800,214.109 242.800 C 214.023 242.800,214.089 243.025,214.254 243.300 M222.200 252.800 C 224.392 255.000,226.275 256.800,226.385 256.800 C 226.495 256.800,224.792 255.000,222.600 252.800 C 220.408 250.600,218.525 248.800,218.415 248.800 C 218.305 248.800,220.008 250.600,222.200 252.800 M155.267 264.380 C 155.033 265.051,154.927 265.600,155.031 265.600 C 155.301 265.600,156.056 263.522,155.857 263.324 C 155.767 263.233,155.501 263.708,155.267 264.380 M153.265 269.017 C 152.595 270.488,152.723 270.802,153.447 269.465 C 153.786 268.840,153.988 268.254,153.896 268.163 C 153.805 268.071,153.521 268.456,153.265 269.017 M326.600 269.414 C 325.595 269.898,325.563 269.953,326.400 269.751 C 326.950 269.619,327.571 269.350,327.780 269.155 C 328.298 268.671,328.014 268.733,326.600 269.414 M126.200 271.200 L 99.800 271.409 126.076 271.504 C 143.266 271.567,152.438 271.462,152.600 271.200 C 152.736 270.980,152.792 270.843,152.724 270.896 C 152.656 270.948,140.720 271.085,126.200 271.200 M316.800 272.400 C 315.996 272.657,315.957 272.723,316.600 272.732 C 317.040 272.738,317.760 272.589,318.200 272.400 C 319.219 271.962,318.168 271.962,316.800 272.400 M313.000 273.200 C 311.893 273.482,311.877 273.509,312.800 273.547 C 313.350 273.569,314.070 273.413,314.400 273.200 C 315.081 272.760,314.729 272.760,313.000 273.200 M268.200 274.381 C 268.968 274.729,271.110 274.956,270.767 274.653 C 270.675 274.572,269.880 274.396,269.000 274.262 C 267.885 274.093,267.642 274.129,268.200 274.381 M306.000 274.400 C 304.656 274.831,306.108 274.831,307.800 274.400 C 308.878 274.126,308.898 274.094,308.000 274.087 C 307.450 274.083,306.550 274.224,306.000 274.400 M276.900 275.491 C 277.725 275.578,279.075 275.578,279.900 275.491 C 280.725 275.405,280.050 275.334,278.400 275.334 C 276.750 275.334,276.075 275.405,276.900 275.491 M294.500 275.494 C 295.545 275.576,297.255 275.576,298.300 275.494 C 299.345 275.412,298.490 275.344,296.400 275.344 C 294.310 275.344,293.455 275.412,294.500 275.494 M286.707 275.890 C 287.426 275.979,288.506 275.977,289.107 275.886 C 289.708 275.795,289.120 275.722,287.800 275.724 C 286.480 275.726,285.988 275.801,286.707 275.890 " stroke="none" fill="#959df6" fill-rule="evenodd"></path><path id="path4" d="M295.700 177.076 C 296.085 177.176,296.715 177.176,297.100 177.076 C 297.485 176.975,297.170 176.893,296.400 176.893 C 295.630 176.893,295.315 176.975,295.700 177.076 M303.300 177.076 C 303.685 177.176,304.315 177.176,304.700 177.076 C 305.085 176.975,304.770 176.893,304.000 176.893 C 303.230 176.893,302.915 176.975,303.300 177.076 M204.109 208.000 C 204.109 208.990,204.187 209.395,204.282 208.900 C 204.378 208.405,204.378 207.595,204.282 207.100 C 204.187 206.605,204.109 207.010,204.109 208.000 M299.300 237.076 C 299.685 237.176,300.315 237.176,300.700 237.076 C 301.085 236.975,300.770 236.893,300.000 236.893 C 299.230 236.893,298.915 236.975,299.300 237.076 M282.307 275.490 C 283.026 275.579,284.106 275.577,284.707 275.486 C 285.308 275.395,284.720 275.322,283.400 275.324 C 282.080 275.326,281.588 275.401,282.307 275.490 M290.705 275.483 C 291.202 275.579,291.922 275.575,292.305 275.475 C 292.687 275.375,292.280 275.296,291.400 275.301 C 290.520 275.305,290.207 275.387,290.705 275.483 " stroke="none" fill="#acb4fc" fill-rule="evenodd"></path></g></svg>