<svg xmlns="http://www.w3.org/2000/svg" width="354.302" height="354.302" overflow="visible"><path fill="#ffba00" d="M92.257 117.465h32.899l-43.482 119.37H42.161L0 117.465h36.539l26.948 86.471h.332zM197.407 154.995c-.826-10.746-8.928-16.863-22.485-16.863-19.013 0-22.483 22.32-22.483 40.175 0 17.36 3.8 37.861 22.483 37.861 13.89 0 21.825-6.115 22.485-17.523h34.72c.496 30.09-28.271 40.67-57.205 40.67-37.199 0-57.204-22.319-57.204-62.33 0-40.01 20.005-61.67 57.204-61.999 28.935 0 57.701 9.92 57.205 40.01zM354.302 117.465v75.557c-.332 33.233-26.95 46.293-57.041 46.293-30.091 0-56.709-13.06-57.039-46.293v-75.557h33.065v73.903c.496 15.212 8.435 24.8 23.974 24.8 15.54 0 23.478-9.588 23.974-24.8v-73.903z"/></svg>