<svg data-name="Layer 1" xmlns="http://www.w3.org/2000/svg" width="270" height="106.43"><g data-name="Layer 2"><g data-name="Layer 1-2"><path d="M34.65 35.48C32.93 32.54 17.44 4.8 17.44 4.8A8.62 8.62 0 005.5 2.27l-.19.12a8.85 8.85 0 00-2.14 12.29l21.48 38.43a8.84 8.84 0 007.51 3.76 8.66 8.66 0 007.5-3.73l9.05-16.27a8.22 8.22 0 01-11.33 1.73 13.32 13.32 0 01-2.73-3.12z" fill="#ff8200"/><path d="M110.93 35.65H81.22c4.91 7.46 14.17 8.58 21.3 4.68a7.52 7.52 0 0110.33 2.53l.09.15a7.74 7.74 0 01-2.68 10.48 31.51 31.51 0 01-16 4.23c-12.83 0-22.91-7.29-27.33-16.5A29 29 0 0166.6 18a28.44 28.44 0 0154.4 7.63c.71 6.67-3.76 10.02-10.07 10.02zm-6.85-12.72c-1-4.23-5.68-8.25-11.37-8.25s-10.41 4-11.37 8.25zm67.42 12.72h-29.66c4.9 7.46 14.16 8.58 21.29 4.68a7.52 7.52 0 0110.33 2.53l.09.15a7.73 7.73 0 01-2.68 10.48 31.51 31.51 0 01-15.94 4.23c-12.83 0-22.91-7.29-27.33-16.5a29 29 0 01-.33-23.2 28.43 28.43 0 0154.37 7.61c.68 6.67-3.79 10.02-10.14 10.02zm-6.8-12.72c-1-4.23-5.69-8.25-11.38-8.25s-10.41 4-11.37 8.25zm87.24-19.66l-.65-.27c-.63-.25-1.27-.49-1.92-.7-.08 0-1.62-.46-2.34-.62-.11 0-1.69-.3-2.38-.37-.52-.05-2.17-.14-2.5-.14H242a24.8 24.8 0 00-15.5 5.58 24.82 24.82 0 00-15.46-5.58H211a28 28 0 00-4.84.51A24.42 24.42 0 00201.88 3l-.66.29a24.38 24.38 0 00-14.51 22.14V48a8.55 8.55 0 00.62 3.12c.08.22.17.42.27.63s.24.46.37.68a8.4 8.4 0 00.71 1l.15.17a8.66 8.66 0 003.89 2.66l.47.16.81.18a9.91 9.91 0 001.53.15 8.93 8.93 0 008.83-8.75V25.41a6.69 6.69 0 016.64-6.72 6.75 6.75 0 016.68 6.72V48a8.91 8.91 0 008.82 8.85h.1a8.92 8.92 0 008.83-8.82V25.41a6.68 6.68 0 1113.34-.53 4.69 4.69 0 010 .53V48a8.92 8.92 0 008.83 8.85 9.91 9.91 0 001.53-.15 7.3 7.3 0 00.81-.18 4.5 4.5 0 00.48-.16 8.79 8.79 0 003.88-2.63l.15-.18a9.09 9.09 0 00.71-1 5.76 5.76 0 00.38-.69c.1-.21.19-.41.27-.62a8.37 8.37 0 00.4-1.29v-.18a9.59 9.59 0 00.17-1.69V25.41a24.35 24.35 0 00-14.44-22.14zm-193.18-.9A8.85 8.85 0 0046.51 4.8l-13.3 23.77C34.54 31 35.6 32.79 36 33.44a14.8 14.8 0 002.45 3c5.05 3.54 10.1-.2 11.71-2.18l11-19.66a8.85 8.85 0 00-2.4-12.23zm201.31 2.8a4.23 4.23 0 01.33-1.65 4.17 4.17 0 01.9-1.33 4.45 4.45 0 011.34-.88 4.27 4.27 0 013.22 0 4.45 4.45 0 011.34.88 4.14 4.14 0 01.89 1.33 4.06 4.06 0 01.34 1.65 4.21 4.21 0 01-1.23 3 4.68 4.68 0 01-1.34.89 4.37 4.37 0 01-3.22 0 4.68 4.68 0 01-1.34-.89 4.08 4.08 0 01-.9-1.27 4.17 4.17 0 01-.33-1.73zm.74 0a3.62 3.62 0 00.27 1.42 3.49 3.49 0 001.82 1.88 3.49 3.49 0 002.69 0 3.14 3.14 0 001-.76 3.22 3.22 0 00.74-1.12 3.82 3.82 0 000-2.82 3.08 3.08 0 00-.74-1.14 3.14 3.14 0 00-1-.76 3.49 3.49 0 00-2.69 0 3.29 3.29 0 00-1 .76 3.4 3.4 0 00-.72 1.14 3.58 3.58 0 00-.32 1.4zm1.85-2.46h1.84c1.13 0 1.71.46 1.71 1.4a1.19 1.19 0 01-.38 1 1.61 1.61 0 01-.91.36l1.39 2.17h-.79l-1.32-2.11h-.8v2.08h-.74zm.74 2.18h.76a4 4 0 00.49 0 1.43 1.43 0 00.41-.09.76.76 0 00.29-.24.88.88 0 00.11-.47.79.79 0 00-.1-.4.73.73 0 00-.26-.23 1.4 1.4 0 00-.35-.1h-1.35z" fill="#007fe0"/></g></g><path d="M125.56 74.76H130l2.05 12.1c.4 2.57.73 5.06 1 7.84h.14c.44-2.78.92-5.31 1.47-7.84l2.86-12.1h4.18l2.85 12.1c.55 2.49 1.1 5.06 1.54 7.84h.15c.29-2.78.66-5.31 1-7.84l2-12.1h4.14l-4.58 24h-5.57l-2.86-12.61c-.44-1.91-.59-3.6-.88-5.79h-.15c-.29 2.19-.55 3.88-1 5.79l-2.71 12.61h-5.5zM155 89.72c0-5.87 4.11-9.46 8.32-9.46 4.88 0 7.52 3.52 7.52 8.58a10.09 10.09 0 01-.22 2.2h-11.41c.44 3 2.35 4.76 5.21 4.76a7.62 7.62 0 004.18-1.24l1.46 2.71a10.42 10.42 0 01-6.23 1.9c-4.98 0-8.83-3.44-8.83-9.45zm12-1.91c0-2.64-1.24-4.18-3.59-4.18-2 0-3.81 1.47-4.18 4.18zm7.75 6.19V72.86h4.37v21.37c0 1.06.47 1.43.91 1.43a2.07 2.07 0 00.66-.08l.52 3.19a5.14 5.14 0 01-2.28.4c-3.04 0-4.18-1.97-4.18-5.17zm9.97 0V72.86h4.37v21.37c0 1.06.47 1.43.91 1.43a2.07 2.07 0 00.66-.08l.52 3.19a5.14 5.14 0 01-2.28.4c-3.04 0-4.18-1.97-4.18-5.17zM202 80.7h3.55l.33 1.91h.12a8.84 8.84 0 015.43-2.35c4.47 0 7.07 3.63 7.07 9.2 0 6.16-3.67 9.71-7.66 9.71a7.15 7.15 0 01-4.62-2l.15 3v5.61H202zm12.05 8.8c0-3.56-1.17-5.65-3.84-5.65a5.48 5.48 0 00-3.85 2v8.32a5.38 5.38 0 003.52 1.43c2.37-.02 4.2-2.07 4.2-6.1zm7.29 4.4c0-4 3.15-5.94 10.56-6.75-.08-1.83-.81-3.37-3.23-3.37a10.11 10.11 0 00-5.06 1.69l-1.53-2.86a14 14 0 017.4-2.35c4.47 0 6.74 2.79 6.74 7.81v10.67h-3.52l-.36-2h-.15a8.39 8.39 0 01-5.5 2.41 5.06 5.06 0 01-5.35-5.25zm10.56 0v-3.81c-4.91.58-6.38 1.68-6.38 3.51 0 1.54 1 2.13 2.49 2.13a5.39 5.39 0 003.89-1.83zm8.17-18.73a2.61 2.61 0 112.6 2.45 2.41 2.41 0 01-2.6-2.45zm.41 5.53h4.36v18h-4.36zm8.57 9.06c0-5.91 3.67-9.5 7.63-9.5a6.62 6.62 0 014.69 2l-.19-2.89v-6.51h4.33v25.88H262l-.33-1.95h-.15a7.48 7.48 0 01-5.05 2.38c-4.47 0-7.42-3.48-7.42-9.41zm12.13 3.84v-8.28a5.07 5.07 0 00-3.59-1.47c-2.23 0-4.1 2.13-4.1 5.83 0 3.89 1.46 5.9 4 5.9a4.53 4.53 0 003.69-1.98z" fill="#5e5e5e"/></svg>