<svg xmlns="http://www.w3.org/2000/svg" viewBox="0 0 61.07 56.01"><path fill="#ff8200" d="M33.07 34.6a6644.67 6644.67 0 0 1-17.2-30.67A8.62 8.62 0 0 0 3.91 1.4l-.19.12A8.85 8.85 0 0 0 1.6 13.8l21.48 38.43A8.84 8.84 0 0 0 30.58 56a8.66 8.66 0 0 0 7.5-3.73L47.13 36a8.22 8.22 0 0 1-11.33 1.73 13.32 13.32 0 0 1-2.73-3.12z"/><path fill="#007fe0" d="M57.18 1.5a8.85 8.85 0 0 0-12.25 2.43L31.63 27.7c1.33 2.43 2.4 4.22 2.8 4.87a14.8 14.8 0 0 0 2.44 3c5.05 3.54 10.1-.2 11.71-2.18l11-19.66a8.85 8.85 0 0 0-2.4-12.23z"/></svg>