<svg xmlns="http://www.w3.org/2000/svg" version="1.1" id="Layer_1" x="0" y="0" xml:space="preserve" width="56.1" height="56.1"><style type="text/css" id="style36834"></style><g id="g36886" transform="translate(-93.65 -.3)"><path d="M114.8 26.4c-.1-1.8-.3-3.6-.7-5.4-2.2-.8-4.6-1.6-7.4-2.3 6.1 9.8 5.7 21.1-1.3 33.8 2-2.5 4.6-6.3 6.6-11.1 2-5 3-10 2.8-15z" id="path36874" fill="#ffcc12"/><path d="M121.9 21.3c.3-3.1.2-6.1-.2-9.1-6-2.7-12.2-4.3-12.2-4.3 11 16.8 5.3 32-.2 40.7 2.2-2.7 4.6-6 6.7-9.7 3.3-6 5.3-11.9 5.9-17.6z" id="path36876" fill="#23b3e8"/><path d="M118.5.3s14.2 5.4 21.8 12.7c0 0-1.3 26.5-37.2 43.4 0 0 31.2-27 15.4-56.1z" id="path36878" fill="#c52b87"/><path d="M103.1 56.4c17.1-8 26.4-18.3 31.4-26.8-5.8.1-10.5.8-14.1 1.7-5.3 14.8-17.3 25.1-17.3 25.1z" id="path36880" fill="#b2267b"/><path d="M114.3 33.4c-1.7.8-2.9 1.5-3.4 1.9-.3 5.4-2.2 11.2-5.5 17.3 2-2.5 4.6-6.3 6.6-11.1 1.1-2.7 1.9-5.4 2.3-8.1z" id="path36882" fill="#f9ba19"/><path d="M119.4 31.6c-1.6.4-2.9.9-4.1 1.4-1 6.2-3.5 11.6-6 15.6 2.2-2.7 4.6-6 6.7-9.7 1.3-2.5 2.5-4.9 3.4-7.3z" id="path36884" fill="#4ba7dd"/></g></svg>