<svg xmlns="http://www.w3.org/2000/svg" viewBox="0 0 26.73 20.84"><defs><linearGradient id="a" x1="22.77" x2="2.55" y1="-3.1" y2="22.83" gradientUnits="userSpaceOnUse"><stop offset="0" stop-color="#10121a"/><stop offset="1" stop-color="#0c090d"/></linearGradient></defs><path fill="url(#a)" d="M12.1 2.14a8.33 8.33 0 0 1 11.77.62l.25.28c1.41 1.53 2.67 3.73 2.61 5.91a4.6 4.6 0 0 1-.66 2.25l-.08.13-.19.29-.66.98a35 35 0 0 1-2.31 2.96 21 21 0 0 1-3.5 3.27c-1.28.92-3.23 2.02-5.57 2.02s-4.27-1.06-5.57-1.93a24 24 0 0 1-3.72-3.18 41 41 0 0 1-2.57-2.91q-.48-.6-.75-.96l-.21-.28-.09-.12a4.47 4.47 0 0 1 1.01-6.25A4.47 4.47 0 0 1 8.1 6.24l.03.05.14.19.58.75.5.61a8.3 8.3 0 0 1 2.74-5.69z"/><path fill="#b8ff26" fill-rule="evenodd" d="M13.4 3.65a5.5 5.5 0 0 1 7.73.4l.26.29c1.17 1.27 1.9 2.79 1.86 3.92q0 .42-.24.8l-.02.03-.04.07-.17.26-.61.9c-.52.74-1.25 1.72-2.12 2.72-.86.99-1.9 2.03-3.01 2.83-1.09.78-2.44 1.48-3.9 1.48s-2.83-.68-3.98-1.45a21 21 0 0 1-3.26-2.8c-.97-.99-1.8-1.97-2.39-2.7l-.7-.89-.19-.26-.05-.07-.02-.03a2 2 0 0 1-.28-.69c-.07-.45.04-1.04.55-1.47a1.6 1.6 0 0 1 1.37-.34 1.6 1.6 0 0 1 .97.63s.02.04.04.07l.17.22.64.81 2.18 2.47c.88.9 1.83 1.76 2.76 2.38.96.64 1.7.9 2.19.9q.55.02 1.42-.48l.41-.23-.35-.31-.32-.31-1.29-1.44a5.5 5.5 0 0 1 .4-7.73zm6.07 4.95-1.83 2.34-.02.02-.23.27-2.01-1.98a2.26 2.26 0 1 1 3.37-3.04l.26.29c.25.28.47.59.57.93q.18.54-.07 1.12v.03l-.03.03z"/></svg>
