<svg xmlns="http://www.w3.org/2000/svg" version="1.1" id="svg1566" width="278" height="278"><defs id="defs1551"><style id="style1549">.cls-1{fill:#52cbca}</style></defs><g id="图层_2" data-name="图层 2" transform="translate(3.18)"><g id="图层_1-2" data-name="图层 1"><g id="B-Copy-13"><path id="Shape" class="cls-1" d="M215.67 62l-.86 1.06-.94-1a107.68 107.68 0 00-65-32.89l-1.06-.13V0l1.33.14a136.72 136.72 0 0190.54 47.66l1.52 1.79-2.34.19A33.19 33.19 0 00215.67 62z"/><path id="Shape-2" data-name="Shape" class="cls-1" d="M266.1 104.53l1.53-1.73.54 2.25a127.73 127.73 0 013.47 30.37 135.72 135.72 0 01-14.38 60.46l-.63 1.24-23.88-16.69.43-.92a103.84 103.84 0 009.65-44.09 105.69 105.69 0 00-1.56-18.27l-.24-1.34 1.36-.07a33.77 33.77 0 0023.71-11.21z"/><path id="Shape-3" data-name="Shape" class="cls-1" d="M28.8 135.42a103.7 103.7 0 009.66 44.09l.43.92L15 197.11l-.63-1.22A131.4 131.4 0 010 135.42a138.42 138.42 0 012.93-28l.43-2.07 1.56 1.43a34.06 34.06 0 0022.68 8.92h3l-.25 1.41a105.7 105.7 0 00-1.55 18.31z"/><path id="Shape-4" data-name="Shape" class="cls-1" d="M56.47 63.64l-1 1.12-.87-1.22a34.22 34.22 0 00-21.92-13.77l-2.07-.35L32 47.81A135 135 0 01122.51.14l1.32-.14v29.06l-1.07.13a106.75 106.75 0 00-66.29 34.45z"/><path id="Shape-5" data-name="Shape" class="cls-1" d="M51.33 201.1l.7.87a107.52 107.52 0 0053.25 36l1.34.4-.59 1.27a34.56 34.56 0 00-3.32 14.53 33.92 33.92 0 002 11.47l.76 2.11-2.18-.54a135.19 135.19 0 01-74.84-48.73l-.77-1z"/><path id="Shape-6" data-name="Shape" class="cls-1" d="M165.61 239.67l-.6-1.27 1.35-.4a107.54 107.54 0 0053.24-36l.71-.87 23.61 16.41-.78 1a136.55 136.55 0 01-74.83 48.73l-2.18.54.76-2.11a33.92 33.92 0 002-11.47 34.72 34.72 0 00-3.28-14.56z"/><path id="Combined-Shape" class="cls-1" d="M241.4 106.39a23.76 23.76 0 1123.75-23.76 23.76 23.76 0 01-23.75 23.76zm-213.8 0a23.76 23.76 0 1123.76-23.76 23.76 23.76 0 01-23.76 23.76zM135.82 278a23.76 23.76 0 1123.75-23.75A23.75 23.75 0 01135.82 278z"/><path id="Shape-7" data-name="Shape" d="M169.08 112.72c-4.23 17.16-30.62 8.45-39.33 6.34L137.4 89c8.45 1.84 35.9 6.07 31.68 23.75zm-4.76 48.83c-4.75 19-36.42 8.71-46.71 6.07l8.44-33.26c10 2.64 43 7.66 38.27 27.19zm4.23-83.41l6.07-24.81-15.05-4-6.07 24.33c-4-1.06-7.92-1.85-12.14-2.91l6.07-24.28-15-3.69-6.34 24.81c-3.17-.8-6.6-1.59-9.76-2.12l-20.9-5.27-4 16.1 11.08 2.64c6.07 1.58 7.13 5.54 7.13 8.71l-7.13 28.24c.53.26 1.06.26 1.58.53-.52-.27-1-.27-1.58-.53l-9.77 39.85c-.79 1.85-2.63 4.76-6.86 3.7.27.26-11.08-2.64-11.08-2.64l-7.66 17.42L86.72 179c3.7 1.06 7.13 1.85 10.83 2.91L91.21 207l15.05 3.7 6.33-24.82c4 1.06 8.18 2.12 12.14 3.17l-6.33 24.55 15 3.69 6.34-25.07c25.86 4.75 45.13 2.9 53.31-20.32 6.6-18.74-.26-29.83-14-36.69 10.29-2.11 17.68-8.71 19.79-22.17 2.7-18.53-11.29-28.3-30.29-34.9z" fill="#ffb900"/></g></g></g></svg>