<svg xmlns="http://www.w3.org/2000/svg" width="75.239" height="75.239"><g fill="none" fill-rule="evenodd"><g fill="#303030"><path d="M14.206 33.308c0 4.668-2.352 8.781-8.467 8.781C1.693 42.09 0 40.056 0 38.253c0-1.155.847-1.941 2.07-1.941 1.082 0 1.975.832 1.975 1.941 0 1.202-.846 1.849-.846 2.45 0 .6.564.786 3.01.786 4.75 0 4.563-3.79 4.563-7.904V22.4c0-5.085-.33-5.5-2.164-5.593h-.8v-.093h9.36v.093l-.799.046c-1.834.093-2.163.508-2.163 5.593z"/><path d="M18.49 41.995l.801-.047c1.84-.094 2.17-.518 2.17-5.696v-13.7c0-5.179-.33-5.602-2.17-5.696l-.801-.047v-.095h12.357c8.35 0 12.736 5.744 12.736 12.664 0 6.968-4.623 12.711-12.736 12.711H18.49zm8.207-24.622c-1.651 0-1.793.142-1.793 5.226v13.7c0 5.084.095 5.225 1.793 5.225h4.198c6.367 0 8.867-5.649 8.867-12.051 0-6.686-2.971-12.052-8.867-12.052h-4.198z" fill-rule="nonzero"/><path d="M66.138 37.033V25.157c0-3.061-.552-8.164-3.354-8.303l-.78-.047v-.093h7.992v.093l-.413.047c-2.021.185-2.848 3.061-2.848 8.767V42.09h-.505L47.44 19.451v13.87c0 3.063.552 8.165 3.354 8.305l.78.046v.093h-7.992v-.14l.413-.046c2.021-.185 2.848-3.062 2.848-8.767V22.467c0-5.103-.78-5.52-2.572-5.613l-.643-.047v-.093h6.063z"/></g><g fill="#f07355"><path d="M9.69 46.517l-3.633 8.096-3.681-8.096H.875l5.048 11.1h.262l5.017-11.1m3.346 11.1V46.517h-1.411v11.098zm-.712-15.43c.322 0 .596.115.824.349.227.233.34.513.34.842 0 .322-.113.6-.34.828a1.103 1.103 0 01-.823.347c-.31 0-.582-.12-.81-.354a1.155 1.155 0 01-.34-.834c0-.328.113-.613.34-.847.228-.233.5-.353.816-.353zm36.954 8.816c-.177-.724-.436-1.303-.776-1.736-.34-.433-.789-.782-1.348-1.048a4.055 4.055 0 00-1.76-.398c-1.018 0-1.89.334-2.623 1-.538.485-.936 1.212-1.214 2.182h7.716zm0 2.841l1.121.607c-.366.74-.79 1.333-1.27 1.788a5.081 5.081 0 01-1.624 1.037c-.6.24-1.283.354-2.047.354-1.688 0-3.008-.563-3.956-1.688s-1.429-2.401-1.429-3.823c0-1.34.405-2.534 1.214-3.578 1.024-1.33 2.389-1.997 4.101-1.997 1.763 0 3.173.682 4.228 2.046.752.965 1.131 2.168 1.144 3.609H42.95c.025 1.226.408 2.23 1.15 3.014.743.784 1.66 1.175 2.751 1.175.525 0 1.037-.092 1.536-.279.5-.19.923-.436 1.27-.746.351-.31.727-.808 1.135-1.497zm-16.342-6.003c-.74 0-1.424.19-2.05.556a4.079 4.079 0 00-1.495 1.567 4.347 4.347 0 00-.555 2.13c0 .745.184 1.453.556 2.13a4.088 4.088 0 001.504 1.586c.626.379 1.302.568 2.023.568a4.09 4.09 0 002.066-.556 3.898 3.898 0 001.504-1.516c.348-.639.525-1.36.525-2.16 0-1.219-.399-2.238-1.182-3.058-.79-.818-1.757-1.228-2.907-1.228zm5.314-5.65v15.426H38.45v-2.08c-.556.696-1.181 1.214-1.875 1.562a5.006 5.006 0 01-2.275.524c-1.463 0-2.712-.537-3.747-1.624C29.517 54.92 29 53.604 29 52.056c0-1.517.522-2.812 1.567-3.893 1.045-1.08 2.302-1.618 3.771-1.618.85 0 1.617.184 2.304.55.687.367 1.29.923 1.81 1.656v-6.567h1.312zM25.281 54.257a3.885 3.885 0 01-1.47 1.525 3.978 3.978 0 01-2.032.538c-.74 0-1.415-.18-2.035-.538a3.905 3.905 0 01-1.472-1.525 4.304 4.304 0 01-.544-2.13c0-1.18.398-2.188 1.188-3.02.797-.834 1.745-1.25 2.85-1.25 1.1 0 2.048.417 2.844 1.25.796.832 1.195 1.838 1.195 3.02 0 .762-.184 1.473-.544 2.13m.463-5.964c-1.05-1.175-2.37-1.762-3.965-1.762-1.598 0-2.924.59-3.972 1.772-.951 1.072-1.428 2.338-1.428 3.796 0 1.473.504 2.758 1.51 3.86 1.007 1.099 2.304 1.65 3.893 1.65 1.58 0 2.875-.55 3.88-1.65.057-.064.114-.129.168-.193l.003 1.852h1.32v-5.014c.012-.167.02-.335.02-.506-.001-1.466-.478-2.734-1.43-3.805zM67.817 49.995a6.77 6.77 0 01-.844 3.316c-.56 1.025-1.324 1.816-2.284 2.374-.951.558-2.01.836-3.156.836a6.165 6.165 0 01-3.157-.836c-.96-.56-1.715-1.35-2.283-2.374a6.821 6.821 0 01-.843-3.316c0-1.84.617-3.406 1.852-4.702 1.234-1.297 2.714-1.944 4.44-1.944.819 0 1.582.15 2.293.446.072-.752.333-1.45.624-2.021a8.433 8.433 0 00-2.91-.49c-2.49 0-4.544.92-6.176 2.758-1.48 1.666-2.217 3.637-2.217 5.908 0 2.291.784 4.293 2.348 6.006 1.565 1.713 3.577 2.568 6.047 2.568 2.458 0 4.47-.855 6.033-2.568 1.564-1.713 2.346-3.715 2.346-6.006 0-1.226-.216-2.363-.644-3.411a6.11 6.11 0 01-1.96.794c.342.813.51 1.7.51 2.662M74.133 30.54c-.898 1.917-2.56 2.275-2.56 2.275-1.663.429-2.246 1.068-2.246 1.068-1.662 1.68-.35 3.719-.35 3.719 3.596-.823 4.909-3.78 4.909-3.78-.158 1.995-4.428 4.34-4.428 4.34 1.418 1.39 2.765 1.225 3.658.69 1.181-.7 1.75-2.248 1.75-2.248 1.146-3.439-.718-6.046-.718-6.046"/><path d="M68.363 37.286c.04.577-5.319 15.496-10.062 17.053 0 0 .507.088 1.082.062 0 0 12.254-8.33 9.028-16.984l-.048-.14M68.248 36.344c0-.016-.002-.026-.002-.026-.432-4.596-2.942-6.269-2.942-6.269 1.767 2.982 2.728 5.659 2.944 6.295z"/></g></g></svg>