<svg xmlns="http://www.w3.org/2000/svg" viewBox="0 0 121.71 102.8"><defs><linearGradient id="f" x1="0" x2="1" y1="0" y2="0" gradientTransform="scale(-13.85601 13.85601) rotate(20 -185.08 -67.6)" gradientUnits="userSpaceOnUse" spreadMethod="pad"><stop offset="0" stop-color="#8cc63f"/><stop offset=".12" stop-color="#8cc63f"/><stop offset=".38" stop-color="#54b948"/><stop offset=".66" stop-color="#00a651"/><stop offset=".95" stop-color="#005826"/><stop offset="1" stop-color="#005826"/></linearGradient><linearGradient id="d" x1="0" x2="1" y1="0" y2="0" gradientTransform="scale(40.41433 -40.41433) rotate(15.04 82.57 30.76)" gradientUnits="userSpaceOnUse" spreadMethod="pad"><stop offset="0" stop-color="#8cc63f"/><stop offset=".13" stop-color="#8cc63f"/><stop offset=".32" stop-color="#54b948"/><stop offset=".6" stop-color="#00a651"/><stop offset=".86" stop-color="#005826"/><stop offset="1" stop-color="#005826"/></linearGradient><linearGradient id="b" x1="0" x2="1" y1="0" y2="0" gradientTransform="scale(12.71464 -12.71464) rotate(-60 -36.62 -63.68)" gradientUnits="userSpaceOnUse" spreadMethod="pad"><stop offset="0" stop-color="#f0f0f2"/><stop offset=".03" stop-color="#f0f0f2"/><stop offset=".9" stop-color="#243444"/><stop offset="1" stop-color="#243444"/></linearGradient><clipPath id="e" clipPathUnits="userSpaceOnUse"><path d="m465.56 826.54-4.97-4.96h6.88l1.43-.01c.67-.02 1.3-.09 1.95-.3.86-.3 1.62-.84 2.14-1.58.45-.63.73-1.38.88-2.13v4.46c0 2.26-1.42 4.52-4.26 4.52z"/></clipPath><clipPath id="c" clipPathUnits="userSpaceOnUse"><path d="M439.37 832.32s26.19-26.08 28.15-28.05c2.8-2.8 6.34.68 6.34.68l-27.43 27.37z"/></clipPath><clipPath id="a" clipPathUnits="userSpaceOnUse"><path d="m468.9 809.9 4.97-4.96v12.61c-.15.76-.42 1.5-.87 2.14a4.32 4.32 0 0 1-2.15 1.57c-.64.22-1.28.29-1.95.31V809.9"/></clipPath></defs><g clip-path="url(#a)" transform="matrix(3.52778 0 0 -3.52778 -1550 2936.25)"><path fill="url(#b)" d="m468.9 809.9 4.97-4.96v12.61c-.15.76-.42 1.5-.87 2.14a4.32 4.32 0 0 1-2.15 1.57c-.64.22-1.28.29-1.95.31V809.9"/></g><g clip-path="url(#c)" transform="matrix(3.52778 0 0 -3.52778 -1550 2936.25)"><path fill="url(#d)" d="M439.37 832.32s26.19-26.08 28.15-28.05c2.8-2.8 6.34.68 6.34.68l-27.43 27.37z"/></g><g clip-path="url(#e)" transform="matrix(3.52778 0 0 -3.52778 -1550 2936.25)"><path fill="url(#f)" d="m465.56 826.54-4.97-4.96h6.88l1.43-.01c.67-.02 1.3-.09 1.95-.3.86-.3 1.62-.84 2.14-1.58.45-.63.73-1.38.88-2.13v4.46c0 2.26-1.42 4.52-4.26 4.52z"/></g></svg>