<svg xmlns="http://www.w3.org/2000/svg" viewBox="0 0 675.71 675.71"><path fill="#3cb54a" d="M0 0s371.23 370.69 556.53 555.81c-3.74 4.77-24.11 29.79-59.88 33.55-27.88 2.93-48.63-8.81-55.22-12.91Q220.78 355.82.14 135.16H0v540.55h675.71V0Zm397.56 147h95.48a81.11 81.11 0 0 1 64.52 70.7l.48 102.39a97.91 97.91 0 0 0-25.26-50.7c-12.63-13.37-32.84-22.25-47.71-26.32-2.49-.69-5.24-1.31-7.35-1.73a49.84 49.84 0 0 0-8.59-.8c-59.87-.34-104.09.8-164 .46Zm65 296.77q.51-94.46 1-188.9c13.44 1 41.83 5.35 61.42 27.35 11.48 12.89 17.39 26.94 23.32 46.78 6.48 21.65 7 40.65 7.65 53.87l2.58 152.25Z"/></svg>