<svg xmlns="http://www.w3.org/2000/svg" class="ibm-strip__logo__svg" width="60" height="60" aria-label="IBM Logo"><path d="M0 18.5v2h12v-2zm13 0v2h17s-1.736-2-4.036-2zm20 0v2h10l-.594-2zm17.599 0l-.599 2h10v-2zM0 21.5v2h12v-2zm13 0v2h19s-.222-1.541-.609-2zm20 0v2h11l-.545-2zm16.547 0l-.547 2h11v-2zM3 24.5v2h5v-2zm14 0v2h5v-2zm10 0v2h4.702s.298-1.056.298-2zm9 0v2h9l-.6-2zm12.6 0l-.6 2h9v-2zM3 27.5v2h5v-2zm14 0v2h12.61s1.054-1.026 1.39-2zm19 0v2h5.298v-1.113l.337 1.113h9.706l.36-1.113V29.5H57v-2h-9.946l-.528 1.694-.53-1.694zm-33 3v2h5v-2zm14 0v2h14c-.336-.97-1.39-2-1.39-2zm19 0v2h5v-2zm6 0l.676 2h7.681l.643-2zm10 0v2h5v-2zm-49 3v2h5v-2zm14 0v2h5v-2zm10 0v2h5c0-.944-.298-2-.298-2zm9 0v2h5v-2zm7 0l.71 2h5.575l.715-2zm9 0v2h5v-2zm-52 3v2h12v-2zm13 0v2h18.391c.387-.458.609-2 .609-2zm20 0v2h8v-2zm11 0l.858 2h3.337l.805-2zm8 0v2h8v-2zm-52 3v2h12v-2zm13 0v2h12.964c2.3 0 4.036-2 4.036-2zm20 0v2h8v-2zm12 0l1.371 1.997.236.003 1.393-2zm7 0v2h8v-2z"/></svg>