<svg xmlns="http://www.w3.org/2000/svg" width="24.375" height="24.375"><path d="M23.93 8.674c-.693 2.067-2.205 4.595-4.535 7.584-3.315 4.295-6.119 6.443-8.413 6.443-1.42 0-2.624-1.307-3.606-3.924L5.41 11.582c-.73-2.615-1.512-3.924-2.349-3.924-.182 0-.82.383-1.913 1.145L0 7.33a309.08 309.08 0 003.558-3.163c1.604-1.383 2.809-2.11 3.612-2.183 1.897-.182 3.065 1.111 3.503 3.88.474 2.986.802 4.844.986 5.57.547 2.48 1.148 3.716 1.806 3.716.51 0 1.276-.803 2.298-2.41 1.021-1.608 1.568-2.83 1.642-3.672.146-1.387-.401-2.082-1.642-2.082-.583 0-1.185.134-1.804.4 1.198-3.915 3.487-5.815 6.866-5.707 2.256.066 3.438 1.387 3.546 3.961.04 1.434-.193 2.253-.441 3.035z" fill="#2b98ce" fill-rule="evenodd"/></svg>