<?xml version="1.0" encoding="UTF-8" standalone="no"?>
<svg
   width="17.126245"
   height="26.503906"
   viewBox="0 0 17.126245 26.503906"
   fill="none"
   version="1.1"
   id="svg1"
   xmlns="http://www.w3.org/2000/svg"
   xmlns:svg="http://www.w3.org/2000/svg">
  <defs
     id="defs1" />
  <path
     d="m 16.642578,-1.0375829e-7 c -0.285,0 -0.632453,0.24073400375829 -1.564453,1.05273400375829 -0.331,0.12 -0.690328,0.02878 -1.111328,0.675782 -2.375,3.413 -4.2256873,16.1773281 -5.8046873,19.8613281 -0.316,-1.594 -0.976422,-11.9695471 -1.232422,-14.8105471 -0.03,-0.526 0.03125,-1.188125 0.03125,-1.578125 0,-2.616 -0.5705,-3.939453 -3.1875002,-3.939453 -1.323,0 -2.6302656,0.481515 -3.32226564,1.353515 -0.33,0.45 -0.451171897491576,0.78275 -0.451171897491576,1.59375 0,5.428 1.293328137491576,14.3278601 2.736328137491576,20.1308601 0.451,1.82 2.0744219,2.164062 3.6074216,2.164062 0.722,0 1.443797,-0.09056 2.466797,-0.601562 3.5470003,-1.73 4.4951093,-6.450157 5.4121093,-11.035157 0.165,-0.827 0.991813,-4.825687 1.382813,-6.9296871 0.526,-2.872 1.127281,-6.118641 1.488281,-7.306641 0.12,-0.36 -0.106172,-0.63085900375829 -0.451172,-0.63085900375829 z"
     style="fill:#007782"
     id="path2" />
</svg>
