<svg xmlns="http://www.w3.org/2000/svg" cursor="default" style="position:relative;width:903px;height:667px;margin:auto;user-select:none" viewBox="0 0 903 667"><g fill-rule="evenodd"><path fill="#fff" d="M423.682 69.221c-2.33.616-6.132 3.153-9.759 6.51-8.449 7.823-11.608 14.835-32.108 71.269a689.911 689.911 0 0 1-3.339 9c-3.782 9.87-7.906 21.096-9.552 26-1.015 3.025-3.464 10-5.443 15.5-3.987 11.083-6.22 18.522-10.585 35.276-1.615 6.202-3.636 13.333-4.489 15.847-.854 2.513-2.151 7.339-2.883 10.724-.732 3.384-2.079 8.853-2.995 12.153-.915 3.3-2.997 11.4-4.627 18s-3.601 14.475-4.38 17.5c-1.241 4.819-2.371 10.242-5.521 26.5-1.674 8.638-6.196 34.295-6.962 39.5-1.615 10.971-5.162 34.605-5.842 38.926-.854 5.424-3.197 6.786-3.197 1.857 0-1.86-.409-3.81-.908-4.333-.5-.522-1.201-5-1.559-9.95-.358-4.95-.859-11.925-1.113-15.5-.255-3.575-1.346-10.684-2.425-15.798-1.08-5.113-1.899-9.613-1.82-10 .078-.386-.091-1.377-.377-2.202-1.873-5.406-4.3-16.192-5.963-26.5-1.064-6.6-3.028-18.075-4.364-25.5-1.335-7.425-3.135-18.225-3.998-24-2.252-15.059-3.392-18.772-6.909-22.5-6.188-6.562-17.613-5.166-22.266 2.719-1.072 1.818-4.789 12.074-8.259 22.793-9.756 30.135-13.512 41.406-18.493 55.488C225.833 360.305 222 372.181 222 374.271c0 3.61 3.912 8.611 7.514 9.605 4.437 1.225 10.212-.128 13.046-3.056 2.542-2.627 6.283-11.116 10.716-24.32 1.662-4.95 3.855-10.908 4.873-13.239 1.018-2.332 1.851-4.574 1.851-4.984 0-1.771 5.606-11.272 6.652-11.275 1.341-.002 3.348 5.212 3.348 8.697 0 1.32.673 3.702 1.495 5.292 1.489 2.879 2.9 10.729 4.496 25.009.461 4.125 1.568 11.775 2.46 17 1.537 8.999 3.319 20.475 7.068 45.5.906 6.05 2.078 13.7 2.605 17 .834 5.226 1.247 8.485 2.288 18.05.123 1.128.487 2.478.809 3 .646 1.046 2.82 12.172 2.593 13.266-.078.376.114 1.809.428 3.184.313 1.375 1.324 7 2.246 12.5 2.091 12.472 4.172 22.916 5.494 27.574 2.145 7.557 10.131 10.908 16.99 7.131 7.481-4.12 7.885-6 17.012-79.205 1.796-14.404 3.322-22.472 4.787-25.307.229-.443.556-4.554.725-9.135.193-5.205.871-9.217 1.808-10.694 2.188-3.45 2.993-8.441 1.738-10.786-1.142-2.134-.604-6.721 2.395-20.424.824-3.766 1.444-7.141 1.376-7.5-.326-1.736 1.557-11.265 2.319-11.735.477-.296.882-3.098.9-6.228.019-3.41.62-6.469 1.5-7.632.807-1.068 1.468-3.543 1.468-5.501 0-3.152 1.326-10.128 4.003-21.058.471-1.925 1.594-6.82 2.495-10.879 1.886-8.495 8.913-27.365 11.646-31.275 1.021-1.46 1.872-4.16 1.891-6 .06-5.702 4.623-23.35 7.451-28.819.914-1.767 1.454-3.42 1.202-3.673-.253-.253.187-2.573.979-5.157.791-2.583 1.818-6.497 2.282-8.697.861-4.089 5.157-16.609 7.548-22 .732-1.65 1.853-4.684 2.492-6.742.638-2.058 2.252-5.794 3.586-8.303 1.334-2.508 2.425-5.371 2.425-6.36 0-1.904 6.757-18.527 12.639-31.095 4.203-8.979 12.919-22.261 17.532-26.715 8.707-8.409 10.239-10.185 13.612-15.785 3.243-5.383 3.613-6.72 3.602-13-.017-10.157-3.452-15.796-11.885-19.51-5.445-2.398-10.263-2.973-14.818-1.769M70.492 329c0 142.175.116 200.337.258 129.25.142-71.088.142-187.413 0-258.5-.142-71.088-.258-12.925-.258 129.25M627 170.27c-5.324 1.754-12.626 9.558-13.438 14.362-.788 4.664.554 8.825 3.324 10.307 3.202 1.714 8.895 1.223 12.389-1.067 5.24-3.436 12.781-14.26 12.703-18.237-.093-4.722-8.159-7.612-14.978-5.365m89.5 7.62c-5.86 1.528-11.612 5.249-17.765 11.494-8.89 9.024-9.643 9.364-20.785 9.393-20.219.052-26.134 7.012-27.386 32.223-.368 7.425-.845 16.65-1.06 20.5-1.19 21.367-1.655 41.537-1.024 44.409.535 2.434 1.563 3.629 4.002 4.648 3.632 1.518 6.547 1 13.046-2.317 4.759-2.429 6.527-4.325 9.447-10.129 1.938-3.853 2.186-5.805 2.032-16-.202-13.303.364-23.284 1.415-24.984.398-.645.627-2.4.507-3.9-.119-1.5.021-3.402.31-4.227 1.055-3.011 2.686-9.587 3.225-13 .708-4.486 9.232-14.696 14.86-17.797 2.742-1.511 5.024-2.091 6.672-1.695 4.935 1.185 5.264 2.63 4.556 19.992-1.796 44.063-1.8 46.12-.102 49.403.887 1.715 2.499 3.673 3.581 4.349 1.083.676 1.969 1.557 1.969 1.958 0 .729-10.528 7.79-11.615 7.79-.317 0-1.771.83-3.231 1.844-1.46 1.014-5.579 3.42-9.154 5.346-11.504 6.197-39.421 22.022-42 23.807-2.396 1.66-11.463 6.705-21 11.689-7.377 3.854-19.475 11.418-19.833 12.4-.184.503-.723.914-1.198.914s-5.157 2.704-10.403 6.01c-5.247 3.305-11.149 6.913-13.117 8.018-1.967 1.105-4.631 2.701-5.92 3.545-1.351.885-2.59 1.137-2.926.594-.754-1.22 1.155-46.39 2.374-56.167.514-4.125.955-10.878.979-15.007.024-4.128.489-9.058 1.033-10.955 1.185-4.131 1.651-28.592.606-31.799-1.708-5.242-11.278-6.799-18.095-2.944-6.49 3.671-7.143 6.139-9.479 35.837-2.67 33.932-4.848 52.013-6.851 56.868-1.308 3.172-6.01 8.417-8.854 9.878-1.202.617-4.228 1.122-6.725 1.122-4.085 0-4.703-.317-6.176-3.164-1.377-2.663-1.537-5.238-1.009-16.25.345-7.197.595-15.258.555-17.912-.069-4.686 2.387-14.201 4.162-16.124.482-.523.877-1.734.877-2.693 0-2.351 3.486-8.337 8.204-14.087 7.176-8.745 8.986-17.289 4.313-20.351-2.141-1.403-3.181-1.459-7.555-.41-14.139 3.392-27.198 18.842-33.8 39.991-2.598 8.322-4.311 28.487-3.987 46.94.283 16.158.584 19.075 2.325 22.54 2.358 4.694 8.45 9.097 13.761 9.946 7.879 1.26 26.576-3.378 30.327-7.523.947-1.047 2.552-1.903 3.567-1.903 1.616 0 1.845.861 1.845 6.932 0 6.688-.114 7.012-3.25 9.204-1.788 1.25-12.025 8.78-22.75 16.734-29.063 21.555-32.902 24.383-40 29.472-3.575 2.563-11.225 8.529-17 13.258a3372.493 3372.493 0 0 1-17.5 14.233c-3.85 3.099-12.012 9.917-18.138 15.151-6.126 5.234-13.776 11.7-17 14.37-10.045 8.319-20.46 17.697-31.222 28.116-27.849 26.96-30.5 30.945-26.676 40.097 1.798 4.304 3.022 5.533 7.687 7.721 4.901 2.298 10.391 2.158 14.479-.368 1.852-1.145 13.977-13.182 26.945-26.75 25.752-26.944 47.781-48.315 59.445-57.668 4.114-3.299 7.705-6.255 7.98-6.57.275-.314 5.45-4.552 11.5-9.416 6.05-4.864 11.225-9.108 11.5-9.43 2.004-2.348 39.589-31.748 47.18-36.906 2.574-1.749 5.162-3.18 5.75-3.18 1.407 0 1.392 37.793-.038 91-1.473 54.829-1.458 56.503.589 63.405 2.121 7.151 5.095 10.125 12.191 12.188 5.193 1.51 5.478 1.485 10.764-.935 3.935-1.802 6.157-3.637 8.069-6.667 1.452-2.299 2.423-4.396 2.159-4.661-.265-.264-.11-1.773.343-3.353.602-2.099.425-3.203-.656-4.101-1.377-1.143-1.325-3.175.184-7.107.299-.78-.627-2.589-2.059-4.02-2.524-2.525-2.554-2.697-.991-5.72 1.368-2.646 1.423-3.679.36-6.823-.689-2.038-1.723-4.156-2.299-4.706-.575-.55-1.08-4.15-1.121-8-.041-3.85-.558-7.9-1.149-9-1.106-2.058-1.029-33.559.223-91.5l.616-28.5 3.245-3c1.785-1.65 5.022-4.348 7.193-5.995 6.018-4.567 38.388-25.218 52.447-33.46 6.875-4.031 14.178-8.39 16.229-9.687 2.05-1.297 3.898-2.358 4.106-2.358.208 0 4.38-2.311 9.272-5.136 4.891-2.825 12.493-7.056 16.893-9.401 4.4-2.346 13.175-7.042 19.5-10.437 10.229-5.489 28.791-14.673 39.229-19.408 8.185-3.714 30.76-11.618 33.18-11.618.513 0 3.854-1.423 7.424-3.162 7.653-3.729 13.328-9.076 16.266-15.326 2.293-4.878 2.107-7.127-1.011-12.175-1.767-2.862-2.569-3.229-8.407-3.855-3.55-.38-7.925-.368-9.722.027-1.797.395-9.708 4.042-17.581 8.104-7.872 4.063-15.383 7.387-16.691 7.387-2.902 0-5.393-2.599-6.816-7.112-1.364-4.325-2.062-33.722-1.069-45.016.417-4.746.367-10.141-.112-11.99-.537-2.07-.492-3.97.117-4.945 1.139-1.823.217-7.745-2.02-12.983-2.597-6.081-9.788-9.02-17.287-7.064m-99.998 44.685c-7.213 3.761-11.228 10.348-12.558 20.604-2.198 16.937-6.078 56.163-6.61 66.821-.536 10.737-.438 11.623 1.485 13.35 1.194 1.072 3.565 1.85 5.641 1.85 4.994 0 14.309-5.725 17.82-10.952 2.584-3.849 2.828-5.058 3.213-15.956.23-6.486.62-14.267.867-17.292.247-3.025.476-10.907.508-17.514.033-6.608.76-16.677 1.615-22.375 1.264-8.414 1.327-11.041.333-13.986-2.108-6.244-6.178-7.749-12.314-4.55M411.5 259.017c-4.485.969-8.54 3.374-13 7.709-4.816 4.682-8.057 12.679-6.644 16.396 2.464 6.48 8.165 6.962 16.547 1.399 10.235-6.794 13.513-13.725 10.534-22.272-1.186-3.401-3.002-4.19-7.437-3.232m56 33.574c-4.4 1.962-11.15 4.24-15 5.063-7.933 1.695-14.441 5.081-16.858 8.77-3.879 5.919-4.723 10.985-6.177 37.076-.307 5.5-.943 12.475-1.413 15.5-.471 3.025-.908 9.55-.971 14.5-.063 4.95-.384 10.915-.712 13.256-1.689 12.025 2.591 20.999 9.481 19.881 8.728-1.416 17.448-8.794 19.229-16.268.507-2.128 1.371-12.644 1.92-23.369.55-10.725 1.418-21.3 1.93-23.5 2.771-11.906 3.678-14.403 6.803-18.734 1.878-2.604 4.845-5.742 6.592-6.972 1.747-1.23 4.296-3.262 5.666-4.516 1.369-1.253 2.795-2.278 3.168-2.278 1.448 0 4.903-6.993 5.022-10.166.232-6.161-4.357-11.875-9.495-11.822-.652.007-4.785 1.617-9.185 3.579m-76.249 32.438c-9.459 5.425-12.925 13.274-14.34 32.471-.526 7.15-1.422 17.725-1.989 23.5-.567 5.775-1.28 19.5-1.583 30.5-.537 19.465-.494 20.06 1.594 22.25 3.027 3.176 7.68 2.917 13.121-.729 11.868-7.952 11.389-7.47 11.544-11.617.393-10.538 2.51-34.363 3.368-37.904.533-2.2 1.249-8.05 1.591-13 .342-4.95 1.268-12.629 2.058-17.065 1.866-10.476 1.374-25.276-.957-28.835-2.39-3.646-7.569-3.492-14.407.429M337.25 650.75c95.562.141 251.937.141 347.5 0 95.562-.141 17.375-.256-173.75-.256s-269.313.115-173.75.256"/><path fill="#e10a0a" d="M154.5 8.869c-10.919 4.551-16.29 9.506-20.951 19.324L130 35.671v293.678c0 174.035.37 294.386.908 295.415.5.955 2.138 4.211 3.64 7.236 4.299 8.655 14.225 15.998 23.952 17.72 1.65.292 3.563.98 4.25 1.528.85.678 1.25.637 1.25-.128 0-.832 91.56-1.123 350.729-1.117l350.728.008 5.052-2.472c6.667-3.261 12.524-8.414 14.981-13.179 1.095-2.123 2.445-4.181 3-4.574 1.395-.985 1.405-600.577.01-601.572-.55-.393-1.875-2.289-2.944-4.214-2.416-4.35-8.846-10.644-11.823-11.573-1.228-.383-2.458-.973-2.733-1.312-3.047-3.749 10.407-3.608-359-3.764-327.931-.139-353.789-.029-357.5 1.518M97 37.179c0 .451-.749.821-1.664.821C93.089 38 86 41.183 86 42.192c0 .445-.637.808-1.416.808-.779 0-2.905 1.913-4.724 4.25-1.82 2.337-3.579 4.475-3.909 4.75-.621.516-2.682 4.332-5.079 9.401-1.946 4.116-2.067 534.701-.122 535.349.688.229 1.25 1.279 1.25 2.333 0 1.055.45 1.917 1 1.917s1.001.563 1.001 1.25c.001 1.255 2.44 4.4 8.194 10.568 4.145 4.443 11.729 7.961 18.915 8.774l5.89.666V35.901l-5 .228c-2.75.126-5 .598-5 1.05M39.78 65.525c-4.238.844-8.486 2.526-11.5 4.556C22.749 73.804 15 81.736 15 83.673c0 .73-.378 1.327-.84 1.327-.462 0-1.474 1.912-2.25 4.25-2.084 6.28-2.121 474.944-.038 479.349 3.459 7.316 4.771 9.206 9.489 13.673C27.871 588.436 36.933 593 42.66 593H47V328.5c0-145.475-.112-264.458-.25-264.406-.138.052-3.274.696-6.97 1.431m383.902 3.696c-2.33.616-6.132 3.153-9.759 6.51-8.449 7.823-11.608 14.835-32.108 71.269a689.911 689.911 0 0 1-3.339 9c-3.782 9.87-7.906 21.096-9.552 26-1.015 3.025-3.464 10-5.443 15.5-3.987 11.083-6.22 18.522-10.585 35.276-1.615 6.202-3.636 13.333-4.489 15.847-.854 2.513-2.151 7.339-2.883 10.724-.732 3.384-2.079 8.853-2.995 12.153-.915 3.3-2.997 11.4-4.627 18s-3.601 14.475-4.38 17.5c-1.241 4.819-2.371 10.242-5.521 26.5-1.674 8.638-6.196 34.295-6.962 39.5-1.615 10.971-5.162 34.605-5.842 38.926-.854 5.424-3.197 6.786-3.197 1.857 0-1.86-.409-3.81-.908-4.333-.5-.522-1.201-5-1.559-9.95-.358-4.95-.859-11.925-1.113-15.5-.255-3.575-1.346-10.684-2.425-15.798-1.08-5.113-1.899-9.613-1.82-10 .078-.386-.091-1.377-.377-2.202-1.873-5.406-4.3-16.192-5.963-26.5-1.064-6.6-3.028-18.075-4.364-25.5-1.335-7.425-3.135-18.225-3.998-24-2.252-15.059-3.392-18.772-6.909-22.5-6.188-6.562-17.613-5.166-22.266 2.719-1.072 1.818-4.789 12.074-8.259 22.793-9.756 30.135-13.512 41.406-18.493 55.488C225.833 360.305 222 372.181 222 374.271c0 3.61 3.912 8.611 7.514 9.605 4.437 1.225 10.212-.128 13.046-3.056 2.542-2.627 6.283-11.116 10.716-24.32 1.662-4.95 3.855-10.908 4.873-13.239 1.018-2.332 1.851-4.574 1.851-4.984 0-1.771 5.606-11.272 6.652-11.275 1.341-.002 3.348 5.212 3.348 8.697 0 1.32.673 3.702 1.495 5.292 1.489 2.879 2.9 10.729 4.496 25.009.461 4.125 1.568 11.775 2.46 17 1.537 8.999 3.319 20.475 7.068 45.5.906 6.05 2.078 13.7 2.605 17 .834 5.226 1.247 8.485 2.288 18.05.123 1.128.487 2.478.809 3 .646 1.046 2.82 12.172 2.593 13.266-.078.376.114 1.809.428 3.184.313 1.375 1.324 7 2.246 12.5 2.091 12.472 4.172 22.916 5.494 27.574 2.145 7.557 10.131 10.908 16.99 7.131 7.481-4.12 7.885-6 17.012-79.205 1.796-14.404 3.322-22.472 4.787-25.307.229-.443.556-4.554.725-9.135.193-5.205.871-9.217 1.808-10.694 2.188-3.45 2.993-8.441 1.738-10.786-1.142-2.134-.604-6.721 2.395-20.424.824-3.766 1.444-7.141 1.376-7.5-.326-1.736 1.557-11.265 2.319-11.735.477-.296.882-3.098.9-6.228.019-3.41.62-6.469 1.5-7.632.807-1.068 1.468-3.543 1.468-5.501 0-3.152 1.326-10.128 4.003-21.058.471-1.925 1.594-6.82 2.495-10.879 1.886-8.495 8.913-27.365 11.646-31.275 1.021-1.46 1.872-4.16 1.891-6 .06-5.702 4.623-23.35 7.451-28.819.914-1.767 1.454-3.42 1.202-3.673-.253-.253.187-2.573.979-5.157.791-2.583 1.818-6.497 2.282-8.697.861-4.089 5.157-16.609 7.548-22 .732-1.65 1.853-4.684 2.492-6.742.638-2.058 2.252-5.794 3.586-8.303 1.334-2.508 2.425-5.371 2.425-6.36 0-1.904 6.757-18.527 12.639-31.095 4.203-8.979 12.919-22.261 17.532-26.715 8.707-8.409 10.239-10.185 13.612-15.785 3.243-5.383 3.613-6.72 3.602-13-.017-10.157-3.452-15.796-11.885-19.51-5.445-2.398-10.263-2.973-14.818-1.769M70.492 329c0 142.175.116 200.337.258 129.25.142-71.088.142-187.413 0-258.5-.142-71.088-.258-12.925-.258 129.25M627 170.27c-5.324 1.754-12.626 9.558-13.438 14.362-.788 4.664.554 8.825 3.324 10.307 3.202 1.714 8.895 1.223 12.389-1.067 5.24-3.436 12.781-14.26 12.703-18.237-.093-4.722-8.159-7.612-14.978-5.365m89.5 7.62c-5.86 1.528-11.612 5.249-17.765 11.494-8.89 9.024-9.643 9.364-20.785 9.393-20.219.052-26.134 7.012-27.386 32.223-.368 7.425-.845 16.65-1.06 20.5-1.19 21.367-1.655 41.537-1.024 44.409.535 2.434 1.563 3.629 4.002 4.648 3.632 1.518 6.547 1 13.046-2.317 4.759-2.429 6.527-4.325 9.447-10.129 1.938-3.853 2.186-5.805 2.032-16-.202-13.303.364-23.284 1.415-24.984.398-.645.627-2.4.507-3.9-.119-1.5.021-3.402.31-4.227 1.055-3.011 2.686-9.587 3.225-13 .708-4.486 9.232-14.696 14.86-17.797 2.742-1.511 5.024-2.091 6.672-1.695 4.935 1.185 5.264 2.63 4.556 19.992-1.796 44.063-1.8 46.12-.102 49.403.887 1.715 2.499 3.673 3.581 4.349 1.083.676 1.969 1.557 1.969 1.958 0 .729-10.528 7.79-11.615 7.79-.317 0-1.771.83-3.231 1.844-1.46 1.014-5.579 3.42-9.154 5.346-11.504 6.197-39.421 22.022-42 23.807-2.396 1.66-11.463 6.705-21 11.689-7.377 3.854-19.475 11.418-19.833 12.4-.184.503-.723.914-1.198.914s-5.157 2.704-10.403 6.01c-5.247 3.305-11.149 6.913-13.117 8.018-1.967 1.105-4.631 2.701-5.92 3.545-1.351.885-2.59 1.137-2.926.594-.754-1.22 1.155-46.39 2.374-56.167.514-4.125.955-10.878.979-15.007.024-4.128.489-9.058 1.033-10.955 1.185-4.131 1.651-28.592.606-31.799-1.708-5.242-11.278-6.799-18.095-2.944-6.49 3.671-7.143 6.139-9.479 35.837-2.67 33.932-4.848 52.013-6.851 56.868-1.308 3.172-6.01 8.417-8.854 9.878-1.202.617-4.228 1.122-6.725 1.122-4.085 0-4.703-.317-6.176-3.164-1.377-2.663-1.537-5.238-1.009-16.25.345-7.197.595-15.258.555-17.912-.069-4.686 2.387-14.201 4.162-16.124.482-.523.877-1.734.877-2.693 0-2.351 3.486-8.337 8.204-14.087 7.176-8.745 8.986-17.289 4.313-20.351-2.141-1.403-3.181-1.459-7.555-.41-14.139 3.392-27.198 18.842-33.8 39.991-2.598 8.322-4.311 28.487-3.987 46.94.283 16.158.584 19.075 2.325 22.54 2.358 4.694 8.45 9.097 13.761 9.946 7.879 1.26 26.576-3.378 30.327-7.523.947-1.047 2.552-1.903 3.567-1.903 1.616 0 1.845.861 1.845 6.932 0 6.688-.114 7.012-3.25 9.204-1.788 1.25-12.025 8.78-22.75 16.734-29.063 21.555-32.902 24.383-40 29.472-3.575 2.563-11.225 8.529-17 13.258a3372.493 3372.493 0 0 1-17.5 14.233c-3.85 3.099-12.012 9.917-18.138 15.151-6.126 5.234-13.776 11.7-17 14.37-10.045 8.319-20.46 17.697-31.222 28.116-27.849 26.96-30.5 30.945-26.676 40.097 1.798 4.304 3.022 5.533 7.687 7.721 4.901 2.298 10.391 2.158 14.479-.368 1.852-1.145 13.977-13.182 26.945-26.75 25.752-26.944 47.781-48.315 59.445-57.668 4.114-3.299 7.705-6.255 7.98-6.57.275-.314 5.45-4.552 11.5-9.416 6.05-4.864 11.225-9.108 11.5-9.43 2.004-2.348 39.589-31.748 47.18-36.906 2.574-1.749 5.162-3.18 5.75-3.18 1.407 0 1.392 37.793-.038 91-1.473 54.829-1.458 56.503.589 63.405 2.121 7.151 5.095 10.125 12.191 12.188 5.193 1.51 5.478 1.485 10.764-.935 3.935-1.802 6.157-3.637 8.069-6.667 1.452-2.299 2.423-4.396 2.159-4.661-.265-.264-.11-1.773.343-3.353.602-2.099.425-3.203-.656-4.101-1.377-1.143-1.325-3.175.184-7.107.299-.78-.627-2.589-2.059-4.02-2.524-2.525-2.554-2.697-.991-5.72 1.368-2.646 1.423-3.679.36-6.823-.689-2.038-1.723-4.156-2.299-4.706-.575-.55-1.08-4.15-1.121-8-.041-3.85-.558-7.9-1.149-9-1.106-2.058-1.029-33.559.223-91.5l.616-28.5 3.245-3c1.785-1.65 5.022-4.348 7.193-5.995 6.018-4.567 38.388-25.218 52.447-33.46 6.875-4.031 14.178-8.39 16.229-9.687 2.05-1.297 3.898-2.358 4.106-2.358.208 0 4.38-2.311 9.272-5.136 4.891-2.825 12.493-7.056 16.893-9.401 4.4-2.346 13.175-7.042 19.5-10.437 10.229-5.489 28.791-14.673 39.229-19.408 8.185-3.714 30.76-11.618 33.18-11.618.513 0 3.854-1.423 7.424-3.162 7.653-3.729 13.328-9.076 16.266-15.326 2.293-4.878 2.107-7.127-1.011-12.175-1.767-2.862-2.569-3.229-8.407-3.855-3.55-.38-7.925-.368-9.722.027-1.797.395-9.708 4.042-17.581 8.104-7.872 4.063-15.383 7.387-16.691 7.387-2.902 0-5.393-2.599-6.816-7.112-1.364-4.325-2.062-33.722-1.069-45.016.417-4.746.367-10.141-.112-11.99-.537-2.07-.492-3.97.117-4.945 1.139-1.823.217-7.745-2.02-12.983-2.597-6.081-9.788-9.02-17.287-7.064m-99.998 44.685c-7.213 3.761-11.228 10.348-12.558 20.604-2.198 16.937-6.078 56.163-6.61 66.821-.536 10.737-.438 11.623 1.485 13.35 1.194 1.072 3.565 1.85 5.641 1.85 4.994 0 14.309-5.725 17.82-10.952 2.584-3.849 2.828-5.058 3.213-15.956.23-6.486.62-14.267.867-17.292.247-3.025.476-10.907.508-17.514.033-6.608.76-16.677 1.615-22.375 1.264-8.414 1.327-11.041.333-13.986-2.108-6.244-6.178-7.749-12.314-4.55M411.5 259.017c-4.485.969-8.54 3.374-13 7.709-4.816 4.682-8.057 12.679-6.644 16.396 2.464 6.48 8.165 6.962 16.547 1.399 10.235-6.794 13.513-13.725 10.534-22.272-1.186-3.401-3.002-4.19-7.437-3.232m56 33.574c-4.4 1.962-11.15 4.24-15 5.063-7.933 1.695-14.441 5.081-16.858 8.77-3.879 5.919-4.723 10.985-6.177 37.076-.307 5.5-.943 12.475-1.413 15.5-.471 3.025-.908 9.55-.971 14.5-.063 4.95-.384 10.915-.712 13.256-1.689 12.025 2.591 20.999 9.481 19.881 8.728-1.416 17.448-8.794 19.229-16.268.507-2.128 1.371-12.644 1.92-23.369.55-10.725 1.418-21.3 1.93-23.5 2.771-11.906 3.678-14.403 6.803-18.734 1.878-2.604 4.845-5.742 6.592-6.972 1.747-1.23 4.296-3.262 5.666-4.516 1.369-1.253 2.795-2.278 3.168-2.278 1.448 0 4.903-6.993 5.022-10.166.232-6.161-4.357-11.875-9.495-11.822-.652.007-4.785 1.617-9.185 3.579m-76.249 32.438c-9.459 5.425-12.925 13.274-14.34 32.471-.526 7.15-1.422 17.725-1.989 23.5-.567 5.775-1.28 19.5-1.583 30.5-.537 19.465-.494 20.06 1.594 22.25 3.027 3.176 7.68 2.917 13.121-.729 11.868-7.952 11.389-7.47 11.544-11.617.393-10.538 2.51-34.363 3.368-37.904.533-2.2 1.249-8.05 1.591-13 .342-4.95 1.268-12.629 2.058-17.065 1.866-10.476 1.374-25.276-.957-28.835-2.39-3.646-7.569-3.492-14.407.429M337.169 651.75c94.968.141 250.668.141 346 0s17.631-.256-172.669-.256-268.299.115-173.331.256"/></g></svg>