<svg xmlns="http://www.w3.org/2000/svg" viewBox="0 0 96 96" fill="#e10a0a"><path d="M48 0a48 48 0 1 0 48 48A48 48 0 0 0 48 0zm17.09 28.71c1.44.92-2 5.06-3.1 2.37-.47-1.27 1.97-3.08 3.1-2.37zm-5 16.72c0-.37.08-.74.11-1.06.06-.65.17-1.36.22-2s.14-1.69.19-2.3c.13-1.49.06-3.52 1.41-4.6a1.64 1.64 0 0 1 1.45-.38c.46.2.16.55.35.7 0 0 0-.09.1 0a2.06 2.06 0 0 1 0 .25c.09 0 0 .72 0 .7s-.21.34 0 .42c.09.29-.24.57-.24.85h.17c.02 0-.07.18 0 .15s-.11 0-.11 0 .13.17 0 .21.06.13.07.15-.2.92-.06.77-.05.12-.05.1a3.45 3.45 0 0 1 .05.66 3.46 3.46 0 0 0 0 .8.16.16 0 0 0 .08-.06c-.09 0 0 1 0 1s-.16.19-.11.18c-.45.11.22.85.06 1s-.17-.16-.17-.16 0 .37.14.32 0 .15 0 .15-.19-.14-.22-.12c-.19.1-.06 1.31-.08 1.55a7.39 7.39 0 0 1 0 1.58c-.31 1-2.68 2.68-3.34 1.16a4.87 4.87 0 0 1-.07-2.02zm-15.14-1.82c.8-.21 1.34.54 1.43 1.19.16 1.09-1.1 1.76-1.8 2.33a3.59 3.59 0 0 0-.64.65c-.2.25-.91 1.18-.68 1.42-.16.22-.13.61-.22.89s-.11.23-.18.47a3.35 3.35 0 0 0 0 .85c0 .52-.05 1.05-.08 1.61-.08 1.72.18 3.71-1.53 4.72-2.14 1.27-2.27-.91-2.09-2.58.08-.68 0-1.39 0-2.06s.14-1.25.2-1.9a28 28 0 0 1 .34-4.4 2.55 2.55 0 0 1 1-1.59c.21-.15 1.17-.46 1.19-.49.55.09 1.39-.38 1.91-.52 0-.06 0-.06-.09 0a6 6 0 0 1 1.24-.59zm-15.58 9.27c-.06.37 0 .73-.07 1.11 0 0-.26.69-.08.59-.24.15-.33 1.13-.37 1.48-.06.56.28.61.16 1.3-.06.4-.37.8-.45 1.26a4 4 0 0 0-.16 1.27c0 .12.24.19.23.34s-.24.2-.21.14a6.35 6.35 0 0 1-.24.78 10.57 10.57 0 0 0-.22 1.48c-.07.5-.12 1.08-.18 1.59a5 5 0 0 1-.18 1.35 26 26 0 0 1-.42 3.43c-.17 1.17-.09 3-.88 4a1.59 1.59 0 0 1-1.82.46 1.78 1.78 0 0 1-.84-1.4c-.27-1.06-.41-2.06-.6-3.22-.1-.61-.2-1.33-.32-1.94-.06-.3-.09-.47-.13-.74s0-.7-.38-.75c0-.07.22-.2.2-.32s-.19-.3-.22-.51 0-.72 0-1.07c-.11-.74-.23-1.46-.33-2.22-.29-2.1-.65-4.48-1-6.68-.21-1.32-.28-2.82-.62-4.19l-.08.06c.17-.31-.13-.67-.21-.92s.05-.41 0-.52 0-.37 0-.39c-.07-.19-.21.07-.23.05s0-.93-.55-.56c-.3.2 0 .57-.41.67v.22s.12 0 .12.06-.29 0-.3 0 0 .21.06.14c.14.14-.28.68-.32.81a6.76 6.76 0 0 1-.3 1.25s-.3-.08-.15.07h.09s-.19.52-.2.53a1.08 1.08 0 0 0-.06.57 3.81 3.81 0 0 0-.38.63c-.1.23-.19.37-.29.62s-.17.72-.28.94a3 3 0 0 1-.93.58 1.49 1.49 0 0 1-1.45-.23c-1-.88 0-2.6.36-3.64.7-2.21 1.47-4.53 2.27-6.89.35-1 .69-2.12 1-3.14s.63-2.11 1.73-2.31c2-.37 2.17 2 2.38 3.36a34.94 34.94 0 0 1 .57 3.55.11.11 0 0 1 .15 0c-.18.11.11.93.12 1.18a2.83 2.83 0 0 0 .15 1 8.75 8.75 0 0 1 .13 1.25 7 7 0 0 0 .23.88c.07.25.16.43.25.72s0 .45.07.67.17.21.18.31-.1.19-.11.14a11.88 11.88 0 0 0 .52 1.92 1.47 1.47 0 0 1 .07.92c0 .11-.17.75 0 .81s.13-.1.2-.07-.22.18-.13.34.11-.09.12 0a8.43 8.43 0 0 1 .17 2.46c.22.09.19 1.22.46 1.1.42-.21.41-2.42.47-2.81.2-1.28.4-2.54.61-3.81.39-2.29.75-4.58 1.26-6.84.92-4.12 2.05-8.26 3.17-12.26.63-2.22 1.55-4.38 2.32-6.57s1.55-4.32 2.37-6.47c.63-1.62 1.21-3.62 2.82-4.49a2.68 2.68 0 0 1 2.8.26 2.72 2.72 0 0 1 1 2.24 2.35 2.35 0 0 1-.23 1.05c-.12.26-.42.52-.41.78-.06 0-.5 1-.69.8v-.07c0-.02-.19.5-.23.36s.09-.12 0-.12a5.89 5.89 0 0 0-.72.79 15.61 15.61 0 0 0-1.24 1.6 27.74 27.74 0 0 0-1.78 3.67c-.42 1-.74 2.11-1.24 3.12a15.16 15.16 0 0 0-.77 2.1c-.3.92-.57 1.91-.8 2.81-.32 1.31-.94 2.66-1.21 4.06a4.75 4.75 0 0 1-.25 1.52 4 4 0 0 0-.41.74c-.07.19-.08.4-.15.59a22.58 22.58 0 0 0-.88 2.47c-.28 1-.45 2.07-.7 3.18-.12.52-.09 1.19-.22 1.55-.07.17-.15.14-.22.32a1.63 1.63 0 0 0 0 .69c0 .27.06.6-.13.82a4.28 4.28 0 0 0-.43 1.24zm7.35-3.22a1.45 1.45 0 0 1 0 .47c0 .43-.16.92-.22 1.36-.17 1.21-.29 2.41-.42 3.63a22.17 22.17 0 0 0-.32 2.58 8 8 0 0 1 0 1.2 6.39 6.39 0 0 0-.24 1.36h.22c.17.09-.16.54-.24.23a5.52 5.52 0 0 1-1.7 1.3.94.94 0 0 1-1.34-.84 18.9 18.9 0 0 1 .1-3.68c0-.64.13-1.45.19-2 .23-1.84-.12-3.83.59-5.58a3.23 3.23 0 0 1 1.82-1.92c.5-.21 1-.28 1.35.2.12.18.1 1 .36 1 0 0-.25.21-.26.23-.06.13.12.31.14.46zm-.82-6.18a1 1 0 0 1-1.17-1 3.17 3.17 0 0 1 2-2.56c.35-.16.85-.33 1.16-.09.16.13.52.91.4 1.12s-.09.43-.28.74a4.43 4.43 0 0 1-.6.77 4.54 4.54 0 0 1-1.48 1.02zm48.59-2.59c-.22 0-.05.23-.15.37-.8 1.17-2.43 1.74-3.91 2.21a32.64 32.64 0 0 0-4.45 1.81c-2.15 1-4.24 2.2-6.34 3.35-2.35 1.3-4.67 2.72-7 4.13-1.67 1-3.13 2-4.64 3.07-.39.27-1.05.74-1.13 1.1a3.4 3.4 0 0 0 0 .85.88.88 0 0 0 .07.29c0 .14-.21.22-.21.37s.13 0 .12 0a4.65 4.65 0 0 0 0 1.49v.19s0-.08-.11-.06c.12 0-.06 2.57 0 2.59a.26.26 0 0 1 .15.25s-.2.23-.23.27.17 0 .15 0a1.87 1.87 0 0 0 0 .4c-.07.15-.06.41-.14.57 0 0 0 1.3-.07 1.21a.87.87 0 0 1 .14.47 4.09 4.09 0 0 0-.09.61s.06-.11.1-.1-.09.2-.09.22.06 0 .08 0 0 .43.07.35c-.14.17-.22.13-.28.33 0 0 .06.31 0 .32s0-.07.1 0a.18.18 0 0 1-.05.07c.06 0 .38.15.16.19s-.26 0 0 .21c0 .08-.05.11-.13.09s.15.12.1.25-.2.09-.24.14.2 0 .21 0-.08.06-.09.08c0 .21-.13.44 0 .66 0 .07.14-.09.13-.05s-.1.25 0 .31.06-.11.11-.08-.1.16-.1.22.11-.07.12-.07c-.05.19-.29.21-.3.39a3.59 3.59 0 0 0 .22.44c-.18.18-.29 0-.24.31s.12 0 .17 0 .15.28.17.32c-.15.18-.26.21-.2.53 0 .09.31.43.32.36 0 .09-.29.31-.2.42a1.61 1.61 0 0 0 .22 0c-.16-.07 0 .28.05.29s-.06.34-.05.37.06.18 0 .28 0 .06 0 .09v-.09c-.19 0 0 .89.12.77s0-.11.08-.13 0 .46 0 .4c.05.2.18.6.28.53.11.09-.23.33-.1.44-.09.08-.24 0-.32.08l.08.08c.11-.1.08 0 .21 0-.08.1-.2 0-.25.08s0 .9.29.45c.1 0 0 .21.06.24.06-.15.1.08.19.1s-.17 0-.25.07.61.26.31.3v-.1c0-.02-.14.09-.15.1.22.28-.12.11-.19.13s.15.29.15.29 0 .39.06.33a.07.07 0 0 0 .07-.06s-.06.3 0 .28.19.1.23 0a3.11 3.11 0 0 1-.25.38s.09.08.11.08c.09.18-.38.13.08.41 0 0-.3.22-.34.28-.36.42-.42.75-1 1a2 2 0 0 1-2.69-1 10.31 10.31 0 0 1-.31-4c.11-3.38.2-6.6.21-9.85v-4.67a4 4 0 0 0 0-1.25 40.37 40.37 0 0 0-4.65 3.5c-1.66 1.3-3.3 2.73-5 4.09a86 86 0 0 0-9 8.88c-1.09 1.18-2.78 3.6-4.62 2.2-1.54-1.19-.09-2.87.83-3.84 1.2-1.26 2.48-2.46 3.77-3.61 3.93-3.55 8-6.86 12.11-10 1.94-1.48 3.91-3 5.89-4.42.48-.34.57-.32.66-.83a4.69 4.69 0 0 0 0-.75c0-.61 0-.94-.53-.55a5 5 0 0 1-.73.5c-.16.07-.94.21-1 .35a.09.09 0 0 0 .12.05s-1.62.21-1.75.22a2.44 2.44 0 0 1-2-1 5 5 0 0 1-.52-3 29.87 29.87 0 0 1 .15-3.78c.35-2.63 1.3-5.77 3.91-7 .53-.25 1.58-.55 1.82.15a2.08 2.08 0 0 1-.4 1.59c-.29.44-.66.77-.93 1.18a11.13 11.13 0 0 0-.81 1.85 6.73 6.73 0 0 0-.3 2.35 19.06 19.06 0 0 0-.18 2.9c.15 1.28 1.21 1.46 2.15.77s1.06-2.21 1.2-3.37c.25-2 .35-3.84.53-5.95.09-1-.08-2.29.65-3a2.09 2.09 0 0 1 1.31-.45c.8-.07 1.15.4 1.52.87 0 .05-.11 0-.12.05a14.94 14.94 0 0 0 0 1.52 6.42 6.42 0 0 0-.14.86c0 .22.12.51 0 .71-.18 0 0 .49 0 .44a3.5 3.5 0 0 0-.15 1.48 23.13 23.13 0 0 0-.17 2.48c0 .21-.33 1.85-.1 2 0 .18-.11.61-.11.81v1.83c0 .45-.1 1-.1 1.54s.07.51.51.2a64 64 0 0 1 7.5-4.57c1-.5 2.09-1.24 3.12-1.85 1.31-.77 2.6-1.45 3.9-2.2.45-.26.91-.5 1.36-.77.21-.13.88-.4 1-.61s-.18-.29-.42-.56a1.67 1.67 0 0 1-.38-.87 26.18 26.18 0 0 1 .09-4.16c0-.53.13-1.23.14-1.91s.28-1.78-.51-2.09a1.71 1.71 0 0 0-1.5.49c-.19.16-.25.38-.39.55a2.45 2.45 0 0 1-.6.42s.08.2 0 .3-.21.1-.28.25a2.18 2.18 0 0 0-.11.52 6.35 6.35 0 0 0-.21.76c.19.3-.11.06-.13.11s.15.22.15.27-.16.24-.21.27a.2.2 0 0 1 .19.08c0 .11-.3 0-.29.15s.08.2.08.28c0 .29.21.29-.08.5l-.12.12s.11.13.1.14a.12.12 0 0 1-.14 0c-.07.16.26.75.29.89s-.22.1-.23.1a.29.29 0 0 0 0-.16c-.08-.06 0 .63 0 .62-.39.07 0 1.14-.11 1.21.05 0 .07-.08.14-.05s-.16.28-.18.37.14.16.13.25a.22.22 0 0 0-.16 0c0 .05.19.08.19.1s-.06.22-.06.32-.11.46 0 .48a.91.91 0 0 0-.11-.16c0 .22.11.45.08.6s-.1.1-.15.21-.17.34-.23.48c-.18.48-.4.62-1 .93-1 .55-2.08.5-2.12-.83 0-.8.08-1.64.11-2.41.09-2 .15-3.94.28-5.95a3.21 3.21 0 0 1 1.48-2.84 3.76 3.76 0 0 1 1.66-.35 7.58 7.58 0 0 0 1.17.08c1-.18 1.56-1.38 2.34-2a3.93 3.93 0 0 1 1.56-.7 2.15 2.15 0 0 1 1.39.18c.06 0 .41.41.4.26a1 1 0 0 0 .21.46c.1.16.1.4.22.59 0 .1-.13 0-.11.3s.14.13.21.18 0 .35 0 .39c-.08-.13-.47.71-.28.84s.17-.19.2-.14-.09.59.06.46c0 0-.22.16-.2.29a2.44 2.44 0 0 1 .16.52c0 .08-.19.07-.19.06s.06.49.1.38-.32.41 0 .38c-.52 0 0 1.6-.19 1.76a5.22 5.22 0 0 1 0 .56c0 .1.29.42.16.62v-.09c0 .01-.14.62-.13.51a.71.71 0 0 0 0 .26s.11-.16.13-.09-.09.31 0 .25-.18.64.09.77c.07.38-.07.62.15.9.55.69 1.21.43 2.1 0 .56-.27 1.13-.61 1.74-.94a4.84 4.84 0 0 1 1.29-.52c.47-.1 1.11.21 1.52.08-.18-.19.25.07.22.07s.88 1.09.7 1.14l-.14.21a1.29 1.29 0 0 1 .18.14s-.47.43-.32.44z"/></svg>