<svg xmlns="http://www.w3.org/2000/svg" width="23.302" height="23.302" fill="none"><path d="M23.302 0h-9.697C10.603 0 9.87.493 8.673 1.799L0 11.262c6.927-.324 9.063 6.616 16.096 4.714z" transform="translate(0 3.497)" fill="url(#paint0_linear)"/><path d="M15.868 15.815C8.912 17.695 6.747 10.93 0 11.092l8.566-9.346C9.728.478 10.443 0 13.378 0h9.624l-7.134 15.815h-.006z" transform="translate(.229 3.66)" fill="url(#paint1_linear)"/><path fill-rule="evenodd" clip-rule="evenodd" d="M10.59 7.19s.432-.792.773-1.052c0 0 .373-.225.383-.594 0 0 .028-.248-.173-.4 0 0-.526-.428-.952.299 0 0-2.012 3.789-2.705 7.607 0 0-.054.125-.067-.224l-.308-3.32-.003-.042c-.01-.13-.028-.365-.27-.383 0 0-.317-.058-.504.416l-.893 2.188s-.147.275.09.379c0 0 .265.148.439-.22l.412-.882c.082-.18.143-.154.143-.154.048.01.067.19.067.19l.366 4.335c.005.034.037.38.328.38.211-.003.277-.237.32-.432l.026-.127c.105-.516.48-2.356 1.062-4.323.428-1.445.98-2.89 1.466-3.64zm-.594 3.753c-.415.093-.469.564-.469.564l-.254 1.873c-.041.373.443.102.443.102.2-.117.235-.364.235-.364l.077-.468.236-1.268c.077-.53-.268-.44-.268-.44zm.671 1.361c.022-.217.158-1.193.158-1.193.046-.61.376-.623.376-.623l.307-.04s.108-.01.31-.101c.265-.115.35.102.35.102.135.277-.312.476-.312.476-.418.225-.44.748-.44.748l-.072.707c-.056.5-.414.6-.414.6-.444.148-.263-.676-.263-.676zm-.187-2.312c.274-.22.193-.399.193-.399-.102-.293-.473.02-.473.02-.313.222-.204.44-.204.44.137.233.484-.061.484-.061zm4.965.886c-.062.4-.417.477-.417.477-.326.084-.255-.235-.255-.235l.048-.298.265-1.473c.062-.334.402-.4.402-.4.278-.061.186.332.177.382-.01.051-.22 1.547-.22 1.547zm.432-2.652s.297-.244.161-.424c0 0-.126-.187-.478.06 0 0-.315.256-.122.438 0 0 .183.172.439-.074zm3.142 1.758c.322-.139.503-.055.573.064a.31.31 0 01-.008.338c-.102.148-.45.266-.718.344-.201.058-.358.117-.358.117-.476.15-1.034.371-1.034.371a29.859 29.859 0 00-3.451 1.73 6.236 6.236 0 00-.028.344s-.182 2.121-.207 2.434c0 0-.007.387.047.621l.017.07c.062.252.168.682-.126.87-.264.17-.499-.03-.551-.094-.036-.045-.132-.164-.06-.76 0 0 .16-1.524.197-2.016l.085-1.091C10.77 14.949 9.35 16.4 9.35 16.4c-.144.133-.494.43-.746.103-.238-.304.4-.771.4-.771 1.386-1.172 2.994-2.21 4.44-3.041l.025-.338s.017-.108-.098-.031c0 0-.488.285-.845.12 0 0-.286-.124-.275-.546 0 0-.002-1.33.558-1.883 0 0 .323-.334.637-.322.189.008.165.283-.086.496-.214.181-.271.402-.337.662l-.04.148s-.2.903.136.866c0 0 .34.025.444-.545l.254-1.407.004-.02c.025-.163.076-.487.366-.476 0 0 .309 0 .276.252 0 0-.232 1.547-.368 2.657a42.091 42.091 0 013.505-1.74c.06-.032.034-.044.034-.044-.236-.08-.124-.603-.124-.603l.115-1.059c.004-.261-.316-.105-.316-.105-.226.125-.382.416-.382.416-.132.181-.212 1.107-.212 1.107-.032.473-.31.551-.31.551-.328.113-.366-.068-.366-.068-.04-.084.037-.536.037-.536l.142-1.152c.027-.486.384-.58.384-.58a.49.49 0 01.301-.002c.116.04.196.031.264.014.12-.03.275-.174.275-.174.318-.28.515-.256.515-.256.372-.002.321.47.321.47l-.13 1.302c-.04.552.367.341.378.336z" fill="#fff"/><defs id="defs59078"><linearGradient id="paint0_linear" x2="1" gradientUnits="userSpaceOnUse" gradientTransform="matrix(15.0359 6.97684 -9.96991 10.52197 4.248 2.196)"><stop stop-color="#E96E85" id="stop59030"/><stop offset=".023" stop-color="#E5566C" id="stop59032"/><stop offset=".051" stop-color="#E24256" id="stop59034"/><stop offset=".083" stop-color="#E03245" id="stop59036"/><stop offset=".124" stop-color="#DE263A" id="stop59038"/><stop offset=".18" stop-color="#DD2033" id="stop59040"/><stop offset=".337" stop-color="#DD1E31" id="stop59042"/><stop offset=".517" stop-color="#DA1E30" id="stop59044"/><stop offset=".647" stop-color="#D11D2F" id="stop59046"/><stop offset=".761" stop-color="#C11B2C" id="stop59048"/><stop offset=".867" stop-color="#AB1928" id="stop59050"/><stop offset=".965" stop-color="#8E1622" id="stop59052"/><stop offset="1" stop-color="#821520" id="stop59054"/></linearGradient><linearGradient id="paint1_linear" x2="1" gradientUnits="userSpaceOnUse" gradientTransform="matrix(-11.0116 -10.04045 14.30402 -7.7294 19.015 12.398)"><stop offset=".84" stop-color="#C52032" id="stop59057"/><stop offset=".868" stop-color="#C62335" id="stop59059"/><stop offset=".89" stop-color="#C82D3E" id="stop59061"/><stop offset=".909" stop-color="#CD3D4D" id="stop59063"/><stop offset=".927" stop-color="#D35462" id="stop59065"/><stop offset=".944" stop-color="#DA727D" id="stop59067"/><stop offset=".961" stop-color="#E4969F" id="stop59069"/><stop offset=".976" stop-color="#EFC2C7" id="stop59071"/><stop offset=".992" stop-color="#FCF3F4" id="stop59073"/><stop offset=".995" stop-color="#fff" id="stop59075"/></linearGradient></defs></svg>