<svg xmlns="http://www.w3.org/2000/svg" viewBox="0 0 130.44 144.76"><path d="M128.76 12.421c-7.15-15.12-35.66-16.65-63.69-3.41-11.54 5.45-17.87 9.27-24.74 16.8 0 0-3.61 4.78.45 6.98 4.06 2.21 6.16 3 7.25 1.65 5.84-7.31 11.67-14.21 23.15-19.63 22.97-10.85 46.11-10.08 51.68 1.72 5.57 11.79-8.53 30.15-31.5 41-5.66 2.67-11.33 4.64-16.75 5.91-6.6 1.91-15.98 3.07-26.35 2.91 5.42-10.16 11.25-19.36 15.41-25.91 5.51-8.7 6.28-10.04 5.86-11.33-.53-1.63-1.74-1.89-2.24-1.93-1.61-.13-5.37-.42-25.39 35.22l-1.98 3.54c-13.13-1.09-27.03-4.36-38.45-10.87l-.2-.07c-.32.06-1.16.36-1.26 1.03-.09.65.74 1.09.97 1.23 12.08 7.52 24.48 12.05 35.73 14.52-8.65 15.92-16.23 31.15-19 37.71-7.44 17.02-9.12 27.57 3.28 34.57.73.41 1.42.65 2.04.69.78.06 1.5-.18 2.01-.67.39-.37.84-1.08.79-2.28-.82-17.66 5.59-35.01 11.79-51.79l.9-2.44c1.77-4.8 3.9-9.62 6.21-14.33 10.87 1.56 20.16 1.21 26.27-.06 6.72-1.48 13.75-3.86 20.74-7.17 28.02-13.22 44.16-38.46 37.02-53.59z" fill="#008ea8"/></svg>