<svg xmlns="http://www.w3.org/2000/svg" viewBox="0 0 506.8 542.7"><path d="M303.6 385.4h20.1v127.5h-20.1zm-38 84.5v-1.3c0-19.4-10-28.9-23.2-28.9-14 0-24 9.5-24 28.9v1.3c0 19.5 9.5 28.6 24.1 28.6s23-10 23-28.6M199 425.7h20v14a34 34 0 0 1 28.5-15.8c21.9 0 38.7 16.1 38.7 44.3v1.3c0 28-16.2 45-38.7 45a32 32 0 0 1-28.5-15.3v43.5h-20zm143 55.8v-55.8h20.2v53.5c0 13.2 5.5 19.2 17.1 19.2 10.9 0 20.4-7 20.4-20.9v-51.8h20.1V513h-20.1v-13.7c-4.4 8.5-13.5 15.3-27.7 15.3-17.2 0-30-9.8-30-33m93.4 4.2h19c1 8.8 5.4 14 17.3 14 10.8 0 15.6-3.8 15.6-11.2s-5.8-9.8-18.6-12c-23-3.6-31.5-10.1-31.5-26.4 0-17.5 16.3-26.2 32.6-26.2 17.9 0 32 6.7 34.2 26.3h-18.7c-1.6-8-6.1-11.6-15.5-11.6-8.6 0-13.8 4.1-13.8 10.3s4.2 8.8 18 11.2c20.5 3.1 32.7 8.1 32.7 26.6s-12.5 27.8-34.9 27.8-35.6-10.3-36.4-28.8"/><path fill="#e10a0a" d="M90.5 0h394.7c11.9 0 21.6 9.7 21.6 21.6v327c0 11.8-9.7 21.5-21.6 21.5H90.5A21.6 21.6 0 0 1 69 348.5v-327C69 9.8 78.7 0 90.5 0"/><path fill="#fff" d="m347 104.4-.2-.5.1-.7v-.4l.2-.4v-.5l.1-.4h.2v-.6c.2.1.3-.7.3-.8l.2-.3.4-.7.1-.2q0-.2.2-.3l.3-.2q0-.1.2-.3 0-.3.3-.4l.1-.2v-.2l.3-.1c.2 0 0 0 .2-.2l.1-.2q.2 0 .3-.2l.2-.3.5-.3q0-.1.2-.3l.3-.1.2-.1.1-.2q.2 0 .3-.2l.2-.2h.2l.1-.1.2-.1q.2 0 .3-.3l.2-.1.6-.2.2-.2.6-.2.2-.1.3-.1q.4 0 .7-.2l.7-.2h3.1l.2.1.4.2.3.1h.6q.2-.2.3-.1l.3.2v.3l.3.3.2.3.1.3.2.2q.3 0 .3.4v.3l.1.7v.4q.1.2.2.3v.3l.1.2v.1l-.4.5-.2.6-.1.6v.2l-.2.2v.3l-.3.3-.2.3-.2.3-.1.2v.4q-.4 0-.7.4l-.5.7-.7.7-.4.6-.4.5q0 .4-.4.7l-1.1 1q-.4 0-.7.4l-.3.2q0 .2-.2.3l-.6.1-.5.5q-.4.3-1 .4l-.3.2h-1.1q-.3.1-.8.1t-1-.2q-.6 0-1.3-.3l-.6-.2q-.4 0-.6-.3-.5-.4-.9-1l-.2-.2v-.4l-.2-.7zm-9.4 75.6q-.3-.5-.3-1v-1.8l.2-1.8v-.5l.1-.5.1-1.3.1-1v-1.3q0-.6.3-1l.1-1.8v-.6l.1-.4v-.3q-.1 0 0-.3v-.5l.1-.2v-.4l.2-1v-.3q-.2 0 0-.2v-.4l.2-1q.1-.4 0-.7v-.5l.2-1.2.1-.8v-.8l.1-1v-.5h.1v-1.1l.1-.5.1-1 .2-.1v-.3h-.2v-.2h.1v-.2l.1-.2V152l.1-.5v-.2l.2-.1v-.1l-.2-.3h.1l.1-.4v-1.6l.2-.4v-.8q0-.2-.2-.2l.1-.1h.2v-.9l-.1-.1h.2-.1v-.3l.1-.2q-.2 0 0-.1v-.7q0-.2.2-.5v-1.8l.2-.6v-1.2h.1l.1-.2v-1.1h.2v-.1h-.1v-.6h.1q-.2 0-.1-.1h.1v-.5l.1-.5v-.4l.2-.1v-.4l-.2-.3.3-.5v-1h.1q-.1 0 0-.2v-1l.2-.4.1-.9.2-.4v-.4l.2-.3.2-.1v-.6l.2-.1v-.3l.2-.1.2-.5v-.3l.4-.6v-.3l.2-.2.2-.3h.1l.2-.5.5-.6.5-.5.2-.2q.1-.3.3-.3.2-.1.2-.2l.2-.2.7-.6.2-.2.5-.5q.2 0 .5-.2h.3l.1-.2h.1v-.1l.4-.2h.3l.2-.1.4-.1h.2q.2 0 .3-.2h.4l.2.1.2-.1h1.2l.2-.2h.2q.3.3.5.1h.3l.2.2h.3q.2 0 .2.2l.2.1.2.2.2.1v.2h.1v.2l.1.2v.3h.1v.6h-.1.1v.5l-.1.2h.1v.3l.2-.1h.4v.2l-.1.2v.6h.2l-.1.1q0 .2 0 0l.2-.1.1.3v.2h.2v.5l-.1.3v.5h.1v.4l-.2.2v.2l-.2.2-.1.1.1.2v.1q.2 0 0 .1v.1q-.1.1-.2 0v.4l.2.2v.2l-.4.4q-.1 0-.2.2h.1l.1.2v.2h.4-.2l-.2.5h.2q.2.3 0 .4v.4l-.1.3h-.3v.5h.3v.3l-.2-.1h-.1v.6h.2l-.1.1-.1.2-.2.1-.1.2h-.2v.3q.1.3.4.2h.3l-.2.2v.4h-.5v.3h.2v.7h-.3v.2l.1.1.2.2v.3h-.3v1.1h-.1l-.1.2v.1l.1.3v1.8h.2v-.1.1l-.2.3v.2h.3l-.1.1v.5l.2.3v.1l-.2.5q-.1.2-.2.5v.7l.2.2h.1v.3l-.2.2v.3q.1 0 .2.2l-.2.3-.1.2v.8l.2.1v.1h.1q.1 0 .1.2l-.2.1-.1.3q-.2 0 0 .2v.3l-.1.1h.2q0-.4.2-.3v.3l-.2.2-.1.2v.2l-.1.2v.6l.2.1v.2q.2.2.3.5h-.2l-.2.3.1.3q0 .2.2.2v.3l-.1.3q-.3.1-.1.5.1.2.2.3.2 0 0 .2h-.2q-.2 0-.3.2l.1.2-.1.2v.2h-.2l-.4.1q0 .3.2.8.1 0 .1.2h-.2l-.2.3q0 .3.2.6v.3q-.2 0 0 .1v.4l.1.2.5.2.2.2.1.2.1.2-.1.2-.1.4h-.2v-.1q0-.2-.2-.2l-.2-.1q-.1.1-.2 0 .1 0 .1-.1l-.1-.2q-.1 0-.2.2v.5h.3q.2 0 0 0v.8l.4.1.1-.1.1.1v.6l-.1-.1-.7-.4h-.1v-.1q-.2.2-.2.3l.2.2-.2.5v.2l-.1.1.1.2v.4q-.2.5-.1 1.1v2.4q-.2.7-.2 1-.1.2 0 .3v.4q.1 0 0 .1-.2.4-.1.6v2.8l.4.4v.5q-.3.1-.1.4h.1v.3q-.3 0-.4.3v.4q.3 0 .1.4c-.2 0-.2.4 0 .2q-.1.4-.1.8t-.3.7q-.3 0-.4.3 0 .3-.2.6l-.4.8q-.5.7-1 1l-.8 1-.6.6-.3.1-.1.3h-.5l-.8.7-.5.1v.2l-.3.1-1 .5-1.7 1-1.6.5h-2.3l-1-.2q-.1-.4-.5-.5l-.8-.6-.3-.7zm116-33.6q-.2 0-.1.3v.2q-.5.1-.5.4.3.1.5 0v.5q.1 0 .4.2l-.4.3s-.5 0-.4.1v.6l-.3.2v.5l-.1.2q-.2-.1-.2-.2c-.2-.2-.5.4-.4.6h.2q-.1.3-.4.2v.4l-.2.2.3.6c-.3.2-.3-.2-.4-.3h-.2v.3l-.2.3-.3.5-.4.6-.6 1-.6.3-.3.3q-.1.3-.5.5-.3.1-.3.4l-.3.2q-.9.4-1.7 1.2l-.9.5-1.6 1q-.4 0-.7.3-1 .2-1.8.6l-1.5.7q-.6 0-1.1.2l-2.2.7-1.2.3q-.5 0-1 .4l-2.2.6c-.4.3-2 .7-2.4.8l-1 .4-2.2.8q-.4 0-.7.3l-.8.3q-.3.1-.7.2l-.7.3-.7.2-.6.4h-.5l-.4.4-1 .4-.8.3-.5.3q-.3 0-.3.2-.2.1-.5 0l-.3.3-.9.4q-.3.2-.8.3l-.8.4-1 .4-1 .3-.3.3q-.2 0-.3.2l-1 .4v.2h-.4q-.2.2-.5.3l-1 .5q-.5.2-1.1.6l-.8.4-.6.1-.4.5q-.3 0-.8.3l-.4.2q-.4.4-.7.5t-.5.2l-.3.2-.9.3-.2.3-.5.1-.7.5h-.1l-.1.1h-.5c0 .4 0 .2-.2.4l-.4.2-1 .5q-.2 0-.3.2-.2 0-.5.2l-.4.2q-.5 0-.7.4l-1.2.6q-.3.4-.9.4l-.8.4-1 .6-1 .5q-.2 0-.2.2l-.3.1-.3.2q-.5.3-.9.4l-.9.5-.2.1-.2.2h-.6l-.2.4-.4.2-.8.4-.4.2-.3.2q-.5.2-.8.5l-.8.2-.3.3-.4.2-1.1.6q-.2 0-.3.2c-.1.2-.8.3-1 .3q0 .3-.3.4l-.8.5-.5.2q-.1.2-.4.3l-.3.1-.2.3-.4.2h-.4l-.5.4-.2.2h-.4c0 .3-.5.5-.6.5l-.5.2-.3.1-.9.6-.8.4-.3.3-.8.4-.4.3-2.6 1.4-.5.2q-.2.1-.3.2l-1 .5q-.3 0-.6.6l-.4.2-.5.1v.2h-.3l-.4.2-.5.3q-.2.3-.5.3l-.7.5-.5.3-.3.2q-.4 0-.5.2-.3 0-.4.3t-.5.2l-.3.3-.8.4-.7.5-.8.5-1 .6-1 .4-.9.5q-.8.7-1.7 1.2l-1 .5q-.2.1-.6.5l-1.8 1-.9.5-.4.3-.1.1h-.4l-.1.3h-.2l-.4.3-.3.3-.8.4-.9.5-.7.5q-.3 0-.4.3l-.4.2-.8.5q-.4.2-.7.5c-.1-.1-.6.3-.7.3q0 .4-.4.4l-.2.3h-.2l-1 .7q-.4.3-1 .5l-.3.3-.4.1-.2.2-.2.2-.3.1q-.2.3-.4.3t-.2.3v.1q0 .3-.3.2h-.5q-.2.2-.4.3l-.2.1.1.3-.5.2h-.4l-.9.7q-.4.3-.8.4l-.3.3q-.2.3-.3.2l-.9.5-.3.3s-.4 0-.4.2l-.6.4c-.2-.1-.7.6-.9.6l-.2.1-.2.1-.3.2-.2.1-.1.2-.2.1q-.3 0-.5.4v.1q-.1.1-.2 0-.2 0-.5.3 0 .2-.3.3 0 .1-.2.2v-.1l-.4.2v.1h-.2l-.1.2h-.1l-.1.2-.1.3h-.3s-.4.2-.2.3h-.2l-.2.1q-.1 0-.3.2h-.1l-.2.3q0 .3-.2.5l-.2.4h-.2l-.2.3h-.6l-.1.4c-.2.2-.4 0-.5.2l-.2.2-.3-.2-.2.4-.3.6q-.3 0-.3.2v.3q0 .3.2.3v.2q-.2.1-.2.3v.4q-.2.2-.3.4.1.3.5.2v.5h-.5v.2l.2.1v.4l-.2.4v.4q.3 0 .3.2l-.1.3v.3l-.2.2v.2q0 .3.2.4l.2-.1q.2 0 0 .2v.2l-.1.2-.1.3h-.2q0 .3-.2.3v.2l-.2.2v.2h-.1q.2.3.5.3l.2-.1v.1l-.2.4v.9q-.2 0-.2.2l-.1.5-.3.1.3.2h.3v.4h.3l-.1.6v.4q0 .3-.2.4v.2l-.1.4-.2.1q.1 0 .2.3l-.1.2v.3l-.3.1v.3q.1 0 .2.2v.5h.2l.1.1h.1v.1q0 .2-.2.3l.1.3q0 .3-.3.2v-.3h-.3q-.3.1-.1.5l.2.2v.2q0 .3.2.5v.1l.3.3v.4l-.2.1v.4l-.2.2-.1.2v.6q.3 0 .5.3l-.2.2v.3l.2.2-.2.3v.2l-.1.4h-.2v.4h.2v.4c0 .2-.2 0-.2.3v.2l.1.1.2.1-.1.3h-.2v3l.1.3h.2v.2l-.1.3-.2.4v.2h-.1q-.1.3.2.2h.1l.2.2.1.2q0 .3-.2.2v.4h.2v.3h-.3l-.4.2.2.2v.2h-.2l-.1.2v.2h-.2q0 .3.2.2h.1l.2-.2h.2v.3l-.1.4h.2v1h-.1v.2l.3.1h-.3l-.1.2v.3l.1.1v.3l-.1.2v1.1h.1l-.1.2-.1.1-.2.1h.2v.2q.1 0 .2.2v.1l-.2.1v.8q.1 0 0 .1v1.1q.1.3 0 .5v.1c0 .2-.1 0-.2.2l.2.1q.1.2 0 .4v.5l-.1.5-.1.1v.4l-.3.1v.2h.1q0-.1.2-.2l.1.1v.4l-.2.1v.4l.3.2v.2h.3v.4l-.1.2-.1.2v.3l-.1.1v.2q0 .2-.2.3l-.1.3h.3q.1 0 0 .2-.2 0 0 .2.4.1 0 .4l-.2.5q-.1.1-.1.5c.2.1.3-.3.3-.3l.2-.2v.2l-.2.3v.3q-.1 0-.2.2l.2.1q0-.1.2-.2 0 .2-.3.4h-.1q0 .2.2.2l.2.1q.2 0 0 0-.3.2-.2.5v.1q0 .2.2.2h.2v.2l-.4.1q-.2 0-.5.2l-.1.2v.5l-.2.2q-.2 0-.1.2l.1.1c.2.1-.1.4 0 .5h.3v.2s-.4.1-.3.3h-.1l.1.3v.2q.2-.1.2-.2h.3q-.1.3-.2.4c.2 0 .3-.4.5-.3l.2.2v.3l.1.2v.2l-.1.2h-.2l-.4-.2-.2.1q-.2 0-.2.3l.2.2.1.3.2.1.5.2q.1.4-.2.4h-.4q-.1.3.2.4l.3.1v.2h.1l-.2.5h.3v.4l-.4.2q0 .1-.2.2l-.3-.1h-.5q.1.2.5.1h.5v.2h-.2q-.2 0-.2.2t.2.1q.2.1 0 .4 0 .3-.2.5l-.1.1-.3.2q-.4.3 0 .5l.1.1v.3q.4 0 .3.2v.6q.1.2.2 0h.2v-.3h.1v.8q-.1 0-.3.2l.3.2v.3q0 .2.3-.1 0-.3.2-.2l-.2.1v.5q-.2.2-.3.4.1.3.3 0s0-.5.3-.3q-.1.4-.5.6h-.5q-.1.3-.2.5l-.2.2v.2c-.1 0-.5.2-.1.3h.1l.1.3-.1.4c.1.2.4 0 .5.2v.4q0 .2.3.3t.2.4c-.2.2-1-.2-1 .2q-.2.2-.2.5c0 .1.4.2.4.4s-.4.2-.4.4l.2.3v.2h.4l.3-.2q-.1-.3 0-.3l.3.1-.2.2v.9h.3q.2 0 .3.2l-.3.3c-.3 0-1-.1-.8.3l.2.3v.1l.3.4q.1.4-.1.9-.3 0-.4.4.2.4.5.4v.5q.3.2.4 0 .2.3 0 .5h.2c0-.1.6-.4.6 0l-.1.2-.2.2h-.1v.2h-.2c-.3.2.3.8-.2 1q-.3 0-.1.4h.4c.4-.1 1 0 .5.2h-.2l-.2.2v.8l.5.1h.2v.3q0 .2-.3.3c-.4.4.3.3.4.6.3.3-.4.2-.3.6h.4v.3q-.2.1-.2.3l.1.4v.6q-.4.3-.1-.2c0-.5-.6-.4-.7 0q0 .3.3.5t0 .5l-.2.3v.2l-.1.3-.2.2c.1.2.3 0 .4.3v.4h.2l.2.4v.2h.4q.1-.3 0-.4l.2-.1.2-.1q.2 0 0 .3v.3h.1l.1.2h.2v.4h-.2v.4l.2.1q0 .1-.2 0v.3h.1l.1.4v.4l.1.4h.2v.2q.1.1.1.2-.1.2-.1.3h.1v.3q.2-.1.4 0s-.3.2 0 .2l.2-.2c.2.2-.1.2-.1.3l.2.3-.3.3v.2q0 .2-.3.3l-.3.3q0 .3.3.4-.2.2-.5 0-.4 0-.6.2c-.2 0-.7.3-.2.4h.2q0-.1.4-.3l.5.4h.2l-.6.3h-.6q-.1 0 0 .3.1 0 .1.1c-.1.3 0 0 .1.2v.2q-.2 0-.3.2l.1.1v.3l.2.2q.2.3-.1.4l.1.5c.1.2.7.4.9.4.5-.1 0-.5.2-.8l.3.1v.3q-.3.3 0 .7s0-.4.1-.3l.4.3c-.2.2 0 0 .2.2l.2.3-.3.3q-.2-.1-.3-.4c-.2-.2-.4.3-.6.4.2.4.4-.3.6 0q.3.4.5.5 0 .2.3.2l.4.1q0 .4-.3.5s.3-.3 0-.4q-.6.2-.3.3l-.1.3q-.2-.2-.4-.2.1.3.2.2 0 .3.3.4-.1.3-.4.2v.4h-.5q-.3 0-.3-.3t-.2-.2l.1.2v.5q.2.1.5 0h.2l.2.1q-.2.3.2.4-.1.3-.4.2l-.2.2h-.1q-.3 0-.1.3 0 .2.2.3l-.1.1q.2.1.5 0c0 .2 0 .6.2.3q0 .1-.2.3l.4-.2q.1.2-.2.4.1.4.3.4l-.2.2q0 .3.2.2v-.2l.4.2h.4q-.2.3.1.4l.2-.4v.5c-.3 0-.6.4-.6.4-.5.3-.3.3-.2.5v.4h-.3l.1.2c.2 0 0 .2.3.2.2.4-.5.1-.6.2l-.1.4-.2.4v.5h.3l.2.1q.5 0 .8.3l-.3.1-.2.3h-.3v.2h-.5v.2l-.1.2-.2.2-.3.7-.1.5-.2.4-.6.8q0 .2-.3.3l-.4.4-2.3 1.6q-.2 0-.5.2l-.4.3h-.4l-.5.2q-1 .3-2 .2h-1.7l-1.2-.2-3-1-.6-.6-.9-.6-.4-.5q-.1 0-.4-.4l-.4-.5-.4-1h-.1l-.1-.3-.2-.6-.4-1v-.3q0-.3-.2-.6l-.2-1-.2-.3v-.3l-.1-.1v-.5q-.2-.3-.2-.5v-1.3l-.2-.2v-.6c0-.1-.2-1 0-1V316l-.2-.4.1-.2q.1-.4-.1-.6v-1.5l.2-.6v-2l.1-1.5v-3c0-.3.2-1 0-1.1l.1-.4v-1.6l.1-.8v-3.2l.2-.4v-5.5l.2-1V291l.2-1v-.6q-.1-.3-.1-.5l.1-.4v-2.7q-.2-.6-.1-1.2v-.5l.2-.7v-.8l-.2-1.7-.1-.4V279q.1-.6.3-1v-4.1l-.3-.4v-.5q.3-.2.5-.1v-1.4l-.1-.2v-5l.1-.8q.2-.2 0-.4v-5l-.1-.5.1-.4v-2.3h.2q.1-.6-.1-1v-2.2l-.1-.6v-8.4q.2-.6 0-1v-1.3q.2-.6 0-1.1V240q.2-1.1 0-2.1v-.5l.2-.5-.2-1v-.4l.2-.3v-1.5q-.3 0-.7.3l-.2.2h-.1l-.5.2-.6.4c-.2 0-.3.4-.6.4l-.5.2-.3.3-.8.5-.8.5-.6.4q-.2.3-.5.4l-.7.6q-.5.2-.7.5l-.7.6-.4.2q0 .3-.3.4-.2 0-.4.2l-.3.4q-.5.2-1 .6-.1.4-.7.7c-.2 0-.5.5-.7.4-.2-.2-.2.3-.3.4l-.6.3-.6.6-.4.4q-.2 0-.5.3l-.5.3-.2.3-.4.2-.4.3q0 .2-.2.3t-.3.3q-.4 0-.5.3h-.2l-.1.2-.3.2-.2.1h-.2l-.4.5-.6.5-.7.6q-.3 0-.4.2l-.3.3h-.3l-.1.2-.9.7q-.1.4-.4.5v-.1l-.1.2q-.2 0-.4.2l-.4.2-.7.6-.7.5-.7.6-.3.3-.4.2-1.5 1.3-.9.7-.3.3-.2.2h-.2q-.1.3-.2.5h-.3l-.2.2-.3.3-.3.3q-.3 0-.3.3l-.4.3q-.4.1-.8.6l-.7.6-.5.4-.3.4h-.3l-.1.1q-.1.2-.4.3l-.8.8-.4.3-.2.2h-.1l-.4.4-.6.5q-.2.3-.6.4l-.8.7-.7.6q-.4.4-.8.6l-.5.4v.2h-.3q-.4.3-.9.7l-1.4 1.1-1 1-1 .6-.3.4-1.5 1.3-.8.6-.8.7-.4.2-.4.4-.7.6-.7.6-1.3 1q-.2.4-.6.6v-.1q-.2.1-.4.4l-.5.4q-.2 0-.3.2l-.3.3q-.5.3-.8.6 0 .1-.3.3 0 .2-.3.3t-.5.3l-.1.4q-.3 0-.5.2l-.4.3-.7.5-.2.4-.3.3-.7.8-.4.2-.3.3q-.2.4-.5.6l-.6.8-.1.3-.5.4-.7.6-.2.3-.4.2-.5.6q0 .3-.4.4-.2 0-.2.3-.4.1-.7.4l-.6.4-.7.5c-.4.6-.9.6-1.1 1l-.8.9q-.3 0-.5.3l-.3.5-.4.4-.3.2-.2.2v.2q-.2.3-.5.3l-.5.8-.5.3-.4.5-.6.6-.3.3q-.8.3-1.3 1.3-.3.8-1 1.5l-.9.6-.6.6-.2.4q0 .2-.4.3l-.5.7-.6.7-.3.2q-.2.1-.3.4l-.1-.2-.5.8q-.2 0-.3.2l-.3.3-.5.5-.5.7q-.3.2-.7.5l-.2.4-.3.2-.7.7c0 .2-.5.3-.6.5l-.7.6-.3.3q0 .2-.3.3l-.3.4h-.2l-.1.2v.1h-.1l-.3.2-.3.3q-.2.1-.3.6l-.4.6-.6.7-.4.4-.4.3v.5l-.5.3-.3.3q-.2.3-.4.2l-.3.4-.3.2-.3.3-.2.4-.2.5q-.3 0-.4.2-.2.4-.8.7c-.2 0-.4.5-.6.5l-.6.7-.5.7-.2.1-.1.2-1.2 1-.8.7-.3.3-.3.3-.4.2-.2.4-.6.6-.3.4q-.1.2-.4.3l-.5.4q-.4-.1-.5.4l-.2.3-.4.2q0 .3-.3.3h-.4l-.2.2-.2.1q0 .3-.3.4h-4.2l-1.1-.2-.5-.1-.5-.2q-.2 0-.5-.2l-.4-.1-1.8-1q-.4-.2-.7-.7l-.5-.4q-.2-.4-.3-.7l-.4-.4-.5-1-.1-.6-.2-.8-.2-.6v-.7c0-.5-.4-.8-.3-1.3 0-.3.4-1 .3-1.3 0 0 .3-.3 0-.5l.5-1q.4-.4.6-1l.8-.9q.5-.8 1.2-1.6l1.6-1.8q.3-.7.7-1l1-1 1.8-1.8q.8-.9 1.7-1.7l1.6-1.4.8-.7.7-.8.9-.7.3-.5.5-.4 1.8-1.7q.7-.8 1.7-1.5l.9-1 .9-.6q.8-1 1.7-1.8l.8-.7.2-.2.3-.2q.2-.2.3-.5l.4-.2.5-.6.5-.3q.4-.2.4-.5l.9-.7q.1 0 .3-.2v-.3q.4-.2.7-.5l.8-.6.7-.7 1.9-1.6.9-.7 1-.9.3-.4.6-.3 1-1 .9-.6 1-.8.2-.3 1-.8.4-.4.5-.3.3-.5.6-.3q1.1-1 2.1-1.9 1-.6 2-1.6l.8-.6q.2-.2.5-.3 0-.4.4-.3.2-.2.4-.6l.6-.4 2-1.7.8-.7.4-.5q.3-.1.2-.4.7 0 1-.5.2-.3.6-.5c.3-.3 1.2-.7 1.2-1.2l.4.2c-.2-.5 1-.5.8-1q.7-.2 1.1-.9l1.5-1.1 1.5-1.4.5-.3q.4-.1.4-.4l1-.8 2-1.5q.9-1 2-1.6l.8-.7q.5-.2.7-.8l1-.6q.4-.2.8-.6l.7-.8 1-.6.4-.4.6-.3.4-.4.4-.4.4-.5.5-.3.9-.6v-.3l.4-.2q.3 0 .6-.3t.8-.5l.7-.6q.3 0 .5-.3 0-.1.2-.3v.2q.3 0 .4-.4l.4-.2.2-.2q.4-.4 1-.5-.1-.3.2-.4l.4-.3.7-.5h.2l.1-.2.5-.2.2-.4q.4 0 .4-.2l.7-.5.7-.4.3-.3.3-.2.3-.3.3-.2v-.1l1.2-.8 1.2-1 1-.6q.2-.2.5-.3l.5-.3q.1-.2.4-.4.3 0 .5-.2l.3-.5q.5.1.5-.4.3 0 .6-.3l.7-.4.5-.5q.5 0 .5-.4.3 0 .5-.2l.3-.3q.3 0 .5-.3t.4-.2l.4-.5.4-.3q.4-.1.9-.5l.4-.3q.3 0 .3-.4c.8-.3 1.5-1.2 2.3-1.6q1-.6 2-1.7l1.9-1.3.4-.4q.1 0 .3-.2l.2-.1.5-.4.5-.3.8-.7c.8-.5 1.5-1.3 2.4-1.6q0-.2.2-.2.2-.3.7-.5l.8-.7 1-.5.7-.8.6-.3.4-.3q.4 0 .5-.3.4-.2.7-.3v-.4q.1-.1 0-.3v-.9l.1-.3.1-.1c.2-.3 0 0 0-.3l.1-.3v-.4c-.2 0 0 0-.2-.2v-.5q.3 0 .2-.2l-.1-.4q-.2-.3-.1-.7l.1-.3q-.1 0-.2-.2v-.6q.2 0 .2-.2v-.4l-.2-1.3c0-.2.2-1-.3-1h-.8q-.2.3-.3.5l-.6.3-.4.3-.6.2-.2.6-.7.1-.4.4-.2.2-.2.2q-.2 0-.5.2l-.2.2h-.3q0 .6-.7.4l-.7.2h-1q0 .2-.2.3h-.4q0 .3.2.3c-.2.5-.4.2-.6.1l-.7.2c-.1.2-.5 0-.6.3s.4.1.6.2c-.1.4-.6 0-.8 0l-.4.2-.4-.1h-.2l-.1-.2q-.2-.1-.4 0v.1h-.2q-.3 0-.5.2l-1.3.3q-.6 0-1.3.2l-.6.1h-.7v.1c-.3.1-.9-.2-1.2 0l-.2.1h-1.6l-.6-.2-.6-.2h-.6q-.2 0-.5-.2l-.6-.1v.2q-.2 0-.2-.3t-.4-.3l-1-.4q-.6-.3-1.4-1v.2l-.1-.2q-.4-.5-.9-.8l-.9-1-.4-.4q-.1-.4-.2-.6l-.3-.5q0-.3-.2-.5c.2-.3-.3-.7-.3-.9l-.2-.8-.2-.5v-.4l-.4-1.8v-.8l-.2-.8v-8.8l.1-2.8-.1-.7q-.2-.1-.3-.5c-.1-.3.3-1.1 0-1.3l.1-.7v-.6q0-.4.2-.7 0-.3.2-.6l.1-.6.1-.7v-2.2q.3-1 .2-2v-1.4l.1-.2q.2-.1 0-.4l.1-.2v-.8l.4-.6q-.1-.5 0-.8v-.5q.2-.6.2-1 .1 0 0-.3v-.4q.3-.4.2-.8l.3-1.9.2-.9q.1-.4.3-1l.3-.8.2-1 .2-.6.2-.7.1-.2q.2-.2.3-.4v-.5l.2-.3.2-.6.4-.9.1-.4q.2 0 .2-.4l.2-.4.2-.4.2-.4h.2v-.3l.1-.1v-.3l.3-.3q.2-.2.3-.5l.2-.3.3-.6.4-.5q.2-.4.4-.6l.2-.2v-.2l.3-.3.4-.7.7-1q.2-.2.3-.5.2 0 .2-.2l.2-.3q.3-.2.5-.6l.3-.3.2-.2.2-.2v-.3l.4-.4.6-.6 1.4-1.1q.8-.7 1.5-1.1.2-.3.5-.5h.3q0-.2.2-.2c0 .3.3 0 .3-.1l.2-.1.2-.2.4-.4q.2 0 .3-.3l.4-.2q.3-.3.8-.4l.4-.1q.3 0 .5-.2l.4-.2h.3q.5-.3 1-.3l1-.3.3-.1.5-.2h.5q.3-.1.5 0h1l.4.1.4.2h.4q.3 0 .6.3l.2.3.3.3.2.4q-.1.3 0 .4l.2.4v1.5q-.2.2-.2.7-.1 0-.2.2.3 0 .2.4-.2.7-.4 1v.5l-.2.3v.8q-.2.3-.5.5l-.3.2v.3q-.1.3 0 .4-.1.2-.5.1l-.1.4-.1.4-.4.6c-.2.2-.3 0-.5.3q0 .2-.3.3l-.5.2v.3c-.3-.2-.7.6-.9.8q-.2.5-.3 1.1h-.2c0 .5-.3.4-.6.7v-.1l-.5.5c0 .2-.5.3-.1.5q-.2.3-.1.7l-.4.6c-.2-.5-.4-.1-.4 0q.2.8-.3.8v.5q-.4 0-.4.4c-.4.1-.4.9-.4 1.2 0 .5-.4.8-.3 1.3 0 .4-.6.6-.8 1l-.4 1q-.2.4-.3 1.2l-.2 1.1-.3.5v.6l-.3.4v.5q-.1.5-.4.9l-.2.5c0 .2.3 1.6 0 1.6q-.3 0-.1.6v.9l.1.2c.1 0 0 .5.3.4l.2 1q0 .8-.3 1l-.1.4-.2.4v1.8l-.2 1.1q-.3 1.1-.3 2.2.1.6.1 1.1 0 .4-.2 1l-.3.2v.7l.1.5q.3.5.2.9l-.2.3q.2.2.3.4v.4q-.4 1 0 2 0 1.2.4 2.2 0 .2.3.4l.1.6q.1.4.5.9.3.6.8.8.3.3.5.3l.6.3h2.1l1.8-.3.4-.3.6-.2.5-.2.4-.2.4-.2.4-.4h.3v-.3q.2 0 .3-.3h.1l.5-.4 1-1.2.6-.6c1-1 1.2-2.3 1.6-3.7q0-.5.2-1 0-.2.2-.5v-.5l.3-2.2q0-.6.2-1l.1-1.4.2-.4v-.5l.2-1.6v-1l.2-1q.1-.4 0-.9c0-.5.2-.5.2-.9l.2-1v-1.3q.1 0 .2-.3v-.6l.1-1.2.1-1.3q.2-.6 0-1.2v-.5h.2v-1.4l-.3-.1v-.5c.1-.4.5 0 .5-.2v-.8l.2-.9v-2l.1-.4.1-.6v-.5l.2-.6v-2.4l.2-1v-2.4q.3-.3.2-.5v-.3l-.1-.2q0-.2.2-.5v-1.7q.2-.2 0-.4v-.2l.1-.2.2-1V148l.2-1.2.1-.4v-.8l.2-1.1v-1l.2-.5.1-.5.5-1 .1-.2v-.3l.4-.3v-.2h.1q.1-.5.6-.7l.5-.6.7-.4q.2-.3.6-.4l.2-.2q.1.1.5 0l.1-.3q.2-.1.6-.2l.4-.1.8-.4q1-.3 2.3-.2h1.4q.6 0 1.3.4 1 .1 1.8 1l.7.6.2.4.3.3q.5.3.4.8-.3.4 0 .4h.5l-.1.2q-.3 0-.4.2t.3.3q0 .3-.3.4v1.1q-.1.3 0 .5v.4l.1.4-.1.3v1.2q.3 0 .4.3t-.1.3l-.3.1q-.3.3 0 .6.1 0 0 .4 0 .3.2.5 0 .5-.2.5c-.4 0-.2.6-.2 1v.5q.1.3 0 .4t-.1.4.3.5c.1.4-.3.5-.4.8q-.2.2 0 .3.2.3.2.5v.5l.2.5-.2.5v.1l-.2.2q-.1 0 0 .3v.5c-.2 0 0-.2-.2-.2q-.2.1-.2.4c.1.1.5.3.2.6l-.2-.1v.6q-.1.4 0 .6.1.3.3-.2c.5.3-.3.5-.4.6l-.1 1.3v.7l-.2.7q.1.2.1.6-.1.1-.3.4.1.3.2.2v1.1l-.1 1.5v.8l-.2.8-.1 3-.3 3.3c-.3 0 0 .6 0 .8q-.2.5-.2 1v1c-.1.2-.4.7 0 .8l-.2.3v1.1q-.2.6-.2 1.4l-.1 2.3c-.1.1-.4.4 0 .4q0 .5-.3 1l-.1 1v1.5q0 .2.4 0 0 .3-.3.3l-.2.5v1.9q-.2.4-.2.6v.5l.1.1-.1.3v.3l-.1.7v.7c0 .4.3.3.3.6v.3l.1.2v.3q-.2 0-.1.3l.2.4-.4.8q-.2.1-.1.4.1.2.3.4h-.3c0 .2-.2 1 .2 1 0 0-.5.4 0 .3q0 .5-.3.9c-.1.3.3.3.3.6l-.1.2h.1v.8c-.1.2-.3 0-.3.3l.2.1v.3l-.2.5q-.1.4-.1 1l-.2 1q.2.5.1 1v.8q.2.6 0 1v1.3l-.1.3q.1.4.1 1l1-.4.4-.3v-.2h.3l.3-.4h.2q0-.1.2-.2 0-.2.4-.3l.4-.2q0-.4.2-.3l.4-.2.9-.5q0-.1.3-.2.3 0 .5-.3l.9-.5.8-.5.6-.3q.1-.3.4-.4h.5l.4-.4q1.3-1 2.7-1.7l4.2-2.7 2.3-1.4q1.3-.8 2.3-1.4.1-.3.6-.5l.5-.4.5-.2q.3 0 .5-.3.3-.4.8-.6.5 0 1-.4l.8-.7q.1-.3.6-.4.4 0 .8-.3l.8-.5.8-.4.2-.3.5-.4.8-.4.9-.6 1-.3.8-.5q.5-.1.9-.5l.2-.2.4-.2q.4-.1.7-.5l.3-.1v-.3l.6-.2q.2.1.3.2l.5-.2.4-.3q.3 0 .4-.2t.7-.5h.2q0-.1.2-.2h.2l.1-.3h.5l.3-.4.4-.1.4-.3.4-.2.4-.4q.2 0 .5-.2l.3-.2q.5 0 .6-.3l.7-.4q1-.7 1.9-1.2l.8-.6h.5l.4-.3q.3-.3.7-.6l1-.4 1.6-.8.8-.5q.4-.4 1-.6.8-.6 1.9-1l1.8-1.2q.2 0 .4-.2l.4-.2.2-.1h.2q.3 0 .4-.3l1.7-1q1-.6 1.9-1 .2-.4.5-.3l.6-.3.5-.4.3-.1 1.2-.8.4-.2.5-.1q.2-.4.7-.5l1.9-1 .4-.3.5-.3q.4-.4 1-.5l3.9-2.3 1.7-.9 1.2-.6.4-.3.3-.2q.3-.2.5-.3l.4-.2.7-.6q.4-.1.8-.4l1-.7h.4l.6-.6.4-.2q.3 0 .3-.4c0-.5-.2-.4-.4-.5l-1-.5-.3-.3q-.1-.2-.4-.4l-.6-.6-.4-.5-.2-.5q0-.2-.2-.5-.1 0-.2-.3l-.3-.4v-.6l-.2-1v-4.4l-.1-.5v-1.1l-.1-.5q0-.4.2-.8v-.7l.2-.2v-3.2q.4-.4.3-1.2l-.2-1q-.3-.4-.2-1 .2-.5.2-1.3v-.5q0-.2.2-.5l.2-1v-.2l-.2-.2v-.9q-.2 0-.2-.2v-.5l.4-.3v-.5h-.2v-.9h.2l.1-.5v-1.3l.2-2.5v-1.1q.1-.6.1-1v-.1q-.3 0-.2-.2h.1q.2-.2.1-.5v-6.1q-.1-.2 0-.5v-.2l-.3-.1-.2-.4-.2-.5q-.6-.9-1.7-1l-1.1-.1-.1-.1h-.4q0-.2-.3-.2t-.5.2c-.3.2-.6 0-.9.2q-.5 0-.8.3t-.6.2l-.3.4c-.2.2-.5 0-.6.2l-.3.2q-.4.5-.8.8l-.5.1q0 .2-.3.3l-.3.4-.2.3q.1.1 0 .3-.2.3-.7.5 0 .5-.2 1l-.5.2-.3.3-.8.8-.5.5q-.2.4-.3.1 0-.2-.2-.3l-.2.1.3.4q.1.5-.2 1l-.7.5q-.3 0-.5.2-.3 0-.1.4t0 1l-.3.5-.1.4-.1.2v.3h-.3l-.1.2q-.2.2 0 .4v1.3q-.1.2-.2.3.1.2.2.5l-.3.3q-.3.3-.2.5.1.1.5.2 0 .3-.3.5l-.2.2h-.3c.4-.5-.4-.6-.4-.4l.2.4h-.3l-.1.3q-.1.5.5.4l.4.1q0 .3-.3.3-.1 0-.2.4.2 0 .2.3-.3.3-.7.3h.6l.3.4c-.1.3-.7 0-.8 0q-.5.1-.6.7l.2.4v.5q.1.1.2.4l-.2.4q.4 0 .4.3l.2.3q.3.4 0 .7c-.1.2.1.6-.4.6h-.4q-.1.2.1 0c.4.6-.5.4-.6.6q.4.2.4.5.2.1-.2.1l-.4-.1v.9q0 .1.2.2 0 .4.6.7h.1v.2q0 .3.2.4l-.4.3.2.3v.4q-.1.3 0 .5h.3q.4.2 0 .4-.3 0-.5.2t-.4.1l-.1-.7c-.3-.4 0 .2 0 .3l-.2.4q.3 0 .2.2s-.8.4-.3.5q-.2.2-.2.6.1 0 .2.2l.3.2q0 .2.1.4h-.4q-.2 0-.2.2v.4l-.1.3v3.4l-.2.6c0 .2.4 0 .4.2q-.2 0-.3.4t.3.1q0-.2.3-.3h.3q0 .5-.3.8-.4 0-.4.3.2.2.2.4l-.3.2q-.1.1 0 .4c.2.2 0 .5.4.5h.2v.4q-.4-.1-.7.1c-.2.4.5.2.6.3-.1.3.2.1.2.2l.2.5q-.1.4-.5.6v.2l.1.2-.1.5q-.2.3-.3.4c0 .3 0 0 .2.2v.2l.1.6q.3.2 0 .3c-.4 0-.3-.9-.5-.7q0 .4.1.7 0 .3.2.7l.4.6v.7q-.4-.1-.6.2.2 0 .2.2l-.3.3-.4.3c0 .2.4.5-.3.4v.3l-.1.2-.1.4v.2c0 .3.4.3 0 .3l-.3.1v.2h-.3v.4l.1.2v.7c-.2.3-1 .2-.7.6.3.1-.3.3-.3 0h-.1q-.1.5-.4.6-.1 0-.2.2l-.1.2-.3.1q-.2 0-.2.2l-.5.3-.3.3-1 .3-.3.3h-.2q-.2.3-.5.4-.4 0-.5.2l-.6.3-1.3.5c-.5.3-1 .1-1.5.3h-2l-.7-.2q-.6-.1-1.2-.7-.6-.2-1-.9v-.6l-.2-.3v-.2l-.2-.1-.2-1.3v-4.1l.1-.7v-.4l-.1-.3v-.6l.2-.7v-2.3q.4-.3 0-.5l.2-.5v-.8h-.2q.3-.3.2-.8v-.9l.1-.1h-.1l.1-.6V150l.1-1v-.8q.1-.8 0-1.5l.2-1.6v-2q-.1-.4 0-.6l.1-.5q0-.4.2-.8-.2-.3 0-.5-.1-.4 0-.9v-2.1q.2 0 0-.1v-.3l.1-1.5.1-1.5.1-1.4v-2.6l.1-1.4.1-1.5q.2-1 .1-2l.2-2.3V122l.2-1.3q.2-1 .7-2 .3-.4.3-1l.5-.8q.2-.5.5-.8l.5-.8.5-.8q.4-.6.9-1 .3-.1.5-.4h.3l.1-.3h.2l.2-.3.4-.2 1-.6 1-.6h.3l.5-.2 1-.4 2.4-.2h1.1q.6.3 1.1 0 .3-.1.3-.2l.5-.3q.5-.2 1 0l.5-.1q.2 0 .3.3t.4.4l.7-.1.5.1.4.1q.5.2 1 0h.6l.4-.2.4-.3.5-.2q.6-.1 1-.4.4-.1.7-.5l.3-.4.4-.2.6-.6.4-.6.4-.2.3-.3h-.1q.6-.8 1.3-1.4.2-.2.4-.3l.4-.4.5-.7.8-.7.5-.4.2-.5q.3-.3.8-.5l.9-.5 1.7-1.1 1-.5.7-.3.4-.3 1-.3.5-.1.5-.1.4-.2h.2l.5-.1 1.1-.2h2.4q.4 0 1 .2l2 .8.3.4q.3 0 .5.3c0 .2.3.7.6.7 0-.1.3-.7.4-.2v.7l.4.4.1.4.1.8c.3.2.3-.3.4-.2l-.1.5.2 1v.4l.6.1c.2 0 .2.5.3.7q-.1.3-.6.1v1.2l.3.3c.2.3 0 .6.3.7h.5c.2 0-.1 0 0 .2q0 .3-.3.4t0 .6v.4q0 .2.3.2h.2l-.1.2h-.3l-.2.1-.1.1q-.2-.2-.3 0l-.2.3q-.2.6-.2 1.1v.6l.2.4v.4l-.2.2.1.5.4-.2c0-.1.4-.6.5-.5v.4l-.1.5q-.3.5 0 1c.3 0 0 .5.4.2l-.1.4-.4-.2q-.3 0-.3.3t.2.3v.5q-.2-.1-.3.1c0 .2.3 0 .4.2q0 .1-.2.2v.3l-.1.2q0 .3.2.5l.2.5q0 .5.3.5l-.2.1v.2q-.1.1-.2 0h-.7q-.2.5-.1 1.1 0 .3.5.4.3 0 .2.3t-.4.2-.3.3v.6h.2v.2l.5.3q.1.2-.2 0h-.5c-.1.1-.2.8-.1.9v.2l-.1.4v5.7q0 .3.4.3.1 0 .2.4.2.3-.1.4h-.5v.2l.2.1-.1.2v.7q.4 0 .4.3-.2.2-.5.2.1.1.2.3l-.2.2v.7l.7.2q.3.1.1.4c0 .2-.4 0-.4.3l.2.5.1.2.1.3v.2q.2 0 .2.2l-.2.2v-.4q-.2 0-.2.2l-.2.4v1.1q.2.3 0 .8 0 .1-.2-.2c-.4 0-.2 0-.2.3v.9h.3c.1-.2-.1-.3.2-.4q.3 0 .2.3v.4q-.1.1-.5 0-.2.2 0 .4s.5 0 .3.1q-.2.1-.5.2-.2.5.3.8.3-.1.4 0v.5c-.3 0-.3-.3-.5-.1q-.2.1-.1.4.1.1.2.4l-.1.4q-.3.2-.1.4v.3q0 .3.3.2l.5.1c0 .1-.6.7-.2.7v.6h.5q0 .3.3.2v.4q0 .5-.6.6-.2 0 0 .3l.1.1h-.2q0 .3.2.4.4 0 .4-.2.1 0 .4.3v.4h-.2q0 .5.2.6.2-.1.3 0v.3l-.1.1q0 .5.3.3.2-.1.6 0c.2.3 0 .5.3.8l.7.3v.2l.5.2h.7q1 0 2-.6l.8-.3c.2 0 .8 0 .8-.3l.4-.1q.5-.2.9-.5l.8-.4.4-.1q.2-.2.5-.3h.1v-.1h.3q.3 0 .3-.3l.5-.2v.1q.1 0 0-.2l.7-.2.3-.2.3-.2q.4 0 .6-.3h.3c-.1-.2.3-.2.4-.4l.3-.1.2-.2h.4q.6-.3 1-.7l.8-.4.7-.4.8-.4.6-.3h.3l.4-.3.8-.5 1.7-.7q0-.2.3-.2l1-.2 1-.2q.2 0 .4-.2h3.5l.6.2h.6l.6.2h.7q.3.2.6.1-.1 0-.2-.3.4.2.4 0 .3.1.3.4.1.3.6.3-.1-.2-.2-.3l.5.2q0 .2.2.3.1.1.1.2l.2.2.2.2q.2 0 .3.3t.3.4.1.4.3.3q0 .2.3.3 0 .3.2.4v.5l.3.2v.2q0 .1.2.3l-.1.3q.1.3.2.3.3 0 .3.2l-.2.2zm-201 21.4.1-.2.8-.2h.7q.8-.2 1.8-.2.1-.4.6-.2l.5-.1.4-.1q.4-.1 1-.4l1-.3q.2-.3.5-.5l.7-.1.8-.1v-.2q-.3.1-.4 0 0-.3.5-.2v-.1h1c.2-.3 0-.6.4-.5q.1-.2.4-.2l.4-.2h.2l.2-.1h.1q.3 0 .5-.2-.2 0-.2-.2h.3v-.3h.1l.1.4.3-.2v-.3h.4l.5-.2.1-.1h.2l.5-.2h.5q.1-.2.5-.2h.9q.6 0 1 .1.3.3.6.2l.4.3.6.6.4.3v.3l.1.1q0 .3.2.4.3 0 .3.3.1.2 0 .5l.2.1v.3l.2.4h.2v.5l.2.1.2.4v.4q0 .3.2.4l-.2.6v.6c0 .2-.3 1.1 0 1q0 .5-.2 1-.1 0-.2.3l-.1.4-.4.2-.2.4-.3.8c-.5 0-.7.8-1 1l-.4.2q0 .1-.2.2h-.1l-.5.6-.8.5q-.1 0-.4.2l-.3.3h-.2l-.1.2-.3.4q-.3.1-.7.5-.3.3-.7.4-.1.3-.4.4l-.5.4-.3.3q0 .1-.2.1l-.1.2h-.3q-.2 0-.2.2l-.2.2q0 .3-.3.4l-.3.2v.1h-.3q0 .2-.2.2 0 .3-.3.5l-.6.8-.5.8-.6.7-.6.8-.3.5-.1.4q-.3.1-.4.5l-.3.5-.1.7.1.6c-.1.3-.5.2-.6.5l-.1.4q0 .2.3.2c-.1.2-.3 0-.3.2l-.1.5v.6q.2.3 0 .4l-.5.5v.5l-.2.5.1.5v.5q0 .2.3.3 0 .3-.2.3h-.2c-.3 0-.1 0-.3.2 0 .2-.4 0-.4.2q.6.2.2.6l-.1.2q0 .2-.2.3l.1.5v.5l-.1.6-.1-.1v.4l.1.1q.1.5-.1.9v1.5q.2 0 .3.4l-.4.7v1c0 .2.2.9-.2.9q0 .2.2.4-.2.2-.2.6v3.2l-.2.6q.2.2 0 .5-.2 0 .1.3l-.1.6v1.8l-.1 1v1q.3 0 .2.2-.1 0-.2.2l.1.7v.7q0 .4-.2.6v1l-.2.3v2.7l-.2 1.2-.2.7-.1.3v.2l-.4.8-.4.9q-.1.4-.4.7l-.5.9-.3.3-.2.3-1 1-.2.2v.5l-.6-.1-.3.3-.3.3-.2.2q-.2 0-.5.2l-.3.2-.2.1-.1.1-.2.1-.3.1-.3.3-.8.5c-.2 0-.8 0-1 .2q0 .3-.3.2c0 .2-.5.1-.6.2q-.4.2-.9.3h-.5q-.1.3-.3.2h-1c-.2 0-.7-.3-.8 0l-.5-.2q-.2-.3-.5-.3v-.3h-.2l-.2-.1-.2-.1v-.1l-.1-.3-.3-.2q-.2-.2-.4-.5v-.3q0-.1-.2-.3l-.1-.2-.2-.3-.1-.4-.1-.4-.1-.5q-.1-.4-.2-1V220l.1-.5q0-.5-.2-.6v-.9q.1-.6.4-1v-1q.1-.5.1-1v-.7q-.2-.2 0-.3.4-.4 0-1h.1v-1.2l-.2-.4q-.1 0-.1-.3V210l.2-.6v-.5q0-.2.2-.4v-.4l.2-.3v-.2l-.1-.5c-.3-.2 0-.6-.2-.9l-.2-.5q.1-.3.4-.4v-.6c-.3.1 0-1.1 0-1.3-.2 0 .2-.3 0-.5v-.4c-.2-.1-.3-1 0-1q.4-.5.4-1 0-.2.3-.5v-2.5q.2-.3.2-.6v-1.2l.2-1v-2.3l.1-1 .1-1.1.1-.4v-.6q0-1 .1-2 .1-.8 0-1.7v-.7q.2-.3 0-.6l.1-.4v-.4l.1-1v-1.9l.4-2 .3-1.3q0-.6.3-1v-.5q0-.4.4-1l.3-.9.4-.7q0-.3.3-.4v-.2l.2-.1.5-.7q.3-.4.7-.6l1.3-1.3q.1 0 .3-.2h.2l.3-.2.4-.3.5-.3.4-.2.4-.1.4-.3 1.2-.4 1.3-.4q.3 0 .2.1m-23.3 19.6c.1.4-.8.1-1 .3q-.2.7-.2 1.5 0 .5.5 1.2l.3.8.3.1q-.1.2-.4.4l-.1.9q.1.4.3.7l-.2.7-.5 1.1-.2.7.2.3v.3l-.1 1.1c-.2.4-.3.4-.2.9v.4q0 .3-.2.4c-.2.4.1.6 0 1q0 .5-.2 1 0 .4-.2.9l-.4.7v1l.2 2-.2.9q-.3.5-.1 1v1.9l-.3.2v.5q0 .8-.3 1.4l-.2.2v3.2l-.3 1-.1.3v.6h-.3l.1 1q0 .6-.3 1v1l-.2 1v1l-.2.6v1.6q-.2.3-.2.5l-.2.4v1.1h.2v1l-.3.5v.3l.1.6q.1.6-.2 1c.4.5.2 1.1.3 1.6.3 0 0 .4 0 .5v.7q0 .3-.3.7 0 .4-.2.5v.1l.1.4v.5q-.2.6-.2 1.1v.5q-.1.3-.2.5-.1.7-.1 1l-.5 1v.9c0 .3-.2.2.2.2s.9-.5.8.3l-.2.7-.1.4h-.4q-.3 0-.5-.5-.1.6-.3 1-.4.4-.8.1-.5 0-.6.5l-1.2 1.1-.8.5-.6.6-.8.5-1.4 1-.8.3-.4.1-.3.3q-.4.1-1 .1l-.4.2h-.5q-1 0-2-.3l-.8-.4q-.2 0-.3-.2-.1 0-.2-.3-.2-.3-.5-.8l-.2-.8-.3-.9q0-.5-.2-.8c.3-.2 0-1 0-1.3v-4.4q.1-1 .3-2v-2.8l.1-1 .2-3.6v-1.6h-.1v-.5l.3-2 .3-1.9-.1-1 .2-.9c0-.2-.6-2 .2-1.3l.1-1.6q-.1-.5 0-1.3v-1.2c.4-1.1.2-2.7.3-3.8v-.7l.1-.8.2-1.7q-.2-.5-.2-.8c0-.3.4-.3.3-.7-.4-.2-.1-2-.1-2.4q.2-1 .3-2 .1-1.1.1-2.4l.3-2.2c0-.7.5-1.2 0-1.8l.1-.2c.4 0 .3-1 .4-1.4l.5-1.2 1.4-3.5 1-1.5q.5-.7 1.1-1.2.3-.5.7-.8l.3-.4.6-.1-.1-.2q.3-.4.9-.5l1-.7a11 11 0 0 1 5.2-2l1 .1.9.3.7.6q.4.3.6.8.4.5.5 1.3l.2.8.2.4c-.3.1-.3 1-.1 1.1.3.3.3.9 1 .9m6.5-36.9-.2.3v.3l.2.2-.3.3q.2.1.3.3h-.3v.3l-.1.3q0 .3-.2.6l-.4.6-.2.2h-.2v.3l-.1.2-.1.5q-.3.1-.4.5l-.4.2q-.3 0-.5.3.2.1.2.4l-.2.1v.2q-.4.5-.7.5-.4 0-.4.2-.2.1-.3.4-.1 0-.1.2c-.1 0-.6.1-.5.3 0 0-.6.3-.6.5q-.2 0-.3.3h-.4v.2l-.3.2-.5.1v.2h-.2l-.3.3-.3.3h-.2l-.5.3q0 .1-.2.3c0 .2-.9 0-.7.3l-.5.3q-.2 0-.2.3h-.3v-.2l-.5.3v.2h-.4l-.5.2q-.2-.2-.5-.3h-.9v-.1l-.6.1-.2-.1q.1 0 .2-.3h-.8l-.1-.2-.5-.3q-.2-.4-.2-.7l-.3-.1q0-.3-.2-.5v.2h-.2v-.3q0-.3-.3-.7v-.5l-.1-.2v-1.8l.1-.8q.2 0 .3-.2v-.3q0-.3.3-.5v-.6h.2v-.3q0-.2.3-.4l.2-.4.2-.5v-.5l.4-.3.2-.3.8-1.2.7-.4.5-.6q.2-.3.7-.5l.6-.6 1.4-1.1q.3 0 .5-.4l.5-.2.7-.5q.4 0 .5-.2l.5-.2q.4-.1 1-.4h.3l.1-.2h.4l.4-.1h.5q.4-.1.9 0h.8l.1.2.4.2v.1q.5-.2.5.4l.2.3v.4l.2.2v.3l.1.2.2.2v.4q.5.2.4.7t.3.5v.4q.3.6 0 1.2m-39.9 50 .1-.3h.3v-.5l.1-.3.1-.2v-.7q.3-.4.2-.7v-1l-.1-.1v-.4q-.1 0-.2-.2v-.4c-.1-.7.3-1.5.4-2.3v-.5l.2-.3h.2q.3 0 .5-.4l.2-.5q.1-.3 0-.5h-.4l.1-.4q0-.2.4-.4.1 0 .1-.5l-.1-.2-.1-.2v-.5q.3-.1.3-.4l.1-.2v-.3q-.2 0-.2-.4v-.5q0-.3.2-.5l.1-.5q0-.3.2-.7l.1-.3v-.2l.2-.4v-.7q0-.1.2-.3v-.1l-.1-.1.2-.2v-.4l.1-.5.2-.4v-.6l.1-.5v-.6l.3-.4.1-.5v-.6l.1-.2.1-.2v-.4l.1-.2v-.3l.2-.5.2-1.2.3-.5s0-.5.2-.4q-.1-.2-.2-.3l.2-.2v-1l.2-.2v-.4l.1-.2v-.2l.1-.6.2-.3v-.2l.1-.4h.1l.1-.2v-.9q.3.1.3-.1t0-.4v-.4l.1-.3.2-.2v-.6q.1 0 0-.2.3-.2.2-.4l.1-.5q.1-.2.2-.5l.2-.2v-.9l.1-.1.1-.3v-.3q.3 0 .3-.2l-.1-.2.1-.3.2-.2.2-.2v-.5q.1-.3.4-.3v-.4q.2 0 .2-.2v-.2l.1-.8.4-.4v-.6l.2-.6.7-.5v-.3l.1-.2v-1q.3-.2.4-.5v-.5q.2-.3.2-.6l.2-.6.1-.5.3-.6.4-.3.3-.1.2-.2q.2-.1.3-.5v-.2l.1-.3.2-.2v-.2l.3-.5.1-.3v-.2l.2-.4q-.1-.3-.1-.7.2-.1.2-.4l-.1-.2-.1-.3v-.6l.1-.6.1-.2v-.3l.2-.6v-1.7l.2-.2.1-.3v-1l.3-.3q.1-.2-.1-.5v-.4q.2-.7.5-1.2l.6-1.2q.4-.7.6-1.3v-.6l.2-.7q.3-.5.3-1.1l.2-.6v-.6l.2-.6.1-.4.3-.2q.3 0 .3-.4 0-.7.4-1 0-.2.4-.2v-.4l.2-.3q-.3-.3-.5-.7v-.7l.1-.3.2-.2.3-.6.1-.7.1-.4q.1-.3.2-.3 0-.2.3-.3v-.4l.2-.4-.2-.2v-.6q.3-.3.4-.6c0-.1.3-.6 0-.6l.2-.5v-.2c.2-.3.2-.1.3-.2q.2-.1 0-.2-.2 0-.2-.3l.1-.7.4-.8v-.3l.2-.2v-.7l.3-.6.4-.5.2-.6.1-.4v-.7l.4-.2v-.8l.2-.4h.2q.1-.3 0-.4l.2-.3.1-.1v-.3l.1-.7.1-.4q.1-.2.2-.3v-.4l.2-.3v-.4l.3-.4v-.3q0-.2.3-.5l.1-.2.2-.1v-.2h.2v-.5l.1-.1v-.5h.2l.2-.2v-.9l.1-.3.1-.1.1-.5.1-.3.3-.5v-.7l.3-.4.1-.2.3-.5v-.2l.2-.6c0-.1.4-.5.2-.6l.8-1.2q0-.3.3-.7l.2-.3q-.2-.2 0-.3s.2-.5.4-.6l.1-.8.4-.3v-.1l.2-.2v-.2l.2-.2v-.4l.1-.4v-.9q.2-.3 0-.5l.3-.7.3-.7.4-1q.1 0 .2-.3v-.4q.4-.4.5-1V92h.2v-.6c.4 0 .2-.3.4-.4v-.2l.1-.2.4-.8v-.4h.2V89q0-.4.4-.5v-.2c.2 0 .4-1 .5-1.2l1-2.4.7-1.3V83q.2-.2.2-.5l.4-.7.1-.3h.2V81q0-.4.4-.7l.4-1 .1-.2V79l.3-.4v-.3l.2-.1.2-.4.2-.5.3-.6.2-.4.3-.7.5-.7.3-.2.3-.3c0-.2 0-1.1.4-.9l.1-.5.4-.3c-.4-.2 0-.5.3-.6l.2-.3v-.3l.4-.6.5-.6.2-.2q0-.5.4-.8l1-1.2q0-.2.2-.3h.2l.2-.5.2-.4.4-.4.3-.3q0-.3.3-.5l.3-.4q.2 0 .3-.2l.1-.2q0-.2.2-.3l.1-.1.2-.3.1-.2.3-.1v-.3h.3q0-.2.2-.4h.2V63l.5-.7h.6q.1 0 .1-.4l.2-.1.2-.3v-.4l.3-.1.1.2v.2q-.2 0-.1.1v.1q.2.2.5-.1v-.2l.2-.2q.2-.2 0-.5v-.2c0-.2.3 0 .3-.2v-.3q.2-.1.2 0-.1.2 0 .3h.3v-.5l.1.2v-.3q.1-.1.3 0 0-.2.2-.2s.2 0 .2.1v.1h.2v-.2h.2v-.2q.2 0 .3-.2v-.6q.3.2.3 0t.2-.2V57q0-.3.4-.4h.4q-.1-.3-.1-.4v-.3h.3v-.4h.1l.1-.1.2-.2.1-.2v-.2l.1-.1.1-.2.4-.4.3-.6v-.2l.3-.3h.1v-.2l.3-.5v-.5q.2 0 .3-.2V51l.1-.3.1-.5.2-.5V49s-.2 0-.1-.2l.2-.2V47l-.1-.5-.1-.5v-.5l-.1-.6-.2-.5V44l-.2-.3v-.3l-.2-.5v-.3l-.2-.3-.2-.5-.1-.2-.2-.3v-.2l-.4-.7-.1-.3q-.2 0-.2-.2l-.8-.9-.4-.3-.2-.2q-.2 0-.2-.3h-.2l-.1-.2h-.1v-.2l-.4-.1v-.3h-.4l-.2-.1-.3-.3-.3-.1q0-.1-.2-.2l-.6-.2-.6-.3-.5-.3-.6-.1h-.4l-.2-.2-.5-.2-.6-.1-.7-.2h-.7l-.7-.1h-2l-.8.2q-.5.1-.8.4-.3 0-.7.2l-.7.2q-1.7 1-3 2.1-.6.4-.9.8l-.2.1-.2.1q-.2.2-.1.5-.5 0-.6.4h-.1l-.3.4-.3.4-.7.8q-.2.3-.6.7l-1 1.5q-.2.4-.3 1c-.5 0-.7 1-1 1.4l-.8 1.5-1.2 3.1-.7 1.7q-.5.8-.7 1.7-.2 1-.6 2l-.8 2-1.4 3.2-.6 1.9-.7 1.7q-.6 1.8-1.2 3.5l-.6 1.2-.4 1.4-1 2.7q-.7 1.5-1 2.9l-1.5 3.8q-.4.8-.6 1.6l-.6 1.7-.8 2-.8 2.5-1 2.8-1.3 3.4a104 104 0 0 0-3 8.7l-.3.7q-.2.5-.2.7l-.5.7-.4 1q-.4.8-.4 1.8-.2 1.2-.8 2.4l-.4 1.2q-.7 1.2-1 2.5l-.7 1.6-.4 1.8q-.4.7-.4 1.4c-.2.3-.4 1.2-.5 1.6-.2.6 0 1.2-.3 1.7q-.6.8-.8 1.8v1.9c.1.5-.4.5-.5.8l-.3 1.2q0 .6-.2 1.1l-.5 1.2-1.2 4.6-.7 2.4-.8 2.3-1 4.8-.5 1.6q.1.4 0 .8t-.4 1q0 .6-.2 1.2l-.8 2.2q-.6 2.4-1.2 4.9-.7 1.8-1 3.7l-.3 1.7-.6 1.9-.3 1.4q0 .2-.2.6l-.2.5-.2 1q-.2.6-.2 1l-.6 2.4-.9 3.6-.4 2-.6 3.5-.5 1.8-.3 1.8c-.1.5-.6 1.3-.3 1.7-.3.4-.4 1.2-.4 1.6q0 .8-.2 1.7l-.6 2.6-.5 2.2-.3 1.6-.4 2.8-.9 5.3q-.3 1-.4 2.4-.3 1.7-.7 3.5 0 .7-.3 1.4l-.2 2.7-1 5q-.2 1-.3 2l-1 6.7-.4 3.3-.1 1.7-.1 1-.2.5v.5l-.3 2.2h-.3v.7c-.2 0-.2.5-.4.6s-.3-.4-.2-.6q-.3-.4-.7 0l-.2-.7c-.2-.4-.2-.2 0-.5q.2-.7 0-1.4l-.2-.6.2-.5c0-.8-.5-.6-1-.8q0-.2.3-.4l-.2-.7v-2.3l-.3-1.2q-.2-.6-.3-1.1l.2-.5v-.7c0-.5.4-.5.3-1-.4-1.1 0-.9 0-1.3l-.4-1-.4-.3q-.3-.1-.2-.4v-.4h.2q0-.2-.2-.2v.2q-.5.3-.3-.4v-.7c.1-.2.6-.3.6-.4l-.2-.1-.2.1q0 .1-.4.1-.2.3-.3 0V217q.2-.1.3-.4l-.2-.4q-.3 0 0-.2l.1-.5.1-.4q0-.2.2-.5h.1v-.3l.2-.4q.1-.3 0-.8l-.3-.5-.1-.6q0-.3-.3-.4v-.5s-.5-.2-.2-.2q0-.4-.2-.4v-.5q-.2 0-.3-.4l-.1-.5-.1-1V206q-.2 0-.2-.3l-.1-.4-.2-.4-.2-.5q0-.5-.3-.8.2-.3.1-.4l-.1-.5v-.5q-.4 0-.2-.3h.5l.2-.4q-.2-.5-.6-.7-.3-.4-.4-1v-2l-.2-.5-.1-.5-.4-.4-.3-1.2v-.3q-.1 0-.4-.2c0-.2.3-.1 0-.3l-.2-.2v-.8q.3-.1.2-.5l-.4-.2q-.4.1-.4-.4v-1.1l-.2-.6.1-.7v-.4q0-.2-.3-.1 0-1.1-.3-2.1l.1-.3q0-.3-.2-.5-.4-.5-.3-1v-.7l-.2-.7.1-.3q.2 0 .2-.2l-.3-.1-.1-.3v-.5q-.2-.3-.2-.6.1 0 .2-.3l-.2-.2-.1-.5-.1-.3v-.1l-.1-.2q.1-.2 0-.2-.1-.2.2-.2l-.2-.2-.1-.4q0-.4.3-.5t.2-.1l-.2-.3v-.4l-.1-.3v-.4l-.3-.3q.2-.1.3-.3l-.1-.1q.1-.2.2-.3l-.2-.2q-.4 0-.6-.3v-.6q.2-.2.2-.5v-.2q-.2 0-.2-.2-.2-.6-.1-.8h.3q0-.3-.2-.2h-.5v-.3h.2v-.4l-.2-.1c0-.1-.3-.6 0-.6l.2-.1-.1-.3-.2-.2q-.2 0-.2-.3-.2-.3-.2-.7v-.3q.2-.2.2-.3l-.4-.7v-.6l-.1-.3-.1-.4v-.3l-.1-.3v-.3l-.2-1q.1-.3-.1-.7v-.6l-.2-.7-.1-.4v-.4l-.1-.9v-.3l-.2-.4v-.8l-.2-.1v-.2l-.1-.8-.2-.8v-1.2l-.1-.3h-.2v-1l-.1-.7v-.4l-.1-.2-.1-.8-.2-.8v-.4q0-.2-.2-.4v-1.1l-.2-.4-.3-1.5v-.8l-.2-.6-.5-1.4-.3-.5v-.3q0-.2-.3-.3v-.3l-.3-.6-.2-.2-.2-.3-.3-.3-.3-.4-.5-.3-.4-.5-.3-.2q-.5-.4-1-.6h-.3q-.3-.2-.7-.3l-.4-.2-.9-.1h-.8l-.2-.1h-1.1l-.7.1-.7.1-.3.2q0 .1-.2.2l-.4.1-.7.3-.5.3-1 .8-.8.7-1 1.3q-.5.8-.8 1.7l-.6 2-.2.5q0 .3-.3.5 0 .5-.2 1l-.1.4-.2.3-.2.6-.1.4v.3h-.2v.2l-.7 2.3-.2.5q0 .1-.2.4l-.2 1-.4.8-1 3.5-.5 1q-.4.6-.3 1l-.3 1.5q-.1.6-.5 1-.4.8-.4 1.5-.4.5-.5 1.2-.2.5-.1 1l-.4 1.3-.8 2.3q-.4 1-.7 2c-.1.6-.1.6-.4 1.1l-.4 1c.2.2-.2.7-.3 1q0 .7-.2 1.2l-.8 2.4c0 .7-.8 1.2-1 1.8l-.3 1.3q0 .7-.2 1.3-.2.8-.6 1.6c-.2 0-1.1.5-.5.8-.2.3-.6.4-.2 1-.1-.2-.4.7-.4.8q0 .6-.2 1.1l-1.1 2.8-1.4 3.3h.3l-.3 1-.4.9c-.2.2 0 .4-.2.7q0 .3-.3.4.1.6-.4 1 0 .4-.2.8l-.2 1q-.3 1-.7 1.8l-.6 1.9c-.4 1.2-1 2.6-.7 4q0 1 .6 2c.6.9 1.4 2 2.5 2.5q.7.4 1.4.5.4 0 .7.3h1.5l.6-.1.7-.2h.5l.2-.1.4-.1q.2 0 .3-.2l.6-.2 1.2-.9.6-.6.3-.2.2-.4c.2-.1.6.2.7 0q0-.2-.2-.3-.1-.5.2-1l.3-.5q.4-.1.3-.5-.1-.1-.1-.4.1 0 .2-.2.2 0 .2-.3v-.5q.3-.2.3-.4v-.6l.6-.7.2-.4q-.3 0-.1-.3.3-.4.6-.6 0-.3.2-.5l.2-.4v-.5l.1-.5q.1-.4.5-.9 0-.3.4-.4s.5 0 .5-.3l-.5-.1q-.2-.3 0-.5l.2-.2v-.3l.1-.2q0-.2.2-.1v-.4h.2l-.1-.2v-.2l.2-.2v-.2q.1 0 .2-.2-.2 0 0-.3l.4-.4v-.2l-.1-.2v-.5c0-.3.2 0 .2-.3v-.1h.2q.2-.1 0-.3l-.2.1h-.2v-.4q0-.2.3-.2v.1h.2q0 .2.2.1v-.2q-.1 0-.1-.1l.1-.2.1-.2v-.8l.3-.1v-.2l-.1-.1c-.3 0 0-.2 0-.5v-.4h.3v-.2q0-.2.1-.5v-.2l.4-.1.1-.3-.1-.2v-.2q-.1-.4.1-.6h.1v-.3l.1-.3q.2 0 .2-.2l.2-.1v-.1h.2v-.3h-.1q-.2 0-.1-.1v-.3l.2-.1h.2q-.1-.2-.1-.3l.4-.2q.3-.1.2-.5l-.1-.1-.1-.3c0-.3 0 0 .2 0q.1-.1 0-.3l.2-.1-.1-.2q.1-.3 0-.6v.2-.2q-.1 0-.2-.3v-.3c.2-.2.3.2.4.2l.2-.1.1-.1h.5v.2l.2-.2q-.2-.1-.3-.2.1 0 0-.1l-.2-.1v.1q-.1 0 0-.3v-.2h.1v-.5c.2 0 .5.4.6.3l.1-.2.1-.1q.1-.2 0-.4h.2l.1-.1q.1-.1 0-.3.1-.1 0-.2v-.1l.2-.1q0-.2.2-.2v-.3l.1-.1v-.4q.3-.2.3-.4v-.5q.3 0 .4-.3h.5l.1.2h.2l.3.1h.3l.1.2.2.2q0 .4.2.4h.5l-.2.2v.6l-.1.2q-.2.2-.2.5h.2l.1.3c.2.2.2-.2.2-.3l.5-.2q.3 0 .4.3 0 .3-.2.3l-.2.1v.8c0 .1-.3.1 0 .3q.1 0 .4.3l-.1.1v.2h-.2l-.2.1v.3q.2-.2.2.1l-.1.3q-.1.3-.1.5.1.2.4.3.1.3 0 .4-.4.6 0 1.2l.4.4h.2q.1.1.2.3v.5h.2q.2 0 .1.2l.2 1q0 .4-.3.7 0 .1.4-.2v1q0 .3.2.5l.1.6.1 1 .1.8.1.8.1.5q0 .5.2 1l.1 1.2v.4l.2.4v.7q0 .5.2.8l.1.9.2.7v.7l.2.5v3.1q-.1.2 0 .2.1.4 0 .3c.2.1 0 1 .4.7v.4q.3 0 .3.3v.6l.2 1.3.1.9.2.5-.2.4q.2.2.2.5l.2.4v1q.3 1.1.4 2.2v.5l.2.4v.6l.1.6v.8l.2.5.1 1 .2.5v1l.2 1v.5q.4.2.3.6v1.8h.1v.3q0 .3.2.5l.2 1v1q.1.5.2.8v.5l.1.6q0 .2.2.6v.8l.3.8v.8l.2.6v.9l.1.3v.9l.1.2q.3.3.2.7v.5c.3.2 0 .5 0 .7l.3.7v.2q-.1.2 0 .2v.4l.1.3v.7h.2v.1q-.1 0 0 .2v.7l.1.5v.4l.2.2v1.6q.2 0 .2.2v.9l.1.7v.1q.1.2.2.3v1.1q0 .3.2.2v.5l.2.3v1.4l.1.2c0 .3 0 .9.2.9l.1.5v.4l.1.3.2.6v.4l.1.2v.5q.1.2 0 .5v.4q-.4.2-.2.5v.7l-.1.4q-.1.2 0 .5h.3l.2.2.4.6v.3l.1.2.1.3-.1.2-.3.5-.2.2-.3.1q.1 0 0 .2v.2l.2-.2h.7l.2.2v.2l.2.6v.6l.1.6.2.6v.3q.2.2.1.3v.2l.1.3v.8h-.3l.3.3.1.3.2.3v.2l.1.3v.3l.1.3v1.7q-.3.3 0 .5l.2.2.1.3q.3 0 .2.5v.6l.1.3v.3l.2.2v.8l.2.7v.6q.1.2 0 .3l.2.4v.1q.1 0 0 .3v.5q-.2 0 0 .2l.1.2v.3l.1.3q.3.5.2 1l.2 1v.4l.1.5q.1.1 0 .4v.4q.2 0 .2.2v.4l.2.3v.6q0 .4.2.6-.1.2 0 .3v.4l.2.5v1.2l.2.3v.2h.1v.5l.2.6v.4q.2.1.2.5l.1.4v.5q.3.3.2.6v.3l.1.2.1.4v.4l.1.1v.4q.3.2.2.6v.7l.2.2q0 .3.2.6v.3q-.1 0 0 .1v.2q0 .2.3.5l-.1.4.1.4q0 .3.2.2l.1.4q.2.3.3.5l.2.1.3.6q.1 0 .2.2v.2h.2l.1.3.3.1q0 .2.3.3l.4.1v.2l.3.2.4.1q.3.3.7.3h.3q.3.3.5.2.3.1.6.1h1.3q.3-.1.3-.2h.4l.7-.1 1.2-.3v-.1q-.2-.1 0-.2h.3l.2-.2.3-.1.3-.2.2-.1.5-.4.3-.4.2-.2.2-.2.2-.3.1-.2.1-.1.2-.3q0-.2.2-.3v-.3l.2-.1.1-.4.2-.6.2-.7.2-.2v-.3l.1-.6q.2 0 .2-.3v-.2l.2-.7v-.6l.3-1 .1-.2-.1-.2v-.9q.4-.2.2-.6v-.7l.3-.2v-.8q0-.4.2-.7v-.6l.1-.7v-.4l.1-.7v-.4l.1-.3v-.6l.2-.6q0-.4.2-.8v-1.4l.2-.6v-.5l.1-.4v-.3l.2-.2v-1.7l.1-.2v-.3q.2 0 .2-.2v-.8q.3-.3.2-.7v-1.2h.2v-1.3q0-.2.2-.2V271l.2-.3v-1.3c.2-.2 0-.5.2-.7v-1.1l.2-.6v-.6q.1-.3 0-.6l.2-.6v-.7.1q.2-.2 0-.5l.2-.3v-1l.2-.3v-1.2l.1-.3q.2-.2 0-.2 0-.4.2-.6v-1.6l.1-.2h.1v-.5q.2-.4 0-.7l.2-.6v-.5l.2-.7V254q.1 0 .2-.2v-1q.2-.3.1-.7v-.1l.2-.1-.1-.1v-.2q.2-.2 0-.5v-.6l.2-.6v-.6l.2-.3v-1.6l.2-.3v-.7l.2-.6v-.6q.1-.2 0-.4 0-.1.2-.2v-.3l.2-.4.1-.2.1-.2v-.2h.1l.1-.3v-.2l.1-.2.1-.2v-1.3q.1-.1 0-.3h.2c-.2-.1.2-.4.2-.2h.7v-.3q.2-.2.3-.4l-.1-.3-.1-.2-.1-.2-.1-.2-.1-.1-.4-.1q-.2-.1-.2-.5v-.4l.2-.2v-.3q-.2-.1-.2-.2l.1-.3v-.2l.1-.5.1-.6v-.7l.1-.6.2-.6v-1.2l.2-.1v-.3l-.1-.5v-.6q.1 0 .2-.3c0-.3.4-.1.2-.5l.2-.2q0-.4.2-.5v-.2h.3q.1 0 .3-.3 0-.3.2-.5l.2-.4v-1l.2-.2h.2v-1.1l.1-.5.2-.3v-.5l-.2-.1v-.7h.1v-.4h-.1v-.5q-.4 0-.4.2-.3 0-.4-.3-.2-.1-.1-.4v-.2l-.1-.2v-.3q.2 0 0 0 .2-.4.2-.5l-.1-.2.1-.3v-.8l.1-.3v-.7h.2v-.3q.2 0 .2-.2v-.8l.2-.2v-1q.1 0 .2-.2l.1-.2v-.5l.1-.6v-.4l.1-.3v-.3h.5c.2-.2-.3-.4-.4-.4v-.3h.2v-.1l.1-.3-.1-.2-.2-.2v-.5l.1-.2q0-.4.4-.4l.1-.2.2-.1q.3-.6.1-1.1v-.6l-.1-.1.1-.5v-.2q0-.2.2-.4l.1-.4-.2-.3v-.5q.2-.2 0-.5 0-.5.4-1l.2-.4v-.1l.1-.1v-.3l.1-.5v-.2q0-.3.2-.4v-.2l.2-.3v-.6l-.1-.1v-.2l-.1-.2v-1h.2v-.2h.2-.1q0-.2.2-.2.3-.3.4-.3"/><path fill="#e10a0a" d="M34.3 38.3v293.5c0 11.5 9 20.9 20.4 21.5V16.8c-11.4.6-20.4 10-20.4 21.5M0 55v260c0 11.3 8.9 20.6 20 21.4V33.6C9 34.4 0 43.6 0 55"/></svg>