<svg xmlns="http://www.w3.org/2000/svg" viewBox="0 0 85.21 83.58"><g fill="#e10a0a"><path d="M66.13 14.35c-17.02-17-42.4-19.21-56.7-4.94-14.3 14.28-12.1 39.64 4.94 56.65 17.03 17 42.4 19.2 56.7 4.93 14.3-14.28 12.09-39.64-4.94-56.64Zm-20.98 61.7c-17.98 0-32.56-13.85-32.56-30.95s14.58-30.96 32.56-30.96C63.13 14.14 77.7 28 77.7 45.12c0 17.13-14.58 30.94-32.56 30.94z" opacity=".2"/><path d="M76.32 16.11C62.55 1.33 37.7 2.08 20.82 17.78c-16.88 15.7-19.4 40.4-5.64 55.18C28.95 87.75 53.81 87 70.7 71.3c16.88-15.7 19.4-40.41 5.62-55.19ZM45.15 76.06c-17.98 0-32.56-13.86-32.56-30.96s14.58-30.96 32.56-30.96C63.13 14.14 77.7 28 77.7 45.12c0 17.13-14.58 30.94-32.56 30.94z" opacity=".2"/><path d="M69.72 16.31A36.62 36.62 0 0 0 7.24 42.16a36.53 36.53 0 0 0 22.6 33.78 36.64 36.64 0 0 0 47.82-19.78 36.52 36.52 0 0 0-7.94-39.85zM54.09 28.5a1.32 1.32 0 0 1 1.3-.13c.62.36 0 1.23 0 1.23s-.69 1.05-1.27 1.1c-.45.06-1.05-.15-1.05-.7a2.3 2.3 0 0 1 1-1.5zm-2.47 13.27s.57-6.43.68-7.02c.14-.79.33-.93.33-.93s.8-.97 1.46-.8c.59.08.52.97.52.97l-.37 4.33a28.66 28.66 0 0 1-.2 3.06 2.6 2.6 0 0 1-1.75 1.12.86.86 0 0 1-.33-.07.63.63 0 0 1-.36-.66zm-11.26-2.52a.8.8 0 0 1 1.02.47 1.05 1.05 0 0 1-.26 1.39l-.86.64c-.34.32-.65.67-.92 1.05-.26.45-.4.95-.4 1.47-.11.82-.2 3.4-.2 3.4s.18.35-.2 1.05c-.3.51-.79.9-1.36 1.08 0 0-.52.15-.8-.13a1.3 1.3 0 0 1-.28-.7l.42-7.1a2.25 2.25 0 0 1 .83-1.53 4.32 4.32 0 0 1 1.65-.47zM26.94 60.18s-.2 1.1-1.13 1.1a1.05 1.05 0 0 1-1.05-.73l-2.94-17.58s-.08-.61-.45-.32c-.2.36-1.9 4.68-1.9 4.68a1.13 1.13 0 0 1-1.35.47.93.93 0 0 1-.65-1.05l3.42-10.03a1.43 1.43 0 0 1 1.4-.78c.92.13 1.1 1.32 1.1 1.32l2.25 13.5s.05.24.16.24c.1 0 .15-.37.15-.37s1.05-7.3 2.34-12.48c.3-1.18 1.5-5.67 2.69-9.05 1.57-4.56 3.33-8.57 3.33-8.57s1.17-2.23 3.1-1.05a1.96 1.96 0 0 1 .33 3 16.6 16.6 0 0 0-2.42 3.18c-1.72 3.16-3.41 9.2-4.44 12.68-1.27 4.7-2.22 9.47-2.86 14.29-.28 1.63-1.1 7.55-1.1 7.55zm6.9-21.1c-.17.05-.35.14-.77-.23-.42-.37-.09-.96.14-1.38a4.1 4.1 0 0 1 1.1-.91s.72-.32.92-.09c.12.17.2.37.24.58a.97.97 0 0 1-.2.83c-.41.46-.9.87-1.43 1.2zm-.3 12.03a.88.88 0 0 1-.28.63c-.33.26-.68.5-1.05.72 0 0-.2.16-.72 0a.78.78 0 0 1-.33-.63s.34-6.67.47-7.39c.06-.43.2-.85.41-1.24 0 0 .88-1.13 1.79-1.05.42.07.52.58.52.66.26.8-.8 8.3-.8 8.3zm34.99-12.6c-.76.32-1.54.6-2.33.83-.46.07-4.9 2.27-7.07 3.42a90.64 90.64 0 0 0-9.8 6.11v.03s-.2 9.15-.2 9.9c0 2.63.9 4.52.8 5.55a1.5 1.5 0 0 1-1.87 1.49c-1.38-.21-1.28-2.32-1.28-2.32l.17-6.91v-6.05c-3.47 2.37-6.75 5-9.82 7.88-1.38 1.4-5.23 5.84-5.98 5.97-.52.07-1.13.2-1.61-.34a1.5 1.5 0 0 1-.23-1.44c.86-1.7 7.4-6.9 8.41-7.83.78-.7 5.86-4.46 9.22-6.86v-1.26c0-.4-.25-.17-.25-.17l-.9.53s-1.4.67-2.53.2c-.77-.33-1.01-1.37-1.06-1.72a48 48 0 0 1-.05-2.15c0-1.44.26-2.87.79-4.2a4.61 4.61 0 0 1 2.81-2.68.62.62 0 0 1 .6.04.81.81 0 0 1 .16.87c-.12.38-.34.72-.65.97-.29.4-.53.81-.73 1.26a24.1 24.1 0 0 0-.6 3.73c-.05.43.03.86.23 1.24 0 0 .2.45.95.2a1.43 1.43 0 0 0 1.01-.88c.11-.24.2-.5.23-.77l.63-6.9a1.44 1.44 0 0 1 1.23-1.1c.92-.09 1.11.49 1.13.6.14.86-.44 6.59-.52 7.47-.04.42-.08 1.76-.1 3.04l.08-.05c2.24-1.48 9.99-5.9 9.99-5.9l2.93-1.72a1.35 1.35 0 0 1-.71-1.12c0-.76.2-5.13.2-5.13a.72.72 0 0 0-.29-.65.6.6 0 0 0-.68-.05c-.54.4-1.02.86-1.42 1.39-.37.93-.59 1.9-.66 2.9-.04.91-.02 1.82.05 2.73a1.9 1.9 0 0 1-.34.86c-.3.27-.65.48-1.03.62a.97.97 0 0 1-.9.05.84.84 0 0 1-.36-.8l.33-6.47c.05-.49.23-.95.53-1.35.4-.38.94-.6 1.5-.6a4 4 0 0 0 1.46-.11c.19-.1.35-.24.49-.4.43-.51.95-.93 1.54-1.25a1.35 1.35 0 0 1 1.34-.09 1.15 1.15 0 0 1 .7.96c.2 2.87-.04 5.61 0 6.03a1.15 1.15 0 0 0 .52 1c.37.23.95-.16.95-.16l2.4-1.2a1.84 1.84 0 0 1 1.78.43c.7 1.03-.4 1.92-1.2 2.31z"/></g></svg>