<svg xmlns="http://www.w3.org/2000/svg" height="190" width="190"><g fill="#ed1a37"><path d="M61.036 78.406c-.004.008-.009.013-.013.02.003-.005.008.006.01 0a.19.19 0 00.003-.02M61.036 78.406c.014-.028.04-.045.047-.066-.033-.021-.04.034-.047.066"/><path d="M175.27 122.61c-3.513 2.93-7.71 4.414-12.472 4.414-7.48 0-14.954-3.596-19.907-6.613-8.45-5.42-15.912-12.897-24.97-25.411 9.058-12.515 16.52-19.993 24.97-25.411 4.953-3.018 12.428-6.615 19.907-6.615 4.762 0 8.958 1.485 12.473 4.415 7.867 6.552 10.667 17.992 10.667 27.61 0 9.619-2.8 21.058-10.667 27.61M73.027 135.709c-7.825 4.766-19.71 10.476-31.658 10.476-7.717 0-14.512-2.418-20.22-7.163C8.594 128.586 4.069 110.167 4.069 95c0-15.169 4.525-33.587 17.08-44.024 5.707-4.744 12.503-7.161 20.22-7.161 11.948 0 23.833 5.71 31.658 10.476 13.387 8.585 25.74 20.96 39.869 40.708-14.13 19.747-26.482 32.122-39.87 40.708m104.844-71.44c-4.214-3.615-9.337-5.357-15.076-5.357-8.421 0-16.624 3.92-22.062 7.233-8.847 5.673-16.672 13.524-25.325 25.41 0 0-17.841-26.708-40.23-40.708-8.249-5.158-20.92-11.094-33.812-11.094-8.693 0-16.36 2.74-22.823 8.103C11.211 53.94.001 68.356.001 95s11.21 41.06 18.541 47.146c6.462 5.364 14.13 8.104 22.823 8.104 12.892 0 25.563-5.936 33.813-11.095 22.388-14 40.229-40.708 40.229-40.708 8.653 11.887 16.478 19.738 25.325 25.411 5.438 3.313 13.64 7.233 22.062 7.233 5.739 0 10.861-1.742 15.076-5.357C185.937 118.81 190 108.126 190 95c0-13.127-4.062-23.812-12.13-30.734"/></g></svg>