<svg xmlns="http://www.w3.org/2000/svg" width="19.193" height="19.193"><g fill="#e10a0a" fill-rule="evenodd"><path d="M7.04 9.148c-.139.29-.091.62-.122.93-.008.171-.024.344-.04.514-.047.138-.039.287-.037.43-.042.15.007.299-.014.451-.026.179-.02.361-.006.54.023.16.191.285.347.204.264-.082.521-.296.54-.59.044-.347.021-.7.063-1.047-.026-.181.028-.346.069-.512.029-.148.063-.297.165-.414.153-.242.44-.348.608-.575a.396.396 0 00-.017-.416c-.062-.19-.3-.15-.432-.065-.119.06-.243.108-.365.163-.178.042-.372.044-.53.15a.567.567 0 00-.229.237zM6.135 9.9c-.026-.077.099-.089.01-.156.014-.135-.072-.303-.229-.29-.207.009-.394.133-.542.27-.253.261-.282.643-.307.987-.014.272-.02.545-.044.816-.033.122-.015.27-.043.403-.008.358-.051.717-.021 1.074.04.179.28.202.417.125.134-.064.255-.154.367-.249.054.002.083-.061.133-.064.044-.084-.107-.025-.04-.129.03-.132.058-.266.076-.4a2.842 2.842 0 01.043-.667c.025-.14.05-.282.06-.424.075-.163.035-.347.053-.519.07-.14.058-.306.083-.457.056-.103.029-.217-.016-.32z"/><path d="M4.39 10.432c.13-.561.225-1.163.385-1.737.16-.492.44-.904.454-1.432.215-.458.264-.931.44-1.409.177-.55.421-1.068.62-1.608.257-.592.541-1.258 1.054-1.648.296-.295.564-.826.247-1.23-.47-.58-1.286-.123-1.462.484a78.624 78.624 0 00-1.546 4.174c-.431 1.58-.9 3.175-1.152 4.805-.132.65-.191 1.317-.328 1.965-.176-.391-.202-.905-.197-1.34-.138-.46-.16-.91-.319-1.357-.076-.411-.1-.806-.194-1.204-.165-.509-.03-1.176-.445-1.565-.712-.312-.827.661-1.004 1.12C.658 9.393.307 10.3 0 11.237c.052.767.968.297.944-.26.19-.401.24-.872.49-1.23.317.049.22.644.355 1.002.156 1.083.324 2.175.498 3.263.021.388.147.788.21 1.23-.016.56.36 1.909.986 1.026.25-1.06.274-2.163.493-3.225.028-.344.223-.867.155-1.255.09-.457.187-.91.26-1.355zM12.639 9.454c.187.005.345-.114.509-.188a.719.719 0 00.275-.299c.048-.132-.016-.262.004-.397.009-.135.007-.27.034-.403.139.048-.084-.136.06-.081.059-.014-.1-.085-.052-.155.026-.104.094-.201.05-.32-.004-.11.022-.22 0-.327.015-.14-.039-.289.027-.428-.003-.101.044-.22.045-.34.063-.11.015-.228-.037-.328.012-.17-.2-.145-.312-.133a.741.741 0 00-.525.454c-.07.165-.06.349-.095.522-.09.616-.148 1.236-.22 1.854-.008.148-.05.306.006.449.043.085.142.116.23.12zM13.071 5.342a.395.395 0 00.258.086c.074-.005.14-.047.203-.083a.551.551 0 00.2-.21c.07-.089.153-.173.18-.286.02-.08.03-.17-.018-.241-.023-.024-.029-.078-.067-.077-.055 0-.105-.033-.161-.031a.653.653 0 00-.415.162.706.706 0 00-.243.371.425.425 0 00.041.283c.007.01.014.018.022.026z"/><path d="M19.193 7.547c-.46-.887-1.36.316-1.968.152-.17-.188-.172-.44-.145-.658-.016-.33-.025-.703-.018-1.025.05-.324.085-.658-.045-.998-.623-.716-1.142.539-1.742.487-.97-.177-1.07.915-1.025 1.615.077.555-.286 1.324.115 1.74.535.102.892-.551.746-.926.015-.327.018-.612.11-.904a1.344 1.344 0 01.2-.826c.144-.495 1.047-.641.734.048.178.607-.155 1.29.103 1.884.353.33-.723.5-.931.753-1.232.683-2.453 1.37-3.638 2.134-.017-1.158.133-2.33.214-3.476.084-.933-1.17-.388-.9.318-.069.772-.087 1.543-.265 2.301-.26.665-1.043.277-.783-.345.032-.545.062-1.111.416-1.565.578-.381.143-1.094-.396-.563-.846.6-.924 1.735-.903 2.677-.243.807.596 1.344 1.26.961.355-.225.583-.305.464.243-1.117.887-2.338 1.673-3.433 2.604-.996.843-2.05 1.644-2.903 2.636-.533.75.793 1.098 1.056.344.907-.947 1.798-1.912 2.84-2.714.81-.627 1.573-1.33 2.444-1.869.003 1.588-.023 3.161-.076 4.75-.195.787 1.065 1.07 1.106.364.072-.307.018-.463-.111-.754.14-.155-.083-.615-.094-.84a5.317 5.317 0 01-.025-1.102c-.034-.29.039-.857.008-1.302.01-.38.017-.785.01-1.139-.067-.553.335-.917.84-1.15 1.553-.987 3.16-1.903 4.834-2.67.633-.324 1.548-.294 1.87-1.037.076-.01-.02-.092.031-.148zM6.355 7.866c.028-.028.052-.06.077-.091a.375.375 0 00.065-.2c.004-.06-.026-.111-.052-.162-.016-.05-.041-.11-.1-.12a.456.456 0 00-.348.092c-.078.053-.157.107-.227.171-.043.051-.1.094-.123.158-.026.073-.071.14-.077.218-.013.092.021.197.107.243.067.044.158.056.229.014.105-.048.2-.113.298-.174a.478.478 0 00.15-.15z"/></g></svg>