<svg xmlns="http://www.w3.org/2000/svg" viewBox="0 0 198 40"><path d="M138.84 21.46h21.24v-3.34h-21.24V4.26h22.83V.86h-26.44V39.2h26.6v-3.4h-22.99zm-14.85 14.57h-1.86l-14.7-31.27Q105.38.32 101.17.32a5.83 5.83 0 0 0-4.35 1.7 5.99 5.99 0 0 0-1.67 4.38v32.8h3.61V6.5a2.93 2.93 0 0 1 .66-1.96 2.07 2.07 0 0 1 1.64-.77q1.7 0 2.95 2.74L119.4 39.2h8.2V.87H124zM198.2.87a108.87 108.87 0 0 1-6.48 16.02 103.6 103.6 0 0 1-8.4 14.15l-5.85 8.16h-4.37l7.65-10.35L165.81.87h4.1l13.13 24.64a95.47 95.47 0 0 0 6.2-11.45 109.13 109.13 0 0 0 5.18-13.2zM84.74 16.47c-.2.28-.21.5-.56.7-1.14.88-2.56.77-3.71 1.61l-2.41 1.28c-1.1.76-2.39 1.28-3.47 2.07-.42.25-.95.55-1.3.87-.34.14-.48.4-.42.76-.07.31-.01.76-.05.99l-.01 1.06c.12.1-.11.19.02.29l-.04 1.31c.07.15-.15.43.04.56-.3.4.25.92-.1 1.18.12.26.1.62.2 1.03.09.09-.13.3 0 .39.08.03.14 0 .1.16.03.11.07.24.1.23-.07.22-.19.21-.11.26 0 .33.18.24.26.47-.02-.02-.1.03-.1.03.05.15-.22-.02 0 .14-.06.08-.1.1 0 .14 0 .14.17.12.07.32 0 .62-1.56 1.16-1.76.1-.16-.72-.01-2.22-.03-3.23l.04-2.52c.06-.7.12-1.97-.07-2.32-.6.57-1.32.9-1.95 1.43-.8.98-2 1.5-2.9 2.37-.78.68-1.52 1.41-2.18 2.18l-1.92 1.93c-1.18.27-1.44-1.58-.38-2.02.91-.64 1.54-1.64 2.54-2.15.64-.5 1.2-1.15 1.9-1.47.61-.55 1.2-1.2 1.85-1.6l2.49-1.86c.25-.2.75-.34.65-.73.01-.1.06-.68-.13-.47-.39.23-.72.43-.98.43-.63.23-1.47.02-1.55-.74-.11-.73-.07-1.5.02-2.22a4 4 0 0 1 1.07-2.76c.37-.26.81-.72 1.28-.37.2.14 0 .41.01.58-.1.23-.34.35-.43.57-.18.18-.18.37-.34.57-.16.43-.18.86-.21 1.27-.68.9.52 2.58 1.1 1.12.65-1.45.08-3.13.66-4.67.13-.14.32-.25.45-.36 1.07.02.76 1.12.73 1.81-.05.33-.12.98-.12 1.44-.09.7-.08 1.33-.11 2.03.08.22-.15 1.01.02 1.1 1.12-.71 2.19-1.52 3.4-2.07.87-.3 1.54-1.04 2.4-1.38.65-.41 1.89-.75 1.2-1.74-.06-1.03.1-2 .05-3-.54-.54-1.2.41-1.4.87-.07.16-.07.48-.17.6.16.04-.04.44-.1.49.02.2.02.5 0 .66-.16.01-.1.46.02.48-.08.42-.01.8-.23 1.24-.3.78-2.08.43-1.28-.78.05-.45-.05-.97.06-1.42-.25-1.28.19-2.83 1.71-2.84.92-.1 1.4-1.32 2.46-.91.48.41.34 1.07.33 1.57.2.28-.06.15-.06.33.1.5-.03 1.08.04 1.59-.1.44.05.67.12.95.4.37 1.05-.07 1.07-.13.54-.3 1.17-.71 1.73-.52.14.1.2.03.28.28.13.09.13.35.11.44zm-20.5 1.08c-.05.02-.09.07-.14.08 0 .02-.08.03-.08.06-.03 0-.03-.04-.06 0-.02.06-.11.02-.14.01l-.1-.01c-.02.01-.06.02-.02-.02-.05-.05-.14-.03-.15-.11-.06-.04-.07-.07-.08-.14a.82.82 0 0 1 .28-.79c.28-.24.64-.35 1-.45.04-.03.06.04.08.08.04.1.05.19.12.26l-.02.19c.01-.01.03 0 .02.02-.05.02.02.07-.02.06-.14.18-.12.44-.38.54-.04.05-.13.07-.16.12a.42.42 0 0 0-.15.1zm-.22 5.17c-.22.47-.05 1-.15 1.5-.06.23 0 .47-.06.7-.09-.08-.14.07-.23.12-.25.23-.59.43-.94.32-.12 0-.11-.14-.15-.22-.08-.25-.19-.49.03-.77v-.66c-.05-.48.08-1.01.12-1.52.06-.38-.1-.73.04-1.1.06-.21 0-.4.13-.59.07-.2.1-.44.26-.6.16-.12.25-.25.4-.4.23-.23.52 0 .63.23.03.12.22.25.23.3-.36 0 .39 1-.06.77.02.65-.1 1.32-.25 1.92zm-2.88-.57c-.1.01-.05.22-.06.25-.27.42 0 .72-.06 1.11-.1.31-.3.58-.24.93.02.3-.02.36-.06.58-.2.53-.14 1.12-.27 1.67L60 29.74c.02.5-.55.86-1 .6-.4-.38-.31-1.03-.5-1.53-.04-.92-.42-1.71-.41-2.6-.15-.95-.4-1.87-.34-2.85-.15-.8-.41-1.5-.44-2.34-.15-.39-.07-1.16-.5-1.33 0 .2-.16.22-.19.37-.04.06-.13.35-.2.48-.15.23-.1.55-.25.78-.08.73-.7 1.82-1.5 1.09.02-.94.39-1.84.73-2.74.45-1.18.4-2.59 1.23-3.6.87-.82 1.43.5 1.55 1.2.1.46-.11 1.12.2 1.46.06.87.21 1.75.5 2.58.17.96.2 1.74.29 2.7.12.61.32.52.3-.13l.66-4.24c-.15-1.15.66-2.16.85-3.27.28-.88.32-1.91.68-2.72l1.12-3c.49-1.17.59-2.53 1.34-3.58.24-.2.4-.54.59-.75.88-.44 1.82.1 1.83 1.07-.1.27-.22.57-.36.78-.15.26-.46.41-.63.67-.29.25-.46.66-.66.93-.33.59-.5 1.19-.81 1.8l-.7 1.87c-.36 1.03-.5 2.12-.91 3.15-.2.75-.59 1.48-.67 2.23-.34 1.06-.4 2.02-.6 3.12zm5.64-3.97c.12-.12.53-.1.49-.2.05.02.05-.04.09-.02.06-.02.1-.07.17-.08.08.01.04-.06.11-.05.16-.1.38-.15.53 0 .11.1.2.26.21.4.06.08-.02.19 0 .28-.06.24-.3.37-.46.55-.1.1-.25.11-.3.22-.02 0-.07 0-.06.04-.02.06-.12.05-.12.12-.08.2-.34.33-.34.55-.08.17-.04.42-.19.61.05.07-.04.2-.02.27.06.3-.07.54-.04.82-.01.48.02 1-.12 1.43-.18.19-.3.43-.5.6-.09.04-.17.1-.27.12-.14.08-.4.11-.51-.03-.2-.46 0-.97-.13-1.44.16-.5-.09-.95.09-1.4-.01-.4.1-.77.1-1.16-.06-.23-.03-.52.06-.76-.08-.24.17-.46.38-.58.17-.09.34-.2.52-.24.02.02.04-.02.07-.02.08-.04.18 0 .24-.03zm7.5-.11c.06-.3.02-.63.1-.93 0-.24.05-.46.07-.7-.03-.06.02-.14 0-.16.04-.14 0-.36.07-.5-.02-.01-.02-.09.01-.1-.02-.14.04-.3.04-.46.09-.37.26-.86.67-.98.17-.1.52-.13.57.11v.13c.04-.04.05.01.03.04 0 .06.06.02.04.07.03.05 0 .11.03.17-.03.01-.02.05-.04.06 0 .07-.02.1-.04.19-.02.03.04.02.04.02-.05.02-.03.07-.02.1-.02.02-.04.07-.02.1-.04.02.03.11-.06.13-.02.07.1 0 .05.06 0 .03-.02.05-.05.04.03.14-.01.11-.01.26-.04.08.01.21 0 .24-.03.01 0 .03.02.02-.02 0 .02.02-.01.03.02.09-.07.19 0 .28v.47c.09.2-.14.32-.02.55l.02.17c-.18-.14-.02.05 0 .14-.22-.14-.1.32-.13.43-.04.01.05.12-.01.14.04.16.05.36.05.53-.04.14-.08.3-.19.41-.26.3-.65.46-1.04.48-.23-.08-.35-.55-.27-.79l.03-.4zm.78-5.77c.04-.06.01-.15.03-.21.08-.14.2-.24.31-.35.1-.1.24-.19.38-.24a.38.38 0 0 1 .34.04c.13.08.25.18.4.22.02.07.03.14-.02.19-.19.26-.4.5-.65.69-.14.1-.3.2-.47.22-.12 0-.22-.07-.27-.18a.83.83 0 0 1-.07-.32l.02-.06zm11.62-2.5a19.37 19.37 0 0 0-36 6.68c-1.27 8.13 2.01 16.68 9.24 20.92a19.88 19.88 0 0 0 22.73-2.13c7.03-6.2 8.55-17.35 4.03-25.47zM21.73 32.74a5.15 5.15 0 0 1-.82 3.1 2.63 2.63 0 0 1-2.24 1.12 2.49 2.49 0 0 1-1.89-.72 2.73 2.73 0 0 1-.68-1.97 5.57 5.57 0 0 1 .4-2.1 19.97 19.97 0 0 1 1.46-2.72l3.77-5.86zM37.75.32q-4.1 0-6.95 4.43l-5.74 8.93q0-6.3-3.33-9.97A11.59 11.59 0 0 0 12.7.04a11.76 11.76 0 0 0-9.16 3.7q-3.36 3.7-3.36 10V39.2h3.6V13.8a11.36 11.36 0 0 1 2.38-7.61 8.13 8.13 0 0 1 6.54-2.8 8.13 8.13 0 0 1 6.53 2.8 11.36 11.36 0 0 1 2.38 7.61v4.6l-6.23 9.37a19.31 19.31 0 0 0-2.1 3.75 8.62 8.62 0 0 0-.58 3.1 5.13 5.13 0 0 0 1.61 3.88 6.05 6.05 0 0 0 4.35 1.53 6.17 6.17 0 0 0 4.75-1.89 7.32 7.32 0 0 0 1.75-5.17V19.43L33.6 6.45q1.75-2.74 4.05-2.74a2.99 2.99 0 0 1 2.35 1 3.99 3.99 0 0 1 .87 2.73V39.2h3.61V7.33a7.1 7.1 0 0 0-1.8-5.12A6.48 6.48 0 0 0 37.75.3z" fill="#e10a0a"/></svg>
