<svg xmlns="http://www.w3.org/2000/svg" viewBox="0 0 256 234.64"><defs><linearGradient id="b" x1="-41.24" x2="66.55" y1="173.39" y2="116.04" href="#a"><stop offset=".07" stop-color="#85148a"/><stop offset=".3" stop-color="#7f21a9"/><stop offset=".66" stop-color="#5b2ab5"/><stop offset=".85" stop-color="#4b20a0"/></linearGradient><linearGradient id="c" x1="177.7" x2="68.07" y1="-2.18" y2="228.58" href="#a"><stop offset="0" stop-color="#4b20a0"/><stop offset=".27" stop-color="#6d37cd"/><stop offset=".78" stop-color="#7a41dc"/><stop offset="1" stop-color="#ca59f7"/></linearGradient><linearGradient id="f" x1="137.16" x2="58.14" y1="93.14" y2="149.67" href="#a"><stop offset="0" stop-color="#30116e" stop-opacity="0"/><stop offset=".16" stop-color="#30116e" stop-opacity=".7"/><stop offset=".71" stop-color="#30116e"/><stop offset="1" stop-color="#30116e" stop-opacity="0"/></linearGradient><linearGradient id="g" x1="67.93" x2="188.02" y1="14.8" y2="249.32" href="#a"><stop offset=".04" stop-color="#ffbac7"/><stop offset=".19" stop-color="#ea71ef"/><stop offset=".35" stop-color="#ca59f7"/><stop offset=".62" stop-color="#8b52f4"/><stop offset="1" stop-color="#5750e2"/></linearGradient><linearGradient id="j" x1="216.62" x2="216.62" y1="-21.3" y2="263.93" href="#a"><stop offset="0" stop-color="#ffbac7"/><stop offset=".29" stop-color="#ea71ef"/><stop offset=".68" stop-color="#8b52f4"/><stop offset=".92" stop-color="#5750e2"/></linearGradient><linearGradient id="a" gradientUnits="userSpaceOnUse"/><path id="d" d="M241.24 28.48a24 24 0 0 0-28.68 8.08l-.08.12L192 64.92l-38 52.4-39.72 54.76-18.76 25.88-.08.12a24 24 0 0 1-30.16 7.4q-.13-.06-.2-.12l-51.52-26.44a23.99 23.99 0 0 0 30.56-8.52L52 158.28l26.64-40.96 35.64-54.76 33.6-51.64A23.9 23.9 0 0 1 168 0c3.28 0 6.4.64 9.24 1.84z"/><path id="h" d="m241.24 206.16-64 26.64a24 24 0 0 1-9.24 1.84 23.9 23.9 0 0 1-20.12-10.92l-33.6-51.64-35.64-54.76L52 76.36l-7.88-12.12a24 24 0 0 0-30.56-8.52l51.52-26.44.2-.12a24 24 0 0 1 30.16 7.4l.08.12 18.76 25.88L154 117.32l38 52.4 20.48 28.24.08.12a24 24 0 0 0 28.68 8.08"/><radialGradient id="i" cx="-1143.68" cy="707.32" r="1" fx="-1143.68" fy="707.32" gradientTransform="matrix(215.73706 86.682 197.19842 -491.99124 107272.26 447262.82)" href="#a"><stop offset=".61" stop-color="#8b52f4" stop-opacity="0"/><stop offset=".98" stop-color="#30116e"/></radialGradient></defs><path fill="url(#b)" d="m65.08 205.36-51.52-26.44-.48-.24A24 24 0 0 1 0 157.32v-80C0 68 5.32 59.92 13.08 55.96l.48-.24 51.52-26.44A24 24 0 0 0 52 50.64V184c0 9.32 5.32 17.36 13.08 21.36"/><use fill="url(#c)" href="#d"/><use fill="url(#f)" fill-opacity=".3" href="#d"/><use fill="url(#g)" href="#h"/><use fill="url(#i)" href="#h"/><path fill="url(#j)" d="M256 50.64V184c0 9.96-6.08 18.52-14.76 22.16l-64 26.64A23.95 23.95 0 0 0 192 210.64V24c0-10-6.08-18.56-14.76-22.16l64 26.64A24 24 0 0 1 256 50.64"/></svg>