<svg xmlns="http://www.w3.org/2000/svg" width="24" height="24" fill="none"><path d="M12 24c5.259 0 8.18 0 10.09-1.91C24 20.18 24 17.258 24 12c0-5.259 0-8.18-1.91-10.09C20.18 0 17.26 0 12 0 6.741 0 3.816 0 1.91 1.91.004 3.82 0 6.74 0 12c0 5.259 0 8.18 1.91 10.09C3.82 24 6.74 24 12 24z" fill="#ef3939"/><path d="M19.802 7.56c-.58-1.045-1.576-1.9-2.514-2.64-.938-.74-1.859-1.185-3.01-1.504-1.151-.32-2.328-.314-3.513-.164s-2.205.42-3.24 1.017c-1.035.597-1.838 1.327-2.562 2.278-.724.95-1.205 1.893-1.505 3.05-.3 1.155-.41 2.436-.24 3.618.17 1.182.377 2.307.991 3.332l.05.087 4.228 7.328c.702.019 1.461.027 2.278.025h1.2a56.328 56.328 0 005.747-.17c1.913-.21 3.287-.68 4.34-1.739 1.547-1.547 1.84-3.76 1.894-7.339z" fill="url(#paint0_linear)"/><path d="M18.357 5.633A8.997 8.997 0 004.516 16.999a8.998 8.998 0 0015.797-1.552 8.991 8.991 0 00-1.956-9.814zm-.54 4.143l-4.45 7.747a1.488 1.488 0 01-1.223.808 1.412 1.412 0 01-1.409-.75c-.938-1.615-1.868-3.241-2.799-4.864-.57-.985-1.137-1.973-1.701-2.963A1.496 1.496 0 017.45 7.487a1.448 1.448 0 011.372.775c.42.725.833 1.449 1.246 2.173.3.522.59 1.043.898 1.558a2.355 2.355 0 001.97 1.217 2.4 2.4 0 002.534-2.134c0-.097 0-.195.022-.246a2.536 2.536 0 00-.253-1.119 1.496 1.496 0 112.795-.93c.04.346-.036.697-.217.995z" fill="#fff"/><defs id="defs34384"><linearGradient id="paint0_linear" x1="7.482" y1="4.223" x2="18.941" y2="24.076" gradientUnits="userSpaceOnUse"><stop stop-opacity=".2" id="stop34379"/><stop offset=".79" stop-opacity=".05" id="stop34381"/></linearGradient></defs></svg>