<svg xmlns="http://www.w3.org/2000/svg" viewBox="0 0 585.1 384.3"><path fill="#97c941" d="M320.2 167.2a117.5 117.5 0 0 0-39.5 16.7 99.8 99.8 0 0 0-29 28.5 83.4 83.4 0 0 0-11.1 69.9 90 90 0 0 0 18.8 33.8c9 10.4 20.1 19 33.1 25.3a128.4 128.4 0 0 0 84.2 10c14.6-3.2 28.1-8.9 40.2-16.8a101.5 101.5 0 0 0 28.6-27.9l86.4-166.9-211.7 27.5m28.7 217a159 159 0 0 1-70.5-16.4 137 137 0 0 1-42.4-32.6 117.2 117.2 0 0 1-24.9-45 110.9 110.9 0 0 1-3-48.6c2.5-16.3 8.5-31.7 18-45.8a133 133 0 0 1 37.5-37 152 152 0 0 1 50.5-21.3l1.3-.2 269.7-35-113.4 219-.4.7a131.3 131.3 0 0 1-37.6 37 151.8 151.8 0 0 1-50.5 21.2c-11.2 2.7-22.8 4-34.3 4" style="mix-blend-mode:multiply"/><path fill="#21a0db" d="M124.3 196.4a69.6 69.6 0 0 0 .3 60.7 79.3 79.3 0 0 0 20 25.5 96.2 96.2 0 0 0 30 17.6 108.8 108.8 0 0 0 74.6 0 98.2 98.2 0 0 0 30.1-17.6 84 84 0 0 0 20-25.5 69.8 69.8 0 0 0 .2-60.7L212 57.1l-87.7 139.3M212 336.6c-16.7 0-32.8-2.8-48-8.4a128 128 0 0 1-39.8-23.2A111.2 111.2 0 0 1 97 270a98.7 98.7 0 0 1 0-87l.4-.7.4-.7L212 0l114.5 182.1.4.7a98.7 98.7 0 0 1 0 87c-6.4 13.2-15.5 25-27.2 35a134.2 134.2 0 0 1-87.7 31.8" style="mix-blend-mode:multiply"/><path fill="#85298b" d="M85.2 287.3c2.8 4.5 6.7 8.4 11.4 11.8a54.5 54.5 0 0 0 36 9.3c6.4-.6 12.5-2.2 18.1-4.7a47.2 47.2 0 0 0 14.7-10.4c4-4.2 6.8-8.8 8.4-13.9a33 33 0 0 0 1.5-14.6 35 35 0 0 0-5-14.2 43.3 43.3 0 0 0-11.8-12.4c-4.9-3.5-10.4-6-16.5-7.6L51.6 216l33.6 71.3m42.4 51.2a86.2 86.2 0 0 1-48.9-15.2 72.6 72.6 0 0 1-20-21.3l-.5-.7L0 177.1l149.3 24.2c10 2.5 19.2 6.8 27.4 12.5a72.6 72.6 0 0 1 20.1 21.3 62.2 62.2 0 0 1 6.2 53.5 68.5 68.5 0 0 1-15 24.8 78 78 0 0 1-24.1 17.4 85.9 85.9 0 0 1-36.2 7.8" style="mix-blend-mode:multiply"/></svg>