<svg xmlns="http://www.w3.org/2000/svg" width="36" height="36"><g fill="none" fill-rule="evenodd"><path fill="#4986CC" d="M12.48 0h11.04C33.6 0 36 2.4 36 12.48v11.04C36 33.6 33.6 36 23.52 36H12.48C2.4 36 0 33.6 0 23.52V12.48C0 2.4 2.4 0 12.48 0z"/><path fill="#FFF" d="M29.45 11.948c.166-.546 0-.948-.795-.948H26.03c-.668 0-.976.347-1.143.73 0 0-1.335 3.196-3.226 5.273-.612.6-.89.792-1.224.792-.167 0-.409-.191-.409-.738v-5.109c0-.656-.194-.948-.75-.948h-4.126c-.417 0-.668.304-.668.593 0 .621.946.765 1.043 2.513v3.798c0 .833-.153.984-.487.984-.89 0-3.055-3.211-4.34-6.885-.25-.715-.503-1.003-1.174-1.003H6.9c-.75 0-.9.347-.9.73 0 .682.89 4.07 4.145 8.551C12.315 23.341 15.37 25 18.153 25c1.669 0 1.875-.368 1.875-1.003v-2.313c0-.737.158-.884.687-.884.39 0 1.057.192 2.615 1.667C25.11 24.216 25.403 25 26.405 25h2.625c.75 0 1.126-.368.91-1.095-.238-.725-1.088-1.776-2.215-3.023-.612-.71-1.53-1.475-1.808-1.858-.39-.491-.279-.71 0-1.147 0 0 3.198-4.426 3.532-5.929z"/></g></svg>