<svg xmlns="http://www.w3.org/2000/svg" viewBox="0 0 180 28.48" fill="#696566"><path d="M80.33,26.39,72.14,3.6a3.93,3.93,0,0,1-.26-1.1,2,2,0,0,1,2-1.93,2.11,2.11,0,0,1,2,1.67l6.78,19.64L89.56,2.19a2.07,2.07,0,0,1,2-1.62h.21a2.13,2.13,0,0,1,2.09,1.62l6.78,19.69,6.89-19.74A2,2,0,0,1,109.44.57a1.93,1.93,0,0,1,2,1.88,3.86,3.86,0,0,1-.26,1.09l-8.24,22.85a2.37,2.37,0,0,1-2.2,1.82h-.15a2.26,2.26,0,0,1-2.2-1.82L91.65,7,84.87,26.39a2.25,2.25,0,0,1-2.19,1.82h-.11a2.38,2.38,0,0,1-2.24-1.82M140,2.56a2,2,0,1,1,4,0V7.19a11,11,0,0,1,9.3-6.62,1.94,1.94,0,0,1,2,2,2,2,0,0,1-1.78,2C148.31,5.27,144,9.19,144,17v9.16a2,2,0,1,1-4,0V2.56ZM168.23,28.43C161,28.43,155,22.79,155,14.52v-.11C155,6.71,160.39.5,167.71.5,175.54.5,180,7,180,14.05a1.86,1.86,0,0,1-1.85,1.87H159c.55,5.79,4.59,9,9.31,9a10.77,10.77,0,0,0,7.63-3.1,1.68,1.68,0,0,1,1.12-.46,1.73,1.73,0,0,1,1.75,1.71,1.69,1.69,0,0,1-.62,1.28,13.4,13.4,0,0,1-10,4M176.06,13c-.41-4.87-3.18-9.1-8.45-9.1-4.61,0-8.09,3.87-8.6,9.1ZM111.49,20.06V20c0-5.67,4.69-8.7,11.51-8.7a28.55,28.55,0,0,1,8.29,1.15v-.94c0-4.84-3-7.34-8-7.34A13.72,13.72,0,0,0,117,5.34a1.93,1.93,0,0,1-.72.16,1.79,1.79,0,0,1-1.78-1.72,1.67,1.67,0,0,1,1.1-1.67A17.89,17.89,0,0,1,123.68.58c3.8,0,6.72,1,8.69,3,1.83,1.82,2.77,4.42,2.77,7.86V26.28a1.91,1.91,0,0,1-1.94,2,1.83,1.83,0,0,1-1.91-1.87V23.81a11.82,11.82,0,0,1-9.74,4.64c-5,0-10.06-2.87-10.06-8.39M131.34,18v-2.6a28.33,28.33,0,0,0-7.92-1.15c-5,0-7.87,2.19-7.87,5.58v.1c0,3.38,3.12,5.36,6.78,5.36,4.94,0,9-3,9-7.29M7.35,2.27A3.79,3.79,0,0,0,2.26.36,3.73,3.73,0,0,0,.39,5.46L8.94,24c1.34,2.91,2.76,4.44,5.42,4.44,2.84,0,4.08-1.66,5.42-4.44l7.53-16.4A1.07,1.07,0,0,1,28.38,7a1.17,1.17,0,0,1,1.18,1.2V24c0,2.45,1.36,4.46,4,4.46s4-2,4-4.46V11A4,4,0,0,1,41.79,6.9,3.9,3.9,0,0,1,45.87,11V24c0,2.45,1.36,4.46,4,4.46s4-2,4-4.46V11A4,4,0,0,1,58.1,6.9,3.9,3.9,0,0,1,62.18,11V24c0,2.45,1.36,4.46,4,4.46s4-2,4-4.46V9.24C70.17,3.81,65.8,0,60.54,0A12.36,12.36,0,0,0,52,3.63C50.26,1.37,47.85,0,43.77,0,39.46,0,35.7,3.63,35.7,3.63A9.68,9.68,0,0,0,28.51,0c-3.82,0-6.85,1.68-8.69,5.91L14.36,18.77Z"/></svg>
