<svg xmlns="http://www.w3.org/2000/svg" version="1.1" id="Ebene_1" x="0" y="0" xml:space="preserve" width="40" height="40"><style type="text/css" id="style53070"></style><g id="bildmarke" transform="translate(14.1 14.1)"><circle id="Ellipse_1" cx="5.9" cy="5.9" r="20" fill="#e60000"/><path id="Pfad_5" d="M6 17C.5 17-5.2 12.3-5.3 4.8-5.2-.1-2.9-4.7.8-7.8c3.4-2.8 7.7-4.4 12.1-4.6.5 0 1 0 1.4.2-3.8.8-6.5 4.1-6.5 8v.3c6.1 1.5 8.9 5.2 8.9 10.3C16.8 12.3 12 17 6 17c.1 0 0 0 0 0z" fill="#fff"/></g></svg>