<svg xmlns="http://www.w3.org/2000/svg" xmlns:xlink="http://www.w3.org/1999/xlink" width="378.603" height="378.603"><g transform="translate(0 161.384)"><defs><path id="a" d="M0 0h378.603v55.835H0z"/></defs><clipPath id="b"><use xlink:href="#a" overflow="visible" width="100%" height="100%"/></clipPath><path clip-path="url(#b)" fill="#e1382d" d="M30.287 41.899c.897 1.766 1.656 2.648 2.275 2.648.62 0 1.378-.883 2.277-2.648L55.742.187h9.29L41.807 46.546c-1.642 3.251-2.943 5.418-3.902 6.502-1.425 1.61-3.222 2.54-5.389 2.788-2.136-.248-3.933-1.193-5.388-2.833-.991-1.147-2.292-3.299-3.902-6.457L0 .187h9.197zM96.516 0c21.802 0 32.702 9.291 32.702 27.871 0 18.581-10.823 27.887-32.47 27.918-21.646.03-32.469-9.244-32.469-27.825C64.279 9.384 75.025.062 96.516 0m23.412 27.871c0-12.387-7.727-18.564-23.18-18.534-15.514-.03-23.272 6.147-23.272 18.534 0 12.388 7.742 18.581 23.226 18.581 15.484 0 23.226-6.193 23.226-18.581M202.55 9.291h-43.293l.093-9.197H208.125c10.839 0 16.258 4.644 16.258 13.935l-.093 4.738c0 9.167-5.388 13.75-16.165 13.75h-39.577v23.226h-9.29V23.227h49.61c4.088 0 6.147-2.307 6.178-6.922-.03-4.676-2.09-7.014-6.178-7.014z"/><path clip-path="url(#b)" fill="#444" d="M224.382 55.649l-9.197.093-.093-9.29h9.29zM246.536 14.029v4.645l-.047 37.068h-9.197V0h32.702c21.49.062 32.237 9.384 32.237 27.964v27.871h-9.29V27.871c.062-12.387-7.664-18.565-23.18-18.534l-23.272-.046zm18.72 41.713h9.197l-.094-32.555-9.104.093v32.462z"/><path clip-path="url(#b)" fill="#e1382d" d="M138.557.094h9.291v9.225h-9.291zM138.557 23.226h9.291v32.516h-9.291z"/><path clip-path="url(#b)" fill="#444" d="M328.774 32.49v.021h.717c.083 0 .16.006.244.006v-.006h10.087l.099-9.292h-11.037c-4.011-.043-6.04-2.342-6.069-6.914.03-4.675 2.091-7.013 6.178-7.013h49.61L378.51.095h-48.775c-10.839 0-16.258 4.644-16.258 13.935l.093 4.737c0 8.885 5.079 13.45 15.204 13.723"/><path clip-path="url(#b)" fill="#444" d="M378.51 37.069c0-8.949-5.15-13.517-15.422-13.73h-.011c-.246-.005-.48-.02-.732-.02v.02H352.04v9.27h11.048c4.088 0 6.147 2.308 6.178 6.922-.03 4.676-2.09 7.014-6.178 7.014h-49.61l.093 9.197H362.346c10.839 0 16.258-4.645 16.258-13.936z"/></g></svg>