<svg xmlns="http://www.w3.org/2000/svg" width="31" height="31" class="navigation__logo" fill="none"><path d="M15.5 31S28 26.13 28 16.32V3.12C24.92 3.12 15.5 0 15.5 0S6.08 3.12 3 3.12v13.2C3 26.05 15.5 31 15.5 31z" fill="#0af"/><path d="M20.88 19.67c1.8-.08 3.2-2.44 3.12-5.31-.08-2.63-1.4-4.8-3.01-5.18l-.02-.01h-.03c-1.08-.21-2.06.42-2.6 1.31-1.3 2.15-.63 5.97-2.2 8.05-.72.95-1.7 1.4-2.68 1.2-1.6-.4-2.9-2.57-2.97-5.2-.1-2.93 1.38-5.33 3.23-5.35v-.01c1.84-.02 3.4 2.33 3.48 5.25v.35c.2-1.45.33-2.93.9-4.04-.95-2.82-2.83-4.75-4.94-4.73-2.96.04-5.3 3.87-5.15 8.57.13 4.24 2.21 7.73 4.8 8.33l.04.01h.03c1.71.35 2.9-.4 3.64-1.32 3.06-3.77 1.73-7.32 2.86-9.42.36-.68.98-1.2 1.78-1.04.99.24 1.83 1.6 1.88 3.24.06 1.82-.85 3.3-2 3.32v.04c-1.06-.03-1.96-1.26-2.14-2.85-.09 1-.16 2.13-.48 3.32.64.94 1.53 1.52 2.46 1.51z" fill="#fff"/></svg>