<svg xmlns="http://www.w3.org/2000/svg" width="403.859" height="403.859"  xmlns:v="https://vecta.io/nano"><path d="M209.714 256.3a12 12 0 0 0-14-.11l-102.07 72.54 100.44 72.83a12 12 0 0 0 14 .11l102.07-72.9z" fill="#032539"/><path d="M209.934 86.46a12 12 0 0 0-7.07-2.4v52.23a12 12 0 0 1 7.07 2.4l87.5 63.4v28.3l-88.06-63.5a13.75 13.75 0 0 0-6.52-2.18v56a11.93 11.93 0 0 1 6.68 2.08l122.92 89.07a5.4 5.4 0 0 0 .6-2.47V175.77l-123.35-89.5zm123.15 10.97a12 12 0 0 0-5-9.47L210.014 2.42a12 12 0 0 0-7.16-2.41v55.64a12 12 0 0 1 7.12 2.41l-.23-.17 1.44 1 121.9 88.56v-50z" fill="#096bb4"/><path d="M195.474 166.88l-13 9.06-111.66 80.52v53.1a5.4 5.4 0 0 0 .56 2.39l124.64-89a12 12 0 0 1 6.86-2.16v-56h-.47a12 12 0 0 0-6.93 2.09zm7.3-111.24h.1V0a12 12 0 0 0-6.93 2.21l-120.1 85.67a12 12 0 0 0-5.07 9.8v130.4l125-89.64a12 12 0 0 1 6.93-2.21h.14V84h-.14a12 12 0 0 0-6.93 2.21l-89.4 63.52v-28.3l.14-.1 89.33-63.55a12 12 0 0 1 6.94-2.13z" fill="#009dd9"/></svg>