<svg xmlns="http://www.w3.org/2000/svg" width="103.918" height="50.784" xmlns:v="https://vecta.io/nano"><path d="M5.4 6.439h10.633c3.933 0 5.219 1.84 6.468 3.734l12.508 18.973c.145.237.341.142.46 0l11.354-17.765c1.858-2.907 3.976-4.892 8.859-4.892h28.653c4.01 0 12.074 4.247 12.074 13.826 0 7.223-5.463 13.232-10.633 13.232-.198-.036-.26.206.104.744l6.645 9.839H82.072c-3.922 0-6.108-2.208-7.545-4.416l-1.366-2.099c-1.011-1.751-3.827-3.554-6.156-3.554H54.932l4.505-6.718c2.046-3.051 4.403-3.811 9.218-3.811h11.552c5.143 0 4.682-6.51.104-6.51H62.744c-2.248 0-5.63 1.234-8.325 5.456l-10.813 16.94c-3.728 5.944-12.399 6.927-16.787 0L5.4 6.439z" fill="#62b92b" fill-rule="evenodd"/></svg>