<svg xmlns="http://www.w3.org/2000/svg" viewBox="0 0 90 83"><path fill="#15326f" d="M5.884.025H0v.147c5.394 2.134 8.041 6.23 10.15 15.771L24.664 83h3.285L13.361 15.403C10.836 3.826 8.189 1.692 5.884.025zm11.032 0H11.4v.147c2.476 2.968 3.187 6.647 5.148 14.667L31.283 83h3.285L19.809 14.618C17.725 5.837 17.382 3.409 16.916.025zm19.907 78.266l2.182-4.538-12.258-57.835C24.59 6.941 25.08 2.821 25.963.025h-4.756c-.074 3.655.098 6.696 1.863 14.373l13.754 63.893zm4.388-9.173l2.206-4.611-9.856-47.583C31.724 7.677 32.509 2.87 35.573.147V0h-5.247c-1.618 3.434-2.108 6.892-.245 16.016l11.13 53.101h0zm4.413-9.198l2.206-4.636-7.478-38.091C38.295 6.475 40.771 1.79 49.18.172V.025h-7.796c-2.256 1.104-7.012 4.513-4.339 17.218l8.581 42.677zm14.636-30.365l.221.147C65.704 12.362 67.371 4.685 62.762 0h-6.521v.147c7.281 2.6 8.924 10.032 4.021 29.408zm.441.294l.221.147C69.136 10.547 71.269 5.224 74.653.147V0h-6.668v.196c.686 7.775-1.986 14.913-7.281 29.653zM80.929.025c-6.938 4.047-11.057 11.577-19.785 30.119l.221.147C71.367 11.528 77.08 4.047 90 .172V.025h-9.071z"/></svg>
