<svg xmlns="http://www.w3.org/2000/svg" height="170.467" width="267.293" xml:space="preserve"><path style="fill:#00adef;fill-opacity:1;fill-rule:nonzero;stroke:none" d="M1200.39 1131.03h795.85V877.77h-398.92V717.168h378.08V464.656h-378.08V284.758h407.38V23.648h-804.31V1131.03M660.535 844.711c0 94.769 59.07 171.129 145.418 199.109L685.746 745.863c-15.933 26.481-25.211 58.578-25.211 98.848zm84.367-159.539 148.95 370.038c65.156-2.49 119.608-23.43 219.388-84.03v94.04c-80.87 47-160.127 69.71-240.888 69.71-164.579 0-298.676-129.71-298.676-293.469 0-88.731 29.351-147.676 73.711-190.68l-183.496-454.82-380.54 935.499H0L451.324 14.379h23.578l236.946 588.656c146.558-85.199 357.172-97.98 357.172-303.094 0-124.839-96.106-220.492-219.524-220.492-80.769 0-146.305 29.18-262.125 118.34V97.262C678.805 32.422 768.727 0 854.063 0c169.157 0 301.847 132.949 301.847 303.184 0 285.886-269.594 284.105-411.008 381.988M1064.25 1200.27H680.051v78.27h384.199v-78.27" transform="matrix(.13333 0 0 -.13333 0 170.467)"/></svg>