<svg xmlns="http://www.w3.org/2000/svg" version="1.1" id="Layer_1" x="0" y="0" xml:space="preserve" width="88.2" height="88.2"><style type="text/css" id="style61640"></style><path d="M49.8 23.3c-5.6 0-10.8 3.1-13.5 8L33 37.4l-.4.8-.4.7-10 18.4L5.9 26.8h7.3L19 37.7l3.1 5.7 3.2-5.6 6.1-10.9h5.3c1.3-1.4 2.8-2.6 4.4-3.6H29.3L22.2 36l-6.9-12.7H0l22.2 41.6L34.6 42l2.1-3.8.4-.7 2.4-4.4c.1-.2.3-.5.4-.7 1.6-2.5 4-4.3 6.9-5.1.8-.2 1.6-.4 2.4-.4H82.4L79.1 33h-15l-1 1.9-14 26h-7.4l12.2-22.6 2.8-5.2H42.1c-.8 1.3-2 3.6-2 3.6h10.7l-15 27.8h15.4l14.9-27.9h15l7.1-13.3z" id="path61644" fill="#861f41"/></svg>