<svg xmlns="http://www.w3.org/2000/svg" viewBox="0 0 300 83"><path fill="#2d6dbe" d="M77 0H64c-3 0-5 1-5 3l-1 1-14 40-4 12h-1c0 1 0 0 0 0L29 29 20 3a5 5 0 0 0-5-3H2C0 0 0 1 0 3l23 64 2 5c3 6 7 10 15 10h2l9-1 5-15L79 3V2l-2-2m74 6V5c0-2-3-5-5-5h-14v49l-1 4c-1 6-4 9-9 11-6 1-11 1-15-3-3-3-4-7-4-11l-1-42V0H89c-3 0-5 3-5 5v46l1 7c3 17 20 28 38 25a33 33 0 0 0 27-32V6h1zm148 0V5c0-2-2-5-5-5h-13v49l-1 4c-1 6-4 9-10 11-5 1-10 1-14-3-3-3-5-7-5-11V0h-13c-3 0-5 3-5 5v53c4 17 21 28 39 25a33 33 0 0 0 27-32V6zm-96 51c-3 5-8 7-14 8h-13l-1-1V18l1-1h12c7 1 13 4 17 10 2 4 4 8 4 13 0 6-1 12-6 17m6-51c-6-3-13-5-20-6h-27c-3 0-5 3-5 6v71c0 3 2 5 5 5h32c8-2 15-5 21-10 11-11 15-23 13-38-2-12-9-21-19-28m87 70h-1v2h1l1-1-1-1m1 4-1-2h-1v2h-1v-4h2l2 1-2 1 2 2h-1zm-1-6c-2 0-4 2-4 4a4 4 0 0 0 7 0c0-2-1-4-3-4m0 8a4 4 0 1 1 0-8 4 4 0 0 1 0 8"/></svg>