<svg xmlns="http://www.w3.org/2000/svg" viewBox="0 0 300 83.2"><path fill="#2d6dbe" d="M76.8.01H63.6a5.37 5.37 0 0 0-4.98 3.49c-.08.1-.14.24-.18.36-4.99 14.2-9.34 26.41-14.32 40.63-1.31 3.74-2.61 7.48-3.95 11.22-.1.3-.38.68-.67.76-.57.17-.59-.45-.7-.8L29.45 29.1 20.43 3.35a1.04 1.04 0 0 0-.15-.3A5.4 5.4 0 0 0 15.25.01H2.13C.44.02-.39 1.26.17 2.84l23.06 64.33 1.58 4.43c2.93 6.78 7.39 10.33 15.25 10.78h1.79c2.56-.08 5.45-.47 8.73-1.13l5.46-15.55 22.7-62.74c.09-.25.18-.49.22-.74.18-1.26-.73-2.2-2.15-2.2m73.7 5.61v-.15a5.4 5.4 0 0 0-5-5.4c-.14-.04-13.71 0-13.71 0v7.63c0 14.24.01 26.83-.02 41.28 0 1.42-.1 2.9-.45 4.29-1.3 5.31-4.52 9-9.78 10.59-5.28 1.6-10.22.7-14.39-3.11a14.05 14.05 0 0 1-4.65-10.73 20947.8 20947.8 0 0 1-.03-42.17V.09S88.84.04 88.69.09a5.4 5.4 0 0 0-4.98 5.39l.01.15v2.55c0 14.79-.03 27.4.03 42.49.02 2.35.27 4.74.8 7.03 3.94 16.96 20.68 28.18 38.6 24.94a32.88 32.88 0 0 0 20.56-12.42 30.44 30.44 0 0 0 6.76-18.96c.07-7.9.02-15.79.02-23.67V5.63h.01zm148.84 0 .01-.15a5.4 5.4 0 0 0-4.98-5.4c-.16-.04-13.74 0-13.74 0l.02 7.63c0 14.24.01 26.83-.02 41.28 0 1.42-.12 2.9-.45 4.29-1.3 5.31-4.53 9-9.77 10.59-5.3 1.6-10.24.7-14.4-3.11a14.08 14.08 0 0 1-4.64-10.73c-.03-9.85-.03-30.8-.03-42.17V.09s-13.64-.05-13.79 0a5.4 5.4 0 0 0-4.98 5.39v2.7c0 14.79-.03 27.4.05 42.49 0 2.35.26 4.74.79 7.03 3.93 16.96 20.68 28.18 38.58 24.94a32.83 32.83 0 0 0 20.56-12.42 30.55 30.55 0 0 0 6.78-18.96c.04-7.9 0-15.79 0-23.67V5.63zm-96 51.55a21.3 21.3 0 0 1-14.43 7.65c-1.12.13-2.25.16-3.38.16-3.21.04-6.45.02-9.67.02-1.18 0-1.2 0-1.2-1.15V18.4c0-1.07.02-1.08 1.07-1.08 3.94.03 7.88-.07 11.82.14 7.33.37 13.13 3.69 17.31 9.72a23.55 23.55 0 0 1 4.08 12.36c.36 6.6-1.32 12.55-5.6 17.63m5.5-50.74a38.88 38.88 0 0 0-19.73-6.1c-3.28-.1-6.55-.1-9.81-.1h-17.37a5.4 5.4 0 0 0-5.4 5.4v71.19a5.41 5.41 0 0 0 5.4 5.4c9.69-.02 16.34 0 26.04-.03a37.06 37.06 0 0 0 5.9-.51 39.33 39.33 0 0 0 20.83-10.04c11.05-10.3 15.5-23.05 12.9-37.92-2.08-11.82-8.62-20.88-18.75-27.3m87.25 69.68h-1.34v1.79h1.34a.9.9 0 0 0 .88-.87.93.93 0 0 0-.88-.92m.8 4.3-1.26-1.92h-.88v1.92h-.65v-4.87h1.99c.82 0 1.54.58 1.54 1.49 0 1.08-.97 1.45-1.24 1.45l1.3 1.93h-.8zm-1.16-6.1a3.64 3.64 0 0 0-3.66 3.65 3.67 3.67 0 0 0 3.66 3.66 3.66 3.66 0 0 0 3.66-3.66 3.63 3.63 0 0 0-3.66-3.65m0 7.9a4.25 4.25 0 0 1-4.24-4.25 4.23 4.23 0 0 1 4.24-4.23 4.22 4.22 0 0 1 4.25 4.23 4.24 4.24 0 0 1-4.25 4.25"/></svg>
