<svg xmlns="http://www.w3.org/2000/svg" xmlns:xlink="http://www.w3.org/1999/xlink" viewBox="0 0 180 108"><defs><linearGradient x1="100%" y1="0%" x2="0%" y2="100%" id="a"><stop stop-color="#007392" offset="0%"/><stop stop-color="#003a58" offset="100%"/></linearGradient><path d="M36 56.52h-1.74v5.5h-.82v-5.5H31.7v-.7H36v.7zm7.57 5.5h-.81v-2.86H39.7v2.86h-.82v-6.2h.81v2.62h3.07v-2.63h.82v6.2zm7.1 0h-3.44v-6.2h3.4v.69h-2.58v1.97h2.37v.68h-2.37v2.15h2.62v.7zm11.6 0h-1.05l-2.5-3.07v3.07h-.82v-6.2h.82v2.92l2.4-2.93h1l-2.52 2.97 2.67 3.24zm6.25 0H65.1v-6.2h3.4v.69h-2.58v1.97h2.37v.68H65.9v2.15h2.62v.7zm7.19-6.2-1.98 3.82v2.38h-.8v-2.38l-1.97-3.83h.9l1.04 2.02.44 1.03h.02l.48-1.06 1-1.99h.87zm10.1.7h-1.73v5.5h-.82v-5.5h-1.73v-.7h4.28v.7zm7.68 2.3c0 2.13-1.3 3.3-2.85 3.3-1.75 0-2.7-1.21-2.7-3.12 0-2.12 1.3-3.28 2.86-3.28 1.74 0 2.7 1.2 2.7 3.1zm-.86.14c0-1.5-.64-2.5-1.91-2.5-1.08 0-1.92.85-1.92 2.41 0 1.5.64 2.5 1.92 2.5 1.07 0 1.91-.85 1.91-2.41zm14.67 3.06h-.85l-.47-3.63a24.8 24.8 0 0 1-.17-1.8h-.02c-.08.37-.2.81-.36 1.33l-1.39 4.1h-.75l-1.31-3.9a19.15 19.15 0 0 1-.45-1.53 27.46 27.46 0 0 1-.15 1.84l-.4 3.59h-.8l.77-6.2h1.13l1.33 3.9.3 1.12.29-1.11 1.33-3.92h1.16l.8 6.2zm8.33-3.2c0 2.13-1.3 3.3-2.86 3.3-1.74 0-2.7-1.21-2.7-3.12 0-2.12 1.32-3.28 2.86-3.28 1.75 0 2.7 1.2 2.7 3.1zm-.86.14c0-1.5-.64-2.5-1.92-2.5-1.07 0-1.91.85-1.91 2.41 0 1.5.64 2.5 1.91 2.5 1.08 0 1.92-.85 1.92-2.41zm3.97 3.06v-6.2l1.63-.05c1.41 0 2.04.6 2.04 1.54 0 .64-.36 1.2-1 1.43.74.15 1.2.66 1.2 1.44 0 .82-.57 1.87-2.34 1.87l-1.53-.03zm.82-5.55v2.03h.61c.93 0 1.39-.38 1.39-1.06 0-.55-.29-1-1.27-1l-.73.03zm0 2.68v2.17c.16.03.51.05.77.05 1 0 1.42-.5 1.42-1.13 0-.7-.45-1.1-1.59-1.1l-.6.01zm7.13 2.87h-.81v-6.2h.81v6.2zm6.88 0h-3.22v-6.2h.82v5.48h2.4v.72zm3.62 0h-.82v-6.2h.82v6.2zm7.17-5.5h-1.73v5.5h-.82v-5.5h-1.73v-.7h4.28v.7zm6.9-.7-1.98 3.82v2.38h-.81v-2.38l-1.96-3.83h.9l1.03 2.02.45 1.03h.01l.48-1.06 1-1.99h.87zM17.83 35.87v2.61h3.75v1.58h-3.75v4.17H15.9V34.23h5.9v1.65h-3.96zm6.36 8.36V34.23h1.92v10.02H24.2zm11.21 0-3.14-5.07a15.6 15.6 0 0 1-1.17-2.16h-.03l.14 4.5v2.73h-1.86V34.23h2.2l2.93 4.74a21.92 21.92 0 0 1 1.2 2.2h.05a73.91 73.91 0 0 1-.15-4.5v-2.44h1.86v10.02h-2.02zm11.35 0-.68-2.14h-3.76l-.7 2.14H39.7l3.34-10.01h2.5l3.37 10.01h-2.14zm-2.14-6.79a18.52 18.52 0 0 1-.4-1.5h-.04l-.38 1.48-1.04 3.15h2.88l-1.02-3.13zm12.28 6.8-3.14-5.08a15.6 15.6 0 0 1-1.17-2.16h-.04l.15 4.5v2.73h-1.85V34.23h2.2l2.93 4.74a21.75 21.75 0 0 1 1.21 2.2h.04a73.91 73.91 0 0 1-.15-4.5v-2.44h1.86v10.02H56.9zm9.42-1.62c.7 0 1.52-.14 2.16-.34v1.75a9.75 9.75 0 0 1-2.52.35c-3.42 0-4.55-2.21-4.55-4.85 0-3.13 1.68-5.37 4.95-5.37.73 0 1.43.11 2.06.28v1.92a5.74 5.74 0 0 0-2.17-.48c-1.9 0-2.7 1.47-2.7 3.48-.02 2.07.87 3.26 2.77 3.26zm4.83 1.61V34.23h1.91v10.02h-1.91zm11.25 0-.68-2.14h-3.76l-.7 2.14h-1.93l3.34-10.01h2.5l3.37 10.01H82.4zm-2.16-6.79a18.52 18.52 0 0 1-.4-1.5h-.03l-.39 1.48-1.04 3.15h2.89l-1.03-3.13zm6.23 6.8V34.22h1.92v8.33h3.64v1.68h-5.56zm17.63-2.94c0 1.8-1.37 3.1-3.8 3.1-.82 0-1.68-.11-2.32-.28V42.3c.66.26 1.6.44 2.4.44.97 0 1.68-.36 1.68-1.24 0-1.92-4.28-1.21-4.28-4.49 0-1.74 1.4-2.93 3.78-2.93a9.13 9.13 0 0 1 1.74.19v1.7a6.92 6.92 0 0 0-1.85-.28c-1.1 0-1.66.44-1.66 1.16-.02 1.81 4.31 1.17 4.31 4.47zm8.8 1.27v1.66h-6.06V34.23h6.03v1.61h-4.1v2.47h3.77v1.54h-3.78v2.71h4.15v.02zm7.13-2.7s.44.56.77 1.09l2.16 3.27h-2.32l-2.53-4.02h-.53v4.02h-1.91V34.23l2.92-.06c2.28 0 3.69.85 3.69 2.9 0 1.6-.97 2.49-2.25 2.82zm-1.57-4.13-.87.04v2.96l.82.02c1.18 0 1.86-.55 1.86-1.52-.02-.92-.58-1.5-1.8-1.5zm11.16 8.5h-2.5l-3.36-10.02h2.14l1.91 5.99.59 2.23h.04l.6-2.25 1.94-5.97h1.99l-3.35 10.02zm5.32 0V34.22h1.92v10.02h-1.92zm9.32-1.62c.7 0 1.51-.14 2.15-.34v1.75a9.75 9.75 0 0 1-2.52.35c-3.41 0-4.55-2.21-4.55-4.85 0-3.13 1.68-5.37 4.95-5.37.73 0 1.43.11 2.07.28v1.92a5.74 5.74 0 0 0-2.18-.48c-1.91 0-2.7 1.47-2.7 3.48-.02 2.07.9 3.26 2.78 3.26zm11.2-.05v1.66h-6.07V34.23h6.03v1.61h-4.1v2.47h3.79v1.54h-3.78v2.71h4.12v.02zm8.64-1.26c0 1.79-1.37 3.09-3.8 3.09-.83 0-1.68-.11-2.32-.28V42.3c.65.26 1.59.44 2.39.44.97 0 1.68-.36 1.68-1.24 0-1.92-4.27-1.21-4.27-4.49 0-1.74 1.38-2.93 3.78-2.93a9.15 9.15 0 0 1 1.73.19v1.7a6.92 6.92 0 0 0-1.84-.28c-1.1 0-1.66.44-1.66 1.16-.02 1.81 4.3 1.17 4.3 4.47zM46.47 26.05h-2.5L40.6 16.03h2.14l1.92 6 .59 2.2h.03l.6-2.24 1.95-5.97h1.99l-3.35 10.03zm8.96.17c-3 0-4.59-1.83-4.59-4.98 0-3.48 2.25-5.35 4.9-5.35 3 0 4.6 1.83 4.6 4.98 0 3.46-2.26 5.34-4.9 5.34zm.15-8.61c-1.57 0-2.69 1.19-2.69 3.39 0 2.14.9 3.48 2.69 3.48 1.57 0 2.69-1.2 2.69-3.4 0-2.13-.88-3.47-2.7-3.47zm7.2 8.44V16.03h1.92v8.33h3.64v1.69h-5.56zm15.29 0h-2.4l-3.49-4.8v4.8h-1.92V16.03h1.92v4.55l3.38-4.54h2.29l-3.7 4.77 3.92 5.24zm7.48-2.93c0 1.8-1.37 3.1-3.8 3.1a9.84 9.84 0 0 1-2.33-.28v-1.83c.66.26 1.6.44 2.4.44.97 0 1.68-.37 1.68-1.25 0-1.92-4.28-1.2-4.28-4.48 0-1.74 1.4-2.93 3.79-2.93a9.17 9.17 0 0 1 1.73.18v1.7a6.93 6.93 0 0 0-1.84-.27c-1.1 0-1.67.44-1.67 1.15-.02 1.82 4.32 1.18 4.32 4.47zm12.16 2.93h-2.38l-1.52-5.47a16.43 16.43 0 0 1-.33-1.83h-.03l-.31 1.83-1.5 5.47h-2.4l-2.5-10.02h2.06l1.34 5.48.42 2.49h.03l.48-2.45 1.52-5.5h1.9l1.55 5.57c.2.73.4 1.6.52 2.4h.03l.39-2.38 1.31-5.59h1.9l-2.48 10zm9.98 0-.68-2.14h-3.76l-.7 2.14h-1.94l3.35-10.02h2.5l3.37 10.02h-2.14zm-2.16-6.8a18.5 18.5 0 0 1-.4-1.5h-.04l-.38 1.49-1.04 3.15h2.89l-1.03-3.13zm13.83 1.55v4.77c-1 .4-2.22.63-3.42.63-3.3 0-5.05-1.96-5.05-4.95 0-3.16 1.94-5.36 5.56-5.36.84 0 1.77.13 2.52.35v1.88a6.95 6.95 0 0 0-2.63-.51c-2.38 0-3.35 1.57-3.35 3.44 0 2.1 1.12 3.4 3.19 3.4.47 0 .9-.05 1.27-.18V20.8h1.9zm8.83 3.58v1.67h-6.07V16.03h6.03v1.62h-4.1v2.47h3.8v1.54h-3.8v2.7h4.14v.02zm8.67 1.67-3.15-5.07a15.6 15.6 0 0 1-1.17-2.16h-.02l.15 4.5v2.73h-1.87V16.03h2.2l2.94 4.75c.51.82.92 1.57 1.2 2.2h.04a73.84 73.84 0 0 1-.14-4.51v-2.44h1.86v10.02h-2.04z" id="b"/></defs><g fill-rule="evenodd"><path fill="url(#a)" d="M0 0h180v108H0z"/><use fill="#fff" xlink:href="#b" y="15"/></g></svg>