<svg viewBox="0 0 90 90" xmlns="http://www.w3.org/2000/svg"><defs><linearGradient x1="100%" y1="-88.889%" x2="0%" y2="188.889%" id="a"><stop stop-color="#007392" offset="0%"/><stop stop-color="#003A58" offset="100%"/></linearGradient></defs><g fill="none" fill-rule="evenodd"><path fill="url(#a)" fill-rule="nonzero" d="M0 0h90v90H0z"/><path d="M72.163 37c.828 0 1.823.107 2.623.267v2.474a10.85 10.85 0 0 0-2.79-.4c-1.656 0-2.51.64-2.51 1.675C69.457 43.65 76 42.72 76 47.506 76 50.112 73.93 52 70.257 52c-1.242 0-2.539-.16-3.506-.4v-2.658c.995.372 2.403.638 3.618.638 1.463 0 2.539-.531 2.539-1.808 0-2.793-6.459-1.756-6.459-6.516 0-2.528 2.098-4.256 5.714-4.256Zm-45.236 0-5.056 14.573h-3.786L13 37.026h3.234l2.902 8.696c.302.959.634 2.208.884 3.219h.054c.25-.985.58-2.208.913-3.271L23.916 37h3.011Zm4.307 0 2.018 7.952c.304 1.356.499 2.528.635 3.617h.056a33.34 33.34 0 0 1 .719-3.564l2.292-7.977h2.875l2.348 8.084c.304 1.063.608 2.313.774 3.483h.056c.166-1.117.332-2.314.58-3.457l1.989-8.11h2.874l-3.758 14.519H41.1l-2.294-7.951a23.028 23.028 0 0 1-.497-2.658h-.055c-.139.93-.276 1.859-.47 2.658l-2.267 7.95h-3.62L28.113 37h3.122Zm32.041 0v2.394h-5.99v3.8h5.66v2.289h-5.66v6.062h-2.926V37h8.916Z" fill="#FFF"/></g></svg>