<svg xmlns="http://www.w3.org/2000/svg" viewBox="0 0 957.78 957.78"><path d="M722.53 538.333a.38.38 0 0 0 .37-.37.37.37 0 0 0-.31-.37 52.1 52.1 0 0 1-21-7.63c-14.1-9-25.16-26.17-34.57-54.83-1.26-3.77-48.31-163.79-51.31-174.24-10.72-36.45-30.88-52.8-49.53-59.69a75.74 75.74 0 0 0-26-4.59h-13a.38.38 0 0 0-.37.37.37.37 0 0 0 .31.37 67.35 67.35 0 0 1 16.43 4.51c17.26 7.26 35.28 23.7 45.67 59l50.69 172.27c9.48 29.97 20.8 47.67 35.25 56.92 9.16 5.83 19.59 8.28 31.69 8.28zm41.59 0a.371.371 0 0 0 .06-.74c-21.12-2.73-34.77-32.38-42.31-57.61l-53.5-179.09c-17.08-56.18-70.24-64.24-94.31-64.28a.371.371 0 0 0-.06.74c22.49 3 54.42 16.65 68.21 63.54l52 176.3c9.23 27.33 20 43.83 33.75 52.68 9.22 6 19.74 8.46 32 8.46zm-553.78 182.89h-6.46c-19.22 0-42.32-9.76-55-54.62L34.31 275.733c-6.78-23.46-16.87-35.24-34-38.16a.39.39 0 0 1-.31-.37.38.38 0 0 1 .37-.37H17.6c22.9 0 35.36 11.46 43.29 38.9l115.52 393.33c7.12 25.12 15.44 42.21 28.32 49.11a24.36 24.36 0 0 0 5.64 2.31.39.39 0 0 1 .31.37.37.37 0 0 1-.34.37zm-38.77-430.91c-11-37.9-28.17-53.74-59.81-53.74H96.33a.36.36 0 0 0-.37.37.36.36 0 0 0 .31.36c24.71 3.52 39.12 19.79 48.72 53l107.1 365 13-44-93.52-320.99zm47.63 430.91h11.26c14.11 0 24.22-3.73 31.79-9.9 12.33-10 17.94-26.56 23.14-44l104.62-356.13c11.95-44.88 38.7-64.39 67.16-71.39a109.91 109.91 0 0 1 14.28-2.46.371.371 0 0 0-.06-.74h-12.54c-37.57 0-79.54 14.91-95.42 74.61-5.72 21.53-103.85 353.53-104.63 356.14-5.19 17.45-11.09 35.78-23.42 45.82a31.29 31.29 0 0 1-16.24 7.32.36.36 0 0 0-.31.36.36.36 0 0 0 .37.37zm515.31-234.23 59-196.72c9.61-33.23 24-49.5 48.73-53a.371.371 0 0 0-.06-.74h-15.44c-31.63 0-48.84 15.84-59.8 53.75l-45.62 153.33 13.19 43.38z" fill="#212721"/><path d="M889.84 236.803h-16.43c-26.91 0-41.54 13.47-50.86 45.7l-58.89 196.87c-4.29 13.8-9.69 27.19-15.12 35.84 5.14 7 10.57 11.35 15.94 12.43 10.14-8.7 18.56-24.83 26.08-49.33l58.64-195.81c8.07-27.92 20.13-41.76 40.69-45a.38.38 0 0 0 .31-.37.37.37 0 0 0-.36-.33z" fill="#00957a"/><path d="M770.24 548.163h-26.45L710 659.973c-16.44 55.07 9.5 60.74 19.4 60.74h20.9a.37.37 0 0 0 .08-.73c-11.34-2.7-26.74-14.45-13.14-60 0-.01 23.98-81.18 33-111.82zm154.52-310.91a.37.37 0 0 0-.11-.73h-3.68c-22.9 0-35.36 11.47-43.29 38.91l-59.34 198.94c-14.2 47.06-23.94 59.66-43.22 63l-1 .23a.371.371 0 1 0 .06.74h13.08c33.58 0 46.08-22.39 57.89-61.81l67.8-226.51c1.65-5.46 6.37-11.12 11.83-12.76zm-127.91 310.23-35.72 121.63c-14 46.79 8.07 51.6 16.48 51.6h20.43a.37.37 0 0 0 .08-.73c-9.58-2.49-22.1-12.75-10.72-50.87l40-135.7c-6.31 6.39-16.95 12.31-30.55 14.07zm49.86 173.23a.38.38 0 0 0 .37-.37.36.36 0 0 0-.29-.36c-8.09-2.31-18.25-11.27-8.72-43.18l118.25-402.83c6.25-21.59-8.83-35.1-22.38-37.13-.1 0-.54-.14-.64.15s.29.46.36.5c2.7 1.42 5.72 4.69 4.07 10.3l-126.02 429.01c-11.89 39.81 6.87 43.91 14 43.91zm-177.26-182.38a.371.371 0 0 0 .06-.74 52.18 52.18 0 0 1-20.8-7.47c-14.81-9.39-26.27-27.61-36-58.65-.83-2.65-48.51-165-50.15-170.58-10.09-34.32-26.3-50.82-42.29-58.38a63.82 63.82 0 0 0-27.47-5.9h-14a.371.371 0 0 0-.06.74c2.62.4 39 1.52 57.33 63.54l47.64 162.33c16 56.61 36.74 75.11 70 75.11zm-168.61-280.43c-13.37 11.48-24.44 28.53-31 53.28-.7 2.61-100.12 340.93-102.3 348.27-8.36 28.17-15.36 56.15-47 61a.38.38 0 0 0-.31.37.36.36 0 0 0 .37.37h6.29l5.45-.11c32.15-1.29 48.17-14.95 61.88-61.62l102.3-348.27c3.91-13 8.59-27.88 15.33-40.88a67 67 0 0 0-11.01-12.41z" fill="#212721"/><path d="M485.91 249.233c-10.17-2.89-24.61-2.11-37.71 8.39s-24.85 28.34-30.85 50.88c-.64 2.62-104.64 356.24-105.38 358.85-5.2 17.41-10.81 33.92-23.14 44a43.62 43.62 0 0 1-21.54 9.16.38.38 0 0 0-.31.37.36.36 0 0 0 .37.37h16.27c14.11 0 24.22-3.73 31.8-9.9 12.32-10 17.94-26.56 23.13-44l104.63-356.13c6.58-24.75 17.65-41.8 31-53.28a81 81 0 0 1 12.11-8.58 3.43 3.43 0 0 0-.38-.13z" fill="#00957a"/><path d="M239.86 690.943a81.86 81.86 0 0 1-11.15-24.34l-112.57-384.07c-9.32-32.23-23.95-45.7-50.85-45.7H48.86a.37.37 0 0 0-.37.37.38.38 0 0 0 .31.37c20.56 3.2 32.62 17 40.69 45l112.57 384.03c5.82 20.55 13.83 33.72 22.64 42 6.24-3.63 11.56-9.51 15.16-17.66z" fill="#212721"/></svg>