<svg xmlns="http://www.w3.org/2000/svg" width="176.621" height="176.621" viewBox="0 0 46.731 46.731"><g fill="#113880"><path d="M15.074 11.122l.564-.325 2.644 4.582-.564.326zM28.449 34.302l.564-.325 2.644 4.582-.564.326zM9.656 33.137l-.326-.564 4.58-2.646.325.564zM32.821 19.754l-.325-.564 4.58-2.645.325.563zM9.33 17.108l.326-.563 4.58 2.645-.326.565zM32.496 30.491l.325-.564 4.58 2.646-.326.564zM15.638 38.885l-.564-.326 2.644-4.582.564.325zM29.013 15.705l-.564-.326 2.644-4.582.564.325zM23.366 23.418c.785 0 1.426.64 1.426 1.427a1.43 1.43 0 01-1.426 1.427 1.43 1.43 0 01-1.427-1.427c0-.786.64-1.427 1.427-1.427M5.891 23.032v-.218c.327.021.628.032.906.032.188 0 .562-.01 1.123-.032v.218c-.185.04-.308.085-.368.136a.134.134 0 00-.057.11c0 .024.004.053.01.082.006.02.085.266.238.732l.519 1.556c.092-.221.314-.795.666-1.72a5.184 5.184 0 00-.24-.596.415.415 0 00-.14-.156 2.272 2.272 0 00-.396-.144v-.218c.48.021.824.032 1.033.032.204 0 .538-.01 1.002-.032v.218l-.072.018c-.198.045-.315.082-.349.11a.136.136 0 00-.051.108c0 .022.003.047.009.077l.345 1.074c.133.417.268.815.404 1.197.499-1.449.748-2.234.748-2.354 0-.039-.018-.074-.056-.103-.038-.03-.173-.072-.41-.127v-.218c.297.021.534.032.708.032.121 0 .38-.01.775-.032v.218c-.218.042-.36.09-.428.145-.069.055-.133.17-.194.348-.04.126-.125.355-.253.687-.258.675-.6 1.633-1.026 2.876h-.274c-.191-.622-.504-1.497-.94-2.628a97.263 97.263 0 00-.997 2.628h-.275l-.756-2.141c-.334-.913-.539-1.441-.61-1.584a.44.44 0 00-.125-.165c-.062-.05-.219-.105-.469-.166M36.55 23.032v-.218c.475.023.989.035 1.545.035.645 0 1.31-.012 1.994-.035.005.413.03.772.073 1.076h-.25a2.16 2.16 0 01-.05-.144c-.097-.281-.173-.445-.228-.49-.055-.044-.178-.068-.371-.068h-1.126c-.016.333-.025.816-.03 1.45l.513.004c.267 0 .432-.025.494-.077s.127-.228.196-.527h.244c-.02.29-.032.544-.032.764 0 .211.011.473.032.788h-.244c-.055-.32-.108-.502-.16-.549-.05-.047-.205-.07-.462-.07h-.578v1.648h1.174a.94.94 0 00.26-.024.474.474 0 00.187-.135c.12-.132.26-.34.422-.625h.26c-.115.322-.238.71-.369 1.164a66.963 66.963 0 00-2.101-.032c-.333 0-.796.011-1.392.032v-.218c.326-.059.513-.106.56-.141.065-.046.097-.16.097-.342v-.101l.006-1.168v-.944l-.003-.436c0-.21-.011-.342-.032-.393a.247.247 0 00-.126-.121c-.061-.029-.23-.063-.502-.103M24.657 38.63h-.295c-.065-.378-.163-.63-.295-.76-.131-.128-.31-.193-.536-.193-.203 0-.36.052-.474.158a.526.526 0 00-.169.403c0 .145.053.277.156.395.105.12.352.268.743.446.391.177.665.363.82.56.155.199.232.444.232.737 0 .354-.133.663-.4.93-.265.267-.696.4-1.288.4a3.336 3.336 0 01-1.135-.183c.033-.345.05-.687.05-1.023v-.197h.289c.074.39.167.652.276.784.147.18.353.268.613.268a.683.683 0 00.501-.185.638.638 0 00.19-.476.658.658 0 00-.079-.324.807.807 0 00-.232-.257 3.631 3.631 0 00-.562-.303c-.416-.197-.696-.386-.837-.57a1.008 1.008 0 01-.212-.64c0-.361.134-.661.4-.899.268-.238.653-.357 1.156-.357.334 0 .697.064 1.088.192-.012.308-.018.523-.018.642 0 .14.006.29.018.451" fill-rule="evenodd"/><path d="M25.454 3.06c11.073 1.057 19.784 10.435 19.784 21.785 0 12.054-9.825 21.886-21.873 21.886-12.047 0-21.872-9.832-21.872-21.886 0-11.35 8.71-20.728 19.784-21.785A2.247 2.247 0 0123.365 0a2.247 2.247 0 012.089 3.06m-2.089 18.93a2.86 2.86 0 012.853 2.855 2.859 2.859 0 01-2.853 2.854 2.859 2.859 0 01-2.852-2.854 2.86 2.86 0 012.852-2.855m.873-4.326c.568.307.955.908.955 1.596 0 .691-.39 1.294-.961 1.6a4.097 4.097 0 013.027 2.78c.174-.018.354-.026.539-.026 1.293 0 2.377.422 2.627.981-.01-.44.005-.81.636-.81.471 0 1.2.207 1.67.495h3.28v1.134h-3.304c-.455.274-1.144.469-1.646.469-.68 0-.665-.355-.642-.786-.26.553-1.338.97-2.621.97-.184 0-.363-.009-.537-.025a4.1 4.1 0 01-2.698 2.7c.018.185.028.377.028.573 0 1.285-.416 2.363-.968 2.623.429-.023.784-.038.784.642 0 .503-.194 1.192-.469 1.648v2.722h-1.133v-2.7c-.288-.469-.494-1.198-.494-1.67 0-.631.369-.646.81-.636-.56-.25-.981-1.335-.981-2.629 0-.196.01-.388.028-.572a4.101 4.101 0 01-2.699-2.703 5.801 5.801 0 01-.553.027c-1.284 0-2.362-.417-2.621-.97.023.43.038.786-.642.786-.502 0-1.192-.195-1.647-.47h-2.189V24.28h2.166c.47-.288 1.198-.495 1.67-.495.631 0 .646.37.636.81.25-.559 1.334-.98 2.627-.98.19 0 .376.008.556.026a4.097 4.097 0 013.048-2.786 1.816 1.816 0 01-.952-1.595c0-.688.387-1.29.954-1.596h-.079c-.478 0-.645-.9-.645-1.467 0-1.553.603-2.725 1.273-3.025-.529.012-1.23-.135-1.23-.893 0-.566.507-2.444.853-3.007V6.658h.347l-.613-2.145c-.272.012-.542.03-.811.053l.114 1.632-.532.037-.113-1.617c-.378.043-.751.096-1.122.159l.282 1.6-.525.093-.282-1.597c-.34.067-.677.142-1.01.226l.397 1.594-.518.13-.396-1.588c-.335.095-.666.197-.994.307l.538 1.565-.504.174-.538-1.562c-.34.124-.677.257-1.009.4l.638 1.502-.492.208-.634-1.494c-.301.139-.6.285-.893.438l.818 3.296-2.436-2.357c-.232.15-.46.303-.686.46l.917 1.361-.442.299-.908-1.347c-.304.226-.6.46-.891.7l1.045 1.247-.409.343L9.99 9.53c-.26.228-.514.462-.762.703l1.14 1.181-.383.372-1.136-1.177c-.243.248-.48.502-.71.762l1.25 1.087-.35.403-1.248-1.086c-.233.278-.458.56-.676.85l1.307.985-.321.427-1.302-.982c-.19.266-.372.536-.549.81l2.356 2.445-3.296-.824c-.124.24-.244.48-.359.724l1.487.725-.234.48-1.474-.719a20.45 20.45 0 00-.427 1.052l1.547.564-.182.501-1.545-.562a20.15 20.15 0 00-.312.99l1.603.46-.147.513-1.597-.458c-.087.335-.165.674-.235 1.016l1.652.322-.102.524-1.65-.321c-.064.356-.117.714-.161 1.076l1.65.203-.064.53-1.644-.202a20.19 20.19 0 00-.07.989l3.278.944-3.28.939c.013.27.031.54.054.808l1.67-.117.037.533-1.654.116c.042.378.095.754.158 1.126l1.638-.29.093.526-1.635.289c.067.34.143.679.227 1.014l1.631-.407.13.517-1.625.406c.094.336.197.67.307.999l1.602-.552.173.505-1.598.55c.125.342.259.68.401 1.013l1.537-.653.209.491-1.53.65c.137.298.281.593.432.884l3.307-.822-2.365 2.449c.15.232.304.461.462.687l1.37-.925.299.443-1.357.916c.226.304.46.601.7.892l1.256-1.054.343.41-1.252 1.05c.228.26.462.515.703.763l1.19-1.15.37.384-1.184 1.145c.248.243.502.48.762.71L11 38.823l.403.35-1.094 1.259c.277.233.561.459.85.677l.992-1.317.426.321-.987 1.312c.263.188.53.37.803.546l2.454-2.367-.827 3.311c.251.131.506.257.763.378l.7-1.47.482.23-.696 1.46c.346.15.696.292 1.05.423l.545-1.538.503.178-.544 1.54c.326.111.656.214.989.31l.444-1.603.514.142-.443 1.6c.336.086.675.164 1.017.233l.308-1.66.524.096-.308 1.662c.356.063.715.115 1.077.159l.19-1.668.53.06-.19 1.664c.314.03.63.052.947.066l.94-3.29.947 3.29c.287-.013.573-.032.857-.058l-.128-1.625.532-.042.127 1.613c.377-.043.75-.097 1.12-.16l-.296-1.603.525-.097.296 1.602c.34-.068.677-.145 1.011-.23l-.414-1.604.516-.133.413 1.6c.336-.095.668-.199.996-.31l-.56-1.583.503-.178.56 1.583c.341-.126.678-.26 1.01-.404l-.664-1.526.49-.213.661 1.522c.286-.132.568-.271.847-.416l-.827-3.311 2.453 2.366c.239-.153.473-.312.705-.475l-.904-1.317.44-.302.896 1.306c.302-.225.598-.459.887-.7l-1.035-1.212.406-.347 1.034 1.212c.26-.227.512-.461.76-.702l-1.137-1.157.38-.374 1.135 1.155c.242-.249.478-.503.708-.763l-1.253-1.07.347-.406 1.254 1.071c.232-.277.457-.56.674-.85l-1.317-.975.317-.43 1.316.974c.186-.26.365-.526.538-.796l-2.365-2.449 3.307.822c.133-.256.26-.516.383-.778l-1.442-.688.23-.482 1.431.683c.15-.345.29-.695.421-1.049l-1.507-.534.178-.503 1.508.534a20.2 20.2 0 00.307-.988l-1.569-.435.143-.515 1.565.435c.086-.335.163-.674.232-1.015l-1.625-.301.097-.526 1.626.302c.062-.355.114-.714.157-1.075l-1.63-.186.06-.53 1.626.185c.029-.312.05-.626.065-.942l-3.279-.94 3.278-.943a20.587 20.587 0 00-.058-.86l-1.586.125-.042-.532 1.573-.124a20.364 20.364 0 00-.16-1.118l-1.563.29-.097-.525 1.562-.29a19.6 19.6 0 00-.229-1.008l-1.564.405-.134-.517 1.56-.404a20.16 20.16 0 00-.308-.993l-1.544.547-.178-.503 1.545-.548c-.126-.34-.26-.676-.403-1.007l-1.49.648-.212-.49 1.485-.646c-.134-.29-.274-.575-.42-.857l-3.297.824 2.355-2.445c-.152-.237-.31-.472-.473-.703l-1.305.897-.302-.44 1.294-.89a21.117 21.117 0 00-.698-.886l-1.202 1.028-.347-.406 1.202-1.028c-.227-.259-.46-.512-.7-.76l-1.148 1.13-.374-.381 1.145-1.127a20.35 20.35 0 00-.76-.707l-1.063 1.244-.405-.347 1.063-1.246c-.277-.232-.56-.457-.85-.674l-.967 1.309-.43-.318.967-1.307c-.262-.187-.53-.368-.801-.542l-2.437 2.357.817-3.296c-.243-.127-.489-.248-.737-.365l-.712 1.46-.48-.234.706-1.447c-.345-.15-.695-.293-1.05-.425l-.552 1.519-.501-.183.551-1.516a20.29 20.29 0 00-.987-.31l-.451 1.572-.513-.147.449-1.566a20.2 20.2 0 00-1.014-.234l-.315 1.62-.523-.102.314-1.617a20.17 20.17 0 00-1.073-.16l-.199 1.617-.53-.065.198-1.609a19.996 19.996 0 00-.984-.069l-.617 2.146h.367v2.641c.33.546.918 2.377.918 2.98 0 .816-.782.928-1.297.9.663.311 1.404 1.476 1.404 3.018 0 .567-.095 1.467-.718 1.467zm-.873-14.705c.284 0 .567.007.848.018.17-.197.274-.453.274-.733 0-.618-.504-1.122-1.122-1.122-.617 0-1.12.504-1.12 1.122 0 .28.103.536.273.733.281-.011.563-.018.847-.018" fill-rule="evenodd"/></g></svg>