<svg xmlns="http://www.w3.org/2000/svg" viewBox="0 0 96 56"  xmlns:v="https://vecta.io/nano"><path fill="#163293" d="M19.7 40.4c-3.9-2.7-6.5-6.8-7-11.5v-2.4c.6-8.3 7.5-14.8 16-14.8 1.9 0 3.7.3 5.4.9L16.7 29.9s1.1 6.4 7.4 7.4l26.1-25.9-2.9-3.3-.4-.4C41.9 3.1 35.3.3 28 .3 13.4.3 1.4 11.7.4 26.1h0l.2 3.2c.4 8.7 4.9 16.2 11.7 21l7.4-9.9z"/><linearGradient id="A" gradientUnits="userSpaceOnUse" x1="47.951" y1="13.869" x2="94.92" y2="13.869"><stop offset=".003" stop-color="#1f45cf"/><stop offset=".214" stop-color="#184fcf"/><stop offset=".597" stop-color="#105acf"/><stop offset="1" stop-color="#0d5ecf"/></linearGradient><path fill="url(#A)" d="M76.2 12.1c4.1 0 7.8 1.5 10.6 4l8.1-7.5C89.9 3.7 83.1.7 75.6.7 60.8.8 48.7 12.4 48 27h12.2c.6-8.3 7.5-14.9 16-14.9z"/><linearGradient id="B" gradientUnits="userSpaceOnUse" x1="17.064" y1="38.739" x2="95.211" y2="49.722"><stop offset="0" stop-color="#203a93"/><stop offset=".306" stop-color="#1948aa"/><stop offset=".743" stop-color="#1058c5"/><stop offset="1" stop-color="#0d5ecf"/></linearGradient><path fill="url(#B)" d="M87.6 39c-2.9 3-6.9 4.9-11.4 4.9-8.2 0-15-6.3-15.8-14.4H48.3c-3.7 7.2-7.3 10.5-9.5 12-2.5 1.5-5.5 2.3-8.6 2.3-2.7 0-5.3-.6-7.6-1.8l-7.3 10c4.2 2.3 9.1 3.7 14.3 3.7 7.7 0 13.4-.6 20.3-6.7 1.4-1.2 2.7-2.8 3.8-4.4 5 6.8 13 11.2 22 11.2 7.9 0 15-3.4 20-8.7L87.6 39z"/></svg>