<?xml version="1.0" encoding="UTF-8"?>
<svg viewBox="0 0 64 64" xmlns="http://www.w3.org/2000/svg">
<path d="M39.358 11.081c1.245.55 1.973 1.86 1.784 3.208s-1.251 2.406-2.6 2.592-2.656-.547-3.203-1.793c-.184.584-.277 1.193-.277 1.805a6.09 6.09 0 1 0 12.164 0 5.68 5.68 0 0 0-.265-1.793c-.46-1.552-1.526-2.853-2.957-3.609a6.02 6.02 0 0 0-4.648-.41zM25.93 16.869c-1.425-.031-2.639-1.042-2.927-2.438s.427-2.805 1.724-3.397a6.02 6.02 0 0 0-1.793-.265 6.09 6.09 0 0 0-6.088 6.088 6.09 6.09 0 0 0 6.088 6.088c1.61.023 3.162-.601 4.309-1.732s1.792-2.674 1.792-4.284c-.002-.611-.091-1.219-.265-1.805-.516 1.094-1.631 1.779-2.84 1.745zM42.667 2.875a21.23 21.23 0 0 0-21.334 0 21.16 21.16 0 0 0-10.6-2.816v21.31a42.58 42.58 0 0 0 12.438 30.125C31.148 59.489 41.974 63.987 53.267 64V.059c-3.72-.01-7.376.961-10.601 2.816zM41.115 26.05a9.18 9.18 0 0 1-4.873-1.432l-4.259 4.235-4.247-4.272a8.94 8.94 0 0 1-4.813 1.408c-4.949.001-9.001-3.935-9.143-8.882s3.677-9.11 8.618-9.392a9.15 9.15 0 0 1 9.634 8.348c.468-4.905 4.747-8.551 9.664-8.236a9.12 9.12 0 0 1 8.531 9.404c-.163 4.925-4.208 8.829-9.135 8.819z"/>
</svg>
