<svg xmlns="http://www.w3.org/2000/svg" viewBox="0 0 7 10.53"><path d="M4.42,2.18a.44.44,0,0,1,.26.47A.47.47,0,0,1,4.3,3a.45.45,0,0,1-.47-.27.84.84,0,0,0,0,.27.89.89,0,0,0,1.12.91.74.74,0,0,0,.32-.16A.93.93,0,0,0,5.57,3a.75.75,0,0,0,0-.26.88.88,0,0,0-.43-.53.85.85,0,0,0-.68-.06ZM2.45,3A.46.46,0,0,1,2,2.68a.44.44,0,0,1,.25-.5,1.27,1.27,0,0,0-.26,0A.9.9,0,1,0,2,3.93a.93.93,0,0,0,.63-.25.89.89,0,0,0,.26-.63.84.84,0,0,0,0-.27A.45.45,0,0,1,2.45,3ZM5.26.47a3.51,3.51,0,0,0-3.52,0A3.54,3.54,0,0,0,0,0V3.52a7,7,0,0,0,7,7V0A3.54,3.54,0,0,0,5.26.47ZM4.67,4.26A1.37,1.37,0,0,1,4,4.05l-.63.62L2.71,4a1.34,1.34,0,1,1,.63-1.25A1.34,1.34,0,1,1,4.67,4.26Z"/></svg>
