<svg xmlns="http://www.w3.org/2000/svg" width="146" height="146"><path d="M145.585 49.75l-.3-.6h-.1v-.4a6.6 6.6 0 00-2.5-2 26.3 26.3 0 00-10.1-1.7 109.3 109.3 0 00-23.7 2.9c-3.5.9-7 1.8-10.2 2.9a37.3 37.3 0 01-6.8-1.3l-14.9-3.7c-10.5-2.4-20.4-4.1-20.4-4.1a106 106 0 00-14.3-1.3l-8.2 5.5c3.6-.2 7.8-.2 12.8 0l6.5.6a149 149 0 0117.4 3.1h.1l6.6 1.5 13 2.8a62.7 62.7 0 00-6.4 3c-5.4-1.2-19.5-3.9-19.5-3.9a177 177 0 00-17.6-2.1 65.2 65.2 0 00-6.6-.2c-4.9 0-9.9.3-13.5.6l-9.3 7.6a250 250 0 0116.5-1.6 159.6 159.6 0 0127.9 1l8.6 1.3 6.6 1.4-5.5 4.1-.4.4-6.1-1.1c-5.4-.8-8.6-1.1-8.6-1.1a160.2 160.2 0 00-27.9 0c-6.5.6-14.1 1.7-19.2 2.7l-9.3 8.8a133.3 133.3 0 0115.8-3.7c7.5-1.3 12.5-1.8 12.5-1.8a132.6 132.6 0 0120.1-.8c5.7.1 9 .4 9 .4l8.9 1.2c-4.8 5.4-7.2 10.8-7.2 16.3s3.4 10.7 10.3 13.9a53.5 53.5 0 0013.6 3.8 150.699 150.699 0 0019.9 1.4c10.3 0 15.3-1.3 23.2-2.6 4.9-1.1 10.6-2.7 15.2-4.1l-.3-.5-11.5.9c-5.9.5-9.4.9-15.5.9-14.9-.1-25.5-1.7-32-4.8-6.5-3.1-9.1-7.6-9.1-13.9a25.7 25.7 0 012.4-9.9l8 1.3a84.4 84.4 0 0015.5 1.4c12.2-.2 18.9-1.9 23.7-3.8 4.8-1.9 6.5-3.9 6.5-3.9a95.3 95.3 0 01-30.3 2.9 98.5 98.5 0 01-14.4-1.7l-6.1-.9a2.1 2.1 0 01.4-.6 35.1 35.1 0 013.7-4.1c2 .4 4.4.9 7.4 1.3 3.9.5 9 1.1 14.4 1.3 6.39.116 12.777-.285 19.1-1.2 0 0 9.4-1.8 11.1-2.5 8-2.5 10.1-5.2 11.1-7.8a6.8 6.8 0 000-3.5zm-11.8 4.6c-.4 1.1-4.8 2.5-4.8 2.5a73.8 73.8 0 01-17.6 3 51.6 51.6 0 01-7.3-.1 134.1 134.1 0 01-16-2 37 37 0 015.9-3.2h.5c9.9 1.4 15.2.5 15.2.5 14.5-1.9 16.9-4.7 17-4.7a70.7 70.7 0 01-19.1 1.2l-4.9-.3a51.9 51.9 0 017.6-1.7 62 62 0 017.6-.7 38 38 0 019.6.4s4.7.9 6 2.6a2.1 2.1 0 01.3 2.5z" fill="#c12527"/></svg>