<svg xmlns="http://www.w3.org/2000/svg" width="315.4" height="315.4"><g fill="#ea4f5d"><path d="M289.1 143.157c2 0 3.8-.4 5.4-1.1 1.6-.7 3-1.7 4.2-2.9 1.2-1.3 2.1-2.8 2.7-4.5.6-1.8 1-3.7 1-5.8 0-4.2-1.2-7.7-3.7-10.2-2.4-2.6-5.7-3.9-9.7-3.9-4 0-7.3 1.3-9.7 3.9-2.4 2.6-3.7 6-3.7 10.2 0 2.1.3 4.1 1 5.8.6 1.8 1.6 3.3 2.7 4.5 1.2 1.3 2.6 2.2 4.2 2.9 1.9.8 3.7 1.1 5.6 1.1zm0 11.8c-3.7 0-7.1-.7-10.3-2-3.2-1.3-6-3.2-8.4-5.6-2.4-2.4-4.2-5.1-5.6-8.3-1.3-3.1-2-6.5-2-10.2 0-3.7.7-7.1 2-10.2 1.3-3.1 3.2-5.9 5.6-8.2 2.4-2.3 5.2-4.1 8.4-5.5 3.2-1.3 6.6-2 10.3-2 3.7 0 7.1.7 10.3 2 3.2 1.3 6 3.2 8.4 5.5 2.4 2.3 4.2 5 5.6 8.2 1.3 3.1 2 6.5 2 10.2 0 3.7-.7 7.1-2 10.2-1.3 3.1-3.2 5.9-5.6 8.3-2.4 2.4-5.2 4.2-8.4 5.6-3.2 1.3-6.6 2-10.3 2zm-52.8-22.4c-.7.1-1.5.2-2.5.2h-7v21h-13.6v-70.9h13.6v38.4h3.6c4.3 0 7.8-1.5 10.4-4.5 2.7-3 4.2-7.2 4.6-12.7h13c0 4.8-1 9.2-2.9 13.3-1.9 4-4.5 7.3-7.8 9.9l15.3 26.5h-14.8zm-47.5-28.4h13.6v49.7h-13.6zm0-21.3h13.6v13.6h-13.6zm-36.2 60.3c2 0 3.8-.4 5.4-1.1 1.6-.7 3-1.7 4.2-2.9 1.2-1.3 2.1-2.8 2.7-4.5.6-1.8 1-3.7 1-5.8 0-4.2-1.2-7.7-3.7-10.2-2.4-2.6-5.7-3.9-9.7-3.9-4 0-7.3 1.3-9.7 3.9-2.4 2.6-3.7 6-3.7 10.2 0 2.1.3 4.1 1 5.8.6 1.8 1.6 3.3 2.7 4.5 1.2 1.3 2.6 2.2 4.2 2.9 1.8.8 3.6 1.1 5.6 1.1zm-.2-40.2c2.8 0 5.2.4 7.3 1.1 2.1.7 3.9 1.6 5.4 2.8v-24h13.6v44.7c0 4.1-.6 7.8-1.8 11.2-1.2 3.3-3 6.2-5.2 8.6-2.3 2.4-5.1 4.3-8.3 5.6-3.3 1.3-6.9 2-11 2-3.8 0-7.3-.7-10.4-2-3.2-1.3-5.9-3.2-8.2-5.6-2.3-2.4-4.1-5.1-5.4-8.3-1.3-3.2-1.9-6.6-1.9-10.2 0-3.7.7-7.1 2-10.2 1.3-3.1 3.2-5.9 5.5-8.2 2.3-2.3 5.1-4.2 8.3-5.5 3-1.3 6.5-2 10.1-2zm-59.8 40.2c2 0 3.8-.4 5.4-1.1 1.6-.7 3-1.7 4.2-2.9 1.2-1.3 2.1-2.8 2.7-4.5.6-1.8 1-3.7 1-5.8 0-4.2-1.2-7.7-3.7-10.2-2.4-2.6-5.7-3.9-9.7-3.9-4 0-7.3 1.3-9.7 3.9-2.4 2.6-3.7 6-3.7 10.2 0 2.1.3 4.1 1 5.8.6 1.8 1.6 3.3 2.7 4.5 1.2 1.3 2.6 2.2 4.2 2.9 1.8.8 3.6 1.1 5.6 1.1zm-.2-40.2c2.8 0 5.2.4 7.3 1.1 2.1.7 3.9 1.7 5.4 2.8v-24h13.6v44.7c0 4.1-.6 7.8-1.8 11.2-1.2 3.3-3 6.2-5.2 8.6-2.3 2.4-5.1 4.3-8.3 5.6-3.3 1.3-6.9 2-11 2-3.8 0-7.3-.7-10.4-2-3.2-1.3-5.9-3.2-8.2-5.6-2.3-2.4-4.1-5.1-5.4-8.3-1.3-3.2-1.9-6.6-1.9-10.2 0-3.7.7-7.1 2-10.2 1.3-3.1 3.2-5.9 5.5-8.2 2.3-2.3 5.1-4.2 8.3-5.5 3-1.3 6.4-2 10.1-2zm-68.8 25.9h17l-8.6-24.5zm20.9 11.1H19.7l-4.8 13.9H0l26.5-66.2h11.6l26.5 66.1H49.3zM200.3 210.243c-.7.1-1.5.2-2.4.2H191v21h-13.6v-70.9H191v38.4h3.6c4.3 0 7.8-1.5 10.4-4.5 2.7-3 4.2-7.2 4.6-12.7h13c0 4.8-.9 9.2-2.8 13.2s-4.4 7.3-7.7 9.9l15.1 26.6h-15zm-57-17.5c-3.3 0-5.8 1-7.7 3-1.9 2-2.8 4.8-2.8 8.2v27.4h-13.6v-27.4c0-3.6.6-6.8 1.7-9.7 1.1-2.9 2.7-5.3 4.8-7.3 2.1-2 4.6-3.6 7.6-4.7s6.3-1.6 10-1.6 7 .5 10 1.6 5.5 2.6 7.6 4.7c2.1 2 3.7 4.5 4.8 7.3 1.1 2.9 1.7 6.1 1.7 9.7v27.5h-13.6v-27.4c0-3.5-.9-6.2-2.8-8.2-1.9-2.1-4.5-3.1-7.7-3.1zm-60.2-.4c-4 0-7.3 1.3-9.7 3.9-2.4 2.6-3.7 6-3.7 10.2 0 2.1.3 4.1 1 5.8.6 1.8 1.6 3.3 2.7 4.5 1.2 1.3 2.6 2.2 4.2 2.9 1.6.7 3.4 1.1 5.4 1.1 2 0 3.8-.4 5.4-1.1 1.6-.7 3-1.7 4.2-2.9 1.2-1.3 2.1-2.8 2.7-4.5.6-1.8 1-3.7 1-5.8 0-4.2-1.2-7.7-3.7-10.2-2.2-2.6-5.4-3.9-9.5-3.9zm13 39.1v-5.1c-1.5 1.9-3.5 3.4-6 4.5s-5.5 1.7-9.1 1.7c-3.5 0-6.7-.6-9.6-1.9-3-1.3-5.5-3-7.6-5.3-2.1-2.3-3.8-5-5.1-8.2-1.2-3.2-1.8-6.7-1.8-10.6 0-3.7.7-7.1 2-10.2 1.3-3.1 3.2-5.9 5.5-8.2 2.3-2.3 5.1-4.1 8.3-5.5 3.2-1.3 6.7-2 10.4-2 3.8 0 7.3.6 10.5 1.9 3.2 1.3 6 3.1 8.3 5.4 2.3 2.3 4.1 5.1 5.4 8.3 1.3 3.2 1.9 6.7 1.9 10.5v24.7zm-82.8-27.8v16.2h14c2.9 0 5.2-.7 6.9-2.2 1.7-1.4 2.6-3.4 2.6-5.9 0-2.7-.8-4.7-2.5-6.1-1.6-1.3-4-2-7-2zm0-11.2h12.3c2.9 0 5.1-.7 6.5-2.1 1.5-1.4 2.2-3.4 2.2-5.9 0-2.3-.8-4.2-2.3-5.5-1.5-1.4-3.7-2.1-6.4-2.1H13.3zm34.4-8.1c0 2.9-.6 5.5-1.9 7.7-1.3 2.3-3.1 4-5.6 5.1 3 1 5.3 2.7 7.2 5.2 1.8 2.5 2.7 5.6 2.7 9.3 0 2.9-.5 5.5-1.6 7.9-1.1 2.4-2.6 4.5-4.5 6.3-1.9 1.8-4.2 3.1-6.9 4.1-2.7 1-5.6 1.4-8.7 1.4H0v-66h26.7c3.2 0 6.1.4 8.7 1.3 2.6.9 4.8 2.2 6.6 3.8 1.8 1.7 3.2 3.7 4.2 6 1 2.4 1.5 5 1.5 7.9z"/></g></svg>