<svg xmlns="http://www.w3.org/2000/svg" width="112" height="112"><circle r="27.868" cy="42.6" cx="56.748" fill="#86bd07"/><circle r="27.868" cy="69.401" cx="28.131" fill="#0c528b"/><circle r="27.868" cy="69.401" cx="83.868" fill="#0ba5e0"/><path d="M83.868 41.532a27.87 27.87 0 00-27.869 27.869 27.87 27.87 0 00.037 1.031l.71.035c15.39 0 27.87-12.476 27.87-27.867a27.87 27.87 0 00-.037-1.033l-.71-.035z" fill="#40bae8"/><path d="M28.93 41.57l-.05 1.03c.016 15.07 12.006 27.396 27.068 27.828a27.87 27.87 0 00.051-1.027c-.014-15.07-12.005-27.398-27.068-27.83z" fill="#4078a5"/></svg>