<svg xmlns="http://www.w3.org/2000/svg" width="629" height="629"><g fill="#044c86"><path d="M4.067 256.525s48.75 3.325 72.95 42.925c24.2 39.5-1.1 85.7-4.2 92.1-3.2 6.3-10.5 30 3.7 33.7 14.2 3.7 18.4.4 23.7-7.7 5.2-8.1 154.8-220.9 157.8-224.6 3-3.7 8.3-24.7-16.3-55.2 0 0 36.8 18.9 71.6 18.9h149.4s69.4-2.8 62.6 66.3c-3.7 34.7-21 134.1-21 134.1s-6.3-18.9-40-18.9c0 0-5.8 23.9-4.2 42.2 1.6 18.3 15.8 46.2 48.9 46.2 33.1 0 36.3-24.1 36.3-27.8v-65.3c0-7.9 16.003-76.651 82.203-76.651l1.198 64.051s-16.8.7-16.8 16.8v68c0 9.5-14.7 85.6-104.5 85.6s-115.8-86.4-115.8-110.9 11.9-98.5 13.7-101c1.7-2.5 24.5-9.8 47.7 2.5 0 0 5.9-29.1 4.6-46-1.3-16.9-17.2-20.5-24.2-20.5h-111.1l-167.7 236s-25 39.7-72.2 39.7-82.1-42.1-82.1-79.6c-.7-10.5 9.1-43.5 20-68.2 0-5.1 3.2-22.2-15.8-22.2z"/><path d="M343.735 232.65h57.6s.8 22.9-13.9 24.5c-14.6 1.5-43.7-24.5-43.7-24.5z"/></g></svg>