<svg xmlns="http://www.w3.org/2000/svg" width="184.4" height="184.4"><g fill="#092f57"><path d="M92.2 65.4c-31.6 0-57.8 24.5-59.6 55.7 0 .8.2 1.5.8 2.1.5.6 1.3.9 2.1.9h21.1c1.5 0 2.7-1.1 2.9-2.7 1.6-16.8 15.7-29.5 32.8-29.5 17.1 0 31.2 12.7 32.8 29.5.1 1.5 1.4 2.7 2.9 2.7h21c.8 0 1.6-.3 2.1-.9.5-.6.8-1.3.8-2.1-1.9-31.3-28.1-55.7-59.7-55.7"/><path d="M92.2 97.7c-14.9 0-27.1 12-27.1 26.8s12.2 26.8 27.1 26.8c14.9 0 27.1-12 27.1-26.8s-12.2-26.8-27.1-26.8"/><path d="M92.2 33.1c-24 0-46.8 9.1-64.1 25.6C10.9 75.2.9 97.3 0 121c0 .8.3 1.5.8 2.1.6.6 1.3.9 2.1.9h20.9c1.5 0 2.8-1.2 2.9-2.7 1.7-34.7 30.4-61.8 65.5-61.8 35 0 63.8 27.1 65.5 61.8.1 1.5 1.3 2.7 2.9 2.7h20.9c.8 0 1.5-.3 2.1-.9.6-.6.8-1.3.8-2.1-.9-23.7-10.9-45.8-28.1-62.3-17.3-16.4-40.1-25.6-64.1-25.6"/></g><path fill="none" d="M-47.578-27.471H73.989v281.763H-47.578z"/></svg>