<?xml version="1.0" encoding="UTF-8" standalone="no"?>
<!-- Created with Inkscape (http://www.inkscape.org/) -->

<svg
   xmlns:dc="http://purl.org/dc/elements/1.1/"
   xmlns:cc="http://creativecommons.org/ns#"
   xmlns:rdf="http://www.w3.org/1999/02/22-rdf-syntax-ns#"
   xmlns:svg="http://www.w3.org/2000/svg"
   xmlns="http://www.w3.org/2000/svg"
   xmlns:sodipodi="http://sodipodi.sourceforge.net/DTD/sodipodi-0.dtd"
   xmlns:inkscape="http://www.inkscape.org/namespaces/inkscape"
   version="1.1"
   id="svg5159"
   width="200"
   height="200"
   viewBox="0 0 200 200"
   sodipodi:docname="bhfcu.svg"
   inkscape:version="0.92.5 (2060ec1f9f, 2020-04-08)">
  <metadata
     id="metadata5165">
    <rdf:RDF>
      <cc:Work
         rdf:about="">
        <dc:format>image/svg+xml</dc:format>
        <dc:type
           rdf:resource="http://purl.org/dc/dcmitype/StillImage" />
        <dc:title></dc:title>
      </cc:Work>
    </rdf:RDF>
  </metadata>
  <defs
     id="defs5163" />
  <sodipodi:namedview
     pagecolor="#ffffff"
     bordercolor="#666666"
     borderopacity="1"
     objecttolerance="10"
     gridtolerance="10"
     guidetolerance="10"
     inkscape:pageopacity="0"
     inkscape:pageshadow="2"
     inkscape:window-width="1920"
     inkscape:window-height="1028"
     id="namedview5161"
     showgrid="false"
     inkscape:zoom="1.18"
     inkscape:cx="358.00582"
     inkscape:cy="38.582919"
     inkscape:window-x="0"
     inkscape:window-y="0"
     inkscape:window-maximized="1"
     inkscape:current-layer="svg5159" />
  <g
     id="g6386"
     transform="translate(1.0859168,289.89907)">
    <path
       style="fill:#f39135"
       d="m 152.9834,-195.85366 c -9.50064,-1.60323 -25.83086,-7.25563 -25.83086,-8.94086 0,-0.39475 2.5875,-1.27808 5.75,-1.96296 15.31133,-3.31585 30.59463,-14.96766 40.8484,-31.14234 3.11384,-4.91188 6.03294,-8.93069 6.4869,-8.93069 1.27573,0 8.48655,12.74813 11.31276,20 2.70099,6.9306 5.97413,18.80308 7.08353,25.69376 0.58904,3.65862 0.44189,4.1829 -1.15319,4.10866 -1.00562,-0.0468 -5.34846,0.42851 -9.65076,1.05624 -8.69621,1.26884 -27.64719,1.33312 -34.84678,0.11819 z"
       id="path5732"
       inkscape:connector-curvature="0" />
    <path
       style="fill:#a5cd38"
       d="m 85.071932,-90.7737 c -27.8049,-5.11442 -50.56142,-19.06523 -66.97177,-41.05681 -9.4721705,-12.69369 -17.29297047,-33.9922 -18.59003047,-50.62651 l -0.63366003,-8.1265 5.88804,-2.33435 c 4.67874,-1.85493 7.8391505,-2.34141 15.3880305,-2.36869 8.46025,-0.0306 10.07016,0.26571 14.70946,2.70716 7.33292,3.85897 16.50398,12.78235 31.59491,30.74162 15.68146,18.66203 31.04089,34.14232 39.190638,39.49901 11.90308,7.8237 29.15593,13.48505 41.21283,13.52357 5.78777,0.0185 8.61286,1.39418 6.29216,3.06398 -4.37517,3.14805 -20.76097,10.17156 -29.03501,12.44539 -10.3387,2.84123 -30.320328,4.13706 -39.045598,2.53213 z m 57.580608,-34.77136 c -7.23773,-1.00093 -15.5773,-3.75715 -23,-7.60146 -9.71328,-5.03064 -21.576258,-16.46563 -41.169278,-39.68399 -20.22741,-23.97013 -30.12177,-32.54676 -42.86985,-37.16046 -6.89339,-2.49481 -20.17401,-2.94984 -27.3118105,-0.93578 -2.39302,0.67523 -4.58161,0.99702 -4.86354,0.71509 -0.65246,-0.65245 3.01398,-12.78101 5.69774,-18.8481 2.6475205,-5.98516 6.1482005,-7.30553 19.0167405,-7.17266 16.37393,0.16906 26.75632,4.99076 65.5,30.41896 13.199998,8.6634 25.878308,16.69539 28.174018,17.84886 12.21848,6.13912 31.0646,10.12335 47.91698,10.13007 11.94873,0.005 26.60812,-1.78219 27.64369,-3.36971 0.40408,-0.61945 0.74158,0.58779 0.75,2.68275 0.009,2.28797 -0.38402,3.56222 -0.98469,3.19098 -0.55734,-0.34445 -1,0.41298 -1,1.71108 0,8.0421 -9.10385,30.1052 -16.88144,40.91203 l -4.0469,5.62311 -7.57668,1.12689 c -7.303,1.08619 -18.7562,1.27513 -24.99498,0.41234 z m -32.02345,-95.27339 c -9.34244,-1.37329 -15.943588,-3.91185 -24.976548,-9.60503 -22.29493,-14.05178 -39.06722,-20.97357 -53.52244,-22.08828 -4.4253,-0.34125 -8.27521,-0.99135 -8.55537,-1.44465 -0.81094,-1.31212 7.28982,-9.50798 15.54866,-15.7312 27.05715,-20.38817 63.463638,-25.6581 95.117388,-13.76848 10.17912,3.82343 22.15548,10.76931 29.36412,17.03017 l 4.95235,4.30123 -1.17711,3.89709 c -3.39453,11.23836 -16.99083,27.70973 -27.10265,32.83378 -5.65312,2.86465 -16.57254,5.60205 -21.62495,5.42119 -1.65,-0.0591 -5.26055,-0.43968 -8.02345,-0.84582 z"
       id="path5720"
       inkscape:connector-curvature="0" />
    <path
       style="fill:#00b2cc;fill-opacity:1"
       d="m 110.62909,-220.81845 c -9.34244,-1.37329 -15.943588,-3.91185 -24.976548,-9.60503 -22.29493,-14.05178 -39.06722,-20.97357 -53.52244,-22.08828 -4.4253,-0.34125 -8.27521,-0.99135 -8.55537,-1.44465 -0.81094,-1.31212 7.28982,-9.50798 15.54866,-15.7312 27.05715,-20.38817 63.463638,-25.6581 95.117388,-13.76848 10.17912,3.82343 22.15548,10.76931 29.36412,17.03017 l 4.95235,4.30123 -1.17711,3.89709 c -3.39453,11.23836 -16.99083,27.70973 -27.10265,32.83378 -5.65312,2.86465 -16.57254,5.60205 -21.62495,5.42119 -1.65,-0.0591 -5.26055,-0.43968 -8.02345,-0.84582 z"
       id="path5722"
       inkscape:connector-curvature="0" />
    <path
       style="fill:#6d8796"
       d="m 85.071932,-90.7737 c -27.8049,-5.11442 -50.56142,-19.06523 -66.97177,-41.05681 -9.4721705,-12.69369 -17.29297047,-33.9922 -18.59003047,-50.62651 l -0.63366003,-8.1265 5.88804,-2.33435 c 4.67874,-1.85493 7.8391505,-2.34141 15.3880305,-2.36869 8.46025,-0.0306 10.07016,0.26571 14.70946,2.70716 7.33292,3.85897 16.50398,12.78235 31.59491,30.74162 15.68146,18.66203 31.04089,34.14232 39.190638,39.49901 11.90308,7.8237 29.15593,13.48505 41.21283,13.52357 5.78777,0.0185 8.61286,1.39418 6.29216,3.06398 -4.37517,3.14805 -20.76097,10.17156 -29.03501,12.44539 -10.3387,2.84123 -30.320328,4.13706 -39.045598,2.53213 z"
       id="path5748"
       inkscape:connector-curvature="0" />
  </g>
</svg>
