<svg xmlns="http://www.w3.org/2000/svg" width="32.709" height="32.708" viewBox="0 0 8.654 8.654"><g transform="translate(-48.14 -167.185)"><circle cx="52.468" cy="171.512" fill="#fff" fill-rule="evenodd" r="4.327"/><path d="M54.487 170.555a2.55 2.55 0 01-.98.264l.035.022c1.119.674 2.551.5 3.253.354a4.305 4.305 0 00-.847-2.27c-.218.486-.665 1.231-1.46 1.63" fill="#f39135"/><path d="M52.103 169.894c.06.037.16.092.279.135.696.235 1.31.224 1.824-.034.803-.402 1.172-1.292 1.277-1.596a4.324 4.324 0 00-3.01-1.214c-1.357 0-2.569.624-3.363 1.6.072-.006.145-.01.217-.01.949 0 1.892.538 2.776 1.12" fill="#00b2cc"/><path d="M53.218 171.376c-.33-.198-.664-.424-.989-.643-1.28-.865-2.494-1.683-3.621-1.176a4.31 4.31 0 00-.404 1.219c.321-.116.61-.169.875-.17 1.032 0 1.692.792 2.426 1.672.35.418.744.893 1.221 1.338 1.005.94 2.297.848 3.069.673a4.3 4.3 0 001-2.453c-.83.157-2.337.288-3.577-.46" fill="#a5cd38"/><path d="M52.303 174.068c-.505-.472-.913-.962-1.273-1.394-.984-1.179-1.532-1.83-2.888-1.203l-.001.04a4.33 4.33 0 004.333 4.328c.946 0 1.82-.304 2.533-.817-.836.034-1.844-.15-2.704-.954" fill="#6d8796"/></g></svg>