<svg xmlns="http://www.w3.org/2000/svg" width="200" height="200"><path d="M154.07 94.045c-9.501-1.603-25.832-7.255-25.832-8.94 0-.395 2.588-1.279 5.75-1.963 15.312-3.316 30.595-14.968 40.849-31.143 3.114-4.912 6.033-8.93 6.487-8.93 1.275 0 8.486 12.748 11.313 20 2.7 6.93 5.974 18.803 7.083 25.693.59 3.659.442 4.183-1.153 4.109-1.006-.047-5.349.428-9.65 1.056-8.697 1.27-27.648 1.333-34.848.118z" fill="#f39135"/><path d="M86.158 199.125c-27.805-5.114-50.562-19.065-66.972-41.056-9.472-12.694-17.293-33.993-18.59-50.627l-.634-8.126L5.85 96.98c4.68-1.855 7.84-2.341 15.388-2.368 8.46-.031 10.07.265 14.71 2.707 7.333 3.859 16.504 12.782 31.595 30.741 15.681 18.662 31.04 34.143 39.19 39.5 11.904 7.823 29.156 13.484 41.213 13.523 5.788.018 8.613 1.394 6.292 3.064-4.375 3.148-20.76 10.171-29.035 12.445-10.338 2.841-30.32 4.137-39.045 2.532zm57.58-34.771c-7.237-1-15.577-3.757-23-7.601-9.713-5.031-21.576-16.466-41.169-39.684-20.227-23.97-30.122-32.547-42.87-37.16-6.893-2.496-20.174-2.95-27.311-.937-2.394.676-4.582.997-4.864.715-.652-.652 3.014-12.78 5.698-18.848 2.647-5.985 6.148-7.305 19.016-7.172 16.374.169 26.757 4.99 65.5 30.419 13.2 8.663 25.879 16.695 28.174 17.848 12.219 6.14 31.065 10.124 47.917 10.13 11.95.006 26.609-1.782 27.644-3.37.404-.619.742.589.75 2.684.01 2.288-.384 3.562-.985 3.19-.557-.344-1 .414-1 1.712 0 8.042-9.103 30.105-16.881 40.912l-4.047 5.623-7.577 1.127c-7.303 1.086-18.756 1.275-24.995.412zm-32.023-95.273c-9.342-1.374-15.944-3.912-24.977-9.605-22.294-14.052-39.067-20.974-53.522-22.089-4.425-.34-8.275-.991-8.555-1.444-.811-1.312 7.29-9.508 15.548-15.732C67.266-.177 103.673-5.447 135.327 6.443c10.179 3.823 22.155 10.77 29.364 17.03l4.952 4.301-1.177 3.897c-3.394 11.239-16.99 27.71-27.103 32.834-5.653 2.865-16.572 5.602-21.625 5.421-1.65-.059-5.26-.44-8.023-.845z" fill="#a5cd38"/><path d="M111.715 69.08c-9.342-1.373-15.944-3.911-24.977-9.604-22.294-14.052-39.067-20.974-53.522-22.089-4.425-.34-8.275-.991-8.555-1.444-.811-1.312 7.29-9.508 15.548-15.732C67.266-.177 103.673-5.447 135.327 6.443c10.179 3.823 22.155 10.77 29.364 17.03l4.952 4.301-1.177 3.897c-3.394 11.239-16.99 27.71-27.103 32.834-5.653 2.865-16.572 5.602-21.625 5.421-1.65-.059-5.26-.44-8.023-.845z" fill="#00b2cc"/><path d="M86.158 199.125c-27.805-5.114-50.562-19.065-66.972-41.056-9.472-12.694-17.293-33.993-18.59-50.627l-.634-8.126L5.85 96.98c4.68-1.855 7.84-2.341 15.388-2.368 8.46-.031 10.07.265 14.71 2.707 7.333 3.859 16.504 12.782 31.595 30.741 15.681 18.662 31.04 34.143 39.19 39.5 11.904 7.823 29.156 13.484 41.213 13.523 5.788.018 8.613 1.394 6.292 3.064-4.375 3.148-20.76 10.171-29.035 12.445-10.338 2.841-30.32 4.137-39.045 2.532z" fill="#6d8796"/></svg>