<?xml version="1.0" encoding="UTF-8" standalone="no"?>
<!-- Created with Inkscape (http://www.inkscape.org/) -->

<svg
   xmlns:dc="http://purl.org/dc/elements/1.1/"
   xmlns:cc="http://creativecommons.org/ns#"
   xmlns:rdf="http://www.w3.org/1999/02/22-rdf-syntax-ns#"
   xmlns:svg="http://www.w3.org/2000/svg"
   xmlns="http://www.w3.org/2000/svg"
   xmlns:sodipodi="http://sodipodi.sourceforge.net/DTD/sodipodi-0.dtd"
   xmlns:inkscape="http://www.inkscape.org/namespaces/inkscape"
   version="1.1"
   id="svg12828"
   xml:space="preserve"
   width="139"
   height="139"
   viewBox="0 0 139 139"
   sodipodi:docname="cbq.svg"
   inkscape:version="0.92.5 (2060ec1f9f, 2020-04-08)"><metadata
     id="metadata12834"><rdf:RDF><cc:Work
         rdf:about=""><dc:format>image/svg+xml</dc:format><dc:type
           rdf:resource="http://purl.org/dc/dcmitype/StillImage" /><dc:title /></cc:Work></rdf:RDF></metadata><defs
     id="defs12832" /><sodipodi:namedview
     pagecolor="#ffffff"
     bordercolor="#666666"
     borderopacity="1"
     objecttolerance="10"
     gridtolerance="10"
     guidetolerance="10"
     inkscape:pageopacity="0"
     inkscape:pageshadow="2"
     inkscape:window-width="1920"
     inkscape:window-height="1028"
     id="namedview12830"
     showgrid="false"
     inkscape:zoom="1.4142136"
     inkscape:cx="100.07827"
     inkscape:cy="102.19535"
     inkscape:window-x="0"
     inkscape:window-y="0"
     inkscape:window-maximized="1"
     inkscape:current-layer="g12836" /><g
     id="g12836"
     inkscape:groupmode="layer"
     inkscape:label="commercialbank_logo"
     transform="matrix(1.3333333,0,0,-1.3333333,-131.6976,760.7008)"><g
       id="g13678"
       transform="translate(3.4962559,0.26280501)"><g
         transform="translate(164.8711,570)"
         id="g12846"><path
           inkscape:connector-curvature="0"
           id="path12848"
           style="fill:#a40348;fill-opacity:1;fill-rule:nonzero;stroke:none"
           d="M 0,0 H 4.348 C 7.11,-0.248 9.823,-0.909 12.429,-1.849 9.515,-2.424 6.565,-3.035 3.883,-4.358 -3.409,-7.768 -8.914,-14.711 -10.54,-22.595 c -1.671,-7.525 0.318,-15.726 5.151,-21.721 4.348,-5.55 11.045,-9.095 18.05,-9.777 -8.227,-3.258 -17.964,-2.454 -25.428,2.348 -7.06,4.409 -11.969,12.12 -12.863,20.408 -0.974,7.717 1.495,15.767 6.58,21.646 C -14.297,-4.111 -7.283,-0.626 0,0" /></g><g
         transform="translate(114.9092,547.8345)"
         id="g12850"><path
           inkscape:connector-curvature="0"
           id="path12852"
           style="fill:#a40348;fill-opacity:1;fill-rule:nonzero;stroke:none"
           d="M 0,0 C 6.909,3.363 15.06,3.323 22.231,0.793 19.983,0.298 17.701,-0.101 15.54,-0.924 8.524,-3.53 2.752,-9.288 0.176,-16.317 c -2.949,-7.858 -1.843,-17.136 3.026,-23.994 4.298,-6.343 11.499,-10.398 19.064,-11.262 -8.58,-3.288 -18.736,-2.308 -26.291,3.02 -6.939,4.717 -11.499,12.671 -12.111,21.039 v 4.445 C -15.302,-13.247 -9.01,-4.076 0,0" /></g><g
         transform="translate(157.7148,540.0674)"
         id="g12854"><path
           inkscape:connector-curvature="0"
           id="path12856"
           style="fill:#a40348;fill-opacity:1;fill-rule:nonzero;stroke:none"
           d="m 0,0 c 5.984,2.288 12.737,2.57 18.842,0.57 7.515,-2.353 13.848,-8.075 17.045,-15.256 2.802,-6.248 3.192,-13.52 1.106,-20.04 -2.48,-7.827 -8.565,-14.393 -16.191,-17.443 -6.591,-2.702 -14.171,-2.687 -20.812,-0.142 5.393,0.784 10.661,2.869 14.741,6.551 5.823,5.095 9.186,12.878 8.843,20.62 -0.267,8.418 -4.934,16.535 -12.06,21.019 C 8.065,-1.838 4.05,-0.646 0,0" /></g><g
         transform="translate(117.3735,520.4673)"
         id="g12858"><path
           inkscape:connector-curvature="0"
           id="path12860"
           style="fill:#a40348;fill-opacity:1;fill-rule:nonzero;stroke:none"
           d="m 0,0 c 6.303,2.469 13.5,2.581 19.863,0.257 7.054,-2.525 12.978,-8.029 16.014,-14.878 3.454,-7.585 3.257,-16.736 -0.541,-24.16 -3.58,-7.181 -10.408,-12.656 -18.206,-14.57 -5.641,-1.449 -11.686,-0.98 -17.12,1.061 7.267,0.939 14.232,4.676 18.524,10.691 4.611,6.187 6.237,14.479 4.268,21.944 -2.031,8.186 -8.318,15.13 -16.217,18.049 C 4.47,-0.778 2.217,-0.424 0,0" /></g></g></g></svg>