<svg xmlns="http://www.w3.org/2000/svg" width="151.181106567383" height="151.181106567383" viewBox="0 0 40 40" xmlns:v="https://vecta.io/nano"><defs><clipPath id="A"><path d="M290.857 18.372h96.757v74.11h-96.757z"/></clipPath><clipPath id="B"><path d="M290.857 18.372h96.757v74.11h-96.757z"/></clipPath></defs><path fill="#245e86" fill-rule="evenodd" d="M0 0h40v40H0z"/><g clip-path="url(#A)" transform="matrix(.39056 0 0 -.39056 -112.579 41.45499999999999)"><path d="M366.697 48.01c19.022 16.574 22.248 33.1 7.204 36.936s-42.66-6.51-61.683-23.084-22.247-33.11-7.203-36.936 42.66 6.5 61.682 23.084m11.256 40.466c15.752-4.005 11.286-22.268-9.974-40.792S316.715 17.4 300.963 21.395s-11.287 22.268 9.973 40.8 51.265 30.295 67.017 26.3" fill="#fff"/><path d="M337.9 72.34l5.565.273c9.194 0 9.523-4.722 9.523-11.14 0-7.302-2.226-9.747-10.924-9.747-1.278 0-2.556.034-4.164.136zm-7.668-22.006l5.813.067 8.616-.068c10.14.408 12.573 3.94 12.573 12.226 0 3.328-.412 7.302-3.75 9.577-2.3 1.596-5.566 1.8-8.452 1.766-1.65 0-6.4-.068-8.987-.068l-5.813.07v-1.156c4 0 3.958-.475 3.958-2.31V53.8c0-1.835.04-2.3-3.958-2.3zm-1.977 7.098V51.42c-1.855-.815-9.193-1.358-10.966-1.358-10.017 0-13.356 4.347-13.356 12.226 0 8.15 4.246 12.056 14.222 12.056 3.793 0 6.43-.44 10.1-1.324v-5.468h-2.226l-.124.985c-.577 3.804-2.638 4.55-7.75 4.55-7.627 0-9.935-4.584-9.935-10.222 0-6.18 1.36-11.648 10.14-11.648 6.35 0 7.008 1.46 7.544 6.215zm55.214.106v-6.01c-1.856-.816-9.194-1.36-10.967-1.36-10.017 0-13.357 4.348-13.357 12.227 0 8.15 4.247 12.056 14.223 12.056 3.792 0 6.43-.44 10.1-1.324V67.66h-2.226l-.124.985c-.577 3.804-2.638 4.55-7.75 4.55-7.627 0-9.935-4.584-9.935-10.22 0-6.18 1.36-11.65 10.14-11.65 6.35 0 7.008 1.46 7.544 6.216z" fill="#114781"/><path d="M300.328 35.562h77.954l3.564 12.342H303.9zM338.073 73.2l5.565.273c9.193 0 9.523-4.72 9.523-11.14 0-7.302-2.226-9.746-10.924-9.746-1.278 0-2.556.034-4.164.136zm-7.668-22.006l5.813.068 8.616-.068c10.14.408 12.573 3.94 12.573 12.226 0 3.328-.412 7.302-3.75 9.577-2.3 1.596-5.565 1.8-8.45 1.766-1.65 0-6.4-.068-8.987-.068l-5.813.068V73.62c4 0 3.957-.476 3.957-2.3v-16.64c0-1.834.042-2.3-3.957-2.3zm-1.977 7.098V52.3c-1.855-.816-9.193-1.36-10.966-1.36-10.017 0-13.357 4.348-13.357 12.227 0 8.15 4.246 12.057 14.223 12.057 3.792 0 6.43-.442 10.1-1.325v-5.467h-2.226l-.124.984c-.577 3.804-2.638 4.55-7.75 4.55-7.627 0-9.935-4.584-9.935-10.22 0-6.182 1.36-11.65 10.14-11.65 6.348 0 7.008 1.46 7.544 6.216zm55.212.106v-6.01c-1.854-.816-9.192-1.36-10.965-1.36-10.017 0-13.357 4.347-13.357 12.226 0 8.15 4.246 12.057 14.223 12.057 3.792 0 6.43-.442 10.1-1.325V68.53h-2.226l-.124.984c-.578 3.804-2.638 4.55-7.75 4.55-7.627 0-9.935-4.585-9.935-10.222 0-6.182 1.36-11.65 10.14-11.65 6.35 0 7.01 1.46 7.545 6.215z" fill="#fff"/></g><path d="M5.8 26.47v-2.656h1.16v.3h-.798v.84h.76v.3h-.76v1.215h-.18zm1.414.048V23.86h1.192v.302h-.83v.84h.78v.3h-.78v.914h.854v.3z" fill="#114781"/><g clip-path="url(#B)" transform="matrix(.39056 0 0 -.39056 -112.579 41.45499999999999)"><path d="M311.457 39.017h.95c.403 0 .684.1.843.298s.237.552.237 1.06v2.647c0 .468-.086.795-.26.98s-.48.277-.922.277h-.848zm-.926 6.03h1.66c.784 0 1.35-.156 1.7-.47s.523-.828.523-1.538v-2.652c0-.755-.133-1.3-.4-1.637s-.703-.504-1.307-.504h-2.175zm4.7-6.802v6.803h3.05v-.77h-2.124v-2.15h1.995v-.77h-1.995v-2.34h2.185v-.77zm4.75 3.847h.744c.47 0 .8.09.96.267s.255.514.255 1.008V43.3c0 .372-.087.628-.26.767s-.492.2-.955.2h-.744zm-.926 2.956h2.156c.563 0 .98-.138 1.25-.415s.405-.704.405-1.284v.07c0-.622-.153-1.07-.458-1.347-.203-.187-.495-.31-.878-.372.412-.03.698-.126.86-.3.19-.196.29-.575.3-1.138l.058-1.027.02-.16.07-.453.094-.386h-.978l-.098.487a3.45 3.45 0 0 0-.041.284l-.014.145-.052.94c-.006.44-.1.753-.248.94s-.42.28-.783.28h-.734v-3.075h-.926zm5.674-4.488h1.5l-.762 3.65h.008zm.167 4.488h1.236l1.558-6.803h-1l-.314 1.543h-1.818l-.324-1.543h-.905zm3.414-6.803v6.803h.926v-6.03h1.983v-.772zm8.964 2.208v-.202c.022-.738-.107-1.27-.387-1.598s-.746-.492-1.397-.492c-.64 0-1.115.152-1.423.456s-.462.773-.462 1.406v3.03c0 .732.15 1.262.452 1.588s.8.5 1.47.5c.643 0 1.103-.148 1.38-.444.248-.256.37-.65.367-1.18v-.43h-.926v.202c.013.4-.04.692-.156.847s-.337.233-.662.233c-.354 0-.61-.1-.765-.27s-.234-.474-.234-.882v-3.023c0-.475.067-.803.2-.982s.377-.27.73-.27c.32 0 .55.103.7.3s.202.542.196 1v.2zm1.778 1.64h.744c.47 0 .8.09.96.267s.255.514.255 1.008V43.3c0 .372-.086.628-.26.767s-.492.2-.955.2h-.744zm-.926 2.956h2.158c.56 0 .978-.138 1.248-.415s.405-.704.405-1.284v.07c0-.622-.152-1.07-.458-1.347-.202-.187-.495-.31-.878-.372.412-.03.698-.126.86-.3.188-.196.288-.575.298-1.138l.058-1.027.02-.16.07-.453c.023-.125.055-.254.093-.386h-.977a13.07 13.07 0 0 0-.098.487 3.12 3.12 0 0 0-.042.284l-.014.145-.05.94c-.008.44-.1.753-.25.94s-.42.28-.783.28h-.734v-3.075h-.926zm4.533-6.803v6.803h3.05v-.77h-2.124v-2.15h1.995v-.77h-1.995v-2.34h2.185v-.77zm4.76.772h.95c.404 0 .684.1.843.298s.237.552.237 1.06v2.647c0 .468-.086.795-.26.98s-.48.277-.922.277h-.848zm-.926 6.03h1.66c.785 0 1.352-.156 1.7-.47s.523-.828.523-1.538v-2.652c0-.755-.133-1.3-.4-1.637s-.702-.504-1.307-.504h-2.175zm4.687.001h.926v-6.803h-.926zm3.104-.772h-1.567v.772h4.06v-.772h-1.567v-6.032h-.926zm8.724-4.306c0-.604-.158-1.057-.476-1.358s-.793-.45-1.427-.45-1.115.15-1.433.45-.475.754-.475 1.358v5.078h.925v-4.8c0-.453.078-.784.236-.992s.406-.313.746-.313c.347 0 .596.102.748.306s.23.536.23.998v4.81h.925zm1.743-1.725h-.88v6.803h1.463l1.767-5.873v5.873h.867v-6.803h-1.465l-1.753 5.846zm4.04 6.803h.925v-6.803h-.926zm4.527-5.8c.158.2.238.55.238 1.023v2.85c0 .47-.072.792-.216.97s-.41.268-.793.268c-.356 0-.613-.11-.772-.333s-.238-.58-.238-1.078v-2.504c0-.574.072-.97.216-1.186s.41-.325.794-.325c.355 0 .613.105.77.315m-2.292-.593c-.276.33-.415.93-.415 1.802v2.508c0 .765.152 1.317.454 1.656s.796.51 1.482.51c.698 0 1.195-.168 1.49-.506s.444-.902.444-1.693v-2.856c0-.675-.15-1.162-.454-1.463s-.796-.45-1.48-.45c-.737 0-1.244.164-1.52.494m5.163-.41h-.88v6.803h1.462l1.768-5.873v5.873h.867v-6.803h-1.465l-1.753 5.846z" fill="#114781"/></g></svg>