<?xml version="1.0" encoding="UTF-8" standalone="no"?>
<svg
   xmlns:dc="http://purl.org/dc/elements/1.1/"
   xmlns:cc="http://creativecommons.org/ns#"
   xmlns:rdf="http://www.w3.org/1999/02/22-rdf-syntax-ns#"
   xmlns:svg="http://www.w3.org/2000/svg"
   xmlns="http://www.w3.org/2000/svg"
   viewBox="0 0 99.998482 99.999998"
   height="100"
   width="99.998482"
   xml:space="preserve"
   id="svg2"
   version="1.1"><metadata
     id="metadata8"><rdf:RDF><cc:Work
         rdf:about=""><dc:format>image/svg+xml</dc:format><dc:type
           rdf:resource="http://purl.org/dc/dcmitype/StillImage" /><dc:title></dc:title></cc:Work></rdf:RDF></metadata><defs
     id="defs6" /><path
     d="M 0,100 H 99.998485 V 0 H 0 Z"
     style="fill:#0099df;fill-opacity:1;fill-rule:nonzero;stroke:none;stroke-width:1.08697"
     id="path38" /><path
     d="m 86.895439,45.310818 c 0,-1.363828 -0.846428,-2.491347 -1.592745,-3.48995 -0.637728,-0.853602 -1.240673,-1.653615 -1.240673,-2.475368 0,-1.11741 0.630446,-1.836227 1.600027,-1.836227 0.484139,0 0.884146,0.184025 1.268174,0.363702 0.398593,0.185547 0.808709,0.378267 1.311652,0.378267 0.675338,0 1.279696,-0.718816 1.279696,-1.286978 0,-0.685446 -0.727512,-1.397089 -1.950794,-1.397089 -2.795699,0 -5.284111,3.169619 -5.284111,5.665313 0,1.35948 0.830449,2.420258 1.562418,3.352231 0.588379,0.752186 1.098497,1.401436 1.098497,2.068078 0,1.11741 -1.033387,1.788508 -2.028948,1.788508 -0.99719,0 -1.692854,-0.624684 -2.250798,-1.12904 -0.417399,-0.370985 -0.776861,-0.694251 -1.159476,-0.694251 -0.541966,0 -0.665229,1.143497 -0.665229,1.547852 0,0.646424 1.330457,1.716007 2.846461,1.716007 2.297104,0 5.205849,-2.153623 5.205849,-4.571055"
     style="fill:#ffffff;fill-opacity:1;fill-rule:nonzero;stroke:none;stroke-width:1.08697"
     id="path50" /><path
     d="m 25.871367,27.736609 c -0.05794,0 -0.120219,0.06087 -0.120219,0.11598 V 28.5251 c 0,0.04783 0.03185,0.08837 0.08261,0.110111 0.0043,0 0.415876,0.04054 0.415876,0.04054 l 0.520335,0.04783 c 0.678272,0.107284 0.857949,0.226091 0.857949,0.56664 0,0.571096 -0.642076,2.369605 -1.53046,4.859538 l -0.792731,2.243516 c -0.684033,1.981229 -1.746442,4.752254 -2.682654,7.194252 -1.118823,2.91744 -2.001447,5.217479 -2.001447,5.524767 0,0.370984 0.201417,0.460877 1.020235,0.460877 0.907298,0 1.313066,-0.140546 1.402958,-0.482617 1.563831,-5.165304 5.879773,-11.058121 8.10155,-11.058121 0.702947,0 0.953603,0.244896 0.953603,0.947842 0,1.146433 -0.970995,3.300056 -1.911554,5.387048 -0.829036,1.839161 -1.611658,3.575386 -1.611658,4.395726 0,0.75936 0.34055,1.143497 1.015996,1.143497 2.215907,0 3.881152,-1.988511 5.220305,-3.587017 l 0.189895,-0.22609 c 0.0029,-0.0059 0.03337,-0.07685 0.03337,-0.07685 l -0.03913,-0.07968 c 0.0043,0.0043 -0.45653,-0.542074 -0.45653,-0.542074 -0.0087,-0.01881 -0.03478,-0.03478 -0.06381,-0.04348 -0.03185,-0.0043 -0.06815,0.0043 -0.09859,0.03044 -0.755013,0.798601 -2.031882,1.995686 -2.392758,2.046448 -0.101414,0.0072 -0.168155,0 -0.207286,-0.04065 -0.04924,-0.05065 -0.05935,-0.157938 -0.0362,-0.347832 0.02315,-0.169568 0.259461,-0.736208 0.584032,-1.51883 0.846427,-2.027534 2.256559,-5.417483 2.256559,-7.423277 0,-1.60731 -0.766643,-2.529065 -2.104383,-2.529065 -2.701458,0 -4.876821,3.081248 -5.923252,4.560947 -0.239134,0.343484 -0.46816,0.665228 -0.527509,0.678272 -0.01891,0 -0.03337,-0.0043 -0.03913,-0.01304 -0.045,-0.06663 0.105763,-0.418811 0.381094,-1.056539 0.292831,-0.678272 0.736316,-1.702855 1.340674,-3.279729 2.028948,-5.295742 2.891353,-8.127637 2.891353,-8.365359 0,-0.315875 -0.297179,-0.356527 -0.585553,-0.356527 z"
     style="fill:#ffffff;fill-opacity:1;fill-rule:nonzero;stroke:none;stroke-width:1.08697"
     id="path54" /><path
     d="m 19.939419,46.625296 c 0.01304,-0.03337 0.01011,-0.08837 -0.01598,-0.120328 -0.0028,-0.0058 -0.463704,-0.492725 -0.463704,-0.492725 -0.0087,-0.02174 -0.03772,-0.04207 -0.07391,-0.04641 -0.02467,-0.0058 -0.05511,0.0043 -0.06815,0.02174 0.0058,-0.0014 -0.05359,0.04935 -0.05359,0.04935 -0.837732,0.773926 -2.462433,2.09134 -3.917458,2.191341 -0.556531,0.04348 -1.082626,-0.126089 -1.472524,-0.469573 -0.479682,-0.420333 -0.7536,-1.085562 -0.800013,-1.931989 -0.09859,-2.181124 1.757964,-5.488462 3.610169,-7.427625 0.994256,-1.043496 1.908727,-1.617419 2.572543,-1.617419 0.772513,0 1.257956,0.571097 1.727529,1.126106 0.411637,0.484139 0.798601,0.942081 1.340675,0.942081 0.215873,0 0.447834,-0.11011 0.620228,-0.288374 0.195655,-0.207286 0.294244,-0.471095 0.284135,-0.747839 -0.03913,-0.85371 -0.827623,-2.213081 -2.775482,-2.245038 -2.22895,-0.03913 -5.005845,1.314588 -7.078379,3.449406 -1.97536,2.037643 -3.004344,4.447793 -2.889842,6.784136 0.0855,1.965251 1.143508,4.062351 3.875401,4.062351 2.747873,0 5.178348,-2.459498 5.578355,-3.239185"
     style="fill:#ffffff;fill-opacity:1;fill-rule:nonzero;stroke:none;stroke-width:1.08697"
     id="path58" /><path
     d="m 55.926873,41.618038 c -0.05652,0.117393 -0.211634,0.426094 -0.249243,0.418812 -0.01304,0 -0.03772,-0.0029 -0.03772,-0.0029 0.0029,0 0.0073,-0.10435 0.0073,-0.10435 0.01011,-0.130437 0.146307,-0.701425 0.320223,-1.424589 0.327614,-1.373936 0.778273,-3.252229 0.778273,-3.788542 0,-0.707186 -0.384028,-1.094149 -1.08404,-1.094149 -1.473937,0 -3.700062,2.420258 -4.478336,3.717454 -0.01011,0.0028 -0.02315,0.02891 -0.02456,0.05218 -0.0029,0.0043 -0.0029,0.0087 -0.0029,0.01011 0,0.02902 0.01304,0.05511 0.03185,0.07533 l 0.44066,0.458051 c 0.01011,0.02315 0.04489,0.04196 0.08109,0.04196 0.03772,0 0.0725,-0.02022 0.08848,-0.05065 -0.0029,0 0.13185,-0.146415 0.13185,-0.146415 0.0043,-0.0043 0.111632,-0.142068 0.111632,-0.142068 0.498487,-0.62751 1.537635,-1.93188 2.075361,-1.93188 0.289896,0 0.453595,0.294244 0.453595,0.813057 0,1.300022 -1.434807,5.271067 -2.385475,7.901546 -0.53914,1.484047 -0.92469,2.562326 -0.92469,2.766677 0,0.286962 0.108698,0.417399 0.359463,0.417399 h 1.234803 c 0.259352,0 0.343484,-0.160873 0.520226,-0.547836 0.0087,-0.01587 0.611641,-1.450676 0.95219,-2.150688 2.447868,-5.001498 3.795717,-7.559584 4.820408,-8.556666 0.68262,-0.662294 1.169585,-0.960886 1.523178,-0.940559 0.270982,0.01739 0.439137,0.220221 0.621749,0.437616 0.194243,0.240656 0.397072,0.486964 0.755122,0.510226 0.252178,0.01446 0.491312,-0.07391 0.685446,-0.259461 0.304353,-0.288375 0.484138,-0.784035 0.484138,-1.32611 0,-0.910124 -0.634793,-1.23339 -1.181215,-1.23339 -2.240581,0 -3.895718,1.649376 -6.108799,6.079885"
     style="fill:#ffffff;fill-opacity:1;fill-rule:nonzero;stroke:none;stroke-width:1.08697"
     id="path62" /><path
     d="m 38.407774,46.370183 c 0,-4.036263 3.205815,-9.645053 6.36239,-9.645053 1.045017,0 1.649375,0.615988 1.649375,1.688506 0,1.665246 -4.381269,9.330484 -7.107402,9.330484 -0.572401,0 -0.904363,-0.223156 -0.904363,-1.373937 M 48.21957,35.294671 c -0.195656,0.05804 -0.310223,0.234786 -0.421747,0.402941 -0.130437,0.200004 -0.256526,0.389898 -0.491312,0.389898 -0.204352,0 -0.413051,-0.04641 -0.652185,-0.09565 -0.329027,-0.06815 -0.736317,-0.155111 -1.2885,-0.155111 -6.188474,0 -9.432007,8.321879 -9.432007,11.197254 0,1.952207 1.076866,2.8232 2.137754,2.8232 1.321761,0 3.121791,-0.444899 5.392808,-3.934849 0,0 0.501421,-0.849254 0.565227,-0.849254 0.02902,0 0.04489,0.0029 0.05794,0.01446 0.02033,0.02609 0.02761,0.07826 0,0.155111 l -0.179676,0.418812 c -0.285549,0.618923 -0.814471,1.765247 -0.814471,2.817439 0,0.498595 0.123155,0.873927 0.362289,1.111649 0.211634,0.205764 0.507291,0.308701 0.888385,0.304353 2.146449,-0.03772 4.003002,-2.805808 4.7016,-3.846478 -0.0059,0.0073 0.02609,-0.055 0.02609,-0.055 l -0.02902,-0.07978 -0.466639,-0.553596 c -0.06522,-0.05076 -0.124676,-0.04924 -0.166742,0 l -0.478269,0.584031 c -0.634793,0.794253 -1.424589,1.779813 -1.905793,1.779813 -0.111632,0 -0.181198,-0.02033 -0.220329,-0.06239 -0.05935,-0.05935 -0.07533,-0.178264 -0.0637,-0.417399 0.0362,-0.668055 1.341979,-4.094199 2.389823,-6.849354 0.773926,-2.033295 1.443502,-3.789847 1.468177,-4.073982 0.0014,-0.0637 -0.0087,-0.279679 -0.201417,-0.369571 h 0.0058 l -0.839144,-0.565227 c -0.0043,-0.0043 -0.04207,-0.02174 -0.04207,-0.02174 -0.09131,-0.05217 -0.208699,-0.11011 -0.302831,-0.06957"
     style="fill:#ffffff;fill-opacity:1;fill-rule:nonzero;stroke:none;stroke-width:1.08697"
     id="path66" /><path
     d="m 77.509846,36.45556 c 0.702838,0 1.19415,0.485552 1.19415,1.178281 0,1.705898 -1.966663,2.707328 -5.387047,2.766785 0.618923,-1.147845 2.486998,-3.945066 4.192897,-3.945066 m -9.146567,9.518965 c 0,2.302973 1.501438,3.907348 3.650822,3.907348 2.537651,0 5.218892,-2.420367 5.853685,-3.255164 0.03337,-0.04631 0.02174,-0.102827 -0.01163,-0.13185 l 0.0029,0.0029 -0.417399,-0.508704 c -0.05511,-0.04065 -0.117393,-0.04348 -0.157937,-0.01456 l -0.346419,0.255113 c -0.837731,0.626097 -2.392758,1.788399 -3.540603,1.788399 -1.418937,0 -2.298626,-0.900015 -2.298626,-2.356561 0,-1.765247 0.863819,-3.078204 1.494265,-4.03909 0,0 0.05794,-0.08696 0.07674,-0.114567 0.03337,0.0015 0.239134,0.01456 0.239134,0.01456 l 1.321762,0.04489 c 2.308734,0 6.62185,-1.102953 6.62185,-3.75365 0,-1.088496 -1.010125,-2.246451 -2.881135,-2.246451 -3.966806,0 -9.607444,5.381287 -9.607444,10.40735"
     style="fill:#ffffff;fill-opacity:1;fill-rule:nonzero;stroke:none;stroke-width:1.08697"
     id="path70" /><path
     d="m 65.750191,28.652602 z m 1.456546,17.484317 c 0.04065,-0.0537 0.01598,-0.105872 0.0087,-0.124676 -0.01011,-0.02609 -0.482617,-0.618815 -0.482617,-0.618815 -0.02174,-0.02609 -0.05217,-0.03913 -0.08402,-0.03913 -0.03185,0 -0.06087,0.01304 -0.08261,0.0362 l -0.160872,0.179677 c -1.202955,1.330457 -1.869597,2.063839 -2.420367,2.095687 -0.06228,0.0029 -0.152177,-0.0087 -0.226091,-0.08261 -0.08109,-0.08109 -0.121741,-0.223156 -0.107176,-0.404354 0.03185,-0.741969 1.2435,-4.22605 3.694193,-10.656593 l 1.779806,-4.60443 c 0.933276,-2.400041 1.401436,-3.604409 1.404262,-3.769629 0.0073,-0.101415 -0.02174,-0.18696 -0.07674,-0.24783 -0.08696,-0.09565 -0.245004,-0.136198 -0.486965,-0.136198 h -4.156591 c -0.06228,0 -0.111633,0.04348 -0.123155,0.108697 0,0.0028 -0.02174,0.666642 -0.02174,0.666642 0,0.05076 0.03326,0.10435 0.08544,0.113045 0.0029,0 0.926103,0.08261 0.926103,0.08261 0.594249,0.100002 0.83197,0.298484 0.813057,0.685447 -0.02022,0.582618 -2.702872,7.229143 -2.702872,7.229143 -1.439155,3.582669 -3.862456,9.807339 -3.937784,11.262473 -0.03185,0.652185 0.121742,1.173932 0.443486,1.514482 0.289896,0.30294 0.701425,0.455116 1.227521,0.455116 1.688507,0 3.376905,-2.105796 4.492902,-3.501472 l 0.19272,-0.243482 z"
     style="fill:#ffffff;fill-opacity:1;fill-rule:nonzero;stroke:none;stroke-width:1.08697"
     id="path74" /><path
     d="m 10.498706,58.639955 c 0,1.943511 1.541994,3.004399 3.050715,3.787021 l 0.646423,0.321744 c 1.508721,0.743491 2.123188,1.521765 2.123188,2.685589 0,1.327522 -0.857949,2.260908 -2.086992,2.260908 -1.975359,0 -3.071029,-2.050796 -3.549276,-3.272556 l -0.01449,-0.03185 -0.668131,0.226091 0.0043,0.03043 c 0.211601,1.252195 0.449279,2.60287 0.610151,3.133314 l 0.0044,0.01598 0.32756,0.121742 0.86958,0.307287 c 0.586967,0.218808 1.321762,0.341963 2.023186,0.341963 2.74059,0 4.656601,-1.697094 4.656601,-4.134853 0,-2.289821 -1.746443,-3.328969 -3.057987,-3.915935 l -0.518926,-0.237717 c -1.673941,-0.76523 -2.357975,-1.505786 -2.357975,-2.557977 0,-1.037735 0.630446,-2.086992 2.029056,-2.086992 1.640571,0 2.265256,1.291326 2.660914,2.55363 l 0.01011,0.03185 0.705773,-0.134785 -0.0072,-0.03478 c -0.176851,-1.002843 -0.305875,-1.891227 -0.395659,-2.721676 l -0.0029,-0.02033 -0.46816,-0.152176 -0.407181,-0.120328 c -0.513052,-0.182612 -1.208716,-0.289788 -1.856553,-0.289788 -2.547868,0 -4.330518,1.598505 -4.330518,3.894196"
     style="fill:#ffffff;fill-opacity:1;fill-rule:nonzero;stroke:none;stroke-width:1.08697"
     id="path78" /><path
     d="m 19.955398,61.886423 c 0,3.324621 2.313082,6.6812 7.47393,6.6812 1.331979,0 3.079835,-0.391311 3.817456,-0.600011 0.362397,-0.817405 0.82034,-2.511564 1.039148,-3.384078 l 0.0087,-0.03772 -0.631858,-0.139133 -0.01304,0.02174 c -1.043496,2.114601 -2.021773,3.266795 -4.220397,3.266795 -2.853635,0 -4.771059,-2.545043 -4.771059,-6.332064 0,-2.644935 1.250782,-5.729009 4.771059,-5.729009 2.068187,0 3.194293,0.886971 3.77115,2.960919 l 0.0087,0.02891 0.640555,-0.08544 -0.09565,-0.901429 -0.285549,-2.369605 h -0.02609 l -0.356542,-0.08412 c -0.692729,-0.163698 -1.844922,-0.437616 -3.289838,-0.437616 -4.613121,0 -7.840675,2.933311 -7.840675,7.140664"
     style="fill:#ffffff;fill-opacity:1;fill-rule:nonzero;stroke:none;stroke-width:1.08697"
     id="path82" /><path
     d="m 47.407925,55.058808 h -5.772597 v 0.631859 l 0.03478,0.0043 c 1.473938,0.117394 1.66242,0.215982 1.66242,2.434824 v 2.671023 h -6.07695 v -2.671023 c 0,-2.218842 0.182611,-2.31743 1.630462,-2.434824 l 0.03478,-0.0043 V 55.058808 H 33.0642 v 0.631859 l 0.03044,0.0043 c 1.708724,0.123155 1.829052,0.284027 1.829052,2.434824 v 7.068163 c 0,2.13047 -0.130437,2.310256 -1.75079,2.436345 l -0.02891,0.0058 v 0.627511 h 5.853685 v -0.627511 l -0.03185,-0.0058 c -1.520352,-0.118915 -1.710246,-0.221743 -1.710246,-2.436345 v -3.392775 h 6.07695 v 3.392775 c 0,2.149384 -0.117394,2.310256 -1.82764,2.436345 l -0.03326,0.0058 v 0.627511 h 5.934882 v -0.627511 l -0.03196,-0.0058 c -1.533286,-0.120328 -1.700028,-0.211634 -1.700028,-2.436345 v -7.068163 c 0,-2.150797 0.111632,-2.311669 1.737746,-2.434824 l 0.03337,-0.0043 v -0.631859 z"
     style="fill:#ffffff;fill-opacity:1;fill-rule:nonzero;stroke:none;stroke-width:1.08697"
     id="path86" /><path
     d="M 62.363177,64.847343 Z M 57.74723,58.966048 Z m 9.914624,-3.90724 h -4.684101 v 0.633272 l 0.733273,0.05217 c 0.401529,0.03478 0.608706,0.107285 0.715991,0.265222 0.06522,0.09131 0.09707,0.213047 0.09707,0.388485 0,0.213047 -0.04783,0.502835 -0.152176,0.904363 -0.04489,0.18696 -1.157954,4.573882 -2.024599,7.505887 -0.169568,-0.41305 -3.510277,-9.565378 -3.510277,-9.565378 l -0.0072,-0.02609 h -0.846427 c 0,0 -3.014508,9.458095 -3.056574,9.588532 -0.136197,-0.429029 -2.341995,-7.827632 -2.341995,-7.827632 -0.08261,-0.285549 -0.121742,-0.50577 -0.121742,-0.67099 0,-0.129024 0.02315,-0.224678 0.07239,-0.298592 0.105871,-0.163807 0.33631,-0.221743 0.697186,-0.268157 0.0028,0 0.650663,-0.04783 0.650663,-0.04783 v -0.03044 -0.602836 h -5.533354 v 0.633272 l 0.03326,0.0043 c 1.081214,0.121742 1.413067,0.233374 1.952207,1.953729 l 3.334865,10.782743 h 0.95219 c 0,0 3.100052,-9.310266 3.139183,-9.432007 0.152176,0.38555 3.431906,9.410267 3.431906,9.410267 l 0.01022,0.02174 h 0.943494 l 0.0058,-0.02457 c 1.862314,-6.245105 3.397123,-10.627679 3.414514,-10.67268 0.663816,-1.846335 0.823275,-1.923184 2.097209,-2.039165 l 0.03326,-0.0043 v -0.633272 z"
     style="fill:#ffffff;fill-opacity:1;fill-rule:nonzero;stroke:none;stroke-width:1.08697"
     id="path90" /><path
     d="m 73.670651,58.600824 -1.368176,-3.689845 -0.0275,0.0014 -0.852188,0.08989 -4.120396,10.585613 c -0.692729,1.81014 -0.917407,1.886989 -2.147862,2.047861 l -0.03044,0.0043 v 0.629032 h 4.556598 v -0.629032 l -0.592727,-0.07098 c -0.440551,-0.05076 -0.663816,-0.133372 -0.766644,-0.294245 -0.04935,-0.07391 -0.07109,-0.168155 -0.07109,-0.292722 0,-0.18696 0.05804,-0.44642 0.176851,-0.800013 l 0.107284,-0.323267 c 0.265222,-0.798491 0.560879,-1.707202 0.791318,-2.227537 h 3.702889 c 0.427507,1.085562 0.898602,2.288408 1.094257,2.876896 0.07967,0.252178 0.128915,0.443486 0.128915,0.589793 0,0.07978 -0.01304,0.146415 -0.04631,0.19859 -0.07391,0.121741 -0.255113,0.200003 -0.620336,0.253591 l -0.59425,0.09283 v 0.626097 h 5.389983 v -0.629032 l -0.03185,-0.0043 C 77.22135,67.516938 76.93004,67.418349 76.232963,65.587883 Z m -2.532,-0.359462 c 0.01598,0.04783 1.520352,4.285615 1.555135,4.376921 h -3.117444 c 0.03185,-0.09131 1.536222,-4.329094 1.553614,-4.376921 z"
     style="fill:#ffffff;fill-opacity:1;fill-rule:nonzero;stroke:none;stroke-width:1.08697"
     id="path94" /><path
     d="m 83.901258,61.592179 c 2.237646,0 3.520276,1.098605 3.520276,3.013094 0,2.056557 -1.381219,2.787004 -2.672545,2.787004 -0.585444,0.01739 -0.908602,-0.06087 -1.118823,-0.263809 -0.320223,-0.310114 -0.381093,-0.95219 -0.381093,-1.963729 v -3.57256 z m -4.532033,-6.533371 h -0.03478 v 0.631859 l 0.03044,0.0043 c 1.407306,0.117394 1.586983,0.215982 1.586983,2.433302 v 7.069685 c 0,2.214602 -0.195655,2.31743 -1.710137,2.436345 l -0.03185,0.0043 v 0.628924 h 5.066716 c 1.62318,0 2.997116,-0.28544 3.887022,-0.80871 1.236217,-0.746317 1.836227,-1.753616 1.836227,-3.084073 0,-1.830466 -1.336218,-3.094292 -3.57256,-3.400058 0.994255,-0.213047 2.811677,-1.069583 2.811677,-2.920375 0,-1.046322 -0.376854,-1.807204 -1.149258,-2.326017 -0.775448,-0.491313 -1.595679,-0.669577 -3.133423,-0.669577 z m 3.879848,1.813074 c 0,-0.466747 0,-0.808709 0.150655,-0.886971 0.04348,-0.02326 0.250765,-0.08848 0.90871,-0.08848 0.591315,0 2.516021,0.172503 2.516021,2.42178 0,1.602962 -0.995669,2.48265 -2.801569,2.48265 h -0.773817 z"
     style="fill:#ffffff;fill-opacity:1;fill-rule:nonzero;stroke:none;stroke-width:1.08697"
     id="path98" /></svg>
