<svg xmlns="http://www.w3.org/2000/svg" width="630" height="630" fill="none"><g fill="#1ec677"><path d="M449.098 274.65c-11.8 0-25.9 4.2-39.4 18.8-13.5-14.6-27.7-18.8-39.4-18.8 0 0-45.1-3.4-45.1 49.3v85.3h32.7v-80.5c0-23.6 15.8-24.1 18.9-23.4 0 0 5.7.3 10.9 5.7 0 0-10.4 13.6-11.2 30.7 0 0-2.3 44.3 33.2 44.3s33.2-44.3 33.2-44.3c-.8-17.1-11.2-30.7-11.2-30.7 5.2-5.4 10.9-5.7 10.9-5.7 3-.7 18.9-.2 18.9 23.4v80.5h32.7v-85.3c-.1-52.7-45.1-49.3-45.1-49.3zm-39.5 87.4c-7 0-9.3-8.8-9.4-17.2-.2-14.6 9.3-25.1 9.4-25.3.2.2 9.6 10.7 9.4 25.3 0 8.4-2.4 17.2-9.4 17.2zM306.798 276.85h-32.7v132.5h32.7zM290.498 219.45c-10.9 0-19.9 8.8-19.9 19.6 0 10.9 8.9 19.9 19.9 19.9 10.8 0 19.6-8.9 19.6-19.9 0-10.6-8.9-19.6-19.6-19.6zM170.598 285.75v-67.2h-32.4v190.8h32.4v-95.5c53.7-26.1 51.7 15.2 51.7 15.2v80.3h32.5v-80.3c-.1-77.6-67.9-52-84.2-43.3zM539.098 349.55c17.4 6.1 39.5 5.6 39.5 5.6 52.4-.3 50.9-38.4 50.9-38.4-1.3-42.9-51.7-42.1-51.7-42.1-41.7 0-70.9 28.6-70.9 69.5s28.6 67.3 72.8 67.3c18.8 0 36.7-5.2 49.2-14.3v-31.5c-13.1 11.3-28.8 17.3-45.4 17.3.1 0-45.3 2.3-44.4-33.4zm4-27.9c5.5-13.9 16.9-21.2 33.1-21.2 13.3 0 21 5.6 21 14.5 0 12.5-14.1 13.6-27.3 13.6-13 0-21-1.4-24.6-2.3l-3.5-.8zM71.098 411.45c23 0 39.3-8.7 49-16v-31.7c-14.3 11.3-31.1 17.8-46 17.8-23.8 0-40.5-16.4-40.5-40 0-22.4 15.2-38 36.9-38 7.1 0 13.2 1.8 19.7 3.6 6.7 1.9 13.7 4 22 4 2.6 0 5.2-.2 7.8-.6v-30.2c-2.2.2-4.3.4-6.5.4-7.5 0-14.3-1.4-21.4-2.9-7.5-1.6-15.2-3.2-24.3-3.2-18.1 0-34.9 6.4-47.2 18.2-13.1 12.5-20.1 29.9-20.1 50.2 0 40.3 29 68.4 70.6 68.4z"/></g></svg>