<svg xmlns="http://www.w3.org/2000/svg" xmlns:xlink="http://www.w3.org/1999/xlink" width="228.6" height="228.6"><g transform="translate(0 74.3)"><defs><path id="a" d="M0 0h228.6v80H0z"/></defs><clipPath id="b"><use xlink:href="#a" overflow="visible" width="100%" height="100%"/></clipPath><path clip-path="url(#b)" d="M57 21.4V35s0 .7.7 1.1c.6.4 1.4.4 1.4.4h1.6c4.7-.4 5.1-4.6 5.1-8.5 0-3.7-.6-7.9-4.6-8.3h-1.9c-.5 0-1.4 0-2 .4-.2.3-.4.8-.3 1.3m-6.5-2.7h10.9c5.5.4 8.3 4.7 8.2 9.6-.1 5.5-3.3 9.7-10.3 9.7h-8.8v-1h1c.7 0 1.1-.1 1.6-.6.4-.4.5-.8.5-1.6V21s0-.7-.9-1c-.4-.1-1.6-.1-1.6-.1h-.6z" fill="#1d1d1b"/></g><g transform="translate(0 74.3)"><defs><path id="c" d="M0 0h228.6v80H0z"/></defs><clipPath id="d"><use xlink:href="#c" overflow="visible" width="100%" height="100%"/></clipPath><path clip-path="url(#d)" d="M178.4 35.5L171.5 19H170l-6.7 16c-.7 1.9-2.6 2.3-3.6 2.5v.8h8.1v-1c-1 0-4.2.1-2.7-3.2l1.4-3.6h6.4l1.6 4c.4 1.1.6 1.6.4 2.1-.3 1-1.6.9-2.5.9v.9h9v-1c-1.2-.1-2.1.1-3-1.9zm-11.5-5.7l2.8-7.1 3 7.1z" fill="#1d1d1b"/></g><g transform="translate(0 74.3)"><defs><path id="e" d="M0 0h228.6v80H0z"/></defs><clipPath id="f"><use xlink:href="#e" overflow="visible" width="100%" height="100%"/></clipPath><path clip-path="url(#f)" d="M110 61.3l-6.8-16.5h-1.6l-6.1 15.4c-.9 2.1-2.9 2.9-4.1 3v1l8.6-.1v-1c-1 0-4.8.2-3.2-3.2l1.4-3.6h6.5l1.6 4c.4 1.1.6 1.6.4 2.1-.3 1-1.6.9-2.5.9v.9h8.9v-1c-1.2-.1-2.2.1-3.1-1.9zm-11.3-5.7l2.7-6.9 3 6.9z" fill="#1d1d1b"/></g><g transform="translate(0 74.3)"><defs><path id="g" d="M0 0h228.6v80H0z"/></defs><clipPath id="h"><use xlink:href="#g" overflow="visible" width="100%" height="100%"/></clipPath><path clip-path="url(#h)" d="M80.8 63.9c2 0 5.6.1 7.7-.6 2-.7 3.7-1.9 3.7-4.4.1-3.2-2.8-5.1-5.6-5.4v-.1c2.8-.4 4.9-1 4.9-3.9 0-4.3-5-4.8-8.6-4.7h-8.8v1h1.6s.9-.1 1.3.2c.4.2.3 1.1.3 1.1v14.2s.1.8-.2 1.2c-.4.4-1.4.4-1.4.4h-1.5v.8h6.6zm.4-17.6c.5-.5 1.3-.4 2.2-.4 2.5.1 4.7.1 4.5 4-.1 2.5-2.5 2.7-4.6 2.6h-2.5v-4.3c-.1.1-.2-1.3.4-1.9m-.5 7.7h2.7c4-.1 5.4 1.9 5.4 4.6 0 2-.4 4.4-4.5 4.4H83s-1.4.1-2-.4c-.5-.5-.4-1.8-.4-1.8z" fill="#1d1d1b"/></g><g transform="translate(0 74.3)"><defs><path id="i" d="M0 0h228.6v80H0z"/></defs><clipPath id="j"><use xlink:href="#i" overflow="visible" width="100%" height="100%"/></clipPath><path clip-path="url(#j)" d="M69.5 38.1v-.9h.7c.7 0 2.3-.1 2.2-2V21.6s.2-2-3.2-1.8V19h16.5l.1 7.2h-.7c0-.4-.5-3.9-2.1-5.1-1.1-.9-2.5-1-3.9-1h-1.7c-.7 0-1.9 0-1.8 1.4v5.9h1c1.2 0 2-.3 2.8-1.2.9-1 .8-1.9.9-3.1h.9v10h-1v-.4c-.1-3-1.2-4.2-3.1-4.2h-1.4v7.4s-.1 1 1.3 1h2.5c5.8.3 5.7-4.7 6.1-6.3h.8l-.1 7.6z" fill="#1d1d1b"/></g><g transform="translate(0 74.3)"><defs><path id="k" d="M0 0h228.6v80H0z"/></defs><clipPath id="l"><use xlink:href="#k" overflow="visible" width="100%" height="100%"/></clipPath><path clip-path="url(#l)" d="M102.5 36.3c-1.5 1.4-2.8 2.1-4.8 2.1-4.7 0-8.7-4.5-8.7-10s3.8-9.8 8.5-10c2-.1 3.6.6 4.9 1.9.4.4.9 1.2 1.6-1.3h.7v7.5h-.7c-.5-2-2.5-7-6.4-6.9-4.3.1-5.4 4.7-5.4 8.7 0 4.3 1.7 9.2 6.2 9.1 2.2-.1 3.8-.9 3.9-3.8 0-2 0-3.4-.8-3.9-.7-.4-1.2-.4-2.1-.5v-.7h9.4v.5c-.8.1-3.3.1-3.1 2.3v7h-1.1c0-.6.1-2.5-.6-2.8-.7-.1-1.5.8-1.5.8" fill="#1d1d1b"/></g><g transform="translate(0 74.3)"><defs><path id="m" d="M0 0h228.6v80H0z"/></defs><clipPath id="n"><use xlink:href="#m" overflow="visible" width="100%" height="100%"/></clipPath><path clip-path="url(#n)" d="M110.8 32.6V21.4s-.1-1.2-1-1.5c-.4-.1-1.6-.1-1.6-.1h-.6V19h9.6v.9c-1.1.1-3.5-.3-3.3 2.2v10c-.4 7.4 9.6 6.5 9.6.7v-9.6c.1-1-.1-1.8-.9-2.5-.7-.7-1.4-.7-2.3-.7v-1h8v.9c-1-.1-1.9-.1-2.5.7-.7.7-.8 1.5-.7 2.4v7.7c.3 7-4.1 8-6.1 8-5.3.1-8.3-2.1-8.2-6.1" fill="#1d1d1b"/></g><g transform="translate(0 74.3)"><defs><path id="o" d="M0 0h228.6v80H0z"/></defs><clipPath id="p"><use xlink:href="#o" overflow="visible" width="100%" height="100%"/></clipPath><path clip-path="url(#p)" d="M131.6 37.1c1 1 3.1 1.5 5.2 1.5 3.8 0 6.8-2.1 6.7-5.9-.1-2.7-1.8-5.1-5.8-6.1-.7-.1-1.6-.4-2.4-.7-1.9-.5-4-.8-4-3 0-2 1.7-3 3.8-3.1 3.9-.2 6.2 4 6.5 6.8h.7l-.2-7.6h-.7s-.1 1.4-.7 1.6c-.4.1-1.4-.6-1.4-.6-1.2-.9-2.6-1.3-4.3-1.3-3.9 0-6.1 2.1-6.1 5.2 0 2.8 1.9 4.5 5.1 5.4.6.1 1 .3 1.6.4 2.2.7 5.3.8 5.4 4 0 2.5-1.6 3.6-3.9 3.6-3.5.1-6.9-4-7.6-7.9h-.8v8.9h.7s.1-1.5.8-1.7c.5-.1 1.4.5 1.4.5" fill="#1d1d1b"/></g><g transform="translate(0 74.3)"><defs><path id="q" d="M0 0h228.6v80H0z"/></defs><clipPath id="r"><use xlink:href="#q" overflow="visible" width="100%" height="100%"/></clipPath><path clip-path="url(#r)" d="M148.6 37.1c1 1 3.1 1.5 5.2 1.5 3.8 0 6.8-2.1 6.7-5.9-.1-2.7-1.8-5.1-5.9-6.1-.7-.1-1.6-.4-2.4-.7-1.9-.5-4-.8-4-3 0-2 1.7-3 3.8-3.1 3.9-.2 6.2 4 6.5 6.8h.7L159 19h-.7s-.1 1.4-.7 1.6c-.4.1-1.4-.6-1.4-.6-1.2-.9-2.6-1.3-4.3-1.3-3.9 0-6.1 2.1-6.1 5.2 0 2.8 1.9 4.5 5.1 5.4.6.1 1 .3 1.6.4 2.2.7 5.3.8 5.4 4 0 2.5-1.6 3.6-3.9 3.6-3.5.1-6.9-4-7.6-7.9h-.8v8.9h.7s.1-1.5.8-1.7c.6-.1 1.5.5 1.5.5" fill="#1d1d1b"/></g><g transform="translate(0 74.3)"><defs><path id="s" d="M0 0h228.6v80H0z"/></defs><clipPath id="t"><use xlink:href="#s" overflow="visible" width="100%" height="100%"/></clipPath><path clip-path="url(#t)" d="M113.5 45.7c2.9 0 3.1 1 3.1 3.6V60c-.3 2.8-1.6 3.1-2.8 3.2v1h7.7v-1c-2.8.1-3.6-1.9-3.6-3.6V49.1l10.9 15h1.3V50c0-2.8.7-3.8 3.3-4.2V45h-8.1v1c2.5.2 3.4 1.3 3.4 4.2v8.7L119 45h-5.5z" fill="#1d1d1b"/></g><g transform="translate(0 74.3)"><defs><path id="u" d="M0 0h228.6v80H0z"/></defs><clipPath id="v"><use xlink:href="#u" overflow="visible" width="100%" height="100%"/></clipPath><path clip-path="url(#v)" d="M133.9 64.2h9.1v-.8c-2.3-.1-3-.4-3-2.8v-3.9l2.8-2.8 4.7 8c.4 1-.3 1.5-2.2 1.4v.9h9.7v-.9c-1.1-.1-2.3.4-4-2l-5.9-9.5 3.3-3.4c2.3-2.4 3.6-2.5 5.4-2.7v-.9h-9.3l.1.9c2.6-.1 3 1.8 1.6 3l-6.2 6v-6.5c0-2.5 1.1-2.5 3.2-2.5l.1-.9h-9.5v.9c2.4.1 3.4.3 3.3 2.5v12.3c.1 2.2-1 2.5-3 2.7l-.2 1c.1 0 0 0 0 0z" fill="#1d1d1b"/></g><g transform="translate(0 74.3)"><defs><path id="w" d="M0 0h228.6v80H0z"/></defs><clipPath id="x"><use xlink:href="#w" overflow="visible" width="100%" height="100%"/></clipPath><path clip-path="url(#x)" fill="#e1bb47" d="M200.7 50l5.2-10.4 2.6 5.4h571.4l-.1 9.2h-577z"/></g><g transform="translate(0 74.3)"><defs><path id="y" d="M0 0h228.6v80H0z"/></defs><clipPath id="z"><use xlink:href="#y" overflow="visible" width="100%" height="100%"/></clipPath><path clip-path="url(#z)" fill="#1a2e50" d="M-523.8 34.9l.2-9.2H26l22.5 44.9h131.6l22.4-44.9h577.3v9.2H208.2L185.8 80h-143L20.4 34.9z"/></g><g transform="translate(0 74.3)"><defs><path id="A" d="M0 0h228.6v80H0z"/></defs><clipPath id="B"><use xlink:href="#A" overflow="visible" width="100%" height="100%"/></clipPath><path clip-path="url(#B)" fill="#e1bb47" d="M-523.6 44.9L20 45 42.6 0h143.6l14.5 29.4-5.2 10.3-15.1-30.4H48.3L25.8 54.2h-549.4z"/></g></svg>