<svg xmlns="http://www.w3.org/2000/svg" width="487" height="487"><g fill="#2c7c86"><path d="M296.508 76.318c5.841 0 11.763-.162 17.604.08-.325 2.759-.325 5.518-.244 8.275v247.663c-.243 4.543-6.815 6.165-9.41 2.514-37.965-48.267-75.847-96.696-113.813-144.962-.081 73.576-.081 147.234 0 220.812-5.84.08-11.6 0-17.441 0V173.014c.081-6.326-.161-12.736.081-19.064.326-4.542 6.976-6.002 9.492-2.433 37.883 48.267 75.767 96.697 113.65 144.883.162-73.172 0-146.667.08-220.082M17.695 168.472v150.317c13.385 0 26.77.082 40.237 0 14.196-.163 28.716-4.543 39.586-13.953 9.492-8.112 15.82-19.307 19.388-31.15 4.949-16.468 5.273-34.153 1.947-50.944-2.677-13.304-7.787-26.61-17.36-36.424-10.87-11.762-27.094-17.441-42.832-17.766-13.709-.08-27.338-.08-40.966-.08zm41.94-17.36c16.873.568 33.827 5.76 47.05 16.386 12.006 9.328 20.524 22.714 25.31 37.072 5.516 16.468 7.382 34.07 5.922 51.35-1.461 14.926-5.355 29.853-13.06 42.832a73.977 73.977 0 01-23.931 25.148c-12.98 8.355-28.474 12.167-43.725 12.33H6.257c-3.245.324-6.247-2.677-6.084-5.92V157.681c-.081-2.19.73-4.542 2.676-5.76 1.38-.973 3.164-.81 4.868-.892 17.28.082 34.64-.162 51.918.082M372.681 247.646v71.143c17.522 0 35.126.082 52.647 0 11.925-.406 24.743-2.677 33.99-10.79 7.14-6.165 10.14-15.818 10.14-24.985.65-9.573-3.325-19.306-10.707-25.47-8.518-7.22-19.955-10.06-30.907-9.818-18.416-.08-36.748-.161-55.163-.08zm0-79.174c-.081 20.524 0 41.046 0 61.57 18.658.082 37.235 0 55.892.082 9.006.08 18.496-3.651 23.526-11.438 5.029-8.112 5.434-18.253 3.813-27.338-1.217-7.22-5.679-13.791-12.168-17.116-10.465-5.516-22.715-5.842-34.233-5.68-12.331-.08-24.582-.08-36.83-.08zm43.156-17.442c13.386.244 27.419 2.11 38.939 9.41 9.248 5.76 15.737 15.494 17.927 26.12 2.514 12.17 2.029 25.392-3.406 36.749-2.434 5.273-6.165 9.735-10.384 13.63 10.708 5.271 19.794 14.195 24.336 25.309 4.624 10.952 4.299 23.361 1.703 34.801-2.676 11.032-9.328 21.172-18.819 27.581-12.412 8.68-27.826 11.275-42.67 11.6h-61.49c-3.406.487-6.976-2.352-6.732-5.92V156.952c-.244-3.327 2.756-6.165 6.002-5.923h54.594"/></g></svg>