<svg xmlns="http://www.w3.org/2000/svg" width="134" height="134" viewBox="0 0 35.454 35.454"><path d="M32.74 20.365H2.714a2.487 2.487 0 01-2.487-2.487v-4.696a2.487 2.487 0 012.487-2.487H32.74a2.487 2.487 0 012.487 2.487v4.696a2.487 2.487 0 01-2.487 2.487" fill="#155ba0"/><path d="M5.704 24.136c0 .114-.02.191-.061.223a.333.333 0 01-.166.056c-.08.011-.221.016-.441.016H4.012v-.586h1.024c.246 0 .399.005.483.015a.25.25 0 01.118.045c.044.03.067.11.067.23m-.17-.662c-.03.017-.133.045-.498.045H4.012v-.538h1.024c.198 0 .338.005.426.016a.195.195 0 01.102.038c.04.03.06.103.06.215 0 .116-.029.19-.09.224m.29.168a.33.33 0 00.107-.111.645.645 0 00.06-.315.633.633 0 00-.062-.303c-.08-.147-.226-.23-.432-.246a5.961 5.961 0 00-.461-.014H3.652v2.107h1.384c.174 0 .313-.004.426-.013.242-.019.4-.07.485-.157.083-.086.124-.233.124-.449 0-.17-.027-.291-.082-.373a.351.351 0 00-.165-.126M13.544 22.98l.576 1.027h-1.216l.585-1.027zm-.276-.328l-1.195 2.107h.41l.24-.425H14.3l.24.425h.402l-1.191-2.107zM23.22 24.418l-1.765-1.766h-.51v2.107h.359V23l1.757 1.758h.519v-2.107h-.36zM30.607 23.68l1.57-1.028h-.638l-1.307.867h-.291v-.867h-.36v2.107h.36v-.913h.291l1.381.913h.643z" fill="#4f4c4d"/><path d="M3.56 12.962H7.33v.768h-2.8v1.412h2.648v.767H4.528v2.172h-.967zM9.353 18.08h-.968v-5.118h.968zM10.586 18.08v-5.118h1.198l1.587 2.195c.41.57.766 1.162 1.049 1.717h.018a19.47 19.47 0 01-.1-2.127v-1.785h.96v5.119H14.22l-1.605-2.247c-.392-.563-.802-1.193-1.104-1.77l-.027.008c.046.66.054 1.336.054 2.179v1.83zM20.034 15.918h-2.649v1.404l2.801-.01v.777h-3.768V12.97h3.768v.768h-2.8v1.41h2.648zM29.354 17.384c-1.12 0-2.028-.589-2.028-1.871s.908-1.871 2.028-1.871c1.119 0 2.026.837 2.026 1.87 0 1.034-.907 1.872-2.026 1.872m0-4.525c-1.654 0-2.995.998-2.995 2.654s1.34 2.653 2.995 2.653c1.653 0 2.993-1.187 2.993-2.653 0-1.465-1.34-2.654-2.993-2.654M25.609 17.194c-.347.12-.736.188-1.147.188-1.446 0-2.617-.586-2.617-1.86 0-1.275 1.171-1.86 2.617-1.86.42 0 .82.07 1.172.197l.233-.779a4.678 4.678 0 00-1.405-.212c-1.98 0-3.585.997-3.585 2.653 0 1.824 1.379 2.654 3.585 2.654.489 0 .955-.073 1.38-.204z" fill="#fabd25"/></svg>