<svg xmlns="http://www.w3.org/2000/svg" width="112" height="112"><path d="M102.8 107.8H9.2c-4.4 0-8-3.6-8-8V12.2c0-4.4 3.6-8 8-8h93.6c4.4 0 8 3.6 8 8v87.6c0 4.4-3.6 8-8 8z" stroke-miterlimit="10" fill="none" stroke="#000" stroke-width="2" stroke-linecap="round" stroke-linejoin="round"/><g fill="#1d1d1b"><path d="M34.2 52.5v-4.6h4.2v-2c0-2.2.7-4.1 2.1-5.5 1.4-1.4 3.5-2.1 6.4-2.1.6 0 1.2 0 1.9.1.6 0 1.2.1 1.8.1v5.2c-.8-.1-1.7-.1-2.5-.1-.9 0-1.6.2-2 .7-.4.4-.6 1.2-.6 2.2V48h4.8v4.6h-4.8v20.6h-6.9V52.5zM71.1 69.9c-.8 1.4-1.9 2.4-3.2 3-1.3.6-2.8.9-4.5.9-1.9 0-3.5-.4-5-1.1-1.4-.7-2.6-1.7-3.5-3-.9-1.3-1.6-2.7-2.1-4.3-.5-1.6-.7-3.3-.7-5.1 0-1.7.2-3.3.7-4.9.5-1.6 1.2-3 2.1-4.2.9-1.2 2.1-2.2 3.5-2.9 1.4-.7 3-1.1 4.9-1.1 1.5 0 2.9.3 4.3 1 1.3.6 2.4 1.6 3.2 2.8h.1V38.2h6.9v34.9h-6.6zm-.3-12.5c-.2-1-.5-1.8-1-2.5s-1.1-1.3-1.8-1.8-1.7-.7-2.8-.7c-1.1 0-2.1.2-2.9.7-.8.5-1.4 1.1-1.9 1.8s-.8 1.6-1 2.6c-.2 1-.3 2-.3 3s.1 2 .3 2.9c.2 1 .6 1.8 1.1 2.6.5.8 1.1 1.4 1.9 1.9.8.5 1.7.7 2.8.7 1.1 0 2.1-.2 2.9-.7.8-.5 1.4-1.1 1.8-1.8.5-.8.8-1.6 1-2.6.2-1 .3-2 .3-3-.1-1.1-.2-2.1-.4-3.1z"/></g></svg>