<svg xmlns="http://www.w3.org/2000/svg" width="378" height="378"><g fill="#e6323c"><path d="M362.65 186.763c8.484 0 13.137-2.83 15.327-5.749v-7.846c-2.83 1.368-6.843 3.103-12.043 3.103-7.572 0-11.13-3.468-11.13-12.135v-2.006c0-8.029 4.289-10.767 10.491-10.767 5.566 0 9.306 1.278 12.134 2.738v-9.58c-2.463-2.828-6.66-4.653-15.054-4.653-11.404 0-22.077 7.847-22.077 23.265v.091c0 14.87 8.94 23.539 22.352 23.539M320.35 185.667h14.415v-44.703H320.35v44.703M327.558 137.497c4.379 0 7.755-3.376 7.755-7.664 0-4.287-3.114-7.754-7.492-7.754-4.38 0-8.018 3.467-8.018 7.754 0 4.288 3.376 7.664 7.755 7.664M301.666 186.853c6.843 0 10.31-2.19 12.043-4.652v-6.57c-1.734.64-3.284 1.004-5.474 1.004-5.109 0-7.116-2.007-7.116-7.207V150.27h12.59v-9.305h-12.59v-11.769h-8.393c-2.19 8.667-4.015 12.954-11.587 13.685v7.39h5.566v22.26c0 10.948 7.389 14.323 14.961 14.323M103.24 185.667h14.414v-23.629c0-7.573 3.467-11.495 8.576-11.495 4.287 0 6.385 2.463 6.385 7.299v27.825h14.507v-29.65c0-10.948-5.473-16.149-14.324-16.149-8.393 0-13.411 4.836-15.509 12.135v-.73c0-2.92-.64-5.475-1.277-7.299-.365-1.094-.73-2.098-1.187-3.01H103.24v44.703M.023 185.667h14.78v-23.812h21.073v23.812h14.69V127.37h-14.69v22.9H14.803v-22.9H.023v58.297M81.744 169.702c0 5.93-2.737 9.03-6.295 9.03-3.01 0-4.834-1.732-4.834-4.925v-.456c0-3.194 2.097-4.745 6.02-6.295 2.098-1.004 3.74-1.824 5.109-3.011zm14.78 13.501c-.274-1.824-.365-4.926-.365-10.126v-14.232c0-11.951-5.383-18.977-19.341-18.977-10.674 0-15.874 4.106-18.064 7.026v8.758c2.28-1.55 7.846-4.105 14.414-4.105 6.843 0 8.576 1.916 8.576 4.56v.274c0 2.464-2.463 3.377-8.576 4.836-9.123 2.19-17.15 3.923-17.15 13.41v.092c0 7.299 5.199 12.134 12.771 12.134 6.934 0 11.496-3.284 13.32-8.85.09 2.281.547 4.198 1.186 5.566.273.821.639 1.46 1.003 2.098H96.98c-.183-.548-.365-1.37-.457-2.464M146.893 254.736h14.414V232.84l13.23 21.895H190.5l-15.692-24.815 15.236-19.888h-14.323l-14.415 19.98.394-36.674h-14.416l-.392 61.397M21.371 244.792h-6.568V230.56h6.386c7.664 0 10.218 2.281 10.218 7.115 0 4.654-1.733 7.117-10.036 7.117zm-6.568-37.404h7.024c5.474 0 7.755 2.462 7.755 6.933 0 4.378-2.19 7.208-8.393 7.208h-6.386zm14.14 18.246v-.275c9.58-1.093 14.415-4.926 14.415-13.593 0-10.673-7.482-15.326-21.348-15.326H.023v58.296h21.623c18.701 0 24.084-6.295 24.084-16.149 0-8.392-5.565-12.224-16.786-12.953M96.188 254.736h14.415v-23.629c0-7.572 3.467-11.494 8.575-11.494 4.289 0 6.387 2.463 6.387 7.297v27.826h14.506v-29.65c0-10.947-5.473-16.148-14.324-16.148-8.393 0-13.41 4.836-15.51 12.134v-.73c0-2.92-.638-5.474-1.276-7.299-.365-1.094-.73-2.098-1.187-3.01H96.188v44.703M74.955 238.77c0 5.931-2.737 9.033-6.295 9.033-3.01 0-4.836-1.734-4.836-4.927v-.456c0-3.193 2.099-4.745 6.022-6.295 2.098-1.004 3.74-1.824 5.109-3.012zm14.78 13.503c-.274-1.825-.365-4.927-.365-10.126v-14.232c0-11.952-5.383-18.977-19.341-18.977-10.674 0-15.875 4.105-18.064 7.025v8.758c2.28-1.55 7.846-4.105 14.414-4.105 6.842 0 8.576 1.916 8.576 4.562v.273c0 2.464-2.463 3.376-8.576 4.836-9.123 2.188-17.151 3.922-17.151 13.41v.091c0 7.299 5.2 12.133 12.772 12.133 6.934 0 11.496-3.282 13.32-8.848.09 2.281.547 4.197 1.186 5.566.273.82.639 1.458 1.003 2.097h12.682c-.183-.547-.365-1.368-.457-2.463M263.155 169.702c0 5.93-2.737 9.03-6.294 9.03-3.011 0-4.835-1.732-4.835-4.925v-.456c0-3.194 2.097-4.745 6.02-6.295 2.099-1.004 3.741-1.824 5.11-3.011zm14.779 13.501c-.273-1.824-.364-4.926-.364-10.126v-14.232c0-11.951-5.384-18.977-19.341-18.977-10.675 0-15.875 4.106-18.063 7.026v8.758c2.28-1.55 7.845-4.105 14.413-4.105 6.843 0 8.576 1.916 8.576 4.56v.274c0 2.464-2.462 3.377-8.576 4.836-9.122 2.19-17.15 3.923-17.15 13.41v.092c0 7.299 5.198 12.134 12.772 12.134 6.933 0 11.494-3.284 13.318-8.85.092 2.281.548 4.198 1.187 5.566.273.821.639 1.46 1.004 2.098h12.681c-.182-.548-.365-1.37-.457-2.464M169.54 186.944c11.951 0 19.25-5.2 19.25-15.783 0-5.017-1.37-8.485-6.205-11.039-4.196-2.19-10.856-2.19-14.87-3.466-1.825-.457-2.737-1.369-2.737-2.92 0-2.645 2.372-4.014 7.116-4.014 5.93 0 10.583 1.46 13.959 3.01v-8.758c-2.828-2.554-7.846-4.106-14.324-4.106-9.396 0-18.975 3.924-18.975 15.328 0 5.017 1.641 9.123 6.11 11.586 4.654 2.463 10.767 2.463 13.869 3.192 1.916.64 2.918 1.644 2.918 3.012 0 2.828-2.097 4.197-7.936 4.197-5.748 0-11.222-1.643-14.78-3.832v8.758c3.194 2.828 8.576 4.835 16.604 4.835M221.774 159.666h-14.961c.273-7.298 3.284-10.764 8.12-10.764 4.378 0 6.841 2.918 6.841 9.852zm12.956-.912c0-10.948-6.935-18.886-20.163-18.886-12.589 0-22.352 8.485-22.352 23.356v.091c0 15.237 8.394 23.355 23.63 23.355 8.666 0 14.688-3.01 16.785-5.838v-7.664c-2.827 1.368-7.207 2.646-12.772 2.646-7.936 0-12.59-1.916-13.045-9.67h26.548c.638-1.734 1.369-4.106 1.369-7.39"/></g></svg>