<svg xmlns="http://www.w3.org/2000/svg" width="240" height="240" fill="none"><path d="M137.728 127.055l-14.268-34.77h-15.398l21.695 50.43h16.04l21.25-50.43H151.66zm-79.396-9.632c0-14.404 11.626-26.122 25.916-26.122 14.29 0 25.916 11.718 25.916 26.122 0 14.403-11.627 26.121-25.916 26.121-14.29 0-25.916-11.718-25.916-26.121zm13.222 0c0 7.066 5.684 12.795 12.694 12.795 7.01 0 12.693-5.729 12.693-12.795s-5.683-12.794-12.693-12.794-12.694 5.728-12.694 12.794zm109.313-25.137c-7.602 0-12.079 5.355-12.079 11.649v38.78h13.817v-50.43zM167.235 70.99v1.5c0 4.237 1.392 7.718 3.842 10.12 2.382 2.47 5.835 3.872 10.04 3.872h1.488V70.99zM50.846 92.286c-7.603 0-12.08 5.355-12.08 11.649v38.778c0 7.405-4.998 13.19-12.506 13.19-7.116 0-12.2-6.19-12.623-13.19H.344c0 14.57 11.238 26.297 26.032 26.297 14.641 0 26.207-11.536 26.207-26.297V92.286zm1.737-21.296h-15.37v1.5c0 4.237 1.392 7.718 3.842 10.12 2.383 2.47 5.836 3.872 10.04 3.872h1.488zm135.242 46.433c0-14.404 11.626-26.122 25.915-26.122 14.29 0 25.916 11.718 25.916 26.122v25.292h-13.41v-4.495s-2.015 1.835-4.94 3.179c-4.329 1.988-11.349 2.681-17.856.168-9.392-3.627-15.625-13.38-15.625-24.144zm13.096 0c0 7.137 5.739 12.923 12.819 12.923 7.081 0 12.822-5.786 12.822-12.923 0-7.137-5.741-12.922-12.822-12.922-7.08 0-12.819 5.785-12.819 12.922z" clip-rule="evenodd" fill="#c0d23c" fill-rule="evenodd"/></svg>