<?xml version="1.0" encoding="UTF-8" standalone="no"?>
<svg
   xmlns:dc="http://purl.org/dc/elements/1.1/"
   xmlns:cc="http://creativecommons.org/ns#"
   xmlns:rdf="http://www.w3.org/1999/02/22-rdf-syntax-ns#"
   xmlns:svg="http://www.w3.org/2000/svg"
   xmlns="http://www.w3.org/2000/svg"
   xmlns:sodipodi="http://sodipodi.sourceforge.net/DTD/sodipodi-0.dtd"
   xmlns:inkscape="http://www.inkscape.org/namespaces/inkscape"
   width="240"
   height="240"
   viewBox="0 0 240 240"
   version="1.1"
   id="svg2290"
   sodipodi:docname="logoJovia@1x.svg"
   style="fill:none"
   inkscape:version="0.92.5 (2060ec1f9f, 2020-04-08)">
  <metadata
     id="metadata2296">
    <rdf:RDF>
      <cc:Work
         rdf:about="">
        <dc:format>image/svg+xml</dc:format>
        <dc:type
           rdf:resource="http://purl.org/dc/dcmitype/StillImage" />
        <dc:title></dc:title>
      </cc:Work>
    </rdf:RDF>
  </metadata>
  <defs
     id="defs2294" />
  <sodipodi:namedview
     pagecolor="#ffffff"
     bordercolor="#666666"
     borderopacity="1"
     objecttolerance="10"
     gridtolerance="10"
     guidetolerance="10"
     inkscape:pageopacity="0"
     inkscape:pageshadow="2"
     inkscape:window-width="1920"
     inkscape:window-height="1028"
     id="namedview2292"
     showgrid="false"
     inkscape:zoom="1.1295547"
     inkscape:cx="123.5"
     inkscape:cy="48.5198"
     inkscape:window-x="0"
     inkscape:window-y="0"
     inkscape:window-maximized="1"
     inkscape:current-layer="svg2290" />
  <g
     id="g2848"
     transform="translate(0.344,70.9901)">
    <path
       id="path2236"
       d="M 137.384,56.0654 123.116,21.2958 h -15.398 l 21.695,50.4292 h 16.04 l 21.25,-50.4292 h -15.387 z"
       inkscape:connector-curvature="0"
       style="clip-rule:evenodd;fill:#c0d23c;fill-rule:evenodd" />
    <path
       id="path2238"
       d="m 57.9876,46.4329 c 0,-14.404 11.6265,-26.1222 25.9165,-26.1222 14.2891,0 25.9159,11.7182 25.9159,26.1222 0,14.4031 -11.6268,26.1213 -25.9159,26.1213 -14.29,0 -25.9165,-11.7182 -25.9165,-26.1213 z m 13.2223,0 c 0,7.0663 5.6839,12.7946 12.6942,12.7946 7.0104,0 12.6933,-5.7283 12.6933,-12.7946 0,-7.0662 -5.6829,-12.7945 -12.6933,-12.7945 -7.0103,0 -12.6942,5.7283 -12.6942,12.7945 z"
       inkscape:connector-curvature="0"
       style="clip-rule:evenodd;fill:#c0d23c;fill-rule:evenodd" />
    <path
       id="path2240"
       d="m 180.523,21.2958 c -7.602,0 -12.079,5.3548 -12.079,11.6487 V 71.725 h 13.817 V 21.2958 Z"
       inkscape:connector-curvature="0"
       style="clip-rule:evenodd;fill:#c0d23c;fill-rule:evenodd" />
    <path
       id="path2242"
       d="m 166.891,0 v 1.4997 c 0,4.2374 1.392,7.71808 3.842,10.1196 2.382,2.4701 5.835,3.8727 10.04,3.8727 h 1.488 V 0 Z"
       inkscape:connector-curvature="0"
       style="clip-rule:evenodd;fill:#c0d23c;fill-rule:evenodd" />
    <path
       id="path2244"
       d="m 50.5018,21.2958 c -7.6026,0 -12.0797,5.3548 -12.0797,11.6487 V 71.723 c 0,7.4045 -4.9983,13.1906 -12.5065,13.1906 -7.1154,0 -12.2003,-6.191 -12.6223,-13.1906 H 0 c 0,14.5707 11.2375,26.2968 26.0322,26.2968 14.6411,0 26.2064,-11.536 26.2064,-26.2968 V 21.2958 Z"
       inkscape:connector-curvature="0"
       style="clip-rule:evenodd;fill:#c0d23c;fill-rule:evenodd" />
    <path
       id="path2246"
       d="M 52.2385,0 H 36.8691 v 1.4997 c 0,4.2374 1.3916,7.71808 3.8421,10.1196 2.3825,2.4701 5.8356,3.8727 10.0395,3.8727 h 1.4878 z"
       inkscape:connector-curvature="0"
       style="clip-rule:evenodd;fill:#c0d23c;fill-rule:evenodd" />
    <path
       id="path2248"
       d="m 187.481,46.4329 c 0,-14.404 11.626,-26.1222 25.915,-26.1222 14.29,0 25.916,11.7182 25.916,26.1222 V 71.725 h -13.41 v -4.4952 c 0,0 -2.015,1.8349 -4.94,3.1788 -4.329,1.9888 -11.349,2.6818 -17.856,0.1686 -9.392,-3.6277 -15.625,-13.3807 -15.625,-24.1443 z m 13.096,0 c 0,7.1369 5.739,12.923 12.819,12.923 7.081,0 12.822,-5.7861 12.822,-12.923 0,-7.1368 -5.741,-12.9219 -12.822,-12.9219 -7.08,0 -12.819,5.7851 -12.819,12.9219 z"
       inkscape:connector-curvature="0"
       style="clip-rule:evenodd;fill:#c0d23c;fill-rule:evenodd" />
  </g>
</svg>
