<svg xmlns="http://www.w3.org/2000/svg" width="42mm" height="42mm" viewBox="0 0 42 42"><defs><linearGradient x1="43.198" y1="45.267" x2="66.883" y2="76.521" id="a" gradientTransform="matrix(.30455 0 0 .22986 112.542 160.078)" gradientUnits="userSpaceOnUse"><stop stop-color="#FFF" offset="0%"/><stop stop-color="#7A7980" offset="100%"/></linearGradient></defs><path fill="#272e80" d="M.494 5.786h41.01v30.427H.494z"/><g fill="#ffd300"><path d="M30.014 20.55h4.103v-.525H29.73v-5.787h-1.745v4.639c0 1.315.66 1.674 2.028 1.674zM17.705 20.55H14.12c-1.344 0-2.028-.358-2.028-1.673v-4.64h1.745v5.764h3.348c.118.167.377.454.519.55zM23.01 14.118c-3.348 0-5.282 1.387-5.282 3.42 0 1.937 2.005 3.156 4.929 3.156.99 0 2.028-.143 2.711-.382v-.67c-.565.31-1.438.526-2.263.526-2.264 0-3.537-1.387-3.537-2.75 0-1.626 1.39-2.774 3.537-2.774.73 0 1.603.192 2.216.502v-.717c-.754-.215-1.721-.31-2.31-.31z"/></g><path d="M134.29 182.618c-7.05 0-12.766-4.72-12.766-10.532 0-2.538 1.096-4.863 2.906-6.69-2.096 1.851-3.454 4.437-3.454 7.188 0 6.12 5.645 10.556 12.72 10.556 4.406 0 8.479-1.945 10.79-4.744-2.335 2.562-6.027 4.222-10.195 4.222z" fill="url(#a)" transform="translate(-112.048 -154.292)"/></svg>