<svg xmlns="http://www.w3.org/2000/svg" height="765" width="765"><g fill="#006bb6"><path d="M47.493 325.347v26.33h.705c8.755-20.25 25.286-29.71 47.546-29.71 22.585 0 36.768 9.46 46.867 29.71 8.768-20.25 28.68-29.71 49.92-29.71 15.175 0 31.72 5.402 41.845 17.524 11.469 13.517 9.094 33.089 9.094 50.286v106.9H193.89v-90.734c0-6.733.652-23.59-1.031-29.997-2.688-10.803-10.804-13.83-21.216-13.83-8.768 0-17.927 5.023-21.607 13.152-3.692 8.115-3.353 21.594-3.353 30.675v90.734H97.101v-90.734c0-17.875 3.379-44.14-22.273-44.14-25.978 0-24.986 25.6-24.986 44.14v90.734H.312v-171.33zM316.823 424.663c0 9.434.314 20.198 5.715 28.64 4.75 7.424 11.783 11.795 20.903 11.795 27.974 0 27.974-35.75 27.974-54.292 0-19.206 0-54.983-27.283-54.983-23.955 0-27.309 25.978-27.309 44.206zm-50.286-159.548h49.595v81.614h1.344c8.429-16.87 22.56-24.973 41.805-24.973 48.942 0 63.725 48.59 63.725 89.05 0 44.859-17.797 89.077-69.48 89.077-24.594 0-36.39-9.146-48.85-29.71-6.093 7.399-8.103 17.237-11.156 26.292h-26.983zM439.076 325.347h46.985v29.018h.6c10.19-21.92 24.269-32.397 49.268-32.397 16.127 0 32.046 5.075 42.184 18.906 9.42 12.8 9.42 34.394 9.42 49.92v105.883H537.94v-92.039c0-17.536 2.44-43.188-22.6-43.188-8.741 0-16.857 5.023-20.928 12.774-5.075 9.825-5.689 19.61-5.689 30.414v92.04h-49.646zM710.683 414.54c-18.906 1.996-53.64 6.38-53.64 31.366 0 13.452 8.09 22.625 21.908 22.625 10.151 0 19.206-5.454 24.96-14.196 7.085-10.817 6.772-20.915 6.772-33.05zm4.75 81.926c-2.075-8.729-2.78-17.849-2.401-26.63-14.17 20.25-29.045 30.049-54.657 30.049-30.323 0-54.005-16.166-54.005-48.59 0-25.274 15.892-42.497 38.49-50.952 19.56-7.398 46.881-8.742 67.823-10.777v-4.084c0-7.398.64-16.192-4.41-22.533-4.41-5.794-12.84-8.155-20.25-8.155-15.84 0-29.67 8.155-29.67 24.986l-46.894-4.41c5.01-41.427 45.51-53.613 81.613-53.613 17.563 0 40.5 4.058 54.253 15.54 17.575 14.17 15.931 33.05 15.931 53.652v79.918c0 8.755.64 17.157 3.432 25.6z"/></g></svg>