<svg xmlns="http://www.w3.org/2000/svg" version="1.0" width="227" height="227" viewBox="-1.349 -1.349 43.799 43.811"><path d="M42.393 36.683c0 2.33-1.882 4.22-4.206 4.22H2.917a4.214 4.214 0 01-4.209-4.22v-4.17c0 .04 43.685 0 43.685 0z" fill="#f03"/><path d="M38.187.21H2.917A4.216 4.216 0 00-1.292 4.43v28.081h43.685V4.432A4.213 4.213 0 0038.187.21" fill="#004890"/><path d="M28.874 14.328v-8.31h-9.596v3.605h-3.27v1.5a10.12 10.12 0 00-.758-.03c-5.502 0-9.98 4.482-9.98 9.99 0 3.228 1.816 6.264 4.86 8.127l.483.295v6.63H28.87v-3.623h5.586V19.923l-5.582-5.595" fill="#fff"/><path d="M25.895 28.059h1.503v-2.96h-1.503zm-6.388 5.057h-5.886V28.7h5.886zm7.87-18.167V7.517h-6.604v3.604h-3.272v1.771a8.544 8.544 0 00-2.25-.3 8.483 8.483 0 00-8.485 8.49c0 2.884 1.761 5.392 4.144 6.848l5.312-8.376h7.391a8.498 8.498 0 00-4.596-6.083v-.83h3.269V9.035h3.575v12.04h5.587v8.419h-5.587v3.622h-4.84V28.64l4.84-7.565h-8.808l-4.947 7.8v5.761h15.27v-3.621h5.586v-10.47z" fill="#004890"/></svg>