<svg xmlns="http://www.w3.org/2000/svg" width="89" height="89" fill="#2f5e80" xmlns:v="https://vecta.io/nano"><path d="M83.813 25.484c-.025.03-.03.098.043.096h.043c-.03.104.08.152.066.34.13.1-.045.478.065.65h.044c-.21.408.16.528 0 .943.18-.017-.062.256.154.243-.02.06-.04.14.02.192h.045c-.133.224.183.164.065.387.074.073.14.18.196.337h.044c-.018.056-.063.098-.022.17-.007.037.037.013.088.024-.232.41.29.26.11.678-.008.034.036.01.086.022-.105.25.135.284.24.435-.06.032-.04.092-.02.147.058.07.118.168.24.24-.084.17.04.182.087.314h.065l-.02.073c-.008.036.036.012.088.024-.018.265.172.3.217.507.052.108.052.265.263.24-.047.133-.085.3.042.362.124-.047.01.163.175.146-.06.037-.04.108-.02.17.02.036.1.01.174.023-.154.277.118.357.132.58l.087.05-.023.023c.123.14.13.357.175.555h.045c-.107.23.106.283.086.507.04.097.057.133.197.218-.02.06-.042.138.022.194h.044c-.02.223-.108.342-.176.53-.128.042-.318-.115-.393.074-.22-.406-.302-.92-.654-1.233-.05-.338-.32-.682-.6-.772-.02-.225-.192-.327-.042-.53-.052-.25-.303-.346-.372-.534-.078-.904-.6-1.653-.655-2.56-.127-.337-.63-.573-.414-.942-.018-.318-.307-.494-.392-.748.035-.488.5-1.05.086-1.523-.215-.215-.225-.5-.37-.724zm-1.943 14.13c-.105.312-.267.66-.5.845-.493-.044-.8.324-1.2.435-.2-.383-.15-.896-.045-1.35.08-.118.284-.214.458-.098.305.38.633-.104.983-.146.08.095.2.15.305.315"/><path d="M81.87 39.614c-.105.312-.267.66-.5.845-.493-.044-.8.324-1.2.435-.2-.383-.15-.896-.045-1.35.08-.118.284-.214.458-.098.305.38.633-.104.983-.146.08.095.2.15.305.315zm6.416-.07c-.112.244.123.1.066.36.177.24-.152.628.108.845l-.022.025c-.002.06.1.047.088.17-.232-.01-.08.28-.13.4-.167-.015-.102.214-.198.24l-.108 1.33c-.292-.13-.5.147-.72.264-.013.275-.34.046-.437.194-.482-.117-.634 1.137-.938.387.064-.4.52-.62.612-1.014.248-.318.778.032.98-.484-.193-.757.483-1.446.175-2.2-.144-.225.128-.406.24-.556l.22-.168c.018.077-.123.222.065.195"/><path d="M88.286 39.543c-.112.244.123.1.066.36.177.24-.152.628.108.845l-.022.025c-.002.06.1.047.088.17-.232-.01-.08.28-.13.4-.167-.015-.102.214-.198.24l-.108 1.33c-.292-.13-.5.147-.72.264-.013.275-.34.046-.437.194-.482-.117-.634 1.137-.938.387.064-.4.52-.62.612-1.014.248-.318.778.032.98-.484-.193-.757.483-1.446.175-2.2-.144-.225.128-.406.24-.556l.22-.168c.018.077-.123.222.065.195zm-22.02 3.14c-.1-.016-.068-.136-.02-.17h.02v.17"/><path d="M66.267 42.682c-.1-.016-.068-.136-.02-.17h.02zm11.893 1.135c.066.394-.327.105-.437.34-.086-.24-.512-.12-.39-.485-.274-.122-.328-.492-.24-.7.25-.076.016-.516.37-.46.6.21.037 1.024.7 1.305"/><path d="M78.16 43.817c.066.394-.327.105-.437.34-.086-.24-.512-.12-.39-.485-.274-.122-.328-.492-.24-.7.25-.076.016-.516.37-.46.6.21.037 1.024.7 1.305z"/><path d="M87.676 42.8c-.058.034-.217-.007-.133.146h-.065c.015-.093.063-.2.198-.146" fill-rule="evenodd"/><path d="M87.676 42.8c-.058.034-.217-.007-.133.146h-.065c.015-.093.063-.2.198-.146zm-1.922 1.547c-.078.04-.235.056-.284.193-.192-.034-.27.36-.392.024-.1.028-.165-.07-.11-.097-.1-.468.35-.353.568-.58.05.12.08.318.217.46"/><path d="M85.754 44.348c-.078.04-.235.056-.284.193-.192-.034-.27.36-.392.024-.1.028-.165-.07-.11-.097-.1-.468.35-.353.568-.58.05.12.08.318.217.46zm-1.46.46c-.095.104-.16.22-.1.387-.17.122-.514.152-.414.48-.035.058-.17.088-.153.218-.05-.15-.018-.34-.087-.483l-.065-.048c.04-.18.095-.403.26-.483.2.112.336-.132.568-.072"/><path d="M84.293 44.808c-.095.104-.16.22-.1.387-.17.122-.514.152-.414.48-.035.058-.17.088-.153.218-.05-.15-.018-.34-.087-.483l-.065-.048c.04-.18.095-.403.26-.483.2.112.336-.132.568-.072zm-1.2.845c-.177.244-.4.438-.372.797-.345.43-.64.834-.677 1.4-.328.015-.612-.016-.698.363-.18.497-.547.925-.85 1.378-.16.338-.65.447-.503 1.013-.573.25-1.1.623-1.265 1.208-.186.007-.136.2-.22.314l-.02.194c-.08-.005-.153-.03-.174.023v.072l-.065-.023c-.06.006-.04.054-.022.097-.192-.043-.18.043-.328.023l.023-.023c-.17-.17-.46-.08-.415-.363.13-.095.256-.332.48-.193-.04-.344.562-.447.414-.845.142-.176.23-.373.24-.604.452-.264 1.188-.59 1.156-1.328l-.066-.122c.2-.15.518-.192.634-.506-.028-.4.494-.482.5-.896.12-.015.338.118.437-.047.173-.27.462-.53.523-.87.207-.058.228-.276.415-.386.07-.373.278-.584.633-.75.047.088.167-.104.22.074"/><path d="M83.093 45.653c-.177.244-.4.438-.372.797-.345.43-.64.834-.677 1.4-.328.015-.612-.016-.698.363-.18.497-.547.925-.85 1.378-.16.338-.65.447-.503 1.013-.573.25-1.1.623-1.265 1.208-.186.007-.136.2-.22.314l-.02.194c-.08-.005-.153-.03-.174.023v.072l-.065-.023c-.06.006-.04.054-.022.097-.192-.043-.18.043-.328.023l.023-.023c-.17-.17-.46-.08-.415-.363.13-.095.256-.332.48-.193-.04-.344.562-.447.414-.845.142-.176.23-.373.24-.604.452-.264 1.188-.59 1.156-1.328l-.066-.122c.2-.15.518-.192.634-.506-.028-.4.494-.482.5-.896.12-.015.338.118.437-.047.173-.27.462-.53.523-.87.207-.058.228-.276.415-.386.07-.373.278-.584.633-.75.047.088.167-.104.22.074zm-6.417 5.604c-.157.03-.202.2-.218.337-.305-.018-.605-.018-.806.097-.148-.095-.192.038-.285.073-.256-.02-.638-.234-.743.097-.282.102-.52.066-.784.12-.257-.078-.104.28-.22.362l-.326.17c-.113-.193-.447-.115-.35-.363-.26-.247.16-.27.262-.41.4.2.575-.415 1.004-.193.258.073.508-.422.786-.098.208-.01.415-.08.612-.216.114.092.266-.048.435 0 .164-.048.328.087.524-.05l.1.075"/><path d="M76.676 51.257c-.157.03-.202.2-.218.337-.305-.018-.605-.018-.806.097-.148-.095-.192.038-.285.073-.256-.02-.638-.234-.743.097-.282.102-.52.066-.784.12-.257-.078-.104.28-.22.362l-.326.17c-.113-.193-.447-.115-.35-.363-.26-.247.16-.27.262-.41.4.2.575-.415 1.004-.193.258.073.508-.422.786-.098.208-.01.415-.08.612-.216.114.092.266-.048.435 0 .164-.048.328.087.524-.05zm-7.3 3.84a.577.577 0 0 1 .021.482c-.232.008-.526.06-.6.363l-.1.387c-.215-.103-.412-.26-.59-.048-.352.277-.662.62-.83 1.014l-.13.025c.02-.22-.156-.286-.24-.34.412-.47.815-.906 1.353-1.233.416-.18.63-.905 1.135-.65"/><path d="M69.366 55.097a.577.577 0 0 1 .021.482c-.232.008-.526.06-.6.363l-.1.387c-.215-.103-.412-.26-.59-.048-.352.277-.662.62-.83 1.014l-.13.025c.02-.22-.156-.286-.24-.34.412-.47.815-.906 1.353-1.233.416-.18.63-.905 1.135-.65zm-2.51 3.045c-.157.324-.254.614-.503.844-.178.144-.297.33-.545.266.27-.28.325-.745.37-1.087.07-.188.14.096.285.048l.196-.17.197.1"/><path d="M66.857 58.142c-.157.324-.254.614-.503.844-.178.144-.297.33-.545.266.27-.28.325-.745.37-1.087.07-.188.14.096.285.048l.196-.17z"/><path d="M82.264 25.532c.232-.222.26.255.457.314-.056.2-.056.37 0 .58-.154.08-.345.097-.392.024a.202.202 0 0 0-.197-.193c-.247.164-.073.508.022.724.13.225.358.34.632.362.317.737.403 1.56 1.07 2.2.13.888.543 1.654.654 2.583-.18.313-.345-.083-.48-.12-.383-.47-.426-1.178-.937-1.448-.128.03-.232.07-.284.19l-.023.217c-.322-.337-.54-.867-.894-1.205l-.283.072-1.004-1.257c-.1-.04-.197-.04-.24 0-.335.418.374.635.35 1.063.167.477.833.49.85 1.015.113.32.478.544.35.917-.297.237-.7.152-.984.074-.24-.14-.088-.598-.414-.58.032-.12-.012-.35-.13-.388-.193-.078-.515.2-.48-.144-.093-.138-.252-.188-.328-.096-.17.078-.114.314-.043.435.07.615 1.253.596.656 1.303a1.104 1.104 0 0 1-.35.218c-.297-.308-.42-.882-.85-.942-.437-.145-1.016-.1-1.157-.652-.136-.072-.25.005-.305.12-.066.23.098.375.218.557.273.337.703.312 1.09.48-.04.2.136.648-.154.653-.33.332-.93.308-1.286.58a.546.546 0 0 0-.545.048c-.03-.157-.17-.295-.22-.435-.315-.114-.43.254-.654.364-.164-.37-.54-.773-.22-1.184-.125-.217-.053-.44-.24-.58-.222-.073-.392.024-.523.144a.443.443 0 0 0-.131.58c.262.222.37.55.524.893-.005.206-.354.277-.174.532.06.132.223.132.37.097l.044-.05c-.08.308-.475.682-.087.992.256.148.486-.327.72-.048.355-.045.507-.595.96-.485.37-.175.83-.507 1.222-.17.278-.13.544-.33.742.146.01.15.162.283.326.314.338-.1.345-.598.657-.773.57.182.94-.508 1.548-.265l.568-.193c.048.12.025.234.02.387-.153.005-.338-.213-.458-.024-.198.25.01.487.132.747.063.085.14.218.305.17.217.65-.923.803-.305 1.474.118.365-.432.312-.306.723.054.156.124.326.327.362l.13-.023c-.082.203-.257.42-.174.725.076.245.3.324.547.386.286.047.565-.147.654-.46-.05-.315-.363-.358-.48-.604.14-.387-.35-.587 0-.918.08-.357.194-.708.108-1.063.064-.187.032-.525.328-.507.064-.266.33-.134.546-.266.467-.152.456-.856.808-1.208-.01.25.22.212.282.46-.056.235.037.487.067.724l.48.725c-.112.553.302.947.457 1.448-.128-.03-.215-.164-.305-.072-.16.143-.226.427-.1.58-.143.04-.296.053-.327.218-.057.18.02.3.1.482.09.03.123.125.24.216-.08.175-.084.44-.24.5-.275-.056-.412-.438-.7-.292-.258.192-.22.56-.262.87-.24.15-.362.56-.632.556-.204.178-.084.596-.415.58-.084.59-.36 1.17-.83 1.45-.19.213-.256.594-.48.675-.372-.22-.945-.153-1.243.145-.35.125-.416-.43-.742-.314-.104-.268-.42-.54-.153-.822a.36.36 0 0 0-.196-.313c-.53.107-1.004.36-1.353.798-.06.1-.137.275-.022.36a.709.709 0 0 1-.307.073c.07-.153.133-.435.068-.627-.133-.232-.318-.468-.503-.53-.027-.274.093-.57-.02-.798.21-.146.3.36.59.12.184-.243.217-.587.217-.893-.08-.1-.06-.274-.174-.314-.147-.025-.25.04-.283.17.102.244-.17.24-.22.4-.397-.243-.834-.1-1.133.17-.115.075-.094.275-.045.36.07.294.355.282.61.314.214.288-.348.693.023 1.062.076.185.266.185.415.266-.16.523-.54-.145-.852-.023-.192-.106-.403-.088-.437-.338a1.086 1.086 0 0 0-.85-.073c.07-.093.07-.268.087-.4-.098-.245-.387-.172-.502-.145-.13.034-.24.214-.328.12-.118-.26-.408-.22-.524-.145-.283.136-.45-.25-.676-.3-.374-.075-.32-.8-.785-.65-.13.08-.315.07-.328.265-.015.113.024.233.153.3.077-.014.323-.123.328.097.104.5.693.522 1.068.797.117.106.285-.01.437-.05.1.13.3.306.524.243-.033.178.154.256.262.362.34.094.732-.245.96.193l-.044.047c.116.228-.048.692.328.75.148.028.344-.007.48.193-.006.24-.07.492.087.725.132.094.18.22.24.412.11.213.48.213.327.554-.125-.136-.343-.268-.523-.17-.082.112-.202.057-.262.12.04-.136-.1-.257-.174-.313-.28-.02-.235.257-.306.435-.153.232-.6.4-.414.772.333.456.403-.475.762-.192.176-.058.3-.306.524-.3-.07.492.252.908.1 1.304-.256.34-.633.37-.96.46-.082.044-.13.1-.087.217-.18.214-.316.4-.372.652-.228-.1-.458-.126-.655-.17-.462-.336-1.052-.53-1.2-1.16-.108-.227-.315-.324-.458-.435-.168-.02-.276.08-.284.24.116.276.427.395.502.75.492.703 1.228 1.126 2.03 1.28.513.02.426-.674.85-.82.176.007.497-.1.612.12.104.087.284.1.46.073.1-.126.276-.16.346-.34.66.016.438-.847.895-1.157-.05.195.22.32.394.482-.148.268-.4.485-.284.822.08.188.284.128.437.047.135-.306.468-.317.697-.458.158.244.53.334.438.75-.203.15-.52.103-.568.4l.11.265c-.295.273-.884.062-.808.676.02.153.31.1.197.34-.355.465-1.13.465-1.134 1.206-.192.23-.514.17-.72.314.07-.222.173-.555.13-.797-.093-.156-.262-.186-.327-.12-.164.14-.333.302-.24.53.022.05.016.088-.022.146-.06-.066-.295-.096-.284-.242-.14-.144-.3-.077-.415-.048-.146.31-.464-.053-.545.3-.3-.264-.452.393-.72.193-.5-.235-.758.345-1.223.12-.276.436-.817.007-1.07.484-.403.05-.396-.827-.74-.3-.02.16.056.322.11.46-.092.205-.113.47-.35.53-.276.057-.734-.18-.828.24-.113.188.06.327.02.556-.516-.03-.702 1.196-1.134.436-.01-.195.073-.344.02-.484l-.087-.098c.156-.1.232-.257.306-.434.024-.457-.424-.765-.46-1.158-.22-.247-.297-.778-.653-.678-.374.37.3.642.327 1.04-.04.328.6.67.13.92-.11.066-.25.084-.283.24-.052.126.018.302.174.387h.088c-.03.206-.036.567.217.723l.284.242c-.27.17-.29.514-.654.46-.527-.15-.81.514-1.2.748-.887.513-1.656 1.36-2.03 2.343-.472.217-.23.712-.37 1.112-.243.15-.46.318-.57.604-.094.257-.007.564.24.7.157-.044.287-.104.46-.025-.194.2-.412.58-.24.92-.2.053-.462.113-.503.386.113.414-.367.343-.502.58-.05-.123.036-.347-.086-.436.308-.738.013-1.505 0-2.174-.084-.097-.156-.164-.24-.12-.068-.001-.193.054-.175.17-.046.656.358 1.544-.175 2.15-.1.215-.22.457-.153.723-.275-.17-.33.246-.5.362-.434-.086-.886-.05-1.244-.217-.33.1-.564.397-.873.46-.51-.033-1.032-.24-1.354.267-.492-.12-.933.244-1.395.337-.127.166-.23.113-.33.24l-11.61-12.824-6.787.07c-1.32.033-2.717-.005-4.014.123-.133-.128-.055-.43-.263-.484-.027-.222.234-.36.328-.555.065-.248-.06-.445-.175-.604-.22-.01-.23-.27-.328-.387-.234-.216-.697-.384-.567-.797-.038-.107-.125-.233-.218-.217-.256.002-.35.268-.6.144l.064-.723c-.517-.23-1.57.206-1.528-.653-.107-.275-.315-.3-.545-.266v-.193c-.43-.094-.577.86-1.046.386-.152-.028-.25.13-.372.025l-.13-.12-9.93-.485c-.27.287-.502-.28-.785.024-.258-.087-.46.117-.676.194-.313-.118-.606.315-.873.023-.356.003-.666-.166-.94.12-.033.106-.164.18-.1.34-.065-.1-.2-.066-.26-.024-.126.35-.426-.01-.633.217-.218.226-.44.47-.72.483-.11-.126-.32-.1-.436-.025-.224.1-.34.268-.6.145-.25.04-.42.352-.523.556-.36-.1-.616.237-.94.096-.14-.04-.196.134-.305.17.006-.1-.01-.235-.108-.29-.393-.15-.623.413-.983.266-.113.17-.36.027-.436.242l-2.75-.3c-.03-.107-.12-.234-.218-.218-.135-.016-.233.124-.305.218-.544-.257-1.08.07-1.615-.097-.146.13-.397.098-.524.145v.048c-.265-.027-.538-.076-.785-.048v.048c-.5.134-1.095-.082-1.593 0 .002-.135-.27-.325-.438-.168-.16.22-.28-.03-.457-.025-.282-.004-.58-.137-.83.025-.106-.125-.318-.102-.437-.025-.17.104-.296-.25-.5-.096.1-.372-.05-.857.22-1.136-.102-.4.656-.408.26-.845-.012-.335.206-.433.067-.748.2-.12.122-.4.37-.46.053.056.232.185.35.073-.023-.426.266-.028.415-.242.2.342.62.04.895.072l.262-.506c.08-.25-.145-.414-.218-.604.123-.13.078-.37.35-.313.1.055.213.08.304-.025.068-.106.052-.275 0-.362.052-.016.1.033.153.025.035-.03.014-.077.022-.098.073.02.133-.045.1-.12v-.075c.154.01.045-.28.174-.264.09-.075-.01-.275.086-.3.13-.184.34-.207.46-.434.182.14.073-.185.26-.097v-.05c.058-.027.16.033.175-.048v-.048c.133.1.183-.1.284-.098v-.07c.226.13.4-.003.568.265a.793.793 0 0 0 .763-.41c-.01-.4.15-.69.305-1 .58-.34.946.48 1.484.36.684.156 1.06-.646 1.55-1.014.556-.382 1.145-.394 1.8-.363.175-.28.07-.61.37-.795.126.008.355.07.415-.024.46.044.666-.565 1.114-.63.5-.394.398-1.113.83-1.52.32.022.663.175.96-.048.2-.28-.04-.714.195-.992.032-.266.197-.326.33-.4.064.253.32.247.5.34.277-.062.56-.268.85-.387.43.07.338 1.092.94.652.555-.793 1.34-1.4 2.162-1.86.1 0 .193-.103.26-.17.5.235 1.04-.096 1.55.243.21.04.433.018.59-.17.096-.086-.133-.34.1-.315.03-.048.11-.103.086-.218.233.097.22-.284.437-.17.025-.145.166-.115.153-.29.003.023.046.023.065 0 .074-.315-.024-.664.284-.846.084-.603.963-.374.85-1.038.15.035.04-.23.175-.194l.088-.676c.013-.012.023.006.042.025-.013-.277.287-.254.35-.46.106.055.166-.054.24-.073-.03-.15.116-.034.11-.167l.153-1.548c.095-.1.182-.118.152-.337h.154l.042-1.256 52.8-.025c.306-.035.616-.167.94.025.315.074.348-.433.698-.314.13-.253.413-.132.698-.194.053.135.206.05.305-.023.03-.048.01-.193.13-.147-.012.1.054.22.176.243" fill-rule="evenodd"/><path d="M82.264 25.532c.232-.222.26.255.457.314-.056.2-.056.37 0 .58-.154.08-.345.097-.392.024a.202.202 0 0 0-.197-.193c-.247.164-.073.508.022.724.13.225.358.34.632.362.317.737.403 1.56 1.07 2.2.13.888.543 1.654.654 2.583-.18.313-.345-.083-.48-.12-.383-.47-.426-1.178-.937-1.448-.128.03-.232.07-.284.19l-.023.217c-.322-.337-.54-.867-.894-1.205l-.283.072-1.004-1.257c-.1-.04-.197-.04-.24 0-.335.418.374.635.35 1.063.167.477.833.49.85 1.015.113.32.478.544.35.917-.297.237-.7.152-.984.074-.24-.14-.088-.598-.414-.58.032-.12-.012-.35-.13-.388-.193-.078-.515.2-.48-.144-.093-.138-.252-.188-.328-.096-.17.078-.114.314-.043.435.07.615 1.253.596.656 1.303a1.104 1.104 0 0 1-.35.218c-.297-.308-.42-.882-.85-.942-.437-.145-1.016-.1-1.157-.652-.136-.072-.25.005-.305.12-.066.23.098.375.218.557.273.337.703.312 1.09.48-.04.2.136.648-.154.653-.33.332-.93.308-1.286.58a.546.546 0 0 0-.545.048c-.03-.157-.17-.295-.22-.435-.315-.114-.43.254-.654.364-.164-.37-.54-.773-.22-1.184-.125-.217-.053-.44-.24-.58-.222-.073-.392.024-.523.144a.443.443 0 0 0-.131.58c.262.222.37.55.524.893-.005.206-.354.277-.174.532.06.132.223.132.37.097l.044-.05c-.08.308-.475.682-.087.992.256.148.486-.327.72-.048.355-.045.507-.595.96-.485.37-.175.83-.507 1.222-.17.278-.13.544-.33.742.146.01.15.162.283.326.314.338-.1.345-.598.657-.773.57.182.94-.508 1.548-.265l.568-.193c.048.12.025.234.02.387-.153.005-.338-.213-.458-.024-.198.25.01.487.132.747.063.085.14.218.305.17.217.65-.923.803-.305 1.474.118.365-.432.312-.306.723.054.156.124.326.327.362l.13-.023c-.082.203-.257.42-.174.725.076.245.3.324.547.386.286.047.565-.147.654-.46-.05-.315-.363-.358-.48-.604.14-.387-.35-.587 0-.918.08-.357.194-.708.108-1.063.064-.187.032-.525.328-.507.064-.266.33-.134.546-.266.467-.152.456-.856.808-1.208-.01.25.22.212.282.46-.056.235.037.487.067.724l.48.725c-.112.553.302.947.457 1.448-.128-.03-.215-.164-.305-.072-.16.143-.226.427-.1.58-.143.04-.296.053-.327.218-.057.18.02.3.1.482.09.03.123.125.24.216-.08.175-.084.44-.24.5-.275-.056-.412-.438-.7-.292-.258.192-.22.56-.262.87-.24.15-.362.56-.632.556-.204.178-.084.596-.415.58-.084.59-.36 1.17-.83 1.45-.19.213-.256.594-.48.675-.372-.22-.945-.153-1.243.145-.35.125-.416-.43-.742-.314-.104-.268-.42-.54-.153-.822a.36.36 0 0 0-.196-.313c-.53.107-1.004.36-1.353.798-.06.1-.137.275-.022.36a.709.709 0 0 1-.307.073c.07-.153.133-.435.068-.627-.133-.232-.318-.468-.503-.53-.027-.274.093-.57-.02-.798.21-.146.3.36.59.12.184-.243.217-.587.217-.893-.08-.1-.06-.274-.174-.314-.147-.025-.25.04-.283.17.102.244-.17.24-.22.4-.397-.243-.834-.1-1.133.17-.115.075-.094.275-.045.36.07.294.355.282.61.314.214.288-.348.693.023 1.062.076.185.266.185.415.266-.16.523-.54-.145-.852-.023-.192-.106-.403-.088-.437-.338a1.086 1.086 0 0 0-.85-.073c.07-.093.07-.268.087-.4-.098-.245-.387-.172-.502-.145-.13.034-.24.214-.328.12-.118-.26-.408-.22-.524-.145-.283.136-.45-.25-.676-.3-.374-.075-.32-.8-.785-.65-.13.08-.315.07-.328.265-.015.113.024.233.153.3.077-.014.323-.123.328.097.104.5.693.522 1.068.797.117.106.285-.01.437-.05.1.13.3.306.524.243-.033.178.154.256.262.362.34.094.732-.245.96.193l-.044.047c.116.228-.048.692.328.75.148.028.344-.007.48.193-.006.24-.07.492.087.725.132.094.18.22.24.412.11.213.48.213.327.554-.125-.136-.343-.268-.523-.17-.082.112-.202.057-.262.12.04-.136-.1-.257-.174-.313-.28-.02-.235.257-.306.435-.153.232-.6.4-.414.772.333.456.403-.475.762-.192.176-.058.3-.306.524-.3-.07.492.252.908.1 1.304-.256.34-.633.37-.96.46-.082.044-.13.1-.087.217-.18.214-.316.4-.372.652-.228-.1-.458-.126-.655-.17-.462-.336-1.052-.53-1.2-1.16-.108-.227-.315-.324-.458-.435-.168-.02-.276.08-.284.24.116.276.427.395.502.75.492.703 1.228 1.126 2.03 1.28.513.02.426-.674.85-.82.176.007.497-.1.612.12.104.087.284.1.46.073.1-.126.276-.16.346-.34.66.016.438-.847.895-1.157-.05.195.22.32.394.482-.148.268-.4.485-.284.822.08.188.284.128.437.047.135-.306.468-.317.697-.458.158.244.53.334.438.75-.203.15-.52.103-.568.4l.11.265c-.295.273-.884.062-.808.676.02.153.31.1.197.34-.355.465-1.13.465-1.134 1.206-.192.23-.514.17-.72.314.07-.222.173-.555.13-.797-.093-.156-.262-.186-.327-.12-.164.14-.333.302-.24.53.022.05.016.088-.022.146-.06-.066-.295-.096-.284-.242-.14-.144-.3-.077-.415-.048-.146.31-.464-.053-.545.3-.3-.264-.452.393-.72.193-.5-.235-.758.345-1.223.12-.276.436-.817.007-1.07.484-.403.05-.396-.827-.74-.3-.02.16.056.322.11.46-.092.205-.113.47-.35.53-.276.057-.734-.18-.828.24-.113.188.06.327.02.556-.516-.03-.702 1.196-1.134.436-.01-.195.073-.344.02-.484l-.087-.098c.156-.1.232-.257.306-.434.024-.457-.424-.765-.46-1.158-.22-.247-.297-.778-.653-.678-.374.37.3.642.327 1.04-.04.328.6.67.13.92-.11.066-.25.084-.283.24-.052.126.018.302.174.387h.088c-.03.206-.036.567.217.723l.284.242c-.27.17-.29.514-.654.46-.527-.15-.81.514-1.2.748-.887.513-1.656 1.36-2.03 2.343-.472.217-.23.712-.37 1.112-.243.15-.46.318-.57.604-.094.257-.007.564.24.7.157-.044.287-.104.46-.025-.194.2-.412.58-.24.92-.2.053-.462.113-.503.386.113.414-.367.343-.502.58-.05-.123.036-.347-.086-.436.308-.738.013-1.505 0-2.174-.084-.097-.156-.164-.24-.12-.068-.001-.193.054-.175.17-.046.656.358 1.544-.175 2.15-.1.215-.22.457-.153.723-.275-.17-.33.246-.5.362-.434-.086-.886-.05-1.244-.217-.33.1-.564.397-.873.46-.51-.033-1.032-.24-1.354.267-.492-.12-.933.244-1.395.337-.127.166-.23.113-.33.24l-11.61-12.824-6.787.07c-1.32.033-2.717-.005-4.014.123-.133-.128-.055-.43-.263-.484-.027-.222.234-.36.328-.555.065-.248-.06-.445-.175-.604-.22-.01-.23-.27-.328-.387-.234-.216-.697-.384-.567-.797-.038-.107-.125-.233-.218-.217-.256.002-.35.268-.6.144l.064-.723c-.517-.23-1.57.206-1.528-.653-.107-.275-.315-.3-.545-.266v-.193c-.43-.094-.577.86-1.046.386-.152-.028-.25.13-.372.025l-.13-.12-9.93-.485c-.27.287-.502-.28-.785.024-.258-.087-.46.117-.676.194-.313-.118-.606.315-.873.023-.356.003-.666-.166-.94.12-.033.106-.164.18-.1.34-.065-.1-.2-.066-.26-.024-.126.35-.426-.01-.633.217-.218.226-.44.47-.72.483-.11-.126-.32-.1-.436-.025-.224.1-.34.268-.6.145-.25.04-.42.352-.523.556-.36-.1-.616.237-.94.096-.14-.04-.196.134-.305.17.006-.1-.01-.235-.108-.29-.393-.15-.623.413-.983.266-.113.17-.36.027-.436.242l-2.75-.3c-.03-.107-.12-.234-.218-.218-.135-.016-.233.124-.305.218-.544-.257-1.08.07-1.615-.097-.146.13-.397.098-.524.145v.048c-.265-.027-.538-.076-.785-.048v.048c-.5.134-1.095-.082-1.593 0 .002-.135-.27-.325-.438-.168-.16.22-.28-.03-.457-.025-.282-.004-.58-.137-.83.025-.106-.125-.318-.102-.437-.025-.17.104-.296-.25-.5-.096.1-.372-.05-.857.22-1.136-.102-.4.656-.408.26-.845-.012-.335.206-.433.067-.748.2-.12.122-.4.37-.46.053.056.232.185.35.073-.023-.426.266-.028.415-.242.2.342.62.04.895.072l.262-.506c.08-.25-.145-.414-.218-.604.123-.13.078-.37.35-.313.1.055.213.08.304-.025.068-.106.052-.275 0-.362.052-.016.1.033.153.025.035-.03.014-.077.022-.098.073.02.133-.045.1-.12v-.075c.154.01.045-.28.174-.264.09-.075-.01-.275.086-.3.13-.184.34-.207.46-.434.182.14.073-.185.26-.097v-.05c.058-.027.16.033.175-.048v-.048c.133.1.183-.1.284-.098v-.07c.226.13.4-.003.568.265a.793.793 0 0 0 .763-.41c-.01-.4.15-.69.305-1 .58-.34.946.48 1.484.36.684.156 1.06-.646 1.55-1.014.556-.382 1.145-.394 1.8-.363.175-.28.07-.61.37-.795.126.008.355.07.415-.024.46.044.666-.565 1.114-.63.5-.394.398-1.113.83-1.52.32.022.663.175.96-.048.2-.28-.04-.714.195-.992.032-.266.197-.326.33-.4.064.253.32.247.5.34.277-.062.56-.268.85-.387.43.07.338 1.092.94.652.555-.793 1.34-1.4 2.162-1.86.1 0 .193-.103.26-.17.5.235 1.04-.096 1.55.243.21.04.433.018.59-.17.096-.086-.133-.34.1-.315.03-.048.11-.103.086-.218.233.097.22-.284.437-.17.025-.145.166-.115.153-.29.003.023.046.023.065 0 .074-.315-.024-.664.284-.846.084-.603.963-.374.85-1.038.15.035.04-.23.175-.194l.088-.676c.013-.012.023.006.042.025-.013-.277.287-.254.35-.46.106.055.166-.054.24-.073-.03-.15.116-.034.11-.167l.153-1.548c.095-.1.182-.118.152-.337h.154l.042-1.256 52.8-.025c.306-.035.616-.167.94.025.315.074.348-.433.698-.314.13-.253.413-.132.698-.194.053.135.206.05.305-.023.03-.048.01-.193.13-.147-.012.1.054.22.176.243z"/></svg>