<svg xmlns="http://www.w3.org/2000/svg" width="182" height="182"><defs><clipPath id="a"><path d="M0 85.04h192.784V0H0z"/></clipPath></defs><g clip-path="url(#a)" transform="matrix(1.33333 0 0 -1.33333 -37.494 147.693)" fill="#164194"><path d="M159.637 39.197a6.43 6.43 0 00-7.236-6.043 6.45 6.45 0 00-5.567 5.635 6.43 6.43 0 006.385 7.168 6.43 6.43 0 006.418-6.094zm-7.295 11.457c-5.537-.43-9.912-4.9-10.257-10.402a11.145 11.145 0 0111.134-11.865c2.313 0 5.443 1.15 6.85 3.58v-3.28h4.317l.01 10.636c0 6.927-5.64 11.828-12.053 11.332M122.496 40c0 2.332 1.36 5 4.382 6.145 3.43 1.287 6.427-.42 7.7-2.828zm6.253 10.695c-5.864-.165-10.904-4.73-10.904-11.27 0-6.028 4.88-11.068 11.163-11.068 4.38 0 8.66 2.64 10.353 6.925l-4.298 1.282c-.777-1.758-2.655-3.294-4.823-3.698-3.02-.563-5.8 1.284-6.9 3.34l16.72 4.557c-.494 4.294-4.26 10.13-11.322 9.93m-36.78-4.54v4.58c-4.17 0-5.646-2.054-6.27-3.2V50h-4.755V28.686h4.882L85.8 39.144c0 4.925 2.846 6.84 6.158 7.008M47.9 37.25L33.32 54.42h-4.977v-25.7H33.5v17.187l14.762-17.222h4.562l.003 25.734H47.9zM110.116 39.197a6.43 6.43 0 00-7.236-6.043 6.45 6.45 0 00-5.567 5.635 6.43 6.43 0 006.385 7.168 6.43 6.43 0 006.418-6.094zm4.737 17.496h-4.597v-8.38c-1.092 1.435-4.502 2.58-7.435 2.342-5.486-.444-9.912-4.9-10.257-10.402a11.16 11.16 0 0111.134-11.879c2.4 0 5.715 1.144 6.85 3.162l-.005-2.85h4.3v11.052zM66.856 33.108a6.422 6.422 0 00-6.422 6.422 6.42 6.42 0 006.422 6.42 6.421 6.421 0 100-12.842M66.87 50.7a11.17 11.17 0 110-22.34c6.17 0 11.17 5.002 11.17 11.17s-5 11.17-11.17 11.17m55.67-10.777zm12.132 3.405"/></g></svg>