<svg xmlns="http://www.w3.org/2000/svg" version="1.1" id="svg4114" width="75" height="75"><defs id="defs4064"></defs><g id="g4339" transform="translate(.406 6.785)" fill="#a81c24" fill-opacity="1"><path id="path4068" d="M47.31 34.95c-1.76.68-7 .91-10.42-.28-6.06-2.1-8-8.35-3.36-16.36 6.3-10.78 24-15.54 40-8.15A38.47 38.47 0 0047.61.19C34.11.1 17.26 9.51 15.55 21.59 13.9 33.07 25.83 40.72 39 38.47c6-1 8.32-3.53 8.32-3.53" class="cls-1" fill="#a81c24" fill-opacity="1"/><path id="path4070" d="M16 12.61C4.2 17.58-1.07 25.67.18 34.4c1.56 11 17.62 20.63 34.55 16 13.87-3.76 18.69-12.31 19.52-19.06 0 0-7.63 15.68-29.32 10.66-9-2.08-13.33-8.58-14.25-13.93A16.79 16.79 0 0116 12.61" class="cls-1" fill="#a81c24" fill-opacity="1"/><path id="path4072" d="M39.56 23.22c2.29-1.36 6.66-1.85 10.88-.18 6.37 2.53 9.49 8.35 5.32 17.05-5.62 11.75-26 20.18-41.39 12.82a15.7 15.7 0 004 2.62c7.68 3.89 25.26 10.31 43.2.61 14-7.54 15.2-20.9 9.19-29C64.91 19.27 54 17.71 48 18.83c-6 1.12-8.43 4.39-8.43 4.39" class="cls-1" fill="#a81c24" fill-opacity="1"/></g></svg>
