<svg xmlns="http://www.w3.org/2000/svg" id="Layer_1" data-name="Layer 1" version="1.1" width="110" height="110"><defs id="defs28246"><mask id="mask" x="46.34" y=".01" width="350.93" height="104.19" maskUnits="userSpaceOnUse"><g transform="translate(-46.5 -43.5)" id="g28237"><g id="a"><path class="cls-1" id="polygon28234" fill="#fff" fill-rule="evenodd" d="M92.84 43.51v104.2h350.93V43.51z"/></g></g></mask><mask id="mask-4" x="46.26" y="0" width="351.01" height="104.21" maskUnits="userSpaceOnUse"><g transform="translate(-46.5 -43.5)" id="g28243"><g id="d"><path class="cls-1" id="polygon28240" fill="#fff" fill-rule="evenodd" d="M92.84 43.51v104.2h350.93V43.51z"/></g></g></mask><style id="style28232">.cls-1{fill:#fff;fill-rule:evenodd}.cls-2{mask:url(#mask)}.cls-3{fill:#00a1df}.cls-5{fill:#002856}</style></defs><g id="g914" transform="translate(.33 -2.924)"><g transform="translate(0 5.81)" id="g28252" mask="url(#mask)" class="cls-2"><path id="path28250" transform="translate(-46.5 -43.5)" d="M154 79.62l-.12-.14a7.79 7.79 0 00-2.29-1.91c-1-.68-2-1.21-2.61-1.63 0 0 1.26 1-.55 7.11l-.74 2.35c-.36 1-.5 1.55-.54 1.71l-5.9 18.43-10.89 34.13c-2.23 6.69-5 7.61-5 7.61a15.32 15.32 0 006.87 0 8.45 8.45 0 005.54-5l17.69-54.77a8.7 8.7 0 00-1.46-7.89" class="cls-3" fill="#00a1df"/></g><g transform="translate(0 5.81)" id="g28256" mask="url(#mask)" class="cls-2"><path id="path28254" transform="translate(-46.5 -43.5)" d="M145 73.23a1.77 1.77 0 01-.16-.22 8.36 8.36 0 00-2.29-1.85c-1-.64-2-1.14-2.53-1.54 0 0 1.29 1-.6 7.29l-.58 2c-.39 1.15-.55 1.69-.61 1.87l-6 18.39L119 140.46c-2 6-4.56 6.76-4.56 6.76a12.21 12.21 0 002.25.41 11.78 11.78 0 004.38-.37 8.44 8.44 0 005.48-5C126.5 142.16 139 104 139 104l7.53-23a8.65 8.65 0 00-1.53-7.77" class="cls-3" fill="#00a1df"/></g><g transform="translate(0 5.81)" id="g28260" mask="url(#mask)" class="cls-2"><path id="path28258" transform="translate(-46.5 -43.5)" d="M136 66.56a20.51 20.51 0 00-5-3.75c.23.3 1 1.81-.72 7.43l-.48 1.5c-.58 1.71-.72 2.23-.72 2.23l-6 18.46-15.52 48.69c-2 5.4-3.69 6.22-3.69 6.22.46 0 1 .16 1.62.23a11.69 11.69 0 001.45 0 8.26 8.26 0 008.47-5.25L130 97.53l7.53-23.07a8.57 8.57 0 00-1.53-7.88" class="cls-3" fill="#00a1df"/></g><g transform="translate(0 5.81)" id="g28264" mask="url(#mask-4)"><path id="path28262" transform="translate(-46.5 -43.5)" d="M131.05 63l-24.57-17.9a8.57 8.57 0 00-8-1 16 16 0 00-5.69 4.15s2.89-.92 8.84 3.35l1.86 1.4 26.3 19 .48-1.51c1.73-5.62.95-7.13.72-7.43" class="cls-5" fill="#002856"/></g><path id="path28266" d="M82.63 36.42L51.36 13.65a8.68 8.68 0 00-7.93-1 12.87 12.87 0 00-5.5 4s2.53-.85 7.93 2.91L80 44.31l2.55-8" class="cls-5" fill="#002856"/><path id="path28268" d="M79.23 46.95L42.43 20.1a8.47 8.47 0 00-10.48.46 16.68 16.68 0 00-2.45 2.17s2-.36 6.84 2.93l40.32 29.22 2.55-7.93" class="cls-5" fill="#002856"/><path id="path28270" d="M54.44 109.77H21.28L0 44.15l27.11-19.63s2-.67 6 2.21l1.27.92 18.97 13.89-18.51 13.42 8 24.64h23l-7.61 24c-2.01 5.35-3.79 6.17-3.79 6.17z" class="cls-5" fill="#002856"/></g></svg>