<svg xmlns="http://www.w3.org/2000/svg" xmlns:xlink="http://www.w3.org/1999/xlink" width="64" height="64" fill="#fff" fill-rule="evenodd" stroke="#000" stroke-linecap="round" stroke-linejoin="round"><use xlink:href="#a" x=".5" y=".5" width="100%" height="100%" transform="translate(8.098 -.004)"/><defs><linearGradient id="b" x1="0" y1=".5" x2="1" y2=".5"><stop offset="0%" stop-color="#c96134"/><stop offset="100%" stop-color="#723338"/></linearGradient><linearGradient id="c" x1="-.179" y1=".637" x2=".997" y2=".405"><stop offset="0%" stop-color="#ffdb84"/><stop offset="100%" stop-color="#f17930"/></linearGradient><linearGradient id="d" x1=".094" y1=".339" x2=".992" y2=".725"><stop offset="0%" stop-color="#2c3a92"/><stop offset="100%" stop-color="#232d7b"/></linearGradient><linearGradient xlink:href="#b" id="e" gradientUnits="userSpaceOnUse" gradientTransform="scale(1.43372 .69749)" x1="0" y1="75.106" x2="33.342" y2="75.106"/><linearGradient xlink:href="#c" id="f" gradientUnits="userSpaceOnUse" gradientTransform="scale(1.05778 .94537)" x1="-3.724" y1="51.014" x2="24.204" y2="45.505"/><linearGradient xlink:href="#d" id="g" gradientUnits="userSpaceOnUse" gradientTransform="scale(.6555 1.52556)" x1="24.704" y1="10.271" x2="50.808" y2="21.49"/></defs><symbol id="a" overflow="visible" transform="translate(-.5 -.502)"><g stroke="none"><g fill-rule="nonzero"><path d="M43.852 40.747a12.58 12.58 0 012.413 3.296c1.858 3.773 1.177 7.936-2.524 11.566-4.244 4.16-11.46 6.72-19.84 6.72-8.38 0-15.6-2.558-19.842-6.72C.36 51.978-.32 47.815 1.534 44.043a12.7 12.7 0 012.422-3.296c-1.183 1.146-2.12 2.168-2.967 3.856-1.812 3.624-1.24 8.806 2.593 12.563 4.336 4.265 11.15 6.836 20.403 6.836 9.253 0 16.082-2.648 20.248-6.836 4.09-4.107 4.243-9.453 2.57-12.678a12.971 12.971 0 00-2.952-3.742z" fill="url(#e)"/><path d="M37.062 36.396c-3.928-1.63-8.503-2.478-13.146-2.478-4.643 0-9.218.836-13.146 2.478-4.3 1.784-7.626 4.43-9.218 7.663-1.858 3.773-1.177 7.936 2.524 11.566 4.244 4.16 11.46 6.722 19.842 6.722 8.382 0 15.596-2.565 19.84-6.73 3.698-3.63 4.38-7.793 2.524-11.566-1.595-3.228-4.906-5.873-9.218-7.65z" fill="#f17930"/><path d="M24.694 38.214c-.774-1.586-.62-3.023-.458-4.28h-.3c-4.646 0-9.218.836-13.146 2.478-4.3 1.784-7.626 4.43-9.218 7.663C-.296 47.847.385 52 4.087 55.64q.4.38.812.743c15.6-.93 23.757-10.067 19.793-18.173z" fill="url(#f)"/></g><path d="M13.86 38.487a83.69 83.69 0 018.465 2.651l1.818-4.956 1.82 4.956a82.732 82.732 0 018.416-2.614 65.137 65.137 0 00-5.733 4.082 128.87 128.87 0 0111.203 1.942c-3.767-.084-7.3.053-11.067.294 2.652 2.246 4.925 4.42 7.388 6.867-3.376-1.93-6.548-3.55-10.067-5.213q-1.022 4.414-1.95 8.853l-1.877-8.7c-3.52 1.66-6.72 3.246-10.222 5.095a129.215 129.215 0 017.456-6.814c-3.76-.242-7.366-.294-11.213-.347a132.9 132.9 0 0111.337-1.942 66.41 66.41 0 00-5.774-4.148zm10.284 5.148V37.13c-.66 1.81-1.24 3.643-1.8 5.483q.898.496 1.8 1.016zM15.55 39.2a82.13 82.13 0 016.814 3.407q-.827.084-1.65.177a78.925 78.925 0 00-5.163-3.584zm8.595 4.43q6.715 0 13.406.68c-3.91-.706-7.713-1.24-11.628-1.704q-.898.502-1.778 1.022zm8.586-4.43a80.752 80.752 0 00-6.814 3.407q-.133-.455-.273-.91c2.33-.93 4.69-1.772 7.087-2.497zm-8.828 4.436l.24 9.51 1.84-8.416c-.6-.372-1.462-.737-2.075-1.097zm10.104 6.474a132.902 132.902 0 00-8.022-5.38q.843-.068 1.685-.124a127.11 127.11 0 016.34 5.501zm-9.865-6.474c-4.507.062-8.022.266-12.42.644 3.794 0 6.74.155 10.593.46q.904-.564 1.82-1.11zM14.28 50.11c2.614-1.883 5.3-3.686 8.035-5.374l.242 1.053q-4.213 2.02-8.276 4.318z"/><path d="M24.146 36.287l1.82 4.956a83.235 83.235 0 018.125-2.537l.29-.186c-2.85.72-5.66 1.593-8.416 2.614l-1.82-4.956-1.818 4.956a83.66 83.66 0 00-8.465-2.651l.288.186a84.12 84.12 0 018.177 2.577l1.818-4.956z" fill="#c62731"/><path d="M19.506 44.92a123 123 0 00-7.434 6.814l.387-.217L19.52 45.1v-.164z" fill="#c84d33"/><path d="M24.146 43.628v.108zm-.093.056l-.093.056q-.824.49-1.642.99l.025.108 1.797-1.084v-.133z" fill="#c11a24"/><path d="M22.355 42.606l-.167.02-1.487.155-5.15-3.593v.13l5.15 3.593q.824-.093 1.65-.177l1.573.886h.217l-1.787-1.013zm-8.07 7.65q4.067-2.292 8.276-4.336v-.155q-4.213 2.023-8.276 4.336z" fill="#c84d33"/><path d="M25.99 44.725l-1.837 8.413v.108l1.834-8.394 8.032 5.414v-.164l-8.022-5.377zm2.912.217l-.124-.102v.177l6.985 6.46.403.23-7.267-6.765z" fill="#a41e25"/><path d="M19.52 42.646c-3.79.486-7.483 1.115-11.222 1.927h.588a131.45 131.45 0 0110.748-1.821v-.13zm2.803 2.088c-3.53-.3-7.044-.48-10.587-.452v.108c3.494-.03 6.96.142 10.438.44l.143-.1" fill="#c84d33"/><g fill="#a41e25"><path d="M28.643 42.606c3.835.49 7.434 1.124 11.203 1.942h-.62a127.26 127.26 0 00-10.572-1.797v-.146zM24.146 43.628q6.715 0 13.406.68v.124q-6.588-.66-13.2-.68l-.11-.062-.093-.056h.192m1.586-1.028l.16.02 6.647-3.314v-.11l-6.814 3.407"/></g><path d="M25.924 42.606q-.133-.455-.273-.91v.108l.235.805.03-.016" fill="#c11a24"/><path d="M24.592 61.48l-.443.3-.45-.3v-3.655c.13-.093.3-.18.452-.27.13.093.3.18.434.27q0 1.815.003 3.655zM2.904 52.642l-.217.412.505.18 3.8-2.013c.034-.15.078-.3.13-.446l-.387-.102q-1.908.96-3.828 1.976zm-.94-7.496l-.35.28.195.266q1.8-.257 3.58-.434l.35-.34-.21-.217q-1.784.186-3.562.44zm4.584-6.05l-.362.155c0 .07.025.204.03.28q1.32.186 2.633.443l.372-.217-.046-.23q-1.313-.248-2.633-.434zm26.864-3.723h.334l.133.133q-.69.434-1.357.907h-.35l-.13-.146q.672-.477 1.37-.898zm-9.58-1.27l.248-.077.257.077v1.075l-.266.093-.26-.093q.012-.536.02-1.075zm-9.618 1.425c.043-.043.14-.124.186-.164h.34q.697.434 1.37.898l-.13.142c-.115 0-.285.03-.403.03q-.672-.47-1.363-.907zm-2.8 23.714c-.18.043-.412.043-.588.087-.04-.124-.13-.257-.167-.384q1.338-1.598 2.7-3.172l.588-.115.17.403q-1.372 1.58-2.707 3.184zm33.676-6.6l.217.412-.505.18-3.794-2.02c-.034-.15-.078-.3-.13-.446l.387-.102q1.92.96 3.83 1.976zm.93-7.496l.35.28-.192.266q-1.8-.257-3.58-.434l-.35-.34.21-.217q1.8.186 3.562.44zm-4.572-6.05l.362.155c0 .07-.025.204-.03.28q-1.32.186-2.633.443l-.372-.217.047-.23q1.316-.248 2.633-.434zm-4.863 20.15l.59.087.167-.384q-1.338-1.598-2.7-3.172l-.59-.115-.17.403q1.372 1.58 2.707 3.184z"/><path d="M2.89 52.86l-.124.226-.08-.03.217-.412q1.908-1.016 3.83-1.97l.387.102-.07.217c-.102-.03-.248-.053-.347-.077l-3.8 1.945zm-.886-7.545l-.3.23-.084-.115.35-.28q1.784-.26 3.568-.443l.21.217-.07.07-.124-.118-3.54.443zm4.203-5.876l-.025-.186.362-.155q1.316.18 2.633.434l.046.23c-.02 0-1.797-.35-2.67-.465z" fill="#c96134"/><path d="M33.748 35.562l.02.02.115-.074-.133-.133h-.334q-.697.434-1.37.898l.102.115q.62-.434 1.27-.836h.335z" fill="#a41e25"/><path d="M23.833 34.29l.248-.078.257.078v-.186l-.257-.077-.248.077z" fill="#b41a23"/><path d="M14.736 35.522l1.254.855.105-.115q-.672-.465-1.37-.898h-.34c-.043.043-.143.124-.186.164l.11.07.084-.074z" fill="#c84d33"/><path d="M13.915 55.817c.05.062.105.217.155.3l.046-.053c-.015-.046-.124-.288-.17-.403l-.588.115q-1.372 1.573-2.7 3.172c0 .046.053.105.068.155l2.7-3.2c.143-.043.335-.068.483-.102zM45.09 52.86l.124.226.08-.03-.2-.412q-1.908-1.016-3.832-1.97l-.387.102.07.217c.102-.03.248-.053.347-.077l3.797 1.945zm.898-7.545l.3.23.084-.115-.366-.28q-1.784-.26-3.568-.443l-.21.217.07.07.124-.118 3.556.443zm-4.2-5.876l.025-.186-.363-.155q-1.32.18-2.633.434l-.047.23c.022 0 1.797-.35 2.67-.465zm-7.713 16.38c-.05.062-.105.217-.155.3l-.047-.053c.016-.046.124-.288.17-.403l.59.115q1.372 1.573 2.7 3.172l-.062.15-2.717-3.2c-.142-.04-.334-.062-.483-.1zm-9.57 2.137l.087 3.522V57.82c-.13-.093-.3-.18-.434-.27-.13.093-.3.18-.452.27v3.655l.084-3.522c.105-.07.263-.142.372-.217.093.07.248.142.35.217z" fill="#a41e25"/><path d="M6.453 44.76c1.59-7.1 11.436-9.21 17.61-9.21 6.174 0 16.02 2.1 17.62 9.224C43.665 53.61 30.47 56.9 24.074 56.9c-6.396 0-19.601-3.304-17.624-12.14zm.644-.05c1.496-6.858 11.02-8.9 16.965-8.9s15.47 2.035 16.965 8.9c1.858 8.487-10.8 11.625-16.965 11.625-6.165 0-18.817-3.139-16.965-11.629z" fill="#c84d33"/><path d="M6.508 44.976c1.59-7.1 11.027-9.246 17.61-9.246s16.02 2.147 17.61 9.246c1.982 8.837-11.213 12.127-17.61 12.127S4.53 53.813 6.508 44.976zm.644-.053c1.496-6.858 11.02-8.9 16.965-8.9s15.47 2.035 16.965 8.9c1.858 8.487-10.8 11.625-16.965 11.625-6.165 0-18.814-3.148-16.964-11.622z"/><g fill-rule="nonzero"><path d="M45.14 46.44l-2.887-.427-.38-.093a3.45 3.45 0 01-1.812-1.239c-.403-.62-1.375-1.694-1.908-2.36-.737-.93-2.416-1.772-2.664-2.168-.28-.423-.533-.862-.762-1.313a.766.766 0 00-.812-.455c-.434.03-.474.176-.846.198a5.21 5.21 0 01-.892-.056 2.688 2.688 0 00-.542-.074c-.232.38-.59.62-1.44.62-.05 0-.1-.006-.15-.02.093.192.89.3 1.022.3s.89.204 1.062.235a1.36 1.36 0 01.836.266c.93.533 2.3 2 2.57 3.274.155.703 1.357 1.858 1.502 2.5-1.61-.124-3.76-1.186-3.76-1.186l-.27-.13a6.473 6.473 0 00-2.428-.55c-2.788-.248-3.828-.62-4.107-.712-.573-.192-.496-.29-.96-.3h-.248a1.15 1.15 0 01-.239.31 7.65 7.65 0 00-1.304 1.53.908.908 0 01-.55.356l1.567-.403c.98-.13 2.478.3 2.478.3a12.03 12.03 0 011.459.465c.476.186 3.955 1.208 4.925 1.914.638.465 3.925 1.694 4.795 1.995a32.09 32.09 0 012.977 1.434c.545.465 3.717 1.858 4.594 2.146a8.89 8.89 0 001.199-5.941zm-1.456-3.29a2.95 2.95 0 00-.601.071l-.78.465c-.1.16.257.372.257.372s.99.062.99.3c.73.387 2.292.434 3.098.474q-.155-.403-.353-.805l-.412-.756c-.062 0-.663-.17-2.2-.136zm-5.873 9.676s-.186-.242-1.196-.248c-.638 0 .28 1.512.28 1.512.576.387 2.654.98 3.097 1.038.443.058 1.883.49 1.883.49a11.03 11.03 0 011.53.335l.36-.34a14.9 14.9 0 001.21-1.34c-1.753-.037-4.243-.062-6.133-1.053-.2-.558-1.035-.397-1.035-.397z" opacity=".45" fill="#4f274a"/><path d="M32.484 25.29l-.59-.558c-.043-.186.164-.434.217-.743-.062-.022-.124-.05-.18-.074-.142-.54-.257-1.508 0-2.026a1.29 1.29 0 00.189-.883c-.48-1.648-1.43-3.097-2.106-4.646a3 3 0 01-.18-1.165c-.52-.573-1.12-2.07-1.412-2.995-.62 1.53-1.007 3.3-1.007 3.695 0 1.722 1.747 2.56 1.14 5.42l-.533 2.106c.362 1.995.362 3.444.898 5.755a6.403 6.403 0 011.704 2.9c.204.743.836 2.493 1.636 2.757.496.16-1.688.564-2.308-.217-.62-.781-1.623-1.34-2.113-2.137-.4-.62-.99-1.982-1.372-2.62l-.465 2.453c.635 2.62.257 3.197-.3 5.328-.248.93-2.097-3.376-2.1-3.717a6.52 6.52 0 00-.279-2.1c-.4-.756-.347-1.828-.294-2.648l.136-4.615c-.465-1.146-1.666-3.227-1.787-4.398-.186-1.82.124-3.664-.133-5.482-.3.91-.644 2.063-1.35 2.757a43.952 43.952 0 00-2.98 3.345c-.34.47-.04.7-.573 1.456-.533.756-.248.403-.353 1.115a.51.51 0 01-.121.26c-.28.235-.58.434-.982.27-.774-.4-.836-.97-.89-1.716-.102-1.425.948-1.487 1.55-2.348 1.168-1.688 1.76-4.522 3.01-5.792.077-.248.372-1.162.93-2.515.015-1.682.434-3.175 2.168-3.866.712-.28 1.636-.353 1.673-1.332a1.2 1.2 0 00-.093-.523c-.285-.23-.486-.236-.62-.403-.28-.36-.51-2.67-.48-2.82.403-1.96 1.344-2.614 2.53-2.555 1.403.07 2.518.743 2.456 2.633-.05 1.518-1.617 3.47.73 4.206.898.28 1.066.087 1.837.86.867.867 1.075 2.4 1.217 3.84l.88 2.044c1.61 2.716 1.032 3.578 1.623 6.344.277.948.437 1.927.474 2.915.025.756-.567 2.416-1.382 2.447z" fill="#f9b05f"/><path d="M15.664 23.246c.07-.725-.03-.663.434-1.332.428-.62.223-.93.6-1.474a43.1 43.1 0 012.856-3.407c.7-.712 1.65-3.097 1.858-3.943.043-.124.112-.186.14-.077.146 1.6.372 2.943.3 4.513-.118 3.308-.03 2.96 1.347 6.05.115-1.24.415-3.045 1.14-3.655-.846 3.22-.898 7.806-.985 9.218-.047.72-.242 1.858.102 2.51a8.14 8.14 0 01.136 1.635l.022 5.647-.496 2.478c-.34.93-.962 1.73-1.78 2.29-.217.124-.725.4-.725.62 0 .4 2.52 1.12 3.097.232a7.63 7.63 0 011.304-1.53c.793-.762-.087-1.55.02-2.57.186-1.797.954-3.35 1.208-5.05a5.46 5.46 0 00-.338-3.082l.335-3.237c.4.7.76 1.425 1.075 2.168.62 1.3.638 1.44 1.728 2.515a7.2 7.2 0 011.022 1.239c.51.815.867 1.62.82 2.593-.378.68-.54.64-1.022 1.053a.31.31 0 00.325.4c1.642 0 1.437-.855 2.057-1.967.403-.72 1.55-1.81.288-2.187a1.71 1.71 0 01-.997-.74c-.873-1.462-.908-1.425-1.363-2.77a4.47 4.47 0 00-1.496-2.007 8.352 8.352 0 01-.694-2.546l-.52-3.624c.64-2.54.97-3.076-.124-5.514a4.4 4.4 0 01-.39-1.821c.102-1.23.4-2.44.88-3.577.1-.362.338-.67.663-.86.266.985 1.177 3.005 1.704 3.506a3.77 3.77 0 00.173 1.174c.666 1.595 1.623 3.048 2.1 4.73.164.58-.053.858-.217 1.323-.06.45-.048.907.037 1.354l.23.124a7.15 7.15 0 01-.223.743c.045.16.16.29.3.36.365-.08.89-1.403.867-1.933-.038-.96-.204-1.91-.493-2.825-.54-2.748-.23-3.5-1.766-6.158l-.873-2.168c-.124-1.075-.558-3.6-1.982-4.058-.238-.077-.477-.093-.836-.208-1.86-.6-1.86-2.026-1.344-3.58.45-1.385.508-3.017-1.527-3.2-1.26-.105-1.642.886-1.91 2.03 0 .124.07 1.982.347 2.385.54.403.843.28.805 1.285-.03.843-.564 1.34-1.292 1.595-1.186.418-1.8.66-2.2 1.883-.17.57-.25 1.162-.235 1.756v.07a28.73 28.73 0 00-1.025 2.704c-1.456 1.462-2.168 4.79-3.66 6.195-.982.93-1.276.99-.93 2.432a2.11 2.11 0 00.619.573.76.76 0 00.48-.291z" fill="url(#g)"/></g></g></symbol></svg>