<svg xmlns="http://www.w3.org/2000/svg" fill="#9de857" viewBox="0 0 229.72 229.72"><path d="M92.59 128.48v44.46H76.9v-44.5s-73.87.1-76 .05a114.82 114.82 0 0 0 176.73 82.59l-52.18-82.6zm46.3-16.04a21 21 0 0 0 6.72-5.67 27.42 27.42 0 0 0 4.39-8.28 30.55 30.55 0 0 0 1.57-9.76 26.49 26.49 0 0 0-1.83-9.85 28.85 28.85 0 0 0-4.88-8.2 22.13 22.13 0 0 0-7.15-5.58 19.47 19.47 0 0 0-8.63-2H92.59v51.43h37.5a18.47 18.47 0 0 0 8.8-2.09z"/><path d="M114.85 0A114.86 114.86 0 0 0 0 114.52h76.86V49.2h53A33.55 33.55 0 0 1 145 52.55a37.66 37.66 0 0 1 11.86 9.07 43.29 43.29 0 0 1 7.76 12.72 38.85 38.85 0 0 1 2.79 14.39 42.6 42.6 0 0 1-1.83 12.46 38.32 38.32 0 0 1-5.24 10.9 34.82 34.82 0 0 1-8.19 8.37 31.76 31.76 0 0 1-10.72 5.05l48.2 76.5A114.83 114.83 0 0 0 114.85 0z"/></svg>
