<svg xmlns="http://www.w3.org/2000/svg" width="617.685" height="616.783" viewBox="0 0 47.625 47.555"><path d="M20.485 15.144c-4.008 1.441-5.393 5.331-5.393 5.331-.543 1.447-1.987 2.53-3.613 2.53H3.832C1.723 23.005 0 21.26 0 19.151c0-2.083 1.427-3.77 3.832-3.77l6.143.064-8.83-8.856a3.818 3.818 0 010-5.419c1.481-1.482 3.889-1.482 5.396 0l8.731 8.734V3.88A3.823 3.823 0 0119.126.047c2.083 0 3.771 1.722 3.771 3.832v7.651c-.001 1.622-.966 3.131-2.412 3.614zm-1.36 32.348c-2.104 0-3.793-1.386-3.731-3.796l.058-6.117-8.854 8.831c-1.504 1.503-3.973 1.503-5.393 0-1.503-1.509-1.503-3.977 0-5.425l8.646-8.707H3.888c-2.166 0-3.827-1.745-3.827-3.852 0-2.107 1.661-3.857 3.827-3.857h7.648c1.629 0 3.073.965 3.617 2.412 1.385 4.096 5.274 5.48 5.274 5.48a3.785 3.785 0 012.53 3.613v7.621c0 2.114-1.688 3.797-3.832 3.797zm24.584-15.27l-6.116-.062 8.827 8.825a3.827 3.827 0 010 5.425 3.822 3.822 0 01-5.421 0l-8.707-8.734v6.021c0 2.288-1.749 3.858-3.858 3.858-2.105 0-3.85-1.746-3.85-3.858v-7.62c0-1.627 1.022-3.135 2.468-3.614 4.034-1.385 5.421-5.362 5.421-5.362.543-1.446 1.985-2.53 3.612-2.53h7.624c2.105 0 3.851 1.75 3.851 3.857 0 2.105-1.566 3.793-3.851 3.793zm.058-9.279h-7.62c-1.627 0-3.13-.96-3.613-2.408-1.39-4.007-5.362-5.454-5.362-5.454-1.447-.543-2.53-1.929-2.53-3.612V3.82c0-2.106 1.745-3.772 3.854-3.772s3.798 1.542 3.798 3.771l-.062 6.143 8.826-8.853a3.867 3.867 0 015.42 0 3.886 3.886 0 010 5.481l-8.704 8.673h5.993c2.109 0 3.858 1.75 3.858 3.827 0 2.108-1.749 3.854-3.858 3.854z" clip-rule="evenodd" fill="#1a3b73" fill-rule="evenodd"/></svg>