<svg xmlns="http://www.w3.org/2000/svg" viewBox="0 0 150.2 89.316" width="46.051" height="43.782"><path d="M108.63 39.037a33.25 33.25 0 00-4.3-14.9l-23.5-40.7a32.44 32.44 0 01-3.7-9.8l-1 1.7a32.71 32.71 0 000 32.6l18.8 32.6a32.71 32.71 0 010 32.6l-1 1.7a32.44 32.44 0 00-3.7-9.8l-17.2-29.8-11-19a32.44 32.44 0 01-3.7-9.8l-1 1.7a32.77 32.77 0 00-.1 32.5l18.9 32.7a32.71 32.71 0 010 32.6l-1 1.7a32.44 32.44 0 00-3.7-9.8l-23.5-41.1a31.88 31.88 0 01-4.3-17.7c-25.2 6.6-42.5 20.5-42.5 36.7 0 22.5 33.6 40.7 75.1 40.7s75.1-18.2 75.1-40.7c-.1-16.2-17.5-30.1-42.7-36.7z" fill="#ec0000"/></svg>