<svg xmlns="http://www.w3.org/2000/svg" width="52mm" height="52mm" viewBox="0 0 52 52"><path d="M13.589 15.791c.91.8 2.118.31 2.764-.464 1.305-1.566 1.57-4.8.11-6.104-.347-.31-.85-.486-1.303-.42-.879.127-1.498.807-1.859 1.437-.297.519-.51 1.07-.641 1.925a5.04 5.04 0 00.045 1.856c.162.747.4 1.344.884 1.77" fill="#fff"/><path d="M12.66 12.164c.131-.855.345-1.406.642-1.923.36-.631.978-1.31 1.857-1.438.453-.066.957.11 1.305.42 1.459 1.304 1.195 4.538-.11 6.103-.646.777-1.856 1.264-2.765.465-.485-.425-.722-1.022-.885-1.769a5.047 5.047 0 01-.044-1.858m-9.023 14.95c.703-2.235 2.044-3.882 3.495-5.396 1.447-1.51 3.122-2.816 5.13-3.76 1.01-.475 2.138-.8 3.23-1.171 2.19-.747 4.33-1.564 6.28-2.566.961-.494 1.94-.996 2.675-1.791-.674-1.894-1.843-3.82-3.095-5.375-1.056-1.309-2.409-2.641-3.915-3.604-.223-.142-.51-.364-.686-.398-.453-.087-1.084 0-1.636 0H3.637c-.017.003-.066.074-.021.067.001 8.774-.048 16.192.021 23.994M3.637 51.86c3.407-.036 6.878.02 10.283 0 .217 0 .542.033.663-.021.195-.087.502-.705.709-1.017 1.67-2.527 3.19-5.1 4.599-7.807 1.618-3.109 3.075-6.306 4.203-9.82 1.086-3.382 1.83-7.002 1.968-10.371.13-3.188-.162-6.74-1.549-10.261-.001-.014-.002-.027-.021-.023-.446 1.18-1.15 2.188-1.88 3.096a20.389 20.389 0 01-2.389 2.499c-.85.756-1.862 1.384-2.764 2.124-.888.728-1.806 1.512-2.212 2.697.641-.022 1.263.014 1.748.045 1.493.097 3.132.44 4.356 1.26 1.6 1.072 2.34 3.08 2.058 5.065-.784-1.076-1.619-1.892-2.898-2.344-1.379-.488-2.763-.282-3.98.265-2.348 1.055-4.09 3.047-5.53 4.976-2.8 3.75-4.993 8.122-7.01 12.65-.144.324-.347.668-.398.928-.039.204.022.496.022.753-.005 1.733-.043 3.621.022 5.307" fill="#650360"/><path d="M22.988 3.517c.98-.606 2.124-1.355 3.14-1.923-.454 1.56-.854 3.107-1.282 4.599 2.642-1.552 5.193-3.195 7.828-4.755-1.742 2.606-3.513 5.185-5.24 7.806 5.112-2.4 10.067-4.773 15.148-7.164-4.41 3.813-8.85 7.545-13.225 11.345C35.535 11.382 42.092 9.144 48 7.232c-6.01 3.673-12.304 7.475-18.002 11.013 5.913-.607 11.58-1.2 17.228-1.746-5.725 2.068-11.664 4.19-17.25 6.237 5.597 1.036 12.331 2.275 18.046 3.36-6.27.42-12.294.864-18.488 1.262.69.405 1.426.74 2.145 1.083 5.093 2.436 10.154 4.964 15.215 7.408-2.98-.641-5.914-1.367-9.155-2.079-2.966-.65-5.986-1.355-9.178-2.057 5.385 4.52 11.147 9.182 16.542 13.735-5.966-2.959-11.879-5.836-17.847-8.78 2.745 3.81 5.547 7.56 8.294 11.367a2475.557 2475.557 0 00-10.86-7.187c.728 2.471 1.518 4.926 2.212 7.341-1.5-1.186-2.99-2.5-4.489-3.603-.78 1.354-1.61 2.757-2.455 4.046-.046.07-.144.125-.132.222 2.09.034 4.139-.007 6.081.022 3.373.048 6.57 0 10.04 0h1.571c1.408-.004 2.799-.01 4.157.022 1.137.026 2.226-.028 3.229-.022 1.043.005 1.673.023 3.494.022.04-16.41-.004-32.523.022-48.765-9.812.015-19.682-.028-29.456.023 1.566.894 2.83 2.093 4.024 3.361" fill="#fdb913"/><path d="M3.637 44.651c.585-4.071 1.68-8.518 3.074-12.495 1.378-3.93 3.05-7.844 5.573-10.747.012 0 .026-.018 0-.023-1.594.903-3.362 1.525-4.932 2.433-1.582.915-2.821 2.125-3.759 3.715.05 5.934-.039 11.23.044 17.117" fill="#650360"/></svg>