<svg xmlns="http://www.w3.org/2000/svg" version="1.1" id="_x30_50211" x="0" y="0" xml:space="preserve" width="95" height="95"><style type="text/css" id="style46613"></style><g id="g47189" transform="translate(-613.9 3.2)"><path d="M657.9 74.9c-11.3-11.8-24.6-7.2-38.7-8.8V9.3c14.1 1.6 27.4-2.5 38.7 8.7z" id="path46617" fill="#d1dbdf"/><path d="M696.6 66.1c-14.1 1.6-27.4-3-38.7 8.8V18c11.3-11.2 24.6-7.1 38.7-8.7zm-82.7-50.6v53.7l5.3-3.1V9.3z" id="path46619" fill="#fff"/><path d="M657.9 74.9c-11.3-11.8-24.6-7.2-38.7-8.8l-5.3 3.1 34.3 7.7s.3 0 0 .1c-.6.2-4.5 1.6-5.8 2.1v.1s0 .1.1.1l66.4-1.2V23.7h-7.2v-9.8l-5-4.6v56.8c-14.1 1.6-27.5-3-38.8 8.8z" id="path46621" fill="#2d4452"/></g></svg>