<svg xmlns="http://www.w3.org/2000/svg" width="1064" height="1064"><path class="st0" fill="#0074ba" d="M288.234 446.4h-127l29.5-185.9h125l-8.1 50.8h-56.9l-2.8 17.8h52l-7.6 48.3h-52.1l-2.9 18.2h59zm47.5-185.9h81.6c41.9 0 74.6 17.7 67.2 64.6-4.5 28.1-17.2 40-43.6 48.3l-.2 1.5c3 2.7 6.8 5.7 9.6 11.1l30.9 60.4h-77.9l-20.1-59.7h-1.2l-9.4 59.7h-66.4zm53 82.4h4.7c11.1 0 22.5-1.7 24.7-15.5 2.3-14.3-7.6-16-19.2-16h-5.2zm304.5-82.4l-101.4 185.9h-57.2l-42.6-185.9h70.5l11.3 84.6c1.3 9.1 1.8 18.2.3 27.6h1.5c1.5-9.4 4.9-18.5 9.1-27.6l38.1-84.6zm43.8 185.9h-67.5l29.4-185.9h67.6zm176.8-110.4c-9.2-10.1-21.4-18.7-36.7-18.7-20.2 0-39.3 16-42.5 36.3-3.2 20.5 11.8 36.2 32 36.2 15.5 0 28.9-6.7 41.4-17.3l-13 69.5c-11.7 5.2-37.2 7.4-49.2 7.4-53 0-87.9-41.2-79.5-94.2 8.6-54.2 58.1-97.6 112.6-97.6 15.3 0 30.6 2.7 44.1 7.6zm122.6 110.4h-127l29.4-185.9h125.1l-8.1 50.8h-56.9l-2.8 17.8h52l-7.7 48.3h-52l-2.9 18.2h58.9zm-964.4 253.4l21.9-64.9 21.3 65.1 68.5.8-55.4 40.3 20.5 65.4-55.5-40.1-55.9 39.6 21.1-65.2-55-40.9zm216.6 0l21.9-64.9 21.2 65.1 68.5.8-55.3 40.3 20.4 65.4-55.5-40.1-55.8 39.6 21-65.2-55-40.9zm210.8 0l21.9-64.9 21.3 65.1 68.4.8-55.3 40.3 20.4 65.4-55.5-40.1-55.8 39.6 21-65.2-54.9-40.9zm204.5 0l21.9-64.9 21.3 65.1 68.5.8-55.4 40.3 20.4 65.4-55.5-40.1-55.8 39.6 21.1-65.2-55-40.9zm216.5 0l22-64.9 21.2 65.1 68.5.8-55.3 40.3 20.4 65.4-55.5-40.1-55.9 39.6 21.1-65.2-54.9-40.9zm-840.9-164.3c-4.9-5.8-11.5-10.7-19.6-10.7-10.8 0-21 9.2-22.7 20.7-1.8 11.8 6.3 20.8 17.1 20.8 8.3 0 15.5-3.8 22.2-9.9l-7 39.8c-6.2 2.9-19.9 4.2-26.3 4.2-28.3 0-47-23.6-42.5-53.9 4.6-31.1 31.1-55.9 60.2-55.9 8.2 0 16.4 1.6 23.6 4.4zm15.9-43.2h43.7c22.4 0 39.9 10.2 35.9 37-2.4 16.1-9.2 22.9-23.3 27.7l-.1.8c1.6 1.6 3.6 3.2 5.1 6.3l16.5 34.6h-41.7l-10.8-34.2h-.7l-5 34.2h-35.3zm28.4 47.2h2.5c5.9 0 12-1 13.2-8.9 1.2-8.2-4-9.2-10.2-9.2h-2.8zm119.7 59.3h-67.8l15.7-106.5h66.8l-4.3 29.1h-30.4l-1.5 10.2h27.8l-4.1 27.7h-27.8l-1.5 10.4h31.4zm27.7-106.5h36.8c33.3 0 56.6 15.7 50.8 54.8-4.7 31.6-28.5 51.7-57.6 51.7h-45.8zm25.1 74.6h2.2c12 0 22.1-5.9 24.2-19.9 2.2-15-4.9-21.3-18.1-21.3h-2.3zm101 31.9h-36.1l15.7-106.5h36.1zm93.1-71.9l-19.7-1-10.8 72.9h-36.1l10.8-72.9-20.1 1 5.1-34.6h76zm154.4-34.6l-9.3 63c-4.6 31-24.9 45.2-52.7 45.2-27.8 0-43.9-14.1-39.3-45.2l9.3-63h36.1l-8.8 59.3c-1.2 8.3-2 15.7 7.6 15.7s11-7.3 12.2-15.7l8.8-59.3zm12.1 0h34.7l23.7 59h1c-.1-8.9-.4-18.1 1-27.1l4.7-31.9h34.5l-15.7 106.5h-34.5l-23.5-55.9h-1.1c.1 7.3.1 14.3-.9 21.3l-5.1 34.6h-34.5zm132.9 106.5h-36.1l15.7-106.5h36.1zm127.7-52.9c-5 34.2-32.7 54.6-63 54.6-30.3 0-51.9-20.5-46.9-54.6 4.9-33.5 32.9-55.2 63.1-55.2 30.1 0 51.7 21.7 46.8 55.2m-73.7.5c-1.8 12.2 4.6 20.5 15.6 20.5 10.9 0 19.8-8.3 21.6-20.5 1.7-11.3-4.1-20.8-15.5-20.8-11.5.1-20 9.5-21.7 20.8m90.5-54.1h34.7l23.7 59h1.1c-.2-8.9-.4-18.1 1-27.1l4.7-31.9h34.6l-15.8 106.5h-34.5l-23.5-55.9h-1c.1 7.3.1 14.3-.9 21.3l-5.1 34.6h-34.5zm-904.1-112.4l3 2.7c10.6 9.4 23.9 17 39.5 17 6.6 0 17.7-2.7 19-11.1 1.3-8.4-7.4-9.1-13.4-10.4l-13.2-2.5c-25.6-4.7-45.4-20.2-40.8-49.3 7-44.1 51.1-68.8 91.5-68.8 21.2 0 39.9 5.2 56.3 16.3l-25.8 47.6c-10.3-7.9-22.4-14.1-37-14.1-5.9 0-14.9 2.2-16.1 9.9-1.1 6.9 7.1 7.9 12.1 9.1l14.7 3.4c27.6 6.4 45.9 21.7 40.9 53.3-7 44.4-50.9 66.3-91.2 66.3-23.4 0-49.5-6.4-68.8-17z"/></svg>