<svg xmlns="http://www.w3.org/2000/svg" width="95" height="95"><path d="M14.1 95h66.8C88.6 95 95 88.7 95 80.9H0C0 88.7 6.4 95 14.1 95z" fill="#fe6600"/><path d="M95 14.1C95 6.3 88.6 0 80.9 0H14.1C6.3 0 0 6.4 0 14.1v60.3h95z" fill="#0063ce"/><path d="M68.7 43.5h-5.2v1.9h1c.6 0 .8.2.8 1v9.4c0 .8-.2 1-.8 1h-1v1.9h6.3v-1.9h-.4c-.6 0-.8-.2-.8-1v-1.2l1.3-1 1.7 2.5s.2.2.2.4-.2.4-.6.4h-.6v1.9h6.5v-1.7h-.2c-.4 0-.6-.2-1.2-1l-2.8-4.2 1.7-1.3c.8-.6 1.2-.8 1.9-.8h.8v-1.9h-6.9v1.9h1.2c.4 0 .6 0 .6.2 0 0-.2.2-.2.4l-3.1 2.3v-9.2m-15 4.2h-4.8v1.9h1c.6 0 .8.2.8 1v5.2c0 .8-.2 1-.8 1h-1v1.9h6.5v-1.9H55c-.6 0-.8-.2-.8-1v-3.5c0-1.9.6-2.7 2.1-2.7 1.2 0 1.5.6 1.5 2.1v4c0 .8-.2 1-.8 1h-.6v1.9h6.5v-1.9h-1c-.6 0-.8-.2-.8-1v-5.2c0-2.1-1.3-3.3-3.6-3.3-1.5 0-2.5.4-3.8 1.9l.2-1.4m-6.7 6.9v1.2c0 .8-.2 1-.6 1-.4 0-.4-.2-.4-.8v-5c0-2.7-1.5-3.6-5-3.6-2.9 0-4.6 1-4.6 2.9 0 1.2.8 1.9 1.9 1.9 1 0 1.7-.8 1.7-1.5 0-.6-.4-1-1-1.3.4-.2.8-.2 1.3-.2 1.5 0 2.5.6 2.5 1.7 0 1-.4 1.3-2.1 1.7h-.8l-.8.2c-.6.2-1.2.2-1.5.4-1.2.4-1.9 1.3-1.9 2.7 0 1.9 1.2 3.1 3.3 3.1 1.3 0 2.7-.6 3.5-1.7.6 1.2 1.3 1.7 2.9 1.7 1.9 0 2.9-1 2.9-3.1v-1.2h-1.3zm-4.4.6c0 .8-1 1.7-2.1 1.7-.8 0-1.3-.6-1.3-1.3 0-.8.4-1 1.5-1.3.4 0 .6-.2 1.9-.6v1.5M19.4 43.5v1.9h1.2c1 0 1.2.2 1.2 1.2v9.2c0 .8-.4 1-1.2 1h-1.2v1.9h10.4c3.5 0 5.6-1.5 5.6-4.2 0-1.9-1.2-3.3-3.5-3.8C34 49.9 35 49 35 47.2c0-2.5-1.7-3.8-5.2-3.8zm6.1 6.3v-4.4H28c2.1 0 2.9.6 2.9 2.1s-.8 2.3-2.9 2.3zm0 6.9v-5h2.9c1.7 0 2.7.8 2.7 2.5s-1 2.5-2.9 2.5h-2.7m58.7-24.8h6.4v-2.8h-6.4zm-2.4.2v1.1c0 .7-.2.9-.6.9-.4 0-.4-.2-.4-.7v-4.9c0-2.6-1.5-3.6-4.9-3.6-2.8 0-4.5.9-4.5 2.8 0 1.1.7 1.9 1.9 1.9.9 0 1.7-.7 1.7-1.5 0-.6-.4-.9-.9-1.3.4-.2.7-.2 1.3-.2 1.5 0 2.4.6 2.4 1.7 0 .9-.4 1.3-2.1 1.7h-.8l-.4.2c-.6.2-1.1.2-1.5.4-1.1.4-1.9 1.3-1.9 2.6 0 1.9 1.1 3 3.2 3 1.3 0 2.6-.6 3.4-1.7.6 1.1 1.3 1.7 2.8 1.7 1.9 0 2.8-.9 2.8-3v-1.1zm-4.3.6c0 .7-.9 1.7-2.1 1.7-.7 0-1.3-.6-1.3-1.3 0-.7.4-.9 1.5-1.3.4 0 .6-.2 1.9-.6v1.5m-9-11.5h-5.1v1.9h.9c.6 0 .7.2.7.9v2.6c-.9-1.1-1.9-1.5-3-1.5-2.8 0-4.7 2.4-4.7 6 0 3.2 1.9 5.4 4.5 5.4 1.3 0 2.4-.6 3.4-1.5v1.1h4.9v-1.9h-.9c-.6 0-.7-.2-.7-.9zm-5.3 6c1.3 0 2.2 1.3 2.2 3.6s-.9 3.7-2.2 3.7c-1.3 0-2.1-1.3-2.1-3.6-.1-2.3.6-3.7 2.1-3.7M52 25.4h-5.1v1.9h1c.6 0 .7.2.7.9v5.1c0 .7-.2.9-.7.9h-1v1.9H54v-1.9h-1.3c-.6 0-.7-.2-.7-.9v-2.6c0-2.2.7-3.9 2.1-3.9-.4.6-.6.9-.6 1.3 0 .9.7 1.5 1.5 1.5 1.1 0 1.9-.7 1.9-2.1 0-1.3-.9-2.4-2.2-2.4-1.1 0-1.7.4-2.8 1.9l.1-1.6m-6.9 6.7v1.1c0 .7-.2.9-.6.9-.4 0-.4-.2-.4-.7v-4.9c0-2.6-1.5-3.6-4.9-3.6-2.8 0-4.5.9-4.5 2.8 0 1.1.7 1.9 1.9 1.9.9 0 1.7-.7 1.7-1.5 0-.6-.4-.9-.9-1.3.4-.2.7-.2 1.3-.2 1.5 0 2.4.6 2.4 1.7 0 .9-.4 1.3-2.1 1.7h-.8l-.3.2c-.6.2-1.1.2-1.5.4-1.1.4-1.9 1.3-1.9 2.6 0 1.9 1.1 3 3.2 3 1.3 0 2.6-.6 3.4-1.7.6 1.1 1.3 1.7 2.8 1.7 1.9 0 2.8-.9 2.8-3v-1.1zm-4.4.6c0 .7-.9 1.7-2.1 1.7-.7 0-1.3-.6-1.3-1.3 0-.7.4-.9 1.5-1.3.4 0 .6-.2 1.9-.6v1.5m-15.5-7.3h-5.1v1.9h.9c.6 0 .7.2.7.9v9.4c0 .7-.2.9-.7.9h-.9v1.9h6.8v-1.9h-1.1c-.6 0-.7-.2-.7-.9v-2.4c.9.9 1.9 1.3 3 1.3 3 0 4.7-2.1 4.7-6 0-3.4-1.7-5.2-4.3-5.2-1.5 0-2.4.6-3.4 1.7zm2.1 1.7c1.3 0 2.1 1.1 2.1 3.4 0 2.4-.7 3.7-2.1 3.7-1.5 0-2.1-1.1-2.1-3.6 0-2.2.7-3.5 2.1-3.5m-8.5-5.9h-1.7l-.4.9c-1.1-.9-2.6-1.5-4.3-1.5-3.7 0-6 1.9-6 4.9 0 1.1.4 2.1.9 2.6.6.8 1.6 1.2 3.6 1.8l.7.2.7.2.7.2c.7.2 1.5.4 2.1.6.7.2 1.1.7 1.1 1.3 0 1.1-1.1 1.9-2.8 1.9-1.5 0-3.2-.7-3.9-1.7-.4-.6-.6-.9-.9-2.2H6.5v5.4h1.7l.4-1.1c1.3 1.1 2.8 1.7 5.1 1.7 3.6 0 5.8-1.9 5.8-5.1 0-1.9-.7-3-2.4-3.7-.9-.4-1.5-.6-4.5-1.1-2.2-.4-3-.9-3-1.9 0-1.1 1.1-2.1 2.8-2.1 2.4 0 4.1 1.5 4.3 3.9h2.1v-5.2" fill="#fff"/><path fill="#fff" fill-rule="evenodd" d="M0 74.4h95v6.5H0z"/></svg>