<svg xmlns="http://www.w3.org/2000/svg" id="Layer_1" data-name="Layer 1" version="1.1" width="325" height="325"><defs id="defs203"><style id="style201"></style></defs><path d="M7.655 193.111l7.65 69.34c1 7.77 1.16 11.26-.49 11.66-1.49.27-2.95-1.61-3.77-6.12l-10.11-52.93c-1.23-4.33-.9-11.7.79-16.3l2-5.45c1.61-4.54 3.39-4.62 3.93-.2zm21.65 3.63c-.17-4.43-3.71-5.36-5.43-2.09-1.72 3.27-2.45 12.59-1.86 17l3.27 34.13c.79 5.78 1.62 7.54 3 7.29 1.61-.36 2-5.65 1.79-10.31zm14.61 38.27l2.56-97.21c.29-2.82-3.78-2.53-5.91.35l-.77 1c-2.14 2.88-4 7.59-4.06 10.43l3.71 85.98c.13 2.82.78 6.63 2 6.6 1.42-.26 2.23-3.23 2.47-7.15zm17.28-84.13l-4.75 75.26c-.31 3.18.25 7 1.36 6.94 1.38-.08 2.74-4.29 3-7l11.83-83.85c-.39-4.34-4.79-5.15-7.59-.91-1.39 2.24-3.62 6.79-3.85 9.56zm13.75 73.29c1.48.57 2.75-3.35 4.75-9.49l33.64-130.57c.81-3.19-1-7.47-4.8-8.06-2.94-.44-6.7 3.41-7.64 7.73l-25.88 130.68c-1.09 5.34-1.51 9.19-.07 9.71zm20.15-1.08l48.15-115.62c2-4.44 2-8.38-1.66-9.71-4.08-1.42-9.27 4.07-11.31 8.72l-39.53 114.52c-1.66 4.81-3.18 9.27-1.53 9.89 1.88.67 3.83-3.41 5.88-7.8zm118.62-164.48a7.8 7.8 0 00-1.23-9.9l-5.74-3.77c-3.29-1.7-6.68-.78-8.38 2.36l-85.36 166.06s-7 11.82-4.63 12.9c1.88.89 6.72-6.76 6.72-6.76zm-91.38 176.27l119.27-131.69c2.69-3.1 4.95-5.34 3.51-9.56a15.07 15.07 0 00-5.8-7.78c-2.69-2.06-6.44-1.64-8.85 1.49l-111.43 144.22c-4 4.53-6 8.07-4.72 9 1.42 1.06 4.65-1.78 8.02-5.68zm15.68-1.23c1.2 1.43 5.54-1.38 9.87-4.73l160.61-114.7c3.51-2.82 5.54-7.92 4.38-11.27l-5.3-13.49c-1.15-3.22-4.58-3.48-7.64-.56l-155.47 136.13c-3.79 3.63-8.05 6.73-6.45 8.62zm1.2 19.12l152.23-62.43c4.75-2.21 8.54-7.14 8.39-11l-1.64-17.34c-.13-3.62-3.62-4.54-7.72-2.07l-153 87.83c-4.71 2.92-9.26 5-8.65 7 .61 2 5.13.44 10.37-1.99zm183.87-26.13l1.7-18.08c.34-3.95-3.6-5.68-8.68-3.85l-155.56 52.32c-5.5 2-10.6 3.3-10 5.34.5 1.75 4.89.93 10.77-.12l150.74-26.11c5.71-1.06 10.68-5.38 11.03-9.5zm-169.16 54.21h128.51c6.19.49 11.21-2.75 12.77-7.25l2.74-7.06c2-5.23-3-8.37-8.94-7.78l-134.29 15.74c-6 .63-13.43 1.8-13 4 .43 2.2 6.39 2.42 12.21 2.35z" id="path209" fill="#f58025"/></svg>