<svg xmlns="http://www.w3.org/2000/svg" width="129.8" height="130"><g fill="#f35b1c"><path d="M64.9 0C29 0 0 29.1 0 65s29.1 65 64.9 65c35.8 0 64.9-29.1 64.9-65s-29-65-64.9-65zm0 124.1c-24 0-45.6-14.5-54.7-36.7-9.2-22.2-4-47.7 12.9-64.6C40.1 5.9 65.6.8 87.7 10c22.1 9.2 36.6 30.9 36.5 54.9 0 32.7-26.5 59.2-59.2 59.2h-.1z"/><path d="M29.7 79.5c-.2 0-.4 0-.5-.1-.5-.4-.5-.9-.6-1.6-.2-.4-.4-.8-.7-1.2-.1-.4-.5-.5-.9-.9-.3-.2-.7-.4-1-.5-.4 0-.7.5-.7 1s.5.6.9.6c.4.1.8.3 1 .7.4.7.1 2.1.4 2.6.3.5.7.5 1.4.6.3.1.7.1 1 .1.7 0 1.2-.1 1-.9-.3-.1-.8-.3-1.3-.4zM45 76.4c0-.4-.4-.4-.5-.4-.6 0-1 .5-1 1 0 .1.1.5.1.6 0 .7-.6.9-.6 1.4 0 .5.4.5.6.6h1c.4-.1.5-.7.5-1 0-.4-.4-1.2-.1-1.6-.2-.2-.2-.4-.2-.8.1.2.2.2.2.2zM30.9 74c-.4 0-1.2.9-1.2 1.2 0 .3.4.5.5.6.2.2.4.4.5.7.4.4 1.2 1.6 1.7.7.1-.4.1-.8.1-1.2 0-.5-.1-1-.4-1.4-.2-.5-.7-.7-1.2-.6zm25.2-3.7c-.7-.7-1.5-1.3-2.3-1.8-.7-.3-1.5-.6-2.3-.7-.4-.1-1-.4-1.4-.1-.4.3-.1.9-.4 1.2-.1.4-.5.7-.9.6-.4 0-.7-.4-1.2-.1-.5.3-.9 1.2-1.6 1.4-.9.1-1-.7-1.8-.9H42c-.3.2-.5.5-.5.9s.7.5 1 .5c.8.2 1.6.6 2.3 1 .3.4.6.7 1 .9.7.1 1.5.1 2.2 0 .4-.1.5-.4.9-.7.5-.5 1.1-.9 1.8-1.2.4-.1.6-.4 1-.4s1 .1 1.5.1l1.6.1c.4.2.8.4 1.2.5.4 0 .9.1 1.2-.4.4-.3-.6-.5-1.1-.9zM38.4 80c-.3-.1-.7-.1-1-.1-.4 0-.9-.1-1-.1-.5 0-1.5.1-1.5.7.1.5.4.9.9 1 .4.2.9.4 1.4.5H39c.5 0 1.4-.7 1.2-1.2-.7-.4-1.3-.7-1.8-.8zm5.3-15.3c.5-.3.9-.8 1-1.4 0-.1-.1-.4-.5-.7-.1-.1-.4-.5-.6-.5h-.5c-.5 0-.9.1-.9.5v.9c-.1.5-.9.9-1.2 1h-1c-.2 0-.5 0-.7.1-.2 0-.4 0-.6.1-.4.1-.9.5-.9.9 0 .1.4.5.4.5.7.1 1.5 0 2.2-.1.4 0 .7 0 1-.1.1 0 .5 0 .6-.1.4-.5 1-.9 1.7-1.1zM35.2 72c.4-.4.5-1.1.1-1.6-.2-.3-.5-.6-.7-.9-.3-.3-.5-.6-.6-.9-.1-.4-.4-.9-.9-.7-.4.2-.7.5-.9.9-.1.3-.3.5-.5.7 0 .4.1.9.1 1 .2.4.4.7.6 1 .4.5 1 .8 1.6.9.5.1.9-.1 1.2-.4 0-.1 0 0 0 0zm-5-19.5c.1.1.5.4.7.5.4.1 1.6.4 1.7-.1.1-.5-.1-.7-.5-1-.1-.4-.5-.7-.6-.9-.4-.1-.6-.4-1-.4s-.6.4-.9.6c-.3.5 0 1 .6 1.3-.1 0 0 0 0 0zm-.4 8c1.2-.1 1.4-1.4 2.1-1.8.3-.2.7-.4 1-.5 1-.1 1.7.5 2.7.4.4-.1.8-.2 1.2-.5.4-.1.7-.7 1-1 .4-.5 1-.9 1.7-1 .4 0 .8 0 1.2-.1.3-.1.6-.2.9-.4 1-.4.5-1-.4-1.2-.5-.2-.9-.3-1.4-.4l-1.5.1c-.5.2-.9.6-1.2 1-.6.6-1.5 1-2.3 1h-1.4c-.1 0-.5.1-.6.1-.5.1-.9.1-1.2.5-.4.4-.8.7-1.2 1-.5.5-.9.6-.9 1.5-.1 1.1-.1 1.2.3 1.3-.1 0 0 0 0 0zm6.6-7.4c.3 0 .7-.1.9-.4.6-.4 1-.5 1.6-.9.7-.5 1.4-.8 2.2-1 .5 0 1.6.1 1.6-.4s-.5-1-.6-1.2c-.3-.3-.6-.7-.7-1.2 0-.4.4-.4.7-.5.3-.1.6-.1.9-.4.1 0 2.3-.4 2.3-.4.7-.1.7-1.2 1.2-1.4.5-.2 1.2 0 1.4-.5 0-.3 0-.6-.1-.9-.3-.3-.7-.5-1.2-.7-.4 0-2.6 2.2-2.8 2.2-.2 0-.5-.4-.9-.5-.8-.3-1.7-.1-2.3.5-.1.1-.6.6-.6.9 0 .3.1.9.1 1.2 0 .3.4.6.1 1.2 0 .4-1.7 1.4-2.1 1.4h-1.5c-.7.5-1 1.3-.9 2.1 0 .8.4.9.7.9zm24.2 34.5c-.4.1-1.2 2.3-1.4 2.8-.2.5-.4.9-.1 1.2.1.3.4.4.7.3.1 0 .1-.1.2-.1.4-.1.5-.5.9-1 .3-.6.4-1.2.5-1.8-.3-.8-.3-1.6-.8-1.4zM34 61.7c-.4-.4-.6-.5-.9-.4-.3.1-.5.1-.5.5.1.5.3.9.7 1.2.3.3.7.6 1.2.7.5-.1.5-.9.4-1.4-.4-.2-.7-.5-.9-.6zm3.1 13.5c0 .1-.1.5-.1.7 0 .6 0 1.7.5 1.7.4 0 .7-.2.9-.5v-.6c0-.1.1-.4.1-.5 0-.4 0-.7-.1-1v-.6c-.1-.3-.4-.4-.6-.4-.7.2-.6.6-.7 1.2zm-9.4-3.1c.4 0 .4-.5.5-.9.1-.4.1-.9.4-1 .1-.5.9-.9 1-1.2.4-.5.7-1 .9-1.6v-1.2c-.1-.5-.3-1-.7-1.4-.5 0-.4.5-.4 1-.1.8-.4 1.6-.9 2.3l-1 1c-.5.5-1 .9-.9 1.8.2.6.8 1.4 1.1 1.2zm88.5 9c-.5-.1-.9-.1-1.4 0-.4.2-.7.5-.9.9-.1.4-.5.6-.9.9-.7.2-1.5.3-2.2.4h-.9c-.7-.4-.7-1.4-1.7-1.4-.4 0-.7.4-1 .5-.4.1-.9 0-1 .5.1.4.1.4.5.7.1.1.5.4.5.6 0 .2-.9.4-1.2.5-.5 0-2.1.1-2.2.1-.7.1-1.4 0-2.1-.4-.5-.4-.9-1-1.6-1.6-.6-.5-1.4-.7-2.2-.7-.7.1-1.3.3-1.8.7-.5.4-.7 1-1.2 1.4-.3.3-.7.5-1.2.5-.3 0-.6 0-.9-.1-.4-.3-.8-.7-1-1.2-.1-.4-.7-1-1.2-1-.5.1-.9.4-1 .9-.4.4-.5.9-1 .9-.4 0-.8-.3-1-.7-.2-.5-.5-.8-.9-1-.6-.1-1.1-.1-1.7-.1-.5 0-2.7.7-2.8.7-.1 0-1-.1-1.2-.4-.4-.1-.5-.5-.9-.9-.1-.4-.5-.6-.7-1-.4-.6-.5-1.5-.9-2.3-.1-.4-.4-.5-.7-.9-.5-.5-1.4-.7-2.1-1-.4-.1-.6-.5-1.2-.5s-1 .7-1.2 1.4c-.3 1-.5 2.1-.4 3.1 0 .9.1 1.8.4 2.6.1.9.2 1.7.4 2.6.1.8.3 1.6.5 2.3.3 1.4.8 2.8 1.5 4.1.9.8 2 1.3 3.1 1.6.6.4 3.9 1.8 4.4 2.2.1.1.6.4.5.7-.1.3-1.5 0-1.8 0-2.4-.8-5-1.1-7.5-.9-.5 0-1 .1-1.2.5 0 .3.1.7.4.9.4.5.6 1.1.7 1.7 0 .4.1.9-.1 1-.3.1-.5-.1-1-.4-.5-.3-4.4-2.6-8.3-2.6-2.9.2-5.8 1.1-8.3 2.6-.4.1-.7.5-1 .4-.4-.1-.1-.5 0-.9.1-.6.4-1.2.7-1.8.2-.3.3-.6.4-.9-.1-.5-1.4-.5-1.7-.5-1.6-.1-2.8 0-4.4 0-.4 0-3.1.4-3.4.4-.5 0-1 .4-1.2 0-.1-.1.4-.5.5-.7.5-.4 1-.7 1.5-.9.4-.1 1.7-.7 2.2-.9.4-.2.9-.4 1.4-.5 1-.3 1.8-.8 2.6-1.4.3-.4.6-.9.9-1.4.1-.5.4-1 .5-1.6.1-.5.4-1 .5-1.6.1-.6.2-1.1.4-1.7.1-1.2.4-2.3.5-3.6.1-.6.2-1.1.4-1.7.1-.7.1-1.4 0-2.1 0-.4-.1-.5-.4-.9-.3-.4-.1-.7-.4-.9-.2-.4-.6-.7-1-.7-.4.1-.8.3-1.2.5-.4.1-.6.5-1.2.5-.3 0-.6 0-.9.1-.8 0-1.5.2-2.2.5-.7.5-1.1 1.4-.9 2.2 0 .4.4.7.7.9.3.3.9.4.9.6 0 .3-1.2.9-1.6 1-.5.2-1 .3-1.6.4-.7 0-1.5 0-2.2-.1-.9-.1-2.1-.4-2.7.1-.4.4-.6.9-.7 1.4-.1.7-.5 1.2-1.2 1.4-.5 0-1.2-.4-1.7-.4s-1 .1-1.4.4c-.5.1-.9.5-1.4.5-.5 0-1.2-.7-1.7-1-.2-.2-.5-.4-.6-.6-.2-.3-.6-.5-.9-.5-.5 0-1 .5-1.4.9-.4.1-1 .7-1.6.7-.5 0-.7-.4-1-.4-.4 0-.9.4-1.4.4-.9 0-1-1.2-1.7-1.4-.4-.1-.9.1-1 0-.7-.4 0-1.8.1-2.3.1-.1.4-.5.1-.6 0-.5-1-.7-1.6-.9-.1 0-.5-.1-.7-.1-.4 0-.7.4-1 .5-.4.1-1.6.9-1.8 1-.6.6-1.4.8-2.2.7-.4 0-1.4-.9-1.7-.9-.7.1-.7 1-1.4 1.2-.8.1-1.5 0-2.2-.4-1-.7.4-1.2.4-2.2 0-.7-.5-1.2-.5-1.7s.9-1 1.2-1.6c.1-.1.4-1.4.5-1.6.1-.4.5-.4.9-.5.4-.1.9 0 1.4-.1.5-.1 1.4-.6 1.2-1 0-.5-.9-.6-1.2-.6-.5-.1-1.2-.4-1.2-.9.1-.4.3-.8.5-1.2.1-.4.2-.7.4-1 .1-.4.5-.6.9-.9.4-.2.8-.4 1.2-.5.5 0 .6.5 1 .9s.6 1.2 1.6.9c.3-.2.5-.6.5-.9-.1-.5-.1-1 0-1.6.4-.4 1.2-.5 1.8-.9.1 0 .5-.1.7-.1.4.1.5.9.6 1.4.1.5.4 1.4.7 1.4.3 0 .5-.4.7-.7.3-.5.7-1 1.2-1.4.3-.1.5-.3.6-.7.2-.4.3-.8.4-1.2-.1-.6-1-.9-1.7-1-.4-.1-.7-.2-1-.4-.7-.1-1.2-.1-1.4-.9-.1-.4-.1-.8 0-1.2.1-.9.1-1.7.9-1.8.3-.1.7-.1 1 0 .4 0 .6-.1.6-.5s-.1-.9-.1-1.2c0-.3-.5-.7-.7-1-.1-.4-.1-.8 0-1.2-.1-.6-1-1.2-.7-2.3.2-.4.7-.7 1.2-.7.4 0 .8 0 1.2-.1.5-.4.5-1 .5-1.7s-.4-1.6 0-2.2c.1-.4.7-.5 1.2-.6.9-.4 1.6-1.2 2.3-1.6.3 0 .7 0 1-.1.4-.1.7-.4 1-.4.4 0 .6 1 .9 1.6.3.5.4 1.4.9 1.6.5.1 1.6-.5 1.6-.9s-.1-.9-.1-1.4v-.6c0-.1-.1-.5-.1-.7.1-.6.4-1.2.9-1.6.4-.1.5-.4.9-.5.1-.1.5-.4.6-.5.3-.3.5-.7.7-1 .4-.4.9-.4 1.5-.5.5.1.5.7.9 1 .3.6.9 1 1.5 1 .5 0 .7-.7.9-1.2.3-1 .4-2.1.4-3.1-.1-.4-.3-.8-.5-1.2-.3-.6-.4-1.2-.4-1.8.1-.4.5-.5.6-.9.4-.1.5-.5.9-.9s.5-2.1 1.2-2.2c.9-.4 1.7.4 2.3 0 .4-.1.5-.7.7-1.2.2-.5.5-1 .9-1.4.3-.2.6-.4.9-.5.4-.1.7-.2 1-.4.1 0 .1-.1.4-.1.4-.4.4-.9.6-.9.5-.1.9-.1 1.4 0h.7c.2 0 .4 0 .7-.1.5-.1.7-.5 1.2-.9.7-.4 1.4-.5 2.2-.4.1 0 .5.1.6.1.3.1.7.1 1 0 .6-.1 1-1 1.6-1.2.6-.1 1.3.1 1.7.5.4.1.5.7 1 .7s.9-.7 1-1c.4-.5.5-1.2 1.2-1.2h.9c.5 0 1 .1 1.4.4.1 0 .5.1.6.1.5 0 .9-.5 1.2-.5.3 0 .5 0 .6.1.9.7 1.5 1.6 1.8 2.7.1.4.6.7.9 1 .3.3.5.7.7 1 .1.1.5.5.7.5h.6c.2.1.4.1.7.1h.9c.5.1.9.5 1.4.5.4-.1.9-.3 1.2-.7.4-.4.4-1 .9-1.2.3 0 .6 0 .9.1 1.2.6 2.2 1.2 3.3 1.8.4.4.9.7 1 1 .1.6.1 1.2 0 1.8.1.6.3 1.3.7 1.8.3.7.5 1.4.5 2.2.1.5.7.9 1 1.4.1.1.4.5.5.7.3.3.6.7.9 1 .1.6.2 1.1.4 1.7.1.5 1 .6 1.7.9.7.3 1 .4 1 .7 0 .3 0 .6-.1.9-.1.6-.4 1-.5 1.7 0 .4-.1.6-.1.9.1.7 1.6.1 1.8 0 .3-.1.7-.4.9-.4.3-.2.7-.3 1-.1.5.1 1 .9 1.5 1.2.2.2.5.4.7.7.8.5 1.7 1 2.6 1.4.7.1 1.3.5 1.8.9s1.2.7 1.4 1.4c.2.7.3 1.4.1 2.1-.2.5-.5 1-.9 1.4-.4.4-1 .6-1 1.2s1.2 1.2 1.7 1.4c.5.2.7.4 1 .5.4.1.7.5.9.7-.1.5-.3 1-.5 1.4-.1.5-.5.9-.5 1.4 0 .5 0 .9.1 1 .5.4 1.4-.1 1.7-.4.2-.2.4-.4.7-.5.2-.2.6-.4.9-.4.5 0 .7.9.7 1.4 0 .8.4 1.5.9 2.1.4.3.9.5 1.4.5.5.2 1 .6 1.2 1.2.1.4.2.8.1 1.2v1.4c-.1.4-.5.6-.6.9-.1.3-.5.1-.9.4-.8.4-1.7.6-2.6.7-.6 0-1.2.2-1.7.5-.6.1-1 .6-1 1.2s1.4.5 1.8.6c.4.1.5 1.2 1.2 1.4h1.2c.3 0 .5-.4.6-.5.3-.3.6-.5 1-.5s.8.2 1.2.4c.3.1.7.1 1 .1.5.1.9 1 1.4 1.4.9.7 1.6.9 1.7 1.8 0 .1.4 1.4.4 1.8-.9.7-1.6.9-2.2 1.1 0-.1 0 0 0 0zm-18.4-7.7c-.4-.8-.8-1.5-1.4-2.1-.3-.3-.6-.5-1-.5-.4-.1-.8-.1-1.2-.1-.3 0-.5.2-.5.5 0 .2.2.4.4.5l.4.4c.3.3.6.5.9.6.3.5.5 1 .6 1.6.1.4.7 1 1 1 .4 0 .9-.9.9-1 .1-.3 0-.7-.1-.9zm-4.7 4c-.6.1-1.4.5-2.1.7h-1.2c-.3.1-.6.3-.7.6 0 .4.4.4.7.4h1c.2.1.4.1.6.1.1 0 .5 0 .7.1.5.1.7 1 1.6.9.1 0 .5-.5.7-.9 0-.1 0-.5.1-.7.1-.3.1-.6.1-.9.2 0-1-.3-1.5-.3zM47.5 39.6c.1.4.4.5.5.9.1.4.3.7.5 1 .3.3.8.3 1.1-.1l.1-.1c.1-.6-.9-1.6-.9-2.1s.5-.4.7-.9c.2-.5-.4-1.2-.1-1.7 0-.4.5-.5 1-.7.8-.3 1.5-.7 2.2-1.2.4-.1.9-.5.9-.9 0-.1-.1-1-.1-1.2 0-.2-.4-.4-.5-.4-.4 0-.6.5-.9.6-.6.7-1.2 1.8-2.6 1.7-.4 0-.5-.1-.9-.1s-.6.6-.9 1c-.1.1-.1.5-.4.7-.1.2-.1.4-.1.7 0 .4.2.8.4 1.2-.3.7-.2 1.2 0 1.6zm43 34.1c0-.3-.2-.6-.6-.7h-.1c-.3.1-.5.2-.7.4-.4.3-.7.6-1 .9-.4.4-.7.7-.5 1 .1 1 1.7 0 2.1-.1.2-.5.8-1 .8-1.5zm14 3.6c-.7 0-1.2.7-1.7.9-.2.2-.6.4-.9.4-.5 0-1.1-.1-1.6-.4-.1 0-.5-.1-.7-.1-.4 0-.5-.1-.9-.1-.1 0-.3.1-.4.1-.4.1-1 .5-.9 1 .1.5.6.1 1.2.1.3.1.6.1.9.1.9.4 1.8.7 2.7.9.5.2 1.1-.1 1.4-.5.4-.5.9-.9 1.5-1 .5-.1.9-.1.9-.5.6-.4-.7-.9-1.5-.9zm7.4 1.3c-.4 0-.6.1-1 .1s-.7.2-.9.5c0 .4.5 1.2.9 1.2.3 0 .6 0 .9-.1.4 0 .5-.1.7-.5.1-.4.1-.8 0-1.2h-.6zM88.7 62.4c.3-.4.6-.9.7-1.4-.1-.1-.1-.1-.5-.1s-.7.1-1 .4c-.9.1-1.2.5-2.1.9-.4.1-.9.4-.9.7 0 .3.9.4 1.2.5.3.1.7.5 1 .5.7-.2 1.3-.8 1.6-1.5zm-15.1-.8c.3-.6.7-1.1 1-1.7.1-.4.4-.6.4-.9v-.5c0-.4.4-1.4 0-1.7-.1-.1-.3-.1-.4-.1-.4.2-.8.4-1.2.5-.4.1-.8.3-1 .7-.1.5-.1.9 0 1.4 0 .4-.1.8-.4 1.2-.4.3-.9.6-1.4.7-.5.1-.9.4-1.2.9v1.3c-.1.5-.4.9-.9 1-.1.1-1 .4-1.2.9 0 .1-.1 1.7-.1 2.3 0 .6.1 1.8.7 1.8 1.1-.9 2-2 2.8-3.2.1-.1.1-.4.4-.5.3-.1.5-.4.6-.6.2-.6.3-1.1.4-1.7.1-.4.9-.7 1.2-1-.1-.3.2-.7.3-.8zm-11.1 5.9c.1-.4.1-.9.4-1.2 0-.1.4-2.1.4-2.2.2-.8.6-1.6 1-2.3.1-.4.5-.7.6-1.2.1-.5-.1-.9-.1-1.2-.1-.3-.3-.5-.5-.7-.4-.6-.7-1.2-.9-1.8v-1.5c0-.2 0-.4-.1-.7 0-.4 0-.5-.4-.7h-.4c-.4.2-.8.5-1 .9-.5.7-.6 1.7-1.6 1.8-.4.1-.8.1-1.2 0-.4.1-.5 1-.4 1.4.1.4.5.4.9.5.4.1.7.2 1 .4.2.3.4.6.5.9.1.4.1.8-.1 1.2-.2.4-.3.8-.4 1.2.1.4.5.7.5 1 0 .4-.9 1.2-1.2 1.2l-1.2-.1c-.7-.1-2.1-1.8-2.3-2.1-.3-.3-.4-.5-.5-.7-.1-.1-1-.6-1.2-.9-.4-.4-.9-.9-1.4-.9-.5 0-.6.5-.9.5-.7.4-1.8.1-1.8 1 0 .5.9.7 1.2.9.5.1 1.1.3 1.6.5.1 0 1.7 1.6 2.2 1.8.5.3 1.1.5 1.7.7.4.1.5.4.9.5.5.4 2.2 1.6 2.3 1.7.6.5.9 1 1.5 1.2.6 0 .7-.4.9-1.1.1 0 0 0 0 0zM65 86.6V85c0-.5.1-2.2.1-2.6 0-.4-.1-.9-.7-.9-.4.5-.7 1.1-.7 1.7 0 .2 0 .4-.1.5 0 .1-.1 1-.1 1.2 0 .7.1 3.1.1 3.6s.2 1 .4 1.4c.1.5.9 1 1.2.9.1 0 .1 0 .1-.1.1-.4 0-.5-.1-.9.1-1 0-2.1-.2-3.2zm5.2.5c-.1-.6-.2-1.2-.4-1.8v-5.9c.1-.7.9-1.6.5-2.1s-1-.1-1.6-.1c-1.7.1-3.3-.1-4.9-.5h-.9c-.7 0-1.4 0-1.4.5s1.4.9 1.8 1c.4.1 3.8 1 3.9 1.2.1.1.5.4.5.7 0 .3.4 5.8.5 6.5.1.8.3 1.6.6 2.3.3 1 .8 1.9 1.4 2.8.4.4.9 1 1.2.6.4-.1.1-.5 0-.9 0-.3-1.2-3.9-1.2-4.3zm14.7-22c-.3-.2-.6-.4-.9-.5-.2-.3-.6-.5-.9-.5-.7-.1-1.4-.2-2.1-.1-.5 0-.9 0-1.4.1-.6.1-1 .1-1.4.7-.4.5-.5.6-.9 1-.3.2-.6.4-.9.5-.2.2-.4.4-.5.7-.1.1-.1.5-.4.6-.1.4-.5.5-.9.7-.4.1-.6.5-.9.7-.4.5-.5.9-.9 1.2-.4.3-1 .9-1 1.2 0 .3.1.4.5.4.1 0 .5-.1.7-.1.5-.2.9-.3 1.4-.4.1 0 1.8-.1 2.1-.1.3-.1.5-.4.7-.7.1-.4.1-.8 0-1.2.2-.4.4-.8.7-1.2.4-.2.8-.3 1.2-.4.3.1.6.1.9.1.4 0 .5-.6.7-1 .1-.4.4-.9.9-.9.1 0 .5.1.5.4.4.5.4 1.4.9 1.7.4.1.8.1 1.2 0 .6-.2 1.2-.5 1.6-1 .3-.3.3-.7.1-1 0-.7-.6-.7-1-.9zm-2.2 9c-.1-.6-.5-.9-.9-1.4-.4-.5-.5-.7-1-.7s-.6.4-.9.7c-.1.3-.1.6-.1.9 0 .5.7.7 1 1 .4.4.7.9 1.2.9s.7-.4.9-.6c-.1-.3-.1-.6-.2-.8zM84 78c-.5.1-1.6 1-1.4 1.6.2.5.7.6 1 .6.9 0 1.2-.5 1.6-1 .1-.4.4-.5.4-.9-.4-.4-1-.5-1.6-.3zM52.6 41.7c-.1.2-.1.4-.1.7-.1 1.2.5 2.7 1.4 2.8.9.1.9-.9.6-1.4-.3-.5-.5-.9-.5-1.2 0-.5.7-.4.7-1 0-.7-1-1-1.6-.9-.3-.1-.3.3-.5 1zm40.9 15.1c-.1.1-.5.5-.5.6 0 .4.5.1.9.1h.9c.4 0 .5.1.9.1s.4-.9.4-1.4v-.7c-.1-.7-.3-1.4-.7-2.1-.4-.5-.6-1-1-.5 0 .9.4 1.4.1 2.2-.1.8-.5 1.3-1 1.7zm0-6.5h.5c.4 0 .5.1.9.1.5 0 1 .2 1.4.5.5.4.9.5 1 1 .1.1.1.5.4.9.1.3.2.6.4.9.4.9.5 1.8.9 2.6.1.4.5.7.9.9.1.1.9.4 1 .1.4-.1.4-.9.1-1.2-.1-.5-.5-.9-.5-1.4 0-.5.4-.9.4-1.4 0-.5-.5-.7-.9-1-.1-.1-.1-.4-.4-.5-.3-.1-.1-.4-.4-.5l-.9-.9c-.1-.1-.4-.1-.5-.4-.4-.4-1-.6-1.6-.7-1-.1-2.1-.1-3.1 0-.8.3-.1 1 .4 1zm7.1 9.7c-.1-.4-.4-1-1-1s-.6.7-.9 1c-.3.4-.9.7-.9 1 0 .1.4.4.5.5.5.1 1.4.5 1.8.4.1 0 .6-.1.6-.5s-.1-.6-.1-.9c.1 0 0-.1 0-.5zm-15.3-8.8c-.1 0-.5.4-.6.4-.4-.1 0-1.6-.1-2.1 0-.1-.5-.5-.7-.4-.4.4-.5 1-.9 1.6-.2.5-.6.9-1 1.2l-.5.5c-.1.1-.5.4-.5.5 0 .4.1.6.1 1s-.1.7 0 1c.5.6 1.2-.1 1.6-.5.4-.4.5-.9 1-.9s1 .4 1.7.4c.4 0 .7-.4 1-.5.4-.1.6-.5.9-.6.3-.1.4-.1.5-.1.7-.4 1.4-.6 2.2-.7.5 0 1.4-.1 1.4-.6 0-.1-.4-.5-.5-.7-.5-.1-.9-.2-1.4-.1-.7 0-1.4 0-2.1.1-.4.2-.8.3-1.2.4-.4-.2-.8-.2-.9.1zm6.6 14.2c.4-.1.4-.7.7-.9.3-.3.7-.4 1-.4h.6c.4-.1.5-.7.6-1 .1-.4.5-.9.5-1.2 0-.3-.5-.5-1-.4-.3.1-.6.1-.9.1-.4.1-.7.1-.9.4l-.6.7c-.5.5-.9 1.1-1.2 1.7-.1.4-.4.6-.5 1 .6.3 1.2.3 1.7 0zM87.5 48c.5.1 1.4-.5 1.5-.7.1-.2.4-.5.5-.6.1-.1.5-.4.5-.7 0-.4-.1-.7-.4-.9-.1-.1-.5 0-.9 0-.9 0-.9.1-1.2.9-.1.4-.4.7-.4.9 0 .2 0 1.1.4 1.1zM20.9 74.8c-.6.1-1.1.3-1.6.6-.4.1-.7.2-1 .4-.4.5-.4 1.3 0 1.8s1 .4 1.6 0l.5-.5c.1-.1.4-.1.5-.4.1-.3.9-.7.9-1 0-.4-.7-.9-.9-.9zm67.4-18.6c-.3.5-.4 1.1-.4 1.7.2.4.5.6.9.5.3-.2.6-.4.9-.7.1-.1.1-.4.4-.7.2-.2.3-.4.4-.7.1-.1.4-1 .1-1.2 0-.5-.6-.7-1-.7-.7.6-1.2 1.1-1.3 1.8zm16.2 11.9c.4.5.6 1.2.5 1.8-.1.4-.5.9 0 1.2.4 0 .5-.4.6-.5.4-.4.7-.9.9-1.4.1-1.2-.4-2.4-1.4-3.1-.6-.7-1.7-1-1.8-2.1 0-.4 0-.7-.4-.9h-.1c-.3.3-.6.7-.9 1-.1.4-.5.9-.5 1.2 0 .3.4.5.5.7.5.6 2 1.1 2.6 2.1zm4.2 1.3c.9 0 1.6.1 1.6-.5 0-.4-.4-.5-.5-.9-.4-.4-.5-.7-.9-.7s-.5.1-.7.5c0 .3 0 .6.1.9.1.2.2.4.4.7zm-7 4.5c.1.4.5.9.9.9.2 0 .4 0 .5-.1.5-.4.4-.5 0-1-.1-.1-.1-.5-.4-.5-.1-.4-1-.9-1.4-.7-.4.3-.1.7 0 1 .2 0 .2.1.4.4-.1 0 0 0 0 0zM58.4 35.4c.4 0 .7-.5.9-.9.3-.4.5-.9.9-.9.6-.1 1.1-.1 1.7 0 .5-.1.7-1.4 1.4-1.4.2.1.4.3.5.5.1.1.1.5.5.5 1 0 1.9-.1 2.8-.4.5-.1.9-.5 1-.9.4-.5.4-1.6-.1-1.7-.5-.1-1 .5-1.6.7-.7.1-1.3-.1-1.8-.5-.4-.4-.5-.7-.9-.7-.5 0-.9.2-1.2.7-.4.4-.7.9-1 .9-.4 0-.4-.4-.5-.5l-.5-.5v-1.1c-.1-.3-.4-.4-.6-.4-.5 0-1.6 1-1.7 1.4.1 0 .1.4.1.6 0 .3.5.5.5.9 0 .2-.2.4-.4.5l-.4.4c-.4.1-.6.5-.7.9 0 .1.1.7.1.9.2.4.6 1 1 1zm-9.8 16.7c-.5-.2-.9-.3-1.4-.4-.4 0-1 .1-1.2.4-.4.2-.6.6-.4 1 0 .4.6 1 1 1.2.5.3 1.1.5 1.7.5.3 0 .7.1.9.4.5.1 1.7.5 1.7-.1 0-.4-.4-.9-.5-1.4-.4-.8-1.1-1.3-1.8-1.6-.1 0 0 0 0 0zm13.7-12.6c.1-.1.7-.5.7-.9 0-.7-1.2-.7-1.7-.5-.3 0-.7.1-.9.4-.4.1-.5 1-.5 1.4-.1.3-.1.6-.1.9 0 .4-.1.5-.1.9 0 .1.1.9.1 1 .1.5.5 1 .9 1s.5-.4.7-.5c.4-.5.1-1.4.4-2.1 0-.1.1-.3.1-.4V40c-.3-.4.1-.4.4-.5zm-10.8 9.6c.5 0 1.4-.1 1.4-.5 0-.3-.1-.7-.4-.9-.4-.4-.7-.5-1-.9-.4-.3-1-.5-1.6-.5-.4 0-.6.3-.7.7 0 .1.4.5.5.6l.5.5c.7.5.8 1 1.3 1zm19-13.3c.5 0 1.2 0 1.2-.4s-.4-.6-.6-.9c-.6-.2-1.1-.3-1.7-.4-.4.1-.7.6-.5 1-.1 1 .8.7 1.6.7zm-16.3 2.4c.1.1.6.1.9.1.3 0 .5-.4.9-.6.4-.3.5-.5.5-1s-.4-.5-.7-.5c-.3 0-.5.4-1 .5-.5.1-.9.4-.9.6-.2.5.1.6.3.9-.1 0 0 0 0 0zm2.8 13c.1.4.5.7.7.9.6.3 1.3 0 1.5-.6.1-.3.1-.6 0-.8-.2-.5-.5-1-1-1.2-.5-.4-.9-1.2-1.6-1-.6.1-.4 1-.1 1.7.2.6.5.7.5 1zm24.6 9.2l.5-.5.5-.5c.1-.1.1-.5.4-.6.1-.4.4-.5.4-.9s-.3-.7-.7-.7c-.1 0-.2 0-.3.1-.5.2-.9.5-1.2.9-.1.1-.5.5-.5.7-.2.5-.3.9-.4 1.4-.1.1.7.2 1.3.1zm1.8-20.3c-.4-.5-1.7-.7-2.3-.7-.4 0-.6.5-.5 1.2 0 .1.4.4.5.5.1.1.5.4.7.5.5.6.6 1.7 1.2 2.1.1.1 1 .6 1.4.4.4-.3 0-.5-.1-.9-.2-.2-.4-.6-.4-.9 0-.1.1-.5.1-.7-.1-.5-.3-1-.6-1.5.1 0 0 0 0 0zm-7 12.4c.3 0 .5-.2.6-.4l.5-.5c.1-.4.1-1.4.4-1.7.3-.3.5-.6.7-1 .2-.3.5-.5.9-.7.1-.1.5-.4.7-.5.1-.1.5-.4.5-.6 0-.5-.5-.5-.7-1-.1-.5.1-.7 0-1.2s-1.6-.7-1.7 0c-.1.5-.1 1 0 1.6 0 .4-.1.9-.1 1-.4.9-1.4 1.2-1.7 1.8v.7c-.1.2-.1.4-.1.7-.2.7-.2 1.6 0 1.8zm-6.6-23.8c.4.1 1 .4 1.4.1.4-.3.8-.7.9-1.2 0-.4-.5-.7-.9-.9-.5-.1-1-.1-1.5-.1-.4 0-.9.1-.9.5s.1.9.4 1c0 .3.5.6.6.6zm1.9 13h-.9c-.4-.1-.7-.7-1-1-.4-.1-.6-.4-1-.5-.4-.4-1-.6-1.6-.5-.5.1-1 .5-1 1 0 .4.5.5.9.5.9.1 1.8.6 2.2 1.4.1.1.1.4.4.5l.5.5c.5.4 1.2.1 1.4.9 0 .3 0 .6.1.9.1.4.5.7.6 1.2 0 .3 0 .6.1.9.1.3.3.5.7.5.7 0 .5-2.2.5-2.8-.1-.9-.4-1.9-1-2.6-.3-.5-.6-.9-.9-.9.1 0 0 0 0 0zm-4.2 15.1c.1.4.4.9.7.9.7.1 1-.5 1.2-.9.5-.7.9-1.4 1.2-2.2.1-.4.5-.7.7-1 .1-.4.5-1.7-.1-1.8-.7-.1-.9.5-1 .7-.1.1-.6.7-1 .7s-.7-.5-.9-.7c-.4-.4-.7-.7-.7-.9-.1-.5-.4-1.7-1-1.6-.4 0-.9 1-.9 1.2 0 .4.1.7.4 1 .1.3.3.6.5.9.3.3.6.7.9 1 .1.4-.1.9 0 1.4-.4.4-.3.9 0 1.3zM77 41c.1-.1.5-.4.5-.7 0-.3 0-.6-.1-.9-.1-.8-.5-1.6-1.2-2.1h-.9c-.6.1-1.7.5-1.4 1.4.1.5.6.5 1 .9.2.3.4.6.5.9.1.4.4.7.6.7.4.3.7 0 1-.2zm-2.2-6.5h1.4c.4 0 .9.5 1.2.5.3 0 .7 0 1-.1l.5-.5c.4-.5 1-.7 1.6-.6.5.1 1 .3 1.4.5.3.2.5.6.5.9 0 .5-.4.5-.5 1-.1.5.1 1.2.5 1.2s.6-.1.9-.1c.3-.1.7-.2 1-.1.5.5.8 1.1.9 1.7.1.5.4 1.7.9 1.7s.7-.7.7-1.4c0-.5 0-.9-.1-1.4-.1-.9-.1-.9-.5-1.4-.3-.4-.6-.8-1-1.2-.4-.2-.7-.5-.9-.9-.4-.5-.5-1.2-.9-1.7-.3-.5-.8-1-1.4-1.2-.5-.1-.9-.1-1.4-.1-.4 0-.7.4-1 .5-.4.1-.6.5-.9.6-.3.4-.6.7-1 .9-.5 0-.6-.4-1-.7l-.9-.9c-.1 0-.9-.1-1-.1-.4 0-.7.4-.9.7-.3.5-.3 1.2 0 1.7 0 .2.4.4.9.5z"/></g></svg>