<svg xmlns="http://www.w3.org/2000/svg" width="627" height="627" version="1.0"><path d="M0 313.5V42h627v543H0z" fill="#007701"/><path d="M422 482.91c29.108-1.015 42.304-2.908 59.5-8.536 35.56-11.637 56.284-32.836 69.283-70.874 7.323-21.427 10.208-35.25 12.21-58.5 1.269-14.74 1.308-83.39.051-89.7-.526-2.64-2.154-11.065-3.62-18.721-4.858-25.391-11.317-42.664-21.655-57.91-5.739-8.464-22.013-24.14-29.755-28.661-7.55-4.41-26.914-12.292-36.829-14.992-17.646-4.805-31.283-5.134-234.185-5.641-103.675-.26-190.075-.563-192-.674l-3.5-.201-.269 23.431c-.148 12.887.09 23.79.528 24.228.438.438 25.984 1.087 56.769 1.443 30.784.355 56.197.854 56.472 1.108.275.253.324 68.304.11 151.222l-.39 150.761 2.39.64c1.314.352 18.027.646 37.14.653L229 482l.009-3.25c.392-138.171 1.751-298.844 2.534-299.627.343-.342 42.549-.623 93.79-.623 102.014 0 97.876-.227 111.957 6.131 12.163 5.492 25.187 17.05 30.591 27.147 1.876 3.505 6.866 19.272 9.074 28.673 4.012 17.077 6.297 47.136 5.553 73.049-.812 28.323-1.896 37.687-6.998 60.456-7.697 34.343-21.79 50.957-49.01 57.775-8.49 2.127-94.339 3.108-95.657 1.093-.484-.742-.574-52.233-.202-117.074l.664-115.75H255l-.121 25.75c-.067 14.162-.216 32.275-.332 40.25-.607 41.812-.666 215.215-.073 215.808.38.38 28.892.81 63.359.954 56.284.235 70.075.395 76.667.888 1.1.082 13.475-.251 27.5-.74z" fill="#fff"/></svg>