<svg xmlns="http://www.w3.org/2000/svg" version="1.1" id="Layer_1" x="0" y="0" xml:space="preserve" width="30.2" height="30.2"><style type="text/css" id="style290">.st0{fill:#ee1c2e}</style><g id="g349" transform="translate(3.25 -30.8)"><path id="XMLID_24_" class="st0" d="M1.3 30.8h22v4.8c-1.6-1.3-4.9-1.8-8.4-1.8v13.1c0 1.9.2 2.5.9 3.5h-7c.7-1 .9-1.5.9-3.5V33.7c-3.5 0-6.8.5-8.4 1.8z" fill="#ee1c2e"/><path id="XMLID_23_" class="st0" d="M1.3 30.8h22v4.8c-1.6-1.3-4.9-1.8-8.4-1.8v13.1c0 1.9.2 2.5.9 3.5h-7c.7-1 .9-1.5.9-3.5V33.7c-3.5 0-6.8.5-8.4 1.8z" fill="#ee1c2e"/><path id="XMLID_22_" class="st0" d="M1.3 30.8h22v4.8c-1.6-1.3-4.9-1.8-8.4-1.8v13.1c0 1.9.2 2.5.9 3.5h-7c.7-1 .9-1.5.9-3.5V33.7c-3.5 0-6.8.5-8.4 1.8z" fill="#ee1c2e"/><path id="XMLID_21_" class="st0" d="M1.3 30.8h22v4.8c-1.6-1.3-4.9-1.8-8.4-1.8v13.1c0 1.9.2 2.5.9 3.5h-7c.7-1 .9-1.5.9-3.5V33.7c-3.5 0-6.8.5-8.4 1.8z" fill="#ee1c2e"/><path id="XMLID_1_" d="M8.6 55.6h13.3v.1c-1.5.7-3.6 2.8-3.6 2.8-1.6 1.5-2.7 2.5-5.2 2.5H.5s-.1 0-.1-.1v-.1c1.4-.8 3.5-2.9 3.5-2.9.9-1 2.6-2.3 4.7-2.3" fill="#00539f"/></g></svg>