<svg xmlns="http://www.w3.org/2000/svg" version="1.1" id="Layer_1" x="0" y="0" width="40.1" height="40.1" xml:space="preserve"><style type="text/css" id="style466"></style><linearGradient id="SVGID_1_" gradientUnits="userSpaceOnUse" x1="2.33" y1="7.63" x2="35.54" y2="7.63" gradientTransform="matrix(1 0 0 -1 0 42)"><stop offset="0" id="stop472" stop-color="#14b1e7"/><stop offset=".16" id="stop474" stop-color="#13abe2"/><stop offset=".37" id="stop476" stop-color="#0f9bd3"/><stop offset=".61" id="stop478" stop-color="#0980bc"/><stop offset=".86" id="stop480" stop-color="#015a9b"/><stop offset=".9" id="stop482" stop-color="#005495"/></linearGradient><linearGradient id="SVGID_2_" gradientUnits="userSpaceOnUse" x1="6.955" y1="3" x2="6.955" y2="36.2" gradientTransform="matrix(1 0 0 -1 0 42)"><stop offset="0" id="stop505" stop-color="#0082bd"/><stop offset=".39" id="stop507" stop-color="#0070ad"/><stop offset=".85" id="stop509" stop-color="#005495"/></linearGradient><linearGradient id="SVGID_3_" gradientUnits="userSpaceOnUse" x1="2.33" y1="7.63" x2="35.54" y2="7.63" gradientTransform="matrix(1 0 0 -1 0 42)"><stop offset="0" id="stop514" stop-color="#14b1e7"/><stop offset=".16" id="stop516" stop-color="#13abe2"/><stop offset=".37" id="stop518" stop-color="#0f9bd3"/><stop offset=".61" id="stop520" stop-color="#0980bc"/><stop offset=".86" id="stop522" stop-color="#015a9b"/><stop offset=".9" id="stop524" stop-color="#005495"/></linearGradient><linearGradient id="SVGID_4_" gradientUnits="userSpaceOnUse" x1="20.31" y1="20.99" x2="38.325" y2="39.005" gradientTransform="matrix(1 0 0 -1 0 42)"><stop offset=".1" id="stop529" stop-color="#9ddcf9"/><stop offset=".9" id="stop531" stop-color="#00c3ff"/></linearGradient><g id="g548" transform="translate(-.3 -.95)"><path id="path470" d="M23.3 41c2.6 0 5.1-1 6.9-2.9l7.4-7.4c1.8-1.8 2.8-4.2 2.8-6.7V1h-23c-2.6 0-5.1 1-6.9 2.9l-7.4 7.4C1.3 13.1.3 15.5.3 18v23z" fill="#fff"/><path id="path485" d="M35.3 29.7c-1.4.8-3 1.2-4.6 1.2H10.4L2.3 39h21c2 0 4-.8 5.4-2.3l6.8-6.8z" fill="url(#SVGID_1_)"/><path id="path512" d="M11.6 6c-.8 1.4-1.2 3-1.2 4.6v20.3L2.3 39V18c0-2 .8-4 2.3-5.4l6.8-6.8z" fill="url(#SVGID_2_)"/><path id="path527" d="M35.3 29.7c-1.4.8-3 1.2-4.6 1.2H10.4L2.3 39h21c2 0 4-.8 5.4-2.3l6.8-6.8z" fill="url(#SVGID_3_)"/><path id="path534" d="M20 3c-4.2 0-7.6 3.4-7.6 7.6v2.6h15.8V29h2.5c4.2 0 7.6-3.4 7.6-7.6V3z" fill="url(#SVGID_4_)"/></g></svg>