<svg xmlns="http://www.w3.org/2000/svg" width="36.7" height="36.7"><path d="M36.7 19.198c0-4.9-1.8-9.5-5.1-13.1-1.7-1.8-3.6-3.3-5.8-4.4l-.5.8c1.2.7 2.3 1.6 3.3 2.6 3.4 3.5 5.3 8.1 5.4 13 0 .7 0 1.9-.1 2.9-.6-2.1-1.7-4-3.2-5.6-.5-.6-1-1.1-1.7-1.4-.1 1.5-.4 3-.8 4.5.6.4 1.1.9 1.6 1.4 1.3 1.2 2.1 2.9 2.2 4.7 0 .9-.4 1.8-1.1 2.4-1 .8-2.2 1.2-3.5 1.2-1.9-.1-3.8-.7-5.4-1.8 2.5-2.5 4.3-5.6 5.1-9 .4-1.5.6-3 .6-4.6 0-2.6-.6-5.2-1.9-7.5-1.7-3.2-5-5.2-8.6-5.2-4.5.1-8.8 2.1-11.8 5.4-3.4 3.3-5.4 7.9-5.4 12.7 0 .8 0 1.6.1 2.4H1c0-4.8 1.9-9.3 5.4-12.6 1.8-1.7 3.8-3.2 6.1-4.2-1.6 1.5-2.7 3.5-3.3 5.6-.2.7-.3 1.4-.3 2.1 1.4-.7 2.8-1.2 4.3-1.5.2-2.1 1.1-4 2.5-5.6.7-.7 1.6-1.2 2.6-1.2 1.6.1 3 1.1 3.7 2.5.9 1.7 1.3 3.7 1.1 5.6-3.4-1.1-7-1.1-10.4 0-2.9.7-5.5 2.2-7.6 4.3-2.2 2.1-3.5 4.9-3.7 7.9.1 3 1.4 5.8 3.6 7.8 3.6 3.4 8.3 5.4 13.3 5.3 3.9 0 7.6-1.2 10.8-3.4l-.2-.6c-2.5 1.4-5.3 2.1-8.2 2.1-4.4.1-8.6-1.3-12.1-3.9.9.3 1.9.5 2.9.5 1.9 0 3.8-.4 5.5-1.2-1.3-.9-2.5-1.9-3.5-3-1.3.5-2.8.9-4.2.9-1.4.1-2.7-.4-3.7-1.3-.6-.6-.9-1.4-.9-2.3.1-1.7.9-3.4 2.2-4.5.8-.9 1.8-1.6 2.9-2.1.9 3.4 2.7 6.6 5.2 9.1 2.9 3 6.9 4.8 11.1 5 2.7.1 5.3-.9 7.2-2.7 2.2-2.8 3.4-6.4 3.4-10m-13.9-3c-.9 2.8-2.5 5.3-4.6 7.4-2-2.2-3.3-4.8-4-7.7 1.2-.3 2.4-.4 3.6-.4 1.7 0 3.4.3 5 .7" fill="#00937b"/></svg>