<svg xmlns="http://www.w3.org/2000/svg" viewBox="-6318 -51 59.43 41.792" width="59.43" height="41.792"><path d="M-6318-51h59.43v41.792H-6318z" fill="#fff"/><path d="M-6258.57-16.636h-22.572l-1.333 7.428h23.905zm-59.43 0v7.428h23.905l-1.6-7.428z" fill="#f60"/><path d="M-6306.314-33.922l-1.755-7.613h14.82l4.82 21.775h.2l3-13.884c1.51-6.364 2.088-7.89 10.664-7.89h6.154s-1.244 5.878-2.8 12.264c-.6 2.43-5.732 2.152-5.488-.116.022-.23.267-1.944.467-3.17.29-1.76-1.666-1.967-2.022-.23l-2.4 13.05h22.084v-31.24H-6318v31.24h21.573l-3.044-14.185z" fill="#0066b3"/></svg>