<svg xmlns="http://www.w3.org/2000/svg" width="336.377962112427" height="336.377962112427" viewBox="0 0 89 89" fill="#1c3f99" xmlns:v="https://vecta.io/nano"><path d="M44.496 5.845v.003c.422 0 .846-.04 1.26.012.332.042.482-.103.62-.35.5-.876.305-1.976-.48-2.666a2.085 2.085 0 0 0-2.66-.105 2.122 2.122 0 0 0-.683 2.623c.157.35.338.57.8.496.374-.064.77-.013 1.153-.013m5.42 41.47c.001-3-2.387-5.423-5.33-5.428-3.088-.006-5.487 2.372-5.516 5.414-.025 2.68 2.096 5.463 5.45 5.44 3.572-.023 5.508-3.042 5.394-5.426M10.148 38.5l-3.04-.845-.453 1.953 3.12.625-.186.93-3.126-.585-.294 2.07 3.124.4-.138.936-3.082-.357-.147 1.46c-.04.344.096.497.437.576l1.817.515L12 47.3l-.57.194-4.336 1.25c-1.314.375-1.315.372-1.064 1.733.005.03.032.06.08.148l3.054-.17.067.92-3.125.254.216 1.642c.032.422.18.535.603.445l2.594-.457.156.94-2.622.474c-.152.03-.397.245-.383.343.082.56.23 1.1.36 1.688l3.076-.748.25.912-3.08.792.592 1.918 3.04-1.023.3.888-3.02 1.07.6 1.497c.12.346.288.4.627.256l2.476-1.06.373.88-2.876 1.244.23.54c.554 1.188.553 1.18 1.822.863l4.976-1.23-4.43 4.592.587.902c.197.357.4.408.736.153l2.158-1.46.547.785-2.57 1.756 1.354 1.7 2.386-1.988.6.74L15.44 72.7l1.35 1.458L19.078 72l.637.692-2.17 2.238 1.407 1.3 2.093-2.374.718.625-2.06 2.397 1.224 1c.32.295.5.215.742-.1l1.564-2.07.75.594-1.85 2.476 1.24.85c.23.17.38.14.577-.056l2.198-2.118 2.136-2.048-1.418 5.765c-.04.16-.001.452.105.52.387.25.818.428 1.25.64l1.342-2.78.855.428-1.13 2.37c-.145.3-.1.444.206.556l1.267.508c.303.138.427.048.53-.258l.893-2.5.894.315-1 2.923 1.9.592.87-3.045.907.3-.698 2.535c-.04.154-.002.468.066.487.573.175 1.16.297 1.766.44l.604-3.136.92.2a2235.06 2235.06 0 0 1-.558 3.121l1.887.272c.07.007.218-.2.238-.32.066-.38.083-.766.128-1.148l.217-1.686.916.176-.335 3.105 1.4.126c.33.04.458-.097.542-.407l.936-3.28.66-2.278 1.46 4.7c.412 1.413.414 1.412 1.868 1.157.032-.007.058-.035.145-.1l-.2-2.946.926-.107.273 3.067 1.867-.264c.304-.046.267-.253.224-.477l-.487-2.594c.135-.03.24-.038.333-.074.433-.16.666-.103.718.442.07.695.232 1.38.387 2.062.032.136.236.353.33.337L54 84.777l-.76-3.033.907-.237.813 3.022 1.9-.593-1.046-3.015.9-.302 1.082 2.992 1.94-.78-1.25-2.907.88-.364 1.267 2.862 1.323-.656c.13-.077.246-.336.218-.484-.114-.6-.3-1.188-.437-1.782l-1-4.06.374.334 3.872 3.72c.132.126.422.257.544.197.4-.2.757-.488 1.164-.765l-1.7-2.5.8-.518 1.7 2.46 1.7-1.346-1.956-2.314.74-.606 1.97 2.284 1.575-1.48-2.32-2.023.78-.808 2.125 2.25 1.35-1.46-2.367-2.044.64-.7 2.38 2.015 1.298-1.636-2.497-1.863.585-.763 2.484 1.827.784-1.127c.23-.292.204-.495-.065-.755l-1.874-1.92-2.197-2.288.27.036 5.504 1.35c.15.036.417 0 .477-.1.245-.397.43-.83.656-1.288l-2.726-1.322.428-.853 2.718 1.282.788-2.026-2.844-1.028.32-.87.513.156 1.986.684c.124.038.393-.017.422-.094l.536-1.674-2.593-.724c-.286-.075-.4-.2-.282-.483l.193-.545 2.524.687c.14.034.432-.044.458-.127.16-.547.266-1.1.4-1.7l-3.036-.586c.08-.944.035-.985.944-.8l2.277.405.248-1.592c.096-.42-.06-.513-.44-.546l-2.52-.292c-.082-.938-.01-.995.825-.874l2.275.27.127-1.346c.046-.36-.08-.518-.446-.617L77.58 47.48c-.154-.046-.305-.1-.573-.207l4.808-1.386c1.387-.404 1.387-.407 1.148-1.84-.01-.047-.043-.1-.087-.18l-2.923.206-.044-.934 2.975-.266-.328-2.145-2.92.53-.1-.274c-.142-.435-.115-.716.46-.775.676-.07 1.34-.256 2.012-.362.3-.046.354-.185.298-.43l-.378-1.6-2.363.6c-.502.16-.725.04-.762-.473-.006-.084-.04-.167-.072-.3l2.938-.797-.405-1.38c-.1-.4-.262-.534-.694-.36l-2.394.847c-.4-.88-.4-.88.428-1.175l2.157-.76-.78-1.938-2.83 1.207-.367-.877 2.78-1.227-.428-.93c-.358-.73-.36-.727-1.166-.526l-5.392 1.338L77 26.497l-.912-1.36-2.486 1.697-.528-.803 2.442-1.692-1.345-1.704-2.283 1.93-.63-.714 2.266-1.968-1.4-1.533-2 2.282-.052-.228-.796-.56 2.227-2.13-1.467-1.34-2.024 2.342-.72-.623 2.002-2.376-1.635-1.285-1.85 2.47-.768-.573 1.822-2.482-1.535-1.047-4.552 4.382.04-.274 1.337-5.45c.038-.157.02-.435-.076-.496-.376-.24-.794-.412-1.234-.627l-1.37 2.763-.847-.44 1.324-2.736-2.018-.82-1.052 2.832c-.945-.205-.947-.205-.636-1.063l.76-2.098-1.903-.597-.872 2.976-.908-.27.828-2.966-1.956-.445-.44 2.22c-.227 1.047-.02.845-.997.685-.026-.004-.047-.048-.1-.094l.56-3.012-2.067-.274-.4 3.012-.938-.084.3-2.647c.044-.326-.055-.43-.377-.457-1.47-.118-1.473-.126-1.875 1.272l-.766 2.73.652.106.01 4.287c.005.338.115.68.216 1.007l1.5 4.85c.297 1.144-.438 1.98-1.63 2.074l-.58.055c.397.418.78.735 1.057 1.127 1.273 1.817 1.634 3.844 1.263 6.006-.12.703-.44 1.302-1.358 1.388 1.1.778 1.717 1.746 1.707 3.044s-.67 2.24-1.746 2.985l.412.148c2.482.75 4.188 2.34 5.122 4.752.12.3.284.364.586.36 2.002-.027 3.963.113 5.527 1.616.294-1.273.603-1.475 1.92-1.233.4.075.867.102 1.214.303 1.13.652 2.348.585 3.57.57l2.106-.001h1.8v2.07h-.662c-1.685.001-3.37-.004-5.054.007-.237.002-.478.07-.707.14l-2.296.702c-1.3.274-1.63.024-1.888-1.2-1.045.894-1.665 1.227-3.065 1.445-.8.123-1.604.132-2.4.14-.352.003-.515.093-.644.435-.743 1.958-2.05 3.454-3.98 4.26-.828.346-1.02.758-.963 1.57a6.973 6.973 0 0 1-.62 3.43c-.24.524-.607 1-.9 1.474 1.077.065 1.172.322 1.223 1.334a.664.664 0 0 1-.014.21l-.718 2.5c-.073.265-.177.535-.18.804l-.01 4.054c0 .183-.023.368-.036.538h-2.04l-.013-4.343c-.008-.403-.15-.807-.258-1.203l-.64-2.264c-.2-1.08.13-1.463 1.213-1.616.02-.003.033-.05.05-.076l-.132.065c-.36-.707-.862-1.377-1.04-2.125-.267-1.112-.336-2.275-.418-3.422-.03-.4-.115-.568-.488-.714-1.984-.78-3.47-2.127-4.27-4.1-.276-.68-.622-.834-1.303-.816-1.833.048-3.597-.218-5-1.564-.247 1.17-.63 1.432-1.833 1.2-.55-.1-1.138-.164-1.618-.42-.835-.443-1.696-.486-2.595-.458l-1.42.003h-1.026v-2.07l3.623-.008c.233-.003.467-.1.697-.163.922-.256 1.83-.6 2.767-.752.84-.138 1.112.153 1.297.986.022.094.055.186.1.33.76-.88 1.743-1.257 2.787-1.433a16.24 16.24 0 0 1 2.613-.205c.445-.003.634-.133.796-.535.935-2.3 2.595-3.826 4.974-4.56.153-.047.3-.113.525-.197-1.086-.764-1.706-1.702-1.715-2.988-.008-1.3.6-2.252 1.686-3-.667-.168-.9-.64-1.027-1.163-.46-1.9-.253-3.77.58-5.532.317-.672.845-1.247 1.275-1.863l-.393-.044c-1.22-.2-1.688-.754-1.56-1.987.082-.795.336-1.57.47-2.362.214-1.26 1.054-2.337 1.1-3.64l.01-3.844c0-.134.028-.266.042-.386l.603-.1-1.095-3.806c-.036-.118-.248-.26-.38-.257-.395.001-.8.066-1.246.113l.17 3.077h-.92l-.25-3.017-2.15.32.515 3.027-.934.153-.473-2.582c-.03-.14-.22-.372-.304-.36-.564.1-1.116.236-1.717.374l.736 3.027-.922.196-.77-2.977-1.916.598.74 2.157c.3.854.287.856-.64 1.1L31.327 11l-1.934.78 1.194 2.852-.882.36-1.218-2.82-1.414.7c-.124.076-.226.33-.204.484.065.43.2.85.304 1.275l1.087 4.4-.08.045-4.466-4.302-1.313.9 1.724 2.594-.804.516-1.726-2.54-1.708 1.355 1.967 2.366-.736.6-1.987-2.34-1.462 1.34 2.155 2.27-.667.624-2.227-2.16-1.33 1.434 2.366 2.074-.636.715-2.378-2.045-1.3 1.64 2.465 1.878-.592.75-2.462-1.836L12 26.5l4.365 4.544-.263-.02-5.452-1.35c-.16-.04-.442.012-.516.123-.228.343-.382.734-.6 1.157l2.818 1.403-.46.832-2.78-1.336-.82 2.02 2.926 1.086-.324.887-2.938-1.043-.596 1.903 3.016.882-.24.914M45.128.213l.385.138a4.234 4.234 0 0 1 3.094 5.104l-.12.545 2.916.438c6.112 1 11.723 3.286 16.77 6.867 9.064 6.428 14.754 15.107 17.03 25.995.673 3.22.9 6.495.742 9.78-.52 10.13-4.2 18.97-11.088 26.42-5.822 6.284-12.955 10.357-21.3 12.278a39.234 39.234 0 0 1-11.017.949c-10.228-.57-19.114-4.34-26.562-11.383C9.572 71.287 5.526 63.9 3.8 55.25c-.357-1.795-.46-3.643-.687-5.466-.016-.133-.07-.26-.1-.388v-4.212c.04-.128.096-.252.113-.382.263-1.994.382-4.018.803-5.978C6.063 28.902 11.17 20.8 19.153 14.55c5.45-4.268 11.62-6.965 18.454-8.112.962-.16 1.93-.3 2.922-.435l-.108-.488c-.563-2.304.777-4.556 3.072-5.16.13-.034.255-.093.383-.14M17.458 46.576l-1.1 2.833-.63 1.668c-.077.182-.258.32-.392.476-.136-.154-.333-.285-.4-.464a449.94 449.94 0 0 1-2.098-5.767c-.24-.678-.48-1.33-1.33-1.446-.07-.01-.12-.158-.237-.322h3.86l.088.112c-.126.092-.24.22-.38.27-.407.14-.54.355-.386.793l1.37 4.112.354-.768c.23-.586.4-1.2.7-1.757.395-.723.117-1.32-.23-1.905-.118-.198-.413-.3-.622-.437l-.4-.304.087-.156 3.517.007c.078 0 .156.094.234.143-.07.08-.128.193-.218.23-.717.306-.724.303-.5 1.035l1.057 3.24c.05.157.12.308.214.55l.2-.45 1.143-3.488c.16-.463.08-.734-.426-.85-.122-.027-.22-.162-.328-.248.126-.054.25-.15.375-.154a53.554 53.554 0 0 1 2.052-.004c.103.002.204.08.306.12-.084.088-.157.23-.254.25-.538.1-.77.5-.94.96a710.811 710.811 0 0 1-2.244 6.215c-.068.184-.252.324-.383.484-.137-.17-.327-.322-.4-.517L17.74 47.2c-.062-.172-.153-.335-.28-.613m55.007 4.1c.894 0 1.708.075 2.498-.034.346-.047.653-.454.948-.728.15-.14.2-.37.352-.52.108-.112.283-.162.428-.24l.087.106-.6 1.875c-.04.113-.287.212-.44.212l-2.574-.066-3.15.068c-.14.001-.28-.1-.42-.168.127-.094.24-.237.38-.275.796-.2.797-.206.807-1.022l.06-4.363a4.44 4.44 0 0 0-.02-.525c-.098-.882-.1-.878-.977-1.12-.092-.025-.164-.13-.245-.198.087-.057.175-.162.263-.162l6.315-.008.15 1.9a4.73 4.73 0 0 1-.125.108c-.13-.118-.315-.212-.38-.358-.447-1.03-.438-1.034-1.585-1.034-.456 0-.913-.017-1.368.016-.127.01-.346.166-.35.263l-.015 2.487 1.017.08c.607.003 1.102-.16 1.2-.88.015-.097.198-.17.304-.256.046.1.128.22.13.332l.015 2.204c-.001.1-.102.22-.157.33-.1-.078-.214-.14-.267-.236-.156-.28-.23-.77-.432-.825-.526-.14-1.103-.103-1.662-.1-.062 0-.18.17-.18.262l-.008 2.896M46.898 73.322c-.448.2-.52-.07-.588-.37-.147-.655-.448-1.174-1.176-1.324-.623-.127-1.266.142-1.473.638-.22.522-.044 1.086.533 1.443.594.366 1.236.653 1.847.993.587.328 1.032.78 1.168 1.473.294 1.478-.573 2.802-2.074 2.964-.888.097-1.805-.038-2.707-.095-.317-.02-.48-.2-.437-.563l.1-1.57c.01-.102.137-.26.222-.268s.237.113.28.213c.15.35.224.738.402 1.074.32.605 1.105.853 1.787.614.578-.203.976-.802.768-1.422-.137-.406-.492-.793-.848-1.055-.472-.348-1.047-.558-1.568-.843-.9-.495-1.308-1.257-1.127-2.275.165-.94.776-1.5 1.67-1.765.995-.295 1.978-.175 2.945.124.117.037.257.23.264.355l.012 1.66m13.305-.033l-1.03.6-5-8.635 1.026-.606 4.994 8.64m1.655-15.284l.595-1.032 8.653 4.993-.604 1.027-8.644-4.988m-43.355 5l-.6-1.03 8.64-4.988L27.15 58l-8.646 4.994m15.294 1.65l1.022.612-4.98 8.625-1.037-.583 4.995-8.654m-5-43.33l1.028-.602 4.988 8.63-1.02.612-4.996-8.64m33.653 16.3l-.6-1.028 8.643-5 .604 1.027-8.647 5m-44.554-4.987l.593-1.033 8.65 4.992-.6 1.028-8.64-4.987m36.27-3.28l4.992-8.64 1.034.587-5 8.642-1.037-.6M44.493 44.63c1.464-.014 2.687 1.188 2.707 2.657.02 1.442-1.205 2.7-2.66 2.7-1.476.02-2.744-1.23-2.73-2.7a2.701 2.701 0 0 1 2.684-2.676"/></svg>