<svg xmlns="http://www.w3.org/2000/svg" viewBox="0 0 17.26 19.704"><path d="M17.259 5.3v-.01a.73.73 0 0 0-.222-.523l-.022-.02c-.016-.013-.03-.027-.047-.04l-.05-.033-.023-.015L9.005.104a.73.73 0 0 0-.757.004L.365 4.658l-.007.005a.72.72 0 0 0-.036.023L.305 4.7a.75.75 0 0 0-.123.112.729.729 0 0 0-.182.48v9.122c0 .278.156.52.385.643l7.88 4.55.02.01a.71.71 0 0 0 .136.056l.033.01.059.011.028.005a.728.728 0 0 0 .177 0l.029-.005a.724.724 0 0 0 .06-.011l.032-.01a.707.707 0 0 0 .136-.056l.02-.01 7.88-4.55a.73.73 0 0 0 .385-.643V5.319l-.001-.018zM3.092 4.995l5.367-3.099a.343.343 0 0 1 .343 0l5.366 3.099a.343.343 0 0 1 0 .594L8.802 8.687a.343.343 0 0 1-.343 0L3.092 5.588a.343.343 0 0 1 0-.594zM7.701 16.77a.343.343 0 0 1-.514.296L1.83 13.975a.343.343 0 0 1-.172-.297V7.494c0-.263.286-.428.514-.296L7.53 10.29a.343.343 0 0 1 .171.297v6.184zm7.9-3.093a.343.343 0 0 1-.171.297l-5.356 3.092a.343.343 0 0 1-.514-.296v-6.184c0-.123.065-.236.171-.297l5.356-3.092a.343.343 0 0 1 .514.296z"/></svg>