<svg xmlns="http://www.w3.org/2000/svg" xml:space="preserve" viewBox="0 0 45.77 45.77"><defs><clipPath id="a" clipPathUnits="userSpaceOnUse"><path d="M0 0h34.33v34.33H0Z"/></clipPath></defs><g clip-path="url(#a)" transform="matrix(1 0 0 -1 0 45.77)"><path fill="#2e9fe6" d="M27.3 15.31c-.08-.07-.35-.13-.56-.19l-6.84-1.86c-.21-.06-.39.07-.39.3v1.76a.4.4 0 0 1-.4.4h-7.5a.4.4 0 0 0-.4.4v2.06a.4.4 0 0 1-.4.4H7.2a.26.26 0 0 0-.27.26c0 .08.04.14.08.18.08.07.35.13.57.19l6.8 1.86c.22.06.4-.07.4-.3V19c0-.22.18-.4.4-.4h7.5a.4.4 0 0 0 .4-.41v-2.03c0-.23.18-.4.4-.4h3.64c.14 0 .25-.12.25-.26a.23.23 0 0 0-.08-.18m-4.21-3.27a.56.56 0 0 0-.4-.5l-2.79-.77c-.21-.06-.39.07-.39.3v1.04c0 .22.19.4.4.4h2.77a.4.4 0 0 0 .4-.4zm-8.31-2.27a.56.56 0 0 0-.39-.5l-2.8-.77c-.2-.06-.38.07-.38.3v5.37c0 .23.18.4.4.4h2.76a.4.4 0 0 0 .41-.4zM11.2 22.24c0 .22.17.45.39.5l2.79.77c.21.06.39-.07.39-.3v-1.04a.4.4 0 0 0-.4-.4H11.6a.4.4 0 0 0-.4.4zm8.3 2.27c0 .22.18.45.4.51l2.79.76c.21.06.39-.07.39-.3V20.1a.4.4 0 0 0-.4-.4h-2.77a.4.4 0 0 0-.4.4zm-2.35 9.83A17.18 17.18 0 0 1 17.16 0c9.47 0 17.17 7.7 17.17 17.16 0 9.47-7.7 17.17-17.17 17.17"/></g></svg>