<svg xmlns="http://www.w3.org/2000/svg" viewBox="0 0 34 34"><circle cx="17" cy="17" r="17" fill="#2e9fe6"/><path fill="#fff" d="M22.69 8.35c-.05 0-.1 0-.15.02l-2.79.76a.57.57 0 0 0-.4.5l.01 4.42c0 .22.18.4.4.4h2.77a.4.4 0 0 0 .4-.4V8.66c0-.17-.1-.28-.24-.3zm-8.31 2.27c-.05 0-.1 0-.15.02l-2.79.76a.53.53 0 0 0-.39.5v.07c0 .23.18.4.4.4h2.77a.4.4 0 0 0 .4-.4v-1.04c0-.17-.1-.28-.24-.3zm0 2.44-.15.01-6.8 1.86c-.22.06-.49.13-.57.2a.25.25 0 0 0-.08.18c0 .14.12.26.27.25h3.6a.4.4 0 0 1 .41.4v2.07c0 .22.18.4.4.4h7.5c.22 0 .4.17.4.4v1.75c0 .23.18.37.4.3l6.83-1.85c.21-.06.48-.13.56-.2h-.01a.23.23 0 0 0 .08-.19.26.26 0 0 0-.25-.25h-3.64a.4.4 0 0 1-.4-.4v-2.03a.4.4 0 0 0-.4-.41h-7.5a.4.4 0 0 1-.4-.4v-1.77c0-.18-.1-.3-.24-.32zm-2.93 6.5a.4.4 0 0 0-.4.4v5.37c0 .23.18.37.38.3l2.8-.76a.56.56 0 0 0 .39-.5v-4.4a.4.4 0 0 0-.41-.4zm8.3 2.07a.4.4 0 0 0-.4.4v1.03c0 .23.18.37.39.3l2.79-.77a.56.56 0 0 0 .4-.5v-.06a.4.4 0 0 0-.41-.4z"/></svg>
