<svg xmlns="http://www.w3.org/2000/svg" width="96.657" height="96.657"><defs><clipPath clipPathUnits="userSpaceOnUse" id="a"><path d="M85.352 721.773c-9.88 5.993-21.782 9.079-35.77 9.079-14.61 0-26.508-3.086-35.715-9.079C4.672 715.723 0 707.809 0 698.23V39.488C0 31.133 4.781 23.543 14.36 16.5 23.87 9.445 35.59 5.926 49.581 5.926c13.371 0 25.094 3.52 35.277 10.574 10.125 6.977 15.278 14.633 15.278 22.988v658.684c0 9.637-4.907 17.426-14.785 23.601" clip-rule="evenodd"/></clipPath><clipPath clipPathUnits="userSpaceOnUse" id="b"><path d="M0 0h390v740H0z"/></clipPath><clipPath clipPathUnits="userSpaceOnUse" id="c"><path d="M167.875 376.086c-6.008-5.621-8.59-14.16-7.477-25.828 1.032-11.555 6.375-22.559 15.829-32.938 9.5-10.449 20.121-16.996 32.269-19.777 11.969-2.715 21.051-1.234 27.059 4.328l53.015 33.067V39.488c0-8.355 4.602-15.945 13.922-22.988 9.082-7.055 20.75-10.574 34.738-10.574 13.989 0 26.071 3.52 36.2 10.574 10.183 7.043 15.277 14.633 15.277 22.988v397.219c0 9.645-4.973 17.422-14.785 23.418-9.824 6.117-22.027 9.09-36.692 9.09-14.605 0-26.328-2.973-35.289-9.09l-134.066-84.039" clip-rule="evenodd"/></clipPath><clipPath clipPathUnits="userSpaceOnUse" id="d"><path d="M0 0h390v740H0z"/></clipPath></defs><g clip-path="url(#a)" transform="matrix(.13333 0 0 -.13333 22.415 97.447)"><g clip-path="url(#b)"><path d="M0 0h175.137v805.852H0z" fill="#0d0d0c"/></g></g><g clip-path="url(#c)" transform="matrix(.13333 0 0 -.13333 22.415 97.447)"><g clip-path="url(#d)"><path d="M85.144 0h378.563v544.215H85.144z" fill="#0d0d0c"/></g></g></svg>