<svg xmlns="http://www.w3.org/2000/svg" viewBox="0 0 27.1 30.8"><path d="m27.1 8.3c0-0.3-0.1-0.6-0.3-0.8l-0.1-0.1s-0.1 0-0.1-0.1l-12.5-7.1h-0.1c-0.1-0.2-0.3-0.2-0.5-0.2-0.1 0-0.2 0-0.3 0.1-0.1 0-0.1 0.1-0.2 0.1l-12.4 7.1c-0.2 0.1-0.3 0.2-0.3 0.2-0.2 0.2-0.3 0.5-0.3 0.8v14.3c0 0.4 0.2 0.8 0.6 1l12.4 7.1h0.1c0.1 0 0.1 0.1 0.2 0.1h0.2 0.2c0.1 0 0.1 0 0.2-0.1h0.1l12.4-7.1c0.4-0.2 0.6-0.6 0.6-1l0.1-14.3zm-22.2-0.5 8.4-4.8c0.2-0.1 0.4-0.1 0.5 0l8.4 4.9c0.4 0.1 0.4 0.7 0 0.9l-8.4 4.9c-0.2 0.1-0.4 0.1-0.5 0l-8.4-4.9c-0.4-0.2-0.4-0.8 0-1zm7.2 18.5c0 0.4-0.4 0.7-0.8 0.5l-8.4-4.9c-0.2-0.1-0.3-0.3-0.3-0.4v-9.7c0-0.4 0.4-0.7 0.8-0.5l8.4 4.9c0.2 0.1 0.3 0.3 0.3 0.5zm12.4-4.8c0 0.2-0.1 0.4-0.3 0.5l-8.4 4.9c-0.4 0.2-0.8-0.1-0.8-0.5v-9.7c0-0.2 0.1-0.4 0.3-0.5l8.4-4.9c0.4-0.2 0.8 0.1 0.8 0.5z" fill="#9FEF00"/></svg>