<svg xmlns="http://www.w3.org/2000/svg" width="81" height="81"><g fill="#005eb8"><path d="M9.094 39.168H4.058v-6.064H.624v14.792h3.434v-5.608h5.036v5.608h3.455V33.104H9.094v6.064M32.025 33.104H28.57v14.792h8.814v-3.12h-5.36V33.104M38.987 47.896h3.496V33.104h-3.496zM47.908 36.224h6.509v-3.12h-9.963v14.792h3.454v-5.608h5.393v-3.12h-5.393v-2.944M18.985 42.288l1.574-5.002 1.575 5.002zm-.315-9.184l-5.002 14.792h3.55l.847-2.688h4.989l.846 2.688h3.55l-4.996-14.792zM58.677 42.288l1.575-5.002 1.574 5.002zm21.325-9.184h-3.92l-2.783 4.47-2.784-4.47h-3.92L71.42 40.5l-4.464 6.843-4.81-14.239h-3.784L53.36 47.896h3.551l.846-2.688h4.989l.846 2.688h6.923l2.784-4.469 2.784 4.469h3.92L75.177 40.5zM44.454 30.184L29.67 14.567H.314l16.221 15.617h27.919M16.535 50.816L.314 66.433H29.67l14.783-15.617H16.535M64.465 50.816H47.958l-5.785 6.111 9.156 9.506h29.357L64.465 50.816M51.33 14.567l-9.157 9.506 5.784 6.11h16.508l16.221-15.616H51.33"/></g></svg>