<svg xmlns="http://www.w3.org/2000/svg" viewBox="0 0 138 143.6" fill="#8f1840"><path d="M134.2 84.3a26.6 26.6 0 0 0-6.7-7.6 26.6 26.6 0 0 0-11.1-44.6 26.6 26.6 0 0 0-51.8-12.3 26.5 26.5 0 0 0-31.8 19 26.6 26.6 0 0 0-13.6 51.4 26.5 26.5 0 0 0 34 30.9 26.6 26.6 0 0 0 52 2.7 25.9 25.9 0 0 0 6.1.8 26.7 26.7 0 0 0 23-40.3zm-119-12.7a13.4 13.4 0 1 1 18.4 4.6 13.4 13.4 0 0 1-18.4-4.6zm37 35.6a13.4 13.4 0 1 1 4.6-18.4 13.4 13.4 0 0 1-4.6 18.4zM47 52.5a13.4 13.4 0 1 1 18.4 4.7A13.4 13.4 0 0 1 47 52.5zm23.2 12.7a13.4 13.4 0 1 1-4.7 18.4 13.4 13.4 0 0 1 4.7-18.4zm16.2 63.3a13.4 13.4 0 1 1 4.6-18.4 13.4 13.4 0 0 1-4.6 18.4zm-7.6-95a13.4 13.4 0 1 1 18.4 4.7 13.4 13.4 0 0 1-18.4-4.7zM102 46.3a13.4 13.4 0 1 1-4.7 18.4 13.4 13.4 0 0 1 4.7-18.5zm16.2 63.3a13.4 13.4 0 1 1 4.7-18.4 13.4 13.4 0 0 1-4.7 18.4z"/></svg>
