<svg xmlns="http://www.w3.org/2000/svg" width="360" height="360"><defs><linearGradient x1="436" y1="256" x2="76" y2="256" id="a" gradientUnits="userSpaceOnUse"><stop stop-color="#0080BB" offset="0%"/><stop stop-color="#005C9B" offset="100%"/></linearGradient></defs><g fill-rule="evenodd"><path fill="#fff" d="M0 52.068h360v249.356H0z"/><path d="M436 200.491c-8.087-1.79-16.085-2.37-22.52-2.37-31.83 0-64.827 6.717-69.5 54.314h39.42c1.17-9.052 4.672-21.608 25.113-21.608 10.511 0 26.864.875 26.864 18.103 0 8.76-7.883 11.389-14.308 12.264l-36.792 5.55c-25.988 3.794-45.26 19.274-45.26 49.64 0 32.123 23.944 45.261 47.305 45.261 27.205 0 40.366-12.357 49.678-21.92V422c0 7.732-6.268 14-14 14H90c-7.732 0-14-6.268-14-14V90c0-7.732 6.268-14 14-14h332c7.732 0 14 6.268 14 14zM187.176 263.53h81.763v94.027h43.803V147.895h-43.803v79.427h-81.763v-79.427h-43.8v209.662h43.8zm248.204 18.397v19.86c0 18.98-18.397 30.659-36.5 30.659-7.886 0-18.983-4.383-18.983-18.69 0-16.935 12.555-20.732 27.741-23.363 16.939-2.627 23.653-5.255 27.742-8.466z" fill="url(#a)" fill-rule="nonzero" transform="translate(-76 -76)"/></g></svg>