<svg xmlns="http://www.w3.org/2000/svg" width="3169" height="3169"><g transform="translate(215.55)"><path fill="#0f9d58" d="M2737.9 1368.4C2737.9 612.7 2124.1 0 1368.4 0S0 612.7 0 1368.4c0 715.9 652.5 1296.4 1368.4 1296.4V3169c831.5-421.7 1369.5-1100.3 1369.5-1800.6z"/><linearGradient id="a" gradientUnits="userSpaceOnUse" x1="1385.269" y1="1856.731" x2="2323.13" y2="918.87" gradientTransform="matrix(1 0 0 -1 0 3170)"><stop offset="0" stop-color="#263238"/><stop offset="1" stop-opacity="0"/></linearGradient><path opacity=".2" fill="url(#a)" d="M2052.6 1008.3l-396.1 396.1-396.1-396.1-576.2 576.2L1919 2819.3c415.6-328.3 697-732.4 787.3-1157.3z"/><path fill="#eee" d="M1476.5 1008.3v576.2h324.1v324.1c141.3 0 252.1-180.1 252.1-360.1v-540.2zM684.2 1008.3v576.2h324.1v324.1c141.3 0 252.1-180.1 252.1-360.1v-540.2z"/><path opacity=".4" fill="#fff" d="M684.2 1008.3h576.2v18H684.2zm792.3 0h576.2v18h-576.2z"/><path opacity=".2" fill="#263238" d="M1800.6 1908.6v18c141.3 0 252.1-180.1 252.1-360.1v-18c-.1 180-110.8 360.1-252.1 360.1zm0-324.1h-324.1v18h324.1zm-792.3 324.1l17.1 17.1c133.1-13.7 235-186.5 235-359.2v-18c0 180-110.7 360.1-252.1 360.1zm0-324.1H684.2v18h324.1z"/><path opacity=".2" fill="#fff" d="M1368.4 18c755.7 0 1368.4 612.7 1368.4 1368.4h.7c0-5.9.4-12.1.4-18h-1.1C2736.8 612.7 2124.1 0 1368.4 0S0 612.7 0 1368.4c0 2.9.2 5.6.2 8.5C5.4 625.5 615.8 18 1368.4 18z"/><path opacity=".2" fill="#263238" d="M1368.4 2664.8v-18C655.2 2646.8 5.4 2071 .2 1358.9c0 3.2-.2 6.3-.2 9.5 0 715.9 652.5 1296.4 1368.4 1296.4zm1368.4-1296.4c-9.2 693.8-544.1 1364.5-1368.4 1782.5v18c831.5-421.6 1368.4-1100.2 1368.4-1800.5z"/></g></svg>