<svg xmlns="http://www.w3.org/2000/svg" xmlns:xlink="http://www.w3.org/1999/xlink" width="69.985" height="69.985"><style>.B{fill-rule:evenodd}.C{fill:#fff}.D{stroke:#1f1f1f}.E{stroke-width:.172}</style><g transform="translate(5.589)"><path fill="#a31e33" stroke="#000" d="M.5.5v21.748c1.977 34.048 26.842 46.146 29.095 47.17 25.912-16.468 28.712-38.464 28.712-47.17V.5z" class="B"/><g id="A" class="B"><path d="M16.326 28.58s-.522 1.663-2.844-.047l-7.962-.19s-1.043.334-1.185-.758l.093-2.37s.05-.617-.994-.617c0 0-1.6.193-1.657-1.23 0 0-.285-1.52 1.942-1.47 0 0 .71.33.758-.57l-.05-6.638s.194-.562-.9-.658c0 0-1.566.328-1.752-.715 0 0-.096-1.56.946-1.658 0 0 1.28.097 1.518-.233 0 0 .284.185.236-.953l.048-1.94s.142-.522.946-.474c0 0 1.47.093 1.662-.048 0 0 .332-.425.422-.617 0 0 .762-.043.904.142 0 0 1.136.758 5.453.475 0 0 .66 0 .804.2 0 0 .804.615 1.277-.05 0 0 .71-.14 2.845-.093 0 0 2.32.614 3.932-.708l.52.094s.662 1.088 1.14.756c0 0 1.42-.142 1.66.144 0 0 .473.7.234 2.56 0 0-.283.806 1.1.806 0 0 1.564-.283 1.375 1.182 0 0 .428 1.66-2.18 1.424 0 0-.333.475-.286.806l-.094 6.02s-.046.85 1.09.806c0 0 1.516-.1 1.563 1.28 0 0 .188 1.8-2 1.468 0 0-.664.097-.76.52l-.094 2.37s.05 1.186-1.282.903c-.19 0-7.39.14-8.008-.046 0 0-.33-.05-.426.137"/><path d="M7.37 9.056l.096 1.183-.144 13.697s.144 1.045-.758 1.565c0 0-.236.098-.285-.567l.095-14.218s.095-1.754.996-1.66M5.805 25.644l.047-13.604c-.047-.235.047.2.047.2s-.14-2.318.473-3.27c0 0-.2-.807-1.278.188l-.046 1.946s0 1.1-.996 1.043c0 0-1.14-.05-1.663.474 0 0-.282 1.04.807.854 0 0 1.707 0 1.8.706l-.094 7.16s.38 1.184-.948 1.184c0 0-1.6-.093-1.566.902 0 0 .334.854 1.7.57 0 0 .995.2.95 1.135v1.803s-.098.713.85.756h7.394s.378.05.378-.428c0 0-.048-.374-.615-.374l-6.158-.097s-1 .332-1.093-1.137m1.29.093s-.188.666.52.52h4.882l1.327.283s1.378-.33 0-1.088c0 0-4.36.047-4.74-.047l-1.1-.284s-.475-.2-.9.615m8.77.2s.425-.473.7-.473c0 0 4.74.427 5.544-.14 0 0 .713-.14.9 0 0 0 .7.567.7.897 0 0-.045.43-.898.193l-5.64.046s-1.47.33-1.327-.523m-.652.477s-.903 0-.856 1.18c0 0 .094.903 1.042.903 0 0 .854-.145.76-1.088 0 0-.523-1.2-.945-.996M8.076 8.626L7.938 23.84s-.047.707 1.137.85c0 0 1.376.145 1.705 0 0 0 .9-.045 3.223.05 0 0 .57.567.616-.143 0 0 .38-12.323.2-14.883 0 0-.048-1.1-.856-1.137 0 0-3.6.283-3.93 0L8.6 8.2s-.57.046-.525.427M16.6 27.35s0-.375.66-.375l6.64-.05s.614.33.614-.805c0 0 .243-5.168.266-10.858.008-1.692.082-3.468.02-5.114 0 0-.143-.708-.333-.855 0 0 0-.757.8-.47 0 0 .708.046.518 1.134l.05 1.66s-.144.7 1.135.522c0 0 1.28.187 1.326.663 0 0 .38.95-1.133.852h-1.1s-.475.283-.334.854l-.14 6.872s-.098 1.182 1.042 1.14c0 0 1.185-.05 1.42.33 0 0 .806 1.186-.948 1.1 0 0-1.088-.047-1.327.14 0 0-.187.24-.33 2.463 0 0 .095 1.33-.902 1.188 0 0-6.585.092-7.2-.05 0 0-.665.192-.76-.33m6.5-18.163l-.048 14.975s.38 1.328.997 1.187c0 0 .094-.285.14-.76l.2-14.265S23.9 8.06 23.103 9.2m-7.533.125l-.097 7.395-.1 6.02-.2 2.083s.28.428.52.144c0 0 1.518-.378 2.465-.237 0 0 3.036.287 3.65-.2 0 0 .474.235.617-.522l.095-13.506s.2-1.897.093-2.084c0 0-.05-.43-.852-.052 0 0 .094.382-4.407.24 0 0-1.706-.047-1.8.7" class="C"/></g><use xlink:href="#A" x="28.198"/><g class="B"><path d="M45.483 13.68c-.144-.38.806-.426.806-.426l.474.095c.332-.05.665.094.665.094.33.52-.24.806-.24.806l-.188.616c-.05.523 0 5.026 0 5.026.094.233.474.66.474.66 0 .427-.523.334-.523.334l-1.375.047c-.426-.047-.283-.523-.283-.523.472-.236.615-1.092.615-1.092v-4.7zm-6.35.663l.045 2.466c.903.71 1.423-.286 1.423-.286 1.183-1.135 0-2.18-.19-2.463s-1.138-.05-1.138-.05zm-.047 3.747L39 19.56l.425.708c.286.38-.2.667-.2.667L37.7 20.8c-.283-.142 0-.615 0-.615.38-.236.425-.854.425-.854l-.045-2.75.045-1.99c0-.236-.378-.662-.378-.662-.33-.046-.236-.473-.236-.473.094-.237.898-.095.898-.095h1.992c1.896.616 1.612 2 1.612 2 .144 1.374-1.325 1.946-1.325 1.946l-.098.756 1.376 2.178c.238.19.19.382.19.382-.19.52-.95 0-.95 0l-1.705-2.655c-.142-.2-.426.144-.426.144z"/><path fill="#1f1f1f" d="M14.107 13.707l-.428.904s-1.04 4.594-1.608 5.542c0 0-.095.95-.9.19l-1.946-6.017-.615-.43s-.375-.52.285-.566l1.755.045s.567.474-.19 1c0 0 .093.757 1.088 3.647 0 0 .284 1.09.616.285l.95-3.366-.286-.995s-.284-.475.143-.522c0 0 .996-.093 1.137.284m2.75.76l-.05 5.024-.14.377s-.475.617-.144.665c0 0-.423.286 3.032.33 0 0 1.33.236.997-1.47 0 0-.143-.615-.618.285 0 0-.144.756-1.846.52 0 0-.38-.33-.38-.707v-2.086s-.05-.522.757-.47c0 0 .9.564 1.045.324 0 0 .33-.755 0-1.23 0 0-.43-.045-.475.142 0 0-.286.57-1.1.237 0 0-.38-.757-.142-1.374 0 0-.095-1.186.71-1.1 0 0 .947.188 1.04.475 0 0 .235.57.476-.094l-.24-.808s-.137-.33-.376-.237c0 0-1.61.237-1.803.047l-1.28.142s-.187.475.38.7c0 0 .144.097.144.287"/><path d="M29.213 36.502s.33-.14.426-.374c0 0 .995-.098 1.136-.238l3.13.238s3.08.235 4.407-.717c0 0 .477 0 .8.145 0 0 .66.142.848.425l1.803-.05s1.042.336.946 1v.85s-.19 1.708.284 1.803h1.377s1.137.522.996 1.185c0 0 .046.945-.946 1.135 0 0-1 .284-1.327.24 0 0-.335.427-.384.946l-.14 6.2s-.096.663.9.568c0 0 1.467-.14 1.897.667 0 0 .38 1.373-.38 1.6l-.567.282-1.236.194s-.52.046-.567.944v1.66s.047 1.138-.854 1.138l-1.326.097s-.332.28-.995.093l-8.343.045-.95.194s-1.04.947-1.894.233l-.664-.522s-.472.095-.66.05-8.912.096-8.912.096-1.85.2-1.99-.428l-.143-2.704s0-.708-.427-.757c0 0-1.848-.092-1.895-.285 0 0-.997-.71-.712-1.418 0 0 .333-.952 1.33-1.045 0 0 1.515.24 1.515-.19 0 0 .097-.285.097-.756l.046-6.022s.14-.71-.475-.71c0 0-.663.188-1.09-.095 0 0-1.136.05-1.374-.854 0 0-.19-.567.094-1.045 0 0 .52-1.04 2.038-.708 0 0 .853.24.947-.376l-.045-2.277s-.192-.615.994-.948c0 0 1.517.426 1.99-.332 0 0 .522-1.044.945-.334 0 0 .904.855 3.37.764l4.36-.147s1.042.147 1.326.475z"/><g class="C"><path d="M30.446 55.13s.57-.288.95-.187c.38.09 5.924-.05 5.924-.05s2.416.188 2.795-.146l.566-.19s.24-.282.24-.66l.047-1.66.144-.47s-.047-.477 0-13.134c0 0 .187-.99-.43-1.61 0 0 0-.377.19-.33s.095.05.095.05.853-.24.993.09c0 0 .383 1.134.048 1.8 0 0-.094 1.377.62 1.377 0 0 .283.286.85.142 0 0 1.233.144 1.233.52 0 0 0 .855-.854.712l-1.14.093s-.76.15-.662 1.043c.096.902-.05 7.348-.05 7.348s0 .76 1.187.715c0 0 1.47-.05 1.47.375 0 0 .378.95-.663.998 0 0-1.993-.05-1.848.518l-.24 1.564s.192 1.092-.047 1.28c0 0-.14.617-1.42.52 0 0-8.15-.044-9.432.047 0 0-.76-.09-.57-.756m-1.468-.9s.806.14.806.9.047 1.184-.43 1.28-.993-.047-1.133-.66c-.145-.62.09-1.38.756-1.52"/><path d="M29.924 53.85s.852-.572 1.184-.474c0 0 4.314.283 5.642.05s.52-.05.52-.05 1.138 0 1.467-.428c0 0 .334-.09.523.238l.708.762s.05.47-.755.423l-7.962.048s-1.47.236-1.328-.57"/></g></g><path d="M29.924 53.85s.852-.572 1.184-.474c0 0 4.314.283 5.642.05s.52-.05.52-.05 1.138 0 1.467-.428c0 0 .334-.09.523.238l.708.762s.05.47-.755.423l-7.962.048s-1.47.236-1.328-.57z" fill="none" class="D E"/><path d="M18.693 37.025s.33 0 .285.57l-.098 14.313s.144.95-.662 1.565c0 0-.43.52-.43-.285l.193-14.597s.046-1.09.71-1.566" class="B C"/><path d="M18.693 37.025s.33 0 .285.57l-.098 14.313s.144.95-.662 1.565c0 0-.43.52-.43-.285l.193-14.597s.046-1.09.71-1.566z" fill="none" class="D E"/><g class="B C"><path d="M17.935 37.122s-.57 1.042-.522 1.28l-.047 3.173v2.275c.047.237-.048 6.2-.048 6.2v4.076s-.094 1.136.757.85l8.865-.043s.756.14.475.52c0 0 0 .332-.525.236 0 0-3.934.377-7.486.238 0 0-2.37.14-2.514-.142 0 0-.378-.046-.378-1.423 0 0 0-1.277-.092-1.514 0 0 .092-.672-1.092-.81 0 0-1.657.287-1.706-.708 0 0 .236-.712 1.848-.618 0 0 1.185.19.95-.76l.14-7s.145-1.236-.664-1.285c0 0-.755-.04-.996.05 0 0-1.374 0-1.278-.802 0 0 .474-.854 1.848-.665 0 0 1.042.188 1.1-.994 0 0-.048-2.418.52-2.51 0 0 1.186.043.854.378"/><use xlink:href="#C"/></g><use xlink:href="#C" fill="none" class="D E"/><use xlink:href="#D" class="B C"/><use xlink:href="#D" fill="none" class="D E"/><g class="B"><path d="M28.74 45.696s.047 1.135-.098 2.225c-.077.596.19 3.37-.048 4.79 0 0-.043.473-1.042.05 0 0-6.065.14-6.254-.05 0 0-1.66.05-1.802-.805l.096-6.736v-3.88l.046-3.65s.047-.758-.093-1.14c0 0 0-.474.805-.19 0 0 .28.524 1.847.29 0 0 1.14.187 2.23.044 0 0 2.416-.2 3.034 0 0 0 .948-.2 1.23.855l-.048 2.94.285.946.334-.234.14-.712.047-3.13s.19-.57.95-.664c0 0 1.185-.144 1.378-.044.187.09 2.745.233 3.46.09.708-.142.848.474 2.983-.613 0 0 .57.046.57.422v4.8l-.146 7.912.097 2.37s.093 1.043-1.562 1.14c0 0 1.042.14-5.5-.047 0 0-1.042-.05-2.18.47 0 0-.235-.046-.235-.66 0 0 .186-2.225 0-4.41l-.094-2.414z" class="C"/><path d="M24.474 42.333v3.982l-.044.758s.188.52.473.71c0 0 .238.662-.334.617l-1.467-.052s-.666 0 0-.848c0 0 .235-.335.187-1.186l.098-4.217s.093-.522-.24-.666l-.57.047-.708.665s-.145.713-.478-.046v-.38l.43-1.137.286-.05s.424.286.804.382h2.23l.804-.382s.33.05.238.475c0 0 .14 1.092-.475 1.232 0 0-.38-.14-.567-.662 0 0-.62-.33-.667.757m10.473-1.277s-1.797-.145-1.844 1.8c0 0-.194 1.33 1.8 2.182 0 0 1.47.71 1.373 1.61 0 0-.19 1.613-1.755.805 0 0-.756-.38-.707-.805 0 0-.24-.523-.523-.425 0 0-.334.093-.188 1.656 0 0 0 .617.71 0l.376.097s1.28 1.042 2.37-.238c0 0 1.187-1.1.332-2.416 0 0-.615-.947-1.704-1.42 0 0-1.044-.477-1.28-1.282 0 0 .333-1.423 1.61-.666 0 0 .476.57.76.666 0 0 .38 0 .283-.855l-.09-.707s-.096-.528-.76 0c0 0-.617.233-.76 0m-6.536 2.13l-.382 1.565.284.475 1.042.045c.283 0 .333-.232.333-.475 0-.235-.52-1.656-.52-1.656l-.24-.283zm.756-3.13c.33.24.378.712.378.712.95 2.513 1.755 6.163 1.755 6.163.236.47.663.854.663.854.806.282 0 .518 0 .518-.332.144-1.42-.044-1.42-.044-.57-.1-.336-.284-.336-.284.24-.24.048-1.2.048-1.2-.048-.376-.47-.992-.47-.992-.2-.096-.522.33-.522.33s-.52.19-.57 0-.378-.375-.378-.375c-.568 0-.804 1.417-.804 1.417.33 1.187 0 .994 0 .994-.285.382-1.186.1-1.186.1-.425-.1-.14-.43-.14-.43.52-.092.66-.663.66-.663.24-.33 1.753-6.492 1.753-6.492.146-.287.24-.853.57-.617z"/></g></g><defs><path id="C" d="M19.355 52.808a2.42 2.42 0 001.756.665l6.44.092s.714.05.67.427c0 0-.1.566-.95.38l-7.774-.094-.854.05s-.57-.098.335-1.188z"/><path id="D" d="M39.26 52.188s.57 1.09.854 1.24c0 0 .52.612.38-.477l.096-13.654s-.143-.473 0-1.23l-.57-1.043s-.618-.472-.618.286l-.093 14.55z"/></defs></svg>