<svg xmlns="http://www.w3.org/2000/svg" height="75.5" width="75.5"><defs><linearGradient id="a" spreadMethod="pad" gradientTransform="scale(-31.95078) rotate(87.7 -.935 -6.139)" gradientUnits="userSpaceOnUse" y2="0" x2="1" y1="0" x1="0"><stop offset="0" stop-color="#d2068a"/><stop offset=".737" stop-color="#413691"/><stop offset="1" stop-color="#413691"/></linearGradient><clipPath id="b" clipPathUnits="userSpaceOnUse"><path d="M180.013 76.442h101.178v87.501H180.013z"/></clipPath></defs><path d="M43.699 27.928c-1.242 3.89-1.678 7.56-1.27 11.863 0 .005 0 .012.002.018l.002.032c.248 2.578.796 5.38 1.655 8.594.695 2.606.92 5.2.828 7.688-.6 6.388-4.481 11.192-9.143 13.882l-.006-.004.006.003c.336-2.872.232-6.3-.525-10.488-.988-5.464-3.048-7.27-3.34-7.636-.019-.023-.039-.043-.03-.068.006-.019.06-.043.078-.055 1.72-1.076 3.224-2.377 3.93-2.977.54-.46.327-.667-.213-.419-1.442.662-3.852 1.506-6.904 1.884-2.682.33-5.862.29-9.322-.378 0 0-2.424-.36-2.067-2.826.099-.69.447-1.398.724-2.085.088-.217.32-.885.195-1.427-.032-.136-.204-.385-.304-.54-.179-.273-.244-.65-.059-1.09.159-.374.796-.92 1.693-1.007 1.022-.096 2.283.052 3.248-.119 1.407-.25 2.247-1.202 2.08-1.514-.11-.208-1.364.044-1.79.129-.628.125-1.77-.381-2.367-.576-.928-.303-1.41-.544-2.213-.201-.502.214-.896 1.224-1.036.754-.066-.217.058-.454.232-.71.162-.242.489-.696.534-.954.051-.292.12-.705-.688-1.278-.573-.404-.966-.734-1.209-.98-.775-.783-.91-1.592.576-2.855 1.061-.904 3.404-3.323 4.116-4.8.113-.232.679-1.156.057-2.081-.478-.712-.565-.85-.69-1.092-.344-.664-.098-1.254.468-2.14.276-.431.492-.955 1.082-2.803a14.206 14.206 0 013.163-5.425l-.004.002.005-.004c.11-.093 1.758-1.918 3.622-2.466.458.748 1.409 1.769 3.318 2.745 1.95.997 4.096 1.552 4.096 1.552s2.678.768 5.39 1.74c2.164.773 4.418 3.58 4.418 4.16 0 1.197-1.176 2.315-2.338 5.952" fill="#fff"/><path d="M207.328 140.531c0-11.551 8.272-21.148 19.153-23.064a24.914 24.914 0 00-.32-2.247c-.747-3.697-3.279-7.096-4.649-7.902 3.662.317 6.573 1.412 8.307 3.129h-.004c-.122-.001-1.268.013-1.369.015.692.266 1.376.592 2.039.974l.001.001.001.006.004-.003c.252 2.154.174 4.726-.394 7.867-.74 4.097-2.285 5.453-2.505 5.726-.014.018-.029.033-.022.051.005.015.045.032.059.041 1.29.808 2.418 1.783 2.947 2.233.405.345.245.5-.16.314-1.082-.496-2.888-1.129-5.178-1.413-2.012-.248-4.397-.218-6.992.285 0 0-1.817.268-1.549 2.118.073.518.334 1.049.542 1.564.066.162.24.664.146 1.07-.023.102-.152.289-.228.405-.134.205-.182.488-.043.819.118.279.596.689 1.27.754.332.031.699.029 1.067.025.478-.004.959-.008 1.369.065 1.054.186 1.684.901 1.56 1.135-.084.156-1.024-.033-1.344-.097-.47-.094-1.326.287-1.774.432-.696.227-1.058.408-1.661.151-.375-.161-.671-.918-.777-.566-.048.163.044.341.174.533.122.181.367.522.402.716.037.218.09.528-.516.957-.43.305-.726.551-.908.737-.581.585-.682 1.192.433 2.141.795.677 2.552 2.491 3.087 3.599.084.174.509.867.043 1.561-.359.534-.424.637-.518.819-.258.498-.074.941.35 1.604.207.324.369.717.812 2.102a10.63 10.63 0 002.373 4.069h-.003c.075.226.204 2.009 1.243 3.671a9.187 9.187 0 001.409 1.999c.416.447 1.07.966 1.932 1.466.862.5 1.929.981 3.171 1.351 1.491.445 3.231.732 5.164.703 1.444-.021 2.819-.135 4.454-.573l.003-.001c.007-.002.076-.02.195-.055a22.836 22.836 0 01-9.643 2.125c-12.787 0-23.153-10.481-23.153-23.412m9.242-2.884c-.03-.077.042-.116.131-.159.428-.199.626-.301 1.395-.762.899-.539 1.29-.093 1.482.251.054.093.134.475.046.61-.088.135-.253.048-.427-.122-.196-.191-.674-.088-.834-.071-.158.018-.892.203-1.37.303a1.066 1.066 0 01-.222.026c-.122 0-.185-.033-.201-.076" fill="url(#a)" transform="matrix(1.33333 0 0 -1.33333 -271.549 218.59)"/><g clip-path="url(#b)" transform="matrix(1.33333 0 0 -1.33333 -271.549 218.59)"><path d="M227.093 148.467c-.116.035-3.183.708-4.2.641-1.016-.065-1.892-.658-2.427-1.269a1.948 1.948 0 01-.471-.949c-.045-.49.307-.723.722-.59.303.096.525.312.838.777.192.286.308.65.604.837.489.31 1.329.387 2.7.351 1.05-.028 1.897-.08 2.104-.089.382-.017.295.24.13.291" fill="#413691"/><path d="M225.32 145.619c-.574.339-1.345.32-1.496.348-.15.028-.18.18.047.29.31.152.891.026.912.124.02.085-.113.302-.555.47-.238.092-.69.153-1.019.119-.942-.1-1.444-.685-1.55-.793-.106-.107-.266-.27-.307-.517-.055-.328.155-.581.355-.906.102-.164.192-.284.225-.408.047-.177.016-.25-.13-.364-.166-.13-.069-.356.263-.264.375.106.58.212.863.45.404.34.397.558.68.84.281.282 1.17.28 1.626.216.537-.075.66.057.085.395" fill="#413691"/><path d="M253.875 141.247c-.01 1.042-.303 3.122-.35 3.578-.127 1.26-.43 3.013-1.397 5.435-1.056 2.639-1.91 4.501-4.494 7.05-3.044 3.002-6.631 4.246-7.497 4.504-.128.039-.2.057-.208.059l-.002.001c-1.636.438-3.011.552-4.454.573-5.156.077-8.94-2.089-10.267-3.52a9.153 9.153 0 01-1.41-1.999c-1.038-1.662-1.167-3.445-1.242-3.672l.003.003c.08.07 1.318 1.439 2.716 1.85.344-.561 1.057-1.327 2.489-2.059 1.462-.748 3.07-1.163 3.07-1.163s2.01-.577 4.044-1.305c1.623-.581 3.314-2.686 3.314-3.12 0-.898-.882-1.736-1.754-4.465-.932-2.917-1.258-5.67-.953-8.897 0-.004 0-.009.002-.013 0-.008 0-.017.002-.025.186-1.932.597-4.035 1.24-6.445.522-1.955.69-3.901.622-5.766-.451-4.791-3.361-8.394-6.857-10.412l-.005.004v-.006a14.576 14.576 0 00-2.041-.975 120.04 120.04 0 011.369-.014c2.936.034 7.09.601 10.65 4.333 1.229 1.288 2.192 2.635 2.8 3.905.249.531 1.308 2.416 1.907 6.158.079.5.343 2.108.343 2.108s.166-1.145.187-2.167c.027-1.402.079-3.164-.754-5.836.283.062 1.67 1.095 3.313 3.319.6.812 1.154 1.66 1.66 2.535 2.36 3.695 4.036 8.098 3.954 16.444" fill="#413691"/><path d="M241.135 149.427c-.016-.16.04-.218.185-.101.64.515 1.7 1.303 3.145 1.562 1.728.309 2.707 1.153 3.158 2.108.27.574.488 1.606 1.33 2.224.267.197-.006.267-.229.226-.21-.038-1.352-.346-2.095-1.16-.495.53-.459 1.257-.389 1.678.032.125-.066.215-.232.079-.566-.456-.944-1.06-1.067-1.496 0 0-.45.324-.219 1.139.04.136-.055.085-.104.05-.813-.593-.743-1.48-.75-1.6 0 0-.82.455-2.078.628-.218.837-1.559 1.057-1.779.199-.199-.778 1.095-1.37 1.645-.724 0 0 1.772-.186 3.346-1.761.16-.16.212-.288.113-.38-.073-.068-.3.07-.577.262-.312.217-2.456 1.598-4.31.649-.094-.048-.1-.13-.013-.15.35-.101 1.13-.37 1.326-.88-.495-.13-1.288-.431-1.857-1.603-.148-.304.044-.346.205-.222.193.146 1.35.779 1.783.734 0 0-.392-.574-.537-1.461m14.784 8.833c-.073-.593.111-2.262.567-3.816.48-1.641-.372-3.09-1.847-3.941-.462.716-1.393 1.074-2.22 1.104-.486.018-.353-.18-.114-.28 3.433-1.437 2.222-5.44 1.78-6.29-.454-.867-.346-2.013-.346-2.013-1.067.312-2.046.106-2.907-.03-1.705-.271-2.84.032-3.728.438-.705.323-1.814 1.057-1.983 2.459-.032.256-.197.433-.298-.042-.172-.811-.052-1.801.53-2.424-.636-3.125-6.767-2.897-6.767-2.897-.407 1.349-3.194 1.759-3.824 3.72-.299.93-.054 1.9-.054 1.9 1.603-.385 2.531.387 3.051 1.034.303.378.061.395-.155.257-2.03-1.283-3.92-.001-4.315 1.808-.527 1.979-2.456 2.64-2.456 2.64 1.405.885 1.01 2.414 1.741 3.708 1.927 3.41 4.668 2.389 4.668 2.389.265-.81 1.073-1.394 1.867-1.634.463-.14.39.09.18.24-1.947 1.403-1.466 3.636.067 4.678 2.674 1.82 3.132 2.609 3.132 2.609.491-.372 1.793-.695 3.164-.816 3.07-.273 3.793-1.872 3.855-2.482-.362-.191-.98-.766-1.268-1.684-.144-.462.088-.39.241-.182 1.195 1.637 2.667 1.329 4.048.696.872-.401 2.136-1.421 3.391-1.15" fill="#ef3138"/></g></svg>