<svg xmlns="http://www.w3.org/2000/svg" fill="none" viewBox="0 0 98 35"><path fill="#003A5E" d="m77.64 4.7 1-4.48C68.04-1.06 64.7 3.13 62.97 11.6l6.25 2.52C70.5 9 70.7 3.8 77.64 4.7ZM11.5 14.75c.78-3.3 2.64-11.12 3.32-14.16H11.2c-1.98 0-3.63 1.21-3.94 2.8L0 34.42h4.38a3.17 3.17 0 0 0 3.1-2.49l.74-3.15c1.12-4.38 1.9-8.72 4.5-11.28a6.96 6.96 0 0 1 4.08-2.15c4.64-.55 4.38 3.18 3.6 6.7-.92 4.12-2 8.47-2.9 12.37h6.83c.65-2.8 1.31-5.53 2.03-8.57 1.02-4.43 2.84-10.28-.2-13.25-3.84-3.76-12.22-.99-14.65 2.15Z"/><path fill="#003A5E" d="m43.86 11.7-1.11 4.74c.55-.37 1.16-.82 2.03-1.01 3.42-.78 5.38 1.76 5.39 4.56.04 5.25-4.55 10.85-9.65 10.8-5.31-.06-3.41-5.51-2.55-9.15 1.68-7.08 3.26-13.9 4.97-21.04h-3.55c-1.97 0-3.62 1.22-3.94 2.8L31.1 21.98c-.5 2.13-1.28 4.94-1.07 7.4.37 3.93 4.18 5.38 7.75 5.58 6.16.38 11.36-1.64 14.75-5.1 3.32-3.41 5.52-9.24 3.98-14.44 1.25.12 2.96.57 5.24 1.28l-4.16 17.73h4.4a3.18 3.18 0 0 0 3.09-2.49l3.14-13.57c6.57 1.33 9.54.04 9.54.04-4.46-.51-10.14-3.43-17.63-5.97-11.8-4.01-16.27-.74-16.27-.74Z"/><path fill="#A0D5D3" d="M97.29 7.67c-.6 2.24-1.26 2.79-2.54 3.37a38.07 38.07 0 0 1-18.09 3.13c7.99-.66 17.6-6.52 21.33-9.3.01 0-.12.54-.7 2.8Z"/><path fill="#00A3B4" d="M94.41 14.15c-6.46 1.79-17.62 2.3-24.58.18 10.34 4.17 16.44 4.01 18.87 3.88 0 0 2.69.01 4.17-1.96 1.4-1.84 1.54-2.1 1.54-2.1Z"/></svg>
