<svg xmlns="http://www.w3.org/2000/svg" fill="none" aria-label="HBF logo" viewBox="0 0 98 35"><g clip-path="url(#a)"><path fill="#003A5E" d="M77.637 4.703 78.642.225c-10.603-1.28-13.94 2.91-15.676 11.374l6.253 2.516c1.28-5.117 1.49-10.312 8.418-9.412ZM11.51 14.748c.78-3.304 2.635-11.12 3.316-14.158h-3.619C9.226.59 7.582 1.8 7.266 3.388L0 34.416l4.378.008a3.174 3.174 0 0 0 3.098-2.489l.745-3.156c1.117-4.38 1.897-8.717 4.504-11.282 1.061-1.048 2.39-1.948 4.076-2.145 4.637-.548 4.384 3.178 3.604 6.707-.927 4.112-2.002 8.463-2.909 12.365l6.83-.008c.654-2.797 1.314-5.525 2.03-8.568 1.027-4.43 2.84-10.278-.189-13.251-3.85-3.754-12.226-.984-14.657 2.15Z"/><path fill="#003A5E" d="M43.86 11.697c-.365 1.547-.71 3.037-1.11 4.745.548-.372 1.16-.822 2.03-1.012 3.422-.78 5.383 1.757 5.39 4.562.035 5.244-4.546 10.846-9.648 10.797-5.312-.056-3.414-5.51-2.557-9.152 1.68-7.079 3.267-13.897 4.975-21.04l-3.55.009c-1.974 0-3.619 1.209-3.942 2.797l-4.35 18.58c-.505 2.13-1.278 4.941-1.067 7.394.365 3.937 4.18 5.378 7.75 5.582 6.155.38 11.362-1.638 14.749-5.097 3.323-3.416 5.523-9.243 3.984-14.445 1.25.12 2.951.57 5.235 1.286l-4.16 17.722 4.392.007a3.18 3.18 0 0 0 3.098-2.489l3.141-13.574c6.57 1.329 9.542.042 9.542.042-4.462-.513-10.139-3.43-17.636-5.968-11.805-4.014-16.267-.745-16.267-.745Z"/><path fill="#A0D5D3" d="M97.29 7.67c-.597 2.242-1.265 2.79-2.536 3.366-4.364 1.947-11.074 3.74-18.094 3.129 7.99-.654 17.602-6.51 21.333-9.3.007 0-.12.548-.703 2.804Z"/><path fill="#00A3B4" d="M94.41 14.15c-6.458 1.786-17.616 2.306-24.58.183 10.344 4.162 16.443 4.007 18.867 3.88 0 0 2.69.008 4.174-1.968 1.39-1.835 1.538-2.095 1.538-2.095Z"/></g><defs><clipPath id="a"><path fill="#fff" d="M0 0h98v35H0z"/></clipPath></defs></svg>
