<svg xmlns="http://www.w3.org/2000/svg" xmlns:xlink="http://www.w3.org/1999/xlink" xml:space="preserve" viewBox="2600 -200 1000 173.3"><linearGradient id="a" x1="3080.6" x2="3700" y1="-104.7" y2="-104.7" gradientTransform="translate(0 .1)" gradientUnits="userSpaceOnUse"><stop offset="0" stop-color="#991eeb"/><stop offset=".4" stop-color="#5822b4"/><stop offset=".7" stop-color="#5822b4"/><stop offset="1" stop-color="#991eeb"/></linearGradient><path d="M2723.2-27.5H2677v-65.7h-29.8v65.7H2600V-197h47.2v63.3h29.8V-197h46v169.5zm211.2.8a86.7 86.7 0 0 0 85.8-87.1 85.4 85.4 0 0 0-85.8-86.1c-47.8 0-72 34.7-77.8 48.9 0-21-21-46-45.3-46h-78.8v169.5h73.3a51 51 0 0 0 50.8-47.8 86.4 86.4 0 0 0 77.8 48.6zm-134.4-69c6.8 0 12.3 6.7 12.3 14.2 0 8-5.5 14.6-12.3 14.6h-23.5v-28.7zm0-63.6c6.8 0 12.3 6.7 12.3 14.2 0 7.6-5.5 14.2-12.3 14.2h-23.5v-28.4zm31 45.5c5.4-.4 14.4-6.7 17.7-10.4-1.3 4.6-1.3 19 0 23.5a35.4 35.4 0 0 0-17.7-13.1zm60.4 0a43.1 43.1 0 1 1 86.3 0 43.1 43.1 0 0 1-86.3 0zm43 34a33.9 33.9 0 1 0-.1-67.9 33.9 33.9 0 0 0 .1 67.9z"/><path fill="url(#a)" d="M3333.2-130.7c-1-45.2-33-69.1-72.2-69.1a73 73 0 0 0-54.1 21.2 73 73 0 0 0-54.1-21.2c-39.2 0-71.2 24-72.2 69.2v103.4a17 17 0 0 0 17.1 17.1h16.2c1.6 0 2.9-1.3 2.9-2.9v-117.4c.7-22.3 16.5-34.1 36-34.1s35.3 11.8 36 34.1v103.1a17 17 0 0 0 17.1 17.1h16.2c1.6 0 2.9-1.3 2.9-2.9v-117.4c.7-22.3 16.5-34.1 36-34.1s35.3 11.8 36 34.1v103.1a17 17 0 0 0 17.1 17.1h16.2c1.6 0 2.9-1.3 2.9-2.9v-117.4c.1.1 0 0 0-.1zm364.7-66.2h-27.5a23 23 0 0 0-19 10.1l-30.4 45a10 10 0 0 1-16.6 0l-30.4-45a22.9 22.9 0 0 0-19-10.1h-27.5a2.1 2.1 0 0 0-1.8 3.3l54.2 80.4a17.2 17.2 0 0 1 0 19.2l-54.2 80.4c-1 1.4.1 3.3 1.8 3.3h27.5a23 23 0 0 0 19-10.1l30.4-45a10 10 0 0 1 16.6 0l30.4 45a22.9 22.9 0 0 0 19 10.1h27.5c1.7 0 2.7-1.9 1.8-3.3l-54.3-80.3a17.2 17.2 0 0 1 0-19.2l54.2-80.4c1-1.4 0-3.4-1.7-3.4zm-184.6 0h-16.2c-8.2 0-15.1 5.8-16.8 13.5a84.8 84.8 0 0 0-52-16.6c-47.4 0-85.9 33-85.9 95.3s38.4 95.3 85.9 95.3c19.4 0 37.3-5.5 51.7-16.3.8 8.7 8.1 15.6 17.1 15.6h16.2c1.6 0 2.9-1.3 2.9-2.9v-181c-.1-1.6-1.3-2.9-2.9-2.9zm-85 152.1c-28.3 0-51.3-20.7-51.3-59.8 0-39.1 23-59.8 51.3-59.8 28.3 0 51.3 20.7 51.3 59.8 0 39.1-23 59.8-51.3 59.8z" transform="matrix(.909 0 0 .909 236.4 -18.2)"/><g transform="matrix(.909 0 0 .909 236.4 -18.1)"><defs><path id="b" d="M3333.2-130.8c-1-45.2-33-69.1-72.2-69.1a73 73 0 0 0-54.1 21.2 73 73 0 0 0-54.1-21.2c-39.2 0-71.2 24-72.2 69.2v103.4a17 17 0 0 0 17.1 17.1h16.2c1.6 0 2.9-1.3 2.9-2.9v-117.4c.7-22.3 16.5-34.1 36-34.1s35.3 11.8 36 34.1v103.1a17 17 0 0 0 17.1 17.1h16.2c1.6 0 2.9-1.3 2.9-2.9v-117.4c.7-22.3 16.5-34.1 36-34.1s35.3 11.8 36 34.1v103.1a17 17 0 0 0 17.1 17.1h16.2c1.6 0 2.9-1.3 2.9-2.9v-117.4c.1.1 0 0 0-.1zm364.7-66.2h-27.5a23 23 0 0 0-19 10.1l-30.4 45a10 10 0 0 1-16.6 0l-30.4-45a22.9 22.9 0 0 0-19-10.1h-27.5a2.1 2.1 0 0 0-1.8 3.3l54.2 80.4a17.2 17.2 0 0 1 0 19.2l-54.2 80.4c-1 1.4.1 3.3 1.8 3.3h27.5a23 23 0 0 0 19-10.1l30.4-45a10 10 0 0 1 16.6 0l30.4 45a22.9 22.9 0 0 0 19 10.1h27.5c1.7 0 2.7-1.9 1.8-3.3L3645.4-94a17.2 17.2 0 0 1 0-19.2l54.2-80.4c1-1.4 0-3.4-1.7-3.4zm-184.6 0h-16.2c-8.2 0-15.1 5.8-16.8 13.5a84.8 84.8 0 0 0-52-16.6c-47.4 0-85.9 33-85.9 95.3s38.4 95.3 85.9 95.3c19.4 0 37.3-5.5 51.7-16.3.8 8.7 8.1 15.6 17.1 15.6h16.2c1.6 0 2.9-1.3 2.9-2.9v-181c-.1-1.6-1.3-2.9-2.9-2.9zm-85 152.1c-28.3 0-51.3-20.7-51.3-59.8 0-39.1 23-59.8 51.3-59.8 28.3 0 51.3 20.7 51.3 59.8 0 39.1-23 59.8-51.3 59.8z"/></defs><clipPath id="d"><use xlink:href="#b" width="100%" height="100%" overflow="visible"/></clipPath><radialGradient id="c" cx="1494.4" cy="-276.4" r="164.6" gradientTransform="matrix(.672 0 0 .8748 2225.5 102)" gradientUnits="userSpaceOnUse"><stop offset="0" stop-color="#7ba7f2" stop-opacity=".5"/><stop offset="1" stop-color="#7ba7f2" stop-opacity="0"/></radialGradient><ellipse cx="3229.7" cy="-139.8" fill="url(#c)" clip-path="url(#d)" rx="110.6" ry="144"/><radialGradient id="e" cx="3339.9" cy="-386.7" r="227.6" gradientTransform="matrix(1 0 0 .7081 0 254)" gradientUnits="userSpaceOnUse"><stop offset=".2" stop-color="#7ba7f2"/><stop offset="1" stop-color="#7ba7f2" stop-opacity="0"/></radialGradient><ellipse cx="3339.9" cy="-19.8" fill="url(#e)" clip-path="url(#d)" rx="227.6" ry="161.1"/><radialGradient id="f" cx="3479.6" cy="-189.2" r="123.8" gradientUnits="userSpaceOnUse"><stop offset="0" stop-color="#7ba7f2"/><stop offset="1" stop-color="#7ba7f2" stop-opacity="0"/></radialGradient><circle cx="3479.6" cy="-189.2" r="123.8" fill="url(#f)" clip-path="url(#d)"/></g></svg>
