<svg xmlns="http://www.w3.org/2000/svg" viewBox="0 0 40.48 29.22"><path fill="#fff" d="M7.44.27v6.08H4.56V.27H0v16.34h4.57v-6.34h2.88v6.34h4.43V.27zm24.75 4.77a3.26 3.26 0 0 0 0 6.54 3.27 3.27 0 0 0 0-6.54m0-5.04a8.2 8.2 0 0 0-7.47 4.72c0-2.04-2-4.45-4.35-4.45H12.8v16.34h7.05a4.9 4.9 0 0 0 4.87-4.58c.65 1.33 2.9 4.66 7.47 4.66s8.29-3.8 8.29-8.38A8.25 8.25 0 0 0 32.19 0M19.26 12.81h-2.24v-2.76h2.24c.65 0 1.17.65 1.17 1.38s-.51 1.38-1.17 1.38m.01-6.14h-2.24V3.91h2.24c.65 0 1.17.65 1.17 1.38s-.51 1.38-1.17 1.38m2.98 1.64a3.5 3.5 0 0 0 1.67-1.03 8 8 0 0 0 0 2.28c-.34-.53-1.16-1.18-1.68-1.25Zm9.94 4.16a4.15 4.15 0 1 1 0-8.3 4.15 4.15 0 0 1 0 8.3m0-7.43a3.26 3.26 0 0 0 0 6.54 3.27 3.27 0 0 0 0-6.54m0 0a3.26 3.26 0 0 0 0 6.54 3.27 3.27 0 0 0 0-6.54m-17.26 24.1v-6.39c0-2.82-.77-4.21-3.1-4.21-1.31 0-2.71 1.12-3.48 1.83-.38-1.22-1.24-1.83-2.78-1.83-1.17 0-2.4.89-3.18 1.57v-1.29H0v10.32h2.38v-6.95c.77-.68 1.89-1.51 2.73-1.51 1 0 1.16.77 1.16 2.07v6.39h2.38v-6.39l-.02-.54c.77-.68 1.91-1.53 2.75-1.53 1 0 1.15.77 1.15 2.07v6.39zm19.8-5.3a29 29 0 0 0 4.21-5.02h-2.99a18 18 0 0 1-2.71 3.47 16 16 0 0 1-2.72-3.47h-3a29 29 0 0 0 4.21 5.02 31 31 0 0 0-4.47 5.3h2.99c.81-1.37 1.8-2.54 2.97-3.73a20 20 0 0 1 2.97 3.73h2.99a31 31 0 0 0-4.47-5.3zm-13.58 3.14a3.13 3.13 0 1 1 .01-6.25 3.13 3.13 0 0 1-.01 6.25m3.09-8.16v1.25a4.3 4.3 0 0 0-3.39-1.53c-2.77 0-5.06 2.38-5.06 5.34s2.3 5.34 5.06 5.34c1.33 0 2.49-.48 3.39-1.53v1.44h2.38V18.81h-2.38z"/></svg>