<svg xmlns="http://www.w3.org/2000/svg" version="1.1" id="svg1215" width="482.34" height="482.34"><defs id="defs1087"><style id="style1085">.cls-2,.cls-3{fill:#0074bf}.cls-14,.cls-2,.cls-20,.cls-7{opacity:.5}.cls-10,.cls-12,.cls-17,.cls-21,.cls-3,.cls-4{opacity:.7}.cls-4,.cls-5,.cls-6{fill:#0082bf}.cls-15,.cls-18,.cls-5,.cls-8{opacity:.8}.cls-7,.cls-8,.cls-9{fill:#008fbf}.cls-10,.cls-11{fill:#009dbf}.cls-12,.cls-13{fill:#00abbf}.cls-14,.cls-15,.cls-16{fill:#00b9bf}.cls-17,.cls-18,.cls-19{fill:#00c6bf}.cls-20,.cls-21{fill:#00d4bf}</style></defs><g id="g1958"><path class="cls-2" id="rect1107" d="M301.46 422.05h60.29v60.29h-60.29z"/><path class="cls-3" id="rect1109" d="M241.17 422.05h60.29v60.29h-60.29z"/><path class="cls-3" id="rect1111" d="M180.88 422.05h60.29v60.29h-60.29z"/><path class="cls-2" id="rect1113" d="M120.59 422.05h60.29v60.29h-60.29z"/><path class="cls-4" id="rect1115" d="M361.76 361.76h60.29v60.29h-60.29z"/><path class="cls-5" id="rect1117" d="M301.46 361.76h60.29v60.29h-60.29z"/><path class="cls-6" id="rect1119" d="M241.17 361.76h60.29v60.29h-60.29z"/><path class="cls-6" id="rect1121" d="M180.88 361.76h60.29v60.29h-60.29z"/><path class="cls-5" id="rect1123" d="M120.59 361.76h60.29v60.29h-60.29z"/><path class="cls-4" id="rect1125" d="M60.29 361.76h60.29v60.29H60.29z"/><path class="cls-7" id="rect1127" d="M422.05 301.46h60.29v60.29h-60.29z"/><path class="cls-8" id="rect1129" d="M361.76 301.46h60.29v60.29h-60.29z"/><path class="cls-9" id="rect1131" d="M301.46 301.46h60.29v60.29h-60.29z"/><path class="cls-9" id="rect1133" d="M241.17 301.46h60.29v60.29h-60.29z"/><path class="cls-9" id="rect1135" d="M180.88 301.46h60.29v60.29h-60.29z"/><path class="cls-9" id="rect1137" d="M120.59 301.46h60.29v60.29h-60.29z"/><path class="cls-8" id="rect1139" d="M60.29 301.46h60.29v60.29H60.29z"/><path class="cls-7" id="rect1141" d="M0 301.46h60.29v60.29H0z"/><path class="cls-10" id="rect1143" d="M422.05 241.17h60.29v60.29h-60.29z"/><path class="cls-11" id="rect1145" d="M361.76 241.17h60.29v60.29h-60.29z"/><path class="cls-11" id="rect1147" d="M301.46 241.17h60.29v60.29h-60.29z"/><path class="cls-11" id="rect1149" d="M241.17 241.17h60.29v60.29h-60.29z"/><path class="cls-11" id="rect1151" d="M180.88 241.17h60.29v60.29h-60.29z"/><path class="cls-11" id="rect1153" d="M120.59 241.17h60.29v60.29h-60.29z"/><path class="cls-11" id="rect1155" d="M60.29 241.17h60.29v60.29H60.29z"/><path class="cls-10" id="rect1157" d="M0 241.17h60.29v60.29H0z"/><path class="cls-12" id="rect1159" d="M422.05 180.88h60.29v60.29h-60.29z"/><path class="cls-13" id="rect1161" d="M361.76 180.88h60.29v60.29h-60.29z"/><path class="cls-13" id="rect1163" d="M301.46 180.88h60.29v60.29h-60.29z"/><path class="cls-13" id="rect1165" d="M241.17 180.88h60.29v60.29h-60.29z"/><path class="cls-13" id="rect1167" d="M180.88 180.88h60.29v60.29h-60.29z"/><path class="cls-13" id="rect1169" d="M120.59 180.88h60.29v60.29h-60.29z"/><path class="cls-13" id="rect1171" d="M60.29 180.88h60.29v60.29H60.29z"/><path class="cls-12" id="rect1173" d="M0 180.88h60.29v60.29H0z"/><path class="cls-14" id="rect1175" d="M422.05 120.59h60.29v60.29h-60.29z"/><path class="cls-15" id="rect1177" d="M361.76 120.59h60.29v60.29h-60.29z"/><path class="cls-16" id="rect1179" d="M301.46 120.59h60.29v60.29h-60.29z"/><path class="cls-16" id="rect1181" d="M241.17 120.59h60.29v60.29h-60.29z"/><path class="cls-16" id="rect1183" d="M180.88 120.59h60.29v60.29h-60.29z"/><path class="cls-16" id="rect1185" d="M120.59 120.59h60.29v60.29h-60.29z"/><path class="cls-15" id="rect1187" d="M60.29 120.59h60.29v60.29H60.29z"/><path class="cls-14" id="rect1189" d="M0 120.59h60.29v60.29H0z"/><path class="cls-17" id="rect1191" d="M361.76 60.29h60.29v60.29h-60.29z"/><path class="cls-18" id="rect1193" d="M301.46 60.29h60.29v60.29h-60.29z"/><path class="cls-19" id="rect1195" d="M241.17 60.29h60.29v60.29h-60.29z"/><path class="cls-19" id="rect1197" d="M180.88 60.29h60.29v60.29h-60.29z"/><path class="cls-18" id="rect1199" d="M120.59 60.29h60.29v60.29h-60.29z"/><path class="cls-17" id="rect1201" d="M60.29 60.29h60.29v60.29H60.29z"/><path class="cls-20" id="rect1203" d="M301.46 0h60.29v60.29h-60.29z"/><path class="cls-21" id="rect1205" d="M241.17 0h60.29v60.29h-60.29z"/><path class="cls-21" id="rect1207" d="M180.88 0h60.29v60.29h-60.29z"/><path class="cls-20" id="rect1209" d="M120.59 0h60.29v60.29h-60.29z"/><path d="M158.75 222.15l16.8-37.6c6.12-9.64 5.31-21.45-1.39-28.15a17.19 17.19 0 00-2.95-2.36 18.56 18.56 0 00-15.51-1.81 25.33 25.33 0 00-14 10.83s-23 53.66-31.56 77.78c-8.56 24.12-5.14 68.35 27.86 101.42 35 35 85.68 43 118 18.74a20.27 20.27 0 003.79-2.47l99.6-83.17c4.84-4 12-12.24 5.57-21.64-6.27-9.17-18.15-2.93-23 .17l-57.32 41.68a2.58 2.58 0 01-3.7-.43c-1.46-1.79-1.72-6.53.57-8.41l87.87-74.57c7.59-6.84 8.65-16.78 2.5-23.59-6-6.67-15.53-6.47-23.19.43l-79.11 61.85a3.51 3.51 0 01-5.06-.66c-1.56-1.75-2.16-4.74-.4-6.49l89.6-86.95a17.52 17.52 0 00.88-24.74 16.73 16.73 0 00-12.17-5.21 17.84 17.84 0 00-12.58 5l-91.55 86c-2.19 2.19-6.48 0-7-2.56a2.79 2.79 0 01.78-2.56l70.08-79.79a17.27 17.27 0 10-24.37-24.45L171.52 225.93c-3.81 3.81-9.42 4-12.09 1.79a4 4 0 01-.68-5.57z" id="path1211" fill="#fff"/></g></svg>