<svg xmlns="http://www.w3.org/2000/svg" width="71.82" height="71.82" viewBox="0 0 19.002 19.002"><path d="M0 9.501a9.502 9.502 0 119.501 9.501v-1.266c2.276 0 4.33-.921 5.823-2.412a8.207 8.207 0 002.412-5.823c0-2.276-.92-4.33-2.412-5.823a8.205 8.205 0 00-5.823-2.412c-2.275 0-4.33.921-5.823 2.412a8.206 8.206 0 00-2.412 5.823c0 2.276.92 4.33 2.412 5.823a8.206 8.206 0 005.823 2.412v1.266A9.502 9.502 0 010 9.501" fill="#313d8c"/><path d="M6.657 7.492h3.13V5.575c0-.34-.023-.564-.066-.672a.443.443 0 00-.209-.212.927.927 0 00-.454-.118H8.82V4.38h2.883v.193h-.24a.96.96 0 00-.452.113.415.415 0 00-.217.239c-.039.106-.058.323-.058.65v3.343s.004.917 0 .683a99.11 99.11 0 00-.023 1.477H9.786V7.861H6.657v2.021c0 .34.022.563.065.672a.441.441 0 00.208.212.91.91 0 00.45.118h.244v.194H4.741v-.194h.24c.278 0 .481-.08.607-.242.08-.105.12-.358.12-.76V5.575c0-.34-.022-.564-.065-.672a.445.445 0 00-.204-.212.954.954 0 00-.459-.118h-.239V4.38h2.883v.193h-.243a.952.952 0 00-.451.113.425.425 0 00-.213.239c-.04.106-.06.323-.06.65z"/><path d="M10.742 7.871v2.619h1.441c.377 0 .628-.057.755-.171.168-.15.263-.416.282-.796h.194v2.338h-.194c-.045-.327-.09-.537-.136-.63a.617.617 0 00-.287-.272c-.133-.066-.338-.1-.614-.1h-1.441v2.191c0 .156.003.28.01.371.007.081.017.136.029.166a.308.308 0 00.138.152c.065.037.19.056.374.056h1.131c.378 0 .651-.026.822-.078.17-.052.335-.155.492-.308.203-.202.412-.507.625-.915h.228l-.58 1.688H8.825v-.193h.24a.95.95 0 00.453-.114.418.418 0 00.217-.239.985.985 0 00.041-.224l.008-.092V7.484h4.21l.07 1.46h-.228c-.069-.343-.144-.58-.227-.708a.778.778 0 00-.368-.293c-.13-.048-.359-.072-.687-.072z"/></svg>