<svg xmlns="http://www.w3.org/2000/svg" width="348.857" height="348.857"><g fill-rule="evenodd"><path d="M119 82.722c11.92-.03 23.84-.01 35.76-.01 0 61.15.02 122.3 0 183.44-11.92-.02-23.84.02-35.75-.02.01-26.74-.06-53.48.03-80.23l-.53-.08c-27.62.33-55.24.02-82.86.13.08 26.73.02 53.46.03 80.19-11.89-.01-23.78.01-35.67-.02-.02-61.13 0-122.26-.01-183.39 11.9-.03 23.79-.01 35.69-.02.14 23.15-.29 46.33.21 69.47 27.7-.23 55.43.32 83.11-.45-.02-23-.01-46.01-.01-69.01z"/><path d="M252.567 79.408c24.3-3.95 49.83 1.39 70.82 14.13 9.59 5.71 18 13.2 25.47 21.45-8.12 8-16.53 15.71-24.75 23.61-10.76-11.63-24.47-20.99-40.05-24.62-14.93-3.31-31.21-2.23-44.9 4.94-15.85 8.39-28.21 23.75-31.7 41.5-4.15 19.69.43 41.74 14.13 56.86 20.33 22.35 56.89 26.14 82.2 10.24 7.43-4.74 14.12-10.54 20.37-16.73 8.1 8.14 15.92 16.57 23.86 24.87-11.95 11.46-25.09 22.27-40.64 28.43a98.763 98.763 0 01-35.29 6.53c-16.32.68-32.96-1.77-47.84-8.71-17.98-8.23-33.05-22.59-42.32-40.04-9.94-18.77-12.48-40.76-10.05-61.66 2.07-18.23 9.83-35.81 22.16-49.43 15.19-16.7 36.28-27.81 58.53-31.37z" fill="#046792"/></g></svg>