<svg xmlns="http://www.w3.org/2000/svg" width="26.9" height="26.9"><linearGradient id="a" gradientUnits="userSpaceOnUse" x1="44.53" y1="103.719" x2="192.481" y2="-44.233" gradientTransform="translate(.05 -16.2)"><stop offset="0" stop-color="#1a355d"/><stop offset=".806" stop-color="#63b770"/></linearGradient><path d="M22.85 26.9h-.7c-.2 0-.5 0-.7-.1l-.9-.1V.2l.9-.1c.2 0 .4 0 .7-.1h1.5c.3 0 .5 0 .7.1l.9.1v26.5l-.9.1c-.2 0-.4 0-.7.1zm-18.9 0h-.7c-.2 0-.5 0-.7-.1l-.9-.1V.2l.9-.1c.2 0 .4 0 .7-.1h1.5c.3 0 .5 0 .7.1l.9.1v26.5l-.9.1c-.2 0-.4 0-.7.1zm3.5-15.3v-.5c0-.1 0-.3.1-.4l.1-.6h11.5l.1.6c0 .1 0 .3.1.4v.9c0 .2 0 .3-.1.4l-.1.6H7.75l-.1-.6c0-.1 0-.3-.1-.4 0-.1-.1-.3-.1-.4zm0 4.2v-.5c0-.1 0-.3.1-.4l.1-.6h11.5l.1.6c0 .1 0 .3.1.4v.9c0 .2 0 .3-.1.4l-.1.6H7.75l-.2-.4c0-.1 0-.3-.1-.4.1-.2 0-.4 0-.6z" fill="url(#a)"/></svg>