<svg xmlns="http://www.w3.org/2000/svg" xmlns:xlink="http://www.w3.org/1999/xlink" xml:space="preserve" width="382.161" height="117.924"><defs><radialGradient id="b" cx="0" cy="0" r="1" fx="0" fy="0" gradientTransform="rotate(90 269.973 241.261) scale(96.94626)" gradientUnits="userSpaceOnUse" spreadMethod="pad"><stop offset="0" style="stop-color:#000012;stop-opacity:1"/><stop offset="1" style="stop-color:#614294;stop-opacity:1"/></radialGradient><radialGradient id="c" cx="0" cy="0" r="1" fx="0" fy="0" gradientTransform="rotate(90 268.812 242.32) scale(94.73313)" gradientUnits="userSpaceOnUse" spreadMethod="pad"><stop offset="0" style="stop-color:#000014;stop-opacity:1"/><stop offset="1" style="stop-color:#623f99;stop-opacity:1"/></radialGradient><radialGradient id="d" cx="0" cy="0" r="1" fx="0" fy="0" gradientTransform="rotate(90 269.25 242.036) scale(95.50869)" gradientUnits="userSpaceOnUse" spreadMethod="pad"><stop offset="0" style="stop-color:#000014;stop-opacity:1"/><stop offset="1" style="stop-color:#623f99;stop-opacity:1"/></radialGradient><radialGradient id="e" cx="0" cy="0" r="1" fx="0" fy="0" gradientTransform="rotate(90 268.915 242.32) scale(94.8252)" gradientUnits="userSpaceOnUse" spreadMethod="pad"><stop offset="0" style="stop-color:#000014;stop-opacity:1"/><stop offset="1" style="stop-color:#623f99;stop-opacity:1"/></radialGradient><radialGradient id="f" cx="0" cy="0" r="1" fx="0" fy="0" gradientTransform="rotate(90 269.638 241.597) scale(96.35835)" gradientUnits="userSpaceOnUse" spreadMethod="pad"><stop offset="0" style="stop-color:#000014;stop-opacity:1"/><stop offset="1" style="stop-color:#623f99;stop-opacity:1"/></radialGradient><radialGradient id="g" cx="0" cy="0" r="1" fx="0" fy="0" gradientTransform="rotate(90 269.199 242.036) scale(95.51096)" gradientUnits="userSpaceOnUse" spreadMethod="pad"><stop offset="0" style="stop-color:#000014;stop-opacity:1"/><stop offset="1" style="stop-color:#623f99;stop-opacity:1"/></radialGradient><radialGradient id="h" cx="0" cy="0" r="1" fx="0" fy="0" gradientTransform="rotate(90 268.915 241.803) scale(95.31939)" gradientUnits="userSpaceOnUse" spreadMethod="pad"><stop offset="0" style="stop-color:#000014;stop-opacity:1"/><stop offset="1" style="stop-color:#623f99;stop-opacity:1"/></radialGradient><radialGradient id="i" cx="0" cy="0" r="1" fx="0" fy="0" gradientTransform="rotate(90 269.38 242.113) scale(119.23258)" gradientUnits="userSpaceOnUse" spreadMethod="pad"><stop offset="0" style="stop-color:#beb3c6;stop-opacity:1"/><stop offset=".822" style="stop-color:#bfbacd;stop-opacity:1"/><stop offset=".848" style="stop-color:#522e91;stop-opacity:1"/><stop offset=".881" style="stop-color:#40317f;stop-opacity:1"/><stop offset=".903" style="stop-color:#2d1d57;stop-opacity:1"/><stop offset="1" style="stop-color:#2d1d57;stop-opacity:1"/></radialGradient><radialGradient id="j" cx="0" cy="0" r="1" fx="0" fy="0" gradientTransform="rotate(90 269.173 242.32) scale(118.70454)" gradientUnits="userSpaceOnUse" spreadMethod="pad"><stop offset="0" style="stop-color:#beb3c6;stop-opacity:1"/><stop offset=".822" style="stop-color:#bfbacd;stop-opacity:1"/><stop offset=".848" style="stop-color:#522e91;stop-opacity:1"/><stop offset=".881" style="stop-color:#40317f;stop-opacity:1"/><stop offset=".903" style="stop-color:#2d1d57;stop-opacity:1"/><stop offset="1" style="stop-color:#2d1d57;stop-opacity:1"/></radialGradient><radialGradient id="k" cx="0" cy="0" r="1" fx="0" fy="0" gradientTransform="rotate(90 269.896 241.803) scale(120.17143)" gradientUnits="userSpaceOnUse" spreadMethod="pad"><stop offset="0" style="stop-color:#beb3c6;stop-opacity:1"/><stop offset=".822" style="stop-color:#bfbacd;stop-opacity:1"/><stop offset=".848" style="stop-color:#522e91;stop-opacity:1"/><stop offset=".881" style="stop-color:#40317f;stop-opacity:1"/><stop offset=".903" style="stop-color:#2d1d57;stop-opacity:1"/><stop offset="1" style="stop-color:#2d1d57;stop-opacity:1"/></radialGradient><radialGradient id="l" cx="0" cy="0" r="1" fx="0" fy="0" gradientTransform="rotate(90 269.483 241.907) scale(119.62913)" gradientUnits="userSpaceOnUse" spreadMethod="pad"><stop offset="0" style="stop-color:#beb3c6;stop-opacity:1"/><stop offset=".822" style="stop-color:#bfbacd;stop-opacity:1"/><stop offset=".848" style="stop-color:#522e91;stop-opacity:1"/><stop offset=".881" style="stop-color:#40317f;stop-opacity:1"/><stop offset=".903" style="stop-color:#2d1d57;stop-opacity:1"/><stop offset="1" style="stop-color:#2d1d57;stop-opacity:1"/></radialGradient><radialGradient id="m" cx="0" cy="0" r="1" fx="0" fy="0" gradientTransform="rotate(90 269.586 241.907) scale(119.63657)" gradientUnits="userSpaceOnUse" spreadMethod="pad"><stop offset="0" style="stop-color:#beb3c6;stop-opacity:1"/><stop offset=".822" style="stop-color:#bfbacd;stop-opacity:1"/><stop offset=".848" style="stop-color:#522e91;stop-opacity:1"/><stop offset=".881" style="stop-color:#40317f;stop-opacity:1"/><stop offset=".903" style="stop-color:#2d1d57;stop-opacity:1"/><stop offset="1" style="stop-color:#2d1d57;stop-opacity:1"/></radialGradient><radialGradient id="n" cx="0" cy="0" r="1" fx="0" fy="0" gradientTransform="rotate(90 269.534 241.958) scale(119.65989)" gradientUnits="userSpaceOnUse" spreadMethod="pad"><stop offset="0" style="stop-color:#beb3c6;stop-opacity:1"/><stop offset=".822" style="stop-color:#bfbacd;stop-opacity:1"/><stop offset=".848" style="stop-color:#522e91;stop-opacity:1"/><stop offset=".881" style="stop-color:#40317f;stop-opacity:1"/><stop offset=".903" style="stop-color:#2d1d57;stop-opacity:1"/><stop offset="1" style="stop-color:#2d1d57;stop-opacity:1"/></radialGradient><radialGradient id="a" cx="0" cy="0" r="1" fx="0" fy="0" gradientTransform="rotate(90 269.534 241.958) scale(119.63305)" gradientUnits="userSpaceOnUse" spreadMethod="pad"><stop offset="0" style="stop-color:#beb3c6;stop-opacity:1"/><stop offset=".822" style="stop-color:#bfbacd;stop-opacity:1"/><stop offset=".848" style="stop-color:#522e91;stop-opacity:1"/><stop offset=".881" style="stop-color:#40317f;stop-opacity:1"/><stop offset=".903" style="stop-color:#2d1d57;stop-opacity:1"/><stop offset="1" style="stop-color:#2d1d57;stop-opacity:1"/></radialGradient><radialGradient id="o" cx="0" cy="0" r="1" fx="0" fy="0" gradientTransform="rotate(90 269.534 242.371) scale(119.50156)" gradientUnits="userSpaceOnUse" spreadMethod="pad"><stop offset="0" style="stop-color:#beb3c6;stop-opacity:1"/><stop offset=".822" style="stop-color:#bfbacd;stop-opacity:1"/><stop offset=".848" style="stop-color:#522e91;stop-opacity:1"/><stop offset=".881" style="stop-color:#40317f;stop-opacity:1"/><stop offset=".903" style="stop-color:#2d1d57;stop-opacity:1"/><stop offset="1" style="stop-color:#2d1d57;stop-opacity:1"/></radialGradient><radialGradient id="p" cx="0" cy="0" r="1" fx="0" fy="0" gradientTransform="rotate(90 269.431 241.855) scale(119.63305)" gradientUnits="userSpaceOnUse" spreadMethod="pad"><stop offset="0" style="stop-color:#beb3c6;stop-opacity:1"/><stop offset=".822" style="stop-color:#bfbacd;stop-opacity:1"/><stop offset=".848" style="stop-color:#522e91;stop-opacity:1"/><stop offset=".881" style="stop-color:#40317f;stop-opacity:1"/><stop offset=".903" style="stop-color:#2d1d57;stop-opacity:1"/><stop offset="1" style="stop-color:#2d1d57;stop-opacity:1"/></radialGradient><radialGradient xlink:href="#a" id="D" cx="0" cy="0" r="1" fx="0" fy="0" gradientTransform="rotate(90 269.534 241.958) scale(119.63305)" gradientUnits="userSpaceOnUse" spreadMethod="pad"/><radialGradient xlink:href="#b" id="q" cx="0" cy="0" r="1" fx="0" fy="0" gradientTransform="rotate(90 269.973 241.261) scale(96.94626)" gradientUnits="userSpaceOnUse" spreadMethod="pad"/><radialGradient xlink:href="#c" id="r" cx="0" cy="0" r="1" fx="0" fy="0" gradientTransform="rotate(90 268.812 242.32) scale(94.73313)" gradientUnits="userSpaceOnUse" spreadMethod="pad"/><radialGradient xlink:href="#d" id="s" cx="0" cy="0" r="1" fx="0" fy="0" gradientTransform="rotate(90 269.25 242.036) scale(95.50869)" gradientUnits="userSpaceOnUse" spreadMethod="pad"/><radialGradient xlink:href="#e" id="t" cx="0" cy="0" r="1" fx="0" fy="0" gradientTransform="rotate(90 268.915 242.32) scale(94.8252)" gradientUnits="userSpaceOnUse" spreadMethod="pad"/><radialGradient xlink:href="#f" id="u" cx="0" cy="0" r="1" fx="0" fy="0" gradientTransform="rotate(90 269.638 241.597) scale(96.35835)" gradientUnits="userSpaceOnUse" spreadMethod="pad"/><radialGradient xlink:href="#g" id="v" cx="0" cy="0" r="1" fx="0" fy="0" gradientTransform="rotate(90 269.199 242.036) scale(95.51096)" gradientUnits="userSpaceOnUse" spreadMethod="pad"/><radialGradient xlink:href="#h" id="w" cx="0" cy="0" r="1" fx="0" fy="0" gradientTransform="rotate(90 268.915 241.803) scale(95.31939)" gradientUnits="userSpaceOnUse" spreadMethod="pad"/><radialGradient xlink:href="#i" id="x" cx="0" cy="0" r="1" fx="0" fy="0" gradientTransform="rotate(90 269.38 242.113) scale(119.23258)" gradientUnits="userSpaceOnUse" spreadMethod="pad"/><radialGradient xlink:href="#j" id="y" cx="0" cy="0" r="1" fx="0" fy="0" gradientTransform="rotate(90 269.173 242.32) scale(118.70454)" gradientUnits="userSpaceOnUse" spreadMethod="pad"/><radialGradient xlink:href="#k" id="z" cx="0" cy="0" r="1" fx="0" fy="0" gradientTransform="rotate(90 269.896 241.803) scale(120.17143)" gradientUnits="userSpaceOnUse" spreadMethod="pad"/><radialGradient xlink:href="#l" id="A" cx="0" cy="0" r="1" fx="0" fy="0" gradientTransform="rotate(90 269.483 241.907) scale(119.62913)" gradientUnits="userSpaceOnUse" spreadMethod="pad"/><radialGradient xlink:href="#m" id="B" cx="0" cy="0" r="1" fx="0" fy="0" gradientTransform="rotate(90 269.586 241.907) scale(119.63657)" gradientUnits="userSpaceOnUse" spreadMethod="pad"/><radialGradient xlink:href="#n" id="C" cx="0" cy="0" r="1" fx="0" fy="0" gradientTransform="rotate(90 269.534 241.958) scale(119.65989)" gradientUnits="userSpaceOnUse" spreadMethod="pad"/><radialGradient xlink:href="#o" id="E" cx="0" cy="0" r="1" fx="0" fy="0" gradientTransform="rotate(90 269.534 242.371) scale(119.50156)" gradientUnits="userSpaceOnUse" spreadMethod="pad"/><radialGradient xlink:href="#p" id="F" cx="0" cy="0" r="1" fx="0" fy="0" gradientTransform="rotate(90 269.431 241.855) scale(119.63305)" gradientUnits="userSpaceOnUse" spreadMethod="pad"/><clipPath id="G"><path d="M407.402 45.355h139.684v37.714H407.402V45.355z"/></clipPath></defs><path d="M537.532 63.853h-.001l.594-1.958h3.995l.024.07.294.836a74.67 74.67 0 0 1-5.17 1.923l.264-.871zm-.001 0v.001-.001" style="fill:url(#q);stroke:none" transform="matrix(3.36028 0 0 -3.36028 -1456.2 279.132)"/><path d="m526.647 66.738.003-.001 1.724-4.842h3.964l.916 3.093.26.874a84.239 84.239 0 0 1-7.138 1.641l.271-.765z" style="fill:url(#r);stroke:none" transform="matrix(3.36028 0 0 -3.36028 -1456.2 279.132)"/><path d="M509.506 69.006v-.014c0-4.043 3.249-7.306 7.241-7.306 3.472 0 6.38 2.559 6.981 5.928.019.107.03.216.044.325v.006a90.093 90.093 0 0 1-3.215.436l-.002-.026c-.264-1.911-1.883-3.406-3.838-3.406-2.173 0-3.922 1.783-3.958 4.004a99.402 99.402 0 0 1-3.09.054l-.163-.001" style="fill:url(#s);stroke:none" transform="matrix(3.36028 0 0 -3.36028 -1456.2 279.132)"/><path d="M501.62 68.653v-6.592h3.349v6.821c-1.119-.06-2.236-.133-3.349-.229" style="fill:url(#t);stroke:none" transform="matrix(3.36028 0 0 -3.36028 -1456.2 279.132)"/><path d="M487.351 66.335v-4.274h3.349v5.02a98.575 98.575 0 0 1-3.349-.746" style="fill:url(#u);stroke:none" transform="matrix(3.36028 0 0 -3.36028 -1456.2 279.132)"/><path d="M496.255 68.033v-5.972h3.349v6.396a100.398 100.398 0 0 1-3.349-.424" style="fill:url(#v);stroke:none" transform="matrix(3.36028 0 0 -3.36028 -1456.2 279.132)"/><path d="M482.828 64.49c-.456 0-.793.105-1.008.337-1.12-.345-2.2-.778-3.296-1.163.605-1.496 2.051-2.105 3.971-2.105 1.311 0 2.511.363 3.74.781l-.922 2.708c-.81-.279-1.619-.558-2.485-.558" style="fill:url(#w);stroke:none" transform="matrix(3.36028 0 0 -3.36028 -1456.2 279.132)"/><path d="M450.232 69.012c0-4.326 2.848-7.258 7.146-7.258 1.647 0 3.295.391 4.802 1.034l-1.06 2.595c-1.006-.446-2.402-.725-3.547-.725-2.064 0-3.517 1.005-3.74 3.153h9.016c.085.615.197 1.229.197 1.844 0 3.88-2.317 6.671-6.337 6.671-4.272 0-6.477-3.266-6.477-7.314m6.504 4.55c1.871 0 2.82-1.368 2.848-3.126h-5.751c.084 1.676 1.117 3.126 2.903 3.126" style="fill:url(#x);stroke:none" transform="matrix(3.36028 0 0 -3.36028 -1456.2 279.132)"/><path d="m523.369 75.981 2.321-6.545a87.102 87.102 0 0 0 4.006-.67l-2.413 7.215h-3.914z" style="fill:url(#y);stroke:none" transform="matrix(3.36028 0 0 -3.36028 -1456.2 279.132)"/><path d="m543.445 75.981-3.118-9.682-3.501 9.682h-3.178l-2.696-7.464a80.413 80.413 0 0 0 3.137-.714l1.111 3.75 1.33-4.393a76.995 76.995 0 0 0 6.669-2.2l3.887 11.021h-3.641z" style="fill:url(#z);stroke:none" transform="matrix(3.36028 0 0 -3.36028 -1456.2 279.132)"/><path d="M509.64 70.39c.757.017 1.513.029 2.263.029.372 0 .746-.008 1.119-.012.578 1.481 2.036 2.57 3.667 2.57 1.736 0 3.256-1.252 3.741-2.935a94.351 94.351 0 0 0 3.374-.353c-.377 3.725-3.411 6.581-7.144 6.581-3.492 0-6.382-2.515-7.02-5.88" style="fill:url(#A);stroke:none" transform="matrix(3.36028 0 0 -3.36028 -1456.2 279.132)"/><path d="M501.368 74.791s.252-1.396.252-2.094v-2.784c1.112.109 2.229.205 3.349.277v2.591c0 .084-.029.279-.029.279.81.251 1.676.363 2.514.363.614 0 1.395-.14 1.842-.279l1.005 2.875c-.754.196-1.703.307-2.568.307-2.206 0-4.355-.698-6.365-1.535" style="fill:url(#B);stroke:none" transform="matrix(3.36028 0 0 -3.36028 -1456.2 279.132)"/><path d="M487.351 81.759V67.423c1.108.281 2.223.55 3.349.792v4.176c.921.558 2.122 1.032 3.21 1.032 1.396 0 2.345-1.004 2.345-2.54v-1.647a94.91 94.91 0 0 0 3.349.458v1.691c0 3.099-1.646 4.941-4.772 4.941-1.424 0-2.847-.362-4.132-.92v7.662l-3.349-1.309z" style="fill:url(#C);stroke:none" transform="matrix(3.36028 0 0 -3.36028 -1456.2 279.132)"/><path d="m481.542 80.487-3.347-1.309v-3.214l-1.591-.085v-2.651l1.591-.084v-7.705c0-.301.025-.58.068-.844 1.082.402 2.175.79 3.282 1.151v7.37h3.908v2.903h-3.908v4.468h-.003z" style="fill:url(#D);stroke:none" transform="matrix(3.36028 0 0 -3.36028 -1456.2 279.132)"/><path d="m464.808 75.126 1.144-2.541c1.172.503 2.624.838 3.88.838.837 0 2.345-.112 2.345-1.284 0-2.429-8.654-.503-8.654-6.142 0-3.265 3.573-4.243 6.254-4.243.838 0 1.5.053 2.062.147a81.74 81.74 0 0 0 3.682 1.625c.001.054.006.524.006 1.076v7.174c0 3.238-2.233 4.55-5.22 4.55-1.815 0-3.852-.447-5.499-1.2m2.401-8.877c0 1.562 3.824 1.024 4.968 2.112v-2.894c0-.195.012-.575.012-.575-.783-.251-1.575-.346-2.384-.346-1.201 0-2.596.251-2.596 1.703" style="fill:url(#E);stroke:none" transform="matrix(3.36028 0 0 -3.36028 -1456.2 279.132)"/><path d="M433.357 80.394V62.061h3.489v8.486h8.403v-8.486h3.489v19.69l-3.489-1.364v-6.936h-8.403v8.309l-3.489-1.366z" style="fill:url(#F);stroke:none" transform="matrix(3.36028 0 0 -3.36028 -1456.2 279.132)"/><g clip-path="url(#G)" transform="matrix(2.7598 0 0 -2.7598 -1124.345 243.092)"><path d="m0 0 .88 7.285H.854s-.138-.283-.232-.412L-2.834 1.88c-.405-.012-.616.4-.739.682l-1.928 4.311a3.928 3.928 0 0 0-.132.412h-.026L-6.54 0h-.873l.972 8.037H-5.1l2.035-4.618c.062-.129.133-.411.133-.411h.039s.125.282.218.411c0 0 2.136 3.114 3.177 4.618h1.342L.873 0H0z" style="fill:#522e91;fill-opacity:1;fill-rule:nonzero;stroke:none" transform="translate(414.802 48.15)"/></g><path d="m0 0 .26 2.15c-.27-.188-.527-.258-.862-.34-.874-.224-2.368-.294-2.497-1.363-.102-.846.718-1.069 1.591-1.069.534 0 1.131.094 1.5.235 0 0-.014.199.008.387m-1.662-1.245c-1.224 0-2.477.412-2.328 1.645.141 1.163 1.204 1.55 2.245 1.762C-.716 2.373.3 2.479.393 3.255c.097.799-.594 1.01-1.35 1.01-.521 0-1.195-.188-1.659-.364l-.178.575c.602.236 1.366.412 1.991.412 1.355 0 2.125-.529 1.97-1.809L.789-.047C.762-.27.788-.81.788-.81c-.787-.259-1.642-.435-2.45-.435" style="fill:#522e91;fill-opacity:1;fill-rule:nonzero;stroke:none" transform="matrix(2.7598 0 0 -2.7598 36.795 107.127)"/><path d="m0 0-2.458 2.62a2.802 2.802 0 0 1-.505.458L-3.335 0h-.795l1.042 8.624h.795l-.61-5.052L.306 5.874h1.12L-2.247 3.29a1.2 1.2 0 0 0 .509-.317L1.094 0H0z" style="fill:#522e91;fill-opacity:1;fill-rule:nonzero;stroke:none" transform="matrix(2.7598 0 0 -2.7598 53.43 110.207)"/><path d="M0 0c-.313 0-.538.188-.503.47.035.294.317.47.617.47C.413.94.665.764.63.47.594.176.3 0 0 0m-1.274-7.414.71 5.875h.795l-.71-5.875h-.795z" style="fill:#522e91;fill-opacity:1;fill-rule:nonzero;stroke:none" transform="matrix(2.7598 0 0 -2.7598 61.884 89.747)"/><path d="m0 0 .468 3.877c.116.952-.326 1.504-1.407 1.504-.639 0-1.336-.164-1.895-.376 0 0-.003-.235-.017-.352L-3.413 0h-.795l.559 4.629c.03.247.013.752.013.752.874.329 1.925.623 2.863.623 1.394 0 2.213-.658 2.056-1.962L.794 0H0z" style="fill:#522e91;fill-opacity:1;fill-rule:nonzero;stroke:none" transform="matrix(2.7598 0 0 -2.7598 76.06 110.207)"/><path d="M0 0c-1.003 0-1.775-.564-1.887-1.492-.112-.928.522-1.504 1.525-1.504 1.016 0 1.75.576 1.862 1.504C1.613-.564 1.016 0 0 0m-1.366-5.263c-.661-.188-1.444-.529-1.528-1.222C-3.001-7.366-1.63-7.554-.9-7.554c.755 0 2.174.2 2.283 1.104.13 1.07-1.98.976-2.749 1.187m.39-2.926c-1.121 0-2.907.318-2.749 1.622.105.869.947 1.363 1.809 1.597a.743.743 0 0 0-.282.693c.043.353.382.682.727.835-.859.329-1.317 1.069-1.211 1.95C-2.522-.175-1.32.611.074.611.256.611.449.588.627.552.78.529.931.482 1.1.482h1.928l-.072-.599c-.339 0-.809-.012-1.123.082-.002-.012-.015-.012-.028-.012.37-.388.568-.904.503-1.445C2.15-2.796.957-3.618-.437-3.618a3.7 3.7 0 0 0-.517.035c-.213-.141-.412-.282-.442-.529-.133-1.104 3.92-.118 3.658-2.291C2.093-7.801.274-8.189-.976-8.189" style="fill:#522e91;fill-opacity:1;fill-rule:nonzero;stroke:none" transform="matrix(2.7598 0 0 -2.7598 89.782 95.324)"/><path d="M0 0c-1.199 0-1.949-.928-2.084-2.044H1.55C1.671-1.046 1.276 0 0 0m2.309-2.667h-4.481c-.144-1.516.839-2.22 2.128-2.22.443 0 .922.082 1.411.247l.158-.529A4.885 4.885 0 0 0-.301-5.51c-1.98 0-2.917 1.409-2.713 3.102C-2.831-.893-1.827.623.062.623c1.785 0 2.529-1.281 2.35-2.761a4.263 4.263 0 0 0-.103-.529" style="fill:#522e91;fill-opacity:1;fill-rule:nonzero;stroke:none" transform="matrix(2.7598 0 0 -2.7598 114.127 95.356)"/><path d="M0 0c-.586 0-.796.423-.889.729l-1.655 5.274h.899C-1.171 4.324-.219.987-.219.987h.038c.01.082.094.235.143.317l2.522 4.699h.873L0 0z" style="fill:#522e91;fill-opacity:1;fill-rule:nonzero;stroke:none" transform="matrix(2.7598 0 0 -2.7598 129.22 110.563)"/><path d="M0 0c-1.199 0-1.949-.928-2.084-2.044h3.635C1.671-1.046 1.276 0 0 0m2.309-2.667h-4.481c-.144-1.516.838-2.22 2.128-2.22.443 0 .922.082 1.411.247l.158-.529A4.885 4.885 0 0 0-.301-5.51c-1.98 0-2.917 1.409-2.713 3.102C-2.831-.893-1.827.623.062.623c1.785 0 2.529-1.281 2.35-2.761a4.263 4.263 0 0 0-.103-.529" style="fill:#522e91;fill-opacity:1;fill-rule:nonzero;stroke:none" transform="matrix(2.7598 0 0 -2.7598 146.445 95.356)"/><path d="M0 0a4.124 4.124 0 0 1-.657.058c-.483 0-.989-.093-1.453-.27 0 0-.007-.27-.022-.399l-.567-4.688h-.794l.563 4.664c.032.258.014.764.014.764.806.306 1.646.576 2.493.576.248 0 .492-.024.721-.071L0 0z" style="fill:#522e91;fill-opacity:1;fill-rule:nonzero;stroke:none" transform="matrix(2.7598 0 0 -2.7598 163.765 95.582)"/><path d="M0 0c-.558-1.163-1.567-2.291-2.751-2.608l-.245.564c1.122.34 1.808 1.269 2.207 2.091 0 0-.327-.012-.477.47l-1.745 5.51h.899L-.524.729h.026l2.555 5.298h.847L0 0z" style="fill:#522e91;fill-opacity:1;fill-rule:nonzero;stroke:none" transform="matrix(2.7598 0 0 -2.7598 173.78 110.628)"/><path d="M0 0c-.313 0-.538.188-.503.47.035.294.317.47.617.47C.413.94.653.764.617.47.582.176.3 0 0 0m-1.329-9.599a3.838 3.838 0 0 0-.751-.611l-.403.447c.888.657 1.069 1.186 1.172 2.044l.747 6.18h.795l-.714-5.909c-.097-.8-.22-1.493-.846-2.151" style="fill:#522e91;fill-opacity:1;fill-rule:nonzero;stroke:none" transform="matrix(2.7598 0 0 -2.7598 192.921 89.747)"/><path d="M0 0c-1.342 0-2.281-.975-2.458-2.443-.178-1.469.525-2.444 1.868-2.444 1.342 0 2.279.975 2.457 2.444C2.044-.975 1.342 0 0 0m-.666-5.51c-1.798 0-2.898 1.258-2.679 3.067C-3.126-.634-1.722.623.076.623c1.796 0 2.895-1.257 2.676-3.066C2.534-4.252 1.131-5.51-.666-5.51" style="fill:#522e91;fill-opacity:1;fill-rule:nonzero;stroke:none" transform="matrix(2.7598 0 0 -2.7598 204.904 95.356)"/><path d="M0 0c-1.394 0-2.212.659-2.055 1.962l.488 4.041h.794l-.468-3.877C-1.357 1.175-.915.623.166.623.805.623 1.5.776 2.06.987c0 0 .002.235.016.352l.564 4.664h.795l-.561-4.64c-.03-.247-.013-.752-.013-.752C1.987.282.938 0 0 0" style="fill:#522e91;fill-opacity:1;fill-rule:nonzero;stroke:none" transform="matrix(2.7598 0 0 -2.7598 220.493 110.563)"/><path d="M0 0a4.124 4.124 0 0 1-.657.058c-.482 0-.988-.093-1.452-.27 0 0-.007-.27-.022-.399l-.567-4.688h-.795l.564 4.664c.031.258.014.764.014.764.806.306 1.646.576 2.492.576.248 0 .493-.024.721-.071L0 0z" style="fill:#522e91;fill-opacity:1;fill-rule:nonzero;stroke:none" transform="matrix(2.7598 0 0 -2.7598 241.607 95.582)"/><path d="m0 0 .468 3.877c.115.952-.326 1.504-1.407 1.504-.639 0-1.335-.164-1.894-.376 0 0-.003-.235-.016-.352L-3.412 0h-.794l.559 4.629c.03.247.013.752.013.752.873.329 1.923.623 2.861.623 1.394 0 2.213-.658 2.055-1.962L.794 0H0z" style="fill:#522e91;fill-opacity:1;fill-rule:nonzero;stroke:none" transform="matrix(2.7598 0 0 -2.7598 254.577 110.207)"/><path d="M0 0c-1.199 0-1.949-.928-2.085-2.044H1.55C1.671-1.046 1.276 0 0 0m2.309-2.667h-4.481c-.145-1.516.838-2.22 2.128-2.22.443 0 .922.082 1.41.247l.159-.529A4.886 4.886 0 0 0-.302-5.51c-1.979 0-2.916 1.409-2.712 3.102C-2.831-.893-1.827.623.062.623c1.784 0 2.529-1.281 2.35-2.761a4.456 4.456 0 0 0-.103-.529" style="fill:#522e91;fill-opacity:1;fill-rule:nonzero;stroke:none" transform="matrix(2.7598 0 0 -2.7598 268.593 95.356)"/><path d="M0 0c-.557-1.163-1.566-2.291-2.751-2.608l-.244.564c1.122.34 1.807 1.269 2.206 2.091 0 0-.327-.012-.477.47l-1.745 5.51h.9L-.524.729h.026l2.555 5.298h.848L0 0z" style="fill:#522e91;fill-opacity:1;fill-rule:nonzero;stroke:none" transform="matrix(2.7598 0 0 -2.7598 284.747 110.628)"/><path d="M0 0c-.456 0-1.032-.129-1.454-.387l-.49-4.054a2.593 2.593 0 0 0-.041-.235c.323-.129.834-.211 1.199-.211 1.616 0 2.487 1.174 2.646 2.49C2.008-1.163 1.537 0 0 0m-.822-5.51c-.73 0-1.415.152-2.064.387 0 0 .123.483.15.706l.925 7.66h.796L-1.371.306A3.78 3.78 0 0 0 .127.623c1.993 0 2.822-1.34 2.619-3.02C2.534-4.147 1.21-5.51-.822-5.51" style="fill:#522e91;fill-opacity:1;fill-rule:nonzero;stroke:none" transform="matrix(2.7598 0 0 -2.7598 308.354 95.356)"/><path d="M0 0c-1.199 0-1.949-.928-2.084-2.044H1.55C1.671-1.046 1.276 0 0 0m2.309-2.667h-4.481c-.145-1.516.839-2.22 2.128-2.22.444 0 .923.082 1.411.247l.158-.529A4.885 4.885 0 0 0-.301-5.51c-1.98 0-2.917 1.409-2.713 3.102C-2.83-.893-1.827.623.063.623c1.784 0 2.528-1.281 2.349-2.761a4.263 4.263 0 0 0-.103-.529" style="fill:#522e91;fill-opacity:1;fill-rule:nonzero;stroke:none" transform="matrix(2.7598 0 0 -2.7598 326.206 95.356)"/><path d="M0 0c-1.042 0-1.574.446-1.46 1.398l.482 3.983-.739.034.067.553.747.035.195 1.61h.795l-.195-1.61h3.087l-.075-.622H-.183l-.482-3.983C-.723.916-.472.623.075.623c.404 0 .874.117 1.266.235l.125-.587C1.019.129.456 0 0 0" style="fill:#522e91;fill-opacity:1;fill-rule:nonzero;stroke:none" transform="matrix(2.7598 0 0 -2.7598 339.337 110.563)"/><path d="M0 0c-1.042 0-1.574.446-1.459 1.398l.481 3.983-.738.034.066.553.748.035.194 1.61h.795l-.194-1.61h1.966l-.075-.622H-.183l-.482-3.983C-.723.916-.471.623.076.623.479.623.95.74 1.341.858l.125-.587C1.019.129.456 0 0 0" style="fill:#522e91;fill-opacity:1;fill-rule:nonzero;stroke:none" transform="matrix(2.7598 0 0 -2.7598 349.978 110.563)"/><path d="M0 0c-1.199 0-1.949-.928-2.085-2.044H1.55C1.671-1.046 1.276 0 0 0m2.309-2.667h-4.482c-.143-1.516.84-2.22 2.13-2.22.442 0 .921.082 1.41.247l.158-.529A4.885 4.885 0 0 0-.301-5.51c-1.98 0-2.917 1.409-2.713 3.102C-2.83-.893-1.827.623.063.623c1.784 0 2.528-1.281 2.349-2.761a4.086 4.086 0 0 0-.103-.529" style="fill:#522e91;fill-opacity:1;fill-rule:nonzero;stroke:none" transform="matrix(2.7598 0 0 -2.7598 363.428 95.356)"/><path d="M0 0a4.124 4.124 0 0 1-.657.058c-.483 0-.988-.093-1.453-.27 0 0-.007-.27-.022-.399l-.566-4.688h-.795l.563 4.664c.032.258.014.764.014.764.806.306 1.647.576 2.493.576.248 0 .492-.024.721-.071L0 0z" style="fill:#522e91;fill-opacity:1;fill-rule:nonzero;stroke:none" transform="matrix(2.7598 0 0 -2.7598 381.339 95.582)"/></svg>