<svg xmlns="http://www.w3.org/2000/svg" fill="#0a1a65" viewBox="0 0 37.28 40.08"><path d="m14.19 28.13-9.08-5.35L0 24.69q6.47 2.67 12.61 6.05a59 59 0 0 1 6.25 4.29q-.34-1.93-1.32-3.63a10 10 0 0 0-3.35-3.27M10.6 8.99q.14.33.31.64c.95 1.72 3.06 3.77 7.76 4.51l.66.1-.04.26-.48 3.25a4.7 4.7 0 0 0 3.63-4.56 4.64 4.64 0 0 0-4.27-4.78l-.41-.05c-1.31-.15-3.52-.39-4.6-1.63-1.42-1.63-1.15-4.56-.77-6.47-2 3.38-2.44 5.97-2.01 7.96q.09.4.22.77m7.21 6.37a12 12 0 0 1-7.06-3.65l-4.81 9.93 10.07 5.84z"/><path d="M14.4 6.04v.02l.14.09a4 4 0 0 0 1.05.46l.22.06a15 15 0 0 0 2.11.35l.43.05a6 6 0 0 1 5.26 4.54l8.72-3.74 1.79 3.19-.6-9.71a3.5 3.5 0 0 1-3.09 1.76c1.68-.73 1.65-1.15 1.65-1.15C30.43.55 26.73-.01 24.44-.01c-9.94 0-12.01 4.33-10.03 6.04m20.26 16.45h-1.89a18 18 0 0 0-.19 5.2c-.7-1.97-.93-4.08-.67-6.16a7 7 0 0 1 2.48-.35l-1.23-2.1a12 12 0 0 0-4.29 1.12l-.88.4-.07-.96c0-.06-.51-5.34-4.14-6.48v.03a6 6 0 0 1-5.17 5.95l-1.35 9.1 5.44 3.25c-.34-6.59-.23-9.33.13-9.12s.23 6.71 1.31 9.97l6.14 3.61q-.81-4.8-.84-9.67a38 38 0 0 0 2.29 10.52l5.54 3.27c-.05-.2-1.77-7.14-2.46-10.51-.47-2.31-.92-4.66-.15-7.08"/><path d="M31.35 13.37a.73.73 0 0 1-.91.28s-.07-.03-.1-.05a.7.7 0 0 1-.34-.61l-1.99-.12h-.28l.7-.35 1.36-.58 2.1.5-.54.95zm-6.07-1.01a8.7 8.7 0 0 1 3.88 6.25c3.6-1.6 4.37-.76 5.57-.05l1.42-.9-4.41-8.07z"/></svg>
