<svg xmlns="http://www.w3.org/2000/svg" viewBox="0 0 50.000000 50.000000" preserveAspectRatio="xMidYMid meet"><g transform="translate(0.000000,50.000000) scale(0.100000,-0.100000)" stroke="none"><path d="M0 250 l0 -250 250 0 250 0 0 250 0 250 -250 0 -250 0 0 -250z m323 108 c9 -7 18 -29 20 -49 2 -20 7 -41 11 -47 4 -7 3 -12 -2 -12 -5 0 -5 -23 -1 -52 13 -92 14 -90 -27 -65 -97 60 -96 59 -83 36 6 -12 7 -20 2 -18 -49 21 -112 56 -113 62 0 4 8 7 18 7 20 0 45 56 46 104 1 23 6 30 25 33 14 2 27 6 30 8 9 10 58 5 74 -7z"/><path d="M282 291 c-11 -7 -11 -9 0 -14 9 -3 15 1 15 9 0 8 -1 14 -1 14 -1 0 -7 -4 -14 -9z"/><path d="M236 267 c3 -10 9 -15 12 -12 3 3 0 11 -7 18 -10 9 -11 8 -5 -6z"/></g></svg>
