<svg xmlns="http://www.w3.org/2000/svg" preserveAspectRatio="xMinYMin" viewBox="0 478.9 116.7 116.7" class="heise-online-logo topnavigation__heiseonline-logo" width="116.7" height="116.7"><path d="M99.85 557l-4.2-3.6c5.1-6.3 8.4-15.4 8.4-23.4 0-24.4-19.1-40.3-42.7-40.3-31.6 0-42.7 25-42.7 52.9 0 24.6 18.2 45.1 43.3 45.1 13.2 0 24.9-3.9 35.7-11.3 2.1-1.4 3.9-3.1 5.8-4.9l2.4 3.6c-10.1 12.4-27.3 20.5-43.3 20.5-32.6 0-59.5-23.7-59.5-57.2 0-33.9 24.8-59.5 58.9-59.5 28.3 0 51.7 17.8 51.7 47.5 0 10.9-5.8 23.1-13.8 30.6zm-30.1-40.6l-18.9 43.1c-1.6 3.6-3.9 7.8-8.6 7.8-3.3 0-5.9-2.4-5.9-5.8 0-2.7 1.3-5.1 2.3-7.3l20.5-46.7c1.6-3.5 3.5-6.2 7.6-6.2 3.3 0 5.8 2.4 5.8 5.8 0 3.2-1.4 6.4-2.8 9.3zm15.1 26.2l-7.6 16.9c-1.7 3.6-4.1 7.7-8.6 7.7-3.3 0-5.8-2.4-5.8-5.8 0-2.5 1.2-4.9 2.3-7.2l9.2-20.5c1.6-3.3 3.5-6.2 7.6-6.2 3.3 0 5.8 2.4 5.8 5.8-.2 3.3-1.6 6.4-2.9 9.3z"/></svg>