<svg viewBox="0 0 90 90" xmlns="http://www.w3.org/2000/svg"><path d="M66.969 12.718H36.773V53.25H53.25V36.774H40.796V24.056h18.488a6.58 6.58 0 0 1 4.724 1.969 6.638 6.638 0 0 1 1.966 4.73v35.212H30.738a6.583 6.583 0 0 1-4.723-1.969 6.678 6.678 0 0 1-1.967-4.73V0h42.92c6.352 0 12.093 2.58 16.274 6.766C87.401 10.93 90 16.701 90 23.038V83.8c0 3.417-2.78 6.2-6.193 6.2H23.031c-6.351 0-12.092-2.58-16.273-6.766A22.915 22.915 0 0 1 0 66.963v-42.93h20.002v12.718h-7.3v30.212a10.29 10.29 0 0 0 3.029 7.286 10.264 10.264 0 0 0 7.278 3.033h54.244V23.038a10.29 10.29 0 0 0-3.029-7.287c-1.854-1.856-4.407-3.033-7.255-3.033Z" fill="#22AD01"/></svg>