<svg id="svg" version="1.1" xmlns="http://www.w3.org/2000/svg" xmlns:xlink="http://www.w3.org/1999/xlink" width="400" height="400" viewBox="0, 0, 400,400"><g id="svgg"><path id="path0" d="M351.653 119.200 C 350.607 123.409,347.282 137.409,346.998 138.800 C 346.841 139.570,345.312 145.960,343.599 153.000 C 341.887 160.040,340.360 166.570,340.206 167.512 L 339.926 169.224 345.263 169.112 L 350.600 169.000 351.489 145.600 C 351.978 132.730,352.338 121.030,352.289 119.600 L 352.200 117.000 351.653 119.200 M300.710 137.194 C 292.850 137.333,286.354 137.527,286.273 137.624 C 286.111 137.819,285.831 139.762,281.204 172.800 C 279.433 185.450,276.618 205.340,274.950 217.000 C 273.281 228.660,271.767 239.460,271.585 241.000 C 271.403 242.540,270.791 247.024,270.225 250.965 C 269.659 254.905,269.270 258.203,269.360 258.293 C 269.606 258.539,310.054 257.679,310.311 257.423 C 310.573 257.160,313.098 239.632,312.902 239.435 C 312.828 239.362,307.535 239.395,301.139 239.510 L 289.510 239.718 289.748 238.559 C 289.879 237.922,290.172 235.837,290.401 233.927 C 290.629 232.017,291.622 224.865,292.608 218.033 C 293.594 211.202,294.400 205.456,294.400 205.263 C 294.400 205.071,298.398 204.753,303.285 204.557 L 312.171 204.200 313.450 195.405 C 314.154 190.568,314.636 186.458,314.522 186.273 C 314.407 186.088,310.463 186.066,305.757 186.224 C 298.578 186.466,297.200 186.423,297.202 185.956 C 297.207 184.873,301.526 155.141,301.705 154.962 C 301.805 154.862,306.854 154.666,312.926 154.526 L 323.964 154.273 324.187 153.236 C 324.506 151.747,326.388 138.334,326.395 137.500 C 326.401 136.709,327.396 136.721,300.710 137.194 M264.400 137.982 L 259.000 138.200 252.800 152.702 C 249.390 160.679,245.078 170.797,243.218 175.187 C 241.358 179.577,239.771 183.104,239.691 183.024 C 239.518 182.852,239.621 182.080,242.997 158.142 C 244.429 147.990,245.600 139.395,245.600 139.042 C 245.600 138.472,244.614 138.400,236.836 138.400 L 228.072 138.400 227.640 141.100 C 227.095 144.510,222.577 176.364,218.605 204.800 C 214.160 236.630,211.221 257.274,210.989 258.300 L 210.785 259.200 219.792 259.200 C 224.747 259.200,228.800 259.085,228.800 258.943 C 228.800 257.052,235.944 208.210,236.185 208.453 C 236.265 208.534,237.265 215.170,238.406 223.200 C 239.548 231.230,241.147 242.480,241.961 248.200 L 243.439 258.600 252.292 258.594 C 257.161 258.591,261.274 258.460,261.431 258.303 C 261.588 258.145,261.138 253.918,260.430 248.908 C 258.742 236.957,255.044 211.522,253.792 203.250 C 252.446 194.362,252.358 195.025,255.976 186.705 C 257.723 182.687,262.387 171.840,266.340 162.600 C 270.292 153.360,274.263 144.127,275.163 142.082 C 276.063 140.037,276.800 138.192,276.800 137.982 C 276.800 137.590,274.125 137.590,264.400 137.982 M191.600 139.179 L 183.000 139.400 180.713 148.200 C 179.456 153.040,176.905 162.850,175.044 170.000 C 173.184 177.150,170.293 188.310,168.620 194.800 C 166.947 201.290,164.599 210.290,163.402 214.800 C 162.205 219.310,160.411 226.240,159.415 230.200 C 158.419 234.160,157.145 239.110,156.585 241.200 C 156.024 243.290,154.758 248.150,153.772 252.000 C 152.786 255.850,151.874 259.339,151.746 259.753 C 151.535 260.435,167.227 260.461,167.946 259.780 C 168.058 259.673,170.592 249.394,172.205 242.500 C 172.413 241.610,172.490 241.600,179.271 241.600 L 186.126 241.600 185.883 250.608 L 185.640 259.616 194.120 259.508 L 202.600 259.400 202.687 251.600 C 202.735 247.310,203.046 224.000,203.379 199.800 C 203.712 175.600,204.033 152.020,204.092 147.400 L 204.200 139.000 202.200 138.979 C 201.100 138.968,196.330 139.058,191.600 139.179 M135.600 140.104 C 124.930 140.307,116.137 140.535,116.060 140.610 C 115.820 140.844,113.567 157.301,113.714 157.743 C 113.808 158.023,116.930 158.123,123.127 158.046 C 128.227 157.982,132.400 158.081,132.401 158.265 C 132.402 158.641,129.894 176.525,125.201 209.600 C 123.469 221.810,121.222 237.740,120.209 245.000 C 119.196 252.260,118.264 258.788,118.138 259.508 L 117.908 260.816 126.854 260.708 L 135.800 260.600 138.279 243.000 C 141.773 218.195,144.635 197.970,146.006 188.400 C 146.652 183.890,147.823 175.610,148.607 170.000 C 149.391 164.390,150.124 159.327,150.237 158.748 L 150.442 157.697 159.762 157.405 L 169.082 157.114 170.177 149.257 C 170.779 144.936,171.365 140.995,171.479 140.500 L 171.687 139.600 163.343 139.667 C 158.755 139.704,146.270 139.900,135.600 140.104 M76.837 140.627 C 65.034 142.781,59.462 152.945,59.420 172.400 C 59.399 181.890,61.271 187.798,67.597 198.200 C 78.932 216.838,80.505 221.718,78.816 233.000 C 77.375 242.632,75.120 246.011,70.485 245.488 C 65.708 244.950,65.375 242.909,67.568 227.614 C 68.465 221.352,69.200 215.907,69.200 215.514 C 69.200 214.743,52.313 214.369,51.843 215.131 C 51.362 215.909,48.000 241.710,48.000 244.626 C 48.000 257.804,57.325 264.496,73.344 262.812 C 88.631 261.204,95.078 253.368,97.628 233.293 C 99.562 218.067,98.780 215.414,83.561 185.600 C 78.221 175.139,77.588 173.283,77.615 168.176 C 77.657 160.148,80.403 155.386,84.544 156.163 C 88.312 156.870,88.703 159.084,87.076 170.519 L 85.784 179.600 94.269 179.600 C 98.935 179.600,102.839 179.461,102.944 179.290 C 103.677 178.105,106.052 158.199,105.914 154.400 C 105.617 146.201,101.653 141.677,93.684 140.440 C 89.892 139.852,80.516 139.956,76.837 140.627 " stroke="none" fill="#fafafa" fill-rule="evenodd"></path><path id="path1" d="M0.000 200.000 L 0.000 400.000 200.000 400.000 L 400.000 400.000 400.000 200.000 L 400.000 0.000 200.000 0.000 L 0.000 0.000 0.000 200.000 M351.489 145.600 L 350.600 169.000 345.263 169.112 L 339.926 169.224 340.206 167.512 C 340.360 166.570,341.887 160.040,343.599 153.000 C 345.312 145.960,346.841 139.570,346.998 138.800 C 347.282 137.409,350.607 123.409,351.653 119.200 L 352.200 117.000 352.289 119.600 C 352.338 121.030,351.978 132.730,351.489 145.600 M326.395 137.500 C 326.388 138.334,324.506 151.747,324.187 153.236 L 323.964 154.273 312.926 154.526 C 306.854 154.666,301.805 154.862,301.705 154.962 C 301.526 155.141,297.207 184.873,297.202 185.956 C 297.200 186.423,298.578 186.466,305.757 186.224 C 310.463 186.066,314.407 186.088,314.522 186.273 C 314.636 186.458,314.154 190.568,313.450 195.405 L 312.171 204.200 303.285 204.557 C 298.398 204.753,294.400 205.071,294.400 205.263 C 294.400 205.456,293.594 211.202,292.608 218.033 C 291.622 224.865,290.629 232.017,290.401 233.927 C 290.172 235.837,289.879 237.922,289.748 238.559 L 289.510 239.718 301.139 239.510 C 307.535 239.395,312.828 239.362,312.902 239.435 C 313.098 239.632,310.573 257.160,310.311 257.423 C 310.054 257.679,269.606 258.539,269.360 258.293 C 269.270 258.203,269.659 254.905,270.225 250.965 C 270.791 247.024,271.403 242.540,271.585 241.000 C 271.767 239.460,273.281 228.660,274.950 217.000 C 276.618 205.340,279.433 185.450,281.204 172.800 C 285.831 139.762,286.111 137.819,286.273 137.624 C 286.403 137.468,304.644 137.069,320.700 136.870 C 325.891 136.806,326.400 136.863,326.395 137.500 M276.800 137.982 C 276.800 138.192,276.063 140.037,275.163 142.082 C 274.263 144.127,270.292 153.360,266.340 162.600 C 262.387 171.840,257.723 182.687,255.976 186.705 C 252.358 195.025,252.446 194.362,253.792 203.250 C 255.044 211.522,258.742 236.957,260.430 248.908 C 261.138 253.918,261.588 258.145,261.431 258.303 C 261.274 258.460,257.161 258.591,252.292 258.594 L 243.439 258.600 241.961 248.200 C 241.147 242.480,239.548 231.230,238.406 223.200 C 237.265 215.170,236.265 208.534,236.185 208.453 C 235.944 208.210,228.800 257.052,228.800 258.943 C 228.800 259.085,224.747 259.200,219.792 259.200 L 210.785 259.200 210.989 258.300 C 211.221 257.274,214.160 236.630,218.605 204.800 C 222.577 176.364,227.095 144.510,227.640 141.100 L 228.072 138.400 236.836 138.400 C 244.614 138.400,245.600 138.472,245.600 139.042 C 245.600 139.395,244.429 147.990,242.997 158.142 C 239.621 182.080,239.518 182.852,239.691 183.024 C 239.771 183.104,241.358 179.577,243.218 175.187 C 245.078 170.797,249.390 160.679,252.800 152.702 L 259.000 138.200 264.400 137.982 C 274.125 137.590,276.800 137.590,276.800 137.982 M204.092 147.400 C 204.033 152.020,203.712 175.600,203.379 199.800 C 203.046 224.000,202.735 247.310,202.687 251.600 L 202.600 259.400 194.120 259.508 L 185.640 259.616 185.883 250.608 L 186.126 241.600 179.271 241.600 C 172.490 241.600,172.413 241.610,172.205 242.500 C 170.592 249.394,168.058 259.673,167.946 259.780 C 167.227 260.461,151.535 260.435,151.746 259.753 C 151.874 259.339,152.786 255.850,153.772 252.000 C 154.758 248.150,156.024 243.290,156.585 241.200 C 157.145 239.110,158.419 234.160,159.415 230.200 C 160.411 226.240,162.205 219.310,163.402 214.800 C 164.599 210.290,166.947 201.290,168.620 194.800 C 170.293 188.310,173.184 177.150,175.044 170.000 C 176.905 162.850,179.456 153.040,180.713 148.200 L 183.000 139.400 191.600 139.179 C 196.330 139.058,201.100 138.968,202.200 138.979 L 204.200 139.000 204.092 147.400 M171.479 140.500 C 171.365 140.995,170.779 144.936,170.177 149.257 L 169.082 157.114 159.762 157.405 L 150.442 157.697 150.237 158.748 C 150.124 159.327,149.391 164.390,148.607 170.000 C 147.823 175.610,146.652 183.890,146.006 188.400 C 144.635 197.970,141.773 218.195,138.279 243.000 L 135.800 260.600 126.854 260.708 L 117.908 260.816 118.138 259.508 C 118.264 258.788,119.196 252.260,120.209 245.000 C 121.222 237.740,123.469 221.810,125.201 209.600 C 129.894 176.525,132.402 158.641,132.401 158.265 C 132.400 158.081,128.227 157.982,123.127 158.046 C 116.930 158.123,113.808 158.023,113.714 157.743 C 113.567 157.301,115.820 140.844,116.060 140.610 C 116.218 140.455,150.599 139.770,163.343 139.667 L 171.687 139.600 171.479 140.500 M93.684 140.440 C 101.653 141.677,105.617 146.201,105.914 154.400 C 106.052 158.199,103.677 178.105,102.944 179.290 C 102.839 179.461,98.935 179.600,94.269 179.600 L 85.784 179.600 87.076 170.519 C 88.703 159.084,88.312 156.870,84.544 156.163 C 80.403 155.386,77.657 160.148,77.615 168.176 C 77.588 173.283,78.221 175.139,83.561 185.600 C 98.780 215.414,99.562 218.067,97.628 233.293 C 95.078 253.368,88.631 261.204,73.344 262.812 C 57.325 264.496,48.000 257.804,48.000 244.626 C 48.000 241.710,51.362 215.909,51.843 215.131 C 52.313 214.369,69.200 214.743,69.200 215.514 C 69.200 215.907,68.465 221.352,67.568 227.614 C 65.375 242.909,65.708 244.950,70.485 245.488 C 75.120 246.011,77.375 242.632,78.816 233.000 C 80.505 221.718,78.932 216.838,67.597 198.200 C 61.271 187.798,59.399 181.890,59.420 172.400 C 59.477 146.447,69.877 136.746,93.684 140.440 " stroke="none" fill="#141414" fill-rule="evenodd"></path></g></svg>