<svg xmlns="http://www.w3.org/2000/svg" viewBox="0 0 600 253.42"><path d="M569.2 0c8.5 0 16.2 3.5 21.8 9.1s9 13.4 9 21.9v127.9c0 8.5-3.5 16.3-9 21.9-4.8 4.8-11.2 8.1-18.3 8.9V237c0 11.1-8.9 19.4-19.7 15.4-3.8-1.4-8-4.7-12.1-10.1l-40.8-52.4H30.8c-8.5 0-16.2-3.5-21.8-9.1s-9-13.4-9-21.9V31c0-8.5 3.5-16.3 9-21.9C14.6 3.5 22.3 0 30.8 0zm0 11.6H30.8c-5.3 0-10.1 2.2-13.6 5.7s-5.7 8.4-5.7 13.7v127.9c0 5.3 2.2 10.2 5.7 13.7s8.3 5.7 13.6 5.7H506c16 20.2 31.5 40.8 47.5 61 2.5 3.4 7.8 4 7.7-2.6v-58.4h8.1c5.3 0 10.1-2.2 13.6-5.7s5.7-8.4 5.7-13.7V31c0-5.3-2.2-10.2-5.7-13.7-3.6-3.5-8.4-5.7-13.7-5.7zm-29.3 23.9c10.9 0 19.8 9 19.8 20.1v81.5c0 11-8.9 20.1-19.8 20.1H249.2c-10.9 0-19.8-9-19.8-20.1V55.6c0-11 8.9-20.1 19.8-20.1zM162.5 45.6c4.6 0 8.9.5 13 1.5 4 1 7.6 2.6 10.7 4.9s5.5 5.3 7.2 9c1.7 3.8 2.6 8.5 2.6 14.1 0 8.1-1.8 14.4-5.3 19s-7.9 7.6-13.2 9.2l18.5 34.3c.3.4.5.8.6 1.2s.1.8.1 1.1c0 1.1-.4 2.3-1.1 3.5s-1.6 2.2-2.7 3.1-2.3 1.6-3.7 2.2-2.7.8-4 .8-2.5-.4-3.6-1.1c-1.1-.8-2-1.8-2.8-3.2l-20.1-39h-11.9V143c0 1.9-.9 3.3-2.8 4.3s-4 1.5-6.4 1.5c-2.3 0-4.4-.5-6.3-1.5s-2.9-2.4-2.9-4.3V51.2c0-1.5.5-2.8 1.6-3.9s2.5-1.7 4.3-1.7zm-55.5 0c1.2 0 2.5.2 3.9.6s2.6.9 3.7 1.6 2.1 1.5 2.8 2.4 1.1 1.9 1.1 3c0 .2-.1.7-.3 1.4l-26.9 88.7c-.7 2.2-2.1 3.7-4.4 4.7-2.2 1-4.7 1.5-7.4 1.5s-5.2-.5-7.4-1.5-3.7-2.6-4.4-4.7L40.6 54.6c-.2-.8-.3-1.2-.3-1.4 0-1.1.4-2.2 1.1-3.1s1.7-1.7 2.8-2.4 2.4-1.2 3.7-1.6c1.4-.4 2.6-.6 3.9-.6 1.6 0 2.9.3 4 .8 1.1.6 1.8 1.5 2.2 2.8l21.5 76.4 21.3-76.4c.4-1.3 1.1-2.3 2.2-2.8 1.1-.4 2.4-.7 4-.7zm170.1-.4c-4.4 0-8.5.6-12.4 1.8s-7.3 3-10.2 5.6c-2.9 2.5-5.2 5.8-6.9 9.9s-2.6 9.1-2.6 15v39.2c0 5.9.8 10.9 2.5 15s4 7.4 6.9 9.9 6.3 4.4 10.2 5.6 8 1.8 12.4 1.8c4.8 0 9.3-.7 13.3-2s7.6-3.2 10.6-5.6 5.3-5.3 6.9-8.8 2.4-7.3 2.4-11.5c0-3.6-.7-6-2.2-7.2s-3.8-1.8-6.9-1.8c-2.4 0-4.4.4-6.1 1.3-1.7.8-2.6 2.3-2.8 4.5-.1 1.5-.3 3.1-.6 4.9-.3 1.7-.9 3.4-1.9 4.9-.9 1.5-2.3 2.8-4.2 3.8s-4.4 1.5-7.5 1.5c-4.8 0-8.5-1.3-11-3.9s-3.8-6.7-3.8-12.2V77.7c0-5.5 1.3-9.6 3.8-12.2s6.1-3.9 10.8-3.9c3.3 0 5.9.5 7.8 1.5s3.3 2.3 4.2 3.8c1 1.5 1.6 3 1.9 4.6.3 1.5.5 2.9.6 4 .1 2.2 1 3.7 2.6 4.5 1.7.8 3.8 1.3 6.4 1.3 3.1 0 5.3-.6 6.8-1.8s2.2-3.6 2.2-7.2c0-4-.8-7.7-2.4-11s-3.9-6.1-6.8-8.4-6.4-4.1-10.5-5.3c-4.2-1.7-8.7-2.4-13.5-2.4zm104.7 0c-2.3 0-4.4.4-6.3 1.3s-2.8 2.3-2.8 4.3v36.7h-31.3V50.8c0-2-.9-3.4-2.8-4.3s-4-1.3-6.2-1.3c-2.3 0-4.4.4-6.3 1.3s-2.8 2.3-2.8 4.3v91.4c0 1.9.9 3.3 2.8 4.3s3.9 1.5 6.3 1.5c2.2 0 4.3-.5 6.2-1.5s2.8-2.4 2.8-4.3v-40.4h31.3v40.4c0 1.9.9 3.3 2.8 4.3s3.9 1.5 6.3 1.5c2.2 0 4.3-.5 6.2-1.5s2.8-2.4 2.8-4.3V50.8c0-2-.9-3.4-2.8-4.3-2-.8-4-1.3-6.2-1.3zm58.2-.8c-2.6 0-5 .5-7.2 1.5s-3.7 2.6-4.3 4.7l-26.8 88.5c-.2.8-.3 1.2-.3 1.4 0 1.1.4 2.2 1.1 3.1s1.7 1.7 2.8 2.4 2.3 1.2 3.7 1.5c1.3.4 2.6.6 3.8.6 1.6 0 2.9-.3 4-.8 1.1-.6 1.8-1.5 2.2-2.8l5.3-18.7h31.8l5.3 18.7c.4 1.3 1.1 2.2 2.2 2.8s2.4.8 4 .8c1.2 0 2.5-.2 3.8-.6s2.6-.9 3.7-1.6 2-1.5 2.8-2.4 1.1-1.9 1.1-3c0-.2-.1-.7-.3-1.4l-26.8-88.5c-.6-2.2-2.1-3.7-4.3-4.7-2.4-1-4.9-1.5-7.6-1.5zm99 .8h-58.8c-1.9 0-3.4.9-4.3 2.6s-1.4 3.6-1.4 5.6c0 2.3.5 4.2 1.5 5.8s2.4 2.5 4.2 2.5h20.4v80.6c0 1.9.9 3.3 2.8 4.3s3.9 1.5 6.3 1.5c2.2 0 4.3-.5 6.2-1.5s2.8-2.4 2.8-4.3V61.7H539c1.8 0 3.3-.8 4.2-2.5 1-1.7 1.5-3.6 1.5-5.8 0-2-.5-3.8-1.4-5.6-.9-1.7-2.4-2.6-4.3-2.6zm-99 23 12.1 43.2h-24.2zm-277.5-6.5H147v30.1h16.7c4-.2 7.3-1.3 9.8-3.3 2.7-2.2 4.1-6.1 4.1-11.6 0-5.6-1.4-9.5-4.1-11.7-2.7-2.4-6.4-3.5-11-3.5z"/></svg>