<svg xmlns="http://www.w3.org/2000/svg" version="1.1" id="layer" x="0" y="0" xml:space="preserve" width="500" height="500"><style type="text/css" id="style2887"></style><linearGradient id="SVGID_1_" gradientUnits="userSpaceOnUse" x1="413.258" y1="390.977" x2="409.576" y2="-114.011" gradientTransform="matrix(1 0 0 -1 -183.93 384.015)"><stop offset="0" id="stop2889" stop-color="#2bc0d3"/><stop offset=".023" id="stop2891" stop-color="#36c1d4"/><stop offset=".111" id="stop2893" stop-color="#2bc0d3"/><stop offset=".232" id="stop2895" stop-color="#12bed3"/><stop offset=".355" id="stop2897" stop-color="#00bbd1"/><stop offset=".645" id="stop2899" stop-color="#03a0be"/><stop offset=".805" id="stop2901" stop-color="#148eb2"/><stop offset=".903" id="stop2903" stop-color="#178bb0"/><stop offset="1" id="stop2905" stop-color="#1a86ac"/></linearGradient><g id="g3469" transform="translate(22.24 -.043)"><path id="path2908" d="M19.024.285l418.6-.2s17.5.2 17.8 16.9c.2 11.5 0 393.6 0 393.6s2.5 19.7-18 20.6c-20.5.8-335 .8-335 .8l-.2 62s1.8 8.3-4.3 5.4l-51.8-66.9-28.9-.5s-16.8-1.7-16.8-17.4c0-14.8-.4-399.3-.4-399.3s-1.5-14.8 19-15z" fill="url(#SVGID_1_)"/><path id="path2910" d="M45.524 102.085l16.9-.2v43.3h51.7l-.2-42.9h16.9l.2 102.7-17.1.2v-44.5l-51.5.2.4 44.1-17.5.2zm135.6 24c-40.8.4-38.3 39.8-38.3 39.8s-.8 40.6 38.6 40.8c0 0 22 .7 32.4-13.8l-9.4-8.7s-10 9-21.3 8.8c-11.3-.2-23.5-8.6-23.5-20.6l58-.2s4.3-46.5-36.5-46.1zm-1.2 13.4c18.8.1 20.8 21.2 20.8 21.2l-41.2.1s2.1-21.4 20.4-21.3zm49.6-41.1h16.8l-.1 106.4h-16.5zm34.1.3h16.8l-.2 106.4h-16.5zm69.5 26.7c-22.6 0-40.8 18.2-40.8 40.7 0 22.5 18.3 40.7 40.8 40.7 22.6 0 40.8-18.2 40.8-40.7 0-22.4-18.3-40.7-40.8-40.7zm-1.3 14.5h1.3c14 0 25.2 11.7 25.2 26.3 0 14.5-11.3 26.3-25.2 26.3-13.9 0-25.3-11.8-25.3-26.3 0-14.1 10.6-25.6 24-26.3zm-286.1 85.2v88c0 2.6 20.4 20.4 40.5 20.1 20.1-.3 41.4-9 42-38.5.6-29.4-17.2-43.2-36.5-43.2s-29.2 9-29.2 9l-.6-35.5zm43.9 41.3c14.3.3 24.1 14.3 23.9 26.2-.1 12.8-9.6 25.5-24.8 25.5-16 0-26.3-8.7-26.3-8.7l-.2-35.3s11.8-8.1 27.4-7.7zm82-14.8c-16.7 0-29.5 6.8-29.5 6.8l4.5 13s8.9-5 23.3-5c19.8 0 18.4 18.1 18.4 18.1-6.8-3.7-21.6-3.5-21.6-3.5-30.5.4-31.4 23.3-31.2 27.6.2 3.7-.2 24.8 34.7 23.7 34.8-1 34.4-24.2 34.4-24.2s.8-15.5-.6-31.3c-1.4-15.9-15.7-25.2-32.4-25.2zm1 42c5.2.1 10.7.1 13.8 1.3 2.3.9 3 2.2 2.9 5.1-.1 5.2.8 7.6-2 11.4-2.4 5-12 8.7-18.8 8.8-10.3.2-18.8-4.9-18.8-13.2 0-8.2 8.7-13 19-13.4h3.9zm44.5-40.2h16.6v12.8s8.3-15.2 26.5-14.9c18.2.3 25.5 15 25.7 22.2.1 7.1.3 56.6.3 56.6h-16.3l.1-50.6s-3.5-13.3-17.6-12.8c-14.2.4-18.5 11.8-18.5 14.1 0 2.3-.1 49.3-.1 49.3h-16.5zm83.7-28.5h16.6l.1 64 33.2-35.7h20.6l-30.5 32.1 32.8 45.6-20.7.1-23.6-34.3-12.1 12.4.1 21.7-16.6-.1zm92.5 79.6l-.3-79.9h16.3l.1 79.9zm0 26.3l-.3-14.7h16.3l.1 14.7z" fill="#1b83aa"/><path id="path2912" d="M45.524 104.385l16.9-.2v43.3h51.7l-.2-42.9h16.9l.2 102.7-17.1.2v-44.5l-51.5.2.4 44.1-17.5.2zm135.6 23.9c-40.8.4-38.3 39.8-38.3 39.8s-.8 40.6 38.6 40.8c0 0 22 .7 32.4-13.8l-9.4-8.7s-10 9-21.3 8.8c-11.3-.2-23.5-8.6-23.5-20.6l58-.2c0 .1 4.3-46.5-36.5-46.1zm-1.2 13.5c18.8.1 20.8 21.2 20.8 21.2l-41.2.1s2.1-21.5 20.4-21.3zm49.6-41.1h16.8l-.2 106.4h-16.5zm34.1.3h16.8l-.2 106.4h-16.5zm69.5 26.7c-22.6 0-40.8 18.2-40.8 40.7 0 22.5 18.3 40.7 40.8 40.7 22.6 0 40.8-18.2 40.8-40.7 0-22.5-18.3-40.7-40.8-40.7zm-1.3 14.5h1.3c14 0 25.2 11.7 25.2 26.3 0 14.6-11.3 26.3-25.2 26.3-13.9 0-25.3-11.8-25.3-26.3 0-14.1 10.6-25.6 24-26.3zm-286.1 85.2v88c0 2.6 20.4 20.4 40.5 20.1 20.1-.3 41.4-9 42-38.5.6-29.4-17.2-43.2-36.5-43.2s-29.2 9-29.2 9l-.6-35.5zm43.9 41.2c14.3.3 24.1 14.3 23.9 26.2-.1 12.8-9.6 25.5-24.8 25.5-16 0-26.3-8.7-26.3-8.7l-.3-35.3c.1 0 11.9-8 27.5-7.7zm82-14.7c-16.7 0-29.5 6.8-29.5 6.8l4.5 13s8.9-5 23.3-5c19.8 0 18.4 18.1 18.4 18.1-6.8-3.7-21.6-3.5-21.6-3.5-30.5.4-31.4 23.3-31.2 27.6.2 3.7-.2 24.8 34.7 23.7 34.8-1 34.4-24.2 34.4-24.2s.8-15.5-.6-31.3c-1.4-15.9-15.7-25.2-32.4-25.2zm1 42c5.2.1 10.7.1 13.8 1.3 2.3.9 3 2.2 2.9 5.1-.1 5.2.8 7.6-2 11.4-2.4 5-12 8.7-18.8 8.8-10.3.2-18.8-4.9-18.8-13.2 0-8.2 8.7-13 19-13.4h3.9zm44.5-40.3h16.6v12.8s8.3-15.2 26.5-14.9c18.2.3 25.5 15 25.7 22.2.1 7.1.3 56.6.3 56.6h-16.3l.1-50.6s-3.5-13.3-17.6-12.8c-14.2.4-18.5 11.8-18.5 14.1 0 2.3-.1 49.3-.1 49.3h-16.5zm83.7-28.4h16.6l.1 64 33.2-35.7h20.6l-30.5 32.1 32.8 45.6-20.7.1-23.5-34.2-12.1 12.4.1 21.7-16.6-.1zm92.5 79.6l-.3-79.9h16.3l.1 79.9zm0 26.2l-.3-14.7h16.3l.1 14.7z" fill="#fff"/></g></svg>