<svg xmlns="http://www.w3.org/2000/svg" class="logo-svg u-mrg-0" version="1.1" id="svg10347" width="166.1" height="166.1"><style id="style10341"></style><path d="M24.2 97.2l48.6-48.6C79.1 42.4 83 33.7 83 24.2c0-9.4-3.8-18-9.9-24.2L24.5 48.6C18.2 54.8 14.3 63.5 14.3 73c0 9.5 3.8 18 9.9 24.2zm117.7-28.4l-48.6 48.6c-6.3 6.2-10.2 14.9-10.2 24.4 0 9.4 3.8 18 9.9 24.2l48.6-48.6c6.3-6.2 10.2-14.9 10.2-24.4 0-9.5-3.8-18-9.9-24.2zm-.3-20.1c6.3-6.2 10.2-14.9 10.2-24.4 0-9.4-3.8-18-9.9-24.2L24.5 117.4c-6.3 6.3-10.2 14.9-10.2 24.5 0 9.4 3.8 18 9.9 24.2z" id="path10345" fill="#1292ee"/></svg>