<svg xmlns="http://www.w3.org/2000/svg" viewBox="60 -8 40 40" width="40" height="40"><path d="M94.35-8h-28.7c-2 0-3.6 1.6-3.6 3.6v32.8c0 2 1.6 3.6 3.6 3.6h28.7c2 0 3.6-1.6 3.6-3.6V-4.4c0-2-1.6-3.6-3.6-3.6zm1.6 36.4c0 .9-.7 1.6-1.6 1.6h-28.7c-.9 0-1.6-.7-1.6-1.6V-4.4c0-.9.7-1.6 1.6-1.6h28.7c.9 0 1.6.7 1.6 1.6zM71.05 26l4.5-4-4.5-4zm16.2-16.2c-.8-.8-2.3-1.8-4.8-1.8-2.7 0-5.5.7-7.5 1.4V-2h-4v17.3l2.8-1.3s4.6-2.1 8.6-2.1c2 0 2.5 1.1 2.5 2.1v12h4V14c.1-.3.1-2.5-1.6-4.2zm-5.3-5.3h4c1.8-2.1 2.7-4.2 3-6.5h-4c-.4 2.3-1.4 4.4-3 6.5z" fill="#430098"/></svg>