<svg xmlns="http://www.w3.org/2000/svg" width="107.939" height="107.939" viewBox="0 0 28.559 28.559"><path d="M25.947 6.827l2.612-2.612H20.129l-2.611 2.612-3.237 3.238-3.176-3.176h-2.72l4.536 4.535 1.36 1.36 1.36-1.36 4.534-4.535h2.99l-6.03 6.03-1.36 1.36 1.36 1.36 6.032 6.031h2.72l-2.66-2.659-4.732-4.732 4.732-4.732zM15.638 17.135l-1.36-1.36-1.36 1.36-4.536 4.536h-2.99l.598-.598 5.433-5.433 1.36-1.36-1.36-1.36L5.99 7.488l-.598-.598h-2.72l2.66 2.659.658.658 4.073 4.074-4.073 4.074-.658.658-2.659 2.659-.06.06L0 24.345h8.429l2.612-2.612 3.237-3.237 3.176 3.175h2.719z" fill="#182a54"/></svg>