<svg xmlns="http://www.w3.org/2000/svg" viewBox="0 0 178.59 178.4" fill="#f80"><path d="M69.448 158.672c10.96 0 19.842 8.887 19.842 19.844H19.84C8.882 178.516 0 169.633 0 158.672v-69.45c10.96 0 19.843 8.884 19.843 19.842l-.002 39.687c0 5.479 4.443 9.921 9.922 9.921h39.685"/><path d="M39.684 128.907c0 5.48 4.443 9.922 9.921 9.922h79.37c5.48 0 9.92-4.443 9.92-9.922V49.535c0-5.48-4.44-9.922-9.92-9.922h-79.37c-5.478 0-9.92 4.443-9.92 9.922v79.372"/><path d="M109.131 19.77c-10.96 0-19.842-8.887-19.842-19.844h69.45c10.958 0 19.84 8.883 19.84 19.844v69.45c-10.96 0-19.843-8.884-19.843-19.842l.002-39.687c0-5.479-4.443-9.921-9.922-9.921h-39.685"/></svg>
