<svg xmlns="http://www.w3.org/2000/svg" width="500" height="259" fill="none"><g fill="#000" clip-path="url(#a)"><path d="m0 179.352 480.282.011V1.003L0 .992v178.36ZM8.187 9.168l463.919.01v161.998l-463.919-.011V9.168Z"/><path d="M128.56 47.626v84.959l6.654.877v4.977h-32.981v-4.977l7.098-.877v-38.68H67.185v38.68l6.51.877v4.977H41.302v-4.977l6.51-.877v-84.97l-6.51-.878v-4.832h32.393v4.832l-6.51.878V83.95h42.146V47.615l-7.098-.878v-4.832h32.981v4.832l-6.654.889ZM173.528 133.173l6.199.878v4.388h-30.316v-4.388l6.221-.878V75.008l-6.221-.866v-4.399h24.117v63.43ZM192.902 134.173l6.065-.844V47.026l-6.065-.856v-4.265h24.105v91.424l6.21.844v4.266h-30.315v-4.266ZM260.042 69.743h16.263v6.443h-16.263v40.869c0 10.542 2.211 13.919 11.831 13.919 3.555 0 6.665 0 9.62-.733v4.687c-8.731 3.078-16.119 4.4-22.339 4.4-13.897 0-17.152-6.299-17.152-18.319V76.186h-12.72v-6.443h13.164V55.391l17.596-5.277v19.629ZM337.992 104.313c0-21.684-6.51-31.204-17.019-31.204-10.198 0-16.718 9.087-16.718 31.204 0 21.829 6.509 30.904 16.718 30.904 10.964 0 17.019-8.631 17.019-30.904Zm19.817.444c0 21.385-14.485 35.737-37.269 35.737-22.04 0-36.092-9.376-36.092-35.748 0-22.117 14.497-36.914 37.269-36.914 22.484 0 36.092 13.342 36.092 36.925ZM440.047 134.051v4.388h-30.316v-4.388l6.066-.878V94.06c0-10.842-3.988-15.675-12.287-15.675-3.843 0-9.909 2.633-14.341 5.71v49.078l6.21.878v4.388h-30.46v-4.388l6.199-.878v-57.72l-6.199-.878v-4.832h24.25v9.52c7.543-6.01 14.786-10.842 24.995-10.842 13.608 0 19.673 7.92 19.673 23.44v41.312l6.21.878ZM174.406 51.58c0 5.344-4.377 9.665-9.765 9.665-5.399 0-9.764-4.332-9.764-9.665 0-5.343 4.365-9.664 9.764-9.664 5.388-.011 9.765 4.321 9.765 9.664ZM500 6.346a6.23 6.23 0 0 1-6.232 6.232 6.23 6.23 0 0 1-6.232-6.232 6.23 6.23 0 0 1 6.232-6.232A6.23 6.23 0 0 1 500 6.346Zm-11.109-.022c0 2.688 2.2 4.876 4.877 4.876 2.666 0 4.877-2.2 4.877-4.876 0-2.677-2.211-4.877-4.877-4.877-2.677 0-4.877 2.2-4.877 4.877Zm7.51-1.056c0 .934-.378 1.522-1.233 1.767l1.466 2.177h-1.333l-1.333-2.01c-.1 0-.211.022-.367.022h-1.155v1.988h-1.177V3.324h2.599c1.789.012 2.533.611 2.533 1.944Zm-3.944 1.045h1.456c.966 0 1.299-.278 1.299-.967s-.333-.955-1.299-.955h-1.456v1.922ZM17.574 255.124h-7.32c-.8 0-1.2-.4-1.2-1.2v-39.735c0-.8.4-1.2 1.2-1.2H36.58c.8 0 1.2.4 1.2 1.2v6.387c0 .8-.4 1.2-1.2 1.2H18.774v10.131h13.43c.8 0 1.2.4 1.2 1.2v5.909c0 .8-.4 1.2-1.2 1.2h-13.43v13.708c0 .8-.4 1.2-1.2 1.2ZM55.654 252.947c-3.343-1.955-5.976-4.599-7.898-7.943-1.933-3.344-2.9-7.021-2.9-11.02 0-3.999.956-7.665 2.878-10.986 1.922-3.333 4.543-5.954 7.887-7.887 3.344-1.933 7.032-2.9 11.098-2.9 4.043 0 7.731.967 11.064 2.9 3.343 1.933 5.976 4.554 7.898 7.887 1.933 3.332 2.9 6.987 2.9 10.986 0 3.999-.967 7.676-2.9 11.02-1.933 3.344-4.566 5.999-7.898 7.943-3.344 1.944-7.032 2.921-11.064 2.921-4.033 0-7.721-.966-11.065-2.921Zm17.041-8.054c1.844-1.1 3.3-2.611 4.388-4.532 1.088-1.922 1.633-4.044 1.633-6.355 0-2.299-.556-4.399-1.644-6.309-1.1-1.911-2.566-3.411-4.41-4.51a11.387 11.387 0 0 0-5.944-1.644c-2.144 0-4.132.555-5.965 1.644-1.844 1.099-3.3 2.599-4.388 4.51-1.088 1.91-1.633 4.01-1.633 6.309 0 2.322.545 4.433 1.644 6.344 1.1 1.91 2.567 3.421 4.41 4.532 1.844 1.111 3.822 1.666 5.944 1.666 2.132 0 4.12-.555 5.965-1.655ZM98.445 253.924v-39.735c0-.8.4-1.2 1.2-1.2h16.674c2.877 0 5.432.6 7.642 1.8 2.222 1.199 3.944 2.866 5.188 5.01 1.244 2.143 1.855 4.598 1.855 7.376 0 2.721-.577 5.043-1.722 6.987-1.155 1.944-2.755 3.499-4.81 4.677l7.376 14.874c.123.245.178.445.178.633 0 .245-.1.434-.289.567-.188.144-.444.211-.766.211h-8.398c-.656 0-1.133-.3-1.411-.9l-5.999-12.864c-.355.023-.888.034-1.588.034h-5.432v12.53c0 .8-.4 1.2-1.2 1.2h-7.32c-.778 0-1.178-.4-1.178-1.2Zm19.929-21.684a5.655 5.655 0 0 0 2.044-2.11 5.984 5.984 0 0 0 .733-2.922c0-1.178-.256-2.188-.744-3.044a4.956 4.956 0 0 0-2.022-1.922c-.856-.433-1.8-.644-2.866-.644h-7.343v11.431h7.254c1.089-.011 2.077-.267 2.944-.789ZM180.982 255.124h-7.321c-.799 0-1.199-.4-1.199-1.2v-31.882h-10.531c-.8 0-1.2-.399-1.2-1.199v-6.654c0-.8.4-1.2 1.2-1.2h30.793c.8 0 1.2.4 1.2 1.2v6.654c0 .8-.4 1.199-1.2 1.199h-10.553v31.882c.011.8-.389 1.2-1.189 1.2ZM213.697 255.124h-7.321c-.799 0-1.199-.4-1.199-1.2v-39.735c0-.8.4-1.2 1.199-1.2h7.321c.8 0 1.2.4 1.2 1.2v14.33h17.118v-14.33c0-.8.4-1.2 1.2-1.2h7.343c.799 0 1.199.4 1.199 1.2v39.735c0 .8-.4 1.2-1.199 1.2h-7.343c-.8 0-1.2-.4-1.2-1.2v-16.107h-17.118v16.107c0 .8-.4 1.2-1.2 1.2ZM285.992 255.124h-28.427c-.8 0-1.2-.4-1.2-1.2v-39.735c0-.8.4-1.2 1.2-1.2h28.005c.8 0 1.2.4 1.2 1.2v6.443c0 .799-.4 1.199-1.2 1.199h-19.485v7.588h14.997c.8 0 1.2.4 1.2 1.199v5.943c0 .8-.4 1.2-1.2 1.2h-14.997v8.521h19.918c.8 0 1.2.399 1.2 1.199v6.443c-.011.8-.411 1.2-1.211 1.2ZM325.172 253.98a20.843 20.843 0 0 1-7.365-5.31c-.244-.278-.355-.544-.355-.811 0-.3.155-.6.444-.9l4.621-4.443c.256-.256.533-.389.811-.389.322 0 .611.155.867.444 1.344 1.378 2.855 2.422 4.554 3.133 1.7.711 3.444 1.066 5.243 1.066 1.922 0 3.389-.355 4.422-1.066 1.033-.711 1.544-1.689 1.544-2.922 0-.844-.233-1.555-.7-2.144-.467-.588-1.278-1.144-2.433-1.666-1.155-.522-2.799-1.089-4.932-1.711-3.477-.999-6.499-2.521-9.054-4.554-2.555-2.044-3.843-4.877-3.843-8.521 0-2.177.555-4.176 1.677-5.998 1.122-1.822 2.8-3.277 5.044-4.366 2.243-1.089 4.965-1.633 8.187-1.633 2.721 0 5.321.489 7.809 1.455a23.52 23.52 0 0 1 6.676 3.944c.3.244.445.522.445.844 0 .278-.123.556-.356.844l-4.232 4.799c-.256.322-.556.478-.867.478-.255 0-.533-.111-.811-.333-1.155-.9-2.488-1.655-3.977-2.266-1.488-.611-2.954-.911-4.387-.911-1.645 0-2.922.277-3.855.822-.933.555-1.4 1.355-1.4 2.41 0 .845.267 1.533.811 2.089.544.555 1.255 1.022 2.144 1.411.889.388 2.222.877 3.999 1.455.078.022.333.1.744.244 2.878.956 5.255 1.989 7.132 3.088 1.878 1.1 3.344 2.455 4.41 4.077 1.056 1.622 1.589 3.599 1.589 5.943 0 2.655-.656 4.988-1.944 6.988-1.3 1.999-3.133 3.543-5.488 4.621-2.355 1.077-5.076 1.622-8.154 1.622-3.177 0-6.187-.611-9.02-1.833ZM377.794 255.124h-7.321c-.8 0-1.199-.4-1.199-1.2v-31.882h-10.531c-.8 0-1.2-.399-1.2-1.199v-6.654c0-.8.4-1.2 1.2-1.2h30.793c.799 0 1.199.4 1.199 1.2v6.654c0 .8-.4 1.199-1.199 1.199h-10.554v31.882c.012.8-.388 1.2-1.188 1.2ZM433.748 254.258c0 .277-.089.499-.267.644-.177.155-.433.222-.744.222h-7.531c-.678 0-1.134-.333-1.345-.989l-2.221-6.176h-16.108l-2.188 6.176c-.2.656-.656.989-1.344.989h-7.532c-.322 0-.578-.078-.767-.222a.791.791 0 0 1-.288-.644c0-.156.033-.334.088-.511l15.475-39.858c.244-.645.7-.956 1.377-.956h6.51c.7 0 1.166.323 1.411.956l15.385 39.858c.067.177.089.344.089.511Zm-14.897-14.486-4.799-13.53-.477-1.711-.422 1.711-4.799 13.53h10.497ZM457.565 255.124h-7.343c-.8 0-1.2-.4-1.2-1.2v-15.207l-13.83-24.295c-.122-.244-.178-.456-.178-.655 0-.245.089-.434.267-.567.178-.144.433-.211.744-.211h8.632c.655 0 1.133.3 1.411.9l7.887 15.741 7.676-15.741c.3-.6.766-.9 1.411-.9h8.664c.322 0 .567.067.745.211a.696.696 0 0 1 .266.567c0 .199-.055.422-.178.655l-13.796 24.228v15.263c.022.811-.378 1.211-1.178 1.211ZM481.093 220.687c0 .122-.067.189-.189.189h-1.122c-.122 0-.189-.067-.189-.189v-6.243h-2.077c-.122 0-.189-.066-.189-.189v-1.022c0-.122.067-.189.189-.189h5.677c.055 0 .111.012.144.045.033.033.045.078.045.133v1.022c0 .056-.023.1-.045.134a.192.192 0 0 1-.144.055h-2.089v6.254h-.011ZM485.77 220.687c0 .122-.067.189-.189.189h-1.089c-.122 0-.188-.067-.188-.189v-7.454c0-.122.066-.189.188-.189h1.678c.111 0 .189.056.222.156l1.644 4.388.056.378h.022l.055-.378 1.633-4.388a.218.218 0 0 1 .222-.156h1.689c.122 0 .189.067.189.189v7.454c0 .122-.067.189-.189.189h-1.089c-.122 0-.188-.067-.188-.189v-4.921l.033-.378h-.022l-.089.389-1.522 3.922c-.033.1-.111.155-.222.155h-1.011c-.111 0-.178-.055-.211-.155l-1.533-3.922-.078-.389h-.022l.033.378-.022 4.921Z"/></g><defs><clipPath id="a"><path fill="#fff" d="M0 .114h500v258.772H0z"/></clipPath></defs></svg>
