<svg xmlns="http://www.w3.org/2000/svg" viewBox="0 0 495.5 177.6"><path fill="#fff" stroke="#000" stroke-width="8.4" d="M3 3h463v160H3z"/><path d="M495.5 6.2a6.2 6.2 0 1 1-12.5 0 6.2 6.2 0 0 1 12.5 0zm-11.1 0c0 2.7 2.2 4.9 4.8 4.9a5 5 0 0 0 5-4.9 5 5 0 0 0-5-4.9 4.9 4.9 0 0 0-4.8 5zm7.5-1c0 .9-.4 1.5-1.3 1.7l1.5 2.2h-1.3l-1.4-2H488v2h-1.2V3.2h2.6c1.8 0 2.6.6 2.6 2zm-4 1h1.5c1 0 1.3-.3 1.3-1s-.4-1-1.3-1h-1.5zm-360 39v85l6.7.9v5h-33v-5l7.1-.9V91.5H66.6v38.7l6.5.9v5H40.7v-5l6.5-.9v-85l-6.5-.8v-4.9h32.4v4.9l-6.5.8v36.4h42.1V45.2l-7-.8v-4.9h33v4.9zm45 85.6 6.2.9v4.4h-30.3v-4.4l6.2-1v-58l-6.2-1v-4.3H173zm19.4 1 6-.9V44.6l-6-.8v-4.3h24.1V131l6.2.9v4.3h-30.3zm67.1-64.4h16.3v6.4h-16.3v40.9c0 10.5 2.3 13.9 11.9 13.9 3.5 0 6.6 0 9.6-.7v4.6a68 68 0 0 1-22.3 4.4c-14 0-17.2-6.3-17.2-18.3V73.8h-12.7v-6.4h13.1V53l17.6-5.3zm78 34.5c0-21.7-6.5-31.2-17-31.2-10.2 0-16.7 9.1-16.7 31.2 0 21.9 6.5 31 16.7 31 11 0 17-8.7 17-31zm19.8.5c0 21.4-14.5 35.7-37.3 35.7-22 0-36-9.4-36-35.7 0-22.2 14.4-37 37.2-37 22.5 0 36.1 13.4 36.1 37zm82.3 29.3v4.4H409v-4.4l6.1-1v-39c0-10.9-4-15.7-12.3-15.7a30 30 0 0 0-14.3 5.7v49l6.2 1v4.4h-30.5v-4.4l6.2-1V73.2l-6.2-1v-4.7h24.3V77c7.5-6 14.8-10.9 25-10.9 13.6 0 19.6 8 19.6 23.5v41.3ZM173.8 49.2c0 5.3-4.4 9.7-9.8 9.7a9.7 9.7 0 0 1-9.7-9.7c0-5.3 4.3-9.7 9.7-9.7 5.4 0 9.8 4.4 9.8 9.7"/></svg>
