<svg xmlns="http://www.w3.org/2000/svg" id="Layer_1" data-name="Layer 1" version="1.1" width="420.9" height="420.9"><defs id="defs3026"><style id="style3024">.cls-1{fill:#231f20}</style></defs><g id="g3620" transform="translate(-12.25 107.825)"><path id="polygon3030" class="cls-1" fill="#231f20" d="M357.35 171.8v7.18h75.8V12.13H12.25v166.85h75.19v-7.18H19.42V19.31h406.56V171.8z"/><path id="polygon3032" class="cls-1" fill="#231f20" d="M125.62 172.49v-13.41h6.05v32.48h-6.05v-13.65h-17.4v13.65h-6.05v-32.48h6.05v13.41z"/><path id="path3034" d="M150.14 175.32a11 11 0 1011-11 10.88 10.88 0 00-11 11m28.19 0a17.25 17.25 0 11-17.24-16.7 17 17 0 0117.24 16.7" class="cls-1" fill="#231f20"/><path id="polygon3036" class="cls-1" fill="#231f20" d="M219.68 159.08v32.48h-6.37l-17.18-22.7v22.7h-5.94v-32.48h6.35l17.19 22.7v-22.7z"/><path id="path3038" d="M237.78 175.32a11 11 0 1011-11 10.88 10.88 0 00-11 11m28.2 0a17.25 17.25 0 11-17.24-16.7 17 17 0 0117.26 16.7" class="cls-1" fill="#231f20"/><path id="path3040" d="M284.21 175.74h8.46c5.4 0 7.45-1.64 7.45-5.6s-2.05-5.61-7.45-5.61h-8.46zm8.16-16.66c10 0 14 3.2 14 10.68 0 5.38-2.1 8.51-7.1 9.82l8.13 12h-7l-7.4-11.21c-.63 0-1.26.07-2.06.07h-6.74v11.12h-6v-32.48z" class="cls-1" fill="#231f20"/><path id="path3042" d="M343.17 162.13l-2.56 4.67a25.26 25.26 0 00-11.4-3.07c-3 0-5.55 1.19-5.55 4 0 1.8 1.07 2.63 7 4.16 8 2.12 13.29 3.56 13.29 10.26 0 6.49-5.46 9.87-13.09 9.87a27.5 27.5 0 01-15.14-4.27l2.72-4.51a26.17 26.17 0 0013.08 3.6c3.22 0 6.06-1.21 6.06-4 0-3.32-2.16-3.64-8.62-5.3-7.56-1.9-11.84-3.66-11.84-9.14 0-6.82 5.69-9.82 12.71-9.83a26.06 26.06 0 0113.32 3.51" class="cls-1" fill="#231f20"/><path id="polygon3044" class="cls-1" fill="#231f20" d="M70.78 93.67v33.87l5.7.77v4.36H48.12v-4.36l5.7-.77v-74.4l-5.7-.77v-4.23h28.36v4.23l-5.7.77v31.81h36.91V53.14l-6.22-.77v-4.23h28.89v4.23l-5.83.77v74.4l5.83.77v4.36h-28.89v-4.36l6.22-.77V93.67z"/><path id="polygon3046" class="cls-1" fill="#231f20" d="M142.79 72.51h21.11v55.54l5.44.77v3.84h-26.55v-3.84l5.44-.77V77.12l-5.44-.76z"/><path id="polygon3048" class="cls-1" fill="#231f20" d="M207.42 132.67h-26.55v-3.74l5.31-.74V52.62l-5.31-.75v-3.73h21.11v80.05l5.44.74z"/><path id="path3050" d="M239.67 72.51h14.24v5.64h-14.24v35.79c0 9.23 1.93 12.19 10.35 12.19a34.58 34.58 0 008.42-.65v4.11c-7.64 2.69-14.12 3.85-19.56 3.85-12.17 0-15-5.52-15-16V78.15h-11.15v-5.64h11.52V59.94l15.42-4.62z" class="cls-1" fill="#231f20"/><path id="path3052" d="M307.92 102.78c0-19-5.7-27.32-14.9-27.32-8.93 0-14.63 8-14.63 27.32 0 19.11 5.7 27.07 14.63 27.07 9.59 0 14.9-7.57 14.9-27.07m17.35.38c0 18.73-12.68 31.3-32.63 31.3-19.3 0-31.61-8.21-31.61-31.3 0-19.37 12.7-32.32 32.64-32.32 19.69 0 31.6 11.68 31.6 32.32" class="cls-1" fill="#231f20"/><path id="path3054" d="M397.28 128.82v3.85h-26.55v-3.85l5.31-.77V93.8c0-9.49-3.49-13.72-10.75-13.72-3.37 0-8.68 2.3-12.56 5v43l5.43.77v3.85h-26.67v-3.85l5.44-.77V77.51l-5.44-.77v-4.23h21.24v8.34c6.6-5.26 12.95-9.5 21.88-9.5 11.92 0 17.23 6.93 17.23 20.53v36.17z" class="cls-1" fill="#231f20"/><path id="path3056" d="M164.67 56.6a8.55 8.55 0 11-8.55-8.46 8.51 8.51 0 018.55 8.46" class="cls-1" fill="#231f20"/></g></svg>