<svg xmlns="http://www.w3.org/2000/svg" data-name="Layer 1" width="48.9" height="48.9"><path fill="#57bae5" d="m0 22.145 17.69-11.04-2.3 8.99z"/><path fill="#005472" d="m21.86 47.355 3.84-16.32-4.98-2.11z"/><path fill="#34afe4" d="m0 22.145 15.39-2.05-4.05 8.51z"/><path fill="#0076a7" d="m21.86 47.355-1.14-18.43-9.38-.32z"/><path fill="#009de2" d="m11.34 28.605 4.05-8.51 5.33 8.83z"/><path fill="#7acdf2" d="m15.39 20.095 2.3-8.99 12.77 1.64zm21.58-12.36 7.47-.71-8.04 9.56zm10.95-.28-3.48-.43 4.46-5.48z"/><path fill="#00abe7" d="m44.44 7.025-4.33 4.97 7.81-4.54z"/><path fill="#0076a7" d="m20.72 28.925 4.98 2.11.38-10.97z"/><path fill="#008dbe" d="m15.39 20.095 10.69-.03-5.36 8.86z"/><path fill="#57bae5" d="m15.39 20.095 15.07-7.35-4.38 7.32z"/><path fill="#00698d" d="m26.08 20.065-.38 10.97 9.8 10.27-9.42-21.24"/><path fill="#09a1cb" d="m35.5 41.305 5.13-5.74-5.18-13.16zm-9.42-21.24 10.32-3.48-.95 5.82z"/><path fill="#8bdaff" d="m36.4 16.585 4.75 7.91-5.7-2.09z"/><path fill="#7acdf2" d="m40.52 25.015 2.67 10.18-6.21-10.18z"/><path fill="#57bae5" d="m36.97 7.735-5.34 2.85 4.77 6z"/><path fill="#008dbe" d="m35.5 41.305-.05-18.9-9.37-2.34z"/><path fill="#0076a7" d="m35.53 41.305 5.1-5.74 2.07 1.18z"/><path fill="#57bae5" d="m40.63 35.565 2.56-.48-7.74-12.68z"/><path fill="#7acdf2" d="m36.4 16.585-4.77-6-5.55 9.48z"/></svg>