<svg xmlns="http://www.w3.org/2000/svg" data-name="Layer 1" width="48.9" height="48.9"><path fill="#57bae5" d="M0 22.145l17.69-11.04-2.3 8.99z"/><path fill="#005472" d="M21.86 47.355l3.84-16.32-4.98-2.11z"/><path fill="#34afe4" d="M0 22.145l15.39-2.05-4.05 8.51z"/><path fill="#0076a7" d="M21.86 47.355l-1.14-18.43-9.38-.32z"/><path fill="#009de2" d="M11.34 28.605l4.05-8.51 5.33 8.83z"/><path fill="#7acdf2" d="M15.39 20.095l2.3-8.99 12.77 1.64zM36.97 7.735l7.47-.71-8.04 9.56zM47.92 7.455l-3.48-.43 4.46-5.48z"/><path fill="#00abe7" d="M44.44 7.025l-4.33 4.97 7.81-4.54z"/><path fill="#0076a7" d="M20.72 28.925l4.98 2.11.38-10.97z"/><path fill="#008dbe" d="M15.39 20.095l10.69-.03-5.36 8.86z"/><path fill="#57bae5" d="M15.39 20.095l15.07-7.35-4.38 7.32z"/><path fill="#00698d" d="M26.08 20.065l-.38 10.97 9.8 10.27-9.42-21.24"/><path fill="#09a1cb" d="M35.5 41.305l5.13-5.74-5.18-13.16zM26.08 20.065l10.32-3.48-.95 5.82z"/><path fill="#8bdaff" d="M36.4 16.585l4.75 7.91-5.7-2.09z"/><path fill="#7acdf2" d="M40.52 25.015l2.67 10.18-6.21-10.18z"/><path fill="#57bae5" d="M36.97 7.735l-5.34 2.85 4.77 6z"/><path fill="#008dbe" d="M35.5 41.305l-.05-18.9-9.37-2.34z"/><path fill="#0076a7" d="M35.53 41.305l5.1-5.74 2.07 1.18z"/><path fill="#57bae5" d="M40.63 35.565l2.56-.48-7.74-12.68z"/><path fill="#7acdf2" d="M36.4 16.585l-4.77-6-5.55 9.48z"/></svg>