<svg xmlns="http://www.w3.org/2000/svg" viewBox="0 0 40 40"><path d="M38.15 19.678c.875-.136 1.208-.178 1.686-.344.603-.208 1.03-.697 1.03-1.373a1.43 1.43 0 0 0-1.03-1.373c-.478-.146-1.175-.032-1.685.02L22.43 18.19a20.011 20.011 0 0 1-4.016 0l-15.7-1.582c-.51-.052-1.217-.166-1.685-.02A1.43 1.43 0 0 0 0 17.96c0 .676.427 1.165 1.03 1.373.468.156.811.208 1.685.344L17.74 22.09c1.768.281 3.61.281 5.378 0l15.034-2.413zM35.394 12.454c.51-.031 1.206-.063 1.685-.198a1.43 1.43 0 0 0 0-2.747c-.479-.145-1.175-.124-1.685-.124H5.472c-.51 0-1.206-.021-1.685.124a1.43 1.43 0 0 0 0 2.747c.479.135 1.175.167 1.685.198l13.296.947c1.093.072 2.226.072 3.308 0l13.318-.947zM25.115.932a41.598 41.598 0 0 0-9.385 0l-4.67.53c-.5.053-1.218.094-1.686.24-.479.156-1.03.603-1.03 1.373 0 .666.437 1.196 1.03 1.373.478.136 1.185.125 1.685.125h18.748c.5 0 1.206.011 1.685-.125a1.422 1.422 0 0 0 1.03-1.373c0-.77-.551-1.217-1.03-1.373-.468-.146-1.186-.187-1.685-.24l-4.692-.53zM17.333 30.747c2.039.5 4.14.5 6.19 0l13.64-3.35c.863-.208 1.206-.28 1.685-.437.603-.198 1.03-.707 1.03-1.373 0-.645-.427-1.207-1.03-1.384-.479-.136-1.186.042-1.685.136L22.41 26.97a11.6 11.6 0 0 1-3.975 0L3.704 24.339c-.5-.094-1.207-.272-1.685-.136a1.442 1.442 0 0 0-1.03 1.384c0 .666.426 1.175 1.03 1.373.478.157.822.23 1.685.437l13.629 3.35zM33.105 36.236c.936-.322 1.26-.436 1.685-.634.583-.26 1.03-.666 1.03-1.394 0-.646-.426-1.208-1.03-1.384-.54-.156-1.196.072-1.685.208l-9.228 2.486c-2.268.614-4.65.604-6.908 0L7.76 33.032c-.489-.136-1.144-.364-1.685-.208a1.442 1.442 0 0 0-1.03 1.384c0 .728.447 1.134 1.03 1.394.427.198.749.312 1.685.634l8.75 3.048c2.538.885 5.285.885 7.834 0l8.76-3.048z" fill="#FF7A00"/></svg>