<svg xmlns="http://www.w3.org/2000/svg" xmlns:xlink="http://www.w3.org/1999/xlink" viewBox="0 0 135.5 135.5"><defs><path id="a" d="M0 0h792v612H0Z"/><path id="e" fill="#fff" fill-opacity="1" fill-rule="nonzero" stroke="none" d="M0 0h8.122c5.649 0 8.65-3.089 8.65-9.62v-12.622c0-6.532-3.001-9.621-8.65-9.621H0Zm5.474-27.361H7.37c2.913 0 3.928 1.104 3.928 4.457v13.945c0 3.355-1.015 4.458-3.928 4.458H5.474Z"/></defs><defs><clipPath id="f" clipPathUnits="userSpaceOnUse"><use xlink:href="#a"/></clipPath><clipPath id="d" clipPathUnits="userSpaceOnUse"><use xlink:href="#a"/></clipPath><clipPath id="c" clipPathUnits="userSpaceOnUse"><use xlink:href="#a"/></clipPath><clipPath id="b" clipPathUnits="userSpaceOnUse"><use xlink:href="#a"/></clipPath></defs><g clip-path="url(#b)" transform="matrix(1.23782 0 0 -1.23782 -108.555 537.261)"><path d="M197.138 329.294a4.689 4.689 0 0 0-4.688-4.693H92.386a4.689 4.689 0 0 0-4.688 4.693v100.057a4.688 4.688 0 0 0 4.688 4.688H192.45a4.688 4.688 0 0 0 4.688-4.688z"/></g><path fill="#edaa00" d="M15.262 42.628V12.922h5.102v12.096h5.43V12.922h5.103v29.706h-5.102V29.461h-5.43v13.167Zm22.71 0h-4.938l5.474-29.706h6.334l5.474 29.706h-4.938l-.905-6.583h-5.596Zm1.646-11.027h4.115l-2.018-12.754h-.08Z"/><g clip-path="url(#c)" transform="matrix(1.23782 0 0 -1.23782 -108.555 537.261)"><path fill="#edaa00" d="M134.193 399.601h-4.122V423.6h5.784c4.622 0 6.981-1.961 6.981-7.08 0-3.856-1.496-5.418-2.89-6.05l3.487-10.869h-4.187l-2.926 9.939c-.531-.067-1.396-.1-2.127-.1Zm0 13.229h1.463c2.227 0 3.059.831 3.059 3.69s-.832 3.69-3.059 3.69h-1.463Z"/></g><path fill="#edaa00" d="M81.644 12.921h5.022L80.45 42.627h-5.103l-6.211-29.706h5.022l3.7 20.613h.085zm7.03 29.707V12.922h13.66v4.443h-8.558v7.653h6.583v4.443h-6.583v8.723h9.137v4.444Zm26.657 0h-5.102V30.284l-6.17-17.362h5.183l3.582 11.314h.08l3.415-11.314h5.186l-6.174 17.362Z"/><path fill="#fff" d="M43.156 49.232v39.44h-5.902V57.864h-.108l-6.117 30.81h-3.28l-6.117-30.81h-.11v30.81h-5.9V49.232h8.906l4.805 23.052h.112l4.805-23.052Z"/><g clip-path="url(#d)" transform="matrix(1.23782 0 0 -1.23782 -108.555 537.261)"><path fill="#fff" d="M126.719 394.265h5.472v-24.051c0-2.339.927-3.487 2.914-3.487 1.984 0 2.911 1.148 2.911 3.487v24.051h5.474v-23.831c0-5.471-3.18-8.472-8.385-8.472-5.208 0-8.386 3.001-8.386 8.472z"/><use xlink:href="#e" transform="translate(147.908 394.265)"/><use xlink:href="#e" transform="translate(169.097 394.265)"/><path fill="#edaa00" d="M107.024 349.658v1.633c0 1.78-.817 2.538-1.749 2.538-1.459 0-1.926-.758-1.926-2.334v-10.677c0-1.574.467-2.334 1.926-2.334 1.312 0 1.749.76 1.749 2.129v2.54h3.618v-2.422c0-2.976-1.751-5.398-5.367-5.398-3.793 0-5.543 2.422-5.543 5.398v10.853c0 2.975 1.75 5.396 5.543 5.396 3.616 0 5.367-2.625 5.367-5.776v-1.546Zm6.709 1.926c0 2.974 1.749 5.396 5.542 5.396 3.794 0 5.543-2.422 5.543-5.396v-10.853c0-2.976-1.749-5.398-5.543-5.398-3.793 0-5.542 2.422-5.542 5.398zm3.616-10.766c0-1.574.468-2.334 1.926-2.334 1.459 0 1.926.76 1.926 2.334v10.677c0 1.576-.467 2.334-1.926 2.334-1.458 0-1.926-.758-1.926-2.334z"/></g><path fill="#edaa00" d="M49.337 121.818V95.747h4.478v22.17h7.042v3.901Zm13.323 0V95.747h4.48v22.17h7.04v3.901Zm13.542 0V95.747h11.986v3.898h-7.51v6.716h5.78v3.9h-5.78v7.657h8.017v3.9Z"/><g clip-path="url(#f)" transform="matrix(1.23782 0 0 -1.23782 -108.555 537.261)"><path fill="#edaa00" d="M166.613 346.304h5.923v-10.679h-1.752l-.668 1.575c-1.079-1.282-1.957-1.867-3.647-1.867-2.861 0-4.844 2.044-4.844 5.398v10.853c0 2.975 1.752 5.397 5.311 5.397 3.616 0 5.425-2.625 5.425-5.776v-1.343h-3.442c0 3.151-.642 3.968-2.07 3.968-.878 0-1.607-.525-1.607-2.305v-10.822c0-1.343.44-2.219 1.694-2.219 1.459 0 1.983.817 1.983 2.918v2.042h-2.306Z"/></g><path fill="#edaa00" d="M108.84 121.818V95.747h11.986v3.898h-7.51v6.716h5.78v3.9h-5.78v7.657h8.019v3.9Z"/></svg>