<svg xmlns="http://www.w3.org/2000/svg" viewBox="0 0 136 136"><rect width="136" height="136" ry="5"/><path fill="#edaa00" d="M25.79 12.92v12.1h-5.43V12.93h-5.1v29.7l5.1.01V29.47h5.43v13.15h5.1v-29.7h-5.1zm26.65 0v29.7h5.11V30.46c.9 0 1.97-.04 2.63-.13l3.61 12.3H69l-4.33-13.45c1.73-.78 3.59-2.7 3.59-7.49 0-6.33-2.92-8.76-8.64-8.76h-7.17zm16.7 0 6.21 29.7h5.1l6.22-29.7h-5.03l-3.7 20.6h-.08l-3.7-20.6h-5.02zm19.53 0v29.7l14.24.01v-4.45h-9.13v-8.72h6.58v-4.44h-6.58v-7.65h8.55v-4.45H88.67zm-50.16.01-5.48 29.7h4.94l.91-6.6h5.6l.9 6.6h4.94l-5.48-29.7h-6.33zm65.55 0 6.17 17.36v12.33h5.1V30.29l6.17-17.36h-5.18l-3.42 11.32h-.08l-3.58-11.32h-5.18zm-46.52 4.19h1.82c2.75 0 3.79 1.02 3.79 4.56 0 3.54-1.04 4.57-3.79 4.57h-1.8l-.02-9.13zm-15.9 1.73h.08l2.01 12.75h-4.11l2.02-12.75z"/><path fill="#fff" d="M62.27 49.22v29.79c0 2.9-1.14 4.3-3.59 4.3-2.46 0-3.61-1.42-3.61-4.3V49.24H48.3v29.5c0 6.77 3.93 10.48 10.37 10.48 6.45 0 10.38-3.71 10.38-10.49v-29.5h-6.78zm-46.64.01v39.44h5.9v-30.8h.1l6.12 30.8h3.28l6.12-30.8h.11v30.8h5.9V49.23h-8.91l-4.8 23.05h-.12l-4.8-23.05h-8.9zm58.88 0v39.44h10.05c7 0 10.71-3.82 10.71-11.9V61.14c0-8.08-3.71-11.9-10.7-11.9H74.5zm26.25 0v39.44h10.05c6.99 0 10.7-3.82 10.7-11.9V61.14c0-8.08-3.71-11.9-10.7-11.9h-10.05zm-19.47 5.58h2.35c3.6 0 4.86 1.36 4.86 5.52v17.25c0 4.16-1.26 5.52-4.86 5.52h-2.35V54.8zm26.24 0h2.35c3.6 0 4.86 1.36 4.86 5.52v17.25c0 4.16-1.26 5.52-4.86 5.52h-2.35V54.8z"/><path fill="#edaa00" d="M21.75 95.38c-4.7 0-6.86 3-6.86 6.69v13.43c0 3.69 2.16 6.68 6.86 6.68 4.48 0 6.64-3 6.64-6.68v-3h-4.48v3.15c0 1.7-.54 2.63-2.15 2.63-1.8 0-2.4-.94-2.4-2.9v-13.21c0-1.95.6-2.89 2.4-2.89 1.15 0 2.15.94 2.15 3.15v2.01h4.48v-1.9c0-3.9-2.16-7.16-6.64-7.16zm17.32 0c-4.69 0-6.85 3-6.85 6.69v13.43c0 3.69 2.16 6.68 6.87 6.68 4.69 0 6.86-3 6.86-6.68v-13.43c0-3.7-2.17-6.69-6.88-6.69zm59.01 0c-4.4 0-6.58 3-6.58 6.69v13.43c0 4.14 2.46 6.68 6 6.68 2.1 0 3.18-.73 4.52-2.31l.81 1.95h2.18V108.6h-7.34l.02 3.54h2.84v2.53c0 2.6-.64 3.61-2.45 3.61-1.56 0-2.09-1.09-2.09-2.74v-13.41c0-2.2.9-2.85 1.98-2.85 1.77 0 2.56 1.02 2.56 4.92h4.26v-1.66c0-3.91-2.24-7.16-6.7-7.16zm-48.74.37v26.07h11.52v-3.9H53.8V95.75h-4.47zm13.32 0v26.07h11.52v-3.9h-7.04V95.75h-4.48zm13.54 0v26.07h12.5v-3.9h-8.01v-7.66h5.78v-3.9H80.7v-6.71h7.5v-3.9h-12zm32.64 0v26.07h12.5v-3.9h-8.02v-7.66h5.78v-3.9h-5.78v-6.71h7.51v-3.9h-11.99zm-69.75 3.53c1.8 0 2.37.94 2.37 2.9v13.2c0 1.96-.58 2.9-2.37 2.9-1.8 0-2.4-.94-2.4-2.9v-13.21c0-1.95.6-2.89 2.4-2.89z"/></svg>
