<svg xmlns="http://www.w3.org/2000/svg" height="80.302" width="80.302"><path d="M62.093 43.854c-.61-.08-1.45-.187-1.996-.26.56-1.213.897-1.912.897-1.912.034-.231.662-1.323.915-2.226.23-.734.359-2.088.359-2.313 0-2.337-.817-4.454-2.188-5.99-1.373-1.533-3.284-2.483-5.465-2.483-.444 0-.974.024-2.188.26-1.243.307-1.834.48-2.932.77-1.857.574-2.616.867-5.274 2.146-.267.127-.376.364-.43.54-.052.183-.043.32-.043.32l-.108 9.883H41.98V31.794s-.01-.31.109-.676c.116-.366.39-.718.848-1.023.36-.234.723-.444 1.082-.643a1.486 1.486 0 01-.666-1.233 1.486 1.486 0 012.972 0c0 .075-.019.151-.023.222a27.385 27.385 0 011.137-.364 1.473 1.473 0 01-.762-1.285 1.485 1.485 0 112.97 0c0 .25-.075.486-.182.694.721-.198 1.23-.333 1.23-.333.068-.016.136-.03.214-.047a1.482 1.482 0 112.08-.454c.006-.004.02-.004.028-.01.515-.087 1.096-.103 1.62-.103a1.467 1.467 0 01-.283-.863c0-.826.669-1.486 1.482-1.486.822 0 1.479.66 1.479 1.486 0 .452-.206.853-.53 1.128a8.602 8.602 0 011.605.56 1.404 1.404 0 01-.074-.43 1.485 1.485 0 112.968 0c0 .723-.515 1.316-1.198 1.45.454.343.877.723 1.262 1.137v-.047a1.481 1.481 0 112.963 0 1.48 1.48 0 01-1.482 1.481c-.148 0-.276-.026-.408-.066.276.427.529.876.744 1.342a1.486 1.486 0 012.71.839c0 .817-.666 1.481-1.481 1.481-.17 0-.322-.035-.473-.085.087.409.158.822.206 1.248a1.477 1.477 0 012.049 1.37 1.48 1.48 0 01-1.482 1.482c-.23 0-.445-.057-.636-.152-.024.159-.05.326-.068.492-.048.17-.086.324-.126.465.73.095 1.29.707 1.29 1.47a1.48 1.48 0 01-2.31 1.224c-.201.475-.464 1.087-.752 1.789M40.143 42.696c-.79 0-1.42-.636-1.42-1.42 0-.79.63-1.425 1.42-1.425h.014c.792 0 1.42.636 1.42 1.425 0 .784-.628 1.42-1.42 1.42zM40.157 39.246c.754 0 1.356-.607 1.356-1.359 0-.746-.602-1.356-1.356-1.356h-.014c-.754 0-1.356.61-1.356 1.356 0 .752.602 1.359 1.356 1.359zM40.148 35.915a1.292 1.292 0 01-1.293-1.295c0-.719.57-1.295 1.293-1.297h.009a1.29 1.29 0 011.29 1.297c0 .713-.572 1.29-1.29 1.295zM40.155 29.842a1.22 1.22 0 000-2.44h-.01a1.22 1.22 0 000 2.44zM40.148 32.796a1.235 1.235 0 010-2.47h.009a1.235 1.235 0 010 2.47zM44.44 13.208a.282.282 0 00-.273-.203.299.299 0 00-.291.205c-.279 1.09-.839 2.115-2.975 2.297.095-.933.34-1.637.761-2.138.4-.433.952-.721 1.758-.893a.304.304 0 00.177-.078.276.276 0 00.062-.199.263.263 0 00-.083-.196.274.274 0 00-.177-.061h-6.496a.274.274 0 00-.177.061.263.263 0 00-.083.196c-.007.095.031.16.062.199a.31.31 0 00.177.078c.806.172 1.361.46 1.758.893.42.5.666 1.205.76 2.138-2.135-.182-2.695-1.207-2.974-2.297a.299.299 0 00-.29-.205.282.282 0 00-.275.203l-.007.019v5.945c0 .108.092.26.305.253.215 0 .267-.121.293-.175l.007-.029c.506-1.238 1.574-2.039 2.954-2.244-.083.975-.336 1.706-.78 2.223-.402.435-.931.711-1.75.886l-.025.005a.318.318 0 00-.153.078.279.279 0 00-.062.208c0 .092.048.153.083.186a.36.36 0 00.194.067h6.462a.36.36 0 00.194-.067.252.252 0 00.083-.186.279.279 0 00-.062-.208.318.318 0 00-.153-.078l-.024-.005c-.82-.175-1.352-.451-1.75-.886-.445-.517-.698-1.248-.78-2.223 1.38.205 2.447 1.006 2.953 2.244l.007.029c.026.054.078.175.29.175.216.007.308-.145.308-.253v-5.945zM40.157 27.196a3.147 3.147 0 003.145-3.145 3.147 3.147 0 00-3.145-3.145h-.01A3.149 3.149 0 0037 24.051a3.149 3.149 0 003.148 3.145zM17.46 42.058a1.479 1.479 0 01-2.31-1.224 1.47 1.47 0 011.29-1.47c-.041-.142-.079-.298-.126-.465-.019-.168-.045-.333-.069-.492a1.464 1.464 0 01-.635.151 1.48 1.48 0 01-1.482-1.483 1.476 1.476 0 012.049-1.368c.047-.426.118-.842.205-1.248-.15.05-.302.085-.474.085-.813 0-1.48-.666-1.48-1.481a1.48 1.48 0 011.48-1.484c.517 0 .959.255 1.23.645.216-.466.468-.915.745-1.342-.132.038-.26.064-.409.064-.82 0-1.481-.662-1.481-1.48a1.482 1.482 0 112.963 0v.045a9.774 9.774 0 011.261-1.136 1.478 1.478 0 01-1.2-1.449 1.487 1.487 0 012.972 0c0 .15-.03.289-.075.428a8.997 8.997 0 011.602-.56 1.48 1.48 0 01.955-2.613c.81 0 1.478.661 1.478 1.486 0 .324-.106.617-.283.862.524 0 1.106.017 1.62.107.008.005.022.005.03.01a1.478 1.478 0 01-.22-.78c0-.82.656-1.484 1.48-1.484a1.483 1.483 0 01.818 2.717c.078.014.147.03.215.047 0 0 .508.135 1.23.333a1.534 1.534 0 01-.183-.694 1.483 1.483 0 112.968 0c0 .55-.305 1.032-.756 1.283.352.108.71.22 1.042.333.033.007.064.021.092.033-.005-.071-.024-.147-.024-.222a1.486 1.486 0 012.973 0c0 .515-.27.966-.669 1.233.36.199.723.409 1.085.643.458.305.734.657.848 1.02.118.37.108.679.108.679v10.795h-1.656l-.11-9.886s.009-.134-.043-.316c-.055-.177-.164-.416-.43-.541-2.659-1.279-3.417-1.572-5.274-2.148-1.099-.288-1.69-.46-2.935-.768-1.212-.236-1.741-.26-2.185-.26-2.181 0-4.093.95-5.468 2.483-1.366 1.536-2.186 3.65-2.186 5.99 0 .222.13 1.578.36 2.313.252.903.88 1.994.914 2.224 0 0 .338.701.898 1.914-.546.073-1.39.177-1.997.26-.29-.702-.55-1.314-.751-1.79" fill="#231f20"/><path d="M63.416 45.035c-.146-.208-.382-.345-.68-.392-.102-.02-2.92-.39-3.251-.435-.1-.007-.22.061-.253.234-.038.191.085.3.168.324l-.022-.01c1.503.697 2.39 2.117 2.41 3.814-2.332-.482-2.915-1.678-3.062-3.33 0-.07-.066-.198-.26-.215-.17-.014-.26.071-.293.147l-.004.014-.891 7.143v.01c0 .099.068.221.222.257a.274.274 0 00.321-.158c.707-1.513 2.11-2.413 3.778-2.455-.446 1.675-1.698 2.977-3.326 3.416l.007.005a196.027 196.027 0 00-3.677-.352c-1.181-.355-2.048-.988-2.365-2.46.017-.186.054-.38.125-.572.3-.808.884-1.342 1.536-1.105.68.255.751 1.023.454 1.83a2.145 2.145 0 01-.532.816c.707-.014 1.337-.265 1.836-.969.827-1.176.73-2.991-.562-3.738-.842-.491-2.014.08-2.902 1.189.27-1.746 1.33-3.287 1.45-4.634.169-1.897-.562-4.007-1.604-4.588-1.082.397-2.07 2.355-2.164 4.248-.061 1.35.853 3.128.9 4.908-.73-1.27-1.845-2.025-2.757-1.645-1.382.565-1.73 2.346-1.068 3.625.409.765.99 1.098 1.69 1.21a2.063 2.063 0 01-.414-.882c-.182-.843-.017-1.59.697-1.746.676-.147 1.184.451 1.368 1.295.06.271.069.531.03.775v-.003c-.536 1.27-1.504 1.711-2.712 2.009a172.852 172.852 0 00-3.707-.125l-.132-.026c-1.749-.282-2.64-1.4-2.817-3.495 1.538.232 2.734 1.132 3.294 2.51.026.082.118.21.324.21.238 0 .323-.156.323-.263V44.82a.303.303 0 00-.3-.212c-.18 0-.27.123-.3.199v.004l-.007.01c-.307 1.217-.938 2.365-3.338 2.561.196-2.334 1.264-3.053 2.82-3.39a.257.257 0 00.18-.086.273.273 0 00.076-.19v-.02a.305.305 0 00-.1-.203.267.267 0 00-.174-.069h-7.202a.271.271 0 00-.175.069.306.306 0 00-.101.203v.02c0 .096.047.157.077.19a.257.257 0 00.18.086c1.557.337 2.625 1.056 2.824 3.39-2.403-.196-3.034-1.344-3.339-2.561l-.01-.01v-.004a.317.317 0 00-.3-.199.297.297 0 00-.297.213v6.606c0 .107.085.263.319.263.208 0 .3-.128.326-.21.56-1.378 1.758-2.278 3.291-2.51-.175 2.096-1.065 3.213-2.814 3.495l-.132.026c-1.24.028-2.481.07-3.707.125-1.208-.298-2.177-.74-2.71-2.009v.003c-.04-.244-.031-.504.03-.775.184-.844.69-1.442 1.366-1.295.716.156.879.903.7 1.746a2.094 2.094 0 01-.417.881c.7-.11 1.281-.444 1.692-1.21.66-1.278.312-3.06-1.068-3.624-.914-.38-2.027.376-2.76 1.645.05-1.78.964-3.559.9-4.908-.092-1.893-1.082-3.851-2.164-4.248-1.042.581-1.772 2.691-1.604 4.588.12 1.347 1.181 2.888 1.448 4.634-.886-1.108-2.058-1.68-2.899-1.189-1.292.747-1.39 2.562-.56 3.738.499.704 1.127.955 1.834.969a2.17 2.17 0 01-.53-.815c-.3-.808-.229-1.576.452-1.831.654-.237 1.235.297 1.533 1.105.073.192.111.386.128.572-.317 1.472-1.184 2.105-2.365 2.46a197.95 197.95 0 00-3.677.352l.007-.005c-1.628-.44-2.88-1.741-3.324-3.416 1.666.042 3.069.942 3.778 2.455a.271.271 0 00.319.158c.156-.036.224-.158.224-.258v-.01l-.89-7.142-.008-.014c-.03-.076-.122-.16-.293-.147-.193.017-.26.145-.26.215-.146 1.652-.73 2.848-3.062 3.33.024-1.697.908-3.117 2.41-3.814l-.02.01c.082-.024.205-.133.167-.324-.033-.173-.151-.241-.253-.234-.33.045-3.15.416-3.249.435-.3.047-.536.184-.683.392-.16.222-.21.51-.15.86.082.48 1.062 7.372 1.157 8.005.007.054.083.7.109.89.028.202.283.403.283.403s1.441.973 1.697 1.17c.243.186.104.512.104.512l-1.279 1.869c-.101.125-.156.25-.156.25a.69.69 0 00-.042.241c0 .227.104.426.276.553l21.062.007h.518l20.958-.007a.685.685 0 00.231-.794s-.052-.125-.156-.25l-1.278-1.87s-.14-.325.106-.512c.253-.196 1.695-1.17 1.695-1.17s.255-.2.285-.401c.024-.191.102-.837.11-.89.091-.634 1.072-7.526 1.155-8.006.059-.35.009-.638-.152-.86m-31.732 11.84l-4.697.248a.865.865 0 01-.912-.818l-.04-.668a.865.865 0 01.826-.905l4.693-.255a.868.868 0 01.914.824l.038.662a.868.868 0 01-.822.912m10.36-1.186l-1.672 1.673a.324.324 0 01-.217.097h-.007a.334.334 0 01-.22-.097l-1.673-1.673a.33.33 0 010-.482l1.673-1.673a.331.331 0 01.22-.095h.007c.08.005.158.033.217.095l1.673 1.673a.33.33 0 010 .482m12.182.616a.866.866 0 01-.914.818l-4.697-.248a.87.87 0 01-.822-.912l.037-.662a.87.87 0 01.917-.824l4.69.255c.485.023.85.428.827.905z" fill="#231f20"/><path d="M40.15 0C62.29 0 80.3 18.01 80.3 40.149c0 22.141-18.01 40.153-40.15 40.153C18.01 80.302 0 62.29 0 40.15c0-22.14 18.01-40.15 40.149-40.15m0 75.601c19.545 0 35.447-15.904 35.447-35.451 0-19.545-15.902-35.447-35.447-35.447S4.703 20.604 4.703 40.149C4.703 59.696 20.605 75.6 40.15 75.6" fill="#231f20"/></svg>