<svg xmlns="http://www.w3.org/2000/svg" viewBox="0 0 90 90"><defs><linearGradient x1="24.65%" y1="6.41%" x2="74.8%" y2="110.69%" id="a"><stop stop-color="#FF475F" offset="0%"/><stop stop-color="#FF713B" offset="100%"/></linearGradient></defs><path d="m1 27.8 13.6-17.27a2.7 2.7 0 0 1 4.33.02L60.4 63.7a3.19 3.19 0 0 1 0 3.88L46.03 85.92a2.7 2.7 0 0 1-4.33-.01L.98 33.63A4.78 4.78 0 0 1 1 27.8ZM28.29 3h38.17c1.27 0 2.47.58 3.28 1.58l19.27 23.76a4.5 4.5 0 0 1 .01 5.62l-18.37 22.9a2.8 2.8 0 0 1-4.4 0L26.31 7.33a2.7 2.7 0 0 1 .33-3.72c.46-.4 1.04-.6 1.64-.61Z" fill="url(#a)" fill-rule="nonzero"/></svg>