<svg xmlns="http://www.w3.org/2000/svg" width="551" height="551"><path d="M374.35 164.175l52.7 91.2-18.3 103.7-80.7 67.7h-105.4l-80.7-67.7-18.3-103.7 52.7-91.2 99-36zm-373.1 91.2l25.7 145.6c2.5 14.4 10.1 27.4 21.3 36.8l113.3 95c11.2 9.4 25.3 14.5 40 14.5h147.9c14.6 0 28.8-5.1 40-14.5l113.3-95c11.2-9.4 18.7-22.4 21.3-36.8l25.7-145.6c2.5-14.4-.1-29.2-7.4-41.9l-73.9-128.1c-7.3-12.7-18.8-22.3-32.6-27.3l-139.2-50.6c-13.7-5-28.8-5-42.5 0l-138.9 50.6c-13.7 5-25.3 14.7-32.6 27.3l-73.9 128.1c-7.4 12.7-10 27.5-7.5 41.9z" fill="#064545"/></svg>