<svg xmlns="http://www.w3.org/2000/svg" viewBox="0 0 240 240"><path fill="#F2F4F9" d="M240 224.8a15 15 0 0 1-15 15H15a15 15 0 0 1-15-15v-90c0-8.3 4.8-19.8 10.6-25.6l98.8-98.8a15 15 0 0 1 21.2 0l98.8 98.8a41.8 41.8 0 0 1 10.6 25.6v90Z"/><path fill="#18BCF2" d="m229.4 109.2-98.8-98.8a15 15 0 0 0-21.2 0l-98.8 98.8A41.8 41.8 0 0 0 0 134.8v90a15 15 0 0 0 15 15h92.3L66.6 199a18 18 0 0 1-6.6 1.2 20.5 20.5 0 1 1 19.4-13.9L111 218V102.2a20.5 20.5 0 1 1 18 0v81.2l31.5-31.4a20.5 20.5 0 1 1 12.4 13L129 208.9v30.9h96a15 15 0 0 0 15-15v-90c0-8.3-4.8-19.8-10.6-25.6Z"/></svg>
