<svg viewBox="0 0 500 500" xmlns:xlink="http://www.w3.org/1999/xlink" xmlns="http://www.w3.org/2000/svg"><defs><path d="M44 343V210H9a9 9 0 0 1-6-16L190 4a12 12 0 0 1 16-1l98 99V84a8 8 0 0 1 8-8h32a8 8 0 0 1 8 8v67l41 43a9 9 0 0 1-6 15h-35v134a8 8 0 0 1-8 8H52a8 8 0 0 1-8-8zm206-163a15 15 0 0 0 2-6 15 15 0 1 0-30 0 15 15 0 0 0 21 13l22 22v21l-27 27v-20a15 15 0 0 0 10-14 15 15 0 0 0-15-15 15 15 0 0 0-15 15 15 15 0 0 0 10 14v30l-25 25V145l20-21a15 15 0 0 0 7 1 15 15 0 0 0 0-30 15 15 0 0 0-14 22l-18 18-19-18a15 15 0 0 0 2-7 15 15 0 0 0-15-15 15 15 0 0 0-15 15 15 15 0 0 0 21 14l21 21v105l-36-36v-29a15 15 0 0 0 10-15 15 15 0 0 0-15-14 15 15 0 0 0-15 15 15 15 0 0 0 10 14v18l-28-27v-28a15 15 0 0 0 10-15 15 15 0 0 0-15-15 15 15 0 0 0-15 15 15 15 0 0 0 10 15v32l31 31h-18a15 15 0 0 0-14-10 15 15 0 0 0-15 15 15 15 0 0 0 29 5h28l43 43v75l-23-23v-29a15 15 0 0 0 10-14 15 15 0 0 0-15-15 15 15 0 0 0-15 15 15 15 0 0 0 10 14v19l-33-34a15 15 0 0 0 1-6 15 15 0 1 0-30 0 15 15 0 0 0 22 13l33 34h-18a15 15 0 0 0-14-10 15 15 0 0 0 0 30 15 15 0 0 0 14-10h28l28 28h14l29-29h27a15 15 0 0 0 14 10 15 15 0 0 0 0-30 15 15 0 0 0-14 10h-31l-27 27v-33l32-32h52a15 15 0 0 0 14 10 15 15 0 0 0 15-15 15 15 0 0 0-29-5h-42l30-30v-25l21-22a15 15 0 0 0 7 2 15 15 0 1 0-14-9l-14 15v-46a15 15 0 0 0 10-15 15 15 0 0 0-15-15 15 15 0 0 0-15 15 15 15 0 0 0 10 15v46l-15-15zM121 324a6 6 0 1 1 0-12 6 6 0 0 1 0 12zm44-45a6 6 0 1 1 0-12 6 6 0 0 1 0 12zm-52-7a6 6 0 1 1 0-12 6 6 0 0 1 0 12zm-5-50a6 6 0 1 1 0-12 6 6 0 0 1 0 12zm125 7a6 6 0 1 1 0-12 6 6 0 0 1 0 12zm68 46a6 6 0 1 1 0-12 6 6 0 0 1 0 12zm-26 48a6 6 0 1 1 0-12 6 6 0 0 1 0 12zm28-143a6 6 0 1 1 0-12 6 6 0 0 1 0 12zm-33-40a6 6 0 1 1 0-12 6 6 0 0 1 0 12zm-40-24a6 6 0 1 1 0-12 6 6 0 0 1 0 12zm-64 0a6 6 0 1 1 0-12 6 6 0 0 1 0 12zm-52 23a6 6 0 1 1 0-12 6 6 0 0 1 0 12zm38 37a6 6 0 1 1 0-12 6 6 0 0 1 0 12zm85 3a6 6 0 1 1 0-12 6 6 0 0 1 0 12z" id="a"/><mask id="b" fill="#fff"><use xlink:href="#a" width="100%" height="100%"/></mask></defs><path d="M0 0h500v500H0Z" fill="#41bdf5" style="fill-rule:evenodd"/><g mask="url(#b)" fill="#fff" transform="translate(52 70)" style="fill-rule:evenodd"><path d="M0 0h396v351H0Z"/></g></svg>