<svg xmlns="http://www.w3.org/2000/svg" width="39.949" height="39.949"><g fill="none" fill-rule="evenodd"><path fill="#fffffe" d="M0 .006v39.937h39.95V.006z"/><path fill="#f96302" d="M1.762 1.769v36.424h36.425V1.77z"/><path d="M9.843 30.602l-.945.945-.622-.623.943-.945-2.442-2.441c-.396-.397-.45-.472-.945-.216-.181.097-.377.096-.526-.054-.312-.312.021-.686.065-.73l3.036-3.036c.043-.043.418-.375.73-.065.15.151.152.344.055.526-.258.494-.183.548.215.945l5.634 5.636c.398.399.452.474.946.215.183-.096.375-.095.527.055.31.312-.02.688-.063.731l-3.038 3.036c-.043.043-.419.375-.73.065-.15-.152-.15-.345-.055-.528.259-.493.183-.547-.215-.945zm-.041 7.591H8.563a.915.915 0 01.01-.019c.256-.492.182-.547-.216-.945l-5.635-5.634c-.399-.4-.452-.474-.946-.217a.468.468 0 01-.014.007v-1.24l2.59-2.588c.042-.042.417-.375.728-.065.15.152.152.345.056.527-.259.495-.183.548.215.947l5.635 5.634c.398.399.451.474.946.216.182-.097.376-.097.526.054.311.313-.021.688-.064.73l-2.592 2.593zM25.273 6.636l2.832-2.833 8.044 8.042-2.832 2.834c-.043.042-.42.375-.731.064-.15-.151-.15-.345-.054-.527.257-.494.183-.548-.216-.946L26.68 7.635c-.398-.397-.45-.473-.945-.215-.183.096-.377.096-.526-.054-.312-.311.022-.688.064-.73zm4.866-4.867h1.685l1.34 1.34c.054.054.248.27-.074.59-.183.183-.345.13-.56.023-1.149-.594-2.223-.572-3.318.221l-.624-.623zm8.048 6.214v1.825l-1.555 1.554-.623-.623c.762-.977.835-2.234.264-3.383-.086-.236-.194-.474 0-.665.344-.344.633.011.676.054zM32.18 6.91c.332-.569.116-1.192-.197-1.698-.126-.235-.235-.473-.01-.698.332-.33.667.109.753.195l2.322 2.322c.086.086.526.42.195.752-.226.226-.462.117-.7-.012-.505-.31-1.128-.525-1.697-.195zM22.198 36.865l-1.329 1.328h-.706c.018-.042.042-.085.063-.131.08-.15-.096-.303-.186-.393L16.872 34.5c-.092-.09-.242-.266-.393-.187-.163.078-.296.175-.448.024-.157-.157-.024-.327.097-.447l1.548-1.547 4.522 4.521M32.33 17.689l1.481-1.482 3.845 3.845c.224.224.255.267.53.122v.702l-1.449 1.45c-.024.023-.235.212-.41.035-.085-.084-.085-.192-.031-.295.146-.278.103-.308-.12-.532zm4.033-1.216a.258.258 0 01-.025.375c-.169.169-.356.042-.507-.073-.375-.265-.859-.58-1.396-.488l-.352-.351.87-.872zm-5.175 2.358l.87-.87.351.35c-.091.539.224 1.022.49 1.397.114.15.24.338.072.507a.257.257 0 01-.375.024zM12.732 20.1c-.322.688-.042 1.053.228 1.322l5.57 5.57c.268.269.634.548 1.32.226l.624.625c-2.479 2.07-5.38 1.294-7.52-.846-2.139-2.14-2.916-5.041-.845-7.52zm7.603 6.637c.32-.687.041-1.054-.23-1.322l-5.568-5.571c-.27-.268-.635-.548-1.32-.226l-.625-.623c2.478-2.07 5.38-1.295 7.52.845 2.14 2.14 2.916 5.04.845 7.52zM32.191 15.138c-.151-.15-.344-.151-.527-.054-.494.257-.546.182-.945-.216l-5.636-5.635c-.398-.397-.474-.45-.215-.946.095-.182.095-.376-.055-.526-.311-.312-.687.021-.729.064l-2.834 2.832 2.314 4.289-.022.02-4.447-2.151-2.725 2.724c-.128.128-.451.45-.119.783.258.26.57-.009.709-.128.194-.17.367-.085.623-.02.226.054.441.162.656.27l8.897 4.413.311-.31-4.352-8.044 4.994 4.993c.398.399.473.453.215.946-.097.184-.096.376.056.527.31.31.686-.02.73-.064l3.037-3.037c.044-.043.375-.42.064-.73M23.785 20.81l-1.849-1.85-2.374-1.173-.022.022 3.623 3.624c1.173 1.516.067 1.783.53 2.246.333.332.751-.13.869-.248l1.223-1.222c.118-.118.579-.535.245-.868-.462-.463-.729.642-2.245-.531M17.947 32.07c1.016-1.04 2.588-1.184 4.22.304 1.487 1.353 1.306 3.215.303 4.219l-.35-.35c.32-.419-.007-.781-.237-1.01l-2.575-2.576c-.23-.23-.593-.556-1.01-.236l-.35-.35M20.202 29.816l1.596-1.595 4.522 4.522-1.596 1.596c-.024.023-.236.211-.411.036-.085-.085-.085-.193-.03-.296.145-.278.102-.308-.12-.532l-3.169-3.168c-.224-.223-.255-.266-.532-.122-.103.056-.212.056-.297-.029-.175-.175.013-.388.037-.412zm1.868-1.868l1.348-1.347 1.227 1.226c.03.03.14.151-.042.333-.103.103-.192.073-.314.012-.648-.332-1.251-.32-1.869.127zm4.171 4.172c.43-.55.472-1.257.151-1.905-.047-.133-.11-.266 0-.374.194-.194.357.005.381.03l1.21 1.21-1.39 1.39zm-2.153-2.153c.188-.32.067-.67-.108-.954-.073-.133-.134-.267-.006-.394.187-.187.375.06.424.11l1.306 1.306c.048.047.295.235.107.422-.126.128-.26.067-.393-.006-.283-.174-.633-.296-.954-.108l-.375-.376zM25.751 24.267c.575-.575.974-.853 1.422-.973.714-.182 1.288.042 1.796.549.507.507.731 1.082.55 1.796-.122.448-.4.847-.974 1.421l-.351-.35c.29-.424.061-.69-.235-.987l-.913-.912c-.272-.272-.575-.466-.944-.193zM24.674 26.7c-.223-.224-.253-.266-.532-.122-.102.055-.211.054-.296-.03-.174-.176.013-.388.037-.412l1.596-1.595 3.846 3.845c.222.223.253.267.531.12.103-.053.212-.054.297.03.175.176-.012.387-.037.411l-1.71 1.712a.246.246 0 01-.364-.01c-.085-.086-.1-.18-.045-.283.145-.278.07-.275-.154-.5L24.674 26.7z" fill="#fffffe"/><path d="M29.584 20.956c-.182.387-.025.592.126.743l3.132 3.131c.151.152.357.309.743.127l.351.351c-1.396 1.167-3.029.733-4.231-.471-1.204-1.203-1.64-2.836-.473-4.233zm4.273 3.73c.182-.387.025-.592-.127-.744L30.6 20.811c-.152-.153-.357-.309-.744-.128l-.35-.35c1.397-1.168 3.029-.732 4.231.471 1.203 1.204 1.64 2.835.473 4.232zM6.127 15.56L7.52 14.17l3.613 3.614c.21.21.24.25.5.113.097-.05.2-.05.28.029.164.164-.012.363-.035.386L10.27 19.92c-.023.022-.222.198-.386.033-.08-.079-.08-.181-.029-.278.136-.262.097-.29-.114-.5zm3.79-1.141a.243.243 0 01-.022.352c-.16.159-.336.04-.477-.068-.353-.25-.807-.546-1.313-.46l-.33-.33.819-.818zm-4.864 2.216l.819-.818.329.33c-.085.505.21.96.46 1.312.108.142.228.318.069.477a.242.242 0 01-.353.023zM14.088 14.828c.21.21.239.25.5.114.097-.051.2-.051.279.028.165.165-.012.364-.034.386l-1.608 1.608c-.023.023-.222.2-.387.035-.079-.08-.08-.182-.028-.279.136-.261.097-.29-.114-.5L9.72 13.242c-.21-.21-.239-.25-.5-.113-.097.05-.2.05-.279-.029-.165-.164.012-.363.034-.386l1.608-1.609c.023-.022.222-.198.387-.033.08.08.08.182.028.278-.136.261-.096.29.114.5zm-.602-2.114l-.5.5-.33-.33.5-.5-1.29-1.29c-.21-.21-.238-.25-.5-.113-.096.05-.198.05-.278-.029-.165-.164.011-.363.034-.386l1.608-1.608c.023-.023.222-.199.387-.034.08.08.08.181.028.278-.136.261-.096.29.114.5l2.977 2.978c.21.21.24.25.5.114.097-.052.2-.052.279.028.165.165-.011.363-.034.386l-1.608 1.609c-.023.022-.222.198-.387.033-.08-.079-.08-.181-.028-.278.136-.261.097-.29-.114-.5l-1.358-1.358zM13.266 8.422l1.5-1.5 4.25 4.25-1.5 1.5c-.022.024-.22.2-.386.035-.08-.08-.08-.182-.028-.279.136-.261.096-.29-.114-.5L14.01 8.95c-.21-.21-.238-.25-.5-.113-.096.051-.199.051-.278-.028-.165-.165.011-.364.034-.387zm1.756-1.756L16.289 5.4l1.154 1.154c.028.028.13.142-.04.312-.097.097-.182.068-.295.011-.609-.312-1.177-.3-1.756.12zm3.92 3.921c.404-.517.444-1.182.143-1.79-.046-.125-.102-.25 0-.352.182-.182.335.006.358.028l1.136 1.137-1.306 1.307zM16.92 8.564c.176-.301.062-.63-.102-.898-.069-.125-.125-.25-.006-.369.176-.176.352.057.398.102l1.227 1.228c.046.045.278.221.102.397-.119.12-.244.063-.369-.005-.267-.165-.597-.279-.898-.102z" fill="#fffffe"/></g></svg>