<svg xmlns="http://www.w3.org/2000/svg" viewBox="0 0 69.2 55" style="background:#031329"><path fill="#fff" d="M.3.3h68.6v54.4H.3Z"/><path fill="#031329" d="m25.5 38.7-3.6 9.2h1.9l.8-2.1h3.7l.8 2.1h2.1l-3.6-9.2zm-.4 5.7 1.3-3.8 1.3 3.8zm28.5-1.7v-4h-1.8V48h1.8v-4.4l3.3 4.3h2.5l-4-4.9 3.8-4.3h-2.3ZM2.2 32.3h64.9V2.2H2.2ZM53.8 9.8c4.5 0 7 3 7 7.3s-2.5 7.4-7 7.4c-4.6 0-7-3-7-7.4s2.4-7.3 7-7.3zm-20.5.3h3.3l3 5.1 3-5.1h3.1L41.4 17l4.7 7.4h-3.4l-3.3-5.5-3.3 5.4h-3.2l4.7-7.4zm-9 0h3.2l4.4 11.2-2 3-1.2-3.3h-5.8l-1.2 3.3h-2.9Zm-10.9-.2c1.2 0 2.4.1 3.4.5l-.8 2.1c-.7-.2-1.5-.4-2.3-.4-1 0-2.2.4-2.2 2 0 2.5 6.3 1.4 6.3 6.2 0 3.1-2.5 4.3-5.4 4.3-1.5 0-2.3-.2-3.7-.5l.9-2.3c.8.4 1.7.6 2.6.6 1.1 0 2.5-.6 2.5-1.8 0-2.7-6.3-1.6-6.3-6.3 0-3.3 2.5-4.4 5-4.4zm26.1 28.8h-2.3V48H39v-7l3.5 7h2.3v-9.3H43v6.9zm-25.3 4.5c1.1-.2 1.8-1 1.8-2.1 0-2-1.8-2.4-3-2.4H9.8v9.2H13c1.2 0 3.2-.4 3.2-2.7.1-1.1-.7-1.9-2-2zm-2.5-3h.7c.8 0 1.8.1 1.8 1.2 0 1-1 1.1-1.8 1.1h-.7zm.8 6.3h-.9v-2.7h.9c.9 0 1.9.2 1.9 1.4 0 1.1-1 1.3-1.9 1.3zm11.3-27.7h4.1l-2.1-5.9zm30 3.5c2.9 0 4-2.6 4-5.2 0-2.5-1.2-5.1-4-5.1s-4 2.6-4 5.1c0 2.6 1 5.2 4 5.2z"/></svg>