<svg xmlns="http://www.w3.org/2000/svg" viewBox="0 0 41.15 52.84"><path fill="#0085cd" d="M27 48.07c-3.4-.14-4.9-1.58-4.97-4.99-.09-4.34 2.55-12.88 2.48-16.3-.03-1.33-.52-2.8-2-2.76-5 .1-6.67 18.27-6.95 20.89-.17 1.6-.26 3.95-1.44 5.17-1.63 1.77-5.81 2.7-8.15 2.75-2.74.05-5.9-.12-5.97-3.4-.04-1.73.78-5.24 1.06-7.1.8-5.3 4.21-24.52 4.08-30.87-.02-1.4-.24-2.2-1.85-2.24-1.54-.03-3 .13-3.05-2C.18 4.2 3.97 2.78 6.3 2 9.41.94 12.87.07 16.15 0c2.54-.06 4.49.3 4.54 3.11l-1.61 12.94c-.18 1-.67 3.1.26 3.07 1.2-.02 6.43-6.08 12.51-6.2 4.55-.09 7.67 2.12 7.76 6.87.1 5-1.95 12.34-1.95 16.15 0 3.48 3.62.4 3.49 3.68-.24 4.75-10.26 8.63-14.14 8.44z"/></svg>
