<svg xmlns="http://www.w3.org/2000/svg" viewBox="0 0 166.9 167"><path fill="#fff" d="M109.2 120.4a28 28 0 0 1-22.5-1.6c-.5-.3-1 .4-.6.8 3 3.3 8.6 9.1 12 12 .7.6 1.7.5 2.3-.1l9.3-10.3c.4-.4 0-1-.5-.8z"/><path fill="#fff" d="M145.4 77.6c-5-10.8-12.4-20.9-23.6-22.1-2-.3-4.1.2-5.9 1.2L103.6 64a8.6 8.6 0 0 1-9.7-.6L83.3 55a31.7 31.7 0 0 0-12.1-5.8C52.9 45 40.5 54.6 31.1 72.6c-9 17.3-4 42 18.1 47.9 23.3 6.2 38.7-19.7 45-28.4a3 3 0 0 1 4.7 0c9.6 13 22.5 27 36.3 24.2 18-3.7 15.9-26.5 10.2-38.7zM78 91.3a9.4 9.4 0 0 1-13.7-2.7C61 83.5 62.4 77.9 67 74.9a9.4 9.4 0 0 1 13.6 2.7 9.4 9.4 0 0 1-2.5 13.7zm47.6 1a9.4 9.4 0 0 1-13.6-2.8 9.5 9.5 0 0 1 2.6-13.7 9.4 9.4 0 0 1 13.6 2.7c3.4 5.1 2 10.7-2.6 13.7z"/><path fill="#fff" d="M98.6 98.8c-1-1-2.6-1-3.5 0l-9.7 11.7c-.5.6-.4 1.4.2 1.8 2.2 1.6 7.8 5.2 13.1 5.2 5 0 9.6-2 11.7-3 .8-.4 1-1.4.4-2L98.6 98.8z"/><path fill="#ff4c46" d="M83 20.7c-17.6 0-37.2 10.8-51.6 27-10.4 11.7-23.6 44-30 61A21.7 21.7 0 0 0 4.8 130c11.3 14 35 36.7 80.6 37 41.8.3 63.1-18.3 73.1-32a30.3 30.3 0 0 0 4.6-26.3c-4.4-15.3-13.7-41.7-29-60-17.5-20.8-33.4-27.8-51-28Z"/><path fill="#fff" d="M98 63.2c25.8-18 39.9-2.4 47.7 15 5.7 12.4 7.7 35.8-10.7 39.4-14.2 2.8-27.2-11.6-36.9-25a3 3 0 0 0-5 0c-6.3 8.8-22.2 35.2-46 28.7-22.6-6.2-27.6-31.5-18.2-49 13.9-26.4 34.1-35 69-9.1z"/><path fill="#fff" d="M84.1 120c3 3.2 9.2 9.9 12.9 13 .7.7 1.7.6 2.4-.1l10-11a.3.3 0 0 0-.4-.5c-8 3-17 2.3-24.5-2a.4.4 0 0 0-.4.5zm10-20.5L84 111.3a1.3 1.3 0 0 0 .2 1.9 26 26 0 0 0 13.4 5.3c4.2 0 8.3-1.1 12-3a1.3 1.3 0 0 0 .4-2l-12.4-14a2.3 2.3 0 0 0-3.4 0z"/><path fill="#ff4c46" d="M128.1 79a10 10 0 1 1-13.9-3 9.7 9.7 0 0 1 14 3zM93.2 63.2a8.8 8.8 0 0 0 10 .7L166 27.2a1.7 1.7 0 0 0-1-3.2l-68 5.6L19.3.1a2 2 0 0 0-2 3.6l75.9 59.5zM65.4 73.4a10 10 0 0 0-6.2 12.5A10 10 0 0 0 71.6 92a10 10 0 0 0 6.2-12.7A9.4 9.4 0 0 0 66.2 73l-.8.3z"/></svg>