<svg xmlns="http://www.w3.org/2000/svg" viewBox="0 0 90 90"><defs><radialGradient id="a" cx="39.55%" cy="45.67%" r="134.61%" fx="39.55%" fy="45.67%" gradientTransform="scale(1 .74314) rotate(-56.67 .54 .54)"><stop offset="42.7%" stop-color="#2199FF"/><stop offset="56.2%" stop-color="#2B8AF3"/><stop offset="82.2%" stop-color="#4462D3"/><stop offset="91.8%" stop-color="#4E51C6"/></radialGradient><radialGradient id="b" cx="42.54%" cy="46.12%" r="81.54%" fx="42.54%" fy="46.12%" gradientTransform="matrix(.86213 .39488 -.50668 .6719 .3 -.02)"><stop offset="0%" stop-color="#2199FF"/><stop offset="21.3%" stop-color="#2396FD"/><stop offset="37.2%" stop-color="#298CF5"/><stop offset="51.4%" stop-color="#337CE8"/><stop offset="64.5%" stop-color="#4166D6"/><stop offset="73.7%" stop-color="#4E51C6"/></radialGradient><radialGradient id="c" cx="61.16%" cy="43.01%" r="176.65%" fx="61.16%" fy="43.01%" gradientTransform="matrix(.63114 -.62008 .77567 .50455 -.1 .6)"><stop offset="33.4%" stop-color="#2199FF"/><stop offset="64.8%" stop-color="#485BCE"/><stop offset="69.7%" stop-color="#4E51C6"/></radialGradient><radialGradient id="d" cx="51.18%" cy="65.49%" r="64.75%" fx="51.18%" fy="65.49%" gradientTransform="scale(1 .82727) rotate(18.96 .1 .72)"><stop offset="0%" stop-color="#2199FF"/><stop offset="29.1%" stop-color="#2297FD"/><stop offset="42.4%" stop-color="#278FF7"/><stop offset="52.5%" stop-color="#2F83ED"/><stop offset="61%" stop-color="#3A71DF"/><stop offset="68.4%" stop-color="#4959CD"/><stop offset="70.5%" stop-color="#4E51C6"/></radialGradient><radialGradient id="e" cx="48.75%" cy="35.21%" r="147.36%" fx="48.75%" fy="35.21%" gradientTransform="matrix(.45733 -.69507 .8893 .35744 -.05 .56)"><stop offset="18.2%" stop-color="#2199FF"/><stop offset="36.6%" stop-color="#2395FC"/><stop offset="53.4%" stop-color="#2A8AF3"/><stop offset="69.7%" stop-color="#3678E5"/><stop offset="85.5%" stop-color="#465ED0"/><stop offset="91.8%" stop-color="#4E51C6"/></radialGradient><radialGradient id="f" cx="138.71%" cy="128.71%" r="169.6%" fx="138.71%" fy="128.71%" gradientTransform="matrix(.70836 .5312 -.44413 .84724 .98 -.54)"><stop offset="0%" stop-color="#4E51C6"/><stop offset="17.5%" stop-color="#4263D5"/><stop offset="50.7%" stop-color="#3081EC"/><stop offset="79.3%" stop-color="#2593FA"/><stop offset="100%" stop-color="#2199FF"/></radialGradient><radialGradient id="g" cx="41.3%" cy="52.05%" r="266.08%" fx="41.3%" fy="52.05%" gradientTransform="matrix(.56771 -.5325 .82323 .36722 -.25 .55)"><stop offset="0%" stop-color="#2199FF"/><stop offset="13.2%" stop-color="#2494FB"/><stop offset="28.3%" stop-color="#2D87F0"/><stop offset="44.3%" stop-color="#3B70DE"/><stop offset="60.4%" stop-color="#4E51C6"/></radialGradient></defs><g fill-rule="nonzero" fill="none"><path fill="url(#a)" d="M89.65 25.58c-5.7-17.4-21.77-11.53-22.6-11.35-25.2 8.88-32.64 70.5-32.64 70.5s-.42 3.17 1.41 3.26c0 0 1.6.27 2.68-2.68.05-.14.1-.28.12-.42.75-3.71 11.5-55.04 35.21-56.22a23.36 23.36 0 0111.77 2.46c.29.17 1.78.97 3.03-.17.2-.2.38-.41.53-.64.72-1.17 1.2-2.2.49-4.74z" transform="translate(0 1)"/><path fill="url(#b)" d="M38.41 84.38C53.43-5.22 85.6 31.13 85.6 31.13a27.5 27.5 0 00-8.27-2.39c-6.39-.72-14.3 1.36-21.7 12.27 0 0-8.18 9.98-14.35 33.06l-2.87 10.3z" transform="translate(0 1)"/><path fill="url(#c)" d="M76.41 47.9c-12.4-2.36-28.87 35.8-28.87 35.8-1.08 2.24-2.25 1.77-2.25 1.77-1.34-.28-.75-2.52-.75-2.52s10.69-45.14 27.86-46.8c0 0 11.26-1.36 11.51 11.4 0 0 0 4.01-3.42 2.33 0 0-2.16-1.61-4.08-1.99z" transform="translate(0 1)"/><path fill="url(#d)" d="M80.5 49.88s-2.05-1.5-4-1.86c-12.23-2.18-29.05 35.86-29.05 35.86s8.52-28.08 21.29-38.26c0 0 7.89-5.84 11.75 4.26z" transform="translate(0 1)"/><path fill="url(#e)" d="M62.26 3.05S57.42-1.96 49.16.86c0 0-8.6 2.52-11.6 14.58 0 0-2 7.84-3.26 15.32A92.24 92.24 0 0130.3 46.4c-7.34 21.98-15.6 21.81-15.6 21.81-6.91 0-10.59-9.15-10.59-9.15-.38-.94-1.75-2.35-3.24-1.34a2 2 0 00-.61.9c-.19.62-.41 2-.08 4.36 2.5 15.51 12.11 18.03 12.11 18.03 15.1 4.58 20.77-22.14 20.77-22.14.09-.28 5.51-26.48 17.18-40.33a28.41 28.41 0 0110.8-8.92c.8-.33 1.53-.79 2.17-1.36.82-.83.85-3.55-.94-5.22z" transform="translate(0 1)"/><path fill="url(#f)" d="M30.33 46.47C23.36 65.8 14.87 65.04 14.87 65.04s-6.1.29-10.77-5.97c0 0 3.68 9.33 10.6 9.33 0 0 9.32.73 15.63-21.93z" transform="translate(0 1)"/><path fill="url(#g)" d="M36.04 47.54c7.44-52.25 25.9-38.38 25.9-38.38l-.9.47c-6.38 2.92-10.8 8.78-10.8 8.77-5.83 6.14-14.2 29.14-14.2 29.14z" transform="translate(0 1)"/></g></svg>