<svg xmlns="http://www.w3.org/2000/svg" viewBox="0 0 2000 1679"><path fill="#ffd400" d="M1193 0H795v397h398zm0 0"/><path fill="#002857" d="M1988 124v274h-398V0h274c68 0 124 55 124 124m0 671h-398v398h398zM398 318V0H0v1069a124 124 0 0 0 124 124h274V873c0-43 35-78 79-78h318V397H477a79 79 0 0 1-79-78m795 476H795v398h398Zm-759 835c-28 0-50-9-68-27a91 91 0 0 1-27-69 94 94 0 0 1 96-98 89 89 0 0 1 66 28 93 93 0 0 1 28 68c0 28-9 51-28 70a90 90 0 0 1-67 27m108-200c-29-27-65-41-109-41-43 0-80 14-108 41-27 28-43 63-43 105a137 137 0 0 0 43 103c28 27 64 41 106 41 44 0 81-14 110-42 30-27 44-62 44-103s-14-76-43-104m1180-38v160c0 44-18 76-67 76-51 0-69-32-69-76v-159h-55v170c0 83 57 117 124 117 66 0 122-33 122-116v-171zm-330 0v234h118v49h-173v-283zm-198 128c28 0 51-13 51-40s-16-39-51-39h-32v79zm16-128c59 0 89 39 89 88 0 52-36 89-91 89h-46v106h-54v-283zm-140 0v49h-93v234h-55v-234h-92v-49zm839-3c27 0 54 7 79 20v56c-29-18-49-28-78-28s-41 9-42 23c1 11 7 20 21 30l45 23c23 11 40 23 50 37a78 78 0 0 1 16 47 74 74 0 0 1-27 59 100 100 0 0 1-67 23c-18 0-34-2-46-7a195 195 0 0 1-45-20v-62c31 25 59 40 85 40s42-9 42-27c0-11-5-21-19-29l-44-25a171 171 0 0 1-51-37 70 70 0 0 1-16-45c0-24 9-43 27-57 17-15 40-21 70-21m-1197 0c28 0 55 6 81 20v56c-30-18-50-28-79-28-28 0-40 9-41 23 0 11 6 20 20 30l46 23c23 11 40 23 50 37a78 78 0 0 1 16 47 74 74 0 0 1-27 59 100 100 0 0 1-68 23c-18 0-33-2-46-7a198 198 0 0 1-44-20v-62c30 25 58 40 85 40 25 0 42-9 42-27 0-11-5-21-19-29l-46-25a174 174 0 0 1-49-37 70 70 0 0 1-17-45c0-24 10-43 27-57 18-15 41-21 70-21m-657 3v114h133v-113h55v283h-55v-115H55v113H0v-283zm0 0"/></svg>
