<svg xmlns="http://www.w3.org/2000/svg" viewBox="0 0 90 90"><path fill="#9AD36A" d="M8 25l15 8-15 8zM23 17l15 8-15 8z"/><path fill="#007EDB" d="M8 41l15 8-15 8z"/><path fill="#002F52" d="M8 57l15 8-15 8z"/><path fill="#5AB0EF" d="M23 33L8 41l15 8z"/><path fill="#62AE18" d="M23 17L8 25l15 8z"/><path fill="#5AB0EF" d="M38 9l-15 8 15 8z"/><path fill="#004A80" d="M23 49L8 57l15 8z"/><path fill="#00223B" d="M23 65L8 73l15 8z"/><g><path fill="#00223B" d="M68 9l15 8-15 8z"/><path fill="#004A80" d="M68 25l15 8-15 8z"/><path fill="#5AB0EF" d="M68 41l15 8-15 8z"/><path fill="#62AE18" d="M68 57l15 8-15 8z"/><path fill="#5AB0EF" d="M53 65l15 8-15 8z"/><path fill="#002F52" d="M83 17l-15 8 15 8z"/><path fill="#007EDB" d="M83 33l-15 8 15 8z"/><path fill="#9AD36A" d="M83 49l-15 8 15 8zM68 57l-15 8 15 8z"/></g><g><path fill="#004A80" d="M38 57l15 8-15 8zM38 73l15 8-15 8z"/><path fill="#002F52" d="M53 49l-15 8 15 8z"/><path fill="#007EDB" d="M53 65l-15 8 15 8z"/></g><g><path fill="#007EDB" d="M38 9l15 8-15 8z"/><path fill="#002F52" d="M38 25l15 8-15 8z"/><path fill="#004A80" d="M53 1L38 9l15 8zM53 17l-15 8 15 8z"/></g></svg>