<svg xmlns="http://www.w3.org/2000/svg" version="1.0" width="94" height="94"><path fill="#f25621" d="M94 80.92C94 88.15 88.15 94 80.92 94H13.08C5.85 94 0 88.15 0 80.92V13.08C0 5.85 5.85 0 13.08 0h67.85C88.15 0 94 5.85 94 13.08z"/><path fill="#fff" d="M77.77 14.95h-18.8c-.7 0-1.26.57-1.26 1.26v16.81h2.1c.3.02.54.26.54.57 0 .13-.05.24-.12.34L48.18 46.2a1.25 1.25 0 000 1.6l12.04 12.27c.07.1.12.21.12.34 0 .31-.24.55-.54.57h-2.1v16.81c0 .7.57 1.26 1.26 1.26h18.8c.7 0 1.26-.57 1.26-1.26V16.21c.02-.7-.55-1.26-1.25-1.26M33.89 34a.61.61 0 01-.17-.41c0-.31.24-.55.54-.57h2.08V16.21c0-.7-.57-1.26-1.26-1.26H16.22c-.7 0-1.26.57-1.26 1.26v61.58c0 .7.57 1.26 1.26 1.26h18.85c.7 0 1.26-.57 1.26-1.26V60.98h-2.08a.57.57 0 01-.54-.57c0-.16.06-.3.17-.41l11.98-12.2a1.25 1.25 0 000-1.6z"/></svg>