<?xml version="1.0" encoding="UTF-8" standalone="no"?><svg height="278.71" viewBox="0 0 262.5 209.03" width="350" xmlns="http://www.w3.org/2000/svg" xmlns:xlink="http://www.w3.org/1999/xlink"><g transform="translate(-764.2 -518.32)"><use fill="#172e68" height="100%" transform="translate(-754.6 -524.87) scale(1.84271)" width="100%" x="734.44" xlink:href="#a" y="291.26"/><use fill="#172e68" height="100%" transform="translate(-754.6 -524.87) scale(1.84271)" width="100%" x="814.7" xlink:href="#a" y="291.26"/><use fill="#172e68" height="100%" transform="translate(-754.6 -524.87) scale(1.84271)" width="100%" x="813.15" xlink:href="#a" y="371.95"/><use fill="#172e68" height="100%" transform="translate(-754.6 -524.87) scale(1.84271)" width="100%" x="817.51" xlink:href="#a" y="458.55"/><use fill="#eb6147" height="100%" transform="translate(-754.6 -524.87) scale(1.84271)" width="100%" x="1067.01" xlink:href="#a" y="384.86"/><use fill="#eb6147" height="100%" transform="translate(-754.6 -524.87) scale(1.84271)" width="100%" x="1074.05" xlink:href="#a" y="489.97"/><use fill="#eb6147" height="100%" transform="translate(-754.6 -524.87) scale(1.84271)" width="100%" x="990.97" xlink:href="#a" y="291.26"/><use fill="#eb6147" height="100%" transform="translate(-754.6 -524.87) scale(1.84271)" width="100%" x="1071.23" xlink:href="#a" y="291.26"/><use fill="#172e68" height="100%" transform="translate(-754.6 -524.87) scale(1.84271)" width="100%" x="996.34" xlink:href="#b" y="801.06"/><path d="M764.2 727.35h262.5V518.32H764.2zm0 0" fill="#002857"/><path d="M1004.27 544.78v29.94h-43.53V531.2h29.94c7.52 0 13.6 6.07 13.6 13.59M1004.27 618.26h-43.53v43.53h43.53zm0 0" fill="#fff"/><path d="M917.24 531.19H873.7v43.53h43.54zm0 0" fill="#ffd400"/><path d="M830.17 566.09v-34.9h-43.54v116.98a13.6 13.6 0 0 0 13.6 13.62h29.94v-34.92c0-4.75 3.86-8.61 8.63-8.61h34.9v-43.54h-34.9a8.64 8.64 0 0 1-8.63-8.63M917.24 618.26H873.7v43.53h43.54zM834.08 709.67c-3 0-5.41-.98-7.4-3a10.09 10.09 0 0 1-2.93-7.48c0-3.14.95-5.64 2.9-7.66 2-2.01 4.47-3 7.55-3a9.8 9.8 0 0 1 7.34 3.03 10.18 10.18 0 0 1 2.97 7.46c0 3.05-.98 5.56-2.97 7.6a9.88 9.88 0 0 1-7.46 3.05m11.8-21.97c-3.13-2.99-7.13-4.49-11.85-4.49-4.73 0-8.7 1.5-11.78 4.52-3.14 3-4.7 6.86-4.7 11.46 0 4.47 1.56 8.24 4.67 11.23 3.08 2.97 6.97 4.46 11.6 4.46 4.78 0 8.84-1.5 12.04-4.46 3.2-2.96 4.8-6.8 4.8-11.31 0-4.55-1.6-8.38-4.77-11.4m129.33-4.18v17.33c0 4.93-1.93 8.32-7.45 8.32-5.53 0-7.43-3.4-7.43-8.32v-17.33h-6.02v18.63c0 9.13 6.19 12.72 13.45 12.72 7.28 0 13.44-3.6 13.44-12.72v-18.63zm-36.19 0v25.6h13.02v5.35h-19v-30.95zm-21.6 14c2.94 0 5.48-1.39 5.48-4.33 0-2.96-1.7-4.29-5.47-4.29h-3.6v8.61zm1.7-14c6.48 0 9.77 4.23 9.77 9.64 0 5.65-4.03 9.7-10 9.7h-5.06v11.61h-6v-30.95zm-15.34 0v5.38h-10.16v25.57h-6v-25.57H877.5v-5.38zm91.79-.38c3.02 0 5.93.75 8.7 2.25v6.1c-3.2-1.92-5.36-3.13-8.59-3.13-3.1 0-4.37 1.09-4.46 2.62-.08 1.18.63 2.16 2.19 3.16.46.3 2.1 1.13 5.01 2.6 2.48 1.23 4.38 2.53 5.5 3.97a8.46 8.46 0 0 1 1.7 5.3 8.1 8.1 0 0 1-2.88 6.42c-1.9 1.64-4.38 2.44-7.43 2.44-1.99 0-3.69-.23-5.1-.66a21.3 21.3 0 0 1-4.8-2.24v-6.8c3.3 2.74 6.33 4.44 9.27 4.44 2.76 0 4.6-1.04 4.6-2.94 0-1.27-.57-2.4-2.13-3.31-1.26-.75-2.93-1.62-4.86-2.68-2.36-1.3-4.26-2.48-5.47-3.95a7.65 7.65 0 0 1-1.82-5.06c0-2.6.98-4.67 2.91-6.22 1.93-1.56 4.5-2.3 7.66-2.3m-130.92 0c3.02 0 5.9.74 8.7 2.24v6.1c-3.2-1.92-5.36-3.13-8.58-3.13-3.11 0-4.38 1.09-4.47 2.62-.08 1.18.64 2.16 2.2 3.16.45.3 2.1 1.13 5 2.6 2.48 1.23 4.38 2.53 5.5 3.97a8.46 8.46 0 0 1 1.7 5.3 8.1 8.1 0 0 1-2.88 6.42c-1.93 1.64-4.4 2.44-7.43 2.44-1.99 0-3.68-.23-5.12-.66a21.73 21.73 0 0 1-4.78-2.24v-6.8c3.3 2.74 6.33 4.44 9.27 4.44 2.76 0 4.58-1.04 4.58-2.94 0-1.27-.58-2.4-2.1-3.31-1.27-.75-2.94-1.62-4.9-2.68-2.33-1.3-4.23-2.48-5.44-3.95a7.65 7.65 0 0 1-1.82-5.06c0-2.6.98-4.67 2.91-6.22 1.93-1.56 4.5-2.3 7.66-2.3m-72.04.37v12.35h14.66v-12.35h5.99v30.95h-6V702.1h-14.65v12.38h-5.99v-30.95zm0 0" fill="#fff"/><use fill="#fff" height="100%" transform="translate(-754.6 -524.87) scale(1.84271)" width="100%" x="45.74" xlink:href="#c" y="124.56"/><use fill="#172e68" height="100%" transform="translate(-754.6 -524.87) scale(1.84271)" width="100%" x="46.98" xlink:href="#c" y="124.56"/><use fill="#172e68" height="100%" transform="translate(-754.6 -524.87) scale(1.84271)" width="100%" x="48.22" xlink:href="#c" y="124.56"/><use fill="#171714" height="100%" transform="translate(-754.6 -524.87) scale(1.84271)" width="100%" x="1067.39" xlink:href="#d" y="66.89"/><use fill="#171714" height="100%" transform="translate(-754.6 -524.87) scale(1.84271)" width="100%" x="1115.27" xlink:href="#d" y="66.89"/></g></svg>