<svg xmlns="http://www.w3.org/2000/svg" width="48.9" height="48.9"><path d="M22.4 27.15l-10.7-.3c-3.9-.1-7.8-.1-11.7-.2v-4.3l2.6-.1c6.5-.1 13.2-.3 19.9-.5v5.4z"/><path fill="#f78d1e" d="M5.4 44.45c-3-.5-5.4-3.4-5.4-6.4v-7.3c.7 0 1.4.1 2.1.1.7 0 1.4.1 2.1.1v8.8l.6.1c6.8.8 12.4 1.5 17.7 2.2v5.4z"/><path d="M0 10.85c0-3 2.4-5.9 5.4-6.4l17.1-3v5.4c-5.4.7-11.2 1.4-17.7 2.2l-.6.1v8.8c-1.3.1-2.7.2-4.2.2z"/><path fill="#f78d1e" d="M26.4 21.75c6.6.2 13.4.3 19.9.5l2.6.1v4.3c-3.9.1-7.8.2-11.8.3l-10.7.3z"/><path d="M26.4 42.05c5.3-.7 10.9-1.4 17.7-2.2l.6-.1v-8.8c.7 0 1.4-.1 2.1-.1.7 0 1.4-.1 2.1-.1v7.3c0 3-2.4 5.9-5.4 6.4l-17.1 3z"/><path fill="#f78d1e" d="M48.9 18.15c-1.5-.1-2.9-.1-4.2-.2v-8.8l-.6-.1c-6.5-.8-12.3-1.5-17.7-2.2v-5.4l17.1 3c3 .5 5.4 3.4 5.4 6.4zM32.6 12.25l-6.2-.7v5.5l6.2.3z"/><path fill="#9e96b8" d="M35.8 12.55v4.9l5 .3v-4.7z"/><path fill="#f78d1e" d="M32.6 31.55l-6.2.3v5.5l6.2-.7z"/><path d="M35.8 31.45v4.9l5-.5v-4.7zM13 12.55l-5 .5v4.7l5-.3z"/><path fill="#9e96b8" d="M16.2 12.25v5.1l6.2-.3v-5.5zM13 31.45l-5-.3v4.7l5 .5z"/><path d="M16.2 31.55v5.1l6.2.7v-5.5z"/></svg>