<svg xmlns="http://www.w3.org/2000/svg" viewBox="0 0 90 90"><path d="m8 25 15 8-15 8zm15-8 15 8-15 8z" fill="#9AD36A"/><path d="m8 41 15 8-15 8z" fill="#007EDB"/><path d="m8 57 15 8-15 8z" fill="#002F52"/><path d="M23 33 8 41l15 8z" fill="#5AB0EF"/><path d="M23 17 8 25l15 8z" fill="#62AE18"/><path d="m38 9-15 8 15 8z" fill="#5AB0EF"/><path d="M23 49 8 57l15 8z" fill="#004A80"/><path d="M23 65 8 73l15 8z" fill="#00223B"/><path d="m68 9 15 8-15 8z" fill="#00223b"/><path d="m68 25 15 8-15 8z" fill="#004a80"/><path d="m68 41 15 8-15 8z" fill="#5ab0ef"/><path d="m68 57 15 8-15 8z" fill="#62ae18"/><path d="m53 65 15 8-15 8z" fill="#5ab0ef"/><path d="m83 17-15 8 15 8z" fill="#002f52"/><path d="m83 33-15 8 15 8z" fill="#007edb"/><path d="m83 49-15 8 15 8zm-15 8-15 8 15 8z" fill="#9ad36a"/><path d="m38 57 15 8-15 8zm0 16 15 8-15 8z" fill="#004a80"/><path d="m53 49-15 8 15 8z" fill="#002f52"/><path d="m53 65-15 8 15 8zM38 9l15 8-15 8z" fill="#007edb"/><path d="m38 25 15 8-15 8z" fill="#002f52"/><path d="M53 1 38 9l15 8zm0 16-15 8 15 8z" fill="#004a80"/></svg>
