<svg xmlns="http://www.w3.org/2000/svg" width="241.561" height="241.561"><path d="M1.87 183.194c-2.395-1.394-2.531-11.406-.168-12.312.87-.334 17.285-.607 36.478-.607h34.896l-2.946-4.645c-1.62-2.555-3.671-6.83-4.558-9.5l-1.613-4.855H44.494c-19.333 0-19.481-.017-21.92-2.455-3.85-3.851-3.155-8.614 1.618-11.082 2.183-1.13 7.044-1.463 21.298-1.463h18.47l1.612-4.855c.887-2.67 2.938-6.946 4.558-9.5l2.946-4.645H59.598c-12.144 0-13.676-.198-15.478-2-2.334-2.334-2.605-6.79-.582-9.56 1.334-1.825 3.189-1.97 31.237-2.44l29.82-.5.764-5.32c1.064-7.404 6.572-18.72 12.066-24.788 8.016-8.854 22.912-15.356 35.235-15.38 22.993-.046 43.447 16.965 47.635 39.616l1.133 6.13 4.607.545c11.715 1.387 22.913 8.269 29.144 17.908 5.244 8.114 6.453 12.53 6.379 23.289-.055 7.856-.451 9.839-3.122 15.604-7.208 15.564-20.947 23.896-39.405 23.896-9.035 0-11.91-1.69-11.91-7 0-5.073 2.589-6.604 12.334-7.292 10.592-.747 15.817-2.93 21.283-8.888 4.908-5.35 6.804-10.375 6.724-17.82-.071-6.734-2.006-11.516-6.808-16.832-5.395-5.971-10.497-8.051-21.594-8.803-5.192-.351-9.938-1.029-10.547-1.506-.608-.477-1.407-5.028-1.774-10.113-.53-7.364-1.281-10.51-3.685-15.454-6.6-13.575-21.214-20.962-36.123-18.258-7.798 1.414-10.853 2.99-17.068 8.803-7.458 6.976-9.94 12.679-10.517 24.163-.262 5.225-.925 10.062-1.474 10.75-.582.73-3.304 1.25-6.542 1.25-14.947 0-24.378 4.326-29.896 13.713-2.452 4.17-2.814 5.816-2.814 12.787 0 6.912.371 8.63 2.73 12.644 1.502 2.555 4.202 5.885 6 7.402 6.62 5.58 8.229 5.864 35.27 6.197 13.75.169 26.007.528 27.238.798 1.23.27 2.971 1.61 3.868 2.98 1.381 2.108 1.439 2.956.376 5.523-.69 1.667-2.065 3.465-3.053 3.994-2.524 1.35-146.853 1.236-149.179-.119z" fill="#0f96e7"/></svg>