<svg xmlns="http://www.w3.org/2000/svg" width="23.576" height="23.576"><defs><linearGradient id="a" x1="31.73" y1="388.52" x2="146.83" y2="503.62" gradientTransform="matrix(1 0 0 -1 .503 457.86)" gradientUnits="userSpaceOnUse"><stop offset="0" stop-color="#1e345d"/><stop offset=".58" stop-color="#238384"/><stop offset=".92" stop-color="#62b56e"/><stop offset="1" stop-color="#62b56e"/></linearGradient></defs><path d="M2.813 0v.04h-.57l-.81.1v23.2l.81.11c.19.01.38.01.57 0h1.299c.203.02.408.02.611 0l.78-.07V.15l-.81-.1-.6-.05zm16.63 0l-.571.05-.809.1v23.24l.799.11c.195.03.392.051.59.06h1.3c.203.02.407.02.61 0l.781-.12V.15l-.81-.1-.6-.05h-1.23zM6.732 8.8l-.1.51a1.563 1.563 0 000 .37v.83a1.834 1.834 0 000 .4l.12.5h10.08l.1-.52c0-.13 0-.26.05-.39.03-.273.03-.548 0-.82 0-.12 0-.25-.05-.37l-.1-.51zm0 3.73l-.1.52a1.563 1.563 0 000 .37v.83c-.014.13-.014.261 0 .39l.12.5h10.08l.1-.52c0-.13 0-.26.05-.39.03-.272.03-.547 0-.82 0-.12 0-.24-.05-.36l-.1-.52z" fill="url(#a)"/></svg>