<svg xmlns="http://www.w3.org/2000/svg" width="113.34" height="113.34"><path d="M99.433 36.9C82.703 6.63 33.613 0 33.613 0s22.66 25.22-6.3 45.18C9.013 57.77 1.763 74.13 9.603 92c6 13.69 18.7 19.25 32.4 21.34-3.52-6.77-4.4-16.55-1.8-26.58.26-1 .55-2.05.88-3 3.84 5.94 10.14 9.19 16.29 7.69 8.42-2 13.36-12.19 11.06-22.66a24.1 24.1 0 00-2.53-6.48c.33.08.66.11 1 .22 10.51 3 15.59 18.71 11.35 35.11a43.76 43.76 0 01-6.26 13.91c18.04-5.81 30.04-20.36 33.34-33.32 3.48-13.49.84-29.21-5.9-41.33z" fill="#fd3a5c"/></svg>