<svg xmlns="http://www.w3.org/2000/svg" width="196.56" height="196.56"><defs><clipPath id="a"><path d="M0 0h400v400H0z"/></clipPath></defs><g clip-path="url(#a)" transform="translate(-110.94 -104.999)"><path d="M132.84 137.099c1.48-1 3.03-1.86 4.62-2.57a29.28 29.28 0 0112.94-24.37c10.65-7.22 24.43-6.68 34.38.47 7.8-4.94 17.03-5.42 25.75-1.84 6.41 2.64 12.46 7.35 18.89 14.18 5.19 5.5 12.26 15.16 20.95 28.55.55-.73 1.13-1.44 1.74-2.14 6.09-6.97 14.5-11.03 24.23-10.68 9.08.33 16.76 5.07 21.74 12.75 3.48 5.39 5.62 12.02 7.02 20.44 4.46 26.88 2.82 53.03-7.33 77.88-12.67 31-44.7 51.79-78.52 51.79-14.47 0-28.22-4.6-41.11-12.73-9.88-6.23-18.86-14.28-27.05-23.57-12.12-13.74-31.66-45.66-36.36-58.03-2.3-6.04-3.61-11.56-3.72-16.86-.17-7.96 2.39-15.42 8.47-20.93.41-.38.83-.74 1.26-1.08-2.84-11.55 1.6-24.14 12.1-31.26z" display="block"/><path fill="#ffd14d" d="M280.179 242.58c9.82-24.04 9.4-48.16 6.17-67.58-2.05-12.36-5.65-17.13-10.7-17.31-14.24-.51-15.93 22.97-17.98 27.2-1.63 3.37-4.19 4.08-7.92.53-1.1-1.06-2.05-2.28-2.84-3.59-14.71-24.3-25.32-39.47-31.32-45.84-9.7-10.29-16.14-12.32-20.82-9.19-3.56 2.38-2.91 7.42-.12 12.53 2.78 5.1 19.77 33.81 24.6 41.75.95 1.57 1.52 3.81 0 4.84-1.52 1.03-3.46-.05-4.52-1.52l-38.61-55.91c-3.44-4.75-10.18-5.92-15.06-2.61-4.89 3.31-6.06 9.84-2.63 14.59l36.11 54.43c1.07 1.47 1.52 3.61 0 4.64-1.52 1.03-3.22.26-4.28-1.21l-31.71-42.9c-3.43-4.74-10.17-5.91-15.05-2.6-4.89 3.31-6.06 9.84-2.63 14.59l37.43 52.17c1.11 1.53 1.16 3.83-.42 4.91-1.59 1.07-3.56.16-4.62-1.33-1.05-1.49-22.88-30.73-27.28-36.02-3.7-4.44-9.37-7.6-13.74-3.64-3.15 2.86-2.9 8.69.25 16.97s20.77 38.51 32.85 52.21c12.09 13.7 31.12 29.87 53.91 29.87 25.89 0 51.11-15.94 60.93-39.98z" display="block"/><path stroke-linecap="round" stroke="#ff9e2a" stroke-width="9.333" d="M200 236.67c6.92-11.53 16.69-24.66 28-32.67M246.999 204c0 9.85 3.72 27.03 9.33 37.33" fill="none" opacity=".5" display="block"/></g></svg>