<svg viewBox="0 0 36 36" xmlns="http://www.w3.org/2000/svg"><path d="m18 36c-0.179 0-0.3571-0.0033-0.5349-0.0084l3.678-10.11h5.062c0.8886 0 1.864-0.6831 2.168-1.518l3.991-10.96c0.6529-1.795-0.3751-3.263-2.285-3.263h-7.023l-5.893 16.19h-0.0023l-3.341 9.18c-7.926-1.884-13.82-9.009-13.82-17.51 0-8.257 5.56-15.21 13.14-17.34l-3.447 9.474h-9.8e-4l-5.731 15.74 3.815 4e-4 4.873-13.38h2.867l-4.874 13.38 3.813 6e-4 4.542-12.48c0.6533-1.795-0.3748-3.263-2.283-3.263h-3.207l3.682-10.12c0.2684-0.01188 0.5378-0.01892 0.809-0.01892 9.941 0 18 8.059 18 18 0 9.941-8.059 18-18 18zm10.89-23.51h-2.866l-4.014 11.01h2.866l4.014-11.01z" fill="#0096D6"/></svg>
