<svg xmlns="http://www.w3.org/2000/svg" fill="#14aa40" width="56" height="56"><path d="M0 0h56v56H0z"/><path d="M51.3 42h-3.4l-2 3.4h-.2V42h-3v9.7h3v-4h.2l2 4h3.6l-2.8-5.3zM36.6 44.4c1.1 0 1.5.7 1.5 1.4H41c-.1-2.2-1.6-4-4.3-4-3.1 0-4.6 1.8-4.6 4.4v1.3c0 2.6 1.5 4.4 4.6 4.4 2.7 0 4.3-1.8 4.3-4h-2.9c-.1.7-.4 1.4-1.5 1.4-1 0-1.5-.7-1.5-1.7v-1.5c0-1.1.5-1.7 1.5-1.7zM26.4 41.8c-3 0-4.6 1.8-4.6 4.4v1.2c0 2.6 1.6 4.4 4.6 4.4 3 0 4.6-1.8 4.6-4.4v-1.2c0-2.6-1.6-4.4-4.6-4.4zM17 42h-3v9.7h6.9v-2.5H17zM10.8 46.7c.8-.4 1.3-1.2 1.3-2.2C12.1 43 11 42 9.2 42h-5v9.7h5.1c2.2 0 3.4-1.1 3.4-2.8 0-1.1-.7-1.9-1.9-2.2zM27.6 36.8h.9l1.5 2.5h3.5l-1.9-3.1c1-.6 1.7-1.7 1.7-3.1 0-2.1-1.3-3.6-3.8-3.6h-4.9v9.7h3zM22 37.3c.3-.6.4-1.3.4-1.9v-1.5h-2.1v1.4L18 32.8c-.2-.3-.4-.5-.4-.8 0-.4.3-.6.7-.6.4 0 .7.3.7.7v.5h2.3V32c0-1.5-1.3-2.5-3.1-2.5-1.9 0-3.2 1-3.2 2.5 0 .4.1 1.1.8 1.7-.9.4-1.8 1.3-1.8 2.7 0 1.9 1.5 3.2 4.2 3.2.9 0 1.8-.3 2.4-.7l.4.5h2.7zM9.7 33.1H7.2v-3.5h-3v9.7h3v-3.5h2.5v3.5h3.1v-9.7H9.7z" fill="#fff"/><path d="M9.1 49.5h-2v-1.6h2c.5 0 .8.4.8.8s-.3.8-.8.8zM7.1 44.3h1.4c.4 0 .7.3.7.7 0 .5-.3.8-.7.8H7.1zM28 47.7c0 1.1-.6 1.7-1.6 1.7s-1.6-.6-1.6-1.7v-1.6c0-1.1.6-1.7 1.6-1.7s1.6.6 1.6 1.7zM27.6 32h1.5c.7 0 1.1.5 1.1 1.2s-.4 1.2-1.1 1.2h-1.5zM18.3 37.5c-.7 0-1.6-.4-1.6-1.3 0-.5.3-.9.7-1.1 0 0 1.6 1.8 1.9 2.1-.2.2-.6.3-1 .3z"/></svg>