<svg xmlns="http://www.w3.org/2000/svg" viewBox="0 0 39.5 39.7"><path fill="#1c87c9" d="M19.738 0c-1.74 0-2.986 1.593-2.986 3.787a4.818 4.818 0 0 0 1.21 3.035L11.835 9.38a4.818 4.818 0 0 0-1.28-3C9.01 4.826 7 4.59 5.785 5.819c-1.218 1.226-.994 3.25.556 4.794a4.777 4.777 0 0 0 2.984 1.283l-2.537 6.166a4.766 4.766 0 0 0-3.017-1.214c-2.185 0-3.77 1.25-3.77 3s1.585 3 3.77 3a4.755 4.755 0 0 0 3.017-1.215l2.545 6.17a4.742 4.742 0 0 0-2.984 1.287c-1.546 1.548-1.78 3.565-.559 4.795 1.222 1.23 3.235.988 4.77-.565a4.796 4.796 0 0 0 1.279-3l6.144 2.555a4.81 4.81 0 0 0-1.21 3.031c0 2.198 1.245 3.79 2.986 3.79 1.742 0 2.986-1.592 2.986-3.79a4.824 4.824 0 0 0-1.209-3.031l6.143-2.555a4.807 4.807 0 0 0 1.279 3c1.543 1.553 3.55 1.788 4.773.565 1.224-1.222.995-3.25-.56-4.795a4.747 4.747 0 0 0-2.986-1.287l2.546-6.17a4.782 4.782 0 0 0 3.02 1.215c2.185 0 3.77-1.25 3.77-3s-1.612-3-3.797-3a4.776 4.776 0 0 0-3.022 1.215l-2.545-6.17a4.774 4.774 0 0 0 2.987-1.286c1.545-1.552 1.78-3.57.56-4.794-1.22-1.224-3.235-1.002-4.773.558a4.817 4.817 0 0 0-1.28 3l-6.134-2.549a4.824 4.824 0 0 0 1.209-3.035C22.725 1.593 21.48 0 19.738 0Zm.004 1.723c.747 0 1.269.867 1.272 2.062 0 .085-.05 1.535-1.272 2.27-1.216-.735-1.26-2.185-1.263-2.27.003-1.195.532-2.062 1.263-2.062zM7.74 6.756c.487.016 1.068.305 1.6.832.06.06 1.05 1.12.705 2.5-1.381.347-2.433-.648-2.488-.705-.84-.84-1.089-1.832-.56-2.354.192-.195.451-.283.743-.273Zm24.01.002c.294-.01.554.078.748.273.518.523.284 1.515-.555 2.36-.059.057-1.114 1.053-2.488.705-.343-1.388.652-2.448.697-2.506.527-.527 1.109-.816 1.598-.832ZM19.742 7.953l8.373 3.483 3.47 8.404-3.47 8.41-8.373 3.48-8.363-3.48-3.47-8.406 3.468-8.408ZM3.762 18.57c.085 0 1.53.046 2.261 1.274-.729 1.225-2.174 1.266-2.261 1.271-1.187 0-2.051-.536-2.051-1.271 0-.735.864-1.274 2.05-1.274zm31.967 0c1.187 0 2.048.539 2.048 1.274s-.861 1.266-2.048 1.271c-.085 0-1.53-.047-2.26-1.271.73-1.228 2.175-1.274 2.26-1.274zM9.537 29.521c.16.007.326.029.498.073.353 1.385-.635 2.442-.695 2.502-.844.84-1.83 1.08-2.348.558-.518-.523-.285-1.512.555-2.357.052-.05.866-.819 1.99-.776zm20.408.002c1.125-.043 1.936.723 1.987.776.846.842 1.08 1.832.56 2.355-.517.522-1.493.282-2.346-.558-.055-.062-1.046-1.117-.703-2.5.173-.044.341-.066.502-.073zM19.74 33.627c1.223.735 1.267 2.186 1.27 2.273 0 1.193-.53 2.055-1.27 2.055-.732 0-1.261-.862-1.263-2.055 0-.088.046-1.538 1.263-2.273z"/></svg>
