<svg xmlns="http://www.w3.org/2000/svg" width="163.58" height="163.58"><path d="M123.64 53.86V34.38a15 15 0 0 0 8.65-13.52v-.45a15 15 0 0 0-15-15h-.45a15 15 0 0 0-15 15v.45a15 15 0 0 0 8.65 13.52v19.48a42.48 42.48 0 0 0-20.2 8.89L36.87 21.14a16.75 16.75 0 0 0 .6-4.21A16.9 16.9 0 1 0 20.55 33.8a16.72 16.72 0 0 0 8.32-2.26l52.61 40.93a42.61 42.61 0 0 0 .65 48l-16 16a13.74 13.74 0 0 0-4-.65 13.88 13.88 0 1 0 13.89 13.89 13.7 13.7 0 0 0-.65-4l15.83-15.83a42.68 42.68 0 1 0 32.44-76.02m-6.56 64.06A21.9 21.9 0 1 1 139 96.01a21.9 21.9 0 0 1-21.9 21.9" fill="#ff7a59"/></svg>