<svg xmlns="http://www.w3.org/2000/svg" width="163.58" height="163.58"><path d="M123.64 53.86V34.38a15 15 0 008.65-13.52v-.45a15 15 0 00-15-15h-.45a15 15 0 00-15 15v.45a15 15 0 008.65 13.52v19.48a42.48 42.48 0 00-20.2 8.89L36.87 21.14a16.75 16.75 0 00.6-4.21A16.9 16.9 0 1020.55 33.8a16.72 16.72 0 008.32-2.26l52.61 40.93a42.61 42.61 0 00.65 48l-16 16a13.74 13.74 0 00-4-.65 13.88 13.88 0 1013.89 13.89 13.7 13.7 0 00-.65-4l15.83-15.83a42.68 42.68 0 1032.44-76.02m-6.56 64.06A21.9 21.9 0 11139 96.01a21.9 21.9 0 01-21.9 21.9" fill="#ff7a59"/></svg>