<svg xmlns="http://www.w3.org/2000/svg" width="49.9" height="49.9"><path d="M25.05 49.85l-.5-.2c-1-.5-4.7-2.5-8.4-5.7-4-3.4-8.7-9-8.7-16.1V4.65l.5-.3c6.5-3.4 16.1-4.3 17.1-4.3 1.8 0 10.9 1.1 16.9 4.3l.5.3v23.1c0 7.2-4.7 12.8-8.6 16.2-3.6 3.2-7.3 5.1-8.3 5.6z" fill="#fdd319"/><path d="M10.9 28.1c0 .3-.1.4-.3.5h-.4V30h4v-1.4l-.7-.1V26h2.9v2.1c0 .3-.1.4-.3.5h-.5V30h4v-1.4l-.7-.1v-6.2c0-.3.1-.4.3-.4h.4v-1.4h-3.9v1.4h.7v2.4h-3.1v-2c0-.3.1-.4.3-.4h.5v-1.4h-4v1.4l.8.1zm18.3-5.8c0-.3.1-.4.4-.4h.4v-1.4h-3.7v1.4l.7.1v5c0 1-.7 1.4-1.5 1.4-.9 0-1.7-.3-1.7-1.5v-4.6c0-.3.1-.4.3-.4h.5v-1.4h-4v1.4l.8.1v4.9c0 2.3 1.5 3.3 4 3.3 2.2 0 3.9-1.2 3.9-3.1zm7.7 1.9l1.9-2c.1-.1.3-.3.5-.3l.4-.1v-1.3h-3.6v1.4h.5l-2.8 2.9v-2.5c0-.2.1-.4.3-.4h.4v-1.4h-3.9v1.4l.8.1v6.2c0 .2-.1.4-.3.4l-.4.1v1.4h3.7v-1.4h-.5v-1.2l1.4-1.4 1.2 2.2c.1.2.1.3-.1.4l-.4.1v1.4h4.3v-1.4l-1-.1zm.4-15.8l-1.9 4.7v1.6c-.8-.3-1.8-.6-2.3-.8l-.6-2.9-7.3-1.6-1.5 3.4c-1 .1-2.7.4-2.7.4v-2.5l-.6-.5s.3-.4.4-.5c.2-.4.2-.8.2-1 0-1.5-1.8-2.2-1.8-2.2l-.2-.8v-.2c.3-.2.8-.4 1.5-.4 1.3 0 1.4.3 2.3.4 1.9.3 2.9-1.1 2.9-1.1s-1.9.6-2.9.1c-.8-.4-1.4-1-2.6-1-1.1 0-1.6.5-1.6.5v1.8l-.2.7s-1.8.7-1.8 2.2c0 .2 0 .6.2 1 .1.2.4.5.4.5l-.6.4v3.7c-.7.3-1.5.7-2.1 1v-1.2l.5-.8V11h-.8l-1.5-3.8-1.5 3.8h-.8v2.3l.5.8v5h1v-5.3l-.5-.7V12h.5l.8-2 .8 2h.5v1.1l-.5.8V17c.1-.1 2.1-1.2 4.1-1.9v-4s.4-.3.5-.4c.1-.1.1-.2.1-.4s-.1-.4-.3-.6c-.2-.3-.3-.5-.3-.9 0-.9 1.2-1.5 1.2-1.5s1.2.6 1.2 1.5c0 .3-.1.6-.3.9-.2.1-.3.3-.3.5s0 .3.1.4c.1.1.5.4.5.4v3.3s1.9-.4 4.3-.6l1.4-3.2 5.9 1.3.6 2.8c1.1.3 3.1 1 4.1 1.5v-2.8l1-2.3 1 2.3v5.8h1v-6zm-.4 22.9c-2.2 6.1-8.8 10.6-11.9 12.5-3.1-1.9-9.7-6.4-11.9-12.5h-1.3c2.3 7.8 13.1 13.9 13.2 13.9.1 0 10.9-6.1 13.2-13.9zm4.5-3.5c0 6.8-4.5 12.2-8.3 15.5-3.6 3.1-7.2 5-8.1 5.5-.9-.5-4.6-2.4-8.2-5.6-3.8-3.3-8.3-8.7-8.3-15.4V5.3C14.7 2 24 1.1 25 1.1c1.5 0 10.6 1.1 16.4 4.2.1 2.7 0 21.6 0 22.5M25 0C20.5.1 11.9 2 7.4 4.6v23.2c0 3.2.9 6.3 2.7 9.3 1.4 2.4 3.5 4.7 6 6.9 4.3 3.7 8.5 5.7 8.7 5.8l.2.1.2-.1c.2-.1 4.4-2.1 8.6-5.8 2.5-2.2 4.5-4.5 6-6.9 1.8-3 2.7-6.2 2.7-9.4V4.5C37.9 1.8 29 .1 25 0"/></svg>