<?xml version="1.0" encoding="UTF-8"?>
<svg width="193" height="193" version="1.1" viewBox="155 -65 193 193" xmlns="http://www.w3.org/2000/svg">
<path d="m241.6 33.81a25.24 25.24 0 0 0 5.4-15.4 18.38 18.38 0 0 0-5-13.08q-5-5.33-15.89-5.33a26.43 26.43 0 0 0-11.35 2.41 19.5 19.5 0 0 0-8.39 7.59q-3.23 5.16-3.49 13.16h18.5q0-4.12 0.73-5.63a2.52 2.52 0 0 1 2.45-1.53c2 0 3 1.44 3 4.3q0 5.25-6.59 11.88a170.24 170.24 0 0 1-17.85 15.14v14.37h44.48v-15.4h-19.7a51.07 51.07 0 0 0 13.7-12.48zm61.4 2.3h-6.1v-35.42h-20.26l-25.25 36v15.7h26.52v9.32h19v-9.32h6.09zm-23.56 0h-9.15l9.15-14z" fill="#f49b08"/>
<path d="m325.38 0.53h-24.29l23.09 30.32-22.22 30.86h24.44l20.43-30.86zm-124.9 61.18-23.09-30.32 22.21-30.86h-24.44l-19.01 30.795 20.04 30.385z" fill="#35444c"/>
</svg>
