<svg xmlns="http://www.w3.org/2000/svg" viewBox="0 0 190.6 61.7"><path fill="#f49b08" d="M85.4 33.8a25.2 25.2 0 0 0 5.4-15.4 18.4 18.4 0 0 0-5-13Q80.8 0 69.9 0a26.4 26.4 0 0 0-11.3 2.4 19.5 19.5 0 0 0-8.4 7.6q-3.3 5.2-3.5 13.2h18.5q0-4.2.7-5.7a2.5 2.5 0 0 1 2.5-1.5c2 0 3 1.4 3 4.3q0 5.3-6.6 11.9a170.2 170.2 0 0 1-18 15.1v14.4h44.5V46.3H71.6a51 51 0 0 0 13.7-12.5zm61.4 2.3h-6.1V.7h-20.3l-25.2 36v15.7h26.5v9.3h19v-9.3h6.1zm-23.6 0h-9.1l9.1-14z"/><path fill="#35444c" d="M169.2.5h-24.4l23 30.5-22 30.7h24.4l20.4-30.9zm-125 61.2-23-30.3L43.4.5H19L0 31.3l20 30.4z"/></svg>
