<svg xmlns="http://www.w3.org/2000/svg" width="55.321" height="55.321"><path d="M54.532 44.27c-1.58 2.892-3.627 5.565-5.895 7.525-5.126 4.432-16.499 8.072-16.82-11.237-.057-3.557.162-7.135.558-10.604h-6.847c-2.124 13.408-6.348 24.264-6.348 24.264h-8.33s12.335-43.73 4.326-43.73c-8.01 0-10.573 11.552-10.573 11.552s-3.392-.8-3.815-.902c.368-5.897 4.228-13.4 9.101-17.613 5.125-4.432 16.5-8.073 16.82 11.236a78.075 78.075 0 01-.236 7.28h7.115c2.23-11.73 5.76-20.696 5.76-20.696h8.33s-12.334 43.486-4.325 43.486c3.65 0 6.326-2.877 8.227-6.385z" fill="#b42a30" fill-rule="evenodd"/></svg>