<svg xmlns="http://www.w3.org/2000/svg" width="25" height="25"><path d="M23.216 6.737v11.526a.893.893 0 01-.418.657l-2.31 1.334V4.746l2.31 1.333a.871.871 0 01.418.657zM12.998 24.573L15.727 23v-7.485l-2.73 1.573zM16.743 10.6l-7.47 4.32V23l2.71 1.573V16.55l4.76-2.747v8.6l2.73-1.553V4.15l-2.73-1.553zM11.982.427L9.273 2v7.485l2.71-1.573zM15.727 2L12.998.427V8.45l-4.76 2.747v-8.6L5.528 4.17v16.68l2.71 1.553V14.4l7.5-4.32zM1.784 6.737v11.526a.87.87 0 00.418.657l2.31 1.334V4.746L2.202 6.08a.892.892 0 00-.418.657z" fill="#5ba63c"/></svg>