<svg xmlns="http://www.w3.org/2000/svg" viewBox="0 0 300 413"><path fill="#01C5D1" d="M214 408s-.5 0-.7-.4c-.6-3.2-.7-6-1.3-8.7-1.8-7.4-3-15.1-5.8-22a80 80 0 00-26-31.1 159.9 159.9 0 00-55.4-27.8c-5.1-1.5-10.3-2.7-16.7-4.4 24.2-11.9 43.5-27.2 53.8-52 10.2 17 24.5 29.2 34 28.8-21.7-19.5-32.4-44.2-35-74a60.8 60.8 0 00-3 33.7c.4 2 .4 4.3-.5 5.8a102.4 102.4 0 01-34.9 38.3 47 47 0 01-25.2 7.8c-1.6-11.5 2.6-20.2 10.3-28-13 6.3-25.5 13.4-42 14 1.7-5.7 2.6-10.4 4.5-14.8 3.2-7.5 10.2-11.2 16.8-15.7l5-2.7-.6-1-5.7 3.2-14.3 4.3a68.2 68.2 0 01-26.3 2.4c2.4-8.2 6.5-15 12.8-19.8 6.3-4.8 13.3-8.9 20.4-12.4 6.7-3.2 14-5.1 21-7.6-31.6 6.8-62.8 8.3-94.6-1.8 19-19.3 41-29.1 64.7-28.1-9-2.6-20.6-5.2-31.6-9.2a65 65 0 01-29.6-21c-2-2.6-4.7-4.6-7.1-6.8 0-1.4 0-2.8.4-4.6 9.1-4.2 18-6.4 27.8-6.6 14.4-.3 27.7 4 41.3 7.4l6 1.8 5.5 1c-40-11-63.4-37.4-74.2-77 12.5.3 24.7 1.4 35.6 6.5 10.7 5 20.4 12.4 30.5 18.8-1.3-3-3.2-5.4-5-7.8C53 74.4 51 50.5 60.2 25.3 63 17 67.3 9.1 71 1c.4 0 .9 0 1.7.4 0 3.4-.2 6.3-.8 9.2A51.3 51.3 0 0077 43.8c7 15 19.3 25.4 32.1 35.3 14.9 11.5 31 21.6 43 36.5 9.8 12 16 25.4 15.8 41.1-.1 9.3-1.3 18.5-2 27.2 8-13.5 8.7-29 6.7-44.6-2-15.5-8-29.8-14.5-43.9a78.9 78.9 0 0140.5 43.8c3-12 1-23-1.9-35 9 6 15.5 12.6 20.5 20.6 4.7 7.7 8.9 15.9 13.8 24.6l2.5-22.7c10.7 8.8 32.3 54.3 30.8 65.6-4.5-.3-9.2-.4-13.7-1a593.4 593.4 0 01-31-5.2l3 1.9c14.4 8.7 30.2 9.6 46.6 9-3.2 26.9.8 51.8 14 75-19.3-13.6-24.8-33.4-24.3-56-22 1-41.7-3-56.5-22-1 4.7-2 8.3-2.3 11.9-2 24 6.6 44.6 20.7 63.3 2 2.6 2.1 4.4.4 7.3a60 60 0 00-4.5 56.7c6.2 14.9 8.3 30.1 5.2 45.8-1.9 9.8-5.2 19.3-7.9 29M90.4 195H99v-.7H75v.7h15.4m-16-89.2l1-.8c-.5 0-1 0-1 .8m35 165.4l.3 1.2c.2-.4.3-.9-.3-1.2z"/><path fill="#01C5D1" d="M301 238.5c-.7 1.3-1.7 2-2 2.8l-6 23.8-1.6.1c-1.7-4-3.6-8.1-5-12.3-3.6-12-6.4-24.2-6.6-37-.3-27.8-8.1-53.7-25.5-75.6-8.9-11.1-16.9-22.7-25.3-34.5l.4 9.7c-13.5-10.1-30.4-14.2-41.8-27.3l1.5 7.2c-15-2.5-30-3.6-42.1-14.3l-.6 1.2 4 8.8c-7.1 2.8-12.1-.7-17.2-4-5.6-3.7-11.4-7.3-18.4-11.6 6.4-1.7 11.7-3.6 17.1-4.3 8.2-1.2 16.5-2.6 24.6-2 12.6 1 25.3 2.7 37.6 5.6a134.5 134.5 0 0159.9 32.5 142.7 142.7 0 0145 82.4c.2.7 1 1.3 1.7 1.6.3 15.4.3 31 .3 47.2zm-92-13.7c-.3-2.3-.8-4.2-1-6.2v-6.8c13.3 9.6 28.4 10.9 43.8 12.5-1 4-2.2 8-3.3 11.9l1 .5 4.9-4.4c4.4 4.9 3.2 7.8-4.4 10.1 0 6.5 2.4 12.4 5.8 17.6 3.4 5.3 8.3 9.5 12 14.6 1.3 1.6 2.2 4.7 1.5 6.4-2 4.2-4.2 8.5-10 9.1-2.5.3-3.1 2.1-1.4 4.3 1 1.1 2 2.2 3.2 3.2 7 6 3.8 10-3.2 13.3-1.4.7-3 1-4.8 1.5l3.2 3.4c3.1 4.1 2.2 7-2.5 8.8-5.4 1.9-8.6 9.1-7.8 17.4 1.4 12.9-1 16.7-12.8 21.6-2.5-10-4-20.2-7.6-29.8a71 71 0 01-5.6-25.6 59.4 59.4 0 0111.4-33.2c.8-1.1.9-3.8.1-4.8a99.7 99.7 0 01-22-43c0-.7-.3-1.3-.5-2.4zM45.8 309.3A124 124 0 0121 268.6c-3.6-10.3-6.1-21.1-9-31.7-.4-1.4 0-3 0-4.5l22.4 4a124.8 124.8 0 0069.5 90c12.1 5.6 24.8 9.9 38.3 10.5 15.8.7 28 8.8 39.5 18.4.5.5.8 1.2 1.8 2.6-54.7 7.2-101-7-137.8-48.6zM14 183.2c1-1 2.1-2 2.7-1.8 7.1 3.4 14.2 7 21.2 10.7l-27.2 14.1 3.3-23z"/><path fill="#01C5D0" d="M27.2 140.6c1.8-2.9 3.5-5.4 5.4-8.1l11.5 9.4-.4 1.2c-5.5-.7-11-1.4-16.5-2.5z"/></svg>
