<svg xmlns="http://www.w3.org/2000/svg" width="1280" height="1280" viewBox="0 -110.171 1280 1280"><path fill="#F0622F" d="M880.284 885.148c-321.05 225.987-711.262 220.048-828.699 53.612-137.922-195.465 9.913-543.037 333.929-764.751 283.627-194.076 685.246-245.063 828.695-53.614 172.285 229.937-12.877 538.765-333.925 764.753zm207.833-671.606c-111.82-149.239-424.89-109.493-645.984 41.793C189.556 428.164 74.316 699.102 181.83 851.472c91.544 129.74 395.722 134.373 645.983-41.79 250.268-176.163 394.606-416.901 260.304-596.14z"/><path d="M785.58 402.182c0-80.407-65.17-145.581-145.58-145.581-80.407 0-145.581 65.173-145.581 145.581 0 41.028 16.994 78.065 44.298 104.525-.011-.009-.022-.268-.031-.277l-44.267 296.398H785.58l-44.268-296.397c27.287-26.459 44.268-63.235 44.268-104.249z"/></svg>