<svg xmlns="http://www.w3.org/2000/svg" width="64" height="64"><path d="M19 4.602c-3 .796-7.602 2.5-10.2 3.699L4 10.5 7.398 16c1.801 3 3.704 5.398 4.204 5.3.5-.1 3.597-1.198 6.898-2.402C28.898 15.102 42 16 54 21.398c1.102.5 2.398-.898 4.8-5.296l3.2-5.903-6.2-2.597C52.3 6.199 47.5 4.602 45 4c-6.5-1.398-19.602-1.102-26 .602Zm0 0" style="stroke:none;fill-rule:nonzero;fill:#000;fill-opacity:1"/><path d="M16.5 21.7c-4.5 1.8-14.898 9.198-14.102 10C2.7 32 4 31.5 5.2 30.601 6.5 29.699 8.602 28.199 10 27.3c2.3-1.801 2.398-1.7 1.602.199-1.801 4.5-2 5.898-.5 5.2 7.597-3.302 14.097-5.598 17.199-6.2 4.898-.8 4.199.602-1.801 3.602-6.2 3.097-8 5.199-6.602 7.699 1 1.8 1.301 1.898 4.801.597 4.403-1.5 11.301-1.796 11.301-.5 0 .5-2.3 3-5.102 5.5L25.801 48l3.699 6 3.7 6.102 3-3.801c5.6-6.903 10.8-15.602 10.8-18C47 35.199 43.7 34 34.898 34c-9.199 0-8.796-1.7 1.301-5 8.602-2.8 9.903-3.7 7.801-5-3.5-2.3-16-.602-25.2 3.3-5 2.098-4.8.598.2-3 6.2-4.402 5-5.6-2.5-2.6Zm0 0" style="stroke:none;fill-rule:nonzero;fill:#000;fill-opacity:1"/></svg>