<?xml version="1.0" standalone="no"?>
<!DOCTYPE svg PUBLIC "-//W3C//DTD SVG 20010904//EN"
 "http://www.w3.org/TR/2001/REC-SVG-20010904/DTD/svg10.dtd">
<svg version="1.0" xmlns="http://www.w3.org/2000/svg"
 width="64.000000pt" height="64.000000pt" viewBox="0 0 64.000000 64.000000"
 preserveAspectRatio="xMidYMid meet">

<g transform="translate(0.000000,64.000000) scale(0.100000,-0.100000)"
fill="#000000" stroke="none">
<path d="M190 594 c-30 -8 -76 -25 -102 -37 l-48 -22 34 -55 c18 -30 37 -54
42 -53 5 1 36 12 69 24 104 38 235 29 355 -25 11 -5 24 9 48 53 l32 59 -62 26
c-35 14 -83 30 -108 36 -65 14 -196 11 -260 -6z"/>
<path d="M165 423 c-45 -18 -149 -92 -141 -100 3 -3 16 2 28 11 13 9 34 24 48
33 23 18 24 17 16 -2 -18 -45 -20 -59 -5 -52 76 33 141 56 172 62 49 8 42 -6
-18 -36 -62 -31 -80 -52 -66 -77 10 -18 13 -19 48 -6 44 15 113 18 113 5 0 -5
-23 -30 -51 -55 l-51 -46 37 -60 37 -61 30 38 c56 69 108 156 108 180 0 31
-33 43 -121 43 -92 0 -88 17 13 50 86 28 99 37 78 50 -35 23 -160 6 -252 -33
-50 -21 -48 -6 2 30 62 44 50 56 -25 26z"/>
</g>
</svg>
