<svg xmlns="http://www.w3.org/2000/svg" width="144.872" height="144.872"><g fill="none" fill-rule="evenodd"><path fill="#0054a5" d="M141.215 61.493l3.657-5.512H65.583l-15.87 24.29H2.63L.938 85.783h51.754l15.78-24.29z"/><path fill="#da2027" d="M123.123 88.89l1.047-1.544H.495L0 88.89zM84.522 85.389h-7.557l2.359-7.68H74.3l-2.665 7.784H64.08l6.873-21.294h7.587l-2.258 7.097h4.992l2.36-7.097h7.759zM115.69 85.493l.103-21.294h7.658v12.034l7.655-12.137h7.863l-14.356 21.397zM91.904 85.493l.1-21.294h7.658v12.034l7.657-12.137h7.864l-14.356 21.397z"/></g></svg>