<svg xmlns="http://www.w3.org/2000/svg" width="226.2" height="226.2"><path d="M200.4 68.3h-12.6L163.2 19H178l16.4 34.5L211.3 19h14.9zm-65.3 0h-12.6L97.9 19h14.8l16.4 34.5L146 19h14.9zm-79.8-22v22H42.4V3.1h12.9v26a20.68 20.68 0 0 1 7.4-8.6 22.02 22.02 0 0 1 12.1-3.2 27.84 27.84 0 0 1 6.6.7 17.82 17.82 0 0 1 5.5 2.3 18.36 18.36 0 0 1 7.5 8.3A29.82 29.82 0 0 1 97 41.4v26.9H83.6V45.6a34.83 34.83 0 0 0-.3-4.7 24.68 24.68 0 0 0-.9-4.1 11.52 11.52 0 0 0-4.1-5.9 12.9 12.9 0 0 0-7.8-2.1c-5.2 0-9 1.5-11.5 4.4-2.5 2.9-3.7 7.3-3.7 13.1" style="fill:#fa1e41" transform="translate(0 78.95)"/><path d="M0 0v11.7l16.4 7.4-16.4 7v11.7l29.5-14.7v-7.6z" style="fill:#0f0" transform="translate(0 78.95)"/></svg>