<svg xmlns="http://www.w3.org/2000/svg" version="1.1" id="Livello_1" x="0" y="0" xml:space="preserve" width="1496.413" height="1496.413"><style type="text/css" id="style3068">.st0{fill:#fff}.st1{fill:#00a5ff}</style><g id="g3082" transform="translate(-276.787 -281.148)"><path class="st0" id="polygon3070" d="M1717.3 1004.2h-167.2v-85.7h188.6v-51.7h-247.1v329.5h155l44.6-51.8h-141.1V1056h167.2z"/><path class="st0" id="polygon3072" d="M703.3 866.7l132.4 199.6v130h59v-131.4l132.4-198.2h-67.2l-94.3 145.5-92.8-145.5z"/><path class="st0" id="polygon3074" d="M545.8 1057.4v138.9h58.6V866.8h-58.6v137h-159v-137h-33.6l-24.9 57.5v272h58.5v-138.9z"/><path class="st0" d="M1257.4 866.7H1126v329.5h58.6v-105.9h66.2c73.3 0 133.3-38.6 133.3-112.5v-1c-.1-66.3-48.6-110.1-126.7-110.1zm67.2 112.5c0 34.4-27.6 58.9-71.9 58.9h-68.1V919.5h68.1c43.8 0 71.9 20.2 71.9 58.8z" id="path3076"/><path class="st1" d="M763.5 486.3C576 560.9 434.1 699.7 353.2 866.8h33.6v137h159v-137h58.6v329.5h-58.6v-138.9h-159v138.9h-58.5v-272c-67.5 174.4-71.4 373.5 4.6 560.5 129 317.2 986.4 56.5 1313.7-288.5h-155V866.8h247v51.8h-188.5v85.7h167.1v51.8h-167.1v88.5h141c51.8-67.1 82.1-136.4 82.1-204.4 0-424-612-612-1009.7-453.9zm131.2 578.6v131.4h-59.1v-129.9L703.3 866.7h69.5l92.8 145.5 94.3-145.5h67.2zm489.3-87.1c0 73.9-60 112.5-133.3 112.5h-66.2v105.9H1126V866.7h131.4c78.1 0 126.6 43.8 126.6 110.2z" id="path3078"/><path class="st1" d="M1252.7 919.5h-68.1v118.6h68.1c44.3 0 71.9-24.5 71.9-58.9v-.9c0-38.6-28.1-58.8-71.9-58.8z" id="path3080"/></g></svg>