<?xml version="1.0" encoding="UTF-8" standalone="no"?>
<svg
   xmlns:dc="http://purl.org/dc/elements/1.1/"
   xmlns:cc="http://creativecommons.org/ns#"
   xmlns:rdf="http://www.w3.org/1999/02/22-rdf-syntax-ns#"
   xmlns:svg="http://www.w3.org/2000/svg"
   xmlns="http://www.w3.org/2000/svg"
   xmlns:sodipodi="http://sodipodi.sourceforge.net/DTD/sodipodi-0.dtd"
   xmlns:inkscape="http://www.inkscape.org/namespaces/inkscape"
   height="50"
   width="50"
   viewBox="149.6 411.5 83.1 76"
   version="1.1"
   id="svg3749"
   sodipodi:docname="wwe_logo.svg"
   inkscape:version="1.0.2 (1.0.2+r75+1)">
  <metadata
     id="metadata3755">
    <rdf:RDF>
      <cc:Work
         rdf:about="">
        <dc:format>image/svg+xml</dc:format>
        <dc:type
           rdf:resource="http://purl.org/dc/dcmitype/StillImage" />
        <dc:title></dc:title>
      </cc:Work>
    </rdf:RDF>
  </metadata>
  <defs
     id="defs3753" />
  <sodipodi:namedview
     pagecolor="#ffffff"
     bordercolor="#666666"
     borderopacity="1"
     objecttolerance="10"
     gridtolerance="10"
     guidetolerance="10"
     inkscape:pageopacity="0"
     inkscape:pageshadow="2"
     inkscape:window-width="640"
     inkscape:window-height="480"
     id="namedview3751"
     showgrid="false"
     inkscape:zoom="14.92"
     inkscape:cx="25"
     inkscape:cy="25"
     inkscape:current-layer="svg3749" />
  <path
     d="M187.4 469.2l-2.6 6c4.9-.5 9.5-.8 13.6-.8l-2.8-6.3c-2.7.4-5.5.8-8.2 1.1zm24.7-2.1c-1 2.6-2.1 5.2-3 7.6 10.1.8 16.1 2.4 16.1 2.4l4.7-9.9c-6.4-.2-12.3-.2-17.8-.1zM152.4 481c-2.1 1.5-2.7 2.2-2.8 2.2-.1.1 4.6-1.7 11.8-3.6 6.8-1.8 10.2-2.4 13.9-3-.6-1.4-1.1-2.9-1.8-4.5-11.6 3.1-18 6.7-21.1 8.9z"
     fill="#D7182A"
     id="path3739" />
  <g
     fill="#ffffff"
     id="g3745"
     style="fill:#000000">
    <path
       d="M 191.9,424.3 204.1,456 226.8,411.5 204.3,441 191.9,412.7 179.4,441 156.9,411.5 179.5,456"
       id="path3741"
       style="fill:#000000" />
    <path
       d="m 212.1,467.1 c 2.4,-6.1 4.7,-12.1 5.9,-15.2 4.2,-10.9 14.8,-40.4 14.8,-40.4 l -28.9,59.1 C 200.7,462.5 192,441 192,441 c -0.6,1.5 -8.7,21.5 -11.9,29.6 l -29,-59.1 c 0,0 10.5,29.5 14.8,40.4 1.6,4 4.9,12.5 7.9,20.2 l 1.8,4.5 c 2.4,6.1 4.2,10.9 4.2,10.9 l 5.4,-12.1 2.6,-6 4.4,-10 3.9,8.9 2.8,6.2 5.6,13 c 0,0 2.2,-5.7 4.9,-12.6 0.6,-2.5 1.7,-5.1 2.7,-7.8 z"
       id="path3743"
       style="fill:#000000" />
  </g>
  <path
     fill="#FFF"
     d="M211 478.9c-.6 0-1.1-.5-1.1-1.1 0-.6.5-1.1 1.1-1.1s1.1.5 1.1 1.1-.5 1.1-1.1 1.1zm0-2.1c-.5 0-.9.4-.9 1 0 .5.4 1 .9 1s.9-.4.9-1-.5-1-.9-1zm-.2 1.6h-.2v-1.2h.4c.3 0 .4.1.4.4s-.1.3-.3.4l.4.5h-.2l-.3-.5h-.2v.4zm.2-.8c.1 0 .3 0 .3-.2 0-.1-.1-.1-.2-.1h-.2v.4h.1z"
     id="path3747" />
</svg>
