<svg xmlns="http://www.w3.org/2000/svg" viewBox="0 0 50 50"><path fill="#FF5C62" d="M18.6 20C16.1 43 37.1 46.5 43 39.9 32.5 65.4 8 36.5 18.6 20zM15 16C6 17.3-7.6 46 8.4 42.7-1.4 39.2 8.4 19 15 16zm0-3.7C12 10.8.8 15.2 0 24c2-4.7 7.5-11 15-11.7zm4-2.8C14.3 5.8 8.7 10 7 11c4.7-5.5 11.7-4.6 12-1.5zM23.9 7C27.4 4.4 22-.5 17 3.5c1.8-.7 8-1.5 6.9 3.5zm4.7 2c6-6.1 1-8.5-.6-8.6 8.3-2.4 4.6 7.5.6 8.6zm1.4 3.6C36.4 15.2 55.4 4.2 40.3 2c3.4.9 4.2 8.1-10.3 10.6zm-4 6C30.3 31 68.3 30 52 13c3.5 5.8-5.4 16.2-26 5.6z"/></svg>
