<svg xmlns="http://www.w3.org/2000/svg" height="50" width="50" viewBox="0 0 50 50">
    <g fill="none" fill-rule="nonzero">
        <path fill="#FF5C62" d="M18.648 20C16.108 42.926 37.052 46.463 43 39.877 32.528 65.425 7.929 36.524 18.648 20zM15 16C5.923 17.297-7.568 46.013 8.41 42.74-1.413 39.22 8.472 18.903 15 16zm0-3.717C11.952 10.803.837 15.182 0 24c2.092-4.687 7.53-11.038 15-11.717zm4-2.803C14.32 5.773 8.74 10.028 7 11c4.68-5.53 11.7-4.619 12-1.52zM23.856 7C27.382 4.426 22.093-.46 17 3.48c1.829-.63 7.966-1.47 6.856 3.52zm4.722 2C34.533 2.86 29.56.478 28 .352c8.326-2.318 4.625 7.52.578 8.648zM30 12.62C36.392 15.166 55.443 4.174 40.274 2c3.463.87 4.24 8.136-10.273 10.62H30zm-4 5.953C30.261 31.127 68.31 29.963 51.927 13c3.54 5.818-5.281 16.168-25.926 5.573H26z"/>
    </g>
</svg>