<svg xmlns="http://www.w3.org/2000/svg" viewBox="0 0 1024 1024"><path d="M481.331 542.021l-32.694-24.504 3.574 40.913c-89.177 40.927-195.009 11.554-250.791-69.206l25.804-34.949-43.445 3.832c-41.715-90.527-12.209-198.412 69.177-254.682l36.998 27.731-4.017-46.286c90.264-40.293 196.882-9.047 251.492 74.205l-26.018 35.294 43.016-3.789c39.013 90.253 8.32 196.439-73.094 251.44zM567.992 169.557c-87.247-91.737-223.443-114.656-333.006-56.471-114.652 60.951-173.737 184.266-147.79 310.504 4.074 19.808 23.845 67.103 29.178 77.691 22.444 44.312 55.396 79.823 97.726 106.070 129.048 80.025 257.996 160.064 387.016 240.117 13.938 8.672 28.034 17.028 44.388 26.982 0.2-4.408 0.343-6.166 0.4-7.909-0.029-171.171 1.115-342.269-0.615-513.426-0.643-70.704-28.649-132.289-77.297-183.56z" fill="#000"/><path d="M210.047 82.455c-126.675 71.223-189.805 208.295-160.856 349.069 4.246 20.788 27.191 76.25 33.509 88.812 25.132 49.715 62.373 90.051 110.65 120.030 90.664 56.212 181.242 112.452 271.906 168.678l196.953 122.219c7.291 4.523 14.567 8.975 22.116 13.527 0.029-51.227 0.143-102.858 0.214-154.517 0.257-144.088 0.515-293.145-0.944-439.595-0.729-77.374-30.264-147.3-87.791-207.906-98.698-103.751-254.337-130.229-378.381-64.365-2.487 1.311-4.918 2.651-7.377 4.048zM724.61 1018.823l-49.892-30.252c-12.123-7.304-23.402-14.118-34.653-21.090l-196.953-122.234c-90.607-56.212-181.242-112.423-271.878-168.65-54.996-34.099-97.412-80.183-126.118-137-6.119-12.043-31.579-71.929-37.255-99.458-33.395-162.369 41.329-320.315 189.877-399.317 140.642-74.68 316.852-44.831 428.531 72.548 65.203 68.687 98.684 148.381 99.513 236.861 1.487 146.709 1.201 295.897 0.958 440.128-0.114 60.706-0.229 121.398-0.229 182.119-0.029 1.772-0.086 2.896-0.172 4.365-0.086 1.441-0.186 3.285-0.3 6.079l-1.43 35.899z" fill="#000"/><path d="M297.566 429.068l175.753-19.448c2.859-0.274 5.275-2.262 6.004-5.085 0.715-2.78-0.357-5.734-2.73-7.361l-146.746-99.069c-2.445-1.729-5.647-1.657-8.006 0.13l-1.458 1.556c-1.215 1.758-1.587 4.062-0.915 6.151l15.883 46.992-62.13-15.486c-7.62-1.902-15.339 2.766-17.241 10.473l-0.558 2.305c-1.901 7.722 2.759 15.501 10.393 17.388l61.143 15.27-0.086 0.303-34.696 34.156c-2.087 2.132-2.573 5.201-1.387 7.822 1.172 2.636 3.903 4.207 6.776 3.904z" fill="#FF9600"/></svg>