<svg xmlns="http://www.w3.org/2000/svg" viewBox="0 0 726.94 1018.8"><g transform="translate(.0063055 .0046949)"><path d="m481.33 542.02-32.694-24.504 3.574 40.913c-89.177 40.927-195.01 11.554-250.79-69.206l25.804-34.949-43.445 3.832c-41.715-90.527-12.209-198.41 69.177-254.68l36.998 27.731-4.017-46.286c90.264-40.293 196.88-9.047 251.49 74.205l-26.018 35.294 43.016-3.789c39.013 90.253 8.32 196.44-73.094 251.44zm86.661-372.46c-87.247-91.737-223.44-114.66-333.01-56.471-114.65 60.951-173.74 184.27-147.79 310.5 4.074 19.808 23.845 67.103 29.178 77.691 22.444 44.312 55.396 79.823 97.726 106.07 129.05 80.025 258 160.06 387.02 240.12 13.938 8.672 28.034 17.028 44.388 26.982 0.2-4.408 0.343-6.166 0.4-7.909-0.029-171.17 1.115-342.27-0.615-513.43-0.643-70.704-28.649-132.29-77.297-183.56z"/><path d="m210.05 82.455c-126.68 71.223-189.8 208.3-160.86 349.07 4.246 20.788 27.191 76.25 33.509 88.812 25.132 49.715 62.373 90.051 110.65 120.03 90.664 56.212 181.24 112.45 271.91 168.68l196.95 122.22c7.291 4.523 14.567 8.975 22.116 13.527 0.029-51.227 0.143-102.86 0.214-154.52 0.257-144.09 0.515-293.14-0.944-439.6-0.729-77.374-30.264-147.3-87.791-207.91-98.698-103.75-254.34-130.23-378.38-64.365-2.487 1.311-4.918 2.651-7.377 4.048zm514.56 936.37-49.892-30.252c-12.123-7.304-23.402-14.118-34.653-21.09l-196.95-122.23c-90.607-56.212-181.24-112.42-271.88-168.65-54.996-34.099-97.412-80.183-126.12-137-6.119-12.043-31.579-71.929-37.255-99.458-33.395-162.37 41.329-320.32 189.88-399.32 140.64-74.68 316.85-44.831 428.53 72.548 65.203 68.687 98.684 148.38 99.513 236.86 1.487 146.71 1.201 295.9 0.958 440.13-0.114 60.706-0.229 121.4-0.229 182.12-0.029 1.772-0.086 2.896-0.172 4.365-0.086 1.441-0.186 3.285-0.3 6.079l-1.43 35.899z"/><path d="m297.57 429.07 175.75-19.448c2.859-0.274 5.275-2.262 6.004-5.085 0.715-2.78-0.357-5.734-2.73-7.361l-146.75-99.069c-2.445-1.729-5.647-1.657-8.006 0.13l-1.458 1.556c-1.215 1.758-1.587 4.062-0.915 6.151l15.883 46.992-62.13-15.486c-7.62-1.902-15.339 2.766-17.241 10.473l-0.558 2.305c-1.901 7.722 2.759 15.501 10.393 17.388l61.143 15.27-0.086 0.303-34.696 34.156c-2.087 2.132-2.573 5.201-1.387 7.822 1.172 2.636 3.903 4.207 6.776 3.904z" fill="#ff9600"/></g></svg>