<svg xmlns="http://www.w3.org/2000/svg" viewBox="0 0 726.94 1018.8"><path d="m481.336 542.025-32.694-24.504 3.574 40.913c-89.177 40.927-195.01 11.554-250.79-69.206l25.804-34.95-43.445 3.833c-41.715-90.527-12.209-198.41 69.177-254.68l36.998 27.73-4.017-46.285c90.264-40.293 196.88-9.047 251.49 74.205l-26.018 35.294 43.016-3.79c39.013 90.254 8.32 196.44-73.094 251.44zm86.661-372.46c-87.247-91.737-223.44-114.66-333.01-56.471-114.65 60.95-173.74 184.27-147.79 310.5 4.074 19.808 23.845 67.103 29.178 77.69 22.444 44.313 55.396 79.824 97.726 106.07 129.05 80.026 258 160.06 387.02 240.12 13.938 8.673 28.034 17.029 44.388 26.983.2-4.408.343-6.166.4-7.91-.029-171.17 1.115-342.27-.615-513.43-.643-70.703-28.649-132.29-77.297-183.56z"/><path d="M210.056 82.46c-126.68 71.223-189.8 208.3-160.86 349.07 4.246 20.788 27.191 76.25 33.51 88.812 25.131 49.715 62.372 90.05 110.65 120.03 90.663 56.212 181.24 112.45 271.91 168.68l196.95 122.22a2038.822 2038.822 0 0 0 22.115 13.527c.03-51.227.143-102.86.214-154.52.257-144.09.515-293.14-.944-439.6-.729-77.374-30.264-147.3-87.79-207.91-98.699-103.75-254.34-130.23-378.38-64.365a265.612 265.612 0 0 0-7.378 4.048zm514.56 936.37-49.892-30.252c-12.123-7.304-23.402-14.118-34.653-21.09l-196.95-122.23c-90.607-56.212-181.24-112.42-271.88-168.65-54.996-34.1-97.412-80.183-126.12-137-6.119-12.043-31.579-71.93-37.255-99.458-33.395-162.37 41.33-320.32 189.88-399.32 140.64-74.68 316.85-44.831 428.53 72.548 65.203 68.687 98.684 148.38 99.513 236.86 1.487 146.71 1.201 295.9.958 440.13-.114 60.706-.229 121.4-.229 182.12a92.107 92.107 0 0 1-.172 4.365 310.024 310.024 0 0 0-.3 6.079l-1.43 35.899z"/><path d="m297.576 429.075 175.75-19.448c2.86-.274 5.275-2.262 6.004-5.085.715-2.78-.357-5.734-2.73-7.361l-146.75-99.07a6.736 6.736 0 0 0-8.006.13l-1.458 1.557a7.09 7.09 0 0 0-.915 6.15l15.883 46.993-62.13-15.486c-7.62-1.902-15.339 2.766-17.24 10.473l-.559 2.305c-1.9 7.722 2.76 15.5 10.393 17.388l61.143 15.27-.086.303-34.696 34.156a6.979 6.979 0 0 0-1.387 7.822 6.64 6.64 0 0 0 6.776 3.904z" fill="#ff9600"/></svg>