<svg xmlns="http://www.w3.org/2000/svg" viewBox="0 0 224 100"><path fill="#7AB800" d="M7.2,36.4 L-0,47 L6.7,67.4 L33,67.4 L66.2,14 L17.4,48.6 z"/><path fill="#69A618" d="M33,67.4 L6.7,67.4 L0,47 z"/><path fill="#7AB800" d="M66.2,14 L17.4,48.6 L33,67.4 L63.4,67.4 L86.4,33.5 z"/><path fill="#69A618" d="M33,67.4 L17.4,48.6 L66.2,14 z"/><path fill="#5B8F22" d="M86.4,33.5 L33,67.4 L63.4,67.4 z"/><path fill="#FFF" d="M74.6,27.8 C74.6,30.9 72,33.5 68.8,33.5 C65.7,33.5 63.1,30.9 63.1,27.8 C63.1,24.6 65.7,22 68.8,22 C72,22 74.6,24.6 74.6,27.8 z"/><path fill="#000" d="M68.8,24.9 C70.4,24.9 71.7,26.2 71.7,27.8 C71.7,29.3 70.4,30.6 68.8,30.6 C67.3,30.6 66,29.3 66,27.8 C66,26.2 67.3,24.9 68.8,24.9 z"/></svg>