<svg viewBox="-43.07 1.46 40 100" width="40" height="100" xmlns:xlink="http://www.w3.org/1999/xlink" xmlns="http://www.w3.org/2000/svg"><path fill="#2c662d" d="M-39.07 1.46a4 4 0 0 0-4 4.04v65.66a4.01 4.01 0 0 0 4 4.04h3v24.24a2 2 0 0 0 2 2.02h23a2 2 0 0 0 2-2.02V75.2h2a4 4 0 0 0 4-4.04V5.5a4.01 4.01 0 0 0-4-4.04zm16 28.79a11 11.62 0 0 1 11 11.61 11 11.62 0 0 1-11 11.62 11 11.62 0 0 1-11-11.62 11 11.62 0 0 1 11-11.6z"/><rect id="a" width="4" height="20.2" x="-32.07" y="78.73" fill="gold" fill-opacity=".45" rx=".8"/><use xlink:href="#a" transform="translate(5)"/><use xlink:href="#a" transform="translate(10)"/><use xlink:href="#a" transform="translate(15)"/></svg>
