<svg xmlns="http://www.w3.org/2000/svg" viewBox="0 0 27.1 35"><g paint-order="fill markers stroke" transform="translate(16.4 1.6)"><path fill="#2c662d" d="M.5-1.4C0-1.8-1-1.6-1.4-.9l-11.9 19.4c-.4.7-.2 1.6.5 2l.9.5-4.4 7.2c-.2.3-.1.7.2 1l6.8 4.1c.3.2.8.1 1-.2l4.4-7.2.6.4c.6.4 1.5.1 1.9-.5L10.5 6.3c.4-.6.2-1.5-.5-1.9ZM.1 10a3.8 4 31.5 0 1 1.1 5.5A3.8 4 31.5 0 1-4 16.9a3.8 4 31.5 0 1-1.2-5.4A3.8 4 31.5 0 1 .1 10z"/><rect width="1.4" height="7" x="5.6" y="25.4" fill="#696969" fill-opacity=".5" rx=".3" transform="rotate(31.5)"/><rect width="1.4" height="7" x="7.4" y="25.4" fill="#696969" fill-opacity=".5" rx=".3" transform="rotate(31.5)"/><rect width="1.4" height="7" x="2.2" y="25.4" fill="#696969" fill-opacity=".5" rx=".3" transform="rotate(31.5)"/><rect width="1.4" height="7" x="3.9" y="25.4" fill="#696969" fill-opacity=".5" rx=".3" transform="rotate(31.5)"/></g></svg>
