<svg xmlns="http://www.w3.org/2000/svg" width="390" height="390"><g fill="#e81700" fill-rule="evenodd"><path d="M0 99.597h49.274V292.5H0zM209.789 219.62c-8.582 17.128-23.6 25.692-42.908 25.692-27.89 0-49.344-21.41-49.344-49.242 0-27.831 21.454-49.24 49.344-49.24 8.582 0 19.308 2.14 25.745 6.422l25.744-42.818c-15.018-8.564-32.18-14.987-51.489-14.987-55.78 0-100.833 44.96-100.833 100.623 0 55.664 45.053 100.624 100.833 100.624 36.471 0 70.797-21.41 87.96-51.382l25.745-49.242 21.454 38.537h-15.018l-19.308 36.396h53.634l12.872 21.409H390L280.586 93.306z"/></g></svg>