<svg xmlns="http://www.w3.org/2000/svg" version="1.1" id="Layer_1" x="0" y="0" xml:space="preserve" width="35.5" height="35.5"><style type="text/css" id="style4238">.st0{fill-rule:evenodd;clip-rule:evenodd;fill:#c4161c}</style><g id="g4273" transform="translate(-66.35 -1.4)"><path class="st0" d="M66.7 19.1c0 9.8 7.8 17.8 17.4 17.8 9.6 0 17.4-8 17.4-17.8S93.8 1.4 84.2 1.4c-9.6 0-17.5 7.9-17.5 17.7zm2.5 0c0-8.1 7-15.3 15-15.3s15 7.2 15 15.3c0 8.1-7 15.3-15 15.3s-15-7.1-15-15.3z" id="path4240" clip-rule="evenodd" fill="#c4161c" fill-rule="evenodd"/><path class="st0" id="polygon4242" clip-rule="evenodd" fill="#c4161c" fill-rule="evenodd" d="M91.2 22.6h-5.7v-7.4h5.7v-2.9h-5.7V10h8v7.5h-5.7v2.8h5.7v8h-8V26h5.7z"/><path class="st0" id="polygon4244" clip-rule="evenodd" fill="#c4161c" fill-rule="evenodd" d="M77.5 22.6h5.7v-7.4h-5.7v-2.9h5.7V10h-8v7.5H81v2.8h-5.8v8h8V26h-5.7z"/></g></svg>