<svg xmlns="http://www.w3.org/2000/svg" xml:space="preserve" version="1.1" y="0" x="0" id="svg8047" width="113.613" height="113.613"><style type="text/css" id="style8019">.st0{fill:#fff}.st1{fill:#1273d1}</style><g id="g8632" transform="translate(16.206 -.887)"><g id="Layer_2"><path class="st0" id="rect8021" d="M11 51.2h58v17.7H11z"/><path class="st0" id="rect8023" d="M10.7 90.3h61v16.5h-61z"/></g><path class="st1" d="M68.6 43.2H12.8c-4.6 0-8.4 3.8-8.4 8.4v16.7c0 4.6 3.8 8.4 8.4 8.4h55.8c4.6 0 8.4-3.8 8.4-8.4V51.5c0-4.6-3.8-8.3-8.4-8.3zM47 59.8c0 1.3-1.1 2.4-2.4 2.4H16.4c-1.3 0-2.4-1.1-2.4-2.4V59c0-1.3 1.1-2.4 2.4-2.4h28.1c1.3 0 2.4 1.1 2.4 2.4v.8zm15.3 4.7c-2.8 0-5-2.3-5-5 0-2.8 2.3-5 5-5 2.8 0 5 2.3 5 5s-2.2 5-5 5z" id="path8040"/><path class="st1" d="M68.4 81H12.6c-4.6 0-8.4 3.8-8.4 8.4v16.7c0 4.6 3.8 8.4 8.4 8.4h55.8c4.6 0 8.4-3.8 8.4-8.4V89.3c.1-4.6-3.7-8.3-8.4-8.3zM46.9 98.1c0 1.3-1.1 2.4-2.4 2.4H16.3c-1.3 0-2.4-1.1-2.4-2.4v-.8c0-1.3 1.1-2.4 2.4-2.4h28.2c1.3 0 2.4 1.1 2.4 2.4zm15.2 4.6c-2.8 0-5.1-2.3-5.1-5 0-2.8 2.3-5 5.1-5s5.1 2.3 5.1 5c0 2.8-2.3 5-5.1 5z" id="path8042"/><path class="st1" d="M37.1 2.4C33.7 5.6 9.9 28.6 5.6 32.7c-1.9 1.8-1.4 6.1 1.9 6.1 3 0 47.3-.2 66.2 0 3.8 0 3.9-4.3 2.1-6.1-4.3-4-30.2-29.1-31.5-30.4-2-1.9-5.1-1.9-7.2.1z" id="path8044"/></g></svg>