<svg xmlns="http://www.w3.org/2000/svg" viewBox="0 0 84.7 84.7"><defs><linearGradient id="a" x1="87.7" x2="107.3" y1="224.3" y2="204.7" gradientUnits="userSpaceOnUse"><stop offset="0" stop-color="#1255ba"/><stop offset="1" stop-color="#06d2d1"/></linearGradient><linearGradient id="b" x1="87.4" x2="101.9" y1="226.4" y2="226.4" gradientUnits="userSpaceOnUse"><stop offset="0" stop-color="#fff"/><stop offset="1" stop-color="#9dd8f2"/></linearGradient><linearGradient id="c" x1="83" x2="90.5" y1="211.9" y2="211.9" gradientUnits="userSpaceOnUse"><stop offset="0" stop-color="#fff"/><stop offset="1" stop-color="#9dd8f2"/></linearGradient></defs><g transform="matrix(2.65 0 0 2.65 -211.7 -529.2)"><circle cx="96" cy="216" r="16" fill="#fff"/><path fill="url(#a)" d="M89 208.7c-.4 0-3.1 1.4-3.3 1.5l-1.3.9c-.7.5-2 1.8-2.6 2.6a16.6 16.6 0 00-1.5 2.4l-.2.5v-.6a16 16 0 014.7-11.4 16 16 0 0127.1 12.8 16 16 0 01-6 11 16.3 16.3 0 01-10.7 3.5s.8-11 4.6-11c4.6-.1 4.5-.1 5.5-.5s2.2-1.4 3-2.4c.3-.5.3-.8.1-1.3-.3-.7-1.8-1.8-3.9-2.8l-1.3-.6c-.4-.2-.3 0-1-1.7-.5-.9-.7-1.2-1.4-1.6a14.6 14.6 0 00-11.3-1.5z"/><path fill="url(#b)" d="M97.9 226a5.4 5.4 0 014-5.2h-2l-5 .2a9.6 9.6 0 00-3.7 1.4c-.8.6-2 1.8-2.6 2.6a11 11 0 00-.8 1.4c-2.5 7.1 7.3 5.4 7.4 5.5H98a15.5 15.5 0 003.4-.9 5.4 5.4 0 01-3.5-5z"/><path fill="url(#c)" d="M85.5 210.7v-.4l-1 .8a10.2 10.2 0 00-.9.7 3.7 3.7 0 005.6.9 2.4 2.4 0 01-3.7-2z"/><path fill="#2296e2" d="M97.2 212.2c-.6.3-1 .8-.7 1l1.3.2 1.4-.1c.4-.2.6-.4.5-.6 0-.2-.1-.2-.8-.4-.8-.2-1.4-.3-1.7-.1z"/><circle cx="87.9" cy="210.7" r="2.4" fill="#fff"/></g></svg>