<svg xmlns="http://www.w3.org/2000/svg" width="121" height="121"><path d="M-19.35-12.5h150v150h-150z" fill="none"/><path d="M110.9 10.657c-13.4-18.8-47-11.7-74.7 15.8-27.8 27.5-39.5 65.3-26.1 84.1 4.4 6.2 11.1 9.6 19 10.3 5.3 0 9.7-6 13.2-14 .7-1.6 1.3-3.1 1.9-4.6-8.9.2-16.5-2.7-21.3-9.2-12-16.5-1.9-49.4 22.5-73.4 3-3 6.2-5.6 9.2-7.9 22.8-14.5 45.6-15.7 56.3-1.1 4.7 7 6.2 16.1 5 26.4-3.7 14.1-12.7 29.2-26 42.1-9 8.9-18.7 15.3-28 19.1-.6 7.5.9 12 6.4 10.1 5.6-3.7 11.2-8.3 16.5-13.6 27.8-27.5 39.5-65.3 26.1-84.1z" fill="#f79119"/><path d="M51.5 61.857c-2.2-2.9-7.3-2.2-13 1.1-2.7 1.5-6.4.5-2.1-4.7 4.3-5.3 21.6-17.9 27.9-19.9 6.8-2 14.6.7 12 8.2-1.3 3.8-13.1 34.9-14.4 51.7 9.3-3.8 19-10.2 28-19.1 13.3-12.9 22.3-28 26-42.1 1.1-10.3-.4-19.5-5.1-26.4-10.6-14.6-33.4-13.4-56.3 1.2-3 2.2-6.2 4.9-9.2 7.9-24.3 24-34.4 56.9-22.5 73.4 4.9 6.5 12.4 9.4 21.3 9.2 2.6-6.6 4.4-12.9 5.8-18.8 2.7-11.6 2.9-19.9 1.6-21.7zm20.4-46.7c5.6-5.6 12.8-7.3 16-4.2 3.2 3.2 1.3 10.3-4.2 15.9-5.6 5.5-12.8 7.5-15.9 4.3-3.4-3.2-1.5-10.4 4.1-16z" fill="#af212e"/></svg>