<svg xmlns="http://www.w3.org/2000/svg" xmlns:xlink="http://www.w3.org/1999/xlink" width="99.157" height="99.157" viewBox="0 0 79.325 79.325"><defs><linearGradient xlink:href="#a" id="b" x1="-108.903" y1="2124.834" x2="-1137.198" y2="2110.651" gradientUnits="userSpaceOnUse" gradientTransform="matrix(.0774 0 0 .0774 87.996 -114.6)"/><linearGradient id="a"><stop offset="0" stop-color="#3e82f4"/><stop offset="1" stop-color="#93dcf7"/></linearGradient></defs><path d="M45.486 14.178A21.519 21.519 0 0026.75 25.19 11.804 11.804 0 0021.598 24a11.804 11.804 0 00-11.621 9.915A16.255 16.255 0 000 48.908a16.255 16.255 0 0016.263 16.24A16.255 16.255 0 0018.302 65H63.49a15.13 15.202 0 00.713.034 15.13 15.202 0 00.679-.034h1.082v-.08a15.13 15.202 0 0013.361-15.088v-.03a15.13 15.202 0 00-12.317-14.9 21.519 21.519 0 00-21.522-20.725z" fill="url(#b)"/></svg>