<svg xmlns="http://www.w3.org/2000/svg" xmlns:xlink="http://www.w3.org/1999/xlink" width="99.157" height="99.157" viewBox="0 0 79.325 79.325"><defs><linearGradient xlink:href="#a" id="b" x1="-108.903" y1="2124.834" x2="-1137.198" y2="2110.651" gradientUnits="userSpaceOnUse" gradientTransform="translate(87.996 -114.6) scale(.0774)"/><linearGradient id="a"><stop offset="0" stop-color="#3e82f4"/><stop offset="1" stop-color="#93dcf7"/></linearGradient></defs><path d="M45.486 14.178A21.519 21.519 0 0 0 26.75 25.19 11.804 11.804 0 0 0 21.598 24a11.804 11.804 0 0 0-11.621 9.915A16.255 16.255 0 0 0 0 48.908a16.255 16.255 0 0 0 16.263 16.24A16.255 16.255 0 0 0 18.302 65H63.49a15.13 15.202 0 0 0 .713.034 15.13 15.202 0 0 0 .679-.034h1.082v-.08a15.13 15.202 0 0 0 13.361-15.088v-.03a15.13 15.202 0 0 0-12.317-14.9 21.519 21.519 0 0 0-21.522-20.725z" fill="url(#b)"/></svg>