<svg width="512" height="512" fill="none" xmlns="http://www.w3.org/2000/svg"><rect width="512" height="512" rx="256" fill="#000"/><path fill-rule="evenodd" clip-rule="evenodd" d="M270.539 198.672l21.239-42.794-.09.006c4.095-8.388 6.115-17.925 5.437-27.901-2.067-30.44-28.464-53.44-58.959-51.368-30.495 2.071-53.54 28.427-51.472 58.868.699 10.304 4.187 19.755 9.677 27.669l25.445 37.431c4.878 9.08 14.764 14.958 25.733 14.213 10.417-.707 19.058-7.201 22.99-16.124zM312.702 258.404l52.804 7.833-.042-.105c10.399 1.464 21.306.308 31.745-3.885 31.862-12.799 47.297-49.05 34.476-80.969-12.822-31.918-49.045-47.418-80.908-34.619-10.954 4.401-19.967 11.573-26.557 20.389l-32.346 41.469c-.376.454-.738.919-1.087 1.393l-.143.184.013-.005c-5.93 8.201-7.648 19.183-3.592 29.28 4.431 11.031 14.57 18.057 25.637 19.035zM268.117 313.1l5.653 47.681.071-.054c1.189 9.404 4.778 18.629 10.901 26.729 18.7 24.742 53.953 29.613 78.739 10.879 24.787-18.734 29.72-53.978 11.019-78.72-6.457-8.543-14.887-14.717-24.178-18.368l-42.043-17.496c-9.184-4.938-20.8-4.41-29.676 2.298-8.622 6.518-12.339 17.115-10.486 27.051zM198.437 286.022l-46.988 24.525.084.053c-9.23 4.905-17.336 12.217-23.289 21.701-18.17 28.95-9.39 67.175 19.611 85.378 29.002 18.203 67.242 9.49 85.413-19.46 6.206-9.888 9.268-20.858 9.455-31.742l1.577-50.426c1.532-11.423-3.558-23.23-13.971-29.766-10.061-6.314-22.393-6.015-31.892-.263zM205.163 222.936l-28.422-27.828-.018.072a45.747 45.747 0 00-20.691-11.478c-24.642-6.196-49.65 8.792-55.857 33.478-6.207 24.685 8.737 49.719 33.378 55.915a45.733 45.733 0 0023.661-.326l-.001.004 37.097-10.783c8.374-1.58 15.493-7.872 17.711-16.693 2.121-8.434-.8-16.951-6.858-22.361z" fill="#24FF00"/></svg>