<svg xmlns="http://www.w3.org/2000/svg" aria-hidden="true" width="23.275" height="23.275"><defs><linearGradient x1="11.245" y1="15.483" x2="4.495" y2="24.691" id="a" gradientTransform="scale(.89219 1.12084)" gradientUnits="userSpaceOnUse"><stop stop-color="#0052CC" offset="0%"/><stop stop-color="#2684FF" offset="100%"/></linearGradient></defs><path d="M6.905 15.612a.665.665 0 00-1.126.121L.072 27.022a.669.669 0 00.03.656c.124.2.344.32.58.32h7.946c.26.006.5-.14.61-.373 1.715-3.504.676-8.832-2.333-12.013z" fill="url(#a)" transform="translate(0 -4.85)"/><path d="M11.086.488a14.754 14.754 0 00-.879 14.7l3.831 7.58a.683.683 0 00.61.374h7.945a.684.684 0 00.58-.32.669.669 0 00.03-.657S12.515 1.013 12.246.484a.645.645 0 00-.581-.358.645.645 0 00-.579.362z" fill="#2684ff"/></svg>