<svg xmlns="http://www.w3.org/2000/svg" width="34.523" height="34.523"><path fill="#ff7d00" d="M34.523 29.607a4.195 4.195 0 01-4.182 4.186H4.183A4.197 4.197 0 010 29.607V4.914A4.195 4.195 0 014.183.73h26.158a4.194 4.194 0 014.182 4.184z"/><g fill="#fff"><path d="M8.548 14.613c0-.452.383-.816.855-.816h2.168c.194 0 .336-.088.517-.211a8.659 8.659 0 014.899-1.5c4.662 0 8.439 3.618 8.439 8.083v7.416c0 .455-.384.819-.856.819h-2.75c-.473 0-.857-.364-.857-.819v-7.416c0-2.104-1.778-3.808-3.976-3.808-2.196 0-3.975 1.703-3.975 3.808v7.416c0 .455-.384.819-.859.819h-2.75c-.473 0-.856-.364-.856-.819V14.613zM11.447 8.608a13.667 13.667 0 015.563-1.171c4.484 0 8.439 2.139 10.834 5.401a.6.6 0 00.84.128.607.607 0 00.127-.847c-2.617-3.567-6.933-5.894-11.802-5.894a14.86 14.86 0 00-6.05 1.277.605.605 0 00.488 1.106"/><path d="M26.044 14.657a.59.59 0 01-.483-.244c-1.964-2.656-5.168-4.244-8.573-4.244-1.521 0-2.99.303-4.36.902a.599.599 0 01-.48-1.097 11.976 11.976 0 014.84-1.006c3.784 0 7.348 1.77 9.539 4.733a.603.603 0 01-.483.956"/></g></svg>