<svg xmlns="http://www.w3.org/2000/svg" width="68.467" height="68.467" viewBox="0 0 18.115 18.115"><path d="M8.418 2.635c.599-.465 1.351-.079 1.855.35.527.403 1.076.86 1.558 1.326l.087.05c1.335 1.238 2.574 2.614 3.592 4.069.165.253.31.54.219.876-.34.849-1.03 1.525-1.633 2.266-1.305 1.405-2.681 2.764-4.222 3.848-.312.22-.733.424-1.106.25-1.134-.595-2.09-1.567-3.084-2.453-1.151-1.068-2.307-2.311-3.18-3.611-.13-.183-.166-.408-.162-.649.112-.449.42-.818.71-1.196 1.032-1.314 2.295-2.561 3.57-3.7.03-.029.084-.091.13-.12a23.159 23.159 0 011.666-1.306m1.754-1.367l-.677-.96C9.412.258 9.308.174 9.216.15c-.2-.086-.415.018-.578.142L7.413 1.888C5.447 4.322 3.119 6.596.58 8.339c-.2.157-.5.31-.561.568-.067.233.054.425.198.57a33.415 33.415 0 015.708 4.959c.307.323.556.643.857.946.506.674 1.1 1.353 1.566 2.075.145.153.17.403.399.478.178.061.399.103.569 0l.17-.17c2.104-2.98 4.772-5.657 7.753-7.818.298-.267.868-.366.876-.861a.787.787 0 00-.35-.578l-.049-.008a30.103 30.103 0 01-4.31-3.562l-1.488-1.555c-.603-.669-1.188-1.409-1.746-2.115M8.638 3.002c.612-.417 1.16.166 1.635.499 1.832 1.474 3.561 3.162 4.879 5.069.166.246.24.628.092.906-.342.57-.803 1.09-1.24 1.618v.029c-1.089 1.16-2.24 2.352-3.483 3.334-.606.369-1.163 1.175-1.945.676a28.142 28.142 0 01-4.925-4.651c-.245-.382-.627-.694-.798-1.126-.237-.586.286-1.006.586-1.447 1.472-1.815 3.3-3.595 5.2-4.907m.386 1.196l-.166.532-.831 2.382c.208.021.465 0 .67.021v.02l-.122 2.693.021.029c.266.026.598.039.87-.007v-.043l-.11-2.613.017-.088.731-.012c-.364-.964-.718-1.938-1.059-2.914zM6.195 7.93c-.466.233-1.152.587-1.076 1.226.1.35.478.575.777.719 1.653.728 3.849.753 5.595.21.43-.167 1.01-.408 1.089-.936-.005-.437-.467-.711-.799-.878v-.02c.116-.047.249-.088.37-.1v-.012c-.586-.105-1.15-.258-1.717-.408.11.249.188.511.279.77.17-.055.345-.097.528-.121.299.116.726.282.769.656.033.349-.35.52-.59.66-1.281.467-2.722.512-4.058.158-.369-.116-.901-.266-.947-.735.262-.619.94-.747 1.505-.898-.29-.187-.586-.353-.868-.561-.304.017-.582.15-.857.27m2.365 2.686c-.05.956-.062 1.841-.133 2.8.378.035.806.068 1.21.009l-.121-2.673-.021-.128c-.308.012-.599.025-.935-.008" fill="#0c71a5"/></svg>