<svg xmlns="http://www.w3.org/2000/svg" viewBox="0 0 41.117 35.51"><path d="M6.54.84v33.83H0V.84zM27.615 0h-.171c-4.55.041-8.878 1.82-12.188 5.013-3.311 3.193-5.24 7.447-5.431 11.978-.207 4.883 1.548 9.515 4.94 13.043 3.394 3.531 7.957 5.476 12.848 5.476 5.018 0 10.184-2.033 13.503-5.31V15.172h-14.14v6.262h7.777v5.508l-.084.055c-1.957 1.287-4.508 2.119-7.056 2.119-3.151 0-6.086-1.26-8.261-3.546a11.247 11.247 0 0 1-3.114-8.422c.299-5.698 5.015-10.413 10.737-10.734 3.18-.183 6.212 1.117 8.628 3.429.085.082.183.185.295.312l4.534-4.522a28.56 28.56 0 0 0-.294-.312C36.914 1.964 32.512.001 27.617.001z" fill="#e01b1c"/></svg>