<svg xmlns="http://www.w3.org/2000/svg" id="Layer_1" data-name="Layer 1" version="1.1" width="203.48" height="203.48"><defs id="defs948"><style id="style946"></style></defs><g id="g1548" transform="translate(0 57.737)" fill="#d96932" fill-opacity="1"><path id="path1543" d="M18.444 1.81H0V86.19h18.444z"/><path id="path1541" d="M32.91 86.191h18.444V52.56h36.405v33.632H106.2V1.81H87.759v33.63H51.354V1.81H32.91z"/><path id="path1539" d="M180.698 26.159l12.779-11.934a38.267 38.267 0 00-14.225-10.486 48.132 48.132 0 00-40.685 1.627 39.75 39.75 0 00-15.732 15.309Q117.051 30.62 117.05 44a46.475 46.475 0 005.366 22.542 39.59 39.59 0 0015.429 15.67A45 45 0 00160.688 88a44.385 44.385 0 0021.639-5.304 39.83 39.83 0 0015.429-15.009q5.724-9.7 5.724-22.601a53.047 53.047 0 00-.963-9.645h-43.76v17.118h24.593a17.6 17.6 0 01-6.991 12.9 26.426 26.426 0 01-28.148 1.866 22.617 22.617 0 01-8.68-9.22A29.665 29.665 0 01136.339 44a30.456 30.456 0 012.953-13.683 22.65 22.65 0 018.498-9.402 23.985 23.985 0 0112.899-3.436q10.97 0 20.01 8.679"/></g></svg>