<svg xmlns="http://www.w3.org/2000/svg" data-name="Layer 1" width="203.48" height="203.48"><g fill="#d96932"><path d="M18.444 59.547H0v84.38h18.444zM32.91 143.928h18.444v-33.631h36.405v33.632H106.2V59.547H87.759v33.63H51.354v-33.63H32.91zM180.698 83.896l12.779-11.934a38.267 38.267 0 0 0-14.225-10.486 48.132 48.132 0 0 0-40.685 1.627 39.75 39.75 0 0 0-15.732 15.309q-5.784 9.945-5.785 23.325a46.475 46.475 0 0 0 5.366 22.542 39.59 39.59 0 0 0 15.429 15.67 45 45 0 0 0 22.843 5.788 44.385 44.385 0 0 0 21.639-5.304 39.83 39.83 0 0 0 15.429-15.009q5.724-9.7 5.724-22.601a53.047 53.047 0 0 0-.963-9.645h-43.76v17.118h24.593a17.6 17.6 0 0 1-6.991 12.9 26.426 26.426 0 0 1-28.148 1.866 22.617 22.617 0 0 1-8.68-9.22 29.665 29.665 0 0 1-3.192-14.105 30.456 30.456 0 0 1 2.953-13.683 22.65 22.65 0 0 1 8.498-9.402 23.985 23.985 0 0 1 12.899-3.436q10.97 0 20.01 8.679"/></g></svg>