<svg xmlns="http://www.w3.org/2000/svg" viewBox="0 0 226.6 64.1"><path fill="#4763b8" d="M113.6 33.2c-.1 1.7.7 3.5.5 5.3.5 2.2.5 4-.3 6 .6 1.1 0 1.8 0 2.8.2 1.7-.2 3-.3 4.7-.1 1.1 0 2.3.1 3.4-.2 1.4 0 1.3.1 2.4.2 2 1.3 4.6 3.8 4.3 2-.5 3.9-2 4.5-4 1-1 1.6-2.2 2.6-3.5.8-2 2.3-3.6 3.7-5.4.8-1.7 2-3.6 3.1-5.2 1.1-1.2 2.6-5 3.9-4.4 0 2 .4 4 .1 6 .2 1.6-.3 2.8.1 4.4.2 1.6-.7 3.3.2 4.6.4 1.5.4 3 1 4.3 0 2.4 3 4.1 5.1 2.8 1.8 0 2.5-2 3.8-3 1.3-1.4 2.6-2.8 3.6-4.4.8-1.8 2.7-3.7 3.2-5.3-.7.3 1.9-2.9 1.5-.8.2 1.7.1 3.8 1.1 5.3a16 16 0 0 0 3.4 6.4c1.5 1 3.5 1.2 5.3 1.5 1.4.1 2.5-1 3.8-1 1.2-1.1 2.3-1.6 3.3-2.7 1.3-1.5 2.5-3.2 3.2-5 .2-1.7-.6-3.5-2.5-3.4-2.4-.3-3.5 2-4.8 3.4-.9 1.4-3.4 3.2-4.4 1a10 10 0 0 1-1.8-5.1c0-1.3-.4-2.7.1-3.5-.4-1.1 0-2.6.2-3.8-.2-1.7-.2-3.6 1.2-4.9.1-1.1 0-2.4-1-3.2-.7-1-2-1.4-3.2-1.4-2-.6-3 1.2-3.9 2.6.2 2.1-2.3 2.7-2.5 4.6a10 10 0 0 1-2.2 2.9l-2.3 3.6c-1.8 1.2-2.3 3.5-3.5 5.2-.4 1.3-1.8 1.9-1 .2 0-1.8-.6-3.5-.2-5.3-.8-1.5 1.5-2.1.1-3.6.7-1.8-.8-3.4-.6-5.1l-2.2-4.2c-1.1-1.8-3.7-2.2-5.7-1.5-.8.4-1.4 1.3-2.2 1.6-1.2-.2-.4 2-2 2-.2 1-1.4.9-1 1.7a18 18 0 0 1-3.3 4c-1.7 1.4-1.8 4-3.3 5.7 0 1.2-2 3.3-1 .9.7-1.6-.2-3.1.2-4.8.2-1.5-.2-3-.5-4.5 1.4-.9-.2-2.5.5-4-.6-1.7-1.5-3.6-3.5-3.9-2-.2-3.4 1.7-4.1 3.3zM183 8.7c-.3.7-.2 1.6-1 1.9-.6.4-1 1.3-1.3 2-.4 0-1.2-.1-1 .5.2.6-1 .2-1 .7 0 .6 0 1.2-.6 1.5 0 .6-.8.8-.9 1.4-.2.7-.6 1.3-1 2L176 21l2.1 2 2.5-2.2c.5-.3 1.2-.5 1.5-1.2.4-.6 1.3-.4 1.9-.7l1.7-2.2c1.2-.5 2-1.5 2.8-2.4.8-.6 1.3-1.6 1-2.6-.3-1.5-1.8-2.5-3.2-3a19.2 19.2 0 0 0-3-.9l-.2.8zm-2.3 20.8c-1.2 0-2.7 0-3.2 1.1-.7 1 0 2.2-.3 3.2.2 1.2.3 2.6-.1 3.8-.7.8-.1 1.4.2 2.1-.4 1.9-1 3.8-.5 5.7-.4.4-.3 1.1-.4 1.7l-.7 5.2c.6 1.4.2 3 .4 4.5l1.5 3.1 3.6 2.6c.7-.5 1.4-1.2 2.4-1 .9.3.9-1 1.8-.9 1.2-.1 2-1.1 3-1.7a12 12 0 0 0 3.3-2.4c1.4-.3 1.7-2.2 3.2-2.4.6-.6 1-1.7 1.6-2.4.3-1.1.4-2.4-.6-3.2-.6-1-1.7-.8-2.6-.6-1.7.4-3 1.5-4.7 2-.4.7-1 1.6-1.8 1.2-.8.8-1.4 1.8-2.5 2.3-.8-.4-1.7.8-1.7-.6 0-1.2 0-2.5.4-3.6 0-1.1 0-2.2.3-3.3 0-1.4.7-2.6 1-3.9-.5-1 .8-2 .6-3.1-.7-1.2-.3-2.6-.1-4 .4-1.1.1-2.3 0-3.5-.4-1.7-2.3-3-3.9-2zM219.5 48v.1l-.3.4a204 204 0 0 0-1 .9v1.1l-.4.7-1 .5-.8 1.2-1.5 1.1-.1.3c-1 .4-1.7.9-2.1 1.4l-.7.2-.3.3-.3.3-.5-.2-.5.2a1.7 1.7 0 0 0-.6 0h-1l-.2.7h-1.6l-.2-.1a71 71 0 0 0-.7-.3 15.1 15.1 0 0 0-.4-.5v-.5l.3-1v-2.4l.6-1.8V49l.5-1.1c.6-.6.9-1.3.9-2v-.2l.7-.7v-.4l.2-1.2.9-.4.3-1.9.6-.3.2-.8 1.4-.7 1-2.1 1-1h.3-.3l.5.2 1.4.5.3.3 1 1.6h.2a2 2 0 0 0 .7 1.3l1 1.1v1.2l.5 1.2-.1.2v.3a2.4 2.4 0 0 0 .5 1.1 3.5 3.5 0 0 0-.6 1.8c0 .3 0 .6.2 1m6.5-7v-.7l-1.5-3.6-1.6-2.2-.4-.2a2 2 0 0 0-.1-.2V34a23.6 23.6 0 0 0-2.3-2.4l-.3-.3h-.7l-1-.5h-.5l-.5-.3-1.4-1.3-.5.2-1.6.6h-.5a3.6 3.6 0 0 0-1.4-.3 3.7 3.7 0 0 0-1.6.4h-1.5l-.1.8c-.2.7-.4 1.2-.9 1.4a2685.3 2685.3 0 0 1-2.2.8v2a56.2 56.2 0 0 0-.6.6h-1l.2.9h-.2v.2l-1.7 2.3v.3a3.6 3.6 0 0 1-.4 1.6l-.1.2v.6l.1.7a4.6 4.6 0 0 1-.3.5l-.2.2v1.3a118.4 118.4 0 0 1-.3 1.2l-1 2.3c-.5.6-.7 1.4-.7 2.4v1.3a239.9 239.9 0 0 1-.3 1.2l.2 1.6-.4 1 1 2.5-.3 1.3 1.8 2 1.3 1.9 3.3.2 1.4.6 1.1-.3h1.2l1-.8.7-.2.6-.4c.6 0 1-.2 1.5-.5 1.2 0 2.2-.5 3-1.5 1-.3 1.8-.9 2.5-1.7l1.7-.7V57l.7-.3.6-1.2 1-.6.2-.7.6-.2.5-2 .8-.8.3-1 .4-.6v-.8l.3-.7V48c.2-.7.3-1.7.3-3l.5-1.3-.7-2.7M0 0h15.7v61.8H0Zm30 0h15.8v61.8H30Zm73.2 42.6C103.2 56.1 94 64 79.9 64c-16.2 0-23.2-9.7-23.2-23.6v-4.6h14.2v4.1c0 7.4 4.2 9.9 8.2 9.9 5.4 0 8.5-3.4 8.5-8.8V0h15.6Z"/></svg>