<svg xmlns="http://www.w3.org/2000/svg" width="152.5" height="152.5" viewBox="0 0 159.477 160" fill="none"><path d="M-.261 48v64h160V48z" fill="#0058a3"/><path d="M2.839 80.6c0 15.5 32.2 28.4 76.8 28.4 44.6 0 76.8-12.9 76.8-28.4 0-15.5-32.1-28.4-76.7-28.4s-76.9 12.9-76.9 28.4z" fill="#ffdb00"/><path d="M120.939 91.7h-11.9c.5-.6.9-1.3 1.1-2l7.1-19.4v-.1c.3-.6.4-1.3.4-2h20.1c-.1.6 0 1.1.3 1.6 0 .1.1.2.1.4.6 1.4 7 17.9 7.5 19.4.2.7.6 1.4 1.1 2h-15c0-.7-.1-1.4-.5-2 0 0-.2-.6-.6-1.3l-.1-.3h-8.7l-.1.4s-.3.7-.5 1.3l-.1.2c-.1.5-.2 1.2-.2 1.8zm5.2-15.6c-.1.5-.2 1-.4 1.5 0 .1-.3.8-.6 1.8-.4 1-.8 2.3-1.3 3.7h5l-2.1-5.4c-.3-.6-.5-1.1-.6-1.6zm-72.3 15.6h-14.4c.3-.6.4-1.3.3-2V70.3c.1-.7-.1-1.4-.3-2h14.4c-.3.6-.4 1.3-.3 2v8.5s4.6-5.9 5.7-7.3c.4-.5 1.8-2.4 1.8-3.2h15c-1.2.9-2.2 1.9-3.1 3-.8 1-5.5 6.6-5.5 6.6s6.9 10.3 7.8 11.8c.5.7 1.1 1.4 1.7 2h-17.4c-.2-1.1-.7-2.2-1.4-3.1-.7-1-4.3-6.4-4.7-7v8.2c0 .5.1 1.2.4 1.9zm53.4 0h-27.9c.3-.6.4-1.3.3-2V70.3c.1-.7-.1-1.4-.3-2h27.8v6.5c-.6-.3-1.3-.4-2-.3h-11.7v3.1h11.3v5h-11.3v3.1h11.7c.7.1 1.4-.1 2-.3zm-74.7 0h-15.6c.3-.6.4-1.3.3-2V70.3c.1-.7-.1-1.4-.3-2h15.7c-.3.6-.4 1.3-.3 2v19.4c-.2.6 0 1.3.2 2z" fill="#0058a3"/></svg>