<svg xmlns="http://www.w3.org/2000/svg" viewBox="0 0 72.55 30.86"><path fill="#b9ef29" d="M4.69 9.62c2.59 0 4.69-2.15 4.69-4.81S7.28 0 4.69 0 0 2.15 0 4.81s2.1 4.81 4.69 4.81"/><path fill="#003c44" d="M72.4 8.92h-2.47l2.47-2.19V4.8l-2.82 2.54-2.83-2.54v1.93l2.48 2.19h-4.41v1.47h7.58zm-1.14 18.45c0-.97-.74-1.73-1.68-1.73s-1.69.76-1.69 1.73.75 1.72 1.69 1.72c.89 0 1.68-.75 1.68-1.72m.3 1.67h.8v1.43h-7.59v-1.48h2.73c-.64-.46-1-1.17-.95-1.98a3.07 3.07 0 0 1 .85-2.08c.25-.25.59-.46.94-.61a3.7 3.7 0 0 1 2.33 0c.35.1.64.31.94.61.25.25.5.55.6.91.15.36.24.76.24 1.17.15.81-.25 1.57-.89 2.03m-3.72-8.59c0 .97.75 1.73 1.69 1.73s1.69-.76 1.69-1.73-.75-1.72-1.69-1.72-1.64.75-1.69 1.72m-1.04 1.48a3.1 3.1 0 0 1-.25-1.17 2.28 2.28 0 0 1 .95-1.98h-.8V17.3h5.7v1.48h-.79c.64.46.99 1.17.94 1.98a3.06 3.06 0 0 1-.84 2.08c-.25.25-.59.46-.94.61-.74.25-1.59.25-2.33 0-.35-.1-.69-.31-.94-.61a2.4 2.4 0 0 1-.7-.91m1.24-8.85c-.1.15-.2.41-.15.61 0 .2.05.46.1.61l.3.41c.15.1.3.21.45.26.2.05.34.1.54.1h3.12v1.47h-5.7v-1.42h.8c-.25-.15-.5-.31-.65-.61a1.6 1.6 0 0 1-.3-1.12c0-.36.05-.67.2-.97a1.55 1.55 0 0 1 .5-.66c.25-.15.44-.25.74-.35.25-.1.6-.1.85-.1h3.56v1.47h-2.87c-.15 0-.35 0-.55.05a1.7 1.7 0 0 0-.54.1c-.2-.05-.3.05-.4.15m-10.01 7.77c0-2.69-2.13-4.83-4.71-4.83s-4.71 2.19-4.71 4.83 2.13 4.83 4.71 4.83a4.74 4.74 0 0 0 4.71-4.83m5.8 0c0 5.49-4.06 10.01-9.07 10.01a7.53 7.53 0 0 1-5.61-2.59v2.19h-6.49V4.74h6.54v8.79a7.35 7.35 0 0 1 5.61-2.59c5.01 0 9.02 4.42 9.02 9.91m-36.14-7.32a7.5 7.5 0 0 1 5.6-2.59 7.41 7.41 0 0 1 7.34 7.52v12h-6.45V18.72c-.05-1.58-1.33-2.8-2.87-2.75s-2.73 1.37-2.68 2.95v11.54h-6.54V18.72c-.05-1.58-1.34-2.8-2.88-2.75s-2.73 1.37-2.68 2.95v11.54h-6.49V11.3h6.49v2.23c.25-.3.5-.51.75-.76a7.26 7.26 0 0 1 10.41.76M7.95 30.46H1.41V11.3h6.54z"/></svg>