<svg xmlns="http://www.w3.org/2000/svg" class="ipc-logo" width="64" height="64"><g transform="translate(-4.837 13.673)"><rect x="4.837" y="2.327" width="100%" height="50%" rx="4" ry="4" fill="#f5c518"/><path d="M12.837 27.327h5v-18h-5zM28.51 9.327l-1.12 8.408-.694-4.573a126.175 126.175 0 00-.58-3.835h-6.279v18h4.242l.017-11.887 1.785 11.887h3.02l1.695-12.149.012 12.149h4.23v-18zM36.837 27.327v-18h7.805a3.185 3.185 0 013.195 3.176V24.15a3.185 3.185 0 01-3.195 3.177zm5.833-14.76c-.199-.108-.578-.16-1.13-.16v11.811c.729 0 1.177-.13 1.345-.405.168-.27.255-1 .255-2.2v-6.978c0-.814-.03-1.334-.087-1.565a.736.736 0 00-.383-.504zM57.267 13.833h.32c1.795 0 3.25 1.406 3.25 3.138v7.218c0 1.733-1.454 3.138-3.25 3.138h-.32a3.282 3.282 0 01-2.658-1.332l-.288 1.1h-4.484V9.327h4.785v5.78a3.387 3.387 0 012.645-1.274zm-1.024 8.778v-4.265c0-.705-.045-1.168-.14-1.38-.094-.213-.47-.35-.734-.35s-.67.111-.75.298V24.134c.09.206.479.32.75.32.272 0 .667-.11.75-.32.083-.21.124-.72.124-1.523z"/></g></svg>