<svg xmlns="http://www.w3.org/2000/svg" width="54" height="54" viewBox="0 0 108 108"><linearGradient id="a" gradientUnits="userSpaceOnUse" x1="252" y1="96" x2="252" y2="4"><stop offset="0" stop-color="#d84a2e"/><stop offset="1" stop-color="#f63"/></linearGradient><path fill="#f63" d="M108 93.5c0 3.6-2.9 6.5-6.4 6.5H6.4C2.9 100 0 97.1 0 93.5v-79C0 10.9 2.9 8 6.4 8h95.2c3.5 0 6.4 2.9 6.4 6.5z"/><path fill="url(#a)" d="M306 89.5c0 3.6-2.9 6.5-6.4 6.5h-95.2c-3.5 0-6.4-2.9-6.4-6.5v-79c0-3.6 2.9-6.5 6.4-6.5h95.2c3.5 0 6.4 2.9 6.4 6.5z" transform="translate(-198 4)"/><path fill="#f5f5f5" d="M18.8 86.8c-3.6 0-6.4-2.9-6.4-6.5V28.4c0-3.6 2.9-6.5 6.4-6.5 3.5 0 6.4 2.9 6.4 6.5v51.9c.1 3.6-2.8 6.5-6.4 6.5zM76 53.6L94.8 32c2.3-2.7 2.1-6.8-.6-9.2-2.7-2.4-6.7-2.1-9.1.6L67.4 43.8 49.7 23.4c-2.3-2.7-6.4-3-9.1-.6-2.7 2.4-2.9 6.5-.6 9.2l18.8 21.7L40 75.3c-2.3 2.7-2.1 6.8.6 9.2 1.2 1.1 2.7 1.6 4.2 1.6 1.8 0 3.6-.7 4.9-2.2l17.7-20.4 17.7 20.4c1.3 1.5 3.1 2.2 4.9 2.2 1.5 0 3-.5 4.2-1.6 2.7-2.4 2.9-6.5.6-9.2z"/></svg>