<svg xmlns="http://www.w3.org/2000/svg" width="150" height="150"><path d="M15.823 83.728V66.405c0-2.135.364-3.728 1.093-4.778.728-1.05 1.83-1.574 3.306-1.574.857 0 1.635.235 2.337.707.701.472 1.325 1.188 1.872 2.149.91-.979 1.94-1.7 3.088-2.162 1.147-.463 2.468-.694 3.962-.694 1.895 0 3.57.338 5.028 1.014 1.458.676 2.715 1.69 3.772 3.043 1.33-1.442 2.687-2.478 4.071-3.11 1.385-.631 2.988-.947 4.81-.947 3.152 0 5.602.987 7.351 2.962 1.749 1.976 2.623 4.76 2.623 8.355v12.358c0 2.118-.364 3.693-1.093 4.725C57.315 89.485 56.203 90 54.71 90s-2.596-.512-3.306-1.535-1.066-2.602-1.066-4.738v-9.742c0-2.26-.323-3.915-.97-4.965-.647-1.05-1.663-1.575-3.047-1.575-1.53 0-2.65.516-3.361 1.548-.71 1.032-1.066 2.66-1.066 4.885v9.85c0 2.117-.365 3.692-1.093 4.724C40.07 89.485 38.96 90 37.466 90s-2.605-.516-3.334-1.548c-.729-1.032-1.093-2.607-1.093-4.725v-9.742c0-2.278-.319-3.937-.957-4.978-.637-1.041-1.64-1.562-3.006-1.562-1.53 0-2.65.516-3.36 1.548-.711 1.032-1.067 2.66-1.067 4.885v9.85c0 2.117-.364 3.692-1.093 4.724S21.716 90 20.222 90s-2.6-.516-3.32-1.548c-.72-1.032-1.08-2.607-1.08-4.725zM84.032 86.024c-.966 1.352-2.114 2.362-3.444 3.03-1.33.666-2.85 1-4.563 1-3.571 0-6.59-1.432-9.06-4.297-2.468-2.865-3.702-6.424-3.702-10.677 0-4.288 1.33-7.9 3.99-10.837 2.66-2.936 5.902-4.404 9.728-4.404 1.494 0 2.82.25 3.976.748 1.157.498 2.182 1.272 3.075 2.322.473-.854 1.06-1.526 1.762-2.016.702-.489 1.417-.734 2.146-.734 1.512 0 2.627.512 3.347 1.535.72 1.023 1.08 2.594 1.08 4.711v17.323c0 3.185-.16 5.672-.479 7.46-.319 1.789-.851 3.27-1.598 4.445-1.294 2.117-3.075 3.723-5.343 4.817-2.268 1.095-4.96 1.642-8.075 1.642-3.808 0-6.914-.596-9.319-1.788-2.405-1.193-3.607-2.696-3.607-4.511 0-1.086.36-1.984 1.08-2.696.72-.712 1.625-1.068 2.719-1.068.528 0 1.799.383 3.812 1.148 2.013.765 3.894 1.148 5.643 1.148 2.186 0 3.88-.632 5.083-1.895 1.202-1.264 1.803-3.052 1.803-5.365 0-.107-.009-.276-.027-.508a7.28 7.28 0 01-.027-.533zM72.39 75.08c0 2.153.538 3.897 1.613 5.232 1.074 1.334 2.459 2.002 4.153 2.002 1.695 0 3.088-.672 4.181-2.016 1.093-1.343 1.64-3.083 1.64-5.218 0-2.082-.547-3.777-1.64-5.085-1.093-1.308-2.486-1.961-4.18-1.962-1.695 0-3.08.654-4.154 1.962-1.075 1.308-1.613 3.003-1.613 5.085zM98.27 77.883V66.405c0-2.117.364-3.688 1.092-4.71.73-1.024 1.84-1.536 3.334-1.536 1.476 0 2.574.512 3.293 1.535.72 1.023 1.08 2.594 1.08 4.711v9.716c0 2.296.355 3.92 1.065 4.871.71.952 1.868 1.428 3.471 1.428s2.76-.476 3.47-1.428c.711-.952 1.066-2.575 1.066-4.87v-9.717c0-2.117.36-3.688 1.08-4.71.72-1.024 1.835-1.536 3.347-1.536 1.476 0 2.57.508 3.28 1.522s1.065 2.589 1.065 4.724v11.478c0 4.092-1.138 7.22-3.415 9.382-2.278 2.162-5.575 3.243-9.893 3.243-4.318 0-7.62-1.081-9.906-3.243-2.287-2.162-3.43-5.29-3.43-9.382zM130.925 83.728V66.405c0-2.117.36-3.688 1.08-4.71.72-1.024 1.826-1.536 3.32-1.536.893 0 1.685.227 2.378.681.692.454 1.302 1.143 1.83 2.069.912-.961 1.877-1.686 2.897-2.176 1.02-.489 2.05-.734 3.088-.734 1.22 0 2.273.423 3.157 1.268.883.845 1.325 1.846 1.325 3.003 0 1.726-1.621 3.167-4.864 4.324-1.166.41-2.04.747-2.624 1.014-1.111.516-1.849 1.09-2.213 1.722-.365.632-.547 1.775-.547 3.43v8.968c0 2.118-.364 3.693-1.093 4.725-.729 1.032-1.84 1.548-3.334 1.548s-2.6-.516-3.32-1.548c-.72-1.032-1.08-2.607-1.08-4.725zM9.455 83.728c0 2.136-.355 3.715-1.066 4.738C7.68 89.489 6.586 90 5.11 90c-1.494 0-2.605-.516-3.334-1.548C1.048 87.42.683 85.846.683 83.728V66.405c0-2.117.36-3.688 1.08-4.71.72-1.024 1.835-1.536 3.347-1.536 1.476 0 2.569.512 3.28 1.535.71 1.023 1.065 2.594 1.065 4.711z"/><path d="M0 52.9c0-1.37.501-2.545 1.503-3.524 1.002-.979 2.204-1.468 3.607-1.468 1.385 0 2.569.49 3.553 1.468.984.979 1.475 2.153 1.475 3.523 0 1.388-.487 2.563-1.462 3.524-.974.96-2.163 1.441-3.566 1.441-1.439 0-2.65-.48-3.634-1.441C.492 55.462 0 54.287 0 52.899z" fill="#89c623"/></svg>