<svg xmlns="http://www.w3.org/2000/svg" width="120" height="120"><path fill="#00ffd0" d="M100.6 67.182c0 .4-.1.9-.4 1.2l-.6-.2s-4.3-1.5-10.9-3.5c0 0-5.8-1.7-8.2-2.5 0 0-.5-.2-1.5-.1s-4.4.4-6.7.6l-3.5.4c-6.3.7-9.1.8-9.1.8-9.9 1-12.3 1.1-12.3 1.1-5.3.4-8.6 1-16.5 1.5l-14.9 1.6-1.1.1h-.4c-.2-.1-.3-.3-.4-.5v-.5c.6-.2-.1-.9-.1-.9-.3-.1-.2-.4-.2-.4v-.1c0-.1.1-.1.1-.2-.1-.2.3-.8.3-.8-.1-.1 0-.1-.2-.3-.1-.1-.2-.5-.2-.8 0-.2.3-.6.2-.7l-.5-.5c-.1-.1-.1-.2-.1-.3v-.2c.1-.2.1-.2 0-.4-.1-.1-.1-.2-.2-.2-.1-.2.3-.6.2-.9 0-.1-.1-.3-.1-.4 0-.1-.1-.2-.1-.3v-.6c0-.1-.1-.3-.1-.4v-.3c.1 0 0-.2.1-.3v-.1c-.1-.1-.1-.1-.1-.2v-.4c0-.2 0-.3-.1-.5 0-.1 0-.1-.1-.2v-.2c0-.1.1-.1.1-.2v-.3c0-.1-.1-.1-.1-.2s-.1-.2-.2-.2c-.1-.2-.2-.4-.2-.6 0-.1 0-.2-.1-.3-.1-.1-.1-.1-.1-.2-.2-.3-.2-.4 0-.4s.2-.1.1-.4c-.1-.3 0-.5.1-.6.1 0 .2-.1.1-.4 0-.3.1-.7-.1-.8-.2-.1-.2-.4-.3-.6v-.1l.1.1h.1c0-.1 0-.1-.1-.2s-.2-.3-.1-.5c0-.3 0-.6-.3-.8-.1-.1-.1-.2-.1-.3 0-.1 0-.1.1-.1h.1l.1-.1c0-.1-.1-.2-.1-.2-.1-.1-.1-.2-.2-.2-.1-.1-.2-.3-.1-.4.1-.2 0-.3-.1-.4-.1-.1-.1-.2-.1-.3v-.2c.1-.2.2-.3.4-.2.1 0 .1-.1.1-.2s-.3 0-.3 0c-.1-.1 0-.1-.1-.2-.1-.2-.2-.4-.2-.6 0-.1.1-.1.1-.1.1 0 .2 0 0-.2-.1-.2 0-.1 0-.3 0-.1.1-.1 0-.2l.1-.1s1.3-.2 1.4-.2c.4 0 .1-.5.1-.5-.1-.3-.1-.7 0-1 0-.5-.2-.6-.4-.7-.1-.1-.1-.2-.1-.4l.1-.1h.2s0-.1.1-.1v-.1c-.1-.1-.1 0-.2-.1 0-.1-.1-.2-.1-.3l.1-.1s.1-.2 0-.4c0-.1-.1-.2-.1-.3-.1-.3 0-.5.1-.6.1-.1.1-.3 0-.5v-.1c-.1-.1-.1-.2-.1-.3 0-.2.1-.3.2-.3s.1-.1.1-.1v-.3c-.1-.1-.2-.1-.3-.1-.2 0-.2-.1-.3-.3-.1-.2-.2-.2-.1-.3.1 0 .1-.1.2-.1s.1-.1.1-.2v-.1c.1-.3.1-.3 0-.8-.1-.3-.1-.6 0-.9.1-.2 0-.7.1-.7s.1-.2.1-.3c0-.1 0-.1.1-.1s.1-.1.1-.1c0-.1-.1-.2-.2-.3-.1-.1-.1-.2-.2-.4s-.2-.3 0-.4c.1 0 .1-.2 0-.3-.1-.2-.2-.4-.2-.7v-.1c0-.2-.2-.3-.1-.4 0-.1.1 0 .2-.1s.3-.2.2-.3v-.2c-.1-.1-.1-.2-.2-.3-.2-.1-.1-.1-.2-.3v-.1c0-.1.1-.1.1-.1l1.6-.2s4.2-.5 8.3-.8c0 0 3.1-.3 16-1.6 0 0 5.4-.5 11.7-1.3 0 0 5.4-.6 16.6-1.6 0 0 7.6-.8 13.1-1.5 0 0 2-.3 3.4.4 0 0 9 3.8 12.1 5l15 6.5c.4.2.1.4.1.4l-.1.1c-.1 0-.1.1-.2.1 0 .2 0 .3.1.5l.2.4c.1.1 0 .5-.1.7-.1.2-.7.4-.6.5.1.2.3.4.4.6 0 .1.1.2 0 .3 0 .1-.1.1-.2.2-.2.1-.2.1-.1.3 0 .1.1.2.1.3.1.2-.6.4-.7.7v.7c0 .1 0 .1-.1.2 0 .1-.1.2-.1.2v.4c0 .1-.1.2-.1.2h-.1c-.1 0-.2.2-.3.3v.1c0 .1.1.1 0 .1-.1.1-.1.2-.2.3-.1.1-.1.3-.1.4v.1c0 .1 0 .1-.1.2-.1 0-.2.1-.3.1-.1.1-.1.1-.1.2v.2c0 .1.1.2.1.2.1.2.1.4 0 .5-.1.1-.1.2 0 .3 0 .1.1.1.1.2.1.3 0 .4-.2.4-.3 0-.3 0-.4.3-.1.3-.2.4-.4.4s-.3.1-.4.3c-.1.2 0 .5.1.6.2.1.1.4.2.6l-.1.1-.1-.1h-.1v.2c.1.1.1.3 0 .4-.1.2-.3.5 0 .8v.3c0 .1-.1.1-.2.1h-.2c-.1 0-.1 0-.2.1v.2c0 .1.1.2.2.3.1.1.1.3 0 .4-.3.1-.2.2-.1.4 0 .1 0 .2.1.3 0 .1-.1.2-.1.2-.2 0-.4.2-.6.1h-.1v.2l.3.3c.1.2.1.4 0 .6-.1 0-.1.1-.2 0-.1 0-.2-.1-.2.2 0 .2 0 .4-.2.4s-.2.2-.2.3c0 .2-.1.4-.3.5-.1.1-.2.1 0 .2s.3.3.2.6c0 .2-.1.6.2.7.1 0 .1.2 0 .3 0 0-.1.1-.2.1s-.2-.1-.3-.2c0 0-.1 0-.1-.1 0 0-.1.1 0 .1 0 .1.1.2.1.3v.3s-.1.1-.2.1-.2 0-.2.2 0 .3-.1.5c0 .2-.2.4-.4.5-.2.1-.3.2-.2.4v.1c.1.1.1.2 0 .3-.1.1-.2 0-.2 0h-.2c-.1.1-.1.3-.1.4 0 .1.1.2.2.3.1.1.3.3.4.5.1.2 0 .2-.1.2h-.2c-.1 0-.3 0-.3.1l-.1.1c-.3.2-.3.2-.3.7 0 .3-.1.6-.4.7-.2.1-.3.5-.5.5-.1 0-.2.2-.3.2l-.1.1c-.1 0-.1-.1-.1 0-.1.1 0 .3 0 .4 0 .1.1.2.1.4.1.2.1.3-.1.3-.1 0-.2.1-.2.2v.1c.1.2.1.4 0 .6v.1c0 .1.1.3 0 .4h-.3c-.2 0-.4.1-.6.2 0 .1-.1.1 0 .2s.1.2.2.3c.2.2.3.4.3.6 0 .2 0 .4-.1.5.4-.6.4-.4.4-.2z"/><path fill="#333" d="M49.9 41.382c-1.1-.9-2.5-1.4-3.9-1.4-2.6 0-4.7 1.2-5.5 3.2-.9-2.4-3-3.2-4.7-3.2-2 0-3.6.9-4.4 2.3l-.5-1.9h-2.7v18.1h3.2v-11c0-2.7 1.5-4.4 3.8-4.4 2 0 3.1 1.2 3.1 3.4v12.1h3.2v-11.1c0-2.7 1.5-4.4 3.8-4.4 2 0 3.1 1.2 3.1 3.4v12.1h3.2v-12.9c.1-1.8-.5-3.2-1.7-4.3zm26.5 0c-1.1-.9-2.5-1.4-3.9-1.4-2.6 0-4.7 1.2-5.5 3.2-.9-2.4-3-3.2-4.7-3.2-1.9 0-3.6.9-4.4 2.3l-.4-1.9h-2.6v18.1H58v-11c0-2.7 1.5-4.4 3.8-4.4 2 0 3.1 1.2 3.1 3.4v12.1h3.2v-11.1c0-2.7 1.5-4.4 3.8-4.4 2 0 3.1 1.2 3.1 3.4v12.1h3.2v-12.9c0-1.8-.6-3.2-1.8-4.3zm13.1-1.4c-2.6 0-4.9 1-6.5 2.8-1.5 1.7-2.4 4.1-2.4 6.7 0 2.6.8 5 2.4 6.7 1.6 1.8 3.9 2.8 6.5 2.8 5.2 0 8.9-4 8.9-9.5s-3.7-9.5-8.9-9.5zm.1 15.9c-2.8 0-5.6-2.2-5.6-6.3 0-3.7 2.4-6.3 5.6-6.3 3.2 0 5.6 2.7 5.6 6.3-.1 4.1-2.9 6.3-5.6 6.3zm-68-20.9v23.6h3.5v-25z"/><path d="M89.2 91.982l1.5-1.2c4.8-3.7 9.7-7.4 9.7-13 0-4.3-3.1-7.4-7.6-7.4-3.9 0-8.2 2.6-8.2 8.4v.8l3.2-1.2c0-3.2 2.4-4.8 4.7-4.8 2.3 0 4.6 1.4 4.6 4.7 0 4.2-4.3 7.4-10.2 12-.8.6-1.7 1.3-2.6 2h-.1v3.1H101v-3.4zm-79.9-10.8l-.3-.1c-2.6-1.1-4.5-2-4.5-4.4 0-2.3 1.9-3.5 3.7-3.5 1.5 0 3.4.8 4.1 2.5l3.1-1.2v-.1c-1.2-3-4.4-4.4-7.1-4.4-3.5 0-7.2 2.2-7.2 7 0 4.7 3.6 6.2 6.5 7.3l.4.1c3 1.2 4.9 2.2 4.9 4.6 0 2.5-2.1 3.6-4.2 3.6s-4.5-1.1-5.2-4.2v-.1l-3.5 1.4c1 3.8 4.3 6.3 8.4 6.3 2.1 0 4-.6 5.5-1.8 1.6-1.3 2.5-3.2 2.5-5.4 0-4.7-3.8-6.2-7.1-7.6zm34.9-4.3c-5.1 0-8.9 4-8.9 9.5s3.7 9.5 8.9 9.5 8.9-4 8.9-9.5-3.8-9.5-8.9-9.5zm5.6 9.5c0 4.2-2.8 6.4-5.6 6.4s-5.7-2.2-5.7-6.4c0-3.7 2.4-6.3 5.7-6.3 3.2-.1 5.6 2.6 5.6 6.3zm16.8 1.3c0 3.3-2.4 5.1-4.7 5.1-1.7 0-3.6-1-3.6-4v-11.5h-3.2v11.5c0 5.1 3.3 6.9 6.2 6.9 2.3 0 4.3-1.1 5.4-2.9l.6 2.5h2.6v-18h-3.2v10.4zm11.5-15.5l-3.2 1.2v3.9h-3v2.9h3v9.9c0 4.9 2.8 5.7 4.5 5.7.8 0 1.6-.1 2.4-.4h.1v-3.1l-.2.1c-.5.3-1 .5-1.5.5-1.3 0-2-.9-2-2.5v-10.1H82v-2.9h-3.8v-5.2zm37.7 13.9v-7.4l-3.3 1.3v6.1h-7.3l8.9-15.2h-3.6l-9.4 16v2.5h11.4v6h3.3v-6h4.2v-3.3zm-84.3 3.8c-.9 1.7-2.7 2.8-4.6 2.8-2.7 0-5.4-2-5.4-6.4 0-3 1.6-6.3 5.2-6.3 1.8 0 3.4 1 4.2 2.5l3-1.2-.1-.1c-1.3-2.7-4-4.4-7.2-4.4-2.2 0-4.3.8-5.8 2.3-1.7 1.7-2.6 4.2-2.6 7.1 0 6.5 4.4 9.5 8.6 9.5 3.2 0 6-1.7 7.6-4.7l.1-.1z"/></svg>