<svg xmlns="http://www.w3.org/2000/svg" width="1453.333" height="1453.333"><path d="M169.805 877.848h468.838c95.32 0 163.575-62.963 163.575-151.064 0-88.336-68.019-151.299-163.575-151.299H169.805c-95.557 0-160.987 62.963-160.987 151.299 0 88.1 65.666 151.064 160.987 151.064z" fill="#303038"/><path d="M1281.294 575.485H638.641c95.557 0 163.576 62.963 163.576 151.299 0 88.1-68.255 151.064-163.576 151.064h642.653c95.322 0 163.223-62.963 163.223-151.064 0-88.336-67.666-151.299-163.223-151.299z" fill="#fc0"/><path d="M685.58 764.611c-18.594 0-31.304-13.86-31.304-34.065s12.71-34.066 31.303-34.066c19.064 0 31.303 13.391 31.303 34.066 0 20.204-12.71 34.065-31.303 34.065zm0 31.247c37.892 0 65.43-27.488 65.43-65.312 0-38.06-27.302-65.313-65.43-65.313-37.659 0-65.431 27.723-65.431 65.313s27.772 65.312 65.43 65.312zm-269.489-3.524h34.128v-81.288c4.471-8.693 13.65-14.801 22.83-14.801 12.003 0 20.476 9.397 20.476 23.024v73.065h34.127v-81.288c3.766-8.693 13.416-14.801 23.066-14.801 12.003 0 20.005 9.397 20.005 23.024v73.065h34.127v-79.409c0-29.132-18.828-47.692-48.013-47.692-15.299 0-27.773 5.639-37.893 18.09-8.002-11.981-20.006-18.09-35.069-18.09-15.063 0-28.008 6.344-35.775 17.15v-13.86h-32.009zm-211.118 0H239.1v-81.288c4.472-8.693 13.651-14.801 22.83-14.801 12.004 0 20.477 9.397 20.477 23.024v73.065h34.127v-81.288c3.766-8.693 13.415-14.801 23.065-14.801 12.004 0 20.006 9.397 20.006 23.024v73.065h34.127v-79.409c0-29.132-18.829-47.692-48.013-47.692-15.299 0-27.773 5.639-37.893 18.09-8.003-11.981-20.006-18.09-35.07-18.09-15.062 0-28.007 6.344-35.774 17.15v-13.86h-32.009zM163.55 656.776c11.297 0 20.24-8.928 20.24-19.5a20.186 20.186 0 00-5.928-14.287 20.26 20.26 0 00-14.312-5.917c-11.533 0-20.477 8.927-20.477 20.204 0 10.807 8.944 19.5 20.477 19.5zm-17.182 135.558h34.128V668.523h-34.128z" fill="#fff"/><path d="M1213.025 750.52c0 8.693 3.766 12.921 11.533 12.921a23.871 23.871 0 009.65-2.114l4.236 28.427c-6.12 2.82-13.651 4.229-21.653 4.229-24.007 0-38.6-14.331-38.6-38.53V628.119h34.834zm-263.84-82.008l28.416 73.206 23.126-73.206h34.597l-40.246 123.812h-34.361l-29.021-77.461-28.405 77.46H868.93l-40.716-123.81h36.48l23 73.466L916 668.512zm376.813 89.289c-5.884 3.759-11.768 5.638-18.593 5.638-10.827 0-17.181-5.873-17.181-15.74v-48.867h42.13v-30.307h-42.13v-29.837h-34.834v29.837h-23.536v30.307h23.536v51.92c0 27.723 18.358 45.108 47.543 45.108 13.416 0 24.948-3.289 35.304-10.102zm-289.256-27.25c0-37.591 27.537-65.079 64.724-65.079 36.246 0 60.018 25.374 60.018 64.608 0 4.23 0 8.458-.471 11.747h-90.48c3.794 15.3 15.567 24.669 31.875 24.669 12.239 0 21.889-5.169 28.008-14.801l23.771 19.03c-10.355 15.506-29.184 25.138-51.544 25.138-37.893 0-65.901-27.957-65.901-65.313zm91.32-13.627c-2.704-14.216-13.027-22.79-27.302-22.79-14.352 0-25.339 8.813-29.603 22.79z" fill="#303038" fill-rule="evenodd"/><path d="M1280.942 886.667H169.802c-49.623 0-92.124-16.415-122.29-44.9C17.315 813.25 0 773.118 0 726.784c0-46.435 17.244-86.629 47.417-115.182 30.142-28.523 72.649-44.935 122.385-44.935h1111.14c99.764 0 172.391 66.274 172.391 160.117 0 93.625-72.88 159.883-172.39 159.883zm0-8.82H169.802c-95.32 0-160.986-62.962-160.986-151.063 0-88.336 65.43-151.298 160.986-151.298h1111.14c95.556 0 163.576 62.962 163.576 151.298 0 88.1-68.255 151.064-163.576 151.064z" fill="#fff" fill-rule="evenodd"/></svg>