<svg xmlns="http://www.w3.org/2000/svg" width="933.333" height="933.333" viewBox="0 0 700 700"><path d="M187.5 698.9c-44.9-1.9-68.2-6.6-92-18.4-17.3-8.7-29.5-17.5-44-32-22.4-22.4-36.4-46.4-43-73.6C1.9 547.4.9 530.4.3 433.8L-.2 350H700v67.8c0 127-3.1 155.3-20.6 189.2-8 15.3-17.3 27.9-30.9 41.5-14.5 14.5-26.6 23.3-44 32-24.5 12.2-46 16.4-95.4 18.5-26.3 1.1-294.9 1.1-321.6-.1z" fill="#ffcd00"/><path d="M187.5 1.1c-44.9 1.9-68.2 6.6-92 18.4-17.3 8.7-29.5 17.5-44 32-22.4 22.4-36.4 46.4-43 73.6C1.9 152.6.9 169.6.3 266.2L-.2 350H700v-67.8c0-127-3.1-155.3-20.6-189.2-8-15.3-17.3-27.9-30.9-41.5-14.5-14.5-26.6-23.3-44-32C580 7.3 558.5 3.1 509.1 1c-26.3-1.1-294.9-1.1-321.6.1z" fill="#2c2c35"/><path d="M571.3 199c-9.8 2-18.6 9.7-21.6 19.1-2.1 6.5-2.2 17.9-.1 24.9 2.2 7.3 10.8 16 17.9 18.1 11.3 3.2 22.7.6 30.2-6.9 11.2-11.2 11.6-34.2.8-47-5.3-6.3-17.7-10-27.2-8.2zM101 230.5V289H69V172h32zm489.7-60c21.1 3.9 38.2 19.1 45 39.9 2.2 6.9 2.6 9.9 2.6 20.1s-.4 13.2-2.6 20.1c-8.3 25.2-31.2 41.4-58.7 41.4-28.8 0-52.3-17.9-59.6-45.1-2.2-8.5-2.2-24.3.1-32.9 8.4-31.8 38.9-50 73.2-43.5zm-186.5 2.2c3.6 1.7 8.3 5.1 11 7.8l4.7 4.8 5.1-4.6c13.7-12.3 34.8-15.1 52.2-7 10.7 5.1 16.8 11.7 21.1 23.1 2 5.5 2.1 7.6 2.5 48.9l.3 43.3h-32l-.3-38.3c-.3-37.3-.4-38.3-2.5-42.4-1.2-2.2-3.4-5.1-4.9-6.2-7.5-5.9-19.7-4.7-27.7 2.8-5.8 5.3-5.7 4.8-5.7 46.1v38h-31.9l-.3-38.3c-.3-37.5-.3-38.3-2.6-42.4-1.2-2.4-4.1-5.5-6.4-7-8.4-5.6-21.6-2.6-28.5 6.6l-3.3 4.3V289h-32V172h30v12.9l4.4-4.4c8.2-8.2 18.3-11.7 31.8-11.1 7 .3 9.8.9 15 3.3zm-199 0c3.6 1.7 8.3 5.1 11 7.8l4.7 4.8 5.1-4.6c10.4-9.3 23.7-13.1 38.6-11 9.6 1.4 20.7 6.7 25.9 12.4 4.5 5.1 9.1 14.5 10.5 21.8.6 3.1 1 22.3 1 45.2V289h-31.9l-.3-38.3c-.3-37.3-.4-38.3-2.5-42.4-1.2-2.2-3.4-5.1-4.9-6.2-7.5-5.9-19.7-4.7-27.7 2.8-5.8 5.3-5.7 4.8-5.7 46.1v38h-31.9l-.3-38.3c-.3-37.5-.3-38.3-2.6-42.4-1.2-2.4-4.1-5.5-6.4-7-8.4-5.6-21.6-2.6-28.5 6.6l-3.3 4.3V289h-32V172h30v12.7l4.5-4.3c8.5-8.2 18.3-11.6 31.7-11 7 .3 9.8.9 15 3.3zm-110-45.8c15.1 9.6 9.5 31.9-8.4 33.8-13.5 1.4-23-9.4-20.4-23.2.8-4.2 5.8-10.3 10.1-12.1 1.6-.7 5.5-1.3 8.6-1.4 4.4 0 6.4.6 10.1 2.9z" fill="#fff"/><path d="m452.2 472.2.3 70.3 2.6 5.6c5 10.6 13.2 17.2 24.8 19.9 9.6 2.3 30.5-.2 31.8-3.7.5-1.2-2.2-22.8-3.3-26.5-.4-1.4-1-1.5-3-.8-3.7 1.5-10.1 1.2-13.3-.5-1.6-.8-3.4-2.8-4-4.6-.8-2.2-1.1-22.8-1.1-66.5V402h-35.1zM529 428v15h-23v31h22.8l.4 31.2c.4 30 .5 31.5 2.7 37.3 2.9 7.3 6.8 13.1 11.6 17.3 14.2 12.5 40.9 14.8 61.2 5.3 3.5-1.7 6.6-3.6 6.9-4.4.4-1.1-9.7-26.1-11.2-27.6-.2-.2-2.5.7-5.1 1.9-7.1 3.4-16.9 3.9-22.5 1.1-8-3.8-8.3-4.8-8.6-35.3l-.4-26.8 21.4-.2 21.3-.3.3-15.3.3-15.2H564v-30h-35zm-169.5 13.5c-13 2.8-26.9 11.3-35 21.1-9.5 11.8-14.5 26.3-14.5 43 0 29.5 17.9 53.9 46 62.6 6.3 1.9 9.6 2.3 20.5 2.2 11.3 0 14-.4 21.1-2.7 4.4-1.5 10.7-4.4 14-6.5 6.7-4.4 17.1-15 15.8-16.1-2.4-2.1-21.1-16.8-22.1-17.4-.7-.5-3 1.1-5.8 3.9-7.1 7.1-12 8.9-24 8.9-8.9 0-10.5-.3-15.1-2.7-6.3-3.3-12.8-10.4-14.8-16.4l-1.5-4.4h91.2l-.5-14.3c-.4-10.8-1.1-15.9-2.8-21.2-8.4-26.5-29.3-41.7-57.4-41.4-5 0-11.8.7-15.1 1.4zm23.9 28.9c8.2 2.5 15.1 9.7 17.1 17.8l.7 2.8h-28.1c-15.5 0-28.1-.2-28.1-.5 0-1.7 4.7-9.5 7.4-12.3 3.1-3.3 8.8-6.8 13.6-8.3 4.1-1.2 12.4-1 17.4.5zM101 443.9c0 .7 6.5 20.6 36.6 112.4l3.6 10.7 17.6-.2 17.6-.3 13.8-37.5 14-38.3c.2-.4 6.8 16.6 14.7 37.8l14.4 38.5h17.6l17.6-.1 20.1-61.9 20.1-62h-35.2l-10.9 34.8-11.6 36.1c-.7 1.3-1.7-1-20.2-48.9l-8.4-21.5-16.9-.3-17-.2-14 36.4c-7.7 20.1-14.3 35.9-14.6 35.3-.3-.7-5.5-17.1-11.5-36.4L137.5 443h-18.2c-10.1 0-18.3.4-18.3.9z" fill="#2c2c35"/></svg>