<svg xmlns="http://www.w3.org/2000/svg" width="110.5" height="110.5"><path fill="#fff" fill-rule="evenodd" d="M0 35h110.5v40.5H0z"/><path d="M45.7 70.6c.4-.4.9-.9 1.3-1.4.8-.9 1.6-1.8 2.5-2.6.3-.3.6-.5.8-.7.1-.1.1-.2.2-.3-.4.2-.6.5-1 .6-.1 0-.2-.1-.1-.2.3-.2.5-.4.8-.6h-.1c-.1 0-.1-.1-.1-.2-1-.2-1.7.5-2.4 1.1-.2.1-.3-.1-.4-.1-1.1.4-2 1.4-3.1 1.8v-.2c-.5.2-.9.4-1.4.5-.7.2-1.3.1-1.9.1-.9.1-1.8.3-2.8.5h-.1c-.5.1-1 .3-1.4.6h-.1l-.1.1-.5.5c-.5.2-.8.7-1.3 1h-.1l-1.2 1.2H33c-.1 0 0 0 0-.1.1-.1.1-.2.2-.3.1-.1.1-.2.2-.4s.2-.3.3-.5v-.1h-.1c.4-.4.8-.7 1.3-1-.1 0-.1 0-.1-.1s.1-.1.1-.2v-.1l-.1-.1c-.1.1-.3.2-.4.2-.2.2-.3.5-.6.5h-.2V69.8s0-.1.1-.1v-.1c0-.1.1-.1.1-.2v-.1l.1-.1c0-.1 0-.1-.1-.1.1-.2.3-.3.5-.5.3-.1.6-.3.9-.5l.1-.1c-.4.1-.8.3-1.2.6 0 0-.1 0-.1.1 0 0-.1 0-.2-.1v-.1c.1-.2.3-.2.5-.4.1 0 .2 0 .2.1 2.4-1.9 5.8-1.4 8.6-2.4.2-.2.5-.3.7-.5.4-.2.7-.5 1.1-.8.6-.5 1.1-1 1.3-1.7 0-.1-.1-.2-.1-.2-1 1.1-2.1 1.9-3.3 2.5-1.6.8-3.3.7-5 .9.1-.2.2-.2.4-.2 0-.2.2-.3.3-.5h.2c.1 0 .1-.2.2-.2.2 0 .4-.1.3-.1-.2-.3-.7.2-1.1 0 .2-.2.1-.4.2-.5h.3c0-.2.2-.3.2-.3 1.1-.7 2.2-1.2 3.3-1.8-.2 0-.4.2-.6.1.2 0 0-.2.2-.2.8-.2 1.5-.7 2.4-1-.3 0-.5.2-.8 0 .2-.1.2-.2.5-.2v-.2c0-.1.1-.1.2-.1-.1 0-.2-.1-.2-.1.1-.2.3-.1.5-.2-.1 0-.2 0-.2-.1.2-.3.6-.4 1-.5-.1-.2-.3 0-.3-.2 0-.1.1-.1.2-.1h-.2c-.2-.1-.1-.2-.1-.3.5-.5.5-1.2.7-1.8-.1 0-.2 0-.2-.1-.8.8-2 1.1-3.1 1.4h-.4c-.4.2-.9.2-1.3-.1-.3-.2-.5-.4-.8-.6-.6-.4-1.2-.7-1.9-.9-1.7.5-3.7.2-5.7.3.8-.5 1.8-.5 2.7-.8 1.3-.4 2.5-.8 3.9-.8-.2-.1-.5 0-.8 0-1.1-.1-2.1.2-3.3.5-.8.2-1.4.5-2.2.6-.5.2-.7.6-1.2.5v-.2c.8-.9 1.7-1.8 2.9-1.9 1.4-.2 2.7 0 4 .2 1 .1 1.9.3 2.9.5.4 0 .5.6.8.7.5.2.9 0 1.4.3 0-.2-.1-.3 0-.5.3-.3.7.1 1-.1.6-.4-.5-1.1-.8-1.6 0-.1.1-.2.1-.2.6.5 1.1 1.1 1.8 1.5.4.2 1.3.4 1.1-.1-.4-.8-1.1-1.5-1.7-2.3v-.3c-.2 0-.2-.1-.2-.2V53c-.3-.2-.2-.5-.4-.7-.2-.4-.1-.9-.2-1.4-.1-.5-.2-.8-.3-1.3-.2-1.3-.5-2.4-.7-3.6-.2-1.4.8-2.6 1.5-3.9.5-.9 1.1-1.8 2.1-2.4.2-.9.8-1.7 1.4-2.4.6-.7 1.6-1.2 2.3-1.5 1.1-.5 2-.8 2-.8H0v40.5h36.583c1.4-1 3.217-1.8 5.217-2.8 1-.3 3.1-1.3 3.9-2.1zM34 65.2c-.2 0-.5.1-.4-.1.1-.4.6-.4.9-.5.2-.1.4-.2.5-.2.2.2.4.2.5.3-.4.5-1 .3-1.5.5zm-11.6-1.7s-.1-.1-.1-.2c1-1.3 1.7-2.5 2.4-3.9 1-.5 1.8-1.3 2.6-2.1 1.3-1.4 2.7-2.6 4.3-3.3.6-.2 1.4-.2 2 .1-.2.3-.6.2-.9.5-.1 0-.2 0-.2-.1.1-.1.1-.2.1-.2-.8.8-1.8 1.2-2.4 2.2-.5.8-.8 1.7-1.7 2-.3.1.1-.2-.1-.2-2.5 1.4-4.2 3.2-6 5.2zm6.3-5c-.1.2-.2.2-.2.3-.1.2-.2.2-.3.3-.1 0-.2 0-.2-.1.1-.3.3-.6.6-.7.1.1.1.1.1.2zm3.5 11.4c0 .1-.1.2-.2.2.1 0 .2.1.1.1-.2.2-.3.3-.6.4h-.1l-.3.3c-.1.1-.5 0-.4-.1.2-.2.4-.4.6-.5l.3-.3.2-.2c.1 0 .5-.1.4.1zm-1.4-.6l-.9.6c-.3.2-.7.3-1 .5-.3.2-.1-.1-.1 0-.3.2-.5.4-.8.6l-.1.1-.1.1-.2.2-.1.1s-.2 0-.2-.1-.1 0-.1.1c0 0-.1 0-.1.1h-.2c-.1.1-.2.2-.3.2-.2.1-.3.3-.4.5-.1.2 0 .1-.1.1H26c-.1 0 0-.1-.1-.1.1-.1.2-.2.2-.3l.1-.1c0-.1.1-.1.1-.2v-.1c.1-.1.2-.2.2-.3 0-.1.1-.1.1-.2 0 0 .1-.1.1-.2s.1-.1.1-.2V70.4c.1-.1.2-.3.3-.4-.1.1-.2.2-.3.2-.1.1-.2 0-.1-.1.1 0 .1-.1.2-.2s.2-.3.4-.4c.1-.1.2-.1.2-.2l.2-.2c.7-.7 1.9-.7 2.9-1.1.4-.2.8.1 1.2 0 .2 0 .5 0 .7.2-.4.3-1 .7-1.7 1.1zm1.6-5.3c-.1-.1.2 0 .3-.2h-.6c-.1 0-.1-.1-.1-.2l-1.2.3c-.5.2-1 .5-1.6.7-.8.3-1.5 1-2.4 1.3-.1 0-.1-.1-.1-.2.1-.2.4-.3.5-.5 0-.1 0-.2-.1-.2.6-.8 1.4-1.3 2.2-2v-.2c.2-.3.6-.5.8-.8.1-.2.4-.5.8-.7-.1-.1-.2-.1-.2-.2-.3 0-.6.2-.9-.1.1-.1.3-.2.5-.3-.1 0-.1 0-.2-.1-.1-.2.1-.3.4-.4.3-.1.7-.1.9-.3-.5-.1-1.1.2-1.7-.2.4-1 1-1.8 1.9-2.3.1 0 .2 0 .2.1 0 .4-.2.7-.6.8.6.2 1.2.2 1.8.5-.1.2-.2.1-.3.1.4.2.8.1 1.2.4-.2.2-.5 0-.7 0 2.4.7 4.9 1.2 6.8 2.7-1.7.8-3.4 1.2-5.2 1.6-.2 0-.4 0-.6-.1 0 .1 0 .2-.1.2-.3 0-.5 0-.8.2-.2.2-.7.3-.9.1z" fill="#000091"/><path d="M110.5 35H66.633s.767.2 1.067.4c.4.2.8.4 1.1.6.6.3 1.1.7 1.4 1.2.2.2.4.7.2 1-.2.4-.2 1-.6 1.1-.5.2-1.1.2-1.6.2-.3 0-.6-.1-.9-.2 1.1.5 2.2 1 3 2 .1.2.4.2.7.2v.3c-.2.2-.3.2-.2.5h.2c.4-.2.3-.9.8-.7.4.2.5.8.3 1.1-.3.3-.6.5-.9.8-.1.2-.1.4 0 .5.2.3.3.6.4.9.2.5.3 1.1.5 1.7.3 1.1.6 2.3.5 3.4 0 .6-.3 1.1-.1 1.7.2.6.5 1.1.8 1.6.3.5.6.8.8 1.2.5.8 1.3 1.5.9 2.4-.2.5-1.1.5-1.6.8-.5.4-.1 1 .2 1.4.4.7-.5 1.1-1 1.4.2.2.5.2.5.3.1.4.5.6.2 1-.3.5-1.2.7-.8 1.4.3.5.1 1.1-.1 1.7-.2.7-.8 1-1.4 1.1-.5.2-1 .2-1.4.1-.2-.1-.3-.2-.5-.2-1.3-.2-2.6-.5-3.9-.5-.4.1-.8.2-1.1.3-.3.3-.6.5-.9.8l-.2.2-.1.1s0 .1-.1.1l-.6.9v.1s0 .1-.1.1c-.2.5-.4.9-.6 1.4-.5 1.7-.3 3.2.1 3.6.1.1 2.5.8 4.2 1.6.8.3 1.3.6 1.8.9h42.9V35z" fill="#e1000f"/><path d="M69.8 49.9c.3.1.8.1.8.2-.2.6-1.1.8-1.5 1.4h-.2c-.2.2-.2.5-.4.5-.2-.1-.5 0-.7.1.3.3.7.5 1.1.5.1 0 .2.2.2.3 0 0 .1 0 .2-.1.1 0 .2 0 .2.1v.3c-.2.3-.6.2-.9.2.6.2 1.2.2 1.7 0s0-.9.3-1.3c-.2 0 0-.2-.2-.2.2-.2.3-.4.5-.5.2 0 .4-.1.5-.2 0-.2-.3-.2-.2-.4.5-.3.8-.8.7-1.2-.1-.2-.7-.2-1.1-.4-.4-.2-.8 0-1.3.1-.4 0-.8.2-1.1.3-.5.2-1 .5-1.4.8.5-.2 1.1-.3 1.7-.5.3 0 .7-.2 1.1 0z" fill="#9d9d9c"/></svg>