<svg xmlns="http://www.w3.org/2000/svg" viewBox="0 0 28 29" style="fill:#2FBEFF"><path d="M17.6 25.07a5.43 5.43 0 0 1-7.73 0 6.9 6.9 0 0 0-3.93-1.94v1.51c1.04.2 2.05.7 2.86 1.5a6.93 6.93 0 0 0 4.93 2.05c1.86 0 3.61-.73 4.93-2.05a5.42 5.42 0 0 1 2.7-1.46v-1.53c-1.38.23-2.7.86-3.77 1.92"/><path d="M17.6 21.25a5.43 5.43 0 0 1-7.73 0 6.99 6.99 0 0 0-9.87 0l1.07 1.07a5.47 5.47 0 0 1 7.73 0 6.93 6.93 0 0 0 4.93 2.05c1.86 0 3.61-.73 4.93-2.05a5.47 5.47 0 0 1 7.73 0l1.07-1.07a6.99 6.99 0 0 0-9.87 0"/><path d="M13.78 8.46l-5.54 3-.02-5.88h1.95l7.2-.03h1.95l.01 5.87-5.55-2.96zm2.02-6.9L15.81 4l-4.09.01V1.57h4.08zm5.1 10.7l-.03-8.27h-3.5L17.36 0l-7.2.02v4h-3.5l.02 8.27-3.25 1.76 1.08 3.9a6.8 6.8 0 0 1 1.63.08l-.88-3.2L13 10.65l.02 10.04h1.56l-.03-10.04 7.77 4.14-.84 3.12a6.8 6.8 0 0 1 1.58.1L24.16 14l-3.27-1.74z"/></svg>
