<svg xmlns="http://www.w3.org/2000/svg" viewBox="0 0 48 48"><path fill="#ce2029" d="M24 7a30.4 30.4 0 0 1 20 7v20a30.1 30.1 0 0 1-20 7 30 30 0 0 1-20-7V14a30.5 30.5 0 0 1 20-7m0-4a34.6 34.6 0 0 0-22.6 8A3.5 3.5 0 0 0 0 14v20a3.7 3.7 0 0 0 1.4 3A34.2 34.2 0 0 0 24 45a34.3 34.3 0 0 0 22.6-8 3.7 3.7 0 0 0 1.4-3V14a3.5 3.5 0 0 0-1.4-3A34.6 34.6 0 0 0 24 3Z"/><path fill="#ce2029" d="M12.3 12.9a1.4 1.4 0 0 1 1.6 1.5 1.4 1.4 0 0 1-1.6 1.6 1.4 1.4 0 0 1-1.5-1.6 1.4 1.4 0 0 1 1.5-1.5Zm0 20.6a1.4 1.4 0 0 1-1.5-1.5V18.8a1.4 1.4 0 0 1 1.5-1.6 1.4 1.4 0 0 1 1.6 1.6V32a1.4 1.4 0 0 1-1.6 1.5ZM37 14.4v15.2a1.5 1.5 0 0 1-.6 1.2 14.3 14.3 0 0 1-9.4 3.3 14.3 14.3 0 0 1-9.4-3.3 1.5 1.5 0 0 1-.6-1.2v-8.4a1.5 1.5 0 0 1 .6-1.2 14.5 14.5 0 0 1 9.4-3.4 14.7 14.7 0 0 1 6.9 1.7v-3.9a1.4 1.4 0 0 1 1.5-1.5 1.4 1.4 0 0 1 1.6 1.5ZM27 31a11.6 11.6 0 0 0 6.9-2.2V22a11.8 11.8 0 0 0-6.9-2.2 11.5 11.5 0 0 0-6.9 2.2v6.9A11.3 11.3 0 0 0 27 31Z"/></svg>