<svg xmlns="http://www.w3.org/2000/svg" viewBox="0 0 99.1 86.6"><path fill="#f9f9f9" d="M49.5 6.7c-16.3-.3-32 5.1-44.6 15.2v43A68.6 68.6 0 0 0 49.5 80c16.3.3 32-5.1 44.5-15.3v-43A69.3 69.3 0 0 0 49.5 6.8z"/><path fill="#cc0717" d="M96 16.7A71.3 71.3 0 0 0 49.4 0 71.3 71.3 0 0 0 2.8 16.7 7.3 7.3 0 0 0 0 22.5v41.6a7.6 7.6 0 0 0 3 5.8 70.6 70.6 0 0 0 46.6 16.7 70.5 70.5 0 0 0 46.6-16.7 7.6 7.6 0 0 0 2.9-6V22.5a7.3 7.3 0 0 0-3-5.8zm-5.7 46.9A61.5 61.5 0 0 1 49.5 78 61.6 61.6 0 0 1 8.6 63.6V23A62.4 62.4 0 0 1 49.5 8.6 62.3 62.3 0 0 1 90.3 23zm-6-34.9a2.2 2.2 0 0 0 .8-3 2.3 2.3 0 0 0-3-.8L49.5 43.7 17 25a2.2 2.2 0 0 0-3 .8 2.2 2.2 0 0 0 .8 3L40 43.3 14.7 58a2.2 2.2 0 0 0-.8 3 2.2 2.2 0 0 0 3 .8l27.6-16 5 3 5-3 27.6 16a2.2 2.2 0 0 0 3-.9 2.2 2.2 0 0 0-.8-3L59 43.4z"/></svg>