<svg xmlns="http://www.w3.org/2000/svg" width="78.883" height="78.883"><path d="M38.247 70.879v-28.8c.82.08 1.6.12 2.42.12a20.27 20.27 0 0010.58-2.94v31.62c0 2.7-.49 4.7-1.71 6a6.16 6.16 0 01-4.77 2 6 6 0 01-4.69-2c-1.21-1.33-1.84-3.33-1.84-6zm-.12-69c8.12-2.96 17.4-2.8 24.35 3.23a11.79 11.79 0 013.36 4.5c.7 2.27-2.46-.23-2.89-.55a30.92 30.92 0 00-7.07-3.6c-13.68-4.19-26.63 3.44-34.63 15.3a64.11 64.11 0 00-7.39 16.85 9.59 9.59 0 01-.7 2.11c-.35.67-.16-1.8-.16-1.88a52 52 0 011.41-7.36c3.71-12.93 11.92-23.69 23.72-28.62zm10.59 32c-7.884 4.045-16.711-3.489-13.957-11.91 2.754-8.421 14.327-9.283 18.297-1.36 2.475 4.868.53 10.82-4.34 13.29z" fill="#2164f3" fill-rule="evenodd"/></svg>