<svg xmlns="http://www.w3.org/2000/svg" viewBox="142.08 0 32.44 32.44">
<polygon fill="#6e46cf" points="166.94,21.21 166.94,11.23 158.3,6.24 149.66,11.23 149.66,21.21 158.3,26.19 166.94,21.21"/>
<polygon fill="#67c0e7" points="144.25,24.33 158.3,32.44 158.3,26.19 149.66,21.21 149.66,11.23 144.25,8.11"/>
<polygon fill="#fff066" points="166.94,11.23 166.94,21.21 158.3,26.19 158.3,32.44 172.34,24.33 172.34,8.11 166.94,11.23"/>
<polygon fill="#f66688" points="158.3,0 144.25,8.11 149.66,11.23 158.3,6.24 166.94,11.23 172.34,8.11 158.3,0"/>
<polygon fill="#ffdf35" points="158.3,26.19 158.3,32.44 172.34,24.33 166.94,21.21 158.3,26.19"/>
<polygon fill="#03a9f4" points="149.66,11.23 144.25,8.11 144.25,24.33 149.66,21.21 149.66,11.23"/>
<polygon fill="#f73568" points="166.94,11.23 172.34,8.11 158.3,0 158.3,6.24 166.94,11.23"/>
</svg>