<svg xmlns="http://www.w3.org/2000/svg" width="40.199" height="40.199"><path d="M30.31 26.194c3.294 0 3.754-2.236 3.754-5.87 0-3.606-.46-5.841-3.754-5.841-3.327 0-3.786 2.235-3.786 5.84 0 3.635.459 5.87 3.786 5.87zm0-17.403c8.424 0 9.889 5.393 9.889 11.324 0 5.9-1.495 11.295-9.889 11.295-8.425 0-9.922-5.394-9.922-11.295 0-5.931 1.497-11.324 9.922-11.324zM8.799 22.619l.667-4.8h8.757V31.14h-5.558c-.973.18-2.102.268-3.416.268C1.831 31.409 0 26.789 0 20.114 0 12.456 2.504 8.79 10.317 8.79c2.808 0 5.31.714 7.021 1.788l-3.235 4.918c-1.038-.568-2.291-1.014-4.06-1.014-2.382 0-3.969.626-3.969 5.81 0 4.978.947 6.229 3.726 6.229 2.976 0 2.898-1.076 2.898-3.516v-.386z" fill="#e51075"/></svg>