<svg xmlns="http://www.w3.org/2000/svg" version="1.0" width="444.78" height="444.78" viewBox="0 0 4447.798 4447.798"><path d="M1888.835 2329.317c-205-7-220-11-284-77-92-95-77-255 31-326 61-40 99-48 227-48 102 0 126 3 153 20 87 53 83 198-7 245-25 13-57 15-165 13-114-3-132-1-122 11 26 30 76 41 195 41h119l7 38c3 21 15 47 26 57 20 18 27 37 13 33-5-1-91-4-193-7zm40-307c0-23-170-20-199 4-21 16-18 17 88 14 88-3 111-6 111-18zM8.835 2148.317v-180h150v360h-150zM228.835 2103.317v-225h164c160 0 165 1 217 28 39 20 62 41 84 77 29 47 30 52 33 197l3 148h-151v-138c0-132-1-140-23-160-20-19-35-22-100-22h-77v320h-150zM902.835 2304.317c-146-68-180-261-63-360 63-53 110-68 210-64l89 3v-85h150v210c0 230-5 259-55 298-25 20-39 22-154 22-111 0-132-3-177-24zm236-201v-95h-75c-122 0-167 38-145 121 16 57 40 69 137 69h83zM1338.835 2148.317v-180h150v360h-150zM37.835 1930.317c-28-14-35-23-37-54-3-33 1-40 30-58 39-25 81-20 115 12 29 27 29 59 1 85-34 30-69 35-109 15zM1393.835 1940.317c-11-2-30-13-42-25-41-37-25-88 33-107 76-25 145 45 102 103-15 20-64 35-93 29z"/><g fill="#ec2028"><path d="M2294.835 2863.317c-40-21-55-44-56-82 0-77 71-201 204-355 71-82 75-89 65-115-6-16-20-38-32-51l-21-22-30 29c-59 56-106 81-152 81-36 0-48-6-79-37-67-69-83-199-36-291 29-56 85-110 139-134 95-43 234-32 292 22 36 33 38 63 8 84-33 23-67 20-94-9-18-19-33-25-66-25-106 0-197 126-158 219 15 38 41 46 78 27 34-18 104-92 126-135 16-29 20-31 72-31h56l-6 38c-4 20-9 51-12 67-3 17 1 38 8 48 31 41 132-35 142-108 8-53 52-124 99-159 107-82 268-88 352-14 40 35 44 60 13 82-33 23-71 20-98-9-49-52-162-18-208 63-44 79-18 184 41 166 39-11 86-53 129-115l42-59h108l-8 32c-5 18-9 56-9 83v50l34-2c19-1 51-14 75-31l41-30-3-114c-4-157 29-268 110-369 67-83 188-114 259-66 87 59 27 211-173 438l-67 76 20 40c11 23 34 48 53 58 31 17 34 17 77-2 71-32 105-67 112-114 7-54 52-126 105-166 108-82 286-82 362-1 25 27 25 43 0 68-28 28-71 26-100-5-47-50-156-21-206 55-33 50-38 128-9 160 10 11 23 20 30 20 27 0 99-60 141-117l46-63h55c49 0 54 2 48 18-4 9-10 47-12 85-5 64-5 67 16 67 33 0 80-27 133-76 49-46 66-52 86-32 23 23 12 48-54 117-71 76-163 131-219 131-35 0-77-37-95-84l-10-28-44 40c-108 100-197 97-251-7-16-31-17-32-38-17-99 72-166 100-217 89-32-6-110-83-110-108 0-10-19 1-57 31-110 90-184 106-235 52-16-17-32-44-35-59l-5-28-44 43c-99 99-200 101-249 5l-16-29-49 39c-27 22-54 41-59 43s-5 27-1 60c16 117-18 265-85 363-72 106-187 153-269 110zm175-124c16-20 39-65 50-101 21-67 37-190 25-190-15 0-127 187-142 235-29 101 5 130 67 56zm1056-783c69-99 93-151 100-208 5-41 3-51-11-56-38-15-102 79-124 181-14 64-25 155-19 155 2 0 27-33 54-72z"/></g></svg>