<svg xmlns="http://www.w3.org/2000/svg" viewBox="0 0 219.8 147.2"><path d="m219.05 70.6-6.5-10.4-23.8-38.2-11.8-19c-.4-.6-.9-1.1-1.5-1.5-.6-.5-1.3-.8-2-1.1-.7-.2-1.3-.4-1.9-.4h-30.4c-2 0-4.4 1.4-5.4 3l-.3.5c.5-.8 1.2-1.6 2.4-1.6 1.6 0 2.5 1.3 3.1 2.3l11 17.8 30.3 48.6c1 1.7 1 4.4 0 6l-41.5 66.4c-.6 1-1.5 2.3-3.1 2.3-1.2 0-1.9-.8-2.4-1.6l.3.5c1 1.7 3.5 3 5.4 3h30.4c2 0 4.4-1.4 5.4-3l42.3-67.6c1-1.7 1-4.4 0-6z" fill="#f29dc3"/><path d="M135.25 143.6c.5.8 1.2 1.6 2.4 1.6 1.6 0 2.5-1.3 3.1-2.3l15.4-24.7L84.25 3c-1-1.7-3.5-3-5.4-3h-30.5c-1.5 0-3.2.8-4.4 1.8-.6.5-.9 1-1 1.2l-.3.5c.5-.8 1.2-1.6 2.4-1.6 1.3 0 2.1.8 2.7 1.6.2.2.3.5.4.7z" fill="#e73389"/><path d="M82.15 145.2c-1.6 0-2.5-1.3-3.1-2.3l-41.5-66.3c-1-1.7-1-4.4 0-6l26-41.7-15.4-24.7c-.1-.2-.3-.4-.4-.7-.6-.8-1.4-1.6-2.7-1.6-1.2 0-1.9.8-2.4 1.6L.75 70.6c-1 1.7-1 4.4 0 6l42.2 67.5c1 1.7 3.5 3 5.4 3h30.4c2 0 4.4-1.4 5.4-3l.3-.5c-.5.8-1.1 1.6-2.3 1.6z" fill="#af2769"/><path d="m109.85 103-18.4-29.4-27.9 44.7 15.4 24.7c.6 1 1.5 2.3 3.1 2.3 1.2 0 1.9-.8 2.4-1.6zM128.35 73.5l27.9-44.7-4.3-6.9-11.1-17.8c-.6-1-1.5-2.3-3.1-2.3-1.2 0-1.9.8-2.4 1.6l-25.4 40.7z" fill="#741642"/></svg>