<svg xmlns="http://www.w3.org/2000/svg" version="1.1" id="Layer_1" x="0" y="0" xml:space="preserve" width="43.403" height="43.403"><style id="style19770">.st1{fill:#f15c22}</style><g id="g19792"><path class="st1" d="M25.9 18.7v5.9c0 .7-.6 1.2-1.2 1.2h-5.9c-.7 0-1.2-.6-1.2-1.2v-5.9c0-.7.6-1.2 1.2-1.2h5.9c.7 0 1.2.5 1.2 1.2z" id="path19778"/><path class="st1" d="M31.9 11.5c-1.7-1.7-5.7-2.8-10.2-2.8-4.5 0-8.5 1.1-10.2 2.8-1.7 1.7-2.8 5.7-2.8 10.2 0 4.5 1.1 8.5 2.8 10.2 1.7 1.7 5.7 2.8 10.2 2.8 4.5 0 8.5-1.1 10.2-2.8.8-.8 1.5-2.3 2-4 .5-1.8.8-3.9.8-6.1-.1-4.6-1.1-8.6-2.8-10.3zm-4 16.4c-.4.4-1.4 1.4-6.3 1.4s-5.9-1.1-6.3-1.4c-.3-.4-1.3-1.4-1.3-6.3s1.1-5.9 1.4-6.3c.3-.4 1.4-1.4 6.3-1.4s5.9 1.1 6.3 1.4c.3.4 1.4 1.4 1.4 6.3s-1.1 5.9-1.5 6.3z" id="path19780"/><path class="st1" d="M25.9 18.7v5.9c0 .7-.6 1.2-1.2 1.2h-5.9c-.7 0-1.2-.6-1.2-1.2v-5.9c0-.7.6-1.2 1.2-1.2h5.9c.7 0 1.2.5 1.2 1.2z" id="path19782"/><path class="st1" d="M25.9 18.7v5.9c0 .7-.6 1.2-1.2 1.2h-5.9c-.7 0-1.2-.6-1.2-1.2v-5.9c0-.7.6-1.2 1.2-1.2h5.9c.7 0 1.2.5 1.2 1.2z" id="path19784"/><path class="st1" d="M25.9 18.7v5.9c0 .7-.6 1.2-1.2 1.2h-5.9c-.7 0-1.2-.6-1.2-1.2v-5.9c0-.7.6-1.2 1.2-1.2h5.9c.7 0 1.2.5 1.2 1.2z" id="path19786"/><path class="st1" d="M31.9 11.5c-1.7-1.7-5.7-2.8-10.2-2.8-4.5 0-8.5 1.1-10.2 2.8-1.7 1.7-2.8 5.7-2.8 10.2 0 4.5 1.1 8.5 2.8 10.2 1.7 1.7 5.7 2.8 10.2 2.8 4.5 0 8.5-1.1 10.2-2.8.8-.8 1.5-2.3 2-4 .5-1.8.8-3.9.8-6.1-.1-4.6-1.1-8.6-2.8-10.3zm-4 16.4c-.4.4-1.4 1.4-6.3 1.4s-5.9-1.1-6.3-1.4c-.3-.4-1.3-1.4-1.3-6.3s1.1-5.9 1.4-6.3c.3-.4 1.4-1.4 6.3-1.4s5.9 1.1 6.3 1.4c.3.4 1.4 1.4 1.4 6.3s-1.1 5.9-1.5 6.3z" id="path19788"/><path class="st1" d="M21.7 0C9.7 0 0 9.7 0 21.7c0 11.9 9.6 21.5 21.4 21.7 12.1.2 22.2-9.9 22-22C43.2 9.6 33.6 0 21.7 0zm12.4 34.2c-2.4 2.4-7 3.8-12.4 3.8s-10.1-1.4-12.4-3.8c-2.4-2.4-3.8-7-3.8-12.4s1.4-10 3.8-12.4c2.4-2.4 7-3.8 12.4-3.8s10 1.4 12.4 3.8c2.4 2.4 3.8 7 3.8 12.4s-1.4 10-3.8 12.4z" id="path19790"/></g></svg>