<svg xmlns="http://www.w3.org/2000/svg" viewBox="0 0 16 16"><path fill="#ff6200" d="M3.2 0h9.6C14.5 0 16 1.5 16 3.2v9.6c0 1.8-1.4 3.2-3.2 3.2H3.2A3.3 3.3 0 0 1 0 12.8V3.2C0 1.5 1.5 0 3.2 0z"/><path fill="#fff" d="M12.5.8c-.1.5-.2 1.1-.6 1.3l-.3.1v-.6l.2-.6-.8.2-.6.3-.3-.1c-.1-.2-.2-.2-.4-.3l-.4.9s-1-.6-1.3-1c-.9.1-.9.2-1.7.5l-1 1-.4.7.7.3.5-.7 1.6-1A10.5 10.5 0 0 0 9.8 3c.1-.2.3-.4.4-.9l.7.2.1.8c0 .1.1.1.4-.1l1-.3c.6-.2.8-.7 1.3-.7l1.1.3.6.1.5-.2-.2-.4-1.6-.9c-.4.3-.7.6-.9.6-.2 0-.1-.4-.1-.7h-.6zm.2 13l.3-.5.1-.9c-.6-.3-1.3-.4-1.9-.4-.6 0-1.3.1-2 .6l.3.8.2.1.5-.4v.3l.1.6c0 .2.2.2.5.2s.4-.5.4-.6c0 0 .1.3.5.5l.5-.1.1-.7c-.2 0 .2.2.4.5zm-5.7 0l-.4-.3c-.1 0-.3.3-.3.6l.1.8.3.2.6.3-.3-1c0-.1.2-.4 0-.6zm-3.3-2.6l.8-.9c.1-.1.4-.5 1.1-.8l.1-.8c-.7.2-1.2.3-1.3.5l-.8.5.1.6v.9zm5.1 3.9l-.1-.5c-.1-.1-.1-.3-.4-.4l-.3-.1-.1.6c.1.2.3.3.3.6.1.2.1.5.3.7.1-.3.3-.4.3-.9zm-2.9.6l-.3-.5-1.3.4.2.3h1.2l.2-.2zm-1.5-.4s.2-.1.2-.3l.8-.8-.4-.6-.5.4-.3.2.1.3.1.8zm-.6-3.8v.3l.1 1.1.1.6.1.5.2-.2.4-.7-.2-1 .1-1-.8.4zm6.5 4.2l-.3-.2-.5-.1c-.3 0-.1.3-.1.5h.9v-.2zm4.8-1.4l-.3-.1.2.7.4-.5v-.1h-.3zm-.8.6a2 2 0 0 0-.6-.2c-.1.2-.1.6 0 .8l.1.3.7-.3c-.1-.2.1-.6-.2-.6zm-2.5.3c-.3.1-.8.1-.8.3v.4h.9l-.1-.7zm1.3.7v-1l-.4.1-.3.3.1.5h.4c0 .2.1.2.2.1z"/><path fill="#fff" d="M5.8 12.4l.1.5 2.4-1.2c.3-.1.3 0 .4 0l.3.3.6-.3 1.2-.3.1-.3.1-.3c0-.1-.3-.1-.4-.4l-.1-.4c-.2.1-.5.3-.6 0 .1-.3.1-.6.3-.6.7-.3 1.5-.3 2.2 0 .1 0 .2.1.2.3.1.1 0 .3-.1.4-.2.1-.4-.2-.4 0s-.1.5-.5.6c-.1.1 0 .3.1.5l.1.2c.3.1.7.1.9.3l.8.5.4-.5c.7.3 1.3.5 2.2 1.1v-.5l-1.2-.6-.7-.3v-.6l1.9.5v-.5c-.8-.3-1.4-.5-2-.5 0-.1-.1-.1 0-.2l.3-.3.4-.8c.2-.4.4-.3.6-1.2l-.5.2.1-.6.2-1.2c.2-.1.6-.3.6-.6l.1-.6c0-.4.1-.8-.1-1 0-.1-.5-.8-.8-1-.5-.2-.7-.1-1-.1-.4 0-1 .4-1 1.2-.4 0-1.3.1-1.7.5l-1.1-.3h-.7c-.1-.2-.2-.5-.5-.7-.4-.2-.8-.5-1.3-.5-.2 0-.4-.1-.6.1-.2.1-.6.2-.6.5-.1.3-.3.6-.3 1s.2.6.4 1l.3.2.4.2c.1.1-.1.3-.1.7l.1.6.1.8c-.2 0-.3-.2-.4-.1l.3.8.9 1.1.1.2-1.5.2c-.4.1-.9.3-1.3.6l.1.5 1.3-.5c.9-.3 1.4-.2 1.4-.2l.1.4a9 9 0 0 0-2.6 1.2zm7.7-1.3c-.3-.1-.5-.3-.8-.3l.1-.3c.4-.1.6.1.8.1l-.1.5zm.8-4.3l-.3.3-.1.2c-.1.2-.3.3-.6.3-.1 0-.4 0-.6-.3l.1 1 .1.1c.3.1.3.3.5.5l.1.1c.3.2.9.5.6.5l-.3.5-.8-.5-.2-.4-.4-.3-.1-1-.1-.8c0-.1.2-.3.4-.3l2 .1c-.2-.2-.2 0-.3 0zm-.4-2.9c.2-.2.5-.3.8-.2l.6.3c.2.3.1.8.1 1.2-.1.2-.3.3-.5.3-.4-.4-.7-.7-1.2-.8-.2-.4 0-.6.2-.8zm-1.4 1.3c.1 0 1.3.3.6.6-.1.2-.5.1-.8.1l-.1-.4c-.1-.1-.4-.1-.4-.3-.3-.2.4 0 .7 0zm-3.2 5.7l-.4.2-.1-.4.5-.1.4.1-.4.2zm.4-5.4l.6-.3c.1-.1.4-.1.4 0 0 .3-.2.4-.4.7-.2.3-.3.1-.6.1h-.4c0-.2.2-.3.4-.5zm-2.1.1L7 5c-.2-.3-.1-.6-.1-.7.1-.4.6-.5.9-.6l.5.1c.3.2.4.2.6.7l-.1.1-.6.4c-.3.2-.4.6-.6.6zm.4 1l1-.1h.9l.3.3-.1.6-.1 1.3v.2l-.5.3c0 .2 0 .4-.2.4-.2.1-.4.3-.5.2-.2-.1-.1-.5 0-.7.1-.2.4-.3.6-.4.3 0 .2-.6.2-.7v-.5l-.4.1c-.3 0-.4-.1-.6-.3L8 6.6zm-3.8.7l.3-.3.8-.6.3-.2.1-.3-.1-.4a2 2 0 0 1-.2-.6l.1-1.2c-.3-.1-.6-.1-.8.2l-.1.6.1 1-.7.6.2 1.2zm0 1.6l.4-.3.9-.7.3-.2.1-.6c-.1-.1-.6 0-.8 0l-1 .4-.1.7.2.7z"/></svg>