<svg xmlns="http://www.w3.org/2000/svg" width="63.9" height="63.9"><path d="M12.088 14.01l-3.083 7.024.624 13.765.721 4.067-2.8 7.275-3.784.286-2.738 2.048-.023 4.036c15.752.053 31.505.037 47.257.035l3.397-5.553-4.388-16.515-4.44-1.06-1.05 2.284-3.038.901-6.128-2.062-6.245-16.474zm33.178 4.259l1.828-.86 4.672 1.235.562 2.828z" fill="#fff"/><path class="logo-link__leo" d="M16.5 26.55c-.2-.5-.8 0-1.4-.2 0 .2 0 .4.4.6.3-.3.9-.4 1-.4zm.9-6c0-.2-.2-.4-.6-.6h-2.7c0 .4.3.6.7.6 0 .5.3.6.4.7.4.2.5.2.8 0 .4.2.5-.2.6 0l-.1 1.5c-.1.8-.8.7-1.4 1 0 .4-.3 1 0 1.3l1.2-.6c0-.3.3-.6.7-.9 0-1 .4-2 .4-3zm5 6.5v-.5h-1l-.2.1 1.3.4zm-6.6-10.3c-.1-1.1-1.4-1.2-2-1.7h-.4c-.9.4-1 1.3-1.2 2 .3 1 1 .4 1.4 1zm2.5 1.2c-.2-.2-1 .1-1.3.3-.4 0-.7.4-.7.7h1.2c.1-.3.6-.7.8-1zm5.6 2.4s.2 0 0-.1l-2.4-.3c-.3.3-.8.3-.8.6h-.3c.3 1 .3 1.9.3 3 .4 0 .9.3.9 1 .4.2.9.3 1.3.6.2 0 .3-.4.4-.8-.4-.5-1.4-.2-1.4-1.2l-.7-.2v-1.9l.4.4c.4 0 .9.1 1.3-.2.2-.1.2-.7.4-.7s.5 0 .6-.2zm-1.9-1.4c0-.3 0-.3-.2-.3-.5 0-.5-.9-1-.7-.2 0-.5-.2-.8 0l.2.1c.6 0 .4.8.8 1h1zm4-.6c.2-.6.2-1.6-.2-2.1-.2-.5-.8-.7-1.4-1.2l-.8.5c-.4.2-.6.7-.6 1.2.7.3 1.5 1.2 1.9 2h.3c.4-.4.6 0 .8-.4zM2.8 49.55c-.1 0-.5-.3-.8-.3-.3.7 0 1.1 0 2l-.1.6c-.2 0-.6-.4-.7-.9v-1.8l.9-1.2c.7.4.9 1 .7 1.6zm2.9-1.2c0 .4-.1.9-.4 1.2 0-.4-.4-1-1-1-.4 1-.5 1.3 0 2.6l-1 .7c-.3-.4-.3-1.2-.3-1.7 0-.8.1-1.6.3-2.2.4-.4.6-1 1-1.2h1.2c-.6 0-.6.5-.6.8.3.1.8.2.8.8zm4 .7c0 .9-1.5 2.1-1.5 2.1 0-.5.3-1.2.3-1.9 0 0-.4-.5-.9-.5-.3.3-.3.5-.4.8-.4.7-1 1.4-1.2 2 0-1.2 0-3.1.7-3.9.6-.6 1-.6 1.7-.8l.6.2-.5.6c.5.3 1.1.7 1.1 1.4zm3-1.1l-.3 1-.7-2c-1-.8-2-.9-2.5-1.3-.5-.1-.5.2-.7 0 0-.2 0-.6.4-1h.6l.7.4c.4.4 1.1.4 1.1 1 0 .1 0 .3.3.7l1 .3zm1.7-1.6l-.8.7c-.2-.3 0-.9-.3-1.2 0-.2.2-.3.1-.4-.1-.3-1.4-.7-1.4-.7-.4-.4-1-.7-1.4-1.2-.5 0-.8.1-1.4.3v-.3c.2-.4.2-1 .9-1 .3 0 .8 0 1 .4.5 0 .7.4 1 .5.5.6 1 .8 1.3 1 0 .4.1.6.3.7.7 0 .5.7.7 1.2zm.6-3.6l-.1 1.7c-.2-.8-.8-1.5-1.5-1.5-.3-.4-.7-.7-.8-1-.3-.4-.6 0-1-.4-.5 0-1 0-1.5.3v-.3l.8-1c.8.2 1.7 0 2 .7.5.3 1 .6 1.2.9v.3zm-.6-5.7l-.4 1.7c-.6.4-1.4.2-2 .2.8-.2 1.5-1.2 2-1.9zm-1.6-1.3c0 .4-.2 1-.7 1.5 0 .2-.4.4-.4.4 0-.7.3-1.3.3-1.8.3-.1.6-.4.8-.1zm-1.2-1.7c-.6.5-1.2.8-1.4 1.4a2.2 2.2 0 00-.2-.9c.1-.4.4-.7.6-.8zm8.2 8.5c-.5.4-.8.4-1.4.2l-.7-.9h1.7zm-2.3-5.1c-.4.6-.7 1.3-1.4 1.5-.3 0-.9.2-1.6 0l1.2-.6.9-1h.9zm10.3 11.8l-.3.3c-.4-.3-.1-1.2-.7-1.3-.6 0-1-.6-1.2-.7l.4-.2s.2-.1.5 0c.2.2.4.3.4.6.2.3.6 0 .8.3.1.3.2.8.1 1zm-8.3-11c0 .7-.4 1-1 1.7-.3.2-1 .3-1.7.7.1-.4.5-.5.7-.8l.8-1.2c.5-.3.8-.3 1.2-.3zm-5.5-3.9c-.7-.2-1.5-1-1.8-1.4a3.7 3.7 0 01-.3-1.4c.4 0 .7.4.8.6v.1c.6.7 1.2 1.2 1.3 2.1zm8.7 8.1h-.2c-.1 0-1-.3-1.1-.6l-.2-.6h1zm9 5.2l-.5 1.4c-.2-.7-.5-1.7-1.3-1.7 0-.5-.2-.6-.6-1h-.9c.1.4.7.4.3 1 .4.3.8.3 1 .9.2.3 0 .8.1 1l-.7.3c0-.5.2-1.6-.6-1.9-.7.3-.8-.6-1.2-.9-.3 0-.3-.6-.6-.3-.6.3-1.2 0-1.8.3l.6-.9c.4-.3.9-.2 1.3-.3l1-.1c.8 0 1.6.4 2.5.7.4.3.7.6.7 1 .2.2.6.2.6.5zm-16.2-15l-.4 1.4c-.3-.7-.7-1.3-.8-2.1l1.2.6zm2.1 3.2c-.7-.7-1.2-1.3-1.2-2 .3 0 .6 0 1 .3zm13 9.6c-.5-.4-1.2-.4-1.5-1h-2.7c-.2 0 0 0-.3-.2-.6.2-1.3.2-2 1l.6-1.4c.4 0 .8-.3 1-.3h1.1c1.3 0 2.7 0 3.6 1l.1.9zm-6.8-6.5c-.3.2-.9.4-1.3.4-.7-.5-1.1-1.1-1.8-2l1.8.3zm-3.8-5c0 .9-.1 1.9-1 2.2l-.1-1.1 1.1-1zm10.3 9.2c-.6 0-1 0-1.4-.6 0 0-.3-.3-.4-.1-.5.5-1.1-.3-1.8-.2-.3.3-.7.5-1.2.7v-.2c0-.3.2-.6.6-.9.7.3 1.3-1.2 2-.4l.8.1c.8.3 1 1 1.4 1.6zm2.6 4.2h-.1c-.2-.3-.4-.6-.6-.6.4-1.2-.3-2.3-.6-3.3v-.3c.4.5 1.3 1.1 1.2 1.7v2.5zm-10.4-11.5c-.6-.4-1.6-.5-1.4-1.2.3-.5.6-.6.8-.9.1.8.2 1.4.6 2zm-11.6-14.6l-.6.7c.2 1-.3 1.9-.3 2.9l-.6-1.8.6-1.5 1-.3zm16.8 17h-.3c-1.3.5-2.3-.3-3.3-1a6 6 0 012-.3l.4.7c.3.1.9.4 1.2.7zm-5.8-9c-.1.6-.3 1.6-1 2.1 0-.5-.2-.7-.5-1v.3c0 .2-.3.7-.3 1.2-.2 0-.7.3-1.1 0v-.3l-.1-.9h-.2c-.3 0-.3.2-.3.5-.1.2-.3.4-.3.8-.5 0-.7-.1-1-.4v-1c0-.2 0-.2-.2-.2l-.5.5c-.5-.3-.6-1.2-.6-1.8 1.8-1 4-.6 5.4 0l.7.1zm3.2 6.1c-.4.1-1.2.4-1.5-.2-.6-1-.3-2 0-2.7.3.7.4 1.3.5 1.9.1.5.8.7 1 1zm-14.4-15.7l-.8.3.1-.6c.2-.4.3-.7.7-1zm19 17.4c-.6 0-1.3 0-1.7-.3-.7-.4-1-.6-1.3-1 .5-.3 1-.3 1.3-.4.4.5.8 1.3 1.6 1.7zm-3.2-3.2c-.6.2-1-.4-1.6-.6-.2-.7-.2-1.3-.5-1.7.5.4 1.5.4 1.3 1.4 0 .3.4.5.8 1zm9.2 8c0 .7-.4 1.3-.5 2 0-.7-.1-1.3-.6-1.7 0-.3.3-.3.1-.6 0 0-.6-.3-.6-.8s.4-.8.6-1.1c0-.1.5.2.5.9l-.1.7c-.2.3.6.3.6.6zm2.6 1.3c0 .5-.6 1.2-.9 1.7.3-.6.3-1.7 0-1.7-.2-.1-.6 0-.6-.2v-1c0-.5-.3-.7-.3-1 0-.7.8-.8 1-1.2.2.4.2.9.2 1.5 0 .2.3.9 0 1.4 0 .4.6.1.6.5zm-9.2-10.6c-.6 0-1.4.4-1.7-.3l.7-.7zm3.2 2.6l-.5.2c-1.3 0-1.9-.3-2.4-.8.4 0 1-.5 1-.5.6.5 1.4 1 2 1.1zm-4.6-7c-1.3-.8-2.8-1.4-4.5-1.5v.8c1.2.6 2.5 1.2 3.6 2.2v1a8.9 8.9 0 00-3.8-2.6c0 .2-.5.5-.6 1a6 6 0 00-2.6-1.3c-.4 0-.6-1.2-.6-1.2.6-.2 1-.6 1.1-1.2h.5c.3 0 .3-.2.3-.5 0-.7-1.4-.7-2.1-.7-.8 0-1.4 0-1.8.3-.3 0-.2.4-.2.6l.4.3.7-.2c-.1.7 0 1 .8 1.4l-.2 1c-1.3 0-2.2.6-3.2 1-.4-.1-.6-.5-.8-.8-1.4.4-3.7 2.2-3.7 2.2v-.8c1-.9 2.3-1.3 3.3-1.8v-.8c-.4-.2-.9 0-1.3 0a5.5 5.5 0 00-2.7 1v-.7a6.9 6.9 0 014.1-1v-.5c0-.2 0-.5-.3-.5-.7-.7-1.4-1.7-1.4-2.4l.5-.2c-.2-.7-.5-2.3 0-3-.7-.3-1.3-.8-1.5-1.3-.2-.5-.5-.9-.6-1.5l1-1.6c.1 0 .4-.1.5-.3.6-.1 1-.7 1.6-.4.5 0 1 .3 1.3.4 0 .2 0 .3.2.5.7 0 .7.7 1 1.3h1c.6.3 1.2.3 1.4.6.9-.5 1.8-.6 2.8-.5.1-.4.4-.8.5-1.4 0 .4 0 0 .3 0 .4-.3 1-.9 1.7-.6.5.3 1.3 0 1.7.6l1 1.7c-.4.7 0 1.6-.7 2l-.7.6c-.2 0-.2.2-.6.2.4.8.1 2-.2 2.7.2-.1.6-.1.6-.4v.7c0 .6-.4 1.1-.8 1.6-.3.7-.8 1.6-1.6 1.7v.2c1.7 0 3 .5 4.6 1.3v.7zm8.7 10.8c0 .2-.3.4-.4.4 0 0-.6-.5-.7-1-.1-.5.3-1.3.3-1.3l.4.2v.8c.4.3.6.7.4.9zm9.1 7.8l-.2.3a3 3 0 00-1.5-.4c0-.5-.3-1-.6-1-.7 0-.5.4-1.1.4l1-1c.1-.2.1-.2.4-.2.3.2.4.3.7.3v.7c.3.2.5-.1.7.2.3.1.6.3.6.7zM35 36.55c0 .3-.2.4-.4.6 0 0-.4-.5-.4-.8l.1-1c.3.4.7.8.7 1.2zm4.5 3.3l-.1 2.3c-.4 0-.4-.3-.4-.7-.1-.7-.3-1.3-.6-2-.2-.8-.7-1.6-1.2-2.6-.1-.5-.7-.7-1.1-1 .5 0 1.1 0 1.6.4 0 .3 0 .4.4.7.8 0 .6 1 1.3 1.5l-.7.7c.3.2.7.4.8.7zm-5.8-6.4c-.4.3-1.3.4-2-.1l1-.4c.3.3.7.4 1 .5zm-2.5-2.6c-.1.5-.6 0-.7 0h-1c-.1-.2-.3-.3-.3-.5.5-.1.8-.4 1.2-.1.2.3.4.6.8.6zm9.9 8.9c0 .4-.3.8-.2 1.2-.2-.7-.6-1.3-.9-2l.2-.2h.5c.1.3.4.6.4 1zm5.6 4.6l-.2 1.2c-.8-.1-.8-1-.9-1.2-.5-.7-1.3 0-1.8 0-.2-.8 0-.8 0-1.2.4 0 .8-.2 1 0 .6-.2 1 .3 1.5.3l.4 1zm2.3 3.2l-.3.7c0-.6-.7-1-1.2-1.8l.5-.8c.3.2.8.5.8 1.1v.5s.2 0 .2.3zm-18.6-19.1c-.7 0-1-.4-1.4-1v-1.4c.2.5.2.7.5 1 .4-.3.4.3.5.4.2.3.4.6.4 1zm9.6 8.3c-1-.6-1.6-1.6-2.5-2.6 1 0 1.2.9 1.9 1 .2.2.4.3.6.7zm7 6.4c-.7 0-.3-1.6-1.9-1.6-.3 0-.5.6-1 .7l.1-.8c0-.2.1-.7.6-1 .8 0 .6.4 1.3.6.3.2.5.4 1 .4v1.7zm2.8 1.5c0 .6 0 .9-.3 1.4l-.7-1 .5-1.4c.2 0 .5.8.5 1zM28 23.05l-.2 1.1-.9.2.6-2.4.5 1zm19.7 17.6c-.4-.1-1.2-.2-1.2-.6 0-.4-.2-.5-.8-.5-.4 0-.7 0-1.4.3l-.4-.9 1.5-.3c.8 0 1.6 0 1.6.3 0 .4.7.6.7 1.7zm1-2.4c-.8 0-1.6-.3-1.7-.6-.3-.2 0-.7-.6-.7l-.6.3c-.2.2-.8-.3-.8 0 0 .6-.4.8-1 .8h-.7v-1.2c1.5 0 1.4-.5 2-.5.4 0 .8.3 1.1.3.6 0 .2-.3.8-.3.6 0 .8.5 1.1.6 0 .3.4.8.4 1.3zm-.4-2.5c-.9-.6-2.2-1-3-1a5 5 0 00-2.2 1l-.2-1c.7 0 .7-.6 1.1-.6l1.1-.1c.3 0 .5-.3.6-.3.6 0 .4.6.7.6l.8-.2c.6 0 1 .9 1.1 1.6zm-2.6-2.5l-1.1-.1c-.6 0-1.3.2-1.6.7-.2-.4-.1-.6 0-1 .3-.3.9-.7 1.3-.7.8 0 1.4.6 1.4 1zm.1-1.7c-.7-.2-1.1-.5-1.8-.5-.2 0-1.2.3-1.4.5-.3-.4.3-1.3.7-1.6.5-.2.7 0 1 0 0 .7.7.4 1.1.6zm2.8-12.9h-1.3c-.2-.3-.6 0-.8 0-.2 0-.3 0-.8-.3.7 0 1-.4 1.6-.6.5.3 1 .5 1.3 1zm3.4 2.4c-.3-.5-.7-.7-1-.7-.4-.4-.9-1-1.3-1 .3 0 .8-.4 1.3-.4.3.6.7 1 .8 1.4zm-29.7 28.3c-.2 0 0 .3-1-.9-.3 0-.6.7-.6 1 0 .8.2 2 .5 3h1v-3zm2.4.1c0-.4-.4-.5-.8-.5-.3 0-.8.3-.8.5l-.2 3h.7c.4-1 1-2.4 1-3zm14.8-1.3h-1.2c.5.3.5.9.5 1 0 .3-.2.7-.5 1l-.4-1c-.2 0-.3.6-.3.8 0 1 .4 1.8.7 2.5h1c0-1-.3-1.7-.3-2.7 0-.6.4-1.3.5-1.6zm24.3-10.3c0-4.9-2-9.9-5.6-13.5-1.6-1.5-3.3-2.3-4.7-3.9a8.3 8.3 0 01-1.5-2.1c-.6-.6-1-1-1.6-1.3 0 .4.2.7.3 1h-.1c-.6 0-1.1-.3-1.6-.6l.5-.5c-.2-.2-.5-.2-.7-.2-1.8-.3-3.5.7-5.2 1v.2c1 .4 1.3 1.7 2 2.4h.6l.8.2-.3-.6c.3-.3.5-.3.7 0 .6.3 1.4-.3 2 .6-.7 0-1.4 0-2 .4 0 0 .4.3.3.5-.6-.2-1.3 0-1.5-.4h-.1c.6.9 1.7 1.5 2.7 1.9 1.5.2 2.7-.5 4.1-.2 5.2 2.5 8.8 8.4 8.8 14.2 0 8.3-4.8 11.6-7.7 11.6-.6 0-1.5-.3-1.8-.6a19.5 19.5 0 00-4-17.2c-1.2-1.3-2.6-2.3-4-2.3-.6 0-1.3 0-1.8.5-.6.5-.9 1.4-.8 2-.9.6-2.4 1-3.5 1-1.2 0-2.8-.5-4.2-1.6v-1.7c-.3-.1-1.5-.8-1-1.3.4 0 .7.3.8.4-.1-.8-.1-1.7-.7-2.4-.2 0-.6 0-1-.2-.3-.3-.6-.8-.6-1.3.3.5 1 .3 1.2.6-.5-1.3-.3-1.9-1.3-3.9-.2-1-1.3-1.6-2-2.2-.3-.3-.4-.6-.8-.6-.5-.1-.5-.7-.5-1l.7.3c-.7-1.5-1.1-3.2-2.6-4.1l-.3.2H24l1-.6c-.4-.3-.6-.4-1.3-.4-.3.1-.7.4-1.1.4h-.1c0-.3-.1-.8.5-1h-2c-.1.6-.5 1-.5 1.4-.3.2-.4.6-.7.9 0-.7.3-1.4.4-2-.4 0-1 .4-1.2.4-1-.5-2-.9-2.5-.9.6.4.3 1.2.4 1.8l-.4-.2c-.1-.5-.7-.8-.8-1.4a3 3 0 00-1.7.6v.1c.3 0 .8.3 1 .7-.8 0-1.4-.4-2.2-.4-.4 0-.7.4-.9.6-.8.7-1.3 1.3-1.7 2.3h.7c-.5.2-.7.8-1.1.9v1.6c-.4.4-.8.7-1 1.4-.6 1.8-.7 3.8-.7 6-.2.5-.4.6-.6.7v1.8l1-.9v1.5c-.4 0-.8.5-.8.9l.1 1.3.1.5c0-.3.3-.5.6-.6 0 0 .2-.2.7-.2-.3.3-.5.8-.7 1.2l-.3.4-.1.3c.4 2.3 1 4.4 2 6.6-1 1.4-2 4.3-2.6 7-.6-.6-1.4-.7-2-.7-.7.1-1.4.4-1.8 1-.7-.3-1.6-.2-2 .3-1 .8-1 1.2-1 1.9-.2.2-.7.8-.7 1.6 0 1 .1 1.7.7 2.6h17a3 3 0 00-.6-1c-.3-.7 0-1.6 0-2.3l1-2 .2-.4h.8c.4 0 .8-.4 1.3-.4.4.4.4-.4 1-.6 1.2-.2 2.3 0 3 1l.1.2H24c-.7-.3-1.4-.6-2.2-.3l-.1.6v.6c.4 0 .8.4 1.2.6.2-.3.8-.6 1.3-.6.6 0 1.4.3 1.4 1.2v1.2c.4.5 1 .6 1.5.8-.2.5-.5.5-.9.5h-.9c0-.1-.3-.1-.3-.5l-.8 1.4h13.1l-.6-1c-.2-.7-.2-1.6-.2-2.3l1.3-1.7 2.5-.3c.2-.4 0-.5 1-.5.8 0 1.3.1 1.6.3v.4c-.3.2-.7-.2-1-.1-.3.2 0 .3 0 .6.3.2-1-.3-1-.3l-.3 1 .7.6c.2.3-.4.7-.4 1l-.6-.3c-.3.9 0 1.7-.1 2.6h1.2l.1-2c.1-1 1.5-3 2.3-3 .4 0 .8.1 1 .4.3.4.8.6.8.8 0 .3-.3.4-.8.4-.2 0-.2-.4-.6-.6l-.6.7s.7.7.7 1.1c0 .6 0 .8-.4 1.2l-.7-1.4c-.3 0-.9.7-.9 1l-.2 1.4h7c.7 0 1.4-.2 2.2-.7h1.3c2.8 0 5-.8 7-2.8 2.8-2.6 4.3-7 4.3-11zm-43.5 14.6c-.5-1-.6-2.6-.6-3 0-.5 0-1.3.3-1.9l-1.3.3-.4.8.6-.2.3.5c-.1.5-.8.5-1 .8-.4 1.1.7 1.8.8 2.7z" fill="#ff6200"/></svg>