<svg xmlns="http://www.w3.org/2000/svg" xmlns:xlink="http://www.w3.org/1999/xlink" width="1458" height="376" fill="none" style="cursor: default;"><g clip-path="url(#E)"><path fill-rule="evenodd" d="M551.203 22.2h-22.705v122.312h22.705V22.2zm83.65 39.49l67.411 82.822h18.689V22.2h-22.53v82.822L631.012 22.2h-18.689v122.312h22.53V61.69zm213.933 18.959c-5.823-2.27-13.271-4.456-22.356-6.551-6.635-1.631-11.874-3.083-15.715-4.371s-7.015-3.028-9.519-5.244-3.757-5.069-3.757-8.562c0-5.009 2.185-9.026 6.551-12.054s11.03-4.545 19.995-4.545c5.473 0 11.116.818 16.938 2.445s11.41 4.016 16.763 7.165l7.159-17.647c-5.238-3.492-11.47-6.172-18.689-8.038s-14.553-2.794-22.006-2.794c-10.711 0-19.766 1.631-27.155 4.894s-12.922 7.659-16.588 13.192-5.503 11.68-5.503 18.435c0 8.038 2.065 14.414 6.201 19.134s9.08 8.187 14.842 10.398 13.301 4.43 22.615 6.641c6.636 1.631 11.874 3.088 15.716 4.371s7.014 3.058 9.519 5.329 3.756 5.153 3.756 8.651c0 4.78-2.245 8.621-6.725 11.53s-11.265 4.371-20.345 4.371c-7.334 0-14.643-1.252-21.917-3.757s-13.42-5.738-18.424-9.699l-7.857 17.647c5.123 4.43 12.078 7.978 20.868 10.657s17.901 4.021 27.33 4.021c10.711 0 19.791-1.631 27.245-4.894 7.448-3.258 13.011-7.629 16.678-13.107 3.667-5.473 5.503-11.59 5.503-18.346 0-7.918-2.071-14.209-6.201-18.869-4.136-4.66-9.11-8.123-14.932-10.398l.01-.005zm90.46 63.863h22.705V41.419h40.519V22.2H898.73v19.219h40.516v103.089.005zM1074.42 22.2l-55.02 122.312h23.41l42.61-99.596 42.78 99.596h23.76L1096.77 22.2h-22.36.01zm209.04 82.822L1216.05 22.2h-18.69v122.312h22.53V61.69l67.41 82.822h18.69V22.2h-22.53v82.822zm108.97 39.49h22.71V41.419h40.52V22.2h-103.74v19.219h40.51v103.089.005zM569.712 255.464c6.695-3.607 14.348-5.419 22.964-5.419 13.156 0 24.391 4.66 33.706 13.98l14.318-13.98c-5.707-6.521-12.747-11.47-21.133-14.853-8.382-3.377-17.701-5.069-27.943-5.069-12.573 0-23.898 2.709-33.965 8.123-10.073 5.418-17.961 12.902-23.663 22.452-5.708 9.554-8.556 20.326-8.556 32.325s2.853 22.776 8.556 32.326 13.56 17.038 23.578 22.451c10.013 5.419 21.248 8.123 33.705 8.123 8.846 0 17.467-1.342 25.848-4.016 8.382-2.68 15.715-6.521 22.007-11.531v-48.75h-21.483v38.093c-7.219 4.196-15.6 6.292-25.149 6.292-8.502 0-16.095-1.861-22.79-5.593s-11.934-8.851-15.715-15.377c-3.787-6.521-5.678-13.86-5.678-22.018s1.891-15.841 5.678-22.367c3.781-6.521 9.02-11.59 15.715-15.202v.01zm173.327-23.59l-55.013 122.313h23.403l42.611-99.596 42.785 99.596h23.753L765.39 231.874h-22.356.005zm248.337 0l-47.675 27.761-48.548-27.761h-18.689v122.313h21.658l.124-95.45 45.39 25.864 44.866-25.864.254 95.45h21.484l-.18-122.313h-18.684zm85.044 122.313h22.71V231.874h-22.71v122.313zm180.4-39.49l-67.41-82.823h-18.69v122.313h22.53v-82.822l67.42 82.822h18.68V231.874h-22.53v82.823zm178.14 15.027c-7.22 4.196-15.6 6.292-25.15 6.292-8.5 0-16.1-1.861-22.79-5.593-6.7-3.727-11.94-8.851-15.72-15.377-3.79-6.521-5.68-13.86-5.68-22.018s1.89-15.841 5.68-22.367c3.78-6.521 9.02-11.59 15.72-15.202 6.69-3.607 14.35-5.419 22.96-5.419 13.16 0 24.39 4.66 33.71 13.98l14.31-13.98c-5.7-6.521-12.74-11.47-21.13-14.853-8.38-3.377-17.7-5.069-27.94-5.069-12.57 0-23.9 2.709-33.97 8.123s-17.96 12.902-23.66 22.452c-5.71 9.554-8.56 20.326-8.56 32.325s2.86 22.776 8.56 32.326 13.56 17.038 23.58 22.451c10.01 5.419 21.25 8.123 33.7 8.123 8.85 0 17.47-1.342 25.85-4.016 8.38-2.68 15.72-6.521 22.01-11.531v-48.75h-21.48v38.093.01z" fill="#fff"/><path d="M18.404 57.827c-6.354 0-12.533-3.294-15.938-9.188C-2.61 39.853.403 28.618 9.195 23.545L45.961 2.334C54.754-2.739 65.997.272 71.073 9.058s2.064 20.021-6.729 25.094L27.579 55.363a18.31 18.31 0 0 1-9.175 2.464z" fill="url(#A)"/><use xlink:href="#F" fill="url(#B)"/><use xlink:href="#F" fill="url(#C)"/><path d="M294.137 177.33L36.769 325.812v-63.635l11.642-6.72-20.835-30.386-18.382 10.592c-5.688 3.281-9.192 9.345-9.192 15.908V357.63a18.37 18.37 0 0 0 9.192 15.909A18.38 18.38 0 0 0 18.386 376a18.39 18.39 0 0 0 9.192-2.461l312.519-180.3c5.688-3.281 9.192-9.346 9.192-15.909s-3.504-12.627-9.192-15.908l-91.605-52.85a17.54 17.54 0 0 0-.594-.342l-91.635-52.867c-5.688-3.281-12.695-3.281-18.383 0L9.195 129.604c-8.793 5.073-11.805 16.307-6.729 25.094 3.405 5.893 9.584 9.188 15.938 9.188a18.32 18.32 0 0 0 9.174-2.464L147.07 92.484l147.067 84.847z" fill="url(#D)"/></g><defs><linearGradient id="A" x1="10.066" y1="83.92" x2="68.113" y2="-.13" gradientUnits="userSpaceOnUse"><stop offset=".26" stop-color="#ff670d"/><stop offset="1" stop-color="#ff5317"/></linearGradient><linearGradient id="B" x1="51.719" y1="214.43" x2="127.497" y2="82.364" gradientUnits="userSpaceOnUse"><stop stop-color="#ff7207"/><stop offset="1" stop-color="#ff7208" stop-opacity="0"/></linearGradient><radialGradient id="C" cx="0" cy="0" r="1" gradientUnits="userSpaceOnUse" gradientTransform="matrix(31.616573343087463,1.5055616231730151,-1.6275956206080497,34.17926939675244,34.6276,229.717)"><stop stop-color="#ff7307"/><stop offset="1" stop-color="#ff7408" stop-opacity="0"/></radialGradient><linearGradient id="D" x1="13.055" y1="376" x2="349.288" y2="170.804" gradientUnits="userSpaceOnUse"><stop stop-color="#ff8000"/><stop offset="1" stop-color="#ff4020"/></linearGradient><clipPath id="E"><path fill="#fff" d="M0 0h1458v376H0z"/></clipPath><path id="F" d="M294.137 177.33L36.769 325.812v-63.635l201.909-116.553-36.583-21.106L9.194 235.663c-5.688 3.281-9.192 9.345-9.192 15.908V357.63a18.37 18.37 0 0 0 9.192 15.909A18.38 18.38 0 0 0 18.386 376a18.39 18.39 0 0 0 9.192-2.461l312.519-180.3c5.688-3.281 9.192-9.346 9.192-15.909s-3.504-12.627-9.192-15.908l-91.605-52.85a17.54 17.54 0 0 0-.594-.342l-91.635-52.867c-5.688-3.281-12.695-3.281-18.383 0L9.195 129.604c-8.793 5.073-11.805 16.307-6.729 25.094 3.405 5.893 9.584 9.188 15.938 9.188a18.32 18.32 0 0 0 9.174-2.464L147.07 92.484l147.067 84.847z"/></defs></svg>