<svg xmlns="http://www.w3.org/2000/svg" fill="#0065f2" viewBox="0 0 33.89 24"><path d="M12.69 16.84a1.46 1.46 0 1 0 0 2.93 1.47 1.47 0 0 0 1.47-1.46 1.5 1.5 0 0 0-1.47-1.47m8.51 0a1.47 1.47 0 0 0-1.47 1.46 1.5 1.5 0 0 0 1.47 1.47 1.46 1.46 0 1 0 0-2.93m-4.25-1.29a1.47 1.47 0 1 0-1.47-1.46 1.47 1.47 0 0 0 1.47 1.46m0 5.52a1.47 1.47 0 0 0-1.47 1.46A1.5 1.5 0 0 0 16.95 24a1.46 1.46 0 1 0 0-2.93m4.41-18.93-4.41 4.38-4.41-4.38a7.4 7.4 0 0 0-10.39 0 7.26 7.26 0 0 0 0 10.32l5.88 5.85 8.91-8.85 8.91 8.85 5.88-5.85a7.26 7.26 0 0 0 0-10.32 7.4 7.4 0 0 0-10.39 0M8.04 15.37l-4.41-4.38c-2.05-2.04-2.05-5.34 0-7.38s5.38-2.04 7.43 0l4.41 4.38zm22.22-4.38-4.41 4.38-7.43-7.38 4.41-4.38c2.05-2.04 5.38-2.04 7.43 0s2.05 5.34 0 7.38"/></svg>