<svg xmlns="http://www.w3.org/2000/svg" viewBox="0 0 130.02 130.02"><defs><radialGradient id="a" cx="158.43" cy="578.09" r="65" fx="158.43" fy="578.09" gradientTransform="matrix(0 -1.98198 1.8439 0 -1031.4 454)" gradientUnits="userSpaceOnUse"><stop offset="0" stop-color="#fd5"/><stop offset=".1" stop-color="#fd5"/><stop offset=".5" stop-color="#ff543e"/><stop offset="1" stop-color="#c837ab"/></radialGradient><radialGradient id="d" cx="147.69" cy="473.45" r="65" fx="147.69" fy="473.45" gradientTransform="rotate(78.68 1103.87 776.3)scale(.88596 3.6529)" gradientUnits="userSpaceOnUse"><stop offset="0" stop-color="#3771c8"/><stop offset=".13" stop-color="#3771c8"/><stop offset="1" stop-color="#60f" stop-opacity="0"/></radialGradient><path id="b" d="M65.03 0 28.41.16C22.84.62 19.37 1.5 15.6 3.38a26 26 0 0 0-7.47 5.46Q1.94 15.26.6 24.66C.16 27.7.03 28.32 0 43.84v21.13l.16 36.59c.45 5.42 1.3 8.83 3.1 12.56a27.4 27.4 0 0 0 17.75 14.5c2.68.69 5.64 1.07 9.44 1.25 1.61.07 18.02.12 34.44.12l34.41-.1c4.4-.2 6.96-.55 9.78-1.28a27.2 27.2 0 0 0 17.75-14.53c1.77-3.64 2.66-7.18 3.07-12.32.09-1.12.12-18.98.12-36.8l-.12-36.79c-.41-5.22-1.3-8.73-3.13-12.44a26 26 0 0 0-5.57-7.62Q114.76 1.95 105.38.6c-3.04-.44-3.65-.57-19.19-.6z"/></defs><g transform="translate(0 .02)"><use fill="url(#a)" href="#b"/><use fill="url(#d)" href="#b"/></g><path fill="#fff" d="M65 17.02c-13.03 0-14.67.06-19.79.29-5.1.23-8.6 1.04-11.65 2.23a23.5 23.5 0 0 0-8.5 5.53 23.6 23.6 0 0 0-5.54 8.5c-1.2 3.06-2 6.55-2.23 11.66s-.3 6.75-.3 19.79l.3 19.79c.23 5.1 1.04 8.6 2.23 11.65a23.5 23.5 0 0 0 5.53 8.5 23.5 23.5 0 0 0 8.5 5.54c3.06 1.19 6.55 2 11.66 2.23s6.75.29 19.79.29 14.67-.06 19.79-.3c5.1-.23 8.6-1.03 11.65-2.22a23.5 23.5 0 0 0 8.5-5.54 23.6 23.6 0 0 0 5.54-8.5c1.18-3.06 1.99-6.55 2.23-11.65.23-5.12.29-6.76.29-19.8l-.3-19.78c-.23-5.11-1.04-8.6-2.22-11.65-1.23-3.16-2.87-5.84-5.54-8.5s-5.34-4.32-8.5-5.54c-3.06-1.19-6.55-2-11.66-2.23s-6.75-.3-19.8-.3zm-4.3 8.65H65l19.4.27c4.68.22 7.22 1 8.91 1.66a15 15 0 0 1 5.52 3.59 15 15 0 0 1 3.59 5.52c.66 1.69 1.44 4.23 1.65 8.9.23 5.07.28 6.59.28 19.4l-.28 19.39c-.21 4.68-1 7.22-1.65 8.9-.87 2.25-1.91 3.84-3.6 5.52s-3.27 2.72-5.5 3.6c-1.7.65-4.24 1.43-8.92 1.64-5.06.23-6.58.28-19.4.28s-14.33-.05-19.4-.28c-4.67-.21-7.21-1-8.9-1.65-2.25-.87-3.85-1.91-5.53-3.59s-2.72-3.28-3.59-5.52c-.65-1.69-1.44-4.23-1.65-8.9-.23-5.07-.28-6.59-.28-19.4l.28-19.4c.21-4.68 1-7.22 1.65-8.9.87-2.25 1.91-3.85 3.6-5.53s3.27-2.72 5.51-3.59c1.7-.66 4.24-1.44 8.92-1.65 4.43-.2 6.14-.26 15.09-.27zm29.93 7.97a5.76 5.76 0 1 0 5.76 5.76 5.76 5.76 0 0 0-5.76-5.76M65 40.37a24.65 24.65 0 1 0 0 49.3 24.65 24.65 0 0 0 0-49.3m0 8.65a16 16 0 1 1 0 32 16 16 0 0 1 0-32"/></svg>