<svg xmlns="http://www.w3.org/2000/svg" xmlns:xlink="http://www.w3.org/1999/xlink" viewBox="0 0 349.3 376.1"><defs><linearGradient id="a" x1="2.4" x2="60.4" y1="78.8" y2="-5.3" gradientUnits="userSpaceOnUse"><stop offset=".3" stop-color="#ff670d"/><stop offset="1" stop-color="#ff5317"/></linearGradient><linearGradient id="c" x1="121.3" x2="197.1" y1="254.5" y2="122.4" gradientUnits="userSpaceOnUse"><stop offset="0" stop-color="#ff7207"/><stop offset="1" stop-color="#ff7208" stop-opacity="0"/></linearGradient><linearGradient id="e" x1="-38.5" x2="297.7" y1="291.6" y2="86.4" gradientUnits="userSpaceOnUse"><stop offset="0" stop-color="#ff8000"/><stop offset="1" stop-color="#ff4020"/></linearGradient><radialGradient id="d" cx="-222.2" cy="719.2" r="1" fx="-222.2" fy="719.2" gradientTransform="matrix(32 2 2 -34 5889.9 25146.2)" gradientUnits="userSpaceOnUse"><stop offset="0" stop-color="#ff7307"/><stop offset="1" stop-color="#ff7408" stop-opacity="0"/></radialGradient><path id="b" d="M294.1 177.5 36.8 325.9v-63.6l201.9-116.5-36.6-21.2-193 111.2A18.4 18.4 0 0 0 0 251.7v106c0 6.6 3.5 12.7 9.2 16a18.4 18.4 0 0 0 18.4 0L340 193.4a18.4 18.4 0 0 0 0-31.9l-91.6-52.8-.6-.3-91.7-53a18.4 18.4 0 0 0-18.3 0L9.2 129.8a18.4 18.4 0 0 0 9.2 34.3c3.2 0 6.4-.8 9.2-2.5L147 92.6l147 84.9Z"/></defs><path fill="url(#a)" d="M18.4 58a18.4 18.4 0 0 1-9.2-34.3L46 2.5a18.4 18.4 0 0 1 25 6.7 18.4 18.4 0 0 1-6.7 25L27.6 55.6a18.4 18.4 0 0 1-9.2 2.4"/><use xlink:href="#b" fill="url(#c)"/><use xlink:href="#b" fill="url(#d)"/><path fill="url(#e)" d="M294.1 177.5 36.8 325.9v-63.6l11.6-6.7-20.8-30.4-18.4 10.6A18.4 18.4 0 0 0 0 251.7v106c0 6.6 3.5 12.7 9.2 16a18.4 18.4 0 0 0 18.4 0L340 193.4a18.4 18.4 0 0 0 0-31.9l-91.6-52.8-.6-.3-91.7-53a18.4 18.4 0 0 0-18.3 0L9.2 129.8a18.4 18.4 0 0 0 9.2 34.3c3.2 0 6.4-.8 9.2-2.5L147 92.6l147 84.9Z"/></svg>