<svg xmlns="http://www.w3.org/2000/svg" viewBox="0 0 127.2 127.2"><path fill="#e72429" d="M18.4 63.5a18.4 18.4 0 0 0-16-18.3 73.1 73.1 0 0 0 0 36.5 18.4 18.4 0 0 0 16-18.2m10.7-5.8a5.8 5.8 0 1 0 5.8 5.8 5.8 5.8 0 0 0-5.8-5.8m79.6 5.8A18.4 18.4 0 0 0 125 81.7a73.1 73.1 0 0 0 0-36.5 18.4 18.4 0 0 0-16.2 18.3M98 57.7a5.8 5.8 0 1 0 5.8 5.8 5.8 5.8 0 0 0-5.8-5.8m-34.5 51.1a18.4 18.4 0 0 0-18.3 16.1 73.1 73.1 0 0 0 36.5 0 18.4 18.4 0 0 0-18.2-16.1m0-16.5a5.8 5.8 0 1 0 5.7 5.8 5.8 5.8 0 0 0-5.7-5.8m0-73.9a18.4 18.4 0 0 0 18.2-16 73.1 73.1 0 0 0-36.5 0 18.4 18.4 0 0 0 18.3 16m0 5a5.8 5.8 0 1 0 5.7 5.7 5.8 5.8 0 0 0-5.7-5.7m31.9 72a18.4 18.4 0 0 0-1.5 24.3A73 73 0 0 0 119.7 94a18.4 18.4 0 0 0-24.3 1.5M83.8 83.8a5.8 5.8 0 1 0 8.2 0 5.8 5.8 0 0 0-8.2 0M31.6 31.6A18.4 18.4 0 0 0 33 7.3 73 73 0 0 0 7.3 33.1a18.4 18.4 0 0 0 24.3-1.5M35 35a5.8 5.8 0 1 0 8.2 0 5.8 5.8 0 0 0-8.1 0m60.3-3.5a18.4 18.4 0 0 0 24.3 1.5A72.9 72.9 0 0 0 93.9 7.2a18.4 18.4 0 0 0 1.5 24.3M92 43.2a5.8 5.8 0 1 0-8.2 0 5.8 5.8 0 0 0 8.1 0M31.6 95.4a18.4 18.4 0 0 0-24.3-1.5A73 73 0 0 0 33 119.7a18.4 18.4 0 0 0-1.5-24.3M35 83.7a5.8 5.8 0 1 0 8.2 0 5.8 5.8 0 0 0-8.2 0"/></svg>