<svg xmlns="http://www.w3.org/2000/svg" xmlns:xlink="http://www.w3.org/1999/xlink" viewBox="0 0 349.29 376.13"><defs><linearGradient id="a" x1="2.39" x2="60.44" y1="78.75" y2="-5.3" gradientUnits="userSpaceOnUse"><stop offset=".26" stop-color="#ff670d"/><stop offset="1" stop-color="#ff5317"/></linearGradient><linearGradient id="c" x1="121.32" x2="197.09" y1="254.49" y2="122.43" gradientUnits="userSpaceOnUse"><stop offset="0" stop-color="#ff7207"/><stop offset="1" stop-color="#ff7208" stop-opacity="0"/></linearGradient><linearGradient id="e" x1="-38.51" x2="297.72" y1="291.64" y2="86.44" gradientUnits="userSpaceOnUse"><stop offset="0" stop-color="#ff8000"/><stop offset="1" stop-color="#ff4020"/></linearGradient><radialGradient id="d" cx="-222.21" cy="719.2" r="1" fx="-222.21" fy="719.2" gradientTransform="matrix(31.61408 1.50747 1.62988 -34.18116 5889.86 25146.2)" gradientUnits="userSpaceOnUse"><stop offset="0" stop-color="#ff7307"/><stop offset="1" stop-color="#ff7408" stop-opacity="0"/></radialGradient><path id="b" d="M294.14 177.46 36.77 325.94V262.3l201.91-116.55-36.58-21.11L9.19 235.79A18.39 18.39 0 0 0 0 251.7v106.06c0 6.56 3.51 12.63 9.19 15.91a18.39 18.39 0 0 0 18.38 0l312.52-180.3a18.36 18.36 0 0 0 0-31.82l-91.61-52.85-.59-.34-91.64-52.87a18.4 18.4 0 0 0-18.38 0L9.19 129.73a18.36 18.36 0 0 0 9.21 34.28c3.22 0 6.39-.85 9.17-2.46l119.49-68.94 147.07 84.85Z"/></defs><path fill="url(#a)" d="M18.4 57.96a18.38 18.38 0 0 1-9.21-34.28L45.96 2.46a18.4 18.4 0 0 1 25.11 6.72 18.36 18.36 0 0 1-6.73 25.09L27.58 55.48a18.35 18.35 0 0 1-9.18 2.46"/><use xlink:href="#b" fill="url(#c)"/><use xlink:href="#b" fill="url(#d)"/><path fill="url(#e)" d="M294.14 177.46 36.77 325.94V262.3l11.64-6.72-20.83-30.39L9.2 235.78A18.4 18.4 0 0 0 0 251.7v106.06c0 6.56 3.51 12.63 9.19 15.91a18.39 18.39 0 0 0 18.38 0l312.52-180.3a18.36 18.36 0 0 0 0-31.82l-91.61-52.85-.59-.34-91.64-52.87a18.4 18.4 0 0 0-18.38 0L9.19 129.73a18.36 18.36 0 0 0 9.21 34.28c3.22 0 6.39-.85 9.17-2.46l119.49-68.94 147.07 84.85Z"/></svg>