<?xml version="1.0" encoding="UTF-8" standalone="no"?>
<svg
   xmlns:dc="http://purl.org/dc/elements/1.1/"
   xmlns:cc="http://creativecommons.org/ns#"
   xmlns:rdf="http://www.w3.org/1999/02/22-rdf-syntax-ns#"
   xmlns:svg="http://www.w3.org/2000/svg"
   xmlns="http://www.w3.org/2000/svg"
   class="inline-icon inline-icon--header"
   viewBox="0 0 253.933 100"
   version="1.1"
   id="svg6">
  <metadata
     id="metadata12">
    <rdf:RDF>
      <cc:Work
         rdf:about="">
        <dc:format>image/svg+xml</dc:format>
        <dc:type
           rdf:resource="http://purl.org/dc/dcmitype/StillImage" />
        <dc:title></dc:title>
      </cc:Work>
    </rdf:RDF>
  </metadata>
  <defs
     id="defs10" />
  <g
     id="g4">
    <path
       d="M 9.662954,0 C 4.2697167,0 0,4.38205 0,9.66296 c 0,5.39323 4.3820488,9.66295 9.662954,9.66295 5.393237,0 9.662954,-4.38205 9.662954,-9.66295 C 19.43824,4.26972 15.056291,0 9.662954,0 Z M 94.49443,32.47186 c -27.30338,0 -49.325857,22.02247 -49.325857,49.10109 0,1.46072 0,7.86514 0,8.764 0,5.39323 4.494381,9.66295 9.887617,9.66295 5.39324,0 9.662955,-4.38205 9.662955,-9.66295 0,-0.3371 0,-8.764 0,-8.764 0,-16.40447 13.37081,-29.66295 29.775285,-29.66295 16.51681,0 29.77528,13.25837 29.77528,29.66295 0,0 0,8.427 0,8.764 0,5.39323 4.38205,9.66295 9.66296,9.66295 5.39324,0 9.88762,-4.38205 9.88762,-9.66295 0,-0.78653 0,-7.19106 0,-8.764 0.11233,-27.07862 -22.13481,-49.10109 -49.32586,-49.10109 z m 111.79766,1.79781 c -0.44943,0 -11.2359,0 -11.2359,0 l 0,0 c -3.25843,0 -5.84267,-2.58424 -5.84267,-5.84267 l 0,-18.31462 c 0,-0.11233 0,-0.33709 0,-0.44942 C 189.21352,4.26972 184.83147,0 179.55057,0 c -5.39324,0 -9.66295,4.38205 -9.66295,9.66296 l 0,80.56175 c 0,5.39324 4.38204,9.66289 9.66295,9.66289 5.39324,0 9.66295,-4.38198 9.66295,-9.66289 0,-0.33709 0,-30.8989 0,-30.8989 0,-3.25843 2.58424,-5.84266 5.84267,-5.84266 0,0 10.67414,0 11.2359,0 5.39324,0 9.66295,-4.38205 9.66295,-9.66296 0,-5.16857 -4.38204,-9.55052 -9.66295,-9.55052 z m -196.629136,0 C 4.2697168,34.26967 0,38.65172 0,43.93262 L 0,90.33705 C 0,95.73028 4.3820489,100 9.662954,100 c 5.393237,0 9.662954,-4.38205 9.662954,-9.66295 l 0,-46.40443 C 19.43824,38.53939 15.056291,34.26967 9.662954,34.26967 Z m 234.606656,0 c -5.39323,0 -9.66295,4.38205 -9.66295,9.66295 0,5.39324 4.38205,9.66296 9.66295,9.66296 5.39324,0 9.66296,-4.38205 9.66296,-9.66296 0,-5.39323 -4.38205,-9.66295 -9.66296,-9.66295 z"
       id="path2" />
  </g>
</svg>
