<svg width="398" height="279" viewBox="0 0 398 279" fill="none" xmlns="http://www.w3.org/2000/svg">
<path fill-rule="evenodd" clip-rule="evenodd" d="M210.699 75.4746L221.372 81.5746V197.475L199.518 210.183L177.665 197.475V81.5746L188.338 75.4746L168.517 63.7829L157.844 69.8829V209.166L179.698 221.875L121.253 255.425L21.1335 197.475C21.1335 158.841 21.1335 120.208 21.1335 81.5746C54.6759 62.2579 87.7102 42.9412 121.253 23.6245C137.007 32.7745 152.762 41.9245 168.009 50.5662L187.829 38.8745C165.468 26.1662 143.106 12.9495 120.744 0.241211C80.5951 23.1162 40.4458 46.4995 0.804688 69.8829V209.166L120.744 278.3C147.172 263.558 173.091 248.308 199.01 233.058L276.768 278.3C317.933 255.425 358.083 232.041 397.724 209.166C397.724 162.908 397.724 116.65 397.724 70.3912L277.784 0.749546L210.699 39.3829L230.52 51.0745L277.276 24.1329L377.395 82.0829C377.395 120.716 377.395 159.35 377.395 197.983C343.853 217.3 310.818 236.616 277.276 255.933C263.046 247.8 237.635 233.058 218.831 222.383C226.454 218.316 233.569 213.741 241.192 209.675V70.3912L230.52 64.2912L210.699 75.4746ZM199.518 68.8662L219.339 57.1745L199.518 45.9912L179.698 57.6829L199.518 68.8662Z" fill="url(#paint0_linear_8531_7638)"/>
<defs>
<linearGradient id="paint0_linear_8531_7638" x1="199.595" y1="278.3" x2="199.595" y2="0.749552" gradientUnits="userSpaceOnUse">
<stop stop-color="#47E1FF"/>
<stop offset="0.2" stop-color="#43DAFF"/>
<stop offset="0.49" stop-color="#38C7FF"/>
<stop offset="0.82" stop-color="#27A9FF"/>
<stop offset="1" stop-color="#1D96FF"/>
</linearGradient>
</defs>
</svg>
