<svg xmlns="http://www.w3.org/2000/svg" viewBox="0 0 90 90"><g fill="none" fill-rule="evenodd"><path fill="#2178C9" d="M43.4204188 21.8526197c2.0708907-4.1189093 7.3495425-6.7729359 12.6058903-9.547634 3.5042318-1.8497988 8.9473755-4.00392429 16.329431-6.46237646C74.7852467 5.65492729 76 6.09169747 76 7.15291976 76 8.7447532 64.9497004 13.7812646 63.0388268 14.832681c-7.0125177 3.8584844-11.9408608 9.1653115-9.5542094 15.9415042 1.594866 4.5281512 9.4944421 9.8702601 15.4407428 14.8252781 2.9520945 2.4599633 5.699827 3.8561818 6.4073624 6.9263248 2.1326992 9.2542248-.8315779 14.8012273-11.1537818 21.9075549C59.40269 77.7215558 44.8031719 82.6073297 36.5448 85.0127578c-4.0970193 1.1933448-20.32138459 7.0212388-21.49839602 4.2464612-1.17701143-2.7747775 20.35515512-10.4128862 28.37401482-13.7065776 9.5376993-3.9175444 22.351079-11.3531357 22.351079-15.667102 0-4.8294294-10.2806683-12.9286055-19.9124075-23.070686-.4546071-.4786946-.7136514-1.0882557-1.0550524-1.7057284-2.3333419-4.2201842-3.4545098-9.1375959-1.3836191-13.2565053z"/><path fill="#FF9700" d="M22.101 13.432h5.61v68.277h-5.61z"/><path fill="#2178C9" d="M22.101 0h5.61v11.193h-5.61z"/></g></svg>