<svg xmlns="http://www.w3.org/2000/svg" viewBox="0 0 90 90"><path fill="#2178C9" d="M43.4 21.9c2-4.2 7.4-6.8 12.6-9.6 3.5-1.8 9-4 16.4-6.5 2.4-.1 3.6.3 3.6 1.4 0 1.5-11 6.6-13 7.6-7 3.9-11.9 9.2-9.5 16 1.6 4.5 9.5 9.8 15.4 14.8 3 2.5 5.7 3.9 6.4 7 2.2 9.2-.8 14.7-11.1 21.8-4.8 3.3-19.4 8.2-27.7 10.6-4 1.2-20.3 7-21.5 4.3-1.1-2.8 20.4-10.5 28.4-13.7 9.6-4 22.4-11.4 22.4-15.7 0-4.8-10.3-13-20-23l-1-1.8C42.5 31 41.3 26 43.4 22zM22.1 0h5.6v11.2h-5.6z"/><path fill="#FF9700" d="M22.1 13.4h5.6v68.3h-5.6z"/></svg>
