<svg xmlns="http://www.w3.org/2000/svg" width="156.97" height="156.97"><path d="M78.23 35.01a54.14 54.14 0 00-53.87 54.14 54.14 54.14 0 0054.14 54.13 54.14 54.14 0 0054.14-54.13A54.14 54.14 0 0078.5 35a54.14 54.14 0 00-.27 0zm.25 16.21a37.92 37.92 0 01.02 0 37.92 37.92 0 0137.93 37.93 37.92 37.92 0 01-2.43 13.34L49.2 65.07a37.92 37.92 0 0129.28-13.85zm-36.6 28.1l63.45 36.63a37.92 37.92 0 01-26.83 11.12 37.92 37.92 0 01-37.92-37.92 37.92 37.92 0 011.3-9.83z" fill="#f08401" fill-rule="evenodd" paint-order="markers fill stroke"/><path d="M16.15 0C5.7 13.31 5.02 20.65 4.8 30.95 4.62 39.3 6.58 47.8 15.08 55.87c3.95 3.74 8.98 6.71 14.63 7.37 9.77 1.14 21.04-.2 32.27-7.7 5.82-3.87 16.5-4.32 16.5-4.32s10.69.45 16.5 4.33c11.24 7.48 22.5 8.83 32.28 7.69 5.64-.66 10.68-3.63 14.62-7.37 8.5-8.07 10.47-16.57 10.29-24.92-.22-10.3-.9-17.64-11.35-30.95 1.51 8.75 2.65 16.73 2.8 24.3.1 5.1.12 11.29-5.33 15.35-9.42 7.04-15.96 8.75-27.28 4.6-8.62-3.17-17.5-10.64-32.53-10.64-15.02 0-23.9 7.47-32.53 10.64-11.31 4.15-17.85 2.44-27.28-4.6-5.44-4.06-5.42-10.24-5.32-15.34.15-7.58 1.28-15.56 2.8-24.31zm48.62 111.35c-3.77.03-8.83 1.25-9.38 7.95a7.8 7.8 0 00.87 4.94c-2.61 1.91-5.14 6.7-4.98 12.35.2 7.83 3.51 11.6 6.12 13.95 3.88 3.48 7.84 6.43 21.12 6.43 13.29 0 17.25-2.95 21.12-6.43 2.62-2.35 5.92-6.12 6.13-13.95.15-5.65-2.37-10.44-4.99-12.35 0 0 1.37-2.26.87-4.94-.55-6.7-5.6-7.92-9.37-7.95-4.88-.23-7.38 4.3-7.38 8.5 0 6.3 6.73 8.22 10.79 8.05 0 0 3.14 3.9 2.8 7.3a13.12 13.12 0 01-6.12 10.1c-3.46 2.3-7.46 4.04-13.85 4.04s-10.38-1.73-13.84-4.04a13.12 13.12 0 01-6.12-10.1c-.35-3.4 2.8-7.3 2.8-7.3 4.05.17 10.79-1.76 10.79-8.06 0-4.2-2.5-8.72-7.38-8.49z" fill="#3b3b43"/></svg>