<svg xmlns="http://www.w3.org/2000/svg" width="36.12" height="36.12" fill="none" class="jsx-1886525964"><path d="M31.605.06H4.515A4.508 4.508 0 000 4.56v27c0 2.485 2.022 4.5 4.515 4.5h27.09a4.508 4.508 0 004.515-4.5v-27c0-2.485-2.021-4.5-4.515-4.5z" fill="#000"/><path d="M31.304 19.854a1.203 1.203 0 01-2.408 0V9.06c0-.663.539-1.2 1.203-1.2.665 0 1.205.537 1.205 1.2v10.793zM30.884 27.364c-.185.16-4.646 3.889-12.824 3.889s-12.636-3.73-12.824-3.89a1.197 1.197 0 01-.13-1.691A1.206 1.206 0 016.8 25.54c.07.059 4.053 3.313 11.259 3.313 7.296 0 11.218-3.278 11.256-3.31a1.205 1.205 0 011.697.129 1.194 1.194 0 01-.128 1.692zM4.816 9.06c0-.663.539-1.2 1.204-1.2.665 0 1.204.537 1.204 1.2v10.793c0 .663-.54 1.2-1.204 1.2a1.202 1.202 0 01-1.204-1.2zM10.836 6.66c0-.662.54-1.2 1.204-1.2.665 0 1.204.538 1.204 1.2v16.033c0 .662-.539 1.2-1.204 1.2a1.203 1.203 0 01-1.204-1.2zM16.855 6.053c0-.663.54-1.2 1.205-1.2s1.205.537 1.205 1.2v17.4c0 .663-.54 1.2-1.205 1.2a1.203 1.203 0 01-1.204-1.2v-17.4zM22.875 6.66c0-.662.54-1.2 1.205-1.2s1.204.538 1.204 1.2v16.033a1.203 1.203 0 01-2.408 0V6.66z" fill="#fff"/></svg>