<svg xmlns="http://www.w3.org/2000/svg" version="1.1" id="Layer_1" x="0" y="0" xml:space="preserve" width="41.6" height="41.6"><style type="text/css" id="style5165">.st3{fill:#e98a42}</style><path d="M37.1 11.8c-.3-.2-.6-.2-.9-.1-1.6-.2-3.2-.1-4.9-.1h-2.6l-7-.1h-5.2c-1.3 0-2.6 0-3.8.1h-8c-.2 0-.5.3-.5.6 0 .1.1.3.3.3H11c1.6-.2 3.2-.1 4.7-.1h4.1c.2.1.5.1.8.1.3 0 .5 0 .8.1.2-.1.4 0 .6 0h.3c2-.1 4.2 0 6.9.2l1.3.1c1.2-.1 2.3 0 3.5.1.9.1 1.7.1 2.5.1h.1l.4-.3c.4-.5.3-.9.1-1" id="XMLID_7_" fill="#deb630"/><path d="M25.6 26.5v-2.8c0-.4-.1-.9-.1-1.3 0-.5 0-1.1-.1-1.6 0-.7-.2-1.5-.3-2.2l-.1-.5c-.1-.1-.1-.2-.2-.4 0-.1-.1-.3-.2-.4-.2-.3-.5-.7-.7-.9l-.2-.2s-.1 0-.1-.1h-.1c-.2-.2-.4-.3-.7-.3-.1-.1-.2-.1-.3-.1v-.1h-.1l-.6-.1h-.1l-.1.1H21l-.3-.1v.1c-.1 0-.2 0-.3.1h-.8v.1c-.2 0-.3.1-.4.1-.1 0-.2.1-.3.1h-.2v.1c-.1.1-.2.1-.3.2l-.2.1s-.1 0-.1.1h-.2v.2h-.1l-.1.1c-.1.2-.3.3-.4.5-.2.2-.4.4-.5.6v.2s-.1.1-.1.2c-.1.1-.1.2-.1.3v.1c-.1.1-.1.2-.1.3v.1l-.1.1v.3h-.1v1.3c-.1.1-.1.2 0 .3v.1l-.1.1.1.1c.1.1 0 .2 0 .4 0 .1-.1.3 0 .4v.2l-.1.1v.1l.1.1v.4l-.1.1.1.1c0 .1 0 .2.1.3h-.1l.1.2v.7c-.1.1-.1.3 0 .4-.1.1-.1.2 0 .3l-.2.1.2.2v.1l.1.1h-.1l.1.2c0 .1 0 .2.1.3v.1l-.1.1.1.1c.1.1 0 .2 0 .4 0 .1-.1.3 0 .5l-.1.1.1.1c0 .1-.1.2 0 .3v1.2h-.1v.6c0 .3 0 .7.3 1l.1.1h.1c.2-.1.2-.3.2-.4v-.1c-.1-.3-.1-.7 0-1V29c-.1-.1 0-.2 0-.4v-.4c.1-.6 0-1.4 0-2v-2.7c.1-.3.1-.6.1-.9v-.4c.1-.1.1-.2.1-.2v-.7c0-.1.1-.2 0-.3.1-.2.1-.5.2-.8v-.1c0-.1 0-.1-.1-.2 0-.1.1-.2.1-.4.1-.1.2-.3.2-.5.1 0 .1-.1.1-.2v-.1c.1-.1.2-.2.2-.3.1-.1.1-.2.3-.3h.1V18c0-.1.1-.1.2-.2s.2-.1.3-.2c.1 0 .2 0 .2-.1.1 0 .2-.1.3-.2.1-.1.2-.1.3-.1h.1l.1-.1s.1 0 .2-.1h.5c.4-.1.8-.1 1.1.1l.1.1.1-.1v.1c.1.1.2.3.5.2 0 0 .1.1.2.1h.1c.1.1.2.1.3.1.3.3.5.6.5.8v.1h.1c0 .2.1.4.3.6v.5l.1.1c0 .1 0 .2.1.3v.2c-.1.3 0 .4.1.5-.1.1-.1.1-.1.2v.3l-.1.1v.1l.1.1h.1v.3c-.1.2-.1.6 0 .8-.1.1-.1.2 0 .3v.3h.1v.2h.1v.4c0 .2 0 .3.1.4v.1s-.1.1 0 .1v.1c0 .1 0 .1.1.1v.1h-.1v.3l-.1.1s0 .1.1.1c-.1.2.1.4.2.4l.1.1h-.1l.1.2-.1.1v.4s-.1.1-.1.2v.1h.1v.1c0 .1 0 .1-.1.1l.2.1c0 .1 0 .1-.1.1v.1h-.2v1.1l-.1.1.2.2v.2h-.1l.2.2v.1c-.1.1-.1.2-.1.3v.1l.1.1-.1.1v.1h-.2l.2.2-.2.1.1.1v.4c0 .1 0 .1.1.2s.2.1.2 0v.2l.2-.1h.6v-.2c.1-.6.1-1.2 0-1.7v-1.6c0-.7-.1-.8-.1-.9" id="XMLID_6_" fill="#008652"/><path d="M14.1 26.5v-2.8c-.1-.4-.1-.9-.1-1.3 0-.5 0-1.1-.1-1.6 0-.7-.2-1.5-.3-2.2l-.1-.5c-.1-.1-.1-.2-.2-.4 0-.1-.1-.3-.2-.4-.2-.3-.5-.7-.7-.9l-.2-.2s-.1 0-.1-.1H12c-.2-.2-.4-.3-.7-.3-.1-.1-.2-.1-.3-.1v-.1h-.1l-.6-.1h-.1l-.1.1h-.6l-.3-.1v.1c-.1 0-.2 0-.3.1h-.8v.1c-.2 0-.3.1-.4.1-.1 0-.2.1-.3.1h-.2v.1c-.1.1-.2.1-.3.2l-.2.1s-.1 0-.1.1h-.2v.2h-.1l-.1.1c-.1.2-.3.3-.4.5-.2.2-.4.4-.5.6v.2s-.1.1-.1.2c-.1.1-.1.2-.1.3v.1c-.1.1-.1.2-.1.3v.1l-.1.1v.3h-.1v1.3c-.1.1-.1.2 0 .3v.1l-.1.1.1.1c.1.1 0 .2 0 .4 0 .1-.1.3 0 .4v.2l-.1.1v.1l.1.1v.4l-.1.1.1.1c0 .1 0 .2.1.3h-.1l.1.2v.7c-.1.1-.1.3 0 .4-.1.1-.1.2 0 .3l-.2.1.2.2v.1l.1.1h-.1l.1.2c0 .1 0 .2.1.3v.1l-.1.1.1.1c.1.1 0 .2 0 .4 0 .1-.1.3 0 .5l-.1.1.1.1c0 .1-.1.2 0 .3v1.2H5v.6c0 .3 0 .7.3 1l.1.1h.1c.2-.1.2-.3.2-.4v-.1c-.1-.3-.1-.7 0-1V29c-.1-.1 0-.2 0-.4v-.4c.1-.6 0-1.4 0-2v-2.7c.1-.3.1-.6.1-.9v-.4c.1-.1.1-.2 0-.2v-1c.1-.2.1-.5.2-.8v-.1c0-.1 0-.1-.1-.2 0-.1.1-.2.1-.4.1-.1.2-.3.2-.5.1 0 .1-.1.1-.2v-.1c.1-.1.2-.2.2-.3.1-.1.1-.2.3-.3h.1V18c0-.1.1-.1.2-.2s.2-.1.3-.2c.1 0 .2 0 .2-.1.1 0 .2-.1.3-.2.1-.1.2-.1.3-.1h.1l.1-.1s.1 0 .2-.1h.5c.4-.1.8-.1 1.1.1l.1.1.1-.1v.1c.1.1.2.3.5.2l.1.1h.1c.1.1.2.1.3.1.3.3.5.6.5.8v.1h.1c0 .2.1.4.3.6v.5l.1.1c0 .1 0 .2.1.3v.2c-.1.3 0 .4.1.5-.1.1-.1.1-.1.2v.3l-.1.1v.1l.1.1h.1v.3c-.1.2-.1.6 0 .8-.1.1-.1.2 0 .3v.3h.1v.2h.1v.4c0 .2 0 .3.1.4v.1s-.1.1 0 .1v.1c0 .1 0 .1.1.1v.1h-.1v.3l-.1.1s0 .1.1.1c-.1.2.1.4.2.4l.1.1h-.1l.1.2-.1.1v.4s-.1.1-.1.2v.1h.1v.1c0 .1 0 .1-.1.1l.2.1c0 .1 0 .1-.1.1v.1h-.2v1.1l-.1.1.2.2v.2h-.1l.2.2v.1c-.1.1-.1.2-.1.3v.1l.1.1-.1.1v.1h-.2l.2.2-.2.1.1.1v.4c0 .1 0 .1.1.2s.2.1.2 0v.2l.2-.1h.6v-.2c.1-.6.1-1.2 0-1.7v-1.6c.1-.7.1-.8.1-.9" id="XMLID_5_" fill="#006ca5"/><path d="M37 26.7v-2.8c-.1-.4-.1-.9-.1-1.3 0-.5 0-1.1-.1-1.6 0-.7-.2-1.5-.3-2.2l-.1-.5c-.1-.1-.1-.2-.2-.4 0-.1-.1-.3-.2-.4-.2-.3-.5-.7-.7-.9l-.2-.2s-.1 0-.1-.1h-.1c-.2-.2-.4-.3-.7-.3-.1-.1-.2-.1-.3-.1v-.1h-.1l-.6-.1h-.1l-.1.1h-.2c-.1 0-.1 0-.2-.1h-.2l-.3-.1v.1c-.1 0-.2 0-.3.1H31v.1c-.2 0-.3.1-.4.1-.1 0-.2.1-.3.1h-.2v.1c-.1.1-.2.1-.3.2l-.2.1s-.1 0-.1.1h-.2v.2h-.1l-.1.1c-.1.2-.3.3-.4.5-.2.2-.4.4-.5.6v.2s-.1.1-.1.2c-.1.1-.1.2-.1.3v.1c-.1.1-.1.2-.1.3v.1l-.1.1v.3h-.1v1.3c-.1.1-.1.2 0 .3v.1l-.1.1.1.1c.1.1 0 .2 0 .4 0 .1-.1.3 0 .4v.2l-.1.1v.1l.1.1v.4l-.1.1.1.1c0 .1 0 .2.1.3h-.1l.1.2v.8c-.1.1-.1.3 0 .4-.1.1-.1.2 0 .3l-.2.1.2.2v.1l.1.1h-.1l.1.2c0 .1 0 .2.1.3v.1l-.1.1.1.1c.1.1 0 .2 0 .4 0 .1-.1.3 0 .5l-.1.1.1.1c0 .1-.1.2 0 .3v1.2h-.1v.6c0 .3 0 .7.3 1l.1.1h.1c.2-.1.2-.3.2-.4v-.1c-.1-.3-.1-.7 0-1v-.3c-.1-.1 0-.2 0-.4v-.4c.1-.6 0-1.4 0-2v-2.7c.1-.3.1-.6.1-.9v-.4c.1-.1.1-.2 0-.3v-1c.1-.2.1-.5.2-.8v-.1c0-.1 0-.1-.1-.2 0-.1.1-.2.1-.4.1-.1.2-.3.2-.5.1 0 .1-.1.1-.2v-.1c.1-.1.2-.2.2-.3.1-.1.1-.2.3-.3h.1v-.1c0-.1.1-.1.2-.2s.2-.1.3-.2c.1 0 .2 0 .2-.1.1 0 .2-.1.3-.2.1-.1.2-.1.3-.1h.1l.1-.1s.1 0 .2-.1h.5c.4-.1.8-.1 1.1.1l.1.1.1-.1c.1.1.2.3.5.2 0 0 .1.1.2.1h.1c.1.1.2.1.3.1.3.3.5.6.5.8v.1h.1c0 .2.1.4.3.6v.5l.1.1c0 .1 0 .2.1.3v.2c-.1.3 0 .4.1.5-.1.1-.1.1-.1.2v.3l-.1.1v.1l.1.1h.1v.3c-.1.2-.1.6 0 .8-.1.1-.1.2 0 .3v.3h.1v.2h.1v.4c0 .2 0 .3.1.4v.1s-.1.1 0 .1v.1s0 .1.1.1v.1h-.1v.1s-.1.1 0 .2l-.1.1s0 .1.1.1c-.1.2.1.4.2.4l.1.1h-.1l.1.2-.1.1v.4s-.1.1-.1.2v.1h.1v.1c0 .1 0 .1-.1.1l.2.1c0 .1 0 .1-.1.1v.1h-.2v1.1l-.1.1.2.2v.2h-.1l.2.2v.1c-.1.1-.1.2-.1.3v.1l.1.1-.1.1v.1h-.2l.2.2h-.2l.1.1v.4c0 .1 0 .1.1.2s.2 0 .2 0v.2l.2-.1c.1 0 .3-.1.4 0h.2v-.2c.1-.6.1-1.2 0-1.7v-2.2" class="st3" id="XMLID_4_" fill="#e98a42"/><path id="path5180" d="M41.5 0H0v41.6h41.6zm-2.2 39.4H2.1V2.2h37.2z" class="st3" fill="#e98a42"/></svg>