<svg xmlns="http://www.w3.org/2000/svg" width="795.739" height="795.739"><path d="M289.908 255.772c-8.306-5.141-24.96-7.91-14.252-19.543 16.064-33.26 34.698-65.504 58.333-94.005-18.105-31.938-46.83-57.84-81.237-71.068-4.27-5.167 7.918-17.315 12.914-22.634 11.925 3.025 22.634 10.475 33.136 16.908 21.195 14.824 39.858 33.8 53.279 55.961 15.01-14.758 30.37-29.152 46.024-43.224 15.2 14.208 30.423 28.406 46.052 42.142 20.888-32.152 51.26-58.731 87.07-72.847 5.183 7.528 10.339 15.075 15.507 22.613-35.466 12.83-66.341 38.757-84.183 72.083 20.139 26.303 38.489 54.01 52.944 83.882 4.182 9.246 15.564 22.08-.586 25.145-9.263 4.78-18.62 9.378-27.931 14.062-19.454-41.867-42.877-82.518-75.53-115.575-4.494-4.627-9-9.242-13.498-13.863-27.1 26.508-51 56.415-68.785 89.998-7.25 12.897-13.083 26.538-20.33 39.429-6.404-2.957-12.636-6.277-18.927-9.464zM156.835 472.62c-8.448-.89-26.178-4.696-34.928-7.499-27.39-8.774-50.745-22.853-70.455-42.47C16.112 387.475-1.884 341.744.156 292.308c.33-7.975 1.308-18.443 2.174-23.262 6.93-38.528 25.355-72.386 53.67-98.62l5.665-5.248 313.555 158.2-46.462 24.43L71.475 218.134l-1.838 2.338c-8.563 10.887-17.616 30.176-21.965 46.8-4.016 15.354-4.986 36.4-2.401 52.122 9.111 55.426 52.183 98.823 107.49 108.3 11.36 1.947 33.535 2.054 43.824.213 5.158-.924 7.258-.98 7.277-.198.015.605 1.33 10.324 2.92 21.598 1.59 11.273 2.763 20.625 2.607 20.782-.157.156-5.183.936-11.17 1.733-9.823 1.307-32.414 1.744-41.384.799z" fill="#4d59a7"/><path d="M378.685 730.47c-22.874-21.049-33.421-32.063-47.558-49.661-39.854-49.613-71.735-116.097-89.192-186-4.741-18.987-14.137-70.952-12.993-71.86l506.695-256.746c2.594 1.388 19.096 18.758 24.326 25.606 15.926 20.851 27.23 45.587 32.905 72 1.642 7.643 2.27 14.83 2.666 30.5.456 18.04.254 22.06-1.678 33.5-2.964 17.557-7.789 32.244-16.096 49-19.588 39.512-52.053 68.882-94.083 85.114-21.536 8.317-43.259 11.865-67.842 11.081-14.092-.45-27.56-1.961-28.871-3.242-.204-.198.918-10.063 2.493-21.92 1.99-14.982 3.218-21.425 4.023-21.116 4.513 1.732 19.473 2.777 33.2 2.318 20.978-.7 34.69-4.157 53.655-13.53 47.48-23.463 76.683-75.482 71.6-127.54-2.359-24.156-10.895-47.39-24.05-65.46l-3.127-4.293L276.23 444.416c-3.253 2.641 10.935 59.242 22.768 90.833 22.702 60.603 55.715 113.62 93.734 150.53l5.12 4.971 9.066-8.97c47.987-47.483 87.058-120.786 106.32-199.471 4.552-18.595 8.194-36.796 7.48-37.383-.21-.173-22.545-11.512-49.632-25.196-27.088-13.684-49.25-25.122-49.25-25.417 0-.774 44.581-24.004 46.066-24.004.684 0 9.386 4.214 19.338 9.365 9.953 5.15 32.158 16.468 49.346 25.15 17.187 8.68 31.25 16.352 31.25 17.045 0 3.241-5.423 35.703-8.51 50.94-15.071 74.395-48.584 149.607-90.785 203.747-17.521 22.479-28.044 33.475-56.922 59.487l-13.582 12.234z" fill="#4d59a7"/></svg>