<svg xmlns="http://www.w3.org/2000/svg" viewBox="0 0 250 250" style="background:#f06;fill:#fff"><path d="M85 80.4a14.4 14.4 0 1 0-14.5-14.3 14.4 14.4 0 0 0 14.6 14.3zm-30.2 77a49.1 49.1 0 0 0-1.3 10.8c0 12.6 7 21 21.5 21 12 0 21.9-7.2 29-18.8l-4.4 17.3h24l13.8-55c3.4-13.9 10-21.1 20.1-21.1 8 0 12.9 4.9 12.9 13a25.6 25.6 0 0 1-1.1 7.8l-7 25.3a37.8 37.8 0 0 0-1.6 10.7c0 12 7.1 20.8 21.9 20.8 12.6 0 22.7-8.2 28.3-27.7l-9.4-3.6c-4.8 13-8.8 15.4-12 15.4-3.3 0-5-2.1-5-6.4a28.5 28.5 0 0 1 1-6.7l7-24.6a54.5 54.5 0 0 0 2.3-15.6c0-18.5-11.1-28.1-24.6-28.1-12.7 0-25.6 11.4-32 23.4l4.7-21.5h-36.6l-5.2 19h17.2L107.7 155c-8.3 18.4-23.5 18.7-25.4 18.3-3.2-.7-5.2-1.9-5.2-6a40 40 0 0 1 1.5-9.8l16.1-63.8H54l-5.1 19h16.9z"/></svg>
