<svg xmlns="http://www.w3.org/2000/svg" width="210.482" height="210.482"><g transform="translate(-84.052 -83.467)"><circle cx="183.91" cy="193.911" r="99.858" fill="#2891ff" paint-order="markers fill stroke"/><path d="M125.91 233.133c-29.024-.304-48.232-32.06-38.815-63.329 11.344-37.663 35.669-62.54 70.444-72.087a99.858 99.858 0 0197.375 26.017l-87.478 86.999c-3.434 4.083-17.342 22.654-41.525 22.4z" fill="#33a0ff" paint-order="markers fill stroke"/><path style="mix-blend-mode:color-burn" d="M290.45 87.668l-82.771 83.106c25.923 5.842 49.74 1.328 68.849-15.044 13.327-11.42 24.232-42.325 13.922-68.062z" fill="#4bc244"/><path style="mix-blend-mode:color-burn" d="M290.45 87.668l-82.771 83.106c-5.915-25.928-1.487-49.79 14.813-68.965 11.369-13.375 42.213-24.383 67.958-14.141z" fill="#5acc52"/></g></svg>