<svg xmlns="http://www.w3.org/2000/svg" viewBox="0 0 25.45 19.89"><path fill="#324bff" d="M25.1.02.16 9.94c-.04.02-.08.04-.12.1a.3.3 0 0 0-.04.14c0 .07.02.1.04.15.02.04.06.08.12.1l7.4 2.68c.04.03.08.03.12.03a.3.3 0 0 0 .13-.05L21.84 2.87h.02s.03 0 .03.02v.04L9.47 13.69c-.02.02-.06.06-.06.08-.02.04-.02.08-.02.1v5.76c0 .06.02.1.04.14.02.05.08.09.12.1.04.03.1.03.16 0 .04-.01.1-.03.13-.07l3.58-4.43a.43.43 0 0 1 .13-.08c.04-.02.1-.02.16 0l4.57 1.66c.06.02.12.02.18 0s.1-.09.13-.15L25.43.33c.02-.04.02-.1.02-.15 0-.04-.04-.1-.06-.12-.04-.04-.08-.06-.12-.06-.06 0-.13 0-.17.02"/></svg>