<svg xmlns="http://www.w3.org/2000/svg" viewBox="0 0 124.2 25.451" width="25.451" height="25.451"><path d="M122.5-35.712.8 12.688c-.2.1-.4.2-.6.5-.1.2-.2.4-.2.7 0 .3.1.5.2.7.1.2.3.4.6.5l36.1 13.1c.2.1.4.1.6.1.2 0 .4-.1.6-.2l68.5-49.9h.1s.1 0 .1.1v.2l-60.6 52.5c-.1.1-.3.3-.3.4-.1.2-.1.4-.1.5v28.1c0 .3.1.5.2.7.1.2.4.4.6.5.2.1.5.1.8 0 .2-.1.5-.2.6-.4l17.5-21.6c.2-.2.4-.3.6-.4.2-.1.5-.1.8 0l22.3 8.1c.3.1.6.1.9 0 .3-.1.5-.4.6-.7l33.4-80.4c.1-.2.1-.5.1-.7 0-.2-.2-.5-.3-.6-.2-.2-.4-.3-.6-.3-.3 0-.6 0-.8.1" style="clip-rule:evenodd;fill:#324bff;fill-rule:evenodd"/></svg>