<svg xmlns="http://www.w3.org/2000/svg" id="Layer_1" data-name="Layer 1" version="1.1" width="186.144" height="186.144"><defs id="defs7039"><style id="style7037"></style></defs><path d="M183.585 20.416L1.165 92.956a1.86 1.86 0 00.05 3.47l54.16 19.61a1.85 1.85 0 001.74-.25l102.68-74.81a.25.25 0 01.31.39l-90.92 79.07a1.85 1.85 0 00-.65 1.41v42.17a1.85 1.85 0 003.29 1.17l26.24-32.35a1.85 1.85 0 012.07-.57l33.47 12.13a1.85 1.85 0 002.34-1l50.05-120.55a1.85 1.85 0 00-2.4-2.44" id="path7043" fill="#00de8c" fill-rule="evenodd"/></svg>