<svg xmlns="http://www.w3.org/2000/svg" width="90" height="90"><path d="M26.98 7.3c-.48.3-1.09.58-1.28.49-1.04-.5-1.7-1.16-1.94-2a47.55 47.55 0 0 1 7.54-3.36c.19.54.4.8 1.32 1.32-.01.07-.03.2-.8.62l-4.6 2.77-.24.15m19.16 2.56c-.12.8-.17 1.13-7.7.61-3.04-.21-7.4-.71-10.9-1.9a24.5 24.5 0 0 0-.08-.13c.05-.22.19-.75 4.9-3.6 1.16-.65 1.16-.65 2.16-.36 1.28.36 4.91 1.21 11.06 1.14.54.08.54.08.58 4.05 0 .06 0 .14-.02.2m.3 20.54c-.69 3.45-29 .1-37.4-4.43-.36-.54-.56-.84 3.04-6.02.86-1.1.86-1.1 2.44-.3 1.98 1.02 10.03 4.32 30.5 4.3 1.34.12 1.34.12 1.45 6.16-.01.09-.01.2-.03.29M8.03 23.78c-.43.64-.76.76-.83.72-.01 0-.61-.42-.92-1.6-.02-.05-.02-.13-.03-.19a45.8 45.8 0 0 1 4.7-6.52c.27.93.28.97.76 1.53.1.2 0 .54-.28.99-1 1.66-2.22 3.17-3.24 4.82-.05.07-.1.18-.16.25m5.93 29.61c-.2 1.3-.53 1.37-5.65-.32-1.97-.66-5.54-2.03-7.23-3.93-.35-.39-.87-.97-1.05-2.1L0 45.93c-.03-2.48.15-4.92.51-7.3.4 1.43 1.23 4.4 12.65 7.22.22.08.89.33 1.02 1.47.22 1.93-.18 3.84-.2 5.75 0 .1 0 .22-.02.31m32.97 2.7c-.74 3.4-28.23-.56-28.5-.6-1.56-.45-1.53-.96-1.18-7.21.23-1.48.23-1.48 4.3-.85 4.16.64 11.6 1.4 23.51 1.39 1.76.13 1.76.13 1.9 6.96-.01.1-.01.22-.03.31M30.07 88.16c.29.18.29.22.3.28-.02 0-1.63-.25-4.15-1.35a46.34 46.34 0 0 1-5.63-3.26l-2.06-1.47c1.45.94 2.7 1.63 6.8 2.68 1.82.55 3.03 2.04 4.58 3.02l.16.1M47.5 89.6c-.37.88-9.81.14-14.48-.6-.62-.13-1.4-.3-4.2-2.7-.3-.28-.28-.31-.25-.5.22-.05.22-.05 2.26.27 2.73.43 7.64.93 15.5.93 1.18.05 1.18.05 1.18 2.51-.01.03 0 .07-.02.1M9.68 71.54c.24.5.17.6.14.66 0 0-1.11-.3-2.62-2.16-2.4-4.14-2.55-4.39-3.89-7.61.68 1.13.96 1.6 2.98 2.86.12.08.47.34.89 1.11.86 1.6 1.51 3.3 2.38 4.91l.12.23m37.64 5.28c-.67 2.48-23.51.22-33.23-2.76-.83-.36-1.29-.56-3.4-5.73-.17-.54-.14-.6 0-.93.72-.24 1.74.36 2.48.57 4.27 1.26 14.17 3.36 32.4 3.33 1.69.1 1.69.1 1.78 5.3 0 .07-.01.16-.03.22" fill="#6a6b75"/><path d="M50.6 3.05c.3.32.26.43.23.55-6.57.96-15.64.16-16.48-2.1 2.7-.74 5.51-1.25 8.4-1.5.57.7 3.04.75 4.53.52.27.09 1.41.8 3.19 2.4l.12.13m8.25 38.87c-.4 3.64-32.56 1.05-32.89 1-17.68-2.04-22.53-5.6-23.84-7.55a4.86 4.86 0 0 1-.6-1.5 44.39 44.39 0 0 1 2.83-7.59c1.91 6.68 25.8 10.68 52.18 8.76 1.6.02 1.6.02 2.32 6.57v.31m12.63 23.44c-1.94 5.27-63.88 5.46-69.25-5.96-1.24-4.46-1.4-5.04-1.9-8.62 2.82 9.62 41.99 12.72 70.3 8.1 1.61.07 1.59.3.91 6.2-.02.08-.03.2-.06.28m-3.92-48.31c2.03 4.55-36.89 4.75-48.99.24-4.44-1.65-4.83-3.22-5-3.9 1.93-1.88 4.01-3.6 6.24-5.14 1.71 5.48 26.38 7.66 43.27 3.84.9.03 1.15.04 4.35 4.73l.13.23m-6.16 66.48c-2.57 3.26-38.08 2.54-45.97-3.74a48.67 48.67 0 0 1-5.74-6.2l-.18-.23c5.51 5.87 29.5 8.63 52.37 6.02 1.4.05 1.28.38-.38 3.98l-.1.17" fill="#3a8bc2"/></svg>