<svg xmlns="http://www.w3.org/2000/svg" width="226.771" height="226.771"><path fill="#fff" d="M0 0h226.771v226.771H0z"/><path d="M93.317 136.403c-.168-5.569 3.5-11.48 12.661-17.54l19.567 26.023a21.265 21.265 0 01-14.425 5.427c-10.439 0-17.538-5.427-17.803-13.91zm25.762-53.947c0-4.613-3.237-7.572-8.372-7.572-4.981 0-8.514 3.276-8.514 7.727 0 4.3 1.285 6.642 7.228 14.279 7.048-5.092 9.658-9.827 9.658-14.434zM3.725 3.724h219.322v219.322H3.725zm153.007 74.093h16.515v86.71l20.62-.007V61.275h-37.138zm-82.213 59.1c1.35 18.878 15.723 29.48 36.6 29.6 10.665.064 17.267-2.184 24.786-8.212l4.6 6.2h20.4l-13.19-17.5c6.266-7.953 8.307-16.191 8.307-29.235 0-.788-.22-4.006-.22-6.228h-16.575c.161 2.539.335 4.865.368 5.659.264 6.681-1.021 14.905-2.507 16.249l-17.841-24.201c12.047-10.021 15.961-17.108 15.961-26.644 0-13.044-10.122-22.561-24.411-22.561-15.419 0-26.3 9.355-26.3 22.083 0 7.475 1.911 11.6 11.226 23.53-14.476 8.353-22.018 19.97-21.204 31.263zm-49.843-59.1h16.517v86.71l20.626-.007V61.275H24.676z" fill="#003d8f"/></svg>