<svg xmlns="http://www.w3.org/2000/svg" version="1.1" id="Layer_1" x="0" y="0" xml:space="preserve" width="85.219" height="85.219"><style type="text/css" id="style46068">.st0{fill:#6fbb44}</style><g id="g529" transform="translate(-14.85)"><g transform="translate(-5.44 -19.483)" id="g46114"><path d="M101.9 47.4c-2.6-3.4-6.2-5.1-10.8-5.1l-20.8-.2-.1 11.2 18.8.2c1.3 0 2.4.5 3.2 1.6.7.9 1 2 1 3.3 0 1.3-.4 2.3-1.1 3.2-.8.9-1.8 1.4-3.2 1.4L70 62.7l-.1 11.4 20.8.2c4.6.1 8.3-1.6 11-4.9 2.4-3 3.7-6.6 3.8-11-.1-4.2-1.2-7.9-3.6-11z" id="path46092"/><path transform="matrix(.00617 -1 1 .00617 9.662 105.08)" class="st0" id="rect46094" d="M52.1 41h11.2v13.4H52.1z" fill="#6fbb44"/><path transform="matrix(.00617 -1 1 .00617 8.063 78.394)" class="st0" id="rect46096" d="M40.1 31h6.8v8.2h-6.8z" fill="#6fbb44"/><path transform="matrix(.00617 -1 1 .00617 -.837 66.694)" class="st0" id="rect46098" d="M30.7 30.8h5v6h-5z" fill="#6fbb44"/><path transform="matrix(.00617 -1 1 .00617 -2.181 88.45)" class="st0" id="rect46100" d="M40.1 41.3h6.6v8h-6.6z" fill="#6fbb44"/><path transform="matrix(.00617 -1 1 .00617 15.172 68.588)" class="st0" id="rect46102" d="M39.6 23.7h5v6h-5z" fill="#6fbb44"/><path transform="matrix(.00617 -1 1 .00617 6.162 58.788)" class="st0" id="rect46104" d="M30.8 24.1h3.7v4.4h-3.7z" fill="#6fbb44"/><path transform="matrix(.00617 -1 1 .00617 4.692 47.365)" class="st0" id="rect46106" d="M24.3 19.1H28v4.4h-3.7z" fill="#6fbb44"/><path transform="matrix(.00617 -1 1 .00617 20.733 91.3)" class="st0" id="rect46108" d="M53 31.2h6.6v8H53z" fill="#6fbb44"/><path d="M64.3 63c-4 .5-7.2 1.9-9.5 4.2-2.6 2.6-4 6-4 10.2v17.5l13.3.1z" id="path46110"/><path class="st0" d="M72.1 83.5c11.3 1.4 19.2 4.5 19.2 8 0 4.7-14.5 8.5-32.4 8.4-17.9-.1-32.3-4-32.3-8.8 0-3.5 8-6.5 19.3-7.7-14.9 1.4-25.6 5.3-25.6 10.1 0 6 17.2 11 38.6 11.2 21.3.1 38.7-4.7 38.7-10.7 0-4.8-10.7-8.9-25.5-10.5z" id="path46112" fill="#6fbb44"/></g></g></svg>