<svg xmlns="http://www.w3.org/2000/svg" width="60" height="60"><g fill="#0070f1" fill-rule="evenodd"><path d="M30 60c16.569 0 30-13.431 30-30C60 13.431 46.569 0 30 0 13.431 0 0 13.431 0 30c0 16.569 13.431 30 30 30z"/><path d="M22.628 40.06c.122.39.187 1.027.187 1.458 0 1.726-1.052 3.2-2.535 3.788.866.617 1.918.98 3.053.98 2.953 0 5.347-2.452 5.347-5.475 0-.179-.008-.577-.024-.752H41.1c3.636-.096 6.556-2.92 6.556-6.664 0-3.745-2.92-6.791-6.556-6.885l-1.103-.002c.045-.406.068-.818.068-1.236 0-5.95-4.71-10.772-10.522-10.772-5.734 0-10.397 4.695-10.52 10.534-3.187.921-5.523 3.92-5.523 7.478 0 4.29 3.398 7.547 7.59 7.547z" fill="#fff"/></g></svg>