<svg xmlns="http://www.w3.org/2000/svg" fill="none" viewBox="0 0 34.05 28.71"><path fill="#00d2b2" fill-rule="evenodd" d="M24.72.21 1 12.73a1.86 1.86 0 0 0-.78 2.51l6.6 12.48c.48.9 1.61 1.25 2.52.77L33.06 16a1.86 1.86 0 0 0 .78-2.53L27.24 1a1.87 1.87 0 0 0-2.52-.78z" clip-rule="evenodd"/><path fill="#003049" fill-opacity=".75" fill-rule="evenodd" d="m9.33.21 23.73 12.52a1.84 1.84 0 0 1 .78 2.51l-6.6 12.48a1.87 1.87 0 0 1-2.52.77L1 16a1.86 1.86 0 0 1-.78-2.53L6.81 1A1.87 1.87 0 0 1 9.33.21z" clip-rule="evenodd"/><path fill="#003049" fill-rule="evenodd" d="M0 14.53zM17.04 4.27.99 12.73a1.8 1.8 0 0 0-.98 1.8v.06c.07.52.35 1.06.98 1.4l16.04 8.45 16.03-8.46a1.78 1.78 0 0 0 .98-1.86 1.77 1.77 0 0 0-.98-1.4z" clip-rule="evenodd"/></svg>