<svg xmlns="http://www.w3.org/2000/svg" width="532.668" height="532.668" viewBox="0 0 140.935 140.935"><g fill="#00599c" fill-rule="evenodd"><path d="M106.806 41.537c4.763-.774 2.528 7.798 1.267 11.15-1.72-4.134-2.994-6.47-5.95-10.344 1.717-.545 2.985-.545 4.682-.806zm-36.47 14.02h-12.96c-.996-3.111-.055-3.89 2.744-4.17 5.234-.494 9.745-.494 10.215 4.17zm-.98 51.881v-9.827h7.495l-11.267 31.966-11.192-31.966h7.492v7.048c-.027-.028.005.651.246.72.99.526 1.217.526 1.203.501zm22.228 20.02c0 .013-5.33.532-8.705.559-3.114-.028-8.014-.546-8.038-.558l8.038-25.668zm-43.22.559c-3.4-.028-8.73-.546-8.708-.558l8.707-25.668 8.038 25.668c-.028.012-4.914.53-8.038.558zm90.945-78.44c-1.743-15.044-2.756-18.946-4.748-22.32-1.607-2.76-18.004-10.388-41.697-15.33-9.747 10.654-9.776 14.885-9.985 16.645-.272 1.804 3.224 6.271 6.754 10.903 6.472 8.555 8.222 10.118 9.202 12.715 1.884 4.883-1.23 15.809-3.472 25.968-.028-.028-5.834-21.424-8.525-35.318-.253-1.298.254-2.077.24-2.052-14.647-1.458-24.452-2.104-26.23 5.669-6.718.017-9.813 1.968-10.473 3.12-1.755 2.896.353 8.95 1.467 11.937.938-2.34 6.953-1.952 8.888-1.836.857.042.857.536 1.095 1.03l.055 29.11H44.645l-14.979 40.757c6.95 3.394 14.203 5.984 18.693 5.986 4.523 0 15.62-5.974 17.22-5.986 1.52.012 12.763 5.984 17.296 5.986 4.47 0 11.725-2.337 18.69-5.986L86.58 89.818h-17.23V62.266c-.295-1.824-1.085-2.414-1.76-2.53h8.766c-1.267-5.214-3.018-8.843-5.481-9.099.707-1.044 1.243-1.462 2.254-2.371h-6.756c.725-3.61 9.478-2.313 13.212-2.057 3.88 19.534 11.206 45.772 11.507 46.234.312.423 6.508 2.784 7.255 2.863 3.56-7.822 8.938-30.834 9.247-36.38 4.473 1.543 2.697 7.652 1.753 13.744-5.056 31.623-9.068 41.108-10.273 46.989 4.478-.973 7.274-1.804 7.726-2.308.715-.717 2.756-6.067 4.554-11.972 2.595-8.562 6.948-30.362 6.696-38.936-.014-2.079-1.72-4.153-4.737-5.735 0 .022 1.515-2.625 2.24-4.338.924-2.239 2.012-5.998 2.012-5.981 1.757.504 3.306 1.302 3.531 3.11.968 8.268.461 9.05-.542 24.347-.296 4.883-1.995 14.577-3.72 24.694-3.216 18.561-6.27 26.516-6.27 29.34 4.746-1.55 8.4-2.75 8.768-3.367.47-.887 3.973-9.879 6.455-23.355 1.07-5.775 1.837-11.489 2.742-17.397 1.27-7.814 1.515-15.89 1.525-22.63 0-9.83 1.135-9.879-5.969-13.744 2.727-8.031 2.142-13.276 1.462-14.78-1.224-2.855-2.72-2.855-9.015-2.361 2.283 2.099 1.57 6.517 1.033 9.095-1.234-1.025-.754-2.84-7.486-2.553-1.01-11.194-3.017-12.445-3.28-12.78-.96-1.272-6.52-.675-8.215 0 1.241.807 3.753 9.637 2.492 13.028-.743-1.057-10.23-11.963-9.497-14.027.458-1.26 1.013-2.612 4.269-6.476 11.233 2.047 30.477 9.319 31.466 11.405 1.197 2.514 2.303 5.417 2.975 9.847 1.056 6.429 2.963 21.776 2.012 45.163-.98 24.152-4.072 37.87-4.017 37.137 3.546-1.111 9.332-6.594 9.805-7.793 1.505-3.971 2.214-18.155 2.737-31.15.494-12.985-.826-29.371-1.522-35.564z"/><path d="M59.432 7.081C67.48 3.84 75.617 4.423 77.888 4.403c-1.568 5.003-8.195 14.593-15.151 18.07-3.777 1.853-11.234 3.365-15.892 4.772-5.413 1.567-13.731 4.369-20.035 9.219-4.416 3.418-6.45 8.246-5.937 14.884 3.86-4.258 12.08-9.555 18.77-11.704-1.805 6.127-1.52 11.077-3.624 16.702-1.313 3.577-11.285 12.186-14.084 16.668-2.025 3.233-3.088 8.587-2.318 13.297-.014-.013 2.567-3.378 4.314-5.347 4.224-4.504 12.367-10.047 12.337-10.047.028 3.022-1.256 16.179-2.814 21.761-1.23 4.57-9.5 13.214-11.769 15.624-.028-.027 2.375 6.366 3.811 10.564 1.3 3.726 1.795 6.382 1.815 6.365-2.837-1.046-16.176-6.614-20.325-10.88-4.692-4.85-4.951-10.29-5.892-16.135-.26-1.841-1.436-13.352-.996-15.66-.028.025 6.97 4.88 10.512 9.041 3.86 4.51 6.67 8.753 6.69 8.78-.285-1.885-.647-3.503-.754-4.777-.402-3.519 1.854-6.12 1.506-6.932 0 .015-.251-.777-1.256-2.929-1.98-4.055-11.606-10.897-14.132-15.33-1.13-1.796-3.608-5.857-2.07-26.502 0 0 7.641 8.063 11.581 13.207 2.456 3.31 5.105 8.502 5.124 8.517-.78-7.17 2.044-10.847 1.82-10.91-.042-.205-.536-2.854-1.57-4.712-3.597-6.36-12.152-9.914-13.317-17.487-1-5.889 1.508-10.609 14.822-15.9 2.61 9.269 1.069 17.221.815 24.612 6.406-5.538 5.625-19.59 8.76-24.613 1.094-1.865 2.553-3.844 7.39-5.853 4.528-1.836 7.216-3.162 11.582-3.687-.083.525-2.46 9.082-4.381 13.227-2.308 5.053-5.46 7.015-5.635 7.443 5.126-1.329 8.99-3.716 12.334-8.78 1.116-1.642 2.424-3.473 3.885-5.78 1.321-2.22 2.757-4.948 5.628-6.11"/></g></svg>