<svg xmlns="http://www.w3.org/2000/svg" version="1.1" id="svg33621" width="99.28" height="99.28"><defs id="defs33601"><style id="style33599">.cls-1{fill:#0f69a0}.cls-3{fill:#00a4e4}.cls-4{fill:#36ac91}</style></defs><g id="g34212" transform="translate(.015 .244)"><path id="fullLogo" class="cls-1" d="M9.46 55.67a8.88 8.88 0 1114.78-3.72.54.54 0 00.13.54l4.38 4.38a.55.55 0 00.88-.12 15.74 15.74 0 10-6.53 6.53.55.55 0 00.13-.88l-4.39-4.38a.53.53 0 00-.54-.13 8.86 8.86 0 01-8.84-2.22z"/><path id="fullLogo-2" data-name="fullLogo" d="M9.47 76.76a8.88 8.88 0 113.72 14.78.54.54 0 00-.54.13l-4.38 4.38a.56.56 0 00.12.89 15.76 15.76 0 10-6.53-6.54.55.55 0 00.88.13l4.38-4.38a.53.53 0 00.13-.54 8.88 8.88 0 012.22-8.85z" fill="#1d2d5c"/><path id="fullLogo-3" data-name="fullLogo" class="cls-1" d="M49.62 91.93a8.89 8.89 0 117.82-13.09.56.56 0 00.48.3h6.2a.56.56 0 00.53-.72 15.74 15.74 0 100 9.24.56.56 0 00-.54-.71h-6.17a.55.55 0 00-.48.29 8.87 8.87 0 01-7.84 4.69z"/><path id="fullLogo-4" data-name="fullLogo" class="cls-3" d="M40.74 49.39a8.88 8.88 0 1113.08 7.82.53.53 0 00-.29.48v6.2a.55.55 0 00.71.53 15.75 15.75 0 10-9.23 0 .55.55 0 00.7-.54v-6.19a.54.54 0 00-.29-.48 8.89 8.89 0 01-4.68-7.82z"/><path id="fullLogo-5" data-name="fullLogo" class="cls-3" d="M24.63 15.74a8.89 8.89 0 11-13.09-7.83.52.52 0 00.29-.47v-6.2a.55.55 0 00-.7-.54 15.74 15.74 0 109.23 0 .56.56 0 00-.71.54v6.2a.55.55 0 00.29.48 8.85 8.85 0 014.69 7.82z"/><path id="fullLogo-6" data-name="fullLogo" class="cls-3" d="M89.79 76.76A8.89 8.89 0 1175 80.48a.52.52 0 00-.13-.54l-4.38-4.39a.56.56 0 00-.88.12 15.75 15.75 0 106.53-6.52.55.55 0 00-.12.88l4.38 4.38a.54.54 0 00.54.13 8.88 8.88 0 018.85 2.22z"/><path id="fullLogo-7" data-name="fullLogo" class="cls-4" d="M89.79 55.67a8.89 8.89 0 11-3.73-14.78.55.55 0 00.55-.13l4.38-4.38a.57.57 0 00-.12-.89 15.75 15.75 0 106.53 6.54.56.56 0 00-.89-.13l-4.38 4.38a.56.56 0 00-.13.55 8.87 8.87 0 01-2.21 8.84z"/><path id="fullLogo-8" data-name="fullLogo" d="M83.68 24.61a8.88 8.88 0 117.82-13.08.55.55 0 00.48.29h6.19a.56.56 0 00.54-.71 15.75 15.75 0 100 9.23.56.56 0 00-.54-.71h-6.23a.57.57 0 00-.48.29 8.87 8.87 0 01-7.78 4.69z" fill="#6cb33f"/><path id="fullLogo-9" data-name="fullLogo" class="cls-4" d="M43.35 9.45a8.89 8.89 0 113.72 14.78.54.54 0 00-.54.14l-4.38 4.38a.55.55 0 00.12.88 15.74 15.74 0 10-6.53-6.53.56.56 0 00.88.12L41 18.84a.54.54 0 00.14-.54 8.87 8.87 0 012.21-8.85z"/></g></svg>