<svg xmlns="http://www.w3.org/2000/svg" width="92.842" height="92.842"><g fill="#007054" fill-rule="evenodd"><path d="M41.175 37.663c-2.587-2.441-5.073-3.151-7.117-3.151-2.805 0-4.805 1.465-4.805 3.597 0 5.831 13.117 5.739 13.117 15.389 0 4.757-3.606 8.224-8.49 8.224-3.29 0-5.962-.887-8.496-2.801v-5.513c2.22 2.846 5.02 4.402 8.008 4.402 3.376 0 4.935-2.135 4.935-3.826 0-6.267-13.12-6.978-13.12-15.293 0-4.936 3.645-8.094 9.203-8.094 2.31 0 4.63.714 6.765 2.134zM72.073 37.758c-3.732-2.178-6.94-3.16-10.45-3.16-6.934 0-12.1 4.942-12.1 11.605 0 6.811 4.984 11.523 12.28 11.523 3.427 0 7.16-1.203 10.58-3.426v4.759c-2.98 1.555-6.22 2.663-10.986 2.663-11.382 0-16.36-8.759-16.36-15.116 0-9.249 6.979-16.009 16.63-16.009 3.114 0 6.274.755 10.406 2.49zM0 46.97c0 8.794 5.27 16.723 13.717 22.314a24.564 24.564 0 012.206-1.392C9.574 62.422 5.691 55.06 5.691 46.97c0-8.781 4.57-16.693 11.893-22.28a28.537 28.537 0 01-2.138-1.131C5.994 29.187 0 37.582 0 46.969"/><path d="M69.587 23.576c-.67.393-1.38.769-2.133 1.127 7.309 5.591 11.865 13.496 11.865 22.267 0 8.083-3.871 15.433-10.21 20.914.797.437 1.532.9 2.217 1.38C79.749 63.676 85.01 55.752 85.01 46.97c0-9.376-5.988-17.773-15.424-23.394M19.628 61.322V30.995h-4.354v30.327zM92.842 40.247h-6.068v-.095c1.055-1.278 2.522-3.02 3.336-4.405.442-.77.67-1.252.67-2.051 0-1.053-.702-1.798-1.642-1.798-.689 0-1.39.306-2.164 1.29v-1.727c.773-.616 1.493-.908 2.261-.908 1.731 0 2.922 1.216 2.922 2.992 0 1.554-.839 2.857-2.977 5.4h3.662z"/></g></svg>