<svg xmlns="http://www.w3.org/2000/svg" viewBox="0 0 81 30"><path d="M3.9.3V26L.1 29.7l-.2-.1V.2h3.8Zm10 7.4c0-2.6 2-4.1 4.8-4.1 2.4 0 4.2 1 6.1 2.8.3.3.4.4.7 0l1.7-1.8c.3-.3.2-.4-.1-.7A11.3 11.3 0 0 0 18.7 0C13.9 0 10 3.1 10 7.6c0 9.4 14.5 7.5 14.5 14 0 2.7-2.4 4.7-5.8 4.7-3.3 0-5-1.5-7-3.2-.2-.3-.3-.4-.5-.1l-2 1.8c-.3.3-.3.3 0 .6a12 12 0 0 0 9.5 4.6c5.2 0 9.6-3.5 9.6-8.2 0-10-14.6-7.7-14.6-14.1Zm33.9-4c3 0 5.3 1.2 7.4 3l.2.1c.2.2.3.2.5 0l.2-.3L58 4.6c.2-.2.1-.2 0-.4l-.2-.2a15 15 0 0 0-10-4C39.6 0 33 6.7 33 15c0 8.4 6.5 15 14.8 15a15 15 0 0 0 9.9-4.1c.3-.3.4-.4 0-.7l-1.7-2c-.3-.2-.4-.1-.6.1a12 12 0 0 1-7.6 3c-6 0-10.8-5-10.8-11.3 0-6.4 4.8-11.2 10.8-11.2ZM71.6.2a10.8 10.8 0 0 0-8.8 4.2c-.1.2 0 .2.1.4L65 7h.1l.3-.2c1.1-1.2 3.1-3.2 6.2-3.2 3.5 0 5.6 2.1 5.6 5.3 0 4.5-2.6 6.6-8.3 11.4a438 438 0 0 0-5.7 5.2v4c0 .2.2.3.3.2l10.3-9c5.5-4.6 7-7.8 7-11.8 0-5-3.6-8.7-9.1-8.7Z"/><path fill="#468145" d="M80.8 26.4h-9.3s-.2 0-.2.2v2.7l.2.2h9.3c.1 0 .2 0 .2-.2v-2.7c0-.1 0-.2-.2-.2Z"/></svg>
