<svg xmlns="http://www.w3.org/2000/svg" width="452" height="452"><path d="M452 291.5H0v-131h452v131" fill="#0d110b"/><path d="M32.286 210.344v61.63H19.984v-61.63zm0-21.573v12.305H19.984v-12.305h12.302M85.486 239.738c6.57 3.505 9.856 8.234 9.856 14.19 0 5.956-3.286 10.688-9.856 14.192-5.402 2.88-11.349 4.321-17.84 4.321-6.493 0-12.44-1.438-17.842-4.314-6.608-3.499-9.914-8.223-9.914-14.17h12.306c0 2.18 2.156 3.847 6.47 5.014 2.876.779 5.87 1.167 8.98 1.167 8.2 0 12.304-2.05 12.304-6.152 0-4.06-4.104-6.093-12.305-6.093-6.492 0-12.439-1.438-17.841-4.32-6.608-3.542-9.914-8.294-9.914-14.25 0-5.956 3.306-10.686 9.914-14.19 5.441-2.88 11.39-4.322 17.841-4.322 6.492 0 12.439 1.437 17.841 4.314 6.57 3.5 9.856 8.223 9.856 14.17H83.038c0-2.138-2.156-3.791-6.47-4.958a34.052 34.052 0 00-8.923-1.166c-8.24 0-12.361 2.032-12.361 6.094 0 4.102 4.121 6.15 12.361 6.15 6.492 0 12.439 1.442 17.841 4.323M115.25 179.559v92.416h-12.302v-92.416h12.301" fill="#fff"/><path d="M140.433 227.974c-3.519 3.512-5.279 7.928-5.279 13.243 0 5.28 1.771 9.674 5.308 13.185 3.535 3.514 7.947 5.269 13.235 5.269 5.285 0 9.688-1.755 13.207-5.27 3.516-3.51 5.277-7.904 5.277-13.184 0-5.277-1.761-9.681-5.277-13.213-3.519-3.533-7.922-5.3-13.207-5.3-5.325 0-9.748 1.757-13.264 5.27zm35.216-8.767c5.89 5.91 8.833 13.237 8.833 21.982 0 8.707-2.954 16.015-8.862 21.925-5.91 5.907-13.218 8.86-21.923 8.86-8.708 0-16.027-2.953-21.952-8.86-5.928-5.91-8.89-13.218-8.89-21.925 0-8.745 2.951-16.072 8.862-21.982 5.908-5.908 13.233-8.863 21.98-8.863 8.745 0 16.063 2.955 21.952 8.863M244.881 219.207c5.89 5.91 8.833 13.237 8.833 21.982v30.786h-12.3v-30.786c0-5.286-1.76-9.7-5.278-13.236-3.519-3.537-7.922-5.306-13.207-5.306-5.325 0-9.747 1.76-13.264 5.277-3.519 3.52-5.279 7.94-5.279 13.265v30.786h-12.3v-30.786c0-8.745 2.952-16.072 8.863-21.982 5.908-5.908 13.233-8.863 21.98-8.863 8.745 0 16.063 2.955 21.952 8.863M273.618 179.559v92.416h-12.3v-92.416h12.3M293.526 210.344v61.63h-12.302v-61.63zm0-21.573v12.305h-12.302v-12.305h12.302M353.925 219.207c5.892 5.91 8.835 13.237 8.835 21.982v30.786h-12.302v-30.786c0-5.286-1.758-9.7-5.278-13.236-3.518-3.537-7.919-5.306-13.206-5.306-5.325 0-9.745 1.76-13.265 5.277-3.517 3.52-5.276 7.94-5.276 13.265v30.786H301.13v-30.786c0-8.745 2.954-16.072 8.863-21.982 5.908-5.908 13.236-8.863 21.981-8.863 8.747 0 16.066 2.955 21.951 8.863M401.218 222.712c5.288 0 9.692 1.767 13.212 5.297 2.158 2.166 3.648 4.66 4.483 7.48h-35.457c.833-2.844 2.33-5.346 4.494-7.505 3.52-3.516 7.943-5.272 13.268-5.272zm.094 37.055h-.094c-5.286 0-9.702-1.835-13.238-5.347-2.03-2.017-3.479-4.33-4.343-6.93h47.821c.37-2.007.558-4.106.558-6.29 0-8.75-2.948-16.079-8.838-21.99-5.892-5.907-13.209-8.866-21.96-8.866-8.746 0-16.077 2.959-21.986 8.867-5.912 5.91-8.867 13.24-8.867 21.99 0 8.71 2.964 16.02 8.893 21.93 5.932 5.912 13.251 8.837 21.96 8.837.436 0 .864.015 1.295 0h29.096v-12.202h-30.297" fill="#adda1a"/></svg>