<svg xmlns="http://www.w3.org/2000/svg" viewBox="0 0 149 200"><path d="M119.28 0c-38.12 0-63.5 28.27-63.5 57.15 0 27.94 20.57 44.6 35.73 51.44 11.39 5.14 20 15.4 20 27.94 0 16.08-15.28 31.73-38.08 31.73a48 48 0 0 1-8.65-.82l-16.4 28.38A76.57 76.57 0 0 0 73.47 200c37.37 0 69.86-27.43 69.86-63.48 0-27-18.47-48.11-39.16-57-11.82-5.1-16.62-14.77-16.62-22.33 0-14.38 15.11-25.38 31.73-25.38a41 41 0 0 1 13.31 2.34c1.27-2.19 14.2-24.59 16-27.68A70.09 70.09 0 0 0 119.28 0" style="fill:#00a442"/><path d="M19.47 15a19.07 19.07 0 1 0 19.09 19 19 19 0 0 0-19.09-19M19.46 72.93A15.85 15.85 0 0 0 3.61 88.8v47.89c0 20.23 10.68 39.86 30.25 52.16l15.91-27.48c-10.08-6.61-14.39-16.37-14.39-24.83V88.8a15.9 15.9 0 0 0-15.92-15.87" style="fill:#002776"/></svg>
