<svg xmlns="http://www.w3.org/2000/svg" viewBox="0 0 221.105 221.102" height="221.106" width="221.106"><path color="#000" d="M28.828 12.31C19.184 18.034.182 39.865 0 45.59v9.478c0 12.014 11.23 22.572 21.424 22.572 12.24 0 22.44-10.146 22.442-22.187 0 12.04 9.85 22.187 22.093 22.187 12.242 0 21.776-10.146 21.776-22.187 0 12.04 10.47 22.187 22.71 22.187h.22c12.24 0 22.72-10.146 22.72-22.187 0 12.04 9.53 22.187 21.77 22.187s22.09-10.146 22.09-22.187c0 12.04 10.2 22.187 22.44 22.187 10.19 0 21.42-10.557 21.42-22.572v-9.478c-.19-5.725-19.19-27.556-28.83-33.282-29.97-1.053-50.76-1.234-81.73-1.23-30.959.002-73.189.485-81.719 1.23zm58.753 59.673a25.26 25.26 0 01-4.308 5.546 25.588 25.588 0 01-17.94 7.32c-6.985 0-13.356-2.8-17.976-7.322-1.67-1.64-2.94-3.394-4.11-5.436v.004c-1.16 2.046-2.79 3.798-4.46 5.44a25.664 25.664 0 01-17.97 7.317c-.84 0-1.71-.23-2.42-.47-.98 10.25-1.4 20.04-1.544 27.19v.04c-.02 3.63-.035 6.61-.054 10.75.19 21.51-2.13 69.7 9.48 81.54 17.99 4.2 51.094 6.11 84.31 6.12h.003c33.214-.01 66.32-1.92 84.31-6.11 11.61-11.842 9.29-60.032 9.48-81.535-.017-4.14-.034-7.122-.053-10.75v-.04c-.15-7.142-.565-16.935-1.55-27.183-.71.24-1.587.473-2.43.473a25.68 25.68 0 01-17.975-7.316c-1.675-1.645-3.3-3.397-4.463-5.44l-.005-.007c-1.167 2.04-2.438 3.797-4.113 5.436a25.669 25.669 0 01-17.973 7.32 25.59 25.59 0 01-17.94-7.32 25.428 25.428 0 01-4.31-5.546 25.185 25.185 0 01-4.266 5.546 25.673 25.673 0 01-17.98 7.32c-.244 0-.49-.01-.73-.02h-.008c-.243.01-.486.02-.73.02-6.986 0-13.357-2.8-17.978-7.32a25.16 25.16 0 01-4.27-5.544zM69.119 95.856l-.002.008h.02c7.31.016 13.81 0 21.85 8.783 6.34-.663 12.95-.996 19.58-.985h.01c6.63-.01 13.24.33 19.58.99 8.05-8.78 14.54-8.76 21.85-8.78h.02v-.01c3.46 0 17.27 0 26.9 27.04l10.348 37.1c7.665 27.6-2.453 28.28-15.073 28.3-18.72-.69-29.08-14.29-29.08-27.88-10.36 1.7-22.45 2.55-34.535 2.55h-.005c-12.086 0-24.172-.85-34.53-2.55 0 13.59-10.36 27.18-29.078 27.88-12.62-.02-22.74-.7-15.073-28.29l10.34-37.1c9.63-27.04 23.45-27.04 26.9-27.04zm41.44 21.25v.007c-.017.017-19.702 18.096-23.24 24.526l12.89-.516v11.24c0 .527 5.174.313 10.35.074h.007c5.177.24 10.35.453 10.35-.073v-11.24l12.89.514c-3.538-6.43-23.24-24.525-23.24-24.525v-.006l-.002.002z"/></svg>