<svg xmlns="http://www.w3.org/2000/svg" version="1.1" id="Layer_1" x="0" y="0" xml:space="preserve" width="158.3" height="158.3"><style type="text/css" id="style34289">.st2{fill:#fff}</style><g id="g34908" transform="translate(-4.5 -4.7)"><path d="M48.1 4.7c-24 0-43.6 19.6-43.6 43.6v71.1c0 24 19.6 43.6 43.6 43.6h71.1c24 0 43.6-19.6 43.6-43.6V4.7z" id="path34291" fill="#f47920"/><path class="st2" d="M116.9 124c-9.3.1-16.3-5.4-19.7-10.9-.9-1.4-1-3.2.5-4.4 1.3-1 3.1-.9 4.3.7 3.1 4.2 8.4 8.4 14.9 8.4 10.5-.1 14.5-7.5 14.4-14.2-.1-12.2-14.7-12.3-14.7-12.3-12.4-.6-19.7-7.3-19.8-17.5-.1-8.6 6.5-17.7 19.5-17.8 5.7 0 11.2 2.3 14.3 5.4 1.3 1.2 1.3 3.2 0 4.4-1.2 1.1-3 1.2-4.8-.2-2.6-2.1-5.6-3.5-9.5-3.5-10.6.1-13.2 7.9-13.2 11.7.1 10.6 13.2 11.5 13.2 11.5 11.3.6 21.4 5.5 21.5 18.3.2 11.4-7.7 20.3-20.9 20.4z" id="path34299"/><path class="st2" d="M43 40.8c0-2.5-2-4.4-4.5-4.4s-4.4 2-4.4 4.5 2 4.4 4.5 4.4 4.4-2 4.4-4.5z" id="path34301"/><path class="st2" d="M38.5 123.9c-1.8 0-3.2-1.3-3.2-2.9V58.8c0-1.6 1.5-2.9 3.2-2.9 1.7 0 3.2 1.3 3.2 2.9v62.1c.1 1.7-1.4 3-3.2 3z" id="path34303"/><path class="st2" d="M88.6 118.8c-.4-1.7-2.2-2.7-3.9-2.3-6.8 1.8-12 1.4-15.4-1-2.2-1.6-4.9-5-5.3-12.3v-.2c-.1-1.4-.1-20.6 0-40.7h21.2c1.8 0 3.2-1.4 3.2-3.2 0-1.8-1.4-3.2-3.2-3.2H63.9V38.2c0-1.8-1.4-3.2-3.2-3.2-1.8 0-3.2 1.4-3.2 3.2 0 6.4-.2 62.6 0 65.2v.2c.5 9.8 4.6 14.7 7.9 17.1 3.1 2.3 7 3.4 11.5 3.4 2.8 0 6-.4 9.4-1.3 1.7-.6 2.7-2.3 2.3-4z" id="path34305"/></g></svg>