<svg xmlns="http://www.w3.org/2000/svg" width="87" height="87"><path d="M6.987 31h6.248a.266.266 0 01.261.31l-4.6 28.07a.266.266 0 01-.246.224l-6.87.395-.015.001a.268.268 0 01-.261-.311l3.88-23.464c-.08-3.496-4.357-4.34-4.878-4.472C-.057 31.612.002 31 .002 31zm33.475.127A.26.26 0 0040.24 31H33.5a.26.26 0 00-.23.14l-9.302 17.995-3.166-17.918a.26.26 0 00-.256-.217H13.76a.258.258 0 00-.2.095c-.048.06-.069.14-.055.217L18.53 58.26a.26.26 0 00.269.213l7.834-.453a.259.259 0 00.216-.14L40.47 31.383a.266.266 0 00-.009-.257zm20.995 5.686c-.087-.814-.272-1.537-.55-2.15a5.445 5.445 0 00-1.043-1.562 6.742 6.742 0 00-1.278-1.033c-1.07-.62-2.343-.98-3.798-1.068H41.91a.255.255 0 00-.25.216l-4.157 25.43a.262.262 0 00.06.216.25.25 0 00.19.085h.014l6.473-.377a.255.255 0 00.236-.216l.774-4.792h6.301a10.39 10.39 0 004.022-1.061c1.069-.531 2.11-1.386 3.099-2.54.996-1.166 1.691-2.825 2.063-4.932l.592-3.409c.172-1.053.215-1.998.129-2.807zM53.99 42.89a2.614 2.614 0 01-.423 1.023c-.178.258-.418.49-.713.686-.28.187-.667.281-1.15.281h-5.402l1.143-7.242h5.484c.468 0 .81.094 1.014.28.223.202.385.43.48.67.099.281.136.623.114.99zM86.743 31h-6.55a.262.262 0 00-.254.227l-2.333 14.831-5.06-14.878a.259.259 0 00-.241-.18h-6.551a.262.262 0 00-.253.227L61.504 56.63a.283.283 0 00.062.227.25.25 0 00.19.09l6.666-.403a.263.263 0 00.239-.227l1.67-10.72 3.53 10.422a.26.26 0 00.256.18l8.881-.538a.262.262 0 00.239-.227l3.76-24.117a.281.281 0 00-.058-.22.25.25 0 00-.196-.097z" fill="#f34" fill-rule="evenodd"/></svg>